<?xml version="1.0" encoding="UTF-8" standalone="no"?>
<!DOCTYPE svg PUBLIC "-//W3C//DTD SVG 1.1//EN"
 "http://www.w3.org/Graphics/SVG/1.1/DTD/svg11.dtd">
<!-- Generated by graphviz version 2.39.20160927.1334 (20160927.1334)
 -->
<!-- Title: ac_out_off_timer_func Pages: 1 -->
<svg width="333pt" height="85pt"
 viewBox="0.00 0.00 333.00 85.00" xmlns="http://www.w3.org/2000/svg" xmlns:xlink="http://www.w3.org/1999/xlink">
<g id="graph0" class="graph" transform="scale(1 1) rotate(0) translate(4 81)">
<title>ac_out_off_timer_func</title>
<polygon fill="#ffffff" stroke="transparent" points="-4,4 -4,-81 329,-81 329,4 -4,4"/>
<!-- Node1 -->
<g id="node1" class="node">
<title>Node1</title>
<polygon fill="#bfbfbf" stroke="#000000" points="0,-38.5 0,-57.5 115,-57.5 115,-38.5 0,-38.5"/>
<text text-anchor="middle" x="57.5" y="-45.5" font-family="Helvetica,sans-Serif" font-size="10.00" fill="#000000">ac_out_off_timer_func</text>
</g>
<!-- Node2 -->
<g id="node2" class="node">
<title>Node2</title>
<g id="a_node2"><a xlink:href="led_8c.html#a7ef0b27e501c77cd25b8bb7a2de6d8bd" target="_top" xlink:title="led_off">
<polygon fill="#ffffff" stroke="#000000" points="278,-57.5 278,-76.5 325,-76.5 325,-57.5 278,-57.5"/>
<text text-anchor="middle" x="301.5" y="-64.5" font-family="Helvetica,sans-Serif" font-size="10.00" fill="#000000">led_off</text>
</a>
</g>
</g>
<!-- Node1&#45;&gt;Node2 -->
<g id="edge1" class="edge">
<title>Node1&#45;&gt;Node2</title>
<path fill="none" stroke="#191970" d="M95.4483,-57.5097C112.337,-61.2747 132.541,-65.1435 151,-67 190.999,-71.023 237.282,-70.2102 267.846,-68.9213"/>
<polygon fill="#191970" stroke="#191970" points="268.138,-72.4116 277.965,-68.4526 267.814,-65.4191 268.138,-72.4116"/>
</g>
<!-- Node3 -->
<g id="node3" class="node">
<title>Node3</title>
<g id="a_node3"><a xlink:href="led_8c.html#a7cd1d03b4baad9cb20bf1a43046f61a2" target="_top" xlink:title="led_stop_pattern">
<polygon fill="#ffffff" stroke="#000000" points="151,-38.5 151,-57.5 242,-57.5 242,-38.5 151,-38.5"/>
<text text-anchor="middle" x="196.5" y="-45.5" font-family="Helvetica,sans-Serif" font-size="10.00" fill="#000000">led_stop_pattern</text>
</a>
</g>
</g>
<!-- Node1&#45;&gt;Node3 -->
<g id="edge2" class="edge">
<title>Node1&#45;&gt;Node3</title>
<path fill="none" stroke="#191970" d="M115.241,-48C123.619,-48 132.233,-48 140.575,-48"/>
<polygon fill="#191970" stroke="#191970" points="140.581,-51.5001 150.581,-48 140.581,-44.5001 140.581,-51.5001"/>
</g>
<!-- Node4 -->
<g id="node4" class="node">
<title>Node4</title>
<g id="a_node4"><a xlink:href="espmissingincludes_8h.html#a0bbba7104c948de849f8051d9ac956e3" target="_top" xlink:title="os_printf">
<polygon fill="#ffffff" stroke="#000000" points="169,-0.5 169,-19.5 224,-19.5 224,-0.5 169,-0.5"/>
<text text-anchor="middle" x="196.5" y="-7.5" font-family="Helvetica,sans-Serif" font-size="10.00" fill="#000000">os_printf</text>
</a>
</g>
</g>
<!-- Node1&#45;&gt;Node4 -->
<g id="edge4" class="edge">
<title>Node1&#45;&gt;Node4</title>
<path fill="none" stroke="#191970" d="M92.5756,-38.411C112.895,-32.8559 138.468,-25.8649 159.16,-20.2079"/>
<polygon fill="#191970" stroke="#191970" points="160.159,-23.5634 168.882,-17.5502 158.313,-16.8112 160.159,-23.5634"/>
</g>
<!-- Node3&#45;&gt;Node2 -->
<g id="edge3" class="edge">
<title>Node3&#45;&gt;Node2</title>
<path fill="none" stroke="#191970" d="M242.249,-56.2784C250.875,-57.8394 259.749,-59.4451 267.918,-60.9232"/>
<polygon fill="#191970" stroke="#191970" points="267.352,-64.3776 277.815,-62.7142 268.598,-57.4894 267.352,-64.3776"/>
</g>
</g>
</svg>
