<?xml version="1.0" encoding="UTF-8" standalone="no"?>
<!DOCTYPE svg PUBLIC "-//W3C//DTD SVG 1.1//EN"
 "http://www.w3.org/Graphics/SVG/1.1/DTD/svg11.dtd">
<!-- Generated by graphviz version 2.39.20160927.1334 (20160927.1334)
 -->
<!-- Title: ac_off Pages: 1 -->
<svg width="592pt" height="142pt"
 viewBox="0.00 0.00 592.00 142.00" xmlns="http://www.w3.org/2000/svg" xmlns:xlink="http://www.w3.org/1999/xlink">
<g id="graph0" class="graph" transform="scale(1 1) rotate(0) translate(4 138)">
<title>ac_off</title>
<polygon fill="#ffffff" stroke="transparent" points="-4,4 -4,-138 588,-138 588,4 -4,4"/>
<!-- Node1 -->
<g id="node1" class="node">
<title>Node1</title>
<polygon fill="#bfbfbf" stroke="#000000" points="0,-57.5 0,-76.5 44,-76.5 44,-57.5 0,-57.5"/>
<text text-anchor="middle" x="22" y="-64.5" font-family="Helvetica,sans-Serif" font-size="10.00" fill="#000000">ac_off</text>
</g>
<!-- Node2 -->
<g id="node2" class="node">
<title>Node2</title>
<g id="a_node2"><a xlink:href="ac__out_8h.html#a483eac71fafd6926d6e16c08b87530ef" target="_top" xlink:title="ac_motor_valve_close">
<polygon fill="#ffffff" stroke="#000000" points="80,-114.5 80,-133.5 196,-133.5 196,-114.5 80,-114.5"/>
<text text-anchor="middle" x="138" y="-121.5" font-family="Helvetica,sans-Serif" font-size="10.00" fill="#000000">ac_motor_valve_close</text>
</a>
</g>
</g>
<!-- Node1&#45;&gt;Node2 -->
<g id="edge1" class="edge">
<title>Node1&#45;&gt;Node2</title>
<path fill="none" stroke="#191970" d="M43.029,-82.7132C53.7062,-90.1798 67.1172,-98.8041 80,-105 87.4482,-108.582 95.7421,-111.745 103.675,-114.412"/>
<polygon fill="#191970" stroke="#191970" points="44.9406,-79.777 34.7749,-76.7922 40.8604,-85.465 44.9406,-79.777"/>
</g>
<!-- Node3 -->
<g id="node3" class="node">
<title>Node3</title>
<g id="a_node3"><a xlink:href="ac__out_8h.html#aa17a09f7811a797293e31a39906ec1b0" target="_top" xlink:title="ac_motor_valve_open">
<polygon fill="#ffffff" stroke="#000000" points="80.5,-76.5 80.5,-95.5 195.5,-95.5 195.5,-76.5 80.5,-76.5"/>
<text text-anchor="middle" x="138" y="-83.5" font-family="Helvetica,sans-Serif" font-size="10.00" fill="#000000">ac_motor_valve_open</text>
</a>
</g>
</g>
<!-- Node1&#45;&gt;Node3 -->
<g id="edge2" class="edge">
<title>Node1&#45;&gt;Node3</title>
<path fill="none" stroke="#191970" d="M54.2185,-72.2772C62.3485,-73.6088 71.327,-75.0794 80.296,-76.5485"/>
<polygon fill="#191970" stroke="#191970" points="54.526,-68.781 44.0918,-70.6185 53.3945,-75.6889 54.526,-68.781"/>
</g>
<!-- Node4 -->
<g id="node4" class="node">
<title>Node4</title>
<g id="a_node4"><a xlink:href="cron_8c.html#a2782af03df9b913cfa565a0770e1afe1" target="_top" xlink:title="minute_timer_func">
<polygon fill="#ffffff" stroke="#000000" points="88.5,-38.5 88.5,-57.5 187.5,-57.5 187.5,-38.5 88.5,-38.5"/>
<text text-anchor="middle" x="138" y="-45.5" font-family="Helvetica,sans-Serif" font-size="10.00" fill="#000000">minute_timer_func</text>
</a>
</g>
</g>
<!-- Node1&#45;&gt;Node4 -->
<g id="edge3" class="edge">
<title>Node1&#45;&gt;Node4</title>
<path fill="none" stroke="#191970" d="M54.0764,-61.7461C64.609,-60.0209 76.5777,-58.0606 88.11,-56.1716"/>
<polygon fill="#191970" stroke="#191970" points="53.3945,-58.3111 44.0918,-63.3815 54.526,-65.219 53.3945,-58.3111"/>
</g>
<!-- Node7 -->
<g id="node7" class="node">
<title>Node7</title>
<g id="a_node7"><a xlink:href="user__main_8h.html#a53fca5688835df983e3ff1a91d387618" target="_top" xlink:title="mqttDataCb">
<polygon fill="#ffffff" stroke="#000000" points="103,-0.5 103,-19.5 173,-19.5 173,-0.5 103,-0.5"/>
<text text-anchor="middle" x="138" y="-7.5" font-family="Helvetica,sans-Serif" font-size="10.00" fill="#000000">mqttDataCb</text>
</a>
</g>
</g>
<!-- Node1&#45;&gt;Node7 -->
<g id="edge6" class="edge">
<title>Node1&#45;&gt;Node7</title>
<path fill="none" stroke="#191970" d="M43.029,-51.2868C53.7062,-43.8202 67.1172,-35.1959 80,-29 87.4482,-25.4178 95.7421,-22.2547 103.675,-19.5878"/>
<polygon fill="#191970" stroke="#191970" points="40.8604,-48.535 34.7749,-57.2078 44.9406,-54.223 40.8604,-48.535"/>
</g>
<!-- Node5 -->
<g id="node5" class="node">
<title>Node5</title>
<g id="a_node5"><a xlink:href="cron_8h.html#ae130c5973bad35b56776750c7a34db12" target="_top" xlink:title="cron_init">
<polygon fill="#ffffff" stroke="#000000" points="420,-38.5 420,-57.5 474,-57.5 474,-38.5 420,-38.5"/>
<text text-anchor="middle" x="447" y="-45.5" font-family="Helvetica,sans-Serif" font-size="10.00" fill="#000000">cron_init</text>
</a>
</g>
</g>
<!-- Node4&#45;&gt;Node5 -->
<g id="edge4" class="edge">
<title>Node4&#45;&gt;Node5</title>
<path fill="none" stroke="#191970" d="M197.65,-48C264.69,-48 370.594,-48 419.978,-48"/>
<polygon fill="#191970" stroke="#191970" points="197.646,-44.5001 187.646,-48 197.646,-51.5001 197.646,-44.5001"/>
</g>
<!-- Node6 -->
<g id="node6" class="node">
<title>Node6</title>
<g id="a_node6"><a xlink:href="user__main_8h.html#a33113d6dedb440bd7dfa5576e325140c" target="_top" xlink:title="user_init">
<polygon fill="#ffffff" stroke="#000000" points="530,-19.5 530,-38.5 584,-38.5 584,-19.5 530,-19.5"/>
<text text-anchor="middle" x="557" y="-26.5" font-family="Helvetica,sans-Serif" font-size="10.00" fill="#000000">user_init</text>
</a>
</g>
</g>
<!-- Node5&#45;&gt;Node6 -->
<g id="edge5" class="edge">
<title>Node5&#45;&gt;Node6</title>
<path fill="none" stroke="#191970" d="M484.15,-41.5831C499.081,-39.0042 515.98,-36.0853 529.741,-33.7084"/>
<polygon fill="#191970" stroke="#191970" points="483.449,-38.1523 474.191,-43.3034 484.641,-45.0501 483.449,-38.1523"/>
</g>
<!-- Node8 -->
<g id="node8" class="node">
<title>Node8</title>
<g id="a_node8"><a xlink:href="user__main_8c.html#a245ec00253f410a8804988bf40e1037e" target="_top" xlink:title="sample_mode_timer_func">
<polygon fill="#ffffff" stroke="#000000" points="232,-0.5 232,-19.5 364,-19.5 364,-0.5 232,-0.5"/>
<text text-anchor="middle" x="298" y="-7.5" font-family="Helvetica,sans-Serif" font-size="10.00" fill="#000000">sample_mode_timer_func</text>
</a>
</g>
</g>
<!-- Node7&#45;&gt;Node8 -->
<g id="edge7" class="edge">
<title>Node7&#45;&gt;Node8</title>
<path fill="none" stroke="#191970" d="M183.186,-10C198.259,-10 215.38,-10 231.715,-10"/>
<polygon fill="#191970" stroke="#191970" points="183.113,-6.5001 173.113,-10 183.113,-13.5001 183.113,-6.5001"/>
</g>
<!-- Node9 -->
<g id="node9" class="node">
<title>Node9</title>
<g id="a_node9"><a xlink:href="user__main_8h.html#a3671381db669a16e8f6a4bf3dfb9a441" target="_top" xlink:title="system_init_done">
<polygon fill="#ffffff" stroke="#000000" points="400,-0.5 400,-19.5 494,-19.5 494,-0.5 400,-0.5"/>
<text text-anchor="middle" x="447" y="-7.5" font-family="Helvetica,sans-Serif" font-size="10.00" fill="#000000">system_init_done</text>
</a>
</g>
</g>
<!-- Node8&#45;&gt;Node9 -->
<g id="edge8" class="edge">
<title>Node8&#45;&gt;Node9</title>
<path fill="none" stroke="#191970" d="M374.361,-10C383.009,-10 391.624,-10 399.739,-10"/>
<polygon fill="#191970" stroke="#191970" points="374.221,-6.5001 364.221,-10 374.221,-13.5001 374.221,-6.5001"/>
</g>
<!-- Node9&#45;&gt;Node6 -->
<g id="edge9" class="edge">
<title>Node9&#45;&gt;Node6</title>
<path fill="none" stroke="#191970" d="M504.289,-19.8953C513.16,-21.4276 521.952,-22.9462 529.738,-24.2912"/>
<polygon fill="#191970" stroke="#191970" points="504.738,-16.4212 494.288,-18.168 503.547,-23.3191 504.738,-16.4212"/>
</g>
</g>
</svg>
