<?xml version="1.0" encoding="UTF-8" standalone="no"?>
<!DOCTYPE svg PUBLIC "-//W3C//DTD SVG 1.1//EN"
 "http://www.w3.org/Graphics/SVG/1.1/DTD/svg11.dtd">
<!-- Generated by graphviz version 2.41.20170323.1842 (20170323.1842)
 -->
<!-- Title: ac_thermo_open Pages: 1 -->
<svg width="623pt" height="104pt"
 viewBox="0.00 0.00 623.00 104.00" xmlns="http://www.w3.org/2000/svg" xmlns:xlink="http://www.w3.org/1999/xlink">
<g id="graph0" class="graph" transform="scale(1 1) rotate(0) translate(4 100)">
<title>ac_thermo_open</title>
<polygon fill="#ffffff" stroke="transparent" points="-4,4 -4,-100 619,-100 619,4 -4,4"/>
<!-- Node124 -->
<g id="node1" class="node">
<title>Node124</title>
<polygon fill="#bfbfbf" stroke="#000000" points="0,-38.5 0,-57.5 92,-57.5 92,-38.5 0,-38.5"/>
<text text-anchor="middle" x="46" y="-45.5" font-family="Helvetica,sans-Serif" font-size="10.00" fill="#000000">ac_thermo_open</text>
</g>
<!-- Node125 -->
<g id="node2" class="node">
<title>Node125</title>
<g id="a_node2"><a xlink:href="cron_8c.html#a2782af03df9b913cfa565a0770e1afe1" target="_top" xlink:title="minute_timer_func">
<polygon fill="#ffffff" stroke="#000000" points="128,-76.5 128,-95.5 227,-95.5 227,-76.5 128,-76.5"/>
<text text-anchor="middle" x="177.5" y="-83.5" font-family="Helvetica,sans-Serif" font-size="10.00" fill="#000000">minute_timer_func</text>
</a>
</g>
</g>
<!-- Node124&#45;&gt;Node125 -->
<g id="edge1" class="edge">
<title>Node124&#45;&gt;Node125</title>
<path fill="none" stroke="#191970" d="M88.8778,-60.3906C106.8862,-65.5945 127.5096,-71.5541 144.3276,-76.4141"/>
<polygon fill="#191970" stroke="#191970" points="89.7616,-57.0028 79.183,-57.589 87.8183,-63.7276 89.7616,-57.0028"/>
</g>
<!-- Node127 -->
<g id="node4" class="node">
<title>Node127</title>
<g id="a_node4"><a xlink:href="user__main_8h.html#a33113d6dedb440bd7dfa5576e325140c" target="_top" xlink:title="user_init">
<polygon fill="#ffffff" stroke="#000000" points="561,-38.5 561,-57.5 615,-57.5 615,-38.5 561,-38.5"/>
<text text-anchor="middle" x="588" y="-45.5" font-family="Helvetica,sans-Serif" font-size="10.00" fill="#000000">user_init</text>
</a>
</g>
</g>
<!-- Node124&#45;&gt;Node127 -->
<g id="edge8" class="edge">
<title>Node124&#45;&gt;Node127</title>
<path fill="none" stroke="#191970" d="M102.2399,-48C217.4472,-48 476.5246,-48 560.8873,-48"/>
<polygon fill="#191970" stroke="#191970" points="102.2107,-44.5001 92.2106,-48 102.2106,-51.5001 102.2107,-44.5001"/>
</g>
<!-- Node128 -->
<g id="node5" class="node">
<title>Node128</title>
<g id="a_node5"><a xlink:href="user__main_8h.html#a6e5f80dd3fa3d07976a27c859e1aaadf" target="_top" xlink:title="mqtt_data_cb">
<polygon fill="#ffffff" stroke="#000000" points="139,-.5 139,-19.5 216,-19.5 216,-.5 139,-.5"/>
<text text-anchor="middle" x="177.5" y="-7.5" font-family="Helvetica,sans-Serif" font-size="10.00" fill="#000000">mqtt_data_cb</text>
</a>
</g>
</g>
<!-- Node124&#45;&gt;Node128 -->
<g id="edge4" class="edge">
<title>Node124&#45;&gt;Node128</title>
<path fill="none" stroke="#191970" d="M88.8778,-35.6094C106.8862,-30.4055 127.5096,-24.4459 144.3276,-19.5859"/>
<polygon fill="#191970" stroke="#191970" points="87.8183,-32.2724 79.183,-38.411 89.7616,-38.9972 87.8183,-32.2724"/>
</g>
<!-- Node126 -->
<g id="node3" class="node">
<title>Node126</title>
<g id="a_node3"><a xlink:href="cron_8h.html#ae130c5973bad35b56776750c7a34db12" target="_top" xlink:title="cron_init">
<polygon fill="#ffffff" stroke="#000000" points="451,-76.5 451,-95.5 505,-95.5 505,-76.5 451,-76.5"/>
<text text-anchor="middle" x="478" y="-83.5" font-family="Helvetica,sans-Serif" font-size="10.00" fill="#000000">cron_init</text>
</a>
</g>
</g>
<!-- Node125&#45;&gt;Node126 -->
<g id="edge2" class="edge">
<title>Node125&#45;&gt;Node126</title>
<path fill="none" stroke="#191970" d="M237.2087,-86C302.065,-86 402.8143,-86 450.8026,-86"/>
<polygon fill="#191970" stroke="#191970" points="237.1215,-82.5001 227.1215,-86 237.1214,-89.5001 237.1215,-82.5001"/>
</g>
<!-- Node126&#45;&gt;Node127 -->
<g id="edge3" class="edge">
<title>Node126&#45;&gt;Node127</title>
<path fill="none" stroke="#191970" d="M514.7202,-73.3148C529.7557,-68.1208 546.8476,-62.2163 560.7406,-57.4169"/>
<polygon fill="#191970" stroke="#191970" points="513.5001,-70.0333 505.191,-76.6067 515.7858,-76.6496 513.5001,-70.0333"/>
</g>
<!-- Node129 -->
<g id="node6" class="node">
<title>Node129</title>
<g id="a_node6"><a xlink:href="user__main_8c.html#a245ec00253f410a8804988bf40e1037e" target="_top" xlink:title="sample_mode_timer_func">
<polygon fill="#ffffff" stroke="#000000" points="263,-.5 263,-19.5 395,-19.5 395,-.5 263,-.5"/>
<text text-anchor="middle" x="329" y="-7.5" font-family="Helvetica,sans-Serif" font-size="10.00" fill="#000000">sample_mode_timer_func</text>
</a>
</g>
</g>
<!-- Node128&#45;&gt;Node129 -->
<g id="edge5" class="edge">
<title>Node128&#45;&gt;Node129</title>
<path fill="none" stroke="#191970" d="M226.4518,-10C238.0341,-10 250.576,-10 262.7823,-10"/>
<polygon fill="#191970" stroke="#191970" points="226.1219,-6.5001 216.1218,-10 226.1218,-13.5001 226.1219,-6.5001"/>
</g>
<!-- Node130 -->
<g id="node7" class="node">
<title>Node130</title>
<g id="a_node7"><a xlink:href="user__main_8h.html#a3671381db669a16e8f6a4bf3dfb9a441" target="_top" xlink:title="system_init_done">
<polygon fill="#ffffff" stroke="#000000" points="431,-.5 431,-19.5 525,-19.5 525,-.5 431,-.5"/>
<text text-anchor="middle" x="478" y="-7.5" font-family="Helvetica,sans-Serif" font-size="10.00" fill="#000000">system_init_done</text>
</a>
</g>
</g>
<!-- Node129&#45;&gt;Node130 -->
<g id="edge6" class="edge">
<title>Node129&#45;&gt;Node130</title>
<path fill="none" stroke="#191970" d="M405.361,-10C414.0092,-10 422.624,-10 430.7387,-10"/>
<polygon fill="#191970" stroke="#191970" points="405.2213,-6.5001 395.2213,-10 405.2212,-13.5001 405.2213,-6.5001"/>
</g>
<!-- Node130&#45;&gt;Node127 -->
<g id="edge7" class="edge">
<title>Node130&#45;&gt;Node127</title>
<path fill="none" stroke="#191970" d="M515.6274,-22.9985C530.4008,-28.1021 547.0379,-33.8495 560.6323,-38.5457"/>
<polygon fill="#191970" stroke="#191970" points="516.3524,-19.5461 505.7576,-19.589 514.0667,-26.1624 516.3524,-19.5461"/>
</g>
</g>
</svg>
