<?xml version="1.0" encoding="UTF-8" standalone="no"?>
<!DOCTYPE svg PUBLIC "-//W3C//DTD SVG 1.1//EN"
 "http://www.w3.org/Graphics/SVG/1.1/DTD/svg11.dtd">
<!-- Generated by graphviz version 2.39.20160927.1334 (20160927.1334)
 -->
<!-- Title: ac_motor_valve_open Pages: 1 -->
<svg width="600pt" height="180pt"
 viewBox="0.00 0.00 600.00 180.00" xmlns="http://www.w3.org/2000/svg" xmlns:xlink="http://www.w3.org/1999/xlink">
<g id="graph0" class="graph" transform="scale(1 1) rotate(0) translate(4 176)">
<title>ac_motor_valve_open</title>
<polygon fill="#ffffff" stroke="transparent" points="-4,4 -4,-176 596,-176 596,4 -4,4"/>
<!-- Node1 -->
<g id="node1" class="node">
<title>Node1</title>
<polygon fill="#bfbfbf" stroke="#000000" points="0,-95.5 0,-114.5 115,-114.5 115,-95.5 0,-95.5"/>
<text text-anchor="middle" x="57.5" y="-102.5" font-family="Helvetica,sans-Serif" font-size="10.00" fill="#000000">ac_motor_valve_open</text>
</g>
<!-- Node2 -->
<g id="node2" class="node">
<title>Node2</title>
<g id="a_node2"><a xlink:href="ac__out_8c.html#aaa0444bb417d9a634d5304b267f4fcda" target="_top" xlink:title="ac_off">
<polygon fill="#ffffff" stroke="#000000" points="168,-152.5 168,-171.5 212,-171.5 212,-152.5 168,-152.5"/>
<text text-anchor="middle" x="190" y="-159.5" font-family="Helvetica,sans-Serif" font-size="10.00" fill="#000000">ac_off</text>
</a>
</g>
</g>
<!-- Node1&#45;&gt;Node2 -->
<g id="edge1" class="edge">
<title>Node1&#45;&gt;Node2</title>
<path fill="none" stroke="#191970" d="M79.6775,-114.541C101.174,-123.788 134.002,-137.91 158.262,-148.347"/>
<polygon fill="#191970" stroke="#191970" points="157.181,-151.692 167.75,-152.428 159.947,-145.261 157.181,-151.692"/>
</g>
<!-- Node3 -->
<g id="node3" class="node">
<title>Node3</title>
<g id="a_node3"><a xlink:href="ac__out_8c.html#a07e9d906599f62767ef1efb99d8fce11" target="_top" xlink:title="ac_out_off_timer_func">
<polygon fill="#ffffff" stroke="#000000" points="266,-114.5 266,-133.5 381,-133.5 381,-114.5 266,-114.5"/>
<text text-anchor="middle" x="323.5" y="-121.5" font-family="Helvetica,sans-Serif" font-size="10.00" fill="#000000">ac_out_off_timer_func</text>
</a>
</g>
</g>
<!-- Node1&#45;&gt;Node3 -->
<g id="edge7" class="edge">
<title>Node1&#45;&gt;Node3</title>
<path fill="none" stroke="#191970" d="M115.218,-109.123C156.524,-112.073 212.274,-116.055 255.701,-119.157"/>
<polygon fill="#191970" stroke="#191970" points="255.671,-122.664 265.895,-119.885 256.169,-115.682 255.671,-122.664"/>
</g>
<!-- Node6 -->
<g id="node6" class="node">
<title>Node6</title>
<g id="a_node6"><a xlink:href="espmissingincludes_8h.html#a0bbba7104c948de849f8051d9ac956e3" target="_top" xlink:title="os_printf">
<polygon fill="#ffffff" stroke="#000000" points="436,-76.5 436,-95.5 491,-95.5 491,-76.5 436,-76.5"/>
<text text-anchor="middle" x="463.5" y="-83.5" font-family="Helvetica,sans-Serif" font-size="10.00" fill="#000000">os_printf</text>
</a>
</g>
</g>
<!-- Node1&#45;&gt;Node6 -->
<g id="edge12" class="edge">
<title>Node1&#45;&gt;Node6</title>
<path fill="none" stroke="#191970" d="M115.239,-102.298C199.574,-98.3512 354.151,-91.1173 425.53,-87.7769"/>
<polygon fill="#191970" stroke="#191970" points="426.019,-91.258 435.844,-87.2942 425.691,-84.2656 426.019,-91.258"/>
</g>
<!-- Node7 -->
<g id="node7" class="node">
<title>Node7</title>
<g id="a_node7"><a xlink:href="led_8c.html#aa00afefe8ba48ccd7df635fbc7d4c9fc" target="_top" xlink:title="led_pattern_a">
<polygon fill="#ffffff" stroke="#000000" points="151,-38.5 151,-57.5 229,-57.5 229,-38.5 151,-38.5"/>
<text text-anchor="middle" x="190" y="-45.5" font-family="Helvetica,sans-Serif" font-size="10.00" fill="#000000">led_pattern_a</text>
</a>
</g>
</g>
<!-- Node1&#45;&gt;Node7 -->
<g id="edge8" class="edge">
<title>Node1&#45;&gt;Node7</title>
<path fill="none" stroke="#191970" d="M79.6775,-95.4595C101.174,-86.2117 134.002,-72.0898 158.262,-61.6532"/>
<polygon fill="#191970" stroke="#191970" points="159.947,-64.7386 167.75,-57.5716 157.181,-58.3083 159.947,-64.7386"/>
</g>
<!-- Node2&#45;&gt;Node3 -->
<g id="edge2" class="edge">
<title>Node2&#45;&gt;Node3</title>
<path fill="none" stroke="#191970" d="M212.045,-155.725C230.495,-150.473 257.379,-142.821 280.121,-136.348"/>
<polygon fill="#191970" stroke="#191970" points="281.244,-139.667 289.904,-133.563 279.328,-132.934 281.244,-139.667"/>
</g>
<!-- Node4 -->
<g id="node4" class="node">
<title>Node4</title>
<g id="a_node4"><a xlink:href="led_8c.html#a7ef0b27e501c77cd25b8bb7a2de6d8bd" target="_top" xlink:title="led_off">
<polygon fill="#ffffff" stroke="#000000" points="545,-114.5 545,-133.5 592,-133.5 592,-114.5 545,-114.5"/>
<text text-anchor="middle" x="568.5" y="-121.5" font-family="Helvetica,sans-Serif" font-size="10.00" fill="#000000">led_off</text>
</a>
</g>
</g>
<!-- Node3&#45;&gt;Node4 -->
<g id="edge3" class="edge">
<title>Node3&#45;&gt;Node4</title>
<path fill="none" stroke="#191970" d="M361.308,-133.529C398.9,-141.675 458.14,-150.923 509,-143 517.702,-141.644 526.872,-139.236 535.336,-136.58"/>
<polygon fill="#191970" stroke="#191970" points="536.5,-139.882 544.878,-133.397 534.284,-133.242 536.5,-139.882"/>
</g>
<!-- Node5 -->
<g id="node5" class="node">
<title>Node5</title>
<g id="a_node5"><a xlink:href="led_8c.html#a7cd1d03b4baad9cb20bf1a43046f61a2" target="_top" xlink:title="led_stop_pattern">
<polygon fill="#ffffff" stroke="#000000" points="418,-114.5 418,-133.5 509,-133.5 509,-114.5 418,-114.5"/>
<text text-anchor="middle" x="463.5" y="-121.5" font-family="Helvetica,sans-Serif" font-size="10.00" fill="#000000">led_stop_pattern</text>
</a>
</g>
</g>
<!-- Node3&#45;&gt;Node5 -->
<g id="edge4" class="edge">
<title>Node3&#45;&gt;Node5</title>
<path fill="none" stroke="#191970" d="M381.252,-124C390.022,-124 399.057,-124 407.783,-124"/>
<polygon fill="#191970" stroke="#191970" points="407.849,-127.5 417.849,-124 407.849,-120.5 407.849,-127.5"/>
</g>
<!-- Node3&#45;&gt;Node6 -->
<g id="edge6" class="edge">
<title>Node3&#45;&gt;Node6</title>
<path fill="none" stroke="#191970" d="M358.828,-114.411C379.294,-108.856 405.05,-101.865 425.892,-96.2079"/>
<polygon fill="#191970" stroke="#191970" points="426.95,-99.5475 435.684,-93.5502 425.116,-92.792 426.95,-99.5475"/>
</g>
<!-- Node5&#45;&gt;Node4 -->
<g id="edge5" class="edge">
<title>Node5&#45;&gt;Node4</title>
<path fill="none" stroke="#191970" d="M509.249,-124C517.78,-124 526.552,-124 534.645,-124"/>
<polygon fill="#191970" stroke="#191970" points="534.815,-127.5 544.815,-124 534.815,-120.5 534.815,-127.5"/>
</g>
<!-- Node8 -->
<g id="node8" class="node">
<title>Node8</title>
<g id="a_node8"><a xlink:href="led_8c.html#af6a79b211d188e643a4f1cf7552ac7ee" target="_top" xlink:title="led_blinker_timer_func">
<polygon fill="#ffffff" stroke="#000000" points="265,-38.5 265,-57.5 382,-57.5 382,-38.5 265,-38.5"/>
<text text-anchor="middle" x="323.5" y="-45.5" font-family="Helvetica,sans-Serif" font-size="10.00" fill="#000000">led_blinker_timer_func</text>
</a>
</g>
</g>
<!-- Node7&#45;&gt;Node8 -->
<g id="edge9" class="edge">
<title>Node7&#45;&gt;Node8</title>
<path fill="none" stroke="#191970" d="M229.332,-48C237.293,-48 245.883,-48 254.523,-48"/>
<polygon fill="#191970" stroke="#191970" points="254.654,-51.5001 264.654,-48 254.653,-44.5001 254.654,-51.5001"/>
</g>
<!-- Node8&#45;&gt;Node4 -->
<g id="edge11" class="edge">
<title>Node8&#45;&gt;Node4</title>
<path fill="none" stroke="#191970" d="M382.062,-44.431C419.913,-44.3809 469.329,-48.6617 509,-67 527.96,-75.7644 544.648,-93.0745 555.488,-106.33"/>
<polygon fill="#191970" stroke="#191970" points="552.818,-108.598 561.732,-114.325 558.335,-104.29 552.818,-108.598"/>
</g>
<!-- Node9 -->
<g id="node9" class="node">
<title>Node9</title>
<g id="a_node9"><a xlink:href="led_8c.html#a0a23edee5e1db0cd2928c18a42ffe96f" target="_top" xlink:title="led_on">
<polygon fill="#ffffff" stroke="#000000" points="440,-0.5 440,-19.5 487,-19.5 487,-0.5 440,-0.5"/>
<text text-anchor="middle" x="463.5" y="-7.5" font-family="Helvetica,sans-Serif" font-size="10.00" fill="#000000">led_on</text>
</a>
</g>
</g>
<!-- Node8&#45;&gt;Node9 -->
<g id="edge10" class="edge">
<title>Node8&#45;&gt;Node9</title>
<path fill="none" stroke="#191970" d="M358.828,-38.411C380.646,-32.489 408.476,-24.9352 429.954,-19.1053"/>
<polygon fill="#191970" stroke="#191970" points="430.898,-22.4758 439.632,-16.4785 429.064,-15.7203 430.898,-22.4758"/>
</g>
</g>
</svg>
