<?xml version="1.0" encoding="UTF-8" standalone="no"?>
<!DOCTYPE svg PUBLIC "-//W3C//DTD SVG 1.1//EN"
 "http://www.w3.org/Graphics/SVG/1.1/DTD/svg11.dtd">
<!-- Generated by graphviz version 2.41.20170323.1842 (20170323.1842)
 -->
<!-- Title: ac_off Pages: 1 -->
<svg width="537pt" height="85pt"
 viewBox="0.00 0.00 537.00 85.00" xmlns="http://www.w3.org/2000/svg" xmlns:xlink="http://www.w3.org/1999/xlink">
<g id="graph0" class="graph" transform="scale(1 1) rotate(0) translate(4 81)">
<title>ac_off</title>
<polygon fill="#ffffff" stroke="transparent" points="-4,4 -4,-81 533,-81 533,4 -4,4"/>
<!-- Node20 -->
<g id="node1" class="node">
<title>Node20</title>
<polygon fill="#bfbfbf" stroke="#000000" points="0,-38.5 0,-57.5 44,-57.5 44,-38.5 0,-38.5"/>
<text text-anchor="middle" x="22" y="-45.5" font-family="Helvetica,sans-Serif" font-size="10.00" fill="#000000">ac_off</text>
</g>
<!-- Node21 -->
<g id="node2" class="node">
<title>Node21</title>
<g id="a_node2"><a xlink:href="ac__out_8c.html#a07e9d906599f62767ef1efb99d8fce11" target="_top" xlink:title="ac_out_off_timer_func">
<polygon fill="#ffffff" stroke="#000000" points="80,-38.5 80,-57.5 195,-57.5 195,-38.5 80,-38.5"/>
<text text-anchor="middle" x="137.5" y="-45.5" font-family="Helvetica,sans-Serif" font-size="10.00" fill="#000000">ac_out_off_timer_func</text>
</a>
</g>
</g>
<!-- Node20&#45;&gt;Node21 -->
<g id="edge1" class="edge">
<title>Node20&#45;&gt;Node21</title>
<path fill="none" stroke="#191970" d="M44.2696,-48C51.7794,-48 60.5963,-48 69.7592,-48"/>
<polygon fill="#191970" stroke="#191970" points="69.7923,-51.5001 79.7923,-48 69.7923,-44.5001 69.7923,-51.5001"/>
</g>
<!-- Node22 -->
<g id="node3" class="node">
<title>Node22</title>
<g id="a_node3"><a xlink:href="gpio_8h.html#a83bac74ff5b2158e0c86da73ada29718" target="_top" xlink:title="gpio_output_set">
<polygon fill="#ffffff" stroke="#000000" points="441,-57.5 441,-76.5 529,-76.5 529,-57.5 441,-57.5"/>
<text text-anchor="middle" x="485" y="-64.5" font-family="Helvetica,sans-Serif" font-size="10.00" fill="#000000">gpio_output_set</text>
</a>
</g>
</g>
<!-- Node21&#45;&gt;Node22 -->
<g id="edge2" class="edge">
<title>Node21&#45;&gt;Node22</title>
<path fill="none" stroke="#191970" d="M194.2401,-57.5102C206.3423,-59.2539 219.071,-60.8755 231,-62 299.6051,-68.4672 379.0769,-68.9029 430.5986,-68.2603"/>
<polygon fill="#191970" stroke="#191970" points="430.8876,-71.7566 440.8365,-68.1137 430.7874,-64.7573 430.8876,-71.7566"/>
</g>
<!-- Node23 -->
<g id="node4" class="node">
<title>Node23</title>
<g id="a_node4"><a xlink:href="led_8c.html#a7ef0b27e501c77cd25b8bb7a2de6d8bd" target="_top" xlink:title="led_off">
<polygon fill="#ffffff" stroke="#000000" points="358,-38.5 358,-57.5 405,-57.5 405,-38.5 358,-38.5"/>
<text text-anchor="middle" x="381.5" y="-45.5" font-family="Helvetica,sans-Serif" font-size="10.00" fill="#000000">led_off</text>
</a>
</g>
</g>
<!-- Node21&#45;&gt;Node23 -->
<g id="edge3" class="edge">
<title>Node21&#45;&gt;Node23</title>
<path fill="none" stroke="#191970" d="M195.0156,-48C242.5097,-48 308.3007,-48 347.7084,-48"/>
<polygon fill="#191970" stroke="#191970" points="347.8479,-51.5001 357.8478,-48 347.8478,-44.5001 347.8479,-51.5001"/>
</g>
<!-- Node24 -->
<g id="node5" class="node">
<title>Node24</title>
<g id="a_node5"><a xlink:href="led_8c.html#a7cd1d03b4baad9cb20bf1a43046f61a2" target="_top" xlink:title="led_stop_pattern">
<polygon fill="#ffffff" stroke="#000000" points="231,-.5 231,-19.5 322,-19.5 322,-.5 231,-.5"/>
<text text-anchor="middle" x="276.5" y="-7.5" font-family="Helvetica,sans-Serif" font-size="10.00" fill="#000000">led_stop_pattern</text>
</a>
</g>
</g>
<!-- Node21&#45;&gt;Node24 -->
<g id="edge5" class="edge">
<title>Node21&#45;&gt;Node24</title>
<path fill="none" stroke="#191970" d="M172.5756,-38.411C190.5191,-33.5056 212.5584,-27.4804 231.7167,-22.2429"/>
<polygon fill="#191970" stroke="#191970" points="232.7126,-25.5992 241.4357,-19.5859 230.8666,-18.8469 232.7126,-25.5992"/>
</g>
<!-- Node23&#45;&gt;Node22 -->
<g id="edge4" class="edge">
<title>Node23&#45;&gt;Node22</title>
<path fill="none" stroke="#191970" d="M405.245,-52.359C412.8767,-53.76 421.6713,-55.3744 430.5717,-57.0083"/>
<polygon fill="#191970" stroke="#191970" points="430.1417,-60.4878 440.6093,-58.851 431.4057,-53.6029 430.1417,-60.4878"/>
</g>
<!-- Node24&#45;&gt;Node23 -->
<g id="edge6" class="edge">
<title>Node24&#45;&gt;Node23</title>
<path fill="none" stroke="#191970" d="M302.9959,-19.589C316.7185,-24.5552 333.612,-30.6691 348.208,-35.9515"/>
<polygon fill="#191970" stroke="#191970" points="347.2845,-39.3393 357.8787,-39.4513 349.6666,-32.7571 347.2845,-39.3393"/>
</g>
</g>
</svg>
