<?xml version="1.0" encoding="UTF-8" standalone="no"?>
<!DOCTYPE svg PUBLIC "-//W3C//DTD SVG 1.1//EN"
 "http://www.w3.org/Graphics/SVG/1.1/DTD/svg11.dtd">
<!-- Generated by graphviz version 2.40.1 (20161225.0304)
 -->
<!-- Title: ac_motor_valve_close Pages: 1 -->
<svg width="749pt" height="218pt"
 viewBox="0.00 0.00 749.00 218.00" xmlns="http://www.w3.org/2000/svg" xmlns:xlink="http://www.w3.org/1999/xlink">
<g id="graph0" class="graph" transform="scale(1 1) rotate(0) translate(4 214)">
<title>ac_motor_valve_close</title>
<polygon fill="#ffffff" stroke="transparent" points="-4,4 -4,-214 745,-214 745,4 -4,4"/>
<!-- Node0 -->
<g id="node1" class="node">
<title>Node0</title>
<polygon fill="#bfbfbf" stroke="#000000" points="0,-76.5 0,-95.5 116,-95.5 116,-76.5 0,-76.5"/>
<text text-anchor="middle" x="58" y="-83.5" font-family="Helvetica,sans-Serif" font-size="10.00" fill="#000000">ac_motor_valve_close</text>
</g>
<!-- Node1 -->
<g id="node2" class="node">
<title>Node1</title>
<g id="a_node2"><a xlink:href="ac__out_8c.html#aaa0444bb417d9a634d5304b267f4fcda" target="_top" xlink:title="ac_off">
<polygon fill="#ffffff" stroke="#000000" points="169,-114.5 169,-133.5 213,-133.5 213,-114.5 169,-114.5"/>
<text text-anchor="middle" x="191" y="-121.5" font-family="Helvetica,sans-Serif" font-size="10.00" fill="#000000">ac_off</text>
</a>
</g>
</g>
<!-- Node0&#45;&gt;Node1 -->
<g id="edge1" class="edge">
<title>Node0&#45;&gt;Node1</title>
<path fill="none" stroke="#191970" d="M91.5615,-95.589C112.2325,-101.495 138.5842,-109.0241 158.9662,-114.8475"/>
<polygon fill="#191970" stroke="#191970" points="158.1526,-118.255 168.7294,-117.637 160.0757,-111.5244 158.1526,-118.255"/>
</g>
<!-- Node2 -->
<g id="node3" class="node">
<title>Node2</title>
<g id="a_node3"><a xlink:href="ac__out_8c.html#a07e9d906599f62767ef1efb99d8fce11" target="_top" xlink:title="ac_out_off_timer_func">
<polygon fill="#ffffff" stroke="#000000" points="266,-114.5 266,-133.5 381,-133.5 381,-114.5 266,-114.5"/>
<text text-anchor="middle" x="323.5" y="-121.5" font-family="Helvetica,sans-Serif" font-size="10.00" fill="#000000">ac_out_off_timer_func</text>
</a>
</g>
</g>
<!-- Node0&#45;&gt;Node2 -->
<g id="edge9" class="edge">
<title>Node0&#45;&gt;Node2</title>
<path fill="none" stroke="#191970" d="M116.2928,-91.1172C149.6793,-94.3782 192.3046,-99.1004 230,-105 243.3018,-107.0818 257.5825,-109.7571 270.8796,-112.439"/>
<polygon fill="#191970" stroke="#191970" points="270.3239,-115.8979 280.8237,-114.4815 271.7324,-109.041 270.3239,-115.8979"/>
</g>
<!-- Node3 -->
<g id="node4" class="node">
<title>Node3</title>
<g id="a_node4"><a xlink:href="espmissingincludes_8h.html#a0bbba7104c948de849f8051d9ac956e3" target="_top" xlink:title="os_printf">
<polygon fill="#ffffff" stroke="#000000" points="448,-190.5 448,-209.5 503,-209.5 503,-190.5 448,-190.5"/>
<text text-anchor="middle" x="475.5" y="-197.5" font-family="Helvetica,sans-Serif" font-size="10.00" fill="#000000">os_printf</text>
</a>
</g>
</g>
<!-- Node0&#45;&gt;Node3 -->
<g id="edge16" class="edge">
<title>Node0&#45;&gt;Node3</title>
<path fill="none" stroke="#191970" d="M70.2969,-95.5366C87.5494,-108.4117 120.3814,-131.1076 152,-143 250.8987,-180.1979 376.0967,-193.4093 437.7203,-197.8698"/>
<polygon fill="#191970" stroke="#191970" points="437.5433,-201.3658 447.7596,-198.5591 438.0228,-194.3823 437.5433,-201.3658"/>
</g>
<!-- Node4 -->
<g id="node5" class="node">
<title>Node4</title>
<g id="a_node5"><a xlink:href="gpio_8h.html#a83bac74ff5b2158e0c86da73ada29718" target="_top" xlink:title="gpio_output_set">
<polygon fill="#ffffff" stroke="#000000" points="653,-57.5 653,-76.5 741,-76.5 741,-57.5 653,-57.5"/>
<text text-anchor="middle" x="697" y="-64.5" font-family="Helvetica,sans-Serif" font-size="10.00" fill="#000000">gpio_output_set</text>
</a>
</g>
</g>
<!-- Node0&#45;&gt;Node4 -->
<g id="edge10" class="edge">
<title>Node0&#45;&gt;Node4</title>
<path fill="none" stroke="#191970" d="M99.1282,-76.411C151.0905,-65.1538 243.4108,-48 323.5,-48 323.5,-48 323.5,-48 475.5,-48 532.7911,-48 598.1135,-54.3879 642.8918,-59.7559"/>
<polygon fill="#191970" stroke="#191970" points="642.6174,-63.2484 652.9684,-60.9883 643.4672,-56.3001 642.6174,-63.2484"/>
</g>
<!-- Node7 -->
<g id="node8" class="node">
<title>Node7</title>
<g id="a_node8"><a xlink:href="led_8c.html#a6a83b60a5039ca4c8727fc1902630210" target="_top" xlink:title="led_pattern_b">
<polygon fill="#ffffff" stroke="#000000" points="152,-.5 152,-19.5 230,-19.5 230,-.5 152,-.5"/>
<text text-anchor="middle" x="191" y="-7.5" font-family="Helvetica,sans-Serif" font-size="10.00" fill="#000000">led_pattern_b</text>
</a>
</g>
</g>
<!-- Node0&#45;&gt;Node7 -->
<g id="edge11" class="edge">
<title>Node0&#45;&gt;Node7</title>
<path fill="none" stroke="#191970" d="M74.8445,-76.3745C97.7295,-63.2975 138.8424,-39.8043 165.514,-24.5634"/>
<polygon fill="#191970" stroke="#191970" points="167.3463,-27.5476 174.2922,-19.5473 163.8733,-21.4699 167.3463,-27.5476"/>
</g>
<!-- Node1&#45;&gt;Node2 -->
<g id="edge2" class="edge">
<title>Node1&#45;&gt;Node2</title>
<path fill="none" stroke="#191970" d="M213.1775,-124C225.0224,-124 240.3073,-124 255.7035,-124"/>
<polygon fill="#191970" stroke="#191970" points="255.8022,-127.5001 265.8021,-124 255.8021,-120.5001 255.8022,-127.5001"/>
</g>
<!-- Node2&#45;&gt;Node3 -->
<g id="edge3" class="edge">
<title>Node2&#45;&gt;Node3</title>
<path fill="none" stroke="#191970" d="M339.4097,-133.6086C357.7755,-144.5204 389.0481,-162.5516 417,-176 424.6658,-179.6882 433.051,-183.3427 441.0176,-186.6458"/>
<polygon fill="#191970" stroke="#191970" points="439.8692,-189.957 450.4511,-190.4794 442.5046,-183.4721 439.8692,-189.957"/>
</g>
<!-- Node2&#45;&gt;Node4 -->
<g id="edge4" class="edge">
<title>Node2&#45;&gt;Node4</title>
<path fill="none" stroke="#191970" d="M381.3538,-125.4307C393.1477,-125.668 405.4728,-125.8767 417,-126 468.997,-126.5561 482.3987,-132.4266 534,-126 571.7596,-121.2973 581.199,-117.8914 617,-105 635.3299,-98.3997 655.1124,-89.0244 670.4195,-81.2377"/>
<polygon fill="#191970" stroke="#191970" points="672.0454,-84.3373 679.319,-76.6337 668.8289,-78.12 672.0454,-84.3373"/>
</g>
<!-- Node5 -->
<g id="node6" class="node">
<title>Node5</title>
<g id="a_node6"><a xlink:href="led_8c.html#a7cd1d03b4baad9cb20bf1a43046f61a2" target="_top" xlink:title="led_stop_pattern">
<polygon fill="#ffffff" stroke="#000000" points="430,-76.5 430,-95.5 521,-95.5 521,-76.5 430,-76.5"/>
<text text-anchor="middle" x="475.5" y="-83.5" font-family="Helvetica,sans-Serif" font-size="10.00" fill="#000000">led_stop_pattern</text>
</a>
</g>
</g>
<!-- Node2&#45;&gt;Node5 -->
<g id="edge5" class="edge">
<title>Node2&#45;&gt;Node5</title>
<path fill="none" stroke="#191970" d="M361.856,-114.411C381.8237,-109.4191 406.4295,-103.2676 427.6334,-97.9666"/>
<polygon fill="#191970" stroke="#191970" points="428.5673,-101.341 437.4198,-95.5201 426.8695,-94.55 428.5673,-101.341"/>
</g>
<!-- Node6 -->
<g id="node7" class="node">
<title>Node6</title>
<g id="a_node7"><a xlink:href="led_8c.html#a7ef0b27e501c77cd25b8bb7a2de6d8bd" target="_top" xlink:title="led_off">
<polygon fill="#ffffff" stroke="#000000" points="570,-76.5 570,-95.5 617,-95.5 617,-76.5 570,-76.5"/>
<text text-anchor="middle" x="593.5" y="-83.5" font-family="Helvetica,sans-Serif" font-size="10.00" fill="#000000">led_off</text>
</a>
</g>
</g>
<!-- Node2&#45;&gt;Node6 -->
<g id="edge8" class="edge">
<title>Node2&#45;&gt;Node6</title>
<path fill="none" stroke="#191970" d="M381.1686,-122.1972C423.7486,-120.0451 482.929,-115.329 534,-105 542.6324,-103.2541 551.7763,-100.7036 560.2382,-98.0348"/>
<polygon fill="#191970" stroke="#191970" points="561.3846,-101.3422 569.787,-94.8885 559.194,-94.6938 561.3846,-101.3422"/>
</g>
<!-- Node5&#45;&gt;Node6 -->
<g id="edge6" class="edge">
<title>Node5&#45;&gt;Node6</title>
<path fill="none" stroke="#191970" d="M521.1219,-86C533.9629,-86 547.6965,-86 559.7119,-86"/>
<polygon fill="#191970" stroke="#191970" points="559.7629,-89.5001 569.7629,-86 559.7628,-82.5001 559.7629,-89.5001"/>
</g>
<!-- Node6&#45;&gt;Node4 -->
<g id="edge7" class="edge">
<title>Node6&#45;&gt;Node4</title>
<path fill="none" stroke="#191970" d="M617.245,-81.641C624.8767,-80.24 633.6713,-78.6256 642.5717,-76.9917"/>
<polygon fill="#191970" stroke="#191970" points="643.4057,-80.3971 652.6093,-75.149 642.1417,-73.5122 643.4057,-80.3971"/>
</g>
<!-- Node8 -->
<g id="node9" class="node">
<title>Node8</title>
<g id="a_node9"><a xlink:href="led_8c.html#af6a79b211d188e643a4f1cf7552ac7ee" target="_top" xlink:title="led_blinker_timer_func">
<polygon fill="#ffffff" stroke="#000000" points="417,-.5 417,-19.5 534,-19.5 534,-.5 417,-.5"/>
<text text-anchor="middle" x="475.5" y="-7.5" font-family="Helvetica,sans-Serif" font-size="10.00" fill="#000000">led_blinker_timer_func</text>
</a>
</g>
</g>
<!-- Node7&#45;&gt;Node8 -->
<g id="edge12" class="edge">
<title>Node7&#45;&gt;Node8</title>
<path fill="none" stroke="#191970" d="M230.2598,-10C275.7498,-10 351.5262,-10 406.829,-10"/>
<polygon fill="#191970" stroke="#191970" points="406.9052,-13.5001 416.9051,-10 406.9051,-6.5001 406.9052,-13.5001"/>
</g>
<!-- Node8&#45;&gt;Node6 -->
<g id="edge15" class="edge">
<title>Node8&#45;&gt;Node6</title>
<path fill="none" stroke="#191970" d="M490.4448,-19.6255C510.5714,-32.5883 546.5889,-55.7861 570.2654,-71.0354"/>
<polygon fill="#191970" stroke="#191970" points="568.3742,-73.9804 578.6766,-76.4527 572.1646,-68.0954 568.3742,-73.9804"/>
</g>
<!-- Node9 -->
<g id="node10" class="node">
<title>Node9</title>
<g id="a_node10"><a xlink:href="led_8c.html#a0a23edee5e1db0cd2928c18a42ffe96f" target="_top" xlink:title="led_on">
<polygon fill="#ffffff" stroke="#000000" points="570,-.5 570,-19.5 617,-19.5 617,-.5 570,-.5"/>
<text text-anchor="middle" x="593.5" y="-7.5" font-family="Helvetica,sans-Serif" font-size="10.00" fill="#000000">led_on</text>
</a>
</g>
</g>
<!-- Node8&#45;&gt;Node9 -->
<g id="edge13" class="edge">
<title>Node8&#45;&gt;Node9</title>
<path fill="none" stroke="#191970" d="M534.1543,-10C542.9218,-10 551.6995,-10 559.7128,-10"/>
<polygon fill="#191970" stroke="#191970" points="559.7419,-13.5001 569.7418,-10 559.7418,-6.5001 559.7419,-13.5001"/>
</g>
<!-- Node9&#45;&gt;Node4 -->
<g id="edge14" class="edge">
<title>Node9&#45;&gt;Node4</title>
<path fill="none" stroke="#191970" d="M611.0574,-19.6693C627.4376,-28.6903 652.0906,-42.2673 670.7979,-52.5698"/>
<polygon fill="#191970" stroke="#191970" points="669.254,-55.7152 679.7019,-57.4735 672.6309,-49.5836 669.254,-55.7152"/>
</g>
</g>
</svg>
