<?xml version="1.0" encoding="UTF-8" standalone="no"?>
<!DOCTYPE svg PUBLIC "-//W3C//DTD SVG 1.1//EN"
 "http://www.w3.org/Graphics/SVG/1.1/DTD/svg11.dtd">
<!-- Generated by graphviz version 2.41.20170323.1842 (20170323.1842)
 -->
<!-- Title: ac_test Pages: 1 -->
<svg width="668pt" height="121pt"
 viewBox="0.00 0.00 668.00 121.13" xmlns="http://www.w3.org/2000/svg" xmlns:xlink="http://www.w3.org/1999/xlink">
<g id="graph0" class="graph" transform="scale(1 1) rotate(0) translate(4 117.1325)">
<title>ac_test</title>
<polygon fill="#ffffff" stroke="transparent" points="-4,4 -4,-117.1325 664,-117.1325 664,4 -4,4"/>
<!-- Node32 -->
<g id="node1" class="node">
<title>Node32</title>
<polygon fill="#bfbfbf" stroke="#000000" points="0,-28.5 0,-47.5 49,-47.5 49,-28.5 0,-28.5"/>
<text text-anchor="middle" x="24.5" y="-35.5" font-family="Helvetica,sans-Serif" font-size="10.00" fill="#000000">ac_test</text>
</g>
<!-- Node33 -->
<g id="node2" class="node">
<title>Node33</title>
<g id="a_node2"><a xlink:href="ac__out_8c.html#aa4f3e08453187a0500d0e5441274c7a1" target="_top" xlink:title="ac_test_timer_func">
<polygon fill="#ffffff" stroke="#000000" points="85,-66.5 85,-85.5 186,-85.5 186,-66.5 85,-66.5"/>
<text text-anchor="middle" x="135.5" y="-73.5" font-family="Helvetica,sans-Serif" font-size="10.00" fill="#000000">ac_test_timer_func</text>
</a>
</g>
</g>
<!-- Node32&#45;&gt;Node33 -->
<g id="edge1" class="edge">
<title>Node32&#45;&gt;Node33</title>
<path fill="none" stroke="#191970" d="M49.1345,-46.4334C63.4155,-51.3224 81.6942,-57.58 97.7555,-63.0785"/>
<polygon fill="#191970" stroke="#191970" points="96.8192,-66.4573 107.4138,-66.3849 99.0865,-59.8346 96.8192,-66.4573"/>
</g>
<!-- Node34 -->
<g id="node3" class="node">
<title>Node34</title>
<g id="a_node3"><a xlink:href="gpio_8h.html#a83bac74ff5b2158e0c86da73ada29718" target="_top" xlink:title="gpio_output_set">
<polygon fill="#ffffff" stroke="#000000" points="572,-47.5 572,-66.5 660,-66.5 660,-47.5 572,-47.5"/>
<text text-anchor="middle" x="616" y="-54.5" font-family="Helvetica,sans-Serif" font-size="10.00" fill="#000000">gpio_output_set</text>
</a>
</g>
</g>
<!-- Node32&#45;&gt;Node34 -->
<g id="edge11" class="edge">
<title>Node32&#45;&gt;Node34</title>
<path fill="none" stroke="#191970" d="M49.1466,-31.3809C91.9203,-20.4937 182.819,0 261,0 261,0 261,0 394.5,0 457.9533,0 475.1684,-.9489 536,-19 555.1653,-24.6871 575.4984,-34.3991 590.8696,-42.5808"/>
<polygon fill="#191970" stroke="#191970" points="589.2903,-45.7062 599.7444,-47.4277 592.6456,-39.5627 589.2903,-45.7062"/>
</g>
<!-- Node35 -->
<g id="node4" class="node">
<title>Node35</title>
<g id="a_node4"><a xlink:href="led_8c.html#aa00afefe8ba48ccd7df635fbc7d4c9fc" target="_top" xlink:title="led_pattern_a">
<polygon fill="#ffffff" stroke="#000000" points="222,-28.5 222,-47.5 300,-47.5 300,-28.5 222,-28.5"/>
<text text-anchor="middle" x="261" y="-35.5" font-family="Helvetica,sans-Serif" font-size="10.00" fill="#000000">led_pattern_a</text>
</a>
</g>
</g>
<!-- Node32&#45;&gt;Node35 -->
<g id="edge12" class="edge">
<title>Node32&#45;&gt;Node35</title>
<path fill="none" stroke="#191970" d="M49.3626,-38C87.6715,-38 161.8823,-38 211.445,-38"/>
<polygon fill="#191970" stroke="#191970" points="211.6253,-41.5001 221.6253,-38 211.6252,-34.5001 211.6253,-41.5001"/>
</g>
<!-- Node33&#45;&gt;Node34 -->
<g id="edge2" class="edge">
<title>Node33&#45;&gt;Node34</title>
<path fill="none" stroke="#191970" d="M170.5666,-85.5083C186.1835,-89.273 204.8801,-93.1419 222,-95 360.7408,-110.0579 399.8608,-125.6899 536,-95 555.9988,-90.4917 576.866,-80.372 592.2725,-71.7087"/>
<polygon fill="#191970" stroke="#191970" points="594.223,-74.6231 601.103,-66.566 590.7002,-68.5742 594.223,-74.6231"/>
</g>
<!-- Node33&#45;&gt;Node35 -->
<g id="edge3" class="edge">
<title>Node33&#45;&gt;Node35</title>
<path fill="none" stroke="#191970" d="M167.1689,-66.411C183.0725,-61.5956 202.5396,-55.7012 219.6114,-50.532"/>
<polygon fill="#191970" stroke="#191970" points="220.7846,-53.8338 229.3412,-47.5859 218.756,-47.1342 220.7846,-53.8338"/>
</g>
<!-- Node39 -->
<g id="node8" class="node">
<title>Node39</title>
<g id="a_node8"><a xlink:href="led_8c.html#a6a83b60a5039ca4c8727fc1902630210" target="_top" xlink:title="led_pattern_b">
<polygon fill="#ffffff" stroke="#000000" points="222,-66.5 222,-85.5 300,-85.5 300,-66.5 222,-66.5"/>
<text text-anchor="middle" x="261" y="-73.5" font-family="Helvetica,sans-Serif" font-size="10.00" fill="#000000">led_pattern_b</text>
</a>
</g>
</g>
<!-- Node33&#45;&gt;Node39 -->
<g id="edge9" class="edge">
<title>Node33&#45;&gt;Node39</title>
<path fill="none" stroke="#191970" d="M186.1839,-76C194.5993,-76 203.3156,-76 211.6961,-76"/>
<polygon fill="#191970" stroke="#191970" points="211.7093,-79.5001 221.7092,-76 211.7092,-72.5001 211.7093,-79.5001"/>
</g>
<!-- Node36 -->
<g id="node5" class="node">
<title>Node36</title>
<g id="a_node5"><a xlink:href="led_8c.html#af6a79b211d188e643a4f1cf7552ac7ee" target="_top" xlink:title="led_blinker_timer_func">
<polygon fill="#ffffff" stroke="#000000" points="336,-47.5 336,-66.5 453,-66.5 453,-47.5 336,-47.5"/>
<text text-anchor="middle" x="394.5" y="-54.5" font-family="Helvetica,sans-Serif" font-size="10.00" fill="#000000">led_blinker_timer_func</text>
</a>
</g>
</g>
<!-- Node35&#45;&gt;Node36 -->
<g id="edge4" class="edge">
<title>Node35&#45;&gt;Node36</title>
<path fill="none" stroke="#191970" d="M300.3323,-43.5979C308.2928,-44.7308 316.8829,-45.9534 325.5229,-47.183"/>
<polygon fill="#191970" stroke="#191970" points="325.2601,-50.6808 335.6535,-48.6248 326.2465,-43.7507 325.2601,-50.6808"/>
</g>
<!-- Node37 -->
<g id="node6" class="node">
<title>Node37</title>
<g id="a_node6"><a xlink:href="led_8c.html#a0a23edee5e1db0cd2928c18a42ffe96f" target="_top" xlink:title="led_on">
<polygon fill="#ffffff" stroke="#000000" points="489,-66.5 489,-85.5 536,-85.5 536,-66.5 489,-66.5"/>
<text text-anchor="middle" x="512.5" y="-73.5" font-family="Helvetica,sans-Serif" font-size="10.00" fill="#000000">led_on</text>
</a>
</g>
</g>
<!-- Node36&#45;&gt;Node37 -->
<g id="edge5" class="edge">
<title>Node36&#45;&gt;Node37</title>
<path fill="none" stroke="#191970" d="M453.1543,-66.4443C461.9218,-67.8561 470.6995,-69.2694 478.7128,-70.5597"/>
<polygon fill="#191970" stroke="#191970" points="478.3126,-74.0402 488.7418,-72.1745 479.4254,-67.1293 478.3126,-74.0402"/>
</g>
<!-- Node38 -->
<g id="node7" class="node">
<title>Node38</title>
<g id="a_node7"><a xlink:href="led_8c.html#a7ef0b27e501c77cd25b8bb7a2de6d8bd" target="_top" xlink:title="led_off">
<polygon fill="#ffffff" stroke="#000000" points="489,-28.5 489,-47.5 536,-47.5 536,-28.5 489,-28.5"/>
<text text-anchor="middle" x="512.5" y="-35.5" font-family="Helvetica,sans-Serif" font-size="10.00" fill="#000000">led_off</text>
</a>
</g>
</g>
<!-- Node36&#45;&gt;Node38 -->
<g id="edge7" class="edge">
<title>Node36&#45;&gt;Node38</title>
<path fill="none" stroke="#191970" d="M453.1543,-47.5557C461.9218,-46.1439 470.6995,-44.7306 478.7128,-43.4403"/>
<polygon fill="#191970" stroke="#191970" points="479.4254,-46.8707 488.7418,-41.8255 478.3126,-39.9598 479.4254,-46.8707"/>
</g>
<!-- Node37&#45;&gt;Node34 -->
<g id="edge6" class="edge">
<title>Node37&#45;&gt;Node34</title>
<path fill="none" stroke="#191970" d="M536.245,-71.641C543.8767,-70.24 552.6713,-68.6256 561.5717,-66.9917"/>
<polygon fill="#191970" stroke="#191970" points="562.4057,-70.3971 571.6093,-65.149 561.1417,-63.5122 562.4057,-70.3971"/>
</g>
<!-- Node38&#45;&gt;Node34 -->
<g id="edge8" class="edge">
<title>Node38&#45;&gt;Node34</title>
<path fill="none" stroke="#191970" d="M536.245,-42.359C543.8767,-43.76 552.6713,-45.3744 561.5717,-47.0083"/>
<polygon fill="#191970" stroke="#191970" points="561.1417,-50.4878 571.6093,-48.851 562.4057,-43.6029 561.1417,-50.4878"/>
</g>
<!-- Node39&#45;&gt;Node36 -->
<g id="edge10" class="edge">
<title>Node39&#45;&gt;Node36</title>
<path fill="none" stroke="#191970" d="M300.3323,-70.4021C308.2928,-69.2692 316.8829,-68.0466 325.5229,-66.817"/>
<polygon fill="#191970" stroke="#191970" points="326.2465,-70.2493 335.6535,-65.3752 325.2601,-63.3192 326.2465,-70.2493"/>
</g>
</g>
</svg>
