<?xml version="1.0" encoding="UTF-8" standalone="no"?>
<!DOCTYPE svg PUBLIC "-//W3C//DTD SVG 1.1//EN"
 "http://www.w3.org/Graphics/SVG/1.1/DTD/svg11.dtd">
<!-- Generated by graphviz version 2.39.20160927.1334 (20160927.1334)
 -->
<!-- Title: ac_off Pages: 1 -->
<svg width="413pt" height="85pt"
 viewBox="0.00 0.00 413.00 85.00" xmlns="http://www.w3.org/2000/svg" xmlns:xlink="http://www.w3.org/1999/xlink">
<g id="graph0" class="graph" transform="scale(1 1) rotate(0) translate(4 81)">
<title>ac_off</title>
<polygon fill="#ffffff" stroke="transparent" points="-4,4 -4,-81 409,-81 409,4 -4,4"/>
<!-- Node1 -->
<g id="node1" class="node">
<title>Node1</title>
<polygon fill="#bfbfbf" stroke="#000000" points="0,-19.5 0,-38.5 44,-38.5 44,-19.5 0,-19.5"/>
<text text-anchor="middle" x="22" y="-26.5" font-family="Helvetica,sans-Serif" font-size="10.00" fill="#000000">ac_off</text>
</g>
<!-- Node2 -->
<g id="node2" class="node">
<title>Node2</title>
<g id="a_node2"><a xlink:href="ac__out_8c.html#a07e9d906599f62767ef1efb99d8fce11" target="_top" xlink:title="ac_out_off_timer_func">
<polygon fill="#ffffff" stroke="#000000" points="80,-19.5 80,-38.5 195,-38.5 195,-19.5 80,-19.5"/>
<text text-anchor="middle" x="137.5" y="-26.5" font-family="Helvetica,sans-Serif" font-size="10.00" fill="#000000">ac_out_off_timer_func</text>
</a>
</g>
</g>
<!-- Node1&#45;&gt;Node2 -->
<g id="edge1" class="edge">
<title>Node1&#45;&gt;Node2</title>
<path fill="none" stroke="#191970" d="M44.2696,-29C51.7794,-29 60.5963,-29 69.7592,-29"/>
<polygon fill="#191970" stroke="#191970" points="69.7923,-32.5001 79.7923,-29 69.7923,-25.5001 69.7923,-32.5001"/>
</g>
<!-- Node3 -->
<g id="node3" class="node">
<title>Node3</title>
<g id="a_node3"><a xlink:href="espmissingincludes_8h.html#a0bbba7104c948de849f8051d9ac956e3" target="_top" xlink:title="os_printf">
<polygon fill="#ffffff" stroke="#000000" points="249,-57.5 249,-76.5 304,-76.5 304,-57.5 249,-57.5"/>
<text text-anchor="middle" x="276.5" y="-64.5" font-family="Helvetica,sans-Serif" font-size="10.00" fill="#000000">os_printf</text>
</a>
</g>
</g>
<!-- Node2&#45;&gt;Node3 -->
<g id="edge2" class="edge">
<title>Node2&#45;&gt;Node3</title>
<path fill="none" stroke="#191970" d="M172.576,-38.589C192.895,-44.1441 218.468,-51.1351 239.16,-56.7921"/>
<polygon fill="#191970" stroke="#191970" points="238.313,-60.1888 248.882,-59.4498 240.159,-53.4366 238.313,-60.1888"/>
</g>
<!-- Node4 -->
<g id="node4" class="node">
<title>Node4</title>
<g id="a_node4"><a xlink:href="led_8c.html#a7cd1d03b4baad9cb20bf1a43046f61a2" target="_top" xlink:title="led_stop_pattern">
<polygon fill="#ffffff" stroke="#000000" points="231,-19.5 231,-38.5 322,-38.5 322,-19.5 231,-19.5"/>
<text text-anchor="middle" x="276.5" y="-26.5" font-family="Helvetica,sans-Serif" font-size="10.00" fill="#000000">led_stop_pattern</text>
</a>
</g>
</g>
<!-- Node2&#45;&gt;Node4 -->
<g id="edge3" class="edge">
<title>Node2&#45;&gt;Node4</title>
<path fill="none" stroke="#191970" d="M195.241,-29C203.619,-29 212.233,-29 220.575,-29"/>
<polygon fill="#191970" stroke="#191970" points="220.581,-32.5001 230.581,-29 220.581,-25.5001 220.581,-32.5001"/>
</g>
<!-- Node5 -->
<g id="node5" class="node">
<title>Node5</title>
<g id="a_node5"><a xlink:href="led_8c.html#a7ef0b27e501c77cd25b8bb7a2de6d8bd" target="_top" xlink:title="led_off">
<polygon fill="#ffffff" stroke="#000000" points="358,-0.5 358,-19.5 405,-19.5 405,-0.5 358,-0.5"/>
<text text-anchor="middle" x="381.5" y="-7.5" font-family="Helvetica,sans-Serif" font-size="10.00" fill="#000000">led_off</text>
</a>
</g>
</g>
<!-- Node2&#45;&gt;Node5 -->
<g id="edge5" class="edge">
<title>Node2&#45;&gt;Node5</title>
<path fill="none" stroke="#191970" d="M175.448,-19.4903C192.337,-15.7253 212.541,-11.8565 231,-10 270.999,-5.97701 317.282,-6.78976 347.846,-8.07874"/>
<polygon fill="#191970" stroke="#191970" points="347.814,-11.5809 357.965,-8.54738 348.138,-4.58842 347.814,-11.5809"/>
</g>
<!-- Node4&#45;&gt;Node5 -->
<g id="edge4" class="edge">
<title>Node4&#45;&gt;Node5</title>
<path fill="none" stroke="#191970" d="M322.249,-20.7216C330.875,-19.1606 339.749,-17.5549 347.918,-16.0768"/>
<polygon fill="#191970" stroke="#191970" points="348.598,-19.5106 357.815,-14.2858 347.352,-12.6224 348.598,-19.5106"/>
</g>
</g>
</svg>
