<?xml version="1.0" encoding="UTF-8" standalone="no"?>
<!DOCTYPE svg PUBLIC "-//W3C//DTD SVG 1.1//EN"
 "http://www.w3.org/Graphics/SVG/1.1/DTD/svg11.dtd">
<!-- Generated by graphviz version 2.41.20170323.1842 (20170323.1842)
 -->
<!-- Title: user/crypto/aes.h Pages: 1 -->
<svg width="639pt" height="95pt"
 viewBox="0.00 0.00 639.00 95.00" xmlns="http://www.w3.org/2000/svg" xmlns:xlink="http://www.w3.org/1999/xlink">
<g id="graph0" class="graph" transform="scale(1 1) rotate(0) translate(4 91)">
<title>user/crypto/aes.h</title>
<polygon fill="#ffffff" stroke="transparent" points="-4,4 -4,-91 635,-91 635,4 -4,4"/>
<!-- Node27 -->
<g id="node1" class="node">
<title>Node27</title>
<polygon fill="#bfbfbf" stroke="#000000" points="247,-67.5 247,-86.5 340,-86.5 340,-67.5 247,-67.5"/>
<text text-anchor="middle" x="293.5" y="-74.5" font-family="Helvetica,sans-Serif" font-size="10.00" fill="#000000">user/crypto/aes.h</text>
</g>
<!-- Node28 -->
<g id="node2" class="node">
<title>Node28</title>
<g id="a_node2"><a xlink:href="aes_8c.html" target="_top" xlink:title="user/crypto/aes.c">
<polygon fill="#ffffff" stroke="#000000" points="0,-6 0,-25 93,-25 93,-6 0,-6"/>
<text text-anchor="middle" x="46.5" y="-13" font-family="Helvetica,sans-Serif" font-size="10.00" fill="#000000">user/crypto/aes.c</text>
</a>
</g>
</g>
<!-- Node27&#45;&gt;Node28 -->
<g id="edge1" class="edge">
<title>Node27&#45;&gt;Node28</title>
<path fill="none" stroke="#191970" d="M242.1039,-65.1172C203.5895,-56.0925 149.6348,-43.1954 102.5,-31 95.273,-29.1301 87.545,-27.0462 80.2093,-25.0281"/>
<polygon fill="#191970" stroke="#191970" points="241.509,-68.5724 252.0432,-67.4405 243.1024,-61.7561 241.509,-68.5724"/>
</g>
<!-- Node29 -->
<g id="node3" class="node">
<title>Node29</title>
<g id="a_node3"><a xlink:href="crypto_8c.html" target="_top" xlink:title="user/crypto/crypto.c">
<polygon fill="#ffffff" stroke="#000000" points="111.5,-6 111.5,-25 215.5,-25 215.5,-6 111.5,-6"/>
<text text-anchor="middle" x="163.5" y="-13" font-family="Helvetica,sans-Serif" font-size="10.00" fill="#000000">user/crypto/crypto.c</text>
</a>
</g>
</g>
<!-- Node27&#45;&gt;Node29 -->
<g id="edge2" class="edge">
<title>Node27&#45;&gt;Node29</title>
<path fill="none" stroke="#191970" d="M263.9819,-63.0357C239.4423,-51.4265 205.1742,-35.2151 183.6699,-25.0419"/>
<polygon fill="#191970" stroke="#191970" points="262.6512,-66.278 273.1875,-67.3906 265.6447,-59.9504 262.6512,-66.278"/>
</g>
<!-- Node30 -->
<g id="node4" class="node">
<title>Node30</title>
<g id="a_node4"><a xlink:href="en61107__request_8c.html" target="_top" xlink:title="user/en61107/en61107\l_request.c">
<polygon fill="#ffffff" stroke="#000000" points="234,-.5 234,-30.5 353,-30.5 353,-.5 234,-.5"/>
<text text-anchor="start" x="242" y="-18.5" font-family="Helvetica,sans-Serif" font-size="10.00" fill="#000000">user/en61107/en61107</text>
<text text-anchor="middle" x="293.5" y="-7.5" font-family="Helvetica,sans-Serif" font-size="10.00" fill="#000000">_request.c</text>
</a>
</g>
</g>
<!-- Node27&#45;&gt;Node30 -->
<g id="edge3" class="edge">
<title>Node27&#45;&gt;Node30</title>
<path fill="none" stroke="#191970" d="M293.5,-57.3693C293.5,-48.681 293.5,-38.6241 293.5,-30.5446"/>
<polygon fill="#191970" stroke="#191970" points="290.0001,-57.3906 293.5,-67.3906 297.0001,-57.3907 290.0001,-57.3906"/>
</g>
<!-- Node31 -->
<g id="node5" class="node">
<title>Node31</title>
<g id="a_node5"><a xlink:href="kmp__request_8c.html" target="_top" xlink:title="user/kamstrup/kmp_request.c">
<polygon fill="#ffffff" stroke="#000000" points="371.5,-6 371.5,-25 519.5,-25 519.5,-6 371.5,-6"/>
<text text-anchor="middle" x="445.5" y="-13" font-family="Helvetica,sans-Serif" font-size="10.00" fill="#000000">user/kamstrup/kmp_request.c</text>
</a>
</g>
</g>
<!-- Node27&#45;&gt;Node31 -->
<g id="edge4" class="edge">
<title>Node27&#45;&gt;Node31</title>
<path fill="none" stroke="#191970" d="M326.8769,-63.4955C355.6396,-51.858 396.4395,-35.3501 421.9168,-25.0419"/>
<polygon fill="#191970" stroke="#191970" points="325.2072,-60.3954 317.25,-67.3906 327.8327,-66.8844 325.2072,-60.3954"/>
</g>
<!-- Node32 -->
<g id="node6" class="node">
<title>Node32</title>
<g id="a_node6"><a xlink:href="user__main_8c.html" target="_top" xlink:title="user/user_main.c">
<polygon fill="#ffffff" stroke="#000000" points="538,-6 538,-25 631,-25 631,-6 538,-6"/>
<text text-anchor="middle" x="584.5" y="-13" font-family="Helvetica,sans-Serif" font-size="10.00" fill="#000000">user/user_main.c</text>
</a>
</g>
</g>
<!-- Node27&#45;&gt;Node32 -->
<g id="edge5" class="edge">
<title>Node27&#45;&gt;Node32</title>
<path fill="none" stroke="#191970" d="M350.2394,-67.1543C397.9991,-58.5657 467.9974,-45.2725 528.5,-31 536.0601,-29.2166 544.1386,-27.1037 551.7397,-25.021"/>
<polygon fill="#191970" stroke="#191970" points="349.3259,-63.762 340.0979,-68.9674 350.5579,-70.6527 349.3259,-63.762"/>
</g>
</g>
</svg>
