<?xml version="1.0" encoding="UTF-8" standalone="no"?>
<!DOCTYPE svg PUBLIC "-//W3C//DTD SVG 1.1//EN"
 "http://www.w3.org/Graphics/SVG/1.1/DTD/svg11.dtd">
<!-- Generated by graphviz version 2.39.20160927.1334 (20160927.1334)
 -->
<!-- Title: AddRoundKey Pages: 1 -->
<svg width="184pt" height="66pt"
 viewBox="0.00 0.00 184.00 66.00" xmlns="http://www.w3.org/2000/svg" xmlns:xlink="http://www.w3.org/1999/xlink">
<g id="graph0" class="graph" transform="scale(1 1) rotate(0) translate(4 62)">
<title>AddRoundKey</title>
<polygon fill="#ffffff" stroke="transparent" points="-4,4 -4,-62 180,-62 180,4 -4,4"/>
<!-- Node1 -->
<g id="node1" class="node">
<title>Node1</title>
<polygon fill="#bfbfbf" stroke="#000000" points="0,-19.5 0,-38.5 81,-38.5 81,-19.5 0,-19.5"/>
<text text-anchor="middle" x="40.5" y="-26.5" font-family="Helvetica,sans-Serif" font-size="10.00" fill="#000000">AddRoundKey</text>
</g>
<!-- Node2 -->
<g id="node2" class="node">
<title>Node2</title>
<g id="a_node2"><a xlink:href="aes_8c.html#a67829edbdf3309d301104f56453e4e88" target="_top" xlink:title="Cipher">
<polygon fill="#ffffff" stroke="#000000" points="123.5,-38.5 123.5,-57.5 169.5,-57.5 169.5,-38.5 123.5,-38.5"/>
<text text-anchor="middle" x="146.5" y="-45.5" font-family="Helvetica,sans-Serif" font-size="10.00" fill="#000000">Cipher</text>
</a>
</g>
</g>
<!-- Node1&#45;&gt;Node2 -->
<g id="edge1" class="edge">
<title>Node1&#45;&gt;Node2</title>
<path fill="none" stroke="#191970" d="M91.3458,-38.1139C102.517,-40.1163 113.817,-42.1417 123.254,-43.8333"/>
<polygon fill="#191970" stroke="#191970" points="91.6399,-34.6109 81.1792,-36.2916 90.4048,-41.5011 91.6399,-34.6109"/>
</g>
<!-- Node3 -->
<g id="node3" class="node">
<title>Node3</title>
<g id="a_node3"><a xlink:href="aes_8c.html#a1c8b8be3915a4ec4ce9d2c0961f07c62" target="_top" xlink:title="InvCipher">
<polygon fill="#ffffff" stroke="#000000" points="117,-0.5 117,-19.5 176,-19.5 176,-0.5 117,-0.5"/>
<text text-anchor="middle" x="146.5" y="-7.5" font-family="Helvetica,sans-Serif" font-size="10.00" fill="#000000">InvCipher</text>
</a>
</g>
</g>
<!-- Node1&#45;&gt;Node3 -->
<g id="edge2" class="edge">
<title>Node1&#45;&gt;Node3</title>
<path fill="none" stroke="#191970" d="M91.0935,-19.9313C99.9556,-18.3429 108.907,-16.7383 116.955,-15.2957"/>
<polygon fill="#191970" stroke="#191970" points="90.4048,-16.4989 81.1792,-21.7084 91.6399,-23.3891 90.4048,-16.4989"/>
</g>
</g>
</svg>
