<?xml version="1.0" encoding="UTF-8" standalone="no"?>
<!DOCTYPE svg PUBLIC "-//W3C//DTD SVG 1.1//EN"
 "http://www.w3.org/Graphics/SVG/1.1/DTD/svg11.dtd">
<!-- Generated by graphviz version 2.40.1 (20161225.0304)
 -->
<!-- Title: user/crypto/aes.c Pages: 1 -->
<svg width="1499pt" height="756pt"
 viewBox="0.00 0.00 1499.00 756.00" xmlns="http://www.w3.org/2000/svg" xmlns:xlink="http://www.w3.org/1999/xlink">
<g id="graph0" class="graph" transform="scale(1 1) rotate(0) translate(4 752)">
<title>user/crypto/aes.c</title>
<polygon fill="#ffffff" stroke="transparent" points="-4,4 -4,-752 1495,-752 1495,4 -4,4"/>
<!-- Node0 -->
<g id="node1" class="node">
<title>Node0</title>
<polygon fill="#bfbfbf" stroke="#000000" points="723.5,-728.5 723.5,-747.5 816.5,-747.5 816.5,-728.5 723.5,-728.5"/>
<text text-anchor="middle" x="770" y="-735.5" font-family="Helvetica,sans-Serif" font-size="10.00" fill="#000000">user/crypto/aes.c</text>
</g>
<!-- Node1 -->
<g id="node2" class="node">
<title>Node1</title>
<g id="a_node2"><a xlink:href="esp8266_8h.html" target="_top" xlink:title="esp8266.h">
<polygon fill="#ffffff" stroke="#000000" points="706.5,-616.5 706.5,-635.5 769.5,-635.5 769.5,-616.5 706.5,-616.5"/>
<text text-anchor="middle" x="738" y="-623.5" font-family="Helvetica,sans-Serif" font-size="10.00" fill="#000000">esp8266.h</text>
</a>
</g>
</g>
<!-- Node0&#45;&gt;Node1 -->
<g id="edge1" class="edge">
<title>Node0&#45;&gt;Node1</title>
<path fill="none" stroke="#191970" d="M767.2717,-728.4509C762.0289,-710.1013 750.4545,-669.5908 743.5341,-645.3693"/>
<polygon fill="#191970" stroke="#191970" points="746.834,-644.1786 740.7214,-635.5249 740.1033,-646.1017 746.834,-644.1786"/>
</g>
<!-- Node5 -->
<g id="node6" class="node">
<title>Node5</title>
<polygon fill="#ffffff" stroke="#bfbfbf" points="13.5,-56.5 13.5,-75.5 62.5,-75.5 62.5,-56.5 13.5,-56.5"/>
<text text-anchor="middle" x="38" y="-63.5" font-family="Helvetica,sans-Serif" font-size="10.00" fill="#000000">string.h</text>
</g>
<!-- Node0&#45;&gt;Node5 -->
<g id="edge74" class="edge">
<title>Node0&#45;&gt;Node5</title>
<path fill="none" stroke="#191970" d="M723.28,-736.1589C556.4528,-728.973 0,-699.4959 0,-626 0,-626 0,-626 0,-178 0,-143.6118 16.2634,-106.2832 27.511,-84.5791"/>
<polygon fill="#191970" stroke="#191970" points="30.7317,-85.9804 32.393,-75.5166 24.569,-82.6605 30.7317,-85.9804"/>
</g>
<!-- Node7 -->
<g id="node8" class="node">
<title>Node7</title>
<polygon fill="#ffffff" stroke="#bfbfbf" points="1396.5,-.5 1396.5,-19.5 1445.5,-19.5 1445.5,-.5 1396.5,-.5"/>
<text text-anchor="middle" x="1421" y="-7.5" font-family="Helvetica,sans-Serif" font-size="10.00" fill="#000000">stdint.h</text>
</g>
<!-- Node0&#45;&gt;Node7 -->
<g id="edge73" class="edge">
<title>Node0&#45;&gt;Node7</title>
<path fill="none" stroke="#191970" d="M816.7513,-735.691C976.5211,-727.1864 1491,-694.4836 1491,-626 1491,-626 1491,-626 1491,-122 1491,-83.1653 1460.3623,-46.6944 1439.6251,-26.4569"/>
<polygon fill="#191970" stroke="#191970" points="1441.9312,-23.821 1432.2467,-19.5244 1437.138,-28.9226 1441.9312,-23.821"/>
</g>
<!-- Node40 -->
<g id="node41" class="node">
<title>Node40</title>
<g id="a_node41"><a xlink:href="aes_8h.html" target="_top" xlink:title="crypto/aes.h">
<polygon fill="#ffffff" stroke="#000000" points="766.5,-672.5 766.5,-691.5 837.5,-691.5 837.5,-672.5 766.5,-672.5"/>
<text text-anchor="middle" x="802" y="-679.5" font-family="Helvetica,sans-Serif" font-size="10.00" fill="#000000">crypto/aes.h</text>
</a>
</g>
</g>
<!-- Node0&#45;&gt;Node40 -->
<g id="edge75" class="edge">
<title>Node0&#45;&gt;Node40</title>
<path fill="none" stroke="#191970" d="M775.574,-728.2455C779.9331,-720.617 786.1211,-709.7881 791.4133,-700.5267"/>
<polygon fill="#191970" stroke="#191970" points="794.5673,-702.0616 796.4899,-691.6427 788.4896,-698.5886 794.5673,-702.0616"/>
</g>
<!-- Node2 -->
<g id="node3" class="node">
<title>Node2</title>
<polygon fill="#ffffff" stroke="#bfbfbf" points="104.5,-560.5 104.5,-579.5 153.5,-579.5 153.5,-560.5 104.5,-560.5"/>
<text text-anchor="middle" x="129" y="-567.5" font-family="Helvetica,sans-Serif" font-size="10.00" fill="#000000">ctype.h</text>
</g>
<!-- Node1&#45;&gt;Node2 -->
<g id="edge2" class="edge">
<title>Node1&#45;&gt;Node2</title>
<path fill="none" stroke="#191970" d="M706.2539,-625.3326C619.4692,-623.1013 371.1823,-613.9924 168,-580 166.535,-579.7549 165.0445,-579.4816 163.5428,-579.1865"/>
<polygon fill="#191970" stroke="#191970" points="164.1422,-575.7345 153.622,-576.9892 162.6285,-582.5689 164.1422,-575.7345"/>
</g>
<!-- Node3 -->
<g id="node4" class="node">
<title>Node3</title>
<polygon fill="#ffffff" stroke="#bfbfbf" points="286,-560.5 286,-579.5 332,-579.5 332,-560.5 286,-560.5"/>
<text text-anchor="middle" x="309" y="-567.5" font-family="Helvetica,sans-Serif" font-size="10.00" fill="#000000">stdio.h</text>
</g>
<!-- Node1&#45;&gt;Node3 -->
<g id="edge3" class="edge">
<title>Node1&#45;&gt;Node3</title>
<path fill="none" stroke="#191970" d="M706.2547,-623.8668C639.2313,-619.015 478.5502,-605.5454 346,-580 344.7504,-579.7592 343.481,-579.4985 342.2018,-579.2223"/>
<polygon fill="#191970" stroke="#191970" points="342.9062,-575.7922 332.3666,-576.8728 341.2797,-582.6006 342.9062,-575.7922"/>
</g>
<!-- Node4 -->
<g id="node5" class="node">
<title>Node4</title>
<polygon fill="#ffffff" stroke="#bfbfbf" points="827,-560.5 827,-579.5 875,-579.5 875,-560.5 827,-560.5"/>
<text text-anchor="middle" x="851" y="-567.5" font-family="Helvetica,sans-Serif" font-size="10.00" fill="#000000">stdlib.h</text>
</g>
<!-- Node1&#45;&gt;Node4 -->
<g id="edge4" class="edge">
<title>Node1&#45;&gt;Node4</title>
<path fill="none" stroke="#191970" d="M757.4254,-616.3733C775.4021,-607.4644 802.3441,-594.1127 822.709,-584.0203"/>
<polygon fill="#191970" stroke="#191970" points="824.4222,-587.0776 831.8281,-579.5011 821.3139,-580.8055 824.4222,-587.0776"/>
</g>
<!-- Node1&#45;&gt;Node5 -->
<g id="edge5" class="edge">
<title>Node1&#45;&gt;Node5</title>
<path fill="none" stroke="#191970" d="M706.3876,-625.5548C581.7733,-623.565 128.734,-614.0307 75,-580 46.59,-562.0074 38,-547.6283 38,-514 38,-514 38,-514 38,-178 38,-145.7116 38,-108.1872 38,-85.8048"/>
<polygon fill="#191970" stroke="#191970" points="41.5001,-85.5883 38,-75.5884 34.5001,-85.5884 41.5001,-85.5883"/>
</g>
<!-- Node6 -->
<g id="node7" class="node">
<title>Node6</title>
<g id="a_node7"><a xlink:href="c__types_8h.html" target="_top" xlink:title="c_types.h">
<polygon fill="#ffffff" stroke="#000000" points="1289.5,-56.5 1289.5,-75.5 1348.5,-75.5 1348.5,-56.5 1289.5,-56.5"/>
<text text-anchor="middle" x="1319" y="-63.5" font-family="Helvetica,sans-Serif" font-size="10.00" fill="#000000">c_types.h</text>
</a>
</g>
</g>
<!-- Node1&#45;&gt;Node6 -->
<g id="edge6" class="edge">
<title>Node1&#45;&gt;Node6</title>
<path fill="none" stroke="#191970" d="M769.859,-624.8291C887.3354,-620.3423 1292.1894,-603.3193 1345,-580 1384.1155,-562.728 1415,-556.7592 1415,-514 1415,-514 1415,-514 1415,-178 1415,-134.7864 1373.2921,-99.8806 1344.8584,-81.1053"/>
<polygon fill="#191970" stroke="#191970" points="1346.4814,-77.9899 1336.1629,-75.5861 1342.7302,-83.9 1346.4814,-77.9899"/>
</g>
<!-- Node9 -->
<g id="node10" class="node">
<title>Node9</title>
<g id="a_node10"><a xlink:href="ip_8h.html" target="_top" xlink:title="lwip/ip.h">
<polygon fill="#ffffff" stroke="#000000" points="969.5,-560.5 969.5,-579.5 1022.5,-579.5 1022.5,-560.5 969.5,-560.5"/>
<text text-anchor="middle" x="996" y="-567.5" font-family="Helvetica,sans-Serif" font-size="10.00" fill="#000000">lwip/ip.h</text>
</a>
</g>
</g>
<!-- Node1&#45;&gt;Node9 -->
<g id="edge9" class="edge">
<title>Node1&#45;&gt;Node9</title>
<path fill="none" stroke="#191970" d="M769.6909,-619.596C812.0142,-610.9717 889.2908,-594.9743 955,-580 956.4287,-579.6744 957.8844,-579.3387 959.3542,-578.9963"/>
<polygon fill="#191970" stroke="#191970" points="960.1992,-582.3931 969.1213,-576.6793 958.5834,-575.5821 960.1992,-582.3931"/>
</g>
<!-- Node10 -->
<g id="node11" class="node">
<title>Node10</title>
<g id="a_node11"><a xlink:href="opt_8h.html" target="_top" xlink:title="lwip/opt.h">
<polygon fill="#ffffff" stroke="#000000" points="581.5,-336.5 581.5,-355.5 640.5,-355.5 640.5,-336.5 581.5,-336.5"/>
<text text-anchor="middle" x="611" y="-343.5" font-family="Helvetica,sans-Serif" font-size="10.00" fill="#000000">lwip/opt.h</text>
</a>
</g>
</g>
<!-- Node1&#45;&gt;Node10 -->
<g id="edge52" class="edge">
<title>Node1&#45;&gt;Node10</title>
<path fill="none" stroke="#191970" d="M706.4284,-624.4532C606.8822,-619.366 303.9244,-602.2016 266,-580 235.1436,-561.9361 220,-549.755 220,-514 220,-514 220,-514 220,-458 220,-385.5273 471.3911,-357.2676 571.0235,-348.9134"/>
<polygon fill="#191970" stroke="#191970" points="571.6072,-352.3776 581.2905,-348.0783 571.0397,-345.4007 571.6072,-352.3776"/>
</g>
<!-- Node15 -->
<g id="node16" class="node">
<title>Node15</title>
<g id="a_node16"><a xlink:href="ets__sys_8h.html" target="_top" xlink:title="ets_sys.h">
<polygon fill="#ffffff" stroke="#000000" points="1205.5,-112.5 1205.5,-131.5 1264.5,-131.5 1264.5,-112.5 1205.5,-112.5"/>
<text text-anchor="middle" x="1235" y="-119.5" font-family="Helvetica,sans-Serif" font-size="10.00" fill="#000000">ets_sys.h</text>
</a>
</g>
</g>
<!-- Node1&#45;&gt;Node15 -->
<g id="edge54" class="edge">
<title>Node1&#45;&gt;Node15</title>
<path fill="none" stroke="#191970" d="M769.6821,-623.6822C847.0435,-617.7603 1043.7897,-601.0458 1106,-580 1196.6873,-549.3204 1243.9308,-551.923 1290,-468 1321.4726,-410.6672 1261.252,-205.482 1241.1851,-141.3189"/>
<polygon fill="#191970" stroke="#191970" points="1244.4818,-140.1356 1238.1311,-131.655 1237.8072,-142.2449 1244.4818,-140.1356"/>
</g>
<!-- Node17 -->
<g id="node18" class="node">
<title>Node17</title>
<g id="a_node18"><a xlink:href="osapi_8h.html" target="_top" xlink:title="osapi.h">
<polygon fill="#ffffff" stroke="#000000" points="511.5,-112.5 511.5,-131.5 560.5,-131.5 560.5,-112.5 511.5,-112.5"/>
<text text-anchor="middle" x="536" y="-119.5" font-family="Helvetica,sans-Serif" font-size="10.00" fill="#000000">osapi.h</text>
</a>
</g>
</g>
<!-- Node1&#45;&gt;Node17 -->
<g id="edge57" class="edge">
<title>Node1&#45;&gt;Node17</title>
<path fill="none" stroke="#191970" d="M706.332,-625.8026C583.6384,-624.7609 144.0183,-618.3599 96,-580 72.0526,-560.8694 76,-544.6506 76,-514 76,-514 76,-514 76,-234 76,-146.5884 393.5366,-127.1138 500.9649,-123.0265"/>
<polygon fill="#191970" stroke="#191970" points="501.4,-126.5133 511.2684,-122.6577 501.1496,-119.5178 501.4,-126.5133"/>
</g>
<!-- Node23 -->
<g id="node24" class="node">
<title>Node23</title>
<g id="a_node24"><a xlink:href="netif_8h.html" target="_top" xlink:title="lwip/netif.h">
<polygon fill="#ffffff" stroke="#000000" points="813,-504.5 813,-523.5 877,-523.5 877,-504.5 813,-504.5"/>
<text text-anchor="middle" x="845" y="-511.5" font-family="Helvetica,sans-Serif" font-size="10.00" fill="#000000">lwip/netif.h</text>
</a>
</g>
</g>
<!-- Node1&#45;&gt;Node23 -->
<g id="edge46" class="edge">
<title>Node1&#45;&gt;Node23</title>
<path fill="none" stroke="#191970" d="M769.7303,-623.3456C842.2224,-616.9607 1015.0585,-599.7983 1032,-580 1037.7792,-573.2463 1037.4836,-566.9959 1032,-560 1014.3814,-537.5222 936.9917,-524.5588 887.4573,-518.4217"/>
<polygon fill="#191970" stroke="#191970" points="887.6858,-514.9243 877.3416,-517.2148 886.8565,-521.875 887.6858,-514.9243"/>
</g>
<!-- Node24 -->
<g id="node25" class="node">
<title>Node24</title>
<g id="a_node25"><a xlink:href="udp_8h.html" target="_top" xlink:title="lwip/udp.h">
<polygon fill="#ffffff" stroke="#000000" points="257,-504.5 257,-523.5 319,-523.5 319,-504.5 257,-504.5"/>
<text text-anchor="middle" x="288" y="-511.5" font-family="Helvetica,sans-Serif" font-size="10.00" fill="#000000">lwip/udp.h</text>
</a>
</g>
</g>
<!-- Node1&#45;&gt;Node24 -->
<g id="edge40" class="edge">
<title>Node1&#45;&gt;Node24</title>
<path fill="none" stroke="#191970" d="M706.4837,-625.2492C607.2052,-622.5623 305.8101,-611.828 277,-580 265.599,-567.4047 270.8146,-547.66 277.382,-533.0454"/>
<polygon fill="#191970" stroke="#191970" points="280.6141,-534.4075 281.957,-523.8981 274.3535,-531.2762 280.6141,-534.4075"/>
</g>
<!-- Node25 -->
<g id="node26" class="node">
<title>Node25</title>
<g id="a_node26"><a xlink:href="tcp__impl_8h.html" target="_top" xlink:title="lwip/tcp_impl.h">
<polygon fill="#ffffff" stroke="#000000" points="463,-392.5 463,-411.5 545,-411.5 545,-392.5 463,-392.5"/>
<text text-anchor="middle" x="504" y="-399.5" font-family="Helvetica,sans-Serif" font-size="10.00" fill="#000000">lwip/tcp_impl.h</text>
</a>
</g>
</g>
<!-- Node1&#45;&gt;Node25 -->
<g id="edge42" class="edge">
<title>Node1&#45;&gt;Node25</title>
<path fill="none" stroke="#191970" d="M769.5896,-622.8721C822.3559,-616.4879 919.3322,-599.1188 884,-560 831.1478,-501.4836 589.899,-576.4255 531,-524 502.0893,-498.2668 500.3622,-449.1435 501.9706,-421.7328"/>
<polygon fill="#191970" stroke="#191970" points="505.46,-422.0032 502.7629,-411.7575 498.482,-421.4489 505.46,-422.0032"/>
</g>
<!-- Node26 -->
<g id="node27" class="node">
<title>Node26</title>
<g id="a_node27"><a xlink:href="etharp_8h.html" target="_top" xlink:title="netif/etharp.h">
<polygon fill="#ffffff" stroke="#000000" points="539.5,-504.5 539.5,-523.5 614.5,-523.5 614.5,-504.5 539.5,-504.5"/>
<text text-anchor="middle" x="577" y="-511.5" font-family="Helvetica,sans-Serif" font-size="10.00" fill="#000000">netif/etharp.h</text>
</a>
</g>
</g>
<!-- Node1&#45;&gt;Node26 -->
<g id="edge44" class="edge">
<title>Node1&#45;&gt;Node26</title>
<path fill="none" stroke="#191970" d="M769.9693,-624.8432C832.2124,-621.501 959.963,-608.6677 917,-560 874.315,-511.6472 692.7031,-534.0956 629,-524 627.5529,-523.7707 626.0844,-523.5311 624.6029,-523.2835"/>
<polygon fill="#191970" stroke="#191970" points="625.176,-519.8307 614.7226,-521.5557 623.9701,-526.7261 625.176,-519.8307"/>
</g>
<!-- Node27 -->
<g id="node28" class="node">
<title>Node27</title>
<g id="a_node28"><a xlink:href="lwip__napt_8h.html" target="_top" xlink:title="lwip/lwip_napt.h">
<polygon fill="#ffffff" stroke="#000000" points="104.5,-392.5 104.5,-411.5 191.5,-411.5 191.5,-392.5 104.5,-392.5"/>
<text text-anchor="middle" x="148" y="-399.5" font-family="Helvetica,sans-Serif" font-size="10.00" fill="#000000">lwip/lwip_napt.h</text>
</a>
</g>
</g>
<!-- Node1&#45;&gt;Node27 -->
<g id="edge47" class="edge">
<title>Node1&#45;&gt;Node27</title>
<path fill="none" stroke="#191970" d="M706.343,-625.2713C597.8052,-622.5016 245.2524,-611.1635 206,-580 156.8639,-540.9895 148.8514,-459.6056 147.8826,-421.9295"/>
<polygon fill="#191970" stroke="#191970" points="151.3803,-421.6963 147.7703,-411.7355 144.3807,-421.7735 151.3803,-421.6963"/>
</g>
<!-- Node28 -->
<g id="node29" class="node">
<title>Node28</title>
<g id="a_node29"><a xlink:href="dns_8h.html" target="_top" xlink:title="lwip/dns.h">
<polygon fill="#ffffff" stroke="#000000" points="337.5,-504.5 337.5,-523.5 398.5,-523.5 398.5,-504.5 337.5,-504.5"/>
<text text-anchor="middle" x="368" y="-511.5" font-family="Helvetica,sans-Serif" font-size="10.00" fill="#000000">lwip/dns.h</text>
</a>
</g>
</g>
<!-- Node1&#45;&gt;Node28 -->
<g id="edge49" class="edge">
<title>Node1&#45;&gt;Node28</title>
<path fill="none" stroke="#191970" d="M706.4538,-624.0878C623.2217,-618.7496 402.4511,-602.5831 379,-580 366.8646,-568.3138 364.9488,-548.6858 365.5681,-533.8651"/>
<polygon fill="#191970" stroke="#191970" points="369.0743,-533.934 366.4086,-523.68 362.098,-533.3582 369.0743,-533.934"/>
</g>
<!-- Node29 -->
<g id="node30" class="node">
<title>Node29</title>
<g id="a_node30"><a xlink:href="dhcpserver_8h.html" target="_top" xlink:title="lwip/app/dhcpserver.h">
<polygon fill="#ffffff" stroke="#000000" points="388,-560.5 388,-579.5 502,-579.5 502,-560.5 388,-560.5"/>
<text text-anchor="middle" x="445" y="-567.5" font-family="Helvetica,sans-Serif" font-size="10.00" fill="#000000">lwip/app/dhcpserver.h</text>
</a>
</g>
</g>
<!-- Node1&#45;&gt;Node29 -->
<g id="edge51" class="edge">
<title>Node1&#45;&gt;Node29</title>
<path fill="none" stroke="#191970" d="M706.3655,-619.9538C658.2164,-610.7513 565.7052,-593.0699 504.6645,-581.4034"/>
<polygon fill="#191970" stroke="#191970" points="505.255,-577.953 494.7757,-579.5134 503.9409,-584.8286 505.255,-577.953"/>
</g>
<!-- Node30 -->
<g id="node31" class="node">
<title>Node30</title>
<g id="a_node31"><a xlink:href="sdk_2include_2espconn_8h.html" target="_top" xlink:title="espconn.h">
<polygon fill="#ffffff" stroke="#000000" points="520.5,-560.5 520.5,-579.5 583.5,-579.5 583.5,-560.5 520.5,-560.5"/>
<text text-anchor="middle" x="552" y="-567.5" font-family="Helvetica,sans-Serif" font-size="10.00" fill="#000000">espconn.h</text>
</a>
</g>
</g>
<!-- Node1&#45;&gt;Node30 -->
<g id="edge53" class="edge">
<title>Node1&#45;&gt;Node30</title>
<path fill="none" stroke="#191970" d="M706.4476,-616.5004C675.3175,-607.1278 627.561,-592.7495 593.3977,-582.4638"/>
<polygon fill="#191970" stroke="#191970" points="594.2916,-579.0778 583.7071,-579.5462 592.2735,-585.7806 594.2916,-579.0778"/>
</g>
<!-- Node31 -->
<g id="node32" class="node">
<title>Node31</title>
<g id="a_node32"><a xlink:href="gpio_8h.html" target="_top" xlink:title="gpio.h">
<polygon fill="#ffffff" stroke="#000000" points="1237,-448.5 1237,-467.5 1281,-467.5 1281,-448.5 1237,-448.5"/>
<text text-anchor="middle" x="1259" y="-455.5" font-family="Helvetica,sans-Serif" font-size="10.00" fill="#000000">gpio.h</text>
</a>
</g>
</g>
<!-- Node1&#45;&gt;Node31 -->
<g id="edge55" class="edge">
<title>Node1&#45;&gt;Node31</title>
<path fill="none" stroke="#191970" d="M769.6268,-623.3999C841.6641,-617.1935 1015.9652,-600.4924 1071,-580 1139.2832,-554.5745 1208.2663,-501.0645 1240.3869,-474.1631"/>
<polygon fill="#191970" stroke="#191970" points="1242.7281,-476.7668 1248.088,-467.6278 1238.1988,-471.4296 1242.7281,-476.7668"/>
</g>
<!-- Node32 -->
<g id="node33" class="node">
<title>Node32</title>
<g id="a_node33"><a xlink:href="sdk_2include_2mem_8h.html" target="_top" xlink:title="mem.h">
<polygon fill="#ffffff" stroke="#000000" points="601.5,-560.5 601.5,-579.5 648.5,-579.5 648.5,-560.5 601.5,-560.5"/>
<text text-anchor="middle" x="625" y="-567.5" font-family="Helvetica,sans-Serif" font-size="10.00" fill="#000000">mem.h</text>
</a>
</g>
</g>
<!-- Node1&#45;&gt;Node32 -->
<g id="edge56" class="edge">
<title>Node1&#45;&gt;Node32</title>
<path fill="none" stroke="#191970" d="M718.5746,-616.3733C700.5979,-607.4644 673.6559,-594.1127 653.291,-584.0203"/>
<polygon fill="#191970" stroke="#191970" points="654.6861,-580.8055 644.1719,-579.5011 651.5778,-587.0776 654.6861,-580.8055"/>
</g>
<!-- Node33 -->
<g id="node34" class="node">
<title>Node33</title>
<g id="a_node34"><a xlink:href="user__interface_8h.html" target="_top" xlink:title="user_interface.h">
<polygon fill="#ffffff" stroke="#000000" points="1045,-504.5 1045,-523.5 1133,-523.5 1133,-504.5 1045,-504.5"/>
<text text-anchor="middle" x="1089" y="-511.5" font-family="Helvetica,sans-Serif" font-size="10.00" fill="#000000">user_interface.h</text>
</a>
</g>
</g>
<!-- Node1&#45;&gt;Node33 -->
<g id="edge58" class="edge">
<title>Node1&#45;&gt;Node33</title>
<path fill="none" stroke="#191970" d="M769.7443,-624.634C839.3035,-621.1153 1002.5794,-609.8309 1048,-580 1064.6729,-569.0498 1075.7643,-548.7282 1082.1591,-533.5155"/>
<polygon fill="#191970" stroke="#191970" points="1085.505,-534.5671 1085.8469,-523.9777 1078.9761,-532.0426 1085.505,-534.5671"/>
</g>
<!-- Node37 -->
<g id="node38" class="node">
<title>Node37</title>
<g id="a_node38"><a xlink:href="upgrade_8h.html" target="_top" xlink:title="upgrade.h">
<polygon fill="#ffffff" stroke="#000000" points="667,-560.5 667,-579.5 729,-579.5 729,-560.5 667,-560.5"/>
<text text-anchor="middle" x="698" y="-567.5" font-family="Helvetica,sans-Serif" font-size="10.00" fill="#000000">upgrade.h</text>
</a>
</g>
</g>
<!-- Node1&#45;&gt;Node37 -->
<g id="edge66" class="edge">
<title>Node1&#45;&gt;Node37</title>
<path fill="none" stroke="#191970" d="M731.0325,-616.2455C725.4689,-608.4564 717.522,-597.3308 710.8171,-587.9439"/>
<polygon fill="#191970" stroke="#191970" points="713.5481,-585.7457 704.8876,-579.6427 707.852,-589.8144 713.5481,-585.7457"/>
</g>
<!-- Node38 -->
<g id="node39" class="node">
<title>Node38</title>
<g id="a_node39"><a xlink:href="platform_8h.html" target="_top" xlink:title="platform.h">
<polygon fill="#ffffff" stroke="#000000" points="747.5,-560.5 747.5,-579.5 808.5,-579.5 808.5,-560.5 747.5,-560.5"/>
<text text-anchor="middle" x="778" y="-567.5" font-family="Helvetica,sans-Serif" font-size="10.00" fill="#000000">platform.h</text>
</a>
</g>
</g>
<!-- Node1&#45;&gt;Node38 -->
<g id="edge67" class="edge">
<title>Node1&#45;&gt;Node38</title>
<path fill="none" stroke="#191970" d="M744.9675,-616.2455C750.5311,-608.4564 758.478,-597.3308 765.1829,-587.9439"/>
<polygon fill="#191970" stroke="#191970" points="768.148,-589.8144 771.1124,-579.6427 762.4519,-585.7457 768.148,-589.8144"/>
</g>
<!-- Node39 -->
<g id="node40" class="node">
<title>Node39</title>
<g id="a_node40"><a xlink:href="espmissingincludes_8h.html" target="_top" xlink:title="espmissingincludes.h">
<polygon fill="#ffffff" stroke="#000000" points="1275,-168.5 1275,-187.5 1387,-187.5 1387,-168.5 1275,-168.5"/>
<text text-anchor="middle" x="1331" y="-175.5" font-family="Helvetica,sans-Serif" font-size="10.00" fill="#000000">espmissingincludes.h</text>
</a>
</g>
</g>
<!-- Node1&#45;&gt;Node39 -->
<g id="edge68" class="edge">
<title>Node1&#45;&gt;Node39</title>
<path fill="none" stroke="#191970" d="M769.5242,-625.4894C884.7605,-623.3582 1278.7572,-613.6509 1323,-580 1347.8431,-561.1044 1347,-545.2125 1347,-514 1347,-514 1347,-514 1347,-290 1347,-257.2342 1340.2061,-219.6134 1335.4725,-197.3778"/>
<polygon fill="#191970" stroke="#191970" points="1338.8698,-196.5307 1333.2924,-187.5228 1332.0351,-198.0428 1338.8698,-196.5307"/>
</g>
<!-- Node6&#45;&gt;Node7 -->
<g id="edge7" class="edge">
<title>Node6&#45;&gt;Node7</title>
<path fill="none" stroke="#191970" d="M1336.767,-56.2455C1352.7095,-47.4928 1376.3259,-34.527 1394.4989,-24.5496"/>
<polygon fill="#191970" stroke="#191970" points="1396.3552,-27.5233 1403.4366,-19.6427 1392.9863,-21.3873 1396.3552,-27.5233"/>
</g>
<!-- Node8 -->
<g id="node9" class="node">
<title>Node8</title>
<polygon fill="#ffffff" stroke="#bfbfbf" points="1290.5,-.5 1290.5,-19.5 1347.5,-19.5 1347.5,-.5 1290.5,-.5"/>
<text text-anchor="middle" x="1319" y="-7.5" font-family="Helvetica,sans-Serif" font-size="10.00" fill="#000000">stdbool.h</text>
</g>
<!-- Node6&#45;&gt;Node8 -->
<g id="edge8" class="edge">
<title>Node6&#45;&gt;Node8</title>
<path fill="none" stroke="#191970" d="M1319,-56.2455C1319,-48.9382 1319,-38.6944 1319,-29.7046"/>
<polygon fill="#191970" stroke="#191970" points="1322.5001,-29.6426 1319,-19.6427 1315.5001,-29.6427 1322.5001,-29.6426"/>
</g>
<!-- Node9&#45;&gt;Node10 -->
<g id="edge10" class="edge">
<title>Node9&#45;&gt;Node10</title>
<path fill="none" stroke="#191970" d="M969.2905,-565.5299C958.6297,-563.7696 946.2395,-561.7537 935,-560 827.1265,-543.1683 790.7407,-570.5861 692,-524 658.4182,-508.156 647.6502,-500.6686 630,-468 612.3279,-435.2908 609.8803,-390.9048 610.1396,-365.6771"/>
<polygon fill="#191970" stroke="#191970" points="613.6419,-365.6329 610.4043,-355.5449 606.6443,-365.4501 613.6419,-365.6329"/>
</g>
<!-- Node19 -->
<g id="node20" class="node">
<title>Node19</title>
<g id="a_node20"><a xlink:href="def_8h.html" target="_top" xlink:title="lwip/def.h">
<polygon fill="#ffffff" stroke="#000000" points="873.5,-392.5 873.5,-411.5 932.5,-411.5 932.5,-392.5 873.5,-392.5"/>
<text text-anchor="middle" x="903" y="-399.5" font-family="Helvetica,sans-Serif" font-size="10.00" fill="#000000">lwip/def.h</text>
</a>
</g>
</g>
<!-- Node9&#45;&gt;Node19 -->
<g id="edge22" class="edge">
<title>Node9&#45;&gt;Node19</title>
<path fill="none" stroke="#191970" d="M995.1099,-560.3111C992.713,-538.526 984.5494,-484.7157 960,-448 951.8573,-435.8219 939.5,-425.2888 928.3705,-417.3865"/>
<polygon fill="#191970" stroke="#191970" points="930.0635,-414.3072 919.812,-411.6318 926.1575,-420.1162 930.0635,-414.3072"/>
</g>
<!-- Node20 -->
<g id="node21" class="node">
<title>Node20</title>
<g id="a_node21"><a xlink:href="pbuf_8h.html" target="_top" xlink:title="lwip/pbuf.h">
<polygon fill="#ffffff" stroke="#000000" points="639,-448.5 639,-467.5 703,-467.5 703,-448.5 639,-448.5"/>
<text text-anchor="middle" x="671" y="-455.5" font-family="Helvetica,sans-Serif" font-size="10.00" fill="#000000">lwip/pbuf.h</text>
</a>
</g>
</g>
<!-- Node9&#45;&gt;Node20 -->
<g id="edge25" class="edge">
<title>Node9&#45;&gt;Node20</title>
<path fill="none" stroke="#191970" d="M969.2852,-565.6126C899.5454,-554.157 717.3357,-524.2118 717,-524 699.3636,-512.8751 686.6529,-492.2787 679.1209,-477.0419"/>
<polygon fill="#191970" stroke="#191970" points="682.2936,-475.5639 674.9195,-467.9565 675.9401,-478.5021 682.2936,-475.5639"/>
</g>
<!-- Node21 -->
<g id="node22" class="node">
<title>Node21</title>
<g id="a_node22"><a xlink:href="err_8h.html" target="_top" xlink:title="lwip/err.h">
<polygon fill="#ffffff" stroke="#000000" points="702.5,-392.5 702.5,-411.5 759.5,-411.5 759.5,-392.5 702.5,-392.5"/>
<text text-anchor="middle" x="731" y="-399.5" font-family="Helvetica,sans-Serif" font-size="10.00" fill="#000000">lwip/err.h</text>
</a>
</g>
</g>
<!-- Node9&#45;&gt;Node21 -->
<g id="edge33" class="edge">
<title>Node9&#45;&gt;Node21</title>
<path fill="none" stroke="#191970" d="M969.2785,-564.7685C919.7355,-554.8992 817.4249,-533.6588 804,-524 768.0935,-498.1663 746.6848,-448.7147 737.0721,-421.3723"/>
<polygon fill="#191970" stroke="#191970" points="740.3491,-420.1355 733.8612,-411.7595 733.7097,-422.3532 740.3491,-420.1355"/>
</g>
<!-- Node22 -->
<g id="node23" class="node">
<title>Node22</title>
<g id="a_node23"><a xlink:href="esp-open-lwip_2include_2lwip_2ip__addr_8h.html" target="_top" xlink:title="lwip/ip_addr.h">
<polygon fill="#ffffff" stroke="#000000" points="873,-448.5 873,-467.5 951,-467.5 951,-448.5 873,-448.5"/>
<text text-anchor="middle" x="912" y="-455.5" font-family="Helvetica,sans-Serif" font-size="10.00" fill="#000000">lwip/ip_addr.h</text>
</a>
</g>
</g>
<!-- Node9&#45;&gt;Node22 -->
<g id="edge30" class="edge">
<title>Node9&#45;&gt;Node22</title>
<path fill="none" stroke="#191970" d="M988.8382,-560.4509C974.766,-541.688 943.3161,-499.7548 925.3185,-475.758"/>
<polygon fill="#191970" stroke="#191970" points="927.9437,-473.4249 919.1437,-467.5249 922.3437,-477.6249 927.9437,-473.4249"/>
</g>
<!-- Node9&#45;&gt;Node23 -->
<g id="edge34" class="edge">
<title>Node9&#45;&gt;Node23</title>
<path fill="none" stroke="#191970" d="M970.0422,-560.3733C945.2593,-551.1822 907.7254,-537.2624 880.246,-527.0713"/>
<polygon fill="#191970" stroke="#191970" points="881.2121,-523.6968 870.6191,-523.5011 878.7781,-530.26 881.2121,-523.6968"/>
</g>
<!-- Node11 -->
<g id="node12" class="node">
<title>Node11</title>
<g id="a_node12"><a xlink:href="lwipopts_8h.html" target="_top" xlink:title="lwipopts.h">
<polygon fill="#ffffff" stroke="#000000" points="580.5,-280.5 580.5,-299.5 641.5,-299.5 641.5,-280.5 580.5,-280.5"/>
<text text-anchor="middle" x="611" y="-287.5" font-family="Helvetica,sans-Serif" font-size="10.00" fill="#000000">lwipopts.h</text>
</a>
</g>
</g>
<!-- Node10&#45;&gt;Node11 -->
<g id="edge11" class="edge">
<title>Node10&#45;&gt;Node11</title>
<path fill="none" stroke="#191970" d="M611,-336.2455C611,-328.9382 611,-318.6944 611,-309.7046"/>
<polygon fill="#191970" stroke="#191970" points="614.5001,-309.6426 611,-299.6427 607.5001,-309.6427 614.5001,-309.6426"/>
</g>
<!-- Node12 -->
<g id="node13" class="node">
<title>Node12</title>
<g id="a_node13"><a xlink:href="esp-open-sdk_2esp-open-lwip_2include_2lwip_2debug_8h.html" target="_top" xlink:title="lwip/debug.h">
<polygon fill="#ffffff" stroke="#000000" points="711.5,-280.5 711.5,-299.5 784.5,-299.5 784.5,-280.5 711.5,-280.5"/>
<text text-anchor="middle" x="748" y="-287.5" font-family="Helvetica,sans-Serif" font-size="10.00" fill="#000000">lwip/debug.h</text>
</a>
</g>
</g>
<!-- Node10&#45;&gt;Node12 -->
<g id="edge12" class="edge">
<title>Node10&#45;&gt;Node12</title>
<path fill="none" stroke="#191970" d="M634.5511,-336.3733C656.8391,-327.2629 690.4937,-313.5062 715.3637,-303.3404"/>
<polygon fill="#191970" stroke="#191970" points="716.8239,-306.5247 724.7562,-299.5011 714.1753,-300.0451 716.8239,-306.5247"/>
</g>
<!-- Node13 -->
<g id="node14" class="node">
<title>Node13</title>
<g id="a_node14"><a xlink:href="arch_8h.html" target="_top" xlink:title="lwip/arch.h">
<polygon fill="#ffffff" stroke="#000000" points="839,-224.5 839,-243.5 903,-243.5 903,-224.5 839,-224.5"/>
<text text-anchor="middle" x="871" y="-231.5" font-family="Helvetica,sans-Serif" font-size="10.00" fill="#000000">lwip/arch.h</text>
</a>
</g>
</g>
<!-- Node12&#45;&gt;Node13 -->
<g id="edge13" class="edge">
<title>Node12&#45;&gt;Node13</title>
<path fill="none" stroke="#191970" d="M769.1445,-280.3733C788.8892,-271.3838 818.5698,-257.8706 840.8055,-247.7471"/>
<polygon fill="#191970" stroke="#191970" points="842.4806,-250.8302 850.1315,-243.5011 839.58,-244.4594 842.4806,-250.8302"/>
</g>
<!-- Node14 -->
<g id="node15" class="node">
<title>Node14</title>
<g id="a_node15"><a xlink:href="cc_8h.html" target="_top" xlink:title="arch/cc.h">
<polygon fill="#ffffff" stroke="#000000" points="1084.5,-168.5 1084.5,-187.5 1141.5,-187.5 1141.5,-168.5 1084.5,-168.5"/>
<text text-anchor="middle" x="1113" y="-175.5" font-family="Helvetica,sans-Serif" font-size="10.00" fill="#000000">arch/cc.h</text>
</a>
</g>
</g>
<!-- Node13&#45;&gt;Node14 -->
<g id="edge14" class="edge">
<title>Node13&#45;&gt;Node14</title>
<path fill="none" stroke="#191970" d="M903.1357,-226.5636C947.3355,-216.3356 1026.7931,-197.9487 1074.2352,-186.9704"/>
<polygon fill="#191970" stroke="#191970" points="1075.1813,-190.344 1084.1348,-184.6796 1073.6031,-183.5242 1075.1813,-190.344"/>
</g>
<!-- Node14&#45;&gt;Node6 -->
<g id="edge15" class="edge">
<title>Node14&#45;&gt;Node6</title>
<path fill="none" stroke="#191970" d="M1123.1249,-168.3373C1138.2044,-154.3622 1167.9182,-128.3921 1197,-112 1223.1705,-97.2488 1254.9948,-85.4294 1279.5774,-77.4664"/>
<polygon fill="#191970" stroke="#191970" points="1280.8111,-80.7472 1289.292,-74.3971 1278.7022,-74.0725 1280.8111,-80.7472"/>
</g>
<!-- Node14&#45;&gt;Node15 -->
<g id="edge16" class="edge">
<title>Node14&#45;&gt;Node15</title>
<path fill="none" stroke="#191970" d="M1133.9725,-168.3733C1153.5567,-159.3838 1182.9961,-145.8706 1205.051,-135.7471"/>
<polygon fill="#191970" stroke="#191970" points="1206.6729,-138.8538 1214.3011,-131.5011 1203.7527,-132.4919 1206.6729,-138.8538"/>
</g>
<!-- Node14&#45;&gt;Node17 -->
<g id="edge19" class="edge">
<title>Node14&#45;&gt;Node17</title>
<path fill="none" stroke="#191970" d="M1084.3865,-175.223C988.0941,-165.8774 675.9658,-135.5842 570.8895,-125.3862"/>
<polygon fill="#191970" stroke="#191970" points="571.1046,-121.8907 560.8132,-124.4082 570.4283,-128.8579 571.1046,-121.8907"/>
</g>
<!-- Node15&#45;&gt;Node6 -->
<g id="edge17" class="edge">
<title>Node15&#45;&gt;Node6</title>
<path fill="none" stroke="#191970" d="M1249.6317,-112.2455C1262.3994,-103.7337 1281.1438,-91.2375 1295.9299,-81.3801"/>
<polygon fill="#191970" stroke="#191970" points="1298.1569,-84.1019 1304.536,-75.6427 1294.274,-78.2775 1298.1569,-84.1019"/>
</g>
<!-- Node16 -->
<g id="node17" class="node">
<title>Node16</title>
<g id="a_node17"><a xlink:href="eagle__soc_8h.html" target="_top" xlink:title="eagle_soc.h">
<polygon fill="#ffffff" stroke="#000000" points="1200,-56.5 1200,-75.5 1270,-75.5 1270,-56.5 1200,-56.5"/>
<text text-anchor="middle" x="1235" y="-63.5" font-family="Helvetica,sans-Serif" font-size="10.00" fill="#000000">eagle_soc.h</text>
</a>
</g>
</g>
<!-- Node15&#45;&gt;Node16 -->
<g id="edge18" class="edge">
<title>Node15&#45;&gt;Node16</title>
<path fill="none" stroke="#191970" d="M1235,-112.2455C1235,-104.9382 1235,-94.6944 1235,-85.7046"/>
<polygon fill="#191970" stroke="#191970" points="1238.5001,-85.6426 1235,-75.6427 1231.5001,-85.6427 1238.5001,-85.6426"/>
</g>
<!-- Node17&#45;&gt;Node5 -->
<g id="edge20" class="edge">
<title>Node17&#45;&gt;Node5</title>
<path fill="none" stroke="#191970" d="M511.3041,-119.223C429.5708,-110.0321 167.6665,-80.581 72.7596,-69.9087"/>
<polygon fill="#191970" stroke="#191970" points="72.8791,-66.4002 62.5506,-68.7607 72.0968,-73.3563 72.8791,-66.4002"/>
</g>
<!-- Node18 -->
<g id="node19" class="node">
<title>Node18</title>
<polygon fill="#ffffff" stroke="#bfbfbf" points="729.5,-56.5 729.5,-75.5 806.5,-75.5 806.5,-56.5 729.5,-56.5"/>
<text text-anchor="middle" x="768" y="-63.5" font-family="Helvetica,sans-Serif" font-size="10.00" fill="#000000">user_config.h</text>
</g>
<!-- Node17&#45;&gt;Node18 -->
<g id="edge21" class="edge">
<title>Node17&#45;&gt;Node18</title>
<path fill="none" stroke="#191970" d="M560.8281,-116.007C598.4784,-106.919 670.7455,-89.4752 719.1759,-77.7851"/>
<polygon fill="#191970" stroke="#191970" points="720.228,-81.1318 729.1276,-75.383 718.5855,-74.3272 720.228,-81.1318"/>
</g>
<!-- Node19&#45;&gt;Node10 -->
<g id="edge24" class="edge">
<title>Node19&#45;&gt;Node10</title>
<path fill="none" stroke="#191970" d="M873.2131,-395.0604C868.4658,-394.0034 863.6033,-392.9496 859,-392 785.7287,-376.8847 699.8,-361.4567 650.7424,-352.8655"/>
<polygon fill="#191970" stroke="#191970" points="651.3045,-349.4108 640.8515,-351.1386 650.1005,-356.3065 651.3045,-349.4108"/>
</g>
<!-- Node19&#45;&gt;Node13 -->
<g id="edge23" class="edge">
<title>Node19&#45;&gt;Node13</title>
<path fill="none" stroke="#191970" d="M901.1879,-392.4862C896.1075,-365.8144 881.6499,-289.9117 874.7514,-253.695"/>
<polygon fill="#191970" stroke="#191970" points="878.1814,-252.9963 872.872,-243.8279 871.305,-254.3062 878.1814,-252.9963"/>
</g>
<!-- Node20&#45;&gt;Node10 -->
<g id="edge26" class="edge">
<title>Node20&#45;&gt;Node10</title>
<path fill="none" stroke="#191970" d="M665.8844,-448.4509C655.9214,-429.8533 633.7635,-388.4919 620.8552,-364.3964"/>
<polygon fill="#191970" stroke="#191970" points="623.9101,-362.6869 616.1026,-355.5249 617.7397,-365.9925 623.9101,-362.6869"/>
</g>
<!-- Node20&#45;&gt;Node21 -->
<g id="edge27" class="edge">
<title>Node20&#45;&gt;Node21</title>
<path fill="none" stroke="#191970" d="M681.4512,-448.2455C690.2269,-440.0549 702.9554,-428.1749 713.314,-418.5069"/>
<polygon fill="#191970" stroke="#191970" points="715.7461,-421.0246 720.6686,-411.6427 710.9699,-415.9072 715.7461,-421.0246"/>
</g>
<!-- Node21&#45;&gt;Node10 -->
<g id="edge28" class="edge">
<title>Node21&#45;&gt;Node10</title>
<path fill="none" stroke="#191970" d="M710.3713,-392.3733C691.1081,-383.3838 662.1514,-369.8706 640.4581,-359.7471"/>
<polygon fill="#191970" stroke="#191970" points="641.9015,-356.5584 631.3595,-355.5011 638.9413,-362.9017 641.9015,-356.5584"/>
</g>
<!-- Node21&#45;&gt;Node13 -->
<g id="edge29" class="edge">
<title>Node21&#45;&gt;Node13</title>
<path fill="none" stroke="#191970" d="M738.9281,-392.4862C761.5379,-365.3545 826.6002,-287.2798 856.1187,-251.8576"/>
<polygon fill="#191970" stroke="#191970" points="859.097,-253.7508 862.8101,-243.8279 853.7194,-249.2695 859.097,-253.7508"/>
</g>
<!-- Node22&#45;&gt;Node10 -->
<g id="edge31" class="edge">
<title>Node22&#45;&gt;Node10</title>
<path fill="none" stroke="#191970" d="M901.7091,-448.2873C885.7314,-433.7612 853.4101,-406.5343 821,-392 764.9993,-366.8864 694.2939,-355.056 650.8816,-349.8061"/>
<polygon fill="#191970" stroke="#191970" points="651.0579,-346.3034 640.7234,-348.638 650.2581,-353.2576 651.0579,-346.3034"/>
</g>
<!-- Node22&#45;&gt;Node19 -->
<g id="edge32" class="edge">
<title>Node22&#45;&gt;Node19</title>
<path fill="none" stroke="#191970" d="M910.4323,-448.2455C909.2579,-440.9382 907.6116,-430.6944 906.1668,-421.7046"/>
<polygon fill="#191970" stroke="#191970" points="909.5922,-420.9606 904.5497,-411.6427 902.6809,-422.0714 909.5922,-420.9606"/>
</g>
<!-- Node23&#45;&gt;Node10 -->
<g id="edge35" class="edge">
<title>Node23&#45;&gt;Node10</title>
<path fill="none" stroke="#191970" d="M841.7677,-504.4119C833.5059,-481.3822 809.3734,-422.5959 769,-392 734.333,-365.7285 685.0163,-354.4356 650.7366,-349.5971"/>
<polygon fill="#191970" stroke="#191970" points="650.9789,-346.0995 640.6137,-348.2933 650.0847,-353.0421 650.9789,-346.0995"/>
</g>
<!-- Node23&#45;&gt;Node19 -->
<g id="edge38" class="edge">
<title>Node23&#45;&gt;Node19</title>
<path fill="none" stroke="#191970" d="M846.5037,-504.112C848.8264,-490.7571 854.0909,-466.4989 864,-448 869.6359,-437.4785 877.9862,-427.2058 885.5157,-419.0467"/>
<polygon fill="#191970" stroke="#191970" points="888.2165,-421.2882 892.6407,-411.6612 883.1787,-416.428 888.2165,-421.2882"/>
</g>
<!-- Node23&#45;&gt;Node20 -->
<g id="edge39" class="edge">
<title>Node23&#45;&gt;Node20</title>
<path fill="none" stroke="#191970" d="M815.0883,-504.3733C786.1548,-495.0613 742.1389,-480.8953 710.3707,-470.671"/>
<polygon fill="#191970" stroke="#191970" points="711.1128,-467.2331 700.5213,-467.5011 708.9682,-473.8965 711.1128,-467.2331"/>
</g>
<!-- Node23&#45;&gt;Node21 -->
<g id="edge36" class="edge">
<title>Node23&#45;&gt;Node21</title>
<path fill="none" stroke="#191970" d="M833.5718,-504.4211C822.851,-495.3123 806.493,-481.0954 793,-468 776.5572,-452.0417 758.7404,-432.8612 746.4441,-419.3003"/>
<polygon fill="#191970" stroke="#191970" points="748.8565,-416.7491 739.5628,-411.662 743.6557,-421.4344 748.8565,-416.7491"/>
</g>
<!-- Node23&#45;&gt;Node22 -->
<g id="edge37" class="edge">
<title>Node23&#45;&gt;Node22</title>
<path fill="none" stroke="#191970" d="M856.6705,-504.2455C866.5661,-495.9746 880.9627,-483.9416 892.5901,-474.2232"/>
<polygon fill="#191970" stroke="#191970" points="895.035,-476.7413 900.4632,-467.6427 890.5458,-471.3703 895.035,-476.7413"/>
</g>
<!-- Node24&#45;&gt;Node10 -->
<g id="edge41" class="edge">
<title>Node24&#45;&gt;Node10</title>
<path fill="none" stroke="#191970" d="M296.0589,-504.3752C315.9509,-481.264 369.9963,-422.3106 428,-392 473.7796,-368.0773 532.5886,-356.1731 571.0099,-350.5578"/>
<polygon fill="#191970" stroke="#191970" points="571.8529,-353.9745 581.2783,-349.136 570.8928,-347.0407 571.8529,-353.9745"/>
</g>
<!-- Node25&#45;&gt;Node10 -->
<g id="edge43" class="edge">
<title>Node25&#45;&gt;Node10</title>
<path fill="none" stroke="#191970" d="M522.638,-392.2455C539.4386,-383.4527 564.3634,-370.4079 583.4618,-360.4125"/>
<polygon fill="#191970" stroke="#191970" points="585.3386,-363.3807 592.5756,-355.6427 582.0927,-357.1787 585.3386,-363.3807"/>
</g>
<!-- Node26&#45;&gt;Node10 -->
<g id="edge45" class="edge">
<title>Node26&#45;&gt;Node10</title>
<path fill="none" stroke="#191970" d="M578.1293,-504.4241C580.6652,-483.7351 587.3544,-433.3882 597,-392 599.0552,-383.1816 601.8821,-373.5778 604.4579,-365.4372"/>
<polygon fill="#191970" stroke="#191970" points="607.8383,-366.3603 607.6133,-355.7678 601.1836,-364.1887 607.8383,-366.3603"/>
</g>
<!-- Node27&#45;&gt;Node10 -->
<g id="edge48" class="edge">
<title>Node27&#45;&gt;Node10</title>
<path fill="none" stroke="#191970" d="M191.6617,-394.1947C196.4934,-393.4136 201.347,-392.6648 206,-392 339.5389,-372.9205 498.7652,-356.7496 571.3801,-349.7347"/>
<polygon fill="#191970" stroke="#191970" points="571.8326,-353.2074 581.452,-348.7669 571.163,-346.2395 571.8326,-353.2074"/>
</g>
<!-- Node28&#45;&gt;Node10 -->
<g id="edge50" class="edge">
<title>Node28&#45;&gt;Node10</title>
<path fill="none" stroke="#191970" d="M372.0303,-504.413C382.2067,-481.3855 411.213,-422.604 454,-392 488.9628,-366.9923 537.4583,-355.476 571.2662,-350.2394"/>
<polygon fill="#191970" stroke="#191970" points="571.8532,-353.6911 581.2555,-348.8079 570.8601,-346.7619 571.8532,-353.6911"/>
</g>
<!-- Node33&#45;&gt;Node18 -->
<g id="edge63" class="edge">
<title>Node33&#45;&gt;Node18</title>
<path fill="none" stroke="#191970" d="M1074.1871,-504.3636C1062.507,-496.0431 1046.6322,-483.0146 1037,-468 1020.4499,-442.2017 1017,-432.6506 1017,-402 1017,-402 1017,-402 1017,-178 1017,-134.4827 888.9057,-95.7735 816.4661,-77.3621"/>
<polygon fill="#191970" stroke="#191970" points="817.1837,-73.9338 806.633,-74.9005 815.4837,-80.7242 817.1837,-73.9338"/>
</g>
<!-- Node33&#45;&gt;Node22 -->
<g id="edge61" class="edge">
<title>Node33&#45;&gt;Node22</title>
<path fill="none" stroke="#191970" d="M1058.5726,-504.3733C1029.0128,-495.021 983.9774,-480.7725 951.6305,-470.5385"/>
<polygon fill="#191970" stroke="#191970" points="952.6203,-467.1807 942.0303,-467.5011 950.5087,-473.8546 952.6203,-467.1807"/>
</g>
<!-- Node33&#45;&gt;Node31 -->
<g id="edge65" class="edge">
<title>Node33&#45;&gt;Node31</title>
<path fill="none" stroke="#191970" d="M1118.224,-504.3733C1148.634,-494.3559 1196.0969,-478.721 1227.3708,-468.419"/>
<polygon fill="#191970" stroke="#191970" points="1228.5108,-471.7286 1236.9137,-465.2755 1226.3207,-465.08 1228.5108,-471.7286"/>
</g>
<!-- Node34 -->
<g id="node35" class="node">
<title>Node34</title>
<g id="a_node35"><a xlink:href="os__type_8h.html" target="_top" xlink:title="os_type.h">
<polygon fill="#ffffff" stroke="#000000" points="1179,-336.5 1179,-355.5 1239,-355.5 1239,-336.5 1179,-336.5"/>
<text text-anchor="middle" x="1209" y="-343.5" font-family="Helvetica,sans-Serif" font-size="10.00" fill="#000000">os_type.h</text>
</a>
</g>
</g>
<!-- Node33&#45;&gt;Node34 -->
<g id="edge59" class="edge">
<title>Node33&#45;&gt;Node34</title>
<path fill="none" stroke="#191970" d="M1132.3971,-504.4432C1152.9608,-497.6797 1176.0265,-486.421 1190,-468 1212.6828,-438.0977 1213.2259,-392.0293 1211.3033,-365.8959"/>
<polygon fill="#191970" stroke="#191970" points="1214.7678,-365.3512 1210.3516,-355.7207 1207.7982,-366.0032 1214.7678,-365.3512"/>
</g>
<!-- Node35 -->
<g id="node36" class="node">
<title>Node35</title>
<g id="a_node36"><a xlink:href="esp-open-sdk_2sdk_2include_2queue_8h.html" target="_top" xlink:title="queue.h">
<polygon fill="#ffffff" stroke="#000000" points="1045.5,-448.5 1045.5,-467.5 1098.5,-467.5 1098.5,-448.5 1045.5,-448.5"/>
<text text-anchor="middle" x="1072" y="-455.5" font-family="Helvetica,sans-Serif" font-size="10.00" fill="#000000">queue.h</text>
</a>
</g>
</g>
<!-- Node33&#45;&gt;Node35 -->
<g id="edge62" class="edge">
<title>Node33&#45;&gt;Node35</title>
<path fill="none" stroke="#191970" d="M1086.0388,-504.2455C1083.7962,-496.8579 1080.6423,-486.4689 1077.8919,-477.4087"/>
<polygon fill="#191970" stroke="#191970" points="1081.1812,-476.1948 1074.9272,-467.6427 1074.483,-478.2282 1081.1812,-476.1948"/>
</g>
<!-- Node36 -->
<g id="node37" class="node">
<title>Node36</title>
<g id="a_node37"><a xlink:href="spi__flash_8h.html" target="_top" xlink:title="spi_flash.h">
<polygon fill="#ffffff" stroke="#000000" points="1117,-448.5 1117,-467.5 1181,-467.5 1181,-448.5 1117,-448.5"/>
<text text-anchor="middle" x="1149" y="-455.5" font-family="Helvetica,sans-Serif" font-size="10.00" fill="#000000">spi_flash.h</text>
</a>
</g>
</g>
<!-- Node33&#45;&gt;Node36 -->
<g id="edge64" class="edge">
<title>Node33&#45;&gt;Node36</title>
<path fill="none" stroke="#191970" d="M1099.4512,-504.2455C1108.2269,-496.0549 1120.9554,-484.1749 1131.314,-474.5069"/>
<polygon fill="#191970" stroke="#191970" points="1133.7461,-477.0246 1138.6686,-467.6427 1128.9699,-471.9072 1133.7461,-477.0246"/>
</g>
<!-- Node34&#45;&gt;Node15 -->
<g id="edge60" class="edge">
<title>Node34&#45;&gt;Node15</title>
<path fill="none" stroke="#191970" d="M1210.1172,-336.375C1214.0592,-302.4133 1227.3686,-187.7472 1232.7321,-141.5392"/>
<polygon fill="#191970" stroke="#191970" points="1236.2106,-141.926 1233.887,-131.5891 1229.2573,-141.1189 1236.2106,-141.926"/>
</g>
<!-- Node39&#45;&gt;Node6 -->
<g id="edge70" class="edge">
<title>Node39&#45;&gt;Node6</title>
<path fill="none" stroke="#191970" d="M1329.9769,-168.4509C1328.0197,-150.184 1323.7095,-109.9553 1321.1105,-85.6976"/>
<polygon fill="#191970" stroke="#191970" points="1324.566,-85.0951 1320.0205,-75.5249 1317.6059,-85.8409 1324.566,-85.0951"/>
</g>
<!-- Node39&#45;&gt;Node7 -->
<g id="edge69" class="edge">
<title>Node39&#45;&gt;Node7</title>
<path fill="none" stroke="#191970" d="M1336.0967,-168.4862C1350.5083,-141.5845 1391.7503,-64.5994 1410.9461,-28.7673"/>
<polygon fill="#191970" stroke="#191970" points="1414.098,-30.2955 1415.7351,-19.8279 1407.9276,-26.9899 1414.098,-30.2955"/>
</g>
<!-- Node39&#45;&gt;Node15 -->
<g id="edge72" class="edge">
<title>Node39&#45;&gt;Node15</title>
<path fill="none" stroke="#191970" d="M1314.2781,-168.2455C1299.4111,-159.5731 1277.4534,-146.7645 1260.4142,-136.825"/>
<polygon fill="#191970" stroke="#191970" points="1261.9317,-133.6582 1251.5303,-131.6427 1258.4045,-139.7047 1261.9317,-133.6582"/>
</g>
<!-- Node39&#45;&gt;Node16 -->
<g id="edge71" class="edge">
<title>Node39&#45;&gt;Node16</title>
<path fill="none" stroke="#191970" d="M1322.8151,-168.4509C1306.5909,-149.5227 1270.1549,-107.014 1249.6811,-83.1279"/>
<polygon fill="#191970" stroke="#191970" points="1252.3295,-80.8397 1243.1642,-75.5249 1247.0147,-85.3953 1252.3295,-80.8397"/>
</g>
<!-- Node40&#45;&gt;Node1 -->
<g id="edge76" class="edge">
<title>Node40&#45;&gt;Node1</title>
<path fill="none" stroke="#191970" d="M790.8521,-672.2455C781.4913,-664.0549 767.9142,-652.1749 756.8651,-642.5069"/>
<polygon fill="#191970" stroke="#191970" points="758.8508,-639.5937 749.0202,-635.6427 754.2412,-644.8618 758.8508,-639.5937"/>
</g>
<!-- Node40&#45;&gt;Node7 -->
<g id="edge77" class="edge">
<title>Node40&#45;&gt;Node7</title>
<path fill="none" stroke="#191970" d="M837.9279,-679.6568C974.4029,-670.2846 1453,-632.9314 1453,-570 1453,-570 1453,-570 1453,-122 1453,-88.132 1439.3045,-50.643 1429.8328,-28.7657"/>
<polygon fill="#191970" stroke="#191970" points="1433.0149,-27.3077 1425.7217,-19.6226 1426.6305,-30.1784 1433.0149,-27.3077"/>
</g>
</g>
</svg>
