<?xml version="1.0" encoding="UTF-8" standalone="no"?>
<!DOCTYPE svg PUBLIC "-//W3C//DTD SVG 1.1//EN"
 "http://www.w3.org/Graphics/SVG/1.1/DTD/svg11.dtd">
<!-- Generated by graphviz version 2.41.20170323.1842 (20170323.1842)
 -->
<!-- Title: user/crypto/aes.c Pages: 1 -->
<svg width="980pt" height="700pt"
 viewBox="0.00 0.00 980.00 700.00" xmlns="http://www.w3.org/2000/svg" xmlns:xlink="http://www.w3.org/1999/xlink">
<g id="graph0" class="graph" transform="scale(1 1) rotate(0) translate(4 696)">
<title>user/crypto/aes.c</title>
<polygon fill="#ffffff" stroke="transparent" points="-4,4 -4,-696 976,-696 976,4 -4,4"/>
<!-- Node0 -->
<g id="node1" class="node">
<title>Node0</title>
<polygon fill="#bfbfbf" stroke="#000000" points="525.5,-672.5 525.5,-691.5 618.5,-691.5 618.5,-672.5 525.5,-672.5"/>
<text text-anchor="middle" x="572" y="-679.5" font-family="Helvetica,sans-Serif" font-size="10.00" fill="#000000">user/crypto/aes.c</text>
</g>
<!-- Node1 -->
<g id="node2" class="node">
<title>Node1</title>
<g id="a_node2"><a xlink:href="esp8266_8h.html" target="_top" xlink:title="esp8266.h">
<polygon fill="#ffffff" stroke="#000000" points="508.5,-560.5 508.5,-579.5 571.5,-579.5 571.5,-560.5 508.5,-560.5"/>
<text text-anchor="middle" x="540" y="-567.5" font-family="Helvetica,sans-Serif" font-size="10.00" fill="#000000">esp8266.h</text>
</a>
</g>
</g>
<!-- Node0&#45;&gt;Node1 -->
<g id="edge1" class="edge">
<title>Node0&#45;&gt;Node1</title>
<path fill="none" stroke="#191970" d="M569.2717,-672.4509C564.0289,-654.1013 552.4545,-613.5908 545.5341,-589.3693"/>
<polygon fill="#191970" stroke="#191970" points="548.834,-588.1786 542.7214,-579.5249 542.1033,-590.1017 548.834,-588.1786"/>
</g>
<!-- Node5 -->
<g id="node6" class="node">
<title>Node5</title>
<polygon fill="#ffffff" stroke="#bfbfbf" points="13.5,-56.5 13.5,-75.5 62.5,-75.5 62.5,-56.5 13.5,-56.5"/>
<text text-anchor="middle" x="38" y="-63.5" font-family="Helvetica,sans-Serif" font-size="10.00" fill="#000000">string.h</text>
</g>
<!-- Node0&#45;&gt;Node5 -->
<g id="edge39" class="edge">
<title>Node0&#45;&gt;Node5</title>
<path fill="none" stroke="#191970" d="M525.1908,-677.7826C388.5805,-664.8515 0,-623.3784 0,-570 0,-570 0,-570 0,-178 0,-143.6118 16.2634,-106.2832 27.511,-84.5791"/>
<polygon fill="#191970" stroke="#191970" points="30.7317,-85.9804 32.393,-75.5166 24.569,-82.6605 30.7317,-85.9804"/>
</g>
<!-- Node7 -->
<g id="node8" class="node">
<title>Node7</title>
<polygon fill="#ffffff" stroke="#bfbfbf" points="909.5,-.5 909.5,-19.5 958.5,-19.5 958.5,-.5 909.5,-.5"/>
<text text-anchor="middle" x="934" y="-7.5" font-family="Helvetica,sans-Serif" font-size="10.00" fill="#000000">stdint.h</text>
</g>
<!-- Node0&#45;&gt;Node7 -->
<g id="edge38" class="edge">
<title>Node0&#45;&gt;Node7</title>
<path fill="none" stroke="#191970" d="M618.6679,-678.8118C724.1835,-670.3242 972,-642.6562 972,-570 972,-570 972,-570 972,-122 972,-87.6118 955.7366,-50.2832 944.489,-28.5791"/>
<polygon fill="#191970" stroke="#191970" points="947.431,-26.6605 939.607,-19.5166 941.2683,-29.9804 947.431,-26.6605"/>
</g>
<!-- Node28 -->
<g id="node29" class="node">
<title>Node28</title>
<g id="a_node29"><a xlink:href="aes_8h.html" target="_top" xlink:title="crypto/aes.h">
<polygon fill="#ffffff" stroke="#000000" points="568.5,-616.5 568.5,-635.5 639.5,-635.5 639.5,-616.5 568.5,-616.5"/>
<text text-anchor="middle" x="604" y="-623.5" font-family="Helvetica,sans-Serif" font-size="10.00" fill="#000000">crypto/aes.h</text>
</a>
</g>
</g>
<!-- Node0&#45;&gt;Node28 -->
<g id="edge40" class="edge">
<title>Node0&#45;&gt;Node28</title>
<path fill="none" stroke="#191970" d="M577.574,-672.2455C581.9331,-664.617 588.1211,-653.7881 593.4133,-644.5267"/>
<polygon fill="#191970" stroke="#191970" points="596.5673,-646.0616 598.4899,-635.6427 590.4896,-642.5886 596.5673,-646.0616"/>
</g>
<!-- Node2 -->
<g id="node3" class="node">
<title>Node2</title>
<polygon fill="#ffffff" stroke="#bfbfbf" points="424.5,-504.5 424.5,-523.5 473.5,-523.5 473.5,-504.5 424.5,-504.5"/>
<text text-anchor="middle" x="449" y="-511.5" font-family="Helvetica,sans-Serif" font-size="10.00" fill="#000000">ctype.h</text>
</g>
<!-- Node1&#45;&gt;Node2 -->
<g id="edge2" class="edge">
<title>Node1&#45;&gt;Node2</title>
<path fill="none" stroke="#191970" d="M524.149,-560.2455C510.1868,-551.6534 489.6272,-539.0014 473.5404,-529.1018"/>
<polygon fill="#191970" stroke="#191970" points="475.0203,-525.9029 464.6693,-523.6427 471.3516,-531.8645 475.0203,-525.9029"/>
</g>
<!-- Node3 -->
<g id="node4" class="node">
<title>Node3</title>
<polygon fill="#ffffff" stroke="#bfbfbf" points="794,-504.5 794,-523.5 840,-523.5 840,-504.5 794,-504.5"/>
<text text-anchor="middle" x="817" y="-511.5" font-family="Helvetica,sans-Serif" font-size="10.00" fill="#000000">stdio.h</text>
</g>
<!-- Node1&#45;&gt;Node3 -->
<g id="edge3" class="edge">
<title>Node1&#45;&gt;Node3</title>
<path fill="none" stroke="#191970" d="M571.5815,-565.286C616.6603,-558.2946 702.1819,-544.0594 783.7465,-524.0999"/>
<polygon fill="#191970" stroke="#191970" points="784.808,-527.4427 793.6708,-521.6375 783.1223,-520.6487 784.808,-527.4427"/>
</g>
<!-- Node4 -->
<g id="node5" class="node">
<title>Node4</title>
<polygon fill="#ffffff" stroke="#bfbfbf" points="858,-504.5 858,-523.5 906,-523.5 906,-504.5 858,-504.5"/>
<text text-anchor="middle" x="882" y="-511.5" font-family="Helvetica,sans-Serif" font-size="10.00" fill="#000000">stdlib.h</text>
</g>
<!-- Node1&#45;&gt;Node4 -->
<g id="edge4" class="edge">
<title>Node1&#45;&gt;Node4</title>
<path fill="none" stroke="#191970" d="M571.8656,-566.8143C626.5191,-561.016 741.7327,-547.3331 848.0307,-523.9485"/>
<polygon fill="#191970" stroke="#191970" points="848.962,-527.3268 857.9579,-521.73 847.4353,-520.4953 848.962,-527.3268"/>
</g>
<!-- Node1&#45;&gt;Node5 -->
<g id="edge5" class="edge">
<title>Node1&#45;&gt;Node5</title>
<path fill="none" stroke="#191970" d="M508.2218,-569.1224C421.4443,-566.3297 182.187,-555.8713 111,-524 71.0795,-506.1271 38,-501.7388 38,-458 38,-458 38,-458 38,-178 38,-145.7116 38,-108.1872 38,-85.8048"/>
<polygon fill="#191970" stroke="#191970" points="41.5001,-85.5883 38,-75.5884 34.5001,-85.5884 41.5001,-85.5883"/>
</g>
<!-- Node6 -->
<g id="node7" class="node">
<title>Node6</title>
<g id="a_node7"><a xlink:href="c__types_8h.html" target="_top" xlink:title="c_types.h">
<polygon fill="#ffffff" stroke="#000000" points="500.5,-56.5 500.5,-75.5 559.5,-75.5 559.5,-56.5 500.5,-56.5"/>
<text text-anchor="middle" x="530" y="-63.5" font-family="Helvetica,sans-Serif" font-size="10.00" fill="#000000">c_types.h</text>
</a>
</g>
</g>
<!-- Node1&#45;&gt;Node6 -->
<g id="edge6" class="edge">
<title>Node1&#45;&gt;Node6</title>
<path fill="none" stroke="#191970" d="M540,-560.4116C540,-541.0538 540,-495.9167 540,-458 540,-458 540,-458 540,-178 540,-145.5831 535.7925,-108.0969 532.8359,-85.7572"/>
<polygon fill="#191970" stroke="#191970" points="536.2637,-84.992 531.4328,-75.5627 529.3291,-85.9466 536.2637,-84.992"/>
</g>
<!-- Node9 -->
<g id="node10" class="node">
<title>Node9</title>
<g id="a_node10"><a xlink:href="ets__sys_8h.html" target="_top" xlink:title="ets_sys.h">
<polygon fill="#ffffff" stroke="#000000" points="410.5,-112.5 410.5,-131.5 469.5,-131.5 469.5,-112.5 410.5,-112.5"/>
<text text-anchor="middle" x="440" y="-119.5" font-family="Helvetica,sans-Serif" font-size="10.00" fill="#000000">ets_sys.h</text>
</a>
</g>
</g>
<!-- Node1&#45;&gt;Node9 -->
<g id="edge9" class="edge">
<title>Node1&#45;&gt;Node9</title>
<path fill="none" stroke="#191970" d="M534.393,-560.4834C523.8226,-541.6141 502,-497.8343 502,-458 502,-458 502,-458 502,-234 502,-196.5249 475.1023,-159.8272 456.7398,-139.1407"/>
<polygon fill="#191970" stroke="#191970" points="459.3118,-136.7669 449.9614,-131.7848 454.164,-141.5104 459.3118,-136.7669"/>
</g>
<!-- Node11 -->
<g id="node12" class="node">
<title>Node11</title>
<g id="a_node12"><a xlink:href="gpio_8h.html" target="_top" xlink:title="gpio.h">
<polygon fill="#ffffff" stroke="#000000" points="104,-448.5 104,-467.5 148,-467.5 148,-448.5 104,-448.5"/>
<text text-anchor="middle" x="126" y="-455.5" font-family="Helvetica,sans-Serif" font-size="10.00" fill="#000000">gpio.h</text>
</a>
</g>
</g>
<!-- Node1&#45;&gt;Node11 -->
<g id="edge12" class="edge">
<title>Node1&#45;&gt;Node11</title>
<path fill="none" stroke="#191970" d="M508.326,-567.0561C439.6348,-560.3931 279.0437,-543.233 228,-524 196.5364,-512.1447 164.7068,-489.4624 145.167,-474.0338"/>
<polygon fill="#191970" stroke="#191970" points="147.3213,-471.2748 137.3408,-467.7195 142.9258,-476.7227 147.3213,-471.2748"/>
</g>
<!-- Node12 -->
<g id="node13" class="node">
<title>Node12</title>
<g id="a_node13"><a xlink:href="sdk_2include_2mem_8h.html" target="_top" xlink:title="mem.h">
<polygon fill="#ffffff" stroke="#000000" points="568.5,-504.5 568.5,-523.5 615.5,-523.5 615.5,-504.5 568.5,-504.5"/>
<text text-anchor="middle" x="592" y="-511.5" font-family="Helvetica,sans-Serif" font-size="10.00" fill="#000000">mem.h</text>
</a>
</g>
</g>
<!-- Node1&#45;&gt;Node12 -->
<g id="edge13" class="edge">
<title>Node1&#45;&gt;Node12</title>
<path fill="none" stroke="#191970" d="M549.0577,-560.2455C556.5142,-552.2155 567.2634,-540.6394 576.1417,-531.0781"/>
<polygon fill="#191970" stroke="#191970" points="578.8063,-533.3522 583.0461,-523.6427 573.6768,-528.589 578.8063,-533.3522"/>
</g>
<!-- Node13 -->
<g id="node14" class="node">
<title>Node13</title>
<g id="a_node14"><a xlink:href="osapi_8h.html" target="_top" xlink:title="osapi.h">
<polygon fill="#ffffff" stroke="#000000" points="82.5,-112.5 82.5,-131.5 131.5,-131.5 131.5,-112.5 82.5,-112.5"/>
<text text-anchor="middle" x="107" y="-119.5" font-family="Helvetica,sans-Serif" font-size="10.00" fill="#000000">osapi.h</text>
</a>
</g>
</g>
<!-- Node1&#45;&gt;Node13 -->
<g id="edge14" class="edge">
<title>Node1&#45;&gt;Node13</title>
<path fill="none" stroke="#191970" d="M508.4722,-569.1694C404.0382,-565.5754 76,-547.1878 76,-458 76,-458 76,-458 76,-234 76,-200.3636 89.1477,-163.0368 98.3184,-141.0922"/>
<polygon fill="#191970" stroke="#191970" points="101.6509,-142.2051 102.4258,-131.6387 95.2307,-139.4156 101.6509,-142.2051"/>
</g>
<!-- Node15 -->
<g id="node16" class="node">
<title>Node15</title>
<g id="a_node16"><a xlink:href="user__interface_8h.html" target="_top" xlink:title="user_interface.h">
<polygon fill="#ffffff" stroke="#000000" points="237,-504.5 237,-523.5 325,-523.5 325,-504.5 237,-504.5"/>
<text text-anchor="middle" x="281" y="-511.5" font-family="Helvetica,sans-Serif" font-size="10.00" fill="#000000">user_interface.h</text>
</a>
</g>
</g>
<!-- Node1&#45;&gt;Node15 -->
<g id="edge17" class="edge">
<title>Node1&#45;&gt;Node15</title>
<path fill="none" stroke="#191970" d="M508.2415,-563.1333C465.0954,-553.8044 387.3417,-536.9928 334.953,-525.6655"/>
<polygon fill="#191970" stroke="#191970" points="335.6698,-522.2397 325.1559,-523.5472 334.1904,-529.0816 335.6698,-522.2397"/>
</g>
<!-- Node26 -->
<g id="node27" class="node">
<title>Node26</title>
<g id="a_node27"><a xlink:href="upgrade_8h.html" target="_top" xlink:title="upgrade.h">
<polygon fill="#ffffff" stroke="#000000" points="634,-504.5 634,-523.5 696,-523.5 696,-504.5 634,-504.5"/>
<text text-anchor="middle" x="665" y="-511.5" font-family="Helvetica,sans-Serif" font-size="10.00" fill="#000000">upgrade.h</text>
</a>
</g>
</g>
<!-- Node1&#45;&gt;Node26 -->
<g id="edge36" class="edge">
<title>Node1&#45;&gt;Node26</title>
<path fill="none" stroke="#191970" d="M561.4883,-560.3733C581.644,-551.3435 611.988,-537.7494 634.618,-527.6111"/>
<polygon fill="#191970" stroke="#191970" points="636.0971,-530.7838 643.7921,-523.5011 633.2351,-524.3955 636.0971,-530.7838"/>
</g>
<!-- Node27 -->
<g id="node28" class="node">
<title>Node27</title>
<g id="a_node28"><a xlink:href="platform_8h.html" target="_top" xlink:title="platform.h">
<polygon fill="#ffffff" stroke="#000000" points="714.5,-504.5 714.5,-523.5 775.5,-523.5 775.5,-504.5 714.5,-504.5"/>
<text text-anchor="middle" x="745" y="-511.5" font-family="Helvetica,sans-Serif" font-size="10.00" fill="#000000">platform.h</text>
</a>
</g>
</g>
<!-- Node1&#45;&gt;Node27 -->
<g id="edge37" class="edge">
<title>Node1&#45;&gt;Node27</title>
<path fill="none" stroke="#191970" d="M571.582,-561.3727C607.2545,-551.6281 665.4047,-535.7431 704.4169,-525.0861"/>
<polygon fill="#191970" stroke="#191970" points="705.6631,-528.374 714.3873,-522.3625 703.8184,-521.6214 705.6631,-528.374"/>
</g>
<!-- Node6&#45;&gt;Node7 -->
<g id="edge7" class="edge">
<title>Node6&#45;&gt;Node7</title>
<path fill="none" stroke="#191970" d="M559.7071,-61.8822C632.7162,-51.7621 820.6611,-25.7103 898.953,-14.858"/>
<polygon fill="#191970" stroke="#191970" points="899.8245,-18.2707 909.2492,-13.4308 898.8634,-11.337 899.8245,-18.2707"/>
</g>
<!-- Node8 -->
<g id="node9" class="node">
<title>Node8</title>
<polygon fill="#ffffff" stroke="#bfbfbf" points="501.5,-.5 501.5,-19.5 558.5,-19.5 558.5,-.5 501.5,-.5"/>
<text text-anchor="middle" x="530" y="-7.5" font-family="Helvetica,sans-Serif" font-size="10.00" fill="#000000">stdbool.h</text>
</g>
<!-- Node6&#45;&gt;Node8 -->
<g id="edge8" class="edge">
<title>Node6&#45;&gt;Node8</title>
<path fill="none" stroke="#191970" d="M530,-56.2455C530,-48.9382 530,-38.6944 530,-29.7046"/>
<polygon fill="#191970" stroke="#191970" points="533.5001,-29.6426 530,-19.6427 526.5001,-29.6427 533.5001,-29.6426"/>
</g>
<!-- Node9&#45;&gt;Node6 -->
<g id="edge10" class="edge">
<title>Node9&#45;&gt;Node6</title>
<path fill="none" stroke="#191970" d="M455.6768,-112.2455C469.4856,-103.6534 489.8193,-91.0014 505.7292,-81.1018"/>
<polygon fill="#191970" stroke="#191970" points="507.8613,-83.8974 514.5028,-75.6427 504.1632,-77.954 507.8613,-83.8974"/>
</g>
<!-- Node10 -->
<g id="node11" class="node">
<title>Node10</title>
<g id="a_node11"><a xlink:href="eagle__soc_8h.html" target="_top" xlink:title="eagle_soc.h">
<polygon fill="#ffffff" stroke="#000000" points="405,-56.5 405,-75.5 475,-75.5 475,-56.5 405,-56.5"/>
<text text-anchor="middle" x="440" y="-63.5" font-family="Helvetica,sans-Serif" font-size="10.00" fill="#000000">eagle_soc.h</text>
</a>
</g>
</g>
<!-- Node9&#45;&gt;Node10 -->
<g id="edge11" class="edge">
<title>Node9&#45;&gt;Node10</title>
<path fill="none" stroke="#191970" d="M440,-112.2455C440,-104.9382 440,-94.6944 440,-85.7046"/>
<polygon fill="#191970" stroke="#191970" points="443.5001,-85.6426 440,-75.6427 436.5001,-85.6427 443.5001,-85.6426"/>
</g>
<!-- Node13&#45;&gt;Node5 -->
<g id="edge15" class="edge">
<title>Node13&#45;&gt;Node5</title>
<path fill="none" stroke="#191970" d="M94.9811,-112.2455C84.7902,-103.9746 69.9638,-91.9416 57.9893,-82.2232"/>
<polygon fill="#191970" stroke="#191970" points="59.8514,-79.2268 49.8812,-75.6427 55.4402,-84.662 59.8514,-79.2268"/>
</g>
<!-- Node14 -->
<g id="node15" class="node">
<title>Node14</title>
<polygon fill="#ffffff" stroke="#bfbfbf" points="108.5,-56.5 108.5,-75.5 185.5,-75.5 185.5,-56.5 108.5,-56.5"/>
<text text-anchor="middle" x="147" y="-63.5" font-family="Helvetica,sans-Serif" font-size="10.00" fill="#000000">user_config.h</text>
</g>
<!-- Node13&#45;&gt;Node14 -->
<g id="edge16" class="edge">
<title>Node13&#45;&gt;Node14</title>
<path fill="none" stroke="#191970" d="M113.9675,-112.2455C119.5311,-104.4564 127.478,-93.3308 134.1829,-83.9439"/>
<polygon fill="#191970" stroke="#191970" points="137.148,-85.8144 140.1124,-75.6427 131.4519,-81.7457 137.148,-85.8144"/>
</g>
<!-- Node15&#45;&gt;Node11 -->
<g id="edge35" class="edge">
<title>Node15&#45;&gt;Node11</title>
<path fill="none" stroke="#191970" d="M254.3546,-504.3733C227.5647,-494.6944 186.2597,-479.7712 157.7783,-469.4812"/>
<polygon fill="#191970" stroke="#191970" points="158.8781,-466.1572 148.2838,-466.0509 156.4995,-472.7407 158.8781,-466.1572"/>
</g>
<!-- Node15&#45;&gt;Node14 -->
<g id="edge33" class="edge">
<title>Node15&#45;&gt;Node14</title>
<path fill="none" stroke="#191970" d="M265.9141,-504.3493C253.3961,-495.833 235.6591,-482.539 223,-468 184.2947,-423.5469 171,-404.9421 171,-346 171,-346 171,-346 171,-178 171,-144.8465 160.8211,-107.3737 153.7212,-85.2684"/>
<polygon fill="#191970" stroke="#191970" points="157.0264,-84.1157 150.5413,-75.7375 150.3862,-86.3312 157.0264,-84.1157"/>
</g>
<!-- Node16 -->
<g id="node17" class="node">
<title>Node16</title>
<g id="a_node17"><a xlink:href="os__type_8h.html" target="_top" xlink:title="os_type.h">
<polygon fill="#ffffff" stroke="#000000" points="199,-392.5 199,-411.5 259,-411.5 259,-392.5 199,-392.5"/>
<text text-anchor="middle" x="229" y="-399.5" font-family="Helvetica,sans-Serif" font-size="10.00" fill="#000000">os_type.h</text>
</a>
</g>
</g>
<!-- Node15&#45;&gt;Node16 -->
<g id="edge18" class="edge">
<title>Node15&#45;&gt;Node16</title>
<path fill="none" stroke="#191970" d="M265.9507,-504.2898C254.6967,-496.1035 240.0801,-483.2921 233,-468 226.3684,-453.6766 225.7067,-435.6995 226.515,-422.1258"/>
<polygon fill="#191970" stroke="#191970" points="230.0215,-422.2121 227.4409,-411.9363 223.0502,-421.5785 230.0215,-422.2121"/>
</g>
<!-- Node17 -->
<g id="node18" class="node">
<title>Node17</title>
<g id="a_node18"><a xlink:href="esp-open-lwip_2include_2lwip_2ip__addr_8h.html" target="_top" xlink:title="lwip/ip_addr.h">
<polygon fill="#ffffff" stroke="#000000" points="242,-448.5 242,-467.5 320,-467.5 320,-448.5 242,-448.5"/>
<text text-anchor="middle" x="281" y="-455.5" font-family="Helvetica,sans-Serif" font-size="10.00" fill="#000000">lwip/ip_addr.h</text>
</a>
</g>
</g>
<!-- Node15&#45;&gt;Node17 -->
<g id="edge20" class="edge">
<title>Node15&#45;&gt;Node17</title>
<path fill="none" stroke="#191970" d="M281,-504.2455C281,-496.9382 281,-486.6944 281,-477.7046"/>
<polygon fill="#191970" stroke="#191970" points="284.5001,-477.6426 281,-467.6427 277.5001,-477.6427 284.5001,-477.6426"/>
</g>
<!-- Node24 -->
<g id="node25" class="node">
<title>Node24</title>
<g id="a_node25"><a xlink:href="esp-open-sdk_2sdk_2include_2queue_8h.html" target="_top" xlink:title="queue.h">
<polygon fill="#ffffff" stroke="#000000" points="338.5,-448.5 338.5,-467.5 391.5,-467.5 391.5,-448.5 338.5,-448.5"/>
<text text-anchor="middle" x="365" y="-455.5" font-family="Helvetica,sans-Serif" font-size="10.00" fill="#000000">queue.h</text>
</a>
</g>
</g>
<!-- Node15&#45;&gt;Node24 -->
<g id="edge32" class="edge">
<title>Node15&#45;&gt;Node24</title>
<path fill="none" stroke="#191970" d="M295.6317,-504.2455C308.3994,-495.7337 327.1438,-483.2375 341.9299,-473.3801"/>
<polygon fill="#191970" stroke="#191970" points="344.1569,-476.1019 350.536,-467.6427 340.274,-470.2775 344.1569,-476.1019"/>
</g>
<!-- Node25 -->
<g id="node26" class="node">
<title>Node25</title>
<g id="a_node26"><a xlink:href="spi__flash_8h.html" target="_top" xlink:title="spi_flash.h">
<polygon fill="#ffffff" stroke="#000000" points="410,-448.5 410,-467.5 474,-467.5 474,-448.5 410,-448.5"/>
<text text-anchor="middle" x="442" y="-455.5" font-family="Helvetica,sans-Serif" font-size="10.00" fill="#000000">spi_flash.h</text>
</a>
</g>
</g>
<!-- Node15&#45;&gt;Node25 -->
<g id="edge34" class="edge">
<title>Node15&#45;&gt;Node25</title>
<path fill="none" stroke="#191970" d="M308.6769,-504.3733C335.3328,-495.1016 375.8238,-481.0178 405.1884,-470.804"/>
<polygon fill="#191970" stroke="#191970" points="406.3891,-474.0921 414.6843,-467.5011 404.0895,-467.4807 406.3891,-474.0921"/>
</g>
<!-- Node16&#45;&gt;Node9 -->
<g id="edge19" class="edge">
<title>Node16&#45;&gt;Node9</title>
<path fill="none" stroke="#191970" d="M231.1491,-392.4693C235.2968,-373.2151 244,-328.2552 244,-290 244,-290 244,-290 244,-234 244,-162.7924 342.729,-136.2448 400.0448,-126.8326"/>
<polygon fill="#191970" stroke="#191970" points="400.8792,-130.2456 410.2318,-125.2677 399.8163,-123.3268 400.8792,-130.2456"/>
</g>
<!-- Node18 -->
<g id="node19" class="node">
<title>Node18</title>
<g id="a_node19"><a xlink:href="opt_8h.html" target="_top" xlink:title="lwip/opt.h">
<polygon fill="#ffffff" stroke="#000000" points="331.5,-336.5 331.5,-355.5 390.5,-355.5 390.5,-336.5 331.5,-336.5"/>
<text text-anchor="middle" x="361" y="-343.5" font-family="Helvetica,sans-Serif" font-size="10.00" fill="#000000">lwip/opt.h</text>
</a>
</g>
</g>
<!-- Node17&#45;&gt;Node18 -->
<g id="edge21" class="edge">
<title>Node17&#45;&gt;Node18</title>
<path fill="none" stroke="#191970" d="M301.6994,-448.4679C316.2851,-440.6891 335.091,-428.321 346,-412 355.1712,-398.2788 358.7941,-379.747 360.1962,-365.8135"/>
<polygon fill="#191970" stroke="#191970" points="363.6897,-366.0277 360.908,-355.8046 356.7073,-365.5311 363.6897,-366.0277"/>
</g>
<!-- Node23 -->
<g id="node24" class="node">
<title>Node23</title>
<g id="a_node24"><a xlink:href="def_8h.html" target="_top" xlink:title="lwip/def.h">
<polygon fill="#ffffff" stroke="#000000" points="277.5,-392.5 277.5,-411.5 336.5,-411.5 336.5,-392.5 277.5,-392.5"/>
<text text-anchor="middle" x="307" y="-399.5" font-family="Helvetica,sans-Serif" font-size="10.00" fill="#000000">lwip/def.h</text>
</a>
</g>
</g>
<!-- Node17&#45;&gt;Node23 -->
<g id="edge29" class="edge">
<title>Node17&#45;&gt;Node23</title>
<path fill="none" stroke="#191970" d="M285.5289,-448.2455C289.0334,-440.6973 293.9927,-430.0158 298.2623,-420.8197"/>
<polygon fill="#191970" stroke="#191970" points="301.4864,-422.1867 302.523,-411.6427 295.1373,-419.2389 301.4864,-422.1867"/>
</g>
<!-- Node19 -->
<g id="node20" class="node">
<title>Node19</title>
<g id="a_node20"><a xlink:href="lwipopts_8h.html" target="_top" xlink:title="lwipopts.h">
<polygon fill="#ffffff" stroke="#000000" points="321.5,-280.5 321.5,-299.5 382.5,-299.5 382.5,-280.5 321.5,-280.5"/>
<text text-anchor="middle" x="352" y="-287.5" font-family="Helvetica,sans-Serif" font-size="10.00" fill="#000000">lwipopts.h</text>
</a>
</g>
</g>
<!-- Node18&#45;&gt;Node19 -->
<g id="edge22" class="edge">
<title>Node18&#45;&gt;Node19</title>
<path fill="none" stroke="#191970" d="M359.4323,-336.2455C358.2579,-328.9382 356.6116,-318.6944 355.1668,-309.7046"/>
<polygon fill="#191970" stroke="#191970" points="358.5922,-308.9606 353.5497,-299.6427 351.6809,-310.0714 358.5922,-308.9606"/>
</g>
<!-- Node20 -->
<g id="node21" class="node">
<title>Node20</title>
<g id="a_node21"><a xlink:href="esp-open-sdk_2esp-open-lwip_2include_2lwip_2debug_8h.html" target="_top" xlink:title="lwip/debug.h">
<polygon fill="#ffffff" stroke="#000000" points="400.5,-280.5 400.5,-299.5 473.5,-299.5 473.5,-280.5 400.5,-280.5"/>
<text text-anchor="middle" x="437" y="-287.5" font-family="Helvetica,sans-Serif" font-size="10.00" fill="#000000">lwip/debug.h</text>
</a>
</g>
</g>
<!-- Node18&#45;&gt;Node20 -->
<g id="edge23" class="edge">
<title>Node18&#45;&gt;Node20</title>
<path fill="none" stroke="#191970" d="M374.2382,-336.2455C385.681,-327.814 402.4296,-315.4729 415.7475,-305.6598"/>
<polygon fill="#191970" stroke="#191970" points="417.9391,-308.3924 423.9135,-299.6427 413.7867,-302.757 417.9391,-308.3924"/>
</g>
<!-- Node21 -->
<g id="node22" class="node">
<title>Node21</title>
<g id="a_node22"><a xlink:href="arch_8h.html" target="_top" xlink:title="lwip/arch.h">
<polygon fill="#ffffff" stroke="#000000" points="405,-224.5 405,-243.5 469,-243.5 469,-224.5 405,-224.5"/>
<text text-anchor="middle" x="437" y="-231.5" font-family="Helvetica,sans-Serif" font-size="10.00" fill="#000000">lwip/arch.h</text>
</a>
</g>
</g>
<!-- Node20&#45;&gt;Node21 -->
<g id="edge24" class="edge">
<title>Node20&#45;&gt;Node21</title>
<path fill="none" stroke="#191970" d="M437,-280.2455C437,-272.9382 437,-262.6944 437,-253.7046"/>
<polygon fill="#191970" stroke="#191970" points="440.5001,-253.6426 437,-243.6427 433.5001,-253.6427 440.5001,-253.6426"/>
</g>
<!-- Node22 -->
<g id="node23" class="node">
<title>Node22</title>
<g id="a_node23"><a xlink:href="cc_8h.html" target="_top" xlink:title="arch/cc.h">
<polygon fill="#ffffff" stroke="#000000" points="409.5,-168.5 409.5,-187.5 466.5,-187.5 466.5,-168.5 409.5,-168.5"/>
<text text-anchor="middle" x="438" y="-175.5" font-family="Helvetica,sans-Serif" font-size="10.00" fill="#000000">arch/cc.h</text>
</a>
</g>
</g>
<!-- Node21&#45;&gt;Node22 -->
<g id="edge25" class="edge">
<title>Node21&#45;&gt;Node22</title>
<path fill="none" stroke="#191970" d="M437.1742,-224.2455C437.3047,-216.9382 437.4876,-206.6944 437.6481,-197.7046"/>
<polygon fill="#191970" stroke="#191970" points="441.1486,-197.7036 437.8278,-187.6427 434.1497,-197.5786 441.1486,-197.7036"/>
</g>
<!-- Node22&#45;&gt;Node6 -->
<g id="edge26" class="edge">
<title>Node22&#45;&gt;Node6</title>
<path fill="none" stroke="#191970" d="M447.0006,-168.3041C455.4464,-159.1126 468.3392,-144.8398 479,-132 492.2279,-116.0683 506.5911,-97.3416 516.6938,-83.9134"/>
<polygon fill="#191970" stroke="#191970" points="519.7531,-85.6669 522.9411,-75.563 514.1481,-81.4736 519.7531,-85.6669"/>
</g>
<!-- Node22&#45;&gt;Node9 -->
<g id="edge27" class="edge">
<title>Node22&#45;&gt;Node9</title>
<path fill="none" stroke="#191970" d="M438.3484,-168.2455C438.6093,-160.9382 438.9752,-150.6944 439.2963,-141.7046"/>
<polygon fill="#191970" stroke="#191970" points="442.7964,-141.7613 439.6556,-131.6427 435.8008,-141.5113 442.7964,-141.7613"/>
</g>
<!-- Node22&#45;&gt;Node13 -->
<g id="edge28" class="edge">
<title>Node22&#45;&gt;Node13</title>
<path fill="none" stroke="#191970" d="M409.4926,-173.177C348.9105,-162.9275 207.5284,-139.0078 141.7749,-127.8834"/>
<polygon fill="#191970" stroke="#191970" points="142.339,-124.4291 131.8952,-126.2119 141.1712,-131.3311 142.339,-124.4291"/>
</g>
<!-- Node23&#45;&gt;Node18 -->
<g id="edge31" class="edge">
<title>Node23&#45;&gt;Node18</title>
<path fill="none" stroke="#191970" d="M316.4061,-392.2455C324.1493,-384.2155 335.312,-372.6394 344.5318,-363.0781"/>
<polygon fill="#191970" stroke="#191970" points="347.2798,-365.2706 351.7017,-355.6427 342.2409,-360.4117 347.2798,-365.2706"/>
</g>
<!-- Node23&#45;&gt;Node21 -->
<g id="edge30" class="edge">
<title>Node23&#45;&gt;Node21</title>
<path fill="none" stroke="#191970" d="M304.2233,-392.287C298.4761,-369.9831 287.8071,-314.3825 313,-280 323.0416,-266.2955 362.9094,-253.0639 394.765,-244.3379"/>
<polygon fill="#191970" stroke="#191970" points="396.0175,-247.6263 404.7783,-241.6683 394.2141,-240.8626 396.0175,-247.6263"/>
</g>
<!-- Node28&#45;&gt;Node1 -->
<g id="edge41" class="edge">
<title>Node28&#45;&gt;Node1</title>
<path fill="none" stroke="#191970" d="M592.8521,-616.2455C583.4913,-608.0549 569.9142,-596.1749 558.8651,-586.5069"/>
<polygon fill="#191970" stroke="#191970" points="560.8508,-583.5937 551.0202,-579.6427 556.2412,-588.8618 560.8508,-583.5937"/>
</g>
<!-- Node28&#45;&gt;Node7 -->
<g id="edge42" class="edge">
<title>Node28&#45;&gt;Node7</title>
<path fill="none" stroke="#191970" d="M639.6293,-621.6104C724.9601,-610.1068 934,-575.6358 934,-514 934,-514 934,-514 934,-122 934,-89.7116 934,-52.1872 934,-29.8048"/>
<polygon fill="#191970" stroke="#191970" points="937.5001,-29.5883 934,-19.5884 930.5001,-29.5884 937.5001,-29.5883"/>
</g>
</g>
</svg>
