<?xml version="1.0" encoding="UTF-8" standalone="no"?>
<!DOCTYPE svg PUBLIC "-//W3C//DTD SVG 1.1//EN"
 "http://www.w3.org/Graphics/SVG/1.1/DTD/svg11.dtd">
<!-- Generated by graphviz version 2.39.20160927.1334 (20160927.1334)
 -->
<!-- Title: user/crypto/aes.c Pages: 1 -->
<svg width="1131pt" height="252pt"
 viewBox="0.00 0.00 1131.00 252.00" xmlns="http://www.w3.org/2000/svg" xmlns:xlink="http://www.w3.org/1999/xlink">
<g id="graph0" class="graph" transform="scale(1 1) rotate(0) translate(4 248)">
<title>user/crypto/aes.c</title>
<polygon fill="#ffffff" stroke="transparent" points="-4,4 -4,-248 1127,-248 1127,4 -4,4"/>
<!-- Node1 -->
<g id="node1" class="node">
<title>Node1</title>
<polygon fill="#bfbfbf" stroke="#000000" points="573,-224.5 573,-243.5 666,-243.5 666,-224.5 573,-224.5"/>
<text text-anchor="middle" x="619.5" y="-231.5" font-family="Helvetica,sans-Serif" font-size="10.00" fill="#000000">user/crypto/aes.c</text>
</g>
<!-- Node2 -->
<g id="node2" class="node">
<title>Node2</title>
<g id="a_node2"><a xlink:href="esp8266_8h.html" target="_top" xlink:title="esp8266.h">
<polygon fill="#ffffff" stroke="#000000" points="556,-112.5 556,-131.5 619,-131.5 619,-112.5 556,-112.5"/>
<text text-anchor="middle" x="587.5" y="-119.5" font-family="Helvetica,sans-Serif" font-size="10.00" fill="#000000">esp8266.h</text>
</a>
</g>
</g>
<!-- Node1&#45;&gt;Node2 -->
<g id="edge1" class="edge">
<title>Node1&#45;&gt;Node2</title>
<path fill="none" stroke="#191970" d="M616.772,-224.451C611.529,-206.101 599.955,-165.591 593.034,-141.369"/>
<polygon fill="#191970" stroke="#191970" points="596.334,-140.179 590.221,-131.525 589.603,-142.102 596.334,-140.179"/>
</g>
<!-- Node6 -->
<g id="node6" class="node">
<title>Node6</title>
<polygon fill="#ffffff" stroke="#bfbfbf" points="0,-56.5 0,-75.5 49,-75.5 49,-56.5 0,-56.5"/>
<text text-anchor="middle" x="24.5" y="-63.5" font-family="Helvetica,sans-Serif" font-size="10.00" fill="#000000">string.h</text>
</g>
<!-- Node1&#45;&gt;Node6 -->
<g id="edge22" class="edge">
<title>Node1&#45;&gt;Node6</title>
<path fill="none" stroke="#191970" d="M584.573,-224.444C497.556,-200.581 263.908,-136.16 59.0814,-76.4295"/>
<polygon fill="#191970" stroke="#191970" points="59.9304,-73.0314 49.3502,-73.589 57.9689,-79.7509 59.9304,-73.0314"/>
</g>
<!-- Node18 -->
<g id="node18" class="node">
<title>Node18</title>
<polygon fill="#ffffff" stroke="#bfbfbf" points="1074,-0.5 1074,-19.5 1123,-19.5 1123,-0.5 1074,-0.5"/>
<text text-anchor="middle" x="1098.5" y="-7.5" font-family="Helvetica,sans-Serif" font-size="10.00" fill="#000000">stdint.h</text>
</g>
<!-- Node1&#45;&gt;Node18 -->
<g id="edge21" class="edge">
<title>Node1&#45;&gt;Node18</title>
<path fill="none" stroke="#191970" d="M664.58,-224.468C734.867,-208.951 874.255,-175.535 987.5,-132 1039.45,-112.03 1070.24,-123.341 1099.5,-76 1107.96,-62.3084 1106.84,-43.7737 1104.1,-29.8315"/>
<polygon fill="#191970" stroke="#191970" points="1107.43,-28.7295 1101.71,-19.815 1100.63,-30.3543 1107.43,-28.7295"/>
</g>
<!-- Node20 -->
<g id="node20" class="node">
<title>Node20</title>
<g id="a_node20"><a xlink:href="aes_8h.html" target="_top" xlink:title="crypto/aes.h">
<polygon fill="#ffffff" stroke="#000000" points="616,-168.5 616,-187.5 687,-187.5 687,-168.5 616,-168.5"/>
<text text-anchor="middle" x="651.5" y="-175.5" font-family="Helvetica,sans-Serif" font-size="10.00" fill="#000000">crypto/aes.h</text>
</a>
</g>
</g>
<!-- Node1&#45;&gt;Node20 -->
<g id="edge23" class="edge">
<title>Node1&#45;&gt;Node20</title>
<path fill="none" stroke="#191970" d="M625.074,-224.246C629.433,-216.617 635.621,-205.788 640.913,-196.527"/>
<polygon fill="#191970" stroke="#191970" points="644.067,-198.062 645.99,-187.643 637.99,-194.589 644.067,-198.062"/>
</g>
<!-- Node3 -->
<g id="node3" class="node">
<title>Node3</title>
<polygon fill="#ffffff" stroke="#bfbfbf" points="465,-56.5 465,-75.5 514,-75.5 514,-56.5 465,-56.5"/>
<text text-anchor="middle" x="489.5" y="-63.5" font-family="Helvetica,sans-Serif" font-size="10.00" fill="#000000">ctype.h</text>
</g>
<!-- Node2&#45;&gt;Node3 -->
<g id="edge2" class="edge">
<title>Node2&#45;&gt;Node3</title>
<path fill="none" stroke="#191970" d="M570.43,-112.246C555.253,-103.573 532.838,-90.7645 515.444,-80.825"/>
<polygon fill="#191970" stroke="#191970" points="516.794,-77.5653 506.375,-75.6427 513.321,-83.643 516.794,-77.5653"/>
</g>
<!-- Node4 -->
<g id="node4" class="node">
<title>Node4</title>
<polygon fill="#ffffff" stroke="#bfbfbf" points="532.5,-56.5 532.5,-75.5 578.5,-75.5 578.5,-56.5 532.5,-56.5"/>
<text text-anchor="middle" x="555.5" y="-63.5" font-family="Helvetica,sans-Serif" font-size="10.00" fill="#000000">stdio.h</text>
</g>
<!-- Node2&#45;&gt;Node4 -->
<g id="edge3" class="edge">
<title>Node2&#45;&gt;Node4</title>
<path fill="none" stroke="#191970" d="M581.926,-112.246C577.567,-104.617 571.379,-93.7881 566.087,-84.5267"/>
<polygon fill="#191970" stroke="#191970" points="569.01,-82.5886 561.01,-75.6427 562.933,-86.0616 569.01,-82.5886"/>
</g>
<!-- Node5 -->
<g id="node5" class="node">
<title>Node5</title>
<polygon fill="#ffffff" stroke="#bfbfbf" points="596.5,-56.5 596.5,-75.5 644.5,-75.5 644.5,-56.5 596.5,-56.5"/>
<text text-anchor="middle" x="620.5" y="-63.5" font-family="Helvetica,sans-Serif" font-size="10.00" fill="#000000">stdlib.h</text>
</g>
<!-- Node2&#45;&gt;Node5 -->
<g id="edge4" class="edge">
<title>Node2&#45;&gt;Node5</title>
<path fill="none" stroke="#191970" d="M593.248,-112.246C597.744,-104.617 604.125,-93.7881 609.582,-84.5267"/>
<polygon fill="#191970" stroke="#191970" points="612.756,-86.035 614.818,-75.6427 606.725,-82.4811 612.756,-86.035"/>
</g>
<!-- Node2&#45;&gt;Node6 -->
<g id="edge5" class="edge">
<title>Node2&#45;&gt;Node6</title>
<path fill="none" stroke="#191970" d="M555.823,-121.536C474.521,-119.862 251.881,-112.232 59.2476,-76.0107"/>
<polygon fill="#191970" stroke="#191970" points="59.7071,-72.5352 49.2278,-74.0953 58.3928,-79.4107 59.7071,-72.5352"/>
</g>
<!-- Node7 -->
<g id="node7" class="node">
<title>Node7</title>
<polygon fill="#ffffff" stroke="#bfbfbf" points="643,-0.5 643,-19.5 702,-19.5 702,-0.5 643,-0.5"/>
<text text-anchor="middle" x="672.5" y="-7.5" font-family="Helvetica,sans-Serif" font-size="10.00" fill="#000000">c_types.h</text>
</g>
<!-- Node2&#45;&gt;Node7 -->
<g id="edge6" class="edge">
<title>Node2&#45;&gt;Node7</title>
<path fill="none" stroke="#191970" d="M608.24,-112.353C622.913,-104.517 641.957,-92.1277 653.5,-76 663.247,-62.3815 668.018,-43.8397 670.339,-29.8762"/>
<polygon fill="#191970" stroke="#191970" points="673.824,-30.2254 671.724,-19.8408 666.89,-29.2687 673.824,-30.2254"/>
</g>
<!-- Node8 -->
<g id="node8" class="node">
<title>Node8</title>
<polygon fill="#ffffff" stroke="#bfbfbf" points="868.5,-56.5 868.5,-75.5 926.5,-75.5 926.5,-56.5 868.5,-56.5"/>
<text text-anchor="middle" x="897.5" y="-63.5" font-family="Helvetica,sans-Serif" font-size="10.00" fill="#000000">ip_addr.h</text>
</g>
<!-- Node2&#45;&gt;Node8 -->
<g id="edge7" class="edge">
<title>Node2&#45;&gt;Node8</title>
<path fill="none" stroke="#191970" d="M619.088,-117.599C668.182,-110.556 765.936,-95.7212 858.059,-76.1702"/>
<polygon fill="#191970" stroke="#191970" points="859.061,-79.5349 868.104,-74.0145 857.593,-72.6908 859.061,-79.5349"/>
</g>
<!-- Node9 -->
<g id="node9" class="node">
<title>Node9</title>
<polygon fill="#ffffff" stroke="#bfbfbf" points="945,-56.5 945,-75.5 1008,-75.5 1008,-56.5 945,-56.5"/>
<text text-anchor="middle" x="976.5" y="-63.5" font-family="Helvetica,sans-Serif" font-size="10.00" fill="#000000">espconn.h</text>
</g>
<!-- Node2&#45;&gt;Node9 -->
<g id="edge8" class="edge">
<title>Node2&#45;&gt;Node9</title>
<path fill="none" stroke="#191970" d="M619.35,-118.951C679.186,-112.974 812.615,-98.4654 934.882,-75.9398"/>
<polygon fill="#191970" stroke="#191970" points="935.6,-79.3663 944.789,-74.0921 934.317,-72.4849 935.6,-79.3663"/>
</g>
<!-- Node10 -->
<g id="node10" class="node">
<title>Node10</title>
<polygon fill="#ffffff" stroke="#bfbfbf" points="720,-0.5 720,-19.5 779,-19.5 779,-0.5 720,-0.5"/>
<text text-anchor="middle" x="749.5" y="-7.5" font-family="Helvetica,sans-Serif" font-size="10.00" fill="#000000">ets_sys.h</text>
</g>
<!-- Node2&#45;&gt;Node10 -->
<g id="edge9" class="edge">
<title>Node2&#45;&gt;Node10</title>
<path fill="none" stroke="#191970" d="M608.408,-112.452C626.306,-103.901 652.443,-90.5025 673.5,-76 695.115,-61.1129 717.526,-40.9774 732.36,-26.8756"/>
<polygon fill="#191970" stroke="#191970" points="734.998,-29.1939 739.768,-19.7336 730.139,-24.1545 734.998,-29.1939"/>
</g>
<!-- Node11 -->
<g id="node11" class="node">
<title>Node11</title>
<polygon fill="#ffffff" stroke="#bfbfbf" points="1026.5,-56.5 1026.5,-75.5 1070.5,-75.5 1070.5,-56.5 1026.5,-56.5"/>
<text text-anchor="middle" x="1048.5" y="-63.5" font-family="Helvetica,sans-Serif" font-size="10.00" fill="#000000">gpio.h</text>
</g>
<!-- Node2&#45;&gt;Node11 -->
<g id="edge10" class="edge">
<title>Node2&#45;&gt;Node11</title>
<path fill="none" stroke="#191970" d="M619.141,-120.838C689.249,-117.793 862.943,-107.649 1016.23,-75.8892"/>
<polygon fill="#191970" stroke="#191970" points="1017.24,-79.2546 1026.3,-73.7658 1015.79,-72.4053 1017.24,-79.2546"/>
</g>
<!-- Node12 -->
<g id="node12" class="node">
<title>Node12</title>
<polygon fill="#ffffff" stroke="#bfbfbf" points="67,-56.5 67,-75.5 114,-75.5 114,-56.5 67,-56.5"/>
<text text-anchor="middle" x="90.5" y="-63.5" font-family="Helvetica,sans-Serif" font-size="10.00" fill="#000000">mem.h</text>
</g>
<!-- Node2&#45;&gt;Node12 -->
<g id="edge11" class="edge">
<title>Node2&#45;&gt;Node12</title>
<path fill="none" stroke="#191970" d="M555.874,-121.095C481.726,-118.501 290.925,-109.093 124.067,-75.981"/>
<polygon fill="#191970" stroke="#191970" points="124.62,-72.5221 114.125,-73.9739 123.234,-79.3837 124.62,-72.5221"/>
</g>
<!-- Node13 -->
<g id="node13" class="node">
<title>Node13</title>
<polygon fill="#ffffff" stroke="#bfbfbf" points="132,-56.5 132,-75.5 181,-75.5 181,-56.5 132,-56.5"/>
<text text-anchor="middle" x="156.5" y="-63.5" font-family="Helvetica,sans-Serif" font-size="10.00" fill="#000000">osapi.h</text>
</g>
<!-- Node2&#45;&gt;Node13 -->
<g id="edge12" class="edge">
<title>Node2&#45;&gt;Node13</title>
<path fill="none" stroke="#191970" d="M555.818,-120.171C489.747,-115.965 332.39,-103.903 191.382,-75.86"/>
<polygon fill="#191970" stroke="#191970" points="191.755,-72.3646 181.26,-73.8132 190.367,-79.2257 191.755,-72.3646"/>
</g>
<!-- Node14 -->
<g id="node14" class="node">
<title>Node14</title>
<polygon fill="#ffffff" stroke="#bfbfbf" points="199.5,-56.5 199.5,-75.5 287.5,-75.5 287.5,-56.5 199.5,-56.5"/>
<text text-anchor="middle" x="243.5" y="-63.5" font-family="Helvetica,sans-Serif" font-size="10.00" fill="#000000">user_interface.h</text>
</g>
<!-- Node2&#45;&gt;Node14 -->
<g id="edge13" class="edge">
<title>Node2&#45;&gt;Node14</title>
<path fill="none" stroke="#191970" d="M555.584,-117.272C503.705,-109.518 397.615,-93.3763 297.688,-76.169"/>
<polygon fill="#191970" stroke="#191970" points="298.179,-72.7019 287.729,-74.4467 296.986,-79.5995 298.179,-72.7019"/>
</g>
<!-- Node15 -->
<g id="node15" class="node">
<title>Node15</title>
<polygon fill="#ffffff" stroke="#bfbfbf" points="305.5,-56.5 305.5,-75.5 367.5,-75.5 367.5,-56.5 305.5,-56.5"/>
<text text-anchor="middle" x="336.5" y="-63.5" font-family="Helvetica,sans-Serif" font-size="10.00" fill="#000000">upgrade.h</text>
</g>
<!-- Node2&#45;&gt;Node15 -->
<g id="edge14" class="edge">
<title>Node2&#45;&gt;Node15</title>
<path fill="none" stroke="#191970" d="M555.975,-115.439C516.606,-107.177 446.947,-92.3364 378.073,-76.3216"/>
<polygon fill="#191970" stroke="#191970" points="378.455,-72.8166 367.921,-73.9508 376.863,-79.6332 378.455,-72.8166"/>
</g>
<!-- Node16 -->
<g id="node16" class="node">
<title>Node16</title>
<g id="a_node16"><a xlink:href="platform_8h.html" target="_top" xlink:title="platform.h">
<polygon fill="#ffffff" stroke="#000000" points="386,-56.5 386,-75.5 447,-75.5 447,-56.5 386,-56.5"/>
<text text-anchor="middle" x="416.5" y="-63.5" font-family="Helvetica,sans-Serif" font-size="10.00" fill="#000000">platform.h</text>
</a>
</g>
</g>
<!-- Node2&#45;&gt;Node16 -->
<g id="edge15" class="edge">
<title>Node2&#45;&gt;Node16</title>
<path fill="none" stroke="#191970" d="M558.104,-112.373C529.669,-103.061 486.412,-88.8953 455.192,-78.671"/>
<polygon fill="#191970" stroke="#191970" points="456.105,-75.2872 445.512,-75.5011 453.926,-81.9396 456.105,-75.2872"/>
</g>
<!-- Node17 -->
<g id="node17" class="node">
<title>Node17</title>
<g id="a_node17"><a xlink:href="espmissingincludes_8h.html" target="_top" xlink:title="espmissingincludes.h">
<polygon fill="#ffffff" stroke="#000000" points="738.5,-56.5 738.5,-75.5 850.5,-75.5 850.5,-56.5 738.5,-56.5"/>
<text text-anchor="middle" x="794.5" y="-63.5" font-family="Helvetica,sans-Serif" font-size="10.00" fill="#000000">espmissingincludes.h</text>
</a>
</g>
</g>
<!-- Node2&#45;&gt;Node17 -->
<g id="edge16" class="edge">
<title>Node2&#45;&gt;Node17</title>
<path fill="none" stroke="#191970" d="M619.39,-113.373C654.131,-103.974 709.985,-88.864 749.251,-78.2412"/>
<polygon fill="#191970" stroke="#191970" points="750.365,-81.5658 759.104,-75.5758 748.537,-74.8087 750.365,-81.5658"/>
</g>
<!-- Node17&#45;&gt;Node7 -->
<g id="edge18" class="edge">
<title>Node17&#45;&gt;Node7</title>
<path fill="none" stroke="#191970" d="M773.527,-56.3733C753.943,-47.3838 724.504,-33.8706 702.449,-23.7471"/>
<polygon fill="#191970" stroke="#191970" points="703.747,-20.4919 693.199,-19.5011 700.827,-26.8538 703.747,-20.4919"/>
</g>
<!-- Node17&#45;&gt;Node10 -->
<g id="edge20" class="edge">
<title>Node17&#45;&gt;Node10</title>
<path fill="none" stroke="#191970" d="M786.662,-56.2455C780.338,-48.3761 771.278,-37.101 763.686,-27.6542"/>
<polygon fill="#191970" stroke="#191970" points="766.241,-25.2454 757.249,-19.6427 760.784,-29.6302 766.241,-25.2454"/>
</g>
<!-- Node17&#45;&gt;Node18 -->
<g id="edge17" class="edge">
<title>Node17&#45;&gt;Node18</title>
<path fill="none" stroke="#191970" d="M846.414,-56.4369C908.417,-45.0152 1010.42,-26.2255 1063.67,-16.4155"/>
<polygon fill="#191970" stroke="#191970" points="1064.45,-19.8319 1073.65,-14.5781 1063.18,-12.9477 1064.45,-19.8319"/>
</g>
<!-- Node19 -->
<g id="node19" class="node">
<title>Node19</title>
<polygon fill="#ffffff" stroke="#bfbfbf" points="797.5,-0.5 797.5,-19.5 867.5,-19.5 867.5,-0.5 797.5,-0.5"/>
<text text-anchor="middle" x="832.5" y="-7.5" font-family="Helvetica,sans-Serif" font-size="10.00" fill="#000000">eagle_soc.h</text>
</g>
<!-- Node17&#45;&gt;Node19 -->
<g id="edge19" class="edge">
<title>Node17&#45;&gt;Node19</title>
<path fill="none" stroke="#191970" d="M801.119,-56.2455C806.405,-48.4564 813.954,-37.3308 820.324,-27.9439"/>
<polygon fill="#191970" stroke="#191970" points="823.238,-29.8827 825.957,-19.6427 817.446,-25.9522 823.238,-29.8827"/>
</g>
<!-- Node20&#45;&gt;Node2 -->
<g id="edge24" class="edge">
<title>Node20&#45;&gt;Node2</title>
<path fill="none" stroke="#191970" d="M640.352,-168.246C630.991,-160.055 617.414,-148.175 606.365,-138.507"/>
<polygon fill="#191970" stroke="#191970" points="608.351,-135.594 598.52,-131.643 603.741,-140.862 608.351,-135.594"/>
</g>
<!-- Node20&#45;&gt;Node18 -->
<g id="edge25" class="edge">
<title>Node20&#45;&gt;Node18</title>
<path fill="none" stroke="#191970" d="M687.254,-174.104C779.542,-163.35 1022.52,-130.396 1079.5,-76 1092.01,-64.0586 1096.44,-44.4645 1097.94,-29.7213"/>
<polygon fill="#191970" stroke="#191970" points="1101.44,-29.8046 1098.59,-19.5997 1094.45,-29.3531 1101.44,-29.8046"/>
</g>
</g>
</svg>
