<?xml version="1.0" encoding="UTF-8" standalone="no"?>
<!DOCTYPE svg PUBLIC "-//W3C//DTD SVG 1.1//EN"
 "http://www.w3.org/Graphics/SVG/1.1/DTD/svg11.dtd">
<!-- Generated by graphviz version 2.41.20170323.1842 (20170323.1842)
 -->
<!-- Title: esp&#45;open&#45;lwip/include/lwip/arch.h Pages: 1 -->
<svg width="348pt" height="263pt"
 viewBox="0.00 0.00 348.00 263.00" xmlns="http://www.w3.org/2000/svg" xmlns:xlink="http://www.w3.org/1999/xlink">
<g id="graph0" class="graph" transform="scale(1 1) rotate(0) translate(4 259)">
<title>esp&#45;open&#45;lwip/include/lwip/arch.h</title>
<polygon fill="#ffffff" stroke="transparent" points="-4,4 -4,-259 344,-259 344,4 -4,4"/>
<!-- Node0 -->
<g id="node1" class="node">
<title>Node0</title>
<polygon fill="#bfbfbf" stroke="#000000" points="74,-224.5 74,-254.5 187,-254.5 187,-224.5 74,-224.5"/>
<text text-anchor="start" x="82" y="-242.5" font-family="Helvetica,sans-Serif" font-size="10.00" fill="#000000">esp&#45;open&#45;lwip/include</text>
<text text-anchor="middle" x="130.5" y="-231.5" font-family="Helvetica,sans-Serif" font-size="10.00" fill="#000000">/lwip/arch.h</text>
</g>
<!-- Node1 -->
<g id="node2" class="node">
<title>Node1</title>
<g id="a_node2"><a xlink:href="$cc_8h.html" xlink:title="arch/cc.h">
<polygon fill="#ffffff" stroke="#000000" points="102,-168.5 102,-187.5 159,-187.5 159,-168.5 102,-168.5"/>
<text text-anchor="middle" x="130.5" y="-175.5" font-family="Helvetica,sans-Serif" font-size="10.00" fill="#000000">arch/cc.h</text>
</a>
</g>
</g>
<!-- Node0&#45;&gt;Node1 -->
<g id="edge1" class="edge">
<title>Node0&#45;&gt;Node1</title>
<path fill="none" stroke="#191970" d="M130.5,-224.2977C130.5,-216.3834 130.5,-206.6043 130.5,-198.0759"/>
<polygon fill="#191970" stroke="#191970" points="134.0001,-197.8469 130.5,-187.8469 127.0001,-197.847 134.0001,-197.8469"/>
</g>
<!-- Node2 -->
<g id="node3" class="node">
<title>Node2</title>
<g id="a_node3"><a xlink:href="$c__types_8h.html" xlink:title="c_types.h">
<polygon fill="#ffffff" stroke="#000000" points="30,-56.5 30,-75.5 89,-75.5 89,-56.5 30,-56.5"/>
<text text-anchor="middle" x="59.5" y="-63.5" font-family="Helvetica,sans-Serif" font-size="10.00" fill="#000000">c_types.h</text>
</a>
</g>
</g>
<!-- Node1&#45;&gt;Node2 -->
<g id="edge2" class="edge">
<title>Node1&#45;&gt;Node2</title>
<path fill="none" stroke="#191970" d="M121.0509,-168.3459C112.626,-159.4125 100.3004,-145.5105 91.5,-132 81.7523,-117.0352 73.0806,-98.658 67.2317,-85.099"/>
<polygon fill="#191970" stroke="#191970" points="70.4306,-83.6765 63.3381,-75.8058 63.9743,-86.3816 70.4306,-83.6765"/>
</g>
<!-- Node5 -->
<g id="node6" class="node">
<title>Node5</title>
<g id="a_node6"><a xlink:href="$ets__sys_8h.html" xlink:title="ets_sys.h">
<polygon fill="#ffffff" stroke="#000000" points="101,-112.5 101,-131.5 160,-131.5 160,-112.5 101,-112.5"/>
<text text-anchor="middle" x="130.5" y="-119.5" font-family="Helvetica,sans-Serif" font-size="10.00" fill="#000000">ets_sys.h</text>
</a>
</g>
</g>
<!-- Node1&#45;&gt;Node5 -->
<g id="edge5" class="edge">
<title>Node1&#45;&gt;Node5</title>
<path fill="none" stroke="#191970" d="M130.5,-168.2455C130.5,-160.9382 130.5,-150.6944 130.5,-141.7046"/>
<polygon fill="#191970" stroke="#191970" points="134.0001,-141.6426 130.5,-131.6427 127.0001,-141.6427 134.0001,-141.6426"/>
</g>
<!-- Node7 -->
<g id="node8" class="node">
<title>Node7</title>
<g id="a_node8"><a xlink:href="$osapi_8h.html" xlink:title="osapi.h">
<polygon fill="#ffffff" stroke="#000000" points="196,-112.5 196,-131.5 245,-131.5 245,-112.5 196,-112.5"/>
<text text-anchor="middle" x="220.5" y="-119.5" font-family="Helvetica,sans-Serif" font-size="10.00" fill="#000000">osapi.h</text>
</a>
</g>
</g>
<!-- Node1&#45;&gt;Node7 -->
<g id="edge8" class="edge">
<title>Node1&#45;&gt;Node7</title>
<path fill="none" stroke="#191970" d="M146.1768,-168.2455C159.9856,-159.6534 180.3193,-147.0014 196.2292,-137.1018"/>
<polygon fill="#191970" stroke="#191970" points="198.3613,-139.8974 205.0028,-131.6427 194.6632,-133.954 198.3613,-139.8974"/>
</g>
<!-- Node3 -->
<g id="node4" class="node">
<title>Node3</title>
<polygon fill="#ffffff" stroke="#bfbfbf" points="0,-.5 0,-19.5 49,-19.5 49,-.5 0,-.5"/>
<text text-anchor="middle" x="24.5" y="-7.5" font-family="Helvetica,sans-Serif" font-size="10.00" fill="#000000">stdint.h</text>
</g>
<!-- Node2&#45;&gt;Node3 -->
<g id="edge3" class="edge">
<title>Node2&#45;&gt;Node3</title>
<path fill="none" stroke="#191970" d="M53.4035,-56.2455C48.5855,-48.5367 41.7249,-37.5598 35.8968,-28.2348"/>
<polygon fill="#191970" stroke="#191970" points="38.7947,-26.2677 30.5267,-19.6427 32.8587,-29.9777 38.7947,-26.2677"/>
</g>
<!-- Node4 -->
<g id="node5" class="node">
<title>Node4</title>
<polygon fill="#ffffff" stroke="#bfbfbf" points="67,-.5 67,-19.5 124,-19.5 124,-.5 67,-.5"/>
<text text-anchor="middle" x="95.5" y="-7.5" font-family="Helvetica,sans-Serif" font-size="10.00" fill="#000000">stdbool.h</text>
</g>
<!-- Node2&#45;&gt;Node4 -->
<g id="edge4" class="edge">
<title>Node2&#45;&gt;Node4</title>
<path fill="none" stroke="#191970" d="M65.7707,-56.2455C70.7264,-48.5367 77.783,-37.5598 83.7776,-28.2348"/>
<polygon fill="#191970" stroke="#191970" points="86.8376,-29.9471 89.3011,-19.6427 80.9494,-26.1618 86.8376,-29.9471"/>
</g>
<!-- Node5&#45;&gt;Node2 -->
<g id="edge6" class="edge">
<title>Node5&#45;&gt;Node2</title>
<path fill="none" stroke="#191970" d="M118.1327,-112.2455C107.5446,-103.8943 92.0936,-91.7076 79.7107,-81.9408"/>
<polygon fill="#191970" stroke="#191970" points="81.7447,-79.0875 71.7255,-75.6427 77.4097,-84.5837 81.7447,-79.0875"/>
</g>
<!-- Node6 -->
<g id="node7" class="node">
<title>Node6</title>
<g id="a_node7"><a xlink:href="$eagle__soc_8h.html" xlink:title="eagle_soc.h">
<polygon fill="#ffffff" stroke="#000000" points="107.5,-56.5 107.5,-75.5 177.5,-75.5 177.5,-56.5 107.5,-56.5"/>
<text text-anchor="middle" x="142.5" y="-63.5" font-family="Helvetica,sans-Serif" font-size="10.00" fill="#000000">eagle_soc.h</text>
</a>
</g>
</g>
<!-- Node5&#45;&gt;Node6 -->
<g id="edge7" class="edge">
<title>Node5&#45;&gt;Node6</title>
<path fill="none" stroke="#191970" d="M132.5902,-112.2455C134.1561,-104.9382 136.3512,-94.6944 138.2776,-85.7046"/>
<polygon fill="#191970" stroke="#191970" points="141.7607,-86.1541 140.4337,-75.6427 134.916,-84.6873 141.7607,-86.1541"/>
</g>
<!-- Node8 -->
<g id="node9" class="node">
<title>Node8</title>
<polygon fill="#ffffff" stroke="#bfbfbf" points="196,-56.5 196,-75.5 245,-75.5 245,-56.5 196,-56.5"/>
<text text-anchor="middle" x="220.5" y="-63.5" font-family="Helvetica,sans-Serif" font-size="10.00" fill="#000000">string.h</text>
</g>
<!-- Node7&#45;&gt;Node8 -->
<g id="edge9" class="edge">
<title>Node7&#45;&gt;Node8</title>
<path fill="none" stroke="#191970" d="M220.5,-112.2455C220.5,-104.9382 220.5,-94.6944 220.5,-85.7046"/>
<polygon fill="#191970" stroke="#191970" points="224.0001,-85.6426 220.5,-75.6427 217.0001,-85.6427 224.0001,-85.6426"/>
</g>
<!-- Node9 -->
<g id="node10" class="node">
<title>Node9</title>
<polygon fill="#ffffff" stroke="#bfbfbf" points="263,-56.5 263,-75.5 340,-75.5 340,-56.5 263,-56.5"/>
<text text-anchor="middle" x="301.5" y="-63.5" font-family="Helvetica,sans-Serif" font-size="10.00" fill="#000000">user_config.h</text>
</g>
<!-- Node7&#45;&gt;Node9 -->
<g id="edge10" class="edge">
<title>Node7&#45;&gt;Node9</title>
<path fill="none" stroke="#191970" d="M234.6091,-112.2455C246.9209,-103.7337 264.9958,-91.2375 279.2538,-81.3801"/>
<polygon fill="#191970" stroke="#191970" points="281.3174,-84.2085 287.5526,-75.6427 277.3366,-78.4506 281.3174,-84.2085"/>
</g>
</g>
</svg>
