<?xml version="1.0" encoding="UTF-8" standalone="no"?>
<!DOCTYPE svg PUBLIC "-//W3C//DTD SVG 1.1//EN"
 "http://www.w3.org/Graphics/SVG/1.1/DTD/svg11.dtd">
<!-- Generated by graphviz version 2.41.20170323.1842 (20170323.1842)
 -->
<!-- Title: sdk/include/at_custom.h Pages: 1 -->
<svg width="135pt" height="140pt"
 viewBox="0.00 0.00 134.50 140.00" xmlns="http://www.w3.org/2000/svg" xmlns:xlink="http://www.w3.org/1999/xlink">
<g id="graph0" class="graph" transform="scale(1 1) rotate(0) translate(4 136)">
<title>sdk/include/at_custom.h</title>
<polygon fill="#ffffff" stroke="transparent" points="-4,4 -4,-136 130.5,-136 130.5,4 -4,4"/>
<!-- Node0 -->
<g id="node1" class="node">
<title>Node0</title>
<polygon fill="#bfbfbf" stroke="#000000" points="0,-112.5 0,-131.5 124,-131.5 124,-112.5 0,-112.5"/>
<text text-anchor="middle" x="62" y="-119.5" font-family="Helvetica,sans-Serif" font-size="10.00" fill="#000000">sdk/include/at_custom.h</text>
</g>
<!-- Node1 -->
<g id="node2" class="node">
<title>Node1</title>
<g id="a_node2"><a xlink:href="c__types_8h.html" target="_top" xlink:title="c_types.h">
<polygon fill="#ffffff" stroke="#000000" points="32.5,-56.5 32.5,-75.5 91.5,-75.5 91.5,-56.5 32.5,-56.5"/>
<text text-anchor="middle" x="62" y="-63.5" font-family="Helvetica,sans-Serif" font-size="10.00" fill="#000000">c_types.h</text>
</a>
</g>
</g>
<!-- Node0&#45;&gt;Node1 -->
<g id="edge1" class="edge">
<title>Node0&#45;&gt;Node1</title>
<path fill="none" stroke="#191970" d="M62,-112.2455C62,-104.9382 62,-94.6944 62,-85.7046"/>
<polygon fill="#191970" stroke="#191970" points="65.5001,-85.6426 62,-75.6427 58.5001,-85.6427 65.5001,-85.6426"/>
</g>
<!-- Node2 -->
<g id="node3" class="node">
<title>Node2</title>
<polygon fill="#ffffff" stroke="#bfbfbf" points="2.5,-.5 2.5,-19.5 51.5,-19.5 51.5,-.5 2.5,-.5"/>
<text text-anchor="middle" x="27" y="-7.5" font-family="Helvetica,sans-Serif" font-size="10.00" fill="#000000">stdint.h</text>
</g>
<!-- Node1&#45;&gt;Node2 -->
<g id="edge2" class="edge">
<title>Node1&#45;&gt;Node2</title>
<path fill="none" stroke="#191970" d="M55.9035,-56.2455C51.0855,-48.5367 44.2249,-37.5598 38.3968,-28.2348"/>
<polygon fill="#191970" stroke="#191970" points="41.2947,-26.2677 33.0267,-19.6427 35.3587,-29.9777 41.2947,-26.2677"/>
</g>
<!-- Node3 -->
<g id="node4" class="node">
<title>Node3</title>
<polygon fill="#ffffff" stroke="#bfbfbf" points="69.5,-.5 69.5,-19.5 126.5,-19.5 126.5,-.5 69.5,-.5"/>
<text text-anchor="middle" x="98" y="-7.5" font-family="Helvetica,sans-Serif" font-size="10.00" fill="#000000">stdbool.h</text>
</g>
<!-- Node1&#45;&gt;Node3 -->
<g id="edge3" class="edge">
<title>Node1&#45;&gt;Node3</title>
<path fill="none" stroke="#191970" d="M68.2707,-56.2455C73.2264,-48.5367 80.283,-37.5598 86.2776,-28.2348"/>
<polygon fill="#191970" stroke="#191970" points="89.3376,-29.9471 91.8011,-19.6427 83.4494,-26.1618 89.3376,-29.9471"/>
</g>
</g>
</svg>
