<?xml version="1.0" encoding="UTF-8" standalone="no"?>
<!DOCTYPE svg PUBLIC "-//W3C//DTD SVG 1.1//EN"
 "http://www.w3.org/Graphics/SVG/1.1/DTD/svg11.dtd">
<!-- Generated by graphviz version 2.41.20170323.1842 (20170323.1842)
 -->
<!-- Title: user/base64.c Pages: 1 -->
<svg width="958pt" height="644pt"
 viewBox="0.00 0.00 958.00 644.00" xmlns="http://www.w3.org/2000/svg" xmlns:xlink="http://www.w3.org/1999/xlink">
<g id="graph0" class="graph" transform="scale(1 1) rotate(0) translate(4 640)">
<title>user/base64.c</title>
<polygon fill="#ffffff" stroke="transparent" points="-4,4 -4,-640 954,-640 954,4 -4,4"/>
<!-- Node0 -->
<g id="node1" class="node">
<title>Node0</title>
<polygon fill="#bfbfbf" stroke="#000000" points="403,-616.5 403,-635.5 482,-635.5 482,-616.5 403,-616.5"/>
<text text-anchor="middle" x="442.5" y="-623.5" font-family="Helvetica,sans-Serif" font-size="10.00" fill="#000000">user/base64.c</text>
</g>
<!-- Node1 -->
<g id="node2" class="node">
<title>Node1</title>
<g id="a_node2"><a xlink:href="esp8266_8h.html" target="_top" xlink:title="esp8266.h">
<polygon fill="#ffffff" stroke="#000000" points="372,-560.5 372,-579.5 435,-579.5 435,-560.5 372,-560.5"/>
<text text-anchor="middle" x="403.5" y="-567.5" font-family="Helvetica,sans-Serif" font-size="10.00" fill="#000000">esp8266.h</text>
</a>
</g>
</g>
<!-- Node0&#45;&gt;Node1 -->
<g id="edge1" class="edge">
<title>Node0&#45;&gt;Node1</title>
<path fill="none" stroke="#191970" d="M435.7067,-616.2455C430.2822,-608.4564 422.5339,-597.3308 415.9967,-587.9439"/>
<polygon fill="#191970" stroke="#191970" points="418.8025,-585.8485 410.2154,-579.6427 413.0583,-589.849 418.8025,-585.8485"/>
</g>
<!-- Node28 -->
<g id="node29" class="node">
<title>Node28</title>
<g id="a_node29"><a xlink:href="base64_8h.html" target="_top" xlink:title="base64.h">
<polygon fill="#ffffff" stroke="#000000" points="453.5,-560.5 453.5,-579.5 511.5,-579.5 511.5,-560.5 453.5,-560.5"/>
<text text-anchor="middle" x="482.5" y="-567.5" font-family="Helvetica,sans-Serif" font-size="10.00" fill="#000000">base64.h</text>
</a>
</g>
</g>
<!-- Node0&#45;&gt;Node28 -->
<g id="edge38" class="edge">
<title>Node0&#45;&gt;Node28</title>
<path fill="none" stroke="#191970" d="M449.4675,-616.2455C455.0311,-608.4564 462.978,-597.3308 469.6829,-587.9439"/>
<polygon fill="#191970" stroke="#191970" points="472.648,-589.8144 475.6124,-579.6427 466.9519,-585.7457 472.648,-589.8144"/>
</g>
<!-- Node2 -->
<g id="node3" class="node">
<title>Node2</title>
<polygon fill="#ffffff" stroke="#bfbfbf" points="0,-504.5 0,-523.5 49,-523.5 49,-504.5 0,-504.5"/>
<text text-anchor="middle" x="24.5" y="-511.5" font-family="Helvetica,sans-Serif" font-size="10.00" fill="#000000">ctype.h</text>
</g>
<!-- Node1&#45;&gt;Node2 -->
<g id="edge2" class="edge">
<title>Node1&#45;&gt;Node2</title>
<path fill="none" stroke="#191970" d="M371.8281,-567.4161C312.4069,-562.2177 180.0748,-548.9819 59.4164,-523.9059"/>
<polygon fill="#191970" stroke="#191970" points="59.7774,-520.405 49.27,-521.7629 58.3308,-527.2539 59.7774,-520.405"/>
</g>
<!-- Node3 -->
<g id="node4" class="node">
<title>Node3</title>
<polygon fill="#ffffff" stroke="#bfbfbf" points="67.5,-504.5 67.5,-523.5 113.5,-523.5 113.5,-504.5 67.5,-504.5"/>
<text text-anchor="middle" x="90.5" y="-511.5" font-family="Helvetica,sans-Serif" font-size="10.00" fill="#000000">stdio.h</text>
</g>
<!-- Node1&#45;&gt;Node3 -->
<g id="edge3" class="edge">
<title>Node1&#45;&gt;Node3</title>
<path fill="none" stroke="#191970" d="M371.6065,-566.2643C320.9289,-560.0085 218.8065,-546.0997 123.5963,-524.0068"/>
<polygon fill="#191970" stroke="#191970" points="124.3498,-520.5886 113.8136,-521.7016 122.7442,-527.402 124.3498,-520.5886"/>
</g>
<!-- Node4 -->
<g id="node5" class="node">
<title>Node4</title>
<polygon fill="#ffffff" stroke="#bfbfbf" points="131.5,-504.5 131.5,-523.5 179.5,-523.5 179.5,-504.5 131.5,-504.5"/>
<text text-anchor="middle" x="155.5" y="-511.5" font-family="Helvetica,sans-Serif" font-size="10.00" fill="#000000">stdlib.h</text>
</g>
<!-- Node1&#45;&gt;Node4 -->
<g id="edge4" class="edge">
<title>Node1&#45;&gt;Node4</title>
<path fill="none" stroke="#191970" d="M371.7421,-563.4739C330.533,-554.9071 256.4527,-539.1711 193.5,-524 192.2316,-523.6943 190.9407,-523.3785 189.6376,-523.0558"/>
<polygon fill="#191970" stroke="#191970" points="190.1386,-519.5719 179.5845,-520.4998 188.4137,-526.356 190.1386,-519.5719"/>
</g>
<!-- Node5 -->
<g id="node6" class="node">
<title>Node5</title>
<polygon fill="#ffffff" stroke="#bfbfbf" points="222,-56.5 222,-75.5 271,-75.5 271,-56.5 222,-56.5"/>
<text text-anchor="middle" x="246.5" y="-63.5" font-family="Helvetica,sans-Serif" font-size="10.00" fill="#000000">string.h</text>
</g>
<!-- Node1&#45;&gt;Node5 -->
<g id="edge5" class="edge">
<title>Node1&#45;&gt;Node5</title>
<path fill="none" stroke="#191970" d="M371.573,-566.4186C316.0341,-558.2243 207.5,-532.6599 207.5,-458 207.5,-458 207.5,-458 207.5,-178 207.5,-143.5398 224.1696,-106.2666 235.7124,-84.5877"/>
<polygon fill="#191970" stroke="#191970" points="238.8006,-86.2355 240.5767,-75.7906 232.6748,-82.8481 238.8006,-86.2355"/>
</g>
<!-- Node6 -->
<g id="node7" class="node">
<title>Node6</title>
<g id="a_node7"><a xlink:href="c__types_8h.html" target="_top" xlink:title="c_types.h">
<polygon fill="#ffffff" stroke="#000000" points="559,-56.5 559,-75.5 618,-75.5 618,-56.5 559,-56.5"/>
<text text-anchor="middle" x="588.5" y="-63.5" font-family="Helvetica,sans-Serif" font-size="10.00" fill="#000000">c_types.h</text>
</a>
</g>
</g>
<!-- Node1&#45;&gt;Node6 -->
<g id="edge6" class="edge">
<title>Node1&#45;&gt;Node6</title>
<path fill="none" stroke="#191970" d="M435.2911,-562.162C485.5456,-549.7438 578.409,-526.671 585.5,-524 645.7679,-501.2989 714.5,-522.4015 714.5,-458 714.5,-458 714.5,-458 714.5,-178 714.5,-129.3709 661.4233,-96.6863 624.167,-79.7339"/>
<polygon fill="#191970" stroke="#191970" points="625.1728,-76.3542 614.6073,-75.5659 622.3751,-82.7709 625.1728,-76.3542"/>
</g>
<!-- Node9 -->
<g id="node10" class="node">
<title>Node9</title>
<g id="a_node10"><a xlink:href="ets__sys_8h.html" target="_top" xlink:title="ets_sys.h">
<polygon fill="#ffffff" stroke="#000000" points="609,-112.5 609,-131.5 668,-131.5 668,-112.5 609,-112.5"/>
<text text-anchor="middle" x="638.5" y="-119.5" font-family="Helvetica,sans-Serif" font-size="10.00" fill="#000000">ets_sys.h</text>
</a>
</g>
</g>
<!-- Node1&#45;&gt;Node9 -->
<g id="edge9" class="edge">
<title>Node1&#45;&gt;Node9</title>
<path fill="none" stroke="#191970" d="M435.0833,-560.5238C506.9453,-538.5121 676.5,-483.8388 676.5,-458 676.5,-458 676.5,-458 676.5,-234 676.5,-199.6118 660.2366,-162.2832 648.989,-140.5791"/>
<polygon fill="#191970" stroke="#191970" points="651.931,-138.6605 644.107,-131.5166 645.7683,-141.9804 651.931,-138.6605"/>
</g>
<!-- Node11 -->
<g id="node12" class="node">
<title>Node11</title>
<g id="a_node12"><a xlink:href="gpio_8h.html" target="_top" xlink:title="gpio.h">
<polygon fill="#ffffff" stroke="#000000" points="273.5,-448.5 273.5,-467.5 317.5,-467.5 317.5,-448.5 273.5,-448.5"/>
<text text-anchor="middle" x="295.5" y="-455.5" font-family="Helvetica,sans-Serif" font-size="10.00" fill="#000000">gpio.h</text>
</a>
</g>
</g>
<!-- Node1&#45;&gt;Node11 -->
<g id="edge12" class="edge">
<title>Node1&#45;&gt;Node11</title>
<path fill="none" stroke="#191970" d="M394.292,-560.4509C375.9601,-541.4401 334.6908,-498.6423 311.7155,-474.816"/>
<polygon fill="#191970" stroke="#191970" points="314.1456,-472.2939 304.6847,-467.5249 309.1066,-477.1528 314.1456,-472.2939"/>
</g>
<!-- Node12 -->
<g id="node13" class="node">
<title>Node12</title>
<g id="a_node13"><a xlink:href="sdk_2include_2mem_8h.html" target="_top" xlink:title="mem.h">
<polygon fill="#ffffff" stroke="#000000" points="743,-504.5 743,-523.5 790,-523.5 790,-504.5 743,-504.5"/>
<text text-anchor="middle" x="766.5" y="-511.5" font-family="Helvetica,sans-Serif" font-size="10.00" fill="#000000">mem.h</text>
</a>
</g>
</g>
<!-- Node1&#45;&gt;Node12 -->
<g id="edge13" class="edge">
<title>Node1&#45;&gt;Node12</title>
<path fill="none" stroke="#191970" d="M435.2077,-561.891C438.3373,-561.2037 441.474,-560.559 444.5,-560 569.6156,-536.8888 603.5985,-548.2421 728.5,-524 729.9649,-523.7157 731.457,-523.4069 732.9608,-523.08"/>
<polygon fill="#191970" stroke="#191970" points="733.971,-526.4376 742.8938,-520.7249 732.356,-519.6264 733.971,-526.4376"/>
</g>
<!-- Node13 -->
<g id="node14" class="node">
<title>Node13</title>
<g id="a_node14"><a xlink:href="osapi_8h.html" target="_top" xlink:title="osapi.h">
<polygon fill="#ffffff" stroke="#000000" points="287,-112.5 287,-131.5 336,-131.5 336,-112.5 287,-112.5"/>
<text text-anchor="middle" x="311.5" y="-119.5" font-family="Helvetica,sans-Serif" font-size="10.00" fill="#000000">osapi.h</text>
</a>
</g>
</g>
<!-- Node1&#45;&gt;Node13 -->
<g id="edge14" class="edge">
<title>Node1&#45;&gt;Node13</title>
<path fill="none" stroke="#191970" d="M371.9061,-562.779C325.7977,-550.1553 245.5,-519.3624 245.5,-458 245.5,-458 245.5,-458 245.5,-234 245.5,-195.944 274.1331,-159.4306 293.6802,-138.9377"/>
<polygon fill="#191970" stroke="#191970" points="296.3422,-141.2238 300.896,-131.6575 291.3705,-136.2961 296.3422,-141.2238"/>
</g>
<!-- Node15 -->
<g id="node16" class="node">
<title>Node15</title>
<g id="a_node16"><a xlink:href="user__interface_8h.html" target="_top" xlink:title="user_interface.h">
<polygon fill="#ffffff" stroke="#000000" points="395.5,-504.5 395.5,-523.5 483.5,-523.5 483.5,-504.5 395.5,-504.5"/>
<text text-anchor="middle" x="439.5" y="-511.5" font-family="Helvetica,sans-Serif" font-size="10.00" fill="#000000">user_interface.h</text>
</a>
</g>
</g>
<!-- Node1&#45;&gt;Node15 -->
<g id="edge17" class="edge">
<title>Node1&#45;&gt;Node15</title>
<path fill="none" stroke="#191970" d="M409.7707,-560.2455C414.7264,-552.5367 421.783,-541.5598 427.7776,-532.2348"/>
<polygon fill="#191970" stroke="#191970" points="430.8376,-533.9471 433.3011,-523.6427 424.9494,-530.1618 430.8376,-533.9471"/>
</g>
<!-- Node26 -->
<g id="node27" class="node">
<title>Node26</title>
<g id="a_node27"><a xlink:href="upgrade_8h.html" target="_top" xlink:title="upgrade.h">
<polygon fill="#ffffff" stroke="#000000" points="808.5,-504.5 808.5,-523.5 870.5,-523.5 870.5,-504.5 808.5,-504.5"/>
<text text-anchor="middle" x="839.5" y="-511.5" font-family="Helvetica,sans-Serif" font-size="10.00" fill="#000000">upgrade.h</text>
</a>
</g>
</g>
<!-- Node1&#45;&gt;Node26 -->
<g id="edge36" class="edge">
<title>Node1&#45;&gt;Node26</title>
<path fill="none" stroke="#191970" d="M435.1935,-561.8115C438.326,-561.1403 441.4672,-560.5211 444.5,-560 597.5916,-533.6976 641.4905,-550.5764 798.1576,-524.0172"/>
<polygon fill="#191970" stroke="#191970" points="798.8903,-527.4426 808.1484,-522.2911 797.6985,-520.5448 798.8903,-527.4426"/>
</g>
<!-- Node27 -->
<g id="node28" class="node">
<title>Node27</title>
<g id="a_node28"><a xlink:href="platform_8h.html" target="_top" xlink:title="platform.h">
<polygon fill="#ffffff" stroke="#000000" points="889,-504.5 889,-523.5 950,-523.5 950,-504.5 889,-504.5"/>
<text text-anchor="middle" x="919.5" y="-511.5" font-family="Helvetica,sans-Serif" font-size="10.00" fill="#000000">platform.h</text>
</a>
</g>
</g>
<!-- Node1&#45;&gt;Node27 -->
<g id="edge37" class="edge">
<title>Node1&#45;&gt;Node27</title>
<path fill="none" stroke="#191970" d="M435.1837,-561.7527C438.3181,-561.0934 441.4625,-560.493 444.5,-560 632.716,-529.4518 686.2797,-554.7335 878.4443,-523.9124"/>
<polygon fill="#191970" stroke="#191970" points="879.2905,-527.3206 888.595,-522.2532 878.1613,-520.4122 879.2905,-527.3206"/>
</g>
<!-- Node7 -->
<g id="node8" class="node">
<title>Node7</title>
<polygon fill="#ffffff" stroke="#bfbfbf" points="528,-.5 528,-19.5 577,-19.5 577,-.5 528,-.5"/>
<text text-anchor="middle" x="552.5" y="-7.5" font-family="Helvetica,sans-Serif" font-size="10.00" fill="#000000">stdint.h</text>
</g>
<!-- Node6&#45;&gt;Node7 -->
<g id="edge7" class="edge">
<title>Node6&#45;&gt;Node7</title>
<path fill="none" stroke="#191970" d="M582.2293,-56.2455C577.2736,-48.5367 570.217,-37.5598 564.2224,-28.2348"/>
<polygon fill="#191970" stroke="#191970" points="567.0506,-26.1618 558.6989,-19.6427 561.1624,-29.9471 567.0506,-26.1618"/>
</g>
<!-- Node8 -->
<g id="node9" class="node">
<title>Node8</title>
<polygon fill="#ffffff" stroke="#bfbfbf" points="595,-.5 595,-19.5 652,-19.5 652,-.5 595,-.5"/>
<text text-anchor="middle" x="623.5" y="-7.5" font-family="Helvetica,sans-Serif" font-size="10.00" fill="#000000">stdbool.h</text>
</g>
<!-- Node6&#45;&gt;Node8 -->
<g id="edge8" class="edge">
<title>Node6&#45;&gt;Node8</title>
<path fill="none" stroke="#191970" d="M594.5965,-56.2455C599.4145,-48.5367 606.2751,-37.5598 612.1032,-28.2348"/>
<polygon fill="#191970" stroke="#191970" points="615.1413,-29.9777 617.4733,-19.6427 609.2053,-26.2677 615.1413,-29.9777"/>
</g>
<!-- Node9&#45;&gt;Node6 -->
<g id="edge10" class="edge">
<title>Node9&#45;&gt;Node6</title>
<path fill="none" stroke="#191970" d="M629.7907,-112.2455C622.6927,-104.2958 612.4916,-92.8706 604.005,-83.3656"/>
<polygon fill="#191970" stroke="#191970" points="606.3805,-80.771 597.1095,-75.6427 601.1589,-85.4331 606.3805,-80.771"/>
</g>
<!-- Node10 -->
<g id="node11" class="node">
<title>Node10</title>
<g id="a_node11"><a xlink:href="eagle__soc_8h.html" target="_top" xlink:title="eagle_soc.h">
<polygon fill="#ffffff" stroke="#000000" points="636.5,-56.5 636.5,-75.5 706.5,-75.5 706.5,-56.5 636.5,-56.5"/>
<text text-anchor="middle" x="671.5" y="-63.5" font-family="Helvetica,sans-Serif" font-size="10.00" fill="#000000">eagle_soc.h</text>
</a>
</g>
</g>
<!-- Node9&#45;&gt;Node10 -->
<g id="edge11" class="edge">
<title>Node9&#45;&gt;Node10</title>
<path fill="none" stroke="#191970" d="M644.2482,-112.2455C648.7435,-104.617 655.1248,-93.7881 660.5825,-84.5267"/>
<polygon fill="#191970" stroke="#191970" points="663.7561,-86.035 665.8177,-75.6427 657.7253,-82.4811 663.7561,-86.035"/>
</g>
<!-- Node13&#45;&gt;Node5 -->
<g id="edge15" class="edge">
<title>Node13&#45;&gt;Node5</title>
<path fill="none" stroke="#191970" d="M300.1779,-112.2455C290.5777,-103.9746 276.6108,-91.9416 265.3305,-82.2232"/>
<polygon fill="#191970" stroke="#191970" points="267.553,-79.5182 257.6924,-75.6427 262.984,-84.8214 267.553,-79.5182"/>
</g>
<!-- Node14 -->
<g id="node15" class="node">
<title>Node14</title>
<polygon fill="#ffffff" stroke="#bfbfbf" points="327,-56.5 327,-75.5 404,-75.5 404,-56.5 327,-56.5"/>
<text text-anchor="middle" x="365.5" y="-63.5" font-family="Helvetica,sans-Serif" font-size="10.00" fill="#000000">user_config.h</text>
</g>
<!-- Node13&#45;&gt;Node14 -->
<g id="edge16" class="edge">
<title>Node13&#45;&gt;Node14</title>
<path fill="none" stroke="#191970" d="M320.9061,-112.2455C328.6493,-104.2155 339.812,-92.6394 349.0318,-83.0781"/>
<polygon fill="#191970" stroke="#191970" points="351.7798,-85.2706 356.2017,-75.6427 346.7409,-80.4117 351.7798,-85.2706"/>
</g>
<!-- Node15&#45;&gt;Node11 -->
<g id="edge35" class="edge">
<title>Node15&#45;&gt;Node11</title>
<path fill="none" stroke="#191970" d="M414.7455,-504.3733C390.5021,-494.9453 353.4637,-480.5414 327.1045,-470.2906"/>
<polygon fill="#191970" stroke="#191970" points="328.1625,-466.9468 317.5739,-466.5843 325.6253,-473.4708 328.1625,-466.9468"/>
</g>
<!-- Node15&#45;&gt;Node14 -->
<g id="edge33" class="edge">
<title>Node15&#45;&gt;Node14</title>
<path fill="none" stroke="#191970" d="M452.2248,-504.2466C462.0407,-495.8582 474.8633,-482.7955 480.5,-468 483.6645,-459.6935 482.755,-456.5981 480.5,-448 470.2767,-409.0201 391.5,-330.2983 391.5,-290 391.5,-290 391.5,-290 391.5,-178 391.5,-144.7204 380.4729,-107.2857 372.7813,-85.2224"/>
<polygon fill="#191970" stroke="#191970" points="376.0329,-83.9219 369.3364,-75.7117 369.4513,-86.3059 376.0329,-83.9219"/>
</g>
<!-- Node16 -->
<g id="node17" class="node">
<title>Node16</title>
<g id="a_node17"><a xlink:href="os__type_8h.html" target="_top" xlink:title="os_type.h">
<polygon fill="#ffffff" stroke="#000000" points="588.5,-392.5 588.5,-411.5 648.5,-411.5 648.5,-392.5 588.5,-392.5"/>
<text text-anchor="middle" x="618.5" y="-399.5" font-family="Helvetica,sans-Serif" font-size="10.00" fill="#000000">os_type.h</text>
</a>
</g>
</g>
<!-- Node15&#45;&gt;Node16 -->
<g id="edge18" class="edge">
<title>Node15&#45;&gt;Node16</title>
<path fill="none" stroke="#191970" d="M483.8854,-508.2897C530.1138,-501.353 598.0603,-488.0351 614.5,-468 624.9447,-455.271 624.9408,-436.0862 622.918,-421.6761"/>
<polygon fill="#191970" stroke="#191970" points="626.35,-420.9859 621.1173,-411.7734 619.4629,-422.2383 626.35,-420.9859"/>
</g>
<!-- Node17 -->
<g id="node18" class="node">
<title>Node17</title>
<g id="a_node18"><a xlink:href="esp-open-lwip_2include_2lwip_2ip__addr_8h.html" target="_top" xlink:title="lwip/ip_addr.h">
<polygon fill="#ffffff" stroke="#000000" points="527.5,-448.5 527.5,-467.5 605.5,-467.5 605.5,-448.5 527.5,-448.5"/>
<text text-anchor="middle" x="566.5" y="-455.5" font-family="Helvetica,sans-Serif" font-size="10.00" fill="#000000">lwip/ip_addr.h</text>
</a>
</g>
</g>
<!-- Node15&#45;&gt;Node17 -->
<g id="edge20" class="edge">
<title>Node15&#45;&gt;Node17</title>
<path fill="none" stroke="#191970" d="M461.3321,-504.3733C481.8103,-495.3435 512.6399,-481.7494 535.6319,-471.6111"/>
<polygon fill="#191970" stroke="#191970" points="537.215,-474.7383 544.9528,-467.5011 534.3907,-468.3333 537.215,-474.7383"/>
</g>
<!-- Node24 -->
<g id="node25" class="node">
<title>Node24</title>
<g id="a_node25"><a xlink:href="esp-open-sdk_2sdk_2include_2queue_8h.html" target="_top" xlink:title="queue.h">
<polygon fill="#ffffff" stroke="#000000" points="336,-448.5 336,-467.5 389,-467.5 389,-448.5 336,-448.5"/>
<text text-anchor="middle" x="362.5" y="-455.5" font-family="Helvetica,sans-Serif" font-size="10.00" fill="#000000">queue.h</text>
</a>
</g>
</g>
<!-- Node15&#45;&gt;Node24 -->
<g id="edge32" class="edge">
<title>Node15&#45;&gt;Node24</title>
<path fill="none" stroke="#191970" d="M426.0876,-504.2455C414.4943,-495.814 397.5252,-483.4729 384.0322,-473.6598"/>
<polygon fill="#191970" stroke="#191970" points="385.9047,-470.6938 375.7587,-467.6427 381.7874,-476.355 385.9047,-470.6938"/>
</g>
<!-- Node25 -->
<g id="node26" class="node">
<title>Node25</title>
<g id="a_node26"><a xlink:href="spi__flash_8h.html" target="_top" xlink:title="spi_flash.h">
<polygon fill="#ffffff" stroke="#000000" points="407.5,-448.5 407.5,-467.5 471.5,-467.5 471.5,-448.5 407.5,-448.5"/>
<text text-anchor="middle" x="439.5" y="-455.5" font-family="Helvetica,sans-Serif" font-size="10.00" fill="#000000">spi_flash.h</text>
</a>
</g>
</g>
<!-- Node15&#45;&gt;Node25 -->
<g id="edge34" class="edge">
<title>Node15&#45;&gt;Node25</title>
<path fill="none" stroke="#191970" d="M439.5,-504.2455C439.5,-496.9382 439.5,-486.6944 439.5,-477.7046"/>
<polygon fill="#191970" stroke="#191970" points="443.0001,-477.6426 439.5,-467.6427 436.0001,-477.6427 443.0001,-477.6426"/>
</g>
<!-- Node16&#45;&gt;Node9 -->
<g id="edge19" class="edge">
<title>Node16&#45;&gt;Node9</title>
<path fill="none" stroke="#191970" d="M621.4511,-392.2168C627.0144,-372.8801 638.5,-328.3189 638.5,-290 638.5,-290 638.5,-290 638.5,-234 638.5,-201.7116 638.5,-164.1872 638.5,-141.8048"/>
<polygon fill="#191970" stroke="#191970" points="642.0001,-141.5883 638.5,-131.5884 635.0001,-141.5884 642.0001,-141.5883"/>
</g>
<!-- Node18 -->
<g id="node19" class="node">
<title>Node18</title>
<g id="a_node19"><a xlink:href="opt_8h.html" target="_top" xlink:title="lwip/opt.h">
<polygon fill="#ffffff" stroke="#000000" points="502,-336.5 502,-355.5 561,-355.5 561,-336.5 502,-336.5"/>
<text text-anchor="middle" x="531.5" y="-343.5" font-family="Helvetica,sans-Serif" font-size="10.00" fill="#000000">lwip/opt.h</text>
</a>
</g>
</g>
<!-- Node17&#45;&gt;Node18 -->
<g id="edge21" class="edge">
<title>Node17&#45;&gt;Node18</title>
<path fill="none" stroke="#191970" d="M563.5159,-448.4509C557.7817,-430.1013 545.1221,-389.5908 537.5529,-365.3693"/>
<polygon fill="#191970" stroke="#191970" points="540.8,-364.0257 534.4765,-355.5249 534.1187,-366.1137 540.8,-364.0257"/>
</g>
<!-- Node23 -->
<g id="node24" class="node">
<title>Node23</title>
<g id="a_node24"><a xlink:href="def_8h.html" target="_top" xlink:title="lwip/def.h">
<polygon fill="#ffffff" stroke="#000000" points="473,-392.5 473,-411.5 532,-411.5 532,-392.5 473,-392.5"/>
<text text-anchor="middle" x="502.5" y="-399.5" font-family="Helvetica,sans-Serif" font-size="10.00" fill="#000000">lwip/def.h</text>
</a>
</g>
</g>
<!-- Node17&#45;&gt;Node23 -->
<g id="edge29" class="edge">
<title>Node17&#45;&gt;Node23</title>
<path fill="none" stroke="#191970" d="M555.3521,-448.2455C545.9913,-440.0549 532.4142,-428.1749 521.3651,-418.5069"/>
<polygon fill="#191970" stroke="#191970" points="523.3508,-415.5937 513.5202,-411.6427 518.7412,-420.8618 523.3508,-415.5937"/>
</g>
<!-- Node19 -->
<g id="node20" class="node">
<title>Node19</title>
<g id="a_node20"><a xlink:href="lwipopts_8h.html" target="_top" xlink:title="lwipopts.h">
<polygon fill="#ffffff" stroke="#000000" points="549,-280.5 549,-299.5 610,-299.5 610,-280.5 549,-280.5"/>
<text text-anchor="middle" x="579.5" y="-287.5" font-family="Helvetica,sans-Serif" font-size="10.00" fill="#000000">lwipopts.h</text>
</a>
</g>
</g>
<!-- Node18&#45;&gt;Node19 -->
<g id="edge22" class="edge">
<title>Node18&#45;&gt;Node19</title>
<path fill="none" stroke="#191970" d="M539.861,-336.2455C546.675,-328.2958 556.4681,-316.8706 564.6152,-307.3656"/>
<polygon fill="#191970" stroke="#191970" points="567.3843,-309.513 571.2349,-299.6427 562.0695,-304.9575 567.3843,-309.513"/>
</g>
<!-- Node20 -->
<g id="node21" class="node">
<title>Node20</title>
<g id="a_node21"><a xlink:href="esp-open-sdk_2esp-open-lwip_2include_2lwip_2debug_8h.html" target="_top" xlink:title="lwip/debug.h">
<polygon fill="#ffffff" stroke="#000000" points="458,-280.5 458,-299.5 531,-299.5 531,-280.5 458,-280.5"/>
<text text-anchor="middle" x="494.5" y="-287.5" font-family="Helvetica,sans-Serif" font-size="10.00" fill="#000000">lwip/debug.h</text>
</a>
</g>
</g>
<!-- Node18&#45;&gt;Node20 -->
<g id="edge23" class="edge">
<title>Node18&#45;&gt;Node20</title>
<path fill="none" stroke="#191970" d="M525.0551,-336.2455C519.9618,-328.5367 512.7092,-317.5598 506.548,-308.2348"/>
<polygon fill="#191970" stroke="#191970" points="509.3038,-306.0566 500.8711,-299.6427 503.4635,-309.9155 509.3038,-306.0566"/>
</g>
<!-- Node21 -->
<g id="node22" class="node">
<title>Node21</title>
<g id="a_node22"><a xlink:href="arch_8h.html" target="_top" xlink:title="lwip/arch.h">
<polygon fill="#ffffff" stroke="#000000" points="462.5,-224.5 462.5,-243.5 526.5,-243.5 526.5,-224.5 462.5,-224.5"/>
<text text-anchor="middle" x="494.5" y="-231.5" font-family="Helvetica,sans-Serif" font-size="10.00" fill="#000000">lwip/arch.h</text>
</a>
</g>
</g>
<!-- Node20&#45;&gt;Node21 -->
<g id="edge24" class="edge">
<title>Node20&#45;&gt;Node21</title>
<path fill="none" stroke="#191970" d="M494.5,-280.2455C494.5,-272.9382 494.5,-262.6944 494.5,-253.7046"/>
<polygon fill="#191970" stroke="#191970" points="498.0001,-253.6426 494.5,-243.6427 491.0001,-253.6427 498.0001,-253.6426"/>
</g>
<!-- Node22 -->
<g id="node23" class="node">
<title>Node22</title>
<g id="a_node23"><a xlink:href="cc_8h.html" target="_top" xlink:title="arch/cc.h">
<polygon fill="#ffffff" stroke="#000000" points="488,-168.5 488,-187.5 545,-187.5 545,-168.5 488,-168.5"/>
<text text-anchor="middle" x="516.5" y="-175.5" font-family="Helvetica,sans-Serif" font-size="10.00" fill="#000000">arch/cc.h</text>
</a>
</g>
</g>
<!-- Node21&#45;&gt;Node22 -->
<g id="edge25" class="edge">
<title>Node21&#45;&gt;Node22</title>
<path fill="none" stroke="#191970" d="M498.3321,-224.2455C501.2659,-216.7776 505.4047,-206.2427 508.991,-197.1137"/>
<polygon fill="#191970" stroke="#191970" points="512.3129,-198.23 512.7118,-187.6427 505.7976,-195.6704 512.3129,-198.23"/>
</g>
<!-- Node22&#45;&gt;Node6 -->
<g id="edge26" class="edge">
<title>Node22&#45;&gt;Node6</title>
<path fill="none" stroke="#191970" d="M522.6387,-168.4509C534.6474,-149.7707 561.4204,-108.1238 576.8796,-84.0761"/>
<polygon fill="#191970" stroke="#191970" points="579.9134,-85.8294 582.3769,-75.5249 574.0251,-82.044 579.9134,-85.8294"/>
</g>
<!-- Node22&#45;&gt;Node9 -->
<g id="edge27" class="edge">
<title>Node22&#45;&gt;Node9</title>
<path fill="none" stroke="#191970" d="M537.4725,-168.3733C557.0567,-159.3838 586.4961,-145.8706 608.551,-135.7471"/>
<polygon fill="#191970" stroke="#191970" points="610.1729,-138.8538 617.8011,-131.5011 607.2527,-132.4919 610.1729,-138.8538"/>
</g>
<!-- Node22&#45;&gt;Node13 -->
<g id="edge28" class="edge">
<title>Node22&#45;&gt;Node13</title>
<path fill="none" stroke="#191970" d="M487.9956,-170.2134C450.8528,-160.0671 385.9526,-142.3383 346.0512,-131.4384"/>
<polygon fill="#191970" stroke="#191970" points="346.803,-128.0156 336.2342,-128.7566 344.9584,-134.7682 346.803,-128.0156"/>
</g>
<!-- Node23&#45;&gt;Node18 -->
<g id="edge31" class="edge">
<title>Node23&#45;&gt;Node18</title>
<path fill="none" stroke="#191970" d="M507.5514,-392.2455C511.5019,-384.617 517.1097,-373.7881 521.9058,-364.5267"/>
<polygon fill="#191970" stroke="#191970" points="525.0159,-366.1321 526.5065,-355.6427 518.7999,-362.9131 525.0159,-366.1321"/>
</g>
<!-- Node23&#45;&gt;Node21 -->
<g id="edge30" class="edge">
<title>Node23&#45;&gt;Node21</title>
<path fill="none" stroke="#191970" d="M495.3486,-392.2262C483.0734,-374.7746 458.451,-336.6397 449.5,-300 447.3905,-291.3651 446.1435,-288.2308 449.5,-280 454.2156,-268.4363 463.3927,-258.2008 472.2362,-250.3383"/>
<polygon fill="#191970" stroke="#191970" points="474.6496,-252.8842 480.1263,-243.8147 470.1891,-247.4894 474.6496,-252.8842"/>
</g>
</g>
</svg>
