<?xml version="1.0" encoding="UTF-8" standalone="no"?>
<!DOCTYPE svg PUBLIC "-//W3C//DTD SVG 1.1//EN"
 "http://www.w3.org/Graphics/SVG/1.1/DTD/svg11.dtd">
<!-- Generated by graphviz version 2.39.20160927.1334 (20160927.1334)
 -->
<!-- Title: captdnsRecv Pages: 1 -->
<svg width="279pt" height="218pt"
 viewBox="0.00 0.00 279.00 218.00" xmlns="http://www.w3.org/2000/svg" xmlns:xlink="http://www.w3.org/1999/xlink">
<g id="graph0" class="graph" transform="scale(1 1) rotate(0) translate(4 214)">
<title>captdnsRecv</title>
<polygon fill="#ffffff" stroke="transparent" points="-4,4 -4,-214 275,-214 275,4 -4,4"/>
<!-- Node1 -->
<g id="node1" class="node">
<title>Node1</title>
<polygon fill="#bfbfbf" stroke="#000000" points="0,-114.5 0,-133.5 74,-133.5 74,-114.5 0,-114.5"/>
<text text-anchor="middle" x="37" y="-121.5" font-family="Helvetica,sans-Serif" font-size="10.00" fill="#000000">captdnsRecv</text>
</g>
<!-- Node2 -->
<g id="node2" class="node">
<title>Node2</title>
<g id="a_node2"><a xlink:href="captdns_8c.html#a88f42288d1b84cab204cca9e7f7aa9a3" target="_top" xlink:title="captdnsInit">
<polygon fill="#ffffff" stroke="#000000" points="110,-190.5 110,-209.5 175,-209.5 175,-190.5 110,-190.5"/>
<text text-anchor="middle" x="142.5" y="-197.5" font-family="Helvetica,sans-Serif" font-size="10.00" fill="#000000">captdnsInit</text>
</a>
</g>
</g>
<!-- Node1&#45;&gt;Node2 -->
<g id="edge1" class="edge">
<title>Node1&#45;&gt;Node2</title>
<path fill="none" stroke="#191970" d="M57.5263,-133.638C71.8577,-143.954 91.636,-159.544 110,-172 115.821,-175.948 122.492,-179.935 128.269,-183.899"/>
<polygon fill="#191970" stroke="#191970" points="126.295,-186.795 136.362,-190.1 130.553,-181.239 126.295,-186.795"/>
</g>
<!-- Node3 -->
<g id="node3" class="node">
<title>Node3</title>
<g id="a_node3"><a xlink:href="captdns_8c.html#a1cda566d8dc5035086e911607e45820b" target="_top" xlink:title="labelToStr">
<polygon fill="#ffffff" stroke="#000000" points="111.5,-152.5 111.5,-171.5 173.5,-171.5 173.5,-152.5 111.5,-152.5"/>
<text text-anchor="middle" x="142.5" y="-159.5" font-family="Helvetica,sans-Serif" font-size="10.00" fill="#000000">labelToStr</text>
</a>
</g>
</g>
<!-- Node1&#45;&gt;Node3 -->
<g id="edge3" class="edge">
<title>Node1&#45;&gt;Node3</title>
<path fill="none" stroke="#191970" d="M63.6221,-133.589C76.4915,-138.224 92.1367,-143.86 106.09,-148.885"/>
<polygon fill="#191970" stroke="#191970" points="105.292,-152.318 115.886,-152.414 107.664,-145.732 105.292,-152.318"/>
</g>
<!-- Node4 -->
<g id="node4" class="node">
<title>Node4</title>
<g id="a_node4"><a xlink:href="captdns_8c.html#a2b9dc30f1b5c34d34788f966f8baf579" target="_top" xlink:title="my_ntohs">
<polygon fill="#ffffff" stroke="#000000" points="211,-133.5 211,-152.5 271,-152.5 271,-133.5 211,-133.5"/>
<text text-anchor="middle" x="241" y="-140.5" font-family="Helvetica,sans-Serif" font-size="10.00" fill="#000000">my_ntohs</text>
</a>
</g>
</g>
<!-- Node1&#45;&gt;Node4 -->
<g id="edge5" class="edge">
<title>Node1&#45;&gt;Node4</title>
<path fill="none" stroke="#191970" d="M74.4167,-127.485C110.116,-130.81 163.747,-135.805 200.451,-139.223"/>
<polygon fill="#191970" stroke="#191970" points="200.511,-142.744 210.793,-140.187 201.16,-135.774 200.511,-142.744"/>
</g>
<!-- Node5 -->
<g id="node5" class="node">
<title>Node5</title>
<g id="a_node5"><a xlink:href="captdns_8c.html#a3b65a462da5bbfc4c310605b66952949" target="_top" xlink:title="setn16">
<polygon fill="#ffffff" stroke="#000000" points="119,-76.5 119,-95.5 166,-95.5 166,-76.5 119,-76.5"/>
<text text-anchor="middle" x="142.5" y="-83.5" font-family="Helvetica,sans-Serif" font-size="10.00" fill="#000000">setn16</text>
</a>
</g>
</g>
<!-- Node1&#45;&gt;Node5 -->
<g id="edge6" class="edge">
<title>Node1&#45;&gt;Node5</title>
<path fill="none" stroke="#191970" d="M63.6221,-114.411C77.41,-109.445 94.384,-103.331 109.05,-98.0485"/>
<polygon fill="#191970" stroke="#191970" points="110.544,-101.23 118.766,-94.5487 108.172,-94.6446 110.544,-101.23"/>
</g>
<!-- Node6 -->
<g id="node6" class="node">
<title>Node6</title>
<g id="a_node6"><a xlink:href="captdns_8c.html#aad0e85473ca50e7bc9726c0e0314310f" target="_top" xlink:title="setn32">
<polygon fill="#ffffff" stroke="#000000" points="119,-38.5 119,-57.5 166,-57.5 166,-38.5 119,-38.5"/>
<text text-anchor="middle" x="142.5" y="-45.5" font-family="Helvetica,sans-Serif" font-size="10.00" fill="#000000">setn32</text>
</a>
</g>
</g>
<!-- Node1&#45;&gt;Node6 -->
<g id="edge7" class="edge">
<title>Node1&#45;&gt;Node6</title>
<path fill="none" stroke="#191970" d="M48.5208,-114.219C62.6091,-102.445 87.3776,-82.3438 110,-67 111.934,-65.6884 113.961,-64.3727 116.018,-63.0794"/>
<polygon fill="#191970" stroke="#191970" points="118.28,-65.8026 125.031,-57.637 114.661,-59.8105 118.28,-65.8026"/>
</g>
<!-- Node7 -->
<g id="node7" class="node">
<title>Node7</title>
<g id="a_node7"><a xlink:href="captdns_8c.html#ab65a5932a7432c62e039b6366cedb733" target="_top" xlink:title="strToLabel">
<polygon fill="#ffffff" stroke="#000000" points="110.5,-0.5 110.5,-19.5 174.5,-19.5 174.5,-0.5 110.5,-0.5"/>
<text text-anchor="middle" x="142.5" y="-7.5" font-family="Helvetica,sans-Serif" font-size="10.00" fill="#000000">strToLabel</text>
</a>
</g>
</g>
<!-- Node1&#45;&gt;Node7 -->
<g id="edge8" class="edge">
<title>Node1&#45;&gt;Node7</title>
<path fill="none" stroke="#191970" d="M42.6149,-114.394C53.6844,-96.0584 79.881,-55.5403 110,-29 111.471,-27.7037 113.044,-26.4503 114.674,-25.2475"/>
<polygon fill="#191970" stroke="#191970" points="116.678,-28.1182 123.1,-19.6916 112.825,-22.2742 116.678,-28.1182"/>
</g>
<!-- Node2&#45;&gt;Node1 -->
<g id="edge2" class="edge">
<title>Node2&#45;&gt;Node1</title>
<path fill="none" stroke="#191970" d="M110.653,-190.44C110.434,-190.294 110.216,-190.147 110,-190 87.7685,-174.921 63.4645,-155.248 49.2606,-140.898"/>
<polygon fill="#191970" stroke="#191970" points="51.833,-138.524 42.486,-133.536 46.682,-143.264 51.833,-138.524"/>
</g>
<!-- Node3&#45;&gt;Node4 -->
<g id="edge4" class="edge">
<title>Node3&#45;&gt;Node4</title>
<path fill="none" stroke="#191970" d="M173.666,-155.988C182.266,-154.329 191.72,-152.506 200.755,-150.763"/>
<polygon fill="#191970" stroke="#191970" points="201.554,-154.173 210.71,-148.843 200.228,-147.3 201.554,-154.173"/>
</g>
</g>
</svg>
