<?xml version="1.0" encoding="UTF-8" standalone="no"?>
<!DOCTYPE svg PUBLIC "-//W3C//DTD SVG 1.1//EN"
 "http://www.w3.org/Graphics/SVG/1.1/DTD/svg11.dtd">
<!-- Generated by graphviz version 2.41.20170323.1842 (20170323.1842)
 -->
<!-- Title: captdnsInit Pages: 1 -->
<svg width="379pt" height="161pt"
 viewBox="0.00 0.00 379.00 161.00" xmlns="http://www.w3.org/2000/svg" xmlns:xlink="http://www.w3.org/1999/xlink">
<g id="graph0" class="graph" transform="scale(1 1) rotate(0) translate(4 157)">
<title>captdnsInit</title>
<polygon fill="#ffffff" stroke="transparent" points="-4,4 -4,-157 375,-157 375,4 -4,4"/>
<!-- Node2 -->
<g id="node1" class="node">
<title>Node2</title>
<polygon fill="#bfbfbf" stroke="#000000" points="0,-76.5 0,-95.5 65,-95.5 65,-76.5 0,-76.5"/>
<text text-anchor="middle" x="32.5" y="-83.5" font-family="Helvetica,sans-Serif" font-size="10.00" fill="#000000">captdnsInit</text>
</g>
<!-- Node3 -->
<g id="node2" class="node">
<title>Node3</title>
<g id="a_node2"><a xlink:href="captdns_8c.html#a59c9a28ea1f015cff27b9d0c252d15f3" target="_top" xlink:title="captdnsRecv">
<polygon fill="#ffffff" stroke="#000000" points="101,-76.5 101,-95.5 175,-95.5 175,-76.5 101,-76.5"/>
<text text-anchor="middle" x="138" y="-83.5" font-family="Helvetica,sans-Serif" font-size="10.00" fill="#000000">captdnsRecv</text>
</a>
</g>
</g>
<!-- Node2&#45;&gt;Node3 -->
<g id="edge1" class="edge">
<title>Node2&#45;&gt;Node3</title>
<path fill="none" stroke="#191970" d="M65.0143,-79.7124C73.1953,-79.3202 82.1417,-79.1775 90.8796,-79.2843"/>
<polygon fill="#191970" stroke="#191970" points="90.9028,-82.7857 100.9831,-79.5243 91.0691,-75.7877 90.9028,-82.7857"/>
</g>
<!-- Node3&#45;&gt;Node2 -->
<g id="edge8" class="edge">
<title>Node3&#45;&gt;Node2</title>
<path fill="none" stroke="#191970" d="M100.9831,-92.4757C92.649,-92.7745 83.7381,-92.8292 75.1929,-92.6398"/>
<polygon fill="#191970" stroke="#191970" points="75.1294,-89.1356 65.0143,-92.2876 74.8873,-96.1314 75.1294,-89.1356"/>
</g>
<!-- Node4 -->
<g id="node3" class="node">
<title>Node4</title>
<g id="a_node3"><a xlink:href="captdns_8c.html#a2b9dc30f1b5c34d34788f966f8baf579" target="_top" xlink:title="my_ntohs">
<polygon fill="#ffffff" stroke="#000000" points="311,-133.5 311,-152.5 371,-152.5 371,-133.5 311,-133.5"/>
<text text-anchor="middle" x="341" y="-140.5" font-family="Helvetica,sans-Serif" font-size="10.00" fill="#000000">my_ntohs</text>
</a>
</g>
</g>
<!-- Node3&#45;&gt;Node4 -->
<g id="edge2" class="edge">
<title>Node3&#45;&gt;Node4</title>
<path fill="none" stroke="#191970" d="M146.2453,-95.5978C158.6605,-109.2276 183.6325,-133.581 211,-143 239.9194,-152.9531 274.6487,-152.369 300.9338,-149.6144"/>
<polygon fill="#191970" stroke="#191970" points="301.4069,-153.0828 310.9216,-148.4222 300.5772,-146.1322 301.4069,-153.0828"/>
</g>
<!-- Node5 -->
<g id="node4" class="node">
<title>Node5</title>
<g id="a_node4"><a xlink:href="captdns_8c.html#a1cda566d8dc5035086e911607e45820b" target="_top" xlink:title="labelToStr">
<polygon fill="#ffffff" stroke="#000000" points="212,-114.5 212,-133.5 274,-133.5 274,-114.5 212,-114.5"/>
<text text-anchor="middle" x="243" y="-121.5" font-family="Helvetica,sans-Serif" font-size="10.00" fill="#000000">labelToStr</text>
</a>
</g>
</g>
<!-- Node3&#45;&gt;Node5 -->
<g id="edge3" class="edge">
<title>Node3&#45;&gt;Node5</title>
<path fill="none" stroke="#191970" d="M164.4959,-95.589C177.3043,-100.2244 192.8753,-105.8596 206.7621,-110.8853"/>
<polygon fill="#191970" stroke="#191970" points="205.9183,-114.3021 216.5125,-114.4141 208.3005,-107.7198 205.9183,-114.3021"/>
</g>
<!-- Node6 -->
<g id="node5" class="node">
<title>Node6</title>
<g id="a_node5"><a xlink:href="captdns_8c.html#ab65a5932a7432c62e039b6366cedb733" target="_top" xlink:title="strToLabel">
<polygon fill="#ffffff" stroke="#000000" points="211,-76.5 211,-95.5 275,-95.5 275,-76.5 211,-76.5"/>
<text text-anchor="middle" x="243" y="-83.5" font-family="Helvetica,sans-Serif" font-size="10.00" fill="#000000">strToLabel</text>
</a>
</g>
</g>
<!-- Node3&#45;&gt;Node6 -->
<g id="edge5" class="edge">
<title>Node3&#45;&gt;Node6</title>
<path fill="none" stroke="#191970" d="M175.0191,-86C183.3303,-86 192.2101,-86 200.7174,-86"/>
<polygon fill="#191970" stroke="#191970" points="200.8467,-89.5001 210.8467,-86 200.8466,-82.5001 200.8467,-89.5001"/>
</g>
<!-- Node7 -->
<g id="node6" class="node">
<title>Node7</title>
<g id="a_node6"><a xlink:href="captdns_8c.html#a3b65a462da5bbfc4c310605b66952949" target="_top" xlink:title="setn16">
<polygon fill="#ffffff" stroke="#000000" points="219.5,-38.5 219.5,-57.5 266.5,-57.5 266.5,-38.5 219.5,-38.5"/>
<text text-anchor="middle" x="243" y="-45.5" font-family="Helvetica,sans-Serif" font-size="10.00" fill="#000000">setn16</text>
</a>
</g>
</g>
<!-- Node3&#45;&gt;Node7 -->
<g id="edge6" class="edge">
<title>Node3&#45;&gt;Node7</title>
<path fill="none" stroke="#191970" d="M164.4959,-76.411C178.2185,-71.4448 195.112,-65.3309 209.708,-60.0485"/>
<polygon fill="#191970" stroke="#191970" points="211.1666,-63.2429 219.3787,-56.5487 208.7845,-56.6607 211.1666,-63.2429"/>
</g>
<!-- Node8 -->
<g id="node7" class="node">
<title>Node8</title>
<g id="a_node7"><a xlink:href="captdns_8c.html#aad0e85473ca50e7bc9726c0e0314310f" target="_top" xlink:title="setn32">
<polygon fill="#ffffff" stroke="#000000" points="219.5,-.5 219.5,-19.5 266.5,-19.5 266.5,-.5 219.5,-.5"/>
<text text-anchor="middle" x="243" y="-7.5" font-family="Helvetica,sans-Serif" font-size="10.00" fill="#000000">setn32</text>
</a>
</g>
</g>
<!-- Node3&#45;&gt;Node8 -->
<g id="edge7" class="edge">
<title>Node3&#45;&gt;Node8</title>
<path fill="none" stroke="#191970" d="M149.5385,-76.2447C163.6442,-64.4964 188.4298,-44.4204 211,-29 212.9072,-27.697 214.9058,-26.3873 216.933,-25.0984"/>
<polygon fill="#191970" stroke="#191970" points="219.1083,-27.8705 225.8096,-19.6642 215.4534,-21.9004 219.1083,-27.8705"/>
</g>
<!-- Node5&#45;&gt;Node4 -->
<g id="edge4" class="edge">
<title>Node5&#45;&gt;Node4</title>
<path fill="none" stroke="#191970" d="M274.0078,-130.0117C282.5638,-131.6705 291.9697,-133.4941 300.9591,-135.237"/>
<polygon fill="#191970" stroke="#191970" points="300.3806,-138.6899 310.864,-137.1573 301.713,-131.8179 300.3806,-138.6899"/>
</g>
</g>
</svg>
