<?xml version="1.0" encoding="UTF-8" standalone="no"?>
<!DOCTYPE svg PUBLIC "-//W3C//DTD SVG 1.1//EN"
 "http://www.w3.org/Graphics/SVG/1.1/DTD/svg11.dtd">
<!-- Generated by graphviz version 2.40.1 (20161225.0304)
 -->
<!-- Title: labelToStr Pages: 1 -->
<svg width="281pt" height="28pt"
 viewBox="0.00 0.00 281.00 28.00" xmlns="http://www.w3.org/2000/svg" xmlns:xlink="http://www.w3.org/1999/xlink">
<g id="graph0" class="graph" transform="scale(1 1) rotate(0) translate(4 24)">
<title>labelToStr</title>
<polygon fill="#ffffff" stroke="transparent" points="-4,4 -4,-24 277,-24 277,4 -4,4"/>
<!-- Node83 -->
<g id="node1" class="node">
<title>Node83</title>
<polygon fill="#bfbfbf" stroke="#000000" points="0,-.5 0,-19.5 62,-19.5 62,-.5 0,-.5"/>
<text text-anchor="middle" x="31" y="-7.5" font-family="Helvetica,sans-Serif" font-size="10.00" fill="#000000">labelToStr</text>
</g>
<!-- Node84 -->
<g id="node2" class="node">
<title>Node84</title>
<g id="a_node2"><a xlink:href="captdns_8c.html#a59c9a28ea1f015cff27b9d0c252d15f3" target="_top" xlink:title="captdnsRecv">
<polygon fill="#ffffff" stroke="#000000" points="98,-.5 98,-19.5 172,-19.5 172,-.5 98,-.5"/>
<text text-anchor="middle" x="135" y="-7.5" font-family="Helvetica,sans-Serif" font-size="10.00" fill="#000000">captdnsRecv</text>
</a>
</g>
</g>
<!-- Node83&#45;&gt;Node84 -->
<g id="edge1" class="edge">
<title>Node83&#45;&gt;Node84</title>
<path fill="none" stroke="#191970" d="M72.2833,-10C80.7612,-10 89.6363,-10 97.9536,-10"/>
<polygon fill="#191970" stroke="#191970" points="72.2035,-6.5001 62.2034,-10 72.2034,-13.5001 72.2035,-6.5001"/>
</g>
<!-- Node85 -->
<g id="node3" class="node">
<title>Node85</title>
<g id="a_node3"><a xlink:href="captdns_8h.html#a88f42288d1b84cab204cca9e7f7aa9a3" target="_top" xlink:title="captdnsInit">
<polygon fill="#ffffff" stroke="#000000" points="208,-.5 208,-19.5 273,-19.5 273,-.5 208,-.5"/>
<text text-anchor="middle" x="240.5" y="-7.5" font-family="Helvetica,sans-Serif" font-size="10.00" fill="#000000">captdnsInit</text>
</a>
</g>
</g>
<!-- Node84&#45;&gt;Node85 -->
<g id="edge2" class="edge">
<title>Node84&#45;&gt;Node85</title>
<path fill="none" stroke="#191970" d="M182.2121,-3.2832C190.8721,-3.1791 199.7333,-3.32 207.8484,-3.7058"/>
<polygon fill="#191970" stroke="#191970" points="182.1106,.2155 172.1954,-3.5179 182.2746,-6.7826 182.1106,.2155"/>
</g>
<!-- Node85&#45;&gt;Node84 -->
<g id="edge3" class="edge">
<title>Node85&#45;&gt;Node84</title>
<path fill="none" stroke="#191970" d="M197.757,-16.6409C189.288,-16.8276 180.4618,-16.7747 172.1954,-16.4821"/>
<polygon fill="#191970" stroke="#191970" points="197.9745,-20.1356 207.8484,-16.2942 197.7341,-13.1397 197.9745,-20.1356"/>
</g>
</g>
</svg>
