<?xml version="1.0" encoding="UTF-8" standalone="no"?>
<!DOCTYPE svg PUBLIC "-//W3C//DTD SVG 1.1//EN"
 "http://www.w3.org/Graphics/SVG/1.1/DTD/svg11.dtd">
<!-- Generated by graphviz version 2.40.1 (20161225.0304)
 -->
<!-- Title: my_ntohs Pages: 1 -->
<svg width="377pt" height="47pt"
 viewBox="0.00 0.00 377.00 47.00" xmlns="http://www.w3.org/2000/svg" xmlns:xlink="http://www.w3.org/1999/xlink">
<g id="graph0" class="graph" transform="scale(1 1) rotate(0) translate(4 43)">
<title>my_ntohs</title>
<polygon fill="#ffffff" stroke="transparent" points="-4,4 -4,-43 373,-43 373,4 -4,4"/>
<!-- Node87 -->
<g id="node1" class="node">
<title>Node87</title>
<polygon fill="#bfbfbf" stroke="#000000" points="0,-19.5 0,-38.5 60,-38.5 60,-19.5 0,-19.5"/>
<text text-anchor="middle" x="30" y="-26.5" font-family="Helvetica,sans-Serif" font-size="10.00" fill="#000000">my_ntohs</text>
</g>
<!-- Node88 -->
<g id="node2" class="node">
<title>Node88</title>
<g id="a_node2"><a xlink:href="captdns_8c.html#a59c9a28ea1f015cff27b9d0c252d15f3" target="_top" xlink:title="captdnsRecv">
<polygon fill="#ffffff" stroke="#000000" points="194,-19.5 194,-38.5 268,-38.5 268,-19.5 194,-19.5"/>
<text text-anchor="middle" x="231" y="-26.5" font-family="Helvetica,sans-Serif" font-size="10.00" fill="#000000">captdnsRecv</text>
</a>
</g>
</g>
<!-- Node87&#45;&gt;Node88 -->
<g id="edge1" class="edge">
<title>Node87&#45;&gt;Node88</title>
<path fill="none" stroke="#191970" d="M70.259,-29C106.3206,-29 158.7821,-29 193.8571,-29"/>
<polygon fill="#191970" stroke="#191970" points="70.0918,-25.5001 60.0917,-29 70.0917,-32.5001 70.0918,-25.5001"/>
</g>
<!-- Node90 -->
<g id="node4" class="node">
<title>Node90</title>
<g id="a_node4"><a xlink:href="captdns_8c.html#a1cda566d8dc5035086e911607e45820b" target="_top" xlink:title="labelToStr">
<polygon fill="#ffffff" stroke="#000000" points="96,-.5 96,-19.5 158,-19.5 158,-.5 96,-.5"/>
<text text-anchor="middle" x="127" y="-7.5" font-family="Helvetica,sans-Serif" font-size="10.00" fill="#000000">labelToStr</text>
</a>
</g>
</g>
<!-- Node87&#45;&gt;Node90 -->
<g id="edge4" class="edge">
<title>Node87&#45;&gt;Node90</title>
<path fill="none" stroke="#191970" d="M70.037,-21.1577C78.6528,-19.4701 87.6363,-17.7104 95.8541,-16.1008"/>
<polygon fill="#191970" stroke="#191970" points="69.3004,-17.7354 60.1597,-23.0924 70.646,-24.6048 69.3004,-17.7354"/>
</g>
<!-- Node89 -->
<g id="node3" class="node">
<title>Node89</title>
<g id="a_node3"><a xlink:href="captdns_8h.html#a88f42288d1b84cab204cca9e7f7aa9a3" target="_top" xlink:title="captdnsInit">
<polygon fill="#ffffff" stroke="#000000" points="304,-19.5 304,-38.5 369,-38.5 369,-19.5 304,-19.5"/>
<text text-anchor="middle" x="336.5" y="-26.5" font-family="Helvetica,sans-Serif" font-size="10.00" fill="#000000">captdnsInit</text>
</a>
</g>
</g>
<!-- Node88&#45;&gt;Node89 -->
<g id="edge2" class="edge">
<title>Node88&#45;&gt;Node89</title>
<path fill="none" stroke="#191970" d="M278.2121,-22.2832C286.8721,-22.1791 295.7333,-22.32 303.8484,-22.7058"/>
<polygon fill="#191970" stroke="#191970" points="278.1106,-18.7845 268.1954,-22.5179 278.2746,-25.7826 278.1106,-18.7845"/>
</g>
<!-- Node89&#45;&gt;Node88 -->
<g id="edge3" class="edge">
<title>Node89&#45;&gt;Node88</title>
<path fill="none" stroke="#191970" d="M293.757,-35.6409C285.288,-35.8276 276.4618,-35.7747 268.1954,-35.4821"/>
<polygon fill="#191970" stroke="#191970" points="293.9745,-39.1356 303.8484,-35.2942 293.7341,-32.1397 293.9745,-39.1356"/>
</g>
<!-- Node90&#45;&gt;Node88 -->
<g id="edge5" class="edge">
<title>Node90&#45;&gt;Node88</title>
<path fill="none" stroke="#191970" d="M168.2833,-17.5421C176.7612,-19.091 185.6363,-20.7124 193.9536,-22.2319"/>
<polygon fill="#191970" stroke="#191970" points="168.6697,-14.0549 158.2034,-15.7006 167.4116,-20.9409 168.6697,-14.0549"/>
</g>
</g>
</svg>
