<?xml version="1.0" encoding="UTF-8" standalone="no"?>
<!DOCTYPE svg PUBLIC "-//W3C//DTD SVG 1.1//EN"
 "http://www.w3.org/Graphics/SVG/1.1/DTD/svg11.dtd">
<!-- Generated by graphviz version 2.41.20170323.1842 (20170323.1842)
 -->
<!-- Title: __attribute__ Pages: 1 -->
<svg width="420pt" height="28pt"
 viewBox="0.00 0.00 420.00 28.00" xmlns="http://www.w3.org/2000/svg" xmlns:xlink="http://www.w3.org/1999/xlink">
<g id="graph0" class="graph" transform="scale(1 1) rotate(0) translate(4 24)">
<title>__attribute__</title>
<polygon fill="#ffffff" stroke="transparent" points="-4,4 -4,-24 416,-24 416,4 -4,4"/>
<!-- Node1 -->
<g id="node1" class="node">
<title>Node1</title>
<polygon fill="#bfbfbf" stroke="#000000" points="0,-.5 0,-19.5 75,-19.5 75,-.5 0,-.5"/>
<text text-anchor="middle" x="37.5" y="-7.5" font-family="Helvetica,sans-Serif" font-size="10.00" fill="#000000">__attribute__</text>
</g>
<!-- Node2 -->
<g id="node2" class="node">
<title>Node2</title>
<g id="a_node2"><a xlink:href="sdk_2include_2espconn_8h.html#a62219be0ac7e8dd6085915d5c0777476" target="_top" xlink:title="espconn_sendto">
<polygon fill="#ffffff" stroke="#000000" points="111,-.5 111,-19.5 201,-19.5 201,-.5 111,-.5"/>
<text text-anchor="middle" x="156" y="-7.5" font-family="Helvetica,sans-Serif" font-size="10.00" fill="#000000">espconn_sendto</text>
</a>
</g>
</g>
<!-- Node1&#45;&gt;Node2 -->
<g id="edge1" class="edge">
<title>Node1&#45;&gt;Node2</title>
<path fill="none" stroke="#191970" d="M85.3216,-10C93.6883,-10 102.3711,-10 110.6679,-10"/>
<polygon fill="#191970" stroke="#191970" points="85.32,-6.5001 75.3199,-10 85.3199,-13.5001 85.32,-6.5001"/>
</g>
<!-- Node3 -->
<g id="node3" class="node">
<title>Node3</title>
<g id="a_node3"><a xlink:href="captdns_8c.html#a59c9a28ea1f015cff27b9d0c252d15f3" target="_top" xlink:title="captdnsRecv">
<polygon fill="#ffffff" stroke="#000000" points="237,-.5 237,-19.5 311,-19.5 311,-.5 237,-.5"/>
<text text-anchor="middle" x="274" y="-7.5" font-family="Helvetica,sans-Serif" font-size="10.00" fill="#000000">captdnsRecv</text>
</a>
</g>
</g>
<!-- Node2&#45;&gt;Node3 -->
<g id="edge2" class="edge">
<title>Node2&#45;&gt;Node3</title>
<path fill="none" stroke="#191970" d="M211.2919,-10C219.8957,-10 228.6051,-10 236.6843,-10"/>
<polygon fill="#191970" stroke="#191970" points="211.2844,-6.5001 201.2844,-10 211.2844,-13.5001 211.2844,-6.5001"/>
</g>
<!-- Node4 -->
<g id="node4" class="node">
<title>Node4</title>
<g id="a_node4"><a xlink:href="captdns_8h.html#a88f42288d1b84cab204cca9e7f7aa9a3" target="_top" xlink:title="captdnsInit">
<polygon fill="#ffffff" stroke="#000000" points="347,-.5 347,-19.5 412,-19.5 412,-.5 347,-.5"/>
<text text-anchor="middle" x="379.5" y="-7.5" font-family="Helvetica,sans-Serif" font-size="10.00" fill="#000000">captdnsInit</text>
</a>
</g>
</g>
<!-- Node3&#45;&gt;Node4 -->
<g id="edge3" class="edge">
<title>Node3&#45;&gt;Node4</title>
<path fill="none" stroke="#191970" d="M321.2121,-3.2832C329.8721,-3.1791 338.7333,-3.32 346.8484,-3.7058"/>
<polygon fill="#191970" stroke="#191970" points="321.1106,.2155 311.1954,-3.5179 321.2746,-6.7826 321.1106,.2155"/>
</g>
<!-- Node4&#45;&gt;Node3 -->
<g id="edge4" class="edge">
<title>Node4&#45;&gt;Node3</title>
<path fill="none" stroke="#191970" d="M336.757,-16.6409C328.288,-16.8276 319.4618,-16.7747 311.1954,-16.4821"/>
<polygon fill="#191970" stroke="#191970" points="336.9745,-20.1356 346.8484,-16.2942 336.7341,-13.1397 336.9745,-20.1356"/>
</g>
</g>
</svg>
