<?xml version="1.0" encoding="UTF-8" standalone="no"?>
<!DOCTYPE svg PUBLIC "-//W3C//DTD SVG 1.1//EN"
 "http://www.w3.org/Graphics/SVG/1.1/DTD/svg11.dtd">
<!-- Generated by graphviz version 2.41.20170323.1842 (20170323.1842)
 -->
<!-- Title: esp&#45;open&#45;lwip/include/arch/cc.h Pages: 1 -->
<svg width="348pt" height="207pt"
 viewBox="0.00 0.00 348.00 207.00" xmlns="http://www.w3.org/2000/svg" xmlns:xlink="http://www.w3.org/1999/xlink">
<g id="graph0" class="graph" transform="scale(1 1) rotate(0) translate(4 203)">
<title>esp&#45;open&#45;lwip/include/arch/cc.h</title>
<polygon fill="#ffffff" stroke="transparent" points="-4,4 -4,-203 344,-203 344,4 -4,4"/>
<!-- Node0 -->
<g id="node1" class="node">
<title>Node0</title>
<polygon fill="#bfbfbf" stroke="#000000" points="74,-168.5 74,-198.5 187,-198.5 187,-168.5 74,-168.5"/>
<text text-anchor="start" x="82" y="-186.5" font-family="Helvetica,sans-Serif" font-size="10.00" fill="#000000">esp&#45;open&#45;lwip/include</text>
<text text-anchor="middle" x="130.5" y="-175.5" font-family="Helvetica,sans-Serif" font-size="10.00" fill="#000000">/arch/cc.h</text>
</g>
<!-- Node1 -->
<g id="node2" class="node">
<title>Node1</title>
<g id="a_node2"><a xlink:href="$c__types_8h.html" xlink:title="c_types.h">
<polygon fill="#ffffff" stroke="#000000" points="30,-56.5 30,-75.5 89,-75.5 89,-56.5 30,-56.5"/>
<text text-anchor="middle" x="59.5" y="-63.5" font-family="Helvetica,sans-Serif" font-size="10.00" fill="#000000">c_types.h</text>
</a>
</g>
</g>
<!-- Node0&#45;&gt;Node1 -->
<g id="edge1" class="edge">
<title>Node0&#45;&gt;Node1</title>
<path fill="none" stroke="#191970" d="M117.7204,-168.2898C109.6701,-158.3235 99.3527,-144.8139 91.5,-132 82.1681,-116.7724 73.4567,-98.4204 67.4867,-84.9378"/>
<polygon fill="#191970" stroke="#191970" points="70.6762,-83.4953 63.491,-75.7092 64.2525,-86.2767 70.6762,-83.4953"/>
</g>
<!-- Node4 -->
<g id="node5" class="node">
<title>Node4</title>
<g id="a_node5"><a xlink:href="$ets__sys_8h.html" xlink:title="ets_sys.h">
<polygon fill="#ffffff" stroke="#000000" points="101,-112.5 101,-131.5 160,-131.5 160,-112.5 101,-112.5"/>
<text text-anchor="middle" x="130.5" y="-119.5" font-family="Helvetica,sans-Serif" font-size="10.00" fill="#000000">ets_sys.h</text>
</a>
</g>
</g>
<!-- Node0&#45;&gt;Node4 -->
<g id="edge4" class="edge">
<title>Node0&#45;&gt;Node4</title>
<path fill="none" stroke="#191970" d="M130.5,-168.2977C130.5,-160.3834 130.5,-150.6043 130.5,-142.0759"/>
<polygon fill="#191970" stroke="#191970" points="134.0001,-141.8469 130.5,-131.8469 127.0001,-141.847 134.0001,-141.8469"/>
</g>
<!-- Node6 -->
<g id="node7" class="node">
<title>Node6</title>
<g id="a_node7"><a xlink:href="$osapi_8h.html" xlink:title="osapi.h">
<polygon fill="#ffffff" stroke="#000000" points="196,-112.5 196,-131.5 245,-131.5 245,-112.5 196,-112.5"/>
<text text-anchor="middle" x="220.5" y="-119.5" font-family="Helvetica,sans-Serif" font-size="10.00" fill="#000000">osapi.h</text>
</a>
</g>
</g>
<!-- Node0&#45;&gt;Node6 -->
<g id="edge7" class="edge">
<title>Node0&#45;&gt;Node6</title>
<path fill="none" stroke="#191970" d="M152.7472,-168.2977C166.4967,-158.9022 184.0921,-146.8787 197.9057,-137.4395"/>
<polygon fill="#191970" stroke="#191970" points="200.0768,-140.195 206.3586,-131.6633 196.1275,-134.4155 200.0768,-140.195"/>
</g>
<!-- Node2 -->
<g id="node3" class="node">
<title>Node2</title>
<polygon fill="#ffffff" stroke="#bfbfbf" points="0,-.5 0,-19.5 49,-19.5 49,-.5 0,-.5"/>
<text text-anchor="middle" x="24.5" y="-7.5" font-family="Helvetica,sans-Serif" font-size="10.00" fill="#000000">stdint.h</text>
</g>
<!-- Node1&#45;&gt;Node2 -->
<g id="edge2" class="edge">
<title>Node1&#45;&gt;Node2</title>
<path fill="none" stroke="#191970" d="M53.4035,-56.2455C48.5855,-48.5367 41.7249,-37.5598 35.8968,-28.2348"/>
<polygon fill="#191970" stroke="#191970" points="38.7947,-26.2677 30.5267,-19.6427 32.8587,-29.9777 38.7947,-26.2677"/>
</g>
<!-- Node3 -->
<g id="node4" class="node">
<title>Node3</title>
<polygon fill="#ffffff" stroke="#bfbfbf" points="67,-.5 67,-19.5 124,-19.5 124,-.5 67,-.5"/>
<text text-anchor="middle" x="95.5" y="-7.5" font-family="Helvetica,sans-Serif" font-size="10.00" fill="#000000">stdbool.h</text>
</g>
<!-- Node1&#45;&gt;Node3 -->
<g id="edge3" class="edge">
<title>Node1&#45;&gt;Node3</title>
<path fill="none" stroke="#191970" d="M65.7707,-56.2455C70.7264,-48.5367 77.783,-37.5598 83.7776,-28.2348"/>
<polygon fill="#191970" stroke="#191970" points="86.8376,-29.9471 89.3011,-19.6427 80.9494,-26.1618 86.8376,-29.9471"/>
</g>
<!-- Node4&#45;&gt;Node1 -->
<g id="edge5" class="edge">
<title>Node4&#45;&gt;Node1</title>
<path fill="none" stroke="#191970" d="M118.1327,-112.2455C107.5446,-103.8943 92.0936,-91.7076 79.7107,-81.9408"/>
<polygon fill="#191970" stroke="#191970" points="81.7447,-79.0875 71.7255,-75.6427 77.4097,-84.5837 81.7447,-79.0875"/>
</g>
<!-- Node5 -->
<g id="node6" class="node">
<title>Node5</title>
<g id="a_node6"><a xlink:href="$eagle__soc_8h.html" xlink:title="eagle_soc.h">
<polygon fill="#ffffff" stroke="#000000" points="107.5,-56.5 107.5,-75.5 177.5,-75.5 177.5,-56.5 107.5,-56.5"/>
<text text-anchor="middle" x="142.5" y="-63.5" font-family="Helvetica,sans-Serif" font-size="10.00" fill="#000000">eagle_soc.h</text>
</a>
</g>
</g>
<!-- Node4&#45;&gt;Node5 -->
<g id="edge6" class="edge">
<title>Node4&#45;&gt;Node5</title>
<path fill="none" stroke="#191970" d="M132.5902,-112.2455C134.1561,-104.9382 136.3512,-94.6944 138.2776,-85.7046"/>
<polygon fill="#191970" stroke="#191970" points="141.7607,-86.1541 140.4337,-75.6427 134.916,-84.6873 141.7607,-86.1541"/>
</g>
<!-- Node7 -->
<g id="node8" class="node">
<title>Node7</title>
<polygon fill="#ffffff" stroke="#bfbfbf" points="196,-56.5 196,-75.5 245,-75.5 245,-56.5 196,-56.5"/>
<text text-anchor="middle" x="220.5" y="-63.5" font-family="Helvetica,sans-Serif" font-size="10.00" fill="#000000">string.h</text>
</g>
<!-- Node6&#45;&gt;Node7 -->
<g id="edge8" class="edge">
<title>Node6&#45;&gt;Node7</title>
<path fill="none" stroke="#191970" d="M220.5,-112.2455C220.5,-104.9382 220.5,-94.6944 220.5,-85.7046"/>
<polygon fill="#191970" stroke="#191970" points="224.0001,-85.6426 220.5,-75.6427 217.0001,-85.6427 224.0001,-85.6426"/>
</g>
<!-- Node8 -->
<g id="node9" class="node">
<title>Node8</title>
<polygon fill="#ffffff" stroke="#bfbfbf" points="263,-56.5 263,-75.5 340,-75.5 340,-56.5 263,-56.5"/>
<text text-anchor="middle" x="301.5" y="-63.5" font-family="Helvetica,sans-Serif" font-size="10.00" fill="#000000">user_config.h</text>
</g>
<!-- Node6&#45;&gt;Node8 -->
<g id="edge9" class="edge">
<title>Node6&#45;&gt;Node8</title>
<path fill="none" stroke="#191970" d="M234.6091,-112.2455C246.9209,-103.7337 264.9958,-91.2375 279.2538,-81.3801"/>
<polygon fill="#191970" stroke="#191970" points="281.3174,-84.2085 287.5526,-75.6427 277.3366,-78.4506 281.3174,-84.2085"/>
</g>
</g>
</svg>
