<?xml version="1.0" encoding="UTF-8" standalone="no"?>
<!DOCTYPE svg PUBLIC "-//W3C//DTD SVG 1.1//EN"
 "http://www.w3.org/Graphics/SVG/1.1/DTD/svg11.dtd">
<!-- Generated by graphviz version 2.41.20170323.1842 (20170323.1842)
 -->
<!-- Title: esp&#45;open&#45;lwip/include/arch/cc.h Pages: 1 -->
<svg width="3015pt" height="642pt"
 viewBox="0.00 0.00 3015.49 642.00" xmlns="http://www.w3.org/2000/svg" xmlns:xlink="http://www.w3.org/1999/xlink">
<g id="graph0" class="graph" transform="scale(1 1) rotate(0) translate(4 638)">
<title>esp&#45;open&#45;lwip/include/arch/cc.h</title>
<polygon fill="#ffffff" stroke="transparent" points="-4,4 -4,-638 3011.4874,-638 3011.4874,4 -4,4"/>
<!-- Node9 -->
<g id="node1" class="node">
<title>Node9</title>
<polygon fill="#bfbfbf" stroke="#000000" points="2607.9874,-603.5 2607.9874,-633.5 2720.9874,-633.5 2720.9874,-603.5 2607.9874,-603.5"/>
<text text-anchor="start" x="2615.9874" y="-621.5" font-family="Helvetica,sans-Serif" font-size="10.00" fill="#000000">esp&#45;open&#45;lwip/include</text>
<text text-anchor="middle" x="2664.4874" y="-610.5" font-family="Helvetica,sans-Serif" font-size="10.00" fill="#000000">/arch/cc.h</text>
</g>
<!-- Node10 -->
<g id="node2" class="node">
<title>Node10</title>
<g id="a_node2"><a xlink:href="arch_8h.html" target="_top" xlink:title="esp&#45;open&#45;lwip/include\l/lwip/arch.h">
<polygon fill="#ffffff" stroke="#000000" points="2607.9874,-536.5 2607.9874,-566.5 2720.9874,-566.5 2720.9874,-536.5 2607.9874,-536.5"/>
<text text-anchor="start" x="2615.9874" y="-554.5" font-family="Helvetica,sans-Serif" font-size="10.00" fill="#000000">esp&#45;open&#45;lwip/include</text>
<text text-anchor="middle" x="2664.4874" y="-543.5" font-family="Helvetica,sans-Serif" font-size="10.00" fill="#000000">/lwip/arch.h</text>
</a>
</g>
</g>
<!-- Node9&#45;&gt;Node10 -->
<g id="edge1" class="edge">
<title>Node9&#45;&gt;Node10</title>
<path fill="none" stroke="#191970" d="M2664.4874,-593.0249C2664.4874,-584.128 2664.4874,-574.4287 2664.4874,-566.6432"/>
<polygon fill="#191970" stroke="#191970" points="2660.9875,-593.2966 2664.4874,-603.2967 2667.9875,-593.2967 2660.9875,-593.2966"/>
</g>
<!-- Node11 -->
<g id="node3" class="node">
<title>Node11</title>
<g id="a_node3"><a xlink:href="esp-open-sdk_2esp-open-lwip_2include_2lwip_2debug_8h.html" target="_top" xlink:title="esp&#45;open&#45;lwip/include\l/lwip/debug.h">
<polygon fill="#ffffff" stroke="#000000" points="513.9874,-469.5 513.9874,-499.5 626.9874,-499.5 626.9874,-469.5 513.9874,-469.5"/>
<text text-anchor="start" x="521.9874" y="-487.5" font-family="Helvetica,sans-Serif" font-size="10.00" fill="#000000">esp&#45;open&#45;lwip/include</text>
<text text-anchor="middle" x="570.4874" y="-476.5" font-family="Helvetica,sans-Serif" font-size="10.00" fill="#000000">/lwip/debug.h</text>
</a>
</g>
</g>
<!-- Node10&#45;&gt;Node11 -->
<g id="edge2" class="edge">
<title>Node10&#45;&gt;Node11</title>
<path fill="none" stroke="#191970" d="M2597.4911,-549.3564C2279.0615,-539.1678 921.8096,-495.741 627.1005,-486.3114"/>
<polygon fill="#191970" stroke="#191970" points="2597.8294,-552.8689 2607.9362,-549.6906 2598.0533,-545.8725 2597.8294,-552.8689"/>
</g>
<!-- Node35 -->
<g id="node23" class="node">
<title>Node35</title>
<g id="a_node23"><a xlink:href="def_8h.html" target="_top" xlink:title="esp&#45;open&#45;lwip/include\l/lwip/def.h">
<polygon fill="#ffffff" stroke="#000000" points="1497.9874,-335.5 1497.9874,-365.5 1610.9874,-365.5 1610.9874,-335.5 1497.9874,-335.5"/>
<text text-anchor="start" x="1505.9874" y="-353.5" font-family="Helvetica,sans-Serif" font-size="10.00" fill="#000000">esp&#45;open&#45;lwip/include</text>
<text text-anchor="middle" x="1554.4874" y="-342.5" font-family="Helvetica,sans-Serif" font-size="10.00" fill="#000000">/lwip/def.h</text>
</a>
</g>
</g>
<!-- Node10&#45;&gt;Node35 -->
<g id="edge131" class="edge">
<title>Node10&#45;&gt;Node35</title>
<path fill="none" stroke="#191970" d="M2597.7912,-539.4226C2396.6946,-503.0078 1798.6432,-394.712 1611.2761,-360.7834"/>
<polygon fill="#191970" stroke="#191970" points="2597.4527,-542.9181 2607.9163,-541.256 2598.7,-536.0301 2597.4527,-542.9181"/>
</g>
<!-- Node107 -->
<g id="node43" class="node">
<title>Node107</title>
<g id="a_node43"><a xlink:href="err_8h.html" target="_top" xlink:title="esp&#45;open&#45;lwip/include\l/lwip/err.h">
<polygon fill="#ffffff" stroke="#000000" points="2226.9874,-335.5 2226.9874,-365.5 2339.9874,-365.5 2339.9874,-335.5 2226.9874,-335.5"/>
<text text-anchor="start" x="2234.9874" y="-353.5" font-family="Helvetica,sans-Serif" font-size="10.00" fill="#000000">esp&#45;open&#45;lwip/include</text>
<text text-anchor="middle" x="2283.4874" y="-342.5" font-family="Helvetica,sans-Serif" font-size="10.00" fill="#000000">/lwip/err.h</text>
</a>
</g>
</g>
<!-- Node10&#45;&gt;Node107 -->
<g id="edge132" class="edge">
<title>Node10&#45;&gt;Node107</title>
<path fill="none" stroke="#191970" d="M2672.3042,-526.7438C2680.9913,-493.8433 2690.0978,-435.9269 2659.4874,-402 2638.4397,-378.6718 2440.003,-361.5153 2340.2141,-354.285"/>
<polygon fill="#191970" stroke="#191970" points="2668.9029,-525.9095 2669.5493,-536.4846 2675.6387,-527.8146 2668.9029,-525.9095"/>
</g>
<!-- Node154 -->
<g id="node50" class="node">
<title>Node154</title>
<g id="a_node50"><a xlink:href="sio_8h.html" target="_top" xlink:title="esp&#45;open&#45;lwip/include\l/lwip/sio.h">
<polygon fill="#ffffff" stroke="#000000" points="2711.9874,-469.5 2711.9874,-499.5 2824.9874,-499.5 2824.9874,-469.5 2711.9874,-469.5"/>
<text text-anchor="start" x="2719.9874" y="-487.5" font-family="Helvetica,sans-Serif" font-size="10.00" fill="#000000">esp&#45;open&#45;lwip/include</text>
<text text-anchor="middle" x="2768.4874" y="-476.5" font-family="Helvetica,sans-Serif" font-size="10.00" fill="#000000">/lwip/sio.h</text>
</a>
</g>
</g>
<!-- Node10&#45;&gt;Node154 -->
<g id="edge133" class="edge">
<title>Node10&#45;&gt;Node154</title>
<path fill="none" stroke="#191970" d="M2696.6264,-530.7951C2712.2097,-520.7558 2730.5935,-508.9124 2744.8659,-499.7177"/>
<polygon fill="#191970" stroke="#191970" points="2694.3381,-528.1058 2687.8271,-536.4639 2698.1291,-533.9904 2694.3381,-528.1058"/>
</g>
<!-- Node12 -->
<g id="node4" class="node">
<title>Node12</title>
<g id="a_node4"><a xlink:href="config_8c.html" target="_top" xlink:title="modules/config.c">
<polygon fill="#ffffff" stroke="#000000" points="885.4874,-408 885.4874,-427 977.4874,-427 977.4874,-408 885.4874,-408"/>
<text text-anchor="middle" x="931.4874" y="-415" font-family="Helvetica,sans-Serif" font-size="10.00" fill="#000000">modules/config.c</text>
</a>
</g>
</g>
<!-- Node11&#45;&gt;Node12 -->
<g id="edge3" class="edge">
<title>Node11&#45;&gt;Node12</title>
<path fill="none" stroke="#191970" d="M637.0863,-475.2694C699.1322,-466.1944 794.0485,-451.0959 875.4874,-433 883.267,-431.2714 891.578,-429.1335 899.3516,-427.0037"/>
<polygon fill="#191970" stroke="#191970" points="636.4309,-471.8277 627.0376,-476.7285 637.4368,-478.7551 636.4309,-471.8277"/>
</g>
<!-- Node13 -->
<g id="node5" class="node">
<title>Node13</title>
<g id="a_node5"><a xlink:href="wifi_8c.html" target="_top" xlink:title="modules/wifi.c">
<polygon fill="#ffffff" stroke="#000000" points="1894.9874,-73 1894.9874,-92 1973.9874,-92 1973.9874,-73 1894.9874,-73"/>
<text text-anchor="middle" x="1934.4874" y="-80" font-family="Helvetica,sans-Serif" font-size="10.00" fill="#000000">modules/wifi.c</text>
</a>
</g>
</g>
<!-- Node11&#45;&gt;Node13 -->
<g id="edge4" class="edge">
<title>Node11&#45;&gt;Node13</title>
<path fill="none" stroke="#191970" d="M637.1901,-484.165C988.6244,-481.9782 2616.7845,-466.4571 2815.4874,-366 2849.8692,-348.6178 2855.3749,-334.4381 2870.4874,-299 2887.6298,-258.8021 2895.7941,-241.1274 2878.4874,-201 2861.3048,-161.16 2847.3191,-151.202 2807.4874,-134 2730.3911,-100.7047 2134.477,-86.4933 1974.1162,-83.2487"/>
<polygon fill="#191970" stroke="#191970" points="637.1462,-480.6651 627.1677,-484.2259 637.1888,-487.665 637.1462,-480.6651"/>
</g>
<!-- Node14 -->
<g id="node6" class="node">
<title>Node14</title>
<g id="a_node6"><a xlink:href="mqtt_8c.html" target="_top" xlink:title="mqtt/mqtt.c">
<polygon fill="#ffffff" stroke="#000000" points="575.4874,-73 575.4874,-92 641.4874,-92 641.4874,-73 575.4874,-73"/>
<text text-anchor="middle" x="608.4874" y="-80" font-family="Helvetica,sans-Serif" font-size="10.00" fill="#000000">mqtt/mqtt.c</text>
</a>
</g>
</g>
<!-- Node11&#45;&gt;Node14 -->
<g id="edge5" class="edge">
<title>Node11&#45;&gt;Node14</title>
<path fill="none" stroke="#191970" d="M503.2478,-483.0008C366.1366,-479.2465 64.5257,-467.1573 33.4874,-433 -142.4325,-239.4017 428.4161,-116.4694 575.0351,-88.5687"/>
<polygon fill="#191970" stroke="#191970" points="503.5315,-486.5095 513.6213,-483.2774 503.7182,-479.512 503.5315,-486.5095"/>
</g>
<!-- Node15 -->
<g id="node7" class="node">
<title>Node15</title>
<g id="a_node7"><a xlink:href="cgiwifi_8c.html" target="_top" xlink:title="user/cgiwifi.c">
<polygon fill="#ffffff" stroke="#000000" points="42.4874,-408 42.4874,-427 116.4874,-427 116.4874,-408 42.4874,-408"/>
<text text-anchor="middle" x="79.4874" y="-415" font-family="Helvetica,sans-Serif" font-size="10.00" fill="#000000">user/cgiwifi.c</text>
</a>
</g>
</g>
<!-- Node11&#45;&gt;Node15 -->
<g id="edge6" class="edge">
<title>Node11&#45;&gt;Node15</title>
<path fill="none" stroke="#191970" d="M503.5742,-481.1377C415.8603,-475.7362 257.6276,-462.5647 125.4874,-433 118.7438,-431.4912 111.6007,-429.3587 105.0059,-427.1568"/>
<polygon fill="#191970" stroke="#191970" points="503.4635,-484.6372 513.6554,-481.7433 503.8833,-477.6498 503.4635,-484.6372"/>
</g>
<!-- Node16 -->
<g id="node8" class="node">
<title>Node16</title>
<g id="a_node8"><a xlink:href="espfs_8c.html" target="_top" xlink:title="user/espfs.c">
<polygon fill="#ffffff" stroke="#000000" points="134.4874,-408 134.4874,-427 204.4874,-427 204.4874,-408 134.4874,-408"/>
<text text-anchor="middle" x="169.4874" y="-415" font-family="Helvetica,sans-Serif" font-size="10.00" fill="#000000">user/espfs.c</text>
</a>
</g>
</g>
<!-- Node11&#45;&gt;Node16 -->
<g id="edge7" class="edge">
<title>Node11&#45;&gt;Node16</title>
<path fill="none" stroke="#191970" d="M503.7013,-477.9705C432.4569,-470.2533 316.5936,-455.5389 218.4874,-433 211.4438,-431.3818 203.9519,-429.2359 197.0006,-427.0581"/>
<polygon fill="#191970" stroke="#191970" points="503.5662,-481.476 513.8815,-479.0585 504.3101,-474.5156 503.5662,-481.476"/>
</g>
<!-- Node17 -->
<g id="node9" class="node">
<title>Node17</title>
<g id="a_node9"><a xlink:href="httpd_8c.html" target="_top" xlink:title="user/httpd.c">
<polygon fill="#ffffff" stroke="#000000" points="659.9874,-73 659.9874,-92 728.9874,-92 728.9874,-73 659.9874,-73"/>
<text text-anchor="middle" x="694.4874" y="-80" font-family="Helvetica,sans-Serif" font-size="10.00" fill="#000000">user/httpd.c</text>
</a>
</g>
</g>
<!-- Node11&#45;&gt;Node17 -->
<g id="edge8" class="edge">
<title>Node11&#45;&gt;Node17</title>
<path fill="none" stroke="#191970" d="M503.7691,-479.7551C422.975,-472.9843 292.5912,-458.4618 251.4874,-433 220.347,-413.7101 214.691,-400.8756 203.4874,-366 199.2735,-352.8825 196.3106,-346.761 203.4874,-335 257.662,-246.2221 572.7876,-126.5239 667.5451,-92.1138"/>
<polygon fill="#191970" stroke="#191970" points="503.6002,-483.2529 513.8527,-480.5815 504.1721,-476.2763 503.6002,-483.2529"/>
</g>
<!-- Node18 -->
<g id="node10" class="node">
<title>Node18</title>
<g id="a_node10"><a xlink:href="httpd__user__init_8c.html" target="_top" xlink:title="user/httpd_user_init.c">
<polygon fill="#ffffff" stroke="#000000" points="260.4874,-408 260.4874,-427 372.4874,-427 372.4874,-408 260.4874,-408"/>
<text text-anchor="middle" x="316.4874" y="-415" font-family="Helvetica,sans-Serif" font-size="10.00" fill="#000000">user/httpd_user_init.c</text>
</a>
</g>
</g>
<!-- Node11&#45;&gt;Node18 -->
<g id="edge9" class="edge">
<title>Node11&#45;&gt;Node18</title>
<path fill="none" stroke="#191970" d="M504.0297,-466.9698C455.6345,-454.2041 391.9276,-437.3996 352.6144,-427.0296"/>
<polygon fill="#191970" stroke="#191970" points="503.239,-470.3809 513.801,-469.5473 505.0245,-463.6124 503.239,-470.3809"/>
</g>
<!-- Node19 -->
<g id="node11" class="node">
<title>Node19</title>
<g id="a_node11"><a xlink:href="led_8c.html" target="_top" xlink:title="user/led.c">
<polygon fill="#ffffff" stroke="#000000" points="390.4874,-408 390.4874,-427 450.4874,-427 450.4874,-408 390.4874,-408"/>
<text text-anchor="middle" x="420.4874" y="-415" font-family="Helvetica,sans-Serif" font-size="10.00" fill="#000000">user/led.c</text>
</a>
</g>
</g>
<!-- Node11&#45;&gt;Node19 -->
<g id="edge10" class="edge">
<title>Node11&#45;&gt;Node19</title>
<path fill="none" stroke="#191970" d="M527.6396,-465.3613C499.6348,-452.8525 464.2525,-437.0484 441.9888,-427.1039"/>
<polygon fill="#191970" stroke="#191970" points="526.2665,-468.5812 536.8245,-469.4639 529.1214,-462.1898 526.2665,-468.5812"/>
</g>
<!-- Node20 -->
<g id="node12" class="node">
<title>Node20</title>
<g id="a_node12"><a xlink:href="unix__time_8c.html" target="_top" xlink:title="user/unix_time.c">
<polygon fill="#ffffff" stroke="#000000" points="468.9874,-408 468.9874,-427 557.9874,-427 557.9874,-408 468.9874,-408"/>
<text text-anchor="middle" x="513.4874" y="-415" font-family="Helvetica,sans-Serif" font-size="10.00" fill="#000000">user/unix_time.c</text>
</a>
</g>
</g>
<!-- Node11&#45;&gt;Node20 -->
<g id="edge11" class="edge">
<title>Node11&#45;&gt;Node20</title>
<path fill="none" stroke="#191970" d="M550.9417,-461.5252C540.91,-449.7336 529.2309,-436.0055 521.6163,-427.055"/>
<polygon fill="#191970" stroke="#191970" points="548.4076,-463.948 557.5533,-469.2967 553.7393,-459.4121 548.4076,-463.948"/>
</g>
<!-- Node21 -->
<g id="node13" class="node">
<title>Node21</title>
<g id="a_node13"><a xlink:href="esp-open-sdk_2esp-open-lwip_2user_2user__main_8c.html" target="_top" xlink:title="esp&#45;open&#45;lwip/user\l/user_main.c">
<polygon fill="#ffffff" stroke="#000000" points="575.9874,-402.5 575.9874,-432.5 676.9874,-432.5 676.9874,-402.5 575.9874,-402.5"/>
<text text-anchor="start" x="583.9874" y="-420.5" font-family="Helvetica,sans-Serif" font-size="10.00" fill="#000000">esp&#45;open&#45;lwip/user</text>
<text text-anchor="middle" x="626.4874" y="-409.5" font-family="Helvetica,sans-Serif" font-size="10.00" fill="#000000">/user_main.c</text>
</a>
</g>
</g>
<!-- Node11&#45;&gt;Node21 -->
<g id="edge12" class="edge">
<title>Node11&#45;&gt;Node21</title>
<path fill="none" stroke="#191970" d="M589.8359,-461.3509C597.7785,-451.8482 606.7511,-441.1132 613.8305,-432.6432"/>
<polygon fill="#191970" stroke="#191970" points="586.9224,-459.3792 583.1947,-469.2967 592.2933,-463.8684 586.9224,-459.3792"/>
</g>
<!-- Node22 -->
<g id="node14" class="node">
<title>Node22</title>
<g id="a_node14"><a xlink:href="utils_8c.html" target="_top" xlink:title="user/utils.c">
<polygon fill="#ffffff" stroke="#000000" points="695.4874,-408 695.4874,-427 759.4874,-427 759.4874,-408 695.4874,-408"/>
<text text-anchor="middle" x="727.4874" y="-415" font-family="Helvetica,sans-Serif" font-size="10.00" fill="#000000">user/utils.c</text>
</a>
</g>
</g>
<!-- Node11&#45;&gt;Node22 -->
<g id="edge13" class="edge">
<title>Node11&#45;&gt;Node22</title>
<path fill="none" stroke="#191970" d="M614.9529,-465.5243C644.3243,-452.99 681.5787,-437.0916 704.9827,-427.1039"/>
<polygon fill="#191970" stroke="#191970" points="613.545,-462.3197 605.7213,-469.4639 616.2926,-468.7579 613.545,-462.3197"/>
</g>
<!-- Node23 -->
<g id="node15" class="node">
<title>Node23</title>
<g id="a_node15"><a xlink:href="watchdog_8c.html" target="_top" xlink:title="user/watchdog.c">
<polygon fill="#ffffff" stroke="#000000" points="777.9874,-408 777.9874,-427 866.9874,-427 866.9874,-408 777.9874,-408"/>
<text text-anchor="middle" x="822.4874" y="-415" font-family="Helvetica,sans-Serif" font-size="10.00" fill="#000000">user/watchdog.c</text>
</a>
</g>
</g>
<!-- Node11&#45;&gt;Node23 -->
<g id="edge14" class="edge">
<title>Node11&#45;&gt;Node23</title>
<path fill="none" stroke="#191970" d="M637.377,-467.5463C675.8002,-457.6966 724.9294,-444.9141 768.4874,-433 775.3553,-431.1215 782.6972,-429.054 789.6845,-427.0579"/>
<polygon fill="#191970" stroke="#191970" points="636.1644,-464.2438 627.3444,-470.1139 637.9,-471.0252 636.1644,-464.2438"/>
</g>
<!-- Node24 -->
<g id="node16" class="node">
<title>Node24</title>
<g id="a_node16"><a xlink:href="opt_8h.html" target="_top" xlink:title="esp&#45;open&#45;lwip/include\l/lwip/opt.h">
<polygon fill="#ffffff" stroke="#ff0000" points="1189.9874,-402.5 1189.9874,-432.5 1302.9874,-432.5 1302.9874,-402.5 1189.9874,-402.5"/>
<text text-anchor="start" x="1197.9874" y="-420.5" font-family="Helvetica,sans-Serif" font-size="10.00" fill="#000000">esp&#45;open&#45;lwip/include</text>
<text text-anchor="middle" x="1246.4874" y="-409.5" font-family="Helvetica,sans-Serif" font-size="10.00" fill="#000000">/lwip/opt.h</text>
</a>
</g>
</g>
<!-- Node11&#45;&gt;Node24 -->
<g id="edge15" class="edge">
<title>Node11&#45;&gt;Node24</title>
<path fill="none" stroke="#191970" d="M637.3002,-477.878C770.2018,-464.7058 1065.5889,-435.4293 1189.763,-423.1221"/>
<polygon fill="#191970" stroke="#191970" points="636.8559,-474.4048 627.2499,-478.8741 637.5463,-481.3707 636.8559,-474.4048"/>
</g>
<!-- Node24&#45;&gt;Node13 -->
<g id="edge16" class="edge">
<title>Node24&#45;&gt;Node13</title>
<path fill="none" stroke="#191970" d="M1313.3304,-416.5563C1599.3789,-412.3509 2709.0039,-394.2734 2777.4874,-366 2817.8913,-349.3193 2829.1181,-337.6756 2849.4874,-299 2869.8894,-260.2624 2880.2777,-239.5306 2859.4874,-201 2833.7317,-153.2667 2808.9412,-151.1563 2757.4874,-134 2682.7491,-109.0798 2128.043,-88.9382 1974.0413,-83.7825"/>
<polygon fill="#191970" stroke="#191970" points="1313.0541,-413.0599 1303.1064,-416.7058 1313.1566,-420.0591 1313.0541,-413.0599"/>
</g>
<!-- Node24&#45;&gt;Node14 -->
<g id="edge17" class="edge">
<title>Node24&#45;&gt;Node14</title>
<path fill="none" stroke="#191970" d="M1179.6388,-413.5076C981.8803,-401.6804 413.318,-367.5513 411.4874,-366 382.7824,-341.6736 392.4874,-321.1265 392.4874,-283.5 392.4874,-283.5 392.4874,-283.5 392.4874,-216.5 392.4874,-131.5497 514.6211,-98.5886 575.2108,-87.4636"/>
<polygon fill="#191970" stroke="#191970" points="1179.7015,-417.0175 1189.8926,-414.1207 1180.1194,-410.03 1179.7015,-417.0175"/>
</g>
<!-- Node24&#45;&gt;Node17 -->
<g id="edge19" class="edge">
<title>Node24&#45;&gt;Node17</title>
<path fill="none" stroke="#191970" d="M1179.468,-413.6486C1047.8514,-405.6829 764.9252,-386.4266 725.4874,-366 653.7947,-328.867 638.3678,-280.9692 649.4874,-201 653.7503,-170.343 657.2392,-162.8358 668.4874,-134 674.384,-118.8838 683.2295,-102.2758 688.9303,-92.1173"/>
<polygon fill="#191970" stroke="#191970" points="1179.6283,-417.1644 1189.8202,-414.2707 1180.0482,-410.177 1179.6283,-417.1644"/>
</g>
<!-- Node25 -->
<g id="node17" class="node">
<title>Node25</title>
<g id="a_node17"><a xlink:href="captdns_8c.html" target="_top" xlink:title="user/captdns.c">
<polygon fill="#ffffff" stroke="#000000" points="1351.4874,-73 1351.4874,-92 1433.4874,-92 1433.4874,-73 1351.4874,-73"/>
<text text-anchor="middle" x="1392.4874" y="-80" font-family="Helvetica,sans-Serif" font-size="10.00" fill="#000000">user/captdns.c</text>
</a>
</g>
</g>
<!-- Node24&#45;&gt;Node25 -->
<g id="edge18" class="edge">
<title>Node24&#45;&gt;Node25</title>
<path fill="none" stroke="#191970" d="M1313.2724,-416.6492C1576.0384,-413.0865 2530.7659,-398.04 2662.4874,-366 2730.2938,-349.5067 2767.1262,-357.9395 2804.4874,-299 2870.2322,-195.2841 2850.0018,-213.9198 2625.4874,-134 2534.3406,-101.5547 1852.1515,-102.0637 1755.4874,-98 1638.7381,-93.0919 1500.8731,-87.1706 1433.5876,-84.2726"/>
<polygon fill="#191970" stroke="#191970" points="1313.0671,-413.1516 1303.1151,-416.7859 1313.1613,-420.1509 1313.0671,-413.1516"/>
</g>
<!-- Node26 -->
<g id="node18" class="node">
<title>Node26</title>
<g id="a_node18"><a xlink:href="httpdespfs_8c.html" target="_top" xlink:title="user/httpdespfs.c">
<polygon fill="#ffffff" stroke="#000000" points="819.9874,-73 819.9874,-92 912.9874,-92 912.9874,-73 819.9874,-73"/>
<text text-anchor="middle" x="866.4874" y="-80" font-family="Helvetica,sans-Serif" font-size="10.00" fill="#000000">user/httpdespfs.c</text>
</a>
</g>
</g>
<!-- Node24&#45;&gt;Node26 -->
<g id="edge20" class="edge">
<title>Node24&#45;&gt;Node26</title>
<path fill="none" stroke="#191970" d="M1179.4847,-414.075C1055.0811,-407.1739 798.0341,-390.1662 765.4874,-366 677.3205,-300.5352 613.9999,-221.3983 680.4874,-134 697.3255,-111.8663 770.5344,-96.7829 819.9282,-88.9131"/>
<polygon fill="#191970" stroke="#191970" points="1179.4774,-417.5798 1189.6542,-414.633 1179.861,-410.5903 1179.4774,-417.5798"/>
</g>
<!-- Node27 -->
<g id="node19" class="node">
<title>Node27</title>
<g id="a_node19"><a xlink:href="api_8h.html" target="_top" xlink:title="esp&#45;open&#45;lwip/include\l/lwip/api.h">
<polygon fill="#ffffff" stroke="#ff0000" points="420.9874,-335.5 420.9874,-365.5 533.9874,-365.5 533.9874,-335.5 420.9874,-335.5"/>
<text text-anchor="start" x="428.9874" y="-353.5" font-family="Helvetica,sans-Serif" font-size="10.00" fill="#000000">esp&#45;open&#45;lwip/include</text>
<text text-anchor="middle" x="477.4874" y="-342.5" font-family="Helvetica,sans-Serif" font-size="10.00" fill="#000000">/lwip/api.h</text>
</a>
</g>
</g>
<!-- Node24&#45;&gt;Node27 -->
<g id="edge21" class="edge">
<title>Node24&#45;&gt;Node27</title>
<path fill="none" stroke="#191970" d="M1179.4311,-413.2131C1015.6934,-402.6569 604.3322,-375.572 542.4874,-366 539.7359,-365.5741 536.929,-365.0919 534.1013,-364.5676"/>
<polygon fill="#191970" stroke="#191970" points="1179.6475,-416.7342 1189.8518,-413.8841 1180.0974,-409.7486 1179.6475,-416.7342"/>
</g>
<!-- Node31 -->
<g id="node20" class="node">
<title>Node31</title>
<g id="a_node20"><a xlink:href="api__msg_8h.html" target="_top" xlink:title="esp&#45;open&#45;lwip/include\l/lwip/api_msg.h">
<polygon fill="#ffffff" stroke="#ff0000" points="551.9874,-335.5 551.9874,-365.5 664.9874,-365.5 664.9874,-335.5 551.9874,-335.5"/>
<text text-anchor="start" x="559.9874" y="-353.5" font-family="Helvetica,sans-Serif" font-size="10.00" fill="#000000">esp&#45;open&#45;lwip/include</text>
<text text-anchor="middle" x="608.4874" y="-342.5" font-family="Helvetica,sans-Serif" font-size="10.00" fill="#000000">/lwip/api_msg.h</text>
</a>
</g>
</g>
<!-- Node24&#45;&gt;Node31 -->
<g id="edge22" class="edge">
<title>Node24&#45;&gt;Node31</title>
<path fill="none" stroke="#191970" d="M1179.6069,-414.1256C1073.2249,-408.1525 859.12,-393.6559 679.4874,-366 674.8736,-365.2897 670.1103,-364.4609 665.3372,-363.5627"/>
<polygon fill="#191970" stroke="#191970" points="1179.6924,-417.6356 1189.8707,-414.6941 1180.0797,-410.6463 1179.6924,-417.6356"/>
</g>
<!-- Node32 -->
<g id="node21" class="node">
<title>Node32</title>
<g id="a_node21"><a xlink:href="autoip_8h.html" target="_top" xlink:title="esp&#45;open&#45;lwip/include\l/lwip/autoip.h">
<polygon fill="#ffffff" stroke="#ff0000" points="212.9874,-335.5 212.9874,-365.5 325.9874,-365.5 325.9874,-335.5 212.9874,-335.5"/>
<text text-anchor="start" x="220.9874" y="-353.5" font-family="Helvetica,sans-Serif" font-size="10.00" fill="#000000">esp&#45;open&#45;lwip/include</text>
<text text-anchor="middle" x="269.4874" y="-342.5" font-family="Helvetica,sans-Serif" font-size="10.00" fill="#000000">/lwip/autoip.h</text>
</a>
</g>
</g>
<!-- Node24&#45;&gt;Node32 -->
<g id="edge23" class="edge">
<title>Node24&#45;&gt;Node32</title>
<path fill="none" stroke="#191970" d="M1179.746,-413.4498C1127.2284,-410.2801 1052.1932,-405.7893 986.4874,-402 699.4079,-385.4438 625.4159,-404.7889 340.4874,-366 335.8619,-365.3703 331.0903,-364.5988 326.3115,-363.7398"/>
<polygon fill="#191970" stroke="#191970" points="1179.747,-416.9562 1189.9399,-414.0656 1180.1691,-409.9689 1179.747,-416.9562"/>
</g>
<!-- Node34 -->
<g id="node22" class="node">
<title>Node34</title>
<g id="a_node22"><a xlink:href="ip_8c.html" target="_top" xlink:title="esp&#45;open&#45;lwip/lwip\l/core/ipv4/ip.c">
<polygon fill="#ffffff" stroke="#000000" points="1152.9874,-.5 1152.9874,-30.5 1251.9874,-30.5 1251.9874,-.5 1152.9874,-.5"/>
<text text-anchor="start" x="1160.9874" y="-18.5" font-family="Helvetica,sans-Serif" font-size="10.00" fill="#000000">esp&#45;open&#45;lwip/lwip</text>
<text text-anchor="middle" x="1202.4874" y="-7.5" font-family="Helvetica,sans-Serif" font-size="10.00" fill="#000000">/core/ipv4/ip.c</text>
</a>
</g>
</g>
<!-- Node24&#45;&gt;Node34 -->
<g id="edge126" class="edge">
<title>Node24&#45;&gt;Node34</title>
<path fill="none" stroke="#191970" d="M1179.6923,-413.4907C977.9276,-401.3801 388.4874,-366 388.4874,-366 314.803,-293.379 335.3269,-208.1355 407.4874,-134 456.7227,-83.4173 483.2213,-84.9569 551.4874,-67 664.9692,-37.1495 1020.569,-21.9009 1152.5395,-17.1572"/>
<polygon fill="#191970" stroke="#191970" points="1179.6681,-416.9955 1189.8599,-414.101 1180.0876,-410.0081 1179.6681,-416.9955"/>
</g>
<!-- Node24&#45;&gt;Node35 -->
<g id="edge25" class="edge">
<title>Node24&#45;&gt;Node35</title>
<path fill="none" stroke="#191970" d="M1313.3661,-402.9517C1368.5143,-390.9552 1445.8761,-374.1265 1497.9682,-362.7948"/>
<polygon fill="#191970" stroke="#191970" points="1312.3658,-399.5874 1303.3383,-405.1331 1313.8538,-406.4274 1312.3658,-399.5874"/>
</g>
<!-- Node36 -->
<g id="node24" class="node">
<title>Node36</title>
<g id="a_node24"><a xlink:href="inet_8h.html" target="_top" xlink:title="esp&#45;open&#45;lwip/include\l/lwip/inet.h">
<polygon fill="#ffffff" stroke="#ff0000" points="2389.9874,-201.5 2389.9874,-231.5 2502.9874,-231.5 2502.9874,-201.5 2389.9874,-201.5"/>
<text text-anchor="start" x="2397.9874" y="-219.5" font-family="Helvetica,sans-Serif" font-size="10.00" fill="#000000">esp&#45;open&#45;lwip/include</text>
<text text-anchor="middle" x="2446.4874" y="-208.5" font-family="Helvetica,sans-Serif" font-size="10.00" fill="#000000">/lwip/inet.h</text>
</a>
</g>
</g>
<!-- Node24&#45;&gt;Node36 -->
<g id="edge113" class="edge">
<title>Node24&#45;&gt;Node36</title>
<path fill="none" stroke="#191970" d="M1313.3733,-417.0506C1485.6098,-415.3143 1958.2778,-406.8831 2349.4874,-366 2533.5629,-346.7633 2640.607,-440.0054 2760.4874,-299 2817.0839,-232.4302 2797.854,-286.116 2512.4874,-232 2509.4808,-231.4298 2506.4041,-230.8156 2503.3026,-230.1721"/>
<polygon fill="#191970" stroke="#191970" points="1313.1628,-413.5524 1303.1971,-417.1489 1313.2305,-420.552 1313.1628,-413.5524"/>
</g>
<!-- Node42 -->
<g id="node27" class="node">
<title>Node42</title>
<g id="a_node27"><a xlink:href="ip_8h.html" target="_top" xlink:title="esp&#45;open&#45;lwip/include\l/lwip/ip.h">
<polygon fill="#ffffff" stroke="#ff0000" points="1441.9874,-134.5 1441.9874,-164.5 1554.9874,-164.5 1554.9874,-134.5 1441.9874,-134.5"/>
<text text-anchor="start" x="1449.9874" y="-152.5" font-family="Helvetica,sans-Serif" font-size="10.00" fill="#000000">esp&#45;open&#45;lwip/include</text>
<text text-anchor="middle" x="1498.4874" y="-141.5" font-family="Helvetica,sans-Serif" font-size="10.00" fill="#000000">/lwip/ip.h</text>
</a>
</g>
</g>
<!-- Node24&#45;&gt;Node42 -->
<g id="edge115" class="edge">
<title>Node24&#45;&gt;Node42</title>
<path fill="none" stroke="#191970" d="M1257.1977,-392.5394C1272.9,-358.9884 1305.3896,-299.8833 1351.4874,-268 1404.3268,-231.454 1450.0066,-281.0607 1491.4874,-232 1507.3577,-213.2298 1505.1495,-182.7254 1501.9336,-164.5378"/>
<polygon fill="#191970" stroke="#191970" points="1253.8163,-391.5207 1252.8671,-402.0729 1260.1896,-394.4158 1253.8163,-391.5207"/>
</g>
<!-- Node44 -->
<g id="node28" class="node">
<title>Node44</title>
<g id="a_node28"><a xlink:href="ip__frag_8h.html" target="_top" xlink:title="esp&#45;open&#45;lwip/include\l/lwip/ip_frag.h">
<polygon fill="#ffffff" stroke="#ff0000" points="1763.9874,-67.5 1763.9874,-97.5 1876.9874,-97.5 1876.9874,-67.5 1763.9874,-67.5"/>
<text text-anchor="start" x="1771.9874" y="-85.5" font-family="Helvetica,sans-Serif" font-size="10.00" fill="#000000">esp&#45;open&#45;lwip/include</text>
<text text-anchor="middle" x="1820.4874" y="-74.5" font-family="Helvetica,sans-Serif" font-size="10.00" fill="#000000">/lwip/ip_frag.h</text>
</a>
</g>
</g>
<!-- Node24&#45;&gt;Node44 -->
<g id="edge117" class="edge">
<title>Node24&#45;&gt;Node44</title>
<path fill="none" stroke="#191970" d="M1313.0405,-416.2333C1592.8355,-410.7741 2662.4565,-388.5131 2730.4874,-366 2780.23,-349.539 2799.1349,-343.0615 2827.4874,-299 2851.2325,-262.0987 2863.6293,-237.6429 2839.4874,-201 2797.9732,-137.989 2757.0362,-150.8646 2683.4874,-134 2337.8735,-54.7513 2237.7046,-146.7435 1886.4874,-98 1883.4563,-97.5793 1880.36,-97.0842 1877.2432,-96.5341"/>
<polygon fill="#191970" stroke="#191970" points="1312.9627,-412.734 1303.0327,-416.4279 1313.0989,-419.7327 1312.9627,-412.734"/>
</g>
<!-- Node45 -->
<g id="node29" class="node">
<title>Node45</title>
<g id="a_node29"><a xlink:href="ip__frag_8c.html" target="_top" xlink:title="esp&#45;open&#45;lwip/lwip\l/core/ipv4/ip_frag.c">
<polygon fill="#ffffff" stroke="#000000" points="1860.9874,-.5 1860.9874,-30.5 1961.9874,-30.5 1961.9874,-.5 1860.9874,-.5"/>
<text text-anchor="start" x="1868.9874" y="-18.5" font-family="Helvetica,sans-Serif" font-size="10.00" fill="#000000">esp&#45;open&#45;lwip/lwip</text>
<text text-anchor="middle" x="1911.4874" y="-7.5" font-family="Helvetica,sans-Serif" font-size="10.00" fill="#000000">/core/ipv4/ip_frag.c</text>
</a>
</g>
</g>
<!-- Node24&#45;&gt;Node45 -->
<g id="edge127" class="edge">
<title>Node24&#45;&gt;Node45</title>
<path fill="none" stroke="#191970" d="M1313.4751,-416.4572C1604.0437,-411.786 2743.9722,-391.8782 2815.4874,-366 2917.1851,-329.2001 3007.4874,-324.651 3007.4874,-216.5 3007.4874,-216.5 3007.4874,-216.5 3007.4874,-149.5 3007.4874,-42.75 2177.7015,-20.3181 1962.1517,-16.2919"/>
<polygon fill="#191970" stroke="#191970" points="1313.0381,-412.9636 1303.0954,-416.6234 1313.1502,-419.9627 1313.0381,-412.9636"/>
</g>
<!-- Node46 -->
<g id="node30" class="node">
<title>Node46</title>
<g id="a_node30"><a xlink:href="esp-open-lwip_2include_2lwip_2ip__addr_8h.html" target="_top" xlink:title="esp&#45;open&#45;lwip/include\l/lwip/ip_addr.h">
<polygon fill="#ffffff" stroke="#ff0000" points="1189.9874,-268.5 1189.9874,-298.5 1302.9874,-298.5 1302.9874,-268.5 1189.9874,-268.5"/>
<text text-anchor="start" x="1197.9874" y="-286.5" font-family="Helvetica,sans-Serif" font-size="10.00" fill="#000000">esp&#45;open&#45;lwip/include</text>
<text text-anchor="middle" x="1246.4874" y="-275.5" font-family="Helvetica,sans-Serif" font-size="10.00" fill="#000000">/lwip/ip_addr.h</text>
</a>
</g>
</g>
<!-- Node24&#45;&gt;Node46 -->
<g id="edge116" class="edge">
<title>Node24&#45;&gt;Node46</title>
<path fill="none" stroke="#191970" d="M1246.4874,-392.3415C1246.4874,-364.8131 1246.4874,-321.5714 1246.4874,-298.7614"/>
<polygon fill="#191970" stroke="#191970" points="1242.9875,-392.3889 1246.4874,-402.389 1249.9875,-392.389 1242.9875,-392.3889"/>
</g>
<!-- Node84 -->
<g id="node31" class="node">
<title>Node84</title>
<g id="a_node31"><a xlink:href="icmp_8h.html" target="_top" xlink:title="esp&#45;open&#45;lwip/include\l/lwip/icmp.h">
<polygon fill="#ffffff" stroke="#ff0000" points="1687.9874,-134.5 1687.9874,-164.5 1800.9874,-164.5 1800.9874,-134.5 1687.9874,-134.5"/>
<text text-anchor="start" x="1695.9874" y="-152.5" font-family="Helvetica,sans-Serif" font-size="10.00" fill="#000000">esp&#45;open&#45;lwip/include</text>
<text text-anchor="middle" x="1744.4874" y="-141.5" font-family="Helvetica,sans-Serif" font-size="10.00" fill="#000000">/lwip/icmp.h</text>
</a>
</g>
</g>
<!-- Node24&#45;&gt;Node84 -->
<g id="edge111" class="edge">
<title>Node24&#45;&gt;Node84</title>
<path fill="none" stroke="#191970" d="M1313.2489,-415.2873C1406.995,-411.0241 1571.6593,-398.9588 1620.4874,-366 1658.4537,-340.3729 1718.3241,-209.3163 1737.9912,-164.5281"/>
<polygon fill="#191970" stroke="#191970" points="1312.8525,-411.8012 1303.0148,-415.7345 1313.1582,-418.7945 1312.8525,-411.8012"/>
</g>
<!-- Node85 -->
<g id="node32" class="node">
<title>Node85</title>
<g id="a_node32"><a xlink:href="igmp_8h.html" target="_top" xlink:title="esp&#45;open&#45;lwip/include\l/lwip/igmp.h">
<polygon fill="#ffffff" stroke="#ff0000" points="1081.9874,-134.5 1081.9874,-164.5 1194.9874,-164.5 1194.9874,-134.5 1081.9874,-134.5"/>
<text text-anchor="start" x="1089.9874" y="-152.5" font-family="Helvetica,sans-Serif" font-size="10.00" fill="#000000">esp&#45;open&#45;lwip/include</text>
<text text-anchor="middle" x="1138.4874" y="-141.5" font-family="Helvetica,sans-Serif" font-size="10.00" fill="#000000">/lwip/igmp.h</text>
</a>
</g>
</g>
<!-- Node24&#45;&gt;Node85 -->
<g id="edge112" class="edge">
<title>Node24&#45;&gt;Node85</title>
<path fill="none" stroke="#191970" d="M1180.0165,-400.8112C1153.7947,-392.5766 1124.1166,-381.1084 1099.4874,-366 1026.0699,-320.963 993.3173,-311.2087 959.4874,-232 936.8746,-179.0546 1021.3037,-160.0678 1081.8407,-153.2723"/>
<polygon fill="#191970" stroke="#191970" points="1179.2936,-404.2496 1189.8793,-403.8098 1181.3298,-397.5522 1179.2936,-404.2496"/>
</g>
<!-- Node86 -->
<g id="node33" class="node">
<title>Node86</title>
<g id="a_node33"><a xlink:href="netif_8c.html" target="_top" xlink:title="esp&#45;open&#45;lwip/lwip\l/core/netif.c">
<polygon fill="#ffffff" stroke="#000000" points="1003.9874,-67.5 1003.9874,-97.5 1102.9874,-97.5 1102.9874,-67.5 1003.9874,-67.5"/>
<text text-anchor="start" x="1011.9874" y="-85.5" font-family="Helvetica,sans-Serif" font-size="10.00" fill="#000000">esp&#45;open&#45;lwip/lwip</text>
<text text-anchor="middle" x="1053.4874" y="-74.5" font-family="Helvetica,sans-Serif" font-size="10.00" fill="#000000">/core/netif.c</text>
</a>
</g>
</g>
<!-- Node24&#45;&gt;Node86 -->
<g id="edge129" class="edge">
<title>Node24&#45;&gt;Node86</title>
<path fill="none" stroke="#191970" d="M1179.6795,-408.9329C1114.4925,-399.7306 1020.5925,-383.9827 988.4874,-366 893.9462,-313.0455 878.1317,-269.776 850.4874,-165 846.9726,-151.6781 842.0273,-144.8744 850.4874,-134 869.1299,-110.0375 949.8369,-95.4226 1003.7003,-88.157"/>
<polygon fill="#191970" stroke="#191970" points="1179.4942,-412.4408 1189.8812,-410.3529 1180.4593,-405.5076 1179.4942,-412.4408"/>
</g>
<!-- Node87 -->
<g id="node34" class="node">
<title>Node87</title>
<g id="a_node34"><a xlink:href="inet__chksum_8h.html" target="_top" xlink:title="esp&#45;open&#45;lwip/include\l/lwip/inet_chksum.h">
<polygon fill="#ffffff" stroke="#000000" points="1099.9874,-201.5 1099.9874,-231.5 1212.9874,-231.5 1212.9874,-201.5 1099.9874,-201.5"/>
<text text-anchor="start" x="1107.9874" y="-219.5" font-family="Helvetica,sans-Serif" font-size="10.00" fill="#000000">esp&#45;open&#45;lwip/include</text>
<text text-anchor="middle" x="1156.4874" y="-208.5" font-family="Helvetica,sans-Serif" font-size="10.00" fill="#000000">/lwip/inet_chksum.h</text>
</a>
</g>
</g>
<!-- Node24&#45;&gt;Node87 -->
<g id="edge114" class="edge">
<title>Node24&#45;&gt;Node87</title>
<path fill="none" stroke="#191970" d="M1184.3601,-398.0742C1169.7794,-390.4554 1156.0208,-380.058 1147.4874,-366 1121.5823,-323.3235 1139.5974,-260.568 1150.224,-231.8575"/>
<polygon fill="#191970" stroke="#191970" points="1182.9759,-401.2921 1193.5054,-402.4668 1186.0066,-394.9822 1182.9759,-401.2921"/>
</g>
<!-- Node88 -->
<g id="node35" class="node">
<title>Node88</title>
<g id="a_node35"><a xlink:href="inet__chksum_8c.html" target="_top" xlink:title="esp&#45;open&#45;lwip/lwip\l/core/ipv4/inet_chksum.c">
<polygon fill="#ffffff" stroke="#000000" points="859.9874,-134.5 859.9874,-164.5 986.9874,-164.5 986.9874,-134.5 859.9874,-134.5"/>
<text text-anchor="start" x="867.9874" y="-152.5" font-family="Helvetica,sans-Serif" font-size="10.00" fill="#000000">esp&#45;open&#45;lwip/lwip</text>
<text text-anchor="middle" x="923.4874" y="-141.5" font-family="Helvetica,sans-Serif" font-size="10.00" fill="#000000">/core/ipv4/inet_chksum.c</text>
</a>
</g>
</g>
<!-- Node24&#45;&gt;Node88 -->
<g id="edge125" class="edge">
<title>Node24&#45;&gt;Node88</title>
<path fill="none" stroke="#191970" d="M1179.8509,-409.0806C1139.1365,-401.8892 1087.0798,-388.918 1045.4874,-366 972.2689,-325.6555 943.6616,-309.9626 913.4874,-232 904.8428,-209.6645 911.6139,-181.6064 917.4433,-164.6387"/>
<polygon fill="#191970" stroke="#191970" points="1179.5009,-412.571 1189.9444,-410.7869 1180.6677,-405.6689 1179.5009,-412.571"/>
</g>
<!-- Node90 -->
<g id="node36" class="node">
<title>Node90</title>
<g id="a_node36"><a xlink:href="netif_8h.html" target="_top" xlink:title="esp&#45;open&#45;lwip/include\l/lwip/netif.h">
<polygon fill="#ffffff" stroke="#ff0000" points="1345.9874,-201.5 1345.9874,-231.5 1458.9874,-231.5 1458.9874,-201.5 1345.9874,-201.5"/>
<text text-anchor="start" x="1353.9874" y="-219.5" font-family="Helvetica,sans-Serif" font-size="10.00" fill="#000000">esp&#45;open&#45;lwip/include</text>
<text text-anchor="middle" x="1402.4874" y="-208.5" font-family="Helvetica,sans-Serif" font-size="10.00" fill="#000000">/lwip/netif.h</text>
</a>
</g>
</g>
<!-- Node24&#45;&gt;Node90 -->
<g id="edge118" class="edge">
<title>Node24&#45;&gt;Node90</title>
<path fill="none" stroke="#191970" d="M1222.5859,-394.8087C1192.757,-363.7335 1149.2469,-307.3173 1180.4874,-268 1200.7936,-242.444 1287.1472,-228.4371 1345.9734,-221.7083"/>
<polygon fill="#191970" stroke="#191970" points="1220.3047,-397.4799 1229.8209,-402.1374 1225.2862,-392.562 1220.3047,-397.4799"/>
</g>
<!-- Node96 -->
<g id="node37" class="node">
<title>Node96</title>
<g id="a_node37"><a xlink:href="snmp__msg_8h.html" target="_top" xlink:title="esp&#45;open&#45;lwip/include\l/lwip/snmp_msg.h">
<polygon fill="#ffffff" stroke="#ff0000" points="968.9874,-201.5 968.9874,-231.5 1081.9874,-231.5 1081.9874,-201.5 968.9874,-201.5"/>
<text text-anchor="start" x="976.9874" y="-219.5" font-family="Helvetica,sans-Serif" font-size="10.00" fill="#000000">esp&#45;open&#45;lwip/include</text>
<text text-anchor="middle" x="1025.4874" y="-208.5" font-family="Helvetica,sans-Serif" font-size="10.00" fill="#000000">/lwip/snmp_msg.h</text>
</a>
</g>
</g>
<!-- Node24&#45;&gt;Node96 -->
<g id="edge121" class="edge">
<title>Node24&#45;&gt;Node96</title>
<path fill="none" stroke="#191970" d="M1190.39,-398.6856C1171.1037,-390.5362 1150.1838,-379.6796 1133.4874,-366 1085.4383,-326.6326 1048.1914,-261.0766 1032.9683,-231.632"/>
<polygon fill="#191970" stroke="#191970" points="1189.119,-401.947 1199.7009,-402.4692 1191.7543,-395.462 1189.119,-401.947"/>
</g>
<!-- Node99 -->
<g id="node38" class="node">
<title>Node99</title>
<g id="a_node38"><a xlink:href="def_8c.html" target="_top" xlink:title="esp&#45;open&#45;lwip/lwip\l/core/def.c">
<polygon fill="#ffffff" stroke="#000000" points="1359.9874,-268.5 1359.9874,-298.5 1458.9874,-298.5 1458.9874,-268.5 1359.9874,-268.5"/>
<text text-anchor="start" x="1367.9874" y="-286.5" font-family="Helvetica,sans-Serif" font-size="10.00" fill="#000000">esp&#45;open&#45;lwip/lwip</text>
<text text-anchor="middle" x="1409.4874" y="-275.5" font-family="Helvetica,sans-Serif" font-size="10.00" fill="#000000">/core/def.c</text>
</a>
</g>
</g>
<!-- Node24&#45;&gt;Node99 -->
<g id="edge124" class="edge">
<title>Node24&#45;&gt;Node99</title>
<path fill="none" stroke="#191970" d="M1293.9174,-397.9861C1311.1695,-389.605 1330.1745,-378.7766 1345.4874,-366 1369.0102,-346.3735 1389.3672,-316.7061 1400.4868,-298.8083"/>
<polygon fill="#191970" stroke="#191970" points="1292.1109,-394.9677 1284.5479,-402.3874 1295.0871,-401.3035 1292.1109,-394.9677"/>
</g>
<!-- Node100 -->
<g id="node39" class="node">
<title>Node100</title>
<g id="a_node39"><a xlink:href="mem_8c.html" target="_top" xlink:title="esp&#45;open&#45;lwip/lwip\l/core/mem.c">
<polygon fill="#ffffff" stroke="#000000" points="2520.9874,-201.5 2520.9874,-231.5 2619.9874,-231.5 2619.9874,-201.5 2520.9874,-201.5"/>
<text text-anchor="start" x="2528.9874" y="-219.5" font-family="Helvetica,sans-Serif" font-size="10.00" fill="#000000">esp&#45;open&#45;lwip/lwip</text>
<text text-anchor="middle" x="2570.4874" y="-208.5" font-family="Helvetica,sans-Serif" font-size="10.00" fill="#000000">/core/mem.c</text>
</a>
</g>
</g>
<!-- Node24&#45;&gt;Node100 -->
<g id="edge128" class="edge">
<title>Node24&#45;&gt;Node100</title>
<path fill="none" stroke="#191970" d="M1313.2759,-416.928C1544.0462,-414.628 2306.8396,-404.2467 2548.4874,-366 2657.0257,-348.8212 2720.1422,-386.6011 2786.4874,-299 2831.5659,-239.4792 2697.1148,-222.8984 2620.2165,-218.281"/>
<polygon fill="#191970" stroke="#191970" points="1312.9816,-413.4306 1303.0163,-417.0283 1313.0501,-420.4302 1312.9816,-413.4306"/>
</g>
<!-- Node101 -->
<g id="node40" class="node">
<title>Node101</title>
<g id="a_node40"><a xlink:href="pbuf_8c.html" target="_top" xlink:title="esp&#45;open&#45;lwip/lwip\l/core/pbuf.c">
<polygon fill="#ffffff" stroke="#000000" points="2102.9874,-201.5 2102.9874,-231.5 2201.9874,-231.5 2201.9874,-201.5 2102.9874,-201.5"/>
<text text-anchor="start" x="2110.9874" y="-219.5" font-family="Helvetica,sans-Serif" font-size="10.00" fill="#000000">esp&#45;open&#45;lwip/lwip</text>
<text text-anchor="middle" x="2152.4874" y="-208.5" font-family="Helvetica,sans-Serif" font-size="10.00" fill="#000000">/core/pbuf.c</text>
</a>
</g>
</g>
<!-- Node24&#45;&gt;Node101 -->
<g id="edge130" class="edge">
<title>Node24&#45;&gt;Node101</title>
<path fill="none" stroke="#191970" d="M1313.2629,-412.9701C1432.0964,-404.5449 1675.5791,-385.5396 1758.4874,-366 1794.7603,-357.4513 2022.8751,-267.809 2114.4813,-231.5728"/>
<polygon fill="#191970" stroke="#191970" points="1312.9263,-409.485 1303.1971,-413.6795 1313.4185,-416.4677 1312.9263,-409.485"/>
</g>
<!-- Node102 -->
<g id="node41" class="node">
<title>Node102</title>
<g id="a_node41"><a xlink:href="dhcp_8h.html" target="_top" xlink:title="esp&#45;open&#45;lwip/include\l/lwip/dhcp.h">
<polygon fill="#ffffff" stroke="#000000" points="42.9874,-335.5 42.9874,-365.5 155.9874,-365.5 155.9874,-335.5 42.9874,-335.5"/>
<text text-anchor="start" x="50.9874" y="-353.5" font-family="Helvetica,sans-Serif" font-size="10.00" fill="#000000">esp&#45;open&#45;lwip/include</text>
<text text-anchor="middle" x="99.4874" y="-342.5" font-family="Helvetica,sans-Serif" font-size="10.00" fill="#000000">/lwip/dhcp.h</text>
</a>
</g>
</g>
<!-- Node24&#45;&gt;Node102 -->
<g id="edge76" class="edge">
<title>Node24&#45;&gt;Node102</title>
<path fill="none" stroke="#191970" d="M1179.7559,-413.2714C1127.2437,-410.0044 1052.2108,-405.4698 986.4874,-402 638.6043,-383.6339 550.2192,-399.7203 203.4874,-366 188.0436,-364.4981 171.3899,-362.2847 156.0325,-359.9979"/>
<polygon fill="#191970" stroke="#191970" points="1179.7501,-416.7777 1189.9486,-413.9072 1180.1859,-409.7913 1179.7501,-416.7777"/>
</g>
<!-- Node103 -->
<g id="node42" class="node">
<title>Node103</title>
<g id="a_node42"><a xlink:href="dns_8h.html" target="_top" xlink:title="esp&#45;open&#45;lwip/include\l/lwip/dns.h">
<polygon fill="#ffffff" stroke="#ff0000" points="689.9874,-134.5 689.9874,-164.5 802.9874,-164.5 802.9874,-134.5 689.9874,-134.5"/>
<text text-anchor="start" x="697.9874" y="-152.5" font-family="Helvetica,sans-Serif" font-size="10.00" fill="#000000">esp&#45;open&#45;lwip/include</text>
<text text-anchor="middle" x="746.4874" y="-141.5" font-family="Helvetica,sans-Serif" font-size="10.00" fill="#000000">/lwip/dns.h</text>
</a>
</g>
</g>
<!-- Node24&#45;&gt;Node103 -->
<g id="edge78" class="edge">
<title>Node24&#45;&gt;Node103</title>
<path fill="none" stroke="#191970" d="M1179.4603,-414.1465C1060.3334,-407.5701 821.5484,-391.3718 793.4874,-366 734.5737,-312.7322 740.123,-204.5305 744.4716,-164.6784"/>
<polygon fill="#191970" stroke="#191970" points="1179.3876,-417.6476 1189.5633,-414.697 1179.7685,-410.658 1179.3876,-417.6476"/>
</g>
<!-- Node24&#45;&gt;Node107 -->
<g id="edge84" class="edge">
<title>Node24&#45;&gt;Node107</title>
<path fill="none" stroke="#191970" d="M1313.6548,-415.0587C1463.9568,-409.2933 1838.7718,-393.2332 2151.4874,-366 2176.1986,-363.848 2203.4324,-360.7702 2226.7128,-357.9235"/>
<polygon fill="#191970" stroke="#191970" points="1313.0845,-411.5778 1303.225,-415.456 1313.351,-418.5727 1313.0845,-411.5778"/>
</g>
<!-- Node109 -->
<g id="node45" class="node">
<title>Node109</title>
<g id="a_node45"><a xlink:href="pbuf_8h.html" target="_top" xlink:title="esp&#45;open&#45;lwip/include\l/lwip/pbuf.h">
<polygon fill="#ffffff" stroke="#ff0000" points="1743.9874,-268.5 1743.9874,-298.5 1856.9874,-298.5 1856.9874,-268.5 1743.9874,-268.5"/>
<text text-anchor="start" x="1751.9874" y="-286.5" font-family="Helvetica,sans-Serif" font-size="10.00" fill="#000000">esp&#45;open&#45;lwip/include</text>
<text text-anchor="middle" x="1800.4874" y="-275.5" font-family="Helvetica,sans-Serif" font-size="10.00" fill="#000000">/lwip/pbuf.h</text>
</a>
</g>
</g>
<!-- Node24&#45;&gt;Node109 -->
<g id="edge119" class="edge">
<title>Node24&#45;&gt;Node109</title>
<path fill="none" stroke="#191970" d="M1313.328,-412.1759C1412.0799,-403.7793 1591.9177,-386.3109 1653.4874,-366 1701.8458,-350.0473 1752.3773,-317.6674 1779.7876,-298.5607"/>
<polygon fill="#191970" stroke="#191970" points="1312.828,-408.7055 1303.1573,-413.033 1313.4159,-415.6808 1312.828,-408.7055"/>
</g>
<!-- Node95 -->
<g id="node46" class="node">
<title>Node95</title>
<g id="a_node46"><a xlink:href="snmp__asn1_8h.html" target="_top" xlink:title="esp&#45;open&#45;lwip/include\l/lwip/snmp_asn1.h">
<polygon fill="#ffffff" stroke="#000000" points="1971.9874,-201.5 1971.9874,-231.5 2084.9874,-231.5 2084.9874,-201.5 1971.9874,-201.5"/>
<text text-anchor="start" x="1979.9874" y="-219.5" font-family="Helvetica,sans-Serif" font-size="10.00" fill="#000000">esp&#45;open&#45;lwip/include</text>
<text text-anchor="middle" x="2028.4874" y="-208.5" font-family="Helvetica,sans-Serif" font-size="10.00" fill="#000000">/lwip/snmp_asn1.h</text>
</a>
</g>
</g>
<!-- Node24&#45;&gt;Node95 -->
<g id="edge120" class="edge">
<title>Node24&#45;&gt;Node95</title>
<path fill="none" stroke="#191970" d="M1313.2878,-415.5572C1402.7229,-411.6859 1565.7364,-400.1616 1700.4874,-366 1777.6082,-346.4486 1794.0811,-331.9727 1866.4874,-299 1914.4564,-277.1557 1968.7803,-248.7033 2000.7547,-231.5602"/>
<polygon fill="#191970" stroke="#191970" points="1313.1277,-412.0608 1303.2811,-415.9716 1313.4174,-419.0548 1313.1277,-412.0608"/>
</g>
<!-- Node110 -->
<g id="node47" class="node">
<title>Node110</title>
<g id="a_node47"><a xlink:href="sys_8h.html" target="_top" xlink:title="esp&#45;open&#45;lwip/include\l/lwip/sys.h">
<polygon fill="#ffffff" stroke="#ff0000" points="2141.9874,-268.5 2141.9874,-298.5 2254.9874,-298.5 2254.9874,-268.5 2141.9874,-268.5"/>
<text text-anchor="start" x="2149.9874" y="-286.5" font-family="Helvetica,sans-Serif" font-size="10.00" fill="#000000">esp&#45;open&#45;lwip/include</text>
<text text-anchor="middle" x="2198.4874" y="-275.5" font-family="Helvetica,sans-Serif" font-size="10.00" fill="#000000">/lwip/sys.h</text>
</a>
</g>
</g>
<!-- Node24&#45;&gt;Node110 -->
<g id="edge122" class="edge">
<title>Node24&#45;&gt;Node110</title>
<path fill="none" stroke="#191970" d="M1313.3169,-417.0302C1480.6119,-415.2469 1913.8693,-406.7157 2051.4874,-366 2100.5975,-351.4703 2151.258,-318.2532 2178.4001,-298.6875"/>
<polygon fill="#191970" stroke="#191970" points="1313.1275,-413.5319 1303.1637,-417.1336 1313.1989,-420.5315 1313.1275,-413.5319"/>
</g>
<!-- Node111 -->
<g id="node48" class="node">
<title>Node111</title>
<g id="a_node48"><a xlink:href="timers_8h.html" target="_top" xlink:title="esp&#45;open&#45;lwip/include\l/lwip/timers.h">
<polygon fill="#ffffff" stroke="#ff0000" points="2219.9874,-201.5 2219.9874,-231.5 2332.9874,-231.5 2332.9874,-201.5 2219.9874,-201.5"/>
<text text-anchor="start" x="2227.9874" y="-219.5" font-family="Helvetica,sans-Serif" font-size="10.00" fill="#000000">esp&#45;open&#45;lwip/include</text>
<text text-anchor="middle" x="2276.4874" y="-208.5" font-family="Helvetica,sans-Serif" font-size="10.00" fill="#000000">/lwip/timers.h</text>
</a>
</g>
</g>
<!-- Node24&#45;&gt;Node111 -->
<g id="edge123" class="edge">
<title>Node24&#45;&gt;Node111</title>
<path fill="none" stroke="#191970" d="M1313.4384,-416.2372C1420.3756,-413.1483 1635.8765,-402.5207 1814.4874,-366 1897.8045,-348.9641 2136.7383,-265.9283 2234.2635,-231.5005"/>
<polygon fill="#191970" stroke="#191970" points="1313.0218,-412.7473 1303.122,-416.5214 1313.2146,-419.7446 1313.0218,-412.7473"/>
</g>
<!-- Node32&#45;&gt;Node34 -->
<g id="edge24" class="edge">
<title>Node32&#45;&gt;Node34</title>
<path fill="none" stroke="#191970" d="M255.6084,-326.6258C241.7469,-300.4873 222.4874,-256.9007 222.4874,-216.5 222.4874,-216.5 222.4874,-216.5 222.4874,-149.5 222.4874,-98.4251 256.0403,-88.2438 302.4874,-67 379.8768,-31.604 975.4172,-19.179 1152.7942,-16.2423"/>
<polygon fill="#191970" stroke="#191970" points="252.5544,-328.336 260.4254,-335.4281 258.6951,-324.9755 252.5544,-328.336"/>
</g>
<!-- Node35&#45;&gt;Node34 -->
<g id="edge71" class="edge">
<title>Node35&#45;&gt;Node34</title>
<path fill="none" stroke="#191970" d="M1563.421,-325.7002C1577.0163,-283.4682 1597.9835,-196.135 1564.4874,-134 1540.1424,-88.8401 1517.6502,-87.1933 1470.4874,-67 1398.2956,-36.0902 1307.2394,-23.6171 1252.01,-18.6641"/>
<polygon fill="#191970" stroke="#191970" points="1560.0218,-324.8287 1560.1611,-335.4226 1566.6586,-327.0541 1560.0218,-324.8287"/>
</g>
<!-- Node35&#45;&gt;Node36 -->
<g id="edge26" class="edge">
<title>Node35&#45;&gt;Node36</title>
<path fill="none" stroke="#191970" d="M1621.0324,-341.7812C1694.4494,-332.0118 1816.0485,-315.3872 1920.4874,-299 2000.2513,-286.4845 2019.7697,-280.806 2099.4874,-268 2207.2842,-250.6833 2234.4944,-248.047 2342.4874,-232 2357.8357,-229.7194 2374.4572,-227.2444 2389.8143,-224.9556"/>
<polygon fill="#191970" stroke="#191970" points="1620.4518,-338.3275 1610.9996,-343.1134 1621.3733,-345.2665 1620.4518,-338.3275"/>
</g>
<!-- Node35&#45;&gt;Node42 -->
<g id="edge29" class="edge">
<title>Node35&#45;&gt;Node42</title>
<path fill="none" stroke="#191970" d="M1556.1991,-325.1874C1557.3257,-294.5938 1556.2009,-242.1054 1539.4874,-201 1533.8915,-187.2373 1523.4061,-174.1718 1514.4402,-164.6445"/>
<polygon fill="#191970" stroke="#191970" points="1552.6922,-325.2497 1555.7069,-335.4065 1559.684,-325.5866 1552.6922,-325.2497"/>
</g>
<!-- Node35&#45;&gt;Node45 -->
<g id="edge72" class="edge">
<title>Node35&#45;&gt;Node45</title>
<path fill="none" stroke="#191970" d="M1621.5747,-348.0758C1747.8446,-342.9722 2029.2853,-329.0262 2264.4874,-299 2274.7127,-297.6946 2622.8891,-239.9198 2629.4874,-232 2641.0449,-218.1279 2644.3565,-154.9587 2625.4874,-134 2580.7972,-84.3606 2117.7972,-35.4327 1962.1847,-20.2777"/>
<polygon fill="#191970" stroke="#191970" points="1621.1505,-344.5898 1611.2978,-348.4854 1621.4293,-351.5843 1621.1505,-344.5898"/>
</g>
<!-- Node35&#45;&gt;Node46 -->
<g id="edge39" class="edge">
<title>Node35&#45;&gt;Node46</title>
<path fill="none" stroke="#191970" d="M1487.6088,-335.9517C1432.4606,-323.9552 1355.0988,-307.1265 1303.0067,-295.7948"/>
<polygon fill="#191970" stroke="#191970" points="1487.1211,-339.4274 1497.6366,-338.1331 1488.6091,-332.5874 1487.1211,-339.4274"/>
</g>
<!-- Node35&#45;&gt;Node86 -->
<g id="edge74" class="edge">
<title>Node35&#45;&gt;Node86</title>
<path fill="none" stroke="#191970" d="M1487.6479,-344.5031C1412.3902,-337.0107 1286.735,-322.2686 1180.4874,-299 1155.4223,-293.5106 974.7743,-252.6084 959.4874,-232 951.2791,-220.9343 954.2149,-213.729 959.4874,-201 968.1466,-180.095 980.9264,-182.3198 995.4874,-165 1014.1903,-142.7536 1033.0252,-114.6691 1043.9569,-97.6718"/>
<polygon fill="#191970" stroke="#191970" points="1487.6311,-348.0182 1497.9253,-345.5123 1488.3152,-341.0517 1487.6311,-348.0182"/>
</g>
<!-- Node35&#45;&gt;Node88 -->
<g id="edge70" class="edge">
<title>Node35&#45;&gt;Node88</title>
<path fill="none" stroke="#191970" d="M1487.8011,-345.4944C1377.4044,-336.8142 1161.5007,-318.0637 1087.4874,-299 1012.4329,-279.6681 970.658,-295.6858 926.4874,-232 912.6832,-212.0968 915.7975,-182.5181 919.5085,-164.7124"/>
<polygon fill="#191970" stroke="#191970" points="1487.5821,-348.9879 1497.8244,-346.2776 1488.1274,-342.0092 1487.5821,-348.9879"/>
</g>
<!-- Node35&#45;&gt;Node90 -->
<g id="edge68" class="edge">
<title>Node35&#45;&gt;Node90</title>
<path fill="none" stroke="#191970" d="M1532.4248,-328.1259C1515.3907,-311.1523 1491.0037,-287.4956 1468.4874,-268 1453.6542,-255.1567 1436.1114,-241.5374 1422.8417,-231.5321"/>
<polygon fill="#191970" stroke="#191970" points="1530.159,-330.8103 1539.7008,-335.4154 1535.1134,-325.8651 1530.159,-330.8103"/>
</g>
<!-- Node35&#45;&gt;Node99 -->
<g id="edge69" class="edge">
<title>Node35&#45;&gt;Node99</title>
<path fill="none" stroke="#191970" d="M1512.6638,-331.1746C1490.2424,-320.8143 1463.0214,-308.2364 1442.1702,-298.6017"/>
<polygon fill="#191970" stroke="#191970" points="1511.4007,-334.4465 1521.9466,-335.4639 1514.337,-328.0921 1511.4007,-334.4465"/>
</g>
<!-- Node35&#45;&gt;Node100 -->
<g id="edge73" class="edge">
<title>Node35&#45;&gt;Node100</title>
<path fill="none" stroke="#191970" d="M1621.4784,-346.638C1712.9631,-340.5718 1881.8025,-326.5475 2023.4874,-299 2073.347,-289.3059 2083.5581,-277.3282 2133.4874,-268 2299.8122,-236.9259 2345.9559,-261.9461 2512.4874,-232 2515.2572,-231.5019 2518.0878,-230.9365 2520.9358,-230.3235"/>
<polygon fill="#191970" stroke="#191970" points="1621.003,-343.1615 1611.2518,-347.3042 1621.4582,-350.1467 1621.003,-343.1615"/>
</g>
<!-- Node35&#45;&gt;Node101 -->
<g id="edge75" class="edge">
<title>Node35&#45;&gt;Node101</title>
<path fill="none" stroke="#191970" d="M1621.3311,-343.4294C1685.0802,-335.7598 1783.4143,-321.5048 1866.4874,-299 1903.6928,-288.9209 1910.6952,-279.496 1947.4874,-268 2011.6904,-247.9394 2029.3254,-248.6841 2094.4874,-232 2097.2137,-231.302 2100.01,-230.5788 2102.8313,-229.8435"/>
<polygon fill="#191970" stroke="#191970" points="1620.5342,-339.9992 1611.0145,-344.6494 1621.3563,-346.9507 1620.5342,-339.9992"/>
</g>
<!-- Node37 -->
<g id="node25" class="node">
<title>Node37</title>
<g id="a_node25"><a xlink:href="dhcpserver_8c.html" target="_top" xlink:title="esp&#45;open&#45;lwip/lwip\l/app/dhcpserver.c">
<polygon fill="#ffffff" stroke="#000000" points="2516.9874,-134.5 2516.9874,-164.5 2615.9874,-164.5 2615.9874,-134.5 2516.9874,-134.5"/>
<text text-anchor="start" x="2524.9874" y="-152.5" font-family="Helvetica,sans-Serif" font-size="10.00" fill="#000000">esp&#45;open&#45;lwip/lwip</text>
<text text-anchor="middle" x="2566.4874" y="-141.5" font-family="Helvetica,sans-Serif" font-size="10.00" fill="#000000">/app/dhcpserver.c</text>
</a>
</g>
</g>
<!-- Node36&#45;&gt;Node37 -->
<g id="edge27" class="edge">
<title>Node36&#45;&gt;Node37</title>
<path fill="none" stroke="#191970" d="M2482.566,-196.3561C2500.757,-186.1995 2522.4559,-174.0843 2539.2318,-164.7177"/>
<polygon fill="#191970" stroke="#191970" points="2480.4428,-193.5329 2473.4178,-201.4639 2483.8553,-199.6448 2480.4428,-193.5329"/>
</g>
<!-- Node40 -->
<g id="node26" class="node">
<title>Node40</title>
<g id="a_node26"><a xlink:href="espconn__udp_8c.html" target="_top" xlink:title="esp&#45;open&#45;lwip/lwip\l/app/espconn_udp.c">
<polygon fill="#ffffff" stroke="#000000" points="2391.9874,-134.5 2391.9874,-164.5 2498.9874,-164.5 2498.9874,-134.5 2391.9874,-134.5"/>
<text text-anchor="start" x="2399.9874" y="-152.5" font-family="Helvetica,sans-Serif" font-size="10.00" fill="#000000">esp&#45;open&#45;lwip/lwip</text>
<text text-anchor="middle" x="2445.4874" y="-141.5" font-family="Helvetica,sans-Serif" font-size="10.00" fill="#000000">/app/espconn_udp.c</text>
</a>
</g>
</g>
<!-- Node36&#45;&gt;Node40 -->
<g id="edge28" class="edge">
<title>Node36&#45;&gt;Node40</title>
<path fill="none" stroke="#191970" d="M2446.1072,-191.0249C2445.9744,-182.128 2445.8297,-172.4287 2445.7135,-164.6432"/>
<polygon fill="#191970" stroke="#191970" points="2442.6116,-191.35 2446.2605,-201.2967 2449.6108,-191.2455 2442.6116,-191.35"/>
</g>
<!-- Node42&#45;&gt;Node13 -->
<g id="edge30" class="edge">
<title>Node42&#45;&gt;Node13</title>
<path fill="none" stroke="#191970" d="M1565.5686,-134.6666C1566.8848,-134.4369 1568.1921,-134.2144 1569.4874,-134 1709.3792,-110.8486 1747.8888,-127.9346 1886.4874,-98 1893.592,-96.4656 1901.1353,-94.2968 1908.0861,-92.0663"/>
<polygon fill="#191970" stroke="#191970" points="1564.5543,-131.2946 1555.3554,-136.5511 1565.8245,-138.1784 1564.5543,-131.2946"/>
</g>
<!-- Node42&#45;&gt;Node14 -->
<g id="edge31" class="edge">
<title>Node42&#45;&gt;Node14</title>
<path fill="none" stroke="#191970" d="M1431.8782,-145.9876C1238.5359,-135.7216 688.5088,-105.9887 650.4874,-98 643.946,-96.6256 637.0598,-94.4254 630.7986,-92.1093"/>
<polygon fill="#191970" stroke="#191970" points="1431.7375,-149.4849 1441.9089,-146.5197 1432.1084,-142.4948 1431.7375,-149.4849"/>
</g>
<!-- Node42&#45;&gt;Node17 -->
<g id="edge33" class="edge">
<title>Node42&#45;&gt;Node17</title>
<path fill="none" stroke="#191970" d="M1431.7324,-145.7961C1308.6879,-138.6816 1037.8954,-121.6842 810.4874,-98 783.1048,-95.1481 752.2113,-90.9728 729.1948,-87.674"/>
<polygon fill="#191970" stroke="#191970" points="1431.5706,-149.2925 1441.7551,-146.3726 1431.9727,-142.304 1431.5706,-149.2925"/>
</g>
<!-- Node42&#45;&gt;Node25 -->
<g id="edge32" class="edge">
<title>Node42&#45;&gt;Node25</title>
<path fill="none" stroke="#191970" d="M1466.125,-129.0445C1446.6901,-116.7601 1422.8675,-101.7025 1407.6817,-92.1039"/>
<polygon fill="#191970" stroke="#191970" points="1464.3759,-132.0795 1474.699,-134.4639 1468.116,-126.1624 1464.3759,-132.0795"/>
</g>
<!-- Node42&#45;&gt;Node26 -->
<g id="edge34" class="edge">
<title>Node42&#45;&gt;Node26</title>
<path fill="none" stroke="#191970" d="M1431.559,-143.0624C1334.978,-133.6814 1150.9374,-115.4642 994.4874,-98 967.5693,-94.9952 937.5015,-91.3681 913.2751,-88.3783"/>
<polygon fill="#191970" stroke="#191970" points="1431.4713,-146.5702 1441.7626,-144.0522 1432.1472,-139.6029 1431.4713,-146.5702"/>
</g>
<!-- Node42&#45;&gt;Node34 -->
<g id="edge38" class="edge">
<title>Node42&#45;&gt;Node34</title>
<path fill="none" stroke="#191970" d="M1488.2139,-125.2233C1478.99,-106.4205 1463.6371,-81.2503 1442.4874,-67 1411.9171,-46.4022 1313.0612,-30.1246 1252.1728,-21.7348"/>
<polygon fill="#191970" stroke="#191970" points="1485.0845,-126.7943 1492.4769,-134.3839 1491.431,-123.8409 1485.0845,-126.7943"/>
</g>
<!-- Node42&#45;&gt;Node44 -->
<g id="edge35" class="edge">
<title>Node42&#45;&gt;Node44</title>
<path fill="none" stroke="#191970" d="M1565.0446,-134.9436C1566.5392,-134.6253 1568.0217,-134.3103 1569.4874,-134 1636.072,-119.9017 1712.7227,-104.2598 1763.6237,-93.9552"/>
<polygon fill="#191970" stroke="#191970" points="1564.0999,-131.5665 1555.0549,-137.0837 1565.5663,-138.4112 1564.0999,-131.5665"/>
</g>
<!-- Node44&#45;&gt;Node34 -->
<g id="edge36" class="edge">
<title>Node44&#45;&gt;Node34</title>
<path fill="none" stroke="#191970" d="M1753.921,-72.5982C1739.9188,-70.6378 1725.2289,-68.6715 1711.4874,-67 1543.3044,-46.5422 1343.1569,-27.9786 1252.0546,-19.8445"/>
<polygon fill="#191970" stroke="#191970" points="1753.5799,-76.0848 1763.9717,-74.0204 1754.5607,-69.1538 1753.5799,-76.0848"/>
</g>
<!-- Node44&#45;&gt;Node45 -->
<g id="edge37" class="edge">
<title>Node44&#45;&gt;Node45</title>
<path fill="none" stroke="#191970" d="M1849.2178,-61.3469C1862.7582,-51.3776 1878.6024,-39.7121 1890.9199,-30.6432"/>
<polygon fill="#191970" stroke="#191970" points="1847.1144,-58.5492 1841.1368,-67.2967 1851.2647,-64.1861 1847.1144,-58.5492"/>
</g>
<!-- Node46&#45;&gt;Node36 -->
<g id="edge46" class="edge">
<title>Node46&#45;&gt;Node36</title>
<path fill="none" stroke="#191970" d="M1313.0888,-272.5399C1325.807,-270.7673 1339.0354,-269.1417 1351.4874,-268 1790.3813,-227.7572 1903.6216,-272.5476 2342.4874,-232 2357.9384,-230.5725 2374.5944,-228.3841 2389.9518,-226.0975"/>
<polygon fill="#191970" stroke="#191970" points="1312.4233,-269.0995 1303.023,-273.9867 1313.4192,-276.0283 1312.4233,-269.0995"/>
</g>
<!-- Node46&#45;&gt;Node42 -->
<g id="edge51" class="edge">
<title>Node46&#45;&gt;Node42</title>
<path fill="none" stroke="#191970" d="M1313.2766,-268.8011C1377.5571,-254.5352 1465.4919,-234.6539 1468.4874,-232 1488.1086,-214.617 1494.9063,-183.3506 1497.2548,-164.7036"/>
<polygon fill="#191970" stroke="#191970" points="1312.1854,-265.458 1303.1797,-271.039 1313.7002,-272.2921 1312.1854,-265.458"/>
</g>
<!-- Node46&#45;&gt;Node44 -->
<g id="edge52" class="edge">
<title>Node46&#45;&gt;Node44</title>
<path fill="none" stroke="#191970" d="M1313.2943,-273.0538C1389.5908,-260.9957 1509.6493,-241.5956 1554.4874,-232 1669.4933,-207.388 1733.1389,-253.5963 1810.4874,-165 1826.7131,-146.4148 1825.7241,-115.8483 1823.2786,-97.5991"/>
<polygon fill="#191970" stroke="#191970" points="1312.6252,-269.616 1303.293,-274.632 1313.7164,-276.5305 1312.6252,-269.616"/>
</g>
<!-- Node46&#45;&gt;Node84 -->
<g id="edge40" class="edge">
<title>Node46&#45;&gt;Node84</title>
<path fill="none" stroke="#191970" d="M1313.2857,-271.48C1362.805,-262.081 1431.7764,-247.9613 1491.4874,-232 1566.9169,-211.8371 1653.0149,-182.3415 1702.823,-164.6224"/>
<polygon fill="#191970" stroke="#191970" points="1312.5163,-268.0633 1303.3373,-273.3545 1313.8125,-274.9423 1312.5163,-268.0633"/>
</g>
<!-- Node46&#45;&gt;Node85 -->
<g id="edge43" class="edge">
<title>Node46&#45;&gt;Node85</title>
<path fill="none" stroke="#191970" d="M1256.9911,-258.9146C1262.7152,-241.4038 1266.6094,-218.0473 1255.4874,-201 1241.9056,-180.1823 1217.8134,-167.7227 1195.007,-160.2925"/>
<polygon fill="#191970" stroke="#191970" points="1253.6491,-257.8634 1253.5091,-268.4573 1260.225,-260.2629 1253.6491,-257.8634"/>
</g>
<!-- Node46&#45;&gt;Node86 -->
<g id="edge67" class="edge">
<title>Node46&#45;&gt;Node86</title>
<path fill="none" stroke="#191970" d="M1245.3059,-258.3571C1243.0892,-239.9774 1237.1319,-215.7748 1221.4874,-201 1171.9568,-154.2229 1120.4023,-213.4309 1072.4874,-165 1054.7076,-147.0286 1052.2425,-115.9645 1052.5391,-97.5135"/>
<polygon fill="#191970" stroke="#191970" points="1241.8272,-258.751 1246.2238,-268.3906 1248.7981,-258.1133 1241.8272,-258.751"/>
</g>
<!-- Node46&#45;&gt;Node87 -->
<g id="edge47" class="edge">
<title>Node46&#45;&gt;Node87</title>
<path fill="none" stroke="#191970" d="M1217.6932,-262.0643C1204.3858,-252.1577 1188.8962,-240.6265 1176.829,-231.6432"/>
<polygon fill="#191970" stroke="#191970" points="1215.9537,-265.1327 1226.0651,-268.2967 1220.1337,-259.5177 1215.9537,-265.1327"/>
</g>
<!-- Node46&#45;&gt;Node90 -->
<g id="edge53" class="edge">
<title>Node46&#45;&gt;Node90</title>
<path fill="none" stroke="#191970" d="M1290.839,-264.4516C1315.0828,-254.0392 1344.692,-241.3224 1367.3253,-231.6017"/>
<polygon fill="#191970" stroke="#191970" points="1289.3041,-261.3016 1281.4969,-268.4639 1292.0665,-267.7335 1289.3041,-261.3016"/>
</g>
<!-- Node46&#45;&gt;Node96 -->
<g id="edge66" class="edge">
<title>Node46&#45;&gt;Node96</title>
<path fill="none" stroke="#191970" d="M1187.274,-265.5484C1152.2928,-254.9432 1108.4994,-241.6665 1075.3005,-231.6017"/>
<polygon fill="#191970" stroke="#191970" points="1186.3054,-268.912 1196.8907,-268.4639 1188.3363,-262.2131 1186.3054,-268.912"/>
</g>
<!-- Node84&#45;&gt;Node34 -->
<g id="edge41" class="edge">
<title>Node84&#45;&gt;Node34</title>
<path fill="none" stroke="#191970" d="M1731.0024,-125.6525C1718.691,-106.3314 1698.6049,-80.2218 1673.4874,-67 1601.2441,-28.9712 1357.8548,-18.9534 1252.1643,-16.3717"/>
<polygon fill="#191970" stroke="#191970" points="1728.0528,-127.538 1736.2559,-134.2432 1734.0247,-123.886 1728.0528,-127.538"/>
</g>
<!-- Node84&#45;&gt;Node45 -->
<g id="edge42" class="edge">
<title>Node84&#45;&gt;Node45</title>
<path fill="none" stroke="#191970" d="M1741.2877,-124.177C1740.4545,-106.2666 1742.4423,-82.7338 1755.4874,-67 1769.1859,-50.4781 1820.694,-35.5832 1860.8214,-26.1125"/>
<polygon fill="#191970" stroke="#191970" points="1737.8043,-124.5279 1742.0694,-134.2263 1744.7832,-123.985 1737.8043,-124.5279"/>
</g>
<!-- Node85&#45;&gt;Node34 -->
<g id="edge44" class="edge">
<title>Node85&#45;&gt;Node34</title>
<path fill="none" stroke="#191970" d="M1150.1562,-125.0686C1163.285,-97.58 1184.2077,-53.7732 1195.1984,-30.7614"/>
<polygon fill="#191970" stroke="#191970" points="1146.8562,-123.8569 1145.7047,-134.389 1153.1728,-126.8738 1146.8562,-123.8569"/>
</g>
<!-- Node85&#45;&gt;Node86 -->
<g id="edge45" class="edge">
<title>Node85&#45;&gt;Node86</title>
<path fill="none" stroke="#191970" d="M1111.2929,-128.0643C1098.7248,-118.1577 1084.0957,-106.6265 1072.6989,-97.6432"/>
<polygon fill="#191970" stroke="#191970" points="1109.1794,-130.8549 1119.1996,-134.2967 1113.5127,-125.3574 1109.1794,-130.8549"/>
</g>
<!-- Node87&#45;&gt;Node34 -->
<g id="edge49" class="edge">
<title>Node87&#45;&gt;Node34</title>
<path fill="none" stroke="#191970" d="M1089.6473,-201.1677C974.2581,-186.5634 722.3306,-206.8231 632.4874,-165 584.8807,-142.8385 530.8857,-105.6011 566.4874,-67 586.3197,-45.4969 1006.5035,-24.4135 1152.7976,-17.6997"/>
<polygon fill="#191970" stroke="#191970" points="1089.3228,-204.6565 1099.7137,-202.5879 1090.3008,-197.7251 1089.3228,-204.6565"/>
</g>
<!-- Node87&#45;&gt;Node45 -->
<g id="edge50" class="edge">
<title>Node87&#45;&gt;Node45</title>
<path fill="none" stroke="#191970" d="M1176.4042,-193.536C1207.7857,-159.1439 1272.4214,-95.282 1342.4874,-67 1435.9601,-29.2699 1739.6771,-18.9881 1860.873,-16.3528"/>
<polygon fill="#191970" stroke="#191970" points="1173.5928,-191.4282 1169.5123,-201.2057 1178.7995,-196.1069 1173.5928,-191.4282"/>
</g>
<!-- Node87&#45;&gt;Node88 -->
<g id="edge48" class="edge">
<title>Node87&#45;&gt;Node88</title>
<path fill="none" stroke="#191970" d="M1094.5311,-198.6842C1057.5729,-188.0568 1011.1564,-174.7095 976.0053,-164.6017"/>
<polygon fill="#191970" stroke="#191970" points="1093.6199,-202.064 1104.1977,-201.4639 1095.5544,-195.3366 1093.6199,-202.064"/>
</g>
<!-- Node90&#45;&gt;Node13 -->
<g id="edge54" class="edge">
<title>Node90&#45;&gt;Node13</title>
<path fill="none" stroke="#191970" d="M1469.2585,-200.4235C1499.2382,-191.9175 1534.5261,-180.077 1564.4874,-165 1585.5328,-154.4097 1585.5777,-142.6617 1607.4874,-134 1723.7591,-88.0336 1764.4821,-125.3257 1886.4874,-98 1893.4946,-96.4306 1900.9376,-94.2763 1907.8183,-92.0728"/>
<polygon fill="#191970" stroke="#191970" points="1468.0125,-197.1368 1459.3103,-203.1801 1469.8818,-203.8826 1468.0125,-197.1368"/>
</g>
<!-- Node90&#45;&gt;Node14 -->
<g id="edge55" class="edge">
<title>Node90&#45;&gt;Node14</title>
<path fill="none" stroke="#191970" d="M1335.5339,-210.4382C1301.4109,-207.4322 1259.2514,-203.8459 1221.4874,-201 1160.087,-196.3729 722.4204,-194.7095 668.4874,-165 638.5486,-148.5079 619.6494,-109.9919 612.1607,-92.0336"/>
<polygon fill="#191970" stroke="#191970" points="1335.5824,-213.9561 1345.852,-211.351 1336.1993,-206.9833 1335.5824,-213.9561"/>
</g>
<!-- Node90&#45;&gt;Node17 -->
<g id="edge57" class="edge">
<title>Node90&#45;&gt;Node17</title>
<path fill="none" stroke="#191970" d="M1335.5321,-210.4612C1301.4087,-207.461 1259.2493,-203.873 1221.4874,-201 1161.417,-196.4297 721.6479,-208.9905 680.4874,-165 661.6286,-144.8445 678.4751,-109.1628 688.4151,-92.1041"/>
<polygon fill="#191970" stroke="#191970" points="1335.5814,-213.9791 1345.8504,-211.372 1336.1969,-207.0062 1335.5814,-213.9791"/>
</g>
<!-- Node90&#45;&gt;Node25 -->
<g id="edge56" class="edge">
<title>Node90&#45;&gt;Node25</title>
<path fill="none" stroke="#191970" d="M1400.6036,-191.2559C1398.363,-161.2327 1394.7343,-112.6073 1393.2042,-92.1042"/>
<polygon fill="#191970" stroke="#191970" points="1397.1252,-191.6772 1401.3598,-201.389 1404.1058,-191.1562 1397.1252,-191.6772"/>
</g>
<!-- Node90&#45;&gt;Node26 -->
<g id="edge58" class="edge">
<title>Node90&#45;&gt;Node26</title>
<path fill="none" stroke="#191970" d="M1335.7107,-198.8286C1297.8198,-188.1859 1254.631,-174.8364 1237.4874,-165 1219.7504,-154.823 1221.9411,-142.8111 1203.4874,-134 1177.717,-121.6954 999.2613,-98.6725 912.9883,-88.0862"/>
<polygon fill="#191970" stroke="#191970" points="1335.1472,-202.3047 1345.7193,-201.6124 1337.023,-195.5607 1335.1472,-202.3047"/>
</g>
<!-- Node90&#45;&gt;Node34 -->
<g id="edge63" class="edge">
<title>Node90&#45;&gt;Node34</title>
<path fill="none" stroke="#191970" d="M1380.3431,-194.2449C1339.2717,-152.9682 1252.3021,-65.5637 1217.4216,-30.5088"/>
<polygon fill="#191970" stroke="#191970" points="1377.9204,-196.7723 1387.4549,-201.3923 1382.8825,-191.8349 1377.9204,-196.7723"/>
</g>
<!-- Node90&#45;&gt;Node42 -->
<g id="edge61" class="edge">
<title>Node90&#45;&gt;Node42</title>
<path fill="none" stroke="#191970" d="M1432.7964,-195.3469C1447.0808,-185.3776 1463.7955,-173.7121 1476.7898,-164.6432"/>
<polygon fill="#191970" stroke="#191970" points="1430.4686,-192.7033 1424.2713,-201.2967 1434.4748,-198.4436 1430.4686,-192.7033"/>
</g>
<!-- Node90&#45;&gt;Node44 -->
<g id="edge62" class="edge">
<title>Node90&#45;&gt;Node44</title>
<path fill="none" stroke="#191970" d="M1405.1036,-191.3215C1408.4529,-172.5419 1416.0877,-147.8369 1433.4874,-134 1458.8521,-113.8291 1662.3085,-95.0535 1763.6062,-86.8461"/>
<polygon fill="#191970" stroke="#191970" points="1401.6284,-190.8958 1403.6169,-201.3024 1408.5521,-191.9271 1401.6284,-190.8958"/>
</g>
<!-- Node90&#45;&gt;Node45 -->
<g id="edge64" class="edge">
<title>Node90&#45;&gt;Node45</title>
<path fill="none" stroke="#191970" d="M1469.0596,-201.1009C1507.4922,-191.7136 1556.568,-178.8758 1599.4874,-165 1635.7701,-153.2699 1642.4832,-143.2039 1679.4874,-134 1745.5037,-117.5801 1938.3015,-148.8526 1983.4874,-98 2004.2593,-74.6232 1968.6068,-47.2244 1940.4672,-30.625"/>
<polygon fill="#191970" stroke="#191970" points="1467.9176,-197.7763 1459.0233,-203.5332 1469.5664,-204.5794 1467.9176,-197.7763"/>
</g>
<!-- Node90&#45;&gt;Node84 -->
<g id="edge59" class="edge">
<title>Node90&#45;&gt;Node84</title>
<path fill="none" stroke="#191970" d="M1469.2833,-203.4143C1532.9306,-190.9453 1627.7073,-172.378 1687.7781,-160.6097"/>
<polygon fill="#191970" stroke="#191970" points="1468.4862,-200.0038 1459.3457,-205.3611 1469.8321,-206.8732 1468.4862,-200.0038"/>
</g>
<!-- Node90&#45;&gt;Node85 -->
<g id="edge60" class="edge">
<title>Node90&#45;&gt;Node85</title>
<path fill="none" stroke="#191970" d="M1335.9392,-199.6109C1292.4731,-188.5797 1236.3303,-174.3313 1195.0284,-163.8494"/>
<polygon fill="#191970" stroke="#191970" points="1335.2991,-203.0593 1345.8528,-202.1268 1337.0211,-196.2744 1335.2991,-203.0593"/>
</g>
<!-- Node90&#45;&gt;Node86 -->
<g id="edge65" class="edge">
<title>Node90&#45;&gt;Node86</title>
<path fill="none" stroke="#191970" d="M1367.5782,-196.5903C1334.775,-178.4791 1283.9175,-151.9166 1237.4874,-134 1193.0772,-116.8629 1140.6399,-102.7561 1103.1288,-93.6671"/>
<polygon fill="#191970" stroke="#191970" points="1365.8926,-199.6577 1376.333,-201.4603 1369.2955,-193.5404 1365.8926,-199.6577"/>
</g>
<!-- Node102&#45;&gt;Node34 -->
<g id="edge77" class="edge">
<title>Node102&#45;&gt;Node34</title>
<path fill="none" stroke="#191970" d="M106.6466,-325.7052C113.7193,-298.9869 123.4874,-255.0992 123.4874,-216.5 123.4874,-216.5 123.4874,-216.5 123.4874,-149.5 123.4874,-85.5089 180.9876,-87.8477 241.4874,-67 327.8741,-37.232 968.3081,-20.734 1152.8554,-16.563"/>
<polygon fill="#191970" stroke="#191970" points="103.2613,-324.8162 104.0017,-335.3851 110.0137,-326.6613 103.2613,-324.8162"/>
</g>
<!-- Node103&#45;&gt;Node13 -->
<g id="edge79" class="edge">
<title>Node103&#45;&gt;Node13</title>
<path fill="none" stroke="#191970" d="M813.2602,-138.4073C825.6086,-136.6808 838.4155,-135.1058 850.4874,-134 1309.2891,-91.9751 1432.6853,-177.5534 1886.4874,-98 1894.0779,-96.6694 1902.1218,-94.422 1909.4105,-92.0454"/>
<polygon fill="#191970" stroke="#191970" points="812.4185,-134.9925 803.0216,-139.8862 813.4192,-141.9206 812.4185,-134.9925"/>
</g>
<!-- Node103&#45;&gt;Node14 -->
<g id="edge80" class="edge">
<title>Node103&#45;&gt;Node14</title>
<path fill="none" stroke="#191970" d="M706.3938,-130.0343C680.7378,-117.5781 648.5732,-101.9619 628.2687,-92.1039"/>
<polygon fill="#191970" stroke="#191970" points="704.9931,-133.2448 715.5176,-134.4639 708.0504,-126.9478 704.9931,-133.2448"/>
</g>
<!-- Node103&#45;&gt;Node17 -->
<g id="edge82" class="edge">
<title>Node103&#45;&gt;Node17</title>
<path fill="none" stroke="#191970" d="M728.3918,-126.1845C719.3,-114.47 708.7831,-100.9195 701.9032,-92.055"/>
<polygon fill="#191970" stroke="#191970" points="725.7916,-128.5427 734.6878,-134.2967 731.3215,-124.2508 725.7916,-128.5427"/>
</g>
<!-- Node103&#45;&gt;Node25 -->
<g id="edge81" class="edge">
<title>Node103&#45;&gt;Node25</title>
<path fill="none" stroke="#191970" d="M813.3237,-139.0023C825.6657,-137.2164 838.4541,-135.4674 850.4874,-134 1036.9667,-111.2606 1260.5815,-92.788 1351.2706,-85.6631"/>
<polygon fill="#191970" stroke="#191970" points="812.4729,-135.5896 803.0877,-140.5057 813.4902,-142.5153 812.4729,-135.5896"/>
</g>
<!-- Node103&#45;&gt;Node26 -->
<g id="edge83" class="edge">
<title>Node103&#45;&gt;Node26</title>
<path fill="none" stroke="#191970" d="M782.235,-129.5409C804.3953,-117.1681 831.8626,-101.8322 849.2864,-92.1039"/>
<polygon fill="#191970" stroke="#191970" points="780.4428,-126.5329 773.4178,-134.4639 783.8553,-132.6448 780.4428,-126.5329"/>
</g>
<!-- Node107&#45;&gt;Node37 -->
<g id="edge108" class="edge">
<title>Node107&#45;&gt;Node37</title>
<path fill="none" stroke="#191970" d="M2350.2018,-346.2555C2431.7175,-339.9766 2563.8166,-325.936 2604.4874,-299 2643.9954,-272.8342 2669.1816,-242.5993 2646.4874,-201 2637.6276,-184.7594 2621.2076,-172.872 2605.5384,-164.6371"/>
<polygon fill="#191970" stroke="#191970" points="2349.7412,-342.7801 2340.0312,-347.0189 2350.2652,-349.7605 2349.7412,-342.7801"/>
</g>
<!-- Node107&#45;&gt;Node40 -->
<g id="edge109" class="edge">
<title>Node107&#45;&gt;Node40</title>
<path fill="none" stroke="#191970" d="M2318.5884,-330.384C2352.4185,-311.7727 2405.5404,-284.558 2454.4874,-268 2529.7066,-242.5546 2579.3133,-293.5463 2629.4874,-232 2638.1931,-221.3211 2637.814,-211.9771 2629.4874,-201 2625.4028,-195.6151 2551.9241,-176.2089 2499.0763,-162.8197"/>
<polygon fill="#191970" stroke="#191970" points="2316.62,-327.4736 2309.5777,-335.3892 2320.0192,-333.5929 2316.62,-327.4736"/>
</g>
<!-- Node107&#45;&gt;Node42 -->
<g id="edge86" class="edge">
<title>Node107&#45;&gt;Node42</title>
<path fill="none" stroke="#191970" d="M2216.2593,-348.085C2090.1202,-342.9131 1822.8108,-328.738 1735.4874,-299 1644.5368,-268.0268 1552.8606,-195.8636 1515.7111,-164.5002"/>
<polygon fill="#191970" stroke="#191970" points="2216.4228,-351.5944 2226.5557,-348.5 2216.7047,-344.6001 2216.4228,-351.5944"/>
</g>
<!-- Node107&#45;&gt;Node44 -->
<g id="edge87" class="edge">
<title>Node107&#45;&gt;Node44</title>
<path fill="none" stroke="#191970" d="M2298.5303,-326.6587C2320.8707,-289.7905 2358.5481,-221.093 2342.4874,-201 2212.7608,-38.7028 2088.9573,-144.6406 1886.4874,-98 1883.3906,-97.2866 1880.2129,-96.5513 1877.0057,-95.8066"/>
<polygon fill="#191970" stroke="#191970" points="2295.4756,-324.9446 2293.223,-335.2973 2301.4399,-328.609 2295.4756,-324.9446"/>
</g>
<!-- Node107&#45;&gt;Node90 -->
<g id="edge88" class="edge">
<title>Node107&#45;&gt;Node90</title>
<path fill="none" stroke="#191970" d="M2216.6865,-348.5142C2107.9343,-344.4053 1886.1865,-332.3691 1701.4874,-299 1609.5471,-282.3893 1504.8912,-250.3997 1446.9856,-231.5065"/>
<polygon fill="#191970" stroke="#191970" points="2216.7314,-352.0182 2226.8531,-348.8876 2216.9883,-345.0229 2216.7314,-352.0182"/>
</g>
<!-- Node107&#45;&gt;Node96 -->
<g id="edge101" class="edge">
<title>Node107&#45;&gt;Node96</title>
<path fill="none" stroke="#191970" d="M2216.6991,-347.7732C2063.0728,-341.1678 1688.3293,-323.0646 1564.4874,-299 1520.4746,-290.4475 1512.397,-277.0678 1468.4874,-268 1303.2147,-233.8692 1256.9689,-259.6395 1090.4874,-232 1087.7408,-231.544 1084.9378,-231.0373 1082.1132,-230.4933"/>
<polygon fill="#191970" stroke="#191970" points="2216.7926,-351.2802 2226.9328,-348.2102 2217.0913,-344.2866 2216.7926,-351.2802"/>
</g>
<!-- Node107&#45;&gt;Node100 -->
<g id="edge110" class="edge">
<title>Node107&#45;&gt;Node100</title>
<path fill="none" stroke="#191970" d="M2304.8717,-328.2212C2323.8915,-309.6176 2353.297,-283.6895 2383.4874,-268 2386.6342,-266.3647 2466.6528,-244.5707 2520.9854,-229.8635"/>
<polygon fill="#191970" stroke="#191970" points="2302.2351,-325.9076 2297.6267,-335.4476 2307.1785,-330.8637 2302.2351,-325.9076"/>
</g>
<!-- Node108 -->
<g id="node44" class="node">
<title>Node108</title>
<g id="a_node44"><a xlink:href="heatshrink_8c.html" target="_top" xlink:title="lib/heatshrink/heatshrink.c">
<polygon fill="#ffffff" stroke="#000000" points="2463.4874,-274 2463.4874,-293 2595.4874,-293 2595.4874,-274 2463.4874,-274"/>
<text text-anchor="middle" x="2529.4874" y="-281" font-family="Helvetica,sans-Serif" font-size="10.00" fill="#000000">lib/heatshrink/heatshrink.c</text>
</a>
</g>
</g>
<!-- Node107&#45;&gt;Node108 -->
<g id="edge85" class="edge">
<title>Node107&#45;&gt;Node108</title>
<path fill="none" stroke="#191970" d="M2348.4535,-332.806C2395.2864,-320.0507 2456.6822,-303.3291 2494.5874,-293.0053"/>
<polygon fill="#191970" stroke="#191970" points="2347.4234,-329.459 2338.6946,-335.4639 2349.263,-336.213 2347.4234,-329.459"/>
</g>
<!-- Node107&#45;&gt;Node109 -->
<g id="edge89" class="edge">
<title>Node107&#45;&gt;Node109</title>
<path fill="none" stroke="#191970" d="M2216.5225,-341.2109C2120.8437,-327.9387 1946.7065,-303.783 1857.0976,-291.3528"/>
<polygon fill="#191970" stroke="#191970" points="2216.2748,-344.7099 2226.6609,-342.6172 2217.2367,-337.7763 2216.2748,-344.7099"/>
</g>
<!-- Node107&#45;&gt;Node95 -->
<g id="edge100" class="edge">
<title>Node107&#45;&gt;Node95</title>
<path fill="none" stroke="#191970" d="M2217.0674,-332.9606C2190.2516,-324.5505 2159.5505,-313.1824 2133.4874,-299 2098.8698,-280.1626 2063.926,-249.9628 2044.3548,-231.7983"/>
<polygon fill="#191970" stroke="#191970" points="2216.1688,-336.3457 2226.7553,-335.9249 2218.217,-329.6521 2216.1688,-336.3457"/>
</g>
<!-- Node107&#45;&gt;Node110 -->
<g id="edge102" class="edge">
<title>Node107&#45;&gt;Node110</title>
<path fill="none" stroke="#191970" d="M2256.2929,-329.0643C2243.7248,-319.1577 2229.0957,-307.6265 2217.6989,-298.6432"/>
<polygon fill="#191970" stroke="#191970" points="2254.1794,-331.8549 2264.1996,-335.2967 2258.5127,-326.3574 2254.1794,-331.8549"/>
</g>
<!-- Node107&#45;&gt;Node111 -->
<g id="edge106" class="edge">
<title>Node107&#45;&gt;Node111</title>
<path fill="none" stroke="#191970" d="M2282.1732,-325.3415C2280.7351,-297.8131 2278.4762,-254.5714 2277.2847,-231.7614"/>
<polygon fill="#191970" stroke="#191970" points="2278.6811,-325.5852 2282.6981,-335.389 2285.6715,-325.22 2278.6811,-325.5852"/>
</g>
<!-- Node115 -->
<g id="node49" class="node">
<title>Node115</title>
<g id="a_node49"><a xlink:href="err_8c.html" target="_top" xlink:title="esp&#45;open&#45;lwip/lwip\l/api/err.c">
<polygon fill="#ffffff" stroke="#000000" points="2651.9874,-268.5 2651.9874,-298.5 2750.9874,-298.5 2750.9874,-268.5 2651.9874,-268.5"/>
<text text-anchor="start" x="2659.9874" y="-286.5" font-family="Helvetica,sans-Serif" font-size="10.00" fill="#000000">esp&#45;open&#45;lwip/lwip</text>
<text text-anchor="middle" x="2701.4874" y="-275.5" font-family="Helvetica,sans-Serif" font-size="10.00" fill="#000000">/api/err.c</text>
</a>
</g>
</g>
<!-- Node107&#45;&gt;Node115 -->
<g id="edge107" class="edge">
<title>Node107&#45;&gt;Node115</title>
<path fill="none" stroke="#191970" d="M2350.3692,-342.6561C2421.7813,-333.8415 2538.107,-318.22 2637.4874,-299 2642.2017,-298.0883 2647.0917,-297.0585 2651.9729,-295.974"/>
<polygon fill="#191970" stroke="#191970" points="2349.6661,-339.216 2340.1662,-343.9068 2350.5178,-346.164 2349.6661,-339.216"/>
</g>
<!-- Node109&#45;&gt;Node37 -->
<g id="edge97" class="edge">
<title>Node109&#45;&gt;Node37</title>
<path fill="none" stroke="#191970" d="M1850.2491,-264.6379C1871.9999,-255.7185 1897.5093,-244.3255 1919.4874,-232 1940.3521,-220.299 1940.9341,-208.9745 1963.4874,-201 2077.9198,-160.5385 2388.7321,-184.7624 2508.4874,-165 2511.2641,-164.5418 2514.1001,-164.0078 2516.9523,-163.4192"/>
<polygon fill="#191970" stroke="#191970" points="1848.8241,-261.4388 1840.8635,-268.4302 1851.4465,-267.929 1848.8241,-261.4388"/>
</g>
<!-- Node109&#45;&gt;Node40 -->
<g id="edge98" class="edge">
<title>Node109&#45;&gt;Node40</title>
<path fill="none" stroke="#191970" d="M1833.0554,-262.8673C1847.8514,-253.4746 1865.5693,-242.2005 1881.4874,-232 1902.8696,-218.2982 1905.5157,-209.3843 1929.4874,-201 2013.8306,-171.5004 2277.611,-156.7848 2391.851,-151.6626"/>
<polygon fill="#191970" stroke="#191970" points="1830.8314,-260.1333 1824.2626,-268.4461 1834.5815,-266.044 1830.8314,-260.1333"/>
</g>
<!-- Node109&#45;&gt;Node42 -->
<g id="edge93" class="edge">
<title>Node109&#45;&gt;Node42</title>
<path fill="none" stroke="#191970" d="M1786.2207,-259.7695C1773.6414,-240.9315 1753.5874,-215.4386 1729.4874,-201 1700.5408,-183.6577 1613.6468,-167.369 1555.0797,-157.9209"/>
<polygon fill="#191970" stroke="#191970" points="1783.4243,-261.8917 1791.7805,-268.4051 1789.3099,-258.1023 1783.4243,-261.8917"/>
</g>
<!-- Node109&#45;&gt;Node44 -->
<g id="edge94" class="edge">
<title>Node109&#45;&gt;Node44</title>
<path fill="none" stroke="#191970" d="M1825.1883,-260.8706C1832.5299,-252.588 1839.6361,-242.6217 1843.4874,-232 1858.3344,-191.053 1852.5676,-176.5986 1843.4874,-134 1840.752,-121.1669 1834.5785,-107.6581 1829.3157,-97.6971"/>
<polygon fill="#191970" stroke="#191970" points="1822.5193,-258.5986 1818.1758,-268.2622 1827.5976,-263.4164 1822.5193,-258.5986"/>
</g>
<!-- Node109&#45;&gt;Node84 -->
<g id="edge90" class="edge">
<title>Node109&#45;&gt;Node84</title>
<path fill="none" stroke="#191970" d="M1790.8944,-258.7804C1784.4407,-242.3367 1775.6512,-220.2948 1767.4874,-201 1762.2982,-188.7354 1756.1313,-174.9672 1751.4901,-164.7545"/>
<polygon fill="#191970" stroke="#191970" points="1787.684,-260.1812 1794.5844,-268.2209 1794.2037,-257.6329 1787.684,-260.1812"/>
</g>
<!-- Node109&#45;&gt;Node85 -->
<g id="edge91" class="edge">
<title>Node109&#45;&gt;Node85</title>
<path fill="none" stroke="#191970" d="M1733.4921,-278.858C1623.632,-270.7752 1410.1316,-252.9617 1337.4874,-232 1307.1208,-223.2376 1302.5018,-213.5332 1273.4874,-201 1242.8597,-187.7699 1207.6179,-174.3862 1180.8231,-164.5795"/>
<polygon fill="#191970" stroke="#191970" points="1733.5637,-282.3724 1743.7919,-279.6096 1734.0732,-275.391 1733.5637,-282.3724"/>
</g>
<!-- Node109&#45;&gt;Node87 -->
<g id="edge92" class="edge">
<title>Node109&#45;&gt;Node87</title>
<path fill="none" stroke="#191970" d="M1733.7549,-276.6236C1638.3552,-266.7844 1457.4879,-248.098 1303.4874,-232 1273.6252,-228.8784 1240.354,-225.3726 1213.0273,-222.4857"/>
<polygon fill="#191970" stroke="#191970" points="1733.531,-280.119 1743.8373,-277.6633 1734.2492,-273.1559 1733.531,-280.119"/>
</g>
<!-- Node109&#45;&gt;Node90 -->
<g id="edge95" class="edge">
<title>Node109&#45;&gt;Node90</title>
<path fill="none" stroke="#191970" d="M1733.8244,-272.2778C1656.8864,-259.326 1531.6763,-238.2479 1459.2151,-226.0496"/>
<polygon fill="#191970" stroke="#191970" points="1733.4441,-275.763 1743.8864,-273.9717 1734.6062,-268.8601 1733.4441,-275.763"/>
</g>
<!-- Node109&#45;&gt;Node101 -->
<g id="edge99" class="edge">
<title>Node109&#45;&gt;Node101</title>
<path fill="none" stroke="#191970" d="M1867.2061,-273.5239C1927.0095,-264.176 2016.9975,-249.1067 2094.4874,-232 2097.2354,-231.3934 2100.049,-230.7423 2102.8836,-230.0628"/>
<polygon fill="#191970" stroke="#191970" points="1866.4824,-270.0942 1857.1383,-275.0881 1867.5571,-277.0112 1866.4824,-270.0942"/>
</g>
<!-- Node109&#45;&gt;Node95 -->
<g id="edge96" class="edge">
<title>Node109&#45;&gt;Node95</title>
<path fill="none" stroke="#191970" d="M1861.5764,-265.5484C1897.6657,-254.9432 1942.8462,-241.6665 1977.0966,-231.6017"/>
<polygon fill="#191970" stroke="#191970" points="1860.2626,-262.2864 1851.6551,-268.4639 1862.2362,-269.0025 1860.2626,-262.2864"/>
</g>
<!-- Node110&#45;&gt;Node100 -->
<g id="edge104" class="edge">
<title>Node110&#45;&gt;Node100</title>
<path fill="none" stroke="#191970" d="M2265.1757,-274.5088C2328.9853,-265.4475 2427.7726,-250.2204 2512.4874,-232 2515.2387,-231.4083 2518.0548,-230.7689 2520.8914,-230.0986"/>
<polygon fill="#191970" stroke="#191970" points="2264.6557,-271.0474 2255.2424,-275.9096 2265.6332,-277.9788 2264.6557,-271.0474"/>
</g>
<!-- Node110&#45;&gt;Node101 -->
<g id="edge105" class="edge">
<title>Node110&#45;&gt;Node101</title>
<path fill="none" stroke="#191970" d="M2182.1976,-259.7735C2175.7726,-250.4154 2168.582,-239.9421 2162.8842,-231.6432"/>
<polygon fill="#191970" stroke="#191970" points="2179.5038,-262.0337 2188.0493,-268.2967 2185.2746,-258.0716 2179.5038,-262.0337"/>
</g>
<!-- Node110&#45;&gt;Node111 -->
<g id="edge103" class="edge">
<title>Node110&#45;&gt;Node111</title>
<path fill="none" stroke="#191970" d="M2224.1035,-261.4965C2235.4858,-251.7193 2248.5991,-240.4554 2258.8581,-231.6432"/>
<polygon fill="#191970" stroke="#191970" points="2221.492,-259.1257 2216.1869,-268.2967 2226.0532,-264.4357 2221.492,-259.1257"/>
</g>
</g>
</svg>
