<?xml version="1.0" encoding="UTF-8" standalone="no"?>
<!DOCTYPE svg PUBLIC "-//W3C//DTD SVG 1.1//EN"
 "http://www.w3.org/Graphics/SVG/1.1/DTD/svg11.dtd">
<!-- Generated by graphviz version 2.39.20160927.1334 (20160927.1334)
 -->
<!-- Title: cgiReadFlash Pages: 1 -->
<svg width="719pt" height="294pt"
 viewBox="0.00 0.00 719.00 294.00" xmlns="http://www.w3.org/2000/svg" xmlns:xlink="http://www.w3.org/1999/xlink">
<g id="graph0" class="graph" transform="scale(1 1) rotate(0) translate(4 290)">
<title>cgiReadFlash</title>
<polygon fill="#ffffff" stroke="transparent" points="-4,4 -4,-290 715,-290 715,4 -4,4"/>
<!-- Node1 -->
<g id="node1" class="node">
<title>Node1</title>
<polygon fill="#bfbfbf" stroke="#000000" points="0,-152.5 0,-171.5 78,-171.5 78,-152.5 0,-152.5"/>
<text text-anchor="middle" x="39" y="-159.5" font-family="Helvetica,sans-Serif" font-size="10.00" fill="#000000">cgiReadFlash</text>
</g>
<!-- Node2 -->
<g id="node2" class="node">
<title>Node2</title>
<g id="a_node2"><a xlink:href="httpd_8c.html#a5e2f9cdbfd9a1d09bc09ff9dbd408e5d" target="_top" xlink:title="httpdEndHeaders">
<polygon fill="#ffffff" stroke="#000000" points="119.5,-190.5 119.5,-209.5 213.5,-209.5 213.5,-190.5 119.5,-190.5"/>
<text text-anchor="middle" x="166.5" y="-197.5" font-family="Helvetica,sans-Serif" font-size="10.00" fill="#000000">httpdEndHeaders</text>
</a>
</g>
</g>
<!-- Node1&#45;&gt;Node2 -->
<g id="edge1" class="edge">
<title>Node1&#45;&gt;Node2</title>
<path fill="none" stroke="#191970" d="M71.1736,-171.589C87.3307,-176.404 107.108,-182.299 124.452,-187.468"/>
<polygon fill="#191970" stroke="#191970" points="123.754,-190.912 134.337,-190.414 125.753,-184.204 123.754,-190.912"/>
</g>
<!-- Node4 -->
<g id="node4" class="node">
<title>Node4</title>
<g id="a_node4"><a xlink:href="httpd_8c.html#a4e03006e004d17ca91cc75f684cfe74d" target="_top" xlink:title="httpdHeader">
<polygon fill="#ffffff" stroke="#000000" points="130.5,-114.5 130.5,-133.5 202.5,-133.5 202.5,-114.5 130.5,-114.5"/>
<text text-anchor="middle" x="166.5" y="-121.5" font-family="Helvetica,sans-Serif" font-size="10.00" fill="#000000">httpdHeader</text>
</a>
</g>
</g>
<!-- Node1&#45;&gt;Node4 -->
<g id="edge3" class="edge">
<title>Node1&#45;&gt;Node4</title>
<path fill="none" stroke="#191970" d="M71.1736,-152.411C87.3307,-147.596 107.108,-141.701 124.452,-136.532"/>
<polygon fill="#191970" stroke="#191970" points="125.753,-139.796 134.337,-133.586 123.754,-133.088 125.753,-139.796"/>
</g>
<!-- Node18 -->
<g id="node18" class="node">
<title>Node18</title>
<g id="a_node18"><a xlink:href="httpd_8c.html#ae029382c3db1b881163c89ac8cea96aa" target="_top" xlink:title="httpdStartResponse">
<polygon fill="#ffffff" stroke="#000000" points="114,-152.5 114,-171.5 219,-171.5 219,-152.5 114,-152.5"/>
<text text-anchor="middle" x="166.5" y="-159.5" font-family="Helvetica,sans-Serif" font-size="10.00" fill="#000000">httpdStartResponse</text>
</a>
</g>
</g>
<!-- Node1&#45;&gt;Node18 -->
<g id="edge21" class="edge">
<title>Node1&#45;&gt;Node18</title>
<path fill="none" stroke="#191970" d="M78.2946,-162C86.3935,-162 95.113,-162 103.806,-162"/>
<polygon fill="#191970" stroke="#191970" points="103.961,-165.5 113.961,-162 103.961,-158.5 103.961,-165.5"/>
</g>
<!-- Node3 -->
<g id="node3" class="node">
<title>Node3</title>
<g id="a_node3"><a xlink:href="httpd_8c.html#a1a143f6c427d66e2561895cf193fc535" target="_top" xlink:title="httpdSend">
<polygon fill="#ffffff" stroke="#000000" points="257,-152.5 257,-171.5 319,-171.5 319,-152.5 257,-152.5"/>
<text text-anchor="middle" x="288" y="-159.5" font-family="Helvetica,sans-Serif" font-size="10.00" fill="#000000">httpdSend</text>
</a>
</g>
</g>
<!-- Node2&#45;&gt;Node3 -->
<g id="edge2" class="edge">
<title>Node2&#45;&gt;Node3</title>
<path fill="none" stroke="#191970" d="M197.16,-190.411C212.412,-185.641 231.051,-179.811 247.467,-174.677"/>
<polygon fill="#191970" stroke="#191970" points="248.851,-177.911 257.35,-171.586 246.761,-171.231 248.851,-177.911"/>
</g>
<!-- Node4&#45;&gt;Node3 -->
<g id="edge20" class="edge">
<title>Node4&#45;&gt;Node3</title>
<path fill="none" stroke="#191970" d="M197.16,-133.589C212.412,-138.359 231.051,-144.189 247.467,-149.323"/>
<polygon fill="#191970" stroke="#191970" points="246.761,-152.769 257.35,-152.414 248.851,-146.089 246.761,-152.769"/>
</g>
<!-- Node5 -->
<g id="node5" class="node">
<title>Node5</title>
<g id="a_node5"><a xlink:href="tinyprintf_8c.html#a9738cbc6c538d210941db282e240c7d6" target="_top" xlink:title="tfp_snprintf">
<polygon fill="#ffffff" stroke="#000000" points="255,-114.5 255,-133.5 321,-133.5 321,-114.5 255,-114.5"/>
<text text-anchor="middle" x="288" y="-121.5" font-family="Helvetica,sans-Serif" font-size="10.00" fill="#000000">tfp_snprintf</text>
</a>
</g>
</g>
<!-- Node4&#45;&gt;Node5 -->
<g id="edge4" class="edge">
<title>Node4&#45;&gt;Node5</title>
<path fill="none" stroke="#191970" d="M202.625,-124C215.78,-124 230.79,-124 244.517,-124"/>
<polygon fill="#191970" stroke="#191970" points="244.712,-127.5 254.712,-124 244.712,-120.5 244.712,-127.5"/>
</g>
<!-- Node6 -->
<g id="node6" class="node">
<title>Node6</title>
<g id="a_node6"><a xlink:href="tinyprintf_8c.html#ac8c8a66133cf0d7009c0d73b55311a44" target="_top" xlink:title="tfp_vsnprintf">
<polygon fill="#ffffff" stroke="#000000" points="357,-114.5 357,-133.5 428,-133.5 428,-114.5 357,-114.5"/>
<text text-anchor="middle" x="392.5" y="-121.5" font-family="Helvetica,sans-Serif" font-size="10.00" fill="#000000">tfp_vsnprintf</text>
</a>
</g>
</g>
<!-- Node5&#45;&gt;Node6 -->
<g id="edge5" class="edge">
<title>Node5&#45;&gt;Node6</title>
<path fill="none" stroke="#191970" d="M321.064,-124C329.142,-124 337.929,-124 346.49,-124"/>
<polygon fill="#191970" stroke="#191970" points="346.756,-127.5 356.756,-124 346.756,-120.5 346.756,-127.5"/>
</g>
<!-- Node7 -->
<g id="node7" class="node">
<title>Node7</title>
<g id="a_node7"><a xlink:href="tinyprintf_8c.html#a5877e42444463efc71a91b5fe76a6145" target="_top" xlink:title="tfp_format">
<polygon fill="#ffffff" stroke="#000000" points="476.5,-133.5 476.5,-152.5 538.5,-152.5 538.5,-133.5 476.5,-133.5"/>
<text text-anchor="middle" x="507.5" y="-140.5" font-family="Helvetica,sans-Serif" font-size="10.00" fill="#000000">tfp_format</text>
</a>
</g>
</g>
<!-- Node6&#45;&gt;Node7 -->
<g id="edge6" class="edge">
<title>Node6&#45;&gt;Node7</title>
<path fill="none" stroke="#191970" d="M428.256,-129.908C440.31,-131.899 453.859,-134.138 466.298,-136.193"/>
<polygon fill="#191970" stroke="#191970" points="465.992,-139.69 476.429,-137.867 467.133,-132.783 465.992,-139.69"/>
</g>
<!-- Node17 -->
<g id="node17" class="node">
<title>Node17</title>
<g id="a_node17"><a xlink:href="tinyprintf_8c.html#a919051024b2d729e34a54648b3f2462d" target="_top" xlink:title="_vsnprintf_putcf">
<polygon fill="#ffffff" stroke="#000000" points="464,-95.5 464,-114.5 551,-114.5 551,-95.5 464,-95.5"/>
<text text-anchor="middle" x="507.5" y="-102.5" font-family="Helvetica,sans-Serif" font-size="10.00" fill="#000000">_vsnprintf_putcf</text>
</a>
</g>
</g>
<!-- Node6&#45;&gt;Node17 -->
<g id="edge19" class="edge">
<title>Node6&#45;&gt;Node17</title>
<path fill="none" stroke="#191970" d="M428.256,-118.092C436.313,-116.761 445.037,-115.32 453.651,-113.897"/>
<polygon fill="#191970" stroke="#191970" points="454.371,-117.325 463.667,-112.242 453.23,-110.419 454.371,-117.325"/>
</g>
<!-- Node8 -->
<g id="node8" class="node">
<title>Node8</title>
<g id="a_node8"><a xlink:href="tinyprintf_8c.html#aa97593a5e53af85b608ad0910db92d77" target="_top" xlink:title="a2u">
<polygon fill="#ffffff" stroke="#000000" points="594.5,-266.5 594.5,-285.5 627.5,-285.5 627.5,-266.5 594.5,-266.5"/>
<text text-anchor="middle" x="611" y="-273.5" font-family="Helvetica,sans-Serif" font-size="10.00" fill="#000000">a2u</text>
</a>
</g>
</g>
<!-- Node7&#45;&gt;Node8 -->
<g id="edge7" class="edge">
<title>Node7&#45;&gt;Node8</title>
<path fill="none" stroke="#191970" d="M513.832,-152.706C526.722,-172.218 557.306,-217.297 587,-252 588.939,-254.267 591.05,-256.575 593.189,-258.821"/>
<polygon fill="#191970" stroke="#191970" points="590.835,-261.417 600.359,-266.059 595.808,-256.491 590.835,-261.417"/>
</g>
<!-- Node10 -->
<g id="node10" class="node">
<title>Node10</title>
<g id="a_node10"><a xlink:href="tinyprintf_8c.html#abcf035dd576671b0cc897de9dd8c75b0" target="_top" xlink:title="ulli2a">
<polygon fill="#ffffff" stroke="#000000" points="671,-209.5 671,-228.5 711,-228.5 711,-209.5 671,-209.5"/>
<text text-anchor="middle" x="691" y="-216.5" font-family="Helvetica,sans-Serif" font-size="10.00" fill="#000000">ulli2a</text>
</a>
</g>
</g>
<!-- Node7&#45;&gt;Node10 -->
<g id="edge9" class="edge">
<title>Node7&#45;&gt;Node10</title>
<path fill="none" stroke="#191970" d="M513.727,-152.585C525.557,-169.8 553.151,-205.424 587,-219 610.367,-228.372 639.134,-227.535 660.486,-224.829"/>
<polygon fill="#191970" stroke="#191970" points="661.228,-228.257 670.611,-223.338 660.208,-221.332 661.228,-228.257"/>
</g>
<!-- Node11 -->
<g id="node11" class="node">
<title>Node11</title>
<g id="a_node11"><a xlink:href="tinyprintf_8c.html#a1d61347854a8c290d59b4a21efcefd75" target="_top" xlink:title="uli2a">
<polygon fill="#ffffff" stroke="#000000" points="672,-123.5 672,-142.5 710,-142.5 710,-123.5 672,-123.5"/>
<text text-anchor="middle" x="691" y="-130.5" font-family="Helvetica,sans-Serif" font-size="10.00" fill="#000000">uli2a</text>
</a>
</g>
</g>
<!-- Node7&#45;&gt;Node11 -->
<g id="edge10" class="edge">
<title>Node7&#45;&gt;Node11</title>
<path fill="none" stroke="#191970" d="M538.745,-144.534C564.599,-145.436 602.257,-145.901 635,-143 643.812,-142.219 653.314,-140.761 661.944,-139.194"/>
<polygon fill="#191970" stroke="#191970" points="662.777,-142.598 671.933,-137.268 661.451,-135.725 662.777,-142.598"/>
</g>
<!-- Node12 -->
<g id="node12" class="node">
<title>Node12</title>
<g id="a_node12"><a xlink:href="tinyprintf_8c.html#ac87ff66a592723f55692eaf8e3f19df8" target="_top" xlink:title="ui2a">
<polygon fill="#ffffff" stroke="#000000" points="673.5,-66.5 673.5,-85.5 708.5,-85.5 708.5,-66.5 673.5,-66.5"/>
<text text-anchor="middle" x="691" y="-73.5" font-family="Helvetica,sans-Serif" font-size="10.00" fill="#000000">ui2a</text>
</a>
</g>
</g>
<!-- Node7&#45;&gt;Node12 -->
<g id="edge11" class="edge">
<title>Node7&#45;&gt;Node12</title>
<path fill="none" stroke="#191970" d="M530.221,-133.452C536.957,-130.521 544.317,-127.218 551,-124 567.301,-116.152 570.191,-111.69 587,-105 612.179,-94.9789 642.088,-87.0274 663.354,-82.004"/>
<polygon fill="#191970" stroke="#191970" points="664.365,-85.3628 673.328,-79.7127 662.798,-78.5405 664.365,-85.3628"/>
</g>
<!-- Node13 -->
<g id="node13" class="node">
<title>Node13</title>
<g id="a_node13"><a xlink:href="tinyprintf_8c.html#a6252dbfebb2c8783c4e3107d551082dd" target="_top" xlink:title="putchw">
<polygon fill="#ffffff" stroke="#000000" points="587,-0.5 587,-19.5 635,-19.5 635,-0.5 587,-0.5"/>
<text text-anchor="middle" x="611" y="-7.5" font-family="Helvetica,sans-Serif" font-size="10.00" fill="#000000">putchw</text>
</a>
</g>
</g>
<!-- Node7&#45;&gt;Node13 -->
<g id="edge12" class="edge">
<title>Node7&#45;&gt;Node13</title>
<path fill="none" stroke="#191970" d="M538.068,-133.416C542.827,-130.919 547.364,-127.821 551,-124 582.126,-91.291 560.337,-65.4391 587,-29 587.549,-28.2495 588.135,-27.5127 588.751,-26.7915"/>
<polygon fill="#191970" stroke="#191970" points="591.325,-29.1727 596.126,-19.7281 586.483,-24.1172 591.325,-29.1727"/>
</g>
<!-- Node14 -->
<g id="node14" class="node">
<title>Node14</title>
<g id="a_node14"><a xlink:href="tinyprintf_8c.html#a49c6d2b3d4088012f2c1fe344eef69f3" target="_top" xlink:title="lli2a">
<polygon fill="#ffffff" stroke="#000000" points="594,-190.5 594,-209.5 628,-209.5 628,-190.5 594,-190.5"/>
<text text-anchor="middle" x="611" y="-197.5" font-family="Helvetica,sans-Serif" font-size="10.00" fill="#000000">lli2a</text>
</a>
</g>
</g>
<!-- Node7&#45;&gt;Node14 -->
<g id="edge13" class="edge">
<title>Node7&#45;&gt;Node14</title>
<path fill="none" stroke="#191970" d="M525.057,-152.669C541.438,-161.69 566.091,-175.267 584.798,-185.57"/>
<polygon fill="#191970" stroke="#191970" points="583.254,-188.715 593.702,-190.474 586.631,-182.584 583.254,-188.715"/>
</g>
<!-- Node15 -->
<g id="node15" class="node">
<title>Node15</title>
<g id="a_node15"><a xlink:href="tinyprintf_8c.html#afebb7696337c3f599b5e8db35c560684" target="_top" xlink:title="li2a">
<polygon fill="#ffffff" stroke="#000000" points="595,-114.5 595,-133.5 627,-133.5 627,-114.5 595,-114.5"/>
<text text-anchor="middle" x="611" y="-121.5" font-family="Helvetica,sans-Serif" font-size="10.00" fill="#000000">li2a</text>
</a>
</g>
</g>
<!-- Node7&#45;&gt;Node15 -->
<g id="edge15" class="edge">
<title>Node7&#45;&gt;Node15</title>
<path fill="none" stroke="#191970" d="M538.553,-137.299C553.358,-134.582 570.867,-131.367 584.964,-128.78"/>
<polygon fill="#191970" stroke="#191970" points="585.773,-132.19 594.977,-126.941 584.509,-125.305 585.773,-132.19"/>
</g>
<!-- Node16 -->
<g id="node16" class="node">
<title>Node16</title>
<g id="a_node16"><a xlink:href="tinyprintf_8c.html#a90f9fd8f2133cda7f50be8d67823405c" target="_top" xlink:title="i2a">
<polygon fill="#ffffff" stroke="#000000" points="596,-38.5 596,-57.5 626,-57.5 626,-38.5 596,-38.5"/>
<text text-anchor="middle" x="611" y="-45.5" font-family="Helvetica,sans-Serif" font-size="10.00" fill="#000000">i2a</text>
</a>
</g>
</g>
<!-- Node7&#45;&gt;Node16 -->
<g id="edge17" class="edge">
<title>Node7&#45;&gt;Node16</title>
<path fill="none" stroke="#191970" d="M535.967,-133.29C541.275,-130.747 546.545,-127.665 551,-124 572.705,-106.139 568.989,-93.5808 587,-72 588.911,-69.7097 591.005,-67.3867 593.135,-65.1335"/>
<polygon fill="#191970" stroke="#191970" points="595.755,-67.4616 600.299,-57.8905 590.778,-62.539 595.755,-67.4616"/>
</g>
<!-- Node9 -->
<g id="node9" class="node">
<title>Node9</title>
<g id="a_node9"><a xlink:href="tinyprintf_8c.html#aa853a0c5ba64fa2546d488b86192e7e3" target="_top" xlink:title="a2d">
<polygon fill="#ffffff" stroke="#000000" points="674.5,-266.5 674.5,-285.5 707.5,-285.5 707.5,-266.5 674.5,-266.5"/>
<text text-anchor="middle" x="691" y="-273.5" font-family="Helvetica,sans-Serif" font-size="10.00" fill="#000000">a2d</text>
</a>
</g>
</g>
<!-- Node8&#45;&gt;Node9 -->
<g id="edge8" class="edge">
<title>Node8&#45;&gt;Node9</title>
<path fill="none" stroke="#191970" d="M627.576,-276C638.195,-276 652.215,-276 664.373,-276"/>
<polygon fill="#191970" stroke="#191970" points="664.445,-279.5 674.445,-276 664.445,-272.5 664.445,-279.5"/>
</g>
<!-- Node14&#45;&gt;Node10 -->
<g id="edge14" class="edge">
<title>Node14&#45;&gt;Node10</title>
<path fill="none" stroke="#191970" d="M628.359,-204.123C637.831,-206.372 649.829,-209.222 660.784,-211.824"/>
<polygon fill="#191970" stroke="#191970" points="660.313,-215.309 670.851,-214.215 661.931,-208.499 660.313,-215.309"/>
</g>
<!-- Node15&#45;&gt;Node11 -->
<g id="edge16" class="edge">
<title>Node15&#45;&gt;Node11</title>
<path fill="none" stroke="#191970" d="M627.189,-125.821C637.047,-126.93 649.938,-128.38 661.551,-129.687"/>
<polygon fill="#191970" stroke="#191970" points="661.404,-133.192 671.733,-130.832 662.187,-126.236 661.404,-133.192"/>
</g>
<!-- Node16&#45;&gt;Node12 -->
<g id="edge18" class="edge">
<title>Node16&#45;&gt;Node12</title>
<path fill="none" stroke="#191970" d="M626.047,-53.2666C636.619,-56.9666 651.062,-62.0217 663.644,-66.4255"/>
<polygon fill="#191970" stroke="#191970" points="662.632,-69.7793 673.227,-69.7794 664.944,-63.1723 662.632,-69.7793"/>
</g>
<!-- Node18&#45;&gt;Node3 -->
<g id="edge23" class="edge">
<title>Node18&#45;&gt;Node3</title>
<path fill="none" stroke="#191970" d="M219.085,-162C228.304,-162 237.779,-162 246.639,-162"/>
<polygon fill="#191970" stroke="#191970" points="246.706,-165.5 256.706,-162 246.706,-158.5 246.706,-165.5"/>
</g>
<!-- Node18&#45;&gt;Node5 -->
<g id="edge22" class="edge">
<title>Node18&#45;&gt;Node5</title>
<path fill="none" stroke="#191970" d="M197.16,-152.411C212.412,-147.641 231.051,-141.811 247.467,-136.677"/>
<polygon fill="#191970" stroke="#191970" points="248.851,-139.911 257.35,-133.586 246.761,-133.231 248.851,-139.911"/>
</g>
</g>
</svg>
