<?xml version="1.0" encoding="UTF-8" standalone="no"?>
<!DOCTYPE svg PUBLIC "-//W3C//DTD SVG 1.1//EN"
 "http://www.w3.org/Graphics/SVG/1.1/DTD/svg11.dtd">
<!-- Generated by graphviz version 2.39.20160927.1334 (20160927.1334)
 -->
<!-- Title: cgiSetup Pages: 1 -->
<svg width="720pt" height="382pt"
 viewBox="0.00 0.00 720.00 381.50" xmlns="http://www.w3.org/2000/svg" xmlns:xlink="http://www.w3.org/1999/xlink">
<g id="graph0" class="graph" transform="scale(1 1) rotate(0) translate(4 377.5)">
<title>cgiSetup</title>
<polygon fill="#ffffff" stroke="transparent" points="-4,4 -4,-377.5 716,-377.5 716,4 -4,4"/>
<!-- Node1 -->
<g id="node1" class="node">
<title>Node1</title>
<polygon fill="#bfbfbf" stroke="#000000" points="0,-138.5 0,-157.5 55,-157.5 55,-138.5 0,-138.5"/>
<text text-anchor="middle" x="27.5" y="-145.5" font-family="Helvetica,sans-Serif" font-size="10.00" fill="#000000">cgiSetup</text>
</g>
<!-- Node2 -->
<g id="node2" class="node">
<title>Node2</title>
<g id="a_node2"><a xlink:href="config_8c.html#acd3c633ba5f49d7bb46d6e4efa31ddb2" target="_top" xlink:title="cfg_save">
<polygon fill="#ffffff" stroke="#000000" points="101,-266.5 101,-285.5 158,-285.5 158,-266.5 101,-266.5"/>
<text text-anchor="middle" x="129.5" y="-273.5" font-family="Helvetica,sans-Serif" font-size="10.00" fill="#000000">cfg_save</text>
</a>
</g>
</g>
<!-- Node1&#45;&gt;Node2 -->
<g id="edge1" class="edge">
<title>Node1&#45;&gt;Node2</title>
<path fill="none" stroke="#191970" d="M35.1666,-157.621C52.2235,-179.026 93.5249,-230.855 115.385,-258.288"/>
<polygon fill="#191970" stroke="#191970" points="112.775,-260.628 121.744,-266.268 118.25,-256.266 112.775,-260.628"/>
</g>
<!-- Node8 -->
<g id="node8" class="node">
<title>Node8</title>
<g id="a_node8"><a xlink:href="httpd_8c.html#a5024249acf005b3e40a1257a2267532b" target="_top" xlink:title="httpdFindArg">
<polygon fill="#ffffff" stroke="#000000" points="92.5,-181.5 92.5,-200.5 166.5,-200.5 166.5,-181.5 92.5,-181.5"/>
<text text-anchor="middle" x="129.5" y="-188.5" font-family="Helvetica,sans-Serif" font-size="10.00" fill="#000000">httpdFindArg</text>
</a>
</g>
</g>
<!-- Node1&#45;&gt;Node8 -->
<g id="edge9" class="edge">
<title>Node1&#45;&gt;Node8</title>
<path fill="none" stroke="#191970" d="M50.1371,-157.543C64.003,-163.389 81.9701,-170.963 97.3015,-177.426"/>
<polygon fill="#191970" stroke="#191970" points="96.3519,-180.824 106.926,-181.484 99.0711,-174.374 96.3519,-180.824"/>
</g>
<!-- Node11 -->
<g id="node11" class="node">
<title>Node11</title>
<g id="a_node11"><a xlink:href="httpd_8c.html#ab27493bff23508040d0c672a95ecd3b6" target="_top" xlink:title="httpdRedirect">
<polygon fill="#ffffff" stroke="#000000" points="91.5,-138.5 91.5,-157.5 167.5,-157.5 167.5,-138.5 91.5,-138.5"/>
<text text-anchor="middle" x="129.5" y="-145.5" font-family="Helvetica,sans-Serif" font-size="10.00" fill="#000000">httpdRedirect</text>
</a>
</g>
</g>
<!-- Node1&#45;&gt;Node11 -->
<g id="edge12" class="edge">
<title>Node1&#45;&gt;Node11</title>
<path fill="none" stroke="#191970" d="M55.1027,-148C63.075,-148 72.0211,-148 80.8718,-148"/>
<polygon fill="#191970" stroke="#191970" points="81.1539,-151.5 91.1539,-148 81.1539,-144.5 81.1539,-151.5"/>
</g>
<!-- Node26 -->
<g id="node26" class="node">
<title>Node26</title>
<g id="a_node26"><a xlink:href="utils_8c.html#a84a001f12bbadea0d207701a1dfd63fa" target="_top" xlink:title="kw_to_w_str">
<polygon fill="#ffffff" stroke="#000000" points="93.5,-81.5 93.5,-100.5 165.5,-100.5 165.5,-81.5 93.5,-81.5"/>
<text text-anchor="middle" x="129.5" y="-88.5" font-family="Helvetica,sans-Serif" font-size="10.00" fill="#000000">kw_to_w_str</text>
</a>
</g>
</g>
<!-- Node1&#45;&gt;Node26 -->
<g id="edge30" class="edge">
<title>Node1&#45;&gt;Node26</title>
<path fill="none" stroke="#191970" d="M44.8029,-138.331C60.9458,-129.31 85.2415,-115.733 103.678,-105.43"/>
<polygon fill="#191970" stroke="#191970" points="105.431,-108.46 112.453,-100.526 102.016,-102.349 105.431,-108.46"/>
</g>
<!-- Node29 -->
<g id="node29" class="node">
<title>Node29</title>
<g id="a_node29"><a xlink:href="cgiwifi_8c.html#a9d53126c0a5bdeb1318f081f1cca3a84" target="_top" xlink:title="resetTimerCb">
<polygon fill="#ffffff" stroke="#000000" points="91,-24.5 91,-43.5 168,-43.5 168,-24.5 91,-24.5"/>
<text text-anchor="middle" x="129.5" y="-31.5" font-family="Helvetica,sans-Serif" font-size="10.00" fill="#000000">resetTimerCb</text>
</a>
</g>
</g>
<!-- Node1&#45;&gt;Node29 -->
<g id="edge34" class="edge">
<title>Node1&#45;&gt;Node29</title>
<path fill="none" stroke="#191970" d="M35.0379,-138.392C46.6533,-123.724 69.8078,-95.0245 91,-72 97.5827,-64.8481 105.136,-57.2679 111.799,-50.7747"/>
<polygon fill="#191970" stroke="#191970" points="114.325,-53.2005 119.1,-43.7423 109.469,-48.1588 114.325,-53.2005"/>
</g>
<!-- Node3 -->
<g id="node3" class="node">
<title>Node3</title>
<g id="a_node3"><a xlink:href="utils_8c.html#a3343daa80a622a02e6a039a58cb89c35" target="_top" xlink:title="ccit_crc16">
<polygon fill="#ffffff" stroke="#000000" points="225.5,-266.5 225.5,-285.5 287.5,-285.5 287.5,-266.5 225.5,-266.5"/>
<text text-anchor="middle" x="256.5" y="-273.5" font-family="Helvetica,sans-Serif" font-size="10.00" fill="#000000">ccit_crc16</text>
</a>
</g>
</g>
<!-- Node2&#45;&gt;Node3 -->
<g id="edge2" class="edge">
<title>Node2&#45;&gt;Node3</title>
<path fill="none" stroke="#191970" d="M158.001,-276C174.909,-276 196.63,-276 215.371,-276"/>
<polygon fill="#191970" stroke="#191970" points="215.426,-279.5 225.426,-276 215.426,-272.5 215.426,-279.5"/>
</g>
<!-- Node4 -->
<g id="node4" class="node">
<title>Node4</title>
<g id="a_node4"><a xlink:href="ext__spi__flash_8c.html#ab4369189179b556a6b8e2155433c5f70" target="_top" xlink:title="ext_spi_flash_erase\l_sector">
<polygon fill="#ffffff" stroke="#000000" points="204,-343 204,-373 309,-373 309,-343 204,-343"/>
<text text-anchor="start" x="212" y="-361" font-family="Helvetica,sans-Serif" font-size="10.00" fill="#000000">ext_spi_flash_erase</text>
<text text-anchor="middle" x="256.5" y="-350" font-family="Helvetica,sans-Serif" font-size="10.00" fill="#000000">_sector</text>
</a>
</g>
</g>
<!-- Node2&#45;&gt;Node4 -->
<g id="edge3" class="edge">
<title>Node2&#45;&gt;Node4</title>
<path fill="none" stroke="#191970" d="M140.58,-285.664C154.686,-297.681 180.102,-318.389 204,-333 206.931,-334.792 210.011,-336.549 213.147,-338.25"/>
<polygon fill="#191970" stroke="#191970" points="211.574,-341.377 222.063,-342.872 214.796,-335.162 211.574,-341.377"/>
</g>
<!-- Node6 -->
<g id="node6" class="node">
<title>Node6</title>
<g id="a_node6"><a xlink:href="ext__spi__flash_8c.html#a094d4588aff8210b1bb94ae90fb58526" target="_top" xlink:title="ext_spi_flash_read">
<polygon fill="#ffffff" stroke="#000000" points="206.5,-304.5 206.5,-323.5 306.5,-323.5 306.5,-304.5 206.5,-304.5"/>
<text text-anchor="middle" x="256.5" y="-311.5" font-family="Helvetica,sans-Serif" font-size="10.00" fill="#000000">ext_spi_flash_read</text>
</a>
</g>
</g>
<!-- Node2&#45;&gt;Node6 -->
<g id="edge5" class="edge">
<title>Node2&#45;&gt;Node6</title>
<path fill="none" stroke="#191970" d="M158.001,-284.528C174.739,-289.536 196.194,-295.956 214.805,-301.524"/>
<polygon fill="#191970" stroke="#191970" points="213.937,-304.918 224.52,-304.431 215.943,-298.212 213.937,-304.918"/>
</g>
<!-- Node7 -->
<g id="node7" class="node">
<title>Node7</title>
<g id="a_node7"><a xlink:href="ext__spi__flash_8c.html#a17e27ce44dd5aec4dd7a7de609093aae" target="_top" xlink:title="ext_spi_flash_write">
<polygon fill="#ffffff" stroke="#000000" points="205.5,-228.5 205.5,-247.5 307.5,-247.5 307.5,-228.5 205.5,-228.5"/>
<text text-anchor="middle" x="256.5" y="-235.5" font-family="Helvetica,sans-Serif" font-size="10.00" fill="#000000">ext_spi_flash_write</text>
</a>
</g>
</g>
<!-- Node2&#45;&gt;Node7 -->
<g id="edge7" class="edge">
<title>Node2&#45;&gt;Node7</title>
<path fill="none" stroke="#191970" d="M158.001,-267.472C174.739,-262.464 196.194,-256.044 214.805,-250.476"/>
<polygon fill="#191970" stroke="#191970" points="215.943,-253.788 224.52,-247.569 213.937,-247.082 215.943,-253.788"/>
</g>
<!-- Node5 -->
<g id="node5" class="node">
<title>Node5</title>
<g id="a_node5"><a xlink:href="spi_8c.html#acebb579091ca980f217d3e5f3bd1f1d5" target="_top" xlink:title="spi_transaction">
<polygon fill="#ffffff" stroke="#000000" points="345,-304.5 345,-323.5 429,-323.5 429,-304.5 345,-304.5"/>
<text text-anchor="middle" x="387" y="-311.5" font-family="Helvetica,sans-Serif" font-size="10.00" fill="#000000">spi_transaction</text>
</a>
</g>
</g>
<!-- Node4&#45;&gt;Node5 -->
<g id="edge4" class="edge">
<title>Node4&#45;&gt;Node5</title>
<path fill="none" stroke="#191970" d="M301.046,-342.981C316.673,-337.712 334.067,-331.847 349.098,-326.779"/>
<polygon fill="#191970" stroke="#191970" points="350.234,-330.09 358.592,-323.578 347.998,-323.457 350.234,-330.09"/>
</g>
<!-- Node6&#45;&gt;Node5 -->
<g id="edge6" class="edge">
<title>Node6&#45;&gt;Node5</title>
<path fill="none" stroke="#191970" d="M306.581,-314C315.773,-314 325.389,-314 334.645,-314"/>
<polygon fill="#191970" stroke="#191970" points="334.901,-317.5 344.901,-314 334.901,-310.5 334.901,-317.5"/>
</g>
<!-- Node7&#45;&gt;Node5 -->
<g id="edge8" class="edge">
<title>Node7&#45;&gt;Node5</title>
<path fill="none" stroke="#191970" d="M287.393,-247.528C294.653,-250.215 302.24,-253.402 309,-257 330.535,-268.463 352.779,-285.301 367.974,-297.706"/>
<polygon fill="#191970" stroke="#191970" points="366.122,-300.718 376.048,-304.423 370.599,-295.336 366.122,-300.718"/>
</g>
<!-- Node9 -->
<g id="node9" class="node">
<title>Node9</title>
<g id="a_node9"><a xlink:href="httpd_8c.html#a45e5cfc52bcba530447be34fd5bae705" target="_top" xlink:title="httpdUrlDecode">
<polygon fill="#ffffff" stroke="#000000" points="213.5,-190.5 213.5,-209.5 299.5,-209.5 299.5,-190.5 213.5,-190.5"/>
<text text-anchor="middle" x="256.5" y="-197.5" font-family="Helvetica,sans-Serif" font-size="10.00" fill="#000000">httpdUrlDecode</text>
</a>
</g>
</g>
<!-- Node8&#45;&gt;Node9 -->
<g id="edge10" class="edge">
<title>Node8&#45;&gt;Node9</title>
<path fill="none" stroke="#191970" d="M166.575,-193.627C178.015,-194.438 190.847,-195.347 203.157,-196.22"/>
<polygon fill="#191970" stroke="#191970" points="203.109,-199.725 213.332,-196.941 203.604,-192.743 203.109,-199.725"/>
</g>
<!-- Node10 -->
<g id="node10" class="node">
<title>Node10</title>
<g id="a_node10"><a xlink:href="httpd_8c.html#a635d1e810633b2b48d28d0be7357570a" target="_top" xlink:title="httpdHexVal">
<polygon fill="#ffffff" stroke="#000000" points="351.5,-190.5 351.5,-209.5 422.5,-209.5 422.5,-190.5 351.5,-190.5"/>
<text text-anchor="middle" x="387" y="-197.5" font-family="Helvetica,sans-Serif" font-size="10.00" fill="#000000">httpdHexVal</text>
</a>
</g>
</g>
<!-- Node9&#45;&gt;Node10 -->
<g id="edge11" class="edge">
<title>Node9&#45;&gt;Node10</title>
<path fill="none" stroke="#191970" d="M299.592,-200C312.963,-200 327.742,-200 341.284,-200"/>
<polygon fill="#191970" stroke="#191970" points="341.355,-203.5 351.355,-200 341.355,-196.5 341.355,-203.5"/>
</g>
<!-- Node12 -->
<g id="node12" class="node">
<title>Node12</title>
<g id="a_node12"><a xlink:href="tinyprintf_8c.html#a9738cbc6c538d210941db282e240c7d6" target="_top" xlink:title="tfp_snprintf">
<polygon fill="#ffffff" stroke="#000000" points="223.5,-114.5 223.5,-133.5 289.5,-133.5 289.5,-114.5 223.5,-114.5"/>
<text text-anchor="middle" x="256.5" y="-121.5" font-family="Helvetica,sans-Serif" font-size="10.00" fill="#000000">tfp_snprintf</text>
</a>
</g>
</g>
<!-- Node11&#45;&gt;Node12 -->
<g id="edge13" class="edge">
<title>Node11&#45;&gt;Node12</title>
<path fill="none" stroke="#191970" d="M167.604,-140.799C181.97,-138.084 198.413,-134.977 213.218,-132.179"/>
<polygon fill="#191970" stroke="#191970" points="213.985,-135.596 223.161,-130.3 212.685,-128.718 213.985,-135.596"/>
</g>
<!-- Node25 -->
<g id="node25" class="node">
<title>Node25</title>
<g id="a_node25"><a xlink:href="httpd_8c.html#a1a143f6c427d66e2561895cf193fc535" target="_top" xlink:title="httpdSend">
<polygon fill="#ffffff" stroke="#000000" points="225.5,-152.5 225.5,-171.5 287.5,-171.5 287.5,-152.5 225.5,-152.5"/>
<text text-anchor="middle" x="256.5" y="-159.5" font-family="Helvetica,sans-Serif" font-size="10.00" fill="#000000">httpdSend</text>
</a>
</g>
</g>
<!-- Node11&#45;&gt;Node25 -->
<g id="edge29" class="edge">
<title>Node11&#45;&gt;Node25</title>
<path fill="none" stroke="#191970" d="M167.604,-152.2C182.564,-153.85 199.775,-155.747 215.045,-157.43"/>
<polygon fill="#191970" stroke="#191970" points="214.931,-160.939 225.254,-158.556 215.698,-153.981 214.931,-160.939"/>
</g>
<!-- Node13 -->
<g id="node13" class="node">
<title>Node13</title>
<g id="a_node13"><a xlink:href="tinyprintf_8c.html#ac8c8a66133cf0d7009c0d73b55311a44" target="_top" xlink:title="tfp_vsnprintf">
<polygon fill="#ffffff" stroke="#000000" points="351.5,-114.5 351.5,-133.5 422.5,-133.5 422.5,-114.5 351.5,-114.5"/>
<text text-anchor="middle" x="387" y="-121.5" font-family="Helvetica,sans-Serif" font-size="10.00" fill="#000000">tfp_vsnprintf</text>
</a>
</g>
</g>
<!-- Node12&#45;&gt;Node13 -->
<g id="edge14" class="edge">
<title>Node12&#45;&gt;Node13</title>
<path fill="none" stroke="#191970" d="M289.768,-124C305.277,-124 323.989,-124 340.838,-124"/>
<polygon fill="#191970" stroke="#191970" points="341.044,-127.5 351.043,-124 341.043,-120.5 341.044,-127.5"/>
</g>
<!-- Node14 -->
<g id="node14" class="node">
<title>Node14</title>
<g id="a_node14"><a xlink:href="tinyprintf_8c.html#a5877e42444463efc71a91b5fe76a6145" target="_top" xlink:title="tfp_format">
<polygon fill="#ffffff" stroke="#000000" points="477.5,-133.5 477.5,-152.5 539.5,-152.5 539.5,-133.5 477.5,-133.5"/>
<text text-anchor="middle" x="508.5" y="-140.5" font-family="Helvetica,sans-Serif" font-size="10.00" fill="#000000">tfp_format</text>
</a>
</g>
</g>
<!-- Node13&#45;&gt;Node14 -->
<g id="edge15" class="edge">
<title>Node13&#45;&gt;Node14</title>
<path fill="none" stroke="#191970" d="M422.797,-129.598C436.766,-131.782 452.866,-134.3 467.313,-136.559"/>
<polygon fill="#191970" stroke="#191970" points="467.066,-140.063 477.487,-138.15 468.148,-133.147 467.066,-140.063"/>
</g>
<!-- Node24 -->
<g id="node24" class="node">
<title>Node24</title>
<g id="a_node24"><a xlink:href="tinyprintf_8c.html#a919051024b2d729e34a54648b3f2462d" target="_top" xlink:title="_vsnprintf_putcf">
<polygon fill="#ffffff" stroke="#000000" points="465,-95.5 465,-114.5 552,-114.5 552,-95.5 465,-95.5"/>
<text text-anchor="middle" x="508.5" y="-102.5" font-family="Helvetica,sans-Serif" font-size="10.00" fill="#000000">_vsnprintf_putcf</text>
</a>
</g>
</g>
<!-- Node13&#45;&gt;Node24 -->
<g id="edge28" class="edge">
<title>Node13&#45;&gt;Node24</title>
<path fill="none" stroke="#191970" d="M422.797,-118.402C432.77,-116.843 443.828,-115.113 454.596,-113.429"/>
<polygon fill="#191970" stroke="#191970" points="455.447,-116.839 464.786,-111.836 454.365,-109.923 455.447,-116.839"/>
</g>
<!-- Node15 -->
<g id="node15" class="node">
<title>Node15</title>
<g id="a_node15"><a xlink:href="tinyprintf_8c.html#aa97593a5e53af85b608ad0910db92d77" target="_top" xlink:title="a2u">
<polygon fill="#ffffff" stroke="#000000" points="595.5,-266.5 595.5,-285.5 628.5,-285.5 628.5,-266.5 595.5,-266.5"/>
<text text-anchor="middle" x="612" y="-273.5" font-family="Helvetica,sans-Serif" font-size="10.00" fill="#000000">a2u</text>
</a>
</g>
</g>
<!-- Node14&#45;&gt;Node15 -->
<g id="edge16" class="edge">
<title>Node14&#45;&gt;Node15</title>
<path fill="none" stroke="#191970" d="M514.832,-152.706C527.722,-172.218 558.306,-217.297 588,-252 589.939,-254.267 592.05,-256.575 594.189,-258.821"/>
<polygon fill="#191970" stroke="#191970" points="591.835,-261.417 601.359,-266.059 596.808,-256.491 591.835,-261.417"/>
</g>
<!-- Node17 -->
<g id="node17" class="node">
<title>Node17</title>
<g id="a_node17"><a xlink:href="tinyprintf_8c.html#abcf035dd576671b0cc897de9dd8c75b0" target="_top" xlink:title="ulli2a">
<polygon fill="#ffffff" stroke="#000000" points="672,-209.5 672,-228.5 712,-228.5 712,-209.5 672,-209.5"/>
<text text-anchor="middle" x="692" y="-216.5" font-family="Helvetica,sans-Serif" font-size="10.00" fill="#000000">ulli2a</text>
</a>
</g>
</g>
<!-- Node14&#45;&gt;Node17 -->
<g id="edge18" class="edge">
<title>Node14&#45;&gt;Node17</title>
<path fill="none" stroke="#191970" d="M514.727,-152.585C526.557,-169.8 554.151,-205.424 588,-219 611.367,-228.372 640.134,-227.535 661.486,-224.829"/>
<polygon fill="#191970" stroke="#191970" points="662.228,-228.257 671.611,-223.338 661.208,-221.332 662.228,-228.257"/>
</g>
<!-- Node18 -->
<g id="node18" class="node">
<title>Node18</title>
<g id="a_node18"><a xlink:href="tinyprintf_8c.html#a1d61347854a8c290d59b4a21efcefd75" target="_top" xlink:title="uli2a">
<polygon fill="#ffffff" stroke="#000000" points="673,-85.5 673,-104.5 711,-104.5 711,-85.5 673,-85.5"/>
<text text-anchor="middle" x="692" y="-92.5" font-family="Helvetica,sans-Serif" font-size="10.00" fill="#000000">uli2a</text>
</a>
</g>
</g>
<!-- Node14&#45;&gt;Node18 -->
<g id="edge19" class="edge">
<title>Node14&#45;&gt;Node18</title>
<path fill="none" stroke="#191970" d="M531.221,-133.452C537.957,-130.521 545.317,-127.218 552,-124 568.301,-116.152 570.668,-110.186 588,-105 612.417,-97.694 641.36,-95.3955 662.506,-94.8085"/>
<polygon fill="#191970" stroke="#191970" points="662.847,-98.3035 672.788,-94.6401 662.732,-91.3044 662.847,-98.3035"/>
</g>
<!-- Node19 -->
<g id="node19" class="node">
<title>Node19</title>
<g id="a_node19"><a xlink:href="tinyprintf_8c.html#ac87ff66a592723f55692eaf8e3f19df8" target="_top" xlink:title="ui2a">
<polygon fill="#ffffff" stroke="#000000" points="674.5,-28.5 674.5,-47.5 709.5,-47.5 709.5,-28.5 674.5,-28.5"/>
<text text-anchor="middle" x="692" y="-35.5" font-family="Helvetica,sans-Serif" font-size="10.00" fill="#000000">ui2a</text>
</a>
</g>
</g>
<!-- Node14&#45;&gt;Node19 -->
<g id="edge20" class="edge">
<title>Node14&#45;&gt;Node19</title>
<path fill="none" stroke="#191970" d="M533.997,-133.383C540.078,-130.681 546.419,-127.51 552,-124 569.874,-112.76 570.558,-104.899 588,-93 612.874,-76.0309 643.588,-60.3664 665.168,-50.1313"/>
<polygon fill="#191970" stroke="#191970" points="666.807,-53.2288 674.386,-45.8256 663.845,-46.8865 666.807,-53.2288"/>
</g>
<!-- Node20 -->
<g id="node20" class="node">
<title>Node20</title>
<g id="a_node20"><a xlink:href="tinyprintf_8c.html#a6252dbfebb2c8783c4e3107d551082dd" target="_top" xlink:title="putchw">
<polygon fill="#ffffff" stroke="#000000" points="588,-114.5 588,-133.5 636,-133.5 636,-114.5 588,-114.5"/>
<text text-anchor="middle" x="612" y="-121.5" font-family="Helvetica,sans-Serif" font-size="10.00" fill="#000000">putchw</text>
</a>
</g>
</g>
<!-- Node14&#45;&gt;Node20 -->
<g id="edge21" class="edge">
<title>Node14&#45;&gt;Node20</title>
<path fill="none" stroke="#191970" d="M539.553,-137.299C551.648,-135.079 565.549,-132.527 577.919,-130.256"/>
<polygon fill="#191970" stroke="#191970" points="578.673,-133.677 587.877,-128.428 577.409,-126.792 578.673,-133.677"/>
</g>
<!-- Node21 -->
<g id="node21" class="node">
<title>Node21</title>
<g id="a_node21"><a xlink:href="tinyprintf_8c.html#a49c6d2b3d4088012f2c1fe344eef69f3" target="_top" xlink:title="lli2a">
<polygon fill="#ffffff" stroke="#000000" points="595,-190.5 595,-209.5 629,-209.5 629,-190.5 595,-190.5"/>
<text text-anchor="middle" x="612" y="-197.5" font-family="Helvetica,sans-Serif" font-size="10.00" fill="#000000">lli2a</text>
</a>
</g>
</g>
<!-- Node14&#45;&gt;Node21 -->
<g id="edge22" class="edge">
<title>Node14&#45;&gt;Node21</title>
<path fill="none" stroke="#191970" d="M526.057,-152.669C542.438,-161.69 567.091,-175.267 585.798,-185.57"/>
<polygon fill="#191970" stroke="#191970" points="584.254,-188.715 594.702,-190.474 587.631,-182.584 584.254,-188.715"/>
</g>
<!-- Node22 -->
<g id="node22" class="node">
<title>Node22</title>
<g id="a_node22"><a xlink:href="tinyprintf_8c.html#afebb7696337c3f599b5e8db35c560684" target="_top" xlink:title="li2a">
<polygon fill="#ffffff" stroke="#000000" points="596,-152.5 596,-171.5 628,-171.5 628,-152.5 596,-152.5"/>
<text text-anchor="middle" x="612" y="-159.5" font-family="Helvetica,sans-Serif" font-size="10.00" fill="#000000">li2a</text>
</a>
</g>
</g>
<!-- Node14&#45;&gt;Node22 -->
<g id="edge24" class="edge">
<title>Node14&#45;&gt;Node22</title>
<path fill="none" stroke="#191970" d="M539.553,-148.701C554.358,-151.418 571.867,-154.633 585.964,-157.22"/>
<polygon fill="#191970" stroke="#191970" points="585.509,-160.695 595.977,-159.059 586.773,-153.81 585.509,-160.695"/>
</g>
<!-- Node23 -->
<g id="node23" class="node">
<title>Node23</title>
<g id="a_node23"><a xlink:href="tinyprintf_8c.html#a90f9fd8f2133cda7f50be8d67823405c" target="_top" xlink:title="i2a">
<polygon fill="#ffffff" stroke="#000000" points="597,-0.5 597,-19.5 627,-19.5 627,-0.5 597,-0.5"/>
<text text-anchor="middle" x="612" y="-7.5" font-family="Helvetica,sans-Serif" font-size="10.00" fill="#000000">i2a</text>
</a>
</g>
</g>
<!-- Node14&#45;&gt;Node23 -->
<g id="edge26" class="edge">
<title>Node14&#45;&gt;Node23</title>
<path fill="none" stroke="#191970" d="M539.009,-133.36C543.775,-130.869 548.329,-127.787 552,-124 581.983,-93.0639 564.284,-69.9661 588,-34 589.476,-31.7617 591.185,-29.5609 592.999,-27.455"/>
<polygon fill="#191970" stroke="#191970" points="595.829,-29.5609 600.232,-19.9246 590.781,-24.7116 595.829,-29.5609"/>
</g>
<!-- Node16 -->
<g id="node16" class="node">
<title>Node16</title>
<g id="a_node16"><a xlink:href="tinyprintf_8c.html#aa853a0c5ba64fa2546d488b86192e7e3" target="_top" xlink:title="a2d">
<polygon fill="#ffffff" stroke="#000000" points="675.5,-266.5 675.5,-285.5 708.5,-285.5 708.5,-266.5 675.5,-266.5"/>
<text text-anchor="middle" x="692" y="-273.5" font-family="Helvetica,sans-Serif" font-size="10.00" fill="#000000">a2d</text>
</a>
</g>
</g>
<!-- Node15&#45;&gt;Node16 -->
<g id="edge17" class="edge">
<title>Node15&#45;&gt;Node16</title>
<path fill="none" stroke="#191970" d="M628.576,-276C639.195,-276 653.215,-276 665.373,-276"/>
<polygon fill="#191970" stroke="#191970" points="665.445,-279.5 675.445,-276 665.445,-272.5 665.445,-279.5"/>
</g>
<!-- Node21&#45;&gt;Node17 -->
<g id="edge23" class="edge">
<title>Node21&#45;&gt;Node17</title>
<path fill="none" stroke="#191970" d="M629.359,-204.123C638.831,-206.372 650.829,-209.222 661.784,-211.824"/>
<polygon fill="#191970" stroke="#191970" points="661.313,-215.309 671.851,-214.215 662.931,-208.499 661.313,-215.309"/>
</g>
<!-- Node22&#45;&gt;Node18 -->
<g id="edge25" class="edge">
<title>Node22&#45;&gt;Node18</title>
<path fill="none" stroke="#191970" d="M624.283,-152.426C628.066,-149.437 632.227,-146.109 636,-143 648.601,-132.619 662.541,-120.672 673.36,-111.294"/>
<polygon fill="#191970" stroke="#191970" points="675.703,-113.895 680.952,-104.691 671.11,-108.613 675.703,-113.895"/>
</g>
<!-- Node23&#45;&gt;Node19 -->
<g id="edge27" class="edge">
<title>Node23&#45;&gt;Node19</title>
<path fill="none" stroke="#191970" d="M627.047,-15.2666C637.619,-18.9666 652.062,-24.0217 664.644,-28.4255"/>
<polygon fill="#191970" stroke="#191970" points="663.632,-31.7793 674.227,-31.7794 665.944,-25.1723 663.632,-31.7793"/>
</g>
<!-- Node26&#45;&gt;Node12 -->
<g id="edge33" class="edge">
<title>Node26&#45;&gt;Node12</title>
<path fill="none" stroke="#191970" d="M165.553,-100.368C180.472,-104.245 197.894,-108.772 213.474,-112.82"/>
<polygon fill="#191970" stroke="#191970" points="212.843,-116.272 223.402,-115.4 214.603,-109.497 212.843,-116.272"/>
</g>
<!-- Node27 -->
<g id="node27" class="node">
<title>Node27</title>
<g id="a_node27"><a xlink:href="utils_8c.html#af7f86262824738791bf4a3328d09aacf" target="_top" xlink:title="int_pow">
<polygon fill="#ffffff" stroke="#000000" points="231,-76.5 231,-95.5 282,-95.5 282,-76.5 231,-76.5"/>
<text text-anchor="middle" x="256.5" y="-83.5" font-family="Helvetica,sans-Serif" font-size="10.00" fill="#000000">int_pow</text>
</a>
</g>
</g>
<!-- Node26&#45;&gt;Node27 -->
<g id="edge31" class="edge">
<title>Node26&#45;&gt;Node27</title>
<path fill="none" stroke="#191970" d="M165.553,-89.5806C182.801,-88.9016 203.393,-88.0908 220.618,-87.4127"/>
<polygon fill="#191970" stroke="#191970" points="220.993,-90.9007 230.847,-87.0099 220.717,-83.9061 220.993,-90.9007"/>
</g>
<!-- Node28 -->
<g id="node28" class="node">
<title>Node28</title>
<g id="a_node28"><a xlink:href="espmissingincludes_8h.html#ad228deceea1bac4d9f171f647c265059" target="_top" xlink:title="atoi">
<polygon fill="#ffffff" stroke="#000000" points="240,-38.5 240,-57.5 273,-57.5 273,-38.5 240,-38.5"/>
<text text-anchor="middle" x="256.5" y="-45.5" font-family="Helvetica,sans-Serif" font-size="10.00" fill="#000000">atoi</text>
</a>
</g>
</g>
<!-- Node26&#45;&gt;Node28 -->
<g id="edge32" class="edge">
<title>Node26&#45;&gt;Node28</title>
<path fill="none" stroke="#191970" d="M157.685,-81.4569C179.289,-74.1424 208.888,-64.1206 230.047,-56.9565"/>
<polygon fill="#191970" stroke="#191970" points="231.335,-60.2156 239.685,-53.6934 229.09,-53.5853 231.335,-60.2156"/>
</g>
<!-- Node30 -->
<g id="node30" class="node">
<title>Node30</title>
<g id="a_node30"><a xlink:href="espmissingincludes_8h.html#a0bbba7104c948de849f8051d9ac956e3" target="_top" xlink:title="os_printf">
<polygon fill="#ffffff" stroke="#000000" points="229,-0.5 229,-19.5 284,-19.5 284,-0.5 229,-0.5"/>
<text text-anchor="middle" x="256.5" y="-7.5" font-family="Helvetica,sans-Serif" font-size="10.00" fill="#000000">os_printf</text>
</a>
</g>
</g>
<!-- Node29&#45;&gt;Node30 -->
<g id="edge35" class="edge">
<title>Node29&#45;&gt;Node30</title>
<path fill="none" stroke="#191970" d="M168.294,-26.6688C184.331,-23.6382 202.858,-20.137 218.781,-17.128"/>
<polygon fill="#191970" stroke="#191970" points="219.639,-20.5278 228.816,-15.2317 218.34,-13.6495 219.639,-20.5278"/>
</g>
</g>
</svg>
