<?xml version="1.0" encoding="UTF-8" standalone="no"?>
<!DOCTYPE svg PUBLIC "-//W3C//DTD SVG 1.1//EN"
 "http://www.w3.org/Graphics/SVG/1.1/DTD/svg11.dtd">
<!-- Generated by graphviz version 2.39.20160927.1334 (20160927.1334)
 -->
<!-- Title: wifiScanDoneCb Pages: 1 -->
<svg width="317pt" height="28pt"
 viewBox="0.00 0.00 317.00 28.00" xmlns="http://www.w3.org/2000/svg" xmlns:xlink="http://www.w3.org/1999/xlink">
<g id="graph0" class="graph" transform="scale(1 1) rotate(0) translate(4 24)">
<title>wifiScanDoneCb</title>
<polygon fill="#ffffff" stroke="transparent" points="-4,4 -4,-24 313,-24 313,4 -4,4"/>
<!-- Node1 -->
<g id="node1" class="node">
<title>Node1</title>
<polygon fill="#bfbfbf" stroke="#000000" points="0,-0.5 0,-19.5 90,-19.5 90,-0.5 0,-0.5"/>
<text text-anchor="middle" x="45" y="-7.5" font-family="Helvetica,sans-Serif" font-size="10.00" fill="#000000">wifiScanDoneCb</text>
</g>
<!-- Node2 -->
<g id="node2" class="node">
<title>Node2</title>
<g id="a_node2"><a xlink:href="cgiwifi_8c.html#ad14fc148ee7c69e5c3ba0357263016d7" target="_top" xlink:title="wifiStartScan">
<polygon fill="#ffffff" stroke="#000000" points="126,-0.5 126,-19.5 201,-19.5 201,-0.5 126,-0.5"/>
<text text-anchor="middle" x="163.5" y="-7.5" font-family="Helvetica,sans-Serif" font-size="10.00" fill="#000000">wifiStartScan</text>
</a>
</g>
</g>
<!-- Node1&#45;&gt;Node2 -->
<g id="edge1" class="edge">
<title>Node1&#45;&gt;Node2</title>
<path fill="none" stroke="#191970" d="M100.214,-10C108.881,-10 117.663,-10 125.815,-10"/>
<polygon fill="#191970" stroke="#191970" points="100.138,-6.5001 90.1378,-10 100.138,-13.5001 100.138,-6.5001"/>
</g>
<!-- Node3 -->
<g id="node3" class="node">
<title>Node3</title>
<g id="a_node3"><a xlink:href="cgiwifi_8h.html#aa1b2a25d59b9eecb6f57b7d698686064" target="_top" xlink:title="cgiWiFiScan">
<polygon fill="#ffffff" stroke="#000000" points="237,-0.5 237,-19.5 309,-19.5 309,-0.5 237,-0.5"/>
<text text-anchor="middle" x="273" y="-7.5" font-family="Helvetica,sans-Serif" font-size="10.00" fill="#000000">cgiWiFiScan</text>
</a>
</g>
</g>
<!-- Node2&#45;&gt;Node3 -->
<g id="edge2" class="edge">
<title>Node2&#45;&gt;Node3</title>
<path fill="none" stroke="#191970" d="M211.386,-10C219.887,-10 228.613,-10 236.726,-10"/>
<polygon fill="#191970" stroke="#191970" points="211.184,-6.5001 201.184,-10 211.184,-13.5001 211.184,-6.5001"/>
</g>
</g>
</svg>
