<?xml version="1.0" encoding="UTF-8" standalone="no"?>
<!DOCTYPE svg PUBLIC "-//W3C//DTD SVG 1.1//EN"
 "http://www.w3.org/Graphics/SVG/1.1/DTD/svg11.dtd">
<!-- Generated by graphviz version 2.41.20170323.1842 (20170323.1842)
 -->
<!-- Title: tplSetup Pages: 1 -->
<svg width="715pt" height="344pt"
 viewBox="0.00 0.00 715.00 344.00" xmlns="http://www.w3.org/2000/svg" xmlns:xlink="http://www.w3.org/1999/xlink">
<g id="graph0" class="graph" transform="scale(1 1) rotate(0) translate(4 340)">
<title>tplSetup</title>
<polygon fill="#ffffff" stroke="transparent" points="-4,4 -4,-340 711,-340 711,4 -4,4"/>
<!-- Node77 -->
<g id="node1" class="node">
<title>Node77</title>
<polygon fill="#bfbfbf" stroke="#000000" points="0,-133.5 0,-152.5 53,-152.5 53,-133.5 0,-133.5"/>
<text text-anchor="middle" x="26.5" y="-140.5" font-family="Helvetica,sans-Serif" font-size="10.00" fill="#000000">tplSetup</text>
</g>
<!-- Node78 -->
<g id="node2" class="node">
<title>Node78</title>
<g id="a_node2"><a xlink:href="espmissingincludes_8h.html#ad228deceea1bac4d9f171f647c265059" target="_top" xlink:title="atoi">
<polygon fill="#ffffff" stroke="#000000" points="233.5,-95.5 233.5,-114.5 266.5,-114.5 266.5,-95.5 233.5,-95.5"/>
<text text-anchor="middle" x="250" y="-102.5" font-family="Helvetica,sans-Serif" font-size="10.00" fill="#000000">atoi</text>
</a>
</g>
</g>
<!-- Node77&#45;&gt;Node78 -->
<g id="edge1" class="edge">
<title>Node77&#45;&gt;Node78</title>
<path fill="none" stroke="#191970" d="M38.0214,-133.2888C49.9122,-123.9545 69.4351,-110.481 89,-105 134.7033,-92.1966 190.6112,-96.3782 223.0784,-100.6455"/>
<polygon fill="#191970" stroke="#191970" points="222.7496,-104.1338 233.1418,-102.0716 223.7318,-97.2031 222.7496,-104.1338"/>
</g>
<!-- Node79 -->
<g id="node3" class="node">
<title>Node79</title>
<g id="a_node3"><a xlink:href="config_8c.html#a92adb6c5103eed30e16185a9cd233e51" target="_top" xlink:title="cfg_load">
<polygon fill="#ffffff" stroke="#000000" points="108,-228.5 108,-247.5 162,-247.5 162,-228.5 108,-228.5"/>
<text text-anchor="middle" x="135" y="-235.5" font-family="Helvetica,sans-Serif" font-size="10.00" fill="#000000">cfg_load</text>
</a>
</g>
</g>
<!-- Node77&#45;&gt;Node79 -->
<g id="edge2" class="edge">
<title>Node77&#45;&gt;Node79</title>
<path fill="none" stroke="#191970" d="M33.2519,-152.7453C43.8128,-167.4531 65.4796,-195.559 89,-214 93.4304,-217.4736 98.4394,-220.6817 103.4803,-223.5468"/>
<polygon fill="#191970" stroke="#191970" points="101.9963,-226.7215 112.4704,-228.3168 105.2773,-220.538 101.9963,-226.7215"/>
</g>
<!-- Node87 -->
<g id="node11" class="node">
<title>Node87</title>
<g id="a_node11"><a xlink:href="tinyprintf_8c.html#a9738cbc6c538d210941db282e240c7d6" target="_top" xlink:title="tfp_snprintf">
<polygon fill="#ffffff" stroke="#000000" points="217,-152.5 217,-171.5 283,-171.5 283,-152.5 217,-152.5"/>
<text text-anchor="middle" x="250" y="-159.5" font-family="Helvetica,sans-Serif" font-size="10.00" fill="#000000">tfp_snprintf</text>
</a>
</g>
</g>
<!-- Node77&#45;&gt;Node87 -->
<g id="edge31" class="edge">
<title>Node77&#45;&gt;Node87</title>
<path fill="none" stroke="#191970" d="M38.0214,-152.7112C49.9122,-162.0455 69.4351,-175.519 89,-181 130.5083,-192.6282 179.9762,-183.5424 213.0229,-174.3655"/>
<polygon fill="#191970" stroke="#191970" points="214.1037,-177.6962 222.7246,-171.5374 212.1447,-170.9759 214.1037,-177.6962"/>
</g>
<!-- Node100 -->
<g id="node24" class="node">
<title>Node100</title>
<g id="a_node24"><a xlink:href="httpd_8c.html#a1a143f6c427d66e2561895cf193fc535" target="_top" xlink:title="httpdSend">
<polygon fill="#ffffff" stroke="#000000" points="104,-114.5 104,-133.5 166,-133.5 166,-114.5 104,-114.5"/>
<text text-anchor="middle" x="135" y="-121.5" font-family="Helvetica,sans-Serif" font-size="10.00" fill="#000000">httpdSend</text>
</a>
</g>
</g>
<!-- Node77&#45;&gt;Node100 -->
<g id="edge30" class="edge">
<title>Node77&#45;&gt;Node100</title>
<path fill="none" stroke="#191970" d="M53.0421,-138.3521C65.2405,-136.216 79.9938,-133.6324 93.6022,-131.2494"/>
<polygon fill="#191970" stroke="#191970" points="94.4779,-134.6494 103.7242,-129.4769 93.2704,-127.7543 94.4779,-134.6494"/>
</g>
<!-- Node101 -->
<g id="node25" class="node">
<title>Node101</title>
<g id="a_node25"><a xlink:href="utils_8c.html#a39c867e4c89519352139d2a416f80046" target="_top" xlink:title="w_to_kw_str">
<polygon fill="#ffffff" stroke="#000000" points="99,-152.5 99,-171.5 171,-171.5 171,-152.5 99,-152.5"/>
<text text-anchor="middle" x="135" y="-159.5" font-family="Helvetica,sans-Serif" font-size="10.00" fill="#000000">w_to_kw_str</text>
</a>
</g>
</g>
<!-- Node77&#45;&gt;Node101 -->
<g id="edge32" class="edge">
<title>Node77&#45;&gt;Node101</title>
<path fill="none" stroke="#191970" d="M53.0421,-147.6479C63.825,-149.5362 76.6042,-151.774 88.8244,-153.9139"/>
<polygon fill="#191970" stroke="#191970" points="88.4478,-157.4012 98.9017,-155.6786 89.6553,-150.5061 88.4478,-157.4012"/>
</g>
<!-- Node102 -->
<g id="node26" class="node">
<title>Node102</title>
<g id="a_node26"><a xlink:href="espmissingincludes_8h.html#a48d756265c0c1c35ba1fba102efe4d0a" target="_top" xlink:title="wifi_get_opmode">
<polygon fill="#ffffff" stroke="#000000" points="89,-38.5 89,-57.5 181,-57.5 181,-38.5 89,-38.5"/>
<text text-anchor="middle" x="135" y="-45.5" font-family="Helvetica,sans-Serif" font-size="10.00" fill="#000000">wifi_get_opmode</text>
</a>
</g>
</g>
<!-- Node77&#45;&gt;Node102 -->
<g id="edge35" class="edge">
<title>Node77&#45;&gt;Node102</title>
<path fill="none" stroke="#191970" d="M33.2519,-133.2547C43.8128,-118.5469 65.4796,-90.441 89,-72 93.4304,-68.5264 98.4394,-65.3183 103.4803,-62.4532"/>
<polygon fill="#191970" stroke="#191970" points="105.2773,-65.462 112.4704,-57.6832 101.9963,-59.2785 105.2773,-65.462"/>
</g>
<!-- Node80 -->
<g id="node4" class="node">
<title>Node80</title>
<g id="a_node4"><a xlink:href="utils_8c.html#a8d9e1de95e2d6d103108a4b0ebf4d923" target="_top" xlink:title="ccit_crc16">
<polygon fill="#ffffff" stroke="#000000" points="340.5,-316.5 340.5,-335.5 402.5,-335.5 402.5,-316.5 340.5,-316.5"/>
<text text-anchor="middle" x="371.5" y="-323.5" font-family="Helvetica,sans-Serif" font-size="10.00" fill="#000000">ccit_crc16</text>
</a>
</g>
</g>
<!-- Node79&#45;&gt;Node80 -->
<g id="edge3" class="edge">
<title>Node79&#45;&gt;Node80</title>
<path fill="none" stroke="#191970" d="M145.7941,-247.7164C160.6966,-260.5839 188.927,-283.0405 217,-295 253.4062,-310.5096 297.997,-318.3895 329.9002,-322.3101"/>
<polygon fill="#191970" stroke="#191970" points="329.8689,-325.8294 340.2029,-323.4932 330.6676,-318.8751 329.8689,-325.8294"/>
</g>
<!-- Node81 -->
<g id="node5" class="node">
<title>Node81</title>
<g id="a_node5"><a xlink:href="config_8c.html#acd3c633ba5f49d7bb46d6e4efa31ddb2" target="_top" xlink:title="cfg_save">
<polygon fill="#ffffff" stroke="#000000" points="221.5,-228.5 221.5,-247.5 278.5,-247.5 278.5,-228.5 221.5,-228.5"/>
<text text-anchor="middle" x="250" y="-235.5" font-family="Helvetica,sans-Serif" font-size="10.00" fill="#000000">cfg_save</text>
</a>
</g>
</g>
<!-- Node79&#45;&gt;Node81 -->
<g id="edge4" class="edge">
<title>Node79&#45;&gt;Node81</title>
<path fill="none" stroke="#191970" d="M162.2534,-238C176.8554,-238 195.0955,-238 211.1573,-238"/>
<polygon fill="#191970" stroke="#191970" points="211.3375,-241.5001 221.3374,-238 211.3374,-234.5001 211.3375,-241.5001"/>
</g>
<!-- Node84 -->
<g id="node8" class="node">
<title>Node84</title>
<g id="a_node8"><a xlink:href="ext__spi__flash_8c.html#a094d4588aff8210b1bb94ae90fb58526" target="_top" xlink:title="ext_spi_flash_read">
<polygon fill="#ffffff" stroke="#000000" points="321.5,-190.5 321.5,-209.5 421.5,-209.5 421.5,-190.5 321.5,-190.5"/>
<text text-anchor="middle" x="371.5" y="-197.5" font-family="Helvetica,sans-Serif" font-size="10.00" fill="#000000">ext_spi_flash_read</text>
</a>
</g>
</g>
<!-- Node79&#45;&gt;Node84 -->
<g id="edge12" class="edge">
<title>Node79&#45;&gt;Node84</title>
<path fill="none" stroke="#191970" d="M162.1856,-230.9429C178.0808,-227.0072 198.5808,-222.2572 217,-219 247.8118,-213.5514 282.3558,-209.1448 310.9536,-205.9523"/>
<polygon fill="#191970" stroke="#191970" points="311.6425,-209.3979 321.2027,-204.8313 310.8814,-202.4394 311.6425,-209.3979"/>
</g>
<!-- Node86 -->
<g id="node10" class="node">
<title>Node86</title>
<g id="a_node10"><a xlink:href="espmissingincludes_8h.html#a0bbba7104c948de849f8051d9ac956e3" target="_top" xlink:title="os_printf">
<polygon fill="#ffffff" stroke="#000000" points="222.5,-266.5 222.5,-285.5 277.5,-285.5 277.5,-266.5 222.5,-266.5"/>
<text text-anchor="middle" x="250" y="-273.5" font-family="Helvetica,sans-Serif" font-size="10.00" fill="#000000">os_printf</text>
</a>
</g>
</g>
<!-- Node79&#45;&gt;Node86 -->
<g id="edge13" class="edge">
<title>Node79&#45;&gt;Node86</title>
<path fill="none" stroke="#191970" d="M162.2534,-247.0055C177.2145,-251.9491 195.9948,-258.1548 212.3382,-263.5552"/>
<polygon fill="#191970" stroke="#191970" points="211.5502,-266.9809 222.1434,-266.7952 213.7465,-260.3344 211.5502,-266.9809"/>
</g>
<!-- Node79&#45;&gt;Node87 -->
<g id="edge14" class="edge">
<title>Node79&#45;&gt;Node87</title>
<path fill="none" stroke="#191970" d="M155.1395,-228.4821C163.3488,-224.3506 172.8148,-219.2576 181,-214 198.0546,-203.0453 200.8014,-198.1849 217,-186 220.5666,-183.3171 224.3763,-180.5013 228.0935,-177.7803"/>
<polygon fill="#191970" stroke="#191970" points="230.4111,-180.4226 236.441,-171.711 226.2946,-174.7609 230.4111,-180.4226"/>
</g>
<!-- Node81&#45;&gt;Node80 -->
<g id="edge5" class="edge">
<title>Node81&#45;&gt;Node80</title>
<path fill="none" stroke="#191970" d="M269.7809,-247.5666C274.3807,-250.2702 279.0752,-253.4551 283,-257 303.3211,-275.3543 297.1514,-290.4935 319,-307 322.6664,-309.77 326.7753,-312.1656 331.037,-314.2305"/>
<polygon fill="#191970" stroke="#191970" points="329.9252,-317.5606 340.4982,-318.2397 332.6564,-311.1154 329.9252,-317.5606"/>
</g>
<!-- Node82 -->
<g id="node6" class="node">
<title>Node82</title>
<g id="a_node6"><a xlink:href="ext__spi__flash_8c.html#ab4369189179b556a6b8e2155433c5f70" target="_top" xlink:title="ext_spi_flash_erase\l_sector">
<polygon fill="#ffffff" stroke="#000000" points="319,-267 319,-297 424,-297 424,-267 319,-267"/>
<text text-anchor="start" x="327" y="-285" font-family="Helvetica,sans-Serif" font-size="10.00" fill="#000000">ext_spi_flash_erase</text>
<text text-anchor="middle" x="371.5" y="-274" font-family="Helvetica,sans-Serif" font-size="10.00" fill="#000000">_sector</text>
</a>
</g>
</g>
<!-- Node81&#45;&gt;Node82 -->
<g id="edge6" class="edge">
<title>Node81&#45;&gt;Node82</title>
<path fill="none" stroke="#191970" d="M276.3637,-247.5473C289.1882,-252.1916 305.0611,-257.9398 320.1426,-263.4014"/>
<polygon fill="#191970" stroke="#191970" points="319.3048,-266.8204 329.8991,-266.9346 321.6884,-260.2387 319.3048,-266.8204"/>
</g>
<!-- Node81&#45;&gt;Node84 -->
<g id="edge8" class="edge">
<title>Node81&#45;&gt;Node84</title>
<path fill="none" stroke="#191970" d="M278.7938,-228.9945C294.3977,-224.1143 313.9338,-218.0043 331.0434,-212.6531"/>
<polygon fill="#191970" stroke="#191970" points="332.2896,-215.9306 340.7889,-209.6051 330.2,-209.2497 332.2896,-215.9306"/>
</g>
<!-- Node85 -->
<g id="node9" class="node">
<title>Node85</title>
<g id="a_node9"><a xlink:href="ext__spi__flash_8c.html#a17e27ce44dd5aec4dd7a7de609093aae" target="_top" xlink:title="ext_spi_flash_write">
<polygon fill="#ffffff" stroke="#000000" points="320.5,-228.5 320.5,-247.5 422.5,-247.5 422.5,-228.5 320.5,-228.5"/>
<text text-anchor="middle" x="371.5" y="-235.5" font-family="Helvetica,sans-Serif" font-size="10.00" fill="#000000">ext_spi_flash_write</text>
</a>
</g>
</g>
<!-- Node81&#45;&gt;Node85 -->
<g id="edge10" class="edge">
<title>Node81&#45;&gt;Node85</title>
<path fill="none" stroke="#191970" d="M278.7938,-238C288.2498,-238 299.1498,-238 310.0788,-238"/>
<polygon fill="#191970" stroke="#191970" points="310.0832,-241.5001 320.0831,-238 310.0831,-234.5001 310.0832,-241.5001"/>
</g>
<!-- Node83 -->
<g id="node7" class="node">
<title>Node83</title>
<g id="a_node7"><a xlink:href="spi_8c.html#acebb579091ca980f217d3e5f3bd1f1d5" target="_top" xlink:title="spi_transaction">
<polygon fill="#ffffff" stroke="#000000" points="461.5,-228.5 461.5,-247.5 545.5,-247.5 545.5,-228.5 461.5,-228.5"/>
<text text-anchor="middle" x="503.5" y="-235.5" font-family="Helvetica,sans-Serif" font-size="10.00" fill="#000000">spi_transaction</text>
</a>
</g>
</g>
<!-- Node82&#45;&gt;Node83 -->
<g id="edge7" class="edge">
<title>Node82&#45;&gt;Node83</title>
<path fill="none" stroke="#191970" d="M416.5577,-266.9808C432.3644,-261.7119 449.9589,-255.847 465.1624,-250.7792"/>
<polygon fill="#191970" stroke="#191970" points="466.3851,-254.061 474.7651,-247.5783 464.1715,-247.4202 466.3851,-254.061"/>
</g>
<!-- Node84&#45;&gt;Node83 -->
<g id="edge9" class="edge">
<title>Node84&#45;&gt;Node83</title>
<path fill="none" stroke="#191970" d="M404.8092,-209.589C421.6928,-214.4494 442.3948,-220.4091 460.4705,-225.6127"/>
<polygon fill="#191970" stroke="#191970" points="459.6235,-229.011 470.2015,-228.4141 461.56,-222.2842 459.6235,-229.011"/>
</g>
<!-- Node85&#45;&gt;Node83 -->
<g id="edge11" class="edge">
<title>Node85&#45;&gt;Node83</title>
<path fill="none" stroke="#191970" d="M422.5346,-238C431.9115,-238 441.7138,-238 451.1292,-238"/>
<polygon fill="#191970" stroke="#191970" points="451.1556,-241.5001 461.1556,-238 451.1556,-234.5001 451.1556,-241.5001"/>
</g>
<!-- Node88 -->
<g id="node12" class="node">
<title>Node88</title>
<g id="a_node12"><a xlink:href="tinyprintf_8c.html#ac8c8a66133cf0d7009c0d73b55311a44" target="_top" xlink:title="tfp_vsnprintf">
<polygon fill="#ffffff" stroke="#000000" points="336,-152.5 336,-171.5 407,-171.5 407,-152.5 336,-152.5"/>
<text text-anchor="middle" x="371.5" y="-159.5" font-family="Helvetica,sans-Serif" font-size="10.00" fill="#000000">tfp_vsnprintf</text>
</a>
</g>
</g>
<!-- Node87&#45;&gt;Node88 -->
<g id="edge15" class="edge">
<title>Node87&#45;&gt;Node88</title>
<path fill="none" stroke="#191970" d="M283.2004,-162C296.3174,-162 311.6083,-162 325.7439,-162"/>
<polygon fill="#191970" stroke="#191970" points="325.7851,-165.5001 335.7851,-162 325.785,-158.5001 325.7851,-165.5001"/>
</g>
<!-- Node89 -->
<g id="node13" class="node">
<title>Node89</title>
<g id="a_node13"><a xlink:href="tinyprintf_8c.html#a5877e42444463efc71a91b5fe76a6145" target="_top" xlink:title="tfp_format">
<polygon fill="#ffffff" stroke="#000000" points="472.5,-133.5 472.5,-152.5 534.5,-152.5 534.5,-133.5 472.5,-133.5"/>
<text text-anchor="middle" x="503.5" y="-140.5" font-family="Helvetica,sans-Serif" font-size="10.00" fill="#000000">tfp_format</text>
</a>
</g>
</g>
<!-- Node88&#45;&gt;Node89 -->
<g id="edge16" class="edge">
<title>Node88&#45;&gt;Node89</title>
<path fill="none" stroke="#191970" d="M407.2211,-156.8583C424.1987,-154.4146 444.5892,-151.4796 462.2259,-148.941"/>
<polygon fill="#191970" stroke="#191970" points="462.846,-152.3879 472.2453,-147.4988 461.8486,-145.4593 462.846,-152.3879"/>
</g>
<!-- Node99 -->
<g id="node23" class="node">
<title>Node99</title>
<g id="a_node23"><a xlink:href="tinyprintf_8c.html#a919051024b2d729e34a54648b3f2462d" target="_top" xlink:title="_vsnprintf_putcf">
<polygon fill="#ffffff" stroke="#000000" points="460,-171.5 460,-190.5 547,-190.5 547,-171.5 460,-171.5"/>
<text text-anchor="middle" x="503.5" y="-178.5" font-family="Helvetica,sans-Serif" font-size="10.00" fill="#000000">_vsnprintf_putcf</text>
</a>
</g>
</g>
<!-- Node88&#45;&gt;Node99 -->
<g id="edge29" class="edge">
<title>Node88&#45;&gt;Node99</title>
<path fill="none" stroke="#191970" d="M407.2211,-167.1417C420.2463,-169.0165 435.2803,-171.1805 449.5384,-173.2328"/>
<polygon fill="#191970" stroke="#191970" points="449.3469,-176.7412 459.7436,-174.7017 450.3443,-169.8126 449.3469,-176.7412"/>
</g>
<!-- Node90 -->
<g id="node14" class="node">
<title>Node90</title>
<g id="a_node14"><a xlink:href="tinyprintf_8c.html#aa97593a5e53af85b608ad0910db92d77" target="_top" xlink:title="a2u">
<polygon fill="#ffffff" stroke="#000000" points="590.5,-266.5 590.5,-285.5 623.5,-285.5 623.5,-266.5 590.5,-266.5"/>
<text text-anchor="middle" x="607" y="-273.5" font-family="Helvetica,sans-Serif" font-size="10.00" fill="#000000">a2u</text>
</a>
</g>
</g>
<!-- Node89&#45;&gt;Node90 -->
<g id="edge17" class="edge">
<title>Node89&#45;&gt;Node90</title>
<path fill="none" stroke="#191970" d="M534.0089,-152.64C538.7753,-155.1314 543.3294,-158.2126 547,-162 576.9826,-192.9361 559.2841,-216.0339 583,-252 584.4759,-254.2383 586.1854,-256.4391 587.9987,-258.545"/>
<polygon fill="#191970" stroke="#191970" points="585.7807,-261.2884 595.2325,-266.0754 590.8289,-256.4391 585.7807,-261.2884"/>
</g>
<!-- Node92 -->
<g id="node16" class="node">
<title>Node92</title>
<g id="a_node16"><a xlink:href="tinyprintf_8c.html#abcf035dd576671b0cc897de9dd8c75b0" target="_top" xlink:title="ulli2a">
<polygon fill="#ffffff" stroke="#000000" points="667,-209.5 667,-228.5 707,-228.5 707,-209.5 667,-209.5"/>
<text text-anchor="middle" x="687" y="-216.5" font-family="Helvetica,sans-Serif" font-size="10.00" fill="#000000">ulli2a</text>
</a>
</g>
</g>
<!-- Node89&#45;&gt;Node92 -->
<g id="edge19" class="edge">
<title>Node89&#45;&gt;Node92</title>
<path fill="none" stroke="#191970" d="M532.0911,-152.5625C537.3885,-155.1176 542.6239,-158.2413 547,-162 569.7297,-181.5228 556.759,-204.5368 583,-219 605.422,-231.3583 634.9122,-230.0262 656.7615,-226.3783"/>
<polygon fill="#191970" stroke="#191970" points="657.6476,-229.7722 666.8093,-224.4513 656.3291,-222.8975 657.6476,-229.7722"/>
</g>
<!-- Node93 -->
<g id="node17" class="node">
<title>Node93</title>
<g id="a_node17"><a xlink:href="tinyprintf_8c.html#a1d61347854a8c290d59b4a21efcefd75" target="_top" xlink:title="uli2a">
<polygon fill="#ffffff" stroke="#000000" points="668,-85.5 668,-104.5 706,-104.5 706,-85.5 668,-85.5"/>
<text text-anchor="middle" x="687" y="-92.5" font-family="Helvetica,sans-Serif" font-size="10.00" fill="#000000">uli2a</text>
</a>
</g>
</g>
<!-- Node89&#45;&gt;Node93 -->
<g id="edge20" class="edge">
<title>Node89&#45;&gt;Node93</title>
<path fill="none" stroke="#191970" d="M519.2925,-133.4006C534.8861,-124.4265 559.7109,-111.4673 583,-105 607.5572,-98.1806 636.4871,-95.8345 657.592,-95.1056"/>
<polygon fill="#191970" stroke="#191970" points="657.9384,-98.5983 667.8506,-94.8567 657.7686,-91.6004 657.9384,-98.5983"/>
</g>
<!-- Node94 -->
<g id="node18" class="node">
<title>Node94</title>
<g id="a_node18"><a xlink:href="tinyprintf_8c.html#ac87ff66a592723f55692eaf8e3f19df8" target="_top" xlink:title="ui2a">
<polygon fill="#ffffff" stroke="#000000" points="669.5,-28.5 669.5,-47.5 704.5,-47.5 704.5,-28.5 669.5,-28.5"/>
<text text-anchor="middle" x="687" y="-35.5" font-family="Helvetica,sans-Serif" font-size="10.00" fill="#000000">ui2a</text>
</a>
</g>
</g>
<!-- Node89&#45;&gt;Node94 -->
<g id="edge21" class="edge">
<title>Node89&#45;&gt;Node94</title>
<path fill="none" stroke="#191970" d="M517.952,-133.4521C533.732,-123.1354 559.847,-106.3779 583,-93 608.9183,-78.0243 639.2454,-62.1699 660.4391,-51.3508"/>
<polygon fill="#191970" stroke="#191970" points="662.155,-54.405 669.4855,-46.7555 658.9847,-48.164 662.155,-54.405"/>
</g>
<!-- Node95 -->
<g id="node19" class="node">
<title>Node95</title>
<g id="a_node19"><a xlink:href="tinyprintf_8c.html#a6252dbfebb2c8783c4e3107d551082dd" target="_top" xlink:title="putchw">
<polygon fill="#ffffff" stroke="#000000" points="583,-114.5 583,-133.5 631,-133.5 631,-114.5 583,-114.5"/>
<text text-anchor="middle" x="607" y="-121.5" font-family="Helvetica,sans-Serif" font-size="10.00" fill="#000000">putchw</text>
</a>
</g>
</g>
<!-- Node89&#45;&gt;Node95 -->
<g id="edge22" class="edge">
<title>Node89&#45;&gt;Node95</title>
<path fill="none" stroke="#191970" d="M534.5534,-137.2994C546.6483,-135.0791 560.549,-132.5272 572.9191,-130.2564"/>
<polygon fill="#191970" stroke="#191970" points="573.673,-133.6766 582.8767,-128.4284 572.4091,-126.7916 573.673,-133.6766"/>
</g>
<!-- Node96 -->
<g id="node20" class="node">
<title>Node96</title>
<g id="a_node20"><a xlink:href="tinyprintf_8c.html#a49c6d2b3d4088012f2c1fe344eef69f3" target="_top" xlink:title="lli2a">
<polygon fill="#ffffff" stroke="#000000" points="590,-190.5 590,-209.5 624,-209.5 624,-190.5 590,-190.5"/>
<text text-anchor="middle" x="607" y="-197.5" font-family="Helvetica,sans-Serif" font-size="10.00" fill="#000000">lli2a</text>
</a>
</g>
</g>
<!-- Node89&#45;&gt;Node96 -->
<g id="edge23" class="edge">
<title>Node89&#45;&gt;Node96</title>
<path fill="none" stroke="#191970" d="M527.2901,-152.6104C533.7776,-155.4409 540.7406,-158.6759 547,-162 559.7614,-168.7771 573.4122,-177.3124 584.4641,-184.5761"/>
<polygon fill="#191970" stroke="#191970" points="582.799,-187.6726 593.0598,-190.312 586.6844,-181.85 582.799,-187.6726"/>
</g>
<!-- Node97 -->
<g id="node21" class="node">
<title>Node97</title>
<g id="a_node21"><a xlink:href="tinyprintf_8c.html#afebb7696337c3f599b5e8db35c560684" target="_top" xlink:title="li2a">
<polygon fill="#ffffff" stroke="#000000" points="591,-152.5 591,-171.5 623,-171.5 623,-152.5 591,-152.5"/>
<text text-anchor="middle" x="607" y="-159.5" font-family="Helvetica,sans-Serif" font-size="10.00" fill="#000000">li2a</text>
</a>
</g>
</g>
<!-- Node89&#45;&gt;Node97 -->
<g id="edge25" class="edge">
<title>Node89&#45;&gt;Node97</title>
<path fill="none" stroke="#191970" d="M534.5534,-148.7006C549.3576,-151.4183 566.8672,-154.6326 580.9639,-157.2204"/>
<polygon fill="#191970" stroke="#191970" points="580.5095,-160.6954 590.9771,-159.0586 581.7734,-153.8105 580.5095,-160.6954"/>
</g>
<!-- Node98 -->
<g id="node22" class="node">
<title>Node98</title>
<g id="a_node22"><a xlink:href="tinyprintf_8c.html#a90f9fd8f2133cda7f50be8d67823405c" target="_top" xlink:title="i2a">
<polygon fill="#ffffff" stroke="#000000" points="592,-.5 592,-19.5 622,-19.5 622,-.5 592,-.5"/>
<text text-anchor="middle" x="607" y="-7.5" font-family="Helvetica,sans-Serif" font-size="10.00" fill="#000000">i2a</text>
</a>
</g>
</g>
<!-- Node89&#45;&gt;Node98 -->
<g id="edge27" class="edge">
<title>Node89&#45;&gt;Node98</title>
<path fill="none" stroke="#191970" d="M509.8324,-133.294C522.7216,-113.7816 553.3056,-68.703 583,-34 584.9395,-31.7334 587.0504,-29.4247 589.1892,-27.1792"/>
<polygon fill="#191970" stroke="#191970" points="591.808,-29.5088 596.359,-19.9412 586.8349,-24.5825 591.808,-29.5088"/>
</g>
<!-- Node91 -->
<g id="node15" class="node">
<title>Node91</title>
<g id="a_node15"><a xlink:href="tinyprintf_8c.html#aa853a0c5ba64fa2546d488b86192e7e3" target="_top" xlink:title="a2d">
<polygon fill="#ffffff" stroke="#000000" points="670.5,-266.5 670.5,-285.5 703.5,-285.5 703.5,-266.5 670.5,-266.5"/>
<text text-anchor="middle" x="687" y="-273.5" font-family="Helvetica,sans-Serif" font-size="10.00" fill="#000000">a2d</text>
</a>
</g>
</g>
<!-- Node90&#45;&gt;Node91 -->
<g id="edge18" class="edge">
<title>Node90&#45;&gt;Node91</title>
<path fill="none" stroke="#191970" d="M623.5761,-276C634.1953,-276 648.2154,-276 660.373,-276"/>
<polygon fill="#191970" stroke="#191970" points="660.4452,-279.5001 670.4452,-276 660.4451,-272.5001 660.4452,-279.5001"/>
</g>
<!-- Node96&#45;&gt;Node92 -->
<g id="edge24" class="edge">
<title>Node96&#45;&gt;Node92</title>
<path fill="none" stroke="#191970" d="M624.3588,-204.1227C633.8312,-206.3724 645.8293,-209.222 656.7843,-211.8238"/>
<polygon fill="#191970" stroke="#191970" points="656.3132,-215.3092 666.8514,-214.2147 657.9308,-208.4986 656.3132,-215.3092"/>
</g>
<!-- Node97&#45;&gt;Node93 -->
<g id="edge26" class="edge">
<title>Node97&#45;&gt;Node93</title>
<path fill="none" stroke="#191970" d="M619.2831,-152.4255C623.0657,-149.4371 627.2265,-146.1089 631,-143 643.6006,-132.6186 657.5406,-120.6717 668.3604,-111.2937"/>
<polygon fill="#191970" stroke="#191970" points="670.7031,-113.8947 675.9521,-104.6915 666.1096,-108.6126 670.7031,-113.8947"/>
</g>
<!-- Node98&#45;&gt;Node94 -->
<g id="edge28" class="edge">
<title>Node98&#45;&gt;Node94</title>
<path fill="none" stroke="#191970" d="M622.0474,-15.2666C632.6188,-18.9666 647.0619,-24.0217 659.6443,-28.4255"/>
<polygon fill="#191970" stroke="#191970" points="658.6319,-31.7793 669.2268,-31.7794 660.9444,-25.1723 658.6319,-31.7793"/>
</g>
<!-- Node101&#45;&gt;Node78 -->
<g id="edge33" class="edge">
<title>Node101&#45;&gt;Node78</title>
<path fill="none" stroke="#191970" d="M159.574,-152.4432C166.5675,-149.564 174.1452,-146.2905 181,-143 195.8812,-135.8565 212.0688,-127.0015 225.0227,-119.637"/>
<polygon fill="#191970" stroke="#191970" points="226.8913,-122.6001 233.8188,-114.5838 223.4043,-116.5304 226.8913,-122.6001"/>
</g>
<!-- Node101&#45;&gt;Node87 -->
<g id="edge34" class="edge">
<title>Node101&#45;&gt;Node87</title>
<path fill="none" stroke="#191970" d="M171.0712,-162C182.3814,-162 194.9824,-162 206.7364,-162"/>
<polygon fill="#191970" stroke="#191970" points="206.7939,-165.5001 216.7939,-162 206.7939,-158.5001 206.7939,-165.5001"/>
</g>
</g>
</svg>
