<?xml version="1.0" encoding="UTF-8" standalone="no"?>
<!DOCTYPE svg PUBLIC "-//W3C//DTD SVG 1.1//EN"
 "http://www.w3.org/Graphics/SVG/1.1/DTD/svg11.dtd">
<!-- Generated by graphviz version 2.41.20170323.1842 (20170323.1842)
 -->
<!-- Title: cgiWifiSetMode Pages: 1 -->
<svg width="718pt" height="294pt"
 viewBox="0.00 0.00 718.00 294.00" xmlns="http://www.w3.org/2000/svg" xmlns:xlink="http://www.w3.org/1999/xlink">
<g id="graph0" class="graph" transform="scale(1 1) rotate(0) translate(4 290)">
<title>cgiWifiSetMode</title>
<polygon fill="#ffffff" stroke="transparent" points="-4,4 -4,-290 714,-290 714,4 -4,4"/>
<!-- Node52 -->
<g id="node1" class="node">
<title>Node52</title>
<polygon fill="#bfbfbf" stroke="#000000" points="0,-190.5 0,-209.5 86,-209.5 86,-190.5 0,-190.5"/>
<text text-anchor="middle" x="43" y="-197.5" font-family="Helvetica,sans-Serif" font-size="10.00" fill="#000000">cgiWifiSetMode</text>
</g>
<!-- Node53 -->
<g id="node2" class="node">
<title>Node53</title>
<g id="a_node2"><a xlink:href="espmissingincludes_8h.html#ad228deceea1bac4d9f171f647c265059" target="_top" xlink:title="atoi">
<polygon fill="#ffffff" stroke="#000000" points="143.5,-228.5 143.5,-247.5 176.5,-247.5 176.5,-228.5 143.5,-228.5"/>
<text text-anchor="middle" x="160" y="-235.5" font-family="Helvetica,sans-Serif" font-size="10.00" fill="#000000">atoi</text>
</a>
</g>
</g>
<!-- Node52&#45;&gt;Node53 -->
<g id="edge1" class="edge">
<title>Node52&#45;&gt;Node53</title>
<path fill="none" stroke="#191970" d="M72.524,-209.589C91.2858,-215.6826 115.3674,-223.5039 133.512,-229.3971"/>
<polygon fill="#191970" stroke="#191970" points="132.5746,-232.7725 143.1667,-232.5328 134.7369,-226.1149 132.5746,-232.7725"/>
</g>
<!-- Node54 -->
<g id="node3" class="node">
<title>Node54</title>
<g id="a_node3"><a xlink:href="httpd_8c.html#a5024249acf005b3e40a1257a2267532b" target="_top" xlink:title="httpdFindArg">
<polygon fill="#ffffff" stroke="#000000" points="123,-190.5 123,-209.5 197,-209.5 197,-190.5 123,-190.5"/>
<text text-anchor="middle" x="160" y="-197.5" font-family="Helvetica,sans-Serif" font-size="10.00" fill="#000000">httpdFindArg</text>
</a>
</g>
</g>
<!-- Node52&#45;&gt;Node54 -->
<g id="edge2" class="edge">
<title>Node52&#45;&gt;Node54</title>
<path fill="none" stroke="#191970" d="M86.2341,-200C94.843,-200 103.9261,-200 112.6641,-200"/>
<polygon fill="#191970" stroke="#191970" points="112.7142,-203.5001 122.7141,-200 112.7141,-196.5001 112.7142,-203.5001"/>
</g>
<!-- Node57 -->
<g id="node6" class="node">
<title>Node57</title>
<g id="a_node6"><a xlink:href="httpd_8c.html#ab27493bff23508040d0c672a95ecd3b6" target="_top" xlink:title="httpdRedirect">
<polygon fill="#ffffff" stroke="#000000" points="122,-152.5 122,-171.5 198,-171.5 198,-152.5 122,-152.5"/>
<text text-anchor="middle" x="160" y="-159.5" font-family="Helvetica,sans-Serif" font-size="10.00" fill="#000000">httpdRedirect</text>
</a>
</g>
</g>
<!-- Node52&#45;&gt;Node57 -->
<g id="edge5" class="edge">
<title>Node52&#45;&gt;Node57</title>
<path fill="none" stroke="#191970" d="M72.524,-190.411C87.2119,-185.6406 105.1601,-179.8112 120.9678,-174.6771"/>
<polygon fill="#191970" stroke="#191970" points="122.0556,-178.0039 130.4854,-171.5859 119.8933,-171.3462 122.0556,-178.0039"/>
</g>
<!-- Node55 -->
<g id="node4" class="node">
<title>Node55</title>
<g id="a_node4"><a xlink:href="httpd_8c.html#a45e5cfc52bcba530447be34fd5bae705" target="_top" xlink:title="httpdUrlDecode">
<polygon fill="#ffffff" stroke="#000000" points="234,-190.5 234,-209.5 320,-209.5 320,-190.5 234,-190.5"/>
<text text-anchor="middle" x="277" y="-197.5" font-family="Helvetica,sans-Serif" font-size="10.00" fill="#000000">httpdUrlDecode</text>
</a>
</g>
</g>
<!-- Node54&#45;&gt;Node55 -->
<g id="edge3" class="edge">
<title>Node54&#45;&gt;Node55</title>
<path fill="none" stroke="#191970" d="M197.0195,-200C205.4832,-200 214.6435,-200 223.6404,-200"/>
<polygon fill="#191970" stroke="#191970" points="223.6829,-203.5001 233.6829,-200 223.6828,-196.5001 223.6829,-203.5001"/>
</g>
<!-- Node56 -->
<g id="node5" class="node">
<title>Node56</title>
<g id="a_node5"><a xlink:href="httpd_8c.html#a635d1e810633b2b48d28d0be7357570a" target="_top" xlink:title="httpdHexVal">
<polygon fill="#ffffff" stroke="#000000" points="356,-190.5 356,-209.5 427,-209.5 427,-190.5 356,-190.5"/>
<text text-anchor="middle" x="391.5" y="-197.5" font-family="Helvetica,sans-Serif" font-size="10.00" fill="#000000">httpdHexVal</text>
</a>
</g>
</g>
<!-- Node55&#45;&gt;Node56 -->
<g id="edge4" class="edge">
<title>Node55&#45;&gt;Node56</title>
<path fill="none" stroke="#191970" d="M320.2875,-200C328.6618,-200 337.4605,-200 345.9059,-200"/>
<polygon fill="#191970" stroke="#191970" points="345.9799,-203.5001 355.9798,-200 345.9798,-196.5001 345.9799,-203.5001"/>
</g>
<!-- Node58 -->
<g id="node7" class="node">
<title>Node58</title>
<g id="a_node7"><a xlink:href="tinyprintf_8c.html#a9738cbc6c538d210941db282e240c7d6" target="_top" xlink:title="tfp_snprintf">
<polygon fill="#ffffff" stroke="#000000" points="244,-114.5 244,-133.5 310,-133.5 310,-114.5 244,-114.5"/>
<text text-anchor="middle" x="277" y="-121.5" font-family="Helvetica,sans-Serif" font-size="10.00" fill="#000000">tfp_snprintf</text>
</a>
</g>
</g>
<!-- Node57&#45;&gt;Node58 -->
<g id="edge6" class="edge">
<title>Node57&#45;&gt;Node58</title>
<path fill="none" stroke="#191970" d="M189.524,-152.411C204.2119,-147.6406 222.1601,-141.8112 237.9678,-136.6771"/>
<polygon fill="#191970" stroke="#191970" points="239.0556,-140.0039 247.4854,-133.5859 236.8933,-133.3462 239.0556,-140.0039"/>
</g>
<!-- Node71 -->
<g id="node20" class="node">
<title>Node71</title>
<g id="a_node20"><a xlink:href="httpd_8c.html#a1a143f6c427d66e2561895cf193fc535" target="_top" xlink:title="httpdSend">
<polygon fill="#ffffff" stroke="#000000" points="246,-152.5 246,-171.5 308,-171.5 308,-152.5 246,-152.5"/>
<text text-anchor="middle" x="277" y="-159.5" font-family="Helvetica,sans-Serif" font-size="10.00" fill="#000000">httpdSend</text>
</a>
</g>
</g>
<!-- Node57&#45;&gt;Node71 -->
<g id="edge22" class="edge">
<title>Node57&#45;&gt;Node71</title>
<path fill="none" stroke="#191970" d="M198.3102,-162C210.1657,-162 223.2821,-162 235.3521,-162"/>
<polygon fill="#191970" stroke="#191970" points="235.6318,-165.5001 245.6317,-162 235.6317,-158.5001 235.6318,-165.5001"/>
</g>
<!-- Node59 -->
<g id="node8" class="node">
<title>Node59</title>
<g id="a_node8"><a xlink:href="tinyprintf_8c.html#ac8c8a66133cf0d7009c0d73b55311a44" target="_top" xlink:title="tfp_vsnprintf">
<polygon fill="#ffffff" stroke="#000000" points="356,-114.5 356,-133.5 427,-133.5 427,-114.5 356,-114.5"/>
<text text-anchor="middle" x="391.5" y="-121.5" font-family="Helvetica,sans-Serif" font-size="10.00" fill="#000000">tfp_vsnprintf</text>
</a>
</g>
</g>
<!-- Node58&#45;&gt;Node59 -->
<g id="edge7" class="edge">
<title>Node58&#45;&gt;Node59</title>
<path fill="none" stroke="#191970" d="M310.1181,-124C321.1522,-124 333.6501,-124 345.4818,-124"/>
<polygon fill="#191970" stroke="#191970" points="345.6543,-127.5001 355.6543,-124 345.6542,-120.5001 345.6543,-127.5001"/>
</g>
<!-- Node60 -->
<g id="node9" class="node">
<title>Node60</title>
<g id="a_node9"><a xlink:href="tinyprintf_8c.html#a5877e42444463efc71a91b5fe76a6145" target="_top" xlink:title="tfp_format">
<polygon fill="#ffffff" stroke="#000000" points="475.5,-133.5 475.5,-152.5 537.5,-152.5 537.5,-133.5 475.5,-133.5"/>
<text text-anchor="middle" x="506.5" y="-140.5" font-family="Helvetica,sans-Serif" font-size="10.00" fill="#000000">tfp_format</text>
</a>
</g>
</g>
<!-- Node59&#45;&gt;Node60 -->
<g id="edge8" class="edge">
<title>Node59&#45;&gt;Node60</title>
<path fill="none" stroke="#191970" d="M427.2563,-129.9076C439.31,-131.899 452.8587,-134.1375 465.2981,-136.1927"/>
<polygon fill="#191970" stroke="#191970" points="464.9923,-139.6896 475.4291,-137.8665 466.1334,-132.7832 464.9923,-139.6896"/>
</g>
<!-- Node70 -->
<g id="node19" class="node">
<title>Node70</title>
<g id="a_node19"><a xlink:href="tinyprintf_8c.html#a919051024b2d729e34a54648b3f2462d" target="_top" xlink:title="_vsnprintf_putcf">
<polygon fill="#ffffff" stroke="#000000" points="463,-95.5 463,-114.5 550,-114.5 550,-95.5 463,-95.5"/>
<text text-anchor="middle" x="506.5" y="-102.5" font-family="Helvetica,sans-Serif" font-size="10.00" fill="#000000">_vsnprintf_putcf</text>
</a>
</g>
</g>
<!-- Node59&#45;&gt;Node70 -->
<g id="edge21" class="edge">
<title>Node59&#45;&gt;Node70</title>
<path fill="none" stroke="#191970" d="M427.2563,-118.0924C435.3127,-116.7614 444.037,-115.32 452.6515,-113.8967"/>
<polygon fill="#191970" stroke="#191970" points="453.3715,-117.3253 462.6672,-112.2419 452.2304,-110.4189 453.3715,-117.3253"/>
</g>
<!-- Node61 -->
<g id="node10" class="node">
<title>Node61</title>
<g id="a_node10"><a xlink:href="tinyprintf_8c.html#aa97593a5e53af85b608ad0910db92d77" target="_top" xlink:title="a2u">
<polygon fill="#ffffff" stroke="#000000" points="593.5,-266.5 593.5,-285.5 626.5,-285.5 626.5,-266.5 593.5,-266.5"/>
<text text-anchor="middle" x="610" y="-273.5" font-family="Helvetica,sans-Serif" font-size="10.00" fill="#000000">a2u</text>
</a>
</g>
</g>
<!-- Node60&#45;&gt;Node61 -->
<g id="edge9" class="edge">
<title>Node60&#45;&gt;Node61</title>
<path fill="none" stroke="#191970" d="M512.8324,-152.706C525.7216,-172.2184 556.3056,-217.297 586,-252 587.9395,-254.2666 590.0504,-256.5753 592.1892,-258.8208"/>
<polygon fill="#191970" stroke="#191970" points="589.8349,-261.4175 599.359,-266.0588 594.808,-256.4912 589.8349,-261.4175"/>
</g>
<!-- Node63 -->
<g id="node12" class="node">
<title>Node63</title>
<g id="a_node12"><a xlink:href="tinyprintf_8c.html#abcf035dd576671b0cc897de9dd8c75b0" target="_top" xlink:title="ulli2a">
<polygon fill="#ffffff" stroke="#000000" points="670,-209.5 670,-228.5 710,-228.5 710,-209.5 670,-209.5"/>
<text text-anchor="middle" x="690" y="-216.5" font-family="Helvetica,sans-Serif" font-size="10.00" fill="#000000">ulli2a</text>
</a>
</g>
</g>
<!-- Node60&#45;&gt;Node63 -->
<g id="edge11" class="edge">
<title>Node60&#45;&gt;Node63</title>
<path fill="none" stroke="#191970" d="M512.7265,-152.585C524.557,-169.7998 552.1512,-205.4235 586,-219 609.3674,-228.3725 638.1345,-227.5347 659.486,-224.8289"/>
<polygon fill="#191970" stroke="#191970" points="660.2279,-228.2574 669.6112,-223.3377 659.208,-221.3321 660.2279,-228.2574"/>
</g>
<!-- Node64 -->
<g id="node13" class="node">
<title>Node64</title>
<g id="a_node13"><a xlink:href="tinyprintf_8c.html#a1d61347854a8c290d59b4a21efcefd75" target="_top" xlink:title="uli2a">
<polygon fill="#ffffff" stroke="#000000" points="671,-114.5 671,-133.5 709,-133.5 709,-114.5 671,-114.5"/>
<text text-anchor="middle" x="690" y="-121.5" font-family="Helvetica,sans-Serif" font-size="10.00" fill="#000000">uli2a</text>
</a>
</g>
</g>
<!-- Node60&#45;&gt;Node64 -->
<g id="edge12" class="edge">
<title>Node60&#45;&gt;Node64</title>
<path fill="none" stroke="#191970" d="M529.2214,-133.4524C535.9569,-130.5211 543.3173,-127.2175 550,-124 566.3007,-116.1517 568.439,-109.3498 586,-105 606.7075,-99.8708 612.9513,-101.5265 634,-105 643.1008,-106.5018 652.7111,-109.2897 661.3523,-112.276"/>
<polygon fill="#191970" stroke="#191970" points="660.3691,-115.6434 670.9626,-115.8075 662.7836,-109.073 660.3691,-115.6434"/>
</g>
<!-- Node65 -->
<g id="node14" class="node">
<title>Node65</title>
<g id="a_node14"><a xlink:href="tinyprintf_8c.html#ac87ff66a592723f55692eaf8e3f19df8" target="_top" xlink:title="ui2a">
<polygon fill="#ffffff" stroke="#000000" points="672.5,-19.5 672.5,-38.5 707.5,-38.5 707.5,-19.5 672.5,-19.5"/>
<text text-anchor="middle" x="690" y="-26.5" font-family="Helvetica,sans-Serif" font-size="10.00" fill="#000000">ui2a</text>
</a>
</g>
</g>
<!-- Node60&#45;&gt;Node65 -->
<g id="edge13" class="edge">
<title>Node60&#45;&gt;Node65</title>
<path fill="none" stroke="#191970" d="M531.3781,-133.315C537.6001,-130.5747 544.1614,-127.4025 550,-124 567.2798,-113.9298 569.6218,-108.4784 586,-97 612.9302,-78.1263 644.6653,-57.6181 665.9336,-44.1144"/>
<polygon fill="#191970" stroke="#191970" points="668.0587,-46.9117 674.6386,-38.6077 664.3164,-40.996 668.0587,-46.9117"/>
</g>
<!-- Node66 -->
<g id="node15" class="node">
<title>Node66</title>
<g id="a_node15"><a xlink:href="tinyprintf_8c.html#a6252dbfebb2c8783c4e3107d551082dd" target="_top" xlink:title="putchw">
<polygon fill="#ffffff" stroke="#000000" points="586,-114.5 586,-133.5 634,-133.5 634,-114.5 586,-114.5"/>
<text text-anchor="middle" x="610" y="-121.5" font-family="Helvetica,sans-Serif" font-size="10.00" fill="#000000">putchw</text>
</a>
</g>
</g>
<!-- Node60&#45;&gt;Node66 -->
<g id="edge14" class="edge">
<title>Node60&#45;&gt;Node66</title>
<path fill="none" stroke="#191970" d="M537.5534,-137.2994C549.6483,-135.0791 563.549,-132.5272 575.9191,-130.2564"/>
<polygon fill="#191970" stroke="#191970" points="576.673,-133.6766 585.8767,-128.4284 575.4091,-126.7916 576.673,-133.6766"/>
</g>
<!-- Node67 -->
<g id="node16" class="node">
<title>Node67</title>
<g id="a_node16"><a xlink:href="tinyprintf_8c.html#a49c6d2b3d4088012f2c1fe344eef69f3" target="_top" xlink:title="lli2a">
<polygon fill="#ffffff" stroke="#000000" points="593,-190.5 593,-209.5 627,-209.5 627,-190.5 593,-190.5"/>
<text text-anchor="middle" x="610" y="-197.5" font-family="Helvetica,sans-Serif" font-size="10.00" fill="#000000">lli2a</text>
</a>
</g>
</g>
<!-- Node60&#45;&gt;Node67 -->
<g id="edge15" class="edge">
<title>Node60&#45;&gt;Node67</title>
<path fill="none" stroke="#191970" d="M524.0574,-152.6693C540.4376,-161.6903 565.0906,-175.2673 583.7979,-185.5698"/>
<polygon fill="#191970" stroke="#191970" points="582.254,-188.7152 592.7019,-190.4735 585.6309,-182.5836 582.254,-188.7152"/>
</g>
<!-- Node68 -->
<g id="node17" class="node">
<title>Node68</title>
<g id="a_node17"><a xlink:href="tinyprintf_8c.html#afebb7696337c3f599b5e8db35c560684" target="_top" xlink:title="li2a">
<polygon fill="#ffffff" stroke="#000000" points="594,-152.5 594,-171.5 626,-171.5 626,-152.5 594,-152.5"/>
<text text-anchor="middle" x="610" y="-159.5" font-family="Helvetica,sans-Serif" font-size="10.00" fill="#000000">li2a</text>
</a>
</g>
</g>
<!-- Node60&#45;&gt;Node68 -->
<g id="edge17" class="edge">
<title>Node60&#45;&gt;Node68</title>
<path fill="none" stroke="#191970" d="M537.5534,-148.7006C552.3576,-151.4183 569.8672,-154.6326 583.9639,-157.2204"/>
<polygon fill="#191970" stroke="#191970" points="583.5095,-160.6954 593.9771,-159.0586 584.7734,-153.8105 583.5095,-160.6954"/>
</g>
<!-- Node69 -->
<g id="node18" class="node">
<title>Node69</title>
<g id="a_node18"><a xlink:href="tinyprintf_8c.html#a90f9fd8f2133cda7f50be8d67823405c" target="_top" xlink:title="i2a">
<polygon fill="#ffffff" stroke="#000000" points="595,-.5 595,-19.5 625,-19.5 625,-.5 595,-.5"/>
<text text-anchor="middle" x="610" y="-7.5" font-family="Helvetica,sans-Serif" font-size="10.00" fill="#000000">i2a</text>
</a>
</g>
</g>
<!-- Node60&#45;&gt;Node69 -->
<g id="edge19" class="edge">
<title>Node60&#45;&gt;Node69</title>
<path fill="none" stroke="#191970" d="M537.0089,-133.36C541.7753,-130.8686 546.3294,-127.7874 550,-124 579.9826,-93.0639 562.2841,-69.9661 586,-34 587.4759,-31.7617 589.1854,-29.5609 590.9987,-27.455"/>
<polygon fill="#191970" stroke="#191970" points="593.8289,-29.5609 598.2325,-19.9246 588.7807,-24.7116 593.8289,-29.5609"/>
</g>
<!-- Node62 -->
<g id="node11" class="node">
<title>Node62</title>
<g id="a_node11"><a xlink:href="tinyprintf_8c.html#aa853a0c5ba64fa2546d488b86192e7e3" target="_top" xlink:title="a2d">
<polygon fill="#ffffff" stroke="#000000" points="673.5,-266.5 673.5,-285.5 706.5,-285.5 706.5,-266.5 673.5,-266.5"/>
<text text-anchor="middle" x="690" y="-273.5" font-family="Helvetica,sans-Serif" font-size="10.00" fill="#000000">a2d</text>
</a>
</g>
</g>
<!-- Node61&#45;&gt;Node62 -->
<g id="edge10" class="edge">
<title>Node61&#45;&gt;Node62</title>
<path fill="none" stroke="#191970" d="M626.5761,-276C637.1953,-276 651.2154,-276 663.373,-276"/>
<polygon fill="#191970" stroke="#191970" points="663.4452,-279.5001 673.4452,-276 663.4451,-272.5001 663.4452,-279.5001"/>
</g>
<!-- Node67&#45;&gt;Node63 -->
<g id="edge16" class="edge">
<title>Node67&#45;&gt;Node63</title>
<path fill="none" stroke="#191970" d="M627.3588,-204.1227C636.8312,-206.3724 648.8293,-209.222 659.7843,-211.8238"/>
<polygon fill="#191970" stroke="#191970" points="659.3132,-215.3092 669.8514,-214.2147 660.9308,-208.4986 659.3132,-215.3092"/>
</g>
<!-- Node68&#45;&gt;Node64 -->
<g id="edge18" class="edge">
<title>Node68&#45;&gt;Node64</title>
<path fill="none" stroke="#191970" d="M626.1892,-154.3101C636.3485,-149.4845 649.7298,-143.1283 661.6136,-137.4835"/>
<polygon fill="#191970" stroke="#191970" points="663.202,-140.6039 670.733,-133.1518 660.1985,-134.281 663.202,-140.6039"/>
</g>
<!-- Node69&#45;&gt;Node65 -->
<g id="edge20" class="edge">
<title>Node69&#45;&gt;Node65</title>
<path fill="none" stroke="#191970" d="M625.0474,-13.5738C635.5142,-16.0596 649.7762,-19.4469 662.27,-22.4141"/>
<polygon fill="#191970" stroke="#191970" points="661.6886,-25.8733 672.2268,-24.7789 663.3062,-19.0628 661.6886,-25.8733"/>
</g>
</g>
</svg>
