<?xml version="1.0" encoding="UTF-8" standalone="no"?>
<!DOCTYPE svg PUBLIC "-//W3C//DTD SVG 1.1//EN"
 "http://www.w3.org/Graphics/SVG/1.1/DTD/svg11.dtd">
<!-- Generated by graphviz version 2.41.20170323.1842 (20170323.1842)
 -->
<!-- Title: config_save_timer_func Pages: 1 -->
<svg width="642pt" height="154pt"
 viewBox="0.00 0.00 642.00 154.00" xmlns="http://www.w3.org/2000/svg" xmlns:xlink="http://www.w3.org/1999/xlink">
<g id="graph0" class="graph" transform="scale(1 1) rotate(0) translate(4 150)">
<title>config_save_timer_func</title>
<polygon fill="#ffffff" stroke="transparent" points="-4,4 -4,-150 638,-150 638,4 -4,4"/>
<!-- Node68 -->
<g id="node1" class="node">
<title>Node68</title>
<polygon fill="#bfbfbf" stroke="#000000" points="0,-60.5 0,-79.5 122,-79.5 122,-60.5 0,-60.5"/>
<text text-anchor="middle" x="61" y="-67.5" font-family="Helvetica,sans-Serif" font-size="10.00" fill="#000000">config_save_timer_func</text>
</g>
<!-- Node69 -->
<g id="node2" class="node">
<title>Node69</title>
<g id="a_node2"><a xlink:href="config_8c.html#acd3c633ba5f49d7bb46d6e4efa31ddb2" target="_top" xlink:title="cfg_save">
<polygon fill="#ffffff" stroke="#000000" points="316,-60.5 316,-79.5 373,-79.5 373,-60.5 316,-60.5"/>
<text text-anchor="middle" x="344.5" y="-67.5" font-family="Helvetica,sans-Serif" font-size="10.00" fill="#000000">cfg_save</text>
</a>
</g>
</g>
<!-- Node68&#45;&gt;Node69 -->
<g id="edge1" class="edge">
<title>Node68&#45;&gt;Node69</title>
<path fill="none" stroke="#191970" d="M122.2573,-76.5495C134.1027,-77.5709 146.4273,-78.4643 158,-79 212.1642,-81.5074 225.908,-82.7557 280,-79 288.3396,-78.421 297.2423,-77.4257 305.6871,-76.3028"/>
<polygon fill="#191970" stroke="#191970" points="306.2802,-79.7539 315.6923,-74.8894 305.301,-72.8227 306.2802,-79.7539"/>
</g>
<!-- Node75 -->
<g id="node8" class="node">
<title>Node75</title>
<g id="a_node8"><a xlink:href="config_8c.html#a1e0d59e84f6bbc2564bcdf595b6972da" target="_top" xlink:title="config_save_timer_func">
<polygon fill="#ffffff" stroke="#000000" points="158,-32.5 158,-51.5 280,-51.5 280,-32.5 158,-32.5"/>
<text text-anchor="middle" x="219" y="-39.5" font-family="Helvetica,sans-Serif" font-size="10.00" fill="#000000">config_save_timer_func</text>
</a>
</g>
</g>
<!-- Node68&#45;&gt;Node75 -->
<g id="edge9" class="edge">
<title>Node68&#45;&gt;Node75</title>
<path fill="none" stroke="#191970" d="M114.9327,-60.4423C127.8981,-58.1446 141.8685,-55.6689 155.2341,-53.3003"/>
<polygon fill="#191970" stroke="#191970" points="156.0745,-56.706 165.3103,-51.5146 154.853,-49.8134 156.0745,-56.706"/>
</g>
<!-- Node70 -->
<g id="node3" class="node">
<title>Node70</title>
<g id="a_node3"><a xlink:href="utils_8c.html#a8d9e1de95e2d6d103108a4b0ebf4d923" target="_top" xlink:title="ccit_crc16">
<polygon fill="#ffffff" stroke="#000000" points="430.5,-126.5 430.5,-145.5 492.5,-145.5 492.5,-126.5 430.5,-126.5"/>
<text text-anchor="middle" x="461.5" y="-133.5" font-family="Helvetica,sans-Serif" font-size="10.00" fill="#000000">ccit_crc16</text>
</a>
</g>
</g>
<!-- Node69&#45;&gt;Node70 -->
<g id="edge2" class="edge">
<title>Node69&#45;&gt;Node70</title>
<path fill="none" stroke="#191970" d="M355.7289,-79.7157C368.1071,-90.0468 388.9345,-106.3365 409,-117 412.8036,-119.0214 416.8686,-120.9135 420.9897,-122.6603"/>
<polygon fill="#191970" stroke="#191970" points="420.0242,-126.0422 430.6106,-126.465 422.5985,-119.5327 420.0242,-126.0422"/>
</g>
<!-- Node71 -->
<g id="node4" class="node">
<title>Node71</title>
<g id="a_node4"><a xlink:href="ext__spi__flash_8c.html#ab4369189179b556a6b8e2155433c5f70" target="_top" xlink:title="ext_spi_flash_erase\l_sector">
<polygon fill="#ffffff" stroke="#000000" points="409,-77 409,-107 514,-107 514,-77 409,-77"/>
<text text-anchor="start" x="417" y="-95" font-family="Helvetica,sans-Serif" font-size="10.00" fill="#000000">ext_spi_flash_erase</text>
<text text-anchor="middle" x="461.5" y="-84" font-family="Helvetica,sans-Serif" font-size="10.00" fill="#000000">_sector</text>
</a>
</g>
</g>
<!-- Node69&#45;&gt;Node71 -->
<g id="edge3" class="edge">
<title>Node69&#45;&gt;Node71</title>
<path fill="none" stroke="#191970" d="M373.1214,-75.3818C381.0705,-76.8765 390.0257,-78.5604 399.1065,-80.2679"/>
<polygon fill="#191970" stroke="#191970" points="398.4933,-83.7138 408.9679,-82.1222 399.7869,-76.8344 398.4933,-83.7138"/>
</g>
<!-- Node73 -->
<g id="node6" class="node">
<title>Node73</title>
<g id="a_node6"><a xlink:href="ext__spi__flash_8c.html#a094d4588aff8210b1bb94ae90fb58526" target="_top" xlink:title="ext_spi_flash_read">
<polygon fill="#ffffff" stroke="#000000" points="411.5,-38.5 411.5,-57.5 511.5,-57.5 511.5,-38.5 411.5,-38.5"/>
<text text-anchor="middle" x="461.5" y="-45.5" font-family="Helvetica,sans-Serif" font-size="10.00" fill="#000000">ext_spi_flash_read</text>
</a>
</g>
</g>
<!-- Node69&#45;&gt;Node73 -->
<g id="edge5" class="edge">
<title>Node69&#45;&gt;Node73</title>
<path fill="none" stroke="#191970" d="M373.1214,-64.6182C381.747,-62.9963 391.5573,-61.1516 401.4272,-59.2957"/>
<polygon fill="#191970" stroke="#191970" points="402.0945,-62.7317 411.2755,-57.4439 400.8009,-55.8523 402.0945,-62.7317"/>
</g>
<!-- Node74 -->
<g id="node7" class="node">
<title>Node74</title>
<g id="a_node7"><a xlink:href="ext__spi__flash_8c.html#a17e27ce44dd5aec4dd7a7de609093aae" target="_top" xlink:title="ext_spi_flash_write">
<polygon fill="#ffffff" stroke="#000000" points="410.5,-.5 410.5,-19.5 512.5,-19.5 512.5,-.5 410.5,-.5"/>
<text text-anchor="middle" x="461.5" y="-7.5" font-family="Helvetica,sans-Serif" font-size="10.00" fill="#000000">ext_spi_flash_write</text>
</a>
</g>
</g>
<!-- Node69&#45;&gt;Node74 -->
<g id="edge7" class="edge">
<title>Node69&#45;&gt;Node74</title>
<path fill="none" stroke="#191970" d="M357.8326,-60.2981C370.535,-51.3567 390.4225,-38.1288 409,-29 413.1241,-26.9735 417.5212,-25.0459 421.9486,-23.2502"/>
<polygon fill="#191970" stroke="#191970" points="423.5169,-26.3971 431.5955,-19.5424 421.0055,-19.8631 423.5169,-26.3971"/>
</g>
<!-- Node72 -->
<g id="node5" class="node">
<title>Node72</title>
<g id="a_node5"><a xlink:href="spi_8c.html#acebb579091ca980f217d3e5f3bd1f1d5" target="_top" xlink:title="spi_transaction">
<polygon fill="#ffffff" stroke="#000000" points="550,-38.5 550,-57.5 634,-57.5 634,-38.5 550,-38.5"/>
<text text-anchor="middle" x="592" y="-45.5" font-family="Helvetica,sans-Serif" font-size="10.00" fill="#000000">spi_transaction</text>
</a>
</g>
</g>
<!-- Node71&#45;&gt;Node72 -->
<g id="edge4" class="edge">
<title>Node71&#45;&gt;Node72</title>
<path fill="none" stroke="#191970" d="M506.0457,-76.9808C521.6727,-71.7119 539.0673,-65.847 554.098,-60.7792"/>
<polygon fill="#191970" stroke="#191970" points="555.234,-64.0898 563.5917,-57.5783 552.9975,-57.4567 555.234,-64.0898"/>
</g>
<!-- Node73&#45;&gt;Node72 -->
<g id="edge6" class="edge">
<title>Node73&#45;&gt;Node72</title>
<path fill="none" stroke="#191970" d="M511.5815,-48C520.7729,-48 530.3895,-48 539.6455,-48"/>
<polygon fill="#191970" stroke="#191970" points="539.9007,-51.5001 549.9007,-48 539.9006,-44.5001 539.9007,-51.5001"/>
</g>
<!-- Node74&#45;&gt;Node72 -->
<g id="edge8" class="edge">
<title>Node74&#45;&gt;Node72</title>
<path fill="none" stroke="#191970" d="M494.4307,-19.589C511.1224,-24.4494 531.5892,-30.4091 549.4595,-35.6127"/>
<polygon fill="#191970" stroke="#191970" points="548.5001,-38.9787 559.0799,-38.4141 550.4572,-32.2578 548.5001,-38.9787"/>
</g>
<!-- Node75&#45;&gt;Node69 -->
<g id="edge10" class="edge">
<title>Node75&#45;&gt;Node69</title>
<path fill="none" stroke="#191970" d="M261.839,-51.5577C276.1239,-54.7448 291.9446,-58.2745 305.889,-61.3856"/>
<polygon fill="#191970" stroke="#191970" points="305.14,-64.8045 315.6622,-63.5661 306.6644,-57.9724 305.14,-64.8045"/>
</g>
<!-- Node75&#45;&gt;Node75 -->
<g id="edge11" class="edge">
<title>Node75&#45;&gt;Node75</title>
<path fill="none" stroke="#191970" d="M199.888,-51.7571C190.5903,-60.5653 196.9609,-70 219,-70 233.1188,-70 240.8072,-66.128 242.0654,-61.0292"/>
<polygon fill="#191970" stroke="#191970" points="245.2537,-59.5831 238.112,-51.7571 238.8146,-62.3286 245.2537,-59.5831"/>
</g>
</g>
</svg>
