<?xml version="1.0" encoding="UTF-8" standalone="no"?>
<!DOCTYPE svg PUBLIC "-//W3C//DTD SVG 1.1//EN"
 "http://www.w3.org/Graphics/SVG/1.1/DTD/svg11.dtd">
<!-- Generated by graphviz version 2.41.20170323.1842 (20170323.1842)
 -->
<!-- Title: modules/config.c Pages: 1 -->
<svg width="2400pt" height="364pt"
 viewBox="0.00 0.00 2399.50 364.00" xmlns="http://www.w3.org/2000/svg" xmlns:xlink="http://www.w3.org/1999/xlink">
<g id="graph0" class="graph" transform="scale(1 1) rotate(0) translate(4 360)">
<title>modules/config.c</title>
<polygon fill="#ffffff" stroke="transparent" points="-4,4 -4,-360 2395.5,-360 2395.5,4 -4,4"/>
<!-- Node0 -->
<g id="node1" class="node">
<title>Node0</title>
<polygon fill="#bfbfbf" stroke="#000000" points="1975,-336.5 1975,-355.5 2067,-355.5 2067,-336.5 1975,-336.5"/>
<text text-anchor="middle" x="2021" y="-343.5" font-family="Helvetica,sans-Serif" font-size="10.00" fill="#000000">modules/config.c</text>
</g>
<!-- Node1 -->
<g id="node2" class="node">
<title>Node1</title>
<polygon fill="#ffffff" stroke="#bfbfbf" points="1505,-280.5 1505,-299.5 1557,-299.5 1557,-280.5 1505,-280.5"/>
<text text-anchor="middle" x="1531" y="-287.5" font-family="Helvetica,sans-Serif" font-size="10.00" fill="#000000">stddef.h</text>
</g>
<!-- Node0&#45;&gt;Node1 -->
<g id="edge1" class="edge">
<title>Node0&#45;&gt;Node1</title>
<path fill="none" stroke="#191970" d="M1974.7061,-343.4597C1892.8028,-338.4788 1717.1993,-325.6117 1571,-300 1569.7309,-299.7777 1568.4424,-299.5372 1567.1437,-299.2821"/>
<polygon fill="#191970" stroke="#191970" points="1567.6508,-295.8106 1557.1351,-297.1035 1566.1619,-302.6505 1567.6508,-295.8106"/>
</g>
<!-- Node2 -->
<g id="node3" class="node">
<title>Node2</title>
<g id="a_node3"><a xlink:href="esp8266_8h.html" target="_top" xlink:title="esp8266.h">
<polygon fill="#ffffff" stroke="#000000" points="994.5,-112.5 994.5,-131.5 1057.5,-131.5 1057.5,-112.5 994.5,-112.5"/>
<text text-anchor="middle" x="1026" y="-119.5" font-family="Helvetica,sans-Serif" font-size="10.00" fill="#000000">esp8266.h</text>
</a>
</g>
</g>
<!-- Node0&#45;&gt;Node2 -->
<g id="edge2" class="edge">
<title>Node0&#45;&gt;Node2</title>
<path fill="none" stroke="#191970" d="M1974.6207,-338.0186C1925.0664,-329.3296 1844.2787,-314.7003 1775,-300 1503.9923,-242.4947 1180.8104,-161.417 1067.6128,-132.639"/>
<polygon fill="#191970" stroke="#191970" points="1068.1875,-129.1738 1057.6332,-130.099 1066.4609,-135.9575 1068.1875,-129.1738"/>
</g>
<!-- Node28 -->
<g id="node29" class="node">
<title>Node28</title>
<g id="a_node29"><a xlink:href="mqtt_8h.html" target="_top" xlink:title="mqtt.h">
<polygon fill="#ffffff" stroke="#000000" points="1784,-280.5 1784,-299.5 1828,-299.5 1828,-280.5 1784,-280.5"/>
<text text-anchor="middle" x="1806" y="-287.5" font-family="Helvetica,sans-Serif" font-size="10.00" fill="#000000">mqtt.h</text>
</a>
</g>
</g>
<!-- Node0&#45;&gt;Node28 -->
<g id="edge30" class="edge">
<title>Node0&#45;&gt;Node28</title>
<path fill="none" stroke="#191970" d="M1984.0402,-336.3733C1942.8205,-325.637 1876.8274,-308.4481 1837.8182,-298.2875"/>
<polygon fill="#191970" stroke="#191970" points="1838.6031,-294.8753 1828.0438,-295.7416 1836.8387,-301.6493 1838.6031,-294.8753"/>
</g>
<!-- Node30 -->
<g id="node31" class="node">
<title>Node30</title>
<g id="a_node31"><a xlink:href="user__config_8h.html" target="_top" xlink:title="user_config.h">
<polygon fill="#ffffff" stroke="#000000" points="1875.5,-168.5 1875.5,-187.5 1952.5,-187.5 1952.5,-168.5 1875.5,-168.5"/>
<text text-anchor="middle" x="1914" y="-175.5" font-family="Helvetica,sans-Serif" font-size="10.00" fill="#000000">user_config.h</text>
</a>
</g>
</g>
<!-- Node0&#45;&gt;Node30 -->
<g id="edge43" class="edge">
<title>Node0&#45;&gt;Node30</title>
<path fill="none" stroke="#191970" d="M2022.5399,-336.3768C2025.5321,-314.2617 2029.8286,-259.0309 2005,-224 1994.3037,-208.9086 1977.1783,-198.4731 1960.6541,-191.4071"/>
<polygon fill="#191970" stroke="#191970" points="1961.6346,-188.0317 1951.0476,-187.6263 1959.0711,-194.5454 1961.6346,-188.0317"/>
</g>
<!-- Node35 -->
<g id="node36" class="node">
<title>Node35</title>
<g id="a_node36"><a xlink:href="config_8h.html" target="_top" xlink:title="config.h">
<polygon fill="#ffffff" stroke="#000000" points="1937,-280.5 1937,-299.5 1989,-299.5 1989,-280.5 1937,-280.5"/>
<text text-anchor="middle" x="1963" y="-287.5" font-family="Helvetica,sans-Serif" font-size="10.00" fill="#000000">config.h</text>
</a>
</g>
</g>
<!-- Node0&#45;&gt;Node35 -->
<g id="edge40" class="edge">
<title>Node0&#45;&gt;Node35</title>
<path fill="none" stroke="#191970" d="M2010.8972,-336.2455C2002.4972,-328.1352 1990.3506,-316.4075 1980.3916,-306.7919"/>
<polygon fill="#191970" stroke="#191970" points="1982.6122,-304.0707 1972.9871,-299.6427 1977.75,-309.1066 1982.6122,-304.0707"/>
</g>
<!-- Node37 -->
<g id="node38" class="node">
<title>Node37</title>
<g id="a_node38"><a xlink:href="debug_8h.html" target="_top" xlink:title="debug.h">
<polygon fill="#ffffff" stroke="#000000" points="2049.5,-280.5 2049.5,-299.5 2102.5,-299.5 2102.5,-280.5 2049.5,-280.5"/>
<text text-anchor="middle" x="2076" y="-287.5" font-family="Helvetica,sans-Serif" font-size="10.00" fill="#000000">debug.h</text>
</a>
</g>
</g>
<!-- Node0&#45;&gt;Node37 -->
<g id="edge44" class="edge">
<title>Node0&#45;&gt;Node37</title>
<path fill="none" stroke="#191970" d="M2030.5803,-336.2455C2038.5458,-328.1352 2050.0641,-316.4075 2059.5079,-306.7919"/>
<polygon fill="#191970" stroke="#191970" points="2062.0195,-309.2297 2066.5295,-299.6427 2057.0253,-304.3247 2062.0195,-309.2297"/>
</g>
<!-- Node38 -->
<g id="node39" class="node">
<title>Node38</title>
<g id="a_node39"><a xlink:href="utils_8h.html" target="_top" xlink:title="utils.h">
<polygon fill="#ffffff" stroke="#000000" points="2120.5,-280.5 2120.5,-299.5 2163.5,-299.5 2163.5,-280.5 2120.5,-280.5"/>
<text text-anchor="middle" x="2142" y="-287.5" font-family="Helvetica,sans-Serif" font-size="10.00" fill="#000000">utils.h</text>
</a>
</g>
</g>
<!-- Node0&#45;&gt;Node38 -->
<g id="edge45" class="edge">
<title>Node0&#45;&gt;Node38</title>
<path fill="none" stroke="#191970" d="M2041.8006,-336.3733C2061.2243,-327.3838 2090.4224,-313.8706 2112.2964,-303.7471"/>
<polygon fill="#191970" stroke="#191970" points="2113.8656,-306.8776 2121.4708,-299.5011 2110.9255,-300.5249 2113.8656,-306.8776"/>
</g>
<!-- Node39 -->
<g id="node40" class="node">
<title>Node39</title>
<g id="a_node40"><a xlink:href="tinyprintf_8h.html" target="_top" xlink:title="tinyprintf.h">
<polygon fill="#ffffff" stroke="#000000" points="2181.5,-280.5 2181.5,-299.5 2244.5,-299.5 2244.5,-280.5 2181.5,-280.5"/>
<text text-anchor="middle" x="2213" y="-287.5" font-family="Helvetica,sans-Serif" font-size="10.00" fill="#000000">tinyprintf.h</text>
</a>
</g>
</g>
<!-- Node0&#45;&gt;Node39 -->
<g id="edge46" class="edge">
<title>Node0&#45;&gt;Node39</title>
<path fill="none" stroke="#191970" d="M2054.006,-336.3733C2086.5018,-326.8953 2136.239,-312.3886 2171.4182,-302.128"/>
<polygon fill="#191970" stroke="#191970" points="2172.76,-305.3826 2181.38,-299.2225 2170.8,-298.6626 2172.76,-305.3826"/>
</g>
<!-- Node42 -->
<g id="node43" class="node">
<title>Node42</title>
<g id="a_node43"><a xlink:href="ext__spi__flash_8h.html" target="_top" xlink:title="driver/ext_spi_flash.h">
<polygon fill="#ffffff" stroke="#000000" points="2262.5,-280.5 2262.5,-299.5 2373.5,-299.5 2373.5,-280.5 2262.5,-280.5"/>
<text text-anchor="middle" x="2318" y="-287.5" font-family="Helvetica,sans-Serif" font-size="10.00" fill="#000000">driver/ext_spi_flash.h</text>
</a>
</g>
</g>
<!-- Node0&#45;&gt;Node42 -->
<g id="edge49" class="edge">
<title>Node0&#45;&gt;Node42</title>
<path fill="none" stroke="#191970" d="M2067.0804,-337.3114C2118.3408,-327.6462 2201.3465,-311.9953 2257.7295,-301.3641"/>
<polygon fill="#191970" stroke="#191970" points="2258.4065,-304.7982 2267.5848,-299.5059 2257.1094,-297.9194 2258.4065,-304.7982"/>
</g>
<!-- Node3 -->
<g id="node4" class="node">
<title>Node3</title>
<polygon fill="#ffffff" stroke="#bfbfbf" points="1599.5,-56.5 1599.5,-75.5 1648.5,-75.5 1648.5,-56.5 1599.5,-56.5"/>
<text text-anchor="middle" x="1624" y="-63.5" font-family="Helvetica,sans-Serif" font-size="10.00" fill="#000000">ctype.h</text>
</g>
<!-- Node2&#45;&gt;Node3 -->
<g id="edge3" class="edge">
<title>Node2&#45;&gt;Node3</title>
<path fill="none" stroke="#191970" d="M1057.7515,-121.2622C1143.4169,-118.8684 1386.2197,-109.4172 1585,-76 1586.4648,-75.7538 1587.9551,-75.4795 1589.4567,-75.1835"/>
<polygon fill="#191970" stroke="#191970" points="1590.3722,-78.5656 1599.377,-72.9832 1588.8564,-71.7317 1590.3722,-78.5656"/>
</g>
<!-- Node4 -->
<g id="node5" class="node">
<title>Node4</title>
<polygon fill="#ffffff" stroke="#bfbfbf" points="1667,-56.5 1667,-75.5 1713,-75.5 1713,-56.5 1667,-56.5"/>
<text text-anchor="middle" x="1690" y="-63.5" font-family="Helvetica,sans-Serif" font-size="10.00" fill="#000000">stdio.h</text>
</g>
<!-- Node2&#45;&gt;Node4 -->
<g id="edge4" class="edge">
<title>Node2&#45;&gt;Node4</title>
<path fill="none" stroke="#191970" d="M1057.6968,-120.6194C1165.9479,-115.7631 1521.2783,-98.6229 1656.6021,-75.5651"/>
<polygon fill="#191970" stroke="#191970" points="1657.4968,-78.9606 1666.7223,-73.7511 1656.2616,-72.0704 1657.4968,-78.9606"/>
</g>
<!-- Node5 -->
<g id="node6" class="node">
<title>Node5</title>
<polygon fill="#ffffff" stroke="#bfbfbf" points="0,-56.5 0,-75.5 48,-75.5 48,-56.5 0,-56.5"/>
<text text-anchor="middle" x="24" y="-63.5" font-family="Helvetica,sans-Serif" font-size="10.00" fill="#000000">stdlib.h</text>
</g>
<!-- Node2&#45;&gt;Node5 -->
<g id="edge5" class="edge">
<title>Node2&#45;&gt;Node5</title>
<path fill="none" stroke="#191970" d="M994.0589,-121.5418C850.477,-119.3229 263.2512,-108.5072 58.3909,-75.7857"/>
<polygon fill="#191970" stroke="#191970" points="58.7863,-72.3033 48.3466,-74.1097 57.6341,-79.2079 58.7863,-72.3033"/>
</g>
<!-- Node6 -->
<g id="node7" class="node">
<title>Node6</title>
<polygon fill="#ffffff" stroke="#bfbfbf" points="66.5,-56.5 66.5,-75.5 115.5,-75.5 115.5,-56.5 66.5,-56.5"/>
<text text-anchor="middle" x="91" y="-63.5" font-family="Helvetica,sans-Serif" font-size="10.00" fill="#000000">string.h</text>
</g>
<!-- Node2&#45;&gt;Node6 -->
<g id="edge6" class="edge">
<title>Node2&#45;&gt;Node6</title>
<path fill="none" stroke="#191970" d="M994.1993,-121.2195C855.3924,-117.6817 301.8853,-102.1799 130,-76 128.5316,-75.7763 127.0382,-75.5209 125.5342,-75.2405"/>
<polygon fill="#191970" stroke="#191970" points="126.1172,-71.7859 115.6042,-73.1002 124.6423,-78.6287 126.1172,-71.7859"/>
</g>
<!-- Node7 -->
<g id="node8" class="node">
<title>Node7</title>
<polygon fill="#ffffff" stroke="#bfbfbf" points="1541.5,-.5 1541.5,-19.5 1600.5,-19.5 1600.5,-.5 1541.5,-.5"/>
<text text-anchor="middle" x="1571" y="-7.5" font-family="Helvetica,sans-Serif" font-size="10.00" fill="#000000">c_types.h</text>
</g>
<!-- Node2&#45;&gt;Node7 -->
<g id="edge7" class="edge">
<title>Node2&#45;&gt;Node7</title>
<path fill="none" stroke="#191970" d="M1057.6374,-121.2628C1165.2588,-118.4802 1512.6438,-107.1429 1551,-76 1564.4805,-65.0547 1569.1059,-45.328 1570.5829,-30.2828"/>
<polygon fill="#191970" stroke="#191970" points="1574.0996,-30.1014 1571.1932,-19.913 1567.1116,-29.6901 1574.0996,-30.1014"/>
</g>
<!-- Node8 -->
<g id="node9" class="node">
<title>Node8</title>
<polygon fill="#ffffff" stroke="#bfbfbf" points="172.5,-56.5 172.5,-75.5 225.5,-75.5 225.5,-56.5 172.5,-56.5"/>
<text text-anchor="middle" x="199" y="-63.5" font-family="Helvetica,sans-Serif" font-size="10.00" fill="#000000">lwip/ip.h</text>
</g>
<!-- Node2&#45;&gt;Node8 -->
<g id="edge8" class="edge">
<title>Node2&#45;&gt;Node8</title>
<path fill="none" stroke="#191970" d="M994.0953,-121.0516C868.0726,-117.1681 404.0493,-101.5379 235.546,-75.6656"/>
<polygon fill="#191970" stroke="#191970" points="236.0232,-72.1975 225.5946,-74.0672 234.913,-79.1089 236.0232,-72.1975"/>
</g>
<!-- Node9 -->
<g id="node10" class="node">
<title>Node9</title>
<polygon fill="#ffffff" stroke="#bfbfbf" points="244,-56.5 244,-75.5 306,-75.5 306,-56.5 244,-56.5"/>
<text text-anchor="middle" x="275" y="-63.5" font-family="Helvetica,sans-Serif" font-size="10.00" fill="#000000">lwip/udp.h</text>
</g>
<!-- Node2&#45;&gt;Node9 -->
<g id="edge9" class="edge">
<title>Node2&#45;&gt;Node9</title>
<path fill="none" stroke="#191970" d="M994.1231,-120.7037C876.711,-115.8128 467.7734,-97.7209 316.3562,-75.9103"/>
<polygon fill="#191970" stroke="#191970" points="316.7431,-72.4291 306.3334,-74.4011 315.7008,-79.3511 316.7431,-72.4291"/>
</g>
<!-- Node10 -->
<g id="node11" class="node">
<title>Node10</title>
<polygon fill="#ffffff" stroke="#bfbfbf" points="324,-56.5 324,-75.5 406,-75.5 406,-56.5 324,-56.5"/>
<text text-anchor="middle" x="365" y="-63.5" font-family="Helvetica,sans-Serif" font-size="10.00" fill="#000000">lwip/tcp_impl.h</text>
</g>
<!-- Node2&#45;&gt;Node10 -->
<g id="edge10" class="edge">
<title>Node2&#45;&gt;Node10</title>
<path fill="none" stroke="#191970" d="M994.3767,-120.9834C905.0904,-117.8246 643.3498,-106.5752 416.2384,-76.0166"/>
<polygon fill="#191970" stroke="#191970" points="416.514,-72.5219 406.1332,-74.6409 415.5697,-79.458 416.514,-72.5219"/>
</g>
<!-- Node11 -->
<g id="node12" class="node">
<title>Node11</title>
<polygon fill="#ffffff" stroke="#bfbfbf" points="424.5,-56.5 424.5,-75.5 499.5,-75.5 499.5,-56.5 424.5,-56.5"/>
<text text-anchor="middle" x="462" y="-63.5" font-family="Helvetica,sans-Serif" font-size="10.00" fill="#000000">netif/etharp.h</text>
</g>
<!-- Node2&#45;&gt;Node11 -->
<g id="edge11" class="edge">
<title>Node2&#45;&gt;Node11</title>
<path fill="none" stroke="#191970" d="M994.3694,-120.5197C914.7366,-116.5094 699.425,-103.9112 509.7906,-75.9425"/>
<polygon fill="#191970" stroke="#191970" points="510.0442,-72.4417 499.637,-74.4264 509.0104,-79.3649 510.0442,-72.4417"/>
</g>
<!-- Node12 -->
<g id="node13" class="node">
<title>Node12</title>
<polygon fill="#ffffff" stroke="#bfbfbf" points="518,-56.5 518,-75.5 582,-75.5 582,-56.5 518,-56.5"/>
<text text-anchor="middle" x="550" y="-63.5" font-family="Helvetica,sans-Serif" font-size="10.00" fill="#000000">lwip/netif.h</text>
</g>
<!-- Node2&#45;&gt;Node12 -->
<g id="edge12" class="edge">
<title>Node2&#45;&gt;Node12</title>
<path fill="none" stroke="#191970" d="M994.4114,-120.1149C923.9683,-115.601 748.5746,-102.6449 592.4011,-76.0428"/>
<polygon fill="#191970" stroke="#191970" points="592.5932,-72.5242 582.1434,-74.2708 591.4016,-79.4221 592.5932,-72.5242"/>
</g>
<!-- Node13 -->
<g id="node14" class="node">
<title>Node13</title>
<polygon fill="#ffffff" stroke="#bfbfbf" points="600.5,-56.5 600.5,-75.5 687.5,-75.5 687.5,-56.5 600.5,-56.5"/>
<text text-anchor="middle" x="644" y="-63.5" font-family="Helvetica,sans-Serif" font-size="10.00" fill="#000000">lwip/lwip_napt.h</text>
</g>
<!-- Node2&#45;&gt;Node13 -->
<g id="edge13" class="edge">
<title>Node2&#45;&gt;Node13</title>
<path fill="none" stroke="#191970" d="M994.0606,-118.1032C936.7184,-110.9873 812.3073,-95.0043 697.6611,-76.2157"/>
<polygon fill="#191970" stroke="#191970" points="698.1,-72.7408 687.6635,-74.5659 696.9602,-79.6474 698.1,-72.7408"/>
</g>
<!-- Node14 -->
<g id="node15" class="node">
<title>Node14</title>
<polygon fill="#ffffff" stroke="#bfbfbf" points="705.5,-56.5 705.5,-75.5 766.5,-75.5 766.5,-56.5 705.5,-56.5"/>
<text text-anchor="middle" x="736" y="-63.5" font-family="Helvetica,sans-Serif" font-size="10.00" fill="#000000">lwip/dns.h</text>
</g>
<!-- Node2&#45;&gt;Node14 -->
<g id="edge14" class="edge">
<title>Node2&#45;&gt;Node14</title>
<path fill="none" stroke="#191970" d="M994.3009,-116.8262C948.5267,-109.212 861.0566,-94.1286 776.5496,-76.0088"/>
<polygon fill="#191970" stroke="#191970" points="777.0422,-72.5345 766.5285,-73.8425 775.5631,-79.3765 777.0422,-72.5345"/>
</g>
<!-- Node15 -->
<g id="node16" class="node">
<title>Node15</title>
<polygon fill="#ffffff" stroke="#bfbfbf" points="785,-56.5 785,-75.5 899,-75.5 899,-56.5 785,-56.5"/>
<text text-anchor="middle" x="842" y="-63.5" font-family="Helvetica,sans-Serif" font-size="10.00" fill="#000000">lwip/app/dhcpserver.h</text>
</g>
<!-- Node2&#45;&gt;Node15 -->
<g id="edge15" class="edge">
<title>Node2&#45;&gt;Node15</title>
<path fill="none" stroke="#191970" d="M994.3693,-112.3733C963.6404,-103.021 916.824,-88.7725 883.1978,-78.5385"/>
<polygon fill="#191970" stroke="#191970" points="883.8038,-75.0644 873.218,-75.5011 881.7656,-81.7612 883.8038,-75.0644"/>
</g>
<!-- Node16 -->
<g id="node17" class="node">
<title>Node16</title>
<polygon fill="#ffffff" stroke="#bfbfbf" points="917.5,-56.5 917.5,-75.5 976.5,-75.5 976.5,-56.5 917.5,-56.5"/>
<text text-anchor="middle" x="947" y="-63.5" font-family="Helvetica,sans-Serif" font-size="10.00" fill="#000000">lwip/opt.h</text>
</g>
<!-- Node2&#45;&gt;Node16 -->
<g id="edge16" class="edge">
<title>Node2&#45;&gt;Node16</title>
<path fill="none" stroke="#191970" d="M1012.2393,-112.2455C1000.3448,-103.814 982.935,-91.4729 969.0915,-81.6598"/>
<polygon fill="#191970" stroke="#191970" points="970.7854,-78.5704 960.6031,-75.6427 966.7372,-84.2811 970.7854,-78.5704"/>
</g>
<!-- Node17 -->
<g id="node18" class="node">
<title>Node17</title>
<polygon fill="#ffffff" stroke="#bfbfbf" points="994.5,-56.5 994.5,-75.5 1057.5,-75.5 1057.5,-56.5 994.5,-56.5"/>
<text text-anchor="middle" x="1026" y="-63.5" font-family="Helvetica,sans-Serif" font-size="10.00" fill="#000000">espconn.h</text>
</g>
<!-- Node2&#45;&gt;Node17 -->
<g id="edge17" class="edge">
<title>Node2&#45;&gt;Node17</title>
<path fill="none" stroke="#191970" d="M1026,-112.2455C1026,-104.9382 1026,-94.6944 1026,-85.7046"/>
<polygon fill="#191970" stroke="#191970" points="1029.5001,-85.6426 1026,-75.6427 1022.5001,-85.6427 1029.5001,-85.6426"/>
</g>
<!-- Node18 -->
<g id="node19" class="node">
<title>Node18</title>
<polygon fill="#ffffff" stroke="#bfbfbf" points="572.5,-.5 572.5,-19.5 631.5,-19.5 631.5,-.5 572.5,-.5"/>
<text text-anchor="middle" x="602" y="-7.5" font-family="Helvetica,sans-Serif" font-size="10.00" fill="#000000">ets_sys.h</text>
</g>
<!-- Node2&#45;&gt;Node18 -->
<g id="edge18" class="edge">
<title>Node2&#45;&gt;Node18</title>
<path fill="none" stroke="#191970" d="M994.4247,-121.5201C842.4209,-119.0595 192.1629,-106.7588 163,-76 156.8842,-69.5495 157.0511,-62.6048 163,-56 189.4961,-26.5825 459.2816,-14.6837 562.3061,-11.1895"/>
<polygon fill="#191970" stroke="#191970" points="562.4351,-14.6873 572.314,-10.8589 562.2039,-7.6911 562.4351,-14.6873"/>
</g>
<!-- Node19 -->
<g id="node20" class="node">
<title>Node19</title>
<polygon fill="#ffffff" stroke="#bfbfbf" points="1206,-56.5 1206,-75.5 1250,-75.5 1250,-56.5 1206,-56.5"/>
<text text-anchor="middle" x="1228" y="-63.5" font-family="Helvetica,sans-Serif" font-size="10.00" fill="#000000">gpio.h</text>
</g>
<!-- Node2&#45;&gt;Node19 -->
<g id="edge19" class="edge">
<title>Node2&#45;&gt;Node19</title>
<path fill="none" stroke="#191970" d="M1057.6474,-113.9848C1090.1201,-105.6513 1142.3114,-91.9561 1196.0058,-76.2012"/>
<polygon fill="#191970" stroke="#191970" points="1197.0902,-79.5305 1205.6897,-73.3418 1195.1079,-72.817 1197.0902,-79.5305"/>
</g>
<!-- Node20 -->
<g id="node21" class="node">
<title>Node20</title>
<polygon fill="#ffffff" stroke="#bfbfbf" points="1268.5,-56.5 1268.5,-75.5 1315.5,-75.5 1315.5,-56.5 1268.5,-56.5"/>
<text text-anchor="middle" x="1292" y="-63.5" font-family="Helvetica,sans-Serif" font-size="10.00" fill="#000000">mem.h</text>
</g>
<!-- Node2&#45;&gt;Node20 -->
<g id="edge20" class="edge">
<title>Node2&#45;&gt;Node20</title>
<path fill="none" stroke="#191970" d="M1057.8783,-116.7406C1101.1118,-109.3835 1180.8991,-95.0138 1258.3619,-75.9637"/>
<polygon fill="#191970" stroke="#191970" points="1259.4267,-79.3055 1268.2853,-73.4938 1257.736,-72.5127 1259.4267,-79.3055"/>
</g>
<!-- Node21 -->
<g id="node22" class="node">
<title>Node21</title>
<polygon fill="#ffffff" stroke="#bfbfbf" points="1333.5,-56.5 1333.5,-75.5 1382.5,-75.5 1382.5,-56.5 1333.5,-56.5"/>
<text text-anchor="middle" x="1358" y="-63.5" font-family="Helvetica,sans-Serif" font-size="10.00" fill="#000000">osapi.h</text>
</g>
<!-- Node2&#45;&gt;Node21 -->
<g id="edge21" class="edge">
<title>Node2&#45;&gt;Node21</title>
<path fill="none" stroke="#191970" d="M1057.5763,-118.5254C1110.55,-112.3954 1220.7767,-98.3533 1323.3196,-75.9018"/>
<polygon fill="#191970" stroke="#191970" points="1324.2141,-79.2884 1333.2169,-73.7028 1322.6958,-72.4551 1324.2141,-79.2884"/>
</g>
<!-- Node22 -->
<g id="node23" class="node">
<title>Node22</title>
<polygon fill="#ffffff" stroke="#bfbfbf" points="1731,-56.5 1731,-75.5 1819,-75.5 1819,-56.5 1731,-56.5"/>
<text text-anchor="middle" x="1775" y="-63.5" font-family="Helvetica,sans-Serif" font-size="10.00" fill="#000000">user_interface.h</text>
</g>
<!-- Node2&#45;&gt;Node22 -->
<g id="edge22" class="edge">
<title>Node2&#45;&gt;Node22</title>
<path fill="none" stroke="#191970" d="M1057.6935,-121.2642C1155.1575,-118.7147 1459.1648,-108.6223 1720.7476,-76.0176"/>
<polygon fill="#191970" stroke="#191970" points="1721.3328,-79.4716 1730.8167,-74.7486 1720.4575,-72.5265 1721.3328,-79.4716"/>
</g>
<!-- Node23 -->
<g id="node24" class="node">
<title>Node23</title>
<polygon fill="#ffffff" stroke="#bfbfbf" points="1401,-56.5 1401,-75.5 1463,-75.5 1463,-56.5 1401,-56.5"/>
<text text-anchor="middle" x="1432" y="-63.5" font-family="Helvetica,sans-Serif" font-size="10.00" fill="#000000">upgrade.h</text>
</g>
<!-- Node2&#45;&gt;Node23 -->
<g id="edge23" class="edge">
<title>Node2&#45;&gt;Node23</title>
<path fill="none" stroke="#191970" d="M1057.9224,-119.2104C1119.9914,-113.5221 1261.4103,-99.2695 1390.6642,-75.8611"/>
<polygon fill="#191970" stroke="#191970" points="1391.5354,-79.2597 1400.7398,-74.0129 1390.2724,-72.3746 1391.5354,-79.2597"/>
</g>
<!-- Node24 -->
<g id="node25" class="node">
<title>Node24</title>
<g id="a_node25"><a xlink:href="platform_8h.html" target="_top" xlink:title="platform.h">
<polygon fill="#ffffff" stroke="#000000" points="1481.5,-56.5 1481.5,-75.5 1542.5,-75.5 1542.5,-56.5 1481.5,-56.5"/>
<text text-anchor="middle" x="1512" y="-63.5" font-family="Helvetica,sans-Serif" font-size="10.00" fill="#000000">platform.h</text>
</a>
</g>
</g>
<!-- Node2&#45;&gt;Node24 -->
<g id="edge24" class="edge">
<title>Node2&#45;&gt;Node24</title>
<path fill="none" stroke="#191970" d="M1057.5744,-120.2908C1129.3361,-116.0767 1310.2737,-103.5944 1471.0156,-75.947"/>
<polygon fill="#191970" stroke="#191970" points="1471.8346,-79.3571 1481.0843,-74.1905 1470.6315,-72.4613 1471.8346,-79.3571"/>
</g>
<!-- Node25 -->
<g id="node26" class="node">
<title>Node25</title>
<g id="a_node26"><a xlink:href="espmissingincludes_8h.html" target="_top" xlink:title="espmissingincludes.h">
<polygon fill="#ffffff" stroke="#000000" points="1076,-56.5 1076,-75.5 1188,-75.5 1188,-56.5 1076,-56.5"/>
<text text-anchor="middle" x="1132" y="-63.5" font-family="Helvetica,sans-Serif" font-size="10.00" fill="#000000">espmissingincludes.h</text>
</a>
</g>
</g>
<!-- Node2&#45;&gt;Node25 -->
<g id="edge25" class="edge">
<title>Node2&#45;&gt;Node25</title>
<path fill="none" stroke="#191970" d="M1044.4638,-112.2455C1061.1074,-103.4527 1085.7993,-90.4079 1104.7192,-80.4125"/>
<polygon fill="#191970" stroke="#191970" points="1106.5408,-83.4086 1113.7478,-75.6427 1103.2709,-77.2193 1106.5408,-83.4086"/>
</g>
<!-- Node25&#45;&gt;Node7 -->
<g id="edge27" class="edge">
<title>Node25&#45;&gt;Node7</title>
<path fill="none" stroke="#191970" d="M1188.0041,-57.2739C1191.0458,-56.8344 1194.0595,-56.4069 1197,-56 1318.4852,-39.1879 1462.6079,-22.3304 1531.0635,-14.5099"/>
<polygon fill="#191970" stroke="#191970" points="1531.8461,-17.9435 1541.3855,-13.3338 1531.0535,-10.9885 1531.8461,-17.9435"/>
</g>
<!-- Node25&#45;&gt;Node18 -->
<g id="edge29" class="edge">
<title>Node25&#45;&gt;Node18</title>
<path fill="none" stroke="#191970" d="M1075.8579,-57.2923C1072.5248,-56.8379 1069.2198,-56.4033 1066,-56 909.3742,-36.3839 722.1455,-19.9624 641.8066,-13.2498"/>
<polygon fill="#191970" stroke="#191970" points="641.8999,-9.7456 631.6443,-12.405 641.3199,-16.7215 641.8999,-9.7456"/>
</g>
<!-- Node26 -->
<g id="node27" class="node">
<title>Node26</title>
<polygon fill="#ffffff" stroke="#bfbfbf" points="1068.5,-.5 1068.5,-19.5 1117.5,-19.5 1117.5,-.5 1068.5,-.5"/>
<text text-anchor="middle" x="1093" y="-7.5" font-family="Helvetica,sans-Serif" font-size="10.00" fill="#000000">stdint.h</text>
</g>
<!-- Node25&#45;&gt;Node26 -->
<g id="edge26" class="edge">
<title>Node25&#45;&gt;Node26</title>
<path fill="none" stroke="#191970" d="M1125.2067,-56.2455C1119.7822,-48.4564 1112.0339,-37.3308 1105.4967,-27.9439"/>
<polygon fill="#191970" stroke="#191970" points="1108.3025,-25.8485 1099.7154,-19.6427 1102.5583,-29.849 1108.3025,-25.8485"/>
</g>
<!-- Node27 -->
<g id="node28" class="node">
<title>Node27</title>
<polygon fill="#ffffff" stroke="#bfbfbf" points="1136,-.5 1136,-19.5 1206,-19.5 1206,-.5 1136,-.5"/>
<text text-anchor="middle" x="1171" y="-7.5" font-family="Helvetica,sans-Serif" font-size="10.00" fill="#000000">eagle_soc.h</text>
</g>
<!-- Node25&#45;&gt;Node27 -->
<g id="edge28" class="edge">
<title>Node25&#45;&gt;Node27</title>
<path fill="none" stroke="#191970" d="M1138.7933,-56.2455C1144.2178,-48.4564 1151.9661,-37.3308 1158.5033,-27.9439"/>
<polygon fill="#191970" stroke="#191970" points="1161.4417,-29.849 1164.2846,-19.6427 1155.6975,-25.8485 1161.4417,-29.849"/>
</g>
<!-- Node28&#45;&gt;Node22 -->
<g id="edge34" class="edge">
<title>Node28&#45;&gt;Node22</title>
<path fill="none" stroke="#191970" d="M1802.9969,-280.2243C1800.2644,-270.9765 1796.3147,-256.6655 1794,-244 1783.6043,-187.117 1778.2832,-118.8918 1776.1517,-85.8598"/>
<polygon fill="#191970" stroke="#191970" points="1779.6355,-85.4861 1775.5277,-75.72 1772.6487,-85.9162 1779.6355,-85.4861"/>
</g>
<!-- Node29 -->
<g id="node30" class="node">
<title>Node29</title>
<g id="a_node30"><a xlink:href="mqtt__msg_8h.html" target="_top" xlink:title="mqtt_msg.h">
<polygon fill="#ffffff" stroke="#000000" points="1803.5,-224.5 1803.5,-243.5 1872.5,-243.5 1872.5,-224.5 1803.5,-224.5"/>
<text text-anchor="middle" x="1838" y="-231.5" font-family="Helvetica,sans-Serif" font-size="10.00" fill="#000000">mqtt_msg.h</text>
</a>
</g>
</g>
<!-- Node28&#45;&gt;Node29 -->
<g id="edge31" class="edge">
<title>Node28&#45;&gt;Node29</title>
<path fill="none" stroke="#191970" d="M1811.574,-280.2455C1815.9331,-272.617 1822.1211,-261.7881 1827.4133,-252.5267"/>
<polygon fill="#191970" stroke="#191970" points="1830.5673,-254.0616 1832.4899,-243.6427 1824.4896,-250.5886 1830.5673,-254.0616"/>
</g>
<!-- Node31 -->
<g id="node32" class="node">
<title>Node31</title>
<g id="a_node32"><a xlink:href="queue_8h.html" target="_top" xlink:title="queue.h">
<polygon fill="#ffffff" stroke="#000000" points="1692.5,-224.5 1692.5,-243.5 1745.5,-243.5 1745.5,-224.5 1692.5,-224.5"/>
<text text-anchor="middle" x="1719" y="-231.5" font-family="Helvetica,sans-Serif" font-size="10.00" fill="#000000">queue.h</text>
</a>
</g>
</g>
<!-- Node28&#45;&gt;Node31 -->
<g id="edge35" class="edge">
<title>Node28&#45;&gt;Node31</title>
<path fill="none" stroke="#191970" d="M1790.8458,-280.2455C1777.4973,-271.6534 1757.8414,-259.0014 1742.4617,-249.1018"/>
<polygon fill="#191970" stroke="#191970" points="1744.2836,-246.1121 1733.9806,-243.6427 1740.4949,-251.9982 1744.2836,-246.1121"/>
</g>
<!-- Node29&#45;&gt;Node7 -->
<g id="edge33" class="edge">
<title>Node29&#45;&gt;Node7</title>
<path fill="none" stroke="#191970" d="M1841.0712,-224.3857C1849.8139,-194.9554 1871.5083,-105.1187 1828,-56 1799.9573,-24.3411 1676.2363,-14.3948 1611.2275,-11.3288"/>
<polygon fill="#191970" stroke="#191970" points="1611.0865,-7.8194 1600.9429,-10.8782 1610.78,-14.8126 1611.0865,-7.8194"/>
</g>
<!-- Node29&#45;&gt;Node30 -->
<g id="edge32" class="edge">
<title>Node29&#45;&gt;Node30</title>
<path fill="none" stroke="#191970" d="M1851.2382,-224.2455C1862.681,-215.814 1879.4296,-203.4729 1892.7475,-193.6598"/>
<polygon fill="#191970" stroke="#191970" points="1894.9391,-196.3924 1900.9135,-187.6427 1890.7867,-190.757 1894.9391,-196.3924"/>
</g>
<!-- Node32 -->
<g id="node33" class="node">
<title>Node32</title>
<polygon fill="#ffffff" stroke="#bfbfbf" points="1613,-168.5 1613,-187.5 1673,-187.5 1673,-168.5 1613,-168.5"/>
<text text-anchor="middle" x="1643" y="-175.5" font-family="Helvetica,sans-Serif" font-size="10.00" fill="#000000">os_type.h</text>
</g>
<!-- Node31&#45;&gt;Node32 -->
<g id="edge36" class="edge">
<title>Node31&#45;&gt;Node32</title>
<path fill="none" stroke="#191970" d="M1705.7618,-224.2455C1694.319,-215.814 1677.5704,-203.4729 1664.2525,-193.6598"/>
<polygon fill="#191970" stroke="#191970" points="1666.2133,-190.757 1656.0865,-187.6427 1662.0609,-196.3924 1666.2133,-190.757"/>
</g>
<!-- Node33 -->
<g id="node34" class="node">
<title>Node33</title>
<g id="a_node34"><a xlink:href="ringbuf_8h.html" target="_top" xlink:title="ringbuf.h">
<polygon fill="#ffffff" stroke="#000000" points="1691.5,-168.5 1691.5,-187.5 1746.5,-187.5 1746.5,-168.5 1691.5,-168.5"/>
<text text-anchor="middle" x="1719" y="-175.5" font-family="Helvetica,sans-Serif" font-size="10.00" fill="#000000">ringbuf.h</text>
</a>
</g>
</g>
<!-- Node31&#45;&gt;Node33 -->
<g id="edge37" class="edge">
<title>Node31&#45;&gt;Node33</title>
<path fill="none" stroke="#191970" d="M1719,-224.2455C1719,-216.9382 1719,-206.6944 1719,-197.7046"/>
<polygon fill="#191970" stroke="#191970" points="1722.5001,-197.6426 1719,-187.6427 1715.5001,-197.6427 1722.5001,-197.6426"/>
</g>
<!-- Node33&#45;&gt;Node2 -->
<g id="edge38" class="edge">
<title>Node33&#45;&gt;Node2</title>
<path fill="none" stroke="#191970" d="M1691.2478,-169.8796C1688.1465,-169.1575 1685.0183,-168.5088 1682,-168 1563.036,-147.948 1193.4095,-129.6534 1068.0659,-123.8806"/>
<polygon fill="#191970" stroke="#191970" points="1067.8906,-120.369 1057.741,-123.408 1067.5705,-127.3617 1067.8906,-120.369"/>
</g>
<!-- Node34 -->
<g id="node35" class="node">
<title>Node34</title>
<g id="a_node35"><a xlink:href="typedef_8h.html" target="_top" xlink:title="typedef.h">
<polygon fill="#ffffff" stroke="#000000" points="1689,-112.5 1689,-131.5 1747,-131.5 1747,-112.5 1689,-112.5"/>
<text text-anchor="middle" x="1718" y="-119.5" font-family="Helvetica,sans-Serif" font-size="10.00" fill="#000000">typedef.h</text>
</a>
</g>
</g>
<!-- Node33&#45;&gt;Node34 -->
<g id="edge39" class="edge">
<title>Node33&#45;&gt;Node34</title>
<path fill="none" stroke="#191970" d="M1718.8258,-168.2455C1718.6953,-160.9382 1718.5124,-150.6944 1718.3519,-141.7046"/>
<polygon fill="#191970" stroke="#191970" points="1721.8503,-141.5786 1718.1722,-131.6427 1714.8514,-141.7036 1721.8503,-141.5786"/>
</g>
<!-- Node35&#45;&gt;Node30 -->
<g id="edge41" class="edge">
<title>Node35&#45;&gt;Node30</title>
<path fill="none" stroke="#191970" d="M1950.0299,-280.2305C1939.953,-271.8328 1926.6147,-258.7654 1920,-244 1913.5321,-229.5624 1912.2812,-211.5938 1912.509,-198.0524"/>
<polygon fill="#191970" stroke="#191970" points="1916.013,-198.0408 1912.9661,-187.8935 1909.0201,-197.7261 1916.013,-198.0408"/>
</g>
<!-- Node36 -->
<g id="node37" class="node">
<title>Node36</title>
<g id="a_node37"><a xlink:href="cron_8h.html" target="_top" xlink:title="cron/cron.h">
<polygon fill="#ffffff" stroke="#000000" points="1929.5,-224.5 1929.5,-243.5 1996.5,-243.5 1996.5,-224.5 1929.5,-224.5"/>
<text text-anchor="middle" x="1963" y="-231.5" font-family="Helvetica,sans-Serif" font-size="10.00" fill="#000000">cron/cron.h</text>
</a>
</g>
</g>
<!-- Node35&#45;&gt;Node36 -->
<g id="edge42" class="edge">
<title>Node35&#45;&gt;Node36</title>
<path fill="none" stroke="#191970" d="M1963,-280.2455C1963,-272.9382 1963,-262.6944 1963,-253.7046"/>
<polygon fill="#191970" stroke="#191970" points="1966.5001,-253.6426 1963,-243.6427 1959.5001,-253.6427 1966.5001,-253.6426"/>
</g>
<!-- Node40 -->
<g id="node41" class="node">
<title>Node40</title>
<polygon fill="#ffffff" stroke="#bfbfbf" points="2225.5,-224.5 2225.5,-243.5 2278.5,-243.5 2278.5,-224.5 2225.5,-224.5"/>
<text text-anchor="middle" x="2252" y="-231.5" font-family="Helvetica,sans-Serif" font-size="10.00" fill="#000000">stdarg.h</text>
</g>
<!-- Node39&#45;&gt;Node40 -->
<g id="edge47" class="edge">
<title>Node39&#45;&gt;Node40</title>
<path fill="none" stroke="#191970" d="M2219.7933,-280.2455C2225.2178,-272.4564 2232.9661,-261.3308 2239.5033,-251.9439"/>
<polygon fill="#191970" stroke="#191970" points="2242.4417,-253.849 2245.2846,-243.6427 2236.6975,-249.8485 2242.4417,-253.849"/>
</g>
<!-- Node41 -->
<g id="node42" class="node">
<title>Node41</title>
<polygon fill="#ffffff" stroke="#bfbfbf" points="2140.5,-224.5 2140.5,-243.5 2207.5,-243.5 2207.5,-224.5 2140.5,-224.5"/>
<text text-anchor="middle" x="2174" y="-231.5" font-family="Helvetica,sans-Serif" font-size="10.00" fill="#000000">sys/types.h</text>
</g>
<!-- Node39&#45;&gt;Node41 -->
<g id="edge48" class="edge">
<title>Node39&#45;&gt;Node41</title>
<path fill="none" stroke="#191970" d="M2206.2067,-280.2455C2200.7822,-272.4564 2193.0339,-261.3308 2186.4967,-251.9439"/>
<polygon fill="#191970" stroke="#191970" points="2189.3025,-249.8485 2180.7154,-243.6427 2183.5583,-253.849 2189.3025,-249.8485"/>
</g>
<!-- Node42&#45;&gt;Node42 -->
<g id="edge50" class="edge">
<title>Node42&#45;&gt;Node42</title>
<path fill="none" stroke="#191970" d="M2349.3479,-299.5252C2370.6479,-302.3079 2391.5,-299.1328 2391.5,-290 2391.5,-282.3655 2376.9288,-278.8943 2359.7052,-279.5863"/>
<polygon fill="#191970" stroke="#191970" points="2359.0121,-276.1328 2349.3479,-280.4748 2359.6105,-283.1072 2359.0121,-276.1328"/>
</g>
</g>
</svg>
