<?xml version="1.0" encoding="UTF-8" standalone="no"?>
<!DOCTYPE svg PUBLIC "-//W3C//DTD SVG 1.1//EN"
 "http://www.w3.org/Graphics/SVG/1.1/DTD/svg11.dtd">
<!-- Generated by graphviz version 2.39.20160927.1334 (20160927.1334)
 -->
<!-- Title: cfg_load Pages: 1 -->
<svg width="450pt" height="104pt"
 viewBox="0.00 0.00 450.00 104.00" xmlns="http://www.w3.org/2000/svg" xmlns:xlink="http://www.w3.org/1999/xlink">
<g id="graph0" class="graph" transform="scale(1 1) rotate(0) translate(4 100)">
<title>cfg_load</title>
<polygon fill="#ffffff" stroke="transparent" points="-4,4 -4,-100 446,-100 446,4 -4,4"/>
<!-- Node1 -->
<g id="node1" class="node">
<title>Node1</title>
<polygon fill="#bfbfbf" stroke="#000000" points="0,-38.5 0,-57.5 54,-57.5 54,-38.5 0,-38.5"/>
<text text-anchor="middle" x="27" y="-45.5" font-family="Helvetica,sans-Serif" font-size="10.00" fill="#000000">cfg_load</text>
</g>
<!-- Node2 -->
<g id="node2" class="node">
<title>Node2</title>
<g id="a_node2"><a xlink:href="user__main_8c.html#a245ec00253f410a8804988bf40e1037e" target="_top" xlink:title="sample_mode_timer_func">
<polygon fill="#ffffff" stroke="#000000" points="90,-76.5 90,-95.5 222,-95.5 222,-76.5 90,-76.5"/>
<text text-anchor="middle" x="156" y="-83.5" font-family="Helvetica,sans-Serif" font-size="10.00" fill="#000000">sample_mode_timer_func</text>
</a>
</g>
</g>
<!-- Node1&#45;&gt;Node2 -->
<g id="edge1" class="edge">
<title>Node1&#45;&gt;Node2</title>
<path fill="none" stroke="#191970" d="M63.77,-58.8315C82.6022,-64.379 105.33,-71.074 123.512,-76.4298"/>
<polygon fill="#191970" stroke="#191970" points="64.6241,-55.4344 54.0426,-55.966 62.6461,-62.1492 64.6241,-55.4344"/>
</g>
<!-- Node4 -->
<g id="node4" class="node">
<title>Node4</title>
<g id="a_node4"><a xlink:href="user__main_8h.html#a33113d6dedb440bd7dfa5576e325140c" target="_top" xlink:title="user_init">
<polygon fill="#ffffff" stroke="#000000" points="388,-57.5 388,-76.5 442,-76.5 442,-57.5 388,-57.5"/>
<text text-anchor="middle" x="415" y="-64.5" font-family="Helvetica,sans-Serif" font-size="10.00" fill="#000000">user_init</text>
</a>
</g>
</g>
<!-- Node1&#45;&gt;Node4 -->
<g id="edge5" class="edge">
<title>Node1&#45;&gt;Node4</title>
<path fill="none" stroke="#191970" d="M64.5875,-49.8406C142.443,-53.6532 319.739,-62.3352 387.747,-65.6654"/>
<polygon fill="#191970" stroke="#191970" points="64.4427,-46.3294 54.2834,-49.336 64.1002,-53.3211 64.4427,-46.3294"/>
</g>
<!-- Node5 -->
<g id="node5" class="node">
<title>Node5</title>
<g id="a_node5"><a xlink:href="cgiwifi_8h.html#ace460e5ac8fd74afa8616bfc82561b26" target="_top" xlink:title="tplSetup">
<polygon fill="#ffffff" stroke="#000000" points="129.5,-0.5 129.5,-19.5 182.5,-19.5 182.5,-0.5 129.5,-0.5"/>
<text text-anchor="middle" x="156" y="-7.5" font-family="Helvetica,sans-Serif" font-size="10.00" fill="#000000">tplSetup</text>
</a>
</g>
</g>
<!-- Node1&#45;&gt;Node5 -->
<g id="edge4" class="edge">
<title>Node1&#45;&gt;Node5</title>
<path fill="none" stroke="#191970" d="M63.8783,-37.1366C84.7992,-30.9739 110.5,-23.4031 129.435,-17.8254"/>
<polygon fill="#191970" stroke="#191970" points="62.6461,-33.8508 54.0426,-40.034 64.6241,-40.5656 62.6461,-33.8508"/>
</g>
<!-- Node3 -->
<g id="node3" class="node">
<title>Node3</title>
<g id="a_node3"><a xlink:href="user__main_8h.html#a3671381db669a16e8f6a4bf3dfb9a441" target="_top" xlink:title="system_init_done">
<polygon fill="#ffffff" stroke="#000000" points="258,-76.5 258,-95.5 352,-95.5 352,-76.5 258,-76.5"/>
<text text-anchor="middle" x="305" y="-83.5" font-family="Helvetica,sans-Serif" font-size="10.00" fill="#000000">system_init_done</text>
</a>
</g>
</g>
<!-- Node2&#45;&gt;Node3 -->
<g id="edge2" class="edge">
<title>Node2&#45;&gt;Node3</title>
<path fill="none" stroke="#191970" d="M232.361,-86C241.009,-86 249.624,-86 257.739,-86"/>
<polygon fill="#191970" stroke="#191970" points="232.221,-82.5001 222.221,-86 232.221,-89.5001 232.221,-82.5001"/>
</g>
<!-- Node3&#45;&gt;Node4 -->
<g id="edge3" class="edge">
<title>Node3&#45;&gt;Node4</title>
<path fill="none" stroke="#191970" d="M362.289,-76.1047C371.16,-74.5724 379.952,-73.0538 387.738,-71.7088"/>
<polygon fill="#191970" stroke="#191970" points="361.547,-72.6809 352.288,-77.832 362.738,-79.5788 361.547,-72.6809"/>
</g>
</g>
</svg>
