<?xml version="1.0" encoding="UTF-8" standalone="no"?>
<!DOCTYPE svg PUBLIC "-//W3C//DTD SVG 1.1//EN"
 "http://www.w3.org/Graphics/SVG/1.1/DTD/svg11.dtd">
<!-- Generated by graphviz version 2.40.1 (20161225.0304)
 -->
<!-- Title: cfg_load Pages: 1 -->
<svg width="656pt" height="408pt"
 viewBox="0.00 0.00 656.00 408.00" xmlns="http://www.w3.org/2000/svg" xmlns:xlink="http://www.w3.org/1999/xlink">
<g id="graph0" class="graph" transform="scale(1 1) rotate(0) translate(4 404)">
<title>cfg_load</title>
<polygon fill="#ffffff" stroke="transparent" points="-4,4 -4,-404 652,-404 652,4 -4,4"/>
<!-- Node0 -->
<g id="node1" class="node">
<title>Node0</title>
<polygon fill="#bfbfbf" stroke="#000000" points="0,-266.5 0,-285.5 54,-285.5 54,-266.5 0,-266.5"/>
<text text-anchor="middle" x="27" y="-273.5" font-family="Helvetica,sans-Serif" font-size="10.00" fill="#000000">cfg_load</text>
</g>
<!-- Node1 -->
<g id="node2" class="node">
<title>Node1</title>
<g id="a_node2"><a xlink:href="utils_8c.html#a8d9e1de95e2d6d103108a4b0ebf4d923" target="_top" xlink:title="ccit_crc16">
<polygon fill="#ffffff" stroke="#000000" points="268,-380.5 268,-399.5 330,-399.5 330,-380.5 268,-380.5"/>
<text text-anchor="middle" x="299" y="-387.5" font-family="Helvetica,sans-Serif" font-size="10.00" fill="#000000">ccit_crc16</text>
</a>
</g>
</g>
<!-- Node0&#45;&gt;Node1 -->
<g id="edge1" class="edge">
<title>Node0&#45;&gt;Node1</title>
<path fill="none" stroke="#191970" d="M31.28,-285.524C39.7258,-303.1058 60.3265,-340.4616 90,-358 141.9281,-388.6919 213.3062,-393.1667 257.7682,-392.4357"/>
<polygon fill="#191970" stroke="#191970" points="258.0137,-395.9306 267.9188,-392.1704 257.8307,-388.933 258.0137,-395.9306"/>
</g>
<!-- Node2 -->
<g id="node3" class="node">
<title>Node2</title>
<g id="a_node3"><a xlink:href="config_8c.html#acd3c633ba5f49d7bb46d6e4efa31ddb2" target="_top" xlink:title="cfg_save">
<polygon fill="#ffffff" stroke="#000000" points="115,-304.5 115,-323.5 172,-323.5 172,-304.5 115,-304.5"/>
<text text-anchor="middle" x="143.5" y="-311.5" font-family="Helvetica,sans-Serif" font-size="10.00" fill="#000000">cfg_save</text>
</a>
</g>
</g>
<!-- Node0&#45;&gt;Node2 -->
<g id="edge2" class="edge">
<title>Node0&#45;&gt;Node2</title>
<path fill="none" stroke="#191970" d="M54.0203,-284.8135C69.0496,-289.7158 88.0171,-295.9026 104.6167,-301.317"/>
<polygon fill="#191970" stroke="#191970" points="103.9976,-304.7965 114.59,-304.5701 106.1683,-298.1416 103.9976,-304.7965"/>
</g>
<!-- Node3 -->
<g id="node4" class="node">
<title>Node3</title>
<g id="a_node4"><a xlink:href="ext__spi__flash_8c.html#a094d4588aff8210b1bb94ae90fb58526" target="_top" xlink:title="ext_spi_flash_read">
<polygon fill="#ffffff" stroke="#000000" points="249,-342.5 249,-361.5 349,-361.5 349,-342.5 249,-342.5"/>
<text text-anchor="middle" x="299" y="-349.5" font-family="Helvetica,sans-Serif" font-size="10.00" fill="#000000">ext_spi_flash_read</text>
</a>
</g>
</g>
<!-- Node0&#45;&gt;Node3 -->
<g id="edge11" class="edge">
<title>Node0&#45;&gt;Node3</title>
<path fill="none" stroke="#191970" d="M34.2847,-285.7151C44.8886,-299.0208 65.9534,-322.4613 90,-333 136.9582,-353.58 195.4417,-357.2759 238.5916,-356.4313"/>
<polygon fill="#191970" stroke="#191970" points="238.7627,-359.9279 248.6599,-356.147 238.5651,-352.9307 238.7627,-359.9279"/>
</g>
<!-- Node8 -->
<g id="node9" class="node">
<title>Node8</title>
<g id="a_node9"><a xlink:href="espmissingincludes_8h.html#a0bbba7104c948de849f8051d9ac956e3" target="_top" xlink:title="os_printf">
<polygon fill="#ffffff" stroke="#000000" points="116,-266.5 116,-285.5 171,-285.5 171,-266.5 116,-266.5"/>
<text text-anchor="middle" x="143.5" y="-273.5" font-family="Helvetica,sans-Serif" font-size="10.00" fill="#000000">os_printf</text>
</a>
</g>
</g>
<!-- Node0&#45;&gt;Node8 -->
<g id="edge12" class="edge">
<title>Node0&#45;&gt;Node8</title>
<path fill="none" stroke="#191970" d="M54.0203,-276C69.3836,-276 88.862,-276 105.7198,-276"/>
<polygon fill="#191970" stroke="#191970" points="105.8173,-279.5001 115.8173,-276 105.8172,-272.5001 105.8173,-279.5001"/>
</g>
<!-- Node9 -->
<g id="node10" class="node">
<title>Node9</title>
<g id="a_node10"><a xlink:href="user__interface_8h.html#a86228f8d572c91ec871684121dad0647" target="_top" xlink:title="system_get_chip_id">
<polygon fill="#ffffff" stroke="#000000" points="91,-228.5 91,-247.5 196,-247.5 196,-228.5 91,-228.5"/>
<text text-anchor="middle" x="143.5" y="-235.5" font-family="Helvetica,sans-Serif" font-size="10.00" fill="#000000">system_get_chip_id</text>
</a>
</g>
</g>
<!-- Node0&#45;&gt;Node9 -->
<g id="edge13" class="edge">
<title>Node0&#45;&gt;Node9</title>
<path fill="none" stroke="#191970" d="M54.0203,-267.1865C68.9383,-262.3205 87.7363,-256.189 104.2475,-250.8034"/>
<polygon fill="#191970" stroke="#191970" points="105.7557,-253.993 114.1773,-247.5645 103.5849,-247.3381 105.7557,-253.993"/>
</g>
<!-- Node10 -->
<g id="node11" class="node">
<title>Node10</title>
<g id="a_node11"><a xlink:href="user__interface_8h.html#a753aade115708d360f25bff422ef1f55" target="_top" xlink:title="system_param_load">
<polygon fill="#ffffff" stroke="#000000" points="90,-190.5 90,-209.5 197,-209.5 197,-190.5 90,-190.5"/>
<text text-anchor="middle" x="143.5" y="-197.5" font-family="Helvetica,sans-Serif" font-size="10.00" fill="#000000">system_param_load</text>
</a>
</g>
</g>
<!-- Node0&#45;&gt;Node10 -->
<g id="edge14" class="edge">
<title>Node0&#45;&gt;Node10</title>
<path fill="none" stroke="#191970" d="M35.4683,-266.2521C46.7796,-253.7623 67.9654,-232.1586 90,-219 93.3784,-216.9825 97.0041,-215.1322 100.7179,-213.446"/>
<polygon fill="#191970" stroke="#191970" points="102.1367,-216.6468 110.0401,-209.5908 99.4616,-210.1781 102.1367,-216.6468"/>
</g>
<!-- Node11 -->
<g id="node12" class="node">
<title>Node11</title>
<g id="a_node12"><a xlink:href="tinyprintf_8c.html#a9738cbc6c538d210941db282e240c7d6" target="_top" xlink:title="tfp_snprintf">
<polygon fill="#ffffff" stroke="#000000" points="110.5,-152.5 110.5,-171.5 176.5,-171.5 176.5,-152.5 110.5,-152.5"/>
<text text-anchor="middle" x="143.5" y="-159.5" font-family="Helvetica,sans-Serif" font-size="10.00" fill="#000000">tfp_snprintf</text>
</a>
</g>
</g>
<!-- Node0&#45;&gt;Node11 -->
<g id="edge15" class="edge">
<title>Node0&#45;&gt;Node11</title>
<path fill="none" stroke="#191970" d="M30.8466,-266.4358C38.9543,-247.4432 59.5903,-204.7592 90,-181 93.3641,-178.3716 97.1213,-176.0888 101.0422,-174.1097"/>
<polygon fill="#191970" stroke="#191970" points="102.6221,-177.2389 110.3805,-170.0238 99.8161,-170.8259 102.6221,-177.2389"/>
</g>
<!-- Node2&#45;&gt;Node1 -->
<g id="edge3" class="edge">
<title>Node2&#45;&gt;Node1</title>
<path fill="none" stroke="#191970" d="M155.884,-323.5275C172.5798,-335.9765 203.6125,-357.7459 233,-371 240.8905,-374.5587 249.6131,-377.6269 258.0615,-380.1967"/>
<polygon fill="#191970" stroke="#191970" points="257.2096,-383.5934 267.7869,-382.984 259.1381,-376.8643 257.2096,-383.5934"/>
</g>
<!-- Node2&#45;&gt;Node3 -->
<g id="edge4" class="edge">
<title>Node2&#45;&gt;Node3</title>
<path fill="none" stroke="#191970" d="M172.0211,-320.9698C193.849,-326.3039 224.471,-333.7871 250.1743,-340.0683"/>
<polygon fill="#191970" stroke="#191970" points="249.5731,-343.5243 260.1181,-342.4983 251.2348,-336.7244 249.5731,-343.5243"/>
</g>
<!-- Node5 -->
<g id="node6" class="node">
<title>Node5</title>
<g id="a_node6"><a xlink:href="ext__spi__flash_8c.html#ab4369189179b556a6b8e2155433c5f70" target="_top" xlink:title="ext_spi_flash_erase\l_sector">
<polygon fill="#ffffff" stroke="#000000" points="246.5,-293 246.5,-323 351.5,-323 351.5,-293 246.5,-293"/>
<text text-anchor="start" x="254.5" y="-311" font-family="Helvetica,sans-Serif" font-size="10.00" fill="#000000">ext_spi_flash_erase</text>
<text text-anchor="middle" x="299" y="-300" font-family="Helvetica,sans-Serif" font-size="10.00" fill="#000000">_sector</text>
</a>
</g>
</g>
<!-- Node2&#45;&gt;Node5 -->
<g id="edge6" class="edge">
<title>Node2&#45;&gt;Node5</title>
<path fill="none" stroke="#191970" d="M172.0211,-312.8995C190.0411,-312.2042 214.0546,-311.2776 236.3463,-310.4175"/>
<polygon fill="#191970" stroke="#191970" points="236.5819,-313.9111 246.4395,-310.0281 236.312,-306.9163 236.5819,-313.9111"/>
</g>
<!-- Node6 -->
<g id="node7" class="node">
<title>Node6</title>
<g id="a_node7"><a xlink:href="ext__spi__flash_8c.html#a17e27ce44dd5aec4dd7a7de609093aae" target="_top" xlink:title="ext_spi_flash_write">
<polygon fill="#ffffff" stroke="#000000" points="248,-254.5 248,-273.5 350,-273.5 350,-254.5 248,-254.5"/>
<text text-anchor="middle" x="299" y="-261.5" font-family="Helvetica,sans-Serif" font-size="10.00" fill="#000000">ext_spi_flash_write</text>
</a>
</g>
</g>
<!-- Node2&#45;&gt;Node6 -->
<g id="edge8" class="edge">
<title>Node2&#45;&gt;Node6</title>
<path fill="none" stroke="#191970" d="M171.2487,-304.4664C188.8892,-298.4633 212.2353,-290.6247 233,-284 240.7849,-281.5163 249.1099,-278.9354 257.1337,-276.4857"/>
<polygon fill="#191970" stroke="#191970" points="258.1624,-279.8312 266.7151,-273.5779 256.1296,-273.1328 258.1624,-279.8312"/>
</g>
<!-- Node7 -->
<g id="node8" class="node">
<title>Node7</title>
<g id="a_node8"><a xlink:href="user__interface_8h.html#ae68a7b6345630e42fde3e827108571e0" target="_top" xlink:title="system_param_save_with\l_protect">
<polygon fill="#ffffff" stroke="#000000" points="233,-205 233,-235 365,-235 365,-205 233,-205"/>
<text text-anchor="start" x="241" y="-223" font-family="Helvetica,sans-Serif" font-size="10.00" fill="#000000">system_param_save_with</text>
<text text-anchor="middle" x="299" y="-212" font-family="Helvetica,sans-Serif" font-size="10.00" fill="#000000">_protect</text>
</a>
</g>
</g>
<!-- Node2&#45;&gt;Node7 -->
<g id="edge10" class="edge">
<title>Node2&#45;&gt;Node7</title>
<path fill="none" stroke="#191970" d="M172.0327,-307.3944C180.6045,-304.5161 189.6695,-300.5037 197,-295 218.898,-278.5591 211.2745,-261.6682 233,-245 235.324,-243.217 237.7895,-241.549 240.3498,-239.99"/>
<polygon fill="#191970" stroke="#191970" points="242.2348,-242.9492 249.3523,-235.1012 238.8942,-236.7978 242.2348,-242.9492"/>
</g>
<!-- Node4 -->
<g id="node5" class="node">
<title>Node4</title>
<g id="a_node5"><a xlink:href="spi_8c.html#acebb579091ca980f217d3e5f3bd1f1d5" target="_top" xlink:title="spi_transaction">
<polygon fill="#ffffff" stroke="#000000" points="402.5,-298.5 402.5,-317.5 486.5,-317.5 486.5,-298.5 402.5,-298.5"/>
<text text-anchor="middle" x="444.5" y="-305.5" font-family="Helvetica,sans-Serif" font-size="10.00" fill="#000000">spi_transaction</text>
</a>
</g>
</g>
<!-- Node3&#45;&gt;Node4 -->
<g id="edge5" class="edge">
<title>Node3&#45;&gt;Node4</title>
<path fill="none" stroke="#191970" d="M332.6224,-342.4921C343.018,-339.5064 354.4961,-336.163 365,-333 378.0086,-329.0828 392.17,-324.6758 404.8882,-320.6653"/>
<polygon fill="#191970" stroke="#191970" points="406.2512,-323.9051 414.7291,-317.5509 404.1391,-317.2314 406.2512,-323.9051"/>
</g>
<!-- Node5&#45;&gt;Node4 -->
<g id="edge7" class="edge">
<title>Node5&#45;&gt;Node4</title>
<path fill="none" stroke="#191970" d="M351.5288,-308C364.6317,-308 378.6851,-308 391.7964,-308"/>
<polygon fill="#191970" stroke="#191970" points="392.0732,-311.5001 402.0732,-308 392.0732,-304.5001 392.0732,-311.5001"/>
</g>
<!-- Node6&#45;&gt;Node4 -->
<g id="edge9" class="edge">
<title>Node6&#45;&gt;Node4</title>
<path fill="none" stroke="#191970" d="M330.5713,-273.5473C351.8306,-279.9763 380.0851,-288.5206 403.1375,-295.4918"/>
<polygon fill="#191970" stroke="#191970" points="402.4052,-298.9268 412.9903,-298.4713 404.4315,-292.2265 402.4052,-298.9268"/>
</g>
<!-- Node12 -->
<g id="node13" class="node">
<title>Node12</title>
<g id="a_node13"><a xlink:href="tinyprintf_8c.html#ac8c8a66133cf0d7009c0d73b55311a44" target="_top" xlink:title="tfp_vsnprintf">
<polygon fill="#ffffff" stroke="#000000" points="263.5,-152.5 263.5,-171.5 334.5,-171.5 334.5,-152.5 263.5,-152.5"/>
<text text-anchor="middle" x="299" y="-159.5" font-family="Helvetica,sans-Serif" font-size="10.00" fill="#000000">tfp_vsnprintf</text>
</a>
</g>
</g>
<!-- Node11&#45;&gt;Node12 -->
<g id="edge16" class="edge">
<title>Node11&#45;&gt;Node12</title>
<path fill="none" stroke="#191970" d="M176.8587,-162C199.1129,-162 228.6642,-162 253.125,-162"/>
<polygon fill="#191970" stroke="#191970" points="253.2604,-165.5001 263.2604,-162 253.2603,-158.5001 253.2604,-165.5001"/>
</g>
<!-- Node13 -->
<g id="node14" class="node">
<title>Node13</title>
<g id="a_node14"><a xlink:href="tinyprintf_8c.html#a5877e42444463efc71a91b5fe76a6145" target="_top" xlink:title="tfp_format">
<polygon fill="#ffffff" stroke="#000000" points="413.5,-133.5 413.5,-152.5 475.5,-152.5 475.5,-133.5 413.5,-133.5"/>
<text text-anchor="middle" x="444.5" y="-140.5" font-family="Helvetica,sans-Serif" font-size="10.00" fill="#000000">tfp_format</text>
</a>
</g>
</g>
<!-- Node12&#45;&gt;Node13 -->
<g id="edge17" class="edge">
<title>Node12&#45;&gt;Node13</title>
<path fill="none" stroke="#191970" d="M334.5933,-157.3521C355.2711,-154.6519 381.4234,-151.2368 403.0292,-148.4154"/>
<polygon fill="#191970" stroke="#191970" points="403.764,-151.8493 413.2266,-147.0838 402.8575,-144.9082 403.764,-151.8493"/>
</g>
<!-- Node23 -->
<g id="node24" class="node">
<title>Node23</title>
<g id="a_node24"><a xlink:href="tinyprintf_8c.html#a919051024b2d729e34a54648b3f2462d" target="_top" xlink:title="_vsnprintf_putcf">
<polygon fill="#ffffff" stroke="#000000" points="401,-171.5 401,-190.5 488,-190.5 488,-171.5 401,-171.5"/>
<text text-anchor="middle" x="444.5" y="-178.5" font-family="Helvetica,sans-Serif" font-size="10.00" fill="#000000">_vsnprintf_putcf</text>
</a>
</g>
</g>
<!-- Node12&#45;&gt;Node23 -->
<g id="edge30" class="edge">
<title>Node12&#45;&gt;Node23</title>
<path fill="none" stroke="#191970" d="M334.5933,-166.6479C351.5661,-168.8643 372.2272,-171.5623 391.035,-174.0183"/>
<polygon fill="#191970" stroke="#191970" points="390.5947,-177.4905 400.9638,-175.3149 391.5012,-170.5494 390.5947,-177.4905"/>
</g>
<!-- Node14 -->
<g id="node15" class="node">
<title>Node14</title>
<g id="a_node15"><a xlink:href="tinyprintf_8c.html#aa97593a5e53af85b608ad0910db92d77" target="_top" xlink:title="a2u">
<polygon fill="#ffffff" stroke="#000000" points="531.5,-266.5 531.5,-285.5 564.5,-285.5 564.5,-266.5 531.5,-266.5"/>
<text text-anchor="middle" x="548" y="-273.5" font-family="Helvetica,sans-Serif" font-size="10.00" fill="#000000">a2u</text>
</a>
</g>
</g>
<!-- Node13&#45;&gt;Node14 -->
<g id="edge18" class="edge">
<title>Node13&#45;&gt;Node14</title>
<path fill="none" stroke="#191970" d="M475.0089,-152.64C479.7753,-155.1314 484.3294,-158.2126 488,-162 517.9826,-192.9361 500.2841,-216.0339 524,-252 525.4759,-254.2383 527.1854,-256.4391 528.9987,-258.545"/>
<polygon fill="#191970" stroke="#191970" points="526.7807,-261.2884 536.2325,-266.0754 531.8289,-256.4391 526.7807,-261.2884"/>
</g>
<!-- Node16 -->
<g id="node17" class="node">
<title>Node16</title>
<g id="a_node17"><a xlink:href="tinyprintf_8c.html#abcf035dd576671b0cc897de9dd8c75b0" target="_top" xlink:title="ulli2a">
<polygon fill="#ffffff" stroke="#000000" points="608,-209.5 608,-228.5 648,-228.5 648,-209.5 608,-209.5"/>
<text text-anchor="middle" x="628" y="-216.5" font-family="Helvetica,sans-Serif" font-size="10.00" fill="#000000">ulli2a</text>
</a>
</g>
</g>
<!-- Node13&#45;&gt;Node16 -->
<g id="edge20" class="edge">
<title>Node13&#45;&gt;Node16</title>
<path fill="none" stroke="#191970" d="M473.0911,-152.5625C478.3885,-155.1176 483.6239,-158.2413 488,-162 510.7297,-181.5228 497.759,-204.5368 524,-219 546.422,-231.3583 575.9122,-230.0262 597.7615,-226.3783"/>
<polygon fill="#191970" stroke="#191970" points="598.6476,-229.7722 607.8093,-224.4513 597.3291,-222.8975 598.6476,-229.7722"/>
</g>
<!-- Node17 -->
<g id="node18" class="node">
<title>Node17</title>
<g id="a_node18"><a xlink:href="tinyprintf_8c.html#a1d61347854a8c290d59b4a21efcefd75" target="_top" xlink:title="uli2a">
<polygon fill="#ffffff" stroke="#000000" points="609,-123.5 609,-142.5 647,-142.5 647,-123.5 609,-123.5"/>
<text text-anchor="middle" x="628" y="-130.5" font-family="Helvetica,sans-Serif" font-size="10.00" fill="#000000">uli2a</text>
</a>
</g>
</g>
<!-- Node13&#45;&gt;Node17 -->
<g id="edge21" class="edge">
<title>Node13&#45;&gt;Node17</title>
<path fill="none" stroke="#191970" d="M475.7449,-144.5344C501.5985,-145.436 539.2571,-145.9005 572,-143 580.8122,-142.2194 590.3141,-140.7606 598.9439,-139.194"/>
<polygon fill="#191970" stroke="#191970" points="599.7766,-142.5979 608.933,-137.2677 598.4512,-135.7246 599.7766,-142.5979"/>
</g>
<!-- Node18 -->
<g id="node19" class="node">
<title>Node18</title>
<g id="a_node19"><a xlink:href="tinyprintf_8c.html#ac87ff66a592723f55692eaf8e3f19df8" target="_top" xlink:title="ui2a">
<polygon fill="#ffffff" stroke="#000000" points="610.5,-66.5 610.5,-85.5 645.5,-85.5 645.5,-66.5 610.5,-66.5"/>
<text text-anchor="middle" x="628" y="-73.5" font-family="Helvetica,sans-Serif" font-size="10.00" fill="#000000">ui2a</text>
</a>
</g>
</g>
<!-- Node13&#45;&gt;Node18 -->
<g id="edge22" class="edge">
<title>Node13&#45;&gt;Node18</title>
<path fill="none" stroke="#191970" d="M462.1102,-133.4882C477.9691,-125.1889 502.0859,-113.2213 524,-105 549.3727,-95.4812 579.2565,-87.4646 600.464,-82.2894"/>
<polygon fill="#191970" stroke="#191970" points="601.4923,-85.6424 610.4064,-79.9162 599.867,-78.8337 601.4923,-85.6424"/>
</g>
<!-- Node19 -->
<g id="node20" class="node">
<title>Node19</title>
<g id="a_node20"><a xlink:href="tinyprintf_8c.html#a6252dbfebb2c8783c4e3107d551082dd" target="_top" xlink:title="putchw">
<polygon fill="#ffffff" stroke="#000000" points="524,-.5 524,-19.5 572,-19.5 572,-.5 524,-.5"/>
<text text-anchor="middle" x="548" y="-7.5" font-family="Helvetica,sans-Serif" font-size="10.00" fill="#000000">putchw</text>
</a>
</g>
</g>
<!-- Node13&#45;&gt;Node19 -->
<g id="edge23" class="edge">
<title>Node13&#45;&gt;Node19</title>
<path fill="none" stroke="#191970" d="M449.8513,-133.4541C461.6065,-112.9604 491.2581,-63.7916 524,-29 524.7648,-28.1873 525.5657,-27.3801 526.3915,-26.5829"/>
<polygon fill="#191970" stroke="#191970" points="528.9434,-29.0023 534.1993,-19.803 524.3539,-23.7169 528.9434,-29.0023"/>
</g>
<!-- Node20 -->
<g id="node21" class="node">
<title>Node20</title>
<g id="a_node21"><a xlink:href="tinyprintf_8c.html#a49c6d2b3d4088012f2c1fe344eef69f3" target="_top" xlink:title="lli2a">
<polygon fill="#ffffff" stroke="#000000" points="531,-190.5 531,-209.5 565,-209.5 565,-190.5 531,-190.5"/>
<text text-anchor="middle" x="548" y="-197.5" font-family="Helvetica,sans-Serif" font-size="10.00" fill="#000000">lli2a</text>
</a>
</g>
</g>
<!-- Node13&#45;&gt;Node20 -->
<g id="edge24" class="edge">
<title>Node13&#45;&gt;Node20</title>
<path fill="none" stroke="#191970" d="M468.2901,-152.6104C474.7776,-155.4409 481.7406,-158.6759 488,-162 500.7614,-168.7771 514.4122,-177.3124 525.4641,-184.5761"/>
<polygon fill="#191970" stroke="#191970" points="523.799,-187.6726 534.0598,-190.312 527.6844,-181.85 523.799,-187.6726"/>
</g>
<!-- Node21 -->
<g id="node22" class="node">
<title>Node21</title>
<g id="a_node22"><a xlink:href="tinyprintf_8c.html#afebb7696337c3f599b5e8db35c560684" target="_top" xlink:title="li2a">
<polygon fill="#ffffff" stroke="#000000" points="532,-114.5 532,-133.5 564,-133.5 564,-114.5 532,-114.5"/>
<text text-anchor="middle" x="548" y="-121.5" font-family="Helvetica,sans-Serif" font-size="10.00" fill="#000000">li2a</text>
</a>
</g>
</g>
<!-- Node13&#45;&gt;Node21 -->
<g id="edge26" class="edge">
<title>Node13&#45;&gt;Node21</title>
<path fill="none" stroke="#191970" d="M475.5534,-137.2994C490.3576,-134.5817 507.8672,-131.3674 521.9639,-128.7796"/>
<polygon fill="#191970" stroke="#191970" points="522.7734,-132.1895 531.9771,-126.9414 521.5095,-125.3046 522.7734,-132.1895"/>
</g>
<!-- Node22 -->
<g id="node23" class="node">
<title>Node22</title>
<g id="a_node23"><a xlink:href="tinyprintf_8c.html#a90f9fd8f2133cda7f50be8d67823405c" target="_top" xlink:title="i2a">
<polygon fill="#ffffff" stroke="#000000" points="533,-38.5 533,-57.5 563,-57.5 563,-38.5 533,-38.5"/>
<text text-anchor="middle" x="548" y="-45.5" font-family="Helvetica,sans-Serif" font-size="10.00" fill="#000000">i2a</text>
</a>
</g>
</g>
<!-- Node13&#45;&gt;Node22 -->
<g id="edge28" class="edge">
<title>Node13&#45;&gt;Node22</title>
<path fill="none" stroke="#191970" d="M455.1865,-133.1911C472.8644,-116.965 508.3848,-84.3617 529.9921,-64.529"/>
<polygon fill="#191970" stroke="#191970" points="532.5254,-66.9546 537.5258,-57.614 527.7919,-61.7976 532.5254,-66.9546"/>
</g>
<!-- Node15 -->
<g id="node16" class="node">
<title>Node15</title>
<g id="a_node16"><a xlink:href="tinyprintf_8c.html#aa853a0c5ba64fa2546d488b86192e7e3" target="_top" xlink:title="a2d">
<polygon fill="#ffffff" stroke="#000000" points="611.5,-266.5 611.5,-285.5 644.5,-285.5 644.5,-266.5 611.5,-266.5"/>
<text text-anchor="middle" x="628" y="-273.5" font-family="Helvetica,sans-Serif" font-size="10.00" fill="#000000">a2d</text>
</a>
</g>
</g>
<!-- Node14&#45;&gt;Node15 -->
<g id="edge19" class="edge">
<title>Node14&#45;&gt;Node15</title>
<path fill="none" stroke="#191970" d="M564.5761,-276C575.1953,-276 589.2154,-276 601.373,-276"/>
<polygon fill="#191970" stroke="#191970" points="601.4452,-279.5001 611.4452,-276 601.4451,-272.5001 601.4452,-279.5001"/>
</g>
<!-- Node20&#45;&gt;Node16 -->
<g id="edge25" class="edge">
<title>Node20&#45;&gt;Node16</title>
<path fill="none" stroke="#191970" d="M565.3588,-204.1227C574.8312,-206.3724 586.8293,-209.222 597.7843,-211.8238"/>
<polygon fill="#191970" stroke="#191970" points="597.3132,-215.3092 607.8514,-214.2147 598.9308,-208.4986 597.3132,-215.3092"/>
</g>
<!-- Node21&#45;&gt;Node17 -->
<g id="edge27" class="edge">
<title>Node21&#45;&gt;Node17</title>
<path fill="none" stroke="#191970" d="M564.1892,-125.8213C574.0468,-126.9303 586.9377,-128.3805 598.5508,-129.687"/>
<polygon fill="#191970" stroke="#191970" points="598.4044,-133.1925 608.733,-130.8325 599.187,-126.2364 598.4044,-133.1925"/>
</g>
<!-- Node22&#45;&gt;Node18 -->
<g id="edge29" class="edge">
<title>Node22&#45;&gt;Node18</title>
<path fill="none" stroke="#191970" d="M563.0474,-53.2666C573.6188,-56.9666 588.0619,-62.0217 600.6443,-66.4255"/>
<polygon fill="#191970" stroke="#191970" points="599.6319,-69.7793 610.2268,-69.7794 601.9444,-63.1723 599.6319,-69.7793"/>
</g>
</g>
</svg>
