<?xml version="1.0" encoding="UTF-8" standalone="no"?>
<!DOCTYPE svg PUBLIC "-//W3C//DTD SVG 1.1//EN"
 "http://www.w3.org/Graphics/SVG/1.1/DTD/svg11.dtd">
<!-- Generated by graphviz version 2.40.1 (20161225.0304)
 -->
<!-- Title: modules/include/config.h Pages: 1 -->
<svg width="170pt" height="84pt"
 viewBox="0.00 0.00 170.00 84.00" xmlns="http://www.w3.org/2000/svg" xmlns:xlink="http://www.w3.org/1999/xlink">
<g id="graph0" class="graph" transform="scale(1 1) rotate(0) translate(4 80)">
<title>modules/include/config.h</title>
<polygon fill="#ffffff" stroke="transparent" points="-4,4 -4,-80 166,-80 166,4 -4,4"/>
<!-- Node0 -->
<g id="node1" class="node">
<title>Node0</title>
<polygon fill="#bfbfbf" stroke="#000000" points="20,-56.5 20,-75.5 147,-75.5 147,-56.5 20,-56.5"/>
<text text-anchor="middle" x="83.5" y="-63.5" font-family="Helvetica,sans-Serif" font-size="10.00" fill="#000000">modules/include/config.h</text>
</g>
<!-- Node1 -->
<g id="node2" class="node">
<title>Node1</title>
<polygon fill="#ffffff" stroke="#bfbfbf" points="0,-.5 0,-19.5 77,-19.5 77,-.5 0,-.5"/>
<text text-anchor="middle" x="38.5" y="-7.5" font-family="Helvetica,sans-Serif" font-size="10.00" fill="#000000">user_config.h</text>
</g>
<!-- Node0&#45;&gt;Node1 -->
<g id="edge1" class="edge">
<title>Node0&#45;&gt;Node1</title>
<path fill="none" stroke="#191970" d="M75.6616,-56.2455C69.338,-48.3761 60.2776,-37.101 52.6864,-27.6542"/>
<polygon fill="#191970" stroke="#191970" points="55.2408,-25.2454 46.2486,-19.6427 49.7842,-29.6302 55.2408,-25.2454"/>
</g>
<!-- Node2 -->
<g id="node3" class="node">
<title>Node2</title>
<g id="a_node3"><a xlink:href="cron_8h.html" target="_top" xlink:title="cron/cron.h">
<polygon fill="#ffffff" stroke="#000000" points="95,-.5 95,-19.5 162,-19.5 162,-.5 95,-.5"/>
<text text-anchor="middle" x="128.5" y="-7.5" font-family="Helvetica,sans-Serif" font-size="10.00" fill="#000000">cron/cron.h</text>
</a>
</g>
</g>
<!-- Node0&#45;&gt;Node2 -->
<g id="edge2" class="edge">
<title>Node0&#45;&gt;Node2</title>
<path fill="none" stroke="#191970" d="M91.3384,-56.2455C97.662,-48.3761 106.7224,-37.101 114.3136,-27.6542"/>
<polygon fill="#191970" stroke="#191970" points="117.2158,-29.6302 120.7514,-19.6427 111.7592,-25.2454 117.2158,-29.6302"/>
</g>
</g>
</svg>
