<?xml version="1.0" encoding="UTF-8" standalone="no"?>
<!DOCTYPE svg PUBLIC "-//W3C//DTD SVG 1.1//EN"
 "http://www.w3.org/Graphics/SVG/1.1/DTD/svg11.dtd">
<!-- Generated by graphviz version 2.41.20170323.1842 (20170323.1842)
 -->
<!-- Title: cfg_load Pages: 1 -->
<svg width="588pt" height="360pt"
 viewBox="0.00 0.00 588.00 360.00" xmlns="http://www.w3.org/2000/svg" xmlns:xlink="http://www.w3.org/1999/xlink">
<g id="graph0" class="graph" transform="scale(1 1) rotate(0) translate(4 356)">
<title>cfg_load</title>
<polygon fill="#ffffff" stroke="transparent" points="-4,4 -4,-356 584,-356 584,4 -4,4"/>
<!-- Node0 -->
<g id="node1" class="node">
<title>Node0</title>
<polygon fill="#bfbfbf" stroke="#000000" points="0,-228.5 0,-247.5 54,-247.5 54,-228.5 0,-228.5"/>
<text text-anchor="middle" x="27" y="-235.5" font-family="Helvetica,sans-Serif" font-size="10.00" fill="#000000">cfg_load</text>
</g>
<!-- Node1 -->
<g id="node2" class="node">
<title>Node1</title>
<g id="a_node2"><a xlink:href="utils_8c.html#a8d9e1de95e2d6d103108a4b0ebf4d923" target="_top" xlink:title="ccit_crc16">
<polygon fill="#ffffff" stroke="#000000" points="213.5,-332.5 213.5,-351.5 275.5,-351.5 275.5,-332.5 213.5,-332.5"/>
<text text-anchor="middle" x="244.5" y="-339.5" font-family="Helvetica,sans-Serif" font-size="10.00" fill="#000000">ccit_crc16</text>
</a>
</g>
</g>
<!-- Node0&#45;&gt;Node1 -->
<g id="edge1" class="edge">
<title>Node0&#45;&gt;Node1</title>
<path fill="none" stroke="#191970" d="M35.3771,-247.9047C46.5898,-260.5641 67.669,-282.3509 90,-295 125.6603,-315.1994 170.9714,-327.6552 203.2845,-334.6246"/>
<polygon fill="#191970" stroke="#191970" points="202.7882,-338.0961 213.2903,-336.6975 204.2083,-331.2416 202.7882,-338.0961"/>
</g>
<!-- Node2 -->
<g id="node3" class="node">
<title>Node2</title>
<g id="a_node3"><a xlink:href="config_8c.html#acd3c633ba5f49d7bb46d6e4efa31ddb2" target="_top" xlink:title="cfg_save">
<polygon fill="#ffffff" stroke="#000000" points="94.5,-266.5 94.5,-285.5 151.5,-285.5 151.5,-266.5 94.5,-266.5"/>
<text text-anchor="middle" x="123" y="-273.5" font-family="Helvetica,sans-Serif" font-size="10.00" fill="#000000">cfg_save</text>
</a>
</g>
</g>
<!-- Node0&#45;&gt;Node2 -->
<g id="edge2" class="edge">
<title>Node0&#45;&gt;Node2</title>
<path fill="none" stroke="#191970" d="M51.2249,-247.589C62.708,-252.1344 76.6198,-257.6412 89.1269,-262.5919"/>
<polygon fill="#191970" stroke="#191970" points="88.1966,-265.9878 98.7829,-266.4141 90.773,-259.4792 88.1966,-265.9878"/>
</g>
<!-- Node3 -->
<g id="node4" class="node">
<title>Node3</title>
<g id="a_node4"><a xlink:href="ext__spi__flash_8c.html#a094d4588aff8210b1bb94ae90fb58526" target="_top" xlink:title="ext_spi_flash_read">
<polygon fill="#ffffff" stroke="#000000" points="194.5,-206.5 194.5,-225.5 294.5,-225.5 294.5,-206.5 194.5,-206.5"/>
<text text-anchor="middle" x="244.5" y="-213.5" font-family="Helvetica,sans-Serif" font-size="10.00" fill="#000000">ext_spi_flash_read</text>
</a>
</g>
</g>
<!-- Node0&#45;&gt;Node3 -->
<g id="edge10" class="edge">
<title>Node0&#45;&gt;Node3</title>
<path fill="none" stroke="#191970" d="M54.1068,-235.2582C86.4721,-231.9844 141.5735,-226.411 184.1959,-222.0997"/>
<polygon fill="#191970" stroke="#191970" points="184.5911,-225.5777 194.1881,-221.089 183.8866,-218.6132 184.5911,-225.5777"/>
</g>
<!-- Node7 -->
<g id="node8" class="node">
<title>Node7</title>
<g id="a_node8"><a xlink:href="espmissingincludes_8h.html#a0bbba7104c948de849f8051d9ac956e3" target="_top" xlink:title="os_printf">
<polygon fill="#ffffff" stroke="#000000" points="95.5,-190.5 95.5,-209.5 150.5,-209.5 150.5,-190.5 95.5,-190.5"/>
<text text-anchor="middle" x="123" y="-197.5" font-family="Helvetica,sans-Serif" font-size="10.00" fill="#000000">os_printf</text>
</a>
</g>
</g>
<!-- Node0&#45;&gt;Node7 -->
<g id="edge11" class="edge">
<title>Node0&#45;&gt;Node7</title>
<path fill="none" stroke="#191970" d="M51.2249,-228.411C62.708,-223.8656 76.6198,-218.3588 89.1269,-213.4081"/>
<polygon fill="#191970" stroke="#191970" points="90.773,-216.5208 98.7829,-209.5859 88.1966,-210.0122 90.773,-216.5208"/>
</g>
<!-- Node8 -->
<g id="node9" class="node">
<title>Node8</title>
<g id="a_node9"><a xlink:href="tinyprintf_8c.html#a9738cbc6c538d210941db282e240c7d6" target="_top" xlink:title="tfp_snprintf">
<polygon fill="#ffffff" stroke="#000000" points="90,-152.5 90,-171.5 156,-171.5 156,-152.5 90,-152.5"/>
<text text-anchor="middle" x="123" y="-159.5" font-family="Helvetica,sans-Serif" font-size="10.00" fill="#000000">tfp_snprintf</text>
</a>
</g>
</g>
<!-- Node0&#45;&gt;Node8 -->
<g id="edge12" class="edge">
<title>Node0&#45;&gt;Node8</title>
<path fill="none" stroke="#191970" d="M36.2711,-228.437C48.0975,-216.5248 69.4845,-195.9243 90,-181 91.8678,-179.6413 93.8403,-178.2995 95.8544,-176.9954"/>
<polygon fill="#191970" stroke="#191970" points="98.0276,-179.7702 104.7526,-171.5833 94.39,-173.7895 98.0276,-179.7702"/>
</g>
<!-- Node2&#45;&gt;Node1 -->
<g id="edge3" class="edge">
<title>Node2&#45;&gt;Node1</title>
<path fill="none" stroke="#191970" d="M135.1287,-285.6549C148.4701,-295.934 170.8351,-312.1795 192,-323 195.9917,-325.0407 200.2546,-326.9642 204.5605,-328.7463"/>
<polygon fill="#191970" stroke="#191970" points="203.3785,-332.042 213.9669,-332.412 205.9203,-325.5197 203.3785,-332.042"/>
</g>
<!-- Node2&#45;&gt;Node3 -->
<g id="edge4" class="edge">
<title>Node2&#45;&gt;Node3</title>
<path fill="none" stroke="#191970" d="M137.9649,-266.3785C151.6907,-257.7845 172.7501,-245.1726 192,-236 196.9528,-233.64 202.2638,-231.3515 207.5364,-229.217"/>
<polygon fill="#191970" stroke="#191970" points="208.8591,-232.4579 216.9001,-225.5591 206.312,-225.9378 208.8591,-232.4579"/>
</g>
<!-- Node5 -->
<g id="node6" class="node">
<title>Node5</title>
<g id="a_node6"><a xlink:href="ext__spi__flash_8c.html#ab4369189179b556a6b8e2155433c5f70" target="_top" xlink:title="ext_spi_flash_erase\l_sector">
<polygon fill="#ffffff" stroke="#000000" points="192,-245 192,-275 297,-275 297,-245 192,-245"/>
<text text-anchor="start" x="200" y="-263" font-family="Helvetica,sans-Serif" font-size="10.00" fill="#000000">ext_spi_flash_erase</text>
<text text-anchor="middle" x="244.5" y="-252" font-family="Helvetica,sans-Serif" font-size="10.00" fill="#000000">_sector</text>
</a>
</g>
</g>
<!-- Node2&#45;&gt;Node5 -->
<g id="edge6" class="edge">
<title>Node2&#45;&gt;Node5</title>
<path fill="none" stroke="#191970" d="M151.7938,-272.2082C160.8342,-271.0177 171.1945,-269.6534 181.6382,-268.2781"/>
<polygon fill="#191970" stroke="#191970" points="182.1789,-271.7372 191.6363,-266.9615 181.2649,-264.7971 182.1789,-271.7372"/>
</g>
<!-- Node6 -->
<g id="node7" class="node">
<title>Node6</title>
<g id="a_node7"><a xlink:href="ext__spi__flash_8c.html#a17e27ce44dd5aec4dd7a7de609093aae" target="_top" xlink:title="ext_spi_flash_write">
<polygon fill="#ffffff" stroke="#000000" points="193.5,-294.5 193.5,-313.5 295.5,-313.5 295.5,-294.5 193.5,-294.5"/>
<text text-anchor="middle" x="244.5" y="-301.5" font-family="Helvetica,sans-Serif" font-size="10.00" fill="#000000">ext_spi_flash_write</text>
</a>
</g>
</g>
<!-- Node2&#45;&gt;Node6 -->
<g id="edge8" class="edge">
<title>Node2&#45;&gt;Node6</title>
<path fill="none" stroke="#191970" d="M151.7938,-282.6356C164.1039,-285.4725 178.8613,-288.8734 192.9439,-292.1188"/>
<polygon fill="#191970" stroke="#191970" points="192.5038,-295.609 203.0344,-294.4441 194.0758,-288.7878 192.5038,-295.609"/>
</g>
<!-- Node4 -->
<g id="node5" class="node">
<title>Node4</title>
<g id="a_node5"><a xlink:href="spi_8c.html#acebb579091ca980f217d3e5f3bd1f1d5" target="_top" xlink:title="spi_transaction">
<polygon fill="#ffffff" stroke="#000000" points="334.5,-250.5 334.5,-269.5 418.5,-269.5 418.5,-250.5 334.5,-250.5"/>
<text text-anchor="middle" x="376.5" y="-257.5" font-family="Helvetica,sans-Serif" font-size="10.00" fill="#000000">spi_transaction</text>
</a>
</g>
</g>
<!-- Node3&#45;&gt;Node4 -->
<g id="edge5" class="edge">
<title>Node3&#45;&gt;Node4</title>
<path fill="none" stroke="#191970" d="M273.142,-225.5473C292.2558,-231.9186 317.6025,-240.3675 338.4115,-247.3038"/>
<polygon fill="#191970" stroke="#191970" points="337.3202,-250.6293 347.9139,-250.4713 339.5338,-243.9885 337.3202,-250.6293"/>
</g>
<!-- Node5&#45;&gt;Node4 -->
<g id="edge7" class="edge">
<title>Node5&#45;&gt;Node4</title>
<path fill="none" stroke="#191970" d="M297.0492,-260C305.9373,-260 315.1652,-260 324.0508,-260"/>
<polygon fill="#191970" stroke="#191970" points="324.2835,-263.5001 334.2834,-260 324.2834,-256.5001 324.2835,-263.5001"/>
</g>
<!-- Node6&#45;&gt;Node4 -->
<g id="edge9" class="edge">
<title>Node6&#45;&gt;Node4</title>
<path fill="none" stroke="#191970" d="M273.142,-294.4527C292.2558,-288.0814 317.6025,-279.6325 338.4115,-272.6962"/>
<polygon fill="#191970" stroke="#191970" points="339.5338,-276.0115 347.9139,-269.5287 337.3202,-269.3707 339.5338,-276.0115"/>
</g>
<!-- Node9 -->
<g id="node10" class="node">
<title>Node9</title>
<g id="a_node10"><a xlink:href="tinyprintf_8c.html#ac8c8a66133cf0d7009c0d73b55311a44" target="_top" xlink:title="tfp_vsnprintf">
<polygon fill="#ffffff" stroke="#000000" points="209,-152.5 209,-171.5 280,-171.5 280,-152.5 209,-152.5"/>
<text text-anchor="middle" x="244.5" y="-159.5" font-family="Helvetica,sans-Serif" font-size="10.00" fill="#000000">tfp_vsnprintf</text>
</a>
</g>
</g>
<!-- Node8&#45;&gt;Node9 -->
<g id="edge13" class="edge">
<title>Node8&#45;&gt;Node9</title>
<path fill="none" stroke="#191970" d="M156.2004,-162C169.3174,-162 184.6083,-162 198.7439,-162"/>
<polygon fill="#191970" stroke="#191970" points="198.7851,-165.5001 208.7851,-162 198.785,-158.5001 198.7851,-165.5001"/>
</g>
<!-- Node10 -->
<g id="node11" class="node">
<title>Node10</title>
<g id="a_node11"><a xlink:href="tinyprintf_8c.html#a5877e42444463efc71a91b5fe76a6145" target="_top" xlink:title="tfp_format">
<polygon fill="#ffffff" stroke="#000000" points="345.5,-133.5 345.5,-152.5 407.5,-152.5 407.5,-133.5 345.5,-133.5"/>
<text text-anchor="middle" x="376.5" y="-140.5" font-family="Helvetica,sans-Serif" font-size="10.00" fill="#000000">tfp_format</text>
</a>
</g>
</g>
<!-- Node9&#45;&gt;Node10 -->
<g id="edge14" class="edge">
<title>Node9&#45;&gt;Node10</title>
<path fill="none" stroke="#191970" d="M280.2211,-156.8583C297.1987,-154.4146 317.5892,-151.4796 335.2259,-148.941"/>
<polygon fill="#191970" stroke="#191970" points="335.846,-152.3879 345.2453,-147.4988 334.8486,-145.4593 335.846,-152.3879"/>
</g>
<!-- Node20 -->
<g id="node21" class="node">
<title>Node20</title>
<g id="a_node21"><a xlink:href="tinyprintf_8c.html#a919051024b2d729e34a54648b3f2462d" target="_top" xlink:title="_vsnprintf_putcf">
<polygon fill="#ffffff" stroke="#000000" points="333,-171.5 333,-190.5 420,-190.5 420,-171.5 333,-171.5"/>
<text text-anchor="middle" x="376.5" y="-178.5" font-family="Helvetica,sans-Serif" font-size="10.00" fill="#000000">_vsnprintf_putcf</text>
</a>
</g>
</g>
<!-- Node9&#45;&gt;Node20 -->
<g id="edge27" class="edge">
<title>Node9&#45;&gt;Node20</title>
<path fill="none" stroke="#191970" d="M280.2211,-167.1417C293.2463,-169.0165 308.2803,-171.1805 322.5384,-173.2328"/>
<polygon fill="#191970" stroke="#191970" points="322.3469,-176.7412 332.7436,-174.7017 323.3443,-169.8126 322.3469,-176.7412"/>
</g>
<!-- Node11 -->
<g id="node12" class="node">
<title>Node11</title>
<g id="a_node12"><a xlink:href="tinyprintf_8c.html#aa97593a5e53af85b608ad0910db92d77" target="_top" xlink:title="a2u">
<polygon fill="#ffffff" stroke="#000000" points="463.5,-266.5 463.5,-285.5 496.5,-285.5 496.5,-266.5 463.5,-266.5"/>
<text text-anchor="middle" x="480" y="-273.5" font-family="Helvetica,sans-Serif" font-size="10.00" fill="#000000">a2u</text>
</a>
</g>
</g>
<!-- Node10&#45;&gt;Node11 -->
<g id="edge15" class="edge">
<title>Node10&#45;&gt;Node11</title>
<path fill="none" stroke="#191970" d="M407.0089,-152.64C411.7753,-155.1314 416.3294,-158.2126 420,-162 449.9826,-192.9361 432.2841,-216.0339 456,-252 457.4759,-254.2383 459.1854,-256.4391 460.9987,-258.545"/>
<polygon fill="#191970" stroke="#191970" points="458.7807,-261.2884 468.2325,-266.0754 463.8289,-256.4391 458.7807,-261.2884"/>
</g>
<!-- Node13 -->
<g id="node14" class="node">
<title>Node13</title>
<g id="a_node14"><a xlink:href="tinyprintf_8c.html#abcf035dd576671b0cc897de9dd8c75b0" target="_top" xlink:title="ulli2a">
<polygon fill="#ffffff" stroke="#000000" points="540,-209.5 540,-228.5 580,-228.5 580,-209.5 540,-209.5"/>
<text text-anchor="middle" x="560" y="-216.5" font-family="Helvetica,sans-Serif" font-size="10.00" fill="#000000">ulli2a</text>
</a>
</g>
</g>
<!-- Node10&#45;&gt;Node13 -->
<g id="edge17" class="edge">
<title>Node10&#45;&gt;Node13</title>
<path fill="none" stroke="#191970" d="M405.0911,-152.5625C410.3885,-155.1176 415.6239,-158.2413 420,-162 442.7297,-181.5228 429.759,-204.5368 456,-219 478.422,-231.3583 507.9122,-230.0262 529.7615,-226.3783"/>
<polygon fill="#191970" stroke="#191970" points="530.6476,-229.7722 539.8093,-224.4513 529.3291,-222.8975 530.6476,-229.7722"/>
</g>
<!-- Node14 -->
<g id="node15" class="node">
<title>Node14</title>
<g id="a_node15"><a xlink:href="tinyprintf_8c.html#a1d61347854a8c290d59b4a21efcefd75" target="_top" xlink:title="uli2a">
<polygon fill="#ffffff" stroke="#000000" points="541,-85.5 541,-104.5 579,-104.5 579,-85.5 541,-85.5"/>
<text text-anchor="middle" x="560" y="-92.5" font-family="Helvetica,sans-Serif" font-size="10.00" fill="#000000">uli2a</text>
</a>
</g>
</g>
<!-- Node10&#45;&gt;Node14 -->
<g id="edge18" class="edge">
<title>Node10&#45;&gt;Node14</title>
<path fill="none" stroke="#191970" d="M392.2925,-133.4006C407.8861,-124.4265 432.7109,-111.4673 456,-105 480.5572,-98.1806 509.4871,-95.8345 530.592,-95.1056"/>
<polygon fill="#191970" stroke="#191970" points="530.9384,-98.5983 540.8506,-94.8567 530.7686,-91.6004 530.9384,-98.5983"/>
</g>
<!-- Node15 -->
<g id="node16" class="node">
<title>Node15</title>
<g id="a_node16"><a xlink:href="tinyprintf_8c.html#ac87ff66a592723f55692eaf8e3f19df8" target="_top" xlink:title="ui2a">
<polygon fill="#ffffff" stroke="#000000" points="542.5,-28.5 542.5,-47.5 577.5,-47.5 577.5,-28.5 542.5,-28.5"/>
<text text-anchor="middle" x="560" y="-35.5" font-family="Helvetica,sans-Serif" font-size="10.00" fill="#000000">ui2a</text>
</a>
</g>
</g>
<!-- Node10&#45;&gt;Node15 -->
<g id="edge19" class="edge">
<title>Node10&#45;&gt;Node15</title>
<path fill="none" stroke="#191970" d="M390.6177,-133.3862C406.3257,-122.8217 432.5825,-105.5529 456,-92 481.8054,-77.0651 512.1489,-61.5325 533.3773,-50.9812"/>
<polygon fill="#191970" stroke="#191970" points="535.025,-54.071 542.4404,-46.5038 531.9245,-47.7951 535.025,-54.071"/>
</g>
<!-- Node16 -->
<g id="node17" class="node">
<title>Node16</title>
<g id="a_node17"><a xlink:href="tinyprintf_8c.html#a6252dbfebb2c8783c4e3107d551082dd" target="_top" xlink:title="putchw">
<polygon fill="#ffffff" stroke="#000000" points="456,-114.5 456,-133.5 504,-133.5 504,-114.5 456,-114.5"/>
<text text-anchor="middle" x="480" y="-121.5" font-family="Helvetica,sans-Serif" font-size="10.00" fill="#000000">putchw</text>
</a>
</g>
</g>
<!-- Node10&#45;&gt;Node16 -->
<g id="edge20" class="edge">
<title>Node10&#45;&gt;Node16</title>
<path fill="none" stroke="#191970" d="M407.5534,-137.2994C419.6483,-135.0791 433.549,-132.5272 445.9191,-130.2564"/>
<polygon fill="#191970" stroke="#191970" points="446.673,-133.6766 455.8767,-128.4284 445.4091,-126.7916 446.673,-133.6766"/>
</g>
<!-- Node17 -->
<g id="node18" class="node">
<title>Node17</title>
<g id="a_node18"><a xlink:href="tinyprintf_8c.html#a49c6d2b3d4088012f2c1fe344eef69f3" target="_top" xlink:title="lli2a">
<polygon fill="#ffffff" stroke="#000000" points="463,-190.5 463,-209.5 497,-209.5 497,-190.5 463,-190.5"/>
<text text-anchor="middle" x="480" y="-197.5" font-family="Helvetica,sans-Serif" font-size="10.00" fill="#000000">lli2a</text>
</a>
</g>
</g>
<!-- Node10&#45;&gt;Node17 -->
<g id="edge21" class="edge">
<title>Node10&#45;&gt;Node17</title>
<path fill="none" stroke="#191970" d="M400.2901,-152.6104C406.7776,-155.4409 413.7406,-158.6759 420,-162 432.7614,-168.7771 446.4122,-177.3124 457.4641,-184.5761"/>
<polygon fill="#191970" stroke="#191970" points="455.799,-187.6726 466.0598,-190.312 459.6844,-181.85 455.799,-187.6726"/>
</g>
<!-- Node18 -->
<g id="node19" class="node">
<title>Node18</title>
<g id="a_node19"><a xlink:href="tinyprintf_8c.html#afebb7696337c3f599b5e8db35c560684" target="_top" xlink:title="li2a">
<polygon fill="#ffffff" stroke="#000000" points="464,-152.5 464,-171.5 496,-171.5 496,-152.5 464,-152.5"/>
<text text-anchor="middle" x="480" y="-159.5" font-family="Helvetica,sans-Serif" font-size="10.00" fill="#000000">li2a</text>
</a>
</g>
</g>
<!-- Node10&#45;&gt;Node18 -->
<g id="edge23" class="edge">
<title>Node10&#45;&gt;Node18</title>
<path fill="none" stroke="#191970" d="M407.5534,-148.7006C422.3576,-151.4183 439.8672,-154.6326 453.9639,-157.2204"/>
<polygon fill="#191970" stroke="#191970" points="453.5095,-160.6954 463.9771,-159.0586 454.7734,-153.8105 453.5095,-160.6954"/>
</g>
<!-- Node19 -->
<g id="node20" class="node">
<title>Node19</title>
<g id="a_node20"><a xlink:href="tinyprintf_8c.html#a90f9fd8f2133cda7f50be8d67823405c" target="_top" xlink:title="i2a">
<polygon fill="#ffffff" stroke="#000000" points="465,-.5 465,-19.5 495,-19.5 495,-.5 465,-.5"/>
<text text-anchor="middle" x="480" y="-7.5" font-family="Helvetica,sans-Serif" font-size="10.00" fill="#000000">i2a</text>
</a>
</g>
</g>
<!-- Node10&#45;&gt;Node19 -->
<g id="edge25" class="edge">
<title>Node10&#45;&gt;Node19</title>
<path fill="none" stroke="#191970" d="M382.8324,-133.294C395.7216,-113.7816 426.3056,-68.703 456,-34 457.9395,-31.7334 460.0504,-29.4247 462.1892,-27.1792"/>
<polygon fill="#191970" stroke="#191970" points="464.808,-29.5088 469.359,-19.9412 459.8349,-24.5825 464.808,-29.5088"/>
</g>
<!-- Node12 -->
<g id="node13" class="node">
<title>Node12</title>
<g id="a_node13"><a xlink:href="tinyprintf_8c.html#aa853a0c5ba64fa2546d488b86192e7e3" target="_top" xlink:title="a2d">
<polygon fill="#ffffff" stroke="#000000" points="543.5,-266.5 543.5,-285.5 576.5,-285.5 576.5,-266.5 543.5,-266.5"/>
<text text-anchor="middle" x="560" y="-273.5" font-family="Helvetica,sans-Serif" font-size="10.00" fill="#000000">a2d</text>
</a>
</g>
</g>
<!-- Node11&#45;&gt;Node12 -->
<g id="edge16" class="edge">
<title>Node11&#45;&gt;Node12</title>
<path fill="none" stroke="#191970" d="M496.5761,-276C507.1953,-276 521.2154,-276 533.373,-276"/>
<polygon fill="#191970" stroke="#191970" points="533.4452,-279.5001 543.4452,-276 533.4451,-272.5001 533.4452,-279.5001"/>
</g>
<!-- Node17&#45;&gt;Node13 -->
<g id="edge22" class="edge">
<title>Node17&#45;&gt;Node13</title>
<path fill="none" stroke="#191970" d="M497.3588,-204.1227C506.8312,-206.3724 518.8293,-209.222 529.7843,-211.8238"/>
<polygon fill="#191970" stroke="#191970" points="529.3132,-215.3092 539.8514,-214.2147 530.9308,-208.4986 529.3132,-215.3092"/>
</g>
<!-- Node18&#45;&gt;Node14 -->
<g id="edge24" class="edge">
<title>Node18&#45;&gt;Node14</title>
<path fill="none" stroke="#191970" d="M492.2831,-152.4255C496.0657,-149.4371 500.2265,-146.1089 504,-143 516.6006,-132.6186 530.5406,-120.6717 541.3604,-111.2937"/>
<polygon fill="#191970" stroke="#191970" points="543.7031,-113.8947 548.9521,-104.6915 539.1096,-108.6126 543.7031,-113.8947"/>
</g>
<!-- Node19&#45;&gt;Node15 -->
<g id="edge26" class="edge">
<title>Node19&#45;&gt;Node15</title>
<path fill="none" stroke="#191970" d="M495.0474,-15.2666C505.6188,-18.9666 520.0619,-24.0217 532.6443,-28.4255"/>
<polygon fill="#191970" stroke="#191970" points="531.6319,-31.7793 542.2268,-31.7794 533.9444,-25.1723 531.6319,-31.7793"/>
</g>
</g>
</svg>
