<?xml version="1.0" encoding="UTF-8" standalone="no"?>
<!DOCTYPE svg PUBLIC "-//W3C//DTD SVG 1.1//EN"
 "http://www.w3.org/Graphics/SVG/1.1/DTD/svg11.dtd">
<!-- Generated by graphviz version 2.40.1 (20161225.0304)
 -->
<!-- Title: cfg_load Pages: 1 -->
<svg width="656pt" height="458pt"
 viewBox="0.00 0.00 656.00 458.00" xmlns="http://www.w3.org/2000/svg" xmlns:xlink="http://www.w3.org/1999/xlink">
<g id="graph0" class="graph" transform="scale(1 1) rotate(0) translate(4 454)">
<title>cfg_load</title>
<polygon fill="#ffffff" stroke="transparent" points="-4,4 -4,-454 652,-454 652,4 -4,4"/>
<!-- Node0 -->
<g id="node1" class="node">
<title>Node0</title>
<polygon fill="#bfbfbf" stroke="#000000" points="0,-266.5 0,-285.5 54,-285.5 54,-266.5 0,-266.5"/>
<text text-anchor="middle" x="27" y="-273.5" font-family="Helvetica,sans-Serif" font-size="10.00" fill="#000000">cfg_load</text>
</g>
<!-- Node1 -->
<g id="node2" class="node">
<title>Node1</title>
<g id="a_node2"><a xlink:href="utils_8c.html#a8d9e1de95e2d6d103108a4b0ebf4d923" target="_top" xlink:title="ccit_crc16">
<polygon fill="#ffffff" stroke="#000000" points="268,-430.5 268,-449.5 330,-449.5 330,-430.5 268,-430.5"/>
<text text-anchor="middle" x="299" y="-437.5" font-family="Helvetica,sans-Serif" font-size="10.00" fill="#000000">ccit_crc16</text>
</a>
</g>
</g>
<!-- Node0&#45;&gt;Node1 -->
<g id="edge1" class="edge">
<title>Node0&#45;&gt;Node1</title>
<path fill="none" stroke="#191970" d="M30.8367,-285.5768C38.9267,-304.5922 59.5324,-347.3151 90,-371 139.958,-409.8363 212.7387,-427.301 257.9102,-434.7927"/>
<polygon fill="#191970" stroke="#191970" points="257.5178,-438.2739 267.9397,-436.3672 258.6035,-431.3586 257.5178,-438.2739"/>
</g>
<!-- Node2 -->
<g id="node3" class="node">
<title>Node2</title>
<g id="a_node3"><a xlink:href="config_8c.html#acd3c633ba5f49d7bb46d6e4efa31ddb2" target="_top" xlink:title="cfg_save">
<polygon fill="#ffffff" stroke="#000000" points="115,-342.5 115,-361.5 172,-361.5 172,-342.5 115,-342.5"/>
<text text-anchor="middle" x="143.5" y="-349.5" font-family="Helvetica,sans-Serif" font-size="10.00" fill="#000000">cfg_save</text>
</a>
</g>
</g>
<!-- Node0&#45;&gt;Node2 -->
<g id="edge2" class="edge">
<title>Node0&#45;&gt;Node2</title>
<path fill="none" stroke="#191970" d="M37.0406,-285.7525C48.954,-296.962 69.7613,-315.4277 90,-328 95.9842,-331.7174 102.6426,-335.1788 109.1734,-338.251"/>
<polygon fill="#191970" stroke="#191970" points="108.0003,-341.5606 118.557,-342.458 110.864,-335.1732 108.0003,-341.5606"/>
</g>
<!-- Node5 -->
<g id="node6" class="node">
<title>Node5</title>
<g id="a_node6"><a xlink:href="ext__spi__flash_8c.html#a094d4588aff8210b1bb94ae90fb58526" target="_top" xlink:title="ext_spi_flash_read">
<polygon fill="#ffffff" stroke="#000000" points="249,-254.5 249,-273.5 349,-273.5 349,-254.5 249,-254.5"/>
<text text-anchor="middle" x="299" y="-261.5" font-family="Helvetica,sans-Serif" font-size="10.00" fill="#000000">ext_spi_flash_read</text>
</a>
</g>
</g>
<!-- Node0&#45;&gt;Node5 -->
<g id="edge11" class="edge">
<title>Node0&#45;&gt;Node5</title>
<path fill="none" stroke="#191970" d="M52.6646,-285.6004C63.9447,-289.3316 77.455,-293.1495 90,-295 137.0464,-301.9399 149.9662,-302.0254 197,-295 213.5467,-292.5284 216.9944,-288.8704 233,-284 240.9804,-281.5716 249.5056,-278.9837 257.6878,-276.5028"/>
<polygon fill="#191970" stroke="#191970" points="258.8835,-279.7977 267.4386,-273.5479 256.8533,-273.0986 258.8835,-279.7977"/>
</g>
<!-- Node8 -->
<g id="node9" class="node">
<title>Node8</title>
<g id="a_node9"><a xlink:href="espmissingincludes_8h.html#a0bbba7104c948de849f8051d9ac956e3" target="_top" xlink:title="os_printf">
<polygon fill="#ffffff" stroke="#000000" points="116,-266.5 116,-285.5 171,-285.5 171,-266.5 116,-266.5"/>
<text text-anchor="middle" x="143.5" y="-273.5" font-family="Helvetica,sans-Serif" font-size="10.00" fill="#000000">os_printf</text>
</a>
</g>
</g>
<!-- Node0&#45;&gt;Node8 -->
<g id="edge12" class="edge">
<title>Node0&#45;&gt;Node8</title>
<path fill="none" stroke="#191970" d="M54.0203,-276C69.3836,-276 88.862,-276 105.7198,-276"/>
<polygon fill="#191970" stroke="#191970" points="105.8173,-279.5001 115.8173,-276 105.8172,-272.5001 105.8173,-279.5001"/>
</g>
<!-- Node9 -->
<g id="node10" class="node">
<title>Node9</title>
<g id="a_node10"><a xlink:href="user__interface_8h.html#a86228f8d572c91ec871684121dad0647" target="_top" xlink:title="system_get_chip_id">
<polygon fill="#ffffff" stroke="#000000" points="91,-228.5 91,-247.5 196,-247.5 196,-228.5 91,-228.5"/>
<text text-anchor="middle" x="143.5" y="-235.5" font-family="Helvetica,sans-Serif" font-size="10.00" fill="#000000">system_get_chip_id</text>
</a>
</g>
</g>
<!-- Node0&#45;&gt;Node9 -->
<g id="edge13" class="edge">
<title>Node0&#45;&gt;Node9</title>
<path fill="none" stroke="#191970" d="M54.0203,-267.1865C68.9383,-262.3205 87.7363,-256.189 104.2475,-250.8034"/>
<polygon fill="#191970" stroke="#191970" points="105.7557,-253.993 114.1773,-247.5645 103.5849,-247.3381 105.7557,-253.993"/>
</g>
<!-- Node10 -->
<g id="node11" class="node">
<title>Node10</title>
<g id="a_node11"><a xlink:href="user__interface_8h.html#a753aade115708d360f25bff422ef1f55" target="_top" xlink:title="system_param_load">
<polygon fill="#ffffff" stroke="#000000" points="90,-190.5 90,-209.5 197,-209.5 197,-190.5 90,-190.5"/>
<text text-anchor="middle" x="143.5" y="-197.5" font-family="Helvetica,sans-Serif" font-size="10.00" fill="#000000">system_param_load</text>
</a>
</g>
</g>
<!-- Node0&#45;&gt;Node10 -->
<g id="edge14" class="edge">
<title>Node0&#45;&gt;Node10</title>
<path fill="none" stroke="#191970" d="M35.4683,-266.2521C46.7796,-253.7623 67.9654,-232.1586 90,-219 93.3784,-216.9825 97.0041,-215.1322 100.7179,-213.446"/>
<polygon fill="#191970" stroke="#191970" points="102.1367,-216.6468 110.0401,-209.5908 99.4616,-210.1781 102.1367,-216.6468"/>
</g>
<!-- Node11 -->
<g id="node12" class="node">
<title>Node11</title>
<g id="a_node12"><a xlink:href="tinyprintf_8c.html#a9738cbc6c538d210941db282e240c7d6" target="_top" xlink:title="tfp_snprintf">
<polygon fill="#ffffff" stroke="#000000" points="110.5,-152.5 110.5,-171.5 176.5,-171.5 176.5,-152.5 110.5,-152.5"/>
<text text-anchor="middle" x="143.5" y="-159.5" font-family="Helvetica,sans-Serif" font-size="10.00" fill="#000000">tfp_snprintf</text>
</a>
</g>
</g>
<!-- Node0&#45;&gt;Node11 -->
<g id="edge15" class="edge">
<title>Node0&#45;&gt;Node11</title>
<path fill="none" stroke="#191970" d="M30.8466,-266.4358C38.9543,-247.4432 59.5903,-204.7592 90,-181 93.3641,-178.3716 97.1213,-176.0888 101.0422,-174.1097"/>
<polygon fill="#191970" stroke="#191970" points="102.6221,-177.2389 110.3805,-170.0238 99.8161,-170.8259 102.6221,-177.2389"/>
</g>
<!-- Node2&#45;&gt;Node1 -->
<g id="edge3" class="edge">
<title>Node2&#45;&gt;Node1</title>
<path fill="none" stroke="#191970" d="M153.3677,-361.677C168.9955,-376.494 200.9652,-404.7863 233,-421 240.7995,-424.9475 249.5445,-428.1923 258.054,-430.8131"/>
<polygon fill="#191970" stroke="#191970" points="257.288,-434.2341 267.8643,-433.6078 259.2058,-427.5019 257.288,-434.2341"/>
</g>
<!-- Node3 -->
<g id="node4" class="node">
<title>Node3</title>
<g id="a_node4"><a xlink:href="ext__spi__flash_8c.html#ab4369189179b556a6b8e2155433c5f70" target="_top" xlink:title="ext_spi_flash_erase\l_sector">
<polygon fill="#ffffff" stroke="#000000" points="246.5,-381 246.5,-411 351.5,-411 351.5,-381 246.5,-381"/>
<text text-anchor="start" x="254.5" y="-399" font-family="Helvetica,sans-Serif" font-size="10.00" fill="#000000">ext_spi_flash_erase</text>
<text text-anchor="middle" x="299" y="-388" font-family="Helvetica,sans-Serif" font-size="10.00" fill="#000000">_sector</text>
</a>
</g>
</g>
<!-- Node2&#45;&gt;Node3 -->
<g id="edge4" class="edge">
<title>Node2&#45;&gt;Node3</title>
<path fill="none" stroke="#191970" d="M172.0211,-360.0703C190.1223,-365.1922 214.2711,-372.0253 236.6474,-378.3568"/>
<polygon fill="#191970" stroke="#191970" points="235.8643,-381.7726 246.4395,-381.1276 237.7702,-375.037 235.8643,-381.7726"/>
</g>
<!-- Node2&#45;&gt;Node5 -->
<g id="edge6" class="edge">
<title>Node2&#45;&gt;Node5</title>
<path fill="none" stroke="#191970" d="M171.2538,-342.4377C179.9736,-338.6994 189.3209,-333.8787 197,-328 217.0629,-312.6409 211.9997,-298.0502 233,-284 236.7394,-281.4981 240.8032,-279.2998 245.0154,-277.3699"/>
<polygon fill="#191970" stroke="#191970" points="246.4553,-280.5628 254.4057,-273.5598 243.8235,-274.0764 246.4553,-280.5628"/>
</g>
<!-- Node6 -->
<g id="node7" class="node">
<title>Node6</title>
<g id="a_node7"><a xlink:href="ext__spi__flash_8c.html#a17e27ce44dd5aec4dd7a7de609093aae" target="_top" xlink:title="ext_spi_flash_write">
<polygon fill="#ffffff" stroke="#000000" points="248,-342.5 248,-361.5 350,-361.5 350,-342.5 248,-342.5"/>
<text text-anchor="middle" x="299" y="-349.5" font-family="Helvetica,sans-Serif" font-size="10.00" fill="#000000">ext_spi_flash_write</text>
</a>
</g>
</g>
<!-- Node2&#45;&gt;Node6 -->
<g id="edge8" class="edge">
<title>Node2&#45;&gt;Node6</title>
<path fill="none" stroke="#191970" d="M172.0211,-352C190.3453,-352 214.8669,-352 237.4735,-352"/>
<polygon fill="#191970" stroke="#191970" points="237.6964,-355.5001 247.6963,-352 237.6963,-348.5001 237.6964,-355.5001"/>
</g>
<!-- Node7 -->
<g id="node8" class="node">
<title>Node7</title>
<g id="a_node8"><a xlink:href="user__interface_8h.html#ae68a7b6345630e42fde3e827108571e0" target="_top" xlink:title="system_param_save_with\l_protect">
<polygon fill="#ffffff" stroke="#000000" points="233,-293 233,-323 365,-323 365,-293 233,-293"/>
<text text-anchor="start" x="241" y="-311" font-family="Helvetica,sans-Serif" font-size="10.00" fill="#000000">system_param_save_with</text>
<text text-anchor="middle" x="299" y="-300" font-family="Helvetica,sans-Serif" font-size="10.00" fill="#000000">_protect</text>
</a>
</g>
</g>
<!-- Node2&#45;&gt;Node7 -->
<g id="edge10" class="edge">
<title>Node2&#45;&gt;Node7</title>
<path fill="none" stroke="#191970" d="M172.0211,-343.9297C189.9696,-338.8511 213.864,-332.0899 236.0805,-325.8036"/>
<polygon fill="#191970" stroke="#191970" points="237.1393,-329.1415 245.8086,-323.0509 235.2334,-322.4059 237.1393,-329.1415"/>
</g>
<!-- Node4 -->
<g id="node5" class="node">
<title>Node4</title>
<g id="a_node5"><a xlink:href="spi_8c.html#acebb579091ca980f217d3e5f3bd1f1d5" target="_top" xlink:title="spi_transaction">
<polygon fill="#ffffff" stroke="#000000" points="402.5,-342.5 402.5,-361.5 486.5,-361.5 486.5,-342.5 402.5,-342.5"/>
<text text-anchor="middle" x="444.5" y="-349.5" font-family="Helvetica,sans-Serif" font-size="10.00" fill="#000000">spi_transaction</text>
</a>
</g>
</g>
<!-- Node3&#45;&gt;Node4 -->
<g id="edge5" class="edge">
<title>Node3&#45;&gt;Node4</title>
<path fill="none" stroke="#191970" d="M348.6659,-380.9808C366.421,-375.6115 386.2226,-369.6234 403.1962,-364.4905"/>
<polygon fill="#191970" stroke="#191970" points="404.2676,-367.8231 412.8264,-361.5783 402.2413,-361.1228 404.2676,-367.8231"/>
</g>
<!-- Node5&#45;&gt;Node4 -->
<g id="edge7" class="edge">
<title>Node5&#45;&gt;Node4</title>
<path fill="none" stroke="#191970" d="M339.8601,-273.5012C348.4352,-276.2791 357.2286,-279.7452 365,-284 389.6905,-297.5177 413.6236,-319.5912 428.6668,-334.9066"/>
<polygon fill="#191970" stroke="#191970" points="426.2319,-337.4242 435.68,-342.2184 431.2837,-332.5787 426.2319,-337.4242"/>
</g>
<!-- Node6&#45;&gt;Node4 -->
<g id="edge9" class="edge">
<title>Node6&#45;&gt;Node4</title>
<path fill="none" stroke="#191970" d="M350.2979,-352C363.859,-352 378.5124,-352 392.1296,-352"/>
<polygon fill="#191970" stroke="#191970" points="392.3055,-355.5001 402.3055,-352 392.3054,-348.5001 392.3055,-355.5001"/>
</g>
<!-- Node12 -->
<g id="node13" class="node">
<title>Node12</title>
<g id="a_node13"><a xlink:href="tinyprintf_8c.html#ac8c8a66133cf0d7009c0d73b55311a44" target="_top" xlink:title="tfp_vsnprintf">
<polygon fill="#ffffff" stroke="#000000" points="263.5,-152.5 263.5,-171.5 334.5,-171.5 334.5,-152.5 263.5,-152.5"/>
<text text-anchor="middle" x="299" y="-159.5" font-family="Helvetica,sans-Serif" font-size="10.00" fill="#000000">tfp_vsnprintf</text>
</a>
</g>
</g>
<!-- Node11&#45;&gt;Node12 -->
<g id="edge16" class="edge">
<title>Node11&#45;&gt;Node12</title>
<path fill="none" stroke="#191970" d="M176.8587,-162C199.1129,-162 228.6642,-162 253.125,-162"/>
<polygon fill="#191970" stroke="#191970" points="253.2604,-165.5001 263.2604,-162 253.2603,-158.5001 253.2604,-165.5001"/>
</g>
<!-- Node13 -->
<g id="node14" class="node">
<title>Node13</title>
<g id="a_node14"><a xlink:href="tinyprintf_8c.html#a5877e42444463efc71a91b5fe76a6145" target="_top" xlink:title="tfp_format">
<polygon fill="#ffffff" stroke="#000000" points="413.5,-133.5 413.5,-152.5 475.5,-152.5 475.5,-133.5 413.5,-133.5"/>
<text text-anchor="middle" x="444.5" y="-140.5" font-family="Helvetica,sans-Serif" font-size="10.00" fill="#000000">tfp_format</text>
</a>
</g>
</g>
<!-- Node12&#45;&gt;Node13 -->
<g id="edge17" class="edge">
<title>Node12&#45;&gt;Node13</title>
<path fill="none" stroke="#191970" d="M334.5933,-157.3521C355.2711,-154.6519 381.4234,-151.2368 403.0292,-148.4154"/>
<polygon fill="#191970" stroke="#191970" points="403.764,-151.8493 413.2266,-147.0838 402.8575,-144.9082 403.764,-151.8493"/>
</g>
<!-- Node23 -->
<g id="node24" class="node">
<title>Node23</title>
<g id="a_node24"><a xlink:href="tinyprintf_8c.html#a919051024b2d729e34a54648b3f2462d" target="_top" xlink:title="_vsnprintf_putcf">
<polygon fill="#ffffff" stroke="#000000" points="401,-171.5 401,-190.5 488,-190.5 488,-171.5 401,-171.5"/>
<text text-anchor="middle" x="444.5" y="-178.5" font-family="Helvetica,sans-Serif" font-size="10.00" fill="#000000">_vsnprintf_putcf</text>
</a>
</g>
</g>
<!-- Node12&#45;&gt;Node23 -->
<g id="edge30" class="edge">
<title>Node12&#45;&gt;Node23</title>
<path fill="none" stroke="#191970" d="M334.5933,-166.6479C351.5661,-168.8643 372.2272,-171.5623 391.035,-174.0183"/>
<polygon fill="#191970" stroke="#191970" points="390.5947,-177.4905 400.9638,-175.3149 391.5012,-170.5494 390.5947,-177.4905"/>
</g>
<!-- Node14 -->
<g id="node15" class="node">
<title>Node14</title>
<g id="a_node15"><a xlink:href="tinyprintf_8c.html#aa97593a5e53af85b608ad0910db92d77" target="_top" xlink:title="a2u">
<polygon fill="#ffffff" stroke="#000000" points="531.5,-266.5 531.5,-285.5 564.5,-285.5 564.5,-266.5 531.5,-266.5"/>
<text text-anchor="middle" x="548" y="-273.5" font-family="Helvetica,sans-Serif" font-size="10.00" fill="#000000">a2u</text>
</a>
</g>
</g>
<!-- Node13&#45;&gt;Node14 -->
<g id="edge18" class="edge">
<title>Node13&#45;&gt;Node14</title>
<path fill="none" stroke="#191970" d="M475.0089,-152.64C479.7753,-155.1314 484.3294,-158.2126 488,-162 517.9826,-192.9361 500.2841,-216.0339 524,-252 525.4759,-254.2383 527.1854,-256.4391 528.9987,-258.545"/>
<polygon fill="#191970" stroke="#191970" points="526.7807,-261.2884 536.2325,-266.0754 531.8289,-256.4391 526.7807,-261.2884"/>
</g>
<!-- Node16 -->
<g id="node17" class="node">
<title>Node16</title>
<g id="a_node17"><a xlink:href="tinyprintf_8c.html#abcf035dd576671b0cc897de9dd8c75b0" target="_top" xlink:title="ulli2a">
<polygon fill="#ffffff" stroke="#000000" points="608,-209.5 608,-228.5 648,-228.5 648,-209.5 608,-209.5"/>
<text text-anchor="middle" x="628" y="-216.5" font-family="Helvetica,sans-Serif" font-size="10.00" fill="#000000">ulli2a</text>
</a>
</g>
</g>
<!-- Node13&#45;&gt;Node16 -->
<g id="edge20" class="edge">
<title>Node13&#45;&gt;Node16</title>
<path fill="none" stroke="#191970" d="M473.0911,-152.5625C478.3885,-155.1176 483.6239,-158.2413 488,-162 510.7297,-181.5228 497.759,-204.5368 524,-219 546.422,-231.3583 575.9122,-230.0262 597.7615,-226.3783"/>
<polygon fill="#191970" stroke="#191970" points="598.6476,-229.7722 607.8093,-224.4513 597.3291,-222.8975 598.6476,-229.7722"/>
</g>
<!-- Node17 -->
<g id="node18" class="node">
<title>Node17</title>
<g id="a_node18"><a xlink:href="tinyprintf_8c.html#a1d61347854a8c290d59b4a21efcefd75" target="_top" xlink:title="uli2a">
<polygon fill="#ffffff" stroke="#000000" points="609,-85.5 609,-104.5 647,-104.5 647,-85.5 609,-85.5"/>
<text text-anchor="middle" x="628" y="-92.5" font-family="Helvetica,sans-Serif" font-size="10.00" fill="#000000">uli2a</text>
</a>
</g>
</g>
<!-- Node13&#45;&gt;Node17 -->
<g id="edge21" class="edge">
<title>Node13&#45;&gt;Node17</title>
<path fill="none" stroke="#191970" d="M460.2925,-133.4006C475.8861,-124.4265 500.7109,-111.4673 524,-105 548.5572,-98.1806 577.4871,-95.8345 598.592,-95.1056"/>
<polygon fill="#191970" stroke="#191970" points="598.9384,-98.5983 608.8506,-94.8567 598.7686,-91.6004 598.9384,-98.5983"/>
</g>
<!-- Node18 -->
<g id="node19" class="node">
<title>Node18</title>
<g id="a_node19"><a xlink:href="tinyprintf_8c.html#ac87ff66a592723f55692eaf8e3f19df8" target="_top" xlink:title="ui2a">
<polygon fill="#ffffff" stroke="#000000" points="610.5,-28.5 610.5,-47.5 645.5,-47.5 645.5,-28.5 610.5,-28.5"/>
<text text-anchor="middle" x="628" y="-35.5" font-family="Helvetica,sans-Serif" font-size="10.00" fill="#000000">ui2a</text>
</a>
</g>
</g>
<!-- Node13&#45;&gt;Node18 -->
<g id="edge22" class="edge">
<title>Node13&#45;&gt;Node18</title>
<path fill="none" stroke="#191970" d="M458.6177,-133.3862C474.3257,-122.8217 500.5825,-105.5529 524,-92 549.8054,-77.0651 580.1489,-61.5325 601.3773,-50.9812"/>
<polygon fill="#191970" stroke="#191970" points="603.025,-54.071 610.4404,-46.5038 599.9245,-47.7951 603.025,-54.071"/>
</g>
<!-- Node19 -->
<g id="node20" class="node">
<title>Node19</title>
<g id="a_node20"><a xlink:href="tinyprintf_8c.html#a6252dbfebb2c8783c4e3107d551082dd" target="_top" xlink:title="putchw">
<polygon fill="#ffffff" stroke="#000000" points="524,-114.5 524,-133.5 572,-133.5 572,-114.5 524,-114.5"/>
<text text-anchor="middle" x="548" y="-121.5" font-family="Helvetica,sans-Serif" font-size="10.00" fill="#000000">putchw</text>
</a>
</g>
</g>
<!-- Node13&#45;&gt;Node19 -->
<g id="edge23" class="edge">
<title>Node13&#45;&gt;Node19</title>
<path fill="none" stroke="#191970" d="M475.5534,-137.2994C487.6483,-135.0791 501.549,-132.5272 513.9191,-130.2564"/>
<polygon fill="#191970" stroke="#191970" points="514.673,-133.6766 523.8767,-128.4284 513.4091,-126.7916 514.673,-133.6766"/>
</g>
<!-- Node20 -->
<g id="node21" class="node">
<title>Node20</title>
<g id="a_node21"><a xlink:href="tinyprintf_8c.html#a49c6d2b3d4088012f2c1fe344eef69f3" target="_top" xlink:title="lli2a">
<polygon fill="#ffffff" stroke="#000000" points="531,-190.5 531,-209.5 565,-209.5 565,-190.5 531,-190.5"/>
<text text-anchor="middle" x="548" y="-197.5" font-family="Helvetica,sans-Serif" font-size="10.00" fill="#000000">lli2a</text>
</a>
</g>
</g>
<!-- Node13&#45;&gt;Node20 -->
<g id="edge24" class="edge">
<title>Node13&#45;&gt;Node20</title>
<path fill="none" stroke="#191970" d="M468.2901,-152.6104C474.7776,-155.4409 481.7406,-158.6759 488,-162 500.7614,-168.7771 514.4122,-177.3124 525.4641,-184.5761"/>
<polygon fill="#191970" stroke="#191970" points="523.799,-187.6726 534.0598,-190.312 527.6844,-181.85 523.799,-187.6726"/>
</g>
<!-- Node21 -->
<g id="node22" class="node">
<title>Node21</title>
<g id="a_node22"><a xlink:href="tinyprintf_8c.html#afebb7696337c3f599b5e8db35c560684" target="_top" xlink:title="li2a">
<polygon fill="#ffffff" stroke="#000000" points="532,-152.5 532,-171.5 564,-171.5 564,-152.5 532,-152.5"/>
<text text-anchor="middle" x="548" y="-159.5" font-family="Helvetica,sans-Serif" font-size="10.00" fill="#000000">li2a</text>
</a>
</g>
</g>
<!-- Node13&#45;&gt;Node21 -->
<g id="edge26" class="edge">
<title>Node13&#45;&gt;Node21</title>
<path fill="none" stroke="#191970" d="M475.5534,-148.7006C490.3576,-151.4183 507.8672,-154.6326 521.9639,-157.2204"/>
<polygon fill="#191970" stroke="#191970" points="521.5095,-160.6954 531.9771,-159.0586 522.7734,-153.8105 521.5095,-160.6954"/>
</g>
<!-- Node22 -->
<g id="node23" class="node">
<title>Node22</title>
<g id="a_node23"><a xlink:href="tinyprintf_8c.html#a90f9fd8f2133cda7f50be8d67823405c" target="_top" xlink:title="i2a">
<polygon fill="#ffffff" stroke="#000000" points="533,-.5 533,-19.5 563,-19.5 563,-.5 533,-.5"/>
<text text-anchor="middle" x="548" y="-7.5" font-family="Helvetica,sans-Serif" font-size="10.00" fill="#000000">i2a</text>
</a>
</g>
</g>
<!-- Node13&#45;&gt;Node22 -->
<g id="edge28" class="edge">
<title>Node13&#45;&gt;Node22</title>
<path fill="none" stroke="#191970" d="M450.8324,-133.294C463.7216,-113.7816 494.3056,-68.703 524,-34 525.9395,-31.7334 528.0504,-29.4247 530.1892,-27.1792"/>
<polygon fill="#191970" stroke="#191970" points="532.808,-29.5088 537.359,-19.9412 527.8349,-24.5825 532.808,-29.5088"/>
</g>
<!-- Node15 -->
<g id="node16" class="node">
<title>Node15</title>
<g id="a_node16"><a xlink:href="tinyprintf_8c.html#aa853a0c5ba64fa2546d488b86192e7e3" target="_top" xlink:title="a2d">
<polygon fill="#ffffff" stroke="#000000" points="611.5,-266.5 611.5,-285.5 644.5,-285.5 644.5,-266.5 611.5,-266.5"/>
<text text-anchor="middle" x="628" y="-273.5" font-family="Helvetica,sans-Serif" font-size="10.00" fill="#000000">a2d</text>
</a>
</g>
</g>
<!-- Node14&#45;&gt;Node15 -->
<g id="edge19" class="edge">
<title>Node14&#45;&gt;Node15</title>
<path fill="none" stroke="#191970" d="M564.5761,-276C575.1953,-276 589.2154,-276 601.373,-276"/>
<polygon fill="#191970" stroke="#191970" points="601.4452,-279.5001 611.4452,-276 601.4451,-272.5001 601.4452,-279.5001"/>
</g>
<!-- Node20&#45;&gt;Node16 -->
<g id="edge25" class="edge">
<title>Node20&#45;&gt;Node16</title>
<path fill="none" stroke="#191970" d="M565.3588,-204.1227C574.8312,-206.3724 586.8293,-209.222 597.7843,-211.8238"/>
<polygon fill="#191970" stroke="#191970" points="597.3132,-215.3092 607.8514,-214.2147 598.9308,-208.4986 597.3132,-215.3092"/>
</g>
<!-- Node21&#45;&gt;Node17 -->
<g id="edge27" class="edge">
<title>Node21&#45;&gt;Node17</title>
<path fill="none" stroke="#191970" d="M560.2831,-152.4255C564.0657,-149.4371 568.2265,-146.1089 572,-143 584.6006,-132.6186 598.5406,-120.6717 609.3604,-111.2937"/>
<polygon fill="#191970" stroke="#191970" points="611.7031,-113.8947 616.9521,-104.6915 607.1096,-108.6126 611.7031,-113.8947"/>
</g>
<!-- Node22&#45;&gt;Node18 -->
<g id="edge29" class="edge">
<title>Node22&#45;&gt;Node18</title>
<path fill="none" stroke="#191970" d="M563.0474,-15.2666C573.6188,-18.9666 588.0619,-24.0217 600.6443,-28.4255"/>
<polygon fill="#191970" stroke="#191970" points="599.6319,-31.7793 610.2268,-31.7794 601.9444,-25.1723 599.6319,-31.7793"/>
</g>
</g>
</svg>
