<?xml version="1.0" encoding="UTF-8" standalone="no"?>
<!DOCTYPE svg PUBLIC "-//W3C//DTD SVG 1.1//EN"
 "http://www.w3.org/Graphics/SVG/1.1/DTD/svg11.dtd">
<!-- Generated by graphviz version 2.40.1 (20161225.0304)
 -->
<!-- Title: config_save_timer_func Pages: 1 -->
<svg width="656pt" height="142pt"
 viewBox="0.00 0.00 656.00 142.00" xmlns="http://www.w3.org/2000/svg" xmlns:xlink="http://www.w3.org/1999/xlink">
<g id="graph0" class="graph" transform="scale(1 1) rotate(0) translate(4 138)">
<title>config_save_timer_func</title>
<polygon fill="#ffffff" stroke="transparent" points="-4,4 -4,-138 652,-138 652,4 -4,4"/>
<!-- Node70 -->
<g id="node1" class="node">
<title>Node70</title>
<polygon fill="#bfbfbf" stroke="#000000" points="0,-57.5 0,-76.5 122,-76.5 122,-57.5 0,-57.5"/>
<text text-anchor="middle" x="61" y="-64.5" font-family="Helvetica,sans-Serif" font-size="10.00" fill="#000000">config_save_timer_func</text>
</g>
<!-- Node70&#45;&gt;Node70 -->
<g id="edge9" class="edge">
<title>Node70&#45;&gt;Node70</title>
<path fill="none" stroke="#191970" d="M34.1208,-85.6539C35.2444,-90.9368 44.2041,-95 61,-95 86.5938,-95 93.9919,-85.5653 83.1946,-76.7571"/>
<polygon fill="#191970" stroke="#191970" points="37.2433,-87.2361 38.8054,-76.7571 31.0494,-83.9747 37.2433,-87.2361"/>
</g>
<!-- Node71 -->
<g id="node2" class="node">
<title>Node71</title>
<g id="a_node2"><a xlink:href="config_8h.html#ab4af9f95b39f096bb0fa8d73eb5a342e" target="_top" xlink:title="cfg_save_defered">
<polygon fill="#ffffff" stroke="#000000" points="158,-57.5 158,-76.5 254,-76.5 254,-57.5 158,-57.5"/>
<text text-anchor="middle" x="206" y="-64.5" font-family="Helvetica,sans-Serif" font-size="10.00" fill="#000000">cfg_save_defered</text>
</a>
</g>
</g>
<!-- Node70&#45;&gt;Node71 -->
<g id="edge1" class="edge">
<title>Node70&#45;&gt;Node71</title>
<path fill="none" stroke="#191970" d="M132.2003,-67C140.8623,-67 149.5492,-67 157.7659,-67"/>
<polygon fill="#191970" stroke="#191970" points="132.0728,-63.5001 122.0728,-67 132.0728,-70.5001 132.0728,-63.5001"/>
</g>
<!-- Node72 -->
<g id="node3" class="node">
<title>Node72</title>
<g id="a_node3"><a xlink:href="ac__out_8h.html#a3bc674b019d5e2e4d15e7abe7c69029f" target="_top" xlink:title="ac_thermo_close">
<polygon fill="#ffffff" stroke="#000000" points="310,-114.5 310,-133.5 403,-133.5 403,-114.5 310,-114.5"/>
<text text-anchor="middle" x="356.5" y="-121.5" font-family="Helvetica,sans-Serif" font-size="10.00" fill="#000000">ac_thermo_close</text>
</a>
</g>
</g>
<!-- Node71&#45;&gt;Node72 -->
<g id="edge2" class="edge">
<title>Node71&#45;&gt;Node72</title>
<path fill="none" stroke="#191970" d="M234.3843,-81.0952C250.4621,-88.7594 271.0846,-98.0618 290,-105 299.4691,-108.4733 309.8839,-111.7129 319.6042,-114.4982"/>
<polygon fill="#191970" stroke="#191970" points="235.5438,-77.7684 225.0168,-76.5707 232.4992,-84.0716 235.5438,-77.7684"/>
</g>
<!-- Node75 -->
<g id="node6" class="node">
<title>Node75</title>
<g id="a_node6"><a xlink:href="ac__out_8h.html#a1573f96ac038a6a1b29a6f21403a2341" target="_top" xlink:title="ac_thermo_open">
<polygon fill="#ffffff" stroke="#000000" points="310.5,-76.5 310.5,-95.5 402.5,-95.5 402.5,-76.5 310.5,-76.5"/>
<text text-anchor="middle" x="356.5" y="-83.5" font-family="Helvetica,sans-Serif" font-size="10.00" fill="#000000">ac_thermo_open</text>
</a>
</g>
</g>
<!-- Node71&#45;&gt;Node75 -->
<g id="edge5" class="edge">
<title>Node71&#45;&gt;Node75</title>
<path fill="none" stroke="#191970" d="M263.9764,-74.3193C279.3755,-76.2634 295.7949,-78.3362 310.4616,-80.1878"/>
<polygon fill="#191970" stroke="#191970" points="264.3926,-70.8441 254.0329,-73.064 263.5158,-77.789 264.3926,-70.8441"/>
</g>
<!-- Node76 -->
<g id="node7" class="node">
<title>Node76</title>
<g id="a_node7"><a xlink:href="cron_8h.html#abede8d12ed6e5d5f3412eda37b325d03" target="_top" xlink:title="add_cron_job_from_query">
<polygon fill="#ffffff" stroke="#000000" points="290,-38.5 290,-57.5 423,-57.5 423,-38.5 290,-38.5"/>
<text text-anchor="middle" x="356.5" y="-45.5" font-family="Helvetica,sans-Serif" font-size="10.00" fill="#000000">add_cron_job_from_query</text>
</a>
</g>
</g>
<!-- Node71&#45;&gt;Node76 -->
<g id="edge7" class="edge">
<title>Node71&#45;&gt;Node76</title>
<path fill="none" stroke="#191970" d="M264.1671,-59.6566C272.6241,-58.589 281.385,-57.483 289.9914,-56.3964"/>
<polygon fill="#191970" stroke="#191970" points="263.5158,-56.211 254.0329,-60.936 264.3926,-63.1559 263.5158,-56.211"/>
</g>
<!-- Node77 -->
<g id="node8" class="node">
<title>Node77</title>
<g id="a_node8"><a xlink:href="cron_8h.html#ad014b7bf4eab144ea9fc5669d896714b" target="_top" xlink:title="clear_cron_jobs">
<polygon fill="#ffffff" stroke="#000000" points="313,-.5 313,-19.5 400,-19.5 400,-.5 313,-.5"/>
<text text-anchor="middle" x="356.5" y="-7.5" font-family="Helvetica,sans-Serif" font-size="10.00" fill="#000000">clear_cron_jobs</text>
</a>
</g>
</g>
<!-- Node71&#45;&gt;Node77 -->
<g id="edge8" class="edge">
<title>Node71&#45;&gt;Node77</title>
<path fill="none" stroke="#191970" d="M234.3843,-52.9048C250.4621,-45.2406 271.0846,-35.9382 290,-29 299.4691,-25.5267 309.8839,-22.2871 319.6042,-19.5018"/>
<polygon fill="#191970" stroke="#191970" points="232.4992,-49.9284 225.0168,-57.4293 235.5438,-56.2316 232.4992,-49.9284"/>
</g>
<!-- Node73 -->
<g id="node4" class="node">
<title>Node73</title>
<g id="a_node4"><a xlink:href="cron_8c.html#a2782af03df9b913cfa565a0770e1afe1" target="_top" xlink:title="minute_timer_func">
<polygon fill="#ffffff" stroke="#000000" points="459,-95.5 459,-114.5 558,-114.5 558,-95.5 459,-95.5"/>
<text text-anchor="middle" x="508.5" y="-102.5" font-family="Helvetica,sans-Serif" font-size="10.00" fill="#000000">minute_timer_func</text>
</a>
</g>
</g>
<!-- Node72&#45;&gt;Node73 -->
<g id="edge3" class="edge">
<title>Node72&#45;&gt;Node73</title>
<path fill="none" stroke="#191970" d="M413.4857,-116.8768C428.4191,-115.0101 444.3992,-113.0126 458.9119,-111.1985"/>
<polygon fill="#191970" stroke="#191970" points="412.8339,-113.4309 403.3453,-118.1443 413.7022,-120.3769 412.8339,-113.4309"/>
</g>
<!-- Node74 -->
<g id="node5" class="node">
<title>Node74</title>
<g id="a_node5"><a xlink:href="cron_8h.html#ae130c5973bad35b56776750c7a34db12" target="_top" xlink:title="cron_init">
<polygon fill="#ffffff" stroke="#000000" points="594,-95.5 594,-114.5 648,-114.5 648,-95.5 594,-95.5"/>
<text text-anchor="middle" x="621" y="-102.5" font-family="Helvetica,sans-Serif" font-size="10.00" fill="#000000">cron_init</text>
</a>
</g>
</g>
<!-- Node73&#45;&gt;Node74 -->
<g id="edge4" class="edge">
<title>Node73&#45;&gt;Node74</title>
<path fill="none" stroke="#191970" d="M568.2611,-105C577.1957,-105 586.0117,-105 593.8028,-105"/>
<polygon fill="#191970" stroke="#191970" points="568.1716,-101.5001 558.1716,-105 568.1716,-108.5001 568.1716,-101.5001"/>
</g>
<!-- Node75&#45;&gt;Node73 -->
<g id="edge6" class="edge">
<title>Node75&#45;&gt;Node73</title>
<path fill="none" stroke="#191970" d="M412.7881,-93.036C427.929,-94.9286 444.1911,-96.9614 458.9366,-98.8046"/>
<polygon fill="#191970" stroke="#191970" points="412.8744,-89.5196 402.5175,-91.7522 412.0061,-96.4656 412.8744,-89.5196"/>
</g>
</g>
</svg>
