<?xml version="1.0" encoding="UTF-8" standalone="no"?>
<!DOCTYPE svg PUBLIC "-//W3C//DTD SVG 1.1//EN"
 "http://www.w3.org/Graphics/SVG/1.1/DTD/svg11.dtd">
<!-- Generated by graphviz version 2.40.1 (20161225.0304)
 -->
<!-- Title: cron_init Pages: 1 -->
<svg width="1162pt" height="572pt"
 viewBox="0.00 0.00 1162.00 572.00" xmlns="http://www.w3.org/2000/svg" xmlns:xlink="http://www.w3.org/1999/xlink">
<g id="graph0" class="graph" transform="scale(1 1) rotate(0) translate(4 568)">
<title>cron_init</title>
<polygon fill="#ffffff" stroke="transparent" points="-4,4 -4,-568 1158,-568 1158,4 -4,4"/>
<!-- Node24 -->
<g id="node1" class="node">
<title>Node24</title>
<polygon fill="#bfbfbf" stroke="#000000" points="0,-266.5 0,-285.5 54,-285.5 54,-266.5 0,-266.5"/>
<text text-anchor="middle" x="27" y="-273.5" font-family="Helvetica,sans-Serif" font-size="10.00" fill="#000000">cron_init</text>
</g>
<!-- Node25 -->
<g id="node2" class="node">
<title>Node25</title>
<g id="a_node2"><a xlink:href="cron_8c.html#a2782af03df9b913cfa565a0770e1afe1" target="_top" xlink:title="minute_timer_func">
<polygon fill="#ffffff" stroke="#000000" points="90,-209.5 90,-228.5 189,-228.5 189,-209.5 90,-209.5"/>
<text text-anchor="middle" x="139.5" y="-216.5" font-family="Helvetica,sans-Serif" font-size="10.00" fill="#000000">minute_timer_func</text>
</a>
</g>
</g>
<!-- Node24&#45;&gt;Node25 -->
<g id="edge1" class="edge">
<title>Node24&#45;&gt;Node25</title>
<path fill="none" stroke="#191970" d="M45.83,-266.4595C63.7576,-257.3761 90.9663,-243.5904 111.4475,-233.2133"/>
<polygon fill="#191970" stroke="#191970" points="113.2701,-236.2135 120.6086,-228.5716 110.1063,-229.9692 113.2701,-236.2135"/>
</g>
<!-- Node28 -->
<g id="node5" class="node">
<title>Node28</title>
<g id="a_node5"><a xlink:href="espmissingincludes_8h.html#a0bbba7104c948de849f8051d9ac956e3" target="_top" xlink:title="os_printf">
<polygon fill="#ffffff" stroke="#000000" points="539.5,-304.5 539.5,-323.5 594.5,-323.5 594.5,-304.5 539.5,-304.5"/>
<text text-anchor="middle" x="567" y="-311.5" font-family="Helvetica,sans-Serif" font-size="10.00" fill="#000000">os_printf</text>
</a>
</g>
</g>
<!-- Node24&#45;&gt;Node28 -->
<g id="edge48" class="edge">
<title>Node24&#45;&gt;Node28</title>
<path fill="none" stroke="#191970" d="M51.8246,-285.5956C88.8564,-299.3432 161.0663,-323.9806 225,-333 334.8833,-348.5017 466.2957,-331.3075 529.4614,-320.8476"/>
<polygon fill="#191970" stroke="#191970" points="530.0861,-324.2917 539.3607,-319.1701 528.9165,-317.3901 530.0861,-324.2917"/>
</g>
<!-- Node26 -->
<g id="node3" class="node">
<title>Node26</title>
<g id="a_node3"><a xlink:href="unix__time_8c.html#a36607dbd5be7bee11f8c20932b3df407" target="_top" xlink:title="get_unix_time">
<polygon fill="#ffffff" stroke="#000000" points="225,-38.5 225,-57.5 304,-57.5 304,-38.5 225,-38.5"/>
<text text-anchor="middle" x="264.5" y="-45.5" font-family="Helvetica,sans-Serif" font-size="10.00" fill="#000000">get_unix_time</text>
</a>
</g>
</g>
<!-- Node25&#45;&gt;Node26 -->
<g id="edge2" class="edge">
<title>Node25&#45;&gt;Node26</title>
<path fill="none" stroke="#191970" d="M146.5787,-209.3163C166.8612,-181.5699 225.4062,-101.4803 251.5839,-65.6692"/>
<polygon fill="#191970" stroke="#191970" points="254.4231,-67.716 257.4989,-57.5774 248.772,-63.585 254.4231,-67.716"/>
</g>
<!-- Node25&#45;&gt;Node28 -->
<g id="edge4" class="edge">
<title>Node25&#45;&gt;Node28</title>
<path fill="none" stroke="#191970" d="M161.2495,-228.6178C197.5244,-244.2186 273.0139,-274.821 340,-290 405.4792,-304.8375 483.7096,-310.5476 529.1363,-312.7128"/>
<polygon fill="#191970" stroke="#191970" points="529.2606,-316.2216 539.4058,-313.168 529.5707,-309.2285 529.2606,-316.2216"/>
</g>
<!-- Node29 -->
<g id="node6" class="node">
<title>Node29</title>
<g id="a_node6"><a xlink:href="espmissingincludes_8h.html#ad228deceea1bac4d9f171f647c265059" target="_top" xlink:title="atoi">
<polygon fill="#ffffff" stroke="#000000" points="248,-152.5 248,-171.5 281,-171.5 281,-152.5 248,-152.5"/>
<text text-anchor="middle" x="264.5" y="-159.5" font-family="Helvetica,sans-Serif" font-size="10.00" fill="#000000">atoi</text>
</a>
</g>
</g>
<!-- Node25&#45;&gt;Node29 -->
<g id="edge5" class="edge">
<title>Node25&#45;&gt;Node29</title>
<path fill="none" stroke="#191970" d="M160.4222,-209.4595C181.9501,-199.6428 215.5227,-184.3337 238.6871,-173.7707"/>
<polygon fill="#191970" stroke="#191970" points="240.2655,-176.8977 247.9121,-169.5641 237.3612,-170.5286 240.2655,-176.8977"/>
</g>
<!-- Node30 -->
<g id="node7" class="node">
<title>Node30</title>
<g id="a_node7"><a xlink:href="ac__out_8c.html#a1573f96ac038a6a1b29a6f21403a2341" target="_top" xlink:title="ac_thermo_open">
<polygon fill="#ffffff" stroke="#000000" points="365.5,-228.5 365.5,-247.5 457.5,-247.5 457.5,-228.5 365.5,-228.5"/>
<text text-anchor="middle" x="411.5" y="-235.5" font-family="Helvetica,sans-Serif" font-size="10.00" fill="#000000">ac_thermo_open</text>
</a>
</g>
</g>
<!-- Node25&#45;&gt;Node30 -->
<g id="edge6" class="edge">
<title>Node25&#45;&gt;Node30</title>
<path fill="none" stroke="#191970" d="M189.0727,-222.4628C235.9948,-225.7404 306.3534,-230.6552 355.3302,-234.0764"/>
<polygon fill="#191970" stroke="#191970" points="355.2211,-237.5772 365.4407,-234.7826 355.7089,-230.5942 355.2211,-237.5772"/>
</g>
<!-- Node45 -->
<g id="node22" class="node">
<title>Node45</title>
<g id="a_node22"><a xlink:href="ac__out_8c.html#a3bc674b019d5e2e4d15e7abe7c69029f" target="_top" xlink:title="ac_thermo_close">
<polygon fill="#ffffff" stroke="#000000" points="365,-190.5 365,-209.5 458,-209.5 458,-190.5 365,-190.5"/>
<text text-anchor="middle" x="411.5" y="-197.5" font-family="Helvetica,sans-Serif" font-size="10.00" fill="#000000">ac_thermo_close</text>
</a>
</g>
</g>
<!-- Node25&#45;&gt;Node45 -->
<g id="edge27" class="edge">
<title>Node25&#45;&gt;Node45</title>
<path fill="none" stroke="#191970" d="M189.0727,-215.5372C235.8518,-212.2695 305.9246,-207.3748 354.8817,-203.955"/>
<polygon fill="#191970" stroke="#191970" points="355.2603,-207.4371 364.9921,-203.2487 354.7725,-200.4541 355.2603,-207.4371"/>
</g>
<!-- Node47 -->
<g id="node24" class="node">
<title>Node47</title>
<g id="a_node24"><a xlink:href="ac__out_8c.html#aaa0444bb417d9a634d5304b267f4fcda" target="_top" xlink:title="ac_off">
<polygon fill="#ffffff" stroke="#000000" points="242.5,-304.5 242.5,-323.5 286.5,-323.5 286.5,-304.5 242.5,-304.5"/>
<text text-anchor="middle" x="264.5" y="-311.5" font-family="Helvetica,sans-Serif" font-size="10.00" fill="#000000">ac_off</text>
</a>
</g>
</g>
<!-- Node25&#45;&gt;Node47 -->
<g id="edge33" class="edge">
<title>Node25&#45;&gt;Node47</title>
<path fill="none" stroke="#191970" d="M150.156,-228.7255C165.9411,-242.9256 196.7238,-269.8348 225,-290 229.3792,-293.123 234.1733,-296.2561 238.8647,-299.1797"/>
<polygon fill="#191970" stroke="#191970" points="237.2573,-302.2981 247.6237,-304.4862 240.8844,-296.3111 237.2573,-302.2981"/>
</g>
<!-- Node50 -->
<g id="node27" class="node">
<title>Node50</title>
<g id="a_node27"><a xlink:href="ac__out_8c.html#ad511e0e9abde1a9313a1843cef50f82a" target="_top" xlink:title="ac_test">
<polygon fill="#ffffff" stroke="#000000" points="240,-114.5 240,-133.5 289,-133.5 289,-114.5 240,-114.5"/>
<text text-anchor="middle" x="264.5" y="-121.5" font-family="Helvetica,sans-Serif" font-size="10.00" fill="#000000">ac_test</text>
</a>
</g>
</g>
<!-- Node25&#45;&gt;Node50 -->
<g id="edge40" class="edge">
<title>Node25&#45;&gt;Node50</title>
<path fill="none" stroke="#191970" d="M148.7674,-209.153C163.7216,-193.6551 194.5841,-163.2548 225,-143 227.4346,-141.3787 230.0285,-139.816 232.6792,-138.3308"/>
<polygon fill="#191970" stroke="#191970" points="234.5036,-141.327 241.76,-133.6072 231.2733,-135.1169 234.5036,-141.327"/>
</g>
<!-- Node27 -->
<g id="node4" class="node">
<title>Node27</title>
<g id="a_node4"><a xlink:href="esp-open-lwip_2include_2lwip_2sntp_8h.html#a557f2d3fcbc53da30e4f1b51ea5842e7" target="_top" xlink:title="sntp_get_current_timestamp">
<polygon fill="#ffffff" stroke="#000000" points="340,-.5 340,-19.5 483,-19.5 483,-.5 340,-.5"/>
<text text-anchor="middle" x="411.5" y="-7.5" font-family="Helvetica,sans-Serif" font-size="10.00" fill="#000000">sntp_get_current_timestamp</text>
</a>
</g>
</g>
<!-- Node26&#45;&gt;Node27 -->
<g id="edge3" class="edge">
<title>Node26&#45;&gt;Node27</title>
<path fill="none" stroke="#191970" d="M301.5943,-38.411C320.8178,-33.4417 344.4863,-27.3233 364.9294,-22.0387"/>
<polygon fill="#191970" stroke="#191970" points="365.8667,-25.4115 374.6724,-19.5201 364.1147,-18.6343 365.8667,-25.4115"/>
</g>
<!-- Node30&#45;&gt;Node28 -->
<g id="edge26" class="edge">
<title>Node30&#45;&gt;Node28</title>
<path fill="none" stroke="#191970" d="M449.5286,-247.5141C460.7355,-251.1642 472.7368,-255.9466 483,-262 501.6954,-273.0269 500.6037,-283.4811 519,-295 522.4064,-297.1329 526.0923,-299.1016 529.8552,-300.8982"/>
<polygon fill="#191970" stroke="#191970" points="528.6874,-304.2074 539.2522,-305.0048 531.4906,-297.7932 528.6874,-304.2074"/>
</g>
<!-- Node31 -->
<g id="node8" class="node">
<title>Node31</title>
<g id="a_node8"><a xlink:href="config_8c.html#ab4af9f95b39f096bb0fa8d73eb5a342e" target="_top" xlink:title="cfg_save_defered">
<polygon fill="#ffffff" stroke="#000000" points="519,-266.5 519,-285.5 615,-285.5 615,-266.5 519,-266.5"/>
<text text-anchor="middle" x="567" y="-273.5" font-family="Helvetica,sans-Serif" font-size="10.00" fill="#000000">cfg_save_defered</text>
</a>
</g>
</g>
<!-- Node30&#45;&gt;Node31 -->
<g id="edge7" class="edge">
<title>Node30&#45;&gt;Node31</title>
<path fill="none" stroke="#191970" d="M450.7392,-247.589C471.2591,-252.6035 496.567,-258.7881 518.3255,-264.1053"/>
<polygon fill="#191970" stroke="#191970" points="517.4979,-267.506 528.043,-266.4799 519.1597,-260.706 517.4979,-267.506"/>
</g>
<!-- Node40 -->
<g id="node17" class="node">
<title>Node40</title>
<g id="a_node17"><a xlink:href="gpio_8h.html#a83bac74ff5b2158e0c86da73ada29718" target="_top" xlink:title="gpio_output_set">
<polygon fill="#ffffff" stroke="#000000" points="924,-190.5 924,-209.5 1012,-209.5 1012,-190.5 924,-190.5"/>
<text text-anchor="middle" x="968" y="-197.5" font-family="Helvetica,sans-Serif" font-size="10.00" fill="#000000">gpio_output_set</text>
</a>
</g>
</g>
<!-- Node30&#45;&gt;Node40 -->
<g id="edge19" class="edge">
<title>Node30&#45;&gt;Node40</title>
<path fill="none" stroke="#191970" d="M457.7224,-236.8362C539.9815,-234.4805 717.1302,-228.1222 866,-214 881.6188,-212.5184 898.5181,-210.4069 913.9837,-208.2718"/>
<polygon fill="#191970" stroke="#191970" points="914.4987,-211.7339 923.9119,-206.8716 913.5211,-204.8025 914.4987,-211.7339"/>
</g>
<!-- Node41 -->
<g id="node18" class="node">
<title>Node41</title>
<g id="a_node18"><a xlink:href="led_8c.html#a6a83b60a5039ca4c8727fc1902630210" target="_top" xlink:title="led_pattern_b">
<polygon fill="#ffffff" stroke="#000000" points="528,-152.5 528,-171.5 606,-171.5 606,-152.5 528,-152.5"/>
<text text-anchor="middle" x="567" y="-159.5" font-family="Helvetica,sans-Serif" font-size="10.00" fill="#000000">led_pattern_b</text>
</a>
</g>
</g>
<!-- Node30&#45;&gt;Node41 -->
<g id="edge20" class="edge">
<title>Node30&#45;&gt;Node41</title>
<path fill="none" stroke="#191970" d="M456.9314,-228.3942C465.7676,-225.8427 474.8201,-222.7314 483,-219 506.6758,-208.2 530.985,-190.8959 547.3205,-178.1835"/>
<polygon fill="#191970" stroke="#191970" points="549.8713,-180.6268 555.5207,-171.6639 545.515,-175.1475 549.8713,-180.6268"/>
</g>
<!-- Node32 -->
<g id="node9" class="node">
<title>Node32</title>
<g id="a_node9"><a xlink:href="config_8c.html#a1e0d59e84f6bbc2564bcdf595b6972da" target="_top" xlink:title="config_save_timer_func">
<polygon fill="#ffffff" stroke="#000000" points="651,-319.5 651,-338.5 773,-338.5 773,-319.5 651,-319.5"/>
<text text-anchor="middle" x="712" y="-326.5" font-family="Helvetica,sans-Serif" font-size="10.00" fill="#000000">config_save_timer_func</text>
</a>
</g>
</g>
<!-- Node31&#45;&gt;Node32 -->
<g id="edge8" class="edge">
<title>Node31&#45;&gt;Node32</title>
<path fill="none" stroke="#191970" d="M593.2584,-285.5979C616.5604,-294.1152 650.8003,-306.6304 676.5321,-316.0359"/>
<polygon fill="#191970" stroke="#191970" points="675.3431,-319.3277 685.9369,-319.4735 677.7463,-312.7531 675.3431,-319.3277"/>
</g>
<!-- Node32&#45;&gt;Node32 -->
<g id="edge18" class="edge">
<title>Node32&#45;&gt;Node32</title>
<path fill="none" stroke="#191970" d="M692.888,-338.7571C683.5903,-347.5653 689.9609,-357 712,-357 726.1188,-357 733.8072,-353.128 735.0654,-348.0292"/>
<polygon fill="#191970" stroke="#191970" points="738.2537,-346.5831 731.112,-338.7571 731.8146,-349.3286 738.2537,-346.5831"/>
</g>
<!-- Node33 -->
<g id="node10" class="node">
<title>Node33</title>
<g id="a_node10"><a xlink:href="config_8c.html#acd3c633ba5f49d7bb46d6e4efa31ddb2" target="_top" xlink:title="cfg_save">
<polygon fill="#ffffff" stroke="#000000" points="809,-456.5 809,-475.5 866,-475.5 866,-456.5 809,-456.5"/>
<text text-anchor="middle" x="837.5" y="-463.5" font-family="Helvetica,sans-Serif" font-size="10.00" fill="#000000">cfg_save</text>
</a>
</g>
</g>
<!-- Node32&#45;&gt;Node33 -->
<g id="edge9" class="edge">
<title>Node32&#45;&gt;Node33</title>
<path fill="none" stroke="#191970" d="M721.0257,-338.8527C742.101,-361.8592 794.782,-419.3676 821.4685,-448.4995"/>
<polygon fill="#191970" stroke="#191970" points="819.2205,-451.227 828.5561,-456.2366 824.3821,-446.4986 819.2205,-451.227"/>
</g>
<!-- Node34 -->
<g id="node11" class="node">
<title>Node34</title>
<g id="a_node11"><a xlink:href="utils_8c.html#a8d9e1de95e2d6d103108a4b0ebf4d923" target="_top" xlink:title="ccit_crc16">
<polygon fill="#ffffff" stroke="#000000" points="937,-456.5 937,-475.5 999,-475.5 999,-456.5 937,-456.5"/>
<text text-anchor="middle" x="968" y="-463.5" font-family="Helvetica,sans-Serif" font-size="10.00" fill="#000000">ccit_crc16</text>
</a>
</g>
</g>
<!-- Node33&#45;&gt;Node34 -->
<g id="edge10" class="edge">
<title>Node33&#45;&gt;Node34</title>
<path fill="none" stroke="#191970" d="M866.1388,-466C883.8192,-466 906.8021,-466 926.4613,-466"/>
<polygon fill="#191970" stroke="#191970" points="926.6889,-469.5001 936.6888,-466 926.6888,-462.5001 926.6889,-469.5001"/>
</g>
<!-- Node35 -->
<g id="node12" class="node">
<title>Node35</title>
<g id="a_node12"><a xlink:href="ext__spi__flash_8c.html#ab4369189179b556a6b8e2155433c5f70" target="_top" xlink:title="ext_spi_flash_erase\l_sector">
<polygon fill="#ffffff" stroke="#000000" points="915.5,-407 915.5,-437 1020.5,-437 1020.5,-407 915.5,-407"/>
<text text-anchor="start" x="923.5" y="-425" font-family="Helvetica,sans-Serif" font-size="10.00" fill="#000000">ext_spi_flash_erase</text>
<text text-anchor="middle" x="968" y="-414" font-family="Helvetica,sans-Serif" font-size="10.00" fill="#000000">_sector</text>
</a>
</g>
</g>
<!-- Node33&#45;&gt;Node35 -->
<g id="edge11" class="edge">
<title>Node33&#45;&gt;Node35</title>
<path fill="none" stroke="#191970" d="M865.8166,-456.4527C879.8534,-451.7199 897.2904,-445.8408 913.7631,-440.2868"/>
<polygon fill="#191970" stroke="#191970" points="914.9599,-443.5769 923.3175,-437.0654 912.7234,-436.9438 914.9599,-443.5769"/>
</g>
<!-- Node37 -->
<g id="node14" class="node">
<title>Node37</title>
<g id="a_node14"><a xlink:href="ext__spi__flash_8c.html#a094d4588aff8210b1bb94ae90fb58526" target="_top" xlink:title="ext_spi_flash_read">
<polygon fill="#ffffff" stroke="#000000" points="918,-368.5 918,-387.5 1018,-387.5 1018,-368.5 918,-368.5"/>
<text text-anchor="middle" x="968" y="-375.5" font-family="Helvetica,sans-Serif" font-size="10.00" fill="#000000">ext_spi_flash_read</text>
</a>
</g>
</g>
<!-- Node33&#45;&gt;Node37 -->
<g id="edge13" class="edge">
<title>Node33&#45;&gt;Node37</title>
<path fill="none" stroke="#191970" d="M849.8614,-456.4296C855.0398,-452.2106 861.0044,-447.0669 866,-442 883.7395,-424.0075 880.9997,-412.0502 902,-398 905.7394,-395.4981 909.8032,-393.2998 914.0154,-391.3699"/>
<polygon fill="#191970" stroke="#191970" points="915.4553,-394.5628 923.4057,-387.5598 912.8235,-388.0764 915.4553,-394.5628"/>
</g>
<!-- Node38 -->
<g id="node15" class="node">
<title>Node38</title>
<g id="a_node15"><a xlink:href="ext__spi__flash_8c.html#a17e27ce44dd5aec4dd7a7de609093aae" target="_top" xlink:title="ext_spi_flash_write">
<polygon fill="#ffffff" stroke="#000000" points="917,-544.5 917,-563.5 1019,-563.5 1019,-544.5 917,-544.5"/>
<text text-anchor="middle" x="968" y="-551.5" font-family="Helvetica,sans-Serif" font-size="10.00" fill="#000000">ext_spi_flash_write</text>
</a>
</g>
</g>
<!-- Node33&#45;&gt;Node38 -->
<g id="edge15" class="edge">
<title>Node33&#45;&gt;Node38</title>
<path fill="none" stroke="#191970" d="M843.831,-475.5633C854.2075,-490.4879 876.2726,-519.2371 902,-535 905.5458,-537.1725 909.3504,-539.1056 913.2774,-540.8244"/>
<polygon fill="#191970" stroke="#191970" points="912.0103,-544.0869 922.5986,-544.4574 914.5524,-537.5648 912.0103,-544.0869"/>
</g>
<!-- Node39 -->
<g id="node16" class="node">
<title>Node39</title>
<g id="a_node16"><a xlink:href="user__interface_8h.html#ae68a7b6345630e42fde3e827108571e0" target="_top" xlink:title="system_param_save_with\l_protect">
<polygon fill="#ffffff" stroke="#000000" points="902,-495 902,-525 1034,-525 1034,-495 902,-495"/>
<text text-anchor="start" x="910" y="-513" font-family="Helvetica,sans-Serif" font-size="10.00" fill="#000000">system_param_save_with</text>
<text text-anchor="middle" x="968" y="-502" font-family="Helvetica,sans-Serif" font-size="10.00" fill="#000000">_protect</text>
</a>
</g>
</g>
<!-- Node33&#45;&gt;Node39 -->
<g id="edge17" class="edge">
<title>Node33&#45;&gt;Node39</title>
<path fill="none" stroke="#191970" d="M865.8166,-475.5473C879.8534,-480.2801 897.2904,-486.1592 913.7631,-491.7132"/>
<polygon fill="#191970" stroke="#191970" points="912.7234,-495.0562 923.3175,-494.9346 914.9599,-488.4231 912.7234,-495.0562"/>
</g>
<!-- Node36 -->
<g id="node13" class="node">
<title>Node36</title>
<g id="a_node13"><a xlink:href="spi_8c.html#acebb579091ca980f217d3e5f3bd1f1d5" target="_top" xlink:title="spi_transaction">
<polygon fill="#ffffff" stroke="#000000" points="1070,-412.5 1070,-431.5 1154,-431.5 1154,-412.5 1070,-412.5"/>
<text text-anchor="middle" x="1112" y="-419.5" font-family="Helvetica,sans-Serif" font-size="10.00" fill="#000000">spi_transaction</text>
</a>
</g>
</g>
<!-- Node35&#45;&gt;Node36 -->
<g id="edge12" class="edge">
<title>Node35&#45;&gt;Node36</title>
<path fill="none" stroke="#191970" d="M1020.8026,-422C1033.3446,-422 1046.725,-422 1059.264,-422"/>
<polygon fill="#191970" stroke="#191970" points="1059.562,-425.5001 1069.562,-422 1059.5619,-418.5001 1059.562,-425.5001"/>
</g>
<!-- Node37&#45;&gt;Node36 -->
<g id="edge14" class="edge">
<title>Node37&#45;&gt;Node36</title>
<path fill="none" stroke="#191970" d="M999.5652,-387.5353C1010.476,-390.8392 1022.7781,-394.5733 1034,-398 1046.0684,-401.6852 1059.1803,-405.7111 1071.149,-409.3945"/>
<polygon fill="#191970" stroke="#191970" points="1070.2985,-412.7948 1080.8857,-412.3931 1072.3588,-406.1048 1070.2985,-412.7948"/>
</g>
<!-- Node38&#45;&gt;Node36 -->
<g id="edge16" class="edge">
<title>Node38&#45;&gt;Node36</title>
<path fill="none" stroke="#191970" d="M1015.981,-544.4682C1022.3715,-542.0006 1028.579,-538.8985 1034,-535 1068.1891,-510.4128 1092.3361,-465.9482 1104.0196,-440.7488"/>
<polygon fill="#191970" stroke="#191970" points="1107.2533,-442.0908 1108.1326,-431.5326 1100.861,-439.238 1107.2533,-442.0908"/>
</g>
<!-- Node42 -->
<g id="node19" class="node">
<title>Node42</title>
<g id="a_node19"><a xlink:href="led_8c.html#af6a79b211d188e643a4f1cf7552ac7ee" target="_top" xlink:title="led_blinker_timer_func">
<polygon fill="#ffffff" stroke="#000000" points="653.5,-152.5 653.5,-171.5 770.5,-171.5 770.5,-152.5 653.5,-152.5"/>
<text text-anchor="middle" x="712" y="-159.5" font-family="Helvetica,sans-Serif" font-size="10.00" fill="#000000">led_blinker_timer_func</text>
</a>
</g>
</g>
<!-- Node41&#45;&gt;Node42 -->
<g id="edge21" class="edge">
<title>Node41&#45;&gt;Node42</title>
<path fill="none" stroke="#191970" d="M606.2391,-162C617.6882,-162 630.5503,-162 643.258,-162"/>
<polygon fill="#191970" stroke="#191970" points="643.3863,-165.5001 653.3862,-162 643.3862,-158.5001 643.3863,-165.5001"/>
</g>
<!-- Node43 -->
<g id="node20" class="node">
<title>Node43</title>
<g id="a_node20"><a xlink:href="led_8c.html#a0a23edee5e1db0cd2928c18a42ffe96f" target="_top" xlink:title="led_on">
<polygon fill="#ffffff" stroke="#000000" points="814,-152.5 814,-171.5 861,-171.5 861,-152.5 814,-152.5"/>
<text text-anchor="middle" x="837.5" y="-159.5" font-family="Helvetica,sans-Serif" font-size="10.00" fill="#000000">led_on</text>
</a>
</g>
</g>
<!-- Node42&#45;&gt;Node43 -->
<g id="edge22" class="edge">
<title>Node42&#45;&gt;Node43</title>
<path fill="none" stroke="#191970" d="M770.7081,-162C782.0714,-162 793.6123,-162 803.8318,-162"/>
<polygon fill="#191970" stroke="#191970" points="803.9405,-165.5001 813.9405,-162 803.9404,-158.5001 803.9405,-165.5001"/>
</g>
<!-- Node44 -->
<g id="node21" class="node">
<title>Node44</title>
<g id="a_node21"><a xlink:href="led_8c.html#a7ef0b27e501c77cd25b8bb7a2de6d8bd" target="_top" xlink:title="led_off">
<polygon fill="#ffffff" stroke="#000000" points="814,-269.5 814,-288.5 861,-288.5 861,-269.5 814,-269.5"/>
<text text-anchor="middle" x="837.5" y="-276.5" font-family="Helvetica,sans-Serif" font-size="10.00" fill="#000000">led_off</text>
</a>
</g>
</g>
<!-- Node42&#45;&gt;Node44 -->
<g id="edge24" class="edge">
<title>Node42&#45;&gt;Node44</title>
<path fill="none" stroke="#191970" d="M722.2702,-171.5746C743.5975,-191.4574 792.9149,-237.4346 819.5918,-262.3047"/>
<polygon fill="#191970" stroke="#191970" points="817.3868,-265.0341 827.0879,-269.2931 822.1601,-259.914 817.3868,-265.0341"/>
</g>
<!-- Node43&#45;&gt;Node40 -->
<g id="edge23" class="edge">
<title>Node43&#45;&gt;Node40</title>
<path fill="none" stroke="#191970" d="M861.1326,-168.8815C879.0137,-174.0883 904.0512,-181.3789 925.3972,-187.5946"/>
<polygon fill="#191970" stroke="#191970" points="924.6383,-191.0189 935.2181,-190.4543 926.5954,-184.298 924.6383,-191.0189"/>
</g>
<!-- Node44&#45;&gt;Node40 -->
<g id="edge25" class="edge">
<title>Node44&#45;&gt;Node40</title>
<path fill="none" stroke="#191970" d="M853.2413,-269.4708C875.6786,-255.8881 917.0629,-230.8355 943.5219,-214.8181"/>
<polygon fill="#191970" stroke="#191970" points="945.4607,-217.7359 952.2028,-209.563 941.8356,-211.7476 945.4607,-217.7359"/>
</g>
<!-- Node45&#45;&gt;Node28 -->
<g id="edge32" class="edge">
<title>Node45&#45;&gt;Node28</title>
<path fill="none" stroke="#191970" d="M458.1978,-206.1687C467.1262,-208.9935 475.8918,-213.0845 483,-219 511.7286,-242.9083 491.7207,-269.4505 519,-295 522.2901,-298.0815 526.1403,-300.6856 530.2034,-302.8808"/>
<polygon fill="#191970" stroke="#191970" points="528.7555,-306.0673 539.3037,-307.0604 531.6771,-299.7061 528.7555,-306.0673"/>
</g>
<!-- Node45&#45;&gt;Node31 -->
<g id="edge28" class="edge">
<title>Node45&#45;&gt;Node31</title>
<path fill="none" stroke="#191970" d="M456.9314,-209.6058C465.7676,-212.1573 474.8201,-215.2686 483,-219 506.6758,-229.8 530.985,-247.1041 547.3205,-259.8165"/>
<polygon fill="#191970" stroke="#191970" points="545.515,-262.8525 555.5207,-266.3361 549.8713,-257.3732 545.515,-262.8525"/>
</g>
<!-- Node45&#45;&gt;Node40 -->
<g id="edge29" class="edge">
<title>Node45&#45;&gt;Node40</title>
<path fill="none" stroke="#191970" d="M458.4673,-200C561.0234,-200 804.5179,-200 913.558,-200"/>
<polygon fill="#191970" stroke="#191970" points="913.6813,-203.5001 923.6813,-200 913.6813,-196.5001 913.6813,-203.5001"/>
</g>
<!-- Node46 -->
<g id="node23" class="node">
<title>Node46</title>
<g id="a_node23"><a xlink:href="led_8c.html#aa00afefe8ba48ccd7df635fbc7d4c9fc" target="_top" xlink:title="led_pattern_a">
<polygon fill="#ffffff" stroke="#000000" points="528,-114.5 528,-133.5 606,-133.5 606,-114.5 528,-114.5"/>
<text text-anchor="middle" x="567" y="-121.5" font-family="Helvetica,sans-Serif" font-size="10.00" fill="#000000">led_pattern_a</text>
</a>
</g>
</g>
<!-- Node45&#45;&gt;Node46 -->
<g id="edge30" class="edge">
<title>Node45&#45;&gt;Node46</title>
<path fill="none" stroke="#191970" d="M428.3356,-190.3256C449.2536,-178.4807 486.1992,-158.1316 519,-143 523.1403,-141.09 527.5307,-139.1888 531.9083,-137.3683"/>
<polygon fill="#191970" stroke="#191970" points="533.4122,-140.5355 541.369,-133.5397 530.7863,-134.0466 533.4122,-140.5355"/>
</g>
<!-- Node46&#45;&gt;Node42 -->
<g id="edge31" class="edge">
<title>Node46&#45;&gt;Node42</title>
<path fill="none" stroke="#191970" d="M603.5896,-133.589C622.4654,-138.5358 645.6859,-144.6211 665.7879,-149.8892"/>
<polygon fill="#191970" stroke="#191970" points="665.1129,-153.3305 675.6735,-152.4799 666.8875,-146.5591 665.1129,-153.3305"/>
</g>
<!-- Node48 -->
<g id="node25" class="node">
<title>Node48</title>
<g id="a_node25"><a xlink:href="ac__out_8c.html#a07e9d906599f62767ef1efb99d8fce11" target="_top" xlink:title="ac_out_off_timer_func">
<polygon fill="#ffffff" stroke="#000000" points="354,-380.5 354,-399.5 469,-399.5 469,-380.5 354,-380.5"/>
<text text-anchor="middle" x="411.5" y="-387.5" font-family="Helvetica,sans-Serif" font-size="10.00" fill="#000000">ac_out_off_timer_func</text>
</a>
</g>
</g>
<!-- Node47&#45;&gt;Node48 -->
<g id="edge34" class="edge">
<title>Node47&#45;&gt;Node48</title>
<path fill="none" stroke="#191970" d="M283.1177,-323.6255C308.6324,-336.8168 354.6474,-360.6068 384.0999,-375.834"/>
<polygon fill="#191970" stroke="#191970" points="382.5431,-378.9691 393.0335,-380.4527 385.7579,-372.751 382.5431,-378.9691"/>
</g>
<!-- Node48&#45;&gt;Node28 -->
<g id="edge39" class="edge">
<title>Node48&#45;&gt;Node28</title>
<path fill="none" stroke="#191970" d="M447.7628,-380.4404C459.3667,-376.7023 472.0389,-371.881 483,-366 500.8613,-356.4168 501.8516,-348.8073 519,-338 524.4831,-334.5445 530.5305,-331.1948 536.4307,-328.1486"/>
<polygon fill="#191970" stroke="#191970" points="538.0895,-331.2325 545.479,-323.6399 534.9676,-324.9672 538.0895,-331.2325"/>
</g>
<!-- Node48&#45;&gt;Node40 -->
<g id="edge35" class="edge">
<title>Node48&#45;&gt;Node40</title>
<path fill="none" stroke="#191970" d="M442.4832,-399.5968C507.5243,-417.9018 661.4811,-451.4545 773,-398 860.0001,-356.2981 930.0652,-258.9334 956.568,-218.3103"/>
<polygon fill="#191970" stroke="#191970" points="959.6417,-220.0006 962.0884,-209.6921 953.7473,-216.2248 959.6417,-220.0006"/>
</g>
<!-- Node48&#45;&gt;Node44 -->
<g id="edge36" class="edge">
<title>Node48&#45;&gt;Node44</title>
<path fill="none" stroke="#191970" d="M463.7361,-399.5207C537.5753,-410.2329 674.4469,-419.784 773,-366 800.5162,-350.9834 819.5486,-318.6273 829.477,-297.8851"/>
<polygon fill="#191970" stroke="#191970" points="832.6717,-299.315 833.617,-288.7624 826.2973,-296.4222 832.6717,-299.315"/>
</g>
<!-- Node49 -->
<g id="node26" class="node">
<title>Node49</title>
<g id="a_node26"><a xlink:href="led_8c.html#a7cd1d03b4baad9cb20bf1a43046f61a2" target="_top" xlink:title="led_stop_pattern">
<polygon fill="#ffffff" stroke="#000000" points="666.5,-271.5 666.5,-290.5 757.5,-290.5 757.5,-271.5 666.5,-271.5"/>
<text text-anchor="middle" x="712" y="-278.5" font-family="Helvetica,sans-Serif" font-size="10.00" fill="#000000">led_stop_pattern</text>
</a>
</g>
</g>
<!-- Node48&#45;&gt;Node49 -->
<g id="edge37" class="edge">
<title>Node48&#45;&gt;Node49</title>
<path fill="none" stroke="#191970" d="M461.0185,-380.4299C503.1262,-371.2916 564.5995,-355.5566 615,-333 632.3302,-325.2439 634.394,-319.2051 651,-310 660.538,-304.7129 671.1964,-299.44 680.9024,-294.8687"/>
<polygon fill="#191970" stroke="#191970" points="682.6106,-297.9348 690.2142,-290.5568 679.6691,-291.5828 682.6106,-297.9348"/>
</g>
<!-- Node49&#45;&gt;Node44 -->
<g id="edge38" class="edge">
<title>Node49&#45;&gt;Node44</title>
<path fill="none" stroke="#191970" d="M757.6634,-280.2723C772.8543,-280.0302 789.4915,-279.7651 803.6278,-279.5398"/>
<polygon fill="#191970" stroke="#191970" points="803.9423,-283.0353 813.8852,-279.3763 803.8307,-276.0362 803.9423,-283.0353"/>
</g>
<!-- Node50&#45;&gt;Node28 -->
<g id="edge47" class="edge">
<title>Node50&#45;&gt;Node28</title>
<path fill="none" stroke="#191970" d="M289.1846,-132.0704C294.6599,-134.8193 300.0126,-138.3998 304,-143 338.8014,-183.1494 301.3218,-220.5706 340,-257 353.8059,-270.0032 468.2091,-294.3567 529.1366,-306.589"/>
<polygon fill="#191970" stroke="#191970" points="528.6525,-310.0613 539.1441,-308.5858 530.0222,-303.1967 528.6525,-310.0613"/>
</g>
<!-- Node50&#45;&gt;Node40 -->
<g id="edge45" class="edge">
<title>Node50&#45;&gt;Node40</title>
<path fill="none" stroke="#191970" d="M280.1009,-114.3923C294.9657,-105.67 318.2422,-93.1157 340,-86 437.2253,-54.2032 464.7073,-48 567,-48 567,-48 567,-48 712,-48 816.7153,-48 916.017,-143.1917 952.8943,-182.912"/>
<polygon fill="#191970" stroke="#191970" points="950.4751,-185.4538 959.7955,-190.4917 955.6512,-180.7411 950.4751,-185.4538"/>
</g>
<!-- Node50&#45;&gt;Node46 -->
<g id="edge46" class="edge">
<title>Node50&#45;&gt;Node46</title>
<path fill="none" stroke="#191970" d="M289.2548,-124C339.0804,-124 452.2867,-124 517.7515,-124"/>
<polygon fill="#191970" stroke="#191970" points="517.8313,-127.5001 527.8312,-124 517.8312,-120.5001 517.8313,-127.5001"/>
</g>
<!-- Node51 -->
<g id="node28" class="node">
<title>Node51</title>
<g id="a_node28"><a xlink:href="ac__out_8c.html#aa4f3e08453187a0500d0e5441274c7a1" target="_top" xlink:title="ac_test_timer_func">
<polygon fill="#ffffff" stroke="#000000" points="361,-95.5 361,-114.5 462,-114.5 462,-95.5 361,-95.5"/>
<text text-anchor="middle" x="411.5" y="-102.5" font-family="Helvetica,sans-Serif" font-size="10.00" fill="#000000">ac_test_timer_func</text>
</a>
</g>
</g>
<!-- Node50&#45;&gt;Node51 -->
<g id="edge41" class="edge">
<title>Node50&#45;&gt;Node51</title>
<path fill="none" stroke="#191970" d="M289.1045,-120.8198C305.968,-118.6402 329.1162,-115.6483 350.7454,-112.8526"/>
<polygon fill="#191970" stroke="#191970" points="351.4076,-116.2963 360.8764,-111.5432 350.5102,-109.354 351.4076,-116.2963"/>
</g>
<!-- Node51&#45;&gt;Node40 -->
<g id="edge42" class="edge">
<title>Node51&#45;&gt;Node40</title>
<path fill="none" stroke="#191970" d="M462.2255,-101.339C547.9719,-96.8649 725.9163,-95.0299 866,-143 895.4578,-153.0875 926.2595,-171.5697 946.2037,-184.7536"/>
<polygon fill="#191970" stroke="#191970" points="944.3116,-187.6992 954.5593,-190.3891 948.2258,-181.8957 944.3116,-187.6992"/>
</g>
<!-- Node51&#45;&gt;Node41 -->
<g id="edge44" class="edge">
<title>Node51&#45;&gt;Node41</title>
<path fill="none" stroke="#191970" d="M437.5272,-114.5405C463.2042,-123.9527 502.6552,-138.4138 531.262,-148.8999"/>
<polygon fill="#191970" stroke="#191970" points="530.2942,-152.2728 540.8879,-152.4284 532.7034,-145.7004 530.2942,-152.2728"/>
</g>
<!-- Node51&#45;&gt;Node46 -->
<g id="edge43" class="edge">
<title>Node51&#45;&gt;Node46</title>
<path fill="none" stroke="#191970" d="M462.4165,-111.2213C480.1869,-113.3926 500.0888,-115.8244 517.7233,-117.9791"/>
<polygon fill="#191970" stroke="#191970" points="517.4603,-121.4729 527.811,-119.2116 518.3093,-114.5245 517.4603,-121.4729"/>
</g>
</g>
</svg>
