<?xml version="1.0" encoding="UTF-8" standalone="no"?>
<!DOCTYPE svg PUBLIC "-//W3C//DTD SVG 1.1//EN"
 "http://www.w3.org/Graphics/SVG/1.1/DTD/svg11.dtd">
<!-- Generated by graphviz version 2.40.1 (20161225.0304)
 -->
<!-- Title: add_cron_job_from_query Pages: 1 -->
<svg width="812pt" height="204pt"
 viewBox="0.00 0.00 812.00 203.50" xmlns="http://www.w3.org/2000/svg" xmlns:xlink="http://www.w3.org/1999/xlink">
<g id="graph0" class="graph" transform="scale(1 1) rotate(0) translate(4 199.5)">
<title>add_cron_job_from_query</title>
<polygon fill="#ffffff" stroke="transparent" points="-4,4 -4,-199.5 808,-199.5 808,4 -4,4"/>
<!-- Node0 -->
<g id="node1" class="node">
<title>Node0</title>
<polygon fill="#bfbfbf" stroke="#000000" points="0,-69 0,-88 133,-88 133,-69 0,-69"/>
<text text-anchor="middle" x="66.5" y="-76" font-family="Helvetica,sans-Serif" font-size="10.00" fill="#000000">add_cron_job_from_query</text>
</g>
<!-- Node1 -->
<g id="node2" class="node">
<title>Node1</title>
<g id="a_node2"><a xlink:href="config_8c.html#ab4af9f95b39f096bb0fa8d73eb5a342e" target="_top" xlink:title="cfg_save_defered">
<polygon fill="#ffffff" stroke="#000000" points="169,-88 169,-107 265,-107 265,-88 169,-88"/>
<text text-anchor="middle" x="217" y="-95" font-family="Helvetica,sans-Serif" font-size="10.00" fill="#000000">cfg_save_defered</text>
</a>
</g>
</g>
<!-- Node0&#45;&gt;Node1 -->
<g id="edge1" class="edge">
<title>Node0&#45;&gt;Node1</title>
<path fill="none" stroke="#191970" d="M133.3879,-86.9443C141.8714,-88.0153 150.4985,-89.1045 158.8306,-90.1564"/>
<polygon fill="#191970" stroke="#191970" points="158.4585,-93.6371 168.8182,-91.4172 159.3353,-86.6922 158.4585,-93.6371"/>
</g>
<!-- Node10 -->
<g id="node11" class="node">
<title>Node10</title>
<g id="a_node11"><a xlink:href="espmissingincludes_8h.html#a0bbba7104c948de849f8051d9ac956e3" target="_top" xlink:title="os_printf">
<polygon fill="#ffffff" stroke="#000000" points="189.5,-50 189.5,-69 244.5,-69 244.5,-50 189.5,-50"/>
<text text-anchor="middle" x="217" y="-57" font-family="Helvetica,sans-Serif" font-size="10.00" fill="#000000">os_printf</text>
</a>
</g>
</g>
<!-- Node0&#45;&gt;Node10 -->
<g id="edge13" class="edge">
<title>Node0&#45;&gt;Node10</title>
<path fill="none" stroke="#191970" d="M133.3879,-70.0557C149.0277,-68.0812 165.1554,-66.0452 179.0234,-64.2944"/>
<polygon fill="#191970" stroke="#191970" points="179.6595,-67.742 189.1424,-63.0169 178.7827,-60.7971 179.6595,-67.742"/>
</g>
<!-- Node2 -->
<g id="node3" class="node">
<title>Node2</title>
<g id="a_node3"><a xlink:href="config_8c.html#a1e0d59e84f6bbc2564bcdf595b6972da" target="_top" xlink:title="config_save_timer_func">
<polygon fill="#ffffff" stroke="#000000" points="301,-88 301,-107 423,-107 423,-88 301,-88"/>
<text text-anchor="middle" x="362" y="-95" font-family="Helvetica,sans-Serif" font-size="10.00" fill="#000000">config_save_timer_func</text>
</a>
</g>
</g>
<!-- Node1&#45;&gt;Node2 -->
<g id="edge2" class="edge">
<title>Node1&#45;&gt;Node2</title>
<path fill="none" stroke="#191970" d="M265.2829,-97.5C273.4544,-97.5 282.0895,-97.5 290.7021,-97.5"/>
<polygon fill="#191970" stroke="#191970" points="290.773,-101.0001 300.7729,-97.5 290.7729,-94.0001 290.773,-101.0001"/>
</g>
<!-- Node2&#45;&gt;Node2 -->
<g id="edge12" class="edge">
<title>Node2&#45;&gt;Node2</title>
<path fill="none" stroke="#191970" d="M342.888,-107.2571C333.5903,-116.0653 339.9609,-125.5 362,-125.5 376.1188,-125.5 383.8072,-121.628 385.0654,-116.5292"/>
<polygon fill="#191970" stroke="#191970" points="388.2537,-115.0831 381.112,-107.2571 381.8146,-117.8286 388.2537,-115.0831"/>
</g>
<!-- Node3 -->
<g id="node4" class="node">
<title>Node3</title>
<g id="a_node4"><a xlink:href="config_8c.html#acd3c633ba5f49d7bb46d6e4efa31ddb2" target="_top" xlink:title="cfg_save">
<polygon fill="#ffffff" stroke="#000000" points="459,-88 459,-107 516,-107 516,-88 459,-88"/>
<text text-anchor="middle" x="487.5" y="-95" font-family="Helvetica,sans-Serif" font-size="10.00" fill="#000000">cfg_save</text>
</a>
</g>
</g>
<!-- Node2&#45;&gt;Node3 -->
<g id="edge3" class="edge">
<title>Node2&#45;&gt;Node3</title>
<path fill="none" stroke="#191970" d="M423.2794,-97.5C431.9321,-97.5 440.6221,-97.5 448.6908,-97.5"/>
<polygon fill="#191970" stroke="#191970" points="448.8848,-101.0001 458.8847,-97.5 448.8847,-94.0001 448.8848,-101.0001"/>
</g>
<!-- Node4 -->
<g id="node5" class="node">
<title>Node4</title>
<g id="a_node5"><a xlink:href="utils_8c.html#a8d9e1de95e2d6d103108a4b0ebf4d923" target="_top" xlink:title="ccit_crc16">
<polygon fill="#ffffff" stroke="#000000" points="587,-176 587,-195 649,-195 649,-176 587,-176"/>
<text text-anchor="middle" x="618" y="-183" font-family="Helvetica,sans-Serif" font-size="10.00" fill="#000000">ccit_crc16</text>
</a>
</g>
</g>
<!-- Node3&#45;&gt;Node4 -->
<g id="edge4" class="edge">
<title>Node3&#45;&gt;Node4</title>
<path fill="none" stroke="#191970" d="M493.831,-107.0633C504.2075,-121.9879 526.2726,-150.7371 552,-166.5 559.5268,-171.1116 568.2198,-174.6449 576.775,-177.338"/>
<polygon fill="#191970" stroke="#191970" points="576.1022,-180.7846 586.6767,-180.1276 578.0005,-174.0469 576.1022,-180.7846"/>
</g>
<!-- Node5 -->
<g id="node6" class="node">
<title>Node5</title>
<g id="a_node6"><a xlink:href="ext__spi__flash_8c.html#ab4369189179b556a6b8e2155433c5f70" target="_top" xlink:title="ext_spi_flash_erase\l_sector">
<polygon fill="#ffffff" stroke="#000000" points="565.5,-126.5 565.5,-156.5 670.5,-156.5 670.5,-126.5 565.5,-126.5"/>
<text text-anchor="start" x="573.5" y="-144.5" font-family="Helvetica,sans-Serif" font-size="10.00" fill="#000000">ext_spi_flash_erase</text>
<text text-anchor="middle" x="618" y="-133.5" font-family="Helvetica,sans-Serif" font-size="10.00" fill="#000000">_sector</text>
</a>
</g>
</g>
<!-- Node3&#45;&gt;Node5 -->
<g id="edge5" class="edge">
<title>Node3&#45;&gt;Node5</title>
<path fill="none" stroke="#191970" d="M515.8166,-107.0473C529.8534,-111.7801 547.2904,-117.6592 563.7631,-123.2132"/>
<polygon fill="#191970" stroke="#191970" points="562.7234,-126.5562 573.3175,-126.4346 564.9599,-119.9231 562.7234,-126.5562"/>
</g>
<!-- Node7 -->
<g id="node8" class="node">
<title>Node7</title>
<g id="a_node8"><a xlink:href="ext__spi__flash_8c.html#a094d4588aff8210b1bb94ae90fb58526" target="_top" xlink:title="ext_spi_flash_read">
<polygon fill="#ffffff" stroke="#000000" points="568,-88 568,-107 668,-107 668,-88 568,-88"/>
<text text-anchor="middle" x="618" y="-95" font-family="Helvetica,sans-Serif" font-size="10.00" fill="#000000">ext_spi_flash_read</text>
</a>
</g>
</g>
<!-- Node3&#45;&gt;Node7 -->
<g id="edge7" class="edge">
<title>Node3&#45;&gt;Node7</title>
<path fill="none" stroke="#191970" d="M516.1388,-97.5C528.3345,-97.5 543.0532,-97.5 557.4636,-97.5"/>
<polygon fill="#191970" stroke="#191970" points="557.8617,-101.0001 567.8617,-97.5 557.8617,-94.0001 557.8617,-101.0001"/>
</g>
<!-- Node8 -->
<g id="node9" class="node">
<title>Node8</title>
<g id="a_node9"><a xlink:href="ext__spi__flash_8c.html#a17e27ce44dd5aec4dd7a7de609093aae" target="_top" xlink:title="ext_spi_flash_write">
<polygon fill="#ffffff" stroke="#000000" points="567,-50 567,-69 669,-69 669,-50 567,-50"/>
<text text-anchor="middle" x="618" y="-57" font-family="Helvetica,sans-Serif" font-size="10.00" fill="#000000">ext_spi_flash_write</text>
</a>
</g>
</g>
<!-- Node3&#45;&gt;Node8 -->
<g id="edge9" class="edge">
<title>Node3&#45;&gt;Node8</title>
<path fill="none" stroke="#191970" d="M516.0656,-89.0442C527.2662,-85.7394 540.2316,-81.9272 552,-78.5 559.4028,-76.3441 567.2769,-74.0651 574.9117,-71.8627"/>
<polygon fill="#191970" stroke="#191970" points="576.1107,-75.1597 584.7511,-69.0284 574.173,-68.4333 576.1107,-75.1597"/>
</g>
<!-- Node9 -->
<g id="node10" class="node">
<title>Node9</title>
<g id="a_node10"><a xlink:href="user__interface_8h.html#ae68a7b6345630e42fde3e827108571e0" target="_top" xlink:title="system_param_save_with\l_protect">
<polygon fill="#ffffff" stroke="#000000" points="552,-.5 552,-30.5 684,-30.5 684,-.5 552,-.5"/>
<text text-anchor="start" x="560" y="-18.5" font-family="Helvetica,sans-Serif" font-size="10.00" fill="#000000">system_param_save_with</text>
<text text-anchor="middle" x="618" y="-7.5" font-family="Helvetica,sans-Serif" font-size="10.00" fill="#000000">_protect</text>
</a>
</g>
</g>
<!-- Node3&#45;&gt;Node9 -->
<g id="edge11" class="edge">
<title>Node3&#45;&gt;Node9</title>
<path fill="none" stroke="#191970" d="M496.261,-87.8368C507.9401,-75.4386 529.7366,-53.9338 552,-40.5 555.3276,-38.4921 558.8438,-36.598 562.4508,-34.8203"/>
<polygon fill="#191970" stroke="#191970" points="563.9211,-37.9966 571.5481,-30.6427 560.9999,-31.6352 563.9211,-37.9966"/>
</g>
<!-- Node6 -->
<g id="node7" class="node">
<title>Node6</title>
<g id="a_node7"><a xlink:href="spi_8c.html#acebb579091ca980f217d3e5f3bd1f1d5" target="_top" xlink:title="spi_transaction">
<polygon fill="#ffffff" stroke="#000000" points="720,-88 720,-107 804,-107 804,-88 720,-88"/>
<text text-anchor="middle" x="762" y="-95" font-family="Helvetica,sans-Serif" font-size="10.00" fill="#000000">spi_transaction</text>
</a>
</g>
</g>
<!-- Node5&#45;&gt;Node6 -->
<g id="edge6" class="edge">
<title>Node5&#45;&gt;Node6</title>
<path fill="none" stroke="#191970" d="M667.1539,-126.4808C684.5617,-121.1617 703.9573,-115.2353 720.6503,-110.1346"/>
<polygon fill="#191970" stroke="#191970" points="722.1122,-113.3478 730.6529,-107.0783 720.0666,-106.6533 722.1122,-113.3478"/>
</g>
<!-- Node7&#45;&gt;Node6 -->
<g id="edge8" class="edge">
<title>Node7&#45;&gt;Node6</title>
<path fill="none" stroke="#191970" d="M668.3642,-97.5C681.678,-97.5 696.0799,-97.5 709.5035,-97.5"/>
<polygon fill="#191970" stroke="#191970" points="709.5438,-101.0001 719.5437,-97.5 709.5437,-94.0001 709.5438,-101.0001"/>
</g>
<!-- Node8&#45;&gt;Node6 -->
<g id="edge10" class="edge">
<title>Node8&#45;&gt;Node6</title>
<path fill="none" stroke="#191970" d="M654.3373,-69.089C673.0829,-74.0358 696.1432,-80.1211 716.1066,-85.3892"/>
<polygon fill="#191970" stroke="#191970" points="715.3619,-88.8125 725.924,-87.9799 717.1481,-82.0442 715.3619,-88.8125"/>
</g>
</g>
</svg>
