<?xml version="1.0" encoding="UTF-8" standalone="no"?>
<!DOCTYPE svg PUBLIC "-//W3C//DTD SVG 1.1//EN"
 "http://www.w3.org/Graphics/SVG/1.1/DTD/svg11.dtd">
<!-- Generated by graphviz version 2.39.20160927.1334 (20160927.1334)
 -->
<!-- Title: encrypt_aes_hmac_combined Pages: 1 -->
<svg width="1002pt" height="262pt"
 viewBox="0.00 0.00 1002.00 262.00" xmlns="http://www.w3.org/2000/svg" xmlns:xlink="http://www.w3.org/1999/xlink">
<g id="graph0" class="graph" transform="scale(1 1) rotate(0) translate(4 258)">
<title>encrypt_aes_hmac_combined</title>
<polygon fill="#ffffff" stroke="transparent" points="-4,4 -4,-258 998,-258 998,4 -4,4"/>
<!-- Node1 -->
<g id="node1" class="node">
<title>Node1</title>
<polygon fill="#bfbfbf" stroke="#000000" points="0,-120.5 0,-139.5 150,-139.5 150,-120.5 0,-120.5"/>
<text text-anchor="middle" x="75" y="-127.5" font-family="Helvetica,sans-Serif" font-size="10.00" fill="#000000">encrypt_aes_hmac_combined</text>
</g>
<!-- Node2 -->
<g id="node2" class="node">
<title>Node2</title>
<g id="a_node2"><a xlink:href="en61107__request_8c.html#aa3b162cf5364986ea19e831ac2b18f76" target="_top" xlink:title="en61107_received_task">
<polygon fill="#ffffff" stroke="#000000" points="186,-234.5 186,-253.5 309,-253.5 309,-234.5 186,-234.5"/>
<text text-anchor="middle" x="247.5" y="-241.5" font-family="Helvetica,sans-Serif" font-size="10.00" fill="#000000">en61107_received_task</text>
</a>
</g>
</g>
<!-- Node1&#45;&gt;Node2 -->
<g id="edge1" class="edge">
<title>Node1&#45;&gt;Node2</title>
<path fill="none" stroke="#191970" d="M92.0033,-146.642C112.772,-166.26 149.647,-198.862 186,-220 195.809,-225.704 207.229,-230.585 217.546,-234.427"/>
<polygon fill="#191970" stroke="#191970" points="94.2656,-143.962 84.6228,-139.573 89.4236,-149.018 94.2656,-143.962"/>
</g>
<!-- Node5 -->
<g id="node5" class="node">
<title>Node5</title>
<g id="a_node5"><a xlink:href="en61107__request_8h.html#a7384d014eb9e833f64ecf4a9f86f87be" target="_top" xlink:title="en61107_request_send">
<polygon fill="#ffffff" stroke="#000000" points="186.5,-0.5 186.5,-19.5 308.5,-19.5 308.5,-0.5 186.5,-0.5"/>
<text text-anchor="middle" x="247.5" y="-7.5" font-family="Helvetica,sans-Serif" font-size="10.00" fill="#000000">en61107_request_send</text>
</a>
</g>
</g>
<!-- Node1&#45;&gt;Node5 -->
<g id="edge4" class="edge">
<title>Node1&#45;&gt;Node5</title>
<path fill="none" stroke="#191970" d="M90.8798,-113.092C111.254,-92.1947 148.466,-56.6302 186,-34 195.619,-28.2005 206.886,-23.3242 217.13,-19.5141"/>
<polygon fill="#191970" stroke="#191970" points="88.3344,-110.69 83.93,-120.326 93.3821,-115.54 88.3344,-110.69"/>
</g>
<!-- Node6 -->
<g id="node6" class="node">
<title>Node6</title>
<g id="a_node6"><a xlink:href="user__main_8c.html#af2c051d5ceacd30f90c08d6f584deff2" target="_top" xlink:title="sample_timer_func">
<polygon fill="#ffffff" stroke="#000000" points="350.5,-32.5 350.5,-51.5 451.5,-51.5 451.5,-32.5 350.5,-32.5"/>
<text text-anchor="middle" x="401" y="-39.5" font-family="Helvetica,sans-Serif" font-size="10.00" fill="#000000">sample_timer_func</text>
</a>
</g>
</g>
<!-- Node1&#45;&gt;Node6 -->
<g id="edge22" class="edge">
<title>Node1&#45;&gt;Node6</title>
<path fill="none" stroke="#191970" d="M96.2074,-114.505C117.695,-99.6679 152.46,-77.9659 186,-67 240.29,-49.2498 305.907,-43.7645 350.26,-42.2371"/>
<polygon fill="#191970" stroke="#191970" points="94.0116,-111.771 87.8539,-120.393 98.0442,-117.493 94.0116,-111.771"/>
</g>
<!-- Node7 -->
<g id="node7" class="node">
<title>Node7</title>
<g id="a_node7"><a xlink:href="user__main_8h.html#a06f2b383d99fcad9d0f37d1ca2224898" target="_top" xlink:title="mqttConnectedCb">
<polygon fill="#ffffff" stroke="#000000" points="501,-120.5 501,-139.5 598,-139.5 598,-120.5 501,-120.5"/>
<text text-anchor="middle" x="549.5" y="-127.5" font-family="Helvetica,sans-Serif" font-size="10.00" fill="#000000">mqttConnectedCb</text>
</a>
</g>
</g>
<!-- Node1&#45;&gt;Node7 -->
<g id="edge19" class="edge">
<title>Node1&#45;&gt;Node7</title>
<path fill="none" stroke="#191970" d="M160.202,-130C259.59,-130 420.493,-130 500.743,-130"/>
<polygon fill="#191970" stroke="#191970" points="160.186,-126.5 150.186,-130 160.186,-133.5 160.186,-126.5"/>
</g>
<!-- Node11 -->
<g id="node11" class="node">
<title>Node11</title>
<g id="a_node11"><a xlink:href="kmp__request_8c.html#a3f6b790a06b933b78f40ade5e9a16131" target="_top" xlink:title="kmp_received_task">
<polygon fill="#ffffff" stroke="#000000" points="349.5,-196.5 349.5,-215.5 452.5,-215.5 452.5,-196.5 349.5,-196.5"/>
<text text-anchor="middle" x="401" y="-203.5" font-family="Helvetica,sans-Serif" font-size="10.00" fill="#000000">kmp_received_task</text>
</a>
</g>
</g>
<!-- Node1&#45;&gt;Node11 -->
<g id="edge12" class="edge">
<title>Node1&#45;&gt;Node11</title>
<path fill="none" stroke="#191970" d="M100.223,-144.742C122.141,-156.826 155.132,-173.303 186,-182 240.407,-197.329 305.15,-202.93 349.273,-204.942"/>
<polygon fill="#191970" stroke="#191970" points="101.696,-141.554 91.2634,-139.705 98.2657,-147.656 101.696,-141.554"/>
</g>
<!-- Node13 -->
<g id="node13" class="node">
<title>Node13</title>
<g id="a_node13"><a xlink:href="kmp__request_8h.html#a3b022dcdc832786eb06126b5e6879604" target="_top" xlink:title="kmp_request_send">
<polygon fill="#ffffff" stroke="#000000" points="196.5,-76.5 196.5,-95.5 298.5,-95.5 298.5,-76.5 196.5,-76.5"/>
<text text-anchor="middle" x="247.5" y="-83.5" font-family="Helvetica,sans-Serif" font-size="10.00" fill="#000000">kmp_request_send</text>
</a>
</g>
</g>
<!-- Node1&#45;&gt;Node13 -->
<g id="edge15" class="edge">
<title>Node1&#45;&gt;Node13</title>
<path fill="none" stroke="#191970" d="M122.288,-117.938C149.953,-110.882 184.39,-102.098 210.143,-95.5287"/>
<polygon fill="#191970" stroke="#191970" points="121.255,-114.59 112.43,-120.453 122.985,-121.372 121.255,-114.59"/>
</g>
<!-- Node15 -->
<g id="node15" class="node">
<title>Node15</title>
<g id="a_node15"><a xlink:href="user__main_8h.html#a53fca5688835df983e3ff1a91d387618" target="_top" xlink:title="mqttDataCb">
<polygon fill="#ffffff" stroke="#000000" points="514.5,-158.5 514.5,-177.5 584.5,-177.5 584.5,-158.5 514.5,-158.5"/>
<text text-anchor="middle" x="549.5" y="-165.5" font-family="Helvetica,sans-Serif" font-size="10.00" fill="#000000">mqttDataCb</text>
</a>
</g>
</g>
<!-- Node1&#45;&gt;Node15 -->
<g id="edge20" class="edge">
<title>Node1&#45;&gt;Node15</title>
<path fill="none" stroke="#191970" d="M155.57,-140.734C165.802,-141.928 176.139,-143.053 186,-144 306.245,-155.542 449.406,-163.221 514.354,-166.376"/>
<polygon fill="#191970" stroke="#191970" points="155.738,-137.229 145.394,-139.52 154.908,-144.18 155.738,-137.229"/>
</g>
<!-- Node3 -->
<g id="node3" class="node">
<title>Node3</title>
<g id="a_node3"><a xlink:href="en61107__request_8h.html#acd43242675a3f25e7c3b530eac9d8b3a" target="_top" xlink:title="en61107_request_init">
<polygon fill="#ffffff" stroke="#000000" points="493,-234.5 493,-253.5 606,-253.5 606,-234.5 493,-234.5"/>
<text text-anchor="middle" x="549.5" y="-241.5" font-family="Helvetica,sans-Serif" font-size="10.00" fill="#000000">en61107_request_init</text>
</a>
</g>
</g>
<!-- Node2&#45;&gt;Node3 -->
<g id="edge2" class="edge">
<title>Node2&#45;&gt;Node3</title>
<path fill="none" stroke="#191970" d="M319.371,-244C372.464,-244 443.749,-244 492.84,-244"/>
<polygon fill="#191970" stroke="#191970" points="319.343,-240.5 309.343,-244 319.343,-247.5 319.343,-240.5"/>
</g>
<!-- Node4 -->
<g id="node4" class="node">
<title>Node4</title>
<g id="a_node4"><a xlink:href="user__main_8h.html#a33113d6dedb440bd7dfa5576e325140c" target="_top" xlink:title="user_init">
<polygon fill="#ffffff" stroke="#000000" points="940,-196.5 940,-215.5 994,-215.5 994,-196.5 940,-196.5"/>
<text text-anchor="middle" x="967" y="-203.5" font-family="Helvetica,sans-Serif" font-size="10.00" fill="#000000">user_init</text>
</a>
</g>
</g>
<!-- Node3&#45;&gt;Node4 -->
<g id="edge3" class="edge">
<title>Node3&#45;&gt;Node4</title>
<path fill="none" stroke="#191970" d="M616.388,-245.155C688.063,-245.292 804.906,-242.34 904,-225 916.153,-222.873 929.265,-219.159 940.363,-215.576"/>
<polygon fill="#191970" stroke="#191970" points="616.163,-241.654 606.149,-245.113 616.134,-248.654 616.163,-241.654"/>
</g>
<!-- Node5&#45;&gt;Node6 -->
<g id="edge5" class="edge">
<title>Node5&#45;&gt;Node6</title>
<path fill="none" stroke="#191970" d="M303.031,-21.5764C320.18,-25.1515 338.863,-29.0463 355.271,-32.467"/>
<polygon fill="#191970" stroke="#191970" points="303.643,-18.129 293.139,-19.5144 302.215,-24.9816 303.643,-18.129"/>
</g>
<!-- Node10 -->
<g id="node10" class="node">
<title>Node10</title>
<g id="a_node10"><a xlink:href="user__main_8c.html#ad75c70d9e67f9a03a6bc6efed2e08c9a" target="_top" xlink:title="en61107_request_send\l_timer_func">
<polygon fill="#ffffff" stroke="#000000" points="647,-40 647,-70 769,-70 769,-40 647,-40"/>
<text text-anchor="start" x="655" y="-58" font-family="Helvetica,sans-Serif" font-size="10.00" fill="#000000">en61107_request_send</text>
<text text-anchor="middle" x="708" y="-47" font-family="Helvetica,sans-Serif" font-size="10.00" fill="#000000">_timer_func</text>
</a>
</g>
</g>
<!-- Node5&#45;&gt;Node10 -->
<g id="edge10" class="edge">
<title>Node5&#45;&gt;Node10</title>
<path fill="none" stroke="#191970" d="M318.612,-13.2657C359.204,-15.4169 411.013,-18.6464 457,-23 521.944,-29.1483 596.002,-38.9313 646.747,-46.0634"/>
<polygon fill="#191970" stroke="#191970" points="318.713,-9.76632 308.544,-12.742 318.349,-16.7569 318.713,-9.76632"/>
</g>
<!-- Node6&#45;&gt;Node7 -->
<g id="edge6" class="edge">
<title>Node6&#45;&gt;Node7</title>
<path fill="none" stroke="#191970" d="M444.398,-55.1921C448.735,-56.9628 453.007,-58.901 457,-61 489.275,-77.9672 522.412,-105.684 538.872,-120.29"/>
<polygon fill="#191970" stroke="#191970" points="445.472,-51.8562 434.881,-51.5857 442.992,-58.402 445.472,-51.8562"/>
</g>
<!-- Node8 -->
<g id="node8" class="node">
<title>Node8</title>
<g id="a_node8"><a xlink:href="user__main_8c.html#a245ec00253f410a8804988bf40e1037e" target="_top" xlink:title="sample_mode_timer_func">
<polygon fill="#ffffff" stroke="#000000" points="642,-139.5 642,-158.5 774,-158.5 774,-139.5 642,-139.5"/>
<text text-anchor="middle" x="708" y="-146.5" font-family="Helvetica,sans-Serif" font-size="10.00" fill="#000000">sample_mode_timer_func</text>
</a>
</g>
</g>
<!-- Node7&#45;&gt;Node8 -->
<g id="edge7" class="edge">
<title>Node7&#45;&gt;Node8</title>
<path fill="none" stroke="#191970" d="M608.551,-137.079C619.396,-138.379 630.782,-139.744 641.819,-141.067"/>
<polygon fill="#191970" stroke="#191970" points="608.694,-133.571 598.349,-135.856 607.861,-140.521 608.694,-133.571"/>
</g>
<!-- Node9 -->
<g id="node9" class="node">
<title>Node9</title>
<g id="a_node9"><a xlink:href="user__main_8h.html#a3671381db669a16e8f6a4bf3dfb9a441" target="_top" xlink:title="system_init_done">
<polygon fill="#ffffff" stroke="#000000" points="810,-139.5 810,-158.5 904,-158.5 904,-139.5 810,-139.5"/>
<text text-anchor="middle" x="857" y="-146.5" font-family="Helvetica,sans-Serif" font-size="10.00" fill="#000000">system_init_done</text>
</a>
</g>
</g>
<!-- Node8&#45;&gt;Node9 -->
<g id="edge8" class="edge">
<title>Node8&#45;&gt;Node9</title>
<path fill="none" stroke="#191970" d="M784.361,-149C793.009,-149 801.624,-149 809.739,-149"/>
<polygon fill="#191970" stroke="#191970" points="784.221,-145.5 774.221,-149 784.221,-152.5 784.221,-145.5"/>
</g>
<!-- Node9&#45;&gt;Node4 -->
<g id="edge9" class="edge">
<title>Node9&#45;&gt;Node4</title>
<path fill="none" stroke="#191970" d="M884.619,-163.312C904.633,-173.683 931.142,-187.419 948.616,-196.474"/>
<polygon fill="#191970" stroke="#191970" points="886.149,-160.163 875.66,-158.669 882.928,-166.378 886.149,-160.163"/>
</g>
<!-- Node10&#45;&gt;Node9 -->
<g id="edge11" class="edge">
<title>Node10&#45;&gt;Node9</title>
<path fill="none" stroke="#191970" d="M740.774,-75.6761C772.166,-95.4808 818.149,-124.49 841.763,-139.388"/>
<polygon fill="#191970" stroke="#191970" points="742.265,-72.4783 731.939,-70.1027 738.53,-78.3986 742.265,-72.4783"/>
</g>
<!-- Node12 -->
<g id="node12" class="node">
<title>Node12</title>
<g id="a_node12"><a xlink:href="kmp__request_8h.html#a048753ff9d6b448e2dcd8c85db0d6873" target="_top" xlink:title="kmp_request_init">
<polygon fill="#ffffff" stroke="#000000" points="810.5,-196.5 810.5,-215.5 903.5,-215.5 903.5,-196.5 810.5,-196.5"/>
<text text-anchor="middle" x="857" y="-203.5" font-family="Helvetica,sans-Serif" font-size="10.00" fill="#000000">kmp_request_init</text>
</a>
</g>
</g>
<!-- Node11&#45;&gt;Node12 -->
<g id="edge13" class="edge">
<title>Node11&#45;&gt;Node12</title>
<path fill="none" stroke="#191970" d="M462.923,-206C555.424,-206 727.635,-206 810.326,-206"/>
<polygon fill="#191970" stroke="#191970" points="462.865,-202.5 452.865,-206 462.865,-209.5 462.865,-202.5"/>
</g>
<!-- Node12&#45;&gt;Node4 -->
<g id="edge14" class="edge">
<title>Node12&#45;&gt;Node4</title>
<path fill="none" stroke="#191970" d="M913.813,-206C922.836,-206 931.794,-206 939.714,-206"/>
<polygon fill="#191970" stroke="#191970" points="913.65,-202.5 903.65,-206 913.65,-209.5 913.65,-202.5"/>
</g>
<!-- Node13&#45;&gt;Node6 -->
<g id="edge18" class="edge">
<title>Node13&#45;&gt;Node6</title>
<path fill="none" stroke="#191970" d="M290.554,-73.6588C315.003,-66.6507 345.143,-58.0112 367.758,-51.5287"/>
<polygon fill="#191970" stroke="#191970" points="289.456,-70.3326 280.807,-76.4527 291.385,-77.0616 289.456,-70.3326"/>
</g>
<!-- Node14 -->
<g id="node14" class="node">
<title>Node14</title>
<g id="a_node14"><a xlink:href="kmp__request_8c.html#a0977a4640a97d389ac3b0fef0ba7a9b6" target="_top" xlink:title="kmp_receive_timeout\l_timer_func">
<polygon fill="#ffffff" stroke="#000000" points="345,-71 345,-101 457,-101 457,-71 345,-71"/>
<text text-anchor="start" x="353" y="-89" font-family="Helvetica,sans-Serif" font-size="10.00" fill="#000000">kmp_receive_timeout</text>
<text text-anchor="middle" x="401" y="-78" font-family="Helvetica,sans-Serif" font-size="10.00" fill="#000000">_timer_func</text>
</a>
</g>
</g>
<!-- Node13&#45;&gt;Node14 -->
<g id="edge16" class="edge">
<title>Node13&#45;&gt;Node14</title>
<path fill="none" stroke="#191970" d="M308.882,-79.3717C320.752,-79.1814 333.133,-79.2143 344.826,-79.4704"/>
<polygon fill="#191970" stroke="#191970" points="308.534,-75.8784 298.613,-79.5965 308.687,-82.8767 308.534,-75.8784"/>
</g>
<!-- Node14&#45;&gt;Node13 -->
<g id="edge17" class="edge">
<title>Node14&#45;&gt;Node13</title>
<path fill="none" stroke="#191970" d="M334.767,-92.6934C322.659,-92.8245 310.196,-92.7279 298.613,-92.4035"/>
<polygon fill="#191970" stroke="#191970" points="334.884,-96.192 344.826,-92.5296 334.77,-89.1929 334.884,-96.192"/>
</g>
<!-- Node15&#45;&gt;Node8 -->
<g id="edge21" class="edge">
<title>Node15&#45;&gt;Node8</title>
<path fill="none" stroke="#191970" d="M594.972,-162.549C609.623,-160.793 626.169,-158.809 641.99,-156.913"/>
<polygon fill="#191970" stroke="#191970" points="594.189,-159.118 584.676,-163.783 595.022,-166.068 594.189,-159.118"/>
</g>
</g>
</svg>
