<?xml version="1.0" encoding="UTF-8" standalone="no"?>
<!DOCTYPE svg PUBLIC "-//W3C//DTD SVG 1.1//EN"
 "http://www.w3.org/Graphics/SVG/1.1/DTD/svg11.dtd">
<!-- Generated by graphviz version 2.41.20170323.1842 (20170323.1842)
 -->
<!-- Title: user/crypto/crypto.h Pages: 1 -->
<svg width="1826pt" height="196pt"
 viewBox="0.00 0.00 1825.50 196.00" xmlns="http://www.w3.org/2000/svg" xmlns:xlink="http://www.w3.org/1999/xlink">
<g id="graph0" class="graph" transform="scale(1 1) rotate(0) translate(4 192)">
<title>user/crypto/crypto.h</title>
<polygon fill="#ffffff" stroke="transparent" points="-4,4 -4,-192 1821.5,-192 1821.5,4 -4,4"/>
<!-- Node0 -->
<g id="node1" class="node">
<title>Node0</title>
<polygon fill="#bfbfbf" stroke="#000000" points="430,-168.5 430,-187.5 534,-187.5 534,-168.5 430,-168.5"/>
<text text-anchor="middle" x="482" y="-175.5" font-family="Helvetica,sans-Serif" font-size="10.00" fill="#000000">user/crypto/crypto.h</text>
</g>
<!-- Node1 -->
<g id="node2" class="node">
<title>Node1</title>
<g id="a_node2"><a xlink:href="esp8266_8h.html" target="_top" xlink:title="esp8266.h">
<polygon fill="#ffffff" stroke="#000000" points="855.5,-112.5 855.5,-131.5 918.5,-131.5 918.5,-112.5 855.5,-112.5"/>
<text text-anchor="middle" x="887" y="-119.5" font-family="Helvetica,sans-Serif" font-size="10.00" fill="#000000">esp8266.h</text>
</a>
</g>
</g>
<!-- Node0&#45;&gt;Node1 -->
<g id="edge1" class="edge">
<title>Node0&#45;&gt;Node1</title>
<path fill="none" stroke="#191970" d="M534.1176,-170.7936C615.5309,-159.5365 771.2392,-138.0064 845.5483,-127.7316"/>
<polygon fill="#191970" stroke="#191970" points="846.0508,-131.1955 855.4772,-126.3587 845.092,-124.2615 846.0508,-131.1955"/>
</g>
<!-- Node3 -->
<g id="node4" class="node">
<title>Node3</title>
<polygon fill="#ffffff" stroke="#bfbfbf" points="0,-56.5 0,-75.5 46,-75.5 46,-56.5 0,-56.5"/>
<text text-anchor="middle" x="23" y="-63.5" font-family="Helvetica,sans-Serif" font-size="10.00" fill="#000000">stdio.h</text>
</g>
<!-- Node0&#45;&gt;Node3 -->
<g id="edge29" class="edge">
<title>Node0&#45;&gt;Node3</title>
<path fill="none" stroke="#191970" d="M440.8756,-168.4463C365.2972,-150.8028 199.2856,-111.6486 60,-76 58.7309,-75.6752 57.4381,-75.3412 56.1329,-75.0013"/>
<polygon fill="#191970" stroke="#191970" points="56.6301,-71.5125 46.0674,-72.3368 54.8388,-78.2794 56.6301,-71.5125"/>
</g>
<!-- Node2 -->
<g id="node3" class="node">
<title>Node2</title>
<polygon fill="#ffffff" stroke="#bfbfbf" points="1634.5,-56.5 1634.5,-75.5 1683.5,-75.5 1683.5,-56.5 1634.5,-56.5"/>
<text text-anchor="middle" x="1659" y="-63.5" font-family="Helvetica,sans-Serif" font-size="10.00" fill="#000000">ctype.h</text>
</g>
<!-- Node1&#45;&gt;Node2 -->
<g id="edge2" class="edge">
<title>Node1&#45;&gt;Node2</title>
<path fill="none" stroke="#191970" d="M918.8951,-121.0002C1039.4559,-117.0716 1468.0277,-101.716 1624.3855,-75.879"/>
<polygon fill="#191970" stroke="#191970" points="1625.0299,-79.3196 1634.2847,-74.162 1623.8336,-72.4225 1625.0299,-79.3196"/>
</g>
<!-- Node1&#45;&gt;Node3 -->
<g id="edge3" class="edge">
<title>Node1&#45;&gt;Node3</title>
<path fill="none" stroke="#191970" d="M855.451,-121.125C723.7738,-117.3376 217.5834,-101.3927 60,-76 58.7436,-75.7975 57.4684,-75.5695 56.1843,-75.3209"/>
<polygon fill="#191970" stroke="#191970" points="56.8531,-71.8839 46.3276,-73.0935 55.3102,-78.7117 56.8531,-71.8839"/>
</g>
<!-- Node4 -->
<g id="node5" class="node">
<title>Node4</title>
<polygon fill="#ffffff" stroke="#bfbfbf" points="1702,-56.5 1702,-75.5 1750,-75.5 1750,-56.5 1702,-56.5"/>
<text text-anchor="middle" x="1726" y="-63.5" font-family="Helvetica,sans-Serif" font-size="10.00" fill="#000000">stdlib.h</text>
</g>
<!-- Node1&#45;&gt;Node4 -->
<g id="edge4" class="edge">
<title>Node1&#45;&gt;Node4</title>
<path fill="none" stroke="#191970" d="M918.6423,-121.1966C1045.8114,-117.816 1520.6181,-103.7022 1691.5585,-75.8095"/>
<polygon fill="#191970" stroke="#191970" points="1692.3824,-79.2195 1701.6487,-74.0828 1691.2016,-72.3198 1692.3824,-79.2195"/>
</g>
<!-- Node5 -->
<g id="node6" class="node">
<title>Node5</title>
<polygon fill="#ffffff" stroke="#bfbfbf" points="1768.5,-56.5 1768.5,-75.5 1817.5,-75.5 1817.5,-56.5 1768.5,-56.5"/>
<text text-anchor="middle" x="1793" y="-63.5" font-family="Helvetica,sans-Serif" font-size="10.00" fill="#000000">string.h</text>
</g>
<!-- Node1&#45;&gt;Node5 -->
<g id="edge5" class="edge">
<title>Node1&#45;&gt;Node5</title>
<path fill="none" stroke="#191970" d="M918.8868,-121.314C1053.1038,-118.2761 1573.2997,-104.9554 1758.4027,-75.6321"/>
<polygon fill="#191970" stroke="#191970" points="1758.9811,-79.084 1768.2749,-73.9972 1757.8375,-72.1781 1758.9811,-79.084"/>
</g>
<!-- Node6 -->
<g id="node7" class="node">
<title>Node6</title>
<polygon fill="#ffffff" stroke="#bfbfbf" points="30.5,-.5 30.5,-19.5 89.5,-19.5 89.5,-.5 30.5,-.5"/>
<text text-anchor="middle" x="60" y="-7.5" font-family="Helvetica,sans-Serif" font-size="10.00" fill="#000000">c_types.h</text>
</g>
<!-- Node1&#45;&gt;Node6 -->
<g id="edge6" class="edge">
<title>Node1&#45;&gt;Node6</title>
<path fill="none" stroke="#191970" d="M855.3946,-121.5046C719.2972,-119.1833 187.0809,-108.1099 120,-76 98.7167,-65.8122 81.5128,-44.3697 71.0724,-28.6798"/>
<polygon fill="#191970" stroke="#191970" points="73.7679,-26.3932 65.4697,-19.8061 67.8489,-30.1303 73.7679,-26.3932"/>
</g>
<!-- Node7 -->
<g id="node8" class="node">
<title>Node7</title>
<polygon fill="#ffffff" stroke="#bfbfbf" points="270.5,-56.5 270.5,-75.5 323.5,-75.5 323.5,-56.5 270.5,-56.5"/>
<text text-anchor="middle" x="297" y="-63.5" font-family="Helvetica,sans-Serif" font-size="10.00" fill="#000000">lwip/ip.h</text>
</g>
<!-- Node1&#45;&gt;Node7 -->
<g id="edge7" class="edge">
<title>Node1&#45;&gt;Node7</title>
<path fill="none" stroke="#191970" d="M855.495,-121.4533C771.8723,-119.5649 537.3823,-111.4241 333.5945,-75.7662"/>
<polygon fill="#191970" stroke="#191970" points="334.0657,-72.2952 323.6076,-73.992 332.8412,-79.1873 334.0657,-72.2952"/>
</g>
<!-- Node8 -->
<g id="node9" class="node">
<title>Node8</title>
<polygon fill="#ffffff" stroke="#bfbfbf" points="342,-56.5 342,-75.5 404,-75.5 404,-56.5 342,-56.5"/>
<text text-anchor="middle" x="373" y="-63.5" font-family="Helvetica,sans-Serif" font-size="10.00" fill="#000000">lwip/udp.h</text>
</g>
<!-- Node1&#45;&gt;Node8 -->
<g id="edge8" class="edge">
<title>Node1&#45;&gt;Node8</title>
<path fill="none" stroke="#191970" d="M855.4478,-120.5568C780.4937,-116.7842 585.7937,-104.9643 414.309,-76.0098"/>
<polygon fill="#191970" stroke="#191970" points="414.7967,-72.5424 404.3493,-74.3041 413.615,-79.442 414.7967,-72.5424"/>
</g>
<!-- Node9 -->
<g id="node10" class="node">
<title>Node9</title>
<polygon fill="#ffffff" stroke="#bfbfbf" points="422,-56.5 422,-75.5 504,-75.5 504,-56.5 422,-56.5"/>
<text text-anchor="middle" x="463" y="-63.5" font-family="Helvetica,sans-Serif" font-size="10.00" fill="#000000">lwip/tcp_impl.h</text>
</g>
<!-- Node1&#45;&gt;Node9 -->
<g id="edge9" class="edge">
<title>Node1&#45;&gt;Node9</title>
<path fill="none" stroke="#191970" d="M855.4554,-118.8732C792.6425,-112.4831 647.2932,-96.878 514.1245,-75.9128"/>
<polygon fill="#191970" stroke="#191970" points="514.5765,-72.4408 504.1512,-74.3289 513.4784,-79.3542 514.5765,-72.4408"/>
</g>
<!-- Node10 -->
<g id="node11" class="node">
<title>Node10</title>
<polygon fill="#ffffff" stroke="#bfbfbf" points="522.5,-56.5 522.5,-75.5 597.5,-75.5 597.5,-56.5 522.5,-56.5"/>
<text text-anchor="middle" x="560" y="-63.5" font-family="Helvetica,sans-Serif" font-size="10.00" fill="#000000">netif/etharp.h</text>
</g>
<!-- Node1&#45;&gt;Node10 -->
<g id="edge10" class="edge">
<title>Node1&#45;&gt;Node10</title>
<path fill="none" stroke="#191970" d="M855.4222,-117.3053C805.2025,-109.7322 703.8258,-94.01 607.5752,-76.0383"/>
<polygon fill="#191970" stroke="#191970" points="608.1532,-72.5857 597.6789,-74.1789 606.8606,-79.4653 608.1532,-72.5857"/>
</g>
<!-- Node11 -->
<g id="node12" class="node">
<title>Node11</title>
<polygon fill="#ffffff" stroke="#bfbfbf" points="616,-56.5 616,-75.5 680,-75.5 680,-56.5 616,-56.5"/>
<text text-anchor="middle" x="648" y="-63.5" font-family="Helvetica,sans-Serif" font-size="10.00" fill="#000000">lwip/netif.h</text>
</g>
<!-- Node1&#45;&gt;Node11 -->
<g id="edge11" class="edge">
<title>Node1&#45;&gt;Node11</title>
<path fill="none" stroke="#191970" d="M855.2587,-114.6331C816.3163,-105.5845 748.2836,-89.7431 690,-76 689.8997,-75.9763 689.7992,-75.9527 689.6987,-75.9289"/>
<polygon fill="#191970" stroke="#191970" points="690.6374,-72.5545 680.1002,-73.6581 689.0257,-79.3664 690.6374,-72.5545"/>
</g>
<!-- Node12 -->
<g id="node13" class="node">
<title>Node12</title>
<polygon fill="#ffffff" stroke="#bfbfbf" points="698.5,-56.5 698.5,-75.5 785.5,-75.5 785.5,-56.5 698.5,-56.5"/>
<text text-anchor="middle" x="742" y="-63.5" font-family="Helvetica,sans-Serif" font-size="10.00" fill="#000000">lwip/lwip_napt.h</text>
</g>
<!-- Node1&#45;&gt;Node12 -->
<g id="edge12" class="edge">
<title>Node1&#45;&gt;Node12</title>
<path fill="none" stroke="#191970" d="M862.0736,-112.3733C838.3798,-103.2226 802.5489,-89.3844 776.1932,-79.2057"/>
<polygon fill="#191970" stroke="#191970" points="777.1906,-75.8389 766.6011,-75.5011 774.6686,-82.3689 777.1906,-75.8389"/>
</g>
<!-- Node13 -->
<g id="node14" class="node">
<title>Node13</title>
<polygon fill="#ffffff" stroke="#bfbfbf" points="803.5,-56.5 803.5,-75.5 864.5,-75.5 864.5,-56.5 803.5,-56.5"/>
<text text-anchor="middle" x="834" y="-63.5" font-family="Helvetica,sans-Serif" font-size="10.00" fill="#000000">lwip/dns.h</text>
</g>
<!-- Node1&#45;&gt;Node13 -->
<g id="edge13" class="edge">
<title>Node1&#45;&gt;Node13</title>
<path fill="none" stroke="#191970" d="M877.7681,-112.2455C870.1683,-104.2155 859.2123,-92.6394 850.1632,-83.0781"/>
<polygon fill="#191970" stroke="#191970" points="852.542,-80.4998 843.1261,-75.6427 847.4579,-85.3115 852.542,-80.4998"/>
</g>
<!-- Node14 -->
<g id="node15" class="node">
<title>Node14</title>
<polygon fill="#ffffff" stroke="#bfbfbf" points="883,-56.5 883,-75.5 997,-75.5 997,-56.5 883,-56.5"/>
<text text-anchor="middle" x="940" y="-63.5" font-family="Helvetica,sans-Serif" font-size="10.00" fill="#000000">lwip/app/dhcpserver.h</text>
</g>
<!-- Node1&#45;&gt;Node14 -->
<g id="edge14" class="edge">
<title>Node1&#45;&gt;Node14</title>
<path fill="none" stroke="#191970" d="M896.2319,-112.2455C903.8317,-104.2155 914.7877,-92.6394 923.8368,-83.0781"/>
<polygon fill="#191970" stroke="#191970" points="926.5421,-85.3115 930.8739,-75.6427 921.458,-80.4998 926.5421,-85.3115"/>
</g>
<!-- Node15 -->
<g id="node16" class="node">
<title>Node15</title>
<polygon fill="#ffffff" stroke="#bfbfbf" points="1015.5,-56.5 1015.5,-75.5 1074.5,-75.5 1074.5,-56.5 1015.5,-56.5"/>
<text text-anchor="middle" x="1045" y="-63.5" font-family="Helvetica,sans-Serif" font-size="10.00" fill="#000000">lwip/opt.h</text>
</g>
<!-- Node1&#45;&gt;Node15 -->
<g id="edge15" class="edge">
<title>Node1&#45;&gt;Node15</title>
<path fill="none" stroke="#191970" d="M914.1612,-112.3733C940.2067,-103.1419 979.7116,-89.1402 1008.4979,-78.9375"/>
<polygon fill="#191970" stroke="#191970" points="1009.937,-82.1408 1018.1933,-75.5011 1007.5985,-75.5429 1009.937,-82.1408"/>
</g>
<!-- Node16 -->
<g id="node17" class="node">
<title>Node16</title>
<polygon fill="#ffffff" stroke="#bfbfbf" points="1092.5,-56.5 1092.5,-75.5 1155.5,-75.5 1155.5,-56.5 1092.5,-56.5"/>
<text text-anchor="middle" x="1124" y="-63.5" font-family="Helvetica,sans-Serif" font-size="10.00" fill="#000000">espconn.h</text>
</g>
<!-- Node1&#45;&gt;Node16 -->
<g id="edge16" class="edge">
<title>Node1&#45;&gt;Node16</title>
<path fill="none" stroke="#191970" d="M918.7675,-114.7426C955.8332,-106.2396 1019.2175,-91.5905 1082.4078,-76.3629"/>
<polygon fill="#191970" stroke="#191970" points="1083.2353,-79.7638 1092.1342,-74.014 1081.592,-72.9594 1083.2353,-79.7638"/>
</g>
<!-- Node17 -->
<g id="node18" class="node">
<title>Node17</title>
<polygon fill="#ffffff" stroke="#bfbfbf" points="107.5,-.5 107.5,-19.5 166.5,-19.5 166.5,-.5 107.5,-.5"/>
<text text-anchor="middle" x="137" y="-7.5" font-family="Helvetica,sans-Serif" font-size="10.00" fill="#000000">ets_sys.h</text>
</g>
<!-- Node1&#45;&gt;Node17 -->
<g id="edge17" class="edge">
<title>Node1&#45;&gt;Node17</title>
<path fill="none" stroke="#191970" d="M855.107,-120.6519C712.9664,-114.5704 143.6156,-89.4066 131,-76 119.4525,-63.7286 123.0809,-43.8973 128.3008,-29.1721"/>
<polygon fill="#191970" stroke="#191970" points="131.6937,-30.1166 132.1886,-19.5334 125.2019,-27.4981 131.6937,-30.1166"/>
</g>
<!-- Node18 -->
<g id="node19" class="node">
<title>Node18</title>
<polygon fill="#ffffff" stroke="#bfbfbf" points="1174,-56.5 1174,-75.5 1218,-75.5 1218,-56.5 1174,-56.5"/>
<text text-anchor="middle" x="1196" y="-63.5" font-family="Helvetica,sans-Serif" font-size="10.00" fill="#000000">gpio.h</text>
</g>
<!-- Node1&#45;&gt;Node18 -->
<g id="edge18" class="edge">
<title>Node1&#45;&gt;Node18</title>
<path fill="none" stroke="#191970" d="M918.5735,-118.3235C968.6875,-112.1552 1069.605,-98.38 1163.79,-76.0157"/>
<polygon fill="#191970" stroke="#191970" points="1164.8619,-79.3576 1173.7616,-73.609 1163.2195,-72.553 1164.8619,-79.3576"/>
</g>
<!-- Node19 -->
<g id="node20" class="node">
<title>Node19</title>
<polygon fill="#ffffff" stroke="#bfbfbf" points="1236.5,-56.5 1236.5,-75.5 1283.5,-75.5 1283.5,-56.5 1236.5,-56.5"/>
<text text-anchor="middle" x="1260" y="-63.5" font-family="Helvetica,sans-Serif" font-size="10.00" fill="#000000">mem.h</text>
</g>
<!-- Node1&#45;&gt;Node19 -->
<g id="edge19" class="edge">
<title>Node1&#45;&gt;Node19</title>
<path fill="none" stroke="#191970" d="M918.6994,-119.4155C977.517,-114.2553 1107.5908,-101.135 1226.3398,-75.8314"/>
<polygon fill="#191970" stroke="#191970" points="1227.2937,-79.206 1236.3261,-73.6684 1225.8118,-72.3647 1227.2937,-79.206"/>
</g>
<!-- Node20 -->
<g id="node21" class="node">
<title>Node20</title>
<polygon fill="#ffffff" stroke="#bfbfbf" points="1301.5,-56.5 1301.5,-75.5 1350.5,-75.5 1350.5,-56.5 1301.5,-56.5"/>
<text text-anchor="middle" x="1326" y="-63.5" font-family="Helvetica,sans-Serif" font-size="10.00" fill="#000000">osapi.h</text>
</g>
<!-- Node1&#45;&gt;Node20 -->
<g id="edge20" class="edge">
<title>Node1&#45;&gt;Node20</title>
<path fill="none" stroke="#191970" d="M918.6343,-120.3731C985.8309,-116.5007 1147.7778,-104.9598 1291.3891,-76.0446"/>
<polygon fill="#191970" stroke="#191970" points="1292.1633,-79.4587 1301.2579,-74.0238 1290.7591,-72.601 1292.1633,-79.4587"/>
</g>
<!-- Node21 -->
<g id="node22" class="node">
<title>Node21</title>
<polygon fill="#ffffff" stroke="#bfbfbf" points="1369,-56.5 1369,-75.5 1457,-75.5 1457,-56.5 1369,-56.5"/>
<text text-anchor="middle" x="1413" y="-63.5" font-family="Helvetica,sans-Serif" font-size="10.00" fill="#000000">user_interface.h</text>
</g>
<!-- Node1&#45;&gt;Node21 -->
<g id="edge21" class="edge">
<title>Node1&#45;&gt;Node21</title>
<path fill="none" stroke="#191970" d="M918.6686,-119.9045C993.4579,-114.7458 1187.0407,-100.1675 1358.8242,-76.0602"/>
<polygon fill="#191970" stroke="#191970" points="1359.3932,-79.5146 1368.8028,-74.6455 1358.4105,-72.5839 1359.3932,-79.5146"/>
</g>
<!-- Node22 -->
<g id="node23" class="node">
<title>Node22</title>
<polygon fill="#ffffff" stroke="#bfbfbf" points="1475,-56.5 1475,-75.5 1537,-75.5 1537,-56.5 1475,-56.5"/>
<text text-anchor="middle" x="1506" y="-63.5" font-family="Helvetica,sans-Serif" font-size="10.00" fill="#000000">upgrade.h</text>
</g>
<!-- Node1&#45;&gt;Node22 -->
<g id="edge22" class="edge">
<title>Node1&#45;&gt;Node22</title>
<path fill="none" stroke="#191970" d="M918.602,-121.3257C1004.7798,-119.0988 1251.1469,-110.1427 1464.5244,-76.0016"/>
<polygon fill="#191970" stroke="#191970" points="1465.3494,-79.4136 1474.6595,-74.3568 1464.2279,-72.504 1465.3494,-79.4136"/>
</g>
<!-- Node23 -->
<g id="node24" class="node">
<title>Node23</title>
<g id="a_node24"><a xlink:href="platform_8h.html" target="_top" xlink:title="platform.h">
<polygon fill="#ffffff" stroke="#000000" points="1555.5,-56.5 1555.5,-75.5 1616.5,-75.5 1616.5,-56.5 1555.5,-56.5"/>
<text text-anchor="middle" x="1586" y="-63.5" font-family="Helvetica,sans-Serif" font-size="10.00" fill="#000000">platform.h</text>
</a>
</g>
</g>
<!-- Node1&#45;&gt;Node23 -->
<g id="edge23" class="edge">
<title>Node1&#45;&gt;Node23</title>
<path fill="none" stroke="#191970" d="M918.8732,-120.5177C1030.4663,-115.2151 1403.9598,-96.4881 1544.9604,-75.8464"/>
<polygon fill="#191970" stroke="#191970" points="1545.7466,-79.2669 1555.1015,-74.2933 1544.6868,-72.3476 1545.7466,-79.2669"/>
</g>
<!-- Node24 -->
<g id="node25" class="node">
<title>Node24</title>
<g id="a_node25"><a xlink:href="espmissingincludes_8h.html" target="_top" xlink:title="espmissingincludes.h">
<polygon fill="#ffffff" stroke="#000000" points="140,-56.5 140,-75.5 252,-75.5 252,-56.5 140,-56.5"/>
<text text-anchor="middle" x="196" y="-63.5" font-family="Helvetica,sans-Serif" font-size="10.00" fill="#000000">espmissingincludes.h</text>
</a>
</g>
</g>
<!-- Node1&#45;&gt;Node24 -->
<g id="edge24" class="edge">
<title>Node1&#45;&gt;Node24</title>
<path fill="none" stroke="#191970" d="M855.378,-120.534C764.8129,-116.1527 496.5249,-101.8992 262.2059,-75.9311"/>
<polygon fill="#191970" stroke="#191970" points="262.4575,-72.4375 252.1306,-74.8049 261.6798,-79.3942 262.4575,-72.4375"/>
</g>
<!-- Node24&#45;&gt;Node6 -->
<g id="edge26" class="edge">
<title>Node24&#45;&gt;Node6</title>
<path fill="none" stroke="#191970" d="M172.6208,-56.3733C150.4955,-47.2629 117.0866,-33.5062 92.3981,-23.3404"/>
<polygon fill="#191970" stroke="#191970" points="93.6536,-20.0723 83.0742,-19.5011 90.9883,-26.5451 93.6536,-20.0723"/>
</g>
<!-- Node24&#45;&gt;Node17 -->
<g id="edge28" class="edge">
<title>Node24&#45;&gt;Node17</title>
<path fill="none" stroke="#191970" d="M185.723,-56.2455C177.1782,-48.1352 164.8222,-36.4075 154.6915,-26.7919"/>
<polygon fill="#191970" stroke="#191970" points="156.8218,-23.9884 147.1592,-19.6427 152.0028,-29.0655 156.8218,-23.9884"/>
</g>
<!-- Node25 -->
<g id="node26" class="node">
<title>Node25</title>
<polygon fill="#ffffff" stroke="#bfbfbf" points="184.5,-.5 184.5,-19.5 233.5,-19.5 233.5,-.5 184.5,-.5"/>
<text text-anchor="middle" x="209" y="-7.5" font-family="Helvetica,sans-Serif" font-size="10.00" fill="#000000">stdint.h</text>
</g>
<!-- Node24&#45;&gt;Node25 -->
<g id="edge25" class="edge">
<title>Node24&#45;&gt;Node25</title>
<path fill="none" stroke="#191970" d="M198.2644,-56.2455C199.9794,-48.8579 202.3912,-38.4689 204.4944,-29.4087"/>
<polygon fill="#191970" stroke="#191970" points="207.9095,-30.1751 206.7615,-19.6427 201.0908,-28.5922 207.9095,-30.1751"/>
</g>
<!-- Node26 -->
<g id="node27" class="node">
<title>Node26</title>
<polygon fill="#ffffff" stroke="#bfbfbf" points="252,-.5 252,-19.5 322,-19.5 322,-.5 252,-.5"/>
<text text-anchor="middle" x="287" y="-7.5" font-family="Helvetica,sans-Serif" font-size="10.00" fill="#000000">eagle_soc.h</text>
</g>
<!-- Node24&#45;&gt;Node26 -->
<g id="edge27" class="edge">
<title>Node24&#45;&gt;Node26</title>
<path fill="none" stroke="#191970" d="M211.851,-56.2455C225.8132,-47.6534 246.3728,-35.0014 262.4596,-25.1018"/>
<polygon fill="#191970" stroke="#191970" points="264.6484,-27.8645 271.3307,-19.6427 260.9797,-21.9029 264.6484,-27.8645"/>
</g>
</g>
</svg>
