<?xml version="1.0" encoding="UTF-8" standalone="no"?>
<!DOCTYPE svg PUBLIC "-//W3C//DTD SVG 1.1//EN"
 "http://www.w3.org/Graphics/SVG/1.1/DTD/svg11.dtd">
<!-- Generated by graphviz version 2.40.1 (20161225.0304)
 -->
<!-- Title: init_aes_hmac_combined Pages: 1 -->
<svg width="553pt" height="142pt"
 viewBox="0.00 0.00 553.00 142.00" xmlns="http://www.w3.org/2000/svg" xmlns:xlink="http://www.w3.org/1999/xlink">
<g id="graph0" class="graph" transform="scale(1 1) rotate(0) translate(4 138)">
<title>init_aes_hmac_combined</title>
<polygon fill="#ffffff" stroke="transparent" points="-4,4 -4,-138 549,-138 549,4 -4,4"/>
<!-- Node30 -->
<g id="node1" class="node">
<title>Node30</title>
<polygon fill="#bfbfbf" stroke="#000000" points="0,-38.5 0,-57.5 130,-57.5 130,-38.5 0,-38.5"/>
<text text-anchor="middle" x="65" y="-45.5" font-family="Helvetica,sans-Serif" font-size="10.00" fill="#000000">init_aes_hmac_combined</text>
</g>
<!-- Node31 -->
<g id="node2" class="node">
<title>Node31</title>
<g id="a_node2"><a xlink:href="sha256_8c.html#a7f22a0894ca55160852ddcdff7a1f2fc" target="_top" xlink:title="sha256_raw">
<polygon fill="#ffffff" stroke="#000000" points="193,-76.5 193,-95.5 264,-95.5 264,-76.5 193,-76.5"/>
<text text-anchor="middle" x="228.5" y="-83.5" font-family="Helvetica,sans-Serif" font-size="10.00" fill="#000000">sha256_raw</text>
</a>
</g>
</g>
<!-- Node30&#45;&gt;Node31 -->
<g id="edge1" class="edge">
<title>Node30&#45;&gt;Node31</title>
<path fill="none" stroke="#191970" d="M106.258,-57.589C129.6007,-63.0142 158.836,-69.809 182.8628,-75.3932"/>
<polygon fill="#191970" stroke="#191970" points="182.2759,-78.85 192.8087,-77.7048 183.8606,-72.0317 182.2759,-78.85"/>
</g>
<!-- Node36 -->
<g id="node7" class="node">
<title>Node36</title>
<g id="a_node7"><a xlink:href="user__interface_8h.html#ab04830012b6818505fb8bc7ef76f9ab6" target="_top" xlink:title="system_soft_wdt_restart">
<polygon fill="#ffffff" stroke="#000000" points="166,-38.5 166,-57.5 291,-57.5 291,-38.5 166,-38.5"/>
<text text-anchor="middle" x="228.5" y="-45.5" font-family="Helvetica,sans-Serif" font-size="10.00" fill="#000000">system_soft_wdt_restart</text>
</a>
</g>
</g>
<!-- Node30&#45;&gt;Node36 -->
<g id="edge7" class="edge">
<title>Node30&#45;&gt;Node36</title>
<path fill="none" stroke="#191970" d="M130.0893,-48C138.4463,-48 147.0459,-48 155.5185,-48"/>
<polygon fill="#191970" stroke="#191970" points="155.7652,-51.5001 165.7652,-48 155.7651,-44.5001 155.7652,-51.5001"/>
</g>
<!-- Node37 -->
<g id="node8" class="node">
<title>Node37</title>
<g id="a_node8"><a xlink:href="user__interface_8h.html#a2f47f7ff2f650c014808dcc3b652f15a" target="_top" xlink:title="system_soft_wdt_stop">
<polygon fill="#ffffff" stroke="#000000" points="171,-.5 171,-19.5 286,-19.5 286,-.5 171,-.5"/>
<text text-anchor="middle" x="228.5" y="-7.5" font-family="Helvetica,sans-Serif" font-size="10.00" fill="#000000">system_soft_wdt_stop</text>
</a>
</g>
</g>
<!-- Node30&#45;&gt;Node37 -->
<g id="edge8" class="edge">
<title>Node30&#45;&gt;Node37</title>
<path fill="none" stroke="#191970" d="M106.258,-38.411C127.9307,-33.3739 154.6832,-27.1562 177.6303,-21.8229"/>
<polygon fill="#191970" stroke="#191970" points="178.5907,-25.1931 187.5387,-19.5201 177.006,-18.3748 178.5907,-25.1931"/>
</g>
<!-- Node32 -->
<g id="node3" class="node">
<title>Node32</title>
<g id="a_node3"><a xlink:href="sha256_8c.html#ad1c794b2d7e8eba243628e45cb69ef94" target="_top" xlink:title="sha256_init">
<polygon fill="#ffffff" stroke="#000000" points="335.5,-114.5 335.5,-133.5 403.5,-133.5 403.5,-114.5 335.5,-114.5"/>
<text text-anchor="middle" x="369.5" y="-121.5" font-family="Helvetica,sans-Serif" font-size="10.00" fill="#000000">sha256_init</text>
</a>
</g>
</g>
<!-- Node31&#45;&gt;Node32 -->
<g id="edge2" class="edge">
<title>Node31&#45;&gt;Node32</title>
<path fill="none" stroke="#191970" d="M264.0803,-95.589C282.7842,-100.6298 305.8753,-106.8529 325.6742,-112.1888"/>
<polygon fill="#191970" stroke="#191970" points="324.824,-115.5845 335.3903,-114.8073 326.6456,-108.8256 324.824,-115.5845"/>
</g>
<!-- Node33 -->
<g id="node4" class="node">
<title>Node33</title>
<g id="a_node4"><a xlink:href="sha256_8c.html#a00647246fd4532c27d1aafd709d5973d" target="_top" xlink:title="sha256_update">
<polygon fill="#ffffff" stroke="#000000" points="327,-76.5 327,-95.5 412,-95.5 412,-76.5 327,-76.5"/>
<text text-anchor="middle" x="369.5" y="-83.5" font-family="Helvetica,sans-Serif" font-size="10.00" fill="#000000">sha256_update</text>
</a>
</g>
</g>
<!-- Node31&#45;&gt;Node33 -->
<g id="edge3" class="edge">
<title>Node31&#45;&gt;Node33</title>
<path fill="none" stroke="#191970" d="M264.0803,-86C280.0385,-86 299.1903,-86 316.7662,-86"/>
<polygon fill="#191970" stroke="#191970" points="316.8965,-89.5001 326.8965,-86 316.8965,-82.5001 316.8965,-89.5001"/>
</g>
<!-- Node35 -->
<g id="node6" class="node">
<title>Node35</title>
<g id="a_node6"><a xlink:href="sha256_8c.html#a28a4e37e67f8b97b374c49d8b83d8167" target="_top" xlink:title="sha256_final">
<polygon fill="#ffffff" stroke="#000000" points="333,-38.5 333,-57.5 406,-57.5 406,-38.5 333,-38.5"/>
<text text-anchor="middle" x="369.5" y="-45.5" font-family="Helvetica,sans-Serif" font-size="10.00" fill="#000000">sha256_final</text>
</a>
</g>
</g>
<!-- Node31&#45;&gt;Node35 -->
<g id="edge5" class="edge">
<title>Node31&#45;&gt;Node35</title>
<path fill="none" stroke="#191970" d="M264.0803,-76.411C282.282,-71.5056 304.6384,-65.4804 324.0723,-60.2429"/>
<polygon fill="#191970" stroke="#191970" points="325.1864,-63.5676 333.9311,-57.5859 323.3648,-56.8088 325.1864,-63.5676"/>
</g>
<!-- Node34 -->
<g id="node5" class="node">
<title>Node34</title>
<g id="a_node5"><a xlink:href="sha256_8c.html#a97b828e7b6479297e92fb5ffc5225ee3" target="_top" xlink:title="sha256_transform">
<polygon fill="#ffffff" stroke="#000000" points="448,-57.5 448,-76.5 545,-76.5 545,-57.5 448,-57.5"/>
<text text-anchor="middle" x="496.5" y="-64.5" font-family="Helvetica,sans-Serif" font-size="10.00" fill="#000000">sha256_transform</text>
</a>
</g>
</g>
<!-- Node33&#45;&gt;Node34 -->
<g id="edge4" class="edge">
<title>Node33&#45;&gt;Node34</title>
<path fill="none" stroke="#191970" d="M412.1425,-79.6204C420.3258,-78.3961 429.029,-77.0941 437.619,-75.809"/>
<polygon fill="#191970" stroke="#191970" points="438.2407,-79.255 447.6128,-74.3138 437.205,-72.332 438.2407,-79.255"/>
</g>
<!-- Node35&#45;&gt;Node34 -->
<g id="edge6" class="edge">
<title>Node35&#45;&gt;Node34</title>
<path fill="none" stroke="#191970" d="M406.2337,-53.4956C416.0044,-54.9574 426.81,-56.5739 437.4483,-58.1655"/>
<polygon fill="#191970" stroke="#191970" points="437.1496,-61.6597 447.5574,-59.6779 438.1854,-54.7367 437.1496,-61.6597"/>
</g>
</g>
</svg>
