<?xml version="1.0" encoding="UTF-8" standalone="no"?>
<!DOCTYPE svg PUBLIC "-//W3C//DTD SVG 1.1//EN"
 "http://www.w3.org/Graphics/SVG/1.1/DTD/svg11.dtd">
<!-- Generated by graphviz version 2.41.20170323.1842 (20170323.1842)
 -->
<!-- Title: user/crypto/crypto.h Pages: 1 -->
<svg width="827pt" height="207pt"
 viewBox="0.00 0.00 826.50 207.00" xmlns="http://www.w3.org/2000/svg" xmlns:xlink="http://www.w3.org/1999/xlink">
<g id="graph0" class="graph" transform="scale(1 1) rotate(0) translate(4 203)">
<title>user/crypto/crypto.h</title>
<polygon fill="#ffffff" stroke="transparent" points="-4,4 -4,-203 822.5,-203 822.5,4 -4,4"/>
<!-- Node27 -->
<g id="node1" class="node">
<title>Node27</title>
<polygon fill="#bfbfbf" stroke="#000000" points="327.5,-179.5 327.5,-198.5 431.5,-198.5 431.5,-179.5 327.5,-179.5"/>
<text text-anchor="middle" x="379.5" y="-186.5" font-family="Helvetica,sans-Serif" font-size="10.00" fill="#000000">user/crypto/crypto.h</text>
</g>
<!-- Node28 -->
<g id="node2" class="node">
<title>Node28</title>
<g id="a_node2"><a xlink:href="crypto_8c.html" target="_top" xlink:title="user/crypto/crypto.c">
<polygon fill="#ffffff" stroke="#000000" points="155.5,-.5 155.5,-19.5 259.5,-19.5 259.5,-.5 155.5,-.5"/>
<text text-anchor="middle" x="207.5" y="-7.5" font-family="Helvetica,sans-Serif" font-size="10.00" fill="#000000">user/crypto/crypto.c</text>
</a>
</g>
</g>
<!-- Node27&#45;&gt;Node28 -->
<g id="edge1" class="edge">
<title>Node27&#45;&gt;Node28</title>
<path fill="none" stroke="#191970" d="M317.2192,-181.9415C255.2508,-171.1132 164.0073,-143.9071 125.5,-76 110.8067,-50.0885 148.0681,-30.4166 177.0799,-19.5433"/>
<polygon fill="#191970" stroke="#191970" points="316.8458,-185.4272 327.2822,-183.6019 317.9854,-178.5206 316.8458,-185.4272"/>
</g>
<!-- Node29 -->
<g id="node3" class="node">
<title>Node29</title>
<g id="a_node3"><a xlink:href="hmac-sha256_8c.html" target="_top" xlink:title="user/crypto/hmac&#45;sha256.c">
<polygon fill="#ffffff" stroke="#000000" points="0,-.5 0,-19.5 137,-19.5 137,-.5 0,-.5"/>
<text text-anchor="middle" x="68.5" y="-7.5" font-family="Helvetica,sans-Serif" font-size="10.00" fill="#000000">user/crypto/hmac&#45;sha256.c</text>
</a>
</g>
</g>
<!-- Node27&#45;&gt;Node29 -->
<g id="edge2" class="edge">
<title>Node27&#45;&gt;Node29</title>
<path fill="none" stroke="#191970" d="M317.1629,-182.028C259.1621,-174.5543 177.8403,-161.2525 151.5,-143 105.4148,-111.0654 79.7537,-44.4051 71.4878,-19.5842"/>
<polygon fill="#191970" stroke="#191970" points="316.9818,-185.5328 327.3411,-183.311 317.8573,-178.5878 316.9818,-185.5328"/>
</g>
<!-- Node30 -->
<g id="node4" class="node">
<title>Node30</title>
<g id="a_node4"><a xlink:href="hmac-sha256_8h.html" target="_top" xlink:title="user/crypto/hmac&#45;sha256.h">
<polygon fill="#ffffff" stroke="#000000" points="134.5,-56.5 134.5,-75.5 272.5,-75.5 272.5,-56.5 134.5,-56.5"/>
<text text-anchor="middle" x="203.5" y="-63.5" font-family="Helvetica,sans-Serif" font-size="10.00" fill="#000000">user/crypto/hmac&#45;sha256.h</text>
</a>
</g>
</g>
<!-- Node27&#45;&gt;Node30 -->
<g id="edge3" class="edge">
<title>Node27&#45;&gt;Node30</title>
<path fill="none" stroke="#191970" d="M339.1425,-175.8118C318.7067,-168.053 294.1352,-157.0003 274.5,-143 246.9618,-123.3646 221.9597,-91.6141 210.3456,-75.7187"/>
<polygon fill="#191970" stroke="#191970" points="338.209,-179.1973 348.8027,-179.3545 340.6192,-172.6253 338.209,-179.1973"/>
</g>
<!-- Node31 -->
<g id="node5" class="node">
<title>Node31</title>
<g id="a_node5"><a xlink:href="user__main_8c.html" target="_top" xlink:title="user/user_main.c">
<polygon fill="#ffffff" stroke="#000000" points="292,-.5 292,-19.5 385,-19.5 385,-.5 292,-.5"/>
<text text-anchor="middle" x="338.5" y="-7.5" font-family="Helvetica,sans-Serif" font-size="10.00" fill="#000000">user/user_main.c</text>
</a>
</g>
</g>
<!-- Node27&#45;&gt;Node31 -->
<g id="edge15" class="edge">
<title>Node27&#45;&gt;Node31</title>
<path fill="none" stroke="#191970" d="M406.5871,-174.3264C447.729,-150.1271 517.9301,-100.129 485.5,-56 473.4254,-39.5695 423.5718,-26.3907 385.2341,-18.4201"/>
<polygon fill="#191970" stroke="#191970" points="404.7419,-171.3499 397.8081,-179.3606 408.2241,-177.4223 404.7419,-171.3499"/>
</g>
<!-- Node32 -->
<g id="node6" class="node">
<title>Node32</title>
<g id="a_node6"><a xlink:href="sha256_8c.html" target="_top" xlink:title="user/crypto/sha256.c">
<polygon fill="#ffffff" stroke="#000000" points="367,-56.5 367,-75.5 476,-75.5 476,-56.5 367,-56.5"/>
<text text-anchor="middle" x="421.5" y="-63.5" font-family="Helvetica,sans-Serif" font-size="10.00" fill="#000000">user/crypto/sha256.c</text>
</a>
</g>
</g>
<!-- Node27&#45;&gt;Node32 -->
<g id="edge7" class="edge">
<title>Node27&#45;&gt;Node32</title>
<path fill="none" stroke="#191970" d="M389.9927,-170.3754C394.3049,-162.1672 399.0786,-152.2927 402.5,-143 411.1584,-119.4837 417.1088,-90.4864 419.8255,-75.6872"/>
<polygon fill="#191970" stroke="#191970" points="386.7828,-168.9522 385.0837,-179.4099 392.9334,-172.2943 386.7828,-168.9522"/>
</g>
<!-- Node33 -->
<g id="node7" class="node">
<title>Node33</title>
<g id="a_node7"><a xlink:href="sha256_8h.html" target="_top" xlink:title="user/crypto/sha256.h">
<polygon fill="#ffffff" stroke="#000000" points="283.5,-118 283.5,-137 393.5,-137 393.5,-118 283.5,-118"/>
<text text-anchor="middle" x="338.5" y="-125" font-family="Helvetica,sans-Serif" font-size="10.00" fill="#000000">user/crypto/sha256.h</text>
</a>
</g>
</g>
<!-- Node27&#45;&gt;Node33 -->
<g id="edge8" class="edge">
<title>Node27&#45;&gt;Node33</title>
<path fill="none" stroke="#191970" d="M367.4446,-170.9169C360.1029,-159.9043 351.01,-146.265 344.9966,-137.2449"/>
<polygon fill="#191970" stroke="#191970" points="364.6345,-173.0116 373.0938,-179.3906 370.4589,-169.1286 364.6345,-173.0116"/>
</g>
<!-- Node34 -->
<g id="node8" class="node">
<title>Node34</title>
<g id="a_node8"><a xlink:href="en61107__request_8c.html" target="_top" xlink:title="user/en61107/en61107\l_request.c">
<polygon fill="#ffffff" stroke="#000000" points="533,-112.5 533,-142.5 652,-142.5 652,-112.5 533,-112.5"/>
<text text-anchor="start" x="541" y="-130.5" font-family="Helvetica,sans-Serif" font-size="10.00" fill="#000000">user/en61107/en61107</text>
<text text-anchor="middle" x="592.5" y="-119.5" font-family="Helvetica,sans-Serif" font-size="10.00" fill="#000000">_request.c</text>
</a>
</g>
</g>
<!-- Node27&#45;&gt;Node34 -->
<g id="edge13" class="edge">
<title>Node27&#45;&gt;Node34</title>
<path fill="none" stroke="#191970" d="M422.4375,-176.6025C456.475,-166.7748 504.1723,-153.0031 540.3943,-142.5446"/>
<polygon fill="#191970" stroke="#191970" points="421.4179,-173.2539 412.7813,-179.3906 423.3597,-179.9792 421.4179,-173.2539"/>
</g>
<!-- Node35 -->
<g id="node9" class="node">
<title>Node35</title>
<g id="a_node9"><a xlink:href="kmp__request_8c.html" target="_top" xlink:title="user/kamstrup/kmp_request.c">
<polygon fill="#ffffff" stroke="#000000" points="670.5,-118 670.5,-137 818.5,-137 818.5,-118 670.5,-118"/>
<text text-anchor="middle" x="744.5" y="-125" font-family="Helvetica,sans-Serif" font-size="10.00" fill="#000000">user/kamstrup/kmp_request.c</text>
</a>
</g>
</g>
<!-- Node27&#45;&gt;Node35 -->
<g id="edge14" class="edge">
<title>Node27&#45;&gt;Node35</title>
<path fill="none" stroke="#191970" d="M441.5014,-179.3049C498.6844,-170.2638 585.9027,-156.2227 661.5,-143 672.1853,-141.131 683.6284,-139.0474 694.4984,-137.0294"/>
<polygon fill="#191970" stroke="#191970" points="440.8671,-175.8616 431.5352,-180.878 441.9586,-182.776 440.8671,-175.8616"/>
</g>
<!-- Node30&#45;&gt;Node28 -->
<g id="edge4" class="edge">
<title>Node30&#45;&gt;Node28</title>
<path fill="none" stroke="#191970" d="M204.9173,-46.1575C205.5604,-37.155 206.2914,-26.9199 206.8112,-19.6427"/>
<polygon fill="#191970" stroke="#191970" points="201.4182,-46.0216 204.1967,-56.2455 208.4004,-46.5204 201.4182,-46.0216"/>
</g>
<!-- Node30&#45;&gt;Node29 -->
<g id="edge5" class="edge">
<title>Node30&#45;&gt;Node29</title>
<path fill="none" stroke="#191970" d="M171.0009,-52.5189C146.4146,-42.3201 113.2634,-28.5685 91.4045,-19.5011"/>
<polygon fill="#191970" stroke="#191970" points="169.7148,-55.7745 180.2927,-56.3733 172.3969,-49.3087 169.7148,-55.7745"/>
</g>
<!-- Node30&#45;&gt;Node31 -->
<g id="edge6" class="edge">
<title>Node30&#45;&gt;Node31</title>
<path fill="none" stroke="#191970" d="M235.9991,-52.5189C260.5854,-42.3201 293.7366,-28.5685 315.5955,-19.5011"/>
<polygon fill="#191970" stroke="#191970" points="234.6031,-49.3087 226.7073,-56.3733 237.2852,-55.7745 234.6031,-49.3087"/>
</g>
<!-- Node33&#45;&gt;Node28 -->
<g id="edge9" class="edge">
<title>Node33&#45;&gt;Node28</title>
<path fill="none" stroke="#191970" d="M326.5791,-109.2364C315.9621,-93.8627 299.3778,-71.9017 281.5,-56 264.6587,-41.0202 242.3534,-27.8949 226.6498,-19.5398"/>
<polygon fill="#191970" stroke="#191970" points="323.8874,-111.5054 332.3768,-117.8443 329.6934,-107.5949 323.8874,-111.5054"/>
</g>
<!-- Node33&#45;&gt;Node30 -->
<g id="edge10" class="edge">
<title>Node33&#45;&gt;Node30</title>
<path fill="none" stroke="#191970" d="M308.1843,-113.6895C282.6783,-102.0701 246.8759,-85.7601 224.4456,-75.5419"/>
<polygon fill="#191970" stroke="#191970" points="306.855,-116.93 317.4063,-117.8906 309.757,-110.5598 306.855,-116.93"/>
</g>
<!-- Node33&#45;&gt;Node31 -->
<g id="edge12" class="edge">
<title>Node33&#45;&gt;Node31</title>
<path fill="none" stroke="#191970" d="M338.5,-107.5662C338.5,-82.0834 338.5,-38.9662 338.5,-19.7484"/>
<polygon fill="#191970" stroke="#191970" points="335.0001,-107.8844 338.5,-117.8845 342.0001,-107.8845 335.0001,-107.8844"/>
</g>
<!-- Node33&#45;&gt;Node32 -->
<g id="edge11" class="edge">
<title>Node33&#45;&gt;Node32</title>
<path fill="none" stroke="#191970" d="M359.8923,-111.6491C375.3142,-100.222 395.6216,-85.1749 408.6223,-75.5419"/>
<polygon fill="#191970" stroke="#191970" points="357.4198,-109.125 351.4688,-117.8906 361.5872,-114.7493 357.4198,-109.125"/>
</g>
</g>
</svg>
