<?xml version="1.0" encoding="UTF-8" standalone="no"?>
<!DOCTYPE svg PUBLIC "-//W3C//DTD SVG 1.1//EN"
 "http://www.w3.org/Graphics/SVG/1.1/DTD/svg11.dtd">
<!-- Generated by graphviz version 2.41.20170323.1842 (20170323.1842)
 -->
<!-- Title: user/crypto/crypto.c Pages: 1 -->
<svg width="924pt" height="812pt"
 viewBox="0.00 0.00 924.00 812.00" xmlns="http://www.w3.org/2000/svg" xmlns:xlink="http://www.w3.org/1999/xlink">
<g id="graph0" class="graph" transform="scale(1 1) rotate(0) translate(4 808)">
<title>user/crypto/crypto.c</title>
<polygon fill="#ffffff" stroke="transparent" points="-4,4 -4,-808 920,-808 920,4 -4,4"/>
<!-- Node0 -->
<g id="node1" class="node">
<title>Node0</title>
<polygon fill="#bfbfbf" stroke="#000000" points="460,-784.5 460,-803.5 564,-803.5 564,-784.5 460,-784.5"/>
<text text-anchor="middle" x="512" y="-791.5" font-family="Helvetica,sans-Serif" font-size="10.00" fill="#000000">user/crypto/crypto.c</text>
</g>
<!-- Node1 -->
<g id="node2" class="node">
<title>Node1</title>
<g id="a_node2"><a xlink:href="esp8266_8h.html" target="_top" xlink:title="esp8266.h">
<polygon fill="#ffffff" stroke="#000000" points="394.5,-560.5 394.5,-579.5 457.5,-579.5 457.5,-560.5 394.5,-560.5"/>
<text text-anchor="middle" x="426" y="-567.5" font-family="Helvetica,sans-Serif" font-size="10.00" fill="#000000">esp8266.h</text>
</a>
</g>
</g>
<!-- Node0&#45;&gt;Node1 -->
<g id="edge1" class="edge">
<title>Node0&#45;&gt;Node1</title>
<path fill="none" stroke="#191970" d="M509.6475,-784.4872C506.3629,-771.5575 500.012,-747.7796 493,-728 474.8329,-676.7538 448.5215,-618.2833 434.9079,-588.9274"/>
<polygon fill="#191970" stroke="#191970" points="438.0571,-587.3992 430.6563,-579.8177 431.7139,-590.3596 438.0571,-587.3992"/>
</g>
<!-- Node5 -->
<g id="node6" class="node">
<title>Node5</title>
<polygon fill="#ffffff" stroke="#bfbfbf" points="697.5,-56.5 697.5,-75.5 746.5,-75.5 746.5,-56.5 697.5,-56.5"/>
<text text-anchor="middle" x="722" y="-63.5" font-family="Helvetica,sans-Serif" font-size="10.00" fill="#000000">string.h</text>
</g>
<!-- Node0&#45;&gt;Node5 -->
<g id="edge38" class="edge">
<title>Node0&#45;&gt;Node5</title>
<path fill="none" stroke="#191970" d="M564.4018,-790.4873C673.7143,-781.7192 916,-754.1474 916,-682 916,-682 916,-682 916,-514 916,-433.7732 913.9921,-411.185 886,-336 847.492,-232.5696 768.187,-124.9113 736.0182,-83.5825"/>
<polygon fill="#191970" stroke="#191970" points="738.6638,-81.2845 729.7331,-75.5841 733.1598,-85.6095 738.6638,-81.2845"/>
</g>
<!-- Node14 -->
<g id="node15" class="node">
<title>Node14</title>
<polygon fill="#ffffff" stroke="#bfbfbf" points="602.5,-56.5 602.5,-75.5 679.5,-75.5 679.5,-56.5 602.5,-56.5"/>
<text text-anchor="middle" x="641" y="-63.5" font-family="Helvetica,sans-Serif" font-size="10.00" fill="#000000">user_config.h</text>
</g>
<!-- Node0&#45;&gt;Node14 -->
<g id="edge54" class="edge">
<title>Node0&#45;&gt;Node14</title>
<path fill="none" stroke="#191970" d="M564.1253,-788.2316C622.5593,-778.8126 715.4635,-754.4031 764,-692 828.4447,-609.1438 796,-562.968 796,-458 796,-458 796,-458 796,-290 796,-197.3102 705.1446,-115.2488 662.554,-81.8727"/>
<polygon fill="#191970" stroke="#191970" points="664.5483,-78.9913 654.4841,-75.6802 660.2868,-84.5447 664.5483,-78.9913"/>
</g>
<!-- Node28 -->
<g id="node29" class="node">
<title>Node28</title>
<g id="a_node29"><a xlink:href="crypto_8h.html" target="_top" xlink:title="crypto/crypto.h">
<polygon fill="#ffffff" stroke="#000000" points="22,-616.5 22,-635.5 104,-635.5 104,-616.5 22,-616.5"/>
<text text-anchor="middle" x="63" y="-623.5" font-family="Helvetica,sans-Serif" font-size="10.00" fill="#000000">crypto/crypto.h</text>
</a>
</g>
</g>
<!-- Node0&#45;&gt;Node28 -->
<g id="edge39" class="edge">
<title>Node0&#45;&gt;Node28</title>
<path fill="none" stroke="#191970" d="M470.7615,-784.4496C436.4408,-776.0883 386.5021,-762.9597 344,-748 249.4657,-714.7263 141.8505,-664.3351 91.6322,-640.0546"/>
<polygon fill="#191970" stroke="#191970" points="92.8991,-636.779 82.3747,-635.5594 89.8415,-643.0759 92.8991,-636.779"/>
</g>
<!-- Node29 -->
<g id="node30" class="node">
<title>Node29</title>
<g id="a_node30"><a xlink:href="aes_8h.html" target="_top" xlink:title="crypto/aes.h">
<polygon fill="#ffffff" stroke="#000000" points="816.5,-616.5 816.5,-635.5 887.5,-635.5 887.5,-616.5 816.5,-616.5"/>
<text text-anchor="middle" x="852" y="-623.5" font-family="Helvetica,sans-Serif" font-size="10.00" fill="#000000">crypto/aes.h</text>
</a>
</g>
</g>
<!-- Node0&#45;&gt;Node29 -->
<g id="edge42" class="edge">
<title>Node0&#45;&gt;Node29</title>
<path fill="none" stroke="#191970" d="M564.2958,-791.7562C637.6269,-787.6176 766.0769,-776.4354 802,-748 834.0224,-722.6522 845.6957,-673.3771 849.83,-645.839"/>
<polygon fill="#191970" stroke="#191970" points="853.3147,-646.1837 851.143,-635.8138 846.374,-645.2746 853.3147,-646.1837"/>
</g>
<!-- Node30 -->
<g id="node31" class="node">
<title>Node30</title>
<g id="a_node31"><a xlink:href="sha256_8h.html" target="_top" xlink:title="crypto/sha256.h">
<polygon fill="#ffffff" stroke="#000000" points="296,-672.5 296,-691.5 384,-691.5 384,-672.5 296,-672.5"/>
<text text-anchor="middle" x="340" y="-679.5" font-family="Helvetica,sans-Serif" font-size="10.00" fill="#000000">crypto/sha256.h</text>
</a>
</g>
</g>
<!-- Node0&#45;&gt;Node30 -->
<g id="edge45" class="edge">
<title>Node0&#45;&gt;Node30</title>
<path fill="none" stroke="#191970" d="M463.3086,-784.4752C424.6274,-775.9877 374.6731,-762.6677 360,-748 347.8542,-735.8587 343.0403,-716.603 341.1551,-702.017"/>
<polygon fill="#191970" stroke="#191970" points="344.6312,-701.5973 340.2115,-691.9684 337.6619,-702.2518 344.6312,-701.5973"/>
</g>
<!-- Node31 -->
<g id="node32" class="node">
<title>Node31</title>
<g id="a_node32"><a xlink:href="hmac-sha256_8h.html" target="_top" xlink:title="crypto/hmac&#45;sha256.h">
<polygon fill="#ffffff" stroke="#000000" points="368.5,-728.5 368.5,-747.5 483.5,-747.5 483.5,-728.5 368.5,-728.5"/>
<text text-anchor="middle" x="426" y="-735.5" font-family="Helvetica,sans-Serif" font-size="10.00" fill="#000000">crypto/hmac&#45;sha256.h</text>
</a>
</g>
</g>
<!-- Node0&#45;&gt;Node31 -->
<g id="edge49" class="edge">
<title>Node0&#45;&gt;Node31</title>
<path fill="none" stroke="#191970" d="M497.0199,-784.2455C483.8249,-775.6534 464.3949,-763.0014 449.1921,-753.1018"/>
<polygon fill="#191970" stroke="#191970" points="451.0983,-750.1665 440.8084,-747.6427 447.2785,-756.0325 451.0983,-750.1665"/>
</g>
<!-- Node2 -->
<g id="node3" class="node">
<title>Node2</title>
<polygon fill="#ffffff" stroke="#bfbfbf" points="538.5,-504.5 538.5,-523.5 587.5,-523.5 587.5,-504.5 538.5,-504.5"/>
<text text-anchor="middle" x="563" y="-511.5" font-family="Helvetica,sans-Serif" font-size="10.00" fill="#000000">ctype.h</text>
</g>
<!-- Node1&#45;&gt;Node2 -->
<g id="edge2" class="edge">
<title>Node1&#45;&gt;Node2</title>
<path fill="none" stroke="#191970" d="M449.5511,-560.3733C471.8391,-551.2629 505.4937,-537.5062 530.3637,-527.3404"/>
<polygon fill="#191970" stroke="#191970" points="531.8239,-530.5247 539.7562,-523.5011 529.1753,-524.0451 531.8239,-530.5247"/>
</g>
<!-- Node3 -->
<g id="node4" class="node">
<title>Node3</title>
<polygon fill="#ffffff" stroke="#bfbfbf" points="28,-504.5 28,-523.5 74,-523.5 74,-504.5 28,-504.5"/>
<text text-anchor="middle" x="51" y="-511.5" font-family="Helvetica,sans-Serif" font-size="10.00" fill="#000000">stdio.h</text>
</g>
<!-- Node1&#45;&gt;Node3 -->
<g id="edge3" class="edge">
<title>Node1&#45;&gt;Node3</title>
<path fill="none" stroke="#191970" d="M394.0839,-567.04C333.8487,-561.1483 199.4475,-546.5467 88,-524 86.7527,-523.7477 85.4852,-523.4772 84.2076,-523.1928"/>
<polygon fill="#191970" stroke="#191970" points="84.9232,-519.7649 74.3797,-520.8065 83.2715,-526.5673 84.9232,-519.7649"/>
</g>
<!-- Node4 -->
<g id="node5" class="node">
<title>Node4</title>
<polygon fill="#ffffff" stroke="#bfbfbf" points="606,-504.5 606,-523.5 654,-523.5 654,-504.5 606,-504.5"/>
<text text-anchor="middle" x="630" y="-511.5" font-family="Helvetica,sans-Serif" font-size="10.00" fill="#000000">stdlib.h</text>
</g>
<!-- Node1&#45;&gt;Node4 -->
<g id="edge4" class="edge">
<title>Node1&#45;&gt;Node4</title>
<path fill="none" stroke="#191970" d="M457.5989,-561.8178C490.0324,-553.3496 542.1901,-539.5389 596.1418,-524.1871"/>
<polygon fill="#191970" stroke="#191970" points="597.2216,-527.5187 605.8753,-521.4061 595.2985,-520.7881 597.2216,-527.5187"/>
</g>
<!-- Node1&#45;&gt;Node5 -->
<g id="edge5" class="edge">
<title>Node1&#45;&gt;Node5</title>
<path fill="none" stroke="#191970" d="M457.6177,-567.6982C518.0584,-562.7646 647.1772,-549.4921 683,-524 710.399,-504.5024 720,-491.6283 720,-458 720,-458 720,-458 720,-178 720,-145.7064 720.8415,-108.1836 721.4328,-85.8029"/>
<polygon fill="#191970" stroke="#191970" points="724.9374,-85.6797 721.7134,-75.5873 717.9401,-85.4874 724.9374,-85.6797"/>
</g>
<!-- Node6 -->
<g id="node7" class="node">
<title>Node6</title>
<g id="a_node7"><a xlink:href="c__types_8h.html" target="_top" xlink:title="c_types.h">
<polygon fill="#ffffff" stroke="#000000" points="417.5,-56.5 417.5,-75.5 476.5,-75.5 476.5,-56.5 417.5,-56.5"/>
<text text-anchor="middle" x="447" y="-63.5" font-family="Helvetica,sans-Serif" font-size="10.00" fill="#000000">c_types.h</text>
</a>
</g>
</g>
<!-- Node1&#45;&gt;Node6 -->
<g id="edge6" class="edge">
<title>Node1&#45;&gt;Node6</title>
<path fill="none" stroke="#191970" d="M394.38,-569.429C324.7692,-567.526 161.2561,-559.314 121,-524 98.0533,-503.8704 102,-488.5246 102,-458 102,-458 102,-458 102,-178 102,-114.4724 316.2968,-81.5121 407.1026,-70.3972"/>
<polygon fill="#191970" stroke="#191970" points="407.7733,-73.842 417.2869,-69.1792 406.942,-66.8916 407.7733,-73.842"/>
</g>
<!-- Node9 -->
<g id="node10" class="node">
<title>Node9</title>
<g id="a_node10"><a xlink:href="ets__sys_8h.html" target="_top" xlink:title="ets_sys.h">
<polygon fill="#ffffff" stroke="#000000" points="475.5,-112.5 475.5,-131.5 534.5,-131.5 534.5,-112.5 475.5,-112.5"/>
<text text-anchor="middle" x="505" y="-119.5" font-family="Helvetica,sans-Serif" font-size="10.00" fill="#000000">ets_sys.h</text>
</a>
</g>
</g>
<!-- Node1&#45;&gt;Node9 -->
<g id="edge9" class="edge">
<title>Node1&#45;&gt;Node9</title>
<path fill="none" stroke="#191970" d="M415.8791,-560.2064C401.4104,-546.529 373.6127,-521.4287 347,-504 317.0702,-484.3988 297.876,-495.5079 275,-468 255.4824,-444.5305 256,-432.5246 256,-402 256,-402 256,-402 256,-234 256,-188.5951 395.4477,-148.4245 465.6311,-131.0821"/>
<polygon fill="#191970" stroke="#191970" points="466.5695,-134.456 475.4586,-128.6911 464.9146,-127.6544 466.5695,-134.456"/>
</g>
<!-- Node11 -->
<g id="node12" class="node">
<title>Node11</title>
<g id="a_node12"><a xlink:href="gpio_8h.html" target="_top" xlink:title="gpio.h">
<polygon fill="#ffffff" stroke="#000000" points="610,-448.5 610,-467.5 654,-467.5 654,-448.5 610,-448.5"/>
<text text-anchor="middle" x="632" y="-455.5" font-family="Helvetica,sans-Serif" font-size="10.00" fill="#000000">gpio.h</text>
</a>
</g>
</g>
<!-- Node1&#45;&gt;Node11 -->
<g id="edge12" class="edge">
<title>Node1&#45;&gt;Node11</title>
<path fill="none" stroke="#191970" d="M439.7502,-560.3843C459.3042,-546.9183 496.4969,-522.0676 530,-504 552.9221,-491.6386 579.8091,-479.6089 600.2222,-470.9535"/>
<polygon fill="#191970" stroke="#191970" points="601.8087,-474.0836 609.6774,-466.9889 599.1018,-467.6281 601.8087,-474.0836"/>
</g>
<!-- Node12 -->
<g id="node13" class="node">
<title>Node12</title>
<g id="a_node13"><a xlink:href="sdk_2include_2mem_8h.html" target="_top" xlink:title="mem.h">
<polygon fill="#ffffff" stroke="#000000" points="130.5,-504.5 130.5,-523.5 177.5,-523.5 177.5,-504.5 130.5,-504.5"/>
<text text-anchor="middle" x="154" y="-511.5" font-family="Helvetica,sans-Serif" font-size="10.00" fill="#000000">mem.h</text>
</a>
</g>
</g>
<!-- Node1&#45;&gt;Node12 -->
<g id="edge13" class="edge">
<title>Node1&#45;&gt;Node12</title>
<path fill="none" stroke="#191970" d="M394.4545,-565.0049C350.3046,-557.7807 267.4348,-543.3735 187.4486,-523.9065"/>
<polygon fill="#191970" stroke="#191970" points="188.2582,-520.5014 177.7112,-521.5076 186.5836,-527.2982 188.2582,-520.5014"/>
</g>
<!-- Node13 -->
<g id="node14" class="node">
<title>Node13</title>
<g id="a_node14"><a xlink:href="osapi_8h.html" target="_top" xlink:title="osapi.h">
<polygon fill="#ffffff" stroke="#000000" points="564.5,-112.5 564.5,-131.5 613.5,-131.5 613.5,-112.5 564.5,-112.5"/>
<text text-anchor="middle" x="589" y="-119.5" font-family="Helvetica,sans-Serif" font-size="10.00" fill="#000000">osapi.h</text>
</a>
</g>
</g>
<!-- Node1&#45;&gt;Node13 -->
<g id="edge14" class="edge">
<title>Node1&#45;&gt;Node13</title>
<path fill="none" stroke="#191970" d="M457.7746,-568.6585C516.26,-565.451 637.3351,-555.1253 663,-524 760.2782,-406.0254 641.3755,-201.8532 601.2905,-140.1648"/>
<polygon fill="#191970" stroke="#191970" points="604.0126,-137.9356 595.5791,-131.5226 598.1727,-141.7951 604.0126,-137.9356"/>
</g>
<!-- Node15 -->
<g id="node16" class="node">
<title>Node15</title>
<g id="a_node16"><a xlink:href="user__interface_8h.html" target="_top" xlink:title="user_interface.h">
<polygon fill="#ffffff" stroke="#000000" points="394,-504.5 394,-523.5 482,-523.5 482,-504.5 394,-504.5"/>
<text text-anchor="middle" x="438" y="-511.5" font-family="Helvetica,sans-Serif" font-size="10.00" fill="#000000">user_interface.h</text>
</a>
</g>
</g>
<!-- Node1&#45;&gt;Node15 -->
<g id="edge17" class="edge">
<title>Node1&#45;&gt;Node15</title>
<path fill="none" stroke="#191970" d="M428.0902,-560.2455C429.6561,-552.9382 431.8512,-542.6944 433.7776,-533.7046"/>
<polygon fill="#191970" stroke="#191970" points="437.2607,-534.1541 435.9337,-523.6427 430.416,-532.6873 437.2607,-534.1541"/>
</g>
<!-- Node26 -->
<g id="node27" class="node">
<title>Node26</title>
<g id="a_node27"><a xlink:href="upgrade_8h.html" target="_top" xlink:title="upgrade.h">
<polygon fill="#ffffff" stroke="#000000" points="196,-504.5 196,-523.5 258,-523.5 258,-504.5 196,-504.5"/>
<text text-anchor="middle" x="227" y="-511.5" font-family="Helvetica,sans-Serif" font-size="10.00" fill="#000000">upgrade.h</text>
</a>
</g>
</g>
<!-- Node1&#45;&gt;Node26 -->
<g id="edge36" class="edge">
<title>Node1&#45;&gt;Node26</title>
<path fill="none" stroke="#191970" d="M394.4679,-561.1266C360.3076,-551.5137 305.6738,-536.1394 268.1544,-525.5811"/>
<polygon fill="#191970" stroke="#191970" points="268.6313,-522.0795 258.057,-522.7397 266.735,-528.8177 268.6313,-522.0795"/>
</g>
<!-- Node27 -->
<g id="node28" class="node">
<title>Node27</title>
<g id="a_node28"><a xlink:href="platform_8h.html" target="_top" xlink:title="platform.h">
<polygon fill="#ffffff" stroke="#000000" points="276.5,-504.5 276.5,-523.5 337.5,-523.5 337.5,-504.5 276.5,-504.5"/>
<text text-anchor="middle" x="307" y="-511.5" font-family="Helvetica,sans-Serif" font-size="10.00" fill="#000000">platform.h</text>
</a>
</g>
</g>
<!-- Node1&#45;&gt;Node27 -->
<g id="edge37" class="edge">
<title>Node1&#45;&gt;Node27</title>
<path fill="none" stroke="#191970" d="M405.5432,-560.3733C386.5262,-551.4241 357.9825,-537.9917 336.5024,-527.8835"/>
<polygon fill="#191970" stroke="#191970" points="337.7284,-524.5923 327.1899,-523.5011 334.7478,-530.926 337.7284,-524.5923"/>
</g>
<!-- Node7 -->
<g id="node8" class="node">
<title>Node7</title>
<polygon fill="#ffffff" stroke="#bfbfbf" points="625.5,-.5 625.5,-19.5 674.5,-19.5 674.5,-.5 625.5,-.5"/>
<text text-anchor="middle" x="650" y="-7.5" font-family="Helvetica,sans-Serif" font-size="10.00" fill="#000000">stdint.h</text>
</g>
<!-- Node6&#45;&gt;Node7 -->
<g id="edge7" class="edge">
<title>Node6&#45;&gt;Node7</title>
<path fill="none" stroke="#191970" d="M476.5179,-57.8571C513.3623,-47.6932 576.2784,-30.337 615.3641,-19.5547"/>
<polygon fill="#191970" stroke="#191970" points="616.5268,-22.8648 625.2359,-16.8315 614.6652,-16.1169 616.5268,-22.8648"/>
</g>
<!-- Node8 -->
<g id="node9" class="node">
<title>Node8</title>
<polygon fill="#ffffff" stroke="#bfbfbf" points="418.5,-.5 418.5,-19.5 475.5,-19.5 475.5,-.5 418.5,-.5"/>
<text text-anchor="middle" x="447" y="-7.5" font-family="Helvetica,sans-Serif" font-size="10.00" fill="#000000">stdbool.h</text>
</g>
<!-- Node6&#45;&gt;Node8 -->
<g id="edge8" class="edge">
<title>Node6&#45;&gt;Node8</title>
<path fill="none" stroke="#191970" d="M447,-56.2455C447,-48.9382 447,-38.6944 447,-29.7046"/>
<polygon fill="#191970" stroke="#191970" points="450.5001,-29.6426 447,-19.6427 443.5001,-29.6427 450.5001,-29.6426"/>
</g>
<!-- Node9&#45;&gt;Node6 -->
<g id="edge10" class="edge">
<title>Node9&#45;&gt;Node6</title>
<path fill="none" stroke="#191970" d="M494.8972,-112.2455C486.4972,-104.1352 474.3506,-92.4075 464.3916,-82.7919"/>
<polygon fill="#191970" stroke="#191970" points="466.6122,-80.0707 456.9871,-75.6427 461.75,-85.1066 466.6122,-80.0707"/>
</g>
<!-- Node10 -->
<g id="node11" class="node">
<title>Node10</title>
<g id="a_node11"><a xlink:href="eagle__soc_8h.html" target="_top" xlink:title="eagle_soc.h">
<polygon fill="#ffffff" stroke="#000000" points="495,-56.5 495,-75.5 565,-75.5 565,-56.5 495,-56.5"/>
<text text-anchor="middle" x="530" y="-63.5" font-family="Helvetica,sans-Serif" font-size="10.00" fill="#000000">eagle_soc.h</text>
</a>
</g>
</g>
<!-- Node9&#45;&gt;Node10 -->
<g id="edge11" class="edge">
<title>Node9&#45;&gt;Node10</title>
<path fill="none" stroke="#191970" d="M509.3547,-112.2455C512.7244,-104.6973 517.493,-94.0158 521.5983,-84.8197"/>
<polygon fill="#191970" stroke="#191970" points="524.8147,-86.2009 525.6952,-75.6427 518.4227,-83.3473 524.8147,-86.2009"/>
</g>
<!-- Node13&#45;&gt;Node5 -->
<g id="edge15" class="edge">
<title>Node13&#45;&gt;Node5</title>
<path fill="none" stroke="#191970" d="M611.8635,-112.3733C633.405,-103.3032 665.8838,-89.6279 689.9956,-79.4755"/>
<polygon fill="#191970" stroke="#191970" points="691.5767,-82.6075 699.4348,-75.5011 688.8603,-76.156 691.5767,-82.6075"/>
</g>
<!-- Node13&#45;&gt;Node14 -->
<g id="edge16" class="edge">
<title>Node13&#45;&gt;Node14</title>
<path fill="none" stroke="#191970" d="M598.0577,-112.2455C605.5142,-104.2155 616.2634,-92.6394 625.1417,-83.0781"/>
<polygon fill="#191970" stroke="#191970" points="627.8063,-85.3522 632.0461,-75.6427 622.6768,-80.589 627.8063,-85.3522"/>
</g>
<!-- Node15&#45;&gt;Node11 -->
<g id="edge35" class="edge">
<title>Node15&#45;&gt;Node11</title>
<path fill="none" stroke="#191970" d="M471.3498,-504.3733C507.438,-493.956 564.571,-477.464 600.0881,-467.2117"/>
<polygon fill="#191970" stroke="#191970" points="601.2961,-470.506 609.9331,-464.3698 599.3547,-463.7805 601.2961,-470.506"/>
</g>
<!-- Node15&#45;&gt;Node14 -->
<g id="edge33" class="edge">
<title>Node15&#45;&gt;Node14</title>
<path fill="none" stroke="#191970" d="M469.8987,-504.4836C492.2545,-496.8506 522.1092,-484.6547 545,-468 571.7423,-448.543 580.3061,-442.1032 594,-412 646.2589,-297.1198 644.6034,-140.2571 642.1625,-85.6747"/>
<polygon fill="#191970" stroke="#191970" points="645.6551,-85.4399 641.6488,-75.6318 638.6643,-85.7976 645.6551,-85.4399"/>
</g>
<!-- Node16 -->
<g id="node17" class="node">
<title>Node16</title>
<g id="a_node17"><a xlink:href="os__type_8h.html" target="_top" xlink:title="os_type.h">
<polygon fill="#ffffff" stroke="#000000" points="525,-392.5 525,-411.5 585,-411.5 585,-392.5 525,-392.5"/>
<text text-anchor="middle" x="555" y="-399.5" font-family="Helvetica,sans-Serif" font-size="10.00" fill="#000000">os_type.h</text>
</a>
</g>
</g>
<!-- Node15&#45;&gt;Node16 -->
<g id="edge18" class="edge">
<title>Node15&#45;&gt;Node16</title>
<path fill="none" stroke="#191970" d="M466.5157,-504.4667C485.1628,-497.0143 508.9504,-485.0383 525,-468 537.379,-454.8585 545.3042,-435.7234 549.8803,-421.4369"/>
<polygon fill="#191970" stroke="#191970" points="553.2987,-422.2169 552.7451,-411.6365 546.5799,-420.2528 553.2987,-422.2169"/>
</g>
<!-- Node17 -->
<g id="node18" class="node">
<title>Node17</title>
<g id="a_node18"><a xlink:href="esp-open-lwip_2include_2lwip_2ip__addr_8h.html" target="_top" xlink:title="lwip/ip_addr.h">
<polygon fill="#ffffff" stroke="#000000" points="438,-448.5 438,-467.5 516,-467.5 516,-448.5 438,-448.5"/>
<text text-anchor="middle" x="477" y="-455.5" font-family="Helvetica,sans-Serif" font-size="10.00" fill="#000000">lwip/ip_addr.h</text>
</a>
</g>
</g>
<!-- Node15&#45;&gt;Node17 -->
<g id="edge20" class="edge">
<title>Node15&#45;&gt;Node17</title>
<path fill="none" stroke="#191970" d="M444.7933,-504.2455C450.2178,-496.4564 457.9661,-485.3308 464.5033,-475.9439"/>
<polygon fill="#191970" stroke="#191970" points="467.4417,-477.849 470.2846,-467.6427 461.6975,-473.8485 467.4417,-477.849"/>
</g>
<!-- Node24 -->
<g id="node25" class="node">
<title>Node24</title>
<g id="a_node25"><a xlink:href="esp-open-sdk_2sdk_2include_2queue_8h.html" target="_top" xlink:title="queue.h">
<polygon fill="#ffffff" stroke="#000000" points="366.5,-448.5 366.5,-467.5 419.5,-467.5 419.5,-448.5 366.5,-448.5"/>
<text text-anchor="middle" x="393" y="-455.5" font-family="Helvetica,sans-Serif" font-size="10.00" fill="#000000">queue.h</text>
</a>
</g>
</g>
<!-- Node15&#45;&gt;Node24 -->
<g id="edge32" class="edge">
<title>Node15&#45;&gt;Node24</title>
<path fill="none" stroke="#191970" d="M430.1616,-504.2455C423.838,-496.3761 414.7776,-485.101 407.1864,-475.6542"/>
<polygon fill="#191970" stroke="#191970" points="409.7408,-473.2454 400.7486,-467.6427 404.2842,-477.6302 409.7408,-473.2454"/>
</g>
<!-- Node25 -->
<g id="node26" class="node">
<title>Node25</title>
<g id="a_node26"><a xlink:href="spi__flash_8h.html" target="_top" xlink:title="spi_flash.h">
<polygon fill="#ffffff" stroke="#000000" points="284,-448.5 284,-467.5 348,-467.5 348,-448.5 284,-448.5"/>
<text text-anchor="middle" x="316" y="-455.5" font-family="Helvetica,sans-Serif" font-size="10.00" fill="#000000">spi_flash.h</text>
</a>
</g>
</g>
<!-- Node15&#45;&gt;Node25 -->
<g id="edge34" class="edge">
<title>Node15&#45;&gt;Node25</title>
<path fill="none" stroke="#191970" d="M417.0275,-504.3733C397.4433,-495.3838 368.0039,-481.8706 345.949,-471.7471"/>
<polygon fill="#191970" stroke="#191970" points="347.2473,-468.4919 336.6989,-467.5011 344.3271,-474.8538 347.2473,-468.4919"/>
</g>
<!-- Node16&#45;&gt;Node9 -->
<g id="edge19" class="edge">
<title>Node16&#45;&gt;Node9</title>
<path fill="none" stroke="#191970" d="M554.4269,-392.4157C553.3209,-373.0653 551,-327.9408 551,-290 551,-290 551,-290 551,-234 551,-198.66 531.1609,-161.4332 517.5403,-140.0395"/>
<polygon fill="#191970" stroke="#191970" points="520.4212,-138.0507 511.9864,-131.6394 514.5821,-141.9114 520.4212,-138.0507"/>
</g>
<!-- Node18 -->
<g id="node19" class="node">
<title>Node18</title>
<g id="a_node19"><a xlink:href="opt_8h.html" target="_top" xlink:title="lwip/opt.h">
<polygon fill="#ffffff" stroke="#000000" points="397.5,-336.5 397.5,-355.5 456.5,-355.5 456.5,-336.5 397.5,-336.5"/>
<text text-anchor="middle" x="427" y="-343.5" font-family="Helvetica,sans-Serif" font-size="10.00" fill="#000000">lwip/opt.h</text>
</a>
</g>
</g>
<!-- Node17&#45;&gt;Node18 -->
<g id="edge21" class="edge">
<title>Node17&#45;&gt;Node18</title>
<path fill="none" stroke="#191970" d="M466.5674,-448.4621C457.7893,-439.8175 445.6373,-426.2778 439,-412 432.2496,-397.4788 429.2887,-379.5165 427.9941,-365.9987"/>
<polygon fill="#191970" stroke="#191970" points="431.4729,-365.5798 427.2518,-355.8622 424.4915,-366.0911 431.4729,-365.5798"/>
</g>
<!-- Node23 -->
<g id="node24" class="node">
<title>Node23</title>
<g id="a_node24"><a xlink:href="def_8h.html" target="_top" xlink:title="lwip/def.h">
<polygon fill="#ffffff" stroke="#000000" points="447.5,-392.5 447.5,-411.5 506.5,-411.5 506.5,-392.5 447.5,-392.5"/>
<text text-anchor="middle" x="477" y="-399.5" font-family="Helvetica,sans-Serif" font-size="10.00" fill="#000000">lwip/def.h</text>
</a>
</g>
</g>
<!-- Node17&#45;&gt;Node23 -->
<g id="edge29" class="edge">
<title>Node17&#45;&gt;Node23</title>
<path fill="none" stroke="#191970" d="M477,-448.2455C477,-440.9382 477,-430.6944 477,-421.7046"/>
<polygon fill="#191970" stroke="#191970" points="480.5001,-421.6426 477,-411.6427 473.5001,-421.6427 480.5001,-421.6426"/>
</g>
<!-- Node19 -->
<g id="node20" class="node">
<title>Node19</title>
<g id="a_node20"><a xlink:href="lwipopts_8h.html" target="_top" xlink:title="lwipopts.h">
<polygon fill="#ffffff" stroke="#000000" points="399.5,-280.5 399.5,-299.5 460.5,-299.5 460.5,-280.5 399.5,-280.5"/>
<text text-anchor="middle" x="430" y="-287.5" font-family="Helvetica,sans-Serif" font-size="10.00" fill="#000000">lwipopts.h</text>
</a>
</g>
</g>
<!-- Node18&#45;&gt;Node19 -->
<g id="edge22" class="edge">
<title>Node18&#45;&gt;Node19</title>
<path fill="none" stroke="#191970" d="M427.5226,-336.2455C427.914,-328.9382 428.4628,-318.6944 428.9444,-309.7046"/>
<polygon fill="#191970" stroke="#191970" points="432.4434,-309.8156 429.4834,-299.6427 425.4534,-309.4411 432.4434,-309.8156"/>
</g>
<!-- Node20 -->
<g id="node21" class="node">
<title>Node20</title>
<g id="a_node21"><a xlink:href="esp-open-sdk_2esp-open-lwip_2include_2lwip_2debug_8h.html" target="_top" xlink:title="lwip/debug.h">
<polygon fill="#ffffff" stroke="#000000" points="308.5,-280.5 308.5,-299.5 381.5,-299.5 381.5,-280.5 308.5,-280.5"/>
<text text-anchor="middle" x="345" y="-287.5" font-family="Helvetica,sans-Serif" font-size="10.00" fill="#000000">lwip/debug.h</text>
</a>
</g>
</g>
<!-- Node18&#45;&gt;Node20 -->
<g id="edge23" class="edge">
<title>Node18&#45;&gt;Node20</title>
<path fill="none" stroke="#191970" d="M412.7167,-336.2455C400.253,-327.7337 381.9549,-315.2375 367.5208,-305.3801"/>
<polygon fill="#191970" stroke="#191970" points="369.3515,-302.392 359.1196,-299.6427 365.4038,-308.1726 369.3515,-302.392"/>
</g>
<!-- Node21 -->
<g id="node22" class="node">
<title>Node21</title>
<g id="a_node22"><a xlink:href="arch_8h.html" target="_top" xlink:title="lwip/arch.h">
<polygon fill="#ffffff" stroke="#000000" points="457,-224.5 457,-243.5 521,-243.5 521,-224.5 457,-224.5"/>
<text text-anchor="middle" x="489" y="-231.5" font-family="Helvetica,sans-Serif" font-size="10.00" fill="#000000">lwip/arch.h</text>
</a>
</g>
</g>
<!-- Node20&#45;&gt;Node21 -->
<g id="edge24" class="edge">
<title>Node20&#45;&gt;Node21</title>
<path fill="none" stroke="#191970" d="M369.7545,-280.3733C393.2849,-271.2226 428.8687,-257.3844 455.0426,-247.2057"/>
<polygon fill="#191970" stroke="#191970" points="456.5171,-250.3877 464.5685,-243.5011 453.9799,-243.8636 456.5171,-250.3877"/>
</g>
<!-- Node22 -->
<g id="node23" class="node">
<title>Node22</title>
<g id="a_node23"><a xlink:href="cc_8h.html" target="_top" xlink:title="arch/cc.h">
<polygon fill="#ffffff" stroke="#000000" points="463.5,-168.5 463.5,-187.5 520.5,-187.5 520.5,-168.5 463.5,-168.5"/>
<text text-anchor="middle" x="492" y="-175.5" font-family="Helvetica,sans-Serif" font-size="10.00" fill="#000000">arch/cc.h</text>
</a>
</g>
</g>
<!-- Node21&#45;&gt;Node22 -->
<g id="edge25" class="edge">
<title>Node21&#45;&gt;Node22</title>
<path fill="none" stroke="#191970" d="M489.5226,-224.2455C489.914,-216.9382 490.4628,-206.6944 490.9444,-197.7046"/>
<polygon fill="#191970" stroke="#191970" points="494.4434,-197.8156 491.4834,-187.6427 487.4534,-197.4411 494.4434,-197.8156"/>
</g>
<!-- Node22&#45;&gt;Node6 -->
<g id="edge26" class="edge">
<title>Node22&#45;&gt;Node6</title>
<path fill="none" stroke="#191970" d="M486.04,-168.4149C480.5567,-159.3018 472.4698,-145.0819 467,-132 460.6494,-116.8115 455.351,-98.8987 451.8066,-85.5697"/>
<polygon fill="#191970" stroke="#191970" points="455.1281,-84.4314 449.2572,-75.6119 448.3468,-86.1676 455.1281,-84.4314"/>
</g>
<!-- Node22&#45;&gt;Node9 -->
<g id="edge27" class="edge">
<title>Node22&#45;&gt;Node9</title>
<path fill="none" stroke="#191970" d="M494.2644,-168.2455C495.9794,-160.8579 498.3912,-150.4689 500.4944,-141.4087"/>
<polygon fill="#191970" stroke="#191970" points="503.9095,-142.1751 502.7615,-131.6427 497.0908,-140.5922 503.9095,-142.1751"/>
</g>
<!-- Node22&#45;&gt;Node13 -->
<g id="edge28" class="edge">
<title>Node22&#45;&gt;Node13</title>
<path fill="none" stroke="#191970" d="M508.8961,-168.2455C523.918,-159.5731 546.1043,-146.7645 563.321,-136.825"/>
<polygon fill="#191970" stroke="#191970" points="565.3871,-139.6737 572.2975,-131.6427 561.8872,-133.6114 565.3871,-139.6737"/>
</g>
<!-- Node23&#45;&gt;Node18 -->
<g id="edge31" class="edge">
<title>Node23&#45;&gt;Node18</title>
<path fill="none" stroke="#191970" d="M468.2907,-392.2455C461.1927,-384.2958 450.9916,-372.8706 442.505,-363.3656"/>
<polygon fill="#191970" stroke="#191970" points="444.8805,-360.771 435.6095,-355.6427 439.6589,-365.4331 444.8805,-360.771"/>
</g>
<!-- Node23&#45;&gt;Node21 -->
<g id="edge30" class="edge">
<title>Node23&#45;&gt;Node21</title>
<path fill="none" stroke="#191970" d="M477.6796,-392.4862C479.5765,-365.9293 484.9596,-290.5651 487.5596,-254.1655"/>
<polygon fill="#191970" stroke="#191970" points="491.0766,-254.0519 488.298,-243.8279 484.0943,-253.5531 491.0766,-254.0519"/>
</g>
<!-- Node28&#45;&gt;Node1 -->
<g id="edge40" class="edge">
<title>Node28&#45;&gt;Node1</title>
<path fill="none" stroke="#191970" d="M104.2873,-619.6306C173.9271,-608.8873 313.9812,-587.2811 384.0589,-576.4702"/>
<polygon fill="#191970" stroke="#191970" points="384.9296,-579.8774 394.279,-574.8936 383.8622,-572.9593 384.9296,-579.8774"/>
</g>
<!-- Node28&#45;&gt;Node3 -->
<g id="edge41" class="edge">
<title>Node28&#45;&gt;Node3</title>
<path fill="none" stroke="#191970" d="M61.9769,-616.4509C60.0197,-598.184 55.7095,-557.9553 53.1105,-533.6976"/>
<polygon fill="#191970" stroke="#191970" points="56.566,-533.0951 52.0205,-523.5249 49.6059,-533.8409 56.566,-533.0951"/>
</g>
<!-- Node29&#45;&gt;Node1 -->
<g id="edge43" class="edge">
<title>Node29&#45;&gt;Node1</title>
<path fill="none" stroke="#191970" d="M816.4122,-621.3218C738.1707,-611.0365 551.5163,-586.4998 467.8372,-575.4997"/>
<polygon fill="#191970" stroke="#191970" points="468.053,-571.9981 457.6821,-574.1648 467.1406,-578.9383 468.053,-571.9981"/>
</g>
<!-- Node29&#45;&gt;Node7 -->
<g id="edge44" class="edge">
<title>Node29&#45;&gt;Node7</title>
<path fill="none" stroke="#191970" d="M854.9511,-616.2168C860.5144,-596.8801 872,-552.3189 872,-514 872,-514 872,-514 872,-122 872,-39.1597 747.2571,-17.5808 684.7866,-11.9681"/>
<polygon fill="#191970" stroke="#191970" points="684.8555,-8.4624 674.6061,-11.1456 684.2917,-15.4396 684.8555,-8.4624"/>
</g>
<!-- Node30&#45;&gt;Node1 -->
<g id="edge46" class="edge">
<title>Node30&#45;&gt;Node1</title>
<path fill="none" stroke="#191970" d="M347.3323,-672.4509C361.7396,-653.688 393.9383,-611.7548 412.3644,-587.758"/>
<polygon fill="#191970" stroke="#191970" points="415.372,-589.588 418.6862,-579.5249 409.8199,-585.3248 415.372,-589.588"/>
</g>
<!-- Node30&#45;&gt;Node7 -->
<g id="edge47" class="edge">
<title>Node30&#45;&gt;Node7</title>
<path fill="none" stroke="#191970" d="M295.8995,-674.3398C203.9038,-655.5623 0,-598.1366 0,-458 0,-458 0,-458 0,-122 0,-59.0077 480.2205,-21.5579 615.1287,-12.28"/>
<polygon fill="#191970" stroke="#191970" points="615.5731,-15.758 625.3129,-11.5883 615.0987,-8.7741 615.5731,-15.758"/>
</g>
<!-- Node30&#45;&gt;Node28 -->
<g id="edge48" class="edge">
<title>Node30&#45;&gt;Node28</title>
<path fill="none" stroke="#191970" d="M295.8022,-673.0647C246.3993,-663.0771 166.5108,-646.9264 114.3679,-636.3848"/>
<polygon fill="#191970" stroke="#191970" points="114.8218,-632.9059 104.3265,-634.3548 113.4346,-639.7671 114.8218,-632.9059"/>
</g>
<!-- Node31&#45;&gt;Node1 -->
<g id="edge50" class="edge">
<title>Node31&#45;&gt;Node1</title>
<path fill="none" stroke="#191970" d="M426,-728.4862C426,-701.9293 426,-626.5651 426,-590.1655"/>
<polygon fill="#191970" stroke="#191970" points="429.5001,-589.8278 426,-579.8279 422.5001,-589.8279 429.5001,-589.8278"/>
</g>
<!-- Node31&#45;&gt;Node7 -->
<g id="edge51" class="edge">
<title>Node31&#45;&gt;Node7</title>
<path fill="none" stroke="#191970" d="M457.5331,-728.4063C540.4058,-701.0293 758,-614.2682 758,-458 758,-458 758,-458 758,-290 758,-185.9962 813.4268,-142.7119 756,-56 740.2017,-32.1452 709.1051,-20.5927 684.6602,-15.039"/>
<polygon fill="#191970" stroke="#191970" points="685.1515,-11.5674 674.6551,-13.0077 683.7587,-18.4274 685.1515,-11.5674"/>
</g>
<!-- Node31&#45;&gt;Node28 -->
<g id="edge52" class="edge">
<title>Node31&#45;&gt;Node28</title>
<path fill="none" stroke="#191970" d="M395.0508,-728.4509C329.5507,-708.2415 176.9288,-661.1516 103.6647,-638.5467"/>
<polygon fill="#191970" stroke="#191970" points="104.4583,-635.1288 93.8708,-635.5249 102.3944,-641.8176 104.4583,-635.1288"/>
</g>
<!-- Node31&#45;&gt;Node30 -->
<g id="edge53" class="edge">
<title>Node31&#45;&gt;Node30</title>
<path fill="none" stroke="#191970" d="M411.0199,-728.2455C397.8249,-719.6534 378.3949,-707.0014 363.1921,-697.1018"/>
<polygon fill="#191970" stroke="#191970" points="365.0983,-694.1665 354.8084,-691.6427 361.2785,-700.0325 365.0983,-694.1665"/>
</g>
</g>
</svg>
