<?xml version="1.0" encoding="UTF-8" standalone="no"?>
<!DOCTYPE svg PUBLIC "-//W3C//DTD SVG 1.1//EN"
 "http://www.w3.org/Graphics/SVG/1.1/DTD/svg11.dtd">
<!-- Generated by graphviz version 2.41.20170323.1842 (20170323.1842)
 -->
<!-- Title: send_ack Pages: 1 -->
<svg width="281pt" height="28pt"
 viewBox="0.00 0.00 281.00 28.00" xmlns="http://www.w3.org/2000/svg" xmlns:xlink="http://www.w3.org/1999/xlink">
<g id="graph0" class="graph" transform="scale(1 1) rotate(0) translate(4 24)">
<title>send_ack</title>
<polygon fill="#ffffff" stroke="transparent" points="-4,4 -4,-24 277,-24 277,4 -4,4"/>
<!-- Node150 -->
<g id="node1" class="node">
<title>Node150</title>
<polygon fill="#bfbfbf" stroke="#000000" points="0,-.5 0,-19.5 59,-19.5 59,-.5 0,-.5"/>
<text text-anchor="middle" x="29.5" y="-7.5" font-family="Helvetica,sans-Serif" font-size="10.00" fill="#000000">send_ack</text>
</g>
<!-- Node151 -->
<g id="node2" class="node">
<title>Node151</title>
<g id="a_node2"><a xlink:href="dhcpserver_8c.html#a11489c1fab4206e65914c4c46850d183" target="_top" xlink:title="handle_dhcp">
<polygon fill="#ffffff" stroke="#000000" points="95,-.5 95,-19.5 169,-19.5 169,-.5 95,-.5"/>
<text text-anchor="middle" x="132" y="-7.5" font-family="Helvetica,sans-Serif" font-size="10.00" fill="#000000">handle_dhcp</text>
</a>
</g>
</g>
<!-- Node150&#45;&gt;Node151 -->
<g id="edge1" class="edge">
<title>Node150&#45;&gt;Node151</title>
<path fill="none" stroke="#191970" d="M69.4147,-10C77.7548,-10 86.5164,-10 94.7551,-10"/>
<polygon fill="#191970" stroke="#191970" points="69.1473,-6.5001 59.1472,-10 69.1472,-13.5001 69.1473,-6.5001"/>
</g>
<!-- Node152 -->
<g id="node3" class="node">
<title>Node152</title>
<g id="a_node3"><a xlink:href="dhcpserver_8c.html#aa4cf55564a805b8654630547d365edcd" target="_top" xlink:title="dhcps_start">
<polygon fill="#ffffff" stroke="#000000" points="205,-.5 205,-19.5 273,-19.5 273,-.5 205,-.5"/>
<text text-anchor="middle" x="239" y="-7.5" font-family="Helvetica,sans-Serif" font-size="10.00" fill="#000000">dhcps_start</text>
</a>
</g>
</g>
<!-- Node151&#45;&gt;Node152 -->
<g id="edge2" class="edge">
<title>Node151&#45;&gt;Node152</title>
<path fill="none" stroke="#191970" d="M179.3975,-10C187.9556,-10 196.7247,-10 204.8135,-10"/>
<polygon fill="#191970" stroke="#191970" points="179.1231,-6.5001 169.1231,-10 179.1231,-13.5001 179.1231,-6.5001"/>
</g>
</g>
</svg>
