<?xml version="1.0" encoding="UTF-8" standalone="no"?>
<!DOCTYPE svg PUBLIC "-//W3C//DTD SVG 1.1//EN"
 "http://www.w3.org/Graphics/SVG/1.1/DTD/svg11.dtd">
<!-- Generated by graphviz version 2.41.20170323.1842 (20170323.1842)
 -->
<!-- Title: send_offer Pages: 1 -->
<svg width="562pt" height="355pt"
 viewBox="0.00 0.00 562.00 355.00" xmlns="http://www.w3.org/2000/svg" xmlns:xlink="http://www.w3.org/1999/xlink">
<g id="graph0" class="graph" transform="scale(1 1) rotate(0) translate(4 351)">
<title>send_offer</title>
<polygon fill="#ffffff" stroke="transparent" points="-4,4 -4,-351 558,-351 558,4 -4,4"/>
<!-- Node171 -->
<g id="node1" class="node">
<title>Node171</title>
<polygon fill="#bfbfbf" stroke="#000000" points="0,-213.5 0,-232.5 64,-232.5 64,-213.5 0,-213.5"/>
<text text-anchor="middle" x="32" y="-220.5" font-family="Helvetica,sans-Serif" font-size="10.00" fill="#000000">send_offer</text>
</g>
<!-- Node172 -->
<g id="node2" class="node">
<title>Node172</title>
<g id="a_node2"><a xlink:href="dhcpserver_8c.html#aad9c2e8bfabe5431b4b0aa0e02cf46e2" target="_top" xlink:title="add_end">
<polygon fill="#ffffff" stroke="#000000" points="121,-327.5 121,-346.5 176,-346.5 176,-327.5 121,-327.5"/>
<text text-anchor="middle" x="148.5" y="-334.5" font-family="Helvetica,sans-Serif" font-size="10.00" fill="#000000">add_end</text>
</a>
</g>
</g>
<!-- Node171&#45;&gt;Node172 -->
<g id="edge1" class="edge">
<title>Node171&#45;&gt;Node172</title>
<path fill="none" stroke="#191970" d="M36.57,-232.7644C45.9092,-251.7357 68.9502,-293.8292 100,-318 103.5479,-320.7619 107.5471,-323.1676 111.6884,-325.2514"/>
<polygon fill="#191970" stroke="#191970" points="110.3006,-328.4646 120.8615,-329.3121 113.1342,-322.0637 110.3006,-328.4646"/>
</g>
<!-- Node173 -->
<g id="node3" class="node">
<title>Node173</title>
<g id="a_node3"><a xlink:href="dhcpserver_8c.html#a11dbc1add0179422de532e78b1a8c6d8" target="_top" xlink:title="add_msg_type">
<polygon fill="#ffffff" stroke="#000000" points="107.5,-289.5 107.5,-308.5 189.5,-308.5 189.5,-289.5 107.5,-289.5"/>
<text text-anchor="middle" x="148.5" y="-296.5" font-family="Helvetica,sans-Serif" font-size="10.00" fill="#000000">add_msg_type</text>
</a>
</g>
</g>
<!-- Node171&#45;&gt;Node173 -->
<g id="edge2" class="edge">
<title>Node171&#45;&gt;Node173</title>
<path fill="none" stroke="#191970" d="M41.3656,-232.5883C53.8182,-244.9054 76.9483,-266.3228 100,-280 103.2227,-281.9121 106.6728,-283.7031 110.1924,-285.3619"/>
<polygon fill="#191970" stroke="#191970" points="108.9959,-288.6582 119.5621,-289.4371 111.7878,-282.2391 108.9959,-288.6582"/>
</g>
<!-- Node174 -->
<g id="node4" class="node">
<title>Node174</title>
<g id="a_node4"><a xlink:href="dhcpserver_8c.html#a073fe00851b9b0c98ba76fe19bf6fa83" target="_top" xlink:title="add_offer_options">
<polygon fill="#ffffff" stroke="#000000" points="100,-251.5 100,-270.5 197,-270.5 197,-251.5 100,-251.5"/>
<text text-anchor="middle" x="148.5" y="-258.5" font-family="Helvetica,sans-Serif" font-size="10.00" fill="#000000">add_offer_options</text>
</a>
</g>
</g>
<!-- Node171&#45;&gt;Node174 -->
<g id="edge3" class="edge">
<title>Node171&#45;&gt;Node174</title>
<path fill="none" stroke="#191970" d="M61.3979,-232.589C75.885,-237.3144 93.5576,-243.0789 109.1886,-248.1774"/>
<polygon fill="#191970" stroke="#191970" points="108.5191,-251.6405 119.1115,-251.4141 110.6899,-244.9855 108.5191,-251.6405"/>
</g>
<!-- Node176 -->
<g id="node6" class="node">
<title>Node176</title>
<g id="a_node6"><a xlink:href="dhcpserver_8c.html#a424b9b8d671aa4c6550b25a5fb5c69cc" target="_top" xlink:title="create_msg">
<polygon fill="#ffffff" stroke="#000000" points="114,-213.5 114,-232.5 183,-232.5 183,-213.5 114,-213.5"/>
<text text-anchor="middle" x="148.5" y="-220.5" font-family="Helvetica,sans-Serif" font-size="10.00" fill="#000000">create_msg</text>
</a>
</g>
</g>
<!-- Node171&#45;&gt;Node176 -->
<g id="edge5" class="edge">
<title>Node171&#45;&gt;Node176</title>
<path fill="none" stroke="#191970" d="M64.1425,-223C76.2593,-223 90.2762,-223 103.3621,-223"/>
<polygon fill="#191970" stroke="#191970" points="103.6029,-226.5001 113.6029,-223 103.6029,-219.5001 103.6029,-226.5001"/>
</g>
<!-- Node177 -->
<g id="node7" class="node">
<title>Node177</title>
<g id="a_node7"><a xlink:href="espmissingincludes_8h.html#a0bbba7104c948de849f8051d9ac956e3" target="_top" xlink:title="os_printf">
<polygon fill="#ffffff" stroke="#000000" points="121,-175.5 121,-194.5 176,-194.5 176,-175.5 121,-175.5"/>
<text text-anchor="middle" x="148.5" y="-182.5" font-family="Helvetica,sans-Serif" font-size="10.00" fill="#000000">os_printf</text>
</a>
</g>
</g>
<!-- Node171&#45;&gt;Node177 -->
<g id="edge6" class="edge">
<title>Node171&#45;&gt;Node177</title>
<path fill="none" stroke="#191970" d="M61.3979,-213.411C76.4696,-208.4949 94.9889,-202.4543 111.0703,-197.2088"/>
<polygon fill="#191970" stroke="#191970" points="112.294,-200.4913 120.7156,-194.0627 110.1232,-193.8363 112.294,-200.4913"/>
</g>
<!-- Node178 -->
<g id="node8" class="node">
<title>Node178</title>
<g id="a_node8"><a xlink:href="pbuf_8h.html#ac6efc2aaeddfea6c95729dc86f785ba4" target="_top" xlink:title="pbuf_alloc">
<polygon fill="#ffffff" stroke="#000000" points="117.5,-80.5 117.5,-99.5 179.5,-99.5 179.5,-80.5 117.5,-80.5"/>
<text text-anchor="middle" x="148.5" y="-87.5" font-family="Helvetica,sans-Serif" font-size="10.00" fill="#000000">pbuf_alloc</text>
</a>
</g>
</g>
<!-- Node171&#45;&gt;Node178 -->
<g id="edge7" class="edge">
<title>Node171&#45;&gt;Node178</title>
<path fill="none" stroke="#191970" d="M38.3719,-213.3172C49.7834,-196.2805 74.8727,-160.1764 100,-133 108.7734,-123.5111 119.4358,-113.8821 128.5267,-106.1483"/>
<polygon fill="#191970" stroke="#191970" points="130.8961,-108.7297 136.3343,-99.637 126.4128,-103.3538 130.8961,-108.7297"/>
</g>
<!-- Node187 -->
<g id="node17" class="node">
<title>Node187</title>
<g id="a_node17"><a xlink:href="pbuf_8h.html#a0d26e00e2cf975274139d27ddabd7ed3" target="_top" xlink:title="pbuf_free">
<polygon fill="#ffffff" stroke="#000000" points="246,-147.5 246,-166.5 305,-166.5 305,-147.5 246,-147.5"/>
<text text-anchor="middle" x="275.5" y="-154.5" font-family="Helvetica,sans-Serif" font-size="10.00" fill="#000000">pbuf_free</text>
</a>
</g>
</g>
<!-- Node171&#45;&gt;Node187 -->
<g id="edge16" class="edge">
<title>Node171&#45;&gt;Node187</title>
<path fill="none" stroke="#191970" d="M39.9839,-213.1429C51.5734,-199.6684 74.4798,-176.0287 100,-166 143.9346,-148.735 198.8712,-149.0523 235.4612,-152.0052"/>
<polygon fill="#191970" stroke="#191970" points="235.4557,-155.5192 245.7323,-152.9424 236.0918,-148.5481 235.4557,-155.5192"/>
</g>
<!-- Node175 -->
<g id="node5" class="node">
<title>Node175</title>
<g id="a_node5"><a xlink:href="user__interface_8h.html#a70c442301412fe5d3711a8f0b8c7b7b5" target="_top" xlink:title="wifi_get_ip_info">
<polygon fill="#ffffff" stroke="#000000" points="233,-251.5 233,-270.5 318,-270.5 318,-251.5 233,-251.5"/>
<text text-anchor="middle" x="275.5" y="-258.5" font-family="Helvetica,sans-Serif" font-size="10.00" fill="#000000">wifi_get_ip_info</text>
</a>
</g>
</g>
<!-- Node174&#45;&gt;Node175 -->
<g id="edge4" class="edge">
<title>Node174&#45;&gt;Node175</title>
<path fill="none" stroke="#191970" d="M197.2383,-261C205.593,-261 214.3087,-261 222.7622,-261"/>
<polygon fill="#191970" stroke="#191970" points="222.9018,-264.5001 232.9017,-261 222.9017,-257.5001 222.9018,-264.5001"/>
</g>
<!-- Node179 -->
<g id="node9" class="node">
<title>Node179</title>
<g id="a_node9"><a xlink:href="esp-open-lwip_2include_2lwip_2mem_8h.html#a1cb005c6c44b685b8025b329a6d2bcd4" target="_top" xlink:title="mem_malloc">
<polygon fill="#ffffff" stroke="#000000" points="239,-33.5 239,-52.5 312,-52.5 312,-33.5 239,-33.5"/>
<text text-anchor="middle" x="275.5" y="-40.5" font-family="Helvetica,sans-Serif" font-size="10.00" fill="#000000">mem_malloc</text>
</a>
</g>
</g>
<!-- Node178&#45;&gt;Node179 -->
<g id="edge8" class="edge">
<title>Node178&#45;&gt;Node179</title>
<path fill="none" stroke="#191970" d="M174.2003,-80.4888C193.0967,-73.4957 219.0145,-63.9041 239.9036,-56.1735"/>
<polygon fill="#191970" stroke="#191970" points="241.2384,-59.4116 249.402,-52.6583 238.8088,-52.8467 241.2384,-59.4116"/>
</g>
<!-- Node182 -->
<g id="node12" class="node">
<title>Node182</title>
<g id="a_node12"><a xlink:href="memp_8h.html#a5b98c976852aa0eabda9fd588be56eb8" target="_top" xlink:title="memp_malloc">
<polygon fill="#ffffff" stroke="#000000" points="236,-109.5 236,-128.5 315,-128.5 315,-109.5 236,-109.5"/>
<text text-anchor="middle" x="275.5" y="-116.5" font-family="Helvetica,sans-Serif" font-size="10.00" fill="#000000">memp_malloc</text>
</a>
</g>
</g>
<!-- Node178&#45;&gt;Node182 -->
<g id="edge11" class="edge">
<title>Node178&#45;&gt;Node182</title>
<path fill="none" stroke="#191970" d="M179.5677,-97.0942C193.4226,-100.2579 210.0933,-104.0646 225.6232,-107.6108"/>
<polygon fill="#191970" stroke="#191970" points="225.0945,-111.0801 235.6227,-109.8942 226.6528,-104.2557 225.0945,-111.0801"/>
</g>
<!-- Node183 -->
<g id="node13" class="node">
<title>Node183</title>
<g id="a_node13"><a xlink:href="pbuf_8c.html#ab0dd696fb4b6bc65e548944584f1738b" target="_top" xlink:title="pbuf_free">
<polygon fill="#ffffff" stroke="#000000" points="246,-71.5 246,-90.5 305,-90.5 305,-71.5 246,-71.5"/>
<text text-anchor="middle" x="275.5" y="-78.5" font-family="Helvetica,sans-Serif" font-size="10.00" fill="#000000">pbuf_free</text>
</a>
</g>
</g>
<!-- Node178&#45;&gt;Node183 -->
<g id="edge12" class="edge">
<title>Node178&#45;&gt;Node183</title>
<path fill="none" stroke="#191970" d="M179.5677,-87.7984C196.4661,-86.6008 217.5532,-85.1065 235.6504,-83.824"/>
<polygon fill="#191970" stroke="#191970" points="235.9001,-87.3152 245.6276,-83.1169 235.4052,-80.3327 235.9001,-87.3152"/>
</g>
<!-- Node180 -->
<g id="node10" class="node">
<title>Node180</title>
<g id="a_node10"><a xlink:href="sys_8h.html#a4d4eb9afe5965fa2661dd54ff55d616a" target="_top" xlink:title="sys_mutex_lock">
<polygon fill="#ffffff" stroke="#000000" points="359.5,-38.5 359.5,-57.5 447.5,-57.5 447.5,-38.5 359.5,-38.5"/>
<text text-anchor="middle" x="403.5" y="-45.5" font-family="Helvetica,sans-Serif" font-size="10.00" fill="#000000">sys_mutex_lock</text>
</a>
</g>
</g>
<!-- Node179&#45;&gt;Node180 -->
<g id="edge9" class="edge">
<title>Node179&#45;&gt;Node180</title>
<path fill="none" stroke="#191970" d="M312.1797,-44.4328C323.6071,-44.8792 336.4652,-45.3815 348.8463,-45.8651"/>
<polygon fill="#191970" stroke="#191970" points="348.9634,-49.3722 359.0924,-46.2653 349.2367,-42.3776 348.9634,-49.3722"/>
</g>
<!-- Node181 -->
<g id="node11" class="node">
<title>Node181</title>
<g id="a_node11"><a xlink:href="sys_8h.html#a5568f68898fe9d5735f9ce2f665624fb" target="_top" xlink:title="sys_mutex_unlock">
<polygon fill="#ffffff" stroke="#000000" points="354,-.5 354,-19.5 453,-19.5 453,-.5 354,-.5"/>
<text text-anchor="middle" x="403.5" y="-7.5" font-family="Helvetica,sans-Serif" font-size="10.00" fill="#000000">sys_mutex_unlock</text>
</a>
</g>
</g>
<!-- Node179&#45;&gt;Node181 -->
<g id="edge10" class="edge">
<title>Node179&#45;&gt;Node181</title>
<path fill="none" stroke="#191970" d="M312.1797,-33.5435C325.985,-29.9843 341.8782,-25.8869 356.496,-22.1182"/>
<polygon fill="#191970" stroke="#191970" points="357.5614,-25.4581 366.371,-19.5723 355.8138,-18.6797 357.5614,-25.4581"/>
</g>
<!-- Node184 -->
<g id="node14" class="node">
<title>Node184</title>
<g id="a_node14"><a xlink:href="memp_8h.html#a9d30a969401eb0626105950d6e63f3bf" target="_top" xlink:title="memp_free">
<polygon fill="#ffffff" stroke="#000000" points="370,-95.5 370,-114.5 437,-114.5 437,-95.5 370,-95.5"/>
<text text-anchor="middle" x="403.5" y="-102.5" font-family="Helvetica,sans-Serif" font-size="10.00" fill="#000000">memp_free</text>
</a>
</g>
</g>
<!-- Node183&#45;&gt;Node184 -->
<g id="edge13" class="edge">
<title>Node183&#45;&gt;Node184</title>
<path fill="none" stroke="#191970" d="M305.1875,-86.5664C321.4379,-89.6134 341.8787,-93.446 359.9067,-96.8263"/>
<polygon fill="#191970" stroke="#191970" points="359.4376,-100.2992 369.9113,-98.7021 360.7276,-93.4191 359.4376,-100.2992"/>
</g>
<!-- Node185 -->
<g id="node15" class="node">
<title>Node185</title>
<g id="a_node15"><a xlink:href="esp-open-lwip_2include_2lwip_2mem_8h.html#ab270bbe39e1996d7095be3a139620ce0" target="_top" xlink:title="mem_free">
<polygon fill="#ffffff" stroke="#000000" points="372.5,-142.5 372.5,-161.5 434.5,-161.5 434.5,-142.5 372.5,-142.5"/>
<text text-anchor="middle" x="403.5" y="-149.5" font-family="Helvetica,sans-Serif" font-size="10.00" fill="#000000">mem_free</text>
</a>
</g>
</g>
<!-- Node183&#45;&gt;Node185 -->
<g id="edge14" class="edge">
<title>Node183&#45;&gt;Node185</title>
<path fill="none" stroke="#191970" d="M298.7825,-90.5656C305.121,-93.396 311.9142,-96.642 318,-100 334.8367,-109.29 337.6203,-113.9261 354,-124 361.3325,-128.5097 369.4121,-133.1954 376.8793,-137.4141"/>
<polygon fill="#191970" stroke="#191970" points="375.4712,-140.6366 385.9081,-142.4596 378.8861,-134.526 375.4712,-140.6366"/>
</g>
<!-- Node186 -->
<g id="node16" class="node">
<title>Node186</title>
<g id="a_node16"><a xlink:href="mem_8c.html#a24221009a2c00e9c3fa63eaa9444a076" target="_top" xlink:title="plug_holes">
<polygon fill="#ffffff" stroke="#000000" points="489,-142.5 489,-161.5 554,-161.5 554,-142.5 489,-142.5"/>
<text text-anchor="middle" x="521.5" y="-149.5" font-family="Helvetica,sans-Serif" font-size="10.00" fill="#000000">plug_holes</text>
</a>
</g>
</g>
<!-- Node185&#45;&gt;Node186 -->
<g id="edge15" class="edge">
<title>Node185&#45;&gt;Node186</title>
<path fill="none" stroke="#191970" d="M434.5031,-152C447.9102,-152 463.8283,-152 478.3598,-152"/>
<polygon fill="#191970" stroke="#191970" points="478.6403,-155.5001 488.6402,-152 478.6402,-148.5001 478.6403,-155.5001"/>
</g>
<!-- Node187&#45;&gt;Node184 -->
<g id="edge18" class="edge">
<title>Node187&#45;&gt;Node184</title>
<path fill="none" stroke="#191970" d="M298.9772,-147.4624C318.9696,-139.3405 347.9243,-127.5776 370.2915,-118.4909"/>
<polygon fill="#191970" stroke="#191970" points="371.7909,-121.6597 379.7382,-114.6532 369.1562,-115.1744 371.7909,-121.6597"/>
</g>
<!-- Node187&#45;&gt;Node185 -->
<g id="edge17" class="edge">
<title>Node187&#45;&gt;Node185</title>
<path fill="none" stroke="#191970" d="M305.1875,-155.8403C322.0582,-155.1813 343.4452,-154.3459 361.96,-153.6227"/>
<polygon fill="#191970" stroke="#191970" points="362.3319,-157.1109 372.1877,-153.2231 362.0587,-150.1162 362.3319,-157.1109"/>
</g>
</g>
</svg>
