<?xml version="1.0" encoding="UTF-8" standalone="no"?>
<!DOCTYPE svg PUBLIC "-//W3C//DTD SVG 1.1//EN"
 "http://www.w3.org/Graphics/SVG/1.1/DTD/svg11.dtd">
<!-- Generated by graphviz version 2.41.20170323.1842 (20170323.1842)
 -->
<!-- Title: node_remove_from_list Pages: 1 -->
<svg width="478pt" height="104pt"
 viewBox="0.00 0.00 478.00 104.00" xmlns="http://www.w3.org/2000/svg" xmlns:xlink="http://www.w3.org/1999/xlink">
<g id="graph0" class="graph" transform="scale(1 1) rotate(0) translate(4 100)">
<title>node_remove_from_list</title>
<polygon fill="#ffffff" stroke="transparent" points="-4,4 -4,-100 474,-100 474,4 -4,4"/>
<!-- Node110 -->
<g id="node1" class="node">
<title>Node110</title>
<polygon fill="#bfbfbf" stroke="#000000" points="0,-38.5 0,-57.5 121,-57.5 121,-38.5 0,-38.5"/>
<text text-anchor="middle" x="60.5" y="-45.5" font-family="Helvetica,sans-Serif" font-size="10.00" fill="#000000">node_remove_from_list</text>
</g>
<!-- Node111 -->
<g id="node2" class="node">
<title>Node111</title>
<g id="a_node2"><a xlink:href="dhcpserver_8c.html#a5e5f582a876a86192e1168a6fe62aec5" target="_top" xlink:title="dhcps_coarse_tmr">
<polygon fill="#ffffff" stroke="#000000" points="157,-76.5 157,-95.5 256,-95.5 256,-76.5 157,-76.5"/>
<text text-anchor="middle" x="206.5" y="-83.5" font-family="Helvetica,sans-Serif" font-size="10.00" fill="#000000">dhcps_coarse_tmr</text>
</a>
</g>
</g>
<!-- Node110&#45;&gt;Node111 -->
<g id="edge1" class="edge">
<title>Node110&#45;&gt;Node111</title>
<path fill="none" stroke="#191970" d="M107.036,-60.1121C127.3696,-65.4044 150.8713,-71.5213 169.923,-76.4799"/>
<polygon fill="#191970" stroke="#191970" points="107.9012,-56.7207 97.342,-57.589 106.1379,-63.4951 107.9012,-56.7207"/>
</g>
<!-- Node112 -->
<g id="node3" class="node">
<title>Node112</title>
<g id="a_node3"><a xlink:href="dhcpserver_8c.html#a64b76b9033af6ccbb89b4963a70c9a22" target="_top" xlink:title="dhcps_stop">
<polygon fill="#ffffff" stroke="#000000" points="172.5,-38.5 172.5,-57.5 240.5,-57.5 240.5,-38.5 172.5,-38.5"/>
<text text-anchor="middle" x="206.5" y="-45.5" font-family="Helvetica,sans-Serif" font-size="10.00" fill="#000000">dhcps_stop</text>
</a>
</g>
</g>
<!-- Node110&#45;&gt;Node112 -->
<g id="edge2" class="edge">
<title>Node110&#45;&gt;Node112</title>
<path fill="none" stroke="#191970" d="M131.4196,-48C145.5922,-48 159.8695,-48 172.1123,-48"/>
<polygon fill="#191970" stroke="#191970" points="131.1488,-44.5001 121.1488,-48 131.1487,-51.5001 131.1488,-44.5001"/>
</g>
<!-- Node113 -->
<g id="node4" class="node">
<title>Node113</title>
<g id="a_node4"><a xlink:href="dhcpserver_8c.html#a72c6ecdbccb7cf567c40b857523706bd" target="_top" xlink:title="parse_msg">
<polygon fill="#ffffff" stroke="#000000" points="173.5,-.5 173.5,-19.5 239.5,-19.5 239.5,-.5 173.5,-.5"/>
<text text-anchor="middle" x="206.5" y="-7.5" font-family="Helvetica,sans-Serif" font-size="10.00" fill="#000000">parse_msg</text>
</a>
</g>
</g>
<!-- Node110&#45;&gt;Node113 -->
<g id="edge3" class="edge">
<title>Node110&#45;&gt;Node113</title>
<path fill="none" stroke="#191970" d="M107.2385,-35.8352C128.6963,-30.2503 153.6468,-23.7563 173.1648,-18.6763"/>
<polygon fill="#191970" stroke="#191970" points="106.1379,-32.5049 97.342,-38.411 107.9012,-39.2793 106.1379,-32.5049"/>
</g>
<!-- Node114 -->
<g id="node5" class="node">
<title>Node114</title>
<g id="a_node5"><a xlink:href="dhcpserver_8c.html#a11489c1fab4206e65914c4c46850d183" target="_top" xlink:title="handle_dhcp">
<polygon fill="#ffffff" stroke="#000000" points="292,-.5 292,-19.5 366,-19.5 366,-.5 292,-.5"/>
<text text-anchor="middle" x="329" y="-7.5" font-family="Helvetica,sans-Serif" font-size="10.00" fill="#000000">handle_dhcp</text>
</a>
</g>
</g>
<!-- Node113&#45;&gt;Node114 -->
<g id="edge4" class="edge">
<title>Node113&#45;&gt;Node114</title>
<path fill="none" stroke="#191970" d="M249.8555,-10C263.6045,-10 278.6722,-10 291.9369,-10"/>
<polygon fill="#191970" stroke="#191970" points="249.6503,-6.5001 239.6503,-10 249.6502,-13.5001 249.6503,-6.5001"/>
</g>
<!-- Node115 -->
<g id="node6" class="node">
<title>Node115</title>
<g id="a_node6"><a xlink:href="dhcpserver_8c.html#aa4cf55564a805b8654630547d365edcd" target="_top" xlink:title="dhcps_start">
<polygon fill="#ffffff" stroke="#000000" points="402,-.5 402,-19.5 470,-19.5 470,-.5 402,-.5"/>
<text text-anchor="middle" x="436" y="-7.5" font-family="Helvetica,sans-Serif" font-size="10.00" fill="#000000">dhcps_start</text>
</a>
</g>
</g>
<!-- Node114&#45;&gt;Node115 -->
<g id="edge5" class="edge">
<title>Node114&#45;&gt;Node115</title>
<path fill="none" stroke="#191970" d="M376.3975,-10C384.9556,-10 393.7247,-10 401.8135,-10"/>
<polygon fill="#191970" stroke="#191970" points="376.1231,-6.5001 366.1231,-10 376.1231,-13.5001 376.1231,-6.5001"/>
</g>
</g>
</svg>
