<?xml version="1.0" encoding="UTF-8" standalone="no"?>
<!DOCTYPE svg PUBLIC "-//W3C//DTD SVG 1.1//EN"
 "http://www.w3.org/Graphics/SVG/1.1/DTD/svg11.dtd">
<!-- Generated by graphviz version 2.41.20170323.1842 (20170323.1842)
 -->
<!-- Title: send_nak Pages: 1 -->
<svg width="537pt" height="246pt"
 viewBox="0.00 0.00 537.00 246.00" xmlns="http://www.w3.org/2000/svg" xmlns:xlink="http://www.w3.org/1999/xlink">
<g id="graph0" class="graph" transform="scale(1 1) rotate(0) translate(4 242)">
<title>send_nak</title>
<polygon fill="#ffffff" stroke="transparent" points="-4,4 -4,-242 533,-242 533,4 -4,4"/>
<!-- Node153 -->
<g id="node1" class="node">
<title>Node153</title>
<polygon fill="#bfbfbf" stroke="#000000" points="0,-123.5 0,-142.5 60,-142.5 60,-123.5 0,-123.5"/>
<text text-anchor="middle" x="30" y="-130.5" font-family="Helvetica,sans-Serif" font-size="10.00" fill="#000000">send_nak</text>
</g>
<!-- Node154 -->
<g id="node2" class="node">
<title>Node154</title>
<g id="a_node2"><a xlink:href="dhcpserver_8c.html#aad9c2e8bfabe5431b4b0aa0e02cf46e2" target="_top" xlink:title="add_end">
<polygon fill="#ffffff" stroke="#000000" points="109.5,-218.5 109.5,-237.5 164.5,-237.5 164.5,-218.5 109.5,-218.5"/>
<text text-anchor="middle" x="137" y="-225.5" font-family="Helvetica,sans-Serif" font-size="10.00" fill="#000000">add_end</text>
</a>
</g>
</g>
<!-- Node153&#45;&gt;Node154 -->
<g id="edge1" class="edge">
<title>Node153&#45;&gt;Node154</title>
<path fill="none" stroke="#191970" d="M36.2786,-142.5573C46.9527,-158.1958 70.0226,-189.463 96,-209 98.0847,-210.5679 100.3196,-212.049 102.6304,-213.4395"/>
<polygon fill="#191970" stroke="#191970" points="101.2967,-216.696 111.7625,-218.3447 104.6091,-210.5293 101.2967,-216.696"/>
</g>
<!-- Node155 -->
<g id="node3" class="node">
<title>Node155</title>
<g id="a_node3"><a xlink:href="dhcpserver_8c.html#a11dbc1add0179422de532e78b1a8c6d8" target="_top" xlink:title="add_msg_type">
<polygon fill="#ffffff" stroke="#000000" points="96,-180.5 96,-199.5 178,-199.5 178,-180.5 96,-180.5"/>
<text text-anchor="middle" x="137" y="-187.5" font-family="Helvetica,sans-Serif" font-size="10.00" fill="#000000">add_msg_type</text>
</a>
</g>
</g>
<!-- Node153&#45;&gt;Node155 -->
<g id="edge2" class="edge">
<title>Node153&#45;&gt;Node155</title>
<path fill="none" stroke="#191970" d="M45.7849,-142.615C59.0206,-150.549 78.5092,-161.9346 96,-171 99.3303,-172.7261 102.8467,-174.4702 106.3637,-176.1653"/>
<polygon fill="#191970" stroke="#191970" points="105.0088,-179.3959 115.5468,-180.4922 107.9925,-173.0637 105.0088,-179.3959"/>
</g>
<!-- Node156 -->
<g id="node4" class="node">
<title>Node156</title>
<g id="a_node4"><a xlink:href="dhcpserver_8c.html#a424b9b8d671aa4c6550b25a5fb5c69cc" target="_top" xlink:title="create_msg">
<polygon fill="#ffffff" stroke="#000000" points="102.5,-142.5 102.5,-161.5 171.5,-161.5 171.5,-142.5 102.5,-142.5"/>
<text text-anchor="middle" x="137" y="-149.5" font-family="Helvetica,sans-Serif" font-size="10.00" fill="#000000">create_msg</text>
</a>
</g>
</g>
<!-- Node153&#45;&gt;Node156 -->
<g id="edge3" class="edge">
<title>Node153&#45;&gt;Node156</title>
<path fill="none" stroke="#191970" d="M60.0902,-138.3431C70.0208,-140.1065 81.2917,-142.1079 92.0841,-144.0243"/>
<polygon fill="#191970" stroke="#191970" points="91.7676,-147.5228 102.2255,-145.8251 92.9915,-140.6306 91.7676,-147.5228"/>
</g>
<!-- Node157 -->
<g id="node5" class="node">
<title>Node157</title>
<g id="a_node5"><a xlink:href="espmissingincludes_8h.html#a0bbba7104c948de849f8051d9ac956e3" target="_top" xlink:title="os_printf">
<polygon fill="#ffffff" stroke="#000000" points="109.5,-104.5 109.5,-123.5 164.5,-123.5 164.5,-104.5 109.5,-104.5"/>
<text text-anchor="middle" x="137" y="-111.5" font-family="Helvetica,sans-Serif" font-size="10.00" fill="#000000">os_printf</text>
</a>
</g>
</g>
<!-- Node153&#45;&gt;Node157 -->
<g id="edge4" class="edge">
<title>Node153&#45;&gt;Node157</title>
<path fill="none" stroke="#191970" d="M60.0902,-127.6569C72.2837,-125.4917 86.498,-122.9676 99.366,-120.6827"/>
<polygon fill="#191970" stroke="#191970" points="100.0989,-124.1074 109.3329,-118.9129 98.875,-117.2152 100.0989,-124.1074"/>
</g>
<!-- Node158 -->
<g id="node6" class="node">
<title>Node158</title>
<g id="a_node6"><a xlink:href="pbuf_8h.html#ac6efc2aaeddfea6c95729dc86f785ba4" target="_top" xlink:title="pbuf_alloc">
<polygon fill="#ffffff" stroke="#000000" points="106,-66.5 106,-85.5 168,-85.5 168,-66.5 106,-66.5"/>
<text text-anchor="middle" x="137" y="-73.5" font-family="Helvetica,sans-Serif" font-size="10.00" fill="#000000">pbuf_alloc</text>
</a>
</g>
</g>
<!-- Node153&#45;&gt;Node158 -->
<g id="edge5" class="edge">
<title>Node153&#45;&gt;Node158</title>
<path fill="none" stroke="#191970" d="M45.7849,-123.385C59.0206,-115.451 78.5092,-104.0654 96,-95 99.3303,-93.2739 102.8467,-91.5298 106.3637,-89.8347"/>
<polygon fill="#191970" stroke="#191970" points="107.9925,-92.9363 115.5468,-85.5078 105.0088,-86.6041 107.9925,-92.9363"/>
</g>
<!-- Node167 -->
<g id="node15" class="node">
<title>Node167</title>
<g id="a_node15"><a xlink:href="pbuf_8h.html#a0d26e00e2cf975274139d27ddabd7ed3" target="_top" xlink:title="pbuf_free">
<polygon fill="#ffffff" stroke="#000000" points="224,-.5 224,-19.5 283,-19.5 283,-.5 224,-.5"/>
<text text-anchor="middle" x="253.5" y="-7.5" font-family="Helvetica,sans-Serif" font-size="10.00" fill="#000000">pbuf_free</text>
</a>
</g>
</g>
<!-- Node153&#45;&gt;Node167 -->
<g id="edge14" class="edge">
<title>Node153&#45;&gt;Node167</title>
<path fill="none" stroke="#191970" d="M35.8144,-123.2731C45.9797,-107.1008 68.5381,-74.713 96,-57 132.1834,-33.6617 180.4299,-21.507 213.9487,-15.4603"/>
<polygon fill="#191970" stroke="#191970" points="214.5782,-18.9036 223.8486,-13.7742 213.4029,-12.003 214.5782,-18.9036"/>
</g>
<!-- Node159 -->
<g id="node7" class="node">
<title>Node159</title>
<g id="a_node7"><a xlink:href="esp-open-lwip_2include_2lwip_2mem_8h.html#a1cb005c6c44b685b8025b329a6d2bcd4" target="_top" xlink:title="mem_malloc">
<polygon fill="#ffffff" stroke="#000000" points="217,-76.5 217,-95.5 290,-95.5 290,-76.5 217,-76.5"/>
<text text-anchor="middle" x="253.5" y="-83.5" font-family="Helvetica,sans-Serif" font-size="10.00" fill="#000000">mem_malloc</text>
</a>
</g>
</g>
<!-- Node158&#45;&gt;Node159 -->
<g id="edge6" class="edge">
<title>Node158&#45;&gt;Node159</title>
<path fill="none" stroke="#191970" d="M168.2199,-78.6798C180.0264,-79.6933 193.7366,-80.8701 206.6658,-81.9799"/>
<polygon fill="#191970" stroke="#191970" points="206.5533,-85.483 216.8161,-82.8512 207.1521,-78.5087 206.5533,-85.483"/>
</g>
<!-- Node162 -->
<g id="node10" class="node">
<title>Node162</title>
<g id="a_node10"><a xlink:href="memp_8h.html#a5b98c976852aa0eabda9fd588be56eb8" target="_top" xlink:title="memp_malloc">
<polygon fill="#ffffff" stroke="#000000" points="214,-114.5 214,-133.5 293,-133.5 293,-114.5 214,-114.5"/>
<text text-anchor="middle" x="253.5" y="-121.5" font-family="Helvetica,sans-Serif" font-size="10.00" fill="#000000">memp_malloc</text>
</a>
</g>
</g>
<!-- Node158&#45;&gt;Node162 -->
<g id="edge9" class="edge">
<title>Node158&#45;&gt;Node162</title>
<path fill="none" stroke="#191970" d="M160.2955,-85.5982C177.6777,-92.7599 201.6497,-102.6368 220.9292,-110.5803"/>
<polygon fill="#191970" stroke="#191970" points="219.6655,-113.845 230.2449,-114.4185 222.3322,-107.3728 219.6655,-113.845"/>
</g>
<!-- Node163 -->
<g id="node11" class="node">
<title>Node163</title>
<g id="a_node11"><a xlink:href="pbuf_8c.html#ab0dd696fb4b6bc65e548944584f1738b" target="_top" xlink:title="pbuf_free">
<polygon fill="#ffffff" stroke="#000000" points="224,-38.5 224,-57.5 283,-57.5 283,-38.5 224,-38.5"/>
<text text-anchor="middle" x="253.5" y="-45.5" font-family="Helvetica,sans-Serif" font-size="10.00" fill="#000000">pbuf_free</text>
</a>
</g>
</g>
<!-- Node158&#45;&gt;Node163 -->
<g id="edge10" class="edge">
<title>Node158&#45;&gt;Node163</title>
<path fill="none" stroke="#191970" d="M168.2199,-68.4965C182.239,-65.1271 198.9422,-61.1126 213.8349,-57.5333"/>
<polygon fill="#191970" stroke="#191970" points="214.8955,-60.8781 223.8007,-55.138 213.2596,-54.0719 214.8955,-60.8781"/>
</g>
<!-- Node160 -->
<g id="node8" class="node">
<title>Node160</title>
<g id="a_node8"><a xlink:href="sys_8h.html#a4d4eb9afe5965fa2661dd54ff55d616a" target="_top" xlink:title="sys_mutex_lock">
<polygon fill="#ffffff" stroke="#000000" points="334.5,-114.5 334.5,-133.5 422.5,-133.5 422.5,-114.5 334.5,-114.5"/>
<text text-anchor="middle" x="378.5" y="-121.5" font-family="Helvetica,sans-Serif" font-size="10.00" fill="#000000">sys_mutex_lock</text>
</a>
</g>
</g>
<!-- Node159&#45;&gt;Node160 -->
<g id="edge7" class="edge">
<title>Node159&#45;&gt;Node160</title>
<path fill="none" stroke="#191970" d="M285.0428,-95.589C300.883,-100.4044 320.2725,-106.2988 337.2763,-111.468"/>
<polygon fill="#191970" stroke="#191970" points="336.3816,-114.8541 346.9673,-114.4141 338.4177,-108.1567 336.3816,-114.8541"/>
</g>
<!-- Node161 -->
<g id="node9" class="node">
<title>Node161</title>
<g id="a_node9"><a xlink:href="sys_8h.html#a5568f68898fe9d5735f9ce2f665624fb" target="_top" xlink:title="sys_mutex_unlock">
<polygon fill="#ffffff" stroke="#000000" points="329,-76.5 329,-95.5 428,-95.5 428,-76.5 329,-76.5"/>
<text text-anchor="middle" x="378.5" y="-83.5" font-family="Helvetica,sans-Serif" font-size="10.00" fill="#000000">sys_mutex_unlock</text>
</a>
</g>
</g>
<!-- Node159&#45;&gt;Node161 -->
<g id="edge8" class="edge">
<title>Node159&#45;&gt;Node161</title>
<path fill="none" stroke="#191970" d="M290.328,-86C299.3075,-86 309.1426,-86 318.8841,-86"/>
<polygon fill="#191970" stroke="#191970" points="318.9621,-89.5001 328.962,-86 318.962,-82.5001 318.9621,-89.5001"/>
</g>
<!-- Node164 -->
<g id="node12" class="node">
<title>Node164</title>
<g id="a_node12"><a xlink:href="memp_8h.html#a9d30a969401eb0626105950d6e63f3bf" target="_top" xlink:title="memp_free">
<polygon fill="#ffffff" stroke="#000000" points="345,-38.5 345,-57.5 412,-57.5 412,-38.5 345,-38.5"/>
<text text-anchor="middle" x="378.5" y="-45.5" font-family="Helvetica,sans-Serif" font-size="10.00" fill="#000000">memp_free</text>
</a>
</g>
</g>
<!-- Node163&#45;&gt;Node164 -->
<g id="edge11" class="edge">
<title>Node163&#45;&gt;Node164</title>
<path fill="none" stroke="#191970" d="M283.1233,-48C298.4287,-48 317.4115,-48 334.4022,-48"/>
<polygon fill="#191970" stroke="#191970" points="334.6732,-51.5001 344.6732,-48 334.6732,-44.5001 334.6732,-51.5001"/>
</g>
<!-- Node165 -->
<g id="node13" class="node">
<title>Node165</title>
<g id="a_node13"><a xlink:href="esp-open-lwip_2include_2lwip_2mem_8h.html#ab270bbe39e1996d7095be3a139620ce0" target="_top" xlink:title="mem_free">
<polygon fill="#ffffff" stroke="#000000" points="347.5,-.5 347.5,-19.5 409.5,-19.5 409.5,-.5 347.5,-.5"/>
<text text-anchor="middle" x="378.5" y="-7.5" font-family="Helvetica,sans-Serif" font-size="10.00" fill="#000000">mem_free</text>
</a>
</g>
</g>
<!-- Node163&#45;&gt;Node165 -->
<g id="edge12" class="edge">
<title>Node163&#45;&gt;Node165</title>
<path fill="none" stroke="#191970" d="M283.1233,-38.9945C299.4485,-34.0317 319.9574,-27.797 337.7701,-22.3819"/>
<polygon fill="#191970" stroke="#191970" points="338.7954,-25.7284 347.345,-19.4711 336.7593,-19.0311 338.7954,-25.7284"/>
</g>
<!-- Node166 -->
<g id="node14" class="node">
<title>Node166</title>
<g id="a_node14"><a xlink:href="mem_8c.html#a24221009a2c00e9c3fa63eaa9444a076" target="_top" xlink:title="plug_holes">
<polygon fill="#ffffff" stroke="#000000" points="464,-.5 464,-19.5 529,-19.5 529,-.5 464,-.5"/>
<text text-anchor="middle" x="496.5" y="-7.5" font-family="Helvetica,sans-Serif" font-size="10.00" fill="#000000">plug_holes</text>
</a>
</g>
</g>
<!-- Node165&#45;&gt;Node166 -->
<g id="edge13" class="edge">
<title>Node165&#45;&gt;Node166</title>
<path fill="none" stroke="#191970" d="M409.5031,-10C422.9102,-10 438.8283,-10 453.3598,-10"/>
<polygon fill="#191970" stroke="#191970" points="453.6403,-13.5001 463.6402,-10 453.6402,-6.5001 453.6403,-13.5001"/>
</g>
<!-- Node167&#45;&gt;Node164 -->
<g id="edge16" class="edge">
<title>Node167&#45;&gt;Node164</title>
<path fill="none" stroke="#191970" d="M283.1233,-19.0055C299.1766,-23.8857 319.2755,-29.9957 336.878,-35.3469"/>
<polygon fill="#191970" stroke="#191970" points="336.3185,-38.8349 346.9042,-38.3949 338.3546,-32.1376 336.3185,-38.8349"/>
</g>
<!-- Node167&#45;&gt;Node165 -->
<g id="edge15" class="edge">
<title>Node167&#45;&gt;Node165</title>
<path fill="none" stroke="#191970" d="M283.1233,-10C299.2973,-10 319.5779,-10 337.2746,-10"/>
<polygon fill="#191970" stroke="#191970" points="337.3451,-13.5001 347.345,-10 337.345,-6.5001 337.3451,-13.5001"/>
</g>
</g>
</svg>
