<?xml version="1.0" encoding="UTF-8" standalone="no"?>
<!DOCTYPE svg PUBLIC "-//W3C//DTD SVG 1.1//EN"
 "http://www.w3.org/Graphics/SVG/1.1/DTD/svg11.dtd">
<!-- Generated by graphviz version 2.41.20170323.1842 (20170323.1842)
 -->
<!-- Title: user/cron Pages: 1 -->
<svg width="124pt" height="295pt"
 viewBox="0.00 0.00 124.00 295.00" xmlns="http://www.w3.org/2000/svg" xmlns:xlink="http://www.w3.org/1999/xlink">
<g id="graph0" class="graph" transform="scale(1 1) rotate(0) translate(4 291)">
<title>user/cron</title>
<polygon fill="#ffffff" stroke="transparent" points="-4,4 -4,-291 120,-291 120,4 -4,4"/>
<g id="clust1" class="cluster">
<title>clusterdir_2584a8ef173e30cec0336a2c92688588</title>
<g id="a_clust1"><a xlink:href="dir_2584a8ef173e30cec0336a2c92688588.html" target="_top" xlink:title="user">
<polygon fill="#ddddee" stroke="#000000" points="8,-208 8,-279 78,-279 78,-208 8,-208"/>
<text text-anchor="middle" x="43" y="-267" font-family="Helvetica,sans-Serif" font-size="10.00" fill="#000000">user</text>
</a>
</g>
</g>
<!-- dir_5e3a3e85ec2893d068c534c0de9aa541 -->
<g id="node1" class="node">
<title>dir_5e3a3e85ec2893d068c534c0de9aa541</title>
<g id="a_node1"><a xlink:href="dir_5e3a3e85ec2893d068c534c0de9aa541.html" target="_top" xlink:title="cron">
<polygon fill="#eeeeff" stroke="#000000" points="70,-252 16,-252 16,-216 70,-216 70,-252"/>
<text text-anchor="middle" x="43" y="-231.5" font-family="Helvetica,sans-Serif" font-size="10.00" fill="#000000">cron</text>
</a>
</g>
</g>
<!-- dir_ccf06175024ff32ee3af6098b7e3f558 -->
<g id="node2" class="node">
<title>dir_ccf06175024ff32ee3af6098b7e3f558</title>
<g id="a_node2"><a xlink:href="dir_ccf06175024ff32ee3af6098b7e3f558.html" target="_top" xlink:title="include">
<polygon fill="#ffffff" stroke="#ff0000" points="61,-36 7,-36 7,0 61,0 61,-36"/>
<text text-anchor="middle" x="34" y="-15.5" font-family="Helvetica,sans-Serif" font-size="10.00" fill="#000000">include</text>
</a>
</g>
</g>
<!-- dir_5e3a3e85ec2893d068c534c0de9aa541&#45;&gt;dir_ccf06175024ff32ee3af6098b7e3f558 -->
<g id="edge4" class="edge">
<title>dir_5e3a3e85ec2893d068c534c0de9aa541&#45;&gt;dir_ccf06175024ff32ee3af6098b7e3f558</title>
<path fill="none" stroke="#000000" d="M27.0095,-215.9169C19.3462,-206.0371 10.9834,-193.1563 7,-180 -6.9276,-134.0001 9.1919,-78.3417 21.828,-45.6874"/>
<polygon fill="#000000" stroke="#000000" points="25.1082,-46.9113 25.6006,-36.328 18.6158,-44.2943 25.1082,-46.9113"/>
<g id="a_edge4&#45;headlabel"><a xlink:href="dir_000014_000004.html" target="_top" xlink:title="1">
<text text-anchor="middle" x="26.3978" y="-48.8068" font-family="Helvetica,sans-Serif" font-size="10.00" fill="#000000">1</text>
</a>
</g>
</g>
<!-- dir_3feb56af2b2c56fd70b3a94a58c4a4a6 -->
<g id="node3" class="node">
<title>dir_3feb56af2b2c56fd70b3a94a58c4a4a6</title>
<g id="a_node3"><a xlink:href="dir_3feb56af2b2c56fd70b3a94a58c4a4a6.html" target="_top" xlink:title="ac">
<polygon fill="none" stroke="#000000" points="70,-180 16,-180 16,-144 70,-144 70,-180"/>
<text text-anchor="middle" x="43" y="-159.5" font-family="Helvetica,sans-Serif" font-size="10.00" fill="#000000">ac</text>
</a>
</g>
</g>
<!-- dir_5e3a3e85ec2893d068c534c0de9aa541&#45;&gt;dir_3feb56af2b2c56fd70b3a94a58c4a4a6 -->
<g id="edge5" class="edge">
<title>dir_5e3a3e85ec2893d068c534c0de9aa541&#45;&gt;dir_3feb56af2b2c56fd70b3a94a58c4a4a6</title>
<path fill="none" stroke="#000000" d="M43,-215.8314C43,-208.131 43,-198.9743 43,-190.4166"/>
<polygon fill="#000000" stroke="#000000" points="46.5001,-190.4132 43,-180.4133 39.5001,-190.4133 46.5001,-190.4132"/>
<g id="a_edge5&#45;headlabel"><a xlink:href="dir_000014_000013.html" target="_top" xlink:title="1">
<text text-anchor="middle" x="49.3393" y="-191.5079" font-family="Helvetica,sans-Serif" font-size="10.00" fill="#000000">1</text>
</a>
</g>
</g>
<!-- dir_8d958912d77bd1f78bb533f4d32b55c4 -->
<g id="node4" class="node">
<title>dir_8d958912d77bd1f78bb533f4d32b55c4</title>
<g id="a_node4"><a xlink:href="dir_8d958912d77bd1f78bb533f4d32b55c4.html" target="_top" xlink:title="modules">
<polygon fill="#ffffff" stroke="#ff0000" points="116,-108 62,-108 62,-72 116,-72 116,-108"/>
<text text-anchor="middle" x="89" y="-87.5" font-family="Helvetica,sans-Serif" font-size="10.00" fill="#000000">modules</text>
</a>
</g>
</g>
<!-- dir_5e3a3e85ec2893d068c534c0de9aa541&#45;&gt;dir_8d958912d77bd1f78bb533f4d32b55c4 -->
<g id="edge6" class="edge">
<title>dir_5e3a3e85ec2893d068c534c0de9aa541&#45;&gt;dir_8d958912d77bd1f78bb533f4d32b55c4</title>
<path fill="none" stroke="#000000" d="M58.3975,-215.7193C65.8986,-205.7854 74.2951,-192.9159 79,-180 86.208,-160.2124 88.6107,-136.4903 89.2633,-118.3693"/>
<polygon fill="#000000" stroke="#000000" points="92.7668,-118.2267 89.4698,-108.158 85.7683,-118.0852 92.7668,-118.2267"/>
<g id="a_edge6&#45;headlabel"><a xlink:href="dir_000014_000009.html" target="_top" xlink:title="1">
<text text-anchor="middle" x="95.533" y="-119.378" font-family="Helvetica,sans-Serif" font-size="10.00" fill="#000000">1</text>
</a>
</g>
</g>
<!-- dir_3feb56af2b2c56fd70b3a94a58c4a4a6&#45;&gt;dir_ccf06175024ff32ee3af6098b7e3f558 -->
<g id="edge1" class="edge">
<title>dir_3feb56af2b2c56fd70b3a94a58c4a4a6&#45;&gt;dir_ccf06175024ff32ee3af6098b7e3f558</title>
<path fill="none" stroke="#000000" d="M41.8601,-143.7623C40.3251,-119.201 37.578,-75.2474 35.7721,-46.3541"/>
<polygon fill="#000000" stroke="#000000" points="39.2477,-45.8518 35.1306,-36.0896 32.2613,-46.2885 39.2477,-45.8518"/>
<g id="a_edge1&#45;headlabel"><a xlink:href="dir_000013_000004.html" target="_top" xlink:title="1">
<text text-anchor="middle" x="42.3055" y="-46.7623" font-family="Helvetica,sans-Serif" font-size="10.00" fill="#000000">1</text>
</a>
</g>
</g>
<!-- dir_3feb56af2b2c56fd70b3a94a58c4a4a6&#45;&gt;dir_8d958912d77bd1f78bb533f4d32b55c4 -->
<g id="edge2" class="edge">
<title>dir_3feb56af2b2c56fd70b3a94a58c4a4a6&#45;&gt;dir_8d958912d77bd1f78bb533f4d32b55c4</title>
<path fill="none" stroke="#000000" d="M54.6077,-143.8314C59.7978,-135.7079 66.0232,-125.9637 71.7425,-117.0118"/>
<polygon fill="#000000" stroke="#000000" points="74.8015,-118.7246 77.236,-108.4133 68.9026,-114.9559 74.8015,-118.7246"/>
<g id="a_edge2&#45;headlabel"><a xlink:href="dir_000013_000009.html" target="_top" xlink:title="1">
<text text-anchor="middle" x="75.2589" y="-120.7824" font-family="Helvetica,sans-Serif" font-size="10.00" fill="#000000">1</text>
</a>
</g>
</g>
<!-- dir_8d958912d77bd1f78bb533f4d32b55c4&#45;&gt;dir_ccf06175024ff32ee3af6098b7e3f558 -->
<g id="edge3" class="edge">
<title>dir_8d958912d77bd1f78bb533f4d32b55c4&#45;&gt;dir_ccf06175024ff32ee3af6098b7e3f558</title>
<path fill="none" stroke="#000000" d="M75.1212,-71.8314C68.7864,-63.5386 61.1616,-53.557 54.2074,-44.4533"/>
<polygon fill="#000000" stroke="#000000" points="56.9175,-42.2353 48.0657,-36.4133 51.3548,-46.4847 56.9175,-42.2353"/>
<g id="a_edge3&#45;headlabel"><a xlink:href="dir_000009_000004.html" target="_top" xlink:title="6">
<text text-anchor="middle" x="61.3558" y="-40.8683" font-family="Helvetica,sans-Serif" font-size="10.00" fill="#000000">6</text>
</a>
</g>
</g>
</g>
</svg>
