<?xml version="1.0" encoding="UTF-8" standalone="no"?>
<!DOCTYPE svg PUBLIC "-//W3C//DTD SVG 1.1//EN"
 "http://www.w3.org/Graphics/SVG/1.1/DTD/svg11.dtd">
<!-- Generated by graphviz version 2.41.20170323.1842 (20170323.1842)
 -->
<!-- Title: esp&#45;open&#45;lwip/user Pages: 1 -->
<svg width="209pt" height="439pt"
 viewBox="0.00 0.00 208.76 439.00" xmlns="http://www.w3.org/2000/svg" xmlns:xlink="http://www.w3.org/1999/xlink">
<g id="graph0" class="graph" transform="scale(1 1) rotate(0) translate(4 435)">
<title>esp&#45;open&#45;lwip/user</title>
<polygon fill="#ffffff" stroke="transparent" points="-4,4 -4,-435 204.761,-435 204.761,4 -4,4"/>
<g id="clust1" class="cluster">
<title>clusterdir_84d76a54d5d264f7baa245697b2fd85c</title>
<g id="a_clust1"><a xlink:href="dir_84d76a54d5d264f7baa245697b2fd85c.html" target="_top" xlink:title="esp&#45;open&#45;lwip">
<polygon fill="#ddddee" stroke="#000000" points="68.761,-352 68.761,-423 147.761,-423 147.761,-352 68.761,-352"/>
<text text-anchor="middle" x="108.261" y="-411" font-family="Helvetica,sans-Serif" font-size="10.00" fill="#000000">esp&#45;open&#45;lwip</text>
</a>
</g>
</g>
<!-- dir_0435b4d7f996426242703e339a423e26 -->
<g id="node1" class="node">
<title>dir_0435b4d7f996426242703e339a423e26</title>
<g id="a_node1"><a xlink:href="dir_0435b4d7f996426242703e339a423e26.html" target="_top" xlink:title="user">
<polygon fill="#eeeeff" stroke="#000000" points="134.761,-396 80.761,-396 80.761,-360 134.761,-360 134.761,-396"/>
<text text-anchor="middle" x="107.761" y="-375.5" font-family="Helvetica,sans-Serif" font-size="10.00" fill="#000000">user</text>
</a>
</g>
</g>
<!-- dir_2584a8ef173e30cec0336a2c92688588 -->
<g id="node2" class="node">
<title>dir_2584a8ef173e30cec0336a2c92688588</title>
<g id="a_node2"><a xlink:href="dir_2584a8ef173e30cec0336a2c92688588.html" target="_top" xlink:title="user">
<polygon fill="#ffffff" stroke="#ff0000" points="79.761,-324 25.761,-324 25.761,-288 79.761,-288 79.761,-324"/>
<text text-anchor="middle" x="52.761" y="-303.5" font-family="Helvetica,sans-Serif" font-size="10.00" fill="#000000">user</text>
</a>
</g>
</g>
<!-- dir_0435b4d7f996426242703e339a423e26&#45;&gt;dir_2584a8ef173e30cec0336a2c92688588 -->
<g id="edge8" class="edge">
<title>dir_0435b4d7f996426242703e339a423e26&#45;&gt;dir_2584a8ef173e30cec0336a2c92688588</title>
<path fill="none" stroke="#000000" d="M93.8821,-359.8314C87.5474,-351.5386 79.9226,-341.557 72.9684,-332.4533"/>
<polygon fill="#000000" stroke="#000000" points="75.6784,-330.2353 66.8266,-324.4133 70.1157,-334.4847 75.6784,-330.2353"/>
<g id="a_edge8&#45;headlabel"><a xlink:href="dir_000031_000021.html" target="_top" xlink:title="17">
<text text-anchor="middle" x="80.1168" y="-328.8683" font-family="Helvetica,sans-Serif" font-size="10.00" fill="#000000">17</text>
</a>
</g>
</g>
<!-- dir_ccf06175024ff32ee3af6098b7e3f558 -->
<g id="node3" class="node">
<title>dir_ccf06175024ff32ee3af6098b7e3f558</title>
<g id="a_node3"><a xlink:href="dir_ccf06175024ff32ee3af6098b7e3f558.html" target="_top" xlink:title="include">
<polygon fill="#ffffff" stroke="#ff0000" points="79.761,-108 25.761,-108 25.761,-72 79.761,-72 79.761,-108"/>
<text text-anchor="middle" x="52.761" y="-87.5" font-family="Helvetica,sans-Serif" font-size="10.00" fill="#000000">include</text>
</a>
</g>
</g>
<!-- dir_0435b4d7f996426242703e339a423e26&#45;&gt;dir_ccf06175024ff32ee3af6098b7e3f558 -->
<g id="edge9" class="edge">
<title>dir_0435b4d7f996426242703e339a423e26&#45;&gt;dir_ccf06175024ff32ee3af6098b7e3f558</title>
<path fill="none" stroke="#000000" d="M80.4562,-370.0514C58.9103,-362.1773 30.3052,-347.7867 16.761,-324 -21.3094,-257.1402 15.5411,-162.9486 38.1031,-117.1411"/>
<polygon fill="#000000" stroke="#000000" points="41.2722,-118.6303 42.6687,-108.1279 35.0276,-115.4671 41.2722,-118.6303"/>
<g id="a_edge9&#45;headlabel"><a xlink:href="dir_000031_000016.html" target="_top" xlink:title="3">
<text text-anchor="middle" x="42.1808" y="-120.62" font-family="Helvetica,sans-Serif" font-size="10.00" fill="#000000">3</text>
</a>
</g>
</g>
<!-- dir_1f13cb2e788c2de927b7fd2832d723f1 -->
<g id="node4" class="node">
<title>dir_1f13cb2e788c2de927b7fd2832d723f1</title>
<g id="a_node4"><a xlink:href="dir_1f13cb2e788c2de927b7fd2832d723f1.html" target="_top" xlink:title="mqtt">
<polygon fill="#ffffff" stroke="#ff0000" points="134.761,-180 80.761,-180 80.761,-144 134.761,-144 134.761,-180"/>
<text text-anchor="middle" x="107.761" y="-159.5" font-family="Helvetica,sans-Serif" font-size="10.00" fill="#000000">mqtt</text>
</a>
</g>
</g>
<!-- dir_0435b4d7f996426242703e339a423e26&#45;&gt;dir_1f13cb2e788c2de927b7fd2832d723f1 -->
<g id="edge10" class="edge">
<title>dir_0435b4d7f996426242703e339a423e26&#45;&gt;dir_1f13cb2e788c2de927b7fd2832d723f1</title>
<path fill="none" stroke="#000000" d="M117.8472,-359.7911C133.2493,-329.5675 159.2901,-267.2892 143.761,-216 140.8045,-206.2355 135.4357,-196.6229 129.731,-188.2762"/>
<polygon fill="#000000" stroke="#000000" points="132.4738,-186.0973 123.7514,-180.0831 126.8195,-190.2239 132.4738,-186.0973"/>
<g id="a_edge10&#45;headlabel"><a xlink:href="dir_000031_000024.html" target="_top" xlink:title="1">
<text text-anchor="middle" x="136.8863" y="-184.827" font-family="Helvetica,sans-Serif" font-size="10.00" fill="#000000">1</text>
</a>
</g>
</g>
<!-- dir_57fd561ce270d321516bbcc15c5a806b -->
<g id="node5" class="node">
<title>dir_57fd561ce270d321516bbcc15c5a806b</title>
<g id="a_node5"><a xlink:href="dir_57fd561ce270d321516bbcc15c5a806b.html" target="_top" xlink:title="sdk">
<polygon fill="#ffffff" stroke="#ff0000" points="134.761,-36 80.761,-36 80.761,0 134.761,0 134.761,-36"/>
<text text-anchor="middle" x="107.761" y="-15.5" font-family="Helvetica,sans-Serif" font-size="10.00" fill="#000000">sdk</text>
</a>
</g>
</g>
<!-- dir_0435b4d7f996426242703e339a423e26&#45;&gt;dir_57fd561ce270d321516bbcc15c5a806b -->
<g id="edge11" class="edge">
<title>dir_0435b4d7f996426242703e339a423e26&#45;&gt;dir_57fd561ce270d321516bbcc15c5a806b</title>
<path fill="none" stroke="#000000" d="M129.3308,-359.9468C156.8039,-334.7991 200.761,-286.3785 200.761,-234 200.761,-234 200.761,-234 200.761,-162 200.761,-114.1228 164.0344,-69.5525 136.7406,-43.04"/>
<polygon fill="#000000" stroke="#000000" points="139.0076,-40.3671 129.3308,-36.0532 134.2054,-45.4601 139.0076,-40.3671"/>
<g id="a_edge11&#45;headlabel"><a xlink:href="dir_000031_000005.html" target="_top" xlink:title="2">
<text text-anchor="middle" x="143.5708" y="-38.2673" font-family="Helvetica,sans-Serif" font-size="10.00" fill="#000000">2</text>
</a>
</g>
</g>
<!-- dir_8d958912d77bd1f78bb533f4d32b55c4 -->
<g id="node6" class="node">
<title>dir_8d958912d77bd1f78bb533f4d32b55c4</title>
<g id="a_node6"><a xlink:href="dir_8d958912d77bd1f78bb533f4d32b55c4.html" target="_top" xlink:title="modules">
<polygon fill="#ffffff" stroke="#ff0000" points="134.761,-252 80.761,-252 80.761,-216 134.761,-216 134.761,-252"/>
<text text-anchor="middle" x="107.761" y="-231.5" font-family="Helvetica,sans-Serif" font-size="10.00" fill="#000000">modules</text>
</a>
</g>
</g>
<!-- dir_0435b4d7f996426242703e339a423e26&#45;&gt;dir_8d958912d77bd1f78bb533f4d32b55c4 -->
<g id="edge12" class="edge">
<title>dir_0435b4d7f996426242703e339a423e26&#45;&gt;dir_8d958912d77bd1f78bb533f4d32b55c4</title>
<path fill="none" stroke="#000000" d="M107.761,-359.7623C107.761,-335.201 107.761,-291.2474 107.761,-262.3541"/>
<polygon fill="#000000" stroke="#000000" points="111.2611,-262.0896 107.761,-252.0896 104.2611,-262.0897 111.2611,-262.0896"/>
<g id="a_edge12&#45;headlabel"><a xlink:href="dir_000031_000022.html" target="_top" xlink:title="2">
<text text-anchor="middle" x="114.1002" y="-263.1842" font-family="Helvetica,sans-Serif" font-size="10.00" fill="#000000">2</text>
</a>
</g>
</g>
<!-- dir_2584a8ef173e30cec0336a2c92688588&#45;&gt;dir_ccf06175024ff32ee3af6098b7e3f558 -->
<g id="edge1" class="edge">
<title>dir_2584a8ef173e30cec0336a2c92688588&#45;&gt;dir_ccf06175024ff32ee3af6098b7e3f558</title>
<path fill="none" stroke="#000000" d="M52.761,-287.9555C52.761,-250.3938 52.761,-163.5541 52.761,-118.4103"/>
<polygon fill="#000000" stroke="#000000" points="56.2611,-118.145 52.761,-108.1451 49.2611,-118.1451 56.2611,-118.145"/>
<g id="a_edge1&#45;headlabel"><a xlink:href="dir_000021_000016.html" target="_top" xlink:title="34">
<text text-anchor="middle" x="59.1002" y="-119.2397" font-family="Helvetica,sans-Serif" font-size="10.00" fill="#000000">34</text>
</a>
</g>
</g>
<!-- dir_2584a8ef173e30cec0336a2c92688588&#45;&gt;dir_1f13cb2e788c2de927b7fd2832d723f1 -->
<g id="edge2" class="edge">
<title>dir_2584a8ef173e30cec0336a2c92688588&#45;&gt;dir_1f13cb2e788c2de927b7fd2832d723f1</title>
<path fill="none" stroke="#000000" d="M54.5514,-287.8083C56.8497,-269.1875 61.7954,-239.7008 71.761,-216 75.7154,-206.5953 81.3761,-197.0879 87.0415,-188.727"/>
<polygon fill="#000000" stroke="#000000" points="89.9568,-190.6664 92.8757,-180.4815 84.2426,-186.6231 89.9568,-190.6664"/>
<g id="a_edge2&#45;headlabel"><a xlink:href="dir_000021_000024.html" target="_top" xlink:title="4">
<text text-anchor="middle" x="90.1984" y="-192.7406" font-family="Helvetica,sans-Serif" font-size="10.00" fill="#000000">4</text>
</a>
</g>
</g>
<!-- dir_2584a8ef173e30cec0336a2c92688588&#45;&gt;dir_57fd561ce270d321516bbcc15c5a806b -->
<g id="edge3" class="edge">
<title>dir_2584a8ef173e30cec0336a2c92688588&#45;&gt;dir_57fd561ce270d321516bbcc15c5a806b</title>
<path fill="none" stroke="#000000" d="M42.6687,-287.8721C21.1624,-246.5893 -24.0173,-143.6155 16.761,-72 28.4006,-51.5583 51.163,-38.0559 71.0093,-29.6651"/>
<polygon fill="#000000" stroke="#000000" points="72.4318,-32.8667 80.4562,-25.9486 69.8691,-26.3526 72.4318,-32.8667"/>
<g id="a_edge3&#45;headlabel"><a xlink:href="dir_000021_000005.html" target="_top" xlink:title="8">
<text text-anchor="middle" x="70.1262" y="-34.3247" font-family="Helvetica,sans-Serif" font-size="10.00" fill="#000000">8</text>
</a>
</g>
</g>
<!-- dir_2584a8ef173e30cec0336a2c92688588&#45;&gt;dir_8d958912d77bd1f78bb533f4d32b55c4 -->
<g id="edge4" class="edge">
<title>dir_2584a8ef173e30cec0336a2c92688588&#45;&gt;dir_8d958912d77bd1f78bb533f4d32b55c4</title>
<path fill="none" stroke="#000000" d="M60.6874,-287.8314C66.2704,-279.454 73.7966,-269.3531 81.2448,-260.1749"/>
<polygon fill="#000000" stroke="#000000" points="84.0013,-262.3344 87.7193,-252.4133 78.626,-257.8504 84.0013,-262.3344"/>
<g id="a_edge4&#45;headlabel"><a xlink:href="dir_000021_000022.html" target="_top" xlink:title="7">
<text text-anchor="middle" x="83.8791" y="-264.4134" font-family="Helvetica,sans-Serif" font-size="10.00" fill="#000000">7</text>
</a>
</g>
</g>
<!-- dir_ccf06175024ff32ee3af6098b7e3f558&#45;&gt;dir_57fd561ce270d321516bbcc15c5a806b -->
<g id="edge5" class="edge">
<title>dir_ccf06175024ff32ee3af6098b7e3f558&#45;&gt;dir_57fd561ce270d321516bbcc15c5a806b</title>
<path fill="none" stroke="#000000" d="M66.6398,-71.8314C72.9745,-63.5386 80.5993,-53.557 87.5535,-44.4533"/>
<polygon fill="#000000" stroke="#000000" points="90.4062,-46.4847 93.6953,-36.4133 84.8435,-42.2353 90.4062,-46.4847"/>
<g id="a_edge5&#45;headlabel"><a xlink:href="dir_000016_000005.html" target="_top" xlink:title="13">
<text text-anchor="middle" x="90.4804" y="-48.5647" font-family="Helvetica,sans-Serif" font-size="10.00" fill="#000000">13</text>
</a>
</g>
</g>
<!-- dir_1f13cb2e788c2de927b7fd2832d723f1&#45;&gt;dir_ccf06175024ff32ee3af6098b7e3f558 -->
<g id="edge6" class="edge">
<title>dir_1f13cb2e788c2de927b7fd2832d723f1&#45;&gt;dir_ccf06175024ff32ee3af6098b7e3f558</title>
<path fill="none" stroke="#000000" d="M93.8821,-143.8314C87.5474,-135.5386 79.9226,-125.557 72.9684,-116.4533"/>
<polygon fill="#000000" stroke="#000000" points="75.6784,-114.2353 66.8266,-108.4133 70.1157,-118.4847 75.6784,-114.2353"/>
<g id="a_edge6&#45;headlabel"><a xlink:href="dir_000024_000016.html" target="_top" xlink:title="3">
<text text-anchor="middle" x="80.1168" y="-112.8683" font-family="Helvetica,sans-Serif" font-size="10.00" fill="#000000">3</text>
</a>
</g>
</g>
<!-- dir_1f13cb2e788c2de927b7fd2832d723f1&#45;&gt;dir_57fd561ce270d321516bbcc15c5a806b -->
<g id="edge7" class="edge">
<title>dir_1f13cb2e788c2de927b7fd2832d723f1&#45;&gt;dir_57fd561ce270d321516bbcc15c5a806b</title>
<path fill="none" stroke="#000000" d="M107.761,-143.7623C107.761,-119.201 107.761,-75.2474 107.761,-46.3541"/>
<polygon fill="#000000" stroke="#000000" points="111.2611,-46.0896 107.761,-36.0896 104.2611,-46.0897 111.2611,-46.0896"/>
<g id="a_edge7&#45;headlabel"><a xlink:href="dir_000024_000005.html" target="_top" xlink:title="7">
<text text-anchor="middle" x="114.1002" y="-47.1842" font-family="Helvetica,sans-Serif" font-size="10.00" fill="#000000">7</text>
</a>
</g>
</g>
<!-- dir_8d958912d77bd1f78bb533f4d32b55c4&#45;&gt;dir_2584a8ef173e30cec0336a2c92688588 -->
<g id="edge13" class="edge">
<title>dir_8d958912d77bd1f78bb533f4d32b55c4&#45;&gt;dir_2584a8ef173e30cec0336a2c92688588</title>
<path fill="none" stroke="#000000" d="M99.6713,-252.4133C94.0507,-260.8239 86.5065,-270.9323 79.0601,-280.0923"/>
<polygon fill="#000000" stroke="#000000" points="76.3194,-277.9138 72.5922,-287.8314 81.6906,-282.4027 76.3194,-277.9138"/>
<g id="a_edge13&#45;headlabel"><a xlink:href="dir_000022_000021.html" target="_top" xlink:title="5">
<text text-anchor="middle" x="76.4459" y="-270.8348" font-family="Helvetica,sans-Serif" font-size="10.00" fill="#000000">5</text>
</a>
</g>
</g>
<!-- dir_8d958912d77bd1f78bb533f4d32b55c4&#45;&gt;dir_ccf06175024ff32ee3af6098b7e3f558 -->
<g id="edge14" class="edge">
<title>dir_8d958912d77bd1f78bb533f4d32b55c4&#45;&gt;dir_ccf06175024ff32ee3af6098b7e3f558</title>
<path fill="none" stroke="#000000" d="M92.8757,-215.5185C85.5148,-205.5296 77.089,-192.6716 71.761,-180 63.4304,-160.1876 58.6076,-136.3321 55.9069,-118.1605"/>
<polygon fill="#000000" stroke="#000000" points="59.3669,-117.6289 54.5514,-108.1917 52.4307,-118.5721 59.3669,-117.6289"/>
<g id="a_edge14&#45;headlabel"><a xlink:href="dir_000022_000016.html" target="_top" xlink:title="3">
<text text-anchor="middle" x="62.6645" y="-118.3082" font-family="Helvetica,sans-Serif" font-size="10.00" fill="#000000">3</text>
</a>
</g>
</g>
<!-- dir_8d958912d77bd1f78bb533f4d32b55c4&#45;&gt;dir_1f13cb2e788c2de927b7fd2832d723f1 -->
<g id="edge15" class="edge">
<title>dir_8d958912d77bd1f78bb533f4d32b55c4&#45;&gt;dir_1f13cb2e788c2de927b7fd2832d723f1</title>
<path fill="none" stroke="#000000" d="M107.761,-215.8314C107.761,-208.131 107.761,-198.9743 107.761,-190.4166"/>
<polygon fill="#000000" stroke="#000000" points="111.2611,-190.4132 107.761,-180.4133 104.2611,-190.4133 111.2611,-190.4132"/>
<g id="a_edge15&#45;headlabel"><a xlink:href="dir_000022_000024.html" target="_top" xlink:title="3">
<text text-anchor="middle" x="114.1002" y="-191.5079" font-family="Helvetica,sans-Serif" font-size="10.00" fill="#000000">3</text>
</a>
</g>
</g>
<!-- dir_8d958912d77bd1f78bb533f4d32b55c4&#45;&gt;dir_57fd561ce270d321516bbcc15c5a806b -->
<g id="edge16" class="edge">
<title>dir_8d958912d77bd1f78bb533f4d32b55c4&#45;&gt;dir_57fd561ce270d321516bbcc15c5a806b</title>
<path fill="none" stroke="#000000" d="M123.7514,-215.9169C131.4148,-206.0371 139.7775,-193.1563 143.761,-180 157.8342,-133.5191 137.7666,-78.0131 122.4165,-45.519"/>
<polygon fill="#000000" stroke="#000000" points="125.3951,-43.6439 117.8472,-36.2089 119.1111,-46.7281 125.3951,-43.6439"/>
<g id="a_edge16&#45;headlabel"><a xlink:href="dir_000022_000005.html" target="_top" xlink:title="1">
<text text-anchor="middle" x="129.5276" y="-43.1199" font-family="Helvetica,sans-Serif" font-size="10.00" fill="#000000">1</text>
</a>
</g>
</g>
</g>
</svg>
