<?xml version="1.0" encoding="UTF-8" standalone="no"?>
<!DOCTYPE svg PUBLIC "-//W3C//DTD SVG 1.1//EN"
 "http://www.w3.org/Graphics/SVG/1.1/DTD/svg11.dtd">
<!-- Generated by graphviz version 2.41.20170323.1842 (20170323.1842)
 -->
<!-- Title: lib/heatshrink Pages: 1 -->
<svg width="104pt" height="151pt"
 viewBox="0.00 0.00 104.00 151.00" xmlns="http://www.w3.org/2000/svg" xmlns:xlink="http://www.w3.org/1999/xlink">
<g id="graph0" class="graph" transform="scale(1 1) rotate(0) translate(4 147)">
<title>lib/heatshrink</title>
<polygon fill="#ffffff" stroke="transparent" points="-4,4 -4,-147 100,-147 100,4 -4,4"/>
<g id="clust1" class="cluster">
<title>clusterdir_03ce349df1463c1d5b0a4d1665f71080</title>
<g id="a_clust1"><a xlink:href="dir_03ce349df1463c1d5b0a4d1665f71080.html" target="_top" xlink:title="lib">
<polygon fill="#ddddee" stroke="#000000" points="8,-64 8,-135 88,-135 88,-64 8,-64"/>
<text text-anchor="middle" x="48" y="-123" font-family="Helvetica,sans-Serif" font-size="10.00" fill="#000000">lib</text>
</a>
</g>
</g>
<!-- dir_a053695e3905646a3faa0a2b90a91c87 -->
<g id="node1" class="node">
<title>dir_a053695e3905646a3faa0a2b90a91c87</title>
<g id="a_node1"><a xlink:href="dir_a053695e3905646a3faa0a2b90a91c87.html" target="_top" xlink:title="heatshrink">
<polygon fill="#eeeeff" stroke="#000000" points="79.5,-108 16.5,-108 16.5,-72 79.5,-72 79.5,-108"/>
<text text-anchor="middle" x="48" y="-87.5" font-family="Helvetica,sans-Serif" font-size="10.00" fill="#000000">heatshrink</text>
</a>
</g>
</g>
<!-- dir_84d76a54d5d264f7baa245697b2fd85c -->
<g id="node2" class="node">
<title>dir_84d76a54d5d264f7baa245697b2fd85c</title>
<g id="a_node2"><a xlink:href="dir_84d76a54d5d264f7baa245697b2fd85c.html" target="_top" xlink:title="esp&#45;open&#45;lwip">
<polygon fill="#ffffff" stroke="#ff0000" points="87.5,-36 8.5,-36 8.5,0 87.5,0 87.5,-36"/>
<text text-anchor="middle" x="48" y="-15.5" font-family="Helvetica,sans-Serif" font-size="10.00" fill="#000000">esp&#45;open&#45;lwip</text>
</a>
</g>
</g>
<!-- dir_a053695e3905646a3faa0a2b90a91c87&#45;&gt;dir_84d76a54d5d264f7baa245697b2fd85c -->
<g id="edge1" class="edge">
<title>dir_a053695e3905646a3faa0a2b90a91c87&#45;&gt;dir_84d76a54d5d264f7baa245697b2fd85c</title>
<path fill="none" stroke="#000000" d="M48,-71.8314C48,-64.131 48,-54.9743 48,-46.4166"/>
<polygon fill="#000000" stroke="#000000" points="51.5001,-46.4132 48,-36.4133 44.5001,-46.4133 51.5001,-46.4132"/>
<g id="a_edge1&#45;headlabel"><a xlink:href="dir_000020_000000.html" target="_top" xlink:title="1">
<text text-anchor="middle" x="54.3393" y="-47.5079" font-family="Helvetica,sans-Serif" font-size="10.00" fill="#000000">1</text>
</a>
</g>
</g>
</g>
</svg>
