<?xml version="1.0" encoding="UTF-8" standalone="no"?>
<!DOCTYPE svg PUBLIC "-//W3C//DTD SVG 1.1//EN"
 "http://www.w3.org/Graphics/SVG/1.1/DTD/svg11.dtd">
<!-- Generated by graphviz version 2.39.20160927.1334 (20160927.1334)
 -->
<!-- Title: user/en61107 Pages: 1 -->
<svg width="106pt" height="223pt"
 viewBox="0.00 0.00 106.00 223.00" xmlns="http://www.w3.org/2000/svg" xmlns:xlink="http://www.w3.org/1999/xlink">
<g id="graph0" class="graph" transform="scale(1 1) rotate(0) translate(4 219)">
<title>user/en61107</title>
<polygon fill="#ffffff" stroke="transparent" points="-4,4 -4,-219 102,-219 102,4 -4,4"/>
<g id="clust1" class="cluster">
<title>clusterdir_111cd2f11cffd6d6d28d89ee0389ee9e</title>
<g id="a_clust1"><a xlink:href="dir_111cd2f11cffd6d6d28d89ee0389ee9e.html" target="_top" xlink:title="user">
<polygon fill="#ddddee" stroke="#000000" points="18,-136 18,-207 90,-207 90,-136 18,-136"/>
<text text-anchor="middle" x="54" y="-195" font-family="Helvetica,sans-Serif" font-size="10.00" fill="#000000">user</text>
</a>
</g>
</g>
<!-- dir_e5243725fbb4edd039209329f7fb8ca7 -->
<g id="node1" class="node">
<title>dir_e5243725fbb4edd039209329f7fb8ca7</title>
<g id="a_node1"><a xlink:href="dir_e5243725fbb4edd039209329f7fb8ca7.html" target="_top" xlink:title="en61107">
<polygon fill="#eeeeff" stroke="#000000" points="81.5,-180 26.5,-180 26.5,-144 81.5,-144 81.5,-180"/>
<text text-anchor="middle" x="54" y="-159.5" font-family="Helvetica,sans-Serif" font-size="10.00" fill="#000000">en61107</text>
</a>
</g>
</g>
<!-- dir_ba29d0dc2d78ce203ea842ae62826709 -->
<g id="node2" class="node">
<title>dir_ba29d0dc2d78ce203ea842ae62826709</title>
<g id="a_node2"><a xlink:href="dir_ba29d0dc2d78ce203ea842ae62826709.html" target="_top" xlink:title="mqtt">
<polygon fill="#ffffff" stroke="#ff0000" points="54,-108 0,-108 0,-72 54,-72 54,-108"/>
<text text-anchor="middle" x="27" y="-87.5" font-family="Helvetica,sans-Serif" font-size="10.00" fill="#000000">mqtt</text>
</a>
</g>
</g>
<!-- dir_e5243725fbb4edd039209329f7fb8ca7&#45;&gt;dir_ba29d0dc2d78ce203ea842ae62826709 -->
<g id="edge2" class="edge">
<title>dir_e5243725fbb4edd039209329f7fb8ca7&#45;&gt;dir_ba29d0dc2d78ce203ea842ae62826709</title>
<path fill="none" stroke="#000000" d="M47.1868,-143.831C44.2356,-135.962 40.7142,-126.571 37.445,-117.853"/>
<polygon fill="#000000" stroke="#000000" points="40.6934,-116.548 33.905,-108.413 34.1391,-119.006 40.6934,-116.548"/>
<g id="a_edge2&#45;headlabel"><a xlink:href="dir_000013_000008.html" target="_top" xlink:title="1">
<text text-anchor="middle" x="44.614" y="-116.416" font-family="Helvetica,sans-Serif" font-size="10.00" fill="#000000">1</text>
</a>
</g>
</g>
<!-- dir_d44c64559bbebec7f509842c48db8b23 -->
<g id="node3" class="node">
<title>dir_d44c64559bbebec7f509842c48db8b23</title>
<g id="a_node3"><a xlink:href="dir_d44c64559bbebec7f509842c48db8b23.html" target="_top" xlink:title="include">
<polygon fill="#ffffff" stroke="#ff0000" points="81,-36 27,-36 27,-0 81,-0 81,-36"/>
<text text-anchor="middle" x="54" y="-15.5" font-family="Helvetica,sans-Serif" font-size="10.00" fill="#000000">include</text>
</a>
</g>
</g>
<!-- dir_e5243725fbb4edd039209329f7fb8ca7&#45;&gt;dir_d44c64559bbebec7f509842c48db8b23 -->
<g id="edge3" class="edge">
<title>dir_e5243725fbb4edd039209329f7fb8ca7&#45;&gt;dir_d44c64559bbebec7f509842c48db8b23</title>
<path fill="none" stroke="#000000" d="M57.8413,-143.6C59.8166,-133.203 62.0123,-119.935 63,-108 64.3197,-92.0545 64.3197,-87.9455 63,-72 62.3055,-63.6085 61.0138,-54.5578 59.6214,-46.3092"/>
<polygon fill="#000000" stroke="#000000" points="63.0544,-45.6235 57.8413,-36.3999 56.1647,-46.8612 63.0544,-45.6235"/>
<g id="a_edge3&#45;headlabel"><a xlink:href="dir_000013_000001.html" target="_top" xlink:title="3">
<text text-anchor="middle" x="66.4844" y="-46.1595" font-family="Helvetica,sans-Serif" font-size="10.00" fill="#000000">3</text>
</a>
</g>
</g>
<!-- dir_ba29d0dc2d78ce203ea842ae62826709&#45;&gt;dir_d44c64559bbebec7f509842c48db8b23 -->
<g id="edge1" class="edge">
<title>dir_ba29d0dc2d78ce203ea842ae62826709&#45;&gt;dir_d44c64559bbebec7f509842c48db8b23</title>
<path fill="none" stroke="#000000" d="M33.8132,-71.8314C36.7644,-63.9617 40.2858,-54.5712 43.555,-45.8533"/>
<polygon fill="#000000" stroke="#000000" points="46.8609,-47.0055 47.095,-36.4133 40.3066,-44.5476 46.8609,-47.0055"/>
<g id="a_edge1&#45;headlabel"><a xlink:href="dir_000008_000001.html" target="_top" xlink:title="5">
<text text-anchor="middle" x="48.2573" y="-48.8682" font-family="Helvetica,sans-Serif" font-size="10.00" fill="#000000">5</text>
</a>
</g>
</g>
</g>
</svg>
