<?xml version="1.0" encoding="UTF-8" standalone="no"?>
<!DOCTYPE svg PUBLIC "-//W3C//DTD SVG 1.1//EN"
 "http://www.w3.org/Graphics/SVG/1.1/DTD/svg11.dtd">
<!-- Generated by graphviz version 2.41.20170323.1842 (20170323.1842)
 -->
<!-- Title: modules Pages: 1 -->
<svg width="282pt" height="348pt"
 viewBox="0.00 0.00 281.70 348.00" xmlns="http://www.w3.org/2000/svg" xmlns:xlink="http://www.w3.org/1999/xlink">
<g id="graph0" class="graph" transform="scale(1 1) rotate(0) translate(4 344)">
<title>modules</title>
<polygon fill="#ffffff" stroke="transparent" points="-4,4 -4,-344 277.6979,-344 277.6979,4 -4,4"/>
<g id="clust1" class="cluster">
<title>clusterdir_8d958912d77bd1f78bb533f4d32b55c4</title>
<g id="a_clust1"><a xlink:href="dir_8d958912d77bd1f78bb533f4d32b55c4.html" target="_top">
<polygon fill="#eeeeff" stroke="#000000" points="8,-208 8,-332 78,-332 78,-208 8,-208"/>
</a>
</g>
</g>
<!-- dir_8d958912d77bd1f78bb533f4d32b55c4 -->
<g id="node1" class="node">
<title>dir_8d958912d77bd1f78bb533f4d32b55c4</title>
<text text-anchor="middle" x="43" y="-303.5" font-family="Helvetica,sans-Serif" font-size="10.00" fill="#000000">modules</text>
</g>
<!-- dir_cf66fb538c84764e7a0ceac57282e2a3 -->
<g id="node2" class="node">
<title>dir_cf66fb538c84764e7a0ceac57282e2a3</title>
<g id="a_node2"><a xlink:href="dir_cf66fb538c84764e7a0ceac57282e2a3.html" target="_top" xlink:title="include">
<polygon fill="#ffffff" stroke="#000000" points="70,-252 16,-252 16,-216 70,-216 70,-252"/>
<text text-anchor="middle" x="43" y="-231.5" font-family="Helvetica,sans-Serif" font-size="10.00" fill="#000000">include</text>
</a>
</g>
</g>
<!-- dir_8d958912d77bd1f78bb533f4d32b55c4&#45;&gt;dir_cf66fb538c84764e7a0ceac57282e2a3 -->
<g id="edge16" class="edge">
<title>dir_8d958912d77bd1f78bb533f4d32b55c4&#45;&gt;dir_cf66fb538c84764e7a0ceac57282e2a3</title>
<path fill="none" stroke="#000000" d="M43,-287.8314C43,-280.131 43,-270.9743 43,-262.4166"/>
<polygon fill="#000000" stroke="#000000" points="46.5001,-262.4132 43,-252.4133 39.5001,-262.4133 46.5001,-262.4132"/>
<g id="a_edge16&#45;headlabel"><a xlink:href="dir_000022_000023.html" target="_top" xlink:title="3">
<text text-anchor="middle" x="49.3393" y="-263.5079" font-family="Helvetica,sans-Serif" font-size="10.00" fill="#000000">3</text>
</a>
</g>
</g>
<!-- dir_ccf06175024ff32ee3af6098b7e3f558 -->
<g id="node4" class="node">
<title>dir_ccf06175024ff32ee3af6098b7e3f558</title>
<g id="a_node4"><a xlink:href="dir_ccf06175024ff32ee3af6098b7e3f558.html" target="_top" xlink:title="include">
<polygon fill="#ffffff" stroke="#ff0000" points="180,-324 126,-324 126,-288 180,-288 180,-324"/>
<text text-anchor="middle" x="153" y="-303.5" font-family="Helvetica,sans-Serif" font-size="10.00" fill="#000000">include</text>
</a>
</g>
</g>
<!-- dir_8d958912d77bd1f78bb533f4d32b55c4&#45;&gt;dir_ccf06175024ff32ee3af6098b7e3f558 -->
<g id="edge13" class="edge">
<title>dir_8d958912d77bd1f78bb533f4d32b55c4&#45;&gt;dir_ccf06175024ff32ee3af6098b7e3f558</title>
<path fill="none" stroke="#000000" d="M70.0703,-306C85.3058,-306 100.5413,-306 115.7768,-306"/>
<polygon fill="#000000" stroke="#000000" points="115.7887,-309.5001 125.7887,-306 115.7887,-302.5001 115.7887,-309.5001"/>
<g id="a_edge13&#45;headlabel"><a xlink:href="dir_000022_000016.html" target="_top" xlink:title="3">
<text text-anchor="middle" x="112.1941" y="-309.8393" font-family="Helvetica,sans-Serif" font-size="10.00" fill="#000000">3</text>
</a>
</g>
</g>
<!-- dir_1f13cb2e788c2de927b7fd2832d723f1 -->
<g id="node5" class="node">
<title>dir_1f13cb2e788c2de927b7fd2832d723f1</title>
<g id="a_node5"><a xlink:href="dir_1f13cb2e788c2de927b7fd2832d723f1.html" target="_top" xlink:title="mqtt">
<polygon fill="#ffffff" stroke="#ff0000" points="231,-36 177,-36 177,0 231,0 231,-36"/>
<text text-anchor="middle" x="204" y="-15.5" font-family="Helvetica,sans-Serif" font-size="10.00" fill="#000000">mqtt</text>
</a>
</g>
</g>
<!-- dir_8d958912d77bd1f78bb533f4d32b55c4&#45;&gt;dir_1f13cb2e788c2de927b7fd2832d723f1 -->
<g id="edge14" class="edge">
<title>dir_8d958912d77bd1f78bb533f4d32b55c4&#45;&gt;dir_1f13cb2e788c2de927b7fd2832d723f1</title>
<path fill="none" stroke="#000000" d="M27.0095,-287.9169C19.3462,-278.0371 10.9834,-265.1563 7,-252 -7.2774,-204.8448 5.6364,-185.6223 32,-144 55.5524,-106.8158 64.8651,-98.5127 100,-72 120.8425,-56.2723 146.9264,-42.7419 167.7575,-33.1587"/>
<polygon fill="#000000" stroke="#000000" points="169.2352,-36.3319 176.9212,-29.0397 166.3653,-29.9472 169.2352,-36.3319"/>
<g id="a_edge14&#45;headlabel"><a xlink:href="dir_000022_000024.html" target="_top" xlink:title="3">
<text text-anchor="middle" x="167.1207" y="-37.8952" font-family="Helvetica,sans-Serif" font-size="10.00" fill="#000000">3</text>
</a>
</g>
</g>
<!-- dir_57fd561ce270d321516bbcc15c5a806b -->
<g id="node6" class="node">
<title>dir_57fd561ce270d321516bbcc15c5a806b</title>
<g id="a_node6"><a xlink:href="dir_57fd561ce270d321516bbcc15c5a806b.html" target="_top" xlink:title="sdk">
<polygon fill="#ffffff" stroke="#ff0000" points="180,-252 126,-252 126,-216 180,-216 180,-252"/>
<text text-anchor="middle" x="153" y="-231.5" font-family="Helvetica,sans-Serif" font-size="10.00" fill="#000000">sdk</text>
</a>
</g>
</g>
<!-- dir_8d958912d77bd1f78bb533f4d32b55c4&#45;&gt;dir_57fd561ce270d321516bbcc15c5a806b -->
<g id="edge15" class="edge">
<title>dir_8d958912d77bd1f78bb533f4d32b55c4&#45;&gt;dir_57fd561ce270d321516bbcc15c5a806b</title>
<path fill="none" stroke="#000000" d="M70.191,-288.2022C84.3378,-278.9425 101.8157,-267.5025 117.063,-257.5224"/>
<polygon fill="#000000" stroke="#000000" points="119.2903,-260.2476 125.7406,-251.8425 115.4567,-254.3907 119.2903,-260.2476"/>
<g id="a_edge15&#45;headlabel"><a xlink:href="dir_000022_000005.html" target="_top" xlink:title="1">
<text text-anchor="middle" x="117.8377" y="-262.0918" font-family="Helvetica,sans-Serif" font-size="10.00" fill="#000000">1</text>
</a>
</g>
</g>
<!-- dir_2584a8ef173e30cec0336a2c92688588 -->
<g id="node3" class="node">
<title>dir_2584a8ef173e30cec0336a2c92688588</title>
<g id="a_node3"><a xlink:href="dir_2584a8ef173e30cec0336a2c92688588.html" target="_top" xlink:title="user">
<polygon fill="#ffffff" stroke="#ff0000" points="163,-108 109,-108 109,-72 163,-72 163,-108"/>
<text text-anchor="middle" x="136" y="-87.5" font-family="Helvetica,sans-Serif" font-size="10.00" fill="#000000">user</text>
</a>
</g>
</g>
<!-- dir_cf66fb538c84764e7a0ceac57282e2a3&#45;&gt;dir_2584a8ef173e30cec0336a2c92688588 -->
<g id="edge11" class="edge">
<title>dir_cf66fb538c84764e7a0ceac57282e2a3&#45;&gt;dir_2584a8ef173e30cec0336a2c92688588</title>
<path fill="none" stroke="#000000" d="M49.1994,-215.8127C56.0983,-196.9342 68.3633,-167.004 84,-144 90.9039,-133.8434 99.783,-123.8376 108.2434,-115.2514"/>
<polygon fill="#000000" stroke="#000000" points="110.8356,-117.611 115.5102,-108.1032 105.9267,-112.6207 110.8356,-117.611"/>
<g id="a_edge11&#45;headlabel"><a xlink:href="dir_000023_000021.html" target="_top" xlink:title="1">
<text text-anchor="middle" x="110.264" y="-119.6559" font-family="Helvetica,sans-Serif" font-size="10.00" fill="#000000">1</text>
</a>
</g>
</g>
<!-- dir_84d76a54d5d264f7baa245697b2fd85c -->
<g id="node7" class="node">
<title>dir_84d76a54d5d264f7baa245697b2fd85c</title>
<g id="a_node7"><a xlink:href="dir_84d76a54d5d264f7baa245697b2fd85c.html" target="_top" xlink:title="esp&#45;open&#45;lwip">
<polygon fill="#ffffff" stroke="#ff0000" points="243.5,-180 164.5,-180 164.5,-144 243.5,-144 243.5,-180"/>
<text text-anchor="middle" x="204" y="-159.5" font-family="Helvetica,sans-Serif" font-size="10.00" fill="#000000">esp&#45;open&#45;lwip</text>
</a>
</g>
</g>
<!-- dir_cf66fb538c84764e7a0ceac57282e2a3&#45;&gt;dir_84d76a54d5d264f7baa245697b2fd85c -->
<g id="edge12" class="edge">
<title>dir_cf66fb538c84764e7a0ceac57282e2a3&#45;&gt;dir_84d76a54d5d264f7baa245697b2fd85c</title>
<path fill="none" stroke="#000000" d="M70.0321,-219.4297C93.2989,-208.3913 127.2684,-193.1267 155.2289,-181.1092"/>
<polygon fill="#000000" stroke="#000000" points="156.6344,-184.3149 164.4567,-177.169 153.8855,-177.8772 156.6344,-184.3149"/>
<g id="a_edge12&#45;headlabel"><a xlink:href="dir_000023_000000.html" target="_top" xlink:title="1">
<text text-anchor="middle" x="154.4435" y="-185.8376" font-family="Helvetica,sans-Serif" font-size="10.00" fill="#000000">1</text>
</a>
</g>
</g>
<!-- dir_2584a8ef173e30cec0336a2c92688588&#45;&gt;dir_cf66fb538c84764e7a0ceac57282e2a3 -->
<g id="edge4" class="edge">
<title>dir_2584a8ef173e30cec0336a2c92688588&#45;&gt;dir_cf66fb538c84764e7a0ceac57282e2a3</title>
<path fill="none" stroke="#000000" d="M108.7633,-98.3131C87.6199,-106.3403 59.6763,-120.7569 46,-144 35.1466,-162.4455 35.043,-186.8993 37.2958,-205.6612"/>
<polygon fill="#000000" stroke="#000000" points="33.8543,-206.3143 38.7836,-215.6926 40.7786,-205.2873 33.8543,-206.3143"/>
<g id="a_edge4&#45;headlabel"><a xlink:href="dir_000021_000023.html" target="_top" xlink:title="7">
<text text-anchor="middle" x="30.5185" y="-200.6751" font-family="Helvetica,sans-Serif" font-size="10.00" fill="#000000">7</text>
</a>
</g>
</g>
<!-- dir_2584a8ef173e30cec0336a2c92688588&#45;&gt;dir_ccf06175024ff32ee3af6098b7e3f558 -->
<g id="edge1" class="edge">
<title>dir_2584a8ef173e30cec0336a2c92688588&#45;&gt;dir_ccf06175024ff32ee3af6098b7e3f558</title>
<path fill="none" stroke="#000000" d="M129.0915,-108.4059C118.6829,-138.9128 101.7368,-201.5889 117,-252 119.9564,-261.7645 125.3252,-271.3771 131.03,-279.7238"/>
<polygon fill="#000000" stroke="#000000" points="128.2871,-281.9027 137.0095,-287.9169 133.9414,-277.7761 128.2871,-281.9027"/>
<g id="a_edge1&#45;headlabel"><a xlink:href="dir_000021_000016.html" target="_top" xlink:title="34">
<text text-anchor="middle" x="123.8747" y="-278.173" font-family="Helvetica,sans-Serif" font-size="10.00" fill="#000000">34</text>
</a>
</g>
</g>
<!-- dir_2584a8ef173e30cec0336a2c92688588&#45;&gt;dir_1f13cb2e788c2de927b7fd2832d723f1 -->
<g id="edge2" class="edge">
<title>dir_2584a8ef173e30cec0336a2c92688588&#45;&gt;dir_1f13cb2e788c2de927b7fd2832d723f1</title>
<path fill="none" stroke="#000000" d="M153.1593,-71.8314C161.1511,-63.3694 170.8038,-53.1489 179.5416,-43.8971"/>
<polygon fill="#000000" stroke="#000000" points="182.288,-46.0866 186.6097,-36.4133 177.1989,-41.2802 182.288,-46.0866"/>
<g id="a_edge2&#45;headlabel"><a xlink:href="dir_000021_000024.html" target="_top" xlink:title="4">
<text text-anchor="middle" x="181.884" y="-48.1494" font-family="Helvetica,sans-Serif" font-size="10.00" fill="#000000">4</text>
</a>
</g>
</g>
<!-- dir_2584a8ef173e30cec0336a2c92688588&#45;&gt;dir_57fd561ce270d321516bbcc15c5a806b -->
<g id="edge3" class="edge">
<title>dir_2584a8ef173e30cec0336a2c92688588&#45;&gt;dir_57fd561ce270d321516bbcc15c5a806b</title>
<path fill="none" stroke="#000000" d="M138.1356,-108.0896C141.0259,-132.5727 146.2139,-176.5174 149.632,-205.4713"/>
<polygon fill="#000000" stroke="#000000" points="146.1986,-206.2416 150.8469,-215.7623 153.1503,-205.4209 146.1986,-206.2416"/>
<g id="a_edge3&#45;headlabel"><a xlink:href="dir_000021_000005.html" target="_top" xlink:title="8">
<text text-anchor="middle" x="142.9575" y="-200.5047" font-family="Helvetica,sans-Serif" font-size="10.00" fill="#000000">8</text>
</a>
</g>
</g>
<!-- dir_2584a8ef173e30cec0336a2c92688588&#45;&gt;dir_84d76a54d5d264f7baa245697b2fd85c -->
<g id="edge5" class="edge">
<title>dir_2584a8ef173e30cec0336a2c92688588&#45;&gt;dir_84d76a54d5d264f7baa245697b2fd85c</title>
<path fill="none" stroke="#000000" d="M159.1056,-108.1628C167.9006,-116.6038 177.7127,-126.7956 185.9846,-136.0303"/>
<polygon fill="#000000" stroke="#000000" points="183.5806,-138.5987 192.7931,-143.8314 188.8545,-133.9958 183.5806,-138.5987"/>
<g id="a_edge5&#45;headlabel"><a xlink:href="dir_000021_000000.html" target="_top" xlink:title="27">
<text text-anchor="middle" x="179.0779" y="-135.2575" font-family="Helvetica,sans-Serif" font-size="10.00" fill="#000000">27</text>
</a>
</g>
</g>
<!-- dir_ccf06175024ff32ee3af6098b7e3f558&#45;&gt;dir_57fd561ce270d321516bbcc15c5a806b -->
<g id="edge6" class="edge">
<title>dir_ccf06175024ff32ee3af6098b7e3f558&#45;&gt;dir_57fd561ce270d321516bbcc15c5a806b</title>
<path fill="none" stroke="#000000" d="M153,-287.8314C153,-280.131 153,-270.9743 153,-262.4166"/>
<polygon fill="#000000" stroke="#000000" points="156.5001,-262.4132 153,-252.4133 149.5001,-262.4133 156.5001,-262.4132"/>
<g id="a_edge6&#45;headlabel"><a xlink:href="dir_000016_000005.html" target="_top" xlink:title="13">
<text text-anchor="middle" x="159.3393" y="-263.5079" font-family="Helvetica,sans-Serif" font-size="10.00" fill="#000000">13</text>
</a>
</g>
</g>
<!-- dir_1f13cb2e788c2de927b7fd2832d723f1&#45;&gt;dir_ccf06175024ff32ee3af6098b7e3f558 -->
<g id="edge7" class="edge">
<title>dir_1f13cb2e788c2de927b7fd2832d723f1&#45;&gt;dir_ccf06175024ff32ee3af6098b7e3f558</title>
<path fill="none" stroke="#000000" d="M231.0895,-35.9019C242.9052,-45.2066 255.7032,-57.6402 263,-72 266.5398,-78.9663 278.9379,-158.8738 271,-180 254.9778,-222.6424 216.384,-259.0659 187.6698,-281.6229"/>
<polygon fill="#000000" stroke="#000000" points="185.2976,-279.0311 179.4865,-287.8902 189.5538,-284.5886 185.2976,-279.0311"/>
<g id="a_edge7&#45;headlabel"><a xlink:href="dir_000024_000016.html" target="_top" xlink:title="3">
<text text-anchor="middle" x="186.425" y="-272.0914" font-family="Helvetica,sans-Serif" font-size="10.00" fill="#000000">3</text>
</a>
</g>
</g>
<!-- dir_1f13cb2e788c2de927b7fd2832d723f1&#45;&gt;dir_57fd561ce270d321516bbcc15c5a806b -->
<g id="edge8" class="edge">
<title>dir_1f13cb2e788c2de927b7fd2832d723f1&#45;&gt;dir_57fd561ce270d321516bbcc15c5a806b</title>
<path fill="none" stroke="#000000" d="M218.5251,-36.1762C241.6075,-67.4288 281.2985,-132.558 253,-180 239.3529,-202.8792 212.2841,-216.6458 189.7476,-224.5478"/>
<polygon fill="#000000" stroke="#000000" points="188.5287,-221.2636 180.0986,-227.6811 190.6907,-227.9214 188.5287,-221.2636"/>
<g id="a_edge8&#45;headlabel"><a xlink:href="dir_000024_000005.html" target="_top" xlink:title="7">
<text text-anchor="middle" x="191.0707" y="-214.953" font-family="Helvetica,sans-Serif" font-size="10.00" fill="#000000">7</text>
</a>
</g>
</g>
<!-- dir_1f13cb2e788c2de927b7fd2832d723f1&#45;&gt;dir_84d76a54d5d264f7baa245697b2fd85c -->
<g id="edge9" class="edge">
<title>dir_1f13cb2e788c2de927b7fd2832d723f1&#45;&gt;dir_84d76a54d5d264f7baa245697b2fd85c</title>
<path fill="none" stroke="#000000" d="M208.6583,-36.0896C211.1269,-60.5727 211.4104,-104.5174 209.5089,-133.4713"/>
<polygon fill="#000000" stroke="#000000" points="205.9942,-133.5118 208.6732,-143.7623 212.9712,-134.0785 205.9942,-133.5118"/>
<g id="a_edge9&#45;headlabel"><a xlink:href="dir_000024_000000.html" target="_top" xlink:title="9">
<text text-anchor="middle" x="203.4551" y="-127.1992" font-family="Helvetica,sans-Serif" font-size="10.00" fill="#000000">9</text>
</a>
</g>
</g>
<!-- dir_57fd561ce270d321516bbcc15c5a806b&#45;&gt;dir_84d76a54d5d264f7baa245697b2fd85c -->
<g id="edge10" class="edge">
<title>dir_57fd561ce270d321516bbcc15c5a806b&#45;&gt;dir_84d76a54d5d264f7baa245697b2fd85c</title>
<path fill="none" stroke="#000000" d="M159.9171,-215.8314C164.9829,-207.5386 171.8592,-197.557 178.7277,-188.4533"/>
<polygon fill="#000000" stroke="#000000" points="181.6045,-190.4556 184.9813,-180.4133 176.079,-186.1579 181.6045,-190.4556"/>
<g id="a_edge10&#45;headlabel"><a xlink:href="dir_000005_000000.html" target="_top" xlink:title="2">
<text text-anchor="middle" x="181.6388" y="-192.5361" font-family="Helvetica,sans-Serif" font-size="10.00" fill="#000000">2</text>
</a>
</g>
</g>
<!-- dir_84d76a54d5d264f7baa245697b2fd85c&#45;&gt;dir_cf66fb538c84764e7a0ceac57282e2a3 -->
<g id="edge21" class="edge">
<title>dir_84d76a54d5d264f7baa245697b2fd85c&#45;&gt;dir_cf66fb538c84764e7a0ceac57282e2a3</title>
<path fill="none" stroke="#000000" d="M169.4557,-180.1076C142.9944,-192.4832 106.704,-208.6415 79.7174,-220.0262"/>
<polygon fill="#000000" stroke="#000000" points="78.1096,-216.9046 70.2313,-223.9887 80.8077,-223.3638 78.1096,-216.9046"/>
<g id="a_edge21&#45;headlabel"><a xlink:href="dir_000000_000023.html" target="_top" xlink:title="2">
<text text-anchor="middle" x="80.3321" y="-210.3993" font-family="Helvetica,sans-Serif" font-size="10.00" fill="#000000">2</text>
</a>
</g>
</g>
<!-- dir_84d76a54d5d264f7baa245697b2fd85c&#45;&gt;dir_2584a8ef173e30cec0336a2c92688588 -->
<g id="edge17" class="edge">
<title>dir_84d76a54d5d264f7baa245697b2fd85c&#45;&gt;dir_2584a8ef173e30cec0336a2c92688588</title>
<path fill="none" stroke="#000000" d="M180.8883,-143.8314C172.16,-135.454 162.4306,-125.3531 154.1994,-116.1749"/>
<polygon fill="#000000" stroke="#000000" points="156.631,-113.6386 147.4143,-108.4133 151.3608,-118.2457 156.631,-113.6386"/>
<g id="a_edge17&#45;headlabel"><a xlink:href="dir_000000_000021.html" target="_top" xlink:title="17">
<text text-anchor="middle" x="161.1344" y="-111.9762" font-family="Helvetica,sans-Serif" font-size="10.00" fill="#000000">17</text>
</a>
</g>
</g>
<!-- dir_84d76a54d5d264f7baa245697b2fd85c&#45;&gt;dir_ccf06175024ff32ee3af6098b7e3f558 -->
<g id="edge18" class="edge">
<title>dir_84d76a54d5d264f7baa245697b2fd85c&#45;&gt;dir_ccf06175024ff32ee3af6098b7e3f558</title>
<path fill="none" stroke="#000000" d="M203.2107,-180.1853C201.8935,-198.801 198.3785,-228.2838 189,-252 185.2482,-261.4874 179.6468,-271.0189 173.9734,-279.3765"/>
<polygon fill="#000000" stroke="#000000" points="171.0598,-277.4342 168.1097,-287.61 176.7617,-281.495 171.0598,-277.4342"/>
<g id="a_edge18&#45;headlabel"><a xlink:href="dir_000000_000016.html" target="_top" xlink:title="3">
<text text-anchor="middle" x="170.8323" y="-270.3592" font-family="Helvetica,sans-Serif" font-size="10.00" fill="#000000">3</text>
</a>
</g>
</g>
<!-- dir_84d76a54d5d264f7baa245697b2fd85c&#45;&gt;dir_1f13cb2e788c2de927b7fd2832d723f1 -->
<g id="edge19" class="edge">
<title>dir_84d76a54d5d264f7baa245697b2fd85c&#45;&gt;dir_1f13cb2e788c2de927b7fd2832d723f1</title>
<path fill="none" stroke="#000000" d="M199.3268,-143.7623C196.867,-119.201 196.5923,-75.2474 198.5026,-46.3541"/>
<polygon fill="#000000" stroke="#000000" points="202.0152,-46.3416 199.3417,-36.0896 195.0385,-45.7712 202.0152,-46.3416"/>
<g id="a_edge19&#45;headlabel"><a xlink:href="dir_000000_000024.html" target="_top" xlink:title="1">
<text text-anchor="middle" x="204.5522" y="-47.6556" font-family="Helvetica,sans-Serif" font-size="10.00" fill="#000000">1</text>
</a>
</g>
</g>
<!-- dir_84d76a54d5d264f7baa245697b2fd85c&#45;&gt;dir_57fd561ce270d321516bbcc15c5a806b -->
<g id="edge20" class="edge">
<title>dir_84d76a54d5d264f7baa245697b2fd85c&#45;&gt;dir_57fd561ce270d321516bbcc15c5a806b</title>
<path fill="none" stroke="#000000" d="M196.9333,-180.4133C191.832,-188.7389 184.9383,-198.7282 178.07,-207.8144"/>
<polygon fill="#000000" stroke="#000000" points="175.2085,-205.7924 171.8218,-215.8314 180.7297,-210.0955 175.2085,-205.7924"/>
<g id="a_edge20&#45;headlabel"><a xlink:href="dir_000000_000005.html" target="_top" xlink:title="26">
<text text-anchor="middle" x="175.1787" y="-198.7118" font-family="Helvetica,sans-Serif" font-size="10.00" fill="#000000">26</text>
</a>
</g>
</g>
</g>
</svg>
