<?xml version="1.0" encoding="UTF-8" standalone="no"?>
<!DOCTYPE svg PUBLIC "-//W3C//DTD SVG 1.1//EN"
 "http://www.w3.org/Graphics/SVG/1.1/DTD/svg11.dtd">
<!-- Generated by graphviz version 2.41.20170323.1842 (20170323.1842)
 -->
<!-- Title: esp&#45;open&#45;lwip Pages: 1 -->
<svg width="503pt" height="332pt"
 viewBox="0.00 0.00 503.22 332.00" xmlns="http://www.w3.org/2000/svg" xmlns:xlink="http://www.w3.org/1999/xlink">
<g id="graph0" class="graph" transform="scale(1 1) rotate(0) translate(4 328)">
<title>esp&#45;open&#45;lwip</title>
<polygon fill="#ffffff" stroke="transparent" points="-4,4 -4,-328 499.2159,-328 499.2159,4 -4,4"/>
<g id="clust1" class="cluster">
<title>clusterdir_84d76a54d5d264f7baa245697b2fd85c</title>
<g id="a_clust1"><a xlink:href="dir_84d76a54d5d264f7baa245697b2fd85c.html" target="_top">
<polygon fill="#eeeeff" stroke="#000000" points="8,-64 8,-188 248,-188 248,-64 8,-64"/>
</a>
</g>
</g>
<!-- dir_84d76a54d5d264f7baa245697b2fd85c -->
<g id="node1" class="node">
<title>dir_84d76a54d5d264f7baa245697b2fd85c</title>
<text text-anchor="middle" x="56" y="-159.5" font-family="Helvetica,sans-Serif" font-size="10.00" fill="#000000">esp&#45;open&#45;lwip</text>
</g>
<!-- dir_f216ed0e1c8bb9adcb9945fcb7109cd5 -->
<g id="node2" class="node">
<title>dir_f216ed0e1c8bb9adcb9945fcb7109cd5</title>
<g id="a_node2"><a xlink:href="dir_f216ed0e1c8bb9adcb9945fcb7109cd5.html" target="_top" xlink:title="include">
<polygon fill="#ffffff" stroke="#ff0000" points="240,-108 186,-108 186,-72 240,-72 240,-108"/>
<text text-anchor="middle" x="213" y="-87.5" font-family="Helvetica,sans-Serif" font-size="10.00" fill="#000000">include</text>
</a>
</g>
</g>
<!-- dir_57fd561ce270d321516bbcc15c5a806b -->
<g id="node8" class="node">
<title>dir_57fd561ce270d321516bbcc15c5a806b</title>
<g id="a_node8"><a xlink:href="dir_57fd561ce270d321516bbcc15c5a806b.html" target="_top" xlink:title="sdk">
<polygon fill="#ffffff" stroke="#ff0000" points="352,-36 298,-36 298,0 352,0 352,-36"/>
<text text-anchor="middle" x="325" y="-15.5" font-family="Helvetica,sans-Serif" font-size="10.00" fill="#000000">sdk</text>
</a>
</g>
</g>
<!-- dir_f216ed0e1c8bb9adcb9945fcb7109cd5&#45;&gt;dir_57fd561ce270d321516bbcc15c5a806b -->
<g id="edge14" class="edge">
<title>dir_f216ed0e1c8bb9adcb9945fcb7109cd5&#45;&gt;dir_57fd561ce270d321516bbcc15c5a806b</title>
<path fill="none" stroke="#000000" d="M235.3099,-71.8314C250.621,-61.3307 271.129,-48.1221 288.7275,-37.417"/>
<polygon fill="#000000" stroke="#000000" points="290.8517,-40.224 297.6222,-32.0747 287.2475,-34.2231 290.8517,-40.224"/>
<g id="a_edge14&#45;headlabel"><a xlink:href="dir_000001_000005.html" target="_top" xlink:title="5">
<text text-anchor="middle" x="289.2321" y="-42.0087" font-family="Helvetica,sans-Serif" font-size="10.00" fill="#000000">5</text>
</a>
</g>
</g>
<!-- dir_5e0166fd2fe4b02c0adc1ba718d54e45 -->
<g id="node3" class="node">
<title>dir_5e0166fd2fe4b02c0adc1ba718d54e45</title>
<g id="a_node3"><a xlink:href="dir_5e0166fd2fe4b02c0adc1ba718d54e45.html" target="_top" xlink:title="lwip">
<polygon fill="#ffffff" stroke="#ff0000" points="168,-180 114,-180 114,-144 168,-144 168,-180"/>
<text text-anchor="middle" x="141" y="-159.5" font-family="Helvetica,sans-Serif" font-size="10.00" fill="#000000">lwip</text>
</a>
</g>
</g>
<!-- dir_5e0166fd2fe4b02c0adc1ba718d54e45&#45;&gt;dir_f216ed0e1c8bb9adcb9945fcb7109cd5 -->
<g id="edge8" class="edge">
<title>dir_5e0166fd2fe4b02c0adc1ba718d54e45&#45;&gt;dir_f216ed0e1c8bb9adcb9945fcb7109cd5</title>
<path fill="none" stroke="#000000" d="M159.1686,-143.8314C167.7152,-135.2848 178.0557,-124.9443 187.3802,-115.6198"/>
<polygon fill="#000000" stroke="#000000" points="189.9905,-117.9592 194.5867,-108.4133 185.0408,-113.0095 189.9905,-117.9592"/>
<g id="a_edge8&#45;headlabel"><a xlink:href="dir_000008_000001.html" target="_top" xlink:title="180">
<text text-anchor="middle" x="189.4564" y="-120.0087" font-family="Helvetica,sans-Serif" font-size="10.00" fill="#000000">180</text>
</a>
</g>
</g>
<!-- dir_5e0166fd2fe4b02c0adc1ba718d54e45&#45;&gt;dir_57fd561ce270d321516bbcc15c5a806b -->
<g id="edge9" class="edge">
<title>dir_5e0166fd2fe4b02c0adc1ba718d54e45&#45;&gt;dir_57fd561ce270d321516bbcc15c5a806b</title>
<path fill="none" stroke="#000000" d="M140.5289,-143.8954C140.9728,-122.0474 145.1095,-85.5666 166,-64 182.8187,-46.637 246.2042,-32.2281 287.6853,-24.3896"/>
<polygon fill="#000000" stroke="#000000" points="288.5178,-27.7952 297.7178,-22.5406 287.249,-20.9112 288.5178,-27.7952"/>
<g id="a_edge9&#45;headlabel"><a xlink:href="dir_000008_000005.html" target="_top" xlink:title="18">
<text text-anchor="middle" x="285.4974" y="-28.7389" font-family="Helvetica,sans-Serif" font-size="10.00" fill="#000000">18</text>
</a>
</g>
</g>
<!-- dir_0435b4d7f996426242703e339a423e26 -->
<g id="node4" class="node">
<title>dir_0435b4d7f996426242703e339a423e26</title>
<g id="a_node4"><a xlink:href="dir_0435b4d7f996426242703e339a423e26.html" target="_top" xlink:title="user">
<polygon fill="#ffffff" stroke="#000000" points="240,-180 186,-180 186,-144 240,-144 240,-180"/>
<text text-anchor="middle" x="213" y="-159.5" font-family="Helvetica,sans-Serif" font-size="10.00" fill="#000000">user</text>
</a>
</g>
</g>
<!-- dir_2584a8ef173e30cec0336a2c92688588 -->
<g id="node5" class="node">
<title>dir_2584a8ef173e30cec0336a2c92688588</title>
<g id="a_node5"><a xlink:href="dir_2584a8ef173e30cec0336a2c92688588.html" target="_top" xlink:title="user">
<polygon fill="#ffffff" stroke="#ff0000" points="360,-324 306,-324 306,-288 360,-288 360,-324"/>
<text text-anchor="middle" x="333" y="-303.5" font-family="Helvetica,sans-Serif" font-size="10.00" fill="#000000">user</text>
</a>
</g>
</g>
<!-- dir_0435b4d7f996426242703e339a423e26&#45;&gt;dir_2584a8ef173e30cec0336a2c92688588 -->
<g id="edge16" class="edge">
<title>dir_0435b4d7f996426242703e339a423e26&#45;&gt;dir_2584a8ef173e30cec0336a2c92688588</title>
<path fill="none" stroke="#000000" d="M218.0567,-180.167C224.1455,-199.5756 235.874,-230.4509 254,-252 265.7785,-266.0029 282.0451,-277.9523 296.7577,-287.0231"/>
<polygon fill="#000000" stroke="#000000" points="295.2747,-290.2124 305.6635,-292.2917 298.8388,-284.1877 295.2747,-290.2124"/>
<g id="a_edge16&#45;headlabel"><a xlink:href="dir_000031_000021.html" target="_top" xlink:title="17">
<text text-anchor="middle" x="290.7353" y="-288.3259" font-family="Helvetica,sans-Serif" font-size="10.00" fill="#000000">17</text>
</a>
</g>
</g>
<!-- dir_ccf06175024ff32ee3af6098b7e3f558 -->
<g id="node6" class="node">
<title>dir_ccf06175024ff32ee3af6098b7e3f558</title>
<g id="a_node6"><a xlink:href="dir_ccf06175024ff32ee3af6098b7e3f558.html" target="_top" xlink:title="include">
<polygon fill="#ffffff" stroke="#ff0000" points="352,-108 298,-108 298,-72 352,-72 352,-108"/>
<text text-anchor="middle" x="325" y="-87.5" font-family="Helvetica,sans-Serif" font-size="10.00" fill="#000000">include</text>
</a>
</g>
</g>
<!-- dir_0435b4d7f996426242703e339a423e26&#45;&gt;dir_ccf06175024ff32ee3af6098b7e3f558 -->
<g id="edge17" class="edge">
<title>dir_0435b4d7f996426242703e339a423e26&#45;&gt;dir_ccf06175024ff32ee3af6098b7e3f558</title>
<path fill="none" stroke="#000000" d="M240.1121,-144.5708C254.8606,-135.0896 273.2904,-123.2419 289.2056,-113.0107"/>
<polygon fill="#000000" stroke="#000000" points="291.2303,-115.87 297.7494,-107.5182 287.4449,-109.9817 291.2303,-115.87"/>
<g id="a_edge17&#45;headlabel"><a xlink:href="dir_000031_000016.html" target="_top" xlink:title="3">
<text text-anchor="middle" x="289.7419" y="-117.7021" font-family="Helvetica,sans-Serif" font-size="10.00" fill="#000000">3</text>
</a>
</g>
</g>
<!-- dir_1f13cb2e788c2de927b7fd2832d723f1 -->
<g id="node7" class="node">
<title>dir_1f13cb2e788c2de927b7fd2832d723f1</title>
<g id="a_node7"><a xlink:href="dir_1f13cb2e788c2de927b7fd2832d723f1.html" target="_top" xlink:title="mqtt">
<polygon fill="#ffffff" stroke="#ff0000" points="464,-180 410,-180 410,-144 464,-144 464,-180"/>
<text text-anchor="middle" x="437" y="-159.5" font-family="Helvetica,sans-Serif" font-size="10.00" fill="#000000">mqtt</text>
</a>
</g>
</g>
<!-- dir_0435b4d7f996426242703e339a423e26&#45;&gt;dir_1f13cb2e788c2de927b7fd2832d723f1 -->
<g id="edge18" class="edge">
<title>dir_0435b4d7f996426242703e339a423e26&#45;&gt;dir_1f13cb2e788c2de927b7fd2832d723f1</title>
<path fill="none" stroke="#000000" d="M240.125,-162C293.2273,-162 346.3295,-162 399.4318,-162"/>
<polygon fill="#000000" stroke="#000000" points="399.699,-165.5001 409.699,-162 399.6989,-158.5001 399.699,-165.5001"/>
<g id="a_edge18&#45;headlabel"><a xlink:href="dir_000031_000024.html" target="_top" xlink:title="1">
<text text-anchor="middle" x="396.1044" y="-165.8393" font-family="Helvetica,sans-Serif" font-size="10.00" fill="#000000">1</text>
</a>
</g>
</g>
<!-- dir_0435b4d7f996426242703e339a423e26&#45;&gt;dir_57fd561ce270d321516bbcc15c5a806b -->
<g id="edge19" class="edge">
<title>dir_0435b4d7f996426242703e339a423e26&#45;&gt;dir_57fd561ce270d321516bbcc15c5a806b</title>
<path fill="none" stroke="#000000" d="M196.7621,-143.9133C180.0904,-123.0627 158.9439,-88.5201 177,-64 190.2179,-46.0501 248.3255,-32.0657 287.6768,-24.4331"/>
<polygon fill="#000000" stroke="#000000" points="288.5515,-27.83 297.7316,-22.5408 287.2568,-20.9508 288.5515,-27.83"/>
<g id="a_edge19&#45;headlabel"><a xlink:href="dir_000031_000005.html" target="_top" xlink:title="2">
<text text-anchor="middle" x="285.544" y="-28.7851" font-family="Helvetica,sans-Serif" font-size="10.00" fill="#000000">2</text>
</a>
</g>
</g>
<!-- dir_8d958912d77bd1f78bb533f4d32b55c4 -->
<g id="node9" class="node">
<title>dir_8d958912d77bd1f78bb533f4d32b55c4</title>
<g id="a_node9"><a xlink:href="dir_8d958912d77bd1f78bb533f4d32b55c4.html" target="_top" xlink:title="modules">
<polygon fill="#ffffff" stroke="#ff0000" points="388,-252 334,-252 334,-216 388,-216 388,-252"/>
<text text-anchor="middle" x="361" y="-231.5" font-family="Helvetica,sans-Serif" font-size="10.00" fill="#000000">modules</text>
</a>
</g>
</g>
<!-- dir_0435b4d7f996426242703e339a423e26&#45;&gt;dir_8d958912d77bd1f78bb533f4d32b55c4 -->
<g id="edge20" class="edge">
<title>dir_0435b4d7f996426242703e339a423e26&#45;&gt;dir_8d958912d77bd1f78bb533f4d32b55c4</title>
<path fill="none" stroke="#000000" d="M240.2236,-175.2439C263.9564,-186.7896 298.5687,-203.628 324.6624,-216.3222"/>
<polygon fill="#000000" stroke="#000000" points="323.331,-219.5667 333.8545,-220.7941 326.3933,-213.2721 323.331,-219.5667"/>
<g id="a_edge20&#45;headlabel"><a xlink:href="dir_000031_000022.html" target="_top" xlink:title="2">
<text text-anchor="middle" x="318.8565" y="-218.0474" font-family="Helvetica,sans-Serif" font-size="10.00" fill="#000000">2</text>
</a>
</g>
</g>
<!-- dir_2584a8ef173e30cec0336a2c92688588&#45;&gt;dir_84d76a54d5d264f7baa245697b2fd85c -->
<g id="edge6" class="edge">
<title>dir_2584a8ef173e30cec0336a2c92688588&#45;&gt;dir_84d76a54d5d264f7baa245697b2fd85c</title>
<path fill="none" stroke="#000000" d="M305.9184,-292.1219C263.1538,-270.176 177.4001,-226.0432 105,-188 103.0259,-186.9627 101.008,-185.9003 98.9705,-184.8259"/>
<polygon fill="#000000" stroke="#000000" points="100.462,-181.6555 89.9852,-180.0784 97.1918,-187.8447 100.462,-181.6555"/>
<g id="a_edge6&#45;headlabel"><a xlink:href="dir_000021_000000.html" target="_top" xlink:title="27">
<text text-anchor="middle" x="104.9667" y="-178.3244" font-family="Helvetica,sans-Serif" font-size="10.00" fill="#000000">27</text>
</a>
</g>
</g>
<!-- dir_2584a8ef173e30cec0336a2c92688588&#45;&gt;dir_f216ed0e1c8bb9adcb9945fcb7109cd5 -->
<g id="edge3" class="edge">
<title>dir_2584a8ef173e30cec0336a2c92688588&#45;&gt;dir_f216ed0e1c8bb9adcb9945fcb7109cd5</title>
<path fill="none" stroke="#000000" d="M324.3112,-287.6696C309.7224,-257.2712 278.9508,-194.7475 249,-144 243.6445,-134.9258 237.3978,-125.2753 231.6256,-116.6805"/>
<polygon fill="#000000" stroke="#000000" points="234.3579,-114.4741 225.8395,-108.1743 228.57,-118.4112 234.3579,-114.4741"/>
<g id="a_edge3&#45;headlabel"><a xlink:href="dir_000021_000001.html" target="_top" xlink:title="27">
<text text-anchor="middle" x="238.7272" y="-113.3494" font-family="Helvetica,sans-Serif" font-size="10.00" fill="#000000">27</text>
</a>
</g>
</g>
<!-- dir_2584a8ef173e30cec0336a2c92688588&#45;&gt;dir_ccf06175024ff32ee3af6098b7e3f558 -->
<g id="edge1" class="edge">
<title>dir_2584a8ef173e30cec0336a2c92688588&#45;&gt;dir_ccf06175024ff32ee3af6098b7e3f558</title>
<path fill="none" stroke="#000000" d="M329.585,-287.5804C327.8291,-277.1767 325.8774,-263.9092 325,-252 321.5468,-205.1275 322.6019,-150.4192 323.751,-118.0779"/>
<polygon fill="#000000" stroke="#000000" points="327.2511,-118.1382 324.1379,-108.0111 320.2563,-117.8693 327.2511,-118.1382"/>
<g id="a_edge1&#45;headlabel"><a xlink:href="dir_000021_000016.html" target="_top" xlink:title="34">
<text text-anchor="middle" x="329.9504" y="-119.3391" font-family="Helvetica,sans-Serif" font-size="10.00" fill="#000000">34</text>
</a>
</g>
</g>
<!-- dir_2584a8ef173e30cec0336a2c92688588&#45;&gt;dir_1f13cb2e788c2de927b7fd2832d723f1 -->
<g id="edge2" class="edge">
<title>dir_2584a8ef173e30cec0336a2c92688588&#45;&gt;dir_1f13cb2e788c2de927b7fd2832d723f1</title>
<path fill="none" stroke="#000000" d="M359.7625,-287.801C372.2969,-278.2624 386.6993,-265.7177 397,-252 411.1206,-233.1954 421.6138,-208.62 428.3017,-189.9017"/>
<polygon fill="#000000" stroke="#000000" points="431.7024,-190.7737 431.6246,-180.1791 425.0786,-188.5098 431.7024,-190.7737"/>
<g id="a_edge2&#45;headlabel"><a xlink:href="dir_000021_000024.html" target="_top" xlink:title="4">
<text text-anchor="middle" x="433.2267" y="-192.5933" font-family="Helvetica,sans-Serif" font-size="10.00" fill="#000000">4</text>
</a>
</g>
</g>
<!-- dir_2584a8ef173e30cec0336a2c92688588&#45;&gt;dir_57fd561ce270d321516bbcc15c5a806b -->
<g id="edge4" class="edge">
<title>dir_2584a8ef173e30cec0336a2c92688588&#45;&gt;dir_57fd561ce270d321516bbcc15c5a806b</title>
<path fill="none" stroke="#000000" d="M360.0791,-291.2415C377.9578,-281.055 401.58,-266.7357 421,-252 454.3208,-226.7165 473.2702,-226.3359 490,-188 497.8217,-170.0768 495.22,-162.846 490,-144 478.9317,-104.04 473.6473,-90.791 442,-64 419.0133,-44.5406 386.814,-32.6943 362.0121,-25.9076"/>
<polygon fill="#000000" stroke="#000000" points="362.7825,-22.4919 352.2253,-23.3839 361.0346,-29.2701 362.7825,-22.4919"/>
<g id="a_edge4&#45;headlabel"><a xlink:href="dir_000021_000005.html" target="_top" xlink:title="8">
<text text-anchor="middle" x="366.9722" y="-18.1401" font-family="Helvetica,sans-Serif" font-size="10.00" fill="#000000">8</text>
</a>
</g>
</g>
<!-- dir_2584a8ef173e30cec0336a2c92688588&#45;&gt;dir_8d958912d77bd1f78bb533f4d32b55c4 -->
<g id="edge5" class="edge">
<title>dir_2584a8ef173e30cec0336a2c92688588&#45;&gt;dir_8d958912d77bd1f78bb533f4d32b55c4</title>
<path fill="none" stroke="#000000" d="M334.1132,-287.8314C336.4313,-279.8771 339.9188,-270.369 343.6946,-261.5723"/>
<polygon fill="#000000" stroke="#000000" points="346.9062,-262.9648 347.8633,-252.4133 340.5351,-260.065 346.9062,-262.9648"/>
<g id="a_edge5&#45;headlabel"><a xlink:href="dir_000021_000022.html" target="_top" xlink:title="7">
<text text-anchor="middle" x="348.0014" y="-264.9126" font-family="Helvetica,sans-Serif" font-size="10.00" fill="#000000">7</text>
</a>
</g>
</g>
<!-- dir_ccf06175024ff32ee3af6098b7e3f558&#45;&gt;dir_57fd561ce270d321516bbcc15c5a806b -->
<g id="edge7" class="edge">
<title>dir_ccf06175024ff32ee3af6098b7e3f558&#45;&gt;dir_57fd561ce270d321516bbcc15c5a806b</title>
<path fill="none" stroke="#000000" d="M325,-71.8314C325,-64.131 325,-54.9743 325,-46.4166"/>
<polygon fill="#000000" stroke="#000000" points="328.5001,-46.4132 325,-36.4133 321.5001,-46.4133 328.5001,-46.4132"/>
<g id="a_edge7&#45;headlabel"><a xlink:href="dir_000016_000005.html" target="_top" xlink:title="16">
<text text-anchor="middle" x="331.3393" y="-47.5079" font-family="Helvetica,sans-Serif" font-size="10.00" fill="#000000">16</text>
</a>
</g>
</g>
<!-- dir_1f13cb2e788c2de927b7fd2832d723f1&#45;&gt;dir_84d76a54d5d264f7baa245697b2fd85c -->
<g id="edge13" class="edge">
<title>dir_1f13cb2e788c2de927b7fd2832d723f1&#45;&gt;dir_84d76a54d5d264f7baa245697b2fd85c</title>
<path fill="none" stroke="#000000" d="M420.3172,-180.134C411.3609,-188.5194 399.5879,-197.5844 387,-202 358.3766,-212.0405 142.9617,-211.0184 114,-202 103.3796,-198.6929 92.9858,-192.688 83.9977,-186.3191"/>
<polygon fill="#000000" stroke="#000000" points="85.9418,-183.4017 75.8494,-180.1776 81.7285,-188.9917 85.9418,-183.4017"/>
<g id="a_edge13&#45;headlabel"><a xlink:href="dir_000024_000000.html" target="_top" xlink:title="9">
<text text-anchor="middle" x="90.5213" y="-180.7979" font-family="Helvetica,sans-Serif" font-size="10.00" fill="#000000">9</text>
</a>
</g>
</g>
<!-- dir_1f13cb2e788c2de927b7fd2832d723f1&#45;&gt;dir_f216ed0e1c8bb9adcb9945fcb7109cd5 -->
<g id="edge11" class="edge">
<title>dir_1f13cb2e788c2de927b7fd2832d723f1&#45;&gt;dir_f216ed0e1c8bb9adcb9945fcb7109cd5</title>
<path fill="none" stroke="#000000" d="M409.9804,-153.3151C369.9538,-140.4494 294.7985,-116.2924 249.7835,-101.8233"/>
<polygon fill="#000000" stroke="#000000" points="250.7068,-98.4437 240.1155,-98.7157 248.5647,-105.1079 250.7068,-98.4437"/>
<g id="a_edge11&#45;headlabel"><a xlink:href="dir_000024_000001.html" target="_top" xlink:title="9">
<text text-anchor="middle" x="254.9978" y="-94.3406" font-family="Helvetica,sans-Serif" font-size="10.00" fill="#000000">9</text>
</a>
</g>
</g>
<!-- dir_1f13cb2e788c2de927b7fd2832d723f1&#45;&gt;dir_ccf06175024ff32ee3af6098b7e3f558 -->
<g id="edge10" class="edge">
<title>dir_1f13cb2e788c2de927b7fd2832d723f1&#45;&gt;dir_ccf06175024ff32ee3af6098b7e3f558</title>
<path fill="none" stroke="#000000" d="M409.8879,-144.5708C395.1394,-135.0896 376.7096,-123.2419 360.7944,-113.0107"/>
<polygon fill="#000000" stroke="#000000" points="362.5551,-109.9817 352.2506,-107.5182 358.7697,-115.87 362.5551,-109.9817"/>
<g id="a_edge10&#45;headlabel"><a xlink:href="dir_000024_000016.html" target="_top" xlink:title="3">
<text text-anchor="middle" x="367.1141" y="-107.0372" font-family="Helvetica,sans-Serif" font-size="10.00" fill="#000000">3</text>
</a>
</g>
</g>
<!-- dir_1f13cb2e788c2de927b7fd2832d723f1&#45;&gt;dir_57fd561ce270d321516bbcc15c5a806b -->
<g id="edge12" class="edge">
<title>dir_1f13cb2e788c2de927b7fd2832d723f1&#45;&gt;dir_57fd561ce270d321516bbcc15c5a806b</title>
<path fill="none" stroke="#000000" d="M423.0164,-143.9192C407.7876,-124.24 382.7005,-91.8549 361,-64 356.0044,-57.5876 350.6078,-50.681 345.551,-44.2184"/>
<polygon fill="#000000" stroke="#000000" points="348.3038,-42.0568 339.3833,-36.3404 342.792,-46.372 348.3038,-42.0568"/>
<g id="a_edge12&#45;headlabel"><a xlink:href="dir_000024_000005.html" target="_top" xlink:title="7">
<text text-anchor="middle" x="352.7552" y="-40.6368" font-family="Helvetica,sans-Serif" font-size="10.00" fill="#000000">7</text>
</a>
</g>
</g>
<!-- dir_57fd561ce270d321516bbcc15c5a806b&#45;&gt;dir_f216ed0e1c8bb9adcb9945fcb7109cd5 -->
<g id="edge15" class="edge">
<title>dir_57fd561ce270d321516bbcc15c5a806b&#45;&gt;dir_f216ed0e1c8bb9adcb9945fcb7109cd5</title>
<path fill="none" stroke="#000000" d="M302.6392,-36.2035C287.2444,-46.7597 266.6126,-60.0435 248.9655,-70.7697"/>
<polygon fill="#000000" stroke="#000000" points="246.8267,-67.9713 240.0527,-76.1177 250.4284,-73.9736 246.8267,-67.9713"/>
<g id="a_edge15&#45;headlabel"><a xlink:href="dir_000005_000001.html" target="_top" xlink:title="2">
<text text-anchor="middle" x="248.4482" y="-61.1872" font-family="Helvetica,sans-Serif" font-size="10.00" fill="#000000">2</text>
</a>
</g>
</g>
<!-- dir_8d958912d77bd1f78bb533f4d32b55c4&#45;&gt;dir_f216ed0e1c8bb9adcb9945fcb7109cd5 -->
<g id="edge24" class="edge">
<title>dir_8d958912d77bd1f78bb533f4d32b55c4&#45;&gt;dir_f216ed0e1c8bb9adcb9945fcb7109cd5</title>
<path fill="none" stroke="#000000" d="M346.7688,-215.8658C331.6113,-197.0308 306.4774,-167.1355 282,-144 271.0582,-133.6581 258.263,-123.2411 246.6832,-114.3531"/>
<polygon fill="#000000" stroke="#000000" points="248.5977,-111.4129 238.51,-108.1744 244.3764,-116.9968 248.5977,-111.4129"/>
<g id="a_edge24&#45;headlabel"><a xlink:href="dir_000022_000001.html" target="_top" xlink:title="10">
<text text-anchor="middle" x="253.1774" y="-108.8156" font-family="Helvetica,sans-Serif" font-size="10.00" fill="#000000">10</text>
</a>
</g>
</g>
<!-- dir_8d958912d77bd1f78bb533f4d32b55c4&#45;&gt;dir_2584a8ef173e30cec0336a2c92688588 -->
<g id="edge21" class="edge">
<title>dir_8d958912d77bd1f78bb533f4d32b55c4&#45;&gt;dir_2584a8ef173e30cec0336a2c92688588</title>
<path fill="none" stroke="#000000" d="M359.8153,-252.4133C357.4733,-260.3991 353.971,-269.9155 350.1894,-278.6975"/>
<polygon fill="#000000" stroke="#000000" points="346.9886,-277.2811 346.018,-287.8314 353.356,-280.1891 346.9886,-277.2811"/>
<g id="a_edge21&#45;headlabel"><a xlink:href="dir_000022_000021.html" target="_top" xlink:title="5">
<text text-anchor="middle" x="345.8992" y="-270.3318" font-family="Helvetica,sans-Serif" font-size="10.00" fill="#000000">5</text>
</a>
</g>
</g>
<!-- dir_8d958912d77bd1f78bb533f4d32b55c4&#45;&gt;dir_ccf06175024ff32ee3af6098b7e3f558 -->
<g id="edge22" class="edge">
<title>dir_8d958912d77bd1f78bb533f4d32b55c4&#45;&gt;dir_ccf06175024ff32ee3af6098b7e3f558</title>
<path fill="none" stroke="#000000" d="M363.0501,-215.9784C364.5452,-197.493 365.22,-168.1125 358,-144 355.1764,-134.57 350.2872,-125.1265 345.1241,-116.8339"/>
<polygon fill="#000000" stroke="#000000" points="347.9395,-114.7461 339.4989,-108.3424 342.1038,-118.612 347.9395,-114.7461"/>
<g id="a_edge22&#45;headlabel"><a xlink:href="dir_000022_000016.html" target="_top" xlink:title="3">
<text text-anchor="middle" x="352.2916" y="-113.6748" font-family="Helvetica,sans-Serif" font-size="10.00" fill="#000000">3</text>
</a>
</g>
</g>
<!-- dir_8d958912d77bd1f78bb533f4d32b55c4&#45;&gt;dir_1f13cb2e788c2de927b7fd2832d723f1 -->
<g id="edge23" class="edge">
<title>dir_8d958912d77bd1f78bb533f4d32b55c4&#45;&gt;dir_1f13cb2e788c2de927b7fd2832d723f1</title>
<path fill="none" stroke="#000000" d="M380.178,-215.8314C389.3588,-207.1337 400.5006,-196.5783 410.4776,-187.1265"/>
<polygon fill="#000000" stroke="#000000" points="412.9757,-189.5811 417.8281,-180.1628 408.1615,-184.4995 412.9757,-189.5811"/>
<g id="a_edge23&#45;headlabel"><a xlink:href="dir_000022_000024.html" target="_top" xlink:title="3">
<text text-anchor="middle" x="412.3189" y="-191.6145" font-family="Helvetica,sans-Serif" font-size="10.00" fill="#000000">3</text>
</a>
</g>
</g>
<!-- dir_8d958912d77bd1f78bb533f4d32b55c4&#45;&gt;dir_57fd561ce270d321516bbcc15c5a806b -->
<g id="edge25" class="edge">
<title>dir_8d958912d77bd1f78bb533f4d32b55c4&#45;&gt;dir_57fd561ce270d321516bbcc15c5a806b</title>
<path fill="none" stroke="#000000" d="M388.0384,-231.3112C414.7154,-227.058 454.1557,-216.1114 473,-188 483.8888,-171.7564 480.595,-162.0204 473,-144 451.6754,-93.4035 397.67,-56.2235 361.1416,-35.8449"/>
<polygon fill="#000000" stroke="#000000" points="362.7207,-32.7197 352.2618,-31.0279 359.3829,-38.8727 362.7207,-32.7197"/>
<g id="a_edge25&#45;headlabel"><a xlink:href="dir_000022_000005.html" target="_top" xlink:title="1">
<text text-anchor="middle" x="367.2341" y="-29.4379" font-family="Helvetica,sans-Serif" font-size="10.00" fill="#000000">1</text>
</a>
</g>
</g>
</g>
</svg>
