<?xml version="1.0" encoding="UTF-8" standalone="no"?>
<!DOCTYPE svg PUBLIC "-//W3C//DTD SVG 1.1//EN"
 "http://www.w3.org/Graphics/SVG/1.1/DTD/svg11.dtd">
<!-- Generated by graphviz version 2.39.20160927.1334 (20160927.1334)
 -->
<!-- Title: mqtt Pages: 1 -->
<svg width="94pt" height="204pt"
 viewBox="0.00 0.00 94.00 204.00" xmlns="http://www.w3.org/2000/svg" xmlns:xlink="http://www.w3.org/1999/xlink">
<g id="graph0" class="graph" transform="scale(1 1) rotate(0) translate(4 200)">
<title>mqtt</title>
<polygon fill="#ffffff" stroke="transparent" points="-4,4 -4,-200 90,-200 90,4 -4,4"/>
<g id="clust1" class="cluster">
<title>clusterdir_ba29d0dc2d78ce203ea842ae62826709</title>
<g id="a_clust1"><a xlink:href="dir_ba29d0dc2d78ce203ea842ae62826709.html" target="_top">
<polygon fill="#eeeeff" stroke="#000000" points="8,-64 8,-188 78,-188 78,-64 8,-64"/>
</a>
</g>
</g>
<!-- dir_ba29d0dc2d78ce203ea842ae62826709 -->
<g id="node1" class="node">
<title>dir_ba29d0dc2d78ce203ea842ae62826709</title>
<text text-anchor="middle" x="43" y="-159.5" font-family="Helvetica,sans-Serif" font-size="10.00" fill="#000000">mqtt</text>
</g>
<!-- dir_95d22da3e2e01167b8803eb3c91d3e65 -->
<g id="node2" class="node">
<title>dir_95d22da3e2e01167b8803eb3c91d3e65</title>
<g id="a_node2"><a xlink:href="dir_95d22da3e2e01167b8803eb3c91d3e65.html" target="_top" xlink:title="include">
<polygon fill="#ffffff" stroke="#000000" points="70,-108 16,-108 16,-72 70,-72 70,-108"/>
<text text-anchor="middle" x="43" y="-87.5" font-family="Helvetica,sans-Serif" font-size="10.00" fill="#000000">include</text>
</a>
</g>
</g>
<!-- dir_ba29d0dc2d78ce203ea842ae62826709&#45;&gt;dir_95d22da3e2e01167b8803eb3c91d3e65 -->
<g id="edge1" class="edge">
<title>dir_ba29d0dc2d78ce203ea842ae62826709&#45;&gt;dir_95d22da3e2e01167b8803eb3c91d3e65</title>
<path fill="none" stroke="#000000" d="M43,-143.831C43,-136.131 43,-126.974 43,-118.417"/>
<polygon fill="#000000" stroke="#000000" points="46.5001,-118.413 43,-108.413 39.5001,-118.413 46.5001,-118.413"/>
<g id="a_edge1&#45;headlabel"><a xlink:href="dir_000008_000009.html" target="_top" xlink:title="9">
<text text-anchor="middle" x="49.3393" y="-119.508" font-family="Helvetica,sans-Serif" font-size="10.00" fill="#000000">9</text>
</a>
</g>
</g>
<!-- dir_d44c64559bbebec7f509842c48db8b23 -->
<g id="node3" class="node">
<title>dir_d44c64559bbebec7f509842c48db8b23</title>
<g id="a_node3"><a xlink:href="dir_d44c64559bbebec7f509842c48db8b23.html" target="_top" xlink:title="include">
<polygon fill="#ffffff" stroke="#ff0000" points="70,-36 16,-36 16,-0 70,-0 70,-36"/>
<text text-anchor="middle" x="43" y="-15.5" font-family="Helvetica,sans-Serif" font-size="10.00" fill="#000000">include</text>
</a>
</g>
</g>
<!-- dir_95d22da3e2e01167b8803eb3c91d3e65&#45;&gt;dir_d44c64559bbebec7f509842c48db8b23 -->
<g id="edge2" class="edge">
<title>dir_95d22da3e2e01167b8803eb3c91d3e65&#45;&gt;dir_d44c64559bbebec7f509842c48db8b23</title>
<path fill="none" stroke="#000000" d="M43,-71.8314C43,-64.131 43,-54.9743 43,-46.4166"/>
<polygon fill="#000000" stroke="#000000" points="46.5001,-46.4132 43,-36.4133 39.5001,-46.4133 46.5001,-46.4132"/>
<g id="a_edge2&#45;headlabel"><a xlink:href="dir_000009_000001.html" target="_top" xlink:title="1">
<text text-anchor="middle" x="49.3393" y="-47.5079" font-family="Helvetica,sans-Serif" font-size="10.00" fill="#000000">1</text>
</a>
</g>
</g>
</g>
</svg>
