<?xml version="1.0" encoding="UTF-8" standalone="no"?>
<!DOCTYPE svg PUBLIC "-//W3C//DTD SVG 1.1//EN"
 "http://www.w3.org/Graphics/SVG/1.1/DTD/svg11.dtd">
<!-- Generated by graphviz version 2.39.20160927.1334 (20160927.1334)
 -->
<!-- Title: en61107_fifo_in_use Pages: 1 -->
<svg width="1705pt" height="153pt"
 viewBox="0.00 0.00 1705.00 153.00" xmlns="http://www.w3.org/2000/svg" xmlns:xlink="http://www.w3.org/1999/xlink">
<g id="graph0" class="graph" transform="scale(1 1) rotate(0) translate(4 149)">
<title>en61107_fifo_in_use</title>
<polygon fill="#ffffff" stroke="transparent" points="-4,4 -4,-149 1701,-149 1701,4 -4,4"/>
<!-- Node1 -->
<g id="node1" class="node">
<title>Node1</title>
<polygon fill="#bfbfbf" stroke="#000000" points="0,-72.5 0,-91.5 109,-91.5 109,-72.5 0,-72.5"/>
<text text-anchor="middle" x="54.5" y="-79.5" font-family="Helvetica,sans-Serif" font-size="10.00" fill="#000000">en61107_fifo_in_use</text>
</g>
<!-- Node2 -->
<g id="node2" class="node">
<title>Node2</title>
<g id="a_node2"><a xlink:href="en61107__request_8h.html#ac0b054d686556739ae5470544e53e6ff" target="_top" xlink:title="en61107_fifo_get">
<polygon fill="#ffffff" stroke="#000000" points="151.5,-119.5 151.5,-138.5 245.5,-138.5 245.5,-119.5 151.5,-119.5"/>
<text text-anchor="middle" x="198.5" y="-126.5" font-family="Helvetica,sans-Serif" font-size="10.00" fill="#000000">en61107_fifo_get</text>
</a>
</g>
</g>
<!-- Node1&#45;&gt;Node2 -->
<g id="edge1" class="edge">
<title>Node1&#45;&gt;Node2</title>
<path fill="none" stroke="#191970" d="M93.4069,-94.6988C117.17,-102.455 147.08,-112.217 168.909,-119.342"/>
<polygon fill="#191970" stroke="#191970" points="94.233,-91.2868 83.6405,-91.5112 92.061,-97.9413 94.233,-91.2868"/>
</g>
<!-- Node6 -->
<g id="node6" class="node">
<title>Node6</title>
<g id="a_node6"><a xlink:href="en61107__request_8h.html#ae20bf12760f56ac48afdd0c7952d168b" target="_top" xlink:title="en61107_fifo_put">
<polygon fill="#ffffff" stroke="#000000" points="151.5,-72.5 151.5,-91.5 245.5,-91.5 245.5,-72.5 151.5,-72.5"/>
<text text-anchor="middle" x="198.5" y="-79.5" font-family="Helvetica,sans-Serif" font-size="10.00" fill="#000000">en61107_fifo_put</text>
</a>
</g>
</g>
<!-- Node1&#45;&gt;Node6 -->
<g id="edge5" class="edge">
<title>Node1&#45;&gt;Node6</title>
<path fill="none" stroke="#191970" d="M119.526,-82C130.237,-82 141.156,-82 151.323,-82"/>
<polygon fill="#191970" stroke="#191970" points="119.351,-78.5001 109.351,-82 119.351,-85.5001 119.351,-78.5001"/>
</g>
<!-- Node18 -->
<g id="node18" class="node">
<title>Node18</title>
<g id="a_node18"><a xlink:href="en61107__request_8h.html#a7bb388ee3c9e8277f48a76760943800d" target="_top" xlink:title="en61107_fifo_snoop">
<polygon fill="#ffffff" stroke="#000000" points="145,-34.5 145,-53.5 252,-53.5 252,-34.5 145,-34.5"/>
<text text-anchor="middle" x="198.5" y="-41.5" font-family="Helvetica,sans-Serif" font-size="10.00" fill="#000000">en61107_fifo_snoop</text>
</a>
</g>
</g>
<!-- Node1&#45;&gt;Node18 -->
<g id="edge20" class="edge">
<title>Node1&#45;&gt;Node18</title>
<path fill="none" stroke="#191970" d="M100.672,-69.8157C120.664,-64.54 143.719,-58.4562 162.424,-53.5201"/>
<polygon fill="#191970" stroke="#191970" points="99.6132,-66.4752 90.8373,-72.411 101.399,-73.2435 99.6132,-66.4752"/>
</g>
<!-- Node3 -->
<g id="node3" class="node">
<title>Node3</title>
<g id="a_node3"><a xlink:href="en61107__request_8c.html#aa3b162cf5364986ea19e831ac2b18f76" target="_top" xlink:title="en61107_received_task">
<polygon fill="#ffffff" stroke="#000000" points="288,-124.5 288,-143.5 411,-143.5 411,-124.5 288,-124.5"/>
<text text-anchor="middle" x="349.5" y="-131.5" font-family="Helvetica,sans-Serif" font-size="10.00" fill="#000000">en61107_received_task</text>
</a>
</g>
</g>
<!-- Node2&#45;&gt;Node3 -->
<g id="edge2" class="edge">
<title>Node2&#45;&gt;Node3</title>
<path fill="none" stroke="#191970" d="M256.077,-130.907C266.483,-131.251 277.371,-131.612 287.887,-131.96"/>
<polygon fill="#191970" stroke="#191970" points="255.973,-127.401 245.863,-130.568 255.742,-134.397 255.973,-127.401"/>
</g>
<!-- Node4 -->
<g id="node4" class="node">
<title>Node4</title>
<g id="a_node4"><a xlink:href="en61107__request_8h.html#acd43242675a3f25e7c3b530eac9d8b3a" target="_top" xlink:title="en61107_request_init">
<polygon fill="#ffffff" stroke="#000000" points="549,-125.5 549,-144.5 662,-144.5 662,-125.5 549,-125.5"/>
<text text-anchor="middle" x="605.5" y="-132.5" font-family="Helvetica,sans-Serif" font-size="10.00" fill="#000000">en61107_request_init</text>
</a>
</g>
</g>
<!-- Node3&#45;&gt;Node4 -->
<g id="edge3" class="edge">
<title>Node3&#45;&gt;Node4</title>
<path fill="none" stroke="#191970" d="M421.184,-134.28C461.515,-134.438 511.163,-134.631 548.767,-134.778"/>
<polygon fill="#191970" stroke="#191970" points="421.158,-130.78 411.144,-134.241 421.13,-137.78 421.158,-130.78"/>
</g>
<!-- Node5 -->
<g id="node5" class="node">
<title>Node5</title>
<g id="a_node5"><a xlink:href="user__main_8h.html#a33113d6dedb440bd7dfa5576e325140c" target="_top" xlink:title="user_init">
<polygon fill="#ffffff" stroke="#000000" points="1643,-88.5 1643,-107.5 1697,-107.5 1697,-88.5 1643,-88.5"/>
<text text-anchor="middle" x="1670" y="-95.5" font-family="Helvetica,sans-Serif" font-size="10.00" fill="#000000">user_init</text>
</a>
</g>
</g>
<!-- Node4&#45;&gt;Node5 -->
<g id="edge4" class="edge">
<title>Node4&#45;&gt;Node5</title>
<path fill="none" stroke="#191970" d="M672.569,-135.312C741.429,-135.606 851.695,-136 947,-136 947,-136 947,-136 1411,-136 1496.44,-136 1596.07,-115.506 1642.97,-104.619"/>
<polygon fill="#191970" stroke="#191970" points="672.314,-131.811 662.299,-135.268 672.284,-138.811 672.314,-131.811"/>
</g>
<!-- Node7 -->
<g id="node7" class="node">
<title>Node7</title>
<g id="a_node7"><a xlink:href="uart_8c.html#a899cd55c7d84717f3e869e4ee5bfda84" target="_top" xlink:title="uart0_rx_intr_handler">
<polygon fill="#ffffff" stroke="#000000" points="293.5,-53.5 293.5,-72.5 405.5,-72.5 405.5,-53.5 293.5,-53.5"/>
<text text-anchor="middle" x="349.5" y="-60.5" font-family="Helvetica,sans-Serif" font-size="10.00" fill="#000000">uart0_rx_intr_handler</text>
</a>
</g>
</g>
<!-- Node6&#45;&gt;Node7 -->
<g id="edge6" class="edge">
<title>Node6&#45;&gt;Node7</title>
<path fill="none" stroke="#191970" d="M255.959,-74.7701C268.202,-73.2296 281.117,-71.6045 293.312,-70.07"/>
<polygon fill="#191970" stroke="#191970" points="255.348,-71.3193 245.863,-76.0404 256.222,-78.2645 255.348,-71.3193"/>
</g>
<!-- Node8 -->
<g id="node8" class="node">
<title>Node8</title>
<g id="a_node8"><a xlink:href="uart_8c.html#a489b77b74dfee22fd4f0c5323ab44da6" target="_top" xlink:title="uart_config">
<polygon fill="#ffffff" stroke="#000000" points="447,-52.5 447,-71.5 513,-71.5 513,-52.5 447,-52.5"/>
<text text-anchor="middle" x="480" y="-59.5" font-family="Helvetica,sans-Serif" font-size="10.00" fill="#000000">uart_config</text>
</a>
</g>
</g>
<!-- Node7&#45;&gt;Node8 -->
<g id="edge7" class="edge">
<title>Node7&#45;&gt;Node8</title>
<path fill="none" stroke="#191970" d="M415.904,-62.4912C426.677,-62.4086 437.408,-62.3264 446.922,-62.2535"/>
<polygon fill="#191970" stroke="#191970" points="415.574,-58.9935 405.601,-62.5701 415.628,-65.9933 415.574,-58.9935"/>
</g>
<!-- Node9 -->
<g id="node9" class="node">
<title>Node9</title>
<g id="a_node9"><a xlink:href="uart_8h.html#a1fdfa60721412bedfeb7be0ebc4d1700" target="_top" xlink:title="uart_init">
<polygon fill="#ffffff" stroke="#000000" points="579.5,-50.5 579.5,-69.5 631.5,-69.5 631.5,-50.5 579.5,-50.5"/>
<text text-anchor="middle" x="605.5" y="-57.5" font-family="Helvetica,sans-Serif" font-size="10.00" fill="#000000">uart_init</text>
</a>
</g>
</g>
<!-- Node8&#45;&gt;Node9 -->
<g id="edge8" class="edge">
<title>Node8&#45;&gt;Node9</title>
<path fill="none" stroke="#191970" d="M523.324,-61.3096C541.916,-61.0133 563.032,-60.6768 579.203,-60.4191"/>
<polygon fill="#191970" stroke="#191970" points="523.245,-57.8103 513.302,-61.4693 523.357,-64.8094 523.245,-57.8103"/>
</g>
<!-- Node9&#45;&gt;Node5 -->
<g id="edge19" class="edge">
<title>Node9&#45;&gt;Node5</title>
<path fill="none" stroke="#191970" d="M641.731,-68.548C658.728,-72.2729 679.312,-76.3784 698,-79 807.912,-94.4187 836.012,-98 947,-98 947,-98 947,-98 1411,-98 1495.53,-98 1595.59,-98 1642.78,-98"/>
<polygon fill="#191970" stroke="#191970" points="642.184,-65.0629 631.661,-66.2946 640.656,-71.894 642.184,-65.0629"/>
</g>
<!-- Node10 -->
<g id="node10" class="node">
<title>Node10</title>
<g id="a_node10"><a xlink:href="en61107__request_8h.html#a8b0d746dce87f92833ba6f5b83febe63" target="_top" xlink:title="en61107_get_data_timer_func">
<polygon fill="#ffffff" stroke="#000000" points="698,-50.5 698,-69.5 850,-69.5 850,-50.5 698,-50.5"/>
<text text-anchor="middle" x="774" y="-57.5" font-family="Helvetica,sans-Serif" font-size="10.00" fill="#000000">en61107_get_data_timer_func</text>
</a>
</g>
</g>
<!-- Node9&#45;&gt;Node10 -->
<g id="edge9" class="edge">
<title>Node9&#45;&gt;Node10</title>
<path fill="none" stroke="#191970" d="M642.01,-60C658.354,-60 678.277,-60 697.638,-60"/>
<polygon fill="#191970" stroke="#191970" points="641.828,-56.5001 631.828,-60 641.828,-63.5001 641.828,-56.5001"/>
</g>
<!-- Node17 -->
<g id="node17" class="node">
<title>Node17</title>
<g id="a_node17"><a xlink:href="uart_8c.html#a15a9e8dca40ebbeea858ce8f081c06cf" target="_top" xlink:title="uart_reattach">
<polygon fill="#ffffff" stroke="#000000" points="736.5,-12.5 736.5,-31.5 811.5,-31.5 811.5,-12.5 736.5,-12.5"/>
<text text-anchor="middle" x="774" y="-19.5" font-family="Helvetica,sans-Serif" font-size="10.00" fill="#000000">uart_reattach</text>
</a>
</g>
</g>
<!-- Node9&#45;&gt;Node17 -->
<g id="edge18" class="edge">
<title>Node9&#45;&gt;Node17</title>
<path fill="none" stroke="#191970" d="M641.588,-51.8615C669.485,-45.5701 707.992,-36.8861 736.29,-30.5043"/>
<polygon fill="#191970" stroke="#191970" points="640.813,-48.4482 631.828,-54.0625 642.353,-55.2767 640.813,-48.4482"/>
</g>
<!-- Node11 -->
<g id="node11" class="node">
<title>Node11</title>
<g id="a_node11"><a xlink:href="en61107__request_8h.html#a7384d014eb9e833f64ecf4a9f86f87be" target="_top" xlink:title="en61107_request_send">
<polygon fill="#ffffff" stroke="#000000" points="886,-44.5 886,-63.5 1008,-63.5 1008,-44.5 886,-44.5"/>
<text text-anchor="middle" x="947" y="-51.5" font-family="Helvetica,sans-Serif" font-size="10.00" fill="#000000">en61107_request_send</text>
</a>
</g>
</g>
<!-- Node10&#45;&gt;Node11 -->
<g id="edge10" class="edge">
<title>Node10&#45;&gt;Node11</title>
<path fill="none" stroke="#191970" d="M860.271,-57.0079C868.927,-56.7077 877.587,-56.4074 885.902,-56.119"/>
<polygon fill="#191970" stroke="#191970" points="860.005,-53.515 850.132,-57.3596 860.247,-60.5108 860.005,-53.515"/>
</g>
<!-- Node12 -->
<g id="node12" class="node">
<title>Node12</title>
<g id="a_node12"><a xlink:href="en61107__request_8h.html#a6379eaf88ea35baaf2a3ab8a0ae66fdb" target="_top" xlink:title="en61107_receive_timeout\l_timer_func">
<polygon fill="#ffffff" stroke="#000000" points="1044,-39 1044,-69 1176,-69 1176,-39 1044,-39"/>
<text text-anchor="start" x="1052" y="-57" font-family="Helvetica,sans-Serif" font-size="10.00" fill="#000000">en61107_receive_timeout</text>
<text text-anchor="middle" x="1110" y="-46" font-family="Helvetica,sans-Serif" font-size="10.00" fill="#000000">_timer_func</text>
</a>
</g>
</g>
<!-- Node11&#45;&gt;Node12 -->
<g id="edge11" class="edge">
<title>Node11&#45;&gt;Node12</title>
<path fill="none" stroke="#191970" d="M1018.39,-47.2964C1026.85,-47.2183 1035.47,-47.2388 1043.86,-47.3577"/>
<polygon fill="#191970" stroke="#191970" points="1018.11,-43.7999 1008.16,-47.4404 1018.21,-50.7992 1018.11,-43.7999"/>
</g>
<!-- Node13 -->
<g id="node13" class="node">
<title>Node13</title>
<g id="a_node13"><a xlink:href="user__main_8c.html#af2c051d5ceacd30f90c08d6f584deff2" target="_top" xlink:title="sample_timer_func">
<polygon fill="#ffffff" stroke="#000000" points="1059.5,-0.5 1059.5,-19.5 1160.5,-19.5 1160.5,-0.5 1059.5,-0.5"/>
<text text-anchor="middle" x="1110" y="-7.5" font-family="Helvetica,sans-Serif" font-size="10.00" fill="#000000">sample_timer_func</text>
</a>
</g>
</g>
<!-- Node11&#45;&gt;Node13 -->
<g id="edge13" class="edge">
<title>Node11&#45;&gt;Node13</title>
<path fill="none" stroke="#191970" d="M992.028,-41.8453C1018.11,-34.8045 1050.47,-26.0688 1074.7,-19.5287"/>
<polygon fill="#191970" stroke="#191970" points="991.111,-38.4674 982.369,-44.4527 992.935,-45.2255 991.111,-38.4674"/>
</g>
<!-- Node12&#45;&gt;Node11 -->
<g id="edge12" class="edge">
<title>Node12&#45;&gt;Node11</title>
<path fill="none" stroke="#191970" d="M1033.82,-60.7372C1025.22,-60.7786 1016.53,-60.7194 1008.16,-60.5596"/>
<polygon fill="#191970" stroke="#191970" points="1033.89,-64.2368 1043.86,-60.6423 1033.83,-57.2371 1033.89,-64.2368"/>
</g>
<!-- Node14 -->
<g id="node14" class="node">
<title>Node14</title>
<g id="a_node14"><a xlink:href="user__main_8h.html#a06f2b383d99fcad9d0f37d1ca2224898" target="_top" xlink:title="mqttConnectedCb">
<polygon fill="#ffffff" stroke="#000000" points="1212,-25.5 1212,-44.5 1309,-44.5 1309,-25.5 1212,-25.5"/>
<text text-anchor="middle" x="1260.5" y="-32.5" font-family="Helvetica,sans-Serif" font-size="10.00" fill="#000000">mqttConnectedCb</text>
</a>
</g>
</g>
<!-- Node13&#45;&gt;Node14 -->
<g id="edge14" class="edge">
<title>Node13&#45;&gt;Node14</title>
<path fill="none" stroke="#191970" d="M1170.42,-20.0362C1184.2,-22.3254 1198.67,-24.7294 1211.89,-26.9245"/>
<polygon fill="#191970" stroke="#191970" points="1170.97,-16.5803 1160.53,-18.3942 1169.82,-23.4856 1170.97,-16.5803"/>
</g>
<!-- Node15 -->
<g id="node15" class="node">
<title>Node15</title>
<g id="a_node15"><a xlink:href="user__main_8c.html#a245ec00253f410a8804988bf40e1037e" target="_top" xlink:title="sample_mode_timer_func">
<polygon fill="#ffffff" stroke="#000000" points="1345,-37.5 1345,-56.5 1477,-56.5 1477,-37.5 1345,-37.5"/>
<text text-anchor="middle" x="1411" y="-44.5" font-family="Helvetica,sans-Serif" font-size="10.00" fill="#000000">sample_mode_timer_func</text>
</a>
</g>
</g>
<!-- Node14&#45;&gt;Node15 -->
<g id="edge15" class="edge">
<title>Node14&#45;&gt;Node15</title>
<path fill="none" stroke="#191970" d="M1319.39,-39.6953C1327.74,-40.3617 1336.39,-41.0507 1344.87,-41.7271"/>
<polygon fill="#191970" stroke="#191970" points="1319.61,-36.202 1309.36,-38.8961 1319.05,-43.1799 1319.61,-36.202"/>
</g>
<!-- Node16 -->
<g id="node16" class="node">
<title>Node16</title>
<g id="a_node16"><a xlink:href="user__main_8h.html#a3671381db669a16e8f6a4bf3dfb9a441" target="_top" xlink:title="system_init_done">
<polygon fill="#ffffff" stroke="#000000" points="1513,-44.5 1513,-63.5 1607,-63.5 1607,-44.5 1513,-44.5"/>
<text text-anchor="middle" x="1560" y="-51.5" font-family="Helvetica,sans-Serif" font-size="10.00" fill="#000000">system_init_done</text>
</a>
</g>
</g>
<!-- Node15&#45;&gt;Node16 -->
<g id="edge16" class="edge">
<title>Node15&#45;&gt;Node16</title>
<path fill="none" stroke="#191970" d="M1487.36,-50.5874C1496.01,-50.9937 1504.62,-51.3984 1512.74,-51.7797"/>
<polygon fill="#191970" stroke="#191970" points="1487.37,-47.0843 1477.22,-50.1111 1487.05,-54.0766 1487.37,-47.0843"/>
</g>
<!-- Node16&#45;&gt;Node5 -->
<g id="edge17" class="edge">
<title>Node16&#45;&gt;Node5</title>
<path fill="none" stroke="#191970" d="M1593.45,-67.3803C1610.47,-74.1889 1630.76,-82.3058 1646.18,-88.4713"/>
<polygon fill="#191970" stroke="#191970" points="1594.45,-64.0116 1583.87,-63.5473 1591.85,-70.511 1594.45,-64.0116"/>
</g>
</g>
</svg>
