<?xml version="1.0" encoding="UTF-8" standalone="no"?>
<!DOCTYPE svg PUBLIC "-//W3C//DTD SVG 1.1//EN"
 "http://www.w3.org/Graphics/SVG/1.1/DTD/svg11.dtd">
<!-- Generated by graphviz version 2.40.1 (20161225.0304)
 -->
<!-- Title: en61107_meter_wake_up_timer_func Pages: 1 -->
<svg width="794pt" height="280pt"
 viewBox="0.00 0.00 794.00 280.00" xmlns="http://www.w3.org/2000/svg" xmlns:xlink="http://www.w3.org/1999/xlink">
<g id="graph0" class="graph" transform="scale(1 1) rotate(0) translate(4 276)">
<title>en61107_meter_wake_up_timer_func</title>
<polygon fill="#ffffff" stroke="transparent" points="-4,4 -4,-276 790,-276 790,4 -4,4"/>
<!-- Node67 -->
<g id="node1" class="node">
<title>Node67</title>
<polygon fill="#bfbfbf" stroke="#000000" points="0,-203 0,-233 115,-233 115,-203 0,-203"/>
<text text-anchor="start" x="8" y="-221" font-family="Helvetica,sans-Serif" font-size="10.00" fill="#000000">en61107_meter_wake</text>
<text text-anchor="middle" x="57.5" y="-210" font-family="Helvetica,sans-Serif" font-size="10.00" fill="#000000">_up_timer_func</text>
</g>
<!-- Node68 -->
<g id="node2" class="node">
<title>Node68</title>
<g id="a_node2"><a xlink:href="en61107__request_8h.html#a22f1fee248eec0eeacf220c69b878a28" target="_top" xlink:title="en61107_receive_timeout\l_timer_func">
<polygon fill="#ffffff" stroke="#000000" points="151,-137 151,-167 283,-167 283,-137 151,-137"/>
<text text-anchor="start" x="159" y="-155" font-family="Helvetica,sans-Serif" font-size="10.00" fill="#000000">en61107_receive_timeout</text>
<text text-anchor="middle" x="217" y="-144" font-family="Helvetica,sans-Serif" font-size="10.00" fill="#000000">_timer_func</text>
</a>
</g>
</g>
<!-- Node67&#45;&gt;Node68 -->
<g id="edge1" class="edge">
<title>Node67&#45;&gt;Node68</title>
<path fill="none" stroke="#191970" d="M103.5416,-198.9483C128.0299,-188.8152 157.7147,-176.5318 180.5777,-167.0713"/>
<polygon fill="#191970" stroke="#191970" points="101.9944,-195.8006 94.0925,-202.8583 104.671,-202.2687 101.9944,-195.8006"/>
</g>
<!-- Node71 -->
<g id="node5" class="node">
<title>Node71</title>
<g id="a_node5"><a xlink:href="en61107__request_8h.html#a7384d014eb9e833f64ecf4a9f86f87be" target="_top" xlink:title="en61107_request_send">
<polygon fill="#ffffff" stroke="#000000" points="664,-252.5 664,-271.5 786,-271.5 786,-252.5 664,-252.5"/>
<text text-anchor="middle" x="725" y="-259.5" font-family="Helvetica,sans-Serif" font-size="10.00" fill="#000000">en61107_request_send</text>
</a>
</g>
</g>
<!-- Node67&#45;&gt;Node71 -->
<g id="edge19" class="edge">
<title>Node67&#45;&gt;Node71</title>
<path fill="none" stroke="#191970" d="M124.8783,-233.5169C177.4274,-244.7888 252.4215,-259.0644 319,-265 455.7908,-277.1952 490.6831,-267.123 628,-265 639.624,-264.8203 652.0286,-264.5195 663.9488,-264.176"/>
<polygon fill="#191970" stroke="#191970" points="125.5205,-230.0749 115.0061,-231.378 124.0382,-236.9162 125.5205,-230.0749"/>
</g>
<!-- Node69 -->
<g id="node3" class="node">
<title>Node69</title>
<g id="a_node3"><a xlink:href="en61107__request_8h.html#a353102f2f89ad4ed996501752c0ac59c" target="_top" xlink:title="en61107_uart_send_en61107\l_ident">
<polygon fill="#ffffff" stroke="#000000" points="319,-225 319,-255 469,-255 469,-225 319,-225"/>
<text text-anchor="start" x="327" y="-243" font-family="Helvetica,sans-Serif" font-size="10.00" fill="#000000">en61107_uart_send_en61107</text>
<text text-anchor="middle" x="394" y="-232" font-family="Helvetica,sans-Serif" font-size="10.00" fill="#000000">_ident</text>
</a>
</g>
</g>
<!-- Node68&#45;&gt;Node69 -->
<g id="edge2" class="edge">
<title>Node68&#45;&gt;Node69</title>
<path fill="none" stroke="#191970" d="M264.2448,-172.177C281.2385,-181.4728 300.7264,-192.2006 319,-201 336.8157,-209.5789 357.7583,-217.8084 372.9787,-224.9747"/>
<polygon fill="#191970" stroke="#191970" points="265.5392,-168.8963 255.084,-167.1813 262.1877,-175.0418 265.5392,-168.8963"/>
</g>
<!-- Node72 -->
<g id="node6" class="node">
<title>Node72</title>
<g id="a_node6"><a xlink:href="en61107__request_8h.html#a8b6b61143d95d3af3813f8be1aaf3447" target="_top" xlink:title="en61107_uart_send_en61107">
<polygon fill="#ffffff" stroke="#000000" points="319,-.5 319,-19.5 469,-19.5 469,-.5 319,-.5"/>
<text text-anchor="middle" x="394" y="-7.5" font-family="Helvetica,sans-Serif" font-size="10.00" fill="#000000">en61107_uart_send_en61107</text>
</a>
</g>
</g>
<!-- Node68&#45;&gt;Node72 -->
<g id="edge7" class="edge">
<title>Node68&#45;&gt;Node72</title>
<path fill="none" stroke="#191970" d="M230.3578,-128.1122C247.3029,-100.0541 279.1715,-54.1532 319,-29 325.1328,-25.1269 332.0153,-22.0424 339.0586,-19.5861"/>
<polygon fill="#191970" stroke="#191970" points="227.2489,-126.4942 225.1934,-136.8878 233.2817,-130.0446 227.2489,-126.4942"/>
</g>
<!-- Node75 -->
<g id="node9" class="node">
<title>Node75</title>
<g id="a_node9"><a xlink:href="en61107__request_8h.html#afdb1795bdd4212fc7e028a9e5668fab4" target="_top" xlink:title="en61107_uart_send_standard\l_data_1">
<polygon fill="#ffffff" stroke="#000000" points="319,-137 319,-167 469,-167 469,-137 319,-137"/>
<text text-anchor="start" x="327" y="-155" font-family="Helvetica,sans-Serif" font-size="10.00" fill="#000000">en61107_uart_send_standard</text>
<text text-anchor="middle" x="394" y="-144" font-family="Helvetica,sans-Serif" font-size="10.00" fill="#000000">_data_1</text>
</a>
</g>
</g>
<!-- Node68&#45;&gt;Node75 -->
<g id="edge10" class="edge">
<title>Node68&#45;&gt;Node75</title>
<path fill="none" stroke="#191970" d="M293.4108,-145.3063C301.8936,-145.2269 310.5275,-145.2315 318.9927,-145.3202"/>
<polygon fill="#191970" stroke="#191970" points="293.1117,-141.8099 283.16,-145.4449 293.2064,-148.8093 293.1117,-141.8099"/>
</g>
<!-- Node76 -->
<g id="node10" class="node">
<title>Node76</title>
<g id="a_node10"><a xlink:href="en61107__request_8h.html#a10b80328698f459ae2251fe146cdc375" target="_top" xlink:title="en61107_uart_send_standard\l_data_2">
<polygon fill="#ffffff" stroke="#000000" points="319,-88 319,-118 469,-118 469,-88 319,-88"/>
<text text-anchor="start" x="327" y="-106" font-family="Helvetica,sans-Serif" font-size="10.00" fill="#000000">en61107_uart_send_standard</text>
<text text-anchor="middle" x="394" y="-95" font-family="Helvetica,sans-Serif" font-size="10.00" fill="#000000">_data_2</text>
</a>
</g>
</g>
<!-- Node68&#45;&gt;Node76 -->
<g id="edge13" class="edge">
<title>Node68&#45;&gt;Node76</title>
<path fill="none" stroke="#191970" d="M261.4185,-133.7607C278.8346,-128.2436 299.3093,-122.3294 318.889,-117.1126"/>
<polygon fill="#191970" stroke="#191970" points="259.9842,-130.5461 251.5476,-136.955 262.1394,-137.2061 259.9842,-130.5461"/>
</g>
<!-- Node77 -->
<g id="node11" class="node">
<title>Node77</title>
<g id="a_node11"><a xlink:href="en61107__request_8h.html#a74c2d949e6bb3b65cdf794a0643dd67d" target="_top" xlink:title="en61107_uart_send_inst\l_values">
<polygon fill="#ffffff" stroke="#000000" points="330.5,-39 330.5,-69 457.5,-69 457.5,-39 330.5,-39"/>
<text text-anchor="start" x="338.5" y="-57" font-family="Helvetica,sans-Serif" font-size="10.00" fill="#000000">en61107_uart_send_inst</text>
<text text-anchor="middle" x="394" y="-46" font-family="Helvetica,sans-Serif" font-size="10.00" fill="#000000">_values</text>
</a>
</g>
</g>
<!-- Node68&#45;&gt;Node77 -->
<g id="edge16" class="edge">
<title>Node68&#45;&gt;Node77</title>
<path fill="none" stroke="#191970" d="M235.1518,-129.3589C254.6933,-110.5774 287.263,-85.0681 319,-69 322.6591,-67.1474 326.4906,-65.3995 330.4038,-63.7715"/>
<polygon fill="#191970" stroke="#191970" points="232.4239,-127.1384 227.8528,-136.6964 237.3866,-132.0751 232.4239,-127.1384"/>
</g>
<!-- Node69&#45;&gt;Node68 -->
<g id="edge3" class="edge">
<title>Node69&#45;&gt;Node68</title>
<path fill="none" stroke="#191970" d="M322.5562,-220.6885C321.359,-220.1279 320.1727,-219.5647 319,-219 286.8806,-203.5333 251.0098,-182.1091 231.5259,-167.2249"/>
<polygon fill="#191970" stroke="#191970" points="321.3555,-223.9867 331.9093,-224.9184 324.24,-217.6086 321.3555,-223.9867"/>
</g>
<!-- Node70 -->
<g id="node4" class="node">
<title>Node70</title>
<g id="a_node4"><a xlink:href="en61107__request_8h.html#a2fa4e9967afddae0c1dedbc914dcee36" target="_top" xlink:title="en61107_meter_wake\l_up_timer_func">
<polygon fill="#ffffff" stroke="#000000" points="509,-225 509,-255 624,-255 624,-225 509,-225"/>
<text text-anchor="start" x="517" y="-243" font-family="Helvetica,sans-Serif" font-size="10.00" fill="#000000">en61107_meter_wake</text>
<text text-anchor="middle" x="566.5" y="-232" font-family="Helvetica,sans-Serif" font-size="10.00" fill="#000000">_up_timer_func</text>
</a>
</g>
</g>
<!-- Node69&#45;&gt;Node70 -->
<g id="edge4" class="edge">
<title>Node69&#45;&gt;Node70</title>
<path fill="none" stroke="#191970" d="M479.2161,-240C489.2997,-240 499.4021,-240 508.972,-240"/>
<polygon fill="#191970" stroke="#191970" points="479.1592,-236.5001 469.1592,-240 479.1592,-243.5001 479.1592,-236.5001"/>
</g>
<!-- Node70&#45;&gt;Node68 -->
<g id="edge5" class="edge">
<title>Node70&#45;&gt;Node68</title>
<path fill="none" stroke="#191970" d="M498.7437,-222.9398C434.3044,-206.7147 338.3101,-182.5445 276.6841,-167.0278"/>
<polygon fill="#191970" stroke="#191970" points="498.2528,-226.4253 508.8048,-225.473 499.9621,-219.6372 498.2528,-226.4253"/>
</g>
<!-- Node70&#45;&gt;Node71 -->
<g id="edge6" class="edge">
<title>Node70&#45;&gt;Node71</title>
<path fill="none" stroke="#191970" d="M634.3048,-249.4114C644.1381,-250.7763 654.2115,-252.1745 663.9022,-253.5195"/>
<polygon fill="#191970" stroke="#191970" points="634.5568,-245.9129 624.1705,-248.0047 633.5943,-252.8464 634.5568,-245.9129"/>
</g>
<!-- Node73 -->
<g id="node7" class="node">
<title>Node73</title>
<g id="a_node7"><a xlink:href="en61107__request_8c.html#aa3b162cf5364986ea19e831ac2b18f76" target="_top" xlink:title="en61107_received_task">
<polygon fill="#ffffff" stroke="#000000" points="505,-69.5 505,-88.5 628,-88.5 628,-69.5 505,-69.5"/>
<text text-anchor="middle" x="566.5" y="-76.5" font-family="Helvetica,sans-Serif" font-size="10.00" fill="#000000">en61107_received_task</text>
</a>
</g>
</g>
<!-- Node72&#45;&gt;Node73 -->
<g id="edge8" class="edge">
<title>Node72&#45;&gt;Node73</title>
<path fill="none" stroke="#191970" d="M448.6319,-22.298C455.5623,-24.3073 462.4988,-26.5456 469,-29 498.8991,-40.2876 531.5454,-58.2935 550.4567,-69.3387"/>
<polygon fill="#191970" stroke="#191970" points="449.1041,-18.7979 438.5339,-19.5194 447.2469,-25.547 449.1041,-18.7979"/>
</g>
<!-- Node74 -->
<g id="node8" class="node">
<title>Node74</title>
<g id="a_node8"><a xlink:href="en61107__request_8h.html#acd43242675a3f25e7c3b530eac9d8b3a" target="_top" xlink:title="en61107_request_init">
<polygon fill="#ffffff" stroke="#000000" points="668.5,-69.5 668.5,-88.5 781.5,-88.5 781.5,-69.5 668.5,-69.5"/>
<text text-anchor="middle" x="725" y="-76.5" font-family="Helvetica,sans-Serif" font-size="10.00" fill="#000000">en61107_request_init</text>
</a>
</g>
</g>
<!-- Node73&#45;&gt;Node74 -->
<g id="edge9" class="edge">
<title>Node73&#45;&gt;Node74</title>
<path fill="none" stroke="#191970" d="M638.2469,-79C648.3388,-79 658.5944,-79 668.3513,-79"/>
<polygon fill="#191970" stroke="#191970" points="638.2341,-75.5001 628.2341,-79 638.2341,-82.5001 638.2341,-75.5001"/>
</g>
<!-- Node75&#45;&gt;Node68 -->
<g id="edge11" class="edge">
<title>Node75&#45;&gt;Node68</title>
<path fill="none" stroke="#191970" d="M308.8867,-158.7456C300.2441,-158.768 291.5585,-158.7045 283.16,-158.5551"/>
<polygon fill="#191970" stroke="#191970" points="309.0157,-162.2449 318.9927,-158.6798 308.9701,-155.2451 309.0157,-162.2449"/>
</g>
<!-- Node75&#45;&gt;Node73 -->
<g id="edge12" class="edge">
<title>Node75&#45;&gt;Node73</title>
<path fill="none" stroke="#191970" d="M454.4025,-133.5825C459.3756,-131.7906 464.2953,-129.9212 469,-128 498.1139,-116.1108 530.4666,-99.0373 549.6163,-88.502"/>
<polygon fill="#191970" stroke="#191970" points="453.105,-130.3282 444.8156,-136.9266 455.4105,-136.9377 453.105,-130.3282"/>
</g>
<!-- Node76&#45;&gt;Node68 -->
<g id="edge14" class="edge">
<title>Node76&#45;&gt;Node68</title>
<path fill="none" stroke="#191970" d="M349.8891,-121.1417C329.7353,-127.534 305.4373,-134.4689 283.16,-140.2396"/>
<polygon fill="#191970" stroke="#191970" points="350.9873,-124.4651 359.4228,-118.0548 348.8309,-117.8055 350.9873,-124.4651"/>
</g>
<!-- Node76&#45;&gt;Node73 -->
<g id="edge15" class="edge">
<title>Node76&#45;&gt;Node73</title>
<path fill="none" stroke="#191970" d="M479.2418,-91.1403C487.8535,-89.9421 496.4785,-88.7421 504.7735,-87.588"/>
<polygon fill="#191970" stroke="#191970" points="478.5815,-87.6983 469.1592,-92.5431 479.5461,-94.6316 478.5815,-87.6983"/>
</g>
<!-- Node77&#45;&gt;Node68 -->
<g id="edge17" class="edge">
<title>Node77&#45;&gt;Node68</title>
<path fill="none" stroke="#191970" d="M355.2865,-72.3871C343.3343,-76.5225 330.3395,-81.2589 319,-87 291.2834,-101.0326 262.9318,-122.266 243.1773,-136.8582"/>
<polygon fill="#191970" stroke="#191970" points="356.6997,-75.6025 365.022,-69.0458 354.4274,-68.9816 356.6997,-75.6025"/>
</g>
<!-- Node77&#45;&gt;Node73 -->
<g id="edge18" class="edge">
<title>Node77&#45;&gt;Node73</title>
<path fill="none" stroke="#191970" d="M467.9444,-64.7166C480.211,-66.4943 492.8166,-68.3212 504.7412,-70.0494"/>
<polygon fill="#191970" stroke="#191970" points="468.1412,-61.2086 457.7425,-63.238 467.1371,-68.1362 468.1412,-61.2086"/>
</g>
</g>
</svg>
