<?xml version="1.0" encoding="UTF-8" standalone="no"?>
<!DOCTYPE svg PUBLIC "-//W3C//DTD SVG 1.1//EN"
 "http://www.w3.org/Graphics/SVG/1.1/DTD/svg11.dtd">
<!-- Generated by graphviz version 2.40.1 (20161225.0304)
 -->
<!-- Title: en61107_uart_send_inst_values Pages: 1 -->
<svg width="1075pt" height="543pt"
 viewBox="0.00 0.00 1075.00 542.76" xmlns="http://www.w3.org/2000/svg" xmlns:xlink="http://www.w3.org/1999/xlink">
<g id="graph0" class="graph" transform="scale(1 1) rotate(0) translate(4 538.7599)">
<title>en61107_uart_send_inst_values</title>
<polygon fill="#ffffff" stroke="transparent" points="-4,4 -4,-538.7599 1071,-538.7599 1071,4 -4,4"/>
<!-- Node374 -->
<g id="node1" class="node">
<title>Node374</title>
<polygon fill="#bfbfbf" stroke="#000000" points="0,-324.5 0,-354.5 127,-354.5 127,-324.5 0,-324.5"/>
<text text-anchor="start" x="8" y="-342.5" font-family="Helvetica,sans-Serif" font-size="10.00" fill="#000000">en61107_uart_send_inst</text>
<text text-anchor="middle" x="63.5" y="-331.5" font-family="Helvetica,sans-Serif" font-size="10.00" fill="#000000">_values</text>
</g>
<!-- Node375 -->
<g id="node2" class="node">
<title>Node375</title>
<g id="a_node2"><a xlink:href="en61107__request_8c.html#a8376fb3e6dfde4cc59e5fa0574a6e499" target="_top" xlink:title="en61107_delayed_uart\l_change_setting_timer_func">
<polygon fill="#ffffff" stroke="#000000" points="668,-273.5 668,-303.5 810,-303.5 810,-273.5 668,-273.5"/>
<text text-anchor="start" x="676" y="-291.5" font-family="Helvetica,sans-Serif" font-size="10.00" fill="#000000">en61107_delayed_uart</text>
<text text-anchor="middle" x="739" y="-280.5" font-family="Helvetica,sans-Serif" font-size="10.00" fill="#000000">_change_setting_timer_func</text>
</a>
</g>
</g>
<!-- Node374&#45;&gt;Node375 -->
<g id="edge1" class="edge">
<title>Node374&#45;&gt;Node375</title>
<path fill="none" stroke="#191970" d="M115.006,-354.5626C216.8796,-381.7122 450.0009,-430.6188 632,-369.5 650.0365,-363.443 688.6106,-332.1455 714.1757,-310.279"/>
<polygon fill="#191970" stroke="#191970" points="716.6872,-312.735 721.9764,-303.5548 712.1168,-307.4329 716.6872,-312.735"/>
</g>
<!-- Node376 -->
<g id="node3" class="node">
<title>Node376</title>
<g id="a_node3"><a xlink:href="uart_8c.html#a8f941077d51144c4c172f827b4f2072a" target="_top" xlink:title="uart_set_baudrate">
<polygon fill="#ffffff" stroke="#000000" points="846,-323 846,-342 944,-342 944,-323 846,-323"/>
<text text-anchor="middle" x="895" y="-330" font-family="Helvetica,sans-Serif" font-size="10.00" fill="#000000">uart_set_baudrate</text>
</a>
</g>
</g>
<!-- Node374&#45;&gt;Node376 -->
<g id="edge41" class="edge">
<title>Node374&#45;&gt;Node376</title>
<path fill="none" stroke="#191970" d="M67.9301,-354.5275C78.4087,-387.1223 108.0563,-464.1424 163,-498.5 248.4559,-551.9375 287.7117,-522.5 388.5,-522.5 388.5,-522.5 388.5,-522.5 557,-522.5 669.9492,-522.5 716.5289,-561.9089 810,-498.5 861.2567,-463.7285 883.3729,-388.2309 891.2781,-352.2886"/>
<polygon fill="#191970" stroke="#191970" points="894.785,-352.6098 893.3643,-342.1107 887.9275,-351.2042 894.785,-352.6098"/>
</g>
<!-- Node378 -->
<g id="node5" class="node">
<title>Node378</title>
<g id="a_node5"><a xlink:href="uart_8c.html#a4db93f371dcd92498db4a4c7b82f3380" target="_top" xlink:title="uart_set_stop_bits">
<polygon fill="#ffffff" stroke="#000000" points="846,-279 846,-298 944,-298 944,-279 846,-279"/>
<text text-anchor="middle" x="895" y="-286" font-family="Helvetica,sans-Serif" font-size="10.00" fill="#000000">uart_set_stop_bits</text>
</a>
</g>
</g>
<!-- Node374&#45;&gt;Node378 -->
<g id="edge43" class="edge">
<title>Node374&#45;&gt;Node378</title>
<path fill="none" stroke="#191970" d="M74.8535,-354.6505C91.665,-375.9452 125.2836,-414.3713 163,-434.5 253.5658,-482.8338 285.8437,-484.5 388.5,-484.5 388.5,-484.5 388.5,-484.5 557,-484.5 673.9092,-484.5 724.4302,-492.159 810,-412.5 844.2683,-380.5988 814.9915,-348.5781 846,-313.5 849.546,-309.4886 853.8889,-306.0351 858.5096,-303.0877"/>
<polygon fill="#191970" stroke="#191970" points="860.5642,-305.9499 867.6011,-298.0295 857.1609,-299.8328 860.5642,-305.9499"/>
</g>
<!-- Node379 -->
<g id="node6" class="node">
<title>Node379</title>
<g id="a_node6"><a xlink:href="en61107__request_8c.html#a22f1fee248eec0eeacf220c69b878a28" target="_top" xlink:title="en61107_receive_timeout\l_timer_func">
<polygon fill="#ffffff" stroke="#000000" points="163,-273.5 163,-303.5 295,-303.5 295,-273.5 163,-273.5"/>
<text text-anchor="start" x="171" y="-291.5" font-family="Helvetica,sans-Serif" font-size="10.00" fill="#000000">en61107_receive_timeout</text>
<text text-anchor="middle" x="229" y="-280.5" font-family="Helvetica,sans-Serif" font-size="10.00" fill="#000000">_timer_func</text>
</a>
</g>
</g>
<!-- Node374&#45;&gt;Node379 -->
<g id="edge5" class="edge">
<title>Node374&#45;&gt;Node379</title>
<path fill="none" stroke="#191970" d="M94.6293,-324.4958C111.2002,-318.3883 132.3694,-311.4253 152.9783,-305.1965"/>
<polygon fill="#191970" stroke="#191970" points="154.1225,-308.5077 162.7073,-302.2987 152.1242,-301.799 154.1225,-308.5077"/>
</g>
<!-- Node382 -->
<g id="node9" class="node">
<title>Node382</title>
<g id="a_node9"><a xlink:href="uart_8c.html#a87f1c1c2a25d4336eb804da28ed99f7e" target="_top" xlink:title="uart0_tx_buffer">
<polygon fill="#ffffff" stroke="#000000" points="697,-197 697,-216 781,-216 781,-197 697,-197"/>
<text text-anchor="middle" x="739" y="-204" font-family="Helvetica,sans-Serif" font-size="10.00" fill="#000000">uart0_tx_buffer</text>
</a>
</g>
</g>
<!-- Node374&#45;&gt;Node382 -->
<g id="edge40" class="edge">
<title>Node374&#45;&gt;Node382</title>
<path fill="none" stroke="#191970" d="M77.9273,-324.4065C115.3185,-286.5569 220.1997,-188.2952 331,-155.5 459.7918,-117.3796 499.9132,-158.1365 632,-182.5 651.0351,-186.011 671.8278,-190.5188 689.9796,-194.6778"/>
<polygon fill="#191970" stroke="#191970" points="689.2324,-198.0973 699.7643,-196.9439 690.8118,-191.2778 689.2324,-198.0973"/>
</g>
<!-- Node384 -->
<g id="node11" class="node">
<title>Node384</title>
<g id="a_node11"><a xlink:href="uart_8c.html#a67bf1971cc8eb81c79700658c287c7a4" target="_top" xlink:title="uart_set_parity">
<polygon fill="#ffffff" stroke="#000000" points="697.5,-361 697.5,-380 780.5,-380 780.5,-361 697.5,-361"/>
<text text-anchor="middle" x="739" y="-368" font-family="Helvetica,sans-Serif" font-size="10.00" fill="#000000">uart_set_parity</text>
</a>
</g>
</g>
<!-- Node374&#45;&gt;Node384 -->
<g id="edge42" class="edge">
<title>Node374&#45;&gt;Node384</title>
<path fill="none" stroke="#191970" d="M79.5308,-354.5533C97.9984,-370.7646 130.0546,-395.5667 163,-405.5 362.5705,-465.6721 426.1541,-438.311 632,-405.5 657.9934,-401.3568 686.2498,-391.8868 707.1949,-383.8411"/>
<polygon fill="#191970" stroke="#191970" points="708.5368,-387.0743 716.5579,-380.1524 705.971,-380.5614 708.5368,-387.0743"/>
</g>
<!-- Node385 -->
<g id="node12" class="node">
<title>Node385</title>
<g id="a_node12"><a xlink:href="uart_8c.html#a6727906afe0321e8ee406028ad41f5e7" target="_top" xlink:title="uart_set_word_length">
<polygon fill="#ffffff" stroke="#000000" points="682.5,-159 682.5,-178 795.5,-178 795.5,-159 682.5,-159"/>
<text text-anchor="middle" x="739" y="-166" font-family="Helvetica,sans-Serif" font-size="10.00" fill="#000000">uart_set_word_length</text>
</a>
</g>
</g>
<!-- Node374&#45;&gt;Node385 -->
<g id="edge44" class="edge">
<title>Node374&#45;&gt;Node385</title>
<path fill="none" stroke="#191970" d="M67.3448,-324.3295C76.9613,-289.7328 105.5166,-204.8794 163,-164.5 333.3178,-44.8597 607.4316,-122.4044 703.9825,-155.585"/>
<polygon fill="#191970" stroke="#191970" points="702.9586,-158.9347 713.5534,-158.9303 705.2683,-152.3267 702.9586,-158.9347"/>
</g>
<!-- Node375&#45;&gt;Node376 -->
<g id="edge2" class="edge">
<title>Node375&#45;&gt;Node376</title>
<path fill="none" stroke="#191970" d="M792.25,-303.5192C811.4644,-308.9387 832.9141,-314.9886 851.225,-320.1532"/>
<polygon fill="#191970" stroke="#191970" points="850.466,-323.5756 861.0406,-322.9217 852.3663,-316.8385 850.466,-323.5756"/>
</g>
<!-- Node375&#45;&gt;Node378 -->
<g id="edge4" class="edge">
<title>Node375&#45;&gt;Node378</title>
<path fill="none" stroke="#191970" d="M810.1524,-288.5C818.7218,-288.5 827.4024,-288.5 835.776,-288.5"/>
<polygon fill="#191970" stroke="#191970" points="835.8096,-292.0001 845.8096,-288.5 835.8096,-285.0001 835.8096,-292.0001"/>
</g>
<!-- Node377 -->
<g id="node4" class="node">
<title>Node377</title>
<g id="a_node4"><a xlink:href="espmissingincludes_8h.html#a1bea1725066e012f8f618d08ed7fee45" target="_top" xlink:title="uart_div_modify">
<polygon fill="#ffffff" stroke="#000000" points="980,-323 980,-342 1067,-342 1067,-323 980,-323"/>
<text text-anchor="middle" x="1023.5" y="-330" font-family="Helvetica,sans-Serif" font-size="10.00" fill="#000000">uart_div_modify</text>
</a>
</g>
</g>
<!-- Node376&#45;&gt;Node377 -->
<g id="edge3" class="edge">
<title>Node376&#45;&gt;Node377</title>
<path fill="none" stroke="#191970" d="M944.314,-332.5C952.6667,-332.5 961.376,-332.5 969.8337,-332.5"/>
<polygon fill="#191970" stroke="#191970" points="969.9846,-336.0001 979.9846,-332.5 969.9845,-329.0001 969.9846,-336.0001"/>
</g>
<!-- Node379&#45;&gt;Node374 -->
<g id="edge17" class="edge">
<title>Node379&#45;&gt;Node374</title>
<path fill="none" stroke="#191970" d="M197.7856,-303.5355C180.49,-309.9072 158.2042,-317.206 136.7769,-323.6297"/>
<polygon fill="#191970" stroke="#191970" points="135.6125,-320.3241 127.0133,-326.5131 137.5952,-327.0375 135.6125,-320.3241"/>
</g>
<!-- Node380 -->
<g id="node7" class="node">
<title>Node380</title>
<g id="a_node7"><a xlink:href="en61107__request_8c.html#a2fa4e9967afddae0c1dedbc914dcee36" target="_top" xlink:title="en61107_meter_wake\l_up_timer_func">
<polygon fill="#ffffff" stroke="#000000" points="331,-164.5 331,-194.5 446,-194.5 446,-164.5 331,-164.5"/>
<text text-anchor="start" x="339" y="-182.5" font-family="Helvetica,sans-Serif" font-size="10.00" fill="#000000">en61107_meter_wake</text>
<text text-anchor="middle" x="388.5" y="-171.5" font-family="Helvetica,sans-Serif" font-size="10.00" fill="#000000">_up_timer_func</text>
</a>
</g>
</g>
<!-- Node379&#45;&gt;Node380 -->
<g id="edge6" class="edge">
<title>Node379&#45;&gt;Node380</title>
<path fill="none" stroke="#191970" d="M246.7075,-273.2093C266.5058,-256.4956 299.8843,-229.4418 331,-209.5 336.4124,-206.0312 342.2706,-202.6175 348.1066,-199.4069"/>
<polygon fill="#191970" stroke="#191970" points="350.0231,-202.3511 357.1918,-194.5499 346.7228,-196.1779 350.0231,-202.3511"/>
</g>
<!-- Node381 -->
<g id="node8" class="node">
<title>Node381</title>
<g id="a_node8"><a xlink:href="en61107__request_8c.html#a353102f2f89ad4ed996501752c0ac59c" target="_top" xlink:title="en61107_uart_send_en61107\l_ident">
<polygon fill="#ffffff" stroke="#000000" points="482,-191.5 482,-221.5 632,-221.5 632,-191.5 482,-191.5"/>
<text text-anchor="start" x="490" y="-209.5" font-family="Helvetica,sans-Serif" font-size="10.00" fill="#000000">en61107_uart_send_en61107</text>
<text text-anchor="middle" x="557" y="-198.5" font-family="Helvetica,sans-Serif" font-size="10.00" fill="#000000">_ident</text>
</a>
</g>
</g>
<!-- Node379&#45;&gt;Node381 -->
<g id="edge16" class="edge">
<title>Node379&#45;&gt;Node381</title>
<path fill="none" stroke="#191970" d="M270.5414,-273.4415C320.961,-258.6197 407.2576,-236.6035 471.9872,-221.7537"/>
<polygon fill="#191970" stroke="#191970" points="472.8036,-225.1575 481.7775,-219.5254 471.2501,-218.332 472.8036,-225.1575"/>
</g>
<!-- Node386 -->
<g id="node13" class="node">
<title>Node386</title>
<g id="a_node13"><a xlink:href="en61107__request_8c.html#afdb1795bdd4212fc7e028a9e5668fab4" target="_top" xlink:title="en61107_uart_send_standard\l_data_1">
<polygon fill="#ffffff" stroke="#000000" points="482,-273.5 482,-303.5 632,-303.5 632,-273.5 482,-273.5"/>
<text text-anchor="start" x="490" y="-291.5" font-family="Helvetica,sans-Serif" font-size="10.00" fill="#000000">en61107_uart_send_standard</text>
<text text-anchor="middle" x="557" y="-280.5" font-family="Helvetica,sans-Serif" font-size="10.00" fill="#000000">_data_1</text>
</a>
</g>
</g>
<!-- Node379&#45;&gt;Node386 -->
<g id="edge18" class="edge">
<title>Node379&#45;&gt;Node386</title>
<path fill="none" stroke="#191970" d="M295.3757,-282.9514C346.2164,-281.5195 416.7371,-281.3676 471.753,-282.4957"/>
<polygon fill="#191970" stroke="#191970" points="471.7612,-285.9966 481.837,-282.7212 471.9177,-278.9984 471.7612,-285.9966"/>
</g>
<!-- Node387 -->
<g id="node14" class="node">
<title>Node387</title>
<g id="a_node14"><a xlink:href="en61107__request_8c.html#a10b80328698f459ae2251fe146cdc375" target="_top" xlink:title="en61107_uart_send_standard\l_data_2">
<polygon fill="#ffffff" stroke="#000000" points="482,-329.5 482,-359.5 632,-359.5 632,-329.5 482,-329.5"/>
<text text-anchor="start" x="490" y="-347.5" font-family="Helvetica,sans-Serif" font-size="10.00" fill="#000000">en61107_uart_send_standard</text>
<text text-anchor="middle" x="557" y="-336.5" font-family="Helvetica,sans-Serif" font-size="10.00" fill="#000000">_data_2</text>
</a>
</g>
</g>
<!-- Node379&#45;&gt;Node387 -->
<g id="edge26" class="edge">
<title>Node379&#45;&gt;Node387</title>
<path fill="none" stroke="#191970" d="M295.2377,-295.3586C307.1125,-297.8064 319.3984,-300.3482 331,-302.5 382.8318,-312.1133 441.7794,-320.6417 486.4735,-327.8798"/>
<polygon fill="#191970" stroke="#191970" points="485.9259,-331.3367 496.3603,-329.4999 487.0579,-324.4289 485.9259,-331.3367"/>
</g>
<!-- Node388 -->
<g id="node15" class="node">
<title>Node388</title>
<g id="a_node15"><a xlink:href="led_8c.html#af6d361c98a60a68683d2436f7ef9159a" target="_top" xlink:title="led_blink">
<polygon fill="#ffffff" stroke="#000000" points="360.5,-50 360.5,-69 416.5,-69 416.5,-50 360.5,-50"/>
<text text-anchor="middle" x="388.5" y="-57" font-family="Helvetica,sans-Serif" font-size="10.00" fill="#000000">led_blink</text>
</a>
</g>
</g>
<!-- Node379&#45;&gt;Node388 -->
<g id="edge34" class="edge">
<title>Node379&#45;&gt;Node388</title>
<path fill="none" stroke="#191970" d="M239.4652,-273.4747C267.6759,-232.9716 345.2277,-121.6276 375.8365,-77.6815"/>
<polygon fill="#191970" stroke="#191970" points="378.7775,-79.5827 381.6209,-69.3766 373.0335,-75.582 378.7775,-79.5827"/>
</g>
<!-- Node380&#45;&gt;Node381 -->
<g id="edge7" class="edge">
<title>Node380&#45;&gt;Node381</title>
<path fill="none" stroke="#191970" d="M446.0169,-188.7164C454.3984,-190.0594 463.1738,-191.4655 471.9606,-192.8735"/>
<polygon fill="#191970" stroke="#191970" points="471.4379,-196.3343 481.8657,-194.4607 472.5455,-189.4225 471.4379,-196.3343"/>
</g>
<!-- Node381&#45;&gt;Node375 -->
<g id="edge8" class="edge">
<title>Node381&#45;&gt;Node375</title>
<path fill="none" stroke="#191970" d="M590.3816,-221.5401C620.1765,-234.9641 663.9708,-254.6956 696.3061,-269.2643"/>
<polygon fill="#191970" stroke="#191970" points="694.9672,-272.4999 705.5223,-273.4167 697.8428,-266.1177 694.9672,-272.4999"/>
</g>
<!-- Node381&#45;&gt;Node376 -->
<g id="edge12" class="edge">
<title>Node381&#45;&gt;Node376</title>
<path fill="none" stroke="#191970" d="M577.9176,-191.4489C624.7843,-159.7209 739.6073,-93.3421 810,-149.5 866.3006,-194.4155 801.7556,-250.6705 846,-307.5 849.0654,-311.4374 852.9208,-314.8089 857.1158,-317.6816"/>
<polygon fill="#191970" stroke="#191970" points="855.6585,-320.8834 866.0598,-322.8991 859.1856,-314.837 855.6585,-320.8834"/>
</g>
<!-- Node381&#45;&gt;Node378 -->
<g id="edge14" class="edge">
<title>Node381&#45;&gt;Node378</title>
<path fill="none" stroke="#191970" d="M569.4113,-191.3582C588.1319,-169.8533 625.9092,-131.4198 668,-116.5 727.4846,-95.4146 758.8525,-79.5278 810,-116.5 851.347,-146.3879 821.9886,-180.4854 846,-225.5 855.0076,-242.3868 868.5598,-259.3913 879.1301,-271.4704"/>
<polygon fill="#191970" stroke="#191970" points="876.593,-273.8835 885.8792,-278.9841 881.8006,-269.2058 876.593,-273.8835"/>
</g>
<!-- Node381&#45;&gt;Node379 -->
<g id="edge9" class="edge">
<title>Node381&#45;&gt;Node379</title>
<path fill="none" stroke="#191970" d="M515.6248,-221.5097C462.9219,-237.0104 370.8266,-260.4139 305.2553,-275.2413"/>
<polygon fill="#191970" stroke="#191970" points="304.3686,-271.8531 295.3757,-277.4547 305.899,-278.6838 304.3686,-271.8531"/>
</g>
<!-- Node381&#45;&gt;Node382 -->
<g id="edge10" class="edge">
<title>Node381&#45;&gt;Node382</title>
<path fill="none" stroke="#191970" d="M632.0771,-206.5C650.4031,-206.5 669.6182,-206.5 686.6239,-206.5"/>
<polygon fill="#191970" stroke="#191970" points="686.899,-210.0001 696.899,-206.5 686.899,-203.0001 686.899,-210.0001"/>
</g>
<!-- Node381&#45;&gt;Node384 -->
<g id="edge13" class="edge">
<title>Node381&#45;&gt;Node384</title>
<path fill="none" stroke="#191970" d="M579.6657,-221.509C595.2842,-232.4317 616.0222,-248.1237 632,-264.5 650.8717,-283.8424 649.305,-293.9867 668,-313.5 682.8518,-329.0018 701.9282,-344.0982 716.5667,-354.8564"/>
<polygon fill="#191970" stroke="#191970" points="714.872,-357.9494 725.0303,-360.9592 718.9661,-352.2715 714.872,-357.9494"/>
</g>
<!-- Node381&#45;&gt;Node385 -->
<g id="edge15" class="edge">
<title>Node381&#45;&gt;Node385</title>
<path fill="none" stroke="#191970" d="M628.9312,-191.4814C647.121,-187.6835 666.3751,-183.6634 683.6068,-180.0656"/>
<polygon fill="#191970" stroke="#191970" points="684.422,-183.471 693.4956,-178.0009 682.9913,-176.6187 684.422,-183.471"/>
</g>
<!-- Node383 -->
<g id="node10" class="node">
<title>Node383</title>
<g id="a_node10"><a xlink:href="uart_8c.html#a40bca7ca9b269f93bc9f17924a38fbe0" target="_top" xlink:title="uart_tx_one_char">
<polygon fill="#ffffff" stroke="#000000" points="848,-197 848,-216 942,-216 942,-197 848,-197"/>
<text text-anchor="middle" x="895" y="-204" font-family="Helvetica,sans-Serif" font-size="10.00" fill="#000000">uart_tx_one_char</text>
</a>
</g>
</g>
<!-- Node382&#45;&gt;Node383 -->
<g id="edge11" class="edge">
<title>Node382&#45;&gt;Node383</title>
<path fill="none" stroke="#191970" d="M781.2158,-206.5C798.5747,-206.5 818.9525,-206.5 837.6299,-206.5"/>
<polygon fill="#191970" stroke="#191970" points="837.8013,-210.0001 847.8013,-206.5 837.8013,-203.0001 837.8013,-210.0001"/>
</g>
<!-- Node386&#45;&gt;Node375 -->
<g id="edge25" class="edge">
<title>Node386&#45;&gt;Node375</title>
<path fill="none" stroke="#191970" d="M632.0771,-288.5C640.5929,-288.5 649.3007,-288.5 657.8896,-288.5"/>
<polygon fill="#191970" stroke="#191970" points="657.899,-292.0001 667.899,-288.5 657.8989,-285.0001 657.899,-292.0001"/>
</g>
<!-- Node386&#45;&gt;Node376 -->
<g id="edge19" class="edge">
<title>Node386&#45;&gt;Node376</title>
<path fill="none" stroke="#191970" d="M616.6228,-303.5171C633.1728,-307.2508 651.2091,-310.9191 668,-313.5 724.5088,-322.186 789.5855,-327.1209 835.5326,-329.7714"/>
<polygon fill="#191970" stroke="#191970" points="835.4378,-333.2714 845.6174,-330.3342 835.8279,-326.2823 835.4378,-333.2714"/>
</g>
<!-- Node386&#45;&gt;Node378 -->
<g id="edge22" class="edge">
<title>Node386&#45;&gt;Node378</title>
<path fill="none" stroke="#191970" d="M615.3794,-273.4402C632.2406,-269.7559 650.748,-266.3438 668,-264.5 730.7537,-257.7933 747.4854,-255.8436 810,-264.5 826.1668,-266.7386 843.5838,-271.2645 858.4167,-275.7887"/>
<polygon fill="#191970" stroke="#191970" points="857.6357,-279.2126 868.2257,-278.8925 859.7475,-272.5387 857.6357,-279.2126"/>
</g>
<!-- Node386&#45;&gt;Node379 -->
<g id="edge23" class="edge">
<title>Node386&#45;&gt;Node379</title>
<path fill="none" stroke="#191970" d="M481.837,-294.2788C428.9973,-295.5636 358.5362,-295.5737 305.4201,-294.309"/>
<polygon fill="#191970" stroke="#191970" points="305.4631,-290.8091 295.3757,-294.0486 305.2816,-297.8067 305.4631,-290.8091"/>
</g>
<!-- Node386&#45;&gt;Node382 -->
<g id="edge24" class="edge">
<title>Node386&#45;&gt;Node382</title>
<path fill="none" stroke="#191970" d="M582.906,-273.4931C605.0538,-261.0234 638.0077,-243.3128 668,-230.5 677.4228,-226.4745 687.767,-222.6546 697.574,-219.2947"/>
<polygon fill="#191970" stroke="#191970" points="698.7715,-222.5848 707.148,-216.0975 696.5542,-215.9453 698.7715,-222.5848"/>
</g>
<!-- Node386&#45;&gt;Node384 -->
<g id="edge21" class="edge">
<title>Node386&#45;&gt;Node384</title>
<path fill="none" stroke="#191970" d="M596.7169,-303.5085C608.3452,-308.4155 620.9079,-314.2315 632,-320.5 649.1826,-330.2103 650.455,-337.461 668,-346.5 676.2395,-350.7449 685.391,-354.4858 694.3089,-357.6743"/>
<polygon fill="#191970" stroke="#191970" points="693.2456,-361.0095 703.84,-360.9153 695.4992,-354.3822 693.2456,-361.0095"/>
</g>
<!-- Node386&#45;&gt;Node385 -->
<g id="edge20" class="edge">
<title>Node386&#45;&gt;Node385</title>
<path fill="none" stroke="#191970" d="M579.7617,-273.3211C595.2324,-262.5095 615.7576,-247.1702 632,-231.5 650.1839,-213.9567 646.7725,-201.2044 668,-187.5 671.1892,-185.441 674.5961,-183.604 678.1269,-181.9652"/>
<polygon fill="#191970" stroke="#191970" points="679.753,-185.0823 687.6984,-178.0736 677.1165,-178.5978 679.753,-185.0823"/>
</g>
<!-- Node387&#45;&gt;Node375 -->
<g id="edge33" class="edge">
<title>Node387&#45;&gt;Node375</title>
<path fill="none" stroke="#191970" d="M605.7727,-329.493C628.7235,-322.4312 656.2789,-313.9527 680.3588,-306.5435"/>
<polygon fill="#191970" stroke="#191970" points="681.5642,-309.8346 690.0927,-303.5484 679.5056,-303.1441 681.5642,-309.8346"/>
</g>
<!-- Node387&#45;&gt;Node376 -->
<g id="edge27" class="edge">
<title>Node387&#45;&gt;Node376</title>
<path fill="none" stroke="#191970" d="M571.8427,-359.5784C591.6883,-378.5502 628.925,-410.1438 668,-422.5 728.1742,-441.5282 752.0438,-447.4818 810,-422.5 843.6971,-407.975 870.2547,-372.7926 884.2075,-350.9676"/>
<polygon fill="#191970" stroke="#191970" points="887.3011,-352.6184 889.556,-342.2662 881.3376,-348.9527 887.3011,-352.6184"/>
</g>
<!-- Node387&#45;&gt;Node378 -->
<g id="edge30" class="edge">
<title>Node387&#45;&gt;Node378</title>
<path fill="none" stroke="#191970" d="M582.2061,-359.7C630.3906,-386.5852 737.242,-435.5436 810,-389.5 841.5828,-369.5134 819.9628,-340.3142 846,-313.5 849.9502,-309.4319 854.7039,-305.906 859.6759,-302.8897"/>
<polygon fill="#191970" stroke="#191970" points="861.595,-305.8313 868.7348,-298.0035 858.2719,-299.6703 861.595,-305.8313"/>
</g>
<!-- Node387&#45;&gt;Node379 -->
<g id="edge31" class="edge">
<title>Node387&#45;&gt;Node379</title>
<path fill="none" stroke="#191970" d="M481.9431,-342.873C437.8452,-338.0701 381.0987,-329.7918 331,-320.5 310.424,-316.6837 287.6953,-311.6405 268.9252,-306.4273"/>
<polygon fill="#191970" stroke="#191970" points="269.8036,-303.0378 259.224,-303.6062 267.8489,-309.7594 269.8036,-303.0378"/>
</g>
<!-- Node387&#45;&gt;Node382 -->
<g id="edge32" class="edge">
<title>Node387&#45;&gt;Node382</title>
<path fill="none" stroke="#191970" d="M604.7706,-329.3484C614.3261,-325.0892 623.9036,-319.843 632,-313.5 653.2727,-296.8343 649.3881,-284.0926 668,-264.5 682.9787,-248.732 702.1949,-233.2727 716.8577,-222.2848"/>
<polygon fill="#191970" stroke="#191970" points="719.3399,-224.8038 725.3204,-216.0582 715.1914,-219.1655 719.3399,-224.8038"/>
</g>
<!-- Node387&#45;&gt;Node384 -->
<g id="edge29" class="edge">
<title>Node387&#45;&gt;Node384</title>
<path fill="none" stroke="#191970" d="M632.0771,-355.2253C650.5653,-357.8665 669.9584,-360.6369 687.0748,-363.0821"/>
<polygon fill="#191970" stroke="#191970" points="687.015,-366.609 697.4095,-364.5585 688.005,-359.6794 687.015,-366.609"/>
</g>
<!-- Node387&#45;&gt;Node385 -->
<g id="edge28" class="edge">
<title>Node387&#45;&gt;Node385</title>
<path fill="none" stroke="#191970" d="M610.9134,-329.303C618.7859,-325.1966 626.184,-320.0177 632,-313.5 670.7772,-270.0451 626.4726,-228.3347 668,-187.5 669.6633,-185.8645 671.4511,-184.3656 673.3371,-182.9923"/>
<polygon fill="#191970" stroke="#191970" points="675.3542,-185.8648 682.1543,-177.7402 671.7719,-179.8508 675.3542,-185.8648"/>
</g>
<!-- Node389 -->
<g id="node16" class="node">
<title>Node389</title>
<g id="a_node16"><a xlink:href="led_8c.html#a0a23edee5e1db0cd2928c18a42ffe96f" target="_top" xlink:title="led_on">
<polygon fill="#ffffff" stroke="#000000" points="533.5,-50 533.5,-69 580.5,-69 580.5,-50 533.5,-50"/>
<text text-anchor="middle" x="557" y="-57" font-family="Helvetica,sans-Serif" font-size="10.00" fill="#000000">led_on</text>
</a>
</g>
</g>
<!-- Node388&#45;&gt;Node389 -->
<g id="edge35" class="edge">
<title>Node388&#45;&gt;Node389</title>
<path fill="none" stroke="#191970" d="M416.7031,-59.5C445.9514,-59.5 491.693,-59.5 522.94,-59.5"/>
<polygon fill="#191970" stroke="#191970" points="523.3372,-63.0001 533.3371,-59.5 523.3371,-56.0001 523.3372,-63.0001"/>
</g>
<!-- Node391 -->
<g id="node18" class="node">
<title>Node391</title>
<g id="a_node18"><a xlink:href="led_8c.html#af6e74a041f4ed0ac79f31a03c99733de" target="_top" xlink:title="led_single_blink_off\l_timer_func">
<polygon fill="#ffffff" stroke="#000000" points="505,-.5 505,-30.5 609,-30.5 609,-.5 505,-.5"/>
<text text-anchor="start" x="513" y="-18.5" font-family="Helvetica,sans-Serif" font-size="10.00" fill="#000000">led_single_blink_off</text>
<text text-anchor="middle" x="557" y="-7.5" font-family="Helvetica,sans-Serif" font-size="10.00" fill="#000000">_timer_func</text>
</a>
</g>
</g>
<!-- Node388&#45;&gt;Node391 -->
<g id="edge37" class="edge">
<title>Node388&#45;&gt;Node391</title>
<path fill="none" stroke="#191970" d="M416.7031,-52.1354C438.0638,-46.5575 468.2214,-38.6825 495.1054,-31.6624"/>
<polygon fill="#191970" stroke="#191970" points="496.0482,-35.0336 504.8395,-29.1205 494.2796,-28.2607 496.0482,-35.0336"/>
</g>
<!-- Node390 -->
<g id="node17" class="node">
<title>Node390</title>
<g id="a_node17"><a xlink:href="gpio_8h.html#a83bac74ff5b2158e0c86da73ada29718" target="_top" xlink:title="gpio_output_set">
<polygon fill="#ffffff" stroke="#000000" points="851,-26 851,-45 939,-45 939,-26 851,-26"/>
<text text-anchor="middle" x="895" y="-33" font-family="Helvetica,sans-Serif" font-size="10.00" fill="#000000">gpio_output_set</text>
</a>
</g>
</g>
<!-- Node389&#45;&gt;Node390 -->
<g id="edge36" class="edge">
<title>Node389&#45;&gt;Node390</title>
<path fill="none" stroke="#191970" d="M580.7675,-57.8124C634.3705,-54.0062 765.816,-44.6728 840.6147,-39.3617"/>
<polygon fill="#191970" stroke="#191970" points="841.0522,-42.8395 850.7792,-38.6399 840.5564,-35.8571 841.0522,-42.8395"/>
</g>
<!-- Node392 -->
<g id="node19" class="node">
<title>Node392</title>
<g id="a_node19"><a xlink:href="led_8c.html#a7ef0b27e501c77cd25b8bb7a2de6d8bd" target="_top" xlink:title="led_off">
<polygon fill="#ffffff" stroke="#000000" points="715.5,-7 715.5,-26 762.5,-26 762.5,-7 715.5,-7"/>
<text text-anchor="middle" x="739" y="-14" font-family="Helvetica,sans-Serif" font-size="10.00" fill="#000000">led_off</text>
</a>
</g>
</g>
<!-- Node391&#45;&gt;Node392 -->
<g id="edge38" class="edge">
<title>Node391&#45;&gt;Node392</title>
<path fill="none" stroke="#191970" d="M609.1539,-15.7866C639.9406,-15.9557 678.0299,-16.165 704.9724,-16.313"/>
<polygon fill="#191970" stroke="#191970" points="705.0502,-19.8134 715.0693,-16.3685 705.0887,-12.8135 705.0502,-19.8134"/>
</g>
<!-- Node392&#45;&gt;Node390 -->
<g id="edge39" class="edge">
<title>Node392&#45;&gt;Node390</title>
<path fill="none" stroke="#191970" d="M762.693,-19.3857C783.4019,-21.9079 814.2498,-25.665 840.9508,-28.9171"/>
<polygon fill="#191970" stroke="#191970" points="840.6016,-32.4003 850.9514,-30.1351 841.448,-25.4517 840.6016,-32.4003"/>
</g>
</g>
</svg>
