<?xml version="1.0" encoding="UTF-8" standalone="no"?>
<!DOCTYPE svg PUBLIC "-//W3C//DTD SVG 1.1//EN"
 "http://www.w3.org/Graphics/SVG/1.1/DTD/svg11.dtd">
<!-- Generated by graphviz version 2.41.20170323.1842 (20170323.1842)
 -->
<!-- Title: en61107_uart_send_inst_values Pages: 1 -->
<svg width="806pt" height="290pt"
 viewBox="0.00 0.00 806.00 290.36" xmlns="http://www.w3.org/2000/svg" xmlns:xlink="http://www.w3.org/1999/xlink">
<g id="graph0" class="graph" transform="scale(1 1) rotate(0) translate(4 286.3554)">
<title>en61107_uart_send_inst_values</title>
<polygon fill="#ffffff" stroke="transparent" points="-4,4 -4,-286.3554 802,-286.3554 802,4 -4,4"/>
<!-- Node402 -->
<g id="node1" class="node">
<title>Node402</title>
<polygon fill="#bfbfbf" stroke="#000000" points="0,-54.8554 0,-84.8554 127,-84.8554 127,-54.8554 0,-54.8554"/>
<text text-anchor="start" x="8" y="-72.8554" font-family="Helvetica,sans-Serif" font-size="10.00" fill="#000000">en61107_uart_send_inst</text>
<text text-anchor="middle" x="63.5" y="-61.8554" font-family="Helvetica,sans-Serif" font-size="10.00" fill="#000000">_values</text>
</g>
<!-- Node403 -->
<g id="node2" class="node">
<title>Node403</title>
<g id="a_node2"><a xlink:href="en61107__request_8h.html#a22f1fee248eec0eeacf220c69b878a28" target="_top" xlink:title="en61107_receive_timeout\l_timer_func">
<polygon fill="#ffffff" stroke="#000000" points="163,-125.8554 163,-155.8554 295,-155.8554 295,-125.8554 163,-125.8554"/>
<text text-anchor="start" x="171" y="-143.8554" font-family="Helvetica,sans-Serif" font-size="10.00" fill="#000000">en61107_receive_timeout</text>
<text text-anchor="middle" x="229" y="-132.8554" font-family="Helvetica,sans-Serif" font-size="10.00" fill="#000000">_timer_func</text>
</a>
</g>
</g>
<!-- Node402&#45;&gt;Node403 -->
<g id="edge1" class="edge">
<title>Node402&#45;&gt;Node403</title>
<path fill="none" stroke="#191970" d="M107.8295,-88.8729C134.8283,-100.4555 168.8405,-115.0468 193.9523,-125.8199"/>
<polygon fill="#191970" stroke="#191970" points="109.1682,-85.6388 98.5983,-84.9127 106.4084,-92.0718 109.1682,-85.6388"/>
</g>
<!-- Node408 -->
<g id="node7" class="node">
<title>Node408</title>
<g id="a_node7"><a xlink:href="en61107__request_8c.html#aa3b162cf5364986ea19e831ac2b18f76" target="_top" xlink:title="en61107_received_task">
<polygon fill="#ffffff" stroke="#000000" points="517,-82.3554 517,-101.3554 640,-101.3554 640,-82.3554 517,-82.3554"/>
<text text-anchor="middle" x="578.5" y="-89.3554" font-family="Helvetica,sans-Serif" font-size="10.00" fill="#000000">en61107_received_task</text>
</a>
</g>
</g>
<!-- Node402&#45;&gt;Node408 -->
<g id="edge19" class="edge">
<title>Node402&#45;&gt;Node408</title>
<path fill="none" stroke="#191970" d="M109.6227,-51.1767C188.0216,-22.242 351.3762,25.7647 481,-17.8554 519.267,-30.7328 554.4386,-65.2577 570.0304,-82.2036"/>
<polygon fill="#191970" stroke="#191970" points="108.1699,-47.9835 100.0389,-54.7759 110.631,-54.5366 108.1699,-47.9835"/>
</g>
<!-- Node404 -->
<g id="node3" class="node">
<title>Node404</title>
<g id="a_node3"><a xlink:href="en61107__request_8h.html#a353102f2f89ad4ed996501752c0ac59c" target="_top" xlink:title="en61107_uart_send_en61107\l_ident">
<polygon fill="#ffffff" stroke="#000000" points="331,-251.8554 331,-281.8554 481,-281.8554 481,-251.8554 331,-251.8554"/>
<text text-anchor="start" x="339" y="-269.8554" font-family="Helvetica,sans-Serif" font-size="10.00" fill="#000000">en61107_uart_send_en61107</text>
<text text-anchor="middle" x="406" y="-258.8554" font-family="Helvetica,sans-Serif" font-size="10.00" fill="#000000">_ident</text>
</a>
</g>
</g>
<!-- Node403&#45;&gt;Node404 -->
<g id="edge2" class="edge">
<title>Node403&#45;&gt;Node404</title>
<path fill="none" stroke="#191970" d="M255.0173,-163.1684C274.3367,-182.4104 302.2218,-209.4985 331,-227.8554 346.6067,-237.8106 366.0592,-245.4756 381.2422,-251.7991"/>
<polygon fill="#191970" stroke="#191970" points="257.3448,-160.5463 247.7945,-155.9591 252.3997,-165.5008 257.3448,-160.5463"/>
</g>
<!-- Node407 -->
<g id="node6" class="node">
<title>Node407</title>
<g id="a_node6"><a xlink:href="en61107__request_8h.html#a8b6b61143d95d3af3813f8be1aaf3447" target="_top" xlink:title="en61107_uart_send_en61107">
<polygon fill="#ffffff" stroke="#000000" points="331,-175.3554 331,-194.3554 481,-194.3554 481,-175.3554 331,-175.3554"/>
<text text-anchor="middle" x="406" y="-182.3554" font-family="Helvetica,sans-Serif" font-size="10.00" fill="#000000">en61107_uart_send_en61107</text>
</a>
</g>
</g>
<!-- Node403&#45;&gt;Node407 -->
<g id="edge7" class="edge">
<title>Node403&#45;&gt;Node407</title>
<path fill="none" stroke="#191970" d="M299.2934,-158.3295C322.6343,-164.1317 347.7412,-170.373 367.7341,-175.343"/>
<polygon fill="#191970" stroke="#191970" points="299.9673,-154.8906 289.4183,-155.8747 298.2786,-161.6838 299.9673,-154.8906"/>
</g>
<!-- Node410 -->
<g id="node9" class="node">
<title>Node410</title>
<g id="a_node9"><a xlink:href="en61107__request_8h.html#afdb1795bdd4212fc7e028a9e5668fab4" target="_top" xlink:title="en61107_uart_send_standard\l_data_1">
<polygon fill="#ffffff" stroke="#000000" points="331,-125.8554 331,-155.8554 481,-155.8554 481,-125.8554 331,-125.8554"/>
<text text-anchor="start" x="339" y="-143.8554" font-family="Helvetica,sans-Serif" font-size="10.00" fill="#000000">en61107_uart_send_standard</text>
<text text-anchor="middle" x="406" y="-132.8554" font-family="Helvetica,sans-Serif" font-size="10.00" fill="#000000">_data_1</text>
</a>
</g>
</g>
<!-- Node403&#45;&gt;Node410 -->
<g id="edge10" class="edge">
<title>Node403&#45;&gt;Node410</title>
<path fill="none" stroke="#191970" d="M305.4108,-134.1617C313.8936,-134.0823 322.5275,-134.0869 330.9927,-134.1756"/>
<polygon fill="#191970" stroke="#191970" points="305.1117,-130.6653 295.16,-134.3003 305.2064,-137.6647 305.1117,-130.6653"/>
</g>
<!-- Node411 -->
<g id="node10" class="node">
<title>Node411</title>
<g id="a_node10"><a xlink:href="en61107__request_8h.html#a10b80328698f459ae2251fe146cdc375" target="_top" xlink:title="en61107_uart_send_standard\l_data_2">
<polygon fill="#ffffff" stroke="#000000" points="331,-76.8554 331,-106.8554 481,-106.8554 481,-76.8554 331,-76.8554"/>
<text text-anchor="start" x="339" y="-94.8554" font-family="Helvetica,sans-Serif" font-size="10.00" fill="#000000">en61107_uart_send_standard</text>
<text text-anchor="middle" x="406" y="-83.8554" font-family="Helvetica,sans-Serif" font-size="10.00" fill="#000000">_data_2</text>
</a>
</g>
</g>
<!-- Node403&#45;&gt;Node411 -->
<g id="edge13" class="edge">
<title>Node403&#45;&gt;Node411</title>
<path fill="none" stroke="#191970" d="M273.4185,-122.6162C290.8346,-117.099 311.3093,-111.1848 330.889,-105.968"/>
<polygon fill="#191970" stroke="#191970" points="271.9842,-119.4016 263.5476,-125.8104 274.1394,-126.0615 271.9842,-119.4016"/>
</g>
<!-- Node412 -->
<g id="node11" class="node">
<title>Node412</title>
<g id="a_node11"><a xlink:href="en61107__request_8h.html#a74c2d949e6bb3b65cdf794a0643dd67d" target="_top" xlink:title="en61107_uart_send_inst\l_values">
<polygon fill="#ffffff" stroke="#000000" points="342.5,-27.8554 342.5,-57.8554 469.5,-57.8554 469.5,-27.8554 342.5,-27.8554"/>
<text text-anchor="start" x="350.5" y="-45.8554" font-family="Helvetica,sans-Serif" font-size="10.00" fill="#000000">en61107_uart_send_inst</text>
<text text-anchor="middle" x="406" y="-34.8554" font-family="Helvetica,sans-Serif" font-size="10.00" fill="#000000">_values</text>
</a>
</g>
</g>
<!-- Node403&#45;&gt;Node412 -->
<g id="edge16" class="edge">
<title>Node403&#45;&gt;Node412</title>
<path fill="none" stroke="#191970" d="M247.1518,-118.2143C266.6933,-99.4329 299.263,-73.9235 331,-57.8554 334.6591,-56.0028 338.4906,-54.2549 342.4038,-52.6269"/>
<polygon fill="#191970" stroke="#191970" points="244.4239,-115.9938 239.8528,-125.5518 249.3866,-120.9305 244.4239,-115.9938"/>
</g>
<!-- Node404&#45;&gt;Node403 -->
<g id="edge3" class="edge">
<title>Node404&#45;&gt;Node403</title>
<path fill="none" stroke="#191970" d="M332.2045,-246.6145C331.8006,-246.363 331.399,-246.11 331,-245.8554 291.431,-220.6153 253.5504,-178.8686 237.3025,-155.9935"/>
<polygon fill="#191970" stroke="#191970" points="330.576,-249.7154 340.9901,-251.6638 334.0641,-243.6463 330.576,-249.7154"/>
</g>
<!-- Node405 -->
<g id="node4" class="node">
<title>Node405</title>
<g id="a_node4"><a xlink:href="en61107__request_8h.html#a2fa4e9967afddae0c1dedbc914dcee36" target="_top" xlink:title="en61107_meter_wake\l_up_timer_func">
<polygon fill="#ffffff" stroke="#000000" points="521,-229.8554 521,-259.8554 636,-259.8554 636,-229.8554 521,-229.8554"/>
<text text-anchor="start" x="529" y="-247.8554" font-family="Helvetica,sans-Serif" font-size="10.00" fill="#000000">en61107_meter_wake</text>
<text text-anchor="middle" x="578.5" y="-236.8554" font-family="Helvetica,sans-Serif" font-size="10.00" fill="#000000">_up_timer_func</text>
</a>
</g>
</g>
<!-- Node404&#45;&gt;Node405 -->
<g id="edge4" class="edge">
<title>Node404&#45;&gt;Node405</title>
<path fill="none" stroke="#191970" d="M491.2161,-255.9873C501.2997,-254.7013 511.4021,-253.4128 520.972,-252.1923"/>
<polygon fill="#191970" stroke="#191970" points="490.636,-252.5328 481.1592,-257.2699 491.5217,-259.4766 490.636,-252.5328"/>
</g>
<!-- Node405&#45;&gt;Node403 -->
<g id="edge5" class="edge">
<title>Node405&#45;&gt;Node403</title>
<path fill="none" stroke="#191970" d="M510.639,-240.7377C459.8471,-235.9724 389.3746,-225.7432 331,-203.8554 299.8178,-192.1636 267.7696,-170.4771 248.1185,-155.8565"/>
<polygon fill="#191970" stroke="#191970" points="510.5749,-244.2458 520.8461,-241.6468 511.196,-237.2734 510.5749,-244.2458"/>
</g>
<!-- Node406 -->
<g id="node5" class="node">
<title>Node406</title>
<g id="a_node5"><a xlink:href="en61107__request_8h.html#a7384d014eb9e833f64ecf4a9f86f87be" target="_top" xlink:title="en61107_request_send">
<polygon fill="#ffffff" stroke="#000000" points="676,-235.3554 676,-254.3554 798,-254.3554 798,-235.3554 676,-235.3554"/>
<text text-anchor="middle" x="737" y="-242.3554" font-family="Helvetica,sans-Serif" font-size="10.00" fill="#000000">en61107_request_send</text>
</a>
</g>
</g>
<!-- Node405&#45;&gt;Node406 -->
<g id="edge6" class="edge">
<title>Node405&#45;&gt;Node406</title>
<path fill="none" stroke="#191970" d="M646.3048,-244.8554C656.1381,-244.8554 666.2115,-244.8554 675.9022,-244.8554"/>
<polygon fill="#191970" stroke="#191970" points="646.1705,-241.3555 636.1705,-244.8554 646.1705,-248.3555 646.1705,-241.3555"/>
</g>
<!-- Node407&#45;&gt;Node408 -->
<g id="edge8" class="edge">
<title>Node407&#45;&gt;Node408</title>
<path fill="none" stroke="#191970" d="M465.2463,-172.2502C470.6768,-170.381 476.0076,-168.2588 481,-165.8554 516.6136,-148.7106 551.9458,-117.4153 568.6053,-101.5825"/>
<polygon fill="#191970" stroke="#191970" points="463.9013,-169.0043 455.4152,-175.3475 466.0048,-175.6807 463.9013,-169.0043"/>
</g>
<!-- Node409 -->
<g id="node8" class="node">
<title>Node409</title>
<g id="a_node8"><a xlink:href="en61107__request_8h.html#acd43242675a3f25e7c3b530eac9d8b3a" target="_top" xlink:title="en61107_request_init">
<polygon fill="#ffffff" stroke="#000000" points="680.5,-82.3554 680.5,-101.3554 793.5,-101.3554 793.5,-82.3554 680.5,-82.3554"/>
<text text-anchor="middle" x="737" y="-89.3554" font-family="Helvetica,sans-Serif" font-size="10.00" fill="#000000">en61107_request_init</text>
</a>
</g>
</g>
<!-- Node408&#45;&gt;Node409 -->
<g id="edge9" class="edge">
<title>Node408&#45;&gt;Node409</title>
<path fill="none" stroke="#191970" d="M650.2469,-91.8554C660.3388,-91.8554 670.5944,-91.8554 680.3513,-91.8554"/>
<polygon fill="#191970" stroke="#191970" points="650.2341,-88.3555 640.2341,-91.8554 650.2341,-95.3555 650.2341,-88.3555"/>
</g>
<!-- Node410&#45;&gt;Node403 -->
<g id="edge11" class="edge">
<title>Node410&#45;&gt;Node403</title>
<path fill="none" stroke="#191970" d="M320.8867,-147.601C312.2441,-147.6235 303.5585,-147.56 295.16,-147.4105"/>
<polygon fill="#191970" stroke="#191970" points="321.0157,-151.1004 330.9927,-147.5352 320.9701,-144.1005 321.0157,-151.1004"/>
</g>
<!-- Node410&#45;&gt;Node408 -->
<g id="edge12" class="edge">
<title>Node410&#45;&gt;Node408</title>
<path fill="none" stroke="#191970" d="M468.8741,-122.9955C494.652,-115.6731 523.4431,-107.4948 545.0493,-101.3574"/>
<polygon fill="#191970" stroke="#191970" points="467.8263,-119.6546 459.1632,-125.754 469.7391,-126.3882 467.8263,-119.6546"/>
</g>
<!-- Node411&#45;&gt;Node403 -->
<g id="edge14" class="edge">
<title>Node411&#45;&gt;Node403</title>
<path fill="none" stroke="#191970" d="M361.8891,-109.9972C341.7353,-116.3894 317.4373,-123.3243 295.16,-129.0951"/>
<polygon fill="#191970" stroke="#191970" points="362.9873,-113.3206 371.4228,-106.9102 360.8309,-106.661 362.9873,-113.3206"/>
</g>
<!-- Node411&#45;&gt;Node408 -->
<g id="edge15" class="edge">
<title>Node411&#45;&gt;Node408</title>
<path fill="none" stroke="#191970" d="M491.2418,-91.8554C499.8535,-91.8554 508.4785,-91.8554 516.7735,-91.8554"/>
<polygon fill="#191970" stroke="#191970" points="491.1592,-88.3555 481.1592,-91.8554 491.1592,-95.3555 491.1592,-88.3555"/>
</g>
<!-- Node412&#45;&gt;Node403 -->
<g id="edge17" class="edge">
<title>Node412&#45;&gt;Node403</title>
<path fill="none" stroke="#191970" d="M367.2865,-61.2425C355.3343,-65.3779 342.3395,-70.1144 331,-75.8554 303.2834,-89.888 274.9318,-111.1214 255.1773,-125.7137"/>
<polygon fill="#191970" stroke="#191970" points="368.6997,-64.458 377.022,-57.9013 366.4274,-57.837 368.6997,-64.458"/>
</g>
<!-- Node412&#45;&gt;Node408 -->
<g id="edge18" class="edge">
<title>Node412&#45;&gt;Node408</title>
<path fill="none" stroke="#191970" d="M468.8741,-60.7153C494.652,-68.0377 523.4431,-76.2161 545.0493,-82.3535"/>
<polygon fill="#191970" stroke="#191970" points="469.7391,-57.3226 459.1632,-57.9569 467.8263,-64.0562 469.7391,-57.3226"/>
</g>
</g>
</svg>
