<?xml version="1.0" encoding="UTF-8" standalone="no"?>
<!DOCTYPE svg PUBLIC "-//W3C//DTD SVG 1.1//EN"
 "http://www.w3.org/Graphics/SVG/1.1/DTD/svg11.dtd">
<!-- Generated by graphviz version 2.41.20170323.1842 (20170323.1842)
 -->
<!-- Title: en61107_uart_send_inst_values Pages: 1 -->
<svg width="1610pt" height="226pt"
 viewBox="0.00 0.00 1610.00 226.20" xmlns="http://www.w3.org/2000/svg" xmlns:xlink="http://www.w3.org/1999/xlink">
<g id="graph0" class="graph" transform="scale(1 1) rotate(0) translate(4 222.1968)">
<title>en61107_uart_send_inst_values</title>
<polygon fill="#ffffff" stroke="transparent" points="-4,4 -4,-222.1968 1606,-222.1968 1606,4 -4,4"/>
<!-- Node358 -->
<g id="node1" class="node">
<title>Node358</title>
<polygon fill="#bfbfbf" stroke="#000000" points="0,-74.6264 0,-104.6264 127,-104.6264 127,-74.6264 0,-74.6264"/>
<text text-anchor="start" x="8" y="-92.6264" font-family="Helvetica,sans-Serif" font-size="10.00" fill="#000000">en61107_uart_send_inst</text>
<text text-anchor="middle" x="63.5" y="-81.6264" font-family="Helvetica,sans-Serif" font-size="10.00" fill="#000000">_values</text>
</g>
<!-- Node359 -->
<g id="node2" class="node">
<title>Node359</title>
<g id="a_node2"><a xlink:href="en61107__request_8h.html#a22f1fee248eec0eeacf220c69b878a28" target="_top" xlink:title="en61107_receive_timeout\l_timer_func">
<polygon fill="#ffffff" stroke="#000000" points="163,-74.6264 163,-104.6264 295,-104.6264 295,-74.6264 163,-74.6264"/>
<text text-anchor="start" x="171" y="-92.6264" font-family="Helvetica,sans-Serif" font-size="10.00" fill="#000000">en61107_receive_timeout</text>
<text text-anchor="middle" x="229" y="-81.6264" font-family="Helvetica,sans-Serif" font-size="10.00" fill="#000000">_timer_func</text>
</a>
</g>
</g>
<!-- Node358&#45;&gt;Node359 -->
<g id="edge1" class="edge">
<title>Node358&#45;&gt;Node359</title>
<path fill="none" stroke="#191970" d="M137.0425,-82.9137C145.658,-82.8436 154.4084,-82.8723 162.9137,-82.9995"/>
<polygon fill="#191970" stroke="#191970" points="136.968,-79.4142 127.0133,-83.0412 137.057,-86.4137 136.968,-79.4142"/>
</g>
<!-- Node361 -->
<g id="node4" class="node">
<title>Node361</title>
<g id="a_node4"><a xlink:href="en61107__request_8c.html#aa3b162cf5364986ea19e831ac2b18f76" target="_top" xlink:title="en61107_received_task">
<polygon fill="#ffffff" stroke="#000000" points="517,-80.1264 517,-99.1264 640,-99.1264 640,-80.1264 517,-80.1264"/>
<text text-anchor="middle" x="578.5" y="-87.1264" font-family="Helvetica,sans-Serif" font-size="10.00" fill="#000000">en61107_received_task</text>
</a>
</g>
</g>
<!-- Node358&#45;&gt;Node361 -->
<g id="edge25" class="edge">
<title>Node358&#45;&gt;Node361</title>
<path fill="none" stroke="#191970" d="M102.1709,-70.2818C177.0174,-35.5428 346.1836,29.7412 481,-15.6264 519.267,-28.5038 554.4386,-63.0286 570.0304,-79.9746"/>
<polygon fill="#191970" stroke="#191970" points="100.6478,-67.1304 93.095,-74.5605 103.6328,-73.462 100.6478,-67.1304"/>
</g>
<!-- Node359&#45;&gt;Node358 -->
<g id="edge18" class="edge">
<title>Node359&#45;&gt;Node358</title>
<path fill="none" stroke="#191970" d="M152.8394,-96.3573C144.2005,-96.4074 135.4652,-96.3588 127.0133,-96.2116"/>
<polygon fill="#191970" stroke="#191970" points="152.9504,-99.8565 162.9137,-96.2532 152.878,-92.8568 152.9504,-99.8565"/>
</g>
<!-- Node360 -->
<g id="node3" class="node">
<title>Node360</title>
<g id="a_node3"><a xlink:href="en61107__request_8h.html#a8b6b61143d95d3af3813f8be1aaf3447" target="_top" xlink:title="en61107_uart_send_en61107">
<polygon fill="#ffffff" stroke="#000000" points="331,-124.1264 331,-143.1264 481,-143.1264 481,-124.1264 331,-124.1264"/>
<text text-anchor="middle" x="406" y="-131.1264" font-family="Helvetica,sans-Serif" font-size="10.00" fill="#000000">en61107_uart_send_en61107</text>
</a>
</g>
</g>
<!-- Node359&#45;&gt;Node360 -->
<g id="edge2" class="edge">
<title>Node359&#45;&gt;Node360</title>
<path fill="none" stroke="#191970" d="M299.2934,-107.1004C322.6343,-112.9027 347.7412,-119.144 367.7341,-124.114"/>
<polygon fill="#191970" stroke="#191970" points="299.9673,-103.6615 289.4183,-104.6456 298.2786,-110.4548 299.9673,-103.6615"/>
</g>
<!-- Node364 -->
<g id="node7" class="node">
<title>Node364</title>
<g id="a_node7"><a xlink:href="en61107__request_8h.html#a353102f2f89ad4ed996501752c0ac59c" target="_top" xlink:title="en61107_uart_send_en61107\l_ident">
<polygon fill="#ffffff" stroke="#000000" points="331,-162.6264 331,-192.6264 481,-192.6264 481,-162.6264 331,-162.6264"/>
<text text-anchor="start" x="339" y="-180.6264" font-family="Helvetica,sans-Serif" font-size="10.00" fill="#000000">en61107_uart_send_en61107</text>
<text text-anchor="middle" x="406" y="-169.6264" font-family="Helvetica,sans-Serif" font-size="10.00" fill="#000000">_ident</text>
</a>
</g>
</g>
<!-- Node359&#45;&gt;Node364 -->
<g id="edge6" class="edge">
<title>Node359&#45;&gt;Node364</title>
<path fill="none" stroke="#191970" d="M270.4509,-109.9756C288.5127,-120.9298 310.2615,-133.9258 331,-143.6264 346.6647,-150.9537 365.0781,-157.1244 379.7397,-162.5751"/>
<polygon fill="#191970" stroke="#191970" points="272.2654,-106.9827 261.9009,-104.7854 268.633,-112.9665 272.2654,-106.9827"/>
</g>
<!-- Node372 -->
<g id="node15" class="node">
<title>Node372</title>
<g id="a_node15"><a xlink:href="en61107__request_8h.html#afdb1795bdd4212fc7e028a9e5668fab4" target="_top" xlink:title="en61107_uart_send_standard\l_data_1">
<polygon fill="#ffffff" stroke="#000000" points="331,-74.6264 331,-104.6264 481,-104.6264 481,-74.6264 331,-74.6264"/>
<text text-anchor="start" x="339" y="-92.6264" font-family="Helvetica,sans-Serif" font-size="10.00" fill="#000000">en61107_uart_send_standard</text>
<text text-anchor="middle" x="406" y="-81.6264" font-family="Helvetica,sans-Serif" font-size="10.00" fill="#000000">_data_1</text>
</a>
</g>
</g>
<!-- Node359&#45;&gt;Node372 -->
<g id="edge19" class="edge">
<title>Node359&#45;&gt;Node372</title>
<path fill="none" stroke="#191970" d="M305.4108,-82.9327C313.8936,-82.8532 322.5275,-82.8579 330.9927,-82.9466"/>
<polygon fill="#191970" stroke="#191970" points="305.1117,-79.4363 295.16,-83.0713 305.2064,-86.4357 305.1117,-79.4363"/>
</g>
<!-- Node373 -->
<g id="node16" class="node">
<title>Node373</title>
<g id="a_node16"><a xlink:href="en61107__request_8h.html#a10b80328698f459ae2251fe146cdc375" target="_top" xlink:title="en61107_uart_send_standard\l_data_2">
<polygon fill="#ffffff" stroke="#000000" points="331,-25.6264 331,-55.6264 481,-55.6264 481,-25.6264 331,-25.6264"/>
<text text-anchor="start" x="339" y="-43.6264" font-family="Helvetica,sans-Serif" font-size="10.00" fill="#000000">en61107_uart_send_standard</text>
<text text-anchor="middle" x="406" y="-32.6264" font-family="Helvetica,sans-Serif" font-size="10.00" fill="#000000">_data_2</text>
</a>
</g>
</g>
<!-- Node359&#45;&gt;Node373 -->
<g id="edge22" class="edge">
<title>Node359&#45;&gt;Node373</title>
<path fill="none" stroke="#191970" d="M273.4185,-71.3871C290.8346,-65.87 311.3093,-59.9557 330.889,-54.739"/>
<polygon fill="#191970" stroke="#191970" points="271.9842,-68.1725 263.5476,-74.5814 274.1394,-74.8325 271.9842,-68.1725"/>
</g>
<!-- Node360&#45;&gt;Node361 -->
<g id="edge3" class="edge">
<title>Node360&#45;&gt;Node361</title>
<path fill="none" stroke="#191970" d="M453.4969,-121.6159C462.626,-119.3012 472.1104,-116.8921 481,-114.6264 500.9813,-109.5337 523.2576,-103.8243 541.4678,-99.1486"/>
<polygon fill="#191970" stroke="#191970" points="452.609,-118.2302 443.7751,-124.0793 454.3285,-125.0157 452.609,-118.2302"/>
</g>
<!-- Node362 -->
<g id="node5" class="node">
<title>Node362</title>
<g id="a_node5"><a xlink:href="en61107__request_8h.html#acd43242675a3f25e7c3b530eac9d8b3a" target="_top" xlink:title="en61107_request_init">
<polygon fill="#ffffff" stroke="#000000" points="834,-89.1264 834,-108.1264 947,-108.1264 947,-89.1264 834,-89.1264"/>
<text text-anchor="middle" x="890.5" y="-96.1264" font-family="Helvetica,sans-Serif" font-size="10.00" fill="#000000">en61107_request_init</text>
</a>
</g>
</g>
<!-- Node361&#45;&gt;Node362 -->
<g id="edge4" class="edge">
<title>Node361&#45;&gt;Node362</title>
<path fill="none" stroke="#191970" d="M650.313,-91.6979C706.1248,-93.3079 782.461,-95.5099 833.9723,-96.9958"/>
<polygon fill="#191970" stroke="#191970" points="650.238,-88.1944 640.1412,-91.4045 650.036,-95.1915 650.238,-88.1944"/>
</g>
<!-- Node363 -->
<g id="node6" class="node">
<title>Node363</title>
<g id="a_node6"><a xlink:href="user__main_8h.html#a33113d6dedb440bd7dfa5576e325140c" target="_top" xlink:title="user_init">
<polygon fill="#ffffff" stroke="#000000" points="1548,-109.1264 1548,-128.1264 1602,-128.1264 1602,-109.1264 1548,-109.1264"/>
<text text-anchor="middle" x="1575" y="-116.1264" font-family="Helvetica,sans-Serif" font-size="10.00" fill="#000000">user_init</text>
</a>
</g>
</g>
<!-- Node362&#45;&gt;Node363 -->
<g id="edge5" class="edge">
<title>Node362&#45;&gt;Node363</title>
<path fill="none" stroke="#191970" d="M957.403,-99.0019C1013.7136,-99.2856 1096.37,-99.6264 1168.5,-99.6264 1168.5,-99.6264 1168.5,-99.6264 1316,-99.6264 1400.7619,-99.6264 1500.7102,-109.8732 1547.8272,-115.3168"/>
<polygon fill="#191970" stroke="#191970" points="957.2215,-95.501 947.2037,-98.9497 957.1856,-102.5009 957.2215,-95.501"/>
</g>
<!-- Node364&#45;&gt;Node359 -->
<g id="edge17" class="edge">
<title>Node364&#45;&gt;Node359</title>
<path fill="none" stroke="#191970" d="M323.6379,-158.0112C290.8986,-141.5691 258.8108,-119.6463 241.6588,-104.6614"/>
<polygon fill="#191970" stroke="#191970" points="322.3525,-161.2777 332.8774,-162.4931 325.4076,-154.9796 322.3525,-161.2777"/>
</g>
<!-- Node365 -->
<g id="node8" class="node">
<title>Node365</title>
<g id="a_node8"><a xlink:href="en61107__request_8h.html#a2fa4e9967afddae0c1dedbc914dcee36" target="_top" xlink:title="en61107_meter_wake\l_up_timer_func">
<polygon fill="#ffffff" stroke="#000000" points="521,-162.6264 521,-192.6264 636,-192.6264 636,-162.6264 521,-162.6264"/>
<text text-anchor="start" x="529" y="-180.6264" font-family="Helvetica,sans-Serif" font-size="10.00" fill="#000000">en61107_meter_wake</text>
<text text-anchor="middle" x="578.5" y="-169.6264" font-family="Helvetica,sans-Serif" font-size="10.00" fill="#000000">_up_timer_func</text>
</a>
</g>
</g>
<!-- Node364&#45;&gt;Node365 -->
<g id="edge7" class="edge">
<title>Node364&#45;&gt;Node365</title>
<path fill="none" stroke="#191970" d="M491.2161,-177.6264C501.2997,-177.6264 511.4021,-177.6264 520.972,-177.6264"/>
<polygon fill="#191970" stroke="#191970" points="491.1592,-174.1265 481.1592,-177.6264 491.1592,-181.1265 491.1592,-174.1265"/>
</g>
<!-- Node365&#45;&gt;Node359 -->
<g id="edge8" class="edge">
<title>Node365&#45;&gt;Node359</title>
<path fill="none" stroke="#191970" d="M531.0378,-196.0131C479.5041,-212.9525 395.8814,-231.4652 331,-202.6264 285.5978,-182.4458 251.8708,-130.9638 237.1568,-105.0379"/>
<polygon fill="#191970" stroke="#191970" points="532.2443,-199.2998 540.5882,-192.7707 529.9939,-192.6714 532.2443,-199.2998"/>
</g>
<!-- Node366 -->
<g id="node9" class="node">
<title>Node366</title>
<g id="a_node9"><a xlink:href="en61107__request_8h.html#a7384d014eb9e833f64ecf4a9f86f87be" target="_top" xlink:title="en61107_request_send">
<polygon fill="#ffffff" stroke="#000000" points="676,-167.1264 676,-186.1264 798,-186.1264 798,-167.1264 676,-167.1264"/>
<text text-anchor="middle" x="737" y="-174.1264" font-family="Helvetica,sans-Serif" font-size="10.00" fill="#000000">en61107_request_send</text>
</a>
</g>
</g>
<!-- Node365&#45;&gt;Node366 -->
<g id="edge9" class="edge">
<title>Node365&#45;&gt;Node366</title>
<path fill="none" stroke="#191970" d="M646.3048,-177.1986C656.1381,-177.1365 666.2115,-177.073 675.9022,-177.0119"/>
<polygon fill="#191970" stroke="#191970" points="646.1482,-173.6994 636.1705,-177.2625 646.1924,-180.6993 646.1482,-173.6994"/>
</g>
<!-- Node367 -->
<g id="node10" class="node">
<title>Node367</title>
<g id="a_node10"><a xlink:href="user__main_8c.html#af2c051d5ceacd30f90c08d6f584deff2" target="_top" xlink:title="sample_timer_func">
<polygon fill="#ffffff" stroke="#000000" points="840,-167.1264 840,-186.1264 941,-186.1264 941,-167.1264 840,-167.1264"/>
<text text-anchor="middle" x="890.5" y="-174.1264" font-family="Helvetica,sans-Serif" font-size="10.00" fill="#000000">sample_timer_func</text>
</a>
</g>
</g>
<!-- Node366&#45;&gt;Node367 -->
<g id="edge10" class="edge">
<title>Node366&#45;&gt;Node367</title>
<path fill="none" stroke="#191970" d="M808.2901,-176.6264C818.9836,-176.6264 829.8193,-176.6264 839.9609,-176.6264"/>
<polygon fill="#191970" stroke="#191970" points="808.1084,-173.1265 798.1083,-176.6264 808.1083,-180.1265 808.1084,-173.1265"/>
</g>
<!-- Node368 -->
<g id="node11" class="node">
<title>Node368</title>
<g id="a_node11"><a xlink:href="user__main_8h.html#ad6eb800c4d7f9c79df52949d88a18d06" target="_top" xlink:title="mqtt_connected_cb">
<polygon fill="#ffffff" stroke="#000000" points="983,-167.1264 983,-186.1264 1087,-186.1264 1087,-167.1264 983,-167.1264"/>
<text text-anchor="middle" x="1035" y="-174.1264" font-family="Helvetica,sans-Serif" font-size="10.00" fill="#000000">mqtt_connected_cb</text>
</a>
</g>
</g>
<!-- Node367&#45;&gt;Node368 -->
<g id="edge11" class="edge">
<title>Node367&#45;&gt;Node368</title>
<path fill="none" stroke="#191970" d="M951.3475,-176.6264C961.7982,-176.6264 972.5755,-176.6264 982.7747,-176.6264"/>
<polygon fill="#191970" stroke="#191970" points="951.0391,-173.1265 941.0391,-176.6264 951.0391,-180.1265 951.0391,-173.1265"/>
</g>
<!-- Node369 -->
<g id="node12" class="node">
<title>Node369</title>
<g id="a_node12"><a xlink:href="user__main_8c.html#a245ec00253f410a8804988bf40e1037e" target="_top" xlink:title="sample_mode_timer_func">
<polygon fill="#ffffff" stroke="#000000" points="1250,-129.1264 1250,-148.1264 1382,-148.1264 1382,-129.1264 1250,-129.1264"/>
<text text-anchor="middle" x="1316" y="-136.1264" font-family="Helvetica,sans-Serif" font-size="10.00" fill="#000000">sample_mode_timer_func</text>
</a>
</g>
</g>
<!-- Node368&#45;&gt;Node369 -->
<g id="edge12" class="edge">
<title>Node368&#45;&gt;Node369</title>
<path fill="none" stroke="#191970" d="M1084.4844,-164.9029C1096.9993,-162.225 1110.4502,-159.5923 1123,-157.6264 1164.9117,-151.0609 1212.3206,-146.3556 1249.6622,-143.2698"/>
<polygon fill="#191970" stroke="#191970" points="1083.7037,-161.4908 1074.6835,-167.0484 1085.2007,-168.3289 1083.7037,-161.4908"/>
</g>
<!-- Node371 -->
<g id="node14" class="node">
<title>Node371</title>
<g id="a_node14"><a xlink:href="user__main_8h.html#a7a3bf0cc09d98adc72f4e34d26ce3fa1" target="_top" xlink:title="wifi_changed_cb">
<polygon fill="#ffffff" stroke="#000000" points="1123,-167.1264 1123,-186.1264 1214,-186.1264 1214,-167.1264 1123,-167.1264"/>
<text text-anchor="middle" x="1168.5" y="-174.1264" font-family="Helvetica,sans-Serif" font-size="10.00" fill="#000000">wifi_changed_cb</text>
</a>
</g>
</g>
<!-- Node368&#45;&gt;Node371 -->
<g id="edge15" class="edge">
<title>Node368&#45;&gt;Node371</title>
<path fill="none" stroke="#191970" d="M1097.6328,-176.6264C1106.105,-176.6264 1114.666,-176.6264 1122.767,-176.6264"/>
<polygon fill="#191970" stroke="#191970" points="1097.3796,-173.1265 1087.3796,-176.6264 1097.3795,-180.1265 1097.3796,-173.1265"/>
</g>
<!-- Node370 -->
<g id="node13" class="node">
<title>Node370</title>
<g id="a_node13"><a xlink:href="user__main_8h.html#a3671381db669a16e8f6a4bf3dfb9a441" target="_top" xlink:title="system_init_done">
<polygon fill="#ffffff" stroke="#000000" points="1418,-129.1264 1418,-148.1264 1512,-148.1264 1512,-129.1264 1418,-129.1264"/>
<text text-anchor="middle" x="1465" y="-136.1264" font-family="Helvetica,sans-Serif" font-size="10.00" fill="#000000">system_init_done</text>
</a>
</g>
</g>
<!-- Node369&#45;&gt;Node370 -->
<g id="edge13" class="edge">
<title>Node369&#45;&gt;Node370</title>
<path fill="none" stroke="#191970" d="M1392.361,-138.6264C1401.0092,-138.6264 1409.624,-138.6264 1417.7387,-138.6264"/>
<polygon fill="#191970" stroke="#191970" points="1392.2213,-135.1265 1382.2213,-138.6264 1392.2212,-142.1265 1392.2213,-135.1265"/>
</g>
<!-- Node370&#45;&gt;Node363 -->
<g id="edge14" class="edge">
<title>Node370&#45;&gt;Node363</title>
<path fill="none" stroke="#191970" d="M1522.2886,-128.2103C1531.1598,-126.5973 1539.9515,-124.9988 1547.7383,-123.583"/>
<polygon fill="#191970" stroke="#191970" points="1521.5009,-124.796 1512.2883,-130.0285 1522.7531,-131.6831 1521.5009,-124.796"/>
</g>
<!-- Node371&#45;&gt;Node369 -->
<g id="edge16" class="edge">
<title>Node371&#45;&gt;Node369</title>
<path fill="none" stroke="#191970" d="M1215.5141,-164.5143C1236.0566,-159.222 1259.7998,-153.1051 1279.0472,-148.1464"/>
<polygon fill="#191970" stroke="#191970" points="1214.5311,-161.1532 1205.7205,-167.0374 1216.2775,-167.9318 1214.5311,-161.1532"/>
</g>
<!-- Node372&#45;&gt;Node359 -->
<g id="edge20" class="edge">
<title>Node372&#45;&gt;Node359</title>
<path fill="none" stroke="#191970" d="M320.8867,-96.372C312.2441,-96.3944 303.5585,-96.3309 295.16,-96.1815"/>
<polygon fill="#191970" stroke="#191970" points="321.0157,-99.8713 330.9927,-96.3062 320.9701,-92.8715 321.0157,-99.8713"/>
</g>
<!-- Node372&#45;&gt;Node361 -->
<g id="edge21" class="edge">
<title>Node372&#45;&gt;Node361</title>
<path fill="none" stroke="#191970" d="M491.2418,-89.6264C499.8535,-89.6264 508.4785,-89.6264 516.7735,-89.6264"/>
<polygon fill="#191970" stroke="#191970" points="491.1592,-86.1265 481.1592,-89.6264 491.1592,-93.1265 491.1592,-86.1265"/>
</g>
<!-- Node373&#45;&gt;Node359 -->
<g id="edge23" class="edge">
<title>Node373&#45;&gt;Node359</title>
<path fill="none" stroke="#191970" d="M361.8891,-58.7681C341.7353,-65.1604 317.4373,-72.0952 295.16,-77.866"/>
<polygon fill="#191970" stroke="#191970" points="362.9873,-62.0915 371.4228,-55.6812 360.8309,-55.4319 362.9873,-62.0915"/>
</g>
<!-- Node373&#45;&gt;Node361 -->
<g id="edge24" class="edge">
<title>Node373&#45;&gt;Node361</title>
<path fill="none" stroke="#191970" d="M468.8741,-58.4863C494.652,-65.8087 523.4431,-73.987 545.0493,-80.1244"/>
<polygon fill="#191970" stroke="#191970" points="469.7391,-55.0936 459.1632,-55.7278 467.8263,-61.8272 469.7391,-55.0936"/>
</g>
</g>
</svg>
