<?xml version="1.0" encoding="UTF-8" standalone="no"?>
<!DOCTYPE svg PUBLIC "-//W3C//DTD SVG 1.1//EN"
 "http://www.w3.org/Graphics/SVG/1.1/DTD/svg11.dtd">
<!-- Generated by graphviz version 2.39.20160927.1334 (20160927.1334)
 -->
<!-- Title: en61107_receive_timeout_timer_func Pages: 1 -->
<svg width="1204pt" height="398pt"
 viewBox="0.00 0.00 1204.00 398.00" xmlns="http://www.w3.org/2000/svg" xmlns:xlink="http://www.w3.org/1999/xlink">
<g id="graph0" class="graph" transform="scale(1 1) rotate(0) translate(4 394)">
<title>en61107_receive_timeout_timer_func</title>
<polygon fill="#ffffff" stroke="transparent" points="-4,4 -4,-394 1200,-394 1200,4 -4,4"/>
<!-- Node1 -->
<g id="node1" class="node">
<title>Node1</title>
<polygon fill="#bfbfbf" stroke="#000000" points="0,-218 0,-248 132,-248 132,-218 0,-218"/>
<text text-anchor="start" x="8" y="-236" font-family="Helvetica,sans-Serif" font-size="10.00" fill="#000000">en61107_receive_timeout</text>
<text text-anchor="middle" x="66" y="-225" font-family="Helvetica,sans-Serif" font-size="10.00" fill="#000000">_timer_func</text>
</g>
<!-- Node2 -->
<g id="node2" class="node">
<title>Node2</title>
<g id="a_node2"><a xlink:href="en61107__request_8c.html#a7384d014eb9e833f64ecf4a9f86f87be" target="_top" xlink:title="en61107_request_send">
<polygon fill="#ffffff" stroke="#000000" points="168,-223.5 168,-242.5 290,-242.5 290,-223.5 168,-223.5"/>
<text text-anchor="middle" x="229" y="-230.5" font-family="Helvetica,sans-Serif" font-size="10.00" fill="#000000">en61107_request_send</text>
</a>
</g>
</g>
<!-- Node1&#45;&gt;Node2 -->
<g id="edge1" class="edge">
<title>Node1&#45;&gt;Node2</title>
<path fill="none" stroke="#191970" d="M132.298,-233C140.632,-233 149.186,-233 157.595,-233"/>
<polygon fill="#191970" stroke="#191970" points="157.754,-236.5 167.754,-233 157.754,-229.5 157.754,-236.5"/>
</g>
<!-- Node3 -->
<g id="node3" class="node">
<title>Node3</title>
<g id="a_node3"><a xlink:href="espmissingincludes_8h.html#ad228deceea1bac4d9f171f647c265059" target="_top" xlink:title="atoi">
<polygon fill="#ffffff" stroke="#000000" points="385.5,-354.5 385.5,-373.5 418.5,-373.5 418.5,-354.5 385.5,-354.5"/>
<text text-anchor="middle" x="402" y="-361.5" font-family="Helvetica,sans-Serif" font-size="10.00" fill="#000000">atoi</text>
</a>
</g>
</g>
<!-- Node2&#45;&gt;Node3 -->
<g id="edge2" class="edge">
<title>Node2&#45;&gt;Node3</title>
<path fill="none" stroke="#191970" d="M234.408,-242.539C247.274,-264.324 281.949,-317.931 326,-345 340.97,-354.199 360.185,-358.952 375.549,-361.404"/>
<polygon fill="#191970" stroke="#191970" points="375.088,-364.873 385.47,-362.76 376.036,-357.938 375.088,-364.873"/>
</g>
<!-- Node4 -->
<g id="node4" class="node">
<title>Node4</title>
<g id="a_node4"><a xlink:href="en61107__request_8c.html#a8b0d746dce87f92833ba6f5b83febe63" target="_top" xlink:title="en61107_get_data_timer_func">
<polygon fill="#ffffff" stroke="#000000" points="326,-316.5 326,-335.5 478,-335.5 478,-316.5 326,-316.5"/>
<text text-anchor="middle" x="402" y="-323.5" font-family="Helvetica,sans-Serif" font-size="10.00" fill="#000000">en61107_get_data_timer_func</text>
</a>
</g>
</g>
<!-- Node2&#45;&gt;Node4 -->
<g id="edge3" class="edge">
<title>Node2&#45;&gt;Node4</title>
<path fill="none" stroke="#191970" d="M238.828,-242.742C255.378,-258.597 290.497,-289.923 326,-307 330.979,-309.395 336.292,-311.508 341.707,-313.369"/>
<polygon fill="#191970" stroke="#191970" points="340.925,-316.792 351.515,-316.452 343.024,-310.114 340.925,-316.792"/>
</g>
<!-- Node17 -->
<g id="node17" class="node">
<title>Node17</title>
<g id="a_node17"><a xlink:href="en61107__request_8c.html#aedd9da96373c64f704a80d454b575e51" target="_top" xlink:title="en61107_get_register\l_timer_func">
<polygon fill="#ffffff" stroke="#000000" points="345,-267 345,-297 459,-297 459,-267 345,-267"/>
<text text-anchor="start" x="353" y="-285" font-family="Helvetica,sans-Serif" font-size="10.00" fill="#000000">en61107_get_register</text>
<text text-anchor="middle" x="402" y="-274" font-family="Helvetica,sans-Serif" font-size="10.00" fill="#000000">_timer_func</text>
</a>
</g>
</g>
<!-- Node2&#45;&gt;Node17 -->
<g id="edge17" class="edge">
<title>Node2&#45;&gt;Node17</title>
<path fill="none" stroke="#191970" d="M262.767,-242.564C284.478,-248.713 313.356,-256.893 339.183,-264.208"/>
<polygon fill="#191970" stroke="#191970" points="338.335,-267.605 348.91,-266.963 340.243,-260.87 338.335,-267.605"/>
</g>
<!-- Node19 -->
<g id="node19" class="node">
<title>Node19</title>
<g id="a_node19"><a xlink:href="en61107__request_8c.html#a6379eaf88ea35baaf2a3ab8a0ae66fdb" target="_top" xlink:title="en61107_receive_timeout\l_timer_func">
<polygon fill="#ffffff" stroke="#000000" points="336,-218 336,-248 468,-248 468,-218 336,-218"/>
<text text-anchor="start" x="344" y="-236" font-family="Helvetica,sans-Serif" font-size="10.00" fill="#000000">en61107_receive_timeout</text>
<text text-anchor="middle" x="402" y="-225" font-family="Helvetica,sans-Serif" font-size="10.00" fill="#000000">_timer_func</text>
</a>
</g>
</g>
<!-- Node2&#45;&gt;Node19 -->
<g id="edge20" class="edge">
<title>Node2&#45;&gt;Node19</title>
<path fill="none" stroke="#191970" d="M290.48,-226.507C301.823,-226.268 313.793,-226.195 325.515,-226.29"/>
<polygon fill="#191970" stroke="#191970" points="325.688,-229.793 335.73,-226.417 325.774,-222.793 325.688,-229.793"/>
</g>
<!-- Node20 -->
<g id="node20" class="node">
<title>Node20</title>
<g id="a_node20"><a xlink:href="unix__time_8c.html#a36607dbd5be7bee11f8c20932b3df407" target="_top" xlink:title="get_unix_time">
<polygon fill="#ffffff" stroke="#000000" points="362.5,-179.5 362.5,-198.5 441.5,-198.5 441.5,-179.5 362.5,-179.5"/>
<text text-anchor="middle" x="402" y="-186.5" font-family="Helvetica,sans-Serif" font-size="10.00" fill="#000000">get_unix_time</text>
</a>
</g>
</g>
<!-- Node2&#45;&gt;Node20 -->
<g id="edge22" class="edge">
<title>Node2&#45;&gt;Node20</title>
<path fill="none" stroke="#191970" d="M265.833,-223.44C283.947,-218.755 306.11,-213.049 326,-208 335.003,-205.714 344.612,-203.296 353.862,-200.978"/>
<polygon fill="#191970" stroke="#191970" points="354.861,-204.336 363.713,-198.514 353.163,-197.546 354.861,-204.336"/>
</g>
<!-- Node21 -->
<g id="node21" class="node">
<title>Node21</title>
<g id="a_node21"><a xlink:href="mqtt_8h.html#a848a6701c4c7ec3432e38ea57c003aad" target="_top" xlink:title="MQTT publish function. ">
<polygon fill="#ffffff" stroke="#000000" points="360.5,-122.5 360.5,-141.5 443.5,-141.5 443.5,-122.5 360.5,-122.5"/>
<text text-anchor="middle" x="402" y="-129.5" font-family="Helvetica,sans-Serif" font-size="10.00" fill="#000000">MQTT_Publish</text>
</a>
</g>
</g>
<!-- Node2&#45;&gt;Node21 -->
<g id="edge23" class="edge">
<title>Node2&#45;&gt;Node21</title>
<path fill="none" stroke="#191970" d="M242.828,-223.312C261.372,-210.486 295.501,-187.456 326,-170 340.876,-161.486 357.903,-152.873 372.066,-146.004"/>
<polygon fill="#191970" stroke="#191970" points="373.848,-149.031 381.351,-141.55 370.821,-142.72 373.848,-149.031"/>
</g>
<!-- Node5 -->
<g id="node5" class="node">
<title>Node5</title>
<g id="a_node5"><a xlink:href="en61107_8c.html#a1a021306c69de1b9e611fb94cd2f2e4f" target="_top" xlink:title="en61107_get_data">
<polygon fill="#ffffff" stroke="#000000" points="521,-370.5 521,-389.5 621,-389.5 621,-370.5 521,-370.5"/>
<text text-anchor="middle" x="571" y="-377.5" font-family="Helvetica,sans-Serif" font-size="10.00" fill="#000000">en61107_get_data</text>
</a>
</g>
</g>
<!-- Node4&#45;&gt;Node5 -->
<g id="edge4" class="edge">
<title>Node4&#45;&gt;Node5</title>
<path fill="none" stroke="#191970" d="M445.785,-335.571C456.433,-338.274 467.712,-341.458 478,-345 494.555,-350.7 497.676,-354.669 514,-361 519.483,-363.126 525.315,-365.238 531.077,-367.237"/>
<polygon fill="#191970" stroke="#191970" points="530.038,-370.581 540.633,-370.48 532.288,-363.952 530.038,-370.581"/>
</g>
<!-- Node6 -->
<g id="node6" class="node">
<title>Node6</title>
<g id="a_node6"><a xlink:href="uart_8c.html#a87f1c1c2a25d4336eb804da28ed99f7e" target="_top" xlink:title="uart0_tx_buffer">
<polygon fill="#ffffff" stroke="#000000" points="529,-294.5 529,-313.5 613,-313.5 613,-294.5 529,-294.5"/>
<text text-anchor="middle" x="571" y="-301.5" font-family="Helvetica,sans-Serif" font-size="10.00" fill="#000000">uart0_tx_buffer</text>
</a>
</g>
</g>
<!-- Node4&#45;&gt;Node6 -->
<g id="edge5" class="edge">
<title>Node4&#45;&gt;Node6</title>
<path fill="none" stroke="#191970" d="M475.143,-316.478C489.787,-314.572 504.894,-312.605 518.663,-310.813"/>
<polygon fill="#191970" stroke="#191970" points="519.436,-314.242 528.901,-309.48 518.532,-307.301 519.436,-314.242"/>
</g>
<!-- Node8 -->
<g id="node8" class="node">
<title>Node8</title>
<g id="a_node8"><a xlink:href="uart_8c.html#af4416966da7cba189e7998334e2a0bee" target="_top" xlink:title="uart_init">
<polygon fill="#ffffff" stroke="#000000" points="545,-332.5 545,-351.5 597,-351.5 597,-332.5 545,-332.5"/>
<text text-anchor="middle" x="571" y="-339.5" font-family="Helvetica,sans-Serif" font-size="10.00" fill="#000000">uart_init</text>
</a>
</g>
</g>
<!-- Node4&#45;&gt;Node8 -->
<g id="edge7" class="edge">
<title>Node4&#45;&gt;Node8</title>
<path fill="none" stroke="#191970" d="M478.095,-333.204C497.644,-335.055 517.798,-336.963 534.317,-338.527"/>
<polygon fill="#191970" stroke="#191970" points="534.32,-342.043 544.605,-339.501 534.98,-335.074 534.32,-342.043"/>
</g>
<!-- Node7 -->
<g id="node7" class="node">
<title>Node7</title>
<g id="a_node7"><a xlink:href="uart_8c.html#a40bca7ca9b269f93bc9f17924a38fbe0" target="_top" xlink:title="uart_tx_one_char">
<polygon fill="#ffffff" stroke="#000000" points="818,-360.5 818,-379.5 912,-379.5 912,-360.5 818,-360.5"/>
<text text-anchor="middle" x="865" y="-367.5" font-family="Helvetica,sans-Serif" font-size="10.00" fill="#000000">uart_tx_one_char</text>
</a>
</g>
</g>
<!-- Node6&#45;&gt;Node7 -->
<g id="edge6" class="edge">
<title>Node6&#45;&gt;Node7</title>
<path fill="none" stroke="#191970" d="M613.123,-313.456C665.697,-325.259 755.616,-345.444 812.588,-358.234"/>
<polygon fill="#191970" stroke="#191970" points="811.954,-361.679 822.478,-360.454 813.488,-354.849 811.954,-361.679"/>
</g>
<!-- Node9 -->
<g id="node9" class="node">
<title>Node9</title>
<g id="a_node9"><a xlink:href="uart_8c.html#a6d11dbbb730e8898c2a8922f4217ab5c" target="_top" xlink:title="uart0_write_char">
<polygon fill="#ffffff" stroke="#000000" points="673,-370.5 673,-389.5 764,-389.5 764,-370.5 673,-370.5"/>
<text text-anchor="middle" x="718.5" y="-377.5" font-family="Helvetica,sans-Serif" font-size="10.00" fill="#000000">uart0_write_char</text>
</a>
</g>
</g>
<!-- Node8&#45;&gt;Node9 -->
<g id="edge8" class="edge">
<title>Node8&#45;&gt;Node9</title>
<path fill="none" stroke="#191970" d="M597.031,-348.706C617.601,-354.006 646.853,-361.542 671.496,-367.89"/>
<polygon fill="#191970" stroke="#191970" points="670.827,-371.332 681.384,-370.438 672.574,-364.554 670.827,-371.332"/>
</g>
<!-- Node10 -->
<g id="node10" class="node">
<title>Node10</title>
<g id="a_node10"><a xlink:href="uart_8c.html#a489b77b74dfee22fd4f0c5323ab44da6" target="_top" xlink:title="uart_config">
<polygon fill="#ffffff" stroke="#000000" points="685.5,-294.5 685.5,-313.5 751.5,-313.5 751.5,-294.5 685.5,-294.5"/>
<text text-anchor="middle" x="718.5" y="-301.5" font-family="Helvetica,sans-Serif" font-size="10.00" fill="#000000">uart_config</text>
</a>
</g>
</g>
<!-- Node8&#45;&gt;Node10 -->
<g id="edge10" class="edge">
<title>Node8&#45;&gt;Node10</title>
<path fill="none" stroke="#191970" d="M597.031,-335.294C618.788,-329.689 650.256,-321.581 675.712,-315.023"/>
<polygon fill="#191970" stroke="#191970" points="676.684,-318.387 685.494,-312.503 674.937,-311.609 676.684,-318.387"/>
</g>
<!-- Node9&#45;&gt;Node7 -->
<g id="edge9" class="edge">
<title>Node9&#45;&gt;Node7</title>
<path fill="none" stroke="#191970" d="M764.05,-376.891C777.839,-375.95 793.163,-374.904 807.62,-373.917"/>
<polygon fill="#191970" stroke="#191970" points="808.222,-377.384 817.96,-373.211 807.745,-370.4 808.222,-377.384"/>
</g>
<!-- Node11 -->
<g id="node11" class="node">
<title>Node11</title>
<g id="a_node11"><a xlink:href="uart_8c.html#a899cd55c7d84717f3e869e4ee5bfda84" target="_top" xlink:title="uart0_rx_intr_handler">
<polygon fill="#ffffff" stroke="#000000" points="809,-265.5 809,-284.5 921,-284.5 921,-265.5 809,-265.5"/>
<text text-anchor="middle" x="865" y="-272.5" font-family="Helvetica,sans-Serif" font-size="10.00" fill="#000000">uart0_rx_intr_handler</text>
</a>
</g>
</g>
<!-- Node10&#45;&gt;Node11 -->
<g id="edge11" class="edge">
<title>Node10&#45;&gt;Node11</title>
<path fill="none" stroke="#191970" d="M751.743,-297.419C768.059,-294.19 788.195,-290.204 806.942,-286.493"/>
<polygon fill="#191970" stroke="#191970" points="807.755,-289.9 816.885,-284.525 806.395,-283.033 807.755,-289.9"/>
</g>
<!-- Node16 -->
<g id="node16" class="node">
<title>Node16</title>
<g id="a_node16"><a xlink:href="espmissingincludes_8h.html#a1bea1725066e012f8f618d08ed7fee45" target="_top" xlink:title="uart_div_modify">
<polygon fill="#ffffff" stroke="#000000" points="821.5,-303.5 821.5,-322.5 908.5,-322.5 908.5,-303.5 821.5,-303.5"/>
<text text-anchor="middle" x="865" y="-310.5" font-family="Helvetica,sans-Serif" font-size="10.00" fill="#000000">uart_div_modify</text>
</a>
</g>
</g>
<!-- Node10&#45;&gt;Node16 -->
<g id="edge16" class="edge">
<title>Node10&#45;&gt;Node16</title>
<path fill="none" stroke="#191970" d="M751.743,-306.042C769.284,-307.12 791.241,-308.469 811.14,-309.691"/>
<polygon fill="#191970" stroke="#191970" points="811.128,-313.197 821.324,-310.317 811.558,-306.21 811.128,-313.197"/>
</g>
<!-- Node12 -->
<g id="node12" class="node">
<title>Node12</title>
<g id="a_node12"><a xlink:href="en61107__request_8c.html#ae20bf12760f56ac48afdd0c7952d168b" target="_top" xlink:title="en61107_fifo_put">
<polygon fill="#ffffff" stroke="#000000" points="957,-284.5 957,-303.5 1051,-303.5 1051,-284.5 957,-284.5"/>
<text text-anchor="middle" x="1004" y="-291.5" font-family="Helvetica,sans-Serif" font-size="10.00" fill="#000000">en61107_fifo_put</text>
</a>
</g>
</g>
<!-- Node11&#45;&gt;Node12 -->
<g id="edge12" class="edge">
<title>Node11&#45;&gt;Node12</title>
<path fill="none" stroke="#191970" d="M921.136,-282.673C929.492,-283.816 938.117,-284.994 946.501,-286.14"/>
<polygon fill="#191970" stroke="#191970" points="946.192,-289.631 956.574,-287.517 947.14,-282.695 946.192,-289.631"/>
</g>
<!-- Node14 -->
<g id="node14" class="node">
<title>Node14</title>
<g id="a_node14"><a xlink:href="kmp__request_8c.html#a3a189e5f8a1ffa68dacbe1a0e7080c65" target="_top" xlink:title="kmp_fifo_put">
<polygon fill="#ffffff" stroke="#000000" points="967,-246.5 967,-265.5 1041,-265.5 1041,-246.5 967,-246.5"/>
<text text-anchor="middle" x="1004" y="-253.5" font-family="Helvetica,sans-Serif" font-size="10.00" fill="#000000">kmp_fifo_put</text>
</a>
</g>
</g>
<!-- Node11&#45;&gt;Node14 -->
<g id="edge14" class="edge">
<title>Node11&#45;&gt;Node14</title>
<path fill="none" stroke="#191970" d="M921.136,-267.327C932.904,-265.718 945.204,-264.037 956.615,-262.477"/>
<polygon fill="#191970" stroke="#191970" points="957.371,-265.906 966.805,-261.084 956.423,-258.971 957.371,-265.906"/>
</g>
<!-- Node13 -->
<g id="node13" class="node">
<title>Node13</title>
<g id="a_node13"><a xlink:href="en61107__request_8c.html#a9984f86f367d70ca77edce2accd01c64" target="_top" xlink:title="en61107_fifo_in_use">
<polygon fill="#ffffff" stroke="#000000" points="1087,-284.5 1087,-303.5 1196,-303.5 1196,-284.5 1087,-284.5"/>
<text text-anchor="middle" x="1141.5" y="-291.5" font-family="Helvetica,sans-Serif" font-size="10.00" fill="#000000">en61107_fifo_in_use</text>
</a>
</g>
</g>
<!-- Node12&#45;&gt;Node13 -->
<g id="edge13" class="edge">
<title>Node12&#45;&gt;Node13</title>
<path fill="none" stroke="#191970" d="M1051.32,-294C1059.38,-294 1067.88,-294 1076.31,-294"/>
<polygon fill="#191970" stroke="#191970" points="1076.52,-297.5 1086.52,-294 1076.52,-290.5 1076.52,-297.5"/>
</g>
<!-- Node15 -->
<g id="node15" class="node">
<title>Node15</title>
<g id="a_node15"><a xlink:href="kmp__request_8c.html#a50794131d44d1f5c42484104202be6df" target="_top" xlink:title="kmp_fifo_in_use">
<polygon fill="#ffffff" stroke="#000000" points="1097,-246.5 1097,-265.5 1186,-265.5 1186,-246.5 1097,-246.5"/>
<text text-anchor="middle" x="1141.5" y="-253.5" font-family="Helvetica,sans-Serif" font-size="10.00" fill="#000000">kmp_fifo_in_use</text>
</a>
</g>
</g>
<!-- Node14&#45;&gt;Node15 -->
<g id="edge15" class="edge">
<title>Node14&#45;&gt;Node15</title>
<path fill="none" stroke="#191970" d="M1041.21,-256C1055.17,-256 1071.34,-256 1086.57,-256"/>
<polygon fill="#191970" stroke="#191970" points="1086.92,-259.5 1096.92,-256 1086.92,-252.5 1086.92,-259.5"/>
</g>
<!-- Node17&#45;&gt;Node6 -->
<g id="edge19" class="edge">
<title>Node17&#45;&gt;Node6</title>
<path fill="none" stroke="#191970" d="M459.216,-289.448C478.534,-291.963 499.984,-294.755 518.886,-297.216"/>
<polygon fill="#191970" stroke="#191970" points="518.436,-300.687 528.804,-298.507 519.339,-293.745 518.436,-300.687"/>
</g>
<!-- Node18 -->
<g id="node18" class="node">
<title>Node18</title>
<g id="a_node18"><a xlink:href="en61107_8c.html#a644b7692f15bd4b614a144f18debf66c" target="_top" xlink:title="en61107_get_register">
<polygon fill="#ffffff" stroke="#000000" points="514,-256.5 514,-275.5 628,-275.5 628,-256.5 514,-256.5"/>
<text text-anchor="middle" x="571" y="-263.5" font-family="Helvetica,sans-Serif" font-size="10.00" fill="#000000">en61107_get_register</text>
</a>
</g>
</g>
<!-- Node17&#45;&gt;Node18 -->
<g id="edge18" class="edge">
<title>Node17&#45;&gt;Node18</title>
<path fill="none" stroke="#191970" d="M459.216,-276.583C473.532,-275.228 489.018,-273.762 503.77,-272.365"/>
<polygon fill="#191970" stroke="#191970" points="504.218,-275.838 513.843,-271.411 503.558,-268.869 504.218,-275.838"/>
</g>
<!-- Node19&#45;&gt;Node2 -->
<g id="edge21" class="edge">
<title>Node19&#45;&gt;Node2</title>
<path fill="none" stroke="#191970" d="M335.73,-239.583C324.229,-239.776 312.223,-239.802 300.588,-239.66"/>
<polygon fill="#191970" stroke="#191970" points="300.537,-236.159 290.48,-239.493 300.421,-243.158 300.537,-236.159"/>
</g>
<!-- Node22 -->
<g id="node22" class="node">
<title>Node22</title>
<g id="a_node22"><a xlink:href="mqtt__msg_8h.html#af16842423fc1d5d802a7f329fc3a9ef9" target="_top" xlink:title="mqtt_msg_publish">
<polygon fill="#ffffff" stroke="#000000" points="522,-161.5 522,-180.5 620,-180.5 620,-161.5 522,-161.5"/>
<text text-anchor="middle" x="571" y="-168.5" font-family="Helvetica,sans-Serif" font-size="10.00" fill="#000000">mqtt_msg_publish</text>
</a>
</g>
</g>
<!-- Node21&#45;&gt;Node22 -->
<g id="edge24" class="edge">
<title>Node21&#45;&gt;Node22</title>
<path fill="none" stroke="#191970" d="M443.342,-141.54C466.445,-146.872 495.432,-153.561 519.943,-159.218"/>
<polygon fill="#191970" stroke="#191970" points="519.261,-162.652 529.792,-161.491 520.835,-155.831 519.261,-162.652"/>
</g>
<!-- Node28 -->
<g id="node28" class="node">
<title>Node28</title>
<g id="a_node28"><a xlink:href="queue_8h.html#acf070d5db9067c0b9598dec844313ae5" target="_top" xlink:title="QUEUE_Gets">
<polygon fill="#ffffff" stroke="#000000" points="531.5,-85.5 531.5,-104.5 610.5,-104.5 610.5,-85.5 531.5,-85.5"/>
<text text-anchor="middle" x="571" y="-92.5" font-family="Helvetica,sans-Serif" font-size="10.00" fill="#000000">QUEUE_Gets</text>
</a>
</g>
</g>
<!-- Node21&#45;&gt;Node28 -->
<g id="edge30" class="edge">
<title>Node21&#45;&gt;Node28</title>
<path fill="none" stroke="#191970" d="M443.775,-122.854C467.314,-117.7 496.856,-111.233 521.546,-105.827"/>
<polygon fill="#191970" stroke="#191970" points="522.427,-109.217 531.447,-103.66 520.93,-102.379 522.427,-109.217"/>
</g>
<!-- Node33 -->
<g id="node33" class="node">
<title>Node33</title>
<g id="a_node33"><a xlink:href="queue_8h.html#a0a04f14d06c5c3ee302764c5f3d7dc0c" target="_top" xlink:title="QUEUE_Puts">
<polygon fill="#ffffff" stroke="#000000" points="532,-43.5 532,-62.5 610,-62.5 610,-43.5 532,-43.5"/>
<text text-anchor="middle" x="571" y="-50.5" font-family="Helvetica,sans-Serif" font-size="10.00" fill="#000000">QUEUE_Puts</text>
</a>
</g>
</g>
<!-- Node21&#45;&gt;Node33 -->
<g id="edge35" class="edge">
<title>Node21&#45;&gt;Node33</title>
<path fill="none" stroke="#191970" d="M420.02,-122.43C441.974,-110.901 480.309,-91.1907 514,-76 521.319,-72.7001 529.259,-69.3533 536.823,-66.2722"/>
<polygon fill="#191970" stroke="#191970" points="538.153,-69.5099 546.128,-62.5351 535.544,-63.0142 538.153,-69.5099"/>
</g>
<!-- Node23 -->
<g id="node23" class="node">
<title>Node23</title>
<g id="a_node23"><a xlink:href="mqtt__msg_8c.html#ac59e26babd30c6c0ace9a174e75786f3" target="_top" xlink:title="append_message_id">
<polygon fill="#ffffff" stroke="#000000" points="664,-142.5 664,-161.5 773,-161.5 773,-142.5 664,-142.5"/>
<text text-anchor="middle" x="718.5" y="-149.5" font-family="Helvetica,sans-Serif" font-size="10.00" fill="#000000">append_message_id</text>
</a>
</g>
</g>
<!-- Node22&#45;&gt;Node23 -->
<g id="edge25" class="edge">
<title>Node22&#45;&gt;Node23</title>
<path fill="none" stroke="#191970" d="M620.115,-164.673C630.831,-163.293 642.33,-161.812 653.553,-160.366"/>
<polygon fill="#191970" stroke="#191970" points="654.281,-163.801 663.752,-159.052 653.386,-156.859 654.281,-163.801"/>
</g>
<!-- Node24 -->
<g id="node24" class="node">
<title>Node24</title>
<g id="a_node24"><a xlink:href="mqtt__msg_8c.html#a207c99e2058080b97c21a348d693a560" target="_top" xlink:title="append_string">
<polygon fill="#ffffff" stroke="#000000" points="678.5,-104.5 678.5,-123.5 758.5,-123.5 758.5,-104.5 678.5,-104.5"/>
<text text-anchor="middle" x="718.5" y="-111.5" font-family="Helvetica,sans-Serif" font-size="10.00" fill="#000000">append_string</text>
</a>
</g>
</g>
<!-- Node22&#45;&gt;Node24 -->
<g id="edge26" class="edge">
<title>Node22&#45;&gt;Node24</title>
<path fill="none" stroke="#191970" d="M593.42,-161.453C612.176,-153.56 639.693,-142.196 664,-133 669.272,-131.006 674.858,-128.97 680.366,-127.008"/>
<polygon fill="#191970" stroke="#191970" points="681.839,-130.201 690.112,-123.581 679.517,-123.597 681.839,-130.201"/>
</g>
<!-- Node25 -->
<g id="node25" class="node">
<title>Node25</title>
<g id="a_node25"><a xlink:href="mqtt__msg_8c.html#a9a2fb8c67ff4b104dd46e72c9e97b710" target="_top" xlink:title="fail_message">
<polygon fill="#ffffff" stroke="#000000" points="681,-256.5 681,-275.5 756,-275.5 756,-256.5 681,-256.5"/>
<text text-anchor="middle" x="718.5" y="-263.5" font-family="Helvetica,sans-Serif" font-size="10.00" fill="#000000">fail_message</text>
</a>
</g>
</g>
<!-- Node22&#45;&gt;Node25 -->
<g id="edge27" class="edge">
<title>Node22&#45;&gt;Node25</title>
<path fill="none" stroke="#191970" d="M580.467,-180.691C596.398,-196.521 630.157,-228.057 664,-247 667.689,-249.065 671.642,-250.965 675.672,-252.699"/>
<polygon fill="#191970" stroke="#191970" points="674.541,-256.015 685.127,-256.442 677.117,-249.507 674.541,-256.015"/>
</g>
<!-- Node26 -->
<g id="node26" class="node">
<title>Node26</title>
<g id="a_node26"><a xlink:href="mqtt__msg_8c.html#a356949afe8a334d5e91bddb4b2794921" target="_top" xlink:title="fini_message">
<polygon fill="#ffffff" stroke="#000000" points="681,-218.5 681,-237.5 756,-237.5 756,-218.5 681,-218.5"/>
<text text-anchor="middle" x="718.5" y="-225.5" font-family="Helvetica,sans-Serif" font-size="10.00" fill="#000000">fini_message</text>
</a>
</g>
</g>
<!-- Node22&#45;&gt;Node26 -->
<g id="edge28" class="edge">
<title>Node22&#45;&gt;Node26</title>
<path fill="none" stroke="#191970" d="M593.42,-180.547C612.176,-188.44 639.693,-199.804 664,-209 669.272,-210.994 674.858,-213.03 680.366,-214.992"/>
<polygon fill="#191970" stroke="#191970" points="679.517,-218.403 690.112,-218.419 681.839,-211.799 679.517,-218.403"/>
</g>
<!-- Node27 -->
<g id="node27" class="node">
<title>Node27</title>
<g id="a_node27"><a xlink:href="mqtt__msg_8c.html#aae7c66cc577ac90e9535edac4abc068c" target="_top" xlink:title="init_message">
<polygon fill="#ffffff" stroke="#000000" points="681,-180.5 681,-199.5 756,-199.5 756,-180.5 681,-180.5"/>
<text text-anchor="middle" x="718.5" y="-187.5" font-family="Helvetica,sans-Serif" font-size="10.00" fill="#000000">init_message</text>
</a>
</g>
</g>
<!-- Node22&#45;&gt;Node27 -->
<g id="edge29" class="edge">
<title>Node22&#45;&gt;Node27</title>
<path fill="none" stroke="#191970" d="M620.115,-177.327C636.339,-179.417 654.36,-181.738 670.5,-183.817"/>
<polygon fill="#191970" stroke="#191970" points="670.431,-187.337 680.796,-185.143 671.325,-180.394 670.431,-187.337"/>
</g>
<!-- Node29 -->
<g id="node29" class="node">
<title>Node29</title>
<g id="a_node29"><a xlink:href="proto_8h.html#a4ce0ecd80c57cb13f47a2725036451af" target="_top" xlink:title="PROTO_ParseRb">
<polygon fill="#ffffff" stroke="#000000" points="670,-66.5 670,-85.5 767,-85.5 767,-66.5 670,-66.5"/>
<text text-anchor="middle" x="718.5" y="-73.5" font-family="Helvetica,sans-Serif" font-size="10.00" fill="#000000">PROTO_ParseRb</text>
</a>
</g>
</g>
<!-- Node28&#45;&gt;Node29 -->
<g id="edge31" class="edge">
<title>Node28&#45;&gt;Node29</title>
<path fill="none" stroke="#191970" d="M610.527,-89.9083C625.65,-87.9603 643.24,-85.6945 659.777,-83.5643"/>
<polygon fill="#191970" stroke="#191970" points="660.435,-87.0085 669.906,-82.2596 659.541,-80.0659 660.435,-87.0085"/>
</g>
<!-- Node30 -->
<g id="node30" class="node">
<title>Node30</title>
<g id="a_node30"><a xlink:href="proto_8c.html#aef0525e6fb0717f1ae3816f5a59fbd08" target="_top" xlink:title="PROTO_Init">
<polygon fill="#ffffff" stroke="#000000" points="829.5,-38.5 829.5,-57.5 900.5,-57.5 900.5,-38.5 829.5,-38.5"/>
<text text-anchor="middle" x="865" y="-45.5" font-family="Helvetica,sans-Serif" font-size="10.00" fill="#000000">PROTO_Init</text>
</a>
</g>
</g>
<!-- Node29&#45;&gt;Node30 -->
<g id="edge32" class="edge">
<title>Node29&#45;&gt;Node30</title>
<path fill="none" stroke="#191970" d="M767.282,-66.6764C784.101,-63.4619 802.865,-59.8757 819.418,-56.7119"/>
<polygon fill="#191970" stroke="#191970" points="820.237,-60.1188 829.402,-54.8037 818.923,-53.2433 820.237,-60.1188"/>
</g>
<!-- Node31 -->
<g id="node31" class="node">
<title>Node31</title>
<g id="a_node31"><a xlink:href="proto_8c.html#ada6cc416001736d9b313d8871024e616" target="_top" xlink:title="PROTO_ParseByte">
<polygon fill="#ffffff" stroke="#000000" points="813,-114.5 813,-133.5 917,-133.5 917,-114.5 813,-114.5"/>
<text text-anchor="middle" x="865" y="-121.5" font-family="Helvetica,sans-Serif" font-size="10.00" fill="#000000">PROTO_ParseByte</text>
</a>
</g>
</g>
<!-- Node29&#45;&gt;Node31 -->
<g id="edge33" class="edge">
<title>Node29&#45;&gt;Node31</title>
<path fill="none" stroke="#191970" d="M747.794,-85.5982C770.252,-92.9561 801.456,-103.18 826.021,-111.229"/>
<polygon fill="#191970" stroke="#191970" points="825.164,-114.631 835.756,-114.418 827.343,-107.979 825.164,-114.631"/>
</g>
<!-- Node32 -->
<g id="node32" class="node">
<title>Node32</title>
<g id="a_node32"><a xlink:href="ringbuf_8h.html#a2b4ae6481762403eec1f2072eb30217a" target="_top" xlink:title="get a character from ring buffer ">
<polygon fill="#ffffff" stroke="#000000" points="823.5,-76.5 823.5,-95.5 906.5,-95.5 906.5,-76.5 823.5,-76.5"/>
<text text-anchor="middle" x="865" y="-83.5" font-family="Helvetica,sans-Serif" font-size="10.00" fill="#000000">RINGBUF_Get</text>
</a>
</g>
</g>
<!-- Node29&#45;&gt;Node32 -->
<g id="edge34" class="edge">
<title>Node29&#45;&gt;Node32</title>
<path fill="none" stroke="#191970" d="M767.282,-79.3299C782.026,-80.3362 798.263,-81.4446 813.196,-82.4639"/>
<polygon fill="#191970" stroke="#191970" points="813.076,-85.9638 823.292,-83.153 813.553,-78.98 813.076,-85.9638"/>
</g>
<!-- Node34 -->
<g id="node34" class="node">
<title>Node34</title>
<g id="a_node34"><a xlink:href="proto_8h.html#aeeb0162a48bf377e468e5fca672a5df1" target="_top" xlink:title="PROTO_AddRb">
<polygon fill="#ffffff" stroke="#000000" points="674.5,-19.5 674.5,-38.5 762.5,-38.5 762.5,-19.5 674.5,-19.5"/>
<text text-anchor="middle" x="718.5" y="-26.5" font-family="Helvetica,sans-Serif" font-size="10.00" fill="#000000">PROTO_AddRb</text>
</a>
</g>
</g>
<!-- Node33&#45;&gt;Node34 -->
<g id="edge36" class="edge">
<title>Node33&#45;&gt;Node34</title>
<path fill="none" stroke="#191970" d="M610.14,-46.6315C626.769,-43.9257 646.435,-40.7259 664.417,-37.7999"/>
<polygon fill="#191970" stroke="#191970" points="665.181,-41.2218 674.489,-36.1612 664.056,-34.3127 665.181,-41.2218"/>
</g>
<!-- Node35 -->
<g id="node35" class="node">
<title>Node35</title>
<g id="a_node35"><a xlink:href="ringbuf_8h.html#a717173daf1397da584236ed52bbec10a" target="_top" xlink:title="put a character into ring buffer ">
<polygon fill="#ffffff" stroke="#000000" points="824,-0.5 824,-19.5 906,-19.5 906,-0.5 824,-0.5"/>
<text text-anchor="middle" x="865" y="-7.5" font-family="Helvetica,sans-Serif" font-size="10.00" fill="#000000">RINGBUF_Put</text>
</a>
</g>
</g>
<!-- Node34&#45;&gt;Node35 -->
<g id="edge37" class="edge">
<title>Node34&#45;&gt;Node35</title>
<path fill="none" stroke="#191970" d="M762.852,-23.2478C778.893,-21.1675 797.135,-18.8016 813.721,-16.6505"/>
<polygon fill="#191970" stroke="#191970" points="814.333,-20.1005 823.8,-15.3433 813.433,-13.1586 814.333,-20.1005"/>
</g>
</g>
</svg>
