<?xml version="1.0" encoding="UTF-8" standalone="no"?>
<!DOCTYPE svg PUBLIC "-//W3C//DTD SVG 1.1//EN"
 "http://www.w3.org/Graphics/SVG/1.1/DTD/svg11.dtd">
<!-- Generated by graphviz version 2.40.1 (20161225.0304)
 -->
<!-- Title: en61107_delayed_uart_change_setting_timer_func Pages: 1 -->
<svg width="1149pt" height="191pt"
 viewBox="0.00 0.00 1149.00 191.39" xmlns="http://www.w3.org/2000/svg" xmlns:xlink="http://www.w3.org/1999/xlink">
<g id="graph0" class="graph" transform="scale(1 1) rotate(0) translate(4 187.3892)">
<title>en61107_delayed_uart_change_setting_timer_func</title>
<polygon fill="#ffffff" stroke="transparent" points="-4,4 -4,-187.3892 1145,-187.3892 1145,4 -4,4"/>
<!-- Node4 -->
<g id="node1" class="node">
<title>Node4</title>
<polygon fill="#bfbfbf" stroke="#000000" points="0,-52.3548 0,-82.3548 142,-82.3548 142,-52.3548 0,-52.3548"/>
<text text-anchor="start" x="8" y="-70.3548" font-family="Helvetica,sans-Serif" font-size="10.00" fill="#000000">en61107_delayed_uart</text>
<text text-anchor="middle" x="71" y="-59.3548" font-family="Helvetica,sans-Serif" font-size="10.00" fill="#000000">_change_setting_timer_func</text>
</g>
<!-- Node5 -->
<g id="node2" class="node">
<title>Node5</title>
<g id="a_node2"><a xlink:href="en61107__request_8h.html#a8b6b61143d95d3af3813f8be1aaf3447" target="_top" xlink:title="en61107_uart_send_en61107">
<polygon fill="#ffffff" stroke="#000000" points="683,-150.8548 683,-169.8548 833,-169.8548 833,-150.8548 683,-150.8548"/>
<text text-anchor="middle" x="758" y="-157.8548" font-family="Helvetica,sans-Serif" font-size="10.00" fill="#000000">en61107_uart_send_en61107</text>
</a>
</g>
</g>
<!-- Node4&#45;&gt;Node5 -->
<g id="edge1" class="edge">
<title>Node4&#45;&gt;Node5</title>
<path fill="none" stroke="#191970" d="M97.413,-88.5943C118.1087,-104.0881 148.2831,-124.2448 178,-135.3548 356.1914,-201.9733 586.9187,-183.946 695.8438,-169.8773"/>
<polygon fill="#191970" stroke="#191970" points="99.4959,-85.781 89.4246,-82.4916 95.2464,-91.3436 99.4959,-85.781"/>
</g>
<!-- Node8 -->
<g id="node5" class="node">
<title>Node8</title>
<g id="a_node5"><a xlink:href="en61107__request_8h.html#a353102f2f89ad4ed996501752c0ac59c" target="_top" xlink:title="en61107_uart_send_en61107\l_ident">
<polygon fill="#ffffff" stroke="#000000" points="178,-52.3548 178,-82.3548 328,-82.3548 328,-52.3548 178,-52.3548"/>
<text text-anchor="start" x="186" y="-70.3548" font-family="Helvetica,sans-Serif" font-size="10.00" fill="#000000">en61107_uart_send_en61107</text>
<text text-anchor="middle" x="253" y="-59.3548" font-family="Helvetica,sans-Serif" font-size="10.00" fill="#000000">_ident</text>
</a>
</g>
</g>
<!-- Node4&#45;&gt;Node8 -->
<g id="edge4" class="edge">
<title>Node4&#45;&gt;Node8</title>
<path fill="none" stroke="#191970" d="M152.1659,-67.3548C160.762,-67.3548 169.4765,-67.3548 177.9978,-67.3548"/>
<polygon fill="#191970" stroke="#191970" points="152.1479,-63.8549 142.1479,-67.3548 152.1479,-70.8549 152.1479,-63.8549"/>
</g>
<!-- Node10 -->
<g id="node7" class="node">
<title>Node10</title>
<g id="a_node7"><a xlink:href="en61107__request_8h.html#afdb1795bdd4212fc7e028a9e5668fab4" target="_top" xlink:title="en61107_uart_send_standard\l_data_1">
<polygon fill="#ffffff" stroke="#000000" points="683,-101.3548 683,-131.3548 833,-131.3548 833,-101.3548 683,-101.3548"/>
<text text-anchor="start" x="691" y="-119.3548" font-family="Helvetica,sans-Serif" font-size="10.00" fill="#000000">en61107_uart_send_standard</text>
<text text-anchor="middle" x="758" y="-108.3548" font-family="Helvetica,sans-Serif" font-size="10.00" fill="#000000">_data_1</text>
</a>
</g>
</g>
<!-- Node4&#45;&gt;Node10 -->
<g id="edge21" class="edge">
<title>Node4&#45;&gt;Node10</title>
<path fill="none" stroke="#191970" d="M123.1466,-85.6596C181.1052,-104.957 277.9009,-134.0906 364,-145.3548 488.743,-161.6746 522.0988,-154.4162 647,-139.3548 662.5332,-137.4817 679.1236,-134.5538 694.6166,-131.407"/>
<polygon fill="#191970" stroke="#191970" points="124.0812,-82.2814 113.4872,-82.4146 121.8519,-88.917 124.0812,-82.2814"/>
</g>
<!-- Node11 -->
<g id="node8" class="node">
<title>Node11</title>
<g id="a_node8"><a xlink:href="en61107__request_8h.html#a10b80328698f459ae2251fe146cdc375" target="_top" xlink:title="en61107_uart_send_standard\l_data_2">
<polygon fill="#ffffff" stroke="#000000" points="683,-52.3548 683,-82.3548 833,-82.3548 833,-52.3548 683,-52.3548"/>
<text text-anchor="start" x="691" y="-70.3548" font-family="Helvetica,sans-Serif" font-size="10.00" fill="#000000">en61107_uart_send_standard</text>
<text text-anchor="middle" x="758" y="-59.3548" font-family="Helvetica,sans-Serif" font-size="10.00" fill="#000000">_data_2</text>
</a>
</g>
</g>
<!-- Node4&#45;&gt;Node11 -->
<g id="edge22" class="edge">
<title>Node4&#45;&gt;Node11</title>
<path fill="none" stroke="#191970" d="M134.6072,-49.971C148.7834,-46.805 163.8177,-43.9896 178,-42.3548 385.0733,-18.4854 439.8329,-19.3137 647,-42.3548 665.2582,-44.3855 684.8997,-48.2401 702.5099,-52.3254"/>
<polygon fill="#191970" stroke="#191970" points="133.4103,-46.6557 124.4608,-52.3265 134.9933,-53.4744 133.4103,-46.6557"/>
</g>
<!-- Node12 -->
<g id="node9" class="node">
<title>Node12</title>
<g id="a_node9"><a xlink:href="en61107__request_8h.html#a74c2d949e6bb3b65cdf794a0643dd67d" target="_top" xlink:title="en61107_uart_send_inst\l_values">
<polygon fill="#ffffff" stroke="#000000" points="694.5,-3.3548 694.5,-33.3548 821.5,-33.3548 821.5,-3.3548 694.5,-3.3548"/>
<text text-anchor="start" x="702.5" y="-21.3548" font-family="Helvetica,sans-Serif" font-size="10.00" fill="#000000">en61107_uart_send_inst</text>
<text text-anchor="middle" x="758" y="-10.3548" font-family="Helvetica,sans-Serif" font-size="10.00" fill="#000000">_values</text>
</a>
</g>
</g>
<!-- Node4&#45;&gt;Node12 -->
<g id="edge20" class="edge">
<title>Node4&#45;&gt;Node12</title>
<path fill="none" stroke="#191970" d="M109.1434,-48.0589C129.1098,-38.9921 154.2817,-29.1411 178,-24.3548 362.341,12.8446 586.3835,-1.0364 694.1049,-11.2683"/>
<polygon fill="#191970" stroke="#191970" points="107.6611,-44.8882 100.0752,-52.2845 110.6177,-51.2332 107.6611,-44.8882"/>
</g>
<!-- Node6 -->
<g id="node3" class="node">
<title>Node6</title>
<g id="a_node3"><a xlink:href="en61107__request_8c.html#aa3b162cf5364986ea19e831ac2b18f76" target="_top" xlink:title="en61107_received_task">
<polygon fill="#ffffff" stroke="#000000" points="869,-81.8548 869,-100.8548 992,-100.8548 992,-81.8548 869,-81.8548"/>
<text text-anchor="middle" x="930.5" y="-88.8548" font-family="Helvetica,sans-Serif" font-size="10.00" fill="#000000">en61107_received_task</text>
</a>
</g>
</g>
<!-- Node5&#45;&gt;Node6 -->
<g id="edge2" class="edge">
<title>Node5&#45;&gt;Node6</title>
<path fill="none" stroke="#191970" d="M812.6319,-148.0568C819.5623,-146.0475 826.4988,-143.8091 833,-141.3548 862.8991,-130.0671 895.5454,-112.0613 914.4567,-101.0161"/>
<polygon fill="#191970" stroke="#191970" points="811.2469,-144.8077 802.5339,-150.8354 813.1041,-151.5569 811.2469,-144.8077"/>
</g>
<!-- Node7 -->
<g id="node4" class="node">
<title>Node7</title>
<g id="a_node4"><a xlink:href="en61107__request_8h.html#acd43242675a3f25e7c3b530eac9d8b3a" target="_top" xlink:title="en61107_request_init">
<polygon fill="#ffffff" stroke="#000000" points="1028,-81.8548 1028,-100.8548 1141,-100.8548 1141,-81.8548 1028,-81.8548"/>
<text text-anchor="middle" x="1084.5" y="-88.8548" font-family="Helvetica,sans-Serif" font-size="10.00" fill="#000000">en61107_request_init</text>
</a>
</g>
</g>
<!-- Node6&#45;&gt;Node7 -->
<g id="edge3" class="edge">
<title>Node6&#45;&gt;Node7</title>
<path fill="none" stroke="#191970" d="M1002.5049,-91.3548C1010.9673,-91.3548 1019.5105,-91.3548 1027.7234,-91.3548"/>
<polygon fill="#191970" stroke="#191970" points="1002.2504,-87.8549 992.2504,-91.3548 1002.2503,-94.8549 1002.2504,-87.8549"/>
</g>
<!-- Node9 -->
<g id="node6" class="node">
<title>Node9</title>
<g id="a_node6"><a xlink:href="en61107__request_8h.html#a22f1fee248eec0eeacf220c69b878a28" target="_top" xlink:title="en61107_receive_timeout\l_timer_func">
<polygon fill="#ffffff" stroke="#000000" points="515,-52.3548 515,-82.3548 647,-82.3548 647,-52.3548 515,-52.3548"/>
<text text-anchor="start" x="523" y="-70.3548" font-family="Helvetica,sans-Serif" font-size="10.00" fill="#000000">en61107_receive_timeout</text>
<text text-anchor="middle" x="581" y="-59.3548" font-family="Helvetica,sans-Serif" font-size="10.00" fill="#000000">_timer_func</text>
</a>
</g>
</g>
<!-- Node8&#45;&gt;Node9 -->
<g id="edge5" class="edge">
<title>Node8&#45;&gt;Node9</title>
<path fill="none" stroke="#191970" d="M338.3548,-61.3483C393.4852,-60.2199 464.1507,-60.3759 514.985,-61.8163"/>
<polygon fill="#191970" stroke="#191970" points="338.1692,-57.8514 328.2498,-61.5739 338.3255,-64.8497 338.1692,-57.8514"/>
</g>
<!-- Node13 -->
<g id="node10" class="node">
<title>Node13</title>
<g id="a_node10"><a xlink:href="en61107__request_8h.html#a2fa4e9967afddae0c1dedbc914dcee36" target="_top" xlink:title="en61107_meter_wake\l_up_timer_func">
<polygon fill="#ffffff" stroke="#000000" points="364,-105.3548 364,-135.3548 479,-135.3548 479,-105.3548 364,-105.3548"/>
<text text-anchor="start" x="372" y="-123.3548" font-family="Helvetica,sans-Serif" font-size="10.00" fill="#000000">en61107_meter_wake</text>
<text text-anchor="middle" x="421.5" y="-112.3548" font-family="Helvetica,sans-Serif" font-size="10.00" fill="#000000">_up_timer_func</text>
</a>
</g>
</g>
<!-- Node8&#45;&gt;Node13 -->
<g id="edge17" class="edge">
<title>Node8&#45;&gt;Node13</title>
<path fill="none" stroke="#191970" d="M310.3968,-85.4084C330.947,-91.8723 353.8778,-99.0849 373.5458,-105.2713"/>
<polygon fill="#191970" stroke="#191970" points="311.4241,-82.0625 300.8346,-82.4007 309.3237,-88.74 311.4241,-82.0625"/>
</g>
<!-- Node9&#45;&gt;Node5 -->
<g id="edge7" class="edge">
<title>Node9&#45;&gt;Node5</title>
<path fill="none" stroke="#191970" d="M624.9251,-87.1323C632.5841,-91.3662 640.2503,-96.1504 647,-101.3548 665.941,-115.9592 662.5233,-128.9955 683,-141.3548 689.4399,-145.2418 696.6512,-148.3374 703.9882,-150.8018"/>
<polygon fill="#191970" stroke="#191970" points="626.4709,-83.9907 615.9928,-82.4226 623.2061,-90.1827 626.4709,-83.9907"/>
</g>
<!-- Node9&#45;&gt;Node8 -->
<g id="edge6" class="edge">
<title>Node9&#45;&gt;Node8</title>
<path fill="none" stroke="#191970" d="M504.94,-73.1552C451.8116,-74.4278 381.1993,-74.4213 328.2498,-73.1357"/>
<polygon fill="#191970" stroke="#191970" points="505.0797,-76.6529 514.985,-72.8932 504.8971,-69.6552 505.0797,-76.6529"/>
</g>
<!-- Node9&#45;&gt;Node10 -->
<g id="edge8" class="edge">
<title>Node9&#45;&gt;Node10</title>
<path fill="none" stroke="#191970" d="M656.9903,-81.7019C680.1383,-87.8857 704.4517,-95.0188 723.4228,-101.3"/>
<polygon fill="#191970" stroke="#191970" points="657.7215,-78.2753 647.16,-79.1152 655.94,-85.0448 657.7215,-78.2753"/>
</g>
<!-- Node9&#45;&gt;Node11 -->
<g id="edge11" class="edge">
<title>Node9&#45;&gt;Node11</title>
<path fill="none" stroke="#191970" d="M657.4108,-60.6611C665.8936,-60.5816 674.5275,-60.5863 682.9927,-60.675"/>
<polygon fill="#191970" stroke="#191970" points="657.1117,-57.1647 647.16,-60.7997 657.2064,-64.1641 657.1117,-57.1647"/>
</g>
<!-- Node9&#45;&gt;Node12 -->
<g id="edge14" class="edge">
<title>Node9&#45;&gt;Node12</title>
<path fill="none" stroke="#191970" d="M625.0968,-49.2175C645.9562,-42.6011 671.2576,-35.4028 694.1634,-29.5156"/>
<polygon fill="#191970" stroke="#191970" points="623.9829,-45.8992 615.5476,-52.3098 626.1395,-52.5587 623.9829,-45.8992"/>
</g>
<!-- Node10&#45;&gt;Node6 -->
<g id="edge10" class="edge">
<title>Node10&#45;&gt;Node6</title>
<path fill="none" stroke="#191970" d="M843.2418,-104.0009C851.8535,-102.7528 860.4785,-101.5028 868.7735,-100.3006"/>
<polygon fill="#191970" stroke="#191970" points="842.5538,-100.564 833.1592,-105.4621 843.5578,-107.4916 842.5538,-100.564"/>
</g>
<!-- Node10&#45;&gt;Node9 -->
<g id="edge9" class="edge">
<title>Node10&#45;&gt;Node9</title>
<path fill="none" stroke="#191970" d="M673.2276,-99.6314C652.8143,-94.0386 632.1361,-87.8929 615.5476,-82.3998"/>
<polygon fill="#191970" stroke="#191970" points="672.3221,-103.0122 682.889,-102.2422 674.1483,-96.2546 672.3221,-103.0122"/>
</g>
<!-- Node11&#45;&gt;Node6 -->
<g id="edge13" class="edge">
<title>Node11&#45;&gt;Node6</title>
<path fill="none" stroke="#191970" d="M843.2418,-79.2145C851.8535,-80.4127 860.4785,-81.6127 868.7735,-82.7668"/>
<polygon fill="#191970" stroke="#191970" points="843.5461,-75.7232 833.1592,-77.8117 842.5815,-82.6564 843.5461,-75.7232"/>
</g>
<!-- Node11&#45;&gt;Node9 -->
<g id="edge12" class="edge">
<title>Node11&#45;&gt;Node9</title>
<path fill="none" stroke="#191970" d="M672.8867,-74.1004C664.2441,-74.1228 655.5585,-74.0593 647.16,-73.9099"/>
<polygon fill="#191970" stroke="#191970" points="673.0157,-77.5997 682.9927,-74.0346 672.9701,-70.5999 673.0157,-77.5997"/>
</g>
<!-- Node12&#45;&gt;Node6 -->
<g id="edge16" class="edge">
<title>Node12&#45;&gt;Node6</title>
<path fill="none" stroke="#191970" d="M818.4025,-36.7723C823.3756,-38.5642 828.2953,-40.4335 833,-42.3548 862.1139,-54.244 894.4666,-71.3175 913.6163,-81.8528"/>
<polygon fill="#191970" stroke="#191970" points="819.4105,-33.4171 808.8156,-33.4282 817.105,-40.0265 819.4105,-33.4171"/>
</g>
<!-- Node12&#45;&gt;Node9 -->
<g id="edge15" class="edge">
<title>Node12&#45;&gt;Node9</title>
<path fill="none" stroke="#191970" d="M713.8891,-36.4965C693.7353,-42.8888 669.4373,-49.8237 647.16,-55.5944"/>
<polygon fill="#191970" stroke="#191970" points="714.9873,-39.8199 723.4228,-33.4096 712.8309,-33.1603 714.9873,-39.8199"/>
</g>
<!-- Node13&#45;&gt;Node9 -->
<g id="edge18" class="edge">
<title>Node13&#45;&gt;Node9</title>
<path fill="none" stroke="#191970" d="M476.3598,-102.1255C495.6763,-95.7069 517.1581,-88.5687 535.6071,-82.4383"/>
<polygon fill="#191970" stroke="#191970" points="475.1658,-98.834 466.7797,-105.3089 477.3732,-105.4769 475.1658,-98.834"/>
</g>
<!-- Node14 -->
<g id="node11" class="node">
<title>Node14</title>
<g id="a_node11"><a xlink:href="en61107__request_8h.html#a7384d014eb9e833f64ecf4a9f86f87be" target="_top" xlink:title="en61107_request_send">
<polygon fill="#ffffff" stroke="#000000" points="520,-110.8548 520,-129.8548 642,-129.8548 642,-110.8548 520,-110.8548"/>
<text text-anchor="middle" x="581" y="-117.8548" font-family="Helvetica,sans-Serif" font-size="10.00" fill="#000000">en61107_request_send</text>
</a>
</g>
</g>
<!-- Node13&#45;&gt;Node14 -->
<g id="edge19" class="edge">
<title>Node13&#45;&gt;Node14</title>
<path fill="none" stroke="#191970" d="M489.1279,-120.3548C499.2874,-120.3548 509.7157,-120.3548 519.7323,-120.3548"/>
<polygon fill="#191970" stroke="#191970" points="489.0832,-116.8549 479.0832,-120.3548 489.0831,-123.8549 489.0832,-116.8549"/>
</g>
</g>
</svg>
