<?xml version="1.0" encoding="UTF-8" standalone="no"?>
<!DOCTYPE svg PUBLIC "-//W3C//DTD SVG 1.1//EN"
 "http://www.w3.org/Graphics/SVG/1.1/DTD/svg11.dtd">
<!-- Generated by graphviz version 2.41.20170323.1842 (20170323.1842)
 -->
<!-- Title: en61107_uart_send_standard_data_1 Pages: 1 -->
<svg width="829pt" height="291pt"
 viewBox="0.00 0.00 829.00 291.00" xmlns="http://www.w3.org/2000/svg" xmlns:xlink="http://www.w3.org/1999/xlink">
<g id="graph0" class="graph" transform="scale(1 1) rotate(0) translate(4 287.0037)">
<title>en61107_uart_send_standard_data_1</title>
<polygon fill="#ffffff" stroke="transparent" points="-4,4 -4,-287.0037 825,-287.0037 825,4 -4,4"/>
<!-- Node431 -->
<g id="node1" class="node">
<title>Node431</title>
<polygon fill="#bfbfbf" stroke="#000000" points="0,-55.5037 0,-85.5037 150,-85.5037 150,-55.5037 0,-55.5037"/>
<text text-anchor="start" x="8" y="-73.5037" font-family="Helvetica,sans-Serif" font-size="10.00" fill="#000000">en61107_uart_send_standard</text>
<text text-anchor="middle" x="75" y="-62.5037" font-family="Helvetica,sans-Serif" font-size="10.00" fill="#000000">_data_1</text>
</g>
<!-- Node432 -->
<g id="node2" class="node">
<title>Node432</title>
<g id="a_node2"><a xlink:href="en61107__request_8h.html#a22f1fee248eec0eeacf220c69b878a28" target="_top" xlink:title="en61107_receive_timeout\l_timer_func">
<polygon fill="#ffffff" stroke="#000000" points="186,-126.5037 186,-156.5037 318,-156.5037 318,-126.5037 186,-126.5037"/>
<text text-anchor="start" x="194" y="-144.5037" font-family="Helvetica,sans-Serif" font-size="10.00" fill="#000000">en61107_receive_timeout</text>
<text text-anchor="middle" x="252" y="-133.5037" font-family="Helvetica,sans-Serif" font-size="10.00" fill="#000000">_timer_func</text>
</a>
</g>
</g>
<!-- Node431&#45;&gt;Node432 -->
<g id="edge1" class="edge">
<title>Node431&#45;&gt;Node432</title>
<path fill="none" stroke="#191970" d="M122.032,-89.3696C150.9668,-100.9762 187.543,-115.648 214.517,-126.4681"/>
<polygon fill="#191970" stroke="#191970" points="123.1214,-86.0355 112.5371,-85.5609 120.5152,-92.5323 123.1214,-86.0355"/>
</g>
<!-- Node437 -->
<g id="node7" class="node">
<title>Node437</title>
<g id="a_node7"><a xlink:href="en61107__request_8c.html#aa3b162cf5364986ea19e831ac2b18f76" target="_top" xlink:title="en61107_received_task">
<polygon fill="#ffffff" stroke="#000000" points="540,-83.0037 540,-102.0037 663,-102.0037 663,-83.0037 540,-83.0037"/>
<text text-anchor="middle" x="601.5" y="-90.0037" font-family="Helvetica,sans-Serif" font-size="10.00" fill="#000000">en61107_received_task</text>
</a>
</g>
</g>
<!-- Node431&#45;&gt;Node437 -->
<g id="edge19" class="edge">
<title>Node431&#45;&gt;Node437</title>
<path fill="none" stroke="#191970" d="M121.7875,-51.7936C202.1205,-22.5038 370.5186,26.4146 504,-18.5037 542.267,-31.381 577.4386,-65.9059 593.0304,-82.8518"/>
<polygon fill="#191970" stroke="#191970" points="120.1308,-48.6751 111.9729,-55.4352 122.5659,-55.2379 120.1308,-48.6751"/>
</g>
<!-- Node433 -->
<g id="node3" class="node">
<title>Node433</title>
<g id="a_node3"><a xlink:href="en61107__request_8h.html#a353102f2f89ad4ed996501752c0ac59c" target="_top" xlink:title="en61107_uart_send_en61107\l_ident">
<polygon fill="#ffffff" stroke="#000000" points="354,-252.5037 354,-282.5037 504,-282.5037 504,-252.5037 354,-252.5037"/>
<text text-anchor="start" x="362" y="-270.5037" font-family="Helvetica,sans-Serif" font-size="10.00" fill="#000000">en61107_uart_send_en61107</text>
<text text-anchor="middle" x="429" y="-259.5037" font-family="Helvetica,sans-Serif" font-size="10.00" fill="#000000">_ident</text>
</a>
</g>
</g>
<!-- Node432&#45;&gt;Node433 -->
<g id="edge2" class="edge">
<title>Node432&#45;&gt;Node433</title>
<path fill="none" stroke="#191970" d="M278.0173,-163.8166C297.3367,-183.0586 325.2218,-210.1467 354,-228.5037 369.6067,-238.4588 389.0592,-246.1238 404.2422,-252.4474"/>
<polygon fill="#191970" stroke="#191970" points="280.3448,-161.1946 270.7945,-156.6074 275.3997,-166.149 280.3448,-161.1946"/>
</g>
<!-- Node436 -->
<g id="node6" class="node">
<title>Node436</title>
<g id="a_node6"><a xlink:href="en61107__request_8h.html#a8b6b61143d95d3af3813f8be1aaf3447" target="_top" xlink:title="en61107_uart_send_en61107">
<polygon fill="#ffffff" stroke="#000000" points="354,-176.0037 354,-195.0037 504,-195.0037 504,-176.0037 354,-176.0037"/>
<text text-anchor="middle" x="429" y="-183.0037" font-family="Helvetica,sans-Serif" font-size="10.00" fill="#000000">en61107_uart_send_en61107</text>
</a>
</g>
</g>
<!-- Node432&#45;&gt;Node436 -->
<g id="edge7" class="edge">
<title>Node432&#45;&gt;Node436</title>
<path fill="none" stroke="#191970" d="M322.2934,-158.9777C345.6343,-164.78 370.7412,-171.0213 390.7341,-175.9912"/>
<polygon fill="#191970" stroke="#191970" points="322.9673,-155.5388 312.4183,-156.5229 321.2786,-162.3321 322.9673,-155.5388"/>
</g>
<!-- Node439 -->
<g id="node9" class="node">
<title>Node439</title>
<g id="a_node9"><a xlink:href="en61107__request_8h.html#afdb1795bdd4212fc7e028a9e5668fab4" target="_top" xlink:title="en61107_uart_send_standard\l_data_1">
<polygon fill="#ffffff" stroke="#000000" points="354,-126.5037 354,-156.5037 504,-156.5037 504,-126.5037 354,-126.5037"/>
<text text-anchor="start" x="362" y="-144.5037" font-family="Helvetica,sans-Serif" font-size="10.00" fill="#000000">en61107_uart_send_standard</text>
<text text-anchor="middle" x="429" y="-133.5037" font-family="Helvetica,sans-Serif" font-size="10.00" fill="#000000">_data_1</text>
</a>
</g>
</g>
<!-- Node432&#45;&gt;Node439 -->
<g id="edge10" class="edge">
<title>Node432&#45;&gt;Node439</title>
<path fill="none" stroke="#191970" d="M328.4108,-134.81C336.8936,-134.7305 345.5275,-134.7352 353.9927,-134.8239"/>
<polygon fill="#191970" stroke="#191970" points="328.1117,-131.3136 318.16,-134.9486 328.2064,-138.3129 328.1117,-131.3136"/>
</g>
<!-- Node440 -->
<g id="node10" class="node">
<title>Node440</title>
<g id="a_node10"><a xlink:href="en61107__request_8h.html#a10b80328698f459ae2251fe146cdc375" target="_top" xlink:title="en61107_uart_send_standard\l_data_2">
<polygon fill="#ffffff" stroke="#000000" points="354,-77.5037 354,-107.5037 504,-107.5037 504,-77.5037 354,-77.5037"/>
<text text-anchor="start" x="362" y="-95.5037" font-family="Helvetica,sans-Serif" font-size="10.00" fill="#000000">en61107_uart_send_standard</text>
<text text-anchor="middle" x="429" y="-84.5037" font-family="Helvetica,sans-Serif" font-size="10.00" fill="#000000">_data_2</text>
</a>
</g>
</g>
<!-- Node432&#45;&gt;Node440 -->
<g id="edge13" class="edge">
<title>Node432&#45;&gt;Node440</title>
<path fill="none" stroke="#191970" d="M296.4185,-123.2644C313.8346,-117.7472 334.3093,-111.833 353.889,-106.6163"/>
<polygon fill="#191970" stroke="#191970" points="294.9842,-120.0498 286.5476,-126.4587 297.1394,-126.7098 294.9842,-120.0498"/>
</g>
<!-- Node441 -->
<g id="node11" class="node">
<title>Node441</title>
<g id="a_node11"><a xlink:href="en61107__request_8h.html#a74c2d949e6bb3b65cdf794a0643dd67d" target="_top" xlink:title="en61107_uart_send_inst\l_values">
<polygon fill="#ffffff" stroke="#000000" points="365.5,-28.5037 365.5,-58.5037 492.5,-58.5037 492.5,-28.5037 365.5,-28.5037"/>
<text text-anchor="start" x="373.5" y="-46.5037" font-family="Helvetica,sans-Serif" font-size="10.00" fill="#000000">en61107_uart_send_inst</text>
<text text-anchor="middle" x="429" y="-35.5037" font-family="Helvetica,sans-Serif" font-size="10.00" fill="#000000">_values</text>
</a>
</g>
</g>
<!-- Node432&#45;&gt;Node441 -->
<g id="edge16" class="edge">
<title>Node432&#45;&gt;Node441</title>
<path fill="none" stroke="#191970" d="M270.1518,-118.8625C289.6933,-100.0811 322.263,-74.5717 354,-58.5037 357.6591,-56.6511 361.4906,-54.9031 365.4038,-53.2752"/>
<polygon fill="#191970" stroke="#191970" points="267.4239,-116.642 262.8528,-126.2001 272.3866,-121.5787 267.4239,-116.642"/>
</g>
<!-- Node433&#45;&gt;Node432 -->
<g id="edge3" class="edge">
<title>Node433&#45;&gt;Node432</title>
<path fill="none" stroke="#191970" d="M355.2045,-247.2628C354.8006,-247.0112 354.399,-246.7582 354,-246.5037 314.431,-221.2635 276.5504,-179.5168 260.3025,-156.6417"/>
<polygon fill="#191970" stroke="#191970" points="353.576,-250.3636 363.9901,-252.3121 357.0641,-244.2946 353.576,-250.3636"/>
</g>
<!-- Node434 -->
<g id="node4" class="node">
<title>Node434</title>
<g id="a_node4"><a xlink:href="en61107__request_8h.html#a2fa4e9967afddae0c1dedbc914dcee36" target="_top" xlink:title="en61107_meter_wake\l_up_timer_func">
<polygon fill="#ffffff" stroke="#000000" points="544,-230.5037 544,-260.5037 659,-260.5037 659,-230.5037 544,-230.5037"/>
<text text-anchor="start" x="552" y="-248.5037" font-family="Helvetica,sans-Serif" font-size="10.00" fill="#000000">en61107_meter_wake</text>
<text text-anchor="middle" x="601.5" y="-237.5037" font-family="Helvetica,sans-Serif" font-size="10.00" fill="#000000">_up_timer_func</text>
</a>
</g>
</g>
<!-- Node433&#45;&gt;Node434 -->
<g id="edge4" class="edge">
<title>Node433&#45;&gt;Node434</title>
<path fill="none" stroke="#191970" d="M514.2161,-256.6355C524.2997,-255.3495 534.4021,-254.0611 543.972,-252.8406"/>
<polygon fill="#191970" stroke="#191970" points="513.636,-253.1811 504.1592,-257.9181 514.5217,-260.1248 513.636,-253.1811"/>
</g>
<!-- Node434&#45;&gt;Node432 -->
<g id="edge5" class="edge">
<title>Node434&#45;&gt;Node432</title>
<path fill="none" stroke="#191970" d="M533.639,-241.3859C482.8471,-236.6207 412.3746,-226.3914 354,-204.5037 322.8178,-192.8118 290.7696,-171.1254 271.1185,-156.5048"/>
<polygon fill="#191970" stroke="#191970" points="533.5749,-244.894 543.8461,-242.2951 534.196,-237.9216 533.5749,-244.894"/>
</g>
<!-- Node435 -->
<g id="node5" class="node">
<title>Node435</title>
<g id="a_node5"><a xlink:href="en61107__request_8h.html#a7384d014eb9e833f64ecf4a9f86f87be" target="_top" xlink:title="en61107_request_send">
<polygon fill="#ffffff" stroke="#000000" points="699,-236.0037 699,-255.0037 821,-255.0037 821,-236.0037 699,-236.0037"/>
<text text-anchor="middle" x="760" y="-243.0037" font-family="Helvetica,sans-Serif" font-size="10.00" fill="#000000">en61107_request_send</text>
</a>
</g>
</g>
<!-- Node434&#45;&gt;Node435 -->
<g id="edge6" class="edge">
<title>Node434&#45;&gt;Node435</title>
<path fill="none" stroke="#191970" d="M669.3048,-245.5037C679.1381,-245.5037 689.2115,-245.5037 698.9022,-245.5037"/>
<polygon fill="#191970" stroke="#191970" points="669.1705,-242.0038 659.1705,-245.5037 669.1705,-249.0038 669.1705,-242.0038"/>
</g>
<!-- Node436&#45;&gt;Node437 -->
<g id="edge8" class="edge">
<title>Node436&#45;&gt;Node437</title>
<path fill="none" stroke="#191970" d="M488.2463,-172.8984C493.6768,-171.0292 499.0076,-168.9071 504,-166.5037 539.6136,-149.3588 574.9458,-118.0635 591.6053,-102.2307"/>
<polygon fill="#191970" stroke="#191970" points="486.9013,-169.6525 478.4152,-175.9958 489.0048,-176.329 486.9013,-169.6525"/>
</g>
<!-- Node438 -->
<g id="node8" class="node">
<title>Node438</title>
<g id="a_node8"><a xlink:href="en61107__request_8h.html#acd43242675a3f25e7c3b530eac9d8b3a" target="_top" xlink:title="en61107_request_init">
<polygon fill="#ffffff" stroke="#000000" points="703.5,-83.0037 703.5,-102.0037 816.5,-102.0037 816.5,-83.0037 703.5,-83.0037"/>
<text text-anchor="middle" x="760" y="-90.0037" font-family="Helvetica,sans-Serif" font-size="10.00" fill="#000000">en61107_request_init</text>
</a>
</g>
</g>
<!-- Node437&#45;&gt;Node438 -->
<g id="edge9" class="edge">
<title>Node437&#45;&gt;Node438</title>
<path fill="none" stroke="#191970" d="M673.2469,-92.5037C683.3388,-92.5037 693.5944,-92.5037 703.3513,-92.5037"/>
<polygon fill="#191970" stroke="#191970" points="673.2341,-89.0038 663.2341,-92.5037 673.2341,-96.0038 673.2341,-89.0038"/>
</g>
<!-- Node439&#45;&gt;Node432 -->
<g id="edge11" class="edge">
<title>Node439&#45;&gt;Node432</title>
<path fill="none" stroke="#191970" d="M343.8867,-148.2493C335.2441,-148.2717 326.5585,-148.2082 318.16,-148.0588"/>
<polygon fill="#191970" stroke="#191970" points="344.0157,-151.7486 353.9927,-148.1834 343.9701,-144.7488 344.0157,-151.7486"/>
</g>
<!-- Node439&#45;&gt;Node437 -->
<g id="edge12" class="edge">
<title>Node439&#45;&gt;Node437</title>
<path fill="none" stroke="#191970" d="M491.8741,-123.6438C517.652,-116.3214 546.4431,-108.143 568.0493,-102.0056"/>
<polygon fill="#191970" stroke="#191970" points="490.8263,-120.3029 482.1632,-126.4022 492.7391,-127.0365 490.8263,-120.3029"/>
</g>
<!-- Node440&#45;&gt;Node432 -->
<g id="edge14" class="edge">
<title>Node440&#45;&gt;Node432</title>
<path fill="none" stroke="#191970" d="M384.8891,-110.6454C364.7353,-117.0377 340.4373,-123.9725 318.16,-129.7433"/>
<polygon fill="#191970" stroke="#191970" points="385.9873,-113.9688 394.4228,-107.5585 383.8309,-107.3092 385.9873,-113.9688"/>
</g>
<!-- Node440&#45;&gt;Node437 -->
<g id="edge15" class="edge">
<title>Node440&#45;&gt;Node437</title>
<path fill="none" stroke="#191970" d="M514.2418,-92.5037C522.8535,-92.5037 531.4785,-92.5037 539.7735,-92.5037"/>
<polygon fill="#191970" stroke="#191970" points="514.1592,-89.0038 504.1592,-92.5037 514.1592,-96.0038 514.1592,-89.0038"/>
</g>
<!-- Node441&#45;&gt;Node432 -->
<g id="edge17" class="edge">
<title>Node441&#45;&gt;Node432</title>
<path fill="none" stroke="#191970" d="M390.2865,-61.8907C378.3343,-66.0261 365.3395,-70.7626 354,-76.5037 326.2834,-90.5363 297.9318,-111.7696 278.1773,-126.3619"/>
<polygon fill="#191970" stroke="#191970" points="391.6997,-65.1062 400.022,-58.5495 389.4274,-58.4853 391.6997,-65.1062"/>
</g>
<!-- Node441&#45;&gt;Node437 -->
<g id="edge18" class="edge">
<title>Node441&#45;&gt;Node437</title>
<path fill="none" stroke="#191970" d="M491.8741,-61.3635C517.652,-68.686 546.4431,-76.8643 568.0493,-83.0017"/>
<polygon fill="#191970" stroke="#191970" points="492.7391,-57.9709 482.1632,-58.6051 490.8263,-64.7045 492.7391,-57.9709"/>
</g>
</g>
</svg>
