<?xml version="1.0" encoding="UTF-8" standalone="no"?>
<!DOCTYPE svg PUBLIC "-//W3C//DTD SVG 1.1//EN"
 "http://www.w3.org/Graphics/SVG/1.1/DTD/svg11.dtd">
<!-- Generated by graphviz version 2.41.20170323.1842 (20170323.1842)
 -->
<!-- Title: parse_mc66cde_standard_data_1_frame Pages: 1 -->
<svg width="833pt" height="294pt"
 viewBox="0.00 0.00 833.00 294.00" xmlns="http://www.w3.org/2000/svg" xmlns:xlink="http://www.w3.org/1999/xlink">
<g id="graph0" class="graph" transform="scale(1 1) rotate(0) translate(4 290)">
<title>parse_mc66cde_standard_data_1_frame</title>
<polygon fill="#ffffff" stroke="transparent" points="-4,4 -4,-290 829,-290 829,4 -4,4"/>
<!-- Node81 -->
<g id="node1" class="node">
<title>Node81</title>
<polygon fill="#bfbfbf" stroke="#000000" points="0,-128 0,-158 132,-158 132,-128 0,-128"/>
<text text-anchor="start" x="8" y="-146" font-family="Helvetica,sans-Serif" font-size="10.00" fill="#000000">parse_mc66cde_standard</text>
<text text-anchor="middle" x="66" y="-135" font-family="Helvetica,sans-Serif" font-size="10.00" fill="#000000">_data_1_frame</text>
</g>
<!-- Node82 -->
<g id="node2" class="node">
<title>Node82</title>
<g id="a_node2"><a xlink:href="utils_8c.html#aa76bb225374d144009e05cadce84260b" target="_top" xlink:title="cleanup_decimal_str">
<polygon fill="#ffffff" stroke="#000000" points="168,-190.5 168,-209.5 276,-209.5 276,-190.5 168,-190.5"/>
<text text-anchor="middle" x="222" y="-197.5" font-family="Helvetica,sans-Serif" font-size="10.00" fill="#000000">cleanup_decimal_str</text>
</a>
</g>
</g>
<!-- Node81&#45;&gt;Node82 -->
<g id="edge1" class="edge">
<title>Node81&#45;&gt;Node82</title>
<path fill="none" stroke="#191970" d="M106.147,-158.1498C124.9083,-165.1799 147.5669,-173.5998 168,-181 173.5074,-182.9946 179.3411,-185.0778 185.0589,-187.1032"/>
<polygon fill="#191970" stroke="#191970" points="183.8994,-190.4055 194.4942,-190.4312 186.2279,-183.8041 183.8994,-190.4055"/>
</g>
<!-- Node84 -->
<g id="node4" class="node">
<title>Node84</title>
<g id="a_node4"><a xlink:href="tinyprintf_8c.html#a9738cbc6c538d210941db282e240c7d6" target="_top" xlink:title="tfp_snprintf">
<polygon fill="#ffffff" stroke="#000000" points="340.5,-114.5 340.5,-133.5 406.5,-133.5 406.5,-114.5 340.5,-114.5"/>
<text text-anchor="middle" x="373.5" y="-121.5" font-family="Helvetica,sans-Serif" font-size="10.00" fill="#000000">tfp_snprintf</text>
</a>
</g>
</g>
<!-- Node81&#45;&gt;Node84 -->
<g id="edge26" class="edge">
<title>Node81&#45;&gt;Node84</title>
<path fill="none" stroke="#191970" d="M97.7816,-127.8084C117.4987,-119.2384 143.637,-109.3908 168,-105 223.5408,-94.9902 288.5319,-104.4911 330.3178,-113.2828"/>
<polygon fill="#191970" stroke="#191970" points="329.6458,-116.7185 340.1622,-115.4317 331.1387,-109.8795 329.6458,-116.7185"/>
</g>
<!-- Node98 -->
<g id="node18" class="node">
<title>Node98</title>
<g id="a_node18"><a xlink:href="utils_8c.html#a83488e29965def270a8e27370ee5013a" target="_top" xlink:title="divide_str_by_10">
<polygon fill="#ffffff" stroke="#000000" points="176,-152.5 176,-171.5 268,-171.5 268,-152.5 176,-152.5"/>
<text text-anchor="middle" x="222" y="-159.5" font-family="Helvetica,sans-Serif" font-size="10.00" fill="#000000">divide_str_by_10</text>
</a>
</g>
</g>
<!-- Node81&#45;&gt;Node98 -->
<g id="edge20" class="edge">
<title>Node81&#45;&gt;Node98</title>
<path fill="none" stroke="#191970" d="M132.158,-151.0577C143.2338,-152.4067 154.6358,-153.7954 165.4424,-155.1116"/>
<polygon fill="#191970" stroke="#191970" points="165.241,-158.6128 175.5909,-156.3476 166.0874,-151.6642 165.241,-158.6128"/>
</g>
<!-- Node99 -->
<g id="node19" class="node">
<title>Node99</title>
<g id="a_node19"><a xlink:href="utils_8c.html#ae7c507f8b417b23e187f267fd8a2adf2" target="_top" xlink:title="divide_str_by_100">
<polygon fill="#ffffff" stroke="#000000" points="173,-114.5 173,-133.5 271,-133.5 271,-114.5 173,-114.5"/>
<text text-anchor="middle" x="222" y="-121.5" font-family="Helvetica,sans-Serif" font-size="10.00" fill="#000000">divide_str_by_100</text>
</a>
</g>
</g>
<!-- Node81&#45;&gt;Node99 -->
<g id="edge23" class="edge">
<title>Node81&#45;&gt;Node99</title>
<path fill="none" stroke="#191970" d="M132.158,-134.9423C142.2659,-133.7112 152.6454,-132.447 162.5961,-131.2351"/>
<polygon fill="#191970" stroke="#191970" points="163.2777,-134.678 172.7812,-129.9946 162.4313,-127.7294 163.2777,-134.678"/>
</g>
<!-- Node83 -->
<g id="node3" class="node">
<title>Node83</title>
<g id="a_node3"><a xlink:href="espmissingincludes_8h.html#ad228deceea1bac4d9f171f647c265059" target="_top" xlink:title="atoi">
<polygon fill="#ffffff" stroke="#000000" points="357,-152.5 357,-171.5 390,-171.5 390,-152.5 357,-152.5"/>
<text text-anchor="middle" x="373.5" y="-159.5" font-family="Helvetica,sans-Serif" font-size="10.00" fill="#000000">atoi</text>
</a>
</g>
</g>
<!-- Node82&#45;&gt;Node83 -->
<g id="edge2" class="edge">
<title>Node82&#45;&gt;Node83</title>
<path fill="none" stroke="#191970" d="M260.2298,-190.411C287.2605,-183.631 322.8189,-174.7121 346.8276,-168.6901"/>
<polygon fill="#191970" stroke="#191970" points="347.8144,-172.0511 356.6624,-166.2233 346.1114,-165.2614 347.8144,-172.0511"/>
</g>
<!-- Node82&#45;&gt;Node84 -->
<g id="edge3" class="edge">
<title>Node82&#45;&gt;Node84</title>
<path fill="none" stroke="#191970" d="M256.852,-190.48C263.481,-187.9215 270.1633,-184.7856 276,-181 295.5186,-168.3407 292.2402,-155.2794 312,-143 317.7394,-139.4333 324.1988,-136.4915 330.7177,-134.0784"/>
<polygon fill="#191970" stroke="#191970" points="331.8521,-137.3897 340.2345,-130.9099 329.6409,-130.7481 331.8521,-137.3897"/>
</g>
<!-- Node97 -->
<g id="node17" class="node">
<title>Node97</title>
<g id="a_node17"><a xlink:href="utils_8c.html#a2839f597af170b57af67cfe9a2d8ae71" target="_top" xlink:title="decimal_number_length">
<polygon fill="#ffffff" stroke="#000000" points="312,-190.5 312,-209.5 435,-209.5 435,-190.5 312,-190.5"/>
<text text-anchor="middle" x="373.5" y="-197.5" font-family="Helvetica,sans-Serif" font-size="10.00" fill="#000000">decimal_number_length</text>
</a>
</g>
</g>
<!-- Node82&#45;&gt;Node97 -->
<g id="edge19" class="edge">
<title>Node82&#45;&gt;Node97</title>
<path fill="none" stroke="#191970" d="M276.2671,-200C284.5665,-200 293.241,-200 301.8449,-200"/>
<polygon fill="#191970" stroke="#191970" points="301.886,-203.5001 311.886,-200 301.8859,-196.5001 301.886,-203.5001"/>
</g>
<!-- Node85 -->
<g id="node5" class="node">
<title>Node85</title>
<g id="a_node5"><a xlink:href="tinyprintf_8c.html#ac8c8a66133cf0d7009c0d73b55311a44" target="_top" xlink:title="tfp_vsnprintf">
<polygon fill="#ffffff" stroke="#000000" points="471,-114.5 471,-133.5 542,-133.5 542,-114.5 471,-114.5"/>
<text text-anchor="middle" x="506.5" y="-121.5" font-family="Helvetica,sans-Serif" font-size="10.00" fill="#000000">tfp_vsnprintf</text>
</a>
</g>
</g>
<!-- Node84&#45;&gt;Node85 -->
<g id="edge4" class="edge">
<title>Node84&#45;&gt;Node85</title>
<path fill="none" stroke="#191970" d="M406.7184,-124C423.0551,-124 443.0024,-124 460.756,-124"/>
<polygon fill="#191970" stroke="#191970" points="460.9117,-127.5001 470.9117,-124 460.9117,-120.5001 460.9117,-127.5001"/>
</g>
<!-- Node86 -->
<g id="node6" class="node">
<title>Node86</title>
<g id="a_node6"><a xlink:href="tinyprintf_8c.html#a5877e42444463efc71a91b5fe76a6145" target="_top" xlink:title="tfp_format">
<polygon fill="#ffffff" stroke="#000000" points="590.5,-133.5 590.5,-152.5 652.5,-152.5 652.5,-133.5 590.5,-133.5"/>
<text text-anchor="middle" x="621.5" y="-140.5" font-family="Helvetica,sans-Serif" font-size="10.00" fill="#000000">tfp_format</text>
</a>
</g>
</g>
<!-- Node85&#45;&gt;Node86 -->
<g id="edge5" class="edge">
<title>Node85&#45;&gt;Node86</title>
<path fill="none" stroke="#191970" d="M542.2563,-129.9076C554.31,-131.899 567.8587,-134.1375 580.2981,-136.1927"/>
<polygon fill="#191970" stroke="#191970" points="579.9923,-139.6896 590.4291,-137.8665 581.1334,-132.7832 579.9923,-139.6896"/>
</g>
<!-- Node96 -->
<g id="node16" class="node">
<title>Node96</title>
<g id="a_node16"><a xlink:href="tinyprintf_8c.html#a919051024b2d729e34a54648b3f2462d" target="_top" xlink:title="_vsnprintf_putcf">
<polygon fill="#ffffff" stroke="#000000" points="578,-95.5 578,-114.5 665,-114.5 665,-95.5 578,-95.5"/>
<text text-anchor="middle" x="621.5" y="-102.5" font-family="Helvetica,sans-Serif" font-size="10.00" fill="#000000">_vsnprintf_putcf</text>
</a>
</g>
</g>
<!-- Node85&#45;&gt;Node96 -->
<g id="edge18" class="edge">
<title>Node85&#45;&gt;Node96</title>
<path fill="none" stroke="#191970" d="M542.2563,-118.0924C550.3127,-116.7614 559.037,-115.32 567.6515,-113.8967"/>
<polygon fill="#191970" stroke="#191970" points="568.3715,-117.3253 577.6672,-112.2419 567.2304,-110.4189 568.3715,-117.3253"/>
</g>
<!-- Node87 -->
<g id="node7" class="node">
<title>Node87</title>
<g id="a_node7"><a xlink:href="tinyprintf_8c.html#aa97593a5e53af85b608ad0910db92d77" target="_top" xlink:title="a2u">
<polygon fill="#ffffff" stroke="#000000" points="708.5,-266.5 708.5,-285.5 741.5,-285.5 741.5,-266.5 708.5,-266.5"/>
<text text-anchor="middle" x="725" y="-273.5" font-family="Helvetica,sans-Serif" font-size="10.00" fill="#000000">a2u</text>
</a>
</g>
</g>
<!-- Node86&#45;&gt;Node87 -->
<g id="edge6" class="edge">
<title>Node86&#45;&gt;Node87</title>
<path fill="none" stroke="#191970" d="M627.8324,-152.706C640.7216,-172.2184 671.3056,-217.297 701,-252 702.9395,-254.2666 705.0504,-256.5753 707.1892,-258.8208"/>
<polygon fill="#191970" stroke="#191970" points="704.8349,-261.4175 714.359,-266.0588 709.808,-256.4912 704.8349,-261.4175"/>
</g>
<!-- Node89 -->
<g id="node9" class="node">
<title>Node89</title>
<g id="a_node9"><a xlink:href="tinyprintf_8c.html#abcf035dd576671b0cc897de9dd8c75b0" target="_top" xlink:title="ulli2a">
<polygon fill="#ffffff" stroke="#000000" points="785,-209.5 785,-228.5 825,-228.5 825,-209.5 785,-209.5"/>
<text text-anchor="middle" x="805" y="-216.5" font-family="Helvetica,sans-Serif" font-size="10.00" fill="#000000">ulli2a</text>
</a>
</g>
</g>
<!-- Node86&#45;&gt;Node89 -->
<g id="edge8" class="edge">
<title>Node86&#45;&gt;Node89</title>
<path fill="none" stroke="#191970" d="M627.7265,-152.585C639.557,-169.7998 667.1512,-205.4235 701,-219 724.3674,-228.3725 753.1345,-227.5347 774.486,-224.8289"/>
<polygon fill="#191970" stroke="#191970" points="775.2279,-228.2574 784.6112,-223.3377 774.208,-221.3321 775.2279,-228.2574"/>
</g>
<!-- Node90 -->
<g id="node10" class="node">
<title>Node90</title>
<g id="a_node10"><a xlink:href="tinyprintf_8c.html#a1d61347854a8c290d59b4a21efcefd75" target="_top" xlink:title="uli2a">
<polygon fill="#ffffff" stroke="#000000" points="786,-133.5 786,-152.5 824,-152.5 824,-133.5 786,-133.5"/>
<text text-anchor="middle" x="805" y="-140.5" font-family="Helvetica,sans-Serif" font-size="10.00" fill="#000000">uli2a</text>
</a>
</g>
</g>
<!-- Node86&#45;&gt;Node90 -->
<g id="edge9" class="edge">
<title>Node86&#45;&gt;Node90</title>
<path fill="none" stroke="#191970" d="M652.6283,-143C687.0439,-143 742.0573,-143 775.7155,-143"/>
<polygon fill="#191970" stroke="#191970" points="775.8399,-146.5001 785.8399,-143 775.8398,-139.5001 775.8399,-146.5001"/>
</g>
<!-- Node91 -->
<g id="node11" class="node">
<title>Node91</title>
<g id="a_node11"><a xlink:href="tinyprintf_8c.html#ac87ff66a592723f55692eaf8e3f19df8" target="_top" xlink:title="ui2a">
<polygon fill="#ffffff" stroke="#000000" points="787.5,-57.5 787.5,-76.5 822.5,-76.5 822.5,-57.5 787.5,-57.5"/>
<text text-anchor="middle" x="805" y="-64.5" font-family="Helvetica,sans-Serif" font-size="10.00" fill="#000000">ui2a</text>
</a>
</g>
</g>
<!-- Node86&#45;&gt;Node91 -->
<g id="edge10" class="edge">
<title>Node86&#45;&gt;Node91</title>
<path fill="none" stroke="#191970" d="M644.2214,-133.4524C650.9569,-130.5211 658.3173,-127.2175 665,-124 681.3007,-116.1517 684.4657,-112.3435 701,-105 726.5152,-93.6678 756.5525,-82.9631 777.7688,-75.8213"/>
<polygon fill="#191970" stroke="#191970" points="779.0315,-79.09 787.4171,-72.6144 776.8235,-72.4473 779.0315,-79.09"/>
</g>
<!-- Node92 -->
<g id="node12" class="node">
<title>Node92</title>
<g id="a_node12"><a xlink:href="tinyprintf_8c.html#a6252dbfebb2c8783c4e3107d551082dd" target="_top" xlink:title="putchw">
<polygon fill="#ffffff" stroke="#000000" points="701,-.5 701,-19.5 749,-19.5 749,-.5 701,-.5"/>
<text text-anchor="middle" x="725" y="-7.5" font-family="Helvetica,sans-Serif" font-size="10.00" fill="#000000">putchw</text>
</a>
</g>
</g>
<!-- Node86&#45;&gt;Node92 -->
<g id="edge11" class="edge">
<title>Node86&#45;&gt;Node92</title>
<path fill="none" stroke="#191970" d="M652.0676,-133.4163C656.8274,-130.9187 661.3641,-127.8208 665,-124 696.1262,-91.291 674.3372,-65.4391 701,-29 701.5492,-28.2495 702.1354,-27.5127 702.7511,-26.7915"/>
<polygon fill="#191970" stroke="#191970" points="705.325,-29.1727 710.1263,-19.7281 700.4833,-24.1172 705.325,-29.1727"/>
</g>
<!-- Node93 -->
<g id="node13" class="node">
<title>Node93</title>
<g id="a_node13"><a xlink:href="tinyprintf_8c.html#a49c6d2b3d4088012f2c1fe344eef69f3" target="_top" xlink:title="lli2a">
<polygon fill="#ffffff" stroke="#000000" points="708,-190.5 708,-209.5 742,-209.5 742,-190.5 708,-190.5"/>
<text text-anchor="middle" x="725" y="-197.5" font-family="Helvetica,sans-Serif" font-size="10.00" fill="#000000">lli2a</text>
</a>
</g>
</g>
<!-- Node86&#45;&gt;Node93 -->
<g id="edge12" class="edge">
<title>Node86&#45;&gt;Node93</title>
<path fill="none" stroke="#191970" d="M639.0574,-152.6693C655.4376,-161.6903 680.0906,-175.2673 698.7979,-185.5698"/>
<polygon fill="#191970" stroke="#191970" points="697.254,-188.7152 707.7019,-190.4735 700.6309,-182.5836 697.254,-188.7152"/>
</g>
<!-- Node94 -->
<g id="node14" class="node">
<title>Node94</title>
<g id="a_node14"><a xlink:href="tinyprintf_8c.html#afebb7696337c3f599b5e8db35c560684" target="_top" xlink:title="li2a">
<polygon fill="#ffffff" stroke="#000000" points="709,-114.5 709,-133.5 741,-133.5 741,-114.5 709,-114.5"/>
<text text-anchor="middle" x="725" y="-121.5" font-family="Helvetica,sans-Serif" font-size="10.00" fill="#000000">li2a</text>
</a>
</g>
</g>
<!-- Node86&#45;&gt;Node94 -->
<g id="edge14" class="edge">
<title>Node86&#45;&gt;Node94</title>
<path fill="none" stroke="#191970" d="M652.5534,-137.2994C667.3576,-134.5817 684.8672,-131.3674 698.9639,-128.7796"/>
<polygon fill="#191970" stroke="#191970" points="699.7734,-132.1895 708.9771,-126.9414 698.5095,-125.3046 699.7734,-132.1895"/>
</g>
<!-- Node95 -->
<g id="node15" class="node">
<title>Node95</title>
<g id="a_node15"><a xlink:href="tinyprintf_8c.html#a90f9fd8f2133cda7f50be8d67823405c" target="_top" xlink:title="i2a">
<polygon fill="#ffffff" stroke="#000000" points="710,-38.5 710,-57.5 740,-57.5 740,-38.5 710,-38.5"/>
<text text-anchor="middle" x="725" y="-45.5" font-family="Helvetica,sans-Serif" font-size="10.00" fill="#000000">i2a</text>
</a>
</g>
</g>
<!-- Node86&#45;&gt;Node95 -->
<g id="edge16" class="edge">
<title>Node86&#45;&gt;Node95</title>
<path fill="none" stroke="#191970" d="M649.9669,-133.2898C655.2746,-130.747 660.5455,-127.6655 665,-124 686.7053,-106.1394 682.9891,-93.5808 701,-72 702.9114,-69.7097 705.0054,-67.3867 707.135,-65.1335"/>
<polygon fill="#191970" stroke="#191970" points="709.7552,-67.4616 714.299,-57.8905 704.7784,-62.539 709.7552,-67.4616"/>
</g>
<!-- Node88 -->
<g id="node8" class="node">
<title>Node88</title>
<g id="a_node8"><a xlink:href="tinyprintf_8c.html#aa853a0c5ba64fa2546d488b86192e7e3" target="_top" xlink:title="a2d">
<polygon fill="#ffffff" stroke="#000000" points="788.5,-266.5 788.5,-285.5 821.5,-285.5 821.5,-266.5 788.5,-266.5"/>
<text text-anchor="middle" x="805" y="-273.5" font-family="Helvetica,sans-Serif" font-size="10.00" fill="#000000">a2d</text>
</a>
</g>
</g>
<!-- Node87&#45;&gt;Node88 -->
<g id="edge7" class="edge">
<title>Node87&#45;&gt;Node88</title>
<path fill="none" stroke="#191970" d="M741.5761,-276C752.1953,-276 766.2154,-276 778.373,-276"/>
<polygon fill="#191970" stroke="#191970" points="778.4452,-279.5001 788.4452,-276 778.4451,-272.5001 778.4452,-279.5001"/>
</g>
<!-- Node93&#45;&gt;Node89 -->
<g id="edge13" class="edge">
<title>Node93&#45;&gt;Node89</title>
<path fill="none" stroke="#191970" d="M742.3588,-204.1227C751.8312,-206.3724 763.8293,-209.222 774.7843,-211.8238"/>
<polygon fill="#191970" stroke="#191970" points="774.3132,-215.3092 784.8514,-214.2147 775.9308,-208.4986 774.3132,-215.3092"/>
</g>
<!-- Node94&#45;&gt;Node90 -->
<g id="edge15" class="edge">
<title>Node94&#45;&gt;Node90</title>
<path fill="none" stroke="#191970" d="M741.1892,-127.8449C751.1474,-130.21 764.2011,-133.3103 775.9059,-136.0902"/>
<polygon fill="#191970" stroke="#191970" points="775.1949,-139.5186 785.733,-138.4241 776.8124,-132.708 775.1949,-139.5186"/>
</g>
<!-- Node95&#45;&gt;Node91 -->
<g id="edge17" class="edge">
<title>Node95&#45;&gt;Node91</title>
<path fill="none" stroke="#191970" d="M740.0474,-51.5738C750.5142,-54.0596 764.7762,-57.4469 777.27,-60.4141"/>
<polygon fill="#191970" stroke="#191970" points="776.6886,-63.8733 787.2268,-62.7789 778.3062,-57.0628 776.6886,-63.8733"/>
</g>
<!-- Node98&#45;&gt;Node83 -->
<g id="edge21" class="edge">
<title>Node98&#45;&gt;Node83</title>
<path fill="none" stroke="#191970" d="M268.2782,-162C294.0349,-162 325.1775,-162 346.8705,-162"/>
<polygon fill="#191970" stroke="#191970" points="346.9849,-165.5001 356.9849,-162 346.9848,-158.5001 346.9849,-165.5001"/>
</g>
<!-- Node98&#45;&gt;Node84 -->
<g id="edge22" class="edge">
<title>Node98&#45;&gt;Node84</title>
<path fill="none" stroke="#191970" d="M260.2298,-152.411C281.6662,-147.0342 308.4657,-140.3122 330.6148,-134.7567"/>
<polygon fill="#191970" stroke="#191970" points="331.5802,-138.123 340.4282,-132.2952 329.8771,-131.3334 331.5802,-138.123"/>
</g>
<!-- Node99&#45;&gt;Node83 -->
<g id="edge24" class="edge">
<title>Node99&#45;&gt;Node83</title>
<path fill="none" stroke="#191970" d="M260.2298,-133.589C287.2605,-140.369 322.8189,-149.2879 346.8276,-155.3099"/>
<polygon fill="#191970" stroke="#191970" points="346.1114,-158.7386 356.6624,-157.7767 347.8144,-151.9489 346.1114,-158.7386"/>
</g>
<!-- Node99&#45;&gt;Node84 -->
<g id="edge25" class="edge">
<title>Node99&#45;&gt;Node84</title>
<path fill="none" stroke="#191970" d="M271.1877,-124C290.1992,-124 311.7665,-124 330.1816,-124"/>
<polygon fill="#191970" stroke="#191970" points="330.3332,-127.5001 340.3332,-124 330.3331,-120.5001 330.3332,-127.5001"/>
</g>
</g>
</svg>
