<?xml version="1.0" encoding="UTF-8" standalone="no"?>
<!DOCTYPE svg PUBLIC "-//W3C//DTD SVG 1.1//EN"
 "http://www.w3.org/Graphics/SVG/1.1/DTD/svg11.dtd">
<!-- Generated by graphviz version 2.41.20170323.1842 (20170323.1842)
 -->
<!-- Title: en61107_uart_send_inst_values Pages: 1 -->
<svg width="1610pt" height="295pt"
 viewBox="0.00 0.00 1610.00 295.43" xmlns="http://www.w3.org/2000/svg" xmlns:xlink="http://www.w3.org/1999/xlink">
<g id="graph0" class="graph" transform="scale(1 1) rotate(0) translate(4 291.4261)">
<title>en61107_uart_send_inst_values</title>
<polygon fill="#ffffff" stroke="transparent" points="-4,4 -4,-291.4261 1606,-291.4261 1606,4 -4,4"/>
<!-- Node432 -->
<g id="node1" class="node">
<title>Node432</title>
<polygon fill="#bfbfbf" stroke="#000000" points="0,-59.9261 0,-89.9261 127,-89.9261 127,-59.9261 0,-59.9261"/>
<text text-anchor="start" x="8" y="-77.9261" font-family="Helvetica,sans-Serif" font-size="10.00" fill="#000000">en61107_uart_send_inst</text>
<text text-anchor="middle" x="63.5" y="-66.9261" font-family="Helvetica,sans-Serif" font-size="10.00" fill="#000000">_values</text>
</g>
<!-- Node433 -->
<g id="node2" class="node">
<title>Node433</title>
<g id="a_node2"><a xlink:href="en61107__request_8h.html#a22f1fee248eec0eeacf220c69b878a28" target="_top" xlink:title="en61107_receive_timeout\l_timer_func">
<polygon fill="#ffffff" stroke="#000000" points="163,-130.9261 163,-160.9261 295,-160.9261 295,-130.9261 163,-130.9261"/>
<text text-anchor="start" x="171" y="-148.9261" font-family="Helvetica,sans-Serif" font-size="10.00" fill="#000000">en61107_receive_timeout</text>
<text text-anchor="middle" x="229" y="-137.9261" font-family="Helvetica,sans-Serif" font-size="10.00" fill="#000000">_timer_func</text>
</a>
</g>
</g>
<!-- Node432&#45;&gt;Node433 -->
<g id="edge1" class="edge">
<title>Node432&#45;&gt;Node433</title>
<path fill="none" stroke="#191970" d="M107.8295,-93.9436C134.8283,-105.5262 168.8405,-120.1175 193.9523,-130.8906"/>
<polygon fill="#191970" stroke="#191970" points="109.1682,-90.7095 98.5983,-89.9834 106.4084,-97.1425 109.1682,-90.7095"/>
</g>
<!-- Node444 -->
<g id="node13" class="node">
<title>Node444</title>
<g id="a_node13"><a xlink:href="en61107__request_8c.html#aa3b162cf5364986ea19e831ac2b18f76" target="_top" xlink:title="en61107_received_task">
<polygon fill="#ffffff" stroke="#000000" points="517,-112.4261 517,-131.4261 640,-131.4261 640,-112.4261 517,-112.4261"/>
<text text-anchor="middle" x="578.5" y="-119.4261" font-family="Helvetica,sans-Serif" font-size="10.00" fill="#000000">en61107_received_task</text>
</a>
</g>
</g>
<!-- Node432&#45;&gt;Node444 -->
<g id="edge27" class="edge">
<title>Node432&#45;&gt;Node444</title>
<path fill="none" stroke="#191970" d="M106.1806,-55.9507C183.9585,-24.2782 352.5836,30.8408 481,-22.9261 525.2808,-41.4662 559.6345,-91.0043 572.7373,-112.1451"/>
<polygon fill="#191970" stroke="#191970" points="104.6079,-52.8137 96.7097,-59.8755 107.2879,-59.2804 104.6079,-52.8137"/>
</g>
<!-- Node434 -->
<g id="node3" class="node">
<title>Node434</title>
<g id="a_node3"><a xlink:href="en61107__request_8h.html#a353102f2f89ad4ed996501752c0ac59c" target="_top" xlink:title="en61107_uart_send_en61107\l_ident">
<polygon fill="#ffffff" stroke="#000000" points="331,-256.9261 331,-286.9261 481,-286.9261 481,-256.9261 331,-256.9261"/>
<text text-anchor="start" x="339" y="-274.9261" font-family="Helvetica,sans-Serif" font-size="10.00" fill="#000000">en61107_uart_send_en61107</text>
<text text-anchor="middle" x="406" y="-263.9261" font-family="Helvetica,sans-Serif" font-size="10.00" fill="#000000">_ident</text>
</a>
</g>
</g>
<!-- Node433&#45;&gt;Node434 -->
<g id="edge2" class="edge">
<title>Node433&#45;&gt;Node434</title>
<path fill="none" stroke="#191970" d="M255.0173,-168.2391C274.3367,-187.4811 302.2218,-214.5692 331,-232.9261 346.6067,-242.8813 366.0592,-250.5463 381.2422,-256.8698"/>
<polygon fill="#191970" stroke="#191970" points="257.3448,-165.617 247.7945,-161.0298 252.3997,-170.5715 257.3448,-165.617"/>
</g>
<!-- Node443 -->
<g id="node12" class="node">
<title>Node443</title>
<g id="a_node12"><a xlink:href="en61107__request_8h.html#a8b6b61143d95d3af3813f8be1aaf3447" target="_top" xlink:title="en61107_uart_send_en61107">
<polygon fill="#ffffff" stroke="#000000" points="331,-180.4261 331,-199.4261 481,-199.4261 481,-180.4261 331,-180.4261"/>
<text text-anchor="middle" x="406" y="-187.4261" font-family="Helvetica,sans-Serif" font-size="10.00" fill="#000000">en61107_uart_send_en61107</text>
</a>
</g>
</g>
<!-- Node433&#45;&gt;Node443 -->
<g id="edge14" class="edge">
<title>Node433&#45;&gt;Node443</title>
<path fill="none" stroke="#191970" d="M299.2934,-163.4002C322.6343,-169.2024 347.7412,-175.4437 367.7341,-180.4137"/>
<polygon fill="#191970" stroke="#191970" points="299.9673,-159.9613 289.4183,-160.9454 298.2786,-166.7545 299.9673,-159.9613"/>
</g>
<!-- Node446 -->
<g id="node15" class="node">
<title>Node446</title>
<g id="a_node15"><a xlink:href="en61107__request_8h.html#afdb1795bdd4212fc7e028a9e5668fab4" target="_top" xlink:title="en61107_uart_send_standard\l_data_1">
<polygon fill="#ffffff" stroke="#000000" points="331,-130.9261 331,-160.9261 481,-160.9261 481,-130.9261 331,-130.9261"/>
<text text-anchor="start" x="339" y="-148.9261" font-family="Helvetica,sans-Serif" font-size="10.00" fill="#000000">en61107_uart_send_standard</text>
<text text-anchor="middle" x="406" y="-137.9261" font-family="Helvetica,sans-Serif" font-size="10.00" fill="#000000">_data_1</text>
</a>
</g>
</g>
<!-- Node433&#45;&gt;Node446 -->
<g id="edge18" class="edge">
<title>Node433&#45;&gt;Node446</title>
<path fill="none" stroke="#191970" d="M305.4108,-139.2324C313.8936,-139.153 322.5275,-139.1576 330.9927,-139.2463"/>
<polygon fill="#191970" stroke="#191970" points="305.1117,-135.736 295.16,-139.371 305.2064,-142.7354 305.1117,-135.736"/>
</g>
<!-- Node447 -->
<g id="node16" class="node">
<title>Node447</title>
<g id="a_node16"><a xlink:href="en61107__request_8h.html#a10b80328698f459ae2251fe146cdc375" target="_top" xlink:title="en61107_uart_send_standard\l_data_2">
<polygon fill="#ffffff" stroke="#000000" points="331,-81.9261 331,-111.9261 481,-111.9261 481,-81.9261 331,-81.9261"/>
<text text-anchor="start" x="339" y="-99.9261" font-family="Helvetica,sans-Serif" font-size="10.00" fill="#000000">en61107_uart_send_standard</text>
<text text-anchor="middle" x="406" y="-88.9261" font-family="Helvetica,sans-Serif" font-size="10.00" fill="#000000">_data_2</text>
</a>
</g>
</g>
<!-- Node433&#45;&gt;Node447 -->
<g id="edge21" class="edge">
<title>Node433&#45;&gt;Node447</title>
<path fill="none" stroke="#191970" d="M273.4185,-127.6869C290.8346,-122.1697 311.3093,-116.2555 330.889,-111.0387"/>
<polygon fill="#191970" stroke="#191970" points="271.9842,-124.4722 263.5476,-130.8811 274.1394,-131.1322 271.9842,-124.4722"/>
</g>
<!-- Node448 -->
<g id="node17" class="node">
<title>Node448</title>
<g id="a_node17"><a xlink:href="en61107__request_8h.html#a74c2d949e6bb3b65cdf794a0643dd67d" target="_top" xlink:title="en61107_uart_send_inst\l_values">
<polygon fill="#ffffff" stroke="#000000" points="342.5,-32.9261 342.5,-62.9261 469.5,-62.9261 469.5,-32.9261 342.5,-32.9261"/>
<text text-anchor="start" x="350.5" y="-50.9261" font-family="Helvetica,sans-Serif" font-size="10.00" fill="#000000">en61107_uart_send_inst</text>
<text text-anchor="middle" x="406" y="-39.9261" font-family="Helvetica,sans-Serif" font-size="10.00" fill="#000000">_values</text>
</a>
</g>
</g>
<!-- Node433&#45;&gt;Node448 -->
<g id="edge24" class="edge">
<title>Node433&#45;&gt;Node448</title>
<path fill="none" stroke="#191970" d="M247.1518,-123.285C266.6933,-104.5036 299.263,-78.9942 331,-62.9261 334.6591,-61.0735 338.4906,-59.3256 342.4038,-57.6976"/>
<polygon fill="#191970" stroke="#191970" points="244.4239,-121.0645 239.8528,-130.6225 249.3866,-126.0012 244.4239,-121.0645"/>
</g>
<!-- Node434&#45;&gt;Node433 -->
<g id="edge3" class="edge">
<title>Node434&#45;&gt;Node433</title>
<path fill="none" stroke="#191970" d="M332.2045,-251.6852C331.8006,-251.4337 331.399,-251.1807 331,-250.9261 291.431,-225.686 253.5504,-183.9393 237.3025,-161.0642"/>
<polygon fill="#191970" stroke="#191970" points="330.576,-254.7861 340.9901,-256.7345 334.0641,-248.717 330.576,-254.7861"/>
</g>
<!-- Node435 -->
<g id="node4" class="node">
<title>Node435</title>
<g id="a_node4"><a xlink:href="en61107__request_8h.html#a2fa4e9967afddae0c1dedbc914dcee36" target="_top" xlink:title="en61107_meter_wake\l_up_timer_func">
<polygon fill="#ffffff" stroke="#000000" points="521,-212.9261 521,-242.9261 636,-242.9261 636,-212.9261 521,-212.9261"/>
<text text-anchor="start" x="529" y="-230.9261" font-family="Helvetica,sans-Serif" font-size="10.00" fill="#000000">en61107_meter_wake</text>
<text text-anchor="middle" x="578.5" y="-219.9261" font-family="Helvetica,sans-Serif" font-size="10.00" fill="#000000">_up_timer_func</text>
</a>
</g>
</g>
<!-- Node434&#45;&gt;Node435 -->
<g id="edge4" class="edge">
<title>Node434&#45;&gt;Node435</title>
<path fill="none" stroke="#191970" d="M474.7675,-254.3854C490.0089,-250.4978 506.0107,-246.4162 520.7592,-242.6542"/>
<polygon fill="#191970" stroke="#191970" points="473.7069,-251.0438 464.8822,-256.9069 475.4371,-257.8266 473.7069,-251.0438"/>
</g>
<!-- Node435&#45;&gt;Node433 -->
<g id="edge5" class="edge">
<title>Node435&#45;&gt;Node433</title>
<path fill="none" stroke="#191970" d="M510.8005,-231.2456C460.0913,-231.7148 389.6515,-228.0348 331,-208.9261 298.9403,-198.481 266.6101,-176.0271 247.1901,-160.9457"/>
<polygon fill="#191970" stroke="#191970" points="511.0433,-234.7425 520.9898,-231.0932 510.9386,-227.7433 511.0433,-234.7425"/>
</g>
<!-- Node436 -->
<g id="node5" class="node">
<title>Node436</title>
<g id="a_node5"><a xlink:href="en61107__request_8h.html#a7384d014eb9e833f64ecf4a9f86f87be" target="_top" xlink:title="en61107_request_send">
<polygon fill="#ffffff" stroke="#000000" points="676,-214.4261 676,-233.4261 798,-233.4261 798,-214.4261 676,-214.4261"/>
<text text-anchor="middle" x="737" y="-221.4261" font-family="Helvetica,sans-Serif" font-size="10.00" fill="#000000">en61107_request_send</text>
</a>
</g>
</g>
<!-- Node435&#45;&gt;Node436 -->
<g id="edge6" class="edge">
<title>Node435&#45;&gt;Node436</title>
<path fill="none" stroke="#191970" d="M646.3048,-226.215C656.1381,-225.9668 666.2115,-225.7126 675.9022,-225.468"/>
<polygon fill="#191970" stroke="#191970" points="646.079,-222.7194 636.1705,-226.4707 646.2557,-229.7172 646.079,-222.7194"/>
</g>
<!-- Node437 -->
<g id="node6" class="node">
<title>Node437</title>
<g id="a_node6"><a xlink:href="user__main_8c.html#af2c051d5ceacd30f90c08d6f584deff2" target="_top" xlink:title="sample_timer_func">
<polygon fill="#ffffff" stroke="#000000" points="840,-202.4261 840,-221.4261 941,-221.4261 941,-202.4261 840,-202.4261"/>
<text text-anchor="middle" x="890.5" y="-209.4261" font-family="Helvetica,sans-Serif" font-size="10.00" fill="#000000">sample_timer_func</text>
</a>
</g>
</g>
<!-- Node436&#45;&gt;Node437 -->
<g id="edge7" class="edge">
<title>Node436&#45;&gt;Node437</title>
<path fill="none" stroke="#191970" d="M808.2901,-218.353C818.9836,-217.517 829.8193,-216.6699 839.9609,-215.8771"/>
<polygon fill="#191970" stroke="#191970" points="807.8051,-214.8801 798.1083,-219.1489 808.3507,-221.8588 807.8051,-214.8801"/>
</g>
<!-- Node438 -->
<g id="node7" class="node">
<title>Node438</title>
<g id="a_node7"><a xlink:href="user__main_8h.html#ad6eb800c4d7f9c79df52949d88a18d06" target="_top" xlink:title="mqtt_connected_cb">
<polygon fill="#ffffff" stroke="#000000" points="983,-196.4261 983,-215.4261 1087,-215.4261 1087,-196.4261 983,-196.4261"/>
<text text-anchor="middle" x="1035" y="-203.4261" font-family="Helvetica,sans-Serif" font-size="10.00" fill="#000000">mqtt_connected_cb</text>
</a>
</g>
</g>
<!-- Node437&#45;&gt;Node438 -->
<g id="edge8" class="edge">
<title>Node437&#45;&gt;Node438</title>
<path fill="none" stroke="#191970" d="M951.3475,-209.3996C961.7982,-208.9656 972.5755,-208.5181 982.7747,-208.0946"/>
<polygon fill="#191970" stroke="#191970" points="950.8852,-205.9157 941.0391,-209.8276 951.1757,-212.9096 950.8852,-205.9157"/>
</g>
<!-- Node439 -->
<g id="node8" class="node">
<title>Node439</title>
<g id="a_node8"><a xlink:href="user__main_8c.html#a245ec00253f410a8804988bf40e1037e" target="_top" xlink:title="sample_mode_timer_func">
<polygon fill="#ffffff" stroke="#000000" points="1250,-158.4261 1250,-177.4261 1382,-177.4261 1382,-158.4261 1250,-158.4261"/>
<text text-anchor="middle" x="1316" y="-165.4261" font-family="Helvetica,sans-Serif" font-size="10.00" fill="#000000">sample_mode_timer_func</text>
</a>
</g>
</g>
<!-- Node438&#45;&gt;Node439 -->
<g id="edge9" class="edge">
<title>Node438&#45;&gt;Node439</title>
<path fill="none" stroke="#191970" d="M1097.6041,-200.494C1132.0355,-197.2019 1175.4668,-192.5512 1214,-186.9261 1232.0914,-184.2851 1251.8712,-180.7516 1269.1567,-177.4484"/>
<polygon fill="#191970" stroke="#191970" points="1096.8506,-197.0494 1087.2228,-201.4717 1097.507,-204.0186 1096.8506,-197.0494"/>
</g>
<!-- Node442 -->
<g id="node11" class="node">
<title>Node442</title>
<g id="a_node11"><a xlink:href="user__main_8h.html#a7a3bf0cc09d98adc72f4e34d26ce3fa1" target="_top" xlink:title="wifi_changed_cb">
<polygon fill="#ffffff" stroke="#000000" points="1123,-158.4261 1123,-177.4261 1214,-177.4261 1214,-158.4261 1123,-158.4261"/>
<text text-anchor="middle" x="1168.5" y="-165.4261" font-family="Helvetica,sans-Serif" font-size="10.00" fill="#000000">wifi_changed_cb</text>
</a>
</g>
</g>
<!-- Node438&#45;&gt;Node442 -->
<g id="edge12" class="edge">
<title>Node438&#45;&gt;Node442</title>
<path fill="none" stroke="#191970" d="M1078.53,-193.5356C1096.8122,-188.3316 1117.7492,-182.372 1134.8231,-177.5121"/>
<polygon fill="#191970" stroke="#191970" points="1077.3474,-190.2331 1068.6877,-196.3371 1079.2639,-196.9656 1077.3474,-190.2331"/>
</g>
<!-- Node440 -->
<g id="node9" class="node">
<title>Node440</title>
<g id="a_node9"><a xlink:href="user__main_8h.html#a3671381db669a16e8f6a4bf3dfb9a441" target="_top" xlink:title="system_init_done">
<polygon fill="#ffffff" stroke="#000000" points="1418,-155.4261 1418,-174.4261 1512,-174.4261 1512,-155.4261 1418,-155.4261"/>
<text text-anchor="middle" x="1465" y="-162.4261" font-family="Helvetica,sans-Serif" font-size="10.00" fill="#000000">system_init_done</text>
</a>
</g>
</g>
<!-- Node439&#45;&gt;Node440 -->
<g id="edge10" class="edge">
<title>Node439&#45;&gt;Node440</title>
<path fill="none" stroke="#191970" d="M1392.361,-166.3887C1401.0092,-166.2145 1409.624,-166.0411 1417.7387,-165.8777"/>
<polygon fill="#191970" stroke="#191970" points="1392.1488,-162.8921 1382.2213,-166.5928 1392.2897,-169.8907 1392.1488,-162.8921"/>
</g>
<!-- Node441 -->
<g id="node10" class="node">
<title>Node441</title>
<g id="a_node10"><a xlink:href="user__main_8h.html#a33113d6dedb440bd7dfa5576e325140c" target="_top" xlink:title="user_init">
<polygon fill="#ffffff" stroke="#000000" points="1548,-136.4261 1548,-155.4261 1602,-155.4261 1602,-136.4261 1548,-136.4261"/>
<text text-anchor="middle" x="1575" y="-143.4261" font-family="Helvetica,sans-Serif" font-size="10.00" fill="#000000">user_init</text>
</a>
</g>
</g>
<!-- Node440&#45;&gt;Node441 -->
<g id="edge11" class="edge">
<title>Node440&#45;&gt;Node441</title>
<path fill="none" stroke="#191970" d="M1522.2886,-155.0308C1531.1598,-153.4985 1539.9515,-151.98 1547.7383,-150.635"/>
<polygon fill="#191970" stroke="#191970" points="1521.5466,-151.6071 1512.2883,-156.7581 1522.7381,-158.5049 1521.5466,-151.6071"/>
</g>
<!-- Node442&#45;&gt;Node439 -->
<g id="edge13" class="edge">
<title>Node442&#45;&gt;Node439</title>
<path fill="none" stroke="#191970" d="M1224.6135,-167.9261C1232.8659,-167.9261 1241.4313,-167.9261 1249.8626,-167.9261"/>
<polygon fill="#191970" stroke="#191970" points="1224.3614,-164.4262 1214.3614,-167.9261 1224.3614,-171.4262 1224.3614,-164.4262"/>
</g>
<!-- Node443&#45;&gt;Node444 -->
<g id="edge15" class="edge">
<title>Node443&#45;&gt;Node444</title>
<path fill="none" stroke="#191970" d="M457.3724,-177.6704C465.365,-175.3506 473.4655,-172.7538 481,-169.9261 510.3224,-158.9212 542.6133,-142.0057 561.6936,-131.4721"/>
<polygon fill="#191970" stroke="#191970" points="456.4156,-174.3036 447.7221,-180.3594 458.2947,-181.0467 456.4156,-174.3036"/>
</g>
<!-- Node445 -->
<g id="node14" class="node">
<title>Node445</title>
<g id="a_node14"><a xlink:href="en61107__request_8h.html#acd43242675a3f25e7c3b530eac9d8b3a" target="_top" xlink:title="en61107_request_init">
<polygon fill="#ffffff" stroke="#000000" points="834,-116.4261 834,-135.4261 947,-135.4261 947,-116.4261 834,-116.4261"/>
<text text-anchor="middle" x="890.5" y="-123.4261" font-family="Helvetica,sans-Serif" font-size="10.00" fill="#000000">en61107_request_init</text>
</a>
</g>
</g>
<!-- Node444&#45;&gt;Node445 -->
<g id="edge16" class="edge">
<title>Node444&#45;&gt;Node445</title>
<path fill="none" stroke="#191970" d="M650.313,-122.8468C706.1248,-123.5623 782.461,-124.541 833.9723,-125.2014"/>
<polygon fill="#191970" stroke="#191970" points="650.1852,-119.345 640.1412,-122.7164 650.0954,-126.3444 650.1852,-119.345"/>
</g>
<!-- Node445&#45;&gt;Node441 -->
<g id="edge17" class="edge">
<title>Node445&#45;&gt;Node441</title>
<path fill="none" stroke="#191970" d="M957.403,-126.3016C1013.7136,-126.5853 1096.37,-126.9261 1168.5,-126.9261 1168.5,-126.9261 1168.5,-126.9261 1316,-126.9261 1400.7619,-126.9261 1500.7102,-137.1729 1547.8272,-142.6166"/>
<polygon fill="#191970" stroke="#191970" points="957.2215,-122.8007 947.2037,-126.2494 957.1856,-129.8007 957.2215,-122.8007"/>
</g>
<!-- Node446&#45;&gt;Node433 -->
<g id="edge19" class="edge">
<title>Node446&#45;&gt;Node433</title>
<path fill="none" stroke="#191970" d="M320.8867,-152.6717C312.2441,-152.6942 303.5585,-152.6307 295.16,-152.4812"/>
<polygon fill="#191970" stroke="#191970" points="321.0157,-156.1711 330.9927,-152.6059 320.9701,-149.1712 321.0157,-156.1711"/>
</g>
<!-- Node446&#45;&gt;Node444 -->
<g id="edge20" class="edge">
<title>Node446&#45;&gt;Node444</title>
<path fill="none" stroke="#191970" d="M491.2418,-134.0664C499.8535,-132.8682 508.4785,-131.6682 516.7735,-130.5142"/>
<polygon fill="#191970" stroke="#191970" points="490.5815,-130.6245 481.1592,-135.4692 491.5461,-137.5577 490.5815,-130.6245"/>
</g>
<!-- Node447&#45;&gt;Node433 -->
<g id="edge22" class="edge">
<title>Node447&#45;&gt;Node433</title>
<path fill="none" stroke="#191970" d="M361.8891,-115.0679C341.7353,-121.4601 317.4373,-128.395 295.16,-134.1658"/>
<polygon fill="#191970" stroke="#191970" points="362.9873,-118.3913 371.4228,-111.9809 360.8309,-111.7317 362.9873,-118.3913"/>
</g>
<!-- Node447&#45;&gt;Node444 -->
<g id="edge23" class="edge">
<title>Node447&#45;&gt;Node444</title>
<path fill="none" stroke="#191970" d="M491.2418,-109.28C499.8535,-110.5281 508.4785,-111.7781 516.7735,-112.9803"/>
<polygon fill="#191970" stroke="#191970" points="491.5578,-105.7893 481.1592,-107.8188 490.5538,-112.7169 491.5578,-105.7893"/>
</g>
<!-- Node448&#45;&gt;Node433 -->
<g id="edge25" class="edge">
<title>Node448&#45;&gt;Node433</title>
<path fill="none" stroke="#191970" d="M367.2865,-66.3132C355.3343,-70.4486 342.3395,-75.1851 331,-80.9261 303.2834,-94.9587 274.9318,-116.1921 255.1773,-130.7844"/>
<polygon fill="#191970" stroke="#191970" points="368.6997,-69.5286 377.022,-62.972 366.4274,-62.9077 368.6997,-69.5286"/>
</g>
<!-- Node448&#45;&gt;Node444 -->
<g id="edge26" class="edge">
<title>Node448&#45;&gt;Node444</title>
<path fill="none" stroke="#191970" d="M466.4198,-66.3016C471.3891,-68.1028 476.3032,-69.9857 481,-71.9261 510.3615,-84.0564 542.9068,-101.638 561.9871,-112.3967"/>
<polygon fill="#191970" stroke="#191970" points="467.433,-62.948 456.8381,-62.9448 465.1185,-69.5543 467.433,-62.948"/>
</g>
</g>
</svg>
