<?xml version="1.0" encoding="UTF-8" standalone="no"?>
<!DOCTYPE svg PUBLIC "-//W3C//DTD SVG 1.1//EN"
 "http://www.w3.org/Graphics/SVG/1.1/DTD/svg11.dtd">
<!-- Generated by graphviz version 2.41.20170323.1842 (20170323.1842)
 -->
<!-- Title: parse_mc66cde_inst_values_frame Pages: 1 -->
<svg width="743pt" height="294pt"
 viewBox="0.00 0.00 743.00 294.00" xmlns="http://www.w3.org/2000/svg" xmlns:xlink="http://www.w3.org/1999/xlink">
<g id="graph0" class="graph" transform="scale(1 1) rotate(0) translate(4 290)">
<title>parse_mc66cde_inst_values_frame</title>
<polygon fill="#ffffff" stroke="transparent" points="-4,4 -4,-290 739,-290 739,4 -4,4"/>
<!-- Node61 -->
<g id="node1" class="node">
<title>Node61</title>
<polygon fill="#bfbfbf" stroke="#000000" points="0,-128 0,-158 109,-158 109,-128 0,-128"/>
<text text-anchor="start" x="8" y="-146" font-family="Helvetica,sans-Serif" font-size="10.00" fill="#000000">parse_mc66cde_inst</text>
<text text-anchor="middle" x="54.5" y="-135" font-family="Helvetica,sans-Serif" font-size="10.00" fill="#000000">_values_frame</text>
</g>
<!-- Node62 -->
<g id="node2" class="node">
<title>Node62</title>
<g id="a_node2"><a xlink:href="utils_8c.html#ae7c507f8b417b23e187f267fd8a2adf2" target="_top" xlink:title="divide_str_by_100">
<polygon fill="#ffffff" stroke="#000000" points="145,-152.5 145,-171.5 243,-171.5 243,-152.5 145,-152.5"/>
<text text-anchor="middle" x="194" y="-159.5" font-family="Helvetica,sans-Serif" font-size="10.00" fill="#000000">divide_str_by_100</text>
</a>
</g>
</g>
<!-- Node61&#45;&gt;Node62 -->
<g id="edge1" class="edge">
<title>Node61&#45;&gt;Node62</title>
<path fill="none" stroke="#191970" d="M109.2337,-150.4548C117.5908,-151.593 126.2498,-152.7724 134.6995,-153.9232"/>
<polygon fill="#191970" stroke="#191970" points="134.4872,-157.4266 144.8681,-155.3082 135.432,-150.4906 134.4872,-157.4266"/>
</g>
<!-- Node64 -->
<g id="node4" class="node">
<title>Node64</title>
<g id="a_node4"><a xlink:href="tinyprintf_8c.html#a9738cbc6c538d210941db282e240c7d6" target="_top" xlink:title="tfp_snprintf">
<polygon fill="#ffffff" stroke="#000000" points="279,-114.5 279,-133.5 345,-133.5 345,-114.5 279,-114.5"/>
<text text-anchor="middle" x="312" y="-121.5" font-family="Helvetica,sans-Serif" font-size="10.00" fill="#000000">tfp_snprintf</text>
</a>
</g>
</g>
<!-- Node61&#45;&gt;Node64 -->
<g id="edge19" class="edge">
<title>Node61&#45;&gt;Node64</title>
<path fill="none" stroke="#191970" d="M109.1091,-138.9706C156.6715,-135.4611 224.7111,-130.4407 268.6256,-127.2004"/>
<polygon fill="#191970" stroke="#191970" points="268.9838,-130.6836 278.6991,-126.4572 268.4687,-123.7026 268.9838,-130.6836"/>
</g>
<!-- Node63 -->
<g id="node3" class="node">
<title>Node63</title>
<g id="a_node3"><a xlink:href="espmissingincludes_8h.html#ad228deceea1bac4d9f171f647c265059" target="_top" xlink:title="atoi">
<polygon fill="#ffffff" stroke="#000000" points="295.5,-152.5 295.5,-171.5 328.5,-171.5 328.5,-152.5 295.5,-152.5"/>
<text text-anchor="middle" x="312" y="-159.5" font-family="Helvetica,sans-Serif" font-size="10.00" fill="#000000">atoi</text>
</a>
</g>
</g>
<!-- Node62&#45;&gt;Node63 -->
<g id="edge2" class="edge">
<title>Node62&#45;&gt;Node63</title>
<path fill="none" stroke="#191970" d="M243.0175,-162C257.4161,-162 272.6316,-162 285.0984,-162"/>
<polygon fill="#191970" stroke="#191970" points="285.2569,-165.5001 295.2569,-162 285.2569,-158.5001 285.2569,-165.5001"/>
</g>
<!-- Node62&#45;&gt;Node64 -->
<g id="edge3" class="edge">
<title>Node62&#45;&gt;Node64</title>
<path fill="none" stroke="#191970" d="M223.7764,-152.411C238.5898,-147.6406 256.6914,-141.8112 272.6342,-136.6771"/>
<polygon fill="#191970" stroke="#191970" points="273.7874,-139.9828 282.2331,-133.5859 271.6416,-133.3198 273.7874,-139.9828"/>
</g>
<!-- Node65 -->
<g id="node5" class="node">
<title>Node65</title>
<g id="a_node5"><a xlink:href="tinyprintf_8c.html#ac8c8a66133cf0d7009c0d73b55311a44" target="_top" xlink:title="tfp_vsnprintf">
<polygon fill="#ffffff" stroke="#000000" points="381,-114.5 381,-133.5 452,-133.5 452,-114.5 381,-114.5"/>
<text text-anchor="middle" x="416.5" y="-121.5" font-family="Helvetica,sans-Serif" font-size="10.00" fill="#000000">tfp_vsnprintf</text>
</a>
</g>
</g>
<!-- Node64&#45;&gt;Node65 -->
<g id="edge4" class="edge">
<title>Node64&#45;&gt;Node65</title>
<path fill="none" stroke="#191970" d="M345.0645,-124C353.1415,-124 361.9289,-124 370.4895,-124"/>
<polygon fill="#191970" stroke="#191970" points="370.7563,-127.5001 380.7563,-124 370.7562,-120.5001 370.7563,-127.5001"/>
</g>
<!-- Node66 -->
<g id="node6" class="node">
<title>Node66</title>
<g id="a_node6"><a xlink:href="tinyprintf_8c.html#a5877e42444463efc71a91b5fe76a6145" target="_top" xlink:title="tfp_format">
<polygon fill="#ffffff" stroke="#000000" points="500.5,-133.5 500.5,-152.5 562.5,-152.5 562.5,-133.5 500.5,-133.5"/>
<text text-anchor="middle" x="531.5" y="-140.5" font-family="Helvetica,sans-Serif" font-size="10.00" fill="#000000">tfp_format</text>
</a>
</g>
</g>
<!-- Node65&#45;&gt;Node66 -->
<g id="edge5" class="edge">
<title>Node65&#45;&gt;Node66</title>
<path fill="none" stroke="#191970" d="M452.2563,-129.9076C464.31,-131.899 477.8587,-134.1375 490.2981,-136.1927"/>
<polygon fill="#191970" stroke="#191970" points="489.9923,-139.6896 500.4291,-137.8665 491.1334,-132.7832 489.9923,-139.6896"/>
</g>
<!-- Node76 -->
<g id="node16" class="node">
<title>Node76</title>
<g id="a_node16"><a xlink:href="tinyprintf_8c.html#a919051024b2d729e34a54648b3f2462d" target="_top" xlink:title="_vsnprintf_putcf">
<polygon fill="#ffffff" stroke="#000000" points="488,-95.5 488,-114.5 575,-114.5 575,-95.5 488,-95.5"/>
<text text-anchor="middle" x="531.5" y="-102.5" font-family="Helvetica,sans-Serif" font-size="10.00" fill="#000000">_vsnprintf_putcf</text>
</a>
</g>
</g>
<!-- Node65&#45;&gt;Node76 -->
<g id="edge18" class="edge">
<title>Node65&#45;&gt;Node76</title>
<path fill="none" stroke="#191970" d="M452.2563,-118.0924C460.3127,-116.7614 469.037,-115.32 477.6515,-113.8967"/>
<polygon fill="#191970" stroke="#191970" points="478.3715,-117.3253 487.6672,-112.2419 477.2304,-110.4189 478.3715,-117.3253"/>
</g>
<!-- Node67 -->
<g id="node7" class="node">
<title>Node67</title>
<g id="a_node7"><a xlink:href="tinyprintf_8c.html#aa97593a5e53af85b608ad0910db92d77" target="_top" xlink:title="a2u">
<polygon fill="#ffffff" stroke="#000000" points="618.5,-266.5 618.5,-285.5 651.5,-285.5 651.5,-266.5 618.5,-266.5"/>
<text text-anchor="middle" x="635" y="-273.5" font-family="Helvetica,sans-Serif" font-size="10.00" fill="#000000">a2u</text>
</a>
</g>
</g>
<!-- Node66&#45;&gt;Node67 -->
<g id="edge6" class="edge">
<title>Node66&#45;&gt;Node67</title>
<path fill="none" stroke="#191970" d="M537.8324,-152.706C550.7216,-172.2184 581.3056,-217.297 611,-252 612.9395,-254.2666 615.0504,-256.5753 617.1892,-258.8208"/>
<polygon fill="#191970" stroke="#191970" points="614.8349,-261.4175 624.359,-266.0588 619.808,-256.4912 614.8349,-261.4175"/>
</g>
<!-- Node69 -->
<g id="node9" class="node">
<title>Node69</title>
<g id="a_node9"><a xlink:href="tinyprintf_8c.html#abcf035dd576671b0cc897de9dd8c75b0" target="_top" xlink:title="ulli2a">
<polygon fill="#ffffff" stroke="#000000" points="695,-209.5 695,-228.5 735,-228.5 735,-209.5 695,-209.5"/>
<text text-anchor="middle" x="715" y="-216.5" font-family="Helvetica,sans-Serif" font-size="10.00" fill="#000000">ulli2a</text>
</a>
</g>
</g>
<!-- Node66&#45;&gt;Node69 -->
<g id="edge8" class="edge">
<title>Node66&#45;&gt;Node69</title>
<path fill="none" stroke="#191970" d="M537.7265,-152.585C549.557,-169.7998 577.1512,-205.4235 611,-219 634.3674,-228.3725 663.1345,-227.5347 684.486,-224.8289"/>
<polygon fill="#191970" stroke="#191970" points="685.2279,-228.2574 694.6112,-223.3377 684.208,-221.3321 685.2279,-228.2574"/>
</g>
<!-- Node70 -->
<g id="node10" class="node">
<title>Node70</title>
<g id="a_node10"><a xlink:href="tinyprintf_8c.html#a1d61347854a8c290d59b4a21efcefd75" target="_top" xlink:title="uli2a">
<polygon fill="#ffffff" stroke="#000000" points="696,-114.5 696,-133.5 734,-133.5 734,-114.5 696,-114.5"/>
<text text-anchor="middle" x="715" y="-121.5" font-family="Helvetica,sans-Serif" font-size="10.00" fill="#000000">uli2a</text>
</a>
</g>
</g>
<!-- Node66&#45;&gt;Node70 -->
<g id="edge9" class="edge">
<title>Node66&#45;&gt;Node70</title>
<path fill="none" stroke="#191970" d="M554.2214,-133.4524C560.9569,-130.5211 568.3173,-127.2175 575,-124 591.3007,-116.1517 593.439,-109.3498 611,-105 631.7075,-99.8708 637.9513,-101.5265 659,-105 668.1008,-106.5018 677.7111,-109.2897 686.3523,-112.276"/>
<polygon fill="#191970" stroke="#191970" points="685.3691,-115.6434 695.9626,-115.8075 687.7836,-109.073 685.3691,-115.6434"/>
</g>
<!-- Node71 -->
<g id="node11" class="node">
<title>Node71</title>
<g id="a_node11"><a xlink:href="tinyprintf_8c.html#ac87ff66a592723f55692eaf8e3f19df8" target="_top" xlink:title="ui2a">
<polygon fill="#ffffff" stroke="#000000" points="697.5,-19.5 697.5,-38.5 732.5,-38.5 732.5,-19.5 697.5,-19.5"/>
<text text-anchor="middle" x="715" y="-26.5" font-family="Helvetica,sans-Serif" font-size="10.00" fill="#000000">ui2a</text>
</a>
</g>
</g>
<!-- Node66&#45;&gt;Node71 -->
<g id="edge10" class="edge">
<title>Node66&#45;&gt;Node71</title>
<path fill="none" stroke="#191970" d="M555.8812,-133.4416C562.2378,-130.6567 568.9879,-127.4315 575,-124 592.141,-114.2165 594.7738,-109.2357 611,-98 638.3114,-79.0886 670.2104,-58.0813 691.4069,-44.2711"/>
<polygon fill="#191970" stroke="#191970" points="693.5879,-47.0279 700.0644,-38.6431 689.7726,-41.159 693.5879,-47.0279"/>
</g>
<!-- Node72 -->
<g id="node12" class="node">
<title>Node72</title>
<g id="a_node12"><a xlink:href="tinyprintf_8c.html#a6252dbfebb2c8783c4e3107d551082dd" target="_top" xlink:title="putchw">
<polygon fill="#ffffff" stroke="#000000" points="611,-114.5 611,-133.5 659,-133.5 659,-114.5 611,-114.5"/>
<text text-anchor="middle" x="635" y="-121.5" font-family="Helvetica,sans-Serif" font-size="10.00" fill="#000000">putchw</text>
</a>
</g>
</g>
<!-- Node66&#45;&gt;Node72 -->
<g id="edge11" class="edge">
<title>Node66&#45;&gt;Node72</title>
<path fill="none" stroke="#191970" d="M562.5534,-137.2994C574.6483,-135.0791 588.549,-132.5272 600.9191,-130.2564"/>
<polygon fill="#191970" stroke="#191970" points="601.673,-133.6766 610.8767,-128.4284 600.4091,-126.7916 601.673,-133.6766"/>
</g>
<!-- Node73 -->
<g id="node13" class="node">
<title>Node73</title>
<g id="a_node13"><a xlink:href="tinyprintf_8c.html#a49c6d2b3d4088012f2c1fe344eef69f3" target="_top" xlink:title="lli2a">
<polygon fill="#ffffff" stroke="#000000" points="618,-190.5 618,-209.5 652,-209.5 652,-190.5 618,-190.5"/>
<text text-anchor="middle" x="635" y="-197.5" font-family="Helvetica,sans-Serif" font-size="10.00" fill="#000000">lli2a</text>
</a>
</g>
</g>
<!-- Node66&#45;&gt;Node73 -->
<g id="edge12" class="edge">
<title>Node66&#45;&gt;Node73</title>
<path fill="none" stroke="#191970" d="M549.0574,-152.6693C565.4376,-161.6903 590.0906,-175.2673 608.7979,-185.5698"/>
<polygon fill="#191970" stroke="#191970" points="607.254,-188.7152 617.7019,-190.4735 610.6309,-182.5836 607.254,-188.7152"/>
</g>
<!-- Node74 -->
<g id="node14" class="node">
<title>Node74</title>
<g id="a_node14"><a xlink:href="tinyprintf_8c.html#afebb7696337c3f599b5e8db35c560684" target="_top" xlink:title="li2a">
<polygon fill="#ffffff" stroke="#000000" points="619,-152.5 619,-171.5 651,-171.5 651,-152.5 619,-152.5"/>
<text text-anchor="middle" x="635" y="-159.5" font-family="Helvetica,sans-Serif" font-size="10.00" fill="#000000">li2a</text>
</a>
</g>
</g>
<!-- Node66&#45;&gt;Node74 -->
<g id="edge14" class="edge">
<title>Node66&#45;&gt;Node74</title>
<path fill="none" stroke="#191970" d="M562.5534,-148.7006C577.3576,-151.4183 594.8672,-154.6326 608.9639,-157.2204"/>
<polygon fill="#191970" stroke="#191970" points="608.5095,-160.6954 618.9771,-159.0586 609.7734,-153.8105 608.5095,-160.6954"/>
</g>
<!-- Node75 -->
<g id="node15" class="node">
<title>Node75</title>
<g id="a_node15"><a xlink:href="tinyprintf_8c.html#a90f9fd8f2133cda7f50be8d67823405c" target="_top" xlink:title="i2a">
<polygon fill="#ffffff" stroke="#000000" points="620,-.5 620,-19.5 650,-19.5 650,-.5 620,-.5"/>
<text text-anchor="middle" x="635" y="-7.5" font-family="Helvetica,sans-Serif" font-size="10.00" fill="#000000">i2a</text>
</a>
</g>
</g>
<!-- Node66&#45;&gt;Node75 -->
<g id="edge16" class="edge">
<title>Node66&#45;&gt;Node75</title>
<path fill="none" stroke="#191970" d="M562.0089,-133.36C566.7753,-130.8686 571.3294,-127.7874 575,-124 604.9826,-93.0639 587.2841,-69.9661 611,-34 612.4759,-31.7617 614.1854,-29.5609 615.9987,-27.455"/>
<polygon fill="#191970" stroke="#191970" points="618.8289,-29.5609 623.2325,-19.9246 613.7807,-24.7116 618.8289,-29.5609"/>
</g>
<!-- Node68 -->
<g id="node8" class="node">
<title>Node68</title>
<g id="a_node8"><a xlink:href="tinyprintf_8c.html#aa853a0c5ba64fa2546d488b86192e7e3" target="_top" xlink:title="a2d">
<polygon fill="#ffffff" stroke="#000000" points="698.5,-266.5 698.5,-285.5 731.5,-285.5 731.5,-266.5 698.5,-266.5"/>
<text text-anchor="middle" x="715" y="-273.5" font-family="Helvetica,sans-Serif" font-size="10.00" fill="#000000">a2d</text>
</a>
</g>
</g>
<!-- Node67&#45;&gt;Node68 -->
<g id="edge7" class="edge">
<title>Node67&#45;&gt;Node68</title>
<path fill="none" stroke="#191970" d="M651.5761,-276C662.1953,-276 676.2154,-276 688.373,-276"/>
<polygon fill="#191970" stroke="#191970" points="688.4452,-279.5001 698.4452,-276 688.4451,-272.5001 688.4452,-279.5001"/>
</g>
<!-- Node73&#45;&gt;Node69 -->
<g id="edge13" class="edge">
<title>Node73&#45;&gt;Node69</title>
<path fill="none" stroke="#191970" d="M652.3588,-204.1227C661.8312,-206.3724 673.8293,-209.222 684.7843,-211.8238"/>
<polygon fill="#191970" stroke="#191970" points="684.3132,-215.3092 694.8514,-214.2147 685.9308,-208.4986 684.3132,-215.3092"/>
</g>
<!-- Node74&#45;&gt;Node70 -->
<g id="edge15" class="edge">
<title>Node74&#45;&gt;Node70</title>
<path fill="none" stroke="#191970" d="M651.1892,-154.3101C661.3485,-149.4845 674.7298,-143.1283 686.6136,-137.4835"/>
<polygon fill="#191970" stroke="#191970" points="688.202,-140.6039 695.733,-133.1518 685.1985,-134.281 688.202,-140.6039"/>
</g>
<!-- Node75&#45;&gt;Node71 -->
<g id="edge17" class="edge">
<title>Node75&#45;&gt;Node71</title>
<path fill="none" stroke="#191970" d="M650.0474,-13.5738C660.5142,-16.0596 674.7762,-19.4469 687.27,-22.4141"/>
<polygon fill="#191970" stroke="#191970" points="686.6886,-25.8733 697.2268,-24.7789 688.3062,-19.0628 686.6886,-25.8733"/>
</g>
</g>
</svg>
