<?xml version="1.0" encoding="UTF-8" standalone="no"?>
<!DOCTYPE svg PUBLIC "-//W3C//DTD SVG 1.1//EN"
 "http://www.w3.org/Graphics/SVG/1.1/DTD/svg11.dtd">
<!-- Generated by graphviz version 2.39.20160927.1334 (20160927.1334)
 -->
<!-- Title: en61107_get_data_timer_func Pages: 1 -->
<svg width="846pt" height="161pt"
 viewBox="0.00 0.00 846.00 161.00" xmlns="http://www.w3.org/2000/svg" xmlns:xlink="http://www.w3.org/1999/xlink">
<g id="graph0" class="graph" transform="scale(1 1) rotate(0) translate(4 157)">
<title>en61107_get_data_timer_func</title>
<polygon fill="#ffffff" stroke="transparent" points="-4,4 -4,-157 842,-157 842,4 -4,4"/>
<!-- Node1 -->
<g id="node1" class="node">
<title>Node1</title>
<polygon fill="#bfbfbf" stroke="#000000" points="0,-95.5 0,-114.5 152,-114.5 152,-95.5 0,-95.5"/>
<text text-anchor="middle" x="76" y="-102.5" font-family="Helvetica,sans-Serif" font-size="10.00" fill="#000000">en61107_get_data_timer_func</text>
</g>
<!-- Node2 -->
<g id="node2" class="node">
<title>Node2</title>
<g id="a_node2"><a xlink:href="en61107_8c.html#a1a021306c69de1b9e611fb94cd2f2e4f" target="_top" xlink:title="en61107_get_data">
<polygon fill="#ffffff" stroke="#000000" points="188,-133.5 188,-152.5 288,-152.5 288,-133.5 188,-133.5"/>
<text text-anchor="middle" x="238" y="-140.5" font-family="Helvetica,sans-Serif" font-size="10.00" fill="#000000">en61107_get_data</text>
</a>
</g>
</g>
<!-- Node1&#45;&gt;Node2 -->
<g id="edge1" class="edge">
<title>Node1&#45;&gt;Node2</title>
<path fill="none" stroke="#191970" d="M116.879,-114.589C138.353,-119.626 164.86,-125.844 187.597,-131.177"/>
<polygon fill="#191970" stroke="#191970" points="186.879,-134.604 197.415,-133.48 188.478,-127.789 186.879,-134.604"/>
</g>
<!-- Node3 -->
<g id="node3" class="node">
<title>Node3</title>
<g id="a_node3"><a xlink:href="uart_8c.html#a87f1c1c2a25d4336eb804da28ed99f7e" target="_top" xlink:title="uart0_tx_buffer">
<polygon fill="#ffffff" stroke="#000000" points="327.5,-95.5 327.5,-114.5 411.5,-114.5 411.5,-95.5 327.5,-95.5"/>
<text text-anchor="middle" x="369.5" y="-102.5" font-family="Helvetica,sans-Serif" font-size="10.00" fill="#000000">uart0_tx_buffer</text>
</a>
</g>
</g>
<!-- Node1&#45;&gt;Node3 -->
<g id="edge2" class="edge">
<title>Node1&#45;&gt;Node3</title>
<path fill="none" stroke="#191970" d="M152.347,-105C204.141,-105 271.268,-105 317.091,-105"/>
<polygon fill="#191970" stroke="#191970" points="317.107,-108.5 327.107,-105 317.107,-101.5 317.107,-108.5"/>
</g>
<!-- Node5 -->
<g id="node5" class="node">
<title>Node5</title>
<g id="a_node5"><a xlink:href="uart_8c.html#af4416966da7cba189e7998334e2a0bee" target="_top" xlink:title="uart_init">
<polygon fill="#ffffff" stroke="#000000" points="212,-57.5 212,-76.5 264,-76.5 264,-57.5 212,-57.5"/>
<text text-anchor="middle" x="238" y="-64.5" font-family="Helvetica,sans-Serif" font-size="10.00" fill="#000000">uart_init</text>
</a>
</g>
</g>
<!-- Node1&#45;&gt;Node5 -->
<g id="edge4" class="edge">
<title>Node1&#45;&gt;Node5</title>
<path fill="none" stroke="#191970" d="M116.879,-95.411C143.077,-89.2659 176.765,-81.3637 201.96,-75.4538"/>
<polygon fill="#191970" stroke="#191970" points="202.912,-78.8257 211.848,-73.1344 201.313,-72.0106 202.912,-78.8257"/>
</g>
<!-- Node4 -->
<g id="node4" class="node">
<title>Node4</title>
<g id="a_node4"><a xlink:href="uart_8c.html#a40bca7ca9b269f93bc9f17924a38fbe0" target="_top" xlink:title="uart_tx_one_char">
<polygon fill="#ffffff" stroke="#000000" points="460,-95.5 460,-114.5 554,-114.5 554,-95.5 460,-95.5"/>
<text text-anchor="middle" x="507" y="-102.5" font-family="Helvetica,sans-Serif" font-size="10.00" fill="#000000">uart_tx_one_char</text>
</a>
</g>
</g>
<!-- Node3&#45;&gt;Node4 -->
<g id="edge3" class="edge">
<title>Node3&#45;&gt;Node4</title>
<path fill="none" stroke="#191970" d="M411.502,-105C423.591,-105 436.988,-105 449.83,-105"/>
<polygon fill="#191970" stroke="#191970" points="449.975,-108.5 459.975,-105 449.975,-101.5 449.975,-108.5"/>
</g>
<!-- Node6 -->
<g id="node6" class="node">
<title>Node6</title>
<g id="a_node6"><a xlink:href="uart_8c.html#a6d11dbbb730e8898c2a8922f4217ab5c" target="_top" xlink:title="uart0_write_char">
<polygon fill="#ffffff" stroke="#000000" points="324,-57.5 324,-76.5 415,-76.5 415,-57.5 324,-57.5"/>
<text text-anchor="middle" x="369.5" y="-64.5" font-family="Helvetica,sans-Serif" font-size="10.00" fill="#000000">uart0_write_char</text>
</a>
</g>
</g>
<!-- Node5&#45;&gt;Node6 -->
<g id="edge5" class="edge">
<title>Node5&#45;&gt;Node6</title>
<path fill="none" stroke="#191970" d="M264.295,-67C278.385,-67 296.31,-67 313.355,-67"/>
<polygon fill="#191970" stroke="#191970" points="313.813,-70.5001 323.813,-67 313.813,-63.5001 313.813,-70.5001"/>
</g>
<!-- Node7 -->
<g id="node7" class="node">
<title>Node7</title>
<g id="a_node7"><a xlink:href="uart_8c.html#a489b77b74dfee22fd4f0c5323ab44da6" target="_top" xlink:title="uart_config">
<polygon fill="#ffffff" stroke="#000000" points="336.5,-19.5 336.5,-38.5 402.5,-38.5 402.5,-19.5 336.5,-19.5"/>
<text text-anchor="middle" x="369.5" y="-26.5" font-family="Helvetica,sans-Serif" font-size="10.00" fill="#000000">uart_config</text>
</a>
</g>
</g>
<!-- Node5&#45;&gt;Node7 -->
<g id="edge7" class="edge">
<title>Node5&#45;&gt;Node7</title>
<path fill="none" stroke="#191970" d="M264.295,-59.4015C282.072,-54.2642 305.957,-47.3624 326.474,-41.4333"/>
<polygon fill="#191970" stroke="#191970" points="327.599,-44.7514 336.235,-38.6128 325.656,-38.0266 327.599,-44.7514"/>
</g>
<!-- Node6&#45;&gt;Node4 -->
<g id="edge6" class="edge">
<title>Node6&#45;&gt;Node4</title>
<path fill="none" stroke="#191970" d="M404.197,-76.589C421.866,-81.4719 443.549,-87.4643 462.439,-92.685"/>
<polygon fill="#191970" stroke="#191970" points="461.743,-96.1238 472.314,-95.4141 463.608,-89.3767 461.743,-96.1238"/>
</g>
<!-- Node8 -->
<g id="node8" class="node">
<title>Node8</title>
<g id="a_node8"><a xlink:href="uart_8c.html#a899cd55c7d84717f3e869e4ee5bfda84" target="_top" xlink:title="uart0_rx_intr_handler">
<polygon fill="#ffffff" stroke="#000000" points="451,-38.5 451,-57.5 563,-57.5 563,-38.5 451,-38.5"/>
<text text-anchor="middle" x="507" y="-45.5" font-family="Helvetica,sans-Serif" font-size="10.00" fill="#000000">uart0_rx_intr_handler</text>
</a>
</g>
</g>
<!-- Node7&#45;&gt;Node8 -->
<g id="edge8" class="edge">
<title>Node7&#45;&gt;Node8</title>
<path fill="none" stroke="#191970" d="M402.785,-33.5994C414.312,-35.1922 427.671,-37.0381 440.898,-38.866"/>
<polygon fill="#191970" stroke="#191970" points="440.571,-42.3539 450.956,-40.2557 441.529,-35.4197 440.571,-42.3539"/>
</g>
<!-- Node13 -->
<g id="node13" class="node">
<title>Node13</title>
<g id="a_node13"><a xlink:href="espmissingincludes_8h.html#a1bea1725066e012f8f618d08ed7fee45" target="_top" xlink:title="uart_div_modify">
<polygon fill="#ffffff" stroke="#000000" points="463.5,-0.5 463.5,-19.5 550.5,-19.5 550.5,-0.5 463.5,-0.5"/>
<text text-anchor="middle" x="507" y="-7.5" font-family="Helvetica,sans-Serif" font-size="10.00" fill="#000000">uart_div_modify</text>
</a>
</g>
</g>
<!-- Node7&#45;&gt;Node13 -->
<g id="edge13" class="edge">
<title>Node7&#45;&gt;Node13</title>
<path fill="none" stroke="#191970" d="M402.785,-24.4006C417.857,-22.3179 436.062,-19.8024 453.01,-17.4604"/>
<polygon fill="#191970" stroke="#191970" points="453.935,-20.866 463.361,-16.0301 452.976,-13.9319 453.935,-20.866"/>
</g>
<!-- Node9 -->
<g id="node9" class="node">
<title>Node9</title>
<g id="a_node9"><a xlink:href="en61107__request_8c.html#ae20bf12760f56ac48afdd0c7952d168b" target="_top" xlink:title="en61107_fifo_put">
<polygon fill="#ffffff" stroke="#000000" points="599,-57.5 599,-76.5 693,-76.5 693,-57.5 599,-57.5"/>
<text text-anchor="middle" x="646" y="-64.5" font-family="Helvetica,sans-Serif" font-size="10.00" fill="#000000">en61107_fifo_put</text>
</a>
</g>
</g>
<!-- Node8&#45;&gt;Node9 -->
<g id="edge9" class="edge">
<title>Node8&#45;&gt;Node9</title>
<path fill="none" stroke="#191970" d="M563.136,-55.6733C571.492,-56.8155 580.117,-57.9944 588.501,-59.1404"/>
<polygon fill="#191970" stroke="#191970" points="588.192,-62.6307 598.574,-60.5173 589.14,-55.6952 588.192,-62.6307"/>
</g>
<!-- Node11 -->
<g id="node11" class="node">
<title>Node11</title>
<g id="a_node11"><a xlink:href="kmp__request_8c.html#a3a189e5f8a1ffa68dacbe1a0e7080c65" target="_top" xlink:title="kmp_fifo_put">
<polygon fill="#ffffff" stroke="#000000" points="609,-19.5 609,-38.5 683,-38.5 683,-19.5 609,-19.5"/>
<text text-anchor="middle" x="646" y="-26.5" font-family="Helvetica,sans-Serif" font-size="10.00" fill="#000000">kmp_fifo_put</text>
</a>
</g>
</g>
<!-- Node8&#45;&gt;Node11 -->
<g id="edge11" class="edge">
<title>Node8&#45;&gt;Node11</title>
<path fill="none" stroke="#191970" d="M563.136,-40.3267C574.904,-38.7181 587.204,-37.0369 598.615,-35.4771"/>
<polygon fill="#191970" stroke="#191970" points="599.371,-38.9064 608.805,-34.0842 598.423,-31.9709 599.371,-38.9064"/>
</g>
<!-- Node10 -->
<g id="node10" class="node">
<title>Node10</title>
<g id="a_node10"><a xlink:href="en61107__request_8c.html#a9984f86f367d70ca77edce2accd01c64" target="_top" xlink:title="en61107_fifo_in_use">
<polygon fill="#ffffff" stroke="#000000" points="729,-57.5 729,-76.5 838,-76.5 838,-57.5 729,-57.5"/>
<text text-anchor="middle" x="783.5" y="-64.5" font-family="Helvetica,sans-Serif" font-size="10.00" fill="#000000">en61107_fifo_in_use</text>
</a>
</g>
</g>
<!-- Node9&#45;&gt;Node10 -->
<g id="edge10" class="edge">
<title>Node9&#45;&gt;Node10</title>
<path fill="none" stroke="#191970" d="M693.32,-67C701.383,-67 709.883,-67 718.312,-67"/>
<polygon fill="#191970" stroke="#191970" points="718.523,-70.5001 728.523,-67 718.523,-63.5001 718.523,-70.5001"/>
</g>
<!-- Node12 -->
<g id="node12" class="node">
<title>Node12</title>
<g id="a_node12"><a xlink:href="kmp__request_8c.html#a50794131d44d1f5c42484104202be6df" target="_top" xlink:title="kmp_fifo_in_use">
<polygon fill="#ffffff" stroke="#000000" points="739,-19.5 739,-38.5 828,-38.5 828,-19.5 739,-19.5"/>
<text text-anchor="middle" x="783.5" y="-26.5" font-family="Helvetica,sans-Serif" font-size="10.00" fill="#000000">kmp_fifo_in_use</text>
</a>
</g>
</g>
<!-- Node11&#45;&gt;Node12 -->
<g id="edge12" class="edge">
<title>Node11&#45;&gt;Node12</title>
<path fill="none" stroke="#191970" d="M683.209,-29C697.168,-29 713.34,-29 728.569,-29"/>
<polygon fill="#191970" stroke="#191970" points="728.923,-32.5001 738.923,-29 728.923,-25.5001 728.923,-32.5001"/>
</g>
</g>
</svg>
