<?xml version="1.0" encoding="UTF-8" standalone="no"?>
<!DOCTYPE svg PUBLIC "-//W3C//DTD SVG 1.1//EN"
 "http://www.w3.org/Graphics/SVG/1.1/DTD/svg11.dtd">
<!-- Generated by graphviz version 2.39.20160927.1334 (20160927.1334)
 -->
<!-- Title: en61107_uart_send_en61107 Pages: 1 -->
<svg width="1515pt" height="652pt"
 viewBox="0.00 0.00 1515.00 652.03" xmlns="http://www.w3.org/2000/svg" xmlns:xlink="http://www.w3.org/1999/xlink">
<g id="graph0" class="graph" transform="scale(1 1) rotate(0) translate(4 648.032)">
<title>en61107_uart_send_en61107</title>
<polygon fill="#ffffff" stroke="transparent" points="-4,4 -4,-648.032 1511,-648.032 1511,4 -4,4"/>
<!-- Node1 -->
<g id="node1" class="node">
<title>Node1</title>
<polygon fill="#bfbfbf" stroke="#000000" points="0,-155.032 0,-174.032 150,-174.032 150,-155.032 0,-155.032"/>
<text text-anchor="middle" x="75" y="-162.032" font-family="Helvetica,sans-Serif" font-size="10.00" fill="#000000">en61107_uart_send_en61107</text>
</g>
<!-- Node2 -->
<g id="node2" class="node">
<title>Node2</title>
<g id="a_node2"><a xlink:href="en61107__request_8h.html#a22f1fee248eec0eeacf220c69b878a28" target="_top" xlink:title="en61107_receive_timeout\l_timer_func">
<polygon fill="#ffffff" stroke="#000000" points="186,-302.532 186,-332.532 318,-332.532 318,-302.532 186,-302.532"/>
<text text-anchor="start" x="194" y="-320.532" font-family="Helvetica,sans-Serif" font-size="10.00" fill="#000000">en61107_receive_timeout</text>
<text text-anchor="middle" x="252" y="-309.532" font-family="Helvetica,sans-Serif" font-size="10.00" fill="#000000">_timer_func</text>
</a>
</g>
</g>
<!-- Node1&#45;&gt;Node2 -->
<g id="edge1" class="edge">
<title>Node1&#45;&gt;Node2</title>
<path fill="none" stroke="#191970" d="M93.973,-180.933C128.452,-210.737 200.912,-273.371 234.374,-302.296"/>
<polygon fill="#191970" stroke="#191970" points="95.9264,-177.995 86.0721,-174.103 91.3487,-183.291 95.9264,-177.995"/>
</g>
<!-- Node13 -->
<g id="node13" class="node">
<title>Node13</title>
<g id="a_node13"><a xlink:href="en61107__request_8c.html#aa3b162cf5364986ea19e831ac2b18f76" target="_top" xlink:title="en61107_received_task">
<polygon fill="#ffffff" stroke="#000000" points="552,-266.032 552,-285.032 675,-285.032 675,-266.032 552,-266.032"/>
<text text-anchor="middle" x="613.5" y="-273.032" font-family="Helvetica,sans-Serif" font-size="10.00" fill="#000000">en61107_received_task</text>
</a>
</g>
</g>
<!-- Node1&#45;&gt;Node13 -->
<g id="edge52" class="edge">
<title>Node1&#45;&gt;Node13</title>
<path fill="none" stroke="#191970" d="M93.6272,-148.494C157.725,-95.3243 373.087,66.4079 516,-30.5325 599.538,-87.1976 611.503,-228.01 613.215,-265.974"/>
<polygon fill="#191970" stroke="#191970" points="91.3311,-145.852 85.9288,-154.966 95.8355,-151.21 91.3311,-145.852"/>
</g>
<!-- Node3 -->
<g id="node3" class="node">
<title>Node3</title>
<g id="a_node3"><a xlink:href="en61107__request_8h.html#a10b80328698f459ae2251fe146cdc375" target="_top" xlink:title="en61107_uart_send_standard\l_data_2">
<polygon fill="#ffffff" stroke="#000000" points="360,-613.532 360,-643.532 510,-643.532 510,-613.532 360,-613.532"/>
<text text-anchor="start" x="368" y="-631.532" font-family="Helvetica,sans-Serif" font-size="10.00" fill="#000000">en61107_uart_send_standard</text>
<text text-anchor="middle" x="435" y="-620.532" font-family="Helvetica,sans-Serif" font-size="10.00" fill="#000000">_data_2</text>
</a>
</g>
</g>
<!-- Node2&#45;&gt;Node3 -->
<g id="edge2" class="edge">
<title>Node2&#45;&gt;Node3</title>
<path fill="none" stroke="#191970" d="M254.785,-343.103C261.543,-396.312 283.822,-518.897 354,-589.532 365.626,-601.235 382.216,-608.419 397.358,-613.522"/>
<polygon fill="#191970" stroke="#191970" points="258.221,-342.363 253.566,-332.845 251.27,-343.188 258.221,-342.363"/>
</g>
<!-- Node12 -->
<g id="node12" class="node">
<title>Node12</title>
<g id="a_node12"><a xlink:href="en61107__request_8h.html#a27482c6033d348193c8aa7964782999e" target="_top" xlink:title="en61107_uart_send_unknown_1">
<polygon fill="#ffffff" stroke="#000000" points="354,-537.032 354,-556.032 516,-556.032 516,-537.032 354,-537.032"/>
<text text-anchor="middle" x="435" y="-544.032" font-family="Helvetica,sans-Serif" font-size="10.00" fill="#000000">en61107_uart_send_unknown_1</text>
</a>
</g>
</g>
<!-- Node2&#45;&gt;Node12 -->
<g id="edge14" class="edge">
<title>Node2&#45;&gt;Node12</title>
<path fill="none" stroke="#191970" d="M258.187,-342.665C269.118,-385.691 296.365,-472.445 354,-518.532 367.199,-529.087 385.252,-533.962 400.966,-537.005"/>
<polygon fill="#191970" stroke="#191970" points="261.529,-341.6 255.751,-332.72 254.73,-343.265 261.529,-341.6"/>
</g>
<!-- Node15 -->
<g id="node15" class="node">
<title>Node15</title>
<g id="a_node15"><a xlink:href="en61107__request_8h.html#ab6a6fa988df58ebc5a3f62ad46b74fc5" target="_top" xlink:title="en61107_uart_send_unknown_2">
<polygon fill="#ffffff" stroke="#000000" points="354,-499.032 354,-518.032 516,-518.032 516,-499.032 354,-499.032"/>
<text text-anchor="middle" x="435" y="-506.032" font-family="Helvetica,sans-Serif" font-size="10.00" fill="#000000">en61107_uart_send_unknown_2</text>
</a>
</g>
</g>
<!-- Node2&#45;&gt;Node15 -->
<g id="edge19" class="edge">
<title>Node2&#45;&gt;Node15</title>
<path fill="none" stroke="#191970" d="M262.076,-342.399C276.282,-378.413 305.964,-443.953 354,-479.532 369.015,-490.654 389.466,-495.646 406.061,-499.013"/>
<polygon fill="#191970" stroke="#191970" points="265.182,-340.725 258.319,-332.654 258.651,-343.244 265.182,-340.725"/>
</g>
<!-- Node16 -->
<g id="node16" class="node">
<title>Node16</title>
<g id="a_node16"><a xlink:href="en61107__request_8h.html#ab438159131b07c35aace7c19e5b24f22" target="_top" xlink:title="en61107_uart_send_serial\l_byte_1">
<polygon fill="#ffffff" stroke="#000000" points="367.5,-449.532 367.5,-479.532 502.5,-479.532 502.5,-449.532 367.5,-449.532"/>
<text text-anchor="start" x="375.5" y="-467.532" font-family="Helvetica,sans-Serif" font-size="10.00" fill="#000000">en61107_uart_send_serial</text>
<text text-anchor="middle" x="435" y="-456.532" font-family="Helvetica,sans-Serif" font-size="10.00" fill="#000000">_byte_1</text>
</a>
</g>
</g>
<!-- Node2&#45;&gt;Node16 -->
<g id="edge22" class="edge">
<title>Node2&#45;&gt;Node16</title>
<path fill="none" stroke="#191970" d="M270.238,-341.128C288.242,-366.776 318.22,-406.735 354,-430.532 367.112,-439.253 383.414,-445.051 397.948,-449.504"/>
<polygon fill="#191970" stroke="#191970" points="272.962,-338.915 264.38,-332.703 267.215,-342.911 272.962,-338.915"/>
</g>
<!-- Node17 -->
<g id="node17" class="node">
<title>Node17</title>
<g id="a_node17"><a xlink:href="en61107__request_8h.html#ae8a295e8d067b9108682852b0616c69c" target="_top" xlink:title="en61107_uart_send_serial\l_byte_2">
<polygon fill="#ffffff" stroke="#000000" points="367.5,-400.532 367.5,-430.532 502.5,-430.532 502.5,-400.532 367.5,-400.532"/>
<text text-anchor="start" x="375.5" y="-418.532" font-family="Helvetica,sans-Serif" font-size="10.00" fill="#000000">en61107_uart_send_serial</text>
<text text-anchor="middle" x="435" y="-407.532" font-family="Helvetica,sans-Serif" font-size="10.00" fill="#000000">_byte_2</text>
</a>
</g>
</g>
<!-- Node2&#45;&gt;Node17 -->
<g id="edge25" class="edge">
<title>Node2&#45;&gt;Node17</title>
<path fill="none" stroke="#191970" d="M286.892,-338.779C305.808,-352.522 330.144,-369.705 354,-381.532 369.823,-389.377 388.609,-395.361 404.105,-400.431"/>
<polygon fill="#191970" stroke="#191970" points="288.746,-335.8 278.603,-332.738 284.623,-341.457 288.746,-335.8"/>
</g>
<!-- Node18 -->
<g id="node18" class="node">
<title>Node18</title>
<g id="a_node18"><a xlink:href="en61107__request_8h.html#ab4c6ba6f896270287149b97c38dc8824" target="_top" xlink:title="en61107_uart_send_serial\l_byte_3">
<polygon fill="#ffffff" stroke="#000000" points="367.5,-351.532 367.5,-381.532 502.5,-381.532 502.5,-351.532 367.5,-351.532"/>
<text text-anchor="start" x="375.5" y="-369.532" font-family="Helvetica,sans-Serif" font-size="10.00" fill="#000000">en61107_uart_send_serial</text>
<text text-anchor="middle" x="435" y="-358.532" font-family="Helvetica,sans-Serif" font-size="10.00" fill="#000000">_byte_3</text>
</a>
</g>
</g>
<!-- Node2&#45;&gt;Node18 -->
<g id="edge28" class="edge">
<title>Node2&#45;&gt;Node18</title>
<path fill="none" stroke="#191970" d="M327.832,-331.176C352.607,-337.527 378.961,-344.978 399.336,-351.505"/>
<polygon fill="#191970" stroke="#191970" points="328.62,-327.765 318.067,-328.71 326.906,-334.552 328.62,-327.765"/>
</g>
<!-- Node19 -->
<g id="node19" class="node">
<title>Node19</title>
<g id="a_node19"><a xlink:href="en61107__request_8h.html#a68e33113f4b610faec2809160402b9ef" target="_top" xlink:title="en61107_uart_send_serial\l_byte_4">
<polygon fill="#ffffff" stroke="#000000" points="367.5,-302.532 367.5,-332.532 502.5,-332.532 502.5,-302.532 367.5,-302.532"/>
<text text-anchor="start" x="375.5" y="-320.532" font-family="Helvetica,sans-Serif" font-size="10.00" fill="#000000">en61107_uart_send_serial</text>
<text text-anchor="middle" x="435" y="-309.532" font-family="Helvetica,sans-Serif" font-size="10.00" fill="#000000">_byte_4</text>
</a>
</g>
</g>
<!-- Node2&#45;&gt;Node19 -->
<g id="edge31" class="edge">
<title>Node2&#45;&gt;Node19</title>
<path fill="none" stroke="#191970" d="M328.37,-310.865C341.354,-310.722 354.756,-310.765 367.491,-310.993"/>
<polygon fill="#191970" stroke="#191970" points="328.014,-307.37 318.067,-311.02 328.119,-314.369 328.014,-307.37"/>
</g>
<!-- Node20 -->
<g id="node20" class="node">
<title>Node20</title>
<g id="a_node20"><a xlink:href="en61107__request_8h.html#a192bf33e0cc6e7bcefbcf7485309b700" target="_top" xlink:title="en61107_uart_send_serial\l_byte_5">
<polygon fill="#ffffff" stroke="#000000" points="367.5,-253.532 367.5,-283.532 502.5,-283.532 502.5,-253.532 367.5,-253.532"/>
<text text-anchor="start" x="375.5" y="-271.532" font-family="Helvetica,sans-Serif" font-size="10.00" fill="#000000">en61107_uart_send_serial</text>
<text text-anchor="middle" x="435" y="-260.532" font-family="Helvetica,sans-Serif" font-size="10.00" fill="#000000">_byte_5</text>
</a>
</g>
</g>
<!-- Node2&#45;&gt;Node20 -->
<g id="edge34" class="edge">
<title>Node2&#45;&gt;Node20</title>
<path fill="none" stroke="#191970" d="M297.361,-299.466C318.41,-293.003 343.87,-285.977 367.141,-280.157"/>
<polygon fill="#191970" stroke="#191970" points="296.215,-296.157 287.719,-302.487 298.308,-302.837 296.215,-296.157"/>
</g>
<!-- Node21 -->
<g id="node21" class="node">
<title>Node21</title>
<g id="a_node21"><a xlink:href="en61107__request_8h.html#ae3cd1269237f81b40e4f788e4e6df89a" target="_top" xlink:title="en61107_uart_send_serial\l_byte_6">
<polygon fill="#ffffff" stroke="#000000" points="367.5,-204.532 367.5,-234.532 502.5,-234.532 502.5,-204.532 367.5,-204.532"/>
<text text-anchor="start" x="375.5" y="-222.532" font-family="Helvetica,sans-Serif" font-size="10.00" fill="#000000">en61107_uart_send_serial</text>
<text text-anchor="middle" x="435" y="-211.532" font-family="Helvetica,sans-Serif" font-size="10.00" fill="#000000">_byte_6</text>
</a>
</g>
</g>
<!-- Node2&#45;&gt;Node21 -->
<g id="edge37" class="edge">
<title>Node2&#45;&gt;Node21</title>
<path fill="none" stroke="#191970" d="M269.768,-295.06C289.216,-276.136 321.918,-250.341 354,-234.532 358.21,-232.458 362.633,-230.527 367.15,-228.754"/>
<polygon fill="#191970" stroke="#191970" points="267.026,-292.857 262.521,-302.446 272.023,-297.759 267.026,-292.857"/>
</g>
<!-- Node22 -->
<g id="node22" class="node">
<title>Node22</title>
<g id="a_node22"><a xlink:href="en61107__request_8h.html#abd56d73dc3063d0463f124c87a5d4802" target="_top" xlink:title="en61107_uart_send_unknown_3">
<polygon fill="#ffffff" stroke="#000000" points="354,-166.032 354,-185.032 516,-185.032 516,-166.032 354,-166.032"/>
<text text-anchor="middle" x="435" y="-173.032" font-family="Helvetica,sans-Serif" font-size="10.00" fill="#000000">en61107_uart_send_unknown_3</text>
</a>
</g>
</g>
<!-- Node2&#45;&gt;Node22 -->
<g id="edge40" class="edge">
<title>Node2&#45;&gt;Node22</title>
<path fill="none" stroke="#191970" d="M262.045,-293.222C277.861,-262.716 311.222,-212.021 354,-185.532 354.246,-185.38 354.492,-185.23 354.74,-185.08"/>
<polygon fill="#191970" stroke="#191970" points="258.822,-291.844 257.537,-302.361 265.099,-294.941 258.822,-291.844"/>
</g>
<!-- Node23 -->
<g id="node23" class="node">
<title>Node23</title>
<g id="a_node23"><a xlink:href="en61107__request_8h.html#ae961d250da79b65178151b9dc7f31b61" target="_top" xlink:title="en61107_uart_send_unknown_4">
<polygon fill="#ffffff" stroke="#000000" points="354,-128.032 354,-147.032 516,-147.032 516,-128.032 354,-128.032"/>
<text text-anchor="middle" x="435" y="-135.032" font-family="Helvetica,sans-Serif" font-size="10.00" fill="#000000">en61107_uart_send_unknown_4</text>
</a>
</g>
</g>
<!-- Node2&#45;&gt;Node23 -->
<g id="edge43" class="edge">
<title>Node2&#45;&gt;Node23</title>
<path fill="none" stroke="#191970" d="M258.788,-292.418C271.659,-254.417 302.981,-183.82 354,-147.532 354.235,-147.365 354.472,-147.199 354.71,-147.035"/>
<polygon fill="#191970" stroke="#191970" points="255.366,-291.625 255.646,-302.216 262.032,-293.763 255.366,-291.625"/>
</g>
<!-- Node24 -->
<g id="node24" class="node">
<title>Node24</title>
<g id="a_node24"><a xlink:href="en61107__request_8h.html#a8b6b61143d95d3af3813f8be1aaf3447" target="_top" xlink:title="en61107_uart_send_en61107">
<polygon fill="#ffffff" stroke="#000000" points="360,-90.0325 360,-109.032 510,-109.032 510,-90.0325 360,-90.0325"/>
<text text-anchor="middle" x="435" y="-97.0325" font-family="Helvetica,sans-Serif" font-size="10.00" fill="#000000">en61107_uart_send_en61107</text>
</a>
</g>
</g>
<!-- Node2&#45;&gt;Node24 -->
<g id="edge46" class="edge">
<title>Node2&#45;&gt;Node24</title>
<path fill="none" stroke="#191970" d="M256.328,-292.526C266.157,-248.019 294.11,-156.377 354,-109.532 355.82,-108.109 357.73,-106.789 359.709,-105.567"/>
<polygon fill="#191970" stroke="#191970" points="252.858,-292.02 254.258,-302.522 259.713,-293.44 252.858,-292.02"/>
</g>
<!-- Node25 -->
<g id="node25" class="node">
<title>Node25</title>
<g id="a_node25"><a xlink:href="en61107__request_8h.html#a74c2d949e6bb3b65cdf794a0643dd67d" target="_top" xlink:title="en61107_uart_send_inst\l_values">
<polygon fill="#ffffff" stroke="#000000" points="371.5,-40.5325 371.5,-70.5325 498.5,-70.5325 498.5,-40.5325 371.5,-40.5325"/>
<text text-anchor="start" x="379.5" y="-58.5325" font-family="Helvetica,sans-Serif" font-size="10.00" fill="#000000">en61107_uart_send_inst</text>
<text text-anchor="middle" x="435" y="-47.5325" font-family="Helvetica,sans-Serif" font-size="10.00" fill="#000000">_values</text>
</a>
</g>
</g>
<!-- Node2&#45;&gt;Node25 -->
<g id="edge49" class="edge">
<title>Node2&#45;&gt;Node25</title>
<path fill="none" stroke="#191970" d="M254.905,-292.584C262.511,-242.715 287.251,-131.492 354,-71.5325 359.146,-66.9101 365.132,-63.1423 371.477,-60.1268"/>
<polygon fill="#191970" stroke="#191970" points="251.434,-292.134 253.498,-302.526 258.365,-293.116 251.434,-292.134"/>
</g>
<!-- Node3&#45;&gt;Node2 -->
<g id="edge3" class="edge">
<title>Node3&#45;&gt;Node2</title>
<path fill="none" stroke="#191970" d="M353.622,-606.022C273.433,-519.216 256.341,-379.255 252.829,-332.734"/>
<polygon fill="#191970" stroke="#191970" points="351.338,-608.697 360.795,-613.473 356.381,-603.842 351.338,-608.697"/>
</g>
<!-- Node4 -->
<g id="node4" class="node">
<title>Node4</title>
<g id="a_node4"><a xlink:href="en61107__request_8h.html#a2fa4e9967afddae0c1dedbc914dcee36" target="_top" xlink:title="en61107_meter_wake\l_up_timer_func">
<polygon fill="#ffffff" stroke="#000000" points="556,-569.532 556,-599.532 671,-599.532 671,-569.532 556,-569.532"/>
<text text-anchor="start" x="564" y="-587.532" font-family="Helvetica,sans-Serif" font-size="10.00" fill="#000000">en61107_meter_wake</text>
<text text-anchor="middle" x="613.5" y="-576.532" font-family="Helvetica,sans-Serif" font-size="10.00" fill="#000000">_up_timer_func</text>
</a>
</g>
</g>
<!-- Node3&#45;&gt;Node4 -->
<g id="edge4" class="edge">
<title>Node3&#45;&gt;Node4</title>
<path fill="none" stroke="#191970" d="M506.084,-611.01C522.605,-606.938 539.994,-602.651 555.854,-598.742"/>
<polygon fill="#191970" stroke="#191970" points="504.802,-607.722 495.93,-613.513 506.477,-614.518 504.802,-607.722"/>
</g>
<!-- Node4&#45;&gt;Node2 -->
<g id="edge5" class="edge">
<title>Node4&#45;&gt;Node2</title>
<path fill="none" stroke="#191970" d="M545.89,-597.801C489.283,-604.967 409.134,-605.465 354,-565.532 274.633,-508.048 256.823,-377.42 253,-332.802"/>
<polygon fill="#191970" stroke="#191970" points="546.386,-601.266 555.821,-596.446 545.439,-594.33 546.386,-601.266"/>
</g>
<!-- Node5 -->
<g id="node5" class="node">
<title>Node5</title>
<g id="a_node5"><a xlink:href="en61107__request_8h.html#a7384d014eb9e833f64ecf4a9f86f87be" target="_top" xlink:title="en61107_request_send">
<polygon fill="#ffffff" stroke="#000000" points="711,-461.032 711,-480.032 833,-480.032 833,-461.032 711,-461.032"/>
<text text-anchor="middle" x="772" y="-468.032" font-family="Helvetica,sans-Serif" font-size="10.00" fill="#000000">en61107_request_send</text>
</a>
</g>
</g>
<!-- Node4&#45;&gt;Node5 -->
<g id="edge6" class="edge">
<title>Node4&#45;&gt;Node5</title>
<path fill="none" stroke="#191970" d="M642.848,-563.424C677.43,-538.551 733.387,-498.305 758.749,-480.063"/>
<polygon fill="#191970" stroke="#191970" points="640.622,-560.714 634.548,-569.394 644.71,-566.396 640.622,-560.714"/>
</g>
<!-- Node6 -->
<g id="node6" class="node">
<title>Node6</title>
<g id="a_node6"><a xlink:href="user__main_8c.html#af2c051d5ceacd30f90c08d6f584deff2" target="_top" xlink:title="sample_timer_func">
<polygon fill="#ffffff" stroke="#000000" points="869,-461.032 869,-480.032 970,-480.032 970,-461.032 869,-461.032"/>
<text text-anchor="middle" x="919.5" y="-468.032" font-family="Helvetica,sans-Serif" font-size="10.00" fill="#000000">sample_timer_func</text>
</a>
</g>
</g>
<!-- Node5&#45;&gt;Node6 -->
<g id="edge7" class="edge">
<title>Node5&#45;&gt;Node6</title>
<path fill="none" stroke="#191970" d="M843.366,-470.532C852.007,-470.532 860.691,-470.532 868.944,-470.532"/>
<polygon fill="#191970" stroke="#191970" points="843.272,-467.033 833.272,-470.532 843.272,-474.033 843.272,-467.033"/>
</g>
<!-- Node11 -->
<g id="node11" class="node">
<title>Node11</title>
<g id="a_node11"><a xlink:href="user__main_8c.html#ad75c70d9e67f9a03a6bc6efed2e08c9a" target="_top" xlink:title="en61107_request_send\l_timer_func">
<polygon fill="#ffffff" stroke="#000000" points="1160,-411.532 1160,-441.532 1282,-441.532 1282,-411.532 1160,-411.532"/>
<text text-anchor="start" x="1168" y="-429.532" font-family="Helvetica,sans-Serif" font-size="10.00" fill="#000000">en61107_request_send</text>
<text text-anchor="middle" x="1221" y="-418.532" font-family="Helvetica,sans-Serif" font-size="10.00" fill="#000000">_timer_func</text>
</a>
</g>
</g>
<!-- Node5&#45;&gt;Node11 -->
<g id="edge12" class="edge">
<title>Node5&#45;&gt;Node11</title>
<path fill="none" stroke="#191970" d="M824.923,-458.948C839.176,-456.162 854.627,-453.443 869,-451.532 970.42,-438.05 1089.31,-431.519 1159.72,-428.608"/>
<polygon fill="#191970" stroke="#191970" points="823.907,-455.582 814.789,-460.978 825.282,-462.446 823.907,-455.582"/>
</g>
<!-- Node7 -->
<g id="node7" class="node">
<title>Node7</title>
<g id="a_node7"><a xlink:href="user__main_8h.html#a06f2b383d99fcad9d0f37d1ca2224898" target="_top" xlink:title="mqttConnectedCb">
<polygon fill="#ffffff" stroke="#000000" points="1014,-461.032 1014,-480.032 1111,-480.032 1111,-461.032 1014,-461.032"/>
<text text-anchor="middle" x="1062.5" y="-468.032" font-family="Helvetica,sans-Serif" font-size="10.00" fill="#000000">mqttConnectedCb</text>
</a>
</g>
</g>
<!-- Node6&#45;&gt;Node7 -->
<g id="edge8" class="edge">
<title>Node6&#45;&gt;Node7</title>
<path fill="none" stroke="#191970" d="M980.416,-470.532C991.552,-470.532 1003.04,-470.532 1013.76,-470.532"/>
<polygon fill="#191970" stroke="#191970" points="980.319,-467.033 970.319,-470.532 980.319,-474.033 980.319,-467.033"/>
</g>
<!-- Node8 -->
<g id="node8" class="node">
<title>Node8</title>
<g id="a_node8"><a xlink:href="user__main_8c.html#a245ec00253f410a8804988bf40e1037e" target="_top" xlink:title="sample_mode_timer_func">
<polygon fill="#ffffff" stroke="#000000" points="1155,-461.032 1155,-480.032 1287,-480.032 1287,-461.032 1155,-461.032"/>
<text text-anchor="middle" x="1221" y="-468.032" font-family="Helvetica,sans-Serif" font-size="10.00" fill="#000000">sample_mode_timer_func</text>
</a>
</g>
</g>
<!-- Node7&#45;&gt;Node8 -->
<g id="edge9" class="edge">
<title>Node7&#45;&gt;Node8</title>
<path fill="none" stroke="#191970" d="M1121.55,-470.532C1132.4,-470.532 1143.78,-470.532 1154.82,-470.532"/>
<polygon fill="#191970" stroke="#191970" points="1121.35,-467.033 1111.35,-470.532 1121.35,-474.033 1121.35,-467.033"/>
</g>
<!-- Node9 -->
<g id="node9" class="node">
<title>Node9</title>
<g id="a_node9"><a xlink:href="user__main_8h.html#a3671381db669a16e8f6a4bf3dfb9a441" target="_top" xlink:title="system_init_done">
<polygon fill="#ffffff" stroke="#000000" points="1323,-417.032 1323,-436.032 1417,-436.032 1417,-417.032 1323,-417.032"/>
<text text-anchor="middle" x="1370" y="-424.032" font-family="Helvetica,sans-Serif" font-size="10.00" fill="#000000">system_init_done</text>
</a>
</g>
</g>
<!-- Node8&#45;&gt;Node9 -->
<g id="edge10" class="edge">
<title>Node8&#45;&gt;Node9</title>
<path fill="none" stroke="#191970" d="M1263.11,-458.098C1286.78,-451.106 1315.88,-442.515 1337.73,-436.061"/>
<polygon fill="#191970" stroke="#191970" points="1261.93,-454.796 1253.33,-460.985 1263.91,-461.51 1261.93,-454.796"/>
</g>
<!-- Node10 -->
<g id="node10" class="node">
<title>Node10</title>
<g id="a_node10"><a xlink:href="user__main_8h.html#a33113d6dedb440bd7dfa5576e325140c" target="_top" xlink:title="user_init">
<polygon fill="#ffffff" stroke="#000000" points="1453,-381.032 1453,-400.032 1507,-400.032 1507,-381.032 1453,-381.032"/>
<text text-anchor="middle" x="1480" y="-388.032" font-family="Helvetica,sans-Serif" font-size="10.00" fill="#000000">user_init</text>
</a>
</g>
</g>
<!-- Node9&#45;&gt;Node10 -->
<g id="edge11" class="edge">
<title>Node9&#45;&gt;Node10</title>
<path fill="none" stroke="#191970" d="M1408.94,-413.787C1423.5,-409.024 1439.69,-403.724 1452.94,-399.388"/>
<polygon fill="#191970" stroke="#191970" points="1407.6,-410.543 1399.19,-416.98 1409.78,-417.196 1407.6,-410.543"/>
</g>
<!-- Node11&#45;&gt;Node9 -->
<g id="edge13" class="edge">
<title>Node11&#45;&gt;Node9</title>
<path fill="none" stroke="#191970" d="M1292.04,-426.532C1302.54,-426.532 1313.13,-426.532 1322.98,-426.532"/>
<polygon fill="#191970" stroke="#191970" points="1292.03,-423.033 1282.03,-426.532 1292.03,-430.033 1292.03,-423.033"/>
</g>
<!-- Node12&#45;&gt;Node2 -->
<g id="edge15" class="edge">
<title>Node12&#45;&gt;Node2</title>
<path fill="none" stroke="#191970" d="M346.589,-530.206C284.585,-474.161 260.472,-371.461 253.96,-332.569"/>
<polygon fill="#191970" stroke="#191970" points="344.456,-532.986 354.339,-536.802 348.992,-527.655 344.456,-532.986"/>
</g>
<!-- Node12&#45;&gt;Node13 -->
<g id="edge16" class="edge">
<title>Node12&#45;&gt;Node13</title>
<path fill="none" stroke="#191970" d="M510.403,-531.806C512.357,-530.495 514.229,-529.073 516,-527.532 593.859,-459.792 609.904,-322.372 612.877,-285.062"/>
<polygon fill="#191970" stroke="#191970" points="508.379,-528.929 501.376,-536.879 511.809,-535.031 508.379,-528.929"/>
</g>
<!-- Node14 -->
<g id="node14" class="node">
<title>Node14</title>
<g id="a_node14"><a xlink:href="en61107__request_8h.html#acd43242675a3f25e7c3b530eac9d8b3a" target="_top" xlink:title="en61107_request_init">
<polygon fill="#ffffff" stroke="#000000" points="1006,-288.032 1006,-307.032 1119,-307.032 1119,-288.032 1006,-288.032"/>
<text text-anchor="middle" x="1062.5" y="-295.032" font-family="Helvetica,sans-Serif" font-size="10.00" fill="#000000">en61107_request_init</text>
</a>
</g>
</g>
<!-- Node13&#45;&gt;Node14 -->
<g id="edge17" class="edge">
<title>Node13&#45;&gt;Node14</title>
<path fill="none" stroke="#191970" d="M685.481,-279.059C774.56,-283.424 924.408,-290.766 1005.78,-294.753"/>
<polygon fill="#191970" stroke="#191970" points="685.619,-275.562 675.46,-278.568 685.277,-282.554 685.619,-275.562"/>
</g>
<!-- Node14&#45;&gt;Node10 -->
<g id="edge18" class="edge">
<title>Node14&#45;&gt;Node10</title>
<path fill="none" stroke="#191970" d="M1115.18,-309.268C1204.95,-329.263 1384.44,-369.246 1452.75,-384.463"/>
<polygon fill="#191970" stroke="#191970" points="1115.74,-305.806 1105.22,-307.048 1114.22,-312.639 1115.74,-305.806"/>
</g>
<!-- Node15&#45;&gt;Node2 -->
<g id="edge20" class="edge">
<title>Node15&#45;&gt;Node2</title>
<path fill="none" stroke="#191970" d="M347.898,-492.599C293.32,-446.97 264.416,-366.59 255.25,-332.716"/>
<polygon fill="#191970" stroke="#191970" points="345.748,-495.361 355.77,-498.798 350.079,-489.861 345.748,-495.361"/>
</g>
<!-- Node15&#45;&gt;Node13 -->
<g id="edge21" class="edge">
<title>Node15&#45;&gt;Node13</title>
<path fill="none" stroke="#191970" d="M507.313,-494.542C510.379,-492.766 513.297,-490.772 516,-488.532 583.65,-432.494 606.552,-319.383 612.058,-285.404"/>
<polygon fill="#191970" stroke="#191970" points="505.737,-491.417 498.329,-498.991 508.843,-497.69 505.737,-491.417"/>
</g>
<!-- Node16&#45;&gt;Node2 -->
<g id="edge23" class="edge">
<title>Node16&#45;&gt;Node2</title>
<path fill="none" stroke="#191970" d="M358.404,-451.286C356.902,-450.403 355.432,-449.485 354,-448.532 308.024,-417.954 271.63,-360.692 257.907,-332.811"/>
<polygon fill="#191970" stroke="#191970" points="356.827,-454.411 367.306,-455.969 360.086,-448.216 356.827,-454.411"/>
</g>
<!-- Node16&#45;&gt;Node13 -->
<g id="edge24" class="edge">
<title>Node16&#45;&gt;Node13</title>
<path fill="none" stroke="#191970" d="M508.817,-444.535C511.318,-442.989 513.723,-441.325 516,-439.532 570.657,-396.506 601.251,-313.712 610.481,-285.347"/>
<polygon fill="#191970" stroke="#191970" points="507.097,-441.486 499.993,-449.346 510.448,-447.632 507.097,-441.486"/>
</g>
<!-- Node17&#45;&gt;Node2 -->
<g id="edge26" class="edge">
<title>Node17&#45;&gt;Node2</title>
<path fill="none" stroke="#191970" d="M357.607,-401.266C356.39,-400.699 355.187,-400.121 354,-399.532 317.906,-381.638 280.712,-351.484 262.857,-332.737"/>
<polygon fill="#191970" stroke="#191970" points="356.604,-404.644 367.172,-405.394 359.378,-398.218 356.604,-404.644"/>
</g>
<!-- Node17&#45;&gt;Node13 -->
<g id="edge27" class="edge">
<title>Node17&#45;&gt;Node13</title>
<path fill="none" stroke="#191970" d="M506.346,-396.146C509.694,-394.424 512.933,-392.557 516,-390.532 559.908,-361.547 594.972,-307.184 608.013,-285.162"/>
<polygon fill="#191970" stroke="#191970" points="504.858,-392.978 497.269,-400.371 507.812,-399.324 504.858,-392.978"/>
</g>
<!-- Node18&#45;&gt;Node2 -->
<g id="edge29" class="edge">
<title>Node18&#45;&gt;Node2</title>
<path fill="none" stroke="#191970" d="M357.237,-352.393C333.052,-346.158 307.557,-338.931 287.719,-332.577"/>
<polygon fill="#191970" stroke="#191970" points="356.587,-355.839 367.141,-354.908 358.31,-349.054 356.587,-355.839"/>
</g>
<!-- Node18&#45;&gt;Node13 -->
<g id="edge30" class="edge">
<title>Node18&#45;&gt;Node13</title>
<path fill="none" stroke="#191970" d="M501.341,-347.844C506.371,-345.887 511.31,-343.782 516,-341.532 549.359,-325.533 584.286,-299.165 601.888,-285.088"/>
<polygon fill="#191970" stroke="#191970" points="499.777,-344.69 491.599,-351.425 502.192,-351.26 499.777,-344.69"/>
</g>
<!-- Node19&#45;&gt;Node2 -->
<g id="edge32" class="edge">
<title>Node19&#45;&gt;Node2</title>
<path fill="none" stroke="#191970" d="M357.156,-324.215C344.141,-324.344 330.75,-324.288 318.067,-324.045"/>
<polygon fill="#191970" stroke="#191970" points="357.541,-327.71 367.491,-324.072 357.444,-320.711 357.541,-327.71"/>
</g>
<!-- Node19&#45;&gt;Node13 -->
<g id="edge33" class="edge">
<title>Node19&#45;&gt;Node13</title>
<path fill="none" stroke="#191970" d="M508.913,-300.141C530.861,-294.977 554.084,-289.513 573.057,-285.048"/>
<polygon fill="#191970" stroke="#191970" points="507.871,-296.791 498.938,-302.488 509.474,-303.605 507.871,-296.791"/>
</g>
<!-- Node20&#45;&gt;Node2 -->
<g id="edge35" class="edge">
<title>Node20&#45;&gt;Node2</title>
<path fill="none" stroke="#191970" d="M389.76,-286.562C368.147,-293.202 341.861,-300.439 318.067,-306.355"/>
<polygon fill="#191970" stroke="#191970" points="390.841,-289.891 399.336,-283.56 388.747,-283.212 390.841,-289.891"/>
</g>
<!-- Node20&#45;&gt;Node13 -->
<g id="edge36" class="edge">
<title>Node20&#45;&gt;Node13</title>
<path fill="none" stroke="#191970" d="M513.085,-271.595C526.101,-272.105 539.438,-272.628 551.967,-273.119"/>
<polygon fill="#191970" stroke="#191970" points="512.867,-268.083 502.738,-271.189 512.593,-275.078 512.867,-268.083"/>
</g>
<!-- Node21&#45;&gt;Node2 -->
<g id="edge38" class="edge">
<title>Node21&#45;&gt;Node2</title>
<path fill="none" stroke="#191970" d="M392.949,-237.642C380.101,-241.746 366.161,-246.54 354,-252.532 325.937,-266.361 297.399,-287.83 277.673,-302.521"/>
<polygon fill="#191970" stroke="#191970" points="394.027,-240.972 402.514,-234.63 391.924,-234.296 394.027,-240.972"/>
</g>
<!-- Node21&#45;&gt;Node13 -->
<g id="edge39" class="edge">
<title>Node21&#45;&gt;Node13</title>
<path fill="none" stroke="#191970" d="M496.23,-237.469C502.91,-239.487 509.604,-241.536 516,-243.532 539.298,-250.806 565.583,-259.459 584.986,-265.932"/>
<polygon fill="#191970" stroke="#191970" points="497.072,-234.067 486.488,-234.543 495.059,-240.772 497.072,-234.067"/>
</g>
<!-- Node22&#45;&gt;Node2 -->
<g id="edge41" class="edge">
<title>Node22&#45;&gt;Node2</title>
<path fill="none" stroke="#191970" d="M399.068,-187.176C384.268,-190.51 367.47,-195.191 354,-203.532 312.725,-229.091 280.216,-277.184 263.776,-302.184"/>
<polygon fill="#191970" stroke="#191970" points="399.89,-190.579 408.93,-185.054 398.418,-183.735 399.89,-190.579"/>
</g>
<!-- Node22&#45;&gt;Node13 -->
<g id="edge42" class="edge">
<title>Node22&#45;&gt;Node13</title>
<path fill="none" stroke="#191970" d="M500.697,-188.154C505.984,-190.005 511.151,-192.119 516,-194.532 553.432,-213.163 589.008,-248.757 604.864,-265.872"/>
<polygon fill="#191970" stroke="#191970" points="501.684,-184.795 491.093,-185.1 499.562,-191.466 501.684,-184.795"/>
</g>
<!-- Node23&#45;&gt;Node2 -->
<g id="edge44" class="edge">
<title>Node23&#45;&gt;Node2</title>
<path fill="none" stroke="#191970" d="M394.778,-149.181C380.88,-152.375 365.84,-157.112 354,-165.532 303.443,-201.492 272.227,-271.143 259.141,-302.307"/>
<polygon fill="#191970" stroke="#191970" points="395.575,-152.59 404.635,-147.098 394.127,-145.742 395.575,-152.59"/>
</g>
<!-- Node23&#45;&gt;Node13 -->
<g id="edge45" class="edge">
<title>Node23&#45;&gt;Node13</title>
<path fill="none" stroke="#191970" d="M505.182,-150.829C508.946,-152.509 512.581,-154.401 516,-156.532 562.012,-185.213 596.36,-243.235 608.61,-266.031"/>
<polygon fill="#191970" stroke="#191970" points="506.198,-147.468 495.61,-147.074 503.641,-153.985 506.198,-147.468"/>
</g>
<!-- Node24&#45;&gt;Node2 -->
<g id="edge47" class="edge">
<title>Node24&#45;&gt;Node2</title>
<path fill="none" stroke="#191970" d="M391.604,-111.23C378.466,-114.381 364.698,-119.165 354,-127.532 294.217,-174.293 266.257,-265.69 256.381,-302.269"/>
<polygon fill="#191970" stroke="#191970" points="392.427,-114.633 401.467,-109.108 390.955,-107.79 392.427,-114.633"/>
</g>
<!-- Node24&#45;&gt;Node13 -->
<g id="edge48" class="edge">
<title>Node24&#45;&gt;Node13</title>
<path fill="none" stroke="#191970" d="M507.45,-113.284C510.434,-114.852 513.301,-116.595 516,-118.532 570.731,-157.832 601.278,-238.303 610.489,-265.953"/>
<polygon fill="#191970" stroke="#191970" points="508.751,-110.032 498.199,-109.089 505.86,-116.407 508.751,-110.032"/>
</g>
<!-- Node25&#45;&gt;Node2 -->
<g id="edge50" class="edge">
<title>Node25&#45;&gt;Node2</title>
<path fill="none" stroke="#191970" d="M380.574,-74.0239C370.921,-77.8023 361.554,-82.7464 354,-89.5325 287.019,-149.701 262.339,-261.49 254.826,-302.39"/>
<polygon fill="#191970" stroke="#191970" points="381.997,-77.2334 390.266,-70.6091 379.671,-70.6312 381.997,-77.2334"/>
</g>
<!-- Node25&#45;&gt;Node13 -->
<g id="edge51" class="edge">
<title>Node25&#45;&gt;Node13</title>
<path fill="none" stroke="#191970" d="M507.467,-74.3528C510.473,-76.2212 513.338,-78.275 516,-80.5325 577.781,-132.915 604.404,-233.985 611.477,-265.738"/>
<polygon fill="#191970" stroke="#191970" points="509.126,-71.2711 498.67,-69.5627 505.779,-77.4188 509.126,-71.2711"/>
</g>
</g>
</svg>
