<?xml version="1.0" encoding="UTF-8" standalone="no"?>
<!DOCTYPE svg PUBLIC "-//W3C//DTD SVG 1.1//EN"
 "http://www.w3.org/Graphics/SVG/1.1/DTD/svg11.dtd">
<!-- Generated by graphviz version 2.39.20160927.1334 (20160927.1334)
 -->
<!-- Title: en61107_receive_timeout_timer_func Pages: 1 -->
<svg width="987pt" height="78pt"
 viewBox="0.00 0.00 987.00 77.50" xmlns="http://www.w3.org/2000/svg" xmlns:xlink="http://www.w3.org/1999/xlink">
<g id="graph0" class="graph" transform="scale(1 1) rotate(0) translate(4 73.5)">
<title>en61107_receive_timeout_timer_func</title>
<polygon fill="#ffffff" stroke="transparent" points="-4,4 -4,-73.5 983,-73.5 983,4 -4,4"/>
<!-- Node1 -->
<g id="node1" class="node">
<title>Node1</title>
<polygon fill="#bfbfbf" stroke="#000000" points="0,-39 0,-69 132,-69 132,-39 0,-39"/>
<text text-anchor="start" x="8" y="-57" font-family="Helvetica,sans-Serif" font-size="10.00" fill="#000000">en61107_receive_timeout</text>
<text text-anchor="middle" x="66" y="-46" font-family="Helvetica,sans-Serif" font-size="10.00" fill="#000000">_timer_func</text>
</g>
<!-- Node2 -->
<g id="node2" class="node">
<title>Node2</title>
<g id="a_node2"><a xlink:href="en61107__request_8h.html#a7384d014eb9e833f64ecf4a9f86f87be" target="_top" xlink:title="en61107_request_send">
<polygon fill="#ffffff" stroke="#000000" points="168,-44.5 168,-63.5 290,-63.5 290,-44.5 168,-44.5"/>
<text text-anchor="middle" x="229" y="-51.5" font-family="Helvetica,sans-Serif" font-size="10.00" fill="#000000">en61107_request_send</text>
</a>
</g>
</g>
<!-- Node1&#45;&gt;Node2 -->
<g id="edge1" class="edge">
<title>Node1&#45;&gt;Node2</title>
<path fill="none" stroke="#191970" d="M142.548,-54C151.001,-54 159.525,-54 167.754,-54"/>
<polygon fill="#191970" stroke="#191970" points="142.298,-50.5001 132.298,-54 142.298,-57.5001 142.298,-50.5001"/>
</g>
<!-- Node3 -->
<g id="node3" class="node">
<title>Node3</title>
<g id="a_node3"><a xlink:href="en61107__request_8h.html#a6379eaf88ea35baaf2a3ab8a0ae66fdb" target="_top" xlink:title="en61107_receive_timeout\l_timer_func">
<polygon fill="#ffffff" stroke="#000000" points="326,-39 326,-69 458,-69 458,-39 326,-39"/>
<text text-anchor="start" x="334" y="-57" font-family="Helvetica,sans-Serif" font-size="10.00" fill="#000000">en61107_receive_timeout</text>
<text text-anchor="middle" x="392" y="-46" font-family="Helvetica,sans-Serif" font-size="10.00" fill="#000000">_timer_func</text>
</a>
</g>
</g>
<!-- Node2&#45;&gt;Node3 -->
<g id="edge2" class="edge">
<title>Node2&#45;&gt;Node3</title>
<path fill="none" stroke="#191970" d="M300.388,-47.2964C308.855,-47.2183 317.469,-47.2388 325.859,-47.3577"/>
<polygon fill="#191970" stroke="#191970" points="300.109,-43.7999 290.159,-47.4404 300.207,-50.7992 300.109,-43.7999"/>
</g>
<!-- Node4 -->
<g id="node4" class="node">
<title>Node4</title>
<g id="a_node4"><a xlink:href="user__main_8c.html#af2c051d5ceacd30f90c08d6f584deff2" target="_top" xlink:title="sample_timer_func">
<polygon fill="#ffffff" stroke="#000000" points="341.5,-0.5 341.5,-19.5 442.5,-19.5 442.5,-0.5 341.5,-0.5"/>
<text text-anchor="middle" x="392" y="-7.5" font-family="Helvetica,sans-Serif" font-size="10.00" fill="#000000">sample_timer_func</text>
</a>
</g>
</g>
<!-- Node2&#45;&gt;Node4 -->
<g id="edge4" class="edge">
<title>Node2&#45;&gt;Node4</title>
<path fill="none" stroke="#191970" d="M274.028,-41.8453C300.111,-34.8045 332.472,-26.0688 356.7,-19.5287"/>
<polygon fill="#191970" stroke="#191970" points="273.111,-38.4674 264.369,-44.4527 274.935,-45.2255 273.111,-38.4674"/>
</g>
<!-- Node3&#45;&gt;Node2 -->
<g id="edge3" class="edge">
<title>Node3&#45;&gt;Node2</title>
<path fill="none" stroke="#191970" d="M315.819,-60.7372C307.217,-60.7786 298.535,-60.7194 290.159,-60.5596"/>
<polygon fill="#191970" stroke="#191970" points="315.892,-64.2368 325.859,-60.6423 315.826,-57.2371 315.892,-64.2368"/>
</g>
<!-- Node5 -->
<g id="node5" class="node">
<title>Node5</title>
<g id="a_node5"><a xlink:href="user__main_8h.html#a06f2b383d99fcad9d0f37d1ca2224898" target="_top" xlink:title="mqttConnectedCb">
<polygon fill="#ffffff" stroke="#000000" points="494,-0.5 494,-19.5 591,-19.5 591,-0.5 494,-0.5"/>
<text text-anchor="middle" x="542.5" y="-7.5" font-family="Helvetica,sans-Serif" font-size="10.00" fill="#000000">mqttConnectedCb</text>
</a>
</g>
</g>
<!-- Node4&#45;&gt;Node5 -->
<g id="edge5" class="edge">
<title>Node4&#45;&gt;Node5</title>
<path fill="none" stroke="#191970" d="M452.819,-10C466.48,-10 480.8,-10 493.885,-10"/>
<polygon fill="#191970" stroke="#191970" points="452.533,-6.5001 442.533,-10 452.533,-13.5001 452.533,-6.5001"/>
</g>
<!-- Node6 -->
<g id="node6" class="node">
<title>Node6</title>
<g id="a_node6"><a xlink:href="user__main_8c.html#a245ec00253f410a8804988bf40e1037e" target="_top" xlink:title="sample_mode_timer_func">
<polygon fill="#ffffff" stroke="#000000" points="627,-0.5 627,-19.5 759,-19.5 759,-0.5 627,-0.5"/>
<text text-anchor="middle" x="693" y="-7.5" font-family="Helvetica,sans-Serif" font-size="10.00" fill="#000000">sample_mode_timer_func</text>
</a>
</g>
</g>
<!-- Node5&#45;&gt;Node6 -->
<g id="edge6" class="edge">
<title>Node5&#45;&gt;Node6</title>
<path fill="none" stroke="#191970" d="M601.387,-10C609.745,-10 618.385,-10 626.869,-10"/>
<polygon fill="#191970" stroke="#191970" points="601.363,-6.5001 591.363,-10 601.363,-13.5001 601.363,-6.5001"/>
</g>
<!-- Node7 -->
<g id="node7" class="node">
<title>Node7</title>
<g id="a_node7"><a xlink:href="user__main_8h.html#a3671381db669a16e8f6a4bf3dfb9a441" target="_top" xlink:title="system_init_done">
<polygon fill="#ffffff" stroke="#000000" points="795,-0.5 795,-19.5 889,-19.5 889,-0.5 795,-0.5"/>
<text text-anchor="middle" x="842" y="-7.5" font-family="Helvetica,sans-Serif" font-size="10.00" fill="#000000">system_init_done</text>
</a>
</g>
</g>
<!-- Node6&#45;&gt;Node7 -->
<g id="edge7" class="edge">
<title>Node6&#45;&gt;Node7</title>
<path fill="none" stroke="#191970" d="M769.361,-10C778.009,-10 786.624,-10 794.739,-10"/>
<polygon fill="#191970" stroke="#191970" points="769.221,-6.5001 759.221,-10 769.221,-13.5001 769.221,-6.5001"/>
</g>
<!-- Node8 -->
<g id="node8" class="node">
<title>Node8</title>
<g id="a_node8"><a xlink:href="user__main_8h.html#a33113d6dedb440bd7dfa5576e325140c" target="_top" xlink:title="user_init">
<polygon fill="#ffffff" stroke="#000000" points="925,-0.5 925,-19.5 979,-19.5 979,-0.5 925,-0.5"/>
<text text-anchor="middle" x="952" y="-7.5" font-family="Helvetica,sans-Serif" font-size="10.00" fill="#000000">user_init</text>
</a>
</g>
</g>
<!-- Node7&#45;&gt;Node8 -->
<g id="edge8" class="edge">
<title>Node7&#45;&gt;Node8</title>
<path fill="none" stroke="#191970" d="M899.289,-10C908.16,-10 916.952,-10 924.738,-10"/>
<polygon fill="#191970" stroke="#191970" points="899.288,-6.5001 889.288,-10 899.288,-13.5001 899.288,-6.5001"/>
</g>
</g>
</svg>
