<?xml version="1.0" encoding="UTF-8" standalone="no"?>
<!DOCTYPE svg PUBLIC "-//W3C//DTD SVG 1.1//EN"
 "http://www.w3.org/Graphics/SVG/1.1/DTD/svg11.dtd">
<!-- Generated by graphviz version 2.41.20170323.1842 (20170323.1842)
 -->
<!-- Title: en61107_uart_send_standard_data_2 Pages: 1 -->
<svg width="1633pt" height="227pt"
 viewBox="0.00 0.00 1633.00 226.75" xmlns="http://www.w3.org/2000/svg" xmlns:xlink="http://www.w3.org/1999/xlink">
<g id="graph0" class="graph" transform="scale(1 1) rotate(0) translate(4 222.7471)">
<title>en61107_uart_send_standard_data_2</title>
<polygon fill="#ffffff" stroke="transparent" points="-4,4 -4,-222.7471 1629,-222.7471 1629,4 -4,4"/>
<!-- Node428 -->
<g id="node1" class="node">
<title>Node428</title>
<polygon fill="#bfbfbf" stroke="#000000" points="0,-75.1768 0,-105.1768 150,-105.1768 150,-75.1768 0,-75.1768"/>
<text text-anchor="start" x="8" y="-93.1768" font-family="Helvetica,sans-Serif" font-size="10.00" fill="#000000">en61107_uart_send_standard</text>
<text text-anchor="middle" x="75" y="-82.1768" font-family="Helvetica,sans-Serif" font-size="10.00" fill="#000000">_data_2</text>
</g>
<!-- Node429 -->
<g id="node2" class="node">
<title>Node429</title>
<g id="a_node2"><a xlink:href="en61107__request_8h.html#a22f1fee248eec0eeacf220c69b878a28" target="_top" xlink:title="en61107_receive_timeout\l_timer_func">
<polygon fill="#ffffff" stroke="#000000" points="186,-75.1768 186,-105.1768 318,-105.1768 318,-75.1768 186,-75.1768"/>
<text text-anchor="start" x="194" y="-93.1768" font-family="Helvetica,sans-Serif" font-size="10.00" fill="#000000">en61107_receive_timeout</text>
<text text-anchor="middle" x="252" y="-82.1768" font-family="Helvetica,sans-Serif" font-size="10.00" fill="#000000">_timer_func</text>
</a>
</g>
</g>
<!-- Node428&#45;&gt;Node429 -->
<g id="edge1" class="edge">
<title>Node428&#45;&gt;Node429</title>
<path fill="none" stroke="#191970" d="M160.1396,-83.4311C168.7559,-83.4089 177.4148,-83.4721 185.7889,-83.6208"/>
<polygon fill="#191970" stroke="#191970" points="160.041,-79.9316 150.0639,-83.4964 160.0864,-86.9314 160.041,-79.9316"/>
</g>
<!-- Node431 -->
<g id="node4" class="node">
<title>Node431</title>
<g id="a_node4"><a xlink:href="en61107__request_8c.html#aa3b162cf5364986ea19e831ac2b18f76" target="_top" xlink:title="en61107_received_task">
<polygon fill="#ffffff" stroke="#000000" points="540,-80.6768 540,-99.6768 663,-99.6768 663,-80.6768 540,-80.6768"/>
<text text-anchor="middle" x="601.5" y="-87.6768" font-family="Helvetica,sans-Serif" font-size="10.00" fill="#000000">en61107_received_task</text>
</a>
</g>
</g>
<!-- Node428&#45;&gt;Node431 -->
<g id="edge25" class="edge">
<title>Node428&#45;&gt;Node431</title>
<path fill="none" stroke="#191970" d="M114.4703,-70.7442C191.2675,-35.6626 365.41,30.4607 504,-16.1768 542.267,-29.0541 577.4386,-63.579 593.0304,-80.5249"/>
<polygon fill="#191970" stroke="#191970" points="112.7588,-67.6798 105.1611,-75.0639 115.7053,-74.0295 112.7588,-67.6798"/>
</g>
<!-- Node429&#45;&gt;Node428 -->
<g id="edge24" class="edge">
<title>Node429&#45;&gt;Node428</title>
<path fill="none" stroke="#191970" d="M175.5685,-96.8707C167.1112,-96.9497 158.5041,-96.9452 150.0639,-96.8571"/>
<polygon fill="#191970" stroke="#191970" points="175.837,-100.3675 185.7889,-96.7328 175.7425,-93.3681 175.837,-100.3675"/>
</g>
<!-- Node430 -->
<g id="node3" class="node">
<title>Node430</title>
<g id="a_node3"><a xlink:href="en61107__request_8h.html#a8b6b61143d95d3af3813f8be1aaf3447" target="_top" xlink:title="en61107_uart_send_en61107">
<polygon fill="#ffffff" stroke="#000000" points="354,-124.6768 354,-143.6768 504,-143.6768 504,-124.6768 354,-124.6768"/>
<text text-anchor="middle" x="429" y="-131.6768" font-family="Helvetica,sans-Serif" font-size="10.00" fill="#000000">en61107_uart_send_en61107</text>
</a>
</g>
</g>
<!-- Node429&#45;&gt;Node430 -->
<g id="edge2" class="edge">
<title>Node429&#45;&gt;Node430</title>
<path fill="none" stroke="#191970" d="M322.2934,-107.6508C345.6343,-113.4531 370.7412,-119.6944 390.7341,-124.6643"/>
<polygon fill="#191970" stroke="#191970" points="322.9673,-104.2119 312.4183,-105.196 321.2786,-111.0052 322.9673,-104.2119"/>
</g>
<!-- Node434 -->
<g id="node7" class="node">
<title>Node434</title>
<g id="a_node7"><a xlink:href="en61107__request_8h.html#a353102f2f89ad4ed996501752c0ac59c" target="_top" xlink:title="en61107_uart_send_en61107\l_ident">
<polygon fill="#ffffff" stroke="#000000" points="354,-163.1768 354,-193.1768 504,-193.1768 504,-163.1768 354,-163.1768"/>
<text text-anchor="start" x="362" y="-181.1768" font-family="Helvetica,sans-Serif" font-size="10.00" fill="#000000">en61107_uart_send_en61107</text>
<text text-anchor="middle" x="429" y="-170.1768" font-family="Helvetica,sans-Serif" font-size="10.00" fill="#000000">_ident</text>
</a>
</g>
</g>
<!-- Node429&#45;&gt;Node434 -->
<g id="edge6" class="edge">
<title>Node429&#45;&gt;Node434</title>
<path fill="none" stroke="#191970" d="M293.4509,-110.5259C311.5127,-121.4802 333.2615,-134.4762 354,-144.1768 369.6647,-151.504 388.0781,-157.6748 402.7397,-163.1254"/>
<polygon fill="#191970" stroke="#191970" points="295.2654,-107.5331 284.9009,-105.3358 291.633,-113.5169 295.2654,-107.5331"/>
</g>
<!-- Node442 -->
<g id="node15" class="node">
<title>Node442</title>
<g id="a_node15"><a xlink:href="en61107__request_8h.html#a74c2d949e6bb3b65cdf794a0643dd67d" target="_top" xlink:title="en61107_uart_send_inst\l_values">
<polygon fill="#ffffff" stroke="#000000" points="365.5,-75.1768 365.5,-105.1768 492.5,-105.1768 492.5,-75.1768 365.5,-75.1768"/>
<text text-anchor="start" x="373.5" y="-93.1768" font-family="Helvetica,sans-Serif" font-size="10.00" fill="#000000">en61107_uart_send_inst</text>
<text text-anchor="middle" x="429" y="-82.1768" font-family="Helvetica,sans-Serif" font-size="10.00" fill="#000000">_values</text>
</a>
</g>
</g>
<!-- Node429&#45;&gt;Node442 -->
<g id="edge18" class="edge">
<title>Node429&#45;&gt;Node442</title>
<path fill="none" stroke="#191970" d="M328.3943,-83.4832C340.6926,-83.3679 353.3087,-83.4293 365.2684,-83.6674"/>
<polygon fill="#191970" stroke="#191970" points="328.1117,-79.9866 318.16,-83.6217 328.2064,-86.986 328.1117,-79.9866"/>
</g>
<!-- Node443 -->
<g id="node16" class="node">
<title>Node443</title>
<g id="a_node16"><a xlink:href="en61107__request_8h.html#afdb1795bdd4212fc7e028a9e5668fab4" target="_top" xlink:title="en61107_uart_send_standard\l_data_1">
<polygon fill="#ffffff" stroke="#000000" points="354,-26.1768 354,-56.1768 504,-56.1768 504,-26.1768 354,-26.1768"/>
<text text-anchor="start" x="362" y="-44.1768" font-family="Helvetica,sans-Serif" font-size="10.00" fill="#000000">en61107_uart_send_standard</text>
<text text-anchor="middle" x="429" y="-33.1768" font-family="Helvetica,sans-Serif" font-size="10.00" fill="#000000">_data_1</text>
</a>
</g>
</g>
<!-- Node429&#45;&gt;Node443 -->
<g id="edge21" class="edge">
<title>Node429&#45;&gt;Node443</title>
<path fill="none" stroke="#191970" d="M296.4185,-71.9375C313.8346,-66.4203 334.3093,-60.5061 353.889,-55.2894"/>
<polygon fill="#191970" stroke="#191970" points="294.9842,-68.7229 286.5476,-75.1318 297.1394,-75.3829 294.9842,-68.7229"/>
</g>
<!-- Node430&#45;&gt;Node431 -->
<g id="edge3" class="edge">
<title>Node430&#45;&gt;Node431</title>
<path fill="none" stroke="#191970" d="M476.4969,-122.1663C485.626,-119.8516 495.1104,-117.4425 504,-115.1768 523.9813,-110.0841 546.2576,-104.3746 564.4678,-99.699"/>
<polygon fill="#191970" stroke="#191970" points="475.609,-118.7805 466.7751,-124.6297 477.3285,-125.5661 475.609,-118.7805"/>
</g>
<!-- Node432 -->
<g id="node5" class="node">
<title>Node432</title>
<g id="a_node5"><a xlink:href="en61107__request_8h.html#acd43242675a3f25e7c3b530eac9d8b3a" target="_top" xlink:title="en61107_request_init">
<polygon fill="#ffffff" stroke="#000000" points="857,-89.6768 857,-108.6768 970,-108.6768 970,-89.6768 857,-89.6768"/>
<text text-anchor="middle" x="913.5" y="-96.6768" font-family="Helvetica,sans-Serif" font-size="10.00" fill="#000000">en61107_request_init</text>
</a>
</g>
</g>
<!-- Node431&#45;&gt;Node432 -->
<g id="edge4" class="edge">
<title>Node431&#45;&gt;Node432</title>
<path fill="none" stroke="#191970" d="M673.313,-92.2483C729.1248,-93.8582 805.461,-96.0603 856.9723,-97.5462"/>
<polygon fill="#191970" stroke="#191970" points="673.238,-88.7448 663.1412,-91.9549 673.036,-95.7419 673.238,-88.7448"/>
</g>
<!-- Node433 -->
<g id="node6" class="node">
<title>Node433</title>
<g id="a_node6"><a xlink:href="user__main_8h.html#a33113d6dedb440bd7dfa5576e325140c" target="_top" xlink:title="user_init">
<polygon fill="#ffffff" stroke="#000000" points="1571,-109.6768 1571,-128.6768 1625,-128.6768 1625,-109.6768 1571,-109.6768"/>
<text text-anchor="middle" x="1598" y="-116.6768" font-family="Helvetica,sans-Serif" font-size="10.00" fill="#000000">user_init</text>
</a>
</g>
</g>
<!-- Node432&#45;&gt;Node433 -->
<g id="edge5" class="edge">
<title>Node432&#45;&gt;Node433</title>
<path fill="none" stroke="#191970" d="M980.403,-99.5523C1036.7136,-99.836 1119.37,-100.1768 1191.5,-100.1768 1191.5,-100.1768 1191.5,-100.1768 1339,-100.1768 1423.7619,-100.1768 1523.7102,-110.4236 1570.8272,-115.8672"/>
<polygon fill="#191970" stroke="#191970" points="980.2215,-96.0514 970.2037,-99.5001 980.1856,-103.0513 980.2215,-96.0514"/>
</g>
<!-- Node434&#45;&gt;Node429 -->
<g id="edge17" class="edge">
<title>Node434&#45;&gt;Node429</title>
<path fill="none" stroke="#191970" d="M346.6379,-158.5616C313.8986,-142.1195 281.8108,-120.1967 264.6588,-105.2118"/>
<polygon fill="#191970" stroke="#191970" points="345.3525,-161.8281 355.8774,-163.0435 348.4076,-155.53 345.3525,-161.8281"/>
</g>
<!-- Node435 -->
<g id="node8" class="node">
<title>Node435</title>
<g id="a_node8"><a xlink:href="en61107__request_8h.html#a2fa4e9967afddae0c1dedbc914dcee36" target="_top" xlink:title="en61107_meter_wake\l_up_timer_func">
<polygon fill="#ffffff" stroke="#000000" points="544,-163.1768 544,-193.1768 659,-193.1768 659,-163.1768 544,-163.1768"/>
<text text-anchor="start" x="552" y="-181.1768" font-family="Helvetica,sans-Serif" font-size="10.00" fill="#000000">en61107_meter_wake</text>
<text text-anchor="middle" x="601.5" y="-170.1768" font-family="Helvetica,sans-Serif" font-size="10.00" fill="#000000">_up_timer_func</text>
</a>
</g>
</g>
<!-- Node434&#45;&gt;Node435 -->
<g id="edge7" class="edge">
<title>Node434&#45;&gt;Node435</title>
<path fill="none" stroke="#191970" d="M514.2161,-178.1768C524.2997,-178.1768 534.4021,-178.1768 543.972,-178.1768"/>
<polygon fill="#191970" stroke="#191970" points="514.1592,-174.6769 504.1592,-178.1768 514.1592,-181.6769 514.1592,-174.6769"/>
</g>
<!-- Node435&#45;&gt;Node429 -->
<g id="edge8" class="edge">
<title>Node435&#45;&gt;Node429</title>
<path fill="none" stroke="#191970" d="M554.0378,-196.5635C502.5041,-213.5029 418.8814,-232.0156 354,-203.1768 308.5978,-182.9962 274.8708,-131.5142 260.1568,-105.5882"/>
<polygon fill="#191970" stroke="#191970" points="555.2443,-199.8502 563.5882,-193.321 552.9939,-193.2218 555.2443,-199.8502"/>
</g>
<!-- Node436 -->
<g id="node9" class="node">
<title>Node436</title>
<g id="a_node9"><a xlink:href="en61107__request_8h.html#a7384d014eb9e833f64ecf4a9f86f87be" target="_top" xlink:title="en61107_request_send">
<polygon fill="#ffffff" stroke="#000000" points="699,-167.6768 699,-186.6768 821,-186.6768 821,-167.6768 699,-167.6768"/>
<text text-anchor="middle" x="760" y="-174.6768" font-family="Helvetica,sans-Serif" font-size="10.00" fill="#000000">en61107_request_send</text>
</a>
</g>
</g>
<!-- Node435&#45;&gt;Node436 -->
<g id="edge9" class="edge">
<title>Node435&#45;&gt;Node436</title>
<path fill="none" stroke="#191970" d="M669.3048,-177.749C679.1381,-177.6869 689.2115,-177.6234 698.9022,-177.5622"/>
<polygon fill="#191970" stroke="#191970" points="669.1482,-174.2498 659.1705,-177.8129 669.1924,-181.2497 669.1482,-174.2498"/>
</g>
<!-- Node437 -->
<g id="node10" class="node">
<title>Node437</title>
<g id="a_node10"><a xlink:href="user__main_8c.html#af2c051d5ceacd30f90c08d6f584deff2" target="_top" xlink:title="sample_timer_func">
<polygon fill="#ffffff" stroke="#000000" points="863,-167.6768 863,-186.6768 964,-186.6768 964,-167.6768 863,-167.6768"/>
<text text-anchor="middle" x="913.5" y="-174.6768" font-family="Helvetica,sans-Serif" font-size="10.00" fill="#000000">sample_timer_func</text>
</a>
</g>
</g>
<!-- Node436&#45;&gt;Node437 -->
<g id="edge10" class="edge">
<title>Node436&#45;&gt;Node437</title>
<path fill="none" stroke="#191970" d="M831.2901,-177.1768C841.9836,-177.1768 852.8193,-177.1768 862.9609,-177.1768"/>
<polygon fill="#191970" stroke="#191970" points="831.1084,-173.6769 821.1083,-177.1768 831.1083,-180.6769 831.1084,-173.6769"/>
</g>
<!-- Node438 -->
<g id="node11" class="node">
<title>Node438</title>
<g id="a_node11"><a xlink:href="user__main_8h.html#ad6eb800c4d7f9c79df52949d88a18d06" target="_top" xlink:title="mqtt_connected_cb">
<polygon fill="#ffffff" stroke="#000000" points="1006,-167.6768 1006,-186.6768 1110,-186.6768 1110,-167.6768 1006,-167.6768"/>
<text text-anchor="middle" x="1058" y="-174.6768" font-family="Helvetica,sans-Serif" font-size="10.00" fill="#000000">mqtt_connected_cb</text>
</a>
</g>
</g>
<!-- Node437&#45;&gt;Node438 -->
<g id="edge11" class="edge">
<title>Node437&#45;&gt;Node438</title>
<path fill="none" stroke="#191970" d="M974.3475,-177.1768C984.7982,-177.1768 995.5755,-177.1768 1005.7747,-177.1768"/>
<polygon fill="#191970" stroke="#191970" points="974.0391,-173.6769 964.0391,-177.1768 974.0391,-180.6769 974.0391,-173.6769"/>
</g>
<!-- Node439 -->
<g id="node12" class="node">
<title>Node439</title>
<g id="a_node12"><a xlink:href="user__main_8c.html#a245ec00253f410a8804988bf40e1037e" target="_top" xlink:title="sample_mode_timer_func">
<polygon fill="#ffffff" stroke="#000000" points="1273,-129.6768 1273,-148.6768 1405,-148.6768 1405,-129.6768 1273,-129.6768"/>
<text text-anchor="middle" x="1339" y="-136.6768" font-family="Helvetica,sans-Serif" font-size="10.00" fill="#000000">sample_mode_timer_func</text>
</a>
</g>
</g>
<!-- Node438&#45;&gt;Node439 -->
<g id="edge12" class="edge">
<title>Node438&#45;&gt;Node439</title>
<path fill="none" stroke="#191970" d="M1107.4844,-165.4533C1119.9993,-162.7754 1133.4502,-160.1427 1146,-158.1768 1187.9117,-151.6113 1235.3206,-146.906 1272.6622,-143.8202"/>
<polygon fill="#191970" stroke="#191970" points="1106.7037,-162.0412 1097.6835,-167.5988 1108.2007,-168.8793 1106.7037,-162.0412"/>
</g>
<!-- Node441 -->
<g id="node14" class="node">
<title>Node441</title>
<g id="a_node14"><a xlink:href="user__main_8h.html#a7a3bf0cc09d98adc72f4e34d26ce3fa1" target="_top" xlink:title="wifi_changed_cb">
<polygon fill="#ffffff" stroke="#000000" points="1146,-167.6768 1146,-186.6768 1237,-186.6768 1237,-167.6768 1146,-167.6768"/>
<text text-anchor="middle" x="1191.5" y="-174.6768" font-family="Helvetica,sans-Serif" font-size="10.00" fill="#000000">wifi_changed_cb</text>
</a>
</g>
</g>
<!-- Node438&#45;&gt;Node441 -->
<g id="edge15" class="edge">
<title>Node438&#45;&gt;Node441</title>
<path fill="none" stroke="#191970" d="M1120.6328,-177.1768C1129.105,-177.1768 1137.666,-177.1768 1145.767,-177.1768"/>
<polygon fill="#191970" stroke="#191970" points="1120.3796,-173.6769 1110.3796,-177.1768 1120.3795,-180.6769 1120.3796,-173.6769"/>
</g>
<!-- Node440 -->
<g id="node13" class="node">
<title>Node440</title>
<g id="a_node13"><a xlink:href="user__main_8h.html#a3671381db669a16e8f6a4bf3dfb9a441" target="_top" xlink:title="system_init_done">
<polygon fill="#ffffff" stroke="#000000" points="1441,-129.6768 1441,-148.6768 1535,-148.6768 1535,-129.6768 1441,-129.6768"/>
<text text-anchor="middle" x="1488" y="-136.6768" font-family="Helvetica,sans-Serif" font-size="10.00" fill="#000000">system_init_done</text>
</a>
</g>
</g>
<!-- Node439&#45;&gt;Node440 -->
<g id="edge13" class="edge">
<title>Node439&#45;&gt;Node440</title>
<path fill="none" stroke="#191970" d="M1415.361,-139.1768C1424.0092,-139.1768 1432.624,-139.1768 1440.7387,-139.1768"/>
<polygon fill="#191970" stroke="#191970" points="1415.2213,-135.6769 1405.2213,-139.1768 1415.2212,-142.6769 1415.2213,-135.6769"/>
</g>
<!-- Node440&#45;&gt;Node433 -->
<g id="edge14" class="edge">
<title>Node440&#45;&gt;Node433</title>
<path fill="none" stroke="#191970" d="M1545.2886,-128.7606C1554.1598,-127.1477 1562.9515,-125.5492 1570.7383,-124.1334"/>
<polygon fill="#191970" stroke="#191970" points="1544.5009,-125.3464 1535.2883,-130.5789 1545.7531,-132.2335 1544.5009,-125.3464"/>
</g>
<!-- Node441&#45;&gt;Node439 -->
<g id="edge16" class="edge">
<title>Node441&#45;&gt;Node439</title>
<path fill="none" stroke="#191970" d="M1238.5141,-165.0647C1259.0566,-159.7724 1282.7998,-153.6555 1302.0472,-148.6968"/>
<polygon fill="#191970" stroke="#191970" points="1237.5311,-161.7035 1228.7205,-167.5878 1239.2775,-168.4822 1237.5311,-161.7035"/>
</g>
<!-- Node442&#45;&gt;Node429 -->
<g id="edge19" class="edge">
<title>Node442&#45;&gt;Node429</title>
<path fill="none" stroke="#191970" d="M355.0893,-96.8446C342.8383,-96.9837 330.2038,-96.9462 318.16,-96.7319"/>
<polygon fill="#191970" stroke="#191970" points="355.3242,-100.3414 365.2684,-96.6861 355.2151,-93.3423 355.3242,-100.3414"/>
</g>
<!-- Node442&#45;&gt;Node431 -->
<g id="edge20" class="edge">
<title>Node442&#45;&gt;Node431</title>
<path fill="none" stroke="#191970" d="M502.9444,-90.1768C515.211,-90.1768 527.8166,-90.1768 539.7412,-90.1768"/>
<polygon fill="#191970" stroke="#191970" points="502.7426,-86.6769 492.7425,-90.1768 502.7425,-93.6769 502.7426,-86.6769"/>
</g>
<!-- Node443&#45;&gt;Node429 -->
<g id="edge22" class="edge">
<title>Node443&#45;&gt;Node429</title>
<path fill="none" stroke="#191970" d="M384.8891,-59.3185C364.7353,-65.7108 340.4373,-72.6456 318.16,-78.4164"/>
<polygon fill="#191970" stroke="#191970" points="385.9873,-62.6419 394.4228,-56.2316 383.8309,-55.9823 385.9873,-62.6419"/>
</g>
<!-- Node443&#45;&gt;Node431 -->
<g id="edge23" class="edge">
<title>Node443&#45;&gt;Node431</title>
<path fill="none" stroke="#191970" d="M491.8741,-59.0366C517.652,-66.3591 546.4431,-74.5374 568.0493,-80.6748"/>
<polygon fill="#191970" stroke="#191970" points="492.7391,-55.6439 482.1632,-56.2782 490.8263,-62.3776 492.7391,-55.6439"/>
</g>
</g>
</svg>
