<?xml version="1.0" encoding="UTF-8" standalone="no"?>
<!DOCTYPE svg PUBLIC "-//W3C//DTD SVG 1.1//EN"
 "http://www.w3.org/Graphics/SVG/1.1/DTD/svg11.dtd">
<!-- Generated by graphviz version 2.41.20170323.1842 (20170323.1842)
 -->
<!-- Title: en61107_uart_send_en61107_ident Pages: 1 -->
<svg width="948pt" height="513pt"
 viewBox="0.00 0.00 948.00 513.13" xmlns="http://www.w3.org/2000/svg" xmlns:xlink="http://www.w3.org/1999/xlink">
<g id="graph0" class="graph" transform="scale(1 1) rotate(0) translate(4 509.1269)">
<title>en61107_uart_send_en61107_ident</title>
<polygon fill="#ffffff" stroke="transparent" points="-4,4 -4,-509.1269 944,-509.1269 944,4 -4,4"/>
<!-- Node355 -->
<g id="node1" class="node">
<title>Node355</title>
<polygon fill="#bfbfbf" stroke="#000000" points="0,-283.5 0,-313.5 150,-313.5 150,-283.5 0,-283.5"/>
<text text-anchor="start" x="8" y="-301.5" font-family="Helvetica,sans-Serif" font-size="10.00" fill="#000000">en61107_uart_send_en61107</text>
<text text-anchor="middle" x="75" y="-290.5" font-family="Helvetica,sans-Serif" font-size="10.00" fill="#000000">_ident</text>
</g>
<!-- Node356 -->
<g id="node2" class="node">
<title>Node356</title>
<g id="a_node2"><a xlink:href="en61107__request_8c.html#a8376fb3e6dfde4cc59e5fa0574a6e499" target="_top" xlink:title="en61107_delayed_uart\l_change_setting_timer_func">
<polygon fill="#ffffff" stroke="#000000" points="540,-354.5 540,-384.5 682,-384.5 682,-354.5 540,-354.5"/>
<text text-anchor="start" x="548" y="-372.5" font-family="Helvetica,sans-Serif" font-size="10.00" fill="#000000">en61107_delayed_uart</text>
<text text-anchor="middle" x="611" y="-361.5" font-family="Helvetica,sans-Serif" font-size="10.00" fill="#000000">_change_setting_timer_func</text>
</a>
</g>
</g>
<!-- Node355&#45;&gt;Node356 -->
<g id="edge1" class="edge">
<title>Node355&#45;&gt;Node356</title>
<path fill="none" stroke="#191970" d="M98.3618,-313.5649C144.7627,-342.3738 252.8114,-403.9728 354,-421.5 419.6885,-432.8782 440.7544,-442.5819 504,-421.5 522.9737,-415.1754 522.363,-403.9307 540,-394.5 543.9974,-392.3625 548.2151,-390.3453 552.52,-388.455"/>
<polygon fill="#191970" stroke="#191970" points="554.1279,-391.5776 562.0317,-384.5221 551.4531,-385.1088 554.1279,-391.5776"/>
</g>
<!-- Node357 -->
<g id="node3" class="node">
<title>Node357</title>
<g id="a_node3"><a xlink:href="uart_8c.html#a8f941077d51144c4c172f827b4f2072a" target="_top" xlink:title="uart_set_baudrate">
<polygon fill="#ffffff" stroke="#000000" points="718,-278 718,-297 816,-297 816,-278 718,-278"/>
<text text-anchor="middle" x="767" y="-285" font-family="Helvetica,sans-Serif" font-size="10.00" fill="#000000">uart_set_baudrate</text>
</a>
</g>
</g>
<!-- Node355&#45;&gt;Node357 -->
<g id="edge40" class="edge">
<title>Node355&#45;&gt;Node357</title>
<path fill="none" stroke="#191970" d="M86.7545,-283.1411C105.2011,-260.2367 143.2826,-217.5726 186,-196.5 329.2468,-125.8358 380.8717,-148.3297 540,-134.5 602.8741,-129.0357 630.1274,-98.5522 682,-134.5 719.4535,-160.4553 694.7903,-191.2858 718,-230.5 726.6865,-245.1764 739.2739,-259.7229 749.5157,-270.4474"/>
<polygon fill="#191970" stroke="#191970" points="747.28,-273.1657 756.7869,-277.8423 752.2713,-268.2579 747.28,-273.1657"/>
</g>
<!-- Node358 -->
<g id="node4" class="node">
<title>Node358</title>
<g id="a_node4"><a xlink:href="uart_8c.html#a4db93f371dcd92498db4a4c7b82f3380" target="_top" xlink:title="uart_set_stop_bits">
<polygon fill="#ffffff" stroke="#000000" points="718,-360 718,-379 816,-379 816,-360 718,-360"/>
<text text-anchor="middle" x="767" y="-367" font-family="Helvetica,sans-Serif" font-size="10.00" fill="#000000">uart_set_stop_bits</text>
</a>
</g>
</g>
<!-- Node355&#45;&gt;Node358 -->
<g id="edge42" class="edge">
<title>Node355&#45;&gt;Node358</title>
<path fill="none" stroke="#191970" d="M81.9414,-313.5289C96.5216,-343.2166 133.3846,-409.1304 186,-439.5 323.6704,-518.9633 381.4489,-479.1376 540,-490.5 602.9497,-495.0112 625.9976,-519.5988 682,-490.5 723.4098,-468.9835 748.8687,-417.0156 760.1505,-388.69"/>
<polygon fill="#191970" stroke="#191970" points="763.5123,-389.6956 763.784,-379.1043 756.9667,-387.2145 763.5123,-389.6956"/>
</g>
<!-- Node359 -->
<g id="node5" class="node">
<title>Node359</title>
<g id="a_node5"><a xlink:href="en61107__request_8c.html#a22f1fee248eec0eeacf220c69b878a28" target="_top" xlink:title="en61107_receive_timeout\l_timer_func">
<polygon fill="#ffffff" stroke="#000000" points="186,-283.5 186,-313.5 318,-313.5 318,-283.5 186,-283.5"/>
<text text-anchor="start" x="194" y="-301.5" font-family="Helvetica,sans-Serif" font-size="10.00" fill="#000000">en61107_receive_timeout</text>
<text text-anchor="middle" x="252" y="-290.5" font-family="Helvetica,sans-Serif" font-size="10.00" fill="#000000">_timer_func</text>
</a>
</g>
</g>
<!-- Node355&#45;&gt;Node359 -->
<g id="edge4" class="edge">
<title>Node355&#45;&gt;Node359</title>
<path fill="none" stroke="#191970" d="M150.0639,-291.8196C158.5041,-291.7315 167.1112,-291.727 175.5685,-291.8061"/>
<polygon fill="#191970" stroke="#191970" points="175.7425,-295.3087 185.7889,-291.944 175.837,-288.3093 175.7425,-295.3087"/>
</g>
<!-- Node362 -->
<g id="node8" class="node">
<title>Node362</title>
<g id="a_node8"><a xlink:href="uart_8c.html#a6727906afe0321e8ee406028ad41f5e7" target="_top" xlink:title="uart_set_word_length">
<polygon fill="#ffffff" stroke="#000000" points="554.5,-404 554.5,-423 667.5,-423 667.5,-404 554.5,-404"/>
<text text-anchor="middle" x="611" y="-411" font-family="Helvetica,sans-Serif" font-size="10.00" fill="#000000">uart_set_word_length</text>
</a>
</g>
</g>
<!-- Node355&#45;&gt;Node362 -->
<g id="edge43" class="edge">
<title>Node355&#45;&gt;Node362</title>
<path fill="none" stroke="#191970" d="M86.885,-313.6896C105.5021,-336.4007 143.8034,-378.9447 186,-401.5 311.6261,-468.6508 362.7178,-459.6795 504,-441.5 527.298,-438.5021 552.7631,-431.9756 573.004,-425.9774"/>
<polygon fill="#191970" stroke="#191970" points="574.2325,-429.2621 582.7801,-423.002 572.1943,-422.5654 574.2325,-429.2621"/>
</g>
<!-- Node363 -->
<g id="node9" class="node">
<title>Node363</title>
<g id="a_node9"><a xlink:href="uart_8c.html#a67bf1971cc8eb81c79700658c287c7a4" target="_top" xlink:title="uart_set_parity">
<polygon fill="#ffffff" stroke="#000000" points="569.5,-240 569.5,-259 652.5,-259 652.5,-240 569.5,-240"/>
<text text-anchor="middle" x="611" y="-247" font-family="Helvetica,sans-Serif" font-size="10.00" fill="#000000">uart_set_parity</text>
</a>
</g>
</g>
<!-- Node355&#45;&gt;Node363 -->
<g id="edge41" class="edge">
<title>Node355&#45;&gt;Node363</title>
<path fill="none" stroke="#191970" d="M118.2889,-283.4715C172.5641,-265.4955 268.8352,-236.4572 354,-225.5 420.1217,-216.9929 437.7386,-218.16 504,-225.5 525.1086,-227.8383 548.1385,-232.696 567.4071,-237.4334"/>
<polygon fill="#191970" stroke="#191970" points="566.5575,-240.8287 577.1103,-239.8858 568.2728,-234.0421 566.5575,-240.8287"/>
</g>
<!-- Node364 -->
<g id="node10" class="node">
<title>Node364</title>
<g id="a_node10"><a xlink:href="uart_8c.html#a87f1c1c2a25d4336eb804da28ed99f7e" target="_top" xlink:title="uart0_tx_buffer">
<polygon fill="#ffffff" stroke="#000000" points="569,-202 569,-221 653,-221 653,-202 569,-202"/>
<text text-anchor="middle" x="611" y="-209" font-family="Helvetica,sans-Serif" font-size="10.00" fill="#000000">uart0_tx_buffer</text>
</a>
</g>
</g>
<!-- Node355&#45;&gt;Node364 -->
<g id="edge39" class="edge">
<title>Node355&#45;&gt;Node364</title>
<path fill="none" stroke="#191970" d="M92.4,-283.3868C113.1175,-266.3931 149.5217,-239.5959 186,-227.5 314.5389,-184.8775 477.0397,-195.1147 558.8646,-204.348"/>
<polygon fill="#191970" stroke="#191970" points="558.573,-207.8376 568.9119,-205.523 559.3861,-200.885 558.573,-207.8376"/>
</g>
<!-- Node356&#45;&gt;Node357 -->
<g id="edge2" class="edge">
<title>Node356&#45;&gt;Node357</title>
<path fill="none" stroke="#191970" d="M639.6128,-354.4599C668.2206,-339.4225 711.8856,-316.4704 739.9349,-301.7265"/>
<polygon fill="#191970" stroke="#191970" points="741.5811,-304.8153 748.8043,-297.0644 738.3241,-298.6192 741.5811,-304.8153"/>
</g>
<!-- Node356&#45;&gt;Node358 -->
<g id="edge3" class="edge">
<title>Node356&#45;&gt;Node358</title>
<path fill="none" stroke="#191970" d="M682.1524,-369.5C690.7218,-369.5 699.4024,-369.5 707.776,-369.5"/>
<polygon fill="#191970" stroke="#191970" points="707.8096,-373.0001 717.8096,-369.5 707.8096,-366.0001 707.8096,-373.0001"/>
</g>
<!-- Node359&#45;&gt;Node355 -->
<g id="edge7" class="edge">
<title>Node359&#45;&gt;Node355</title>
<path fill="none" stroke="#191970" d="M185.7889,-305.056C177.4148,-305.2047 168.7559,-305.2679 160.1396,-305.2457"/>
<polygon fill="#191970" stroke="#191970" points="160.0864,-301.7454 150.0639,-305.1804 160.041,-308.7452 160.0864,-301.7454"/>
</g>
<!-- Node360 -->
<g id="node6" class="node">
<title>Node360</title>
<g id="a_node6"><a xlink:href="en61107__request_8c.html#a2fa4e9967afddae0c1dedbc914dcee36" target="_top" xlink:title="en61107_meter_wake\l_up_timer_func">
<polygon fill="#ffffff" stroke="#000000" points="371.5,-381.5 371.5,-411.5 486.5,-411.5 486.5,-381.5 371.5,-381.5"/>
<text text-anchor="start" x="379.5" y="-399.5" font-family="Helvetica,sans-Serif" font-size="10.00" fill="#000000">en61107_meter_wake</text>
<text text-anchor="middle" x="429" y="-388.5" font-family="Helvetica,sans-Serif" font-size="10.00" fill="#000000">_up_timer_func</text>
</a>
</g>
</g>
<!-- Node359&#45;&gt;Node360 -->
<g id="edge5" class="edge">
<title>Node359&#45;&gt;Node360</title>
<path fill="none" stroke="#191970" d="M269.2942,-313.7229C288.7307,-330.1667 321.7941,-356.1945 354,-372.5 357.7049,-374.3757 361.5864,-376.1442 365.5506,-377.8045"/>
<polygon fill="#191970" stroke="#191970" points="364.3187,-381.0809 374.906,-381.4817 366.8795,-374.5661 364.3187,-381.0809"/>
</g>
<!-- Node361 -->
<g id="node7" class="node">
<title>Node361</title>
<g id="a_node7"><a xlink:href="en61107__request_8c.html#a74c2d949e6bb3b65cdf794a0643dd67d" target="_top" xlink:title="en61107_uart_send_inst\l_values">
<polygon fill="#ffffff" stroke="#000000" points="365.5,-234.5 365.5,-264.5 492.5,-264.5 492.5,-234.5 365.5,-234.5"/>
<text text-anchor="start" x="373.5" y="-252.5" font-family="Helvetica,sans-Serif" font-size="10.00" fill="#000000">en61107_uart_send_inst</text>
<text text-anchor="middle" x="429" y="-241.5" font-family="Helvetica,sans-Serif" font-size="10.00" fill="#000000">_values</text>
</a>
</g>
</g>
<!-- Node359&#45;&gt;Node361 -->
<g id="edge8" class="edge">
<title>Node359&#45;&gt;Node361</title>
<path fill="none" stroke="#191970" d="M286.5476,-283.455C306.1775,-276.9548 331.5341,-269.5407 355.4018,-263.2104"/>
<polygon fill="#191970" stroke="#191970" points="356.3725,-266.5744 365.1634,-260.6609 354.6035,-259.8016 356.3725,-266.5744"/>
</g>
<!-- Node366 -->
<g id="node12" class="node">
<title>Node366</title>
<g id="a_node12"><a xlink:href="en61107__request_8c.html#afdb1795bdd4212fc7e028a9e5668fab4" target="_top" xlink:title="en61107_uart_send_standard\l_data_1">
<polygon fill="#ffffff" stroke="#000000" points="354,-332.5 354,-362.5 504,-362.5 504,-332.5 354,-332.5"/>
<text text-anchor="start" x="362" y="-350.5" font-family="Helvetica,sans-Serif" font-size="10.00" fill="#000000">en61107_uart_send_standard</text>
<text text-anchor="middle" x="429" y="-339.5" font-family="Helvetica,sans-Serif" font-size="10.00" fill="#000000">_data_1</text>
</a>
</g>
</g>
<!-- Node359&#45;&gt;Node366 -->
<g id="edge17" class="edge">
<title>Node359&#45;&gt;Node366</title>
<path fill="none" stroke="#191970" d="M318.16,-310.2604C340.4373,-316.0311 364.7353,-322.966 384.8891,-329.3583"/>
<polygon fill="#191970" stroke="#191970" points="383.8309,-332.6945 394.4228,-332.4452 385.9873,-326.0349 383.8309,-332.6945"/>
</g>
<!-- Node367 -->
<g id="node13" class="node">
<title>Node367</title>
<g id="a_node13"><a xlink:href="en61107__request_8c.html#a10b80328698f459ae2251fe146cdc375" target="_top" xlink:title="en61107_uart_send_standard\l_data_2">
<polygon fill="#ffffff" stroke="#000000" points="354,-283.5 354,-313.5 504,-313.5 504,-283.5 354,-283.5"/>
<text text-anchor="start" x="362" y="-301.5" font-family="Helvetica,sans-Serif" font-size="10.00" fill="#000000">en61107_uart_send_standard</text>
<text text-anchor="middle" x="429" y="-290.5" font-family="Helvetica,sans-Serif" font-size="10.00" fill="#000000">_data_2</text>
</a>
</g>
</g>
<!-- Node359&#45;&gt;Node367 -->
<g id="edge25" class="edge">
<title>Node359&#45;&gt;Node367</title>
<path fill="none" stroke="#191970" d="M318.16,-291.9449C326.5585,-291.7955 335.2441,-291.732 343.8867,-291.7544"/>
<polygon fill="#191970" stroke="#191970" points="343.9701,-295.2549 353.9927,-291.8202 344.0157,-288.2551 343.9701,-295.2549"/>
</g>
<!-- Node368 -->
<g id="node14" class="node">
<title>Node368</title>
<g id="a_node14"><a xlink:href="led_8c.html#af6d361c98a60a68683d2436f7ef9159a" target="_top" xlink:title="led_blink">
<polygon fill="#ffffff" stroke="#000000" points="401,-50 401,-69 457,-69 457,-50 401,-50"/>
<text text-anchor="middle" x="429" y="-57" font-family="Helvetica,sans-Serif" font-size="10.00" fill="#000000">led_blink</text>
</a>
</g>
</g>
<!-- Node359&#45;&gt;Node368 -->
<g id="edge33" class="edge">
<title>Node359&#45;&gt;Node368</title>
<path fill="none" stroke="#191970" d="M263.3414,-283.1859C294.6783,-240.8722 382.3353,-122.5106 415.7931,-77.3331"/>
<polygon fill="#191970" stroke="#191970" points="418.7614,-79.2059 421.9003,-69.0866 413.1361,-75.0398 418.7614,-79.2059"/>
</g>
<!-- Node360&#45;&gt;Node355 -->
<g id="edge6" class="edge">
<title>Node360&#45;&gt;Node355</title>
<path fill="none" stroke="#191970" d="M374.6921,-381.4656C311.294,-363.9147 206.5586,-334.9202 139.1951,-316.2715"/>
<polygon fill="#191970" stroke="#191970" points="140.108,-312.8927 129.5367,-313.5977 138.2404,-319.6389 140.108,-312.8927"/>
</g>
<!-- Node361&#45;&gt;Node356 -->
<g id="edge16" class="edge">
<title>Node361&#45;&gt;Node356</title>
<path fill="none" stroke="#191970" d="M483.0136,-264.5498C490.2741,-267.4159 497.4637,-270.7236 504,-274.5 537.9079,-294.0906 570.6292,-325.5771 590.7678,-346.8803"/>
<polygon fill="#191970" stroke="#191970" points="588.225,-349.2856 597.5968,-354.2272 593.3522,-344.5198 588.225,-349.2856"/>
</g>
<!-- Node361&#45;&gt;Node357 -->
<g id="edge9" class="edge">
<title>Node361&#45;&gt;Node357</title>
<path fill="none" stroke="#191970" d="M441.4113,-234.3582C460.1319,-212.8533 497.9092,-174.4198 540,-159.5 599.4846,-138.4146 628.2215,-126.4715 682,-159.5 712.1483,-178.0158 698.3257,-201.0947 718,-230.5 727.5993,-244.8472 740.3614,-259.5865 750.4547,-270.482"/>
<polygon fill="#191970" stroke="#191970" points="748.1432,-273.1317 757.5562,-277.9943 753.2301,-268.323 748.1432,-273.1317"/>
</g>
<!-- Node361&#45;&gt;Node358 -->
<g id="edge12" class="edge">
<title>Node361&#45;&gt;Node358</title>
<path fill="none" stroke="#191970" d="M450.2943,-234.4036C496.9394,-203.3572 609.7316,-139.5354 682,-192.5 724.8558,-223.9085 693.3013,-259.4565 718,-306.5 726.792,-323.2462 740.1392,-340.0454 750.6842,-352.08"/>
<polygon fill="#191970" stroke="#191970" points="748.1545,-354.5012 757.4465,-359.5913 753.3568,-349.8176 748.1545,-354.5012"/>
</g>
<!-- Node361&#45;&gt;Node359 -->
<g id="edge13" class="edge">
<title>Node361&#45;&gt;Node359</title>
<path fill="none" stroke="#191970" d="M394.4228,-264.5548C375.4517,-270.8359 351.1383,-277.9691 327.9903,-284.1528"/>
<polygon fill="#191970" stroke="#191970" points="326.94,-280.81 318.16,-286.7396 328.7215,-287.5795 326.94,-280.81"/>
</g>
<!-- Node361&#45;&gt;Node362 -->
<g id="edge10" class="edge">
<title>Node361&#45;&gt;Node362</title>
<path fill="none" stroke="#191970" d="M491.2741,-264.6547C495.9405,-267.4066 500.2728,-270.6581 504,-274.5 542.772,-314.4647 500.0414,-355.7217 540,-394.5 541.674,-396.1246 543.471,-397.614 545.3649,-398.9793"/>
<polygon fill="#191970" stroke="#191970" points="543.8183,-402.1308 554.2081,-404.2047 547.3793,-396.1042 543.8183,-402.1308"/>
</g>
<!-- Node361&#45;&gt;Node363 -->
<g id="edge11" class="edge">
<title>Node361&#45;&gt;Node363</title>
<path fill="none" stroke="#191970" d="M492.6548,-249.5C514.4022,-249.5 538.4468,-249.5 559.1506,-249.5"/>
<polygon fill="#191970" stroke="#191970" points="559.3312,-253.0001 569.3311,-249.5 559.3311,-246.0001 559.3312,-253.0001"/>
</g>
<!-- Node361&#45;&gt;Node364 -->
<g id="edge14" class="edge">
<title>Node361&#45;&gt;Node364</title>
<path fill="none" stroke="#191970" d="M492.6548,-236.2094C514.3254,-231.6848 538.2768,-226.684 558.9309,-222.3716"/>
<polygon fill="#191970" stroke="#191970" points="559.7074,-225.785 568.7809,-220.315 558.2766,-218.9328 559.7074,-225.785"/>
</g>
<!-- Node365 -->
<g id="node11" class="node">
<title>Node365</title>
<g id="a_node11"><a xlink:href="uart_8c.html#a40bca7ca9b269f93bc9f17924a38fbe0" target="_top" xlink:title="uart_tx_one_char">
<polygon fill="#ffffff" stroke="#000000" points="720,-202 720,-221 814,-221 814,-202 720,-202"/>
<text text-anchor="middle" x="767" y="-209" font-family="Helvetica,sans-Serif" font-size="10.00" fill="#000000">uart_tx_one_char</text>
</a>
</g>
</g>
<!-- Node364&#45;&gt;Node365 -->
<g id="edge15" class="edge">
<title>Node364&#45;&gt;Node365</title>
<path fill="none" stroke="#191970" d="M653.2158,-211.5C670.5747,-211.5 690.9525,-211.5 709.6299,-211.5"/>
<polygon fill="#191970" stroke="#191970" points="709.8013,-215.0001 719.8013,-211.5 709.8013,-208.0001 709.8013,-215.0001"/>
</g>
<!-- Node366&#45;&gt;Node356 -->
<g id="edge24" class="edge">
<title>Node366&#45;&gt;Node356</title>
<path fill="none" stroke="#191970" d="M504.0771,-356.5753C512.5929,-357.6046 521.3007,-358.6572 529.8896,-359.6954"/>
<polygon fill="#191970" stroke="#191970" points="529.5512,-363.1799 539.899,-360.9054 530.3913,-356.2305 529.5512,-363.1799"/>
</g>
<!-- Node366&#45;&gt;Node357 -->
<g id="edge18" class="edge">
<title>Node366&#45;&gt;Node357</title>
<path fill="none" stroke="#191970" d="M488.0437,-362.5779C493.7407,-365.3568 499.1822,-368.6353 504,-372.5 528.2581,-391.9591 512.9382,-417.1779 540,-432.5 594.9193,-463.5948 629.1599,-467.01 682,-432.5 715.3244,-410.7357 697.6264,-384.6923 718,-350.5 727.7968,-334.0584 741.2865,-317.0187 751.6321,-304.8128"/>
<polygon fill="#191970" stroke="#191970" points="754.3188,-307.0566 758.2081,-297.2014 749.0219,-302.4802 754.3188,-307.0566"/>
</g>
<!-- Node366&#45;&gt;Node358 -->
<g id="edge21" class="edge">
<title>Node366&#45;&gt;Node358</title>
<path fill="none" stroke="#191970" d="M490.2272,-362.5645C495.2355,-365.336 499.9274,-368.6167 504,-372.5 536.0771,-403.086 503.4377,-440.4471 540,-465.5 592.0618,-501.1733 624.4527,-491.4098 682,-465.5 717.1669,-449.6667 743.665,-411.2959 757.1211,-388.1441"/>
<polygon fill="#191970" stroke="#191970" points="760.26,-389.7017 762.0768,-379.2638 754.1473,-386.2905 760.26,-389.7017"/>
</g>
<!-- Node366&#45;&gt;Node359 -->
<g id="edge22" class="edge">
<title>Node366&#45;&gt;Node359</title>
<path fill="none" stroke="#191970" d="M353.889,-333.3874C334.3093,-328.1706 313.8346,-322.2564 296.4185,-316.7393"/>
<polygon fill="#191970" stroke="#191970" points="297.1394,-313.2939 286.5476,-313.545 294.9842,-319.9539 297.1394,-313.2939"/>
</g>
<!-- Node366&#45;&gt;Node362 -->
<g id="edge19" class="edge">
<title>Node366&#45;&gt;Node362</title>
<path fill="none" stroke="#191970" d="M479.6391,-362.631C487.9055,-365.5968 496.2834,-368.9128 504,-372.5 521.0037,-380.4045 522.7659,-387.1115 540,-394.5 545.6953,-396.9417 551.7848,-399.1407 557.9139,-401.1013"/>
<polygon fill="#191970" stroke="#191970" points="556.9431,-404.4641 567.5272,-403.9865 558.9554,-397.7595 556.9431,-404.4641"/>
</g>
<!-- Node366&#45;&gt;Node363 -->
<g id="edge20" class="edge">
<title>Node366&#45;&gt;Node363</title>
<path fill="none" stroke="#191970" d="M482.6253,-332.4883C489.9443,-329.822 497.2537,-326.8205 504,-323.5 536.8032,-307.3545 570.9041,-282.0397 591.5458,-265.607"/>
<polygon fill="#191970" stroke="#191970" points="593.9458,-268.1676 599.5251,-259.1609 589.5468,-262.7225 593.9458,-268.1676"/>
</g>
<!-- Node366&#45;&gt;Node364 -->
<g id="edge23" class="edge">
<title>Node366&#45;&gt;Node364</title>
<path fill="none" stroke="#191970" d="M491.6694,-332.4743C496.1339,-329.9359 500.3182,-326.9686 504,-323.5 536.2608,-293.1078 507.0158,-260.1056 540,-230.5 545.4839,-225.5778 552.1068,-221.9094 559.0757,-219.1798"/>
<polygon fill="#191970" stroke="#191970" points="560.3119,-222.4577 568.7186,-216.0096 558.1257,-215.8078 560.3119,-222.4577"/>
</g>
<!-- Node367&#45;&gt;Node356 -->
<g id="edge32" class="edge">
<title>Node367&#45;&gt;Node356</title>
<path fill="none" stroke="#191970" d="M476.4576,-313.5487C485.6521,-316.6808 495.1705,-320.0755 504,-323.5 520.3243,-329.8313 523.9351,-332.5367 540,-339.5 548.207,-343.0573 556.9687,-346.8022 565.436,-350.3943"/>
<polygon fill="#191970" stroke="#191970" points="564.2521,-353.6937 574.8255,-354.3667 566.9796,-347.2469 564.2521,-353.6937"/>
</g>
<!-- Node367&#45;&gt;Node357 -->
<g id="edge26" class="edge">
<title>Node367&#45;&gt;Node357</title>
<path fill="none" stroke="#191970" d="M504.0132,-296.0587C565.3489,-294.0626 650.9027,-291.2783 707.5688,-289.4342"/>
<polygon fill="#191970" stroke="#191970" points="707.9202,-292.9247 717.8011,-289.1011 707.6925,-285.9284 707.9202,-292.9247"/>
</g>
<!-- Node367&#45;&gt;Node358 -->
<g id="edge29" class="edge">
<title>Node367&#45;&gt;Node358</title>
<path fill="none" stroke="#191970" d="M504.099,-310.5966C554.6306,-319.1899 622.6165,-331.6312 682,-345.5 696.4188,-348.8674 712.0537,-353.1092 725.9359,-357.0865"/>
<polygon fill="#191970" stroke="#191970" points="725.1127,-360.492 735.692,-359.9196 727.0648,-353.7697 725.1127,-360.492"/>
</g>
<!-- Node367&#45;&gt;Node359 -->
<g id="edge30" class="edge">
<title>Node367&#45;&gt;Node359</title>
<path fill="none" stroke="#191970" d="M353.9927,-305.1798C345.5275,-305.2685 336.8936,-305.2731 328.4108,-305.1937"/>
<polygon fill="#191970" stroke="#191970" points="328.2064,-301.6907 318.16,-305.0551 328.1117,-308.6901 328.2064,-301.6907"/>
</g>
<!-- Node367&#45;&gt;Node362 -->
<g id="edge27" class="edge">
<title>Node367&#45;&gt;Node362</title>
<path fill="none" stroke="#191970" d="M489.0806,-313.6161C494.4466,-316.3808 499.5306,-319.6457 504,-323.5 530.7931,-346.6059 512.5229,-372.2119 540,-394.5 542.0811,-396.1881 544.2985,-397.727 546.6159,-399.13"/>
<polygon fill="#191970" stroke="#191970" points="545.4734,-402.4759 555.9728,-403.8949 548.65,-396.2381 545.4734,-402.4759"/>
</g>
<!-- Node367&#45;&gt;Node363 -->
<g id="edge28" class="edge">
<title>Node367&#45;&gt;Node363</title>
<path fill="none" stroke="#191970" d="M485.0911,-283.3986C511.0698,-276.4043 541.5224,-268.2055 565.971,-261.6232"/>
<polygon fill="#191970" stroke="#191970" points="566.9609,-264.9814 575.7071,-259.0019 565.141,-258.2221 566.9609,-264.9814"/>
</g>
<!-- Node367&#45;&gt;Node364 -->
<g id="edge31" class="edge">
<title>Node367&#45;&gt;Node364</title>
<path fill="none" stroke="#191970" d="M487.8824,-283.3444C493.547,-280.813 499.0265,-277.8835 504,-274.5 524.891,-260.2878 518.7725,-244.2044 540,-230.5 545.8341,-226.7335 552.3964,-223.7098 559.1136,-221.2832"/>
<polygon fill="#191970" stroke="#191970" points="560.5309,-224.5053 568.9992,-218.1383 558.4087,-217.8347 560.5309,-224.5053"/>
</g>
<!-- Node369 -->
<g id="node15" class="node">
<title>Node369</title>
<g id="a_node15"><a xlink:href="led_8c.html#a0a23edee5e1db0cd2928c18a42ffe96f" target="_top" xlink:title="led_on">
<polygon fill="#ffffff" stroke="#000000" points="743.5,-49 743.5,-68 790.5,-68 790.5,-49 743.5,-49"/>
<text text-anchor="middle" x="767" y="-56" font-family="Helvetica,sans-Serif" font-size="10.00" fill="#000000">led_on</text>
</a>
</g>
</g>
<!-- Node368&#45;&gt;Node369 -->
<g id="edge34" class="edge">
<title>Node368&#45;&gt;Node369</title>
<path fill="none" stroke="#191970" d="M457.2363,-59.4165C519.0075,-59.2337 665.9459,-58.799 732.8119,-58.6011"/>
<polygon fill="#191970" stroke="#191970" points="733.2167,-62.1001 743.2062,-58.5704 733.1959,-55.1001 733.2167,-62.1001"/>
</g>
<!-- Node371 -->
<g id="node17" class="node">
<title>Node371</title>
<g id="a_node17"><a xlink:href="led_8c.html#af6e74a041f4ed0ac79f31a03c99733de" target="_top" xlink:title="led_single_blink_off\l_timer_func">
<polygon fill="#ffffff" stroke="#000000" points="559,-.5 559,-30.5 663,-30.5 663,-.5 559,-.5"/>
<text text-anchor="start" x="567" y="-18.5" font-family="Helvetica,sans-Serif" font-size="10.00" fill="#000000">led_single_blink_off</text>
<text text-anchor="middle" x="611" y="-7.5" font-family="Helvetica,sans-Serif" font-size="10.00" fill="#000000">_timer_func</text>
</a>
</g>
</g>
<!-- Node368&#45;&gt;Node371 -->
<g id="edge36" class="edge">
<title>Node368&#45;&gt;Node371</title>
<path fill="none" stroke="#191970" d="M457.0386,-52.7214C481.4217,-46.8266 517.6337,-38.0721 548.8134,-30.5341"/>
<polygon fill="#191970" stroke="#191970" points="549.841,-33.8866 558.7385,-28.1346 548.196,-27.0826 549.841,-33.8866"/>
</g>
<!-- Node370 -->
<g id="node16" class="node">
<title>Node370</title>
<g id="a_node16"><a xlink:href="gpio_8h.html#a83bac74ff5b2158e0c86da73ada29718" target="_top" xlink:title="gpio_output_set">
<polygon fill="#ffffff" stroke="#000000" points="852,-27 852,-46 940,-46 940,-27 852,-27"/>
<text text-anchor="middle" x="896" y="-34" font-family="Helvetica,sans-Serif" font-size="10.00" fill="#000000">gpio_output_set</text>
</a>
</g>
</g>
<!-- Node369&#45;&gt;Node370 -->
<g id="edge35" class="edge">
<title>Node369&#45;&gt;Node370</title>
<path fill="none" stroke="#191970" d="M790.6606,-54.4649C804.9494,-52.028 823.7807,-48.8165 841.5653,-45.7834"/>
<polygon fill="#191970" stroke="#191970" points="842.6041,-49.1569 851.8734,-44.0255 841.4273,-42.2565 842.6041,-49.1569"/>
</g>
<!-- Node372 -->
<g id="node18" class="node">
<title>Node372</title>
<g id="a_node18"><a xlink:href="led_8c.html#a7ef0b27e501c77cd25b8bb7a2de6d8bd" target="_top" xlink:title="led_off">
<polygon fill="#ffffff" stroke="#000000" points="743.5,-8 743.5,-27 790.5,-27 790.5,-8 743.5,-8"/>
<text text-anchor="middle" x="767" y="-15" font-family="Helvetica,sans-Serif" font-size="10.00" fill="#000000">led_off</text>
</a>
</g>
</g>
<!-- Node371&#45;&gt;Node372 -->
<g id="edge37" class="edge">
<title>Node371&#45;&gt;Node372</title>
<path fill="none" stroke="#191970" d="M663.3797,-16.1715C686.4448,-16.4672 712.8722,-16.8061 733.2651,-17.0675"/>
<polygon fill="#191970" stroke="#191970" points="733.2854,-20.568 743.3295,-17.1965 733.3752,-13.5685 733.2854,-20.568"/>
</g>
<!-- Node372&#45;&gt;Node370 -->
<g id="edge38" class="edge">
<title>Node372&#45;&gt;Node370</title>
<path fill="none" stroke="#191970" d="M790.6606,-20.9849C804.9494,-23.0894 823.7807,-25.863 841.5653,-28.4825"/>
<polygon fill="#191970" stroke="#191970" points="841.4701,-32.0061 851.8734,-30.0007 842.4901,-25.0809 841.4701,-32.0061"/>
</g>
</g>
</svg>
