<?xml version="1.0" encoding="UTF-8" standalone="no"?>
<!DOCTYPE svg PUBLIC "-//W3C//DTD SVG 1.1//EN"
 "http://www.w3.org/Graphics/SVG/1.1/DTD/svg11.dtd">
<!-- Generated by graphviz version 2.41.20170323.1842 (20170323.1842)
 -->
<!-- Title: espconn_regist_sentcb Pages: 1 -->
<svg width="665pt" height="66pt"
 viewBox="0.00 0.00 665.00 66.00" xmlns="http://www.w3.org/2000/svg" xmlns:xlink="http://www.w3.org/1999/xlink">
<g id="graph0" class="graph" transform="scale(1 1) rotate(0) translate(4 62)">
<title>espconn_regist_sentcb</title>
<polygon fill="#ffffff" stroke="transparent" points="-4,4 -4,-62 661,-62 661,4 -4,4"/>
<!-- Node174 -->
<g id="node1" class="node">
<title>Node174</title>
<polygon fill="#bfbfbf" stroke="#000000" points="0,-19.5 0,-38.5 119,-38.5 119,-19.5 0,-19.5"/>
<text text-anchor="middle" x="59.5" y="-26.5" font-family="Helvetica,sans-Serif" font-size="10.00" fill="#000000">espconn_regist_sentcb</text>
</g>
<!-- Node175 -->
<g id="node2" class="node">
<title>Node175</title>
<g id="a_node2"><a xlink:href="$httpd_8c.html#a394ef39b684f0f7c1cf013dcb2b8300b" xlink:title="httpdConnectCb">
<polygon fill="#ffffff" stroke="#000000" points="178,-38.5 178,-57.5 267,-57.5 267,-38.5 178,-38.5"/>
<text text-anchor="middle" x="222.5" y="-45.5" font-family="Helvetica,sans-Serif" font-size="10.00" fill="#000000">httpdConnectCb</text>
</a>
</g>
</g>
<!-- Node174&#45;&gt;Node175 -->
<g id="edge1" class="edge">
<title>Node174&#45;&gt;Node175</title>
<path fill="none" stroke="#191970" d="M129.3804,-37.1456C145.7914,-39.0585 162.8441,-41.0462 177.8029,-42.7899"/>
<polygon fill="#191970" stroke="#191970" points="129.6076,-33.6484 119.2696,-35.967 128.7971,-40.6014 129.6076,-33.6484"/>
</g>
<!-- Node178 -->
<g id="node5" class="node">
<title>Node178</title>
<g id="a_node5"><a xlink:href="$mqtt_8c.html#a36ecd969af1b9c87856f01be064a98cc" xlink:title="Tcp client connect success callback function. ">
<polygon fill="#ffffff" stroke="#000000" points="155,-.5 155,-19.5 290,-19.5 290,-.5 155,-.5"/>
<text text-anchor="middle" x="222.5" y="-7.5" font-family="Helvetica,sans-Serif" font-size="10.00" fill="#000000">mqtt_tcpclient_connect_cb</text>
</a>
</g>
</g>
<!-- Node174&#45;&gt;Node178 -->
<g id="edge4" class="edge">
<title>Node174&#45;&gt;Node178</title>
<path fill="none" stroke="#191970" d="M129.4088,-20.8511C137.8094,-19.8719 146.3778,-18.8731 154.747,-17.8976"/>
<polygon fill="#191970" stroke="#191970" points="128.7971,-17.3986 119.2696,-22.033 129.6076,-24.3516 128.7971,-17.3986"/>
</g>
<!-- Node176 -->
<g id="node3" class="node">
<title>Node176</title>
<g id="a_node3"><a xlink:href="$httpd_8h.html#a74eb356c950228c2f024f081f7beb830" xlink:title="httpdInit">
<polygon fill="#ffffff" stroke="#000000" points="344,-38.5 344,-57.5 396,-57.5 396,-38.5 344,-38.5"/>
<text text-anchor="middle" x="370" y="-45.5" font-family="Helvetica,sans-Serif" font-size="10.00" fill="#000000">httpdInit</text>
</a>
</g>
</g>
<!-- Node175&#45;&gt;Node176 -->
<g id="edge2" class="edge">
<title>Node175&#45;&gt;Node176</title>
<path fill="none" stroke="#191970" d="M277.4044,-48C300.1794,-48 325.5246,-48 343.9324,-48"/>
<polygon fill="#191970" stroke="#191970" points="277.1552,-44.5001 267.1551,-48 277.1551,-51.5001 277.1552,-44.5001"/>
</g>
<!-- Node177 -->
<g id="node4" class="node">
<title>Node177</title>
<g id="a_node4"><a xlink:href="$httpd__user__init_8h.html#a6abf56883c8e03334f42bfb79aa8b095" xlink:title="httpd_user_init">
<polygon fill="#ffffff" stroke="#000000" points="450,-38.5 450,-57.5 532,-57.5 532,-38.5 450,-38.5"/>
<text text-anchor="middle" x="491" y="-45.5" font-family="Helvetica,sans-Serif" font-size="10.00" fill="#000000">httpd_user_init</text>
</a>
</g>
</g>
<!-- Node176&#45;&gt;Node177 -->
<g id="edge3" class="edge">
<title>Node176&#45;&gt;Node177</title>
<path fill="none" stroke="#191970" d="M406.6449,-48C420.1887,-48 435.6316,-48 449.5702,-48"/>
<polygon fill="#191970" stroke="#191970" points="406.2552,-44.5001 396.2552,-48 406.2552,-51.5001 406.2552,-44.5001"/>
</g>
<!-- Node179 -->
<g id="node6" class="node">
<title>Node179</title>
<g id="a_node6"><a xlink:href="$mqtt_8c.html#ad34b681cb2f7473d8fc786c7ed468db5" xlink:title="Begin connect to MQTT broker. ">
<polygon fill="#ffffff" stroke="#000000" points="326,-.5 326,-19.5 414,-19.5 414,-.5 326,-.5"/>
<text text-anchor="middle" x="370" y="-7.5" font-family="Helvetica,sans-Serif" font-size="10.00" fill="#000000">MQTT_Connect</text>
</a>
</g>
</g>
<!-- Node178&#45;&gt;Node179 -->
<g id="edge5" class="edge">
<title>Node178&#45;&gt;Node179</title>
<path fill="none" stroke="#191970" d="M300.4528,-10C309.1756,-10 317.8197,-10 325.895,-10"/>
<polygon fill="#191970" stroke="#191970" points="300.2063,-6.5001 290.2062,-10 300.2062,-13.5001 300.2063,-6.5001"/>
</g>
<!-- Node180 -->
<g id="node7" class="node">
<title>Node180</title>
<g id="a_node7"><a xlink:href="$mqtt_8c.html#a9d88fa6efb9163d4dbf9dc750a8d4ed0" xlink:title="MQTT_Task">
<polygon fill="#ffffff" stroke="#000000" points="455,-.5 455,-19.5 527,-19.5 527,-.5 455,-.5"/>
<text text-anchor="middle" x="491" y="-7.5" font-family="Helvetica,sans-Serif" font-size="10.00" fill="#000000">MQTT_Task</text>
</a>
</g>
</g>
<!-- Node179&#45;&gt;Node180 -->
<g id="edge6" class="edge">
<title>Node179&#45;&gt;Node180</title>
<path fill="none" stroke="#191970" d="M424.2334,-10C434.5681,-10 445.1495,-10 454.7537,-10"/>
<polygon fill="#191970" stroke="#191970" points="424.0261,-6.5001 414.0261,-10 424.026,-13.5001 424.0261,-6.5001"/>
</g>
<!-- Node181 -->
<g id="node8" class="node">
<title>Node181</title>
<g id="a_node8"><a xlink:href="$mqtt_8c.html#a25cb7ac079d1d119250dac075c45acf1" xlink:title="MQTT initialization mqtt client function. ">
<polygon fill="#ffffff" stroke="#000000" points="568,-.5 568,-19.5 657,-19.5 657,-.5 568,-.5"/>
<text text-anchor="middle" x="612.5" y="-7.5" font-family="Helvetica,sans-Serif" font-size="10.00" fill="#000000">MQTT_InitClient</text>
</a>
</g>
</g>
<!-- Node180&#45;&gt;Node181 -->
<g id="edge7" class="edge">
<title>Node180&#45;&gt;Node181</title>
<path fill="none" stroke="#191970" d="M537.2693,-10C547.2426,-10 557.7687,-10 567.6853,-10"/>
<polygon fill="#191970" stroke="#191970" points="537.1251,-6.5001 527.125,-10 537.125,-13.5001 537.1251,-6.5001"/>
</g>
</g>
</svg>
