<?xml version="1.0" encoding="UTF-8" standalone="no"?>
<!DOCTYPE svg PUBLIC "-//W3C//DTD SVG 1.1//EN"
 "http://www.w3.org/Graphics/SVG/1.1/DTD/svg11.dtd">
<!-- Generated by graphviz version 2.41.20170323.1842 (20170323.1842)
 -->
<!-- Title: espconn_delete Pages: 1 -->
<svg width="647pt" height="180pt"
 viewBox="0.00 0.00 647.00 180.00" xmlns="http://www.w3.org/2000/svg" xmlns:xlink="http://www.w3.org/1999/xlink">
<g id="graph0" class="graph" transform="scale(1 1) rotate(0) translate(4 176)">
<title>espconn_delete</title>
<polygon fill="#ffffff" stroke="transparent" points="-4,4 -4,-176 643,-176 643,4 -4,4"/>
<!-- Node24 -->
<g id="node1" class="node">
<title>Node24</title>
<polygon fill="#bfbfbf" stroke="#000000" points="0,-114.5 0,-133.5 87,-133.5 87,-114.5 0,-114.5"/>
<text text-anchor="middle" x="43.5" y="-121.5" font-family="Helvetica,sans-Serif" font-size="10.00" fill="#000000">espconn_delete</text>
</g>
<!-- Node25 -->
<g id="node2" class="node">
<title>Node25</title>
<g id="a_node2"><a xlink:href="$captdns_8h.html#aa94930b306da4c43c4325612a8a538db" xlink:title="captdnsStop">
<polygon fill="#ffffff" stroke="#000000" points="142.5,-152.5 142.5,-171.5 214.5,-171.5 214.5,-152.5 142.5,-152.5"/>
<text text-anchor="middle" x="178.5" y="-159.5" font-family="Helvetica,sans-Serif" font-size="10.00" fill="#000000">captdnsStop</text>
</a>
</g>
</g>
<!-- Node24&#45;&gt;Node25 -->
<g id="edge1" class="edge">
<title>Node24&#45;&gt;Node25</title>
<path fill="none" stroke="#191970" d="M87.2625,-136.3183C105.8106,-141.5393 127.0991,-147.5316 144.4447,-152.4141"/>
<polygon fill="#191970" stroke="#191970" points="88.1405,-132.9295 77.5662,-133.589 86.2438,-139.6677 88.1405,-132.9295"/>
</g>
<!-- Node26 -->
<g id="node3" class="node">
<title>Node26</title>
<g id="a_node3"><a xlink:href="$httpd_8h.html#afec8778692d2ecc547295eb197fa6fcd" xlink:title="httpdStop">
<polygon fill="#ffffff" stroke="#000000" points="149,-114.5 149,-133.5 208,-133.5 208,-114.5 149,-114.5"/>
<text text-anchor="middle" x="178.5" y="-121.5" font-family="Helvetica,sans-Serif" font-size="10.00" fill="#000000">httpdStop</text>
</a>
</g>
</g>
<!-- Node24&#45;&gt;Node26 -->
<g id="edge2" class="edge">
<title>Node24&#45;&gt;Node26</title>
<path fill="none" stroke="#191970" d="M97.4816,-124C115.0362,-124 133.8628,-124 148.9454,-124"/>
<polygon fill="#191970" stroke="#191970" points="97.3307,-120.5001 87.3306,-124 97.3306,-127.5001 97.3307,-120.5001"/>
</g>
<!-- Node28 -->
<g id="node5" class="node">
<title>Node28</title>
<g id="a_node5"><a xlink:href="$mqtt_8c.html#a21ab01c5c7342eb954bdd128a5f4244b" xlink:title="Delete tcp client and free all memory. ">
<polygon fill="#ffffff" stroke="#000000" points="123,-57.5 123,-76.5 234,-76.5 234,-57.5 123,-57.5"/>
<text text-anchor="middle" x="178.5" y="-64.5" font-family="Helvetica,sans-Serif" font-size="10.00" fill="#000000">mqtt_tcpclient_delete</text>
</a>
</g>
</g>
<!-- Node24&#45;&gt;Node28 -->
<g id="edge5" class="edge">
<title>Node24&#45;&gt;Node28</title>
<path fill="none" stroke="#191970" d="M75.4246,-110.5207C100.1546,-100.0792 133.8044,-85.8715 155.8303,-76.5716"/>
<polygon fill="#191970" stroke="#191970" points="73.947,-107.3453 66.096,-114.4595 76.6699,-113.7941 73.947,-107.3453"/>
</g>
<!-- Node27 -->
<g id="node4" class="node">
<title>Node27</title>
<g id="a_node4"><a xlink:href="$httpd_8c.html#aecb06813eefe322c349651aa5e1316f5" xlink:title="httpdDisconnectTimerFunc">
<polygon fill="#ffffff" stroke="#000000" points="270,-114.5 270,-133.5 406,-133.5 406,-114.5 270,-114.5"/>
<text text-anchor="middle" x="338" y="-121.5" font-family="Helvetica,sans-Serif" font-size="10.00" fill="#000000">httpdDisconnectTimerFunc</text>
</a>
</g>
</g>
<!-- Node26&#45;&gt;Node27 -->
<g id="edge3" class="edge">
<title>Node26&#45;&gt;Node27</title>
<path fill="none" stroke="#191970" d="M218.4283,-118.0618C233.9986,-117.3691 252.2933,-117.1197 269.8254,-117.3136"/>
<polygon fill="#191970" stroke="#191970" points="217.9259,-114.5835 208.1269,-118.6121 218.2994,-121.5736 217.9259,-114.5835"/>
</g>
<!-- Node27&#45;&gt;Node26 -->
<g id="edge4" class="edge">
<title>Node27&#45;&gt;Node26</title>
<path fill="none" stroke="#191970" d="M259.6509,-130.7491C241.2738,-130.7734 222.7976,-130.3196 208.1269,-129.3879"/>
<polygon fill="#191970" stroke="#191970" points="259.8472,-134.248 269.8254,-130.6864 259.804,-127.2482 259.8472,-134.248"/>
</g>
<!-- Node29 -->
<g id="node6" class="node">
<title>Node29</title>
<g id="a_node6"><a xlink:href="$mqtt_8c.html#a9c9b677c6161329a3c3c6470a7182984" xlink:title="Delete MQTT client and free all memory. ">
<polygon fill="#ffffff" stroke="#000000" points="289,-76.5 289,-95.5 387,-95.5 387,-76.5 289,-76.5"/>
<text text-anchor="middle" x="338" y="-83.5" font-family="Helvetica,sans-Serif" font-size="10.00" fill="#000000">mqtt_client_delete</text>
</a>
</g>
</g>
<!-- Node28&#45;&gt;Node29 -->
<g id="edge6" class="edge">
<title>Node28&#45;&gt;Node29</title>
<path fill="none" stroke="#191970" d="M244.4491,-74.856C259.3207,-76.6275 274.8527,-78.4778 288.8909,-80.15"/>
<polygon fill="#191970" stroke="#191970" points="244.6292,-71.3528 234.2854,-73.6453 243.8011,-78.3037 244.6292,-71.3528"/>
</g>
<!-- Node30 -->
<g id="node7" class="node">
<title>Node30</title>
<g id="a_node7"><a xlink:href="$mqtt_8c.html#a9d88fa6efb9163d4dbf9dc750a8d4ed0" xlink:title="MQTT_Task">
<polygon fill="#ffffff" stroke="#000000" points="442,-38.5 442,-57.5 514,-57.5 514,-38.5 442,-38.5"/>
<text text-anchor="middle" x="478" y="-45.5" font-family="Helvetica,sans-Serif" font-size="10.00" fill="#000000">MQTT_Task</text>
</a>
</g>
</g>
<!-- Node28&#45;&gt;Node30 -->
<g id="edge9" class="edge">
<title>Node28&#45;&gt;Node30</title>
<path fill="none" stroke="#191970" d="M244.3941,-62.8197C305.1724,-58.964 393.1472,-53.383 441.9536,-50.2868"/>
<polygon fill="#191970" stroke="#191970" points="243.8901,-59.3446 234.1317,-63.4708 244.3333,-66.3305 243.8901,-59.3446"/>
</g>
<!-- Node32 -->
<g id="node9" class="node">
<title>Node32</title>
<g id="a_node9"><a xlink:href="$mqtt_8c.html#ad34b681cb2f7473d8fc786c7ed468db5" xlink:title="Begin connect to MQTT broker. ">
<polygon fill="#ffffff" stroke="#000000" points="294,-.5 294,-19.5 382,-19.5 382,-.5 294,-.5"/>
<text text-anchor="middle" x="338" y="-7.5" font-family="Helvetica,sans-Serif" font-size="10.00" fill="#000000">MQTT_Connect</text>
</a>
</g>
</g>
<!-- Node28&#45;&gt;Node32 -->
<g id="edge10" class="edge">
<title>Node28&#45;&gt;Node32</title>
<path fill="none" stroke="#191970" d="M214.392,-53.9912C231.2602,-47.8939 251.6522,-40.5464 270,-34 283.442,-29.204 298.3968,-23.9201 310.8516,-19.534"/>
<polygon fill="#191970" stroke="#191970" points="213.1228,-50.7283 204.9096,-57.4212 215.5039,-57.3109 213.1228,-50.7283"/>
</g>
<!-- Node29&#45;&gt;Node30 -->
<g id="edge7" class="edge">
<title>Node29&#45;&gt;Node30</title>
<path fill="none" stroke="#191970" d="M383.1176,-73.7538C402.4149,-68.516 424.6124,-62.4909 442.6834,-57.5859"/>
<polygon fill="#191970" stroke="#191970" points="382.0619,-70.4136 373.3279,-76.411 383.8956,-77.1692 382.0619,-70.4136"/>
</g>
<!-- Node31 -->
<g id="node8" class="node">
<title>Node31</title>
<g id="a_node8"><a xlink:href="$mqtt_8c.html#a25cb7ac079d1d119250dac075c45acf1" xlink:title="MQTT initialization mqtt client function. ">
<polygon fill="#ffffff" stroke="#000000" points="550,-38.5 550,-57.5 639,-57.5 639,-38.5 550,-38.5"/>
<text text-anchor="middle" x="594.5" y="-45.5" font-family="Helvetica,sans-Serif" font-size="10.00" fill="#000000">MQTT_InitClient</text>
</a>
</g>
</g>
<!-- Node30&#45;&gt;Node31 -->
<g id="edge8" class="edge">
<title>Node30&#45;&gt;Node31</title>
<path fill="none" stroke="#191970" d="M524.225,-48C532.6069,-48 541.336,-48 549.6768,-48"/>
<polygon fill="#191970" stroke="#191970" points="524.2228,-44.5001 514.2227,-48 524.2227,-51.5001 524.2228,-44.5001"/>
</g>
<!-- Node32&#45;&gt;Node30 -->
<g id="edge11" class="edge">
<title>Node32&#45;&gt;Node30</title>
<path fill="none" stroke="#191970" d="M383.1176,-22.2462C402.4149,-27.484 424.6124,-33.5091 442.6834,-38.4141"/>
<polygon fill="#191970" stroke="#191970" points="383.8956,-18.8308 373.3279,-19.589 382.0619,-25.5864 383.8956,-18.8308"/>
</g>
</g>
</svg>
