<?xml version="1.0" encoding="UTF-8" standalone="no"?>
<!DOCTYPE svg PUBLIC "-//W3C//DTD SVG 1.1//EN"
 "http://www.w3.org/Graphics/SVG/1.1/DTD/svg11.dtd">
<!-- Generated by graphviz version 2.41.20170323.1842 (20170323.1842)
 -->
<!-- Title: espconn_list_creat Pages: 1 -->
<svg width="522pt" height="142pt"
 viewBox="0.00 0.00 522.00 142.00" xmlns="http://www.w3.org/2000/svg" xmlns:xlink="http://www.w3.org/1999/xlink">
<g id="graph0" class="graph" transform="scale(1 1) rotate(0) translate(4 138)">
<title>espconn_list_creat</title>
<polygon fill="#ffffff" stroke="transparent" points="-4,4 -4,-138 518,-138 518,4 -4,4"/>
<!-- Node96 -->
<g id="node1" class="node">
<title>Node96</title>
<polygon fill="#bfbfbf" stroke="#000000" points="0,-57.5 0,-76.5 100,-76.5 100,-57.5 0,-57.5"/>
<text text-anchor="middle" x="50" y="-64.5" font-family="Helvetica,sans-Serif" font-size="10.00" fill="#000000">espconn_list_creat</text>
</g>
<!-- Node97 -->
<g id="node2" class="node">
<title>Node97</title>
<g id="a_node2"><a xlink:href="$espconn__tcp_8c.html#acf0ecfba42ea8bcc55836b8dccabe511" xlink:title="espconn_tcp_accept">
<polygon fill="#ffffff" stroke="#000000" points="137,-114.5 137,-133.5 245,-133.5 245,-114.5 137,-114.5"/>
<text text-anchor="middle" x="191" y="-121.5" font-family="Helvetica,sans-Serif" font-size="10.00" fill="#000000">espconn_tcp_accept</text>
</a>
</g>
</g>
<!-- Node96&#45;&gt;Node97 -->
<g id="edge1" class="edge">
<title>Node96&#45;&gt;Node97</title>
<path fill="none" stroke="#191970" d="M83.0012,-80.3409C108.8613,-90.795 144.2162,-105.0874 167.3228,-114.4284"/>
<polygon fill="#191970" stroke="#191970" points="84.1831,-77.0436 73.6002,-76.5405 81.5596,-83.5334 84.1831,-77.0436"/>
</g>
<!-- Node98 -->
<g id="node3" class="node">
<title>Node98</title>
<g id="a_node3"><a xlink:href="$espconn__tcp_8c.html#ace125fa28aced169fba2b955f1ce76fb" xlink:title="espconn_tcp_server">
<polygon fill="#ffffff" stroke="#000000" points="282,-95.5 282,-114.5 389,-114.5 389,-95.5 282,-95.5"/>
<text text-anchor="middle" x="335.5" y="-102.5" font-family="Helvetica,sans-Serif" font-size="10.00" fill="#000000">espconn_tcp_server</text>
</a>
</g>
</g>
<!-- Node96&#45;&gt;Node98 -->
<g id="edge6" class="edge">
<title>Node96&#45;&gt;Node98</title>
<path fill="none" stroke="#191970" d="M110.2205,-75.0153C160.923,-81.7638 232.7836,-91.3285 281.6122,-97.8275"/>
<polygon fill="#191970" stroke="#191970" points="110.4314,-71.5126 100.057,-73.6626 109.5078,-78.4514 110.4314,-71.5126"/>
</g>
<!-- Node100 -->
<g id="node5" class="node">
<title>Node100</title>
<g id="a_node5"><a xlink:href="$espconn__tcp_8c.html#afe66d17cd3c4b5ca9959287aec4db38b" xlink:title="espconn_tcp_client">
<polygon fill="#ffffff" stroke="#000000" points="140,-38.5 140,-57.5 242,-57.5 242,-38.5 140,-38.5"/>
<text text-anchor="middle" x="191" y="-45.5" font-family="Helvetica,sans-Serif" font-size="10.00" fill="#000000">espconn_tcp_client</text>
</a>
</g>
</g>
<!-- Node96&#45;&gt;Node100 -->
<g id="edge4" class="edge">
<title>Node96&#45;&gt;Node100</title>
<path fill="none" stroke="#191970" d="M110.1899,-58.8893C119.9899,-57.5687 130.0615,-56.2116 139.6252,-54.9228"/>
<polygon fill="#191970" stroke="#191970" points="109.5513,-55.4436 100.1083,-60.2478 110.4862,-62.3809 109.5513,-55.4436"/>
</g>
<!-- Node102 -->
<g id="node7" class="node">
<title>Node102</title>
<g id="a_node7"><a xlink:href="$espconn__udp_8c.html#a9bec8b8f0b6b24ef4f29f4294e1f129c" xlink:title="espconn_udp_server">
<polygon fill="#ffffff" stroke="#000000" points="136,-.5 136,-19.5 246,-19.5 246,-.5 136,-.5"/>
<text text-anchor="middle" x="191" y="-7.5" font-family="Helvetica,sans-Serif" font-size="10.00" fill="#000000">espconn_udp_server</text>
</a>
</g>
</g>
<!-- Node96&#45;&gt;Node102 -->
<g id="edge7" class="edge">
<title>Node96&#45;&gt;Node102</title>
<path fill="none" stroke="#191970" d="M79.4385,-53.2634C95.929,-45.7534 116.9497,-36.4842 136,-29 144.3684,-25.7123 153.5657,-22.4142 162.0042,-19.5102"/>
<polygon fill="#191970" stroke="#191970" points="77.9315,-50.104 70.3018,-57.4552 80.8504,-56.4664 77.9315,-50.104"/>
</g>
<!-- Node97&#45;&gt;Node98 -->
<g id="edge2" class="edge">
<title>Node97&#45;&gt;Node98</title>
<path fill="none" stroke="#191970" d="M255.2013,-115.5583C264.1328,-114.3839 273.2304,-113.1877 281.939,-112.0426"/>
<polygon fill="#191970" stroke="#191970" points="254.6759,-112.0972 245.2176,-116.871 255.5886,-119.0374 254.6759,-112.0972"/>
</g>
<!-- Node99 -->
<g id="node4" class="node">
<title>Node99</title>
<g id="a_node4"><a xlink:href="$sdk_2include_2espconn_8h.html#abd44446e3fc4a61fdef77d473deb678b" xlink:title="espconn_accept">
<polygon fill="#ffffff" stroke="#000000" points="425,-95.5 425,-114.5 514,-114.5 514,-95.5 425,-95.5"/>
<text text-anchor="middle" x="469.5" y="-102.5" font-family="Helvetica,sans-Serif" font-size="10.00" fill="#000000">espconn_accept</text>
</a>
</g>
</g>
<!-- Node98&#45;&gt;Node99 -->
<g id="edge3" class="edge">
<title>Node98&#45;&gt;Node99</title>
<path fill="none" stroke="#191970" d="M399.2847,-105C407.9061,-105 416.5987,-105 424.7897,-105"/>
<polygon fill="#191970" stroke="#191970" points="399.2309,-101.5001 389.2308,-105 399.2308,-108.5001 399.2309,-101.5001"/>
</g>
<!-- Node101 -->
<g id="node6" class="node">
<title>Node101</title>
<g id="a_node6"><a xlink:href="$sdk_2include_2espconn_8h.html#a949cd618667cea85b1b99d14b90dce7d" xlink:title="espconn_connect">
<polygon fill="#ffffff" stroke="#000000" points="288,-38.5 288,-57.5 383,-57.5 383,-38.5 288,-38.5"/>
<text text-anchor="middle" x="335.5" y="-45.5" font-family="Helvetica,sans-Serif" font-size="10.00" fill="#000000">espconn_connect</text>
</a>
</g>
</g>
<!-- Node100&#45;&gt;Node101 -->
<g id="edge5" class="edge">
<title>Node100&#45;&gt;Node101</title>
<path fill="none" stroke="#191970" d="M252.5509,-48C264.3062,-48 276.4479,-48 287.694,-48"/>
<polygon fill="#191970" stroke="#191970" points="252.3522,-44.5001 242.3522,-48 252.3521,-51.5001 252.3522,-44.5001"/>
</g>
<!-- Node103 -->
<g id="node8" class="node">
<title>Node103</title>
<g id="a_node8"><a xlink:href="$sdk_2include_2espconn_8h.html#ad55b9729c7629f40c8e7ae2d73f7f174" xlink:title="espconn_create">
<polygon fill="#ffffff" stroke="#000000" points="291.5,-.5 291.5,-19.5 379.5,-19.5 379.5,-.5 291.5,-.5"/>
<text text-anchor="middle" x="335.5" y="-7.5" font-family="Helvetica,sans-Serif" font-size="10.00" fill="#000000">espconn_create</text>
</a>
</g>
</g>
<!-- Node102&#45;&gt;Node103 -->
<g id="edge8" class="edge">
<title>Node102&#45;&gt;Node103</title>
<path fill="none" stroke="#191970" d="M256.3621,-10C268.2164,-10 280.3203,-10 291.3816,-10"/>
<polygon fill="#191970" stroke="#191970" points="256.0415,-6.5001 246.0415,-10 256.0414,-13.5001 256.0415,-6.5001"/>
</g>
</g>
</svg>
