<?xml version="1.0" encoding="UTF-8" standalone="no"?>
<!DOCTYPE svg PUBLIC "-//W3C//DTD SVG 1.1//EN"
 "http://www.w3.org/Graphics/SVG/1.1/DTD/svg11.dtd">
<!-- Generated by graphviz version 2.41.20170323.1842 (20170323.1842)
 -->
<!-- Title: espconn_create Pages: 1 -->
<svg width="307pt" height="28pt"
 viewBox="0.00 0.00 307.00 28.00" xmlns="http://www.w3.org/2000/svg" xmlns:xlink="http://www.w3.org/1999/xlink">
<g id="graph0" class="graph" transform="scale(1 1) rotate(0) translate(4 24)">
<title>espconn_create</title>
<polygon fill="#ffffff" stroke="transparent" points="-4,4 -4,-24 303,-24 303,4 -4,4"/>
<!-- Node20 -->
<g id="node1" class="node">
<title>Node20</title>
<polygon fill="#bfbfbf" stroke="#000000" points="0,-.5 0,-19.5 88,-19.5 88,-.5 0,-.5"/>
<text text-anchor="middle" x="44" y="-7.5" font-family="Helvetica,sans-Serif" font-size="10.00" fill="#000000">espconn_create</text>
</g>
<!-- Node21 -->
<g id="node2" class="node">
<title>Node21</title>
<g id="a_node2"><a xlink:href="$captdns_8h.html#a88f42288d1b84cab204cca9e7f7aa9a3" xlink:title="captdnsInit">
<polygon fill="#ffffff" stroke="#000000" points="124,-.5 124,-19.5 189,-19.5 189,-.5 124,-.5"/>
<text text-anchor="middle" x="156.5" y="-7.5" font-family="Helvetica,sans-Serif" font-size="10.00" fill="#000000">captdnsInit</text>
</a>
</g>
</g>
<!-- Node20&#45;&gt;Node21 -->
<g id="edge1" class="edge">
<title>Node20&#45;&gt;Node21</title>
<path fill="none" stroke="#191970" d="M98.3467,-10C107.1088,-10 115.9326,-10 123.9662,-10"/>
<polygon fill="#191970" stroke="#191970" points="98.1401,-6.5001 88.1401,-10 98.1401,-13.5001 98.1401,-6.5001"/>
</g>
<!-- Node22 -->
<g id="node3" class="node">
<title>Node22</title>
<g id="a_node3"><a xlink:href="$captdns_8c.html#a59c9a28ea1f015cff27b9d0c252d15f3" xlink:title="captdnsRecv">
<polygon fill="#ffffff" stroke="#000000" points="225,-.5 225,-19.5 299,-19.5 299,-.5 225,-.5"/>
<text text-anchor="middle" x="262" y="-7.5" font-family="Helvetica,sans-Serif" font-size="10.00" fill="#000000">captdnsRecv</text>
</a>
</g>
</g>
<!-- Node21&#45;&gt;Node22 -->
<g id="edge2" class="edge">
<title>Node21&#45;&gt;Node22</title>
<path fill="none" stroke="#191970" d="M199.1929,-3.3602C207.7381,-3.1708 216.649,-3.2255 224.9831,-3.5243"/>
<polygon fill="#191970" stroke="#191970" points="198.8873,.1314 189.0143,-3.7124 199.1294,-6.8644 198.8873,.1314"/>
</g>
<!-- Node22&#45;&gt;Node21 -->
<g id="edge3" class="edge">
<title>Node22&#45;&gt;Node21</title>
<path fill="none" stroke="#191970" d="M214.8796,-16.7157C206.1417,-16.8225 197.1953,-16.6798 189.0143,-16.2876"/>
<polygon fill="#191970" stroke="#191970" points="215.0691,-20.2123 224.9831,-16.4757 214.9028,-13.2143 215.0691,-20.2123"/>
</g>
</g>
</svg>
