<?xml version="1.0" encoding="UTF-8" standalone="no"?>
<!DOCTYPE svg PUBLIC "-//W3C//DTD SVG 1.1//EN"
 "http://www.w3.org/Graphics/SVG/1.1/DTD/svg11.dtd">
<!-- Generated by graphviz version 2.39.20160927.1334 (20160927.1334)
 -->
<!-- Title: include/esp8266.h Pages: 1 -->
<svg width="1080pt" height="140pt"
 viewBox="0.00 0.00 1080.00 140.00" xmlns="http://www.w3.org/2000/svg" xmlns:xlink="http://www.w3.org/1999/xlink">
<g id="graph0" class="graph" transform="scale(1 1) rotate(0) translate(4 136)">
<title>include/esp8266.h</title>
<polygon fill="#ffffff" stroke="transparent" points="-4,4 -4,-136 1076,-136 1076,4 -4,4"/>
<!-- Node1 -->
<g id="node1" class="node">
<title>Node1</title>
<polygon fill="#bfbfbf" stroke="#000000" points="451.5,-112.5 451.5,-131.5 549.5,-131.5 549.5,-112.5 451.5,-112.5"/>
<text text-anchor="middle" x="500.5" y="-119.5" font-family="Helvetica,sans-Serif" font-size="10.00" fill="#000000">include/esp8266.h</text>
</g>
<!-- Node2 -->
<g id="node2" class="node">
<title>Node2</title>
<polygon fill="#ffffff" stroke="#bfbfbf" points="0,-56.5 0,-75.5 49,-75.5 49,-56.5 0,-56.5"/>
<text text-anchor="middle" x="24.5" y="-63.5" font-family="Helvetica,sans-Serif" font-size="10.00" fill="#000000">ctype.h</text>
</g>
<!-- Node1&#45;&gt;Node2 -->
<g id="edge1" class="edge">
<title>Node1&#45;&gt;Node2</title>
<path fill="none" stroke="#191970" d="M451.34,-119.813C371.119,-115.608 207.057,-104.347 59.4034,-75.8398"/>
<polygon fill="#191970" stroke="#191970" points="59.7396,-72.3391 49.2527,-73.8474 58.3913,-79.208 59.7396,-72.3391"/>
</g>
<!-- Node3 -->
<g id="node3" class="node">
<title>Node3</title>
<polygon fill="#ffffff" stroke="#bfbfbf" points="67.5,-56.5 67.5,-75.5 113.5,-75.5 113.5,-56.5 67.5,-56.5"/>
<text text-anchor="middle" x="90.5" y="-63.5" font-family="Helvetica,sans-Serif" font-size="10.00" fill="#000000">stdio.h</text>
</g>
<!-- Node1&#45;&gt;Node3 -->
<g id="edge2" class="edge">
<title>Node1&#45;&gt;Node3</title>
<path fill="none" stroke="#191970" d="M451.397,-118.887C380.751,-113.781 246.322,-101.73 123.721,-75.9407"/>
<polygon fill="#191970" stroke="#191970" points="124.299,-72.4852 113.788,-73.8151 122.834,-79.3302 124.299,-72.4852"/>
</g>
<!-- Node4 -->
<g id="node4" class="node">
<title>Node4</title>
<polygon fill="#ffffff" stroke="#bfbfbf" points="131.5,-56.5 131.5,-75.5 179.5,-75.5 179.5,-56.5 131.5,-56.5"/>
<text text-anchor="middle" x="155.5" y="-63.5" font-family="Helvetica,sans-Serif" font-size="10.00" fill="#000000">stdlib.h</text>
</g>
<!-- Node1&#45;&gt;Node4 -->
<g id="edge3" class="edge">
<title>Node1&#45;&gt;Node4</title>
<path fill="none" stroke="#191970" d="M451.368,-116.874C389.744,-109.956 281.055,-96.1322 189.5,-76 189.399,-75.9777 189.297,-75.9553 189.195,-75.9327"/>
<polygon fill="#191970" stroke="#191970" points="190.089,-72.5484 179.539,-73.5201 188.392,-79.3396 190.089,-72.5484"/>
</g>
<!-- Node5 -->
<g id="node5" class="node">
<title>Node5</title>
<polygon fill="#ffffff" stroke="#bfbfbf" points="198,-56.5 198,-75.5 247,-75.5 247,-56.5 198,-56.5"/>
<text text-anchor="middle" x="222.5" y="-63.5" font-family="Helvetica,sans-Serif" font-size="10.00" fill="#000000">string.h</text>
</g>
<!-- Node1&#45;&gt;Node5 -->
<g id="edge4" class="edge">
<title>Node1&#45;&gt;Node5</title>
<path fill="none" stroke="#191970" d="M451.342,-113.442C402.896,-104.795 326.851,-90.6531 261.5,-76 260.051,-75.675 258.573,-75.3351 257.082,-74.9849"/>
<polygon fill="#191970" stroke="#191970" points="257.747,-71.5446 247.203,-72.5756 256.089,-78.3453 257.747,-71.5446"/>
</g>
<!-- Node6 -->
<g id="node6" class="node">
<title>Node6</title>
<polygon fill="#ffffff" stroke="#bfbfbf" points="232,-0.5 232,-19.5 291,-19.5 291,-0.5 232,-0.5"/>
<text text-anchor="middle" x="261.5" y="-7.5" font-family="Helvetica,sans-Serif" font-size="10.00" fill="#000000">c_types.h</text>
</g>
<!-- Node1&#45;&gt;Node6 -->
<g id="edge5" class="edge">
<title>Node1&#45;&gt;Node6</title>
<path fill="none" stroke="#191970" d="M451.201,-117.097C413.484,-111.579 361.351,-100.01 321.5,-76 301.509,-63.9551 284.26,-43.216 273.453,-28.195"/>
<polygon fill="#191970" stroke="#191970" points="276.155,-25.9476 267.591,-19.7101 270.396,-29.9268 276.155,-25.9476"/>
</g>
<!-- Node7 -->
<g id="node7" class="node">
<title>Node7</title>
<polygon fill="#ffffff" stroke="#bfbfbf" points="471.5,-56.5 471.5,-75.5 529.5,-75.5 529.5,-56.5 471.5,-56.5"/>
<text text-anchor="middle" x="500.5" y="-63.5" font-family="Helvetica,sans-Serif" font-size="10.00" fill="#000000">ip_addr.h</text>
</g>
<!-- Node1&#45;&gt;Node7 -->
<g id="edge6" class="edge">
<title>Node1&#45;&gt;Node7</title>
<path fill="none" stroke="#191970" d="M500.5,-112.246C500.5,-104.938 500.5,-94.6944 500.5,-85.7046"/>
<polygon fill="#191970" stroke="#191970" points="504,-85.6426 500.5,-75.6427 497,-85.6427 504,-85.6426"/>
</g>
<!-- Node8 -->
<g id="node8" class="node">
<title>Node8</title>
<polygon fill="#ffffff" stroke="#bfbfbf" points="548,-56.5 548,-75.5 611,-75.5 611,-56.5 548,-56.5"/>
<text text-anchor="middle" x="579.5" y="-63.5" font-family="Helvetica,sans-Serif" font-size="10.00" fill="#000000">espconn.h</text>
</g>
<!-- Node1&#45;&gt;Node8 -->
<g id="edge7" class="edge">
<title>Node1&#45;&gt;Node8</title>
<path fill="none" stroke="#191970" d="M514.261,-112.246C526.155,-103.814 543.565,-91.4729 557.409,-81.6598"/>
<polygon fill="#191970" stroke="#191970" points="559.763,-84.2811 565.897,-75.6427 555.715,-78.5704 559.763,-84.2811"/>
</g>
<!-- Node9 -->
<g id="node9" class="node">
<title>Node9</title>
<polygon fill="#ffffff" stroke="#bfbfbf" points="309,-0.5 309,-19.5 368,-19.5 368,-0.5 309,-0.5"/>
<text text-anchor="middle" x="338.5" y="-7.5" font-family="Helvetica,sans-Serif" font-size="10.00" fill="#000000">ets_sys.h</text>
</g>
<!-- Node1&#45;&gt;Node9 -->
<g id="edge8" class="edge">
<title>Node1&#45;&gt;Node9</title>
<path fill="none" stroke="#191970" d="M451.441,-115.219C407.207,-107.981 346.946,-94.9326 332.5,-76 322.391,-62.751 325.642,-43.3662 330.371,-29.0302"/>
<polygon fill="#191970" stroke="#191970" points="333.657,-30.2355 333.906,-19.6436 327.106,-27.7685 333.657,-30.2355"/>
</g>
<!-- Node10 -->
<g id="node10" class="node">
<title>Node10</title>
<polygon fill="#ffffff" stroke="#bfbfbf" points="629.5,-56.5 629.5,-75.5 673.5,-75.5 673.5,-56.5 629.5,-56.5"/>
<text text-anchor="middle" x="651.5" y="-63.5" font-family="Helvetica,sans-Serif" font-size="10.00" fill="#000000">gpio.h</text>
</g>
<!-- Node1&#45;&gt;Node10 -->
<g id="edge9" class="edge">
<title>Node1&#45;&gt;Node10</title>
<path fill="none" stroke="#191970" d="M526.458,-112.373C552.292,-102.792 591.982,-88.0728 619.695,-77.7951"/>
<polygon fill="#191970" stroke="#191970" points="621.157,-80.9861 629.316,-74.2273 618.723,-74.4229 621.157,-80.9861"/>
</g>
<!-- Node11 -->
<g id="node11" class="node">
<title>Node11</title>
<polygon fill="#ffffff" stroke="#bfbfbf" points="692,-56.5 692,-75.5 739,-75.5 739,-56.5 692,-56.5"/>
<text text-anchor="middle" x="715.5" y="-63.5" font-family="Helvetica,sans-Serif" font-size="10.00" fill="#000000">mem.h</text>
</g>
<!-- Node1&#45;&gt;Node11 -->
<g id="edge10" class="edge">
<title>Node1&#45;&gt;Node11</title>
<path fill="none" stroke="#191970" d="M540.405,-112.482C575.28,-104.037 627.494,-91.0889 681.921,-76.07"/>
<polygon fill="#191970" stroke="#191970" points="683.046,-79.3902 691.746,-73.3429 681.174,-72.6453 683.046,-79.3902"/>
</g>
<!-- Node12 -->
<g id="node12" class="node">
<title>Node12</title>
<polygon fill="#ffffff" stroke="#bfbfbf" points="757,-56.5 757,-75.5 806,-75.5 806,-56.5 757,-56.5"/>
<text text-anchor="middle" x="781.5" y="-63.5" font-family="Helvetica,sans-Serif" font-size="10.00" fill="#000000">osapi.h</text>
</g>
<!-- Node1&#45;&gt;Node12 -->
<g id="edge11" class="edge">
<title>Node1&#45;&gt;Node12</title>
<path fill="none" stroke="#191970" d="M549.779,-114.513C597.908,-106.83 673.38,-93.806 746.836,-76.2275"/>
<polygon fill="#191970" stroke="#191970" points="747.821,-79.5901 756.715,-73.8324 746.172,-72.7872 747.821,-79.5901"/>
</g>
<!-- Node13 -->
<g id="node13" class="node">
<title>Node13</title>
<polygon fill="#ffffff" stroke="#bfbfbf" points="824.5,-56.5 824.5,-75.5 912.5,-75.5 912.5,-56.5 824.5,-56.5"/>
<text text-anchor="middle" x="868.5" y="-63.5" font-family="Helvetica,sans-Serif" font-size="10.00" fill="#000000">user_interface.h</text>
</g>
<!-- Node1&#45;&gt;Node13 -->
<g id="edge12" class="edge">
<title>Node1&#45;&gt;Node13</title>
<path fill="none" stroke="#191970" d="M549.704,-115.458C609.775,-107.328 714.705,-92.6675 814.344,-76.1426"/>
<polygon fill="#191970" stroke="#191970" points="814.99,-79.5832 824.278,-74.4857 813.838,-72.6786 814.99,-79.5832"/>
</g>
<!-- Node14 -->
<g id="node14" class="node">
<title>Node14</title>
<polygon fill="#ffffff" stroke="#bfbfbf" points="930.5,-56.5 930.5,-75.5 992.5,-75.5 992.5,-56.5 930.5,-56.5"/>
<text text-anchor="middle" x="961.5" y="-63.5" font-family="Helvetica,sans-Serif" font-size="10.00" fill="#000000">upgrade.h</text>
</g>
<!-- Node1&#45;&gt;Node14 -->
<g id="edge13" class="edge">
<title>Node1&#45;&gt;Node14</title>
<path fill="none" stroke="#191970" d="M549.748,-118.803C626.817,-113.324 780.713,-100.462 920.132,-76.0457"/>
<polygon fill="#191970" stroke="#191970" points="920.91,-79.4624 930.144,-74.2677 919.686,-72.5702 920.91,-79.4624"/>
</g>
<!-- Node15 -->
<g id="node15" class="node">
<title>Node15</title>
<g id="a_node15"><a xlink:href="platform_8h.html" target="_top" xlink:title="platform.h">
<polygon fill="#ffffff" stroke="#000000" points="1011,-56.5 1011,-75.5 1072,-75.5 1072,-56.5 1011,-56.5"/>
<text text-anchor="middle" x="1041.5" y="-63.5" font-family="Helvetica,sans-Serif" font-size="10.00" fill="#000000">platform.h</text>
</a>
</g>
</g>
<!-- Node1&#45;&gt;Node15 -->
<g id="edge14" class="edge">
<title>Node1&#45;&gt;Node15</title>
<path fill="none" stroke="#191970" d="M549.538,-119.996C637.897,-115.844 829.755,-104.352 1000.66,-75.9014"/>
<polygon fill="#191970" stroke="#191970" points="1001.31,-79.3412 1010.59,-74.2253 1000.15,-72.4389 1001.31,-79.3412"/>
</g>
<!-- Node16 -->
<g id="node16" class="node">
<title>Node16</title>
<g id="a_node16"><a xlink:href="espmissingincludes_8h.html" target="_top" xlink:title="espmissingincludes.h">
<polygon fill="#ffffff" stroke="#000000" points="341.5,-56.5 341.5,-75.5 453.5,-75.5 453.5,-56.5 341.5,-56.5"/>
<text text-anchor="middle" x="397.5" y="-63.5" font-family="Helvetica,sans-Serif" font-size="10.00" fill="#000000">espmissingincludes.h</text>
</a>
</g>
</g>
<!-- Node1&#45;&gt;Node16 -->
<g id="edge15" class="edge">
<title>Node1&#45;&gt;Node16</title>
<path fill="none" stroke="#191970" d="M482.559,-112.246C466.46,-103.493 442.612,-90.527 424.261,-80.5496"/>
<polygon fill="#191970" stroke="#191970" points="425.693,-77.3444 415.236,-75.6427 422.349,-83.4942 425.693,-77.3444"/>
</g>
<!-- Node16&#45;&gt;Node6 -->
<g id="edge17" class="edge">
<title>Node16&#45;&gt;Node6</title>
<path fill="none" stroke="#191970" d="M374.121,-56.3733C351.996,-47.2629 318.587,-33.5062 293.898,-23.3404"/>
<polygon fill="#191970" stroke="#191970" points="295.154,-20.0723 284.574,-19.5011 292.488,-26.5451 295.154,-20.0723"/>
</g>
<!-- Node16&#45;&gt;Node9 -->
<g id="edge19" class="edge">
<title>Node16&#45;&gt;Node9</title>
<path fill="none" stroke="#191970" d="M387.223,-56.2455C378.678,-48.1352 366.322,-36.4075 356.191,-26.7919"/>
<polygon fill="#191970" stroke="#191970" points="358.322,-23.9884 348.659,-19.6427 353.503,-29.0655 358.322,-23.9884"/>
</g>
<!-- Node17 -->
<g id="node17" class="node">
<title>Node17</title>
<polygon fill="#ffffff" stroke="#bfbfbf" points="386,-0.5 386,-19.5 435,-19.5 435,-0.5 386,-0.5"/>
<text text-anchor="middle" x="410.5" y="-7.5" font-family="Helvetica,sans-Serif" font-size="10.00" fill="#000000">stdint.h</text>
</g>
<!-- Node16&#45;&gt;Node17 -->
<g id="edge16" class="edge">
<title>Node16&#45;&gt;Node17</title>
<path fill="none" stroke="#191970" d="M399.764,-56.2455C401.479,-48.8579 403.891,-38.4689 405.994,-29.4087"/>
<polygon fill="#191970" stroke="#191970" points="409.409,-30.1751 408.262,-19.6427 402.591,-28.5922 409.409,-30.1751"/>
</g>
<!-- Node18 -->
<g id="node18" class="node">
<title>Node18</title>
<polygon fill="#ffffff" stroke="#bfbfbf" points="453.5,-0.5 453.5,-19.5 523.5,-19.5 523.5,-0.5 453.5,-0.5"/>
<text text-anchor="middle" x="488.5" y="-7.5" font-family="Helvetica,sans-Serif" font-size="10.00" fill="#000000">eagle_soc.h</text>
</g>
<!-- Node16&#45;&gt;Node18 -->
<g id="edge18" class="edge">
<title>Node16&#45;&gt;Node18</title>
<path fill="none" stroke="#191970" d="M413.351,-56.2455C427.313,-47.6534 447.873,-35.0014 463.96,-25.1018"/>
<polygon fill="#191970" stroke="#191970" points="466.148,-27.8645 472.831,-19.6427 462.48,-21.9029 466.148,-27.8645"/>
</g>
</g>
</svg>
