<?xml version="1.0" encoding="UTF-8" standalone="no"?>
<!DOCTYPE svg PUBLIC "-//W3C//DTD SVG 1.1//EN"
 "http://www.w3.org/Graphics/SVG/1.1/DTD/svg11.dtd">
<!-- Generated by graphviz version 2.41.20170323.1842 (20170323.1842)
 -->
<!-- Title: espconn_kill_pcb Pages: 1 -->
<svg width="374pt" height="66pt"
 viewBox="0.00 0.00 374.00 66.00" xmlns="http://www.w3.org/2000/svg" xmlns:xlink="http://www.w3.org/1999/xlink">
<g id="graph0" class="graph" transform="scale(1 1) rotate(0) translate(4 62)">
<title>espconn_kill_pcb</title>
<polygon fill="#ffffff" stroke="transparent" points="-4,4 -4,-62 370,-62 370,4 -4,4"/>
<!-- Node105 -->
<g id="node1" class="node">
<title>Node105</title>
<polygon fill="#bfbfbf" stroke="#000000" points="0,-19.5 0,-38.5 93,-38.5 93,-19.5 0,-19.5"/>
<text text-anchor="middle" x="46.5" y="-26.5" font-family="Helvetica,sans-Serif" font-size="10.00" fill="#000000">espconn_kill_pcb</text>
</g>
<!-- Node106 -->
<g id="node2" class="node">
<title>Node106</title>
<g id="a_node2"><a xlink:href="espconn__tcp_8c.html#afe66d17cd3c4b5ca9959287aec4db38b" target="_top" xlink:title="espconn_tcp_client">
<polygon fill="#ffffff" stroke="#000000" points="131,-38.5 131,-57.5 233,-57.5 233,-38.5 131,-38.5"/>
<text text-anchor="middle" x="182" y="-45.5" font-family="Helvetica,sans-Serif" font-size="10.00" fill="#000000">espconn_tcp_client</text>
</a>
</g>
</g>
<!-- Node105&#45;&gt;Node106 -->
<g id="edge1" class="edge">
<title>Node105&#45;&gt;Node106</title>
<path fill="none" stroke="#191970" d="M103.2411,-36.9563C112.3296,-38.2307 121.6898,-39.5432 130.6435,-40.7987"/>
<polygon fill="#191970" stroke="#191970" points="103.5206,-33.4613 93.1314,-35.5387 102.5485,-40.3935 103.5206,-33.4613"/>
</g>
<!-- Node108 -->
<g id="node4" class="node">
<title>Node108</title>
<g id="a_node4"><a xlink:href="espconn__tcp_8c.html#a2dfab8a89f8e7a7e017b2b977654d2aa" target="_top" xlink:title="espconn_tcp_delete">
<polygon fill="#ffffff" stroke="#000000" points="129,-.5 129,-19.5 235,-19.5 235,-.5 129,-.5"/>
<text text-anchor="middle" x="182" y="-7.5" font-family="Helvetica,sans-Serif" font-size="10.00" fill="#000000">espconn_tcp_delete</text>
</a>
</g>
</g>
<!-- Node105&#45;&gt;Node108 -->
<g id="edge3" class="edge">
<title>Node105&#45;&gt;Node108</title>
<path fill="none" stroke="#191970" d="M103.2782,-21.0385C111.7217,-19.8545 120.3988,-18.6378 128.7659,-17.4646"/>
<polygon fill="#191970" stroke="#191970" points="102.5485,-17.6065 93.1314,-22.4613 103.5206,-24.5387 102.5485,-17.6065"/>
</g>
<!-- Node107 -->
<g id="node3" class="node">
<title>Node107</title>
<g id="a_node3"><a xlink:href="sdk_2include_2espconn_8h.html#a949cd618667cea85b1b99d14b90dce7d" target="_top" xlink:title="espconn_connect">
<polygon fill="#ffffff" stroke="#000000" points="271,-38.5 271,-57.5 366,-57.5 366,-38.5 271,-38.5"/>
<text text-anchor="middle" x="318.5" y="-45.5" font-family="Helvetica,sans-Serif" font-size="10.00" fill="#000000">espconn_connect</text>
</a>
</g>
</g>
<!-- Node106&#45;&gt;Node107 -->
<g id="edge2" class="edge">
<title>Node106&#45;&gt;Node107</title>
<path fill="none" stroke="#191970" d="M243.4094,-48C252.531,-48 261.8173,-48 270.6076,-48"/>
<polygon fill="#191970" stroke="#191970" points="243.216,-44.5001 233.2159,-48 243.2159,-51.5001 243.216,-44.5001"/>
</g>
<!-- Node109 -->
<g id="node5" class="node">
<title>Node109</title>
<g id="a_node5"><a xlink:href="sdk_2include_2espconn_8h.html#a63d15dda14dfcd8da278c31f048910c3" target="_top" xlink:title="espconn_delete">
<polygon fill="#ffffff" stroke="#000000" points="275,-.5 275,-19.5 362,-19.5 362,-.5 275,-.5"/>
<text text-anchor="middle" x="318.5" y="-7.5" font-family="Helvetica,sans-Serif" font-size="10.00" fill="#000000">espconn_delete</text>
</a>
</g>
</g>
<!-- Node108&#45;&gt;Node109 -->
<g id="edge4" class="edge">
<title>Node108&#45;&gt;Node109</title>
<path fill="none" stroke="#191970" d="M245.4767,-10C255.4535,-10 265.5669,-10 274.9587,-10"/>
<polygon fill="#191970" stroke="#191970" points="245.1654,-6.5001 235.1653,-10 245.1653,-13.5001 245.1654,-6.5001"/>
</g>
</g>
</svg>
