<?xml version="1.0" encoding="UTF-8" standalone="no"?>
<!DOCTYPE svg PUBLIC "-//W3C//DTD SVG 1.1//EN"
 "http://www.w3.org/Graphics/SVG/1.1/DTD/svg11.dtd">
<!-- Generated by graphviz version 2.41.20170323.1842 (20170323.1842)
 -->
<!-- Title: espconn_sent Pages: 1 -->
<svg width="1022pt" height="415pt"
 viewBox="0.00 0.00 1022.00 415.15" xmlns="http://www.w3.org/2000/svg" xmlns:xlink="http://www.w3.org/1999/xlink">
<g id="graph0" class="graph" transform="scale(1 1) rotate(0) translate(4 411.1516)">
<title>espconn_sent</title>
<polygon fill="#ffffff" stroke="transparent" points="-4,4 -4,-411.1516 1018,-411.1516 1018,4 -4,4"/>
<!-- Node320 -->
<g id="node1" class="node">
<title>Node320</title>
<polygon fill="#bfbfbf" stroke="#000000" points="0,-305.6516 0,-324.6516 79,-324.6516 79,-305.6516 0,-305.6516"/>
<text text-anchor="middle" x="39.5" y="-312.6516" font-family="Helvetica,sans-Serif" font-size="10.00" fill="#000000">espconn_sent</text>
</g>
<!-- Node321 -->
<g id="node2" class="node">
<title>Node321</title>
<g id="a_node2"><a xlink:href="espconn_8c.html#a2d001a99fea2fce497e392259cf01700" target="_top" xlink:title="espconn_find_connection">
<polygon fill="#ffffff" stroke="#000000" points="115,-387.6516 115,-406.6516 245,-406.6516 245,-387.6516 115,-387.6516"/>
<text text-anchor="middle" x="180" y="-394.6516" font-family="Helvetica,sans-Serif" font-size="10.00" fill="#000000">espconn_find_connection</text>
</a>
</g>
</g>
<!-- Node320&#45;&gt;Node321 -->
<g id="edge1" class="edge">
<title>Node320&#45;&gt;Node321</title>
<path fill="none" stroke="#191970" d="M48.3424,-324.6893C61.5746,-338.4204 87.8853,-363.6928 115,-378.1516 119.1886,-380.3851 123.6727,-382.3867 128.2551,-384.174"/>
<polygon fill="#191970" stroke="#191970" points="127.1409,-387.4925 137.7356,-387.5473 129.4876,-380.8975 127.1409,-387.4925"/>
</g>
<!-- Node322 -->
<g id="node3" class="node">
<title>Node322</title>
<g id="a_node3"><a xlink:href="espconn_8c.html#ae10ea04e2a9851a8072ff717022db75c" target="_top" xlink:title="espconn_pbuf_create">
<polygon fill="#ffffff" stroke="#000000" points="123.5,-349.6516 123.5,-368.6516 236.5,-368.6516 236.5,-349.6516 123.5,-349.6516"/>
<text text-anchor="middle" x="180" y="-356.6516" font-family="Helvetica,sans-Serif" font-size="10.00" fill="#000000">espconn_pbuf_create</text>
</a>
</g>
</g>
<!-- Node320&#45;&gt;Node322 -->
<g id="edge2" class="edge">
<title>Node320&#45;&gt;Node322</title>
<path fill="none" stroke="#191970" d="M67.747,-324.7679C81.896,-329.5176 99.313,-335.2633 115,-340.1516 122.0224,-342.3398 129.4945,-344.5933 136.7771,-346.7494"/>
<polygon fill="#191970" stroke="#191970" points="135.9494,-350.154 146.5305,-349.6139 137.9221,-343.4377 135.9494,-350.154"/>
</g>
<!-- Node323 -->
<g id="node4" class="node">
<title>Node323</title>
<g id="a_node4"><a xlink:href="espconn_8c.html#acf1e6c12efc97dc6b38fbe0d8f74b3e7" target="_top" xlink:title="espconn_tcp_get_buf\l_count">
<polygon fill="#ffffff" stroke="#000000" points="124,-300.1516 124,-330.1516 236,-330.1516 236,-300.1516 124,-300.1516"/>
<text text-anchor="start" x="132" y="-318.1516" font-family="Helvetica,sans-Serif" font-size="10.00" fill="#000000">espconn_tcp_get_buf</text>
<text text-anchor="middle" x="180" y="-307.1516" font-family="Helvetica,sans-Serif" font-size="10.00" fill="#000000">_count</text>
</a>
</g>
</g>
<!-- Node320&#45;&gt;Node323 -->
<g id="edge3" class="edge">
<title>Node320&#45;&gt;Node323</title>
<path fill="none" stroke="#191970" d="M79.011,-315.1516C89.7457,-315.1516 101.6732,-315.1516 113.461,-315.1516"/>
<polygon fill="#191970" stroke="#191970" points="113.7505,-318.6517 123.7505,-315.1516 113.7504,-311.6517 113.7505,-318.6517"/>
</g>
<!-- Node324 -->
<g id="node5" class="node">
<title>Node324</title>
<g id="a_node5"><a xlink:href="espconn__tcp_8c.html#afedfd58842e55800f23f90ed00b0a967" target="_top" xlink:title="espconn_tcp_write">
<polygon fill="#ffffff" stroke="#000000" points="130,-261.6516 130,-280.6516 230,-280.6516 230,-261.6516 130,-261.6516"/>
<text text-anchor="middle" x="180" y="-268.6516" font-family="Helvetica,sans-Serif" font-size="10.00" fill="#000000">espconn_tcp_write</text>
</a>
</g>
</g>
<!-- Node320&#45;&gt;Node324 -->
<g id="edge4" class="edge">
<title>Node320&#45;&gt;Node324</title>
<path fill="none" stroke="#191970" d="M69.2428,-305.6268C83.1353,-301.1959 99.9041,-295.8732 115,-291.1516 122.851,-288.6959 131.243,-286.0956 139.3002,-283.6111"/>
<polygon fill="#191970" stroke="#191970" points="140.375,-286.9424 148.9031,-280.6556 138.3159,-280.2521 140.375,-286.9424"/>
</g>
<!-- Node326 -->
<g id="node7" class="node">
<title>Node326</title>
<g id="a_node7"><a xlink:href="espconn__udp_8h.html#a3997b39f66969a47090b3950a33c2a09" target="_top" xlink:title="espconn_udp_sent">
<polygon fill="#ffffff" stroke="#000000" points="129.5,-166.6516 129.5,-185.6516 230.5,-185.6516 230.5,-166.6516 129.5,-166.6516"/>
<text text-anchor="middle" x="180" y="-173.6516" font-family="Helvetica,sans-Serif" font-size="10.00" fill="#000000">espconn_udp_sent</text>
</a>
</g>
</g>
<!-- Node320&#45;&gt;Node326 -->
<g id="edge6" class="edge">
<title>Node320&#45;&gt;Node326</title>
<path fill="none" stroke="#191970" d="M49.1571,-305.5975C72.7188,-282.2874 133.3911,-222.2628 163.1009,-192.8703"/>
<polygon fill="#191970" stroke="#191970" points="165.6279,-195.2936 170.2753,-185.7724 160.7048,-190.3174 165.6279,-195.2936"/>
</g>
<!-- Node325 -->
<g id="node6" class="node">
<title>Node325</title>
<g id="a_node6"><a xlink:href="espconn__tcp_8c.html#a5a4844397c6068a44e5422de0eadcb86" target="_top" xlink:title="espconn_tcp_sent">
<polygon fill="#ffffff" stroke="#000000" points="284,-299.6516 284,-318.6516 382,-318.6516 382,-299.6516 284,-299.6516"/>
<text text-anchor="middle" x="333" y="-306.6516" font-family="Helvetica,sans-Serif" font-size="10.00" fill="#000000">espconn_tcp_sent</text>
</a>
</g>
</g>
<!-- Node324&#45;&gt;Node325 -->
<g id="edge5" class="edge">
<title>Node324&#45;&gt;Node325</title>
<path fill="none" stroke="#191970" d="M218.6084,-280.7406C238.7074,-285.7325 263.4751,-291.8839 284.8185,-297.1849"/>
<polygon fill="#191970" stroke="#191970" points="284.1204,-300.6178 294.6693,-299.6315 285.8078,-293.8242 284.1204,-300.6178"/>
</g>
<!-- Node327 -->
<g id="node8" class="node">
<title>Node327</title>
<g id="a_node8"><a xlink:href="wlan__lwip__if_8h.html#a7e70d2ab3f2caed091644850737a363e" target="_top" xlink:title="eagle_lwip_getif">
<polygon fill="#ffffff" stroke="#000000" points="573,-71.6516 573,-90.6516 661,-90.6516 661,-71.6516 573,-71.6516"/>
<text text-anchor="middle" x="617" y="-78.6516" font-family="Helvetica,sans-Serif" font-size="10.00" fill="#000000">eagle_lwip_getif</text>
</a>
</g>
</g>
<!-- Node326&#45;&gt;Node327 -->
<g id="edge7" class="edge">
<title>Node326&#45;&gt;Node327</title>
<path fill="none" stroke="#191970" d="M185.8964,-166.4509C199.5809,-144.8808 235.8031,-92.9725 281,-69.1516 381.2411,-16.3195 423.8889,-24.9293 535,-47.1516 551.9967,-50.5509 554.9897,-55.5096 571,-62.1516 575.2449,-63.9126 579.7115,-65.762 584.1246,-67.587"/>
<polygon fill="#191970" stroke="#191970" points="583.0141,-70.9152 593.5928,-71.4997 585.6876,-64.4458 583.0141,-70.9152"/>
</g>
<!-- Node328 -->
<g id="node9" class="node">
<title>Node328</title>
<g id="a_node9"><a xlink:href="espconn__udp_8c.html#ad90679652367797548ea650f09d14f7e" target="_top" xlink:title="espconn_data_sent">
<polygon fill="#ffffff" stroke="#000000" points="281,-128.6516 281,-147.6516 385,-147.6516 385,-128.6516 281,-128.6516"/>
<text text-anchor="middle" x="333" y="-135.6516" font-family="Helvetica,sans-Serif" font-size="10.00" fill="#000000">espconn_data_sent</text>
</a>
</g>
</g>
<!-- Node326&#45;&gt;Node328 -->
<g id="edge8" class="edge">
<title>Node326&#45;&gt;Node328</title>
<path fill="none" stroke="#191970" d="M218.6084,-166.5625C238.7074,-161.5706 263.4751,-155.4192 284.8185,-150.1182"/>
<polygon fill="#191970" stroke="#191970" points="285.8078,-153.4789 294.6693,-147.6716 284.1204,-146.6853 285.8078,-153.4789"/>
</g>
<!-- Node331 -->
<g id="node12" class="node">
<title>Node331</title>
<g id="a_node12"><a xlink:href="pbuf_8h.html#ac6efc2aaeddfea6c95729dc86f785ba4" target="_top" xlink:title="pbuf_alloc">
<polygon fill="#ffffff" stroke="#000000" points="586,-223.6516 586,-242.6516 648,-242.6516 648,-223.6516 586,-223.6516"/>
<text text-anchor="middle" x="617" y="-230.6516" font-family="Helvetica,sans-Serif" font-size="10.00" fill="#000000">pbuf_alloc</text>
</a>
</g>
</g>
<!-- Node326&#45;&gt;Node331 -->
<g id="edge37" class="edge">
<title>Node326&#45;&gt;Node331</title>
<path fill="none" stroke="#191970" d="M199.1783,-185.659C219.0899,-195.0219 251.4088,-208.8131 281,-215.1516 385.4304,-237.5204 512.0662,-237.12 575.9309,-235.0634"/>
<polygon fill="#191970" stroke="#191970" points="576.1284,-238.5587 585.9987,-234.7081 575.8814,-231.563 576.1284,-238.5587"/>
</g>
<!-- Node340 -->
<g id="node21" class="node">
<title>Node340</title>
<g id="a_node21"><a xlink:href="user__interface_8h.html#a48d756265c0c1c35ba1fba102efe4d0a" target="_top" xlink:title="wifi_get_opmode">
<polygon fill="#ffffff" stroke="#000000" points="571,-185.6516 571,-204.6516 663,-204.6516 663,-185.6516 571,-185.6516"/>
<text text-anchor="middle" x="617" y="-192.6516" font-family="Helvetica,sans-Serif" font-size="10.00" fill="#000000">wifi_get_opmode</text>
</a>
</g>
</g>
<!-- Node326&#45;&gt;Node340 -->
<g id="edge40" class="edge">
<title>Node326&#45;&gt;Node340</title>
<path fill="none" stroke="#191970" d="M214.7541,-185.6521C234.0935,-190.4491 258.6965,-195.7506 281,-198.1516 378.8607,-208.6861 493.6783,-204.0314 560.5922,-199.6331"/>
<polygon fill="#191970" stroke="#191970" points="561.1706,-203.102 570.9102,-198.9318 560.6958,-196.1181 561.1706,-203.102"/>
</g>
<!-- Node341 -->
<g id="node22" class="node">
<title>Node341</title>
<g id="a_node22"><a xlink:href="pbuf_8h.html#a5aed441d496f607ad88ae1db2084c2d6" target="_top" xlink:title="pbuf_copy">
<polygon fill="#ffffff" stroke="#000000" points="585.5,-147.6516 585.5,-166.6516 648.5,-166.6516 648.5,-147.6516 585.5,-147.6516"/>
<text text-anchor="middle" x="617" y="-154.6516" font-family="Helvetica,sans-Serif" font-size="10.00" fill="#000000">pbuf_copy</text>
</a>
</g>
</g>
<!-- Node326&#45;&gt;Node341 -->
<g id="edge38" class="edge">
<title>Node326&#45;&gt;Node341</title>
<path fill="none" stroke="#191970" d="M230.7632,-179.7616C299.8508,-183.853 427.23,-188.4739 535,-176.1516 548.2891,-174.6321 562.558,-171.7703 575.4073,-168.7202"/>
<polygon fill="#191970" stroke="#191970" points="576.496,-172.0564 585.3619,-166.2558 574.8138,-165.2615 576.496,-172.0564"/>
</g>
<!-- Node342 -->
<g id="node23" class="node">
<title>Node342</title>
<g id="a_node23"><a xlink:href="netif_8h.html#adf60dd30848a63ce3a1339c98c098acc" target="_top" xlink:title="netif_set_default">
<polygon fill="#ffffff" stroke="#000000" points="572,-109.6516 572,-128.6516 662,-128.6516 662,-109.6516 572,-109.6516"/>
<text text-anchor="middle" x="617" y="-116.6516" font-family="Helvetica,sans-Serif" font-size="10.00" fill="#000000">netif_set_default</text>
</a>
</g>
</g>
<!-- Node326&#45;&gt;Node342 -->
<g id="edge36" class="edge">
<title>Node326&#45;&gt;Node342</title>
<path fill="none" stroke="#191970" d="M193.7966,-166.5514C229.3573,-142.5174 327.883,-80.381 421,-62.1516 470.7228,-52.4174 488.4563,-42.1316 535,-62.1516 556.3713,-71.344 551.8261,-86.9759 571,-100.1516 573.5525,-101.9056 576.2921,-103.5409 579.1162,-105.0563"/>
<polygon fill="#191970" stroke="#191970" points="577.7719,-108.2938 588.2993,-109.4873 580.8139,-101.9893 577.7719,-108.2938"/>
</g>
<!-- Node343 -->
<g id="node24" class="node">
<title>Node343</title>
<g id="a_node24"><a xlink:href="pbuf_8h.html#a0d26e00e2cf975274139d27ddabd7ed3" target="_top" xlink:title="pbuf_free">
<polygon fill="#ffffff" stroke="#000000" points="587.5,-33.6516 587.5,-52.6516 646.5,-52.6516 646.5,-33.6516 587.5,-33.6516"/>
<text text-anchor="middle" x="617" y="-40.6516" font-family="Helvetica,sans-Serif" font-size="10.00" fill="#000000">pbuf_free</text>
</a>
</g>
</g>
<!-- Node326&#45;&gt;Node343 -->
<g id="edge39" class="edge">
<title>Node326&#45;&gt;Node343</title>
<path fill="none" stroke="#191970" d="M183.0375,-166.5285C192.3564,-138.8558 223.4574,-59.0752 281,-28.1516 378.8896,24.4547 516.9346,-9.4476 581.3269,-30.3072"/>
<polygon fill="#191970" stroke="#191970" points="580.4181,-33.6933 591.0117,-33.5277 582.627,-27.051 580.4181,-33.6933"/>
</g>
<!-- Node329 -->
<g id="node10" class="node">
<title>Node329</title>
<g id="a_node10"><a xlink:href="espconn__udp_8c.html#acf012530a067499d3c1f70091f09427f" target="_top" xlink:title="espconn_data_sentcb">
<polygon fill="#ffffff" stroke="#000000" points="421,-71.6516 421,-90.6516 535,-90.6516 535,-71.6516 421,-71.6516"/>
<text text-anchor="middle" x="478" y="-78.6516" font-family="Helvetica,sans-Serif" font-size="10.00" fill="#000000">espconn_data_sentcb</text>
</a>
</g>
</g>
<!-- Node328&#45;&gt;Node329 -->
<g id="edge9" class="edge">
<title>Node328&#45;&gt;Node329</title>
<path fill="none" stroke="#191970" d="M353.7733,-128.5809C371.4754,-120.5706 397.6797,-109.0545 421,-100.1516 426.4938,-98.0542 432.3322,-95.9592 438.0969,-93.9672"/>
<polygon fill="#191970" stroke="#191970" points="439.3065,-97.2529 447.6552,-90.7298 437.0609,-90.6228 439.3065,-97.2529"/>
</g>
<!-- Node330 -->
<g id="node11" class="node">
<title>Node330</title>
<g id="a_node11"><a xlink:href="espconn__udp_8c.html#ac963eff73234530596d6c02e6bb05e09" target="_top" xlink:title="espconn_udp_sent">
<polygon fill="#ffffff" stroke="#000000" points="427.5,-147.6516 427.5,-166.6516 528.5,-166.6516 528.5,-147.6516 427.5,-147.6516"/>
<text text-anchor="middle" x="478" y="-154.6516" font-family="Helvetica,sans-Serif" font-size="10.00" fill="#000000">espconn_udp_sent</text>
</a>
</g>
</g>
<!-- Node328&#45;&gt;Node330 -->
<g id="edge10" class="edge">
<title>Node328&#45;&gt;Node330</title>
<path fill="none" stroke="#191970" d="M385.3483,-138.4983C402.6497,-140.348 421.6143,-142.9662 437.8542,-145.778"/>
<polygon fill="#191970" stroke="#191970" points="437.6216,-149.2933 448.0878,-147.6475 438.8796,-142.4073 437.6216,-149.2933"/>
</g>
<!-- Node344 -->
<g id="node25" class="node">
<title>Node344</title>
<g id="a_node25"><a xlink:href="espconn__udp_8c.html#a01fa0df74518311e3eb03f2d955f9f26" target="_top" xlink:title="espconn_udp_sendto">
<polygon fill="#ffffff" stroke="#000000" points="422,-109.6516 422,-128.6516 534,-128.6516 534,-109.6516 422,-109.6516"/>
<text text-anchor="middle" x="478" y="-116.6516" font-family="Helvetica,sans-Serif" font-size="10.00" fill="#000000">espconn_udp_sendto</text>
</a>
</g>
</g>
<!-- Node328&#45;&gt;Node344 -->
<g id="edge28" class="edge">
<title>Node328&#45;&gt;Node344</title>
<path fill="none" stroke="#191970" d="M363.0441,-128.622C377.2593,-125.8775 394.8368,-123.1963 411.9333,-121.0822"/>
<polygon fill="#191970" stroke="#191970" points="412.3929,-124.5524 421.9149,-119.9068 411.5742,-117.6004 412.3929,-124.5524"/>
</g>
<!-- Node330&#45;&gt;Node327 -->
<g id="edge20" class="edge">
<title>Node330&#45;&gt;Node327</title>
<path fill="none" stroke="#191970" d="M515.3915,-147.6258C522.1909,-145.0885 529.0171,-141.9618 535,-138.1516 554.6229,-125.6545 551.8261,-113.3272 571,-100.1516 573.5525,-98.3975 576.2921,-96.7622 579.1162,-95.2468"/>
<polygon fill="#191970" stroke="#191970" points="580.8139,-98.3138 588.2993,-90.8158 577.7719,-92.0093 580.8139,-98.3138"/>
</g>
<!-- Node330&#45;&gt;Node328 -->
<g id="edge27" class="edge">
<title>Node330&#45;&gt;Node328</title>
<path fill="none" stroke="#191970" d="M427.4387,-156.9937C409.6444,-155.1338 389.9035,-152.4281 373.0906,-149.5156"/>
<polygon fill="#191970" stroke="#191970" points="373.5102,-146.0344 363.0441,-147.6811 372.2527,-152.9205 373.5102,-146.0344"/>
</g>
<!-- Node330&#45;&gt;Node331 -->
<g id="edge11" class="edge">
<title>Node330&#45;&gt;Node331</title>
<path fill="none" stroke="#191970" d="M492.0916,-166.7631C509.9683,-178.7255 541.9714,-199.3776 571,-214.1516 574.6217,-215.9948 578.4652,-217.802 582.3268,-219.5243"/>
<polygon fill="#191970" stroke="#191970" points="581.2768,-222.8821 591.8471,-223.6025 584.0332,-216.4476 581.2768,-222.8821"/>
</g>
<!-- Node330&#45;&gt;Node340 -->
<g id="edge21" class="edge">
<title>Node330&#45;&gt;Node340</title>
<path fill="none" stroke="#191970" d="M513.0756,-166.7406C531.0191,-171.646 553.0584,-177.6711 572.2167,-182.9086"/>
<polygon fill="#191970" stroke="#191970" points="571.3666,-186.3046 581.9357,-185.5656 573.2126,-179.5524 571.3666,-186.3046"/>
</g>
<!-- Node330&#45;&gt;Node341 -->
<g id="edge22" class="edge">
<title>Node330&#45;&gt;Node341</title>
<path fill="none" stroke="#191970" d="M528.5754,-157.1516C543.8164,-157.1516 560.3718,-157.1516 574.9921,-157.1516"/>
<polygon fill="#191970" stroke="#191970" points="575.2495,-160.6517 585.2495,-157.1516 575.2494,-153.6517 575.2495,-160.6517"/>
</g>
<!-- Node330&#45;&gt;Node342 -->
<g id="edge23" class="edge">
<title>Node330&#45;&gt;Node342</title>
<path fill="none" stroke="#191970" d="M513.0756,-147.5625C531.0191,-142.6571 553.0584,-136.632 572.2167,-131.3945"/>
<polygon fill="#191970" stroke="#191970" points="573.2126,-134.7507 581.9357,-128.7375 571.3666,-127.9985 573.2126,-134.7507"/>
</g>
<!-- Node330&#45;&gt;Node343 -->
<g id="edge24" class="edge">
<title>Node330&#45;&gt;Node343</title>
<path fill="none" stroke="#191970" d="M520.0054,-147.5749C525.4413,-145.1139 530.628,-142.0256 535,-138.1516 562.9735,-113.364 543.9104,-87.9021 571,-62.1516 573.2448,-60.0178 575.7627,-58.109 578.4333,-56.4041"/>
<polygon fill="#191970" stroke="#191970" points="580.1792,-59.4394 587.3358,-51.627 576.8693,-53.2713 580.1792,-59.4394"/>
</g>
<!-- Node332 -->
<g id="node13" class="node">
<title>Node332</title>
<g id="a_node13"><a xlink:href="esp-open-lwip_2include_2lwip_2mem_8h.html#a1cb005c6c44b685b8025b329a6d2bcd4" target="_top" xlink:title="mem_malloc">
<polygon fill="#ffffff" stroke="#000000" points="702,-242.6516 702,-261.6516 775,-261.6516 775,-242.6516 702,-242.6516"/>
<text text-anchor="middle" x="738.5" y="-249.6516" font-family="Helvetica,sans-Serif" font-size="10.00" fill="#000000">mem_malloc</text>
</a>
</g>
</g>
<!-- Node331&#45;&gt;Node332 -->
<g id="edge12" class="edge">
<title>Node331&#45;&gt;Node332</title>
<path fill="none" stroke="#191970" d="M648.2893,-238.0445C661.4156,-240.0972 676.9631,-242.5285 691.4211,-244.7894"/>
<polygon fill="#191970" stroke="#191970" points="691.2852,-248.3106 701.706,-246.3978 692.3668,-241.3947 691.2852,-248.3106"/>
</g>
<!-- Node335 -->
<g id="node16" class="node">
<title>Node335</title>
<g id="a_node16"><a xlink:href="memp_8h.html#a5b98c976852aa0eabda9fd588be56eb8" target="_top" xlink:title="memp_malloc">
<polygon fill="#ffffff" stroke="#000000" points="699,-204.6516 699,-223.6516 778,-223.6516 778,-204.6516 699,-204.6516"/>
<text text-anchor="middle" x="738.5" y="-211.6516" font-family="Helvetica,sans-Serif" font-size="10.00" fill="#000000">memp_malloc</text>
</a>
</g>
</g>
<!-- Node331&#45;&gt;Node335 -->
<g id="edge15" class="edge">
<title>Node331&#45;&gt;Node335</title>
<path fill="none" stroke="#191970" d="M648.2893,-228.2586C660.5037,-226.3485 674.8147,-224.1106 688.3934,-221.9872"/>
<polygon fill="#191970" stroke="#191970" points="689.2484,-225.3961 698.5875,-220.393 688.1668,-218.4801 689.2484,-225.3961"/>
</g>
<!-- Node336 -->
<g id="node17" class="node">
<title>Node336</title>
<g id="a_node17"><a xlink:href="pbuf_8c.html#ab0dd696fb4b6bc65e548944584f1738b" target="_top" xlink:title="pbuf_free">
<polygon fill="#ffffff" stroke="#000000" points="709,-71.6516 709,-90.6516 768,-90.6516 768,-71.6516 709,-71.6516"/>
<text text-anchor="middle" x="738.5" y="-78.6516" font-family="Helvetica,sans-Serif" font-size="10.00" fill="#000000">pbuf_free</text>
</a>
</g>
</g>
<!-- Node331&#45;&gt;Node336 -->
<g id="edge16" class="edge">
<title>Node331&#45;&gt;Node336</title>
<path fill="none" stroke="#191970" d="M648.3383,-223.5249C653.5958,-221.0158 658.7243,-217.9251 663,-214.1516 699.0102,-182.3705 721.8268,-129.0972 732.1156,-100.5726"/>
<polygon fill="#191970" stroke="#191970" points="735.4834,-101.5433 735.4469,-90.9485 728.8684,-99.2535 735.4834,-101.5433"/>
</g>
<!-- Node333 -->
<g id="node14" class="node">
<title>Node333</title>
<g id="a_node14"><a xlink:href="sys_8h.html#a4d4eb9afe5965fa2661dd54ff55d616a" target="_top" xlink:title="sys_mutex_lock">
<polygon fill="#ffffff" stroke="#000000" points="819.5,-261.6516 819.5,-280.6516 907.5,-280.6516 907.5,-261.6516 819.5,-261.6516"/>
<text text-anchor="middle" x="863.5" y="-268.6516" font-family="Helvetica,sans-Serif" font-size="10.00" fill="#000000">sys_mutex_lock</text>
</a>
</g>
</g>
<!-- Node332&#45;&gt;Node333 -->
<g id="edge13" class="edge">
<title>Node332&#45;&gt;Node333</title>
<path fill="none" stroke="#191970" d="M775.328,-257.7494C786.0223,-259.3749 797.9304,-261.185 809.4484,-262.9357"/>
<polygon fill="#191970" stroke="#191970" points="809.0172,-266.4103 819.4297,-264.4529 810.0692,-259.4898 809.0172,-266.4103"/>
</g>
<!-- Node334 -->
<g id="node15" class="node">
<title>Node334</title>
<g id="a_node15"><a xlink:href="sys_8h.html#a5568f68898fe9d5735f9ce2f665624fb" target="_top" xlink:title="sys_mutex_unlock">
<polygon fill="#ffffff" stroke="#000000" points="814,-223.6516 814,-242.6516 913,-242.6516 913,-223.6516 814,-223.6516"/>
<text text-anchor="middle" x="863.5" y="-230.6516" font-family="Helvetica,sans-Serif" font-size="10.00" fill="#000000">sys_mutex_unlock</text>
</a>
</g>
</g>
<!-- Node332&#45;&gt;Node334 -->
<g id="edge14" class="edge">
<title>Node332&#45;&gt;Node334</title>
<path fill="none" stroke="#191970" d="M775.328,-246.5537C784.3075,-245.1888 794.1426,-243.6939 803.8841,-242.2132"/>
<polygon fill="#191970" stroke="#191970" points="804.6016,-245.6444 813.962,-240.6813 803.5496,-238.7239 804.6016,-245.6444"/>
</g>
<!-- Node337 -->
<g id="node18" class="node">
<title>Node337</title>
<g id="a_node18"><a xlink:href="memp_8h.html#a9d30a969401eb0626105950d6e63f3bf" target="_top" xlink:title="memp_free">
<polygon fill="#ffffff" stroke="#000000" points="830,-109.6516 830,-128.6516 897,-128.6516 897,-109.6516 830,-109.6516"/>
<text text-anchor="middle" x="863.5" y="-116.6516" font-family="Helvetica,sans-Serif" font-size="10.00" fill="#000000">memp_free</text>
</a>
</g>
</g>
<!-- Node336&#45;&gt;Node337 -->
<g id="edge17" class="edge">
<title>Node336&#45;&gt;Node337</title>
<path fill="none" stroke="#191970" d="M768.1233,-90.157C784.1766,-95.0373 804.2755,-101.1473 821.878,-106.4985"/>
<polygon fill="#191970" stroke="#191970" points="821.3185,-109.9865 831.9042,-109.5464 823.3546,-103.2891 821.3185,-109.9865"/>
</g>
<!-- Node338 -->
<g id="node19" class="node">
<title>Node338</title>
<g id="a_node19"><a xlink:href="esp-open-lwip_2include_2lwip_2mem_8h.html#ab270bbe39e1996d7095be3a139620ce0" target="_top" xlink:title="mem_free">
<polygon fill="#ffffff" stroke="#000000" points="832.5,-52.6516 832.5,-71.6516 894.5,-71.6516 894.5,-52.6516 832.5,-52.6516"/>
<text text-anchor="middle" x="863.5" y="-59.6516" font-family="Helvetica,sans-Serif" font-size="10.00" fill="#000000">mem_free</text>
</a>
</g>
</g>
<!-- Node336&#45;&gt;Node338 -->
<g id="edge18" class="edge">
<title>Node336&#45;&gt;Node338</title>
<path fill="none" stroke="#191970" d="M768.1233,-76.6488C784.2973,-74.1904 804.5779,-71.1077 822.2746,-68.4178"/>
<polygon fill="#191970" stroke="#191970" points="822.9846,-71.8502 832.345,-66.8871 821.9326,-64.9297 822.9846,-71.8502"/>
</g>
<!-- Node339 -->
<g id="node20" class="node">
<title>Node339</title>
<g id="a_node20"><a xlink:href="mem_8c.html#a24221009a2c00e9c3fa63eaa9444a076" target="_top" xlink:title="plug_holes">
<polygon fill="#ffffff" stroke="#000000" points="949,-52.6516 949,-71.6516 1014,-71.6516 1014,-52.6516 949,-52.6516"/>
<text text-anchor="middle" x="981.5" y="-59.6516" font-family="Helvetica,sans-Serif" font-size="10.00" fill="#000000">plug_holes</text>
</a>
</g>
</g>
<!-- Node338&#45;&gt;Node339 -->
<g id="edge19" class="edge">
<title>Node338&#45;&gt;Node339</title>
<path fill="none" stroke="#191970" d="M894.5031,-62.1516C907.9102,-62.1516 923.8283,-62.1516 938.3598,-62.1516"/>
<polygon fill="#191970" stroke="#191970" points="938.6403,-65.6517 948.6402,-62.1516 938.6402,-58.6517 938.6403,-65.6517"/>
</g>
<!-- Node343&#45;&gt;Node337 -->
<g id="edge26" class="edge">
<title>Node343&#45;&gt;Node337</title>
<path fill="none" stroke="#191970" d="M645.7007,-52.8158C651.6635,-55.4151 657.7303,-58.5304 663,-62.1516 682.1739,-75.3272 678.1922,-89.7462 699,-100.1516 736.6335,-118.971 785.004,-122.482 819.5336,-122.0374"/>
<polygon fill="#191970" stroke="#191970" points="819.8674,-125.5304 829.7781,-121.785 819.6949,-118.5325 819.8674,-125.5304"/>
</g>
<!-- Node343&#45;&gt;Node338 -->
<g id="edge25" class="edge">
<title>Node343&#45;&gt;Node338</title>
<path fill="none" stroke="#191970" d="M646.7337,-45.4434C690.6072,-48.8251 772.834,-55.1631 822.4346,-58.9863"/>
<polygon fill="#191970" stroke="#191970" points="822.2586,-62.483 832.4981,-59.762 822.7967,-55.5037 822.2586,-62.483"/>
</g>
<!-- Node344&#45;&gt;Node327 -->
<g id="edge30" class="edge">
<title>Node344&#45;&gt;Node327</title>
<path fill="none" stroke="#191970" d="M513.0756,-109.5625C531.0191,-104.6571 553.0584,-98.632 572.2167,-93.3945"/>
<polygon fill="#191970" stroke="#191970" points="573.2126,-96.7507 581.9357,-90.7375 571.3666,-89.9985 573.2126,-96.7507"/>
</g>
<!-- Node344&#45;&gt;Node328 -->
<g id="edge35" class="edge">
<title>Node344&#45;&gt;Node328</title>
<path fill="none" stroke="#191970" d="M448.0878,-128.6556C432.8283,-131.6065 413.6692,-134.4859 395.3855,-136.6682"/>
<polygon fill="#191970" stroke="#191970" points="394.891,-133.2017 385.3483,-137.8048 395.6787,-140.1573 394.891,-133.2017"/>
</g>
<!-- Node344&#45;&gt;Node331 -->
<g id="edge29" class="edge">
<title>Node344&#45;&gt;Node331</title>
<path fill="none" stroke="#191970" d="M520.0054,-128.7282C525.4413,-131.1892 530.628,-134.2775 535,-138.1516 562.9735,-162.9391 543.9104,-188.401 571,-214.1516 572.8631,-215.9226 574.9144,-217.5386 577.0851,-219.0117"/>
<polygon fill="#191970" stroke="#191970" points="575.4772,-222.1234 585.9026,-224.0105 578.9295,-216.0339 575.4772,-222.1234"/>
</g>
<!-- Node344&#45;&gt;Node340 -->
<g id="edge31" class="edge">
<title>Node344&#45;&gt;Node340</title>
<path fill="none" stroke="#191970" d="M515.3915,-128.6773C522.1909,-131.2146 529.0171,-134.3413 535,-138.1516 554.6229,-150.6486 551.8261,-162.9759 571,-176.1516 573.5525,-177.9056 576.2921,-179.5409 579.1162,-181.0563"/>
<polygon fill="#191970" stroke="#191970" points="577.7719,-184.2938 588.2993,-185.4873 580.8139,-177.9893 577.7719,-184.2938"/>
</g>
<!-- Node344&#45;&gt;Node341 -->
<g id="edge32" class="edge">
<title>Node344&#45;&gt;Node341</title>
<path fill="none" stroke="#191970" d="M513.0756,-128.7406C532.0647,-133.9318 555.6407,-140.3771 575.5349,-145.8158"/>
<polygon fill="#191970" stroke="#191970" points="574.694,-149.2143 585.2631,-148.4753 576.54,-142.462 574.694,-149.2143"/>
</g>
<!-- Node344&#45;&gt;Node342 -->
<g id="edge33" class="edge">
<title>Node344&#45;&gt;Node342</title>
<path fill="none" stroke="#191970" d="M534.136,-119.1516C543.2235,-119.1516 552.6278,-119.1516 561.6954,-119.1516"/>
<polygon fill="#191970" stroke="#191970" points="561.7552,-122.6517 571.7551,-119.1516 561.7551,-115.6517 561.7552,-122.6517"/>
</g>
<!-- Node344&#45;&gt;Node343 -->
<g id="edge34" class="edge">
<title>Node344&#45;&gt;Node343</title>
<path fill="none" stroke="#191970" d="M515.3915,-109.6258C522.1909,-107.0885 529.0171,-103.9618 535,-100.1516 554.6229,-87.6545 551.8261,-75.3272 571,-62.1516 573.5525,-60.3975 576.2921,-58.7622 579.1162,-57.2468"/>
<polygon fill="#191970" stroke="#191970" points="580.8139,-60.3138 588.2993,-52.8158 577.7719,-54.0093 580.8139,-60.3138"/>
</g>
</g>
</svg>
