<?xml version="1.0" encoding="UTF-8" standalone="no"?>
<!DOCTYPE svg PUBLIC "-//W3C//DTD SVG 1.1//EN"
 "http://www.w3.org/Graphics/SVG/1.1/DTD/svg11.dtd">
<!-- Generated by graphviz version 2.41.20170323.1842 (20170323.1842)
 -->
<!-- Title: espconn_Task Pages: 1 -->
<svg width="666pt" height="180pt"
 viewBox="0.00 0.00 666.00 180.00" xmlns="http://www.w3.org/2000/svg" xmlns:xlink="http://www.w3.org/1999/xlink">
<g id="graph0" class="graph" transform="scale(1 1) rotate(0) translate(4 176)">
<title>espconn_Task</title>
<polygon fill="#ffffff" stroke="transparent" points="-4,4 -4,-176 662,-176 662,4 -4,4"/>
<!-- Node185 -->
<g id="node1" class="node">
<title>Node185</title>
<polygon fill="#bfbfbf" stroke="#000000" points="0,-79.5 0,-98.5 82,-98.5 82,-79.5 0,-79.5"/>
<text text-anchor="middle" x="41" y="-86.5" font-family="Helvetica,sans-Serif" font-size="10.00" fill="#000000">espconn_Task</text>
</g>
<!-- Node186 -->
<g id="node2" class="node">
<title>Node186</title>
<g id="a_node2"><a xlink:href="esp-open-lwip_2include_2lwip_2app_2espconn_8h.html#a21fdb0b0c880a693e29905894bd60afb" target="_top" xlink:title="espconn_list_delete">
<polygon fill="#ffffff" stroke="#000000" points="129,-123.5 129,-142.5 234,-142.5 234,-123.5 129,-123.5"/>
<text text-anchor="middle" x="181.5" y="-130.5" font-family="Helvetica,sans-Serif" font-size="10.00" fill="#000000">espconn_list_delete</text>
</a>
</g>
</g>
<!-- Node185&#45;&gt;Node186 -->
<g id="edge1" class="edge">
<title>Node185&#45;&gt;Node186</title>
<path fill="none" stroke="#191970" d="M71.4864,-98.5473C91.923,-104.9474 119.0541,-113.444 141.2591,-120.3979"/>
<polygon fill="#191970" stroke="#191970" points="140.4841,-123.8227 151.0731,-123.4713 142.5761,-117.1426 140.4841,-123.8227"/>
</g>
<!-- Node187 -->
<g id="node3" class="node">
<title>Node187</title>
<g id="a_node3"><a xlink:href="espconn__tcp_8c.html#a20affdc6c469b20f65d27e24d6ba6bc1" target="_top" xlink:title="espconn_tcp_disconnect\l_successful">
<polygon fill="#ffffff" stroke="#000000" points="118,-74 118,-104 245,-104 245,-74 118,-74"/>
<text text-anchor="start" x="126" y="-92" font-family="Helvetica,sans-Serif" font-size="10.00" fill="#000000">espconn_tcp_disconnect</text>
<text text-anchor="middle" x="181.5" y="-81" font-family="Helvetica,sans-Serif" font-size="10.00" fill="#000000">_successful</text>
</a>
</g>
</g>
<!-- Node185&#45;&gt;Node187 -->
<g id="edge2" class="edge">
<title>Node185&#45;&gt;Node187</title>
<path fill="none" stroke="#191970" d="M82.0161,-89C90.1962,-89 99.0199,-89 107.9151,-89"/>
<polygon fill="#191970" stroke="#191970" points="107.9579,-92.5001 117.9579,-89 107.9578,-85.5001 107.9579,-92.5001"/>
</g>
<!-- Node194 -->
<g id="node10" class="node">
<title>Node194</title>
<g id="a_node10"><a xlink:href="espconn__tcp_8c.html#ae7340333afa97bbdba4ae018539f8a1a" target="_top" xlink:title="espconn_tcp_reconnect">
<polygon fill="#ffffff" stroke="#000000" points="120,-35.5 120,-54.5 243,-54.5 243,-35.5 120,-35.5"/>
<text text-anchor="middle" x="181.5" y="-42.5" font-family="Helvetica,sans-Serif" font-size="10.00" fill="#000000">espconn_tcp_reconnect</text>
</a>
</g>
</g>
<!-- Node185&#45;&gt;Node194 -->
<g id="edge10" class="edge">
<title>Node185&#45;&gt;Node194</title>
<path fill="none" stroke="#191970" d="M69.8355,-79.4625C84.2724,-74.7322 102.0332,-68.98 118,-64 124.9482,-61.8329 132.3393,-59.5768 139.5303,-57.408"/>
<polygon fill="#191970" stroke="#191970" points="140.5794,-60.7474 149.1517,-54.5212 138.5677,-54.0427 140.5794,-60.7474"/>
</g>
<!-- Node188 -->
<g id="node4" class="node">
<title>Node188</title>
<g id="a_node4"><a xlink:href="espconn__tcp_8c.html#adb05495795be756c94becac3022d61ae" target="_top" xlink:title="espconn_kill_oldest_pcb">
<polygon fill="#ffffff" stroke="#000000" points="285.5,-76.5 285.5,-95.5 410.5,-95.5 410.5,-76.5 285.5,-76.5"/>
<text text-anchor="middle" x="348" y="-83.5" font-family="Helvetica,sans-Serif" font-size="10.00" fill="#000000">espconn_kill_oldest_pcb</text>
</a>
</g>
</g>
<!-- Node187&#45;&gt;Node188 -->
<g id="edge3" class="edge">
<title>Node187&#45;&gt;Node188</title>
<path fill="none" stroke="#191970" d="M245.3971,-87.8487C255.1302,-87.6733 265.2369,-87.4912 275.1441,-87.3127"/>
<polygon fill="#191970" stroke="#191970" points="275.437,-90.8081 285.3723,-87.1284 275.3108,-83.8092 275.437,-90.8081"/>
</g>
<!-- Node190 -->
<g id="node6" class="node">
<title>Node190</title>
<g id="a_node6"><a xlink:href="memp_8h.html#a9d30a969401eb0626105950d6e63f3bf" target="_top" xlink:title="memp_free">
<polygon fill="#ffffff" stroke="#000000" points="591,-95.5 591,-114.5 658,-114.5 658,-95.5 591,-95.5"/>
<text text-anchor="middle" x="624.5" y="-102.5" font-family="Helvetica,sans-Serif" font-size="10.00" fill="#000000">memp_free</text>
</a>
</g>
</g>
<!-- Node187&#45;&gt;Node190 -->
<g id="edge8" class="edge">
<title>Node187&#45;&gt;Node190</title>
<path fill="none" stroke="#191970" d="M245.0137,-100.7593C256.9306,-102.5257 269.3148,-104.0665 281,-105 388.2728,-113.5699 514.9917,-110.058 580.4397,-107.2389"/>
<polygon fill="#191970" stroke="#191970" points="580.9528,-110.7196 590.7866,-106.7768 580.6404,-103.7266 580.9528,-110.7196"/>
</g>
<!-- Node191 -->
<g id="node7" class="node">
<title>Node191</title>
<g id="a_node7"><a xlink:href="esp-open-lwip_2include_2lwip_2app_2espconn_8h.html#a760ff135a8707ff3f481ba00d7312011" target="_top" xlink:title="espconn_copy_partial">
<polygon fill="#ffffff" stroke="#000000" points="291,-38.5 291,-57.5 405,-57.5 405,-38.5 291,-38.5"/>
<text text-anchor="middle" x="348" y="-45.5" font-family="Helvetica,sans-Serif" font-size="10.00" fill="#000000">espconn_copy_partial</text>
</a>
</g>
</g>
<!-- Node187&#45;&gt;Node191 -->
<g id="edge6" class="edge">
<title>Node187&#45;&gt;Node191</title>
<path fill="none" stroke="#191970" d="M242.553,-73.9659C261.1731,-69.3808 281.3915,-64.4021 299.0966,-60.0423"/>
<polygon fill="#191970" stroke="#191970" points="300.3265,-63.3441 309.1995,-57.5545 298.6527,-56.5471 300.3265,-63.3441"/>
</g>
<!-- Node192 -->
<g id="node8" class="node">
<title>Node192</title>
<g id="a_node8"><a xlink:href="espconn__tcp_8c.html#a3bdf31bbcdc7559b29999c4439ebd50b" target="_top" xlink:title="espconn_find_current_pcb">
<polygon fill="#ffffff" stroke="#000000" points="281,-152.5 281,-171.5 415,-171.5 415,-152.5 281,-152.5"/>
<text text-anchor="middle" x="348" y="-159.5" font-family="Helvetica,sans-Serif" font-size="10.00" fill="#000000">espconn_find_current_pcb</text>
</a>
</g>
</g>
<!-- Node187&#45;&gt;Node192 -->
<g id="edge7" class="edge">
<title>Node187&#45;&gt;Node192</title>
<path fill="none" stroke="#191970" d="M223.3994,-104.027C230.7215,-107.0661 238.1746,-110.4333 245,-114 262.0429,-122.906 263.8207,-129.3601 281,-138 289.1002,-142.0738 298.0619,-145.7842 306.7256,-149.0047"/>
<polygon fill="#191970" stroke="#191970" points="305.724,-152.3634 316.3187,-152.4259 308.0754,-145.7701 305.724,-152.3634"/>
</g>
<!-- Node193 -->
<g id="node9" class="node">
<title>Node193</title>
<g id="a_node9"><a xlink:href="espconn_8c.html#a5c499e423f91737c0214031fd67fdb1f" target="_top" xlink:title="espconn_pbuf_delete">
<polygon fill="#ffffff" stroke="#000000" points="292,-.5 292,-19.5 404,-19.5 404,-.5 292,-.5"/>
<text text-anchor="middle" x="348" y="-7.5" font-family="Helvetica,sans-Serif" font-size="10.00" fill="#000000">espconn_pbuf_delete</text>
</a>
</g>
</g>
<!-- Node187&#45;&gt;Node193 -->
<g id="edge9" class="edge">
<title>Node187&#45;&gt;Node193</title>
<path fill="none" stroke="#191970" d="M226.3372,-73.9563C232.8096,-71.048 239.2265,-67.7267 245,-64 263.7488,-51.8981 261.6768,-40.162 281,-29 284.7101,-26.8569 288.6769,-24.943 292.7583,-23.236"/>
<polygon fill="#191970" stroke="#191970" points="294.2845,-26.4019 302.4224,-19.6178 291.83,-19.8463 294.2845,-26.4019"/>
</g>
<!-- Node189 -->
<g id="node5" class="node">
<title>Node189</title>
<g id="a_node5"><a xlink:href="espconn__tcp_8c.html#a8728693719a51cc1fbe3ef775ceaaa67" target="_top" xlink:title="espconn_kill_oldest">
<polygon fill="#ffffff" stroke="#000000" points="451,-76.5 451,-95.5 555,-95.5 555,-76.5 451,-76.5"/>
<text text-anchor="middle" x="503" y="-83.5" font-family="Helvetica,sans-Serif" font-size="10.00" fill="#000000">espconn_kill_oldest</text>
</a>
</g>
</g>
<!-- Node188&#45;&gt;Node189 -->
<g id="edge4" class="edge">
<title>Node188&#45;&gt;Node189</title>
<path fill="none" stroke="#191970" d="M410.5977,-86C420.4503,-86 430.6369,-86 440.4876,-86"/>
<polygon fill="#191970" stroke="#191970" points="440.6035,-89.5001 450.6034,-86 440.6034,-82.5001 440.6035,-89.5001"/>
</g>
<!-- Node189&#45;&gt;Node190 -->
<g id="edge5" class="edge">
<title>Node189&#45;&gt;Node190</title>
<path fill="none" stroke="#191970" d="M555.2321,-94.168C563.8285,-95.5123 572.6571,-96.8929 581.0109,-98.1992"/>
<polygon fill="#191970" stroke="#191970" points="580.4969,-101.6613 590.9176,-99.7484 581.5784,-94.7454 580.4969,-101.6613"/>
</g>
<!-- Node194&#45;&gt;Node188 -->
<g id="edge11" class="edge">
<title>Node194&#45;&gt;Node188</title>
<path fill="none" stroke="#191970" d="M220.1169,-54.5093C243.7784,-60.3358 274.2696,-67.8442 299.5435,-74.0678"/>
<polygon fill="#191970" stroke="#191970" points="298.7576,-77.4787 309.3044,-76.4714 300.4314,-70.6818 298.7576,-77.4787"/>
</g>
<!-- Node194&#45;&gt;Node191 -->
<g id="edge12" class="edge">
<title>Node194&#45;&gt;Node191</title>
<path fill="none" stroke="#191970" d="M243.0254,-46.1086C255.2562,-46.3289 268.1598,-46.5614 280.5757,-46.7851"/>
<polygon fill="#191970" stroke="#191970" points="280.8034,-50.2897 290.8649,-46.9705 280.9296,-43.2909 280.8034,-50.2897"/>
</g>
<!-- Node194&#45;&gt;Node193 -->
<g id="edge13" class="edge">
<title>Node194&#45;&gt;Node193</title>
<path fill="none" stroke="#191970" d="M226.9969,-35.4361C247.2782,-31.1727 271.3523,-26.1121 292.6657,-21.6318"/>
<polygon fill="#191970" stroke="#191970" points="293.4921,-25.0347 302.5582,-19.5523 292.052,-18.1844 293.4921,-25.0347"/>
</g>
</g>
</svg>
