<?xml version="1.0" encoding="UTF-8" standalone="no"?>
<!DOCTYPE svg PUBLIC "-//W3C//DTD SVG 1.1//EN"
 "http://www.w3.org/Graphics/SVG/1.1/DTD/svg11.dtd">
<!-- Generated by graphviz version 2.41.20170323.1842 (20170323.1842)
 -->
<!-- Title: espconn_tcp_accept Pages: 1 -->
<svg width="384pt" height="28pt"
 viewBox="0.00 0.00 384.00 28.00" xmlns="http://www.w3.org/2000/svg" xmlns:xlink="http://www.w3.org/1999/xlink">
<g id="graph0" class="graph" transform="scale(1 1) rotate(0) translate(4 24)">
<title>espconn_tcp_accept</title>
<polygon fill="#ffffff" stroke="transparent" points="-4,4 -4,-24 380,-24 380,4 -4,4"/>
<!-- Node215 -->
<g id="node1" class="node">
<title>Node215</title>
<polygon fill="#bfbfbf" stroke="#000000" points="0,-.5 0,-19.5 108,-19.5 108,-.5 0,-.5"/>
<text text-anchor="middle" x="54" y="-7.5" font-family="Helvetica,sans-Serif" font-size="10.00" fill="#000000">espconn_tcp_accept</text>
</g>
<!-- Node216 -->
<g id="node2" class="node">
<title>Node216</title>
<g id="a_node2"><a xlink:href="espconn__tcp_8c.html#ace125fa28aced169fba2b955f1ce76fb" target="_top" xlink:title="espconn_tcp_server">
<polygon fill="#ffffff" stroke="#000000" points="144,-.5 144,-19.5 251,-19.5 251,-.5 144,-.5"/>
<text text-anchor="middle" x="197.5" y="-7.5" font-family="Helvetica,sans-Serif" font-size="10.00" fill="#000000">espconn_tcp_server</text>
</a>
</g>
</g>
<!-- Node215&#45;&gt;Node216 -->
<g id="edge1" class="edge">
<title>Node215&#45;&gt;Node216</title>
<path fill="none" stroke="#191970" d="M118.4309,-10C126.8577,-10 135.4206,-10 143.6481,-10"/>
<polygon fill="#191970" stroke="#191970" points="118.2512,-6.5001 108.2512,-10 118.2512,-13.5001 118.2512,-6.5001"/>
</g>
<!-- Node217 -->
<g id="node3" class="node">
<title>Node217</title>
<g id="a_node3"><a xlink:href="sdk_2include_2espconn_8h.html#abd44446e3fc4a61fdef77d473deb678b" target="_top" xlink:title="espconn_accept">
<polygon fill="#ffffff" stroke="#000000" points="287,-.5 287,-19.5 376,-19.5 376,-.5 287,-.5"/>
<text text-anchor="middle" x="331.5" y="-7.5" font-family="Helvetica,sans-Serif" font-size="10.00" fill="#000000">espconn_accept</text>
</a>
</g>
</g>
<!-- Node216&#45;&gt;Node217 -->
<g id="edge2" class="edge">
<title>Node216&#45;&gt;Node217</title>
<path fill="none" stroke="#191970" d="M261.2847,-10C269.9061,-10 278.5987,-10 286.7897,-10"/>
<polygon fill="#191970" stroke="#191970" points="261.2309,-6.5001 251.2308,-10 261.2308,-13.5001 261.2309,-6.5001"/>
</g>
</g>
</svg>
