<?xml version="1.0" encoding="UTF-8" standalone="no"?>
<!DOCTYPE svg PUBLIC "-//W3C//DTD SVG 1.1//EN"
 "http://www.w3.org/Graphics/SVG/1.1/DTD/svg11.dtd">
<!-- Generated by graphviz version 2.41.20170323.1842 (20170323.1842)
 -->
<!-- Title: espconn_client_sent Pages: 1 -->
<svg width="545pt" height="28pt"
 viewBox="0.00 0.00 545.00 28.00" xmlns="http://www.w3.org/2000/svg" xmlns:xlink="http://www.w3.org/1999/xlink">
<g id="graph0" class="graph" transform="scale(1 1) rotate(0) translate(4 24)">
<title>espconn_client_sent</title>
<polygon fill="#ffffff" stroke="transparent" points="-4,4 -4,-24 541,-24 541,4 -4,4"/>
<!-- Node66 -->
<g id="node1" class="node">
<title>Node66</title>
<polygon fill="#bfbfbf" stroke="#000000" points="0,-.5 0,-19.5 108,-19.5 108,-.5 0,-.5"/>
<text text-anchor="middle" x="54" y="-7.5" font-family="Helvetica,sans-Serif" font-size="10.00" fill="#000000">espconn_client_sent</text>
</g>
<!-- Node67 -->
<g id="node2" class="node">
<title>Node67</title>
<g id="a_node2"><a xlink:href="espconn__tcp_8c.html#a86c46016b2975352fa63c06ef75d11dc" target="_top" xlink:title="espconn_client_connect">
<polygon fill="#ffffff" stroke="#000000" points="144,-.5 144,-19.5 268,-19.5 268,-.5 144,-.5"/>
<text text-anchor="middle" x="206" y="-7.5" font-family="Helvetica,sans-Serif" font-size="10.00" fill="#000000">espconn_client_connect</text>
</a>
</g>
</g>
<!-- Node66&#45;&gt;Node67 -->
<g id="edge1" class="edge">
<title>Node66&#45;&gt;Node67</title>
<path fill="none" stroke="#191970" d="M118.2393,-10C126.725,-10 135.4111,-10 143.8606,-10"/>
<polygon fill="#191970" stroke="#191970" points="118.0175,-6.5001 108.0175,-10 118.0175,-13.5001 118.0175,-6.5001"/>
</g>
<!-- Node68 -->
<g id="node3" class="node">
<title>Node68</title>
<g id="a_node3"><a xlink:href="espconn__tcp_8c.html#afe66d17cd3c4b5ca9959287aec4db38b" target="_top" xlink:title="espconn_tcp_client">
<polygon fill="#ffffff" stroke="#000000" points="304,-.5 304,-19.5 406,-19.5 406,-.5 304,-.5"/>
<text text-anchor="middle" x="355" y="-7.5" font-family="Helvetica,sans-Serif" font-size="10.00" fill="#000000">espconn_tcp_client</text>
</a>
</g>
</g>
<!-- Node67&#45;&gt;Node68 -->
<g id="edge2" class="edge">
<title>Node67&#45;&gt;Node68</title>
<path fill="none" stroke="#191970" d="M278.3564,-10C286.939,-10 295.5594,-10 303.7618,-10"/>
<polygon fill="#191970" stroke="#191970" points="278.3261,-6.5001 268.3261,-10 278.326,-13.5001 278.3261,-6.5001"/>
</g>
<!-- Node69 -->
<g id="node4" class="node">
<title>Node69</title>
<g id="a_node4"><a xlink:href="sdk_2include_2espconn_8h.html#a949cd618667cea85b1b99d14b90dce7d" target="_top" xlink:title="espconn_connect">
<polygon fill="#ffffff" stroke="#000000" points="442,-.5 442,-19.5 537,-19.5 537,-.5 442,-.5"/>
<text text-anchor="middle" x="489.5" y="-7.5" font-family="Helvetica,sans-Serif" font-size="10.00" fill="#000000">espconn_connect</text>
</a>
</g>
</g>
<!-- Node68&#45;&gt;Node69 -->
<g id="edge3" class="edge">
<title>Node68&#45;&gt;Node69</title>
<path fill="none" stroke="#191970" d="M416.2586,-10C424.8806,-10 433.6349,-10 441.9487,-10"/>
<polygon fill="#191970" stroke="#191970" points="416.2324,-6.5001 406.2324,-10 416.2323,-13.5001 416.2324,-6.5001"/>
</g>
</g>
</svg>
