<?xml version="1.0" encoding="UTF-8" standalone="no"?>
<!DOCTYPE svg PUBLIC "-//W3C//DTD SVG 1.1//EN"
 "http://www.w3.org/Graphics/SVG/1.1/DTD/svg11.dtd">
<!-- Generated by graphviz version 2.41.20170323.1842 (20170323.1842)
 -->
<!-- Title: espconn_tcp_accept Pages: 1 -->
<svg width="984pt" height="355pt"
 viewBox="0.00 0.00 984.00 355.00" xmlns="http://www.w3.org/2000/svg" xmlns:xlink="http://www.w3.org/1999/xlink">
<g id="graph0" class="graph" transform="scale(1 1) rotate(0) translate(4 351)">
<title>espconn_tcp_accept</title>
<polygon fill="#ffffff" stroke="transparent" points="-4,4 -4,-351 980,-351 980,4 -4,4"/>
<!-- Node197 -->
<g id="node1" class="node">
<title>Node197</title>
<polygon fill="#bfbfbf" stroke="#000000" points="0,-175.5 0,-194.5 108,-194.5 108,-175.5 0,-175.5"/>
<text text-anchor="middle" x="54" y="-182.5" font-family="Helvetica,sans-Serif" font-size="10.00" fill="#000000">espconn_tcp_accept</text>
</g>
<!-- Node198 -->
<g id="node2" class="node">
<title>Node198</title>
<g id="a_node2"><a xlink:href="esp-open-lwip_2include_2lwip_2app_2espconn_8h.html#a760ff135a8707ff3f481ba00d7312011" target="_top" xlink:title="espconn_copy_partial">
<polygon fill="#ffffff" stroke="#000000" points="161.5,-327.5 161.5,-346.5 275.5,-346.5 275.5,-327.5 161.5,-327.5"/>
<text text-anchor="middle" x="218.5" y="-334.5" font-family="Helvetica,sans-Serif" font-size="10.00" fill="#000000">espconn_copy_partial</text>
</a>
</g>
</g>
<!-- Node197&#45;&gt;Node198 -->
<g id="edge1" class="edge">
<title>Node197&#45;&gt;Node198</title>
<path fill="none" stroke="#191970" d="M57.7258,-194.8184C67.6587,-219.6159 97.2454,-285.1272 144,-318 146.8714,-320.0189 149.939,-321.8235 153.1322,-323.4365"/>
<polygon fill="#191970" stroke="#191970" points="151.8408,-326.6918 162.4052,-327.494 154.6469,-320.2788 151.8408,-326.6918"/>
</g>
<!-- Node199 -->
<g id="node3" class="node">
<title>Node199</title>
<g id="a_node3"><a xlink:href="esp-open-lwip_2include_2lwip_2app_2espconn_8h.html#a95deabffd3b8a4bec81f91596901f84d" target="_top" xlink:title="espconn_get_connection_info">
<polygon fill="#ffffff" stroke="#000000" points="144,-289.5 144,-308.5 293,-308.5 293,-289.5 144,-289.5"/>
<text text-anchor="middle" x="218.5" y="-296.5" font-family="Helvetica,sans-Serif" font-size="10.00" fill="#000000">espconn_get_connection_info</text>
</a>
</g>
</g>
<!-- Node197&#45;&gt;Node199 -->
<g id="edge2" class="edge">
<title>Node197&#45;&gt;Node199</title>
<path fill="none" stroke="#191970" d="M60.388,-194.7894C73.5756,-214.1869 105.7994,-257.563 144,-280 147.6903,-282.1675 151.6248,-284.09 155.6845,-285.7951"/>
<polygon fill="#191970" stroke="#191970" points="154.7356,-289.1766 165.3282,-289.3915 157.1816,-282.6179 154.7356,-289.1766"/>
</g>
<!-- Node200 -->
<g id="node4" class="node">
<title>Node200</title>
<g id="a_node4"><a xlink:href="esp-open-lwip_2include_2lwip_2app_2espconn_8h.html#ae65b40a3ff0ee3fe9b764523fa4a3c48" target="_top" xlink:title="espconn_list_creat">
<polygon fill="#ffffff" stroke="#000000" points="168.5,-251.5 168.5,-270.5 268.5,-270.5 268.5,-251.5 168.5,-251.5"/>
<text text-anchor="middle" x="218.5" y="-258.5" font-family="Helvetica,sans-Serif" font-size="10.00" fill="#000000">espconn_list_creat</text>
</a>
</g>
</g>
<!-- Node197&#45;&gt;Node200 -->
<g id="edge3" class="edge">
<title>Node197&#45;&gt;Node200</title>
<path fill="none" stroke="#191970" d="M66.4025,-194.6589C83.1353,-207.2534 114.2793,-229.1834 144,-242 149.711,-244.4628 155.811,-246.6585 161.9692,-248.6027"/>
<polygon fill="#191970" stroke="#191970" points="161.0654,-251.9851 171.6469,-251.4532 163.0433,-245.2703 161.0654,-251.9851"/>
</g>
<!-- Node201 -->
<g id="node5" class="node">
<title>Node201</title>
<g id="a_node5"><a xlink:href="espconn__tcp_8c.html#af3868ea055aae73a6f4de8866d31aceb" target="_top" xlink:title="espconn_server_poll">
<polygon fill="#ffffff" stroke="#000000" points="164,-213.5 164,-232.5 273,-232.5 273,-213.5 164,-213.5"/>
<text text-anchor="middle" x="218.5" y="-220.5" font-family="Helvetica,sans-Serif" font-size="10.00" fill="#000000">espconn_server_poll</text>
</a>
</g>
</g>
<!-- Node197&#45;&gt;Node201 -->
<g id="edge4" class="edge">
<title>Node197&#45;&gt;Node201</title>
<path fill="none" stroke="#191970" d="M95.5103,-194.589C117.3156,-199.6261 144.2318,-205.8438 167.3191,-211.1771"/>
<polygon fill="#191970" stroke="#191970" points="166.757,-214.6393 177.2882,-213.4799 168.3326,-207.8189 166.757,-214.6393"/>
</g>
<!-- Node203 -->
<g id="node7" class="node">
<title>Node203</title>
<g id="a_node7"><a xlink:href="espconn__tcp_8c.html#afc71eebe6b5059ad2b6503c328e8d8c5" target="_top" xlink:title="espconn_server_recv">
<polygon fill="#ffffff" stroke="#000000" points="482,-213.5 482,-232.5 594,-232.5 594,-213.5 482,-213.5"/>
<text text-anchor="middle" x="538" y="-220.5" font-family="Helvetica,sans-Serif" font-size="10.00" fill="#000000">espconn_server_recv</text>
</a>
</g>
</g>
<!-- Node197&#45;&gt;Node203 -->
<g id="edge14" class="edge">
<title>Node197&#45;&gt;Node203</title>
<path fill="none" stroke="#191970" d="M108.1276,-184.9753C183.965,-185.5417 326.019,-188.7964 446,-204 459.7959,-205.7482 474.6078,-208.4396 488.2285,-211.252"/>
<polygon fill="#191970" stroke="#191970" points="487.8659,-214.7532 498.3756,-213.4126 489.3238,-207.9066 487.8659,-214.7532"/>
</g>
<!-- Node210 -->
<g id="node14" class="node">
<title>Node210</title>
<g id="a_node14"><a xlink:href="espconn__tcp_8c.html#a5a1aa400ea4ec663cfc57a637ce0f7bf" target="_top" xlink:title="espconn_server_sent">
<polygon fill="#ffffff" stroke="#000000" points="162.5,-137.5 162.5,-156.5 274.5,-156.5 274.5,-137.5 162.5,-137.5"/>
<text text-anchor="middle" x="218.5" y="-144.5" font-family="Helvetica,sans-Serif" font-size="10.00" fill="#000000">espconn_server_sent</text>
</a>
</g>
</g>
<!-- Node197&#45;&gt;Node210 -->
<g id="edge15" class="edge">
<title>Node197&#45;&gt;Node210</title>
<path fill="none" stroke="#191970" d="M95.5103,-175.411C117.3156,-170.3739 144.2318,-164.1562 167.3191,-158.8229"/>
<polygon fill="#191970" stroke="#191970" points="168.3326,-162.1811 177.2882,-156.5201 166.757,-155.3607 168.3326,-162.1811"/>
</g>
<!-- Node215 -->
<g id="node19" class="node">
<title>Node215</title>
<g id="a_node19"><a xlink:href="esp-open-lwip_2include_2lwip_2app_2espconn_8h.html#a8418023ae67bd83742d7d2642c3d4da0" target="_top" xlink:title="espconn_tcp_get_max\l_con_allow">
<polygon fill="#ffffff" stroke="#000000" points="160,-88 160,-118 277,-118 277,-88 160,-88"/>
<text text-anchor="start" x="168" y="-106" font-family="Helvetica,sans-Serif" font-size="10.00" fill="#000000">espconn_tcp_get_max</text>
<text text-anchor="middle" x="218.5" y="-95" font-family="Helvetica,sans-Serif" font-size="10.00" fill="#000000">_con_allow</text>
</a>
</g>
</g>
<!-- Node197&#45;&gt;Node215 -->
<g id="edge20" class="edge">
<title>Node197&#45;&gt;Node215</title>
<path fill="none" stroke="#191970" d="M66.8422,-175.4583C83.8064,-163.1915 114.9411,-141.8285 144,-128 148.6543,-125.7851 153.5575,-123.6795 158.5347,-121.6991"/>
<polygon fill="#191970" stroke="#191970" points="160.0441,-124.8699 168.1515,-118.0492 157.5602,-118.3253 160.0441,-124.8699"/>
</g>
<!-- Node216 -->
<g id="node20" class="node">
<title>Node216</title>
<g id="a_node20"><a xlink:href="esp-open-lwip_2include_2lwip_2app_2espconn_8h.html#aebb1efce8ecc198f9e9a663b69f42113" target="_top" xlink:title="espconn_tcp_set_buf\l_count">
<polygon fill="#ffffff" stroke="#000000" points="162.5,-39 162.5,-69 274.5,-69 274.5,-39 162.5,-39"/>
<text text-anchor="start" x="170.5" y="-57" font-family="Helvetica,sans-Serif" font-size="10.00" fill="#000000">espconn_tcp_set_buf</text>
<text text-anchor="middle" x="218.5" y="-46" font-family="Helvetica,sans-Serif" font-size="10.00" fill="#000000">_count</text>
</a>
</g>
</g>
<!-- Node197&#45;&gt;Node216 -->
<g id="edge21" class="edge">
<title>Node197&#45;&gt;Node216</title>
<path fill="none" stroke="#191970" d="M59.4351,-175.4548C71.7608,-154.6519 103.9034,-104.9378 144,-78 146.908,-76.0463 149.9859,-74.2428 153.1699,-72.5789"/>
<polygon fill="#191970" stroke="#191970" points="154.8121,-75.6744 162.3713,-68.2508 151.8326,-69.3401 154.8121,-75.6744"/>
</g>
<!-- Node217 -->
<g id="node21" class="node">
<title>Node217</title>
<g id="a_node21"><a xlink:href="espconn__tcp_8c.html#a70940b6d5142095e412400b06aebf3d2" target="_top" xlink:title="esponn_server_err">
<polygon fill="#ffffff" stroke="#000000" points="168.5,-.5 168.5,-19.5 268.5,-19.5 268.5,-.5 168.5,-.5"/>
<text text-anchor="middle" x="218.5" y="-7.5" font-family="Helvetica,sans-Serif" font-size="10.00" fill="#000000">esponn_server_err</text>
</a>
</g>
</g>
<!-- Node197&#45;&gt;Node217 -->
<g id="edge22" class="edge">
<title>Node197&#45;&gt;Node217</title>
<path fill="none" stroke="#191970" d="M56.7208,-175.1479C64.8909,-147.4721 91.9221,-68.4761 144,-29 148.4544,-25.6235 153.4449,-22.8432 158.6769,-20.5545"/>
<polygon fill="#191970" stroke="#191970" points="160.1612,-23.7358 168.2918,-16.943 157.6997,-17.1828 160.1612,-23.7358"/>
</g>
<!-- Node202 -->
<g id="node6" class="node">
<title>Node202</title>
<g id="a_node6"><a xlink:href="espconn__tcp_8c.html#a1c87d6afab08e5f7f51a212a20547dee" target="_top" xlink:title="espconn_server_close">
<polygon fill="#ffffff" stroke="#000000" points="329,-213.5 329,-232.5 446,-232.5 446,-213.5 329,-213.5"/>
<text text-anchor="middle" x="387.5" y="-220.5" font-family="Helvetica,sans-Serif" font-size="10.00" fill="#000000">espconn_server_close</text>
</a>
</g>
</g>
<!-- Node201&#45;&gt;Node202 -->
<g id="edge5" class="edge">
<title>Node201&#45;&gt;Node202</title>
<path fill="none" stroke="#191970" d="M273.3695,-223C287.7784,-223 303.5034,-223 318.5475,-223"/>
<polygon fill="#191970" stroke="#191970" points="318.8293,-226.5001 328.8293,-223 318.8292,-219.5001 318.8293,-226.5001"/>
</g>
<!-- Node202&#45;&gt;Node203 -->
<g id="edge6" class="edge">
<title>Node202&#45;&gt;Node203</title>
<path fill="none" stroke="#191970" d="M446.1182,-216.3987C454.4503,-216.2475 463.0689,-216.2116 471.5369,-216.2911"/>
<polygon fill="#191970" stroke="#191970" points="471.7104,-219.794 481.7621,-216.4452 471.816,-212.7948 471.7104,-219.794"/>
</g>
<!-- Node203&#45;&gt;Node202 -->
<g id="edge7" class="edge">
<title>Node203&#45;&gt;Node202</title>
<path fill="none" stroke="#191970" d="M481.7621,-229.5548C473.4886,-229.7281 464.8871,-229.786 456.3942,-229.7286"/>
<polygon fill="#191970" stroke="#191970" points="456.1608,-226.2255 446.1182,-229.6013 456.074,-233.225 456.1608,-226.2255"/>
</g>
<!-- Node204 -->
<g id="node8" class="node">
<title>Node204</title>
<g id="a_node8"><a xlink:href="pbuf_8h.html#ab0a418a2392133e6b18c7b19f7c04500" target="_top" xlink:title="pbuf_copy_partial">
<polygon fill="#ffffff" stroke="#000000" points="653.5,-251.5 653.5,-270.5 748.5,-270.5 748.5,-251.5 653.5,-251.5"/>
<text text-anchor="middle" x="701" y="-258.5" font-family="Helvetica,sans-Serif" font-size="10.00" fill="#000000">pbuf_copy_partial</text>
</a>
</g>
</g>
<!-- Node203&#45;&gt;Node204 -->
<g id="edge8" class="edge">
<title>Node203&#45;&gt;Node204</title>
<path fill="none" stroke="#191970" d="M579.1318,-232.589C600.7383,-237.6261 627.409,-243.8438 650.2858,-249.1771"/>
<polygon fill="#191970" stroke="#191970" points="649.6305,-252.6181 660.164,-251.4799 651.2198,-245.8009 649.6305,-252.6181"/>
</g>
<!-- Node205 -->
<g id="node9" class="node">
<title>Node205</title>
<g id="a_node9"><a xlink:href="pbuf_8h.html#a0d26e00e2cf975274139d27ddabd7ed3" target="_top" xlink:title="pbuf_free">
<polygon fill="#ffffff" stroke="#000000" points="671.5,-213.5 671.5,-232.5 730.5,-232.5 730.5,-213.5 671.5,-213.5"/>
<text text-anchor="middle" x="701" y="-220.5" font-family="Helvetica,sans-Serif" font-size="10.00" fill="#000000">pbuf_free</text>
</a>
</g>
</g>
<!-- Node203&#45;&gt;Node205 -->
<g id="edge9" class="edge">
<title>Node203&#45;&gt;Node205</title>
<path fill="none" stroke="#191970" d="M594.0954,-223C616.2099,-223 641.0972,-223 661.2915,-223"/>
<polygon fill="#191970" stroke="#191970" points="661.3845,-226.5001 671.3845,-223 661.3844,-219.5001 661.3845,-226.5001"/>
</g>
<!-- Node209 -->
<g id="node13" class="node">
<title>Node209</title>
<g id="a_node13"><a xlink:href="user__interface_8h.html#a258edd68184bb78f062a3b375dca997c" target="_top" xlink:title="system_get_free_heap_size">
<polygon fill="#ffffff" stroke="#000000" points="630,-175.5 630,-194.5 772,-194.5 772,-175.5 630,-175.5"/>
<text text-anchor="middle" x="701" y="-182.5" font-family="Helvetica,sans-Serif" font-size="10.00" fill="#000000">system_get_free_heap_size</text>
</a>
</g>
</g>
<!-- Node203&#45;&gt;Node209 -->
<g id="edge13" class="edge">
<title>Node203&#45;&gt;Node209</title>
<path fill="none" stroke="#191970" d="M579.1318,-213.411C600.7383,-208.3739 627.409,-202.1562 650.2858,-196.8229"/>
<polygon fill="#191970" stroke="#191970" points="651.2198,-200.1991 660.164,-194.5201 649.6305,-193.3819 651.2198,-200.1991"/>
</g>
<!-- Node206 -->
<g id="node10" class="node">
<title>Node206</title>
<g id="a_node10"><a xlink:href="esp-open-lwip_2include_2lwip_2mem_8h.html#ab270bbe39e1996d7095be3a139620ce0" target="_top" xlink:title="mem_free">
<polygon fill="#ffffff" stroke="#000000" points="810.5,-232.5 810.5,-251.5 872.5,-251.5 872.5,-232.5 810.5,-232.5"/>
<text text-anchor="middle" x="841.5" y="-239.5" font-family="Helvetica,sans-Serif" font-size="10.00" fill="#000000">mem_free</text>
</a>
</g>
</g>
<!-- Node205&#45;&gt;Node206 -->
<g id="edge10" class="edge">
<title>Node205&#45;&gt;Node206</title>
<path fill="none" stroke="#191970" d="M730.7964,-227.0294C750.9627,-229.7565 777.8757,-233.396 800.1161,-236.4036"/>
<polygon fill="#191970" stroke="#191970" points="799.9069,-239.9071 810.2858,-237.7789 800.8451,-232.9702 799.9069,-239.9071"/>
</g>
<!-- Node208 -->
<g id="node12" class="node">
<title>Node208</title>
<g id="a_node12"><a xlink:href="memp_8h.html#a9d30a969401eb0626105950d6e63f3bf" target="_top" xlink:title="memp_free">
<polygon fill="#ffffff" stroke="#000000" points="808,-194.5 808,-213.5 875,-213.5 875,-194.5 808,-194.5"/>
<text text-anchor="middle" x="841.5" y="-201.5" font-family="Helvetica,sans-Serif" font-size="10.00" fill="#000000">memp_free</text>
</a>
</g>
</g>
<!-- Node205&#45;&gt;Node208 -->
<g id="edge12" class="edge">
<title>Node205&#45;&gt;Node208</title>
<path fill="none" stroke="#191970" d="M730.7964,-218.9706C750.2673,-216.3375 776.0277,-212.8539 797.7991,-209.9097"/>
<polygon fill="#191970" stroke="#191970" points="798.3613,-213.3656 807.8021,-208.557 797.4232,-206.4288 798.3613,-213.3656"/>
</g>
<!-- Node207 -->
<g id="node11" class="node">
<title>Node207</title>
<g id="a_node11"><a xlink:href="mem_8c.html#a24221009a2c00e9c3fa63eaa9444a076" target="_top" xlink:title="plug_holes">
<polygon fill="#ffffff" stroke="#000000" points="911,-232.5 911,-251.5 976,-251.5 976,-232.5 911,-232.5"/>
<text text-anchor="middle" x="943.5" y="-239.5" font-family="Helvetica,sans-Serif" font-size="10.00" fill="#000000">plug_holes</text>
</a>
</g>
</g>
<!-- Node206&#45;&gt;Node207 -->
<g id="edge11" class="edge">
<title>Node206&#45;&gt;Node207</title>
<path fill="none" stroke="#191970" d="M872.6576,-242C881.5207,-242 891.3309,-242 900.7549,-242"/>
<polygon fill="#191970" stroke="#191970" points="900.7662,-245.5001 910.7662,-242 900.7661,-238.5001 900.7662,-245.5001"/>
</g>
<!-- Node211 -->
<g id="node15" class="node">
<title>Node211</title>
<g id="a_node15"><a xlink:href="espconn__tcp_8c.html#a46f54f8c9e0dbc0c03f7666380fa3bbd" target="_top" xlink:title="espconn_tcp_finish">
<polygon fill="#ffffff" stroke="#000000" points="336.5,-137.5 336.5,-156.5 438.5,-156.5 438.5,-137.5 336.5,-137.5"/>
<text text-anchor="middle" x="387.5" y="-144.5" font-family="Helvetica,sans-Serif" font-size="10.00" fill="#000000">espconn_tcp_finish</text>
</a>
</g>
</g>
<!-- Node210&#45;&gt;Node211 -->
<g id="edge16" class="edge">
<title>Node210&#45;&gt;Node211</title>
<path fill="none" stroke="#191970" d="M274.7746,-147C291.2345,-147 309.3087,-147 326.0712,-147"/>
<polygon fill="#191970" stroke="#191970" points="326.3125,-150.5001 336.3125,-147 326.3125,-143.5001 326.3125,-150.5001"/>
</g>
<!-- Node212 -->
<g id="node16" class="node">
<title>Node212</title>
<g id="a_node16"><a xlink:href="espconn__tcp_8c.html#afedfd58842e55800f23f90ed00b0a967" target="_top" xlink:title="espconn_tcp_write">
<polygon fill="#ffffff" stroke="#000000" points="488,-137.5 488,-156.5 588,-156.5 588,-137.5 488,-137.5"/>
<text text-anchor="middle" x="538" y="-144.5" font-family="Helvetica,sans-Serif" font-size="10.00" fill="#000000">espconn_tcp_write</text>
</a>
</g>
</g>
<!-- Node211&#45;&gt;Node212 -->
<g id="edge17" class="edge">
<title>Node211&#45;&gt;Node212</title>
<path fill="none" stroke="#191970" d="M438.8726,-147C451.3703,-147 464.8482,-147 477.7174,-147"/>
<polygon fill="#191970" stroke="#191970" points="477.8775,-150.5001 487.8775,-147 477.8775,-143.5001 477.8775,-150.5001"/>
</g>
<!-- Node214 -->
<g id="node18" class="node">
<title>Node214</title>
<g id="a_node18"><a xlink:href="espconn_8c.html#a5c499e423f91737c0214031fd67fdb1f" target="_top" xlink:title="espconn_pbuf_delete">
<polygon fill="#ffffff" stroke="#000000" points="482,-99.5 482,-118.5 594,-118.5 594,-99.5 482,-99.5"/>
<text text-anchor="middle" x="538" y="-106.5" font-family="Helvetica,sans-Serif" font-size="10.00" fill="#000000">espconn_pbuf_delete</text>
</a>
</g>
</g>
<!-- Node211&#45;&gt;Node214 -->
<g id="edge19" class="edge">
<title>Node211&#45;&gt;Node214</title>
<path fill="none" stroke="#191970" d="M425.4775,-137.411C445.1587,-132.4417 469.3907,-126.3233 490.3206,-121.0387"/>
<polygon fill="#191970" stroke="#191970" points="491.4567,-124.3617 500.2956,-118.5201 489.743,-117.5747 491.4567,-124.3617"/>
</g>
<!-- Node213 -->
<g id="node17" class="node">
<title>Node213</title>
<g id="a_node17"><a xlink:href="espconn__tcp_8c.html#a5a4844397c6068a44e5422de0eadcb86" target="_top" xlink:title="espconn_tcp_sent">
<polygon fill="#ffffff" stroke="#000000" points="652,-137.5 652,-156.5 750,-156.5 750,-137.5 652,-137.5"/>
<text text-anchor="middle" x="701" y="-144.5" font-family="Helvetica,sans-Serif" font-size="10.00" fill="#000000">espconn_tcp_sent</text>
</a>
</g>
</g>
<!-- Node212&#45;&gt;Node213 -->
<g id="edge18" class="edge">
<title>Node212&#45;&gt;Node213</title>
<path fill="none" stroke="#191970" d="M588.2354,-147C605.1255,-147 624.1272,-147 641.6504,-147"/>
<polygon fill="#191970" stroke="#191970" points="641.7699,-150.5001 651.7699,-147 641.7698,-143.5001 641.7699,-150.5001"/>
</g>
</g>
</svg>
