<?xml version="1.0" encoding="UTF-8" standalone="no"?>
<!DOCTYPE svg PUBLIC "-//W3C//DTD SVG 1.1//EN"
 "http://www.w3.org/Graphics/SVG/1.1/DTD/svg11.dtd">
<!-- Generated by graphviz version 2.41.20170323.1842 (20170323.1842)
 -->
<!-- Title: espconn_find_connection Pages: 1 -->
<svg width="818pt" height="522pt"
 viewBox="0.00 0.00 818.00 522.00" xmlns="http://www.w3.org/2000/svg" xmlns:xlink="http://www.w3.org/1999/xlink">
<g id="graph0" class="graph" transform="scale(1 1) rotate(0) translate(4 518)">
<title>espconn_find_connection</title>
<polygon fill="#ffffff" stroke="transparent" points="-4,4 -4,-518 814,-518 814,4 -4,4"/>
<!-- Node149 -->
<g id="node1" class="node">
<title>Node149</title>
<polygon fill="#bfbfbf" stroke="#000000" points="0,-228.5 0,-247.5 130,-247.5 130,-228.5 0,-228.5"/>
<text text-anchor="middle" x="65" y="-235.5" font-family="Helvetica,sans-Serif" font-size="10.00" fill="#000000">espconn_find_connection</text>
</g>
<!-- Node150 -->
<g id="node2" class="node">
<title>Node150</title>
<g id="a_node2"><a xlink:href="sdk_2include_2espconn_8h.html#ad6b3d2d0f556e6da81c898a6b9fa5c53" target="_top" xlink:title="espconn_abort">
<polygon fill="#ffffff" stroke="#000000" points="189.5,-456.5 189.5,-475.5 272.5,-475.5 272.5,-456.5 189.5,-456.5"/>
<text text-anchor="middle" x="231" y="-463.5" font-family="Helvetica,sans-Serif" font-size="10.00" fill="#000000">espconn_abort</text>
</a>
</g>
</g>
<!-- Node149&#45;&gt;Node150 -->
<g id="edge1" class="edge">
<title>Node149&#45;&gt;Node150</title>
<path fill="none" stroke="#191970" d="M68.8455,-257.4717C78.0245,-298.7508 105.1435,-395.4796 166,-447 172.6401,-452.6215 180.8727,-456.5806 189.2221,-459.3687"/>
<polygon fill="#191970" stroke="#191970" points="72.2504,-256.6555 66.761,-247.5936 65.4012,-258.1008 72.2504,-256.6555"/>
</g>
<!-- Node156 -->
<g id="node8" class="node">
<title>Node156</title>
<g id="a_node8"><a xlink:href="sdk_2include_2espconn_8h.html#a9a8be5ecdee08ca20a2516c4aa289c5e" target="_top" xlink:title="espconn_clear_opt">
<polygon fill="#ffffff" stroke="#000000" points="180.5,-418.5 180.5,-437.5 281.5,-437.5 281.5,-418.5 180.5,-418.5"/>
<text text-anchor="middle" x="231" y="-425.5" font-family="Helvetica,sans-Serif" font-size="10.00" fill="#000000">espconn_clear_opt</text>
</a>
</g>
</g>
<!-- Node149&#45;&gt;Node156 -->
<g id="edge9" class="edge">
<title>Node149&#45;&gt;Node156</title>
<path fill="none" stroke="#191970" d="M71.1301,-257.5343C83.3057,-293.1134 113.9491,-368.5333 166,-409 171.0122,-412.8967 176.802,-415.9949 182.8184,-418.4581"/>
<polygon fill="#191970" stroke="#191970" points="74.3945,-256.2571 67.9411,-247.8545 67.746,-258.4475 74.3945,-256.2571"/>
</g>
<!-- Node157 -->
<g id="node9" class="node">
<title>Node157</title>
<g id="a_node9"><a xlink:href="sdk_2include_2espconn_8h.html#a63d15dda14dfcd8da278c31f048910c3" target="_top" xlink:title="espconn_delete">
<polygon fill="#ffffff" stroke="#000000" points="187.5,-380.5 187.5,-399.5 274.5,-399.5 274.5,-380.5 187.5,-380.5"/>
<text text-anchor="middle" x="231" y="-387.5" font-family="Helvetica,sans-Serif" font-size="10.00" fill="#000000">espconn_delete</text>
</a>
</g>
</g>
<!-- Node149&#45;&gt;Node157 -->
<g id="edge10" class="edge">
<title>Node149&#45;&gt;Node157</title>
<path fill="none" stroke="#191970" d="M74.1987,-256.7585C89.3272,-285.6518 122.2041,-340.8543 166,-371 172.3918,-375.3996 179.8082,-378.7935 187.296,-381.4079"/>
<polygon fill="#191970" stroke="#191970" points="77.2539,-255.0448 69.599,-247.7199 71.0153,-258.2197 77.2539,-255.0448"/>
</g>
<!-- Node158 -->
<g id="node10" class="node">
<title>Node158</title>
<g id="a_node10"><a xlink:href="sdk_2include_2espconn_8h.html#a9969873c3b8ee86a34496a5166cf8bfc" target="_top" xlink:title="espconn_disconnect">
<polygon fill="#ffffff" stroke="#000000" points="177,-342.5 177,-361.5 285,-361.5 285,-342.5 177,-342.5"/>
<text text-anchor="middle" x="231" y="-349.5" font-family="Helvetica,sans-Serif" font-size="10.00" fill="#000000">espconn_disconnect</text>
</a>
</g>
</g>
<!-- Node149&#45;&gt;Node158 -->
<g id="edge11" class="edge">
<title>Node149&#45;&gt;Node158</title>
<path fill="none" stroke="#191970" d="M79.0704,-255.5605C97.0582,-276.8792 130.1879,-312.5148 166,-333 172.6334,-336.7944 180.0888,-339.8869 187.521,-342.3893"/>
<polygon fill="#191970" stroke="#191970" points="81.5968,-253.123 72.5304,-247.6411 76.1993,-257.5804 81.5968,-253.123"/>
</g>
<!-- Node159 -->
<g id="node11" class="node">
<title>Node159</title>
<g id="a_node11"><a xlink:href="sdk_2include_2espconn_8h.html#ae7b470d0af4052d0945ed87ffbf8e684" target="_top" xlink:title="espconn_get_keepalive">
<polygon fill="#ffffff" stroke="#000000" points="170,-304.5 170,-323.5 292,-323.5 292,-304.5 170,-304.5"/>
<text text-anchor="middle" x="231" y="-311.5" font-family="Helvetica,sans-Serif" font-size="10.00" fill="#000000">espconn_get_keepalive</text>
</a>
</g>
</g>
<!-- Node149&#45;&gt;Node159 -->
<g id="edge12" class="edge">
<title>Node149&#45;&gt;Node159</title>
<path fill="none" stroke="#191970" d="M88.2112,-253.1357C108.1951,-265.6625 138.1327,-283.2477 166,-295 174.5581,-298.6091 184.0242,-301.8001 193.0229,-304.4874"/>
<polygon fill="#191970" stroke="#191970" points="89.8304,-250.0177 79.5133,-247.6079 86.0757,-255.9256 89.8304,-250.0177"/>
</g>
<!-- Node160 -->
<g id="node12" class="node">
<title>Node160</title>
<g id="a_node12"><a xlink:href="sdk_2include_2espconn_8h.html#a3fd5fdd755763691d42d08ca4d9d615a" target="_top" xlink:title="espconn_get_packet_info">
<polygon fill="#ffffff" stroke="#000000" points="166,-266.5 166,-285.5 296,-285.5 296,-266.5 166,-266.5"/>
<text text-anchor="middle" x="231" y="-273.5" font-family="Helvetica,sans-Serif" font-size="10.00" fill="#000000">espconn_get_packet_info</text>
</a>
</g>
</g>
<!-- Node149&#45;&gt;Node160 -->
<g id="edge13" class="edge">
<title>Node149&#45;&gt;Node160</title>
<path fill="none" stroke="#191970" d="M116.6534,-249.8243C140.0564,-255.1816 167.3571,-261.4311 189.4124,-266.4799"/>
<polygon fill="#191970" stroke="#191970" points="117.4177,-246.4088 106.8888,-247.589 115.8556,-253.2323 117.4177,-246.4088"/>
</g>
<!-- Node161 -->
<g id="node13" class="node">
<title>Node161</title>
<g id="a_node13"><a xlink:href="sdk_2include_2espconn_8h.html#a2193ea6779889bef71dc6d368c6b8f80" target="_top" xlink:title="espconn_recv_hold">
<polygon fill="#ffffff" stroke="#000000" points="179.5,-228.5 179.5,-247.5 282.5,-247.5 282.5,-228.5 179.5,-228.5"/>
<text text-anchor="middle" x="231" y="-235.5" font-family="Helvetica,sans-Serif" font-size="10.00" fill="#000000">espconn_recv_hold</text>
</a>
</g>
</g>
<!-- Node149&#45;&gt;Node161 -->
<g id="edge14" class="edge">
<title>Node149&#45;&gt;Node161</title>
<path fill="none" stroke="#191970" d="M140.1918,-238C153.446,-238 166.9681,-238 179.3901,-238"/>
<polygon fill="#191970" stroke="#191970" points="140.1312,-234.5001 130.1312,-238 140.1311,-241.5001 140.1312,-234.5001"/>
</g>
<!-- Node162 -->
<g id="node14" class="node">
<title>Node162</title>
<g id="a_node14"><a xlink:href="sdk_2include_2espconn_8h.html#ac409e8c250ee409985475f5c7fa02950" target="_top" xlink:title="espconn_recv_unhold">
<polygon fill="#ffffff" stroke="#000000" points="174,-190.5 174,-209.5 288,-209.5 288,-190.5 174,-190.5"/>
<text text-anchor="middle" x="231" y="-197.5" font-family="Helvetica,sans-Serif" font-size="10.00" fill="#000000">espconn_recv_unhold</text>
</a>
</g>
</g>
<!-- Node149&#45;&gt;Node162 -->
<g id="edge15" class="edge">
<title>Node149&#45;&gt;Node162</title>
<path fill="none" stroke="#191970" d="M116.6534,-226.1757C140.0564,-220.8184 167.3571,-214.5689 189.4124,-209.5201"/>
<polygon fill="#191970" stroke="#191970" points="115.8556,-222.7677 106.8888,-228.411 117.4177,-229.5912 115.8556,-222.7677"/>
</g>
<!-- Node163 -->
<g id="node15" class="node">
<title>Node163</title>
<g id="a_node15"><a xlink:href="sdk_2include_2espconn_8h.html#acd79a347f8e665d7b93f31569865b494" target="_top" xlink:title="espconn_regist_time">
<polygon fill="#ffffff" stroke="#000000" points="176.5,-152.5 176.5,-171.5 285.5,-171.5 285.5,-152.5 176.5,-152.5"/>
<text text-anchor="middle" x="231" y="-159.5" font-family="Helvetica,sans-Serif" font-size="10.00" fill="#000000">espconn_regist_time</text>
</a>
</g>
</g>
<!-- Node149&#45;&gt;Node163 -->
<g id="edge16" class="edge">
<title>Node149&#45;&gt;Node163</title>
<path fill="none" stroke="#191970" d="M88.2112,-222.8643C108.1951,-210.3375 138.1327,-192.7523 166,-181 174.5581,-177.3909 184.0242,-174.1999 193.0229,-171.5126"/>
<polygon fill="#191970" stroke="#191970" points="86.0757,-220.0744 79.5133,-228.3921 89.8304,-225.9823 86.0757,-220.0744"/>
</g>
<!-- Node164 -->
<g id="node16" class="node">
<title>Node164</title>
<g id="a_node16"><a xlink:href="sdk_2include_2espconn_8h.html#a62219be0ac7e8dd6085915d5c0777476" target="_top" xlink:title="espconn_sendto">
<polygon fill="#ffffff" stroke="#000000" points="186,-114.5 186,-133.5 276,-133.5 276,-114.5 186,-114.5"/>
<text text-anchor="middle" x="231" y="-121.5" font-family="Helvetica,sans-Serif" font-size="10.00" fill="#000000">espconn_sendto</text>
</a>
</g>
</g>
<!-- Node149&#45;&gt;Node164 -->
<g id="edge17" class="edge">
<title>Node149&#45;&gt;Node164</title>
<path fill="none" stroke="#191970" d="M79.0704,-220.4395C97.0582,-199.1208 130.1879,-163.4852 166,-143 172.6334,-139.2056 180.0888,-136.1131 187.521,-133.6107"/>
<polygon fill="#191970" stroke="#191970" points="76.1993,-218.4196 72.5304,-228.3589 81.5968,-222.877 76.1993,-218.4196"/>
</g>
<!-- Node167 -->
<g id="node19" class="node">
<title>Node167</title>
<g id="a_node19"><a xlink:href="sdk_2include_2espconn_8h.html#a579e4f1c62f7c33be01398931617e988" target="_top" xlink:title="espconn_sent">
<polygon fill="#ffffff" stroke="#000000" points="191.5,-76.5 191.5,-95.5 270.5,-95.5 270.5,-76.5 191.5,-76.5"/>
<text text-anchor="middle" x="231" y="-83.5" font-family="Helvetica,sans-Serif" font-size="10.00" fill="#000000">espconn_sent</text>
</a>
</g>
</g>
<!-- Node149&#45;&gt;Node167 -->
<g id="edge21" class="edge">
<title>Node149&#45;&gt;Node167</title>
<path fill="none" stroke="#191970" d="M74.1987,-219.2415C89.3272,-190.3482 122.2041,-135.1457 166,-105 173.5539,-99.8005 182.5389,-96.0056 191.3816,-93.242"/>
<polygon fill="#191970" stroke="#191970" points="71.0153,-217.7803 69.599,-228.2801 77.2539,-220.9552 71.0153,-217.7803"/>
</g>
<!-- Node168 -->
<g id="node20" class="node">
<title>Node168</title>
<g id="a_node20"><a xlink:href="sdk_2include_2espconn_8h.html#a0a78bf74f326d99a2cb498a338da8240" target="_top" xlink:title="espconn_set_keepalive">
<polygon fill="#ffffff" stroke="#000000" points="170.5,-38.5 170.5,-57.5 291.5,-57.5 291.5,-38.5 170.5,-38.5"/>
<text text-anchor="middle" x="231" y="-45.5" font-family="Helvetica,sans-Serif" font-size="10.00" fill="#000000">espconn_set_keepalive</text>
</a>
</g>
</g>
<!-- Node149&#45;&gt;Node168 -->
<g id="edge22" class="edge">
<title>Node149&#45;&gt;Node168</title>
<path fill="none" stroke="#191970" d="M71.1301,-218.4657C83.3057,-182.8866 113.9491,-107.4667 166,-67 171.0122,-63.1033 176.802,-60.0051 182.8184,-57.5419"/>
<polygon fill="#191970" stroke="#191970" points="67.746,-217.5525 67.9411,-228.1455 74.3945,-219.7429 67.746,-217.5525"/>
</g>
<!-- Node169 -->
<g id="node21" class="node">
<title>Node169</title>
<g id="a_node21"><a xlink:href="sdk_2include_2espconn_8h.html#ac76f13b1bd09b3e43beedd50907e0c72" target="_top" xlink:title="espconn_set_opt">
<polygon fill="#ffffff" stroke="#000000" points="184.5,-.5 184.5,-19.5 277.5,-19.5 277.5,-.5 184.5,-.5"/>
<text text-anchor="middle" x="231" y="-7.5" font-family="Helvetica,sans-Serif" font-size="10.00" fill="#000000">espconn_set_opt</text>
</a>
</g>
</g>
<!-- Node149&#45;&gt;Node169 -->
<g id="edge23" class="edge">
<title>Node149&#45;&gt;Node169</title>
<path fill="none" stroke="#191970" d="M68.8455,-218.5283C78.0245,-177.2492 105.1435,-80.5204 166,-29 171.2942,-24.518 177.6006,-21.0927 184.1715,-18.4752"/>
<polygon fill="#191970" stroke="#191970" points="65.4012,-217.8992 66.761,-228.4064 72.2504,-219.3445 65.4012,-217.8992"/>
</g>
<!-- Node151 -->
<g id="node3" class="node">
<title>Node151</title>
<g id="a_node3"><a xlink:href="mqtt_8c.html#a21ab01c5c7342eb954bdd128a5f4244b" target="_top" xlink:title="Delete tcp client and free all memory. ">
<polygon fill="#ffffff" stroke="#000000" points="332,-456.5 332,-475.5 443,-475.5 443,-456.5 332,-456.5"/>
<text text-anchor="middle" x="387.5" y="-463.5" font-family="Helvetica,sans-Serif" font-size="10.00" fill="#000000">mqtt_tcpclient_delete</text>
</a>
</g>
</g>
<!-- Node150&#45;&gt;Node151 -->
<g id="edge2" class="edge">
<title>Node150&#45;&gt;Node151</title>
<path fill="none" stroke="#191970" d="M282.6401,-466C298.4361,-466 315.8742,-466 331.9203,-466"/>
<polygon fill="#191970" stroke="#191970" points="282.5283,-462.5001 272.5282,-466 282.5282,-469.5001 282.5283,-462.5001"/>
</g>
<!-- Node152 -->
<g id="node4" class="node">
<title>Node152</title>
<g id="a_node4"><a xlink:href="mqtt_8c.html#a9c9b677c6161329a3c3c6470a7182984" target="_top" xlink:title="Delete MQTT client and free all memory. ">
<polygon fill="#ffffff" stroke="#000000" points="479,-494.5 479,-513.5 577,-513.5 577,-494.5 479,-494.5"/>
<text text-anchor="middle" x="528" y="-501.5" font-family="Helvetica,sans-Serif" font-size="10.00" fill="#000000">mqtt_client_delete</text>
</a>
</g>
</g>
<!-- Node151&#45;&gt;Node152 -->
<g id="edge3" class="edge">
<title>Node151&#45;&gt;Node152</title>
<path fill="none" stroke="#191970" d="M432.7787,-478.2462C452.1449,-483.484 474.4218,-489.5091 492.5573,-494.4141"/>
<polygon fill="#191970" stroke="#191970" points="433.5211,-474.8213 422.9541,-475.589 431.6934,-481.5785 433.5211,-474.8213"/>
</g>
<!-- Node153 -->
<g id="node5" class="node">
<title>Node153</title>
<g id="a_node5"><a xlink:href="mqtt_8c.html#a9d88fa6efb9163d4dbf9dc750a8d4ed0" target="_top" xlink:title="MQTT_Task">
<polygon fill="#ffffff" stroke="#000000" points="613,-456.5 613,-475.5 685,-475.5 685,-456.5 613,-456.5"/>
<text text-anchor="middle" x="649" y="-463.5" font-family="Helvetica,sans-Serif" font-size="10.00" fill="#000000">MQTT_Task</text>
</a>
</g>
</g>
<!-- Node151&#45;&gt;Node153 -->
<g id="edge6" class="edge">
<title>Node151&#45;&gt;Node153</title>
<path fill="none" stroke="#191970" d="M453.4722,-466C504.0606,-466 571.9601,-466 612.988,-466"/>
<polygon fill="#191970" stroke="#191970" points="453.2776,-462.5001 443.2776,-466 453.2775,-469.5001 453.2776,-462.5001"/>
</g>
<!-- Node155 -->
<g id="node7" class="node">
<title>Node155</title>
<g id="a_node7"><a xlink:href="mqtt_8c.html#ad34b681cb2f7473d8fc786c7ed468db5" target="_top" xlink:title="Begin connect to MQTT broker. ">
<polygon fill="#ffffff" stroke="#000000" points="484,-418.5 484,-437.5 572,-437.5 572,-418.5 484,-418.5"/>
<text text-anchor="middle" x="528" y="-425.5" font-family="Helvetica,sans-Serif" font-size="10.00" fill="#000000">MQTT_Connect</text>
</a>
</g>
</g>
<!-- Node151&#45;&gt;Node155 -->
<g id="edge7" class="edge">
<title>Node151&#45;&gt;Node155</title>
<path fill="none" stroke="#191970" d="M432.7787,-453.7538C452.1449,-448.516 474.4218,-442.4909 492.5573,-437.5859"/>
<polygon fill="#191970" stroke="#191970" points="431.6934,-450.4215 422.9541,-456.411 433.5211,-457.1787 431.6934,-450.4215"/>
</g>
<!-- Node152&#45;&gt;Node153 -->
<g id="edge4" class="edge">
<title>Node152&#45;&gt;Node153</title>
<path fill="none" stroke="#191970" d="M568.3771,-491.3196C584.7262,-486.1852 603.2878,-480.3559 618.4764,-475.5859"/>
<polygon fill="#191970" stroke="#191970" points="567.0253,-488.0755 558.5334,-494.411 569.1227,-494.7539 567.0253,-488.0755"/>
</g>
<!-- Node154 -->
<g id="node6" class="node">
<title>Node154</title>
<g id="a_node6"><a xlink:href="mqtt_8c.html#a25cb7ac079d1d119250dac075c45acf1" target="_top" xlink:title="MQTT initialization mqtt client function. ">
<polygon fill="#ffffff" stroke="#000000" points="721,-456.5 721,-475.5 810,-475.5 810,-456.5 721,-456.5"/>
<text text-anchor="middle" x="765.5" y="-463.5" font-family="Helvetica,sans-Serif" font-size="10.00" fill="#000000">MQTT_InitClient</text>
</a>
</g>
</g>
<!-- Node153&#45;&gt;Node154 -->
<g id="edge5" class="edge">
<title>Node153&#45;&gt;Node154</title>
<path fill="none" stroke="#191970" d="M695.225,-466C703.6069,-466 712.336,-466 720.6768,-466"/>
<polygon fill="#191970" stroke="#191970" points="695.2228,-462.5001 685.2227,-466 695.2227,-469.5001 695.2228,-462.5001"/>
</g>
<!-- Node155&#45;&gt;Node153 -->
<g id="edge8" class="edge">
<title>Node155&#45;&gt;Node153</title>
<path fill="none" stroke="#191970" d="M568.3771,-440.6804C584.7262,-445.8148 603.2878,-451.6441 618.4764,-456.4141"/>
<polygon fill="#191970" stroke="#191970" points="569.1227,-437.2461 558.5334,-437.589 567.0253,-443.9245 569.1227,-437.2461"/>
</g>
<!-- Node165 -->
<g id="node17" class="node">
<title>Node165</title>
<g id="a_node17"><a xlink:href="captdns_8c.html#a59c9a28ea1f015cff27b9d0c252d15f3" target="_top" xlink:title="captdnsRecv">
<polygon fill="#ffffff" stroke="#000000" points="350.5,-114.5 350.5,-133.5 424.5,-133.5 424.5,-114.5 350.5,-114.5"/>
<text text-anchor="middle" x="387.5" y="-121.5" font-family="Helvetica,sans-Serif" font-size="10.00" fill="#000000">captdnsRecv</text>
</a>
</g>
</g>
<!-- Node164&#45;&gt;Node165 -->
<g id="edge18" class="edge">
<title>Node164&#45;&gt;Node165</title>
<path fill="none" stroke="#191970" d="M286.4652,-124C307.7051,-124 331.3986,-124 350.5,-124"/>
<polygon fill="#191970" stroke="#191970" points="286.2663,-120.5001 276.2663,-124 286.2662,-127.5001 286.2663,-120.5001"/>
</g>
<!-- Node166 -->
<g id="node18" class="node">
<title>Node166</title>
<g id="a_node18"><a xlink:href="captdns_8h.html#a88f42288d1b84cab204cca9e7f7aa9a3" target="_top" xlink:title="captdnsInit">
<polygon fill="#ffffff" stroke="#000000" points="495.5,-114.5 495.5,-133.5 560.5,-133.5 560.5,-114.5 495.5,-114.5"/>
<text text-anchor="middle" x="528" y="-121.5" font-family="Helvetica,sans-Serif" font-size="10.00" fill="#000000">captdnsInit</text>
</a>
</g>
</g>
<!-- Node165&#45;&gt;Node166 -->
<g id="edge19" class="edge">
<title>Node165&#45;&gt;Node166</title>
<path fill="none" stroke="#191970" d="M434.8852,-117.5784C454.7565,-116.9882 477.3675,-117.1936 495.3318,-118.1947"/>
<polygon fill="#191970" stroke="#191970" points="434.6434,-114.0849 424.7825,-117.9595 434.9074,-121.0799 434.6434,-114.0849"/>
</g>
<!-- Node166&#45;&gt;Node165 -->
<g id="edge20" class="edge">
<title>Node166&#45;&gt;Node165</title>
<path fill="none" stroke="#191970" d="M485.2865,-130.2662C465.985,-130.9793 443.3887,-130.9041 424.7825,-130.0405"/>
<polygon fill="#191970" stroke="#191970" points="485.5027,-133.7601 495.3318,-129.8053 485.1818,-126.7674 485.5027,-133.7601"/>
</g>
</g>
</svg>
