<?xml version="1.0" encoding="UTF-8" standalone="no"?>
<!DOCTYPE svg PUBLIC "-//W3C//DTD SVG 1.1//EN"
 "http://www.w3.org/Graphics/SVG/1.1/DTD/svg11.dtd">
<!-- Generated by graphviz version 2.41.20170323.1842 (20170323.1842)
 -->
<!-- Title: espconn_client_close Pages: 1 -->
<svg width="599pt" height="85pt"
 viewBox="0.00 0.00 599.00 85.00" xmlns="http://www.w3.org/2000/svg" xmlns:xlink="http://www.w3.org/1999/xlink">
<g id="graph0" class="graph" transform="scale(1 1) rotate(0) translate(4 81)">
<title>espconn_client_close</title>
<polygon fill="#ffffff" stroke="transparent" points="-4,4 -4,-81 595,-81 595,4 -4,4"/>
<!-- Node0 -->
<g id="node1" class="node">
<title>Node0</title>
<polygon fill="#bfbfbf" stroke="#000000" points="0,-38.5 0,-57.5 112,-57.5 112,-38.5 0,-38.5"/>
<text text-anchor="middle" x="56" y="-45.5" font-family="Helvetica,sans-Serif" font-size="10.00" fill="#000000">espconn_client_close</text>
</g>
<!-- Node1 -->
<g id="node2" class="node">
<title>Node1</title>
<g id="a_node2"><a xlink:href="espconn__tcp_8c.html#a982e86de0cf75d42f72ecc953949e415" target="_top" xlink:title="espconn_client_recv">
<polygon fill="#ffffff" stroke="#000000" points="148,-38.5 148,-57.5 256,-57.5 256,-38.5 148,-38.5"/>
<text text-anchor="middle" x="202" y="-45.5" font-family="Helvetica,sans-Serif" font-size="10.00" fill="#000000">espconn_client_recv</text>
</a>
</g>
</g>
<!-- Node0&#45;&gt;Node1 -->
<g id="edge1" class="edge">
<title>Node0&#45;&gt;Node1</title>
<path fill="none" stroke="#191970" d="M112.0299,-41.4148C120.3767,-41.25 129.037,-41.2088 137.5405,-41.2912"/>
<polygon fill="#191970" stroke="#191970" points="137.7496,-44.7949 147.8036,-41.4531 137.86,-37.7957 137.7496,-44.7949"/>
</g>
<!-- Node1&#45;&gt;Node0 -->
<g id="edge7" class="edge">
<title>Node1&#45;&gt;Node0</title>
<path fill="none" stroke="#191970" d="M147.8036,-54.5469C139.4141,-54.7319 130.669,-54.7905 122.0541,-54.7228"/>
<polygon fill="#191970" stroke="#191970" points="122.077,-51.2228 112.0299,-54.5852 121.9809,-58.2222 122.077,-51.2228"/>
</g>
<!-- Node2 -->
<g id="node3" class="node">
<title>Node2</title>
<g id="a_node3"><a xlink:href="pbuf_8h.html#ab0a418a2392133e6b18c7b19f7c04500" target="_top" xlink:title="pbuf_copy_partial">
<polygon fill="#ffffff" stroke="#000000" points="292,-57.5 292,-76.5 387,-76.5 387,-57.5 292,-57.5"/>
<text text-anchor="middle" x="339.5" y="-64.5" font-family="Helvetica,sans-Serif" font-size="10.00" fill="#000000">pbuf_copy_partial</text>
</a>
</g>
</g>
<!-- Node1&#45;&gt;Node2 -->
<g id="edge2" class="edge">
<title>Node1&#45;&gt;Node2</title>
<path fill="none" stroke="#191970" d="M256.3436,-55.5093C264.6689,-56.6597 273.2892,-57.8509 281.6862,-59.0112"/>
<polygon fill="#191970" stroke="#191970" points="281.398,-62.5045 291.783,-60.4064 282.3563,-55.5704 281.398,-62.5045"/>
</g>
<!-- Node3 -->
<g id="node4" class="node">
<title>Node3</title>
<g id="a_node4"><a xlink:href="pbuf_8h.html#a0d26e00e2cf975274139d27ddabd7ed3" target="_top" xlink:title="pbuf_free">
<polygon fill="#ffffff" stroke="#000000" points="310,-19.5 310,-38.5 369,-38.5 369,-19.5 310,-19.5"/>
<text text-anchor="middle" x="339.5" y="-26.5" font-family="Helvetica,sans-Serif" font-size="10.00" fill="#000000">pbuf_free</text>
</a>
</g>
</g>
<!-- Node1&#45;&gt;Node3 -->
<g id="edge3" class="edge">
<title>Node1&#45;&gt;Node3</title>
<path fill="none" stroke="#191970" d="M256.3436,-40.4907C270.8196,-38.4904 286.1877,-36.3668 299.7224,-34.4965"/>
<polygon fill="#191970" stroke="#191970" points="300.2431,-37.9579 309.6698,-33.122 299.2849,-31.0238 300.2431,-37.9579"/>
</g>
<!-- Node4 -->
<g id="node5" class="node">
<title>Node4</title>
<g id="a_node5"><a xlink:href="esp-open-lwip_2include_2lwip_2mem_8h.html#ab270bbe39e1996d7095be3a139620ce0" target="_top" xlink:title="mem_free">
<polygon fill="#ffffff" stroke="#000000" points="425.5,-38.5 425.5,-57.5 487.5,-57.5 487.5,-38.5 425.5,-38.5"/>
<text text-anchor="middle" x="456.5" y="-45.5" font-family="Helvetica,sans-Serif" font-size="10.00" fill="#000000">mem_free</text>
</a>
</g>
</g>
<!-- Node3&#45;&gt;Node4 -->
<g id="edge4" class="edge">
<title>Node3&#45;&gt;Node4</title>
<path fill="none" stroke="#191970" d="M369.024,-33.7945C382.9948,-36.0633 399.9152,-38.811 415.1376,-41.283"/>
<polygon fill="#191970" stroke="#191970" points="414.9161,-44.7928 425.3478,-42.9411 416.0382,-37.8833 414.9161,-44.7928"/>
</g>
<!-- Node6 -->
<g id="node7" class="node">
<title>Node6</title>
<g id="a_node7"><a xlink:href="memp_8h.html#a9d30a969401eb0626105950d6e63f3bf" target="_top" xlink:title="memp_free">
<polygon fill="#ffffff" stroke="#000000" points="423,-.5 423,-19.5 490,-19.5 490,-.5 423,-.5"/>
<text text-anchor="middle" x="456.5" y="-7.5" font-family="Helvetica,sans-Serif" font-size="10.00" fill="#000000">memp_free</text>
</a>
</g>
</g>
<!-- Node3&#45;&gt;Node6 -->
<g id="edge6" class="edge">
<title>Node3&#45;&gt;Node6</title>
<path fill="none" stroke="#191970" d="M369.024,-24.2055C382.3347,-22.0439 398.323,-19.4475 412.9692,-17.0691"/>
<polygon fill="#191970" stroke="#191970" points="413.5355,-20.5231 422.8451,-15.4653 412.4134,-13.6136 413.5355,-20.5231"/>
</g>
<!-- Node5 -->
<g id="node6" class="node">
<title>Node5</title>
<g id="a_node6"><a xlink:href="mem_8c.html#a24221009a2c00e9c3fa63eaa9444a076" target="_top" xlink:title="plug_holes">
<polygon fill="#ffffff" stroke="#000000" points="526,-38.5 526,-57.5 591,-57.5 591,-38.5 526,-38.5"/>
<text text-anchor="middle" x="558.5" y="-45.5" font-family="Helvetica,sans-Serif" font-size="10.00" fill="#000000">plug_holes</text>
</a>
</g>
</g>
<!-- Node4&#45;&gt;Node5 -->
<g id="edge5" class="edge">
<title>Node4&#45;&gt;Node5</title>
<path fill="none" stroke="#191970" d="M487.6576,-48C496.5207,-48 506.3309,-48 515.7549,-48"/>
<polygon fill="#191970" stroke="#191970" points="515.7662,-51.5001 525.7662,-48 515.7661,-44.5001 515.7662,-51.5001"/>
</g>
</g>
</svg>
