<?xml version="1.0" encoding="UTF-8" standalone="no"?>
<!DOCTYPE svg PUBLIC "-//W3C//DTD SVG 1.1//EN"
 "http://www.w3.org/Graphics/SVG/1.1/DTD/svg11.dtd">
<!-- Generated by graphviz version 2.41.20170323.1842 (20170323.1842)
 -->
<!-- Title: espconn_server_sent Pages: 1 -->
<svg width="532pt" height="28pt"
 viewBox="0.00 0.00 532.00 28.00" xmlns="http://www.w3.org/2000/svg" xmlns:xlink="http://www.w3.org/1999/xlink">
<g id="graph0" class="graph" transform="scale(1 1) rotate(0) translate(4 24)">
<title>espconn_server_sent</title>
<polygon fill="#ffffff" stroke="transparent" points="-4,4 -4,-24 528,-24 528,4 -4,4"/>
<!-- Node181 -->
<g id="node1" class="node">
<title>Node181</title>
<polygon fill="#bfbfbf" stroke="#000000" points="0,-.5 0,-19.5 112,-19.5 112,-.5 0,-.5"/>
<text text-anchor="middle" x="56" y="-7.5" font-family="Helvetica,sans-Serif" font-size="10.00" fill="#000000">espconn_server_sent</text>
</g>
<!-- Node182 -->
<g id="node2" class="node">
<title>Node182</title>
<g id="a_node2"><a xlink:href="espconn__tcp_8c.html#acf0ecfba42ea8bcc55836b8dccabe511" target="_top" xlink:title="espconn_tcp_accept">
<polygon fill="#ffffff" stroke="#000000" points="148,-.5 148,-19.5 256,-19.5 256,-.5 148,-.5"/>
<text text-anchor="middle" x="202" y="-7.5" font-family="Helvetica,sans-Serif" font-size="10.00" fill="#000000">espconn_tcp_accept</text>
</a>
</g>
</g>
<!-- Node181&#45;&gt;Node182 -->
<g id="edge1" class="edge">
<title>Node181&#45;&gt;Node182</title>
<path fill="none" stroke="#191970" d="M122.0541,-10C130.669,-10 139.4141,-10 147.8036,-10"/>
<polygon fill="#191970" stroke="#191970" points="122.0299,-6.5001 112.0299,-10 122.0298,-13.5001 122.0299,-6.5001"/>
</g>
<!-- Node183 -->
<g id="node3" class="node">
<title>Node183</title>
<g id="a_node3"><a xlink:href="espconn__tcp_8c.html#ace125fa28aced169fba2b955f1ce76fb" target="_top" xlink:title="espconn_tcp_server">
<polygon fill="#ffffff" stroke="#000000" points="292,-.5 292,-19.5 399,-19.5 399,-.5 292,-.5"/>
<text text-anchor="middle" x="345.5" y="-7.5" font-family="Helvetica,sans-Serif" font-size="10.00" fill="#000000">espconn_tcp_server</text>
</a>
</g>
</g>
<!-- Node182&#45;&gt;Node183 -->
<g id="edge2" class="edge">
<title>Node182&#45;&gt;Node183</title>
<path fill="none" stroke="#191970" d="M266.4309,-10C274.8577,-10 283.4206,-10 291.6481,-10"/>
<polygon fill="#191970" stroke="#191970" points="266.2512,-6.5001 256.2512,-10 266.2512,-13.5001 266.2512,-6.5001"/>
</g>
<!-- Node184 -->
<g id="node4" class="node">
<title>Node184</title>
<g id="a_node4"><a xlink:href="sdk_2include_2espconn_8h.html#abd44446e3fc4a61fdef77d473deb678b" target="_top" xlink:title="espconn_accept">
<polygon fill="#ffffff" stroke="#000000" points="435,-.5 435,-19.5 524,-19.5 524,-.5 435,-.5"/>
<text text-anchor="middle" x="479.5" y="-7.5" font-family="Helvetica,sans-Serif" font-size="10.00" fill="#000000">espconn_accept</text>
</a>
</g>
</g>
<!-- Node183&#45;&gt;Node184 -->
<g id="edge3" class="edge">
<title>Node183&#45;&gt;Node184</title>
<path fill="none" stroke="#191970" d="M409.2847,-10C417.9061,-10 426.5987,-10 434.7897,-10"/>
<polygon fill="#191970" stroke="#191970" points="409.2309,-6.5001 399.2308,-10 409.2308,-13.5001 409.2309,-6.5001"/>
</g>
</g>
</svg>
