<?xml version="1.0" encoding="UTF-8" standalone="no"?>
<!DOCTYPE svg PUBLIC "-//W3C//DTD SVG 1.1//EN"
 "http://www.w3.org/Graphics/SVG/1.1/DTD/svg11.dtd">
<!-- Generated by graphviz version 2.41.20170323.1842 (20170323.1842)
 -->
<!-- Title: espconn_accept Pages: 1 -->
<svg width="303pt" height="28pt"
 viewBox="0.00 0.00 303.00 28.00" xmlns="http://www.w3.org/2000/svg" xmlns:xlink="http://www.w3.org/1999/xlink">
<g id="graph0" class="graph" transform="scale(1 1) rotate(0) translate(4 24)">
<title>espconn_accept</title>
<polygon fill="#ffffff" stroke="transparent" points="-4,4 -4,-24 299,-24 299,4 -4,4"/>
<!-- Node42 -->
<g id="node1" class="node">
<title>Node42</title>
<polygon fill="#bfbfbf" stroke="#000000" points="0,-.5 0,-19.5 89,-19.5 89,-.5 0,-.5"/>
<text text-anchor="middle" x="44.5" y="-7.5" font-family="Helvetica,sans-Serif" font-size="10.00" fill="#000000">espconn_accept</text>
</g>
<!-- Node43 -->
<g id="node2" class="node">
<title>Node43</title>
<g id="a_node2"><a xlink:href="httpd_8h.html#a74eb356c950228c2f024f081f7beb830" target="_top" xlink:title="httpdInit">
<polygon fill="#ffffff" stroke="#000000" points="125,-.5 125,-19.5 177,-19.5 177,-.5 125,-.5"/>
<text text-anchor="middle" x="151" y="-7.5" font-family="Helvetica,sans-Serif" font-size="10.00" fill="#000000">httpdInit</text>
</a>
</g>
</g>
<!-- Node42&#45;&gt;Node43 -->
<g id="edge1" class="edge">
<title>Node42&#45;&gt;Node43</title>
<path fill="none" stroke="#191970" d="M99.1408,-10C108.1079,-10 117.0224,-10 124.8662,-10"/>
<polygon fill="#191970" stroke="#191970" points="99.0485,-6.5001 89.0485,-10 99.0485,-13.5001 99.0485,-6.5001"/>
</g>
<!-- Node44 -->
<g id="node3" class="node">
<title>Node44</title>
<g id="a_node3"><a xlink:href="httpd__user__init_8h.html#a6abf56883c8e03334f42bfb79aa8b095" target="_top" xlink:title="httpd_user_init">
<polygon fill="#ffffff" stroke="#000000" points="213,-.5 213,-19.5 295,-19.5 295,-.5 213,-.5"/>
<text text-anchor="middle" x="254" y="-7.5" font-family="Helvetica,sans-Serif" font-size="10.00" fill="#000000">httpd_user_init</text>
</a>
</g>
</g>
<!-- Node43&#45;&gt;Node44 -->
<g id="edge2" class="edge">
<title>Node43&#45;&gt;Node44</title>
<path fill="none" stroke="#191970" d="M187.371,-10C195.6545,-10 204.5111,-10 212.9737,-10"/>
<polygon fill="#191970" stroke="#191970" points="187.2578,-6.5001 177.2578,-10 187.2577,-13.5001 187.2578,-6.5001"/>
</g>
</g>
</svg>
