<?xml version="1.0" encoding="UTF-8" standalone="no"?>
<!DOCTYPE svg PUBLIC "-//W3C//DTD SVG 1.1//EN"
 "http://www.w3.org/Graphics/SVG/1.1/DTD/svg11.dtd">
<!-- Generated by graphviz version 2.41.20170323.1842 (20170323.1842)
 -->
<!-- Title: espconn_tcp_finish Pages: 1 -->
<svg width="392pt" height="66pt"
 viewBox="0.00 0.00 392.00 66.00" xmlns="http://www.w3.org/2000/svg" xmlns:xlink="http://www.w3.org/1999/xlink">
<g id="graph0" class="graph" transform="scale(1 1) rotate(0) translate(4 62)">
<title>espconn_tcp_finish</title>
<polygon fill="#ffffff" stroke="transparent" points="-4,4 -4,-62 388,-62 388,4 -4,4"/>
<!-- Node280 -->
<g id="node1" class="node">
<title>Node280</title>
<polygon fill="#bfbfbf" stroke="#000000" points="0,-19.5 0,-38.5 102,-38.5 102,-19.5 0,-19.5"/>
<text text-anchor="middle" x="51" y="-26.5" font-family="Helvetica,sans-Serif" font-size="10.00" fill="#000000">espconn_tcp_finish</text>
</g>
<!-- Node281 -->
<g id="node2" class="node">
<title>Node281</title>
<g id="a_node2"><a xlink:href="espconn_8c.html#a5c499e423f91737c0214031fd67fdb1f" target="_top" xlink:title="espconn_pbuf_delete">
<polygon fill="#ffffff" stroke="#000000" points="138,-38.5 138,-57.5 250,-57.5 250,-38.5 138,-38.5"/>
<text text-anchor="middle" x="194" y="-45.5" font-family="Helvetica,sans-Serif" font-size="10.00" fill="#000000">espconn_pbuf_delete</text>
</a>
</g>
</g>
<!-- Node280&#45;&gt;Node281 -->
<g id="edge1" class="edge">
<title>Node280&#45;&gt;Node281</title>
<path fill="none" stroke="#191970" d="M102.2224,-35.8058C110.517,-36.9079 119.2085,-38.0627 127.7975,-39.2039"/>
<polygon fill="#191970" stroke="#191970" points="127.4294,-42.6856 137.8033,-40.5333 128.3514,-35.7466 127.4294,-42.6856"/>
</g>
<!-- Node282 -->
<g id="node3" class="node">
<title>Node282</title>
<g id="a_node3"><a xlink:href="espconn__tcp_8c.html#afedfd58842e55800f23f90ed00b0a967" target="_top" xlink:title="espconn_tcp_write">
<polygon fill="#ffffff" stroke="#000000" points="144,-.5 144,-19.5 244,-19.5 244,-.5 144,-.5"/>
<text text-anchor="middle" x="194" y="-7.5" font-family="Helvetica,sans-Serif" font-size="10.00" fill="#000000">espconn_tcp_write</text>
</a>
</g>
</g>
<!-- Node280&#45;&gt;Node282 -->
<g id="edge2" class="edge">
<title>Node280&#45;&gt;Node282</title>
<path fill="none" stroke="#191970" d="M102.2224,-22.1942C112.3202,-20.8526 123.0062,-19.4327 133.3794,-18.0545"/>
<polygon fill="#191970" stroke="#191970" points="134.1631,-21.4812 143.615,-16.6945 133.2411,-14.5422 134.1631,-21.4812"/>
</g>
<!-- Node283 -->
<g id="node4" class="node">
<title>Node283</title>
<g id="a_node4"><a xlink:href="espconn__tcp_8c.html#a5a4844397c6068a44e5422de0eadcb86" target="_top" xlink:title="espconn_tcp_sent">
<polygon fill="#ffffff" stroke="#000000" points="286,-.5 286,-19.5 384,-19.5 384,-.5 286,-.5"/>
<text text-anchor="middle" x="335" y="-7.5" font-family="Helvetica,sans-Serif" font-size="10.00" fill="#000000">espconn_tcp_sent</text>
</a>
</g>
</g>
<!-- Node282&#45;&gt;Node283 -->
<g id="edge3" class="edge">
<title>Node282&#45;&gt;Node283</title>
<path fill="none" stroke="#191970" d="M244.1083,-10C254.2006,-10 264.9029,-10 275.2855,-10"/>
<polygon fill="#191970" stroke="#191970" points="275.5272,-13.5001 285.5272,-10 275.5272,-6.5001 275.5272,-13.5001"/>
</g>
</g>
</svg>
