<?xml version="1.0" encoding="UTF-8" standalone="no"?>
<!DOCTYPE svg PUBLIC "-//W3C//DTD SVG 1.1//EN"
 "http://www.w3.org/Graphics/SVG/1.1/DTD/svg11.dtd">
<!-- Generated by graphviz version 2.41.20170323.1842 (20170323.1842)
 -->
<!-- Title: espconn_tcp_get_max_con_allow Pages: 1 -->
<svg width="537pt" height="39pt"
 viewBox="0.00 0.00 537.00 39.00" xmlns="http://www.w3.org/2000/svg" xmlns:xlink="http://www.w3.org/1999/xlink">
<g id="graph0" class="graph" transform="scale(1 1) rotate(0) translate(4 35)">
<title>espconn_tcp_get_max_con_allow</title>
<polygon fill="#ffffff" stroke="transparent" points="-4,4 -4,-35 533,-35 533,4 -4,4"/>
<!-- Node374 -->
<g id="node1" class="node">
<title>Node374</title>
<polygon fill="#bfbfbf" stroke="#000000" points="0,-.5 0,-30.5 117,-30.5 117,-.5 0,-.5"/>
<text text-anchor="start" x="8" y="-18.5" font-family="Helvetica,sans-Serif" font-size="10.00" fill="#000000">espconn_tcp_get_max</text>
<text text-anchor="middle" x="58.5" y="-7.5" font-family="Helvetica,sans-Serif" font-size="10.00" fill="#000000">_con_allow</text>
</g>
<!-- Node375 -->
<g id="node2" class="node">
<title>Node375</title>
<g id="a_node2"><a xlink:href="espconn__tcp_8c.html#acf0ecfba42ea8bcc55836b8dccabe511" target="_top" xlink:title="espconn_tcp_accept">
<polygon fill="#ffffff" stroke="#000000" points="153,-6 153,-25 261,-25 261,-6 153,-6"/>
<text text-anchor="middle" x="207" y="-13" font-family="Helvetica,sans-Serif" font-size="10.00" fill="#000000">espconn_tcp_accept</text>
</a>
</g>
</g>
<!-- Node374&#45;&gt;Node375 -->
<g id="edge1" class="edge">
<title>Node374&#45;&gt;Node375</title>
<path fill="none" stroke="#191970" d="M127.4199,-15.5C135.8676,-15.5 144.4077,-15.5 152.5999,-15.5"/>
<polygon fill="#191970" stroke="#191970" points="127.1912,-12.0001 117.1911,-15.5 127.1911,-19.0001 127.1912,-12.0001"/>
</g>
<!-- Node376 -->
<g id="node3" class="node">
<title>Node376</title>
<g id="a_node3"><a xlink:href="espconn__tcp_8c.html#ace125fa28aced169fba2b955f1ce76fb" target="_top" xlink:title="espconn_tcp_server">
<polygon fill="#ffffff" stroke="#000000" points="297,-6 297,-25 404,-25 404,-6 297,-6"/>
<text text-anchor="middle" x="350.5" y="-13" font-family="Helvetica,sans-Serif" font-size="10.00" fill="#000000">espconn_tcp_server</text>
</a>
</g>
</g>
<!-- Node375&#45;&gt;Node376 -->
<g id="edge2" class="edge">
<title>Node375&#45;&gt;Node376</title>
<path fill="none" stroke="#191970" d="M271.4309,-15.5C279.8577,-15.5 288.4206,-15.5 296.6481,-15.5"/>
<polygon fill="#191970" stroke="#191970" points="271.2512,-12.0001 261.2512,-15.5 271.2512,-19.0001 271.2512,-12.0001"/>
</g>
<!-- Node377 -->
<g id="node4" class="node">
<title>Node377</title>
<g id="a_node4"><a xlink:href="sdk_2include_2espconn_8h.html#abd44446e3fc4a61fdef77d473deb678b" target="_top" xlink:title="espconn_accept">
<polygon fill="#ffffff" stroke="#000000" points="440,-6 440,-25 529,-25 529,-6 440,-6"/>
<text text-anchor="middle" x="484.5" y="-13" font-family="Helvetica,sans-Serif" font-size="10.00" fill="#000000">espconn_accept</text>
</a>
</g>
</g>
<!-- Node376&#45;&gt;Node377 -->
<g id="edge3" class="edge">
<title>Node376&#45;&gt;Node377</title>
<path fill="none" stroke="#191970" d="M414.2847,-15.5C422.9061,-15.5 431.5987,-15.5 439.7897,-15.5"/>
<polygon fill="#191970" stroke="#191970" points="414.2309,-12.0001 404.2308,-15.5 414.2308,-19.0001 414.2309,-12.0001"/>
</g>
</g>
</svg>
