<?xml version="1.0" encoding="UTF-8" standalone="no"?>
<!DOCTYPE svg PUBLIC "-//W3C//DTD SVG 1.1//EN"
 "http://www.w3.org/Graphics/SVG/1.1/DTD/svg11.dtd">
<!-- Generated by graphviz version 2.41.20170323.1842 (20170323.1842)
 -->
<!-- Title: espconn_udp_sendto Pages: 1 -->
<svg width="889pt" height="260pt"
 viewBox="0.00 0.00 889.00 260.00" xmlns="http://www.w3.org/2000/svg" xmlns:xlink="http://www.w3.org/1999/xlink">
<g id="graph0" class="graph" transform="scale(1 1) rotate(0) translate(4 256)">
<title>espconn_udp_sendto</title>
<polygon fill="#ffffff" stroke="transparent" points="-4,4 -4,-256 885,-256 885,4 -4,4"/>
<!-- Node6 -->
<g id="node1" class="node">
<title>Node6</title>
<polygon fill="#bfbfbf" stroke="#000000" points="0,-114.5 0,-133.5 112,-133.5 112,-114.5 0,-114.5"/>
<text text-anchor="middle" x="56" y="-121.5" font-family="Helvetica,sans-Serif" font-size="10.00" fill="#000000">espconn_udp_sendto</text>
</g>
<!-- Node7 -->
<g id="node2" class="node">
<title>Node7</title>
<g id="a_node2"><a xlink:href="$wlan__lwip__if_8h.html#a7e70d2ab3f2caed091644850737a363e" xlink:title="eagle_lwip_getif">
<polygon fill="#ffffff" stroke="#000000" points="440,-190.5 440,-209.5 528,-209.5 528,-190.5 440,-190.5"/>
<text text-anchor="middle" x="484" y="-197.5" font-family="Helvetica,sans-Serif" font-size="10.00" fill="#000000">eagle_lwip_getif</text>
</a>
</g>
</g>
<!-- Node6&#45;&gt;Node7 -->
<g id="edge1" class="edge">
<title>Node6&#45;&gt;Node7</title>
<path fill="none" stroke="#191970" d="M61.3633,-133.5556C73.5789,-154.2303 105.7176,-202.7957 148,-222 250.8039,-268.6925 290.5143,-244.8821 402,-227 418.8337,-224.2999 436.8973,-218.6686 451.7744,-213.244"/>
<polygon fill="#191970" stroke="#191970" points="453.3963,-216.3726 461.5105,-209.5601 450.919,-209.8256 453.3963,-216.3726"/>
</g>
<!-- Node8 -->
<g id="node3" class="node">
<title>Node8</title>
<g id="a_node3"><a xlink:href="$espconn__udp_8c.html#ad90679652367797548ea650f09d14f7e" xlink:title="espconn_data_sent">
<polygon fill="#ffffff" stroke="#000000" points="148,-114.5 148,-133.5 252,-133.5 252,-114.5 148,-114.5"/>
<text text-anchor="middle" x="200" y="-121.5" font-family="Helvetica,sans-Serif" font-size="10.00" fill="#000000">espconn_data_sent</text>
</a>
</g>
</g>
<!-- Node6&#45;&gt;Node8 -->
<g id="edge2" class="edge">
<title>Node6&#45;&gt;Node8</title>
<path fill="none" stroke="#191970" d="M112.0865,-124C120.3956,-124 129.0025,-124 137.4337,-124"/>
<polygon fill="#191970" stroke="#191970" points="137.599,-127.5001 147.599,-124 137.5989,-120.5001 137.599,-127.5001"/>
</g>
<!-- Node11 -->
<g id="node6" class="node">
<title>Node11</title>
<g id="a_node6"><a xlink:href="$pbuf_8h.html#ac6efc2aaeddfea6c95729dc86f785ba4" xlink:title="pbuf_alloc">
<polygon fill="#ffffff" stroke="#000000" points="453,-152.5 453,-171.5 515,-171.5 515,-152.5 453,-152.5"/>
<text text-anchor="middle" x="484" y="-159.5" font-family="Helvetica,sans-Serif" font-size="10.00" fill="#000000">pbuf_alloc</text>
</a>
</g>
</g>
<!-- Node6&#45;&gt;Node11 -->
<g id="edge31" class="edge">
<title>Node6&#45;&gt;Node11</title>
<path fill="none" stroke="#191970" d="M64.7849,-133.6538C79.9566,-149.573 112.8396,-180.8734 148,-194 253.8253,-233.5082 293.2625,-233.595 402,-203 420.0502,-197.9213 421.2831,-189.4942 438,-181 441.6229,-179.1591 445.4672,-177.3534 449.3292,-175.632"/>
<polygon fill="#191970" stroke="#191970" points="451.0353,-178.7089 458.85,-171.5548 448.2796,-172.2741 451.0353,-178.7089"/>
</g>
<!-- Node20 -->
<g id="node15" class="node">
<title>Node20</title>
<g id="a_node15"><a xlink:href="$espmissingincludes_8h.html#a48d756265c0c1c35ba1fba102efe4d0a" xlink:title="wifi_get_opmode">
<polygon fill="#ffffff" stroke="#000000" points="438,-76.5 438,-95.5 530,-95.5 530,-76.5 438,-76.5"/>
<text text-anchor="middle" x="484" y="-83.5" font-family="Helvetica,sans-Serif" font-size="10.00" fill="#000000">wifi_get_opmode</text>
</a>
</g>
</g>
<!-- Node6&#45;&gt;Node20 -->
<g id="edge34" class="edge">
<title>Node6&#45;&gt;Node20</title>
<path fill="none" stroke="#191970" d="M85.2417,-114.3984C128.8269,-100.643 213.679,-75.9962 288,-67 338.2995,-60.9115 351.6613,-61.2443 402,-67 414.8309,-68.4671 428.5751,-71.1855 441.0731,-74.1165"/>
<polygon fill="#191970" stroke="#191970" points="440.2424,-77.5165 450.7877,-76.4929 441.9057,-70.7169 440.2424,-77.5165"/>
</g>
<!-- Node21 -->
<g id="node16" class="node">
<title>Node21</title>
<g id="a_node16"><a xlink:href="$pbuf_8h.html#a5aed441d496f607ad88ae1db2084c2d6" xlink:title="pbuf_copy">
<polygon fill="#ffffff" stroke="#000000" points="452.5,-38.5 452.5,-57.5 515.5,-57.5 515.5,-38.5 452.5,-38.5"/>
<text text-anchor="middle" x="484" y="-45.5" font-family="Helvetica,sans-Serif" font-size="10.00" fill="#000000">pbuf_copy</text>
</a>
</g>
</g>
<!-- Node6&#45;&gt;Node21 -->
<g id="edge32" class="edge">
<title>Node6&#45;&gt;Node21</title>
<path fill="none" stroke="#191970" d="M67.9007,-114.346C84.63,-101.3981 116.5832,-78.8929 148,-69 249.6567,-36.989 376.9698,-39.9261 441.8117,-44.2656"/>
<polygon fill="#191970" stroke="#191970" points="441.8206,-47.7751 452.0449,-44.9977 442.3202,-40.793 441.8206,-47.7751"/>
</g>
<!-- Node22 -->
<g id="node17" class="node">
<title>Node22</title>
<g id="a_node17"><a xlink:href="$netif_8h.html#adf60dd30848a63ce3a1339c98c098acc" xlink:title="netif_set_default">
<polygon fill="#ffffff" stroke="#000000" points="439,-.5 439,-19.5 529,-19.5 529,-.5 439,-.5"/>
<text text-anchor="middle" x="484" y="-7.5" font-family="Helvetica,sans-Serif" font-size="10.00" fill="#000000">netif_set_default</text>
</a>
</g>
</g>
<!-- Node6&#45;&gt;Node22 -->
<g id="edge30" class="edge">
<title>Node6&#45;&gt;Node22</title>
<path fill="none" stroke="#191970" d="M63.6052,-114.2511C77.9455,-96.6837 110.8955,-60.0516 148,-44 240.3874,-4.0326 359.9789,-2.3813 428.7324,-5.6289"/>
<polygon fill="#191970" stroke="#191970" points="428.7384,-9.1339 438.9082,-6.1632 429.1055,-2.1435 428.7384,-9.1339"/>
</g>
<!-- Node23 -->
<g id="node18" class="node">
<title>Node23</title>
<g id="a_node18"><a xlink:href="$pbuf_8h.html#a0d26e00e2cf975274139d27ddabd7ed3" xlink:title="pbuf_free">
<polygon fill="#ffffff" stroke="#000000" points="454.5,-114.5 454.5,-133.5 513.5,-133.5 513.5,-114.5 454.5,-114.5"/>
<text text-anchor="middle" x="484" y="-121.5" font-family="Helvetica,sans-Serif" font-size="10.00" fill="#000000">pbuf_free</text>
</a>
</g>
</g>
<!-- Node6&#45;&gt;Node23 -->
<g id="edge33" class="edge">
<title>Node6&#45;&gt;Node23</title>
<path fill="none" stroke="#191970" d="M73.7483,-133.5605C126.2156,-160.4607 284.2777,-231.6361 402,-181 423.3713,-171.8075 418.8261,-156.1756 438,-143 440.5525,-141.246 443.2921,-139.6107 446.1162,-138.0952"/>
<polygon fill="#191970" stroke="#191970" points="447.8139,-141.1623 455.2993,-133.6643 444.7719,-134.8578 447.8139,-141.1623"/>
</g>
<!-- Node9 -->
<g id="node4" class="node">
<title>Node9</title>
<g id="a_node4"><a xlink:href="$espconn__udp_8c.html#acf012530a067499d3c1f70091f09427f" xlink:title="espconn_data_sentcb">
<polygon fill="#ffffff" stroke="#000000" points="288,-152.5 288,-171.5 402,-171.5 402,-152.5 288,-152.5"/>
<text text-anchor="middle" x="345" y="-159.5" font-family="Helvetica,sans-Serif" font-size="10.00" fill="#000000">espconn_data_sentcb</text>
</a>
</g>
</g>
<!-- Node8&#45;&gt;Node9 -->
<g id="edge3" class="edge">
<title>Node8&#45;&gt;Node9</title>
<path fill="none" stroke="#191970" d="M236.5896,-133.589C255.4654,-138.5358 278.6859,-144.6211 298.7879,-149.8892"/>
<polygon fill="#191970" stroke="#191970" points="298.1129,-153.3305 308.6735,-152.4799 299.8875,-146.5591 298.1129,-153.3305"/>
</g>
<!-- Node10 -->
<g id="node5" class="node">
<title>Node10</title>
<g id="a_node5"><a xlink:href="$espconn__udp_8c.html#ac963eff73234530596d6c02e6bb05e09" xlink:title="espconn_udp_sent">
<polygon fill="#ffffff" stroke="#000000" points="294.5,-76.5 294.5,-95.5 395.5,-95.5 395.5,-76.5 294.5,-76.5"/>
<text text-anchor="middle" x="345" y="-83.5" font-family="Helvetica,sans-Serif" font-size="10.00" fill="#000000">espconn_udp_sent</text>
</a>
</g>
</g>
<!-- Node8&#45;&gt;Node10 -->
<g id="edge4" class="edge">
<title>Node8&#45;&gt;Node10</title>
<path fill="none" stroke="#191970" d="M218.6594,-114.4076C235.3243,-108.4047 260.6842,-101.1029 284.3212,-95.2324"/>
<polygon fill="#191970" stroke="#191970" points="285.4202,-98.5675 294.3155,-92.8121 283.7726,-91.7642 285.4202,-98.5675"/>
</g>
<!-- Node24 -->
<g id="node19" class="node">
<title>Node24</title>
<g id="a_node19"><a xlink:href="$espconn__udp_8c.html#a01fa0df74518311e3eb03f2d955f9f26" xlink:title="espconn_udp_sendto">
<polygon fill="#ffffff" stroke="#000000" points="289,-114.5 289,-133.5 401,-133.5 401,-114.5 289,-114.5"/>
<text text-anchor="middle" x="345" y="-121.5" font-family="Helvetica,sans-Serif" font-size="10.00" fill="#000000">espconn_udp_sendto</text>
</a>
</g>
</g>
<!-- Node8&#45;&gt;Node24 -->
<g id="edge22" class="edge">
<title>Node8&#45;&gt;Node24</title>
<path fill="none" stroke="#191970" d="M252.3483,-117.4873C260.8609,-117.2819 269.776,-117.2099 278.5712,-117.2711"/>
<polygon fill="#191970" stroke="#191970" points="278.7648,-120.7738 288.8095,-117.4042 278.8559,-113.7744 278.7648,-120.7738"/>
</g>
<!-- Node10&#45;&gt;Node7 -->
<g id="edge14" class="edge">
<title>Node10&#45;&gt;Node7</title>
<path fill="none" stroke="#191970" d="M387.0054,-95.5767C392.4413,-98.0376 397.628,-101.126 402,-105 429.9735,-129.7875 410.9104,-155.2495 438,-181 439.6283,-182.5478 441.4003,-183.9772 443.2701,-185.2962"/>
<polygon fill="#191970" stroke="#191970" points="441.5563,-188.3487 451.9511,-190.398 445.1031,-182.3137 441.5563,-188.3487"/>
</g>
<!-- Node10&#45;&gt;Node8 -->
<g id="edge21" class="edge">
<title>Node10&#45;&gt;Node8</title>
<path fill="none" stroke="#191970" d="M326.2851,-95.6124C309.969,-101.4857 285.3484,-108.5983 262.1668,-114.3967"/>
<polygon fill="#191970" stroke="#191970" points="261.2328,-111.0218 252.3483,-116.7938 262.8931,-117.8221 261.2328,-111.0218"/>
</g>
<!-- Node10&#45;&gt;Node11 -->
<g id="edge5" class="edge">
<title>Node10&#45;&gt;Node11</title>
<path fill="none" stroke="#191970" d="M382.3915,-95.5257C389.1909,-98.0631 396.0171,-101.1897 402,-105 421.6229,-117.4971 418.8261,-129.8244 438,-143 440.5525,-144.754 443.2921,-146.3893 446.1162,-147.9048"/>
<polygon fill="#191970" stroke="#191970" points="444.7719,-151.1422 455.2993,-152.3357 447.8139,-144.8377 444.7719,-151.1422"/>
</g>
<!-- Node10&#45;&gt;Node20 -->
<g id="edge15" class="edge">
<title>Node10&#45;&gt;Node20</title>
<path fill="none" stroke="#191970" d="M395.5754,-86C406.0462,-86 417.1373,-86 427.7951,-86"/>
<polygon fill="#191970" stroke="#191970" points="427.8463,-89.5001 437.8463,-86 427.8462,-82.5001 427.8463,-89.5001"/>
</g>
<!-- Node10&#45;&gt;Node21 -->
<g id="edge16" class="edge">
<title>Node10&#45;&gt;Node21</title>
<path fill="none" stroke="#191970" d="M380.0756,-76.411C399.0647,-71.2197 422.6407,-64.7745 442.5349,-59.3358"/>
<polygon fill="#191970" stroke="#191970" points="443.54,-62.6895 452.2631,-56.6763 441.694,-55.9373 443.54,-62.6895"/>
</g>
<!-- Node10&#45;&gt;Node22 -->
<g id="edge17" class="edge">
<title>Node10&#45;&gt;Node22</title>
<path fill="none" stroke="#191970" d="M359.0916,-76.3884C376.9683,-64.4261 408.9714,-43.7739 438,-29 441.6217,-27.1568 445.4652,-25.3495 449.3268,-23.6272"/>
<polygon fill="#191970" stroke="#191970" points="451.0332,-26.704 458.8471,-19.549 448.2768,-20.2695 451.0332,-26.704"/>
</g>
<!-- Node10&#45;&gt;Node23 -->
<g id="edge18" class="edge">
<title>Node10&#45;&gt;Node23</title>
<path fill="none" stroke="#191970" d="M380.0756,-95.589C399.6151,-100.9307 424.0113,-107.6002 444.2553,-113.1345"/>
<polygon fill="#191970" stroke="#191970" points="443.548,-116.5695 454.117,-115.8305 445.3939,-109.8173 443.548,-116.5695"/>
</g>
<!-- Node12 -->
<g id="node7" class="node">
<title>Node12</title>
<g id="a_node7"><a xlink:href="$memp_8h.html#a5b98c976852aa0eabda9fd588be56eb8" xlink:title="memp_malloc">
<polygon fill="#ffffff" stroke="#000000" points="566,-190.5 566,-209.5 645,-209.5 645,-190.5 566,-190.5"/>
<text text-anchor="middle" x="605.5" y="-197.5" font-family="Helvetica,sans-Serif" font-size="10.00" fill="#000000">memp_malloc</text>
</a>
</g>
</g>
<!-- Node11&#45;&gt;Node12 -->
<g id="edge6" class="edge">
<title>Node11&#45;&gt;Node12</title>
<path fill="none" stroke="#191970" d="M514.6596,-171.589C529.9124,-176.3594 548.5509,-182.1888 564.9666,-187.3229"/>
<polygon fill="#191970" stroke="#191970" points="564.2614,-190.7694 574.8502,-190.4141 566.3509,-184.0886 564.2614,-190.7694"/>
</g>
<!-- Node13 -->
<g id="node8" class="node">
<title>Node13</title>
<g id="a_node8"><a xlink:href="$pbuf_8c.html#ab0dd696fb4b6bc65e548944584f1738b" xlink:title="pbuf_free">
<polygon fill="#ffffff" stroke="#000000" points="576,-152.5 576,-171.5 635,-171.5 635,-152.5 576,-152.5"/>
<text text-anchor="middle" x="605.5" y="-159.5" font-family="Helvetica,sans-Serif" font-size="10.00" fill="#000000">pbuf_free</text>
</a>
</g>
</g>
<!-- Node11&#45;&gt;Node13 -->
<g id="edge7" class="edge">
<title>Node11&#45;&gt;Node13</title>
<path fill="none" stroke="#191970" d="M515.2893,-162C530.6315,-162 549.2815,-162 565.6332,-162"/>
<polygon fill="#191970" stroke="#191970" points="565.9889,-165.5001 575.9889,-162 565.9889,-158.5001 565.9889,-165.5001"/>
</g>
<!-- Node17 -->
<g id="node12" class="node">
<title>Node17</title>
<g id="a_node12"><a xlink:href="$esp-open-lwip_2include_2lwip_2mem_8h.html#a1cb005c6c44b685b8025b329a6d2bcd4" xlink:title="mem_malloc">
<polygon fill="#ffffff" stroke="#000000" points="569,-228.5 569,-247.5 642,-247.5 642,-228.5 569,-228.5"/>
<text text-anchor="middle" x="605.5" y="-235.5" font-family="Helvetica,sans-Serif" font-size="10.00" fill="#000000">mem_malloc</text>
</a>
</g>
</g>
<!-- Node11&#45;&gt;Node17 -->
<g id="edge11" class="edge">
<title>Node11&#45;&gt;Node17</title>
<path fill="none" stroke="#191970" d="M512.7007,-171.6643C518.6635,-174.2635 524.7303,-177.3788 530,-181 549.1739,-194.1756 547.2069,-205.2867 566,-219 568.2283,-220.626 570.6176,-222.1725 573.0776,-223.6294"/>
<polygon fill="#191970" stroke="#191970" points="571.6689,-226.8457 582.1346,-228.4951 574.9817,-220.6792 571.6689,-226.8457"/>
</g>
<!-- Node14 -->
<g id="node9" class="node">
<title>Node14</title>
<g id="a_node9"><a xlink:href="$memp_8h.html#a9d30a969401eb0626105950d6e63f3bf" xlink:title="memp_free">
<polygon fill="#ffffff" stroke="#000000" points="697,-90.5 697,-109.5 764,-109.5 764,-90.5 697,-90.5"/>
<text text-anchor="middle" x="730.5" y="-97.5" font-family="Helvetica,sans-Serif" font-size="10.00" fill="#000000">memp_free</text>
</a>
</g>
</g>
<!-- Node13&#45;&gt;Node14 -->
<g id="edge8" class="edge">
<title>Node13&#45;&gt;Node14</title>
<path fill="none" stroke="#191970" d="M624.7573,-152.4484C645.3425,-142.2381 678.2031,-125.9393 701.8308,-114.2199"/>
<polygon fill="#191970" stroke="#191970" points="703.6115,-117.2436 711.0149,-109.6646 700.5011,-110.9726 703.6115,-117.2436"/>
</g>
<!-- Node15 -->
<g id="node10" class="node">
<title>Node15</title>
<g id="a_node10"><a xlink:href="$esp-open-lwip_2include_2lwip_2mem_8h.html#ab270bbe39e1996d7095be3a139620ce0" xlink:title="mem_free">
<polygon fill="#ffffff" stroke="#000000" points="699.5,-147.5 699.5,-166.5 761.5,-166.5 761.5,-147.5 699.5,-147.5"/>
<text text-anchor="middle" x="730.5" y="-154.5" font-family="Helvetica,sans-Serif" font-size="10.00" fill="#000000">mem_free</text>
</a>
</g>
</g>
<!-- Node13&#45;&gt;Node15 -->
<g id="edge9" class="edge">
<title>Node13&#45;&gt;Node15</title>
<path fill="none" stroke="#191970" d="M635.1233,-160.8151C651.2973,-160.1681 671.5779,-159.3569 689.2746,-158.649"/>
<polygon fill="#191970" stroke="#191970" points="689.493,-162.1432 699.345,-158.2462 689.2131,-155.1488 689.493,-162.1432"/>
</g>
<!-- Node16 -->
<g id="node11" class="node">
<title>Node16</title>
<g id="a_node11"><a xlink:href="$mem_8c.html#a24221009a2c00e9c3fa63eaa9444a076" xlink:title="plug_holes">
<polygon fill="#ffffff" stroke="#000000" points="816,-147.5 816,-166.5 881,-166.5 881,-147.5 816,-147.5"/>
<text text-anchor="middle" x="848.5" y="-154.5" font-family="Helvetica,sans-Serif" font-size="10.00" fill="#000000">plug_holes</text>
</a>
</g>
</g>
<!-- Node15&#45;&gt;Node16 -->
<g id="edge10" class="edge">
<title>Node15&#45;&gt;Node16</title>
<path fill="none" stroke="#191970" d="M761.5031,-157C774.9102,-157 790.8283,-157 805.3598,-157"/>
<polygon fill="#191970" stroke="#191970" points="805.6403,-160.5001 815.6402,-157 805.6402,-153.5001 805.6403,-160.5001"/>
</g>
<!-- Node18 -->
<g id="node13" class="node">
<title>Node18</title>
<g id="a_node13"><a xlink:href="$sys_8h.html#a4d4eb9afe5965fa2661dd54ff55d616a" xlink:title="sys_mutex_lock">
<polygon fill="#ffffff" stroke="#000000" points="686.5,-232.5 686.5,-251.5 774.5,-251.5 774.5,-232.5 686.5,-232.5"/>
<text text-anchor="middle" x="730.5" y="-239.5" font-family="Helvetica,sans-Serif" font-size="10.00" fill="#000000">sys_mutex_lock</text>
</a>
</g>
</g>
<!-- Node17&#45;&gt;Node18 -->
<g id="edge12" class="edge">
<title>Node17&#45;&gt;Node18</title>
<path fill="none" stroke="#191970" d="M642.328,-239.1785C652.9143,-239.5173 664.6899,-239.8941 676.0993,-240.2592"/>
<polygon fill="#191970" stroke="#191970" points="676.3228,-243.768 686.4297,-240.5897 676.5468,-236.7716 676.3228,-243.768"/>
</g>
<!-- Node19 -->
<g id="node14" class="node">
<title>Node19</title>
<g id="a_node14"><a xlink:href="$sys_8h.html#a5568f68898fe9d5735f9ce2f665624fb" xlink:title="sys_mutex_unlock">
<polygon fill="#ffffff" stroke="#000000" points="681,-194.5 681,-213.5 780,-213.5 780,-194.5 681,-194.5"/>
<text text-anchor="middle" x="730.5" y="-201.5" font-family="Helvetica,sans-Serif" font-size="10.00" fill="#000000">sys_mutex_unlock</text>
</a>
</g>
</g>
<!-- Node17&#45;&gt;Node19 -->
<g id="edge13" class="edge">
<title>Node17&#45;&gt;Node19</title>
<path fill="none" stroke="#191970" d="M640.6521,-228.4386C654.4985,-224.6724 670.5756,-220.2994 685.2705,-216.3024"/>
<polygon fill="#191970" stroke="#191970" points="686.4479,-219.6094 695.1786,-213.6074 684.6106,-212.8548 686.4479,-219.6094"/>
</g>
<!-- Node23&#45;&gt;Node14 -->
<g id="edge19" class="edge">
<title>Node23&#45;&gt;Node14</title>
<path fill="none" stroke="#191970" d="M513.8772,-118.0979C529.3718,-115.2408 548.6403,-112.0036 566,-110 606.6511,-105.3082 653.2243,-102.7376 686.4145,-101.3825"/>
<polygon fill="#191970" stroke="#191970" points="686.8389,-104.8687 696.6958,-100.9841 686.5678,-97.874 686.8389,-104.8687"/>
</g>
<!-- Node23&#45;&gt;Node15 -->
<g id="edge20" class="edge">
<title>Node23&#45;&gt;Node15</title>
<path fill="none" stroke="#191970" d="M513.7251,-127.1043C546.0733,-130.5766 599.2925,-136.5641 645,-143 659.5024,-145.042 675.3414,-147.5559 689.4024,-149.8874"/>
<polygon fill="#191970" stroke="#191970" points="688.8412,-153.3421 699.2822,-151.5434 689.9985,-146.4384 688.8412,-153.3421"/>
</g>
<!-- Node24&#45;&gt;Node7 -->
<g id="edge24" class="edge">
<title>Node24&#45;&gt;Node7</title>
<path fill="none" stroke="#191970" d="M382.3915,-133.5257C389.1909,-136.0631 396.0171,-139.1897 402,-143 421.6229,-155.4971 418.8261,-167.8244 438,-181 440.5525,-182.754 443.2921,-184.3893 446.1162,-185.9048"/>
<polygon fill="#191970" stroke="#191970" points="444.7719,-189.1422 455.2993,-190.3357 447.8139,-182.8377 444.7719,-189.1422"/>
</g>
<!-- Node24&#45;&gt;Node8 -->
<g id="edge29" class="edge">
<title>Node24&#45;&gt;Node8</title>
<path fill="none" stroke="#191970" d="M288.8095,-130.5958C280.1883,-130.7614 271.2426,-130.7936 262.4949,-130.6925"/>
<polygon fill="#191970" stroke="#191970" points="262.4088,-127.1906 252.3483,-130.5127 262.2847,-134.1895 262.4088,-127.1906"/>
</g>
<!-- Node24&#45;&gt;Node11 -->
<g id="edge23" class="edge">
<title>Node24&#45;&gt;Node11</title>
<path fill="none" stroke="#191970" d="M380.0756,-133.589C399.2023,-138.8179 422.9826,-145.319 442.9668,-150.7823"/>
<polygon fill="#191970" stroke="#191970" points="442.1609,-154.1903 452.7299,-153.4513 444.0069,-147.4381 442.1609,-154.1903"/>
</g>
<!-- Node24&#45;&gt;Node20 -->
<g id="edge25" class="edge">
<title>Node24&#45;&gt;Node20</title>
<path fill="none" stroke="#191970" d="M380.0756,-114.411C398.0191,-109.5056 420.0584,-103.4804 439.2167,-98.2429"/>
<polygon fill="#191970" stroke="#191970" points="440.2126,-101.5992 448.9357,-95.5859 438.3666,-94.8469 440.2126,-101.5992"/>
</g>
<!-- Node24&#45;&gt;Node21 -->
<g id="edge26" class="edge">
<title>Node24&#45;&gt;Node21</title>
<path fill="none" stroke="#191970" d="M382.3915,-114.4743C389.1909,-111.9369 396.0171,-108.8103 402,-105 421.6229,-92.5029 418.8261,-80.1756 438,-67 440.5525,-65.246 443.2921,-63.6107 446.1162,-62.0952"/>
<polygon fill="#191970" stroke="#191970" points="447.8139,-65.1623 455.2993,-57.6643 444.7719,-58.8578 447.8139,-65.1623"/>
</g>
<!-- Node24&#45;&gt;Node22 -->
<g id="edge27" class="edge">
<title>Node24&#45;&gt;Node22</title>
<path fill="none" stroke="#191970" d="M387.0054,-114.4233C392.4413,-111.9624 397.628,-108.874 402,-105 429.9735,-80.2125 410.9104,-54.7505 438,-29 439.6283,-27.4522 441.4003,-26.0228 443.2701,-24.7038"/>
<polygon fill="#191970" stroke="#191970" points="445.1031,-27.6863 451.9511,-19.602 441.5563,-21.6513 445.1031,-27.6863"/>
</g>
<!-- Node24&#45;&gt;Node23 -->
<g id="edge28" class="edge">
<title>Node24&#45;&gt;Node23</title>
<path fill="none" stroke="#191970" d="M401.136,-124C415.5237,-124 430.7055,-124 444.0878,-124"/>
<polygon fill="#191970" stroke="#191970" points="444.3848,-127.5001 454.3848,-124 444.3847,-120.5001 444.3848,-127.5001"/>
</g>
</g>
</svg>
