<?xml version="1.0" encoding="UTF-8" standalone="no"?>
<!DOCTYPE svg PUBLIC "-//W3C//DTD SVG 1.1//EN"
 "http://www.w3.org/Graphics/SVG/1.1/DTD/svg11.dtd">
<!-- Generated by graphviz version 2.39.20160927.1334 (20160927.1334)
 -->
<!-- Title: uart_div_modify Pages: 1 -->
<svg width="1320pt" height="154pt"
 viewBox="0.00 0.00 1320.00 153.50" xmlns="http://www.w3.org/2000/svg" xmlns:xlink="http://www.w3.org/1999/xlink">
<g id="graph0" class="graph" transform="scale(1 1) rotate(0) translate(4 149.5)">
<title>uart_div_modify</title>
<polygon fill="#ffffff" stroke="transparent" points="-4,4 -4,-149.5 1316,-149.5 1316,4 -4,4"/>
<!-- Node1 -->
<g id="node1" class="node">
<title>Node1</title>
<polygon fill="#bfbfbf" stroke="#000000" points="0,-38.5 0,-57.5 87,-57.5 87,-38.5 0,-38.5"/>
<text text-anchor="middle" x="43.5" y="-45.5" font-family="Helvetica,sans-Serif" font-size="10.00" fill="#000000">uart_div_modify</text>
</g>
<!-- Node2 -->
<g id="node2" class="node">
<title>Node2</title>
<g id="a_node2"><a xlink:href="uart_8c.html#a489b77b74dfee22fd4f0c5323ab44da6" target="_top" xlink:title="uart_config">
<polygon fill="#ffffff" stroke="#000000" points="123,-38.5 123,-57.5 189,-57.5 189,-38.5 123,-38.5"/>
<text text-anchor="middle" x="156" y="-45.5" font-family="Helvetica,sans-Serif" font-size="10.00" fill="#000000">uart_config</text>
</a>
</g>
</g>
<!-- Node1&#45;&gt;Node2 -->
<g id="edge1" class="edge">
<title>Node1&#45;&gt;Node2</title>
<path fill="none" stroke="#191970" d="M97.446,-48C106.145,-48 114.918,-48 122.931,-48"/>
<polygon fill="#191970" stroke="#191970" points="97.3176,-44.5001 87.3176,-48 97.3175,-51.5001 97.3176,-44.5001"/>
</g>
<!-- Node3 -->
<g id="node3" class="node">
<title>Node3</title>
<g id="a_node3"><a xlink:href="uart_8h.html#a1fdfa60721412bedfeb7be0ebc4d1700" target="_top" xlink:title="uart_init">
<polygon fill="#ffffff" stroke="#000000" points="225,-38.5 225,-57.5 277,-57.5 277,-38.5 225,-38.5"/>
<text text-anchor="middle" x="251" y="-45.5" font-family="Helvetica,sans-Serif" font-size="10.00" fill="#000000">uart_init</text>
</a>
</g>
</g>
<!-- Node2&#45;&gt;Node3 -->
<g id="edge2" class="edge">
<title>Node2&#45;&gt;Node3</title>
<path fill="none" stroke="#191970" d="M199.298,-48C208.012,-48 216.916,-48 224.825,-48"/>
<polygon fill="#191970" stroke="#191970" points="199.226,-44.5001 189.226,-48 199.226,-51.5001 199.226,-44.5001"/>
</g>
<!-- Node4 -->
<g id="node4" class="node">
<title>Node4</title>
<g id="a_node4"><a xlink:href="en61107__request_8h.html#a8b0d746dce87f92833ba6f5b83febe63" target="_top" xlink:title="en61107_get_data_timer_func">
<polygon fill="#ffffff" stroke="#000000" points="313,-98.5 313,-117.5 465,-117.5 465,-98.5 313,-98.5"/>
<text text-anchor="middle" x="389" y="-105.5" font-family="Helvetica,sans-Serif" font-size="10.00" fill="#000000">en61107_get_data_timer_func</text>
</a>
</g>
</g>
<!-- Node3&#45;&gt;Node4 -->
<g id="edge3" class="edge">
<title>Node3&#45;&gt;Node4</title>
<path fill="none" stroke="#191970" d="M282.191,-61.5613C307.945,-72.7587 343.865,-88.3763 366.779,-98.3386"/>
<polygon fill="#191970" stroke="#191970" points="283.433,-58.2848 272.867,-57.5072 280.642,-64.7042 283.433,-58.2848"/>
</g>
<!-- Node11 -->
<g id="node11" class="node">
<title>Node11</title>
<g id="a_node11"><a xlink:href="user__main_8h.html#a33113d6dedb440bd7dfa5576e325140c" target="_top" xlink:title="user_init">
<polygon fill="#ffffff" stroke="#000000" points="1258,-57.5 1258,-76.5 1312,-76.5 1312,-57.5 1258,-57.5"/>
<text text-anchor="middle" x="1285" y="-64.5" font-family="Helvetica,sans-Serif" font-size="10.00" fill="#000000">user_init</text>
</a>
</g>
</g>
<!-- Node3&#45;&gt;Node11 -->
<g id="edge13" class="edge">
<title>Node3&#45;&gt;Node11</title>
<path fill="none" stroke="#191970" d="M287.346,-48C345.397,-48 462.629,-48 562,-48 562,-48 562,-48 1026,-48 1110.76,-48 1210.71,-58.2468 1257.83,-63.6905"/>
<polygon fill="#191970" stroke="#191970" points="287.213,-44.5001 277.213,-48 287.213,-51.5001 287.213,-44.5001"/>
</g>
<!-- Node12 -->
<g id="node12" class="node">
<title>Node12</title>
<g id="a_node12"><a xlink:href="uart_8c.html#a15a9e8dca40ebbeea858ce8f081c06cf" target="_top" xlink:title="uart_reattach">
<polygon fill="#ffffff" stroke="#000000" points="351.5,-0.5 351.5,-19.5 426.5,-19.5 426.5,-0.5 351.5,-0.5"/>
<text text-anchor="middle" x="389" y="-7.5" font-family="Helvetica,sans-Serif" font-size="10.00" fill="#000000">uart_reattach</text>
</a>
</g>
</g>
<!-- Node3&#45;&gt;Node12 -->
<g id="edge12" class="edge">
<title>Node3&#45;&gt;Node12</title>
<path fill="none" stroke="#191970" d="M287.034,-38.0777C307.851,-32.3454 333.901,-25.1721 354.461,-19.5109"/>
<polygon fill="#191970" stroke="#191970" points="285.994,-34.7338 277.282,-40.763 287.852,-41.4826 285.994,-34.7338"/>
</g>
<!-- Node5 -->
<g id="node5" class="node">
<title>Node5</title>
<g id="a_node5"><a xlink:href="en61107__request_8h.html#a7384d014eb9e833f64ecf4a9f86f87be" target="_top" xlink:title="en61107_request_send">
<polygon fill="#ffffff" stroke="#000000" points="501,-98.5 501,-117.5 623,-117.5 623,-98.5 501,-98.5"/>
<text text-anchor="middle" x="562" y="-105.5" font-family="Helvetica,sans-Serif" font-size="10.00" fill="#000000">en61107_request_send</text>
</a>
</g>
</g>
<!-- Node4&#45;&gt;Node5 -->
<g id="edge4" class="edge">
<title>Node4&#45;&gt;Node5</title>
<path fill="none" stroke="#191970" d="M475.271,-108C483.927,-108 492.587,-108 500.902,-108"/>
<polygon fill="#191970" stroke="#191970" points="475.132,-104.5 465.132,-108 475.132,-111.5 475.132,-104.5"/>
</g>
<!-- Node6 -->
<g id="node6" class="node">
<title>Node6</title>
<g id="a_node6"><a xlink:href="en61107__request_8h.html#a6379eaf88ea35baaf2a3ab8a0ae66fdb" target="_top" xlink:title="en61107_receive_timeout\l_timer_func">
<polygon fill="#ffffff" stroke="#000000" points="659,-115 659,-145 791,-145 791,-115 659,-115"/>
<text text-anchor="start" x="667" y="-133" font-family="Helvetica,sans-Serif" font-size="10.00" fill="#000000">en61107_receive_timeout</text>
<text text-anchor="middle" x="725" y="-122" font-family="Helvetica,sans-Serif" font-size="10.00" fill="#000000">_timer_func</text>
</a>
</g>
</g>
<!-- Node5&#45;&gt;Node6 -->
<g id="edge5" class="edge">
<title>Node5&#45;&gt;Node6</title>
<path fill="none" stroke="#191970" d="M633.2,-110.908C642.927,-112.129 652.853,-113.508 662.412,-114.967"/>
<polygon fill="#191970" stroke="#191970" points="633.507,-107.42 623.159,-109.695 632.667,-114.369 633.507,-107.42"/>
</g>
<!-- Node7 -->
<g id="node7" class="node">
<title>Node7</title>
<g id="a_node7"><a xlink:href="user__main_8c.html#af2c051d5ceacd30f90c08d6f584deff2" target="_top" xlink:title="sample_timer_func">
<polygon fill="#ffffff" stroke="#000000" points="674.5,-76.5 674.5,-95.5 775.5,-95.5 775.5,-76.5 674.5,-76.5"/>
<text text-anchor="middle" x="725" y="-83.5" font-family="Helvetica,sans-Serif" font-size="10.00" fill="#000000">sample_timer_func</text>
</a>
</g>
</g>
<!-- Node5&#45;&gt;Node7 -->
<g id="edge7" class="edge">
<title>Node5&#45;&gt;Node7</title>
<path fill="none" stroke="#191970" d="M633.176,-98.3934C647.064,-96.519 661.358,-94.5897 674.411,-92.828"/>
<polygon fill="#191970" stroke="#191970" points="632.601,-94.9392 623.159,-99.7454 633.537,-101.876 632.601,-94.9392"/>
</g>
<!-- Node6&#45;&gt;Node5 -->
<g id="edge6" class="edge">
<title>Node6&#45;&gt;Node5</title>
<path fill="none" stroke="#191970" d="M648.692,-126.439C628.85,-123.854 608.595,-120.678 592.659,-117.549"/>
<polygon fill="#191970" stroke="#191970" points="648.332,-129.921 658.691,-127.695 649.205,-122.975 648.332,-129.921"/>
</g>
<!-- Node8 -->
<g id="node8" class="node">
<title>Node8</title>
<g id="a_node8"><a xlink:href="user__main_8h.html#a06f2b383d99fcad9d0f37d1ca2224898" target="_top" xlink:title="mqttConnectedCb">
<polygon fill="#ffffff" stroke="#000000" points="827,-76.5 827,-95.5 924,-95.5 924,-76.5 827,-76.5"/>
<text text-anchor="middle" x="875.5" y="-83.5" font-family="Helvetica,sans-Serif" font-size="10.00" fill="#000000">mqttConnectedCb</text>
</a>
</g>
</g>
<!-- Node7&#45;&gt;Node8 -->
<g id="edge8" class="edge">
<title>Node7&#45;&gt;Node8</title>
<path fill="none" stroke="#191970" d="M785.819,-86C799.48,-86 813.8,-86 826.885,-86"/>
<polygon fill="#191970" stroke="#191970" points="785.533,-82.5001 775.533,-86 785.533,-89.5001 785.533,-82.5001"/>
</g>
<!-- Node9 -->
<g id="node9" class="node">
<title>Node9</title>
<g id="a_node9"><a xlink:href="user__main_8c.html#a245ec00253f410a8804988bf40e1037e" target="_top" xlink:title="sample_mode_timer_func">
<polygon fill="#ffffff" stroke="#000000" points="960,-76.5 960,-95.5 1092,-95.5 1092,-76.5 960,-76.5"/>
<text text-anchor="middle" x="1026" y="-83.5" font-family="Helvetica,sans-Serif" font-size="10.00" fill="#000000">sample_mode_timer_func</text>
</a>
</g>
</g>
<!-- Node8&#45;&gt;Node9 -->
<g id="edge9" class="edge">
<title>Node8&#45;&gt;Node9</title>
<path fill="none" stroke="#191970" d="M934.387,-86C942.745,-86 951.385,-86 959.869,-86"/>
<polygon fill="#191970" stroke="#191970" points="934.363,-82.5001 924.363,-86 934.363,-89.5001 934.363,-82.5001"/>
</g>
<!-- Node10 -->
<g id="node10" class="node">
<title>Node10</title>
<g id="a_node10"><a xlink:href="user__main_8h.html#a3671381db669a16e8f6a4bf3dfb9a441" target="_top" xlink:title="system_init_done">
<polygon fill="#ffffff" stroke="#000000" points="1128,-76.5 1128,-95.5 1222,-95.5 1222,-76.5 1128,-76.5"/>
<text text-anchor="middle" x="1175" y="-83.5" font-family="Helvetica,sans-Serif" font-size="10.00" fill="#000000">system_init_done</text>
</a>
</g>
</g>
<!-- Node9&#45;&gt;Node10 -->
<g id="edge10" class="edge">
<title>Node9&#45;&gt;Node10</title>
<path fill="none" stroke="#191970" d="M1102.36,-86C1111.01,-86 1119.62,-86 1127.74,-86"/>
<polygon fill="#191970" stroke="#191970" points="1102.22,-82.5001 1092.22,-86 1102.22,-89.5001 1102.22,-82.5001"/>
</g>
<!-- Node10&#45;&gt;Node11 -->
<g id="edge11" class="edge">
<title>Node10&#45;&gt;Node11</title>
<path fill="none" stroke="#191970" d="M1232.29,-76.1047C1241.16,-74.5724 1249.95,-73.0538 1257.74,-71.7088"/>
<polygon fill="#191970" stroke="#191970" points="1231.55,-72.6809 1222.29,-77.832 1232.74,-79.5788 1231.55,-72.6809"/>
</g>
</g>
</svg>
