<?xml version="1.0" encoding="UTF-8" standalone="no"?>
<!DOCTYPE svg PUBLIC "-//W3C//DTD SVG 1.1//EN"
 "http://www.w3.org/Graphics/SVG/1.1/DTD/svg11.dtd">
<!-- Generated by graphviz version 2.40.1 (20161225.0304)
 -->
<!-- Title: wifi_get_opmode Pages: 1 -->
<svg width="670pt" height="377pt"
 viewBox="0.00 0.00 670.00 376.50" xmlns="http://www.w3.org/2000/svg" xmlns:xlink="http://www.w3.org/1999/xlink">
<g id="graph0" class="graph" transform="scale(1 1) rotate(0) translate(4 372.5)">
<title>wifi_get_opmode</title>
<polygon fill="#ffffff" stroke="transparent" points="-4,4 -4,-372.5 666,-372.5 666,4 -4,4"/>
<!-- Node162 -->
<g id="node1" class="node">
<title>Node162</title>
<polygon fill="#bfbfbf" stroke="#000000" points="0,-197 0,-216 92,-216 92,-197 0,-197"/>
<text text-anchor="middle" x="46" y="-204" font-family="Helvetica,sans-Serif" font-size="10.00" fill="#000000">wifi_get_opmode</text>
</g>
<!-- Node163 -->
<g id="node2" class="node">
<title>Node163</title>
<g id="a_node2"><a xlink:href="sdk_2include_2espconn_8h.html#a949cd618667cea85b1b99d14b90dce7d" target="_top" xlink:title="espconn_connect">
<polygon fill="#ffffff" stroke="#000000" points="142.5,-349 142.5,-368 237.5,-368 237.5,-349 142.5,-349"/>
<text text-anchor="middle" x="190" y="-356" font-family="Helvetica,sans-Serif" font-size="10.00" fill="#000000">espconn_connect</text>
</a>
</g>
</g>
<!-- Node162&#45;&gt;Node163 -->
<g id="edge1" class="edge">
<title>Node162&#45;&gt;Node163</title>
<path fill="none" stroke="#191970" d="M52.6949,-225.5727C63.8105,-254.4805 88.8088,-309.2193 128,-339.5 132.9888,-343.3546 138.7619,-346.432 144.7373,-348.8877"/>
<polygon fill="#191970" stroke="#191970" points="55.9753,-224.3522 49.2273,-216.1843 49.4089,-226.7776 55.9753,-224.3522"/>
</g>
<!-- Node164 -->
<g id="node3" class="node">
<title>Node164</title>
<g id="a_node3"><a xlink:href="espconn__udp_8c.html#ac52ad5e01c1a769947766d4a890f1cc7" target="_top" xlink:title="espconn_udp_recv">
<polygon fill="#ffffff" stroke="#000000" points="139.5,-311 139.5,-330 240.5,-330 240.5,-311 139.5,-311"/>
<text text-anchor="middle" x="190" y="-318" font-family="Helvetica,sans-Serif" font-size="10.00" fill="#000000">espconn_udp_recv</text>
</a>
</g>
</g>
<!-- Node162&#45;&gt;Node164 -->
<g id="edge2" class="edge">
<title>Node162&#45;&gt;Node164</title>
<path fill="none" stroke="#191970" d="M57.0757,-224.6603C71.0393,-246.0668 97.0039,-281.2791 128,-301.5 133.9402,-305.3752 140.7116,-308.4938 147.5453,-310.9934"/>
<polygon fill="#191970" stroke="#191970" points="59.9966,-222.7308 51.6876,-216.1572 54.0837,-226.4775 59.9966,-222.7308"/>
</g>
<!-- Node167 -->
<g id="node6" class="node">
<title>Node167</title>
<g id="a_node6"><a xlink:href="espconn__udp_8c.html#a01fa0df74518311e3eb03f2d955f9f26" target="_top" xlink:title="espconn_udp_sendto">
<polygon fill="#ffffff" stroke="#000000" points="134,-273 134,-292 246,-292 246,-273 134,-273"/>
<text text-anchor="middle" x="190" y="-280" font-family="Helvetica,sans-Serif" font-size="10.00" fill="#000000">espconn_udp_sendto</text>
</a>
</g>
</g>
<!-- Node162&#45;&gt;Node167 -->
<g id="edge5" class="edge">
<title>Node162&#45;&gt;Node167</title>
<path fill="none" stroke="#191970" d="M67.6715,-221.8955C83.8169,-232.9502 106.666,-247.737 128,-258.5 138.8203,-263.9588 151.1947,-268.9772 162.0281,-272.9981"/>
<polygon fill="#191970" stroke="#191970" points="69.655,-219.0119 59.4436,-216.1873 65.6648,-224.7633 69.655,-219.0119"/>
</g>
<!-- Node169 -->
<g id="node8" class="node">
<title>Node169</title>
<g id="a_node8"><a xlink:href="espconn__udp_8c.html#ac963eff73234530596d6c02e6bb05e09" target="_top" xlink:title="espconn_udp_sent">
<polygon fill="#ffffff" stroke="#000000" points="440,-273 440,-292 541,-292 541,-273 440,-273"/>
<text text-anchor="middle" x="490.5" y="-280" font-family="Helvetica,sans-Serif" font-size="10.00" fill="#000000">espconn_udp_sent</text>
</a>
</g>
</g>
<!-- Node162&#45;&gt;Node169 -->
<g id="edge15" class="edge">
<title>Node162&#45;&gt;Node169</title>
<path fill="none" stroke="#191970" d="M94.171,-218.405C105.2453,-220.9347 117.0001,-223.4556 128,-225.5 247.1425,-247.6429 278.589,-242.8541 398,-263.5 413.9931,-266.2652 431.45,-269.7331 446.8468,-272.9468"/>
<polygon fill="#191970" stroke="#191970" points="94.7663,-214.9501 84.2332,-216.0928 93.1799,-221.768 94.7663,-214.9501"/>
</g>
<!-- Node174 -->
<g id="node13" class="node">
<title>Node174</title>
<g id="a_node13"><a xlink:href="cgiwifi_8h.html#ace460e5ac8fd74afa8616bfc82561b26" target="_top" xlink:title="tplSetup">
<polygon fill="#ffffff" stroke="#000000" points="163.5,-197 163.5,-216 216.5,-216 216.5,-197 163.5,-197"/>
<text text-anchor="middle" x="190" y="-204" font-family="Helvetica,sans-Serif" font-size="10.00" fill="#000000">tplSetup</text>
</a>
</g>
</g>
<!-- Node162&#45;&gt;Node174 -->
<g id="edge16" class="edge">
<title>Node162&#45;&gt;Node174</title>
<path fill="none" stroke="#191970" d="M102.4909,-206.5C123.5088,-206.5 146.3779,-206.5 163.465,-206.5"/>
<polygon fill="#191970" stroke="#191970" points="102.3552,-203.0001 92.3551,-206.5 102.3551,-210.0001 102.3552,-203.0001"/>
</g>
<!-- Node175 -->
<g id="node14" class="node">
<title>Node175</title>
<g id="a_node14"><a xlink:href="user__interface_8h.html#ab2a17bcf37d23826044a0fb221188265" target="_top" xlink:title="wifi_softap_get_dhcps\l_lease">
<polygon fill="#ffffff" stroke="#000000" points="132.5,-147.5 132.5,-177.5 247.5,-177.5 247.5,-147.5 132.5,-147.5"/>
<text text-anchor="start" x="140.5" y="-165.5" font-family="Helvetica,sans-Serif" font-size="10.00" fill="#000000">wifi_softap_get_dhcps</text>
<text text-anchor="middle" x="190" y="-154.5" font-family="Helvetica,sans-Serif" font-size="10.00" fill="#000000">_lease</text>
</a>
</g>
</g>
<!-- Node162&#45;&gt;Node175 -->
<g id="edge17" class="edge">
<title>Node162&#45;&gt;Node175</title>
<path fill="none" stroke="#191970" d="M87.2337,-193.9008C103.9046,-188.8069 123.2859,-182.8849 140.6952,-177.5654"/>
<polygon fill="#191970" stroke="#191970" points="85.7866,-190.6832 77.2459,-196.9527 87.8322,-197.3776 85.7866,-190.6832"/>
</g>
<!-- Node176 -->
<g id="node15" class="node">
<title>Node176</title>
<g id="a_node15"><a xlink:href="user__interface_8h.html#a78ef453f3e627eefd1c5a2ef077cc0b9" target="_top" xlink:title="wifi_softap_reset_dhcps\l_lease_time">
<polygon fill="#ffffff" stroke="#000000" points="128,-98.5 128,-128.5 252,-128.5 252,-98.5 128,-98.5"/>
<text text-anchor="start" x="136" y="-116.5" font-family="Helvetica,sans-Serif" font-size="10.00" fill="#000000">wifi_softap_reset_dhcps</text>
<text text-anchor="middle" x="190" y="-105.5" font-family="Helvetica,sans-Serif" font-size="10.00" fill="#000000">_lease_time</text>
</a>
</g>
</g>
<!-- Node162&#45;&gt;Node176 -->
<g id="edge18" class="edge">
<title>Node162&#45;&gt;Node176</title>
<path fill="none" stroke="#191970" d="M62.6356,-189.6087C78.3619,-174.3808 103.1851,-152.1874 128,-137.5 133.5624,-134.2078 139.658,-131.2075 145.7874,-128.5289"/>
<polygon fill="#191970" stroke="#191970" points="59.9473,-187.3444 55.2892,-196.8603 64.8649,-192.3262 59.9473,-187.3444"/>
</g>
<!-- Node177 -->
<g id="node16" class="node">
<title>Node177</title>
<g id="a_node16"><a xlink:href="user__interface_8h.html#a88284afccfb825d3b47ed45d1a6f26e2" target="_top" xlink:title="wifi_softap_set_dhcps\l_lease">
<polygon fill="#ffffff" stroke="#000000" points="132.5,-49.5 132.5,-79.5 247.5,-79.5 247.5,-49.5 132.5,-49.5"/>
<text text-anchor="start" x="140.5" y="-67.5" font-family="Helvetica,sans-Serif" font-size="10.00" fill="#000000">wifi_softap_set_dhcps</text>
<text text-anchor="middle" x="190" y="-56.5" font-family="Helvetica,sans-Serif" font-size="10.00" fill="#000000">_lease</text>
</a>
</g>
</g>
<!-- Node162&#45;&gt;Node177 -->
<g id="edge19" class="edge">
<title>Node162&#45;&gt;Node177</title>
<path fill="none" stroke="#191970" d="M54.5957,-187.7162C67.2485,-161.9871 93.2041,-115.8646 128,-88.5 132.3549,-85.0752 137.2564,-82.0909 142.3464,-79.5024"/>
<polygon fill="#191970" stroke="#191970" points="51.4127,-186.2596 50.2706,-196.7927 57.732,-189.2709 51.4127,-186.2596"/>
</g>
<!-- Node181 -->
<g id="node20" class="node">
<title>Node181</title>
<g id="a_node20"><a xlink:href="user__interface_8h.html#a4d2c217a01e271ce74a00a32a6e5187f" target="_top" xlink:title="wifi_softap_set_dhcps\l_lease_time">
<polygon fill="#ffffff" stroke="#000000" points="132.5,-.5 132.5,-30.5 247.5,-30.5 247.5,-.5 132.5,-.5"/>
<text text-anchor="start" x="140.5" y="-18.5" font-family="Helvetica,sans-Serif" font-size="10.00" fill="#000000">wifi_softap_set_dhcps</text>
<text text-anchor="middle" x="190" y="-7.5" font-family="Helvetica,sans-Serif" font-size="10.00" fill="#000000">_lease_time</text>
</a>
</g>
</g>
<!-- Node162&#45;&gt;Node181 -->
<g id="edge23" class="edge">
<title>Node162&#45;&gt;Node181</title>
<path fill="none" stroke="#191970" d="M50.5915,-186.9154C59.6271,-152.4865 82.8782,-80.8533 128,-39.5 131.744,-36.0687 136.0326,-33.1079 140.5679,-30.5572"/>
<polygon fill="#191970" stroke="#191970" points="47.175,-186.1507 48.1476,-196.7008 53.9664,-187.8469 47.175,-186.1507"/>
</g>
<!-- Node165 -->
<g id="node4" class="node">
<title>Node165</title>
<g id="a_node4"><a xlink:href="espconn__udp_8c.html#a9bec8b8f0b6b24ef4f29f4294e1f129c" target="_top" xlink:title="espconn_udp_server">
<polygon fill="#ffffff" stroke="#000000" points="288,-349 288,-368 398,-368 398,-349 288,-349"/>
<text text-anchor="middle" x="343" y="-356" font-family="Helvetica,sans-Serif" font-size="10.00" fill="#000000">espconn_udp_server</text>
</a>
</g>
</g>
<!-- Node164&#45;&gt;Node165 -->
<g id="edge3" class="edge">
<title>Node164&#45;&gt;Node165</title>
<path fill="none" stroke="#191970" d="M238.4768,-332.54C259.8517,-337.8488 284.6134,-343.9988 304.6693,-348.9799"/>
<polygon fill="#191970" stroke="#191970" points="239.1572,-329.1027 228.6084,-330.089 237.4698,-335.8963 239.1572,-329.1027"/>
</g>
<!-- Node166 -->
<g id="node5" class="node">
<title>Node166</title>
<g id="a_node5"><a xlink:href="sdk_2include_2espconn_8h.html#ad55b9729c7629f40c8e7ae2d73f7f174" target="_top" xlink:title="espconn_create">
<polygon fill="#ffffff" stroke="#000000" points="446.5,-349 446.5,-368 534.5,-368 534.5,-349 446.5,-349"/>
<text text-anchor="middle" x="490.5" y="-356" font-family="Helvetica,sans-Serif" font-size="10.00" fill="#000000">espconn_create</text>
</a>
</g>
</g>
<!-- Node165&#45;&gt;Node166 -->
<g id="edge4" class="edge">
<title>Node165&#45;&gt;Node166</title>
<path fill="none" stroke="#191970" d="M408.5107,-358.5C421.3157,-358.5 434.4563,-358.5 446.3622,-358.5"/>
<polygon fill="#191970" stroke="#191970" points="408.3432,-355.0001 398.3432,-358.5 408.3432,-362.0001 408.3432,-355.0001"/>
</g>
<!-- Node168 -->
<g id="node7" class="node">
<title>Node168</title>
<g id="a_node7"><a xlink:href="espconn__udp_8c.html#ad90679652367797548ea650f09d14f7e" target="_top" xlink:title="espconn_data_sent">
<polygon fill="#ffffff" stroke="#000000" points="291,-273 291,-292 395,-292 395,-273 291,-273"/>
<text text-anchor="middle" x="343" y="-280" font-family="Helvetica,sans-Serif" font-size="10.00" fill="#000000">espconn_data_sent</text>
</a>
</g>
</g>
<!-- Node167&#45;&gt;Node168 -->
<g id="edge6" class="edge">
<title>Node167&#45;&gt;Node168</title>
<path fill="none" stroke="#191970" d="M256.2117,-275.8046C267.8411,-275.6806 279.7936,-275.7679 290.9677,-276.0667"/>
<polygon fill="#191970" stroke="#191970" points="256.0449,-272.3067 246.1028,-275.9679 256.1581,-279.3058 256.0449,-272.3067"/>
</g>
<!-- Node171 -->
<g id="node10" class="node">
<title>Node171</title>
<g id="a_node10"><a xlink:href="sdk_2include_2espconn_8h.html#a62219be0ac7e8dd6085915d5c0777476" target="_top" xlink:title="espconn_sendto">
<polygon fill="#ffffff" stroke="#000000" points="298,-311 298,-330 388,-330 388,-311 298,-311"/>
<text text-anchor="middle" x="343" y="-318" font-family="Helvetica,sans-Serif" font-size="10.00" fill="#000000">espconn_sendto</text>
</a>
</g>
</g>
<!-- Node167&#45;&gt;Node171 -->
<g id="edge11" class="edge">
<title>Node167&#45;&gt;Node171</title>
<path fill="none" stroke="#191970" d="M238.4768,-294.54C259.8517,-299.8488 284.6134,-305.9988 304.6693,-310.9799"/>
<polygon fill="#191970" stroke="#191970" points="239.1572,-291.1027 228.6084,-292.089 237.4698,-297.8963 239.1572,-291.1027"/>
</g>
<!-- Node168&#45;&gt;Node167 -->
<g id="edge7" class="edge">
<title>Node168&#45;&gt;Node167</title>
<path fill="none" stroke="#191970" d="M280.6256,-289.1467C269.1976,-289.3156 257.3338,-289.2774 246.1028,-289.0321"/>
<polygon fill="#191970" stroke="#191970" points="281.042,-292.6389 290.9677,-288.9333 280.8976,-285.6404 281.042,-292.6389"/>
</g>
<!-- Node168&#45;&gt;Node169 -->
<g id="edge8" class="edge">
<title>Node168&#45;&gt;Node169</title>
<path fill="none" stroke="#191970" d="M405.0871,-275.8256C416.7125,-275.6738 428.7345,-275.7507 439.9581,-276.0563"/>
<polygon fill="#191970" stroke="#191970" points="404.9344,-272.3278 395.003,-276.0179 405.0679,-279.3265 404.9344,-272.3278"/>
</g>
<!-- Node169&#45;&gt;Node168 -->
<g id="edge9" class="edge">
<title>Node169&#45;&gt;Node168</title>
<path fill="none" stroke="#191970" d="M429.9195,-289.1534C418.3306,-289.325 406.2934,-289.2679 395.003,-288.9821"/>
<polygon fill="#191970" stroke="#191970" points="430.0334,-292.6519 439.9581,-288.9437 429.8872,-285.6534 430.0334,-292.6519"/>
</g>
<!-- Node170 -->
<g id="node9" class="node">
<title>Node170</title>
<g id="a_node9"><a xlink:href="sdk_2include_2espconn_8h.html#a579e4f1c62f7c33be01398931617e988" target="_top" xlink:title="espconn_sent">
<polygon fill="#ffffff" stroke="#000000" points="583,-273 583,-292 662,-292 662,-273 583,-273"/>
<text text-anchor="middle" x="622.5" y="-280" font-family="Helvetica,sans-Serif" font-size="10.00" fill="#000000">espconn_sent</text>
</a>
</g>
</g>
<!-- Node169&#45;&gt;Node170 -->
<g id="edge10" class="edge">
<title>Node169&#45;&gt;Node170</title>
<path fill="none" stroke="#191970" d="M551.3238,-282.5C562.0247,-282.5 572.9082,-282.5 582.8397,-282.5"/>
<polygon fill="#191970" stroke="#191970" points="551.1572,-279.0001 541.1571,-282.5 551.1571,-286.0001 551.1572,-279.0001"/>
</g>
<!-- Node172 -->
<g id="node11" class="node">
<title>Node172</title>
<g id="a_node11"><a xlink:href="captdns_8c.html#a59c9a28ea1f015cff27b9d0c252d15f3" target="_top" xlink:title="captdnsRecv">
<polygon fill="#ffffff" stroke="#000000" points="453.5,-311 453.5,-330 527.5,-330 527.5,-311 453.5,-311"/>
<text text-anchor="middle" x="490.5" y="-318" font-family="Helvetica,sans-Serif" font-size="10.00" fill="#000000">captdnsRecv</text>
</a>
</g>
</g>
<!-- Node171&#45;&gt;Node172 -->
<g id="edge12" class="edge">
<title>Node171&#45;&gt;Node172</title>
<path fill="none" stroke="#191970" d="M398.0593,-320.5C416.4284,-320.5 436.4536,-320.5 453.1544,-320.5"/>
<polygon fill="#191970" stroke="#191970" points="398.0564,-317.0001 388.0563,-320.5 398.0563,-324.0001 398.0564,-317.0001"/>
</g>
<!-- Node173 -->
<g id="node12" class="node">
<title>Node173</title>
<g id="a_node12"><a xlink:href="captdns_8h.html#a88f42288d1b84cab204cca9e7f7aa9a3" target="_top" xlink:title="captdnsInit">
<polygon fill="#ffffff" stroke="#000000" points="590,-311 590,-330 655,-330 655,-311 590,-311"/>
<text text-anchor="middle" x="622.5" y="-318" font-family="Helvetica,sans-Serif" font-size="10.00" fill="#000000">captdnsInit</text>
</a>
</g>
</g>
<!-- Node172&#45;&gt;Node173 -->
<g id="edge13" class="edge">
<title>Node172&#45;&gt;Node173</title>
<path fill="none" stroke="#191970" d="M538.0122,-313.9911C555.1513,-313.533 574.0997,-313.7277 589.7012,-314.575"/>
<polygon fill="#191970" stroke="#191970" points="537.4899,-310.5074 527.6206,-314.3607 537.7387,-317.503 537.4899,-310.5074"/>
</g>
<!-- Node173&#45;&gt;Node172 -->
<g id="edge14" class="edge">
<title>Node173&#45;&gt;Node172</title>
<path fill="none" stroke="#191970" d="M579.6006,-326.8682C562.832,-327.4446 543.7866,-327.3683 527.6206,-326.6393"/>
<polygon fill="#191970" stroke="#191970" points="579.8643,-330.3601 589.7012,-326.425 579.5573,-323.3668 579.8643,-330.3601"/>
</g>
<!-- Node178 -->
<g id="node17" class="node">
<title>Node178</title>
<g id="a_node17"><a xlink:href="wifi_8c.html#a28b06ff6229540010e142c61c8da1551" target="_top" xlink:title="wifi_softap_ip_config">
<polygon fill="#ffffff" stroke="#000000" points="288.5,-55 288.5,-74 397.5,-74 397.5,-55 288.5,-55"/>
<text text-anchor="middle" x="343" y="-62" font-family="Helvetica,sans-Serif" font-size="10.00" fill="#000000">wifi_softap_ip_config</text>
</a>
</g>
</g>
<!-- Node177&#45;&gt;Node178 -->
<g id="edge20" class="edge">
<title>Node177&#45;&gt;Node178</title>
<path fill="none" stroke="#191970" d="M257.9298,-64.5C268.1125,-64.5 278.5002,-64.5 288.3592,-64.5"/>
<polygon fill="#191970" stroke="#191970" points="257.8428,-61.0001 247.8427,-64.5 257.8427,-68.0001 257.8428,-61.0001"/>
</g>
<!-- Node179 -->
<g id="node18" class="node">
<title>Node179</title>
<g id="a_node18"><a xlink:href="wifi_8c.html#aa87c06c3cbab2aa762551fcec59dc8f0" target="_top" xlink:title="wifi_handle_event_cb">
<polygon fill="#ffffff" stroke="#000000" points="434,-55 434,-74 547,-74 547,-55 434,-55"/>
<text text-anchor="middle" x="490.5" y="-62" font-family="Helvetica,sans-Serif" font-size="10.00" fill="#000000">wifi_handle_event_cb</text>
</a>
</g>
</g>
<!-- Node178&#45;&gt;Node179 -->
<g id="edge21" class="edge">
<title>Node178&#45;&gt;Node179</title>
<path fill="none" stroke="#191970" d="M407.6139,-64.5C416.3184,-64.5 425.1953,-64.5 433.7495,-64.5"/>
<polygon fill="#191970" stroke="#191970" points="407.5045,-61.0001 397.5045,-64.5 407.5045,-68.0001 407.5045,-61.0001"/>
</g>
<!-- Node180 -->
<g id="node19" class="node">
<title>Node180</title>
<g id="a_node19"><a xlink:href="wifi_8c.html#a9c38abb0900e0c7308be77d85dbf09e0" target="_top" xlink:title="wifi_connect">
<polygon fill="#ffffff" stroke="#000000" points="586.5,-55 586.5,-74 658.5,-74 658.5,-55 586.5,-55"/>
<text text-anchor="middle" x="622.5" y="-62" font-family="Helvetica,sans-Serif" font-size="10.00" fill="#000000">wifi_connect</text>
</a>
</g>
</g>
<!-- Node179&#45;&gt;Node180 -->
<g id="edge22" class="edge">
<title>Node179&#45;&gt;Node180</title>
<path fill="none" stroke="#191970" d="M557.2644,-64.5C567.3094,-64.5 577.3308,-64.5 586.3977,-64.5"/>
<polygon fill="#191970" stroke="#191970" points="557.246,-61.0001 547.2459,-64.5 557.2459,-68.0001 557.246,-61.0001"/>
</g>
</g>
</svg>
