<?xml version="1.0" encoding="UTF-8" standalone="no"?>
<!DOCTYPE svg PUBLIC "-//W3C//DTD SVG 1.1//EN"
 "http://www.w3.org/Graphics/SVG/1.1/DTD/svg11.dtd">
<!-- Generated by graphviz version 2.39.20160927.1334 (20160927.1334)
 -->
<!-- Title: include/espmissingincludes.h Pages: 1 -->
<svg width="2711pt" height="386pt"
 viewBox="0.00 0.00 2711.06 386.00" xmlns="http://www.w3.org/2000/svg" xmlns:xlink="http://www.w3.org/1999/xlink">
<g id="graph0" class="graph" transform="scale(1 1) rotate(0) translate(4 382)">
<title>include/espmissingincludes.h</title>
<polygon fill="#ffffff" stroke="transparent" points="-4,4 -4,-382 2707.06,-382 2707.06,4 -4,4"/>
<!-- Node1 -->
<g id="node1" class="node">
<title>Node1</title>
<polygon fill="#bfbfbf" stroke="#000000" points="1285.56,-358.5 1285.56,-377.5 1431.56,-377.5 1431.56,-358.5 1285.56,-358.5"/>
<text text-anchor="middle" x="1358.56" y="-365.5" font-family="Helvetica,sans-Serif" font-size="10.00" fill="#000000">include/espmissingincludes.h</text>
</g>
<!-- Node2 -->
<g id="node2" class="node">
<title>Node2</title>
<g id="a_node2"><a xlink:href="esp8266_8h.html" target="_top" xlink:title="include/esp8266.h">
<polygon fill="#ffffff" stroke="#000000" points="1252.56,-302.5 1252.56,-321.5 1350.56,-321.5 1350.56,-302.5 1252.56,-302.5"/>
<text text-anchor="middle" x="1301.56" y="-309.5" font-family="Helvetica,sans-Serif" font-size="10.00" fill="#000000">include/esp8266.h</text>
</a>
</g>
</g>
<!-- Node1&#45;&gt;Node2 -->
<g id="edge1" class="edge">
<title>Node1&#45;&gt;Node2</title>
<path fill="none" stroke="#191970" d="M1341.33,-351.075C1331.52,-341.44 1319.59,-329.72 1311.37,-321.643"/>
<polygon fill="#191970" stroke="#191970" points="1339.04,-353.734 1348.63,-358.246 1343.95,-348.741 1339.04,-353.734"/>
</g>
<!-- Node44 -->
<g id="node44" class="node">
<title>Node44</title>
<g id="a_node44"><a xlink:href="lwipopts_8h.html" target="_top" xlink:title="include/lwipopts.h">
<polygon fill="#ffffff" stroke="#000000" points="1369.06,-302.5 1369.06,-321.5 1464.06,-321.5 1464.06,-302.5 1369.06,-302.5"/>
<text text-anchor="middle" x="1416.56" y="-309.5" font-family="Helvetica,sans-Serif" font-size="10.00" fill="#000000">include/lwipopts.h</text>
</a>
</g>
</g>
<!-- Node1&#45;&gt;Node44 -->
<g id="edge73" class="edge">
<title>Node1&#45;&gt;Node44</title>
<path fill="none" stroke="#191970" d="M1376.09,-351.075C1386.07,-341.44 1398.21,-329.72 1406.57,-321.643"/>
<polygon fill="#191970" stroke="#191970" points="1373.42,-348.782 1368.66,-358.246 1378.29,-353.817 1373.42,-348.782"/>
</g>
<!-- Node3 -->
<g id="node3" class="node">
<title>Node3</title>
<g id="a_node3"><a xlink:href="config_8c.html" target="_top" xlink:title="modules/config.c">
<polygon fill="#ffffff" stroke="#000000" points="196.558,-73 196.558,-92 288.558,-92 288.558,-73 196.558,-73"/>
<text text-anchor="middle" x="242.558" y="-80" font-family="Helvetica,sans-Serif" font-size="10.00" fill="#000000">modules/config.c</text>
</a>
</g>
</g>
<!-- Node2&#45;&gt;Node3 -->
<g id="edge2" class="edge">
<title>Node2&#45;&gt;Node3</title>
<path fill="none" stroke="#191970" d="M1242.12,-310.927C994.211,-306.319 54.391,-287.459 32.5575,-266 -9.3263,-224.834 -9.83621,-180.091 26.5575,-134 47.2825,-107.753 139.129,-93.4276 196.175,-86.9206"/>
<polygon fill="#191970" stroke="#191970" points="1242.31,-314.431 1252.37,-311.117 1242.44,-307.433 1242.31,-314.431"/>
</g>
<!-- Node4 -->
<g id="node4" class="node">
<title>Node4</title>
<g id="a_node4"><a xlink:href="wifi_8c.html" target="_top" xlink:title="modules/wifi.c">
<polygon fill="#ffffff" stroke="#000000" points="42.0575,-246.5 42.0575,-265.5 121.058,-265.5 121.058,-246.5 42.0575,-246.5"/>
<text text-anchor="middle" x="81.5575" y="-253.5" font-family="Helvetica,sans-Serif" font-size="10.00" fill="#000000">modules/wifi.c</text>
</a>
</g>
</g>
<!-- Node2&#45;&gt;Node4 -->
<g id="edge3" class="edge">
<title>Node2&#45;&gt;Node4</title>
<path fill="none" stroke="#191970" d="M1242.41,-310.945C1036.14,-307.068 349.301,-292.44 130.558,-266 127.541,-265.635 124.433,-265.183 121.315,-264.675"/>
<polygon fill="#191970" stroke="#191970" points="1242.38,-314.445 1252.44,-311.132 1242.51,-307.446 1242.38,-314.445"/>
</g>
<!-- Node5 -->
<g id="node5" class="node">
<title>Node5</title>
<g id="a_node5"><a xlink:href="ringbuf_8h.html" target="_top" xlink:title="mqtt/include/ringbuf.h">
<polygon fill="#ffffff" stroke="#000000" points="139.558,-246.5 139.558,-265.5 251.558,-265.5 251.558,-246.5 139.558,-246.5"/>
<text text-anchor="middle" x="195.558" y="-253.5" font-family="Helvetica,sans-Serif" font-size="10.00" fill="#000000">mqtt/include/ringbuf.h</text>
</a>
</g>
</g>
<!-- Node2&#45;&gt;Node5 -->
<g id="edge4" class="edge">
<title>Node2&#45;&gt;Node5</title>
<path fill="none" stroke="#191970" d="M1242.34,-311.39C1083.72,-309.32 636.104,-300.611 265.558,-266 261.035,-265.578 256.358,-265.068 251.664,-264.506"/>
<polygon fill="#191970" stroke="#191970" points="1242.33,-314.89 1252.37,-311.517 1242.41,-307.891 1242.33,-314.89"/>
</g>
<!-- Node8 -->
<g id="node8" class="node">
<title>Node8</title>
<g id="a_node8"><a xlink:href="mqtt_8c.html" target="_top" xlink:title="mqtt/mqtt.c">
<polygon fill="#ffffff" stroke="#000000" points="726.558,-73 726.558,-92 792.558,-92 792.558,-73 726.558,-73"/>
<text text-anchor="middle" x="759.558" y="-80" font-family="Helvetica,sans-Serif" font-size="10.00" fill="#000000">mqtt/mqtt.c</text>
</a>
</g>
</g>
<!-- Node2&#45;&gt;Node8 -->
<g id="edge23" class="edge">
<title>Node2&#45;&gt;Node8</title>
<path fill="none" stroke="#191970" d="M1242.44,-310.77C1062.59,-306.744 532.716,-292.659 507.558,-266 467.291,-223.334 469.832,-178.928 507.558,-134 537.3,-98.5787 667.7,-109.273 712.558,-98 719.224,-96.3248 726.314,-94.1829 732.911,-92.0296"/>
<polygon fill="#191970" stroke="#191970" points="1242.44,-314.271 1252.51,-310.994 1242.59,-307.273 1242.44,-314.271"/>
</g>
<!-- Node9 -->
<g id="node9" class="node">
<title>Node9</title>
<g id="a_node9"><a xlink:href="en61107__request_8c.html" target="_top" xlink:title="user/en61107/en61107\l_request.c">
<polygon fill="#ffffff" stroke="#000000" points="245.058,-0.5 245.058,-30.5 364.058,-30.5 364.058,-0.5 245.058,-0.5"/>
<text text-anchor="start" x="253.058" y="-18.5" font-family="Helvetica,sans-Serif" font-size="10.00" fill="#000000">user/en61107/en61107</text>
<text text-anchor="middle" x="304.558" y="-7.5" font-family="Helvetica,sans-Serif" font-size="10.00" fill="#000000">_request.c</text>
</a>
</g>
</g>
<!-- Node2&#45;&gt;Node9 -->
<g id="edge61" class="edge">
<title>Node2&#45;&gt;Node9</title>
<path fill="none" stroke="#191970" d="M1242.21,-310.897C1080.3,-307.529 633.491,-295.736 489.558,-266 418.643,-251.349 398.976,-246.707 336.558,-210 292.012,-183.803 291.393,-162.91 248.558,-134 219.56,-114.429 196.78,-127.863 178.558,-98 171.381,-86.239 170.876,-78.4378 178.558,-67 193.511,-44.7334 219.973,-32.0877 244.798,-24.9089"/>
<polygon fill="#191970" stroke="#191970" points="1242.38,-314.401 1252.45,-311.107 1242.53,-307.403 1242.38,-314.401"/>
</g>
<!-- Node12 -->
<g id="node12" class="node">
<title>Node12</title>
<g id="a_node12"><a xlink:href="user__main_8c.html" target="_top" xlink:title="user/user_main.c">
<polygon fill="#ffffff" stroke="#000000" points="1076.06,-6 1076.06,-25 1169.06,-25 1169.06,-6 1076.06,-6"/>
<text text-anchor="middle" x="1122.56" y="-13" font-family="Helvetica,sans-Serif" font-size="10.00" fill="#000000">user/user_main.c</text>
</a>
</g>
</g>
<!-- Node2&#45;&gt;Node12 -->
<g id="edge70" class="edge">
<title>Node2&#45;&gt;Node12</title>
<path fill="none" stroke="#191970" d="M1360.72,-301.901C1434.75,-289.181 1552.42,-268.657 1556.56,-266 1639.37,-212.865 1719.69,-139.854 1653.56,-67 1621.3,-31.4667 1293.25,-19.7135 1169.48,-16.5257"/>
<polygon fill="#191970" stroke="#191970" points="1359.85,-298.5 1350.58,-303.641 1361.03,-305.399 1359.85,-298.5"/>
</g>
<!-- Node13 -->
<g id="node13" class="node">
<title>Node13</title>
<g id="a_node13"><a xlink:href="kmp__request_8c.html" target="_top" xlink:title="user/kamstrup/kmp_request.c">
<polygon fill="#ffffff" stroke="#000000" points="746.558,-6 746.558,-25 894.558,-25 894.558,-6 746.558,-6"/>
<text text-anchor="middle" x="820.558" y="-13" font-family="Helvetica,sans-Serif" font-size="10.00" fill="#000000">user/kamstrup/kmp_request.c</text>
</a>
</g>
</g>
<!-- Node2&#45;&gt;Node13 -->
<g id="edge66" class="edge">
<title>Node2&#45;&gt;Node13</title>
<path fill="none" stroke="#191970" d="M1242.46,-310.468C1072.41,-305.776 592.489,-290.417 569.558,-266 545.874,-240.782 581.311,-212.89 606.558,-190 646.03,-154.212 664.243,-156.463 712.558,-134 751.249,-116.011 773.861,-130.459 801.558,-98 819.589,-76.8683 821.352,-41.9715 821.04,-25.1526"/>
<polygon fill="#191970" stroke="#191970" points="1242.4,-313.968 1252.49,-310.743 1242.59,-306.97 1242.4,-313.968"/>
</g>
<!-- Node17 -->
<g id="node17" class="node">
<title>Node17</title>
<g id="a_node17"><a xlink:href="queue_8c.html" target="_top" xlink:title="mqtt/queue.c">
<polygon fill="#ffffff" stroke="#000000" points="165.558,-134.5 165.558,-153.5 239.558,-153.5 239.558,-134.5 165.558,-134.5"/>
<text text-anchor="middle" x="202.558" y="-141.5" font-family="Helvetica,sans-Serif" font-size="10.00" fill="#000000">mqtt/queue.c</text>
</a>
</g>
</g>
<!-- Node2&#45;&gt;Node17 -->
<g id="edge24" class="edge">
<title>Node2&#45;&gt;Node17</title>
<path fill="none" stroke="#191970" d="M1242.17,-310.842C1033.4,-306.569 343.658,-290.64 303.558,-266 270.492,-245.682 285.784,-219.493 260.558,-190 248.027,-175.35 230.268,-162.075 217.71,-153.594"/>
<polygon fill="#191970" stroke="#191970" points="1242.25,-314.345 1252.32,-311.049 1242.39,-307.346 1242.25,-314.345"/>
</g>
<!-- Node19 -->
<g id="node19" class="node">
<title>Node19</title>
<g id="a_node19"><a xlink:href="ac__out_8c.html" target="_top" xlink:title="user/ac/ac_out.c">
<polygon fill="#ffffff" stroke="#000000" points="587.558,-246.5 587.558,-265.5 677.558,-265.5 677.558,-246.5 587.558,-246.5"/>
<text text-anchor="middle" x="632.558" y="-253.5" font-family="Helvetica,sans-Serif" font-size="10.00" fill="#000000">user/ac/ac_out.c</text>
</a>
</g>
</g>
<!-- Node2&#45;&gt;Node19 -->
<g id="edge25" class="edge">
<title>Node2&#45;&gt;Node19</title>
<path fill="none" stroke="#191970" d="M1242.12,-309.699C1132.11,-304.965 889.455,-292.296 686.558,-266 683.626,-265.62 680.613,-265.186 677.581,-264.715"/>
<polygon fill="#191970" stroke="#191970" points="1242.21,-313.206 1252.35,-310.133 1242.5,-306.212 1242.21,-313.206"/>
</g>
<!-- Node20 -->
<g id="node20" class="node">
<title>Node20</title>
<g id="a_node20"><a xlink:href="auth_8c.html" target="_top" xlink:title="user/auth.c">
<polygon fill="#ffffff" stroke="#000000" points="695.558,-246.5 695.558,-265.5 761.558,-265.5 761.558,-246.5 695.558,-246.5"/>
<text text-anchor="middle" x="728.558" y="-253.5" font-family="Helvetica,sans-Serif" font-size="10.00" fill="#000000">user/auth.c</text>
</a>
</g>
</g>
<!-- Node2&#45;&gt;Node20 -->
<g id="edge26" class="edge">
<title>Node2&#45;&gt;Node20</title>
<path fill="none" stroke="#191970" d="M1242.15,-309.711C1143.61,-305.276 940.395,-293.422 770.558,-266 767.746,-265.546 764.843,-265.006 761.939,-264.417"/>
<polygon fill="#191970" stroke="#191970" points="1242.07,-313.21 1252.21,-310.154 1242.37,-306.217 1242.07,-313.21"/>
</g>
<!-- Node21 -->
<g id="node21" class="node">
<title>Node21</title>
<g id="a_node21"><a xlink:href="base64_8c.html" target="_top" xlink:title="user/base64.c">
<polygon fill="#ffffff" stroke="#000000" points="780.058,-246.5 780.058,-265.5 859.058,-265.5 859.058,-246.5 780.058,-246.5"/>
<text text-anchor="middle" x="819.558" y="-253.5" font-family="Helvetica,sans-Serif" font-size="10.00" fill="#000000">user/base64.c</text>
</a>
</g>
</g>
<!-- Node2&#45;&gt;Node21 -->
<g id="edge27" class="edge">
<title>Node2&#45;&gt;Node21</title>
<path fill="none" stroke="#191970" d="M1242.26,-307.505C1158.63,-300.756 1001.41,-286.565 868.558,-266 865.469,-265.522 862.28,-264.98 859.08,-264.403"/>
<polygon fill="#191970" stroke="#191970" points="1242.09,-311.002 1252.33,-308.311 1242.64,-304.024 1242.09,-311.002"/>
</g>
<!-- Node22 -->
<g id="node22" class="node">
<title>Node22</title>
<g id="a_node22"><a xlink:href="captdns_8c.html" target="_top" xlink:title="user/captdns.c">
<polygon fill="#ffffff" stroke="#000000" points="877.558,-246.5 877.558,-265.5 959.558,-265.5 959.558,-246.5 877.558,-246.5"/>
<text text-anchor="middle" x="918.558" y="-253.5" font-family="Helvetica,sans-Serif" font-size="10.00" fill="#000000">user/captdns.c</text>
</a>
</g>
</g>
<!-- Node2&#45;&gt;Node22 -->
<g id="edge28" class="edge">
<title>Node2&#45;&gt;Node22</title>
<path fill="none" stroke="#191970" d="M1242.01,-304.87C1175.26,-296.624 1063.88,-282.101 968.558,-266 965.677,-265.513 962.708,-264.986 959.722,-264.437"/>
<polygon fill="#191970" stroke="#191970" points="1241.98,-308.393 1252.33,-306.139 1242.83,-301.445 1241.98,-308.393"/>
</g>
<!-- Node23 -->
<g id="node23" class="node">
<title>Node23</title>
<g id="a_node23"><a xlink:href="cgi_8c.html" target="_top" xlink:title="user/cgi.c">
<polygon fill="#ffffff" stroke="#000000" points="978.058,-246.5 978.058,-265.5 1037.06,-265.5 1037.06,-246.5 978.058,-246.5"/>
<text text-anchor="middle" x="1007.56" y="-253.5" font-family="Helvetica,sans-Serif" font-size="10.00" fill="#000000">user/cgi.c</text>
</a>
</g>
</g>
<!-- Node2&#45;&gt;Node23 -->
<g id="edge29" class="edge">
<title>Node2&#45;&gt;Node23</title>
<path fill="none" stroke="#191970" d="M1242.45,-302.586C1190.61,-294.033 1113.31,-280.559 1046.56,-266 1043.55,-265.345 1040.43,-264.619 1037.32,-263.867"/>
<polygon fill="#191970" stroke="#191970" points="1242.03,-306.064 1252.46,-304.23 1243.16,-299.157 1242.03,-306.064"/>
</g>
<!-- Node24 -->
<g id="node24" class="node">
<title>Node24</title>
<g id="a_node24"><a xlink:href="cgiwifi_8c.html" target="_top" xlink:title="user/cgiwifi.c">
<polygon fill="#ffffff" stroke="#000000" points="1055.56,-246.5 1055.56,-265.5 1129.56,-265.5 1129.56,-246.5 1055.56,-246.5"/>
<text text-anchor="middle" x="1092.56" y="-253.5" font-family="Helvetica,sans-Serif" font-size="10.00" fill="#000000">user/cgiwifi.c</text>
</a>
</g>
</g>
<!-- Node2&#45;&gt;Node24 -->
<g id="edge30" class="edge">
<title>Node2&#45;&gt;Node24</title>
<path fill="none" stroke="#191970" d="M1255.73,-299.72C1217.3,-289.423 1163.21,-274.93 1128.02,-265.501"/>
<polygon fill="#191970" stroke="#191970" points="1255.06,-303.166 1265.63,-302.373 1256.88,-296.404 1255.06,-303.166"/>
</g>
<!-- Node25 -->
<g id="node25" class="node">
<title>Node25</title>
<g id="a_node25"><a xlink:href="cron_8c.html" target="_top" xlink:title="user/cron/cron.c">
<polygon fill="#ffffff" stroke="#000000" points="1147.56,-246.5 1147.56,-265.5 1235.56,-265.5 1235.56,-246.5 1147.56,-246.5"/>
<text text-anchor="middle" x="1191.56" y="-253.5" font-family="Helvetica,sans-Serif" font-size="10.00" fill="#000000">user/cron/cron.c</text>
</a>
</g>
</g>
<!-- Node2&#45;&gt;Node25 -->
<g id="edge31" class="edge">
<title>Node2&#45;&gt;Node25</title>
<path fill="none" stroke="#191970" d="M1273.27,-297.597C1253.55,-287.558 1227.78,-274.439 1210.5,-265.643"/>
<polygon fill="#191970" stroke="#191970" points="1271.9,-300.828 1282.4,-302.246 1275.07,-294.59 1271.9,-300.828"/>
</g>
<!-- Node26 -->
<g id="node26" class="node">
<title>Node26</title>
<g id="a_node26"><a xlink:href="aes_8c.html" target="_top" xlink:title="user/crypto/aes.c">
<polygon fill="#ffffff" stroke="#000000" points="849.058,-73 849.058,-92 942.058,-92 942.058,-73 849.058,-73"/>
<text text-anchor="middle" x="895.558" y="-80" font-family="Helvetica,sans-Serif" font-size="10.00" fill="#000000">user/crypto/aes.c</text>
</a>
</g>
</g>
<!-- Node2&#45;&gt;Node26 -->
<g id="edge32" class="edge">
<title>Node2&#45;&gt;Node26</title>
<path fill="none" stroke="#191970" d="M1242.35,-310.417C1073.65,-305.621 601.161,-290.087 578.558,-266 532.16,-216.557 783.029,-122.156 868.108,-92.0061"/>
<polygon fill="#191970" stroke="#191970" points="1242.44,-313.921 1252.54,-310.704 1242.64,-306.924 1242.44,-313.921"/>
</g>
<!-- Node27 -->
<g id="node27" class="node">
<title>Node27</title>
<g id="a_node27"><a xlink:href="aes_8h.html" target="_top" xlink:title="user/crypto/aes.h">
<polygon fill="#ffffff" stroke="#000000" points="962.058,-134.5 962.058,-153.5 1055.06,-153.5 1055.06,-134.5 962.058,-134.5"/>
<text text-anchor="middle" x="1008.56" y="-141.5" font-family="Helvetica,sans-Serif" font-size="10.00" fill="#000000">user/crypto/aes.h</text>
</a>
</g>
</g>
<!-- Node2&#45;&gt;Node27 -->
<g id="edge33" class="edge">
<title>Node2&#45;&gt;Node27</title>
<path fill="none" stroke="#191970" d="M1290.55,-293.559C1280.5,-278.385 1264.23,-257.56 1244.56,-246 1176.47,-205.994 1139.47,-248.575 1070.56,-210 1045.59,-196.024 1024.79,-168.562 1014.85,-153.853"/>
<polygon fill="#191970" stroke="#191970" points="1287.67,-295.563 1295.98,-302.143 1293.59,-291.821 1287.67,-295.563"/>
</g>
<!-- Node28 -->
<g id="node28" class="node">
<title>Node28</title>
<g id="a_node28"><a xlink:href="crypto_8c.html" target="_top" xlink:title="user/crypto/crypto.c">
<polygon fill="#ffffff" stroke="#000000" points="1270.56,-73 1270.56,-92 1374.56,-92 1374.56,-73 1270.56,-73"/>
<text text-anchor="middle" x="1322.56" y="-80" font-family="Helvetica,sans-Serif" font-size="10.00" fill="#000000">user/crypto/crypto.c</text>
</a>
</g>
</g>
<!-- Node2&#45;&gt;Node28 -->
<g id="edge39" class="edge">
<title>Node2&#45;&gt;Node28</title>
<path fill="none" stroke="#191970" d="M1353.34,-300.08C1396.52,-289.621 1452,-274.752 1458.56,-266 1471.94,-248.136 1453.19,-209.649 1440.56,-190 1412.53,-146.411 1362.49,-109.143 1337.54,-92.2191"/>
<polygon fill="#191970" stroke="#191970" points="1352.42,-296.704 1343.51,-302.439 1354.05,-303.511 1352.42,-296.704"/>
</g>
<!-- Node29 -->
<g id="node29" class="node">
<title>Node29</title>
<g id="a_node29"><a xlink:href="crypto_8h.html" target="_top" xlink:title="user/crypto/crypto.h">
<polygon fill="#ffffff" stroke="#000000" points="1329.56,-246.5 1329.56,-265.5 1433.56,-265.5 1433.56,-246.5 1329.56,-246.5"/>
<text text-anchor="middle" x="1381.56" y="-253.5" font-family="Helvetica,sans-Serif" font-size="10.00" fill="#000000">user/crypto/crypto.h</text>
</a>
</g>
</g>
<!-- Node2&#45;&gt;Node29 -->
<g id="edge40" class="edge">
<title>Node2&#45;&gt;Node29</title>
<path fill="none" stroke="#191970" d="M1323.71,-296.49C1337.83,-286.61 1355.67,-274.119 1367.78,-265.643"/>
<polygon fill="#191970" stroke="#191970" points="1321.68,-293.644 1315.49,-302.246 1325.69,-299.378 1321.68,-293.644"/>
</g>
<!-- Node30 -->
<g id="node30" class="node">
<title>Node30</title>
<g id="a_node30"><a xlink:href="hmac-sha256_8c.html" target="_top" xlink:title="user/crypto/hmac&#45;sha256.c">
<polygon fill="#ffffff" stroke="#000000" points="1507.06,-73 1507.06,-92 1644.06,-92 1644.06,-73 1507.06,-73"/>
<text text-anchor="middle" x="1575.56" y="-80" font-family="Helvetica,sans-Serif" font-size="10.00" fill="#000000">user/crypto/hmac&#45;sha256.c</text>
</a>
</g>
</g>
<!-- Node2&#45;&gt;Node30 -->
<g id="edge56" class="edge">
<title>Node2&#45;&gt;Node30</title>
<path fill="none" stroke="#191970" d="M1360.42,-301.489C1426.23,-289.549 1524.58,-271.063 1531.56,-266 1577.78,-232.449 1580.09,-209.248 1594.56,-154 1600.35,-131.884 1588.9,-105.956 1581.39,-92.2088"/>
<polygon fill="#191970" stroke="#191970" points="1359.78,-298.049 1350.56,-303.273 1361.02,-304.937 1359.78,-298.049"/>
</g>
<!-- Node31 -->
<g id="node31" class="node">
<title>Node31</title>
<g id="a_node31"><a xlink:href="hmac-sha256_8h.html" target="_top" xlink:title="user/crypto/hmac&#45;sha256.h">
<polygon fill="#ffffff" stroke="#000000" points="1430.56,-134.5 1430.56,-153.5 1568.56,-153.5 1568.56,-134.5 1430.56,-134.5"/>
<text text-anchor="middle" x="1499.56" y="-141.5" font-family="Helvetica,sans-Serif" font-size="10.00" fill="#000000">user/crypto/hmac&#45;sha256.h</text>
</a>
</g>
</g>
<!-- Node2&#45;&gt;Node31 -->
<g id="edge57" class="edge">
<title>Node2&#45;&gt;Node31</title>
<path fill="none" stroke="#191970" d="M1360.7,-301.05C1421.71,-289.471 1508.67,-272.058 1513.56,-266 1540.59,-232.475 1516.24,-175.897 1504.77,-153.52"/>
<polygon fill="#191970" stroke="#191970" points="1359.95,-297.63 1350.77,-302.926 1361.25,-304.508 1359.95,-297.63"/>
</g>
<!-- Node32 -->
<g id="node32" class="node">
<title>Node32</title>
<g id="a_node32"><a xlink:href="sha256_8c.html" target="_top" xlink:title="user/crypto/sha256.c">
<polygon fill="#ffffff" stroke="#000000" points="1151.06,-134.5 1151.06,-153.5 1260.06,-153.5 1260.06,-134.5 1151.06,-134.5"/>
<text text-anchor="middle" x="1205.56" y="-141.5" font-family="Helvetica,sans-Serif" font-size="10.00" fill="#000000">user/crypto/sha256.c</text>
</a>
</g>
</g>
<!-- Node2&#45;&gt;Node32 -->
<g id="edge58" class="edge">
<title>Node2&#45;&gt;Node32</title>
<path fill="none" stroke="#191970" d="M1296.46,-292.37C1292.45,-278.792 1286.11,-260.611 1277.56,-246 1266.89,-227.78 1259.05,-227.019 1246.56,-210 1232.51,-190.864 1218.4,-166.845 1210.95,-153.701"/>
<polygon fill="#191970" stroke="#191970" points="1293.12,-293.421 1299.17,-302.117 1299.86,-291.545 1293.12,-293.421"/>
</g>
<!-- Node33 -->
<g id="node33" class="node">
<title>Node33</title>
<g id="a_node33"><a xlink:href="sha256_8h.html" target="_top" xlink:title="user/crypto/sha256.h">
<polygon fill="#ffffff" stroke="#000000" points="1321.56,-190.5 1321.56,-209.5 1431.56,-209.5 1431.56,-190.5 1321.56,-190.5"/>
<text text-anchor="middle" x="1376.56" y="-197.5" font-family="Helvetica,sans-Serif" font-size="10.00" fill="#000000">user/crypto/sha256.h</text>
</a>
</g>
</g>
<!-- Node2&#45;&gt;Node33 -->
<g id="edge59" class="edge">
<title>Node2&#45;&gt;Node33</title>
<path fill="none" stroke="#191970" d="M1360.01,-300.175C1394.13,-291.956 1432.41,-279.989 1442.56,-266 1458.83,-243.573 1423.92,-221.659 1398.94,-209.579"/>
<polygon fill="#191970" stroke="#191970" points="1359,-296.816 1350.06,-302.498 1360.6,-303.633 1359,-296.816"/>
</g>
<!-- Node34 -->
<g id="node34" class="node">
<title>Node34</title>
<g id="a_node34"><a xlink:href="en61107_8c.html" target="_top" xlink:title="user/en61107/en61107.c">
<polygon fill="#ffffff" stroke="#000000" points="1642.06,-246.5 1642.06,-265.5 1769.06,-265.5 1769.06,-246.5 1642.06,-246.5"/>
<text text-anchor="middle" x="1705.56" y="-253.5" font-family="Helvetica,sans-Serif" font-size="10.00" fill="#000000">user/en61107/en61107.c</text>
</a>
</g>
</g>
<!-- Node2&#45;&gt;Node34 -->
<g id="edge60" class="edge">
<title>Node2&#45;&gt;Node34</title>
<path fill="none" stroke="#191970" d="M1360.94,-302.002C1427.86,-292.111 1561.99,-274.569 1642.02,-264.198"/>
<polygon fill="#191970" stroke="#191970" points="1360.16,-298.579 1350.79,-303.521 1361.2,-305.501 1360.16,-298.579"/>
</g>
<!-- Node35 -->
<g id="node35" class="node">
<title>Node35</title>
<g id="a_node35"><a xlink:href="httpd_8c.html" target="_top" xlink:title="user/httpd.c">
<polygon fill="#ffffff" stroke="#000000" points="1787.06,-246.5 1787.06,-265.5 1856.06,-265.5 1856.06,-246.5 1787.06,-246.5"/>
<text text-anchor="middle" x="1821.56" y="-253.5" font-family="Helvetica,sans-Serif" font-size="10.00" fill="#000000">user/httpd.c</text>
</a>
</g>
</g>
<!-- Node2&#45;&gt;Node35 -->
<g id="edge62" class="edge">
<title>Node2&#45;&gt;Node35</title>
<path fill="none" stroke="#191970" d="M1360.9,-302.072C1547.28,-278.976 1597.63,-294.679 1778.56,-266 1781.28,-265.568 1784.09,-265.06 1786.91,-264.505"/>
<polygon fill="#191970" stroke="#191970" points="1360.25,-298.626 1350.77,-303.349 1361.13,-305.571 1360.25,-298.626"/>
</g>
<!-- Node36 -->
<g id="node36" class="node">
<title>Node36</title>
<g id="a_node36"><a xlink:href="httpd__user__init_8c.html" target="_top" xlink:title="user/httpd_user_init.c">
<polygon fill="#ffffff" stroke="#000000" points="1874.56,-246.5 1874.56,-265.5 1986.56,-265.5 1986.56,-246.5 1874.56,-246.5"/>
<text text-anchor="middle" x="1930.56" y="-253.5" font-family="Helvetica,sans-Serif" font-size="10.00" fill="#000000">user/httpd_user_init.c</text>
</a>
</g>
</g>
<!-- Node2&#45;&gt;Node36 -->
<g id="edge63" class="edge">
<title>Node2&#45;&gt;Node36</title>
<path fill="none" stroke="#191970" d="M1360.9,-302.086C1585.7,-275.627 1645.23,-290.76 1865.56,-266 1868.39,-265.681 1871.3,-265.329 1874.22,-264.954"/>
<polygon fill="#191970" stroke="#191970" points="1360.28,-298.636 1350.76,-303.294 1361.11,-305.586 1360.28,-298.636"/>
</g>
<!-- Node37 -->
<g id="node37" class="node">
<title>Node37</title>
<g id="a_node37"><a xlink:href="httpdespfs_8c.html" target="_top" xlink:title="user/httpdespfs.c">
<polygon fill="#ffffff" stroke="#000000" points="2005.06,-246.5 2005.06,-265.5 2098.06,-265.5 2098.06,-246.5 2005.06,-246.5"/>
<text text-anchor="middle" x="2051.56" y="-253.5" font-family="Helvetica,sans-Serif" font-size="10.00" fill="#000000">user/httpdespfs.c</text>
</a>
</g>
</g>
<!-- Node2&#45;&gt;Node37 -->
<g id="edge64" class="edge">
<title>Node2&#45;&gt;Node37</title>
<path fill="none" stroke="#191970" d="M1360.89,-302.109C1643.2,-270.994 1718.09,-298.52 1995.56,-266 1998.6,-265.644 2001.72,-265.227 2004.87,-264.77"/>
<polygon fill="#191970" stroke="#191970" points="1360.3,-298.652 1350.75,-303.241 1361.08,-305.609 1360.3,-298.652"/>
</g>
<!-- Node38 -->
<g id="node38" class="node">
<title>Node38</title>
<g id="a_node38"><a xlink:href="kmp_8c.html" target="_top" xlink:title="user/kamstrup/kmp.c">
<polygon fill="#ffffff" stroke="#000000" points="2116.06,-246.5 2116.06,-265.5 2225.06,-265.5 2225.06,-246.5 2116.06,-246.5"/>
<text text-anchor="middle" x="2170.56" y="-253.5" font-family="Helvetica,sans-Serif" font-size="10.00" fill="#000000">user/kamstrup/kmp.c</text>
</a>
</g>
</g>
<!-- Node2&#45;&gt;Node38 -->
<g id="edge65" class="edge">
<title>Node2&#45;&gt;Node38</title>
<path fill="none" stroke="#191970" d="M1361.14,-302.092C1692.79,-266.853 1780.32,-299.755 2107.56,-266 2110.31,-265.716 2113.13,-265.392 2115.97,-265.039"/>
<polygon fill="#191970" stroke="#191970" points="1360.32,-298.66 1350.75,-303.209 1361.07,-305.619 1360.32,-298.66"/>
</g>
<!-- Node39 -->
<g id="node39" class="node">
<title>Node39</title>
<g id="a_node39"><a xlink:href="led_8c.html" target="_top" xlink:title="user/led.c">
<polygon fill="#ffffff" stroke="#000000" points="2243.56,-246.5 2243.56,-265.5 2303.56,-265.5 2303.56,-246.5 2243.56,-246.5"/>
<text text-anchor="middle" x="2273.56" y="-253.5" font-family="Helvetica,sans-Serif" font-size="10.00" fill="#000000">user/led.c</text>
</a>
</g>
</g>
<!-- Node2&#45;&gt;Node39 -->
<g id="edge67" class="edge">
<title>Node2&#45;&gt;Node39</title>
<path fill="none" stroke="#191970" d="M1360.85,-302.135C1748.99,-262.472 1853.21,-322.109 2234.56,-266 2237.46,-265.573 2240.46,-265.016 2243.45,-264.385"/>
<polygon fill="#191970" stroke="#191970" points="1360.33,-298.67 1350.75,-303.183 1361.06,-305.632 1360.33,-298.67"/>
</g>
<!-- Node40 -->
<g id="node40" class="node">
<title>Node40</title>
<g id="a_node40"><a xlink:href="tinyprintf_8c.html" target="_top" xlink:title="user/tinyprintf.c">
<polygon fill="#ffffff" stroke="#000000" points="2321.56,-246.5 2321.56,-265.5 2405.56,-265.5 2405.56,-246.5 2321.56,-246.5"/>
<text text-anchor="middle" x="2363.56" y="-253.5" font-family="Helvetica,sans-Serif" font-size="10.00" fill="#000000">user/tinyprintf.c</text>
</a>
</g>
</g>
<!-- Node2&#45;&gt;Node40 -->
<g id="edge68" class="edge">
<title>Node2&#45;&gt;Node40</title>
<path fill="none" stroke="#191970" d="M1360.79,-302.143C1783.48,-259.404 1895.26,-314.502 2312.56,-266 2315.43,-265.667 2318.37,-265.26 2321.34,-264.805"/>
<polygon fill="#191970" stroke="#191970" points="1360.34,-298.671 1350.75,-303.171 1361.05,-305.634 1360.34,-298.671"/>
</g>
<!-- Node41 -->
<g id="node41" class="node">
<title>Node41</title>
<g id="a_node41"><a xlink:href="unix__time_8c.html" target="_top" xlink:title="user/unix_time.c">
<polygon fill="#ffffff" stroke="#000000" points="2424.06,-246.5 2424.06,-265.5 2513.06,-265.5 2513.06,-246.5 2424.06,-246.5"/>
<text text-anchor="middle" x="2468.56" y="-253.5" font-family="Helvetica,sans-Serif" font-size="10.00" fill="#000000">user/unix_time.c</text>
</a>
</g>
</g>
<!-- Node2&#45;&gt;Node41 -->
<g id="edge69" class="edge">
<title>Node2&#45;&gt;Node41</title>
<path fill="none" stroke="#191970" d="M1360.81,-302.145C1828.63,-255.605 1951.9,-316.455 2414.56,-266 2417.59,-265.669 2420.71,-265.265 2423.84,-264.811"/>
<polygon fill="#191970" stroke="#191970" points="1360.35,-298.674 1350.75,-303.157 1361.05,-305.638 1360.35,-298.674"/>
</g>
<!-- Node42 -->
<g id="node42" class="node">
<title>Node42</title>
<g id="a_node42"><a xlink:href="utils_8c.html" target="_top" xlink:title="user/utils.c">
<polygon fill="#ffffff" stroke="#000000" points="2531.56,-246.5 2531.56,-265.5 2595.56,-265.5 2595.56,-246.5 2531.56,-246.5"/>
<text text-anchor="middle" x="2563.56" y="-253.5" font-family="Helvetica,sans-Serif" font-size="10.00" fill="#000000">user/utils.c</text>
</a>
</g>
</g>
<!-- Node2&#45;&gt;Node42 -->
<g id="edge71" class="edge">
<title>Node2&#45;&gt;Node42</title>
<path fill="none" stroke="#191970" d="M1361.06,-302.126C1876.51,-251.82 2013.95,-335.135 2522.56,-266 2525.46,-265.605 2528.46,-265.09 2531.45,-264.501"/>
<polygon fill="#191970" stroke="#191970" points="1360.35,-298.679 1350.74,-303.145 1361.04,-305.645 1360.35,-298.679"/>
</g>
<!-- Node43 -->
<g id="node43" class="node">
<title>Node43</title>
<g id="a_node43"><a xlink:href="watchdog_8c.html" target="_top" xlink:title="user/watchdog.c">
<polygon fill="#ffffff" stroke="#000000" points="2614.06,-246.5 2614.06,-265.5 2703.06,-265.5 2703.06,-246.5 2614.06,-246.5"/>
<text text-anchor="middle" x="2658.56" y="-253.5" font-family="Helvetica,sans-Serif" font-size="10.00" fill="#000000">user/watchdog.c</text>
</a>
</g>
</g>
<!-- Node2&#45;&gt;Node43 -->
<g id="edge72" class="edge">
<title>Node2&#45;&gt;Node43</title>
<path fill="none" stroke="#191970" d="M1360.96,-302.137C1912.77,-248.587 2057.9,-324.175 2604.56,-266 2607.59,-265.677 2610.71,-265.279 2613.85,-264.829"/>
<polygon fill="#191970" stroke="#191970" points="1360.35,-298.679 1350.74,-303.138 1361.04,-305.645 1360.35,-298.679"/>
</g>
<!-- Node6 -->
<g id="node6" class="node">
<title>Node6</title>
<g id="a_node6"><a xlink:href="queue_8h.html" target="_top" xlink:title="mqtt/include/queue.h">
<polygon fill="#ffffff" stroke="#000000" points="346.058,-190.5 346.058,-209.5 455.058,-209.5 455.058,-190.5 346.058,-190.5"/>
<text text-anchor="middle" x="400.558" y="-197.5" font-family="Helvetica,sans-Serif" font-size="10.00" fill="#000000">mqtt/include/queue.h</text>
</a>
</g>
</g>
<!-- Node5&#45;&gt;Node6 -->
<g id="edge5" class="edge">
<title>Node5&#45;&gt;Node6</title>
<path fill="none" stroke="#191970" d="M240.511,-243.72C278.206,-233.423 331.262,-218.93 365.777,-209.501"/>
<polygon fill="#191970" stroke="#191970" points="239.522,-240.362 230.798,-246.373 241.367,-247.114 239.522,-240.362"/>
</g>
<!-- Node15 -->
<g id="node15" class="node">
<title>Node15</title>
<g id="a_node15"><a xlink:href="proto_8h.html" target="_top" xlink:title="mqtt/include/proto.h">
<polygon fill="#ffffff" stroke="#000000" points="147.558,-190.5 147.558,-209.5 251.558,-209.5 251.558,-190.5 147.558,-190.5"/>
<text text-anchor="middle" x="199.558" y="-197.5" font-family="Helvetica,sans-Serif" font-size="10.00" fill="#000000">mqtt/include/proto.h</text>
</a>
</g>
</g>
<!-- Node5&#45;&gt;Node15 -->
<g id="edge18" class="edge">
<title>Node5&#45;&gt;Node15</title>
<path fill="none" stroke="#191970" d="M196.975,-236.158C197.618,-227.155 198.349,-216.92 198.869,-209.643"/>
<polygon fill="#191970" stroke="#191970" points="193.476,-236.022 196.254,-246.246 200.458,-236.52 193.476,-236.022"/>
</g>
<!-- Node16 -->
<g id="node16" class="node">
<title>Node16</title>
<g id="a_node16"><a xlink:href="proto_8c.html" target="_top" xlink:title="mqtt/proto.c">
<polygon fill="#ffffff" stroke="#000000" points="36.0575,-134.5 36.0575,-153.5 105.058,-153.5 105.058,-134.5 36.0575,-134.5"/>
<text text-anchor="middle" x="70.5575" y="-141.5" font-family="Helvetica,sans-Serif" font-size="10.00" fill="#000000">mqtt/proto.c</text>
</a>
</g>
</g>
<!-- Node5&#45;&gt;Node16 -->
<g id="edge21" class="edge">
<title>Node5&#45;&gt;Node16</title>
<path fill="none" stroke="#191970" d="M130.019,-244.35C93.5885,-236.394 53.4498,-224.649 42.5575,-210 29.3376,-192.221 48.0385,-167.258 60.6616,-153.696"/>
<polygon fill="#191970" stroke="#191970" points="129.662,-247.851 140.169,-246.492 131.108,-241.002 129.662,-247.851"/>
</g>
<!-- Node18 -->
<g id="node18" class="node">
<title>Node18</title>
<g id="a_node18"><a xlink:href="ringbuf_8c.html" target="_top" xlink:title="mqtt/ringbuf.c">
<polygon fill="#ffffff" stroke="#000000" points="52.0575,-190.5 52.0575,-209.5 129.058,-209.5 129.058,-190.5 52.0575,-190.5"/>
<text text-anchor="middle" x="90.5575" y="-197.5" font-family="Helvetica,sans-Serif" font-size="10.00" fill="#000000">mqtt/ringbuf.c</text>
</a>
</g>
</g>
<!-- Node5&#45;&gt;Node18 -->
<g id="edge22" class="edge">
<title>Node5&#45;&gt;Node18</title>
<path fill="none" stroke="#191970" d="M168.295,-241.46C149.505,-231.439 125.056,-218.399 108.638,-209.643"/>
<polygon fill="#191970" stroke="#191970" points="166.797,-244.628 177.268,-246.246 170.091,-238.451 166.797,-244.628"/>
</g>
<!-- Node7 -->
<g id="node7" class="node">
<title>Node7</title>
<g id="a_node7"><a xlink:href="mqtt_8h.html" target="_top" xlink:title="mqtt/include/mqtt.h">
<polygon fill="#ffffff" stroke="#000000" points="354.058,-134.5 354.058,-153.5 455.058,-153.5 455.058,-134.5 354.058,-134.5"/>
<text text-anchor="middle" x="404.558" y="-141.5" font-family="Helvetica,sans-Serif" font-size="10.00" fill="#000000">mqtt/include/mqtt.h</text>
</a>
</g>
</g>
<!-- Node6&#45;&gt;Node7 -->
<g id="edge6" class="edge">
<title>Node6&#45;&gt;Node7</title>
<path fill="none" stroke="#191970" d="M401.975,-180.158C402.618,-171.155 403.349,-160.92 403.869,-153.643"/>
<polygon fill="#191970" stroke="#191970" points="398.476,-180.022 401.254,-190.246 405.458,-180.52 398.476,-180.022"/>
</g>
<!-- Node7&#45;&gt;Node3 -->
<g id="edge7" class="edge">
<title>Node7&#45;&gt;Node3</title>
<path fill="none" stroke="#191970" d="M369.785,-130.799C339.091,-119.147 295.083,-102.44 267.692,-92.0419"/>
<polygon fill="#191970" stroke="#191970" points="368.654,-134.114 379.245,-134.391 371.138,-127.569 368.654,-134.114"/>
</g>
<!-- Node7&#45;&gt;Node8 -->
<g id="edge8" class="edge">
<title>Node7&#45;&gt;Node8</title>
<path fill="none" stroke="#191970" d="M465.612,-134.597C466.939,-134.396 468.256,-134.197 469.558,-134 577.513,-117.699 606.324,-123.19 712.558,-98 719.246,-96.4141 726.344,-94.3058 732.942,-92.1563"/>
<polygon fill="#191970" stroke="#191970" points="464.655,-131.202 455.295,-136.166 465.708,-138.122 464.655,-131.202"/>
</g>
<!-- Node7&#45;&gt;Node9 -->
<g id="edge9" class="edge">
<title>Node7&#45;&gt;Node9</title>
<path fill="none" stroke="#191970" d="M374.603,-129.547C361.133,-121.784 345.96,-111.1 335.558,-98 319.477,-77.7497 311.118,-48.2821 307.293,-30.5921"/>
<polygon fill="#191970" stroke="#191970" points="373.124,-132.727 383.578,-134.449 376.479,-126.584 373.124,-132.727"/>
</g>
<!-- Node10 -->
<g id="node10" class="node">
<title>Node10</title>
<g id="a_node10"><a xlink:href="en61107__request_8h.html" target="_top" xlink:title="user/en61107/en61107\l_request.h">
<polygon fill="#ffffff" stroke="#000000" points="345.058,-67.5 345.058,-97.5 464.058,-97.5 464.058,-67.5 345.058,-67.5"/>
<text text-anchor="start" x="353.058" y="-85.5" font-family="Helvetica,sans-Serif" font-size="10.00" fill="#000000">user/en61107/en61107</text>
<text text-anchor="middle" x="404.558" y="-74.5" font-family="Helvetica,sans-Serif" font-size="10.00" fill="#000000">_request.h</text>
</a>
</g>
</g>
<!-- Node7&#45;&gt;Node10 -->
<g id="edge10" class="edge">
<title>Node7&#45;&gt;Node10</title>
<path fill="none" stroke="#191970" d="M404.558,-124.369C404.558,-115.681 404.558,-105.624 404.558,-97.5446"/>
<polygon fill="#191970" stroke="#191970" points="401.058,-124.391 404.558,-134.391 408.058,-124.391 401.058,-124.391"/>
</g>
<!-- Node7&#45;&gt;Node12 -->
<g id="edge17" class="edge">
<title>Node7&#45;&gt;Node12</title>
<path fill="none" stroke="#191970" d="M465.46,-134.566C543.199,-122.407 668.872,-102.313 678.558,-98 698.784,-88.9922 697.155,-75.603 717.558,-67 781.316,-40.115 983.408,-24.2824 1075.73,-18.282"/>
<polygon fill="#191970" stroke="#191970" points="464.634,-131.152 455.294,-136.153 465.714,-138.068 464.634,-131.152"/>
</g>
<!-- Node7&#45;&gt;Node13 -->
<g id="edge14" class="edge">
<title>Node7&#45;&gt;Node13</title>
<path fill="none" stroke="#191970" d="M427.918,-128.838C441.182,-120.071 457.994,-108.69 472.558,-98 490.407,-84.8982 491.325,-75.9958 511.558,-67 552.494,-48.7986 668.717,-32.695 746.37,-23.5275"/>
<polygon fill="#191970" stroke="#191970" points="425.811,-126.034 419.374,-134.449 429.654,-131.885 425.811,-126.034"/>
</g>
<!-- Node14 -->
<g id="node14" class="node">
<title>Node14</title>
<g id="a_node14"><a xlink:href="kmp__request_8h.html" target="_top" xlink:title="user/kamstrup/kmp_request.h">
<polygon fill="#ffffff" stroke="#000000" points="521.058,-73 521.058,-92 670.058,-92 670.058,-73 521.058,-73"/>
<text text-anchor="middle" x="595.558" y="-80" font-family="Helvetica,sans-Serif" font-size="10.00" fill="#000000">user/kamstrup/kmp_request.h</text>
</a>
</g>
</g>
<!-- Node7&#45;&gt;Node14 -->
<g id="edge15" class="edge">
<title>Node7&#45;&gt;Node14</title>
<path fill="none" stroke="#191970" d="M444.153,-131.251C480.393,-119.582 533.21,-102.575 565.923,-92.0419"/>
<polygon fill="#191970" stroke="#191970" points="442.847,-127.994 434.401,-134.391 444.993,-134.657 442.847,-127.994"/>
</g>
<!-- Node10&#45;&gt;Node9 -->
<g id="edge12" class="edge">
<title>Node10&#45;&gt;Node9</title>
<path fill="none" stroke="#191970" d="M373.406,-61.6286C358.435,-51.5979 340.823,-39.7976 327.159,-30.6432"/>
<polygon fill="#191970" stroke="#191970" points="371.61,-64.6382 381.866,-67.2967 375.506,-58.8228 371.61,-64.6382"/>
</g>
<!-- Node11 -->
<g id="node11" class="node">
<title>Node11</title>
<g id="a_node11"><a xlink:href="uart_8c.html" target="_top" xlink:title="driver/uart.c">
<polygon fill="#ffffff" stroke="#000000" points="382.058,-6 382.058,-25 451.058,-25 451.058,-6 382.058,-6"/>
<text text-anchor="middle" x="416.558" y="-13" font-family="Helvetica,sans-Serif" font-size="10.00" fill="#000000">driver/uart.c</text>
</a>
</g>
</g>
<!-- Node10&#45;&gt;Node11 -->
<g id="edge11" class="edge">
<title>Node10&#45;&gt;Node11</title>
<path fill="none" stroke="#191970" d="M409.103,-57.1199C411.111,-45.9072 413.351,-33.4031 414.846,-25.055"/>
<polygon fill="#191970" stroke="#191970" points="405.598,-56.8362 407.28,-67.2967 412.489,-58.0704 405.598,-56.8362"/>
</g>
<!-- Node10&#45;&gt;Node12 -->
<g id="edge13" class="edge">
<title>Node10&#45;&gt;Node12</title>
<path fill="none" stroke="#191970" d="M474.438,-71.7637C486.788,-70.0415 499.538,-68.3759 511.558,-67 621.021,-54.4697 952.948,-28.5313 1076,-19.0608"/>
<polygon fill="#191970" stroke="#191970" points="473.592,-68.3486 464.182,-73.2185 474.575,-75.2792 473.592,-68.3486"/>
</g>
<!-- Node14&#45;&gt;Node13 -->
<g id="edge16" class="edge">
<title>Node14&#45;&gt;Node13</title>
<path fill="none" stroke="#191970" d="M637.549,-69.9958C681.248,-56.9832 748.727,-36.8896 788.38,-25.0817"/>
<polygon fill="#191970" stroke="#191970" points="636.38,-66.6921 627.795,-72.9005 638.378,-73.401 636.38,-66.6921"/>
</g>
<!-- Node15&#45;&gt;Node16 -->
<g id="edge19" class="edge">
<title>Node15&#45;&gt;Node16</title>
<path fill="none" stroke="#191970" d="M168.19,-186.383C144.729,-176.199 113.239,-162.528 92.444,-153.501"/>
<polygon fill="#191970" stroke="#191970" points="166.815,-189.602 177.382,-190.373 169.602,-183.181 166.815,-189.602"/>
</g>
<!-- Node15&#45;&gt;Node17 -->
<g id="edge20" class="edge">
<title>Node15&#45;&gt;Node17</title>
<path fill="none" stroke="#191970" d="M200.62,-180.158C201.103,-171.155 201.651,-160.92 202.041,-153.643"/>
<polygon fill="#191970" stroke="#191970" points="197.12,-180.073 200.08,-190.246 204.11,-180.447 197.12,-180.073"/>
</g>
<!-- Node27&#45;&gt;Node9 -->
<g id="edge36" class="edge">
<title>Node27&#45;&gt;Node9</title>
<path fill="none" stroke="#191970" d="M1000.21,-125.098C990.964,-106.701 974.184,-79.7147 950.558,-67 837.233,-6.01251 499.934,-49.3606 372.558,-31 369.801,-30.6027 366.991,-30.1516 364.159,-29.6597"/>
<polygon fill="#191970" stroke="#191970" points="997.118,-126.752 1004.56,-134.29 1003.44,-123.754 997.118,-126.752"/>
</g>
<!-- Node27&#45;&gt;Node12 -->
<g id="edge38" class="edge">
<title>Node27&#45;&gt;Node12</title>
<path fill="none" stroke="#191970" d="M1023.89,-126.717C1048.16,-99.3577 1094.65,-46.9581 1113.89,-25.2705"/>
<polygon fill="#191970" stroke="#191970" points="1021.14,-124.538 1017.13,-134.342 1026.38,-129.184 1021.14,-124.538"/>
</g>
<!-- Node27&#45;&gt;Node13 -->
<g id="edge37" class="edge">
<title>Node27&#45;&gt;Node13</title>
<path fill="none" stroke="#191970" d="M1007.39,-124.136C1005.34,-106.835 999.73,-82.2044 984.558,-67 967.904,-50.3115 909.337,-34.6055 866.936,-25.0262"/>
<polygon fill="#191970" stroke="#191970" points="1003.92,-124.624 1008.3,-134.273 1010.9,-124.002 1003.92,-124.624"/>
</g>
<!-- Node27&#45;&gt;Node26 -->
<g id="edge34" class="edge">
<title>Node27&#45;&gt;Node26</title>
<path fill="none" stroke="#191970" d="M982.046,-129.571C960.78,-117.997 931.534,-102.08 913.09,-92.0419"/>
<polygon fill="#191970" stroke="#191970" points="980.445,-132.684 990.901,-134.391 983.791,-126.536 980.445,-132.684"/>
</g>
<!-- Node27&#45;&gt;Node28 -->
<g id="edge35" class="edge">
<title>Node27&#45;&gt;Node28</title>
<path fill="none" stroke="#191970" d="M1065.21,-132.903C1124.76,-121.241 1217.44,-103.088 1273.82,-92.0455"/>
<polygon fill="#191970" stroke="#191970" points="1064.37,-129.502 1055.23,-134.859 1065.71,-136.372 1064.37,-129.502"/>
</g>
<!-- Node29&#45;&gt;Node9 -->
<g id="edge53" class="edge">
<title>Node29&#45;&gt;Node9</title>
<path fill="none" stroke="#191970" d="M1319.35,-250.863C1110.09,-233.446 439.443,-176.478 344.558,-154 320.463,-148.292 315.829,-142.461 292.558,-134 246.194,-117.142 216.232,-138.144 187.558,-98 165.888,-67.6627 209.781,-44.5528 249.845,-30.6161"/>
<polygon fill="#191970" stroke="#191970" points="1319.29,-254.37 1329.55,-251.711 1319.87,-247.394 1319.29,-254.37"/>
</g>
<!-- Node29&#45;&gt;Node12 -->
<g id="edge55" class="edge">
<title>Node29&#45;&gt;Node12</title>
<path fill="none" stroke="#191970" d="M1319.44,-248.117C1262.84,-237.34 1182.09,-212.168 1141.56,-154 1113.25,-113.378 1117.99,-49.5484 1121.09,-25.2938"/>
<polygon fill="#191970" stroke="#191970" points="1318.89,-251.576 1329.36,-249.907 1320.14,-244.687 1318.89,-251.576"/>
</g>
<!-- Node29&#45;&gt;Node13 -->
<g id="edge54" class="edge">
<title>Node29&#45;&gt;Node13</title>
<path fill="none" stroke="#191970" d="M1319.13,-250.025C1276.86,-244.106 1220.7,-232.504 1175.56,-210 1087.8,-166.255 1094.21,-112.883 1007.56,-67 967.68,-45.885 918.313,-32.7644 880.318,-25.0544"/>
<polygon fill="#191970" stroke="#191970" points="1318.91,-253.527 1329.29,-251.376 1319.84,-246.588 1318.91,-253.527"/>
</g>
<!-- Node29&#45;&gt;Node28 -->
<g id="edge41" class="edge">
<title>Node29&#45;&gt;Node28</title>
<path fill="none" stroke="#191970" d="M1347.01,-241.742C1333.74,-234.36 1320.01,-223.923 1312.56,-210 1291.5,-170.652 1309.67,-114.493 1318.46,-92.1779"/>
<polygon fill="#191970" stroke="#191970" points="1345.54,-244.921 1356.03,-246.37 1348.73,-238.692 1345.54,-244.921"/>
</g>
<!-- Node29&#45;&gt;Node30 -->
<g id="edge42" class="edge">
<title>Node29&#45;&gt;Node30</title>
<path fill="none" stroke="#191970" d="M1437.61,-243.778C1484.12,-230.356 1547.36,-203.75 1577.56,-154 1589.28,-134.679 1583.33,-106.692 1578.9,-92.1259"/>
<polygon fill="#191970" stroke="#191970" points="1436.66,-240.408 1427.95,-246.445 1438.52,-247.156 1436.66,-240.408"/>
</g>
<!-- Node29&#45;&gt;Node31 -->
<g id="edge43" class="edge">
<title>Node29&#45;&gt;Node31</title>
<path fill="none" stroke="#191970" d="M1403.41,-240.429C1414.88,-231.905 1428.91,-220.885 1440.56,-210 1460.32,-191.527 1480.79,-167.259 1491.66,-153.895"/>
<polygon fill="#191970" stroke="#191970" points="1401.24,-237.686 1395.23,-246.417 1405.37,-243.335 1401.24,-237.686"/>
</g>
<!-- Node29&#45;&gt;Node32 -->
<g id="edge47" class="edge">
<title>Node29&#45;&gt;Node32</title>
<path fill="none" stroke="#191970" d="M1343.64,-242.95C1322.95,-234.971 1297.38,-223.672 1276.56,-210 1251.23,-193.375 1226.42,-167.5 1213.92,-153.601"/>
<polygon fill="#191970" stroke="#191970" points="1342.47,-246.25 1353.06,-246.487 1344.93,-239.697 1342.47,-246.25"/>
</g>
<!-- Node29&#45;&gt;Node33 -->
<g id="edge48" class="edge">
<title>Node29&#45;&gt;Node33</title>
<path fill="none" stroke="#191970" d="M1379.79,-236.158C1378.98,-227.155 1378.07,-216.92 1377.42,-209.643"/>
<polygon fill="#191970" stroke="#191970" points="1376.31,-236.596 1380.69,-246.246 1383.28,-235.974 1376.31,-236.596"/>
</g>
<!-- Node31&#45;&gt;Node12 -->
<g id="edge46" class="edge">
<title>Node31&#45;&gt;Node12</title>
<path fill="none" stroke="#191970" d="M1485.86,-126.345C1470.88,-108.371 1445.15,-81.1921 1416.56,-67 1373.85,-45.8072 1240.66,-28.4741 1169.11,-20.4006"/>
<polygon fill="#191970" stroke="#191970" points="1483.31,-128.756 1492.32,-134.332 1488.75,-124.355 1483.31,-128.756"/>
</g>
<!-- Node31&#45;&gt;Node28 -->
<g id="edge44" class="edge">
<title>Node31&#45;&gt;Node28</title>
<path fill="none" stroke="#191970" d="M1462.43,-131.101C1428.86,-119.437 1380.21,-102.53 1350.02,-92.0419"/>
<polygon fill="#191970" stroke="#191970" points="1461.31,-134.415 1471.9,-134.391 1463.6,-127.802 1461.31,-134.415"/>
</g>
<!-- Node31&#45;&gt;Node30 -->
<g id="edge45" class="edge">
<title>Node31&#45;&gt;Node30</title>
<path fill="none" stroke="#191970" d="M1519.49,-127.869C1533.47,-116.558 1551.7,-101.806 1563.52,-92.2449"/>
<polygon fill="#191970" stroke="#191970" points="1517,-125.379 1511.43,-134.391 1521.41,-130.821 1517,-125.379"/>
</g>
<!-- Node33&#45;&gt;Node12 -->
<g id="edge52" class="edge">
<title>Node33&#45;&gt;Node12</title>
<path fill="none" stroke="#191970" d="M1384.87,-180.716C1395.65,-152.366 1410.12,-99.3115 1383.56,-67 1356.94,-34.6205 1236.87,-22.2672 1169.24,-17.8194"/>
<polygon fill="#191970" stroke="#191970" points="1381.51,-179.694 1381.01,-190.277 1388,-182.312 1381.51,-179.694"/>
</g>
<!-- Node33&#45;&gt;Node28 -->
<g id="edge49" class="edge">
<title>Node33&#45;&gt;Node28</title>
<path fill="none" stroke="#191970" d="M1365.34,-181.545C1360.51,-173.266 1354.97,-163.289 1350.56,-154 1340.37,-132.57 1330.81,-106.374 1325.93,-92.3998"/>
<polygon fill="#191970" stroke="#191970" points="1362.45,-183.536 1370.57,-190.343 1368.47,-179.959 1362.45,-183.536"/>
</g>
<!-- Node33&#45;&gt;Node31 -->
<g id="edge50" class="edge">
<title>Node33&#45;&gt;Node31</title>
<path fill="none" stroke="#191970" d="M1407.06,-186.111C1429.37,-175.956 1459.04,-162.448 1478.69,-153.501"/>
<polygon fill="#191970" stroke="#191970" points="1405.35,-183.044 1397.7,-190.373 1408.25,-189.415 1405.35,-183.044"/>
</g>
<!-- Node33&#45;&gt;Node32 -->
<g id="edge51" class="edge">
<title>Node33&#45;&gt;Node32</title>
<path fill="none" stroke="#191970" d="M1337.44,-187.19C1306.11,-176.931 1262.87,-162.769 1234.57,-153.501"/>
<polygon fill="#191970" stroke="#191970" points="1336.57,-190.587 1347.16,-190.373 1338.75,-183.935 1336.57,-190.587"/>
</g>
</g>
</svg>
