<?xml version="1.0" encoding="UTF-8" standalone="no"?>
<!DOCTYPE svg PUBLIC "-//W3C//DTD SVG 1.1//EN"
 "http://www.w3.org/Graphics/SVG/1.1/DTD/svg11.dtd">
<!-- Generated by graphviz version 2.41.20170323.1842 (20170323.1842)
 -->
<!-- Title: ext_spi_flash_read Pages: 1 -->
<svg width="1270pt" height="363pt"
 viewBox="0.00 0.00 1270.00 362.61" xmlns="http://www.w3.org/2000/svg" xmlns:xlink="http://www.w3.org/1999/xlink">
<g id="graph0" class="graph" transform="scale(1 1) rotate(0) translate(4 358.6055)">
<title>ext_spi_flash_read</title>
<polygon fill="#ffffff" stroke="transparent" points="-4,4 -4,-358.6055 1266,-358.6055 1266,4 -4,4"/>
<!-- Node32 -->
<g id="node1" class="node">
<title>Node32</title>
<polygon fill="#bfbfbf" stroke="#000000" points="0,-218.1055 0,-237.1055 100,-237.1055 100,-218.1055 0,-218.1055"/>
<text text-anchor="middle" x="50" y="-225.1055" font-family="Helvetica,sans-Serif" font-size="10.00" fill="#000000">ext_spi_flash_read</text>
</g>
<!-- Node33 -->
<g id="node2" class="node">
<title>Node33</title>
<g id="a_node2"><a xlink:href="config_8h.html#a92adb6c5103eed30e16185a9cd233e51" target="_top" xlink:title="cfg_load">
<polygon fill="#ffffff" stroke="#000000" points="328,-275.1055 328,-294.1055 382,-294.1055 382,-275.1055 328,-275.1055"/>
<text text-anchor="middle" x="355" y="-282.1055" font-family="Helvetica,sans-Serif" font-size="10.00" fill="#000000">cfg_load</text>
</a>
</g>
</g>
<!-- Node32&#45;&gt;Node33 -->
<g id="edge1" class="edge">
<title>Node32&#45;&gt;Node33</title>
<path fill="none" stroke="#191970" d="M101.2965,-239.3403C112.7008,-241.8369 124.745,-244.387 136,-246.6055 204.906,-260.188 286.5259,-273.6643 327.9548,-280.3204"/>
<polygon fill="#191970" stroke="#191970" points="101.9949,-235.9102 91.4752,-237.1696 100.4842,-242.7453 101.9949,-235.9102"/>
</g>
<!-- Node38 -->
<g id="node7" class="node">
<title>Node38</title>
<g id="a_node7"><a xlink:href="config_8h.html#acd3c633ba5f49d7bb46d6e4efa31ddb2" target="_top" xlink:title="cfg_save">
<polygon fill="#ffffff" stroke="#000000" points="168.5,-218.1055 168.5,-237.1055 225.5,-237.1055 225.5,-218.1055 168.5,-218.1055"/>
<text text-anchor="middle" x="197" y="-225.1055" font-family="Helvetica,sans-Serif" font-size="10.00" fill="#000000">cfg_save</text>
</a>
</g>
</g>
<!-- Node32&#45;&gt;Node38 -->
<g id="edge7" class="edge">
<title>Node32&#45;&gt;Node38</title>
<path fill="none" stroke="#191970" d="M110.2379,-227.6055C130.3784,-227.6055 151.893,-227.6055 168.4594,-227.6055"/>
<polygon fill="#191970" stroke="#191970" points="110.178,-224.1056 100.1779,-227.6055 110.1779,-231.1056 110.178,-224.1056"/>
</g>
<!-- Node50 -->
<g id="node19" class="node">
<title>Node50</title>
<g id="a_node19"><a xlink:href="ext__spi__flash_8h.html#a5ca58d3e387ebe3e9e6169caf3845d65" target="_top" xlink:title="ext_spi_flash_hexdump">
<polygon fill="#ffffff" stroke="#000000" points="136,-180.1055 136,-199.1055 258,-199.1055 258,-180.1055 136,-180.1055"/>
<text text-anchor="middle" x="197" y="-187.1055" font-family="Helvetica,sans-Serif" font-size="10.00" fill="#000000">ext_spi_flash_hexdump</text>
</a>
</g>
</g>
<!-- Node32&#45;&gt;Node50 -->
<g id="edge31" class="edge">
<title>Node32&#45;&gt;Node50</title>
<path fill="none" stroke="#191970" d="M96.8548,-215.4934C117.3276,-210.2011 140.9903,-204.0842 160.1724,-199.1255"/>
<polygon fill="#191970" stroke="#191970" points="95.9001,-212.125 87.0943,-218.0165 97.652,-218.9023 95.9001,-212.125"/>
</g>
<!-- Node34 -->
<g id="node3" class="node">
<title>Node34</title>
<g id="a_node3"><a xlink:href="cgiwifi_8h.html#ace460e5ac8fd74afa8616bfc82561b26" target="_top" xlink:title="tplSetup">
<polygon fill="#ffffff" stroke="#000000" points="473.5,-335.1055 473.5,-354.1055 526.5,-354.1055 526.5,-335.1055 473.5,-335.1055"/>
<text text-anchor="middle" x="500" y="-342.1055" font-family="Helvetica,sans-Serif" font-size="10.00" fill="#000000">tplSetup</text>
</a>
</g>
</g>
<!-- Node33&#45;&gt;Node34 -->
<g id="edge2" class="edge">
<title>Node33&#45;&gt;Node34</title>
<path fill="none" stroke="#191970" d="M387.416,-298.019C414.5006,-309.2264 452.4699,-324.9379 476.6517,-334.9441"/>
<polygon fill="#191970" stroke="#191970" points="388.5541,-294.7022 377.9757,-294.1127 385.8776,-301.1703 388.5541,-294.7022"/>
</g>
<!-- Node35 -->
<g id="node4" class="node">
<title>Node35</title>
<g id="a_node4"><a xlink:href="user__main_8c.html#a245ec00253f410a8804988bf40e1037e" target="_top" xlink:title="sample_mode_timer_func">
<polygon fill="#ffffff" stroke="#000000" points="899,-221.1055 899,-240.1055 1031,-240.1055 1031,-221.1055 899,-221.1055"/>
<text text-anchor="middle" x="965" y="-228.1055" font-family="Helvetica,sans-Serif" font-size="10.00" fill="#000000">sample_mode_timer_func</text>
</a>
</g>
</g>
<!-- Node33&#45;&gt;Node35 -->
<g id="edge3" class="edge">
<title>Node33&#45;&gt;Node35</title>
<path fill="none" stroke="#191970" d="M392.4253,-282.145C475.314,-276.5745 680.6073,-262.1117 852,-244.6055 867.1426,-243.0588 883.399,-241.176 898.7293,-239.2992"/>
<polygon fill="#191970" stroke="#191970" points="391.9884,-278.6663 382.2443,-282.8257 392.4555,-285.6507 391.9884,-278.6663"/>
</g>
<!-- Node37 -->
<g id="node6" class="node">
<title>Node37</title>
<g id="a_node6"><a xlink:href="user__main_8h.html#a33113d6dedb440bd7dfa5576e325140c" target="_top" xlink:title="user_init">
<polygon fill="#ffffff" stroke="#000000" points="1208,-92.1055 1208,-111.1055 1262,-111.1055 1262,-92.1055 1208,-92.1055"/>
<text text-anchor="middle" x="1235" y="-99.1055" font-family="Helvetica,sans-Serif" font-size="10.00" fill="#000000">user_init</text>
</a>
</g>
</g>
<!-- Node33&#45;&gt;Node37 -->
<g id="edge6" class="edge">
<title>Node33&#45;&gt;Node37</title>
<path fill="none" stroke="#191970" d="M392.3959,-289.1805C448.41,-295.6267 557.4661,-306.6055 650.5,-306.6055 650.5,-306.6055 650.5,-306.6055 965,-306.6055 1066.2261,-306.6055 1097.2796,-279.8959 1172,-211.6055 1204.3275,-182.0599 1224.4644,-131.9795 1231.829,-111.1428"/>
<polygon fill="#191970" stroke="#191970" points="392.5838,-285.6787 382.2452,-287.9948 391.7715,-292.6315 392.5838,-285.6787"/>
</g>
<!-- Node36 -->
<g id="node5" class="node">
<title>Node36</title>
<g id="a_node5"><a xlink:href="user__main_8h.html#a3671381db669a16e8f6a4bf3dfb9a441" target="_top" xlink:title="system_init_done">
<polygon fill="#ffffff" stroke="#000000" points="1078,-183.1055 1078,-202.1055 1172,-202.1055 1172,-183.1055 1078,-183.1055"/>
<text text-anchor="middle" x="1125" y="-190.1055" font-family="Helvetica,sans-Serif" font-size="10.00" fill="#000000">system_init_done</text>
</a>
</g>
</g>
<!-- Node35&#45;&gt;Node36 -->
<g id="edge4" class="edge">
<title>Node35&#45;&gt;Node36</title>
<path fill="none" stroke="#191970" d="M1015.3915,-218.6375C1037.813,-213.3124 1063.8472,-207.1293 1084.9156,-202.1255"/>
<polygon fill="#191970" stroke="#191970" points="1014.2953,-215.3004 1005.3748,-221.0165 1015.9129,-222.111 1014.2953,-215.3004"/>
</g>
<!-- Node36&#45;&gt;Node37 -->
<g id="edge5" class="edge">
<title>Node36&#45;&gt;Node37</title>
<path fill="none" stroke="#191970" d="M1144.487,-176.4844C1167.3485,-157.5717 1204.5114,-126.8278 1223.3127,-111.2741"/>
<polygon fill="#191970" stroke="#191970" points="1142.2461,-173.7958 1136.7719,-182.8669 1146.7081,-179.1894 1142.2461,-173.7958"/>
</g>
<!-- Node38&#45;&gt;Node33 -->
<g id="edge8" class="edge">
<title>Node38&#45;&gt;Node33</title>
<path fill="none" stroke="#191970" d="M233.2166,-240.671C262.2589,-251.1483 302.3475,-265.6106 328.4681,-275.0338"/>
<polygon fill="#191970" stroke="#191970" points="234.04,-237.2473 223.4456,-237.146 231.6645,-243.8319 234.04,-237.2473"/>
</g>
<!-- Node39 -->
<g id="node8" class="node">
<title>Node39</title>
<g id="a_node8"><a xlink:href="config_8h.html#a1e0d59e84f6bbc2564bcdf595b6972da" target="_top" xlink:title="config_save_timer_func">
<polygon fill="#ffffff" stroke="#000000" points="294,-95.1055 294,-114.1055 416,-114.1055 416,-95.1055 294,-95.1055"/>
<text text-anchor="middle" x="355" y="-102.1055" font-family="Helvetica,sans-Serif" font-size="10.00" fill="#000000">config_save_timer_func</text>
</a>
</g>
</g>
<!-- Node38&#45;&gt;Node39 -->
<g id="edge9" class="edge">
<title>Node38&#45;&gt;Node39</title>
<path fill="none" stroke="#191970" d="M235.1917,-219.9678C243.2071,-217.2361 251.2635,-213.5544 258,-208.6055 280.6532,-191.9634 275.146,-177.4537 294,-156.6055 308.7478,-140.2978 328.5274,-124.312 341.51,-114.4628"/>
<polygon fill="#191970" stroke="#191970" points="234.1092,-216.6383 225.5264,-222.8501 236.1096,-223.3464 234.1092,-216.6383"/>
</g>
<!-- Node44 -->
<g id="node13" class="node">
<title>Node44</title>
<g id="a_node13"><a xlink:href="user__main_8h.html#a6e5f80dd3fa3d07976a27c859e1aaadf" target="_top" xlink:title="mqtt_data_cb">
<polygon fill="#ffffff" stroke="#000000" points="764,-130.1055 764,-149.1055 841,-149.1055 841,-130.1055 764,-130.1055"/>
<text text-anchor="middle" x="802.5" y="-137.1055" font-family="Helvetica,sans-Serif" font-size="10.00" fill="#000000">mqtt_data_cb</text>
</a>
</g>
</g>
<!-- Node38&#45;&gt;Node44 -->
<g id="edge30" class="edge">
<title>Node38&#45;&gt;Node44</title>
<path fill="none" stroke="#191970" d="M235.3829,-216.8322C242.9694,-214.3731 250.8066,-211.5943 258,-208.6055 274.707,-201.6639 276.6098,-194.5946 294,-189.6055 475.1948,-137.6221 530.4989,-186.013 717,-158.6055 732.9469,-156.262 750.3466,-152.6017 765.2619,-149.1169"/>
<polygon fill="#191970" stroke="#191970" points="234.1353,-213.5549 225.6294,-219.8716 236.2179,-220.2379 234.1353,-213.5549"/>
</g>
<!-- Node48 -->
<g id="node17" class="node">
<title>Node48</title>
<g id="a_node17"><a xlink:href="cgiwifi_8h.html#a7c655a56f56ecebad923c5c4daeb7f1a" target="_top" xlink:title="cgiSetup">
<polygon fill="#ffffff" stroke="#000000" points="327.5,-199.1055 327.5,-218.1055 382.5,-218.1055 382.5,-199.1055 327.5,-199.1055"/>
<text text-anchor="middle" x="355" y="-206.1055" font-family="Helvetica,sans-Serif" font-size="10.00" fill="#000000">cgiSetup</text>
</a>
</g>
</g>
<!-- Node38&#45;&gt;Node48 -->
<g id="edge27" class="edge">
<title>Node38&#45;&gt;Node48</title>
<path fill="none" stroke="#191970" d="M235.6093,-222.9626C264.0254,-219.5455 301.9793,-214.9814 327.3945,-211.9251"/>
<polygon fill="#191970" stroke="#191970" points="235.1232,-219.4957 225.6126,-224.1647 235.959,-226.4457 235.1232,-219.4957"/>
</g>
<!-- Node49 -->
<g id="node18" class="node">
<title>Node49</title>
<g id="a_node18"><a xlink:href="user__main_8c.html#a3648c609e8dd286eb90285b08b150362" target="_top" xlink:title="kmp_request_send_timer_func">
<polygon fill="#ffffff" stroke="#000000" points="888,-183.1055 888,-202.1055 1042,-202.1055 1042,-183.1055 888,-183.1055"/>
<text text-anchor="middle" x="965" y="-190.1055" font-family="Helvetica,sans-Serif" font-size="10.00" fill="#000000">kmp_request_send_timer_func</text>
</a>
</g>
</g>
<!-- Node38&#45;&gt;Node49 -->
<g id="edge28" class="edge">
<title>Node38&#45;&gt;Node49</title>
<path fill="none" stroke="#191970" d="M235.9174,-228.3524C279.7146,-229.0192 352.9831,-229.6122 416,-227.6055 584.4827,-222.2404 781.6083,-207.6361 887.7934,-199.083"/>
<polygon fill="#191970" stroke="#191970" points="235.7624,-224.8495 225.7071,-228.1874 235.6492,-231.8486 235.7624,-224.8495"/>
</g>
<!-- Node39&#45;&gt;Node39 -->
<g id="edge26" class="edge">
<title>Node39&#45;&gt;Node39</title>
<path fill="none" stroke="#191970" d="M328.1208,-123.2594C329.2444,-128.5423 338.2041,-132.6055 355,-132.6055 380.5938,-132.6055 387.9919,-123.1708 377.1946,-114.3625"/>
<polygon fill="#191970" stroke="#191970" points="331.2433,-124.8416 332.8054,-114.3625 325.0494,-121.5802 331.2433,-124.8416"/>
</g>
<!-- Node40 -->
<g id="node9" class="node">
<title>Node40</title>
<g id="a_node9"><a xlink:href="config_8h.html#ab4af9f95b39f096bb0fa8d73eb5a342e" target="_top" xlink:title="cfg_save_defered">
<polygon fill="#ffffff" stroke="#000000" points="452,-92.1055 452,-111.1055 548,-111.1055 548,-92.1055 452,-92.1055"/>
<text text-anchor="middle" x="500" y="-99.1055" font-family="Helvetica,sans-Serif" font-size="10.00" fill="#000000">cfg_save_defered</text>
</a>
</g>
</g>
<!-- Node39&#45;&gt;Node40 -->
<g id="edge10" class="edge">
<title>Node39&#45;&gt;Node40</title>
<path fill="none" stroke="#191970" d="M426.2003,-103.1324C434.8623,-102.9532 443.5492,-102.7734 451.7659,-102.6034"/>
<polygon fill="#191970" stroke="#191970" points="425.9982,-99.6357 416.0728,-103.3419 426.1431,-106.6342 425.9982,-99.6357"/>
</g>
<!-- Node41 -->
<g id="node10" class="node">
<title>Node41</title>
<g id="a_node10"><a xlink:href="ac__out_8h.html#a1573f96ac038a6a1b29a6f21403a2341" target="_top" xlink:title="ac_thermo_open">
<polygon fill="#ffffff" stroke="#000000" points="604.5,-16.1055 604.5,-35.1055 696.5,-35.1055 696.5,-16.1055 604.5,-16.1055"/>
<text text-anchor="middle" x="650.5" y="-23.1055" font-family="Helvetica,sans-Serif" font-size="10.00" fill="#000000">ac_thermo_open</text>
</a>
</g>
</g>
<!-- Node40&#45;&gt;Node41 -->
<g id="edge11" class="edge">
<title>Node40&#45;&gt;Node41</title>
<path fill="none" stroke="#191970" d="M519.734,-85.5399C536.1007,-72.8953 560.4255,-55.6248 584,-44.6055 591.9406,-40.8939 600.7599,-37.7541 609.3112,-35.1618"/>
<polygon fill="#191970" stroke="#191970" points="517.2012,-83.0798 511.5153,-92.0197 521.5351,-88.5768 517.2012,-83.0798"/>
</g>
<!-- Node45 -->
<g id="node14" class="node">
<title>Node45</title>
<g id="a_node14"><a xlink:href="ac__out_8h.html#a3bc674b019d5e2e4d15e7abe7c69029f" target="_top" xlink:title="ac_thermo_close">
<polygon fill="#ffffff" stroke="#000000" points="604,-54.1055 604,-73.1055 697,-73.1055 697,-54.1055 604,-54.1055"/>
<text text-anchor="middle" x="650.5" y="-61.1055" font-family="Helvetica,sans-Serif" font-size="10.00" fill="#000000">ac_thermo_close</text>
</a>
</g>
</g>
<!-- Node40&#45;&gt;Node45 -->
<g id="edge18" class="edge">
<title>Node40&#45;&gt;Node45</title>
<path fill="none" stroke="#191970" d="M547.6847,-89.5655C568.7103,-84.2567 593.0674,-78.1067 612.7956,-73.1255"/>
<polygon fill="#191970" stroke="#191970" points="546.8164,-86.1748 537.9775,-92.0165 548.5301,-92.9618 546.8164,-86.1748"/>
</g>
<!-- Node46 -->
<g id="node15" class="node">
<title>Node46</title>
<g id="a_node15"><a xlink:href="cron_8h.html#abede8d12ed6e5d5f3412eda37b325d03" target="_top" xlink:title="add_cron_job_from_query">
<polygon fill="#ffffff" stroke="#000000" points="584,-130.1055 584,-149.1055 717,-149.1055 717,-130.1055 584,-130.1055"/>
<text text-anchor="middle" x="650.5" y="-137.1055" font-family="Helvetica,sans-Serif" font-size="10.00" fill="#000000">add_cron_job_from_query</text>
</a>
</g>
</g>
<!-- Node40&#45;&gt;Node46 -->
<g id="edge22" class="edge">
<title>Node40&#45;&gt;Node46</title>
<path fill="none" stroke="#191970" d="M547.6847,-113.6455C568.7103,-118.9543 593.0674,-125.1042 612.7956,-130.0854"/>
<polygon fill="#191970" stroke="#191970" points="548.5301,-110.2492 537.9775,-111.1945 546.8164,-117.0362 548.5301,-110.2492"/>
</g>
<!-- Node47 -->
<g id="node16" class="node">
<title>Node47</title>
<g id="a_node16"><a xlink:href="cron_8h.html#ad014b7bf4eab144ea9fc5669d896714b" target="_top" xlink:title="clear_cron_jobs">
<polygon fill="#ffffff" stroke="#000000" points="607,-92.1055 607,-111.1055 694,-111.1055 694,-92.1055 607,-92.1055"/>
<text text-anchor="middle" x="650.5" y="-99.1055" font-family="Helvetica,sans-Serif" font-size="10.00" fill="#000000">clear_cron_jobs</text>
</a>
</g>
</g>
<!-- Node40&#45;&gt;Node47 -->
<g id="edge24" class="edge">
<title>Node40&#45;&gt;Node47</title>
<path fill="none" stroke="#191970" d="M558.4586,-101.6055C574.613,-101.6055 591.8554,-101.6055 606.9976,-101.6055"/>
<polygon fill="#191970" stroke="#191970" points="558.033,-98.1056 548.0329,-101.6055 558.0329,-105.1056 558.033,-98.1056"/>
</g>
<!-- Node41&#45;&gt;Node37 -->
<g id="edge17" class="edge">
<title>Node41&#45;&gt;Node37</title>
<path fill="none" stroke="#191970" d="M706.6517,-15.5402C805.1174,-.4723 1013.5163,19.787 1172,-44.6055 1196.3236,-54.4882 1217.2801,-78.185 1227.7925,-91.7077"/>
<polygon fill="#191970" stroke="#191970" points="705.9536,-12.1069 696.618,-17.1165 707.04,-19.0221 705.9536,-12.1069"/>
</g>
<!-- Node42 -->
<g id="node11" class="node">
<title>Node42</title>
<g id="a_node11"><a xlink:href="cron_8c.html#a2782af03df9b913cfa565a0770e1afe1" target="_top" xlink:title="minute_timer_func">
<polygon fill="#ffffff" stroke="#000000" points="753,-54.1055 753,-73.1055 852,-73.1055 852,-54.1055 753,-54.1055"/>
<text text-anchor="middle" x="802.5" y="-61.1055" font-family="Helvetica,sans-Serif" font-size="10.00" fill="#000000">minute_timer_func</text>
</a>
</g>
</g>
<!-- Node41&#45;&gt;Node42 -->
<g id="edge12" class="edge">
<title>Node41&#45;&gt;Node42</title>
<path fill="none" stroke="#191970" d="M698.66,-37.6455C719.8951,-42.9543 744.495,-49.1042 764.4198,-54.0854"/>
<polygon fill="#191970" stroke="#191970" points="699.4063,-34.2244 688.856,-35.1945 697.7085,-41.0154 699.4063,-34.2244"/>
</g>
<!-- Node41&#45;&gt;Node44 -->
<g id="edge15" class="edge">
<title>Node41&#45;&gt;Node44</title>
<path fill="none" stroke="#191970" d="M706.1971,-38.9081C709.961,-40.593 713.6024,-42.4841 717,-44.6055 721.7995,-47.6021 773.2432,-106.1488 793.9441,-129.8097"/>
<polygon fill="#191970" stroke="#191970" points="707.2441,-35.5584 696.6579,-35.1312 704.6671,-42.0668 707.2441,-35.5584"/>
</g>
<!-- Node43 -->
<g id="node12" class="node">
<title>Node43</title>
<g id="a_node12"><a xlink:href="cron_8h.html#ae130c5973bad35b56776750c7a34db12" target="_top" xlink:title="cron_init">
<polygon fill="#ffffff" stroke="#000000" points="1098,-54.1055 1098,-73.1055 1152,-73.1055 1152,-54.1055 1098,-54.1055"/>
<text text-anchor="middle" x="1125" y="-61.1055" font-family="Helvetica,sans-Serif" font-size="10.00" fill="#000000">cron_init</text>
</a>
</g>
</g>
<!-- Node42&#45;&gt;Node43 -->
<g id="edge13" class="edge">
<title>Node42&#45;&gt;Node43</title>
<path fill="none" stroke="#191970" d="M862.213,-63.6055C932.4011,-63.6055 1045.8619,-63.6055 1097.6495,-63.6055"/>
<polygon fill="#191970" stroke="#191970" points="862.1839,-60.1056 852.1839,-63.6055 862.1838,-67.1056 862.1839,-60.1056"/>
</g>
<!-- Node43&#45;&gt;Node37 -->
<g id="edge14" class="edge">
<title>Node43&#45;&gt;Node37</title>
<path fill="none" stroke="#191970" d="M1161.7202,-76.2907C1176.7557,-81.4847 1193.8476,-87.3892 1207.7406,-92.1886"/>
<polygon fill="#191970" stroke="#191970" points="1162.7858,-72.9559 1152.191,-72.9987 1160.5001,-79.5722 1162.7858,-72.9559"/>
</g>
<!-- Node44&#45;&gt;Node35 -->
<g id="edge16" class="edge">
<title>Node44&#45;&gt;Node35</title>
<path fill="none" stroke="#191970" d="M817.9263,-156.4921C833.9009,-172.9633 860.3572,-197.5323 888,-211.6055 895.6076,-215.4786 904.0467,-218.5901 912.4683,-221.0817"/>
<polygon fill="#191970" stroke="#191970" points="820.3827,-153.9957 810.967,-149.1382 815.2984,-158.8072 820.3827,-153.9957"/>
</g>
<!-- Node45&#45;&gt;Node37 -->
<g id="edge21" class="edge">
<title>Node45&#45;&gt;Node37</title>
<path fill="none" stroke="#191970" d="M704.2269,-75.0684C719.8839,-77.9999 737.0653,-80.8239 753,-82.6055 925.4879,-101.8904 1134.5984,-102.403 1207.9851,-101.8989"/>
<polygon fill="#191970" stroke="#191970" points="704.6679,-71.5891 694.1867,-73.1363 703.3451,-78.463 704.6679,-71.5891"/>
</g>
<!-- Node45&#45;&gt;Node42 -->
<g id="edge19" class="edge">
<title>Node45&#45;&gt;Node42</title>
<path fill="none" stroke="#191970" d="M707.4857,-63.6055C722.4191,-63.6055 738.3992,-63.6055 752.9119,-63.6055"/>
<polygon fill="#191970" stroke="#191970" points="707.3453,-60.1056 697.3453,-63.6055 707.3452,-67.1056 707.3453,-60.1056"/>
</g>
<!-- Node45&#45;&gt;Node44 -->
<g id="edge20" class="edge">
<title>Node45&#45;&gt;Node44</title>
<path fill="none" stroke="#191970" d="M704.5227,-76.686C708.8479,-78.4366 713.0624,-80.4023 717,-82.6055 735.9417,-93.2038 735.0457,-103.4091 753,-115.6055 761.1372,-121.1331 770.7396,-126.0979 779.3109,-130.0579"/>
<polygon fill="#191970" stroke="#191970" points="705.5354,-73.3298 694.9415,-73.1888 703.1352,-79.9055 705.5354,-73.3298"/>
</g>
<!-- Node46&#45;&gt;Node44 -->
<g id="edge23" class="edge">
<title>Node46&#45;&gt;Node44</title>
<path fill="none" stroke="#191970" d="M727.3123,-139.6055C739.9851,-139.6055 752.6278,-139.6055 763.8307,-139.6055"/>
<polygon fill="#191970" stroke="#191970" points="727.1694,-136.1056 717.1694,-139.6055 727.1694,-143.1056 727.1694,-136.1056"/>
</g>
<!-- Node47&#45;&gt;Node44 -->
<g id="edge25" class="edge">
<title>Node47&#45;&gt;Node44</title>
<path fill="none" stroke="#191970" d="M698.66,-113.6455C719.8951,-118.9543 744.495,-125.1042 764.4198,-130.0854"/>
<polygon fill="#191970" stroke="#191970" points="699.4063,-110.2244 688.856,-111.1945 697.7085,-117.0154 699.4063,-110.2244"/>
</g>
<!-- Node49&#45;&gt;Node36 -->
<g id="edge29" class="edge">
<title>Node49&#45;&gt;Node36</title>
<path fill="none" stroke="#191970" d="M1052.4323,-192.6055C1061.1339,-192.6055 1069.7172,-192.6055 1077.7657,-192.6055"/>
<polygon fill="#191970" stroke="#191970" points="1052.188,-189.1056 1042.188,-192.6055 1052.188,-196.1056 1052.188,-189.1056"/>
</g>
</g>
</svg>
