<?xml version="1.0" encoding="UTF-8" standalone="no"?>
<!DOCTYPE svg PUBLIC "-//W3C//DTD SVG 1.1//EN"
 "http://www.w3.org/Graphics/SVG/1.1/DTD/svg11.dtd">
<!-- Generated by graphviz version 2.39.20160927.1334 (20160927.1334)
 -->
<!-- Title: ext_spi_flash_read Pages: 1 -->
<svg width="1248pt" height="282pt"
 viewBox="0.00 0.00 1248.00 281.66" xmlns="http://www.w3.org/2000/svg" xmlns:xlink="http://www.w3.org/1999/xlink">
<g id="graph0" class="graph" transform="scale(1 1) rotate(0) translate(4 277.664)">
<title>ext_spi_flash_read</title>
<polygon fill="#ffffff" stroke="transparent" points="-4,4 -4,-277.664 1244,-277.664 1244,4 -4,4"/>
<!-- Node1 -->
<g id="node1" class="node">
<title>Node1</title>
<polygon fill="#bfbfbf" stroke="#000000" points="0,-150.164 0,-169.164 100,-169.164 100,-150.164 0,-150.164"/>
<text text-anchor="middle" x="50" y="-157.164" font-family="Helvetica,sans-Serif" font-size="10.00" fill="#000000">ext_spi_flash_read</text>
</g>
<!-- Node2 -->
<g id="node2" class="node">
<title>Node2</title>
<g id="a_node2"><a xlink:href="config_8h.html#a92adb6c5103eed30e16185a9cd233e51" target="_top" xlink:title="cfg_load">
<polygon fill="#ffffff" stroke="#000000" points="328,-197.164 328,-216.164 382,-216.164 382,-197.164 328,-197.164"/>
<text text-anchor="middle" x="355" y="-204.164" font-family="Helvetica,sans-Serif" font-size="10.00" fill="#000000">cfg_load</text>
</a>
</g>
</g>
<!-- Node1&#45;&gt;Node2 -->
<g id="edge1" class="edge">
<title>Node1&#45;&gt;Node2</title>
<path fill="none" stroke="#191970" d="M99.4606,-171.392C111.384,-173.997 124.113,-176.595 136,-178.664 204.728,-190.624 286.423,-199.731 327.91,-203.996"/>
<polygon fill="#191970" stroke="#191970" points="100.192,-167.969 89.6708,-169.213 98.6718,-174.802 100.192,-167.969"/>
</g>
<!-- Node7 -->
<g id="node7" class="node">
<title>Node7</title>
<g id="a_node7"><a xlink:href="config_8h.html#acd3c633ba5f49d7bb46d6e4efa31ddb2" target="_top" xlink:title="cfg_save">
<polygon fill="#ffffff" stroke="#000000" points="168.5,-150.164 168.5,-169.164 225.5,-169.164 225.5,-150.164 168.5,-150.164"/>
<text text-anchor="middle" x="197" y="-157.164" font-family="Helvetica,sans-Serif" font-size="10.00" fill="#000000">cfg_save</text>
</a>
</g>
</g>
<!-- Node1&#45;&gt;Node7 -->
<g id="edge7" class="edge">
<title>Node1&#45;&gt;Node7</title>
<path fill="none" stroke="#191970" d="M110.238,-159.664C130.378,-159.664 151.893,-159.664 168.459,-159.664"/>
<polygon fill="#191970" stroke="#191970" points="110.178,-156.164 100.178,-159.664 110.178,-163.164 110.178,-156.164"/>
</g>
<!-- Node18 -->
<g id="node18" class="node">
<title>Node18</title>
<g id="a_node18"><a xlink:href="ext__spi__flash_8h.html#a5ca58d3e387ebe3e9e6169caf3845d65" target="_top" xlink:title="ext_spi_flash_hexdump">
<polygon fill="#ffffff" stroke="#000000" points="136,-112.164 136,-131.164 258,-131.164 258,-112.164 136,-112.164"/>
<text text-anchor="middle" x="197" y="-119.164" font-family="Helvetica,sans-Serif" font-size="10.00" fill="#000000">ext_spi_flash_hexdump</text>
</a>
</g>
</g>
<!-- Node1&#45;&gt;Node18 -->
<g id="edge28" class="edge">
<title>Node1&#45;&gt;Node18</title>
<path fill="none" stroke="#191970" d="M96.8548,-147.552C117.328,-142.259 140.99,-136.143 160.172,-131.184"/>
<polygon fill="#191970" stroke="#191970" points="95.9001,-144.183 87.0943,-150.075 97.652,-150.961 95.9001,-144.183"/>
</g>
<!-- Node3 -->
<g id="node3" class="node">
<title>Node3</title>
<g id="a_node3"><a xlink:href="cgiwifi_8h.html#ace460e5ac8fd74afa8616bfc82561b26" target="_top" xlink:title="tplSetup">
<polygon fill="#ffffff" stroke="#000000" points="473.5,-254.164 473.5,-273.164 526.5,-273.164 526.5,-254.164 473.5,-254.164"/>
<text text-anchor="middle" x="500" y="-261.164" font-family="Helvetica,sans-Serif" font-size="10.00" fill="#000000">tplSetup</text>
</a>
</g>
</g>
<!-- Node2&#45;&gt;Node3 -->
<g id="edge2" class="edge">
<title>Node2&#45;&gt;Node3</title>
<path fill="none" stroke="#191970" d="M388.586,-219.867C415.211,-230.333 451.784,-244.71 475.651,-254.092"/>
<polygon fill="#191970" stroke="#191970" points="389.857,-216.606 379.27,-216.204 387.296,-223.12 389.857,-216.606"/>
</g>
<!-- Node4 -->
<g id="node4" class="node">
<title>Node4</title>
<g id="a_node4"><a xlink:href="user__main_8c.html#a245ec00253f410a8804988bf40e1037e" target="_top" xlink:title="sample_mode_timer_func">
<polygon fill="#ffffff" stroke="#000000" points="888,-121.164 888,-140.164 1020,-140.164 1020,-121.164 888,-121.164"/>
<text text-anchor="middle" x="954" y="-128.164" font-family="Helvetica,sans-Serif" font-size="10.00" fill="#000000">sample_mode_timer_func</text>
</a>
</g>
</g>
<!-- Node2&#45;&gt;Node4 -->
<g id="edge3" class="edge">
<title>Node2&#45;&gt;Node4</title>
<path fill="none" stroke="#191970" d="M392.245,-203.619C475.175,-196.571 681.203,-177.576 852,-149.664 869.422,-146.817 888.452,-143.365 905.307,-140.189"/>
<polygon fill="#191970" stroke="#191970" points="391.733,-200.149 382.062,-204.477 392.321,-207.125 391.733,-200.149"/>
</g>
<!-- Node6 -->
<g id="node6" class="node">
<title>Node6</title>
<g id="a_node6"><a xlink:href="user__main_8h.html#a33113d6dedb440bd7dfa5576e325140c" target="_top" xlink:title="user_init">
<polygon fill="#ffffff" stroke="#000000" points="1186,-83.1639 1186,-102.164 1240,-102.164 1240,-83.1639 1186,-83.1639"/>
<text text-anchor="middle" x="1213" y="-90.1639" font-family="Helvetica,sans-Serif" font-size="10.00" fill="#000000">user_init</text>
</a>
</g>
</g>
<!-- Node2&#45;&gt;Node6 -->
<g id="edge6" class="edge">
<title>Node2&#45;&gt;Node6</title>
<path fill="none" stroke="#191970" d="M392.413,-210.615C448.448,-216.182 557.531,-225.664 650.5,-225.664 650.5,-225.664 650.5,-225.664 954,-225.664 1047.43,-225.664 1070.48,-198.712 1150,-149.664 1171.84,-136.191 1193.1,-114.7 1204.47,-102.315"/>
<polygon fill="#191970" stroke="#191970" points="392.559,-207.112 382.258,-209.591 391.856,-214.077 392.559,-207.112"/>
</g>
<!-- Node5 -->
<g id="node5" class="node">
<title>Node5</title>
<g id="a_node5"><a xlink:href="user__main_8h.html#a3671381db669a16e8f6a4bf3dfb9a441" target="_top" xlink:title="system_init_done">
<polygon fill="#ffffff" stroke="#000000" points="1056,-121.164 1056,-140.164 1150,-140.164 1150,-121.164 1056,-121.164"/>
<text text-anchor="middle" x="1103" y="-128.164" font-family="Helvetica,sans-Serif" font-size="10.00" fill="#000000">system_init_done</text>
</a>
</g>
</g>
<!-- Node4&#45;&gt;Node5 -->
<g id="edge4" class="edge">
<title>Node4&#45;&gt;Node5</title>
<path fill="none" stroke="#191970" d="M1030.36,-130.664C1039.01,-130.664 1047.62,-130.664 1055.74,-130.664"/>
<polygon fill="#191970" stroke="#191970" points="1030.22,-127.164 1020.22,-130.664 1030.22,-134.164 1030.22,-127.164"/>
</g>
<!-- Node5&#45;&gt;Node6 -->
<g id="edge5" class="edge">
<title>Node5&#45;&gt;Node6</title>
<path fill="none" stroke="#191970" d="M1140.63,-117.665C1155.4,-112.562 1172.04,-106.814 1185.63,-102.118"/>
<polygon fill="#191970" stroke="#191970" points="1139.07,-114.501 1130.76,-121.075 1141.35,-121.118 1139.07,-114.501"/>
</g>
<!-- Node7&#45;&gt;Node2 -->
<g id="edge8" class="edge">
<title>Node7&#45;&gt;Node2</title>
<path fill="none" stroke="#191970" d="M235.298,-171.056C263.943,-179.577 302.412,-191.021 327.92,-198.608"/>
<polygon fill="#191970" stroke="#191970" points="236.195,-167.672 225.613,-168.175 234.2,-174.381 236.195,-167.672"/>
</g>
<!-- Node8 -->
<g id="node8" class="node">
<title>Node8</title>
<g id="a_node8"><a xlink:href="config_8h.html#a1e0d59e84f6bbc2564bcdf595b6972da" target="_top" xlink:title="config_save_timer_func">
<polygon fill="#ffffff" stroke="#000000" points="294,-141.164 294,-160.164 416,-160.164 416,-141.164 294,-141.164"/>
<text text-anchor="middle" x="355" y="-148.164" font-family="Helvetica,sans-Serif" font-size="10.00" fill="#000000">config_save_timer_func</text>
</a>
</g>
</g>
<!-- Node7&#45;&gt;Node8 -->
<g id="edge9" class="edge">
<title>Node7&#45;&gt;Node8</title>
<path fill="none" stroke="#191970" d="M235.973,-157.444C253.421,-156.45 274.408,-155.255 293.869,-154.146"/>
<polygon fill="#191970" stroke="#191970" points="235.397,-153.971 225.613,-158.034 235.796,-160.96 235.397,-153.971"/>
</g>
<!-- Node17 -->
<g id="node17" class="node">
<title>Node17</title>
<g id="a_node17"><a xlink:href="cgiwifi_8h.html#a7c655a56f56ecebad923c5c4daeb7f1a" target="_top" xlink:title="cgiSetup">
<polygon fill="#ffffff" stroke="#000000" points="327.5,-103.164 327.5,-122.164 382.5,-122.164 382.5,-103.164 327.5,-103.164"/>
<text text-anchor="middle" x="355" y="-110.164" font-family="Helvetica,sans-Serif" font-size="10.00" fill="#000000">cgiSetup</text>
</a>
</g>
</g>
<!-- Node7&#45;&gt;Node17 -->
<g id="edge27" class="edge">
<title>Node7&#45;&gt;Node17</title>
<path fill="none" stroke="#191970" d="M235.236,-148.29C263.692,-139.825 301.868,-128.469 327.395,-120.876"/>
<polygon fill="#191970" stroke="#191970" points="234.2,-144.947 225.613,-151.153 236.195,-151.656 234.2,-144.947"/>
</g>
<!-- Node8&#45;&gt;Node8 -->
<g id="edge26" class="edge">
<title>Node8&#45;&gt;Node8</title>
<path fill="none" stroke="#191970" d="M328.121,-169.318C329.244,-174.601 338.204,-178.664 355,-178.664 380.594,-178.664 387.992,-169.229 377.195,-160.421"/>
<polygon fill="#191970" stroke="#191970" points="331.243,-170.9 332.805,-160.421 325.049,-167.639 331.243,-170.9"/>
</g>
<!-- Node9 -->
<g id="node9" class="node">
<title>Node9</title>
<g id="a_node9"><a xlink:href="config_8h.html#ab4af9f95b39f096bb0fa8d73eb5a342e" target="_top" xlink:title="cfg_save_defered">
<polygon fill="#ffffff" stroke="#000000" points="452,-102.164 452,-121.164 548,-121.164 548,-102.164 452,-102.164"/>
<text text-anchor="middle" x="500" y="-109.164" font-family="Helvetica,sans-Serif" font-size="10.00" fill="#000000">cfg_save_defered</text>
</a>
</g>
</g>
<!-- Node8&#45;&gt;Node9 -->
<g id="edge10" class="edge">
<title>Node8&#45;&gt;Node9</title>
<path fill="none" stroke="#191970" d="M400.337,-138.47C421.076,-132.892 445.281,-126.381 464.644,-121.173"/>
<polygon fill="#191970" stroke="#191970" points="399.219,-135.146 390.471,-141.123 401.037,-141.906 399.219,-135.146"/>
</g>
<!-- Node10 -->
<g id="node10" class="node">
<title>Node10</title>
<g id="a_node10"><a xlink:href="ac__out_8h.html#a1573f96ac038a6a1b29a6f21403a2341" target="_top" xlink:title="ac_thermo_open">
<polygon fill="#ffffff" stroke="#000000" points="604.5,-64.1639 604.5,-83.1639 696.5,-83.1639 696.5,-64.1639 604.5,-64.1639"/>
<text text-anchor="middle" x="650.5" y="-71.1639" font-family="Helvetica,sans-Serif" font-size="10.00" fill="#000000">ac_thermo_open</text>
</a>
</g>
</g>
<!-- Node9&#45;&gt;Node10 -->
<g id="edge11" class="edge">
<title>Node9&#45;&gt;Node10</title>
<path fill="none" stroke="#191970" d="M547.685,-99.6239C568.71,-94.3151 593.067,-88.1651 612.796,-83.1839"/>
<polygon fill="#191970" stroke="#191970" points="546.816,-96.2332 537.978,-102.075 548.53,-103.02 546.816,-96.2332"/>
</g>
<!-- Node14 -->
<g id="node14" class="node">
<title>Node14</title>
<g id="a_node14"><a xlink:href="ac__out_8h.html#a3bc674b019d5e2e4d15e7abe7c69029f" target="_top" xlink:title="ac_thermo_close">
<polygon fill="#ffffff" stroke="#000000" points="604,-26.1639 604,-45.1639 697,-45.1639 697,-26.1639 604,-26.1639"/>
<text text-anchor="middle" x="650.5" y="-33.1639" font-family="Helvetica,sans-Serif" font-size="10.00" fill="#000000">ac_thermo_close</text>
</a>
</g>
</g>
<!-- Node9&#45;&gt;Node14 -->
<g id="edge18" class="edge">
<title>Node9&#45;&gt;Node14</title>
<path fill="none" stroke="#191970" d="M519.734,-95.5983C536.101,-82.9536 560.425,-65.6832 584,-54.6639 591.941,-50.9522 600.76,-47.8124 609.311,-45.2201"/>
<polygon fill="#191970" stroke="#191970" points="517.201,-93.1382 511.515,-102.078 521.535,-98.6351 517.201,-93.1382"/>
</g>
<!-- Node15 -->
<g id="node15" class="node">
<title>Node15</title>
<g id="a_node15"><a xlink:href="cron_8h.html#abede8d12ed6e5d5f3412eda37b325d03" target="_top" xlink:title="add_cron_job_from_query">
<polygon fill="#ffffff" stroke="#000000" points="584,-140.164 584,-159.164 717,-159.164 717,-140.164 584,-140.164"/>
<text text-anchor="middle" x="650.5" y="-147.164" font-family="Helvetica,sans-Serif" font-size="10.00" fill="#000000">add_cron_job_from_query</text>
</a>
</g>
</g>
<!-- Node9&#45;&gt;Node15 -->
<g id="edge22" class="edge">
<title>Node9&#45;&gt;Node15</title>
<path fill="none" stroke="#191970" d="M547.685,-123.704C568.71,-129.013 593.067,-135.163 612.796,-140.144"/>
<polygon fill="#191970" stroke="#191970" points="548.53,-120.308 537.978,-121.253 546.816,-127.095 548.53,-120.308"/>
</g>
<!-- Node16 -->
<g id="node16" class="node">
<title>Node16</title>
<g id="a_node16"><a xlink:href="cron_8h.html#ad014b7bf4eab144ea9fc5669d896714b" target="_top" xlink:title="clear_cron_jobs">
<polygon fill="#ffffff" stroke="#000000" points="607,-102.164 607,-121.164 694,-121.164 694,-102.164 607,-102.164"/>
<text text-anchor="middle" x="650.5" y="-109.164" font-family="Helvetica,sans-Serif" font-size="10.00" fill="#000000">clear_cron_jobs</text>
</a>
</g>
</g>
<!-- Node9&#45;&gt;Node16 -->
<g id="edge24" class="edge">
<title>Node9&#45;&gt;Node16</title>
<path fill="none" stroke="#191970" d="M558.459,-111.664C574.613,-111.664 591.855,-111.664 606.998,-111.664"/>
<polygon fill="#191970" stroke="#191970" points="558.033,-108.164 548.033,-111.664 558.033,-115.164 558.033,-108.164"/>
</g>
<!-- Node10&#45;&gt;Node6 -->
<g id="edge17" class="edge">
<title>Node10&#45;&gt;Node6</title>
<path fill="none" stroke="#191970" d="M706.876,-75.5681C825.877,-79.5877 1098.91,-88.8102 1185.87,-91.7475"/>
<polygon fill="#191970" stroke="#191970" points="706.644,-72.0584 696.532,-75.2187 706.408,-79.0544 706.644,-72.0584"/>
</g>
<!-- Node11 -->
<g id="node11" class="node">
<title>Node11</title>
<g id="a_node11"><a xlink:href="cron_8c.html#a2782af03df9b913cfa565a0770e1afe1" target="_top" xlink:title="minute_timer_func">
<polygon fill="#ffffff" stroke="#000000" points="753,-45.1639 753,-64.1639 852,-64.1639 852,-45.1639 753,-45.1639"/>
<text text-anchor="middle" x="802.5" y="-52.1639" font-family="Helvetica,sans-Serif" font-size="10.00" fill="#000000">minute_timer_func</text>
</a>
</g>
</g>
<!-- Node10&#45;&gt;Node11 -->
<g id="edge12" class="edge">
<title>Node10&#45;&gt;Node11</title>
<path fill="none" stroke="#191970" d="M706.788,-66.6279C721.929,-64.7352 738.191,-62.7025 752.937,-60.8593"/>
<polygon fill="#191970" stroke="#191970" points="706.006,-63.1983 696.518,-67.9117 706.874,-70.1442 706.006,-63.1983"/>
</g>
<!-- Node13 -->
<g id="node13" class="node">
<title>Node13</title>
<g id="a_node13"><a xlink:href="user__main_8h.html#a53fca5688835df983e3ff1a91d387618" target="_top" xlink:title="mqttDataCb">
<polygon fill="#ffffff" stroke="#000000" points="767.5,-121.164 767.5,-140.164 837.5,-140.164 837.5,-121.164 767.5,-121.164"/>
<text text-anchor="middle" x="802.5" y="-128.164" font-family="Helvetica,sans-Serif" font-size="10.00" fill="#000000">mqttDataCb</text>
</a>
</g>
</g>
<!-- Node10&#45;&gt;Node13 -->
<g id="edge15" class="edge">
<title>Node10&#45;&gt;Node13</title>
<path fill="none" stroke="#191970" d="M697.117,-86.0847C703.837,-88.1349 710.63,-90.3513 717,-92.6639 740.208,-101.09 765.999,-112.906 783.123,-121.117"/>
<polygon fill="#191970" stroke="#191970" points="697.962,-82.6851 687.38,-83.2081 695.979,-89.3982 697.962,-82.6851"/>
</g>
<!-- Node12 -->
<g id="node12" class="node">
<title>Node12</title>
<g id="a_node12"><a xlink:href="cron_8h.html#ae130c5973bad35b56776750c7a34db12" target="_top" xlink:title="cron_init">
<polygon fill="#ffffff" stroke="#000000" points="1076,-45.1639 1076,-64.1639 1130,-64.1639 1130,-45.1639 1076,-45.1639"/>
<text text-anchor="middle" x="1103" y="-52.1639" font-family="Helvetica,sans-Serif" font-size="10.00" fill="#000000">cron_init</text>
</a>
</g>
</g>
<!-- Node11&#45;&gt;Node12 -->
<g id="edge13" class="edge">
<title>Node11&#45;&gt;Node12</title>
<path fill="none" stroke="#191970" d="M862.209,-54.6639C927.065,-54.6639 1027.81,-54.6639 1075.8,-54.6639"/>
<polygon fill="#191970" stroke="#191970" points="862.121,-51.164 852.121,-54.6639 862.121,-58.164 862.121,-51.164"/>
</g>
<!-- Node12&#45;&gt;Node6 -->
<g id="edge14" class="edge">
<title>Node12&#45;&gt;Node6</title>
<path fill="none" stroke="#191970" d="M1139.72,-67.349C1154.76,-72.5431 1171.85,-78.4476 1185.74,-83.247"/>
<polygon fill="#191970" stroke="#191970" points="1140.79,-64.0142 1130.19,-64.0571 1138.5,-70.6306 1140.79,-64.0142"/>
</g>
<!-- Node13&#45;&gt;Node4 -->
<g id="edge16" class="edge">
<title>Node13&#45;&gt;Node4</title>
<path fill="none" stroke="#191970" d="M847.839,-130.664C860.403,-130.664 874.306,-130.664 887.798,-130.664"/>
<polygon fill="#191970" stroke="#191970" points="847.638,-127.164 837.638,-130.664 847.638,-134.164 847.638,-127.164"/>
</g>
<!-- Node14&#45;&gt;Node6 -->
<g id="edge21" class="edge">
<title>Node14&#45;&gt;Node6</title>
<path fill="none" stroke="#191970" d="M701.085,-24.1025C793.789,-5.37983 995.565,23.8312 1150,-35.6639 1174.77,-45.2082 1195.86,-69.5107 1206.19,-83.0992"/>
<polygon fill="#191970" stroke="#191970" points="700.213,-20.7087 691.128,-26.1587 701.629,-27.564 700.213,-20.7087"/>
</g>
<!-- Node14&#45;&gt;Node11 -->
<g id="edge19" class="edge">
<title>Node14&#45;&gt;Node11</title>
<path fill="none" stroke="#191970" d="M707.486,-42.7871C722.419,-44.6538 738.399,-46.6513 752.912,-48.4654"/>
<polygon fill="#191970" stroke="#191970" points="707.702,-39.287 697.345,-41.5195 706.834,-46.2329 707.702,-39.287"/>
</g>
<!-- Node14&#45;&gt;Node13 -->
<g id="edge20" class="edge">
<title>Node14&#45;&gt;Node13</title>
<path fill="none" stroke="#191970" d="M704.286,-48.7303C708.689,-50.4867 712.985,-52.4575 717,-54.6639 749.548,-72.5496 780.167,-104.858 794.308,-120.975"/>
<polygon fill="#191970" stroke="#191970" points="705.136,-45.3164 694.542,-45.2196 702.763,-51.902 705.136,-45.3164"/>
</g>
<!-- Node15&#45;&gt;Node13 -->
<g id="edge23" class="edge">
<title>Node15&#45;&gt;Node13</title>
<path fill="none" stroke="#191970" d="M727.312,-140.062C741.27,-138.318 755.191,-136.577 767.192,-135.077"/>
<polygon fill="#191970" stroke="#191970" points="726.658,-136.617 717.169,-141.33 727.526,-143.563 726.658,-136.617"/>
</g>
<!-- Node16&#45;&gt;Node13 -->
<g id="edge25" class="edge">
<title>Node16&#45;&gt;Node13</title>
<path fill="none" stroke="#191970" d="M704.09,-118.363C724.997,-120.976 748.39,-123.9 767.12,-126.241"/>
<polygon fill="#191970" stroke="#191970" points="704.414,-114.876 694.057,-117.109 703.546,-121.822 704.414,-114.876"/>
</g>
</g>
</svg>
