<?xml version="1.0" encoding="UTF-8" standalone="no"?>
<!DOCTYPE svg PUBLIC "-//W3C//DTD SVG 1.1//EN"
 "http://www.w3.org/Graphics/SVG/1.1/DTD/svg11.dtd">
<!-- Generated by graphviz version 2.39.20160927.1334 (20160927.1334)
 -->
<!-- Title: lib/heatshrink/greatest.h Pages: 1 -->
<svg width="250pt" height="95pt"
 viewBox="0.00 0.00 250.00 95.00" xmlns="http://www.w3.org/2000/svg" xmlns:xlink="http://www.w3.org/1999/xlink">
<g id="graph0" class="graph" transform="scale(1 1) rotate(0) translate(4 91)">
<title>lib/heatshrink/greatest.h</title>
<polygon fill="#ffffff" stroke="transparent" points="-4,4 -4,-91 246,-91 246,4 -4,4"/>
<!-- Node1 -->
<g id="node1" class="node">
<title>Node1</title>
<polygon fill="#bfbfbf" stroke="#000000" points="63,-67.5 63,-86.5 186,-86.5 186,-67.5 63,-67.5"/>
<text text-anchor="middle" x="124.5" y="-74.5" font-family="Helvetica,sans-Serif" font-size="10.00" fill="#000000">lib/heatshrink/greatest.h</text>
</g>
<!-- Node2 -->
<g id="node2" class="node">
<title>Node2</title>
<g id="a_node2"><a xlink:href="test__heatshrink__dynamic_8c.html" target="_top" xlink:title="lib/heatshrink/test\l_heatshrink_dynamic.c">
<polygon fill="#ffffff" stroke="#000000" points="0,-0.5 0,-30.5 119,-30.5 119,-0.5 0,-0.5"/>
<text text-anchor="start" x="8" y="-18.5" font-family="Helvetica,sans-Serif" font-size="10.00" fill="#000000">lib/heatshrink/test</text>
<text text-anchor="middle" x="59.5" y="-7.5" font-family="Helvetica,sans-Serif" font-size="10.00" fill="#000000">_heatshrink_dynamic.c</text>
</a>
</g>
</g>
<!-- Node1&#45;&gt;Node2 -->
<g id="edge1" class="edge">
<title>Node1&#45;&gt;Node2</title>
<path fill="none" stroke="#191970" d="M107.048,-60.4875C97.1988,-51.1689 84.9838,-39.6116 75.4008,-30.5446"/>
<polygon fill="#191970" stroke="#191970" points="104.674,-63.0602 114.344,-67.3906 109.485,-57.9754 104.674,-63.0602"/>
</g>
<!-- Node3 -->
<g id="node3" class="node">
<title>Node3</title>
<g id="a_node3"><a xlink:href="test__heatshrink__static_8c.html" target="_top" xlink:title="lib/heatshrink/test\l_heatshrink_static.c">
<polygon fill="#ffffff" stroke="#000000" points="137,-0.5 137,-30.5 242,-30.5 242,-0.5 137,-0.5"/>
<text text-anchor="start" x="145" y="-18.5" font-family="Helvetica,sans-Serif" font-size="10.00" fill="#000000">lib/heatshrink/test</text>
<text text-anchor="middle" x="189.5" y="-7.5" font-family="Helvetica,sans-Serif" font-size="10.00" fill="#000000">_heatshrink_static.c</text>
</a>
</g>
</g>
<!-- Node1&#45;&gt;Node3 -->
<g id="edge2" class="edge">
<title>Node1&#45;&gt;Node3</title>
<path fill="none" stroke="#191970" d="M141.952,-60.4875C151.801,-51.1689 164.016,-39.6116 173.599,-30.5446"/>
<polygon fill="#191970" stroke="#191970" points="139.515,-57.9754 134.656,-67.3906 144.326,-63.0602 139.515,-57.9754"/>
</g>
</g>
</svg>
