<?xml version="1.0" encoding="UTF-8" standalone="no"?>
<!DOCTYPE svg PUBLIC "-//W3C//DTD SVG 1.1//EN"
 "http://www.w3.org/Graphics/SVG/1.1/DTD/svg11.dtd">
<!-- Generated by graphviz version 2.41.20170323.1842 (20170323.1842)
 -->
<!-- Title: heatshrink_encoder_alloc Pages: 1 -->
<svg width="597pt" height="1074pt"
 viewBox="0.00 0.00 597.00 1073.50" xmlns="http://www.w3.org/2000/svg" xmlns:xlink="http://www.w3.org/1999/xlink">
<g id="graph0" class="graph" transform="scale(1 1) rotate(0) translate(4 1069.5)">
<title>heatshrink_encoder_alloc</title>
<polygon fill="#ffffff" stroke="transparent" points="-4,4 -4,-1069.5 593,-1069.5 593,4 -4,4"/>
<!-- Node333 -->
<g id="node1" class="node">
<title>Node333</title>
<polygon fill="#bfbfbf" stroke="#000000" points="0,-384 0,-414 104,-414 104,-384 0,-384"/>
<text text-anchor="start" x="8" y="-402" font-family="Helvetica,sans-Serif" font-size="10.00" fill="#000000">heatshrink_encoder</text>
<text text-anchor="middle" x="52" y="-391" font-family="Helvetica,sans-Serif" font-size="10.00" fill="#000000">_alloc</text>
</g>
<!-- Node334 -->
<g id="node2" class="node">
<title>Node334</title>
<g id="a_node2"><a xlink:href="test__heatshrink__dynamic_8c.html#ab9096be17a9dc8f301673949558e5bd6" target="_top" xlink:title="compress_and_expand\l_and_check">
<polygon fill="#ffffff" stroke="#000000" points="154,-843 154,-873 274,-873 274,-843 154,-843"/>
<text text-anchor="start" x="162" y="-861" font-family="Helvetica,sans-Serif" font-size="10.00" fill="#000000">compress_and_expand</text>
<text text-anchor="middle" x="214" y="-850" font-family="Helvetica,sans-Serif" font-size="10.00" fill="#000000">_and_check</text>
</a>
</g>
</g>
<!-- Node333&#45;&gt;Node334 -->
<g id="edge1" class="edge">
<title>Node333&#45;&gt;Node334</title>
<path fill="none" stroke="#191970" d="M57.4974,-424.01C69.5479,-477.2365 100.4018,-605.259 140,-708 159.6329,-758.9394 190.3387,-815.9576 205.2659,-842.6543"/>
<polygon fill="#191970" stroke="#191970" points="60.8802,-423.0993 55.2779,-414.1068 54.0497,-424.6302 60.8802,-423.0993"/>
</g>
<!-- Node343 -->
<g id="node11" class="node">
<title>Node343</title>
<g id="a_node11"><a xlink:href="test__heatshrink__dynamic_8c.html#acd64db79d79999a7c5436d35b74a7f40" target="_top" xlink:title="data_with_simple_repetition\l_should_match_with_absurdly\l_tiny_buffers">
<polygon fill="#ffffff" stroke="#000000" points="340,-678.5 340,-719.5 491,-719.5 491,-678.5 340,-678.5"/>
<text text-anchor="start" x="348" y="-707.5" font-family="Helvetica,sans-Serif" font-size="10.00" fill="#000000">data_with_simple_repetition</text>
<text text-anchor="start" x="348" y="-696.5" font-family="Helvetica,sans-Serif" font-size="10.00" fill="#000000">_should_match_with_absurdly</text>
<text text-anchor="middle" x="415.5" y="-685.5" font-family="Helvetica,sans-Serif" font-size="10.00" fill="#000000">_tiny_buffers</text>
</a>
</g>
</g>
<!-- Node333&#45;&gt;Node343 -->
<g id="edge16" class="edge">
<title>Node333&#45;&gt;Node343</title>
<path fill="none" stroke="#191970" d="M57.1265,-424.1506C69.6096,-482.8549 103.2666,-626.2674 140,-657 195.1055,-703.1033 278.9832,-709.8522 339.7103,-707.3906"/>
<polygon fill="#191970" stroke="#191970" points="60.5224,-423.291 55.046,-414.2213 53.6712,-424.7266 60.5224,-423.291"/>
</g>
<!-- Node344 -->
<g id="node12" class="node">
<title>Node344</title>
<g id="a_node12"><a xlink:href="test__heatshrink__dynamic_8c.html#a9a102029b8375d4050406a2814f390ac" target="_top" xlink:title="data_without_duplication\l_should_match_with_absurdly\l_tiny_buffers">
<polygon fill="#ffffff" stroke="#000000" points="340,-618.5 340,-659.5 491,-659.5 491,-618.5 340,-618.5"/>
<text text-anchor="start" x="348" y="-647.5" font-family="Helvetica,sans-Serif" font-size="10.00" fill="#000000">data_without_duplication</text>
<text text-anchor="start" x="348" y="-636.5" font-family="Helvetica,sans-Serif" font-size="10.00" fill="#000000">_should_match_with_absurdly</text>
<text text-anchor="middle" x="415.5" y="-625.5" font-family="Helvetica,sans-Serif" font-size="10.00" fill="#000000">_tiny_buffers</text>
</a>
</g>
</g>
<!-- Node333&#45;&gt;Node344 -->
<g id="edge18" class="edge">
<title>Node333&#45;&gt;Node344</title>
<path fill="none" stroke="#191970" d="M53.3105,-424.4892C57.3269,-473.0473 73.6515,-578.2254 140,-626 197.3151,-667.2701 280.0424,-665.2986 339.8711,-656.214"/>
<polygon fill="#191970" stroke="#191970" points="56.7812,-423.9519 52.5782,-414.2264 49.7989,-424.4502 56.7812,-423.9519"/>
</g>
<!-- Node345 -->
<g id="node13" class="node">
<title>Node345</title>
<g id="a_node13"><a xlink:href="heatshrink_8c.html#a37f19023beced8a782d3051bfd7a0bcb" target="_top" xlink:title="encode">
<polygon fill="#ffffff" stroke="#000000" points="189.5,-597.5 189.5,-616.5 238.5,-616.5 238.5,-597.5 189.5,-597.5"/>
<text text-anchor="middle" x="214" y="-604.5" font-family="Helvetica,sans-Serif" font-size="10.00" fill="#000000">encode</text>
</a>
</g>
</g>
<!-- Node333&#45;&gt;Node345 -->
<g id="edge20" class="edge">
<title>Node333&#45;&gt;Node345</title>
<path fill="none" stroke="#191970" d="M56.5405,-424.0894C65.2527,-464.7986 88.2454,-545.0074 140,-588 153.7738,-599.4419 173.5993,-604.0999 189.2635,-605.947"/>
<polygon fill="#191970" stroke="#191970" points="59.9488,-423.2851 54.5366,-414.1769 53.0876,-424.6722 59.9488,-423.2851"/>
</g>
<!-- Node347 -->
<g id="node15" class="node">
<title>Node347</title>
<g id="a_node15"><a xlink:href="test__heatshrink__dynamic_8c.html#a1f344a98b6deed4077a36c681d397f91" target="_top" xlink:title="encoder_alloc_should\l_reject_invalid_arguments">
<polygon fill="#ffffff" stroke="#000000" points="147.5,-548 147.5,-578 280.5,-578 280.5,-548 147.5,-548"/>
<text text-anchor="start" x="155.5" y="-566" font-family="Helvetica,sans-Serif" font-size="10.00" fill="#000000">encoder_alloc_should</text>
<text text-anchor="middle" x="214" y="-555" font-family="Helvetica,sans-Serif" font-size="10.00" fill="#000000">_reject_invalid_arguments</text>
</a>
</g>
</g>
<!-- Node333&#45;&gt;Node347 -->
<g id="edge22" class="edge">
<title>Node333&#45;&gt;Node347</title>
<path fill="none" stroke="#191970" d="M61.3058,-423.768C74.281,-455.0328 100.724,-508.4152 140,-539 144.369,-542.4022 149.2367,-545.3303 154.3312,-547.8488"/>
<polygon fill="#191970" stroke="#191970" points="64.3914,-422.0585 57.4227,-414.078 57.8937,-424.6623 64.3914,-422.0585"/>
</g>
<!-- Node349 -->
<g id="node17" class="node">
<title>Node349</title>
<g id="a_node17"><a xlink:href="test__heatshrink__dynamic_8c.html#a2d84dd546b011bb6cfc3b1e9a9a5616b" target="_top" xlink:title="encoder_poll_should\l_detect_repeated_substring">
<polygon fill="#ffffff" stroke="#000000" points="144,-499 144,-529 284,-529 284,-499 144,-499"/>
<text text-anchor="start" x="152" y="-517" font-family="Helvetica,sans-Serif" font-size="10.00" fill="#000000">encoder_poll_should</text>
<text text-anchor="middle" x="214" y="-506" font-family="Helvetica,sans-Serif" font-size="10.00" fill="#000000">_detect_repeated_substring</text>
</a>
</g>
</g>
<!-- Node333&#45;&gt;Node349 -->
<g id="edge24" class="edge">
<title>Node333&#45;&gt;Node349</title>
<path fill="none" stroke="#191970" d="M69.4867,-422.2927C85.7469,-442.4866 111.6705,-471.1908 140,-489 146.0847,-492.8251 152.8217,-496.1379 159.6801,-498.9866"/>
<polygon fill="#191970" stroke="#191970" points="72.0655,-419.91 63.1308,-414.2158 66.5644,-424.2389 72.0655,-419.91"/>
</g>
<!-- Node350 -->
<g id="node18" class="node">
<title>Node350</title>
<g id="a_node18"><a xlink:href="test__heatshrink__dynamic_8c.html#ab068727669a416029bacc708b2aac5ac" target="_top" xlink:title="encoder_poll_should\l_detect_repeated_substring\l_and_preserve_trailing_literal">
<polygon fill="#ffffff" stroke="#000000" points="140,-438.5 140,-479.5 288,-479.5 288,-438.5 140,-438.5"/>
<text text-anchor="start" x="148" y="-467.5" font-family="Helvetica,sans-Serif" font-size="10.00" fill="#000000">encoder_poll_should</text>
<text text-anchor="start" x="148" y="-456.5" font-family="Helvetica,sans-Serif" font-size="10.00" fill="#000000">_detect_repeated_substring</text>
<text text-anchor="middle" x="214" y="-445.5" font-family="Helvetica,sans-Serif" font-size="10.00" fill="#000000">_and_preserve_trailing_literal</text>
</a>
</g>
</g>
<!-- Node333&#45;&gt;Node350 -->
<g id="edge26" class="edge">
<title>Node333&#45;&gt;Node350</title>
<path fill="none" stroke="#191970" d="M102.4832,-417.6975C120.2423,-424.2749 140.2938,-431.7014 158.4471,-438.4249"/>
<polygon fill="#191970" stroke="#191970" points="103.4726,-414.3316 92.8794,-414.1405 101.0413,-420.8959 103.4726,-414.3316"/>
</g>
<!-- Node351 -->
<g id="node19" class="node">
<title>Node351</title>
<g id="a_node19"><a xlink:href="test__heatshrink__dynamic_8c.html#aa662e805dae6d002db06dc962e7440f9" target="_top" xlink:title="encoder_poll_should\l_indicate_when_no_input\l_is_provided">
<polygon fill="#ffffff" stroke="#000000" points="149,-378.5 149,-419.5 279,-419.5 279,-378.5 149,-378.5"/>
<text text-anchor="start" x="157" y="-407.5" font-family="Helvetica,sans-Serif" font-size="10.00" fill="#000000">encoder_poll_should</text>
<text text-anchor="start" x="157" y="-396.5" font-family="Helvetica,sans-Serif" font-size="10.00" fill="#000000">_indicate_when_no_input</text>
<text text-anchor="middle" x="214" y="-385.5" font-family="Helvetica,sans-Serif" font-size="10.00" fill="#000000">_is_provided</text>
</a>
</g>
</g>
<!-- Node333&#45;&gt;Node351 -->
<g id="edge28" class="edge">
<title>Node333&#45;&gt;Node351</title>
<path fill="none" stroke="#191970" d="M114.3635,-399C125.6719,-399 137.4927,-399 148.8779,-399"/>
<polygon fill="#191970" stroke="#191970" points="114.1496,-395.5001 104.1495,-399 114.1495,-402.5001 114.1496,-395.5001"/>
</g>
<!-- Node352 -->
<g id="node20" class="node">
<title>Node352</title>
<g id="a_node20"><a xlink:href="test__heatshrink__dynamic_8c.html#ade6da42ddec3e9a2d8fe58597792b843" target="_top" xlink:title="encoder_poll_should\l_reject_nulls">
<polygon fill="#ffffff" stroke="#000000" points="159.5,-329 159.5,-359 268.5,-359 268.5,-329 159.5,-329"/>
<text text-anchor="start" x="167.5" y="-347" font-family="Helvetica,sans-Serif" font-size="10.00" fill="#000000">encoder_poll_should</text>
<text text-anchor="middle" x="214" y="-336" font-family="Helvetica,sans-Serif" font-size="10.00" fill="#000000">_reject_nulls</text>
</a>
</g>
</g>
<!-- Node333&#45;&gt;Node352 -->
<g id="edge30" class="edge">
<title>Node333&#45;&gt;Node352</title>
<path fill="none" stroke="#191970" d="M106.0098,-380.5614C117.2422,-376.7341 129.0056,-372.7312 140,-369 149.5025,-365.7751 159.6946,-362.3257 169.3836,-359.051"/>
<polygon fill="#191970" stroke="#191970" points="104.6443,-377.329 96.3084,-383.8683 106.9029,-383.9547 104.6443,-377.329"/>
</g>
<!-- Node353 -->
<g id="node21" class="node">
<title>Node353</title>
<g id="a_node21"><a xlink:href="test__heatshrink__dynamic_8c.html#a5339595930b85317e810fcf251b86351" target="_top" xlink:title="encoder_should_emit\l_data_without_repetitions\l_as_literal_sequence">
<polygon fill="#ffffff" stroke="#000000" points="149,-268.5 149,-309.5 279,-309.5 279,-268.5 149,-268.5"/>
<text text-anchor="start" x="157" y="-297.5" font-family="Helvetica,sans-Serif" font-size="10.00" fill="#000000">encoder_should_emit</text>
<text text-anchor="start" x="157" y="-286.5" font-family="Helvetica,sans-Serif" font-size="10.00" fill="#000000">_data_without_repetitions</text>
<text text-anchor="middle" x="214" y="-275.5" font-family="Helvetica,sans-Serif" font-size="10.00" fill="#000000">_as_literal_sequence</text>
</a>
</g>
</g>
<!-- Node333&#45;&gt;Node353 -->
<g id="edge32" class="edge">
<title>Node333&#45;&gt;Node353</title>
<path fill="none" stroke="#191970" d="M72.8578,-376.5441C89.7163,-359.3683 114.7236,-335.9929 140,-320 145.8854,-316.2762 152.2946,-312.8245 158.7986,-309.6805"/>
<polygon fill="#191970" stroke="#191970" points="70.1371,-374.3232 65.7138,-383.9506 75.1754,-379.1829 70.1371,-374.3232"/>
</g>
<!-- Node354 -->
<g id="node22" class="node">
<title>Node354</title>
<g id="a_node22"><a xlink:href="test__heatshrink__dynamic_8c.html#ae27157a664552fa0744d095239ee0d88" target="_top" xlink:title="encoder_should_emit\l_series_of_same_byte\l_as_literal_then_backref">
<polygon fill="#ffffff" stroke="#000000" points="151.5,-208.5 151.5,-249.5 276.5,-249.5 276.5,-208.5 151.5,-208.5"/>
<text text-anchor="start" x="159.5" y="-237.5" font-family="Helvetica,sans-Serif" font-size="10.00" fill="#000000">encoder_should_emit</text>
<text text-anchor="start" x="159.5" y="-226.5" font-family="Helvetica,sans-Serif" font-size="10.00" fill="#000000">_series_of_same_byte</text>
<text text-anchor="middle" x="214" y="-215.5" font-family="Helvetica,sans-Serif" font-size="10.00" fill="#000000">_as_literal_then_backref</text>
</a>
</g>
</g>
<!-- Node333&#45;&gt;Node354 -->
<g id="edge34" class="edge">
<title>Node333&#45;&gt;Node354</title>
<path fill="none" stroke="#191970" d="M61.8638,-374.184C75.2815,-343.3134 102.0406,-290.8041 140,-259 144.1442,-255.5278 148.7431,-252.4173 153.5621,-249.6389"/>
<polygon fill="#191970" stroke="#191970" points="58.4855,-373.188 57.828,-383.7624 64.9363,-375.906 58.4855,-373.188"/>
</g>
<!-- Node355 -->
<g id="node23" class="node">
<title>Node355</title>
<g id="a_node23"><a xlink:href="test__heatshrink__dynamic_8c.html#a1c4dab770a7df0935018c3a685f5b1ff" target="_top" xlink:title="encoder_sink_should\l_accept_input_when_it\l_will_fit">
<polygon fill="#ffffff" stroke="#000000" points="154.5,-148.5 154.5,-189.5 273.5,-189.5 273.5,-148.5 154.5,-148.5"/>
<text text-anchor="start" x="162.5" y="-177.5" font-family="Helvetica,sans-Serif" font-size="10.00" fill="#000000">encoder_sink_should</text>
<text text-anchor="start" x="162.5" y="-166.5" font-family="Helvetica,sans-Serif" font-size="10.00" fill="#000000">_accept_input_when_it</text>
<text text-anchor="middle" x="214" y="-155.5" font-family="Helvetica,sans-Serif" font-size="10.00" fill="#000000">_will_fit</text>
</a>
</g>
</g>
<!-- Node333&#45;&gt;Node355 -->
<g id="edge36" class="edge">
<title>Node333&#45;&gt;Node355</title>
<path fill="none" stroke="#191970" d="M56.6782,-373.8433C65.6753,-332.1273 89.1783,-248.3516 140,-199 144.2765,-194.8472 149.2041,-191.2431 154.4435,-188.1205"/>
<polygon fill="#191970" stroke="#191970" points="53.2309,-373.2313 54.65,-383.7307 60.0881,-374.638 53.2309,-373.2313"/>
</g>
<!-- Node356 -->
<g id="node24" class="node">
<title>Node356</title>
<g id="a_node24"><a xlink:href="test__heatshrink__dynamic_8c.html#a73ee2ec6f21d5e0ce0e34902a1aebccb" target="_top" xlink:title="encoder_sink_should\l_accept_partial_input\l_when_some_will_fit">
<polygon fill="#ffffff" stroke="#000000" points="158,-88.5 158,-129.5 270,-129.5 270,-88.5 158,-88.5"/>
<text text-anchor="start" x="166" y="-117.5" font-family="Helvetica,sans-Serif" font-size="10.00" fill="#000000">encoder_sink_should</text>
<text text-anchor="start" x="166" y="-106.5" font-family="Helvetica,sans-Serif" font-size="10.00" fill="#000000">_accept_partial_input</text>
<text text-anchor="middle" x="214" y="-95.5" font-family="Helvetica,sans-Serif" font-size="10.00" fill="#000000">_when_some_will_fit</text>
</a>
</g>
</g>
<!-- Node333&#45;&gt;Node356 -->
<g id="edge38" class="edge">
<title>Node333&#45;&gt;Node356</title>
<path fill="none" stroke="#191970" d="M53.7024,-373.7703C58.4444,-322.841 76.0407,-206.8351 140,-139 145.0404,-133.6542 151.1655,-129.236 157.7102,-125.5906"/>
<polygon fill="#191970" stroke="#191970" points="50.2022,-373.6275 52.853,-383.8854 57.1776,-374.2134 50.2022,-373.6275"/>
</g>
<!-- Node357 -->
<g id="node25" class="node">
<title>Node357</title>
<g id="a_node25"><a xlink:href="test__heatshrink__dynamic_8c.html#a9b30a495760400a59637e7d708e63ae0" target="_top" xlink:title="encoder_sink_should\l_reject_nulls">
<polygon fill="#ffffff" stroke="#000000" points="158.5,-39 158.5,-69 269.5,-69 269.5,-39 158.5,-39"/>
<text text-anchor="start" x="166.5" y="-57" font-family="Helvetica,sans-Serif" font-size="10.00" fill="#000000">encoder_sink_should</text>
<text text-anchor="middle" x="214" y="-46" font-family="Helvetica,sans-Serif" font-size="10.00" fill="#000000">_reject_nulls</text>
</a>
</g>
</g>
<!-- Node333&#45;&gt;Node357 -->
<g id="edge40" class="edge">
<title>Node333&#45;&gt;Node357</title>
<path fill="none" stroke="#191970" d="M55.8675,-373.5276C66.6506,-305.619 98.9709,-122.4559 140,-79 145.1202,-73.5769 151.456,-69.3301 158.2488,-66.0045"/>
<polygon fill="#191970" stroke="#191970" points="52.3555,-373.3329 54.2691,-383.7534 59.2715,-374.414 52.3555,-373.3329"/>
</g>
<!-- Node358 -->
<g id="node26" class="node">
<title>Node358</title>
<g id="a_node26"><a xlink:href="test__heatshrink__dynamic_8c.html#a6627d0e00f7e636ae9294cc6255c7ffd" target="_top" xlink:title="gen">
<polygon fill="#ffffff" stroke="#000000" points="197.5,-.5 197.5,-19.5 230.5,-19.5 230.5,-.5 197.5,-.5"/>
<text text-anchor="middle" x="214" y="-7.5" font-family="Helvetica,sans-Serif" font-size="10.00" fill="#000000">gen</text>
</a>
</g>
</g>
<!-- Node333&#45;&gt;Node358 -->
<g id="edge42" class="edge">
<title>Node333&#45;&gt;Node358</title>
<path fill="none" stroke="#191970" d="M54.6061,-373.9618C62.8985,-299.0596 91.047,-78.8336 140,-29 155.058,-13.6712 180.6916,-10.1343 197.4861,-9.6037"/>
<polygon fill="#191970" stroke="#191970" points="51.1247,-373.6019 53.5266,-383.9209 58.0839,-374.3563 51.1247,-373.6019"/>
</g>
<!-- Node335 -->
<g id="node3" class="node">
<title>Node335</title>
<g id="a_node3"><a xlink:href="test__heatshrink__dynamic_8c.html#a9d63746ee6a963338d09b8a19da82529" target="_top" xlink:title="data_without_duplication\l_should_match">
<polygon fill="#ffffff" stroke="#000000" points="352,-1035 352,-1065 479,-1065 479,-1035 352,-1035"/>
<text text-anchor="start" x="360" y="-1053" font-family="Helvetica,sans-Serif" font-size="10.00" fill="#000000">data_without_duplication</text>
<text text-anchor="middle" x="415.5" y="-1042" font-family="Helvetica,sans-Serif" font-size="10.00" fill="#000000">_should_match</text>
</a>
</g>
</g>
<!-- Node334&#45;&gt;Node335 -->
<g id="edge2" class="edge">
<title>Node334&#45;&gt;Node335</title>
<path fill="none" stroke="#191970" d="M223.4647,-882.5566C238.8707,-919.2216 272.8808,-987.9215 324,-1025 332.2648,-1030.9947 341.8932,-1035.5521 351.74,-1039.0168"/>
<polygon fill="#191970" stroke="#191970" points="226.6321,-881.0547 219.614,-873.1176 220.1506,-883.6988 226.6321,-881.0547"/>
</g>
<!-- Node337 -->
<g id="node5" class="node">
<title>Node337</title>
<g id="a_node5"><a xlink:href="test__heatshrink__dynamic_8c.html#ae9d1425d6c89a652b9df2b4ddc7ac2a2" target="_top" xlink:title="data_with_simple_repetition\l_should_compress_and_decompress\l_properly">
<polygon fill="#ffffff" stroke="#000000" points="324,-974.5 324,-1015.5 507,-1015.5 507,-974.5 324,-974.5"/>
<text text-anchor="start" x="332" y="-1003.5" font-family="Helvetica,sans-Serif" font-size="10.00" fill="#000000">data_with_simple_repetition</text>
<text text-anchor="start" x="332" y="-992.5" font-family="Helvetica,sans-Serif" font-size="10.00" fill="#000000">_should_compress_and_decompress</text>
<text text-anchor="middle" x="415.5" y="-981.5" font-family="Helvetica,sans-Serif" font-size="10.00" fill="#000000">_properly</text>
</a>
</g>
</g>
<!-- Node334&#45;&gt;Node337 -->
<g id="edge4" class="edge">
<title>Node334&#45;&gt;Node337</title>
<path fill="none" stroke="#191970" d="M232.3664,-881.2886C252.4934,-905.3748 286.8916,-942.5438 324,-965 329.721,-968.4621 335.8881,-971.5747 342.2221,-974.3625"/>
<polygon fill="#191970" stroke="#191970" points="234.9102,-878.8711 225.8614,-873.3602 229.4986,-883.3112 234.9102,-878.8711"/>
</g>
<!-- Node338 -->
<g id="node6" class="node">
<title>Node338</title>
<g id="a_node6"><a xlink:href="test__heatshrink__dynamic_8c.html#a60c0e0c5bbb9715c7932ee82e706752d" target="_top" xlink:title="pseudorandom_data_should\l_match">
<polygon fill="#ffffff" stroke="#000000" points="344,-925 344,-955 487,-955 487,-925 344,-925"/>
<text text-anchor="start" x="352" y="-943" font-family="Helvetica,sans-Serif" font-size="10.00" fill="#000000">pseudorandom_data_should</text>
<text text-anchor="middle" x="415.5" y="-932" font-family="Helvetica,sans-Serif" font-size="10.00" fill="#000000">_match</text>
</a>
</g>
</g>
<!-- Node334&#45;&gt;Node338 -->
<g id="edge6" class="edge">
<title>Node334&#45;&gt;Node338</title>
<path fill="none" stroke="#191970" d="M248.4584,-878.2569C269.7102,-890.1376 297.822,-904.7742 324,-915 333.3567,-918.655 343.4496,-921.9876 353.3965,-924.944"/>
<polygon fill="#191970" stroke="#191970" points="249.9295,-875.0678 239.503,-873.1868 246.4808,-881.1593 249.9295,-875.0678"/>
</g>
<!-- Node339 -->
<g id="node7" class="node">
<title>Node339</title>
<g id="a_node7"><a xlink:href="test__heatshrink__dynamic_8c.html#a20e1a72bba941f0c602b93b53d32d5db" target="_top" xlink:title="small_input_buffer\l_should_not_impact_decoder\l_correctness">
<polygon fill="#ffffff" stroke="#000000" points="341.5,-864.5 341.5,-905.5 489.5,-905.5 489.5,-864.5 341.5,-864.5"/>
<text text-anchor="start" x="349.5" y="-893.5" font-family="Helvetica,sans-Serif" font-size="10.00" fill="#000000">small_input_buffer</text>
<text text-anchor="start" x="349.5" y="-882.5" font-family="Helvetica,sans-Serif" font-size="10.00" fill="#000000">_should_not_impact_decoder</text>
<text text-anchor="middle" x="415.5" y="-871.5" font-family="Helvetica,sans-Serif" font-size="10.00" fill="#000000">_correctness</text>
</a>
</g>
</g>
<!-- Node334&#45;&gt;Node339 -->
<g id="edge8" class="edge">
<title>Node334&#45;&gt;Node339</title>
<path fill="none" stroke="#191970" d="M284.2681,-867.4156C302.7315,-869.8896 322.7026,-872.5656 341.3619,-875.0659"/>
<polygon fill="#191970" stroke="#191970" points="284.56,-863.9235 274.1837,-866.0643 283.6303,-870.8615 284.56,-863.9235"/>
</g>
<!-- Node340 -->
<g id="node8" class="node">
<title>Node340</title>
<g id="a_node8"><a xlink:href="test__heatshrink__dynamic_8c.html#a462faeb904a3de1b1e009a04f7d171d8" target="_top" xlink:title="regression_backreference\l_counters_should_not_roll_over">
<polygon fill="#ffffff" stroke="#000000" points="336,-815 336,-845 495,-845 495,-815 336,-815"/>
<text text-anchor="start" x="344" y="-833" font-family="Helvetica,sans-Serif" font-size="10.00" fill="#000000">regression_backreference</text>
<text text-anchor="middle" x="415.5" y="-822" font-family="Helvetica,sans-Serif" font-size="10.00" fill="#000000">_counters_should_not_roll_over</text>
</a>
</g>
</g>
<!-- Node334&#45;&gt;Node340 -->
<g id="edge10" class="edge">
<title>Node334&#45;&gt;Node340</title>
<path fill="none" stroke="#191970" d="M284.3639,-848.2224C300.9965,-845.9112 318.8481,-843.4305 335.859,-841.0667"/>
<polygon fill="#191970" stroke="#191970" points="283.6068,-844.7939 274.1837,-849.637 284.5703,-851.7273 283.6068,-844.7939"/>
</g>
<!-- Node341 -->
<g id="node9" class="node">
<title>Node341</title>
<g id="a_node9"><a xlink:href="test__heatshrink__dynamic_8c.html#a2ed8ea21768d114fa96b07eb58475663" target="_top" xlink:title="regression_index_fail">
<polygon fill="#ffffff" stroke="#000000" points="360,-776.5 360,-795.5 471,-795.5 471,-776.5 360,-776.5"/>
<text text-anchor="middle" x="415.5" y="-783.5" font-family="Helvetica,sans-Serif" font-size="10.00" fill="#000000">regression_index_fail</text>
</a>
</g>
</g>
<!-- Node334&#45;&gt;Node341 -->
<g id="edge12" class="edge">
<title>Node334&#45;&gt;Node341</title>
<path fill="none" stroke="#191970" d="M250.2115,-838.332C271.2591,-827.554 298.5707,-814.6645 324,-806 336.1593,-801.8569 349.5276,-798.3663 362.2008,-795.52"/>
<polygon fill="#191970" stroke="#191970" points="248.5666,-835.2424 241.3055,-842.9577 251.7931,-841.4545 248.5666,-835.2424"/>
</g>
<!-- Node342 -->
<g id="node10" class="node">
<title>Node342</title>
<g id="a_node10"><a xlink:href="test__heatshrink__dynamic_8c.html#a1bfe72da903d55a8610433a4f2a60d43" target="_top" xlink:title="sixty_four_k">
<polygon fill="#ffffff" stroke="#000000" points="380.5,-738.5 380.5,-757.5 450.5,-757.5 450.5,-738.5 380.5,-738.5"/>
<text text-anchor="middle" x="415.5" y="-745.5" font-family="Helvetica,sans-Serif" font-size="10.00" fill="#000000">sixty_four_k</text>
</a>
</g>
</g>
<!-- Node334&#45;&gt;Node342 -->
<g id="edge14" class="edge">
<title>Node334&#45;&gt;Node342</title>
<path fill="none" stroke="#191970" d="M234.641,-835.5163C255.2276,-814.51 288.7835,-783.9224 324,-767 341.5483,-758.5676 362.75,-753.8658 380.3243,-751.2499"/>
<polygon fill="#191970" stroke="#191970" points="232.0678,-833.1427 227.6641,-842.779 237.1159,-837.9921 232.0678,-833.1427"/>
</g>
<!-- Node336 -->
<g id="node4" class="node">
<title>Node336</title>
<g id="a_node4"><a xlink:href="test__heatshrink__dynamic_8c.html#a2f157eb23cb17a496326c14e12933b3b" target="_top" xlink:title="SUITE">
<polygon fill="#ffffff" stroke="#000000" points="543,-820.5 543,-839.5 589,-839.5 589,-820.5 543,-820.5"/>
<text text-anchor="middle" x="566" y="-827.5" font-family="Helvetica,sans-Serif" font-size="10.00" fill="#000000">SUITE</text>
</a>
</g>
</g>
<!-- Node335&#45;&gt;Node336 -->
<g id="edge3" class="edge">
<title>Node335&#45;&gt;Node336</title>
<path fill="none" stroke="#191970" d="M488.521,-1037.6613C495.3142,-1034.3611 501.6453,-1030.2116 507,-1025 534.628,-998.1106 557.9864,-875.6113 564.3122,-839.8367"/>
<polygon fill="#191970" stroke="#191970" points="486.882,-1034.5536 479.0196,-1041.6552 489.5946,-1041.0067 486.882,-1034.5536"/>
</g>
<!-- Node337&#45;&gt;Node336 -->
<g id="edge5" class="edge">
<title>Node337&#45;&gt;Node336</title>
<path fill="none" stroke="#191970" d="M502.9054,-968.4535C504.3148,-967.3488 505.6818,-966.1983 507,-965 545.7993,-929.729 560.2929,-864.3779 564.5278,-839.7394"/>
<polygon fill="#191970" stroke="#191970" points="500.6708,-965.7424 494.4131,-974.2918 504.6364,-971.5108 500.6708,-965.7424"/>
</g>
<!-- Node338&#45;&gt;Node336 -->
<g id="edge7" class="edge">
<title>Node338&#45;&gt;Node336</title>
<path fill="none" stroke="#191970" d="M496.5153,-921.3824C500.1723,-919.4601 503.6908,-917.3394 507,-915 535.1631,-895.0903 554.269,-857.2326 562.0618,-839.5482"/>
<polygon fill="#191970" stroke="#191970" points="494.7454,-918.3467 487.18,-925.764 497.7196,-924.6835 494.7454,-918.3467"/>
</g>
<!-- Node339&#45;&gt;Node336 -->
<g id="edge9" class="edge">
<title>Node339&#45;&gt;Node336</title>
<path fill="none" stroke="#191970" d="M490.2881,-861.0525C495.9628,-859.0606 501.5851,-857.0308 507,-855 519.6036,-850.2731 533.4737,-844.4295 544.5974,-839.5808"/>
<polygon fill="#191970" stroke="#191970" points="489.0227,-857.7867 480.7157,-864.3626 491.3104,-864.4023 489.0227,-857.7867"/>
</g>
<!-- Node340&#45;&gt;Node336 -->
<g id="edge11" class="edge">
<title>Node340&#45;&gt;Node336</title>
<path fill="none" stroke="#191970" d="M505.3379,-830C519.1921,-830 532.3603,-830 542.8656,-830"/>
<polygon fill="#191970" stroke="#191970" points="505.157,-826.5001 495.1569,-830 505.1569,-833.5001 505.157,-826.5001"/>
</g>
<!-- Node341&#45;&gt;Node336 -->
<g id="edge13" class="edge">
<title>Node341&#45;&gt;Node336</title>
<path fill="none" stroke="#191970" d="M476.7872,-797.8744C486.9559,-800.2784 497.3322,-803.0013 507,-806 519.8853,-809.9967 533.8889,-815.6347 545.0185,-820.442"/>
<polygon fill="#191970" stroke="#191970" points="477.2497,-794.3901 466.7217,-795.5784 475.6929,-801.2148 477.2497,-794.3901"/>
</g>
<!-- Node342&#45;&gt;Node336 -->
<g id="edge15" class="edge">
<title>Node342&#45;&gt;Node336</title>
<path fill="none" stroke="#191970" d="M460.6072,-751.7816C476.0482,-754.4918 492.9569,-759.118 507,-767 530.5213,-780.2019 550.1345,-805.9848 559.7067,-820.1299"/>
<polygon fill="#191970" stroke="#191970" points="461.1326,-748.3213 450.7171,-750.2624 460.0697,-755.2402 461.1326,-748.3213"/>
</g>
<!-- Node343&#45;&gt;Node336 -->
<g id="edge17" class="edge">
<title>Node343&#45;&gt;Node336</title>
<path fill="none" stroke="#191970" d="M499.9163,-723.8553C502.3746,-725.4653 504.7445,-727.1781 507,-729 538.1205,-754.1385 556.2831,-800.3973 563.002,-820.3844"/>
<polygon fill="#191970" stroke="#191970" points="501.6497,-720.8143 491.2544,-718.7677 498.1045,-726.8502 501.6497,-720.8143"/>
</g>
<!-- Node344&#45;&gt;Node336 -->
<g id="edge19" class="edge">
<title>Node344&#45;&gt;Node336</title>
<path fill="none" stroke="#191970" d="M499.9812,-663.0697C502.4515,-664.9033 504.8021,-666.8765 507,-669 551.9595,-712.4372 562.8591,-792.9492 565.3246,-820.4807"/>
<polygon fill="#191970" stroke="#191970" points="501.4643,-659.8602 491.1691,-657.3584 497.6571,-665.7343 501.4643,-659.8602"/>
</g>
<!-- Node346 -->
<g id="node14" class="node">
<title>Node346</title>
<g id="a_node14"><a xlink:href="heatshrink_8c.html#a3c04138a5bfe5d72780bb7e82a18e627" target="_top" xlink:title="main">
<polygon fill="#ffffff" stroke="#000000" points="396.5,-580.5 396.5,-599.5 434.5,-599.5 434.5,-580.5 396.5,-580.5"/>
<text text-anchor="middle" x="415.5" y="-587.5" font-family="Helvetica,sans-Serif" font-size="10.00" fill="#000000">main</text>
</a>
</g>
</g>
<!-- Node345&#45;&gt;Node346 -->
<g id="edge21" class="edge">
<title>Node345&#45;&gt;Node346</title>
<path fill="none" stroke="#191970" d="M248.924,-604.0536C291.6429,-600.4495 362.4415,-594.4764 396.3048,-591.6194"/>
<polygon fill="#191970" stroke="#191970" points="248.3782,-600.5871 238.7079,-604.9155 248.9667,-607.5623 248.3782,-600.5871"/>
</g>
<!-- Node348 -->
<g id="node16" class="node">
<title>Node348</title>
<g id="a_node16"><a xlink:href="test__heatshrink__dynamic_8c.html#ac4a70b7ac22f00448c1d17d2b29a1359" target="_top" xlink:title="SUITE">
<polygon fill="#ffffff" stroke="#000000" points="392.5,-306.5 392.5,-325.5 438.5,-325.5 438.5,-306.5 392.5,-306.5"/>
<text text-anchor="middle" x="415.5" y="-313.5" font-family="Helvetica,sans-Serif" font-size="10.00" fill="#000000">SUITE</text>
</a>
</g>
</g>
<!-- Node347&#45;&gt;Node348 -->
<g id="edge23" class="edge">
<title>Node347&#45;&gt;Node348</title>
<path fill="none" stroke="#191970" d="M283.0879,-542.635C284.786,-541.4883 286.4279,-540.2778 288,-539 363.0959,-477.9599 402.4922,-360.1716 412.7529,-325.6997"/>
<polygon fill="#191970" stroke="#191970" points="281.0467,-539.7744 274.1912,-547.8523 284.5879,-545.8127 281.0467,-539.7744"/>
</g>
<!-- Node349&#45;&gt;Node348 -->
<g id="edge25" class="edge">
<title>Node349&#45;&gt;Node348</title>
<path fill="none" stroke="#191970" d="M279.6949,-494.3469C282.5857,-492.6985 285.3717,-490.9193 288,-489 351.5777,-442.5729 396.9669,-355.1528 410.9596,-325.8537"/>
<polygon fill="#191970" stroke="#191970" points="278.0744,-491.2444 270.7602,-498.9095 281.258,-497.4786 278.0744,-491.2444"/>
</g>
<!-- Node350&#45;&gt;Node348 -->
<g id="edge27" class="edge">
<title>Node350&#45;&gt;Node348</title>
<path fill="none" stroke="#191970" d="M279.8523,-433.7132C282.6465,-432.2 285.3751,-430.6281 288,-429 338.0197,-397.9758 387.318,-346.9028 406.7913,-325.6974"/>
<polygon fill="#191970" stroke="#191970" points="278.077,-430.6894 270.7509,-438.3431 281.2509,-436.9285 278.077,-430.6894"/>
</g>
<!-- Node351&#45;&gt;Node348 -->
<g id="edge29" class="edge">
<title>Node351&#45;&gt;Node348</title>
<path fill="none" stroke="#191970" d="M274.4188,-374.5568C279.0164,-372.6812 283.5837,-370.8131 288,-369 324.5899,-353.9785 366.9792,-336.3034 392.492,-325.6355"/>
<polygon fill="#191970" stroke="#191970" points="272.9186,-371.3886 264.9774,-378.402 275.5589,-377.8716 272.9186,-371.3886"/>
</g>
<!-- Node352&#45;&gt;Node348 -->
<g id="edge31" class="edge">
<title>Node352&#45;&gt;Node348</title>
<path fill="none" stroke="#191970" d="M278.7481,-335.0027C317.6802,-329.5928 364.8705,-323.0354 392.4069,-319.209"/>
<polygon fill="#191970" stroke="#191970" points="277.9519,-331.5797 268.5288,-336.4228 278.9154,-338.5131 277.9519,-331.5797"/>
</g>
<!-- Node353&#45;&gt;Node348 -->
<g id="edge33" class="edge">
<title>Node353&#45;&gt;Node348</title>
<path fill="none" stroke="#191970" d="M289.3249,-299.0932C325.937,-303.999 367.3419,-309.5471 392.4245,-312.908"/>
<polygon fill="#191970" stroke="#191970" points="289.5193,-295.588 279.143,-297.7288 288.5896,-302.526 289.5193,-295.588"/>
</g>
<!-- Node354&#45;&gt;Node348 -->
<g id="edge35" class="edge">
<title>Node354&#45;&gt;Node348</title>
<path fill="none" stroke="#191970" d="M274.7106,-253.4109C279.2154,-255.2838 283.6838,-257.161 288,-259 325.9208,-275.1571 369.7029,-294.9914 394.8394,-306.4941"/>
<polygon fill="#191970" stroke="#191970" points="276.0286,-250.1685 265.4498,-249.5857 273.3562,-256.6383 276.0286,-250.1685"/>
</g>
<!-- Node355&#45;&gt;Node348 -->
<g id="edge37" class="edge">
<title>Node355&#45;&gt;Node348</title>
<path fill="none" stroke="#191970" d="M279.8877,-194.2302C282.6724,-195.7587 285.3893,-197.3493 288,-199 338.7857,-231.1109 388.0386,-284.4596 407.1565,-306.2632"/>
<polygon fill="#191970" stroke="#191970" points="281.3038,-191.0227 270.81,-189.5625 278.1028,-197.248 281.3038,-191.0227"/>
</g>
<!-- Node356&#45;&gt;Node348 -->
<g id="edge39" class="edge">
<title>Node356&#45;&gt;Node348</title>
<path fill="none" stroke="#191970" d="M278.7973,-132.6167C282.0128,-134.5997 285.1043,-136.7253 288,-139 350.8397,-188.3623 396.7075,-276.5965 410.8912,-306.0911"/>
<polygon fill="#191970" stroke="#191970" points="280.4776,-129.5462 270.0455,-127.6962 277.047,-135.648 280.4776,-129.5462"/>
</g>
<!-- Node357&#45;&gt;Node348 -->
<g id="edge41" class="edge">
<title>Node357&#45;&gt;Node348</title>
<path fill="none" stroke="#191970" d="M278.7691,-72.4174C282.0328,-74.3954 285.1385,-76.5824 288,-79 365.8029,-144.7343 403.5555,-270.3775 413.049,-306.2294"/>
<polygon fill="#191970" stroke="#191970" points="280.2916,-69.2629 269.8195,-67.655 277.0032,-75.4425 280.2916,-69.2629"/>
</g>
<!-- Node359 -->
<g id="node27" class="node">
<title>Node359</title>
<g id="a_node27"><a xlink:href="test__heatshrink__dynamic_8c.html#adc66afa12a5eaae0cd12d5cc497f0f67" target="_top" xlink:title="SUITE">
<polygon fill="#ffffff" stroke="#000000" points="392.5,-.5 392.5,-19.5 438.5,-19.5 438.5,-.5 392.5,-.5"/>
<text text-anchor="middle" x="415.5" y="-7.5" font-family="Helvetica,sans-Serif" font-size="10.00" fill="#000000">SUITE</text>
</a>
</g>
</g>
<!-- Node358&#45;&gt;Node359 -->
<g id="edge43" class="edge">
<title>Node358&#45;&gt;Node359</title>
<path fill="none" stroke="#191970" d="M240.8872,-10C280.7831,-10 354.973,-10 392.4966,-10"/>
<polygon fill="#191970" stroke="#191970" points="240.8332,-6.5001 230.8332,-10 240.8332,-13.5001 240.8332,-6.5001"/>
</g>
</g>
</svg>
