<?xml version="1.0" encoding="UTF-8" standalone="no"?>
<!DOCTYPE svg PUBLIC "-//W3C//DTD SVG 1.1//EN"
 "http://www.w3.org/Graphics/SVG/1.1/DTD/svg11.dtd">
<!-- Generated by graphviz version 2.40.1 (20161225.0304)
 -->
<!-- Title: lib/heatshrink/heatshrink.c Pages: 1 -->
<svg width="713pt" height="476pt"
 viewBox="0.00 0.00 712.50 476.00" xmlns="http://www.w3.org/2000/svg" xmlns:xlink="http://www.w3.org/1999/xlink">
<g id="graph0" class="graph" transform="scale(1 1) rotate(0) translate(4 472)">
<title>lib/heatshrink/heatshrink.c</title>
<polygon fill="#ffffff" stroke="transparent" points="-4,4 -4,-472 708.5,-472 708.5,4 -4,4"/>
<!-- Node0 -->
<g id="node1" class="node">
<title>Node0</title>
<polygon fill="#bfbfbf" stroke="#000000" points="223,-448.5 223,-467.5 355,-467.5 355,-448.5 223,-448.5"/>
<text text-anchor="middle" x="289" y="-455.5" font-family="Helvetica,sans-Serif" font-size="10.00" fill="#000000">lib/heatshrink/heatshrink.c</text>
</g>
<!-- Node1 -->
<g id="node2" class="node">
<title>Node1</title>
<polygon fill="#ffffff" stroke="#bfbfbf" points="0,-392.5 0,-411.5 48,-411.5 48,-392.5 0,-392.5"/>
<text text-anchor="middle" x="24" y="-399.5" font-family="Helvetica,sans-Serif" font-size="10.00" fill="#000000">stdlib.h</text>
</g>
<!-- Node0&#45;&gt;Node1 -->
<g id="edge1" class="edge">
<title>Node0&#45;&gt;Node1</title>
<path fill="none" stroke="#191970" d="M232.8728,-448.4709C187.9767,-440.4858 123.252,-428.1654 58.1075,-412.0983"/>
<polygon fill="#191970" stroke="#191970" points="58.6242,-408.62 48.0743,-409.5943 56.9292,-415.4116 58.6242,-408.62"/>
</g>
<!-- Node2 -->
<g id="node3" class="node">
<title>Node2</title>
<polygon fill="#ffffff" stroke="#bfbfbf" points="66,-392.5 66,-411.5 112,-411.5 112,-392.5 66,-392.5"/>
<text text-anchor="middle" x="89" y="-399.5" font-family="Helvetica,sans-Serif" font-size="10.00" fill="#000000">stdio.h</text>
</g>
<!-- Node0&#45;&gt;Node2 -->
<g id="edge2" class="edge">
<title>Node0&#45;&gt;Node2</title>
<path fill="none" stroke="#191970" d="M252.8462,-448.4996C220.8169,-439.9944 172.5587,-426.965 121.8695,-412.1867"/>
<polygon fill="#191970" stroke="#191970" points="122.6229,-408.7604 112.0423,-409.3083 120.6552,-415.4782 122.6229,-408.7604"/>
</g>
<!-- Node3 -->
<g id="node4" class="node">
<title>Node3</title>
<polygon fill="#ffffff" stroke="#bfbfbf" points="130,-392.5 130,-411.5 182,-411.5 182,-392.5 130,-392.5"/>
<text text-anchor="middle" x="156" y="-399.5" font-family="Helvetica,sans-Serif" font-size="10.00" fill="#000000">unistd.h</text>
</g>
<!-- Node0&#45;&gt;Node3 -->
<g id="edge3" class="edge">
<title>Node0&#45;&gt;Node3</title>
<path fill="none" stroke="#191970" d="M266.1365,-448.3733C244.595,-439.3032 212.1162,-425.6279 188.0044,-415.4755"/>
<polygon fill="#191970" stroke="#191970" points="189.1397,-412.156 178.5652,-411.5011 186.4233,-418.6075 189.1397,-412.156"/>
</g>
<!-- Node4 -->
<g id="node5" class="node">
<title>Node4</title>
<polygon fill="#ffffff" stroke="#bfbfbf" points="200,-392.5 200,-411.5 252,-411.5 252,-392.5 200,-392.5"/>
<text text-anchor="middle" x="226" y="-399.5" font-family="Helvetica,sans-Serif" font-size="10.00" fill="#000000">assert.h</text>
</g>
<!-- Node0&#45;&gt;Node4 -->
<g id="edge4" class="edge">
<title>Node0&#45;&gt;Node4</title>
<path fill="none" stroke="#191970" d="M278.0262,-448.2455C268.8118,-440.0549 255.4468,-428.1749 244.5703,-418.5069"/>
<polygon fill="#191970" stroke="#191970" points="246.6474,-415.6704 236.848,-411.6427 241.9968,-420.9023 246.6474,-415.6704"/>
</g>
<!-- Node5 -->
<g id="node6" class="node">
<title>Node5</title>
<polygon fill="#ffffff" stroke="#bfbfbf" points="311.5,-56.5 311.5,-75.5 360.5,-75.5 360.5,-56.5 311.5,-56.5"/>
<text text-anchor="middle" x="336" y="-63.5" font-family="Helvetica,sans-Serif" font-size="10.00" fill="#000000">string.h</text>
</g>
<!-- Node0&#45;&gt;Node5 -->
<g id="edge5" class="edge">
<title>Node0&#45;&gt;Node5</title>
<path fill="none" stroke="#191970" d="M296.1383,-448.3839C309.2864,-429.6891 336,-386.6982 336,-346 336,-346 336,-346 336,-178 336,-145.7116 336,-108.1872 336,-85.8048"/>
<polygon fill="#191970" stroke="#191970" points="339.5001,-85.5883 336,-75.5884 332.5001,-85.5884 339.5001,-85.5883"/>
</g>
<!-- Node6 -->
<g id="node7" class="node">
<title>Node6</title>
<g id="a_node7"><a xlink:href="err_8h.html" target="_top" xlink:title="err.h">
<polygon fill="#ffffff" stroke="#000000" points="270.5,-392.5 270.5,-411.5 307.5,-411.5 307.5,-392.5 270.5,-392.5"/>
<text text-anchor="middle" x="289" y="-399.5" font-family="Helvetica,sans-Serif" font-size="10.00" fill="#000000">err.h</text>
</a>
</g>
</g>
<!-- Node0&#45;&gt;Node6 -->
<g id="edge6" class="edge">
<title>Node0&#45;&gt;Node6</title>
<path fill="none" stroke="#191970" d="M289,-448.2455C289,-440.9382 289,-430.6944 289,-421.7046"/>
<polygon fill="#191970" stroke="#191970" points="292.5001,-421.6426 289,-411.6427 285.5001,-421.6427 292.5001,-421.6426"/>
</g>
<!-- Node19 -->
<g id="node20" class="node">
<title>Node19</title>
<polygon fill="#ffffff" stroke="#bfbfbf" points="364.5,-392.5 364.5,-411.5 407.5,-411.5 407.5,-392.5 364.5,-392.5"/>
<text text-anchor="middle" x="386" y="-399.5" font-family="Helvetica,sans-Serif" font-size="10.00" fill="#000000">fcntl.h</text>
</g>
<!-- Node0&#45;&gt;Node19 -->
<g id="edge22" class="edge">
<title>Node0&#45;&gt;Node19</title>
<path fill="none" stroke="#191970" d="M305.8961,-448.2455C320.918,-439.5731 343.1043,-426.7645 360.321,-416.825"/>
<polygon fill="#191970" stroke="#191970" points="362.3871,-419.6737 369.2975,-411.6427 358.8872,-413.6114 362.3871,-419.6737"/>
</g>
<!-- Node20 -->
<g id="node21" class="node">
<title>Node20</title>
<g id="a_node21"><a xlink:href="heatshrink__encoder_8h.html" target="_top" xlink:title="heatshrink_encoder.h">
<polygon fill="#ffffff" stroke="#000000" points="556.5,-392.5 556.5,-411.5 669.5,-411.5 669.5,-392.5 556.5,-392.5"/>
<text text-anchor="middle" x="613" y="-399.5" font-family="Helvetica,sans-Serif" font-size="10.00" fill="#000000">heatshrink_encoder.h</text>
</a>
</g>
</g>
<!-- Node0&#45;&gt;Node20 -->
<g id="edge23" class="edge">
<title>Node0&#45;&gt;Node20</title>
<path fill="none" stroke="#191970" d="M344.3294,-448.4369C400.7115,-438.6918 488.1258,-423.5832 547.827,-413.2645"/>
<polygon fill="#191970" stroke="#191970" points="548.641,-416.6758 557.8988,-411.5237 547.4487,-409.778 548.641,-416.6758"/>
</g>
<!-- Node24 -->
<g id="node25" class="node">
<title>Node24</title>
<g id="a_node25"><a xlink:href="heatshrink__decoder_8h.html" target="_top" xlink:title="heatshrink_decoder.h">
<polygon fill="#ffffff" stroke="#000000" points="425.5,-392.5 425.5,-411.5 538.5,-411.5 538.5,-392.5 425.5,-392.5"/>
<text text-anchor="middle" x="482" y="-399.5" font-family="Helvetica,sans-Serif" font-size="10.00" fill="#000000">heatshrink_decoder.h</text>
</a>
</g>
</g>
<!-- Node0&#45;&gt;Node24 -->
<g id="edge27" class="edge">
<title>Node0&#45;&gt;Node24</title>
<path fill="none" stroke="#191970" d="M322.1779,-448.3733C354.5487,-438.9807 403.9398,-424.6496 439.2424,-414.4064"/>
<polygon fill="#191970" stroke="#191970" points="440.6265,-417.6492 449.2551,-411.5011 438.6758,-410.9264 440.6265,-417.6492"/>
</g>
<!-- Node7 -->
<g id="node8" class="node">
<title>Node7</title>
<g id="a_node8"><a xlink:href="opt_8h.html" target="_top" xlink:title="lwip/opt.h">
<polygon fill="#ffffff" stroke="#000000" points="247.5,-336.5 247.5,-355.5 306.5,-355.5 306.5,-336.5 247.5,-336.5"/>
<text text-anchor="middle" x="277" y="-343.5" font-family="Helvetica,sans-Serif" font-size="10.00" fill="#000000">lwip/opt.h</text>
</a>
</g>
</g>
<!-- Node6&#45;&gt;Node7 -->
<g id="edge7" class="edge">
<title>Node6&#45;&gt;Node7</title>
<path fill="none" stroke="#191970" d="M286.9098,-392.2455C285.3439,-384.9382 283.1488,-374.6944 281.2224,-365.7046"/>
<polygon fill="#191970" stroke="#191970" points="284.584,-364.6873 279.0663,-355.6427 277.7393,-366.1541 284.584,-364.6873"/>
</g>
<!-- Node10 -->
<g id="node11" class="node">
<title>Node10</title>
<g id="a_node11"><a xlink:href="arch_8h.html" target="_top" xlink:title="lwip/arch.h">
<polygon fill="#ffffff" stroke="#000000" points="148,-224.5 148,-243.5 212,-243.5 212,-224.5 148,-224.5"/>
<text text-anchor="middle" x="180" y="-231.5" font-family="Helvetica,sans-Serif" font-size="10.00" fill="#000000">lwip/arch.h</text>
</a>
</g>
</g>
<!-- Node6&#45;&gt;Node10 -->
<g id="edge21" class="edge">
<title>Node6&#45;&gt;Node10</title>
<path fill="none" stroke="#191970" d="M270.4214,-395.3274C238.103,-382.5811 172.4596,-351.3742 146,-300 137.496,-283.4885 149.337,-264.6545 161.3143,-251.3437"/>
<polygon fill="#191970" stroke="#191970" points="164.1481,-253.4498 168.6087,-243.8397 159.1288,-248.5706 164.1481,-253.4498"/>
</g>
<!-- Node8 -->
<g id="node9" class="node">
<title>Node8</title>
<g id="a_node9"><a xlink:href="lwipopts_8h.html" target="_top" xlink:title="lwipopts.h">
<polygon fill="#ffffff" stroke="#000000" points="246.5,-280.5 246.5,-299.5 307.5,-299.5 307.5,-280.5 246.5,-280.5"/>
<text text-anchor="middle" x="277" y="-287.5" font-family="Helvetica,sans-Serif" font-size="10.00" fill="#000000">lwipopts.h</text>
</a>
</g>
</g>
<!-- Node7&#45;&gt;Node8 -->
<g id="edge8" class="edge">
<title>Node7&#45;&gt;Node8</title>
<path fill="none" stroke="#191970" d="M277,-336.2455C277,-328.9382 277,-318.6944 277,-309.7046"/>
<polygon fill="#191970" stroke="#191970" points="280.5001,-309.6426 277,-299.6427 273.5001,-309.6427 280.5001,-309.6426"/>
</g>
<!-- Node9 -->
<g id="node10" class="node">
<title>Node9</title>
<g id="a_node10"><a xlink:href="esp-open-sdk_2esp-open-lwip_2include_2lwip_2debug_8h.html" target="_top" xlink:title="lwip/debug.h">
<polygon fill="#ffffff" stroke="#000000" points="155.5,-280.5 155.5,-299.5 228.5,-299.5 228.5,-280.5 155.5,-280.5"/>
<text text-anchor="middle" x="192" y="-287.5" font-family="Helvetica,sans-Serif" font-size="10.00" fill="#000000">lwip/debug.h</text>
</a>
</g>
</g>
<!-- Node7&#45;&gt;Node9 -->
<g id="edge9" class="edge">
<title>Node7&#45;&gt;Node9</title>
<path fill="none" stroke="#191970" d="M262.1941,-336.2455C249.2744,-327.7337 230.3069,-315.2375 215.3448,-305.3801"/>
<polygon fill="#191970" stroke="#191970" points="216.9124,-302.2216 206.6362,-299.6427 213.0613,-308.067 216.9124,-302.2216"/>
</g>
<!-- Node9&#45;&gt;Node10 -->
<g id="edge10" class="edge">
<title>Node9&#45;&gt;Node10</title>
<path fill="none" stroke="#191970" d="M189.9098,-280.2455C188.3439,-272.9382 186.1488,-262.6944 184.2224,-253.7046"/>
<polygon fill="#191970" stroke="#191970" points="187.584,-252.6873 182.0663,-243.6427 180.7393,-254.1541 187.584,-252.6873"/>
</g>
<!-- Node11 -->
<g id="node12" class="node">
<title>Node11</title>
<g id="a_node12"><a xlink:href="cc_8h.html" target="_top" xlink:title="arch/cc.h">
<polygon fill="#ffffff" stroke="#000000" points="151.5,-168.5 151.5,-187.5 208.5,-187.5 208.5,-168.5 151.5,-168.5"/>
<text text-anchor="middle" x="180" y="-175.5" font-family="Helvetica,sans-Serif" font-size="10.00" fill="#000000">arch/cc.h</text>
</a>
</g>
</g>
<!-- Node10&#45;&gt;Node11 -->
<g id="edge11" class="edge">
<title>Node10&#45;&gt;Node11</title>
<path fill="none" stroke="#191970" d="M180,-224.2455C180,-216.9382 180,-206.6944 180,-197.7046"/>
<polygon fill="#191970" stroke="#191970" points="183.5001,-197.6426 180,-187.6427 176.5001,-197.6427 183.5001,-197.6426"/>
</g>
<!-- Node12 -->
<g id="node13" class="node">
<title>Node12</title>
<g id="a_node13"><a xlink:href="c__types_8h.html" target="_top" xlink:title="c_types.h">
<polygon fill="#ffffff" stroke="#000000" points="139.5,-56.5 139.5,-75.5 198.5,-75.5 198.5,-56.5 139.5,-56.5"/>
<text text-anchor="middle" x="169" y="-63.5" font-family="Helvetica,sans-Serif" font-size="10.00" fill="#000000">c_types.h</text>
</a>
</g>
</g>
<!-- Node11&#45;&gt;Node12 -->
<g id="edge12" class="edge">
<title>Node11&#45;&gt;Node12</title>
<path fill="none" stroke="#191970" d="M179.0621,-168.4509C177.2681,-150.184 173.317,-109.9553 170.9346,-85.6976"/>
<polygon fill="#191970" stroke="#191970" points="174.3962,-85.1349 169.9355,-75.5249 167.4298,-85.8191 174.3962,-85.1349"/>
</g>
<!-- Node15 -->
<g id="node16" class="node">
<title>Node15</title>
<g id="a_node16"><a xlink:href="ets__sys_8h.html" target="_top" xlink:title="ets_sys.h">
<polygon fill="#ffffff" stroke="#000000" points="92.5,-112.5 92.5,-131.5 151.5,-131.5 151.5,-112.5 92.5,-112.5"/>
<text text-anchor="middle" x="122" y="-119.5" font-family="Helvetica,sans-Serif" font-size="10.00" fill="#000000">ets_sys.h</text>
</a>
</g>
</g>
<!-- Node11&#45;&gt;Node15 -->
<g id="edge15" class="edge">
<title>Node11&#45;&gt;Node15</title>
<path fill="none" stroke="#191970" d="M169.8972,-168.2455C161.4972,-160.1352 149.3506,-148.4075 139.3916,-138.7919"/>
<polygon fill="#191970" stroke="#191970" points="141.6122,-136.0707 131.9871,-131.6427 136.75,-141.1066 141.6122,-136.0707"/>
</g>
<!-- Node17 -->
<g id="node18" class="node">
<title>Node17</title>
<g id="a_node18"><a xlink:href="osapi_8h.html" target="_top" xlink:title="osapi.h">
<polygon fill="#ffffff" stroke="#000000" points="230.5,-112.5 230.5,-131.5 279.5,-131.5 279.5,-112.5 230.5,-112.5"/>
<text text-anchor="middle" x="255" y="-119.5" font-family="Helvetica,sans-Serif" font-size="10.00" fill="#000000">osapi.h</text>
</a>
</g>
</g>
<!-- Node11&#45;&gt;Node17 -->
<g id="edge18" class="edge">
<title>Node11&#45;&gt;Node17</title>
<path fill="none" stroke="#191970" d="M193.064,-168.2455C204.3562,-159.814 220.8845,-147.4729 234.0271,-137.6598"/>
<polygon fill="#191970" stroke="#191970" points="236.1669,-140.4301 242.0857,-131.6427 231.9789,-134.8211 236.1669,-140.4301"/>
</g>
<!-- Node13 -->
<g id="node14" class="node">
<title>Node13</title>
<polygon fill="#ffffff" stroke="#bfbfbf" points="108.5,-.5 108.5,-19.5 157.5,-19.5 157.5,-.5 108.5,-.5"/>
<text text-anchor="middle" x="133" y="-7.5" font-family="Helvetica,sans-Serif" font-size="10.00" fill="#000000">stdint.h</text>
</g>
<!-- Node12&#45;&gt;Node13 -->
<g id="edge13" class="edge">
<title>Node12&#45;&gt;Node13</title>
<path fill="none" stroke="#191970" d="M162.7293,-56.2455C157.7736,-48.5367 150.717,-37.5598 144.7224,-28.2348"/>
<polygon fill="#191970" stroke="#191970" points="147.5506,-26.1618 139.1989,-19.6427 141.6624,-29.9471 147.5506,-26.1618"/>
</g>
<!-- Node14 -->
<g id="node15" class="node">
<title>Node14</title>
<polygon fill="#ffffff" stroke="#bfbfbf" points="175.5,-.5 175.5,-19.5 232.5,-19.5 232.5,-.5 175.5,-.5"/>
<text text-anchor="middle" x="204" y="-7.5" font-family="Helvetica,sans-Serif" font-size="10.00" fill="#000000">stdbool.h</text>
</g>
<!-- Node12&#45;&gt;Node14 -->
<g id="edge14" class="edge">
<title>Node12&#45;&gt;Node14</title>
<path fill="none" stroke="#191970" d="M175.0965,-56.2455C179.9145,-48.5367 186.7751,-37.5598 192.6032,-28.2348"/>
<polygon fill="#191970" stroke="#191970" points="195.6413,-29.9777 197.9733,-19.6427 189.7053,-26.2677 195.6413,-29.9777"/>
</g>
<!-- Node15&#45;&gt;Node12 -->
<g id="edge16" class="edge">
<title>Node15&#45;&gt;Node12</title>
<path fill="none" stroke="#191970" d="M130.1868,-112.2455C136.8589,-104.2958 146.4479,-92.8706 154.4253,-83.3656"/>
<polygon fill="#191970" stroke="#191970" points="157.1592,-85.5525 160.907,-75.6427 151.7974,-81.0524 157.1592,-85.5525"/>
</g>
<!-- Node16 -->
<g id="node17" class="node">
<title>Node16</title>
<g id="a_node17"><a xlink:href="eagle__soc_8h.html" target="_top" xlink:title="eagle_soc.h">
<polygon fill="#ffffff" stroke="#000000" points="51,-56.5 51,-75.5 121,-75.5 121,-56.5 51,-56.5"/>
<text text-anchor="middle" x="86" y="-63.5" font-family="Helvetica,sans-Serif" font-size="10.00" fill="#000000">eagle_soc.h</text>
</a>
</g>
</g>
<!-- Node15&#45;&gt;Node16 -->
<g id="edge17" class="edge">
<title>Node15&#45;&gt;Node16</title>
<path fill="none" stroke="#191970" d="M115.7293,-112.2455C110.7736,-104.5367 103.717,-93.5598 97.7224,-84.2348"/>
<polygon fill="#191970" stroke="#191970" points="100.5506,-82.1618 92.1989,-75.6427 94.6624,-85.9471 100.5506,-82.1618"/>
</g>
<!-- Node17&#45;&gt;Node5 -->
<g id="edge19" class="edge">
<title>Node17&#45;&gt;Node5</title>
<path fill="none" stroke="#191970" d="M269.1091,-112.2455C281.4209,-103.7337 299.4958,-91.2375 313.7538,-81.3801"/>
<polygon fill="#191970" stroke="#191970" points="315.8174,-84.2085 322.0526,-75.6427 311.8366,-78.4506 315.8174,-84.2085"/>
</g>
<!-- Node18 -->
<g id="node19" class="node">
<title>Node18</title>
<polygon fill="#ffffff" stroke="#bfbfbf" points="216.5,-56.5 216.5,-75.5 293.5,-75.5 293.5,-56.5 216.5,-56.5"/>
<text text-anchor="middle" x="255" y="-63.5" font-family="Helvetica,sans-Serif" font-size="10.00" fill="#000000">user_config.h</text>
</g>
<!-- Node17&#45;&gt;Node18 -->
<g id="edge20" class="edge">
<title>Node17&#45;&gt;Node18</title>
<path fill="none" stroke="#191970" d="M255,-112.2455C255,-104.9382 255,-94.6944 255,-85.7046"/>
<polygon fill="#191970" stroke="#191970" points="258.5001,-85.6426 255,-75.6427 251.5001,-85.6427 258.5001,-85.6426"/>
</g>
<!-- Node21 -->
<g id="node22" class="node">
<title>Node21</title>
<polygon fill="#ffffff" stroke="#bfbfbf" points="519,-336.5 519,-355.5 571,-355.5 571,-336.5 519,-336.5"/>
<text text-anchor="middle" x="545" y="-343.5" font-family="Helvetica,sans-Serif" font-size="10.00" fill="#000000">stddef.h</text>
</g>
<!-- Node20&#45;&gt;Node21 -->
<g id="edge24" class="edge">
<title>Node20&#45;&gt;Node21</title>
<path fill="none" stroke="#191970" d="M601.1553,-392.2455C591.112,-383.9746 576.5005,-371.9416 564.6996,-362.2232"/>
<polygon fill="#191970" stroke="#191970" points="566.6533,-359.298 556.709,-355.6427 562.2033,-364.7015 566.6533,-359.298"/>
</g>
<!-- Node22 -->
<g id="node23" class="node">
<title>Node22</title>
<g id="a_node23"><a xlink:href="heatshrink__common_8h.html" target="_top" xlink:title="heatshrink_common.h">
<polygon fill="#ffffff" stroke="#000000" points="589.5,-336.5 589.5,-355.5 704.5,-355.5 704.5,-336.5 589.5,-336.5"/>
<text text-anchor="middle" x="647" y="-343.5" font-family="Helvetica,sans-Serif" font-size="10.00" fill="#000000">heatshrink_common.h</text>
</a>
</g>
</g>
<!-- Node20&#45;&gt;Node22 -->
<g id="edge25" class="edge">
<title>Node20&#45;&gt;Node22</title>
<path fill="none" stroke="#191970" d="M618.9223,-392.2455C623.6027,-384.5367 630.2673,-373.5598 635.9289,-364.2348"/>
<polygon fill="#191970" stroke="#191970" points="638.9475,-366.007 641.1455,-355.6427 632.9639,-362.3741 638.9475,-366.007"/>
</g>
<!-- Node23 -->
<g id="node24" class="node">
<title>Node23</title>
<g id="a_node24"><a xlink:href="heatshrink__config_8h.html" target="_top" xlink:title="heatshrink_config.h">
<polygon fill="#ffffff" stroke="#000000" points="397.5,-336.5 397.5,-355.5 500.5,-355.5 500.5,-336.5 397.5,-336.5"/>
<text text-anchor="middle" x="449" y="-343.5" font-family="Helvetica,sans-Serif" font-size="10.00" fill="#000000">heatshrink_config.h</text>
</a>
</g>
</g>
<!-- Node20&#45;&gt;Node23 -->
<g id="edge26" class="edge">
<title>Node20&#45;&gt;Node23</title>
<path fill="none" stroke="#191970" d="M584.8074,-392.3733C557.6547,-383.1016 516.4093,-369.0178 486.4975,-358.804"/>
<polygon fill="#191970" stroke="#191970" points="487.4192,-355.4204 476.8247,-355.5011 485.1572,-362.0449 487.4192,-355.4204"/>
</g>
<!-- Node24&#45;&gt;Node21 -->
<g id="edge28" class="edge">
<title>Node24&#45;&gt;Node21</title>
<path fill="none" stroke="#191970" d="M492.9738,-392.2455C502.1882,-384.0549 515.5532,-372.1749 526.4297,-362.5069"/>
<polygon fill="#191970" stroke="#191970" points="529.0032,-364.9023 534.152,-355.6427 524.3526,-359.6704 529.0032,-364.9023"/>
</g>
<!-- Node24&#45;&gt;Node22 -->
<g id="edge29" class="edge">
<title>Node24&#45;&gt;Node22</title>
<path fill="none" stroke="#191970" d="M510.3645,-392.3733C537.6827,-383.1016 579.1796,-369.0178 609.2738,-358.804"/>
<polygon fill="#191970" stroke="#191970" points="610.661,-362.0294 619.0056,-355.5011 608.4113,-355.4008 610.661,-362.0294"/>
</g>
<!-- Node24&#45;&gt;Node23 -->
<g id="edge30" class="edge">
<title>Node24&#45;&gt;Node23</title>
<path fill="none" stroke="#191970" d="M476.2518,-392.2455C471.7565,-384.617 465.3752,-373.7881 459.9175,-364.5267"/>
<polygon fill="#191970" stroke="#191970" points="462.7747,-362.4811 454.6823,-355.6427 456.7439,-366.035 462.7747,-362.4811"/>
</g>
</g>
</svg>
