<?xml version="1.0" encoding="UTF-8" standalone="no"?>
<!DOCTYPE svg PUBLIC "-//W3C//DTD SVG 1.1//EN"
 "http://www.w3.org/Graphics/SVG/1.1/DTD/svg11.dtd">
<!-- Generated by graphviz version 2.41.20170323.1842 (20170323.1842)
 -->
<!-- Title: has_literal Pages: 1 -->
<svg width="849pt" height="761pt"
 viewBox="0.00 0.00 849.00 760.50" xmlns="http://www.w3.org/2000/svg" xmlns:xlink="http://www.w3.org/1999/xlink">
<g id="graph0" class="graph" transform="scale(1 1) rotate(0) translate(4 756.5)">
<title>has_literal</title>
<polygon fill="#ffffff" stroke="transparent" points="-4,4 -4,-756.5 845,-756.5 845,4 -4,4"/>
<!-- Node300 -->
<g id="node1" class="node">
<title>Node300</title>
<polygon fill="#bfbfbf" stroke="#000000" points="0,-381 0,-400 62,-400 62,-381 0,-381"/>
<text text-anchor="middle" x="31" y="-388" font-family="Helvetica,sans-Serif" font-size="10.00" fill="#000000">has_literal</text>
</g>
<!-- Node301 -->
<g id="node2" class="node">
<title>Node301</title>
<g id="a_node2"><a xlink:href="heatshrink__encoder_8c.html#ac2fd6f71c2f249ebc292fd45fbd83b65" target="_top" xlink:title="st_save_backlog">
<polygon fill="#ffffff" stroke="#000000" points="98,-381 98,-400 189,-400 189,-381 98,-381"/>
<text text-anchor="middle" x="143.5" y="-388" font-family="Helvetica,sans-Serif" font-size="10.00" fill="#000000">st_save_backlog</text>
</a>
</g>
</g>
<!-- Node300&#45;&gt;Node301 -->
<g id="edge1" class="edge">
<title>Node300&#45;&gt;Node301</title>
<path fill="none" stroke="#191970" d="M72.2589,-390.5C80.574,-390.5 89.3606,-390.5 97.8167,-390.5"/>
<polygon fill="#191970" stroke="#191970" points="72.039,-387.0001 62.0389,-390.5 72.0389,-394.0001 72.039,-387.0001"/>
</g>
<!-- Node302 -->
<g id="node3" class="node">
<title>Node302</title>
<g id="a_node3"><a xlink:href="heatshrink__encoder_8h.html#aa1a92f13d1ef65546bb40ece94b2066e" target="_top" xlink:title="heatshrink_encoder_sink">
<polygon fill="#ffffff" stroke="#000000" points="225,-351 225,-370 353,-370 353,-351 225,-351"/>
<text text-anchor="middle" x="289" y="-358" font-family="Helvetica,sans-Serif" font-size="10.00" fill="#000000">heatshrink_encoder_sink</text>
</a>
</g>
</g>
<!-- Node301&#45;&gt;Node302 -->
<g id="edge2" class="edge">
<title>Node301&#45;&gt;Node302</title>
<path fill="none" stroke="#191970" d="M198.9633,-379.0643C213.4225,-376.083 228.8488,-372.9023 242.7731,-370.0313"/>
<polygon fill="#191970" stroke="#191970" points="198.2251,-375.6428 189.1379,-381.0901 199.6387,-382.4986 198.2251,-375.6428"/>
</g>
<!-- Node327 -->
<g id="node28" class="node">
<title>Node327</title>
<g id="a_node28"><a xlink:href="heatshrink__encoder_8h.html#a7de708b2cb0d016d9183b0addf6126f3" target="_top" xlink:title="heatshrink_encoder_poll">
<polygon fill="#ffffff" stroke="#000000" points="226.5,-438 226.5,-457 351.5,-457 351.5,-438 226.5,-438"/>
<text text-anchor="middle" x="289" y="-445" font-family="Helvetica,sans-Serif" font-size="10.00" fill="#000000">heatshrink_encoder_poll</text>
</a>
</g>
</g>
<!-- Node301&#45;&gt;Node327 -->
<g id="edge41" class="edge">
<title>Node301&#45;&gt;Node327</title>
<path fill="none" stroke="#191970" d="M177.2023,-403.703C203.9182,-414.169 240.618,-428.5462 264.5671,-437.9284"/>
<polygon fill="#191970" stroke="#191970" points="178.4411,-400.4293 167.8534,-400.0405 175.8878,-406.9471 178.4411,-400.4293"/>
</g>
<!-- Node303 -->
<g id="node4" class="node">
<title>Node303</title>
<g id="a_node4"><a xlink:href="heatshrink_8c.html#a593e86bba4eca0be280740fcf509bc12" target="_top" xlink:title="encoder_sink_read">
<polygon fill="#ffffff" stroke="#000000" points="413.5,-679 413.5,-698 515.5,-698 515.5,-679 413.5,-679"/>
<text text-anchor="middle" x="464.5" y="-686" font-family="Helvetica,sans-Serif" font-size="10.00" fill="#000000">encoder_sink_read</text>
</a>
</g>
</g>
<!-- Node302&#45;&gt;Node303 -->
<g id="edge3" class="edge">
<title>Node302&#45;&gt;Node303</title>
<path fill="none" stroke="#191970" d="M310.0169,-376.8147C324.5493,-389.322 343.003,-407.8938 353,-428.5 400.2716,-525.9381 316.2737,-589.2524 389,-669.5 395.4444,-676.6109 404.1216,-681.2389 413.2974,-684.2143"/>
<polygon fill="#191970" stroke="#191970" points="311.9416,-373.8642 302.0072,-370.1818 307.4769,-379.2556 311.9416,-373.8642"/>
</g>
<!-- Node306 -->
<g id="node7" class="node">
<title>Node306</title>
<g id="a_node7"><a xlink:href="test__heatshrink__dynamic_8c.html#a9b30a495760400a59637e7d708e63ae0" target="_top" xlink:title="encoder_sink_should\l_reject_nulls">
<polygon fill="#ffffff" stroke="#000000" points="409,-.5 409,-30.5 520,-30.5 520,-.5 409,-.5"/>
<text text-anchor="start" x="417" y="-18.5" font-family="Helvetica,sans-Serif" font-size="10.00" fill="#000000">encoder_sink_should</text>
<text text-anchor="middle" x="464.5" y="-7.5" font-family="Helvetica,sans-Serif" font-size="10.00" fill="#000000">_reject_nulls</text>
</a>
</g>
</g>
<!-- Node302&#45;&gt;Node306 -->
<g id="edge6" class="edge">
<title>Node302&#45;&gt;Node306</title>
<path fill="none" stroke="#191970" d="M292.7171,-340.8085C304.9072,-278.1403 345.3964,-84.8458 389,-40.5 394.6148,-34.7896 401.5608,-30.3835 408.9467,-26.9838"/>
<polygon fill="#191970" stroke="#191970" points="289.2233,-340.4441 290.7759,-350.9245 296.0978,-341.7633 289.2233,-340.4441"/>
</g>
<!-- Node308 -->
<g id="node9" class="node">
<title>Node308</title>
<g id="a_node9"><a xlink:href="test__heatshrink__dynamic_8c.html#a1c4dab770a7df0935018c3a685f5b1ff" target="_top" xlink:title="encoder_sink_should\l_accept_input_when_it\l_will_fit">
<polygon fill="#ffffff" stroke="#000000" points="405,-110 405,-151 524,-151 524,-110 405,-110"/>
<text text-anchor="start" x="413" y="-139" font-family="Helvetica,sans-Serif" font-size="10.00" fill="#000000">encoder_sink_should</text>
<text text-anchor="start" x="413" y="-128" font-family="Helvetica,sans-Serif" font-size="10.00" fill="#000000">_accept_input_when_it</text>
<text text-anchor="middle" x="464.5" y="-117" font-family="Helvetica,sans-Serif" font-size="10.00" fill="#000000">_will_fit</text>
</a>
</g>
</g>
<!-- Node302&#45;&gt;Node308 -->
<g id="edge8" class="edge">
<title>Node302&#45;&gt;Node308</title>
<path fill="none" stroke="#191970" d="M293.7303,-340.9349C304.223,-301.4982 333.0607,-211.8536 389,-160.5 393.6756,-156.2077 399.0403,-152.4975 404.7073,-149.2972"/>
<polygon fill="#191970" stroke="#191970" points="290.3317,-340.0982 291.25,-350.6531 297.1143,-341.8293 290.3317,-340.0982"/>
</g>
<!-- Node309 -->
<g id="node10" class="node">
<title>Node309</title>
<g id="a_node10"><a xlink:href="test__heatshrink__dynamic_8c.html#a73ee2ec6f21d5e0ce0e34902a1aebccb" target="_top" xlink:title="encoder_sink_should\l_accept_partial_input\l_when_some_will_fit">
<polygon fill="#ffffff" stroke="#000000" points="408.5,-50 408.5,-91 520.5,-91 520.5,-50 408.5,-50"/>
<text text-anchor="start" x="416.5" y="-79" font-family="Helvetica,sans-Serif" font-size="10.00" fill="#000000">encoder_sink_should</text>
<text text-anchor="start" x="416.5" y="-68" font-family="Helvetica,sans-Serif" font-size="10.00" fill="#000000">_accept_partial_input</text>
<text text-anchor="middle" x="464.5" y="-57" font-family="Helvetica,sans-Serif" font-size="10.00" fill="#000000">_when_some_will_fit</text>
</a>
</g>
</g>
<!-- Node302&#45;&gt;Node309 -->
<g id="edge10" class="edge">
<title>Node302&#45;&gt;Node309</title>
<path fill="none" stroke="#191970" d="M291.1873,-340.805C297.4886,-293.1432 319.8927,-170.375 389,-100.5 394.5542,-94.8841 401.2912,-90.2897 408.4278,-86.5385"/>
<polygon fill="#191970" stroke="#191970" points="287.7105,-340.4021 289.9665,-350.7539 294.6584,-341.2547 287.7105,-340.4021"/>
</g>
<!-- Node310 -->
<g id="node11" class="node">
<title>Node310</title>
<g id="a_node11"><a xlink:href="test__heatshrink__dynamic_8c.html#a5339595930b85317e810fcf251b86351" target="_top" xlink:title="encoder_should_emit\l_data_without_repetitions\l_as_literal_sequence">
<polygon fill="#ffffff" stroke="#000000" points="399.5,-170 399.5,-211 529.5,-211 529.5,-170 399.5,-170"/>
<text text-anchor="start" x="407.5" y="-199" font-family="Helvetica,sans-Serif" font-size="10.00" fill="#000000">encoder_should_emit</text>
<text text-anchor="start" x="407.5" y="-188" font-family="Helvetica,sans-Serif" font-size="10.00" fill="#000000">_data_without_repetitions</text>
<text text-anchor="middle" x="464.5" y="-177" font-family="Helvetica,sans-Serif" font-size="10.00" fill="#000000">_as_literal_sequence</text>
</a>
</g>
</g>
<!-- Node302&#45;&gt;Node310 -->
<g id="edge12" class="edge">
<title>Node302&#45;&gt;Node310</title>
<path fill="none" stroke="#191970" d="M297.9463,-341.6801C312.9036,-312.0563 345.6664,-254.4368 389,-220.5 393.4418,-217.0214 398.3388,-213.8975 403.4402,-211.1022"/>
<polygon fill="#191970" stroke="#191970" points="294.6815,-340.3878 293.4101,-350.9061 300.9633,-343.4764 294.6815,-340.3878"/>
</g>
<!-- Node311 -->
<g id="node12" class="node">
<title>Node311</title>
<g id="a_node12"><a xlink:href="test__heatshrink__dynamic_8c.html#ae27157a664552fa0744d095239ee0d88" target="_top" xlink:title="encoder_should_emit\l_series_of_same_byte\l_as_literal_then_backref">
<polygon fill="#ffffff" stroke="#000000" points="402,-340 402,-381 527,-381 527,-340 402,-340"/>
<text text-anchor="start" x="410" y="-369" font-family="Helvetica,sans-Serif" font-size="10.00" fill="#000000">encoder_should_emit</text>
<text text-anchor="start" x="410" y="-358" font-family="Helvetica,sans-Serif" font-size="10.00" fill="#000000">_series_of_same_byte</text>
<text text-anchor="middle" x="464.5" y="-347" font-family="Helvetica,sans-Serif" font-size="10.00" fill="#000000">_as_literal_then_backref</text>
</a>
</g>
</g>
<!-- Node302&#45;&gt;Node311 -->
<g id="edge14" class="edge">
<title>Node302&#45;&gt;Node311</title>
<path fill="none" stroke="#191970" d="M363.5072,-360.5C376.2978,-360.5 389.4727,-360.5 401.9108,-360.5"/>
<polygon fill="#191970" stroke="#191970" points="363.3532,-357.0001 353.3532,-360.5 363.3531,-364.0001 363.3532,-357.0001"/>
</g>
<!-- Node312 -->
<g id="node13" class="node">
<title>Node312</title>
<g id="a_node13"><a xlink:href="test__heatshrink__dynamic_8c.html#a2d84dd546b011bb6cfc3b1e9a9a5616b" target="_top" xlink:title="encoder_poll_should\l_detect_repeated_substring">
<polygon fill="#ffffff" stroke="#000000" points="394.5,-290.5 394.5,-320.5 534.5,-320.5 534.5,-290.5 394.5,-290.5"/>
<text text-anchor="start" x="402.5" y="-308.5" font-family="Helvetica,sans-Serif" font-size="10.00" fill="#000000">encoder_poll_should</text>
<text text-anchor="middle" x="464.5" y="-297.5" font-family="Helvetica,sans-Serif" font-size="10.00" fill="#000000">_detect_repeated_substring</text>
</a>
</g>
</g>
<!-- Node302&#45;&gt;Node312 -->
<g id="edge16" class="edge">
<title>Node302&#45;&gt;Node312</title>
<path fill="none" stroke="#191970" d="M329.4431,-347.8255C355.3631,-339.7024 389.1382,-329.1177 416.4278,-320.5654"/>
<polygon fill="#191970" stroke="#191970" points="328.0655,-344.5893 319.5698,-350.9197 330.1588,-351.269 328.0655,-344.5893"/>
</g>
<!-- Node313 -->
<g id="node14" class="node">
<title>Node313</title>
<g id="a_node14"><a xlink:href="test__heatshrink__dynamic_8c.html#ab068727669a416029bacc708b2aac5ac" target="_top" xlink:title="encoder_poll_should\l_detect_repeated_substring\l_and_preserve_trailing_literal">
<polygon fill="#ffffff" stroke="#000000" points="390.5,-230 390.5,-271 538.5,-271 538.5,-230 390.5,-230"/>
<text text-anchor="start" x="398.5" y="-259" font-family="Helvetica,sans-Serif" font-size="10.00" fill="#000000">encoder_poll_should</text>
<text text-anchor="start" x="398.5" y="-248" font-family="Helvetica,sans-Serif" font-size="10.00" fill="#000000">_detect_repeated_substring</text>
<text text-anchor="middle" x="464.5" y="-237" font-family="Helvetica,sans-Serif" font-size="10.00" fill="#000000">_and_preserve_trailing_literal</text>
</a>
</g>
</g>
<!-- Node302&#45;&gt;Node313 -->
<g id="edge18" class="edge">
<title>Node302&#45;&gt;Node313</title>
<path fill="none" stroke="#191970" d="M306.7146,-343.9711C325.8808,-326.7186 357.8878,-299.692 389,-281.5 395.3606,-277.7808 402.2523,-274.2935 409.197,-271.0973"/>
<polygon fill="#191970" stroke="#191970" points="304.1197,-341.6009 299.094,-350.9279 308.8392,-346.7707 304.1197,-341.6009"/>
</g>
<!-- Node314 -->
<g id="node15" class="node">
<title>Node314</title>
<g id="a_node15"><a xlink:href="test__heatshrink__dynamic_8c.html#a6627d0e00f7e636ae9294cc6255c7ffd" target="_top" xlink:title="gen">
<polygon fill="#ffffff" stroke="#000000" points="448,-717 448,-736 481,-736 481,-717 448,-717"/>
<text text-anchor="middle" x="464.5" y="-724" font-family="Helvetica,sans-Serif" font-size="10.00" fill="#000000">gen</text>
</a>
</g>
</g>
<!-- Node302&#45;&gt;Node314 -->
<g id="edge20" class="edge">
<title>Node302&#45;&gt;Node314</title>
<path fill="none" stroke="#191970" d="M310.1411,-376.7552C324.734,-389.2335 343.2091,-407.795 353,-428.5 406.4481,-541.5279 305.9687,-614.0238 389,-707.5 403.721,-724.0728 430.5659,-727.2093 447.9595,-727.3233"/>
<polygon fill="#191970" stroke="#191970" points="312.0407,-373.7861 302.0927,-370.1409 307.5963,-379.1942 312.0407,-373.7861"/>
</g>
<!-- Node316 -->
<g id="node17" class="node">
<title>Node316</title>
<g id="a_node17"><a xlink:href="test__heatshrink__dynamic_8c.html#ab9096be17a9dc8f301673949558e5bd6" target="_top" xlink:title="compress_and_expand\l_and_check">
<polygon fill="#ffffff" stroke="#000000" points="404.5,-509.5 404.5,-539.5 524.5,-539.5 524.5,-509.5 404.5,-509.5"/>
<text text-anchor="start" x="412.5" y="-527.5" font-family="Helvetica,sans-Serif" font-size="10.00" fill="#000000">compress_and_expand</text>
<text text-anchor="middle" x="464.5" y="-516.5" font-family="Helvetica,sans-Serif" font-size="10.00" fill="#000000">_and_check</text>
</a>
</g>
</g>
<!-- Node302&#45;&gt;Node316 -->
<g id="edge22" class="edge">
<title>Node302&#45;&gt;Node316</title>
<path fill="none" stroke="#191970" d="M307.4211,-377.2254C321.1149,-390.2922 339.6585,-409.3859 353,-428.5 373.4772,-457.8374 361.809,-477.2482 389,-500.5 393.5994,-504.4331 398.8481,-507.7231 404.387,-510.475"/>
<polygon fill="#191970" stroke="#191970" points="309.6873,-374.5525 299.9949,-370.2738 304.9035,-379.6629 309.6873,-374.5525"/>
</g>
<!-- Node325 -->
<g id="node26" class="node">
<title>Node325</title>
<g id="a_node26"><a xlink:href="test__heatshrink__dynamic_8c.html#a9a102029b8375d4050406a2814f390ac" target="_top" xlink:title="data_without_duplication\l_should_match_with_absurdly\l_tiny_buffers">
<polygon fill="#ffffff" stroke="#000000" points="389,-619 389,-660 540,-660 540,-619 389,-619"/>
<text text-anchor="start" x="397" y="-648" font-family="Helvetica,sans-Serif" font-size="10.00" fill="#000000">data_without_duplication</text>
<text text-anchor="start" x="397" y="-637" font-family="Helvetica,sans-Serif" font-size="10.00" fill="#000000">_should_match_with_absurdly</text>
<text text-anchor="middle" x="464.5" y="-626" font-family="Helvetica,sans-Serif" font-size="10.00" fill="#000000">_tiny_buffers</text>
</a>
</g>
</g>
<!-- Node302&#45;&gt;Node325 -->
<g id="edge37" class="edge">
<title>Node302&#45;&gt;Node325</title>
<path fill="none" stroke="#191970" d="M309.4654,-376.7403C323.8901,-389.3226 342.4488,-408.0194 353,-428.5 390.5634,-501.413 336.5099,-546.4754 389,-609.5 391.8884,-612.9681 395.2345,-616.038 398.8785,-618.7549"/>
<polygon fill="#191970" stroke="#191970" points="311.4465,-373.833 301.5419,-370.0714 306.9389,-379.1886 311.4465,-373.833"/>
</g>
<!-- Node326 -->
<g id="node27" class="node">
<title>Node326</title>
<g id="a_node27"><a xlink:href="test__heatshrink__dynamic_8c.html#acd64db79d79999a7c5436d35b74a7f40" target="_top" xlink:title="data_with_simple_repetition\l_should_match_with_absurdly\l_tiny_buffers">
<polygon fill="#ffffff" stroke="#000000" points="389,-559 389,-600 540,-600 540,-559 389,-559"/>
<text text-anchor="start" x="397" y="-588" font-family="Helvetica,sans-Serif" font-size="10.00" fill="#000000">data_with_simple_repetition</text>
<text text-anchor="start" x="397" y="-577" font-family="Helvetica,sans-Serif" font-size="10.00" fill="#000000">_should_match_with_absurdly</text>
<text text-anchor="middle" x="464.5" y="-566" font-family="Helvetica,sans-Serif" font-size="10.00" fill="#000000">_tiny_buffers</text>
</a>
</g>
</g>
<!-- Node302&#45;&gt;Node326 -->
<g id="edge39" class="edge">
<title>Node302&#45;&gt;Node326</title>
<path fill="none" stroke="#191970" d="M308.6586,-376.8201C322.8372,-389.5573 341.4421,-408.4137 353,-428.5 380.983,-477.1313 351.131,-508.0996 389,-549.5 392.2367,-553.0385 395.9454,-556.1663 399.9436,-558.93"/>
<polygon fill="#191970" stroke="#191970" points="310.7468,-373.9972 300.9088,-370.0646 306.1471,-379.2739 310.7468,-373.9972"/>
</g>
<!-- Node304 -->
<g id="node5" class="node">
<title>Node304</title>
<g id="a_node5"><a xlink:href="heatshrink_8c.html#a37f19023beced8a782d3051bfd7a0bcb" target="_top" xlink:title="encode">
<polygon fill="#ffffff" stroke="#000000" points="643,-695 643,-714 692,-714 692,-695 643,-695"/>
<text text-anchor="middle" x="667.5" y="-702" font-family="Helvetica,sans-Serif" font-size="10.00" fill="#000000">encode</text>
</a>
</g>
</g>
<!-- Node303&#45;&gt;Node304 -->
<g id="edge4" class="edge">
<title>Node303&#45;&gt;Node304</title>
<path fill="none" stroke="#191970" d="M525.7457,-693.3272C565.0262,-696.4232 613.9052,-700.2758 642.7985,-702.5531"/>
<polygon fill="#191970" stroke="#191970" points="525.9696,-689.8341 515.7255,-692.5375 525.4195,-696.8125 525.9696,-689.8341"/>
</g>
<!-- Node305 -->
<g id="node6" class="node">
<title>Node305</title>
<g id="a_node6"><a xlink:href="heatshrink_8c.html#a3c04138a5bfe5d72780bb7e82a18e627" target="_top" xlink:title="main">
<polygon fill="#ffffff" stroke="#000000" points="799,-695 799,-714 837,-714 837,-695 799,-695"/>
<text text-anchor="middle" x="818" y="-702" font-family="Helvetica,sans-Serif" font-size="10.00" fill="#000000">main</text>
</a>
</g>
</g>
<!-- Node304&#45;&gt;Node305 -->
<g id="edge5" class="edge">
<title>Node304&#45;&gt;Node305</title>
<path fill="none" stroke="#191970" d="M702.0644,-704.5C732.0704,-704.5 774.4177,-704.5 798.7563,-704.5"/>
<polygon fill="#191970" stroke="#191970" points="702.0154,-701.0001 692.0154,-704.5 702.0153,-708.0001 702.0154,-701.0001"/>
</g>
<!-- Node307 -->
<g id="node8" class="node">
<title>Node307</title>
<g id="a_node8"><a xlink:href="test__heatshrink__dynamic_8c.html#ac4a70b7ac22f00448c1d17d2b29a1359" target="_top" xlink:title="SUITE">
<polygon fill="#ffffff" stroke="#000000" points="644.5,-235 644.5,-254 690.5,-254 690.5,-235 644.5,-235"/>
<text text-anchor="middle" x="667.5" y="-242" font-family="Helvetica,sans-Serif" font-size="10.00" fill="#000000">SUITE</text>
</a>
</g>
</g>
<!-- Node306&#45;&gt;Node307 -->
<g id="edge7" class="edge">
<title>Node306&#45;&gt;Node307</title>
<path fill="none" stroke="#191970" d="M529.3785,-33.4893C533.124,-35.5805 536.7022,-37.9088 540,-40.5 610.6067,-95.9779 652.5467,-202.1591 664.1696,-234.7473"/>
<polygon fill="#191970" stroke="#191970" points="530.9018,-30.338 520.3883,-29.0277 527.79,-36.6083 530.9018,-30.338"/>
</g>
<!-- Node308&#45;&gt;Node307 -->
<g id="edge9" class="edge">
<title>Node308&#45;&gt;Node307</title>
<path fill="none" stroke="#191970" d="M529.1973,-155.1792C532.8868,-156.9042 536.5114,-158.6821 540,-160.5 584.1938,-183.5295 632.2395,-218.0362 654.6457,-234.743"/>
<polygon fill="#191970" stroke="#191970" points="530.488,-151.922 519.9327,-151.0076 527.6139,-158.3048 530.488,-151.922"/>
</g>
<!-- Node309&#45;&gt;Node307 -->
<g id="edge11" class="edge">
<title>Node309&#45;&gt;Node307</title>
<path fill="none" stroke="#191970" d="M529.8382,-94.1249C533.3664,-96.1154 536.7805,-98.2395 540,-100.5 596.2951,-140.0269 644.5493,-209.1834 661.2511,-234.6898"/>
<polygon fill="#191970" stroke="#191970" points="531.3641,-90.9734 520.8793,-89.4506 528.1261,-97.1794 531.3641,-90.9734"/>
</g>
<!-- Node310&#45;&gt;Node307 -->
<g id="edge13" class="edge">
<title>Node310&#45;&gt;Node307</title>
<path fill="none" stroke="#191970" d="M539.3677,-210.4155C576.4352,-220.2759 618.6022,-231.4927 644.1181,-238.2802"/>
<polygon fill="#191970" stroke="#191970" points="540.1318,-206.9972 529.5681,-207.8088 538.3323,-213.7619 540.1318,-206.9972"/>
</g>
<!-- Node311&#45;&gt;Node307 -->
<g id="edge15" class="edge">
<title>Node311&#45;&gt;Node307</title>
<path fill="none" stroke="#191970" d="M535.8312,-333.9487C537.2683,-332.8427 538.6608,-331.6936 540,-330.5 565.2354,-308.0079 548.911,-283.7213 576,-263.5 595.7621,-248.748 624.314,-244.8158 644.2509,-244.0555"/>
<polygon fill="#191970" stroke="#191970" points="533.4826,-331.3124 527.1713,-339.8223 537.4119,-337.1056 533.4826,-331.3124"/>
</g>
<!-- Node312&#45;&gt;Node307 -->
<g id="edge17" class="edge">
<title>Node312&#45;&gt;Node307</title>
<path fill="none" stroke="#191970" d="M522.2164,-287.194C528.2584,-285.0383 534.279,-282.7882 540,-280.5 556.4289,-273.9291 559.2205,-269.1157 576,-263.5 598.6167,-255.9307 625.4295,-250.7895 644.1622,-247.7836"/>
<polygon fill="#191970" stroke="#191970" points="521.035,-283.8992 512.7443,-290.4959 523.3392,-290.5091 521.035,-283.8992"/>
</g>
<!-- Node313&#45;&gt;Node307 -->
<g id="edge19" class="edge">
<title>Node313&#45;&gt;Node307</title>
<path fill="none" stroke="#191970" d="M548.8366,-248.0073C583.5645,-246.9809 621.0532,-245.8728 644.3994,-245.1828"/>
<polygon fill="#191970" stroke="#191970" points="548.5416,-244.5144 538.6494,-248.3084 548.7484,-251.5113 548.5416,-244.5144"/>
</g>
<!-- Node315 -->
<g id="node16" class="node">
<title>Node315</title>
<g id="a_node16"><a xlink:href="test__heatshrink__dynamic_8c.html#adc66afa12a5eaae0cd12d5cc497f0f67" target="_top" xlink:title="SUITE">
<polygon fill="#ffffff" stroke="#000000" points="644.5,-733 644.5,-752 690.5,-752 690.5,-733 644.5,-733"/>
<text text-anchor="middle" x="667.5" y="-740" font-family="Helvetica,sans-Serif" font-size="10.00" fill="#000000">SUITE</text>
</a>
</g>
</g>
<!-- Node314&#45;&gt;Node315 -->
<g id="edge21" class="edge">
<title>Node314&#45;&gt;Node315</title>
<path fill="none" stroke="#191970" d="M491.1945,-728.604C531.2559,-731.7615 606.2655,-737.6736 644.2241,-740.6654"/>
<polygon fill="#191970" stroke="#191970" points="491.3565,-725.106 481.1123,-727.8093 490.8064,-732.0844 491.3565,-725.106"/>
</g>
<!-- Node317 -->
<g id="node18" class="node">
<title>Node317</title>
<g id="a_node18"><a xlink:href="test__heatshrink__dynamic_8c.html#a9d63746ee6a963338d09b8a19da82529" target="_top" xlink:title="data_without_duplication\l_should_match">
<polygon fill="#ffffff" stroke="#000000" points="604,-569.5 604,-599.5 731,-599.5 731,-569.5 604,-569.5"/>
<text text-anchor="start" x="612" y="-587.5" font-family="Helvetica,sans-Serif" font-size="10.00" fill="#000000">data_without_duplication</text>
<text text-anchor="middle" x="667.5" y="-576.5" font-family="Helvetica,sans-Serif" font-size="10.00" fill="#000000">_should_match</text>
</a>
</g>
</g>
<!-- Node316&#45;&gt;Node317 -->
<g id="edge23" class="edge">
<title>Node316&#45;&gt;Node317</title>
<path fill="none" stroke="#191970" d="M520.6332,-542.5707C538.3084,-548.1396 557.9313,-554.1977 576,-559.5 587.377,-562.8386 599.5922,-566.2768 611.2742,-569.4944"/>
<polygon fill="#191970" stroke="#191970" points="521.6263,-539.214 511.0363,-539.5351 519.5152,-545.8881 521.6263,-539.214"/>
</g>
<!-- Node319 -->
<g id="node20" class="node">
<title>Node319</title>
<g id="a_node20"><a xlink:href="test__heatshrink__dynamic_8c.html#ae9d1425d6c89a652b9df2b4ddc7ac2a2" target="_top" xlink:title="data_with_simple_repetition\l_should_compress_and_decompress\l_properly">
<polygon fill="#ffffff" stroke="#000000" points="576,-509 576,-550 759,-550 759,-509 576,-509"/>
<text text-anchor="start" x="584" y="-538" font-family="Helvetica,sans-Serif" font-size="10.00" fill="#000000">data_with_simple_repetition</text>
<text text-anchor="start" x="584" y="-527" font-family="Helvetica,sans-Serif" font-size="10.00" fill="#000000">_should_compress_and_decompress</text>
<text text-anchor="middle" x="667.5" y="-516" font-family="Helvetica,sans-Serif" font-size="10.00" fill="#000000">_properly</text>
</a>
</g>
</g>
<!-- Node316&#45;&gt;Node319 -->
<g id="edge25" class="edge">
<title>Node316&#45;&gt;Node319</title>
<path fill="none" stroke="#191970" d="M534.6056,-526.2267C547.9396,-526.5552 562.0754,-526.9033 575.9602,-527.2453"/>
<polygon fill="#191970" stroke="#191970" points="534.6659,-522.7273 524.5827,-525.9799 534.4935,-529.7251 534.6659,-522.7273"/>
</g>
<!-- Node320 -->
<g id="node21" class="node">
<title>Node320</title>
<g id="a_node21"><a xlink:href="test__heatshrink__dynamic_8c.html#a60c0e0c5bbb9715c7932ee82e706752d" target="_top" xlink:title="pseudorandom_data_should\l_match">
<polygon fill="#ffffff" stroke="#000000" points="596,-459.5 596,-489.5 739,-489.5 739,-459.5 596,-459.5"/>
<text text-anchor="start" x="604" y="-477.5" font-family="Helvetica,sans-Serif" font-size="10.00" fill="#000000">pseudorandom_data_should</text>
<text text-anchor="middle" x="667.5" y="-466.5" font-family="Helvetica,sans-Serif" font-size="10.00" fill="#000000">_match</text>
</a>
</g>
</g>
<!-- Node316&#45;&gt;Node320 -->
<g id="edge27" class="edge">
<title>Node316&#45;&gt;Node320</title>
<path fill="none" stroke="#191970" d="M534.4579,-507.269C557.8947,-501.4964 583.8227,-495.1102 606.5175,-489.5203"/>
<polygon fill="#191970" stroke="#191970" points="533.4555,-503.9112 524.5827,-509.7013 535.1296,-510.7081 533.4555,-503.9112"/>
</g>
<!-- Node321 -->
<g id="node22" class="node">
<title>Node321</title>
<g id="a_node22"><a xlink:href="test__heatshrink__dynamic_8c.html#a20e1a72bba941f0c602b93b53d32d5db" target="_top" xlink:title="small_input_buffer\l_should_not_impact_decoder\l_correctness">
<polygon fill="#ffffff" stroke="#000000" points="593.5,-399 593.5,-440 741.5,-440 741.5,-399 593.5,-399"/>
<text text-anchor="start" x="601.5" y="-428" font-family="Helvetica,sans-Serif" font-size="10.00" fill="#000000">small_input_buffer</text>
<text text-anchor="start" x="601.5" y="-417" font-family="Helvetica,sans-Serif" font-size="10.00" fill="#000000">_should_not_impact_decoder</text>
<text text-anchor="middle" x="667.5" y="-406" font-family="Helvetica,sans-Serif" font-size="10.00" fill="#000000">_correctness</text>
</a>
</g>
</g>
<!-- Node316&#45;&gt;Node321 -->
<g id="edge29" class="edge">
<title>Node316&#45;&gt;Node321</title>
<path fill="none" stroke="#191970" d="M534.073,-504.4054C536.1179,-503.1778 538.1,-501.8774 540,-500.5 562.1701,-484.4278 553.9827,-466.7808 576,-450.5 581.2595,-446.6109 587.04,-443.1872 593.0609,-440.1775"/>
<polygon fill="#191970" stroke="#191970" points="531.9652,-501.5611 524.7656,-509.3339 535.241,-507.7473 531.9652,-501.5611"/>
</g>
<!-- Node322 -->
<g id="node23" class="node">
<title>Node322</title>
<g id="a_node23"><a xlink:href="test__heatshrink__dynamic_8c.html#a462faeb904a3de1b1e009a04f7d171d8" target="_top" xlink:title="regression_backreference\l_counters_should_not_roll_over">
<polygon fill="#ffffff" stroke="#000000" points="588,-349.5 588,-379.5 747,-379.5 747,-349.5 588,-349.5"/>
<text text-anchor="start" x="596" y="-367.5" font-family="Helvetica,sans-Serif" font-size="10.00" fill="#000000">regression_backreference</text>
<text text-anchor="middle" x="667.5" y="-356.5" font-family="Helvetica,sans-Serif" font-size="10.00" fill="#000000">_counters_should_not_roll_over</text>
</a>
</g>
</g>
<!-- Node316&#45;&gt;Node322 -->
<g id="edge31" class="edge">
<title>Node316&#45;&gt;Node322</title>
<path fill="none" stroke="#191970" d="M533.1919,-506.2427C535.6123,-504.4999 537.8968,-502.5909 540,-500.5 576.7797,-463.9345 538.4773,-425.3026 576,-389.5 580.0509,-385.6348 584.6397,-382.3554 589.5521,-379.5742"/>
<polygon fill="#191970" stroke="#191970" points="531.2131,-503.3501 524.5053,-511.5511 534.8632,-509.3232 531.2131,-503.3501"/>
</g>
<!-- Node323 -->
<g id="node24" class="node">
<title>Node323</title>
<g id="a_node24"><a xlink:href="test__heatshrink__dynamic_8c.html#a2ed8ea21768d114fa96b07eb58475663" target="_top" xlink:title="regression_index_fail">
<polygon fill="#ffffff" stroke="#000000" points="612,-311 612,-330 723,-330 723,-311 612,-311"/>
<text text-anchor="middle" x="667.5" y="-318" font-family="Helvetica,sans-Serif" font-size="10.00" fill="#000000">regression_index_fail</text>
</a>
</g>
</g>
<!-- Node316&#45;&gt;Node323 -->
<g id="edge33" class="edge">
<title>Node316&#45;&gt;Node323</title>
<path fill="none" stroke="#191970" d="M533.2866,-506.5989C535.6972,-504.7599 537.952,-502.7333 540,-500.5 589.2646,-446.7804 524.3023,-391.8823 576,-340.5 585.5724,-330.986 598.556,-325.5389 611.7326,-322.5216"/>
<polygon fill="#191970" stroke="#191970" points="531.1167,-503.8313 524.5635,-512.1563 534.8779,-509.735 531.1167,-503.8313"/>
</g>
<!-- Node324 -->
<g id="node25" class="node">
<title>Node324</title>
<g id="a_node25"><a xlink:href="test__heatshrink__dynamic_8c.html#a1bfe72da903d55a8610433a4f2a60d43" target="_top" xlink:title="sixty_four_k">
<polygon fill="#ffffff" stroke="#000000" points="632.5,-273 632.5,-292 702.5,-292 702.5,-273 632.5,-273"/>
<text text-anchor="middle" x="667.5" y="-280" font-family="Helvetica,sans-Serif" font-size="10.00" fill="#000000">sixty_four_k</text>
</a>
</g>
</g>
<!-- Node316&#45;&gt;Node324 -->
<g id="edge35" class="edge">
<title>Node316&#45;&gt;Node324</title>
<path fill="none" stroke="#191970" d="M533.4062,-506.7063C535.7845,-504.8382 537.9997,-502.7761 540,-500.5 599.3326,-432.9866 513.2694,-365.8684 576,-301.5 590.3809,-286.7437 613.0122,-281.9523 632.1687,-280.8705"/>
<polygon fill="#191970" stroke="#191970" points="531.2322,-503.9455 524.7671,-512.3391 535.0555,-509.8092 531.2322,-503.9455"/>
</g>
<!-- Node318 -->
<g id="node19" class="node">
<title>Node318</title>
<g id="a_node19"><a xlink:href="test__heatshrink__dynamic_8c.html#a2f157eb23cb17a496326c14e12933b3b" target="_top" xlink:title="SUITE">
<polygon fill="#ffffff" stroke="#000000" points="795,-465 795,-484 841,-484 841,-465 795,-465"/>
<text text-anchor="middle" x="818" y="-472" font-family="Helvetica,sans-Serif" font-size="10.00" fill="#000000">SUITE</text>
</a>
</g>
</g>
<!-- Node317&#45;&gt;Node318 -->
<g id="edge24" class="edge">
<title>Node317&#45;&gt;Node318</title>
<path fill="none" stroke="#191970" d="M740.7398,-569.5986C747.1973,-566.7931 753.3986,-563.4599 759,-559.5 787.1631,-539.5903 806.269,-501.7326 814.0618,-484.0482"/>
<polygon fill="#191970" stroke="#191970" points="739.1811,-566.4496 731.1355,-573.3429 741.7238,-572.9715 739.1811,-566.4496"/>
</g>
<!-- Node319&#45;&gt;Node318 -->
<g id="edge26" class="edge">
<title>Node319&#45;&gt;Node318</title>
<path fill="none" stroke="#191970" d="M742.2881,-505.5525C747.9628,-503.5606 753.5851,-501.5308 759,-499.5 771.6036,-494.7731 785.4737,-488.9295 796.5974,-484.0808"/>
<polygon fill="#191970" stroke="#191970" points="741.0227,-502.2867 732.7157,-508.8626 743.3104,-508.9023 741.0227,-502.2867"/>
</g>
<!-- Node320&#45;&gt;Node318 -->
<g id="edge28" class="edge">
<title>Node320&#45;&gt;Node318</title>
<path fill="none" stroke="#191970" d="M749.6083,-474.5C766.24,-474.5 782.4212,-474.5 794.8656,-474.5"/>
<polygon fill="#191970" stroke="#191970" points="749.2238,-471.0001 739.2238,-474.5 749.2238,-478.0001 749.2238,-471.0001"/>
</g>
<!-- Node321&#45;&gt;Node318 -->
<g id="edge30" class="edge">
<title>Node321&#45;&gt;Node318</title>
<path fill="none" stroke="#191970" d="M739.4144,-443.4109C746.0542,-445.7551 752.6638,-448.1403 759,-450.5 771.1245,-455.0153 784.4902,-460.4164 795.4301,-464.9505"/>
<polygon fill="#191970" stroke="#191970" points="740.2879,-440.0086 729.6931,-440.0134 737.9784,-446.6167 740.2879,-440.0086"/>
</g>
<!-- Node322&#45;&gt;Node318 -->
<g id="edge32" class="edge">
<title>Node322&#45;&gt;Node318</title>
<path fill="none" stroke="#191970" d="M750.0532,-383.9423C753.16,-385.6421 756.1573,-387.4903 759,-389.5 787.1631,-409.4097 806.269,-447.2674 814.0618,-464.9518"/>
<polygon fill="#191970" stroke="#191970" points="751.5655,-380.7858 741.0448,-379.5344 748.4889,-387.0735 751.5655,-380.7858"/>
</g>
<!-- Node323&#45;&gt;Node318 -->
<g id="edge34" class="edge">
<title>Node323&#45;&gt;Node318</title>
<path fill="none" stroke="#191970" d="M732.9423,-326.8381C742.375,-329.9254 751.4336,-334.3107 759,-340.5 799.5307,-373.6538 813.0361,-440.2187 816.7655,-464.9558"/>
<polygon fill="#191970" stroke="#191970" points="733.5966,-323.3871 723.0238,-324.0695 731.7146,-330.1293 733.5966,-323.3871"/>
</g>
<!-- Node324&#45;&gt;Node318 -->
<g id="edge36" class="edge">
<title>Node324&#45;&gt;Node318</title>
<path fill="none" stroke="#191970" d="M713.2777,-282.9251C729.3704,-285.2486 746.5305,-290.4875 759,-301.5 784.6882,-324.1868 809.0305,-431.7507 816.0103,-464.8106"/>
<polygon fill="#191970" stroke="#191970" points="713.239,-279.3999 702.9168,-281.7878 712.4751,-286.3581 713.239,-279.3999"/>
</g>
<!-- Node325&#45;&gt;Node318 -->
<g id="edge38" class="edge">
<title>Node325&#45;&gt;Node318</title>
<path fill="none" stroke="#191970" d="M549.7456,-661.9289C613.224,-673.372 698.9336,-677.1327 759,-634.5 784.9538,-616.079 808.9283,-515.7455 815.9418,-484.08"/>
<polygon fill="#191970" stroke="#191970" points="550.2333,-658.459 539.7559,-660.0323 548.9276,-665.3362 550.2333,-658.459"/>
</g>
<!-- Node326&#45;&gt;Node318 -->
<g id="edge40" class="edge">
<title>Node326&#45;&gt;Node318</title>
<path fill="none" stroke="#191970" d="M539.0698,-602.4476C551.3018,-605.3757 563.9255,-607.904 576,-609.5 656.632,-620.1578 690.9404,-654.0309 759,-609.5 803.3056,-580.5112 814.5363,-510.1365 817.2124,-484.2582"/>
<polygon fill="#191970" stroke="#191970" points="539.9119,-599.0505 529.3618,-600.0238 538.2161,-605.842 539.9119,-599.0505"/>
</g>
<!-- Node327&#45;&gt;Node303 -->
<g id="edge42" class="edge">
<title>Node327&#45;&gt;Node303</title>
<path fill="none" stroke="#191970" d="M291.9999,-467.176C299.6979,-510.653 324.3001,-615.3292 389,-669.5 395.9435,-675.3136 404.4241,-679.3855 413.1615,-682.2293"/>
<polygon fill="#191970" stroke="#191970" points="295.4487,-466.579 290.3585,-457.2871 288.5432,-467.7252 295.4487,-466.579"/>
</g>
<!-- Node327&#45;&gt;Node310 -->
<g id="edge47" class="edge">
<title>Node327&#45;&gt;Node310</title>
<path fill="none" stroke="#191970" d="M309.3059,-431.1761C323.651,-418.5522 342.1801,-399.8399 353,-379.5 387.0279,-315.5322 341.9022,-275.5597 389,-220.5 392.0255,-216.963 395.5256,-213.8394 399.3276,-211.0813"/>
<polygon fill="#191970" stroke="#191970" points="306.7833,-428.7269 301.4331,-437.8716 311.3183,-434.0593 306.7833,-428.7269"/>
</g>
<!-- Node327&#45;&gt;Node311 -->
<g id="edge48" class="edge">
<title>Node327&#45;&gt;Node311</title>
<path fill="none" stroke="#191970" d="M312.9491,-432.5863C332.8955,-420.4752 362.2578,-403.3568 389,-390.5 395.7372,-387.261 402.9209,-384.0772 410.0774,-381.0647"/>
<polygon fill="#191970" stroke="#191970" points="310.9286,-429.7195 304.2286,-437.9269 314.5844,-435.689 310.9286,-429.7195"/>
</g>
<!-- Node327&#45;&gt;Node312 -->
<g id="edge49" class="edge">
<title>Node327&#45;&gt;Node312</title>
<path fill="none" stroke="#191970" d="M306.0544,-430.548C319.3073,-417.1021 337.9106,-397.6209 353,-379.5 370.2924,-358.7336 367.1398,-346.3872 389,-330.5 394.2496,-326.6848 400.1165,-323.4278 406.197,-320.6527"/>
<polygon fill="#191970" stroke="#191970" points="303.5023,-428.1508 298.9366,-437.7114 308.4678,-433.0847 303.5023,-428.1508"/>
</g>
<!-- Node327&#45;&gt;Node313 -->
<g id="edge50" class="edge">
<title>Node327&#45;&gt;Node313</title>
<path fill="none" stroke="#191970" d="M308.5386,-430.7356C322.5012,-417.892 340.8878,-399.0979 353,-379.5 377.3946,-340.0286 356.8113,-314.9211 389,-281.5 392.7352,-277.6218 397.025,-274.2119 401.6226,-271.2167"/>
<polygon fill="#191970" stroke="#191970" points="306.0218,-428.2912 300.9097,-437.5711 310.6931,-433.5046 306.0218,-428.2912"/>
</g>
<!-- Node327&#45;&gt;Node314 -->
<g id="edge51" class="edge">
<title>Node327&#45;&gt;Node314</title>
<path fill="none" stroke="#191970" d="M290.552,-467.1294C295.475,-515.6495 315.1099,-642.0264 389,-707.5 405.2872,-721.932 430.9501,-725.7262 447.7539,-726.5547"/>
<polygon fill="#191970" stroke="#191970" points="294.025,-466.6735 289.6312,-457.0327 287.0539,-467.3093 294.025,-466.6735"/>
</g>
<!-- Node327&#45;&gt;Node316 -->
<g id="edge52" class="edge">
<title>Node327&#45;&gt;Node316</title>
<path fill="none" stroke="#191970" d="M313.5636,-462.1174C333.445,-473.5534 362.413,-489.3353 389,-500.5 396.6087,-503.6951 404.7982,-506.7109 412.8782,-509.4559"/>
<polygon fill="#191970" stroke="#191970" points="315.2507,-459.0497 304.8469,-457.0465 311.7307,-465.1003 315.2507,-459.0497"/>
</g>
<!-- Node327&#45;&gt;Node325 -->
<g id="edge53" class="edge">
<title>Node327&#45;&gt;Node325</title>
<path fill="none" stroke="#191970" d="M296.2161,-466.9496C309.5806,-500.486 341.245,-569.4401 389,-609.5 393.2143,-613.0352 397.8968,-616.1896 402.8071,-618.9971"/>
<polygon fill="#191970" stroke="#191970" points="299.3907,-465.4545 292.5227,-457.3872 292.8608,-467.9766 299.3907,-465.4545"/>
</g>
<!-- Node327&#45;&gt;Node326 -->
<g id="edge54" class="edge">
<title>Node327&#45;&gt;Node326</title>
<path fill="none" stroke="#191970" d="M302.443,-465.2106C320.1536,-487.5021 353.2671,-525.7421 389,-549.5 394.168,-552.936 399.7898,-556.0772 405.5568,-558.9233"/>
<polygon fill="#191970" stroke="#191970" points="305.1434,-462.9818 296.2343,-457.2478 299.6231,-467.286 305.1434,-462.9818"/>
</g>
<!-- Node328 -->
<g id="node29" class="node">
<title>Node328</title>
<g id="a_node29"><a xlink:href="test__heatshrink__dynamic_8c.html#ade6da42ddec3e9a2d8fe58597792b843" target="_top" xlink:title="encoder_poll_should\l_reject_nulls">
<polygon fill="#ffffff" stroke="#000000" points="410,-460.5 410,-490.5 519,-490.5 519,-460.5 410,-460.5"/>
<text text-anchor="start" x="418" y="-478.5" font-family="Helvetica,sans-Serif" font-size="10.00" fill="#000000">encoder_poll_should</text>
<text text-anchor="middle" x="464.5" y="-467.5" font-family="Helvetica,sans-Serif" font-size="10.00" fill="#000000">_reject_nulls</text>
</a>
</g>
</g>
<!-- Node327&#45;&gt;Node328 -->
<g id="edge43" class="edge">
<title>Node327&#45;&gt;Node328</title>
<path fill="none" stroke="#191970" d="M358.7814,-458.6332C375.7725,-461.344 393.7026,-464.2047 409.8737,-466.7847"/>
<polygon fill="#191970" stroke="#191970" points="359.3329,-455.177 348.9063,-457.0577 358.2299,-462.0896 359.3329,-455.177"/>
</g>
<!-- Node329 -->
<g id="node30" class="node">
<title>Node329</title>
<g id="a_node30"><a xlink:href="test__heatshrink__dynamic_8c.html#aa662e805dae6d002db06dc962e7440f9" target="_top" xlink:title="encoder_poll_should\l_indicate_when_no_input\l_is_provided">
<polygon fill="#ffffff" stroke="#000000" points="399.5,-400 399.5,-441 529.5,-441 529.5,-400 399.5,-400"/>
<text text-anchor="start" x="407.5" y="-429" font-family="Helvetica,sans-Serif" font-size="10.00" fill="#000000">encoder_poll_should</text>
<text text-anchor="start" x="407.5" y="-418" font-family="Helvetica,sans-Serif" font-size="10.00" fill="#000000">_indicate_when_no_input</text>
<text text-anchor="middle" x="464.5" y="-407" font-family="Helvetica,sans-Serif" font-size="10.00" fill="#000000">_is_provided</text>
</a>
</g>
</g>
<!-- Node327&#45;&gt;Node329 -->
<g id="edge45" class="edge">
<title>Node327&#45;&gt;Node329</title>
<path fill="none" stroke="#191970" d="M360.9448,-436.4316C373.6501,-434.4769 386.8126,-432.4519 399.3188,-430.5279"/>
<polygon fill="#191970" stroke="#191970" points="360.2262,-433.0009 350.8747,-437.9808 361.2907,-439.9195 360.2262,-433.0009"/>
</g>
<!-- Node328&#45;&gt;Node307 -->
<g id="edge44" class="edge">
<title>Node328&#45;&gt;Node307</title>
<path fill="none" stroke="#191970" d="M528.0486,-460.5174C532.4872,-457.7272 536.5578,-454.4198 540,-450.5 595.8473,-386.9033 516.5895,-323.7815 576,-263.5 593.6522,-245.589 623.4719,-242.4019 644.2538,-242.6749"/>
<polygon fill="#191970" stroke="#191970" points="526.3072,-457.4794 519.1279,-465.271 529.5991,-463.6571 526.3072,-457.4794"/>
</g>
<!-- Node329&#45;&gt;Node307 -->
<g id="edge46" class="edge">
<title>Node329&#45;&gt;Node307</title>
<path fill="none" stroke="#191970" d="M537.1791,-393.4055C538.1545,-392.4692 539.0962,-391.5011 540,-390.5 579.316,-346.9543 533.0594,-303.476 576,-263.5 594.2873,-246.4752 623.6845,-243.0577 644.2072,-243.0371"/>
<polygon fill="#191970" stroke="#191970" points="534.6529,-390.9489 529.1083,-399.9771 539.0728,-396.3771 534.6529,-390.9489"/>
</g>
</g>
</svg>
