<?xml version="1.0" encoding="UTF-8" standalone="no"?>
<!DOCTYPE svg PUBLIC "-//W3C//DTD SVG 1.1//EN"
 "http://www.w3.org/Graphics/SVG/1.1/DTD/svg11.dtd">
<!-- Generated by graphviz version 2.39.20160927.1334 (20160927.1334)
 -->
<!-- Title: st_yield_tag_bit Pages: 1 -->
<svg width="743pt" height="680pt"
 viewBox="0.00 0.00 743.00 680.23" xmlns="http://www.w3.org/2000/svg" xmlns:xlink="http://www.w3.org/1999/xlink">
<g id="graph0" class="graph" transform="scale(1 1) rotate(0) translate(4 676.227)">
<title>st_yield_tag_bit</title>
<polygon fill="#ffffff" stroke="transparent" points="-4,4 -4,-676.227 739,-676.227 739,4 -4,4"/>
<!-- Node1 -->
<g id="node1" class="node">
<title>Node1</title>
<polygon fill="#bfbfbf" stroke="#000000" points="0,-378.727 0,-397.727 86,-397.727 86,-378.727 0,-378.727"/>
<text text-anchor="middle" x="43" y="-385.727" font-family="Helvetica,sans-Serif" font-size="10.00" fill="#000000">st_yield_tag_bit</text>
</g>
<!-- Node2 -->
<g id="node2" class="node">
<title>Node2</title>
<g id="a_node2"><a xlink:href="heatshrink__encoder_8h.html#a7de708b2cb0d016d9183b0addf6126f3" target="_top" xlink:title="heatshrink_encoder_poll">
<polygon fill="#ffffff" stroke="#000000" points="122,-378.727 122,-397.727 247,-397.727 247,-378.727 122,-378.727"/>
<text text-anchor="middle" x="184.5" y="-385.727" font-family="Helvetica,sans-Serif" font-size="10.00" fill="#000000">heatshrink_encoder_poll</text>
</a>
</g>
</g>
<!-- Node1&#45;&gt;Node2 -->
<g id="edge1" class="edge">
<title>Node1&#45;&gt;Node2</title>
<path fill="none" stroke="#191970" d="M96.465,-388.227C104.721,-388.227 113.311,-388.227 121.747,-388.227"/>
<polygon fill="#191970" stroke="#191970" points="96.2236,-384.727 86.2235,-388.227 96.2235,-391.727 96.2236,-384.727"/>
</g>
<!-- Node3 -->
<g id="node3" class="node">
<title>Node3</title>
<g id="a_node3"><a xlink:href="heatshrink_8c.html#a593e86bba4eca0be280740fcf509bc12" target="_top" xlink:title="encoder_sink_read">
<polygon fill="#ffffff" stroke="#000000" points="307.5,-652.727 307.5,-671.727 409.5,-671.727 409.5,-652.727 307.5,-652.727"/>
<text text-anchor="middle" x="358.5" y="-659.727" font-family="Helvetica,sans-Serif" font-size="10.00" fill="#000000">encoder_sink_read</text>
</a>
</g>
</g>
<!-- Node2&#45;&gt;Node3 -->
<g id="edge2" class="edge">
<title>Node2&#45;&gt;Node3</title>
<path fill="none" stroke="#191970" d="M186.09,-407.806C191.058,-455.634 210.609,-579.174 283,-643.227 289.883,-649.317 298.437,-653.513 307.288,-656.39"/>
<polygon fill="#191970" stroke="#191970" points="189.573,-407.462 185.157,-397.832 182.604,-408.115 189.573,-407.462"/>
</g>
<!-- Node6 -->
<g id="node6" class="node">
<title>Node6</title>
<g id="a_node6"><a xlink:href="test__heatshrink__dynamic_8c.html#ade6da42ddec3e9a2d8fe58597792b843" target="_top" xlink:title="encoder_poll_should\l_reject_nulls">
<polygon fill="#ffffff" stroke="#000000" points="304,-603.227 304,-633.227 413,-633.227 413,-603.227 304,-603.227"/>
<text text-anchor="start" x="312" y="-621.227" font-family="Helvetica,sans-Serif" font-size="10.00" fill="#000000">encoder_poll_should</text>
<text text-anchor="middle" x="358.5" y="-610.227" font-family="Helvetica,sans-Serif" font-size="10.00" fill="#000000">_reject_nulls</text>
</a>
</g>
</g>
<!-- Node2&#45;&gt;Node6 -->
<g id="edge5" class="edge">
<title>Node2&#45;&gt;Node6</title>
<path fill="none" stroke="#191970" d="M188.544,-407.983C197.876,-448.606 224.729,-541.983 283,-593.227 289.014,-598.515 296.178,-602.691 303.663,-605.986"/>
<polygon fill="#191970" stroke="#191970" points="191.918,-407.026 186.365,-398.003 185.079,-408.52 191.918,-407.026"/>
</g>
<!-- Node8 -->
<g id="node8" class="node">
<title>Node8</title>
<g id="a_node8"><a xlink:href="test__heatshrink__dynamic_8c.html#aa662e805dae6d002db06dc962e7440f9" target="_top" xlink:title="encoder_poll_should\l_indicate_when_no_input\l_is_provided">
<polygon fill="#ffffff" stroke="#000000" points="293.5,-542.727 293.5,-583.727 423.5,-583.727 423.5,-542.727 293.5,-542.727"/>
<text text-anchor="start" x="301.5" y="-571.727" font-family="Helvetica,sans-Serif" font-size="10.00" fill="#000000">encoder_poll_should</text>
<text text-anchor="start" x="301.5" y="-560.727" font-family="Helvetica,sans-Serif" font-size="10.00" fill="#000000">_indicate_when_no_input</text>
<text text-anchor="middle" x="358.5" y="-549.727" font-family="Helvetica,sans-Serif" font-size="10.00" fill="#000000">_is_provided</text>
</a>
</g>
</g>
<!-- Node2&#45;&gt;Node8 -->
<g id="edge7" class="edge">
<title>Node2&#45;&gt;Node8</title>
<path fill="none" stroke="#191970" d="M192.855,-407.287C207.144,-437.851 239.047,-497.962 283,-533.227 287.291,-536.669 292.026,-539.759 296.971,-542.524"/>
<polygon fill="#191970" stroke="#191970" points="195.867,-405.454 188.544,-397.797 189.493,-408.349 195.867,-405.454"/>
</g>
<!-- Node9 -->
<g id="node9" class="node">
<title>Node9</title>
<g id="a_node9"><a xlink:href="test__heatshrink__dynamic_8c.html#a5339595930b85317e810fcf251b86351" target="_top" xlink:title="encoder_should_emit\l_data_without_repetitions\l_as_literal_sequence">
<polygon fill="#ffffff" stroke="#000000" points="293.5,-482.727 293.5,-523.727 423.5,-523.727 423.5,-482.727 293.5,-482.727"/>
<text text-anchor="start" x="301.5" y="-511.727" font-family="Helvetica,sans-Serif" font-size="10.00" fill="#000000">encoder_should_emit</text>
<text text-anchor="start" x="301.5" y="-500.727" font-family="Helvetica,sans-Serif" font-size="10.00" fill="#000000">_data_without_repetitions</text>
<text text-anchor="middle" x="358.5" y="-489.727" font-family="Helvetica,sans-Serif" font-size="10.00" fill="#000000">_as_literal_sequence</text>
</a>
</g>
</g>
<!-- Node2&#45;&gt;Node9 -->
<g id="edge9" class="edge">
<title>Node2&#45;&gt;Node9</title>
<path fill="none" stroke="#191970" d="M200.491,-405.064C218.944,-423.727 250.89,-453.756 283,-473.227 288.548,-476.591 294.54,-479.714 300.637,-482.576"/>
<polygon fill="#191970" stroke="#191970" points="202.93,-402.552 193.448,-397.826 197.913,-407.433 202.93,-402.552"/>
</g>
<!-- Node10 -->
<g id="node10" class="node">
<title>Node10</title>
<g id="a_node10"><a xlink:href="test__heatshrink__dynamic_8c.html#ae27157a664552fa0744d095239ee0d88" target="_top" xlink:title="encoder_should_emit\l_series_of_same_byte\l_as_literal_then_backref">
<polygon fill="#ffffff" stroke="#000000" points="296,-422.727 296,-463.727 421,-463.727 421,-422.727 296,-422.727"/>
<text text-anchor="start" x="304" y="-451.727" font-family="Helvetica,sans-Serif" font-size="10.00" fill="#000000">encoder_should_emit</text>
<text text-anchor="start" x="304" y="-440.727" font-family="Helvetica,sans-Serif" font-size="10.00" fill="#000000">_series_of_same_byte</text>
<text text-anchor="middle" x="358.5" y="-429.727" font-family="Helvetica,sans-Serif" font-size="10.00" fill="#000000">_as_literal_then_backref</text>
</a>
</g>
</g>
<!-- Node2&#45;&gt;Node10 -->
<g id="edge11" class="edge">
<title>Node2&#45;&gt;Node10</title>
<path fill="none" stroke="#191970" d="M224.416,-400.844C245.543,-407.522 271.971,-415.875 295.767,-423.397"/>
<polygon fill="#191970" stroke="#191970" points="225.398,-397.484 214.808,-397.807 223.289,-404.158 225.398,-397.484"/>
</g>
<!-- Node11 -->
<g id="node11" class="node">
<title>Node11</title>
<g id="a_node11"><a xlink:href="test__heatshrink__dynamic_8c.html#a2d84dd546b011bb6cfc3b1e9a9a5616b" target="_top" xlink:title="encoder_poll_should\l_detect_repeated_substring">
<polygon fill="#ffffff" stroke="#000000" points="288.5,-373.227 288.5,-403.227 428.5,-403.227 428.5,-373.227 288.5,-373.227"/>
<text text-anchor="start" x="296.5" y="-391.227" font-family="Helvetica,sans-Serif" font-size="10.00" fill="#000000">encoder_poll_should</text>
<text text-anchor="middle" x="358.5" y="-380.227" font-family="Helvetica,sans-Serif" font-size="10.00" fill="#000000">_detect_repeated_substring</text>
</a>
</g>
</g>
<!-- Node2&#45;&gt;Node11 -->
<g id="edge13" class="edge">
<title>Node2&#45;&gt;Node11</title>
<path fill="none" stroke="#191970" d="M257.453,-388.227C267.698,-388.227 278.211,-388.227 288.401,-388.227"/>
<polygon fill="#191970" stroke="#191970" points="257.318,-384.727 247.318,-388.227 257.318,-391.727 257.318,-384.727"/>
</g>
<!-- Node12 -->
<g id="node12" class="node">
<title>Node12</title>
<g id="a_node12"><a xlink:href="test__heatshrink__dynamic_8c.html#ab068727669a416029bacc708b2aac5ac" target="_top" xlink:title="encoder_poll_should\l_detect_repeated_substring\l_and_preserve_trailing_literal">
<polygon fill="#ffffff" stroke="#000000" points="284.5,-312.727 284.5,-353.727 432.5,-353.727 432.5,-312.727 284.5,-312.727"/>
<text text-anchor="start" x="292.5" y="-341.727" font-family="Helvetica,sans-Serif" font-size="10.00" fill="#000000">encoder_poll_should</text>
<text text-anchor="start" x="292.5" y="-330.727" font-family="Helvetica,sans-Serif" font-size="10.00" fill="#000000">_detect_repeated_substring</text>
<text text-anchor="middle" x="358.5" y="-319.727" font-family="Helvetica,sans-Serif" font-size="10.00" fill="#000000">_and_preserve_trailing_literal</text>
</a>
</g>
</g>
<!-- Node2&#45;&gt;Node12 -->
<g id="edge15" class="edge">
<title>Node2&#45;&gt;Node12</title>
<path fill="none" stroke="#191970" d="M224.432,-375.604C244.915,-369.13 270.378,-361.081 293.593,-353.743"/>
<polygon fill="#191970" stroke="#191970" points="223.289,-372.295 214.808,-378.646 225.398,-378.97 223.289,-372.295"/>
</g>
<!-- Node13 -->
<g id="node13" class="node">
<title>Node13</title>
<g id="a_node13"><a xlink:href="test__heatshrink__dynamic_8c.html#a6627d0e00f7e636ae9294cc6255c7ffd" target="_top" xlink:title="gen">
<polygon fill="#ffffff" stroke="#000000" points="342,-274.727 342,-293.727 375,-293.727 375,-274.727 342,-274.727"/>
<text text-anchor="middle" x="358.5" y="-281.727" font-family="Helvetica,sans-Serif" font-size="10.00" fill="#000000">gen</text>
</a>
</g>
</g>
<!-- Node2&#45;&gt;Node13 -->
<g id="edge17" class="edge">
<title>Node2&#45;&gt;Node13</title>
<path fill="none" stroke="#191970" d="M199.479,-371.203C217.43,-351.863 249.328,-320.725 283,-303.227 301.83,-293.442 325.96,-288.512 341.808,-286.163"/>
<polygon fill="#191970" stroke="#191970" points="196.807,-368.939 192.675,-378.695 201.989,-373.645 196.807,-368.939"/>
</g>
<!-- Node15 -->
<g id="node15" class="node">
<title>Node15</title>
<g id="a_node15"><a xlink:href="test__heatshrink__dynamic_8c.html#ab9096be17a9dc8f301673949558e5bd6" target="_top" xlink:title="compress_and_expand\l_and_check">
<polygon fill="#ffffff" stroke="#000000" points="298.5,-225.227 298.5,-255.227 418.5,-255.227 418.5,-225.227 298.5,-225.227"/>
<text text-anchor="start" x="306.5" y="-243.227" font-family="Helvetica,sans-Serif" font-size="10.00" fill="#000000">compress_and_expand</text>
<text text-anchor="middle" x="358.5" y="-232.227" font-family="Helvetica,sans-Serif" font-size="10.00" fill="#000000">_and_check</text>
</a>
</g>
</g>
<!-- Node2&#45;&gt;Node15 -->
<g id="edge19" class="edge">
<title>Node2&#45;&gt;Node15</title>
<path fill="none" stroke="#191970" d="M194.494,-369.931C210.013,-343.167 242.393,-293.467 283,-265.227 288.555,-261.364 294.749,-258.064 301.134,-255.253"/>
<polygon fill="#191970" stroke="#191970" points="191.427,-368.243 189.555,-378.671 197.522,-371.686 191.427,-368.243"/>
</g>
<!-- Node24 -->
<g id="node24" class="node">
<title>Node24</title>
<g id="a_node24"><a xlink:href="test__heatshrink__dynamic_8c.html#a9a102029b8375d4050406a2814f390ac" target="_top" xlink:title="data_without_duplication\l_should_match_with_absurdly\l_tiny_buffers">
<polygon fill="#ffffff" stroke="#000000" points="486,-37.7266 486,-78.7266 637,-78.7266 637,-37.7266 486,-37.7266"/>
<text text-anchor="start" x="494" y="-66.7266" font-family="Helvetica,sans-Serif" font-size="10.00" fill="#000000">data_without_duplication</text>
<text text-anchor="start" x="494" y="-55.7266" font-family="Helvetica,sans-Serif" font-size="10.00" fill="#000000">_should_match_with_absurdly</text>
<text text-anchor="middle" x="561.5" y="-44.7266" font-family="Helvetica,sans-Serif" font-size="10.00" fill="#000000">_tiny_buffers</text>
</a>
</g>
</g>
<!-- Node2&#45;&gt;Node24 -->
<g id="edge34" class="edge">
<title>Node2&#45;&gt;Node24</title>
<path fill="none" stroke="#191970" d="M191.991,-369.004C205.938,-335.007 238.555,-263.329 283,-215.227 351.179,-141.436 379.831,-132.532 470,-88.2266 476.902,-84.8354 484.278,-81.6942 491.734,-78.8228"/>
<polygon fill="#191970" stroke="#191970" points="188.6,-368.056 188.127,-378.64 195.097,-370.661 188.6,-368.056"/>
</g>
<!-- Node25 -->
<g id="node25" class="node">
<title>Node25</title>
<g id="a_node25"><a xlink:href="test__heatshrink__dynamic_8c.html#acd64db79d79999a7c5436d35b74a7f40" target="_top" xlink:title="data_with_simple_repetition\l_should_match_with_absurdly\l_tiny_buffers">
<polygon fill="#ffffff" stroke="#000000" points="283,-32.7266 283,-73.7266 434,-73.7266 434,-32.7266 283,-32.7266"/>
<text text-anchor="start" x="291" y="-61.7266" font-family="Helvetica,sans-Serif" font-size="10.00" fill="#000000">data_with_simple_repetition</text>
<text text-anchor="start" x="291" y="-50.7266" font-family="Helvetica,sans-Serif" font-size="10.00" fill="#000000">_should_match_with_absurdly</text>
<text text-anchor="middle" x="358.5" y="-39.7266" font-family="Helvetica,sans-Serif" font-size="10.00" fill="#000000">_tiny_buffers</text>
</a>
</g>
</g>
<!-- Node2&#45;&gt;Node25 -->
<g id="edge36" class="edge">
<title>Node2&#45;&gt;Node25</title>
<path fill="none" stroke="#191970" d="M190.696,-368.597C204.258,-326.948 238.91,-227.317 283,-151.227 299.582,-122.608 323.536,-92.9575 339.991,-73.8727"/>
<polygon fill="#191970" stroke="#191970" points="187.301,-367.724 187.574,-378.315 193.965,-369.865 187.301,-367.724"/>
</g>
<!-- Node4 -->
<g id="node4" class="node">
<title>Node4</title>
<g id="a_node4"><a xlink:href="heatshrink_8c.html#a37f19023beced8a782d3051bfd7a0bcb" target="_top" xlink:title="encode">
<polygon fill="#ffffff" stroke="#000000" points="537,-652.727 537,-671.727 586,-671.727 586,-652.727 537,-652.727"/>
<text text-anchor="middle" x="561.5" y="-659.727" font-family="Helvetica,sans-Serif" font-size="10.00" fill="#000000">encode</text>
</a>
</g>
</g>
<!-- Node3&#45;&gt;Node4 -->
<g id="edge3" class="edge">
<title>Node3&#45;&gt;Node4</title>
<path fill="none" stroke="#191970" d="M419.746,-662.227C459.026,-662.227 507.905,-662.227 536.798,-662.227"/>
<polygon fill="#191970" stroke="#191970" points="419.726,-658.727 409.725,-662.227 419.725,-665.727 419.726,-658.727"/>
</g>
<!-- Node5 -->
<g id="node5" class="node">
<title>Node5</title>
<g id="a_node5"><a xlink:href="heatshrink_8c.html#a3c04138a5bfe5d72780bb7e82a18e627" target="_top" xlink:title="main">
<polygon fill="#ffffff" stroke="#000000" points="693,-652.727 693,-671.727 731,-671.727 731,-652.727 693,-652.727"/>
<text text-anchor="middle" x="712" y="-659.727" font-family="Helvetica,sans-Serif" font-size="10.00" fill="#000000">main</text>
</a>
</g>
</g>
<!-- Node4&#45;&gt;Node5 -->
<g id="edge4" class="edge">
<title>Node4&#45;&gt;Node5</title>
<path fill="none" stroke="#191970" d="M596.064,-662.227C626.07,-662.227 668.418,-662.227 692.756,-662.227"/>
<polygon fill="#191970" stroke="#191970" points="596.015,-658.727 586.015,-662.227 596.015,-665.727 596.015,-658.727"/>
</g>
<!-- Node7 -->
<g id="node7" class="node">
<title>Node7</title>
<g id="a_node7"><a xlink:href="test__heatshrink__dynamic_8c.html#ac4a70b7ac22f00448c1d17d2b29a1359" target="_top" xlink:title="SUITE">
<polygon fill="#ffffff" stroke="#000000" points="538.5,-485.727 538.5,-504.727 584.5,-504.727 584.5,-485.727 538.5,-485.727"/>
<text text-anchor="middle" x="561.5" y="-492.727" font-family="Helvetica,sans-Serif" font-size="10.00" fill="#000000">SUITE</text>
</a>
</g>
</g>
<!-- Node6&#45;&gt;Node7 -->
<g id="edge6" class="edge">
<title>Node6&#45;&gt;Node7</title>
<path fill="none" stroke="#191970" d="M421.414,-599.217C425.744,-597.355 429.98,-595.358 434,-593.227 482.098,-567.723 530.899,-524.212 551.425,-504.924"/>
<polygon fill="#191970" stroke="#191970" points="419.801,-596.093 411.833,-603.076 422.416,-602.586 419.801,-596.093"/>
</g>
<!-- Node8&#45;&gt;Node7 -->
<g id="edge8" class="edge">
<title>Node8&#45;&gt;Node7</title>
<path fill="none" stroke="#191970" d="M429.505,-539.442C467.654,-526.663 512.139,-511.761 538.5,-502.931"/>
<polygon fill="#191970" stroke="#191970" points="428.328,-536.145 419.958,-542.64 430.551,-542.782 428.328,-536.145"/>
</g>
<!-- Node9&#45;&gt;Node7 -->
<g id="edge10" class="edge">
<title>Node9&#45;&gt;Node7</title>
<path fill="none" stroke="#191970" d="M433.841,-500.258C470.794,-498.801 512.711,-497.149 538.118,-496.148"/>
<polygon fill="#191970" stroke="#191970" points="433.422,-496.771 423.568,-500.662 433.698,-503.766 433.422,-496.771"/>
</g>
<!-- Node10&#45;&gt;Node7 -->
<g id="edge12" class="edge">
<title>Node10&#45;&gt;Node7</title>
<path fill="none" stroke="#191970" d="M431.084,-462.197C444.039,-465.556 457.415,-469.008 470,-472.227 493.169,-478.151 519.672,-484.799 538.17,-489.418"/>
<polygon fill="#191970" stroke="#191970" points="431.838,-458.776 421.279,-459.651 430.078,-465.552 431.838,-458.776"/>
</g>
<!-- Node11&#45;&gt;Node7 -->
<g id="edge14" class="edge">
<title>Node11&#45;&gt;Node7</title>
<path fill="none" stroke="#191970" d="M426.786,-408.169C429.302,-409.732 431.72,-411.415 434,-413.227 458.052,-432.335 445.262,-454.015 470,-472.227 490.05,-486.987 518.548,-492.328 538.393,-494.231"/>
<polygon fill="#191970" stroke="#191970" points="428.358,-405.04 417.907,-403.304 424.995,-411.178 428.358,-405.04"/>
</g>
<!-- Node12&#45;&gt;Node7 -->
<g id="edge16" class="edge">
<title>Node12&#45;&gt;Node7</title>
<path fill="none" stroke="#191970" d="M431.12,-360.375C432.114,-361.295 433.075,-362.245 434,-363.227 468.991,-400.354 432.637,-437.487 470,-472.227 488.473,-489.403 517.833,-494.237 538.296,-495.363"/>
<polygon fill="#191970" stroke="#191970" points="432.953,-357.363 422.938,-353.906 428.612,-362.854 432.953,-357.363"/>
</g>
<!-- Node14 -->
<g id="node14" class="node">
<title>Node14</title>
<g id="a_node14"><a xlink:href="test__heatshrink__dynamic_8c.html#adc66afa12a5eaae0cd12d5cc497f0f67" target="_top" xlink:title="SUITE">
<polygon fill="#ffffff" stroke="#000000" points="538.5,-443.727 538.5,-462.727 584.5,-462.727 584.5,-443.727 538.5,-443.727"/>
<text text-anchor="middle" x="561.5" y="-450.727" font-family="Helvetica,sans-Serif" font-size="10.00" fill="#000000">SUITE</text>
</a>
</g>
</g>
<!-- Node13&#45;&gt;Node14 -->
<g id="edge18" class="edge">
<title>Node13&#45;&gt;Node14</title>
<path fill="none" stroke="#191970" d="M385.634,-284.521C401.674,-286.125 421.272,-290.796 434,-303.227 476.89,-345.116 426.459,-392.015 470,-433.227 488.187,-450.44 517.604,-454.181 538.159,-454.43"/>
<polygon fill="#191970" stroke="#191970" points="385.433,-281 375.227,-283.842 384.978,-287.986 385.433,-281"/>
</g>
<!-- Node16 -->
<g id="node16" class="node">
<title>Node16</title>
<g id="a_node16"><a xlink:href="test__heatshrink__dynamic_8c.html#a9d63746ee6a963338d09b8a19da82529" target="_top" xlink:title="data_without_duplication\l_should_match">
<polygon fill="#ffffff" stroke="#000000" points="498,-394.227 498,-424.227 625,-424.227 625,-394.227 498,-394.227"/>
<text text-anchor="start" x="506" y="-412.227" font-family="Helvetica,sans-Serif" font-size="10.00" fill="#000000">data_without_duplication</text>
<text text-anchor="middle" x="561.5" y="-401.227" font-family="Helvetica,sans-Serif" font-size="10.00" fill="#000000">_should_match</text>
</a>
</g>
</g>
<!-- Node15&#45;&gt;Node16 -->
<g id="edge20" class="edge">
<title>Node15&#45;&gt;Node16</title>
<path fill="none" stroke="#191970" d="M427.256,-259.359C429.659,-261.144 431.922,-263.094 434,-265.227 472.561,-304.803 430.403,-345.687 470,-384.227 477.789,-391.807 487.643,-397.141 497.98,-400.882"/>
<polygon fill="#191970" stroke="#191970" points="428.941,-256.284 418.615,-253.912 425.208,-262.206 428.941,-256.284"/>
</g>
<!-- Node18 -->
<g id="node18" class="node">
<title>Node18</title>
<g id="a_node18"><a xlink:href="test__heatshrink__dynamic_8c.html#ae9d1425d6c89a652b9df2b4ddc7ac2a2" target="_top" xlink:title="data_with_simple_repetition\l_should_compress_and_decompress\l_properly">
<polygon fill="#ffffff" stroke="#000000" points="470,-333.727 470,-374.727 653,-374.727 653,-333.727 470,-333.727"/>
<text text-anchor="start" x="478" y="-362.727" font-family="Helvetica,sans-Serif" font-size="10.00" fill="#000000">data_with_simple_repetition</text>
<text text-anchor="start" x="478" y="-351.727" font-family="Helvetica,sans-Serif" font-size="10.00" fill="#000000">_should_compress_and_decompress</text>
<text text-anchor="middle" x="561.5" y="-340.727" font-family="Helvetica,sans-Serif" font-size="10.00" fill="#000000">_properly</text>
</a>
</g>
</g>
<!-- Node15&#45;&gt;Node18 -->
<g id="edge22" class="edge">
<title>Node15&#45;&gt;Node18</title>
<path fill="none" stroke="#191970" d="M426.769,-260.191C429.29,-261.748 431.713,-263.424 434,-265.227 457.827,-284.008 446.238,-304.363 470,-323.227 474.992,-327.189 480.518,-330.659 486.309,-333.694"/>
<polygon fill="#191970" stroke="#191970" points="428.332,-257.057 417.877,-255.342 424.98,-263.202 428.332,-257.057"/>
</g>
<!-- Node19 -->
<g id="node19" class="node">
<title>Node19</title>
<g id="a_node19"><a xlink:href="test__heatshrink__dynamic_8c.html#a60c0e0c5bbb9715c7932ee82e706752d" target="_top" xlink:title="pseudorandom_data_should\l_match">
<polygon fill="#ffffff" stroke="#000000" points="490,-284.227 490,-314.227 633,-314.227 633,-284.227 490,-284.227"/>
<text text-anchor="start" x="498" y="-302.227" font-family="Helvetica,sans-Serif" font-size="10.00" fill="#000000">pseudorandom_data_should</text>
<text text-anchor="middle" x="561.5" y="-291.227" font-family="Helvetica,sans-Serif" font-size="10.00" fill="#000000">_match</text>
</a>
</g>
</g>
<!-- Node15&#45;&gt;Node19 -->
<g id="edge24" class="edge">
<title>Node15&#45;&gt;Node19</title>
<path fill="none" stroke="#191970" d="M416.594,-258.293C433.76,-263.536 452.61,-269.201 470,-274.227 481.391,-277.519 493.612,-280.936 505.295,-284.149"/>
<polygon fill="#191970" stroke="#191970" points="417.292,-254.846 406.705,-255.263 415.241,-261.539 417.292,-254.846"/>
</g>
<!-- Node20 -->
<g id="node20" class="node">
<title>Node20</title>
<g id="a_node20"><a xlink:href="test__heatshrink__dynamic_8c.html#a20e1a72bba941f0c602b93b53d32d5db" target="_top" xlink:title="small_input_buffer\l_should_not_impact_decoder\l_correctness">
<polygon fill="#ffffff" stroke="#000000" points="487.5,-223.727 487.5,-264.727 635.5,-264.727 635.5,-223.727 487.5,-223.727"/>
<text text-anchor="start" x="495.5" y="-252.727" font-family="Helvetica,sans-Serif" font-size="10.00" fill="#000000">small_input_buffer</text>
<text text-anchor="start" x="495.5" y="-241.727" font-family="Helvetica,sans-Serif" font-size="10.00" fill="#000000">_should_not_impact_decoder</text>
<text text-anchor="middle" x="561.5" y="-230.727" font-family="Helvetica,sans-Serif" font-size="10.00" fill="#000000">_correctness</text>
</a>
</g>
</g>
<!-- Node15&#45;&gt;Node20 -->
<g id="edge26" class="edge">
<title>Node15&#45;&gt;Node20</title>
<path fill="none" stroke="#191970" d="M428.606,-241.608C447.517,-241.981 468.042,-242.385 487.175,-242.762"/>
<polygon fill="#191970" stroke="#191970" points="428.65,-238.108 418.583,-241.411 428.512,-245.107 428.65,-238.108"/>
</g>
<!-- Node21 -->
<g id="node21" class="node">
<title>Node21</title>
<g id="a_node21"><a xlink:href="test__heatshrink__dynamic_8c.html#a462faeb904a3de1b1e009a04f7d171d8" target="_top" xlink:title="regression_backreference\l_counters_should_not_roll_over">
<polygon fill="#ffffff" stroke="#000000" points="482,-174.227 482,-204.227 641,-204.227 641,-174.227 482,-174.227"/>
<text text-anchor="start" x="490" y="-192.227" font-family="Helvetica,sans-Serif" font-size="10.00" fill="#000000">regression_backreference</text>
<text text-anchor="middle" x="561.5" y="-181.227" font-family="Helvetica,sans-Serif" font-size="10.00" fill="#000000">_counters_should_not_roll_over</text>
</a>
</g>
</g>
<!-- Node15&#45;&gt;Node21 -->
<g id="edge28" class="edge">
<title>Node15&#45;&gt;Node21</title>
<path fill="none" stroke="#191970" d="M428.051,-222.753C452.026,-216.73 478.648,-210.042 501.768,-204.233"/>
<polygon fill="#191970" stroke="#191970" points="427.155,-219.37 418.309,-225.201 428.86,-226.159 427.155,-219.37"/>
</g>
<!-- Node22 -->
<g id="node22" class="node">
<title>Node22</title>
<g id="a_node22"><a xlink:href="test__heatshrink__dynamic_8c.html#a2ed8ea21768d114fa96b07eb58475663" target="_top" xlink:title="regression_index_fail">
<polygon fill="#ffffff" stroke="#000000" points="506,-135.727 506,-154.727 617,-154.727 617,-135.727 506,-135.727"/>
<text text-anchor="middle" x="561.5" y="-142.727" font-family="Helvetica,sans-Serif" font-size="10.00" fill="#000000">regression_index_fail</text>
</a>
</g>
</g>
<!-- Node15&#45;&gt;Node22 -->
<g id="edge30" class="edge">
<title>Node15&#45;&gt;Node22</title>
<path fill="none" stroke="#191970" d="M383.73,-218.712C405.284,-201.438 437.828,-177.886 470,-164.227 481.2,-159.471 493.692,-155.871 505.756,-153.158"/>
<polygon fill="#191970" stroke="#191970" points="381.288,-216.187 375.753,-225.221 385.714,-221.61 381.288,-216.187"/>
</g>
<!-- Node23 -->
<g id="node23" class="node">
<title>Node23</title>
<g id="a_node23"><a xlink:href="test__heatshrink__dynamic_8c.html#a1bfe72da903d55a8610433a4f2a60d43" target="_top" xlink:title="sixty_four_k">
<polygon fill="#ffffff" stroke="#000000" points="526.5,-97.7266 526.5,-116.727 596.5,-116.727 596.5,-97.7266 526.5,-97.7266"/>
<text text-anchor="middle" x="561.5" y="-104.727" font-family="Helvetica,sans-Serif" font-size="10.00" fill="#000000">sixty_four_k</text>
</a>
</g>
</g>
<!-- Node15&#45;&gt;Node23 -->
<g id="edge32" class="edge">
<title>Node15&#45;&gt;Node23</title>
<path fill="none" stroke="#191970" d="M388.667,-219.11C403.238,-208.129 420.454,-193.945 434,-179.227 453.284,-158.274 446.33,-142.056 470,-126.227 486.454,-115.223 508.005,-110.393 526.06,-108.35"/>
<polygon fill="#191970" stroke="#191970" points="386.406,-216.429 380.441,-225.185 390.564,-222.059 386.406,-216.429"/>
</g>
<!-- Node17 -->
<g id="node17" class="node">
<title>Node17</title>
<g id="a_node17"><a xlink:href="test__heatshrink__dynamic_8c.html#a2f157eb23cb17a496326c14e12933b3b" target="_top" xlink:title="SUITE">
<polygon fill="#ffffff" stroke="#000000" points="689,-179.727 689,-198.727 735,-198.727 735,-179.727 689,-179.727"/>
<text text-anchor="middle" x="712" y="-186.727" font-family="Helvetica,sans-Serif" font-size="10.00" fill="#000000">SUITE</text>
</a>
</g>
</g>
<!-- Node16&#45;&gt;Node17 -->
<g id="edge21" class="edge">
<title>Node16&#45;&gt;Node17</title>
<path fill="none" stroke="#191970" d="M634.521,-396.888C641.314,-393.588 647.645,-389.438 653,-384.227 680.628,-357.337 703.986,-234.838 710.312,-199.063"/>
<polygon fill="#191970" stroke="#191970" points="632.882,-393.78 625.02,-400.882 635.595,-400.233 632.882,-393.78"/>
</g>
<!-- Node18&#45;&gt;Node17 -->
<g id="edge23" class="edge">
<title>Node18&#45;&gt;Node17</title>
<path fill="none" stroke="#191970" d="M647.034,-328.145C649.111,-326.599 651.106,-324.961 653,-323.227 691.433,-288.038 706.147,-223.279 710.484,-198.873"/>
<polygon fill="#191970" stroke="#191970" points="645.078,-325.242 638.657,-333.669 648.932,-331.086 645.078,-325.242"/>
</g>
<!-- Node19&#45;&gt;Node17 -->
<g id="edge25" class="edge">
<title>Node19&#45;&gt;Node17</title>
<path fill="none" stroke="#191970" d="M642.515,-280.609C646.172,-278.687 649.691,-276.566 653,-274.227 681.163,-254.317 700.269,-216.459 708.062,-198.775"/>
<polygon fill="#191970" stroke="#191970" points="640.745,-277.573 633.18,-284.991 643.72,-283.91 640.745,-277.573"/>
</g>
<!-- Node20&#45;&gt;Node17 -->
<g id="edge27" class="edge">
<title>Node20&#45;&gt;Node17</title>
<path fill="none" stroke="#191970" d="M633.414,-220.316C640.054,-217.972 646.664,-215.586 653,-213.227 665.124,-208.711 678.49,-203.31 689.43,-198.776"/>
<polygon fill="#191970" stroke="#191970" points="631.978,-217.11 623.693,-223.713 634.288,-223.718 631.978,-217.11"/>
</g>
<!-- Node21&#45;&gt;Node17 -->
<g id="edge29" class="edge">
<title>Node21&#45;&gt;Node17</title>
<path fill="none" stroke="#191970" d="M651.338,-189.227C665.192,-189.227 678.36,-189.227 688.866,-189.227"/>
<polygon fill="#191970" stroke="#191970" points="651.157,-185.727 641.157,-189.227 651.157,-192.727 651.157,-185.727"/>
</g>
<!-- Node22&#45;&gt;Node17 -->
<g id="edge31" class="edge">
<title>Node22&#45;&gt;Node17</title>
<path fill="none" stroke="#191970" d="M625.993,-156.958C635.133,-159.101 644.357,-161.527 653,-164.227 666.38,-168.406 680.881,-174.528 692.159,-179.667"/>
<polygon fill="#191970" stroke="#191970" points="626.663,-153.522 616.139,-154.744 625.129,-160.351 626.663,-153.522"/>
</g>
<!-- Node23&#45;&gt;Node17 -->
<g id="edge33" class="edge">
<title>Node23&#45;&gt;Node17</title>
<path fill="none" stroke="#191970" d="M606.607,-111.008C622.048,-113.718 638.957,-118.345 653,-126.227 676.521,-139.428 696.134,-165.211 705.707,-179.357"/>
<polygon fill="#191970" stroke="#191970" points="607.133,-107.548 596.717,-109.489 606.07,-114.467 607.133,-107.548"/>
</g>
<!-- Node24&#45;&gt;Node17 -->
<g id="edge35" class="edge">
<title>Node24&#45;&gt;Node17</title>
<path fill="none" stroke="#191970" d="M645.916,-83.0819C648.375,-84.6919 650.745,-86.4047 653,-88.2266 684.121,-113.365 702.283,-159.624 709.002,-179.611"/>
<polygon fill="#191970" stroke="#191970" points="647.65,-80.041 637.254,-77.9944 644.104,-86.0769 647.65,-80.041"/>
</g>
<!-- Node25&#45;&gt;Node17 -->
<g id="edge37" class="edge">
<title>Node25&#45;&gt;Node17</title>
<path fill="none" stroke="#191970" d="M413.516,-29.047C477.139,-5.16492 582.181,21.2458 653,-28.2266 679.234,-46.5533 703.018,-147.656 709.963,-179.571"/>
<polygon fill="#191970" stroke="#191970" points="412.127,-25.8313 404.056,-32.6944 414.645,-32.3628 412.127,-25.8313"/>
</g>
</g>
</svg>
