<?xml version="1.0" encoding="UTF-8" standalone="no"?>
<!DOCTYPE svg PUBLIC "-//W3C//DTD SVG 1.1//EN"
 "http://www.w3.org/Graphics/SVG/1.1/DTD/svg11.dtd">
<!-- Generated by graphviz version 2.41.20170323.1842 (20170323.1842)
 -->
<!-- Title: st_step_search Pages: 1 -->
<svg width="381pt" height="256pt"
 viewBox="0.00 0.00 381.00 256.00" xmlns="http://www.w3.org/2000/svg" xmlns:xlink="http://www.w3.org/1999/xlink">
<g id="graph0" class="graph" transform="scale(1 1) rotate(0) translate(4 252)">
<title>st_step_search</title>
<polygon fill="#ffffff" stroke="transparent" points="-4,4 -4,-252 377,-252 377,4 -4,4"/>
<!-- Node806 -->
<g id="node1" class="node">
<title>Node806</title>
<polygon fill="#bfbfbf" stroke="#000000" points="0,-114.5 0,-133.5 84,-133.5 84,-114.5 0,-114.5"/>
<text text-anchor="middle" x="42" y="-121.5" font-family="Helvetica,sans-Serif" font-size="10.00" fill="#000000">st_step_search</text>
</g>
<!-- Node807 -->
<g id="node2" class="node">
<title>Node807</title>
<g id="a_node2"><a xlink:href="heatshrink__encoder_8c.html#afb59e31aab4a22a8b9640824e9da7426" target="_top" xlink:title="backlog_is_filled">
<polygon fill="#ffffff" stroke="#000000" points="127.5,-228.5 127.5,-247.5 217.5,-247.5 217.5,-228.5 127.5,-228.5"/>
<text text-anchor="middle" x="172.5" y="-235.5" font-family="Helvetica,sans-Serif" font-size="10.00" fill="#000000">backlog_is_filled</text>
</a>
</g>
</g>
<!-- Node806&#45;&gt;Node807 -->
<g id="edge1" class="edge">
<title>Node806&#45;&gt;Node807</title>
<path fill="none" stroke="#191970" d="M47.3873,-133.5199C58.5489,-152.4329 86.0186,-194.9809 120,-219 122.6912,-220.9023 125.5937,-222.6344 128.6037,-224.208"/>
<polygon fill="#191970" stroke="#191970" points="127.3058,-227.4635 137.8532,-228.4649 130.2325,-221.1046 127.3058,-227.4635"/>
</g>
<!-- Node808 -->
<g id="node3" class="node">
<title>Node808</title>
<g id="a_node3"><a xlink:href="heatshrink__encoder_8c.html#a52bfbd33b20249a9f61813fc28c64e57" target="_top" xlink:title="backlog_is_partial">
<polygon fill="#ffffff" stroke="#000000" points="124,-190.5 124,-209.5 221,-209.5 221,-190.5 124,-190.5"/>
<text text-anchor="middle" x="172.5" y="-197.5" font-family="Helvetica,sans-Serif" font-size="10.00" fill="#000000">backlog_is_partial</text>
</a>
</g>
</g>
<!-- Node806&#45;&gt;Node808 -->
<g id="edge2" class="edge">
<title>Node806&#45;&gt;Node808</title>
<path fill="none" stroke="#191970" d="M52.9524,-133.5773C67.4627,-145.8826 94.2389,-167.2871 120,-181 123.8022,-183.024 127.8664,-184.9178 131.9869,-186.6656"/>
<polygon fill="#191970" stroke="#191970" points="131.0208,-190.0473 141.6071,-190.4716 133.596,-183.5382 131.0208,-190.0473"/>
</g>
<!-- Node809 -->
<g id="node4" class="node">
<title>Node809</title>
<g id="a_node4"><a xlink:href="heatshrink__encoder_8c.html#a48adb993f0964026473c63b9667f8191" target="_top" xlink:title="find_longest_match">
<polygon fill="#ffffff" stroke="#000000" points="121,-152.5 121,-171.5 224,-171.5 224,-152.5 121,-152.5"/>
<text text-anchor="middle" x="172.5" y="-159.5" font-family="Helvetica,sans-Serif" font-size="10.00" fill="#000000">find_longest_match</text>
</a>
</g>
</g>
<!-- Node806&#45;&gt;Node809 -->
<g id="edge3" class="edge">
<title>Node806&#45;&gt;Node809</title>
<path fill="none" stroke="#191970" d="M74.9307,-133.589C91.6224,-138.4494 112.0892,-144.4091 129.9595,-149.6127"/>
<polygon fill="#191970" stroke="#191970" points="129.0001,-152.9787 139.5799,-152.4141 130.9572,-146.2578 129.0001,-152.9787"/>
</g>
<!-- Node810 -->
<g id="node5" class="node">
<title>Node810</title>
<g id="a_node5"><a xlink:href="heatshrink__encoder_8c.html#a9b311bf2b76215ba61eb648d970a5f11" target="_top" xlink:title="get_input_buffer_size">
<polygon fill="#ffffff" stroke="#000000" points="261,-95.5 261,-114.5 373,-114.5 373,-95.5 261,-95.5"/>
<text text-anchor="middle" x="317" y="-102.5" font-family="Helvetica,sans-Serif" font-size="10.00" fill="#000000">get_input_buffer_size</text>
</a>
</g>
</g>
<!-- Node806&#45;&gt;Node810 -->
<g id="edge4" class="edge">
<title>Node806&#45;&gt;Node810</title>
<path fill="none" stroke="#191970" d="M84.0659,-121.0936C128.4282,-118.0286 198.9432,-113.1567 250.7783,-109.5753"/>
<polygon fill="#191970" stroke="#191970" points="251.1481,-113.0582 260.883,-108.8772 250.6655,-106.0749 251.1481,-113.0582"/>
</g>
<!-- Node811 -->
<g id="node6" class="node">
<title>Node811</title>
<g id="a_node6"><a xlink:href="heatshrink__encoder_8c.html#ae3f741c7a40be525778c6c92c4720518" target="_top" xlink:title="get_input_offset">
<polygon fill="#ffffff" stroke="#000000" points="128.5,-76.5 128.5,-95.5 216.5,-95.5 216.5,-76.5 128.5,-76.5"/>
<text text-anchor="middle" x="172.5" y="-83.5" font-family="Helvetica,sans-Serif" font-size="10.00" fill="#000000">get_input_offset</text>
</a>
</g>
</g>
<!-- Node806&#45;&gt;Node811 -->
<g id="edge5" class="edge">
<title>Node806&#45;&gt;Node811</title>
<path fill="none" stroke="#191970" d="M74.9307,-114.411C91.6224,-109.5506 112.0892,-103.5909 129.9595,-98.3873"/>
<polygon fill="#191970" stroke="#191970" points="130.9572,-101.7422 139.5799,-95.5859 129.0001,-95.0213 130.9572,-101.7422"/>
</g>
<!-- Node812 -->
<g id="node7" class="node">
<title>Node812</title>
<g id="a_node7"><a xlink:href="heatshrink__encoder_8c.html#a69da5fdbae8296d5c7190ab953de134d" target="_top" xlink:title="get_lookahead_size">
<polygon fill="#ffffff" stroke="#000000" points="120,-38.5 120,-57.5 225,-57.5 225,-38.5 120,-38.5"/>
<text text-anchor="middle" x="172.5" y="-45.5" font-family="Helvetica,sans-Serif" font-size="10.00" fill="#000000">get_lookahead_size</text>
</a>
</g>
</g>
<!-- Node806&#45;&gt;Node812 -->
<g id="edge7" class="edge">
<title>Node806&#45;&gt;Node812</title>
<path fill="none" stroke="#191970" d="M52.9524,-114.4227C67.4627,-102.1174 94.2389,-80.7129 120,-67 123.8022,-64.976 127.8664,-63.0822 131.9869,-61.3344"/>
<polygon fill="#191970" stroke="#191970" points="133.596,-64.4618 141.6071,-57.5284 131.0208,-57.9527 133.596,-64.4618"/>
</g>
<!-- Node813 -->
<g id="node8" class="node">
<title>Node813</title>
<g id="a_node8"><a xlink:href="heatshrink__encoder_8c.html#a323caf30937d6e75e99789f797957f0c" target="_top" xlink:title="is_finishing">
<polygon fill="#ffffff" stroke="#000000" points="139.5,-.5 139.5,-19.5 205.5,-19.5 205.5,-.5 139.5,-.5"/>
<text text-anchor="middle" x="172.5" y="-7.5" font-family="Helvetica,sans-Serif" font-size="10.00" fill="#000000">is_finishing</text>
</a>
</g>
</g>
<!-- Node806&#45;&gt;Node813 -->
<g id="edge8" class="edge">
<title>Node806&#45;&gt;Node813</title>
<path fill="none" stroke="#191970" d="M47.3873,-114.4801C58.5489,-95.5671 86.0186,-53.0191 120,-29 123.0697,-26.8302 126.4142,-24.8818 129.8797,-23.1375"/>
<polygon fill="#191970" stroke="#191970" points="131.5116,-26.2425 139.2304,-18.985 128.6705,-19.845 131.5116,-26.2425"/>
</g>
<!-- Node811&#45;&gt;Node810 -->
<g id="edge6" class="edge">
<title>Node811&#45;&gt;Node810</title>
<path fill="none" stroke="#191970" d="M216.6399,-91.8039C227.4244,-93.2219 239.1989,-94.7701 250.7663,-96.2911"/>
<polygon fill="#191970" stroke="#191970" points="250.4771,-99.7831 260.8481,-97.6167 251.3898,-92.8428 250.4771,-99.7831"/>
</g>
</g>
</svg>
