<?xml version="1.0" encoding="UTF-8" standalone="no"?>
<!DOCTYPE svg PUBLIC "-//W3C//DTD SVG 1.1//EN"
 "http://www.w3.org/Graphics/SVG/1.1/DTD/svg11.dtd">
<!-- Generated by graphviz version 2.39.20160927.1334 (20160927.1334)
 -->
<!-- Title: st_yield_br_index Pages: 1 -->
<svg width="336pt" height="66pt"
 viewBox="0.00 0.00 336.00 66.00" xmlns="http://www.w3.org/2000/svg" xmlns:xlink="http://www.w3.org/1999/xlink">
<g id="graph0" class="graph" transform="scale(1 1) rotate(0) translate(4 62)">
<title>st_yield_br_index</title>
<polygon fill="#ffffff" stroke="transparent" points="-4,4 -4,-62 332,-62 332,4 -4,4"/>
<!-- Node1 -->
<g id="node1" class="node">
<title>Node1</title>
<polygon fill="#bfbfbf" stroke="#000000" points="0,-19.5 0,-38.5 94,-38.5 94,-19.5 0,-19.5"/>
<text text-anchor="middle" x="47" y="-26.5" font-family="Helvetica,sans-Serif" font-size="10.00" fill="#000000">st_yield_br_index</text>
</g>
<!-- Node2 -->
<g id="node2" class="node">
<title>Node2</title>
<g id="a_node2"><a xlink:href="heatshrink__encoder_8c.html#ad075b2bdf7d816dbf4eb8b1e16d1586a" target="_top" xlink:title="can_take_byte">
<polygon fill="#ffffff" stroke="#000000" points="140.5,-38.5 140.5,-57.5 222.5,-57.5 222.5,-38.5 140.5,-38.5"/>
<text text-anchor="middle" x="181.5" y="-45.5" font-family="Helvetica,sans-Serif" font-size="10.00" fill="#000000">can_take_byte</text>
</a>
</g>
</g>
<!-- Node1&#45;&gt;Node2 -->
<g id="edge1" class="edge">
<title>Node1&#45;&gt;Node2</title>
<path fill="none" stroke="#191970" d="M94.0416,-35.6453C105.643,-37.2841 118.128,-39.0478 129.931,-40.7152"/>
<polygon fill="#191970" stroke="#191970" points="129.697,-44.2168 140.088,-42.15 130.676,-37.2856 129.697,-44.2168"/>
</g>
<!-- Node3 -->
<g id="node3" class="node">
<title>Node3</title>
<g id="a_node3"><a xlink:href="heatshrink__encoder_8c.html#ac7c4eed81d350c335b605fa016466f82" target="_top" xlink:title="push_outgoing_bits">
<polygon fill="#ffffff" stroke="#000000" points="130,-0.5 130,-19.5 233,-19.5 233,-0.5 130,-0.5"/>
<text text-anchor="middle" x="181.5" y="-7.5" font-family="Helvetica,sans-Serif" font-size="10.00" fill="#000000">push_outgoing_bits</text>
</a>
</g>
</g>
<!-- Node1&#45;&gt;Node3 -->
<g id="edge2" class="edge">
<title>Node1&#45;&gt;Node3</title>
<path fill="none" stroke="#191970" d="M94.0416,-22.3547C102.318,-21.1856 111.044,-19.9529 119.651,-18.737"/>
<polygon fill="#191970" stroke="#191970" points="120.255,-22.1865 129.667,-17.3221 119.276,-15.2554 120.255,-22.1865"/>
</g>
<!-- Node4 -->
<g id="node4" class="node">
<title>Node4</title>
<g id="a_node4"><a xlink:href="heatshrink__encoder_8c.html#a5219dc6b7b93fcd90ee72f9948c58f54" target="_top" xlink:title="push_bits">
<polygon fill="#ffffff" stroke="#000000" points="269,-0.5 269,-19.5 328,-19.5 328,-0.5 269,-0.5"/>
<text text-anchor="middle" x="298.5" y="-7.5" font-family="Helvetica,sans-Serif" font-size="10.00" fill="#000000">push_bits</text>
</a>
</g>
</g>
<!-- Node3&#45;&gt;Node4 -->
<g id="edge3" class="edge">
<title>Node3&#45;&gt;Node4</title>
<path fill="none" stroke="#191970" d="M233.158,-10C241.767,-10 250.576,-10 258.826,-10"/>
<polygon fill="#191970" stroke="#191970" points="258.919,-13.5001 268.919,-10 258.919,-6.5001 258.919,-13.5001"/>
</g>
</g>
</svg>
