<?xml version="1.0" encoding="UTF-8" standalone="no"?>
<!DOCTYPE svg PUBLIC "-//W3C//DTD SVG 1.1//EN"
 "http://www.w3.org/Graphics/SVG/1.1/DTD/svg11.dtd">
<!-- Generated by graphviz version 2.40.1 (20161225.0304)
 -->
<!-- Title: lib/heatshrink/heatshrink_common.h Pages: 1 -->
<svg width="685pt" height="173pt"
 viewBox="0.00 0.00 685.00 173.00" xmlns="http://www.w3.org/2000/svg" xmlns:xlink="http://www.w3.org/1999/xlink">
<g id="graph0" class="graph" transform="scale(1 1) rotate(0) translate(4 169)">
<title>lib/heatshrink/heatshrink_common.h</title>
<polygon fill="#ffffff" stroke="transparent" points="-4,4 -4,-169 681,-169 681,4 -4,4"/>
<!-- Node1 -->
<g id="node1" class="node">
<title>Node1</title>
<polygon fill="#bfbfbf" stroke="#000000" points="284,-134.5 284,-164.5 408,-164.5 408,-134.5 284,-134.5"/>
<text text-anchor="start" x="292" y="-152.5" font-family="Helvetica,sans-Serif" font-size="10.00" fill="#000000">lib/heatshrink/heatshrink</text>
<text text-anchor="middle" x="346" y="-141.5" font-family="Helvetica,sans-Serif" font-size="10.00" fill="#000000">_common.h</text>
</g>
<!-- Node2 -->
<g id="node2" class="node">
<title>Node2</title>
<g id="a_node2"><a xlink:href="heatshrink__encoder_8h.html" target="_top" xlink:title="lib/heatshrink/heatshrink\l_encoder.h">
<polygon fill="#ffffff" stroke="#000000" points="355,-67.5 355,-97.5 479,-97.5 479,-67.5 355,-67.5"/>
<text text-anchor="start" x="363" y="-85.5" font-family="Helvetica,sans-Serif" font-size="10.00" fill="#000000">lib/heatshrink/heatshrink</text>
<text text-anchor="middle" x="417" y="-74.5" font-family="Helvetica,sans-Serif" font-size="10.00" fill="#000000">_encoder.h</text>
</a>
</g>
</g>
<!-- Node1&#45;&gt;Node2 -->
<g id="edge1" class="edge">
<title>Node1&#45;&gt;Node2</title>
<path fill="none" stroke="#191970" d="M369.6194,-127.2113C379.9095,-117.5009 391.7051,-106.3698 400.9528,-97.6432"/>
<polygon fill="#191970" stroke="#191970" points="366.9819,-124.8879 362.111,-134.2967 371.7861,-129.979 366.9819,-124.8879"/>
</g>
<!-- Node7 -->
<g id="node7" class="node">
<title>Node7</title>
<g id="a_node7"><a xlink:href="heatshrink__decoder_8h.html" target="_top" xlink:title="lib/heatshrink/heatshrink\l_decoder.h">
<polygon fill="#ffffff" stroke="#000000" points="213,-67.5 213,-97.5 337,-97.5 337,-67.5 213,-67.5"/>
<text text-anchor="start" x="221" y="-85.5" font-family="Helvetica,sans-Serif" font-size="10.00" fill="#000000">lib/heatshrink/heatshrink</text>
<text text-anchor="middle" x="275" y="-74.5" font-family="Helvetica,sans-Serif" font-size="10.00" fill="#000000">_decoder.h</text>
</a>
</g>
</g>
<!-- Node1&#45;&gt;Node7 -->
<g id="edge6" class="edge">
<title>Node1&#45;&gt;Node7</title>
<path fill="none" stroke="#191970" d="M322.3806,-127.2113C312.0905,-117.5009 300.2949,-106.3698 291.0472,-97.6432"/>
<polygon fill="#191970" stroke="#191970" points="320.2139,-129.979 329.889,-134.2967 325.0181,-124.8879 320.2139,-129.979"/>
</g>
<!-- Node3 -->
<g id="node3" class="node">
<title>Node3</title>
<g id="a_node3"><a xlink:href="heatshrink_8c.html" target="_top" xlink:title="lib/heatshrink/heatshrink.c">
<polygon fill="#ffffff" stroke="#000000" points="142,-6 142,-25 274,-25 274,-6 142,-6"/>
<text text-anchor="middle" x="208" y="-13" font-family="Helvetica,sans-Serif" font-size="10.00" fill="#000000">lib/heatshrink/heatshrink.c</text>
</a>
</g>
</g>
<!-- Node2&#45;&gt;Node3 -->
<g id="edge2" class="edge">
<title>Node2&#45;&gt;Node3</title>
<path fill="none" stroke="#191970" d="M360.5526,-64.4044C320.9273,-51.7016 269.518,-35.2211 237.6508,-25.0053"/>
<polygon fill="#191970" stroke="#191970" points="359.5052,-67.744 370.0963,-67.4639 361.6421,-61.0782 359.5052,-67.744"/>
</g>
<!-- Node4 -->
<g id="node4" class="node">
<title>Node4</title>
<g id="a_node4"><a xlink:href="heatshrink__encoder_8c.html" target="_top" xlink:title="lib/heatshrink/heatshrink\l_encoder.c">
<polygon fill="#ffffff" stroke="#000000" points="553,-.5 553,-30.5 677,-30.5 677,-.5 553,-.5"/>
<text text-anchor="start" x="561" y="-18.5" font-family="Helvetica,sans-Serif" font-size="10.00" fill="#000000">lib/heatshrink/heatshrink</text>
<text text-anchor="middle" x="615" y="-7.5" font-family="Helvetica,sans-Serif" font-size="10.00" fill="#000000">_encoder.c</text>
</a>
</g>
</g>
<!-- Node2&#45;&gt;Node4 -->
<g id="edge3" class="edge">
<title>Node2&#45;&gt;Node4</title>
<path fill="none" stroke="#191970" d="M471.2602,-64.1392C502.3961,-53.6033 541.0087,-40.5375 570.3711,-30.6017"/>
<polygon fill="#191970" stroke="#191970" points="469.7856,-60.9432 461.4351,-67.4639 472.0293,-67.5739 469.7856,-60.9432"/>
</g>
<!-- Node5 -->
<g id="node5" class="node">
<title>Node5</title>
<g id="a_node5"><a xlink:href="test__heatshrink__dynamic_8c.html" target="_top" xlink:title="lib/heatshrink/test\l_heatshrink_dynamic.c">
<polygon fill="#ffffff" stroke="#000000" points="292.5,-.5 292.5,-30.5 411.5,-30.5 411.5,-.5 292.5,-.5"/>
<text text-anchor="start" x="300.5" y="-18.5" font-family="Helvetica,sans-Serif" font-size="10.00" fill="#000000">lib/heatshrink/test</text>
<text text-anchor="middle" x="352" y="-7.5" font-family="Helvetica,sans-Serif" font-size="10.00" fill="#000000">_heatshrink_dynamic.c</text>
</a>
</g>
</g>
<!-- Node2&#45;&gt;Node5 -->
<g id="edge4" class="edge">
<title>Node2&#45;&gt;Node5</title>
<path fill="none" stroke="#191970" d="M395.0992,-59.9253C385.7445,-50.2828 375.0743,-39.2843 366.6911,-30.6432"/>
<polygon fill="#191970" stroke="#191970" points="392.7752,-62.5564 402.2505,-67.2967 397.7994,-57.6821 392.7752,-62.5564"/>
</g>
<!-- Node6 -->
<g id="node6" class="node">
<title>Node6</title>
<g id="a_node6"><a xlink:href="test__heatshrink__static_8c.html" target="_top" xlink:title="lib/heatshrink/test\l_heatshrink_static.c">
<polygon fill="#ffffff" stroke="#000000" points="429.5,-.5 429.5,-30.5 534.5,-30.5 534.5,-.5 429.5,-.5"/>
<text text-anchor="start" x="437.5" y="-18.5" font-family="Helvetica,sans-Serif" font-size="10.00" fill="#000000">lib/heatshrink/test</text>
<text text-anchor="middle" x="482" y="-7.5" font-family="Helvetica,sans-Serif" font-size="10.00" fill="#000000">_heatshrink_static.c</text>
</a>
</g>
</g>
<!-- Node2&#45;&gt;Node6 -->
<g id="edge5" class="edge">
<title>Node2&#45;&gt;Node6</title>
<path fill="none" stroke="#191970" d="M438.9008,-59.9253C448.2555,-50.2828 458.9257,-39.2843 467.3089,-30.6432"/>
<polygon fill="#191970" stroke="#191970" points="436.2006,-57.6821 431.7495,-67.2967 441.2248,-62.5564 436.2006,-57.6821"/>
</g>
<!-- Node7&#45;&gt;Node3 -->
<g id="edge7" class="edge">
<title>Node7&#45;&gt;Node3</title>
<path fill="none" stroke="#191970" d="M252.7032,-60.2032C240.7634,-48.2634 226.6776,-34.1776 217.555,-25.055"/>
<polygon fill="#191970" stroke="#191970" points="250.2507,-62.7004 259.7967,-67.2967 255.2004,-57.7507 250.2507,-62.7004"/>
</g>
<!-- Node7&#45;&gt;Node5 -->
<g id="edge9" class="edge">
<title>Node7&#45;&gt;Node5</title>
<path fill="none" stroke="#191970" d="M300.2876,-60.4965C311.524,-50.7193 324.4692,-39.4554 334.5967,-30.6432"/>
<polygon fill="#191970" stroke="#191970" points="297.719,-58.092 292.4725,-67.2967 302.3139,-63.3728 297.719,-58.092"/>
</g>
<!-- Node7&#45;&gt;Node6 -->
<g id="edge10" class="edge">
<title>Node7&#45;&gt;Node6</title>
<path fill="none" stroke="#191970" d="M331.3043,-64.2759C363.9281,-53.7165 404.5125,-40.5805 435.3425,-30.6017"/>
<polygon fill="#191970" stroke="#191970" points="329.8911,-61.0545 321.4548,-67.4639 332.0467,-67.7143 329.8911,-61.0545"/>
</g>
<!-- Node8 -->
<g id="node8" class="node">
<title>Node8</title>
<g id="a_node8"><a xlink:href="lib_2heatshrink_2heatshrink__decoder_8c.html" target="_top" xlink:title="lib/heatshrink/heatshrink\l_decoder.c">
<polygon fill="#ffffff" stroke="#000000" points="0,-.5 0,-30.5 124,-30.5 124,-.5 0,-.5"/>
<text text-anchor="start" x="8" y="-18.5" font-family="Helvetica,sans-Serif" font-size="10.00" fill="#000000">lib/heatshrink/heatshrink</text>
<text text-anchor="middle" x="62" y="-7.5" font-family="Helvetica,sans-Serif" font-size="10.00" fill="#000000">_decoder.c</text>
</a>
</g>
</g>
<!-- Node7&#45;&gt;Node8 -->
<g id="edge8" class="edge">
<title>Node7&#45;&gt;Node8</title>
<path fill="none" stroke="#191970" d="M217.4973,-64.4123C183.8545,-53.8298 141.8702,-40.6235 110.0098,-30.6017"/>
<polygon fill="#191970" stroke="#191970" points="216.6092,-67.802 227.1986,-67.4639 218.7097,-61.1245 216.6092,-67.802"/>
</g>
</g>
</svg>
