<?xml version="1.0" encoding="UTF-8" standalone="no"?>
<!DOCTYPE svg PUBLIC "-//W3C//DTD SVG 1.1//EN"
 "http://www.w3.org/Graphics/SVG/1.1/DTD/svg11.dtd">
<!-- Generated by graphviz version 2.39.20160927.1334 (20160927.1334)
 -->
<!-- Title: usage Pages: 1 -->
<svg width="223pt" height="47pt"
 viewBox="0.00 0.00 223.00 47.00" xmlns="http://www.w3.org/2000/svg" xmlns:xlink="http://www.w3.org/1999/xlink">
<g id="graph0" class="graph" transform="scale(1 1) rotate(0) translate(4 43)">
<title>usage</title>
<polygon fill="#ffffff" stroke="transparent" points="-4,4 -4,-43 219,-43 219,4 -4,4"/>
<!-- Node1 -->
<g id="node1" class="node">
<title>Node1</title>
<polygon fill="#bfbfbf" stroke="#000000" points="0,-19.5 0,-38.5 44,-38.5 44,-19.5 0,-19.5"/>
<text text-anchor="middle" x="22" y="-26.5" font-family="Helvetica,sans-Serif" font-size="10.00" fill="#000000">usage</text>
</g>
<!-- Node2 -->
<g id="node2" class="node">
<title>Node2</title>
<g id="a_node2"><a xlink:href="heatshrink_8c.html#a3c04138a5bfe5d72780bb7e82a18e627" target="_top" xlink:title="main">
<polygon fill="#ffffff" stroke="#000000" points="177,-19.5 177,-38.5 215,-38.5 215,-19.5 177,-19.5"/>
<text text-anchor="middle" x="196" y="-26.5" font-family="Helvetica,sans-Serif" font-size="10.00" fill="#000000">main</text>
</a>
</g>
</g>
<!-- Node1&#45;&gt;Node2 -->
<g id="edge1" class="edge">
<title>Node1&#45;&gt;Node2</title>
<path fill="none" stroke="#191970" d="M54.4837,-29C90.4732,-29 147.31,-29 176.808,-29"/>
<polygon fill="#191970" stroke="#191970" points="54.0373,-25.5001 44.0372,-29 54.0372,-32.5001 54.0373,-25.5001"/>
</g>
<!-- Node3 -->
<g id="node3" class="node">
<title>Node3</title>
<g id="a_node3"><a xlink:href="heatshrink_8c.html#aabf6c0737c3d519b0e95a9c83b9ee507" target="_top" xlink:title="proc_args">
<polygon fill="#ffffff" stroke="#000000" points="80,-0.5 80,-19.5 141,-19.5 141,-0.5 80,-0.5"/>
<text text-anchor="middle" x="110.5" y="-7.5" font-family="Helvetica,sans-Serif" font-size="10.00" fill="#000000">proc_args</text>
</a>
</g>
</g>
<!-- Node1&#45;&gt;Node3 -->
<g id="edge2" class="edge">
<title>Node1&#45;&gt;Node3</title>
<path fill="none" stroke="#191970" d="M54.147,-22.0984C62.5214,-20.3005 71.5223,-18.3681 79.8186,-16.587"/>
<polygon fill="#191970" stroke="#191970" points="53.3748,-18.6843 44.3323,-24.2055 54.8442,-25.5284 53.3748,-18.6843"/>
</g>
<!-- Node3&#45;&gt;Node2 -->
<g id="edge3" class="edge">
<title>Node3&#45;&gt;Node2</title>
<path fill="none" stroke="#191970" d="M151.313,-19.0695C160.238,-21.0528 169.275,-23.0611 176.865,-24.7479"/>
<polygon fill="#191970" stroke="#191970" points="151.889,-15.6122 141.367,-16.8594 150.37,-22.4455 151.889,-15.6122"/>
</g>
</g>
</svg>
