<?xml version="1.0" encoding="UTF-8" standalone="no"?>
<!DOCTYPE svg PUBLIC "-//W3C//DTD SVG 1.1//EN"
 "http://www.w3.org/Graphics/SVG/1.1/DTD/svg11.dtd">
<!-- Generated by graphviz version 2.39.20160927.1334 (20160927.1334)
 -->
<!-- Title: on_final_literal Pages: 1 -->
<svg width="854pt" height="680pt"
 viewBox="0.00 0.00 854.00 680.23" xmlns="http://www.w3.org/2000/svg" xmlns:xlink="http://www.w3.org/1999/xlink">
<g id="graph0" class="graph" transform="scale(1 1) rotate(0) translate(4 676.227)">
<title>on_final_literal</title>
<polygon fill="#ffffff" stroke="transparent" points="-4,4 -4,-676.227 850,-676.227 850,4 -4,4"/>
<!-- Node1 -->
<g id="node1" class="node">
<title>Node1</title>
<polygon fill="#bfbfbf" stroke="#000000" points="0,-378.727 0,-397.727 81,-397.727 81,-378.727 0,-378.727"/>
<text text-anchor="middle" x="40.5" y="-385.727" font-family="Helvetica,sans-Serif" font-size="10.00" fill="#000000">on_final_literal</text>
</g>
<!-- Node2 -->
<g id="node2" class="node">
<title>Node2</title>
<g id="a_node2"><a xlink:href="heatshrink__encoder_8c.html#a2fc159c7d9a01f00a26cbd49712aec82" target="_top" xlink:title="st_yield_literal">
<polygon fill="#ffffff" stroke="#000000" points="117,-378.727 117,-397.727 197,-397.727 197,-378.727 117,-378.727"/>
<text text-anchor="middle" x="157" y="-385.727" font-family="Helvetica,sans-Serif" font-size="10.00" fill="#000000">st_yield_literal</text>
</a>
</g>
</g>
<!-- Node1&#45;&gt;Node2 -->
<g id="edge1" class="edge">
<title>Node1&#45;&gt;Node2</title>
<path fill="none" stroke="#191970" d="M91.4645,-388.227C99.9682,-388.227 108.682,-388.227 116.867,-388.227"/>
<polygon fill="#191970" stroke="#191970" points="91.2461,-384.727 81.246,-388.227 91.246,-391.727 91.2461,-384.727"/>
</g>
<!-- Node3 -->
<g id="node3" class="node">
<title>Node3</title>
<g id="a_node3"><a xlink:href="heatshrink__encoder_8h.html#a7de708b2cb0d016d9183b0addf6126f3" target="_top" xlink:title="heatshrink_encoder_poll">
<polygon fill="#ffffff" stroke="#000000" points="233,-378.727 233,-397.727 358,-397.727 358,-378.727 233,-378.727"/>
<text text-anchor="middle" x="295.5" y="-385.727" font-family="Helvetica,sans-Serif" font-size="10.00" fill="#000000">heatshrink_encoder_poll</text>
</a>
</g>
</g>
<!-- Node2&#45;&gt;Node3 -->
<g id="edge2" class="edge">
<title>Node2&#45;&gt;Node3</title>
<path fill="none" stroke="#191970" d="M207.31,-388.227C215.6,-388.227 224.282,-388.227 232.828,-388.227"/>
<polygon fill="#191970" stroke="#191970" points="207.06,-384.727 197.06,-388.227 207.06,-391.727 207.06,-384.727"/>
</g>
<!-- Node4 -->
<g id="node4" class="node">
<title>Node4</title>
<g id="a_node4"><a xlink:href="heatshrink_8c.html#a593e86bba4eca0be280740fcf509bc12" target="_top" xlink:title="encoder_sink_read">
<polygon fill="#ffffff" stroke="#000000" points="418.5,-652.727 418.5,-671.727 520.5,-671.727 520.5,-652.727 418.5,-652.727"/>
<text text-anchor="middle" x="469.5" y="-659.727" font-family="Helvetica,sans-Serif" font-size="10.00" fill="#000000">encoder_sink_read</text>
</a>
</g>
</g>
<!-- Node3&#45;&gt;Node4 -->
<g id="edge3" class="edge">
<title>Node3&#45;&gt;Node4</title>
<path fill="none" stroke="#191970" d="M297.09,-407.806C302.058,-455.634 321.609,-579.174 394,-643.227 400.883,-649.317 409.437,-653.513 418.288,-656.39"/>
<polygon fill="#191970" stroke="#191970" points="300.573,-407.462 296.157,-397.832 293.604,-408.115 300.573,-407.462"/>
</g>
<!-- Node7 -->
<g id="node7" class="node">
<title>Node7</title>
<g id="a_node7"><a xlink:href="test__heatshrink__dynamic_8c.html#ade6da42ddec3e9a2d8fe58597792b843" target="_top" xlink:title="encoder_poll_should\l_reject_nulls">
<polygon fill="#ffffff" stroke="#000000" points="415,-603.227 415,-633.227 524,-633.227 524,-603.227 415,-603.227"/>
<text text-anchor="start" x="423" y="-621.227" font-family="Helvetica,sans-Serif" font-size="10.00" fill="#000000">encoder_poll_should</text>
<text text-anchor="middle" x="469.5" y="-610.227" font-family="Helvetica,sans-Serif" font-size="10.00" fill="#000000">_reject_nulls</text>
</a>
</g>
</g>
<!-- Node3&#45;&gt;Node7 -->
<g id="edge6" class="edge">
<title>Node3&#45;&gt;Node7</title>
<path fill="none" stroke="#191970" d="M299.544,-407.983C308.876,-448.606 335.729,-541.983 394,-593.227 400.014,-598.515 407.178,-602.691 414.663,-605.986"/>
<polygon fill="#191970" stroke="#191970" points="302.918,-407.026 297.365,-398.003 296.079,-408.52 302.918,-407.026"/>
</g>
<!-- Node9 -->
<g id="node9" class="node">
<title>Node9</title>
<g id="a_node9"><a xlink:href="test__heatshrink__dynamic_8c.html#aa662e805dae6d002db06dc962e7440f9" target="_top" xlink:title="encoder_poll_should\l_indicate_when_no_input\l_is_provided">
<polygon fill="#ffffff" stroke="#000000" points="404.5,-542.727 404.5,-583.727 534.5,-583.727 534.5,-542.727 404.5,-542.727"/>
<text text-anchor="start" x="412.5" y="-571.727" font-family="Helvetica,sans-Serif" font-size="10.00" fill="#000000">encoder_poll_should</text>
<text text-anchor="start" x="412.5" y="-560.727" font-family="Helvetica,sans-Serif" font-size="10.00" fill="#000000">_indicate_when_no_input</text>
<text text-anchor="middle" x="469.5" y="-549.727" font-family="Helvetica,sans-Serif" font-size="10.00" fill="#000000">_is_provided</text>
</a>
</g>
</g>
<!-- Node3&#45;&gt;Node9 -->
<g id="edge8" class="edge">
<title>Node3&#45;&gt;Node9</title>
<path fill="none" stroke="#191970" d="M303.855,-407.287C318.144,-437.851 350.047,-497.962 394,-533.227 398.291,-536.669 403.026,-539.759 407.971,-542.524"/>
<polygon fill="#191970" stroke="#191970" points="306.867,-405.454 299.544,-397.797 300.493,-408.349 306.867,-405.454"/>
</g>
<!-- Node10 -->
<g id="node10" class="node">
<title>Node10</title>
<g id="a_node10"><a xlink:href="test__heatshrink__dynamic_8c.html#a5339595930b85317e810fcf251b86351" target="_top" xlink:title="encoder_should_emit\l_data_without_repetitions\l_as_literal_sequence">
<polygon fill="#ffffff" stroke="#000000" points="404.5,-482.727 404.5,-523.727 534.5,-523.727 534.5,-482.727 404.5,-482.727"/>
<text text-anchor="start" x="412.5" y="-511.727" font-family="Helvetica,sans-Serif" font-size="10.00" fill="#000000">encoder_should_emit</text>
<text text-anchor="start" x="412.5" y="-500.727" font-family="Helvetica,sans-Serif" font-size="10.00" fill="#000000">_data_without_repetitions</text>
<text text-anchor="middle" x="469.5" y="-489.727" font-family="Helvetica,sans-Serif" font-size="10.00" fill="#000000">_as_literal_sequence</text>
</a>
</g>
</g>
<!-- Node3&#45;&gt;Node10 -->
<g id="edge10" class="edge">
<title>Node3&#45;&gt;Node10</title>
<path fill="none" stroke="#191970" d="M311.491,-405.064C329.944,-423.727 361.89,-453.756 394,-473.227 399.548,-476.591 405.54,-479.714 411.637,-482.576"/>
<polygon fill="#191970" stroke="#191970" points="313.93,-402.552 304.448,-397.826 308.913,-407.433 313.93,-402.552"/>
</g>
<!-- Node11 -->
<g id="node11" class="node">
<title>Node11</title>
<g id="a_node11"><a xlink:href="test__heatshrink__dynamic_8c.html#ae27157a664552fa0744d095239ee0d88" target="_top" xlink:title="encoder_should_emit\l_series_of_same_byte\l_as_literal_then_backref">
<polygon fill="#ffffff" stroke="#000000" points="407,-422.727 407,-463.727 532,-463.727 532,-422.727 407,-422.727"/>
<text text-anchor="start" x="415" y="-451.727" font-family="Helvetica,sans-Serif" font-size="10.00" fill="#000000">encoder_should_emit</text>
<text text-anchor="start" x="415" y="-440.727" font-family="Helvetica,sans-Serif" font-size="10.00" fill="#000000">_series_of_same_byte</text>
<text text-anchor="middle" x="469.5" y="-429.727" font-family="Helvetica,sans-Serif" font-size="10.00" fill="#000000">_as_literal_then_backref</text>
</a>
</g>
</g>
<!-- Node3&#45;&gt;Node11 -->
<g id="edge12" class="edge">
<title>Node3&#45;&gt;Node11</title>
<path fill="none" stroke="#191970" d="M335.416,-400.844C356.543,-407.522 382.971,-415.875 406.767,-423.397"/>
<polygon fill="#191970" stroke="#191970" points="336.398,-397.484 325.808,-397.807 334.289,-404.158 336.398,-397.484"/>
</g>
<!-- Node12 -->
<g id="node12" class="node">
<title>Node12</title>
<g id="a_node12"><a xlink:href="test__heatshrink__dynamic_8c.html#a2d84dd546b011bb6cfc3b1e9a9a5616b" target="_top" xlink:title="encoder_poll_should\l_detect_repeated_substring">
<polygon fill="#ffffff" stroke="#000000" points="399.5,-373.227 399.5,-403.227 539.5,-403.227 539.5,-373.227 399.5,-373.227"/>
<text text-anchor="start" x="407.5" y="-391.227" font-family="Helvetica,sans-Serif" font-size="10.00" fill="#000000">encoder_poll_should</text>
<text text-anchor="middle" x="469.5" y="-380.227" font-family="Helvetica,sans-Serif" font-size="10.00" fill="#000000">_detect_repeated_substring</text>
</a>
</g>
</g>
<!-- Node3&#45;&gt;Node12 -->
<g id="edge14" class="edge">
<title>Node3&#45;&gt;Node12</title>
<path fill="none" stroke="#191970" d="M368.453,-388.227C378.698,-388.227 389.211,-388.227 399.401,-388.227"/>
<polygon fill="#191970" stroke="#191970" points="368.318,-384.727 358.318,-388.227 368.318,-391.727 368.318,-384.727"/>
</g>
<!-- Node13 -->
<g id="node13" class="node">
<title>Node13</title>
<g id="a_node13"><a xlink:href="test__heatshrink__dynamic_8c.html#ab068727669a416029bacc708b2aac5ac" target="_top" xlink:title="encoder_poll_should\l_detect_repeated_substring\l_and_preserve_trailing_literal">
<polygon fill="#ffffff" stroke="#000000" points="395.5,-312.727 395.5,-353.727 543.5,-353.727 543.5,-312.727 395.5,-312.727"/>
<text text-anchor="start" x="403.5" y="-341.727" font-family="Helvetica,sans-Serif" font-size="10.00" fill="#000000">encoder_poll_should</text>
<text text-anchor="start" x="403.5" y="-330.727" font-family="Helvetica,sans-Serif" font-size="10.00" fill="#000000">_detect_repeated_substring</text>
<text text-anchor="middle" x="469.5" y="-319.727" font-family="Helvetica,sans-Serif" font-size="10.00" fill="#000000">_and_preserve_trailing_literal</text>
</a>
</g>
</g>
<!-- Node3&#45;&gt;Node13 -->
<g id="edge16" class="edge">
<title>Node3&#45;&gt;Node13</title>
<path fill="none" stroke="#191970" d="M335.432,-375.604C355.915,-369.13 381.378,-361.081 404.593,-353.743"/>
<polygon fill="#191970" stroke="#191970" points="334.289,-372.295 325.808,-378.646 336.398,-378.97 334.289,-372.295"/>
</g>
<!-- Node14 -->
<g id="node14" class="node">
<title>Node14</title>
<g id="a_node14"><a xlink:href="test__heatshrink__dynamic_8c.html#a6627d0e00f7e636ae9294cc6255c7ffd" target="_top" xlink:title="gen">
<polygon fill="#ffffff" stroke="#000000" points="453,-274.727 453,-293.727 486,-293.727 486,-274.727 453,-274.727"/>
<text text-anchor="middle" x="469.5" y="-281.727" font-family="Helvetica,sans-Serif" font-size="10.00" fill="#000000">gen</text>
</a>
</g>
</g>
<!-- Node3&#45;&gt;Node14 -->
<g id="edge18" class="edge">
<title>Node3&#45;&gt;Node14</title>
<path fill="none" stroke="#191970" d="M310.479,-371.203C328.43,-351.863 360.328,-320.725 394,-303.227 412.83,-293.442 436.96,-288.512 452.808,-286.163"/>
<polygon fill="#191970" stroke="#191970" points="307.807,-368.939 303.675,-378.695 312.989,-373.645 307.807,-368.939"/>
</g>
<!-- Node16 -->
<g id="node16" class="node">
<title>Node16</title>
<g id="a_node16"><a xlink:href="test__heatshrink__dynamic_8c.html#ab9096be17a9dc8f301673949558e5bd6" target="_top" xlink:title="compress_and_expand\l_and_check">
<polygon fill="#ffffff" stroke="#000000" points="409.5,-225.227 409.5,-255.227 529.5,-255.227 529.5,-225.227 409.5,-225.227"/>
<text text-anchor="start" x="417.5" y="-243.227" font-family="Helvetica,sans-Serif" font-size="10.00" fill="#000000">compress_and_expand</text>
<text text-anchor="middle" x="469.5" y="-232.227" font-family="Helvetica,sans-Serif" font-size="10.00" fill="#000000">_and_check</text>
</a>
</g>
</g>
<!-- Node3&#45;&gt;Node16 -->
<g id="edge20" class="edge">
<title>Node3&#45;&gt;Node16</title>
<path fill="none" stroke="#191970" d="M305.494,-369.931C321.013,-343.167 353.393,-293.467 394,-265.227 399.555,-261.364 405.749,-258.064 412.134,-255.253"/>
<polygon fill="#191970" stroke="#191970" points="302.427,-368.243 300.555,-378.671 308.522,-371.686 302.427,-368.243"/>
</g>
<!-- Node25 -->
<g id="node25" class="node">
<title>Node25</title>
<g id="a_node25"><a xlink:href="test__heatshrink__dynamic_8c.html#a9a102029b8375d4050406a2814f390ac" target="_top" xlink:title="data_without_duplication\l_should_match_with_absurdly\l_tiny_buffers">
<polygon fill="#ffffff" stroke="#000000" points="597,-37.7266 597,-78.7266 748,-78.7266 748,-37.7266 597,-37.7266"/>
<text text-anchor="start" x="605" y="-66.7266" font-family="Helvetica,sans-Serif" font-size="10.00" fill="#000000">data_without_duplication</text>
<text text-anchor="start" x="605" y="-55.7266" font-family="Helvetica,sans-Serif" font-size="10.00" fill="#000000">_should_match_with_absurdly</text>
<text text-anchor="middle" x="672.5" y="-44.7266" font-family="Helvetica,sans-Serif" font-size="10.00" fill="#000000">_tiny_buffers</text>
</a>
</g>
</g>
<!-- Node3&#45;&gt;Node25 -->
<g id="edge35" class="edge">
<title>Node3&#45;&gt;Node25</title>
<path fill="none" stroke="#191970" d="M302.991,-369.004C316.938,-335.007 349.555,-263.329 394,-215.227 462.179,-141.436 490.831,-132.532 581,-88.2266 587.902,-84.8354 595.278,-81.6942 602.734,-78.8228"/>
<polygon fill="#191970" stroke="#191970" points="299.6,-368.056 299.127,-378.64 306.097,-370.661 299.6,-368.056"/>
</g>
<!-- Node26 -->
<g id="node26" class="node">
<title>Node26</title>
<g id="a_node26"><a xlink:href="test__heatshrink__dynamic_8c.html#acd64db79d79999a7c5436d35b74a7f40" target="_top" xlink:title="data_with_simple_repetition\l_should_match_with_absurdly\l_tiny_buffers">
<polygon fill="#ffffff" stroke="#000000" points="394,-32.7266 394,-73.7266 545,-73.7266 545,-32.7266 394,-32.7266"/>
<text text-anchor="start" x="402" y="-61.7266" font-family="Helvetica,sans-Serif" font-size="10.00" fill="#000000">data_with_simple_repetition</text>
<text text-anchor="start" x="402" y="-50.7266" font-family="Helvetica,sans-Serif" font-size="10.00" fill="#000000">_should_match_with_absurdly</text>
<text text-anchor="middle" x="469.5" y="-39.7266" font-family="Helvetica,sans-Serif" font-size="10.00" fill="#000000">_tiny_buffers</text>
</a>
</g>
</g>
<!-- Node3&#45;&gt;Node26 -->
<g id="edge37" class="edge">
<title>Node3&#45;&gt;Node26</title>
<path fill="none" stroke="#191970" d="M301.696,-368.597C315.258,-326.948 349.91,-227.317 394,-151.227 410.582,-122.608 434.536,-92.9575 450.991,-73.8727"/>
<polygon fill="#191970" stroke="#191970" points="298.301,-367.724 298.574,-378.315 304.965,-369.865 298.301,-367.724"/>
</g>
<!-- Node5 -->
<g id="node5" class="node">
<title>Node5</title>
<g id="a_node5"><a xlink:href="heatshrink_8c.html#a37f19023beced8a782d3051bfd7a0bcb" target="_top" xlink:title="encode">
<polygon fill="#ffffff" stroke="#000000" points="648,-652.727 648,-671.727 697,-671.727 697,-652.727 648,-652.727"/>
<text text-anchor="middle" x="672.5" y="-659.727" font-family="Helvetica,sans-Serif" font-size="10.00" fill="#000000">encode</text>
</a>
</g>
</g>
<!-- Node4&#45;&gt;Node5 -->
<g id="edge4" class="edge">
<title>Node4&#45;&gt;Node5</title>
<path fill="none" stroke="#191970" d="M530.746,-662.227C570.026,-662.227 618.905,-662.227 647.798,-662.227"/>
<polygon fill="#191970" stroke="#191970" points="530.726,-658.727 520.725,-662.227 530.725,-665.727 530.726,-658.727"/>
</g>
<!-- Node6 -->
<g id="node6" class="node">
<title>Node6</title>
<g id="a_node6"><a xlink:href="heatshrink_8c.html#a3c04138a5bfe5d72780bb7e82a18e627" target="_top" xlink:title="main">
<polygon fill="#ffffff" stroke="#000000" points="804,-652.727 804,-671.727 842,-671.727 842,-652.727 804,-652.727"/>
<text text-anchor="middle" x="823" y="-659.727" font-family="Helvetica,sans-Serif" font-size="10.00" fill="#000000">main</text>
</a>
</g>
</g>
<!-- Node5&#45;&gt;Node6 -->
<g id="edge5" class="edge">
<title>Node5&#45;&gt;Node6</title>
<path fill="none" stroke="#191970" d="M707.064,-662.227C737.07,-662.227 779.418,-662.227 803.756,-662.227"/>
<polygon fill="#191970" stroke="#191970" points="707.015,-658.727 697.015,-662.227 707.015,-665.727 707.015,-658.727"/>
</g>
<!-- Node8 -->
<g id="node8" class="node">
<title>Node8</title>
<g id="a_node8"><a xlink:href="test__heatshrink__dynamic_8c.html#ac4a70b7ac22f00448c1d17d2b29a1359" target="_top" xlink:title="SUITE">
<polygon fill="#ffffff" stroke="#000000" points="649.5,-485.727 649.5,-504.727 695.5,-504.727 695.5,-485.727 649.5,-485.727"/>
<text text-anchor="middle" x="672.5" y="-492.727" font-family="Helvetica,sans-Serif" font-size="10.00" fill="#000000">SUITE</text>
</a>
</g>
</g>
<!-- Node7&#45;&gt;Node8 -->
<g id="edge7" class="edge">
<title>Node7&#45;&gt;Node8</title>
<path fill="none" stroke="#191970" d="M532.414,-599.217C536.744,-597.355 540.98,-595.358 545,-593.227 593.098,-567.723 641.899,-524.212 662.425,-504.924"/>
<polygon fill="#191970" stroke="#191970" points="530.801,-596.093 522.833,-603.076 533.416,-602.586 530.801,-596.093"/>
</g>
<!-- Node9&#45;&gt;Node8 -->
<g id="edge9" class="edge">
<title>Node9&#45;&gt;Node8</title>
<path fill="none" stroke="#191970" d="M540.505,-539.442C578.654,-526.663 623.139,-511.761 649.5,-502.931"/>
<polygon fill="#191970" stroke="#191970" points="539.328,-536.145 530.958,-542.64 541.551,-542.782 539.328,-536.145"/>
</g>
<!-- Node10&#45;&gt;Node8 -->
<g id="edge11" class="edge">
<title>Node10&#45;&gt;Node8</title>
<path fill="none" stroke="#191970" d="M544.841,-500.258C581.794,-498.801 623.711,-497.149 649.118,-496.148"/>
<polygon fill="#191970" stroke="#191970" points="544.422,-496.771 534.568,-500.662 544.698,-503.766 544.422,-496.771"/>
</g>
<!-- Node11&#45;&gt;Node8 -->
<g id="edge13" class="edge">
<title>Node11&#45;&gt;Node8</title>
<path fill="none" stroke="#191970" d="M542.084,-462.197C555.039,-465.556 568.415,-469.008 581,-472.227 604.169,-478.151 630.672,-484.799 649.17,-489.418"/>
<polygon fill="#191970" stroke="#191970" points="542.838,-458.776 532.279,-459.651 541.078,-465.552 542.838,-458.776"/>
</g>
<!-- Node12&#45;&gt;Node8 -->
<g id="edge15" class="edge">
<title>Node12&#45;&gt;Node8</title>
<path fill="none" stroke="#191970" d="M537.786,-408.169C540.302,-409.732 542.72,-411.415 545,-413.227 569.052,-432.335 556.262,-454.015 581,-472.227 601.05,-486.987 629.548,-492.328 649.393,-494.231"/>
<polygon fill="#191970" stroke="#191970" points="539.358,-405.04 528.907,-403.304 535.995,-411.178 539.358,-405.04"/>
</g>
<!-- Node13&#45;&gt;Node8 -->
<g id="edge17" class="edge">
<title>Node13&#45;&gt;Node8</title>
<path fill="none" stroke="#191970" d="M542.12,-360.375C543.114,-361.295 544.075,-362.245 545,-363.227 579.991,-400.354 543.637,-437.487 581,-472.227 599.473,-489.403 628.833,-494.237 649.296,-495.363"/>
<polygon fill="#191970" stroke="#191970" points="543.953,-357.363 533.938,-353.906 539.612,-362.854 543.953,-357.363"/>
</g>
<!-- Node15 -->
<g id="node15" class="node">
<title>Node15</title>
<g id="a_node15"><a xlink:href="test__heatshrink__dynamic_8c.html#adc66afa12a5eaae0cd12d5cc497f0f67" target="_top" xlink:title="SUITE">
<polygon fill="#ffffff" stroke="#000000" points="649.5,-443.727 649.5,-462.727 695.5,-462.727 695.5,-443.727 649.5,-443.727"/>
<text text-anchor="middle" x="672.5" y="-450.727" font-family="Helvetica,sans-Serif" font-size="10.00" fill="#000000">SUITE</text>
</a>
</g>
</g>
<!-- Node14&#45;&gt;Node15 -->
<g id="edge19" class="edge">
<title>Node14&#45;&gt;Node15</title>
<path fill="none" stroke="#191970" d="M496.634,-284.521C512.674,-286.125 532.272,-290.796 545,-303.227 587.89,-345.116 537.459,-392.015 581,-433.227 599.187,-450.44 628.604,-454.181 649.159,-454.43"/>
<polygon fill="#191970" stroke="#191970" points="496.433,-281 486.227,-283.842 495.978,-287.986 496.433,-281"/>
</g>
<!-- Node17 -->
<g id="node17" class="node">
<title>Node17</title>
<g id="a_node17"><a xlink:href="test__heatshrink__dynamic_8c.html#a9d63746ee6a963338d09b8a19da82529" target="_top" xlink:title="data_without_duplication\l_should_match">
<polygon fill="#ffffff" stroke="#000000" points="609,-394.227 609,-424.227 736,-424.227 736,-394.227 609,-394.227"/>
<text text-anchor="start" x="617" y="-412.227" font-family="Helvetica,sans-Serif" font-size="10.00" fill="#000000">data_without_duplication</text>
<text text-anchor="middle" x="672.5" y="-401.227" font-family="Helvetica,sans-Serif" font-size="10.00" fill="#000000">_should_match</text>
</a>
</g>
</g>
<!-- Node16&#45;&gt;Node17 -->
<g id="edge21" class="edge">
<title>Node16&#45;&gt;Node17</title>
<path fill="none" stroke="#191970" d="M538.256,-259.359C540.659,-261.144 542.922,-263.094 545,-265.227 583.561,-304.803 541.403,-345.687 581,-384.227 588.789,-391.807 598.643,-397.141 608.98,-400.882"/>
<polygon fill="#191970" stroke="#191970" points="539.941,-256.284 529.615,-253.912 536.208,-262.206 539.941,-256.284"/>
</g>
<!-- Node19 -->
<g id="node19" class="node">
<title>Node19</title>
<g id="a_node19"><a xlink:href="test__heatshrink__dynamic_8c.html#ae9d1425d6c89a652b9df2b4ddc7ac2a2" target="_top" xlink:title="data_with_simple_repetition\l_should_compress_and_decompress\l_properly">
<polygon fill="#ffffff" stroke="#000000" points="581,-333.727 581,-374.727 764,-374.727 764,-333.727 581,-333.727"/>
<text text-anchor="start" x="589" y="-362.727" font-family="Helvetica,sans-Serif" font-size="10.00" fill="#000000">data_with_simple_repetition</text>
<text text-anchor="start" x="589" y="-351.727" font-family="Helvetica,sans-Serif" font-size="10.00" fill="#000000">_should_compress_and_decompress</text>
<text text-anchor="middle" x="672.5" y="-340.727" font-family="Helvetica,sans-Serif" font-size="10.00" fill="#000000">_properly</text>
</a>
</g>
</g>
<!-- Node16&#45;&gt;Node19 -->
<g id="edge23" class="edge">
<title>Node16&#45;&gt;Node19</title>
<path fill="none" stroke="#191970" d="M537.769,-260.191C540.29,-261.748 542.713,-263.424 545,-265.227 568.827,-284.008 557.238,-304.363 581,-323.227 585.992,-327.189 591.518,-330.659 597.309,-333.694"/>
<polygon fill="#191970" stroke="#191970" points="539.332,-257.057 528.877,-255.342 535.98,-263.202 539.332,-257.057"/>
</g>
<!-- Node20 -->
<g id="node20" class="node">
<title>Node20</title>
<g id="a_node20"><a xlink:href="test__heatshrink__dynamic_8c.html#a60c0e0c5bbb9715c7932ee82e706752d" target="_top" xlink:title="pseudorandom_data_should\l_match">
<polygon fill="#ffffff" stroke="#000000" points="601,-284.227 601,-314.227 744,-314.227 744,-284.227 601,-284.227"/>
<text text-anchor="start" x="609" y="-302.227" font-family="Helvetica,sans-Serif" font-size="10.00" fill="#000000">pseudorandom_data_should</text>
<text text-anchor="middle" x="672.5" y="-291.227" font-family="Helvetica,sans-Serif" font-size="10.00" fill="#000000">_match</text>
</a>
</g>
</g>
<!-- Node16&#45;&gt;Node20 -->
<g id="edge25" class="edge">
<title>Node16&#45;&gt;Node20</title>
<path fill="none" stroke="#191970" d="M527.594,-258.293C544.76,-263.536 563.61,-269.201 581,-274.227 592.391,-277.519 604.612,-280.936 616.295,-284.149"/>
<polygon fill="#191970" stroke="#191970" points="528.292,-254.846 517.705,-255.263 526.241,-261.539 528.292,-254.846"/>
</g>
<!-- Node21 -->
<g id="node21" class="node">
<title>Node21</title>
<g id="a_node21"><a xlink:href="test__heatshrink__dynamic_8c.html#a20e1a72bba941f0c602b93b53d32d5db" target="_top" xlink:title="small_input_buffer\l_should_not_impact_decoder\l_correctness">
<polygon fill="#ffffff" stroke="#000000" points="598.5,-223.727 598.5,-264.727 746.5,-264.727 746.5,-223.727 598.5,-223.727"/>
<text text-anchor="start" x="606.5" y="-252.727" font-family="Helvetica,sans-Serif" font-size="10.00" fill="#000000">small_input_buffer</text>
<text text-anchor="start" x="606.5" y="-241.727" font-family="Helvetica,sans-Serif" font-size="10.00" fill="#000000">_should_not_impact_decoder</text>
<text text-anchor="middle" x="672.5" y="-230.727" font-family="Helvetica,sans-Serif" font-size="10.00" fill="#000000">_correctness</text>
</a>
</g>
</g>
<!-- Node16&#45;&gt;Node21 -->
<g id="edge27" class="edge">
<title>Node16&#45;&gt;Node21</title>
<path fill="none" stroke="#191970" d="M539.606,-241.608C558.517,-241.981 579.042,-242.385 598.175,-242.762"/>
<polygon fill="#191970" stroke="#191970" points="539.65,-238.108 529.583,-241.411 539.512,-245.107 539.65,-238.108"/>
</g>
<!-- Node22 -->
<g id="node22" class="node">
<title>Node22</title>
<g id="a_node22"><a xlink:href="test__heatshrink__dynamic_8c.html#a462faeb904a3de1b1e009a04f7d171d8" target="_top" xlink:title="regression_backreference\l_counters_should_not_roll_over">
<polygon fill="#ffffff" stroke="#000000" points="593,-174.227 593,-204.227 752,-204.227 752,-174.227 593,-174.227"/>
<text text-anchor="start" x="601" y="-192.227" font-family="Helvetica,sans-Serif" font-size="10.00" fill="#000000">regression_backreference</text>
<text text-anchor="middle" x="672.5" y="-181.227" font-family="Helvetica,sans-Serif" font-size="10.00" fill="#000000">_counters_should_not_roll_over</text>
</a>
</g>
</g>
<!-- Node16&#45;&gt;Node22 -->
<g id="edge29" class="edge">
<title>Node16&#45;&gt;Node22</title>
<path fill="none" stroke="#191970" d="M539.051,-222.753C563.026,-216.73 589.648,-210.042 612.768,-204.233"/>
<polygon fill="#191970" stroke="#191970" points="538.155,-219.37 529.309,-225.201 539.86,-226.159 538.155,-219.37"/>
</g>
<!-- Node23 -->
<g id="node23" class="node">
<title>Node23</title>
<g id="a_node23"><a xlink:href="test__heatshrink__dynamic_8c.html#a2ed8ea21768d114fa96b07eb58475663" target="_top" xlink:title="regression_index_fail">
<polygon fill="#ffffff" stroke="#000000" points="617,-135.727 617,-154.727 728,-154.727 728,-135.727 617,-135.727"/>
<text text-anchor="middle" x="672.5" y="-142.727" font-family="Helvetica,sans-Serif" font-size="10.00" fill="#000000">regression_index_fail</text>
</a>
</g>
</g>
<!-- Node16&#45;&gt;Node23 -->
<g id="edge31" class="edge">
<title>Node16&#45;&gt;Node23</title>
<path fill="none" stroke="#191970" d="M494.73,-218.712C516.284,-201.438 548.828,-177.886 581,-164.227 592.2,-159.471 604.692,-155.871 616.756,-153.158"/>
<polygon fill="#191970" stroke="#191970" points="492.288,-216.187 486.753,-225.221 496.714,-221.61 492.288,-216.187"/>
</g>
<!-- Node24 -->
<g id="node24" class="node">
<title>Node24</title>
<g id="a_node24"><a xlink:href="test__heatshrink__dynamic_8c.html#a1bfe72da903d55a8610433a4f2a60d43" target="_top" xlink:title="sixty_four_k">
<polygon fill="#ffffff" stroke="#000000" points="637.5,-97.7266 637.5,-116.727 707.5,-116.727 707.5,-97.7266 637.5,-97.7266"/>
<text text-anchor="middle" x="672.5" y="-104.727" font-family="Helvetica,sans-Serif" font-size="10.00" fill="#000000">sixty_four_k</text>
</a>
</g>
</g>
<!-- Node16&#45;&gt;Node24 -->
<g id="edge33" class="edge">
<title>Node16&#45;&gt;Node24</title>
<path fill="none" stroke="#191970" d="M499.667,-219.11C514.238,-208.129 531.454,-193.945 545,-179.227 564.284,-158.274 557.33,-142.056 581,-126.227 597.454,-115.223 619.005,-110.393 637.06,-108.35"/>
<polygon fill="#191970" stroke="#191970" points="497.406,-216.429 491.441,-225.185 501.564,-222.059 497.406,-216.429"/>
</g>
<!-- Node18 -->
<g id="node18" class="node">
<title>Node18</title>
<g id="a_node18"><a xlink:href="test__heatshrink__dynamic_8c.html#a2f157eb23cb17a496326c14e12933b3b" target="_top" xlink:title="SUITE">
<polygon fill="#ffffff" stroke="#000000" points="800,-179.727 800,-198.727 846,-198.727 846,-179.727 800,-179.727"/>
<text text-anchor="middle" x="823" y="-186.727" font-family="Helvetica,sans-Serif" font-size="10.00" fill="#000000">SUITE</text>
</a>
</g>
</g>
<!-- Node17&#45;&gt;Node18 -->
<g id="edge22" class="edge">
<title>Node17&#45;&gt;Node18</title>
<path fill="none" stroke="#191970" d="M745.521,-396.888C752.314,-393.588 758.645,-389.438 764,-384.227 791.628,-357.337 814.986,-234.838 821.312,-199.063"/>
<polygon fill="#191970" stroke="#191970" points="743.882,-393.78 736.02,-400.882 746.595,-400.233 743.882,-393.78"/>
</g>
<!-- Node19&#45;&gt;Node18 -->
<g id="edge24" class="edge">
<title>Node19&#45;&gt;Node18</title>
<path fill="none" stroke="#191970" d="M758.034,-328.145C760.111,-326.599 762.106,-324.961 764,-323.227 802.433,-288.038 817.147,-223.279 821.484,-198.873"/>
<polygon fill="#191970" stroke="#191970" points="756.078,-325.242 749.657,-333.669 759.932,-331.086 756.078,-325.242"/>
</g>
<!-- Node20&#45;&gt;Node18 -->
<g id="edge26" class="edge">
<title>Node20&#45;&gt;Node18</title>
<path fill="none" stroke="#191970" d="M753.515,-280.609C757.172,-278.687 760.691,-276.566 764,-274.227 792.163,-254.317 811.269,-216.459 819.062,-198.775"/>
<polygon fill="#191970" stroke="#191970" points="751.745,-277.573 744.18,-284.991 754.72,-283.91 751.745,-277.573"/>
</g>
<!-- Node21&#45;&gt;Node18 -->
<g id="edge28" class="edge">
<title>Node21&#45;&gt;Node18</title>
<path fill="none" stroke="#191970" d="M744.414,-220.316C751.054,-217.972 757.664,-215.586 764,-213.227 776.124,-208.711 789.49,-203.31 800.43,-198.776"/>
<polygon fill="#191970" stroke="#191970" points="742.978,-217.11 734.693,-223.713 745.288,-223.718 742.978,-217.11"/>
</g>
<!-- Node22&#45;&gt;Node18 -->
<g id="edge30" class="edge">
<title>Node22&#45;&gt;Node18</title>
<path fill="none" stroke="#191970" d="M762.338,-189.227C776.192,-189.227 789.36,-189.227 799.866,-189.227"/>
<polygon fill="#191970" stroke="#191970" points="762.157,-185.727 752.157,-189.227 762.157,-192.727 762.157,-185.727"/>
</g>
<!-- Node23&#45;&gt;Node18 -->
<g id="edge32" class="edge">
<title>Node23&#45;&gt;Node18</title>
<path fill="none" stroke="#191970" d="M736.993,-156.958C746.133,-159.101 755.357,-161.527 764,-164.227 777.38,-168.406 791.881,-174.528 803.159,-179.667"/>
<polygon fill="#191970" stroke="#191970" points="737.663,-153.522 727.139,-154.744 736.129,-160.351 737.663,-153.522"/>
</g>
<!-- Node24&#45;&gt;Node18 -->
<g id="edge34" class="edge">
<title>Node24&#45;&gt;Node18</title>
<path fill="none" stroke="#191970" d="M717.607,-111.008C733.048,-113.718 749.957,-118.345 764,-126.227 787.521,-139.428 807.134,-165.211 816.707,-179.357"/>
<polygon fill="#191970" stroke="#191970" points="718.133,-107.548 707.717,-109.489 717.07,-114.467 718.133,-107.548"/>
</g>
<!-- Node25&#45;&gt;Node18 -->
<g id="edge36" class="edge">
<title>Node25&#45;&gt;Node18</title>
<path fill="none" stroke="#191970" d="M756.916,-83.0819C759.375,-84.6919 761.745,-86.4047 764,-88.2266 795.121,-113.365 813.283,-159.624 820.002,-179.611"/>
<polygon fill="#191970" stroke="#191970" points="758.65,-80.041 748.254,-77.9944 755.104,-86.0769 758.65,-80.041"/>
</g>
<!-- Node26&#45;&gt;Node18 -->
<g id="edge38" class="edge">
<title>Node26&#45;&gt;Node18</title>
<path fill="none" stroke="#191970" d="M524.516,-29.047C588.139,-5.16492 693.181,21.2458 764,-28.2266 790.234,-46.5533 814.018,-147.656 820.963,-179.571"/>
<polygon fill="#191970" stroke="#191970" points="523.127,-25.8313 515.056,-32.6944 525.645,-32.3628 523.127,-25.8313"/>
</g>
</g>
</svg>
