<?xml version="1.0" encoding="UTF-8" standalone="no"?>
<!DOCTYPE svg PUBLIC "-//W3C//DTD SVG 1.1//EN"
 "http://www.w3.org/Graphics/SVG/1.1/DTD/svg11.dtd">
<!-- Generated by graphviz version 2.41.20170323.1842 (20170323.1842)
 -->
<!-- Title: heatshrink_encoder_free Pages: 1 -->
<svg width="620pt" height="1025pt"
 viewBox="0.00 0.00 620.00 1024.50" xmlns="http://www.w3.org/2000/svg" xmlns:xlink="http://www.w3.org/1999/xlink">
<g id="graph0" class="graph" transform="scale(1 1) rotate(0) translate(4 1020.5)">
<title>heatshrink_encoder_free</title>
<polygon fill="#ffffff" stroke="transparent" points="-4,4 -4,-1020.5 616,-1020.5 616,4 -4,4"/>
<!-- Node55 -->
<g id="node1" class="node">
<title>Node55</title>
<polygon fill="#bfbfbf" stroke="#000000" points="0,-361.5 0,-380.5 127,-380.5 127,-361.5 0,-361.5"/>
<text text-anchor="middle" x="63.5" y="-368.5" font-family="Helvetica,sans-Serif" font-size="10.00" fill="#000000">heatshrink_encoder_free</text>
</g>
<!-- Node56 -->
<g id="node2" class="node">
<title>Node56</title>
<g id="a_node2"><a xlink:href="test__heatshrink__dynamic_8c.html#ab9096be17a9dc8f301673949558e5bd6" target="_top" xlink:title="compress_and_expand\l_and_check">
<polygon fill="#ffffff" stroke="#000000" points="177,-794 177,-824 297,-824 297,-794 177,-794"/>
<text text-anchor="start" x="185" y="-812" font-family="Helvetica,sans-Serif" font-size="10.00" fill="#000000">compress_and_expand</text>
<text text-anchor="middle" x="237" y="-801" font-family="Helvetica,sans-Serif" font-size="10.00" fill="#000000">_and_check</text>
</a>
</g>
</g>
<!-- Node55&#45;&gt;Node56 -->
<g id="edge1" class="edge">
<title>Node55&#45;&gt;Node56</title>
<path fill="none" stroke="#191970" d="M69.2618,-390.3544C83.4004,-437.1807 121.6814,-560.0259 163,-659 184.1432,-709.6461 214.4015,-767.269 228.7916,-793.9618"/>
<polygon fill="#191970" stroke="#191970" points="72.5642,-389.1817 66.3377,-380.6096 65.8595,-391.1936 72.5642,-389.1817"/>
</g>
<!-- Node65 -->
<g id="node11" class="node">
<title>Node65</title>
<g id="a_node11"><a xlink:href="test__heatshrink__dynamic_8c.html#acd64db79d79999a7c5436d35b74a7f40" target="_top" xlink:title="data_with_simple_repetition\l_should_match_with_absurdly\l_tiny_buffers">
<polygon fill="#ffffff" stroke="#000000" points="363,-629.5 363,-670.5 514,-670.5 514,-629.5 363,-629.5"/>
<text text-anchor="start" x="371" y="-658.5" font-family="Helvetica,sans-Serif" font-size="10.00" fill="#000000">data_with_simple_repetition</text>
<text text-anchor="start" x="371" y="-647.5" font-family="Helvetica,sans-Serif" font-size="10.00" fill="#000000">_should_match_with_absurdly</text>
<text text-anchor="middle" x="438.5" y="-636.5" font-family="Helvetica,sans-Serif" font-size="10.00" fill="#000000">_tiny_buffers</text>
</a>
</g>
</g>
<!-- Node55&#45;&gt;Node65 -->
<g id="edge16" class="edge">
<title>Node55&#45;&gt;Node65</title>
<path fill="none" stroke="#191970" d="M65.4761,-390.7648C71.2146,-436.8547 92.265,-551.7254 163,-607 219.4532,-651.1143 302.7124,-658.5933 362.9148,-657.0523"/>
<polygon fill="#191970" stroke="#191970" points="68.929,-390.1499 64.3262,-380.6071 61.9734,-390.9374 68.929,-390.1499"/>
</g>
<!-- Node66 -->
<g id="node12" class="node">
<title>Node66</title>
<g id="a_node12"><a xlink:href="test__heatshrink__dynamic_8c.html#a9a102029b8375d4050406a2814f390ac" target="_top" xlink:title="data_without_duplication\l_should_match_with_absurdly\l_tiny_buffers">
<polygon fill="#ffffff" stroke="#000000" points="363,-569.5 363,-610.5 514,-610.5 514,-569.5 363,-569.5"/>
<text text-anchor="start" x="371" y="-598.5" font-family="Helvetica,sans-Serif" font-size="10.00" fill="#000000">data_without_duplication</text>
<text text-anchor="start" x="371" y="-587.5" font-family="Helvetica,sans-Serif" font-size="10.00" fill="#000000">_should_match_with_absurdly</text>
<text text-anchor="middle" x="438.5" y="-576.5" font-family="Helvetica,sans-Serif" font-size="10.00" fill="#000000">_tiny_buffers</text>
</a>
</g>
</g>
<!-- Node55&#45;&gt;Node66 -->
<g id="edge18" class="edge">
<title>Node55&#45;&gt;Node66</title>
<path fill="none" stroke="#191970" d="M66.2733,-390.4813C73.4656,-432.9151 96.9957,-533.3785 163,-577 221.6227,-615.7431 303.5665,-614.3398 362.8303,-606.086"/>
<polygon fill="#191970" stroke="#191970" points="69.7271,-389.9135 64.7179,-380.5776 62.8119,-390.9996 69.7271,-389.9135"/>
</g>
<!-- Node67 -->
<g id="node13" class="node">
<title>Node67</title>
<g id="a_node13"><a xlink:href="heatshrink_8c.html#a37f19023beced8a782d3051bfd7a0bcb" target="_top" xlink:title="encode">
<polygon fill="#ffffff" stroke="#000000" points="212.5,-548.5 212.5,-567.5 261.5,-567.5 261.5,-548.5 212.5,-548.5"/>
<text text-anchor="middle" x="237" y="-555.5" font-family="Helvetica,sans-Serif" font-size="10.00" fill="#000000">encode</text>
</a>
</g>
</g>
<!-- Node55&#45;&gt;Node67 -->
<g id="edge20" class="edge">
<title>Node55&#45;&gt;Node67</title>
<path fill="none" stroke="#191970" d="M69.4296,-390.3557C81.2454,-425.5787 111.1521,-500.0974 163,-539 177.2167,-549.6671 196.8254,-554.3729 212.286,-556.4354"/>
<polygon fill="#191970" stroke="#191970" points="72.7386,-389.2127 66.3392,-380.7689 66.0762,-391.3605 72.7386,-389.2127"/>
</g>
<!-- Node69 -->
<g id="node15" class="node">
<title>Node69</title>
<g id="a_node15"><a xlink:href="test__heatshrink__dynamic_8c.html#a2d84dd546b011bb6cfc3b1e9a9a5616b" target="_top" xlink:title="encoder_poll_should\l_detect_repeated_substring">
<polygon fill="#ffffff" stroke="#000000" points="167,-499 167,-529 307,-529 307,-499 167,-499"/>
<text text-anchor="start" x="175" y="-517" font-family="Helvetica,sans-Serif" font-size="10.00" fill="#000000">encoder_poll_should</text>
<text text-anchor="middle" x="237" y="-506" font-family="Helvetica,sans-Serif" font-size="10.00" fill="#000000">_detect_repeated_substring</text>
</a>
</g>
</g>
<!-- Node55&#45;&gt;Node69 -->
<g id="edge22" class="edge">
<title>Node55&#45;&gt;Node69</title>
<path fill="none" stroke="#191970" d="M74.5404,-389.6084C90.7892,-415.4664 123.5284,-462.1103 163,-489 168.6036,-492.8174 174.8411,-496.0973 181.2512,-498.904"/>
<polygon fill="#191970" stroke="#191970" points="77.3511,-387.4965 69.1406,-380.8003 71.3833,-391.1551 77.3511,-387.4965"/>
</g>
<!-- Node71 -->
<g id="node17" class="node">
<title>Node71</title>
<g id="a_node17"><a xlink:href="test__heatshrink__dynamic_8c.html#ab068727669a416029bacc708b2aac5ac" target="_top" xlink:title="encoder_poll_should\l_detect_repeated_substring\l_and_preserve_trailing_literal">
<polygon fill="#ffffff" stroke="#000000" points="163,-438.5 163,-479.5 311,-479.5 311,-438.5 163,-438.5"/>
<text text-anchor="start" x="171" y="-467.5" font-family="Helvetica,sans-Serif" font-size="10.00" fill="#000000">encoder_poll_should</text>
<text text-anchor="start" x="171" y="-456.5" font-family="Helvetica,sans-Serif" font-size="10.00" fill="#000000">_detect_repeated_substring</text>
<text text-anchor="middle" x="237" y="-445.5" font-family="Helvetica,sans-Serif" font-size="10.00" fill="#000000">_and_preserve_trailing_literal</text>
</a>
</g>
</g>
<!-- Node55&#45;&gt;Node71 -->
<g id="edge24" class="edge">
<title>Node55&#45;&gt;Node71</title>
<path fill="none" stroke="#191970" d="M86.9626,-385.9589C106.8017,-398.293 136.1954,-415.8377 163,-429 169.5951,-432.2385 176.6312,-435.4219 183.643,-438.4342"/>
<polygon fill="#191970" stroke="#191970" points="88.6354,-382.8766 78.3039,-380.5289 84.9164,-388.807 88.6354,-382.8766"/>
</g>
<!-- Node72 -->
<g id="node18" class="node">
<title>Node72</title>
<g id="a_node18"><a xlink:href="test__heatshrink__dynamic_8c.html#aa662e805dae6d002db06dc962e7440f9" target="_top" xlink:title="encoder_poll_should\l_indicate_when_no_input\l_is_provided">
<polygon fill="#ffffff" stroke="#000000" points="172,-378.5 172,-419.5 302,-419.5 302,-378.5 172,-378.5"/>
<text text-anchor="start" x="180" y="-407.5" font-family="Helvetica,sans-Serif" font-size="10.00" fill="#000000">encoder_poll_should</text>
<text text-anchor="start" x="180" y="-396.5" font-family="Helvetica,sans-Serif" font-size="10.00" fill="#000000">_indicate_when_no_input</text>
<text text-anchor="middle" x="237" y="-385.5" font-family="Helvetica,sans-Serif" font-size="10.00" fill="#000000">_is_provided</text>
</a>
</g>
</g>
<!-- Node55&#45;&gt;Node72 -->
<g id="edge26" class="edge">
<title>Node55&#45;&gt;Node72</title>
<path fill="none" stroke="#191970" d="M132.884,-382.1974C145.7229,-384.2694 159.0909,-386.4268 171.8001,-388.4778"/>
<polygon fill="#191970" stroke="#191970" points="133.1535,-378.6957 122.7236,-380.5577 132.0382,-385.6063 133.1535,-378.6957"/>
</g>
<!-- Node73 -->
<g id="node19" class="node">
<title>Node73</title>
<g id="a_node19"><a xlink:href="test__heatshrink__dynamic_8c.html#ade6da42ddec3e9a2d8fe58597792b843" target="_top" xlink:title="encoder_poll_should\l_reject_nulls">
<polygon fill="#ffffff" stroke="#000000" points="182.5,-329 182.5,-359 291.5,-359 291.5,-329 182.5,-329"/>
<text text-anchor="start" x="190.5" y="-347" font-family="Helvetica,sans-Serif" font-size="10.00" fill="#000000">encoder_poll_should</text>
<text text-anchor="middle" x="237" y="-336" font-family="Helvetica,sans-Serif" font-size="10.00" fill="#000000">_reject_nulls</text>
</a>
</g>
</g>
<!-- Node55&#45;&gt;Node73 -->
<g id="edge28" class="edge">
<title>Node55&#45;&gt;Node73</title>
<path fill="none" stroke="#191970" d="M134.9677,-359.8782C150.8281,-357.41 167.3923,-354.8323 182.4486,-352.4893"/>
<polygon fill="#191970" stroke="#191970" points="134.0125,-356.4847 124.6696,-361.4808 135.0889,-363.4014 134.0125,-356.4847"/>
</g>
<!-- Node74 -->
<g id="node20" class="node">
<title>Node74</title>
<g id="a_node20"><a xlink:href="test__heatshrink__dynamic_8c.html#a5339595930b85317e810fcf251b86351" target="_top" xlink:title="encoder_should_emit\l_data_without_repetitions\l_as_literal_sequence">
<polygon fill="#ffffff" stroke="#000000" points="172,-268.5 172,-309.5 302,-309.5 302,-268.5 172,-268.5"/>
<text text-anchor="start" x="180" y="-297.5" font-family="Helvetica,sans-Serif" font-size="10.00" fill="#000000">encoder_should_emit</text>
<text text-anchor="start" x="180" y="-286.5" font-family="Helvetica,sans-Serif" font-size="10.00" fill="#000000">_data_without_repetitions</text>
<text text-anchor="middle" x="237" y="-275.5" font-family="Helvetica,sans-Serif" font-size="10.00" fill="#000000">_as_literal_sequence</text>
</a>
</g>
</g>
<!-- Node55&#45;&gt;Node74 -->
<g id="edge30" class="edge">
<title>Node55&#45;&gt;Node74</title>
<path fill="none" stroke="#191970" d="M90.3361,-356.5346C110.2047,-345.9996 138.0408,-331.6036 163,-320 170.4521,-316.5355 178.3999,-313.0213 186.2189,-309.6644"/>
<polygon fill="#191970" stroke="#191970" points="88.4483,-353.5747 81.2699,-361.3671 91.7409,-359.7519 88.4483,-353.5747"/>
</g>
<!-- Node75 -->
<g id="node21" class="node">
<title>Node75</title>
<g id="a_node21"><a xlink:href="test__heatshrink__dynamic_8c.html#ae27157a664552fa0744d095239ee0d88" target="_top" xlink:title="encoder_should_emit\l_series_of_same_byte\l_as_literal_then_backref">
<polygon fill="#ffffff" stroke="#000000" points="174.5,-208.5 174.5,-249.5 299.5,-249.5 299.5,-208.5 174.5,-208.5"/>
<text text-anchor="start" x="182.5" y="-237.5" font-family="Helvetica,sans-Serif" font-size="10.00" fill="#000000">encoder_should_emit</text>
<text text-anchor="start" x="182.5" y="-226.5" font-family="Helvetica,sans-Serif" font-size="10.00" fill="#000000">_series_of_same_byte</text>
<text text-anchor="middle" x="237" y="-215.5" font-family="Helvetica,sans-Serif" font-size="10.00" fill="#000000">_as_literal_then_backref</text>
</a>
</g>
</g>
<!-- Node55&#45;&gt;Node75 -->
<g id="edge32" class="edge">
<title>Node55&#45;&gt;Node75</title>
<path fill="none" stroke="#191970" d="M75.49,-352.9479C92.4278,-328.6633 125.5084,-285.472 163,-259 167.8695,-255.5617 173.191,-252.4321 178.6752,-249.6045"/>
<polygon fill="#191970" stroke="#191970" points="72.5656,-351.0241 69.8134,-361.2552 78.3451,-354.9734 72.5656,-351.0241"/>
</g>
<!-- Node76 -->
<g id="node22" class="node">
<title>Node76</title>
<g id="a_node22"><a xlink:href="test__heatshrink__dynamic_8c.html#a1c4dab770a7df0935018c3a685f5b1ff" target="_top" xlink:title="encoder_sink_should\l_accept_input_when_it\l_will_fit">
<polygon fill="#ffffff" stroke="#000000" points="177.5,-148.5 177.5,-189.5 296.5,-189.5 296.5,-148.5 177.5,-148.5"/>
<text text-anchor="start" x="185.5" y="-177.5" font-family="Helvetica,sans-Serif" font-size="10.00" fill="#000000">encoder_sink_should</text>
<text text-anchor="start" x="185.5" y="-166.5" font-family="Helvetica,sans-Serif" font-size="10.00" fill="#000000">_accept_input_when_it</text>
<text text-anchor="middle" x="237" y="-155.5" font-family="Helvetica,sans-Serif" font-size="10.00" fill="#000000">_will_fit</text>
</a>
</g>
</g>
<!-- Node55&#45;&gt;Node76 -->
<g id="edge34" class="edge">
<title>Node55&#45;&gt;Node76</title>
<path fill="none" stroke="#191970" d="M69.8272,-351.8475C82.293,-316.8714 113.222,-242.2858 163,-199 167.289,-195.2704 172.1022,-191.9659 177.1618,-189.0461"/>
<polygon fill="#191970" stroke="#191970" points="66.501,-350.7574 66.5509,-361.3521 73.1188,-353.0387 66.501,-350.7574"/>
</g>
<!-- Node77 -->
<g id="node23" class="node">
<title>Node77</title>
<g id="a_node23"><a xlink:href="test__heatshrink__dynamic_8c.html#a73ee2ec6f21d5e0ce0e34902a1aebccb" target="_top" xlink:title="encoder_sink_should\l_accept_partial_input\l_when_some_will_fit">
<polygon fill="#ffffff" stroke="#000000" points="181,-88.5 181,-129.5 293,-129.5 293,-88.5 181,-88.5"/>
<text text-anchor="start" x="189" y="-117.5" font-family="Helvetica,sans-Serif" font-size="10.00" fill="#000000">encoder_sink_should</text>
<text text-anchor="start" x="189" y="-106.5" font-family="Helvetica,sans-Serif" font-size="10.00" fill="#000000">_accept_partial_input</text>
<text text-anchor="middle" x="237" y="-95.5" font-family="Helvetica,sans-Serif" font-size="10.00" fill="#000000">_when_some_will_fit</text>
</a>
</g>
</g>
<!-- Node55&#45;&gt;Node77 -->
<g id="edge36" class="edge">
<title>Node55&#45;&gt;Node77</title>
<path fill="none" stroke="#191970" d="M66.7611,-351.1113C74.9808,-307.0415 100.5224,-200.2407 163,-139 168.148,-133.9539 174.2578,-129.72 180.7264,-126.1765"/>
<polygon fill="#191970" stroke="#191970" points="63.2856,-350.6665 64.9954,-361.1225 70.1792,-351.8824 63.2856,-350.6665"/>
</g>
<!-- Node78 -->
<g id="node24" class="node">
<title>Node78</title>
<g id="a_node24"><a xlink:href="test__heatshrink__dynamic_8c.html#a9b30a495760400a59637e7d708e63ae0" target="_top" xlink:title="encoder_sink_should\l_reject_nulls">
<polygon fill="#ffffff" stroke="#000000" points="181.5,-39 181.5,-69 292.5,-69 292.5,-39 181.5,-39"/>
<text text-anchor="start" x="189.5" y="-57" font-family="Helvetica,sans-Serif" font-size="10.00" fill="#000000">encoder_sink_should</text>
<text text-anchor="middle" x="237" y="-46" font-family="Helvetica,sans-Serif" font-size="10.00" fill="#000000">_reject_nulls</text>
</a>
</g>
</g>
<!-- Node55&#45;&gt;Node78 -->
<g id="edge38" class="edge">
<title>Node55&#45;&gt;Node78</title>
<path fill="none" stroke="#191970" d="M64.4444,-351.1474C67.9943,-299.0476 84.737,-157.0586 163,-79 168.1847,-73.8288 174.4747,-69.7269 181.173,-66.4732"/>
<polygon fill="#191970" stroke="#191970" points="60.937,-351.1712 63.8444,-361.3593 67.925,-351.5818 60.937,-351.1712"/>
</g>
<!-- Node79 -->
<g id="node25" class="node">
<title>Node79</title>
<g id="a_node25"><a xlink:href="test__heatshrink__dynamic_8c.html#a6627d0e00f7e636ae9294cc6255c7ffd" target="_top" xlink:title="gen">
<polygon fill="#ffffff" stroke="#000000" points="220.5,-.5 220.5,-19.5 253.5,-19.5 253.5,-.5 220.5,-.5"/>
<text text-anchor="middle" x="237" y="-7.5" font-family="Helvetica,sans-Serif" font-size="10.00" fill="#000000">gen</text>
</a>
</g>
</g>
<!-- Node55&#45;&gt;Node79 -->
<g id="edge40" class="edge">
<title>Node55&#45;&gt;Node79</title>
<path fill="none" stroke="#191970" d="M66.652,-351.1311C77.4952,-285.2081 115.2351,-75.27 163,-29 178.3383,-14.1417 203.6526,-10.4574 220.3283,-9.7691"/>
<polygon fill="#191970" stroke="#191970" points="63.1357,-350.9506 64.9934,-361.3813 70.0459,-352.0688 63.1357,-350.9506"/>
</g>
<!-- Node57 -->
<g id="node3" class="node">
<title>Node57</title>
<g id="a_node3"><a xlink:href="test__heatshrink__dynamic_8c.html#a9d63746ee6a963338d09b8a19da82529" target="_top" xlink:title="data_without_duplication\l_should_match">
<polygon fill="#ffffff" stroke="#000000" points="375,-986 375,-1016 502,-1016 502,-986 375,-986"/>
<text text-anchor="start" x="383" y="-1004" font-family="Helvetica,sans-Serif" font-size="10.00" fill="#000000">data_without_duplication</text>
<text text-anchor="middle" x="438.5" y="-993" font-family="Helvetica,sans-Serif" font-size="10.00" fill="#000000">_should_match</text>
</a>
</g>
</g>
<!-- Node56&#45;&gt;Node57 -->
<g id="edge2" class="edge">
<title>Node56&#45;&gt;Node57</title>
<path fill="none" stroke="#191970" d="M246.4647,-833.5566C261.8707,-870.2216 295.8808,-938.9215 347,-976 355.2648,-981.9947 364.8932,-986.5521 374.74,-990.0168"/>
<polygon fill="#191970" stroke="#191970" points="249.6321,-832.0547 242.614,-824.1176 243.1506,-834.6988 249.6321,-832.0547"/>
</g>
<!-- Node59 -->
<g id="node5" class="node">
<title>Node59</title>
<g id="a_node5"><a xlink:href="test__heatshrink__dynamic_8c.html#ae9d1425d6c89a652b9df2b4ddc7ac2a2" target="_top" xlink:title="data_with_simple_repetition\l_should_compress_and_decompress\l_properly">
<polygon fill="#ffffff" stroke="#000000" points="347,-925.5 347,-966.5 530,-966.5 530,-925.5 347,-925.5"/>
<text text-anchor="start" x="355" y="-954.5" font-family="Helvetica,sans-Serif" font-size="10.00" fill="#000000">data_with_simple_repetition</text>
<text text-anchor="start" x="355" y="-943.5" font-family="Helvetica,sans-Serif" font-size="10.00" fill="#000000">_should_compress_and_decompress</text>
<text text-anchor="middle" x="438.5" y="-932.5" font-family="Helvetica,sans-Serif" font-size="10.00" fill="#000000">_properly</text>
</a>
</g>
</g>
<!-- Node56&#45;&gt;Node59 -->
<g id="edge4" class="edge">
<title>Node56&#45;&gt;Node59</title>
<path fill="none" stroke="#191970" d="M255.3664,-832.2886C275.4934,-856.3748 309.8916,-893.5438 347,-916 352.721,-919.4621 358.8881,-922.5747 365.2221,-925.3625"/>
<polygon fill="#191970" stroke="#191970" points="257.9102,-829.8711 248.8614,-824.3602 252.4986,-834.3112 257.9102,-829.8711"/>
</g>
<!-- Node60 -->
<g id="node6" class="node">
<title>Node60</title>
<g id="a_node6"><a xlink:href="test__heatshrink__dynamic_8c.html#a60c0e0c5bbb9715c7932ee82e706752d" target="_top" xlink:title="pseudorandom_data_should\l_match">
<polygon fill="#ffffff" stroke="#000000" points="367,-876 367,-906 510,-906 510,-876 367,-876"/>
<text text-anchor="start" x="375" y="-894" font-family="Helvetica,sans-Serif" font-size="10.00" fill="#000000">pseudorandom_data_should</text>
<text text-anchor="middle" x="438.5" y="-883" font-family="Helvetica,sans-Serif" font-size="10.00" fill="#000000">_match</text>
</a>
</g>
</g>
<!-- Node56&#45;&gt;Node60 -->
<g id="edge6" class="edge">
<title>Node56&#45;&gt;Node60</title>
<path fill="none" stroke="#191970" d="M271.4584,-829.2569C292.7102,-841.1376 320.822,-855.7742 347,-866 356.3567,-869.655 366.4496,-872.9876 376.3965,-875.944"/>
<polygon fill="#191970" stroke="#191970" points="272.9295,-826.0678 262.503,-824.1868 269.4808,-832.1593 272.9295,-826.0678"/>
</g>
<!-- Node61 -->
<g id="node7" class="node">
<title>Node61</title>
<g id="a_node7"><a xlink:href="test__heatshrink__dynamic_8c.html#a20e1a72bba941f0c602b93b53d32d5db" target="_top" xlink:title="small_input_buffer\l_should_not_impact_decoder\l_correctness">
<polygon fill="#ffffff" stroke="#000000" points="364.5,-815.5 364.5,-856.5 512.5,-856.5 512.5,-815.5 364.5,-815.5"/>
<text text-anchor="start" x="372.5" y="-844.5" font-family="Helvetica,sans-Serif" font-size="10.00" fill="#000000">small_input_buffer</text>
<text text-anchor="start" x="372.5" y="-833.5" font-family="Helvetica,sans-Serif" font-size="10.00" fill="#000000">_should_not_impact_decoder</text>
<text text-anchor="middle" x="438.5" y="-822.5" font-family="Helvetica,sans-Serif" font-size="10.00" fill="#000000">_correctness</text>
</a>
</g>
</g>
<!-- Node56&#45;&gt;Node61 -->
<g id="edge8" class="edge">
<title>Node56&#45;&gt;Node61</title>
<path fill="none" stroke="#191970" d="M307.2681,-818.4156C325.7315,-820.8896 345.7026,-823.5656 364.3619,-826.0659"/>
<polygon fill="#191970" stroke="#191970" points="307.56,-814.9235 297.1837,-817.0643 306.6303,-821.8615 307.56,-814.9235"/>
</g>
<!-- Node62 -->
<g id="node8" class="node">
<title>Node62</title>
<g id="a_node8"><a xlink:href="test__heatshrink__dynamic_8c.html#a462faeb904a3de1b1e009a04f7d171d8" target="_top" xlink:title="regression_backreference\l_counters_should_not_roll_over">
<polygon fill="#ffffff" stroke="#000000" points="359,-766 359,-796 518,-796 518,-766 359,-766"/>
<text text-anchor="start" x="367" y="-784" font-family="Helvetica,sans-Serif" font-size="10.00" fill="#000000">regression_backreference</text>
<text text-anchor="middle" x="438.5" y="-773" font-family="Helvetica,sans-Serif" font-size="10.00" fill="#000000">_counters_should_not_roll_over</text>
</a>
</g>
</g>
<!-- Node56&#45;&gt;Node62 -->
<g id="edge10" class="edge">
<title>Node56&#45;&gt;Node62</title>
<path fill="none" stroke="#191970" d="M307.3639,-799.2224C323.9965,-796.9112 341.8481,-794.4305 358.859,-792.0667"/>
<polygon fill="#191970" stroke="#191970" points="306.6068,-795.7939 297.1837,-800.637 307.5703,-802.7273 306.6068,-795.7939"/>
</g>
<!-- Node63 -->
<g id="node9" class="node">
<title>Node63</title>
<g id="a_node9"><a xlink:href="test__heatshrink__dynamic_8c.html#a2ed8ea21768d114fa96b07eb58475663" target="_top" xlink:title="regression_index_fail">
<polygon fill="#ffffff" stroke="#000000" points="383,-727.5 383,-746.5 494,-746.5 494,-727.5 383,-727.5"/>
<text text-anchor="middle" x="438.5" y="-734.5" font-family="Helvetica,sans-Serif" font-size="10.00" fill="#000000">regression_index_fail</text>
</a>
</g>
</g>
<!-- Node56&#45;&gt;Node63 -->
<g id="edge12" class="edge">
<title>Node56&#45;&gt;Node63</title>
<path fill="none" stroke="#191970" d="M273.2115,-789.332C294.2591,-778.554 321.5707,-765.6645 347,-757 359.1593,-752.8569 372.5276,-749.3663 385.2008,-746.52"/>
<polygon fill="#191970" stroke="#191970" points="271.5666,-786.2424 264.3055,-793.9577 274.7931,-792.4545 271.5666,-786.2424"/>
</g>
<!-- Node64 -->
<g id="node10" class="node">
<title>Node64</title>
<g id="a_node10"><a xlink:href="test__heatshrink__dynamic_8c.html#a1bfe72da903d55a8610433a4f2a60d43" target="_top" xlink:title="sixty_four_k">
<polygon fill="#ffffff" stroke="#000000" points="403.5,-689.5 403.5,-708.5 473.5,-708.5 473.5,-689.5 403.5,-689.5"/>
<text text-anchor="middle" x="438.5" y="-696.5" font-family="Helvetica,sans-Serif" font-size="10.00" fill="#000000">sixty_four_k</text>
</a>
</g>
</g>
<!-- Node56&#45;&gt;Node64 -->
<g id="edge14" class="edge">
<title>Node56&#45;&gt;Node64</title>
<path fill="none" stroke="#191970" d="M257.641,-786.5163C278.2276,-765.51 311.7835,-734.9224 347,-718 364.5483,-709.5676 385.75,-704.8658 403.3243,-702.2499"/>
<polygon fill="#191970" stroke="#191970" points="255.0678,-784.1427 250.6641,-793.779 260.1159,-788.9921 255.0678,-784.1427"/>
</g>
<!-- Node58 -->
<g id="node4" class="node">
<title>Node58</title>
<g id="a_node4"><a xlink:href="test__heatshrink__dynamic_8c.html#a2f157eb23cb17a496326c14e12933b3b" target="_top" xlink:title="SUITE">
<polygon fill="#ffffff" stroke="#000000" points="566,-771.5 566,-790.5 612,-790.5 612,-771.5 566,-771.5"/>
<text text-anchor="middle" x="589" y="-778.5" font-family="Helvetica,sans-Serif" font-size="10.00" fill="#000000">SUITE</text>
</a>
</g>
</g>
<!-- Node57&#45;&gt;Node58 -->
<g id="edge3" class="edge">
<title>Node57&#45;&gt;Node58</title>
<path fill="none" stroke="#191970" d="M511.521,-988.6613C518.3142,-985.3611 524.6453,-981.2116 530,-976 557.628,-949.1106 580.9864,-826.6113 587.3122,-790.8367"/>
<polygon fill="#191970" stroke="#191970" points="509.882,-985.5536 502.0196,-992.6552 512.5946,-992.0067 509.882,-985.5536"/>
</g>
<!-- Node59&#45;&gt;Node58 -->
<g id="edge5" class="edge">
<title>Node59&#45;&gt;Node58</title>
<path fill="none" stroke="#191970" d="M525.9054,-919.4535C527.3148,-918.3488 528.6818,-917.1983 530,-916 568.7993,-880.729 583.2929,-815.3779 587.5278,-790.7394"/>
<polygon fill="#191970" stroke="#191970" points="523.6708,-916.7424 517.4131,-925.2918 527.6364,-922.5108 523.6708,-916.7424"/>
</g>
<!-- Node60&#45;&gt;Node58 -->
<g id="edge7" class="edge">
<title>Node60&#45;&gt;Node58</title>
<path fill="none" stroke="#191970" d="M519.5153,-872.3824C523.1723,-870.4601 526.6908,-868.3394 530,-866 558.1631,-846.0903 577.269,-808.2326 585.0618,-790.5482"/>
<polygon fill="#191970" stroke="#191970" points="517.7454,-869.3467 510.18,-876.764 520.7196,-875.6835 517.7454,-869.3467"/>
</g>
<!-- Node61&#45;&gt;Node58 -->
<g id="edge9" class="edge">
<title>Node61&#45;&gt;Node58</title>
<path fill="none" stroke="#191970" d="M513.2881,-812.0525C518.9628,-810.0606 524.5851,-808.0308 530,-806 542.6036,-801.2731 556.4737,-795.4295 567.5974,-790.5808"/>
<polygon fill="#191970" stroke="#191970" points="512.0227,-808.7867 503.7157,-815.3626 514.3104,-815.4023 512.0227,-808.7867"/>
</g>
<!-- Node62&#45;&gt;Node58 -->
<g id="edge11" class="edge">
<title>Node62&#45;&gt;Node58</title>
<path fill="none" stroke="#191970" d="M528.3379,-781C542.1921,-781 555.3603,-781 565.8656,-781"/>
<polygon fill="#191970" stroke="#191970" points="528.157,-777.5001 518.1569,-781 528.1569,-784.5001 528.157,-777.5001"/>
</g>
<!-- Node63&#45;&gt;Node58 -->
<g id="edge13" class="edge">
<title>Node63&#45;&gt;Node58</title>
<path fill="none" stroke="#191970" d="M499.7872,-748.8744C509.9559,-751.2784 520.3322,-754.0013 530,-757 542.8853,-760.9967 556.8889,-766.6347 568.0185,-771.442"/>
<polygon fill="#191970" stroke="#191970" points="500.2497,-745.3901 489.7217,-746.5784 498.6929,-752.2148 500.2497,-745.3901"/>
</g>
<!-- Node64&#45;&gt;Node58 -->
<g id="edge15" class="edge">
<title>Node64&#45;&gt;Node58</title>
<path fill="none" stroke="#191970" d="M483.6072,-702.7816C499.0482,-705.4918 515.9569,-710.118 530,-718 553.5213,-731.2019 573.1345,-756.9848 582.7067,-771.1299"/>
<polygon fill="#191970" stroke="#191970" points="484.1326,-699.3213 473.7171,-701.2624 483.0697,-706.2402 484.1326,-699.3213"/>
</g>
<!-- Node65&#45;&gt;Node58 -->
<g id="edge17" class="edge">
<title>Node65&#45;&gt;Node58</title>
<path fill="none" stroke="#191970" d="M522.9163,-674.8553C525.3746,-676.4653 527.7445,-678.1781 530,-680 561.1205,-705.1385 579.2831,-751.3973 586.002,-771.3844"/>
<polygon fill="#191970" stroke="#191970" points="524.6497,-671.8143 514.2544,-669.7677 521.1045,-677.8502 524.6497,-671.8143"/>
</g>
<!-- Node66&#45;&gt;Node58 -->
<g id="edge19" class="edge">
<title>Node66&#45;&gt;Node58</title>
<path fill="none" stroke="#191970" d="M522.9812,-614.0697C525.4515,-615.9033 527.8021,-617.8765 530,-620 574.9595,-663.4372 585.8591,-743.9492 588.3246,-771.4807"/>
<polygon fill="#191970" stroke="#191970" points="524.4643,-610.8602 514.1691,-608.3584 520.6571,-616.7343 524.4643,-610.8602"/>
</g>
<!-- Node68 -->
<g id="node14" class="node">
<title>Node68</title>
<g id="a_node14"><a xlink:href="heatshrink_8c.html#a3c04138a5bfe5d72780bb7e82a18e627" target="_top" xlink:title="main">
<polygon fill="#ffffff" stroke="#000000" points="419.5,-531.5 419.5,-550.5 457.5,-550.5 457.5,-531.5 419.5,-531.5"/>
<text text-anchor="middle" x="438.5" y="-538.5" font-family="Helvetica,sans-Serif" font-size="10.00" fill="#000000">main</text>
</a>
</g>
</g>
<!-- Node67&#45;&gt;Node68 -->
<g id="edge21" class="edge">
<title>Node67&#45;&gt;Node68</title>
<path fill="none" stroke="#191970" d="M271.924,-555.0536C314.6429,-551.4495 385.4415,-545.4764 419.3048,-542.6194"/>
<polygon fill="#191970" stroke="#191970" points="271.3782,-551.5871 261.7079,-555.9155 271.9667,-558.5623 271.3782,-551.5871"/>
</g>
<!-- Node70 -->
<g id="node16" class="node">
<title>Node70</title>
<g id="a_node16"><a xlink:href="test__heatshrink__dynamic_8c.html#ac4a70b7ac22f00448c1d17d2b29a1359" target="_top" xlink:title="SUITE">
<polygon fill="#ffffff" stroke="#000000" points="415.5,-279.5 415.5,-298.5 461.5,-298.5 461.5,-279.5 415.5,-279.5"/>
<text text-anchor="middle" x="438.5" y="-286.5" font-family="Helvetica,sans-Serif" font-size="10.00" fill="#000000">SUITE</text>
</a>
</g>
</g>
<!-- Node69&#45;&gt;Node70 -->
<g id="edge23" class="edge">
<title>Node69&#45;&gt;Node70</title>
<path fill="none" stroke="#191970" d="M303.7224,-494.0389C306.2592,-492.48 308.6982,-490.8032 311,-489 380.6932,-434.4032 423.2541,-330.4445 435.0993,-298.5456"/>
<polygon fill="#191970" stroke="#191970" points="301.8947,-491.0486 294.7778,-498.8972 305.2358,-497.1998 301.8947,-491.0486"/>
</g>
<!-- Node71&#45;&gt;Node70 -->
<g id="edge25" class="edge">
<title>Node71&#45;&gt;Node70</title>
<path fill="none" stroke="#191970" d="M304.3497,-433.3021C306.6356,-431.925 308.8604,-430.4911 311,-429 366.5611,-390.2808 415.2626,-323.2223 432.1671,-298.5045"/>
<polygon fill="#191970" stroke="#191970" points="302.3277,-430.4213 295.281,-438.333 305.7234,-436.5425 302.3277,-430.4213"/>
</g>
<!-- Node72&#45;&gt;Node70 -->
<g id="edge27" class="edge">
<title>Node72&#45;&gt;Node70</title>
<path fill="none" stroke="#191970" d="M300.1433,-374.2836C303.847,-372.5615 307.4902,-370.7951 311,-369 354.2741,-346.8678 401.9719,-314.665 424.8211,-298.7089"/>
<polygon fill="#191970" stroke="#191970" points="298.5372,-371.1682 290.8542,-378.4636 301.4098,-377.5517 298.5372,-371.1682"/>
</g>
<!-- Node73&#45;&gt;Node70 -->
<g id="edge29" class="edge">
<title>Node73&#45;&gt;Node70</title>
<path fill="none" stroke="#191970" d="M301.2516,-326.4623C340.2782,-315.8099 387.7534,-302.8514 415.4069,-295.3033"/>
<polygon fill="#191970" stroke="#191970" points="300.2542,-323.1065 291.5288,-329.1162 302.0975,-329.8594 300.2542,-323.1065"/>
</g>
<!-- Node74&#45;&gt;Node70 -->
<g id="edge31" class="edge">
<title>Node74&#45;&gt;Node70</title>
<path fill="none" stroke="#191970" d="M312.3249,-289C348.937,-289 390.3419,-289 415.4245,-289"/>
<polygon fill="#191970" stroke="#191970" points="312.143,-285.5001 302.143,-289 312.143,-292.5001 312.143,-285.5001"/>
</g>
<!-- Node75&#45;&gt;Node70 -->
<g id="edge33" class="edge">
<title>Node75&#45;&gt;Node70</title>
<path fill="none" stroke="#191970" d="M309.4845,-250.5835C346.7255,-261.6726 389.5724,-274.431 415.3178,-282.0971"/>
<polygon fill="#191970" stroke="#191970" points="310.2343,-247.1549 299.6513,-247.6555 308.2366,-253.8638 310.2343,-247.1549"/>
</g>
<!-- Node76&#45;&gt;Node70 -->
<g id="edge35" class="edge">
<title>Node76&#45;&gt;Node70</title>
<path fill="none" stroke="#191970" d="M300.9877,-193.8446C304.4106,-195.5131 307.7683,-197.2349 311,-199 356.4177,-223.8065 405.0373,-261.6961 426.7989,-279.3377"/>
<polygon fill="#191970" stroke="#191970" points="302.3585,-190.622 291.8171,-189.5595 299.3952,-196.9638 302.3585,-190.622"/>
</g>
<!-- Node77&#45;&gt;Node70 -->
<g id="edge37" class="edge">
<title>Node77&#45;&gt;Node70</title>
<path fill="none" stroke="#191970" d="M302.0613,-133.1817C305.1617,-135.0099 308.1611,-136.9486 311,-139 368.3444,-180.4368 416.3147,-252.9361 432.5774,-279.1716"/>
<polygon fill="#191970" stroke="#191970" points="303.5635,-130.0147 293.1051,-128.3198 300.2239,-136.1668 303.5635,-130.0147"/>
</g>
<!-- Node78&#45;&gt;Node70 -->
<g id="edge39" class="edge">
<title>Node78&#45;&gt;Node70</title>
<path fill="none" stroke="#191970" d="M301.6211,-72.5973C304.9222,-74.5298 308.0765,-76.6577 311,-79 382.898,-136.6045 424.2372,-246.5033 435.4003,-279.4404"/>
<polygon fill="#191970" stroke="#191970" points="303.0868,-69.4149 292.5972,-67.9252 299.8683,-75.6311 303.0868,-69.4149"/>
</g>
<!-- Node80 -->
<g id="node26" class="node">
<title>Node80</title>
<g id="a_node26"><a xlink:href="test__heatshrink__dynamic_8c.html#adc66afa12a5eaae0cd12d5cc497f0f67" target="_top" xlink:title="SUITE">
<polygon fill="#ffffff" stroke="#000000" points="415.5,-.5 415.5,-19.5 461.5,-19.5 461.5,-.5 415.5,-.5"/>
<text text-anchor="middle" x="438.5" y="-7.5" font-family="Helvetica,sans-Serif" font-size="10.00" fill="#000000">SUITE</text>
</a>
</g>
</g>
<!-- Node79&#45;&gt;Node80 -->
<g id="edge41" class="edge">
<title>Node79&#45;&gt;Node80</title>
<path fill="none" stroke="#191970" d="M263.8872,-10C303.7831,-10 377.973,-10 415.4966,-10"/>
<polygon fill="#191970" stroke="#191970" points="263.8332,-6.5001 253.8332,-10 263.8332,-13.5001 263.8332,-6.5001"/>
</g>
</g>
</svg>
