<?xml version="1.0" encoding="UTF-8" standalone="no"?>
<!DOCTYPE svg PUBLIC "-//W3C//DTD SVG 1.1//EN"
 "http://www.w3.org/Graphics/SVG/1.1/DTD/svg11.dtd">
<!-- Generated by graphviz version 2.41.20170323.1842 (20170323.1842)
 -->
<!-- Title: st_yield_tag_bit Pages: 1 -->
<svg width="307pt" height="66pt"
 viewBox="0.00 0.00 307.00 66.00" xmlns="http://www.w3.org/2000/svg" xmlns:xlink="http://www.w3.org/1999/xlink">
<g id="graph0" class="graph" transform="scale(1 1) rotate(0) translate(4 62)">
<title>st_yield_tag_bit</title>
<polygon fill="#ffffff" stroke="transparent" points="-4,4 -4,-62 303,-62 303,4 -4,4"/>
<!-- Node945 -->
<g id="node1" class="node">
<title>Node945</title>
<polygon fill="#bfbfbf" stroke="#000000" points="0,-19.5 0,-38.5 86,-38.5 86,-19.5 0,-19.5"/>
<text text-anchor="middle" x="43" y="-26.5" font-family="Helvetica,sans-Serif" font-size="10.00" fill="#000000">st_yield_tag_bit</text>
</g>
<!-- Node946 -->
<g id="node2" class="node">
<title>Node946</title>
<g id="a_node2"><a xlink:href="heatshrink__encoder_8c.html#a5d06eacaa1ca17bfe5537537dffa9d6e" target="_top" xlink:title="add_tag_bit">
<polygon fill="#ffffff" stroke="#000000" points="128.5,-38.5 128.5,-57.5 197.5,-57.5 197.5,-38.5 128.5,-38.5"/>
<text text-anchor="middle" x="163" y="-45.5" font-family="Helvetica,sans-Serif" font-size="10.00" fill="#000000">add_tag_bit</text>
</a>
</g>
</g>
<!-- Node945&#45;&gt;Node946 -->
<g id="edge1" class="edge">
<title>Node945&#45;&gt;Node946</title>
<path fill="none" stroke="#191970" d="M86.3228,-35.8594C96.6949,-37.5017 107.7894,-39.2583 118.2258,-40.9107"/>
<polygon fill="#191970" stroke="#191970" points="117.9673,-44.4134 128.3917,-42.5203 119.0621,-37.4995 117.9673,-44.4134"/>
</g>
<!-- Node948 -->
<g id="node4" class="node">
<title>Node948</title>
<g id="a_node4"><a xlink:href="heatshrink__encoder_8c.html#ad075b2bdf7d816dbf4eb8b1e16d1586a" target="_top" xlink:title="can_take_byte">
<polygon fill="#ffffff" stroke="#000000" points="122,-.5 122,-19.5 204,-19.5 204,-.5 122,-.5"/>
<text text-anchor="middle" x="163" y="-7.5" font-family="Helvetica,sans-Serif" font-size="10.00" fill="#000000">can_take_byte</text>
</a>
</g>
</g>
<!-- Node945&#45;&gt;Node948 -->
<g id="edge3" class="edge">
<title>Node945&#45;&gt;Node948</title>
<path fill="none" stroke="#191970" d="M86.3228,-22.1406C94.532,-20.8408 103.1936,-19.4693 111.6234,-18.1346"/>
<polygon fill="#191970" stroke="#191970" points="112.4152,-21.5529 121.7448,-16.5321 111.3205,-14.6391 112.4152,-21.5529"/>
</g>
<!-- Node947 -->
<g id="node3" class="node">
<title>Node947</title>
<g id="a_node3"><a xlink:href="heatshrink__encoder_8c.html#a5219dc6b7b93fcd90ee72f9948c58f54" target="_top" xlink:title="push_bits">
<polygon fill="#ffffff" stroke="#000000" points="240,-38.5 240,-57.5 299,-57.5 299,-38.5 240,-38.5"/>
<text text-anchor="middle" x="269.5" y="-45.5" font-family="Helvetica,sans-Serif" font-size="10.00" fill="#000000">push_bits</text>
</a>
</g>
</g>
<!-- Node946&#45;&gt;Node947 -->
<g id="edge2" class="edge">
<title>Node946&#45;&gt;Node947</title>
<path fill="none" stroke="#191970" d="M197.5775,-48C207.7813,-48 219.0325,-48 229.5451,-48"/>
<polygon fill="#191970" stroke="#191970" points="229.7454,-51.5001 239.7453,-48 229.7453,-44.5001 229.7454,-51.5001"/>
</g>
</g>
</svg>
