<?xml version="1.0" encoding="UTF-8" standalone="no"?>
<!DOCTYPE svg PUBLIC "-//W3C//DTD SVG 1.1//EN"
 "http://www.w3.org/Graphics/SVG/1.1/DTD/svg11.dtd">
<!-- Generated by graphviz version 2.39.20160927.1334 (20160927.1334)
 -->
<!-- Title: st_save_backlog Pages: 1 -->
<svg width="361pt" height="123pt"
 viewBox="0.00 0.00 361.00 123.00" xmlns="http://www.w3.org/2000/svg" xmlns:xlink="http://www.w3.org/1999/xlink">
<g id="graph0" class="graph" transform="scale(1 1) rotate(0) translate(4 119)">
<title>st_save_backlog</title>
<polygon fill="#ffffff" stroke="transparent" points="-4,4 -4,-119 357,-119 357,4 -4,4"/>
<!-- Node1 -->
<g id="node1" class="node">
<title>Node1</title>
<polygon fill="#bfbfbf" stroke="#000000" points="0,-57.5 0,-76.5 91,-76.5 91,-57.5 0,-57.5"/>
<text text-anchor="middle" x="45.5" y="-64.5" font-family="Helvetica,sans-Serif" font-size="10.00" fill="#000000">st_save_backlog</text>
</g>
<!-- Node2 -->
<g id="node2" class="node">
<title>Node2</title>
<g id="a_node2"><a xlink:href="heatshrink__encoder_8c.html#a5016697d0c014235c56cfc3c7131a604" target="_top" xlink:title="has_literal">
<polygon fill="#ffffff" stroke="#000000" points="135,-95.5 135,-114.5 197,-114.5 197,-95.5 135,-95.5"/>
<text text-anchor="middle" x="166" y="-102.5" font-family="Helvetica,sans-Serif" font-size="10.00" fill="#000000">has_literal</text>
</a>
</g>
</g>
<!-- Node1&#45;&gt;Node2 -->
<g id="edge1" class="edge">
<title>Node1&#45;&gt;Node2</title>
<path fill="none" stroke="#191970" d="M75.9072,-76.589C91.0345,-81.3594 109.52,-87.1888 125.8,-92.3229"/>
<polygon fill="#191970" stroke="#191970" points="125.013,-95.7444 135.602,-95.4141 127.118,-89.0685 125.013,-95.7444"/>
</g>
<!-- Node3 -->
<g id="node3" class="node">
<title>Node3</title>
<g id="a_node3"><a xlink:href="heatshrink__encoder_8c.html#a323caf30937d6e75e99789f797957f0c" target="_top" xlink:title="is_finishing">
<polygon fill="#ffffff" stroke="#000000" points="133,-57.5 133,-76.5 199,-76.5 199,-57.5 133,-57.5"/>
<text text-anchor="middle" x="166" y="-64.5" font-family="Helvetica,sans-Serif" font-size="10.00" fill="#000000">is_finishing</text>
</a>
</g>
</g>
<!-- Node1&#45;&gt;Node3 -->
<g id="edge2" class="edge">
<title>Node1&#45;&gt;Node3</title>
<path fill="none" stroke="#191970" d="M91.0559,-67C101.453,-67 112.472,-67 122.768,-67"/>
<polygon fill="#191970" stroke="#191970" points="122.774,-70.5001 132.774,-67 122.774,-63.5001 122.774,-70.5001"/>
</g>
<!-- Node4 -->
<g id="node4" class="node">
<title>Node4</title>
<g id="a_node4"><a xlink:href="heatshrink__encoder_8c.html#a20f6276833bfa75c34ca574dc4fac9b8" target="_top" xlink:title="save_backlog">
<polygon fill="#ffffff" stroke="#000000" points="127,-19.5 127,-38.5 205,-38.5 205,-19.5 127,-19.5"/>
<text text-anchor="middle" x="166" y="-26.5" font-family="Helvetica,sans-Serif" font-size="10.00" fill="#000000">save_backlog</text>
</a>
</g>
</g>
<!-- Node1&#45;&gt;Node4 -->
<g id="edge3" class="edge">
<title>Node1&#45;&gt;Node4</title>
<path fill="none" stroke="#191970" d="M75.9072,-57.411C91.0345,-52.6406 109.52,-46.8112 125.8,-41.6771"/>
<polygon fill="#191970" stroke="#191970" points="127.118,-44.9315 135.602,-38.5859 125.013,-38.2556 127.118,-44.9315"/>
</g>
<!-- Node5 -->
<g id="node5" class="node">
<title>Node5</title>
<g id="a_node5"><a xlink:href="heatshrink__encoder_8c.html#a52bfbd33b20249a9f61813fc28c64e57" target="_top" xlink:title="backlog_is_partial">
<polygon fill="#ffffff" stroke="#000000" points="248.5,-38.5 248.5,-57.5 345.5,-57.5 345.5,-38.5 248.5,-38.5"/>
<text text-anchor="middle" x="297" y="-45.5" font-family="Helvetica,sans-Serif" font-size="10.00" fill="#000000">backlog_is_partial</text>
</a>
</g>
</g>
<!-- Node4&#45;&gt;Node5 -->
<g id="edge4" class="edge">
<title>Node4&#45;&gt;Node5</title>
<path fill="none" stroke="#191970" d="M205.304,-34.7006C215.691,-36.207 227.129,-37.866 238.301,-39.4863"/>
<polygon fill="#191970" stroke="#191970" points="238.048,-42.9863 248.447,-40.958 239.053,-36.0588 238.048,-42.9863"/>
</g>
<!-- Node6 -->
<g id="node6" class="node">
<title>Node6</title>
<g id="a_node6"><a xlink:href="heatshrink__encoder_8c.html#a9b311bf2b76215ba61eb648d970a5f11" target="_top" xlink:title="get_input_buffer_size">
<polygon fill="#ffffff" stroke="#000000" points="241,-0.5 241,-19.5 353,-19.5 353,-0.5 241,-0.5"/>
<text text-anchor="middle" x="297" y="-7.5" font-family="Helvetica,sans-Serif" font-size="10.00" fill="#000000">get_input_buffer_size</text>
</a>
</g>
</g>
<!-- Node4&#45;&gt;Node6 -->
<g id="edge5" class="edge">
<title>Node4&#45;&gt;Node6</title>
<path fill="none" stroke="#191970" d="M205.304,-23.2994C213.321,-22.1366 221.965,-20.8829 230.629,-19.6263"/>
<polygon fill="#191970" stroke="#191970" points="231.379,-23.0543 240.773,-18.155 230.374,-16.1267 231.379,-23.0543"/>
</g>
</g>
</svg>
