<?xml version="1.0" encoding="UTF-8" standalone="no"?>
<!DOCTYPE svg PUBLIC "-//W3C//DTD SVG 1.1//EN"
 "http://www.w3.org/Graphics/SVG/1.1/DTD/svg11.dtd">
<!-- Generated by graphviz version 2.39.20160927.1334 (20160927.1334)
 -->
<!-- Title: lib/heatshrink/heatshrink_encoder.c Pages: 1 -->
<svg width="452pt" height="151pt"
 viewBox="0.00 0.00 451.50 151.00" xmlns="http://www.w3.org/2000/svg" xmlns:xlink="http://www.w3.org/1999/xlink">
<g id="graph0" class="graph" transform="scale(1 1) rotate(0) translate(4 147)">
<title>lib/heatshrink/heatshrink_encoder.c</title>
<polygon fill="#ffffff" stroke="transparent" points="-4,4 -4,-147 447.5,-147 447.5,4 -4,4"/>
<!-- Node1 -->
<g id="node1" class="node">
<title>Node1</title>
<polygon fill="#bfbfbf" stroke="#000000" points="64,-112.5 64,-142.5 188,-142.5 188,-112.5 64,-112.5"/>
<text text-anchor="start" x="72" y="-130.5" font-family="Helvetica,sans-Serif" font-size="10.00" fill="#000000">lib/heatshrink/heatshrink</text>
<text text-anchor="middle" x="126" y="-119.5" font-family="Helvetica,sans-Serif" font-size="10.00" fill="#000000">_encoder.c</text>
</g>
<!-- Node2 -->
<g id="node2" class="node">
<title>Node2</title>
<polygon fill="#ffffff" stroke="#bfbfbf" points="0,-56.5 0,-75.5 48,-75.5 48,-56.5 0,-56.5"/>
<text text-anchor="middle" x="24" y="-63.5" font-family="Helvetica,sans-Serif" font-size="10.00" fill="#000000">stdlib.h</text>
</g>
<!-- Node1&#45;&gt;Node2 -->
<g id="edge1" class="edge">
<title>Node1&#45;&gt;Node2</title>
<path fill="none" stroke="#191970" d="M101.048,-112.455C85.0741,-102.824 64.4398,-90.3828 48.5457,-80.7996"/>
<polygon fill="#191970" stroke="#191970" points="50.1774,-77.6965 39.8064,-75.5303 46.563,-83.6912 50.1774,-77.6965"/>
</g>
<!-- Node3 -->
<g id="node3" class="node">
<title>Node3</title>
<polygon fill="#ffffff" stroke="#bfbfbf" points="66.5,-56.5 66.5,-75.5 115.5,-75.5 115.5,-56.5 66.5,-56.5"/>
<text text-anchor="middle" x="91" y="-63.5" font-family="Helvetica,sans-Serif" font-size="10.00" fill="#000000">string.h</text>
</g>
<!-- Node1&#45;&gt;Node3 -->
<g id="edge2" class="edge">
<title>Node1&#45;&gt;Node3</title>
<path fill="none" stroke="#191970" d="M117.348,-112.298C112.591,-103.939 106.65,-93.4997 101.614,-84.6509"/>
<polygon fill="#191970" stroke="#191970" points="104.592,-82.8069 96.6039,-75.8469 98.5083,-86.2692 104.592,-82.8069"/>
</g>
<!-- Node4 -->
<g id="node4" class="node">
<title>Node4</title>
<polygon fill="#ffffff" stroke="#bfbfbf" points="133.5,-56.5 133.5,-75.5 190.5,-75.5 190.5,-56.5 133.5,-56.5"/>
<text text-anchor="middle" x="162" y="-63.5" font-family="Helvetica,sans-Serif" font-size="10.00" fill="#000000">stdbool.h</text>
</g>
<!-- Node1&#45;&gt;Node4 -->
<g id="edge3" class="edge">
<title>Node1&#45;&gt;Node4</title>
<path fill="none" stroke="#191970" d="M134.899,-112.298C139.792,-103.939 145.903,-93.4997 151.082,-84.6509"/>
<polygon fill="#191970" stroke="#191970" points="154.205,-86.2452 156.236,-75.8469 148.164,-82.7089 154.205,-86.2452"/>
</g>
<!-- Node5 -->
<g id="node5" class="node">
<title>Node5</title>
<g id="a_node5"><a xlink:href="heatshrink__encoder_8h.html" target="_top" xlink:title="heatshrink_encoder.h">
<polygon fill="#ffffff" stroke="#000000" points="208.5,-56.5 208.5,-75.5 321.5,-75.5 321.5,-56.5 208.5,-56.5"/>
<text text-anchor="middle" x="265" y="-63.5" font-family="Helvetica,sans-Serif" font-size="10.00" fill="#000000">heatshrink_encoder.h</text>
</a>
</g>
</g>
<!-- Node1&#45;&gt;Node5 -->
<g id="edge4" class="edge">
<title>Node1&#45;&gt;Node5</title>
<path fill="none" stroke="#191970" d="M160.003,-112.455C182.687,-102.419 212.267,-89.3314 234.248,-79.6061"/>
<polygon fill="#191970" stroke="#191970" points="235.731,-82.7772 243.46,-75.5303 232.899,-76.3758 235.731,-82.7772"/>
</g>
<!-- Node6 -->
<g id="node6" class="node">
<title>Node6</title>
<polygon fill="#ffffff" stroke="#bfbfbf" points="137,-0.5 137,-19.5 189,-19.5 189,-0.5 137,-0.5"/>
<text text-anchor="middle" x="163" y="-7.5" font-family="Helvetica,sans-Serif" font-size="10.00" fill="#000000">stddef.h</text>
</g>
<!-- Node5&#45;&gt;Node6 -->
<g id="edge5" class="edge">
<title>Node5&#45;&gt;Node6</title>
<path fill="none" stroke="#191970" d="M247.233,-56.2455C231.29,-47.4928 207.674,-34.527 189.501,-24.5496"/>
<polygon fill="#191970" stroke="#191970" points="191.014,-21.3873 180.563,-19.6427 187.645,-27.5233 191.014,-21.3873"/>
</g>
<!-- Node7 -->
<g id="node7" class="node">
<title>Node7</title>
<g id="a_node7"><a xlink:href="heatshrink__common_8h.html" target="_top" xlink:title="heatshrink_common.h">
<polygon fill="#ffffff" stroke="#000000" points="207.5,-0.5 207.5,-19.5 322.5,-19.5 322.5,-0.5 207.5,-0.5"/>
<text text-anchor="middle" x="265" y="-7.5" font-family="Helvetica,sans-Serif" font-size="10.00" fill="#000000">heatshrink_common.h</text>
</a>
</g>
</g>
<!-- Node5&#45;&gt;Node7 -->
<g id="edge6" class="edge">
<title>Node5&#45;&gt;Node7</title>
<path fill="none" stroke="#191970" d="M265,-56.2455C265,-48.9382 265,-38.6944 265,-29.7046"/>
<polygon fill="#191970" stroke="#191970" points="268.5,-29.6426 265,-19.6427 261.5,-29.6427 268.5,-29.6426"/>
</g>
<!-- Node8 -->
<g id="node8" class="node">
<title>Node8</title>
<g id="a_node8"><a xlink:href="heatshrink__config_8h.html" target="_top" xlink:title="heatshrink_config.h">
<polygon fill="#ffffff" stroke="#000000" points="340.5,-0.5 340.5,-19.5 443.5,-19.5 443.5,-0.5 340.5,-0.5"/>
<text text-anchor="middle" x="392" y="-7.5" font-family="Helvetica,sans-Serif" font-size="10.00" fill="#000000">heatshrink_config.h</text>
</a>
</g>
</g>
<!-- Node5&#45;&gt;Node8 -->
<g id="edge7" class="edge">
<title>Node5&#45;&gt;Node8</title>
<path fill="none" stroke="#191970" d="M286.832,-56.3733C307.31,-47.3435 338.14,-33.7494 361.132,-23.6111"/>
<polygon fill="#191970" stroke="#191970" points="362.715,-26.7383 370.453,-19.5011 359.891,-20.3333 362.715,-26.7383"/>
</g>
</g>
</svg>
