<?xml version="1.0" encoding="UTF-8" standalone="no"?>
<!DOCTYPE svg PUBLIC "-//W3C//DTD SVG 1.1//EN"
 "http://www.w3.org/Graphics/SVG/1.1/DTD/svg11.dtd">
<!-- Generated by graphviz version 2.41.20170323.1842 (20170323.1842)
 -->
<!-- Title: st_yield_literal Pages: 1 -->
<svg width="488pt" height="123pt"
 viewBox="0.00 0.00 488.00 123.00" xmlns="http://www.w3.org/2000/svg" xmlns:xlink="http://www.w3.org/1999/xlink">
<g id="graph0" class="graph" transform="scale(1 1) rotate(0) translate(4 119)">
<title>st_yield_literal</title>
<polygon fill="#ffffff" stroke="transparent" points="-4,4 -4,-119 484,-119 484,4 -4,4"/>
<!-- Node909 -->
<g id="node1" class="node">
<title>Node909</title>
<polygon fill="#bfbfbf" stroke="#000000" points="0,-57.5 0,-76.5 80,-76.5 80,-57.5 0,-57.5"/>
<text text-anchor="middle" x="40" y="-64.5" font-family="Helvetica,sans-Serif" font-size="10.00" fill="#000000">st_yield_literal</text>
</g>
<!-- Node910 -->
<g id="node2" class="node">
<title>Node910</title>
<g id="a_node2"><a xlink:href="heatshrink__encoder_8c.html#ad075b2bdf7d816dbf4eb8b1e16d1586a" target="_top" xlink:title="can_take_byte">
<polygon fill="#ffffff" stroke="#000000" points="121,-95.5 121,-114.5 203,-114.5 203,-95.5 121,-95.5"/>
<text text-anchor="middle" x="162" y="-102.5" font-family="Helvetica,sans-Serif" font-size="10.00" fill="#000000">can_take_byte</text>
</a>
</g>
</g>
<!-- Node909&#45;&gt;Node910 -->
<g id="edge1" class="edge">
<title>Node909&#45;&gt;Node910</title>
<path fill="none" stroke="#191970" d="M70.7858,-76.589C86.1013,-81.3594 104.8166,-87.1888 121.2998,-92.3229"/>
<polygon fill="#191970" stroke="#191970" points="120.6356,-95.7818 131.2241,-95.4141 122.7174,-89.0985 120.6356,-95.7818"/>
</g>
<!-- Node911 -->
<g id="node3" class="node">
<title>Node911</title>
<g id="a_node3"><a xlink:href="heatshrink__encoder_8c.html#a3609038125fab3c5b7a5914490d82fa2" target="_top" xlink:title="on_final_literal">
<polygon fill="#ffffff" stroke="#000000" points="121.5,-57.5 121.5,-76.5 202.5,-76.5 202.5,-57.5 121.5,-57.5"/>
<text text-anchor="middle" x="162" y="-64.5" font-family="Helvetica,sans-Serif" font-size="10.00" fill="#000000">on_final_literal</text>
</a>
</g>
</g>
<!-- Node909&#45;&gt;Node911 -->
<g id="edge2" class="edge">
<title>Node909&#45;&gt;Node911</title>
<path fill="none" stroke="#191970" d="M80.2855,-67C90.1758,-67 100.8906,-67 111.2048,-67"/>
<polygon fill="#191970" stroke="#191970" points="111.34,-70.5001 121.34,-67 111.34,-63.5001 111.34,-70.5001"/>
</g>
<!-- Node912 -->
<g id="node4" class="node">
<title>Node912</title>
<g id="a_node4"><a xlink:href="heatshrink__encoder_8c.html#aa6b6e74207f47dbfc49a8d7c640ef9cd" target="_top" xlink:title="push_literal_byte">
<polygon fill="#ffffff" stroke="#000000" points="116,-19.5 116,-38.5 208,-38.5 208,-19.5 116,-19.5"/>
<text text-anchor="middle" x="162" y="-26.5" font-family="Helvetica,sans-Serif" font-size="10.00" fill="#000000">push_literal_byte</text>
</a>
</g>
</g>
<!-- Node909&#45;&gt;Node912 -->
<g id="edge3" class="edge">
<title>Node909&#45;&gt;Node912</title>
<path fill="none" stroke="#191970" d="M70.7858,-57.411C86.1013,-52.6406 104.8166,-46.8112 121.2998,-41.6771"/>
<polygon fill="#191970" stroke="#191970" points="122.7174,-44.9015 131.2241,-38.5859 120.6356,-38.2182 122.7174,-44.9015"/>
</g>
<!-- Node913 -->
<g id="node5" class="node">
<title>Node913</title>
<g id="a_node5"><a xlink:href="heatshrink__encoder_8c.html#ae3f741c7a40be525778c6c92c4720518" target="_top" xlink:title="get_input_offset">
<polygon fill="#ffffff" stroke="#000000" points="244,-38.5 244,-57.5 332,-57.5 332,-38.5 244,-38.5"/>
<text text-anchor="middle" x="288" y="-45.5" font-family="Helvetica,sans-Serif" font-size="10.00" fill="#000000">get_input_offset</text>
</a>
</g>
</g>
<!-- Node912&#45;&gt;Node913 -->
<g id="edge4" class="edge">
<title>Node912&#45;&gt;Node913</title>
<path fill="none" stroke="#191970" d="M208.2023,-35.967C216.5822,-37.2306 225.3899,-38.5588 233.9709,-39.8528"/>
<polygon fill="#191970" stroke="#191970" points="233.4908,-43.3198 243.9009,-41.3501 234.5346,-36.3981 233.4908,-43.3198"/>
</g>
<!-- Node915 -->
<g id="node7" class="node">
<title>Node915</title>
<g id="a_node7"><a xlink:href="heatshrink__encoder_8c.html#a5219dc6b7b93fcd90ee72f9948c58f54" target="_top" xlink:title="push_bits">
<polygon fill="#ffffff" stroke="#000000" points="258.5,-.5 258.5,-19.5 317.5,-19.5 317.5,-.5 258.5,-.5"/>
<text text-anchor="middle" x="288" y="-7.5" font-family="Helvetica,sans-Serif" font-size="10.00" fill="#000000">push_bits</text>
</a>
</g>
</g>
<!-- Node912&#45;&gt;Node915 -->
<g id="edge6" class="edge">
<title>Node912&#45;&gt;Node915</title>
<path fill="none" stroke="#191970" d="M208.2023,-22.033C221.2616,-20.0637 235.3598,-17.9378 248.02,-16.0287"/>
<polygon fill="#191970" stroke="#191970" points="248.8956,-19.4363 258.2619,-14.4843 247.8518,-12.5146 248.8956,-19.4363"/>
</g>
<!-- Node914 -->
<g id="node6" class="node">
<title>Node914</title>
<g id="a_node6"><a xlink:href="heatshrink__encoder_8c.html#a9b311bf2b76215ba61eb648d970a5f11" target="_top" xlink:title="get_input_buffer_size">
<polygon fill="#ffffff" stroke="#000000" points="368,-38.5 368,-57.5 480,-57.5 480,-38.5 368,-38.5"/>
<text text-anchor="middle" x="424" y="-45.5" font-family="Helvetica,sans-Serif" font-size="10.00" fill="#000000">get_input_buffer_size</text>
</a>
</g>
</g>
<!-- Node913&#45;&gt;Node914 -->
<g id="edge5" class="edge">
<title>Node913&#45;&gt;Node914</title>
<path fill="none" stroke="#191970" d="M332.1553,-48C340.2943,-48 348.9552,-48 357.5821,-48"/>
<polygon fill="#191970" stroke="#191970" points="357.6604,-51.5001 367.6604,-48 357.6604,-44.5001 357.6604,-51.5001"/>
</g>
</g>
</svg>
