<?xml version="1.0" encoding="UTF-8" standalone="no"?>
<!DOCTYPE svg PUBLIC "-//W3C//DTD SVG 1.1//EN"
 "http://www.w3.org/Graphics/SVG/1.1/DTD/svg11.dtd">
<!-- Generated by graphviz version 2.39.20160927.1334 (20160927.1334)
 -->
<!-- Title: heatshrink_encoder_reset Pages: 1 -->
<svg width="753pt" height="947pt"
 viewBox="0.00 0.00 753.00 946.50" xmlns="http://www.w3.org/2000/svg" xmlns:xlink="http://www.w3.org/1999/xlink">
<g id="graph0" class="graph" transform="scale(1 1) rotate(0) translate(4 942.5)">
<title>heatshrink_encoder_reset</title>
<polygon fill="#ffffff" stroke="transparent" points="-4,4 -4,-942.5 749,-942.5 749,4 -4,4"/>
<!-- Node1 -->
<g id="node1" class="node">
<title>Node1</title>
<polygon fill="#bfbfbf" stroke="#000000" points="0,-634 0,-664 104,-664 104,-634 0,-634"/>
<text text-anchor="start" x="8" y="-652" font-family="Helvetica,sans-Serif" font-size="10.00" fill="#000000">heatshrink_encoder</text>
<text text-anchor="middle" x="52" y="-641" font-family="Helvetica,sans-Serif" font-size="10.00" fill="#000000">_reset</text>
</g>
<!-- Node2 -->
<g id="node2" class="node">
<title>Node2</title>
<g id="a_node2"><a xlink:href="test__heatshrink__static_8c.html#ad91c71c6eff9ca114f5aa677545287d6" target="_top" xlink:title="compress_and_expand\l_and_check">
<polygon fill="#ffffff" stroke="#000000" points="140,-752 140,-782 260,-782 260,-752 140,-752"/>
<text text-anchor="start" x="148" y="-770" font-family="Helvetica,sans-Serif" font-size="10.00" fill="#000000">compress_and_expand</text>
<text text-anchor="middle" x="200" y="-759" font-family="Helvetica,sans-Serif" font-size="10.00" fill="#000000">_and_check</text>
</a>
</g>
</g>
<!-- Node1&#45;&gt;Node2 -->
<g id="edge1" class="edge">
<title>Node1&#45;&gt;Node2</title>
<path fill="none" stroke="#191970" d="M78.8893,-670.439C108.422,-693.985 155.091,-731.194 181.028,-751.873"/>
<polygon fill="#191970" stroke="#191970" points="81.0464,-667.682 71.0454,-664.185 76.6825,-673.156 81.0464,-667.682"/>
</g>
<!-- Node5 -->
<g id="node5" class="node">
<title>Node5</title>
<g id="a_node5"><a xlink:href="heatshrink__encoder_8h.html#a2e8cab0e929cb612c25e434a16b6f6c0" target="_top" xlink:title="heatshrink_encoder\l_alloc">
<polygon fill="#ffffff" stroke="#000000" points="148,-517 148,-547 252,-547 252,-517 148,-517"/>
<text text-anchor="start" x="156" y="-535" font-family="Helvetica,sans-Serif" font-size="10.00" fill="#000000">heatshrink_encoder</text>
<text text-anchor="middle" x="200" y="-524" font-family="Helvetica,sans-Serif" font-size="10.00" fill="#000000">_alloc</text>
</a>
</g>
</g>
<!-- Node1&#45;&gt;Node5 -->
<g id="edge4" class="edge">
<title>Node1&#45;&gt;Node5</title>
<path fill="none" stroke="#191970" d="M79.2208,-627.481C108.592,-604.262 154.628,-567.868 180.558,-547.37"/>
<polygon fill="#191970" stroke="#191970" points="76.7196,-624.997 71.0454,-633.944 81.0608,-630.488 76.7196,-624.997"/>
</g>
<!-- Node3 -->
<g id="node3" class="node">
<title>Node3</title>
<g id="a_node3"><a xlink:href="test__heatshrink__static_8c.html#a86042f6d987dc3b4e874c55b994eca3d" target="_top" xlink:title="pseudorandom_data_should\l_match">
<polygon fill="#ffffff" stroke="#000000" points="298.5,-908 298.5,-938 441.5,-938 441.5,-908 298.5,-908"/>
<text text-anchor="start" x="306.5" y="-926" font-family="Helvetica,sans-Serif" font-size="10.00" fill="#000000">pseudorandom_data_should</text>
<text text-anchor="middle" x="370" y="-915" font-family="Helvetica,sans-Serif" font-size="10.00" fill="#000000">_match</text>
</a>
</g>
</g>
<!-- Node2&#45;&gt;Node3 -->
<g id="edge2" class="edge">
<title>Node2&#45;&gt;Node3</title>
<path fill="none" stroke="#191970" d="M211.938,-791.467C227.438,-820.803 257.168,-869.562 296,-898 301.251,-901.846 307.135,-905.128 313.23,-907.924"/>
<polygon fill="#191970" stroke="#191970" points="214.92,-789.613 207.234,-782.32 208.695,-792.814 214.92,-789.613"/>
</g>
<!-- Node4 -->
<g id="node4" class="node">
<title>Node4</title>
<g id="a_node4"><a xlink:href="test__heatshrink__static_8c.html#a2f157eb23cb17a496326c14e12933b3b" target="_top" xlink:title="SUITE">
<polygon fill="#ffffff" stroke="#000000" points="548.5,-913.5 548.5,-932.5 594.5,-932.5 594.5,-913.5 548.5,-913.5"/>
<text text-anchor="middle" x="571.5" y="-920.5" font-family="Helvetica,sans-Serif" font-size="10.00" fill="#000000">SUITE</text>
</a>
</g>
</g>
<!-- Node3&#45;&gt;Node4 -->
<g id="edge3" class="edge">
<title>Node3&#45;&gt;Node4</title>
<path fill="none" stroke="#191970" d="M451.795,-923C486.556,-923 524.441,-923 548.081,-923"/>
<polygon fill="#191970" stroke="#191970" points="451.609,-919.5 441.609,-923 451.609,-926.5 451.609,-919.5"/>
</g>
<!-- Node6 -->
<g id="node6" class="node">
<title>Node6</title>
<g id="a_node6"><a xlink:href="heatshrink_8c.html#a37f19023beced8a782d3051bfd7a0bcb" target="_top" xlink:title="encode">
<polygon fill="#ffffff" stroke="#000000" points="345.5,-869.5 345.5,-888.5 394.5,-888.5 394.5,-869.5 345.5,-869.5"/>
<text text-anchor="middle" x="370" y="-876.5" font-family="Helvetica,sans-Serif" font-size="10.00" fill="#000000">encode</text>
</a>
</g>
</g>
<!-- Node5&#45;&gt;Node6 -->
<g id="edge5" class="edge">
<title>Node5&#45;&gt;Node6</title>
<path fill="none" stroke="#191970" d="M207.127,-556.95C228.888,-633.057 293.168,-857.261 296,-860 309.062,-872.633 329.337,-877.186 345.363,-878.689"/>
<polygon fill="#191970" stroke="#191970" points="210.463,-555.886 204.349,-547.233 203.732,-557.81 210.463,-555.886"/>
</g>
<!-- Node8 -->
<g id="node8" class="node">
<title>Node8</title>
<g id="a_node8"><a xlink:href="test__heatshrink__dynamic_8c.html#a1f344a98b6deed4077a36c681d397f91" target="_top" xlink:title="encoder_alloc_should\l_reject_invalid_arguments">
<polygon fill="#ffffff" stroke="#000000" points="303.5,-820 303.5,-850 436.5,-850 436.5,-820 303.5,-820"/>
<text text-anchor="start" x="311.5" y="-838" font-family="Helvetica,sans-Serif" font-size="10.00" fill="#000000">encoder_alloc_should</text>
<text text-anchor="middle" x="370" y="-827" font-family="Helvetica,sans-Serif" font-size="10.00" fill="#000000">_reject_invalid_arguments</text>
</a>
</g>
</g>
<!-- Node5&#45;&gt;Node8 -->
<g id="edge7" class="edge">
<title>Node5&#45;&gt;Node8</title>
<path fill="none" stroke="#191970" d="M207.263,-557.177C226.239,-622.29 277.135,-792.467 296,-811 299.468,-814.407 303.425,-817.331 307.663,-819.84"/>
<polygon fill="#191970" stroke="#191970" points="210.551,-555.951 204.401,-547.324 203.829,-557.903 210.551,-555.951"/>
</g>
<!-- Node10 -->
<g id="node10" class="node">
<title>Node10</title>
<g id="a_node10"><a xlink:href="test__heatshrink__dynamic_8c.html#a9b30a495760400a59637e7d708e63ae0" target="_top" xlink:title="encoder_sink_should\l_reject_nulls">
<polygon fill="#ffffff" stroke="#000000" points="314.5,-771 314.5,-801 425.5,-801 425.5,-771 314.5,-771"/>
<text text-anchor="start" x="322.5" y="-789" font-family="Helvetica,sans-Serif" font-size="10.00" fill="#000000">encoder_sink_should</text>
<text text-anchor="middle" x="370" y="-778" font-family="Helvetica,sans-Serif" font-size="10.00" fill="#000000">_reject_nulls</text>
</a>
</g>
</g>
<!-- Node5&#45;&gt;Node10 -->
<g id="edge9" class="edge">
<title>Node5&#45;&gt;Node10</title>
<path fill="none" stroke="#191970" d="M203.482,-557.012C211.329,-603.946 234.743,-705.558 296,-762 301.264,-766.85 307.521,-770.721 314.133,-773.81"/>
<polygon fill="#191970" stroke="#191970" points="206.933,-556.422 201.922,-547.087 200.018,-557.509 206.933,-556.422"/>
</g>
<!-- Node11 -->
<g id="node11" class="node">
<title>Node11</title>
<g id="a_node11"><a xlink:href="test__heatshrink__dynamic_8c.html#ade6da42ddec3e9a2d8fe58597792b843" target="_top" xlink:title="encoder_poll_should\l_reject_nulls">
<polygon fill="#ffffff" stroke="#000000" points="315.5,-722 315.5,-752 424.5,-752 424.5,-722 315.5,-722"/>
<text text-anchor="start" x="323.5" y="-740" font-family="Helvetica,sans-Serif" font-size="10.00" fill="#000000">encoder_poll_should</text>
<text text-anchor="middle" x="370" y="-729" font-family="Helvetica,sans-Serif" font-size="10.00" fill="#000000">_reject_nulls</text>
</a>
</g>
</g>
<!-- Node5&#45;&gt;Node11 -->
<g id="edge11" class="edge">
<title>Node5&#45;&gt;Node11</title>
<path fill="none" stroke="#191970" d="M206.856,-557.166C218.67,-595.896 246.495,-670.021 296,-712 301.688,-716.824 308.348,-720.729 315.3,-723.887"/>
<polygon fill="#191970" stroke="#191970" points="210.116,-555.847 203.943,-547.236 203.399,-557.817 210.116,-555.847"/>
</g>
<!-- Node12 -->
<g id="node12" class="node">
<title>Node12</title>
<g id="a_node12"><a xlink:href="test__heatshrink__dynamic_8c.html#a1c4dab770a7df0935018c3a685f5b1ff" target="_top" xlink:title="encoder_sink_should\l_accept_input_when_it\l_will_fit">
<polygon fill="#ffffff" stroke="#000000" points="310.5,-661.5 310.5,-702.5 429.5,-702.5 429.5,-661.5 310.5,-661.5"/>
<text text-anchor="start" x="318.5" y="-690.5" font-family="Helvetica,sans-Serif" font-size="10.00" fill="#000000">encoder_sink_should</text>
<text text-anchor="start" x="318.5" y="-679.5" font-family="Helvetica,sans-Serif" font-size="10.00" fill="#000000">_accept_input_when_it</text>
<text text-anchor="middle" x="370" y="-668.5" font-family="Helvetica,sans-Serif" font-size="10.00" fill="#000000">_will_fit</text>
</a>
</g>
</g>
<!-- Node5&#45;&gt;Node12 -->
<g id="edge13" class="edge">
<title>Node5&#45;&gt;Node12</title>
<path fill="none" stroke="#191970" d="M213.973,-556.067C230.531,-582.735 260.411,-625.469 296,-652 300.668,-655.48 305.796,-658.626 311.108,-661.453"/>
<polygon fill="#191970" stroke="#191970" points="216.866,-554.088 208.684,-547.357 210.883,-557.721 216.866,-554.088"/>
</g>
<!-- Node13 -->
<g id="node13" class="node">
<title>Node13</title>
<g id="a_node13"><a xlink:href="test__heatshrink__dynamic_8c.html#a73ee2ec6f21d5e0ce0e34902a1aebccb" target="_top" xlink:title="encoder_sink_should\l_accept_partial_input\l_when_some_will_fit">
<polygon fill="#ffffff" stroke="#000000" points="314,-601.5 314,-642.5 426,-642.5 426,-601.5 314,-601.5"/>
<text text-anchor="start" x="322" y="-630.5" font-family="Helvetica,sans-Serif" font-size="10.00" fill="#000000">encoder_sink_should</text>
<text text-anchor="start" x="322" y="-619.5" font-family="Helvetica,sans-Serif" font-size="10.00" fill="#000000">_accept_partial_input</text>
<text text-anchor="middle" x="370" y="-608.5" font-family="Helvetica,sans-Serif" font-size="10.00" fill="#000000">_when_some_will_fit</text>
</a>
</g>
</g>
<!-- Node5&#45;&gt;Node13 -->
<g id="edge15" class="edge">
<title>Node5&#45;&gt;Node13</title>
<path fill="none" stroke="#191970" d="M230.184,-552.756C248.708,-565.011 273.18,-580.354 296,-592 302.421,-595.277 309.286,-598.46 316.151,-601.453"/>
<polygon fill="#191970" stroke="#191970" points="232.12,-549.84 221.861,-547.193 228.23,-555.66 232.12,-549.84"/>
</g>
<!-- Node14 -->
<g id="node14" class="node">
<title>Node14</title>
<g id="a_node14"><a xlink:href="test__heatshrink__dynamic_8c.html#aa662e805dae6d002db06dc962e7440f9" target="_top" xlink:title="encoder_poll_should\l_indicate_when_no_input\l_is_provided">
<polygon fill="#ffffff" stroke="#000000" points="305,-541.5 305,-582.5 435,-582.5 435,-541.5 305,-541.5"/>
<text text-anchor="start" x="313" y="-570.5" font-family="Helvetica,sans-Serif" font-size="10.00" fill="#000000">encoder_poll_should</text>
<text text-anchor="start" x="313" y="-559.5" font-family="Helvetica,sans-Serif" font-size="10.00" fill="#000000">_indicate_when_no_input</text>
<text text-anchor="middle" x="370" y="-548.5" font-family="Helvetica,sans-Serif" font-size="10.00" fill="#000000">_is_provided</text>
</a>
</g>
</g>
<!-- Node5&#45;&gt;Node14 -->
<g id="edge17" class="edge">
<title>Node5&#45;&gt;Node14</title>
<path fill="none" stroke="#191970" d="M262.311,-542.996C276.174,-545.442 290.906,-548.042 304.879,-550.508"/>
<polygon fill="#191970" stroke="#191970" points="262.849,-539.537 252.393,-541.246 261.632,-546.43 262.849,-539.537"/>
</g>
<!-- Node15 -->
<g id="node15" class="node">
<title>Node15</title>
<g id="a_node15"><a xlink:href="test__heatshrink__dynamic_8c.html#a5339595930b85317e810fcf251b86351" target="_top" xlink:title="encoder_should_emit\l_data_without_repetitions\l_as_literal_sequence">
<polygon fill="#ffffff" stroke="#000000" points="305,-481.5 305,-522.5 435,-522.5 435,-481.5 305,-481.5"/>
<text text-anchor="start" x="313" y="-510.5" font-family="Helvetica,sans-Serif" font-size="10.00" fill="#000000">encoder_should_emit</text>
<text text-anchor="start" x="313" y="-499.5" font-family="Helvetica,sans-Serif" font-size="10.00" fill="#000000">_data_without_repetitions</text>
<text text-anchor="middle" x="370" y="-488.5" font-family="Helvetica,sans-Serif" font-size="10.00" fill="#000000">_as_literal_sequence</text>
</a>
</g>
</g>
<!-- Node5&#45;&gt;Node15 -->
<g id="edge19" class="edge">
<title>Node5&#45;&gt;Node15</title>
<path fill="none" stroke="#191970" d="M262.311,-521.004C276.174,-518.558 290.906,-515.958 304.879,-513.492"/>
<polygon fill="#191970" stroke="#191970" points="261.632,-517.57 252.393,-522.754 262.849,-524.463 261.632,-517.57"/>
</g>
<!-- Node16 -->
<g id="node16" class="node">
<title>Node16</title>
<g id="a_node16"><a xlink:href="test__heatshrink__dynamic_8c.html#ae27157a664552fa0744d095239ee0d88" target="_top" xlink:title="encoder_should_emit\l_series_of_same_byte\l_as_literal_then_backref">
<polygon fill="#ffffff" stroke="#000000" points="307.5,-421.5 307.5,-462.5 432.5,-462.5 432.5,-421.5 307.5,-421.5"/>
<text text-anchor="start" x="315.5" y="-450.5" font-family="Helvetica,sans-Serif" font-size="10.00" fill="#000000">encoder_should_emit</text>
<text text-anchor="start" x="315.5" y="-439.5" font-family="Helvetica,sans-Serif" font-size="10.00" fill="#000000">_series_of_same_byte</text>
<text text-anchor="middle" x="370" y="-428.5" font-family="Helvetica,sans-Serif" font-size="10.00" fill="#000000">_as_literal_then_backref</text>
</a>
</g>
</g>
<!-- Node5&#45;&gt;Node16 -->
<g id="edge21" class="edge">
<title>Node5&#45;&gt;Node16</title>
<path fill="none" stroke="#191970" d="M230.184,-511.244C248.708,-498.989 273.18,-483.646 296,-472 302.421,-468.723 309.286,-465.54 316.151,-462.547"/>
<polygon fill="#191970" stroke="#191970" points="228.23,-508.34 221.861,-516.807 232.12,-514.16 228.23,-508.34"/>
</g>
<!-- Node17 -->
<g id="node17" class="node">
<title>Node17</title>
<g id="a_node17"><a xlink:href="test__heatshrink__dynamic_8c.html#a2d84dd546b011bb6cfc3b1e9a9a5616b" target="_top" xlink:title="encoder_poll_should\l_detect_repeated_substring">
<polygon fill="#ffffff" stroke="#000000" points="300,-372 300,-402 440,-402 440,-372 300,-372"/>
<text text-anchor="start" x="308" y="-390" font-family="Helvetica,sans-Serif" font-size="10.00" fill="#000000">encoder_poll_should</text>
<text text-anchor="middle" x="370" y="-379" font-family="Helvetica,sans-Serif" font-size="10.00" fill="#000000">_detect_repeated_substring</text>
</a>
</g>
</g>
<!-- Node5&#45;&gt;Node17 -->
<g id="edge23" class="edge">
<title>Node5&#45;&gt;Node17</title>
<path fill="none" stroke="#191970" d="M213.427,-507.975C229.672,-480.981 259.444,-437.6 296,-412 301.443,-408.188 307.513,-404.92 313.771,-402.127"/>
<polygon fill="#191970" stroke="#191970" points="210.3,-506.388 208.256,-516.784 216.337,-509.932 210.3,-506.388"/>
</g>
<!-- Node18 -->
<g id="node18" class="node">
<title>Node18</title>
<g id="a_node18"><a xlink:href="test__heatshrink__dynamic_8c.html#ab068727669a416029bacc708b2aac5ac" target="_top" xlink:title="encoder_poll_should\l_detect_repeated_substring\l_and_preserve_trailing_literal">
<polygon fill="#ffffff" stroke="#000000" points="296,-311.5 296,-352.5 444,-352.5 444,-311.5 296,-311.5"/>
<text text-anchor="start" x="304" y="-340.5" font-family="Helvetica,sans-Serif" font-size="10.00" fill="#000000">encoder_poll_should</text>
<text text-anchor="start" x="304" y="-329.5" font-family="Helvetica,sans-Serif" font-size="10.00" fill="#000000">_detect_repeated_substring</text>
<text text-anchor="middle" x="370" y="-318.5" font-family="Helvetica,sans-Serif" font-size="10.00" fill="#000000">_and_preserve_trailing_literal</text>
</a>
</g>
</g>
<!-- Node5&#45;&gt;Node18 -->
<g id="edge25" class="edge">
<title>Node5&#45;&gt;Node18</title>
<path fill="none" stroke="#191970" d="M208.196,-506.724C221.26,-470.116 250.116,-402.32 296,-362 299.957,-358.523 304.37,-355.417 309.016,-352.648"/>
<polygon fill="#191970" stroke="#191970" points="204.742,-506.003 204.787,-516.597 211.359,-508.287 204.742,-506.003"/>
</g>
<!-- Node19 -->
<g id="node19" class="node">
<title>Node19</title>
<g id="a_node19"><a xlink:href="test__heatshrink__dynamic_8c.html#a6627d0e00f7e636ae9294cc6255c7ffd" target="_top" xlink:title="gen">
<polygon fill="#ffffff" stroke="#000000" points="353.5,-273.5 353.5,-292.5 386.5,-292.5 386.5,-273.5 353.5,-273.5"/>
<text text-anchor="middle" x="370" y="-280.5" font-family="Helvetica,sans-Serif" font-size="10.00" fill="#000000">gen</text>
</a>
</g>
</g>
<!-- Node5&#45;&gt;Node19 -->
<g id="edge27" class="edge">
<title>Node5&#45;&gt;Node19</title>
<path fill="none" stroke="#191970" d="M203.111,-506.974C210.363,-459.589 232.863,-356.638 296,-302 312.048,-288.113 336.942,-284.163 353.356,-283.153"/>
<polygon fill="#191970" stroke="#191970" points="199.63,-506.592 201.682,-516.986 206.56,-507.581 199.63,-506.592"/>
</g>
<!-- Node21 -->
<g id="node21" class="node">
<title>Node21</title>
<g id="a_node21"><a xlink:href="test__heatshrink__dynamic_8c.html#ab9096be17a9dc8f301673949558e5bd6" target="_top" xlink:title="compress_and_expand\l_and_check">
<polygon fill="#ffffff" stroke="#000000" points="310,-224 310,-254 430,-254 430,-224 310,-224"/>
<text text-anchor="start" x="318" y="-242" font-family="Helvetica,sans-Serif" font-size="10.00" fill="#000000">compress_and_expand</text>
<text text-anchor="middle" x="370" y="-231" font-family="Helvetica,sans-Serif" font-size="10.00" fill="#000000">_and_check</text>
</a>
</g>
</g>
<!-- Node5&#45;&gt;Node21 -->
<g id="edge29" class="edge">
<title>Node5&#45;&gt;Node21</title>
<path fill="none" stroke="#191970" d="M201.878,-506.717C207.133,-454.133 226.536,-332.214 296,-264 300.064,-260.009 304.786,-256.655 309.841,-253.836"/>
<polygon fill="#191970" stroke="#191970" points="198.378,-506.566 200.959,-516.841 205.349,-507.199 198.378,-506.566"/>
</g>
<!-- Node30 -->
<g id="node30" class="node">
<title>Node30</title>
<g id="a_node30"><a xlink:href="test__heatshrink__dynamic_8c.html#a9a102029b8375d4050406a2814f390ac" target="_top" xlink:title="data_without_duplication\l_should_match_with_absurdly\l_tiny_buffers">
<polygon fill="#ffffff" stroke="#000000" points="496,-60.5 496,-101.5 647,-101.5 647,-60.5 496,-60.5"/>
<text text-anchor="start" x="504" y="-89.5" font-family="Helvetica,sans-Serif" font-size="10.00" fill="#000000">data_without_duplication</text>
<text text-anchor="start" x="504" y="-78.5" font-family="Helvetica,sans-Serif" font-size="10.00" fill="#000000">_should_match_with_absurdly</text>
<text text-anchor="middle" x="571.5" y="-67.5" font-family="Helvetica,sans-Serif" font-size="10.00" fill="#000000">_tiny_buffers</text>
</a>
</g>
</g>
<!-- Node5&#45;&gt;Node30 -->
<g id="edge44" class="edge">
<title>Node5&#45;&gt;Node30</title>
<path fill="none" stroke="#191970" d="M201.333,-506.822C205.616,-448.927 223.384,-304.382 296,-214 346.23,-151.48 433.055,-116.441 495.829,-98.2163"/>
<polygon fill="#191970" stroke="#191970" points="197.835,-506.688 200.662,-516.899 204.819,-507.154 197.835,-506.688"/>
</g>
<!-- Node31 -->
<g id="node31" class="node">
<title>Node31</title>
<g id="a_node31"><a xlink:href="test__heatshrink__dynamic_8c.html#acd64db79d79999a7c5436d35b74a7f40" target="_top" xlink:title="data_with_simple_repetition\l_should_match_with_absurdly\l_tiny_buffers">
<polygon fill="#ffffff" stroke="#000000" points="496,-0.5 496,-41.5 647,-41.5 647,-0.5 496,-0.5"/>
<text text-anchor="start" x="504" y="-29.5" font-family="Helvetica,sans-Serif" font-size="10.00" fill="#000000">data_with_simple_repetition</text>
<text text-anchor="start" x="504" y="-18.5" font-family="Helvetica,sans-Serif" font-size="10.00" fill="#000000">_should_match_with_absurdly</text>
<text text-anchor="middle" x="571.5" y="-7.5" font-family="Helvetica,sans-Serif" font-size="10.00" fill="#000000">_tiny_buffers</text>
</a>
</g>
</g>
<!-- Node5&#45;&gt;Node31 -->
<g id="edge46" class="edge">
<title>Node5&#45;&gt;Node31</title>
<path fill="none" stroke="#191970" d="M202.626,-506.717C211.518,-425.665 242.937,-174.155 296,-115 346.872,-58.2882 433.364,-35.772 495.884,-26.8436"/>
<polygon fill="#191970" stroke="#191970" points="199.111,-506.668 201.521,-516.985 206.071,-507.417 199.111,-506.668"/>
</g>
<!-- Node7 -->
<g id="node7" class="node">
<title>Node7</title>
<g id="a_node7"><a xlink:href="heatshrink_8c.html#a3c04138a5bfe5d72780bb7e82a18e627" target="_top" xlink:title="main">
<polygon fill="#ffffff" stroke="#000000" points="552.5,-869.5 552.5,-888.5 590.5,-888.5 590.5,-869.5 552.5,-869.5"/>
<text text-anchor="middle" x="571.5" y="-876.5" font-family="Helvetica,sans-Serif" font-size="10.00" fill="#000000">main</text>
</a>
</g>
</g>
<!-- Node6&#45;&gt;Node7 -->
<g id="edge6" class="edge">
<title>Node6&#45;&gt;Node7</title>
<path fill="none" stroke="#191970" d="M404.924,-879C447.643,-879 518.442,-879 552.305,-879"/>
<polygon fill="#191970" stroke="#191970" points="404.708,-875.5 394.708,-879 404.708,-882.5 404.708,-875.5"/>
</g>
<!-- Node9 -->
<g id="node9" class="node">
<title>Node9</title>
<g id="a_node9"><a xlink:href="test__heatshrink__dynamic_8c.html#ac4a70b7ac22f00448c1d17d2b29a1359" target="_top" xlink:title="SUITE">
<polygon fill="#ffffff" stroke="#000000" points="548.5,-582.5 548.5,-601.5 594.5,-601.5 594.5,-582.5 548.5,-582.5"/>
<text text-anchor="middle" x="571.5" y="-589.5" font-family="Helvetica,sans-Serif" font-size="10.00" fill="#000000">SUITE</text>
</a>
</g>
</g>
<!-- Node8&#45;&gt;Node9 -->
<g id="edge8" class="edge">
<title>Node8&#45;&gt;Node9</title>
<path fill="none" stroke="#191970" d="M439.075,-814.619C440.777,-813.477 442.423,-812.272 444,-811 518.318,-751.074 558.255,-635.385 568.699,-601.527"/>
<polygon fill="#191970" stroke="#191970" points="437.037,-811.755 430.163,-819.817 440.564,-817.802 437.037,-811.755"/>
</g>
<!-- Node10&#45;&gt;Node9 -->
<g id="edge10" class="edge">
<title>Node10&#45;&gt;Node9</title>
<path fill="none" stroke="#191970" d="M434.838,-767.695C438.033,-765.959 441.11,-764.065 444,-762 507.334,-716.742 552.881,-630.602 566.937,-601.716"/>
<polygon fill="#191970" stroke="#191970" points="433.051,-764.672 425.578,-772.182 436.104,-770.971 433.051,-764.672"/>
</g>
<!-- Node11&#45;&gt;Node9 -->
<g id="edge12" class="edge">
<title>Node11&#45;&gt;Node9</title>
<path fill="none" stroke="#191970" d="M433.211,-717.759C436.94,-715.978 440.566,-714.06 444,-712 496.651,-680.407 545.596,-623.957 563.902,-601.548"/>
<polygon fill="#191970" stroke="#191970" points="431.528,-714.676 423.783,-721.905 434.346,-721.083 431.528,-714.676"/>
</g>
<!-- Node12&#45;&gt;Node9 -->
<g id="edge14" class="edge">
<title>Node12&#45;&gt;Node9</title>
<path fill="none" stroke="#191970" d="M431.337,-657.437C435.633,-655.623 439.888,-653.799 444,-652 482.549,-635.131 526.853,-613.845 551.777,-601.692"/>
<polygon fill="#191970" stroke="#191970" points="429.782,-654.293 421.904,-661.377 432.48,-660.752 429.782,-654.293"/>
</g>
<!-- Node13&#45;&gt;Node9 -->
<g id="edge16" class="edge">
<title>Node13&#45;&gt;Node9</title>
<path fill="none" stroke="#191970" d="M436.266,-612.134C474.836,-606.392 521.074,-599.508 548.272,-595.458"/>
<polygon fill="#191970" stroke="#191970" points="435.505,-608.709 426.129,-613.643 436.535,-615.632 435.505,-608.709"/>
</g>
<!-- Node14&#45;&gt;Node9 -->
<g id="edge18" class="edge">
<title>Node14&#45;&gt;Node9</title>
<path fill="none" stroke="#191970" d="M445.325,-573.215C481.937,-578.666 523.342,-584.83 548.425,-588.564"/>
<polygon fill="#191970" stroke="#191970" points="445.549,-569.71 435.143,-571.699 444.519,-576.633 445.549,-569.71"/>
</g>
<!-- Node15&#45;&gt;Node9 -->
<g id="edge20" class="edge">
<title>Node15&#45;&gt;Node9</title>
<path fill="none" stroke="#191970" d="M431.337,-526.563C435.633,-528.377 439.888,-530.201 444,-532 482.549,-548.869 526.853,-570.155 551.777,-582.308"/>
<polygon fill="#191970" stroke="#191970" points="432.48,-523.248 421.904,-522.623 429.782,-529.707 432.48,-523.248"/>
</g>
<!-- Node16&#45;&gt;Node9 -->
<g id="edge22" class="edge">
<title>Node16&#45;&gt;Node9</title>
<path fill="none" stroke="#191970" d="M436.357,-467.436C438.98,-468.9 441.538,-470.422 444,-472 495.435,-504.978 544.701,-560.147 563.496,-582.33"/>
<polygon fill="#191970" stroke="#191970" points="437.727,-464.203 427.242,-462.683 434.491,-470.41 437.727,-464.203"/>
</g>
<!-- Node17&#45;&gt;Node9 -->
<g id="edge24" class="edge">
<title>Node17&#45;&gt;Node9</title>
<path fill="none" stroke="#191970" d="M438.607,-407.588C440.492,-408.965 442.297,-410.434 444,-412 473.593,-439.222 457.872,-461.427 480,-495 503.696,-530.953 541.261,-565.868 560.033,-582.273"/>
<polygon fill="#191970" stroke="#191970" points="440.222,-404.469 429.891,-402.119 436.501,-410.398 440.222,-404.469"/>
</g>
<!-- Node18&#45;&gt;Node9 -->
<g id="edge26" class="edge">
<title>Node18&#45;&gt;Node9</title>
<path fill="none" stroke="#191970" d="M441.254,-359.119C442.204,-360.048 443.121,-361.008 444,-362 484.609,-407.837 450.09,-441.563 480,-495 500.918,-532.372 539.387,-566.386 559.117,-582.379"/>
<polygon fill="#191970" stroke="#191970" points="443.313,-356.279 433.379,-352.594 438.846,-361.669 443.313,-356.279"/>
</g>
<!-- Node20 -->
<g id="node20" class="node">
<title>Node20</title>
<g id="a_node20"><a xlink:href="test__heatshrink__dynamic_8c.html#adc66afa12a5eaae0cd12d5cc497f0f67" target="_top" xlink:title="SUITE">
<polygon fill="#ffffff" stroke="#000000" points="548.5,-466.5 548.5,-485.5 594.5,-485.5 594.5,-466.5 548.5,-466.5"/>
<text text-anchor="middle" x="571.5" y="-473.5" font-family="Helvetica,sans-Serif" font-size="10.00" fill="#000000">SUITE</text>
</a>
</g>
</g>
<!-- Node19&#45;&gt;Node20 -->
<g id="edge28" class="edge">
<title>Node19&#45;&gt;Node20</title>
<path fill="none" stroke="#191970" d="M396.782,-283.26C412.573,-284.852 431.789,-289.522 444,-302 493.161,-352.238 429.94,-406.658 480,-456 497.95,-473.693 527.707,-477.292 548.393,-477.379"/>
<polygon fill="#191970" stroke="#191970" points="396.732,-279.75 386.526,-282.592 396.277,-286.735 396.732,-279.75"/>
</g>
<!-- Node22 -->
<g id="node22" class="node">
<title>Node22</title>
<g id="a_node22"><a xlink:href="test__heatshrink__dynamic_8c.html#a9d63746ee6a963338d09b8a19da82529" target="_top" xlink:title="data_without_duplication\l_should_match">
<polygon fill="#ffffff" stroke="#000000" points="508,-417 508,-447 635,-447 635,-417 508,-417"/>
<text text-anchor="start" x="516" y="-435" font-family="Helvetica,sans-Serif" font-size="10.00" fill="#000000">data_without_duplication</text>
<text text-anchor="middle" x="571.5" y="-424" font-family="Helvetica,sans-Serif" font-size="10.00" fill="#000000">_should_match</text>
</a>
</g>
</g>
<!-- Node21&#45;&gt;Node22 -->
<g id="edge30" class="edge">
<title>Node21&#45;&gt;Node22</title>
<path fill="none" stroke="#191970" d="M438.827,-259.135C440.66,-260.641 442.393,-262.26 444,-264 488.472,-312.141 434.125,-360.194 480,-407 487.608,-414.762 497.374,-420.184 507.681,-423.955"/>
<polygon fill="#191970" stroke="#191970" points="440.445,-256.001 430.22,-253.226 436.483,-261.771 440.445,-256.001"/>
</g>
<!-- Node24 -->
<g id="node24" class="node">
<title>Node24</title>
<g id="a_node24"><a xlink:href="test__heatshrink__dynamic_8c.html#ae9d1425d6c89a652b9df2b4ddc7ac2a2" target="_top" xlink:title="data_with_simple_repetition\l_should_compress_and_decompress\l_properly">
<polygon fill="#ffffff" stroke="#000000" points="480,-356.5 480,-397.5 663,-397.5 663,-356.5 480,-356.5"/>
<text text-anchor="start" x="488" y="-385.5" font-family="Helvetica,sans-Serif" font-size="10.00" fill="#000000">data_with_simple_repetition</text>
<text text-anchor="start" x="488" y="-374.5" font-family="Helvetica,sans-Serif" font-size="10.00" fill="#000000">_should_compress_and_decompress</text>
<text text-anchor="middle" x="571.5" y="-363.5" font-family="Helvetica,sans-Serif" font-size="10.00" fill="#000000">_properly</text>
</a>
</g>
</g>
<!-- Node21&#45;&gt;Node24 -->
<g id="edge32" class="edge">
<title>Node21&#45;&gt;Node24</title>
<path fill="none" stroke="#191970" d="M438.598,-259.598C440.486,-260.972 442.294,-262.437 444,-264 473.353,-290.881 450.658,-319.107 480,-346 484.328,-349.966 489.182,-353.428 494.339,-356.448"/>
<polygon fill="#191970" stroke="#191970" points="440.207,-256.476 429.873,-254.138 436.494,-262.41 440.207,-256.476"/>
</g>
<!-- Node25 -->
<g id="node25" class="node">
<title>Node25</title>
<g id="a_node25"><a xlink:href="test__heatshrink__dynamic_8c.html#a60c0e0c5bbb9715c7932ee82e706752d" target="_top" xlink:title="pseudorandom_data_should\l_match">
<polygon fill="#ffffff" stroke="#000000" points="500,-307 500,-337 643,-337 643,-307 500,-307"/>
<text text-anchor="start" x="508" y="-325" font-family="Helvetica,sans-Serif" font-size="10.00" fill="#000000">pseudorandom_data_should</text>
<text text-anchor="middle" x="571.5" y="-314" font-family="Helvetica,sans-Serif" font-size="10.00" fill="#000000">_match</text>
</a>
</g>
</g>
<!-- Node21&#45;&gt;Node25 -->
<g id="edge34" class="edge">
<title>Node21&#45;&gt;Node25</title>
<path fill="none" stroke="#191970" d="M432.645,-258.043C436.569,-259.881 440.389,-261.865 444,-264 462.685,-275.045 460.997,-286.512 480,-297 486.92,-300.82 494.462,-304.086 502.15,-306.872"/>
<polygon fill="#191970" stroke="#191970" points="433.914,-254.778 423.347,-254.015 431.131,-261.201 433.914,-254.778"/>
</g>
<!-- Node26 -->
<g id="node26" class="node">
<title>Node26</title>
<g id="a_node26"><a xlink:href="test__heatshrink__dynamic_8c.html#a20e1a72bba941f0c602b93b53d32d5db" target="_top" xlink:title="small_input_buffer\l_should_not_impact_decoder\l_correctness">
<polygon fill="#ffffff" stroke="#000000" points="497.5,-246.5 497.5,-287.5 645.5,-287.5 645.5,-246.5 497.5,-246.5"/>
<text text-anchor="start" x="505.5" y="-275.5" font-family="Helvetica,sans-Serif" font-size="10.00" fill="#000000">small_input_buffer</text>
<text text-anchor="start" x="505.5" y="-264.5" font-family="Helvetica,sans-Serif" font-size="10.00" fill="#000000">_should_not_impact_decoder</text>
<text text-anchor="middle" x="571.5" y="-253.5" font-family="Helvetica,sans-Serif" font-size="10.00" fill="#000000">_correctness</text>
</a>
</g>
</g>
<!-- Node21&#45;&gt;Node26 -->
<g id="edge36" class="edge">
<title>Node21&#45;&gt;Node26</title>
<path fill="none" stroke="#191970" d="M440.268,-248.764C458.731,-251.33 478.703,-254.105 497.362,-256.698"/>
<polygon fill="#191970" stroke="#191970" points="440.57,-245.273 430.184,-247.363 439.607,-252.206 440.57,-245.273"/>
</g>
<!-- Node27 -->
<g id="node27" class="node">
<title>Node27</title>
<g id="a_node27"><a xlink:href="test__heatshrink__dynamic_8c.html#a462faeb904a3de1b1e009a04f7d171d8" target="_top" xlink:title="regression_backreference\l_counters_should_not_roll_over">
<polygon fill="#ffffff" stroke="#000000" points="492,-197 492,-227 651,-227 651,-197 492,-197"/>
<text text-anchor="start" x="500" y="-215" font-family="Helvetica,sans-Serif" font-size="10.00" fill="#000000">regression_backreference</text>
<text text-anchor="middle" x="571.5" y="-204" font-family="Helvetica,sans-Serif" font-size="10.00" fill="#000000">_counters_should_not_roll_over</text>
</a>
</g>
</g>
<!-- Node21&#45;&gt;Node27 -->
<g id="edge38" class="edge">
<title>Node21&#45;&gt;Node27</title>
<path fill="none" stroke="#191970" d="M440.364,-229.572C456.997,-227.343 474.848,-224.951 491.859,-222.671"/>
<polygon fill="#191970" stroke="#191970" points="439.63,-226.139 430.184,-230.936 440.56,-233.077 439.63,-226.139"/>
</g>
<!-- Node28 -->
<g id="node28" class="node">
<title>Node28</title>
<g id="a_node28"><a xlink:href="test__heatshrink__dynamic_8c.html#a2ed8ea21768d114fa96b07eb58475663" target="_top" xlink:title="regression_index_fail">
<polygon fill="#ffffff" stroke="#000000" points="516,-158.5 516,-177.5 627,-177.5 627,-158.5 516,-158.5"/>
<text text-anchor="middle" x="571.5" y="-165.5" font-family="Helvetica,sans-Serif" font-size="10.00" fill="#000000">regression_index_fail</text>
</a>
</g>
</g>
<!-- Node21&#45;&gt;Node28 -->
<g id="edge40" class="edge">
<title>Node21&#45;&gt;Node28</title>
<path fill="none" stroke="#191970" d="M406.177,-219.231C427.214,-208.42 454.526,-195.531 480,-187 491.384,-183.187 503.833,-179.991 515.779,-177.374"/>
<polygon fill="#191970" stroke="#191970" points="404.525,-216.145 397.277,-223.873 407.762,-222.352 404.525,-216.145"/>
</g>
<!-- Node29 -->
<g id="node29" class="node">
<title>Node29</title>
<g id="a_node29"><a xlink:href="test__heatshrink__dynamic_8c.html#a1bfe72da903d55a8610433a4f2a60d43" target="_top" xlink:title="sixty_four_k">
<polygon fill="#ffffff" stroke="#000000" points="536.5,-120.5 536.5,-139.5 606.5,-139.5 606.5,-120.5 536.5,-120.5"/>
<text text-anchor="middle" x="571.5" y="-127.5" font-family="Helvetica,sans-Serif" font-size="10.00" fill="#000000">sixty_four_k</text>
</a>
</g>
</g>
<!-- Node21&#45;&gt;Node29 -->
<g id="edge42" class="edge">
<title>Node21&#45;&gt;Node29</title>
<path fill="none" stroke="#191970" d="M390.69,-216.77C411.313,-196 444.895,-165.752 480,-149 497.571,-140.615 518.774,-135.916 536.344,-133.29"/>
<polygon fill="#191970" stroke="#191970" points="388.167,-214.344 383.7,-223.951 393.183,-219.227 388.167,-214.344"/>
</g>
<!-- Node23 -->
<g id="node23" class="node">
<title>Node23</title>
<g id="a_node23"><a xlink:href="test__heatshrink__dynamic_8c.html#a2f157eb23cb17a496326c14e12933b3b" target="_top" xlink:title="SUITE">
<polygon fill="#ffffff" stroke="#000000" points="699,-202.5 699,-221.5 745,-221.5 745,-202.5 699,-202.5"/>
<text text-anchor="middle" x="722" y="-209.5" font-family="Helvetica,sans-Serif" font-size="10.00" fill="#000000">SUITE</text>
</a>
</g>
</g>
<!-- Node22&#45;&gt;Node23 -->
<g id="edge31" class="edge">
<title>Node22&#45;&gt;Node23</title>
<path fill="none" stroke="#191970" d="M644.521,-419.661C651.314,-416.361 657.645,-412.212 663,-407 690.628,-380.111 713.986,-257.611 720.312,-221.837"/>
<polygon fill="#191970" stroke="#191970" points="642.882,-416.554 635.02,-423.655 645.595,-423.007 642.882,-416.554"/>
</g>
<!-- Node24&#45;&gt;Node23 -->
<g id="edge33" class="edge">
<title>Node24&#45;&gt;Node23</title>
<path fill="none" stroke="#191970" d="M657.034,-350.919C659.111,-349.372 661.106,-347.734 663,-346 701.433,-310.812 716.147,-246.052 720.484,-221.646"/>
<polygon fill="#191970" stroke="#191970" points="655.078,-348.016 648.657,-356.443 658.932,-353.86 655.078,-348.016"/>
</g>
<!-- Node25&#45;&gt;Node23 -->
<g id="edge35" class="edge">
<title>Node25&#45;&gt;Node23</title>
<path fill="none" stroke="#191970" d="M652.515,-303.382C656.172,-301.46 659.691,-299.339 663,-297 691.163,-277.09 710.269,-239.233 718.062,-221.548"/>
<polygon fill="#191970" stroke="#191970" points="650.745,-300.347 643.18,-307.764 653.72,-306.683 650.745,-300.347"/>
</g>
<!-- Node26&#45;&gt;Node23 -->
<g id="edge37" class="edge">
<title>Node26&#45;&gt;Node23</title>
<path fill="none" stroke="#191970" d="M643.414,-243.089C650.054,-240.745 656.664,-238.36 663,-236 675.124,-231.485 688.49,-226.084 699.43,-221.55"/>
<polygon fill="#191970" stroke="#191970" points="641.978,-239.883 633.693,-246.487 644.288,-246.491 641.978,-239.883"/>
</g>
<!-- Node27&#45;&gt;Node23 -->
<g id="edge39" class="edge">
<title>Node27&#45;&gt;Node23</title>
<path fill="none" stroke="#191970" d="M661.338,-212C675.192,-212 688.36,-212 698.866,-212"/>
<polygon fill="#191970" stroke="#191970" points="661.157,-208.5 651.157,-212 661.157,-215.5 661.157,-208.5"/>
</g>
<!-- Node28&#45;&gt;Node23 -->
<g id="edge41" class="edge">
<title>Node28&#45;&gt;Node23</title>
<path fill="none" stroke="#191970" d="M635.993,-179.732C645.133,-181.874 654.357,-184.3 663,-187 676.38,-191.179 690.881,-197.301 702.159,-202.44"/>
<polygon fill="#191970" stroke="#191970" points="636.663,-176.295 626.139,-177.518 635.129,-183.125 636.663,-176.295"/>
</g>
<!-- Node29&#45;&gt;Node23 -->
<g id="edge43" class="edge">
<title>Node29&#45;&gt;Node23</title>
<path fill="none" stroke="#191970" d="M616.607,-133.782C632.048,-136.492 648.957,-141.118 663,-149 686.521,-162.202 706.134,-187.985 715.707,-202.13"/>
<polygon fill="#191970" stroke="#191970" points="617.133,-130.321 606.717,-132.262 616.07,-137.24 617.133,-130.321"/>
</g>
<!-- Node30&#45;&gt;Node23 -->
<g id="edge45" class="edge">
<title>Node30&#45;&gt;Node23</title>
<path fill="none" stroke="#191970" d="M655.916,-105.855C658.375,-107.465 660.745,-109.178 663,-111 694.121,-136.138 712.283,-182.397 719.002,-202.384"/>
<polygon fill="#191970" stroke="#191970" points="657.65,-102.814 647.254,-100.768 654.104,-108.85 657.65,-102.814"/>
</g>
<!-- Node31&#45;&gt;Node23 -->
<g id="edge47" class="edge">
<title>Node31&#45;&gt;Node23</title>
<path fill="none" stroke="#191970" d="M655.981,-45.0697C658.451,-46.9033 660.802,-48.8765 663,-51 707.959,-94.4372 718.859,-174.949 721.325,-202.481"/>
<polygon fill="#191970" stroke="#191970" points="657.464,-41.8602 647.169,-39.3584 653.657,-47.7343 657.464,-41.8602"/>
</g>
</g>
</svg>
