<?xml version="1.0" encoding="UTF-8" standalone="no"?>
<!DOCTYPE svg PUBLIC "-//W3C//DTD SVG 1.1//EN"
 "http://www.w3.org/Graphics/SVG/1.1/DTD/svg11.dtd">
<!-- Generated by graphviz version 2.39.20160927.1334 (20160927.1334)
 -->
<!-- Title: handle_close Pages: 1 -->
<svg width="372pt" height="66pt"
 viewBox="0.00 0.00 372.00 66.00" xmlns="http://www.w3.org/2000/svg" xmlns:xlink="http://www.w3.org/1999/xlink">
<g id="graph0" class="graph" transform="scale(1 1) rotate(0) translate(4 62)">
<title>handle_close</title>
<polygon fill="#ffffff" stroke="transparent" points="-4,4 -4,-62 368,-62 368,4 -4,4"/>
<!-- Node1 -->
<g id="node1" class="node">
<title>Node1</title>
<polygon fill="#bfbfbf" stroke="#000000" points="0,-19.5 0,-38.5 75,-38.5 75,-19.5 0,-19.5"/>
<text text-anchor="middle" x="37.5" y="-26.5" font-family="Helvetica,sans-Serif" font-size="10.00" fill="#000000">handle_close</text>
</g>
<!-- Node2 -->
<g id="node2" class="node">
<title>Node2</title>
<g id="a_node2"><a xlink:href="heatshrink_8c.html#ab458cc219445a92b0d1ba2bdbc4d5d6f" target="_top" xlink:title="close_and_report">
<polygon fill="#ffffff" stroke="#000000" points="111,-19.5 111,-38.5 205,-38.5 205,-19.5 111,-19.5"/>
<text text-anchor="middle" x="158" y="-26.5" font-family="Helvetica,sans-Serif" font-size="10.00" fill="#000000">close_and_report</text>
</a>
</g>
</g>
<!-- Node1&#45;&gt;Node2 -->
<g id="edge1" class="edge">
<title>Node1&#45;&gt;Node2</title>
<path fill="none" stroke="#191970" d="M85.5239,-29C93.7718,-29 102.339,-29 110.571,-29"/>
<polygon fill="#191970" stroke="#191970" points="85.2964,-25.5001 75.2963,-29 85.2963,-32.5001 85.2964,-25.5001"/>
</g>
<!-- Node3 -->
<g id="node3" class="node">
<title>Node3</title>
<g id="a_node3"><a xlink:href="heatshrink_8c.html#a92d9515cb2f33eea4832becaa17c11bb" target="_top" xlink:title="decode">
<polygon fill="#ffffff" stroke="#000000" points="241,-38.5 241,-57.5 290,-57.5 290,-38.5 241,-38.5"/>
<text text-anchor="middle" x="265.5" y="-45.5" font-family="Helvetica,sans-Serif" font-size="10.00" fill="#000000">decode</text>
</a>
</g>
</g>
<!-- Node2&#45;&gt;Node3 -->
<g id="edge2" class="edge">
<title>Node2&#45;&gt;Node3</title>
<path fill="none" stroke="#191970" d="M215.001,-39.0746C224.079,-40.6791 233.033,-42.2616 240.822,-43.6382"/>
<polygon fill="#191970" stroke="#191970" points="215.608,-35.6276 205.151,-37.3337 214.389,-42.5208 215.608,-35.6276"/>
</g>
<!-- Node5 -->
<g id="node5" class="node">
<title>Node5</title>
<g id="a_node5"><a xlink:href="heatshrink_8c.html#a37f19023beced8a782d3051bfd7a0bcb" target="_top" xlink:title="encode">
<polygon fill="#ffffff" stroke="#000000" points="241,-0.5 241,-19.5 290,-19.5 290,-0.5 241,-0.5"/>
<text text-anchor="middle" x="265.5" y="-7.5" font-family="Helvetica,sans-Serif" font-size="10.00" fill="#000000">encode</text>
</a>
</g>
</g>
<!-- Node2&#45;&gt;Node5 -->
<g id="edge4" class="edge">
<title>Node2&#45;&gt;Node5</title>
<path fill="none" stroke="#191970" d="M215.001,-18.9254C224.079,-17.3209 233.033,-15.7384 240.822,-14.3618"/>
<polygon fill="#191970" stroke="#191970" points="214.389,-15.4792 205.151,-20.6663 215.608,-22.3724 214.389,-15.4792"/>
</g>
<!-- Node4 -->
<g id="node4" class="node">
<title>Node4</title>
<g id="a_node4"><a xlink:href="heatshrink_8c.html#a3c04138a5bfe5d72780bb7e82a18e627" target="_top" xlink:title="main">
<polygon fill="#ffffff" stroke="#000000" points="326,-19.5 326,-38.5 364,-38.5 364,-19.5 326,-19.5"/>
<text text-anchor="middle" x="345" y="-26.5" font-family="Helvetica,sans-Serif" font-size="10.00" fill="#000000">main</text>
</a>
</g>
</g>
<!-- Node3&#45;&gt;Node4 -->
<g id="edge3" class="edge">
<title>Node3&#45;&gt;Node4</title>
<path fill="none" stroke="#191970" d="M299.985,-39.7583C308.855,-37.6385 318.08,-35.4336 325.853,-33.5759"/>
<polygon fill="#191970" stroke="#191970" points="299.131,-36.3637 290.219,-42.0924 300.758,-43.172 299.131,-36.3637"/>
</g>
<!-- Node5&#45;&gt;Node4 -->
<g id="edge5" class="edge">
<title>Node5&#45;&gt;Node4</title>
<path fill="none" stroke="#191970" d="M299.985,-18.2417C308.855,-20.3615 318.08,-22.5664 325.853,-24.4241"/>
<polygon fill="#191970" stroke="#191970" points="300.758,-14.828 290.219,-15.9076 299.131,-21.6363 300.758,-14.828"/>
</g>
</g>
</svg>
