<?xml version="1.0" encoding="UTF-8" standalone="no"?>
<!DOCTYPE svg PUBLIC "-//W3C//DTD SVG 1.1//EN"
 "http://www.w3.org/Graphics/SVG/1.1/DTD/svg11.dtd">
<!-- Generated by graphviz version 2.41.20170323.1842 (20170323.1842)
 -->
<!-- Title: heatshrink_decoder_poll Pages: 1 -->
<svg width="385pt" height="294pt"
 viewBox="0.00 0.00 385.00 294.00" xmlns="http://www.w3.org/2000/svg" xmlns:xlink="http://www.w3.org/1999/xlink">
<g id="graph0" class="graph" transform="scale(1 1) rotate(0) translate(4 290)">
<title>heatshrink_decoder_poll</title>
<polygon fill="#ffffff" stroke="transparent" points="-4,4 -4,-290 381,-290 381,4 -4,4"/>
<!-- Node95 -->
<g id="node1" class="node">
<title>Node95</title>
<polygon fill="#bfbfbf" stroke="#000000" points="0,-133.5 0,-152.5 125,-152.5 125,-133.5 0,-133.5"/>
<text text-anchor="middle" x="62.5" y="-140.5" font-family="Helvetica,sans-Serif" font-size="10.00" fill="#000000">heatshrink_decoder_poll</text>
</g>
<!-- Node96 -->
<g id="node2" class="node">
<title>Node96</title>
<g id="a_node2"><a xlink:href="lib_2heatshrink_2heatshrink__decoder_8c.html#add421259899857568ecc328c6ad54a99" target="_top" xlink:title="st_backref_count_lsb">
<polygon fill="#ffffff" stroke="#000000" points="164,-266.5 164,-285.5 275,-285.5 275,-266.5 164,-266.5"/>
<text text-anchor="middle" x="219.5" y="-273.5" font-family="Helvetica,sans-Serif" font-size="10.00" fill="#000000">st_backref_count_lsb</text>
</a>
</g>
</g>
<!-- Node95&#45;&gt;Node96 -->
<g id="edge1" class="edge">
<title>Node95&#45;&gt;Node96</title>
<path fill="none" stroke="#191970" d="M68.3218,-152.8248C81.8137,-174.7605 117.4191,-228.0642 161,-257 164.072,-259.0396 167.3796,-260.8747 170.8033,-262.5234"/>
<polygon fill="#191970" stroke="#191970" points="169.4838,-265.7656 180.0556,-266.4642 172.227,-259.3254 169.4838,-265.7656"/>
</g>
<!-- Node98 -->
<g id="node4" class="node">
<title>Node98</title>
<g id="a_node4"><a xlink:href="lib_2heatshrink_2heatshrink__decoder_8c.html#a08294207999dc2384621c16c1bb65067" target="_top" xlink:title="st_backref_count_msb">
<polygon fill="#ffffff" stroke="#000000" points="161,-228.5 161,-247.5 278,-247.5 278,-228.5 161,-228.5"/>
<text text-anchor="middle" x="219.5" y="-235.5" font-family="Helvetica,sans-Serif" font-size="10.00" fill="#000000">st_backref_count_msb</text>
</a>
</g>
</g>
<!-- Node95&#45;&gt;Node98 -->
<g id="edge3" class="edge">
<title>Node95&#45;&gt;Node98</title>
<path fill="none" stroke="#191970" d="M72.5969,-152.7336C89.572,-168.6256 125.4698,-200.2489 161,-219 165.0403,-221.1323 169.3639,-223.0825 173.7633,-224.8519"/>
<polygon fill="#191970" stroke="#191970" points="172.842,-228.2431 183.4351,-228.4374 175.2752,-221.6796 172.842,-228.2431"/>
</g>
<!-- Node99 -->
<g id="node5" class="node">
<title>Node99</title>
<g id="a_node5"><a xlink:href="lib_2heatshrink_2heatshrink__decoder_8c.html#a0ea3d84c49c6d5d58ebcbd8a5e58ebb9" target="_top" xlink:title="st_backref_index_lsb">
<polygon fill="#ffffff" stroke="#000000" points="164.5,-190.5 164.5,-209.5 274.5,-209.5 274.5,-190.5 164.5,-190.5"/>
<text text-anchor="middle" x="219.5" y="-197.5" font-family="Helvetica,sans-Serif" font-size="10.00" fill="#000000">st_backref_index_lsb</text>
</a>
</g>
</g>
<!-- Node95&#45;&gt;Node99 -->
<g id="edge5" class="edge">
<title>Node95&#45;&gt;Node99</title>
<path fill="none" stroke="#191970" d="M86.2501,-152.5778C106.1177,-160.4896 135.2632,-171.8636 161,-181 166.9436,-183.1099 173.2585,-185.2576 179.4571,-187.3134"/>
<polygon fill="#191970" stroke="#191970" points="178.4391,-190.6628 189.0318,-190.4494 180.618,-184.0106 178.4391,-190.6628"/>
</g>
<!-- Node100 -->
<g id="node6" class="node">
<title>Node100</title>
<g id="a_node6"><a xlink:href="lib_2heatshrink_2heatshrink__decoder_8c.html#acbbb14ff7fd1dbf3b1dbed247bf75527" target="_top" xlink:title="st_backref_index_msb">
<polygon fill="#ffffff" stroke="#000000" points="161,-152.5 161,-171.5 278,-171.5 278,-152.5 161,-152.5"/>
<text text-anchor="middle" x="219.5" y="-159.5" font-family="Helvetica,sans-Serif" font-size="10.00" fill="#000000">st_backref_index_msb</text>
</a>
</g>
</g>
<!-- Node95&#45;&gt;Node100 -->
<g id="edge7" class="edge">
<title>Node95&#45;&gt;Node100</title>
<path fill="none" stroke="#191970" d="M125.0017,-150.5639C133.4834,-151.5903 142.2254,-152.6483 150.8084,-153.687"/>
<polygon fill="#191970" stroke="#191970" points="150.438,-157.1676 160.7861,-154.8945 151.279,-150.2183 150.438,-157.1676"/>
</g>
<!-- Node101 -->
<g id="node7" class="node">
<title>Node101</title>
<g id="a_node7"><a xlink:href="lib_2heatshrink_2heatshrink__decoder_8c.html#aa81f6e23fbbcab298a99901f6ac96be5" target="_top" xlink:title="st_check_for_input">
<polygon fill="#ffffff" stroke="#000000" points="169.5,-114.5 169.5,-133.5 269.5,-133.5 269.5,-114.5 169.5,-114.5"/>
<text text-anchor="middle" x="219.5" y="-121.5" font-family="Helvetica,sans-Serif" font-size="10.00" fill="#000000">st_check_for_input</text>
</a>
</g>
</g>
<!-- Node95&#45;&gt;Node101 -->
<g id="edge9" class="edge">
<title>Node95&#45;&gt;Node101</title>
<path fill="none" stroke="#191970" d="M125.0017,-135.4361C136.2626,-134.0733 147.9821,-132.655 159.1795,-131.2999"/>
<polygon fill="#191970" stroke="#191970" points="159.7808,-134.7528 169.2879,-130.0766 158.9398,-127.8035 159.7808,-134.7528"/>
</g>
<!-- Node102 -->
<g id="node8" class="node">
<title>Node102</title>
<g id="a_node8"><a xlink:href="lib_2heatshrink_2heatshrink__decoder_8c.html#a0858d88346ae241191721e41494dbfa6" target="_top" xlink:title="st_input_available">
<polygon fill="#ffffff" stroke="#000000" points="171,-76.5 171,-95.5 268,-95.5 268,-76.5 171,-76.5"/>
<text text-anchor="middle" x="219.5" y="-83.5" font-family="Helvetica,sans-Serif" font-size="10.00" fill="#000000">st_input_available</text>
</a>
</g>
</g>
<!-- Node95&#45;&gt;Node102 -->
<g id="edge10" class="edge">
<title>Node95&#45;&gt;Node102</title>
<path fill="none" stroke="#191970" d="M86.2501,-133.4222C106.1177,-125.5104 135.2632,-114.1364 161,-105 166.9436,-102.8901 173.2585,-100.7424 179.4571,-98.6866"/>
<polygon fill="#191970" stroke="#191970" points="180.618,-101.9894 189.0318,-95.5506 178.4391,-95.3372 180.618,-101.9894"/>
</g>
<!-- Node103 -->
<g id="node9" class="node">
<title>Node103</title>
<g id="a_node9"><a xlink:href="lib_2heatshrink_2heatshrink__decoder_8c.html#a295f09b8bfcb31ba0310a987da76c58f" target="_top" xlink:title="st_yield_backref">
<polygon fill="#ffffff" stroke="#000000" points="175,-.5 175,-19.5 264,-19.5 264,-.5 175,-.5"/>
<text text-anchor="middle" x="219.5" y="-7.5" font-family="Helvetica,sans-Serif" font-size="10.00" fill="#000000">st_yield_backref</text>
</a>
</g>
</g>
<!-- Node95&#45;&gt;Node103 -->
<g id="edge12" class="edge">
<title>Node95&#45;&gt;Node103</title>
<path fill="none" stroke="#191970" d="M68.3218,-133.1752C81.8137,-111.2395 117.4191,-57.9358 161,-29 164.072,-26.9604 167.3796,-25.1253 170.8033,-23.4766"/>
<polygon fill="#191970" stroke="#191970" points="172.227,-26.6746 180.0556,-19.5358 169.4838,-20.2344 172.227,-26.6746"/>
</g>
<!-- Node105 -->
<g id="node11" class="node">
<title>Node105</title>
<g id="a_node11"><a xlink:href="lib_2heatshrink_2heatshrink__decoder_8c.html#a1de759afe6bc945fb1fa83b64aae29b2" target="_top" xlink:title="st_yield_literal">
<polygon fill="#ffffff" stroke="#000000" points="179.5,-38.5 179.5,-57.5 259.5,-57.5 259.5,-38.5 179.5,-38.5"/>
<text text-anchor="middle" x="219.5" y="-45.5" font-family="Helvetica,sans-Serif" font-size="10.00" fill="#000000">st_yield_literal</text>
</a>
</g>
</g>
<!-- Node95&#45;&gt;Node105 -->
<g id="edge14" class="edge">
<title>Node95&#45;&gt;Node105</title>
<path fill="none" stroke="#191970" d="M72.5969,-133.2664C89.572,-117.3744 125.4698,-85.7511 161,-67 165.0403,-64.8677 169.3639,-62.9175 173.7633,-61.1481"/>
<polygon fill="#191970" stroke="#191970" points="175.2752,-64.3204 183.4351,-57.5626 172.842,-57.7569 175.2752,-64.3204"/>
</g>
<!-- Node97 -->
<g id="node3" class="node">
<title>Node97</title>
<g id="a_node3"><a xlink:href="lib_2heatshrink_2heatshrink__decoder_8c.html#a63d6ed11f8d99df2898ad9f8b3ea7234" target="_top" xlink:title="get_bits">
<polygon fill="#ffffff" stroke="#000000" points="319.5,-171.5 319.5,-190.5 371.5,-190.5 371.5,-171.5 319.5,-171.5"/>
<text text-anchor="middle" x="345.5" y="-178.5" font-family="Helvetica,sans-Serif" font-size="10.00" fill="#000000">get_bits</text>
</a>
</g>
</g>
<!-- Node96&#45;&gt;Node97 -->
<g id="edge2" class="edge">
<title>Node96&#45;&gt;Node97</title>
<path fill="none" stroke="#191970" d="M258.9008,-266.3982C265.5611,-263.8949 272.1914,-260.7998 278,-257 301.3011,-241.7572 321.5207,-216.4338 333.606,-199.2461"/>
<polygon fill="#191970" stroke="#191970" points="336.7223,-200.8875 339.451,-190.65 330.9338,-196.9514 336.7223,-200.8875"/>
</g>
<!-- Node98&#45;&gt;Node97 -->
<g id="edge4" class="edge">
<title>Node98&#45;&gt;Node97</title>
<path fill="none" stroke="#191970" d="M252.7254,-228.4745C261.0974,-225.7311 269.9812,-222.5176 278,-219 293.0632,-212.3923 309.1412,-203.4241 321.8257,-195.8595"/>
<polygon fill="#191970" stroke="#191970" points="323.6684,-198.8354 330.3992,-190.6532 320.0351,-192.8521 323.6684,-198.8354"/>
</g>
<!-- Node99&#45;&gt;Node97 -->
<g id="edge6" class="edge">
<title>Node99&#45;&gt;Node97</title>
<path fill="none" stroke="#191970" d="M274.7654,-191.6663C286.4908,-189.8982 298.579,-188.0754 309.3723,-186.4478"/>
<polygon fill="#191970" stroke="#191970" points="309.9033,-189.9074 319.2696,-184.9554 308.8594,-182.9857 309.9033,-189.9074"/>
</g>
<!-- Node100&#45;&gt;Node97 -->
<g id="edge8" class="edge">
<title>Node100&#45;&gt;Node97</title>
<path fill="none" stroke="#191970" d="M278.0736,-170.8325C288.7397,-172.4409 299.5758,-174.0749 309.351,-175.549"/>
<polygon fill="#191970" stroke="#191970" points="309.0733,-179.0466 319.4835,-177.0769 310.1172,-172.1248 309.0733,-179.0466"/>
</g>
<!-- Node102&#45;&gt;Node97 -->
<g id="edge11" class="edge">
<title>Node102&#45;&gt;Node97</title>
<path fill="none" stroke="#191970" d="M258.9008,-95.6018C265.5611,-98.1051 272.1914,-101.2002 278,-105 301.3011,-120.2428 321.5207,-145.5662 333.606,-162.7539"/>
<polygon fill="#191970" stroke="#191970" points="330.9338,-165.0486 339.451,-171.35 336.7223,-161.1125 330.9338,-165.0486"/>
</g>
<!-- Node104 -->
<g id="node10" class="node">
<title>Node104</title>
<g id="a_node10"><a xlink:href="lib_2heatshrink_2heatshrink__decoder_8c.html#aa3cfafc3c68369e81aa88c97092bc631" target="_top" xlink:title="push_byte">
<polygon fill="#ffffff" stroke="#000000" points="314,-19.5 314,-38.5 377,-38.5 377,-19.5 314,-19.5"/>
<text text-anchor="middle" x="345.5" y="-26.5" font-family="Helvetica,sans-Serif" font-size="10.00" fill="#000000">push_byte</text>
</a>
</g>
</g>
<!-- Node103&#45;&gt;Node104 -->
<g id="edge13" class="edge">
<title>Node103&#45;&gt;Node104</title>
<path fill="none" stroke="#191970" d="M264.2777,-16.7522C277.0983,-18.6855 291.0205,-20.7848 303.6577,-22.6904"/>
<polygon fill="#191970" stroke="#191970" points="303.5082,-26.2074 313.9183,-24.2377 304.552,-19.2856 303.5082,-26.2074"/>
</g>
<!-- Node105&#45;&gt;Node97 -->
<g id="edge15" class="edge">
<title>Node105&#45;&gt;Node97</title>
<path fill="none" stroke="#191970" d="M259.5524,-56.7029C266.1434,-59.3019 272.5816,-62.6619 278,-67 309.5787,-92.2826 329.6265,-136.6326 339.0825,-161.918"/>
<polygon fill="#191970" stroke="#191970" points="335.835,-163.2317 342.4893,-171.4761 342.4287,-160.8815 335.835,-163.2317"/>
</g>
<!-- Node105&#45;&gt;Node104 -->
<g id="edge16" class="edge">
<title>Node105&#45;&gt;Node104</title>
<path fill="none" stroke="#191970" d="M259.7136,-41.936C273.7386,-39.8212 289.5048,-37.4437 303.6589,-35.3094"/>
<polygon fill="#191970" stroke="#191970" points="304.2661,-38.7575 313.6324,-33.8054 303.2223,-31.8357 304.2661,-38.7575"/>
</g>
</g>
</svg>
