<?xml version="1.0" encoding="UTF-8" standalone="no"?>
<!DOCTYPE svg PUBLIC "-//W3C//DTD SVG 1.1//EN"
 "http://www.w3.org/Graphics/SVG/1.1/DTD/svg11.dtd">
<!-- Generated by graphviz version 2.39.20160927.1334 (20160927.1334)
 -->
<!-- Title: save_backlog Pages: 1 -->
<svg width="234pt" height="66pt"
 viewBox="0.00 0.00 234.00 66.00" xmlns="http://www.w3.org/2000/svg" xmlns:xlink="http://www.w3.org/1999/xlink">
<g id="graph0" class="graph" transform="scale(1 1) rotate(0) translate(4 62)">
<title>save_backlog</title>
<polygon fill="#ffffff" stroke="transparent" points="-4,4 -4,-62 230,-62 230,4 -4,4"/>
<!-- Node1 -->
<g id="node1" class="node">
<title>Node1</title>
<polygon fill="#bfbfbf" stroke="#000000" points="0,-19.5 0,-38.5 78,-38.5 78,-19.5 0,-19.5"/>
<text text-anchor="middle" x="39" y="-26.5" font-family="Helvetica,sans-Serif" font-size="10.00" fill="#000000">save_backlog</text>
</g>
<!-- Node2 -->
<g id="node2" class="node">
<title>Node2</title>
<g id="a_node2"><a xlink:href="heatshrink__encoder_8c.html#a52bfbd33b20249a9f61813fc28c64e57" target="_top" xlink:title="backlog_is_partial">
<polygon fill="#ffffff" stroke="#000000" points="121.5,-38.5 121.5,-57.5 218.5,-57.5 218.5,-38.5 121.5,-38.5"/>
<text text-anchor="middle" x="170" y="-45.5" font-family="Helvetica,sans-Serif" font-size="10.00" fill="#000000">backlog_is_partial</text>
</a>
</g>
</g>
<!-- Node1&#45;&gt;Node2 -->
<g id="edge1" class="edge">
<title>Node1&#45;&gt;Node2</title>
<path fill="none" stroke="#191970" d="M78.3043,-34.7006C88.6906,-36.207 100.129,-37.866 111.301,-39.4863"/>
<polygon fill="#191970" stroke="#191970" points="111.048,-42.9863 121.447,-40.958 112.053,-36.0588 111.048,-42.9863"/>
</g>
<!-- Node3 -->
<g id="node3" class="node">
<title>Node3</title>
<g id="a_node3"><a xlink:href="heatshrink__encoder_8c.html#a9b311bf2b76215ba61eb648d970a5f11" target="_top" xlink:title="get_input_buffer_size">
<polygon fill="#ffffff" stroke="#000000" points="114,-0.5 114,-19.5 226,-19.5 226,-0.5 114,-0.5"/>
<text text-anchor="middle" x="170" y="-7.5" font-family="Helvetica,sans-Serif" font-size="10.00" fill="#000000">get_input_buffer_size</text>
</a>
</g>
</g>
<!-- Node1&#45;&gt;Node3 -->
<g id="edge2" class="edge">
<title>Node1&#45;&gt;Node3</title>
<path fill="none" stroke="#191970" d="M78.3043,-23.2994C86.3213,-22.1366 94.9651,-20.8829 103.629,-19.6263"/>
<polygon fill="#191970" stroke="#191970" points="104.379,-23.0543 113.773,-18.155 103.374,-16.1267 104.379,-23.0543"/>
</g>
</g>
</svg>
