<?xml version="1.0" encoding="UTF-8" standalone="no"?>
<!DOCTYPE svg PUBLIC "-//W3C//DTD SVG 1.1//EN"
 "http://www.w3.org/Graphics/SVG/1.1/DTD/svg11.dtd">
<!-- Generated by graphviz version 2.39.20160927.1334 (20160927.1334)
 -->
<!-- Title: lib/heatshrink/heatshrink_encoder.h Pages: 1 -->
<svg width="315pt" height="95pt"
 viewBox="0.00 0.00 314.50 95.00" xmlns="http://www.w3.org/2000/svg" xmlns:xlink="http://www.w3.org/1999/xlink">
<g id="graph0" class="graph" transform="scale(1 1) rotate(0) translate(4 91)">
<title>lib/heatshrink/heatshrink_encoder.h</title>
<polygon fill="#ffffff" stroke="transparent" points="-4,4 -4,-91 310.5,-91 310.5,4 -4,4"/>
<!-- Node1 -->
<g id="node1" class="node">
<title>Node1</title>
<polygon fill="#bfbfbf" stroke="#000000" points="66,-56.5 66,-86.5 190,-86.5 190,-56.5 66,-56.5"/>
<text text-anchor="start" x="74" y="-74.5" font-family="Helvetica,sans-Serif" font-size="10.00" fill="#000000">lib/heatshrink/heatshrink</text>
<text text-anchor="middle" x="128" y="-63.5" font-family="Helvetica,sans-Serif" font-size="10.00" fill="#000000">_encoder.h</text>
</g>
<!-- Node2 -->
<g id="node2" class="node">
<title>Node2</title>
<polygon fill="#ffffff" stroke="#bfbfbf" points="0,-0.5 0,-19.5 52,-19.5 52,-0.5 0,-0.5"/>
<text text-anchor="middle" x="26" y="-7.5" font-family="Helvetica,sans-Serif" font-size="10.00" fill="#000000">stddef.h</text>
</g>
<!-- Node1&#45;&gt;Node2 -->
<g id="edge1" class="edge">
<title>Node1&#45;&gt;Node2</title>
<path fill="none" stroke="#191970" d="M103.048,-56.4554C87.0741,-46.8241 66.4398,-34.3828 50.5457,-24.7996"/>
<polygon fill="#191970" stroke="#191970" points="52.1774,-21.6965 41.8064,-19.5303 48.563,-27.6912 52.1774,-21.6965"/>
</g>
<!-- Node3 -->
<g id="node3" class="node">
<title>Node3</title>
<g id="a_node3"><a xlink:href="heatshrink__common_8h.html" target="_top" xlink:title="heatshrink_common.h">
<polygon fill="#ffffff" stroke="#000000" points="70.5,-0.5 70.5,-19.5 185.5,-19.5 185.5,-0.5 70.5,-0.5"/>
<text text-anchor="middle" x="128" y="-7.5" font-family="Helvetica,sans-Serif" font-size="10.00" fill="#000000">heatshrink_common.h</text>
</a>
</g>
</g>
<!-- Node1&#45;&gt;Node3 -->
<g id="edge2" class="edge">
<title>Node1&#45;&gt;Node3</title>
<path fill="none" stroke="#191970" d="M128,-56.2977C128,-48.3834 128,-38.6043 128,-30.0759"/>
<polygon fill="#191970" stroke="#191970" points="131.5,-29.8469 128,-19.8469 124.5,-29.847 131.5,-29.8469"/>
</g>
<!-- Node4 -->
<g id="node4" class="node">
<title>Node4</title>
<g id="a_node4"><a xlink:href="heatshrink__config_8h.html" target="_top" xlink:title="heatshrink_config.h">
<polygon fill="#ffffff" stroke="#000000" points="203.5,-0.5 203.5,-19.5 306.5,-19.5 306.5,-0.5 203.5,-0.5"/>
<text text-anchor="middle" x="255" y="-7.5" font-family="Helvetica,sans-Serif" font-size="10.00" fill="#000000">heatshrink_config.h</text>
</a>
</g>
</g>
<!-- Node1&#45;&gt;Node4 -->
<g id="edge3" class="edge">
<title>Node1&#45;&gt;Node4</title>
<path fill="none" stroke="#191970" d="M159.068,-56.4554C179.514,-46.554 206.094,-33.683 226.089,-24.0004"/>
<polygon fill="#191970" stroke="#191970" points="227.845,-27.0388 235.32,-19.5303 224.794,-20.7387 227.845,-27.0388"/>
</g>
</g>
</svg>
