<?xml version="1.0" encoding="UTF-8" standalone="no"?>
<!DOCTYPE svg PUBLIC "-//W3C//DTD SVG 1.1//EN"
 "http://www.w3.org/Graphics/SVG/1.1/DTD/svg11.dtd">
<!-- Generated by graphviz version 2.39.20160927.1334 (20160927.1334)
 -->
<!-- Title: is_finishing Pages: 1 -->
<svg width="853pt" height="761pt"
 viewBox="0.00 0.00 853.00 760.50" xmlns="http://www.w3.org/2000/svg" xmlns:xlink="http://www.w3.org/1999/xlink">
<g id="graph0" class="graph" transform="scale(1 1) rotate(0) translate(4 756.5)">
<title>is_finishing</title>
<polygon fill="#ffffff" stroke="transparent" points="-4,4 -4,-756.5 849,-756.5 849,4 -4,4"/>
<!-- Node1 -->
<g id="node1" class="node">
<title>Node1</title>
<polygon fill="#bfbfbf" stroke="#000000" points="0,-418 0,-437 66,-437 66,-418 0,-418"/>
<text text-anchor="middle" x="33" y="-425" font-family="Helvetica,sans-Serif" font-size="10.00" fill="#000000">is_finishing</text>
</g>
<!-- Node2 -->
<g id="node2" class="node">
<title>Node2</title>
<g id="a_node2"><a xlink:href="heatshrink__encoder_8h.html#aa1a92f13d1ef65546bb40ece94b2066e" target="_top" xlink:title="heatshrink_encoder_sink">
<polygon fill="#ffffff" stroke="#000000" points="229,-351 229,-370 357,-370 357,-351 229,-351"/>
<text text-anchor="middle" x="293" y="-358" font-family="Helvetica,sans-Serif" font-size="10.00" fill="#000000">heatshrink_encoder_sink</text>
</a>
</g>
</g>
<!-- Node1&#45;&gt;Node2 -->
<g id="edge1" class="edge">
<title>Node1&#45;&gt;Node2</title>
<path fill="none" stroke="#191970" d="M76.1279,-415.464C84.6911,-413.119 93.6229,-410.706 102,-408.5 154.406,-394.701 215.136,-379.589 253.793,-370.08"/>
<polygon fill="#191970" stroke="#191970" points="75.0133,-412.14 66.3001,-418.168 76.8703,-418.889 75.0133,-412.14"/>
</g>
<!-- Node27 -->
<g id="node27" class="node">
<title>Node27</title>
<g id="a_node27"><a xlink:href="heatshrink__encoder_8c.html#ac2fd6f71c2f249ebc292fd45fbd83b65" target="_top" xlink:title="st_save_backlog">
<polygon fill="#ffffff" stroke="#000000" points="102,-418 102,-437 193,-437 193,-418 102,-418"/>
<text text-anchor="middle" x="147.5" y="-425" font-family="Helvetica,sans-Serif" font-size="10.00" fill="#000000">st_save_backlog</text>
</a>
</g>
</g>
<!-- Node1&#45;&gt;Node27 -->
<g id="edge40" class="edge">
<title>Node1&#45;&gt;Node27</title>
<path fill="none" stroke="#191970" d="M76.3352,-427.5C84.6208,-427.5 93.3204,-427.5 101.681,-427.5"/>
<polygon fill="#191970" stroke="#191970" points="76.1182,-424 66.1181,-427.5 76.1181,-431 76.1182,-424"/>
</g>
<!-- Node31 -->
<g id="node31" class="node">
<title>Node31</title>
<g id="a_node31"><a xlink:href="heatshrink__encoder_8c.html#a8e16d6d715ab36d730a793591afe2324" target="_top" xlink:title="st_step_search">
<polygon fill="#ffffff" stroke="#000000" points="105.5,-456 105.5,-475 189.5,-475 189.5,-456 105.5,-456"/>
<text text-anchor="middle" x="147.5" y="-463" font-family="Helvetica,sans-Serif" font-size="10.00" fill="#000000">st_step_search</text>
</a>
</g>
</g>
<!-- Node1&#45;&gt;Node31 -->
<g id="edge55" class="edge">
<title>Node1&#45;&gt;Node31</title>
<path fill="none" stroke="#191970" d="M71.6465,-440.326C87.01,-445.425 104.379,-451.189 118.616,-455.914"/>
<polygon fill="#191970" stroke="#191970" points="72.4866,-436.917 61.8932,-437.089 70.2817,-443.561 72.4866,-436.917"/>
</g>
<!-- Node3 -->
<g id="node3" class="node">
<title>Node3</title>
<g id="a_node3"><a xlink:href="heatshrink_8c.html#a593e86bba4eca0be280740fcf509bc12" target="_top" xlink:title="encoder_sink_read">
<polygon fill="#ffffff" stroke="#000000" points="417.5,-679 417.5,-698 519.5,-698 519.5,-679 417.5,-679"/>
<text text-anchor="middle" x="468.5" y="-686" font-family="Helvetica,sans-Serif" font-size="10.00" fill="#000000">encoder_sink_read</text>
</a>
</g>
</g>
<!-- Node2&#45;&gt;Node3 -->
<g id="edge2" class="edge">
<title>Node2&#45;&gt;Node3</title>
<path fill="none" stroke="#191970" d="M309.785,-377.693C324.68,-394.012 345.77,-419.931 357,-446.5 396.087,-538.973 325.146,-595.508 393,-669.5 399.486,-676.573 408.182,-681.184 417.363,-684.155"/>
<polygon fill="#191970" stroke="#191970" points="312.04,-374.981 302.646,-370.082 306.934,-379.77 312.04,-374.981"/>
</g>
<!-- Node6 -->
<g id="node6" class="node">
<title>Node6</title>
<g id="a_node6"><a xlink:href="test__heatshrink__dynamic_8c.html#a9b30a495760400a59637e7d708e63ae0" target="_top" xlink:title="encoder_sink_should\l_reject_nulls">
<polygon fill="#ffffff" stroke="#000000" points="413,-0.5 413,-30.5 524,-30.5 524,-0.5 413,-0.5"/>
<text text-anchor="start" x="421" y="-18.5" font-family="Helvetica,sans-Serif" font-size="10.00" fill="#000000">encoder_sink_should</text>
<text text-anchor="middle" x="468.5" y="-7.5" font-family="Helvetica,sans-Serif" font-size="10.00" fill="#000000">_reject_nulls</text>
</a>
</g>
</g>
<!-- Node2&#45;&gt;Node6 -->
<g id="edge5" class="edge">
<title>Node2&#45;&gt;Node6</title>
<path fill="none" stroke="#191970" d="M296.717,-340.808C308.907,-278.14 349.396,-84.8458 393,-40.5 398.615,-34.7896 405.561,-30.3835 412.947,-26.9838"/>
<polygon fill="#191970" stroke="#191970" points="293.223,-340.444 294.776,-350.925 300.098,-341.763 293.223,-340.444"/>
</g>
<!-- Node8 -->
<g id="node8" class="node">
<title>Node8</title>
<g id="a_node8"><a xlink:href="test__heatshrink__dynamic_8c.html#a1c4dab770a7df0935018c3a685f5b1ff" target="_top" xlink:title="encoder_sink_should\l_accept_input_when_it\l_will_fit">
<polygon fill="#ffffff" stroke="#000000" points="409,-110 409,-151 528,-151 528,-110 409,-110"/>
<text text-anchor="start" x="417" y="-139" font-family="Helvetica,sans-Serif" font-size="10.00" fill="#000000">encoder_sink_should</text>
<text text-anchor="start" x="417" y="-128" font-family="Helvetica,sans-Serif" font-size="10.00" fill="#000000">_accept_input_when_it</text>
<text text-anchor="middle" x="468.5" y="-117" font-family="Helvetica,sans-Serif" font-size="10.00" fill="#000000">_will_fit</text>
</a>
</g>
</g>
<!-- Node2&#45;&gt;Node8 -->
<g id="edge7" class="edge">
<title>Node2&#45;&gt;Node8</title>
<path fill="none" stroke="#191970" d="M297.73,-340.935C308.223,-301.498 337.061,-211.854 393,-160.5 397.676,-156.208 403.04,-152.497 408.707,-149.297"/>
<polygon fill="#191970" stroke="#191970" points="294.332,-340.098 295.25,-350.653 301.114,-341.829 294.332,-340.098"/>
</g>
<!-- Node9 -->
<g id="node9" class="node">
<title>Node9</title>
<g id="a_node9"><a xlink:href="test__heatshrink__dynamic_8c.html#a73ee2ec6f21d5e0ce0e34902a1aebccb" target="_top" xlink:title="encoder_sink_should\l_accept_partial_input\l_when_some_will_fit">
<polygon fill="#ffffff" stroke="#000000" points="412.5,-50 412.5,-91 524.5,-91 524.5,-50 412.5,-50"/>
<text text-anchor="start" x="420.5" y="-79" font-family="Helvetica,sans-Serif" font-size="10.00" fill="#000000">encoder_sink_should</text>
<text text-anchor="start" x="420.5" y="-68" font-family="Helvetica,sans-Serif" font-size="10.00" fill="#000000">_accept_partial_input</text>
<text text-anchor="middle" x="468.5" y="-57" font-family="Helvetica,sans-Serif" font-size="10.00" fill="#000000">_when_some_will_fit</text>
</a>
</g>
</g>
<!-- Node2&#45;&gt;Node9 -->
<g id="edge9" class="edge">
<title>Node2&#45;&gt;Node9</title>
<path fill="none" stroke="#191970" d="M295.187,-340.805C301.489,-293.143 323.893,-170.375 393,-100.5 398.554,-94.8841 405.291,-90.2897 412.428,-86.5385"/>
<polygon fill="#191970" stroke="#191970" points="291.711,-340.402 293.966,-350.754 298.658,-341.255 291.711,-340.402"/>
</g>
<!-- Node10 -->
<g id="node10" class="node">
<title>Node10</title>
<g id="a_node10"><a xlink:href="test__heatshrink__dynamic_8c.html#a5339595930b85317e810fcf251b86351" target="_top" xlink:title="encoder_should_emit\l_data_without_repetitions\l_as_literal_sequence">
<polygon fill="#ffffff" stroke="#000000" points="403.5,-170 403.5,-211 533.5,-211 533.5,-170 403.5,-170"/>
<text text-anchor="start" x="411.5" y="-199" font-family="Helvetica,sans-Serif" font-size="10.00" fill="#000000">encoder_should_emit</text>
<text text-anchor="start" x="411.5" y="-188" font-family="Helvetica,sans-Serif" font-size="10.00" fill="#000000">_data_without_repetitions</text>
<text text-anchor="middle" x="468.5" y="-177" font-family="Helvetica,sans-Serif" font-size="10.00" fill="#000000">_as_literal_sequence</text>
</a>
</g>
</g>
<!-- Node2&#45;&gt;Node10 -->
<g id="edge11" class="edge">
<title>Node2&#45;&gt;Node10</title>
<path fill="none" stroke="#191970" d="M301.946,-341.68C316.904,-312.056 349.666,-254.437 393,-220.5 397.442,-217.021 402.339,-213.897 407.44,-211.102"/>
<polygon fill="#191970" stroke="#191970" points="298.682,-340.388 297.41,-350.906 304.963,-343.476 298.682,-340.388"/>
</g>
<!-- Node11 -->
<g id="node11" class="node">
<title>Node11</title>
<g id="a_node11"><a xlink:href="test__heatshrink__dynamic_8c.html#ae27157a664552fa0744d095239ee0d88" target="_top" xlink:title="encoder_should_emit\l_series_of_same_byte\l_as_literal_then_backref">
<polygon fill="#ffffff" stroke="#000000" points="406,-340 406,-381 531,-381 531,-340 406,-340"/>
<text text-anchor="start" x="414" y="-369" font-family="Helvetica,sans-Serif" font-size="10.00" fill="#000000">encoder_should_emit</text>
<text text-anchor="start" x="414" y="-358" font-family="Helvetica,sans-Serif" font-size="10.00" fill="#000000">_series_of_same_byte</text>
<text text-anchor="middle" x="468.5" y="-347" font-family="Helvetica,sans-Serif" font-size="10.00" fill="#000000">_as_literal_then_backref</text>
</a>
</g>
</g>
<!-- Node2&#45;&gt;Node11 -->
<g id="edge13" class="edge">
<title>Node2&#45;&gt;Node11</title>
<path fill="none" stroke="#191970" d="M367.507,-360.5C380.298,-360.5 393.473,-360.5 405.911,-360.5"/>
<polygon fill="#191970" stroke="#191970" points="367.353,-357 357.353,-360.5 367.353,-364 367.353,-357"/>
</g>
<!-- Node12 -->
<g id="node12" class="node">
<title>Node12</title>
<g id="a_node12"><a xlink:href="test__heatshrink__dynamic_8c.html#a2d84dd546b011bb6cfc3b1e9a9a5616b" target="_top" xlink:title="encoder_poll_should\l_detect_repeated_substring">
<polygon fill="#ffffff" stroke="#000000" points="398.5,-290.5 398.5,-320.5 538.5,-320.5 538.5,-290.5 398.5,-290.5"/>
<text text-anchor="start" x="406.5" y="-308.5" font-family="Helvetica,sans-Serif" font-size="10.00" fill="#000000">encoder_poll_should</text>
<text text-anchor="middle" x="468.5" y="-297.5" font-family="Helvetica,sans-Serif" font-size="10.00" fill="#000000">_detect_repeated_substring</text>
</a>
</g>
</g>
<!-- Node2&#45;&gt;Node12 -->
<g id="edge15" class="edge">
<title>Node2&#45;&gt;Node12</title>
<path fill="none" stroke="#191970" d="M333.443,-347.826C359.363,-339.702 393.138,-329.118 420.428,-320.565"/>
<polygon fill="#191970" stroke="#191970" points="332.065,-344.589 323.57,-350.92 334.159,-351.269 332.065,-344.589"/>
</g>
<!-- Node13 -->
<g id="node13" class="node">
<title>Node13</title>
<g id="a_node13"><a xlink:href="test__heatshrink__dynamic_8c.html#ab068727669a416029bacc708b2aac5ac" target="_top" xlink:title="encoder_poll_should\l_detect_repeated_substring\l_and_preserve_trailing_literal">
<polygon fill="#ffffff" stroke="#000000" points="394.5,-230 394.5,-271 542.5,-271 542.5,-230 394.5,-230"/>
<text text-anchor="start" x="402.5" y="-259" font-family="Helvetica,sans-Serif" font-size="10.00" fill="#000000">encoder_poll_should</text>
<text text-anchor="start" x="402.5" y="-248" font-family="Helvetica,sans-Serif" font-size="10.00" fill="#000000">_detect_repeated_substring</text>
<text text-anchor="middle" x="468.5" y="-237" font-family="Helvetica,sans-Serif" font-size="10.00" fill="#000000">_and_preserve_trailing_literal</text>
</a>
</g>
</g>
<!-- Node2&#45;&gt;Node13 -->
<g id="edge17" class="edge">
<title>Node2&#45;&gt;Node13</title>
<path fill="none" stroke="#191970" d="M310.379,-343.909C329.449,-326.374 361.548,-298.78 393,-280.5 398.731,-277.169 404.903,-274.05 411.16,-271.177"/>
<polygon fill="#191970" stroke="#191970" points="307.969,-341.37 303.044,-350.751 312.744,-346.489 307.969,-341.37"/>
</g>
<!-- Node14 -->
<g id="node14" class="node">
<title>Node14</title>
<g id="a_node14"><a xlink:href="test__heatshrink__dynamic_8c.html#a6627d0e00f7e636ae9294cc6255c7ffd" target="_top" xlink:title="gen">
<polygon fill="#ffffff" stroke="#000000" points="452,-717 452,-736 485,-736 485,-717 452,-717"/>
<text text-anchor="middle" x="468.5" y="-724" font-family="Helvetica,sans-Serif" font-size="10.00" fill="#000000">gen</text>
</a>
</g>
</g>
<!-- Node2&#45;&gt;Node14 -->
<g id="edge19" class="edge">
<title>Node2&#45;&gt;Node14</title>
<path fill="none" stroke="#191970" d="M309.928,-377.634C324.922,-393.911 346.076,-419.804 357,-446.5 401.348,-554.876 314.853,-620.293 393,-707.5 407.793,-724.008 434.618,-727.163 451.988,-727.298"/>
<polygon fill="#191970" stroke="#191970" points="312.155,-374.896 302.736,-370.045 307.074,-379.711 312.155,-374.896"/>
</g>
<!-- Node16 -->
<g id="node16" class="node">
<title>Node16</title>
<g id="a_node16"><a xlink:href="test__heatshrink__dynamic_8c.html#ab9096be17a9dc8f301673949558e5bd6" target="_top" xlink:title="compress_and_expand\l_and_check">
<polygon fill="#ffffff" stroke="#000000" points="408.5,-509.5 408.5,-539.5 528.5,-539.5 528.5,-509.5 408.5,-509.5"/>
<text text-anchor="start" x="416.5" y="-527.5" font-family="Helvetica,sans-Serif" font-size="10.00" fill="#000000">compress_and_expand</text>
<text text-anchor="middle" x="468.5" y="-516.5" font-family="Helvetica,sans-Serif" font-size="10.00" fill="#000000">_and_check</text>
</a>
</g>
</g>
<!-- Node2&#45;&gt;Node16 -->
<g id="edge21" class="edge">
<title>Node2&#45;&gt;Node16</title>
<path fill="none" stroke="#191970" d="M306.578,-378.276C319.691,-395.552 340.007,-422.607 357,-446.5 373.504,-469.705 370.279,-482.336 393,-499.5 398.068,-503.328 403.752,-506.588 409.668,-509.36"/>
<polygon fill="#191970" stroke="#191970" points="309.274,-376.039 300.433,-370.201 303.704,-380.279 309.274,-376.039"/>
</g>
<!-- Node25 -->
<g id="node25" class="node">
<title>Node25</title>
<g id="a_node25"><a xlink:href="test__heatshrink__dynamic_8c.html#a9a102029b8375d4050406a2814f390ac" target="_top" xlink:title="data_without_duplication\l_should_match_with_absurdly\l_tiny_buffers">
<polygon fill="#ffffff" stroke="#000000" points="393,-619 393,-660 544,-660 544,-619 393,-619"/>
<text text-anchor="start" x="401" y="-648" font-family="Helvetica,sans-Serif" font-size="10.00" fill="#000000">data_without_duplication</text>
<text text-anchor="start" x="401" y="-637" font-family="Helvetica,sans-Serif" font-size="10.00" fill="#000000">_should_match_with_absurdly</text>
<text text-anchor="middle" x="468.5" y="-626" font-family="Helvetica,sans-Serif" font-size="10.00" fill="#000000">_tiny_buffers</text>
</a>
</g>
</g>
<!-- Node2&#45;&gt;Node25 -->
<g id="edge36" class="edge">
<title>Node2&#45;&gt;Node25</title>
<path fill="none" stroke="#191970" d="M309.432,-377.849C324.083,-394.274 345.013,-420.264 357,-446.5 387.831,-513.981 344.924,-552.995 393,-609.5 396.016,-613.045 399.509,-616.175 403.306,-618.937"/>
<polygon fill="#191970" stroke="#191970" points="311.753,-375.201 302.423,-370.18 306.586,-379.923 311.753,-375.201"/>
</g>
<!-- Node26 -->
<g id="node26" class="node">
<title>Node26</title>
<g id="a_node26"><a xlink:href="test__heatshrink__dynamic_8c.html#acd64db79d79999a7c5436d35b74a7f40" target="_top" xlink:title="data_with_simple_repetition\l_should_match_with_absurdly\l_tiny_buffers">
<polygon fill="#ffffff" stroke="#000000" points="393,-559 393,-600 544,-600 544,-559 393,-559"/>
<text text-anchor="start" x="401" y="-588" font-family="Helvetica,sans-Serif" font-size="10.00" fill="#000000">data_with_simple_repetition</text>
<text text-anchor="start" x="401" y="-577" font-family="Helvetica,sans-Serif" font-size="10.00" fill="#000000">_should_match_with_absurdly</text>
<text text-anchor="middle" x="468.5" y="-566" font-family="Helvetica,sans-Serif" font-size="10.00" fill="#000000">_tiny_buffers</text>
</a>
</g>
</g>
<!-- Node2&#45;&gt;Node26 -->
<g id="edge38" class="edge">
<title>Node2&#45;&gt;Node26</title>
<path fill="none" stroke="#191970" d="M308.463,-377.939C322.613,-394.602 343.362,-420.903 357,-446.5 379.605,-488.928 359.872,-513.662 393,-548.5 396.71,-552.402 400.983,-555.829 405.569,-558.835"/>
<polygon fill="#191970" stroke="#191970" points="310.925,-375.435 301.738,-370.158 305.629,-380.013 310.925,-375.435"/>
</g>
<!-- Node4 -->
<g id="node4" class="node">
<title>Node4</title>
<g id="a_node4"><a xlink:href="heatshrink_8c.html#a37f19023beced8a782d3051bfd7a0bcb" target="_top" xlink:title="encode">
<polygon fill="#ffffff" stroke="#000000" points="647,-695 647,-714 696,-714 696,-695 647,-695"/>
<text text-anchor="middle" x="671.5" y="-702" font-family="Helvetica,sans-Serif" font-size="10.00" fill="#000000">encode</text>
</a>
</g>
</g>
<!-- Node3&#45;&gt;Node4 -->
<g id="edge3" class="edge">
<title>Node3&#45;&gt;Node4</title>
<path fill="none" stroke="#191970" d="M529.746,-693.327C569.026,-696.423 617.905,-700.276 646.798,-702.553"/>
<polygon fill="#191970" stroke="#191970" points="529.97,-689.834 519.725,-692.537 529.42,-696.812 529.97,-689.834"/>
</g>
<!-- Node5 -->
<g id="node5" class="node">
<title>Node5</title>
<g id="a_node5"><a xlink:href="heatshrink_8c.html#a3c04138a5bfe5d72780bb7e82a18e627" target="_top" xlink:title="main">
<polygon fill="#ffffff" stroke="#000000" points="803,-695 803,-714 841,-714 841,-695 803,-695"/>
<text text-anchor="middle" x="822" y="-702" font-family="Helvetica,sans-Serif" font-size="10.00" fill="#000000">main</text>
</a>
</g>
</g>
<!-- Node4&#45;&gt;Node5 -->
<g id="edge4" class="edge">
<title>Node4&#45;&gt;Node5</title>
<path fill="none" stroke="#191970" d="M706.064,-704.5C736.07,-704.5 778.418,-704.5 802.756,-704.5"/>
<polygon fill="#191970" stroke="#191970" points="706.015,-701 696.015,-704.5 706.015,-708 706.015,-701"/>
</g>
<!-- Node7 -->
<g id="node7" class="node">
<title>Node7</title>
<g id="a_node7"><a xlink:href="test__heatshrink__dynamic_8c.html#ac4a70b7ac22f00448c1d17d2b29a1359" target="_top" xlink:title="SUITE">
<polygon fill="#ffffff" stroke="#000000" points="648.5,-235 648.5,-254 694.5,-254 694.5,-235 648.5,-235"/>
<text text-anchor="middle" x="671.5" y="-242" font-family="Helvetica,sans-Serif" font-size="10.00" fill="#000000">SUITE</text>
</a>
</g>
</g>
<!-- Node6&#45;&gt;Node7 -->
<g id="edge6" class="edge">
<title>Node6&#45;&gt;Node7</title>
<path fill="none" stroke="#191970" d="M533.378,-33.4893C537.124,-35.5805 540.702,-37.9088 544,-40.5 614.607,-95.9779 656.547,-202.159 668.17,-234.747"/>
<polygon fill="#191970" stroke="#191970" points="534.902,-30.338 524.388,-29.0277 531.79,-36.6083 534.902,-30.338"/>
</g>
<!-- Node8&#45;&gt;Node7 -->
<g id="edge8" class="edge">
<title>Node8&#45;&gt;Node7</title>
<path fill="none" stroke="#191970" d="M533.197,-155.179C536.887,-156.904 540.511,-158.682 544,-160.5 588.194,-183.529 636.24,-218.036 658.646,-234.743"/>
<polygon fill="#191970" stroke="#191970" points="534.488,-151.922 523.933,-151.008 531.614,-158.305 534.488,-151.922"/>
</g>
<!-- Node9&#45;&gt;Node7 -->
<g id="edge10" class="edge">
<title>Node9&#45;&gt;Node7</title>
<path fill="none" stroke="#191970" d="M533.838,-94.1249C537.366,-96.1154 540.781,-98.2395 544,-100.5 600.295,-140.027 648.549,-209.183 665.251,-234.69"/>
<polygon fill="#191970" stroke="#191970" points="535.364,-90.9734 524.879,-89.4506 532.126,-97.1794 535.364,-90.9734"/>
</g>
<!-- Node10&#45;&gt;Node7 -->
<g id="edge12" class="edge">
<title>Node10&#45;&gt;Node7</title>
<path fill="none" stroke="#191970" d="M543.368,-210.416C580.435,-220.276 622.602,-231.493 648.118,-238.28"/>
<polygon fill="#191970" stroke="#191970" points="544.132,-206.997 533.568,-207.809 542.332,-213.762 544.132,-206.997"/>
</g>
<!-- Node11&#45;&gt;Node7 -->
<g id="edge14" class="edge">
<title>Node11&#45;&gt;Node7</title>
<path fill="none" stroke="#191970" d="M538.029,-334.335C540.108,-332.806 542.107,-331.196 544,-329.5 568.887,-307.205 553.161,-283.403 580,-263.5 599.808,-248.81 628.352,-244.866 648.274,-244.086"/>
<polygon fill="#191970" stroke="#191970" points="536.093,-331.419 529.654,-339.833 539.935,-337.271 536.093,-331.419"/>
</g>
<!-- Node12&#45;&gt;Node7 -->
<g id="edge16" class="edge">
<title>Node12&#45;&gt;Node7</title>
<path fill="none" stroke="#191970" d="M526.216,-287.194C532.258,-285.038 538.279,-282.788 544,-280.5 560.429,-273.929 563.221,-269.116 580,-263.5 602.617,-255.931 629.43,-250.789 648.162,-247.784"/>
<polygon fill="#191970" stroke="#191970" points="525.035,-283.899 516.744,-290.496 527.339,-290.509 525.035,-283.899"/>
</g>
<!-- Node13&#45;&gt;Node7 -->
<g id="edge18" class="edge">
<title>Node13&#45;&gt;Node7</title>
<path fill="none" stroke="#191970" d="M552.837,-248.007C587.565,-246.981 625.053,-245.873 648.399,-245.183"/>
<polygon fill="#191970" stroke="#191970" points="552.542,-244.514 542.649,-248.308 552.748,-251.511 552.542,-244.514"/>
</g>
<!-- Node15 -->
<g id="node15" class="node">
<title>Node15</title>
<g id="a_node15"><a xlink:href="test__heatshrink__dynamic_8c.html#adc66afa12a5eaae0cd12d5cc497f0f67" target="_top" xlink:title="SUITE">
<polygon fill="#ffffff" stroke="#000000" points="648.5,-733 648.5,-752 694.5,-752 694.5,-733 648.5,-733"/>
<text text-anchor="middle" x="671.5" y="-740" font-family="Helvetica,sans-Serif" font-size="10.00" fill="#000000">SUITE</text>
</a>
</g>
</g>
<!-- Node14&#45;&gt;Node15 -->
<g id="edge20" class="edge">
<title>Node14&#45;&gt;Node15</title>
<path fill="none" stroke="#191970" d="M495.195,-728.604C535.256,-731.762 610.265,-737.674 648.224,-740.665"/>
<polygon fill="#191970" stroke="#191970" points="495.356,-725.106 485.112,-727.809 494.806,-732.084 495.356,-725.106"/>
</g>
<!-- Node17 -->
<g id="node17" class="node">
<title>Node17</title>
<g id="a_node17"><a xlink:href="test__heatshrink__dynamic_8c.html#a9d63746ee6a963338d09b8a19da82529" target="_top" xlink:title="data_without_duplication\l_should_match">
<polygon fill="#ffffff" stroke="#000000" points="608,-569.5 608,-599.5 735,-599.5 735,-569.5 608,-569.5"/>
<text text-anchor="start" x="616" y="-587.5" font-family="Helvetica,sans-Serif" font-size="10.00" fill="#000000">data_without_duplication</text>
<text text-anchor="middle" x="671.5" y="-576.5" font-family="Helvetica,sans-Serif" font-size="10.00" fill="#000000">_should_match</text>
</a>
</g>
</g>
<!-- Node16&#45;&gt;Node17 -->
<g id="edge22" class="edge">
<title>Node16&#45;&gt;Node17</title>
<path fill="none" stroke="#191970" d="M524.633,-542.571C542.308,-548.14 561.931,-554.198 580,-559.5 591.377,-562.839 603.592,-566.277 615.274,-569.494"/>
<polygon fill="#191970" stroke="#191970" points="525.626,-539.214 515.036,-539.535 523.515,-545.888 525.626,-539.214"/>
</g>
<!-- Node19 -->
<g id="node19" class="node">
<title>Node19</title>
<g id="a_node19"><a xlink:href="test__heatshrink__dynamic_8c.html#ae9d1425d6c89a652b9df2b4ddc7ac2a2" target="_top" xlink:title="data_with_simple_repetition\l_should_compress_and_decompress\l_properly">
<polygon fill="#ffffff" stroke="#000000" points="580,-509 580,-550 763,-550 763,-509 580,-509"/>
<text text-anchor="start" x="588" y="-538" font-family="Helvetica,sans-Serif" font-size="10.00" fill="#000000">data_with_simple_repetition</text>
<text text-anchor="start" x="588" y="-527" font-family="Helvetica,sans-Serif" font-size="10.00" fill="#000000">_should_compress_and_decompress</text>
<text text-anchor="middle" x="671.5" y="-516" font-family="Helvetica,sans-Serif" font-size="10.00" fill="#000000">_properly</text>
</a>
</g>
</g>
<!-- Node16&#45;&gt;Node19 -->
<g id="edge24" class="edge">
<title>Node16&#45;&gt;Node19</title>
<path fill="none" stroke="#191970" d="M538.606,-526.227C551.94,-526.555 566.075,-526.903 579.96,-527.245"/>
<polygon fill="#191970" stroke="#191970" points="538.666,-522.727 528.583,-525.98 538.493,-529.725 538.666,-522.727"/>
</g>
<!-- Node20 -->
<g id="node20" class="node">
<title>Node20</title>
<g id="a_node20"><a xlink:href="test__heatshrink__dynamic_8c.html#a60c0e0c5bbb9715c7932ee82e706752d" target="_top" xlink:title="pseudorandom_data_should\l_match">
<polygon fill="#ffffff" stroke="#000000" points="600,-459.5 600,-489.5 743,-489.5 743,-459.5 600,-459.5"/>
<text text-anchor="start" x="608" y="-477.5" font-family="Helvetica,sans-Serif" font-size="10.00" fill="#000000">pseudorandom_data_should</text>
<text text-anchor="middle" x="671.5" y="-466.5" font-family="Helvetica,sans-Serif" font-size="10.00" fill="#000000">_match</text>
</a>
</g>
</g>
<!-- Node16&#45;&gt;Node20 -->
<g id="edge26" class="edge">
<title>Node16&#45;&gt;Node20</title>
<path fill="none" stroke="#191970" d="M538.458,-507.269C561.895,-501.496 587.823,-495.11 610.518,-489.52"/>
<polygon fill="#191970" stroke="#191970" points="537.455,-503.911 528.583,-509.701 539.13,-510.708 537.455,-503.911"/>
</g>
<!-- Node21 -->
<g id="node21" class="node">
<title>Node21</title>
<g id="a_node21"><a xlink:href="test__heatshrink__dynamic_8c.html#a20e1a72bba941f0c602b93b53d32d5db" target="_top" xlink:title="small_input_buffer\l_should_not_impact_decoder\l_correctness">
<polygon fill="#ffffff" stroke="#000000" points="597.5,-399 597.5,-440 745.5,-440 745.5,-399 597.5,-399"/>
<text text-anchor="start" x="605.5" y="-428" font-family="Helvetica,sans-Serif" font-size="10.00" fill="#000000">small_input_buffer</text>
<text text-anchor="start" x="605.5" y="-417" font-family="Helvetica,sans-Serif" font-size="10.00" fill="#000000">_should_not_impact_decoder</text>
<text text-anchor="middle" x="671.5" y="-406" font-family="Helvetica,sans-Serif" font-size="10.00" fill="#000000">_correctness</text>
</a>
</g>
</g>
<!-- Node16&#45;&gt;Node21 -->
<g id="edge28" class="edge">
<title>Node16&#45;&gt;Node21</title>
<path fill="none" stroke="#191970" d="M536.005,-504.69C538.786,-503.087 541.466,-501.36 544,-499.5 566.073,-483.295 557.903,-465.672 580,-449.5 585.261,-445.649 591.043,-442.276 597.065,-439.323"/>
<polygon fill="#191970" stroke="#191970" points="534.136,-501.715 526.84,-509.398 537.334,-507.942 534.136,-501.715"/>
</g>
<!-- Node22 -->
<g id="node22" class="node">
<title>Node22</title>
<g id="a_node22"><a xlink:href="test__heatshrink__dynamic_8c.html#a462faeb904a3de1b1e009a04f7d171d8" target="_top" xlink:title="regression_backreference\l_counters_should_not_roll_over">
<polygon fill="#ffffff" stroke="#000000" points="592,-349.5 592,-379.5 751,-379.5 751,-349.5 592,-349.5"/>
<text text-anchor="start" x="600" y="-367.5" font-family="Helvetica,sans-Serif" font-size="10.00" fill="#000000">regression_backreference</text>
<text text-anchor="middle" x="671.5" y="-356.5" font-family="Helvetica,sans-Serif" font-size="10.00" fill="#000000">_counters_should_not_roll_over</text>
</a>
</g>
</g>
<!-- Node16&#45;&gt;Node22 -->
<g id="edge30" class="edge">
<title>Node16&#45;&gt;Node22</title>
<path fill="none" stroke="#191970" d="M537.196,-505.308C539.615,-503.54 541.898,-501.609 544,-499.5 580.311,-463.063 542.736,-424.961 580,-389.5 584.056,-385.64 588.649,-382.365 593.564,-379.586"/>
<polygon fill="#191970" stroke="#191970" points="535.152,-502.458 528.512,-510.714 538.851,-508.4 535.152,-502.458"/>
</g>
<!-- Node23 -->
<g id="node23" class="node">
<title>Node23</title>
<g id="a_node23"><a xlink:href="test__heatshrink__dynamic_8c.html#a2ed8ea21768d114fa96b07eb58475663" target="_top" xlink:title="regression_index_fail">
<polygon fill="#ffffff" stroke="#000000" points="616,-311 616,-330 727,-330 727,-311 616,-311"/>
<text text-anchor="middle" x="671.5" y="-318" font-family="Helvetica,sans-Serif" font-size="10.00" fill="#000000">regression_index_fail</text>
</a>
</g>
</g>
<!-- Node16&#45;&gt;Node23 -->
<g id="edge32" class="edge">
<title>Node16&#45;&gt;Node23</title>
<path fill="none" stroke="#191970" d="M537.3,-505.672C539.707,-503.806 541.957,-501.754 544,-499.5 592.942,-445.486 528.034,-390.611 580,-339.5 589.601,-330.057 602.594,-324.74 615.771,-321.866"/>
<polygon fill="#191970" stroke="#191970" points="535.065,-502.951 528.587,-511.335 538.879,-508.821 535.065,-502.951"/>
</g>
<!-- Node24 -->
<g id="node24" class="node">
<title>Node24</title>
<g id="a_node24"><a xlink:href="test__heatshrink__dynamic_8c.html#a1bfe72da903d55a8610433a4f2a60d43" target="_top" xlink:title="sixty_four_k">
<polygon fill="#ffffff" stroke="#000000" points="636.5,-273 636.5,-292 706.5,-292 706.5,-273 636.5,-273"/>
<text text-anchor="middle" x="671.5" y="-280" font-family="Helvetica,sans-Serif" font-size="10.00" fill="#000000">sixty_four_k</text>
</a>
</g>
</g>
<!-- Node16&#45;&gt;Node24 -->
<g id="edge34" class="edge">
<title>Node16&#45;&gt;Node24</title>
<path fill="none" stroke="#191970" d="M537.419,-505.777C539.793,-503.882 542.005,-501.796 544,-499.5 602.67,-431.988 517.546,-365.528 580,-301.5 594.387,-286.75 617.019,-281.959 636.174,-280.875"/>
<polygon fill="#191970" stroke="#191970" points="535.179,-503.063 528.788,-511.513 539.054,-508.893 535.179,-503.063"/>
</g>
<!-- Node18 -->
<g id="node18" class="node">
<title>Node18</title>
<g id="a_node18"><a xlink:href="test__heatshrink__dynamic_8c.html#a2f157eb23cb17a496326c14e12933b3b" target="_top" xlink:title="SUITE">
<polygon fill="#ffffff" stroke="#000000" points="799,-465 799,-484 845,-484 845,-465 799,-465"/>
<text text-anchor="middle" x="822" y="-472" font-family="Helvetica,sans-Serif" font-size="10.00" fill="#000000">SUITE</text>
</a>
</g>
</g>
<!-- Node17&#45;&gt;Node18 -->
<g id="edge23" class="edge">
<title>Node17&#45;&gt;Node18</title>
<path fill="none" stroke="#191970" d="M744.74,-569.599C751.197,-566.793 757.399,-563.46 763,-559.5 791.163,-539.59 810.269,-501.733 818.062,-484.048"/>
<polygon fill="#191970" stroke="#191970" points="743.181,-566.45 735.135,-573.343 745.724,-572.971 743.181,-566.45"/>
</g>
<!-- Node19&#45;&gt;Node18 -->
<g id="edge25" class="edge">
<title>Node19&#45;&gt;Node18</title>
<path fill="none" stroke="#191970" d="M743.414,-505.589C750.054,-503.245 756.664,-500.86 763,-498.5 775.124,-493.985 788.49,-488.584 799.43,-484.05"/>
<polygon fill="#191970" stroke="#191970" points="741.978,-502.383 733.693,-508.987 744.288,-508.991 741.978,-502.383"/>
</g>
<!-- Node20&#45;&gt;Node18 -->
<g id="edge27" class="edge">
<title>Node20&#45;&gt;Node18</title>
<path fill="none" stroke="#191970" d="M753.608,-474.5C770.24,-474.5 786.421,-474.5 798.866,-474.5"/>
<polygon fill="#191970" stroke="#191970" points="753.224,-471 743.224,-474.5 753.224,-478 753.224,-471"/>
</g>
<!-- Node21&#45;&gt;Node18 -->
<g id="edge29" class="edge">
<title>Node21&#45;&gt;Node18</title>
<path fill="none" stroke="#191970" d="M746.288,-443.447C751.963,-445.439 757.585,-447.469 763,-449.5 775.604,-454.227 789.474,-460.071 800.597,-464.919"/>
<polygon fill="#191970" stroke="#191970" points="747.31,-440.098 736.716,-440.137 745.023,-446.713 747.31,-440.098"/>
</g>
<!-- Node22&#45;&gt;Node18 -->
<g id="edge31" class="edge">
<title>Node22&#45;&gt;Node18</title>
<path fill="none" stroke="#191970" d="M754.053,-383.942C757.16,-385.642 760.157,-387.49 763,-389.5 791.163,-409.41 810.269,-447.267 818.062,-464.952"/>
<polygon fill="#191970" stroke="#191970" points="755.566,-380.786 745.045,-379.534 752.489,-387.073 755.566,-380.786"/>
</g>
<!-- Node23&#45;&gt;Node18 -->
<g id="edge33" class="edge">
<title>Node23&#45;&gt;Node18</title>
<path fill="none" stroke="#191970" d="M736.93,-326.053C746.364,-329.046 755.427,-333.354 763,-339.5 803.913,-372.704 817.185,-439.886 820.809,-464.862"/>
<polygon fill="#191970" stroke="#191970" points="737.576,-322.603 727.011,-323.388 735.76,-329.363 737.576,-322.603"/>
</g>
<!-- Node24&#45;&gt;Node18 -->
<g id="edge35" class="edge">
<title>Node24&#45;&gt;Node18</title>
<path fill="none" stroke="#191970" d="M717.278,-282.925C733.37,-285.249 750.531,-290.487 763,-301.5 788.688,-324.187 813.03,-431.751 820.01,-464.811"/>
<polygon fill="#191970" stroke="#191970" points="717.239,-279.4 706.917,-281.788 716.475,-286.358 717.239,-279.4"/>
</g>
<!-- Node25&#45;&gt;Node18 -->
<g id="edge37" class="edge">
<title>Node25&#45;&gt;Node18</title>
<path fill="none" stroke="#191970" d="M553.746,-661.929C617.224,-673.372 702.934,-677.133 763,-634.5 788.954,-616.079 812.928,-515.746 819.942,-484.08"/>
<polygon fill="#191970" stroke="#191970" points="554.233,-658.459 543.756,-660.032 552.928,-665.336 554.233,-658.459"/>
</g>
<!-- Node26&#45;&gt;Node18 -->
<g id="edge39" class="edge">
<title>Node26&#45;&gt;Node18</title>
<path fill="none" stroke="#191970" d="M545.939,-602.332C557.274,-604.886 568.875,-607.077 580,-608.5 660.676,-618.82 694.88,-652.938 763,-608.5 807.07,-579.752 818.446,-509.882 821.186,-484.189"/>
<polygon fill="#191970" stroke="#191970" points="546.602,-598.892 536.066,-600.004 544.995,-605.705 546.602,-598.892"/>
</g>
<!-- Node28 -->
<g id="node28" class="node">
<title>Node28</title>
<g id="a_node28"><a xlink:href="heatshrink__encoder_8h.html#a7de708b2cb0d016d9183b0addf6126f3" target="_top" xlink:title="heatshrink_encoder_poll">
<polygon fill="#ffffff" stroke="#000000" points="230.5,-456 230.5,-475 355.5,-475 355.5,-456 230.5,-456"/>
<text text-anchor="middle" x="293" y="-463" font-family="Helvetica,sans-Serif" font-size="10.00" fill="#000000">heatshrink_encoder_poll</text>
</a>
</g>
</g>
<!-- Node27&#45;&gt;Node28 -->
<g id="edge41" class="edge">
<title>Node27&#45;&gt;Node28</title>
<path fill="none" stroke="#191970" d="M194.153,-439.684C214.353,-444.96 237.648,-451.044 256.548,-455.98"/>
<polygon fill="#191970" stroke="#191970" points="194.776,-436.23 184.216,-437.089 193.007,-443.002 194.776,-436.23"/>
</g>
<!-- Node28&#45;&gt;Node3 -->
<g id="edge42" class="edge">
<title>Node28&#45;&gt;Node3</title>
<path fill="none" stroke="#191970" d="M296.873,-485.255C305.965,-526.207 332.636,-620.608 393,-669.5 400.037,-675.2 408.562,-679.218 417.315,-682.043"/>
<polygon fill="#191970" stroke="#191970" points="300.286,-484.48 294.803,-475.415 293.436,-485.921 300.286,-484.48"/>
</g>
<!-- Node28&#45;&gt;Node10 -->
<g id="edge47" class="edge">
<title>Node28&#45;&gt;Node10</title>
<path fill="none" stroke="#191970" d="M309.399,-448.136C324.028,-431.7 344.944,-405.704 357,-379.5 387.285,-313.677 345.902,-275.56 393,-220.5 396.026,-216.963 399.526,-213.839 403.328,-211.081"/>
<polygon fill="#191970" stroke="#191970" points="306.554,-446.062 302.402,-455.81 311.726,-450.779 306.554,-446.062"/>
</g>
<!-- Node28&#45;&gt;Node11 -->
<g id="edge48" class="edge">
<title>Node28&#45;&gt;Node11</title>
<path fill="none" stroke="#191970" d="M311.446,-449.285C330.767,-432.891 362.493,-407.599 393,-390.5 398.906,-387.19 405.251,-384.066 411.664,-381.176"/>
<polygon fill="#191970" stroke="#191970" points="309.027,-446.749 303.728,-455.923 313.592,-452.056 309.027,-446.749"/>
</g>
<!-- Node28&#45;&gt;Node12 -->
<g id="edge49" class="edge">
<title>Node28&#45;&gt;Node12</title>
<path fill="none" stroke="#191970" d="M306.174,-447.864C319.135,-430.496 339.474,-403.202 357,-379.5 373.067,-357.771 371.14,-346.387 393,-330.5 398.25,-326.685 404.116,-323.428 410.197,-320.653"/>
<polygon fill="#191970" stroke="#191970" points="303.3,-445.863 300.122,-455.97 308.909,-450.05 303.3,-445.863"/>
</g>
<!-- Node28&#45;&gt;Node13 -->
<g id="edge50" class="edge">
<title>Node28&#45;&gt;Node13</title>
<path fill="none" stroke="#191970" d="M308.407,-448.031C322.518,-431.347 343.241,-405.032 357,-379.5 379.21,-338.285 360.385,-314.09 393,-280.5 396.439,-276.958 400.349,-273.824 404.536,-271.053"/>
<polygon fill="#191970" stroke="#191970" points="305.572,-445.96 301.703,-455.823 310.878,-450.526 305.572,-445.96"/>
</g>
<!-- Node28&#45;&gt;Node14 -->
<g id="edge51" class="edge">
<title>Node28&#45;&gt;Node14</title>
<path fill="none" stroke="#191970" d="M295.208,-485.32C301.452,-531.619 323.563,-647.485 393,-707.5 409.464,-721.73 435.081,-725.576 451.827,-726.471"/>
<polygon fill="#191970" stroke="#191970" points="298.647,-484.618 293.943,-475.125 291.701,-485.479 298.647,-484.618"/>
</g>
<!-- Node28&#45;&gt;Node16 -->
<g id="edge52" class="edge">
<title>Node28&#45;&gt;Node16</title>
<path fill="none" stroke="#191970" d="M330.646,-478.379C349.377,-484.767 372.369,-492.577 393,-499.5 402.687,-502.75 413.082,-506.211 422.967,-509.488"/>
<polygon fill="#191970" stroke="#191970" points="331.592,-475.004 320.998,-475.086 329.331,-481.628 331.592,-475.004"/>
</g>
<!-- Node28&#45;&gt;Node25 -->
<g id="edge53" class="edge">
<title>Node28&#45;&gt;Node25</title>
<path fill="none" stroke="#191970" d="M301.593,-484.423C316.256,-514.77 348.86,-574.457 393,-609.5 397.419,-613.008 402.3,-616.152 407.391,-618.96"/>
<polygon fill="#191970" stroke="#191970" points="304.586,-482.563 297.165,-475.002 298.251,-485.541 304.586,-482.563"/>
</g>
<!-- Node28&#45;&gt;Node26 -->
<g id="edge54" class="edge">
<title>Node28&#45;&gt;Node26</title>
<path fill="none" stroke="#191970" d="M309.7,-482.114C328.627,-500.254 361.02,-529.279 393,-548.5 399.194,-552.223 405.916,-555.693 412.711,-558.862"/>
<polygon fill="#191970" stroke="#191970" points="312.062,-479.529 302.453,-475.066 307.182,-484.547 312.062,-479.529"/>
</g>
<!-- Node29 -->
<g id="node29" class="node">
<title>Node29</title>
<g id="a_node29"><a xlink:href="test__heatshrink__dynamic_8c.html#ade6da42ddec3e9a2d8fe58597792b843" target="_top" xlink:title="encoder_poll_should\l_reject_nulls">
<polygon fill="#ffffff" stroke="#000000" points="414,-460.5 414,-490.5 523,-490.5 523,-460.5 414,-460.5"/>
<text text-anchor="start" x="422" y="-478.5" font-family="Helvetica,sans-Serif" font-size="10.00" fill="#000000">encoder_poll_should</text>
<text text-anchor="middle" x="468.5" y="-467.5" font-family="Helvetica,sans-Serif" font-size="10.00" fill="#000000">_reject_nulls</text>
</a>
</g>
</g>
<!-- Node28&#45;&gt;Node29 -->
<g id="edge43" class="edge">
<title>Node28&#45;&gt;Node29</title>
<path fill="none" stroke="#191970" d="M366.238,-469.673C382.203,-470.583 398.828,-471.53 413.919,-472.39"/>
<polygon fill="#191970" stroke="#191970" points="366.047,-466.157 355.864,-469.082 365.648,-473.145 366.047,-466.157"/>
</g>
<!-- Node30 -->
<g id="node30" class="node">
<title>Node30</title>
<g id="a_node30"><a xlink:href="test__heatshrink__dynamic_8c.html#aa662e805dae6d002db06dc962e7440f9" target="_top" xlink:title="encoder_poll_should\l_indicate_when_no_input\l_is_provided">
<polygon fill="#ffffff" stroke="#000000" points="403.5,-400 403.5,-441 533.5,-441 533.5,-400 403.5,-400"/>
<text text-anchor="start" x="411.5" y="-429" font-family="Helvetica,sans-Serif" font-size="10.00" fill="#000000">encoder_poll_should</text>
<text text-anchor="start" x="411.5" y="-418" font-family="Helvetica,sans-Serif" font-size="10.00" fill="#000000">_indicate_when_no_input</text>
<text text-anchor="middle" x="468.5" y="-407" font-family="Helvetica,sans-Serif" font-size="10.00" fill="#000000">_is_provided</text>
</a>
</g>
</g>
<!-- Node28&#45;&gt;Node30 -->
<g id="edge45" class="edge">
<title>Node28&#45;&gt;Node30</title>
<path fill="none" stroke="#191970" d="M340.041,-453.438C359.473,-448.456 382.327,-442.596 403.33,-437.21"/>
<polygon fill="#191970" stroke="#191970" points="339.036,-450.083 330.219,-455.957 340.775,-456.863 339.036,-450.083"/>
</g>
<!-- Node29&#45;&gt;Node7 -->
<g id="edge44" class="edge">
<title>Node29&#45;&gt;Node7</title>
<path fill="none" stroke="#191970" d="M532.049,-460.517C536.487,-457.727 540.558,-454.42 544,-450.5 599.847,-386.903 520.59,-323.781 580,-263.5 597.652,-245.589 627.472,-242.402 648.254,-242.675"/>
<polygon fill="#191970" stroke="#191970" points="530.307,-457.479 523.128,-465.271 533.599,-463.657 530.307,-457.479"/>
</g>
<!-- Node30&#45;&gt;Node7 -->
<g id="edge46" class="edge">
<title>Node30&#45;&gt;Node7</title>
<path fill="none" stroke="#191970" d="M541.179,-393.406C542.154,-392.469 543.096,-391.501 544,-390.5 583.316,-346.954 537.059,-303.476 580,-263.5 598.287,-246.475 627.685,-243.058 648.207,-243.037"/>
<polygon fill="#191970" stroke="#191970" points="538.653,-390.949 533.108,-399.977 543.073,-396.377 538.653,-390.949"/>
</g>
<!-- Node31&#45;&gt;Node28 -->
<g id="edge56" class="edge">
<title>Node31&#45;&gt;Node28</title>
<path fill="none" stroke="#191970" d="M199.724,-465.5C209.681,-465.5 220.196,-465.5 230.437,-465.5"/>
<polygon fill="#191970" stroke="#191970" points="199.585,-462 189.585,-465.5 199.585,-469 199.585,-462"/>
</g>
</g>
</svg>
