<?xml version="1.0" encoding="UTF-8" standalone="no"?>
<!DOCTYPE svg PUBLIC "-//W3C//DTD SVG 1.1//EN"
 "http://www.w3.org/Graphics/SVG/1.1/DTD/svg11.dtd">
<!-- Generated by graphviz version 2.41.20170323.1842 (20170323.1842)
 -->
<!-- Title: backlog_is_partial Pages: 1 -->
<svg width="998pt" height="761pt"
 viewBox="0.00 0.00 998.00 760.50" xmlns="http://www.w3.org/2000/svg" xmlns:xlink="http://www.w3.org/1999/xlink">
<g id="graph0" class="graph" transform="scale(1 1) rotate(0) translate(4 756.5)">
<title>backlog_is_partial</title>
<polygon fill="#ffffff" stroke="transparent" points="-4,4 -4,-756.5 994,-756.5 994,4 -4,4"/>
<!-- Node64 -->
<g id="node1" class="node">
<title>Node64</title>
<polygon fill="#bfbfbf" stroke="#000000" points="0,-381 0,-400 97,-400 97,-381 0,-381"/>
<text text-anchor="middle" x="48.5" y="-388" font-family="Helvetica,sans-Serif" font-size="10.00" fill="#000000">backlog_is_partial</text>
</g>
<!-- Node65 -->
<g id="node2" class="node">
<title>Node65</title>
<g id="a_node2"><a xlink:href="heatshrink__encoder_8c.html#a20f6276833bfa75c34ca574dc4fac9b8" target="_top" xlink:title="save_backlog">
<polygon fill="#ffffff" stroke="#000000" points="133,-400 133,-419 211,-419 211,-400 133,-400"/>
<text text-anchor="middle" x="172" y="-407" font-family="Helvetica,sans-Serif" font-size="10.00" fill="#000000">save_backlog</text>
</a>
</g>
</g>
<!-- Node64&#45;&gt;Node65 -->
<g id="edge1" class="edge">
<title>Node64&#45;&gt;Node65</title>
<path fill="none" stroke="#191970" d="M107.3238,-399.5498C115.9173,-400.8719 124.5866,-402.2056 132.6639,-403.4483"/>
<polygon fill="#191970" stroke="#191970" points="107.7264,-396.0707 97.3105,-398.0093 106.662,-402.9893 107.7264,-396.0707"/>
</g>
<!-- Node95 -->
<g id="node32" class="node">
<title>Node95</title>
<g id="a_node32"><a xlink:href="heatshrink__encoder_8c.html#a8e16d6d715ab36d730a793591afe2324" target="_top" xlink:title="st_step_search">
<polygon fill="#ffffff" stroke="#000000" points="250.5,-362 250.5,-381 334.5,-381 334.5,-362 250.5,-362"/>
<text text-anchor="middle" x="292.5" y="-369" font-family="Helvetica,sans-Serif" font-size="10.00" fill="#000000">st_step_search</text>
</a>
</g>
</g>
<!-- Node64&#45;&gt;Node95 -->
<g id="edge56" class="edge">
<title>Node64&#45;&gt;Node95</title>
<path fill="none" stroke="#191970" d="M107.3097,-385.9206C151.4421,-382.484 210.813,-377.8609 250.3053,-374.7857"/>
<polygon fill="#191970" stroke="#191970" points="106.9887,-382.4349 97.2906,-386.7007 107.5322,-389.4137 106.9887,-382.4349"/>
</g>
<!-- Node66 -->
<g id="node3" class="node">
<title>Node66</title>
<g id="a_node3"><a xlink:href="heatshrink__encoder_8c.html#ac2fd6f71c2f249ebc292fd45fbd83b65" target="_top" xlink:title="st_save_backlog">
<polygon fill="#ffffff" stroke="#000000" points="247,-400 247,-419 338,-419 338,-400 247,-400"/>
<text text-anchor="middle" x="292.5" y="-407" font-family="Helvetica,sans-Serif" font-size="10.00" fill="#000000">st_save_backlog</text>
</a>
</g>
</g>
<!-- Node65&#45;&gt;Node66 -->
<g id="edge2" class="edge">
<title>Node65&#45;&gt;Node66</title>
<path fill="none" stroke="#191970" d="M221.2585,-409.5C229.7284,-409.5 238.4982,-409.5 246.8676,-409.5"/>
<polygon fill="#191970" stroke="#191970" points="221.1229,-406.0001 211.1229,-409.5 221.1229,-413.0001 221.1229,-406.0001"/>
</g>
<!-- Node67 -->
<g id="node4" class="node">
<title>Node67</title>
<g id="a_node4"><a xlink:href="heatshrink__encoder_8h.html#aa1a92f13d1ef65546bb40ece94b2066e" target="_top" xlink:title="heatshrink_encoder_sink">
<polygon fill="#ffffff" stroke="#000000" points="374,-362 374,-381 502,-381 502,-362 374,-362"/>
<text text-anchor="middle" x="438" y="-369" font-family="Helvetica,sans-Serif" font-size="10.00" fill="#000000">heatshrink_encoder_sink</text>
</a>
</g>
</g>
<!-- Node66&#45;&gt;Node67 -->
<g id="edge3" class="edge">
<title>Node66&#45;&gt;Node67</title>
<path fill="none" stroke="#191970" d="M339.1532,-397.3157C359.3534,-392.04 382.6481,-385.9562 401.5482,-381.0201"/>
<polygon fill="#191970" stroke="#191970" points="338.0068,-393.9976 329.2158,-399.911 339.7757,-400.7704 338.0068,-393.9976"/>
</g>
<!-- Node92 -->
<g id="node29" class="node">
<title>Node92</title>
<g id="a_node29"><a xlink:href="heatshrink__encoder_8h.html#a7de708b2cb0d016d9183b0addf6126f3" target="_top" xlink:title="heatshrink_encoder_poll">
<polygon fill="#ffffff" stroke="#000000" points="375.5,-411 375.5,-430 500.5,-430 500.5,-411 375.5,-411"/>
<text text-anchor="middle" x="438" y="-418" font-family="Helvetica,sans-Serif" font-size="10.00" fill="#000000">heatshrink_encoder_poll</text>
</a>
</g>
</g>
<!-- Node66&#45;&gt;Node92 -->
<g id="edge42" class="edge">
<title>Node66&#45;&gt;Node92</title>
<path fill="none" stroke="#191970" d="M348.3542,-413.7227C357.2247,-414.3933 366.45,-415.0907 375.462,-415.772"/>
<polygon fill="#191970" stroke="#191970" points="348.3733,-410.2142 338.1379,-412.9503 347.8456,-417.1943 348.3733,-410.2142"/>
</g>
<!-- Node68 -->
<g id="node5" class="node">
<title>Node68</title>
<g id="a_node5"><a xlink:href="heatshrink_8c.html#a593e86bba4eca0be280740fcf509bc12" target="_top" xlink:title="encoder_sink_read">
<polygon fill="#ffffff" stroke="#000000" points="562.5,-679 562.5,-698 664.5,-698 664.5,-679 562.5,-679"/>
<text text-anchor="middle" x="613.5" y="-686" font-family="Helvetica,sans-Serif" font-size="10.00" fill="#000000">encoder_sink_read</text>
</a>
</g>
</g>
<!-- Node67&#45;&gt;Node68 -->
<g id="edge4" class="edge">
<title>Node67&#45;&gt;Node68</title>
<path fill="none" stroke="#191970" d="M483.2562,-385.6087C490.4753,-389.6888 497.1511,-394.8912 502,-401.5 573.0944,-498.397 457.954,-579.8557 538,-669.5 544.3918,-676.6582 553.0455,-681.3073 562.2149,-684.2885"/>
<polygon fill="#191970" stroke="#191970" points="484.4365,-382.289 473.918,-381.0196 481.349,-388.5714 484.4365,-382.289"/>
</g>
<!-- Node71 -->
<g id="node8" class="node">
<title>Node71</title>
<g id="a_node8"><a xlink:href="test__heatshrink__dynamic_8c.html#a9b30a495760400a59637e7d708e63ae0" target="_top" xlink:title="encoder_sink_should\l_reject_nulls">
<polygon fill="#ffffff" stroke="#000000" points="558,-.5 558,-30.5 669,-30.5 669,-.5 558,-.5"/>
<text text-anchor="start" x="566" y="-18.5" font-family="Helvetica,sans-Serif" font-size="10.00" fill="#000000">encoder_sink_should</text>
<text text-anchor="middle" x="613.5" y="-7.5" font-family="Helvetica,sans-Serif" font-size="10.00" fill="#000000">_reject_nulls</text>
</a>
</g>
</g>
<!-- Node67&#45;&gt;Node71 -->
<g id="edge7" class="edge">
<title>Node67&#45;&gt;Node71</title>
<path fill="none" stroke="#191970" d="M441.4715,-351.9631C453.1871,-288.05 493.0547,-86.6463 538,-40.5 543.5876,-34.7631 550.5188,-30.3424 557.898,-26.9361"/>
<polygon fill="#191970" stroke="#191970" points="438.0055,-351.4619 439.6707,-361.9251 444.8938,-352.7072 438.0055,-351.4619"/>
</g>
<!-- Node73 -->
<g id="node10" class="node">
<title>Node73</title>
<g id="a_node10"><a xlink:href="test__heatshrink__dynamic_8c.html#a1c4dab770a7df0935018c3a685f5b1ff" target="_top" xlink:title="encoder_sink_should\l_accept_input_when_it\l_will_fit">
<polygon fill="#ffffff" stroke="#000000" points="554,-110 554,-151 673,-151 673,-110 554,-110"/>
<text text-anchor="start" x="562" y="-139" font-family="Helvetica,sans-Serif" font-size="10.00" fill="#000000">encoder_sink_should</text>
<text text-anchor="start" x="562" y="-128" font-family="Helvetica,sans-Serif" font-size="10.00" fill="#000000">_accept_input_when_it</text>
<text text-anchor="middle" x="613.5" y="-117" font-family="Helvetica,sans-Serif" font-size="10.00" fill="#000000">_will_fit</text>
</a>
</g>
</g>
<!-- Node67&#45;&gt;Node73 -->
<g id="edge9" class="edge">
<title>Node67&#45;&gt;Node73</title>
<path fill="none" stroke="#191970" d="M442.2118,-351.7122C451.9455,-310.5725 479.7601,-215.1073 538,-160.5 542.733,-156.0622 548.2028,-152.2506 553.9917,-148.9835"/>
<polygon fill="#191970" stroke="#191970" points="438.7712,-351.0589 439.981,-361.5844 445.5991,-352.6018 438.7712,-351.0589"/>
</g>
<!-- Node74 -->
<g id="node11" class="node">
<title>Node74</title>
<g id="a_node11"><a xlink:href="test__heatshrink__dynamic_8c.html#a73ee2ec6f21d5e0ce0e34902a1aebccb" target="_top" xlink:title="encoder_sink_should\l_accept_partial_input\l_when_some_will_fit">
<polygon fill="#ffffff" stroke="#000000" points="557.5,-50 557.5,-91 669.5,-91 669.5,-50 557.5,-50"/>
<text text-anchor="start" x="565.5" y="-79" font-family="Helvetica,sans-Serif" font-size="10.00" fill="#000000">encoder_sink_should</text>
<text text-anchor="start" x="565.5" y="-68" font-family="Helvetica,sans-Serif" font-size="10.00" fill="#000000">_accept_partial_input</text>
<text text-anchor="middle" x="613.5" y="-57" font-family="Helvetica,sans-Serif" font-size="10.00" fill="#000000">_when_some_will_fit</text>
</a>
</g>
</g>
<!-- Node67&#45;&gt;Node74 -->
<g id="edge11" class="edge">
<title>Node67&#45;&gt;Node74</title>
<path fill="none" stroke="#191970" d="M439.8477,-351.66C445.4482,-302.5069 466.5117,-173.7775 538,-100.5 543.5156,-94.8463 550.231,-90.2306 557.3572,-86.4692"/>
<polygon fill="#191970" stroke="#191970" points="436.3383,-351.5683 438.7809,-361.8777 443.3005,-352.2952 436.3383,-351.5683"/>
</g>
<!-- Node75 -->
<g id="node12" class="node">
<title>Node75</title>
<g id="a_node12"><a xlink:href="test__heatshrink__dynamic_8c.html#a5339595930b85317e810fcf251b86351" target="_top" xlink:title="encoder_should_emit\l_data_without_repetitions\l_as_literal_sequence">
<polygon fill="#ffffff" stroke="#000000" points="548.5,-170 548.5,-211 678.5,-211 678.5,-170 548.5,-170"/>
<text text-anchor="start" x="556.5" y="-199" font-family="Helvetica,sans-Serif" font-size="10.00" fill="#000000">encoder_should_emit</text>
<text text-anchor="start" x="556.5" y="-188" font-family="Helvetica,sans-Serif" font-size="10.00" fill="#000000">_data_without_repetitions</text>
<text text-anchor="middle" x="613.5" y="-177" font-family="Helvetica,sans-Serif" font-size="10.00" fill="#000000">_as_literal_sequence</text>
</a>
</g>
</g>
<!-- Node67&#45;&gt;Node75 -->
<g id="edge13" class="edge">
<title>Node67&#45;&gt;Node75</title>
<path fill="none" stroke="#191970" d="M445.9585,-352.5189C460.0796,-320.9667 492.3862,-257.5401 538,-220.5 542.2702,-217.0325 546.9915,-213.9252 551.9275,-211.1488"/>
<polygon fill="#191970" stroke="#191970" points="442.6517,-351.3469 441.8739,-361.9131 449.0711,-354.1381 442.6517,-351.3469"/>
</g>
<!-- Node76 -->
<g id="node13" class="node">
<title>Node76</title>
<g id="a_node13"><a xlink:href="test__heatshrink__dynamic_8c.html#ae27157a664552fa0744d095239ee0d88" target="_top" xlink:title="encoder_should_emit\l_series_of_same_byte\l_as_literal_then_backref">
<polygon fill="#ffffff" stroke="#000000" points="551,-340 551,-381 676,-381 676,-340 551,-340"/>
<text text-anchor="start" x="559" y="-369" font-family="Helvetica,sans-Serif" font-size="10.00" fill="#000000">encoder_should_emit</text>
<text text-anchor="start" x="559" y="-358" font-family="Helvetica,sans-Serif" font-size="10.00" fill="#000000">_series_of_same_byte</text>
<text text-anchor="middle" x="613.5" y="-347" font-family="Helvetica,sans-Serif" font-size="10.00" fill="#000000">_as_literal_then_backref</text>
</a>
</g>
</g>
<!-- Node67&#45;&gt;Node76 -->
<g id="edge15" class="edge">
<title>Node67&#45;&gt;Node76</title>
<path fill="none" stroke="#191970" d="M512.5072,-366.83C525.2978,-366.0283 538.4727,-365.2026 550.9108,-364.423"/>
<polygon fill="#191970" stroke="#191970" points="512.1146,-363.3477 502.3532,-367.4665 512.5526,-370.334 512.1146,-363.3477"/>
</g>
<!-- Node77 -->
<g id="node14" class="node">
<title>Node77</title>
<g id="a_node14"><a xlink:href="test__heatshrink__dynamic_8c.html#a2d84dd546b011bb6cfc3b1e9a9a5616b" target="_top" xlink:title="encoder_poll_should\l_detect_repeated_substring">
<polygon fill="#ffffff" stroke="#000000" points="543.5,-290.5 543.5,-320.5 683.5,-320.5 683.5,-290.5 543.5,-290.5"/>
<text text-anchor="start" x="551.5" y="-308.5" font-family="Helvetica,sans-Serif" font-size="10.00" fill="#000000">encoder_poll_should</text>
<text text-anchor="middle" x="613.5" y="-297.5" font-family="Helvetica,sans-Serif" font-size="10.00" fill="#000000">_detect_repeated_substring</text>
</a>
</g>
</g>
<!-- Node67&#45;&gt;Node77 -->
<g id="edge17" class="edge">
<title>Node67&#45;&gt;Node77</title>
<path fill="none" stroke="#191970" d="M469.4224,-357.9623C489.0114,-349.6864 514.8168,-339.0791 538,-330.5 547.0645,-327.1456 556.8169,-323.7564 566.2032,-320.6023"/>
<polygon fill="#191970" stroke="#191970" points="467.9038,-354.8047 460.0686,-361.9364 470.641,-361.2473 467.9038,-354.8047"/>
</g>
<!-- Node78 -->
<g id="node15" class="node">
<title>Node78</title>
<g id="a_node15"><a xlink:href="test__heatshrink__dynamic_8c.html#ab068727669a416029bacc708b2aac5ac" target="_top" xlink:title="encoder_poll_should\l_detect_repeated_substring\l_and_preserve_trailing_literal">
<polygon fill="#ffffff" stroke="#000000" points="539.5,-230 539.5,-271 687.5,-271 687.5,-230 539.5,-230"/>
<text text-anchor="start" x="547.5" y="-259" font-family="Helvetica,sans-Serif" font-size="10.00" fill="#000000">encoder_poll_should</text>
<text text-anchor="start" x="547.5" y="-248" font-family="Helvetica,sans-Serif" font-size="10.00" fill="#000000">_detect_repeated_substring</text>
<text text-anchor="middle" x="613.5" y="-237" font-family="Helvetica,sans-Serif" font-size="10.00" fill="#000000">_and_preserve_trailing_literal</text>
</a>
</g>
</g>
<!-- Node67&#45;&gt;Node78 -->
<g id="edge19" class="edge">
<title>Node67&#45;&gt;Node78</title>
<path fill="none" stroke="#191970" d="M453.2218,-354.306C471.6468,-334.3439 504.4025,-301.4829 538,-280.5 543.503,-277.0632 549.4661,-273.8928 555.5462,-271.0041"/>
<polygon fill="#191970" stroke="#191970" points="450.5874,-352.0008 446.4575,-361.7576 455.7704,-356.7057 450.5874,-352.0008"/>
</g>
<!-- Node79 -->
<g id="node16" class="node">
<title>Node79</title>
<g id="a_node16"><a xlink:href="test__heatshrink__dynamic_8c.html#a6627d0e00f7e636ae9294cc6255c7ffd" target="_top" xlink:title="gen">
<polygon fill="#ffffff" stroke="#000000" points="597,-717 597,-736 630,-736 630,-717 597,-717"/>
<text text-anchor="middle" x="613.5" y="-724" font-family="Helvetica,sans-Serif" font-size="10.00" fill="#000000">gen</text>
</a>
</g>
</g>
<!-- Node67&#45;&gt;Node79 -->
<g id="edge21" class="edge">
<title>Node67&#45;&gt;Node79</title>
<path fill="none" stroke="#191970" d="M483.5729,-385.6733C490.6956,-389.7404 497.256,-394.9216 502,-401.5 582.0981,-512.5689 447.6348,-604.6111 538,-707.5 552.6278,-724.1551 579.499,-727.2685 596.9234,-727.3552"/>
<polygon fill="#191970" stroke="#191970" points="484.8583,-382.404 474.3445,-381.0963 481.748,-388.6751 484.8583,-382.404"/>
</g>
<!-- Node81 -->
<g id="node18" class="node">
<title>Node81</title>
<g id="a_node18"><a xlink:href="test__heatshrink__dynamic_8c.html#ab9096be17a9dc8f301673949558e5bd6" target="_top" xlink:title="compress_and_expand\l_and_check">
<polygon fill="#ffffff" stroke="#000000" points="553.5,-509.5 553.5,-539.5 673.5,-539.5 673.5,-509.5 553.5,-509.5"/>
<text text-anchor="start" x="561.5" y="-527.5" font-family="Helvetica,sans-Serif" font-size="10.00" fill="#000000">compress_and_expand</text>
<text text-anchor="middle" x="613.5" y="-516.5" font-family="Helvetica,sans-Serif" font-size="10.00" fill="#000000">_and_check</text>
</a>
</g>
</g>
<!-- Node67&#45;&gt;Node81 -->
<g id="edge23" class="edge">
<title>Node67&#45;&gt;Node81</title>
<path fill="none" stroke="#191970" d="M479.9462,-385.3872C488.057,-389.5671 495.9131,-394.8638 502,-401.5 533.365,-435.6954 504.664,-467.2231 538,-499.5 542.4639,-503.822 547.6913,-507.3971 553.2759,-510.3542"/>
<polygon fill="#191970" stroke="#191970" points="481.306,-382.1598 470.7612,-381.1307 478.3627,-388.511 481.306,-382.1598"/>
</g>
<!-- Node90 -->
<g id="node27" class="node">
<title>Node90</title>
<g id="a_node27"><a xlink:href="test__heatshrink__dynamic_8c.html#a9a102029b8375d4050406a2814f390ac" target="_top" xlink:title="data_without_duplication\l_should_match_with_absurdly\l_tiny_buffers">
<polygon fill="#ffffff" stroke="#000000" points="538,-619 538,-660 689,-660 689,-619 538,-619"/>
<text text-anchor="start" x="546" y="-648" font-family="Helvetica,sans-Serif" font-size="10.00" fill="#000000">data_without_duplication</text>
<text text-anchor="start" x="546" y="-637" font-family="Helvetica,sans-Serif" font-size="10.00" fill="#000000">_should_match_with_absurdly</text>
<text text-anchor="middle" x="613.5" y="-626" font-family="Helvetica,sans-Serif" font-size="10.00" fill="#000000">_tiny_buffers</text>
</a>
</g>
</g>
<!-- Node67&#45;&gt;Node90 -->
<g id="edge38" class="edge">
<title>Node67&#45;&gt;Node90</title>
<path fill="none" stroke="#191970" d="M482.8239,-385.633C490.1498,-389.7178 496.9745,-394.9156 502,-401.5 558.9211,-476.0785 478.8632,-536.6658 538,-609.5 540.845,-613.0039 544.1584,-616.1006 547.7786,-618.8371"/>
<polygon fill="#191970" stroke="#191970" points="483.8975,-382.2631 473.3742,-381.0338 480.8341,-388.5572 483.8975,-382.2631"/>
</g>
<!-- Node91 -->
<g id="node28" class="node">
<title>Node91</title>
<g id="a_node28"><a xlink:href="test__heatshrink__dynamic_8c.html#acd64db79d79999a7c5436d35b74a7f40" target="_top" xlink:title="data_with_simple_repetition\l_should_match_with_absurdly\l_tiny_buffers">
<polygon fill="#ffffff" stroke="#000000" points="538,-559 538,-600 689,-600 689,-559 538,-559"/>
<text text-anchor="start" x="546" y="-588" font-family="Helvetica,sans-Serif" font-size="10.00" fill="#000000">data_with_simple_repetition</text>
<text text-anchor="start" x="546" y="-577" font-family="Helvetica,sans-Serif" font-size="10.00" fill="#000000">_should_match_with_absurdly</text>
<text text-anchor="middle" x="613.5" y="-566" font-family="Helvetica,sans-Serif" font-size="10.00" fill="#000000">_tiny_buffers</text>
</a>
</g>
</g>
<!-- Node67&#45;&gt;Node91 -->
<g id="edge40" class="edge">
<title>Node67&#45;&gt;Node91</title>
<path fill="none" stroke="#191970" d="M481.4972,-385.3967C489.2143,-389.5353 496.5227,-394.8135 502,-401.5 544.6246,-453.5345 494.1204,-497.5194 538,-548.5 541.4201,-552.4736 545.4287,-555.9461 549.7843,-558.9794"/>
<polygon fill="#191970" stroke="#191970" points="482.87,-382.1741 472.3354,-381.0458 479.8671,-388.4973 482.87,-382.1741"/>
</g>
<!-- Node69 -->
<g id="node6" class="node">
<title>Node69</title>
<g id="a_node6"><a xlink:href="heatshrink_8c.html#a37f19023beced8a782d3051bfd7a0bcb" target="_top" xlink:title="encode">
<polygon fill="#ffffff" stroke="#000000" points="792,-695 792,-714 841,-714 841,-695 792,-695"/>
<text text-anchor="middle" x="816.5" y="-702" font-family="Helvetica,sans-Serif" font-size="10.00" fill="#000000">encode</text>
</a>
</g>
</g>
<!-- Node68&#45;&gt;Node69 -->
<g id="edge5" class="edge">
<title>Node68&#45;&gt;Node69</title>
<path fill="none" stroke="#191970" d="M674.7457,-693.3272C714.0262,-696.4232 762.9052,-700.2758 791.7985,-702.5531"/>
<polygon fill="#191970" stroke="#191970" points="674.9696,-689.8341 664.7255,-692.5375 674.4195,-696.8125 674.9696,-689.8341"/>
</g>
<!-- Node70 -->
<g id="node7" class="node">
<title>Node70</title>
<g id="a_node7"><a xlink:href="heatshrink_8c.html#a3c04138a5bfe5d72780bb7e82a18e627" target="_top" xlink:title="main">
<polygon fill="#ffffff" stroke="#000000" points="948,-695 948,-714 986,-714 986,-695 948,-695"/>
<text text-anchor="middle" x="967" y="-702" font-family="Helvetica,sans-Serif" font-size="10.00" fill="#000000">main</text>
</a>
</g>
</g>
<!-- Node69&#45;&gt;Node70 -->
<g id="edge6" class="edge">
<title>Node69&#45;&gt;Node70</title>
<path fill="none" stroke="#191970" d="M851.0644,-704.5C881.0704,-704.5 923.4177,-704.5 947.7563,-704.5"/>
<polygon fill="#191970" stroke="#191970" points="851.0154,-701.0001 841.0154,-704.5 851.0153,-708.0001 851.0154,-701.0001"/>
</g>
<!-- Node72 -->
<g id="node9" class="node">
<title>Node72</title>
<g id="a_node9"><a xlink:href="test__heatshrink__dynamic_8c.html#ac4a70b7ac22f00448c1d17d2b29a1359" target="_top" xlink:title="SUITE">
<polygon fill="#ffffff" stroke="#000000" points="793.5,-235 793.5,-254 839.5,-254 839.5,-235 793.5,-235"/>
<text text-anchor="middle" x="816.5" y="-242" font-family="Helvetica,sans-Serif" font-size="10.00" fill="#000000">SUITE</text>
</a>
</g>
</g>
<!-- Node71&#45;&gt;Node72 -->
<g id="edge8" class="edge">
<title>Node71&#45;&gt;Node72</title>
<path fill="none" stroke="#191970" d="M678.3785,-33.4893C682.124,-35.5805 685.7022,-37.9088 689,-40.5 759.6067,-95.9779 801.5467,-202.1591 813.1696,-234.7473"/>
<polygon fill="#191970" stroke="#191970" points="679.9018,-30.338 669.3883,-29.0277 676.79,-36.6083 679.9018,-30.338"/>
</g>
<!-- Node73&#45;&gt;Node72 -->
<g id="edge10" class="edge">
<title>Node73&#45;&gt;Node72</title>
<path fill="none" stroke="#191970" d="M678.1973,-155.1792C681.8868,-156.9042 685.5114,-158.6821 689,-160.5 733.1938,-183.5295 781.2395,-218.0362 803.6457,-234.743"/>
<polygon fill="#191970" stroke="#191970" points="679.488,-151.922 668.9327,-151.0076 676.6139,-158.3048 679.488,-151.922"/>
</g>
<!-- Node74&#45;&gt;Node72 -->
<g id="edge12" class="edge">
<title>Node74&#45;&gt;Node72</title>
<path fill="none" stroke="#191970" d="M678.8382,-94.1249C682.3664,-96.1154 685.7805,-98.2395 689,-100.5 745.2951,-140.0269 793.5493,-209.1834 810.2511,-234.6898"/>
<polygon fill="#191970" stroke="#191970" points="680.3641,-90.9734 669.8793,-89.4506 677.1261,-97.1794 680.3641,-90.9734"/>
</g>
<!-- Node75&#45;&gt;Node72 -->
<g id="edge14" class="edge">
<title>Node75&#45;&gt;Node72</title>
<path fill="none" stroke="#191970" d="M688.3677,-210.4155C725.4352,-220.2759 767.6022,-231.4927 793.1181,-238.2802"/>
<polygon fill="#191970" stroke="#191970" points="689.1318,-206.9972 678.5681,-207.8088 687.3323,-213.7619 689.1318,-206.9972"/>
</g>
<!-- Node76&#45;&gt;Node72 -->
<g id="edge16" class="edge">
<title>Node76&#45;&gt;Node72</title>
<path fill="none" stroke="#191970" d="M683.0287,-334.3351C685.1085,-332.8064 687.1069,-331.196 689,-329.5 713.8869,-307.2046 698.1614,-283.4031 725,-263.5 744.8084,-248.8103 773.3517,-244.8664 793.2739,-244.0863"/>
<polygon fill="#191970" stroke="#191970" points="681.0927,-331.4192 674.6545,-339.8334 684.9347,-337.2706 681.0927,-331.4192"/>
</g>
<!-- Node77&#45;&gt;Node72 -->
<g id="edge18" class="edge">
<title>Node77&#45;&gt;Node72</title>
<path fill="none" stroke="#191970" d="M671.2164,-287.194C677.2584,-285.0383 683.279,-282.7882 689,-280.5 705.4289,-273.9291 708.2205,-269.1157 725,-263.5 747.6167,-255.9307 774.4295,-250.7895 793.1622,-247.7836"/>
<polygon fill="#191970" stroke="#191970" points="670.035,-283.8992 661.7443,-290.4959 672.3392,-290.5091 670.035,-283.8992"/>
</g>
<!-- Node78&#45;&gt;Node72 -->
<g id="edge20" class="edge">
<title>Node78&#45;&gt;Node72</title>
<path fill="none" stroke="#191970" d="M697.8366,-248.0073C732.5645,-246.9809 770.0532,-245.8728 793.3994,-245.1828"/>
<polygon fill="#191970" stroke="#191970" points="697.5416,-244.5144 687.6494,-248.3084 697.7484,-251.5113 697.5416,-244.5144"/>
</g>
<!-- Node80 -->
<g id="node17" class="node">
<title>Node80</title>
<g id="a_node17"><a xlink:href="test__heatshrink__dynamic_8c.html#adc66afa12a5eaae0cd12d5cc497f0f67" target="_top" xlink:title="SUITE">
<polygon fill="#ffffff" stroke="#000000" points="793.5,-733 793.5,-752 839.5,-752 839.5,-733 793.5,-733"/>
<text text-anchor="middle" x="816.5" y="-740" font-family="Helvetica,sans-Serif" font-size="10.00" fill="#000000">SUITE</text>
</a>
</g>
</g>
<!-- Node79&#45;&gt;Node80 -->
<g id="edge22" class="edge">
<title>Node79&#45;&gt;Node80</title>
<path fill="none" stroke="#191970" d="M640.1945,-728.604C680.2559,-731.7615 755.2655,-737.6736 793.2241,-740.6654"/>
<polygon fill="#191970" stroke="#191970" points="640.3565,-725.106 630.1123,-727.8093 639.8064,-732.0844 640.3565,-725.106"/>
</g>
<!-- Node82 -->
<g id="node19" class="node">
<title>Node82</title>
<g id="a_node19"><a xlink:href="test__heatshrink__dynamic_8c.html#a9d63746ee6a963338d09b8a19da82529" target="_top" xlink:title="data_without_duplication\l_should_match">
<polygon fill="#ffffff" stroke="#000000" points="753,-569.5 753,-599.5 880,-599.5 880,-569.5 753,-569.5"/>
<text text-anchor="start" x="761" y="-587.5" font-family="Helvetica,sans-Serif" font-size="10.00" fill="#000000">data_without_duplication</text>
<text text-anchor="middle" x="816.5" y="-576.5" font-family="Helvetica,sans-Serif" font-size="10.00" fill="#000000">_should_match</text>
</a>
</g>
</g>
<!-- Node81&#45;&gt;Node82 -->
<g id="edge24" class="edge">
<title>Node81&#45;&gt;Node82</title>
<path fill="none" stroke="#191970" d="M669.6332,-542.5707C687.3084,-548.1396 706.9313,-554.1977 725,-559.5 736.377,-562.8386 748.5922,-566.2768 760.2742,-569.4944"/>
<polygon fill="#191970" stroke="#191970" points="670.6263,-539.214 660.0363,-539.5351 668.5152,-545.8881 670.6263,-539.214"/>
</g>
<!-- Node84 -->
<g id="node21" class="node">
<title>Node84</title>
<g id="a_node21"><a xlink:href="test__heatshrink__dynamic_8c.html#ae9d1425d6c89a652b9df2b4ddc7ac2a2" target="_top" xlink:title="data_with_simple_repetition\l_should_compress_and_decompress\l_properly">
<polygon fill="#ffffff" stroke="#000000" points="725,-509 725,-550 908,-550 908,-509 725,-509"/>
<text text-anchor="start" x="733" y="-538" font-family="Helvetica,sans-Serif" font-size="10.00" fill="#000000">data_with_simple_repetition</text>
<text text-anchor="start" x="733" y="-527" font-family="Helvetica,sans-Serif" font-size="10.00" fill="#000000">_should_compress_and_decompress</text>
<text text-anchor="middle" x="816.5" y="-516" font-family="Helvetica,sans-Serif" font-size="10.00" fill="#000000">_properly</text>
</a>
</g>
</g>
<!-- Node81&#45;&gt;Node84 -->
<g id="edge26" class="edge">
<title>Node81&#45;&gt;Node84</title>
<path fill="none" stroke="#191970" d="M683.6056,-526.2267C696.9396,-526.5552 711.0754,-526.9033 724.9602,-527.2453"/>
<polygon fill="#191970" stroke="#191970" points="683.6659,-522.7273 673.5827,-525.9799 683.4935,-529.7251 683.6659,-522.7273"/>
</g>
<!-- Node85 -->
<g id="node22" class="node">
<title>Node85</title>
<g id="a_node22"><a xlink:href="test__heatshrink__dynamic_8c.html#a60c0e0c5bbb9715c7932ee82e706752d" target="_top" xlink:title="pseudorandom_data_should\l_match">
<polygon fill="#ffffff" stroke="#000000" points="745,-459.5 745,-489.5 888,-489.5 888,-459.5 745,-459.5"/>
<text text-anchor="start" x="753" y="-477.5" font-family="Helvetica,sans-Serif" font-size="10.00" fill="#000000">pseudorandom_data_should</text>
<text text-anchor="middle" x="816.5" y="-466.5" font-family="Helvetica,sans-Serif" font-size="10.00" fill="#000000">_match</text>
</a>
</g>
</g>
<!-- Node81&#45;&gt;Node85 -->
<g id="edge28" class="edge">
<title>Node81&#45;&gt;Node85</title>
<path fill="none" stroke="#191970" d="M683.4579,-507.269C706.8947,-501.4964 732.8227,-495.1102 755.5175,-489.5203"/>
<polygon fill="#191970" stroke="#191970" points="682.4555,-503.9112 673.5827,-509.7013 684.1296,-510.7081 682.4555,-503.9112"/>
</g>
<!-- Node86 -->
<g id="node23" class="node">
<title>Node86</title>
<g id="a_node23"><a xlink:href="test__heatshrink__dynamic_8c.html#a20e1a72bba941f0c602b93b53d32d5db" target="_top" xlink:title="small_input_buffer\l_should_not_impact_decoder\l_correctness">
<polygon fill="#ffffff" stroke="#000000" points="742.5,-399 742.5,-440 890.5,-440 890.5,-399 742.5,-399"/>
<text text-anchor="start" x="750.5" y="-428" font-family="Helvetica,sans-Serif" font-size="10.00" fill="#000000">small_input_buffer</text>
<text text-anchor="start" x="750.5" y="-417" font-family="Helvetica,sans-Serif" font-size="10.00" fill="#000000">_should_not_impact_decoder</text>
<text text-anchor="middle" x="816.5" y="-406" font-family="Helvetica,sans-Serif" font-size="10.00" fill="#000000">_correctness</text>
</a>
</g>
</g>
<!-- Node81&#45;&gt;Node86 -->
<g id="edge30" class="edge">
<title>Node81&#45;&gt;Node86</title>
<path fill="none" stroke="#191970" d="M681.0053,-504.6901C683.7859,-503.0872 686.4661,-501.3602 689,-499.5 711.0734,-483.2952 702.9029,-465.6723 725,-449.5 730.2613,-445.6494 736.0431,-442.2758 742.0647,-439.3232"/>
<polygon fill="#191970" stroke="#191970" points="679.136,-501.7155 671.8398,-509.3977 682.3342,-507.9422 679.136,-501.7155"/>
</g>
<!-- Node87 -->
<g id="node24" class="node">
<title>Node87</title>
<g id="a_node24"><a xlink:href="test__heatshrink__dynamic_8c.html#a462faeb904a3de1b1e009a04f7d171d8" target="_top" xlink:title="regression_backreference\l_counters_should_not_roll_over">
<polygon fill="#ffffff" stroke="#000000" points="737,-349.5 737,-379.5 896,-379.5 896,-349.5 737,-349.5"/>
<text text-anchor="start" x="745" y="-367.5" font-family="Helvetica,sans-Serif" font-size="10.00" fill="#000000">regression_backreference</text>
<text text-anchor="middle" x="816.5" y="-356.5" font-family="Helvetica,sans-Serif" font-size="10.00" fill="#000000">_counters_should_not_roll_over</text>
</a>
</g>
</g>
<!-- Node81&#45;&gt;Node87 -->
<g id="edge32" class="edge">
<title>Node81&#45;&gt;Node87</title>
<path fill="none" stroke="#191970" d="M682.196,-505.308C684.6153,-503.5399 686.8984,-501.6089 689,-499.5 725.3106,-463.0629 687.7358,-424.9613 725,-389.5 729.056,-385.6402 733.6486,-382.3647 738.5637,-379.5864"/>
<polygon fill="#191970" stroke="#191970" points="680.152,-502.4576 673.5122,-510.7137 683.8514,-508.4002 680.152,-502.4576"/>
</g>
<!-- Node88 -->
<g id="node25" class="node">
<title>Node88</title>
<g id="a_node25"><a xlink:href="test__heatshrink__dynamic_8c.html#a2ed8ea21768d114fa96b07eb58475663" target="_top" xlink:title="regression_index_fail">
<polygon fill="#ffffff" stroke="#000000" points="761,-311 761,-330 872,-330 872,-311 761,-311"/>
<text text-anchor="middle" x="816.5" y="-318" font-family="Helvetica,sans-Serif" font-size="10.00" fill="#000000">regression_index_fail</text>
</a>
</g>
</g>
<!-- Node81&#45;&gt;Node88 -->
<g id="edge34" class="edge">
<title>Node81&#45;&gt;Node88</title>
<path fill="none" stroke="#191970" d="M682.3004,-505.6724C684.7073,-503.8056 686.9574,-501.7542 689,-499.5 737.9418,-445.4862 673.0344,-390.6114 725,-339.5 734.6006,-330.0572 747.5941,-324.7403 760.7712,-321.8664"/>
<polygon fill="#191970" stroke="#191970" points="680.065,-502.9509 673.5869,-511.3345 683.8792,-508.8205 680.065,-502.9509"/>
</g>
<!-- Node89 -->
<g id="node26" class="node">
<title>Node89</title>
<g id="a_node26"><a xlink:href="test__heatshrink__dynamic_8c.html#a1bfe72da903d55a8610433a4f2a60d43" target="_top" xlink:title="sixty_four_k">
<polygon fill="#ffffff" stroke="#000000" points="781.5,-273 781.5,-292 851.5,-292 851.5,-273 781.5,-273"/>
<text text-anchor="middle" x="816.5" y="-280" font-family="Helvetica,sans-Serif" font-size="10.00" fill="#000000">sixty_four_k</text>
</a>
</g>
</g>
<!-- Node81&#45;&gt;Node89 -->
<g id="edge36" class="edge">
<title>Node81&#45;&gt;Node89</title>
<path fill="none" stroke="#191970" d="M682.4186,-505.7773C684.7935,-503.8821 687.0046,-501.7961 689,-499.5 747.6702,-431.9884 662.5463,-365.5276 725,-301.5 739.3874,-286.75 762.0188,-281.9587 781.1737,-280.8753"/>
<polygon fill="#191970" stroke="#191970" points="680.1793,-503.063 673.7881,-511.5131 684.0539,-508.8929 680.1793,-503.063"/>
</g>
<!-- Node83 -->
<g id="node20" class="node">
<title>Node83</title>
<g id="a_node20"><a xlink:href="test__heatshrink__dynamic_8c.html#a2f157eb23cb17a496326c14e12933b3b" target="_top" xlink:title="SUITE">
<polygon fill="#ffffff" stroke="#000000" points="944,-465 944,-484 990,-484 990,-465 944,-465"/>
<text text-anchor="middle" x="967" y="-472" font-family="Helvetica,sans-Serif" font-size="10.00" fill="#000000">SUITE</text>
</a>
</g>
</g>
<!-- Node82&#45;&gt;Node83 -->
<g id="edge25" class="edge">
<title>Node82&#45;&gt;Node83</title>
<path fill="none" stroke="#191970" d="M889.7398,-569.5986C896.1973,-566.7931 902.3986,-563.4599 908,-559.5 936.1631,-539.5903 955.269,-501.7326 963.0618,-484.0482"/>
<polygon fill="#191970" stroke="#191970" points="888.1811,-566.4496 880.1355,-573.3429 890.7238,-572.9715 888.1811,-566.4496"/>
</g>
<!-- Node84&#45;&gt;Node83 -->
<g id="edge27" class="edge">
<title>Node84&#45;&gt;Node83</title>
<path fill="none" stroke="#191970" d="M888.4144,-505.5891C895.0542,-503.2449 901.6638,-500.8597 908,-498.5 920.1245,-493.9847 933.4902,-488.5836 944.4301,-484.0495"/>
<polygon fill="#191970" stroke="#191970" points="886.9784,-502.3833 878.6931,-508.9866 889.2879,-508.9914 886.9784,-502.3833"/>
</g>
<!-- Node85&#45;&gt;Node83 -->
<g id="edge29" class="edge">
<title>Node85&#45;&gt;Node83</title>
<path fill="none" stroke="#191970" d="M898.6083,-474.5C915.24,-474.5 931.4212,-474.5 943.8656,-474.5"/>
<polygon fill="#191970" stroke="#191970" points="898.2238,-471.0001 888.2238,-474.5 898.2238,-478.0001 898.2238,-471.0001"/>
</g>
<!-- Node86&#45;&gt;Node83 -->
<g id="edge31" class="edge">
<title>Node86&#45;&gt;Node83</title>
<path fill="none" stroke="#191970" d="M891.2881,-443.4475C896.9628,-445.4394 902.5851,-447.4692 908,-449.5 920.6036,-454.2269 934.4737,-460.0705 945.5974,-464.9192"/>
<polygon fill="#191970" stroke="#191970" points="892.3104,-440.0977 881.7157,-440.1374 890.0227,-446.7133 892.3104,-440.0977"/>
</g>
<!-- Node87&#45;&gt;Node83 -->
<g id="edge33" class="edge">
<title>Node87&#45;&gt;Node83</title>
<path fill="none" stroke="#191970" d="M899.0532,-383.9423C902.16,-385.6421 905.1573,-387.4903 908,-389.5 936.1631,-409.4097 955.269,-447.2674 963.0618,-464.9518"/>
<polygon fill="#191970" stroke="#191970" points="900.5655,-380.7858 890.0448,-379.5344 897.4889,-387.0735 900.5655,-380.7858"/>
</g>
<!-- Node88&#45;&gt;Node83 -->
<g id="edge35" class="edge">
<title>Node88&#45;&gt;Node83</title>
<path fill="none" stroke="#191970" d="M881.9301,-326.0531C891.3644,-329.0463 900.4267,-333.3537 908,-339.5 948.9126,-372.7036 962.1853,-439.8856 965.8092,-464.862"/>
<polygon fill="#191970" stroke="#191970" points="882.5764,-322.6027 872.0107,-323.3876 880.7598,-329.3629 882.5764,-322.6027"/>
</g>
<!-- Node89&#45;&gt;Node83 -->
<g id="edge37" class="edge">
<title>Node89&#45;&gt;Node83</title>
<path fill="none" stroke="#191970" d="M862.2777,-282.9251C878.3704,-285.2486 895.5305,-290.4875 908,-301.5 933.6882,-324.1868 958.0305,-431.7507 965.0103,-464.8106"/>
<polygon fill="#191970" stroke="#191970" points="862.239,-279.3999 851.9168,-281.7878 861.4751,-286.3581 862.239,-279.3999"/>
</g>
<!-- Node90&#45;&gt;Node83 -->
<g id="edge39" class="edge">
<title>Node90&#45;&gt;Node83</title>
<path fill="none" stroke="#191970" d="M698.7456,-661.9289C762.224,-673.372 847.9336,-677.1327 908,-634.5 933.9538,-616.079 957.9283,-515.7455 964.9418,-484.08"/>
<polygon fill="#191970" stroke="#191970" points="699.2333,-658.459 688.7559,-660.0323 697.9276,-665.3362 699.2333,-658.459"/>
</g>
<!-- Node91&#45;&gt;Node83 -->
<g id="edge41" class="edge">
<title>Node91&#45;&gt;Node83</title>
<path fill="none" stroke="#191970" d="M690.9391,-602.3316C702.2738,-604.8859 713.8749,-607.0769 725,-608.5 805.676,-618.8198 839.8796,-652.9378 908,-608.5 952.0696,-579.7516 963.446,-509.8824 966.1865,-484.1888"/>
<polygon fill="#191970" stroke="#191970" points="691.6019,-598.8919 681.0656,-600.0036 689.9955,-605.7051 691.6019,-598.8919"/>
</g>
<!-- Node92&#45;&gt;Node68 -->
<g id="edge43" class="edge">
<title>Node92&#45;&gt;Node68</title>
<path fill="none" stroke="#191970" d="M439.9421,-440.2545C445.6687,-487.4366 466.8387,-607.373 538,-669.5 544.9237,-675.5447 553.4962,-679.7187 562.3531,-682.5894"/>
<polygon fill="#191970" stroke="#191970" points="443.4016,-439.6943 438.8212,-430.1408 436.4442,-440.4655 443.4016,-439.6943"/>
</g>
<!-- Node92&#45;&gt;Node75 -->
<g id="edge48" class="edge">
<title>Node92&#45;&gt;Node75</title>
<path fill="none" stroke="#191970" d="M481.8999,-406.6105C489.5159,-402.4799 496.6834,-397.2028 502,-390.5 549.994,-329.992 488.2092,-279.5383 538,-220.5 541.0007,-216.9419 544.4824,-213.8027 548.2712,-211.0334"/>
<polygon fill="#191970" stroke="#191970" points="480.3453,-403.4743 472.8374,-410.9497 483.3683,-409.7879 480.3453,-403.4743"/>
</g>
<!-- Node92&#45;&gt;Node76 -->
<g id="edge49" class="edge">
<title>Node92&#45;&gt;Node76</title>
<path fill="none" stroke="#191970" d="M475.4046,-407.7121C498.1009,-399.9527 527.588,-389.8716 553.4835,-381.0184"/>
<polygon fill="#191970" stroke="#191970" points="474.1385,-404.446 465.8085,-410.9928 476.4031,-411.0696 474.1385,-404.446"/>
</g>
<!-- Node92&#45;&gt;Node77 -->
<g id="edge50" class="edge">
<title>Node92&#45;&gt;Node77</title>
<path fill="none" stroke="#191970" d="M476.7716,-406.8113C485.6956,-402.4962 494.699,-397.0913 502,-390.5 525.0832,-369.6607 513.7226,-349.935 538,-330.5 542.8506,-326.6169 548.3287,-323.3265 554.064,-320.5404"/>
<polygon fill="#191970" stroke="#191970" points="475.2793,-403.6445 467.5754,-410.9178 478.1335,-410.0362 475.2793,-403.6445"/>
</g>
<!-- Node92&#45;&gt;Node78 -->
<g id="edge51" class="edge">
<title>Node92&#45;&gt;Node78</title>
<path fill="none" stroke="#191970" d="M480.3692,-406.6525C488.382,-402.4807 496.0918,-397.1772 502,-390.5 536.0879,-351.9754 502.7697,-317.9827 538,-280.5 541.2843,-277.0057 545.028,-273.9104 549.0511,-271.1697"/>
<polygon fill="#191970" stroke="#191970" points="478.8571,-403.4957 471.2737,-410.8946 481.8159,-409.8397 478.8571,-403.4957"/>
</g>
<!-- Node92&#45;&gt;Node79 -->
<g id="edge52" class="edge">
<title>Node92&#45;&gt;Node79</title>
<path fill="none" stroke="#191970" d="M438.759,-440.3742C441.8627,-492.4641 457.6558,-633.987 538,-707.5 554.1547,-722.2811 580.0977,-725.9635 596.9715,-726.6748"/>
<polygon fill="#191970" stroke="#191970" points="442.2433,-439.9717 438.25,-430.1583 435.252,-440.3201 442.2433,-439.9717"/>
</g>
<!-- Node92&#45;&gt;Node81 -->
<g id="edge53" class="edge">
<title>Node92&#45;&gt;Node81</title>
<path fill="none" stroke="#191970" d="M455.167,-437.1826C474.0921,-454.7871 506.102,-482.314 538,-499.5 544.9287,-503.233 552.5149,-506.5431 560.1223,-509.4334"/>
<polygon fill="#191970" stroke="#191970" points="457.3364,-434.4167 447.6677,-430.0847 452.5245,-439.5007 457.3364,-434.4167"/>
</g>
<!-- Node92&#45;&gt;Node90 -->
<g id="edge54" class="edge">
<title>Node92&#45;&gt;Node90</title>
<path fill="none" stroke="#191970" d="M443.346,-440.0054C454.6473,-477.7858 484.429,-561.4444 538,-609.5 541.8847,-612.9848 546.2236,-616.0889 550.8043,-618.8496"/>
<polygon fill="#191970" stroke="#191970" points="446.6638,-438.8786 440.5344,-430.2368 439.9369,-440.8147 446.6638,-438.8786"/>
</g>
<!-- Node92&#45;&gt;Node91 -->
<g id="edge55" class="edge">
<title>Node92&#45;&gt;Node91</title>
<path fill="none" stroke="#191970" d="M448.2998,-439.1747C464.251,-466.5624 497.3689,-517.7017 538,-548.5 543.0815,-552.3517 548.7093,-555.8072 554.5345,-558.8867"/>
<polygon fill="#191970" stroke="#191970" points="451.2045,-437.2021 443.2176,-430.2407 445.12,-440.6634 451.2045,-437.2021"/>
</g>
<!-- Node93 -->
<g id="node30" class="node">
<title>Node93</title>
<g id="a_node30"><a xlink:href="test__heatshrink__dynamic_8c.html#ade6da42ddec3e9a2d8fe58597792b843" target="_top" xlink:title="encoder_poll_should\l_reject_nulls">
<polygon fill="#ffffff" stroke="#000000" points="559,-460.5 559,-490.5 668,-490.5 668,-460.5 559,-460.5"/>
<text text-anchor="start" x="567" y="-478.5" font-family="Helvetica,sans-Serif" font-size="10.00" fill="#000000">encoder_poll_should</text>
<text text-anchor="middle" x="613.5" y="-467.5" font-family="Helvetica,sans-Serif" font-size="10.00" fill="#000000">_reject_nulls</text>
</a>
</g>
</g>
<!-- Node92&#45;&gt;Node93 -->
<g id="edge44" class="edge">
<title>Node92&#45;&gt;Node93</title>
<path fill="none" stroke="#191970" d="M478.4431,-433.1745C504.3631,-441.2976 538.1382,-451.8823 565.4278,-460.4346"/>
<polygon fill="#191970" stroke="#191970" points="479.1588,-429.731 468.5698,-430.0803 477.0655,-436.4107 479.1588,-429.731"/>
</g>
<!-- Node94 -->
<g id="node31" class="node">
<title>Node94</title>
<g id="a_node31"><a xlink:href="test__heatshrink__dynamic_8c.html#aa662e805dae6d002db06dc962e7440f9" target="_top" xlink:title="encoder_poll_should\l_indicate_when_no_input\l_is_provided">
<polygon fill="#ffffff" stroke="#000000" points="548.5,-400 548.5,-441 678.5,-441 678.5,-400 548.5,-400"/>
<text text-anchor="start" x="556.5" y="-429" font-family="Helvetica,sans-Serif" font-size="10.00" fill="#000000">encoder_poll_should</text>
<text text-anchor="start" x="556.5" y="-418" font-family="Helvetica,sans-Serif" font-size="10.00" fill="#000000">_indicate_when_no_input</text>
<text text-anchor="middle" x="613.5" y="-407" font-family="Helvetica,sans-Serif" font-size="10.00" fill="#000000">_is_provided</text>
</a>
</g>
</g>
<!-- Node92&#45;&gt;Node94 -->
<g id="edge46" class="edge">
<title>Node92&#45;&gt;Node94</title>
<path fill="none" stroke="#191970" d="M511.136,-420.5C523.503,-420.5 536.2685,-420.5 548.4123,-420.5"/>
<polygon fill="#191970" stroke="#191970" points="510.8639,-417.0001 500.8638,-420.5 510.8638,-424.0001 510.8639,-417.0001"/>
</g>
<!-- Node93&#45;&gt;Node72 -->
<g id="edge45" class="edge">
<title>Node93&#45;&gt;Node72</title>
<path fill="none" stroke="#191970" d="M677.0486,-460.5174C681.4872,-457.7272 685.5578,-454.4198 689,-450.5 744.8473,-386.9033 665.5895,-323.7815 725,-263.5 742.6522,-245.589 772.4719,-242.4019 793.2538,-242.6749"/>
<polygon fill="#191970" stroke="#191970" points="675.3072,-457.4794 668.1279,-465.271 678.5991,-463.6571 675.3072,-457.4794"/>
</g>
<!-- Node94&#45;&gt;Node72 -->
<g id="edge47" class="edge">
<title>Node94&#45;&gt;Node72</title>
<path fill="none" stroke="#191970" d="M686.1791,-393.4055C687.1545,-392.4692 688.0962,-391.5011 689,-390.5 728.316,-346.9543 682.0594,-303.476 725,-263.5 743.2873,-246.4752 772.6845,-243.0577 793.2072,-243.0371"/>
<polygon fill="#191970" stroke="#191970" points="683.6529,-390.9489 678.1083,-399.9771 688.0728,-396.3771 683.6529,-390.9489"/>
</g>
<!-- Node95&#45;&gt;Node67 -->
<g id="edge57" class="edge">
<title>Node95&#45;&gt;Node67</title>
<path fill="none" stroke="#191970" d="M344.6161,-371.5C354.0755,-371.5 364.0424,-371.5 373.8011,-371.5"/>
<polygon fill="#191970" stroke="#191970" points="344.5847,-368.0001 334.5846,-371.5 344.5846,-375.0001 344.5847,-368.0001"/>
</g>
<!-- Node95&#45;&gt;Node92 -->
<g id="edge58" class="edge">
<title>Node95&#45;&gt;Node92</title>
<path fill="none" stroke="#191970" d="M330.6934,-384.3624C355.4491,-392.6994 387.1589,-403.3783 409.6724,-410.9601"/>
<polygon fill="#191970" stroke="#191970" points="331.4934,-380.9387 320.8993,-381.064 329.2592,-387.5726 331.4934,-380.9387"/>
</g>
</g>
</svg>
