<?xml version="1.0" encoding="UTF-8" standalone="no"?>
<!DOCTYPE svg PUBLIC "-//W3C//DTD SVG 1.1//EN"
 "http://www.w3.org/Graphics/SVG/1.1/DTD/svg11.dtd">
<!-- Generated by graphviz version 2.41.20170323.1842 (20170323.1842)
 -->
<!-- Title: push_outgoing_bits Pages: 1 -->
<svg width="897pt" height="761pt"
 viewBox="0.00 0.00 897.00 760.50" xmlns="http://www.w3.org/2000/svg" xmlns:xlink="http://www.w3.org/1999/xlink">
<g id="graph0" class="graph" transform="scale(1 1) rotate(0) translate(4 756.5)">
<title>push_outgoing_bits</title>
<polygon fill="#ffffff" stroke="transparent" points="-4,4 -4,-756.5 893,-756.5 893,4 -4,4"/>
<!-- Node676 -->
<g id="node1" class="node">
<title>Node676</title>
<polygon fill="#bfbfbf" stroke="#000000" points="0,-381 0,-400 103,-400 103,-381 0,-381"/>
<text text-anchor="middle" x="51.5" y="-388" font-family="Helvetica,sans-Serif" font-size="10.00" fill="#000000">push_outgoing_bits</text>
</g>
<!-- Node677 -->
<g id="node2" class="node">
<title>Node677</title>
<g id="a_node2"><a xlink:href="heatshrink__encoder_8c.html#aa61e20c524c12e2672fd275b136d9848" target="_top" xlink:title="st_yield_br_index">
<polygon fill="#ffffff" stroke="#000000" points="141,-362 141,-381 235,-381 235,-362 141,-362"/>
<text text-anchor="middle" x="188" y="-369" font-family="Helvetica,sans-Serif" font-size="10.00" fill="#000000">st_yield_br_index</text>
</a>
</g>
</g>
<!-- Node676&#45;&gt;Node677 -->
<g id="edge1" class="edge">
<title>Node676&#45;&gt;Node677</title>
<path fill="none" stroke="#191970" d="M113.1029,-381.9252C122.4076,-380.6301 131.8786,-379.3118 140.8154,-378.0678"/>
<polygon fill="#191970" stroke="#191970" points="112.5268,-378.4716 103.1048,-383.3169 113.4919,-385.4048 112.5268,-378.4716"/>
</g>
<!-- Node706 -->
<g id="node31" class="node">
<title>Node706</title>
<g id="a_node31"><a xlink:href="heatshrink__encoder_8c.html#a00a38065f94d12a3ba3a04c9472b4216" target="_top" xlink:title="st_yield_br_length">
<polygon fill="#ffffff" stroke="#000000" points="139,-400 139,-419 237,-419 237,-400 139,-400"/>
<text text-anchor="middle" x="188" y="-407" font-family="Helvetica,sans-Serif" font-size="10.00" fill="#000000">st_yield_br_length</text>
</a>
</g>
</g>
<!-- Node676&#45;&gt;Node706 -->
<g id="edge55" class="edge">
<title>Node676&#45;&gt;Node706</title>
<path fill="none" stroke="#191970" d="M113.045,-399.0667C121.5957,-400.2569 130.2882,-401.4669 138.5787,-402.6208"/>
<polygon fill="#191970" stroke="#191970" points="113.4919,-395.5952 103.1048,-397.6831 112.5268,-402.5284 113.4919,-395.5952"/>
</g>
<!-- Node678 -->
<g id="node3" class="node">
<title>Node678</title>
<g id="a_node3"><a xlink:href="heatshrink__encoder_8h.html#aa1a92f13d1ef65546bb40ece94b2066e" target="_top" xlink:title="heatshrink_encoder_sink">
<polygon fill="#ffffff" stroke="#000000" points="273,-362 273,-381 401,-381 401,-362 273,-362"/>
<text text-anchor="middle" x="337" y="-369" font-family="Helvetica,sans-Serif" font-size="10.00" fill="#000000">heatshrink_encoder_sink</text>
</a>
</g>
</g>
<!-- Node677&#45;&gt;Node678 -->
<g id="edge2" class="edge">
<title>Node677&#45;&gt;Node678</title>
<path fill="none" stroke="#191970" d="M245.2223,-371.5C254.3126,-371.5 263.7661,-371.5 273,-371.5"/>
<polygon fill="#191970" stroke="#191970" points="245.1446,-368.0001 235.1445,-371.5 245.1445,-375.0001 245.1446,-368.0001"/>
</g>
<!-- Node703 -->
<g id="node28" class="node">
<title>Node703</title>
<g id="a_node28"><a xlink:href="heatshrink__encoder_8h.html#a7de708b2cb0d016d9183b0addf6126f3" target="_top" xlink:title="heatshrink_encoder_poll">
<polygon fill="#ffffff" stroke="#000000" points="274.5,-411 274.5,-430 399.5,-430 399.5,-411 274.5,-411"/>
<text text-anchor="middle" x="337" y="-418" font-family="Helvetica,sans-Serif" font-size="10.00" fill="#000000">heatshrink_encoder_poll</text>
</a>
</g>
</g>
<!-- Node677&#45;&gt;Node703 -->
<g id="edge41" class="edge">
<title>Node677&#45;&gt;Node703</title>
<path fill="none" stroke="#191970" d="M226.7745,-384.2514C252.1745,-392.6044 284.8335,-403.3446 307.9909,-410.9601"/>
<polygon fill="#191970" stroke="#191970" points="227.6753,-380.8633 217.0824,-381.064 225.4885,-387.5129 227.6753,-380.8633"/>
</g>
<!-- Node679 -->
<g id="node4" class="node">
<title>Node679</title>
<g id="a_node4"><a xlink:href="heatshrink_8c.html#a593e86bba4eca0be280740fcf509bc12" target="_top" xlink:title="encoder_sink_read">
<polygon fill="#ffffff" stroke="#000000" points="461.5,-679 461.5,-698 563.5,-698 563.5,-679 461.5,-679"/>
<text text-anchor="middle" x="512.5" y="-686" font-family="Helvetica,sans-Serif" font-size="10.00" fill="#000000">encoder_sink_read</text>
</a>
</g>
</g>
<!-- Node678&#45;&gt;Node679 -->
<g id="edge3" class="edge">
<title>Node678&#45;&gt;Node679</title>
<path fill="none" stroke="#191970" d="M382.2562,-385.6087C389.4753,-389.6888 396.1511,-394.8912 401,-401.5 472.0944,-498.397 356.954,-579.8557 437,-669.5 443.3918,-676.6582 452.0455,-681.3073 461.2149,-684.2885"/>
<polygon fill="#191970" stroke="#191970" points="383.4365,-382.289 372.918,-381.0196 380.349,-388.5714 383.4365,-382.289"/>
</g>
<!-- Node682 -->
<g id="node7" class="node">
<title>Node682</title>
<g id="a_node7"><a xlink:href="test__heatshrink__dynamic_8c.html#a9b30a495760400a59637e7d708e63ae0" target="_top" xlink:title="encoder_sink_should\l_reject_nulls">
<polygon fill="#ffffff" stroke="#000000" points="457,-.5 457,-30.5 568,-30.5 568,-.5 457,-.5"/>
<text text-anchor="start" x="465" y="-18.5" font-family="Helvetica,sans-Serif" font-size="10.00" fill="#000000">encoder_sink_should</text>
<text text-anchor="middle" x="512.5" y="-7.5" font-family="Helvetica,sans-Serif" font-size="10.00" fill="#000000">_reject_nulls</text>
</a>
</g>
</g>
<!-- Node678&#45;&gt;Node682 -->
<g id="edge6" class="edge">
<title>Node678&#45;&gt;Node682</title>
<path fill="none" stroke="#191970" d="M340.4715,-351.9631C352.1871,-288.05 392.0547,-86.6463 437,-40.5 442.5876,-34.7631 449.5188,-30.3424 456.898,-26.9361"/>
<polygon fill="#191970" stroke="#191970" points="337.0055,-351.4619 338.6707,-361.9251 343.8938,-352.7072 337.0055,-351.4619"/>
</g>
<!-- Node684 -->
<g id="node9" class="node">
<title>Node684</title>
<g id="a_node9"><a xlink:href="test__heatshrink__dynamic_8c.html#a1c4dab770a7df0935018c3a685f5b1ff" target="_top" xlink:title="encoder_sink_should\l_accept_input_when_it\l_will_fit">
<polygon fill="#ffffff" stroke="#000000" points="453,-110 453,-151 572,-151 572,-110 453,-110"/>
<text text-anchor="start" x="461" y="-139" font-family="Helvetica,sans-Serif" font-size="10.00" fill="#000000">encoder_sink_should</text>
<text text-anchor="start" x="461" y="-128" font-family="Helvetica,sans-Serif" font-size="10.00" fill="#000000">_accept_input_when_it</text>
<text text-anchor="middle" x="512.5" y="-117" font-family="Helvetica,sans-Serif" font-size="10.00" fill="#000000">_will_fit</text>
</a>
</g>
</g>
<!-- Node678&#45;&gt;Node684 -->
<g id="edge8" class="edge">
<title>Node678&#45;&gt;Node684</title>
<path fill="none" stroke="#191970" d="M341.2118,-351.7122C350.9455,-310.5725 378.7601,-215.1073 437,-160.5 441.733,-156.0622 447.2028,-152.2506 452.9917,-148.9835"/>
<polygon fill="#191970" stroke="#191970" points="337.7712,-351.0589 338.981,-361.5844 344.5991,-352.6018 337.7712,-351.0589"/>
</g>
<!-- Node685 -->
<g id="node10" class="node">
<title>Node685</title>
<g id="a_node10"><a xlink:href="test__heatshrink__dynamic_8c.html#a73ee2ec6f21d5e0ce0e34902a1aebccb" target="_top" xlink:title="encoder_sink_should\l_accept_partial_input\l_when_some_will_fit">
<polygon fill="#ffffff" stroke="#000000" points="456.5,-50 456.5,-91 568.5,-91 568.5,-50 456.5,-50"/>
<text text-anchor="start" x="464.5" y="-79" font-family="Helvetica,sans-Serif" font-size="10.00" fill="#000000">encoder_sink_should</text>
<text text-anchor="start" x="464.5" y="-68" font-family="Helvetica,sans-Serif" font-size="10.00" fill="#000000">_accept_partial_input</text>
<text text-anchor="middle" x="512.5" y="-57" font-family="Helvetica,sans-Serif" font-size="10.00" fill="#000000">_when_some_will_fit</text>
</a>
</g>
</g>
<!-- Node678&#45;&gt;Node685 -->
<g id="edge10" class="edge">
<title>Node678&#45;&gt;Node685</title>
<path fill="none" stroke="#191970" d="M338.8477,-351.66C344.4482,-302.5069 365.5117,-173.7775 437,-100.5 442.5156,-94.8463 449.231,-90.2306 456.3572,-86.4692"/>
<polygon fill="#191970" stroke="#191970" points="335.3383,-351.5683 337.7809,-361.8777 342.3005,-352.2952 335.3383,-351.5683"/>
</g>
<!-- Node686 -->
<g id="node11" class="node">
<title>Node686</title>
<g id="a_node11"><a xlink:href="test__heatshrink__dynamic_8c.html#a5339595930b85317e810fcf251b86351" target="_top" xlink:title="encoder_should_emit\l_data_without_repetitions\l_as_literal_sequence">
<polygon fill="#ffffff" stroke="#000000" points="447.5,-170 447.5,-211 577.5,-211 577.5,-170 447.5,-170"/>
<text text-anchor="start" x="455.5" y="-199" font-family="Helvetica,sans-Serif" font-size="10.00" fill="#000000">encoder_should_emit</text>
<text text-anchor="start" x="455.5" y="-188" font-family="Helvetica,sans-Serif" font-size="10.00" fill="#000000">_data_without_repetitions</text>
<text text-anchor="middle" x="512.5" y="-177" font-family="Helvetica,sans-Serif" font-size="10.00" fill="#000000">_as_literal_sequence</text>
</a>
</g>
</g>
<!-- Node678&#45;&gt;Node686 -->
<g id="edge12" class="edge">
<title>Node678&#45;&gt;Node686</title>
<path fill="none" stroke="#191970" d="M344.9585,-352.5189C359.0796,-320.9667 391.3862,-257.5401 437,-220.5 441.2702,-217.0325 445.9915,-213.9252 450.9275,-211.1488"/>
<polygon fill="#191970" stroke="#191970" points="341.6517,-351.3469 340.8739,-361.9131 348.0711,-354.1381 341.6517,-351.3469"/>
</g>
<!-- Node687 -->
<g id="node12" class="node">
<title>Node687</title>
<g id="a_node12"><a xlink:href="test__heatshrink__dynamic_8c.html#ae27157a664552fa0744d095239ee0d88" target="_top" xlink:title="encoder_should_emit\l_series_of_same_byte\l_as_literal_then_backref">
<polygon fill="#ffffff" stroke="#000000" points="450,-340 450,-381 575,-381 575,-340 450,-340"/>
<text text-anchor="start" x="458" y="-369" font-family="Helvetica,sans-Serif" font-size="10.00" fill="#000000">encoder_should_emit</text>
<text text-anchor="start" x="458" y="-358" font-family="Helvetica,sans-Serif" font-size="10.00" fill="#000000">_series_of_same_byte</text>
<text text-anchor="middle" x="512.5" y="-347" font-family="Helvetica,sans-Serif" font-size="10.00" fill="#000000">_as_literal_then_backref</text>
</a>
</g>
</g>
<!-- Node678&#45;&gt;Node687 -->
<g id="edge14" class="edge">
<title>Node678&#45;&gt;Node687</title>
<path fill="none" stroke="#191970" d="M411.5072,-366.83C424.2978,-366.0283 437.4727,-365.2026 449.9108,-364.423"/>
<polygon fill="#191970" stroke="#191970" points="411.1146,-363.3477 401.3532,-367.4665 411.5526,-370.334 411.1146,-363.3477"/>
</g>
<!-- Node688 -->
<g id="node13" class="node">
<title>Node688</title>
<g id="a_node13"><a xlink:href="test__heatshrink__dynamic_8c.html#a2d84dd546b011bb6cfc3b1e9a9a5616b" target="_top" xlink:title="encoder_poll_should\l_detect_repeated_substring">
<polygon fill="#ffffff" stroke="#000000" points="442.5,-290.5 442.5,-320.5 582.5,-320.5 582.5,-290.5 442.5,-290.5"/>
<text text-anchor="start" x="450.5" y="-308.5" font-family="Helvetica,sans-Serif" font-size="10.00" fill="#000000">encoder_poll_should</text>
<text text-anchor="middle" x="512.5" y="-297.5" font-family="Helvetica,sans-Serif" font-size="10.00" fill="#000000">_detect_repeated_substring</text>
</a>
</g>
</g>
<!-- Node678&#45;&gt;Node688 -->
<g id="edge16" class="edge">
<title>Node678&#45;&gt;Node688</title>
<path fill="none" stroke="#191970" d="M368.4224,-357.9623C388.0114,-349.6864 413.8168,-339.0791 437,-330.5 446.0645,-327.1456 455.8169,-323.7564 465.2032,-320.6023"/>
<polygon fill="#191970" stroke="#191970" points="366.9038,-354.8047 359.0686,-361.9364 369.641,-361.2473 366.9038,-354.8047"/>
</g>
<!-- Node689 -->
<g id="node14" class="node">
<title>Node689</title>
<g id="a_node14"><a xlink:href="test__heatshrink__dynamic_8c.html#ab068727669a416029bacc708b2aac5ac" target="_top" xlink:title="encoder_poll_should\l_detect_repeated_substring\l_and_preserve_trailing_literal">
<polygon fill="#ffffff" stroke="#000000" points="438.5,-230 438.5,-271 586.5,-271 586.5,-230 438.5,-230"/>
<text text-anchor="start" x="446.5" y="-259" font-family="Helvetica,sans-Serif" font-size="10.00" fill="#000000">encoder_poll_should</text>
<text text-anchor="start" x="446.5" y="-248" font-family="Helvetica,sans-Serif" font-size="10.00" fill="#000000">_detect_repeated_substring</text>
<text text-anchor="middle" x="512.5" y="-237" font-family="Helvetica,sans-Serif" font-size="10.00" fill="#000000">_and_preserve_trailing_literal</text>
</a>
</g>
</g>
<!-- Node678&#45;&gt;Node689 -->
<g id="edge18" class="edge">
<title>Node678&#45;&gt;Node689</title>
<path fill="none" stroke="#191970" d="M352.2218,-354.306C370.6468,-334.3439 403.4025,-301.4829 437,-280.5 442.503,-277.0632 448.4661,-273.8928 454.5462,-271.0041"/>
<polygon fill="#191970" stroke="#191970" points="349.5874,-352.0008 345.4575,-361.7576 354.7704,-356.7057 349.5874,-352.0008"/>
</g>
<!-- Node690 -->
<g id="node15" class="node">
<title>Node690</title>
<g id="a_node15"><a xlink:href="test__heatshrink__dynamic_8c.html#a6627d0e00f7e636ae9294cc6255c7ffd" target="_top" xlink:title="gen">
<polygon fill="#ffffff" stroke="#000000" points="496,-717 496,-736 529,-736 529,-717 496,-717"/>
<text text-anchor="middle" x="512.5" y="-724" font-family="Helvetica,sans-Serif" font-size="10.00" fill="#000000">gen</text>
</a>
</g>
</g>
<!-- Node678&#45;&gt;Node690 -->
<g id="edge20" class="edge">
<title>Node678&#45;&gt;Node690</title>
<path fill="none" stroke="#191970" d="M382.5729,-385.6733C389.6956,-389.7404 396.256,-394.9216 401,-401.5 481.0981,-512.5689 346.6348,-604.6111 437,-707.5 451.6278,-724.1551 478.499,-727.2685 495.9234,-727.3552"/>
<polygon fill="#191970" stroke="#191970" points="383.8583,-382.404 373.3445,-381.0963 380.748,-388.6751 383.8583,-382.404"/>
</g>
<!-- Node692 -->
<g id="node17" class="node">
<title>Node692</title>
<g id="a_node17"><a xlink:href="test__heatshrink__dynamic_8c.html#ab9096be17a9dc8f301673949558e5bd6" target="_top" xlink:title="compress_and_expand\l_and_check">
<polygon fill="#ffffff" stroke="#000000" points="452.5,-509.5 452.5,-539.5 572.5,-539.5 572.5,-509.5 452.5,-509.5"/>
<text text-anchor="start" x="460.5" y="-527.5" font-family="Helvetica,sans-Serif" font-size="10.00" fill="#000000">compress_and_expand</text>
<text text-anchor="middle" x="512.5" y="-516.5" font-family="Helvetica,sans-Serif" font-size="10.00" fill="#000000">_and_check</text>
</a>
</g>
</g>
<!-- Node678&#45;&gt;Node692 -->
<g id="edge22" class="edge">
<title>Node678&#45;&gt;Node692</title>
<path fill="none" stroke="#191970" d="M378.9462,-385.3872C387.057,-389.5671 394.9131,-394.8638 401,-401.5 432.365,-435.6954 403.664,-467.2231 437,-499.5 441.4639,-503.822 446.6913,-507.3971 452.2759,-510.3542"/>
<polygon fill="#191970" stroke="#191970" points="380.306,-382.1598 369.7612,-381.1307 377.3627,-388.511 380.306,-382.1598"/>
</g>
<!-- Node701 -->
<g id="node26" class="node">
<title>Node701</title>
<g id="a_node26"><a xlink:href="test__heatshrink__dynamic_8c.html#a9a102029b8375d4050406a2814f390ac" target="_top" xlink:title="data_without_duplication\l_should_match_with_absurdly\l_tiny_buffers">
<polygon fill="#ffffff" stroke="#000000" points="437,-619 437,-660 588,-660 588,-619 437,-619"/>
<text text-anchor="start" x="445" y="-648" font-family="Helvetica,sans-Serif" font-size="10.00" fill="#000000">data_without_duplication</text>
<text text-anchor="start" x="445" y="-637" font-family="Helvetica,sans-Serif" font-size="10.00" fill="#000000">_should_match_with_absurdly</text>
<text text-anchor="middle" x="512.5" y="-626" font-family="Helvetica,sans-Serif" font-size="10.00" fill="#000000">_tiny_buffers</text>
</a>
</g>
</g>
<!-- Node678&#45;&gt;Node701 -->
<g id="edge37" class="edge">
<title>Node678&#45;&gt;Node701</title>
<path fill="none" stroke="#191970" d="M381.8239,-385.633C389.1498,-389.7178 395.9745,-394.9156 401,-401.5 457.9211,-476.0785 377.8632,-536.6658 437,-609.5 439.845,-613.0039 443.1584,-616.1006 446.7786,-618.8371"/>
<polygon fill="#191970" stroke="#191970" points="382.8975,-382.2631 372.3742,-381.0338 379.8341,-388.5572 382.8975,-382.2631"/>
</g>
<!-- Node702 -->
<g id="node27" class="node">
<title>Node702</title>
<g id="a_node27"><a xlink:href="test__heatshrink__dynamic_8c.html#acd64db79d79999a7c5436d35b74a7f40" target="_top" xlink:title="data_with_simple_repetition\l_should_match_with_absurdly\l_tiny_buffers">
<polygon fill="#ffffff" stroke="#000000" points="437,-559 437,-600 588,-600 588,-559 437,-559"/>
<text text-anchor="start" x="445" y="-588" font-family="Helvetica,sans-Serif" font-size="10.00" fill="#000000">data_with_simple_repetition</text>
<text text-anchor="start" x="445" y="-577" font-family="Helvetica,sans-Serif" font-size="10.00" fill="#000000">_should_match_with_absurdly</text>
<text text-anchor="middle" x="512.5" y="-566" font-family="Helvetica,sans-Serif" font-size="10.00" fill="#000000">_tiny_buffers</text>
</a>
</g>
</g>
<!-- Node678&#45;&gt;Node702 -->
<g id="edge39" class="edge">
<title>Node678&#45;&gt;Node702</title>
<path fill="none" stroke="#191970" d="M380.4972,-385.3967C388.2143,-389.5353 395.5227,-394.8135 401,-401.5 443.6246,-453.5345 393.1204,-497.5194 437,-548.5 440.4201,-552.4736 444.4287,-555.9461 448.7843,-558.9794"/>
<polygon fill="#191970" stroke="#191970" points="381.87,-382.1741 371.3354,-381.0458 378.8671,-388.4973 381.87,-382.1741"/>
</g>
<!-- Node680 -->
<g id="node5" class="node">
<title>Node680</title>
<g id="a_node5"><a xlink:href="heatshrink_8c.html#a37f19023beced8a782d3051bfd7a0bcb" target="_top" xlink:title="encode">
<polygon fill="#ffffff" stroke="#000000" points="691,-695 691,-714 740,-714 740,-695 691,-695"/>
<text text-anchor="middle" x="715.5" y="-702" font-family="Helvetica,sans-Serif" font-size="10.00" fill="#000000">encode</text>
</a>
</g>
</g>
<!-- Node679&#45;&gt;Node680 -->
<g id="edge4" class="edge">
<title>Node679&#45;&gt;Node680</title>
<path fill="none" stroke="#191970" d="M573.7457,-693.3272C613.0262,-696.4232 661.9052,-700.2758 690.7985,-702.5531"/>
<polygon fill="#191970" stroke="#191970" points="573.9696,-689.8341 563.7255,-692.5375 573.4195,-696.8125 573.9696,-689.8341"/>
</g>
<!-- Node681 -->
<g id="node6" class="node">
<title>Node681</title>
<g id="a_node6"><a xlink:href="heatshrink_8c.html#a3c04138a5bfe5d72780bb7e82a18e627" target="_top" xlink:title="main">
<polygon fill="#ffffff" stroke="#000000" points="847,-695 847,-714 885,-714 885,-695 847,-695"/>
<text text-anchor="middle" x="866" y="-702" font-family="Helvetica,sans-Serif" font-size="10.00" fill="#000000">main</text>
</a>
</g>
</g>
<!-- Node680&#45;&gt;Node681 -->
<g id="edge5" class="edge">
<title>Node680&#45;&gt;Node681</title>
<path fill="none" stroke="#191970" d="M750.0644,-704.5C780.0704,-704.5 822.4177,-704.5 846.7563,-704.5"/>
<polygon fill="#191970" stroke="#191970" points="750.0154,-701.0001 740.0154,-704.5 750.0153,-708.0001 750.0154,-701.0001"/>
</g>
<!-- Node683 -->
<g id="node8" class="node">
<title>Node683</title>
<g id="a_node8"><a xlink:href="test__heatshrink__dynamic_8c.html#ac4a70b7ac22f00448c1d17d2b29a1359" target="_top" xlink:title="SUITE">
<polygon fill="#ffffff" stroke="#000000" points="692.5,-235 692.5,-254 738.5,-254 738.5,-235 692.5,-235"/>
<text text-anchor="middle" x="715.5" y="-242" font-family="Helvetica,sans-Serif" font-size="10.00" fill="#000000">SUITE</text>
</a>
</g>
</g>
<!-- Node682&#45;&gt;Node683 -->
<g id="edge7" class="edge">
<title>Node682&#45;&gt;Node683</title>
<path fill="none" stroke="#191970" d="M577.3785,-33.4893C581.124,-35.5805 584.7022,-37.9088 588,-40.5 658.6067,-95.9779 700.5467,-202.1591 712.1696,-234.7473"/>
<polygon fill="#191970" stroke="#191970" points="578.9018,-30.338 568.3883,-29.0277 575.79,-36.6083 578.9018,-30.338"/>
</g>
<!-- Node684&#45;&gt;Node683 -->
<g id="edge9" class="edge">
<title>Node684&#45;&gt;Node683</title>
<path fill="none" stroke="#191970" d="M577.1973,-155.1792C580.8868,-156.9042 584.5114,-158.6821 588,-160.5 632.1938,-183.5295 680.2395,-218.0362 702.6457,-234.743"/>
<polygon fill="#191970" stroke="#191970" points="578.488,-151.922 567.9327,-151.0076 575.6139,-158.3048 578.488,-151.922"/>
</g>
<!-- Node685&#45;&gt;Node683 -->
<g id="edge11" class="edge">
<title>Node685&#45;&gt;Node683</title>
<path fill="none" stroke="#191970" d="M577.8382,-94.1249C581.3664,-96.1154 584.7805,-98.2395 588,-100.5 644.2951,-140.0269 692.5493,-209.1834 709.2511,-234.6898"/>
<polygon fill="#191970" stroke="#191970" points="579.3641,-90.9734 568.8793,-89.4506 576.1261,-97.1794 579.3641,-90.9734"/>
</g>
<!-- Node686&#45;&gt;Node683 -->
<g id="edge13" class="edge">
<title>Node686&#45;&gt;Node683</title>
<path fill="none" stroke="#191970" d="M587.3677,-210.4155C624.4352,-220.2759 666.6022,-231.4927 692.1181,-238.2802"/>
<polygon fill="#191970" stroke="#191970" points="588.1318,-206.9972 577.5681,-207.8088 586.3323,-213.7619 588.1318,-206.9972"/>
</g>
<!-- Node687&#45;&gt;Node683 -->
<g id="edge15" class="edge">
<title>Node687&#45;&gt;Node683</title>
<path fill="none" stroke="#191970" d="M582.0287,-334.3351C584.1085,-332.8064 586.1069,-331.196 588,-329.5 612.8869,-307.2046 597.1614,-283.4031 624,-263.5 643.8084,-248.8103 672.3517,-244.8664 692.2739,-244.0863"/>
<polygon fill="#191970" stroke="#191970" points="580.0927,-331.4192 573.6545,-339.8334 583.9347,-337.2706 580.0927,-331.4192"/>
</g>
<!-- Node688&#45;&gt;Node683 -->
<g id="edge17" class="edge">
<title>Node688&#45;&gt;Node683</title>
<path fill="none" stroke="#191970" d="M570.2164,-287.194C576.2584,-285.0383 582.279,-282.7882 588,-280.5 604.4289,-273.9291 607.2205,-269.1157 624,-263.5 646.6167,-255.9307 673.4295,-250.7895 692.1622,-247.7836"/>
<polygon fill="#191970" stroke="#191970" points="569.035,-283.8992 560.7443,-290.4959 571.3392,-290.5091 569.035,-283.8992"/>
</g>
<!-- Node689&#45;&gt;Node683 -->
<g id="edge19" class="edge">
<title>Node689&#45;&gt;Node683</title>
<path fill="none" stroke="#191970" d="M596.8366,-248.0073C631.5645,-246.9809 669.0532,-245.8728 692.3994,-245.1828"/>
<polygon fill="#191970" stroke="#191970" points="596.5416,-244.5144 586.6494,-248.3084 596.7484,-251.5113 596.5416,-244.5144"/>
</g>
<!-- Node691 -->
<g id="node16" class="node">
<title>Node691</title>
<g id="a_node16"><a xlink:href="test__heatshrink__dynamic_8c.html#adc66afa12a5eaae0cd12d5cc497f0f67" target="_top" xlink:title="SUITE">
<polygon fill="#ffffff" stroke="#000000" points="692.5,-733 692.5,-752 738.5,-752 738.5,-733 692.5,-733"/>
<text text-anchor="middle" x="715.5" y="-740" font-family="Helvetica,sans-Serif" font-size="10.00" fill="#000000">SUITE</text>
</a>
</g>
</g>
<!-- Node690&#45;&gt;Node691 -->
<g id="edge21" class="edge">
<title>Node690&#45;&gt;Node691</title>
<path fill="none" stroke="#191970" d="M539.1945,-728.604C579.2559,-731.7615 654.2655,-737.6736 692.2241,-740.6654"/>
<polygon fill="#191970" stroke="#191970" points="539.3565,-725.106 529.1123,-727.8093 538.8064,-732.0844 539.3565,-725.106"/>
</g>
<!-- Node693 -->
<g id="node18" class="node">
<title>Node693</title>
<g id="a_node18"><a xlink:href="test__heatshrink__dynamic_8c.html#a9d63746ee6a963338d09b8a19da82529" target="_top" xlink:title="data_without_duplication\l_should_match">
<polygon fill="#ffffff" stroke="#000000" points="652,-569.5 652,-599.5 779,-599.5 779,-569.5 652,-569.5"/>
<text text-anchor="start" x="660" y="-587.5" font-family="Helvetica,sans-Serif" font-size="10.00" fill="#000000">data_without_duplication</text>
<text text-anchor="middle" x="715.5" y="-576.5" font-family="Helvetica,sans-Serif" font-size="10.00" fill="#000000">_should_match</text>
</a>
</g>
</g>
<!-- Node692&#45;&gt;Node693 -->
<g id="edge23" class="edge">
<title>Node692&#45;&gt;Node693</title>
<path fill="none" stroke="#191970" d="M568.6332,-542.5707C586.3084,-548.1396 605.9313,-554.1977 624,-559.5 635.377,-562.8386 647.5922,-566.2768 659.2742,-569.4944"/>
<polygon fill="#191970" stroke="#191970" points="569.6263,-539.214 559.0363,-539.5351 567.5152,-545.8881 569.6263,-539.214"/>
</g>
<!-- Node695 -->
<g id="node20" class="node">
<title>Node695</title>
<g id="a_node20"><a xlink:href="test__heatshrink__dynamic_8c.html#ae9d1425d6c89a652b9df2b4ddc7ac2a2" target="_top" xlink:title="data_with_simple_repetition\l_should_compress_and_decompress\l_properly">
<polygon fill="#ffffff" stroke="#000000" points="624,-509 624,-550 807,-550 807,-509 624,-509"/>
<text text-anchor="start" x="632" y="-538" font-family="Helvetica,sans-Serif" font-size="10.00" fill="#000000">data_with_simple_repetition</text>
<text text-anchor="start" x="632" y="-527" font-family="Helvetica,sans-Serif" font-size="10.00" fill="#000000">_should_compress_and_decompress</text>
<text text-anchor="middle" x="715.5" y="-516" font-family="Helvetica,sans-Serif" font-size="10.00" fill="#000000">_properly</text>
</a>
</g>
</g>
<!-- Node692&#45;&gt;Node695 -->
<g id="edge25" class="edge">
<title>Node692&#45;&gt;Node695</title>
<path fill="none" stroke="#191970" d="M582.6056,-526.2267C595.9396,-526.5552 610.0754,-526.9033 623.9602,-527.2453"/>
<polygon fill="#191970" stroke="#191970" points="582.6659,-522.7273 572.5827,-525.9799 582.4935,-529.7251 582.6659,-522.7273"/>
</g>
<!-- Node696 -->
<g id="node21" class="node">
<title>Node696</title>
<g id="a_node21"><a xlink:href="test__heatshrink__dynamic_8c.html#a60c0e0c5bbb9715c7932ee82e706752d" target="_top" xlink:title="pseudorandom_data_should\l_match">
<polygon fill="#ffffff" stroke="#000000" points="644,-459.5 644,-489.5 787,-489.5 787,-459.5 644,-459.5"/>
<text text-anchor="start" x="652" y="-477.5" font-family="Helvetica,sans-Serif" font-size="10.00" fill="#000000">pseudorandom_data_should</text>
<text text-anchor="middle" x="715.5" y="-466.5" font-family="Helvetica,sans-Serif" font-size="10.00" fill="#000000">_match</text>
</a>
</g>
</g>
<!-- Node692&#45;&gt;Node696 -->
<g id="edge27" class="edge">
<title>Node692&#45;&gt;Node696</title>
<path fill="none" stroke="#191970" d="M582.4579,-507.269C605.8947,-501.4964 631.8227,-495.1102 654.5175,-489.5203"/>
<polygon fill="#191970" stroke="#191970" points="581.4555,-503.9112 572.5827,-509.7013 583.1296,-510.7081 581.4555,-503.9112"/>
</g>
<!-- Node697 -->
<g id="node22" class="node">
<title>Node697</title>
<g id="a_node22"><a xlink:href="test__heatshrink__dynamic_8c.html#a20e1a72bba941f0c602b93b53d32d5db" target="_top" xlink:title="small_input_buffer\l_should_not_impact_decoder\l_correctness">
<polygon fill="#ffffff" stroke="#000000" points="641.5,-399 641.5,-440 789.5,-440 789.5,-399 641.5,-399"/>
<text text-anchor="start" x="649.5" y="-428" font-family="Helvetica,sans-Serif" font-size="10.00" fill="#000000">small_input_buffer</text>
<text text-anchor="start" x="649.5" y="-417" font-family="Helvetica,sans-Serif" font-size="10.00" fill="#000000">_should_not_impact_decoder</text>
<text text-anchor="middle" x="715.5" y="-406" font-family="Helvetica,sans-Serif" font-size="10.00" fill="#000000">_correctness</text>
</a>
</g>
</g>
<!-- Node692&#45;&gt;Node697 -->
<g id="edge29" class="edge">
<title>Node692&#45;&gt;Node697</title>
<path fill="none" stroke="#191970" d="M580.0053,-504.6901C582.7859,-503.0872 585.4661,-501.3602 588,-499.5 610.0734,-483.2952 601.9029,-465.6723 624,-449.5 629.2613,-445.6494 635.0431,-442.2758 641.0647,-439.3232"/>
<polygon fill="#191970" stroke="#191970" points="578.136,-501.7155 570.8398,-509.3977 581.3342,-507.9422 578.136,-501.7155"/>
</g>
<!-- Node698 -->
<g id="node23" class="node">
<title>Node698</title>
<g id="a_node23"><a xlink:href="test__heatshrink__dynamic_8c.html#a462faeb904a3de1b1e009a04f7d171d8" target="_top" xlink:title="regression_backreference\l_counters_should_not_roll_over">
<polygon fill="#ffffff" stroke="#000000" points="636,-349.5 636,-379.5 795,-379.5 795,-349.5 636,-349.5"/>
<text text-anchor="start" x="644" y="-367.5" font-family="Helvetica,sans-Serif" font-size="10.00" fill="#000000">regression_backreference</text>
<text text-anchor="middle" x="715.5" y="-356.5" font-family="Helvetica,sans-Serif" font-size="10.00" fill="#000000">_counters_should_not_roll_over</text>
</a>
</g>
</g>
<!-- Node692&#45;&gt;Node698 -->
<g id="edge31" class="edge">
<title>Node692&#45;&gt;Node698</title>
<path fill="none" stroke="#191970" d="M581.196,-505.308C583.6153,-503.5399 585.8984,-501.6089 588,-499.5 624.3106,-463.0629 586.7358,-424.9613 624,-389.5 628.056,-385.6402 632.6486,-382.3647 637.5637,-379.5864"/>
<polygon fill="#191970" stroke="#191970" points="579.152,-502.4576 572.5122,-510.7137 582.8514,-508.4002 579.152,-502.4576"/>
</g>
<!-- Node699 -->
<g id="node24" class="node">
<title>Node699</title>
<g id="a_node24"><a xlink:href="test__heatshrink__dynamic_8c.html#a2ed8ea21768d114fa96b07eb58475663" target="_top" xlink:title="regression_index_fail">
<polygon fill="#ffffff" stroke="#000000" points="660,-311 660,-330 771,-330 771,-311 660,-311"/>
<text text-anchor="middle" x="715.5" y="-318" font-family="Helvetica,sans-Serif" font-size="10.00" fill="#000000">regression_index_fail</text>
</a>
</g>
</g>
<!-- Node692&#45;&gt;Node699 -->
<g id="edge33" class="edge">
<title>Node692&#45;&gt;Node699</title>
<path fill="none" stroke="#191970" d="M581.3004,-505.6724C583.7073,-503.8056 585.9574,-501.7542 588,-499.5 636.9418,-445.4862 572.0344,-390.6114 624,-339.5 633.6006,-330.0572 646.5941,-324.7403 659.7712,-321.8664"/>
<polygon fill="#191970" stroke="#191970" points="579.065,-502.9509 572.5869,-511.3345 582.8792,-508.8205 579.065,-502.9509"/>
</g>
<!-- Node700 -->
<g id="node25" class="node">
<title>Node700</title>
<g id="a_node25"><a xlink:href="test__heatshrink__dynamic_8c.html#a1bfe72da903d55a8610433a4f2a60d43" target="_top" xlink:title="sixty_four_k">
<polygon fill="#ffffff" stroke="#000000" points="680.5,-273 680.5,-292 750.5,-292 750.5,-273 680.5,-273"/>
<text text-anchor="middle" x="715.5" y="-280" font-family="Helvetica,sans-Serif" font-size="10.00" fill="#000000">sixty_four_k</text>
</a>
</g>
</g>
<!-- Node692&#45;&gt;Node700 -->
<g id="edge35" class="edge">
<title>Node692&#45;&gt;Node700</title>
<path fill="none" stroke="#191970" d="M581.4186,-505.7773C583.7935,-503.8821 586.0046,-501.7961 588,-499.5 646.6702,-431.9884 561.5463,-365.5276 624,-301.5 638.3874,-286.75 661.0188,-281.9587 680.1737,-280.8753"/>
<polygon fill="#191970" stroke="#191970" points="579.1793,-503.063 572.7881,-511.5131 583.0539,-508.8929 579.1793,-503.063"/>
</g>
<!-- Node694 -->
<g id="node19" class="node">
<title>Node694</title>
<g id="a_node19"><a xlink:href="test__heatshrink__dynamic_8c.html#a2f157eb23cb17a496326c14e12933b3b" target="_top" xlink:title="SUITE">
<polygon fill="#ffffff" stroke="#000000" points="843,-465 843,-484 889,-484 889,-465 843,-465"/>
<text text-anchor="middle" x="866" y="-472" font-family="Helvetica,sans-Serif" font-size="10.00" fill="#000000">SUITE</text>
</a>
</g>
</g>
<!-- Node693&#45;&gt;Node694 -->
<g id="edge24" class="edge">
<title>Node693&#45;&gt;Node694</title>
<path fill="none" stroke="#191970" d="M788.7398,-569.5986C795.1973,-566.7931 801.3986,-563.4599 807,-559.5 835.1631,-539.5903 854.269,-501.7326 862.0618,-484.0482"/>
<polygon fill="#191970" stroke="#191970" points="787.1811,-566.4496 779.1355,-573.3429 789.7238,-572.9715 787.1811,-566.4496"/>
</g>
<!-- Node695&#45;&gt;Node694 -->
<g id="edge26" class="edge">
<title>Node695&#45;&gt;Node694</title>
<path fill="none" stroke="#191970" d="M787.4144,-505.5891C794.0542,-503.2449 800.6638,-500.8597 807,-498.5 819.1245,-493.9847 832.4902,-488.5836 843.4301,-484.0495"/>
<polygon fill="#191970" stroke="#191970" points="785.9784,-502.3833 777.6931,-508.9866 788.2879,-508.9914 785.9784,-502.3833"/>
</g>
<!-- Node696&#45;&gt;Node694 -->
<g id="edge28" class="edge">
<title>Node696&#45;&gt;Node694</title>
<path fill="none" stroke="#191970" d="M797.6083,-474.5C814.24,-474.5 830.4212,-474.5 842.8656,-474.5"/>
<polygon fill="#191970" stroke="#191970" points="797.2238,-471.0001 787.2238,-474.5 797.2238,-478.0001 797.2238,-471.0001"/>
</g>
<!-- Node697&#45;&gt;Node694 -->
<g id="edge30" class="edge">
<title>Node697&#45;&gt;Node694</title>
<path fill="none" stroke="#191970" d="M790.2881,-443.4475C795.9628,-445.4394 801.5851,-447.4692 807,-449.5 819.6036,-454.2269 833.4737,-460.0705 844.5974,-464.9192"/>
<polygon fill="#191970" stroke="#191970" points="791.3104,-440.0977 780.7157,-440.1374 789.0227,-446.7133 791.3104,-440.0977"/>
</g>
<!-- Node698&#45;&gt;Node694 -->
<g id="edge32" class="edge">
<title>Node698&#45;&gt;Node694</title>
<path fill="none" stroke="#191970" d="M798.0532,-383.9423C801.16,-385.6421 804.1573,-387.4903 807,-389.5 835.1631,-409.4097 854.269,-447.2674 862.0618,-464.9518"/>
<polygon fill="#191970" stroke="#191970" points="799.5655,-380.7858 789.0448,-379.5344 796.4889,-387.0735 799.5655,-380.7858"/>
</g>
<!-- Node699&#45;&gt;Node694 -->
<g id="edge34" class="edge">
<title>Node699&#45;&gt;Node694</title>
<path fill="none" stroke="#191970" d="M780.9301,-326.0531C790.3644,-329.0463 799.4267,-333.3537 807,-339.5 847.9126,-372.7036 861.1853,-439.8856 864.8092,-464.862"/>
<polygon fill="#191970" stroke="#191970" points="781.5764,-322.6027 771.0107,-323.3876 779.7598,-329.3629 781.5764,-322.6027"/>
</g>
<!-- Node700&#45;&gt;Node694 -->
<g id="edge36" class="edge">
<title>Node700&#45;&gt;Node694</title>
<path fill="none" stroke="#191970" d="M761.2777,-282.9251C777.3704,-285.2486 794.5305,-290.4875 807,-301.5 832.6882,-324.1868 857.0305,-431.7507 864.0103,-464.8106"/>
<polygon fill="#191970" stroke="#191970" points="761.239,-279.3999 750.9168,-281.7878 760.4751,-286.3581 761.239,-279.3999"/>
</g>
<!-- Node701&#45;&gt;Node694 -->
<g id="edge38" class="edge">
<title>Node701&#45;&gt;Node694</title>
<path fill="none" stroke="#191970" d="M597.7456,-661.9289C661.224,-673.372 746.9336,-677.1327 807,-634.5 832.9538,-616.079 856.9283,-515.7455 863.9418,-484.08"/>
<polygon fill="#191970" stroke="#191970" points="598.2333,-658.459 587.7559,-660.0323 596.9276,-665.3362 598.2333,-658.459"/>
</g>
<!-- Node702&#45;&gt;Node694 -->
<g id="edge40" class="edge">
<title>Node702&#45;&gt;Node694</title>
<path fill="none" stroke="#191970" d="M589.9391,-602.3316C601.2738,-604.8859 612.8749,-607.0769 624,-608.5 704.676,-618.8198 738.8796,-652.9378 807,-608.5 851.0696,-579.7516 862.446,-509.8824 865.1865,-484.1888"/>
<polygon fill="#191970" stroke="#191970" points="590.6019,-598.8919 580.0656,-600.0036 588.9955,-605.7051 590.6019,-598.8919"/>
</g>
<!-- Node703&#45;&gt;Node679 -->
<g id="edge42" class="edge">
<title>Node703&#45;&gt;Node679</title>
<path fill="none" stroke="#191970" d="M338.9421,-440.2545C344.6687,-487.4366 365.8387,-607.373 437,-669.5 443.9237,-675.5447 452.4962,-679.7187 461.3531,-682.5894"/>
<polygon fill="#191970" stroke="#191970" points="342.4016,-439.6943 337.8212,-430.1408 335.4442,-440.4655 342.4016,-439.6943"/>
</g>
<!-- Node703&#45;&gt;Node686 -->
<g id="edge47" class="edge">
<title>Node703&#45;&gt;Node686</title>
<path fill="none" stroke="#191970" d="M380.8999,-406.6105C388.5159,-402.4799 395.6834,-397.2028 401,-390.5 448.994,-329.992 387.2092,-279.5383 437,-220.5 440.0007,-216.9419 443.4824,-213.8027 447.2712,-211.0334"/>
<polygon fill="#191970" stroke="#191970" points="379.3453,-403.4743 371.8374,-410.9497 382.3683,-409.7879 379.3453,-403.4743"/>
</g>
<!-- Node703&#45;&gt;Node687 -->
<g id="edge48" class="edge">
<title>Node703&#45;&gt;Node687</title>
<path fill="none" stroke="#191970" d="M374.4046,-407.7121C397.1009,-399.9527 426.588,-389.8716 452.4835,-381.0184"/>
<polygon fill="#191970" stroke="#191970" points="373.1385,-404.446 364.8085,-410.9928 375.4031,-411.0696 373.1385,-404.446"/>
</g>
<!-- Node703&#45;&gt;Node688 -->
<g id="edge49" class="edge">
<title>Node703&#45;&gt;Node688</title>
<path fill="none" stroke="#191970" d="M375.7716,-406.8113C384.6956,-402.4962 393.699,-397.0913 401,-390.5 424.0832,-369.6607 412.7226,-349.935 437,-330.5 441.8506,-326.6169 447.3287,-323.3265 453.064,-320.5404"/>
<polygon fill="#191970" stroke="#191970" points="374.2793,-403.6445 366.5754,-410.9178 377.1335,-410.0362 374.2793,-403.6445"/>
</g>
<!-- Node703&#45;&gt;Node689 -->
<g id="edge50" class="edge">
<title>Node703&#45;&gt;Node689</title>
<path fill="none" stroke="#191970" d="M379.3692,-406.6525C387.382,-402.4807 395.0918,-397.1772 401,-390.5 435.0879,-351.9754 401.7697,-317.9827 437,-280.5 440.2843,-277.0057 444.028,-273.9104 448.0511,-271.1697"/>
<polygon fill="#191970" stroke="#191970" points="377.8571,-403.4957 370.2737,-410.8946 380.8159,-409.8397 377.8571,-403.4957"/>
</g>
<!-- Node703&#45;&gt;Node690 -->
<g id="edge51" class="edge">
<title>Node703&#45;&gt;Node690</title>
<path fill="none" stroke="#191970" d="M337.759,-440.3742C340.8627,-492.4641 356.6558,-633.987 437,-707.5 453.1547,-722.2811 479.0977,-725.9635 495.9715,-726.6748"/>
<polygon fill="#191970" stroke="#191970" points="341.2433,-439.9717 337.25,-430.1583 334.252,-440.3201 341.2433,-439.9717"/>
</g>
<!-- Node703&#45;&gt;Node692 -->
<g id="edge52" class="edge">
<title>Node703&#45;&gt;Node692</title>
<path fill="none" stroke="#191970" d="M354.167,-437.1826C373.0921,-454.7871 405.102,-482.314 437,-499.5 443.9287,-503.233 451.5149,-506.5431 459.1223,-509.4334"/>
<polygon fill="#191970" stroke="#191970" points="356.3364,-434.4167 346.6677,-430.0847 351.5245,-439.5007 356.3364,-434.4167"/>
</g>
<!-- Node703&#45;&gt;Node701 -->
<g id="edge53" class="edge">
<title>Node703&#45;&gt;Node701</title>
<path fill="none" stroke="#191970" d="M342.346,-440.0054C353.6473,-477.7858 383.429,-561.4444 437,-609.5 440.8847,-612.9848 445.2236,-616.0889 449.8043,-618.8496"/>
<polygon fill="#191970" stroke="#191970" points="345.6638,-438.8786 339.5344,-430.2368 338.9369,-440.8147 345.6638,-438.8786"/>
</g>
<!-- Node703&#45;&gt;Node702 -->
<g id="edge54" class="edge">
<title>Node703&#45;&gt;Node702</title>
<path fill="none" stroke="#191970" d="M347.2998,-439.1747C363.251,-466.5624 396.3689,-517.7017 437,-548.5 442.0815,-552.3517 447.7093,-555.8072 453.5345,-558.8867"/>
<polygon fill="#191970" stroke="#191970" points="350.2045,-437.2021 342.2176,-430.2407 344.12,-440.6634 350.2045,-437.2021"/>
</g>
<!-- Node704 -->
<g id="node29" class="node">
<title>Node704</title>
<g id="a_node29"><a xlink:href="test__heatshrink__dynamic_8c.html#ade6da42ddec3e9a2d8fe58597792b843" target="_top" xlink:title="encoder_poll_should\l_reject_nulls">
<polygon fill="#ffffff" stroke="#000000" points="458,-460.5 458,-490.5 567,-490.5 567,-460.5 458,-460.5"/>
<text text-anchor="start" x="466" y="-478.5" font-family="Helvetica,sans-Serif" font-size="10.00" fill="#000000">encoder_poll_should</text>
<text text-anchor="middle" x="512.5" y="-467.5" font-family="Helvetica,sans-Serif" font-size="10.00" fill="#000000">_reject_nulls</text>
</a>
</g>
</g>
<!-- Node703&#45;&gt;Node704 -->
<g id="edge43" class="edge">
<title>Node703&#45;&gt;Node704</title>
<path fill="none" stroke="#191970" d="M377.4431,-433.1745C403.3631,-441.2976 437.1382,-451.8823 464.4278,-460.4346"/>
<polygon fill="#191970" stroke="#191970" points="378.1588,-429.731 367.5698,-430.0803 376.0655,-436.4107 378.1588,-429.731"/>
</g>
<!-- Node705 -->
<g id="node30" class="node">
<title>Node705</title>
<g id="a_node30"><a xlink:href="test__heatshrink__dynamic_8c.html#aa662e805dae6d002db06dc962e7440f9" target="_top" xlink:title="encoder_poll_should\l_indicate_when_no_input\l_is_provided">
<polygon fill="#ffffff" stroke="#000000" points="447.5,-400 447.5,-441 577.5,-441 577.5,-400 447.5,-400"/>
<text text-anchor="start" x="455.5" y="-429" font-family="Helvetica,sans-Serif" font-size="10.00" fill="#000000">encoder_poll_should</text>
<text text-anchor="start" x="455.5" y="-418" font-family="Helvetica,sans-Serif" font-size="10.00" fill="#000000">_indicate_when_no_input</text>
<text text-anchor="middle" x="512.5" y="-407" font-family="Helvetica,sans-Serif" font-size="10.00" fill="#000000">_is_provided</text>
</a>
</g>
</g>
<!-- Node703&#45;&gt;Node705 -->
<g id="edge45" class="edge">
<title>Node703&#45;&gt;Node705</title>
<path fill="none" stroke="#191970" d="M410.136,-420.5C422.503,-420.5 435.2685,-420.5 447.4123,-420.5"/>
<polygon fill="#191970" stroke="#191970" points="409.8639,-417.0001 399.8638,-420.5 409.8638,-424.0001 409.8639,-417.0001"/>
</g>
<!-- Node704&#45;&gt;Node683 -->
<g id="edge44" class="edge">
<title>Node704&#45;&gt;Node683</title>
<path fill="none" stroke="#191970" d="M576.0486,-460.5174C580.4872,-457.7272 584.5578,-454.4198 588,-450.5 643.8473,-386.9033 564.5895,-323.7815 624,-263.5 641.6522,-245.589 671.4719,-242.4019 692.2538,-242.6749"/>
<polygon fill="#191970" stroke="#191970" points="574.3072,-457.4794 567.1279,-465.271 577.5991,-463.6571 574.3072,-457.4794"/>
</g>
<!-- Node705&#45;&gt;Node683 -->
<g id="edge46" class="edge">
<title>Node705&#45;&gt;Node683</title>
<path fill="none" stroke="#191970" d="M585.1791,-393.4055C586.1545,-392.4692 587.0962,-391.5011 588,-390.5 627.316,-346.9543 581.0594,-303.476 624,-263.5 642.2873,-246.4752 671.6845,-243.0577 692.2072,-243.0371"/>
<polygon fill="#191970" stroke="#191970" points="582.6529,-390.9489 577.1083,-399.9771 587.0728,-396.3771 582.6529,-390.9489"/>
</g>
<!-- Node706&#45;&gt;Node678 -->
<g id="edge56" class="edge">
<title>Node706&#45;&gt;Node678</title>
<path fill="none" stroke="#191970" d="M235.4922,-397.3879C256.2436,-392.0956 280.2282,-385.9787 299.6714,-381.0201"/>
<polygon fill="#191970" stroke="#191970" points="234.4239,-394.0482 225.599,-399.911 236.1538,-400.8311 234.4239,-394.0482"/>
</g>
<!-- Node706&#45;&gt;Node703 -->
<g id="edge57" class="edge">
<title>Node706&#45;&gt;Node703</title>
<path fill="none" stroke="#191970" d="M247.4132,-413.8862C256.2551,-414.539 265.3929,-415.2136 274.2998,-415.8711"/>
<polygon fill="#191970" stroke="#191970" points="247.4317,-410.3781 237.2011,-413.1323 246.9163,-417.3591 247.4317,-410.3781"/>
</g>
</g>
</svg>
