<?xml version="1.0" encoding="UTF-8" standalone="no"?>
<!DOCTYPE svg PUBLIC "-//W3C//DTD SVG 1.1//EN"
 "http://www.w3.org/Graphics/SVG/1.1/DTD/svg11.dtd">
<!-- Generated by graphviz version 2.41.20170323.1842 (20170323.1842)
 -->
<!-- Title: heatshrink_encoder_sink Pages: 1 -->
<svg width="624pt" height="921pt"
 viewBox="0.00 0.00 624.00 920.50" xmlns="http://www.w3.org/2000/svg" xmlns:xlink="http://www.w3.org/1999/xlink">
<g id="graph0" class="graph" transform="scale(1 1) rotate(0) translate(4 916.5)">
<title>heatshrink_encoder_sink</title>
<polygon fill="#ffffff" stroke="transparent" points="-4,4 -4,-916.5 620,-916.5 620,4 -4,4"/>
<!-- Node185 -->
<g id="node1" class="node">
<title>Node185</title>
<polygon fill="#bfbfbf" stroke="#000000" points="0,-287.5 0,-306.5 128,-306.5 128,-287.5 0,-287.5"/>
<text text-anchor="middle" x="64" y="-294.5" font-family="Helvetica,sans-Serif" font-size="10.00" fill="#000000">heatshrink_encoder_sink</text>
</g>
<!-- Node186 -->
<g id="node2" class="node">
<title>Node186</title>
<g id="a_node2"><a xlink:href="test__heatshrink__dynamic_8c.html#ab9096be17a9dc8f301673949558e5bd6" target="_top" xlink:title="compress_and_expand\l_and_check">
<polygon fill="#ffffff" stroke="#000000" points="179.5,-690 179.5,-720 299.5,-720 299.5,-690 179.5,-690"/>
<text text-anchor="start" x="187.5" y="-708" font-family="Helvetica,sans-Serif" font-size="10.00" fill="#000000">compress_and_expand</text>
<text text-anchor="middle" x="239.5" y="-697" font-family="Helvetica,sans-Serif" font-size="10.00" fill="#000000">_and_check</text>
</a>
</g>
</g>
<!-- Node185&#45;&gt;Node186 -->
<g id="edge1" class="edge">
<title>Node185&#45;&gt;Node186</title>
<path fill="none" stroke="#191970" d="M70.5108,-316.4217C85.4515,-360.4276 124.0013,-470.8403 164,-560 185.7239,-608.4241 215.9962,-663.4734 230.7367,-689.6305"/>
<polygon fill="#191970" stroke="#191970" points="73.7496,-315.0728 67.2345,-306.7179 67.1174,-317.3121 73.7496,-315.0728"/>
</g>
<!-- Node195 -->
<g id="node11" class="node">
<title>Node195</title>
<g id="a_node11"><a xlink:href="test__heatshrink__dynamic_8c.html#acd64db79d79999a7c5436d35b74a7f40" target="_top" xlink:title="data_with_simple_repetition\l_should_match_with_absurdly\l_tiny_buffers">
<polygon fill="#ffffff" stroke="#000000" points="367,-525.5 367,-566.5 518,-566.5 518,-525.5 367,-525.5"/>
<text text-anchor="start" x="375" y="-554.5" font-family="Helvetica,sans-Serif" font-size="10.00" fill="#000000">data_with_simple_repetition</text>
<text text-anchor="start" x="375" y="-543.5" font-family="Helvetica,sans-Serif" font-size="10.00" fill="#000000">_should_match_with_absurdly</text>
<text text-anchor="middle" x="442.5" y="-532.5" font-family="Helvetica,sans-Serif" font-size="10.00" fill="#000000">_tiny_buffers</text>
</a>
</g>
</g>
<!-- Node185&#45;&gt;Node195 -->
<g id="edge16" class="edge">
<title>Node185&#45;&gt;Node195</title>
<path fill="none" stroke="#191970" d="M65.8869,-316.6905C71.4407,-362.5309 92.1699,-476.3254 164,-527 222.6085,-568.347 306.5335,-568.2369 366.9143,-560.7851"/>
<polygon fill="#191970" stroke="#191970" points="69.3476,-316.1397 64.78,-306.58 62.3892,-316.9015 69.3476,-316.1397"/>
</g>
<!-- Node196 -->
<g id="node12" class="node">
<title>Node196</title>
<g id="a_node12"><a xlink:href="test__heatshrink__dynamic_8c.html#a9a102029b8375d4050406a2814f390ac" target="_top" xlink:title="data_without_duplication\l_should_match_with_absurdly\l_tiny_buffers">
<polygon fill="#ffffff" stroke="#000000" points="164,-476.5 164,-517.5 315,-517.5 315,-476.5 164,-476.5"/>
<text text-anchor="start" x="172" y="-505.5" font-family="Helvetica,sans-Serif" font-size="10.00" fill="#000000">data_without_duplication</text>
<text text-anchor="start" x="172" y="-494.5" font-family="Helvetica,sans-Serif" font-size="10.00" fill="#000000">_should_match_with_absurdly</text>
<text text-anchor="middle" x="239.5" y="-483.5" font-family="Helvetica,sans-Serif" font-size="10.00" fill="#000000">_tiny_buffers</text>
</a>
</g>
</g>
<!-- Node185&#45;&gt;Node196 -->
<g id="edge18" class="edge">
<title>Node185&#45;&gt;Node196</title>
<path fill="none" stroke="#191970" d="M70.584,-316.4123C83.3169,-351.221 114.502,-424.5714 164,-467 168.0693,-470.4881 172.5941,-473.6017 177.3495,-476.3751"/>
<polygon fill="#191970" stroke="#191970" points="73.7316,-314.8147 67.0985,-306.5532 67.1319,-317.1479 73.7316,-314.8147"/>
</g>
<!-- Node197 -->
<g id="node13" class="node">
<title>Node197</title>
<g id="a_node13"><a xlink:href="test__heatshrink__dynamic_8c.html#a2d84dd546b011bb6cfc3b1e9a9a5616b" target="_top" xlink:title="encoder_poll_should\l_detect_repeated_substring">
<polygon fill="#ffffff" stroke="#000000" points="169.5,-427 169.5,-457 309.5,-457 309.5,-427 169.5,-427"/>
<text text-anchor="start" x="177.5" y="-445" font-family="Helvetica,sans-Serif" font-size="10.00" fill="#000000">encoder_poll_should</text>
<text text-anchor="middle" x="239.5" y="-434" font-family="Helvetica,sans-Serif" font-size="10.00" fill="#000000">_detect_repeated_substring</text>
</a>
</g>
</g>
<!-- Node185&#45;&gt;Node197 -->
<g id="edge20" class="edge">
<title>Node185&#45;&gt;Node197</title>
<path fill="none" stroke="#191970" d="M74.7775,-315.5703C90.9307,-341.8306 123.8524,-389.6565 164,-417 169.5919,-420.8085 175.8093,-424.075 182.2077,-426.8674"/>
<polygon fill="#191970" stroke="#191970" points="77.5724,-313.4253 69.4276,-306.6493 71.5691,-317.0255 77.5724,-313.4253"/>
</g>
<!-- Node199 -->
<g id="node15" class="node">
<title>Node199</title>
<g id="a_node15"><a xlink:href="test__heatshrink__dynamic_8c.html#ab068727669a416029bacc708b2aac5ac" target="_top" xlink:title="encoder_poll_should\l_detect_repeated_substring\l_and_preserve_trailing_literal">
<polygon fill="#ffffff" stroke="#000000" points="165.5,-366.5 165.5,-407.5 313.5,-407.5 313.5,-366.5 165.5,-366.5"/>
<text text-anchor="start" x="173.5" y="-395.5" font-family="Helvetica,sans-Serif" font-size="10.00" fill="#000000">encoder_poll_should</text>
<text text-anchor="start" x="173.5" y="-384.5" font-family="Helvetica,sans-Serif" font-size="10.00" fill="#000000">_detect_repeated_substring</text>
<text text-anchor="middle" x="239.5" y="-373.5" font-family="Helvetica,sans-Serif" font-size="10.00" fill="#000000">_and_preserve_trailing_literal</text>
</a>
</g>
</g>
<!-- Node185&#45;&gt;Node199 -->
<g id="edge22" class="edge">
<title>Node185&#45;&gt;Node199</title>
<path fill="none" stroke="#191970" d="M86.5397,-311.9677C106.4293,-324.8215 136.4591,-343.3782 164,-357 170.5742,-360.2516 177.5927,-363.42 184.6038,-366.4049"/>
<polygon fill="#191970" stroke="#191970" points="88.448,-309.0337 78.1602,-306.5014 84.6234,-314.8966 88.448,-309.0337"/>
</g>
<!-- Node200 -->
<g id="node16" class="node">
<title>Node200</title>
<g id="a_node16"><a xlink:href="test__heatshrink__dynamic_8c.html#a5339595930b85317e810fcf251b86351" target="_top" xlink:title="encoder_should_emit\l_data_without_repetitions\l_as_literal_sequence">
<polygon fill="#ffffff" stroke="#000000" points="174.5,-306.5 174.5,-347.5 304.5,-347.5 304.5,-306.5 174.5,-306.5"/>
<text text-anchor="start" x="182.5" y="-335.5" font-family="Helvetica,sans-Serif" font-size="10.00" fill="#000000">encoder_should_emit</text>
<text text-anchor="start" x="182.5" y="-324.5" font-family="Helvetica,sans-Serif" font-size="10.00" fill="#000000">_data_without_repetitions</text>
<text text-anchor="middle" x="239.5" y="-313.5" font-family="Helvetica,sans-Serif" font-size="10.00" fill="#000000">_as_literal_sequence</text>
</a>
</g>
</g>
<!-- Node185&#45;&gt;Node200 -->
<g id="edge24" class="edge">
<title>Node185&#45;&gt;Node200</title>
<path fill="none" stroke="#191970" d="M129.8956,-308.2642C144.3992,-310.7435 159.7535,-313.3681 174.2321,-315.8431"/>
<polygon fill="#191970" stroke="#191970" points="130.4586,-304.8098 120.0118,-306.5747 129.2791,-311.7097 130.4586,-304.8098"/>
</g>
<!-- Node201 -->
<g id="node17" class="node">
<title>Node201</title>
<g id="a_node17"><a xlink:href="test__heatshrink__dynamic_8c.html#ae27157a664552fa0744d095239ee0d88" target="_top" xlink:title="encoder_should_emit\l_series_of_same_byte\l_as_literal_then_backref">
<polygon fill="#ffffff" stroke="#000000" points="177,-246.5 177,-287.5 302,-287.5 302,-246.5 177,-246.5"/>
<text text-anchor="start" x="185" y="-275.5" font-family="Helvetica,sans-Serif" font-size="10.00" fill="#000000">encoder_should_emit</text>
<text text-anchor="start" x="185" y="-264.5" font-family="Helvetica,sans-Serif" font-size="10.00" fill="#000000">_series_of_same_byte</text>
<text text-anchor="middle" x="239.5" y="-253.5" font-family="Helvetica,sans-Serif" font-size="10.00" fill="#000000">_as_literal_then_backref</text>
</a>
</g>
</g>
<!-- Node185&#45;&gt;Node201 -->
<g id="edge26" class="edge">
<title>Node185&#45;&gt;Node201</title>
<path fill="none" stroke="#191970" d="M129.9248,-285.7308C145.2501,-283.1111 161.5238,-280.3293 176.7097,-277.7334"/>
<polygon fill="#191970" stroke="#191970" points="129.2791,-282.2903 120.0118,-287.4253 130.4586,-289.1902 129.2791,-282.2903"/>
</g>
<!-- Node202 -->
<g id="node18" class="node">
<title>Node202</title>
<g id="a_node18"><a xlink:href="heatshrink_8c.html#a593e86bba4eca0be280740fcf509bc12" target="_top" xlink:title="encoder_sink_read">
<polygon fill="#ffffff" stroke="#000000" points="188.5,-38.5 188.5,-57.5 290.5,-57.5 290.5,-38.5 188.5,-38.5"/>
<text text-anchor="middle" x="239.5" y="-45.5" font-family="Helvetica,sans-Serif" font-size="10.00" fill="#000000">encoder_sink_read</text>
</a>
</g>
</g>
<!-- Node185&#45;&gt;Node202 -->
<g id="edge28" class="edge">
<title>Node185&#45;&gt;Node202</title>
<path fill="none" stroke="#191970" d="M66.7488,-277.3911C74.0234,-233.0721 97.9665,-124.6445 164,-68 170.9985,-61.9966 179.6061,-57.7714 188.4741,-54.8032"/>
<polygon fill="#191970" stroke="#191970" points="63.2654,-277.0164 65.2111,-287.431 70.1847,-278.0761 63.2654,-277.0164"/>
</g>
<!-- Node205 -->
<g id="node21" class="node">
<title>Node205</title>
<g id="a_node21"><a xlink:href="test__heatshrink__dynamic_8c.html#a1c4dab770a7df0935018c3a685f5b1ff" target="_top" xlink:title="encoder_sink_should\l_accept_input_when_it\l_will_fit">
<polygon fill="#ffffff" stroke="#000000" points="180,-186.5 180,-227.5 299,-227.5 299,-186.5 180,-186.5"/>
<text text-anchor="start" x="188" y="-215.5" font-family="Helvetica,sans-Serif" font-size="10.00" fill="#000000">encoder_sink_should</text>
<text text-anchor="start" x="188" y="-204.5" font-family="Helvetica,sans-Serif" font-size="10.00" fill="#000000">_accept_input_when_it</text>
<text text-anchor="middle" x="239.5" y="-193.5" font-family="Helvetica,sans-Serif" font-size="10.00" fill="#000000">_will_fit</text>
</a>
</g>
</g>
<!-- Node185&#45;&gt;Node205 -->
<g id="edge31" class="edge">
<title>Node185&#45;&gt;Node205</title>
<path fill="none" stroke="#191970" d="M86.5397,-282.0323C106.4293,-269.1785 136.4591,-250.6218 164,-237 170.5742,-233.7484 177.5927,-230.58 184.6038,-227.5951"/>
<polygon fill="#191970" stroke="#191970" points="84.6234,-279.1034 78.1602,-287.4986 88.448,-284.9663 84.6234,-279.1034"/>
</g>
<!-- Node206 -->
<g id="node22" class="node">
<title>Node206</title>
<g id="a_node22"><a xlink:href="test__heatshrink__dynamic_8c.html#a73ee2ec6f21d5e0ce0e34902a1aebccb" target="_top" xlink:title="encoder_sink_should\l_accept_partial_input\l_when_some_will_fit">
<polygon fill="#ffffff" stroke="#000000" points="183.5,-126.5 183.5,-167.5 295.5,-167.5 295.5,-126.5 183.5,-126.5"/>
<text text-anchor="start" x="191.5" y="-155.5" font-family="Helvetica,sans-Serif" font-size="10.00" fill="#000000">encoder_sink_should</text>
<text text-anchor="start" x="191.5" y="-144.5" font-family="Helvetica,sans-Serif" font-size="10.00" fill="#000000">_accept_partial_input</text>
<text text-anchor="middle" x="239.5" y="-133.5" font-family="Helvetica,sans-Serif" font-size="10.00" fill="#000000">_when_some_will_fit</text>
</a>
</g>
</g>
<!-- Node185&#45;&gt;Node206 -->
<g id="edge33" class="edge">
<title>Node185&#45;&gt;Node206</title>
<path fill="none" stroke="#191970" d="M75.2435,-278.3582C91.7503,-252.3987 124.8634,-205.364 164,-177 169.9387,-172.696 176.5799,-168.9027 183.3932,-165.5902"/>
<polygon fill="#191970" stroke="#191970" points="72.0588,-276.8519 69.7523,-287.1926 78.0039,-280.5473 72.0588,-276.8519"/>
</g>
<!-- Node207 -->
<g id="node23" class="node">
<title>Node207</title>
<g id="a_node23"><a xlink:href="test__heatshrink__dynamic_8c.html#a9b30a495760400a59637e7d708e63ae0" target="_top" xlink:title="encoder_sink_should\l_reject_nulls">
<polygon fill="#ffffff" stroke="#000000" points="184,-77 184,-107 295,-107 295,-77 184,-77"/>
<text text-anchor="start" x="192" y="-95" font-family="Helvetica,sans-Serif" font-size="10.00" fill="#000000">encoder_sink_should</text>
<text text-anchor="middle" x="239.5" y="-84" font-family="Helvetica,sans-Serif" font-size="10.00" fill="#000000">_reject_nulls</text>
</a>
</g>
</g>
<!-- Node185&#45;&gt;Node207 -->
<g id="edge35" class="edge">
<title>Node185&#45;&gt;Node207</title>
<path fill="none" stroke="#191970" d="M69.691,-277.1562C81.2808,-240.2443 111.1048,-160.8104 164,-117 169.8486,-112.1559 176.669,-108.2393 183.7738,-105.0753"/>
<polygon fill="#191970" stroke="#191970" points="66.2105,-276.5753 66.6742,-287.16 72.9124,-278.5964 66.2105,-276.5753"/>
</g>
<!-- Node208 -->
<g id="node24" class="node">
<title>Node208</title>
<g id="a_node24"><a xlink:href="test__heatshrink__dynamic_8c.html#a6627d0e00f7e636ae9294cc6255c7ffd" target="_top" xlink:title="gen">
<polygon fill="#ffffff" stroke="#000000" points="223,-.5 223,-19.5 256,-19.5 256,-.5 223,-.5"/>
<text text-anchor="middle" x="239.5" y="-7.5" font-family="Helvetica,sans-Serif" font-size="10.00" fill="#000000">gen</text>
</a>
</g>
</g>
<!-- Node185&#45;&gt;Node208 -->
<g id="edge37" class="edge">
<title>Node185&#45;&gt;Node208</title>
<path fill="none" stroke="#191970" d="M65.2915,-277.4342C69.6457,-227.946 88.133,-96.9083 164,-29 180.2145,-14.4865 205.8962,-10.7133 222.7239,-9.9116"/>
<polygon fill="#191970" stroke="#191970" points="61.7989,-277.2042 64.5108,-287.446 68.7777,-277.7484 61.7989,-277.2042"/>
</g>
<!-- Node187 -->
<g id="node3" class="node">
<title>Node187</title>
<g id="a_node3"><a xlink:href="test__heatshrink__dynamic_8c.html#a9d63746ee6a963338d09b8a19da82529" target="_top" xlink:title="data_without_duplication\l_should_match">
<polygon fill="#ffffff" stroke="#000000" points="379,-882 379,-912 506,-912 506,-882 379,-882"/>
<text text-anchor="start" x="387" y="-900" font-family="Helvetica,sans-Serif" font-size="10.00" fill="#000000">data_without_duplication</text>
<text text-anchor="middle" x="442.5" y="-889" font-family="Helvetica,sans-Serif" font-size="10.00" fill="#000000">_should_match</text>
</a>
</g>
</g>
<!-- Node186&#45;&gt;Node187 -->
<g id="edge2" class="edge">
<title>Node186&#45;&gt;Node187</title>
<path fill="none" stroke="#191970" d="M249.1865,-729.5583C264.9236,-766.2254 299.553,-834.9281 351,-872 359.2834,-877.9689 368.9215,-882.513 378.7722,-885.9723"/>
<polygon fill="#191970" stroke="#191970" points="252.3296,-728.0015 245.2506,-720.1187 245.8687,-730.6955 252.3296,-728.0015"/>
</g>
<!-- Node189 -->
<g id="node5" class="node">
<title>Node189</title>
<g id="a_node5"><a xlink:href="test__heatshrink__dynamic_8c.html#ae9d1425d6c89a652b9df2b4ddc7ac2a2" target="_top" xlink:title="data_with_simple_repetition\l_should_compress_and_decompress\l_properly">
<polygon fill="#ffffff" stroke="#000000" points="351,-821.5 351,-862.5 534,-862.5 534,-821.5 351,-821.5"/>
<text text-anchor="start" x="359" y="-850.5" font-family="Helvetica,sans-Serif" font-size="10.00" fill="#000000">data_with_simple_repetition</text>
<text text-anchor="start" x="359" y="-839.5" font-family="Helvetica,sans-Serif" font-size="10.00" fill="#000000">_should_compress_and_decompress</text>
<text text-anchor="middle" x="442.5" y="-828.5" font-family="Helvetica,sans-Serif" font-size="10.00" fill="#000000">_properly</text>
</a>
</g>
</g>
<!-- Node186&#45;&gt;Node189 -->
<g id="edge4" class="edge">
<title>Node186&#45;&gt;Node189</title>
<path fill="none" stroke="#191970" d="M258.184,-728.2762C278.6413,-752.3521 313.5544,-789.5125 351,-812 356.7327,-815.4427 362.9078,-818.542 369.2471,-821.3211"/>
<polygon fill="#191970" stroke="#191970" points="260.665,-725.7865 251.5704,-720.3515 255.2906,-730.2717 260.665,-725.7865"/>
</g>
<!-- Node190 -->
<g id="node6" class="node">
<title>Node190</title>
<g id="a_node6"><a xlink:href="test__heatshrink__dynamic_8c.html#a60c0e0c5bbb9715c7932ee82e706752d" target="_top" xlink:title="pseudorandom_data_should\l_match">
<polygon fill="#ffffff" stroke="#000000" points="371,-772 371,-802 514,-802 514,-772 371,-772"/>
<text text-anchor="start" x="379" y="-790" font-family="Helvetica,sans-Serif" font-size="10.00" fill="#000000">pseudorandom_data_should</text>
<text text-anchor="middle" x="442.5" y="-779" font-family="Helvetica,sans-Serif" font-size="10.00" fill="#000000">_match</text>
</a>
</g>
</g>
<!-- Node186&#45;&gt;Node190 -->
<g id="edge6" class="edge">
<title>Node186&#45;&gt;Node190</title>
<path fill="none" stroke="#191970" d="M274.1724,-725.0707C295.7601,-736.9699 324.393,-751.691 351,-762 360.3668,-765.6292 370.4649,-768.9483 380.414,-771.8991"/>
<polygon fill="#191970" stroke="#191970" points="275.8165,-721.9801 265.3784,-720.1649 272.4063,-728.0932 275.8165,-721.9801"/>
</g>
<!-- Node191 -->
<g id="node7" class="node">
<title>Node191</title>
<g id="a_node7"><a xlink:href="test__heatshrink__dynamic_8c.html#a20e1a72bba941f0c602b93b53d32d5db" target="_top" xlink:title="small_input_buffer\l_should_not_impact_decoder\l_correctness">
<polygon fill="#ffffff" stroke="#000000" points="368.5,-711.5 368.5,-752.5 516.5,-752.5 516.5,-711.5 368.5,-711.5"/>
<text text-anchor="start" x="376.5" y="-740.5" font-family="Helvetica,sans-Serif" font-size="10.00" fill="#000000">small_input_buffer</text>
<text text-anchor="start" x="376.5" y="-729.5" font-family="Helvetica,sans-Serif" font-size="10.00" fill="#000000">_should_not_impact_decoder</text>
<text text-anchor="middle" x="442.5" y="-718.5" font-family="Helvetica,sans-Serif" font-size="10.00" fill="#000000">_correctness</text>
</a>
</g>
</g>
<!-- Node186&#45;&gt;Node191 -->
<g id="edge8" class="edge">
<title>Node186&#45;&gt;Node191</title>
<path fill="none" stroke="#191970" d="M309.6056,-714.3244C328.5172,-716.8397 349.0417,-719.5696 368.1754,-722.1145"/>
<polygon fill="#191970" stroke="#191970" points="309.9569,-710.8404 299.5827,-712.9913 309.034,-717.7793 309.9569,-710.8404"/>
</g>
<!-- Node192 -->
<g id="node8" class="node">
<title>Node192</title>
<g id="a_node8"><a xlink:href="test__heatshrink__dynamic_8c.html#a462faeb904a3de1b1e009a04f7d171d8" target="_top" xlink:title="regression_backreference\l_counters_should_not_roll_over">
<polygon fill="#ffffff" stroke="#000000" points="363,-662 363,-692 522,-692 522,-662 363,-662"/>
<text text-anchor="start" x="371" y="-680" font-family="Helvetica,sans-Serif" font-size="10.00" fill="#000000">regression_backreference</text>
<text text-anchor="middle" x="442.5" y="-669" font-family="Helvetica,sans-Serif" font-size="10.00" fill="#000000">_counters_should_not_roll_over</text>
</a>
</g>
</g>
<!-- Node186&#45;&gt;Node192 -->
<g id="edge10" class="edge">
<title>Node186&#45;&gt;Node192</title>
<path fill="none" stroke="#191970" d="M309.5545,-695.3373C326.783,-692.961 345.3526,-690.3996 362.9915,-687.9667"/>
<polygon fill="#191970" stroke="#191970" points="309.0107,-691.8791 299.5827,-696.7127 309.9672,-698.8134 309.0107,-691.8791"/>
</g>
<!-- Node193 -->
<g id="node9" class="node">
<title>Node193</title>
<g id="a_node9"><a xlink:href="test__heatshrink__dynamic_8c.html#a2ed8ea21768d114fa96b07eb58475663" target="_top" xlink:title="regression_index_fail">
<polygon fill="#ffffff" stroke="#000000" points="387,-623.5 387,-642.5 498,-642.5 498,-623.5 387,-623.5"/>
<text text-anchor="middle" x="442.5" y="-630.5" font-family="Helvetica,sans-Serif" font-size="10.00" fill="#000000">regression_index_fail</text>
</a>
</g>
</g>
<!-- Node186&#45;&gt;Node193 -->
<g id="edge12" class="edge">
<title>Node186&#45;&gt;Node193</title>
<path fill="none" stroke="#191970" d="M276.2359,-685.3546C297.5804,-674.5838 325.2642,-661.6942 351,-653 363.1701,-648.8886 376.5425,-645.4102 389.2162,-642.5655"/>
<polygon fill="#191970" stroke="#191970" points="274.5112,-682.3054 267.2034,-689.9765 277.7,-688.537 274.5112,-682.3054"/>
</g>
<!-- Node194 -->
<g id="node10" class="node">
<title>Node194</title>
<g id="a_node10"><a xlink:href="test__heatshrink__dynamic_8c.html#a1bfe72da903d55a8610433a4f2a60d43" target="_top" xlink:title="sixty_four_k">
<polygon fill="#ffffff" stroke="#000000" points="407.5,-585.5 407.5,-604.5 477.5,-604.5 477.5,-585.5 407.5,-585.5"/>
<text text-anchor="middle" x="442.5" y="-592.5" font-family="Helvetica,sans-Serif" font-size="10.00" fill="#000000">sixty_four_k</text>
</a>
</g>
</g>
<!-- Node186&#45;&gt;Node194 -->
<g id="edge14" class="edge">
<title>Node186&#45;&gt;Node194</title>
<path fill="none" stroke="#191970" d="M260.4835,-682.5249C281.3958,-661.5248 315.4411,-630.9417 351,-614 368.5762,-605.626 389.7797,-600.9278 407.3479,-598.2993"/>
<polygon fill="#191970" stroke="#191970" points="257.8765,-680.185 253.3947,-689.7852 262.8851,-685.0752 257.8765,-680.185"/>
</g>
<!-- Node188 -->
<g id="node4" class="node">
<title>Node188</title>
<g id="a_node4"><a xlink:href="test__heatshrink__dynamic_8c.html#a2f157eb23cb17a496326c14e12933b3b" target="_top" xlink:title="SUITE">
<polygon fill="#ffffff" stroke="#000000" points="570,-667.5 570,-686.5 616,-686.5 616,-667.5 570,-667.5"/>
<text text-anchor="middle" x="593" y="-674.5" font-family="Helvetica,sans-Serif" font-size="10.00" fill="#000000">SUITE</text>
</a>
</g>
</g>
<!-- Node187&#45;&gt;Node188 -->
<g id="edge3" class="edge">
<title>Node187&#45;&gt;Node188</title>
<path fill="none" stroke="#191970" d="M515.521,-884.6613C522.3142,-881.3611 528.6453,-877.2116 534,-872 561.628,-845.1106 584.9864,-722.6113 591.3122,-686.8367"/>
<polygon fill="#191970" stroke="#191970" points="513.882,-881.5536 506.0196,-888.6552 516.5946,-888.0067 513.882,-881.5536"/>
</g>
<!-- Node189&#45;&gt;Node188 -->
<g id="edge5" class="edge">
<title>Node189&#45;&gt;Node188</title>
<path fill="none" stroke="#191970" d="M529.9054,-815.4535C531.3148,-814.3488 532.6818,-813.1983 534,-812 572.7993,-776.729 587.2929,-711.3779 591.5278,-686.7394"/>
<polygon fill="#191970" stroke="#191970" points="527.6708,-812.7424 521.4131,-821.2918 531.6364,-818.5108 527.6708,-812.7424"/>
</g>
<!-- Node190&#45;&gt;Node188 -->
<g id="edge7" class="edge">
<title>Node190&#45;&gt;Node188</title>
<path fill="none" stroke="#191970" d="M523.5153,-768.3824C527.1723,-766.4601 530.6908,-764.3394 534,-762 562.1631,-742.0903 581.269,-704.2326 589.0618,-686.5482"/>
<polygon fill="#191970" stroke="#191970" points="521.7454,-765.3467 514.18,-772.764 524.7196,-771.6835 521.7454,-765.3467"/>
</g>
<!-- Node191&#45;&gt;Node188 -->
<g id="edge9" class="edge">
<title>Node191&#45;&gt;Node188</title>
<path fill="none" stroke="#191970" d="M517.2881,-708.0525C522.9628,-706.0606 528.5851,-704.0308 534,-702 546.6036,-697.2731 560.4737,-691.4295 571.5974,-686.5808"/>
<polygon fill="#191970" stroke="#191970" points="516.0227,-704.7867 507.7157,-711.3626 518.3104,-711.4023 516.0227,-704.7867"/>
</g>
<!-- Node192&#45;&gt;Node188 -->
<g id="edge11" class="edge">
<title>Node192&#45;&gt;Node188</title>
<path fill="none" stroke="#191970" d="M532.3379,-677C546.1921,-677 559.3603,-677 569.8656,-677"/>
<polygon fill="#191970" stroke="#191970" points="532.157,-673.5001 522.1569,-677 532.1569,-680.5001 532.157,-673.5001"/>
</g>
<!-- Node193&#45;&gt;Node188 -->
<g id="edge13" class="edge">
<title>Node193&#45;&gt;Node188</title>
<path fill="none" stroke="#191970" d="M503.7872,-644.8744C513.9559,-647.2784 524.3322,-650.0013 534,-653 546.8853,-656.9967 560.8889,-662.6347 572.0185,-667.442"/>
<polygon fill="#191970" stroke="#191970" points="504.2497,-641.3901 493.7217,-642.5784 502.6929,-648.2148 504.2497,-641.3901"/>
</g>
<!-- Node194&#45;&gt;Node188 -->
<g id="edge15" class="edge">
<title>Node194&#45;&gt;Node188</title>
<path fill="none" stroke="#191970" d="M487.6072,-598.7816C503.0482,-601.4918 519.9569,-606.118 534,-614 557.5213,-627.2019 577.1345,-652.9848 586.7067,-667.1299"/>
<polygon fill="#191970" stroke="#191970" points="488.1326,-595.3213 477.7171,-597.2624 487.0697,-602.2402 488.1326,-595.3213"/>
</g>
<!-- Node195&#45;&gt;Node188 -->
<g id="edge17" class="edge">
<title>Node195&#45;&gt;Node188</title>
<path fill="none" stroke="#191970" d="M526.9163,-570.8553C529.3746,-572.4653 531.7445,-574.1781 534,-576 565.1205,-601.1385 583.2831,-647.3973 590.002,-667.3844"/>
<polygon fill="#191970" stroke="#191970" points="528.6497,-567.8143 518.2544,-565.7677 525.1045,-573.8502 528.6497,-567.8143"/>
</g>
<!-- Node196&#45;&gt;Node188 -->
<g id="edge19" class="edge">
<title>Node196&#45;&gt;Node188</title>
<path fill="none" stroke="#191970" d="M325.2956,-479.3681C389.0625,-471.3331 474.8923,-471.8095 534,-516 559.6306,-535.1621 583.8247,-635.6972 590.917,-667.4083"/>
<polygon fill="#191970" stroke="#191970" points="324.6991,-475.9168 315.2584,-480.7254 325.6372,-482.8537 324.6991,-475.9168"/>
</g>
<!-- Node198 -->
<g id="node14" class="node">
<title>Node198</title>
<g id="a_node14"><a xlink:href="test__heatshrink__dynamic_8c.html#ac4a70b7ac22f00448c1d17d2b29a1359" target="_top" xlink:title="SUITE">
<polygon fill="#ffffff" stroke="#000000" points="419.5,-257.5 419.5,-276.5 465.5,-276.5 465.5,-257.5 419.5,-257.5"/>
<text text-anchor="middle" x="442.5" y="-264.5" font-family="Helvetica,sans-Serif" font-size="10.00" fill="#000000">SUITE</text>
</a>
</g>
</g>
<!-- Node197&#45;&gt;Node198 -->
<g id="edge21" class="edge">
<title>Node197&#45;&gt;Node198</title>
<path fill="none" stroke="#191970" d="M305.4012,-422.691C308.7355,-420.9433 311.9586,-419.0498 315,-417 373.9518,-377.2691 421.2768,-303.0775 436.9512,-276.6524"/>
<polygon fill="#191970" stroke="#191970" points="303.8949,-419.5317 296.3637,-426.9836 306.8982,-425.8547 303.8949,-419.5317"/>
</g>
<!-- Node199&#45;&gt;Node198 -->
<g id="edge23" class="edge">
<title>Node199&#45;&gt;Node198</title>
<path fill="none" stroke="#191970" d="M305.0012,-362.1011C308.4192,-360.4521 311.7716,-358.7488 315,-357 360.5035,-332.3512 409.0809,-294.384 430.8155,-276.6928"/>
<polygon fill="#191970" stroke="#191970" points="303.451,-358.9618 295.8411,-366.3333 306.387,-365.3163 303.451,-358.9618"/>
</g>
<!-- Node200&#45;&gt;Node198 -->
<g id="edge25" class="edge">
<title>Node200&#45;&gt;Node198</title>
<path fill="none" stroke="#191970" d="M314.3677,-304.8716C351.4352,-293.9157 393.6022,-281.4526 419.1181,-273.9109"/>
<polygon fill="#191970" stroke="#191970" points="313.1659,-301.5771 304.5681,-307.768 315.1501,-308.29 313.1659,-301.5771"/>
</g>
<!-- Node201&#45;&gt;Node198 -->
<g id="edge27" class="edge">
<title>Node201&#45;&gt;Node198</title>
<path fill="none" stroke="#191970" d="M312.4624,-267C349.9307,-267 393.0462,-267 419.0119,-267"/>
<polygon fill="#191970" stroke="#191970" points="312.0631,-263.5001 302.0631,-267 312.0631,-270.5001 312.0631,-263.5001"/>
</g>
<!-- Node203 -->
<g id="node19" class="node">
<title>Node203</title>
<g id="a_node19"><a xlink:href="heatshrink_8c.html#a37f19023beced8a782d3051bfd7a0bcb" target="_top" xlink:title="encode">
<polygon fill="#ffffff" stroke="#000000" points="418,-38.5 418,-57.5 467,-57.5 467,-38.5 418,-38.5"/>
<text text-anchor="middle" x="442.5" y="-45.5" font-family="Helvetica,sans-Serif" font-size="10.00" fill="#000000">encode</text>
</a>
</g>
</g>
<!-- Node202&#45;&gt;Node203 -->
<g id="edge29" class="edge">
<title>Node202&#45;&gt;Node203</title>
<path fill="none" stroke="#191970" d="M300.7457,-48C340.0262,-48 388.9052,-48 417.7985,-48"/>
<polygon fill="#191970" stroke="#191970" points="300.7255,-44.5001 290.7255,-48 300.7254,-51.5001 300.7255,-44.5001"/>
</g>
<!-- Node204 -->
<g id="node20" class="node">
<title>Node204</title>
<g id="a_node20"><a xlink:href="heatshrink_8c.html#a3c04138a5bfe5d72780bb7e82a18e627" target="_top" xlink:title="main">
<polygon fill="#ffffff" stroke="#000000" points="574,-38.5 574,-57.5 612,-57.5 612,-38.5 574,-38.5"/>
<text text-anchor="middle" x="593" y="-45.5" font-family="Helvetica,sans-Serif" font-size="10.00" fill="#000000">main</text>
</a>
</g>
</g>
<!-- Node203&#45;&gt;Node204 -->
<g id="edge30" class="edge">
<title>Node203&#45;&gt;Node204</title>
<path fill="none" stroke="#191970" d="M477.0644,-48C507.0704,-48 549.4177,-48 573.7563,-48"/>
<polygon fill="#191970" stroke="#191970" points="477.0154,-44.5001 467.0154,-48 477.0153,-51.5001 477.0154,-44.5001"/>
</g>
<!-- Node205&#45;&gt;Node198 -->
<g id="edge32" class="edge">
<title>Node205&#45;&gt;Node198</title>
<path fill="none" stroke="#191970" d="M308.6476,-227.4377C347.1042,-238.8042 392.4807,-252.216 419.2968,-260.1419"/>
<polygon fill="#191970" stroke="#191970" points="309.617,-224.0746 299.0351,-224.5966 307.6329,-230.7876 309.617,-224.0746"/>
</g>
<!-- Node206&#45;&gt;Node198 -->
<g id="edge34" class="edge">
<title>Node206&#45;&gt;Node198</title>
<path fill="none" stroke="#191970" d="M305.0012,-171.8989C308.4192,-173.5479 311.7716,-175.2512 315,-177 360.5035,-201.6488 409.0809,-239.616 430.8155,-257.3072"/>
<polygon fill="#191970" stroke="#191970" points="306.387,-168.6837 295.8411,-167.6667 303.451,-175.0382 306.387,-168.6837"/>
</g>
<!-- Node207&#45;&gt;Node198 -->
<g id="edge36" class="edge">
<title>Node207&#45;&gt;Node198</title>
<path fill="none" stroke="#191970" d="M304.4865,-110.8346C308.1463,-112.7127 311.6813,-114.7634 315,-117 373.9518,-156.7309 421.2768,-230.9225 436.9512,-257.3476"/>
<polygon fill="#191970" stroke="#191970" points="305.728,-107.5522 295.1842,-106.5139 302.7792,-113.9008 305.728,-107.5522"/>
</g>
<!-- Node209 -->
<g id="node25" class="node">
<title>Node209</title>
<g id="a_node25"><a xlink:href="test__heatshrink__dynamic_8c.html#adc66afa12a5eaae0cd12d5cc497f0f67" target="_top" xlink:title="SUITE">
<polygon fill="#ffffff" stroke="#000000" points="419.5,-.5 419.5,-19.5 465.5,-19.5 465.5,-.5 419.5,-.5"/>
<text text-anchor="middle" x="442.5" y="-7.5" font-family="Helvetica,sans-Serif" font-size="10.00" fill="#000000">SUITE</text>
</a>
</g>
</g>
<!-- Node208&#45;&gt;Node209 -->
<g id="edge38" class="edge">
<title>Node208&#45;&gt;Node209</title>
<path fill="none" stroke="#191970" d="M266.1945,-10C306.2559,-10 381.2655,-10 419.2241,-10"/>
<polygon fill="#191970" stroke="#191970" points="266.1124,-6.5001 256.1123,-10 266.1123,-13.5001 266.1124,-6.5001"/>
</g>
</g>
</svg>
