<?xml version="1.0" encoding="UTF-8" standalone="no"?>
<!DOCTYPE svg PUBLIC "-//W3C//DTD SVG 1.1//EN"
 "http://www.w3.org/Graphics/SVG/1.1/DTD/svg11.dtd">
<!-- Generated by graphviz version 2.41.20170323.1842 (20170323.1842)
 -->
<!-- Title: user/crypto/hmac&#45;sha256.c Pages: 1 -->
<svg width="1892pt" height="364pt"
 viewBox="0.00 0.00 1891.50 364.00" xmlns="http://www.w3.org/2000/svg" xmlns:xlink="http://www.w3.org/1999/xlink">
<g id="graph0" class="graph" transform="scale(1 1) rotate(0) translate(4 360)">
<title>user/crypto/hmac&#45;sha256.c</title>
<polygon fill="#ffffff" stroke="transparent" points="-4,4 -4,-360 1887.5,-360 1887.5,4 -4,4"/>
<!-- Node0 -->
<g id="node1" class="node">
<title>Node0</title>
<polygon fill="#bfbfbf" stroke="#000000" points="383.5,-336.5 383.5,-355.5 520.5,-355.5 520.5,-336.5 383.5,-336.5"/>
<text text-anchor="middle" x="452" y="-343.5" font-family="Helvetica,sans-Serif" font-size="10.00" fill="#000000">user/crypto/hmac&#45;sha256.c</text>
</g>
<!-- Node1 -->
<g id="node2" class="node">
<title>Node1</title>
<g id="a_node2"><a xlink:href="esp8266_8h.html" target="_top" xlink:title="esp8266.h">
<polygon fill="#ffffff" stroke="#000000" points="858.5,-112.5 858.5,-131.5 921.5,-131.5 921.5,-112.5 858.5,-112.5"/>
<text text-anchor="middle" x="890" y="-119.5" font-family="Helvetica,sans-Serif" font-size="10.00" fill="#000000">esp8266.h</text>
</a>
</g>
</g>
<!-- Node0&#45;&gt;Node1 -->
<g id="edge1" class="edge">
<title>Node0&#45;&gt;Node1</title>
<path fill="none" stroke="#191970" d="M470.8203,-336.375C539.8952,-301.0491 779.7083,-178.4049 862.0152,-136.3118"/>
<polygon fill="#191970" stroke="#191970" points="863.9402,-139.2586 871.2498,-131.5891 860.7529,-133.0263 863.9402,-139.2586"/>
</g>
<!-- Node5 -->
<g id="node6" class="node">
<title>Node5</title>
<polygon fill="#ffffff" stroke="#bfbfbf" points="1834.5,-56.5 1834.5,-75.5 1883.5,-75.5 1883.5,-56.5 1834.5,-56.5"/>
<text text-anchor="middle" x="1859" y="-63.5" font-family="Helvetica,sans-Serif" font-size="10.00" fill="#000000">string.h</text>
</g>
<!-- Node0&#45;&gt;Node5 -->
<g id="edge29" class="edge">
<title>Node0&#45;&gt;Node5</title>
<path fill="none" stroke="#191970" d="M520.8485,-345.1282C739.5274,-341.4572 1404,-322.9814 1404,-234 1404,-234 1404,-234 1404,-178 1404,-134.7481 1718.005,-86.0644 1824.305,-70.8227"/>
<polygon fill="#191970" stroke="#191970" points="1824.8069,-74.2867 1834.2141,-69.4128 1823.8207,-67.3565 1824.8069,-74.2867"/>
</g>
<!-- Node27 -->
<g id="node28" class="node">
<title>Node27</title>
<g id="a_node28"><a xlink:href="crypto_8h.html" target="_top" xlink:title="crypto/crypto.h">
<polygon fill="#ffffff" stroke="#000000" points="296,-168.5 296,-187.5 378,-187.5 378,-168.5 296,-168.5"/>
<text text-anchor="middle" x="337" y="-175.5" font-family="Helvetica,sans-Serif" font-size="10.00" fill="#000000">crypto/crypto.h</text>
</a>
</g>
</g>
<!-- Node0&#45;&gt;Node27 -->
<g id="edge30" class="edge">
<title>Node0&#45;&gt;Node27</title>
<path fill="none" stroke="#191970" d="M412.8961,-336.4914C370.5885,-323.7125 306.2007,-296.2951 284,-244 275.6104,-224.2378 294.0571,-205.5368 311.4425,-193.1219"/>
<polygon fill="#191970" stroke="#191970" points="313.4014,-196.0225 319.7697,-187.5551 309.5111,-190.2031 313.4014,-196.0225"/>
</g>
<!-- Node28 -->
<g id="node29" class="node">
<title>Node28</title>
<g id="a_node29"><a xlink:href="hmac-sha256_8h.html" target="_top" xlink:title="crypto/hmac&#45;sha256.h">
<polygon fill="#ffffff" stroke="#000000" points="351.5,-280.5 351.5,-299.5 466.5,-299.5 466.5,-280.5 351.5,-280.5"/>
<text text-anchor="middle" x="409" y="-287.5" font-family="Helvetica,sans-Serif" font-size="10.00" fill="#000000">crypto/hmac&#45;sha256.h</text>
</a>
</g>
</g>
<!-- Node0&#45;&gt;Node28 -->
<g id="edge33" class="edge">
<title>Node0&#45;&gt;Node28</title>
<path fill="none" stroke="#191970" d="M444.51,-336.2455C438.4674,-328.3761 429.8097,-317.101 422.5559,-307.6542"/>
<polygon fill="#191970" stroke="#191970" points="425.2705,-305.4426 416.4042,-299.6427 419.7185,-309.7058 425.2705,-305.4426"/>
</g>
<!-- Node2 -->
<g id="node3" class="node">
<title>Node2</title>
<polygon fill="#ffffff" stroke="#bfbfbf" points="1690.5,-56.5 1690.5,-75.5 1739.5,-75.5 1739.5,-56.5 1690.5,-56.5"/>
<text text-anchor="middle" x="1715" y="-63.5" font-family="Helvetica,sans-Serif" font-size="10.00" fill="#000000">ctype.h</text>
</g>
<!-- Node1&#45;&gt;Node2 -->
<g id="edge2" class="edge">
<title>Node1&#45;&gt;Node2</title>
<path fill="none" stroke="#191970" d="M921.526,-121.1631C1047.1314,-117.6783 1512.8227,-103.2893 1680.3956,-75.8701"/>
<polygon fill="#191970" stroke="#191970" points="1681.0224,-79.3138 1690.2867,-74.1734 1679.8389,-72.4145 1681.0224,-79.3138"/>
</g>
<!-- Node3 -->
<g id="node4" class="node">
<title>Node3</title>
<polygon fill="#ffffff" stroke="#bfbfbf" points="66,-56.5 66,-75.5 112,-75.5 112,-56.5 66,-56.5"/>
<text text-anchor="middle" x="89" y="-63.5" font-family="Helvetica,sans-Serif" font-size="10.00" fill="#000000">stdio.h</text>
</g>
<!-- Node1&#45;&gt;Node3 -->
<g id="edge3" class="edge">
<title>Node1&#45;&gt;Node3</title>
<path fill="none" stroke="#191970" d="M858.1051,-121.1256C734.3272,-117.5755 284.9955,-103.1964 122.1033,-75.7278"/>
<polygon fill="#191970" stroke="#191970" points="122.7109,-72.281 112.254,-73.9852 121.4913,-79.1739 122.7109,-72.281"/>
</g>
<!-- Node4 -->
<g id="node5" class="node">
<title>Node4</title>
<polygon fill="#ffffff" stroke="#bfbfbf" points="260,-56.5 260,-75.5 308,-75.5 308,-56.5 260,-56.5"/>
<text text-anchor="middle" x="284" y="-63.5" font-family="Helvetica,sans-Serif" font-size="10.00" fill="#000000">stdlib.h</text>
</g>
<!-- Node1&#45;&gt;Node4 -->
<g id="edge4" class="edge">
<title>Node1&#45;&gt;Node4</title>
<path fill="none" stroke="#191970" d="M858.3637,-120.3551C756.9993,-114.9482 440.2663,-96.9615 317.8561,-75.7215"/>
<polygon fill="#191970" stroke="#191970" points="318.4682,-72.2754 308.0022,-73.9226 317.2111,-79.1616 318.4682,-72.2754"/>
</g>
<!-- Node1&#45;&gt;Node5 -->
<g id="edge5" class="edge">
<title>Node1&#45;&gt;Node5</title>
<path fill="none" stroke="#191970" d="M921.5696,-121.2935C1063.2148,-117.9924 1640.9844,-103.0945 1820,-76 1821.4686,-75.7777 1822.9621,-75.5234 1824.4663,-75.244"/>
<polygon fill="#191970" stroke="#191970" points="1825.3568,-78.6326 1834.3968,-73.1073 1823.8843,-71.7892 1825.3568,-78.6326"/>
</g>
<!-- Node6 -->
<g id="node7" class="node">
<title>Node6</title>
<polygon fill="#ffffff" stroke="#bfbfbf" points="1411.5,-.5 1411.5,-19.5 1470.5,-19.5 1470.5,-.5 1411.5,-.5"/>
<text text-anchor="middle" x="1441" y="-7.5" font-family="Helvetica,sans-Serif" font-size="10.00" fill="#000000">c_types.h</text>
</g>
<!-- Node1&#45;&gt;Node6 -->
<g id="edge6" class="edge">
<title>Node1&#45;&gt;Node6</title>
<path fill="none" stroke="#191970" d="M921.5044,-121.5451C1074.67,-119.1835 1735.3886,-107.209 1765,-76 1771.1182,-69.5517 1770.8269,-62.7126 1765,-56 1746.5841,-34.7848 1563.2164,-18.8929 1480.78,-12.7627"/>
<polygon fill="#191970" stroke="#191970" points="1481.0063,-9.27 1470.7773,-12.0301 1480.4949,-16.2513 1481.0063,-9.27"/>
</g>
<!-- Node7 -->
<g id="node8" class="node">
<title>Node7</title>
<polygon fill="#ffffff" stroke="#bfbfbf" points="326.5,-56.5 326.5,-75.5 379.5,-75.5 379.5,-56.5 326.5,-56.5"/>
<text text-anchor="middle" x="353" y="-63.5" font-family="Helvetica,sans-Serif" font-size="10.00" fill="#000000">lwip/ip.h</text>
</g>
<!-- Node1&#45;&gt;Node7 -->
<g id="edge7" class="edge">
<title>Node1&#45;&gt;Node7</title>
<path fill="none" stroke="#191970" d="M858.3709,-121.0632C780.3024,-118.3342 572.1821,-108.5227 389.66,-75.7954"/>
<polygon fill="#191970" stroke="#191970" points="390.0777,-72.314 379.6124,-73.9656 388.8235,-79.2007 390.0777,-72.314"/>
</g>
<!-- Node8 -->
<g id="node9" class="node">
<title>Node8</title>
<polygon fill="#ffffff" stroke="#bfbfbf" points="398,-56.5 398,-75.5 460,-75.5 460,-56.5 398,-56.5"/>
<text text-anchor="middle" x="429" y="-63.5" font-family="Helvetica,sans-Serif" font-size="10.00" fill="#000000">lwip/udp.h</text>
</g>
<!-- Node1&#45;&gt;Node8 -->
<g id="edge8" class="edge">
<title>Node1&#45;&gt;Node8</title>
<path fill="none" stroke="#191970" d="M858.367,-120.0215C789.4849,-115.398 620.6737,-102.3582 470.2369,-76.0217"/>
<polygon fill="#191970" stroke="#191970" points="470.8136,-72.5694 460.3557,-74.2677 469.5901,-79.4617 470.8136,-72.5694"/>
</g>
<!-- Node9 -->
<g id="node10" class="node">
<title>Node9</title>
<polygon fill="#ffffff" stroke="#bfbfbf" points="478,-56.5 478,-75.5 560,-75.5 560,-56.5 478,-56.5"/>
<text text-anchor="middle" x="519" y="-63.5" font-family="Helvetica,sans-Serif" font-size="10.00" fill="#000000">lwip/tcp_impl.h</text>
</g>
<!-- Node1&#45;&gt;Node9 -->
<g id="edge9" class="edge">
<title>Node1&#45;&gt;Node9</title>
<path fill="none" stroke="#191970" d="M858.471,-118.0676C802.5318,-110.9642 682.0372,-95.0961 570.2619,-76.1444"/>
<polygon fill="#191970" stroke="#191970" points="570.6138,-72.6539 560.1673,-74.4201 569.4352,-79.5539 570.6138,-72.6539"/>
</g>
<!-- Node10 -->
<g id="node11" class="node">
<title>Node10</title>
<polygon fill="#ffffff" stroke="#bfbfbf" points="578.5,-56.5 578.5,-75.5 653.5,-75.5 653.5,-56.5 578.5,-56.5"/>
<text text-anchor="middle" x="616" y="-63.5" font-family="Helvetica,sans-Serif" font-size="10.00" fill="#000000">netif/etharp.h</text>
</g>
<!-- Node1&#45;&gt;Node10 -->
<g id="edge10" class="edge">
<title>Node1&#45;&gt;Node10</title>
<path fill="none" stroke="#191970" d="M858.3987,-115.6969C816.4101,-107.3 739.6488,-91.8731 663.8972,-76.1715"/>
<polygon fill="#191970" stroke="#191970" points="664.2059,-72.6611 653.7033,-74.0556 662.7832,-79.515 664.2059,-72.6611"/>
</g>
<!-- Node11 -->
<g id="node12" class="node">
<title>Node11</title>
<polygon fill="#ffffff" stroke="#bfbfbf" points="672,-56.5 672,-75.5 736,-75.5 736,-56.5 672,-56.5"/>
<text text-anchor="middle" x="704" y="-63.5" font-family="Helvetica,sans-Serif" font-size="10.00" fill="#000000">lwip/netif.h</text>
</g>
<!-- Node1&#45;&gt;Node11 -->
<g id="edge11" class="edge">
<title>Node1&#45;&gt;Node11</title>
<path fill="none" stroke="#191970" d="M858.4476,-112.5004C827.3175,-103.1278 779.561,-88.7495 745.3977,-78.4638"/>
<polygon fill="#191970" stroke="#191970" points="746.2916,-75.0778 735.7071,-75.5462 744.2735,-81.7806 746.2916,-75.0778"/>
</g>
<!-- Node12 -->
<g id="node13" class="node">
<title>Node12</title>
<polygon fill="#ffffff" stroke="#bfbfbf" points="754.5,-56.5 754.5,-75.5 841.5,-75.5 841.5,-56.5 754.5,-56.5"/>
<text text-anchor="middle" x="798" y="-63.5" font-family="Helvetica,sans-Serif" font-size="10.00" fill="#000000">lwip/lwip_napt.h</text>
</g>
<!-- Node1&#45;&gt;Node12 -->
<g id="edge12" class="edge">
<title>Node1&#45;&gt;Node12</title>
<path fill="none" stroke="#191970" d="M873.9748,-112.2455C859.8592,-103.6534 839.0737,-91.0014 822.8101,-81.1018"/>
<polygon fill="#191970" stroke="#191970" points="824.2034,-77.8525 813.8415,-75.6427 820.5637,-83.8319 824.2034,-77.8525"/>
</g>
<!-- Node13 -->
<g id="node14" class="node">
<title>Node13</title>
<polygon fill="#ffffff" stroke="#bfbfbf" points="859.5,-56.5 859.5,-75.5 920.5,-75.5 920.5,-56.5 859.5,-56.5"/>
<text text-anchor="middle" x="890" y="-63.5" font-family="Helvetica,sans-Serif" font-size="10.00" fill="#000000">lwip/dns.h</text>
</g>
<!-- Node1&#45;&gt;Node13 -->
<g id="edge13" class="edge">
<title>Node1&#45;&gt;Node13</title>
<path fill="none" stroke="#191970" d="M890,-112.2455C890,-104.9382 890,-94.6944 890,-85.7046"/>
<polygon fill="#191970" stroke="#191970" points="893.5001,-85.6426 890,-75.6427 886.5001,-85.6427 893.5001,-85.6426"/>
</g>
<!-- Node14 -->
<g id="node15" class="node">
<title>Node14</title>
<polygon fill="#ffffff" stroke="#bfbfbf" points="939,-56.5 939,-75.5 1053,-75.5 1053,-56.5 939,-56.5"/>
<text text-anchor="middle" x="996" y="-63.5" font-family="Helvetica,sans-Serif" font-size="10.00" fill="#000000">lwip/app/dhcpserver.h</text>
</g>
<!-- Node1&#45;&gt;Node14 -->
<g id="edge14" class="edge">
<title>Node1&#45;&gt;Node14</title>
<path fill="none" stroke="#191970" d="M908.4638,-112.2455C925.1074,-103.4527 949.7993,-90.4079 968.7192,-80.4125"/>
<polygon fill="#191970" stroke="#191970" points="970.5408,-83.4086 977.7478,-75.6427 967.2709,-77.2193 970.5408,-83.4086"/>
</g>
<!-- Node15 -->
<g id="node16" class="node">
<title>Node15</title>
<polygon fill="#ffffff" stroke="#bfbfbf" points="1071.5,-56.5 1071.5,-75.5 1130.5,-75.5 1130.5,-56.5 1071.5,-56.5"/>
<text text-anchor="middle" x="1101" y="-63.5" font-family="Helvetica,sans-Serif" font-size="10.00" fill="#000000">lwip/opt.h</text>
</g>
<!-- Node1&#45;&gt;Node15 -->
<g id="edge15" class="edge">
<title>Node1&#45;&gt;Node15</title>
<path fill="none" stroke="#191970" d="M921.5888,-113.6162C958.8949,-103.7151 1020.98,-87.2375 1061.4494,-76.4968"/>
<polygon fill="#191970" stroke="#191970" points="1062.4767,-79.8454 1071.2443,-73.8973 1060.681,-73.0797 1062.4767,-79.8454"/>
</g>
<!-- Node16 -->
<g id="node17" class="node">
<title>Node16</title>
<polygon fill="#ffffff" stroke="#bfbfbf" points="1148.5,-56.5 1148.5,-75.5 1211.5,-75.5 1211.5,-56.5 1148.5,-56.5"/>
<text text-anchor="middle" x="1180" y="-63.5" font-family="Helvetica,sans-Serif" font-size="10.00" fill="#000000">espconn.h</text>
</g>
<!-- Node1&#45;&gt;Node16 -->
<g id="edge16" class="edge">
<title>Node1&#45;&gt;Node16</title>
<path fill="none" stroke="#191970" d="M921.5588,-116.7589C967.1333,-109.0623 1054.2328,-93.8756 1138.2893,-76.0584"/>
<polygon fill="#191970" stroke="#191970" points="1139.208,-79.4413 1148.2566,-73.93 1137.7462,-72.5956 1139.208,-79.4413"/>
</g>
<!-- Node17 -->
<g id="node18" class="node">
<title>Node17</title>
<polygon fill="#ffffff" stroke="#bfbfbf" points="969.5,-.5 969.5,-19.5 1028.5,-19.5 1028.5,-.5 969.5,-.5"/>
<text text-anchor="middle" x="999" y="-7.5" font-family="Helvetica,sans-Serif" font-size="10.00" fill="#000000">ets_sys.h</text>
</g>
<!-- Node1&#45;&gt;Node17 -->
<g id="edge17" class="edge">
<title>Node1&#45;&gt;Node17</title>
<path fill="none" stroke="#191970" d="M921.6806,-121.5103C1073.4448,-119.0133 1719.9917,-106.6033 1749,-76 1755.115,-69.5487 1755.09,-62.4749 1749,-56 1724.4794,-29.9294 1190.7135,-14.7497 1038.9325,-10.9495"/>
<polygon fill="#191970" stroke="#191970" points="1038.7603,-7.4443 1028.6767,-10.6956 1038.5869,-14.4421 1038.7603,-7.4443"/>
</g>
<!-- Node18 -->
<g id="node19" class="node">
<title>Node18</title>
<polygon fill="#ffffff" stroke="#bfbfbf" points="1230,-56.5 1230,-75.5 1274,-75.5 1274,-56.5 1230,-56.5"/>
<text text-anchor="middle" x="1252" y="-63.5" font-family="Helvetica,sans-Serif" font-size="10.00" fill="#000000">gpio.h</text>
</g>
<!-- Node1&#45;&gt;Node18 -->
<g id="edge18" class="edge">
<title>Node1&#45;&gt;Node18</title>
<path fill="none" stroke="#191970" d="M921.7052,-119.3292C980.8745,-113.9597 1111.9124,-100.2492 1220,-76 1220.0994,-75.9777 1220.1989,-75.9552 1220.2986,-75.9326"/>
<polygon fill="#191970" stroke="#191970" points="1220.9549,-79.3786 1229.7474,-73.4673 1219.1876,-72.6054 1220.9549,-79.3786"/>
</g>
<!-- Node19 -->
<g id="node20" class="node">
<title>Node19</title>
<polygon fill="#ffffff" stroke="#bfbfbf" points="1292.5,-56.5 1292.5,-75.5 1339.5,-75.5 1339.5,-56.5 1292.5,-56.5"/>
<text text-anchor="middle" x="1316" y="-63.5" font-family="Helvetica,sans-Serif" font-size="10.00" fill="#000000">mem.h</text>
</g>
<!-- Node1&#45;&gt;Node19 -->
<g id="edge19" class="edge">
<title>Node1&#45;&gt;Node19</title>
<path fill="none" stroke="#191970" d="M921.6347,-120.2101C987.223,-116.0915 1142.826,-104.2083 1282.3227,-75.7949"/>
<polygon fill="#191970" stroke="#191970" points="1283.255,-79.1761 1292.3372,-73.7204 1281.8351,-72.3217 1283.255,-79.1761"/>
</g>
<!-- Node20 -->
<g id="node21" class="node">
<title>Node20</title>
<polygon fill="#ffffff" stroke="#bfbfbf" points="1357.5,-56.5 1357.5,-75.5 1406.5,-75.5 1406.5,-56.5 1357.5,-56.5"/>
<text text-anchor="middle" x="1382" y="-63.5" font-family="Helvetica,sans-Serif" font-size="10.00" fill="#000000">osapi.h</text>
</g>
<!-- Node1&#45;&gt;Node20 -->
<g id="edge20" class="edge">
<title>Node1&#45;&gt;Node20</title>
<path fill="none" stroke="#191970" d="M921.6686,-120.846C995.0218,-117.743 1182.2644,-107.3528 1347.4077,-75.7706"/>
<polygon fill="#191970" stroke="#191970" points="1348.1008,-79.2015 1357.2494,-73.8579 1346.7653,-72.3301 1348.1008,-79.2015"/>
</g>
<!-- Node21 -->
<g id="node22" class="node">
<title>Node21</title>
<polygon fill="#ffffff" stroke="#bfbfbf" points="1425,-56.5 1425,-75.5 1513,-75.5 1513,-56.5 1425,-56.5"/>
<text text-anchor="middle" x="1469" y="-63.5" font-family="Helvetica,sans-Serif" font-size="10.00" fill="#000000">user_interface.h</text>
</g>
<!-- Node1&#45;&gt;Node21 -->
<g id="edge21" class="edge">
<title>Node1&#45;&gt;Node21</title>
<path fill="none" stroke="#191970" d="M921.7784,-120.2789C1002.3438,-115.6892 1221.2669,-101.8079 1414.7812,-75.8941"/>
<polygon fill="#191970" stroke="#191970" points="1415.4108,-79.3409 1424.8511,-74.5315 1414.4721,-72.4041 1415.4108,-79.3409"/>
</g>
<!-- Node22 -->
<g id="node23" class="node">
<title>Node22</title>
<polygon fill="#ffffff" stroke="#bfbfbf" points="1531,-56.5 1531,-75.5 1593,-75.5 1593,-56.5 1531,-56.5"/>
<text text-anchor="middle" x="1562" y="-63.5" font-family="Helvetica,sans-Serif" font-size="10.00" fill="#000000">upgrade.h</text>
</g>
<!-- Node1&#45;&gt;Node22 -->
<g id="edge22" class="edge">
<title>Node1&#45;&gt;Node22</title>
<path fill="none" stroke="#191970" d="M921.7877,-121.6171C1013.4229,-120.1062 1286.0132,-112.7495 1520.5793,-75.9795"/>
<polygon fill="#191970" stroke="#191970" points="1521.3362,-79.4032 1530.6628,-74.3767 1520.2373,-72.49 1521.3362,-79.4032"/>
</g>
<!-- Node23 -->
<g id="node24" class="node">
<title>Node23</title>
<g id="a_node24"><a xlink:href="platform_8h.html" target="_top" xlink:title="platform.h">
<polygon fill="#ffffff" stroke="#000000" points="1611.5,-56.5 1611.5,-75.5 1672.5,-75.5 1672.5,-56.5 1611.5,-56.5"/>
<text text-anchor="middle" x="1642" y="-63.5" font-family="Helvetica,sans-Serif" font-size="10.00" fill="#000000">platform.h</text>
</a>
</g>
</g>
<!-- Node1&#45;&gt;Node23 -->
<g id="edge23" class="edge">
<title>Node1&#45;&gt;Node23</title>
<path fill="none" stroke="#191970" d="M921.511,-120.7222C1038.539,-115.8617 1448.8224,-97.7681 1601.0278,-75.8277"/>
<polygon fill="#191970" stroke="#191970" points="1601.7372,-79.2605 1611.104,-74.3094 1600.6941,-72.3386 1601.7372,-79.2605"/>
</g>
<!-- Node24 -->
<g id="node25" class="node">
<title>Node24</title>
<g id="a_node25"><a xlink:href="espmissingincludes_8h.html" target="_top" xlink:title="espmissingincludes.h">
<polygon fill="#ffffff" stroke="#000000" points="130,-56.5 130,-75.5 242,-75.5 242,-56.5 130,-56.5"/>
<text text-anchor="middle" x="186" y="-63.5" font-family="Helvetica,sans-Serif" font-size="10.00" fill="#000000">espmissingincludes.h</text>
</a>
</g>
</g>
<!-- Node1&#45;&gt;Node24 -->
<g id="edge24" class="edge">
<title>Node1&#45;&gt;Node24</title>
<path fill="none" stroke="#191970" d="M858.3347,-120.6276C766.3931,-116.4508 491.3177,-102.596 252.5965,-76.101"/>
<polygon fill="#191970" stroke="#191970" points="252.6605,-72.5864 242.333,-74.9515 251.8813,-79.5429 252.6605,-72.5864"/>
</g>
<!-- Node24&#45;&gt;Node6 -->
<g id="edge26" class="edge">
<title>Node24&#45;&gt;Node6</title>
<path fill="none" stroke="#191970" d="M242.321,-56.9333C245.2524,-56.5873 248.1587,-56.2726 251,-56 481.7938,-33.8587 1221.5806,-15.2059 1401.3533,-10.9238"/>
<polygon fill="#191970" stroke="#191970" points="1401.5074,-14.4212 1411.4216,-10.685 1401.3414,-7.4232 1401.5074,-14.4212"/>
</g>
<!-- Node24&#45;&gt;Node17 -->
<g id="edge28" class="edge">
<title>Node24&#45;&gt;Node17</title>
<path fill="none" stroke="#191970" d="M242.329,-57.0123C245.2583,-56.6457 248.162,-56.3049 251,-56 520.7498,-27.0167 847.3384,-14.7295 959.1959,-11.169"/>
<polygon fill="#191970" stroke="#191970" points="959.4558,-14.6626 969.3413,-10.8514 959.2367,-7.6661 959.4558,-14.6626"/>
</g>
<!-- Node25 -->
<g id="node26" class="node">
<title>Node25</title>
<polygon fill="#ffffff" stroke="#bfbfbf" points="13.5,-.5 13.5,-19.5 62.5,-19.5 62.5,-.5 13.5,-.5"/>
<text text-anchor="middle" x="38" y="-7.5" font-family="Helvetica,sans-Serif" font-size="10.00" fill="#000000">stdint.h</text>
</g>
<!-- Node24&#45;&gt;Node25 -->
<g id="edge25" class="edge">
<title>Node24&#45;&gt;Node25</title>
<path fill="none" stroke="#191970" d="M160.5579,-56.3733C136.1201,-47.1265 99.0328,-33.0935 72.0571,-22.8865"/>
<polygon fill="#191970" stroke="#191970" points="73.2098,-19.5805 62.6183,-19.315 70.7325,-26.1275 73.2098,-19.5805"/>
</g>
<!-- Node26 -->
<g id="node27" class="node">
<title>Node26</title>
<polygon fill="#ffffff" stroke="#bfbfbf" points="151,-.5 151,-19.5 221,-19.5 221,-.5 151,-.5"/>
<text text-anchor="middle" x="186" y="-7.5" font-family="Helvetica,sans-Serif" font-size="10.00" fill="#000000">eagle_soc.h</text>
</g>
<!-- Node24&#45;&gt;Node26 -->
<g id="edge27" class="edge">
<title>Node24&#45;&gt;Node26</title>
<path fill="none" stroke="#191970" d="M186,-56.2455C186,-48.9382 186,-38.6944 186,-29.7046"/>
<polygon fill="#191970" stroke="#191970" points="189.5001,-29.6426 186,-19.6427 182.5001,-29.6427 189.5001,-29.6426"/>
</g>
<!-- Node27&#45;&gt;Node1 -->
<g id="edge31" class="edge">
<title>Node27&#45;&gt;Node1</title>
<path fill="none" stroke="#191970" d="M378.1131,-173.8366C480.3579,-163.4827 745.2669,-136.6565 848.2176,-126.2311"/>
<polygon fill="#191970" stroke="#191970" points="848.642,-129.7061 858.2384,-125.2164 847.9367,-122.7418 848.642,-129.7061"/>
</g>
<!-- Node27&#45;&gt;Node3 -->
<g id="edge32" class="edge">
<title>Node27&#45;&gt;Node3</title>
<path fill="none" stroke="#191970" d="M315.8557,-168.4509C271.8384,-148.5722 170.2314,-102.6852 119.2816,-79.6756"/>
<polygon fill="#191970" stroke="#191970" points="120.6451,-76.451 110.0908,-75.5249 117.764,-82.8306 120.6451,-76.451"/>
</g>
<!-- Node28&#45;&gt;Node1 -->
<g id="edge34" class="edge">
<title>Node28&#45;&gt;Node1</title>
<path fill="none" stroke="#191970" d="M417.6349,-280.3391C439.4718,-256.6147 499.7497,-195.4301 564,-168 614.3945,-146.4853 772.1661,-131.3948 848.2062,-125.1739"/>
<polygon fill="#191970" stroke="#191970" points="848.6869,-128.6466 858.3737,-124.3552 848.125,-121.6692 848.6869,-128.6466"/>
</g>
<!-- Node28&#45;&gt;Node25 -->
<g id="edge35" class="edge">
<title>Node28&#45;&gt;Node25</title>
<path fill="none" stroke="#191970" d="M351.2678,-286.2486C238.5266,-277.3324 0,-249.9647 0,-178 0,-178 0,-178 0,-122 0,-87.6118 16.2634,-50.2832 27.511,-28.5791"/>
<polygon fill="#191970" stroke="#191970" points="30.7317,-29.9804 32.393,-19.5166 24.569,-26.6605 30.7317,-29.9804"/>
</g>
<!-- Node28&#45;&gt;Node27 -->
<g id="edge36" class="edge">
<title>Node28&#45;&gt;Node27</title>
<path fill="none" stroke="#191970" d="M407.9638,-280.3349C406.1448,-266.81 401.42,-241.8899 390,-224 382.42,-212.1257 370.8753,-201.5938 360.4936,-193.6141"/>
<polygon fill="#191970" stroke="#191970" points="362.3016,-190.6008 352.1591,-187.5379 358.1779,-196.2572 362.3016,-190.6008"/>
</g>
<!-- Node29 -->
<g id="node30" class="node">
<title>Node29</title>
<g id="a_node30"><a xlink:href="sha256_8h.html" target="_top" xlink:title="crypto/sha256.h">
<polygon fill="#ffffff" stroke="#000000" points="293,-224.5 293,-243.5 381,-243.5 381,-224.5 293,-224.5"/>
<text text-anchor="middle" x="337" y="-231.5" font-family="Helvetica,sans-Serif" font-size="10.00" fill="#000000">crypto/sha256.h</text>
</a>
</g>
</g>
<!-- Node28&#45;&gt;Node29 -->
<g id="edge37" class="edge">
<title>Node28&#45;&gt;Node29</title>
<path fill="none" stroke="#191970" d="M396.4586,-280.2455C385.7213,-271.8943 370.0527,-259.7076 357.4953,-249.9408"/>
<polygon fill="#191970" stroke="#191970" points="359.4401,-247.0194 349.3977,-243.6427 355.1425,-252.5449 359.4401,-247.0194"/>
</g>
<!-- Node29&#45;&gt;Node1 -->
<g id="edge38" class="edge">
<title>Node29&#45;&gt;Node1</title>
<path fill="none" stroke="#191970" d="M358.8643,-224.4899C393.1579,-209.9774 461.9882,-182.468 523,-168 638.889,-140.5186 779.5009,-128.712 848.1765,-124.2927"/>
<polygon fill="#191970" stroke="#191970" points="848.4083,-127.7851 858.171,-123.6694 847.9725,-120.7987 848.4083,-127.7851"/>
</g>
<!-- Node29&#45;&gt;Node25 -->
<g id="edge39" class="edge">
<title>Node29&#45;&gt;Node25</title>
<path fill="none" stroke="#191970" d="M303.4086,-224.3551C244.4924,-205.6933 122.5732,-158.9934 57,-76 46.501,-62.7118 41.8034,-43.8527 39.7016,-29.6946"/>
<polygon fill="#191970" stroke="#191970" points="43.1523,-29.0685 38.5113,-19.5442 36.1999,-29.8838 43.1523,-29.0685"/>
</g>
<!-- Node29&#45;&gt;Node27 -->
<g id="edge40" class="edge">
<title>Node29&#45;&gt;Node27</title>
<path fill="none" stroke="#191970" d="M337,-224.2455C337,-216.9382 337,-206.6944 337,-197.7046"/>
<polygon fill="#191970" stroke="#191970" points="340.5001,-197.6426 337,-187.6427 333.5001,-197.6427 340.5001,-197.6426"/>
</g>
</g>
</svg>
