<?xml version="1.0" encoding="UTF-8" standalone="no"?>
<!DOCTYPE svg PUBLIC "-//W3C//DTD SVG 1.1//EN"
 "http://www.w3.org/Graphics/SVG/1.1/DTD/svg11.dtd">
<!-- Generated by graphviz version 2.39.20160927.1334 (20160927.1334)
 -->
<!-- Title: user/crypto/hmac&#45;sha256.h Pages: 1 -->
<svg width="379pt" height="84pt"
 viewBox="0.00 0.00 378.50 84.00" xmlns="http://www.w3.org/2000/svg" xmlns:xlink="http://www.w3.org/1999/xlink">
<g id="graph0" class="graph" transform="scale(1 1) rotate(0) translate(4 80)">
<title>user/crypto/hmac&#45;sha256.h</title>
<polygon fill="#ffffff" stroke="transparent" points="-4,4 -4,-80 374.5,-80 374.5,4 -4,4"/>
<!-- Node1 -->
<g id="node1" class="node">
<title>Node1</title>
<polygon fill="#bfbfbf" stroke="#000000" points="122,-56.5 122,-75.5 260,-75.5 260,-56.5 122,-56.5"/>
<text text-anchor="middle" x="191" y="-63.5" font-family="Helvetica,sans-Serif" font-size="10.00" fill="#000000">user/crypto/hmac&#45;sha256.h</text>
</g>
<!-- Node2 -->
<g id="node2" class="node">
<title>Node2</title>
<g id="a_node2"><a xlink:href="crypto_8c.html" target="_top" xlink:title="user/crypto/crypto.c">
<polygon fill="#ffffff" stroke="#000000" points="0,-0.5 0,-19.5 104,-19.5 104,-0.5 0,-0.5"/>
<text text-anchor="middle" x="52" y="-7.5" font-family="Helvetica,sans-Serif" font-size="10.00" fill="#000000">user/crypto/crypto.c</text>
</a>
</g>
</g>
<!-- Node1&#45;&gt;Node2 -->
<g id="edge1" class="edge">
<title>Node1&#45;&gt;Node2</title>
<path fill="none" stroke="#191970" d="M157.538,-52.5189C132.223,-42.3201 98.0897,-28.5685 75.5831,-19.5011"/>
<polygon fill="#191970" stroke="#191970" points="156.522,-55.8827 167.105,-56.3733 159.137,-49.3899 156.522,-55.8827"/>
</g>
<!-- Node3 -->
<g id="node3" class="node">
<title>Node3</title>
<g id="a_node3"><a xlink:href="hmac-sha256_8c.html" target="_top" xlink:title="user/crypto/hmac&#45;sha256.c">
<polygon fill="#ffffff" stroke="#000000" points="122.5,-0.5 122.5,-19.5 259.5,-19.5 259.5,-0.5 122.5,-0.5"/>
<text text-anchor="middle" x="191" y="-7.5" font-family="Helvetica,sans-Serif" font-size="10.00" fill="#000000">user/crypto/hmac&#45;sha256.c</text>
</a>
</g>
</g>
<!-- Node1&#45;&gt;Node3 -->
<g id="edge2" class="edge">
<title>Node1&#45;&gt;Node3</title>
<path fill="none" stroke="#191970" d="M191,-46.1575C191,-37.155 191,-26.9199 191,-19.6427"/>
<polygon fill="#191970" stroke="#191970" points="187.5,-46.2455 191,-56.2455 194.5,-46.2456 187.5,-46.2455"/>
</g>
<!-- Node4 -->
<g id="node4" class="node">
<title>Node4</title>
<g id="a_node4"><a xlink:href="user__main_8c.html" target="_top" xlink:title="user/user_main.c">
<polygon fill="#ffffff" stroke="#000000" points="277.5,-0.5 277.5,-19.5 370.5,-19.5 370.5,-0.5 277.5,-0.5"/>
<text text-anchor="middle" x="324" y="-7.5" font-family="Helvetica,sans-Serif" font-size="10.00" fill="#000000">user/user_main.c</text>
</a>
</g>
</g>
<!-- Node1&#45;&gt;Node4 -->
<g id="edge3" class="edge">
<title>Node1&#45;&gt;Node4</title>
<path fill="none" stroke="#191970" d="M223.34,-52.3833C247.529,-42.1985 279.995,-28.5284 301.435,-19.5011"/>
<polygon fill="#191970" stroke="#191970" points="221.722,-49.2669 213.864,-56.3733 224.438,-55.7184 221.722,-49.2669"/>
</g>
</g>
</svg>
