<?xml version="1.0" encoding="UTF-8" standalone="no"?>
<!DOCTYPE svg PUBLIC "-//W3C//DTD SVG 1.1//EN"
 "http://www.w3.org/Graphics/SVG/1.1/DTD/svg11.dtd">
<!-- Generated by graphviz version 2.39.20160927.1334 (20160927.1334)
 -->
<!-- Title: hmac_sha256_final Pages: 1 -->
<svg width="1151pt" height="260pt"
 viewBox="0.00 0.00 1151.00 259.56" xmlns="http://www.w3.org/2000/svg" xmlns:xlink="http://www.w3.org/1999/xlink">
<g id="graph0" class="graph" transform="scale(1 1) rotate(0) translate(4 255.564)">
<title>hmac_sha256_final</title>
<polygon fill="#ffffff" stroke="transparent" points="-4,4 -4,-255.564 1147,-255.564 1147,4 -4,4"/>
<!-- Node1 -->
<g id="node1" class="node">
<title>Node1</title>
<polygon fill="#bfbfbf" stroke="#000000" points="0,-137.064 0,-156.064 103,-156.064 103,-137.064 0,-137.064"/>
<text text-anchor="middle" x="51.5" y="-144.064" font-family="Helvetica,sans-Serif" font-size="10.00" fill="#000000">hmac_sha256_final</text>
</g>
<!-- Node2 -->
<g id="node2" class="node">
<title>Node2</title>
<g id="a_node2"><a xlink:href="crypto_8h.html#a0d1e89f74b522d69161f6b213fc5abc7" target="_top" xlink:title="decrypt_aes_hmac_combined">
<polygon fill="#ffffff" stroke="#000000" points="139,-194.064 139,-213.064 289,-213.064 289,-194.064 139,-194.064"/>
<text text-anchor="middle" x="214" y="-201.064" font-family="Helvetica,sans-Serif" font-size="10.00" fill="#000000">decrypt_aes_hmac_combined</text>
</a>
</g>
</g>
<!-- Node1&#45;&gt;Node2 -->
<g id="edge1" class="edge">
<title>Node1&#45;&gt;Node2</title>
<path fill="none" stroke="#191970" d="M88.3574,-159.493C118.257,-169.98 159.731,-184.528 186.712,-193.992"/>
<polygon fill="#191970" stroke="#191970" points="89.2937,-156.112 78.6988,-156.105 86.9767,-162.717 89.2937,-156.112"/>
</g>
<!-- Node7 -->
<g id="node7" class="node">
<title>Node7</title>
<g id="a_node7"><a xlink:href="crypto_8h.html#a7991ec94c8faa24921947687f2d587a0" target="_top" xlink:title="encrypt_aes_hmac_combined">
<polygon fill="#ffffff" stroke="#000000" points="139,-137.064 139,-156.064 289,-156.064 289,-137.064 139,-137.064"/>
<text text-anchor="middle" x="214" y="-144.064" font-family="Helvetica,sans-Serif" font-size="10.00" fill="#000000">encrypt_aes_hmac_combined</text>
</a>
</g>
</g>
<!-- Node1&#45;&gt;Node7 -->
<g id="edge6" class="edge">
<title>Node1&#45;&gt;Node7</title>
<path fill="none" stroke="#191970" d="M113.385,-146.564C121.74,-146.564 130.386,-146.564 138.939,-146.564"/>
<polygon fill="#191970" stroke="#191970" points="113.363,-143.064 103.363,-146.564 113.363,-150.064 113.363,-143.064"/>
</g>
<!-- Node18 -->
<g id="node18" class="node">
<title>Node18</title>
<g id="a_node18"><a xlink:href="hmac-sha256_8h.html#acdadc130fbf78b5f98339c203a057796" target="_top" xlink:title="hmac_sha256">
<polygon fill="#ffffff" stroke="#000000" points="174.5,-99.0641 174.5,-118.064 253.5,-118.064 253.5,-99.0641 174.5,-99.0641"/>
<text text-anchor="middle" x="214" y="-106.064" font-family="Helvetica,sans-Serif" font-size="10.00" fill="#000000">hmac_sha256</text>
</a>
</g>
</g>
<!-- Node1&#45;&gt;Node18 -->
<g id="edge26" class="edge">
<title>Node1&#45;&gt;Node18</title>
<path fill="none" stroke="#191970" d="M102.526,-134.632C125.731,-129.205 152.773,-122.882 174.41,-117.822"/>
<polygon fill="#191970" stroke="#191970" points="101.446,-131.29 92.5056,-136.975 103.04,-138.106 101.446,-131.29"/>
</g>
<!-- Node3 -->
<g id="node3" class="node">
<title>Node3</title>
<g id="a_node3"><a xlink:href="user__main_8h.html#a53fca5688835df983e3ff1a91d387618" target="_top" xlink:title="mqttDataCb">
<polygon fill="#ffffff" stroke="#000000" points="351,-232.064 351,-251.064 421,-251.064 421,-232.064 351,-232.064"/>
<text text-anchor="middle" x="386" y="-239.064" font-family="Helvetica,sans-Serif" font-size="10.00" fill="#000000">mqttDataCb</text>
</a>
</g>
</g>
<!-- Node2&#45;&gt;Node3 -->
<g id="edge2" class="edge">
<title>Node2&#45;&gt;Node3</title>
<path fill="none" stroke="#191970" d="M267.19,-215.315C294.458,-221.34 326.903,-228.508 350.992,-233.83"/>
<polygon fill="#191970" stroke="#191970" points="267.922,-211.893 257.403,-213.153 266.412,-218.728 267.922,-211.893"/>
</g>
<!-- Node4 -->
<g id="node4" class="node">
<title>Node4</title>
<g id="a_node4"><a xlink:href="user__main_8c.html#a245ec00253f410a8804988bf40e1037e" target="_top" xlink:title="sample_mode_timer_func">
<polygon fill="#ffffff" stroke="#000000" points="791,-114.064 791,-133.064 923,-133.064 923,-114.064 791,-114.064"/>
<text text-anchor="middle" x="857" y="-121.064" font-family="Helvetica,sans-Serif" font-size="10.00" fill="#000000">sample_mode_timer_func</text>
</a>
</g>
</g>
<!-- Node3&#45;&gt;Node4 -->
<g id="edge3" class="edge">
<title>Node3&#45;&gt;Node4</title>
<path fill="none" stroke="#191970" d="M431.183,-233.121C475.811,-224.546 545.912,-210.443 606,-195.564 686.089,-175.733 779.165,-147.708 826.282,-133.163"/>
<polygon fill="#191970" stroke="#191970" points="430.4,-229.708 421.234,-235.022 431.713,-236.583 430.4,-229.708"/>
</g>
<!-- Node5 -->
<g id="node5" class="node">
<title>Node5</title>
<g id="a_node5"><a xlink:href="user__main_8h.html#a3671381db669a16e8f6a4bf3dfb9a441" target="_top" xlink:title="system_init_done">
<polygon fill="#ffffff" stroke="#000000" points="959,-86.0641 959,-105.064 1053,-105.064 1053,-86.0641 959,-86.0641"/>
<text text-anchor="middle" x="1006" y="-93.0641" font-family="Helvetica,sans-Serif" font-size="10.00" fill="#000000">system_init_done</text>
</a>
</g>
</g>
<!-- Node4&#45;&gt;Node5 -->
<g id="edge4" class="edge">
<title>Node4&#45;&gt;Node5</title>
<path fill="none" stroke="#191970" d="M917.713,-112.155C931.438,-109.576 945.811,-106.875 958.878,-104.419"/>
<polygon fill="#191970" stroke="#191970" points="917.042,-108.72 907.861,-114.006 918.335,-115.599 917.042,-108.72"/>
</g>
<!-- Node6 -->
<g id="node6" class="node">
<title>Node6</title>
<g id="a_node6"><a xlink:href="user__main_8h.html#a33113d6dedb440bd7dfa5576e325140c" target="_top" xlink:title="user_init">
<polygon fill="#ffffff" stroke="#000000" points="1089,-86.0641 1089,-105.064 1143,-105.064 1143,-86.0641 1089,-86.0641"/>
<text text-anchor="middle" x="1116" y="-93.0641" font-family="Helvetica,sans-Serif" font-size="10.00" fill="#000000">user_init</text>
</a>
</g>
</g>
<!-- Node5&#45;&gt;Node6 -->
<g id="edge5" class="edge">
<title>Node5&#45;&gt;Node6</title>
<path fill="none" stroke="#191970" d="M1063.29,-95.5641C1072.16,-95.5641 1080.95,-95.5641 1088.74,-95.5641"/>
<polygon fill="#191970" stroke="#191970" points="1063.29,-92.0642 1053.29,-95.5641 1063.29,-99.0642 1063.29,-92.0642"/>
</g>
<!-- Node7&#45;&gt;Node3 -->
<g id="edge24" class="edge">
<title>Node7&#45;&gt;Node3</title>
<path fill="none" stroke="#191970" d="M247.308,-160.421C260.859,-166.809 276.288,-175.086 289,-184.564 307.651,-198.47 305.254,-210.262 325,-222.564 332.814,-227.432 341.973,-231.141 350.784,-233.931"/>
<polygon fill="#191970" stroke="#191970" points="248.391,-157.068 237.839,-156.113 245.492,-163.439 248.391,-157.068"/>
</g>
<!-- Node8 -->
<g id="node8" class="node">
<title>Node8</title>
<g id="a_node8"><a xlink:href="en61107__request_8c.html#aa3b162cf5364986ea19e831ac2b18f76" target="_top" xlink:title="en61107_received_task">
<polygon fill="#ffffff" stroke="#000000" points="483,-4.06409 483,-23.0641 606,-23.0641 606,-4.06409 483,-4.06409"/>
<text text-anchor="middle" x="544.5" y="-11.0641" font-family="Helvetica,sans-Serif" font-size="10.00" fill="#000000">en61107_received_task</text>
</a>
</g>
</g>
<!-- Node7&#45;&gt;Node8 -->
<g id="edge7" class="edge">
<title>Node7&#45;&gt;Node8</title>
<path fill="none" stroke="#191970" d="M283.439,-131.885C285.388,-130.563 287.249,-129.126 289,-127.564 322.696,-97.5093 288.986,-59.7981 325,-32.5641 373.815,4.34945 447.353,2.54294 495.642,-4.00291"/>
<polygon fill="#191970" stroke="#191970" points="281.402,-129.016 274.411,-136.977 284.841,-135.113 281.402,-129.016"/>
</g>
<!-- Node10 -->
<g id="node10" class="node">
<title>Node10</title>
<g id="a_node10"><a xlink:href="en61107__request_8h.html#a7384d014eb9e833f64ecf4a9f86f87be" target="_top" xlink:title="en61107_request_send">
<polygon fill="#ffffff" stroke="#000000" points="325,-42.0641 325,-61.0641 447,-61.0641 447,-42.0641 325,-42.0641"/>
<text text-anchor="middle" x="386" y="-49.0641" font-family="Helvetica,sans-Serif" font-size="10.00" fill="#000000">en61107_request_send</text>
</a>
</g>
</g>
<!-- Node7&#45;&gt;Node10 -->
<g id="edge10" class="edge">
<title>Node7&#45;&gt;Node10</title>
<path fill="none" stroke="#191970" d="M279.779,-132.989C283.001,-131.379 286.098,-129.578 289,-127.564 312.093,-111.538 302.968,-93.0205 325,-75.5641 332.76,-69.4153 342.291,-64.674 351.493,-61.0935"/>
<polygon fill="#191970" stroke="#191970" points="278.214,-129.852 270.429,-137.04 280.997,-136.275 278.214,-129.852"/>
</g>
<!-- Node11 -->
<g id="node11" class="node">
<title>Node11</title>
<g id="a_node11"><a xlink:href="user__main_8c.html#af2c051d5ceacd30f90c08d6f584deff2" target="_top" xlink:title="sample_timer_func">
<polygon fill="#ffffff" stroke="#000000" points="494,-118.064 494,-137.064 595,-137.064 595,-118.064 494,-118.064"/>
<text text-anchor="middle" x="544.5" y="-125.064" font-family="Helvetica,sans-Serif" font-size="10.00" fill="#000000">sample_timer_func</text>
</a>
</g>
</g>
<!-- Node7&#45;&gt;Node11 -->
<g id="edge25" class="edge">
<title>Node7&#45;&gt;Node11</title>
<path fill="none" stroke="#191970" d="M299.492,-141.649C360.995,-138.114 441.889,-133.463 493.555,-130.493"/>
<polygon fill="#191970" stroke="#191970" points="299.192,-138.161 289.409,-142.229 299.594,-145.149 299.192,-138.161"/>
</g>
<!-- Node12 -->
<g id="node12" class="node">
<title>Node12</title>
<g id="a_node12"><a xlink:href="user__main_8h.html#a06f2b383d99fcad9d0f37d1ca2224898" target="_top" xlink:title="mqttConnectedCb">
<polygon fill="#ffffff" stroke="#000000" points="650,-114.064 650,-133.064 747,-133.064 747,-114.064 650,-114.064"/>
<text text-anchor="middle" x="698.5" y="-121.064" font-family="Helvetica,sans-Serif" font-size="10.00" fill="#000000">mqttConnectedCb</text>
</a>
</g>
</g>
<!-- Node7&#45;&gt;Node12 -->
<g id="edge23" class="edge">
<title>Node7&#45;&gt;Node12</title>
<path fill="none" stroke="#191970" d="M269.194,-135.031C345.031,-120.597 485.742,-98.8767 606,-108.564 620.27,-109.714 635.66,-111.845 649.713,-114.148"/>
<polygon fill="#191970" stroke="#191970" points="268.086,-131.68 258.932,-137.015 269.415,-138.553 268.086,-131.68"/>
</g>
<!-- Node14 -->
<g id="node14" class="node">
<title>Node14</title>
<g id="a_node14"><a xlink:href="kmp__request_8c.html#a3f6b790a06b933b78f40ade5e9a16131" target="_top" xlink:title="kmp_received_task">
<polygon fill="#ffffff" stroke="#000000" points="334.5,-194.064 334.5,-213.064 437.5,-213.064 437.5,-194.064 334.5,-194.064"/>
<text text-anchor="middle" x="386" y="-201.064" font-family="Helvetica,sans-Serif" font-size="10.00" fill="#000000">kmp_received_task</text>
</a>
</g>
</g>
<!-- Node7&#45;&gt;Node14 -->
<g id="edge16" class="edge">
<title>Node7&#45;&gt;Node14</title>
<path fill="none" stroke="#191970" d="M251.032,-159.53C272.57,-166.999 300.263,-176.479 325,-184.564 334.594,-187.7 345.076,-191.007 354.601,-193.968"/>
<polygon fill="#191970" stroke="#191970" points="251.893,-156.124 241.299,-156.147 249.595,-162.736 251.893,-156.124"/>
</g>
<!-- Node16 -->
<g id="node16" class="node">
<title>Node16</title>
<g id="a_node16"><a xlink:href="kmp__request_8h.html#a3b022dcdc832786eb06126b5e6879604" target="_top" xlink:title="kmp_request_send">
<polygon fill="#ffffff" stroke="#000000" points="335,-156.064 335,-175.064 437,-175.064 437,-156.064 335,-156.064"/>
<text text-anchor="middle" x="386" y="-163.064" font-family="Helvetica,sans-Serif" font-size="10.00" fill="#000000">kmp_request_send</text>
</a>
</g>
</g>
<!-- Node7&#45;&gt;Node16 -->
<g id="edge19" class="edge">
<title>Node7&#45;&gt;Node16</title>
<path fill="none" stroke="#191970" d="M299.382,-155.996C311.544,-157.339 323.722,-158.685 334.944,-159.924"/>
<polygon fill="#191970" stroke="#191970" points="299.515,-152.489 289.191,-154.87 298.747,-159.447 299.515,-152.489"/>
</g>
<!-- Node9 -->
<g id="node9" class="node">
<title>Node9</title>
<g id="a_node9"><a xlink:href="en61107__request_8h.html#acd43242675a3f25e7c3b530eac9d8b3a" target="_top" xlink:title="en61107_request_init">
<polygon fill="#ffffff" stroke="#000000" points="642,-4.06409 642,-23.0641 755,-23.0641 755,-4.06409 642,-4.06409"/>
<text text-anchor="middle" x="698.5" y="-11.0641" font-family="Helvetica,sans-Serif" font-size="10.00" fill="#000000">en61107_request_init</text>
</a>
</g>
</g>
<!-- Node8&#45;&gt;Node9 -->
<g id="edge8" class="edge">
<title>Node8&#45;&gt;Node9</title>
<path fill="none" stroke="#191970" d="M616.505,-13.5641C624.967,-13.5641 633.511,-13.5641 641.723,-13.5641"/>
<polygon fill="#191970" stroke="#191970" points="616.25,-10.0642 606.25,-13.5641 616.25,-17.0642 616.25,-10.0642"/>
</g>
<!-- Node9&#45;&gt;Node6 -->
<g id="edge9" class="edge">
<title>Node9&#45;&gt;Node6</title>
<path fill="none" stroke="#191970" d="M765.507,-22.3455C837.281,-32.4759 954.206,-51.0717 1053,-76.5641 1064.84,-79.6182 1077.78,-83.4386 1088.85,-86.851"/>
<polygon fill="#191970" stroke="#191970" points="765.64,-18.8302 755.252,-20.9125 764.672,-25.7629 765.64,-18.8302"/>
</g>
<!-- Node10&#45;&gt;Node11 -->
<g id="edge11" class="edge">
<title>Node10&#45;&gt;Node11</title>
<path fill="none" stroke="#191970" d="M415.32,-65.6228C447.13,-80.8754 497.047,-104.811 524.589,-118.017"/>
<polygon fill="#191970" stroke="#191970" points="416.604,-62.3573 406.074,-61.1895 413.578,-68.6692 416.604,-62.3573"/>
</g>
<!-- Node13 -->
<g id="node13" class="node">
<title>Node13</title>
<g id="a_node13"><a xlink:href="user__main_8c.html#ad75c70d9e67f9a03a6bc6efed2e08c9a" target="_top" xlink:title="en61107_request_send\l_timer_func">
<polygon fill="#ffffff" stroke="#000000" points="796,-58.5641 796,-88.5641 918,-88.5641 918,-58.5641 796,-58.5641"/>
<text text-anchor="start" x="804" y="-76.5641" font-family="Helvetica,sans-Serif" font-size="10.00" fill="#000000">en61107_request_send</text>
<text text-anchor="middle" x="857" y="-65.5641" font-family="Helvetica,sans-Serif" font-size="10.00" fill="#000000">_timer_func</text>
</a>
</g>
</g>
<!-- Node10&#45;&gt;Node13 -->
<g id="edge14" class="edge">
<title>Node10&#45;&gt;Node13</title>
<path fill="none" stroke="#191970" d="M457.17,-54.8884C549.356,-59.1943 708.527,-66.629 795.643,-70.6981"/>
<polygon fill="#191970" stroke="#191970" points="457.245,-51.3881 447.092,-54.4177 456.918,-58.3805 457.245,-51.3881"/>
</g>
<!-- Node11&#45;&gt;Node12 -->
<g id="edge12" class="edge">
<title>Node11&#45;&gt;Node12</title>
<path fill="none" stroke="#191970" d="M605.396,-125.982C620.136,-125.6 635.699,-125.195 649.793,-124.829"/>
<polygon fill="#191970" stroke="#191970" points="605.258,-122.485 595.352,-126.243 605.44,-129.482 605.258,-122.485"/>
</g>
<!-- Node12&#45;&gt;Node4 -->
<g id="edge13" class="edge">
<title>Node12&#45;&gt;Node4</title>
<path fill="none" stroke="#191970" d="M757.551,-123.564C768.396,-123.564 779.782,-123.564 790.819,-123.564"/>
<polygon fill="#191970" stroke="#191970" points="757.349,-120.064 747.349,-123.564 757.349,-127.064 757.349,-120.064"/>
</g>
<!-- Node13&#45;&gt;Node5 -->
<g id="edge15" class="edge">
<title>Node13&#45;&gt;Node5</title>
<path fill="none" stroke="#191970" d="M928.043,-84.0537C938.541,-85.6037 949.13,-87.1672 958.975,-88.6208"/>
<polygon fill="#191970" stroke="#191970" points="928.438,-80.5741 918.034,-82.5758 927.415,-87.499 928.438,-80.5741"/>
</g>
<!-- Node15 -->
<g id="node15" class="node">
<title>Node15</title>
<g id="a_node15"><a xlink:href="kmp__request_8h.html#a048753ff9d6b448e2dcd8c85db0d6873" target="_top" xlink:title="kmp_request_init">
<polygon fill="#ffffff" stroke="#000000" points="959.5,-184.064 959.5,-203.064 1052.5,-203.064 1052.5,-184.064 959.5,-184.064"/>
<text text-anchor="middle" x="1006" y="-191.064" font-family="Helvetica,sans-Serif" font-size="10.00" fill="#000000">kmp_request_init</text>
</a>
</g>
</g>
<!-- Node14&#45;&gt;Node15 -->
<g id="edge17" class="edge">
<title>Node14&#45;&gt;Node15</title>
<path fill="none" stroke="#191970" d="M447.621,-202.57C571.67,-200.569 849.068,-196.095 959.422,-194.315"/>
<polygon fill="#191970" stroke="#191970" points="447.472,-199.072 437.529,-202.733 447.584,-206.071 447.472,-199.072"/>
</g>
<!-- Node15&#45;&gt;Node6 -->
<g id="edge18" class="edge">
<title>Node15&#45;&gt;Node6</title>
<path fill="none" stroke="#191970" d="M1024.7,-176.907C1047.8,-156.324 1086.35,-121.982 1105.09,-105.28"/>
<polygon fill="#191970" stroke="#191970" points="1022.09,-174.544 1016.95,-183.809 1026.74,-179.77 1022.09,-174.544"/>
</g>
<!-- Node16&#45;&gt;Node11 -->
<g id="edge22" class="edge">
<title>Node16&#45;&gt;Node11</title>
<path fill="none" stroke="#191970" d="M435.919,-153.596C458.13,-148.271 483.921,-142.088 504.791,-137.084"/>
<polygon fill="#191970" stroke="#191970" points="434.905,-150.24 425.996,-155.975 436.537,-157.047 434.905,-150.24"/>
</g>
<!-- Node17 -->
<g id="node17" class="node">
<title>Node17</title>
<g id="a_node17"><a xlink:href="kmp__request_8c.html#a0977a4640a97d389ac3b0fef0ba7a9b6" target="_top" xlink:title="kmp_receive_timeout\l_timer_func">
<polygon fill="#ffffff" stroke="#000000" points="488.5,-156.564 488.5,-186.564 600.5,-186.564 600.5,-156.564 488.5,-156.564"/>
<text text-anchor="start" x="496.5" y="-174.564" font-family="Helvetica,sans-Serif" font-size="10.00" fill="#000000">kmp_receive_timeout</text>
<text text-anchor="middle" x="544.5" y="-163.564" font-family="Helvetica,sans-Serif" font-size="10.00" fill="#000000">_timer_func</text>
</a>
</g>
</g>
<!-- Node16&#45;&gt;Node17 -->
<g id="edge20" class="edge">
<title>Node16&#45;&gt;Node17</title>
<path fill="none" stroke="#191970" d="M447.205,-161.289C460.747,-161.561 475.031,-162.136 488.359,-162.951"/>
<polygon fill="#191970" stroke="#191970" points="447.073,-157.787 437.023,-161.141 446.971,-164.786 447.073,-157.787"/>
</g>
<!-- Node17&#45;&gt;Node16 -->
<g id="edge21" class="edge">
<title>Node17&#45;&gt;Node16</title>
<path fill="none" stroke="#191970" d="M478.009,-175.719C464.304,-175.37 450.076,-174.725 437.023,-173.85"/>
<polygon fill="#191970" stroke="#191970" points="478.291,-179.225 488.359,-175.927 478.432,-172.226 478.291,-179.225"/>
</g>
</g>
</svg>
