<?xml version="1.0" encoding="UTF-8" standalone="no"?>
<!DOCTYPE svg PUBLIC "-//W3C//DTD SVG 1.1//EN"
 "http://www.w3.org/Graphics/SVG/1.1/DTD/svg11.dtd">
<!-- Generated by graphviz version 2.41.20170323.1842 (20170323.1842)
 -->
<!-- Title: user/crypto/hmac&#45;sha256.c Pages: 1 -->
<svg width="825pt" height="812pt"
 viewBox="0.00 0.00 825.00 812.00" xmlns="http://www.w3.org/2000/svg" xmlns:xlink="http://www.w3.org/1999/xlink">
<g id="graph0" class="graph" transform="scale(1 1) rotate(0) translate(4 808)">
<title>user/crypto/hmac&#45;sha256.c</title>
<polygon fill="#ffffff" stroke="transparent" points="-4,4 -4,-808 821,-808 821,4 -4,4"/>
<!-- Node0 -->
<g id="node1" class="node">
<title>Node0</title>
<polygon fill="#bfbfbf" stroke="#000000" points="543.5,-784.5 543.5,-803.5 680.5,-803.5 680.5,-784.5 543.5,-784.5"/>
<text text-anchor="middle" x="612" y="-791.5" font-family="Helvetica,sans-Serif" font-size="10.00" fill="#000000">user/crypto/hmac&#45;sha256.c</text>
</g>
<!-- Node1 -->
<g id="node2" class="node">
<title>Node1</title>
<g id="a_node2"><a xlink:href="esp8266_8h.html" target="_top" xlink:title="esp8266.h">
<polygon fill="#ffffff" stroke="#000000" points="413.5,-560.5 413.5,-579.5 476.5,-579.5 476.5,-560.5 413.5,-560.5"/>
<text text-anchor="middle" x="445" y="-567.5" font-family="Helvetica,sans-Serif" font-size="10.00" fill="#000000">esp8266.h</text>
</a>
</g>
</g>
<!-- Node0&#45;&gt;Node1 -->
<g id="edge1" class="edge">
<title>Node0&#45;&gt;Node1</title>
<path fill="none" stroke="#191970" d="M604.8242,-784.375C579.1834,-749.9825 491.8384,-632.8251 458.2811,-587.8141"/>
<polygon fill="#191970" stroke="#191970" points="460.9322,-585.5143 452.149,-579.5891 455.3201,-589.6983 460.9322,-585.5143"/>
</g>
<!-- Node5 -->
<g id="node6" class="node">
<title>Node5</title>
<polygon fill="#ffffff" stroke="#bfbfbf" points="663.5,-56.5 663.5,-75.5 712.5,-75.5 712.5,-56.5 663.5,-56.5"/>
<text text-anchor="middle" x="688" y="-63.5" font-family="Helvetica,sans-Serif" font-size="10.00" fill="#000000">string.h</text>
</g>
<!-- Node0&#45;&gt;Node5 -->
<g id="edge38" class="edge">
<title>Node0&#45;&gt;Node5</title>
<path fill="none" stroke="#191970" d="M680.547,-785.2155C740.142,-773.283 817,-745.5709 817,-682 817,-682 817,-682 817,-234 817,-165.4015 748.5022,-107.5708 711.3341,-81.2402"/>
<polygon fill="#191970" stroke="#191970" points="713.2692,-78.3232 703.0504,-75.5256 709.2942,-84.0851 713.2692,-78.3232"/>
</g>
<!-- Node28 -->
<g id="node29" class="node">
<title>Node28</title>
<g id="a_node29"><a xlink:href="crypto_8h.html" target="_top" xlink:title="crypto/crypto.h">
<polygon fill="#ffffff" stroke="#000000" points="516,-616.5 516,-635.5 598,-635.5 598,-616.5 516,-616.5"/>
<text text-anchor="middle" x="557" y="-623.5" font-family="Helvetica,sans-Serif" font-size="10.00" fill="#000000">crypto/crypto.h</text>
</a>
</g>
</g>
<!-- Node0&#45;&gt;Node28 -->
<g id="edge39" class="edge">
<title>Node0&#45;&gt;Node28</title>
<path fill="none" stroke="#191970" d="M608.8854,-784.4862C600.1535,-757.8144 575.3044,-681.9117 563.4478,-645.695"/>
<polygon fill="#191970" stroke="#191970" points="566.6551,-644.2426 560.2175,-635.8279 560.0026,-646.4205 566.6551,-644.2426"/>
</g>
<!-- Node29 -->
<g id="node30" class="node">
<title>Node29</title>
<g id="a_node30"><a xlink:href="hmac-sha256_8h.html" target="_top" xlink:title="crypto/hmac&#45;sha256.h">
<polygon fill="#ffffff" stroke="#000000" points="609.5,-728.5 609.5,-747.5 724.5,-747.5 724.5,-728.5 609.5,-728.5"/>
<text text-anchor="middle" x="667" y="-735.5" font-family="Helvetica,sans-Serif" font-size="10.00" fill="#000000">crypto/hmac&#45;sha256.h</text>
</a>
</g>
</g>
<!-- Node0&#45;&gt;Node29 -->
<g id="edge42" class="edge">
<title>Node0&#45;&gt;Node29</title>
<path fill="none" stroke="#191970" d="M621.5803,-784.2455C629.5458,-776.1352 641.0641,-764.4075 650.5079,-754.7919"/>
<polygon fill="#191970" stroke="#191970" points="653.0195,-757.2297 657.5295,-747.6427 648.0253,-752.3247 653.0195,-757.2297"/>
</g>
<!-- Node2 -->
<g id="node3" class="node">
<title>Node2</title>
<polygon fill="#ffffff" stroke="#bfbfbf" points="559.5,-504.5 559.5,-523.5 608.5,-523.5 608.5,-504.5 559.5,-504.5"/>
<text text-anchor="middle" x="584" y="-511.5" font-family="Helvetica,sans-Serif" font-size="10.00" fill="#000000">ctype.h</text>
</g>
<!-- Node1&#45;&gt;Node2 -->
<g id="edge2" class="edge">
<title>Node1&#45;&gt;Node2</title>
<path fill="none" stroke="#191970" d="M468.895,-560.3733C491.5082,-551.2629 525.6542,-537.5062 550.8873,-527.3404"/>
<polygon fill="#191970" stroke="#191970" points="552.4493,-530.4845 560.4169,-523.5011 549.8334,-523.9917 552.4493,-530.4845"/>
</g>
<!-- Node3 -->
<g id="node4" class="node">
<title>Node3</title>
<polygon fill="#ffffff" stroke="#bfbfbf" points="0,-504.5 0,-523.5 46,-523.5 46,-504.5 0,-504.5"/>
<text text-anchor="middle" x="23" y="-511.5" font-family="Helvetica,sans-Serif" font-size="10.00" fill="#000000">stdio.h</text>
</g>
<!-- Node1&#45;&gt;Node3 -->
<g id="edge3" class="edge">
<title>Node1&#45;&gt;Node3</title>
<path fill="none" stroke="#191970" d="M413.3195,-567.7791C347.1969,-562.8015 189.8588,-549.1684 60,-524 58.7507,-523.7579 57.4815,-523.4961 56.2024,-523.219"/>
<polygon fill="#191970" stroke="#191970" points="56.9081,-519.7891 46.3681,-520.8652 55.2787,-526.5968 56.9081,-519.7891"/>
</g>
<!-- Node4 -->
<g id="node5" class="node">
<title>Node4</title>
<polygon fill="#ffffff" stroke="#bfbfbf" points="627,-504.5 627,-523.5 675,-523.5 675,-504.5 627,-504.5"/>
<text text-anchor="middle" x="651" y="-511.5" font-family="Helvetica,sans-Serif" font-size="10.00" fill="#000000">stdlib.h</text>
</g>
<!-- Node1&#45;&gt;Node4 -->
<g id="edge4" class="edge">
<title>Node1&#45;&gt;Node4</title>
<path fill="none" stroke="#191970" d="M476.6578,-561.9305C509.4466,-553.4963 562.3949,-539.6642 617.0235,-524.2138"/>
<polygon fill="#191970" stroke="#191970" points="618.2149,-527.514 626.8776,-521.4142 616.3017,-520.7804 618.2149,-527.514"/>
</g>
<!-- Node1&#45;&gt;Node5 -->
<g id="edge5" class="edge">
<title>Node1&#45;&gt;Node5</title>
<path fill="none" stroke="#191970" d="M476.7287,-567.9428C534.5891,-563.5558 654.0532,-551.3617 684,-524 706.5349,-503.4104 703,-488.5246 703,-458 703,-458 703,-458 703,-178 703,-145.2739 696.6307,-107.641 692.193,-85.3923"/>
<polygon fill="#191970" stroke="#191970" points="695.6058,-84.6123 690.1491,-75.5307 688.7515,-86.0329 695.6058,-84.6123"/>
</g>
<!-- Node6 -->
<g id="node7" class="node">
<title>Node6</title>
<g id="a_node7"><a xlink:href="c__types_8h.html" target="_top" xlink:title="c_types.h">
<polygon fill="#ffffff" stroke="#000000" points="221.5,-56.5 221.5,-75.5 280.5,-75.5 280.5,-56.5 221.5,-56.5"/>
<text text-anchor="middle" x="251" y="-63.5" font-family="Helvetica,sans-Serif" font-size="10.00" fill="#000000">c_types.h</text>
</a>
</g>
</g>
<!-- Node1&#45;&gt;Node6 -->
<g id="edge6" class="edge">
<title>Node1&#45;&gt;Node6</title>
<path fill="none" stroke="#191970" d="M413.4278,-567.6556C349.3982,-562.4472 206.7966,-548.4063 165,-524 132.5126,-505.0296 112,-495.6206 112,-458 112,-458 112,-458 112,-290 112,-209.9161 90.4591,-174.9216 140,-112 149.3501,-100.1245 183.6829,-86.9537 211.7184,-77.7594"/>
<polygon fill="#191970" stroke="#191970" points="212.8664,-81.0669 221.321,-74.6817 210.7299,-74.4009 212.8664,-81.0669"/>
</g>
<!-- Node9 -->
<g id="node10" class="node">
<title>Node9</title>
<g id="a_node10"><a xlink:href="ets__sys_8h.html" target="_top" xlink:title="ets_sys.h">
<polygon fill="#ffffff" stroke="#000000" points="149.5,-112.5 149.5,-131.5 208.5,-131.5 208.5,-112.5 149.5,-112.5"/>
<text text-anchor="middle" x="179" y="-119.5" font-family="Helvetica,sans-Serif" font-size="10.00" fill="#000000">ets_sys.h</text>
</a>
</g>
</g>
<!-- Node1&#45;&gt;Node9 -->
<g id="edge9" class="edge">
<title>Node1&#45;&gt;Node9</title>
<path fill="none" stroke="#191970" d="M413.2516,-567.6646C332.2198,-561.4437 122.3961,-543.6038 98,-524 73.6695,-504.4488 74,-489.2125 74,-458 74,-458 74,-458 74,-290 74,-226.179 129.1637,-166.614 159.5232,-138.6648"/>
<polygon fill="#191970" stroke="#191970" points="162.2488,-140.9222 167.362,-131.6428 157.5782,-135.7082 162.2488,-140.9222"/>
</g>
<!-- Node11 -->
<g id="node12" class="node">
<title>Node11</title>
<g id="a_node12"><a xlink:href="gpio_8h.html" target="_top" xlink:title="gpio.h">
<polygon fill="#ffffff" stroke="#000000" points="140,-448.5 140,-467.5 184,-467.5 184,-448.5 140,-448.5"/>
<text text-anchor="middle" x="162" y="-455.5" font-family="Helvetica,sans-Serif" font-size="10.00" fill="#000000">gpio.h</text>
</a>
</g>
</g>
<!-- Node1&#45;&gt;Node11 -->
<g id="edge12" class="edge">
<title>Node1&#45;&gt;Node11</title>
<path fill="none" stroke="#191970" d="M413.4056,-568.5968C350.9594,-565.1854 214.8427,-554.3782 181,-524 168.131,-512.4484 163.7452,-492.8024 162.361,-477.941"/>
<polygon fill="#191970" stroke="#191970" points="165.8428,-477.5141 161.7968,-467.7223 158.8535,-477.9001 165.8428,-477.5141"/>
</g>
<!-- Node12 -->
<g id="node13" class="node">
<title>Node12</title>
<g id="a_node13"><a xlink:href="sdk_2include_2mem_8h.html" target="_top" xlink:title="mem.h">
<polygon fill="#ffffff" stroke="#000000" points="296.5,-504.5 296.5,-523.5 343.5,-523.5 343.5,-504.5 296.5,-504.5"/>
<text text-anchor="middle" x="320" y="-511.5" font-family="Helvetica,sans-Serif" font-size="10.00" fill="#000000">mem.h</text>
</a>
</g>
</g>
<!-- Node1&#45;&gt;Node12 -->
<g id="edge13" class="edge">
<title>Node1&#45;&gt;Node12</title>
<path fill="none" stroke="#191970" d="M423.5117,-560.3733C403.356,-551.3435 373.012,-537.7494 350.382,-527.6111"/>
<polygon fill="#191970" stroke="#191970" points="351.7649,-524.3955 341.2079,-523.5011 348.9029,-530.7838 351.7649,-524.3955"/>
</g>
<!-- Node13 -->
<g id="node14" class="node">
<title>Node13</title>
<g id="a_node14"><a xlink:href="osapi_8h.html" target="_top" xlink:title="osapi.h">
<polygon fill="#ffffff" stroke="#000000" points="485.5,-112.5 485.5,-131.5 534.5,-131.5 534.5,-112.5 485.5,-112.5"/>
<text text-anchor="middle" x="510" y="-119.5" font-family="Helvetica,sans-Serif" font-size="10.00" fill="#000000">osapi.h</text>
</a>
</g>
</g>
<!-- Node1&#45;&gt;Node13 -->
<g id="edge14" class="edge">
<title>Node1&#45;&gt;Node13</title>
<path fill="none" stroke="#191970" d="M427.1402,-560.3435C405.9815,-547.6448 375.4447,-524.5337 391,-504 426.6848,-456.8944 477.0848,-509.6589 519,-468 540.6503,-446.4821 538,-432.5246 538,-402 538,-402 538,-402 538,-234 538,-200.5848 526.1246,-163.1911 517.8415,-141.1729"/>
<polygon fill="#191970" stroke="#191970" points="521.0326,-139.7229 514.1315,-131.6839 514.5132,-142.2719 521.0326,-139.7229"/>
</g>
<!-- Node15 -->
<g id="node16" class="node">
<title>Node15</title>
<g id="a_node16"><a xlink:href="user__interface_8h.html" target="_top" xlink:title="user_interface.h">
<polygon fill="#ffffff" stroke="#000000" points="190,-504.5 190,-523.5 278,-523.5 278,-504.5 190,-504.5"/>
<text text-anchor="middle" x="234" y="-511.5" font-family="Helvetica,sans-Serif" font-size="10.00" fill="#000000">user_interface.h</text>
</a>
</g>
</g>
<!-- Node1&#45;&gt;Node15 -->
<g id="edge17" class="edge">
<title>Node1&#45;&gt;Node15</title>
<path fill="none" stroke="#191970" d="M413.4112,-561.6162C378.0128,-552.2214 320.3048,-536.9055 279.9223,-526.1879"/>
<polygon fill="#191970" stroke="#191970" points="280.6163,-522.751 270.053,-523.5686 278.8206,-529.5168 280.6163,-522.751"/>
</g>
<!-- Node26 -->
<g id="node27" class="node">
<title>Node26</title>
<g id="a_node27"><a xlink:href="upgrade_8h.html" target="_top" xlink:title="upgrade.h">
<polygon fill="#ffffff" stroke="#000000" points="400,-504.5 400,-523.5 462,-523.5 462,-504.5 400,-504.5"/>
<text text-anchor="middle" x="431" y="-511.5" font-family="Helvetica,sans-Serif" font-size="10.00" fill="#000000">upgrade.h</text>
</a>
</g>
</g>
<!-- Node1&#45;&gt;Node26 -->
<g id="edge36" class="edge">
<title>Node1&#45;&gt;Node26</title>
<path fill="none" stroke="#191970" d="M442.5614,-560.2455C440.7145,-552.8579 438.1172,-542.4689 435.8522,-533.4087"/>
<polygon fill="#191970" stroke="#191970" points="439.2316,-532.4952 433.4107,-523.6427 432.4406,-534.193 439.2316,-532.4952"/>
</g>
<!-- Node27 -->
<g id="node28" class="node">
<title>Node27</title>
<g id="a_node28"><a xlink:href="platform_8h.html" target="_top" xlink:title="platform.h">
<polygon fill="#ffffff" stroke="#000000" points="480.5,-504.5 480.5,-523.5 541.5,-523.5 541.5,-504.5 480.5,-504.5"/>
<text text-anchor="middle" x="511" y="-511.5" font-family="Helvetica,sans-Serif" font-size="10.00" fill="#000000">platform.h</text>
</a>
</g>
</g>
<!-- Node1&#45;&gt;Node27 -->
<g id="edge37" class="edge">
<title>Node1&#45;&gt;Node27</title>
<path fill="none" stroke="#191970" d="M456.4963,-560.2455C466.2442,-551.9746 480.4259,-539.9416 491.8798,-530.2232"/>
<polygon fill="#191970" stroke="#191970" points="494.2747,-532.7813 499.6354,-523.6427 489.7459,-527.4437 494.2747,-532.7813"/>
</g>
<!-- Node7 -->
<g id="node8" class="node">
<title>Node7</title>
<polygon fill="#ffffff" stroke="#bfbfbf" points="716.5,-.5 716.5,-19.5 765.5,-19.5 765.5,-.5 716.5,-.5"/>
<text text-anchor="middle" x="741" y="-7.5" font-family="Helvetica,sans-Serif" font-size="10.00" fill="#000000">stdint.h</text>
</g>
<!-- Node6&#45;&gt;Node7 -->
<g id="edge7" class="edge">
<title>Node6&#45;&gt;Node7</title>
<path fill="none" stroke="#191970" d="M280.5482,-62.6231C366.231,-52.8307 614.5195,-24.4549 706.3341,-13.9618"/>
<polygon fill="#191970" stroke="#191970" points="706.9464,-17.4147 716.4843,-12.8018 706.1515,-10.46 706.9464,-17.4147"/>
</g>
<!-- Node8 -->
<g id="node9" class="node">
<title>Node8</title>
<polygon fill="#ffffff" stroke="#bfbfbf" points="222.5,-.5 222.5,-19.5 279.5,-19.5 279.5,-.5 222.5,-.5"/>
<text text-anchor="middle" x="251" y="-7.5" font-family="Helvetica,sans-Serif" font-size="10.00" fill="#000000">stdbool.h</text>
</g>
<!-- Node6&#45;&gt;Node8 -->
<g id="edge8" class="edge">
<title>Node6&#45;&gt;Node8</title>
<path fill="none" stroke="#191970" d="M251,-56.2455C251,-48.9382 251,-38.6944 251,-29.7046"/>
<polygon fill="#191970" stroke="#191970" points="254.5001,-29.6426 251,-19.6427 247.5001,-29.6427 254.5001,-29.6426"/>
</g>
<!-- Node9&#45;&gt;Node6 -->
<g id="edge10" class="edge">
<title>Node9&#45;&gt;Node6</title>
<path fill="none" stroke="#191970" d="M191.5414,-112.2455C202.2787,-103.8943 217.9473,-91.7076 230.5047,-81.9408"/>
<polygon fill="#191970" stroke="#191970" points="232.8575,-84.5449 238.6023,-75.6427 228.5599,-79.0194 232.8575,-84.5449"/>
</g>
<!-- Node10 -->
<g id="node11" class="node">
<title>Node10</title>
<g id="a_node11"><a xlink:href="eagle__soc_8h.html" target="_top" xlink:title="eagle_soc.h">
<polygon fill="#ffffff" stroke="#000000" points="133,-56.5 133,-75.5 203,-75.5 203,-56.5 133,-56.5"/>
<text text-anchor="middle" x="168" y="-63.5" font-family="Helvetica,sans-Serif" font-size="10.00" fill="#000000">eagle_soc.h</text>
</a>
</g>
</g>
<!-- Node9&#45;&gt;Node10 -->
<g id="edge11" class="edge">
<title>Node9&#45;&gt;Node10</title>
<path fill="none" stroke="#191970" d="M177.0839,-112.2455C175.6486,-104.9382 173.6364,-94.6944 171.8705,-85.7046"/>
<polygon fill="#191970" stroke="#191970" points="175.256,-84.7805 169.8941,-75.6427 168.3873,-86.1298 175.256,-84.7805"/>
</g>
<!-- Node13&#45;&gt;Node5 -->
<g id="edge15" class="edge">
<title>Node13&#45;&gt;Node5</title>
<path fill="none" stroke="#191970" d="M534.7501,-114.2134C565.7022,-104.4757 618.8537,-87.7539 653.7112,-76.7875"/>
<polygon fill="#191970" stroke="#191970" points="654.9714,-80.0602 663.4601,-73.7204 652.8706,-73.3829 654.9714,-80.0602"/>
</g>
<!-- Node14 -->
<g id="node15" class="node">
<title>Node14</title>
<polygon fill="#ffffff" stroke="#bfbfbf" points="443.5,-56.5 443.5,-75.5 520.5,-75.5 520.5,-56.5 443.5,-56.5"/>
<text text-anchor="middle" x="482" y="-63.5" font-family="Helvetica,sans-Serif" font-size="10.00" fill="#000000">user_config.h</text>
</g>
<!-- Node13&#45;&gt;Node14 -->
<g id="edge16" class="edge">
<title>Node13&#45;&gt;Node14</title>
<path fill="none" stroke="#191970" d="M505.1228,-112.2455C501.3487,-104.6973 496.0079,-94.0158 491.4099,-84.8197"/>
<polygon fill="#191970" stroke="#191970" points="494.424,-83.0217 486.8213,-75.6427 488.163,-86.1522 494.424,-83.0217"/>
</g>
<!-- Node15&#45;&gt;Node11 -->
<g id="edge35" class="edge">
<title>Node15&#45;&gt;Node11</title>
<path fill="none" stroke="#191970" d="M221.4586,-504.2455C210.7213,-495.8943 195.0527,-483.7076 182.4953,-473.9408"/>
<polygon fill="#191970" stroke="#191970" points="184.4401,-471.0194 174.3977,-467.6427 180.1425,-476.5449 184.4401,-471.0194"/>
</g>
<!-- Node15&#45;&gt;Node14 -->
<g id="edge33" class="edge">
<title>Node15&#45;&gt;Node14</title>
<path fill="none" stroke="#191970" d="M265.7196,-504.3593C285.4133,-497.0311 310.102,-485.2356 327,-468 406.0562,-387.3643 426,-346.9248 426,-234 426,-234 426,-234 426,-178 426,-141.4776 450.1172,-104.6564 466.6978,-83.6576"/>
<polygon fill="#191970" stroke="#191970" points="469.6115,-85.6242 473.25,-75.6738 464.2004,-81.1834 469.6115,-85.6242"/>
</g>
<!-- Node16 -->
<g id="node17" class="node">
<title>Node16</title>
<g id="a_node17"><a xlink:href="os__type_8h.html" target="_top" xlink:title="os_type.h">
<polygon fill="#ffffff" stroke="#000000" points="149,-392.5 149,-411.5 209,-411.5 209,-392.5 149,-392.5"/>
<text text-anchor="middle" x="179" y="-399.5" font-family="Helvetica,sans-Serif" font-size="10.00" fill="#000000">os_type.h</text>
</a>
</g>
</g>
<!-- Node15&#45;&gt;Node16 -->
<g id="edge18" class="edge">
<title>Node15&#45;&gt;Node16</title>
<path fill="none" stroke="#191970" d="M229.3107,-504.4509C220.2186,-485.936 200.0469,-444.8591 188.1922,-420.7187"/>
<polygon fill="#191970" stroke="#191970" points="191.227,-418.9582 183.6774,-411.5249 184.9437,-422.0438 191.227,-418.9582"/>
</g>
<!-- Node17 -->
<g id="node18" class="node">
<title>Node17</title>
<g id="a_node18"><a xlink:href="esp-open-lwip_2include_2lwip_2ip__addr_8h.html" target="_top" xlink:title="lwip/ip_addr.h">
<polygon fill="#ffffff" stroke="#000000" points="240,-448.5 240,-467.5 318,-467.5 318,-448.5 240,-448.5"/>
<text text-anchor="middle" x="279" y="-455.5" font-family="Helvetica,sans-Serif" font-size="10.00" fill="#000000">lwip/ip_addr.h</text>
</a>
</g>
</g>
<!-- Node15&#45;&gt;Node17 -->
<g id="edge20" class="edge">
<title>Node15&#45;&gt;Node17</title>
<path fill="none" stroke="#191970" d="M241.8384,-504.2455C248.162,-496.3761 257.2224,-485.101 264.8136,-475.6542"/>
<polygon fill="#191970" stroke="#191970" points="267.7158,-477.6302 271.2514,-467.6427 262.2592,-473.2454 267.7158,-477.6302"/>
</g>
<!-- Node24 -->
<g id="node25" class="node">
<title>Node24</title>
<g id="a_node25"><a xlink:href="esp-open-sdk_2sdk_2include_2queue_8h.html" target="_top" xlink:title="queue.h">
<polygon fill="#ffffff" stroke="#000000" points="374.5,-448.5 374.5,-467.5 427.5,-467.5 427.5,-448.5 374.5,-448.5"/>
<text text-anchor="middle" x="401" y="-455.5" font-family="Helvetica,sans-Serif" font-size="10.00" fill="#000000">queue.h</text>
</a>
</g>
</g>
<!-- Node15&#45;&gt;Node24 -->
<g id="edge32" class="edge">
<title>Node15&#45;&gt;Node24</title>
<path fill="none" stroke="#191970" d="M262.7083,-504.3733C290.8604,-494.933 333.8896,-480.5041 364.4664,-470.2508"/>
<polygon fill="#191970" stroke="#191970" points="365.9507,-473.4447 374.319,-466.9469 363.7251,-466.8079 365.9507,-473.4447"/>
</g>
<!-- Node25 -->
<g id="node26" class="node">
<title>Node25</title>
<g id="a_node26"><a xlink:href="spi__flash_8h.html" target="_top" xlink:title="spi_flash.h">
<polygon fill="#ffffff" stroke="#000000" points="446,-448.5 446,-467.5 510,-467.5 510,-448.5 446,-448.5"/>
<text text-anchor="middle" x="478" y="-455.5" font-family="Helvetica,sans-Serif" font-size="10.00" fill="#000000">spi_flash.h</text>
</a>
</g>
</g>
<!-- Node15&#45;&gt;Node25 -->
<g id="edge34" class="edge">
<title>Node15&#45;&gt;Node25</title>
<path fill="none" stroke="#191970" d="M276.5886,-504.4294C317.4885,-495.2081 381.0033,-480.8089 436,-468 436.1004,-467.9766 436.2009,-467.9532 436.3015,-467.9298"/>
<polygon fill="#191970" stroke="#191970" points="436.9683,-471.3685 445.9041,-465.6762 435.3689,-464.5536 436.9683,-471.3685"/>
</g>
<!-- Node16&#45;&gt;Node9 -->
<g id="edge19" class="edge">
<title>Node16&#45;&gt;Node9</title>
<path fill="none" stroke="#191970" d="M179,-392.4116C179,-373.0538 179,-327.9167 179,-290 179,-290 179,-290 179,-234 179,-201.7116 179,-164.1872 179,-141.8048"/>
<polygon fill="#191970" stroke="#191970" points="182.5001,-141.5883 179,-131.5884 175.5001,-141.5884 182.5001,-141.5883"/>
</g>
<!-- Node18 -->
<g id="node19" class="node">
<title>Node18</title>
<g id="a_node19"><a xlink:href="opt_8h.html" target="_top" xlink:title="lwip/opt.h">
<polygon fill="#ffffff" stroke="#000000" points="268.5,-336.5 268.5,-355.5 327.5,-355.5 327.5,-336.5 268.5,-336.5"/>
<text text-anchor="middle" x="298" y="-343.5" font-family="Helvetica,sans-Serif" font-size="10.00" fill="#000000">lwip/opt.h</text>
</a>
</g>
</g>
<!-- Node17&#45;&gt;Node18 -->
<g id="edge21" class="edge">
<title>Node17&#45;&gt;Node18</title>
<path fill="none" stroke="#191970" d="M283.276,-448.3559C287.1116,-439.201 292.5078,-424.9529 295,-412 297.9165,-396.8417 298.5957,-379.3812 298.5839,-366.2281"/>
<polygon fill="#191970" stroke="#191970" points="302.0794,-365.8924 298.4344,-355.9443 295.0802,-365.9941 302.0794,-365.8924"/>
</g>
<!-- Node23 -->
<g id="node24" class="node">
<title>Node23</title>
<g id="a_node24"><a xlink:href="def_8h.html" target="_top" xlink:title="lwip/def.h">
<polygon fill="#ffffff" stroke="#000000" points="227.5,-392.5 227.5,-411.5 286.5,-411.5 286.5,-392.5 227.5,-392.5"/>
<text text-anchor="middle" x="257" y="-399.5" font-family="Helvetica,sans-Serif" font-size="10.00" fill="#000000">lwip/def.h</text>
</a>
</g>
</g>
<!-- Node17&#45;&gt;Node23 -->
<g id="edge29" class="edge">
<title>Node17&#45;&gt;Node23</title>
<path fill="none" stroke="#191970" d="M275.1679,-448.2455C272.2341,-440.7776 268.0953,-430.2427 264.509,-421.1137"/>
<polygon fill="#191970" stroke="#191970" points="267.7024,-419.6704 260.7882,-411.6427 261.1871,-422.23 267.7024,-419.6704"/>
</g>
<!-- Node19 -->
<g id="node20" class="node">
<title>Node19</title>
<g id="a_node20"><a xlink:href="lwipopts_8h.html" target="_top" xlink:title="lwipopts.h">
<polygon fill="#ffffff" stroke="#000000" points="336.5,-280.5 336.5,-299.5 397.5,-299.5 397.5,-280.5 336.5,-280.5"/>
<text text-anchor="middle" x="367" y="-287.5" font-family="Helvetica,sans-Serif" font-size="10.00" fill="#000000">lwipopts.h</text>
</a>
</g>
</g>
<!-- Node18&#45;&gt;Node19 -->
<g id="edge22" class="edge">
<title>Node18&#45;&gt;Node19</title>
<path fill="none" stroke="#191970" d="M310.0189,-336.2455C320.2098,-327.9746 335.0362,-315.9416 347.0107,-306.2232"/>
<polygon fill="#191970" stroke="#191970" points="349.5598,-308.662 355.1188,-299.6427 345.1486,-303.2268 349.5598,-308.662"/>
</g>
<!-- Node20 -->
<g id="node21" class="node">
<title>Node20</title>
<g id="a_node21"><a xlink:href="esp-open-sdk_2esp-open-lwip_2include_2lwip_2debug_8h.html" target="_top" xlink:title="lwip/debug.h">
<polygon fill="#ffffff" stroke="#000000" points="245.5,-280.5 245.5,-299.5 318.5,-299.5 318.5,-280.5 245.5,-280.5"/>
<text text-anchor="middle" x="282" y="-287.5" font-family="Helvetica,sans-Serif" font-size="10.00" fill="#000000">lwip/debug.h</text>
</a>
</g>
</g>
<!-- Node18&#45;&gt;Node20 -->
<g id="edge23" class="edge">
<title>Node18&#45;&gt;Node20</title>
<path fill="none" stroke="#191970" d="M295.213,-336.2455C293.1023,-328.8579 290.134,-318.4689 287.5453,-309.4087"/>
<polygon fill="#191970" stroke="#191970" points="290.8677,-308.2964 284.755,-299.6427 284.137,-310.2195 290.8677,-308.2964"/>
</g>
<!-- Node21 -->
<g id="node22" class="node">
<title>Node21</title>
<g id="a_node22"><a xlink:href="arch_8h.html" target="_top" xlink:title="lwip/arch.h">
<polygon fill="#ffffff" stroke="#000000" points="219,-224.5 219,-243.5 283,-243.5 283,-224.5 219,-224.5"/>
<text text-anchor="middle" x="251" y="-231.5" font-family="Helvetica,sans-Serif" font-size="10.00" fill="#000000">lwip/arch.h</text>
</a>
</g>
</g>
<!-- Node20&#45;&gt;Node21 -->
<g id="edge24" class="edge">
<title>Node20&#45;&gt;Node21</title>
<path fill="none" stroke="#191970" d="M276.6002,-280.2455C272.3773,-272.617 266.3827,-261.7881 261.2559,-252.5267"/>
<polygon fill="#191970" stroke="#191970" points="264.2432,-250.6965 256.3379,-243.6427 258.119,-254.0867 264.2432,-250.6965"/>
</g>
<!-- Node22 -->
<g id="node23" class="node">
<title>Node22</title>
<g id="a_node23"><a xlink:href="cc_8h.html" target="_top" xlink:title="arch/cc.h">
<polygon fill="#ffffff" stroke="#000000" points="222.5,-168.5 222.5,-187.5 279.5,-187.5 279.5,-168.5 222.5,-168.5"/>
<text text-anchor="middle" x="251" y="-175.5" font-family="Helvetica,sans-Serif" font-size="10.00" fill="#000000">arch/cc.h</text>
</a>
</g>
</g>
<!-- Node21&#45;&gt;Node22 -->
<g id="edge25" class="edge">
<title>Node21&#45;&gt;Node22</title>
<path fill="none" stroke="#191970" d="M251,-224.2455C251,-216.9382 251,-206.6944 251,-197.7046"/>
<polygon fill="#191970" stroke="#191970" points="254.5001,-197.6426 251,-187.6427 247.5001,-197.6427 254.5001,-197.6426"/>
</g>
<!-- Node22&#45;&gt;Node6 -->
<g id="edge26" class="edge">
<title>Node22&#45;&gt;Node6</title>
<path fill="none" stroke="#191970" d="M251,-168.4509C251,-150.184 251,-109.9553 251,-85.6976"/>
<polygon fill="#191970" stroke="#191970" points="254.5001,-85.5249 251,-75.5249 247.5001,-85.5249 254.5001,-85.5249"/>
</g>
<!-- Node22&#45;&gt;Node9 -->
<g id="edge27" class="edge">
<title>Node22&#45;&gt;Node9</title>
<path fill="none" stroke="#191970" d="M238.4586,-168.2455C227.7213,-159.8943 212.0527,-147.7076 199.4953,-137.9408"/>
<polygon fill="#191970" stroke="#191970" points="201.4401,-135.0194 191.3977,-131.6427 197.1425,-140.5449 201.4401,-135.0194"/>
</g>
<!-- Node22&#45;&gt;Node13 -->
<g id="edge28" class="edge">
<title>Node22&#45;&gt;Node13</title>
<path fill="none" stroke="#191970" d="M279.7071,-171.7931C327.6388,-161.4294 423.7824,-140.6416 475.3836,-129.4846"/>
<polygon fill="#191970" stroke="#191970" points="476.3495,-132.8567 485.384,-127.3224 474.8701,-126.0148 476.3495,-132.8567"/>
</g>
<!-- Node23&#45;&gt;Node18 -->
<g id="edge31" class="edge">
<title>Node23&#45;&gt;Node18</title>
<path fill="none" stroke="#191970" d="M264.1417,-392.2455C269.8444,-384.4564 277.99,-373.3308 284.8625,-363.9439"/>
<polygon fill="#191970" stroke="#191970" points="287.8568,-365.7789 290.9402,-355.6427 282.2087,-361.6437 287.8568,-365.7789"/>
</g>
<!-- Node23&#45;&gt;Node21 -->
<g id="edge30" class="edge">
<title>Node23&#45;&gt;Node21</title>
<path fill="none" stroke="#191970" d="M253.1089,-392.2096C245.3726,-371.5197 229.3546,-321.8146 236,-280 237.4301,-271.0016 240.3412,-261.3703 243.2216,-253.2579"/>
<polygon fill="#191970" stroke="#191970" points="246.592,-254.2407 246.8632,-243.6493 240.0463,-251.7599 246.592,-254.2407"/>
</g>
<!-- Node28&#45;&gt;Node1 -->
<g id="edge40" class="edge">
<title>Node28&#45;&gt;Node1</title>
<path fill="none" stroke="#191970" d="M537.7465,-616.3733C519.9288,-607.4644 493.2253,-594.1127 473.0406,-584.0203"/>
<polygon fill="#191970" stroke="#191970" points="474.5118,-580.8428 464.0022,-579.5011 471.3813,-587.1038 474.5118,-580.8428"/>
</g>
<!-- Node28&#45;&gt;Node3 -->
<g id="edge41" class="edge">
<title>Node28&#45;&gt;Node3</title>
<path fill="none" stroke="#191970" d="M515.9015,-618.4526C430.5839,-602.5898 228.1844,-563.946 60,-524 58.7254,-523.6973 57.4281,-523.382 56.119,-523.0578"/>
<polygon fill="#191970" stroke="#191970" points="56.5937,-519.5659 46.0367,-520.4612 54.8478,-526.3447 56.5937,-519.5659"/>
</g>
<!-- Node29&#45;&gt;Node1 -->
<g id="edge43" class="edge">
<title>Node29&#45;&gt;Node1</title>
<path fill="none" stroke="#191970" d="M684.6293,-728.2993C704.3445,-716.0972 732.0353,-694.0599 720,-672 697.9765,-631.6325 675.2473,-634.1585 633,-616 584.8245,-595.2934 525.523,-582.7383 486.562,-576.0911"/>
<polygon fill="#191970" stroke="#191970" points="487.0638,-572.6266 476.6269,-574.449 485.9222,-579.5329 487.0638,-572.6266"/>
</g>
<!-- Node29&#45;&gt;Node7 -->
<g id="edge44" class="edge">
<title>Node29&#45;&gt;Node7</title>
<path fill="none" stroke="#191970" d="M688.5947,-728.4123C721.1406,-712.3204 779,-676.5974 779,-626 779,-626 779,-626 779,-234 779,-154.173 772.01,-133.9936 755,-56 753.0706,-47.1532 750.2628,-37.5451 747.6674,-29.409"/>
<polygon fill="#191970" stroke="#191970" points="750.935,-28.1425 744.4695,-19.7492 744.2896,-30.3425 750.935,-28.1425"/>
</g>
<!-- Node29&#45;&gt;Node28 -->
<g id="edge45" class="edge">
<title>Node29&#45;&gt;Node28</title>
<path fill="none" stroke="#191970" d="M654.7741,-728.2379C643.739,-719.2318 627.2511,-705.2837 614,-692 598.5627,-676.5248 582.4084,-657.5128 571.2557,-643.8753"/>
<polygon fill="#191970" stroke="#191970" points="573.7177,-641.3536 564.7069,-635.7808 568.2757,-645.7565 573.7177,-641.3536"/>
</g>
<!-- Node30 -->
<g id="node31" class="node">
<title>Node30</title>
<g id="a_node31"><a xlink:href="sha256_8h.html" target="_top" xlink:title="crypto/sha256.h">
<polygon fill="#ffffff" stroke="#000000" points="623,-672.5 623,-691.5 711,-691.5 711,-672.5 623,-672.5"/>
<text text-anchor="middle" x="667" y="-679.5" font-family="Helvetica,sans-Serif" font-size="10.00" fill="#000000">crypto/sha256.h</text>
</a>
</g>
</g>
<!-- Node29&#45;&gt;Node30 -->
<g id="edge46" class="edge">
<title>Node29&#45;&gt;Node30</title>
<path fill="none" stroke="#191970" d="M667,-728.2455C667,-720.9382 667,-710.6944 667,-701.7046"/>
<polygon fill="#191970" stroke="#191970" points="670.5001,-701.6426 667,-691.6427 663.5001,-701.6427 670.5001,-701.6426"/>
</g>
<!-- Node30&#45;&gt;Node1 -->
<g id="edge47" class="edge">
<title>Node30&#45;&gt;Node1</title>
<path fill="none" stroke="#191970" d="M660.8631,-672.3656C651.1754,-657.9419 630.9558,-630.847 607,-616 569.9524,-593.0393 521.1164,-581.221 486.785,-575.3541"/>
<polygon fill="#191970" stroke="#191970" points="487.0544,-571.8525 476.6253,-573.7187 485.9419,-578.7636 487.0544,-571.8525"/>
</g>
<!-- Node30&#45;&gt;Node7 -->
<g id="edge48" class="edge">
<title>Node30&#45;&gt;Node7</title>
<path fill="none" stroke="#191970" d="M672.8067,-672.118C690.2515,-641.4639 741,-544.8268 741,-458 741,-458 741,-458 741,-122 741,-89.7116 741,-52.1872 741,-29.8048"/>
<polygon fill="#191970" stroke="#191970" points="744.5001,-29.5883 741,-19.5884 737.5001,-29.5884 744.5001,-29.5883"/>
</g>
<!-- Node30&#45;&gt;Node28 -->
<g id="edge49" class="edge">
<title>Node30&#45;&gt;Node28</title>
<path fill="none" stroke="#191970" d="M647.8395,-672.2455C630.4889,-663.4125 604.7099,-650.2887 585.0417,-640.2758"/>
<polygon fill="#191970" stroke="#191970" points="586.4405,-637.0605 575.941,-635.6427 583.2647,-643.2986 586.4405,-637.0605"/>
</g>
</g>
</svg>
