<?xml version="1.0" encoding="UTF-8" standalone="no"?>
<!DOCTYPE svg PUBLIC "-//W3C//DTD SVG 1.1//EN"
 "http://www.w3.org/Graphics/SVG/1.1/DTD/svg11.dtd">
<!-- Generated by graphviz version 2.40.1 (20161225.0304)
 -->
<!-- Title: xmitSendBuff Pages: 1 -->
<svg width="525pt" height="66pt"
 viewBox="0.00 0.00 525.00 66.00" xmlns="http://www.w3.org/2000/svg" xmlns:xlink="http://www.w3.org/1999/xlink">
<g id="graph0" class="graph" transform="scale(1 1) rotate(0) translate(4 62)">
<title>xmitSendBuff</title>
<polygon fill="#ffffff" stroke="transparent" points="-4,4 -4,-62 521,-62 521,4 -4,4"/>
<!-- Node266 -->
<g id="node1" class="node">
<title>Node266</title>
<polygon fill="#bfbfbf" stroke="#000000" points="0,-19.5 0,-38.5 76,-38.5 76,-19.5 0,-19.5"/>
<text text-anchor="middle" x="38" y="-26.5" font-family="Helvetica,sans-Serif" font-size="10.00" fill="#000000">xmitSendBuff</text>
</g>
<!-- Node267 -->
<g id="node2" class="node">
<title>Node267</title>
<g id="a_node2"><a xlink:href="httpd_8c.html#ad4f8c0a86c445f2f52156e8a328613e4" target="_top" xlink:title="httpdRecvCb">
<polygon fill="#ffffff" stroke="#000000" points="112,-38.5 112,-57.5 186,-57.5 186,-38.5 112,-38.5"/>
<text text-anchor="middle" x="149" y="-45.5" font-family="Helvetica,sans-Serif" font-size="10.00" fill="#000000">httpdRecvCb</text>
</a>
</g>
</g>
<!-- Node266&#45;&gt;Node267 -->
<g id="edge1" class="edge">
<title>Node266&#45;&gt;Node267</title>
<path fill="none" stroke="#191970" d="M86.1481,-37.2416C94.7598,-38.7156 103.612,-40.2309 111.8553,-41.6419"/>
<polygon fill="#191970" stroke="#191970" points="86.6471,-33.7762 76.1999,-35.5387 85.466,-40.6758 86.6471,-33.7762"/>
</g>
<!-- Node271 -->
<g id="node6" class="node">
<title>Node271</title>
<g id="a_node6"><a xlink:href="httpd_8c.html#a51c1039375e19643be3aaac1e8a1c937" target="_top" xlink:title="httpdSentCb">
<polygon fill="#ffffff" stroke="#000000" points="113,-.5 113,-19.5 185,-19.5 185,-.5 113,-.5"/>
<text text-anchor="middle" x="149" y="-7.5" font-family="Helvetica,sans-Serif" font-size="10.00" fill="#000000">httpdSentCb</text>
</a>
</g>
</g>
<!-- Node266&#45;&gt;Node271 -->
<g id="edge5" class="edge">
<title>Node266&#45;&gt;Node271</title>
<path fill="none" stroke="#191970" d="M86.1877,-20.7516C95.1778,-19.2128 104.4283,-17.6294 112.9735,-16.1667"/>
<polygon fill="#191970" stroke="#191970" points="85.466,-17.3242 76.1999,-22.4613 86.6471,-24.2238 85.466,-17.3242"/>
</g>
<!-- Node268 -->
<g id="node3" class="node">
<title>Node268</title>
<g id="a_node3"><a xlink:href="httpd_8c.html#a394ef39b684f0f7c1cf013dcb2b8300b" target="_top" xlink:title="httpdConnectCb">
<polygon fill="#ffffff" stroke="#000000" points="222,-19.5 222,-38.5 311,-38.5 311,-19.5 222,-19.5"/>
<text text-anchor="middle" x="266.5" y="-26.5" font-family="Helvetica,sans-Serif" font-size="10.00" fill="#000000">httpdConnectCb</text>
</a>
</g>
</g>
<!-- Node267&#45;&gt;Node268 -->
<g id="edge2" class="edge">
<title>Node267&#45;&gt;Node268</title>
<path fill="none" stroke="#191970" d="M196.2336,-40.3622C204.6513,-39.0011 213.3972,-37.5868 221.7431,-36.2373"/>
<polygon fill="#191970" stroke="#191970" points="195.4908,-36.9368 186.1777,-41.9883 196.6082,-43.847 195.4908,-36.9368"/>
</g>
<!-- Node269 -->
<g id="node4" class="node">
<title>Node269</title>
<g id="a_node4"><a xlink:href="httpd_8h.html#a74eb356c950228c2f024f081f7beb830" target="_top" xlink:title="httpdInit">
<polygon fill="#ffffff" stroke="#000000" points="347,-19.5 347,-38.5 399,-38.5 399,-19.5 347,-19.5"/>
<text text-anchor="middle" x="373" y="-26.5" font-family="Helvetica,sans-Serif" font-size="10.00" fill="#000000">httpdInit</text>
</a>
</g>
</g>
<!-- Node268&#45;&gt;Node269 -->
<g id="edge3" class="edge">
<title>Node268&#45;&gt;Node269</title>
<path fill="none" stroke="#191970" d="M321.1408,-29C330.1079,-29 339.0224,-29 346.8662,-29"/>
<polygon fill="#191970" stroke="#191970" points="321.0485,-25.5001 311.0485,-29 321.0485,-32.5001 321.0485,-25.5001"/>
</g>
<!-- Node270 -->
<g id="node5" class="node">
<title>Node270</title>
<g id="a_node5"><a xlink:href="httpd__user__init_8h.html#a6abf56883c8e03334f42bfb79aa8b095" target="_top" xlink:title="httpd_user_init">
<polygon fill="#ffffff" stroke="#000000" points="435,-19.5 435,-38.5 517,-38.5 517,-19.5 435,-19.5"/>
<text text-anchor="middle" x="476" y="-26.5" font-family="Helvetica,sans-Serif" font-size="10.00" fill="#000000">httpd_user_init</text>
</a>
</g>
</g>
<!-- Node269&#45;&gt;Node270 -->
<g id="edge4" class="edge">
<title>Node269&#45;&gt;Node270</title>
<path fill="none" stroke="#191970" d="M409.371,-29C417.6545,-29 426.5111,-29 434.9737,-29"/>
<polygon fill="#191970" stroke="#191970" points="409.2578,-25.5001 399.2578,-29 409.2577,-32.5001 409.2578,-25.5001"/>
</g>
<!-- Node271&#45;&gt;Node268 -->
<g id="edge6" class="edge">
<title>Node271&#45;&gt;Node268</title>
<path fill="none" stroke="#191970" d="M195.2765,-17.483C204.0438,-18.9007 213.1996,-20.3812 221.9134,-21.7902"/>
<polygon fill="#191970" stroke="#191970" points="195.6431,-13.9969 185.2126,-15.8557 194.5257,-20.9071 195.6431,-13.9969"/>
</g>
</g>
</svg>
