<?xml version="1.0" encoding="UTF-8" standalone="no"?>
<!DOCTYPE svg PUBLIC "-//W3C//DTD SVG 1.1//EN"
 "http://www.w3.org/Graphics/SVG/1.1/DTD/svg11.dtd">
<!-- Generated by graphviz version 2.39.20160927.1334 (20160927.1334)
 -->
<!-- Title: httpdStartResponse Pages: 1 -->
<svg width="605pt" height="294pt"
 viewBox="0.00 0.00 605.00 294.00" xmlns="http://www.w3.org/2000/svg" xmlns:xlink="http://www.w3.org/1999/xlink">
<g id="graph0" class="graph" transform="scale(1 1) rotate(0) translate(4 290)">
<title>httpdStartResponse</title>
<polygon fill="#ffffff" stroke="transparent" points="-4,4 -4,-290 601,-290 601,4 -4,4"/>
<!-- Node1 -->
<g id="node1" class="node">
<title>Node1</title>
<polygon fill="#bfbfbf" stroke="#000000" points="0,-133.5 0,-152.5 105,-152.5 105,-133.5 0,-133.5"/>
<text text-anchor="middle" x="52.5" y="-140.5" font-family="Helvetica,sans-Serif" font-size="10.00" fill="#000000">httpdStartResponse</text>
</g>
<!-- Node2 -->
<g id="node2" class="node">
<title>Node2</title>
<g id="a_node2"><a xlink:href="httpd_8c.html#a1a143f6c427d66e2561895cf193fc535" target="_top" xlink:title="httpdSend">
<polygon fill="#ffffff" stroke="#000000" points="143,-152.5 143,-171.5 205,-171.5 205,-152.5 143,-152.5"/>
<text text-anchor="middle" x="174" y="-159.5" font-family="Helvetica,sans-Serif" font-size="10.00" fill="#000000">httpdSend</text>
</a>
</g>
</g>
<!-- Node1&#45;&gt;Node2 -->
<g id="edge1" class="edge">
<title>Node1&#45;&gt;Node2</title>
<path fill="none" stroke="#191970" d="M105.085,-151.223C114.304,-152.665 123.779,-154.147 132.639,-155.532"/>
<polygon fill="#191970" stroke="#191970" points="132.285,-159.019 142.706,-157.106 133.367,-152.103 132.285,-159.019"/>
</g>
<!-- Node3 -->
<g id="node3" class="node">
<title>Node3</title>
<g id="a_node3"><a xlink:href="tinyprintf_8c.html#a9738cbc6c538d210941db282e240c7d6" target="_top" xlink:title="tfp_snprintf">
<polygon fill="#ffffff" stroke="#000000" points="141,-114.5 141,-133.5 207,-133.5 207,-114.5 141,-114.5"/>
<text text-anchor="middle" x="174" y="-121.5" font-family="Helvetica,sans-Serif" font-size="10.00" fill="#000000">tfp_snprintf</text>
</a>
</g>
</g>
<!-- Node1&#45;&gt;Node3 -->
<g id="edge2" class="edge">
<title>Node1&#45;&gt;Node3</title>
<path fill="none" stroke="#191970" d="M105.085,-134.777C113.748,-133.422 122.637,-132.032 131.029,-130.72"/>
<polygon fill="#191970" stroke="#191970" points="131.632,-134.168 140.971,-129.165 130.551,-127.252 131.632,-134.168"/>
</g>
<!-- Node4 -->
<g id="node4" class="node">
<title>Node4</title>
<g id="a_node4"><a xlink:href="tinyprintf_8c.html#ac8c8a66133cf0d7009c0d73b55311a44" target="_top" xlink:title="tfp_vsnprintf">
<polygon fill="#ffffff" stroke="#000000" points="243,-114.5 243,-133.5 314,-133.5 314,-114.5 243,-114.5"/>
<text text-anchor="middle" x="278.5" y="-121.5" font-family="Helvetica,sans-Serif" font-size="10.00" fill="#000000">tfp_vsnprintf</text>
</a>
</g>
</g>
<!-- Node3&#45;&gt;Node4 -->
<g id="edge3" class="edge">
<title>Node3&#45;&gt;Node4</title>
<path fill="none" stroke="#191970" d="M207.064,-124C215.142,-124 223.929,-124 232.49,-124"/>
<polygon fill="#191970" stroke="#191970" points="232.756,-127.5 242.756,-124 232.756,-120.5 232.756,-127.5"/>
</g>
<!-- Node5 -->
<g id="node5" class="node">
<title>Node5</title>
<g id="a_node5"><a xlink:href="tinyprintf_8c.html#a5877e42444463efc71a91b5fe76a6145" target="_top" xlink:title="tfp_format">
<polygon fill="#ffffff" stroke="#000000" points="362.5,-133.5 362.5,-152.5 424.5,-152.5 424.5,-133.5 362.5,-133.5"/>
<text text-anchor="middle" x="393.5" y="-140.5" font-family="Helvetica,sans-Serif" font-size="10.00" fill="#000000">tfp_format</text>
</a>
</g>
</g>
<!-- Node4&#45;&gt;Node5 -->
<g id="edge4" class="edge">
<title>Node4&#45;&gt;Node5</title>
<path fill="none" stroke="#191970" d="M314.256,-129.908C326.31,-131.899 339.859,-134.138 352.298,-136.193"/>
<polygon fill="#191970" stroke="#191970" points="351.992,-139.69 362.429,-137.867 353.133,-132.783 351.992,-139.69"/>
</g>
<!-- Node15 -->
<g id="node15" class="node">
<title>Node15</title>
<g id="a_node15"><a xlink:href="tinyprintf_8c.html#a919051024b2d729e34a54648b3f2462d" target="_top" xlink:title="_vsnprintf_putcf">
<polygon fill="#ffffff" stroke="#000000" points="350,-95.5 350,-114.5 437,-114.5 437,-95.5 350,-95.5"/>
<text text-anchor="middle" x="393.5" y="-102.5" font-family="Helvetica,sans-Serif" font-size="10.00" fill="#000000">_vsnprintf_putcf</text>
</a>
</g>
</g>
<!-- Node4&#45;&gt;Node15 -->
<g id="edge17" class="edge">
<title>Node4&#45;&gt;Node15</title>
<path fill="none" stroke="#191970" d="M314.256,-118.092C322.313,-116.761 331.037,-115.32 339.651,-113.897"/>
<polygon fill="#191970" stroke="#191970" points="340.371,-117.325 349.667,-112.242 339.23,-110.419 340.371,-117.325"/>
</g>
<!-- Node6 -->
<g id="node6" class="node">
<title>Node6</title>
<g id="a_node6"><a xlink:href="tinyprintf_8c.html#aa97593a5e53af85b608ad0910db92d77" target="_top" xlink:title="a2u">
<polygon fill="#ffffff" stroke="#000000" points="480.5,-266.5 480.5,-285.5 513.5,-285.5 513.5,-266.5 480.5,-266.5"/>
<text text-anchor="middle" x="497" y="-273.5" font-family="Helvetica,sans-Serif" font-size="10.00" fill="#000000">a2u</text>
</a>
</g>
</g>
<!-- Node5&#45;&gt;Node6 -->
<g id="edge5" class="edge">
<title>Node5&#45;&gt;Node6</title>
<path fill="none" stroke="#191970" d="M399.832,-152.706C412.722,-172.218 443.306,-217.297 473,-252 474.939,-254.267 477.05,-256.575 479.189,-258.821"/>
<polygon fill="#191970" stroke="#191970" points="476.835,-261.417 486.359,-266.059 481.808,-256.491 476.835,-261.417"/>
</g>
<!-- Node8 -->
<g id="node8" class="node">
<title>Node8</title>
<g id="a_node8"><a xlink:href="tinyprintf_8c.html#abcf035dd576671b0cc897de9dd8c75b0" target="_top" xlink:title="ulli2a">
<polygon fill="#ffffff" stroke="#000000" points="557,-209.5 557,-228.5 597,-228.5 597,-209.5 557,-209.5"/>
<text text-anchor="middle" x="577" y="-216.5" font-family="Helvetica,sans-Serif" font-size="10.00" fill="#000000">ulli2a</text>
</a>
</g>
</g>
<!-- Node5&#45;&gt;Node8 -->
<g id="edge7" class="edge">
<title>Node5&#45;&gt;Node8</title>
<path fill="none" stroke="#191970" d="M399.727,-152.585C411.557,-169.8 439.151,-205.424 473,-219 496.367,-228.372 525.134,-227.535 546.486,-224.829"/>
<polygon fill="#191970" stroke="#191970" points="547.228,-228.257 556.611,-223.338 546.208,-221.332 547.228,-228.257"/>
</g>
<!-- Node9 -->
<g id="node9" class="node">
<title>Node9</title>
<g id="a_node9"><a xlink:href="tinyprintf_8c.html#a1d61347854a8c290d59b4a21efcefd75" target="_top" xlink:title="uli2a">
<polygon fill="#ffffff" stroke="#000000" points="558,-85.5 558,-104.5 596,-104.5 596,-85.5 558,-85.5"/>
<text text-anchor="middle" x="577" y="-92.5" font-family="Helvetica,sans-Serif" font-size="10.00" fill="#000000">uli2a</text>
</a>
</g>
</g>
<!-- Node5&#45;&gt;Node9 -->
<g id="edge8" class="edge">
<title>Node5&#45;&gt;Node9</title>
<path fill="none" stroke="#191970" d="M416.221,-133.452C422.957,-130.521 430.317,-127.218 437,-124 453.301,-116.152 455.668,-110.186 473,-105 497.417,-97.694 526.36,-95.3955 547.506,-94.8085"/>
<polygon fill="#191970" stroke="#191970" points="547.847,-98.3035 557.788,-94.6401 547.732,-91.3044 547.847,-98.3035"/>
</g>
<!-- Node10 -->
<g id="node10" class="node">
<title>Node10</title>
<g id="a_node10"><a xlink:href="tinyprintf_8c.html#ac87ff66a592723f55692eaf8e3f19df8" target="_top" xlink:title="ui2a">
<polygon fill="#ffffff" stroke="#000000" points="559.5,-28.5 559.5,-47.5 594.5,-47.5 594.5,-28.5 559.5,-28.5"/>
<text text-anchor="middle" x="577" y="-35.5" font-family="Helvetica,sans-Serif" font-size="10.00" fill="#000000">ui2a</text>
</a>
</g>
</g>
<!-- Node5&#45;&gt;Node10 -->
<g id="edge9" class="edge">
<title>Node5&#45;&gt;Node10</title>
<path fill="none" stroke="#191970" d="M419.037,-133.445C425.116,-130.741 431.447,-127.553 437,-124 455.032,-112.462 455.365,-104.136 473,-92 497.706,-74.9965 528.446,-59.6689 550.078,-49.7257"/>
<polygon fill="#191970" stroke="#191970" points="551.649,-52.8565 559.321,-45.5495 548.767,-46.4773 551.649,-52.8565"/>
</g>
<!-- Node11 -->
<g id="node11" class="node">
<title>Node11</title>
<g id="a_node11"><a xlink:href="tinyprintf_8c.html#a6252dbfebb2c8783c4e3107d551082dd" target="_top" xlink:title="putchw">
<polygon fill="#ffffff" stroke="#000000" points="473,-114.5 473,-133.5 521,-133.5 521,-114.5 473,-114.5"/>
<text text-anchor="middle" x="497" y="-121.5" font-family="Helvetica,sans-Serif" font-size="10.00" fill="#000000">putchw</text>
</a>
</g>
</g>
<!-- Node5&#45;&gt;Node11 -->
<g id="edge10" class="edge">
<title>Node5&#45;&gt;Node11</title>
<path fill="none" stroke="#191970" d="M424.553,-137.299C436.648,-135.079 450.549,-132.527 462.919,-130.256"/>
<polygon fill="#191970" stroke="#191970" points="463.673,-133.677 472.877,-128.428 462.409,-126.792 463.673,-133.677"/>
</g>
<!-- Node12 -->
<g id="node12" class="node">
<title>Node12</title>
<g id="a_node12"><a xlink:href="tinyprintf_8c.html#a49c6d2b3d4088012f2c1fe344eef69f3" target="_top" xlink:title="lli2a">
<polygon fill="#ffffff" stroke="#000000" points="480,-190.5 480,-209.5 514,-209.5 514,-190.5 480,-190.5"/>
<text text-anchor="middle" x="497" y="-197.5" font-family="Helvetica,sans-Serif" font-size="10.00" fill="#000000">lli2a</text>
</a>
</g>
</g>
<!-- Node5&#45;&gt;Node12 -->
<g id="edge11" class="edge">
<title>Node5&#45;&gt;Node12</title>
<path fill="none" stroke="#191970" d="M411.057,-152.669C427.438,-161.69 452.091,-175.267 470.798,-185.57"/>
<polygon fill="#191970" stroke="#191970" points="469.254,-188.715 479.702,-190.474 472.631,-182.584 469.254,-188.715"/>
</g>
<!-- Node13 -->
<g id="node13" class="node">
<title>Node13</title>
<g id="a_node13"><a xlink:href="tinyprintf_8c.html#afebb7696337c3f599b5e8db35c560684" target="_top" xlink:title="li2a">
<polygon fill="#ffffff" stroke="#000000" points="481,-152.5 481,-171.5 513,-171.5 513,-152.5 481,-152.5"/>
<text text-anchor="middle" x="497" y="-159.5" font-family="Helvetica,sans-Serif" font-size="10.00" fill="#000000">li2a</text>
</a>
</g>
</g>
<!-- Node5&#45;&gt;Node13 -->
<g id="edge13" class="edge">
<title>Node5&#45;&gt;Node13</title>
<path fill="none" stroke="#191970" d="M424.553,-148.701C439.358,-151.418 456.867,-154.633 470.964,-157.22"/>
<polygon fill="#191970" stroke="#191970" points="470.509,-160.695 480.977,-159.059 471.773,-153.81 470.509,-160.695"/>
</g>
<!-- Node14 -->
<g id="node14" class="node">
<title>Node14</title>
<g id="a_node14"><a xlink:href="tinyprintf_8c.html#a90f9fd8f2133cda7f50be8d67823405c" target="_top" xlink:title="i2a">
<polygon fill="#ffffff" stroke="#000000" points="482,-0.5 482,-19.5 512,-19.5 512,-0.5 482,-0.5"/>
<text text-anchor="middle" x="497" y="-7.5" font-family="Helvetica,sans-Serif" font-size="10.00" fill="#000000">i2a</text>
</a>
</g>
</g>
<!-- Node5&#45;&gt;Node14 -->
<g id="edge15" class="edge">
<title>Node5&#45;&gt;Node14</title>
<path fill="none" stroke="#191970" d="M424.009,-133.36C428.775,-130.869 433.329,-127.787 437,-124 466.983,-93.0639 449.284,-69.9661 473,-34 474.476,-31.7617 476.185,-29.5609 477.999,-27.455"/>
<polygon fill="#191970" stroke="#191970" points="480.829,-29.5609 485.232,-19.9246 475.781,-24.7116 480.829,-29.5609"/>
</g>
<!-- Node7 -->
<g id="node7" class="node">
<title>Node7</title>
<g id="a_node7"><a xlink:href="tinyprintf_8c.html#aa853a0c5ba64fa2546d488b86192e7e3" target="_top" xlink:title="a2d">
<polygon fill="#ffffff" stroke="#000000" points="560.5,-266.5 560.5,-285.5 593.5,-285.5 593.5,-266.5 560.5,-266.5"/>
<text text-anchor="middle" x="577" y="-273.5" font-family="Helvetica,sans-Serif" font-size="10.00" fill="#000000">a2d</text>
</a>
</g>
</g>
<!-- Node6&#45;&gt;Node7 -->
<g id="edge6" class="edge">
<title>Node6&#45;&gt;Node7</title>
<path fill="none" stroke="#191970" d="M513.576,-276C524.195,-276 538.215,-276 550.373,-276"/>
<polygon fill="#191970" stroke="#191970" points="550.445,-279.5 560.445,-276 550.445,-272.5 550.445,-279.5"/>
</g>
<!-- Node12&#45;&gt;Node8 -->
<g id="edge12" class="edge">
<title>Node12&#45;&gt;Node8</title>
<path fill="none" stroke="#191970" d="M514.359,-204.123C523.831,-206.372 535.829,-209.222 546.784,-211.824"/>
<polygon fill="#191970" stroke="#191970" points="546.313,-215.309 556.851,-214.215 547.931,-208.499 546.313,-215.309"/>
</g>
<!-- Node13&#45;&gt;Node9 -->
<g id="edge14" class="edge">
<title>Node13&#45;&gt;Node9</title>
<path fill="none" stroke="#191970" d="M509.283,-152.426C513.066,-149.437 517.227,-146.109 521,-143 533.601,-132.619 547.541,-120.672 558.36,-111.294"/>
<polygon fill="#191970" stroke="#191970" points="560.703,-113.895 565.952,-104.691 556.11,-108.613 560.703,-113.895"/>
</g>
<!-- Node14&#45;&gt;Node10 -->
<g id="edge16" class="edge">
<title>Node14&#45;&gt;Node10</title>
<path fill="none" stroke="#191970" d="M512.047,-15.2666C522.619,-18.9666 537.062,-24.0217 549.644,-28.4255"/>
<polygon fill="#191970" stroke="#191970" points="548.632,-31.7793 559.227,-31.7794 550.944,-25.1723 548.632,-31.7793"/>
</g>
</g>
</svg>
