<?xml version="1.0" encoding="UTF-8" standalone="no"?>
<!DOCTYPE svg PUBLIC "-//W3C//DTD SVG 1.1//EN"
 "http://www.w3.org/Graphics/SVG/1.1/DTD/svg11.dtd">
<!-- Generated by graphviz version 2.41.20170323.1842 (20170323.1842)
 -->
<!-- Title: httpdStop Pages: 1 -->
<svg width="478pt" height="129pt"
 viewBox="0.00 0.00 478.00 129.49" xmlns="http://www.w3.org/2000/svg" xmlns:xlink="http://www.w3.org/1999/xlink">
<g id="graph0" class="graph" transform="scale(1 1) rotate(0) translate(4 125.4933)">
<title>httpdStop</title>
<polygon fill="#ffffff" stroke="transparent" points="-4,4 -4,-125.4933 474,-125.4933 474,4 -4,4"/>
<!-- Node137 -->
<g id="node1" class="node">
<title>Node137</title>
<polygon fill="#bfbfbf" stroke="#000000" points="0,-57.5 0,-76.5 59,-76.5 59,-57.5 0,-57.5"/>
<text text-anchor="middle" x="29.5" y="-64.5" font-family="Helvetica,sans-Serif" font-size="10.00" fill="#000000">httpdStop</text>
</g>
<!-- Node138 -->
<g id="node2" class="node">
<title>Node138</title>
<g id="a_node2"><a xlink:href="esp-open-lwip_2include_2lwip_2app_2espconn_8h.html#a63d15dda14dfcd8da278c31f048910c3" target="_top" xlink:title="espconn_delete">
<polygon fill="#ffffff" stroke="#000000" points="372.5,-95.5 372.5,-114.5 459.5,-114.5 459.5,-95.5 372.5,-95.5"/>
<text text-anchor="middle" x="416" y="-102.5" font-family="Helvetica,sans-Serif" font-size="10.00" fill="#000000">espconn_delete</text>
</a>
</g>
</g>
<!-- Node137&#45;&gt;Node138 -->
<g id="edge1" class="edge">
<title>Node137&#45;&gt;Node138</title>
<path fill="none" stroke="#191970" d="M41.6554,-76.7177C54.1799,-86.0571 74.6878,-99.5345 95,-105 186.4373,-129.6034 297.9033,-121.5477 362.5321,-113.3472"/>
<polygon fill="#191970" stroke="#191970" points="363.0352,-116.8113 372.4922,-112.0348 362.1207,-109.8712 363.0352,-116.8113"/>
</g>
<!-- Node139 -->
<g id="node3" class="node">
<title>Node139</title>
<g id="a_node3"><a xlink:href="esp-open-lwip_2include_2lwip_2app_2espconn_8h.html#a9969873c3b8ee86a34496a5166cf8bfc" target="_top" xlink:title="espconn_disconnect">
<polygon fill="#ffffff" stroke="#000000" points="362,-38.5 362,-57.5 470,-57.5 470,-38.5 362,-38.5"/>
<text text-anchor="middle" x="416" y="-45.5" font-family="Helvetica,sans-Serif" font-size="10.00" fill="#000000">espconn_disconnect</text>
</a>
</g>
</g>
<!-- Node137&#45;&gt;Node139 -->
<g id="edge2" class="edge">
<title>Node137&#45;&gt;Node139</title>
<path fill="none" stroke="#191970" d="M59.1862,-65.5407C121.525,-62.4761 267.2734,-55.3113 351.9508,-51.1486"/>
<polygon fill="#191970" stroke="#191970" points="352.1488,-54.6432 361.9649,-50.6563 351.805,-47.6516 352.1488,-54.6432"/>
</g>
<!-- Node140 -->
<g id="node4" class="node">
<title>Node140</title>
<g id="a_node4"><a xlink:href="httpd_8c.html#aecb06813eefe322c349651aa5e1316f5" target="_top" xlink:title="httpdDisconnectTimerFunc">
<polygon fill="#ffffff" stroke="#000000" points="95,-76.5 95,-95.5 231,-95.5 231,-76.5 95,-76.5"/>
<text text-anchor="middle" x="163" y="-83.5" font-family="Helvetica,sans-Serif" font-size="10.00" fill="#000000">httpdDisconnectTimerFunc</text>
</a>
</g>
</g>
<!-- Node137&#45;&gt;Node140 -->
<g id="edge3" class="edge">
<title>Node137&#45;&gt;Node140</title>
<path fill="none" stroke="#191970" d="M59.128,-71.2167C67.2808,-72.377 76.5169,-73.6915 86.0369,-75.0464"/>
<polygon fill="#191970" stroke="#191970" points="85.6335,-78.5242 96.0269,-76.4683 86.6199,-71.5941 85.6335,-78.5242"/>
</g>
<!-- Node142 -->
<g id="node6" class="node">
<title>Node142</title>
<g id="a_node6"><a xlink:href="httpd_8c.html#ab7a09edc1f3de2b70bf21ed275c22c61" target="_top" xlink:title="httpdRetireConn">
<polygon fill="#ffffff" stroke="#000000" points="371.5,-.5 371.5,-19.5 460.5,-19.5 460.5,-.5 371.5,-.5"/>
<text text-anchor="middle" x="416" y="-7.5" font-family="Helvetica,sans-Serif" font-size="10.00" fill="#000000">httpdRetireConn</text>
</a>
</g>
</g>
<!-- Node137&#45;&gt;Node142 -->
<g id="edge9" class="edge">
<title>Node137&#45;&gt;Node142</title>
<path fill="none" stroke="#191970" d="M59.0773,-60.1703C70.2912,-57.7148 83.1992,-55.0484 95,-53 188.0158,-36.8543 297.1022,-23.3904 361.1666,-16.0359"/>
<polygon fill="#191970" stroke="#191970" points="361.8977,-19.4753 371.4369,-14.865 361.1047,-12.5203 361.8977,-19.4753"/>
</g>
<!-- Node141 -->
<g id="node5" class="node">
<title>Node141</title>
<g id="a_node5"><a xlink:href="httpd_8c.html#afec8778692d2ecc547295eb197fa6fcd" target="_top" xlink:title="httpdStop">
<polygon fill="#ffffff" stroke="#000000" points="267,-76.5 267,-95.5 326,-95.5 326,-76.5 267,-76.5"/>
<text text-anchor="middle" x="296.5" y="-83.5" font-family="Helvetica,sans-Serif" font-size="10.00" fill="#000000">httpdStop</text>
</a>
</g>
</g>
<!-- Node140&#45;&gt;Node141 -->
<g id="edge4" class="edge">
<title>Node140&#45;&gt;Node141</title>
<path fill="none" stroke="#191970" d="M231.3143,-79.2516C239.9677,-79.2699 248.5861,-79.4394 256.5872,-79.7603"/>
<polygon fill="#191970" stroke="#191970" points="256.5376,-83.2622 266.701,-80.2694 256.8896,-76.271 256.5376,-83.2622"/>
</g>
<!-- Node141&#45;&gt;Node138 -->
<g id="edge5" class="edge">
<title>Node141&#45;&gt;Node138</title>
<path fill="none" stroke="#191970" d="M326.0393,-90.6966C337.0558,-92.4482 349.9316,-94.4954 362.4415,-96.4844"/>
<polygon fill="#191970" stroke="#191970" points="361.9276,-99.9466 372.3531,-98.0603 363.0268,-93.0334 361.9276,-99.9466"/>
</g>
<!-- Node141&#45;&gt;Node139 -->
<g id="edge6" class="edge">
<title>Node141&#45;&gt;Node139</title>
<path fill="none" stroke="#191970" d="M326.0393,-76.6067C341.1498,-71.8017 359.7585,-65.8843 376.1227,-60.6806"/>
<polygon fill="#191970" stroke="#191970" points="377.5013,-63.915 385.9704,-57.5491 375.38,-57.2442 377.5013,-63.915"/>
</g>
<!-- Node141&#45;&gt;Node140 -->
<g id="edge7" class="edge">
<title>Node141&#45;&gt;Node140</title>
<path fill="none" stroke="#191970" d="M266.701,-91.7306C259.0223,-92.2045 250.3912,-92.5132 241.4717,-92.6566"/>
<polygon fill="#191970" stroke="#191970" points="241.2823,-89.1581 231.3143,-92.7484 241.3456,-96.1578 241.2823,-89.1581"/>
</g>
<!-- Node141&#45;&gt;Node142 -->
<g id="edge8" class="edge">
<title>Node141&#45;&gt;Node142</title>
<path fill="none" stroke="#191970" d="M305.3786,-76.2639C317.2191,-63.7869 339.3322,-42.197 362,-29 365.4758,-26.9764 369.2021,-25.1178 373.0129,-23.4226"/>
<polygon fill="#191970" stroke="#191970" points="374.6161,-26.5492 382.5649,-19.5444 371.9828,-20.0634 374.6161,-26.5492"/>
</g>
</g>
</svg>
