<?xml version="1.0" encoding="UTF-8" standalone="no"?>
<!DOCTYPE svg PUBLIC "-//W3C//DTD SVG 1.1//EN"
 "http://www.w3.org/Graphics/SVG/1.1/DTD/svg11.dtd">
<!-- Generated by graphviz version 2.39.20160927.1334 (20160927.1334)
 -->
<!-- Title: httpdHexVal Pages: 1 -->
<svg width="433pt" height="104pt"
 viewBox="0.00 0.00 433.00 104.00" xmlns="http://www.w3.org/2000/svg" xmlns:xlink="http://www.w3.org/1999/xlink">
<g id="graph0" class="graph" transform="scale(1 1) rotate(0) translate(4 100)">
<title>httpdHexVal</title>
<polygon fill="#ffffff" stroke="transparent" points="-4,4 -4,-100 429,-100 429,4 -4,4"/>
<!-- Node1 -->
<g id="node1" class="node">
<title>Node1</title>
<polygon fill="#bfbfbf" stroke="#000000" points="0,-38.5 0,-57.5 71,-57.5 71,-38.5 0,-38.5"/>
<text text-anchor="middle" x="35.5" y="-45.5" font-family="Helvetica,sans-Serif" font-size="10.00" fill="#000000">httpdHexVal</text>
</g>
<!-- Node2 -->
<g id="node2" class="node">
<title>Node2</title>
<g id="a_node2"><a xlink:href="httpd_8h.html#a45e5cfc52bcba530447be34fd5bae705" target="_top" xlink:title="httpdUrlDecode">
<polygon fill="#ffffff" stroke="#000000" points="107,-38.5 107,-57.5 193,-57.5 193,-38.5 107,-38.5"/>
<text text-anchor="middle" x="150" y="-45.5" font-family="Helvetica,sans-Serif" font-size="10.00" fill="#000000">httpdUrlDecode</text>
</a>
</g>
</g>
<!-- Node1&#45;&gt;Node2 -->
<g id="edge1" class="edge">
<title>Node1&#45;&gt;Node2</title>
<path fill="none" stroke="#191970" d="M81.1708,-48C89.6116,-48 98.4028,-48 106.769,-48"/>
<polygon fill="#191970" stroke="#191970" points="81.1009,-44.5001 71.1009,-48 81.1008,-51.5001 81.1009,-44.5001"/>
</g>
<!-- Node3 -->
<g id="node3" class="node">
<title>Node3</title>
<g id="a_node3"><a xlink:href="httpd_8h.html#a5024249acf005b3e40a1257a2267532b" target="_top" xlink:title="httpdFindArg">
<polygon fill="#ffffff" stroke="#000000" points="229,-38.5 229,-57.5 303,-57.5 303,-38.5 229,-38.5"/>
<text text-anchor="middle" x="266" y="-45.5" font-family="Helvetica,sans-Serif" font-size="10.00" fill="#000000">httpdFindArg</text>
</a>
</g>
</g>
<!-- Node2&#45;&gt;Node3 -->
<g id="edge2" class="edge">
<title>Node2&#45;&gt;Node3</title>
<path fill="none" stroke="#191970" d="M203.244,-48C211.901,-48 220.7,-48 228.863,-48"/>
<polygon fill="#191970" stroke="#191970" points="203.194,-44.5001 193.194,-48 203.194,-51.5001 203.194,-44.5001"/>
</g>
<!-- Node4 -->
<g id="node4" class="node">
<title>Node4</title>
<g id="a_node4"><a xlink:href="cgi_8h.html#a11febcd4d2ccd5bcab0a9332e78274fd" target="_top" xlink:title="cgiLed">
<polygon fill="#ffffff" stroke="#000000" points="359,-76.5 359,-95.5 405,-95.5 405,-76.5 359,-76.5"/>
<text text-anchor="middle" x="382" y="-83.5" font-family="Helvetica,sans-Serif" font-size="10.00" fill="#000000">cgiLed</text>
</a>
</g>
</g>
<!-- Node3&#45;&gt;Node4 -->
<g id="edge3" class="edge">
<title>Node3&#45;&gt;Node4</title>
<path fill="none" stroke="#191970" d="M304.905,-60.7448C322.845,-66.6216 343.528,-73.3971 358.952,-78.4498"/>
<polygon fill="#191970" stroke="#191970" points="305.864,-57.3761 295.272,-57.589 303.685,-64.0282 305.864,-57.3761"/>
</g>
<!-- Node5 -->
<g id="node5" class="node">
<title>Node5</title>
<g id="a_node5"><a xlink:href="cgiwifi_8h.html#a7c655a56f56ecebad923c5c4daeb7f1a" target="_top" xlink:title="cgiSetup">
<polygon fill="#ffffff" stroke="#000000" points="354.5,-38.5 354.5,-57.5 409.5,-57.5 409.5,-38.5 354.5,-38.5"/>
<text text-anchor="middle" x="382" y="-45.5" font-family="Helvetica,sans-Serif" font-size="10.00" fill="#000000">cgiSetup</text>
</a>
</g>
</g>
<!-- Node3&#45;&gt;Node5 -->
<g id="edge4" class="edge">
<title>Node3&#45;&gt;Node5</title>
<path fill="none" stroke="#191970" d="M313.396,-48C327.245,-48 341.93,-48 354.145,-48"/>
<polygon fill="#191970" stroke="#191970" points="313.022,-44.5001 303.022,-48 313.022,-51.5001 313.022,-44.5001"/>
</g>
<!-- Node6 -->
<g id="node6" class="node">
<title>Node6</title>
<g id="a_node6"><a xlink:href="cgiwifi_8h.html#a4ba43d83032eea6839857ed163af5fc9" target="_top" xlink:title="cgiWifiSetMode">
<polygon fill="#ffffff" stroke="#000000" points="339,-0.5 339,-19.5 425,-19.5 425,-0.5 339,-0.5"/>
<text text-anchor="middle" x="382" y="-7.5" font-family="Helvetica,sans-Serif" font-size="10.00" fill="#000000">cgiWifiSetMode</text>
</a>
</g>
</g>
<!-- Node3&#45;&gt;Node6 -->
<g id="edge5" class="edge">
<title>Node3&#45;&gt;Node6</title>
<path fill="none" stroke="#191970" d="M305.153,-35.1741C320.718,-30.0753 338.314,-24.3109 352.738,-19.5859"/>
<polygon fill="#191970" stroke="#191970" points="303.685,-31.9718 295.272,-38.411 305.864,-38.6239 303.685,-31.9718"/>
</g>
</g>
</svg>
