<?xml version="1.0" encoding="UTF-8" standalone="no"?>
<!DOCTYPE svg PUBLIC "-//W3C//DTD SVG 1.1//EN"
 "http://www.w3.org/Graphics/SVG/1.1/DTD/svg11.dtd">
<!-- Generated by graphviz version 2.41.20170323.1842 (20170323.1842)
 -->
<!-- Title: httpd_user_init Pages: 1 -->
<svg width="658pt" height="180pt"
 viewBox="0.00 0.00 658.00 180.00" xmlns="http://www.w3.org/2000/svg" xmlns:xlink="http://www.w3.org/1999/xlink">
<g id="graph0" class="graph" transform="scale(1 1) rotate(0) translate(4 176)">
<title>httpd_user_init</title>
<polygon fill="#ffffff" stroke="transparent" points="-4,4 -4,-176 654,-176 654,4 -4,4"/>
<!-- Node0 -->
<g id="node1" class="node">
<title>Node0</title>
<polygon fill="#bfbfbf" stroke="#000000" points="0,-95.5 0,-114.5 82,-114.5 82,-95.5 0,-95.5"/>
<text text-anchor="middle" x="41" y="-102.5" font-family="Helvetica,sans-Serif" font-size="10.00" fill="#000000">httpd_user_init</text>
</g>
<!-- Node1 -->
<g id="node2" class="node">
<title>Node1</title>
<g id="a_node2"><a xlink:href="httpd_8c.html#a74eb356c950228c2f024f081f7beb830" target="_top" xlink:title="httpdInit">
<polygon fill="#ffffff" stroke="#000000" points="118,-95.5 118,-114.5 170,-114.5 170,-95.5 118,-95.5"/>
<text text-anchor="middle" x="144" y="-102.5" font-family="Helvetica,sans-Serif" font-size="10.00" fill="#000000">httpdInit</text>
</a>
</g>
</g>
<!-- Node0&#45;&gt;Node1 -->
<g id="edge1" class="edge">
<title>Node0&#45;&gt;Node1</title>
<path fill="none" stroke="#191970" d="M82.0043,-105C90.5245,-105 99.445,-105 107.7786,-105"/>
<polygon fill="#191970" stroke="#191970" points="107.9464,-108.5001 117.9464,-105 107.9463,-101.5001 107.9464,-108.5001"/>
</g>
<!-- Node2 -->
<g id="node3" class="node">
<title>Node2</title>
<g id="a_node3"><a xlink:href="httpd_8c.html#a394ef39b684f0f7c1cf013dcb2b8300b" target="_top" xlink:title="httpdConnectCb">
<polygon fill="#ffffff" stroke="#000000" points="206,-95.5 206,-114.5 295,-114.5 295,-95.5 206,-95.5"/>
<text text-anchor="middle" x="250.5" y="-102.5" font-family="Helvetica,sans-Serif" font-size="10.00" fill="#000000">httpdConnectCb</text>
</a>
</g>
</g>
<!-- Node1&#45;&gt;Node2 -->
<g id="edge2" class="edge">
<title>Node1&#45;&gt;Node2</title>
<path fill="none" stroke="#191970" d="M170.0528,-105C177.8379,-105 186.6832,-105 195.5905,-105"/>
<polygon fill="#191970" stroke="#191970" points="195.6202,-108.5001 205.6202,-105 195.6201,-101.5001 195.6202,-108.5001"/>
</g>
<!-- Node3 -->
<g id="node4" class="node">
<title>Node3</title>
<g id="a_node4"><a xlink:href="httpd_8c.html#a3a1968ecb0fa46d0cbeb07e9983494f4" target="_top" xlink:title="httpdDisconCb">
<polygon fill="#ffffff" stroke="#000000" points="331,-152.5 331,-171.5 413,-171.5 413,-152.5 331,-152.5"/>
<text text-anchor="middle" x="372" y="-159.5" font-family="Helvetica,sans-Serif" font-size="10.00" fill="#000000">httpdDisconCb</text>
</a>
</g>
</g>
<!-- Node2&#45;&gt;Node3 -->
<g id="edge3" class="edge">
<title>Node2&#45;&gt;Node3</title>
<path fill="none" stroke="#191970" d="M270.6619,-114.5658C286.9331,-122.274 310.4215,-133.3749 331,-143 334.5754,-144.6723 338.329,-146.4211 342.0528,-148.1519"/>
<polygon fill="#191970" stroke="#191970" points="340.5847,-151.329 351.129,-152.3628 343.5307,-144.9792 340.5847,-151.329"/>
</g>
<!-- Node6 -->
<g id="node7" class="node">
<title>Node6</title>
<g id="a_node7"><a xlink:href="httpd_8c.html#aa93c97e6f6126a95a462afad3d3651ce" target="_top" xlink:title="httpdReconCb">
<polygon fill="#ffffff" stroke="#000000" points="332,-114.5 332,-133.5 412,-133.5 412,-114.5 332,-114.5"/>
<text text-anchor="middle" x="372" y="-121.5" font-family="Helvetica,sans-Serif" font-size="10.00" fill="#000000">httpdReconCb</text>
</a>
</g>
</g>
<!-- Node2&#45;&gt;Node6 -->
<g id="edge6" class="edge">
<title>Node2&#45;&gt;Node6</title>
<path fill="none" stroke="#191970" d="M295.0522,-111.967C303.8112,-113.3367 313.0548,-114.7822 321.9793,-116.1778"/>
<polygon fill="#191970" stroke="#191970" points="321.4563,-119.6385 331.877,-117.7256 322.5378,-112.7226 321.4563,-119.6385"/>
</g>
<!-- Node7 -->
<g id="node8" class="node">
<title>Node7</title>
<g id="a_node8"><a xlink:href="httpd_8c.html#ad4f8c0a86c445f2f52156e8a328613e4" target="_top" xlink:title="httpdRecvCb">
<polygon fill="#ffffff" stroke="#000000" points="335,-38.5 335,-57.5 409,-57.5 409,-38.5 335,-38.5"/>
<text text-anchor="middle" x="372" y="-45.5" font-family="Helvetica,sans-Serif" font-size="10.00" fill="#000000">httpdRecvCb</text>
</a>
</g>
</g>
<!-- Node2&#45;&gt;Node7 -->
<g id="edge8" class="edge">
<title>Node2&#45;&gt;Node7</title>
<path fill="none" stroke="#191970" d="M270.6619,-95.4342C286.9331,-87.726 310.4215,-76.6251 331,-67 334.5754,-65.3277 338.329,-63.5789 342.0528,-61.8481"/>
<polygon fill="#191970" stroke="#191970" points="343.5307,-65.0208 351.129,-57.6372 340.5847,-58.671 343.5307,-65.0208"/>
</g>
<!-- Node13 -->
<g id="node14" class="node">
<title>Node13</title>
<g id="a_node14"><a xlink:href="httpd_8c.html#a51c1039375e19643be3aaac1e8a1c937" target="_top" xlink:title="httpdSentCb">
<polygon fill="#ffffff" stroke="#000000" points="336,-76.5 336,-95.5 408,-95.5 408,-76.5 336,-76.5"/>
<text text-anchor="middle" x="372" y="-83.5" font-family="Helvetica,sans-Serif" font-size="10.00" fill="#000000">httpdSentCb</text>
</a>
</g>
</g>
<!-- Node2&#45;&gt;Node13 -->
<g id="edge15" class="edge">
<title>Node2&#45;&gt;Node13</title>
<path fill="none" stroke="#191970" d="M295.0522,-98.033C305.1096,-96.4602 315.806,-94.7875 325.9246,-93.2052"/>
<polygon fill="#191970" stroke="#191970" points="326.4665,-96.6631 335.8056,-91.66 325.3849,-89.7471 326.4665,-96.6631"/>
</g>
<!-- Node4 -->
<g id="node5" class="node">
<title>Node4</title>
<g id="a_node5"><a xlink:href="httpd_8c.html#afd1e497b9cd5f6934acaf57679bc21f8" target="_top" xlink:title="httpdFindConnData">
<polygon fill="#ffffff" stroke="#000000" points="449,-114.5 449,-133.5 552,-133.5 552,-114.5 449,-114.5"/>
<text text-anchor="middle" x="500.5" y="-121.5" font-family="Helvetica,sans-Serif" font-size="10.00" fill="#000000">httpdFindConnData</text>
</a>
</g>
</g>
<!-- Node3&#45;&gt;Node4 -->
<g id="edge4" class="edge">
<title>Node3&#45;&gt;Node4</title>
<path fill="none" stroke="#191970" d="M404.426,-152.411C420.7097,-147.5956 440.6421,-141.7012 458.122,-136.532"/>
<polygon fill="#191970" stroke="#191970" points="459.4875,-139.7781 468.0844,-133.5859 457.5024,-133.0655 459.4875,-139.7781"/>
</g>
<!-- Node5 -->
<g id="node6" class="node">
<title>Node5</title>
<g id="a_node6"><a xlink:href="httpd_8c.html#ab7a09edc1f3de2b70bf21ed275c22c61" target="_top" xlink:title="httpdRetireConn">
<polygon fill="#ffffff" stroke="#000000" points="456,-152.5 456,-171.5 545,-171.5 545,-152.5 456,-152.5"/>
<text text-anchor="middle" x="500.5" y="-159.5" font-family="Helvetica,sans-Serif" font-size="10.00" fill="#000000">httpdRetireConn</text>
</a>
</g>
</g>
<!-- Node3&#45;&gt;Node5 -->
<g id="edge5" class="edge">
<title>Node3&#45;&gt;Node5</title>
<path fill="none" stroke="#191970" d="M413.0115,-162C423.3645,-162 434.6479,-162 445.5647,-162"/>
<polygon fill="#191970" stroke="#191970" points="445.8768,-165.5001 455.8767,-162 445.8767,-158.5001 445.8768,-165.5001"/>
</g>
<!-- Node6&#45;&gt;Node4 -->
<g id="edge7" class="edge">
<title>Node6&#45;&gt;Node4</title>
<path fill="none" stroke="#191970" d="M412.3056,-124C420.7551,-124 429.8492,-124 438.8742,-124"/>
<polygon fill="#191970" stroke="#191970" points="438.9962,-127.5001 448.9962,-124 438.9962,-120.5001 438.9962,-127.5001"/>
</g>
<!-- Node7&#45;&gt;Node4 -->
<g id="edge9" class="edge">
<title>Node7&#45;&gt;Node4</title>
<path fill="none" stroke="#191970" d="M396.6939,-57.6035C402.2838,-60.2697 408.031,-63.4286 413,-67 431.8913,-80.5777 429.5776,-92.1936 449,-105 451.9127,-106.9205 455.0456,-108.6803 458.276,-110.2861"/>
<polygon fill="#191970" stroke="#191970" points="456.9778,-113.5393 467.5369,-114.4092 459.8249,-107.1444 456.9778,-113.5393"/>
</g>
<!-- Node8 -->
<g id="node9" class="node">
<title>Node8</title>
<g id="a_node9"><a xlink:href="httpd_8c.html#afbbd7e804f055b233604a4a6e6fe5cee" target="_top" xlink:title="httpdParseHeader">
<polygon fill="#ffffff" stroke="#000000" points="451.5,-.5 451.5,-19.5 549.5,-19.5 549.5,-.5 451.5,-.5"/>
<text text-anchor="middle" x="500.5" y="-7.5" font-family="Helvetica,sans-Serif" font-size="10.00" fill="#000000">httpdParseHeader</text>
</a>
</g>
</g>
<!-- Node7&#45;&gt;Node8 -->
<g id="edge10" class="edge">
<title>Node7&#45;&gt;Node8</title>
<path fill="none" stroke="#191970" d="M404.426,-38.411C420.7097,-33.5956 440.6421,-27.7012 458.122,-22.532"/>
<polygon fill="#191970" stroke="#191970" points="459.4875,-25.7781 468.0844,-19.5859 457.5024,-19.0655 459.4875,-25.7781"/>
</g>
<!-- Node10 -->
<g id="node11" class="node">
<title>Node10</title>
<g id="a_node11"><a xlink:href="httpd_8c.html#a5aa7652c21a5a543311463ab0566ccc9" target="_top" xlink:title="httpdSendResp">
<polygon fill="#ffffff" stroke="#000000" points="458,-38.5 458,-57.5 543,-57.5 543,-38.5 458,-38.5"/>
<text text-anchor="middle" x="500.5" y="-45.5" font-family="Helvetica,sans-Serif" font-size="10.00" fill="#000000">httpdSendResp</text>
</a>
</g>
</g>
<!-- Node7&#45;&gt;Node10 -->
<g id="edge12" class="edge">
<title>Node7&#45;&gt;Node10</title>
<path fill="none" stroke="#191970" d="M409.1675,-48C421.216,-48 434.8197,-48 447.7768,-48"/>
<polygon fill="#191970" stroke="#191970" points="447.9874,-51.5001 457.9874,-48 447.9874,-44.5001 447.9874,-51.5001"/>
</g>
<!-- Node12 -->
<g id="node13" class="node">
<title>Node12</title>
<g id="a_node13"><a xlink:href="httpd_8c.html#a4638d3f885add9276ca7eaeca3ec67a9" target="_top" xlink:title="xmitSendBuff">
<polygon fill="#ffffff" stroke="#000000" points="462.5,-76.5 462.5,-95.5 538.5,-95.5 538.5,-76.5 462.5,-76.5"/>
<text text-anchor="middle" x="500.5" y="-83.5" font-family="Helvetica,sans-Serif" font-size="10.00" fill="#000000">xmitSendBuff</text>
</a>
</g>
</g>
<!-- Node7&#45;&gt;Node12 -->
<g id="edge14" class="edge">
<title>Node7&#45;&gt;Node12</title>
<path fill="none" stroke="#191970" d="M404.426,-57.589C420.7097,-62.4044 440.6421,-68.2988 458.122,-73.468"/>
<polygon fill="#191970" stroke="#191970" points="457.5024,-76.9345 468.0844,-76.4141 459.4875,-70.2219 457.5024,-76.9345"/>
</g>
<!-- Node9 -->
<g id="node10" class="node">
<title>Node9</title>
<g id="a_node10"><a xlink:href="espmissingincludes_8h.html#ad228deceea1bac4d9f171f647c265059" target="_top" xlink:title="atoi">
<polygon fill="#ffffff" stroke="#000000" points="602.5,-.5 602.5,-19.5 635.5,-19.5 635.5,-.5 602.5,-.5"/>
<text text-anchor="middle" x="619" y="-7.5" font-family="Helvetica,sans-Serif" font-size="10.00" fill="#000000">atoi</text>
</a>
</g>
</g>
<!-- Node8&#45;&gt;Node9 -->
<g id="edge11" class="edge">
<title>Node8&#45;&gt;Node9</title>
<path fill="none" stroke="#191970" d="M549.7252,-10C564.2832,-10 579.6728,-10 592.2396,-10"/>
<polygon fill="#191970" stroke="#191970" points="592.4647,-13.5001 602.4646,-10 592.4646,-6.5001 592.4647,-13.5001"/>
</g>
<!-- Node11 -->
<g id="node12" class="node">
<title>Node11</title>
<g id="a_node12"><a xlink:href="httpd_8c.html#a1a143f6c427d66e2561895cf193fc535" target="_top" xlink:title="httpdSend">
<polygon fill="#ffffff" stroke="#000000" points="588,-38.5 588,-57.5 650,-57.5 650,-38.5 588,-38.5"/>
<text text-anchor="middle" x="619" y="-45.5" font-family="Helvetica,sans-Serif" font-size="10.00" fill="#000000">httpdSend</text>
</a>
</g>
</g>
<!-- Node10&#45;&gt;Node11 -->
<g id="edge13" class="edge">
<title>Node10&#45;&gt;Node11</title>
<path fill="none" stroke="#191970" d="M543.2812,-48C554.4343,-48 566.433,-48 577.5176,-48"/>
<polygon fill="#191970" stroke="#191970" points="577.8075,-51.5001 587.8074,-48 577.8074,-44.5001 577.8075,-51.5001"/>
</g>
<!-- Node13&#45;&gt;Node4 -->
<g id="edge16" class="edge">
<title>Node13&#45;&gt;Node4</title>
<path fill="none" stroke="#191970" d="M404.426,-95.589C420.7097,-100.4044 440.6421,-106.2988 458.122,-111.468"/>
<polygon fill="#191970" stroke="#191970" points="457.5024,-114.9345 468.0844,-114.4141 459.4875,-108.2219 457.5024,-114.9345"/>
</g>
<!-- Node13&#45;&gt;Node5 -->
<g id="edge17" class="edge">
<title>Node13&#45;&gt;Node5</title>
<path fill="none" stroke="#191970" d="M396.6939,-95.6035C402.2838,-98.2697 408.031,-101.4286 413,-105 431.8913,-118.5777 429.5776,-130.1936 449,-143 451.9127,-144.9205 455.0456,-146.6803 458.276,-148.2861"/>
<polygon fill="#191970" stroke="#191970" points="456.9778,-151.5393 467.5369,-152.4092 459.8249,-145.1444 456.9778,-151.5393"/>
</g>
<!-- Node13&#45;&gt;Node12 -->
<g id="edge18" class="edge">
<title>Node13&#45;&gt;Node12</title>
<path fill="none" stroke="#191970" d="M408.1364,-86C421.7557,-86 437.4745,-86 452.0392,-86"/>
<polygon fill="#191970" stroke="#191970" points="452.3941,-89.5001 462.3941,-86 452.3941,-82.5001 452.3941,-89.5001"/>
</g>
</g>
</svg>
