<?xml version="1.0" encoding="UTF-8" standalone="no"?>
<!DOCTYPE svg PUBLIC "-//W3C//DTD SVG 1.1//EN"
 "http://www.w3.org/Graphics/SVG/1.1/DTD/svg11.dtd">
<!-- Generated by graphviz version 2.41.20170323.1842 (20170323.1842)
 -->
<!-- Title: httpdStop Pages: 1 -->
<svg width="459pt" height="66pt"
 viewBox="0.00 0.00 459.00 66.00" xmlns="http://www.w3.org/2000/svg" xmlns:xlink="http://www.w3.org/1999/xlink">
<g id="graph0" class="graph" transform="scale(1 1) rotate(0) translate(4 62)">
<title>httpdStop</title>
<polygon fill="#ffffff" stroke="transparent" points="-4,4 -4,-62 455,-62 455,4 -4,4"/>
<!-- Node149 -->
<g id="node1" class="node">
<title>Node149</title>
<polygon fill="#bfbfbf" stroke="#000000" points="0,-38.5 0,-57.5 59,-57.5 59,-38.5 0,-38.5"/>
<text text-anchor="middle" x="29.5" y="-45.5" font-family="Helvetica,sans-Serif" font-size="10.00" fill="#000000">httpdStop</text>
</g>
<!-- Node150 -->
<g id="node2" class="node">
<title>Node150</title>
<g id="a_node2"><a xlink:href="httpd_8c.html#aecb06813eefe322c349651aa5e1316f5" target="_top" xlink:title="httpdDisconnectTimerFunc">
<polygon fill="#ffffff" stroke="#000000" points="95,-38.5 95,-57.5 231,-57.5 231,-38.5 95,-38.5"/>
<text text-anchor="middle" x="163" y="-45.5" font-family="Helvetica,sans-Serif" font-size="10.00" fill="#000000">httpdDisconnectTimerFunc</text>
</a>
</g>
</g>
<!-- Node149&#45;&gt;Node150 -->
<g id="edge1" class="edge">
<title>Node149&#45;&gt;Node150</title>
<path fill="none" stroke="#191970" d="M69.3546,-41.7627C77.4502,-41.4371 86.1797,-41.2666 94.9392,-41.2512"/>
<polygon fill="#191970" stroke="#191970" points="68.9384,-38.2792 59.128,-42.28 69.2921,-45.2702 68.9384,-38.2792"/>
</g>
<!-- Node151 -->
<g id="node3" class="node">
<title>Node151</title>
<g id="a_node3"><a xlink:href="user__main_8c.html#a245ec00253f410a8804988bf40e1037e" target="_top" xlink:title="sample_mode_timer_func">
<polygon fill="#ffffff" stroke="#000000" points="97,-.5 97,-19.5 229,-19.5 229,-.5 97,-.5"/>
<text text-anchor="middle" x="163" y="-7.5" font-family="Helvetica,sans-Serif" font-size="10.00" fill="#000000">sample_mode_timer_func</text>
</a>
</g>
</g>
<!-- Node149&#45;&gt;Node151 -->
<g id="edge3" class="edge">
<title>Node149&#45;&gt;Node151</title>
<path fill="none" stroke="#191970" d="M68.9566,-36.4863C77.5374,-34.0015 86.5696,-31.4005 95,-29 105.9639,-25.8782 117.936,-22.5171 128.7369,-19.5025"/>
<polygon fill="#191970" stroke="#191970" points="67.7822,-33.1827 59.1539,-39.331 69.7331,-39.9053 67.7822,-33.1827"/>
</g>
<!-- Node150&#45;&gt;Node149 -->
<g id="edge2" class="edge">
<title>Node150&#45;&gt;Node149</title>
<path fill="none" stroke="#191970" d="M84.6556,-54.6587C75.6247,-54.5151 66.8859,-54.2022 59.128,-53.72"/>
<polygon fill="#191970" stroke="#191970" points="84.9089,-58.1609 94.9392,-54.7488 84.9703,-51.1612 84.9089,-58.1609"/>
</g>
<!-- Node152 -->
<g id="node4" class="node">
<title>Node152</title>
<g id="a_node4"><a xlink:href="user__main_8h.html#a3671381db669a16e8f6a4bf3dfb9a441" target="_top" xlink:title="system_init_done">
<polygon fill="#ffffff" stroke="#000000" points="267,-.5 267,-19.5 361,-19.5 361,-.5 267,-.5"/>
<text text-anchor="middle" x="314" y="-7.5" font-family="Helvetica,sans-Serif" font-size="10.00" fill="#000000">system_init_done</text>
</a>
</g>
</g>
<!-- Node151&#45;&gt;Node152 -->
<g id="edge4" class="edge">
<title>Node151&#45;&gt;Node152</title>
<path fill="none" stroke="#191970" d="M239.3817,-10C248.7551,-10 258.1105,-10 266.8696,-10"/>
<polygon fill="#191970" stroke="#191970" points="239.2308,-6.5001 229.2308,-10 239.2308,-13.5001 239.2308,-6.5001"/>
</g>
<!-- Node153 -->
<g id="node5" class="node">
<title>Node153</title>
<g id="a_node5"><a xlink:href="user__main_8h.html#a33113d6dedb440bd7dfa5576e325140c" target="_top" xlink:title="user_init">
<polygon fill="#ffffff" stroke="#000000" points="397,-.5 397,-19.5 451,-19.5 451,-.5 397,-.5"/>
<text text-anchor="middle" x="424" y="-7.5" font-family="Helvetica,sans-Serif" font-size="10.00" fill="#000000">user_init</text>
</a>
</g>
</g>
<!-- Node152&#45;&gt;Node153 -->
<g id="edge5" class="edge">
<title>Node152&#45;&gt;Node153</title>
<path fill="none" stroke="#191970" d="M371.2886,-10C380.1598,-10 388.9515,-10 396.7383,-10"/>
<polygon fill="#191970" stroke="#191970" points="371.2883,-6.5001 361.2883,-10 371.2882,-13.5001 371.2883,-6.5001"/>
</g>
</g>
</svg>
