<?xml version="1.0" encoding="UTF-8" standalone="no"?>
<!DOCTYPE svg PUBLIC "-//W3C//DTD SVG 1.1//EN"
 "http://www.w3.org/Graphics/SVG/1.1/DTD/svg11.dtd">
<!-- Generated by graphviz version 2.40.1 (20161225.0304)
 -->
<!-- Title: httpdStop Pages: 1 -->
<svg width="334pt" height="28pt"
 viewBox="0.00 0.00 334.00 28.00" xmlns="http://www.w3.org/2000/svg" xmlns:xlink="http://www.w3.org/1999/xlink">
<g id="graph0" class="graph" transform="scale(1 1) rotate(0) translate(4 24)">
<title>httpdStop</title>
<polygon fill="#ffffff" stroke="transparent" points="-4,4 -4,-24 330,-24 330,4 -4,4"/>
<!-- Node254 -->
<g id="node1" class="node">
<title>Node254</title>
<polygon fill="#bfbfbf" stroke="#000000" points="0,-.5 0,-19.5 59,-19.5 59,-.5 0,-.5"/>
<text text-anchor="middle" x="29.5" y="-7.5" font-family="Helvetica,sans-Serif" font-size="10.00" fill="#000000">httpdStop</text>
</g>
<!-- Node255 -->
<g id="node2" class="node">
<title>Node255</title>
<g id="a_node2"><a xlink:href="httpd_8c.html#aecb06813eefe322c349651aa5e1316f5" target="_top" xlink:title="httpdDisconnectTimerFunc">
<polygon fill="#ffffff" stroke="#000000" points="95,-.5 95,-19.5 231,-19.5 231,-.5 95,-.5"/>
<text text-anchor="middle" x="163" y="-7.5" font-family="Helvetica,sans-Serif" font-size="10.00" fill="#000000">httpdDisconnectTimerFunc</text>
</a>
</g>
</g>
<!-- Node254&#45;&gt;Node255 -->
<g id="edge1" class="edge">
<title>Node254&#45;&gt;Node255</title>
<path fill="none" stroke="#191970" d="M69.3546,-10C77.4502,-10 86.1797,-10 94.9392,-10"/>
<polygon fill="#191970" stroke="#191970" points="69.128,-6.5001 59.128,-10 69.1279,-13.5001 69.128,-6.5001"/>
</g>
<!-- Node256 -->
<g id="node3" class="node">
<title>Node256</title>
<g id="a_node3"><a xlink:href="httpd_8h.html#afec8778692d2ecc547295eb197fa6fcd" target="_top" xlink:title="httpdStop">
<polygon fill="#ffffff" stroke="#000000" points="267,-.5 267,-19.5 326,-19.5 326,-.5 267,-.5"/>
<text text-anchor="middle" x="296.5" y="-7.5" font-family="Helvetica,sans-Serif" font-size="10.00" fill="#000000">httpdStop</text>
</a>
</g>
</g>
<!-- Node255&#45;&gt;Node256 -->
<g id="edge2" class="edge">
<title>Node255&#45;&gt;Node256</title>
<path fill="none" stroke="#191970" d="M241.4717,-3.3434C250.3912,-3.4868 259.0223,-3.7955 266.701,-4.2694"/>
<polygon fill="#191970" stroke="#191970" points="241.3456,.1578 231.3143,-3.2516 241.2823,-6.8419 241.3456,.1578"/>
</g>
<!-- Node256&#45;&gt;Node255 -->
<g id="edge3" class="edge">
<title>Node256&#45;&gt;Node255</title>
<path fill="none" stroke="#191970" d="M256.5872,-16.2397C248.5861,-16.5606 239.9677,-16.7301 231.3143,-16.7484"/>
<polygon fill="#191970" stroke="#191970" points="256.8896,-19.729 266.701,-15.7306 256.5376,-12.7378 256.8896,-19.729"/>
</g>
</g>
</svg>
