<?xml version="1.0" encoding="UTF-8" standalone="no"?>
<!DOCTYPE svg PUBLIC "-//W3C//DTD SVG 1.1//EN"
 "http://www.w3.org/Graphics/SVG/1.1/DTD/svg11.dtd">
<!-- Generated by graphviz version 2.41.20170323.1842 (20170323.1842)
 -->
<!-- Title: httpdDisconnectTimerFunc Pages: 1 -->
<svg width="383pt" height="104pt"
 viewBox="0.00 0.00 383.00 104.00" xmlns="http://www.w3.org/2000/svg" xmlns:xlink="http://www.w3.org/1999/xlink">
<g id="graph0" class="graph" transform="scale(1 1) rotate(0) translate(4 100)">
<title>httpdDisconnectTimerFunc</title>
<polygon fill="#ffffff" stroke="transparent" points="-4,4 -4,-100 379,-100 379,4 -4,4"/>
<!-- Node44 -->
<g id="node1" class="node">
<title>Node44</title>
<polygon fill="#bfbfbf" stroke="#000000" points="0,-38.5 0,-57.5 136,-57.5 136,-38.5 0,-38.5"/>
<text text-anchor="middle" x="68" y="-45.5" font-family="Helvetica,sans-Serif" font-size="10.00" fill="#000000">httpdDisconnectTimerFunc</text>
</g>
<!-- Node45 -->
<g id="node2" class="node">
<title>Node45</title>
<g id="a_node2"><a xlink:href="httpd_8c.html#afec8778692d2ecc547295eb197fa6fcd" target="_top" xlink:title="httpdStop">
<polygon fill="#ffffff" stroke="#000000" points="172,-38.5 172,-57.5 231,-57.5 231,-38.5 172,-38.5"/>
<text text-anchor="middle" x="201.5" y="-45.5" font-family="Helvetica,sans-Serif" font-size="10.00" fill="#000000">httpdStop</text>
</a>
</g>
</g>
<!-- Node44&#45;&gt;Node45 -->
<g id="edge1" class="edge">
<title>Node44&#45;&gt;Node45</title>
<path fill="none" stroke="#191970" d="M136.3143,-41.2516C144.9677,-41.2699 153.5861,-41.4394 161.5872,-41.7603"/>
<polygon fill="#191970" stroke="#191970" points="161.5376,-45.2622 171.701,-42.2694 161.8896,-38.271 161.5376,-45.2622"/>
</g>
<!-- Node45&#45;&gt;Node44 -->
<g id="edge5" class="edge">
<title>Node45&#45;&gt;Node44</title>
<path fill="none" stroke="#191970" d="M171.701,-53.7306C164.0223,-54.2045 155.3912,-54.5132 146.4717,-54.6566"/>
<polygon fill="#191970" stroke="#191970" points="146.2823,-51.1581 136.3143,-54.7484 146.3456,-58.1578 146.2823,-51.1581"/>
</g>
<!-- Node46 -->
<g id="node3" class="node">
<title>Node46</title>
<g id="a_node3"><a xlink:href="esp-open-lwip_2include_2lwip_2app_2espconn_8h.html#a63d15dda14dfcd8da278c31f048910c3" target="_top" xlink:title="espconn_delete">
<polygon fill="#ffffff" stroke="#000000" points="277.5,-76.5 277.5,-95.5 364.5,-95.5 364.5,-76.5 277.5,-76.5"/>
<text text-anchor="middle" x="321" y="-83.5" font-family="Helvetica,sans-Serif" font-size="10.00" fill="#000000">espconn_delete</text>
</a>
</g>
</g>
<!-- Node45&#45;&gt;Node46 -->
<g id="edge2" class="edge">
<title>Node45&#45;&gt;Node46</title>
<path fill="none" stroke="#191970" d="M231.0393,-57.3933C246.1498,-62.1983 264.7585,-68.1157 281.1227,-73.3194"/>
<polygon fill="#191970" stroke="#191970" points="280.38,-76.7558 290.9704,-76.4509 282.5013,-70.085 280.38,-76.7558"/>
</g>
<!-- Node47 -->
<g id="node4" class="node">
<title>Node47</title>
<g id="a_node4"><a xlink:href="httpd_8c.html#ab7a09edc1f3de2b70bf21ed275c22c61" target="_top" xlink:title="httpdRetireConn">
<polygon fill="#ffffff" stroke="#000000" points="276.5,-38.5 276.5,-57.5 365.5,-57.5 365.5,-38.5 276.5,-38.5"/>
<text text-anchor="middle" x="321" y="-45.5" font-family="Helvetica,sans-Serif" font-size="10.00" fill="#000000">httpdRetireConn</text>
</a>
</g>
</g>
<!-- Node45&#45;&gt;Node47 -->
<g id="edge3" class="edge">
<title>Node45&#45;&gt;Node47</title>
<path fill="none" stroke="#191970" d="M231.0393,-48C241.7307,-48 254.1734,-48 266.3332,-48"/>
<polygon fill="#191970" stroke="#191970" points="266.4363,-51.5001 276.4362,-48 266.4362,-44.5001 266.4363,-51.5001"/>
</g>
<!-- Node48 -->
<g id="node5" class="node">
<title>Node48</title>
<g id="a_node5"><a xlink:href="esp-open-lwip_2include_2lwip_2app_2espconn_8h.html#a9969873c3b8ee86a34496a5166cf8bfc" target="_top" xlink:title="espconn_disconnect">
<polygon fill="#ffffff" stroke="#000000" points="267,-.5 267,-19.5 375,-19.5 375,-.5 267,-.5"/>
<text text-anchor="middle" x="321" y="-7.5" font-family="Helvetica,sans-Serif" font-size="10.00" fill="#000000">espconn_disconnect</text>
</a>
</g>
</g>
<!-- Node45&#45;&gt;Node48 -->
<g id="edge4" class="edge">
<title>Node45&#45;&gt;Node48</title>
<path fill="none" stroke="#191970" d="M231.0393,-38.6067C246.1498,-33.8017 264.7585,-27.8843 281.1227,-22.6806"/>
<polygon fill="#191970" stroke="#191970" points="282.5013,-25.915 290.9704,-19.5491 280.38,-19.2442 282.5013,-25.915"/>
</g>
</g>
</svg>
