<?xml version="1.0" encoding="UTF-8" standalone="no"?>
<!DOCTYPE svg PUBLIC "-//W3C//DTD SVG 1.1//EN"
 "http://www.w3.org/Graphics/SVG/1.1/DTD/svg11.dtd">
<!-- Generated by graphviz version 2.39.20160927.1334 (20160927.1334)
 -->
<!-- Title: httpdRecvCb Pages: 1 -->
<svg width="795pt" height="28pt"
 viewBox="0.00 0.00 795.00 28.00" xmlns="http://www.w3.org/2000/svg" xmlns:xlink="http://www.w3.org/1999/xlink">
<g id="graph0" class="graph" transform="scale(1 1) rotate(0) translate(4 24)">
<title>httpdRecvCb</title>
<polygon fill="#ffffff" stroke="transparent" points="-4,4 -4,-24 791,-24 791,4 -4,4"/>
<!-- Node1 -->
<g id="node1" class="node">
<title>Node1</title>
<polygon fill="#bfbfbf" stroke="#000000" points="0,-0.5 0,-19.5 74,-19.5 74,-0.5 0,-0.5"/>
<text text-anchor="middle" x="37" y="-7.5" font-family="Helvetica,sans-Serif" font-size="10.00" fill="#000000">httpdRecvCb</text>
</g>
<!-- Node2 -->
<g id="node2" class="node">
<title>Node2</title>
<g id="a_node2"><a xlink:href="httpd_8c.html#a394ef39b684f0f7c1cf013dcb2b8300b" target="_top" xlink:title="httpdConnectCb">
<polygon fill="#ffffff" stroke="#000000" points="110,-0.5 110,-19.5 199,-19.5 199,-0.5 110,-0.5"/>
<text text-anchor="middle" x="154.5" y="-7.5" font-family="Helvetica,sans-Serif" font-size="10.00" fill="#000000">httpdConnectCb</text>
</a>
</g>
</g>
<!-- Node1&#45;&gt;Node2 -->
<g id="edge1" class="edge">
<title>Node1&#45;&gt;Node2</title>
<path fill="none" stroke="#191970" d="M84.2336,-10C92.6513,-10 101.397,-10 109.743,-10"/>
<polygon fill="#191970" stroke="#191970" points="84.1778,-6.5001 74.1777,-10 84.1777,-13.5001 84.1778,-6.5001"/>
</g>
<!-- Node3 -->
<g id="node3" class="node">
<title>Node3</title>
<g id="a_node3"><a xlink:href="httpd_8h.html#a74eb356c950228c2f024f081f7beb830" target="_top" xlink:title="httpdInit">
<polygon fill="#ffffff" stroke="#000000" points="235,-0.5 235,-19.5 287,-19.5 287,-0.5 235,-0.5"/>
<text text-anchor="middle" x="261" y="-7.5" font-family="Helvetica,sans-Serif" font-size="10.00" fill="#000000">httpdInit</text>
</a>
</g>
</g>
<!-- Node2&#45;&gt;Node3 -->
<g id="edge2" class="edge">
<title>Node2&#45;&gt;Node3</title>
<path fill="none" stroke="#191970" d="M209.141,-10C218.108,-10 227.022,-10 234.866,-10"/>
<polygon fill="#191970" stroke="#191970" points="209.049,-6.5001 199.049,-10 209.048,-13.5001 209.049,-6.5001"/>
</g>
<!-- Node4 -->
<g id="node4" class="node">
<title>Node4</title>
<g id="a_node4"><a xlink:href="httpd__user__init_8h.html#a6abf56883c8e03334f42bfb79aa8b095" target="_top" xlink:title="httpd_user_init">
<polygon fill="#ffffff" stroke="#000000" points="323,-0.5 323,-19.5 405,-19.5 405,-0.5 323,-0.5"/>
<text text-anchor="middle" x="364" y="-7.5" font-family="Helvetica,sans-Serif" font-size="10.00" fill="#000000">httpd_user_init</text>
</a>
</g>
</g>
<!-- Node3&#45;&gt;Node4 -->
<g id="edge3" class="edge">
<title>Node3&#45;&gt;Node4</title>
<path fill="none" stroke="#191970" d="M297.371,-10C305.654,-10 314.511,-10 322.974,-10"/>
<polygon fill="#191970" stroke="#191970" points="297.258,-6.5001 287.258,-10 297.258,-13.5001 297.258,-6.5001"/>
</g>
<!-- Node5 -->
<g id="node5" class="node">
<title>Node5</title>
<g id="a_node5"><a xlink:href="user__main_8c.html#aca4c3403260c8a02d8a445795842f53e" target="_top" xlink:title="config_mode_timer_func">
<polygon fill="#ffffff" stroke="#000000" points="441,-0.5 441,-19.5 567,-19.5 567,-0.5 441,-0.5"/>
<text text-anchor="middle" x="504" y="-7.5" font-family="Helvetica,sans-Serif" font-size="10.00" fill="#000000">config_mode_timer_func</text>
</a>
</g>
</g>
<!-- Node4&#45;&gt;Node5 -->
<g id="edge4" class="edge">
<title>Node4&#45;&gt;Node5</title>
<path fill="none" stroke="#191970" d="M415.509,-10C423.798,-10 432.459,-10 440.982,-10"/>
<polygon fill="#191970" stroke="#191970" points="415.247,-6.5001 405.247,-10 415.247,-13.5001 415.247,-6.5001"/>
</g>
<!-- Node6 -->
<g id="node6" class="node">
<title>Node6</title>
<g id="a_node6"><a xlink:href="user__main_8h.html#a3671381db669a16e8f6a4bf3dfb9a441" target="_top" xlink:title="system_init_done">
<polygon fill="#ffffff" stroke="#000000" points="603,-0.5 603,-19.5 697,-19.5 697,-0.5 603,-0.5"/>
<text text-anchor="middle" x="650" y="-7.5" font-family="Helvetica,sans-Serif" font-size="10.00" fill="#000000">system_init_done</text>
</a>
</g>
</g>
<!-- Node5&#45;&gt;Node6 -->
<g id="edge5" class="edge">
<title>Node5&#45;&gt;Node6</title>
<path fill="none" stroke="#191970" d="M577.257,-10C585.857,-10 594.452,-10 602.565,-10"/>
<polygon fill="#191970" stroke="#191970" points="577.189,-6.5001 567.189,-10 577.189,-13.5001 577.189,-6.5001"/>
</g>
<!-- Node7 -->
<g id="node7" class="node">
<title>Node7</title>
<g id="a_node7"><a xlink:href="user__main_8h.html#a33113d6dedb440bd7dfa5576e325140c" target="_top" xlink:title="user_init">
<polygon fill="#ffffff" stroke="#000000" points="733,-0.5 733,-19.5 787,-19.5 787,-0.5 733,-0.5"/>
<text text-anchor="middle" x="760" y="-7.5" font-family="Helvetica,sans-Serif" font-size="10.00" fill="#000000">user_init</text>
</a>
</g>
</g>
<!-- Node6&#45;&gt;Node7 -->
<g id="edge6" class="edge">
<title>Node6&#45;&gt;Node7</title>
<path fill="none" stroke="#191970" d="M707.289,-10C716.16,-10 724.952,-10 732.738,-10"/>
<polygon fill="#191970" stroke="#191970" points="707.288,-6.5001 697.288,-10 707.288,-13.5001 707.288,-6.5001"/>
</g>
</g>
</svg>
