<?xml version="1.0" encoding="UTF-8" standalone="no"?>
<!DOCTYPE svg PUBLIC "-//W3C//DTD SVG 1.1//EN"
 "http://www.w3.org/Graphics/SVG/1.1/DTD/svg11.dtd">
<!-- Generated by graphviz version 2.41.20170323.1842 (20170323.1842)
 -->
<!-- Title: httpdUrlDecode Pages: 1 -->
<svg width="326pt" height="104pt"
 viewBox="0.00 0.00 326.00 104.00" xmlns="http://www.w3.org/2000/svg" xmlns:xlink="http://www.w3.org/1999/xlink">
<g id="graph0" class="graph" transform="scale(1 1) rotate(0) translate(4 100)">
<title>httpdUrlDecode</title>
<polygon fill="#ffffff" stroke="transparent" points="-4,4 -4,-100 322,-100 322,4 -4,4"/>
<!-- Node156 -->
<g id="node1" class="node">
<title>Node156</title>
<polygon fill="#bfbfbf" stroke="#000000" points="0,-38.5 0,-57.5 86,-57.5 86,-38.5 0,-38.5"/>
<text text-anchor="middle" x="43" y="-45.5" font-family="Helvetica,sans-Serif" font-size="10.00" fill="#000000">httpdUrlDecode</text>
</g>
<!-- Node157 -->
<g id="node2" class="node">
<title>Node157</title>
<g id="a_node2"><a xlink:href="httpd_8h.html#a5024249acf005b3e40a1257a2267532b" target="_top" xlink:title="httpdFindArg">
<polygon fill="#ffffff" stroke="#000000" points="122,-38.5 122,-57.5 196,-57.5 196,-38.5 122,-38.5"/>
<text text-anchor="middle" x="159" y="-45.5" font-family="Helvetica,sans-Serif" font-size="10.00" fill="#000000">httpdFindArg</text>
</a>
</g>
</g>
<!-- Node156&#45;&gt;Node157 -->
<g id="edge1" class="edge">
<title>Node156&#45;&gt;Node157</title>
<path fill="none" stroke="#191970" d="M96.2444,-48C104.9012,-48 113.7003,-48 121.8632,-48"/>
<polygon fill="#191970" stroke="#191970" points="96.1942,-44.5001 86.1941,-48 96.1941,-51.5001 96.1942,-44.5001"/>
</g>
<!-- Node158 -->
<g id="node3" class="node">
<title>Node158</title>
<g id="a_node3"><a xlink:href="cgi_8h.html#a11febcd4d2ccd5bcab0a9332e78274fd" target="_top" xlink:title="cgiLed">
<polygon fill="#ffffff" stroke="#000000" points="252,-76.5 252,-95.5 298,-95.5 298,-76.5 252,-76.5"/>
<text text-anchor="middle" x="275" y="-83.5" font-family="Helvetica,sans-Serif" font-size="10.00" fill="#000000">cgiLed</text>
</a>
</g>
</g>
<!-- Node157&#45;&gt;Node158 -->
<g id="edge2" class="edge">
<title>Node157&#45;&gt;Node158</title>
<path fill="none" stroke="#191970" d="M197.9052,-60.7448C215.845,-66.6216 236.5281,-73.3971 251.9521,-78.4498"/>
<polygon fill="#191970" stroke="#191970" points="198.8644,-57.3761 188.2717,-57.589 196.6852,-64.0282 198.8644,-57.3761"/>
</g>
<!-- Node159 -->
<g id="node4" class="node">
<title>Node159</title>
<g id="a_node4"><a xlink:href="cgiwifi_8h.html#a7c655a56f56ecebad923c5c4daeb7f1a" target="_top" xlink:title="cgiSetup">
<polygon fill="#ffffff" stroke="#000000" points="247.5,-38.5 247.5,-57.5 302.5,-57.5 302.5,-38.5 247.5,-38.5"/>
<text text-anchor="middle" x="275" y="-45.5" font-family="Helvetica,sans-Serif" font-size="10.00" fill="#000000">cgiSetup</text>
</a>
</g>
</g>
<!-- Node157&#45;&gt;Node159 -->
<g id="edge3" class="edge">
<title>Node157&#45;&gt;Node159</title>
<path fill="none" stroke="#191970" d="M206.3955,-48C220.2453,-48 234.9302,-48 247.1448,-48"/>
<polygon fill="#191970" stroke="#191970" points="206.0221,-44.5001 196.0221,-48 206.022,-51.5001 206.0221,-44.5001"/>
</g>
<!-- Node160 -->
<g id="node5" class="node">
<title>Node160</title>
<g id="a_node5"><a xlink:href="cgiwifi_8h.html#a4ba43d83032eea6839857ed163af5fc9" target="_top" xlink:title="cgiWifiSetMode">
<polygon fill="#ffffff" stroke="#000000" points="232,-.5 232,-19.5 318,-19.5 318,-.5 232,-.5"/>
<text text-anchor="middle" x="275" y="-7.5" font-family="Helvetica,sans-Serif" font-size="10.00" fill="#000000">cgiWifiSetMode</text>
</a>
</g>
</g>
<!-- Node157&#45;&gt;Node160 -->
<g id="edge4" class="edge">
<title>Node157&#45;&gt;Node160</title>
<path fill="none" stroke="#191970" d="M198.1528,-35.1741C213.7176,-30.0753 231.3141,-24.3109 245.7377,-19.5859"/>
<polygon fill="#191970" stroke="#191970" points="196.6852,-31.9718 188.2717,-38.411 198.8644,-38.6239 196.6852,-31.9718"/>
</g>
</g>
</svg>
