<?xml version="1.0" encoding="UTF-8" standalone="no"?>
<!DOCTYPE svg PUBLIC "-//W3C//DTD SVG 1.1//EN"
 "http://www.w3.org/Graphics/SVG/1.1/DTD/svg11.dtd">
<!-- Generated by graphviz version 2.41.20170323.1842 (20170323.1842)
 -->
<!-- Title: httpdStartResponse Pages: 1 -->
<svg width="248pt" height="142pt"
 viewBox="0.00 0.00 248.00 142.00" xmlns="http://www.w3.org/2000/svg" xmlns:xlink="http://www.w3.org/1999/xlink">
<g id="graph0" class="graph" transform="scale(1 1) rotate(0) translate(4 138)">
<title>httpdStartResponse</title>
<polygon fill="#ffffff" stroke="transparent" points="-4,4 -4,-138 244,-138 244,4 -4,4"/>
<!-- Node230 -->
<g id="node1" class="node">
<title>Node230</title>
<polygon fill="#bfbfbf" stroke="#000000" points="0,-57.5 0,-76.5 105,-76.5 105,-57.5 0,-57.5"/>
<text text-anchor="middle" x="52.5" y="-64.5" font-family="Helvetica,sans-Serif" font-size="10.00" fill="#000000">httpdStartResponse</text>
</g>
<!-- Node231 -->
<g id="node2" class="node">
<title>Node231</title>
<g id="a_node2"><a xlink:href="auth_8h.html#ac81ed03345875f282828a190baba0987" target="_top" xlink:title="authBasic">
<polygon fill="#ffffff" stroke="#000000" points="160.5,-114.5 160.5,-133.5 220.5,-133.5 220.5,-114.5 160.5,-114.5"/>
<text text-anchor="middle" x="190.5" y="-121.5" font-family="Helvetica,sans-Serif" font-size="10.00" fill="#000000">authBasic</text>
</a>
</g>
</g>
<!-- Node230&#45;&gt;Node231 -->
<g id="edge1" class="edge">
<title>Node230&#45;&gt;Node231</title>
<path fill="none" stroke="#191970" d="M83.6181,-80.7138C100.5246,-88.0753 121.8353,-97.2109 141,-105 148.7602,-108.1539 157.2581,-111.4664 164.9887,-114.4262"/>
<polygon fill="#191970" stroke="#191970" points="84.7871,-77.4051 74.2223,-76.608 81.9842,-83.8194 84.7871,-77.4051"/>
</g>
<!-- Node232 -->
<g id="node3" class="node">
<title>Node232</title>
<g id="a_node3"><a xlink:href="httpdespfs_8h.html#aa502116e50052d973b6eef02a6282dd3" target="_top" xlink:title="cgiEspFsHook">
<polygon fill="#ffffff" stroke="#000000" points="150,-76.5 150,-95.5 231,-95.5 231,-76.5 150,-76.5"/>
<text text-anchor="middle" x="190.5" y="-83.5" font-family="Helvetica,sans-Serif" font-size="10.00" fill="#000000">cgiEspFsHook</text>
</a>
</g>
</g>
<!-- Node230&#45;&gt;Node232 -->
<g id="edge2" class="edge">
<title>Node230&#45;&gt;Node232</title>
<path fill="none" stroke="#191970" d="M115.2395,-75.6381C126.9264,-77.2471 138.8547,-78.8894 149.6687,-80.3783"/>
<polygon fill="#191970" stroke="#191970" points="115.4495,-72.134 105.0656,-74.2373 114.4947,-79.0686 115.4495,-72.134"/>
</g>
<!-- Node233 -->
<g id="node4" class="node">
<title>Node233</title>
<g id="a_node4"><a xlink:href="httpdespfs_8h.html#abc9eb26f247094e9fc41db897f6ec030" target="_top" xlink:title="cgiEspFsTemplate">
<polygon fill="#ffffff" stroke="#000000" points="141,-38.5 141,-57.5 240,-57.5 240,-38.5 141,-38.5"/>
<text text-anchor="middle" x="190.5" y="-45.5" font-family="Helvetica,sans-Serif" font-size="10.00" fill="#000000">cgiEspFsTemplate</text>
</a>
</g>
</g>
<!-- Node230&#45;&gt;Node233 -->
<g id="edge3" class="edge">
<title>Node230&#45;&gt;Node233</title>
<path fill="none" stroke="#191970" d="M115.0899,-58.3826C123.7095,-57.1958 132.4638,-55.9905 140.8083,-54.8416"/>
<polygon fill="#191970" stroke="#191970" points="114.4947,-54.9314 105.0656,-59.7627 115.4495,-61.866 114.4947,-54.9314"/>
</g>
<!-- Node234 -->
<g id="node5" class="node">
<title>Node234</title>
<g id="a_node5"><a xlink:href="cgiwifi_8h.html#aa1b2a25d59b9eecb6f57b7d698686064" target="_top" xlink:title="cgiWiFiScan">
<polygon fill="#ffffff" stroke="#000000" points="154.5,-.5 154.5,-19.5 226.5,-19.5 226.5,-.5 154.5,-.5"/>
<text text-anchor="middle" x="190.5" y="-7.5" font-family="Helvetica,sans-Serif" font-size="10.00" fill="#000000">cgiWiFiScan</text>
</a>
</g>
</g>
<!-- Node230&#45;&gt;Node234 -->
<g id="edge4" class="edge">
<title>Node230&#45;&gt;Node234</title>
<path fill="none" stroke="#191970" d="M83.6181,-53.2862C100.5246,-45.9247 121.8353,-36.7891 141,-29 148.7602,-25.8461 157.2581,-22.5336 164.9887,-19.5738"/>
<polygon fill="#191970" stroke="#191970" points="81.9842,-50.1806 74.2223,-57.392 84.7871,-56.5949 81.9842,-50.1806"/>
</g>
</g>
</svg>
