<?xml version="1.0" encoding="UTF-8" standalone="no"?>
<!DOCTYPE svg PUBLIC "-//W3C//DTD SVG 1.1//EN"
 "http://www.w3.org/Graphics/SVG/1.1/DTD/svg11.dtd">
<!-- Generated by graphviz version 2.40.1 (20161225.0304)
 -->
<!-- Title: user/httpdespfs.h Pages: 1 -->
<svg width="232pt" height="84pt"
 viewBox="0.00 0.00 231.50 84.00" xmlns="http://www.w3.org/2000/svg" xmlns:xlink="http://www.w3.org/1999/xlink">
<g id="graph0" class="graph" transform="scale(1 1) rotate(0) translate(4 80)">
<title>user/httpdespfs.h</title>
<polygon fill="#ffffff" stroke="transparent" points="-4,4 -4,-80 227.5,-80 227.5,4 -4,4"/>
<!-- Node42 -->
<g id="node1" class="node">
<title>Node42</title>
<polygon fill="#bfbfbf" stroke="#000000" points="69.5,-56.5 69.5,-75.5 162.5,-75.5 162.5,-56.5 69.5,-56.5"/>
<text text-anchor="middle" x="116" y="-63.5" font-family="Helvetica,sans-Serif" font-size="10.00" fill="#000000">user/httpdespfs.h</text>
</g>
<!-- Node43 -->
<g id="node2" class="node">
<title>Node43</title>
<g id="a_node2"><a xlink:href="httpd__user__init_8c.html" target="_top" xlink:title="user/httpd_user_init.c">
<polygon fill="#ffffff" stroke="#000000" points="0,-.5 0,-19.5 112,-19.5 112,-.5 0,-.5"/>
<text text-anchor="middle" x="56" y="-7.5" font-family="Helvetica,sans-Serif" font-size="10.00" fill="#000000">user/httpd_user_init.c</text>
</a>
</g>
</g>
<!-- Node42&#45;&gt;Node43 -->
<g id="edge1" class="edge">
<title>Node42&#45;&gt;Node43</title>
<path fill="none" stroke="#191970" d="M98.1722,-49.3607C87.7922,-39.6727 75.0709,-27.7995 66.3314,-19.6427"/>
<polygon fill="#191970" stroke="#191970" points="95.8501,-51.981 105.5488,-56.2455 100.6263,-46.8636 95.8501,-51.981"/>
</g>
<!-- Node44 -->
<g id="node3" class="node">
<title>Node44</title>
<g id="a_node3"><a xlink:href="httpdespfs_8c.html" target="_top" xlink:title="user/httpdespfs.c">
<polygon fill="#ffffff" stroke="#000000" points="130.5,-.5 130.5,-19.5 223.5,-19.5 223.5,-.5 130.5,-.5"/>
<text text-anchor="middle" x="177" y="-7.5" font-family="Helvetica,sans-Serif" font-size="10.00" fill="#000000">user/httpdespfs.c</text>
</a>
</g>
</g>
<!-- Node42&#45;&gt;Node44 -->
<g id="edge2" class="edge">
<title>Node42&#45;&gt;Node44</title>
<path fill="none" stroke="#191970" d="M134.1249,-49.3607C144.678,-39.6727 157.6112,-27.7995 166.4964,-19.6427"/>
<polygon fill="#191970" stroke="#191970" points="131.625,-46.9045 126.6254,-56.2455 136.3589,-52.0611 131.625,-46.9045"/>
</g>
</g>
</svg>
