<?xml version="1.0" encoding="UTF-8" standalone="no"?>
<!DOCTYPE svg PUBLIC "-//W3C//DTD SVG 1.1//EN"
 "http://www.w3.org/Graphics/SVG/1.1/DTD/svg11.dtd">
<!-- Generated by graphviz version 2.41.20170323.1842 (20170323.1842)
 -->
<!-- Title: httpdRecvCb Pages: 1 -->
<svg width="319pt" height="142pt"
 viewBox="0.00 0.00 319.00 142.00" xmlns="http://www.w3.org/2000/svg" xmlns:xlink="http://www.w3.org/1999/xlink">
<g id="graph0" class="graph" transform="scale(1 1) rotate(0) translate(4 138)">
<title>httpdRecvCb</title>
<polygon fill="#ffffff" stroke="transparent" points="-4,4 -4,-138 315,-138 315,4 -4,4"/>
<!-- Node152 -->
<g id="node1" class="node">
<title>Node152</title>
<polygon fill="#bfbfbf" stroke="#000000" points="0,-57.5 0,-76.5 74,-76.5 74,-57.5 0,-57.5"/>
<text text-anchor="middle" x="37" y="-64.5" font-family="Helvetica,sans-Serif" font-size="10.00" fill="#000000">httpdRecvCb</text>
</g>
<!-- Node153 -->
<g id="node2" class="node">
<title>Node153</title>
<g id="a_node2"><a xlink:href="httpd_8c.html#afd1e497b9cd5f6934acaf57679bc21f8" target="_top" xlink:title="httpdFindConnData">
<polygon fill="#ffffff" stroke="#000000" points="110,-114.5 110,-133.5 213,-133.5 213,-114.5 110,-114.5"/>
<text text-anchor="middle" x="161.5" y="-121.5" font-family="Helvetica,sans-Serif" font-size="10.00" fill="#000000">httpdFindConnData</text>
</a>
</g>
</g>
<!-- Node152&#45;&gt;Node153 -->
<g id="edge1" class="edge">
<title>Node152&#45;&gt;Node153</title>
<path fill="none" stroke="#191970" d="M53.8113,-76.527C68.4185,-84.6161 90.2714,-96.2678 110,-105 114.5016,-106.9925 119.2834,-108.9545 124.0491,-110.8172"/>
<polygon fill="#191970" stroke="#191970" points="123.1221,-114.2087 133.7135,-114.479 125.6024,-107.6628 123.1221,-114.2087"/>
</g>
<!-- Node154 -->
<g id="node3" class="node">
<title>Node154</title>
<g id="a_node3"><a xlink:href="httpd_8c.html#afbbd7e804f055b233604a4a6e6fe5cee" target="_top" xlink:title="httpdParseHeader">
<polygon fill="#ffffff" stroke="#000000" points="112.5,-76.5 112.5,-95.5 210.5,-95.5 210.5,-76.5 112.5,-76.5"/>
<text text-anchor="middle" x="161.5" y="-83.5" font-family="Helvetica,sans-Serif" font-size="10.00" fill="#000000">httpdParseHeader</text>
</a>
</g>
</g>
<!-- Node152&#45;&gt;Node154 -->
<g id="edge2" class="edge">
<title>Node152&#45;&gt;Node154</title>
<path fill="none" stroke="#191970" d="M74.017,-72.6492C82.9544,-74.0131 92.7271,-75.5045 102.3982,-76.9804"/>
<polygon fill="#191970" stroke="#191970" points="101.9868,-80.4581 112.4004,-78.5069 103.0429,-73.5382 101.9868,-80.4581"/>
</g>
<!-- Node156 -->
<g id="node5" class="node">
<title>Node156</title>
<g id="a_node5"><a xlink:href="httpd_8c.html#a5aa7652c21a5a543311463ab0566ccc9" target="_top" xlink:title="httpdSendResp">
<polygon fill="#ffffff" stroke="#000000" points="119,-38.5 119,-57.5 204,-57.5 204,-38.5 119,-38.5"/>
<text text-anchor="middle" x="161.5" y="-45.5" font-family="Helvetica,sans-Serif" font-size="10.00" fill="#000000">httpdSendResp</text>
</a>
</g>
</g>
<!-- Node152&#45;&gt;Node156 -->
<g id="edge4" class="edge">
<title>Node152&#45;&gt;Node156</title>
<path fill="none" stroke="#191970" d="M74.017,-61.3508C84.883,-59.6926 96.9837,-57.8459 108.6353,-56.0677"/>
<polygon fill="#191970" stroke="#191970" points="109.3593,-59.4978 118.7168,-54.5292 108.3032,-52.5779 109.3593,-59.4978"/>
</g>
<!-- Node158 -->
<g id="node7" class="node">
<title>Node158</title>
<g id="a_node7"><a xlink:href="httpd_8c.html#a4638d3f885add9276ca7eaeca3ec67a9" target="_top" xlink:title="xmitSendBuff">
<polygon fill="#ffffff" stroke="#000000" points="123.5,-.5 123.5,-19.5 199.5,-19.5 199.5,-.5 123.5,-.5"/>
<text text-anchor="middle" x="161.5" y="-7.5" font-family="Helvetica,sans-Serif" font-size="10.00" fill="#000000">xmitSendBuff</text>
</a>
</g>
</g>
<!-- Node152&#45;&gt;Node158 -->
<g id="edge6" class="edge">
<title>Node152&#45;&gt;Node158</title>
<path fill="none" stroke="#191970" d="M53.8113,-57.473C68.4185,-49.3839 90.2714,-37.7322 110,-29 114.5016,-27.0075 119.2834,-25.0455 124.0491,-23.1828"/>
<polygon fill="#191970" stroke="#191970" points="125.6024,-26.3372 133.7135,-19.521 123.1221,-19.7913 125.6024,-26.3372"/>
</g>
<!-- Node155 -->
<g id="node4" class="node">
<title>Node155</title>
<g id="a_node4"><a xlink:href="espmissingincludes_8h.html#ad228deceea1bac4d9f171f647c265059" target="_top" xlink:title="atoi">
<polygon fill="#ffffff" stroke="#000000" points="263.5,-76.5 263.5,-95.5 296.5,-95.5 296.5,-76.5 263.5,-76.5"/>
<text text-anchor="middle" x="280" y="-83.5" font-family="Helvetica,sans-Serif" font-size="10.00" fill="#000000">atoi</text>
</a>
</g>
</g>
<!-- Node154&#45;&gt;Node155 -->
<g id="edge3" class="edge">
<title>Node154&#45;&gt;Node155</title>
<path fill="none" stroke="#191970" d="M210.7252,-86C225.2832,-86 240.6728,-86 253.2396,-86"/>
<polygon fill="#191970" stroke="#191970" points="253.4647,-89.5001 263.4646,-86 253.4646,-82.5001 253.4647,-89.5001"/>
</g>
<!-- Node157 -->
<g id="node6" class="node">
<title>Node157</title>
<g id="a_node6"><a xlink:href="httpd_8c.html#a1a143f6c427d66e2561895cf193fc535" target="_top" xlink:title="httpdSend">
<polygon fill="#ffffff" stroke="#000000" points="249,-38.5 249,-57.5 311,-57.5 311,-38.5 249,-38.5"/>
<text text-anchor="middle" x="280" y="-45.5" font-family="Helvetica,sans-Serif" font-size="10.00" fill="#000000">httpdSend</text>
</a>
</g>
</g>
<!-- Node156&#45;&gt;Node157 -->
<g id="edge5" class="edge">
<title>Node156&#45;&gt;Node157</title>
<path fill="none" stroke="#191970" d="M204.2812,-48C215.4343,-48 227.433,-48 238.5176,-48"/>
<polygon fill="#191970" stroke="#191970" points="238.8075,-51.5001 248.8074,-48 238.8074,-44.5001 238.8075,-51.5001"/>
</g>
</g>
</svg>
