<?xml version="1.0" encoding="UTF-8" standalone="no"?>
<!DOCTYPE svg PUBLIC "-//W3C//DTD SVG 1.1//EN"
 "http://www.w3.org/Graphics/SVG/1.1/DTD/svg11.dtd">
<!-- Generated by graphviz version 2.40.1 (20161225.0304)
 -->
<!-- Title: httpdHeader Pages: 1 -->
<svg width="215pt" height="180pt"
 viewBox="0.00 0.00 215.00 180.00" xmlns="http://www.w3.org/2000/svg" xmlns:xlink="http://www.w3.org/1999/xlink">
<g id="graph0" class="graph" transform="scale(1 1) rotate(0) translate(4 176)">
<title>httpdHeader</title>
<polygon fill="#ffffff" stroke="transparent" points="-4,4 -4,-176 211,-176 211,4 -4,4"/>
<!-- Node98 -->
<g id="node1" class="node">
<title>Node98</title>
<polygon fill="#bfbfbf" stroke="#000000" points="0,-76.5 0,-95.5 72,-95.5 72,-76.5 0,-76.5"/>
<text text-anchor="middle" x="36" y="-83.5" font-family="Helvetica,sans-Serif" font-size="10.00" fill="#000000">httpdHeader</text>
</g>
<!-- Node99 -->
<g id="node2" class="node">
<title>Node99</title>
<g id="a_node2"><a xlink:href="auth_8h.html#ac81ed03345875f282828a190baba0987" target="_top" xlink:title="authBasic">
<polygon fill="#ffffff" stroke="#000000" points="127.5,-152.5 127.5,-171.5 187.5,-171.5 187.5,-152.5 127.5,-152.5"/>
<text text-anchor="middle" x="157.5" y="-159.5" font-family="Helvetica,sans-Serif" font-size="10.00" fill="#000000">authBasic</text>
</a>
</g>
</g>
<!-- Node98&#45;&gt;Node99 -->
<g id="edge1" class="edge">
<title>Node98&#45;&gt;Node99</title>
<path fill="none" stroke="#191970" d="M53.805,-102.6318C67.7402,-114.9955 88.0418,-131.6238 108,-143 114.3178,-146.6011 121.4502,-149.789 128.2928,-152.4759"/>
<polygon fill="#191970" stroke="#191970" points="55.7716,-99.6907 46.011,-95.5698 51.0714,-104.878 55.7716,-99.6907"/>
</g>
<!-- Node100 -->
<g id="node3" class="node">
<title>Node100</title>
<g id="a_node3"><a xlink:href="httpdespfs_8h.html#aa502116e50052d973b6eef02a6282dd3" target="_top" xlink:title="cgiEspFsHook">
<polygon fill="#ffffff" stroke="#000000" points="117,-114.5 117,-133.5 198,-133.5 198,-114.5 117,-114.5"/>
<text text-anchor="middle" x="157.5" y="-121.5" font-family="Helvetica,sans-Serif" font-size="10.00" fill="#000000">cgiEspFsHook</text>
</a>
</g>
</g>
<!-- Node98&#45;&gt;Node100 -->
<g id="edge2" class="edge">
<title>Node98&#45;&gt;Node100</title>
<path fill="none" stroke="#191970" d="M76.544,-98.6804C92.9606,-103.8148 111.5989,-109.6441 126.8502,-114.4141"/>
<polygon fill="#191970" stroke="#191970" points="77.2485,-95.2336 66.6596,-95.589 75.1589,-101.9145 77.2485,-95.2336"/>
</g>
<!-- Node101 -->
<g id="node4" class="node">
<title>Node101</title>
<g id="a_node4"><a xlink:href="httpdespfs_8h.html#abc9eb26f247094e9fc41db897f6ec030" target="_top" xlink:title="cgiEspFsTemplate">
<polygon fill="#ffffff" stroke="#000000" points="108,-76.5 108,-95.5 207,-95.5 207,-76.5 108,-76.5"/>
<text text-anchor="middle" x="157.5" y="-83.5" font-family="Helvetica,sans-Serif" font-size="10.00" fill="#000000">cgiEspFsTemplate</text>
</a>
</g>
</g>
<!-- Node98&#45;&gt;Node101 -->
<g id="edge3" class="edge">
<title>Node98&#45;&gt;Node101</title>
<path fill="none" stroke="#191970" d="M82.3974,-86C90.7076,-86 99.3978,-86 107.7965,-86"/>
<polygon fill="#191970" stroke="#191970" points="82.1251,-82.5001 72.125,-86 82.125,-89.5001 82.1251,-82.5001"/>
</g>
<!-- Node102 -->
<g id="node5" class="node">
<title>Node102</title>
<g id="a_node5"><a xlink:href="cgi_8h.html#a9e2e6fb536baf86996622cc52b446f66" target="_top" xlink:title="cgiReadFlash">
<polygon fill="#ffffff" stroke="#000000" points="118.5,-38.5 118.5,-57.5 196.5,-57.5 196.5,-38.5 118.5,-38.5"/>
<text text-anchor="middle" x="157.5" y="-45.5" font-family="Helvetica,sans-Serif" font-size="10.00" fill="#000000">cgiReadFlash</text>
</a>
</g>
</g>
<!-- Node98&#45;&gt;Node102 -->
<g id="edge4" class="edge">
<title>Node98&#45;&gt;Node102</title>
<path fill="none" stroke="#191970" d="M76.544,-73.3196C92.9606,-68.1852 111.5989,-62.3559 126.8502,-57.5859"/>
<polygon fill="#191970" stroke="#191970" points="75.1589,-70.0855 66.6596,-76.411 77.2485,-76.7664 75.1589,-70.0855"/>
</g>
<!-- Node103 -->
<g id="node6" class="node">
<title>Node103</title>
<g id="a_node6"><a xlink:href="cgiwifi_8h.html#aa1b2a25d59b9eecb6f57b7d698686064" target="_top" xlink:title="cgiWiFiScan">
<polygon fill="#ffffff" stroke="#000000" points="121.5,-.5 121.5,-19.5 193.5,-19.5 193.5,-.5 121.5,-.5"/>
<text text-anchor="middle" x="157.5" y="-7.5" font-family="Helvetica,sans-Serif" font-size="10.00" fill="#000000">cgiWiFiScan</text>
</a>
</g>
</g>
<!-- Node98&#45;&gt;Node103 -->
<g id="edge5" class="edge">
<title>Node98&#45;&gt;Node103</title>
<path fill="none" stroke="#191970" d="M53.805,-69.3682C67.7402,-57.0045 88.0418,-40.3762 108,-29 114.3178,-25.3989 121.4502,-22.211 128.2928,-19.5241"/>
<polygon fill="#191970" stroke="#191970" points="51.0714,-67.122 46.011,-76.4302 55.7716,-72.3093 51.0714,-67.122"/>
</g>
</g>
</svg>
