<?xml version="1.0" encoding="UTF-8" standalone="no"?>
<!DOCTYPE svg PUBLIC "-//W3C//DTD SVG 1.1//EN"
 "http://www.w3.org/Graphics/SVG/1.1/DTD/svg11.dtd">
<!-- Generated by graphviz version 2.41.20170323.1842 (20170323.1842)
 -->
<!-- Title: user/httpd.h Pages: 1 -->
<svg width="700pt" height="140pt"
 viewBox="0.00 0.00 699.50 140.00" xmlns="http://www.w3.org/2000/svg" xmlns:xlink="http://www.w3.org/1999/xlink">
<g id="graph0" class="graph" transform="scale(1 1) rotate(0) translate(4 136)">
<title>user/httpd.h</title>
<polygon fill="#ffffff" stroke="transparent" points="-4,4 -4,-136 695.5,-136 695.5,4 -4,4"/>
<!-- Node27 -->
<g id="node1" class="node">
<title>Node27</title>
<polygon fill="#bfbfbf" stroke="#000000" points="238.5,-112.5 238.5,-131.5 307.5,-131.5 307.5,-112.5 238.5,-112.5"/>
<text text-anchor="middle" x="273" y="-119.5" font-family="Helvetica,sans-Serif" font-size="10.00" fill="#000000">user/httpd.h</text>
</g>
<!-- Node28 -->
<g id="node2" class="node">
<title>Node28</title>
<g id="a_node2"><a xlink:href="auth_8c.html" target="_top" xlink:title="user/auth.c">
<polygon fill="#ffffff" stroke="#000000" points="0,-.5 0,-19.5 66,-19.5 66,-.5 0,-.5"/>
<text text-anchor="middle" x="33" y="-7.5" font-family="Helvetica,sans-Serif" font-size="10.00" fill="#000000">user/auth.c</text>
</a>
</g>
</g>
<!-- Node27&#45;&gt;Node28 -->
<g id="edge1" class="edge">
<title>Node27&#45;&gt;Node28</title>
<path fill="none" stroke="#191970" d="M228.1384,-117.2751C190.7005,-111.7657 137.0304,-100.1207 96,-76 71.1467,-61.3894 49.7895,-34.1947 39.519,-19.6936"/>
<polygon fill="#191970" stroke="#191970" points="227.8584,-120.7695 238.2434,-118.6715 228.8167,-113.8354 227.8584,-120.7695"/>
</g>
<!-- Node29 -->
<g id="node3" class="node">
<title>Node29</title>
<g id="a_node3"><a xlink:href="cgi_8h.html" target="_top" xlink:title="user/cgi.h">
<polygon fill="#ffffff" stroke="#000000" points="115,-56.5 115,-75.5 175,-75.5 175,-56.5 115,-56.5"/>
<text text-anchor="middle" x="145" y="-63.5" font-family="Helvetica,sans-Serif" font-size="10.00" fill="#000000">user/cgi.h</text>
</a>
</g>
</g>
<!-- Node27&#45;&gt;Node29 -->
<g id="edge2" class="edge">
<title>Node27&#45;&gt;Node29</title>
<path fill="none" stroke="#191970" d="M241.5652,-108.2473C218.3191,-98.0771 187.2589,-84.4883 166.7169,-75.5011"/>
<polygon fill="#191970" stroke="#191970" points="240.4315,-111.5716 250.996,-112.3733 243.2373,-105.1585 240.4315,-111.5716"/>
</g>
<!-- Node30 -->
<g id="node4" class="node">
<title>Node30</title>
<g id="a_node4"><a xlink:href="cgi_8c.html" target="_top" xlink:title="user/cgi.c">
<polygon fill="#ffffff" stroke="#000000" points="84.5,-.5 84.5,-19.5 143.5,-19.5 143.5,-.5 84.5,-.5"/>
<text text-anchor="middle" x="114" y="-7.5" font-family="Helvetica,sans-Serif" font-size="10.00" fill="#000000">user/cgi.c</text>
</a>
</g>
</g>
<!-- Node27&#45;&gt;Node30 -->
<g id="edge7" class="edge">
<title>Node27&#45;&gt;Node30</title>
<path fill="none" stroke="#191970" d="M228.2471,-115.8327C183.9907,-108.7086 120.7935,-95.4192 106,-76 93.41,-59.4733 102.4798,-33.5578 108.9746,-19.6272"/>
<polygon fill="#191970" stroke="#191970" points="227.7929,-119.3041 238.2125,-117.3853 228.8705,-112.3876 227.7929,-119.3041"/>
</g>
<!-- Node31 -->
<g id="node5" class="node">
<title>Node31</title>
<g id="a_node5"><a xlink:href="cgiwifi_8c.html" target="_top" xlink:title="user/cgiwifi.c">
<polygon fill="#ffffff" stroke="#000000" points="162,-.5 162,-19.5 236,-19.5 236,-.5 162,-.5"/>
<text text-anchor="middle" x="199" y="-7.5" font-family="Helvetica,sans-Serif" font-size="10.00" fill="#000000">user/cgiwifi.c</text>
</a>
</g>
</g>
<!-- Node27&#45;&gt;Node31 -->
<g id="edge8" class="edge">
<title>Node27&#45;&gt;Node31</title>
<path fill="none" stroke="#191970" d="M261.0363,-103.8927C245.1376,-79.8299 217.6224,-38.1853 205.2932,-19.5249"/>
<polygon fill="#191970" stroke="#191970" points="258.258,-106.037 266.6908,-112.4509 264.0984,-102.1782 258.258,-106.037"/>
</g>
<!-- Node32 -->
<g id="node6" class="node">
<title>Node32</title>
<g id="a_node6"><a xlink:href="httpd__user__init_8c.html" target="_top" xlink:title="user/httpd_user_init.c">
<polygon fill="#ffffff" stroke="#000000" points="254,-.5 254,-19.5 366,-19.5 366,-.5 254,-.5"/>
<text text-anchor="middle" x="310" y="-7.5" font-family="Helvetica,sans-Serif" font-size="10.00" fill="#000000">user/httpd_user_init.c</text>
</a>
</g>
</g>
<!-- Node27&#45;&gt;Node32 -->
<g id="edge12" class="edge">
<title>Node27&#45;&gt;Node32</title>
<path fill="none" stroke="#191970" d="M263.3936,-102.9217C257.95,-89.3724 253.4183,-70.9985 260,-56 266.8253,-40.4464 281.7924,-27.8359 293.5823,-19.7788"/>
<polygon fill="#191970" stroke="#191970" points="260.2743,-104.5193 267.5651,-112.2065 266.6595,-101.6505 260.2743,-104.5193"/>
</g>
<!-- Node33 -->
<g id="node7" class="node">
<title>Node33</title>
<g id="a_node7"><a xlink:href="cgiwifi_8h.html" target="_top" xlink:title="user/cgiwifi.h">
<polygon fill="#ffffff" stroke="#000000" points="269,-56.5 269,-75.5 343,-75.5 343,-56.5 269,-56.5"/>
<text text-anchor="middle" x="306" y="-63.5" font-family="Helvetica,sans-Serif" font-size="10.00" fill="#000000">user/cgiwifi.h</text>
</a>
</g>
</g>
<!-- Node27&#45;&gt;Node33 -->
<g id="edge9" class="edge">
<title>Node27&#45;&gt;Node33</title>
<path fill="none" stroke="#191970" d="M283.8254,-103.6296C289.3299,-94.2887 295.7937,-83.3197 300.3177,-75.6427"/>
<polygon fill="#191970" stroke="#191970" points="280.8097,-101.8532 278.7482,-112.2455 286.8405,-105.4071 280.8097,-101.8532"/>
</g>
<!-- Node34 -->
<g id="node8" class="node">
<title>Node34</title>
<g id="a_node8"><a xlink:href="httpd_8c.html" target="_top" xlink:title="user/httpd.c">
<polygon fill="#ffffff" stroke="#000000" points="511.5,-56.5 511.5,-75.5 580.5,-75.5 580.5,-56.5 511.5,-56.5"/>
<text text-anchor="middle" x="546" y="-63.5" font-family="Helvetica,sans-Serif" font-size="10.00" fill="#000000">user/httpd.c</text>
</a>
</g>
</g>
<!-- Node27&#45;&gt;Node34 -->
<g id="edge11" class="edge">
<title>Node27&#45;&gt;Node34</title>
<path fill="none" stroke="#191970" d="M317.5788,-112.8556C371.7476,-101.7441 461.9936,-83.2321 511.275,-73.1231"/>
<polygon fill="#191970" stroke="#191970" points="316.6683,-109.4694 307.5756,-114.9076 318.075,-116.3267 316.6683,-109.4694"/>
</g>
<!-- Node35 -->
<g id="node9" class="node">
<title>Node35</title>
<g id="a_node9"><a xlink:href="httpdespfs_8h.html" target="_top" xlink:title="user/httpdespfs.h">
<polygon fill="#ffffff" stroke="#000000" points="361.5,-56.5 361.5,-75.5 454.5,-75.5 454.5,-56.5 361.5,-56.5"/>
<text text-anchor="middle" x="408" y="-63.5" font-family="Helvetica,sans-Serif" font-size="10.00" fill="#000000">user/httpdespfs.h</text>
</a>
</g>
</g>
<!-- Node27&#45;&gt;Node35 -->
<g id="edge13" class="edge">
<title>Node27&#45;&gt;Node35</title>
<path fill="none" stroke="#191970" d="M305.4991,-108.5189C330.0854,-98.3201 363.2366,-84.5685 385.0955,-75.5011"/>
<polygon fill="#191970" stroke="#191970" points="304.1031,-105.3087 296.2073,-112.3733 306.7852,-111.7745 304.1031,-105.3087"/>
</g>
<!-- Node36 -->
<g id="node10" class="node">
<title>Node36</title>
<g id="a_node10"><a xlink:href="httpdespfs_8c.html" target="_top" xlink:title="user/httpdespfs.c">
<polygon fill="#ffffff" stroke="#000000" points="408.5,-.5 408.5,-19.5 501.5,-19.5 501.5,-.5 408.5,-.5"/>
<text text-anchor="middle" x="455" y="-7.5" font-family="Helvetica,sans-Serif" font-size="10.00" fill="#000000">user/httpdespfs.c</text>
</a>
</g>
</g>
<!-- Node27&#45;&gt;Node36 -->
<g id="edge16" class="edge">
<title>Node27&#45;&gt;Node36</title>
<path fill="none" stroke="#191970" d="M317.7052,-117.5532C368.3322,-111.4858 446.1299,-98.6849 464,-76 476.8811,-59.6483 467.1987,-33.6618 460.3145,-19.6734"/>
<polygon fill="#191970" stroke="#191970" points="317.1899,-114.0893 307.6569,-118.7124 317.9922,-121.0432 317.1899,-114.0893"/>
</g>
<!-- Node37 -->
<g id="node11" class="node">
<title>Node37</title>
<g id="a_node11"><a xlink:href="user__main_8c.html" target="_top" xlink:title="user/user_main.c">
<polygon fill="#ffffff" stroke="#000000" points="598.5,-56.5 598.5,-75.5 691.5,-75.5 691.5,-56.5 598.5,-56.5"/>
<text text-anchor="middle" x="645" y="-63.5" font-family="Helvetica,sans-Serif" font-size="10.00" fill="#000000">user/user_main.c</text>
</a>
</g>
</g>
<!-- Node27&#45;&gt;Node37 -->
<g id="edge17" class="edge">
<title>Node27&#45;&gt;Node37</title>
<path fill="none" stroke="#191970" d="M317.9086,-115.9982C379.4081,-107.6616 493.2405,-91.8115 590,-76 592.6819,-75.5618 595.435,-75.0997 598.2118,-74.6244"/>
<polygon fill="#191970" stroke="#191970" points="317.215,-112.56 307.774,-117.3681 318.1527,-119.4969 317.215,-112.56"/>
</g>
<!-- Node29&#45;&gt;Node28 -->
<g id="edge3" class="edge">
<title>Node29&#45;&gt;Node28</title>
<path fill="none" stroke="#191970" d="M116.6737,-51.8368C96.4279,-41.7139 69.7358,-28.3679 52.0022,-19.5011"/>
<polygon fill="#191970" stroke="#191970" points="115.237,-55.0316 125.7465,-56.3733 118.3675,-48.7706 115.237,-55.0316"/>
</g>
<!-- Node29&#45;&gt;Node30 -->
<g id="edge4" class="edge">
<title>Node29&#45;&gt;Node30</title>
<path fill="none" stroke="#191970" d="M134.6688,-47.3372C129.5335,-38.0605 123.5434,-27.2398 119.3379,-19.6427"/>
<polygon fill="#191970" stroke="#191970" points="131.6949,-49.1917 139.6002,-56.2455 137.8191,-45.8015 131.6949,-49.1917"/>
</g>
<!-- Node29&#45;&gt;Node31 -->
<g id="edge5" class="edge">
<title>Node29&#45;&gt;Node31</title>
<path fill="none" stroke="#191970" d="M161.5969,-48.7884C170.8347,-39.2085 181.9904,-27.6396 189.7017,-19.6427"/>
<polygon fill="#191970" stroke="#191970" points="158.828,-46.6176 154.4061,-56.2455 163.8669,-51.4766 158.828,-46.6176"/>
</g>
<!-- Node29&#45;&gt;Node32 -->
<g id="edge6" class="edge">
<title>Node29&#45;&gt;Node32</title>
<path fill="none" stroke="#191970" d="M183.1356,-53.057C213.3325,-42.8084 254.8163,-28.729 282.0056,-19.5011"/>
<polygon fill="#191970" stroke="#191970" points="181.7091,-49.845 173.3645,-56.3733 183.9589,-56.4736 181.7091,-49.845"/>
</g>
<!-- Node33&#45;&gt;Node32 -->
<g id="edge10" class="edge">
<title>Node33&#45;&gt;Node32</title>
<path fill="none" stroke="#191970" d="M307.4173,-46.1575C308.0604,-37.155 308.7914,-26.9199 309.3112,-19.6427"/>
<polygon fill="#191970" stroke="#191970" points="303.9182,-46.0216 306.6967,-56.2455 310.9004,-46.5204 303.9182,-46.0216"/>
</g>
<!-- Node35&#45;&gt;Node32 -->
<g id="edge14" class="edge">
<title>Node35&#45;&gt;Node32</title>
<path fill="none" stroke="#191970" d="M381.8314,-51.0465C364.3942,-41.0824 341.9889,-28.2794 326.8747,-19.6427"/>
<polygon fill="#191970" stroke="#191970" points="380.5108,-54.323 390.9297,-56.2455 383.9838,-48.2453 380.5108,-54.323"/>
</g>
<!-- Node35&#45;&gt;Node36 -->
<g id="edge15" class="edge">
<title>Node35&#45;&gt;Node36</title>
<path fill="none" stroke="#191970" d="M422.6872,-48.5004C430.6796,-38.9775 440.2625,-27.5596 446.907,-19.6427"/>
<polygon fill="#191970" stroke="#191970" points="419.9346,-46.3357 416.1868,-56.2455 425.2964,-50.8358 419.9346,-46.3357"/>
</g>
</g>
</svg>
