<?xml version="1.0" encoding="UTF-8" standalone="no"?>
<!DOCTYPE svg PUBLIC "-//W3C//DTD SVG 1.1//EN"
 "http://www.w3.org/Graphics/SVG/1.1/DTD/svg11.dtd">
<!-- Generated by graphviz version 2.41.20170323.1842 (20170323.1842)
 -->
<!-- Title: httpdStop Pages: 1 -->
<svg width="239pt" height="142pt"
 viewBox="0.00 0.00 239.00 142.00" xmlns="http://www.w3.org/2000/svg" xmlns:xlink="http://www.w3.org/1999/xlink">
<g id="graph0" class="graph" transform="scale(1 1) rotate(0) translate(4 138)">
<title>httpdStop</title>
<polygon fill="#ffffff" stroke="transparent" points="-4,4 -4,-138 235,-138 235,4 -4,4"/>
<!-- Node235 -->
<g id="node1" class="node">
<title>Node235</title>
<polygon fill="#bfbfbf" stroke="#000000" points="0,-38.5 0,-57.5 59,-57.5 59,-38.5 0,-38.5"/>
<text text-anchor="middle" x="29.5" y="-45.5" font-family="Helvetica,sans-Serif" font-size="10.00" fill="#000000">httpdStop</text>
</g>
<!-- Node236 -->
<g id="node2" class="node">
<title>Node236</title>
<g id="a_node2"><a xlink:href="esp-open-lwip_2include_2lwip_2app_2espconn_8h.html#a63d15dda14dfcd8da278c31f048910c3" target="_top" xlink:title="espconn_delete">
<polygon fill="#ffffff" stroke="#000000" points="119.5,-114.5 119.5,-133.5 206.5,-133.5 206.5,-114.5 119.5,-114.5"/>
<text text-anchor="middle" x="163" y="-121.5" font-family="Helvetica,sans-Serif" font-size="10.00" fill="#000000">espconn_delete</text>
</a>
</g>
</g>
<!-- Node235&#45;&gt;Node236 -->
<g id="edge1" class="edge">
<title>Node235&#45;&gt;Node236</title>
<path fill="none" stroke="#191970" d="M37.8492,-57.5327C49.4439,-70.192 71.6446,-92.4134 95,-105 99.6028,-107.4805 104.5597,-109.6619 109.6249,-111.5751"/>
<polygon fill="#191970" stroke="#191970" points="108.8398,-115.0056 119.4344,-114.9315 111.106,-108.3825 108.8398,-115.0056"/>
</g>
<!-- Node237 -->
<g id="node3" class="node">
<title>Node237</title>
<g id="a_node3"><a xlink:href="esp-open-lwip_2include_2lwip_2app_2espconn_8h.html#a9969873c3b8ee86a34496a5166cf8bfc" target="_top" xlink:title="espconn_disconnect">
<polygon fill="#ffffff" stroke="#000000" points="109,-76.5 109,-95.5 217,-95.5 217,-76.5 109,-76.5"/>
<text text-anchor="middle" x="163" y="-83.5" font-family="Helvetica,sans-Serif" font-size="10.00" fill="#000000">espconn_disconnect</text>
</a>
</g>
</g>
<!-- Node235&#45;&gt;Node237 -->
<g id="edge2" class="edge">
<title>Node235&#45;&gt;Node237</title>
<path fill="none" stroke="#191970" d="M59.1539,-56.669C70.3767,-59.9322 83.2707,-63.6602 95,-67 102.709,-69.195 110.9164,-71.5084 118.8647,-73.7364"/>
<polygon fill="#191970" stroke="#191970" points="118.1637,-77.1745 128.7369,-76.4975 120.0492,-70.4333 118.1637,-77.1745"/>
</g>
<!-- Node238 -->
<g id="node4" class="node">
<title>Node238</title>
<g id="a_node4"><a xlink:href="httpd_8c.html#aecb06813eefe322c349651aa5e1316f5" target="_top" xlink:title="httpdDisconnectTimerFunc">
<polygon fill="#ffffff" stroke="#000000" points="95,-38.5 95,-57.5 231,-57.5 231,-38.5 95,-38.5"/>
<text text-anchor="middle" x="163" y="-45.5" font-family="Helvetica,sans-Serif" font-size="10.00" fill="#000000">httpdDisconnectTimerFunc</text>
</a>
</g>
</g>
<!-- Node235&#45;&gt;Node238 -->
<g id="edge3" class="edge">
<title>Node235&#45;&gt;Node238</title>
<path fill="none" stroke="#191970" d="M59.128,-42.28C66.8859,-41.7978 75.6247,-41.4849 84.6556,-41.3413"/>
<polygon fill="#191970" stroke="#191970" points="84.9703,-44.8388 94.9392,-41.2512 84.9089,-37.8391 84.9703,-44.8388"/>
</g>
<!-- Node239 -->
<g id="node5" class="node">
<title>Node239</title>
<g id="a_node5"><a xlink:href="httpd_8c.html#ab7a09edc1f3de2b70bf21ed275c22c61" target="_top" xlink:title="httpdRetireConn">
<polygon fill="#ffffff" stroke="#000000" points="118.5,-.5 118.5,-19.5 207.5,-19.5 207.5,-.5 118.5,-.5"/>
<text text-anchor="middle" x="163" y="-7.5" font-family="Helvetica,sans-Serif" font-size="10.00" fill="#000000">httpdRetireConn</text>
</a>
</g>
</g>
<!-- Node235&#45;&gt;Node239 -->
<g id="edge5" class="edge">
<title>Node235&#45;&gt;Node239</title>
<path fill="none" stroke="#191970" d="M59.1539,-39.331C70.3767,-36.0678 83.2707,-32.3398 95,-29 102.709,-26.805 110.9164,-24.4916 118.8647,-22.2636"/>
<polygon fill="#191970" stroke="#191970" points="120.0492,-25.5667 128.7369,-19.5025 118.1637,-18.8255 120.0492,-25.5667"/>
</g>
<!-- Node238&#45;&gt;Node235 -->
<g id="edge4" class="edge">
<title>Node238&#45;&gt;Node235</title>
<path fill="none" stroke="#191970" d="M94.9392,-54.7488C86.1797,-54.7334 77.4502,-54.5629 69.3546,-54.2373"/>
<polygon fill="#191970" stroke="#191970" points="69.2921,-50.7298 59.128,-53.72 68.9384,-57.7208 69.2921,-50.7298"/>
</g>
</g>
</svg>
