<?xml version="1.0" encoding="UTF-8" standalone="no"?>
<!DOCTYPE svg PUBLIC "-//W3C//DTD SVG 1.1//EN"
 "http://www.w3.org/Graphics/SVG/1.1/DTD/svg11.dtd">
<!-- Generated by graphviz version 2.40.1 (20161225.0304)
 -->
<!-- Title: httpdRetireConn Pages: 1 -->
<svg width="593pt" height="104pt"
 viewBox="0.00 0.00 593.00 104.00" xmlns="http://www.w3.org/2000/svg" xmlns:xlink="http://www.w3.org/1999/xlink">
<g id="graph0" class="graph" transform="scale(1 1) rotate(0) translate(4 100)">
<title>httpdRetireConn</title>
<polygon fill="#ffffff" stroke="transparent" points="-4,4 -4,-100 589,-100 589,4 -4,4"/>
<!-- Node180 -->
<g id="node1" class="node">
<title>Node180</title>
<polygon fill="#bfbfbf" stroke="#000000" points="0,-38.5 0,-57.5 89,-57.5 89,-38.5 0,-38.5"/>
<text text-anchor="middle" x="44.5" y="-45.5" font-family="Helvetica,sans-Serif" font-size="10.00" fill="#000000">httpdRetireConn</text>
</g>
<!-- Node181 -->
<g id="node2" class="node">
<title>Node181</title>
<g id="a_node2"><a xlink:href="httpd_8c.html#a3a1968ecb0fa46d0cbeb07e9983494f4" target="_top" xlink:title="httpdDisconCb">
<polygon fill="#ffffff" stroke="#000000" points="125,-76.5 125,-95.5 207,-95.5 207,-76.5 125,-76.5"/>
<text text-anchor="middle" x="166" y="-83.5" font-family="Helvetica,sans-Serif" font-size="10.00" fill="#000000">httpdDisconCb</text>
</a>
</g>
</g>
<!-- Node180&#45;&gt;Node181 -->
<g id="edge1" class="edge">
<title>Node180&#45;&gt;Node181</title>
<path fill="none" stroke="#191970" d="M85.044,-60.6804C101.4606,-65.8148 120.0989,-71.6441 135.3502,-76.4141"/>
<polygon fill="#191970" stroke="#191970" points="85.7485,-57.2336 75.1596,-57.589 83.6589,-63.9145 85.7485,-57.2336"/>
</g>
<!-- Node185 -->
<g id="node6" class="node">
<title>Node185</title>
<g id="a_node6"><a xlink:href="httpd_8c.html#a51c1039375e19643be3aaac1e8a1c937" target="_top" xlink:title="httpdSentCb">
<polygon fill="#ffffff" stroke="#000000" points="130,-38.5 130,-57.5 202,-57.5 202,-38.5 130,-38.5"/>
<text text-anchor="middle" x="166" y="-45.5" font-family="Helvetica,sans-Serif" font-size="10.00" fill="#000000">httpdSentCb</text>
</a>
</g>
</g>
<!-- Node180&#45;&gt;Node185 -->
<g id="edge5" class="edge">
<title>Node180&#45;&gt;Node185</title>
<path fill="none" stroke="#191970" d="M99.2775,-48C109.6257,-48 120.2073,-48 129.8056,-48"/>
<polygon fill="#191970" stroke="#191970" points="99.0522,-44.5001 89.0522,-48 99.0522,-51.5001 99.0522,-44.5001"/>
</g>
<!-- Node186 -->
<g id="node7" class="node">
<title>Node186</title>
<g id="a_node7"><a xlink:href="httpd_8h.html#afec8778692d2ecc547295eb197fa6fcd" target="_top" xlink:title="httpdStop">
<polygon fill="#ffffff" stroke="#000000" points="136.5,-.5 136.5,-19.5 195.5,-19.5 195.5,-.5 136.5,-.5"/>
<text text-anchor="middle" x="166" y="-7.5" font-family="Helvetica,sans-Serif" font-size="10.00" fill="#000000">httpdStop</text>
</a>
</g>
</g>
<!-- Node180&#45;&gt;Node186 -->
<g id="edge7" class="edge">
<title>Node180&#45;&gt;Node186</title>
<path fill="none" stroke="#191970" d="M84.7286,-35.4182C101.5237,-30.1654 120.6899,-24.1711 136.1903,-19.3232"/>
<polygon fill="#191970" stroke="#191970" points="83.6589,-32.0855 75.1596,-38.411 85.7485,-38.7664 83.6589,-32.0855"/>
</g>
<!-- Node182 -->
<g id="node3" class="node">
<title>Node182</title>
<g id="a_node3"><a xlink:href="httpd_8c.html#a394ef39b684f0f7c1cf013dcb2b8300b" target="_top" xlink:title="httpdConnectCb">
<polygon fill="#ffffff" stroke="#000000" points="266.5,-57.5 266.5,-76.5 355.5,-76.5 355.5,-57.5 266.5,-57.5"/>
<text text-anchor="middle" x="311" y="-64.5" font-family="Helvetica,sans-Serif" font-size="10.00" fill="#000000">httpdConnectCb</text>
</a>
</g>
</g>
<!-- Node181&#45;&gt;Node182 -->
<g id="edge2" class="edge">
<title>Node181&#45;&gt;Node182</title>
<path fill="none" stroke="#191970" d="M217.4277,-79.2612C233.4323,-77.164 250.9373,-74.8703 266.4326,-72.8399"/>
<polygon fill="#191970" stroke="#191970" points="216.6238,-75.8365 207.1633,-80.6062 217.5333,-82.7772 216.6238,-75.8365"/>
</g>
<!-- Node183 -->
<g id="node4" class="node">
<title>Node183</title>
<g id="a_node4"><a xlink:href="httpd_8h.html#a74eb356c950228c2f024f081f7beb830" target="_top" xlink:title="httpdInit">
<polygon fill="#ffffff" stroke="#000000" points="415,-57.5 415,-76.5 467,-76.5 467,-57.5 415,-57.5"/>
<text text-anchor="middle" x="441" y="-64.5" font-family="Helvetica,sans-Serif" font-size="10.00" fill="#000000">httpdInit</text>
</a>
</g>
</g>
<!-- Node182&#45;&gt;Node183 -->
<g id="edge3" class="edge">
<title>Node182&#45;&gt;Node183</title>
<path fill="none" stroke="#191970" d="M366.09,-67C382.972,-67 400.7674,-67 414.7757,-67"/>
<polygon fill="#191970" stroke="#191970" points="365.7387,-63.5001 355.7386,-67 365.7386,-70.5001 365.7387,-63.5001"/>
</g>
<!-- Node184 -->
<g id="node5" class="node">
<title>Node184</title>
<g id="a_node5"><a xlink:href="httpd__user__init_8h.html#a6abf56883c8e03334f42bfb79aa8b095" target="_top" xlink:title="httpd_user_init">
<polygon fill="#ffffff" stroke="#000000" points="503,-57.5 503,-76.5 585,-76.5 585,-57.5 503,-57.5"/>
<text text-anchor="middle" x="544" y="-64.5" font-family="Helvetica,sans-Serif" font-size="10.00" fill="#000000">httpd_user_init</text>
</a>
</g>
</g>
<!-- Node183&#45;&gt;Node184 -->
<g id="edge4" class="edge">
<title>Node183&#45;&gt;Node184</title>
<path fill="none" stroke="#191970" d="M477.371,-67C485.6545,-67 494.5111,-67 502.9737,-67"/>
<polygon fill="#191970" stroke="#191970" points="477.2578,-63.5001 467.2578,-67 477.2577,-70.5001 477.2578,-63.5001"/>
</g>
<!-- Node185&#45;&gt;Node182 -->
<g id="edge6" class="edge">
<title>Node185&#45;&gt;Node182</title>
<path fill="none" stroke="#191970" d="M212.137,-54.0455C229.5083,-56.3218 249.2172,-58.9043 266.4419,-61.1613"/>
<polygon fill="#191970" stroke="#191970" points="212.5856,-50.5745 202.2156,-52.7455 211.6761,-57.5152 212.5856,-50.5745"/>
</g>
<!-- Node187 -->
<g id="node8" class="node">
<title>Node187</title>
<g id="a_node8"><a xlink:href="httpd_8c.html#aecb06813eefe322c349651aa5e1316f5" target="_top" xlink:title="httpdDisconnectTimerFunc">
<polygon fill="#ffffff" stroke="#000000" points="243,-.5 243,-19.5 379,-19.5 379,-.5 243,-.5"/>
<text text-anchor="middle" x="311" y="-7.5" font-family="Helvetica,sans-Serif" font-size="10.00" fill="#000000">httpdDisconnectTimerFunc</text>
</a>
</g>
</g>
<!-- Node186&#45;&gt;Node187 -->
<g id="edge8" class="edge">
<title>Node186&#45;&gt;Node187</title>
<path fill="none" stroke="#191970" d="M205.7821,-3.9023C217.239,-3.4129 230.0752,-3.1989 242.7384,-3.2603"/>
<polygon fill="#191970" stroke="#191970" points="205.4966,-.4124 195.6928,-4.4292 205.8618,-7.4028 205.4966,-.4124"/>
</g>
<!-- Node187&#45;&gt;Node186 -->
<g id="edge9" class="edge">
<title>Node187&#45;&gt;Node186</title>
<path fill="none" stroke="#191970" d="M232.652,-16.7304C219.4901,-16.6422 206.5869,-16.2557 195.6928,-15.5708"/>
<polygon fill="#191970" stroke="#191970" points="232.7352,-20.2304 242.7384,-16.7397 232.7417,-13.2304 232.7352,-20.2304"/>
</g>
</g>
</svg>
