<?xml version="1.0" encoding="UTF-8" standalone="no"?>
<!DOCTYPE svg PUBLIC "-//W3C//DTD SVG 1.1//EN"
 "http://www.w3.org/Graphics/SVG/1.1/DTD/svg11.dtd">
<!-- Generated by graphviz version 2.39.20160927.1334 (20160927.1334)
 -->
<!-- Title: httpdRetireConn Pages: 1 -->
<svg width="1055pt" height="123pt"
 viewBox="0.00 0.00 1055.00 123.00" xmlns="http://www.w3.org/2000/svg" xmlns:xlink="http://www.w3.org/1999/xlink">
<g id="graph0" class="graph" transform="scale(1 1) rotate(0) translate(4 119)">
<title>httpdRetireConn</title>
<polygon fill="#ffffff" stroke="transparent" points="-4,4 -4,-119 1051,-119 1051,4 -4,4"/>
<!-- Node1 -->
<g id="node1" class="node">
<title>Node1</title>
<polygon fill="#bfbfbf" stroke="#000000" points="0,-57.5 0,-76.5 89,-76.5 89,-57.5 0,-57.5"/>
<text text-anchor="middle" x="44.5" y="-64.5" font-family="Helvetica,sans-Serif" font-size="10.00" fill="#000000">httpdRetireConn</text>
</g>
<!-- Node2 -->
<g id="node2" class="node">
<title>Node2</title>
<g id="a_node2"><a xlink:href="httpd_8c.html#a3a1968ecb0fa46d0cbeb07e9983494f4" target="_top" xlink:title="httpdDisconCb">
<polygon fill="#ffffff" stroke="#000000" points="125,-95.5 125,-114.5 207,-114.5 207,-95.5 125,-95.5"/>
<text text-anchor="middle" x="166" y="-102.5" font-family="Helvetica,sans-Serif" font-size="10.00" fill="#000000">httpdDisconCb</text>
</a>
</g>
</g>
<!-- Node1&#45;&gt;Node2 -->
<g id="edge1" class="edge">
<title>Node1&#45;&gt;Node2</title>
<path fill="none" stroke="#191970" d="M85.044,-79.6804C101.461,-84.8148 120.099,-90.6441 135.35,-95.4141"/>
<polygon fill="#191970" stroke="#191970" points="85.7485,-76.2336 75.1596,-76.589 83.6589,-82.9145 85.7485,-76.2336"/>
</g>
<!-- Node9 -->
<g id="node9" class="node">
<title>Node9</title>
<g id="a_node9"><a xlink:href="httpd_8c.html#a51c1039375e19643be3aaac1e8a1c937" target="_top" xlink:title="httpdSentCb">
<polygon fill="#ffffff" stroke="#000000" points="130,-57.5 130,-76.5 202,-76.5 202,-57.5 130,-57.5"/>
<text text-anchor="middle" x="166" y="-64.5" font-family="Helvetica,sans-Serif" font-size="10.00" fill="#000000">httpdSentCb</text>
</a>
</g>
</g>
<!-- Node1&#45;&gt;Node9 -->
<g id="edge8" class="edge">
<title>Node1&#45;&gt;Node9</title>
<path fill="none" stroke="#191970" d="M99.2775,-67C109.626,-67 120.207,-67 129.806,-67"/>
<polygon fill="#191970" stroke="#191970" points="99.0522,-63.5001 89.0522,-67 99.0522,-70.5001 99.0522,-63.5001"/>
</g>
<!-- Node10 -->
<g id="node10" class="node">
<title>Node10</title>
<g id="a_node10"><a xlink:href="httpd_8h.html#afec8778692d2ecc547295eb197fa6fcd" target="_top" xlink:title="httpdStop">
<polygon fill="#ffffff" stroke="#000000" points="136.5,-19.5 136.5,-38.5 195.5,-38.5 195.5,-19.5 136.5,-19.5"/>
<text text-anchor="middle" x="166" y="-26.5" font-family="Helvetica,sans-Serif" font-size="10.00" fill="#000000">httpdStop</text>
</a>
</g>
</g>
<!-- Node1&#45;&gt;Node10 -->
<g id="edge10" class="edge">
<title>Node1&#45;&gt;Node10</title>
<path fill="none" stroke="#191970" d="M84.7286,-54.4182C101.524,-49.1654 120.69,-43.1711 136.19,-38.3232"/>
<polygon fill="#191970" stroke="#191970" points="83.6589,-51.0855 75.1596,-57.411 85.7485,-57.7664 83.6589,-51.0855"/>
</g>
<!-- Node3 -->
<g id="node3" class="node">
<title>Node3</title>
<g id="a_node3"><a xlink:href="httpd_8c.html#a394ef39b684f0f7c1cf013dcb2b8300b" target="_top" xlink:title="httpdConnectCb">
<polygon fill="#ffffff" stroke="#000000" points="266.5,-57.5 266.5,-76.5 355.5,-76.5 355.5,-57.5 266.5,-57.5"/>
<text text-anchor="middle" x="311" y="-64.5" font-family="Helvetica,sans-Serif" font-size="10.00" fill="#000000">httpdConnectCb</text>
</a>
</g>
</g>
<!-- Node2&#45;&gt;Node3 -->
<g id="edge2" class="edge">
<title>Node2&#45;&gt;Node3</title>
<path fill="none" stroke="#191970" d="M212.493,-92.8157C232.624,-87.54 255.838,-81.4562 274.673,-76.5201"/>
<polygon fill="#191970" stroke="#191970" points="211.376,-89.4902 202.59,-95.411 213.15,-96.2615 211.376,-89.4902"/>
</g>
<!-- Node4 -->
<g id="node4" class="node">
<title>Node4</title>
<g id="a_node4"><a xlink:href="httpd_8h.html#a74eb356c950228c2f024f081f7beb830" target="_top" xlink:title="httpdInit">
<polygon fill="#ffffff" stroke="#000000" points="455,-54.5 455,-73.5 507,-73.5 507,-54.5 455,-54.5"/>
<text text-anchor="middle" x="481" y="-61.5" font-family="Helvetica,sans-Serif" font-size="10.00" fill="#000000">httpdInit</text>
</a>
</g>
</g>
<!-- Node3&#45;&gt;Node4 -->
<g id="edge3" class="edge">
<title>Node3&#45;&gt;Node4</title>
<path fill="none" stroke="#191970" d="M365.918,-66.0309C395.649,-65.5062 431.018,-64.882 454.624,-64.4655"/>
<polygon fill="#191970" stroke="#191970" points="365.602,-62.5358 355.665,-66.2118 365.726,-69.5347 365.602,-62.5358"/>
</g>
<!-- Node5 -->
<g id="node5" class="node">
<title>Node5</title>
<g id="a_node5"><a xlink:href="httpd__user__init_8h.html#a6abf56883c8e03334f42bfb79aa8b095" target="_top" xlink:title="httpd_user_init">
<polygon fill="#ffffff" stroke="#000000" points="583,-45.5 583,-64.5 665,-64.5 665,-45.5 583,-45.5"/>
<text text-anchor="middle" x="624" y="-52.5" font-family="Helvetica,sans-Serif" font-size="10.00" fill="#000000">httpd_user_init</text>
</a>
</g>
</g>
<!-- Node4&#45;&gt;Node5 -->
<g id="edge4" class="edge">
<title>Node4&#45;&gt;Node5</title>
<path fill="none" stroke="#191970" d="M517.455,-61.7056C537.386,-60.4512 562.144,-58.893 582.776,-57.5945"/>
<polygon fill="#191970" stroke="#191970" points="516.989,-58.228 507.228,-62.3493 517.429,-65.2141 516.989,-58.228"/>
</g>
<!-- Node6 -->
<g id="node6" class="node">
<title>Node6</title>
<g id="a_node6"><a xlink:href="user__main_8c.html#aca4c3403260c8a02d8a445795842f53e" target="_top" xlink:title="config_mode_timer_func">
<polygon fill="#ffffff" stroke="#000000" points="701,-42.5 701,-61.5 827,-61.5 827,-42.5 701,-42.5"/>
<text text-anchor="middle" x="764" y="-49.5" font-family="Helvetica,sans-Serif" font-size="10.00" fill="#000000">config_mode_timer_func</text>
</a>
</g>
</g>
<!-- Node5&#45;&gt;Node6 -->
<g id="edge5" class="edge">
<title>Node5&#45;&gt;Node6</title>
<path fill="none" stroke="#191970" d="M675.509,-53.8962C683.798,-53.7186 692.459,-53.533 700.982,-53.3504"/>
<polygon fill="#191970" stroke="#191970" points="675.17,-50.4026 665.247,-54.1161 675.32,-57.401 675.17,-50.4026"/>
</g>
<!-- Node7 -->
<g id="node7" class="node">
<title>Node7</title>
<g id="a_node7"><a xlink:href="user__main_8h.html#a3671381db669a16e8f6a4bf3dfb9a441" target="_top" xlink:title="system_init_done">
<polygon fill="#ffffff" stroke="#000000" points="863,-22.5 863,-41.5 957,-41.5 957,-22.5 863,-22.5"/>
<text text-anchor="middle" x="910" y="-29.5" font-family="Helvetica,sans-Serif" font-size="10.00" fill="#000000">system_init_done</text>
</a>
</g>
</g>
<!-- Node6&#45;&gt;Node7 -->
<g id="edge6" class="edge">
<title>Node6&#45;&gt;Node7</title>
<path fill="none" stroke="#191970" d="M837.257,-41.9647C845.857,-40.7867 854.452,-39.6093 862.565,-38.498"/>
<polygon fill="#191970" stroke="#191970" points="836.621,-38.5191 827.189,-43.344 837.571,-45.4544 836.621,-38.5191"/>
</g>
<!-- Node8 -->
<g id="node8" class="node">
<title>Node8</title>
<g id="a_node8"><a xlink:href="user__main_8h.html#a33113d6dedb440bd7dfa5576e325140c" target="_top" xlink:title="user_init">
<polygon fill="#ffffff" stroke="#000000" points="993,-22.5 993,-41.5 1047,-41.5 1047,-22.5 993,-22.5"/>
<text text-anchor="middle" x="1020" y="-29.5" font-family="Helvetica,sans-Serif" font-size="10.00" fill="#000000">user_init</text>
</a>
</g>
</g>
<!-- Node7&#45;&gt;Node8 -->
<g id="edge7" class="edge">
<title>Node7&#45;&gt;Node8</title>
<path fill="none" stroke="#191970" d="M967.289,-32C976.16,-32 984.952,-32 992.738,-32"/>
<polygon fill="#191970" stroke="#191970" points="967.288,-28.5001 957.288,-32 967.288,-35.5001 967.288,-28.5001"/>
</g>
<!-- Node9&#45;&gt;Node3 -->
<g id="edge9" class="edge">
<title>Node9&#45;&gt;Node3</title>
<path fill="none" stroke="#191970" d="M212.625,-67C229.876,-67 249.378,-67 266.442,-67"/>
<polygon fill="#191970" stroke="#191970" points="212.216,-63.5001 202.216,-67 212.216,-70.5001 212.216,-63.5001"/>
</g>
<!-- Node11 -->
<g id="node11" class="node">
<title>Node11</title>
<g id="a_node11"><a xlink:href="httpd_8c.html#aecb06813eefe322c349651aa5e1316f5" target="_top" xlink:title="httpdDisconnectTimerFunc">
<polygon fill="#ffffff" stroke="#000000" points="243,-19.5 243,-38.5 379,-38.5 379,-19.5 243,-19.5"/>
<text text-anchor="middle" x="311" y="-26.5" font-family="Helvetica,sans-Serif" font-size="10.00" fill="#000000">httpdDisconnectTimerFunc</text>
</a>
</g>
</g>
<!-- Node10&#45;&gt;Node11 -->
<g id="edge11" class="edge">
<title>Node10&#45;&gt;Node11</title>
<path fill="none" stroke="#191970" d="M205.782,-22.9023C217.239,-22.4129 230.075,-22.1989 242.738,-22.2603"/>
<polygon fill="#191970" stroke="#191970" points="205.497,-19.4124 195.693,-23.4292 205.862,-26.4028 205.497,-19.4124"/>
</g>
<!-- Node12 -->
<g id="node12" class="node">
<title>Node12</title>
<g id="a_node12"><a xlink:href="user__main_8c.html#a245ec00253f410a8804988bf40e1037e" target="_top" xlink:title="sample_mode_timer_func">
<polygon fill="#ffffff" stroke="#000000" points="415,-0.5 415,-19.5 547,-19.5 547,-0.5 415,-0.5"/>
<text text-anchor="middle" x="481" y="-7.5" font-family="Helvetica,sans-Serif" font-size="10.00" fill="#000000">sample_mode_timer_func</text>
</a>
</g>
</g>
<!-- Node10&#45;&gt;Node12 -->
<g id="edge13" class="edge">
<title>Node10&#45;&gt;Node12</title>
<path fill="none" stroke="#191970" d="M205.376,-17.3424C217.347,-14.3264 230.613,-11.5057 243,-10 300.732,-2.98244 366.925,-3.68146 414.824,-5.73313"/>
<polygon fill="#191970" stroke="#191970" points="204.452,-13.9663 195.673,-19.8972 206.234,-20.7356 204.452,-13.9663"/>
</g>
<!-- Node11&#45;&gt;Node10 -->
<g id="edge12" class="edge">
<title>Node11&#45;&gt;Node10</title>
<path fill="none" stroke="#191970" d="M232.652,-35.7304C219.49,-35.6422 206.587,-35.2557 195.693,-34.5708"/>
<polygon fill="#191970" stroke="#191970" points="232.735,-39.2304 242.738,-35.7397 232.742,-32.2304 232.735,-39.2304"/>
</g>
<!-- Node12&#45;&gt;Node7 -->
<g id="edge14" class="edge">
<title>Node12&#45;&gt;Node7</title>
<path fill="none" stroke="#191970" d="M557.34,-13.9149C645.851,-18.4539 788.995,-25.7946 862.739,-29.5764"/>
<polygon fill="#191970" stroke="#191970" points="557.257,-10.4061 547.091,-13.3893 556.899,-17.3969 557.257,-10.4061"/>
</g>
</g>
</svg>
