<?xml version="1.0" encoding="UTF-8" standalone="no"?>
<!DOCTYPE svg PUBLIC "-//W3C//DTD SVG 1.1//EN"
 "http://www.w3.org/Graphics/SVG/1.1/DTD/svg11.dtd">
<!-- Generated by graphviz version 2.41.20170323.1842 (20170323.1842)
 -->
<!-- Title: esp&#45;open&#45;lwip/include/lwip/inet.h Pages: 1 -->
<svg width="587pt" height="106pt"
 viewBox="0.00 0.00 587.00 106.00" xmlns="http://www.w3.org/2000/svg" xmlns:xlink="http://www.w3.org/1999/xlink">
<g id="graph0" class="graph" transform="scale(1 1) rotate(0) translate(4 102)">
<title>esp&#45;open&#45;lwip/include/lwip/inet.h</title>
<polygon fill="#ffffff" stroke="transparent" points="-4,4 -4,-102 583,-102 583,4 -4,4"/>
<!-- Node16 -->
<g id="node1" class="node">
<title>Node16</title>
<polygon fill="#bfbfbf" stroke="#000000" points="229,-67.5 229,-97.5 342,-97.5 342,-67.5 229,-67.5"/>
<text text-anchor="start" x="237" y="-85.5" font-family="Helvetica,sans-Serif" font-size="10.00" fill="#000000">esp&#45;open&#45;lwip/include</text>
<text text-anchor="middle" x="285.5" y="-74.5" font-family="Helvetica,sans-Serif" font-size="10.00" fill="#000000">/lwip/inet.h</text>
</g>
<!-- Node17 -->
<g id="node2" class="node">
<title>Node17</title>
<g id="a_node2"><a xlink:href="$dhcpserver_8c.html" xlink:title="esp&#45;open&#45;lwip/lwip\l/app/dhcpserver.c">
<polygon fill="#ffffff" stroke="#000000" points="0,-.5 0,-30.5 99,-30.5 99,-.5 0,-.5"/>
<text text-anchor="start" x="8" y="-18.5" font-family="Helvetica,sans-Serif" font-size="10.00" fill="#000000">esp&#45;open&#45;lwip/lwip</text>
<text text-anchor="middle" x="49.5" y="-7.5" font-family="Helvetica,sans-Serif" font-size="10.00" fill="#000000">/app/dhcpserver.c</text>
</a>
</g>
</g>
<!-- Node16&#45;&gt;Node17 -->
<g id="edge1" class="edge">
<title>Node16&#45;&gt;Node17</title>
<path fill="none" stroke="#191970" d="M222.4288,-64.5942C183.757,-53.6153 134.9535,-39.7601 99.061,-29.5703"/>
<polygon fill="#191970" stroke="#191970" points="221.9613,-68.0997 232.537,-67.4639 223.873,-61.3658 221.9613,-68.0997"/>
</g>
<!-- Node18 -->
<g id="node3" class="node">
<title>Node18</title>
<g id="a_node3"><a xlink:href="$espconn_8c.html" xlink:title="esp&#45;open&#45;lwip/lwip\l/app/espconn.c">
<polygon fill="#ffffff" stroke="#000000" points="117,-.5 117,-30.5 216,-30.5 216,-.5 117,-.5"/>
<text text-anchor="start" x="125" y="-18.5" font-family="Helvetica,sans-Serif" font-size="10.00" fill="#000000">esp&#45;open&#45;lwip/lwip</text>
<text text-anchor="middle" x="166.5" y="-7.5" font-family="Helvetica,sans-Serif" font-size="10.00" fill="#000000">/app/espconn.c</text>
</a>
</g>
</g>
<!-- Node16&#45;&gt;Node18 -->
<g id="edge2" class="edge">
<title>Node16&#45;&gt;Node18</title>
<path fill="none" stroke="#191970" d="M249.722,-62.3561C231.6827,-52.1995 210.1646,-40.0843 193.5285,-30.7177"/>
<polygon fill="#191970" stroke="#191970" points="248.3631,-65.6076 258.7941,-67.4639 251.7974,-59.5079 248.3631,-65.6076"/>
</g>
<!-- Node19 -->
<g id="node4" class="node">
<title>Node19</title>
<g id="a_node4"><a xlink:href="$espconn__tcp_8c.html" xlink:title="esp&#45;open&#45;lwip/lwip\l/app/espconn_tcp.c">
<polygon fill="#ffffff" stroke="#000000" points="234,-.5 234,-30.5 337,-30.5 337,-.5 234,-.5"/>
<text text-anchor="start" x="242" y="-18.5" font-family="Helvetica,sans-Serif" font-size="10.00" fill="#000000">esp&#45;open&#45;lwip/lwip</text>
<text text-anchor="middle" x="285.5" y="-7.5" font-family="Helvetica,sans-Serif" font-size="10.00" fill="#000000">/app/espconn_tcp.c</text>
</a>
</g>
</g>
<!-- Node16&#45;&gt;Node19 -->
<g id="edge3" class="edge">
<title>Node16&#45;&gt;Node19</title>
<path fill="none" stroke="#191970" d="M285.5,-57.0249C285.5,-48.128 285.5,-38.4287 285.5,-30.6432"/>
<polygon fill="#191970" stroke="#191970" points="282.0001,-57.2966 285.5,-67.2967 289.0001,-57.2967 282.0001,-57.2966"/>
</g>
<!-- Node20 -->
<g id="node5" class="node">
<title>Node20</title>
<g id="a_node5"><a xlink:href="$espconn__udp_8c.html" xlink:title="esp&#45;open&#45;lwip/lwip\l/app/espconn_udp.c">
<polygon fill="#ffffff" stroke="#000000" points="355,-.5 355,-30.5 462,-30.5 462,-.5 355,-.5"/>
<text text-anchor="start" x="363" y="-18.5" font-family="Helvetica,sans-Serif" font-size="10.00" fill="#000000">esp&#45;open&#45;lwip/lwip</text>
<text text-anchor="middle" x="408.5" y="-7.5" font-family="Helvetica,sans-Serif" font-size="10.00" fill="#000000">/app/espconn_udp.c</text>
</a>
</g>
</g>
<!-- Node16&#45;&gt;Node20 -->
<g id="edge4" class="edge">
<title>Node16&#45;&gt;Node20</title>
<path fill="none" stroke="#191970" d="M321.9683,-62.6352C340.7177,-52.422 363.2099,-40.1702 380.563,-30.7177"/>
<polygon fill="#191970" stroke="#191970" points="320.211,-59.6067 313.1036,-67.4639 323.5595,-65.7539 320.211,-59.6067"/>
</g>
<!-- Node21 -->
<g id="node6" class="node">
<title>Node21</title>
<g id="a_node6"><a xlink:href="$inet_8c.html" xlink:title="esp&#45;open&#45;lwip/lwip\l/core/ipv4/inet.c">
<polygon fill="#ffffff" stroke="#000000" points="480,-.5 480,-30.5 579,-30.5 579,-.5 480,-.5"/>
<text text-anchor="start" x="488" y="-18.5" font-family="Helvetica,sans-Serif" font-size="10.00" fill="#000000">esp&#45;open&#45;lwip/lwip</text>
<text text-anchor="middle" x="529.5" y="-7.5" font-family="Helvetica,sans-Serif" font-size="10.00" fill="#000000">/core/ipv4/inet.c</text>
</a>
</g>
</g>
<!-- Node16&#45;&gt;Node21 -->
<g id="edge5" class="edge">
<title>Node16&#45;&gt;Node21</title>
<path fill="none" stroke="#191970" d="M350.0798,-64.767C390.7522,-53.5988 442.4549,-39.4017 479.9001,-29.1196"/>
<polygon fill="#191970" stroke="#191970" points="348.9746,-61.4409 340.2584,-67.4639 350.8282,-68.191 348.9746,-61.4409"/>
</g>
</g>
</svg>
