<?xml version="1.0" encoding="UTF-8" standalone="no"?>
<!DOCTYPE svg PUBLIC "-//W3C//DTD SVG 1.1//EN"
 "http://www.w3.org/Graphics/SVG/1.1/DTD/svg11.dtd">
<!-- Generated by graphviz version 2.41.20170323.1842 (20170323.1842)
 -->
<!-- Title: ip_input Pages: 1 -->
<svg width="470pt" height="104pt"
 viewBox="0.00 0.00 470.00 104.00" xmlns="http://www.w3.org/2000/svg" xmlns:xlink="http://www.w3.org/1999/xlink">
<g id="graph0" class="graph" transform="scale(1 1) rotate(0) translate(4 100)">
<title>ip_input</title>
<polygon fill="#ffffff" stroke="transparent" points="-4,4 -4,-100 466,-100 466,4 -4,4"/>
<!-- Node0 -->
<g id="node1" class="node">
<title>Node0</title>
<polygon fill="#bfbfbf" stroke="#000000" points="0,-38.5 0,-57.5 52,-57.5 52,-38.5 0,-38.5"/>
<text text-anchor="middle" x="26" y="-45.5" font-family="Helvetica,sans-Serif" font-size="10.00" fill="#000000">ip_input</text>
</g>
<!-- Node1 -->
<g id="node2" class="node">
<title>Node1</title>
<g id="a_node2"><a xlink:href="inet__chksum_8h.html#a79a1825a9588a77b8c372a3d708974a8" target="_top" xlink:title="inet_chksum">
<polygon fill="#ffffff" stroke="#000000" points="88,-76.5 88,-95.5 161,-95.5 161,-76.5 88,-76.5"/>
<text text-anchor="middle" x="124.5" y="-83.5" font-family="Helvetica,sans-Serif" font-size="10.00" fill="#000000">inet_chksum</text>
</a>
</g>
</g>
<!-- Node0&#45;&gt;Node1 -->
<g id="edge1" class="edge">
<title>Node0&#45;&gt;Node1</title>
<path fill="none" stroke="#191970" d="M50.8557,-57.589C62.7545,-62.1794 77.1949,-67.7503 90.1255,-72.7388"/>
<polygon fill="#191970" stroke="#191970" points="89.0627,-76.0801 99.6522,-76.4141 91.5822,-69.5493 89.0627,-76.0801"/>
</g>
<!-- Node2 -->
<g id="node3" class="node">
<title>Node2</title>
<g id="a_node3"><a xlink:href="pbuf_8h.html#a0d26e00e2cf975274139d27ddabd7ed3" target="_top" xlink:title="pbuf_free">
<polygon fill="#ffffff" stroke="#000000" points="198,-.5 198,-19.5 257,-19.5 257,-.5 198,-.5"/>
<text text-anchor="middle" x="227.5" y="-7.5" font-family="Helvetica,sans-Serif" font-size="10.00" fill="#000000">pbuf_free</text>
</a>
</g>
</g>
<!-- Node0&#45;&gt;Node2 -->
<g id="edge2" class="edge">
<title>Node0&#45;&gt;Node2</title>
<path fill="none" stroke="#191970" d="M52.2995,-38.9088C63.2347,-35.3997 76.1249,-31.6102 88,-29 121.234,-21.6949 159.5761,-16.7162 187.6425,-13.6939"/>
<polygon fill="#191970" stroke="#191970" points="188.2798,-17.1465 197.864,-12.6306 187.5555,-10.1841 188.2798,-17.1465"/>
</g>
<!-- Node6 -->
<g id="node7" class="node">
<title>Node6</title>
<g id="a_node7"><a xlink:href="pbuf_8h.html#a4853abdcdbbe0c4c9fc994e4e7e02b87" target="_top" xlink:title="pbuf_realloc">
<polygon fill="#ffffff" stroke="#000000" points="89,-38.5 89,-57.5 160,-57.5 160,-38.5 89,-38.5"/>
<text text-anchor="middle" x="124.5" y="-45.5" font-family="Helvetica,sans-Serif" font-size="10.00" fill="#000000">pbuf_realloc</text>
</a>
</g>
</g>
<!-- Node0&#45;&gt;Node6 -->
<g id="edge6" class="edge">
<title>Node0&#45;&gt;Node6</title>
<path fill="none" stroke="#191970" d="M52.1376,-48C60.3368,-48 69.6412,-48 78.7825,-48"/>
<polygon fill="#191970" stroke="#191970" points="78.9665,-51.5001 88.9664,-48 78.9664,-44.5001 78.9665,-51.5001"/>
</g>
<!-- Node3 -->
<g id="node4" class="node">
<title>Node3</title>
<g id="a_node4"><a xlink:href="esp-open-lwip_2include_2lwip_2mem_8h.html#ab270bbe39e1996d7095be3a139620ce0" target="_top" xlink:title="mem_free">
<polygon fill="#ffffff" stroke="#000000" points="296.5,-66.5 296.5,-85.5 358.5,-85.5 358.5,-66.5 296.5,-66.5"/>
<text text-anchor="middle" x="327.5" y="-73.5" font-family="Helvetica,sans-Serif" font-size="10.00" fill="#000000">mem_free</text>
</a>
</g>
</g>
<!-- Node2&#45;&gt;Node3 -->
<g id="edge3" class="edge">
<title>Node2&#45;&gt;Node3</title>
<path fill="none" stroke="#191970" d="M243.0872,-19.554C247.8932,-22.5416 253.1862,-25.8745 258,-29 274.0345,-39.4109 291.8959,-51.5008 305.4962,-60.8115"/>
<polygon fill="#191970" stroke="#191970" points="303.5312,-63.7079 313.7561,-66.4831 307.4935,-57.9373 303.5312,-63.7079"/>
</g>
<!-- Node5 -->
<g id="node6" class="node">
<title>Node5</title>
<g id="a_node6"><a xlink:href="memp_8h.html#a9d30a969401eb0626105950d6e63f3bf" target="_top" xlink:title="memp_free">
<polygon fill="#ffffff" stroke="#000000" points="294,-19.5 294,-38.5 361,-38.5 361,-19.5 294,-19.5"/>
<text text-anchor="middle" x="327.5" y="-26.5" font-family="Helvetica,sans-Serif" font-size="10.00" fill="#000000">memp_free</text>
</a>
</g>
</g>
<!-- Node2&#45;&gt;Node5 -->
<g id="edge5" class="edge">
<title>Node2&#45;&gt;Node5</title>
<path fill="none" stroke="#191970" d="M257.2325,-15.6492C265.5986,-17.2387 274.8759,-19.0014 283.8733,-20.7109"/>
<polygon fill="#191970" stroke="#191970" points="283.3717,-24.1782 293.8493,-22.6064 284.6784,-17.3012 283.3717,-24.1782"/>
</g>
<!-- Node4 -->
<g id="node5" class="node">
<title>Node4</title>
<g id="a_node5"><a xlink:href="mem_8c.html#a24221009a2c00e9c3fa63eaa9444a076" target="_top" xlink:title="plug_holes">
<polygon fill="#ffffff" stroke="#000000" points="397,-66.5 397,-85.5 462,-85.5 462,-66.5 397,-66.5"/>
<text text-anchor="middle" x="429.5" y="-73.5" font-family="Helvetica,sans-Serif" font-size="10.00" fill="#000000">plug_holes</text>
</a>
</g>
</g>
<!-- Node3&#45;&gt;Node4 -->
<g id="edge4" class="edge">
<title>Node3&#45;&gt;Node4</title>
<path fill="none" stroke="#191970" d="M358.6576,-76C367.5207,-76 377.3309,-76 386.7549,-76"/>
<polygon fill="#191970" stroke="#191970" points="386.7662,-79.5001 396.7662,-76 386.7661,-72.5001 386.7662,-79.5001"/>
</g>
<!-- Node7 -->
<g id="node8" class="node">
<title>Node7</title>
<g id="a_node8"><a xlink:href="esp-open-lwip_2include_2lwip_2mem_8h.html#aaf260c2e52686f07d59d1d347ee952cc" target="_top" xlink:title="mem_trim">
<polygon fill="#ffffff" stroke="#000000" points="197,-38.5 197,-57.5 258,-57.5 258,-38.5 197,-38.5"/>
<text text-anchor="middle" x="227.5" y="-45.5" font-family="Helvetica,sans-Serif" font-size="10.00" fill="#000000">mem_trim</text>
</a>
</g>
</g>
<!-- Node6&#45;&gt;Node7 -->
<g id="edge7" class="edge">
<title>Node6&#45;&gt;Node7</title>
<path fill="none" stroke="#191970" d="M160.2353,-48C168.8382,-48 178.0907,-48 186.8976,-48"/>
<polygon fill="#191970" stroke="#191970" points="186.9658,-51.5001 196.9658,-48 186.9657,-44.5001 186.9658,-51.5001"/>
</g>
<!-- Node8 -->
<g id="node9" class="node">
<title>Node8</title>
<g id="a_node9"><a xlink:href="pbuf_8c.html#ab0dd696fb4b6bc65e548944584f1738b" target="_top" xlink:title="pbuf_free">
<polygon fill="#ffffff" stroke="#000000" points="198,-76.5 198,-95.5 257,-95.5 257,-76.5 198,-76.5"/>
<text text-anchor="middle" x="227.5" y="-83.5" font-family="Helvetica,sans-Serif" font-size="10.00" fill="#000000">pbuf_free</text>
</a>
</g>
</g>
<!-- Node6&#45;&gt;Node8 -->
<g id="edge8" class="edge">
<title>Node6&#45;&gt;Node8</title>
<path fill="none" stroke="#191970" d="M150.4912,-57.589C163.0557,-62.2244 178.3301,-67.8596 191.9523,-72.8853"/>
<polygon fill="#191970" stroke="#191970" points="190.9237,-76.2364 201.5171,-76.4141 193.3467,-69.6691 190.9237,-76.2364"/>
</g>
<!-- Node8&#45;&gt;Node3 -->
<g id="edge10" class="edge">
<title>Node8&#45;&gt;Node3</title>
<path fill="none" stroke="#191970" d="M257.2325,-83.0267C266.2805,-82.122 276.3943,-81.1106 286.0671,-80.1433"/>
<polygon fill="#191970" stroke="#191970" points="286.7168,-83.5959 296.3188,-79.1181 286.0202,-76.6306 286.7168,-83.5959"/>
</g>
<!-- Node8&#45;&gt;Node5 -->
<g id="edge9" class="edge">
<title>Node8&#45;&gt;Node5</title>
<path fill="none" stroke="#191970" d="M244.4636,-76.3307C260.2177,-67.3509 283.8919,-53.8566 301.936,-43.5715"/>
<polygon fill="#191970" stroke="#191970" points="303.8323,-46.5193 310.7869,-38.5265 300.3659,-40.4378 303.8323,-46.5193"/>
</g>
</g>
</svg>
