<?xml version="1.0" encoding="UTF-8" standalone="no"?>
<!DOCTYPE svg PUBLIC "-//W3C//DTD SVG 1.1//EN"
 "http://www.w3.org/Graphics/SVG/1.1/DTD/svg11.dtd">
<!-- Generated by graphviz version 2.41.20170323.1842 (20170323.1842)
 -->
<!-- Title: esp&#45;open&#45;lwip/include/lwip/ip.h Pages: 1 -->
<svg width="1114pt" height="173pt"
 viewBox="0.00 0.00 1114.00 173.00" xmlns="http://www.w3.org/2000/svg" xmlns:xlink="http://www.w3.org/1999/xlink">
<g id="graph0" class="graph" transform="scale(1 1) rotate(0) translate(4 169)">
<title>esp&#45;open&#45;lwip/include/lwip/ip.h</title>
<polygon fill="#ffffff" stroke="transparent" points="-4,4 -4,-169 1110,-169 1110,4 -4,4"/>
<!-- Node19 -->
<g id="node1" class="node">
<title>Node19</title>
<polygon fill="#bfbfbf" stroke="#000000" points="478,-134.5 478,-164.5 591,-164.5 591,-134.5 478,-134.5"/>
<text text-anchor="start" x="486" y="-152.5" font-family="Helvetica,sans-Serif" font-size="10.00" fill="#000000">esp&#45;open&#45;lwip/include</text>
<text text-anchor="middle" x="534.5" y="-141.5" font-family="Helvetica,sans-Serif" font-size="10.00" fill="#000000">/lwip/ip.h</text>
</g>
<!-- Node20 -->
<g id="node2" class="node">
<title>Node20</title>
<g id="a_node2"><a xlink:href="$wifi_8h.html" xlink:title="modules/include/wifi.h">
<polygon fill="#ffffff" stroke="#000000" points="84.5,-73 84.5,-92 198.5,-92 198.5,-73 84.5,-73"/>
<text text-anchor="middle" x="141.5" y="-80" font-family="Helvetica,sans-Serif" font-size="10.00" fill="#000000">modules/include/wifi.h</text>
</a>
</g>
</g>
<!-- Node19&#45;&gt;Node20 -->
<g id="edge1" class="edge">
<title>Node19&#45;&gt;Node20</title>
<path fill="none" stroke="#191970" d="M467.5544,-140.4447C401.2793,-131.1305 297.0368,-115.5392 207.5,-98 198.4906,-96.2352 188.8442,-94.1068 179.7854,-92.0004"/>
<polygon fill="#191970" stroke="#191970" points="467.4687,-143.9667 477.857,-141.885 468.438,-137.0341 467.4687,-143.9667"/>
</g>
<!-- Node21 -->
<g id="node3" class="node">
<title>Node21</title>
<g id="a_node3"><a xlink:href="$wifi_8c.html" xlink:title="modules/wifi.c">
<polygon fill="#ffffff" stroke="#000000" points="0,-6 0,-25 79,-25 79,-6 0,-6"/>
<text text-anchor="middle" x="39.5" y="-13" font-family="Helvetica,sans-Serif" font-size="10.00" fill="#000000">modules/wifi.c</text>
</a>
</g>
</g>
<!-- Node19&#45;&gt;Node21 -->
<g id="edge5" class="edge">
<title>Node19&#45;&gt;Node21</title>
<path fill="none" stroke="#191970" d="M467.5052,-145.6704C347.7129,-138.2869 106.3815,-120.7791 75.5,-98 51.354,-80.1892 43.177,-42.6884 40.5976,-25.0511"/>
<polygon fill="#191970" stroke="#191970" points="467.4669,-149.1745 477.6615,-146.2901 467.8933,-142.1875 467.4669,-149.1745"/>
</g>
<!-- Node24 -->
<g id="node6" class="node">
<title>Node24</title>
<g id="a_node6"><a xlink:href="$mqtt_8c.html" xlink:title="mqtt/mqtt.c">
<polygon fill="#ffffff" stroke="#000000" points="216.5,-73 216.5,-92 282.5,-92 282.5,-73 216.5,-73"/>
<text text-anchor="middle" x="249.5" y="-80" font-family="Helvetica,sans-Serif" font-size="10.00" fill="#000000">mqtt/mqtt.c</text>
</a>
</g>
</g>
<!-- Node19&#45;&gt;Node24 -->
<g id="edge6" class="edge">
<title>Node19&#45;&gt;Node24</title>
<path fill="none" stroke="#191970" d="M468.0647,-138.1062C418.8584,-129.0201 350.4159,-115.0177 291.5,-98 285.6757,-96.3177 279.5015,-94.2216 273.7313,-92.12"/>
<polygon fill="#191970" stroke="#191970" points="467.485,-141.5582 477.9514,-139.9135 468.7438,-134.6723 467.485,-141.5582"/>
</g>
<!-- Node25 -->
<g id="node7" class="node">
<title>Node25</title>
<g id="a_node7"><a xlink:href="$captdns_8c.html" xlink:title="user/captdns.c">
<polygon fill="#ffffff" stroke="#000000" points="300.5,-73 300.5,-92 382.5,-92 382.5,-73 300.5,-73"/>
<text text-anchor="middle" x="341.5" y="-80" font-family="Helvetica,sans-Serif" font-size="10.00" fill="#000000">user/captdns.c</text>
</a>
</g>
</g>
<!-- Node19&#45;&gt;Node25 -->
<g id="edge7" class="edge">
<title>Node19&#45;&gt;Node25</title>
<path fill="none" stroke="#191970" d="M481.6764,-131.1623C445.1806,-118.4928 398.1218,-102.1563 368.8809,-92.0053"/>
<polygon fill="#191970" stroke="#191970" points="480.5922,-134.4907 491.187,-134.4639 482.8879,-127.8779 480.5922,-134.4907"/>
</g>
<!-- Node26 -->
<g id="node8" class="node">
<title>Node26</title>
<g id="a_node8"><a xlink:href="$httpd_8c.html" xlink:title="user/httpd.c">
<polygon fill="#ffffff" stroke="#000000" points="401,-73 401,-92 470,-92 470,-73 401,-73"/>
<text text-anchor="middle" x="435.5" y="-80" font-family="Helvetica,sans-Serif" font-size="10.00" fill="#000000">user/httpd.c</text>
</a>
</g>
</g>
<!-- Node19&#45;&gt;Node26 -->
<g id="edge8" class="edge">
<title>Node19&#45;&gt;Node26</title>
<path fill="none" stroke="#191970" d="M503.5372,-128.5454C485.4928,-116.3335 463.607,-101.5219 449.6185,-92.055"/>
<polygon fill="#191970" stroke="#191970" points="501.792,-131.5904 512.0354,-134.2967 505.7153,-125.7932 501.792,-131.5904"/>
</g>
<!-- Node27 -->
<g id="node9" class="node">
<title>Node27</title>
<g id="a_node9"><a xlink:href="$httpdespfs_8c.html" xlink:title="user/httpdespfs.c">
<polygon fill="#ffffff" stroke="#000000" points="488,-73 488,-92 581,-92 581,-73 488,-73"/>
<text text-anchor="middle" x="534.5" y="-80" font-family="Helvetica,sans-Serif" font-size="10.00" fill="#000000">user/httpdespfs.c</text>
</a>
</g>
</g>
<!-- Node19&#45;&gt;Node27 -->
<g id="edge9" class="edge">
<title>Node19&#45;&gt;Node27</title>
<path fill="none" stroke="#191970" d="M534.5,-124.1199C534.5,-112.9072 534.5,-100.4031 534.5,-92.055"/>
<polygon fill="#191970" stroke="#191970" points="531.0001,-124.2966 534.5,-134.2967 538.0001,-124.2967 531.0001,-124.2966"/>
</g>
<!-- Node28 -->
<g id="node10" class="node">
<title>Node28</title>
<g id="a_node10"><a xlink:href="$ip__frag_8h.html" xlink:title="esp&#45;open&#45;lwip/include\l/lwip/ip_frag.h">
<polygon fill="#ffffff" stroke="#000000" points="638,-67.5 638,-97.5 751,-97.5 751,-67.5 638,-67.5"/>
<text text-anchor="start" x="646" y="-85.5" font-family="Helvetica,sans-Serif" font-size="10.00" fill="#000000">esp&#45;open&#45;lwip/include</text>
<text text-anchor="middle" x="694.5" y="-74.5" font-family="Helvetica,sans-Serif" font-size="10.00" fill="#000000">/lwip/ip_frag.h</text>
</a>
</g>
</g>
<!-- Node19&#45;&gt;Node28 -->
<g id="edge10" class="edge">
<title>Node19&#45;&gt;Node28</title>
<path fill="none" stroke="#191970" d="M579.659,-130.5897C604.5853,-120.1518 635.1199,-107.3654 658.4363,-97.6017"/>
<polygon fill="#191970" stroke="#191970" points="578.2792,-127.3729 570.4071,-134.4639 580.983,-133.8297 578.2792,-127.3729"/>
</g>
<!-- Node29 -->
<g id="node11" class="node">
<title>Node29</title>
<g id="a_node11"><a xlink:href="$ip_8c.html" xlink:title="esp&#45;open&#45;lwip/lwip\l/core/ipv4/ip.c">
<polygon fill="#ffffff" stroke="#000000" points="543,-.5 543,-30.5 642,-30.5 642,-.5 543,-.5"/>
<text text-anchor="start" x="551" y="-18.5" font-family="Helvetica,sans-Serif" font-size="10.00" fill="#000000">esp&#45;open&#45;lwip/lwip</text>
<text text-anchor="middle" x="592.5" y="-7.5" font-family="Helvetica,sans-Serif" font-size="10.00" fill="#000000">/core/ipv4/ip.c</text>
</a>
</g>
</g>
<!-- Node19&#45;&gt;Node29 -->
<g id="edge17" class="edge">
<title>Node19&#45;&gt;Node29</title>
<path fill="none" stroke="#191970" d="M565.7457,-127.9107C575.0954,-119.7122 584.2484,-109.533 589.5,-98 599.419,-76.217 597.6735,-47.7459 595.2609,-30.5824"/>
<polygon fill="#191970" stroke="#191970" points="563.4434,-125.2723 557.9271,-134.3178 567.8802,-130.6866 563.4434,-125.2723"/>
</g>
<!-- Node32 -->
<g id="node14" class="node">
<title>Node32</title>
<g id="a_node14"><a xlink:href="$espconn_8c.html" xlink:title="esp&#45;open&#45;lwip/lwip\l/app/espconn.c">
<polygon fill="#ffffff" stroke="#000000" points="769,-67.5 769,-97.5 868,-97.5 868,-67.5 769,-67.5"/>
<text text-anchor="start" x="777" y="-85.5" font-family="Helvetica,sans-Serif" font-size="10.00" fill="#000000">esp&#45;open&#45;lwip/lwip</text>
<text text-anchor="middle" x="818.5" y="-74.5" font-family="Helvetica,sans-Serif" font-size="10.00" fill="#000000">/app/espconn.c</text>
</a>
</g>
</g>
<!-- Node19&#45;&gt;Node32 -->
<g id="edge14" class="edge">
<title>Node19&#45;&gt;Node32</title>
<path fill="none" stroke="#191970" d="M600.925,-134.8801C645.7945,-124.8612 706.3172,-111.0688 759.5,-98 762.5854,-97.2418 765.7579,-96.4485 768.9547,-95.6386"/>
<polygon fill="#191970" stroke="#191970" points="600.0224,-131.4953 591.0231,-137.0866 601.545,-138.3277 600.0224,-131.4953"/>
</g>
<!-- Node33 -->
<g id="node15" class="node">
<title>Node33</title>
<g id="a_node15"><a xlink:href="$espconn__tcp_8c.html" xlink:title="esp&#45;open&#45;lwip/lwip\l/app/espconn_tcp.c">
<polygon fill="#ffffff" stroke="#000000" points="886,-67.5 886,-97.5 989,-97.5 989,-67.5 886,-67.5"/>
<text text-anchor="start" x="894" y="-85.5" font-family="Helvetica,sans-Serif" font-size="10.00" fill="#000000">esp&#45;open&#45;lwip/lwip</text>
<text text-anchor="middle" x="937.5" y="-74.5" font-family="Helvetica,sans-Serif" font-size="10.00" fill="#000000">/app/espconn_tcp.c</text>
</a>
</g>
</g>
<!-- Node19&#45;&gt;Node33 -->
<g id="edge15" class="edge">
<title>Node19&#45;&gt;Node33</title>
<path fill="none" stroke="#191970" d="M601.6115,-141.5171C671.0206,-132.7719 782.3704,-117.3748 877.5,-98 880.241,-97.4418 883.0441,-96.837 885.8684,-96.201"/>
<polygon fill="#191970" stroke="#191970" points="600.7503,-138.0974 591.2617,-142.8109 601.6186,-145.0433 600.7503,-138.0974"/>
</g>
<!-- Node34 -->
<g id="node16" class="node">
<title>Node34</title>
<g id="a_node16"><a xlink:href="$init_8c.html" xlink:title="esp&#45;open&#45;lwip/lwip\l/core/init.c">
<polygon fill="#ffffff" stroke="#000000" points="1007,-67.5 1007,-97.5 1106,-97.5 1106,-67.5 1007,-67.5"/>
<text text-anchor="start" x="1015" y="-85.5" font-family="Helvetica,sans-Serif" font-size="10.00" fill="#000000">esp&#45;open&#45;lwip/lwip</text>
<text text-anchor="middle" x="1056.5" y="-74.5" font-family="Helvetica,sans-Serif" font-size="10.00" fill="#000000">/core/init.c</text>
</a>
</g>
</g>
<!-- Node19&#45;&gt;Node34 -->
<g id="edge16" class="edge">
<title>Node19&#45;&gt;Node34</title>
<path fill="none" stroke="#191970" d="M601.4662,-145.2472C692.0836,-138.7703 858.5248,-124.3165 998.5,-98 1001.2657,-97.48 1004.0932,-96.8973 1006.9387,-96.2709"/>
<polygon fill="#191970" stroke="#191970" points="601.0623,-141.7669 591.3329,-145.9607 601.554,-148.7496 601.0623,-141.7669"/>
</g>
<!-- Node20&#45;&gt;Node21 -->
<g id="edge2" class="edge">
<title>Node20&#45;&gt;Node21</title>
<path fill="none" stroke="#191970" d="M118.4539,-67.3619C98.7144,-54.3957 70.8901,-36.119 54.087,-25.0817"/>
<polygon fill="#191970" stroke="#191970" points="116.6062,-70.3357 126.8859,-72.9005 120.4493,-64.485 116.6062,-70.3357"/>
</g>
<!-- Node22 -->
<g id="node4" class="node">
<title>Node22</title>
<g id="a_node4"><a xlink:href="$esp-open-sdk_2esp-open-lwip_2user_2user__main_8c.html" xlink:title="esp&#45;open&#45;lwip/user\l/user_main.c">
<polygon fill="#ffffff" stroke="#000000" points="97,-.5 97,-30.5 198,-30.5 198,-.5 97,-.5"/>
<text text-anchor="start" x="105" y="-18.5" font-family="Helvetica,sans-Serif" font-size="10.00" fill="#000000">esp&#45;open&#45;lwip/user</text>
<text text-anchor="middle" x="147.5" y="-7.5" font-family="Helvetica,sans-Serif" font-size="10.00" fill="#000000">/user_main.c</text>
</a>
</g>
</g>
<!-- Node20&#45;&gt;Node22 -->
<g id="edge3" class="edge">
<title>Node20&#45;&gt;Node22</title>
<path fill="none" stroke="#191970" d="M143.2663,-62.7758C144.1898,-52.4641 145.3021,-40.0437 146.1548,-30.5218"/>
<polygon fill="#191970" stroke="#191970" points="139.7656,-62.6282 142.3597,-72.9005 146.7377,-63.2526 139.7656,-62.6282"/>
</g>
<!-- Node23 -->
<g id="node5" class="node">
<title>Node23</title>
<g id="a_node5"><a xlink:href="$watchdog_8c.html" xlink:title="user/watchdog.c">
<polygon fill="#ffffff" stroke="#000000" points="216,-6 216,-25 305,-25 305,-6 216,-6"/>
<text text-anchor="middle" x="260.5" y="-13" font-family="Helvetica,sans-Serif" font-size="10.00" fill="#000000">user/watchdog.c</text>
</a>
</g>
</g>
<!-- Node20&#45;&gt;Node23 -->
<g id="edge4" class="edge">
<title>Node20&#45;&gt;Node23</title>
<path fill="none" stroke="#191970" d="M167.4587,-67.8846C190.5368,-54.891 223.6133,-36.2681 243.4818,-25.0817"/>
<polygon fill="#191970" stroke="#191970" points="165.5465,-64.9446 158.5498,-72.9005 168.9808,-71.0442 165.5465,-64.9446"/>
</g>
<!-- Node28&#45;&gt;Node29 -->
<g id="edge11" class="edge">
<title>Node28&#45;&gt;Node29</title>
<path fill="none" stroke="#191970" d="M662.9791,-61.7951C647.6955,-51.7558 629.6652,-39.9124 615.6673,-30.7177"/>
<polygon fill="#191970" stroke="#191970" points="661.3295,-64.8991 671.6092,-67.4639 665.1726,-59.0484 661.3295,-64.8991"/>
</g>
<!-- Node30 -->
<g id="node12" class="node">
<title>Node30</title>
<g id="a_node12"><a xlink:href="$ip__frag_8c.html" xlink:title="esp&#45;open&#45;lwip/lwip\l/core/ipv4/ip_frag.c">
<polygon fill="#ffffff" stroke="#000000" points="660,-.5 660,-30.5 761,-30.5 761,-.5 660,-.5"/>
<text text-anchor="start" x="668" y="-18.5" font-family="Helvetica,sans-Serif" font-size="10.00" fill="#000000">esp&#45;open&#45;lwip/lwip</text>
<text text-anchor="middle" x="710.5" y="-7.5" font-family="Helvetica,sans-Serif" font-size="10.00" fill="#000000">/core/ipv4/ip_frag.c</text>
</a>
</g>
</g>
<!-- Node28&#45;&gt;Node30 -->
<g id="edge12" class="edge">
<title>Node28&#45;&gt;Node30</title>
<path fill="none" stroke="#191970" d="M700.5136,-57.3179C702.6573,-48.3414 705.0041,-38.5143 706.8837,-30.6432"/>
<polygon fill="#191970" stroke="#191970" points="697.0492,-56.7572 698.1306,-67.2967 703.8577,-58.3831 697.0492,-56.7572"/>
</g>
<!-- Node31 -->
<g id="node13" class="node">
<title>Node31</title>
<g id="a_node13"><a xlink:href="$memp_8c.html" xlink:title="esp&#45;open&#45;lwip/lwip\l/core/memp.c">
<polygon fill="#ffffff" stroke="#000000" points="779,-.5 779,-30.5 878,-30.5 878,-.5 779,-.5"/>
<text text-anchor="start" x="787" y="-18.5" font-family="Helvetica,sans-Serif" font-size="10.00" fill="#000000">esp&#45;open&#45;lwip/lwip</text>
<text text-anchor="middle" x="828.5" y="-7.5" font-family="Helvetica,sans-Serif" font-size="10.00" fill="#000000">/core/memp.c</text>
</a>
</g>
</g>
<!-- Node28&#45;&gt;Node31 -->
<g id="edge13" class="edge">
<title>Node28&#45;&gt;Node31</title>
<path fill="none" stroke="#191970" d="M733.6736,-62.9132C754.2099,-52.645 778.9877,-40.2561 798.0645,-30.7177"/>
<polygon fill="#191970" stroke="#191970" points="731.9512,-59.8612 724.5722,-67.4639 735.0818,-66.1222 731.9512,-59.8612"/>
</g>
</g>
</svg>
