<?xml version="1.0" encoding="UTF-8" standalone="no"?>
<!DOCTYPE svg PUBLIC "-//W3C//DTD SVG 1.1//EN"
 "http://www.w3.org/Graphics/SVG/1.1/DTD/svg11.dtd">
<!-- Generated by graphviz version 2.41.20170323.1842 (20170323.1842)
 -->
<!-- Title: esp&#45;open&#45;lwip/lwip/core/ipv4/ip.c Pages: 1 -->
<svg width="1464pt" height="711pt"
 viewBox="0.00 0.00 1464.00 711.00" xmlns="http://www.w3.org/2000/svg" xmlns:xlink="http://www.w3.org/1999/xlink">
<g id="graph0" class="graph" transform="scale(1 1) rotate(0) translate(4 707)">
<title>esp&#45;open&#45;lwip/lwip/core/ipv4/ip.c</title>
<polygon fill="#ffffff" stroke="transparent" points="-4,4 -4,-707 1460,-707 1460,4 -4,4"/>
<!-- Node0 -->
<g id="node1" class="node">
<title>Node0</title>
<polygon fill="#bfbfbf" stroke="#000000" points="886.5,-672.5 886.5,-702.5 985.5,-702.5 985.5,-672.5 886.5,-672.5"/>
<text text-anchor="start" x="894.5" y="-690.5" font-family="Helvetica,sans-Serif" font-size="10.00" fill="#000000">esp&#45;open&#45;lwip/lwip</text>
<text text-anchor="middle" x="936" y="-679.5" font-family="Helvetica,sans-Serif" font-size="10.00" fill="#000000">/core/ipv4/ip.c</text>
</g>
<!-- Node1 -->
<g id="node2" class="node">
<title>Node1</title>
<g id="a_node2"><a xlink:href="opt_8h.html" target="_top" xlink:title="lwip/opt.h">
<polygon fill="#ffffff" stroke="#000000" points="761.5,-336.5 761.5,-355.5 820.5,-355.5 820.5,-336.5 761.5,-336.5"/>
<text text-anchor="middle" x="791" y="-343.5" font-family="Helvetica,sans-Serif" font-size="10.00" fill="#000000">lwip/opt.h</text>
</a>
</g>
</g>
<!-- Node0&#45;&gt;Node1 -->
<g id="edge1" class="edge">
<title>Node0&#45;&gt;Node1</title>
<path fill="none" stroke="#191970" d="M985.6513,-683.5599C1080.9037,-675.5751 1282.0316,-656.4947 1306,-636 1329.2955,-616.0807 1326,-600.6506 1326,-570 1326,-570 1326,-570 1326,-458 1326,-404.0041 1274.9036,-410.0106 1224,-392 1151.9463,-366.5061 923.5717,-352.5868 830.777,-347.8627"/>
<polygon fill="#191970" stroke="#191970" points="830.8314,-344.3611 820.669,-347.3574 830.4818,-351.3524 830.8314,-344.3611"/>
</g>
<!-- Node12 -->
<g id="node13" class="node">
<title>Node12</title>
<polygon fill="#ffffff" stroke="#bfbfbf" points="1190.5,-56.5 1190.5,-75.5 1239.5,-75.5 1239.5,-56.5 1190.5,-56.5"/>
<text text-anchor="middle" x="1215" y="-63.5" font-family="Helvetica,sans-Serif" font-size="10.00" fill="#000000">string.h</text>
</g>
<!-- Node0&#45;&gt;Node12 -->
<g id="edge82" class="edge">
<title>Node0&#45;&gt;Node12</title>
<path fill="none" stroke="#191970" d="M985.6109,-686.4838C1078.3091,-683.7074 1273.3704,-673.4576 1328,-636 1355.5575,-617.1048 1364,-603.4132 1364,-570 1364,-570 1364,-570 1364,-178 1364,-120.9572 1293.3583,-89.3686 1249.3561,-75.2254"/>
<polygon fill="#191970" stroke="#191970" points="1250.1911,-71.8206 1239.6043,-72.2341 1248.1382,-78.5128 1250.1911,-71.8206"/>
</g>
<!-- Node14 -->
<g id="node15" class="node">
<title>Node14</title>
<g id="a_node15"><a xlink:href="ip_8h.html" target="_top" xlink:title="lwip/ip.h">
<polygon fill="#ffffff" stroke="#000000" points="191.5,-560.5 191.5,-579.5 244.5,-579.5 244.5,-560.5 191.5,-560.5"/>
<text text-anchor="middle" x="218" y="-567.5" font-family="Helvetica,sans-Serif" font-size="10.00" fill="#000000">lwip/ip.h</text>
</a>
</g>
</g>
<!-- Node0&#45;&gt;Node14 -->
<g id="edge15" class="edge">
<title>Node0&#45;&gt;Node14</title>
<path fill="none" stroke="#191970" d="M886.3263,-685.6082C763.4398,-680.5361 447.8674,-665.0115 347,-636 307.5542,-624.6546 265.99,-600.9623 241.0301,-585.2695"/>
<polygon fill="#191970" stroke="#191970" points="242.6247,-582.1346 232.316,-579.6892 238.8498,-588.0295 242.6247,-582.1346"/>
</g>
<!-- Node15 -->
<g id="node16" class="node">
<title>Node15</title>
<g id="a_node16"><a xlink:href="def_8h.html" target="_top" xlink:title="lwip/def.h">
<polygon fill="#ffffff" stroke="#000000" points="46.5,-392.5 46.5,-411.5 105.5,-411.5 105.5,-392.5 46.5,-392.5"/>
<text text-anchor="middle" x="76" y="-399.5" font-family="Helvetica,sans-Serif" font-size="10.00" fill="#000000">lwip/def.h</text>
</a>
</g>
</g>
<!-- Node0&#45;&gt;Node15 -->
<g id="edge35" class="edge">
<title>Node0&#45;&gt;Node15</title>
<path fill="none" stroke="#191970" d="M886.3374,-686.5416C692.8317,-682.1607 0,-660.1788 0,-570 0,-570 0,-570 0,-514 0,-474.2361 33.2071,-438.1042 55.7208,-418.177"/>
<polygon fill="#191970" stroke="#191970" points="58.1079,-420.7412 63.4501,-411.5918 53.5683,-415.4128 58.1079,-420.7412"/>
</g>
<!-- Node19 -->
<g id="node20" class="node">
<title>Node19</title>
<g id="a_node20"><a xlink:href="netif_8h.html" target="_top" xlink:title="lwip/netif.h">
<polygon fill="#ffffff" stroke="#000000" points="332,-504.5 332,-523.5 396,-523.5 396,-504.5 332,-504.5"/>
<text text-anchor="middle" x="364" y="-511.5" font-family="Helvetica,sans-Serif" font-size="10.00" fill="#000000">lwip/netif.h</text>
</a>
</g>
</g>
<!-- Node0&#45;&gt;Node19 -->
<g id="edge49" class="edge">
<title>Node0&#45;&gt;Node19</title>
<path fill="none" stroke="#191970" d="M886.2162,-685.4601C763.2557,-680.0191 452.4098,-663.6609 415,-636 381.9039,-611.5286 370.1503,-561.491 366.0783,-533.7032"/>
<polygon fill="#191970" stroke="#191970" points="369.5285,-533.0893 364.7969,-523.6097 362.5842,-533.971 369.5285,-533.0893"/>
</g>
<!-- Node20 -->
<g id="node21" class="node">
<title>Node20</title>
<g id="a_node21"><a xlink:href="esp-open-lwip_2include_2lwip_2mem_8h.html" target="_top" xlink:title="lwip/mem.h">
<polygon fill="#ffffff" stroke="#000000" points="838.5,-392.5 838.5,-411.5 905.5,-411.5 905.5,-392.5 838.5,-392.5"/>
<text text-anchor="middle" x="872" y="-399.5" font-family="Helvetica,sans-Serif" font-size="10.00" fill="#000000">lwip/mem.h</text>
</a>
</g>
</g>
<!-- Node0&#45;&gt;Node20 -->
<g id="edge36" class="edge">
<title>Node0&#45;&gt;Node20</title>
<path fill="none" stroke="#191970" d="M930.9365,-672.4828C916.7009,-629.9692 876.9721,-509.2006 871,-468 868.7876,-452.7373 869.1777,-435.2822 870.0454,-422.1577"/>
<polygon fill="#191970" stroke="#191970" points="873.5572,-422.1531 870.8775,-411.9028 866.5801,-421.5869 873.5572,-422.1531"/>
</g>
<!-- Node21 -->
<g id="node22" class="node">
<title>Node21</title>
<g id="a_node22"><a xlink:href="ip__frag_8h.html" target="_top" xlink:title="lwip/ip_frag.h">
<polygon fill="#ffffff" stroke="#000000" points="424.5,-616.5 424.5,-635.5 499.5,-635.5 499.5,-616.5 424.5,-616.5"/>
<text text-anchor="middle" x="462" y="-623.5" font-family="Helvetica,sans-Serif" font-size="10.00" fill="#000000">lwip/ip_frag.h</text>
</a>
</g>
</g>
<!-- Node0&#45;&gt;Node21 -->
<g id="edge38" class="edge">
<title>Node0&#45;&gt;Node21</title>
<path fill="none" stroke="#191970" d="M886.1696,-681.0347C794.3926,-669.1269 599.8047,-643.8797 509.6693,-632.1849"/>
<polygon fill="#191970" stroke="#191970" points="510.0925,-628.7106 499.7252,-630.8947 509.1917,-635.6524 510.0925,-628.7106"/>
</g>
<!-- Node22 -->
<g id="node23" class="node">
<title>Node22</title>
<g id="a_node23"><a xlink:href="inet__chksum_8h.html" target="_top" xlink:title="lwip/inet_chksum.h">
<polygon fill="#ffffff" stroke="#000000" points="604.5,-504.5 604.5,-523.5 705.5,-523.5 705.5,-504.5 604.5,-504.5"/>
<text text-anchor="middle" x="655" y="-511.5" font-family="Helvetica,sans-Serif" font-size="10.00" fill="#000000">lwip/inet_chksum.h</text>
</a>
</g>
</g>
<!-- Node0&#45;&gt;Node22 -->
<g id="edge45" class="edge">
<title>Node0&#45;&gt;Node22</title>
<path fill="none" stroke="#191970" d="M911.5547,-672.4065C858.2721,-639.5079 732.2053,-561.6695 679.1724,-528.9249"/>
<polygon fill="#191970" stroke="#191970" points="680.7889,-525.8096 670.4413,-523.534 677.1113,-531.7658 680.7889,-525.8096"/>
</g>
<!-- Node23 -->
<g id="node24" class="node">
<title>Node23</title>
<g id="a_node24"><a xlink:href="icmp_8h.html" target="_top" xlink:title="lwip/icmp.h">
<polygon fill="#ffffff" stroke="#000000" points="490,-560.5 490,-579.5 556,-579.5 556,-560.5 490,-560.5"/>
<text text-anchor="middle" x="523" y="-567.5" font-family="Helvetica,sans-Serif" font-size="10.00" fill="#000000">lwip/icmp.h</text>
</a>
</g>
</g>
<!-- Node0&#45;&gt;Node23 -->
<g id="edge50" class="edge">
<title>Node0&#45;&gt;Node23</title>
<path fill="none" stroke="#191970" d="M886.4006,-680.4431C834.4869,-672.373 750.953,-657.4464 681,-636 634.5802,-621.7685 583.0808,-598.8323 551.8771,-584.0909"/>
<polygon fill="#191970" stroke="#191970" points="553.0241,-580.7603 542.4914,-579.6142 550.0104,-587.0784 553.0241,-580.7603"/>
</g>
<!-- Node24 -->
<g id="node25" class="node">
<title>Node24</title>
<g id="a_node25"><a xlink:href="igmp_8h.html" target="_top" xlink:title="lwip/igmp.h">
<polygon fill="#ffffff" stroke="#000000" points="290.5,-560.5 290.5,-579.5 357.5,-579.5 357.5,-560.5 290.5,-560.5"/>
<text text-anchor="middle" x="324" y="-567.5" font-family="Helvetica,sans-Serif" font-size="10.00" fill="#000000">lwip/igmp.h</text>
</a>
</g>
</g>
<!-- Node0&#45;&gt;Node24 -->
<g id="edge55" class="edge">
<title>Node0&#45;&gt;Node24</title>
<path fill="none" stroke="#191970" d="M886.3155,-685.302C756.8697,-679.2478 416.191,-661.0989 372,-636 353.4048,-625.4386 340.0509,-604.3878 332.222,-588.8881"/>
<polygon fill="#191970" stroke="#191970" points="335.3062,-587.2224 327.8756,-579.6702 328.9748,-590.2079 335.3062,-587.2224"/>
</g>
<!-- Node25 -->
<g id="node26" class="node">
<title>Node25</title>
<g id="a_node26"><a xlink:href="raw_8h.html" target="_top" xlink:title="lwip/raw.h">
<polygon fill="#ffffff" stroke="#000000" points="964.5,-560.5 964.5,-579.5 1025.5,-579.5 1025.5,-560.5 964.5,-560.5"/>
<text text-anchor="middle" x="995" y="-567.5" font-family="Helvetica,sans-Serif" font-size="10.00" fill="#000000">lwip/raw.h</text>
</a>
</g>
</g>
<!-- Node0&#45;&gt;Node25 -->
<g id="edge60" class="edge">
<title>Node0&#45;&gt;Node25</title>
<path fill="none" stroke="#191970" d="M943.7132,-672.1389C954.4881,-650.6806 974.0242,-611.7738 985.6252,-588.6702"/>
<polygon fill="#191970" stroke="#191970" points="988.8404,-590.0667 990.1999,-579.5595 982.5847,-586.9256 988.8404,-590.0667"/>
</g>
<!-- Node26 -->
<g id="node27" class="node">
<title>Node26</title>
<g id="a_node27"><a xlink:href="udp_8h.html" target="_top" xlink:title="lwip/udp.h">
<polygon fill="#ffffff" stroke="#000000" points="1002,-504.5 1002,-523.5 1064,-523.5 1064,-504.5 1002,-504.5"/>
<text text-anchor="middle" x="1033" y="-511.5" font-family="Helvetica,sans-Serif" font-size="10.00" fill="#000000">lwip/udp.h</text>
</a>
</g>
</g>
<!-- Node0&#45;&gt;Node26 -->
<g id="edge62" class="edge">
<title>Node0&#45;&gt;Node26</title>
<path fill="none" stroke="#191970" d="M956.9202,-672.4812C980.8116,-653.8993 1018.5821,-619.7979 1034,-580 1039.6921,-565.307 1038.9812,-547.3574 1037.1034,-533.8882"/>
<polygon fill="#191970" stroke="#191970" points="1040.5122,-533.0591 1035.3665,-523.7978 1033.6136,-534.2466 1040.5122,-533.0591"/>
</g>
<!-- Node27 -->
<g id="node28" class="node">
<title>Node27</title>
<g id="a_node28"><a xlink:href="tcp__impl_8h.html" target="_top" xlink:title="lwip/tcp_impl.h">
<polygon fill="#ffffff" stroke="#000000" points="1059,-448.5 1059,-467.5 1141,-467.5 1141,-448.5 1059,-448.5"/>
<text text-anchor="middle" x="1100" y="-455.5" font-family="Helvetica,sans-Serif" font-size="10.00" fill="#000000">lwip/tcp_impl.h</text>
</a>
</g>
</g>
<!-- Node0&#45;&gt;Node27 -->
<g id="edge64" class="edge">
<title>Node0&#45;&gt;Node27</title>
<path fill="none" stroke="#191970" d="M969.0938,-672.3366C985.8209,-663.484 1005.5745,-651.0808 1020,-636 1064.5889,-589.3855 1087.1043,-513.6505 1095.716,-477.8945"/>
<polygon fill="#191970" stroke="#191970" points="1099.2122,-478.3069 1098.0339,-467.7778 1092.389,-476.7436 1099.2122,-478.3069"/>
</g>
<!-- Node28 -->
<g id="node29" class="node">
<title>Node28</title>
<g id="a_node29"><a xlink:href="snmp_8h.html" target="_top" xlink:title="lwip/snmp.h">
<polygon fill="#ffffff" stroke="#000000" points="800.5,-504.5 800.5,-523.5 869.5,-523.5 869.5,-504.5 800.5,-504.5"/>
<text text-anchor="middle" x="835" y="-511.5" font-family="Helvetica,sans-Serif" font-size="10.00" fill="#000000">lwip/snmp.h</text>
</a>
</g>
</g>
<!-- Node0&#45;&gt;Node28 -->
<g id="edge66" class="edge">
<title>Node0&#45;&gt;Node28</title>
<path fill="none" stroke="#191970" d="M917.2488,-672.3544C906.4026,-662.8267 893.1359,-649.7613 884,-636 862.1159,-603.0362 847.4016,-558.7754 840.1814,-533.6314"/>
<polygon fill="#191970" stroke="#191970" points="843.508,-532.5288 837.4695,-523.8233 836.7611,-534.3944 843.508,-532.5288"/>
</g>
<!-- Node29 -->
<g id="node30" class="node">
<title>Node29</title>
<g id="a_node30"><a xlink:href="dhcp_8h.html" target="_top" xlink:title="lwip/dhcp.h">
<polygon fill="#ffffff" stroke="#000000" points="1120.5,-560.5 1120.5,-579.5 1187.5,-579.5 1187.5,-560.5 1120.5,-560.5"/>
<text text-anchor="middle" x="1154" y="-567.5" font-family="Helvetica,sans-Serif" font-size="10.00" fill="#000000">lwip/dhcp.h</text>
</a>
</g>
</g>
<!-- Node0&#45;&gt;Node29 -->
<g id="edge69" class="edge">
<title>Node0&#45;&gt;Node29</title>
<path fill="none" stroke="#191970" d="M983.8985,-672.4899C1009.6277,-663.529 1041.4278,-650.978 1068,-636 1093.131,-621.8344 1118.999,-600.9707 1135.7118,-586.5085"/>
<polygon fill="#191970" stroke="#191970" points="1138.3693,-588.8322 1143.5646,-579.5986 1133.7451,-583.577 1138.3693,-588.8322"/>
</g>
<!-- Node30 -->
<g id="node31" class="node">
<title>Node30</title>
<g id="a_node31"><a xlink:href="autoip_8h.html" target="_top" xlink:title="lwip/autoip.h">
<polygon fill="#ffffff" stroke="#000000" points="1120,-616.5 1120,-635.5 1192,-635.5 1192,-616.5 1120,-616.5"/>
<text text-anchor="middle" x="1156" y="-623.5" font-family="Helvetica,sans-Serif" font-size="10.00" fill="#000000">lwip/autoip.h</text>
</a>
</g>
</g>
<!-- Node0&#45;&gt;Node30 -->
<g id="edge71" class="edge">
<title>Node0&#45;&gt;Node30</title>
<path fill="none" stroke="#191970" d="M985.6466,-673.6215C1023.6424,-663 1075.5528,-648.4886 1112.0533,-638.2851"/>
<polygon fill="#191970" stroke="#191970" points="1113.2269,-641.5913 1121.9153,-635.5282 1111.3422,-634.8498 1113.2269,-641.5913"/>
</g>
<!-- Node31 -->
<g id="node32" class="node">
<title>Node31</title>
<g id="a_node32"><a xlink:href="stats_8h.html" target="_top" xlink:title="lwip/stats.h">
<polygon fill="#ffffff" stroke="#000000" points="880,-448.5 880,-467.5 946,-467.5 946,-448.5 880,-448.5"/>
<text text-anchor="middle" x="913" y="-455.5" font-family="Helvetica,sans-Serif" font-size="10.00" fill="#000000">lwip/stats.h</text>
</a>
</g>
</g>
<!-- Node0&#45;&gt;Node31 -->
<g id="edge73" class="edge">
<title>Node0&#45;&gt;Node31</title>
<path fill="none" stroke="#191970" d="M934.4909,-672.4419C930.474,-632.3599 919.5195,-523.0534 914.9955,-477.9113"/>
<polygon fill="#191970" stroke="#191970" points="918.4718,-477.4992 913.992,-467.8981 911.5067,-478.1973 918.4718,-477.4992"/>
</g>
<!-- Node34 -->
<g id="node35" class="node">
<title>Node34</title>
<g id="a_node35"><a xlink:href="lwip__napt_8h.html" target="_top" xlink:title="lwip/lwip_napt.h">
<polygon fill="#ffffff" stroke="#000000" points="1210.5,-616.5 1210.5,-635.5 1297.5,-635.5 1297.5,-616.5 1210.5,-616.5"/>
<text text-anchor="middle" x="1254" y="-623.5" font-family="Helvetica,sans-Serif" font-size="10.00" fill="#000000">lwip/lwip_napt.h</text>
</a>
</g>
</g>
<!-- Node0&#45;&gt;Node34 -->
<g id="edge79" class="edge">
<title>Node0&#45;&gt;Node34</title>
<path fill="none" stroke="#191970" d="M985.6875,-677.8906C1043.9783,-666.6174 1140.26,-647.9969 1200.251,-636.3949"/>
<polygon fill="#191970" stroke="#191970" points="1201.1304,-639.7897 1210.2839,-634.4545 1199.8012,-632.9171 1201.1304,-639.7897"/>
</g>
<!-- Node35 -->
<g id="node36" class="node">
<title>Node35</title>
<g id="a_node36"><a xlink:href="perf_8h.html" target="_top" xlink:title="arch/perf.h">
<polygon fill="#ffffff" stroke="#000000" points="1392,-616.5 1392,-635.5 1456,-635.5 1456,-616.5 1392,-616.5"/>
<text text-anchor="middle" x="1424" y="-623.5" font-family="Helvetica,sans-Serif" font-size="10.00" fill="#000000">arch/perf.h</text>
</a>
</g>
</g>
<!-- Node0&#45;&gt;Node35 -->
<g id="edge81" class="edge">
<title>Node0&#45;&gt;Node35</title>
<path fill="none" stroke="#191970" d="M985.6068,-683.3197C1067.6104,-676.0517 1236.448,-659.5743 1378,-636 1379.2697,-635.7885 1380.5573,-635.5653 1381.8558,-635.3324"/>
<polygon fill="#191970" stroke="#191970" points="1382.7489,-638.7248 1391.9068,-633.3971 1381.4254,-631.851 1382.7489,-638.7248"/>
</g>
<!-- Node2 -->
<g id="node3" class="node">
<title>Node2</title>
<g id="a_node3"><a xlink:href="lwipopts_8h.html" target="_top" xlink:title="lwipopts.h">
<polygon fill="#ffffff" stroke="#000000" points="760.5,-280.5 760.5,-299.5 821.5,-299.5 821.5,-280.5 760.5,-280.5"/>
<text text-anchor="middle" x="791" y="-287.5" font-family="Helvetica,sans-Serif" font-size="10.00" fill="#000000">lwipopts.h</text>
</a>
</g>
</g>
<!-- Node1&#45;&gt;Node2 -->
<g id="edge2" class="edge">
<title>Node1&#45;&gt;Node2</title>
<path fill="none" stroke="#191970" d="M791,-336.2455C791,-328.9382 791,-318.6944 791,-309.7046"/>
<polygon fill="#191970" stroke="#191970" points="794.5001,-309.6426 791,-299.6427 787.5001,-309.6427 794.5001,-309.6426"/>
</g>
<!-- Node3 -->
<g id="node4" class="node">
<title>Node3</title>
<g id="a_node4"><a xlink:href="esp-open-sdk_2esp-open-lwip_2include_2lwip_2debug_8h.html" target="_top" xlink:title="lwip/debug.h">
<polygon fill="#ffffff" stroke="#000000" points="601.5,-280.5 601.5,-299.5 674.5,-299.5 674.5,-280.5 601.5,-280.5"/>
<text text-anchor="middle" x="638" y="-287.5" font-family="Helvetica,sans-Serif" font-size="10.00" fill="#000000">lwip/debug.h</text>
</a>
</g>
</g>
<!-- Node1&#45;&gt;Node3 -->
<g id="edge3" class="edge">
<title>Node1&#45;&gt;Node3</title>
<path fill="none" stroke="#191970" d="M764.6984,-336.3733C739.5872,-327.1822 701.5562,-313.2624 673.7128,-303.0713"/>
<polygon fill="#191970" stroke="#191970" points="674.5522,-299.6516 663.9584,-299.5011 672.1462,-306.2251 674.5522,-299.6516"/>
</g>
<!-- Node4 -->
<g id="node5" class="node">
<title>Node4</title>
<g id="a_node5"><a xlink:href="arch_8h.html" target="_top" xlink:title="lwip/arch.h">
<polygon fill="#ffffff" stroke="#000000" points="437,-224.5 437,-243.5 501,-243.5 501,-224.5 437,-224.5"/>
<text text-anchor="middle" x="469" y="-231.5" font-family="Helvetica,sans-Serif" font-size="10.00" fill="#000000">lwip/arch.h</text>
</a>
</g>
</g>
<!-- Node3&#45;&gt;Node4 -->
<g id="edge4" class="edge">
<title>Node3&#45;&gt;Node4</title>
<path fill="none" stroke="#191970" d="M608.9479,-280.3733C580.8457,-271.0613 538.0946,-256.8953 507.2393,-246.671"/>
<polygon fill="#191970" stroke="#191970" points="508.2664,-243.3243 497.673,-243.5011 506.0645,-249.969 508.2664,-243.3243"/>
</g>
<!-- Node5 -->
<g id="node6" class="node">
<title>Node5</title>
<g id="a_node6"><a xlink:href="cc_8h.html" target="_top" xlink:title="arch/cc.h">
<polygon fill="#ffffff" stroke="#000000" points="609.5,-168.5 609.5,-187.5 666.5,-187.5 666.5,-168.5 609.5,-168.5"/>
<text text-anchor="middle" x="638" y="-175.5" font-family="Helvetica,sans-Serif" font-size="10.00" fill="#000000">arch/cc.h</text>
</a>
</g>
</g>
<!-- Node4&#45;&gt;Node5 -->
<g id="edge5" class="edge">
<title>Node4&#45;&gt;Node5</title>
<path fill="none" stroke="#191970" d="M498.0521,-224.3733C526.1543,-215.0613 568.9054,-200.8953 599.7607,-190.671"/>
<polygon fill="#191970" stroke="#191970" points="600.9355,-193.969 609.327,-187.5011 598.7336,-187.3243 600.9355,-193.969"/>
</g>
<!-- Node6 -->
<g id="node7" class="node">
<title>Node6</title>
<g id="a_node7"><a xlink:href="c__types_8h.html" target="_top" xlink:title="c_types.h">
<polygon fill="#ffffff" stroke="#000000" points="637.5,-56.5 637.5,-75.5 696.5,-75.5 696.5,-56.5 637.5,-56.5"/>
<text text-anchor="middle" x="667" y="-63.5" font-family="Helvetica,sans-Serif" font-size="10.00" fill="#000000">c_types.h</text>
</a>
</g>
</g>
<!-- Node5&#45;&gt;Node6 -->
<g id="edge6" class="edge">
<title>Node5&#45;&gt;Node6</title>
<path fill="none" stroke="#191970" d="M640.4725,-168.4509C645.2238,-150.1013 655.7131,-109.5908 661.9847,-85.3693"/>
<polygon fill="#191970" stroke="#191970" points="665.4153,-86.083 664.5337,-75.5249 658.6388,-84.3283 665.4153,-86.083"/>
</g>
<!-- Node9 -->
<g id="node10" class="node">
<title>Node9</title>
<g id="a_node10"><a xlink:href="ets__sys_8h.html" target="_top" xlink:title="ets_sys.h">
<polygon fill="#ffffff" stroke="#000000" points="579.5,-112.5 579.5,-131.5 638.5,-131.5 638.5,-112.5 579.5,-112.5"/>
<text text-anchor="middle" x="609" y="-119.5" font-family="Helvetica,sans-Serif" font-size="10.00" fill="#000000">ets_sys.h</text>
</a>
</g>
</g>
<!-- Node5&#45;&gt;Node9 -->
<g id="edge9" class="edge">
<title>Node5&#45;&gt;Node9</title>
<path fill="none" stroke="#191970" d="M632.9486,-168.2455C628.9981,-160.617 623.3903,-149.7881 618.5942,-140.5267"/>
<polygon fill="#191970" stroke="#191970" points="621.7001,-138.9131 613.9935,-131.6427 615.4841,-142.1321 621.7001,-138.9131"/>
</g>
<!-- Node11 -->
<g id="node12" class="node">
<title>Node11</title>
<g id="a_node12"><a xlink:href="osapi_8h.html" target="_top" xlink:title="osapi.h">
<polygon fill="#ffffff" stroke="#000000" points="982.5,-112.5 982.5,-131.5 1031.5,-131.5 1031.5,-112.5 982.5,-112.5"/>
<text text-anchor="middle" x="1007" y="-119.5" font-family="Helvetica,sans-Serif" font-size="10.00" fill="#000000">osapi.h</text>
</a>
</g>
</g>
<!-- Node5&#45;&gt;Node11 -->
<g id="edge12" class="edge">
<title>Node5&#45;&gt;Node11</title>
<path fill="none" stroke="#191970" d="M666.6478,-173.6524C733.4653,-163.512 899.4486,-138.3222 972.0582,-127.3028"/>
<polygon fill="#191970" stroke="#191970" points="972.709,-130.7442 982.0706,-125.7833 971.6586,-123.8235 972.709,-130.7442"/>
</g>
<!-- Node7 -->
<g id="node8" class="node">
<title>Node7</title>
<polygon fill="#ffffff" stroke="#bfbfbf" points="606.5,-.5 606.5,-19.5 655.5,-19.5 655.5,-.5 606.5,-.5"/>
<text text-anchor="middle" x="631" y="-7.5" font-family="Helvetica,sans-Serif" font-size="10.00" fill="#000000">stdint.h</text>
</g>
<!-- Node6&#45;&gt;Node7 -->
<g id="edge7" class="edge">
<title>Node6&#45;&gt;Node7</title>
<path fill="none" stroke="#191970" d="M660.7293,-56.2455C655.7736,-48.5367 648.717,-37.5598 642.7224,-28.2348"/>
<polygon fill="#191970" stroke="#191970" points="645.5506,-26.1618 637.1989,-19.6427 639.6624,-29.9471 645.5506,-26.1618"/>
</g>
<!-- Node8 -->
<g id="node9" class="node">
<title>Node8</title>
<polygon fill="#ffffff" stroke="#bfbfbf" points="673.5,-.5 673.5,-19.5 730.5,-19.5 730.5,-.5 673.5,-.5"/>
<text text-anchor="middle" x="702" y="-7.5" font-family="Helvetica,sans-Serif" font-size="10.00" fill="#000000">stdbool.h</text>
</g>
<!-- Node6&#45;&gt;Node8 -->
<g id="edge8" class="edge">
<title>Node6&#45;&gt;Node8</title>
<path fill="none" stroke="#191970" d="M673.0965,-56.2455C677.9145,-48.5367 684.7751,-37.5598 690.6032,-28.2348"/>
<polygon fill="#191970" stroke="#191970" points="693.6413,-29.9777 695.9733,-19.6427 687.7053,-26.2677 693.6413,-29.9777"/>
</g>
<!-- Node9&#45;&gt;Node6 -->
<g id="edge10" class="edge">
<title>Node9&#45;&gt;Node6</title>
<path fill="none" stroke="#191970" d="M619.1028,-112.2455C627.5028,-104.1352 639.6494,-92.4075 649.6084,-82.7919"/>
<polygon fill="#191970" stroke="#191970" points="652.25,-85.1066 657.0129,-75.6427 647.3878,-80.0707 652.25,-85.1066"/>
</g>
<!-- Node10 -->
<g id="node11" class="node">
<title>Node10</title>
<g id="a_node11"><a xlink:href="eagle__soc_8h.html" target="_top" xlink:title="eagle_soc.h">
<polygon fill="#ffffff" stroke="#000000" points="549,-56.5 549,-75.5 619,-75.5 619,-56.5 549,-56.5"/>
<text text-anchor="middle" x="584" y="-63.5" font-family="Helvetica,sans-Serif" font-size="10.00" fill="#000000">eagle_soc.h</text>
</a>
</g>
</g>
<!-- Node9&#45;&gt;Node10 -->
<g id="edge11" class="edge">
<title>Node9&#45;&gt;Node10</title>
<path fill="none" stroke="#191970" d="M604.6453,-112.2455C601.2756,-104.6973 596.507,-94.0158 592.4017,-84.8197"/>
<polygon fill="#191970" stroke="#191970" points="595.5773,-83.3473 588.3048,-75.6427 589.1853,-86.2009 595.5773,-83.3473"/>
</g>
<!-- Node11&#45;&gt;Node12 -->
<g id="edge13" class="edge">
<title>Node11&#45;&gt;Node12</title>
<path fill="none" stroke="#191970" d="M1031.6771,-115.3562C1068.6593,-105.3994 1138.5885,-86.5723 1180.5737,-75.2686"/>
<polygon fill="#191970" stroke="#191970" points="1181.6088,-78.6147 1190.355,-72.6352 1179.7889,-71.8553 1181.6088,-78.6147"/>
</g>
<!-- Node13 -->
<g id="node14" class="node">
<title>Node13</title>
<polygon fill="#ffffff" stroke="#bfbfbf" points="968.5,-56.5 968.5,-75.5 1045.5,-75.5 1045.5,-56.5 968.5,-56.5"/>
<text text-anchor="middle" x="1007" y="-63.5" font-family="Helvetica,sans-Serif" font-size="10.00" fill="#000000">user_config.h</text>
</g>
<!-- Node11&#45;&gt;Node13 -->
<g id="edge14" class="edge">
<title>Node11&#45;&gt;Node13</title>
<path fill="none" stroke="#191970" d="M1007,-112.2455C1007,-104.9382 1007,-94.6944 1007,-85.7046"/>
<polygon fill="#191970" stroke="#191970" points="1010.5001,-85.6426 1007,-75.6427 1003.5001,-85.6427 1010.5001,-85.6426"/>
</g>
<!-- Node14&#45;&gt;Node1 -->
<g id="edge16" class="edge">
<title>Node14&#45;&gt;Node1</title>
<path fill="none" stroke="#191970" d="M218.2189,-560.2779C218.9431,-546.6853 221.8327,-521.6853 233,-504 275.9155,-436.036 300.6253,-422.4835 375,-392 442.6647,-364.2666 661.0944,-351.7073 751.3807,-347.6053"/>
<polygon fill="#191970" stroke="#191970" points="751.6499,-351.0969 761.4851,-347.1574 751.3399,-344.1037 751.6499,-351.0969"/>
</g>
<!-- Node14&#45;&gt;Node15 -->
<g id="edge17" class="edge">
<title>Node14&#45;&gt;Node15</title>
<path fill="none" stroke="#191970" d="M191.3726,-562.1543C171.3566,-555.0542 144.4846,-542.7925 127,-524 99.4977,-494.4403 85.7129,-447.9141 79.7782,-421.6856"/>
<polygon fill="#191970" stroke="#191970" points="83.1816,-420.8616 77.6982,-411.7961 76.3314,-422.3024 83.1816,-420.8616"/>
</g>
<!-- Node16 -->
<g id="node17" class="node">
<title>Node16</title>
<g id="a_node17"><a xlink:href="pbuf_8h.html" target="_top" xlink:title="lwip/pbuf.h">
<polygon fill="#ffffff" stroke="#000000" points="355,-448.5 355,-467.5 419,-467.5 419,-448.5 355,-448.5"/>
<text text-anchor="middle" x="387" y="-455.5" font-family="Helvetica,sans-Serif" font-size="10.00" fill="#000000">lwip/pbuf.h</text>
</a>
</g>
</g>
<!-- Node14&#45;&gt;Node16 -->
<g id="edge20" class="edge">
<title>Node14&#45;&gt;Node16</title>
<path fill="none" stroke="#191970" d="M220.4276,-560.4848C224.5459,-546.2167 234.2366,-519.3223 252,-504 278.2479,-481.3591 316.1598,-469.7245 345.1293,-463.8292"/>
<polygon fill="#191970" stroke="#191970" points="345.7906,-467.2663 354.9694,-461.9747 344.4942,-460.3874 345.7906,-467.2663"/>
</g>
<!-- Node17 -->
<g id="node18" class="node">
<title>Node17</title>
<g id="a_node18"><a xlink:href="err_8h.html" target="_top" xlink:title="lwip/err.h">
<polygon fill="#ffffff" stroke="#000000" points="123.5,-392.5 123.5,-411.5 180.5,-411.5 180.5,-392.5 123.5,-392.5"/>
<text text-anchor="middle" x="152" y="-399.5" font-family="Helvetica,sans-Serif" font-size="10.00" fill="#000000">lwip/err.h</text>
</a>
</g>
</g>
<!-- Node14&#45;&gt;Node17 -->
<g id="edge28" class="edge">
<title>Node14&#45;&gt;Node17</title>
<path fill="none" stroke="#191970" d="M191.3138,-562.4734C172.7606,-555.6915 149.3924,-543.6921 138,-524 119.2335,-491.5616 132.8396,-446.1497 143.2094,-420.8749"/>
<polygon fill="#191970" stroke="#191970" points="146.4378,-422.2274 147.2181,-411.6613 140.019,-419.4346 146.4378,-422.2274"/>
</g>
<!-- Node18 -->
<g id="node19" class="node">
<title>Node18</title>
<g id="a_node19"><a xlink:href="esp-open-lwip_2include_2lwip_2ip__addr_8h.html" target="_top" xlink:title="lwip/ip_addr.h">
<polygon fill="#ffffff" stroke="#000000" points="499,-448.5 499,-467.5 577,-467.5 577,-448.5 499,-448.5"/>
<text text-anchor="middle" x="538" y="-455.5" font-family="Helvetica,sans-Serif" font-size="10.00" fill="#000000">lwip/ip_addr.h</text>
</a>
</g>
</g>
<!-- Node14&#45;&gt;Node18 -->
<g id="edge25" class="edge">
<title>Node14&#45;&gt;Node18</title>
<path fill="none" stroke="#191970" d="M230.1479,-560.3419C248.9413,-545.8871 286.6959,-518.7522 323,-504 377.4605,-481.8699 444.2041,-469.7186 488.7434,-463.5488"/>
<polygon fill="#191970" stroke="#191970" points="489.2828,-467.0079 498.731,-462.214 488.3555,-460.0696 489.2828,-467.0079"/>
</g>
<!-- Node14&#45;&gt;Node19 -->
<g id="edge29" class="edge">
<title>Node14&#45;&gt;Node19</title>
<path fill="none" stroke="#191970" d="M243.0983,-560.3733C266.9555,-551.2226 303.0335,-537.3844 329.571,-527.2057"/>
<polygon fill="#191970" stroke="#191970" points="331.1459,-530.3503 339.2292,-523.5011 328.639,-523.8145 331.1459,-530.3503"/>
</g>
<!-- Node15&#45;&gt;Node1 -->
<g id="edge19" class="edge">
<title>Node15&#45;&gt;Node1</title>
<path fill="none" stroke="#191970" d="M105.7557,-393.5995C108.5283,-392.9895 111.3073,-392.4417 114,-392 237.9734,-371.6645 625.2927,-353.284 751.0976,-347.7163"/>
<polygon fill="#191970" stroke="#191970" points="751.5816,-351.1985 761.4182,-347.2624 751.274,-344.2052 751.5816,-351.1985"/>
</g>
<!-- Node15&#45;&gt;Node4 -->
<g id="edge18" class="edge">
<title>Node15&#45;&gt;Node4</title>
<path fill="none" stroke="#191970" d="M96.2086,-392.3796C140.9859,-371.1791 252.1032,-319.2062 347,-280 375.5007,-268.2251 408.2165,-255.9558 432.5904,-247.0527"/>
<polygon fill="#191970" stroke="#191970" points="433.9548,-250.2808 442.157,-243.5746 431.5629,-243.7021 433.9548,-250.2808"/>
</g>
<!-- Node16&#45;&gt;Node1 -->
<g id="edge21" class="edge">
<title>Node16&#45;&gt;Node1</title>
<path fill="none" stroke="#191970" d="M392.8502,-448.415C402.5019,-433.5397 423.2777,-405.2337 449,-392 500.9607,-365.2669 672.3179,-352.5653 750.9374,-348.0337"/>
<polygon fill="#191970" stroke="#191970" points="751.6048,-351.5019 761.3934,-347.4479 751.2132,-344.5128 751.6048,-351.5019"/>
</g>
<!-- Node16&#45;&gt;Node17 -->
<g id="edge22" class="edge">
<title>Node16&#45;&gt;Node17</title>
<path fill="none" stroke="#191970" d="M354.817,-450.3309C312.0441,-440.1382 236.5455,-422.147 190.7104,-411.2246"/>
<polygon fill="#191970" stroke="#191970" points="191.3858,-407.7876 180.8469,-408.8741 189.7631,-414.597 191.3858,-407.7876"/>
</g>
<!-- Node17&#45;&gt;Node1 -->
<g id="edge23" class="edge">
<title>Node17&#45;&gt;Node1</title>
<path fill="none" stroke="#191970" d="M180.5636,-394.7213C185.3595,-393.6825 190.3034,-392.7231 195,-392 402.8641,-359.9968 655.1167,-349.8359 751.2223,-346.9909"/>
<polygon fill="#191970" stroke="#191970" points="751.4658,-350.4855 761.3617,-346.701 751.2657,-343.4883 751.4658,-350.4855"/>
</g>
<!-- Node17&#45;&gt;Node4 -->
<g id="edge24" class="edge">
<title>Node17&#45;&gt;Node4</title>
<path fill="none" stroke="#191970" d="M169.9516,-392.4862C222.8981,-364.4263 378.6592,-281.8778 441.875,-248.3754"/>
<polygon fill="#191970" stroke="#191970" points="443.6555,-251.393 450.8524,-243.6177 440.3776,-245.2079 443.6555,-251.393"/>
</g>
<!-- Node18&#45;&gt;Node1 -->
<g id="edge26" class="edge">
<title>Node18&#45;&gt;Node1</title>
<path fill="none" stroke="#191970" d="M554.068,-448.4649C577.3532,-434.8755 622.0668,-409.6335 662,-392 691.379,-379.0269 725.6674,-366.938 751.506,-358.4117"/>
<polygon fill="#191970" stroke="#191970" points="752.8964,-361.6397 761.3178,-355.2108 750.7254,-354.9849 752.8964,-361.6397"/>
</g>
<!-- Node18&#45;&gt;Node15 -->
<g id="edge27" class="edge">
<title>Node18&#45;&gt;Node15</title>
<path fill="none" stroke="#191970" d="M498.8427,-454.5065C411.909,-446.6327 204.0938,-427.1324 115.699,-412.0543"/>
<polygon fill="#191970" stroke="#191970" points="116.2349,-408.5947 105.7758,-410.2851 115.0062,-415.486 116.2349,-408.5947"/>
</g>
<!-- Node19&#45;&gt;Node1 -->
<g id="edge30" class="edge">
<title>Node19&#45;&gt;Node1</title>
<path fill="none" stroke="#191970" d="M381.3183,-504.3946C405.413,-491.1541 450.5409,-466.8003 490,-448 546.7937,-420.9407 560.5819,-412.6691 620,-392 664.2661,-376.6016 716.4528,-363.2299 751.4281,-354.9318"/>
<polygon fill="#191970" stroke="#191970" points="752.322,-358.3172 761.2583,-352.6257 750.7232,-351.5022 752.322,-358.3172"/>
</g>
<!-- Node19&#45;&gt;Node15 -->
<g id="edge33" class="edge">
<title>Node19&#45;&gt;Node15</title>
<path fill="none" stroke="#191970" d="M338.2442,-504.441C313.5177,-495.2281 275.1402,-480.8347 242,-468 195.6728,-450.0582 142.3266,-428.7282 108.8845,-415.2752"/>
<polygon fill="#191970" stroke="#191970" points="110.1724,-412.0207 99.5888,-411.5324 107.5578,-418.5141 110.1724,-412.0207"/>
</g>
<!-- Node19&#45;&gt;Node16 -->
<g id="edge34" class="edge">
<title>Node19&#45;&gt;Node16</title>
<path fill="none" stroke="#191970" d="M368.0063,-504.2455C371.0735,-496.7776 375.4003,-486.2427 379.1497,-477.1137"/>
<polygon fill="#191970" stroke="#191970" points="382.4779,-478.2226 383.0396,-467.6427 376.0028,-475.5631 382.4779,-478.2226"/>
</g>
<!-- Node19&#45;&gt;Node17 -->
<g id="edge31" class="edge">
<title>Node19&#45;&gt;Node17</title>
<path fill="none" stroke="#191970" d="M345.925,-504.4509C308.6102,-484.7375 222.881,-439.4465 178.9814,-416.2543"/>
<polygon fill="#191970" stroke="#191970" points="180.5061,-413.1015 170.0293,-411.5249 177.2363,-419.2908 180.5061,-413.1015"/>
</g>
<!-- Node19&#45;&gt;Node18 -->
<g id="edge32" class="edge">
<title>Node19&#45;&gt;Node18</title>
<path fill="none" stroke="#191970" d="M393.9117,-504.3733C422.8452,-495.0613 466.8611,-480.8953 498.6293,-470.671"/>
<polygon fill="#191970" stroke="#191970" points="500.0318,-473.8965 508.4787,-467.5011 497.8872,-467.2331 500.0318,-473.8965"/>
</g>
<!-- Node20&#45;&gt;Node1 -->
<g id="edge37" class="edge">
<title>Node20&#45;&gt;Node1</title>
<path fill="none" stroke="#191970" d="M857.8909,-392.2455C845.5791,-383.7337 827.5042,-371.2375 813.2462,-361.3801"/>
<polygon fill="#191970" stroke="#191970" points="815.1634,-358.4506 804.9474,-355.6427 811.1826,-364.2085 815.1634,-358.4506"/>
</g>
<!-- Node21&#45;&gt;Node1 -->
<g id="edge39" class="edge">
<title>Node21&#45;&gt;Node1</title>
<path fill="none" stroke="#191970" d="M499.7022,-620.5304C582.3177,-607.4854 772,-571.2958 772,-514 772,-514 772,-514 772,-458 772,-425.2688 779.9852,-387.9052 785.6022,-365.6716"/>
<polygon fill="#191970" stroke="#191970" points="789.0415,-366.3545 788.1965,-355.7934 782.2711,-364.5763 789.0415,-366.3545"/>
</g>
<!-- Node21&#45;&gt;Node14 -->
<g id="edge44" class="edge">
<title>Node21&#45;&gt;Node14</title>
<path fill="none" stroke="#191970" d="M424.4097,-617.3727C378.1775,-606.762 300.2246,-588.8712 254.4985,-578.3767"/>
<polygon fill="#191970" stroke="#191970" points="255.2339,-574.9546 244.7043,-576.1289 253.668,-581.7772 255.2339,-574.9546"/>
</g>
<!-- Node21&#45;&gt;Node16 -->
<g id="edge41" class="edge">
<title>Node21&#45;&gt;Node16</title>
<path fill="none" stroke="#191970" d="M457.7528,-616.4862C445.7944,-589.6994 411.6681,-513.2565 395.5843,-477.2289"/>
<polygon fill="#191970" stroke="#191970" points="398.66,-475.5325 391.3874,-467.8279 392.268,-478.3861 398.66,-475.5325"/>
</g>
<!-- Node21&#45;&gt;Node17 -->
<g id="edge40" class="edge">
<title>Node21&#45;&gt;Node17</title>
<path fill="none" stroke="#191970" d="M424.3087,-622.7265C358.0084,-616.4916 223.5955,-601.5821 182,-580 151.0347,-563.9334 140.4925,-556.1705 127,-524 113.9348,-492.8482 117.4062,-480.6693 126,-448 128.6112,-438.0734 133.9067,-428.0366 139.0412,-419.8822"/>
<polygon fill="#191970" stroke="#191970" points="141.9463,-421.8342 144.6181,-411.5817 136.136,-417.9303 141.9463,-421.8342"/>
</g>
<!-- Node21&#45;&gt;Node18 -->
<g id="edge43" class="edge">
<title>Node21&#45;&gt;Node18</title>
<path fill="none" stroke="#191970" d="M499.6374,-619.7512C522.7565,-613.7608 550.6132,-602.1816 565,-580 585.9345,-547.7233 564.9069,-501.6179 550.0092,-476.3332"/>
<polygon fill="#191970" stroke="#191970" points="552.9316,-474.4042 544.6999,-467.7342 546.9755,-478.0818 552.9316,-474.4042"/>
</g>
<!-- Node21&#45;&gt;Node19 -->
<g id="edge42" class="edge">
<title>Node21&#45;&gt;Node19</title>
<path fill="none" stroke="#191970" d="M453.6446,-616.4509C437.0824,-597.5227 399.8873,-555.014 378.9869,-531.1279"/>
<polygon fill="#191970" stroke="#191970" points="381.5534,-528.7459 372.3343,-523.5249 376.2853,-533.3555 381.5534,-528.7459"/>
</g>
<!-- Node22&#45;&gt;Node1 -->
<g id="edge46" class="edge">
<title>Node22&#45;&gt;Node1</title>
<path fill="none" stroke="#191970" d="M658.1941,-504.4464C665.9116,-482.4779 687.3767,-427.5339 720,-392 731.7023,-379.2537 747.6706,-368.4969 761.5002,-360.598"/>
<polygon fill="#191970" stroke="#191970" points="763.5565,-363.4629 770.654,-355.5968 760.2002,-357.32 763.5565,-363.4629"/>
</g>
<!-- Node22&#45;&gt;Node16 -->
<g id="edge47" class="edge">
<title>Node22&#45;&gt;Node16</title>
<path fill="none" stroke="#191970" d="M609.2337,-504.4369C558.7085,-493.8794 478.0562,-477.0267 429.0635,-466.7894"/>
<polygon fill="#191970" stroke="#191970" points="429.6162,-463.3294 419.1117,-464.7099 428.1844,-470.1814 429.6162,-463.3294"/>
</g>
<!-- Node22&#45;&gt;Node18 -->
<g id="edge48" class="edge">
<title>Node22&#45;&gt;Node18</title>
<path fill="none" stroke="#191970" d="M634.887,-504.3733C616.1897,-495.4241 588.1256,-481.9917 567.0066,-471.8835"/>
<polygon fill="#191970" stroke="#191970" points="568.3817,-468.6614 557.8506,-467.5011 565.3595,-474.9755 568.3817,-468.6614"/>
</g>
<!-- Node23&#45;&gt;Node1 -->
<g id="edge51" class="edge">
<title>Node23&#45;&gt;Node1</title>
<path fill="none" stroke="#191970" d="M556.3194,-565.8986C604.721,-559.3057 691.1985,-544.9326 714,-524 759.5546,-482.1792 729.8818,-447.0778 758,-392 763.0541,-382.1 770.0831,-371.9696 776.3557,-363.7445"/>
<polygon fill="#191970" stroke="#191970" points="779.2833,-365.6847 782.7359,-355.6682 773.7905,-361.3454 779.2833,-365.6847"/>
</g>
<!-- Node23&#45;&gt;Node16 -->
<g id="edge52" class="edge">
<title>Node23&#45;&gt;Node16</title>
<path fill="none" stroke="#191970" d="M518.0898,-560.3898C510.5929,-546.4803 495.1272,-520.591 476,-504 460.2578,-490.3451 439.7562,-479.3959 422.3984,-471.6106"/>
<polygon fill="#191970" stroke="#191970" points="423.6974,-468.3592 413.1288,-467.6139 420.9259,-474.7872 423.6974,-468.3592"/>
</g>
<!-- Node23&#45;&gt;Node18 -->
<g id="edge53" class="edge">
<title>Node23&#45;&gt;Node18</title>
<path fill="none" stroke="#191970" d="M524.2789,-560.4509C526.7254,-542.184 532.1131,-501.9553 535.3619,-477.6976"/>
<polygon fill="#191970" stroke="#191970" points="538.8659,-477.901 536.7243,-467.5249 531.9278,-476.9718 538.8659,-477.901"/>
</g>
<!-- Node23&#45;&gt;Node19 -->
<g id="edge54" class="edge">
<title>Node23&#45;&gt;Node19</title>
<path fill="none" stroke="#191970" d="M495.6669,-560.3733C469.4566,-551.1419 429.7016,-537.1402 400.7332,-526.9375"/>
<polygon fill="#191970" stroke="#191970" points="401.5712,-523.5219 390.9764,-523.5011 399.2458,-530.1244 401.5712,-523.5219"/>
</g>
<!-- Node24&#45;&gt;Node1 -->
<g id="edge56" class="edge">
<title>Node24&#45;&gt;Node1</title>
<path fill="none" stroke="#191970" d="M320.1469,-560.4678C315.4546,-547.5163 308.7648,-523.7135 314,-504 331.5912,-437.7593 356.4953,-417.7768 420,-392 479.4733,-367.8596 668.5111,-353.5626 751.4033,-348.309"/>
<polygon fill="#191970" stroke="#191970" points="751.675,-351.799 761.4382,-347.6845 751.2401,-344.8125 751.675,-351.799"/>
</g>
<!-- Node24&#45;&gt;Node16 -->
<g id="edge59" class="edge">
<title>Node24&#45;&gt;Node16</title>
<path fill="none" stroke="#191970" d="M321.186,-560.4076C317.812,-546.9692 313.6929,-522.1511 323,-504 329.933,-490.4789 342.8936,-480.0326 355.3481,-472.5377"/>
<polygon fill="#191970" stroke="#191970" points="357.1928,-475.5168 364.234,-467.6001 353.7928,-469.3979 357.1928,-475.5168"/>
</g>
<!-- Node24&#45;&gt;Node18 -->
<g id="edge57" class="edge">
<title>Node24&#45;&gt;Node18</title>
<path fill="none" stroke="#191970" d="M342.2455,-560.4509C379.9123,-540.7375 466.4503,-495.4465 510.7641,-472.2543"/>
<polygon fill="#191970" stroke="#191970" points="512.5637,-475.2629 519.8007,-467.5249 509.3178,-469.0609 512.5637,-475.2629"/>
</g>
<!-- Node24&#45;&gt;Node19 -->
<g id="edge58" class="edge">
<title>Node24&#45;&gt;Node19</title>
<path fill="none" stroke="#191970" d="M330.9675,-560.2455C336.5311,-552.4564 344.478,-541.3308 351.1829,-531.9439"/>
<polygon fill="#191970" stroke="#191970" points="354.148,-533.8144 357.1124,-523.6427 348.4519,-529.7457 354.148,-533.8144"/>
</g>
<!-- Node25&#45;&gt;Node1 -->
<g id="edge61" class="edge">
<title>Node25&#45;&gt;Node1</title>
<path fill="none" stroke="#191970" d="M994.5704,-560.2228C992.7133,-530.3236 982.9338,-439.2808 932,-392 904.1942,-366.1884 861.687,-354.8507 830.6129,-349.8762"/>
<polygon fill="#191970" stroke="#191970" points="830.9487,-346.3885 820.5508,-348.4215 829.947,-353.3164 830.9487,-346.3885"/>
</g>
<!-- Node26&#45;&gt;Node1 -->
<g id="edge63" class="edge">
<title>Node26&#45;&gt;Node1</title>
<path fill="none" stroke="#191970" d="M1032.2552,-504.3727C1029.9301,-481.2559 1020.7207,-422.2911 986,-392 963.1205,-372.0394 880.758,-357.9103 830.6833,-350.942"/>
<polygon fill="#191970" stroke="#191970" points="830.9006,-347.4395 820.521,-349.5642 829.9601,-354.3761 830.9006,-347.4395"/>
</g>
<!-- Node27&#45;&gt;Node1 -->
<g id="edge65" class="edge">
<title>Node27&#45;&gt;Node1</title>
<path fill="none" stroke="#191970" d="M1107.9814,-448.3023C1118.5107,-434.2837 1134.1446,-408.2599 1120,-392 1101.2373,-370.4315 914.191,-354.6797 830.7843,-348.6722"/>
<polygon fill="#191970" stroke="#191970" points="830.895,-345.1714 820.6725,-347.9552 830.3998,-352.1539 830.895,-345.1714"/>
</g>
<!-- Node28&#45;&gt;Node1 -->
<g id="edge67" class="edge">
<title>Node28&#45;&gt;Node1</title>
<path fill="none" stroke="#191970" d="M832.5083,-504.4862C825.5228,-477.8144 805.6435,-401.9117 796.1582,-365.695"/>
<polygon fill="#191970" stroke="#191970" points="799.4934,-364.6148 793.574,-355.8279 792.7218,-366.3884 799.4934,-364.6148"/>
</g>
<!-- Node28&#45;&gt;Node18 -->
<g id="edge68" class="edge">
<title>Node28&#45;&gt;Node18</title>
<path fill="none" stroke="#191970" d="M800.3491,-507.4665C747.6964,-497.5387 647.3219,-478.6129 587.1505,-467.2674"/>
<polygon fill="#191970" stroke="#191970" points="587.6036,-463.7913 577.1282,-465.3777 586.3065,-470.6701 587.6036,-463.7913"/>
</g>
<!-- Node29&#45;&gt;Node1 -->
<g id="edge70" class="edge">
<title>Node29&#45;&gt;Node1</title>
<path fill="none" stroke="#191970" d="M1156.8648,-560.3842C1165.2107,-530.1609 1185.9436,-436.4601 1137,-392 1114.6365,-371.6851 917.1331,-355.1052 830.9407,-348.7698"/>
<polygon fill="#191970" stroke="#191970" points="830.9845,-345.2639 820.7574,-348.031 830.4779,-352.2455 830.9845,-345.2639"/>
</g>
<!-- Node30&#45;&gt;Node1 -->
<g id="edge72" class="edge">
<title>Node30&#45;&gt;Node1</title>
<path fill="none" stroke="#191970" d="M1166.5876,-616.3634C1175.5751,-607.6556 1188.2174,-594.0785 1196,-580 1210.8287,-553.1753 1216,-544.6506 1216,-514 1216,-514 1216,-514 1216,-458 1216,-419.2415 1193.1724,-410.2885 1159,-392 1102.8596,-361.9545 913.7954,-350.8772 830.7188,-347.3931"/>
<polygon fill="#191970" stroke="#191970" points="830.7928,-343.8933 820.6597,-346.9868 830.5102,-350.8876 830.7928,-343.8933"/>
</g>
<!-- Node31&#45;&gt;Node1 -->
<g id="edge74" class="edge">
<title>Node31&#45;&gt;Node1</title>
<path fill="none" stroke="#191970" d="M916.3206,-448.4845C920.4862,-434.6928 925.7568,-408.9489 914,-392 904.1507,-377.801 862.8354,-364.288 830.7738,-355.6276"/>
<polygon fill="#191970" stroke="#191970" points="831.3021,-352.1476 820.7409,-352.9915 829.5232,-358.9179 831.3021,-352.1476"/>
</g>
<!-- Node31&#45;&gt;Node20 -->
<g id="edge75" class="edge">
<title>Node31&#45;&gt;Node20</title>
<path fill="none" stroke="#191970" d="M905.8583,-448.2455C900.1556,-440.4564 892.01,-429.3308 885.1375,-419.9439"/>
<polygon fill="#191970" stroke="#191970" points="887.7913,-417.6437 879.0598,-411.6427 882.1432,-421.7789 887.7913,-417.6437"/>
</g>
<!-- Node32 -->
<g id="node33" class="node">
<title>Node32</title>
<g id="a_node33"><a xlink:href="memp_8h.html" target="_top" xlink:title="lwip/memp.h">
<polygon fill="#ffffff" stroke="#000000" points="1038.5,-392.5 1038.5,-411.5 1111.5,-411.5 1111.5,-392.5 1038.5,-392.5"/>
<text text-anchor="middle" x="1075" y="-399.5" font-family="Helvetica,sans-Serif" font-size="10.00" fill="#000000">lwip/memp.h</text>
</a>
</g>
</g>
<!-- Node31&#45;&gt;Node32 -->
<g id="edge76" class="edge">
<title>Node31&#45;&gt;Node32</title>
<path fill="none" stroke="#191970" d="M940.8488,-448.3733C967.6703,-439.1016 1008.4127,-425.0178 1037.9598,-414.804"/>
<polygon fill="#191970" stroke="#191970" points="1039.2069,-418.0762 1047.5146,-411.5011 1036.9198,-411.4603 1039.2069,-418.0762"/>
</g>
<!-- Node32&#45;&gt;Node1 -->
<g id="edge77" class="edge">
<title>Node32&#45;&gt;Node1</title>
<path fill="none" stroke="#191970" d="M1038.4534,-394.7936C984.9716,-384.2479 885.7687,-364.6868 830.6035,-353.8091"/>
<polygon fill="#191970" stroke="#191970" points="830.9984,-350.3197 820.5102,-351.8189 829.6442,-357.1875 830.9984,-350.3197"/>
</g>
<!-- Node33 -->
<g id="node34" class="node">
<title>Node33</title>
<g id="a_node34"><a xlink:href="memp__std_8h.html" target="_top" xlink:title="lwip/memp_std.h">
<polygon fill="#ffffff" stroke="#000000" points="1029,-336.5 1029,-355.5 1121,-355.5 1121,-336.5 1029,-336.5"/>
<text text-anchor="middle" x="1075" y="-343.5" font-family="Helvetica,sans-Serif" font-size="10.00" fill="#000000">lwip/memp_std.h</text>
</a>
</g>
</g>
<!-- Node32&#45;&gt;Node33 -->
<g id="edge78" class="edge">
<title>Node32&#45;&gt;Node33</title>
<path fill="none" stroke="#191970" d="M1075,-392.2455C1075,-384.9382 1075,-374.6944 1075,-365.7046"/>
<polygon fill="#191970" stroke="#191970" points="1078.5001,-365.6426 1075,-355.6427 1071.5001,-365.6427 1078.5001,-365.6426"/>
</g>
<!-- Node34&#45;&gt;Node1 -->
<g id="edge80" class="edge">
<title>Node34&#45;&gt;Node1</title>
<path fill="none" stroke="#191970" d="M1254,-616.4116C1254,-597.0538 1254,-551.9167 1254,-514 1254,-514 1254,-514 1254,-458 1254,-417.4482 1227.3081,-410.06 1191,-392 1128.3769,-360.8506 919.2367,-350.2917 830.9105,-347.166"/>
<polygon fill="#191970" stroke="#191970" points="830.869,-343.6627 820.7559,-346.8208 830.6311,-350.6587 830.869,-343.6627"/>
</g>
</g>
</svg>
