<?xml version="1.0" encoding="UTF-8" standalone="no"?>
<!DOCTYPE svg PUBLIC "-//W3C//DTD SVG 1.1//EN"
 "http://www.w3.org/Graphics/SVG/1.1/DTD/svg11.dtd">
<!-- Generated by graphviz version 2.41.20170323.1842 (20170323.1842)
 -->
<!-- Title: sdk/include/json/json.h Pages: 1 -->
<svg width="302pt" height="84pt"
 viewBox="0.00 0.00 302.00 84.00" xmlns="http://www.w3.org/2000/svg" xmlns:xlink="http://www.w3.org/1999/xlink">
<g id="graph0" class="graph" transform="scale(1 1) rotate(0) translate(4 80)">
<title>sdk/include/json/json.h</title>
<polygon fill="#ffffff" stroke="transparent" points="-4,4 -4,-80 298,-80 298,4 -4,4"/>
<!-- Node1 -->
<g id="node1" class="node">
<title>Node1</title>
<polygon fill="#bfbfbf" stroke="#000000" points="90.5,-56.5 90.5,-75.5 207.5,-75.5 207.5,-56.5 90.5,-56.5"/>
<text text-anchor="middle" x="149" y="-63.5" font-family="Helvetica,sans-Serif" font-size="10.00" fill="#000000">sdk/include/json/json.h</text>
</g>
<!-- Node2 -->
<g id="node2" class="node">
<title>Node2</title>
<g id="a_node2"><a xlink:href="jsonparse_8h.html" target="_top" xlink:title="sdk/include/json/jsonparse.h">
<polygon fill="#ffffff" stroke="#000000" points="0,-.5 0,-19.5 142,-19.5 142,-.5 0,-.5"/>
<text text-anchor="middle" x="71" y="-7.5" font-family="Helvetica,sans-Serif" font-size="10.00" fill="#000000">sdk/include/json/jsonparse.h</text>
</a>
</g>
</g>
<!-- Node1&#45;&gt;Node2 -->
<g id="edge1" class="edge">
<title>Node1&#45;&gt;Node2</title>
<path fill="none" stroke="#191970" d="M127.0064,-50.2097C113.3071,-40.3743 96.1264,-28.0394 84.4309,-19.6427"/>
<polygon fill="#191970" stroke="#191970" points="125.2489,-53.2566 135.4134,-56.2455 129.3314,-47.5703 125.2489,-53.2566"/>
</g>
<!-- Node3 -->
<g id="node3" class="node">
<title>Node3</title>
<g id="a_node3"><a xlink:href="jsontree_8h.html" target="_top" xlink:title="sdk/include/json/jsontree.h">
<polygon fill="#ffffff" stroke="#000000" points="160,-.5 160,-19.5 294,-19.5 294,-.5 160,-.5"/>
<text text-anchor="middle" x="227" y="-7.5" font-family="Helvetica,sans-Serif" font-size="10.00" fill="#000000">sdk/include/json/jsontree.h</text>
</a>
</g>
</g>
<!-- Node1&#45;&gt;Node3 -->
<g id="edge2" class="edge">
<title>Node1&#45;&gt;Node3</title>
<path fill="none" stroke="#191970" d="M170.9936,-50.2097C184.6929,-40.3743 201.8736,-28.0394 213.5691,-19.6427"/>
<polygon fill="#191970" stroke="#191970" points="168.6686,-47.5703 162.5866,-56.2455 172.7511,-53.2566 168.6686,-47.5703"/>
</g>
</g>
</svg>
