<?xml version="1.0" encoding="UTF-8" standalone="no"?>
<!DOCTYPE svg PUBLIC "-//W3C//DTD SVG 1.1//EN"
 "http://www.w3.org/Graphics/SVG/1.1/DTD/svg11.dtd">
<!-- Generated by graphviz version 2.41.20170323.1842 (20170323.1842)
 -->
<!-- Title: mqtt/include/queue.h Pages: 1 -->
<svg width="645pt" height="218pt"
 viewBox="0.00 0.00 644.50 218.00" xmlns="http://www.w3.org/2000/svg" xmlns:xlink="http://www.w3.org/1999/xlink">
<g id="graph0" class="graph" transform="scale(1 1) rotate(0) translate(4 214)">
<title>mqtt/include/queue.h</title>
<polygon fill="#ffffff" stroke="transparent" points="-4,4 -4,-214 640.5,-214 640.5,4 -4,4"/>
<!-- Node30 -->
<g id="node1" class="node">
<title>Node30</title>
<polygon fill="#bfbfbf" stroke="#000000" points="237.5,-190.5 237.5,-209.5 346.5,-209.5 346.5,-190.5 237.5,-190.5"/>
<text text-anchor="middle" x="292" y="-197.5" font-family="Helvetica,sans-Serif" font-size="10.00" fill="#000000">mqtt/include/queue.h</text>
</g>
<!-- Node31 -->
<g id="node2" class="node">
<title>Node31</title>
<g id="a_node2"><a xlink:href="mqtt_8h.html" target="_top" xlink:title="mqtt/include/mqtt.h">
<polygon fill="#ffffff" stroke="#000000" points="241.5,-134.5 241.5,-153.5 342.5,-153.5 342.5,-134.5 241.5,-134.5"/>
<text text-anchor="middle" x="292" y="-141.5" font-family="Helvetica,sans-Serif" font-size="10.00" fill="#000000">mqtt/include/mqtt.h</text>
</a>
</g>
</g>
<!-- Node30&#45;&gt;Node31 -->
<g id="edge1" class="edge">
<title>Node30&#45;&gt;Node31</title>
<path fill="none" stroke="#191970" d="M292,-180.1575C292,-171.155 292,-160.9199 292,-153.6427"/>
<polygon fill="#191970" stroke="#191970" points="288.5001,-180.2455 292,-190.2455 295.5001,-180.2456 288.5001,-180.2455"/>
</g>
<!-- Node32 -->
<g id="node3" class="node">
<title>Node32</title>
<g id="a_node3"><a xlink:href="config_8c.html" target="_top" xlink:title="modules/config.c">
<polygon fill="#ffffff" stroke="#000000" points="0,-73 0,-92 92,-92 92,-73 0,-73"/>
<text text-anchor="middle" x="46" y="-80" font-family="Helvetica,sans-Serif" font-size="10.00" fill="#000000">modules/config.c</text>
</a>
</g>
</g>
<!-- Node31&#45;&gt;Node32 -->
<g id="edge2" class="edge">
<title>Node31&#45;&gt;Node32</title>
<path fill="none" stroke="#191970" d="M240.5871,-132.1817C202.0642,-123.1898 148.1062,-110.3053 101,-98 93.8971,-96.1446 86.305,-94.0667 79.0999,-92.0499"/>
<polygon fill="#191970" stroke="#191970" points="239.9957,-135.6376 250.5288,-134.4959 241.5827,-128.8198 239.9957,-135.6376"/>
</g>
<!-- Node33 -->
<g id="node4" class="node">
<title>Node33</title>
<g id="a_node4"><a xlink:href="mqtt_8c.html" target="_top" xlink:title="mqtt/mqtt.c">
<polygon fill="#ffffff" stroke="#000000" points="110,-73 110,-92 176,-92 176,-73 110,-73"/>
<text text-anchor="middle" x="143" y="-80" font-family="Helvetica,sans-Serif" font-size="10.00" fill="#000000">mqtt/mqtt.c</text>
</a>
</g>
</g>
<!-- Node31&#45;&gt;Node33 -->
<g id="edge3" class="edge">
<title>Node31&#45;&gt;Node33</title>
<path fill="none" stroke="#191970" d="M259.2819,-130.4955C231.0868,-118.858 191.0922,-102.3501 166.1178,-92.0419"/>
<polygon fill="#191970" stroke="#191970" points="258.1398,-133.8105 268.7188,-134.3906 260.8106,-127.34 258.1398,-133.8105"/>
</g>
<!-- Node34 -->
<g id="node5" class="node">
<title>Node34</title>
<g id="a_node5"><a xlink:href="en61107__request_8c.html" target="_top" xlink:title="user/en61107/en61107\l_request.c">
<polygon fill="#ffffff" stroke="#000000" points="144.5,-.5 144.5,-30.5 263.5,-30.5 263.5,-.5 144.5,-.5"/>
<text text-anchor="start" x="152.5" y="-18.5" font-family="Helvetica,sans-Serif" font-size="10.00" fill="#000000">user/en61107/en61107</text>
<text text-anchor="middle" x="204" y="-7.5" font-family="Helvetica,sans-Serif" font-size="10.00" fill="#000000">_request.c</text>
</a>
</g>
</g>
<!-- Node31&#45;&gt;Node34 -->
<g id="edge4" class="edge">
<title>Node31&#45;&gt;Node34</title>
<path fill="none" stroke="#191970" d="M260.3852,-129.6557C246.9681,-122.0559 232.3088,-111.4739 223,-98 208.881,-77.5636 205.1232,-48.1556 204.1997,-30.5276"/>
<polygon fill="#191970" stroke="#191970" points="258.9209,-132.841 269.3944,-134.4396 262.2038,-126.6585 258.9209,-132.841"/>
</g>
<!-- Node35 -->
<g id="node6" class="node">
<title>Node35</title>
<g id="a_node6"><a xlink:href="en61107__request_8h.html" target="_top" xlink:title="user/en61107/en61107\l_request.h">
<polygon fill="#ffffff" stroke="#000000" points="232.5,-67.5 232.5,-97.5 351.5,-97.5 351.5,-67.5 232.5,-67.5"/>
<text text-anchor="start" x="240.5" y="-85.5" font-family="Helvetica,sans-Serif" font-size="10.00" fill="#000000">user/en61107/en61107</text>
<text text-anchor="middle" x="292" y="-74.5" font-family="Helvetica,sans-Serif" font-size="10.00" fill="#000000">_request.h</text>
</a>
</g>
</g>
<!-- Node31&#45;&gt;Node35 -->
<g id="edge5" class="edge">
<title>Node31&#45;&gt;Node35</title>
<path fill="none" stroke="#191970" d="M292,-124.3693C292,-115.681 292,-105.6241 292,-97.5446"/>
<polygon fill="#191970" stroke="#191970" points="288.5001,-124.3906 292,-134.3906 295.5001,-124.3907 288.5001,-124.3906"/>
</g>
<!-- Node36 -->
<g id="node7" class="node">
<title>Node36</title>
<g id="a_node7"><a xlink:href="kmp__request_8c.html" target="_top" xlink:title="user/kamstrup/kmp_request.c">
<polygon fill="#ffffff" stroke="#000000" points="282,-6 282,-25 430,-25 430,-6 282,-6"/>
<text text-anchor="middle" x="356" y="-13" font-family="Helvetica,sans-Serif" font-size="10.00" fill="#000000">user/kamstrup/kmp_request.c</text>
</a>
</g>
</g>
<!-- Node31&#45;&gt;Node36 -->
<g id="edge7" class="edge">
<title>Node31&#45;&gt;Node36</title>
<path fill="none" stroke="#191970" d="M325.7728,-129.7938C338.9364,-122.3834 352.6154,-111.9111 360,-98 372.5731,-74.315 364.6433,-41.2116 359.4553,-25.0874"/>
<polygon fill="#191970" stroke="#191970" points="324.0876,-126.725 316.8255,-134.4395 327.3134,-132.9375 324.0876,-126.725"/>
</g>
<!-- Node37 -->
<g id="node8" class="node">
<title>Node37</title>
<g id="a_node8"><a xlink:href="kmp__request_8h.html" target="_top" xlink:title="user/kamstrup/kmp_request.h">
<polygon fill="#ffffff" stroke="#000000" points="408.5,-73 408.5,-92 557.5,-92 557.5,-73 408.5,-73"/>
<text text-anchor="middle" x="483" y="-80" font-family="Helvetica,sans-Serif" font-size="10.00" fill="#000000">user/kamstrup/kmp_request.h</text>
</a>
</g>
</g>
<!-- Node31&#45;&gt;Node37 -->
<g id="edge8" class="edge">
<title>Node31&#45;&gt;Node37</title>
<path fill="none" stroke="#191970" d="M331.5952,-131.2507C367.8353,-119.5818 420.6526,-102.5752 453.3658,-92.0419"/>
<polygon fill="#191970" stroke="#191970" points="330.2897,-127.9941 321.8438,-134.3906 332.4352,-134.6572 330.2897,-127.9941"/>
</g>
<!-- Node39 -->
<g id="node10" class="node">
<title>Node39</title>
<g id="a_node10"><a xlink:href="esp-open-sdk_2esp-open-lwip_2user_2user__main_8c.html" target="_top" xlink:title="esp&#45;open&#45;lwip/user\l/user_main.c">
<polygon fill="#ffffff" stroke="#000000" points="535.5,-.5 535.5,-30.5 636.5,-30.5 636.5,-.5 535.5,-.5"/>
<text text-anchor="start" x="543.5" y="-18.5" font-family="Helvetica,sans-Serif" font-size="10.00" fill="#000000">esp&#45;open&#45;lwip/user</text>
<text text-anchor="middle" x="586" y="-7.5" font-family="Helvetica,sans-Serif" font-size="10.00" fill="#000000">/user_main.c</text>
</a>
</g>
</g>
<!-- Node31&#45;&gt;Node39 -->
<g id="edge12" class="edge">
<title>Node31&#45;&gt;Node39</title>
<path fill="none" stroke="#191970" d="M352.7437,-141.5414C424.1727,-137.3716 536.8461,-126.3793 567,-98 585.4094,-80.6741 587.6581,-49.388 587.1517,-30.722"/>
<polygon fill="#191970" stroke="#191970" points="352.3099,-138.06 342.519,-142.1084 352.6975,-145.0493 352.3099,-138.06"/>
</g>
<!-- Node35&#45;&gt;Node34 -->
<g id="edge6" class="edge">
<title>Node35&#45;&gt;Node34</title>
<path fill="none" stroke="#191970" d="M263.8457,-61.0643C250.834,-51.1577 235.6886,-39.6265 223.8895,-30.6432"/>
<polygon fill="#191970" stroke="#191970" points="261.9548,-64.0237 272.0314,-67.2967 266.1952,-58.4542 261.9548,-64.0237"/>
</g>
<!-- Node37&#45;&gt;Node36 -->
<g id="edge10" class="edge">
<title>Node37&#45;&gt;Node36</title>
<path fill="none" stroke="#191970" d="M455.9504,-68.2298C431.2953,-55.2227 395.5549,-36.3676 374.1622,-25.0817"/>
<polygon fill="#191970" stroke="#191970" points="454.3262,-71.33 464.804,-72.9005 457.5925,-65.1388 454.3262,-71.33"/>
</g>
<!-- Node38 -->
<g id="node9" class="node">
<title>Node38</title>
<g id="a_node9"><a xlink:href="uart_8c.html" target="_top" xlink:title="driver/uart.c">
<polygon fill="#ffffff" stroke="#000000" points="448.5,-6 448.5,-25 517.5,-25 517.5,-6 448.5,-6"/>
<text text-anchor="middle" x="483" y="-13" font-family="Helvetica,sans-Serif" font-size="10.00" fill="#000000">driver/uart.c</text>
</a>
</g>
</g>
<!-- Node37&#45;&gt;Node38 -->
<g id="edge9" class="edge">
<title>Node37&#45;&gt;Node38</title>
<path fill="none" stroke="#191970" d="M483,-62.6079C483,-50.214 483,-34.8263 483,-25.0817"/>
<polygon fill="#191970" stroke="#191970" points="479.5001,-62.9005 483,-72.9005 486.5001,-62.9006 479.5001,-62.9005"/>
</g>
<!-- Node37&#45;&gt;Node39 -->
<g id="edge11" class="edge">
<title>Node37&#45;&gt;Node39</title>
<path fill="none" stroke="#191970" d="M506.4805,-67.2263C523.3882,-56.2281 546.0885,-41.4618 562.9068,-30.5218"/>
<polygon fill="#191970" stroke="#191970" points="504.2315,-64.5138 497.7574,-72.9005 508.0485,-70.3817 504.2315,-64.5138"/>
</g>
</g>
</svg>
