<?xml version="1.0" encoding="UTF-8" standalone="no"?>
<!DOCTYPE svg PUBLIC "-//W3C//DTD SVG 1.1//EN"
 "http://www.w3.org/Graphics/SVG/1.1/DTD/svg11.dtd">
<!-- Generated by graphviz version 2.39.20160927.1334 (20160927.1334)
 -->
<!-- Title: kmp_crc16 Pages: 1 -->
<svg width="1225pt" height="154pt"
 viewBox="0.00 0.00 1225.00 154.00" xmlns="http://www.w3.org/2000/svg" xmlns:xlink="http://www.w3.org/1999/xlink">
<g id="graph0" class="graph" transform="scale(1 1) rotate(0) translate(4 150)">
<title>kmp_crc16</title>
<polygon fill="#ffffff" stroke="transparent" points="-4,4 -4,-150 1221,-150 1221,4 -4,4"/>
<!-- Node1 -->
<g id="node1" class="node">
<title>Node1</title>
<polygon fill="#bfbfbf" stroke="#000000" points="0,-69.5 0,-88.5 65,-88.5 65,-69.5 0,-69.5"/>
<text text-anchor="middle" x="32.5" y="-76.5" font-family="Helvetica,sans-Serif" font-size="10.00" fill="#000000">kmp_crc16</text>
</g>
<!-- Node2 -->
<g id="node2" class="node">
<title>Node2</title>
<g id="a_node2"><a xlink:href="kmp_8h.html#a34231e78fbbe5298fcb35be737edb9e3" target="_top" xlink:title="kmp_decode_frame">
<polygon fill="#ffffff" stroke="#000000" points="101,-126.5 101,-145.5 206,-145.5 206,-126.5 101,-126.5"/>
<text text-anchor="middle" x="153.5" y="-133.5" font-family="Helvetica,sans-Serif" font-size="10.00" fill="#000000">kmp_decode_frame</text>
</a>
</g>
</g>
<!-- Node1&#45;&gt;Node2 -->
<g id="edge1" class="edge">
<title>Node1&#45;&gt;Node2</title>
<path fill="none" stroke="#191970" d="M56.8986,-93.7795C69.7632,-101.251 85.9581,-110.159 101,-117 108.5,-120.411 116.807,-123.652 124.559,-126.459"/>
<polygon fill="#191970" stroke="#191970" points="58.5761,-90.7055 48.1839,-88.6432 55.0218,-96.736 58.5761,-90.7055"/>
</g>
<!-- Node6 -->
<g id="node6" class="node">
<title>Node6</title>
<g id="a_node6"><a xlink:href="kmp_8h.html#aff9c217307fb9210d301ba14bc2b5707" target="_top" xlink:title="kmp_get_register">
<polygon fill="#ffffff" stroke="#000000" points="106.5,-88.5 106.5,-107.5 200.5,-107.5 200.5,-88.5 106.5,-88.5"/>
<text text-anchor="middle" x="153.5" y="-95.5" font-family="Helvetica,sans-Serif" font-size="10.00" fill="#000000">kmp_get_register</text>
</a>
</g>
</g>
<!-- Node1&#45;&gt;Node6 -->
<g id="edge5" class="edge">
<title>Node1&#45;&gt;Node6</title>
<path fill="none" stroke="#191970" d="M75.3456,-85.7278C85.3324,-87.296 96.0225,-88.9746 106.19,-90.5712"/>
<polygon fill="#191970" stroke="#191970" points="75.6663,-82.2354 65.2443,-84.1417 74.5803,-89.1506 75.6663,-82.2354"/>
</g>
<!-- Node15 -->
<g id="node15" class="node">
<title>Node15</title>
<g id="a_node15"><a xlink:href="kmp_8h.html#a4d6c33fbffbf96fd508400df943be676" target="_top" xlink:title="kmp_get_serial">
<polygon fill="#ffffff" stroke="#000000" points="111.5,-50.5 111.5,-69.5 195.5,-69.5 195.5,-50.5 111.5,-50.5"/>
<text text-anchor="middle" x="153.5" y="-57.5" font-family="Helvetica,sans-Serif" font-size="10.00" fill="#000000">kmp_get_serial</text>
</a>
</g>
</g>
<!-- Node1&#45;&gt;Node15 -->
<g id="edge17" class="edge">
<title>Node1&#45;&gt;Node15</title>
<path fill="none" stroke="#191970" d="M75.202,-72.2947C86.8733,-70.462 99.5147,-68.477 111.165,-66.6476"/>
<polygon fill="#191970" stroke="#191970" points="74.5803,-68.8494 65.2443,-73.8583 75.6663,-75.7646 74.5803,-68.8494"/>
</g>
<!-- Node17 -->
<g id="node17" class="node">
<title>Node17</title>
<g id="a_node17"><a xlink:href="kmp_8h.html#a8370089568397cfb3b14ca73f6a8ab5f" target="_top" xlink:title="kmp_get_type">
<polygon fill="#ffffff" stroke="#000000" points="114,-12.5 114,-31.5 193,-31.5 193,-12.5 114,-12.5"/>
<text text-anchor="middle" x="153.5" y="-19.5" font-family="Helvetica,sans-Serif" font-size="10.00" fill="#000000">kmp_get_type</text>
</a>
</g>
</g>
<!-- Node1&#45;&gt;Node17 -->
<g id="edge20" class="edge">
<title>Node1&#45;&gt;Node17</title>
<path fill="none" stroke="#191970" d="M56.8986,-64.2205C69.7632,-56.7492 85.9581,-47.8415 101,-41 108.5,-37.5889 116.807,-34.3483 124.559,-31.5411"/>
<polygon fill="#191970" stroke="#191970" points="55.0218,-61.264 48.1839,-69.3568 58.5761,-67.2945 55.0218,-61.264"/>
</g>
<!-- Node3 -->
<g id="node3" class="node">
<title>Node3</title>
<g id="a_node3"><a xlink:href="kmp__request_8c.html#a3f6b790a06b933b78f40ade5e9a16131" target="_top" xlink:title="kmp_received_task">
<polygon fill="#ffffff" stroke="#000000" points="263.5,-126.5 263.5,-145.5 366.5,-145.5 366.5,-126.5 263.5,-126.5"/>
<text text-anchor="middle" x="315" y="-133.5" font-family="Helvetica,sans-Serif" font-size="10.00" fill="#000000">kmp_received_task</text>
</a>
</g>
</g>
<!-- Node2&#45;&gt;Node3 -->
<g id="edge2" class="edge">
<title>Node2&#45;&gt;Node3</title>
<path fill="none" stroke="#191970" d="M216.435,-136C231.976,-136 248.443,-136 263.376,-136"/>
<polygon fill="#191970" stroke="#191970" points="216.381,-132.5 206.381,-136 216.381,-139.5 216.381,-132.5"/>
</g>
<!-- Node4 -->
<g id="node4" class="node">
<title>Node4</title>
<g id="a_node4"><a xlink:href="kmp__request_8h.html#a048753ff9d6b448e2dcd8c85db0d6873" target="_top" xlink:title="kmp_request_init">
<polygon fill="#ffffff" stroke="#000000" points="712,-113.5 712,-132.5 805,-132.5 805,-113.5 712,-113.5"/>
<text text-anchor="middle" x="758.5" y="-120.5" font-family="Helvetica,sans-Serif" font-size="10.00" fill="#000000">kmp_request_init</text>
</a>
</g>
</g>
<!-- Node3&#45;&gt;Node4 -->
<g id="edge3" class="edge">
<title>Node3&#45;&gt;Node4</title>
<path fill="none" stroke="#191970" d="M376.787,-134.189C466.621,-131.556 631.326,-126.728 711.783,-124.369"/>
<polygon fill="#191970" stroke="#191970" points="376.636,-130.692 366.743,-134.483 376.841,-137.689 376.636,-130.692"/>
</g>
<!-- Node5 -->
<g id="node5" class="node">
<title>Node5</title>
<g id="a_node5"><a xlink:href="user__main_8h.html#a33113d6dedb440bd7dfa5576e325140c" target="_top" xlink:title="user_init">
<polygon fill="#ffffff" stroke="#000000" points="1163,-63.5 1163,-82.5 1217,-82.5 1217,-63.5 1163,-63.5"/>
<text text-anchor="middle" x="1190" y="-70.5" font-family="Helvetica,sans-Serif" font-size="10.00" fill="#000000">user_init</text>
</a>
</g>
</g>
<!-- Node4&#45;&gt;Node5 -->
<g id="edge4" class="edge">
<title>Node4&#45;&gt;Node5</title>
<path fill="none" stroke="#191970" d="M815.258,-116.423C909.174,-105.541 1093.42,-84.1917 1162.75,-76.1577"/>
<polygon fill="#191970" stroke="#191970" points="814.619,-112.974 805.088,-117.602 815.424,-119.927 814.619,-112.974"/>
</g>
<!-- Node7 -->
<g id="node7" class="node">
<title>Node7</title>
<g id="a_node7"><a xlink:href="kmp__request_8c.html#aeadc3768548ef2bed49c3f2fcaf57c20" target="_top" xlink:title="kmp_get_register_timer_func">
<polygon fill="#ffffff" stroke="#000000" points="242,-88.5 242,-107.5 388,-107.5 388,-88.5 242,-88.5"/>
<text text-anchor="middle" x="315" y="-95.5" font-family="Helvetica,sans-Serif" font-size="10.00" fill="#000000">kmp_get_register_timer_func</text>
</a>
</g>
</g>
<!-- Node6&#45;&gt;Node7 -->
<g id="edge6" class="edge">
<title>Node6&#45;&gt;Node7</title>
<path fill="none" stroke="#191970" d="M210.906,-98C220.963,-98 231.548,-98 241.96,-98"/>
<polygon fill="#191970" stroke="#191970" points="210.647,-94.5001 200.647,-98 210.647,-101.5 210.647,-94.5001"/>
</g>
<!-- Node8 -->
<g id="node8" class="node">
<title>Node8</title>
<g id="a_node8"><a xlink:href="kmp__request_8h.html#a3b022dcdc832786eb06126b5e6879604" target="_top" xlink:title="kmp_request_send">
<polygon fill="#ffffff" stroke="#000000" points="424,-66.5 424,-85.5 526,-85.5 526,-66.5 424,-66.5"/>
<text text-anchor="middle" x="475" y="-73.5" font-family="Helvetica,sans-Serif" font-size="10.00" fill="#000000">kmp_request_send</text>
</a>
</g>
</g>
<!-- Node7&#45;&gt;Node8 -->
<g id="edge7" class="edge">
<title>Node7&#45;&gt;Node8</title>
<path fill="none" stroke="#191970" d="M394.308,-87.0951C404.398,-85.7078 414.501,-84.3185 423.978,-83.0155"/>
<polygon fill="#191970" stroke="#191970" points="393.678,-83.6488 384.248,-88.4784 394.631,-90.5835 393.678,-83.6488"/>
</g>
<!-- Node9 -->
<g id="node9" class="node">
<title>Node9</title>
<g id="a_node9"><a xlink:href="kmp__request_8c.html#a0977a4640a97d389ac3b0fef0ba7a9b6" target="_top" xlink:title="kmp_receive_timeout\l_timer_func">
<polygon fill="#ffffff" stroke="#000000" points="562,-77 562,-107 674,-107 674,-77 562,-77"/>
<text text-anchor="start" x="570" y="-95" font-family="Helvetica,sans-Serif" font-size="10.00" fill="#000000">kmp_receive_timeout</text>
<text text-anchor="middle" x="618" y="-84" font-family="Helvetica,sans-Serif" font-size="10.00" fill="#000000">_timer_func</text>
</a>
</g>
</g>
<!-- Node8&#45;&gt;Node9 -->
<g id="edge8" class="edge">
<title>Node8&#45;&gt;Node9</title>
<path fill="none" stroke="#191970" d="M536.39,-76.1792C544.83,-77.0222 553.463,-78.0144 561.803,-79.1016"/>
<polygon fill="#191970" stroke="#191970" points="536.505,-72.6747 526.222,-75.2285 535.853,-79.6443 536.505,-72.6747"/>
</g>
<!-- Node10 -->
<g id="node10" class="node">
<title>Node10</title>
<g id="a_node10"><a xlink:href="user__main_8c.html#af2c051d5ceacd30f90c08d6f584deff2" target="_top" xlink:title="sample_timer_func">
<polygon fill="#ffffff" stroke="#000000" points="567.5,-38.5 567.5,-57.5 668.5,-57.5 668.5,-38.5 567.5,-38.5"/>
<text text-anchor="middle" x="618" y="-45.5" font-family="Helvetica,sans-Serif" font-size="10.00" fill="#000000">sample_timer_func</text>
</a>
</g>
</g>
<!-- Node8&#45;&gt;Node10 -->
<g id="edge10" class="edge">
<title>Node8&#45;&gt;Node10</title>
<path fill="none" stroke="#191970" d="M533.652,-64.5157C545.538,-62.1884 557.914,-59.765 569.407,-57.5146"/>
<polygon fill="#191970" stroke="#191970" points="532.954,-61.0859 523.813,-66.4423 534.299,-67.9554 532.954,-61.0859"/>
</g>
<!-- Node14 -->
<g id="node14" class="node">
<title>Node14</title>
<g id="a_node14"><a xlink:href="user__main_8c.html#a3648c609e8dd286eb90285b08b150362" target="_top" xlink:title="kmp_request_send_timer_func">
<polygon fill="#ffffff" stroke="#000000" points="843,-0.5 843,-19.5 997,-19.5 997,-0.5 843,-0.5"/>
<text text-anchor="middle" x="920" y="-7.5" font-family="Helvetica,sans-Serif" font-size="10.00" fill="#000000">kmp_request_send_timer_func</text>
</a>
</g>
</g>
<!-- Node8&#45;&gt;Node14 -->
<g id="edge15" class="edge">
<title>Node8&#45;&gt;Node14</title>
<path fill="none" stroke="#191970" d="M496.92,-60.5976C513.842,-49.618 538.295,-35.6669 562,-29 656.068,-2.54354 769.404,-1.39142 842.995,-4.45692"/>
<polygon fill="#191970" stroke="#191970" points="494.716,-57.8604 488.347,-66.3265 498.606,-63.6806 494.716,-57.8604"/>
</g>
<!-- Node9&#45;&gt;Node8 -->
<g id="edge9" class="edge">
<title>Node9&#45;&gt;Node8</title>
<path fill="none" stroke="#191970" d="M551.444,-91.2888C536.42,-89.6953 521.105,-87.67 508.167,-85.5117"/>
<polygon fill="#191970" stroke="#191970" points="551.467,-94.8084 561.765,-92.3193 552.162,-87.843 551.467,-94.8084"/>
</g>
<!-- Node11 -->
<g id="node11" class="node">
<title>Node11</title>
<g id="a_node11"><a xlink:href="user__main_8h.html#a06f2b383d99fcad9d0f37d1ca2224898" target="_top" xlink:title="mqttConnectedCb">
<polygon fill="#ffffff" stroke="#000000" points="710,-38.5 710,-57.5 807,-57.5 807,-38.5 710,-38.5"/>
<text text-anchor="middle" x="758.5" y="-45.5" font-family="Helvetica,sans-Serif" font-size="10.00" fill="#000000">mqttConnectedCb</text>
</a>
</g>
</g>
<!-- Node10&#45;&gt;Node11 -->
<g id="edge11" class="edge">
<title>Node10&#45;&gt;Node11</title>
<path fill="none" stroke="#191970" d="M678.904,-48C689.209,-48 699.787,-48 709.73,-48"/>
<polygon fill="#191970" stroke="#191970" points="678.724,-44.5001 668.724,-48 678.724,-51.5001 678.724,-44.5001"/>
</g>
<!-- Node12 -->
<g id="node12" class="node">
<title>Node12</title>
<g id="a_node12"><a xlink:href="user__main_8c.html#a245ec00253f410a8804988bf40e1037e" target="_top" xlink:title="sample_mode_timer_func">
<polygon fill="#ffffff" stroke="#000000" points="854,-38.5 854,-57.5 986,-57.5 986,-38.5 854,-38.5"/>
<text text-anchor="middle" x="920" y="-45.5" font-family="Helvetica,sans-Serif" font-size="10.00" fill="#000000">sample_mode_timer_func</text>
</a>
</g>
</g>
<!-- Node11&#45;&gt;Node12 -->
<g id="edge12" class="edge">
<title>Node11&#45;&gt;Node12</title>
<path fill="none" stroke="#191970" d="M817.593,-48C829.427,-48 841.931,-48 853.982,-48"/>
<polygon fill="#191970" stroke="#191970" points="817.394,-44.5001 807.394,-48 817.394,-51.5001 817.394,-44.5001"/>
</g>
<!-- Node13 -->
<g id="node13" class="node">
<title>Node13</title>
<g id="a_node13"><a xlink:href="user__main_8h.html#a3671381db669a16e8f6a4bf3dfb9a441" target="_top" xlink:title="system_init_done">
<polygon fill="#ffffff" stroke="#000000" points="1033,-38.5 1033,-57.5 1127,-57.5 1127,-38.5 1033,-38.5"/>
<text text-anchor="middle" x="1080" y="-45.5" font-family="Helvetica,sans-Serif" font-size="10.00" fill="#000000">system_init_done</text>
</a>
</g>
</g>
<!-- Node12&#45;&gt;Node13 -->
<g id="edge13" class="edge">
<title>Node12&#45;&gt;Node13</title>
<path fill="none" stroke="#191970" d="M996.363,-48C1008.76,-48 1021.28,-48 1032.72,-48"/>
<polygon fill="#191970" stroke="#191970" points="996.002,-44.5001 986.002,-48 996.002,-51.5001 996.002,-44.5001"/>
</g>
<!-- Node13&#45;&gt;Node5 -->
<g id="edge14" class="edge">
<title>Node13&#45;&gt;Node5</title>
<path fill="none" stroke="#191970" d="M1131.69,-59.7479C1142.46,-62.1944 1153.39,-64.6795 1162.84,-66.8265"/>
<polygon fill="#191970" stroke="#191970" points="1132.43,-56.3261 1121.9,-57.5227 1130.88,-63.152 1132.43,-56.3261"/>
</g>
<!-- Node14&#45;&gt;Node13 -->
<g id="edge16" class="edge">
<title>Node14&#45;&gt;Node13</title>
<path fill="none" stroke="#191970" d="M970.392,-21.968C992.813,-27.2931 1018.85,-33.4762 1039.92,-38.4799"/>
<polygon fill="#191970" stroke="#191970" points="970.913,-18.4945 960.375,-19.589 969.295,-25.3051 970.913,-18.4945"/>
</g>
<!-- Node16 -->
<g id="node16" class="node">
<title>Node16</title>
<g id="a_node16"><a xlink:href="kmp__request_8c.html#a7e59cff48c3c08aed48914a3a843d4b8" target="_top" xlink:title="kmp_get_serial_timer_func">
<polygon fill="#ffffff" stroke="#000000" points="246.5,-50.5 246.5,-69.5 383.5,-69.5 383.5,-50.5 246.5,-50.5"/>
<text text-anchor="middle" x="315" y="-57.5" font-family="Helvetica,sans-Serif" font-size="10.00" fill="#000000">kmp_get_serial_timer_func</text>
</a>
</g>
</g>
<!-- Node15&#45;&gt;Node16 -->
<g id="edge18" class="edge">
<title>Node15&#45;&gt;Node16</title>
<path fill="none" stroke="#191970" d="M205.632,-60C218.592,-60 232.681,-60 246.303,-60"/>
<polygon fill="#191970" stroke="#191970" points="205.511,-56.5001 195.511,-60 205.511,-63.5001 205.511,-56.5001"/>
</g>
<!-- Node16&#45;&gt;Node8 -->
<g id="edge19" class="edge">
<title>Node16&#45;&gt;Node8</title>
<path fill="none" stroke="#191970" d="M393.876,-67.8876C404.001,-68.9001 414.149,-69.9149 423.673,-70.8673"/>
<polygon fill="#191970" stroke="#191970" points="394.082,-64.3908 383.783,-66.8783 393.385,-71.3561 394.082,-64.3908"/>
</g>
</g>
</svg>
