<?xml version="1.0" encoding="UTF-8" standalone="no"?>
<!DOCTYPE svg PUBLIC "-//W3C//DTD SVG 1.1//EN"
 "http://www.w3.org/Graphics/SVG/1.1/DTD/svg11.dtd">
<!-- Generated by graphviz version 2.41.20170323.1842 (20170323.1842)
 -->
<!-- Title: kmp_get_register_timer_func Pages: 1 -->
<svg width="1145pt" height="116pt"
 viewBox="0.00 0.00 1145.00 115.50" xmlns="http://www.w3.org/2000/svg" xmlns:xlink="http://www.w3.org/1999/xlink">
<g id="graph0" class="graph" transform="scale(1 1) rotate(0) translate(4 111.5)">
<title>kmp_get_register_timer_func</title>
<polygon fill="#ffffff" stroke="transparent" points="-4,4 -4,-111.5 1141,-111.5 1141,4 -4,4"/>
<!-- Node43 -->
<g id="node1" class="node">
<title>Node43</title>
<polygon fill="#bfbfbf" stroke="#000000" points="0,-60.5 0,-79.5 146,-79.5 146,-60.5 0,-60.5"/>
<text text-anchor="middle" x="73" y="-67.5" font-family="Helvetica,sans-Serif" font-size="10.00" fill="#000000">kmp_get_register_timer_func</text>
</g>
<!-- Node44 -->
<g id="node2" class="node">
<title>Node44</title>
<g id="a_node2"><a xlink:href="kmp__request_8h.html#a3b022dcdc832786eb06126b5e6879604" target="_top" xlink:title="kmp_request_send">
<polygon fill="#ffffff" stroke="#000000" points="182,-60.5 182,-79.5 284,-79.5 284,-60.5 182,-60.5"/>
<text text-anchor="middle" x="233" y="-67.5" font-family="Helvetica,sans-Serif" font-size="10.00" fill="#000000">kmp_request_send</text>
</a>
</g>
</g>
<!-- Node43&#45;&gt;Node44 -->
<g id="edge1" class="edge">
<title>Node43&#45;&gt;Node44</title>
<path fill="none" stroke="#191970" d="M156.5868,-70C165.2256,-70 173.8086,-70 181.9317,-70"/>
<polygon fill="#191970" stroke="#191970" points="156.4441,-66.5001 146.444,-70 156.444,-73.5001 156.4441,-66.5001"/>
</g>
<!-- Node45 -->
<g id="node3" class="node">
<title>Node45</title>
<g id="a_node3"><a xlink:href="kmp__request_8c.html#a0977a4640a97d389ac3b0fef0ba7a9b6" target="_top" xlink:title="kmp_receive_timeout\l_timer_func">
<polygon fill="#ffffff" stroke="#000000" points="320,-77 320,-107 432,-107 432,-77 320,-77"/>
<text text-anchor="start" x="328" y="-95" font-family="Helvetica,sans-Serif" font-size="10.00" fill="#000000">kmp_receive_timeout</text>
<text text-anchor="middle" x="376" y="-84" font-family="Helvetica,sans-Serif" font-size="10.00" fill="#000000">_timer_func</text>
</a>
</g>
</g>
<!-- Node44&#45;&gt;Node45 -->
<g id="edge2" class="edge">
<title>Node44&#45;&gt;Node45</title>
<path fill="none" stroke="#191970" d="M294.2394,-72.7336C303.2222,-74.0061 312.4257,-75.4572 321.2667,-76.9972"/>
<polygon fill="#191970" stroke="#191970" points="294.6015,-69.2508 284.2224,-71.3777 293.6625,-76.1875 294.6015,-69.2508"/>
</g>
<!-- Node46 -->
<g id="node4" class="node">
<title>Node46</title>
<g id="a_node4"><a xlink:href="user__main_8c.html#af2c051d5ceacd30f90c08d6f584deff2" target="_top" xlink:title="sample_timer_func">
<polygon fill="#ffffff" stroke="#000000" points="325.5,-38.5 325.5,-57.5 426.5,-57.5 426.5,-38.5 325.5,-38.5"/>
<text text-anchor="middle" x="376" y="-45.5" font-family="Helvetica,sans-Serif" font-size="10.00" fill="#000000">sample_timer_func</text>
</a>
</g>
</g>
<!-- Node44&#45;&gt;Node46 -->
<g id="edge4" class="edge">
<title>Node44&#45;&gt;Node46</title>
<path fill="none" stroke="#191970" d="M294.3592,-60.5601C304.6231,-58.9811 315.1715,-57.3582 325.1353,-55.8253"/>
<polygon fill="#191970" stroke="#191970" points="293.5739,-57.1397 284.2224,-62.1196 294.6383,-64.0583 293.5739,-57.1397"/>
</g>
<!-- Node52 -->
<g id="node10" class="node">
<title>Node52</title>
<g id="a_node10"><a xlink:href="user__main_8c.html#a3648c609e8dd286eb90285b08b150362" target="_top" xlink:title="kmp_request_send_timer_func">
<polygon fill="#ffffff" stroke="#000000" points="468,-.5 468,-19.5 622,-19.5 622,-.5 468,-.5"/>
<text text-anchor="middle" x="545" y="-7.5" font-family="Helvetica,sans-Serif" font-size="10.00" fill="#000000">kmp_request_send_timer_func</text>
</a>
</g>
</g>
<!-- Node44&#45;&gt;Node52 -->
<g id="edge11" class="edge">
<title>Node44&#45;&gt;Node52</title>
<path fill="none" stroke="#191970" d="M257.8742,-55.3535C274.7975,-46.1345 298.0268,-34.9 320,-29 368.0828,-16.0894 423.833,-11.3125 467.8094,-9.7765"/>
<polygon fill="#191970" stroke="#191970" points="255.711,-52.5534 248.6959,-60.493 259.1311,-58.661 255.711,-52.5534"/>
</g>
<!-- Node45&#45;&gt;Node44 -->
<g id="edge3" class="edge">
<title>Node45&#45;&gt;Node44</title>
<path fill="none" stroke="#191970" d="M309.6307,-88.5239C292.0396,-85.9238 274.0323,-82.7124 259.8972,-79.5495"/>
<polygon fill="#191970" stroke="#191970" points="309.5155,-92.0424 319.9075,-89.9791 310.497,-85.1115 309.5155,-92.0424"/>
</g>
<!-- Node47 -->
<g id="node5" class="node">
<title>Node47</title>
<g id="a_node5"><a xlink:href="user__main_8h.html#ad6eb800c4d7f9c79df52949d88a18d06" target="_top" xlink:title="mqtt_connected_cb">
<polygon fill="#ffffff" stroke="#000000" points="493,-38.5 493,-57.5 597,-57.5 597,-38.5 493,-38.5"/>
<text text-anchor="middle" x="545" y="-45.5" font-family="Helvetica,sans-Serif" font-size="10.00" fill="#000000">mqtt_connected_cb</text>
</a>
</g>
</g>
<!-- Node46&#45;&gt;Node47 -->
<g id="edge5" class="edge">
<title>Node46&#45;&gt;Node47</title>
<path fill="none" stroke="#191970" d="M436.7215,-48C455.097,-48 475.1056,-48 492.8668,-48"/>
<polygon fill="#191970" stroke="#191970" points="436.7056,-44.5001 426.7056,-48 436.7055,-51.5001 436.7056,-44.5001"/>
</g>
<!-- Node48 -->
<g id="node6" class="node">
<title>Node48</title>
<g id="a_node6"><a xlink:href="user__main_8c.html#a245ec00253f410a8804988bf40e1037e" target="_top" xlink:title="sample_mode_timer_func">
<polygon fill="#ffffff" stroke="#000000" points="785,-38.5 785,-57.5 917,-57.5 917,-38.5 785,-38.5"/>
<text text-anchor="middle" x="851" y="-45.5" font-family="Helvetica,sans-Serif" font-size="10.00" fill="#000000">sample_mode_timer_func</text>
</a>
</g>
</g>
<!-- Node47&#45;&gt;Node48 -->
<g id="edge6" class="edge">
<title>Node47&#45;&gt;Node48</title>
<path fill="none" stroke="#191970" d="M600.8066,-59.277C618.9649,-62.4376 639.2659,-65.436 658,-67 698.3042,-70.3648 708.7269,-70.7189 749,-67 769.089,-65.1449 791.1236,-61.2763 809.5562,-57.5111"/>
<polygon fill="#191970" stroke="#191970" points="601.4234,-55.8318 590.9627,-57.5125 600.1882,-62.722 601.4234,-55.8318"/>
</g>
<!-- Node51 -->
<g id="node9" class="node">
<title>Node51</title>
<g id="a_node9"><a xlink:href="user__main_8h.html#a7a3bf0cc09d98adc72f4e34d26ce3fa1" target="_top" xlink:title="wifi_changed_cb">
<polygon fill="#ffffff" stroke="#000000" points="658,-38.5 658,-57.5 749,-57.5 749,-38.5 658,-38.5"/>
<text text-anchor="middle" x="703.5" y="-45.5" font-family="Helvetica,sans-Serif" font-size="10.00" fill="#000000">wifi_changed_cb</text>
</a>
</g>
</g>
<!-- Node47&#45;&gt;Node51 -->
<g id="edge9" class="edge">
<title>Node47&#45;&gt;Node51</title>
<path fill="none" stroke="#191970" d="M607.619,-48C624.3925,-48 642.2069,-48 657.8704,-48"/>
<polygon fill="#191970" stroke="#191970" points="607.3381,-44.5001 597.3381,-48 607.3381,-51.5001 607.3381,-44.5001"/>
</g>
<!-- Node49 -->
<g id="node7" class="node">
<title>Node49</title>
<g id="a_node7"><a xlink:href="user__main_8h.html#a3671381db669a16e8f6a4bf3dfb9a441" target="_top" xlink:title="system_init_done">
<polygon fill="#ffffff" stroke="#000000" points="953,-19.5 953,-38.5 1047,-38.5 1047,-19.5 953,-19.5"/>
<text text-anchor="middle" x="1000" y="-26.5" font-family="Helvetica,sans-Serif" font-size="10.00" fill="#000000">system_init_done</text>
</a>
</g>
</g>
<!-- Node48&#45;&gt;Node49 -->
<g id="edge7" class="edge">
<title>Node48&#45;&gt;Node49</title>
<path fill="none" stroke="#191970" d="M927.361,-38.2627C936.0092,-37.1599 944.624,-36.0614 952.7387,-35.0266"/>
<polygon fill="#191970" stroke="#191970" points="926.6982,-34.8188 917.2213,-39.5557 927.5837,-41.7626 926.6982,-34.8188"/>
</g>
<!-- Node50 -->
<g id="node8" class="node">
<title>Node50</title>
<g id="a_node8"><a xlink:href="user__main_8h.html#a33113d6dedb440bd7dfa5576e325140c" target="_top" xlink:title="user_init">
<polygon fill="#ffffff" stroke="#000000" points="1083,-19.5 1083,-38.5 1137,-38.5 1137,-19.5 1083,-19.5"/>
<text text-anchor="middle" x="1110" y="-26.5" font-family="Helvetica,sans-Serif" font-size="10.00" fill="#000000">user_init</text>
</a>
</g>
</g>
<!-- Node49&#45;&gt;Node50 -->
<g id="edge8" class="edge">
<title>Node49&#45;&gt;Node50</title>
<path fill="none" stroke="#191970" d="M1057.2886,-29C1066.1598,-29 1074.9515,-29 1082.7383,-29"/>
<polygon fill="#191970" stroke="#191970" points="1057.2883,-25.5001 1047.2883,-29 1057.2882,-32.5001 1057.2883,-25.5001"/>
</g>
<!-- Node51&#45;&gt;Node48 -->
<g id="edge10" class="edge">
<title>Node51&#45;&gt;Node48</title>
<path fill="none" stroke="#191970" d="M759.6135,-48C767.8659,-48 776.4313,-48 784.8626,-48"/>
<polygon fill="#191970" stroke="#191970" points="759.3614,-44.5001 749.3614,-48 759.3614,-51.5001 759.3614,-44.5001"/>
</g>
<!-- Node52&#45;&gt;Node49 -->
<g id="edge12" class="edge">
<title>Node52&#45;&gt;Node49</title>
<path fill="none" stroke="#191970" d="M632.3993,-13.6496C727.8653,-17.6361 877.2293,-23.8733 952.8062,-27.0293"/>
<polygon fill="#191970" stroke="#191970" points="632.3219,-10.1435 622.1845,-13.2231 632.0298,-17.1374 632.3219,-10.1435"/>
</g>
</g>
</svg>
