<?xml version="1.0" encoding="UTF-8" standalone="no"?>
<!DOCTYPE svg PUBLIC "-//W3C//DTD SVG 1.1//EN"
 "http://www.w3.org/Graphics/SVG/1.1/DTD/svg11.dtd">
<!-- Generated by graphviz version 2.41.20170323.1842 (20170323.1842)
 -->
<!-- Title: kmp_receive_timeout_timer_func Pages: 1 -->
<svg width="1016pt" height="788pt"
 viewBox="0.00 0.00 1016.00 788.00" xmlns="http://www.w3.org/2000/svg" xmlns:xlink="http://www.w3.org/1999/xlink">
<g id="graph0" class="graph" transform="scale(1 1) rotate(0) translate(4 784)">
<title>kmp_receive_timeout_timer_func</title>
<polygon fill="#ffffff" stroke="transparent" points="-4,4 -4,-784 1012,-784 1012,4 -4,4"/>
<!-- Node70 -->
<g id="node1" class="node">
<title>Node70</title>
<polygon fill="#bfbfbf" stroke="#000000" points="0,-527 0,-557 112,-557 112,-527 0,-527"/>
<text text-anchor="start" x="8" y="-545" font-family="Helvetica,sans-Serif" font-size="10.00" fill="#000000">kmp_receive_timeout</text>
<text text-anchor="middle" x="56" y="-534" font-family="Helvetica,sans-Serif" font-size="10.00" fill="#000000">_timer_func</text>
</g>
<!-- Node71 -->
<g id="node2" class="node">
<title>Node71</title>
<g id="a_node2"><a xlink:href="kmp__request_8c.html#a3b022dcdc832786eb06126b5e6879604" target="_top" xlink:title="kmp_request_send">
<polygon fill="#ffffff" stroke="#000000" points="148,-532.5 148,-551.5 250,-551.5 250,-532.5 148,-532.5"/>
<text text-anchor="middle" x="199" y="-539.5" font-family="Helvetica,sans-Serif" font-size="10.00" fill="#000000">kmp_request_send</text>
</a>
</g>
</g>
<!-- Node70&#45;&gt;Node71 -->
<g id="edge1" class="edge">
<title>Node70&#45;&gt;Node71</title>
<path fill="none" stroke="#191970" d="M112.107,-535.391C120.4512,-535.236 129.0891,-535.2088 137.5363,-535.3095"/>
<polygon fill="#191970" stroke="#191970" points="137.6506,-538.812 147.713,-535.4957 137.7787,-531.8132 137.6506,-538.812"/>
</g>
<!-- Node71&#45;&gt;Node70 -->
<g id="edge14" class="edge">
<title>Node71&#45;&gt;Node70</title>
<path fill="none" stroke="#191970" d="M147.713,-548.5043C139.4106,-548.7112 130.7121,-548.7874 122.1179,-548.733"/>
<polygon fill="#191970" stroke="#191970" points="122.1496,-545.2332 112.107,-548.609 122.0628,-552.2327 122.1496,-545.2332"/>
</g>
<!-- Node72 -->
<g id="node3" class="node">
<title>Node72</title>
<g id="a_node3"><a xlink:href="kmp__request_8c.html#a7e59cff48c3c08aed48914a3a843d4b8" target="_top" xlink:title="kmp_get_serial_timer_func">
<polygon fill="#ffffff" stroke="#000000" points="292.5,-646.5 292.5,-665.5 429.5,-665.5 429.5,-646.5 292.5,-646.5"/>
<text text-anchor="middle" x="361" y="-653.5" font-family="Helvetica,sans-Serif" font-size="10.00" fill="#000000">kmp_get_serial_timer_func</text>
</a>
</g>
</g>
<!-- Node71&#45;&gt;Node72 -->
<g id="edge2" class="edge">
<title>Node71&#45;&gt;Node72</title>
<path fill="none" stroke="#191970" d="M204.8965,-551.5034C217.3653,-570.7713 248.3745,-614.5116 286,-637 289.6319,-639.1707 293.5055,-641.0949 297.5064,-642.8004"/>
<polygon fill="#191970" stroke="#191970" points="296.4273,-646.1342 307.0189,-646.3959 298.9023,-639.5863 296.4273,-646.1342"/>
</g>
<!-- Node79 -->
<g id="node10" class="node">
<title>Node79</title>
<g id="a_node10"><a xlink:href="kmp__request_8c.html#aeadc3768548ef2bed49c3f2fcaf57c20" target="_top" xlink:title="kmp_get_register_timer_func">
<polygon fill="#ffffff" stroke="#000000" points="288,-608.5 288,-627.5 434,-627.5 434,-608.5 288,-608.5"/>
<text text-anchor="middle" x="361" y="-615.5" font-family="Helvetica,sans-Serif" font-size="10.00" fill="#000000">kmp_get_register_timer_func</text>
</a>
</g>
</g>
<!-- Node71&#45;&gt;Node79 -->
<g id="edge9" class="edge">
<title>Node71&#45;&gt;Node79</title>
<path fill="none" stroke="#191970" d="M210.929,-551.6898C227.0377,-564.3185 257.0702,-586.2864 286,-599 291.649,-601.4825 297.6856,-603.6859 303.7889,-605.6304"/>
<polygon fill="#191970" stroke="#191970" points="302.806,-608.9895 313.3884,-608.4758 304.7954,-602.2781 302.806,-608.9895"/>
</g>
<!-- Node81 -->
<g id="node12" class="node">
<title>Node81</title>
<g id="a_node12"><a xlink:href="espmissingincludes_8h.html#ad228deceea1bac4d9f171f647c265059" target="_top" xlink:title="atoi">
<polygon fill="#ffffff" stroke="#000000" points="344.5,-570.5 344.5,-589.5 377.5,-589.5 377.5,-570.5 344.5,-570.5"/>
<text text-anchor="middle" x="361" y="-577.5" font-family="Helvetica,sans-Serif" font-size="10.00" fill="#000000">atoi</text>
</a>
</g>
</g>
<!-- Node71&#45;&gt;Node81 -->
<g id="edge15" class="edge">
<title>Node71&#45;&gt;Node81</title>
<path fill="none" stroke="#191970" d="M239.8794,-551.589C269.5371,-558.5457 308.795,-567.7544 334.4614,-573.7749"/>
<polygon fill="#191970" stroke="#191970" points="333.7004,-577.1913 344.2354,-576.0676 335.299,-570.3763 333.7004,-577.1913"/>
</g>
<!-- Node82 -->
<g id="node13" class="node">
<title>Node82</title>
<g id="a_node13"><a xlink:href="tinyprintf_8c.html#a9738cbc6c538d210941db282e240c7d6" target="_top" xlink:title="tfp_snprintf">
<polygon fill="#ffffff" stroke="#000000" points="328,-532.5 328,-551.5 394,-551.5 394,-532.5 328,-532.5"/>
<text text-anchor="middle" x="361" y="-539.5" font-family="Helvetica,sans-Serif" font-size="10.00" fill="#000000">tfp_snprintf</text>
</a>
</g>
</g>
<!-- Node71&#45;&gt;Node82 -->
<g id="edge16" class="edge">
<title>Node71&#45;&gt;Node82</title>
<path fill="none" stroke="#191970" d="M250.2578,-542C271.9859,-542 297.0297,-542 317.7994,-542"/>
<polygon fill="#191970" stroke="#191970" points="317.9239,-545.5001 327.9238,-542 317.9238,-538.5001 317.9239,-545.5001"/>
</g>
<!-- Node95 -->
<g id="node25" class="node">
<title>Node95</title>
<g id="a_node25"><a xlink:href="unix__time_8c.html#a36607dbd5be7bee11f8c20932b3df407" target="_top" xlink:title="get_unix_time">
<polygon fill="#ffffff" stroke="#000000" points="321.5,-494.5 321.5,-513.5 400.5,-513.5 400.5,-494.5 321.5,-494.5"/>
<text text-anchor="middle" x="361" y="-501.5" font-family="Helvetica,sans-Serif" font-size="10.00" fill="#000000">get_unix_time</text>
</a>
</g>
</g>
<!-- Node71&#45;&gt;Node95 -->
<g id="edge31" class="edge">
<title>Node71&#45;&gt;Node95</title>
<path fill="none" stroke="#191970" d="M239.8794,-532.411C261.5983,-527.3164 288.4658,-521.0142 311.3735,-515.6408"/>
<polygon fill="#191970" stroke="#191970" points="312.3172,-519.0145 321.2537,-513.3232 310.7186,-512.1995 312.3172,-519.0145"/>
</g>
<!-- Node96 -->
<g id="node26" class="node">
<title>Node96</title>
<g id="a_node26"><a xlink:href="crypto_8c.html#a7991ec94c8faa24921947687f2d587a0" target="_top" xlink:title="encrypt_aes_hmac_combined">
<polygon fill="#ffffff" stroke="#000000" points="286,-386.5 286,-405.5 436,-405.5 436,-386.5 286,-386.5"/>
<text text-anchor="middle" x="361" y="-393.5" font-family="Helvetica,sans-Serif" font-size="10.00" fill="#000000">encrypt_aes_hmac_combined</text>
</a>
</g>
</g>
<!-- Node71&#45;&gt;Node96 -->
<g id="edge32" class="edge">
<title>Node71&#45;&gt;Node96</title>
<path fill="none" stroke="#191970" d="M209.6293,-532.4205C236.6246,-508.0914 308.1041,-443.6716 342.283,-412.8684"/>
<polygon fill="#191970" stroke="#191970" points="345.0339,-415.1009 350.1192,-405.8062 340.3476,-409.901 345.0339,-415.1009"/>
</g>
<!-- Node106 -->
<g id="node36" class="node">
<title>Node106</title>
<g id="a_node36"><a xlink:href="mqtt_8h.html#a848a6701c4c7ec3432e38ea57c003aad" target="_top" xlink:title="MQTT publish function. ">
<polygon fill="#ffffff" stroke="#000000" points="319.5,-222.5 319.5,-241.5 402.5,-241.5 402.5,-222.5 319.5,-222.5"/>
<text text-anchor="middle" x="361" y="-229.5" font-family="Helvetica,sans-Serif" font-size="10.00" fill="#000000">MQTT_Publish</text>
</a>
</g>
</g>
<!-- Node71&#45;&gt;Node106 -->
<g id="edge49" class="edge">
<title>Node71&#45;&gt;Node106</title>
<path fill="none" stroke="#191970" d="M204.026,-532.3824C226.7982,-488.8059 320.5133,-309.4745 351.2133,-250.7276"/>
<polygon fill="#191970" stroke="#191970" points="354.503,-251.9893 356.0326,-241.5055 348.2991,-248.7472 354.503,-251.9893"/>
</g>
<!-- Node73 -->
<g id="node4" class="node">
<title>Node73</title>
<g id="a_node4"><a xlink:href="kmp_8c.html#a4d6c33fbffbf96fd508400df943be676" target="_top" xlink:title="kmp_get_serial">
<polygon fill="#ffffff" stroke="#000000" points="489,-684.5 489,-703.5 573,-703.5 573,-684.5 489,-684.5"/>
<text text-anchor="middle" x="531" y="-691.5" font-family="Helvetica,sans-Serif" font-size="10.00" fill="#000000">kmp_get_serial</text>
</a>
</g>
</g>
<!-- Node72&#45;&gt;Node73 -->
<g id="edge3" class="edge">
<title>Node72&#45;&gt;Node73</title>
<path fill="none" stroke="#191970" d="M403.8982,-665.589C426.7058,-670.6872 454.9238,-676.9947 478.9739,-682.3706"/>
<polygon fill="#191970" stroke="#191970" points="478.4753,-685.8455 488.998,-684.6113 480.0024,-679.0141 478.4753,-685.8455"/>
</g>
<!-- Node77 -->
<g id="node8" class="node">
<title>Node77</title>
<g id="a_node8"><a xlink:href="uart_8c.html#a87f1c1c2a25d4336eb804da28ed99f7e" target="_top" xlink:title="uart0_tx_buffer">
<polygon fill="#ffffff" stroke="#000000" points="489,-608.5 489,-627.5 573,-627.5 573,-608.5 489,-608.5"/>
<text text-anchor="middle" x="531" y="-615.5" font-family="Helvetica,sans-Serif" font-size="10.00" fill="#000000">uart0_tx_buffer</text>
</a>
</g>
</g>
<!-- Node72&#45;&gt;Node77 -->
<g id="edge7" class="edge">
<title>Node72&#45;&gt;Node77</title>
<path fill="none" stroke="#191970" d="M403.8982,-646.411C426.7058,-641.3128 454.9238,-635.0053 478.9739,-629.6294"/>
<polygon fill="#191970" stroke="#191970" points="480.0024,-632.9859 488.998,-627.3887 478.4753,-626.1545 480.0024,-632.9859"/>
</g>
<!-- Node74 -->
<g id="node5" class="node">
<title>Node74</title>
<g id="a_node5"><a xlink:href="kmp_8c.html#a799f8c5be2e9dd312ca86e43206634b9" target="_top" xlink:title="kmp_byte_stuff">
<polygon fill="#ffffff" stroke="#000000" points="638.5,-684.5 638.5,-703.5 722.5,-703.5 722.5,-684.5 638.5,-684.5"/>
<text text-anchor="middle" x="680.5" y="-691.5" font-family="Helvetica,sans-Serif" font-size="10.00" fill="#000000">kmp_byte_stuff</text>
</a>
</g>
</g>
<!-- Node73&#45;&gt;Node74 -->
<g id="edge4" class="edge">
<title>Node73&#45;&gt;Node74</title>
<path fill="none" stroke="#191970" d="M573.0419,-694C590.1596,-694 610.1277,-694 628.1741,-694"/>
<polygon fill="#191970" stroke="#191970" points="628.2557,-697.5001 638.2556,-694 628.2556,-690.5001 628.2557,-697.5001"/>
</g>
<!-- Node75 -->
<g id="node6" class="node">
<title>Node75</title>
<g id="a_node6"><a xlink:href="kmp_8c.html#a5245dd3f5d04db2e46786675e7ae97f8" target="_top" xlink:title="kmp_crc16">
<polygon fill="#ffffff" stroke="#000000" points="648,-646.5 648,-665.5 713,-665.5 713,-646.5 648,-646.5"/>
<text text-anchor="middle" x="680.5" y="-653.5" font-family="Helvetica,sans-Serif" font-size="10.00" fill="#000000">kmp_crc16</text>
</a>
</g>
</g>
<!-- Node73&#45;&gt;Node75 -->
<g id="edge5" class="edge">
<title>Node73&#45;&gt;Node75</title>
<path fill="none" stroke="#191970" d="M568.7252,-684.411C589.7833,-679.0584 616.0861,-672.3728 637.8853,-666.8318"/>
<polygon fill="#191970" stroke="#191970" points="639.0352,-670.1509 647.8648,-664.2952 637.3107,-663.3666 639.0352,-670.1509"/>
</g>
<!-- Node76 -->
<g id="node7" class="node">
<title>Node76</title>
<g id="a_node7"><a xlink:href="utils_8c.html#a8d9e1de95e2d6d103108a4b0ebf4d923" target="_top" xlink:title="ccit_crc16">
<polygon fill="#ffffff" stroke="#000000" points="792,-760.5 792,-779.5 854,-779.5 854,-760.5 792,-760.5"/>
<text text-anchor="middle" x="823" y="-767.5" font-family="Helvetica,sans-Serif" font-size="10.00" fill="#000000">ccit_crc16</text>
</a>
</g>
</g>
<!-- Node75&#45;&gt;Node76 -->
<g id="edge6" class="edge">
<title>Node75&#45;&gt;Node76</title>
<path fill="none" stroke="#191970" d="M713.052,-662.6884C720.9093,-665.4904 728.8132,-669.4418 735,-675 762.8031,-699.9785 743.3833,-725.8155 771,-751 774.4078,-754.1077 778.365,-756.7179 782.546,-758.908"/>
<polygon fill="#191970" stroke="#191970" points="781.3688,-762.2144 791.9298,-763.0612 784.202,-755.8133 781.3688,-762.2144"/>
</g>
<!-- Node78 -->
<g id="node9" class="node">
<title>Node78</title>
<g id="a_node9"><a xlink:href="uart_8c.html#a40bca7ca9b269f93bc9f17924a38fbe0" target="_top" xlink:title="uart_tx_one_char">
<polygon fill="#ffffff" stroke="#000000" points="633.5,-608.5 633.5,-627.5 727.5,-627.5 727.5,-608.5 633.5,-608.5"/>
<text text-anchor="middle" x="680.5" y="-615.5" font-family="Helvetica,sans-Serif" font-size="10.00" fill="#000000">uart_tx_one_char</text>
</a>
</g>
</g>
<!-- Node77&#45;&gt;Node78 -->
<g id="edge8" class="edge">
<title>Node77&#45;&gt;Node78</title>
<path fill="none" stroke="#191970" d="M573.0419,-618C588.5618,-618 606.4249,-618 623.0745,-618"/>
<polygon fill="#191970" stroke="#191970" points="623.2526,-621.5001 633.2526,-618 623.2526,-614.5001 623.2526,-621.5001"/>
</g>
<!-- Node79&#45;&gt;Node77 -->
<g id="edge13" class="edge">
<title>Node79&#45;&gt;Node77</title>
<path fill="none" stroke="#191970" d="M434.0819,-618C449.1443,-618 464.716,-618 478.8545,-618"/>
<polygon fill="#191970" stroke="#191970" points="478.8684,-621.5001 488.8684,-618 478.8683,-614.5001 478.8684,-621.5001"/>
</g>
<!-- Node80 -->
<g id="node11" class="node">
<title>Node80</title>
<g id="a_node11"><a xlink:href="kmp_8c.html#aff9c217307fb9210d301ba14bc2b5707" target="_top" xlink:title="kmp_get_register">
<polygon fill="#ffffff" stroke="#000000" points="484,-646.5 484,-665.5 578,-665.5 578,-646.5 484,-646.5"/>
<text text-anchor="middle" x="531" y="-653.5" font-family="Helvetica,sans-Serif" font-size="10.00" fill="#000000">kmp_get_register</text>
</a>
</g>
</g>
<!-- Node79&#45;&gt;Node80 -->
<g id="edge10" class="edge">
<title>Node79&#45;&gt;Node80</title>
<path fill="none" stroke="#191970" d="M403.8982,-627.589C426.5336,-632.6487 454.4982,-638.8996 478.4287,-644.2488"/>
<polygon fill="#191970" stroke="#191970" points="477.8876,-647.7141 488.4103,-646.4799 479.4147,-640.8827 477.8876,-647.7141"/>
</g>
<!-- Node80&#45;&gt;Node74 -->
<g id="edge11" class="edge">
<title>Node80&#45;&gt;Node74</title>
<path fill="none" stroke="#191970" d="M568.7252,-665.589C588.2756,-670.5583 612.3466,-676.6767 633.1374,-681.9613"/>
<polygon fill="#191970" stroke="#191970" points="632.4921,-685.4085 643.0461,-684.4799 634.2165,-678.6243 632.4921,-685.4085"/>
</g>
<!-- Node80&#45;&gt;Node75 -->
<g id="edge12" class="edge">
<title>Node80&#45;&gt;Node75</title>
<path fill="none" stroke="#191970" d="M578.3027,-656C597.2696,-656 618.9742,-656 637.4887,-656"/>
<polygon fill="#191970" stroke="#191970" points="637.6916,-659.5001 647.6916,-656 637.6916,-652.5001 637.6916,-659.5001"/>
</g>
<!-- Node83 -->
<g id="node14" class="node">
<title>Node83</title>
<g id="a_node14"><a xlink:href="tinyprintf_8c.html#ac8c8a66133cf0d7009c0d73b55311a44" target="_top" xlink:title="tfp_vsnprintf">
<polygon fill="#ffffff" stroke="#000000" points="495.5,-532.5 495.5,-551.5 566.5,-551.5 566.5,-532.5 495.5,-532.5"/>
<text text-anchor="middle" x="531" y="-539.5" font-family="Helvetica,sans-Serif" font-size="10.00" fill="#000000">tfp_vsnprintf</text>
</a>
</g>
</g>
<!-- Node82&#45;&gt;Node83 -->
<g id="edge17" class="edge">
<title>Node82&#45;&gt;Node83</title>
<path fill="none" stroke="#191970" d="M394.1813,-542C420.0849,-542 456.3712,-542 485.0662,-542"/>
<polygon fill="#191970" stroke="#191970" points="485.2613,-545.5001 495.2612,-542 485.2612,-538.5001 485.2613,-545.5001"/>
</g>
<!-- Node84 -->
<g id="node15" class="node">
<title>Node84</title>
<g id="a_node15"><a xlink:href="tinyprintf_8c.html#a5877e42444463efc71a91b5fe76a6145" target="_top" xlink:title="tfp_format">
<polygon fill="#ffffff" stroke="#000000" points="649.5,-570.5 649.5,-589.5 711.5,-589.5 711.5,-570.5 649.5,-570.5"/>
<text text-anchor="middle" x="680.5" y="-577.5" font-family="Helvetica,sans-Serif" font-size="10.00" fill="#000000">tfp_format</text>
</a>
</g>
</g>
<!-- Node83&#45;&gt;Node84 -->
<g id="edge18" class="edge">
<title>Node83&#45;&gt;Node84</title>
<path fill="none" stroke="#191970" d="M566.809,-551.1019C588.6309,-556.6487 616.5958,-563.7568 639.3296,-569.5353"/>
<polygon fill="#191970" stroke="#191970" points="638.4877,-572.9325 649.0417,-572.0039 640.2121,-566.1482 638.4877,-572.9325"/>
</g>
<!-- Node94 -->
<g id="node24" class="node">
<title>Node94</title>
<g id="a_node24"><a xlink:href="tinyprintf_8c.html#a919051024b2d729e34a54648b3f2462d" target="_top" xlink:title="_vsnprintf_putcf">
<polygon fill="#ffffff" stroke="#000000" points="637,-532.5 637,-551.5 724,-551.5 724,-532.5 637,-532.5"/>
<text text-anchor="middle" x="680.5" y="-539.5" font-family="Helvetica,sans-Serif" font-size="10.00" fill="#000000">_vsnprintf_putcf</text>
</a>
</g>
</g>
<!-- Node83&#45;&gt;Node94 -->
<g id="edge30" class="edge">
<title>Node83&#45;&gt;Node94</title>
<path fill="none" stroke="#191970" d="M566.809,-542C584.7578,-542 606.8626,-542 626.7941,-542"/>
<polygon fill="#191970" stroke="#191970" points="626.9854,-545.5001 636.9854,-542 626.9853,-538.5001 626.9854,-545.5001"/>
</g>
<!-- Node85 -->
<g id="node16" class="node">
<title>Node85</title>
<g id="a_node16"><a xlink:href="tinyprintf_8c.html#aa97593a5e53af85b608ad0910db92d77" target="_top" xlink:title="a2u">
<polygon fill="#ffffff" stroke="#ff0000" points="806.5,-722.5 806.5,-741.5 839.5,-741.5 839.5,-722.5 806.5,-722.5"/>
<text text-anchor="middle" x="823" y="-729.5" font-family="Helvetica,sans-Serif" font-size="10.00" fill="#000000">a2u</text>
</a>
</g>
</g>
<!-- Node84&#45;&gt;Node85 -->
<g id="edge19" class="edge">
<title>Node84&#45;&gt;Node85</title>
<path fill="none" stroke="#191970" d="M711.5508,-585.4964C720.0623,-588.3139 728.6758,-592.5709 735,-599 770.7774,-635.3709 737.0272,-669.938 771,-708 777.8072,-715.6265 787.5338,-720.9982 796.737,-724.6962"/>
<polygon fill="#191970" stroke="#191970" points="795.7603,-728.0628 806.3551,-728.0794 798.0831,-721.4594 795.7603,-728.0628"/>
</g>
<!-- Node87 -->
<g id="node17" class="node">
<title>Node87</title>
<g id="a_node17"><a xlink:href="tinyprintf_8c.html#abcf035dd576671b0cc897de9dd8c75b0" target="_top" xlink:title="ulli2a">
<polygon fill="#ffffff" stroke="#000000" points="939.5,-665.5 939.5,-684.5 979.5,-684.5 979.5,-665.5 939.5,-665.5"/>
<text text-anchor="middle" x="959.5" y="-672.5" font-family="Helvetica,sans-Serif" font-size="10.00" fill="#000000">ulli2a</text>
</a>
</g>
</g>
<!-- Node84&#45;&gt;Node87 -->
<g id="edge20" class="edge">
<title>Node84&#45;&gt;Node87</title>
<path fill="none" stroke="#191970" d="M711.6329,-586.1944C719.9508,-589.0202 728.4405,-593.1069 735,-599 762.8031,-623.9785 739.4172,-655.0134 771,-675 819.4856,-705.6832 889.9772,-694.3371 929.588,-684.14"/>
<polygon fill="#191970" stroke="#191970" points="930.6979,-687.4653 939.4295,-681.4646 928.8616,-680.7105 930.6979,-687.4653"/>
</g>
<!-- Node88 -->
<g id="node18" class="node">
<title>Node88</title>
<g id="a_node18"><a xlink:href="tinyprintf_8c.html#a1d61347854a8c290d59b4a21efcefd75" target="_top" xlink:title="uli2a">
<polygon fill="#ffffff" stroke="#000000" points="940.5,-589.5 940.5,-608.5 978.5,-608.5 978.5,-589.5 940.5,-589.5"/>
<text text-anchor="middle" x="959.5" y="-596.5" font-family="Helvetica,sans-Serif" font-size="10.00" fill="#000000">uli2a</text>
</a>
</g>
</g>
<!-- Node84&#45;&gt;Node88 -->
<g id="edge21" class="edge">
<title>Node84&#45;&gt;Node88</title>
<path fill="none" stroke="#191970" d="M711.6601,-588.2057C728.9947,-592.3488 751.0394,-596.9273 771,-599 827.1416,-604.8298 893.197,-602.8042 930.3244,-600.8618"/>
<polygon fill="#191970" stroke="#191970" points="930.6471,-604.3493 940.4362,-600.2966 930.2565,-597.3602 930.6471,-604.3493"/>
</g>
<!-- Node89 -->
<g id="node19" class="node">
<title>Node89</title>
<g id="a_node19"><a xlink:href="tinyprintf_8c.html#ac87ff66a592723f55692eaf8e3f19df8" target="_top" xlink:title="ui2a">
<polygon fill="#ffffff" stroke="#000000" points="942,-513.5 942,-532.5 977,-532.5 977,-513.5 942,-513.5"/>
<text text-anchor="middle" x="959.5" y="-520.5" font-family="Helvetica,sans-Serif" font-size="10.00" fill="#000000">ui2a</text>
</a>
</g>
</g>
<!-- Node84&#45;&gt;Node89 -->
<g id="edge22" class="edge">
<title>Node84&#45;&gt;Node89</title>
<path fill="none" stroke="#191970" d="M711.8993,-573.3433C729.3063,-569.6693 751.3439,-565.0445 771,-561 828.1415,-549.2423 895.1061,-535.8299 931.8569,-528.5005"/>
<polygon fill="#191970" stroke="#191970" points="932.6955,-531.9023 941.8185,-526.5153 931.3273,-525.0373 932.6955,-531.9023"/>
</g>
<!-- Node90 -->
<g id="node20" class="node">
<title>Node90</title>
<g id="a_node20"><a xlink:href="tinyprintf_8c.html#a6252dbfebb2c8783c4e3107d551082dd" target="_top" xlink:title="putchw">
<polygon fill="#ffffff" stroke="#000000" points="799,-456.5 799,-475.5 847,-475.5 847,-456.5 799,-456.5"/>
<text text-anchor="middle" x="823" y="-463.5" font-family="Helvetica,sans-Serif" font-size="10.00" fill="#000000">putchw</text>
</a>
</g>
</g>
<!-- Node84&#45;&gt;Node90 -->
<g id="edge23" class="edge">
<title>Node84&#45;&gt;Node90</title>
<path fill="none" stroke="#191970" d="M711.6329,-573.8056C719.9508,-570.9798 728.4405,-566.8931 735,-561 762.8031,-536.0215 743.3833,-510.1845 771,-485 776.201,-480.257 782.6819,-476.6728 789.2846,-473.9725"/>
<polygon fill="#191970" stroke="#191970" points="790.6203,-477.2135 798.9108,-470.6167 788.316,-470.6037 790.6203,-477.2135"/>
</g>
<!-- Node91 -->
<g id="node21" class="node">
<title>Node91</title>
<g id="a_node21"><a xlink:href="tinyprintf_8c.html#a49c6d2b3d4088012f2c1fe344eef69f3" target="_top" xlink:title="lli2a">
<polygon fill="#ffffff" stroke="#000000" points="806,-646.5 806,-665.5 840,-665.5 840,-646.5 806,-646.5"/>
<text text-anchor="middle" x="823" y="-653.5" font-family="Helvetica,sans-Serif" font-size="10.00" fill="#000000">lli2a</text>
</a>
</g>
</g>
<!-- Node84&#45;&gt;Node91 -->
<g id="edge24" class="edge">
<title>Node84&#45;&gt;Node91</title>
<path fill="none" stroke="#191970" d="M711.7474,-588.4578C719.6223,-591.236 727.861,-594.7333 735,-599 753.6312,-610.1351 752.9303,-619.9751 771,-632 778.8533,-637.2262 788.0278,-641.8751 796.4655,-645.6567"/>
<polygon fill="#191970" stroke="#191970" points="795.3373,-648.9804 805.909,-649.6802 798.0811,-642.5405 795.3373,-648.9804"/>
</g>
<!-- Node92 -->
<g id="node22" class="node">
<title>Node92</title>
<g id="a_node22"><a xlink:href="tinyprintf_8c.html#afebb7696337c3f599b5e8db35c560684" target="_top" xlink:title="li2a">
<polygon fill="#ffffff" stroke="#000000" points="807,-570.5 807,-589.5 839,-589.5 839,-570.5 807,-570.5"/>
<text text-anchor="middle" x="823" y="-577.5" font-family="Helvetica,sans-Serif" font-size="10.00" fill="#000000">li2a</text>
</a>
</g>
</g>
<!-- Node84&#45;&gt;Node92 -->
<g id="edge26" class="edge">
<title>Node84&#45;&gt;Node92</title>
<path fill="none" stroke="#191970" d="M711.7722,-580C737.2071,-580 772.6914,-580 796.6867,-580"/>
<polygon fill="#191970" stroke="#191970" points="796.8257,-583.5001 806.8257,-580 796.8257,-576.5001 796.8257,-583.5001"/>
</g>
<!-- Node93 -->
<g id="node23" class="node">
<title>Node93</title>
<g id="a_node23"><a xlink:href="tinyprintf_8c.html#a90f9fd8f2133cda7f50be8d67823405c" target="_top" xlink:title="i2a">
<polygon fill="#ffffff" stroke="#000000" points="808,-494.5 808,-513.5 838,-513.5 838,-494.5 808,-494.5"/>
<text text-anchor="middle" x="823" y="-501.5" font-family="Helvetica,sans-Serif" font-size="10.00" fill="#000000">i2a</text>
</a>
</g>
</g>
<!-- Node84&#45;&gt;Node93 -->
<g id="edge28" class="edge">
<title>Node84&#45;&gt;Node93</title>
<path fill="none" stroke="#191970" d="M711.7474,-571.5422C719.6223,-568.764 727.861,-565.2667 735,-561 753.6312,-549.8649 752.9303,-540.0249 771,-528 779.4198,-522.3968 789.3583,-517.4573 798.2792,-513.5386"/>
<polygon fill="#191970" stroke="#191970" points="799.9063,-516.6521 807.7837,-509.5672 797.2074,-510.1933 799.9063,-516.6521"/>
</g>
<!-- Node91&#45;&gt;Node87 -->
<g id="edge25" class="edge">
<title>Node91&#45;&gt;Node87</title>
<path fill="none" stroke="#191970" d="M840.0118,-658.3679C862.2203,-661.4592 901.4863,-666.9248 928.9233,-670.7439"/>
<polygon fill="#191970" stroke="#191970" points="928.7697,-674.2562 939.1567,-672.1683 929.7348,-667.323 928.7697,-674.2562"/>
</g>
<!-- Node92&#45;&gt;Node88 -->
<g id="edge27" class="edge">
<title>Node92&#45;&gt;Node88</title>
<path fill="none" stroke="#191970" d="M839.1944,-582.2542C861.6124,-585.3746 902.4786,-591.063 930.2991,-594.9354"/>
<polygon fill="#191970" stroke="#191970" points="929.8701,-598.4094 940.2572,-596.3215 930.8352,-591.4762 929.8701,-598.4094"/>
</g>
<!-- Node93&#45;&gt;Node89 -->
<g id="edge29" class="edge">
<title>Node93&#45;&gt;Node89</title>
<path fill="none" stroke="#191970" d="M838.1294,-506.1059C860.6567,-509.2416 903.3903,-515.1899 931.663,-519.1253"/>
<polygon fill="#191970" stroke="#191970" points="931.3314,-522.6128 941.7185,-520.5249 932.2965,-515.6796 931.3314,-522.6128"/>
</g>
<!-- Node97 -->
<g id="node27" class="node">
<title>Node97</title>
<g id="a_node27"><a xlink:href="aes_8h.html#a9cb9b4ad9fb6311391d669e54f718cf4" target="_top" xlink:title="AES128_CBC_encrypt\l_buffer">
<polygon fill="#ffffff" stroke="#000000" points="472,-337 472,-367 590,-367 590,-337 472,-337"/>
<text text-anchor="start" x="480" y="-355" font-family="Helvetica,sans-Serif" font-size="10.00" fill="#000000">AES128_CBC_encrypt</text>
<text text-anchor="middle" x="531" y="-344" font-family="Helvetica,sans-Serif" font-size="10.00" fill="#000000">_buffer</text>
</a>
</g>
</g>
<!-- Node96&#45;&gt;Node97 -->
<g id="edge33" class="edge">
<title>Node96&#45;&gt;Node97</title>
<path fill="none" stroke="#191970" d="M397.8875,-386.4527C416.942,-381.5209 440.8063,-375.3442 463.0468,-369.5879"/>
<polygon fill="#191970" stroke="#191970" points="463.9889,-372.9595 472.7929,-367.0654 462.2349,-366.1828 463.9889,-372.9595"/>
</g>
<!-- Node98 -->
<g id="node28" class="node">
<title>Node98</title>
<g id="a_node28"><a xlink:href="hmac-sha256_8c.html#a7fad664b062689148a6b1ee5d4bc790d" target="_top" xlink:title="hmac_sha256_final">
<polygon fill="#ffffff" stroke="#000000" points="629,-380.5 629,-399.5 732,-399.5 732,-380.5 629,-380.5"/>
<text text-anchor="middle" x="680.5" y="-387.5" font-family="Helvetica,sans-Serif" font-size="10.00" fill="#000000">hmac_sha256_final</text>
</a>
</g>
</g>
<!-- Node96&#45;&gt;Node98 -->
<g id="edge34" class="edge">
<title>Node96&#45;&gt;Node98</title>
<path fill="none" stroke="#191970" d="M436.3125,-394.5857C491.832,-393.5431 566.4462,-392.1419 618.5281,-391.1638"/>
<polygon fill="#191970" stroke="#191970" points="618.6993,-394.6613 628.6317,-390.9741 618.5678,-387.6625 618.6993,-394.6613"/>
</g>
<!-- Node103 -->
<g id="node33" class="node">
<title>Node103</title>
<g id="a_node33"><a xlink:href="hmac-sha256_8c.html#a553a08d76959d7d64d25927fa418af1f" target="_top" xlink:title="hmac_sha256_init">
<polygon fill="#ffffff" stroke="#000000" points="482,-424.5 482,-443.5 580,-443.5 580,-424.5 482,-424.5"/>
<text text-anchor="middle" x="531" y="-431.5" font-family="Helvetica,sans-Serif" font-size="10.00" fill="#000000">hmac_sha256_init</text>
</a>
</g>
</g>
<!-- Node96&#45;&gt;Node103 -->
<g id="edge40" class="edge">
<title>Node96&#45;&gt;Node103</title>
<path fill="none" stroke="#191970" d="M403.8982,-405.589C426.5336,-410.6487 454.4982,-416.8996 478.4287,-422.2488"/>
<polygon fill="#191970" stroke="#191970" points="477.8876,-425.7141 488.4103,-424.4799 479.4147,-418.8827 477.8876,-425.7141"/>
</g>
<!-- Node105 -->
<g id="node35" class="node">
<title>Node105</title>
<g id="a_node35"><a xlink:href="hmac-sha256_8c.html#a604cda5243425d008a47d89401e7c987" target="_top" xlink:title="hmac_sha256_update">
<polygon fill="#ffffff" stroke="#000000" points="473.5,-298.5 473.5,-317.5 588.5,-317.5 588.5,-298.5 473.5,-298.5"/>
<text text-anchor="middle" x="531" y="-305.5" font-family="Helvetica,sans-Serif" font-size="10.00" fill="#000000">hmac_sha256_update</text>
</a>
</g>
</g>
<!-- Node96&#45;&gt;Node105 -->
<g id="edge47" class="edge">
<title>Node96&#45;&gt;Node105</title>
<path fill="none" stroke="#191970" d="M374.4619,-386.3798C394.809,-372.1633 434.9604,-345.3577 472,-328 477.3956,-325.4715 483.2015,-323.105 488.9911,-320.9479"/>
<polygon fill="#191970" stroke="#191970" points="490.3895,-324.1656 498.6439,-317.5237 488.0492,-317.5684 490.3895,-324.1656"/>
</g>
<!-- Node99 -->
<g id="node29" class="node">
<title>Node99</title>
<g id="a_node29"><a xlink:href="sha256_8c.html#a28a4e37e67f8b97b374c49d8b83d8167" target="_top" xlink:title="sha256_final">
<polygon fill="#ffffff" stroke="#000000" points="786.5,-380.5 786.5,-399.5 859.5,-399.5 859.5,-380.5 786.5,-380.5"/>
<text text-anchor="middle" x="823" y="-387.5" font-family="Helvetica,sans-Serif" font-size="10.00" fill="#000000">sha256_final</text>
</a>
</g>
</g>
<!-- Node98&#45;&gt;Node99 -->
<g id="edge35" class="edge">
<title>Node98&#45;&gt;Node99</title>
<path fill="none" stroke="#191970" d="M732.3489,-390C746.5537,-390 761.8721,-390 775.8012,-390"/>
<polygon fill="#191970" stroke="#191970" points="776.1406,-393.5001 786.1406,-390 776.1405,-386.5001 776.1406,-393.5001"/>
</g>
<!-- Node101 -->
<g id="node31" class="node">
<title>Node101</title>
<g id="a_node31"><a xlink:href="sha256_8c.html#ad1c794b2d7e8eba243628e45cb69ef94" target="_top" xlink:title="sha256_init">
<polygon fill="#ffffff" stroke="#000000" points="789,-418.5 789,-437.5 857,-437.5 857,-418.5 789,-418.5"/>
<text text-anchor="middle" x="823" y="-425.5" font-family="Helvetica,sans-Serif" font-size="10.00" fill="#000000">sha256_init</text>
</a>
</g>
</g>
<!-- Node98&#45;&gt;Node101 -->
<g id="edge37" class="edge">
<title>Node98&#45;&gt;Node101</title>
<path fill="none" stroke="#191970" d="M716.4588,-399.589C735.3617,-404.6298 758.6985,-410.8529 778.708,-416.1888"/>
<polygon fill="#191970" stroke="#191970" points="777.9632,-419.6124 788.5274,-418.8073 779.7669,-412.8488 777.9632,-419.6124"/>
</g>
<!-- Node102 -->
<g id="node32" class="node">
<title>Node102</title>
<g id="a_node32"><a xlink:href="sha256_8c.html#a00647246fd4532c27d1aafd709d5973d" target="_top" xlink:title="sha256_update">
<polygon fill="#ffffff" stroke="#000000" points="780.5,-342.5 780.5,-361.5 865.5,-361.5 865.5,-342.5 780.5,-342.5"/>
<text text-anchor="middle" x="823" y="-349.5" font-family="Helvetica,sans-Serif" font-size="10.00" fill="#000000">sha256_update</text>
</a>
</g>
</g>
<!-- Node98&#45;&gt;Node102 -->
<g id="edge38" class="edge">
<title>Node98&#45;&gt;Node102</title>
<path fill="none" stroke="#191970" d="M716.4588,-380.411C734.9385,-375.4831 757.6558,-369.4251 777.3591,-364.1709"/>
<polygon fill="#191970" stroke="#191970" points="778.2922,-367.5445 787.0527,-361.5859 776.4885,-360.7808 778.2922,-367.5445"/>
</g>
<!-- Node100 -->
<g id="node30" class="node">
<title>Node100</title>
<g id="a_node30"><a xlink:href="sha256_8c.html#a97b828e7b6479297e92fb5ffc5225ee3" target="_top" xlink:title="sha256_transform">
<polygon fill="#ffffff" stroke="#000000" points="911,-361.5 911,-380.5 1008,-380.5 1008,-361.5 911,-361.5"/>
<text text-anchor="middle" x="959.5" y="-368.5" font-family="Helvetica,sans-Serif" font-size="10.00" fill="#000000">sha256_transform</text>
</a>
</g>
</g>
<!-- Node99&#45;&gt;Node100 -->
<g id="edge36" class="edge">
<title>Node99&#45;&gt;Node100</title>
<path fill="none" stroke="#191970" d="M859.5795,-384.9083C872.2253,-383.1481 886.735,-381.1285 900.7056,-379.1838"/>
<polygon fill="#191970" stroke="#191970" points="901.3269,-382.6312 910.7488,-377.7859 900.3618,-375.698 901.3269,-382.6312"/>
</g>
<!-- Node102&#45;&gt;Node100 -->
<g id="edge39" class="edge">
<title>Node102&#45;&gt;Node100</title>
<path fill="none" stroke="#191970" d="M865.8149,-357.9596C876.8208,-359.4915 888.8563,-361.1668 900.5235,-362.7908"/>
<polygon fill="#191970" stroke="#191970" points="900.2595,-366.2877 910.6465,-364.1999 901.2246,-359.3546 900.2595,-366.2877"/>
</g>
<!-- Node103&#45;&gt;Node101 -->
<g id="edge41" class="edge">
<title>Node103&#45;&gt;Node101</title>
<path fill="none" stroke="#191970" d="M580.176,-442.0254C594.8734,-444.0731 611.0525,-445.982 626,-447 674.3325,-450.2916 686.8291,-452.141 735,-447 749.382,-445.4651 764.8652,-442.5572 778.7742,-439.4694"/>
<polygon fill="#191970" stroke="#191970" points="779.6281,-442.8644 788.5856,-437.2063 778.0548,-436.0435 779.6281,-442.8644"/>
</g>
<!-- Node103&#45;&gt;Node102 -->
<g id="edge46" class="edge">
<title>Node103&#45;&gt;Node102</title>
<path fill="none" stroke="#191970" d="M541.7154,-424.2693C558.359,-409.8033 592.0541,-383.0407 626,-371 672.7704,-354.4103 729.4707,-350.492 770.0101,-350.2277"/>
<polygon fill="#191970" stroke="#191970" points="770.2094,-353.7278 780.2122,-350.2358 770.215,-346.7278 770.2094,-353.7278"/>
</g>
<!-- Node104 -->
<g id="node34" class="node">
<title>Node104</title>
<g id="a_node34"><a xlink:href="sha256_8c.html#a7f22a0894ca55160852ddcdff7a1f2fc" target="_top" xlink:title="sha256_raw">
<polygon fill="#ffffff" stroke="#000000" points="645,-418.5 645,-437.5 716,-437.5 716,-418.5 645,-418.5"/>
<text text-anchor="middle" x="680.5" y="-425.5" font-family="Helvetica,sans-Serif" font-size="10.00" fill="#000000">sha256_raw</text>
</a>
</g>
</g>
<!-- Node103&#45;&gt;Node104 -->
<g id="edge42" class="edge">
<title>Node103&#45;&gt;Node104</title>
<path fill="none" stroke="#191970" d="M580.3662,-432.0187C597.8335,-431.3177 617.3993,-430.5325 634.5695,-429.8434"/>
<polygon fill="#191970" stroke="#191970" points="635.059,-433.3266 644.9106,-429.4283 634.7783,-426.3323 635.059,-433.3266"/>
</g>
<!-- Node104&#45;&gt;Node99 -->
<g id="edge43" class="edge">
<title>Node104&#45;&gt;Node99</title>
<path fill="none" stroke="#191970" d="M716.0912,-418.509C734.709,-413.5443 757.7034,-407.4124 777.5908,-402.1091"/>
<polygon fill="#191970" stroke="#191970" points="778.6082,-405.4602 787.3687,-399.5017 776.8045,-398.6966 778.6082,-405.4602"/>
</g>
<!-- Node104&#45;&gt;Node101 -->
<g id="edge44" class="edge">
<title>Node104&#45;&gt;Node101</title>
<path fill="none" stroke="#191970" d="M716.0912,-428C735.0451,-428 758.5352,-428 778.6651,-428"/>
<polygon fill="#191970" stroke="#191970" points="778.8437,-431.5001 788.8436,-428 778.8436,-424.5001 778.8437,-431.5001"/>
</g>
<!-- Node104&#45;&gt;Node102 -->
<g id="edge45" class="edge">
<title>Node104&#45;&gt;Node102</title>
<path fill="none" stroke="#191970" d="M715.9622,-418.4059C722.5582,-415.8645 729.1938,-412.7539 735,-409 754.5368,-396.3688 751.5576,-383.7761 771,-371 773.9406,-369.0676 777.1037,-367.2994 780.3653,-365.6878"/>
<polygon fill="#191970" stroke="#191970" points="781.9844,-368.7989 789.7158,-361.5549 779.1544,-362.3965 781.9844,-368.7989"/>
</g>
<!-- Node105&#45;&gt;Node102 -->
<g id="edge48" class="edge">
<title>Node105&#45;&gt;Node102</title>
<path fill="none" stroke="#191970" d="M588.6224,-316.2896C629.4965,-322.2147 685.6373,-330.4441 735,-338 746.4724,-339.7561 758.7785,-341.6853 770.4442,-343.5353"/>
<polygon fill="#191970" stroke="#191970" points="770.0682,-347.0194 780.494,-345.1343 771.1682,-340.1064 770.0682,-347.0194"/>
</g>
<!-- Node107 -->
<g id="node37" class="node">
<title>Node107</title>
<g id="a_node37"><a xlink:href="mqtt__msg_8h.html#af16842423fc1d5d802a7f329fc3a9ef9" target="_top" xlink:title="mqtt_msg_publish">
<polygon fill="#ffffff" stroke="#000000" points="482,-171.5 482,-190.5 580,-190.5 580,-171.5 482,-171.5"/>
<text text-anchor="middle" x="531" y="-178.5" font-family="Helvetica,sans-Serif" font-size="10.00" fill="#000000">mqtt_msg_publish</text>
</a>
</g>
</g>
<!-- Node106&#45;&gt;Node107 -->
<g id="edge50" class="edge">
<title>Node106&#45;&gt;Node107</title>
<path fill="none" stroke="#191970" d="M392.9757,-222.4073C420.2822,-214.2153 459.7446,-202.3766 489.4858,-193.4543"/>
<polygon fill="#191970" stroke="#191970" points="490.5952,-196.7756 499.1677,-190.5497 488.5837,-190.0709 490.5952,-196.7756"/>
</g>
<!-- Node113 -->
<g id="node43" class="node">
<title>Node113</title>
<g id="a_node43"><a xlink:href="queue_8h.html#acf070d5db9067c0b9598dec844313ae5" target="_top" xlink:title="QUEUE_Gets">
<polygon fill="#ffffff" stroke="#000000" points="491.5,-76.5 491.5,-95.5 570.5,-95.5 570.5,-76.5 491.5,-76.5"/>
<text text-anchor="middle" x="531" y="-83.5" font-family="Helvetica,sans-Serif" font-size="10.00" fill="#000000">QUEUE_Gets</text>
</a>
</g>
</g>
<!-- Node106&#45;&gt;Node113 -->
<g id="edge56" class="edge">
<title>Node106&#45;&gt;Node113</title>
<path fill="none" stroke="#191970" d="M372.1542,-222.4205C400.6026,-197.9884 476.1285,-133.125 511.8126,-102.4786"/>
<polygon fill="#191970" stroke="#191970" points="514.2759,-104.9767 519.5818,-95.8062 509.7152,-99.6663 514.2759,-104.9767"/>
</g>
<!-- Node118 -->
<g id="node48" class="node">
<title>Node118</title>
<g id="a_node48"><a xlink:href="queue_8h.html#a0a04f14d06c5c3ee302764c5f3d7dc0c" target="_top" xlink:title="QUEUE_Puts">
<polygon fill="#ffffff" stroke="#000000" points="492,-247.5 492,-266.5 570,-266.5 570,-247.5 492,-247.5"/>
<text text-anchor="middle" x="531" y="-254.5" font-family="Helvetica,sans-Serif" font-size="10.00" fill="#000000">QUEUE_Puts</text>
</a>
</g>
</g>
<!-- Node106&#45;&gt;Node118 -->
<g id="edge61" class="edge">
<title>Node106&#45;&gt;Node118</title>
<path fill="none" stroke="#191970" d="M402.5867,-238.1157C426.5179,-241.635 456.7249,-246.0772 481.8286,-249.7689"/>
<polygon fill="#191970" stroke="#191970" points="481.4815,-253.2554 491.8844,-251.2477 482.5,-246.3299 481.4815,-253.2554"/>
</g>
<!-- Node108 -->
<g id="node38" class="node">
<title>Node108</title>
<g id="a_node38"><a xlink:href="mqtt__msg_8c.html#ac59e26babd30c6c0ace9a174e75786f3" target="_top" xlink:title="append_message_id">
<polygon fill="#ffffff" stroke="#000000" points="626,-152.5 626,-171.5 735,-171.5 735,-152.5 626,-152.5"/>
<text text-anchor="middle" x="680.5" y="-159.5" font-family="Helvetica,sans-Serif" font-size="10.00" fill="#000000">append_message_id</text>
</a>
</g>
</g>
<!-- Node107&#45;&gt;Node108 -->
<g id="edge51" class="edge">
<title>Node107&#45;&gt;Node108</title>
<path fill="none" stroke="#191970" d="M580.3662,-174.726C591.6149,-173.2964 603.7337,-171.7562 615.5227,-170.258"/>
<polygon fill="#191970" stroke="#191970" points="616.2886,-173.6889 625.7675,-168.956 615.406,-166.7447 616.2886,-173.6889"/>
</g>
<!-- Node109 -->
<g id="node39" class="node">
<title>Node109</title>
<g id="a_node39"><a xlink:href="mqtt__msg_8c.html#a207c99e2058080b97c21a348d693a560" target="_top" xlink:title="append_string">
<polygon fill="#ffffff" stroke="#000000" points="640.5,-114.5 640.5,-133.5 720.5,-133.5 720.5,-114.5 640.5,-114.5"/>
<text text-anchor="middle" x="680.5" y="-121.5" font-family="Helvetica,sans-Serif" font-size="10.00" fill="#000000">append_string</text>
</a>
</g>
</g>
<!-- Node107&#45;&gt;Node109 -->
<g id="edge52" class="edge">
<title>Node107&#45;&gt;Node109</title>
<path fill="none" stroke="#191970" d="M553.9232,-171.4942C573.095,-163.6252 601.2101,-152.2738 626,-143 631.3378,-141.0032 636.9938,-138.9558 642.5633,-136.9789"/>
<polygon fill="#191970" stroke="#191970" points="644.1314,-140.1378 652.4073,-133.5227 641.8124,-133.5331 644.1314,-140.1378"/>
</g>
<!-- Node110 -->
<g id="node40" class="node">
<title>Node110</title>
<g id="a_node40"><a xlink:href="mqtt__msg_8c.html#a9a2fb8c67ff4b104dd46e72c9e97b710" target="_top" xlink:title="fail_message">
<polygon fill="#ffffff" stroke="#000000" points="643,-76.5 643,-95.5 718,-95.5 718,-76.5 643,-76.5"/>
<text text-anchor="middle" x="680.5" y="-83.5" font-family="Helvetica,sans-Serif" font-size="10.00" fill="#000000">fail_message</text>
</a>
</g>
</g>
<!-- Node107&#45;&gt;Node110 -->
<g id="edge53" class="edge">
<title>Node107&#45;&gt;Node110</title>
<path fill="none" stroke="#191970" d="M540.7128,-171.3245C557.0485,-155.516 591.6198,-124.01 626,-105 629.7488,-102.9272 633.7653,-101.0168 637.8557,-99.2724"/>
<polygon fill="#191970" stroke="#191970" points="639.4154,-102.4201 647.4425,-95.5051 636.8552,-95.9051 639.4154,-102.4201"/>
</g>
<!-- Node111 -->
<g id="node41" class="node">
<title>Node111</title>
<g id="a_node41"><a xlink:href="mqtt__msg_8c.html#a356949afe8a334d5e91bddb4b2794921" target="_top" xlink:title="fini_message">
<polygon fill="#ffffff" stroke="#000000" points="643,-228.5 643,-247.5 718,-247.5 718,-228.5 643,-228.5"/>
<text text-anchor="middle" x="680.5" y="-235.5" font-family="Helvetica,sans-Serif" font-size="10.00" fill="#000000">fini_message</text>
</a>
</g>
</g>
<!-- Node107&#45;&gt;Node111 -->
<g id="edge54" class="edge">
<title>Node107&#45;&gt;Node111</title>
<path fill="none" stroke="#191970" d="M553.9232,-190.5058C573.095,-198.3748 601.2101,-209.7262 626,-219 631.3378,-220.9968 636.9938,-223.0442 642.5633,-225.0211"/>
<polygon fill="#191970" stroke="#191970" points="641.8124,-228.4669 652.4073,-228.4773 644.1314,-221.8622 641.8124,-228.4669"/>
</g>
<!-- Node112 -->
<g id="node42" class="node">
<title>Node112</title>
<g id="a_node42"><a xlink:href="mqtt__msg_8c.html#aae7c66cc577ac90e9535edac4abc068c" target="_top" xlink:title="init_message">
<polygon fill="#ffffff" stroke="#000000" points="643,-190.5 643,-209.5 718,-209.5 718,-190.5 643,-190.5"/>
<text text-anchor="middle" x="680.5" y="-197.5" font-family="Helvetica,sans-Serif" font-size="10.00" fill="#000000">init_message</text>
</a>
</g>
</g>
<!-- Node107&#45;&gt;Node112 -->
<g id="edge55" class="edge">
<title>Node107&#45;&gt;Node112</title>
<path fill="none" stroke="#191970" d="M580.3662,-187.274C597.1292,-189.4044 615.8248,-191.7804 632.481,-193.8973"/>
<polygon fill="#191970" stroke="#191970" points="632.1914,-197.3885 642.5529,-195.1773 633.074,-190.4444 632.1914,-197.3885"/>
</g>
<!-- Node114 -->
<g id="node44" class="node">
<title>Node114</title>
<g id="a_node44"><a xlink:href="proto_8h.html#a4ce0ecd80c57cb13f47a2725036451af" target="_top" xlink:title="PROTO_ParseRb">
<polygon fill="#ffffff" stroke="#000000" points="632,-38.5 632,-57.5 729,-57.5 729,-38.5 632,-38.5"/>
<text text-anchor="middle" x="680.5" y="-45.5" font-family="Helvetica,sans-Serif" font-size="10.00" fill="#000000">PROTO_ParseRb</text>
</a>
</g>
</g>
<!-- Node113&#45;&gt;Node114 -->
<g id="edge57" class="edge">
<title>Node113&#45;&gt;Node114</title>
<path fill="none" stroke="#191970" d="M568.7252,-76.411C588.2756,-71.4417 612.3466,-65.3233 633.1374,-60.0387"/>
<polygon fill="#191970" stroke="#191970" points="634.2165,-63.3757 643.0461,-57.5201 632.4921,-56.5915 634.2165,-63.3757"/>
</g>
<!-- Node115 -->
<g id="node45" class="node">
<title>Node115</title>
<g id="a_node45"><a xlink:href="proto_8c.html#aef0525e6fb0717f1ae3816f5a59fbd08" target="_top" xlink:title="PROTO_Init">
<polygon fill="#ffffff" stroke="#000000" points="787.5,-38.5 787.5,-57.5 858.5,-57.5 858.5,-38.5 787.5,-38.5"/>
<text text-anchor="middle" x="823" y="-45.5" font-family="Helvetica,sans-Serif" font-size="10.00" fill="#000000">PROTO_Init</text>
</a>
</g>
</g>
<!-- Node114&#45;&gt;Node115 -->
<g id="edge58" class="edge">
<title>Node114&#45;&gt;Node115</title>
<path fill="none" stroke="#191970" d="M729.1419,-48C744.6021,-48 761.6468,-48 776.9206,-48"/>
<polygon fill="#191970" stroke="#191970" points="777.1706,-51.5001 787.1706,-48 777.1706,-44.5001 777.1706,-51.5001"/>
</g>
<!-- Node116 -->
<g id="node46" class="node">
<title>Node116</title>
<g id="a_node46"><a xlink:href="proto_8c.html#ada6cc416001736d9b313d8871024e616" target="_top" xlink:title="PROTO_ParseByte">
<polygon fill="#ffffff" stroke="#000000" points="771,-.5 771,-19.5 875,-19.5 875,-.5 771,-.5"/>
<text text-anchor="middle" x="823" y="-7.5" font-family="Helvetica,sans-Serif" font-size="10.00" fill="#000000">PROTO_ParseByte</text>
</a>
</g>
</g>
<!-- Node114&#45;&gt;Node116 -->
<g id="edge59" class="edge">
<title>Node114&#45;&gt;Node116</title>
<path fill="none" stroke="#191970" d="M716.4588,-38.411C734.9385,-33.4831 757.6558,-27.4251 777.3591,-22.1709"/>
<polygon fill="#191970" stroke="#191970" points="778.2922,-25.5445 787.0527,-19.5859 776.4885,-18.7808 778.2922,-25.5445"/>
</g>
<!-- Node117 -->
<g id="node47" class="node">
<title>Node117</title>
<g id="a_node47"><a xlink:href="ringbuf_8h.html#a2b4ae6481762403eec1f2072eb30217a" target="_top" xlink:title="get a character from ring buffer ">
<polygon fill="#ffffff" stroke="#000000" points="781.5,-76.5 781.5,-95.5 864.5,-95.5 864.5,-76.5 781.5,-76.5"/>
<text text-anchor="middle" x="823" y="-83.5" font-family="Helvetica,sans-Serif" font-size="10.00" fill="#000000">RINGBUF_Get</text>
</a>
</g>
</g>
<!-- Node114&#45;&gt;Node117 -->
<g id="edge60" class="edge">
<title>Node114&#45;&gt;Node117</title>
<path fill="none" stroke="#191970" d="M716.4588,-57.589C734.9385,-62.5169 757.6558,-68.5749 777.3591,-73.8291"/>
<polygon fill="#191970" stroke="#191970" points="776.4885,-77.2192 787.0527,-76.4141 778.2922,-70.4555 776.4885,-77.2192"/>
</g>
<!-- Node119 -->
<g id="node49" class="node">
<title>Node119</title>
<g id="a_node49"><a xlink:href="proto_8h.html#aeeb0162a48bf377e468e5fca672a5df1" target="_top" xlink:title="PROTO_AddRb">
<polygon fill="#ffffff" stroke="#000000" points="636.5,-266.5 636.5,-285.5 724.5,-285.5 724.5,-266.5 636.5,-266.5"/>
<text text-anchor="middle" x="680.5" y="-273.5" font-family="Helvetica,sans-Serif" font-size="10.00" fill="#000000">PROTO_AddRb</text>
</a>
</g>
</g>
<!-- Node118&#45;&gt;Node119 -->
<g id="edge62" class="edge">
<title>Node118&#45;&gt;Node119</title>
<path fill="none" stroke="#191970" d="M570.2794,-261.992C587.4331,-264.1721 607.8312,-266.7645 626.3881,-269.1229"/>
<polygon fill="#191970" stroke="#191970" points="626.1142,-272.6162 636.4757,-270.4049 626.9968,-265.672 626.1142,-272.6162"/>
</g>
<!-- Node120 -->
<g id="node50" class="node">
<title>Node120</title>
<g id="a_node50"><a xlink:href="ringbuf_8h.html#a717173daf1397da584236ed52bbec10a" target="_top" xlink:title="put a character into ring buffer ">
<polygon fill="#ffffff" stroke="#000000" points="782,-266.5 782,-285.5 864,-285.5 864,-266.5 782,-266.5"/>
<text text-anchor="middle" x="823" y="-273.5" font-family="Helvetica,sans-Serif" font-size="10.00" fill="#000000">RINGBUF_Put</text>
</a>
</g>
</g>
<!-- Node119&#45;&gt;Node120 -->
<g id="edge63" class="edge">
<title>Node119&#45;&gt;Node120</title>
<path fill="none" stroke="#191970" d="M724.8068,-276C739.5437,-276 756.084,-276 771.3281,-276"/>
<polygon fill="#191970" stroke="#191970" points="771.6366,-279.5001 781.6366,-276 771.6365,-272.5001 771.6366,-279.5001"/>
</g>
</g>
</svg>
