<?xml version="1.0" encoding="UTF-8" standalone="no"?>
<!DOCTYPE svg PUBLIC "-//W3C//DTD SVG 1.1//EN"
 "http://www.w3.org/Graphics/SVG/1.1/DTD/svg11.dtd">
<!-- Generated by graphviz version 2.40.1 (20161225.0304)
 -->
<!-- Title: user/kamstrup/kmp.h Pages: 1 -->
<svg width="284pt" height="84pt"
 viewBox="0.00 0.00 283.50 84.00" xmlns="http://www.w3.org/2000/svg" xmlns:xlink="http://www.w3.org/1999/xlink">
<g id="graph0" class="graph" transform="scale(1 1) rotate(0) translate(4 80)">
<title>user/kamstrup/kmp.h</title>
<polygon fill="#ffffff" stroke="transparent" points="-4,4 -4,-80 279.5,-80 279.5,4 -4,4"/>
<!-- Node1 -->
<g id="node1" class="node">
<title>Node1</title>
<polygon fill="#bfbfbf" stroke="#000000" points="72.5,-56.5 72.5,-75.5 182.5,-75.5 182.5,-56.5 72.5,-56.5"/>
<text text-anchor="middle" x="127.5" y="-63.5" font-family="Helvetica,sans-Serif" font-size="10.00" fill="#000000">user/kamstrup/kmp.h</text>
</g>
<!-- Node2 -->
<g id="node2" class="node">
<title>Node2</title>
<g id="a_node2"><a xlink:href="kmp_8c.html" target="_top" xlink:title="user/kamstrup/kmp.c">
<polygon fill="#ffffff" stroke="#000000" points="0,-.5 0,-19.5 109,-19.5 109,-.5 0,-.5"/>
<text text-anchor="middle" x="54.5" y="-7.5" font-family="Helvetica,sans-Serif" font-size="10.00" fill="#000000">user/kamstrup/kmp.c</text>
</a>
</g>
</g>
<!-- Node1&#45;&gt;Node2 -->
<g id="edge1" class="edge">
<title>Node1&#45;&gt;Node2</title>
<path fill="none" stroke="#191970" d="M106.549,-49.928C93.7893,-40.1397 77.9115,-27.9595 67.0699,-19.6427"/>
<polygon fill="#191970" stroke="#191970" points="104.7197,-52.9359 114.7844,-56.2455 108.9804,-47.3819 104.7197,-52.9359"/>
</g>
<!-- Node3 -->
<g id="node3" class="node">
<title>Node3</title>
<g id="a_node3"><a xlink:href="kmp__request_8c.html" target="_top" xlink:title="user/kamstrup/kmp_request.c">
<polygon fill="#ffffff" stroke="#000000" points="127.5,-.5 127.5,-19.5 275.5,-19.5 275.5,-.5 127.5,-.5"/>
<text text-anchor="middle" x="201.5" y="-7.5" font-family="Helvetica,sans-Serif" font-size="10.00" fill="#000000">user/kamstrup/kmp_request.c</text>
</a>
</g>
</g>
<!-- Node1&#45;&gt;Node3 -->
<g id="edge2" class="edge">
<title>Node1&#45;&gt;Node3</title>
<path fill="none" stroke="#191970" d="M148.3657,-50.2097C161.3625,-40.3743 177.6622,-28.0394 188.7579,-19.6427"/>
<polygon fill="#191970" stroke="#191970" points="146.2518,-47.4201 140.3898,-56.2455 150.476,-53.002 146.2518,-47.4201"/>
</g>
</g>
</svg>
