<?xml version="1.0" encoding="UTF-8" standalone="no"?>
<!DOCTYPE svg PUBLIC "-//W3C//DTD SVG 1.1//EN"
 "http://www.w3.org/Graphics/SVG/1.1/DTD/svg11.dtd">
<!-- Generated by graphviz version 2.41.20170323.1842 (20170323.1842)
 -->
<!-- Title: kmp_receive_timeout_timer_func Pages: 1 -->
<svg width="258pt" height="39pt"
 viewBox="0.00 0.00 258.00 39.00" xmlns="http://www.w3.org/2000/svg" xmlns:xlink="http://www.w3.org/1999/xlink">
<g id="graph0" class="graph" transform="scale(1 1) rotate(0) translate(4 35)">
<title>kmp_receive_timeout_timer_func</title>
<polygon fill="#ffffff" stroke="transparent" points="-4,4 -4,-35 254,-35 254,4 -4,4"/>
<!-- Node121 -->
<g id="node1" class="node">
<title>Node121</title>
<polygon fill="#bfbfbf" stroke="#000000" points="0,-.5 0,-30.5 112,-30.5 112,-.5 0,-.5"/>
<text text-anchor="start" x="8" y="-18.5" font-family="Helvetica,sans-Serif" font-size="10.00" fill="#000000">kmp_receive_timeout</text>
<text text-anchor="middle" x="56" y="-7.5" font-family="Helvetica,sans-Serif" font-size="10.00" fill="#000000">_timer_func</text>
</g>
<!-- Node122 -->
<g id="node2" class="node">
<title>Node122</title>
<g id="a_node2"><a xlink:href="kmp__request_8h.html#a3b022dcdc832786eb06126b5e6879604" target="_top" xlink:title="kmp_request_send">
<polygon fill="#ffffff" stroke="#000000" points="148,-6 148,-25 250,-25 250,-6 148,-6"/>
<text text-anchor="middle" x="199" y="-13" font-family="Helvetica,sans-Serif" font-size="10.00" fill="#000000">kmp_request_send</text>
</a>
</g>
</g>
<!-- Node121&#45;&gt;Node122 -->
<g id="edge1" class="edge">
<title>Node121&#45;&gt;Node122</title>
<path fill="none" stroke="#191970" d="M122.1179,-8.767C130.7121,-8.7126 139.4106,-8.7888 147.713,-8.9957"/>
<polygon fill="#191970" stroke="#191970" points="122.0628,-5.2673 112.107,-8.891 122.1496,-12.2668 122.0628,-5.2673"/>
</g>
<!-- Node122&#45;&gt;Node121 -->
<g id="edge2" class="edge">
<title>Node122&#45;&gt;Node121</title>
<path fill="none" stroke="#191970" d="M137.5363,-22.1905C129.0891,-22.2912 120.4512,-22.264 112.107,-22.109"/>
<polygon fill="#191970" stroke="#191970" points="137.7787,-25.6868 147.713,-22.0043 137.6506,-18.688 137.7787,-25.6868"/>
</g>
</g>
</svg>
