<?xml version="1.0" encoding="UTF-8" standalone="no"?>
<!DOCTYPE svg PUBLIC "-//W3C//DTD SVG 1.1//EN"
 "http://www.w3.org/Graphics/SVG/1.1/DTD/svg11.dtd">
<!-- Generated by graphviz version 2.41.20170323.1842 (20170323.1842)
 -->
<!-- Title: kmp_receive_timeout_timer_func Pages: 1 -->
<svg width="965pt" height="737pt"
 viewBox="0.00 0.00 965.00 737.00" xmlns="http://www.w3.org/2000/svg" xmlns:xlink="http://www.w3.org/1999/xlink">
<g id="graph0" class="graph" transform="scale(1 1) rotate(0) translate(4 733)">
<title>kmp_receive_timeout_timer_func</title>
<polygon fill="#ffffff" stroke="transparent" points="-4,4 -4,-733 961,-733 961,4 -4,4"/>
<!-- Node68 -->
<g id="node1" class="node">
<title>Node68</title>
<polygon fill="#bfbfbf" stroke="#000000" points="0,-501 0,-531 112,-531 112,-501 0,-501"/>
<text text-anchor="start" x="8" y="-519" font-family="Helvetica,sans-Serif" font-size="10.00" fill="#000000">kmp_receive_timeout</text>
<text text-anchor="middle" x="56" y="-508" font-family="Helvetica,sans-Serif" font-size="10.00" fill="#000000">_timer_func</text>
</g>
<!-- Node69 -->
<g id="node2" class="node">
<title>Node69</title>
<g id="a_node2"><a xlink:href="kmp__request_8c.html#a3b022dcdc832786eb06126b5e6879604" target="_top" xlink:title="kmp_request_send">
<polygon fill="#ffffff" stroke="#000000" points="148,-506.5 148,-525.5 250,-525.5 250,-506.5 148,-506.5"/>
<text text-anchor="middle" x="199" y="-513.5" font-family="Helvetica,sans-Serif" font-size="10.00" fill="#000000">kmp_request_send</text>
</a>
</g>
</g>
<!-- Node68&#45;&gt;Node69 -->
<g id="edge1" class="edge">
<title>Node68&#45;&gt;Node69</title>
<path fill="none" stroke="#191970" d="M112.107,-509.391C120.4512,-509.236 129.0891,-509.2088 137.5363,-509.3095"/>
<polygon fill="#191970" stroke="#191970" points="137.6506,-512.812 147.713,-509.4957 137.7787,-505.8132 137.6506,-512.812"/>
</g>
<!-- Node69&#45;&gt;Node68 -->
<g id="edge14" class="edge">
<title>Node69&#45;&gt;Node68</title>
<path fill="none" stroke="#191970" d="M147.713,-522.5043C139.4106,-522.7112 130.7121,-522.7874 122.1179,-522.733"/>
<polygon fill="#191970" stroke="#191970" points="122.1496,-519.2332 112.107,-522.609 122.0628,-526.2327 122.1496,-519.2332"/>
</g>
<!-- Node70 -->
<g id="node3" class="node">
<title>Node70</title>
<g id="a_node3"><a xlink:href="kmp__request_8c.html#a7e59cff48c3c08aed48914a3a843d4b8" target="_top" xlink:title="kmp_get_serial_timer_func">
<polygon fill="#ffffff" stroke="#000000" points="292.5,-620.5 292.5,-639.5 429.5,-639.5 429.5,-620.5 292.5,-620.5"/>
<text text-anchor="middle" x="361" y="-627.5" font-family="Helvetica,sans-Serif" font-size="10.00" fill="#000000">kmp_get_serial_timer_func</text>
</a>
</g>
</g>
<!-- Node69&#45;&gt;Node70 -->
<g id="edge2" class="edge">
<title>Node69&#45;&gt;Node70</title>
<path fill="none" stroke="#191970" d="M204.8965,-525.5034C217.3653,-544.7713 248.3745,-588.5116 286,-611 289.6319,-613.1707 293.5055,-615.0949 297.5064,-616.8004"/>
<polygon fill="#191970" stroke="#191970" points="296.4273,-620.1342 307.0189,-620.3959 298.9023,-613.5863 296.4273,-620.1342"/>
</g>
<!-- Node77 -->
<g id="node10" class="node">
<title>Node77</title>
<g id="a_node10"><a xlink:href="kmp__request_8c.html#aeadc3768548ef2bed49c3f2fcaf57c20" target="_top" xlink:title="kmp_get_register_timer_func">
<polygon fill="#ffffff" stroke="#000000" points="288,-658.5 288,-677.5 434,-677.5 434,-658.5 288,-658.5"/>
<text text-anchor="middle" x="361" y="-665.5" font-family="Helvetica,sans-Serif" font-size="10.00" fill="#000000">kmp_get_register_timer_func</text>
</a>
</g>
</g>
<!-- Node69&#45;&gt;Node77 -->
<g id="edge9" class="edge">
<title>Node69&#45;&gt;Node77</title>
<path fill="none" stroke="#191970" d="M202.501,-525.8204C211.8666,-550.6224 239.9587,-616.1435 286,-649 288.7334,-650.9506 291.6482,-652.7015 294.6829,-654.273"/>
<polygon fill="#191970" stroke="#191970" points="293.5268,-657.5898 304.0851,-658.4697 296.3801,-651.1976 293.5268,-657.5898"/>
</g>
<!-- Node79 -->
<g id="node12" class="node">
<title>Node79</title>
<g id="a_node12"><a xlink:href="espmissingincludes_8h.html#ad228deceea1bac4d9f171f647c265059" target="_top" xlink:title="atoi">
<polygon fill="#ffffff" stroke="#000000" points="344.5,-582.5 344.5,-601.5 377.5,-601.5 377.5,-582.5 344.5,-582.5"/>
<text text-anchor="middle" x="361" y="-589.5" font-family="Helvetica,sans-Serif" font-size="10.00" fill="#000000">atoi</text>
</a>
</g>
</g>
<!-- Node69&#45;&gt;Node79 -->
<g id="edge15" class="edge">
<title>Node69&#45;&gt;Node79</title>
<path fill="none" stroke="#191970" d="M210.929,-525.6898C227.0377,-538.3185 257.0702,-560.2864 286,-573 301.4367,-579.7839 319.7681,-584.4833 334.4436,-587.5113"/>
<polygon fill="#191970" stroke="#191970" points="333.9085,-590.9724 344.3899,-589.4266 335.2322,-584.0987 333.9085,-590.9724"/>
</g>
<!-- Node80 -->
<g id="node13" class="node">
<title>Node80</title>
<g id="a_node13"><a xlink:href="tinyprintf_8c.html#a9738cbc6c538d210941db282e240c7d6" target="_top" xlink:title="tfp_snprintf">
<polygon fill="#ffffff" stroke="#000000" points="328,-544.5 328,-563.5 394,-563.5 394,-544.5 328,-544.5"/>
<text text-anchor="middle" x="361" y="-551.5" font-family="Helvetica,sans-Serif" font-size="10.00" fill="#000000">tfp_snprintf</text>
</a>
</g>
</g>
<!-- Node69&#45;&gt;Node80 -->
<g id="edge16" class="edge">
<title>Node69&#45;&gt;Node80</title>
<path fill="none" stroke="#191970" d="M239.8794,-525.589C263.6641,-531.1681 293.6234,-538.1956 317.7948,-543.8654"/>
<polygon fill="#191970" stroke="#191970" points="317.2297,-547.3278 327.7647,-546.2041 318.8283,-540.5128 317.2297,-547.3278"/>
</g>
<!-- Node93 -->
<g id="node25" class="node">
<title>Node93</title>
<g id="a_node25"><a xlink:href="unix__time_8c.html#a36607dbd5be7bee11f8c20932b3df407" target="_top" xlink:title="get_unix_time">
<polygon fill="#ffffff" stroke="#000000" points="321.5,-506.5 321.5,-525.5 400.5,-525.5 400.5,-506.5 321.5,-506.5"/>
<text text-anchor="middle" x="361" y="-513.5" font-family="Helvetica,sans-Serif" font-size="10.00" fill="#000000">get_unix_time</text>
</a>
</g>
</g>
<!-- Node69&#45;&gt;Node93 -->
<g id="edge31" class="edge">
<title>Node69&#45;&gt;Node93</title>
<path fill="none" stroke="#191970" d="M250.2578,-516C269.7445,-516 291.8981,-516 311.2437,-516"/>
<polygon fill="#191970" stroke="#191970" points="311.3704,-519.5001 321.3703,-516 311.3703,-512.5001 311.3704,-519.5001"/>
</g>
<!-- Node95 -->
<g id="node27" class="node">
<title>Node95</title>
<g id="a_node27"><a xlink:href="user__interface_8h.html#a258edd68184bb78f062a3b375dca997c" target="_top" xlink:title="system_get_free_heap_size">
<polygon fill="#ffffff" stroke="#000000" points="290,-468.5 290,-487.5 432,-487.5 432,-468.5 290,-468.5"/>
<text text-anchor="middle" x="361" y="-475.5" font-family="Helvetica,sans-Serif" font-size="10.00" fill="#000000">system_get_free_heap_size</text>
</a>
</g>
</g>
<!-- Node69&#45;&gt;Node95 -->
<g id="edge33" class="edge">
<title>Node69&#45;&gt;Node95</title>
<path fill="none" stroke="#191970" d="M239.8794,-506.411C261.3534,-501.3739 287.8605,-495.1562 310.597,-489.8229"/>
<polygon fill="#191970" stroke="#191970" points="311.4781,-493.2113 320.4145,-487.5201 309.8795,-486.3963 311.4781,-493.2113"/>
</g>
<!-- Node96 -->
<g id="node28" class="node">
<title>Node96</title>
<g id="a_node28"><a xlink:href="espmissingincludes_8h.html#a0bbba7104c948de849f8051d9ac956e3" target="_top" xlink:title="os_printf">
<polygon fill="#ffffff" stroke="#000000" points="333.5,-430.5 333.5,-449.5 388.5,-449.5 388.5,-430.5 333.5,-430.5"/>
<text text-anchor="middle" x="361" y="-437.5" font-family="Helvetica,sans-Serif" font-size="10.00" fill="#000000">os_printf</text>
</a>
</g>
</g>
<!-- Node69&#45;&gt;Node96 -->
<g id="edge34" class="edge">
<title>Node69&#45;&gt;Node96</title>
<path fill="none" stroke="#191970" d="M210.929,-506.3102C227.0377,-493.6815 257.0702,-471.7136 286,-459 297.7207,-453.8492 311.1101,-449.9001 323.3011,-446.9718"/>
<polygon fill="#191970" stroke="#191970" points="324.2073,-450.3556 333.1966,-444.7483 322.6726,-443.5259 324.2073,-450.3556"/>
</g>
<!-- Node97 -->
<g id="node29" class="node">
<title>Node97</title>
<g id="a_node29"><a xlink:href="crypto_8c.html#a7991ec94c8faa24921947687f2d587a0" target="_top" xlink:title="encrypt_aes_hmac_combined">
<polygon fill="#ffffff" stroke="#000000" points="286,-389.5 286,-408.5 436,-408.5 436,-389.5 286,-389.5"/>
<text text-anchor="middle" x="361" y="-396.5" font-family="Helvetica,sans-Serif" font-size="10.00" fill="#000000">encrypt_aes_hmac_combined</text>
</a>
</g>
</g>
<!-- Node69&#45;&gt;Node97 -->
<g id="edge35" class="edge">
<title>Node69&#45;&gt;Node97</title>
<path fill="none" stroke="#191970" d="M205.1608,-506.3178C217.8833,-487.113 248.9893,-444.0663 286,-421 291.6482,-417.4798 297.8852,-414.501 304.2779,-411.9852"/>
<polygon fill="#191970" stroke="#191970" points="305.4628,-415.2786 313.7051,-408.6216 303.1104,-408.6857 305.4628,-415.2786"/>
</g>
<!-- Node108 -->
<g id="node39" class="node">
<title>Node108</title>
<g id="a_node39"><a xlink:href="mqtt_8h.html#a848a6701c4c7ec3432e38ea57c003aad" target="_top" xlink:title="MQTT publish function. ">
<polygon fill="#ffffff" stroke="#000000" points="319.5,-190.5 319.5,-209.5 402.5,-209.5 402.5,-190.5 319.5,-190.5"/>
<text text-anchor="middle" x="361" y="-197.5" font-family="Helvetica,sans-Serif" font-size="10.00" fill="#000000">MQTT_Publish</text>
</a>
</g>
</g>
<!-- Node69&#45;&gt;Node108 -->
<g id="edge51" class="edge">
<title>Node69&#45;&gt;Node108</title>
<path fill="none" stroke="#191970" d="M204.026,-506.1962C226.8454,-461.6844 320.9017,-278.2165 351.4032,-218.7197"/>
<polygon fill="#191970" stroke="#191970" points="354.5851,-220.1849 356.0326,-209.6894 348.356,-216.9915 354.5851,-220.1849"/>
</g>
<!-- Node71 -->
<g id="node4" class="node">
<title>Node71</title>
<g id="a_node4"><a xlink:href="kmp_8c.html#a4d6c33fbffbf96fd508400df943be676" target="_top" xlink:title="kmp_get_serial">
<polygon fill="#ffffff" stroke="#000000" points="501.5,-658.5 501.5,-677.5 585.5,-677.5 585.5,-658.5 501.5,-658.5"/>
<text text-anchor="middle" x="543.5" y="-665.5" font-family="Helvetica,sans-Serif" font-size="10.00" fill="#000000">kmp_get_serial</text>
</a>
</g>
</g>
<!-- Node70&#45;&gt;Node71 -->
<g id="edge3" class="edge">
<title>Node70&#45;&gt;Node71</title>
<path fill="none" stroke="#191970" d="M407.0525,-639.589C432.7077,-644.9309 464.7399,-651.6006 491.3198,-657.1351"/>
<polygon fill="#191970" stroke="#191970" points="490.7117,-660.5835 501.2152,-659.1955 492.1387,-653.7304 490.7117,-660.5835"/>
</g>
<!-- Node75 -->
<g id="node8" class="node">
<title>Node75</title>
<g id="a_node8"><a xlink:href="uart_8c.html#a87f1c1c2a25d4336eb804da28ed99f7e" target="_top" xlink:title="uart0_tx_buffer">
<polygon fill="#ffffff" stroke="#000000" points="501.5,-620.5 501.5,-639.5 585.5,-639.5 585.5,-620.5 501.5,-620.5"/>
<text text-anchor="middle" x="543.5" y="-627.5" font-family="Helvetica,sans-Serif" font-size="10.00" fill="#000000">uart0_tx_buffer</text>
</a>
</g>
</g>
<!-- Node70&#45;&gt;Node75 -->
<g id="edge7" class="edge">
<title>Node70&#45;&gt;Node75</title>
<path fill="none" stroke="#191970" d="M429.7354,-630C450.1197,-630 472.1029,-630 491.2601,-630"/>
<polygon fill="#191970" stroke="#191970" points="491.2897,-633.5001 501.2896,-630 491.2896,-626.5001 491.2897,-633.5001"/>
</g>
<!-- Node72 -->
<g id="node5" class="node">
<title>Node72</title>
<g id="a_node5"><a xlink:href="kmp_8c.html#a799f8c5be2e9dd312ca86e43206634b9" target="_top" xlink:title="kmp_byte_stuff">
<polygon fill="#ffffff" stroke="#000000" points="663.5,-658.5 663.5,-677.5 747.5,-677.5 747.5,-658.5 663.5,-658.5"/>
<text text-anchor="middle" x="705.5" y="-665.5" font-family="Helvetica,sans-Serif" font-size="10.00" fill="#000000">kmp_byte_stuff</text>
</a>
</g>
</g>
<!-- Node71&#45;&gt;Node72 -->
<g id="edge4" class="edge">
<title>Node71&#45;&gt;Node72</title>
<path fill="none" stroke="#191970" d="M585.6407,-668C606.2785,-668 631.3269,-668 653.1782,-668"/>
<polygon fill="#191970" stroke="#191970" points="653.2892,-671.5001 663.2892,-668 653.2891,-664.5001 653.2892,-671.5001"/>
</g>
<!-- Node73 -->
<g id="node6" class="node">
<title>Node73</title>
<g id="a_node6"><a xlink:href="kmp_8c.html#a5245dd3f5d04db2e46786675e7ae97f8" target="_top" xlink:title="kmp_crc16">
<polygon fill="#ffffff" stroke="#000000" points="673,-696.5 673,-715.5 738,-715.5 738,-696.5 673,-696.5"/>
<text text-anchor="middle" x="705.5" y="-703.5" font-family="Helvetica,sans-Serif" font-size="10.00" fill="#000000">kmp_crc16</text>
</a>
</g>
</g>
<!-- Node71&#45;&gt;Node73 -->
<g id="edge5" class="edge">
<title>Node71&#45;&gt;Node73</title>
<path fill="none" stroke="#191970" d="M584.3794,-677.589C608.3282,-683.2066 638.5369,-690.2926 662.7941,-695.9826"/>
<polygon fill="#191970" stroke="#191970" points="662.2549,-699.451 672.79,-698.3273 663.8536,-692.636 662.2549,-699.451"/>
</g>
<!-- Node74 -->
<g id="node7" class="node">
<title>Node74</title>
<g id="a_node7"><a xlink:href="utils_8c.html#a8d9e1de95e2d6d103108a4b0ebf4d923" target="_top" xlink:title="ccit_crc16">
<polygon fill="#ffffff" stroke="#000000" points="807.5,-709.5 807.5,-728.5 869.5,-728.5 869.5,-709.5 807.5,-709.5"/>
<text text-anchor="middle" x="838.5" y="-716.5" font-family="Helvetica,sans-Serif" font-size="10.00" fill="#000000">ccit_crc16</text>
</a>
</g>
</g>
<!-- Node73&#45;&gt;Node74 -->
<g id="edge6" class="edge">
<title>Node73&#45;&gt;Node74</title>
<path fill="none" stroke="#191970" d="M738.0355,-709.1802C755.8145,-710.918 778.0211,-713.0885 797.0319,-714.9467"/>
<polygon fill="#191970" stroke="#191970" points="796.9232,-718.4527 807.2163,-715.9422 797.6042,-711.4859 796.9232,-718.4527"/>
</g>
<!-- Node76 -->
<g id="node9" class="node">
<title>Node76</title>
<g id="a_node9"><a xlink:href="uart_8c.html#a40bca7ca9b269f93bc9f17924a38fbe0" target="_top" xlink:title="uart_tx_one_char">
<polygon fill="#ffffff" stroke="#000000" points="658.5,-620.5 658.5,-639.5 752.5,-639.5 752.5,-620.5 658.5,-620.5"/>
<text text-anchor="middle" x="705.5" y="-627.5" font-family="Helvetica,sans-Serif" font-size="10.00" fill="#000000">uart_tx_one_char</text>
</a>
</g>
</g>
<!-- Node75&#45;&gt;Node76 -->
<g id="edge8" class="edge">
<title>Node75&#45;&gt;Node76</title>
<path fill="none" stroke="#191970" d="M585.6407,-630C604.7283,-630 627.5889,-630 648.2033,-630"/>
<polygon fill="#191970" stroke="#191970" points="648.4304,-633.5001 658.4304,-630 648.4303,-626.5001 648.4304,-633.5001"/>
</g>
<!-- Node77&#45;&gt;Node75 -->
<g id="edge13" class="edge">
<title>Node77&#45;&gt;Node75</title>
<path fill="none" stroke="#191970" d="M407.0525,-658.411C432.7077,-653.0691 464.7399,-646.3994 491.3198,-640.8649"/>
<polygon fill="#191970" stroke="#191970" points="492.1387,-644.2696 501.2152,-638.8045 490.7117,-637.4165 492.1387,-644.2696"/>
</g>
<!-- Node78 -->
<g id="node11" class="node">
<title>Node78</title>
<g id="a_node11"><a xlink:href="kmp_8c.html#aff9c217307fb9210d301ba14bc2b5707" target="_top" xlink:title="kmp_get_register">
<polygon fill="#ffffff" stroke="#000000" points="496.5,-696.5 496.5,-715.5 590.5,-715.5 590.5,-696.5 496.5,-696.5"/>
<text text-anchor="middle" x="543.5" y="-703.5" font-family="Helvetica,sans-Serif" font-size="10.00" fill="#000000">kmp_get_register</text>
</a>
</g>
</g>
<!-- Node77&#45;&gt;Node78 -->
<g id="edge10" class="edge">
<title>Node77&#45;&gt;Node78</title>
<path fill="none" stroke="#191970" d="M407.0525,-677.589C431.5692,-682.6939 461.9096,-689.0113 487.7502,-694.3918"/>
<polygon fill="#191970" stroke="#191970" points="487.2752,-697.8679 497.7787,-696.4799 488.7022,-691.0149 487.2752,-697.8679"/>
</g>
<!-- Node78&#45;&gt;Node72 -->
<g id="edge11" class="edge">
<title>Node78&#45;&gt;Node72</title>
<path fill="none" stroke="#191970" d="M584.3794,-696.411C605.8534,-691.3739 632.3605,-685.1562 655.097,-679.8229"/>
<polygon fill="#191970" stroke="#191970" points="655.9781,-683.2113 664.9145,-677.5201 654.3795,-676.3963 655.9781,-683.2113"/>
</g>
<!-- Node78&#45;&gt;Node73 -->
<g id="edge12" class="edge">
<title>Node78&#45;&gt;Node73</title>
<path fill="none" stroke="#191970" d="M590.7926,-706C613.5284,-706 640.5765,-706 662.6959,-706"/>
<polygon fill="#191970" stroke="#191970" points="662.7977,-709.5001 672.7976,-706 662.7976,-702.5001 662.7977,-709.5001"/>
</g>
<!-- Node81 -->
<g id="node14" class="node">
<title>Node81</title>
<g id="a_node14"><a xlink:href="tinyprintf_8c.html#ac8c8a66133cf0d7009c0d73b55311a44" target="_top" xlink:title="tfp_vsnprintf">
<polygon fill="#ffffff" stroke="#000000" points="508,-544.5 508,-563.5 579,-563.5 579,-544.5 508,-544.5"/>
<text text-anchor="middle" x="543.5" y="-551.5" font-family="Helvetica,sans-Serif" font-size="10.00" fill="#000000">tfp_vsnprintf</text>
</a>
</g>
</g>
<!-- Node80&#45;&gt;Node81 -->
<g id="edge17" class="edge">
<title>Node80&#45;&gt;Node81</title>
<path fill="none" stroke="#191970" d="M394.0494,-554C423.0603,-554 465.5416,-554 497.8042,-554"/>
<polygon fill="#191970" stroke="#191970" points="497.89,-557.5001 507.8899,-554 497.8899,-550.5001 497.89,-557.5001"/>
</g>
<!-- Node82 -->
<g id="node15" class="node">
<title>Node82</title>
<g id="a_node15"><a xlink:href="tinyprintf_8c.html#a5877e42444463efc71a91b5fe76a6145" target="_top" xlink:title="tfp_format">
<polygon fill="#ffffff" stroke="#000000" points="674.5,-532.5 674.5,-551.5 736.5,-551.5 736.5,-532.5 674.5,-532.5"/>
<text text-anchor="middle" x="705.5" y="-539.5" font-family="Helvetica,sans-Serif" font-size="10.00" fill="#000000">tfp_format</text>
</a>
</g>
</g>
<!-- Node81&#45;&gt;Node82 -->
<g id="edge18" class="edge">
<title>Node81&#45;&gt;Node82</title>
<path fill="none" stroke="#191970" d="M579.0516,-551.3665C604.2123,-549.5028 638.0234,-546.9983 664.3523,-545.048"/>
<polygon fill="#191970" stroke="#191970" points="664.69,-548.5326 674.4041,-544.3034 664.1728,-541.5518 664.69,-548.5326"/>
</g>
<!-- Node92 -->
<g id="node24" class="node">
<title>Node92</title>
<g id="a_node24"><a xlink:href="tinyprintf_8c.html#a919051024b2d729e34a54648b3f2462d" target="_top" xlink:title="_vsnprintf_putcf">
<polygon fill="#ffffff" stroke="#000000" points="662,-570.5 662,-589.5 749,-589.5 749,-570.5 662,-570.5"/>
<text text-anchor="middle" x="705.5" y="-577.5" font-family="Helvetica,sans-Serif" font-size="10.00" fill="#000000">_vsnprintf_putcf</text>
</a>
</g>
</g>
<!-- Node81&#45;&gt;Node92 -->
<g id="edge30" class="edge">
<title>Node81&#45;&gt;Node92</title>
<path fill="none" stroke="#191970" d="M579.0516,-559.7058C600.4038,-563.1327 627.9858,-567.5594 651.9379,-571.4036"/>
<polygon fill="#191970" stroke="#191970" points="651.5238,-574.8819 661.9522,-573.0108 652.6332,-567.9703 651.5238,-574.8819"/>
</g>
<!-- Node83 -->
<g id="node16" class="node">
<title>Node83</title>
<g id="a_node16"><a xlink:href="tinyprintf_8c.html#aa97593a5e53af85b608ad0910db92d77" target="_top" xlink:title="a2u">
<polygon fill="#ffffff" stroke="#ff0000" points="822,-519.5 822,-538.5 855,-538.5 855,-519.5 822,-519.5"/>
<text text-anchor="middle" x="838.5" y="-526.5" font-family="Helvetica,sans-Serif" font-size="10.00" fill="#000000">a2u</text>
</a>
</g>
</g>
<!-- Node82&#45;&gt;Node83 -->
<g id="edge19" class="edge">
<title>Node82&#45;&gt;Node83</title>
<path fill="none" stroke="#191970" d="M736.6826,-538.9521C759.4085,-536.7307 789.8868,-533.7517 811.5587,-531.6334"/>
<polygon fill="#191970" stroke="#191970" points="812.0971,-535.0975 821.7092,-530.6412 811.4161,-528.1307 812.0971,-535.0975"/>
</g>
<!-- Node85 -->
<g id="node17" class="node">
<title>Node85</title>
<g id="a_node17"><a xlink:href="tinyprintf_8c.html#abcf035dd576671b0cc897de9dd8c75b0" target="_top" xlink:title="ulli2a">
<polygon fill="#ffffff" stroke="#000000" points="917,-433.5 917,-452.5 957,-452.5 957,-433.5 917,-433.5"/>
<text text-anchor="middle" x="937" y="-440.5" font-family="Helvetica,sans-Serif" font-size="10.00" fill="#000000">ulli2a</text>
</a>
</g>
</g>
<!-- Node82&#45;&gt;Node85 -->
<g id="edge20" class="edge">
<title>Node82&#45;&gt;Node85</title>
<path fill="none" stroke="#191970" d="M722.9102,-532.423C740.9316,-522.6835 770.0314,-507.4384 796,-496 833.6789,-479.4035 878.3415,-463.1751 907.1474,-453.139"/>
<polygon fill="#191970" stroke="#191970" points="908.3308,-456.4332 916.6376,-449.857 906.0428,-449.8177 908.3308,-456.4332"/>
</g>
<!-- Node86 -->
<g id="node18" class="node">
<title>Node86</title>
<g id="a_node18"><a xlink:href="tinyprintf_8c.html#a1d61347854a8c290d59b4a21efcefd75" target="_top" xlink:title="uli2a">
<polygon fill="#ffffff" stroke="#000000" points="918,-490.5 918,-509.5 956,-509.5 956,-490.5 918,-490.5"/>
<text text-anchor="middle" x="937" y="-497.5" font-family="Helvetica,sans-Serif" font-size="10.00" fill="#000000">uli2a</text>
</a>
</g>
</g>
<!-- Node82&#45;&gt;Node86 -->
<g id="edge21" class="edge">
<title>Node82&#45;&gt;Node86</title>
<path fill="none" stroke="#191970" d="M727.3383,-532.4046C745.379,-524.9385 771.8538,-515.029 796,-510 833.9203,-502.1023 878.6796,-500.1419 907.4302,-499.7997"/>
<polygon fill="#191970" stroke="#191970" points="907.6388,-503.2986 917.6176,-499.7388 907.5969,-496.2987 907.6388,-503.2986"/>
</g>
<!-- Node87 -->
<g id="node19" class="node">
<title>Node87</title>
<g id="a_node19"><a xlink:href="tinyprintf_8c.html#ac87ff66a592723f55692eaf8e3f19df8" target="_top" xlink:title="ui2a">
<polygon fill="#ffffff" stroke="#000000" points="919.5,-652.5 919.5,-671.5 954.5,-671.5 954.5,-652.5 919.5,-652.5"/>
<text text-anchor="middle" x="937" y="-659.5" font-family="Helvetica,sans-Serif" font-size="10.00" fill="#000000">ui2a</text>
</a>
</g>
</g>
<!-- Node82&#45;&gt;Node87 -->
<g id="edge22" class="edge">
<title>Node82&#45;&gt;Node87</title>
<path fill="none" stroke="#191970" d="M736.7402,-547.6848C745.1569,-550.5048 753.6721,-554.7159 760,-561 793.8141,-594.58 757.0546,-634.5361 796,-662 829.2853,-685.4724 878.8643,-678.4338 909.4974,-670.6294"/>
<polygon fill="#191970" stroke="#191970" points="910.7692,-673.9098 919.4847,-667.8857 908.9148,-667.1598 910.7692,-673.9098"/>
</g>
<!-- Node88 -->
<g id="node20" class="node">
<title>Node88</title>
<g id="a_node20"><a xlink:href="tinyprintf_8c.html#a6252dbfebb2c8783c4e3107d551082dd" target="_top" xlink:title="putchw">
<polygon fill="#ffffff" stroke="#000000" points="814.5,-557.5 814.5,-576.5 862.5,-576.5 862.5,-557.5 814.5,-557.5"/>
<text text-anchor="middle" x="838.5" y="-564.5" font-family="Helvetica,sans-Serif" font-size="10.00" fill="#000000">putchw</text>
</a>
</g>
</g>
<!-- Node82&#45;&gt;Node88 -->
<g id="edge23" class="edge">
<title>Node82&#45;&gt;Node88</title>
<path fill="none" stroke="#191970" d="M736.6826,-547.8614C756.9126,-551.664 783.2857,-556.6214 804.1215,-560.5379"/>
<polygon fill="#191970" stroke="#191970" points="803.6772,-564.0156 814.1517,-562.4233 804.9704,-557.1361 803.6772,-564.0156"/>
</g>
<!-- Node89 -->
<g id="node21" class="node">
<title>Node89</title>
<g id="a_node21"><a xlink:href="tinyprintf_8c.html#a49c6d2b3d4088012f2c1fe344eef69f3" target="_top" xlink:title="lli2a">
<polygon fill="#ffffff" stroke="#000000" points="821.5,-405.5 821.5,-424.5 855.5,-424.5 855.5,-405.5 821.5,-405.5"/>
<text text-anchor="middle" x="838.5" y="-412.5" font-family="Helvetica,sans-Serif" font-size="10.00" fill="#000000">lli2a</text>
</a>
</g>
</g>
<!-- Node82&#45;&gt;Node89 -->
<g id="edge24" class="edge">
<title>Node82&#45;&gt;Node89</title>
<path fill="none" stroke="#191970" d="M712.3285,-532.2264C726.3176,-512.7058 759.965,-468.2587 796,-439 800.8885,-435.0308 806.5201,-431.3436 812.0515,-428.1092"/>
<polygon fill="#191970" stroke="#191970" points="814.0413,-431.0093 821.117,-423.1235 810.668,-424.8757 814.0413,-431.0093"/>
</g>
<!-- Node90 -->
<g id="node22" class="node">
<title>Node90</title>
<g id="a_node22"><a xlink:href="tinyprintf_8c.html#afebb7696337c3f599b5e8db35c560684" target="_top" xlink:title="li2a">
<polygon fill="#ffffff" stroke="#000000" points="822.5,-595.5 822.5,-614.5 854.5,-614.5 854.5,-595.5 822.5,-595.5"/>
<text text-anchor="middle" x="838.5" y="-602.5" font-family="Helvetica,sans-Serif" font-size="10.00" fill="#000000">li2a</text>
</a>
</g>
</g>
<!-- Node82&#45;&gt;Node90 -->
<g id="edge26" class="edge">
<title>Node82&#45;&gt;Node90</title>
<path fill="none" stroke="#191970" d="M736.6605,-551.2309C744.4561,-553.98 752.6788,-557.2699 760,-561 777.3567,-569.8432 779.0345,-576.4277 796,-586 801.4113,-589.0532 807.4051,-591.986 813.1437,-594.5954"/>
<polygon fill="#191970" stroke="#191970" points="811.8474,-597.8485 822.4122,-598.6458 814.6505,-591.4342 811.8474,-597.8485"/>
</g>
<!-- Node91 -->
<g id="node23" class="node">
<title>Node91</title>
<g id="a_node23"><a xlink:href="tinyprintf_8c.html#a90f9fd8f2133cda7f50be8d67823405c" target="_top" xlink:title="i2a">
<polygon fill="#ffffff" stroke="#000000" points="823.5,-633.5 823.5,-652.5 853.5,-652.5 853.5,-633.5 823.5,-633.5"/>
<text text-anchor="middle" x="838.5" y="-640.5" font-family="Helvetica,sans-Serif" font-size="10.00" fill="#000000">i2a</text>
</a>
</g>
</g>
<!-- Node82&#45;&gt;Node91 -->
<g id="edge28" class="edge">
<title>Node82&#45;&gt;Node91</title>
<path fill="none" stroke="#191970" d="M736.6304,-548.6222C744.8546,-551.4476 753.2963,-555.4271 760,-561 784.7989,-581.6159 772.0989,-602.3496 796,-624 801.1103,-628.6291 807.5345,-632.2829 813.8293,-635.0975"/>
<polygon fill="#191970" stroke="#191970" points="812.8195,-638.4608 823.4073,-638.849 815.3725,-631.9429 812.8195,-638.4608"/>
</g>
<!-- Node89&#45;&gt;Node85 -->
<g id="edge25" class="edge">
<title>Node89&#45;&gt;Node85</title>
<path fill="none" stroke="#191970" d="M855.6574,-419.8772C869.8075,-423.8996 890.2177,-429.7015 907.053,-434.4872"/>
<polygon fill="#191970" stroke="#191970" points="906.4095,-437.9428 916.9855,-437.3106 908.3236,-431.2096 906.4095,-437.9428"/>
</g>
<!-- Node90&#45;&gt;Node86 -->
<g id="edge27" class="edge">
<title>Node90&#45;&gt;Node86</title>
<path fill="none" stroke="#191970" d="M854.6681,-600.2472C863.1707,-597.1711 873.3802,-592.5099 881,-586 902.932,-567.2628 919.5213,-537.8282 928.7536,-518.7213"/>
<polygon fill="#191970" stroke="#191970" points="931.9782,-520.087 933.0067,-509.5422 925.6268,-517.1441 931.9782,-520.087"/>
</g>
<!-- Node91&#45;&gt;Node87 -->
<g id="edge29" class="edge">
<title>Node91&#45;&gt;Node87</title>
<path fill="none" stroke="#191970" d="M853.8906,-645.9688C868.7263,-648.8304 891.5067,-653.2246 909.4681,-656.6893"/>
<polygon fill="#191970" stroke="#191970" points="908.9082,-660.1457 919.3902,-658.6032 910.2341,-653.2724 908.9082,-660.1457"/>
</g>
<!-- Node94 -->
<g id="node26" class="node">
<title>Node94</title>
<g id="a_node26"><a xlink:href="esp-open-lwip_2include_2lwip_2sntp_8h.html#a557f2d3fcbc53da30e4f1b51ea5842e7" target="_top" xlink:title="sntp_get_current_timestamp">
<polygon fill="#ffffff" stroke="#000000" points="472,-506.5 472,-525.5 615,-525.5 615,-506.5 472,-506.5"/>
<text text-anchor="middle" x="543.5" y="-513.5" font-family="Helvetica,sans-Serif" font-size="10.00" fill="#000000">sntp_get_current_timestamp</text>
</a>
</g>
</g>
<!-- Node93&#45;&gt;Node94 -->
<g id="edge32" class="edge">
<title>Node93&#45;&gt;Node94</title>
<path fill="none" stroke="#191970" d="M400.5998,-516C418.6094,-516 440.6215,-516 461.9225,-516"/>
<polygon fill="#191970" stroke="#191970" points="461.9707,-519.5001 471.9706,-516 461.9706,-512.5001 461.9707,-519.5001"/>
</g>
<!-- Node98 -->
<g id="node30" class="node">
<title>Node98</title>
<g id="a_node30"><a xlink:href="aes_8h.html#a9cb9b4ad9fb6311391d669e54f718cf4" target="_top" xlink:title="AES128_CBC_encrypt\l_buffer">
<polygon fill="#ffffff" stroke="#000000" points="484.5,-381 484.5,-411 602.5,-411 602.5,-381 484.5,-381"/>
<text text-anchor="start" x="492.5" y="-399" font-family="Helvetica,sans-Serif" font-size="10.00" fill="#000000">AES128_CBC_encrypt</text>
<text text-anchor="middle" x="543.5" y="-388" font-family="Helvetica,sans-Serif" font-size="10.00" fill="#000000">_buffer</text>
</a>
</g>
</g>
<!-- Node97&#45;&gt;Node98 -->
<g id="edge36" class="edge">
<title>Node97&#45;&gt;Node98</title>
<path fill="none" stroke="#191970" d="M436.0198,-397.7668C448.6161,-397.5597 461.6387,-397.3457 474.0855,-397.1411"/>
<polygon fill="#191970" stroke="#191970" points="474.4423,-400.6358 484.3834,-396.9718 474.3272,-393.6367 474.4423,-400.6358"/>
</g>
<!-- Node99 -->
<g id="node31" class="node">
<title>Node99</title>
<g id="a_node31"><a xlink:href="hmac-sha256_8c.html#a7fad664b062689148a6b1ee5d4bc790d" target="_top" xlink:title="hmac_sha256_final">
<polygon fill="#ffffff" stroke="#000000" points="654,-304.5 654,-323.5 757,-323.5 757,-304.5 654,-304.5"/>
<text text-anchor="middle" x="705.5" y="-311.5" font-family="Helvetica,sans-Serif" font-size="10.00" fill="#000000">hmac_sha256_final</text>
</a>
</g>
</g>
<!-- Node97&#45;&gt;Node99 -->
<g id="edge37" class="edge">
<title>Node97&#45;&gt;Node99</title>
<path fill="none" stroke="#191970" d="M372.7598,-389.4949C392.1138,-374.4597 432.485,-345.6061 472,-333 528.1345,-315.092 595.5125,-311.3676 643.432,-311.5088"/>
<polygon fill="#191970" stroke="#191970" points="643.6237,-315.0105 653.654,-311.5982 643.685,-308.0108 643.6237,-315.0105"/>
</g>
<!-- Node104 -->
<g id="node35" class="node">
<title>Node104</title>
<g id="a_node35"><a xlink:href="hmac-sha256_8c.html#a553a08d76959d7d64d25927fa418af1f" target="_top" xlink:title="hmac_sha256_init">
<polygon fill="#ffffff" stroke="#000000" points="494.5,-342.5 494.5,-361.5 592.5,-361.5 592.5,-342.5 494.5,-342.5"/>
<text text-anchor="middle" x="543.5" y="-349.5" font-family="Helvetica,sans-Serif" font-size="10.00" fill="#000000">hmac_sha256_init</text>
</a>
</g>
</g>
<!-- Node97&#45;&gt;Node104 -->
<g id="edge41" class="edge">
<title>Node97&#45;&gt;Node104</title>
<path fill="none" stroke="#191970" d="M397.9316,-389.4888C426.2852,-382.1868 465.6397,-372.0517 496.2815,-364.1604"/>
<polygon fill="#191970" stroke="#191970" points="497.4995,-367.461 506.3106,-361.5776 495.7536,-360.6822 497.4995,-367.461"/>
</g>
<!-- Node106 -->
<g id="node37" class="node">
<title>Node106</title>
<g id="a_node37"><a xlink:href="hmac-sha256_8c.html#a604cda5243425d008a47d89401e7c987" target="_top" xlink:title="hmac_sha256_update">
<polygon fill="#ffffff" stroke="#000000" points="486,-468.5 486,-487.5 601,-487.5 601,-468.5 486,-468.5"/>
<text text-anchor="middle" x="543.5" y="-475.5" font-family="Helvetica,sans-Serif" font-size="10.00" fill="#000000">hmac_sha256_update</text>
</a>
</g>
</g>
<!-- Node97&#45;&gt;Node106 -->
<g id="edge48" class="edge">
<title>Node97&#45;&gt;Node106</title>
<path fill="none" stroke="#191970" d="M407.8334,-408.6043C417.5528,-411.7127 427.4336,-415.7611 436,-421 455.8472,-433.1377 451.9991,-447.1173 472,-459 475.6646,-461.1772 479.5808,-463.1092 483.6216,-464.823"/>
<polygon fill="#191970" stroke="#191970" points="482.6249,-468.1876 493.2168,-468.4386 485.0932,-461.6372 482.6249,-468.1876"/>
</g>
<!-- Node107 -->
<g id="node38" class="node">
<title>Node107</title>
<g id="a_node38"><a xlink:href="osapi_8h.html#a266983148ba59f7bac481c76b7540da2" target="_top" xlink:title="os_get_random">
<polygon fill="#ffffff" stroke="#000000" points="500.5,-430.5 500.5,-449.5 586.5,-449.5 586.5,-430.5 500.5,-430.5"/>
<text text-anchor="middle" x="543.5" y="-437.5" font-family="Helvetica,sans-Serif" font-size="10.00" fill="#000000">os_get_random</text>
</a>
</g>
</g>
<!-- Node97&#45;&gt;Node107 -->
<g id="edge50" class="edge">
<title>Node97&#45;&gt;Node107</title>
<path fill="none" stroke="#191970" d="M403.3279,-408.5093C429.4927,-414.3874 463.2765,-421.9772 491.1212,-428.2327"/>
<polygon fill="#191970" stroke="#191970" points="490.5619,-431.6942 501.0859,-430.4714 492.0963,-424.8645 490.5619,-431.6942"/>
</g>
<!-- Node100 -->
<g id="node32" class="node">
<title>Node100</title>
<g id="a_node32"><a xlink:href="sha256_8c.html#a28a4e37e67f8b97b374c49d8b83d8167" target="_top" xlink:title="sha256_final">
<polygon fill="#ffffff" stroke="#ff0000" points="802,-329.5 802,-348.5 875,-348.5 875,-329.5 802,-329.5"/>
<text text-anchor="middle" x="838.5" y="-336.5" font-family="Helvetica,sans-Serif" font-size="10.00" fill="#000000">sha256_final</text>
</a>
</g>
</g>
<!-- Node99&#45;&gt;Node100 -->
<g id="edge38" class="edge">
<title>Node99&#45;&gt;Node100</title>
<path fill="none" stroke="#191970" d="M756.161,-323.5227C767.8572,-325.7213 780.2475,-328.0503 791.7673,-330.2157"/>
<polygon fill="#191970" stroke="#191970" points="791.1528,-333.6614 801.6273,-332.069 792.446,-326.7819 791.1528,-333.6614"/>
</g>
<!-- Node102 -->
<g id="node33" class="node">
<title>Node102</title>
<g id="a_node33"><a xlink:href="sha256_8c.html#ad1c794b2d7e8eba243628e45cb69ef94" target="_top" xlink:title="sha256_init">
<polygon fill="#ffffff" stroke="#000000" points="804.5,-291.5 804.5,-310.5 872.5,-310.5 872.5,-291.5 804.5,-291.5"/>
<text text-anchor="middle" x="838.5" y="-298.5" font-family="Helvetica,sans-Serif" font-size="10.00" fill="#000000">sha256_init</text>
</a>
</g>
</g>
<!-- Node99&#45;&gt;Node102 -->
<g id="edge39" class="edge">
<title>Node99&#45;&gt;Node102</title>
<path fill="none" stroke="#191970" d="M757.3021,-308.9366C769.4873,-307.7456 782.3655,-306.4868 794.1872,-305.3313"/>
<polygon fill="#191970" stroke="#191970" points="794.6479,-308.8031 804.26,-304.3468 793.9669,-301.8363 794.6479,-308.8031"/>
</g>
<!-- Node103 -->
<g id="node34" class="node">
<title>Node103</title>
<g id="a_node34"><a xlink:href="sha256_8c.html#a00647246fd4532c27d1aafd709d5973d" target="_top" xlink:title="sha256_update">
<polygon fill="#ffffff" stroke="#ff0000" points="796,-367.5 796,-386.5 881,-386.5 881,-367.5 796,-367.5"/>
<text text-anchor="middle" x="838.5" y="-374.5" font-family="Helvetica,sans-Serif" font-size="10.00" fill="#000000">sha256_update</text>
</a>
</g>
</g>
<!-- Node99&#45;&gt;Node103 -->
<g id="edge40" class="edge">
<title>Node99&#45;&gt;Node103</title>
<path fill="none" stroke="#191970" d="M737.5177,-323.5348C745.0565,-326.2213 752.9467,-329.4063 760,-333 777.3567,-341.8432 779.0345,-348.4277 796,-358 799.0488,-359.7202 802.2825,-361.4022 805.5513,-363.0097"/>
<polygon fill="#191970" stroke="#191970" points="804.1918,-366.2378 814.732,-367.3125 807.1625,-359.8994 804.1918,-366.2378"/>
</g>
<!-- Node104&#45;&gt;Node102 -->
<g id="edge42" class="edge">
<title>Node104&#45;&gt;Node102</title>
<path fill="none" stroke="#191970" d="M556.5415,-342.3384C575.9444,-328.6291 614.1002,-304.1776 651,-295 698.8125,-283.1083 755.5916,-287.366 794.0443,-292.8394"/>
<polygon fill="#191970" stroke="#191970" points="793.9702,-296.3679 804.3812,-294.403 795.0172,-289.4467 793.9702,-296.3679"/>
</g>
<!-- Node104&#45;&gt;Node103 -->
<g id="edge47" class="edge">
<title>Node104&#45;&gt;Node103</title>
<path fill="none" stroke="#191970" d="M589.0676,-361.539C608.1203,-365.1397 630.5465,-368.8762 651,-371 696.3043,-375.7041 748.0668,-377.0592 785.7107,-377.3205"/>
<polygon fill="#191970" stroke="#191970" points="785.9209,-380.8214 795.9368,-377.367 785.9528,-373.8214 785.9209,-380.8214"/>
</g>
<!-- Node105 -->
<g id="node36" class="node">
<title>Node105</title>
<g id="a_node36"><a xlink:href="sha256_8c.html#a7f22a0894ca55160852ddcdff7a1f2fc" target="_top" xlink:title="sha256_raw">
<polygon fill="#ffffff" stroke="#000000" points="670,-342.5 670,-361.5 741,-361.5 741,-342.5 670,-342.5"/>
<text text-anchor="middle" x="705.5" y="-349.5" font-family="Helvetica,sans-Serif" font-size="10.00" fill="#000000">sha256_raw</text>
</a>
</g>
</g>
<!-- Node104&#45;&gt;Node105 -->
<g id="edge43" class="edge">
<title>Node104&#45;&gt;Node105</title>
<path fill="none" stroke="#191970" d="M592.545,-352C613.8957,-352 638.7741,-352 659.7398,-352"/>
<polygon fill="#191970" stroke="#191970" points="659.9954,-355.5001 669.9954,-352 659.9953,-348.5001 659.9954,-355.5001"/>
</g>
<!-- Node105&#45;&gt;Node100 -->
<g id="edge44" class="edge">
<title>Node105&#45;&gt;Node100</title>
<path fill="none" stroke="#191970" d="M741.1416,-348.5162C756.6894,-346.9965 775.1289,-345.1942 791.7561,-343.569"/>
<polygon fill="#191970" stroke="#191970" points="792.2206,-347.0403 801.8326,-342.584 791.5396,-340.0735 792.2206,-347.0403"/>
</g>
<!-- Node105&#45;&gt;Node102 -->
<g id="edge45" class="edge">
<title>Node105&#45;&gt;Node102</title>
<path fill="none" stroke="#191970" d="M733.8868,-342.4147C742.3234,-339.4822 751.5638,-336.1876 760,-333 775.4366,-327.1673 792.4101,-320.3053 806.6129,-314.4344"/>
<polygon fill="#191970" stroke="#191970" points="808.0594,-317.6235 815.95,-310.5532 805.3725,-311.1597 808.0594,-317.6235"/>
</g>
<!-- Node105&#45;&gt;Node103 -->
<g id="edge46" class="edge">
<title>Node105&#45;&gt;Node103</title>
<path fill="none" stroke="#191970" d="M741.1416,-358.6995C754.7706,-361.2614 770.6216,-364.2409 785.526,-367.0425"/>
<polygon fill="#191970" stroke="#191970" points="785.1799,-370.5386 795.6543,-368.9463 786.4731,-363.6591 785.1799,-370.5386"/>
</g>
<!-- Node106&#45;&gt;Node103 -->
<g id="edge49" class="edge">
<title>Node106&#45;&gt;Node103</title>
<path fill="none" stroke="#191970" d="M581.9071,-468.4883C592.6726,-465.6344 604.3438,-462.3629 615,-459 683.3798,-437.4208 761.7229,-407.4306 805.122,-390.3396"/>
<polygon fill="#191970" stroke="#191970" points="806.5931,-393.5217 814.6063,-386.5906 804.0198,-387.0118 806.5931,-393.5217"/>
</g>
<!-- Node109 -->
<g id="node40" class="node">
<title>Node109</title>
<g id="a_node40"><a xlink:href="mqtt__msg_8h.html#af16842423fc1d5d802a7f329fc3a9ef9" target="_top" xlink:title="mqtt_msg_publish">
<polygon fill="#ffffff" stroke="#000000" points="494.5,-133.5 494.5,-152.5 592.5,-152.5 592.5,-133.5 494.5,-133.5"/>
<text text-anchor="middle" x="543.5" y="-140.5" font-family="Helvetica,sans-Serif" font-size="10.00" fill="#000000">mqtt_msg_publish</text>
</a>
</g>
</g>
<!-- Node108&#45;&gt;Node109 -->
<g id="edge52" class="edge">
<title>Node108&#45;&gt;Node109</title>
<path fill="none" stroke="#191970" d="M391.5464,-190.4595C422.2082,-180.8829 469.6053,-166.0795 503.3042,-155.5543"/>
<polygon fill="#191970" stroke="#191970" points="504.3521,-158.8938 512.8539,-152.5716 502.2652,-152.2121 504.3521,-158.8938"/>
</g>
<!-- Node115 -->
<g id="node46" class="node">
<title>Node115</title>
<g id="a_node46"><a xlink:href="kamstrup-wifi_2mqtt_2include_2queue_8h.html#acf070d5db9067c0b9598dec844313ae5" target="_top" xlink:title="QUEUE_Gets">
<polygon fill="#ffffff" stroke="#000000" points="504,-38.5 504,-57.5 583,-57.5 583,-38.5 504,-38.5"/>
<text text-anchor="middle" x="543.5" y="-45.5" font-family="Helvetica,sans-Serif" font-size="10.00" fill="#000000">QUEUE_Gets</text>
</a>
</g>
</g>
<!-- Node108&#45;&gt;Node115 -->
<g id="edge58" class="edge">
<title>Node108&#45;&gt;Node115</title>
<path fill="none" stroke="#191970" d="M372.4162,-190.4917C402.8863,-165.1139 486.3855,-95.5693 524.3085,-63.9842"/>
<polygon fill="#191970" stroke="#191970" points="526.6441,-66.5939 532.0881,-57.5047 522.1642,-61.2151 526.6441,-66.5939"/>
</g>
<!-- Node120 -->
<g id="node48" class="node">
<title>Node120</title>
<g id="a_node48"><a xlink:href="kamstrup-wifi_2mqtt_2include_2queue_8h.html#a0a04f14d06c5c3ee302764c5f3d7dc0c" target="_top" xlink:title="QUEUE_Puts">
<polygon fill="#ffffff" stroke="#000000" points="504.5,-228.5 504.5,-247.5 582.5,-247.5 582.5,-228.5 504.5,-228.5"/>
<text text-anchor="middle" x="543.5" y="-235.5" font-family="Helvetica,sans-Serif" font-size="10.00" fill="#000000">QUEUE_Puts</text>
</a>
</g>
</g>
<!-- Node108&#45;&gt;Node120 -->
<g id="edge60" class="edge">
<title>Node108&#45;&gt;Node120</title>
<path fill="none" stroke="#191970" d="M402.8692,-208.718C430.1686,-214.4022 465.9062,-221.8435 494.5232,-227.8021"/>
<polygon fill="#191970" stroke="#191970" points="493.8194,-231.2305 504.3229,-229.8426 495.2464,-224.3775 493.8194,-231.2305"/>
</g>
<!-- Node123 -->
<g id="node50" class="node">
<title>Node123</title>
<g id="a_node50"><a xlink:href="user__interface_8h.html#adab1155f3a463f2b05a9bde65b37514f" target="_top" xlink:title="system_os_post">
<polygon fill="#ffffff" stroke="#000000" points="499,-190.5 499,-209.5 588,-209.5 588,-190.5 499,-190.5"/>
<text text-anchor="middle" x="543.5" y="-197.5" font-family="Helvetica,sans-Serif" font-size="10.00" fill="#000000">system_os_post</text>
</a>
</g>
</g>
<!-- Node108&#45;&gt;Node123 -->
<g id="edge62" class="edge">
<title>Node108&#45;&gt;Node123</title>
<path fill="none" stroke="#191970" d="M402.8692,-200C428.3438,-200 461.1663,-200 488.6939,-200"/>
<polygon fill="#191970" stroke="#191970" points="488.9586,-203.5001 498.9585,-200 488.9585,-196.5001 488.9586,-203.5001"/>
</g>
<!-- Node110 -->
<g id="node41" class="node">
<title>Node110</title>
<g id="a_node41"><a xlink:href="mqtt__msg_8c.html#ac59e26babd30c6c0ace9a174e75786f3" target="_top" xlink:title="append_message_id">
<polygon fill="#ffffff" stroke="#000000" points="651,-38.5 651,-57.5 760,-57.5 760,-38.5 651,-38.5"/>
<text text-anchor="middle" x="705.5" y="-45.5" font-family="Helvetica,sans-Serif" font-size="10.00" fill="#000000">append_message_id</text>
</a>
</g>
</g>
<!-- Node109&#45;&gt;Node110 -->
<g id="edge53" class="edge">
<title>Node109&#45;&gt;Node110</title>
<path fill="none" stroke="#191970" d="M554.7389,-133.4251C573.5807,-117.7613 613.202,-86.4586 651,-67 655.0174,-64.9318 659.3106,-63.0027 663.6576,-61.2279"/>
<polygon fill="#191970" stroke="#191970" points="665.0801,-64.4312 673.1741,-57.5947 662.5834,-57.8916 665.0801,-64.4312"/>
</g>
<!-- Node111 -->
<g id="node42" class="node">
<title>Node111</title>
<g id="a_node42"><a xlink:href="mqtt__msg_8c.html#a207c99e2058080b97c21a348d693a560" target="_top" xlink:title="append_string">
<polygon fill="#ffffff" stroke="#000000" points="665.5,-190.5 665.5,-209.5 745.5,-209.5 745.5,-190.5 665.5,-190.5"/>
<text text-anchor="middle" x="705.5" y="-197.5" font-family="Helvetica,sans-Serif" font-size="10.00" fill="#000000">append_string</text>
</a>
</g>
</g>
<!-- Node109&#45;&gt;Node111 -->
<g id="edge54" class="edge">
<title>Node109&#45;&gt;Node111</title>
<path fill="none" stroke="#191970" d="M570.4377,-152.5585C592.174,-160.2626 623.5442,-171.3615 651,-181 656.6329,-182.9775 662.5958,-185.0636 668.4299,-187.1007"/>
<polygon fill="#191970" stroke="#191970" points="667.4511,-190.466 678.0459,-190.4548 669.7566,-183.8565 667.4511,-190.466"/>
</g>
<!-- Node112 -->
<g id="node43" class="node">
<title>Node112</title>
<g id="a_node43"><a xlink:href="mqtt__msg_8c.html#a9a2fb8c67ff4b104dd46e72c9e97b710" target="_top" xlink:title="fail_message">
<polygon fill="#ffffff" stroke="#000000" points="668,-152.5 668,-171.5 743,-171.5 743,-152.5 668,-152.5"/>
<text text-anchor="middle" x="705.5" y="-159.5" font-family="Helvetica,sans-Serif" font-size="10.00" fill="#000000">fail_message</text>
</a>
</g>
</g>
<!-- Node109&#45;&gt;Node112 -->
<g id="edge55" class="edge">
<title>Node109&#45;&gt;Node112</title>
<path fill="none" stroke="#191970" d="M592.545,-148.7522C613.2584,-151.1815 637.2919,-154.0003 657.852,-156.4117"/>
<polygon fill="#191970" stroke="#191970" points="657.603,-159.9064 667.9427,-157.5951 658.4185,-152.954 657.603,-159.9064"/>
</g>
<!-- Node113 -->
<g id="node44" class="node">
<title>Node113</title>
<g id="a_node44"><a xlink:href="mqtt__msg_8c.html#a356949afe8a334d5e91bddb4b2794921" target="_top" xlink:title="fini_message">
<polygon fill="#ffffff" stroke="#000000" points="668,-114.5 668,-133.5 743,-133.5 743,-114.5 668,-114.5"/>
<text text-anchor="middle" x="705.5" y="-121.5" font-family="Helvetica,sans-Serif" font-size="10.00" fill="#000000">fini_message</text>
</a>
</g>
</g>
<!-- Node109&#45;&gt;Node113 -->
<g id="edge56" class="edge">
<title>Node109&#45;&gt;Node113</title>
<path fill="none" stroke="#191970" d="M592.545,-137.2478C613.2584,-134.8185 637.2919,-131.9997 657.852,-129.5883"/>
<polygon fill="#191970" stroke="#191970" points="658.4185,-133.046 667.9427,-128.4049 657.603,-126.0936 658.4185,-133.046"/>
</g>
<!-- Node114 -->
<g id="node45" class="node">
<title>Node114</title>
<g id="a_node45"><a xlink:href="mqtt__msg_8c.html#aae7c66cc577ac90e9535edac4abc068c" target="_top" xlink:title="init_message">
<polygon fill="#ffffff" stroke="#000000" points="668,-76.5 668,-95.5 743,-95.5 743,-76.5 668,-76.5"/>
<text text-anchor="middle" x="705.5" y="-83.5" font-family="Helvetica,sans-Serif" font-size="10.00" fill="#000000">init_message</text>
</a>
</g>
</g>
<!-- Node109&#45;&gt;Node114 -->
<g id="edge57" class="edge">
<title>Node109&#45;&gt;Node114</title>
<path fill="none" stroke="#191970" d="M570.4377,-133.4415C592.174,-125.7374 623.5442,-114.6385 651,-105 656.6329,-103.0225 662.5958,-100.9364 668.4299,-98.8993"/>
<polygon fill="#191970" stroke="#191970" points="669.7566,-102.1435 678.0459,-95.5452 667.4511,-95.534 669.7566,-102.1435"/>
</g>
<!-- Node116 -->
<g id="node47" class="node">
<title>Node116</title>
<g id="a_node47"><a xlink:href="proto_8h.html#a4ce0ecd80c57cb13f47a2725036451af" target="_top" xlink:title="PROTO_ParseRb">
<polygon fill="#ffffff" stroke="#ff0000" points="657,-.5 657,-19.5 754,-19.5 754,-.5 657,-.5"/>
<text text-anchor="middle" x="705.5" y="-7.5" font-family="Helvetica,sans-Serif" font-size="10.00" fill="#000000">PROTO_ParseRb</text>
</a>
</g>
</g>
<!-- Node115&#45;&gt;Node116 -->
<g id="edge59" class="edge">
<title>Node115&#45;&gt;Node116</title>
<path fill="none" stroke="#191970" d="M583.1297,-38.7042C604.7528,-33.6321 631.7527,-27.2988 654.8855,-21.8725"/>
<polygon fill="#191970" stroke="#191970" points="655.9349,-25.2215 664.8713,-19.5302 654.3362,-18.4064 655.9349,-25.2215"/>
</g>
<!-- Node121 -->
<g id="node49" class="node">
<title>Node121</title>
<g id="a_node49"><a xlink:href="proto_8h.html#aeeb0162a48bf377e468e5fca672a5df1" target="_top" xlink:title="PROTO_AddRb">
<polygon fill="#ffffff" stroke="#ff0000" points="661.5,-228.5 661.5,-247.5 749.5,-247.5 749.5,-228.5 661.5,-228.5"/>
<text text-anchor="middle" x="705.5" y="-235.5" font-family="Helvetica,sans-Serif" font-size="10.00" fill="#000000">PROTO_AddRb</text>
</a>
</g>
</g>
<!-- Node120&#45;&gt;Node121 -->
<g id="edge61" class="edge">
<title>Node120&#45;&gt;Node121</title>
<path fill="none" stroke="#191970" d="M582.7157,-238C603.2604,-238 628.7439,-238 651.1609,-238"/>
<polygon fill="#191970" stroke="#191970" points="651.2161,-241.5001 661.2161,-238 651.216,-234.5001 651.2161,-241.5001"/>
</g>
</g>
</svg>
