<?xml version="1.0" encoding="UTF-8" standalone="no"?>
<!DOCTYPE svg PUBLIC "-//W3C//DTD SVG 1.1//EN"
 "http://www.w3.org/Graphics/SVG/1.1/DTD/svg11.dtd">
<!-- Generated by graphviz version 2.41.20170323.1842 (20170323.1842)
 -->
<!-- Title: kmp_get_register Pages: 1 -->
<svg width="1275pt" height="116pt"
 viewBox="0.00 0.00 1275.00 115.50" xmlns="http://www.w3.org/2000/svg" xmlns:xlink="http://www.w3.org/1999/xlink">
<g id="graph0" class="graph" transform="scale(1 1) rotate(0) translate(4 111.5)">
<title>kmp_get_register</title>
<polygon fill="#ffffff" stroke="transparent" points="-4,4 -4,-111.5 1271,-111.5 1271,4 -4,4"/>
<!-- Node54 -->
<g id="node1" class="node">
<title>Node54</title>
<polygon fill="#bfbfbf" stroke="#000000" points="0,-60.5 0,-79.5 94,-79.5 94,-60.5 0,-60.5"/>
<text text-anchor="middle" x="47" y="-67.5" font-family="Helvetica,sans-Serif" font-size="10.00" fill="#000000">kmp_get_register</text>
</g>
<!-- Node55 -->
<g id="node2" class="node">
<title>Node55</title>
<g id="a_node2"><a xlink:href="kmp__request_8c.html#aeadc3768548ef2bed49c3f2fcaf57c20" target="_top" xlink:title="kmp_get_register_timer_func">
<polygon fill="#ffffff" stroke="#000000" points="130,-60.5 130,-79.5 276,-79.5 276,-60.5 130,-60.5"/>
<text text-anchor="middle" x="203" y="-67.5" font-family="Helvetica,sans-Serif" font-size="10.00" fill="#000000">kmp_get_register_timer_func</text>
</a>
</g>
</g>
<!-- Node54&#45;&gt;Node55 -->
<g id="edge1" class="edge">
<title>Node54&#45;&gt;Node55</title>
<path fill="none" stroke="#191970" d="M104.4487,-70C112.6801,-70 121.2404,-70 129.7257,-70"/>
<polygon fill="#191970" stroke="#191970" points="104.2285,-66.5001 94.2285,-70 104.2285,-73.5001 104.2285,-66.5001"/>
</g>
<!-- Node56 -->
<g id="node3" class="node">
<title>Node56</title>
<g id="a_node3"><a xlink:href="kmp__request_8h.html#a3b022dcdc832786eb06126b5e6879604" target="_top" xlink:title="kmp_request_send">
<polygon fill="#ffffff" stroke="#000000" points="312,-60.5 312,-79.5 414,-79.5 414,-60.5 312,-60.5"/>
<text text-anchor="middle" x="363" y="-67.5" font-family="Helvetica,sans-Serif" font-size="10.00" fill="#000000">kmp_request_send</text>
</a>
</g>
</g>
<!-- Node55&#45;&gt;Node56 -->
<g id="edge2" class="edge">
<title>Node55&#45;&gt;Node56</title>
<path fill="none" stroke="#191970" d="M286.5868,-70C295.2256,-70 303.8086,-70 311.9317,-70"/>
<polygon fill="#191970" stroke="#191970" points="286.4441,-66.5001 276.444,-70 286.444,-73.5001 286.4441,-66.5001"/>
</g>
<!-- Node57 -->
<g id="node4" class="node">
<title>Node57</title>
<g id="a_node4"><a xlink:href="kmp__request_8c.html#a0977a4640a97d389ac3b0fef0ba7a9b6" target="_top" xlink:title="kmp_receive_timeout\l_timer_func">
<polygon fill="#ffffff" stroke="#000000" points="450,-77 450,-107 562,-107 562,-77 450,-77"/>
<text text-anchor="start" x="458" y="-95" font-family="Helvetica,sans-Serif" font-size="10.00" fill="#000000">kmp_receive_timeout</text>
<text text-anchor="middle" x="506" y="-84" font-family="Helvetica,sans-Serif" font-size="10.00" fill="#000000">_timer_func</text>
</a>
</g>
</g>
<!-- Node56&#45;&gt;Node57 -->
<g id="edge3" class="edge">
<title>Node56&#45;&gt;Node57</title>
<path fill="none" stroke="#191970" d="M424.2394,-72.7336C433.2222,-74.0061 442.4257,-75.4572 451.2667,-76.9972"/>
<polygon fill="#191970" stroke="#191970" points="424.6015,-69.2508 414.2224,-71.3777 423.6625,-76.1875 424.6015,-69.2508"/>
</g>
<!-- Node58 -->
<g id="node5" class="node">
<title>Node58</title>
<g id="a_node5"><a xlink:href="user__main_8c.html#af2c051d5ceacd30f90c08d6f584deff2" target="_top" xlink:title="sample_timer_func">
<polygon fill="#ffffff" stroke="#000000" points="455.5,-38.5 455.5,-57.5 556.5,-57.5 556.5,-38.5 455.5,-38.5"/>
<text text-anchor="middle" x="506" y="-45.5" font-family="Helvetica,sans-Serif" font-size="10.00" fill="#000000">sample_timer_func</text>
</a>
</g>
</g>
<!-- Node56&#45;&gt;Node58 -->
<g id="edge5" class="edge">
<title>Node56&#45;&gt;Node58</title>
<path fill="none" stroke="#191970" d="M424.3592,-60.5601C434.6231,-58.9811 445.1715,-57.3582 455.1353,-55.8253"/>
<polygon fill="#191970" stroke="#191970" points="423.5739,-57.1397 414.2224,-62.1196 424.6383,-64.0583 423.5739,-57.1397"/>
</g>
<!-- Node64 -->
<g id="node11" class="node">
<title>Node64</title>
<g id="a_node11"><a xlink:href="user__main_8c.html#a3648c609e8dd286eb90285b08b150362" target="_top" xlink:title="kmp_request_send_timer_func">
<polygon fill="#ffffff" stroke="#000000" points="598,-.5 598,-19.5 752,-19.5 752,-.5 598,-.5"/>
<text text-anchor="middle" x="675" y="-7.5" font-family="Helvetica,sans-Serif" font-size="10.00" fill="#000000">kmp_request_send_timer_func</text>
</a>
</g>
</g>
<!-- Node56&#45;&gt;Node64 -->
<g id="edge12" class="edge">
<title>Node56&#45;&gt;Node64</title>
<path fill="none" stroke="#191970" d="M387.8742,-55.3535C404.7975,-46.1345 428.0268,-34.9 450,-29 498.0828,-16.0894 553.833,-11.3125 597.8094,-9.7765"/>
<polygon fill="#191970" stroke="#191970" points="385.711,-52.5534 378.6959,-60.493 389.1311,-58.661 385.711,-52.5534"/>
</g>
<!-- Node57&#45;&gt;Node56 -->
<g id="edge4" class="edge">
<title>Node57&#45;&gt;Node56</title>
<path fill="none" stroke="#191970" d="M439.6307,-88.5239C422.0396,-85.9238 404.0323,-82.7124 389.8972,-79.5495"/>
<polygon fill="#191970" stroke="#191970" points="439.5155,-92.0424 449.9075,-89.9791 440.497,-85.1115 439.5155,-92.0424"/>
</g>
<!-- Node59 -->
<g id="node6" class="node">
<title>Node59</title>
<g id="a_node6"><a xlink:href="user__main_8h.html#ad6eb800c4d7f9c79df52949d88a18d06" target="_top" xlink:title="mqtt_connected_cb">
<polygon fill="#ffffff" stroke="#000000" points="623,-38.5 623,-57.5 727,-57.5 727,-38.5 623,-38.5"/>
<text text-anchor="middle" x="675" y="-45.5" font-family="Helvetica,sans-Serif" font-size="10.00" fill="#000000">mqtt_connected_cb</text>
</a>
</g>
</g>
<!-- Node58&#45;&gt;Node59 -->
<g id="edge6" class="edge">
<title>Node58&#45;&gt;Node59</title>
<path fill="none" stroke="#191970" d="M566.7215,-48C585.097,-48 605.1056,-48 622.8668,-48"/>
<polygon fill="#191970" stroke="#191970" points="566.7056,-44.5001 556.7056,-48 566.7055,-51.5001 566.7056,-44.5001"/>
</g>
<!-- Node60 -->
<g id="node7" class="node">
<title>Node60</title>
<g id="a_node7"><a xlink:href="user__main_8c.html#a245ec00253f410a8804988bf40e1037e" target="_top" xlink:title="sample_mode_timer_func">
<polygon fill="#ffffff" stroke="#000000" points="915,-38.5 915,-57.5 1047,-57.5 1047,-38.5 915,-38.5"/>
<text text-anchor="middle" x="981" y="-45.5" font-family="Helvetica,sans-Serif" font-size="10.00" fill="#000000">sample_mode_timer_func</text>
</a>
</g>
</g>
<!-- Node59&#45;&gt;Node60 -->
<g id="edge7" class="edge">
<title>Node59&#45;&gt;Node60</title>
<path fill="none" stroke="#191970" d="M730.8066,-59.277C748.9649,-62.4376 769.2659,-65.436 788,-67 828.3042,-70.3648 838.7269,-70.7189 879,-67 899.089,-65.1449 921.1236,-61.2763 939.5562,-57.5111"/>
<polygon fill="#191970" stroke="#191970" points="731.4234,-55.8318 720.9627,-57.5125 730.1882,-62.722 731.4234,-55.8318"/>
</g>
<!-- Node63 -->
<g id="node10" class="node">
<title>Node63</title>
<g id="a_node10"><a xlink:href="user__main_8h.html#a7a3bf0cc09d98adc72f4e34d26ce3fa1" target="_top" xlink:title="wifi_changed_cb">
<polygon fill="#ffffff" stroke="#000000" points="788,-38.5 788,-57.5 879,-57.5 879,-38.5 788,-38.5"/>
<text text-anchor="middle" x="833.5" y="-45.5" font-family="Helvetica,sans-Serif" font-size="10.00" fill="#000000">wifi_changed_cb</text>
</a>
</g>
</g>
<!-- Node59&#45;&gt;Node63 -->
<g id="edge10" class="edge">
<title>Node59&#45;&gt;Node63</title>
<path fill="none" stroke="#191970" d="M737.619,-48C754.3925,-48 772.2069,-48 787.8704,-48"/>
<polygon fill="#191970" stroke="#191970" points="737.3381,-44.5001 727.3381,-48 737.3381,-51.5001 737.3381,-44.5001"/>
</g>
<!-- Node61 -->
<g id="node8" class="node">
<title>Node61</title>
<g id="a_node8"><a xlink:href="user__main_8h.html#a3671381db669a16e8f6a4bf3dfb9a441" target="_top" xlink:title="system_init_done">
<polygon fill="#ffffff" stroke="#000000" points="1083,-19.5 1083,-38.5 1177,-38.5 1177,-19.5 1083,-19.5"/>
<text text-anchor="middle" x="1130" y="-26.5" font-family="Helvetica,sans-Serif" font-size="10.00" fill="#000000">system_init_done</text>
</a>
</g>
</g>
<!-- Node60&#45;&gt;Node61 -->
<g id="edge8" class="edge">
<title>Node60&#45;&gt;Node61</title>
<path fill="none" stroke="#191970" d="M1057.361,-38.2627C1066.0092,-37.1599 1074.624,-36.0614 1082.7387,-35.0266"/>
<polygon fill="#191970" stroke="#191970" points="1056.6982,-34.8188 1047.2213,-39.5557 1057.5837,-41.7626 1056.6982,-34.8188"/>
</g>
<!-- Node62 -->
<g id="node9" class="node">
<title>Node62</title>
<g id="a_node9"><a xlink:href="user__main_8h.html#a33113d6dedb440bd7dfa5576e325140c" target="_top" xlink:title="user_init">
<polygon fill="#ffffff" stroke="#000000" points="1213,-19.5 1213,-38.5 1267,-38.5 1267,-19.5 1213,-19.5"/>
<text text-anchor="middle" x="1240" y="-26.5" font-family="Helvetica,sans-Serif" font-size="10.00" fill="#000000">user_init</text>
</a>
</g>
</g>
<!-- Node61&#45;&gt;Node62 -->
<g id="edge9" class="edge">
<title>Node61&#45;&gt;Node62</title>
<path fill="none" stroke="#191970" d="M1187.2886,-29C1196.1598,-29 1204.9515,-29 1212.7383,-29"/>
<polygon fill="#191970" stroke="#191970" points="1187.2883,-25.5001 1177.2883,-29 1187.2882,-32.5001 1187.2883,-25.5001"/>
</g>
<!-- Node63&#45;&gt;Node60 -->
<g id="edge11" class="edge">
<title>Node63&#45;&gt;Node60</title>
<path fill="none" stroke="#191970" d="M889.6135,-48C897.8659,-48 906.4313,-48 914.8626,-48"/>
<polygon fill="#191970" stroke="#191970" points="889.3614,-44.5001 879.3614,-48 889.3614,-51.5001 889.3614,-44.5001"/>
</g>
<!-- Node64&#45;&gt;Node61 -->
<g id="edge13" class="edge">
<title>Node64&#45;&gt;Node61</title>
<path fill="none" stroke="#191970" d="M762.3993,-13.6496C857.8653,-17.6361 1007.2293,-23.8733 1082.8062,-27.0293"/>
<polygon fill="#191970" stroke="#191970" points="762.3219,-10.1435 752.1845,-13.2231 762.0298,-17.1374 762.3219,-10.1435"/>
</g>
</g>
</svg>
