<?xml version="1.0" encoding="UTF-8" standalone="no"?>
<!DOCTYPE svg PUBLIC "-//W3C//DTD SVG 1.1//EN"
 "http://www.w3.org/Graphics/SVG/1.1/DTD/svg11.dtd">
<!-- Generated by graphviz version 2.41.20170323.1842 (20170323.1842)
 -->
<!-- Title: kmp_get_serial Pages: 1 -->
<svg width="1256pt" height="116pt"
 viewBox="0.00 0.00 1256.00 115.50" xmlns="http://www.w3.org/2000/svg" xmlns:xlink="http://www.w3.org/1999/xlink">
<g id="graph0" class="graph" transform="scale(1 1) rotate(0) translate(4 111.5)">
<title>kmp_get_serial</title>
<polygon fill="#ffffff" stroke="transparent" points="-4,4 -4,-111.5 1252,-111.5 1252,4 -4,4"/>
<!-- Node69 -->
<g id="node1" class="node">
<title>Node69</title>
<polygon fill="#bfbfbf" stroke="#000000" points="0,-60.5 0,-79.5 84,-79.5 84,-60.5 0,-60.5"/>
<text text-anchor="middle" x="42" y="-67.5" font-family="Helvetica,sans-Serif" font-size="10.00" fill="#000000">kmp_get_serial</text>
</g>
<!-- Node70 -->
<g id="node2" class="node">
<title>Node70</title>
<g id="a_node2"><a xlink:href="kmp__request_8c.html#a7e59cff48c3c08aed48914a3a843d4b8" target="_top" xlink:title="kmp_get_serial_timer_func">
<polygon fill="#ffffff" stroke="#000000" points="120,-60.5 120,-79.5 257,-79.5 257,-60.5 120,-60.5"/>
<text text-anchor="middle" x="188.5" y="-67.5" font-family="Helvetica,sans-Serif" font-size="10.00" fill="#000000">kmp_get_serial_timer_func</text>
</a>
</g>
</g>
<!-- Node69&#45;&gt;Node70 -->
<g id="edge1" class="edge">
<title>Node69&#45;&gt;Node70</title>
<path fill="none" stroke="#191970" d="M94.5035,-70C102.6866,-70 111.2462,-70 119.7256,-70"/>
<polygon fill="#191970" stroke="#191970" points="94.3739,-66.5001 84.3739,-70 94.3738,-73.5001 94.3739,-66.5001"/>
</g>
<!-- Node71 -->
<g id="node3" class="node">
<title>Node71</title>
<g id="a_node3"><a xlink:href="kmp__request_8h.html#a3b022dcdc832786eb06126b5e6879604" target="_top" xlink:title="kmp_request_send">
<polygon fill="#ffffff" stroke="#000000" points="293,-60.5 293,-79.5 395,-79.5 395,-60.5 293,-60.5"/>
<text text-anchor="middle" x="344" y="-67.5" font-family="Helvetica,sans-Serif" font-size="10.00" fill="#000000">kmp_request_send</text>
</a>
</g>
</g>
<!-- Node70&#45;&gt;Node71 -->
<g id="edge2" class="edge">
<title>Node70&#45;&gt;Node71</title>
<path fill="none" stroke="#191970" d="M267.3609,-70C276.0679,-70 284.7563,-70 292.9893,-70"/>
<polygon fill="#191970" stroke="#191970" points="267.1572,-66.5001 257.1572,-70 267.1572,-73.5001 267.1572,-66.5001"/>
</g>
<!-- Node72 -->
<g id="node4" class="node">
<title>Node72</title>
<g id="a_node4"><a xlink:href="kmp__request_8c.html#a0977a4640a97d389ac3b0fef0ba7a9b6" target="_top" xlink:title="kmp_receive_timeout\l_timer_func">
<polygon fill="#ffffff" stroke="#000000" points="431,-77 431,-107 543,-107 543,-77 431,-77"/>
<text text-anchor="start" x="439" y="-95" font-family="Helvetica,sans-Serif" font-size="10.00" fill="#000000">kmp_receive_timeout</text>
<text text-anchor="middle" x="487" y="-84" font-family="Helvetica,sans-Serif" font-size="10.00" fill="#000000">_timer_func</text>
</a>
</g>
</g>
<!-- Node71&#45;&gt;Node72 -->
<g id="edge3" class="edge">
<title>Node71&#45;&gt;Node72</title>
<path fill="none" stroke="#191970" d="M405.2394,-72.7336C414.2222,-74.0061 423.4257,-75.4572 432.2667,-76.9972"/>
<polygon fill="#191970" stroke="#191970" points="405.6015,-69.2508 395.2224,-71.3777 404.6625,-76.1875 405.6015,-69.2508"/>
</g>
<!-- Node73 -->
<g id="node5" class="node">
<title>Node73</title>
<g id="a_node5"><a xlink:href="user__main_8c.html#af2c051d5ceacd30f90c08d6f584deff2" target="_top" xlink:title="sample_timer_func">
<polygon fill="#ffffff" stroke="#000000" points="436.5,-38.5 436.5,-57.5 537.5,-57.5 537.5,-38.5 436.5,-38.5"/>
<text text-anchor="middle" x="487" y="-45.5" font-family="Helvetica,sans-Serif" font-size="10.00" fill="#000000">sample_timer_func</text>
</a>
</g>
</g>
<!-- Node71&#45;&gt;Node73 -->
<g id="edge5" class="edge">
<title>Node71&#45;&gt;Node73</title>
<path fill="none" stroke="#191970" d="M405.3592,-60.5601C415.6231,-58.9811 426.1715,-57.3582 436.1353,-55.8253"/>
<polygon fill="#191970" stroke="#191970" points="404.5739,-57.1397 395.2224,-62.1196 405.6383,-64.0583 404.5739,-57.1397"/>
</g>
<!-- Node79 -->
<g id="node11" class="node">
<title>Node79</title>
<g id="a_node11"><a xlink:href="user__main_8c.html#a3648c609e8dd286eb90285b08b150362" target="_top" xlink:title="kmp_request_send_timer_func">
<polygon fill="#ffffff" stroke="#000000" points="579,-.5 579,-19.5 733,-19.5 733,-.5 579,-.5"/>
<text text-anchor="middle" x="656" y="-7.5" font-family="Helvetica,sans-Serif" font-size="10.00" fill="#000000">kmp_request_send_timer_func</text>
</a>
</g>
</g>
<!-- Node71&#45;&gt;Node79 -->
<g id="edge12" class="edge">
<title>Node71&#45;&gt;Node79</title>
<path fill="none" stroke="#191970" d="M368.8742,-55.3535C385.7975,-46.1345 409.0268,-34.9 431,-29 479.0828,-16.0894 534.833,-11.3125 578.8094,-9.7765"/>
<polygon fill="#191970" stroke="#191970" points="366.711,-52.5534 359.6959,-60.493 370.1311,-58.661 366.711,-52.5534"/>
</g>
<!-- Node72&#45;&gt;Node71 -->
<g id="edge4" class="edge">
<title>Node72&#45;&gt;Node71</title>
<path fill="none" stroke="#191970" d="M420.6307,-88.5239C403.0396,-85.9238 385.0323,-82.7124 370.8972,-79.5495"/>
<polygon fill="#191970" stroke="#191970" points="420.5155,-92.0424 430.9075,-89.9791 421.497,-85.1115 420.5155,-92.0424"/>
</g>
<!-- Node74 -->
<g id="node6" class="node">
<title>Node74</title>
<g id="a_node6"><a xlink:href="user__main_8h.html#ad6eb800c4d7f9c79df52949d88a18d06" target="_top" xlink:title="mqtt_connected_cb">
<polygon fill="#ffffff" stroke="#000000" points="604,-38.5 604,-57.5 708,-57.5 708,-38.5 604,-38.5"/>
<text text-anchor="middle" x="656" y="-45.5" font-family="Helvetica,sans-Serif" font-size="10.00" fill="#000000">mqtt_connected_cb</text>
</a>
</g>
</g>
<!-- Node73&#45;&gt;Node74 -->
<g id="edge6" class="edge">
<title>Node73&#45;&gt;Node74</title>
<path fill="none" stroke="#191970" d="M547.7215,-48C566.097,-48 586.1056,-48 603.8668,-48"/>
<polygon fill="#191970" stroke="#191970" points="547.7056,-44.5001 537.7056,-48 547.7055,-51.5001 547.7056,-44.5001"/>
</g>
<!-- Node75 -->
<g id="node7" class="node">
<title>Node75</title>
<g id="a_node7"><a xlink:href="user__main_8c.html#a245ec00253f410a8804988bf40e1037e" target="_top" xlink:title="sample_mode_timer_func">
<polygon fill="#ffffff" stroke="#000000" points="896,-38.5 896,-57.5 1028,-57.5 1028,-38.5 896,-38.5"/>
<text text-anchor="middle" x="962" y="-45.5" font-family="Helvetica,sans-Serif" font-size="10.00" fill="#000000">sample_mode_timer_func</text>
</a>
</g>
</g>
<!-- Node74&#45;&gt;Node75 -->
<g id="edge7" class="edge">
<title>Node74&#45;&gt;Node75</title>
<path fill="none" stroke="#191970" d="M711.8066,-59.277C729.9649,-62.4376 750.2659,-65.436 769,-67 809.3042,-70.3648 819.7269,-70.7189 860,-67 880.089,-65.1449 902.1236,-61.2763 920.5562,-57.5111"/>
<polygon fill="#191970" stroke="#191970" points="712.4234,-55.8318 701.9627,-57.5125 711.1882,-62.722 712.4234,-55.8318"/>
</g>
<!-- Node78 -->
<g id="node10" class="node">
<title>Node78</title>
<g id="a_node10"><a xlink:href="user__main_8h.html#a7a3bf0cc09d98adc72f4e34d26ce3fa1" target="_top" xlink:title="wifi_changed_cb">
<polygon fill="#ffffff" stroke="#000000" points="769,-38.5 769,-57.5 860,-57.5 860,-38.5 769,-38.5"/>
<text text-anchor="middle" x="814.5" y="-45.5" font-family="Helvetica,sans-Serif" font-size="10.00" fill="#000000">wifi_changed_cb</text>
</a>
</g>
</g>
<!-- Node74&#45;&gt;Node78 -->
<g id="edge10" class="edge">
<title>Node74&#45;&gt;Node78</title>
<path fill="none" stroke="#191970" d="M718.619,-48C735.3925,-48 753.2069,-48 768.8704,-48"/>
<polygon fill="#191970" stroke="#191970" points="718.3381,-44.5001 708.3381,-48 718.3381,-51.5001 718.3381,-44.5001"/>
</g>
<!-- Node76 -->
<g id="node8" class="node">
<title>Node76</title>
<g id="a_node8"><a xlink:href="user__main_8h.html#a3671381db669a16e8f6a4bf3dfb9a441" target="_top" xlink:title="system_init_done">
<polygon fill="#ffffff" stroke="#000000" points="1064,-19.5 1064,-38.5 1158,-38.5 1158,-19.5 1064,-19.5"/>
<text text-anchor="middle" x="1111" y="-26.5" font-family="Helvetica,sans-Serif" font-size="10.00" fill="#000000">system_init_done</text>
</a>
</g>
</g>
<!-- Node75&#45;&gt;Node76 -->
<g id="edge8" class="edge">
<title>Node75&#45;&gt;Node76</title>
<path fill="none" stroke="#191970" d="M1038.361,-38.2627C1047.0092,-37.1599 1055.624,-36.0614 1063.7387,-35.0266"/>
<polygon fill="#191970" stroke="#191970" points="1037.6982,-34.8188 1028.2213,-39.5557 1038.5837,-41.7626 1037.6982,-34.8188"/>
</g>
<!-- Node77 -->
<g id="node9" class="node">
<title>Node77</title>
<g id="a_node9"><a xlink:href="user__main_8h.html#a33113d6dedb440bd7dfa5576e325140c" target="_top" xlink:title="user_init">
<polygon fill="#ffffff" stroke="#000000" points="1194,-19.5 1194,-38.5 1248,-38.5 1248,-19.5 1194,-19.5"/>
<text text-anchor="middle" x="1221" y="-26.5" font-family="Helvetica,sans-Serif" font-size="10.00" fill="#000000">user_init</text>
</a>
</g>
</g>
<!-- Node76&#45;&gt;Node77 -->
<g id="edge9" class="edge">
<title>Node76&#45;&gt;Node77</title>
<path fill="none" stroke="#191970" d="M1168.2886,-29C1177.1598,-29 1185.9515,-29 1193.7383,-29"/>
<polygon fill="#191970" stroke="#191970" points="1168.2883,-25.5001 1158.2883,-29 1168.2882,-32.5001 1168.2883,-25.5001"/>
</g>
<!-- Node78&#45;&gt;Node75 -->
<g id="edge11" class="edge">
<title>Node78&#45;&gt;Node75</title>
<path fill="none" stroke="#191970" d="M870.6135,-48C878.8659,-48 887.4313,-48 895.8626,-48"/>
<polygon fill="#191970" stroke="#191970" points="870.3614,-44.5001 860.3614,-48 870.3614,-51.5001 870.3614,-44.5001"/>
</g>
<!-- Node79&#45;&gt;Node76 -->
<g id="edge13" class="edge">
<title>Node79&#45;&gt;Node76</title>
<path fill="none" stroke="#191970" d="M743.3993,-13.6496C838.8653,-17.6361 988.2293,-23.8733 1063.8062,-27.0293"/>
<polygon fill="#191970" stroke="#191970" points="743.3219,-10.1435 733.1845,-13.2231 743.0298,-17.1374 743.3219,-10.1435"/>
</g>
</g>
</svg>
