<?xml version="1.0" encoding="UTF-8" standalone="no"?>
<!DOCTYPE svg PUBLIC "-//W3C//DTD SVG 1.1//EN"
 "http://www.w3.org/Graphics/SVG/1.1/DTD/svg11.dtd">
<!-- Generated by graphviz version 2.39.20160927.1334 (20160927.1334)
 -->
<!-- Title: kmp_byte_stuff Pages: 1 -->
<svg width="1268pt" height="116pt"
 viewBox="0.00 0.00 1268.00 115.50" xmlns="http://www.w3.org/2000/svg" xmlns:xlink="http://www.w3.org/1999/xlink">
<g id="graph0" class="graph" transform="scale(1 1) rotate(0) translate(4 111.5)">
<title>kmp_byte_stuff</title>
<polygon fill="#ffffff" stroke="transparent" points="-4,4 -4,-111.5 1264,-111.5 1264,4 -4,4"/>
<!-- Node1 -->
<g id="node1" class="node">
<title>Node1</title>
<polygon fill="#bfbfbf" stroke="#000000" points="0,-41.5 0,-60.5 84,-60.5 84,-41.5 0,-41.5"/>
<text text-anchor="middle" x="42" y="-48.5" font-family="Helvetica,sans-Serif" font-size="10.00" fill="#000000">kmp_byte_stuff</text>
</g>
<!-- Node2 -->
<g id="node2" class="node">
<title>Node2</title>
<g id="a_node2"><a xlink:href="kmp_8h.html#aff9c217307fb9210d301ba14bc2b5707" target="_top" xlink:title="kmp_get_register">
<polygon fill="#ffffff" stroke="#000000" points="120,-79.5 120,-98.5 214,-98.5 214,-79.5 120,-79.5"/>
<text text-anchor="middle" x="167" y="-86.5" font-family="Helvetica,sans-Serif" font-size="10.00" fill="#000000">kmp_get_register</text>
</a>
</g>
</g>
<!-- Node1&#45;&gt;Node2 -->
<g id="edge1" class="edge">
<title>Node1&#45;&gt;Node2</title>
<path fill="none" stroke="#191970" d="M83.2345,-63.5353C100.239,-68.7048 119.629,-74.5991 135.467,-79.4141"/>
<polygon fill="#191970" stroke="#191970" points="84.1285,-60.149 73.5428,-60.589 82.0924,-66.8463 84.1285,-60.149"/>
</g>
<!-- Node12 -->
<g id="node12" class="node">
<title>Node12</title>
<g id="a_node12"><a xlink:href="kmp_8h.html#a4d6c33fbffbf96fd508400df943be676" target="_top" xlink:title="kmp_get_serial">
<polygon fill="#ffffff" stroke="#000000" points="125,-41.5 125,-60.5 209,-60.5 209,-41.5 125,-41.5"/>
<text text-anchor="middle" x="167" y="-48.5" font-family="Helvetica,sans-Serif" font-size="10.00" fill="#000000">kmp_get_serial</text>
</a>
</g>
</g>
<!-- Node1&#45;&gt;Node12 -->
<g id="edge13" class="edge">
<title>Node1&#45;&gt;Node12</title>
<path fill="none" stroke="#191970" d="M94.6154,-51C104.66,-51 115.054,-51 124.724,-51"/>
<polygon fill="#191970" stroke="#191970" points="94.3193,-47.5001 84.3193,-51 94.3193,-54.5001 94.3193,-47.5001"/>
</g>
<!-- Node14 -->
<g id="node14" class="node">
<title>Node14</title>
<g id="a_node14"><a xlink:href="kmp_8h.html#a8370089568397cfb3b14ca73f6a8ab5f" target="_top" xlink:title="kmp_get_type">
<polygon fill="#ffffff" stroke="#000000" points="127.5,-3.5 127.5,-22.5 206.5,-22.5 206.5,-3.5 127.5,-3.5"/>
<text text-anchor="middle" x="167" y="-10.5" font-family="Helvetica,sans-Serif" font-size="10.00" fill="#000000">kmp_get_type</text>
</a>
</g>
</g>
<!-- Node1&#45;&gt;Node14 -->
<g id="edge16" class="edge">
<title>Node1&#45;&gt;Node14</title>
<path fill="none" stroke="#191970" d="M83.2345,-38.4647C100.239,-33.2952 119.629,-27.4009 135.467,-22.5859"/>
<polygon fill="#191970" stroke="#191970" points="82.0924,-35.1537 73.5428,-41.411 84.1285,-41.851 82.0924,-35.1537"/>
</g>
<!-- Node3 -->
<g id="node3" class="node">
<title>Node3</title>
<g id="a_node3"><a xlink:href="kmp__request_8c.html#aeadc3768548ef2bed49c3f2fcaf57c20" target="_top" xlink:title="kmp_get_register_timer_func">
<polygon fill="#ffffff" stroke="#000000" points="250,-79.5 250,-98.5 396,-98.5 396,-79.5 250,-79.5"/>
<text text-anchor="middle" x="323" y="-86.5" font-family="Helvetica,sans-Serif" font-size="10.00" fill="#000000">kmp_get_register_timer_func</text>
</a>
</g>
</g>
<!-- Node2&#45;&gt;Node3 -->
<g id="edge2" class="edge">
<title>Node2&#45;&gt;Node3</title>
<path fill="none" stroke="#191970" d="M224.449,-89C232.68,-89 241.24,-89 249.726,-89"/>
<polygon fill="#191970" stroke="#191970" points="224.229,-85.5001 214.228,-89 224.228,-92.5001 224.229,-85.5001"/>
</g>
<!-- Node4 -->
<g id="node4" class="node">
<title>Node4</title>
<g id="a_node4"><a xlink:href="kmp__request_8h.html#a3b022dcdc832786eb06126b5e6879604" target="_top" xlink:title="kmp_request_send">
<polygon fill="#ffffff" stroke="#000000" points="432,-60.5 432,-79.5 534,-79.5 534,-60.5 432,-60.5"/>
<text text-anchor="middle" x="483" y="-67.5" font-family="Helvetica,sans-Serif" font-size="10.00" fill="#000000">kmp_request_send</text>
</a>
</g>
</g>
<!-- Node3&#45;&gt;Node4 -->
<g id="edge3" class="edge">
<title>Node3&#45;&gt;Node4</title>
<path fill="none" stroke="#191970" d="M406.587,-79.0741C415.226,-78.0482 423.809,-77.029 431.932,-76.0644"/>
<polygon fill="#191970" stroke="#191970" points="405.962,-75.6236 396.444,-80.2785 406.787,-82.5748 405.962,-75.6236"/>
</g>
<!-- Node5 -->
<g id="node5" class="node">
<title>Node5</title>
<g id="a_node5"><a xlink:href="kmp__request_8c.html#a0977a4640a97d389ac3b0fef0ba7a9b6" target="_top" xlink:title="kmp_receive_timeout\l_timer_func">
<polygon fill="#ffffff" stroke="#000000" points="570,-77 570,-107 682,-107 682,-77 570,-77"/>
<text text-anchor="start" x="578" y="-95" font-family="Helvetica,sans-Serif" font-size="10.00" fill="#000000">kmp_receive_timeout</text>
<text text-anchor="middle" x="626" y="-84" font-family="Helvetica,sans-Serif" font-size="10.00" fill="#000000">_timer_func</text>
</a>
</g>
</g>
<!-- Node4&#45;&gt;Node5 -->
<g id="edge4" class="edge">
<title>Node4&#45;&gt;Node5</title>
<path fill="none" stroke="#191970" d="M544.239,-72.7336C553.222,-74.0061 562.426,-75.4572 571.267,-76.9972"/>
<polygon fill="#191970" stroke="#191970" points="544.602,-69.2508 534.222,-71.3777 543.662,-76.1875 544.602,-69.2508"/>
</g>
<!-- Node6 -->
<g id="node6" class="node">
<title>Node6</title>
<g id="a_node6"><a xlink:href="user__main_8c.html#af2c051d5ceacd30f90c08d6f584deff2" target="_top" xlink:title="sample_timer_func">
<polygon fill="#ffffff" stroke="#000000" points="575.5,-38.5 575.5,-57.5 676.5,-57.5 676.5,-38.5 575.5,-38.5"/>
<text text-anchor="middle" x="626" y="-45.5" font-family="Helvetica,sans-Serif" font-size="10.00" fill="#000000">sample_timer_func</text>
</a>
</g>
</g>
<!-- Node4&#45;&gt;Node6 -->
<g id="edge6" class="edge">
<title>Node4&#45;&gt;Node6</title>
<path fill="none" stroke="#191970" d="M544.359,-60.5601C554.623,-58.9811 565.172,-57.3582 575.135,-55.8253"/>
<polygon fill="#191970" stroke="#191970" points="543.574,-57.1397 534.222,-62.1196 544.638,-64.0583 543.574,-57.1397"/>
</g>
<!-- Node11 -->
<g id="node11" class="node">
<title>Node11</title>
<g id="a_node11"><a xlink:href="user__main_8c.html#a3648c609e8dd286eb90285b08b150362" target="_top" xlink:title="kmp_request_send_timer_func">
<polygon fill="#ffffff" stroke="#000000" points="718,-0.5 718,-19.5 872,-19.5 872,-0.5 718,-0.5"/>
<text text-anchor="middle" x="795" y="-7.5" font-family="Helvetica,sans-Serif" font-size="10.00" fill="#000000">kmp_request_send_timer_func</text>
</a>
</g>
</g>
<!-- Node4&#45;&gt;Node11 -->
<g id="edge11" class="edge">
<title>Node4&#45;&gt;Node11</title>
<path fill="none" stroke="#191970" d="M507.874,-55.3535C524.798,-46.1345 548.027,-34.9 570,-29 618.083,-16.0894 673.833,-11.3125 717.809,-9.77649"/>
<polygon fill="#191970" stroke="#191970" points="505.711,-52.5534 498.696,-60.493 509.131,-58.661 505.711,-52.5534"/>
</g>
<!-- Node5&#45;&gt;Node4 -->
<g id="edge5" class="edge">
<title>Node5&#45;&gt;Node4</title>
<path fill="none" stroke="#191970" d="M559.631,-88.5239C542.04,-85.9238 524.032,-82.7124 509.897,-79.5495"/>
<polygon fill="#191970" stroke="#191970" points="559.515,-92.0424 569.907,-89.9791 560.497,-85.1115 559.515,-92.0424"/>
</g>
<!-- Node7 -->
<g id="node7" class="node">
<title>Node7</title>
<g id="a_node7"><a xlink:href="user__main_8h.html#a06f2b383d99fcad9d0f37d1ca2224898" target="_top" xlink:title="mqttConnectedCb">
<polygon fill="#ffffff" stroke="#000000" points="746.5,-38.5 746.5,-57.5 843.5,-57.5 843.5,-38.5 746.5,-38.5"/>
<text text-anchor="middle" x="795" y="-45.5" font-family="Helvetica,sans-Serif" font-size="10.00" fill="#000000">mqttConnectedCb</text>
</a>
</g>
</g>
<!-- Node6&#45;&gt;Node7 -->
<g id="edge7" class="edge">
<title>Node6&#45;&gt;Node7</title>
<path fill="none" stroke="#191970" d="M686.752,-48C706.335,-48 727.77,-48 746.361,-48"/>
<polygon fill="#191970" stroke="#191970" points="686.706,-44.5001 676.706,-48 686.706,-51.5001 686.706,-44.5001"/>
</g>
<!-- Node8 -->
<g id="node8" class="node">
<title>Node8</title>
<g id="a_node8"><a xlink:href="user__main_8c.html#a245ec00253f410a8804988bf40e1037e" target="_top" xlink:title="sample_mode_timer_func">
<polygon fill="#ffffff" stroke="#000000" points="908,-38.5 908,-57.5 1040,-57.5 1040,-38.5 908,-38.5"/>
<text text-anchor="middle" x="974" y="-45.5" font-family="Helvetica,sans-Serif" font-size="10.00" fill="#000000">sample_mode_timer_func</text>
</a>
</g>
</g>
<!-- Node7&#45;&gt;Node8 -->
<g id="edge8" class="edge">
<title>Node7&#45;&gt;Node8</title>
<path fill="none" stroke="#191970" d="M854.321,-48C871.426,-48 890.197,-48 907.697,-48"/>
<polygon fill="#191970" stroke="#191970" points="853.913,-44.5001 843.913,-48 853.913,-51.5001 853.913,-44.5001"/>
</g>
<!-- Node9 -->
<g id="node9" class="node">
<title>Node9</title>
<g id="a_node9"><a xlink:href="user__main_8h.html#a3671381db669a16e8f6a4bf3dfb9a441" target="_top" xlink:title="system_init_done">
<polygon fill="#ffffff" stroke="#000000" points="1076,-19.5 1076,-38.5 1170,-38.5 1170,-19.5 1076,-19.5"/>
<text text-anchor="middle" x="1123" y="-26.5" font-family="Helvetica,sans-Serif" font-size="10.00" fill="#000000">system_init_done</text>
</a>
</g>
</g>
<!-- Node8&#45;&gt;Node9 -->
<g id="edge9" class="edge">
<title>Node8&#45;&gt;Node9</title>
<path fill="none" stroke="#191970" d="M1050.36,-38.2627C1059.01,-37.1599 1067.62,-36.0614 1075.74,-35.0266"/>
<polygon fill="#191970" stroke="#191970" points="1049.7,-34.8188 1040.22,-39.5557 1050.58,-41.7626 1049.7,-34.8188"/>
</g>
<!-- Node10 -->
<g id="node10" class="node">
<title>Node10</title>
<g id="a_node10"><a xlink:href="user__main_8h.html#a33113d6dedb440bd7dfa5576e325140c" target="_top" xlink:title="user_init">
<polygon fill="#ffffff" stroke="#000000" points="1206,-19.5 1206,-38.5 1260,-38.5 1260,-19.5 1206,-19.5"/>
<text text-anchor="middle" x="1233" y="-26.5" font-family="Helvetica,sans-Serif" font-size="10.00" fill="#000000">user_init</text>
</a>
</g>
</g>
<!-- Node9&#45;&gt;Node10 -->
<g id="edge10" class="edge">
<title>Node9&#45;&gt;Node10</title>
<path fill="none" stroke="#191970" d="M1180.29,-29C1189.16,-29 1197.95,-29 1205.74,-29"/>
<polygon fill="#191970" stroke="#191970" points="1180.29,-25.5001 1170.29,-29 1180.29,-32.5001 1180.29,-25.5001"/>
</g>
<!-- Node11&#45;&gt;Node9 -->
<g id="edge12" class="edge">
<title>Node11&#45;&gt;Node9</title>
<path fill="none" stroke="#191970" d="M882.486,-15.0678C944.474,-18.6586 1025.26,-23.3383 1075.63,-26.256"/>
<polygon fill="#191970" stroke="#191970" points="882.502,-11.5629 872.316,-14.4787 882.097,-18.5512 882.502,-11.5629"/>
</g>
<!-- Node13 -->
<g id="node13" class="node">
<title>Node13</title>
<g id="a_node13"><a xlink:href="kmp__request_8c.html#a7e59cff48c3c08aed48914a3a843d4b8" target="_top" xlink:title="kmp_get_serial_timer_func">
<polygon fill="#ffffff" stroke="#000000" points="254.5,-41.5 254.5,-60.5 391.5,-60.5 391.5,-41.5 254.5,-41.5"/>
<text text-anchor="middle" x="323" y="-48.5" font-family="Helvetica,sans-Serif" font-size="10.00" fill="#000000">kmp_get_serial_timer_func</text>
</a>
</g>
</g>
<!-- Node12&#45;&gt;Node13 -->
<g id="edge14" class="edge">
<title>Node12&#45;&gt;Node13</title>
<path fill="none" stroke="#191970" d="M219.274,-51C230.506,-51 242.539,-51 254.287,-51"/>
<polygon fill="#191970" stroke="#191970" points="219.216,-47.5001 209.216,-51 219.216,-54.5001 219.216,-47.5001"/>
</g>
<!-- Node13&#45;&gt;Node4 -->
<g id="edge15" class="edge">
<title>Node13&#45;&gt;Node4</title>
<path fill="none" stroke="#191970" d="M401.876,-60.3665C412.001,-61.5688 422.149,-62.774 431.673,-63.905"/>
<polygon fill="#191970" stroke="#191970" points="402.126,-56.8717 391.783,-59.168 401.3,-63.8229 402.126,-56.8717"/>
</g>
</g>
</svg>
