<?xml version="1.0" encoding="UTF-8" standalone="no"?>
<!DOCTYPE svg PUBLIC "-//W3C//DTD SVG 1.1//EN"
 "http://www.w3.org/Graphics/SVG/1.1/DTD/svg11.dtd">
<!-- Generated by graphviz version 2.41.20170323.1842 (20170323.1842)
 -->
<!-- Title: user/kamstrup/kmp_request.h Pages: 1 -->
<svg width="363pt" height="95pt"
 viewBox="0.00 0.00 363.00 95.00" xmlns="http://www.w3.org/2000/svg" xmlns:xlink="http://www.w3.org/1999/xlink">
<g id="graph0" class="graph" transform="scale(1 1) rotate(0) translate(4 91)">
<title>user/kamstrup/kmp_request.h</title>
<polygon fill="#ffffff" stroke="transparent" points="-4,4 -4,-91 359,-91 359,4 -4,4"/>
<!-- Node33 -->
<g id="node1" class="node">
<title>Node33</title>
<polygon fill="#bfbfbf" stroke="#000000" points="87,-67.5 87,-86.5 236,-86.5 236,-67.5 87,-67.5"/>
<text text-anchor="middle" x="161.5" y="-74.5" font-family="Helvetica,sans-Serif" font-size="10.00" fill="#000000">user/kamstrup/kmp_request.h</text>
</g>
<!-- Node34 -->
<g id="node2" class="node">
<title>Node34</title>
<g id="a_node2"><a xlink:href="uart_8c.html" target="_top" xlink:title="driver/uart.c">
<polygon fill="#ffffff" stroke="#000000" points="0,-6 0,-25 69,-25 69,-6 0,-6"/>
<text text-anchor="middle" x="34.5" y="-13" font-family="Helvetica,sans-Serif" font-size="10.00" fill="#000000">driver/uart.c</text>
</a>
</g>
</g>
<!-- Node33&#45;&gt;Node34 -->
<g id="edge1" class="edge">
<title>Node33&#45;&gt;Node34</title>
<path fill="none" stroke="#191970" d="M132.3443,-62.8813C108.3937,-51.2832 75.1195,-35.1701 54.2044,-25.0419"/>
<polygon fill="#191970" stroke="#191970" points="131.1305,-66.1823 141.6563,-67.3906 134.1814,-59.8821 131.1305,-66.1823"/>
</g>
<!-- Node35 -->
<g id="node3" class="node">
<title>Node35</title>
<g id="a_node3"><a xlink:href="kmp__request_8c.html" target="_top" xlink:title="user/kamstrup/kmp_request.c">
<polygon fill="#ffffff" stroke="#000000" points="87.5,-6 87.5,-25 235.5,-25 235.5,-6 87.5,-6"/>
<text text-anchor="middle" x="161.5" y="-13" font-family="Helvetica,sans-Serif" font-size="10.00" fill="#000000">user/kamstrup/kmp_request.c</text>
</a>
</g>
</g>
<!-- Node33&#45;&gt;Node35 -->
<g id="edge2" class="edge">
<title>Node33&#45;&gt;Node35</title>
<path fill="none" stroke="#191970" d="M161.5,-57.2462C161.5,-46.5519 161.5,-33.814 161.5,-25.2449"/>
<polygon fill="#191970" stroke="#191970" points="158.0001,-57.3906 161.5,-67.3906 165.0001,-57.3907 158.0001,-57.3906"/>
</g>
<!-- Node36 -->
<g id="node4" class="node">
<title>Node36</title>
<g id="a_node4"><a xlink:href="esp-open-sdk_2esp-open-lwip_2user_2user__main_8c.html" target="_top" xlink:title="esp&#45;open&#45;lwip/user\l/user_main.c">
<polygon fill="#ffffff" stroke="#000000" points="254,-.5 254,-30.5 355,-30.5 355,-.5 254,-.5"/>
<text text-anchor="start" x="262" y="-18.5" font-family="Helvetica,sans-Serif" font-size="10.00" fill="#000000">esp&#45;open&#45;lwip/user</text>
<text text-anchor="middle" x="304.5" y="-7.5" font-family="Helvetica,sans-Serif" font-size="10.00" fill="#000000">/user_main.c</text>
</a>
</g>
</g>
<!-- Node33&#45;&gt;Node36 -->
<g id="edge3" class="edge">
<title>Node33&#45;&gt;Node36</title>
<path fill="none" stroke="#191970" d="M193.3182,-63.316C215.9125,-53.5988 246.2439,-40.5542 269.5183,-30.5446"/>
<polygon fill="#191970" stroke="#191970" points="191.6474,-60.2245 183.8438,-67.3906 194.413,-66.655 191.6474,-60.2245"/>
</g>
</g>
</svg>
