<?xml version="1.0" encoding="UTF-8" standalone="no"?>
<!DOCTYPE svg PUBLIC "-//W3C//DTD SVG 1.1//EN"
 "http://www.w3.org/Graphics/SVG/1.1/DTD/svg11.dtd">
<!-- Generated by graphviz version 2.40.1 (20161225.0304)
 -->
<!-- Title: kmp_get_received_serial Pages: 1 -->
<svg width="826pt" height="180pt"
 viewBox="0.00 0.00 826.00 180.00" xmlns="http://www.w3.org/2000/svg" xmlns:xlink="http://www.w3.org/1999/xlink">
<g id="graph0" class="graph" transform="scale(1 1) rotate(0) translate(4 176)">
<title>kmp_get_received_serial</title>
<polygon fill="#ffffff" stroke="transparent" points="-4,4 -4,-176 822,-176 822,4 -4,4"/>
<!-- Node28 -->
<g id="node1" class="node">
<title>Node28</title>
<polygon fill="#bfbfbf" stroke="#000000" points="0,-57.5 0,-76.5 128,-76.5 128,-57.5 0,-57.5"/>
<text text-anchor="middle" x="64" y="-64.5" font-family="Helvetica,sans-Serif" font-size="10.00" fill="#000000">kmp_get_received_serial</text>
</g>
<!-- Node29 -->
<g id="node2" class="node">
<title>Node29</title>
<g id="a_node2"><a xlink:href="_meter_logger_2user_2user__main_8c.html#aca4c3403260c8a02d8a445795842f53e" target="_top" xlink:title="config_mode_timer_func">
<polygon fill="#ffffff" stroke="#000000" points="304,-152.5 304,-171.5 430,-171.5 430,-152.5 304,-152.5"/>
<text text-anchor="middle" x="367" y="-159.5" font-family="Helvetica,sans-Serif" font-size="10.00" fill="#000000">config_mode_timer_func</text>
</a>
</g>
</g>
<!-- Node28&#45;&gt;Node29 -->
<g id="edge1" class="edge">
<title>Node28&#45;&gt;Node29</title>
<path fill="none" stroke="#191970" d="M96.535,-80.2078C115.9631,-87.8824 141.2152,-97.4887 164,-105 221.0156,-123.7959 288.2912,-141.9024 329.282,-152.4889"/>
<polygon fill="#191970" stroke="#191970" points="97.812,-76.949 87.2266,-76.5027 95.2233,-83.4528 97.812,-76.949"/>
</g>
<!-- Node32 -->
<g id="node5" class="node">
<title>Node32</title>
<g id="a_node5"><a xlink:href="user__main_8h.html#ad6eb800c4d7f9c79df52949d88a18d06" target="_top" xlink:title="mqtt_connected_cb">
<polygon fill="#ffffff" stroke="#000000" points="164,-76.5 164,-95.5 268,-95.5 268,-76.5 164,-76.5"/>
<text text-anchor="middle" x="216" y="-83.5" font-family="Helvetica,sans-Serif" font-size="10.00" fill="#000000">mqtt_connected_cb</text>
</a>
</g>
</g>
<!-- Node28&#45;&gt;Node32 -->
<g id="edge4" class="edge">
<title>Node28&#45;&gt;Node32</title>
<path fill="none" stroke="#191970" d="M138.0838,-76.2605C146.6912,-77.3364 155.3313,-78.4164 163.5622,-79.4453"/>
<polygon fill="#191970" stroke="#191970" points="138.3781,-72.7701 128.0211,-75.0026 137.5098,-79.716 138.3781,-72.7701"/>
</g>
<!-- Node33 -->
<g id="node6" class="node">
<title>Node33</title>
<g id="a_node6"><a xlink:href="_meter_logger_2user_2user__main_8c.html#a245ec00253f410a8804988bf40e1037e" target="_top" xlink:title="sample_mode_timer_func">
<polygon fill="#ffffff" stroke="#000000" points="466,-76.5 466,-95.5 598,-95.5 598,-76.5 466,-76.5"/>
<text text-anchor="middle" x="532" y="-83.5" font-family="Helvetica,sans-Serif" font-size="10.00" fill="#000000">sample_mode_timer_func</text>
</a>
</g>
</g>
<!-- Node28&#45;&gt;Node33 -->
<g id="edge11" class="edge">
<title>Node28&#45;&gt;Node33</title>
<path fill="none" stroke="#191970" d="M138.4599,-62.9999C212.5443,-59.9605 329.3838,-57.7088 430,-67 450.089,-68.8551 472.1236,-72.7237 490.5562,-76.4889"/>
<polygon fill="#191970" stroke="#191970" points="138.1381,-59.5103 128.2961,-63.4329 138.4361,-66.504 138.1381,-59.5103"/>
</g>
<!-- Node35 -->
<g id="node8" class="node">
<title>Node35</title>
<g id="a_node8"><a xlink:href="user__main_8h.html#a6e5f80dd3fa3d07976a27c859e1aaadf" target="_top" xlink:title="mqtt_data_cb">
<polygon fill="#ffffff" stroke="#000000" points="177.5,-.5 177.5,-19.5 254.5,-19.5 254.5,-.5 177.5,-.5"/>
<text text-anchor="middle" x="216" y="-7.5" font-family="Helvetica,sans-Serif" font-size="10.00" fill="#000000">mqtt_data_cb</text>
</a>
</g>
</g>
<!-- Node28&#45;&gt;Node35 -->
<g id="edge9" class="edge">
<title>Node28&#45;&gt;Node35</title>
<path fill="none" stroke="#191970" d="M98.8413,-53.9345C126.7807,-43.4572 165.3469,-28.9949 190.4756,-19.5716"/>
<polygon fill="#191970" stroke="#191970" points="97.5757,-50.671 89.4414,-57.4595 100.0336,-57.2253 97.5757,-50.671"/>
</g>
<!-- Node30 -->
<g id="node3" class="node">
<title>Node30</title>
<g id="a_node3"><a xlink:href="user__main_8h.html#a3671381db669a16e8f6a4bf3dfb9a441" target="_top" xlink:title="system_init_done">
<polygon fill="#ffffff" stroke="#000000" points="634,-95.5 634,-114.5 728,-114.5 728,-95.5 634,-95.5"/>
<text text-anchor="middle" x="681" y="-102.5" font-family="Helvetica,sans-Serif" font-size="10.00" fill="#000000">system_init_done</text>
</a>
</g>
</g>
<!-- Node29&#45;&gt;Node30 -->
<g id="edge2" class="edge">
<title>Node29&#45;&gt;Node30</title>
<path fill="none" stroke="#191970" d="M429.7015,-150.6179C489.9291,-139.6848 579.5679,-123.4128 633.9234,-113.5458"/>
<polygon fill="#191970" stroke="#191970" points="428.7706,-147.2296 419.5565,-152.4595 430.0209,-154.117 428.7706,-147.2296"/>
</g>
<!-- Node31 -->
<g id="node4" class="node">
<title>Node31</title>
<g id="a_node4"><a xlink:href="user__main_8h.html#a33113d6dedb440bd7dfa5576e325140c" target="_top" xlink:title="user_init">
<polygon fill="#ffffff" stroke="#000000" points="764,-95.5 764,-114.5 818,-114.5 818,-95.5 764,-95.5"/>
<text text-anchor="middle" x="791" y="-102.5" font-family="Helvetica,sans-Serif" font-size="10.00" fill="#000000">user_init</text>
</a>
</g>
</g>
<!-- Node30&#45;&gt;Node31 -->
<g id="edge3" class="edge">
<title>Node30&#45;&gt;Node31</title>
<path fill="none" stroke="#191970" d="M738.2886,-105C747.1598,-105 755.9515,-105 763.7383,-105"/>
<polygon fill="#191970" stroke="#191970" points="738.2883,-101.5001 728.2883,-105 738.2882,-108.5001 738.2883,-101.5001"/>
</g>
<!-- Node32&#45;&gt;Node33 -->
<g id="edge5" class="edge">
<title>Node32&#45;&gt;Node33</title>
<path fill="none" stroke="#191970" d="M261.7147,-97.7979C275.234,-100.7621 290.1292,-103.5196 304,-105 359.6838,-110.9428 374.2372,-110.1493 430,-105 450.089,-103.1449 472.1236,-99.2763 490.5562,-95.5111"/>
<polygon fill="#191970" stroke="#191970" points="262.2125,-94.3216 251.6844,-95.5086 260.6549,-101.1461 262.2125,-94.3216"/>
</g>
<!-- Node34 -->
<g id="node7" class="node">
<title>Node34</title>
<g id="a_node7"><a xlink:href="user__main_8h.html#a7a3bf0cc09d98adc72f4e34d26ce3fa1" target="_top" xlink:title="wifi_changed_cb">
<polygon fill="#ffffff" stroke="#000000" points="321.5,-76.5 321.5,-95.5 412.5,-95.5 412.5,-76.5 321.5,-76.5"/>
<text text-anchor="middle" x="367" y="-83.5" font-family="Helvetica,sans-Serif" font-size="10.00" fill="#000000">wifi_changed_cb</text>
</a>
</g>
</g>
<!-- Node32&#45;&gt;Node34 -->
<g id="edge7" class="edge">
<title>Node32&#45;&gt;Node34</title>
<path fill="none" stroke="#191970" d="M278.6431,-86C292.9208,-86 307.8307,-86 321.2484,-86"/>
<polygon fill="#191970" stroke="#191970" points="278.3887,-82.5001 268.3887,-86 278.3887,-89.5001 278.3887,-82.5001"/>
</g>
<!-- Node33&#45;&gt;Node30 -->
<g id="edge6" class="edge">
<title>Node33&#45;&gt;Node30</title>
<path fill="none" stroke="#191970" d="M608.361,-95.7373C617.0092,-96.8401 625.624,-97.9386 633.7387,-98.9734"/>
<polygon fill="#191970" stroke="#191970" points="608.5837,-92.2374 598.2213,-94.4443 607.6982,-99.1812 608.5837,-92.2374"/>
</g>
<!-- Node34&#45;&gt;Node33 -->
<g id="edge8" class="edge">
<title>Node34&#45;&gt;Node33</title>
<path fill="none" stroke="#191970" d="M422.858,-86C436.6966,-86 451.6557,-86 465.9307,-86"/>
<polygon fill="#191970" stroke="#191970" points="422.5238,-82.5001 412.5238,-86 422.5237,-89.5001 422.5238,-82.5001"/>
</g>
<!-- Node35&#45;&gt;Node33 -->
<g id="edge10" class="edge">
<title>Node35&#45;&gt;Node33</title>
<path fill="none" stroke="#191970" d="M264.8591,-10.5221C308.8909,-12.1488 374.9707,-17.4843 430,-34 463.1258,-43.9419 498.3427,-64.3917 517.5048,-76.4724"/>
<polygon fill="#191970" stroke="#191970" points="264.8179,-7.0191 254.7114,-10.1985 264.5947,-14.0155 264.8179,-7.0191"/>
</g>
</g>
</svg>
