<?xml version="1.0" encoding="UTF-8" standalone="no"?>
<!DOCTYPE svg PUBLIC "-//W3C//DTD SVG 1.1//EN"
 "http://www.w3.org/Graphics/SVG/1.1/DTD/svg11.dtd">
<!-- Generated by graphviz version 2.41.20170323.1842 (20170323.1842)
 -->
<!-- Title: led_pattern_a Pages: 1 -->
<svg width="1075pt" height="256pt"
 viewBox="0.00 0.00 1075.00 256.00" xmlns="http://www.w3.org/2000/svg" xmlns:xlink="http://www.w3.org/1999/xlink">
<g id="graph0" class="graph" transform="scale(1 1) rotate(0) translate(4 252)">
<title>led_pattern_a</title>
<polygon fill="#ffffff" stroke="transparent" points="-4,4 -4,-252 1071,-252 1071,4 -4,4"/>
<!-- Node112 -->
<g id="node1" class="node">
<title>Node112</title>
<polygon fill="#bfbfbf" stroke="#000000" points="0,-152.5 0,-171.5 78,-171.5 78,-152.5 0,-152.5"/>
<text text-anchor="middle" x="39" y="-159.5" font-family="Helvetica,sans-Serif" font-size="10.00" fill="#000000">led_pattern_a</text>
</g>
<!-- Node113 -->
<g id="node2" class="node">
<title>Node113</title>
<g id="a_node2"><a xlink:href="ac__out_8h.html#aa17a09f7811a797293e31a39906ec1b0" target="_top" xlink:title="ac_motor_valve_open">
<polygon fill="#ffffff" stroke="#000000" points="114,-228.5 114,-247.5 229,-247.5 229,-228.5 114,-228.5"/>
<text text-anchor="middle" x="171.5" y="-235.5" font-family="Helvetica,sans-Serif" font-size="10.00" fill="#000000">ac_motor_valve_open</text>
</a>
</g>
</g>
<!-- Node112&#45;&gt;Node113 -->
<g id="edge1" class="edge">
<title>Node112&#45;&gt;Node113</title>
<path fill="none" stroke="#191970" d="M57.1019,-178.5088C71.6082,-191.03 92.9498,-207.9202 114,-219 120.9776,-222.6727 128.802,-225.8242 136.3782,-228.4446"/>
<polygon fill="#191970" stroke="#191970" points="59.219,-175.7092 49.4045,-171.7184 54.5881,-180.9586 59.219,-175.7092"/>
</g>
<!-- Node114 -->
<g id="node3" class="node">
<title>Node114</title>
<g id="a_node3"><a xlink:href="ac__out_8h.html#ad511e0e9abde1a9313a1843cef50f82a" target="_top" xlink:title="ac_test">
<polygon fill="#ffffff" stroke="#000000" points="295.5,-152.5 295.5,-171.5 344.5,-171.5 344.5,-152.5 295.5,-152.5"/>
<text text-anchor="middle" x="320" y="-159.5" font-family="Helvetica,sans-Serif" font-size="10.00" fill="#000000">ac_test</text>
</a>
</g>
</g>
<!-- Node112&#45;&gt;Node114 -->
<g id="edge2" class="edge">
<title>Node112&#45;&gt;Node114</title>
<path fill="none" stroke="#191970" d="M88.1582,-162C148.6894,-162 249.1438,-162 295.3555,-162"/>
<polygon fill="#191970" stroke="#191970" points="88.0719,-158.5001 78.0718,-162 88.0718,-165.5001 88.0719,-158.5001"/>
</g>
<!-- Node121 -->
<g id="node10" class="node">
<title>Node121</title>
<g id="a_node10"><a xlink:href="ac__out_8c.html#aa4f3e08453187a0500d0e5441274c7a1" target="_top" xlink:title="ac_test_timer_func">
<polygon fill="#ffffff" stroke="#000000" points="121,-190.5 121,-209.5 222,-209.5 222,-190.5 121,-190.5"/>
<text text-anchor="middle" x="171.5" y="-197.5" font-family="Helvetica,sans-Serif" font-size="10.00" fill="#000000">ac_test_timer_func</text>
</a>
</g>
</g>
<!-- Node112&#45;&gt;Node121 -->
<g id="edge10" class="edge">
<title>Node112&#45;&gt;Node121</title>
<path fill="none" stroke="#191970" d="M82.2039,-174.3906C100.3492,-179.5945 121.1294,-185.5541 138.0754,-190.4141"/>
<polygon fill="#191970" stroke="#191970" points="83.0127,-170.9815 72.4353,-171.589 81.0829,-177.7102 83.0127,-170.9815"/>
</g>
<!-- Node122 -->
<g id="node11" class="node">
<title>Node122</title>
<g id="a_node11"><a xlink:href="ac__out_8h.html#a3bc674b019d5e2e4d15e7abe7c69029f" target="_top" xlink:title="ac_thermo_close">
<polygon fill="#ffffff" stroke="#000000" points="273.5,-114.5 273.5,-133.5 366.5,-133.5 366.5,-114.5 273.5,-114.5"/>
<text text-anchor="middle" x="320" y="-121.5" font-family="Helvetica,sans-Serif" font-size="10.00" fill="#000000">ac_thermo_close</text>
</a>
</g>
</g>
<!-- Node112&#45;&gt;Node122 -->
<g id="edge12" class="edge">
<title>Node112&#45;&gt;Node122</title>
<path fill="none" stroke="#191970" d="M88.0889,-155.3616C140.2434,-148.3087 222.0925,-137.2402 273.3127,-130.3136"/>
<polygon fill="#191970" stroke="#191970" points="87.5126,-151.9076 78.0718,-156.7163 88.4507,-158.8445 87.5126,-151.9076"/>
</g>
<!-- Node123 -->
<g id="node12" class="node">
<title>Node123</title>
<g id="a_node12"><a xlink:href="wifi_8c.html#a1ef15ecd9e69811f6db10215c7196281" target="_top" xlink:title="wifi_scan_done_cb">
<polygon fill="#ffffff" stroke="#000000" points="120.5,-76.5 120.5,-95.5 222.5,-95.5 222.5,-76.5 120.5,-76.5"/>
<text text-anchor="middle" x="171.5" y="-83.5" font-family="Helvetica,sans-Serif" font-size="10.00" fill="#000000">wifi_scan_done_cb</text>
</a>
</g>
</g>
<!-- Node112&#45;&gt;Node123 -->
<g id="edge16" class="edge">
<title>Node112&#45;&gt;Node123</title>
<path fill="none" stroke="#191970" d="M59.5326,-145.9993C74.1935,-135.0222 94.6638,-120.5841 114,-110 123.9633,-104.5464 135.4266,-99.529 145.4835,-95.5074"/>
<polygon fill="#191970" stroke="#191970" points="57.0592,-143.483 51.2169,-152.3215 61.2958,-149.0554 57.0592,-143.483"/>
</g>
<!-- Node115 -->
<g id="node4" class="node">
<title>Node115</title>
<g id="a_node4"><a xlink:href="cron_8c.html#a2782af03df9b913cfa565a0770e1afe1" target="_top" xlink:title="minute_timer_func">
<polygon fill="#ffffff" stroke="#000000" points="411,-152.5 411,-171.5 510,-171.5 510,-152.5 411,-152.5"/>
<text text-anchor="middle" x="460.5" y="-159.5" font-family="Helvetica,sans-Serif" font-size="10.00" fill="#000000">minute_timer_func</text>
</a>
</g>
</g>
<!-- Node114&#45;&gt;Node115 -->
<g id="edge3" class="edge">
<title>Node114&#45;&gt;Node115</title>
<path fill="none" stroke="#191970" d="M354.8044,-162C371.7363,-162 392.3907,-162 410.9341,-162"/>
<polygon fill="#191970" stroke="#191970" points="354.7952,-158.5001 344.7952,-162 354.7951,-165.5001 354.7952,-158.5001"/>
</g>
<!-- Node118 -->
<g id="node7" class="node">
<title>Node118</title>
<g id="a_node7"><a xlink:href="user__main_8h.html#a6e5f80dd3fa3d07976a27c859e1aaadf" target="_top" xlink:title="mqtt_data_cb">
<polygon fill="#ffffff" stroke="#000000" points="422,-114.5 422,-133.5 499,-133.5 499,-114.5 422,-114.5"/>
<text text-anchor="middle" x="460.5" y="-121.5" font-family="Helvetica,sans-Serif" font-size="10.00" fill="#000000">mqtt_data_cb</text>
</a>
</g>
</g>
<!-- Node114&#45;&gt;Node118 -->
<g id="edge6" class="edge">
<title>Node114&#45;&gt;Node118</title>
<path fill="none" stroke="#191970" d="M354.4919,-152.6712C375.9641,-146.8638 403.5137,-139.4127 425.1458,-133.562"/>
<polygon fill="#191970" stroke="#191970" points="353.5345,-149.3043 344.7952,-155.2938 355.3621,-156.0616 353.5345,-149.3043"/>
</g>
<!-- Node116 -->
<g id="node5" class="node">
<title>Node116</title>
<g id="a_node5"><a xlink:href="cron_8h.html#ae130c5973bad35b56776750c7a34db12" target="_top" xlink:title="cron_init">
<polygon fill="#ffffff" stroke="#000000" points="754,-142.5 754,-161.5 808,-161.5 808,-142.5 754,-142.5"/>
<text text-anchor="middle" x="781" y="-149.5" font-family="Helvetica,sans-Serif" font-size="10.00" fill="#000000">cron_init</text>
</a>
</g>
</g>
<!-- Node115&#45;&gt;Node116 -->
<g id="edge4" class="edge">
<title>Node115&#45;&gt;Node116</title>
<path fill="none" stroke="#191970" d="M520.6337,-160.1238C590.475,-157.9446 702.6427,-154.4448 753.8849,-152.846"/>
<polygon fill="#191970" stroke="#191970" points="520.1124,-156.6382 510.2265,-160.4485 520.3308,-163.6348 520.1124,-156.6382"/>
</g>
<!-- Node117 -->
<g id="node6" class="node">
<title>Node117</title>
<g id="a_node6"><a xlink:href="user__main_8h.html#a33113d6dedb440bd7dfa5576e325140c" target="_top" xlink:title="user_init">
<polygon fill="#ffffff" stroke="#000000" points="1013,-57.5 1013,-76.5 1067,-76.5 1067,-57.5 1013,-57.5"/>
<text text-anchor="middle" x="1040" y="-64.5" font-family="Helvetica,sans-Serif" font-size="10.00" fill="#000000">user_init</text>
</a>
</g>
</g>
<!-- Node116&#45;&gt;Node117 -->
<g id="edge5" class="edge">
<title>Node116&#45;&gt;Node117</title>
<path fill="none" stroke="#191970" d="M818.0836,-144.749C858.088,-136.3349 923.2736,-120.8955 977,-100 993.6858,-93.5105 1011.6812,-83.7854 1024.1495,-76.5721"/>
<polygon fill="#191970" stroke="#191970" points="817.3175,-141.3333 808.2333,-146.7856 818.7348,-148.1883 817.3175,-141.3333"/>
</g>
<!-- Node119 -->
<g id="node8" class="node">
<title>Node119</title>
<g id="a_node8"><a xlink:href="user__main_8c.html#a245ec00253f410a8804988bf40e1037e" target="_top" xlink:title="sample_mode_timer_func">
<polygon fill="#ffffff" stroke="#000000" points="715,-38.5 715,-57.5 847,-57.5 847,-38.5 715,-38.5"/>
<text text-anchor="middle" x="781" y="-45.5" font-family="Helvetica,sans-Serif" font-size="10.00" fill="#000000">sample_mode_timer_func</text>
</a>
</g>
</g>
<!-- Node118&#45;&gt;Node119 -->
<g id="edge7" class="edge">
<title>Node118&#45;&gt;Node119</title>
<path fill="none" stroke="#191970" d="M508.8961,-112.5239C572.1333,-97.5284 681.7315,-71.5395 740.6912,-57.5584"/>
<polygon fill="#191970" stroke="#191970" points="508.0824,-109.1197 499.1598,-114.8326 509.6976,-115.9308 508.0824,-109.1197"/>
</g>
<!-- Node120 -->
<g id="node9" class="node">
<title>Node120</title>
<g id="a_node9"><a xlink:href="user__main_8h.html#a3671381db669a16e8f6a4bf3dfb9a441" target="_top" xlink:title="system_init_done">
<polygon fill="#ffffff" stroke="#000000" points="883,-38.5 883,-57.5 977,-57.5 977,-38.5 883,-38.5"/>
<text text-anchor="middle" x="930" y="-45.5" font-family="Helvetica,sans-Serif" font-size="10.00" fill="#000000">system_init_done</text>
</a>
</g>
</g>
<!-- Node119&#45;&gt;Node120 -->
<g id="edge8" class="edge">
<title>Node119&#45;&gt;Node120</title>
<path fill="none" stroke="#191970" d="M857.361,-48C866.0092,-48 874.624,-48 882.7387,-48"/>
<polygon fill="#191970" stroke="#191970" points="857.2213,-44.5001 847.2213,-48 857.2212,-51.5001 857.2213,-44.5001"/>
</g>
<!-- Node120&#45;&gt;Node117 -->
<g id="edge9" class="edge">
<title>Node120&#45;&gt;Node117</title>
<path fill="none" stroke="#191970" d="M987.2886,-57.8953C996.1598,-59.4276 1004.9515,-60.9462 1012.7383,-62.2912"/>
<polygon fill="#191970" stroke="#191970" points="987.7381,-54.4212 977.2883,-56.168 986.5466,-61.3191 987.7381,-54.4212"/>
</g>
<!-- Node121&#45;&gt;Node114 -->
<g id="edge11" class="edge">
<title>Node121&#45;&gt;Node114</title>
<path fill="none" stroke="#191970" d="M218.7814,-187.9011C244.1405,-181.4119 274.3566,-173.6798 295.134,-168.363"/>
<polygon fill="#191970" stroke="#191970" points="217.793,-184.5411 208.9728,-190.411 219.5284,-191.3226 217.793,-184.5411"/>
</g>
<!-- Node122&#45;&gt;Node115 -->
<g id="edge13" class="edge">
<title>Node122&#45;&gt;Node115</title>
<path fill="none" stroke="#191970" d="M365.2787,-136.2462C384.6449,-141.484 406.9218,-147.5091 425.0573,-152.4141"/>
<polygon fill="#191970" stroke="#191970" points="366.0211,-132.8213 355.4541,-133.589 364.1934,-139.5785 366.0211,-132.8213"/>
</g>
<!-- Node122&#45;&gt;Node117 -->
<g id="edge15" class="edge">
<title>Node122&#45;&gt;Node117</title>
<path fill="none" stroke="#191970" d="M371.1824,-112.2671C384.1236,-109.5894 398.0302,-106.9592 411,-105 499.9437,-91.5643 522.5472,-86 612.5,-86 612.5,-86 612.5,-86 781,-86 865.7619,-86 965.7102,-75.7532 1012.8272,-70.3095"/>
<polygon fill="#191970" stroke="#191970" points="370.1053,-108.9175 361.047,-114.4129 371.5551,-115.7657 370.1053,-108.9175"/>
</g>
<!-- Node122&#45;&gt;Node118 -->
<g id="edge14" class="edge">
<title>Node122&#45;&gt;Node118</title>
<path fill="none" stroke="#191970" d="M377.0486,-124C392.1203,-124 408.0331,-124 421.8754,-124"/>
<polygon fill="#191970" stroke="#191970" points="376.7845,-120.5001 366.7845,-124 376.7844,-127.5001 376.7845,-120.5001"/>
</g>
<!-- Node124 -->
<g id="node13" class="node">
<title>Node124</title>
<g id="a_node13"><a xlink:href="wifi_8c.html#ae7011f25db54676b86fefe2caa450a4a" target="_top" xlink:title="wifi_scan_timer_func">
<polygon fill="#ffffff" stroke="#000000" points="265,-76.5 265,-95.5 375,-95.5 375,-76.5 265,-76.5"/>
<text text-anchor="middle" x="320" y="-83.5" font-family="Helvetica,sans-Serif" font-size="10.00" fill="#000000">wifi_scan_timer_func</text>
</a>
</g>
</g>
<!-- Node123&#45;&gt;Node124 -->
<g id="edge17" class="edge">
<title>Node123&#45;&gt;Node124</title>
<path fill="none" stroke="#191970" d="M232.7159,-86C243.4119,-86 254.4805,-86 264.9959,-86"/>
<polygon fill="#191970" stroke="#191970" points="232.6053,-82.5001 222.6053,-86 232.6052,-89.5001 232.6053,-82.5001"/>
</g>
<!-- Node125 -->
<g id="node14" class="node">
<title>Node125</title>
<g id="a_node14"><a xlink:href="wifi_8c.html#a5831b420da0012d53c979c375714d382" target="_top" xlink:title="wifi_start_scan">
<polygon fill="#ffffff" stroke="#000000" points="419,-38.5 419,-57.5 502,-57.5 502,-38.5 419,-38.5"/>
<text text-anchor="middle" x="460.5" y="-45.5" font-family="Helvetica,sans-Serif" font-size="10.00" fill="#000000">wifi_start_scan</text>
</a>
</g>
</g>
<!-- Node124&#45;&gt;Node125 -->
<g id="edge18" class="edge">
<title>Node124&#45;&gt;Node125</title>
<path fill="none" stroke="#191970" d="M365.2787,-73.7538C384.6449,-68.516 406.9218,-62.4909 425.0573,-57.5859"/>
<polygon fill="#191970" stroke="#191970" points="364.1934,-70.4215 355.4541,-76.411 366.0211,-77.1787 364.1934,-70.4215"/>
</g>
<!-- Node125&#45;&gt;Node123 -->
<g id="edge25" class="edge">
<title>Node125&#45;&gt;Node123</title>
<path fill="none" stroke="#191970" d="M408.5903,-51.5727C369.0887,-54.6474 313.4496,-59.7429 265,-67 248.1269,-69.5274 229.6955,-73.0967 213.6913,-76.4604"/>
<polygon fill="#191970" stroke="#191970" points="409.0716,-55.0463 418.7768,-50.7968 408.5398,-48.0665 409.0716,-55.0463"/>
</g>
<!-- Node126 -->
<g id="node15" class="node">
<title>Node126</title>
<g id="a_node15"><a xlink:href="wifi_8c.html#a9c38abb0900e0c7308be77d85dbf09e0" target="_top" xlink:title="wifi_connect">
<polygon fill="#ffffff" stroke="#000000" points="576.5,-38.5 576.5,-57.5 648.5,-57.5 648.5,-38.5 576.5,-38.5"/>
<text text-anchor="middle" x="612.5" y="-45.5" font-family="Helvetica,sans-Serif" font-size="10.00" fill="#000000">wifi_connect</text>
</a>
</g>
</g>
<!-- Node125&#45;&gt;Node126 -->
<g id="edge19" class="edge">
<title>Node125&#45;&gt;Node126</title>
<path fill="none" stroke="#191970" d="M512.1535,-48C533.2933,-48 557.243,-48 576.442,-48"/>
<polygon fill="#191970" stroke="#191970" points="512.0347,-44.5001 502.0347,-48 512.0346,-51.5001 512.0347,-44.5001"/>
</g>
<!-- Node127 -->
<g id="node16" class="node">
<title>Node127</title>
<g id="a_node16"><a xlink:href="watchdog_8c.html#a47b6861ffbed37fef88aa644f10ba917" target="_top" xlink:title="wifi_reconnect_timer_func">
<polygon fill="#ffffff" stroke="#000000" points="546,-.5 546,-19.5 679,-19.5 679,-.5 546,-.5"/>
<text text-anchor="middle" x="612.5" y="-7.5" font-family="Helvetica,sans-Serif" font-size="10.00" fill="#000000">wifi_reconnect_timer_func</text>
</a>
</g>
</g>
<!-- Node125&#45;&gt;Node127 -->
<g id="edge21" class="edge">
<title>Node125&#45;&gt;Node127</title>
<path fill="none" stroke="#191970" d="M508.66,-35.96C529.8951,-30.6512 554.495,-24.5012 574.4198,-19.5201"/>
<polygon fill="#191970" stroke="#191970" points="507.7085,-32.5901 498.856,-38.411 509.4063,-39.3811 507.7085,-32.5901"/>
</g>
<!-- Node126&#45;&gt;Node119 -->
<g id="edge20" class="edge">
<title>Node126&#45;&gt;Node119</title>
<path fill="none" stroke="#191970" d="M658.9815,-48C676.184,-48 696.0355,-48 714.6623,-48"/>
<polygon fill="#191970" stroke="#191970" points="658.6475,-44.5001 648.6475,-48 658.6474,-51.5001 658.6475,-44.5001"/>
</g>
<!-- Node128 -->
<g id="node17" class="node">
<title>Node128</title>
<g id="a_node17"><a xlink:href="watchdog_8c.html#aeb03c505b5b589ae4d89b2ae11dd1711" target="_top" xlink:title="watchdog_timer_func">
<polygon fill="#ffffff" stroke="#000000" points="725,-.5 725,-19.5 837,-19.5 837,-.5 725,-.5"/>
<text text-anchor="middle" x="781" y="-7.5" font-family="Helvetica,sans-Serif" font-size="10.00" fill="#000000">watchdog_timer_func</text>
</a>
</g>
</g>
<!-- Node127&#45;&gt;Node128 -->
<g id="edge22" class="edge">
<title>Node127&#45;&gt;Node128</title>
<path fill="none" stroke="#191970" d="M689.1494,-10C701.2028,-10 713.4654,-10 724.9395,-10"/>
<polygon fill="#191970" stroke="#191970" points="689.0957,-6.5001 679.0957,-10 689.0956,-13.5001 689.0957,-6.5001"/>
</g>
<!-- Node129 -->
<g id="node18" class="node">
<title>Node129</title>
<g id="a_node18"><a xlink:href="watchdog_8h.html#ab148f2150b52df5b60e312dded3a2934" target="_top" xlink:title="start_watchdog">
<polygon fill="#ffffff" stroke="#000000" points="888,-.5 888,-19.5 972,-19.5 972,-.5 888,-.5"/>
<text text-anchor="middle" x="930" y="-7.5" font-family="Helvetica,sans-Serif" font-size="10.00" fill="#000000">start_watchdog</text>
</a>
</g>
</g>
<!-- Node128&#45;&gt;Node129 -->
<g id="edge23" class="edge">
<title>Node128&#45;&gt;Node129</title>
<path fill="none" stroke="#191970" d="M847.7067,-10C861.407,-10 875.4627,-10 887.9932,-10"/>
<polygon fill="#191970" stroke="#191970" points="847.3305,-6.5001 837.3305,-10 847.3305,-13.5001 847.3305,-6.5001"/>
</g>
<!-- Node129&#45;&gt;Node117 -->
<g id="edge24" class="edge">
<title>Node129&#45;&gt;Node117</title>
<path fill="none" stroke="#191970" d="M965.0841,-23.4651C969.1441,-25.2342 973.1915,-27.0967 977,-29 994.2528,-37.6223 1013.0714,-49.2938 1025.6061,-57.4175"/>
<polygon fill="#191970" stroke="#191970" points="966.27,-20.1673 955.6942,-19.5315 963.5652,-26.6236 966.27,-20.1673"/>
</g>
</g>
</svg>
