<?xml version="1.0" encoding="UTF-8" standalone="no"?>
<!DOCTYPE svg PUBLIC "-//W3C//DTD SVG 1.1//EN"
 "http://www.w3.org/Graphics/SVG/1.1/DTD/svg11.dtd">
<!-- Generated by graphviz version 2.39.20160927.1334 (20160927.1334)
 -->
<!-- Title: led_stop_pattern Pages: 1 -->
<svg width="936pt" height="218pt"
 viewBox="0.00 0.00 936.00 218.00" xmlns="http://www.w3.org/2000/svg" xmlns:xlink="http://www.w3.org/1999/xlink">
<g id="graph0" class="graph" transform="scale(1 1) rotate(0) translate(4 214)">
<title>led_stop_pattern</title>
<polygon fill="#ffffff" stroke="transparent" points="-4,4 -4,-214 932,-214 932,4 -4,4"/>
<!-- Node1 -->
<g id="node1" class="node">
<title>Node1</title>
<polygon fill="#bfbfbf" stroke="#000000" points="0,-57.5 0,-76.5 91,-76.5 91,-57.5 0,-57.5"/>
<text text-anchor="middle" x="45.5" y="-64.5" font-family="Helvetica,sans-Serif" font-size="10.00" fill="#000000">led_stop_pattern</text>
</g>
<!-- Node2 -->
<g id="node2" class="node">
<title>Node2</title>
<g id="a_node2"><a xlink:href="ac__out_8c.html#a07e9d906599f62767ef1efb99d8fce11" target="_top" xlink:title="ac_out_off_timer_func">
<polygon fill="#ffffff" stroke="#000000" points="127,-133.5 127,-152.5 242,-152.5 242,-133.5 127,-133.5"/>
<text text-anchor="middle" x="184.5" y="-140.5" font-family="Helvetica,sans-Serif" font-size="10.00" fill="#000000">ac_out_off_timer_func</text>
</a>
</g>
</g>
<!-- Node1&#45;&gt;Node2 -->
<g id="edge1" class="edge">
<title>Node1&#45;&gt;Node2</title>
<path fill="none" stroke="#191970" d="M71.9377,-81.4551C99.8621,-96.7232 143.093,-120.36 167.038,-133.453"/>
<polygon fill="#191970" stroke="#191970" points="73.5577,-78.3519 63.1044,-76.6255 70.1995,-84.4938 73.5577,-78.3519"/>
</g>
<!-- Node12 -->
<g id="node12" class="node">
<title>Node12</title>
<g id="a_node12"><a xlink:href="ac__out_8h.html#aa3b68ad0802843bd0874e86712d6fef4" target="_top" xlink:title="ac_thermo_pwm">
<polygon fill="#ffffff" stroke="#000000" points="288,-76.5 288,-95.5 378,-95.5 378,-76.5 288,-76.5"/>
<text text-anchor="middle" x="333" y="-83.5" font-family="Helvetica,sans-Serif" font-size="10.00" fill="#000000">ac_thermo_pwm</text>
</a>
</g>
</g>
<!-- Node1&#45;&gt;Node12 -->
<g id="edge14" class="edge">
<title>Node1&#45;&gt;Node12</title>
<path fill="none" stroke="#191970" d="M101.205,-70.6814C155.54,-74.2722 237.171,-79.667 287.658,-83.0035"/>
<polygon fill="#191970" stroke="#191970" points="101.264,-67.1777 91.0552,-70.0106 100.803,-74.1625 101.264,-67.1777"/>
</g>
<!-- Node13 -->
<g id="node13" class="node">
<title>Node13</title>
<g id="a_node13"><a xlink:href="wifi_8c.html#a9c38abb0900e0c7308be77d85dbf09e0" target="_top" xlink:title="wifi_connect">
<polygon fill="#ffffff" stroke="#000000" points="446,-38.5 446,-57.5 518,-57.5 518,-38.5 446,-38.5"/>
<text text-anchor="middle" x="482" y="-45.5" font-family="Helvetica,sans-Serif" font-size="10.00" fill="#000000">wifi_connect</text>
</a>
</g>
</g>
<!-- Node1&#45;&gt;Node13 -->
<g id="edge16" class="edge">
<title>Node1&#45;&gt;Node13</title>
<path fill="none" stroke="#191970" d="M101.505,-64.5622C192.423,-60.6047 369.622,-52.8916 445.784,-49.5764"/>
<polygon fill="#191970" stroke="#191970" points="101.226,-61.0709 91.3881,-65.0026 101.531,-68.0643 101.226,-61.0709"/>
</g>
<!-- Node14 -->
<g id="node14" class="node">
<title>Node14</title>
<g id="a_node14"><a xlink:href="wifi_8c.html#a1ef15ecd9e69811f6db10215c7196281" target="_top" xlink:title="wifi_scan_done_cb">
<polygon fill="#ffffff" stroke="#000000" points="133.5,-0.5 133.5,-19.5 235.5,-19.5 235.5,-0.5 133.5,-0.5"/>
<text text-anchor="middle" x="184.5" y="-7.5" font-family="Helvetica,sans-Serif" font-size="10.00" fill="#000000">wifi_scan_done_cb</text>
</a>
</g>
</g>
<!-- Node1&#45;&gt;Node14 -->
<g id="edge18" class="edge">
<title>Node1&#45;&gt;Node14</title>
<path fill="none" stroke="#191970" d="M78.0331,-53.6591C103.526,-43.205 138.38,-28.9126 161.159,-19.5716"/>
<polygon fill="#191970" stroke="#191970" points="76.6898,-50.427 68.7655,-57.4595 79.3457,-56.9036 76.6898,-50.427"/>
</g>
<!-- Node3 -->
<g id="node3" class="node">
<title>Node3</title>
<g id="a_node3"><a xlink:href="ac__out_8h.html#a483eac71fafd6926d6e16c08b87530ef" target="_top" xlink:title="ac_motor_valve_close">
<polygon fill="#ffffff" stroke="#000000" points="424,-190.5 424,-209.5 540,-209.5 540,-190.5 424,-190.5"/>
<text text-anchor="middle" x="482" y="-197.5" font-family="Helvetica,sans-Serif" font-size="10.00" fill="#000000">ac_motor_valve_close</text>
</a>
</g>
</g>
<!-- Node2&#45;&gt;Node3 -->
<g id="edge2" class="edge">
<title>Node2&#45;&gt;Node3</title>
<path fill="none" stroke="#191970" d="M230.83,-155.135C245.826,-158.865 262.569,-162.821 278,-166 326.882,-176.07 382.823,-185.229 423.747,-191.496"/>
<polygon fill="#191970" stroke="#191970" points="231.317,-151.649 220.765,-152.602 229.608,-158.437 231.317,-151.649"/>
</g>
<!-- Node4 -->
<g id="node4" class="node">
<title>Node4</title>
<g id="a_node4"><a xlink:href="ac__out_8h.html#aa17a09f7811a797293e31a39906ec1b0" target="_top" xlink:title="ac_motor_valve_open">
<polygon fill="#ffffff" stroke="#000000" points="424.5,-152.5 424.5,-171.5 539.5,-171.5 539.5,-152.5 424.5,-152.5"/>
<text text-anchor="middle" x="482" y="-159.5" font-family="Helvetica,sans-Serif" font-size="10.00" fill="#000000">ac_motor_valve_open</text>
</a>
</g>
</g>
<!-- Node2&#45;&gt;Node4 -->
<g id="edge3" class="edge">
<title>Node2&#45;&gt;Node4</title>
<path fill="none" stroke="#191970" d="M252.344,-147.333C304.316,-150.652 375.228,-155.181 424.447,-158.324"/>
<polygon fill="#191970" stroke="#191970" points="252.417,-143.83 242.214,-146.686 251.97,-150.816 252.417,-143.83"/>
</g>
<!-- Node5 -->
<g id="node5" class="node">
<title>Node5</title>
<g id="a_node5"><a xlink:href="ac__out_8h.html#aaa0444bb417d9a634d5304b267f4fcda" target="_top" xlink:title="ac_off">
<polygon fill="#ffffff" stroke="#000000" points="311,-114.5 311,-133.5 355,-133.5 355,-114.5 311,-114.5"/>
<text text-anchor="middle" x="333" y="-121.5" font-family="Helvetica,sans-Serif" font-size="10.00" fill="#000000">ac_off</text>
</a>
</g>
</g>
<!-- Node2&#45;&gt;Node5 -->
<g id="edge4" class="edge">
<title>Node2&#45;&gt;Node5</title>
<path fill="none" stroke="#191970" d="M252.267,-134.33C273.33,-131.635 295.094,-128.85 310.71,-126.852"/>
<polygon fill="#191970" stroke="#191970" points="251.814,-130.859 242.339,-135.6 252.703,-137.802 251.814,-130.859"/>
</g>
<!-- Node5&#45;&gt;Node3 -->
<g id="edge5" class="edge">
<title>Node5&#45;&gt;Node3</title>
<path fill="none" stroke="#191970" d="M354.52,-139.582C372.443,-152.034 398.986,-169.283 424,-181 431.58,-184.551 440.006,-187.72 448.032,-190.404"/>
<polygon fill="#191970" stroke="#191970" points="356.176,-136.467 345.987,-133.563 352.141,-142.187 356.176,-136.467"/>
</g>
<!-- Node5&#45;&gt;Node4 -->
<g id="edge6" class="edge">
<title>Node5&#45;&gt;Node4</title>
<path fill="none" stroke="#191970" d="M365.058,-132.176C388.366,-138.12 419.992,-146.186 444.478,-152.431"/>
<polygon fill="#191970" stroke="#191970" points="365.862,-128.769 355.307,-129.689 364.132,-135.552 365.862,-128.769"/>
</g>
<!-- Node6 -->
<g id="node6" class="node">
<title>Node6</title>
<g id="a_node6"><a xlink:href="cron_8c.html#a2782af03df9b913cfa565a0770e1afe1" target="_top" xlink:title="minute_timer_func">
<polygon fill="#ffffff" stroke="#000000" points="432.5,-114.5 432.5,-133.5 531.5,-133.5 531.5,-114.5 432.5,-114.5"/>
<text text-anchor="middle" x="482" y="-121.5" font-family="Helvetica,sans-Serif" font-size="10.00" fill="#000000">minute_timer_func</text>
</a>
</g>
</g>
<!-- Node5&#45;&gt;Node6 -->
<g id="edge7" class="edge">
<title>Node5&#45;&gt;Node6</title>
<path fill="none" stroke="#191970" d="M365.524,-124C385.079,-124 410.36,-124 432.371,-124"/>
<polygon fill="#191970" stroke="#191970" points="365.307,-120.5 355.307,-124 365.307,-127.5 365.307,-120.5"/>
</g>
<!-- Node9 -->
<g id="node9" class="node">
<title>Node9</title>
<g id="a_node9"><a xlink:href="user__main_8h.html#a53fca5688835df983e3ff1a91d387618" target="_top" xlink:title="mqttDataCb">
<polygon fill="#ffffff" stroke="#000000" points="447,-76.5 447,-95.5 517,-95.5 517,-76.5 447,-76.5"/>
<text text-anchor="middle" x="482" y="-83.5" font-family="Helvetica,sans-Serif" font-size="10.00" fill="#000000">mqttDataCb</text>
</a>
</g>
</g>
<!-- Node5&#45;&gt;Node9 -->
<g id="edge10" class="edge">
<title>Node5&#45;&gt;Node9</title>
<path fill="none" stroke="#191970" d="M365.021,-115.834C389.071,-109.7 421.991,-101.304 446.782,-94.9818"/>
<polygon fill="#191970" stroke="#191970" points="364.132,-112.448 355.307,-118.311 365.862,-119.231 364.132,-112.448"/>
</g>
<!-- Node7 -->
<g id="node7" class="node">
<title>Node7</title>
<g id="a_node7"><a xlink:href="cron_8h.html#ae130c5973bad35b56776750c7a34db12" target="_top" xlink:title="cron_init">
<polygon fill="#ffffff" stroke="#000000" points="764,-114.5 764,-133.5 818,-133.5 818,-114.5 764,-114.5"/>
<text text-anchor="middle" x="791" y="-121.5" font-family="Helvetica,sans-Serif" font-size="10.00" fill="#000000">cron_init</text>
</a>
</g>
</g>
<!-- Node6&#45;&gt;Node7 -->
<g id="edge8" class="edge">
<title>Node6&#45;&gt;Node7</title>
<path fill="none" stroke="#191970" d="M541.65,-124C608.69,-124 714.594,-124 763.978,-124"/>
<polygon fill="#191970" stroke="#191970" points="541.646,-120.5 531.646,-124 541.646,-127.5 541.646,-120.5"/>
</g>
<!-- Node8 -->
<g id="node8" class="node">
<title>Node8</title>
<g id="a_node8"><a xlink:href="user__main_8h.html#a33113d6dedb440bd7dfa5576e325140c" target="_top" xlink:title="user_init">
<polygon fill="#ffffff" stroke="#000000" points="874,-95.5 874,-114.5 928,-114.5 928,-95.5 874,-95.5"/>
<text text-anchor="middle" x="901" y="-102.5" font-family="Helvetica,sans-Serif" font-size="10.00" fill="#000000">user_init</text>
</a>
</g>
</g>
<!-- Node7&#45;&gt;Node8 -->
<g id="edge9" class="edge">
<title>Node7&#45;&gt;Node8</title>
<path fill="none" stroke="#191970" d="M828.15,-117.583C843.081,-115.004 859.98,-112.085 873.741,-109.708"/>
<polygon fill="#191970" stroke="#191970" points="827.449,-114.152 818.191,-119.303 828.641,-121.05 827.449,-114.152"/>
</g>
<!-- Node10 -->
<g id="node10" class="node">
<title>Node10</title>
<g id="a_node10"><a xlink:href="user__main_8c.html#a245ec00253f410a8804988bf40e1037e" target="_top" xlink:title="sample_mode_timer_func">
<polygon fill="#ffffff" stroke="#000000" points="576,-76.5 576,-95.5 708,-95.5 708,-76.5 576,-76.5"/>
<text text-anchor="middle" x="642" y="-83.5" font-family="Helvetica,sans-Serif" font-size="10.00" fill="#000000">sample_mode_timer_func</text>
</a>
</g>
</g>
<!-- Node9&#45;&gt;Node10 -->
<g id="edge11" class="edge">
<title>Node9&#45;&gt;Node10</title>
<path fill="none" stroke="#191970" d="M527.186,-86C542.259,-86 559.38,-86 575.715,-86"/>
<polygon fill="#191970" stroke="#191970" points="527.113,-82.5001 517.113,-86 527.113,-89.5001 527.113,-82.5001"/>
</g>
<!-- Node11 -->
<g id="node11" class="node">
<title>Node11</title>
<g id="a_node11"><a xlink:href="user__main_8h.html#a3671381db669a16e8f6a4bf3dfb9a441" target="_top" xlink:title="system_init_done">
<polygon fill="#ffffff" stroke="#000000" points="744,-76.5 744,-95.5 838,-95.5 838,-76.5 744,-76.5"/>
<text text-anchor="middle" x="791" y="-83.5" font-family="Helvetica,sans-Serif" font-size="10.00" fill="#000000">system_init_done</text>
</a>
</g>
</g>
<!-- Node10&#45;&gt;Node11 -->
<g id="edge12" class="edge">
<title>Node10&#45;&gt;Node11</title>
<path fill="none" stroke="#191970" d="M718.361,-86C727.009,-86 735.624,-86 743.739,-86"/>
<polygon fill="#191970" stroke="#191970" points="718.221,-82.5001 708.221,-86 718.221,-89.5001 718.221,-82.5001"/>
</g>
<!-- Node11&#45;&gt;Node8 -->
<g id="edge13" class="edge">
<title>Node11&#45;&gt;Node8</title>
<path fill="none" stroke="#191970" d="M848.289,-95.8953C857.16,-97.4276 865.952,-98.9462 873.738,-100.291"/>
<polygon fill="#191970" stroke="#191970" points="848.738,-92.4212 838.288,-94.168 847.547,-99.3191 848.738,-92.4212"/>
</g>
<!-- Node12&#45;&gt;Node9 -->
<g id="edge15" class="edge">
<title>Node12&#45;&gt;Node9</title>
<path fill="none" stroke="#191970" d="M388.19,-86C407.864,-86 429.468,-86 446.979,-86"/>
<polygon fill="#191970" stroke="#191970" points="388.109,-82.5001 378.109,-86 388.109,-89.5001 388.109,-82.5001"/>
</g>
<!-- Node13&#45;&gt;Node10 -->
<g id="edge17" class="edge">
<title>Node13&#45;&gt;Node10</title>
<path fill="none" stroke="#191970" d="M528.306,-58.9977C551.595,-64.5289 579.546,-71.1672 601.906,-76.4777"/>
<polygon fill="#191970" stroke="#191970" points="528.845,-55.5283 518.306,-56.6228 527.227,-62.3389 528.845,-55.5283"/>
</g>
<!-- Node15 -->
<g id="node15" class="node">
<title>Node15</title>
<g id="a_node15"><a xlink:href="wifi_8c.html#ae7011f25db54676b86fefe2caa450a4a" target="_top" xlink:title="wifi_scan_timer_func">
<polygon fill="#ffffff" stroke="#000000" points="278,-0.5 278,-19.5 388,-19.5 388,-0.5 278,-0.5"/>
<text text-anchor="middle" x="333" y="-7.5" font-family="Helvetica,sans-Serif" font-size="10.00" fill="#000000">wifi_scan_timer_func</text>
</a>
</g>
</g>
<!-- Node14&#45;&gt;Node15 -->
<g id="edge19" class="edge">
<title>Node14&#45;&gt;Node15</title>
<path fill="none" stroke="#191970" d="M245.716,-3.3433C256.412,-3.18874 267.48,-3.22621 277.996,-3.45572"/>
<polygon fill="#191970" stroke="#191970" points="245.531,0.153751 235.605,-3.55034 245.675,-6.84478 245.531,0.153751"/>
</g>
<!-- Node15&#45;&gt;Node13 -->
<g id="edge20" class="edge">
<title>Node15&#45;&gt;Node13</title>
<path fill="none" stroke="#191970" d="M380.398,-22.088C401.629,-27.5028 426.262,-33.7849 445.955,-38.8073"/>
<polygon fill="#191970" stroke="#191970" points="381.154,-18.6689 370.599,-19.589 379.424,-25.4518 381.154,-18.6689"/>
</g>
<!-- Node15&#45;&gt;Node14 -->
<g id="edge21" class="edge">
<title>Node15&#45;&gt;Node14</title>
<path fill="none" stroke="#191970" d="M267.775,-16.7055C257,-16.8122 245.969,-16.727 235.605,-16.4497"/>
<polygon fill="#191970" stroke="#191970" points="268.052,-20.2016 277.996,-16.5443 267.942,-13.2025 268.052,-20.2016"/>
</g>
</g>
</svg>
