<?xml version="1.0" encoding="UTF-8" standalone="no"?>
<!DOCTYPE svg PUBLIC "-//W3C//DTD SVG 1.1//EN"
 "http://www.w3.org/Graphics/SVG/1.1/DTD/svg11.dtd">
<!-- Generated by graphviz version 2.41.20170323.1842 (20170323.1842)
 -->
<!-- Title: led_pattern_b Pages: 1 -->
<svg width="446pt" height="66pt"
 viewBox="0.00 0.00 446.00 66.00" xmlns="http://www.w3.org/2000/svg" xmlns:xlink="http://www.w3.org/1999/xlink">
<g id="graph0" class="graph" transform="scale(1 1) rotate(0) translate(4 62)">
<title>led_pattern_b</title>
<polygon fill="#ffffff" stroke="transparent" points="-4,4 -4,-62 442,-62 442,4 -4,4"/>
<!-- Node123 -->
<g id="node1" class="node">
<title>Node123</title>
<polygon fill="#bfbfbf" stroke="#000000" points="0,-19.5 0,-38.5 78,-38.5 78,-19.5 0,-19.5"/>
<text text-anchor="middle" x="39" y="-26.5" font-family="Helvetica,sans-Serif" font-size="10.00" fill="#000000">led_pattern_b</text>
</g>
<!-- Node124 -->
<g id="node2" class="node">
<title>Node124</title>
<g id="a_node2"><a xlink:href="led_8c.html#af6a79b211d188e643a4f1cf7552ac7ee" target="_top" xlink:title="led_blinker_timer_func">
<polygon fill="#ffffff" stroke="#000000" points="114,-19.5 114,-38.5 231,-38.5 231,-19.5 114,-19.5"/>
<text text-anchor="middle" x="172.5" y="-26.5" font-family="Helvetica,sans-Serif" font-size="10.00" fill="#000000">led_blinker_timer_func</text>
</a>
</g>
</g>
<!-- Node123&#45;&gt;Node124 -->
<g id="edge1" class="edge">
<title>Node123&#45;&gt;Node124</title>
<path fill="none" stroke="#191970" d="M78.3323,-29C86.2928,-29 94.8829,-29 103.5229,-29"/>
<polygon fill="#191970" stroke="#191970" points="103.6536,-32.5001 113.6535,-29 103.6535,-25.5001 103.6536,-32.5001"/>
</g>
<!-- Node125 -->
<g id="node3" class="node">
<title>Node125</title>
<g id="a_node3"><a xlink:href="led_8c.html#a7ef0b27e501c77cd25b8bb7a2de6d8bd" target="_top" xlink:title="led_off">
<polygon fill="#ffffff" stroke="#000000" points="267,-38.5 267,-57.5 314,-57.5 314,-38.5 267,-38.5"/>
<text text-anchor="middle" x="290.5" y="-45.5" font-family="Helvetica,sans-Serif" font-size="10.00" fill="#000000">led_off</text>
</a>
</g>
</g>
<!-- Node124&#45;&gt;Node125 -->
<g id="edge2" class="edge">
<title>Node124&#45;&gt;Node125</title>
<path fill="none" stroke="#191970" d="M231.1543,-38.4443C239.9218,-39.8561 248.6995,-41.2694 256.7128,-42.5597"/>
<polygon fill="#191970" stroke="#191970" points="256.3126,-46.0402 266.7418,-44.1745 257.4254,-39.1293 256.3126,-46.0402"/>
</g>
<!-- Node127 -->
<g id="node5" class="node">
<title>Node127</title>
<g id="a_node5"><a xlink:href="led_8c.html#a0a23edee5e1db0cd2928c18a42ffe96f" target="_top" xlink:title="led_on">
<polygon fill="#ffffff" stroke="#000000" points="267,-.5 267,-19.5 314,-19.5 314,-.5 267,-.5"/>
<text text-anchor="middle" x="290.5" y="-7.5" font-family="Helvetica,sans-Serif" font-size="10.00" fill="#000000">led_on</text>
</a>
</g>
</g>
<!-- Node124&#45;&gt;Node127 -->
<g id="edge4" class="edge">
<title>Node124&#45;&gt;Node127</title>
<path fill="none" stroke="#191970" d="M231.1543,-19.5557C239.9218,-18.1439 248.6995,-16.7306 256.7128,-15.4403"/>
<polygon fill="#191970" stroke="#191970" points="257.4254,-18.8707 266.7418,-13.8255 256.3126,-11.9598 257.4254,-18.8707"/>
</g>
<!-- Node126 -->
<g id="node4" class="node">
<title>Node126</title>
<g id="a_node4"><a xlink:href="gpio_8h.html#a83bac74ff5b2158e0c86da73ada29718" target="_top" xlink:title="gpio_output_set">
<polygon fill="#ffffff" stroke="#000000" points="350,-19.5 350,-38.5 438,-38.5 438,-19.5 350,-19.5"/>
<text text-anchor="middle" x="394" y="-26.5" font-family="Helvetica,sans-Serif" font-size="10.00" fill="#000000">gpio_output_set</text>
</a>
</g>
</g>
<!-- Node125&#45;&gt;Node126 -->
<g id="edge3" class="edge">
<title>Node125&#45;&gt;Node126</title>
<path fill="none" stroke="#191970" d="M314.245,-43.641C321.8767,-42.24 330.6713,-40.6256 339.5717,-38.9917"/>
<polygon fill="#191970" stroke="#191970" points="340.4057,-42.3971 349.6093,-37.149 339.1417,-35.5122 340.4057,-42.3971"/>
</g>
<!-- Node127&#45;&gt;Node126 -->
<g id="edge5" class="edge">
<title>Node127&#45;&gt;Node126</title>
<path fill="none" stroke="#191970" d="M314.245,-14.359C321.8767,-15.76 330.6713,-17.3744 339.5717,-19.0083"/>
<polygon fill="#191970" stroke="#191970" points="339.1417,-22.4878 349.6093,-20.851 340.4057,-15.6029 339.1417,-22.4878"/>
</g>
</g>
</svg>
