<?xml version="1.0" encoding="UTF-8" standalone="no"?>
<!DOCTYPE svg PUBLIC "-//W3C//DTD SVG 1.1//EN"
 "http://www.w3.org/Graphics/SVG/1.1/DTD/svg11.dtd">
<!-- Generated by graphviz version 2.40.1 (20161225.0304)
 -->
<!-- Title: led_pattern_b Pages: 1 -->
<svg width="591pt" height="104pt"
 viewBox="0.00 0.00 591.00 104.00" xmlns="http://www.w3.org/2000/svg" xmlns:xlink="http://www.w3.org/1999/xlink">
<g id="graph0" class="graph" transform="scale(1 1) rotate(0) translate(4 100)">
<title>led_pattern_b</title>
<polygon fill="#ffffff" stroke="transparent" points="-4,4 -4,-100 587,-100 587,4 -4,4"/>
<!-- Node115 -->
<g id="node1" class="node">
<title>Node115</title>
<polygon fill="#bfbfbf" stroke="#000000" points="0,-38.5 0,-57.5 78,-57.5 78,-38.5 0,-38.5"/>
<text text-anchor="middle" x="39" y="-45.5" font-family="Helvetica,sans-Serif" font-size="10.00" fill="#000000">led_pattern_b</text>
</g>
<!-- Node116 -->
<g id="node2" class="node">
<title>Node116</title>
<g id="a_node2"><a xlink:href="ac__out_8h.html#a483eac71fafd6926d6e16c08b87530ef" target="_top" xlink:title="ac_motor_valve_close">
<polygon fill="#ffffff" stroke="#000000" points="114,-76.5 114,-95.5 230,-95.5 230,-76.5 114,-76.5"/>
<text text-anchor="middle" x="172" y="-83.5" font-family="Helvetica,sans-Serif" font-size="10.00" fill="#000000">ac_motor_valve_close</text>
</a>
</g>
</g>
<!-- Node115&#45;&gt;Node116 -->
<g id="edge1" class="edge">
<title>Node115&#45;&gt;Node116</title>
<path fill="none" stroke="#191970" d="M82.3669,-60.3906C100.5807,-65.5945 121.4393,-71.5541 138.4492,-76.4141"/>
<polygon fill="#191970" stroke="#191970" points="83.1383,-56.971 72.5615,-57.589 81.2152,-63.7016 83.1383,-56.971"/>
</g>
<!-- Node117 -->
<g id="node3" class="node">
<title>Node117</title>
<g id="a_node3"><a xlink:href="ac__out_8c.html#aa4f3e08453187a0500d0e5441274c7a1" target="_top" xlink:title="ac_test_timer_func">
<polygon fill="#ffffff" stroke="#000000" points="121.5,-38.5 121.5,-57.5 222.5,-57.5 222.5,-38.5 121.5,-38.5"/>
<text text-anchor="middle" x="172" y="-45.5" font-family="Helvetica,sans-Serif" font-size="10.00" fill="#000000">ac_test_timer_func</text>
</a>
</g>
</g>
<!-- Node115&#45;&gt;Node117 -->
<g id="edge2" class="edge">
<title>Node115&#45;&gt;Node117</title>
<path fill="none" stroke="#191970" d="M88.2622,-48C99.0216,-48 110.4276,-48 121.2441,-48"/>
<polygon fill="#191970" stroke="#191970" points="88.1851,-44.5001 78.185,-48 88.185,-51.5001 88.1851,-44.5001"/>
</g>
<!-- Node121 -->
<g id="node7" class="node">
<title>Node121</title>
<g id="a_node7"><a xlink:href="ac__out_8h.html#a1573f96ac038a6a1b29a6f21403a2341" target="_top" xlink:title="ac_thermo_open">
<polygon fill="#ffffff" stroke="#000000" points="266,-.5 266,-19.5 358,-19.5 358,-.5 266,-.5"/>
<text text-anchor="middle" x="312" y="-7.5" font-family="Helvetica,sans-Serif" font-size="10.00" fill="#000000">ac_thermo_open</text>
</a>
</g>
</g>
<!-- Node115&#45;&gt;Node121 -->
<g id="edge6" class="edge">
<title>Node115&#45;&gt;Node121</title>
<path fill="none" stroke="#191970" d="M81.7621,-35.9706C92.2395,-33.3554 103.4695,-30.8281 114,-29 165.5464,-20.0514 225.427,-15.04 265.7248,-12.4399"/>
<polygon fill="#191970" stroke="#191970" points="80.8065,-32.6024 71.9948,-38.4849 82.5517,-39.3814 80.8065,-32.6024"/>
</g>
<!-- Node118 -->
<g id="node4" class="node">
<title>Node118</title>
<g id="a_node4"><a xlink:href="ac__out_8h.html#ad511e0e9abde1a9313a1843cef50f82a" target="_top" xlink:title="ac_test">
<polygon fill="#ffffff" stroke="#000000" points="287.5,-38.5 287.5,-57.5 336.5,-57.5 336.5,-38.5 287.5,-38.5"/>
<text text-anchor="middle" x="312" y="-45.5" font-family="Helvetica,sans-Serif" font-size="10.00" fill="#000000">ac_test</text>
</a>
</g>
</g>
<!-- Node117&#45;&gt;Node118 -->
<g id="edge3" class="edge">
<title>Node117&#45;&gt;Node118</title>
<path fill="none" stroke="#191970" d="M232.7985,-48C252.0532,-48 272.253,-48 287.4336,-48"/>
<polygon fill="#191970" stroke="#191970" points="232.5432,-44.5001 222.5432,-48 232.5432,-51.5001 232.5432,-44.5001"/>
</g>
<!-- Node119 -->
<g id="node5" class="node">
<title>Node119</title>
<g id="a_node5"><a xlink:href="cron_8c.html#a2782af03df9b913cfa565a0770e1afe1" target="_top" xlink:title="minute_timer_func">
<polygon fill="#ffffff" stroke="#000000" points="394,-19.5 394,-38.5 493,-38.5 493,-19.5 394,-19.5"/>
<text text-anchor="middle" x="443.5" y="-26.5" font-family="Helvetica,sans-Serif" font-size="10.00" fill="#000000">minute_timer_func</text>
</a>
</g>
</g>
<!-- Node118&#45;&gt;Node119 -->
<g id="edge4" class="edge">
<title>Node118&#45;&gt;Node119</title>
<path fill="none" stroke="#191970" d="M346.7176,-42.9838C361.1312,-40.9012 378.1266,-38.4456 393.8206,-36.178"/>
<polygon fill="#191970" stroke="#191970" points="346.1308,-39.5321 336.7341,-44.4262 347.1319,-46.4602 346.1308,-39.5321"/>
</g>
<!-- Node120 -->
<g id="node6" class="node">
<title>Node120</title>
<g id="a_node6"><a xlink:href="cron_8h.html#ae130c5973bad35b56776750c7a34db12" target="_top" xlink:title="cron_init">
<polygon fill="#ffffff" stroke="#000000" points="529,-19.5 529,-38.5 583,-38.5 583,-19.5 529,-19.5"/>
<text text-anchor="middle" x="556" y="-26.5" font-family="Helvetica,sans-Serif" font-size="10.00" fill="#000000">cron_init</text>
</a>
</g>
</g>
<!-- Node119&#45;&gt;Node120 -->
<g id="edge5" class="edge">
<title>Node119&#45;&gt;Node120</title>
<path fill="none" stroke="#191970" d="M503.2611,-29C512.1957,-29 521.0117,-29 528.8028,-29"/>
<polygon fill="#191970" stroke="#191970" points="503.1716,-25.5001 493.1716,-29 503.1716,-32.5001 503.1716,-25.5001"/>
</g>
<!-- Node121&#45;&gt;Node119 -->
<g id="edge7" class="edge">
<title>Node121&#45;&gt;Node119</title>
<path fill="none" stroke="#191970" d="M368.2668,-18.1298C376.8201,-19.3656 385.5922,-20.6331 393.9875,-21.8461"/>
<polygon fill="#191970" stroke="#191970" points="368.7597,-14.6648 358.362,-16.6987 367.7587,-21.5928 368.7597,-14.6648"/>
</g>
</g>
</svg>
