<?xml version="1.0" encoding="UTF-8" standalone="no"?>
<!DOCTYPE svg PUBLIC "-//W3C//DTD SVG 1.1//EN"
 "http://www.w3.org/Graphics/SVG/1.1/DTD/svg11.dtd">
<!-- Generated by graphviz version 2.41.20170323.1842 (20170323.1842)
 -->
<!-- Title: led_pattern_b Pages: 1 -->
<svg width="901pt" height="180pt"
 viewBox="0.00 0.00 901.00 180.00" xmlns="http://www.w3.org/2000/svg" xmlns:xlink="http://www.w3.org/1999/xlink">
<g id="graph0" class="graph" transform="scale(1 1) rotate(0) translate(4 176)">
<title>led_pattern_b</title>
<polygon fill="#ffffff" stroke="transparent" points="-4,4 -4,-176 897,-176 897,4 -4,4"/>
<!-- Node161 -->
<g id="node1" class="node">
<title>Node161</title>
<polygon fill="#bfbfbf" stroke="#000000" points="0,-95.5 0,-114.5 78,-114.5 78,-95.5 0,-95.5"/>
<text text-anchor="middle" x="39" y="-102.5" font-family="Helvetica,sans-Serif" font-size="10.00" fill="#000000">led_pattern_b</text>
</g>
<!-- Node162 -->
<g id="node2" class="node">
<title>Node162</title>
<g id="a_node2"><a xlink:href="ac__out_8h.html#a483eac71fafd6926d6e16c08b87530ef" target="_top" xlink:title="ac_motor_valve_close">
<polygon fill="#ffffff" stroke="#000000" points="114,-152.5 114,-171.5 230,-171.5 230,-152.5 114,-152.5"/>
<text text-anchor="middle" x="172" y="-159.5" font-family="Helvetica,sans-Serif" font-size="10.00" fill="#000000">ac_motor_valve_close</text>
</a>
</g>
</g>
<!-- Node161&#45;&gt;Node162 -->
<g id="edge1" class="edge">
<title>Node161&#45;&gt;Node162</title>
<path fill="none" stroke="#191970" d="M69.6392,-118.6645C83.2022,-124.6659 99.3659,-131.7536 114,-138 125.3256,-142.8342 137.9535,-148.0768 148.5273,-152.4254"/>
<polygon fill="#191970" stroke="#191970" points="70.8422,-115.3693 60.2819,-114.5141 68.0039,-121.7681 70.8422,-115.3693"/>
</g>
<!-- Node163 -->
<g id="node3" class="node">
<title>Node163</title>
<g id="a_node3"><a xlink:href="ac__out_8c.html#aa4f3e08453187a0500d0e5441274c7a1" target="_top" xlink:title="ac_test_timer_func">
<polygon fill="#ffffff" stroke="#000000" points="121.5,-76.5 121.5,-95.5 222.5,-95.5 222.5,-76.5 121.5,-76.5"/>
<text text-anchor="middle" x="172" y="-83.5" font-family="Helvetica,sans-Serif" font-size="10.00" fill="#000000">ac_test_timer_func</text>
</a>
</g>
</g>
<!-- Node161&#45;&gt;Node163 -->
<g id="edge2" class="edge">
<title>Node161&#45;&gt;Node163</title>
<path fill="none" stroke="#191970" d="M88.2622,-97.9625C99.0216,-96.4255 110.4276,-94.7961 121.2441,-93.2508"/>
<polygon fill="#191970" stroke="#191970" points="87.5895,-94.523 78.185,-99.4021 88.5795,-101.4527 87.5895,-94.523"/>
</g>
<!-- Node171 -->
<g id="node11" class="node">
<title>Node171</title>
<g id="a_node11"><a xlink:href="ac__out_8h.html#a1573f96ac038a6a1b29a6f21403a2341" target="_top" xlink:title="ac_thermo_open">
<polygon fill="#ffffff" stroke="#000000" points="272,-114.5 272,-133.5 364,-133.5 364,-114.5 272,-114.5"/>
<text text-anchor="middle" x="318" y="-121.5" font-family="Helvetica,sans-Serif" font-size="10.00" fill="#000000">ac_thermo_open</text>
</a>
</g>
</g>
<!-- Node161&#45;&gt;Node171 -->
<g id="edge11" class="edge">
<title>Node161&#45;&gt;Node171</title>
<path fill="none" stroke="#191970" d="M88.3702,-108.3621C140.2168,-111.8929 221.1081,-117.4016 271.7509,-120.8504"/>
<polygon fill="#191970" stroke="#191970" points="88.3023,-104.8495 78.0875,-107.6619 87.8266,-111.8333 88.3023,-104.8495"/>
</g>
<!-- Node172 -->
<g id="node12" class="node">
<title>Node172</title>
<g id="a_node12"><a xlink:href="user__main_8h.html#ad6eb800c4d7f9c79df52949d88a18d06" target="_top" xlink:title="mqtt_connected_cb">
<polygon fill="#ffffff" stroke="#000000" points="266,-38.5 266,-57.5 370,-57.5 370,-38.5 266,-38.5"/>
<text text-anchor="middle" x="318" y="-45.5" font-family="Helvetica,sans-Serif" font-size="10.00" fill="#000000">mqtt_connected_cb</text>
</a>
</g>
</g>
<!-- Node161&#45;&gt;Node172 -->
<g id="edge15" class="edge">
<title>Node161&#45;&gt;Node172</title>
<path fill="none" stroke="#191970" d="M62.5006,-90.1938C76.8269,-81.9194 95.8228,-72.245 114,-67 164.2382,-52.5038 224.0453,-48.3908 265.8671,-47.5163"/>
<polygon fill="#191970" stroke="#191970" points="60.6151,-87.2429 53.816,-95.3684 64.1982,-93.2564 60.6151,-87.2429"/>
</g>
<!-- Node164 -->
<g id="node4" class="node">
<title>Node164</title>
<g id="a_node4"><a xlink:href="ac__out_8h.html#ad511e0e9abde1a9313a1843cef50f82a" target="_top" xlink:title="ac_test">
<polygon fill="#ffffff" stroke="#000000" points="293.5,-76.5 293.5,-95.5 342.5,-95.5 342.5,-76.5 293.5,-76.5"/>
<text text-anchor="middle" x="318" y="-83.5" font-family="Helvetica,sans-Serif" font-size="10.00" fill="#000000">ac_test</text>
</a>
</g>
</g>
<!-- Node163&#45;&gt;Node164 -->
<g id="edge3" class="edge">
<title>Node163&#45;&gt;Node164</title>
<path fill="none" stroke="#191970" d="M232.9073,-86C254.0884,-86 276.6667,-86 293.2395,-86"/>
<polygon fill="#191970" stroke="#191970" points="232.654,-82.5001 222.654,-86 232.6539,-89.5001 232.654,-82.5001"/>
</g>
<!-- Node165 -->
<g id="node5" class="node">
<title>Node165</title>
<g id="a_node5"><a xlink:href="cron_8c.html#a2782af03df9b913cfa565a0770e1afe1" target="_top" xlink:title="minute_timer_func">
<polygon fill="#ffffff" stroke="#000000" points="406,-114.5 406,-133.5 505,-133.5 505,-114.5 406,-114.5"/>
<text text-anchor="middle" x="455.5" y="-121.5" font-family="Helvetica,sans-Serif" font-size="10.00" fill="#000000">minute_timer_func</text>
</a>
</g>
</g>
<!-- Node164&#45;&gt;Node165 -->
<g id="edge4" class="edge">
<title>Node164&#45;&gt;Node165</title>
<path fill="none" stroke="#191970" d="M352.3673,-95.4979C373.3433,-101.2949 400.0699,-108.6811 421.0594,-114.4819"/>
<polygon fill="#191970" stroke="#191970" points="353.1533,-92.084 342.5822,-92.7936 351.2886,-98.831 353.1533,-92.084"/>
</g>
<!-- Node168 -->
<g id="node8" class="node">
<title>Node168</title>
<g id="a_node8"><a xlink:href="user__main_8h.html#a6e5f80dd3fa3d07976a27c859e1aaadf" target="_top" xlink:title="mqtt_data_cb">
<polygon fill="#ffffff" stroke="#000000" points="417,-76.5 417,-95.5 494,-95.5 494,-76.5 417,-76.5"/>
<text text-anchor="middle" x="455.5" y="-83.5" font-family="Helvetica,sans-Serif" font-size="10.00" fill="#000000">mqtt_data_cb</text>
</a>
</g>
</g>
<!-- Node164&#45;&gt;Node168 -->
<g id="edge7" class="edge">
<title>Node164&#45;&gt;Node168</title>
<path fill="none" stroke="#191970" d="M352.5949,-86C372.1537,-86 396.6566,-86 416.8456,-86"/>
<polygon fill="#191970" stroke="#191970" points="352.5823,-82.5001 342.5822,-86 352.5822,-89.5001 352.5823,-82.5001"/>
</g>
<!-- Node166 -->
<g id="node6" class="node">
<title>Node166</title>
<g id="a_node6"><a xlink:href="cron_8h.html#ae130c5973bad35b56776750c7a34db12" target="_top" xlink:title="cron_init">
<polygon fill="#ffffff" stroke="#000000" points="729,-114.5 729,-133.5 783,-133.5 783,-114.5 729,-114.5"/>
<text text-anchor="middle" x="756" y="-121.5" font-family="Helvetica,sans-Serif" font-size="10.00" fill="#000000">cron_init</text>
</a>
</g>
</g>
<!-- Node165&#45;&gt;Node166 -->
<g id="edge5" class="edge">
<title>Node165&#45;&gt;Node166</title>
<path fill="none" stroke="#191970" d="M515.2087,-124C580.065,-124 680.8143,-124 728.8026,-124"/>
<polygon fill="#191970" stroke="#191970" points="515.1215,-120.5001 505.1215,-124 515.1214,-127.5001 515.1215,-120.5001"/>
</g>
<!-- Node167 -->
<g id="node7" class="node">
<title>Node167</title>
<g id="a_node7"><a xlink:href="user__main_8h.html#a33113d6dedb440bd7dfa5576e325140c" target="_top" xlink:title="user_init">
<polygon fill="#ffffff" stroke="#000000" points="839,-114.5 839,-133.5 893,-133.5 893,-114.5 839,-114.5"/>
<text text-anchor="middle" x="866" y="-121.5" font-family="Helvetica,sans-Serif" font-size="10.00" fill="#000000">user_init</text>
</a>
</g>
</g>
<!-- Node166&#45;&gt;Node167 -->
<g id="edge6" class="edge">
<title>Node166&#45;&gt;Node167</title>
<path fill="none" stroke="#191970" d="M793.5816,-124C808.4057,-124 825.1123,-124 838.7406,-124"/>
<polygon fill="#191970" stroke="#191970" points="793.1911,-120.5001 783.191,-124 793.191,-127.5001 793.1911,-120.5001"/>
</g>
<!-- Node169 -->
<g id="node9" class="node">
<title>Node169</title>
<g id="a_node9"><a xlink:href="user__main_8c.html#a245ec00253f410a8804988bf40e1037e" target="_top" xlink:title="sample_mode_timer_func">
<polygon fill="#ffffff" stroke="#000000" points="541,-47.5 541,-66.5 673,-66.5 673,-47.5 541,-47.5"/>
<text text-anchor="middle" x="607" y="-54.5" font-family="Helvetica,sans-Serif" font-size="10.00" fill="#000000">sample_mode_timer_func</text>
</a>
</g>
</g>
<!-- Node168&#45;&gt;Node169 -->
<g id="edge8" class="edge">
<title>Node168&#45;&gt;Node169</title>
<path fill="none" stroke="#191970" d="M504.3599,-76.6473C521.2882,-73.4069 540.2754,-69.7724 557.2728,-66.5187"/>
<polygon fill="#191970" stroke="#191970" points="503.2855,-73.2893 494.1218,-78.607 504.6016,-80.1645 503.2855,-73.2893"/>
</g>
<!-- Node170 -->
<g id="node10" class="node">
<title>Node170</title>
<g id="a_node10"><a xlink:href="user__main_8h.html#a3671381db669a16e8f6a4bf3dfb9a441" target="_top" xlink:title="system_init_done">
<polygon fill="#ffffff" stroke="#000000" points="709,-57.5 709,-76.5 803,-76.5 803,-57.5 709,-57.5"/>
<text text-anchor="middle" x="756" y="-64.5" font-family="Helvetica,sans-Serif" font-size="10.00" fill="#000000">system_init_done</text>
</a>
</g>
</g>
<!-- Node169&#45;&gt;Node170 -->
<g id="edge9" class="edge">
<title>Node169&#45;&gt;Node170</title>
<path fill="none" stroke="#191970" d="M683.361,-62.1249C692.0092,-62.7053 700.624,-63.2835 708.7387,-63.8281"/>
<polygon fill="#191970" stroke="#191970" points="683.4332,-58.622 673.2213,-61.4444 682.9644,-65.6063 683.4332,-58.622"/>
</g>
<!-- Node170&#45;&gt;Node167 -->
<g id="edge10" class="edge">
<title>Node170&#45;&gt;Node167</title>
<path fill="none" stroke="#191970" d="M783.6188,-81.3116C803.6333,-91.6827 830.1419,-105.419 847.6156,-114.4735"/>
<polygon fill="#191970" stroke="#191970" points="785.1491,-78.1626 774.66,-76.6693 781.9285,-84.3777 785.1491,-78.1626"/>
</g>
<!-- Node171&#45;&gt;Node165 -->
<g id="edge12" class="edge">
<title>Node171&#45;&gt;Node165</title>
<path fill="none" stroke="#191970" d="M374.4372,-124C384.8741,-124 395.7023,-124 405.917,-124"/>
<polygon fill="#191970" stroke="#191970" points="374.1681,-120.5001 364.168,-124 374.168,-127.5001 374.1681,-120.5001"/>
</g>
<!-- Node171&#45;&gt;Node167 -->
<g id="edge14" class="edge">
<title>Node171&#45;&gt;Node167</title>
<path fill="none" stroke="#191970" d="M363.7147,-135.7979C377.234,-138.7621 392.1292,-141.5196 406,-143 581.4481,-161.7247 628.4445,-168.7491 803,-143 815.545,-141.1495 829.0553,-137.3316 840.3354,-133.6004"/>
<polygon fill="#191970" stroke="#191970" points="364.2125,-132.3216 353.6844,-133.5086 362.6549,-139.1461 364.2125,-132.3216"/>
</g>
<!-- Node171&#45;&gt;Node168 -->
<g id="edge13" class="edge">
<title>Node171&#45;&gt;Node168</title>
<path fill="none" stroke="#191970" d="M362.5729,-111.6817C381.4645,-106.4607 403.1472,-100.4684 420.814,-95.5859"/>
<polygon fill="#191970" stroke="#191970" points="361.4034,-108.3736 352.6971,-114.411 363.2681,-115.1207 361.4034,-108.3736"/>
</g>
<!-- Node172&#45;&gt;Node169 -->
<g id="edge16" class="edge">
<title>Node172&#45;&gt;Node169</title>
<path fill="none" stroke="#191970" d="M380.1298,-49.9348C427.5061,-51.4102 492.6193,-53.438 540.9407,-54.9428"/>
<polygon fill="#191970" stroke="#191970" points="380.1053,-46.4325 370.0012,-49.6194 379.8874,-53.4291 380.1053,-46.4325"/>
</g>
<!-- Node173 -->
<g id="node13" class="node">
<title>Node173</title>
<g id="a_node13"><a xlink:href="user__main_8h.html#a7a3bf0cc09d98adc72f4e34d26ce3fa1" target="_top" xlink:title="wifi_changed_cb">
<polygon fill="#ffffff" stroke="#000000" points="410,-.5 410,-19.5 501,-19.5 501,-.5 410,-.5"/>
<text text-anchor="middle" x="455.5" y="-7.5" font-family="Helvetica,sans-Serif" font-size="10.00" fill="#000000">wifi_changed_cb</text>
</a>
</g>
</g>
<!-- Node172&#45;&gt;Node173 -->
<g id="edge17" class="edge">
<title>Node172&#45;&gt;Node173</title>
<path fill="none" stroke="#191970" d="M362.5729,-35.6817C381.4645,-30.4607 403.1472,-24.4684 420.814,-19.5859"/>
<polygon fill="#191970" stroke="#191970" points="361.4034,-32.3736 352.6971,-38.411 363.2681,-39.1207 361.4034,-32.3736"/>
</g>
<!-- Node173&#45;&gt;Node169 -->
<g id="edge18" class="edge">
<title>Node173&#45;&gt;Node169</title>
<path fill="none" stroke="#191970" d="M495.7984,-22.5018C520.9937,-30.3182 552.9455,-40.2306 576.1277,-47.4224"/>
<polygon fill="#191970" stroke="#191970" points="496.7463,-19.1314 486.1583,-19.5112 494.6722,-25.8171 496.7463,-19.1314"/>
</g>
</g>
</svg>
