<?xml version="1.0" encoding="UTF-8" standalone="no"?>
<!DOCTYPE svg PUBLIC "-//W3C//DTD SVG 1.1//EN"
 "http://www.w3.org/Graphics/SVG/1.1/DTD/svg11.dtd">
<!-- Generated by graphviz version 2.40.1 (20161225.0304)
 -->
<!-- Title: led_stop_pattern Pages: 1 -->
<svg width="985pt" height="193pt"
 viewBox="0.00 0.00 985.00 192.66" xmlns="http://www.w3.org/2000/svg" xmlns:xlink="http://www.w3.org/1999/xlink">
<g id="graph0" class="graph" transform="scale(1 1) rotate(0) translate(4 188.663)">
<title>led_stop_pattern</title>
<polygon fill="#ffffff" stroke="transparent" points="-4,4 -4,-188.663 981,-188.663 981,4 -4,4"/>
<!-- Node125 -->
<g id="node1" class="node">
<title>Node125</title>
<polygon fill="#bfbfbf" stroke="#000000" points="0,-70.163 0,-89.163 91,-89.163 91,-70.163 0,-70.163"/>
<text text-anchor="middle" x="45.5" y="-77.163" font-family="Helvetica,sans-Serif" font-size="10.00" fill="#000000">led_stop_pattern</text>
</g>
<!-- Node126 -->
<g id="node2" class="node">
<title>Node126</title>
<g id="a_node2"><a xlink:href="ac__out_8c.html#a07e9d906599f62767ef1efb99d8fce11" target="_top" xlink:title="ac_out_off_timer_func">
<polygon fill="#ffffff" stroke="#000000" points="127,-127.163 127,-146.163 242,-146.163 242,-127.163 127,-127.163"/>
<text text-anchor="middle" x="184.5" y="-134.163" font-family="Helvetica,sans-Serif" font-size="10.00" fill="#000000">ac_out_off_timer_func</text>
</a>
</g>
</g>
<!-- Node125&#45;&gt;Node126 -->
<g id="edge1" class="edge">
<title>Node125&#45;&gt;Node126</title>
<path fill="none" stroke="#191970" d="M73.4154,-93.6686C88.9898,-101.2305 108.8541,-110.4633 127,-117.663 135.4043,-120.9975 144.651,-124.2359 153.2258,-127.0664"/>
<polygon fill="#191970" stroke="#191970" points="74.8455,-90.4718 64.3262,-89.2093 71.7623,-96.7562 74.8455,-90.4718"/>
</g>
<!-- Node132 -->
<g id="node8" class="node">
<title>Node132</title>
<g id="a_node8"><a xlink:href="ac__out_8h.html#aa3b68ad0802843bd0874e86712d6fef4" target="_top" xlink:title="ac_thermo_pwm">
<polygon fill="#ffffff" stroke="#000000" points="139.5,-89.163 139.5,-108.163 229.5,-108.163 229.5,-89.163 139.5,-89.163"/>
<text text-anchor="middle" x="184.5" y="-96.163" font-family="Helvetica,sans-Serif" font-size="10.00" fill="#000000">ac_thermo_pwm</text>
</a>
</g>
</g>
<!-- Node125&#45;&gt;Node132 -->
<g id="edge9" class="edge">
<title>Node125&#45;&gt;Node132</title>
<path fill="none" stroke="#191970" d="M101.0425,-87.2551C113.7642,-88.9941 127.1367,-90.822 139.3587,-92.4926"/>
<polygon fill="#191970" stroke="#191970" points="101.3957,-83.7709 91.0138,-85.8843 100.4476,-90.7064 101.3957,-83.7709"/>
</g>
<!-- Node133 -->
<g id="node9" class="node">
<title>Node133</title>
<g id="a_node9"><a xlink:href="wifi_8c.html#a9c38abb0900e0c7308be77d85dbf09e0" target="_top" xlink:title="wifi_connect">
<polygon fill="#ffffff" stroke="#000000" points="606.5,-51.163 606.5,-70.163 678.5,-70.163 678.5,-51.163 606.5,-51.163"/>
<text text-anchor="middle" x="642.5" y="-58.163" font-family="Helvetica,sans-Serif" font-size="10.00" fill="#000000">wifi_connect</text>
</a>
</g>
</g>
<!-- Node125&#45;&gt;Node133 -->
<g id="edge10" class="edge">
<title>Node125&#45;&gt;Node133</title>
<path fill="none" stroke="#191970" d="M101.5157,-77.8802C222.5514,-74.0282 505.6625,-65.0179 606.2481,-61.8167"/>
<polygon fill="#191970" stroke="#191970" points="101.2379,-74.3872 91.3543,-78.2036 101.4606,-81.3837 101.2379,-74.3872"/>
</g>
<!-- Node134 -->
<g id="node10" class="node">
<title>Node134</title>
<g id="a_node10"><a xlink:href="wifi_8c.html#a1ef15ecd9e69811f6db10215c7196281" target="_top" xlink:title="wifi_scan_done_cb">
<polygon fill="#ffffff" stroke="#000000" points="133.5,-13.163 133.5,-32.163 235.5,-32.163 235.5,-13.163 133.5,-13.163"/>
<text text-anchor="middle" x="184.5" y="-20.163" font-family="Helvetica,sans-Serif" font-size="10.00" fill="#000000">wifi_scan_done_cb</text>
</a>
</g>
</g>
<!-- Node125&#45;&gt;Node134 -->
<g id="edge11" class="edge">
<title>Node125&#45;&gt;Node134</title>
<path fill="none" stroke="#191970" d="M78.0331,-66.3221C103.5264,-55.868 138.3798,-41.5756 161.1586,-32.2346"/>
<polygon fill="#191970" stroke="#191970" points="76.6898,-63.09 68.7655,-70.1225 79.3457,-69.5666 76.6898,-63.09"/>
</g>
<!-- Node127 -->
<g id="node3" class="node">
<title>Node127</title>
<g id="a_node3"><a xlink:href="ac__out_8h.html#a483eac71fafd6926d6e16c08b87530ef" target="_top" xlink:title="ac_motor_valve_close">
<polygon fill="#ffffff" stroke="#000000" points="424,-165.163 424,-184.163 540,-184.163 540,-165.163 424,-165.163"/>
<text text-anchor="middle" x="482" y="-172.163" font-family="Helvetica,sans-Serif" font-size="10.00" fill="#000000">ac_motor_valve_close</text>
</a>
</g>
</g>
<!-- Node126&#45;&gt;Node127 -->
<g id="edge2" class="edge">
<title>Node126&#45;&gt;Node127</title>
<path fill="none" stroke="#191970" d="M236.7053,-148.3047C250.1135,-151.01 264.5502,-153.676 278,-155.663 326.9113,-162.8889 382.8503,-167.8694 423.7655,-170.9126"/>
<polygon fill="#191970" stroke="#191970" points="237.1867,-144.8304 226.6859,-146.2388 235.7731,-151.6862 237.1867,-144.8304"/>
</g>
<!-- Node128 -->
<g id="node4" class="node">
<title>Node128</title>
<g id="a_node4"><a xlink:href="ac__out_8h.html#aa17a09f7811a797293e31a39906ec1b0" target="_top" xlink:title="ac_motor_valve_open">
<polygon fill="#ffffff" stroke="#000000" points="424.5,-89.163 424.5,-108.163 539.5,-108.163 539.5,-89.163 424.5,-89.163"/>
<text text-anchor="middle" x="482" y="-96.163" font-family="Helvetica,sans-Serif" font-size="10.00" fill="#000000">ac_motor_valve_open</text>
</a>
</g>
</g>
<!-- Node126&#45;&gt;Node128 -->
<g id="edge3" class="edge">
<title>Node126&#45;&gt;Node128</title>
<path fill="none" stroke="#191970" d="M236.7053,-125.0213C250.1135,-122.316 264.5502,-119.65 278,-117.663 327.0873,-110.4111 383.2528,-105.4208 424.2065,-102.3806"/>
<polygon fill="#191970" stroke="#191970" points="235.7731,-121.6398 226.6859,-127.0871 237.1867,-128.4956 235.7731,-121.6398"/>
</g>
<!-- Node129 -->
<g id="node5" class="node">
<title>Node129</title>
<g id="a_node5"><a xlink:href="ac__out_8h.html#aaa0444bb417d9a634d5304b267f4fcda" target="_top" xlink:title="ac_off">
<polygon fill="#ffffff" stroke="#000000" points="311,-127.163 311,-146.163 355,-146.163 355,-127.163 311,-127.163"/>
<text text-anchor="middle" x="333" y="-134.163" font-family="Helvetica,sans-Serif" font-size="10.00" fill="#000000">ac_off</text>
</a>
</g>
</g>
<!-- Node126&#45;&gt;Node129 -->
<g id="edge4" class="edge">
<title>Node126&#45;&gt;Node129</title>
<path fill="none" stroke="#191970" d="M252.5526,-136.663C273.5268,-136.663 295.1651,-136.663 310.7103,-136.663"/>
<polygon fill="#191970" stroke="#191970" points="252.3392,-133.1631 242.3392,-136.663 252.3392,-140.1631 252.3392,-133.1631"/>
</g>
<!-- Node129&#45;&gt;Node127 -->
<g id="edge5" class="edge">
<title>Node129&#45;&gt;Node127</title>
<path fill="none" stroke="#191970" d="M365.058,-144.8388C388.3664,-150.7833 419.9919,-158.8488 444.4777,-165.0935"/>
<polygon fill="#191970" stroke="#191970" points="365.8616,-141.4318 355.3068,-142.352 364.1317,-148.2147 365.8616,-141.4318"/>
</g>
<!-- Node129&#45;&gt;Node128 -->
<g id="edge6" class="edge">
<title>Node129&#45;&gt;Node128</title>
<path fill="none" stroke="#191970" d="M365.058,-128.4871C388.3664,-122.5427 419.9919,-114.4771 444.4777,-108.2324"/>
<polygon fill="#191970" stroke="#191970" points="364.1317,-125.1112 355.3068,-130.974 365.8616,-131.8941 364.1317,-125.1112"/>
</g>
<!-- Node130 -->
<g id="node6" class="node">
<title>Node130</title>
<g id="a_node6"><a xlink:href="cron_8c.html#a2782af03df9b913cfa565a0770e1afe1" target="_top" xlink:title="minute_timer_func">
<polygon fill="#ffffff" stroke="#000000" points="432.5,-127.163 432.5,-146.163 531.5,-146.163 531.5,-127.163 432.5,-127.163"/>
<text text-anchor="middle" x="482" y="-134.163" font-family="Helvetica,sans-Serif" font-size="10.00" fill="#000000">minute_timer_func</text>
</a>
</g>
</g>
<!-- Node129&#45;&gt;Node130 -->
<g id="edge7" class="edge">
<title>Node129&#45;&gt;Node130</title>
<path fill="none" stroke="#191970" d="M365.524,-136.663C385.0785,-136.663 410.3604,-136.663 432.3706,-136.663"/>
<polygon fill="#191970" stroke="#191970" points="365.3068,-133.1631 355.3068,-136.663 365.3068,-140.1631 365.3068,-133.1631"/>
</g>
<!-- Node131 -->
<g id="node7" class="node">
<title>Node131</title>
<g id="a_node7"><a xlink:href="cron_8h.html#ae130c5973bad35b56776750c7a34db12" target="_top" xlink:title="cron_init">
<polygon fill="#ffffff" stroke="#000000" points="615.5,-127.163 615.5,-146.163 669.5,-146.163 669.5,-127.163 615.5,-127.163"/>
<text text-anchor="middle" x="642.5" y="-134.163" font-family="Helvetica,sans-Serif" font-size="10.00" fill="#000000">cron_init</text>
</a>
</g>
</g>
<!-- Node130&#45;&gt;Node131 -->
<g id="edge8" class="edge">
<title>Node130&#45;&gt;Node131</title>
<path fill="none" stroke="#191970" d="M542.0814,-136.663C567.1605,-136.663 595.0496,-136.663 615.0601,-136.663"/>
<polygon fill="#191970" stroke="#191970" points="541.9034,-133.1631 531.9034,-136.663 541.9034,-140.1631 541.9034,-133.1631"/>
</g>
<!-- Node135 -->
<g id="node11" class="node">
<title>Node135</title>
<g id="a_node11"><a xlink:href="wifi_8c.html#ae7011f25db54676b86fefe2caa450a4a" target="_top" xlink:title="wifi_scan_timer_func">
<polygon fill="#ffffff" stroke="#000000" points="278,-13.163 278,-32.163 388,-32.163 388,-13.163 278,-13.163"/>
<text text-anchor="middle" x="333" y="-20.163" font-family="Helvetica,sans-Serif" font-size="10.00" fill="#000000">wifi_scan_timer_func</text>
</a>
</g>
</g>
<!-- Node134&#45;&gt;Node135 -->
<g id="edge12" class="edge">
<title>Node134&#45;&gt;Node135</title>
<path fill="none" stroke="#191970" d="M245.7159,-22.663C256.4119,-22.663 267.4805,-22.663 277.9959,-22.663"/>
<polygon fill="#191970" stroke="#191970" points="245.6053,-19.1631 235.6053,-22.663 245.6052,-26.1631 245.6053,-19.1631"/>
</g>
<!-- Node136 -->
<g id="node12" class="node">
<title>Node136</title>
<g id="a_node12"><a xlink:href="wifi_8c.html#a5831b420da0012d53c979c375714d382" target="_top" xlink:title="wifi_start_scan">
<polygon fill="#ffffff" stroke="#000000" points="440.5,-13.163 440.5,-32.163 523.5,-32.163 523.5,-13.163 440.5,-13.163"/>
<text text-anchor="middle" x="482" y="-20.163" font-family="Helvetica,sans-Serif" font-size="10.00" fill="#000000">wifi_start_scan</text>
</a>
</g>
</g>
<!-- Node135&#45;&gt;Node136 -->
<g id="edge13" class="edge">
<title>Node135&#45;&gt;Node136</title>
<path fill="none" stroke="#191970" d="M398.3029,-22.663C412.5232,-22.663 427.1974,-22.663 440.2103,-22.663"/>
<polygon fill="#191970" stroke="#191970" points="398.0588,-19.1631 388.0588,-22.663 398.0587,-26.1631 398.0588,-19.1631"/>
</g>
<!-- Node136&#45;&gt;Node133 -->
<g id="edge14" class="edge">
<title>Node136&#45;&gt;Node133</title>
<path fill="none" stroke="#191970" d="M532.4958,-34.6184C556.4783,-40.2965 584.5909,-46.9524 606.3932,-52.1143"/>
<polygon fill="#191970" stroke="#191970" points="533.0383,-31.1501 522.5009,-32.252 531.4255,-37.9618 533.0383,-31.1501"/>
</g>
<!-- Node136&#45;&gt;Node134 -->
<g id="edge18" class="edge">
<title>Node136&#45;&gt;Node134</title>
<path fill="none" stroke="#191970" d="M433.977,-11.0384C419.3112,-8.0082 403.0758,-5.1713 388,-3.663 339.354,1.2042 326.6435,1.2294 278,-3.663 259.541,-5.5195 239.3371,-9.3883 222.4483,-13.1533"/>
<polygon fill="#191970" stroke="#191970" points="433.3345,-14.4801 443.8459,-13.1532 434.8013,-7.6355 433.3345,-14.4801"/>
</g>
<!-- Node137 -->
<g id="node13" class="node">
<title>Node137</title>
<g id="a_node13"><a xlink:href="watchdog_8c.html#a47b6861ffbed37fef88aa644f10ba917" target="_top" xlink:title="wifi_reconnect_timer_func">
<polygon fill="#ffffff" stroke="#000000" points="576,-13.163 576,-32.163 709,-32.163 709,-13.163 576,-13.163"/>
<text text-anchor="middle" x="642.5" y="-20.163" font-family="Helvetica,sans-Serif" font-size="10.00" fill="#000000">wifi_reconnect_timer_func</text>
</a>
</g>
</g>
<!-- Node136&#45;&gt;Node137 -->
<g id="edge15" class="edge">
<title>Node136&#45;&gt;Node137</title>
<path fill="none" stroke="#191970" d="M534.1201,-22.663C547.4063,-22.663 561.8703,-22.663 575.7762,-22.663"/>
<polygon fill="#191970" stroke="#191970" points="533.7505,-19.1631 523.7505,-22.663 533.7505,-26.1631 533.7505,-19.1631"/>
</g>
<!-- Node138 -->
<g id="node14" class="node">
<title>Node138</title>
<g id="a_node14"><a xlink:href="watchdog_8c.html#aeb03c505b5b589ae4d89b2ae11dd1711" target="_top" xlink:title="watchdog_timer_func">
<polygon fill="#ffffff" stroke="#000000" points="745,-13.163 745,-32.163 857,-32.163 857,-13.163 745,-13.163"/>
<text text-anchor="middle" x="801" y="-20.163" font-family="Helvetica,sans-Serif" font-size="10.00" fill="#000000">watchdog_timer_func</text>
</a>
</g>
</g>
<!-- Node137&#45;&gt;Node138 -->
<g id="edge16" class="edge">
<title>Node137&#45;&gt;Node138</title>
<path fill="none" stroke="#191970" d="M719.3189,-22.663C727.9243,-22.663 736.5679,-22.663 744.8435,-22.663"/>
<polygon fill="#191970" stroke="#191970" points="719.2589,-19.1631 709.2589,-22.663 719.2589,-26.1631 719.2589,-19.1631"/>
</g>
<!-- Node139 -->
<g id="node15" class="node">
<title>Node139</title>
<g id="a_node15"><a xlink:href="watchdog_8h.html#ab148f2150b52df5b60e312dded3a2934" target="_top" xlink:title="start_watchdog">
<polygon fill="#ffffff" stroke="#000000" points="893,-13.163 893,-32.163 977,-32.163 977,-13.163 893,-13.163"/>
<text text-anchor="middle" x="935" y="-20.163" font-family="Helvetica,sans-Serif" font-size="10.00" fill="#000000">start_watchdog</text>
</a>
</g>
</g>
<!-- Node138&#45;&gt;Node139 -->
<g id="edge17" class="edge">
<title>Node138&#45;&gt;Node139</title>
<path fill="none" stroke="#191970" d="M867.1744,-22.663C875.8343,-22.663 884.5125,-22.663 892.6303,-22.663"/>
<polygon fill="#191970" stroke="#191970" points="867.0517,-19.1631 857.0516,-22.663 867.0516,-26.1631 867.0517,-19.1631"/>
</g>
</g>
</svg>
