<?xml version="1.0" encoding="UTF-8" standalone="no"?>
<!DOCTYPE svg PUBLIC "-//W3C//DTD SVG 1.1//EN"
 "http://www.w3.org/Graphics/SVG/1.1/DTD/svg11.dtd">
<!-- Generated by graphviz version 2.40.1 (20161225.0304)
 -->
<!-- Title: led_stop_pattern Pages: 1 -->
<svg width="306pt" height="28pt"
 viewBox="0.00 0.00 306.00 28.00" xmlns="http://www.w3.org/2000/svg" xmlns:xlink="http://www.w3.org/1999/xlink">
<g id="graph0" class="graph" transform="scale(1 1) rotate(0) translate(4 24)">
<title>led_stop_pattern</title>
<polygon fill="#ffffff" stroke="transparent" points="-4,4 -4,-24 302,-24 302,4 -4,4"/>
<!-- Node159 -->
<g id="node1" class="node">
<title>Node159</title>
<polygon fill="#bfbfbf" stroke="#000000" points="0,-.5 0,-19.5 91,-19.5 91,-.5 0,-.5"/>
<text text-anchor="middle" x="45.5" y="-7.5" font-family="Helvetica,sans-Serif" font-size="10.00" fill="#000000">led_stop_pattern</text>
</g>
<!-- Node160 -->
<g id="node2" class="node">
<title>Node160</title>
<g id="a_node2"><a xlink:href="led_8c.html#a7ef0b27e501c77cd25b8bb7a2de6d8bd" target="_top" xlink:title="led_off">
<polygon fill="#ffffff" stroke="#000000" points="127,-.5 127,-19.5 174,-19.5 174,-.5 127,-.5"/>
<text text-anchor="middle" x="150.5" y="-7.5" font-family="Helvetica,sans-Serif" font-size="10.00" fill="#000000">led_off</text>
</a>
</g>
</g>
<!-- Node159&#45;&gt;Node160 -->
<g id="edge1" class="edge">
<title>Node159&#45;&gt;Node160</title>
<path fill="none" stroke="#191970" d="M91.2491,-10C99.7796,-10 108.552,-10 116.645,-10"/>
<polygon fill="#191970" stroke="#191970" points="116.8153,-13.5001 126.8153,-10 116.8152,-6.5001 116.8153,-13.5001"/>
</g>
<!-- Node161 -->
<g id="node3" class="node">
<title>Node161</title>
<g id="a_node3"><a xlink:href="gpio_8h.html#a83bac74ff5b2158e0c86da73ada29718" target="_top" xlink:title="gpio_output_set">
<polygon fill="#ffffff" stroke="#000000" points="210,-.5 210,-19.5 298,-19.5 298,-.5 210,-.5"/>
<text text-anchor="middle" x="254" y="-7.5" font-family="Helvetica,sans-Serif" font-size="10.00" fill="#000000">gpio_output_set</text>
</a>
</g>
</g>
<!-- Node160&#45;&gt;Node161 -->
<g id="edge2" class="edge">
<title>Node160&#45;&gt;Node161</title>
<path fill="none" stroke="#191970" d="M174.245,-10C181.8767,-10 190.6713,-10 199.5717,-10"/>
<polygon fill="#191970" stroke="#191970" points="199.6094,-13.5001 209.6093,-10 199.6093,-6.5001 199.6094,-13.5001"/>
</g>
</g>
</svg>
