<?xml version="1.0" encoding="UTF-8" standalone="no"?>
<!DOCTYPE svg PUBLIC "-//W3C//DTD SVG 1.1//EN"
 "http://www.w3.org/Graphics/SVG/1.1/DTD/svg11.dtd">
<!-- Generated by graphviz version 2.41.20170323.1842 (20170323.1842)
 -->
<!-- Title: st_check_for_input Pages: 1 -->
<svg width="767pt" height="1050pt"
 viewBox="0.00 0.00 767.00 1050.00" xmlns="http://www.w3.org/2000/svg" xmlns:xlink="http://www.w3.org/1999/xlink">
<g id="graph0" class="graph" transform="scale(1 1) rotate(0) translate(4 1046)">
<title>st_check_for_input</title>
<polygon fill="#ffffff" stroke="transparent" points="-4,4 -4,-1046 763,-1046 763,4 -4,4"/>
<!-- Node422 -->
<g id="node1" class="node">
<title>Node422</title>
<polygon fill="#bfbfbf" stroke="#000000" points="0,-578.5 0,-597.5 100,-597.5 100,-578.5 0,-578.5"/>
<text text-anchor="middle" x="50" y="-585.5" font-family="Helvetica,sans-Serif" font-size="10.00" fill="#000000">st_check_for_input</text>
</g>
<!-- Node423 -->
<g id="node2" class="node">
<title>Node423</title>
<g id="a_node2"><a xlink:href="heatshrink__decoder_8h.html#a38406b03b9df8b993c6a3fa144675627" target="_top" xlink:title="heatshrink_decoder_poll">
<polygon fill="#ffffff" stroke="#000000" points="136,-578.5 136,-597.5 261,-597.5 261,-578.5 136,-578.5"/>
<text text-anchor="middle" x="198.5" y="-585.5" font-family="Helvetica,sans-Serif" font-size="10.00" fill="#000000">heatshrink_decoder_poll</text>
</a>
</g>
</g>
<!-- Node422&#45;&gt;Node423 -->
<g id="edge1" class="edge">
<title>Node422&#45;&gt;Node423</title>
<path fill="none" stroke="#191970" d="M110.3818,-588C118.7923,-588 127.449,-588 135.8992,-588"/>
<polygon fill="#191970" stroke="#191970" points="110.2754,-584.5001 100.2753,-588 110.2753,-591.5001 110.2754,-584.5001"/>
</g>
<!-- Node424 -->
<g id="node3" class="node">
<title>Node424</title>
<g id="a_node3"><a xlink:href="heatshrink_8c.html#a3f2b305cf4f4bf560265d00373a78bdd" target="_top" xlink:title="decoder_sink_read">
<polygon fill="#ffffff" stroke="#000000" points="326.5,-1022.5 326.5,-1041.5 428.5,-1041.5 428.5,-1022.5 326.5,-1022.5"/>
<text text-anchor="middle" x="377.5" y="-1029.5" font-family="Helvetica,sans-Serif" font-size="10.00" fill="#000000">decoder_sink_read</text>
</a>
</g>
</g>
<!-- Node423&#45;&gt;Node424 -->
<g id="edge2" class="edge">
<title>Node423&#45;&gt;Node424</title>
<path fill="none" stroke="#191970" d="M200.3362,-607.635C207.7971,-683.2131 238.2815,-954.0438 297,-1013 304.904,-1020.936 315.4647,-1025.7998 326.3293,-1028.7269"/>
<polygon fill="#191970" stroke="#191970" points="203.8117,-607.2125 199.3684,-597.5944 196.844,-607.8841 203.8117,-607.2125"/>
</g>
<!-- Node427 -->
<g id="node6" class="node">
<title>Node427</title>
<g id="a_node6"><a xlink:href="test__heatshrink__dynamic_8c.html#a89837d79f51959fccccd28df0356fe37" target="_top" xlink:title="decoder_poll_should\l_return_empty_if_empty">
<polygon fill="#ffffff" stroke="#000000" points="315.5,-973 315.5,-1003 439.5,-1003 439.5,-973 315.5,-973"/>
<text text-anchor="start" x="323.5" y="-991" font-family="Helvetica,sans-Serif" font-size="10.00" fill="#000000">decoder_poll_should</text>
<text text-anchor="middle" x="377.5" y="-980" font-family="Helvetica,sans-Serif" font-size="10.00" fill="#000000">_return_empty_if_empty</text>
</a>
</g>
</g>
<!-- Node423&#45;&gt;Node427 -->
<g id="edge5" class="edge">
<title>Node423&#45;&gt;Node427</title>
<path fill="none" stroke="#191970" d="M201.128,-607.9296C210.743,-677.9635 246.1214,-911.3859 297,-964 302.1703,-969.3466 308.4754,-973.5155 315.258,-976.7636"/>
<polygon fill="#191970" stroke="#191970" points="204.5687,-607.2542 199.7635,-597.8117 197.6315,-608.1898 204.5687,-607.2542"/>
</g>
<!-- Node429 -->
<g id="node8" class="node">
<title>Node429</title>
<g id="a_node8"><a xlink:href="test__heatshrink__dynamic_8c.html#a289dd3f831fdabb987c0d206e5cf13d5" target="_top" xlink:title="decoder_poll_should\l_reject_null_hsd">
<polygon fill="#ffffff" stroke="#000000" points="323,-924 323,-954 432,-954 432,-924 323,-924"/>
<text text-anchor="start" x="331" y="-942" font-family="Helvetica,sans-Serif" font-size="10.00" fill="#000000">decoder_poll_should</text>
<text text-anchor="middle" x="377.5" y="-931" font-family="Helvetica,sans-Serif" font-size="10.00" fill="#000000">_reject_null_hsd</text>
</a>
</g>
</g>
<!-- Node423&#45;&gt;Node429 -->
<g id="edge7" class="edge">
<title>Node423&#45;&gt;Node429</title>
<path fill="none" stroke="#191970" d="M201.9625,-607.692C213.4955,-671.196 252.409,-869.0647 297,-914 304.1125,-921.1675 313.2391,-926.2874 322.7772,-929.9428"/>
<polygon fill="#191970" stroke="#191970" points="205.3935,-606.9954 200.1859,-597.7687 198.5031,-608.2291 205.3935,-606.9954"/>
</g>
<!-- Node430 -->
<g id="node9" class="node">
<title>Node430</title>
<g id="a_node9"><a xlink:href="test__heatshrink__dynamic_8c.html#af707dda355411d96de31c8bdaa687108" target="_top" xlink:title="decoder_poll_should\l_reject_null_output\l_buffer">
<polygon fill="#ffffff" stroke="#000000" points="323,-863.5 323,-904.5 432,-904.5 432,-863.5 323,-863.5"/>
<text text-anchor="start" x="331" y="-892.5" font-family="Helvetica,sans-Serif" font-size="10.00" fill="#000000">decoder_poll_should</text>
<text text-anchor="start" x="331" y="-881.5" font-family="Helvetica,sans-Serif" font-size="10.00" fill="#000000">_reject_null_output</text>
<text text-anchor="middle" x="377.5" y="-870.5" font-family="Helvetica,sans-Serif" font-size="10.00" fill="#000000">_buffer</text>
</a>
</g>
</g>
<!-- Node423&#45;&gt;Node430 -->
<g id="edge9" class="edge">
<title>Node423&#45;&gt;Node430</title>
<path fill="none" stroke="#191970" d="M200.2836,-607.8995C205.6891,-656.6064 226.1522,-783.0045 297,-854 304.164,-861.1789 313.2019,-866.6607 322.6128,-870.8405"/>
<polygon fill="#191970" stroke="#191970" points="203.7458,-607.3481 199.2557,-597.7518 196.7814,-608.0536 203.7458,-607.3481"/>
</g>
<!-- Node431 -->
<g id="node10" class="node">
<title>Node431</title>
<g id="a_node10"><a xlink:href="test__heatshrink__dynamic_8c.html#a0e70f90b221a1bee860235c1ad79f7f8" target="_top" xlink:title="decoder_poll_should\l_reject_null_output\l_size_pointer">
<polygon fill="#ffffff" stroke="#000000" points="323,-803.5 323,-844.5 432,-844.5 432,-803.5 323,-803.5"/>
<text text-anchor="start" x="331" y="-832.5" font-family="Helvetica,sans-Serif" font-size="10.00" fill="#000000">decoder_poll_should</text>
<text text-anchor="start" x="331" y="-821.5" font-family="Helvetica,sans-Serif" font-size="10.00" fill="#000000">_reject_null_output</text>
<text text-anchor="middle" x="377.5" y="-810.5" font-family="Helvetica,sans-Serif" font-size="10.00" fill="#000000">_size_pointer</text>
</a>
</g>
</g>
<!-- Node423&#45;&gt;Node431 -->
<g id="edge11" class="edge">
<title>Node423&#45;&gt;Node431</title>
<path fill="none" stroke="#191970" d="M202.6701,-607.6778C212.2383,-648.1716 239.5085,-741.4258 297,-794 304.3743,-800.7436 313.4026,-806.0122 322.714,-810.116"/>
<polygon fill="#191970" stroke="#191970" points="206.0421,-606.7199 200.4304,-597.7333 199.2131,-608.2579 206.0421,-606.7199"/>
</g>
<!-- Node432 -->
<g id="node11" class="node">
<title>Node432</title>
<g id="a_node11"><a xlink:href="test__heatshrink__dynamic_8c.html#afb5cdb53efe5dca1a7a785f344a03655" target="_top" xlink:title="decoder_poll_should\l_expand_short_literal">
<polygon fill="#ffffff" stroke="#000000" points="321.5,-754 321.5,-784 433.5,-784 433.5,-754 321.5,-754"/>
<text text-anchor="start" x="329.5" y="-772" font-family="Helvetica,sans-Serif" font-size="10.00" fill="#000000">decoder_poll_should</text>
<text text-anchor="middle" x="377.5" y="-761" font-family="Helvetica,sans-Serif" font-size="10.00" fill="#000000">_expand_short_literal</text>
</a>
</g>
</g>
<!-- Node423&#45;&gt;Node432 -->
<g id="edge13" class="edge">
<title>Node423&#45;&gt;Node432</title>
<path fill="none" stroke="#191970" d="M205.4227,-607.1058C218.3033,-639.9769 249.0716,-707.2339 297,-744 304.199,-749.5224 312.6327,-753.8362 321.2808,-757.203"/>
<polygon fill="#191970" stroke="#191970" points="208.6847,-605.8364 201.8702,-597.7238 202.1383,-608.3153 208.6847,-605.8364"/>
</g>
<!-- Node433 -->
<g id="node12" class="node">
<title>Node433</title>
<g id="a_node12"><a xlink:href="test__heatshrink__dynamic_8c.html#a5f3328adb18355964bab2a3f026f4707" target="_top" xlink:title="decoder_poll_should\l_expand_short_literal\l_and_backref">
<polygon fill="#ffffff" stroke="#000000" points="321.5,-693.5 321.5,-734.5 433.5,-734.5 433.5,-693.5 321.5,-693.5"/>
<text text-anchor="start" x="329.5" y="-722.5" font-family="Helvetica,sans-Serif" font-size="10.00" fill="#000000">decoder_poll_should</text>
<text text-anchor="start" x="329.5" y="-711.5" font-family="Helvetica,sans-Serif" font-size="10.00" fill="#000000">_expand_short_literal</text>
<text text-anchor="middle" x="377.5" y="-700.5" font-family="Helvetica,sans-Serif" font-size="10.00" fill="#000000">_and_backref</text>
</a>
</g>
</g>
<!-- Node423&#45;&gt;Node433 -->
<g id="edge15" class="edge">
<title>Node423&#45;&gt;Node433</title>
<path fill="none" stroke="#191970" d="M212.3377,-605.3524C229.9977,-626.496 262.4267,-662.1004 297,-684 304.5598,-688.7886 312.9979,-692.9805 321.4874,-696.5923"/>
<polygon fill="#191970" stroke="#191970" points="214.9574,-603.0272 205.9123,-597.5103 209.5427,-607.4637 214.9574,-603.0272"/>
</g>
<!-- Node434 -->
<g id="node13" class="node">
<title>Node434</title>
<g id="a_node13"><a xlink:href="test__heatshrink__dynamic_8c.html#a5f04d534aa5ff2bc1fb218feea741774" target="_top" xlink:title="decoder_poll_should\l_expand_short_self_overlapping\l_backref">
<polygon fill="#ffffff" stroke="#000000" points="297,-633.5 297,-674.5 458,-674.5 458,-633.5 297,-633.5"/>
<text text-anchor="start" x="305" y="-662.5" font-family="Helvetica,sans-Serif" font-size="10.00" fill="#000000">decoder_poll_should</text>
<text text-anchor="start" x="305" y="-651.5" font-family="Helvetica,sans-Serif" font-size="10.00" fill="#000000">_expand_short_self_overlapping</text>
<text text-anchor="middle" x="377.5" y="-640.5" font-family="Helvetica,sans-Serif" font-size="10.00" fill="#000000">_backref</text>
</a>
</g>
</g>
<!-- Node423&#45;&gt;Node434 -->
<g id="edge17" class="edge">
<title>Node423&#45;&gt;Node434</title>
<path fill="none" stroke="#191970" d="M234.0046,-601.0911C259.0854,-610.3387 293.1999,-622.9173 321.8732,-633.4895"/>
<polygon fill="#191970" stroke="#191970" points="235.1215,-597.7726 224.5281,-597.597 232.6998,-604.3404 235.1215,-597.7726"/>
</g>
<!-- Node435 -->
<g id="node14" class="node">
<title>Node435</title>
<g id="a_node14"><a xlink:href="test__heatshrink__dynamic_8c.html#aed41c11f7d13fb37749ce644efea3b76" target="_top" xlink:title="decoder_poll_should\l_suspend_if_out_of_space\l_in_output_buffer_during\l_literal_expansion">
<polygon fill="#ffffff" stroke="#000000" points="309.5,-562 309.5,-614 445.5,-614 445.5,-562 309.5,-562"/>
<text text-anchor="start" x="317.5" y="-602" font-family="Helvetica,sans-Serif" font-size="10.00" fill="#000000">decoder_poll_should</text>
<text text-anchor="start" x="317.5" y="-591" font-family="Helvetica,sans-Serif" font-size="10.00" fill="#000000">_suspend_if_out_of_space</text>
<text text-anchor="start" x="317.5" y="-580" font-family="Helvetica,sans-Serif" font-size="10.00" fill="#000000">_in_output_buffer_during</text>
<text text-anchor="middle" x="377.5" y="-569" font-family="Helvetica,sans-Serif" font-size="10.00" fill="#000000">_literal_expansion</text>
</a>
</g>
</g>
<!-- Node423&#45;&gt;Node435 -->
<g id="edge19" class="edge">
<title>Node423&#45;&gt;Node435</title>
<path fill="none" stroke="#191970" d="M271.1349,-588C283.7909,-588 296.9136,-588 309.4409,-588"/>
<polygon fill="#191970" stroke="#191970" points="271.1055,-584.5001 261.1055,-588 271.1055,-591.5001 271.1055,-584.5001"/>
</g>
<!-- Node436 -->
<g id="node15" class="node">
<title>Node436</title>
<g id="a_node15"><a xlink:href="test__heatshrink__dynamic_8c.html#a4c76ed65aa09f4c123ed378507c3ddbb" target="_top" xlink:title="decoder_poll_should\l_suspend_if_out_of_space\l_in_output_buffer_during\l_backref_expansion">
<polygon fill="#ffffff" stroke="#000000" points="309.5,-491 309.5,-543 445.5,-543 445.5,-491 309.5,-491"/>
<text text-anchor="start" x="317.5" y="-531" font-family="Helvetica,sans-Serif" font-size="10.00" fill="#000000">decoder_poll_should</text>
<text text-anchor="start" x="317.5" y="-520" font-family="Helvetica,sans-Serif" font-size="10.00" fill="#000000">_suspend_if_out_of_space</text>
<text text-anchor="start" x="317.5" y="-509" font-family="Helvetica,sans-Serif" font-size="10.00" fill="#000000">_in_output_buffer_during</text>
<text text-anchor="middle" x="377.5" y="-498" font-family="Helvetica,sans-Serif" font-size="10.00" fill="#000000">_backref_expansion</text>
</a>
</g>
</g>
<!-- Node423&#45;&gt;Node436 -->
<g id="edge21" class="edge">
<title>Node423&#45;&gt;Node436</title>
<path fill="none" stroke="#191970" d="M232.0459,-574.6941C254.4693,-565.7999 284.7174,-553.802 311.8218,-543.0511"/>
<polygon fill="#191970" stroke="#191970" points="230.6457,-571.4841 222.6407,-578.4246 233.2267,-577.9909 230.6457,-571.4841"/>
</g>
<!-- Node437 -->
<g id="node16" class="node">
<title>Node437</title>
<g id="a_node16"><a xlink:href="test__heatshrink__dynamic_8c.html#aaf61f9d548405f6ea0b9cc6d4dd86589" target="_top" xlink:title="decoder_poll_should\l_expand_short_literal\l_and_backref_when_fed\l_input_byte_by_byte">
<polygon fill="#ffffff" stroke="#000000" points="314.5,-420 314.5,-472 440.5,-472 440.5,-420 314.5,-420"/>
<text text-anchor="start" x="322.5" y="-460" font-family="Helvetica,sans-Serif" font-size="10.00" fill="#000000">decoder_poll_should</text>
<text text-anchor="start" x="322.5" y="-449" font-family="Helvetica,sans-Serif" font-size="10.00" fill="#000000">_expand_short_literal</text>
<text text-anchor="start" x="322.5" y="-438" font-family="Helvetica,sans-Serif" font-size="10.00" fill="#000000">_and_backref_when_fed</text>
<text text-anchor="middle" x="377.5" y="-427" font-family="Helvetica,sans-Serif" font-size="10.00" fill="#000000">_input_byte_by_byte</text>
</a>
</g>
</g>
<!-- Node423&#45;&gt;Node437 -->
<g id="edge23" class="edge">
<title>Node423&#45;&gt;Node437</title>
<path fill="none" stroke="#191970" d="M211.4296,-570.1381C228.758,-547.23 261.4744,-507.4314 297,-482 302.3529,-478.1681 308.1788,-474.6077 314.1676,-471.3359"/>
<polygon fill="#191970" stroke="#191970" points="208.5243,-568.1798 205.3718,-578.2947 214.144,-572.3534 208.5243,-568.1798"/>
</g>
<!-- Node438 -->
<g id="node17" class="node">
<title>Node438</title>
<g id="a_node17"><a xlink:href="test__heatshrink__dynamic_8c.html#a1f5bd6590b5a6d8ae285c99739e59839" target="_top" xlink:title="decoder_finish_should\l_note_when_done">
<polygon fill="#ffffff" stroke="#000000" points="319,-371 319,-401 436,-401 436,-371 319,-371"/>
<text text-anchor="start" x="327" y="-389" font-family="Helvetica,sans-Serif" font-size="10.00" fill="#000000">decoder_finish_should</text>
<text text-anchor="middle" x="377.5" y="-378" font-family="Helvetica,sans-Serif" font-size="10.00" fill="#000000">_note_when_done</text>
</a>
</g>
</g>
<!-- Node423&#45;&gt;Node438 -->
<g id="edge25" class="edge">
<title>Node423&#45;&gt;Node438</title>
<path fill="none" stroke="#191970" d="M204.0407,-568.3957C215.3482,-531.9464 244.5507,-453.5916 297,-411 303.4753,-405.7417 311.058,-401.5856 318.9338,-398.3015"/>
<polygon fill="#191970" stroke="#191970" points="200.5981,-567.6932 201.1001,-578.2762 207.3073,-569.6901 200.5981,-567.6932"/>
</g>
<!-- Node439 -->
<g id="node18" class="node">
<title>Node439</title>
<g id="a_node18"><a xlink:href="test__heatshrink__dynamic_8c.html#aeefae364c6a09c82a0228b02adf67236" target="_top" xlink:title="decoder_should_not\l_get_stuck_with_finish\l_yielding_MORE_but_0_bytes\l_output_from_poll">
<polygon fill="#ffffff" stroke="#000000" points="301.5,-300 301.5,-352 453.5,-352 453.5,-300 301.5,-300"/>
<text text-anchor="start" x="309.5" y="-340" font-family="Helvetica,sans-Serif" font-size="10.00" fill="#000000">decoder_should_not</text>
<text text-anchor="start" x="309.5" y="-329" font-family="Helvetica,sans-Serif" font-size="10.00" fill="#000000">_get_stuck_with_finish</text>
<text text-anchor="start" x="309.5" y="-318" font-family="Helvetica,sans-Serif" font-size="10.00" fill="#000000">_yielding_MORE_but_0_bytes</text>
<text text-anchor="middle" x="377.5" y="-307" font-family="Helvetica,sans-Serif" font-size="10.00" fill="#000000">_output_from_poll</text>
</a>
</g>
</g>
<!-- Node423&#45;&gt;Node439 -->
<g id="edge27" class="edge">
<title>Node423&#45;&gt;Node439</title>
<path fill="none" stroke="#191970" d="M202.0343,-568.5054C210.7356,-525.7167 237.0003,-422.5731 297,-362 300.5554,-358.4106 304.5318,-355.1485 308.7616,-352.1887"/>
<polygon fill="#191970" stroke="#191970" points="198.5722,-567.9745 200.1108,-578.457 205.445,-569.303 198.5722,-567.9745"/>
</g>
<!-- Node440 -->
<g id="node19" class="node">
<title>Node440</title>
<g id="a_node19"><a xlink:href="test__heatshrink__dynamic_8c.html#ab9096be17a9dc8f301673949558e5bd6" target="_top" xlink:title="compress_and_expand\l_and_check">
<polygon fill="#ffffff" stroke="#000000" points="317.5,-251 317.5,-281 437.5,-281 437.5,-251 317.5,-251"/>
<text text-anchor="start" x="325.5" y="-269" font-family="Helvetica,sans-Serif" font-size="10.00" fill="#000000">compress_and_expand</text>
<text text-anchor="middle" x="377.5" y="-258" font-family="Helvetica,sans-Serif" font-size="10.00" fill="#000000">_and_check</text>
</a>
</g>
</g>
<!-- Node423&#45;&gt;Node440 -->
<g id="edge29" class="edge">
<title>Node423&#45;&gt;Node440</title>
<path fill="none" stroke="#191970" d="M202.5294,-568.5354C215.1986,-509.0715 255.8334,-331.3869 297,-291 302.7455,-285.3633 309.7379,-280.9947 317.1763,-277.6095"/>
<polygon fill="#191970" stroke="#191970" points="199.0687,-567.9848 200.4357,-578.491 205.9189,-569.4254 199.0687,-567.9848"/>
</g>
<!-- Node449 -->
<g id="node28" class="node">
<title>Node449</title>
<g id="a_node28"><a xlink:href="test__heatshrink__dynamic_8c.html#a9a102029b8375d4050406a2814f390ac" target="_top" xlink:title="data_without_duplication\l_should_match_with_absurdly\l_tiny_buffers">
<polygon fill="#ffffff" stroke="#000000" points="510,-136.5 510,-177.5 661,-177.5 661,-136.5 510,-136.5"/>
<text text-anchor="start" x="518" y="-165.5" font-family="Helvetica,sans-Serif" font-size="10.00" fill="#000000">data_without_duplication</text>
<text text-anchor="start" x="518" y="-154.5" font-family="Helvetica,sans-Serif" font-size="10.00" fill="#000000">_should_match_with_absurdly</text>
<text text-anchor="middle" x="585.5" y="-143.5" font-family="Helvetica,sans-Serif" font-size="10.00" fill="#000000">_tiny_buffers</text>
</a>
</g>
</g>
<!-- Node423&#45;&gt;Node449 -->
<g id="edge44" class="edge">
<title>Node423&#45;&gt;Node449</title>
<path fill="none" stroke="#191970" d="M201.5546,-568.3787C212.2027,-502.3702 249.6261,-289.8106 297,-242 353.1389,-185.3436 444.9976,-166.0364 509.9626,-159.6786"/>
<polygon fill="#191970" stroke="#191970" points="198.0904,-567.8779 199.9787,-578.3031 205.0038,-568.9757 198.0904,-567.8779"/>
</g>
<!-- Node450 -->
<g id="node29" class="node">
<title>Node450</title>
<g id="a_node29"><a xlink:href="test__heatshrink__dynamic_8c.html#acd64db79d79999a7c5436d35b74a7f40" target="_top" xlink:title="data_with_simple_repetition\l_should_match_with_absurdly\l_tiny_buffers">
<polygon fill="#ffffff" stroke="#000000" points="510,-76.5 510,-117.5 661,-117.5 661,-76.5 510,-76.5"/>
<text text-anchor="start" x="518" y="-105.5" font-family="Helvetica,sans-Serif" font-size="10.00" fill="#000000">data_with_simple_repetition</text>
<text text-anchor="start" x="518" y="-94.5" font-family="Helvetica,sans-Serif" font-size="10.00" fill="#000000">_should_match_with_absurdly</text>
<text text-anchor="middle" x="585.5" y="-83.5" font-family="Helvetica,sans-Serif" font-size="10.00" fill="#000000">_tiny_buffers</text>
</a>
</g>
</g>
<!-- Node423&#45;&gt;Node450 -->
<g id="edge46" class="edge">
<title>Node423&#45;&gt;Node450</title>
<path fill="none" stroke="#191970" d="M200.324,-568.3528C207.7397,-492.7295 238.0789,-221.7537 297,-163 352.5755,-107.5823 444.5432,-94.8001 509.6877,-93.5041"/>
<polygon fill="#191970" stroke="#191970" points="196.8311,-568.1115 199.3624,-578.3995 203.7993,-568.7785 196.8311,-568.1115"/>
</g>
<!-- Node451 -->
<g id="node30" class="node">
<title>Node451</title>
<g id="a_node30"><a xlink:href="espfs_8h.html#adb43e859351bc07f175ccc5e29ee6950" target="_top" xlink:title="espFsRead">
<polygon fill="#ffffff" stroke="#000000" points="343.5,-38.5 343.5,-57.5 411.5,-57.5 411.5,-38.5 343.5,-38.5"/>
<text text-anchor="middle" x="377.5" y="-45.5" font-family="Helvetica,sans-Serif" font-size="10.00" fill="#000000">espFsRead</text>
</a>
</g>
</g>
<!-- Node423&#45;&gt;Node451 -->
<g id="edge48" class="edge">
<title>Node423&#45;&gt;Node451</title>
<path fill="none" stroke="#191970" d="M200.2897,-567.8981C207.9725,-485.2919 240.3659,-172.624 297,-94 309.5126,-76.629 330.7518,-64.8915 348.2728,-57.6227"/>
<polygon fill="#191970" stroke="#191970" points="196.7583,-568.0847 199.3356,-578.3613 203.7294,-568.7205 196.7583,-568.0847"/>
</g>
<!-- Node425 -->
<g id="node4" class="node">
<title>Node425</title>
<g id="a_node4"><a xlink:href="heatshrink_8c.html#a92d9515cb2f33eea4832becaa17c11bb" target="_top" xlink:title="decode">
<polygon fill="#ffffff" stroke="#000000" points="561,-1022.5 561,-1041.5 610,-1041.5 610,-1022.5 561,-1022.5"/>
<text text-anchor="middle" x="585.5" y="-1029.5" font-family="Helvetica,sans-Serif" font-size="10.00" fill="#000000">decode</text>
</a>
</g>
</g>
<!-- Node424&#45;&gt;Node425 -->
<g id="edge3" class="edge">
<title>Node424&#45;&gt;Node425</title>
<path fill="none" stroke="#191970" d="M438.7847,-1032C479.6311,-1032 531.1173,-1032 560.9729,-1032"/>
<polygon fill="#191970" stroke="#191970" points="438.649,-1028.5001 428.6489,-1032 438.6489,-1035.5001 438.649,-1028.5001"/>
</g>
<!-- Node426 -->
<g id="node5" class="node">
<title>Node426</title>
<g id="a_node5"><a xlink:href="heatshrink_8c.html#a3c04138a5bfe5d72780bb7e82a18e627" target="_top" xlink:title="main">
<polygon fill="#ffffff" stroke="#000000" points="717,-1022.5 717,-1041.5 755,-1041.5 755,-1022.5 717,-1022.5"/>
<text text-anchor="middle" x="736" y="-1029.5" font-family="Helvetica,sans-Serif" font-size="10.00" fill="#000000">main</text>
</a>
</g>
</g>
<!-- Node425&#45;&gt;Node426 -->
<g id="edge4" class="edge">
<title>Node425&#45;&gt;Node426</title>
<path fill="none" stroke="#191970" d="M620.0644,-1032C650.0704,-1032 692.4177,-1032 716.7563,-1032"/>
<polygon fill="#191970" stroke="#191970" points="620.0154,-1028.5001 610.0154,-1032 620.0153,-1035.5001 620.0154,-1028.5001"/>
</g>
<!-- Node428 -->
<g id="node7" class="node">
<title>Node428</title>
<g id="a_node7"><a xlink:href="test__heatshrink__dynamic_8c.html#adc66afa12a5eaae0cd12d5cc497f0f67" target="_top" xlink:title="SUITE">
<polygon fill="#ffffff" stroke="#000000" points="562.5,-674.5 562.5,-693.5 608.5,-693.5 608.5,-674.5 562.5,-674.5"/>
<text text-anchor="middle" x="585.5" y="-681.5" font-family="Helvetica,sans-Serif" font-size="10.00" fill="#000000">SUITE</text>
</a>
</g>
</g>
<!-- Node427&#45;&gt;Node428 -->
<g id="edge6" class="edge">
<title>Node427&#45;&gt;Node428</title>
<path fill="none" stroke="#191970" d="M448.7423,-970.7307C452.0248,-968.7282 455.1375,-966.4936 458,-964 547.2101,-886.2884 577.4953,-733.4377 584.0379,-693.6511"/>
<polygon fill="#191970" stroke="#191970" points="446.9149,-967.7378 439.7124,-975.5079 450.1884,-973.9253 446.9149,-967.7378"/>
</g>
<!-- Node429&#45;&gt;Node428 -->
<g id="edge8" class="edge">
<title>Node429&#45;&gt;Node428</title>
<path fill="none" stroke="#191970" d="M441.6847,-924.187C447.5253,-921.3616 453.0829,-917.9997 458,-914 535.2112,-851.1951 573.3798,-728.5683 583.0099,-693.5473"/>
<polygon fill="#191970" stroke="#191970" points="440.1367,-921.0425 432.3251,-928.2 442.8952,-927.4761 440.1367,-921.0425"/>
</g>
<!-- Node430&#45;&gt;Node428 -->
<g id="edge10" class="edge">
<title>Node430&#45;&gt;Node428</title>
<path fill="none" stroke="#191970" d="M441.4235,-864.1587C447.2724,-861.1826 452.9047,-857.8096 458,-854 520.3438,-807.3871 566.5332,-722.1254 580.8452,-693.5909"/>
<polygon fill="#191970" stroke="#191970" points="439.6788,-861.1106 432.1002,-868.5144 442.6417,-867.4527 439.6788,-861.1106"/>
</g>
<!-- Node431&#45;&gt;Node428 -->
<g id="edge12" class="edge">
<title>Node431&#45;&gt;Node428</title>
<path fill="none" stroke="#191970" d="M441.8709,-802.4019C447.4476,-799.8193 452.9017,-797.0166 458,-794 508.0694,-764.3744 557.3401,-714.3384 576.7987,-693.5254"/>
<polygon fill="#191970" stroke="#191970" points="440.1706,-799.3254 432.411,-806.5392 442.9756,-805.7388 440.1706,-799.3254"/>
</g>
<!-- Node432&#45;&gt;Node428 -->
<g id="edge14" class="edge">
<title>Node432&#45;&gt;Node428</title>
<path fill="none" stroke="#191970" d="M439.6321,-750.6569C445.8782,-748.5289 452.0916,-746.2949 458,-744 497.9073,-728.4994 542.8346,-706.153 567.27,-693.5637"/>
<polygon fill="#191970" stroke="#191970" points="438.2194,-747.4378 429.829,-753.9071 440.4224,-754.0821 438.2194,-747.4378"/>
</g>
<!-- Node433&#45;&gt;Node428 -->
<g id="edge16" class="edge">
<title>Node433&#45;&gt;Node428</title>
<path fill="none" stroke="#191970" d="M443.6417,-704.4603C484.3082,-698.595 533.918,-691.4397 562.3944,-687.3325"/>
<polygon fill="#191970" stroke="#191970" points="442.9117,-701.0293 433.5138,-705.9211 443.9111,-707.9576 442.9117,-701.0293"/>
</g>
<!-- Node434&#45;&gt;Node428 -->
<g id="edge18" class="edge">
<title>Node434&#45;&gt;Node428</title>
<path fill="none" stroke="#191970" d="M468.3366,-667.1014C502.7553,-672.0657 539.1288,-677.3118 562.0496,-680.6177"/>
<polygon fill="#191970" stroke="#191970" points="468.6132,-663.6052 458.2159,-665.6417 467.6139,-670.5335 468.6132,-663.6052"/>
</g>
<!-- Node435&#45;&gt;Node428 -->
<g id="edge20" class="edge">
<title>Node435&#45;&gt;Node428</title>
<path fill="none" stroke="#191970" d="M445.4064,-618.2559C449.6719,-620.1911 453.8973,-622.1175 458,-624 496.0218,-641.4461 540.1371,-662.3562 565.2407,-674.3185"/>
<polygon fill="#191970" stroke="#191970" points="446.5902,-614.9501 436.0364,-614.0189 443.706,-621.3283 446.5902,-614.9501"/>
</g>
<!-- Node436&#45;&gt;Node428 -->
<g id="edge22" class="edge">
<title>Node436&#45;&gt;Node428</title>
<path fill="none" stroke="#191970" d="M450.7042,-548.2134C453.2063,-549.7601 455.6467,-551.3562 458,-553 510.8163,-589.8932 560.0412,-650.6488 578.1595,-674.2241"/>
<polygon fill="#191970" stroke="#191970" points="452.4,-545.1508 441.9961,-543.1483 448.8804,-551.2017 452.4,-545.1508"/>
</g>
<!-- Node437&#45;&gt;Node428 -->
<g id="edge24" class="edge">
<title>Node437&#45;&gt;Node428</title>
<path fill="none" stroke="#191970" d="M449.4766,-475.3944C452.4567,-477.4727 455.3157,-479.6734 458,-482 466.6766,-489.5206 555.789,-635.2504 579.65,-674.3925"/>
<polygon fill="#191970" stroke="#191970" points="451.115,-472.2879 440.8026,-469.8579 447.3488,-478.1885 451.115,-472.2879"/>
</g>
<!-- Node438&#45;&gt;Node428 -->
<g id="edge26" class="edge">
<title>Node438&#45;&gt;Node428</title>
<path fill="none" stroke="#191970" d="M445.495,-401.3546C450.0619,-404.0659 454.3061,-407.2533 458,-411 497.6909,-451.2577 471.1615,-481.2849 494,-533 519.0139,-589.641 561.5224,-650.911 578.3427,-674.239"/>
<polygon fill="#191970" stroke="#191970" points="446.8732,-398.1287 436.3744,-396.7056 443.6942,-404.3652 446.8732,-398.1287"/>
</g>
<!-- Node439&#45;&gt;Node428 -->
<g id="edge28" class="edge">
<title>Node439&#45;&gt;Node428</title>
<path fill="none" stroke="#191970" d="M455.7587,-359.383C456.5312,-360.2342 457.279,-361.1064 458,-362 506.7683,-422.4455 465.4705,-460.7638 494,-533 516.7449,-590.5896 560.5652,-651.3112 578.0399,-674.3657"/>
<polygon fill="#191970" stroke="#191970" points="457.8825,-356.5757 448.1997,-352.2752 453.0873,-361.6754 457.8825,-356.5757"/>
</g>
<!-- Node441 -->
<g id="node20" class="node">
<title>Node441</title>
<g id="a_node20"><a xlink:href="test__heatshrink__dynamic_8c.html#a9d63746ee6a963338d09b8a19da82529" target="_top" xlink:title="data_without_duplication\l_should_match">
<polygon fill="#ffffff" stroke="#000000" points="522,-493 522,-523 649,-523 649,-493 522,-493"/>
<text text-anchor="start" x="530" y="-511" font-family="Helvetica,sans-Serif" font-size="10.00" fill="#000000">data_without_duplication</text>
<text text-anchor="middle" x="585.5" y="-500" font-family="Helvetica,sans-Serif" font-size="10.00" fill="#000000">_should_match</text>
</a>
</g>
</g>
<!-- Node440&#45;&gt;Node441 -->
<g id="edge30" class="edge">
<title>Node440&#45;&gt;Node441</title>
<path fill="none" stroke="#191970" d="M446.7101,-281.4482C450.8766,-284.1433 454.7064,-287.3011 458,-291 515.7369,-355.84 435.1564,-419.1626 494,-483 501.478,-491.1126 511.3092,-496.6912 521.7496,-500.5065"/>
<polygon fill="#191970" stroke="#191970" points="448.2008,-278.2741 437.7487,-276.5407 444.8385,-284.4138 448.2008,-278.2741"/>
</g>
<!-- Node443 -->
<g id="node22" class="node">
<title>Node443</title>
<g id="a_node22"><a xlink:href="test__heatshrink__dynamic_8c.html#ae9d1425d6c89a652b9df2b4ddc7ac2a2" target="_top" xlink:title="data_with_simple_repetition\l_should_compress_and_decompress\l_properly">
<polygon fill="#ffffff" stroke="#000000" points="494,-432.5 494,-473.5 677,-473.5 677,-432.5 494,-432.5"/>
<text text-anchor="start" x="502" y="-461.5" font-family="Helvetica,sans-Serif" font-size="10.00" fill="#000000">data_with_simple_repetition</text>
<text text-anchor="start" x="502" y="-450.5" font-family="Helvetica,sans-Serif" font-size="10.00" fill="#000000">_should_compress_and_decompress</text>
<text text-anchor="middle" x="585.5" y="-439.5" font-family="Helvetica,sans-Serif" font-size="10.00" fill="#000000">_properly</text>
</a>
</g>
</g>
<!-- Node440&#45;&gt;Node443 -->
<g id="edge32" class="edge">
<title>Node440&#45;&gt;Node443</title>
<path fill="none" stroke="#191970" d="M446.6013,-281.8945C450.7597,-284.4872 454.6198,-287.4999 458,-291 500.2427,-334.7417 452.1022,-378.9279 494,-423 497.3403,-426.5137 501.098,-429.6163 505.1357,-432.3558"/>
<polygon fill="#191970" stroke="#191970" points="448.1744,-278.7667 437.705,-277.1405 444.8752,-284.9405 448.1744,-278.7667"/>
</g>
<!-- Node444 -->
<g id="node23" class="node">
<title>Node444</title>
<g id="a_node23"><a xlink:href="test__heatshrink__dynamic_8c.html#a60c0e0c5bbb9715c7932ee82e706752d" target="_top" xlink:title="pseudorandom_data_should\l_match">
<polygon fill="#ffffff" stroke="#000000" points="514,-383 514,-413 657,-413 657,-383 514,-383"/>
<text text-anchor="start" x="522" y="-401" font-family="Helvetica,sans-Serif" font-size="10.00" fill="#000000">pseudorandom_data_should</text>
<text text-anchor="middle" x="585.5" y="-390" font-family="Helvetica,sans-Serif" font-size="10.00" fill="#000000">_match</text>
</a>
</g>
</g>
<!-- Node440&#45;&gt;Node444 -->
<g id="edge34" class="edge">
<title>Node440&#45;&gt;Node444</title>
<path fill="none" stroke="#191970" d="M446.8202,-282.9356C450.8196,-285.2833 454.5929,-287.9564 458,-291 487.683,-317.5164 463.8653,-346.9981 494,-373 499.8599,-378.0563 506.6523,-382.0986 513.8373,-385.3289"/>
<polygon fill="#191970" stroke="#191970" points="448.2543,-279.7379 437.7576,-278.2985 445.0656,-285.9695 448.2543,-279.7379"/>
</g>
<!-- Node445 -->
<g id="node24" class="node">
<title>Node445</title>
<g id="a_node24"><a xlink:href="test__heatshrink__dynamic_8c.html#a20e1a72bba941f0c602b93b53d32d5db" target="_top" xlink:title="small_input_buffer\l_should_not_impact_decoder\l_correctness">
<polygon fill="#ffffff" stroke="#000000" points="511.5,-322.5 511.5,-363.5 659.5,-363.5 659.5,-322.5 511.5,-322.5"/>
<text text-anchor="start" x="519.5" y="-351.5" font-family="Helvetica,sans-Serif" font-size="10.00" fill="#000000">small_input_buffer</text>
<text text-anchor="start" x="519.5" y="-340.5" font-family="Helvetica,sans-Serif" font-size="10.00" fill="#000000">_should_not_impact_decoder</text>
<text text-anchor="middle" x="585.5" y="-329.5" font-family="Helvetica,sans-Serif" font-size="10.00" fill="#000000">_correctness</text>
</a>
</g>
</g>
<!-- Node440&#45;&gt;Node445 -->
<g id="edge36" class="edge">
<title>Node440&#45;&gt;Node445</title>
<path fill="none" stroke="#191970" d="M442.1296,-284.5048C447.562,-286.5313 452.9167,-288.7004 458,-291 475.0843,-298.7286 476.9769,-305.1374 494,-313 501.2849,-316.3647 509.0547,-319.5223 516.8715,-322.4323"/>
<polygon fill="#191970" stroke="#191970" points="442.9038,-281.0654 432.3091,-281.0137 440.5591,-287.6611 442.9038,-281.0654"/>
</g>
<!-- Node446 -->
<g id="node25" class="node">
<title>Node446</title>
<g id="a_node25"><a xlink:href="test__heatshrink__dynamic_8c.html#a462faeb904a3de1b1e009a04f7d171d8" target="_top" xlink:title="regression_backreference\l_counters_should_not_roll_over">
<polygon fill="#ffffff" stroke="#000000" points="506,-273 506,-303 665,-303 665,-273 506,-273"/>
<text text-anchor="start" x="514" y="-291" font-family="Helvetica,sans-Serif" font-size="10.00" fill="#000000">regression_backreference</text>
<text text-anchor="middle" x="585.5" y="-280" font-family="Helvetica,sans-Serif" font-size="10.00" fill="#000000">_counters_should_not_roll_over</text>
</a>
</g>
</g>
<!-- Node440&#45;&gt;Node446 -->
<g id="edge38" class="edge">
<title>Node440&#45;&gt;Node446</title>
<path fill="none" stroke="#191970" d="M447.818,-273.4375C466.4287,-275.4059 486.6526,-277.545 505.7254,-279.5623"/>
<polygon fill="#191970" stroke="#191970" points="447.9749,-269.9346 437.6622,-272.3633 447.2386,-276.8958 447.9749,-269.9346"/>
</g>
<!-- Node447 -->
<g id="node26" class="node">
<title>Node447</title>
<g id="a_node26"><a xlink:href="test__heatshrink__dynamic_8c.html#a2ed8ea21768d114fa96b07eb58475663" target="_top" xlink:title="regression_index_fail">
<polygon fill="#ffffff" stroke="#000000" points="530,-234.5 530,-253.5 641,-253.5 641,-234.5 530,-234.5"/>
<text text-anchor="middle" x="585.5" y="-241.5" font-family="Helvetica,sans-Serif" font-size="10.00" fill="#000000">regression_index_fail</text>
</a>
</g>
</g>
<!-- Node440&#45;&gt;Node447 -->
<g id="edge40" class="edge">
<title>Node440&#45;&gt;Node447</title>
<path fill="none" stroke="#191970" d="M447.7274,-258.5721C474.4609,-255.7445 504.5341,-252.5637 529.747,-249.897"/>
<polygon fill="#191970" stroke="#191970" points="447.2386,-255.1042 437.6622,-259.6367 447.9749,-262.0654 447.2386,-255.1042"/>
</g>
<!-- Node448 -->
<g id="node27" class="node">
<title>Node448</title>
<g id="a_node27"><a xlink:href="test__heatshrink__dynamic_8c.html#a1bfe72da903d55a8610433a4f2a60d43" target="_top" xlink:title="sixty_four_k">
<polygon fill="#ffffff" stroke="#000000" points="550.5,-196.5 550.5,-215.5 620.5,-215.5 620.5,-196.5 550.5,-196.5"/>
<text text-anchor="middle" x="585.5" y="-203.5" font-family="Helvetica,sans-Serif" font-size="10.00" fill="#000000">sixty_four_k</text>
</a>
</g>
</g>
<!-- Node440&#45;&gt;Node448 -->
<g id="edge42" class="edge">
<title>Node440&#45;&gt;Node448</title>
<path fill="none" stroke="#191970" d="M425.7465,-247.3918C446.5431,-239.7968 471.2644,-231.3306 494,-225 512.443,-219.8646 533.3243,-215.4266 550.4776,-212.1342"/>
<polygon fill="#191970" stroke="#191970" points="424.3529,-244.1754 416.1845,-250.9229 426.7778,-250.742 424.3529,-244.1754"/>
</g>
<!-- Node442 -->
<g id="node21" class="node">
<title>Node442</title>
<g id="a_node21"><a xlink:href="test__heatshrink__dynamic_8c.html#a2f157eb23cb17a496326c14e12933b3b" target="_top" xlink:title="SUITE">
<polygon fill="#ffffff" stroke="#000000" points="713,-278.5 713,-297.5 759,-297.5 759,-278.5 713,-278.5"/>
<text text-anchor="middle" x="736" y="-285.5" font-family="Helvetica,sans-Serif" font-size="10.00" fill="#000000">SUITE</text>
</a>
</g>
</g>
<!-- Node441&#45;&gt;Node442 -->
<g id="edge31" class="edge">
<title>Node441&#45;&gt;Node442</title>
<path fill="none" stroke="#191970" d="M658.521,-495.6613C665.3142,-492.3611 671.6453,-488.2116 677,-483 704.628,-456.1106 727.9864,-333.6113 734.3122,-297.8367"/>
<polygon fill="#191970" stroke="#191970" points="656.882,-492.5536 649.0196,-499.6552 659.5946,-499.0067 656.882,-492.5536"/>
</g>
<!-- Node443&#45;&gt;Node442 -->
<g id="edge33" class="edge">
<title>Node443&#45;&gt;Node442</title>
<path fill="none" stroke="#191970" d="M672.9054,-426.4535C674.3148,-425.3488 675.6818,-424.1983 677,-423 715.7993,-387.729 730.2929,-322.3779 734.5278,-297.7394"/>
<polygon fill="#191970" stroke="#191970" points="670.6708,-423.7424 664.4131,-432.2918 674.6364,-429.5108 670.6708,-423.7424"/>
</g>
<!-- Node444&#45;&gt;Node442 -->
<g id="edge35" class="edge">
<title>Node444&#45;&gt;Node442</title>
<path fill="none" stroke="#191970" d="M666.5153,-379.3824C670.1723,-377.4601 673.6908,-375.3394 677,-373 705.1631,-353.0903 724.269,-315.2326 732.0618,-297.5482"/>
<polygon fill="#191970" stroke="#191970" points="664.7454,-376.3467 657.18,-383.764 667.7196,-382.6835 664.7454,-376.3467"/>
</g>
<!-- Node445&#45;&gt;Node442 -->
<g id="edge37" class="edge">
<title>Node445&#45;&gt;Node442</title>
<path fill="none" stroke="#191970" d="M660.2881,-319.0525C665.9628,-317.0606 671.5851,-315.0308 677,-313 689.6036,-308.2731 703.4737,-302.4295 714.5974,-297.5808"/>
<polygon fill="#191970" stroke="#191970" points="659.0227,-315.7867 650.7157,-322.3626 661.3104,-322.4023 659.0227,-315.7867"/>
</g>
<!-- Node446&#45;&gt;Node442 -->
<g id="edge39" class="edge">
<title>Node446&#45;&gt;Node442</title>
<path fill="none" stroke="#191970" d="M675.3379,-288C689.1921,-288 702.3603,-288 712.8656,-288"/>
<polygon fill="#191970" stroke="#191970" points="675.157,-284.5001 665.1569,-288 675.1569,-291.5001 675.157,-284.5001"/>
</g>
<!-- Node447&#45;&gt;Node442 -->
<g id="edge41" class="edge">
<title>Node447&#45;&gt;Node442</title>
<path fill="none" stroke="#191970" d="M646.7872,-255.8744C656.9559,-258.2784 667.3322,-261.0013 677,-264 689.8853,-267.9967 703.8889,-273.6347 715.0185,-278.442"/>
<polygon fill="#191970" stroke="#191970" points="647.2497,-252.3901 636.7217,-253.5784 645.6929,-259.2148 647.2497,-252.3901"/>
</g>
<!-- Node448&#45;&gt;Node442 -->
<g id="edge43" class="edge">
<title>Node448&#45;&gt;Node442</title>
<path fill="none" stroke="#191970" d="M630.6072,-209.7816C646.0482,-212.4918 662.9569,-217.118 677,-225 700.5213,-238.2019 720.1345,-263.9848 729.7067,-278.1299"/>
<polygon fill="#191970" stroke="#191970" points="631.1326,-206.3213 620.7171,-208.2624 630.0697,-213.2402 631.1326,-206.3213"/>
</g>
<!-- Node449&#45;&gt;Node442 -->
<g id="edge45" class="edge">
<title>Node449&#45;&gt;Node442</title>
<path fill="none" stroke="#191970" d="M669.9163,-181.8553C672.3746,-183.4653 674.7445,-185.1781 677,-187 708.1205,-212.1385 726.2831,-258.3973 733.002,-278.3844"/>
<polygon fill="#191970" stroke="#191970" points="671.6497,-178.8143 661.2544,-176.7677 668.1045,-184.8502 671.6497,-178.8143"/>
</g>
<!-- Node450&#45;&gt;Node442 -->
<g id="edge47" class="edge">
<title>Node450&#45;&gt;Node442</title>
<path fill="none" stroke="#191970" d="M669.9812,-121.0697C672.4515,-122.9033 674.8021,-124.8765 677,-127 721.9595,-170.4372 732.8591,-250.9492 735.3246,-278.4807"/>
<polygon fill="#191970" stroke="#191970" points="671.4643,-117.8602 661.1691,-115.3584 667.6571,-123.7343 671.4643,-117.8602"/>
</g>
<!-- Node452 -->
<g id="node31" class="node">
<title>Node452</title>
<g id="a_node31"><a xlink:href="httpdespfs_8h.html#aa502116e50052d973b6eef02a6282dd3" target="_top" xlink:title="cgiEspFsHook">
<polygon fill="#ffffff" stroke="#000000" points="545,-38.5 545,-57.5 626,-57.5 626,-38.5 545,-38.5"/>
<text text-anchor="middle" x="585.5" y="-45.5" font-family="Helvetica,sans-Serif" font-size="10.00" fill="#000000">cgiEspFsHook</text>
</a>
</g>
</g>
<!-- Node451&#45;&gt;Node452 -->
<g id="edge49" class="edge">
<title>Node451&#45;&gt;Node452</title>
<path fill="none" stroke="#191970" d="M422.1576,-48C458.5074,-48 509.3934,-48 544.6696,-48"/>
<polygon fill="#191970" stroke="#191970" points="421.847,-44.5001 411.847,-48 421.8469,-51.5001 421.847,-44.5001"/>
</g>
<!-- Node453 -->
<g id="node32" class="node">
<title>Node453</title>
<g id="a_node32"><a xlink:href="httpdespfs_8h.html#abc9eb26f247094e9fc41db897f6ec030" target="_top" xlink:title="cgiEspFsTemplate">
<polygon fill="#ffffff" stroke="#000000" points="536,-.5 536,-19.5 635,-19.5 635,-.5 536,-.5"/>
<text text-anchor="middle" x="585.5" y="-7.5" font-family="Helvetica,sans-Serif" font-size="10.00" fill="#000000">cgiEspFsTemplate</text>
</a>
</g>
</g>
<!-- Node451&#45;&gt;Node453 -->
<g id="edge50" class="edge">
<title>Node451&#45;&gt;Node453</title>
<path fill="none" stroke="#191970" d="M421.8085,-39.9052C455.2816,-33.7899 501.2273,-25.396 535.9224,-19.0574"/>
<polygon fill="#191970" stroke="#191970" points="421.0551,-36.4848 411.847,-41.7251 422.3132,-43.3708 421.0551,-36.4848"/>
</g>
</g>
</svg>
