<?xml version="1.0" encoding="UTF-8" standalone="no"?>
<!DOCTYPE svg PUBLIC "-//W3C//DTD SVG 1.1//EN"
 "http://www.w3.org/Graphics/SVG/1.1/DTD/svg11.dtd">
<!-- Generated by graphviz version 2.41.20170323.1842 (20170323.1842)
 -->
<!-- Title: heatshrink_decoder_sink Pages: 1 -->
<svg width="657pt" height="1299pt"
 viewBox="0.00 0.00 657.00 1298.50" xmlns="http://www.w3.org/2000/svg" xmlns:xlink="http://www.w3.org/1999/xlink">
<g id="graph0" class="graph" transform="scale(1 1) rotate(0) translate(4 1294.5)">
<title>heatshrink_decoder_sink</title>
<polygon fill="#ffffff" stroke="transparent" points="-4,4 -4,-1294.5 653,-1294.5 653,4 -4,4"/>
<!-- Node218 -->
<g id="node1" class="node">
<title>Node218</title>
<polygon fill="#bfbfbf" stroke="#000000" points="0,-494.5 0,-513.5 128,-513.5 128,-494.5 0,-494.5"/>
<text text-anchor="middle" x="64" y="-501.5" font-family="Helvetica,sans-Serif" font-size="10.00" fill="#000000">heatshrink_decoder_sink</text>
</g>
<!-- Node219 -->
<g id="node2" class="node">
<title>Node219</title>
<g id="a_node2"><a xlink:href="test__heatshrink__dynamic_8c.html#ab9096be17a9dc8f301673949558e5bd6" target="_top" xlink:title="compress_and_expand\l_and_check">
<polygon fill="#ffffff" stroke="#000000" points="196,-1068 196,-1098 316,-1098 316,-1068 196,-1068"/>
<text text-anchor="start" x="204" y="-1086" font-family="Helvetica,sans-Serif" font-size="10.00" fill="#000000">compress_and_expand</text>
<text text-anchor="middle" x="256" y="-1075" font-family="Helvetica,sans-Serif" font-size="10.00" fill="#000000">_and_check</text>
</a>
</g>
</g>
<!-- Node218&#45;&gt;Node219 -->
<g id="edge1" class="edge">
<title>Node218&#45;&gt;Node219</title>
<path fill="none" stroke="#191970" d="M66.1168,-523.5576C73.3768,-586.077 100.4153,-785.883 164,-938 185.3859,-989.1626 224.2616,-1042.524 243.9227,-1067.8808"/>
<polygon fill="#191970" stroke="#191970" points="69.584,-523.0695 64.987,-513.524 62.628,-523.8528 69.584,-523.0695"/>
</g>
<!-- Node228 -->
<g id="node11" class="node">
<title>Node228</title>
<g id="a_node11"><a xlink:href="test__heatshrink__dynamic_8c.html#acd64db79d79999a7c5436d35b74a7f40" target="_top" xlink:title="data_with_simple_repetition\l_should_match_with_absurdly\l_tiny_buffers">
<polygon fill="#ffffff" stroke="#000000" points="400,-903.5 400,-944.5 551,-944.5 551,-903.5 400,-903.5"/>
<text text-anchor="start" x="408" y="-932.5" font-family="Helvetica,sans-Serif" font-size="10.00" fill="#000000">data_with_simple_repetition</text>
<text text-anchor="start" x="408" y="-921.5" font-family="Helvetica,sans-Serif" font-size="10.00" fill="#000000">_should_match_with_absurdly</text>
<text text-anchor="middle" x="475.5" y="-910.5" font-family="Helvetica,sans-Serif" font-size="10.00" fill="#000000">_tiny_buffers</text>
</a>
</g>
</g>
<!-- Node218&#45;&gt;Node228 -->
<g id="edge16" class="edge">
<title>Node218&#45;&gt;Node228</title>
<path fill="none" stroke="#191970" d="M66.0277,-523.9139C73.9064,-597.0506 105.0119,-849.1673 164,-899 228.7568,-953.7061 330.5076,-950.9455 399.9699,-940.4884"/>
<polygon fill="#191970" stroke="#191970" points="69.4879,-523.3505 64.9619,-513.771 62.5262,-524.0821 69.4879,-523.3505"/>
</g>
<!-- Node229 -->
<g id="node12" class="node">
<title>Node229</title>
<g id="a_node12"><a xlink:href="test__heatshrink__dynamic_8c.html#a9a102029b8375d4050406a2814f390ac" target="_top" xlink:title="data_without_duplication\l_should_match_with_absurdly\l_tiny_buffers">
<polygon fill="#ffffff" stroke="#000000" points="400,-843.5 400,-884.5 551,-884.5 551,-843.5 400,-843.5"/>
<text text-anchor="start" x="408" y="-872.5" font-family="Helvetica,sans-Serif" font-size="10.00" fill="#000000">data_without_duplication</text>
<text text-anchor="start" x="408" y="-861.5" font-family="Helvetica,sans-Serif" font-size="10.00" fill="#000000">_should_match_with_absurdly</text>
<text text-anchor="middle" x="475.5" y="-850.5" font-family="Helvetica,sans-Serif" font-size="10.00" fill="#000000">_tiny_buffers</text>
</a>
</g>
</g>
<!-- Node218&#45;&gt;Node229 -->
<g id="edge18" class="edge">
<title>Node218&#45;&gt;Node229</title>
<path fill="none" stroke="#191970" d="M66.3363,-523.788C74.9805,-593.2439 107.6003,-824.0365 164,-867 236.0612,-921.894 347.1781,-903.6698 415.3929,-884.509"/>
<polygon fill="#191970" stroke="#191970" points="69.7971,-523.2528 65.1156,-513.7484 62.8483,-524.0977 69.7971,-523.2528"/>
</g>
<!-- Node230 -->
<g id="node13" class="node">
<title>Node230</title>
<g id="a_node13"><a xlink:href="test__heatshrink__dynamic_8c.html#a1f5bd6590b5a6d8ae285c99739e59839" target="_top" xlink:title="decoder_finish_should\l_note_when_done">
<polygon fill="#ffffff" stroke="#000000" points="197.5,-827 197.5,-857 314.5,-857 314.5,-827 197.5,-827"/>
<text text-anchor="start" x="205.5" y="-845" font-family="Helvetica,sans-Serif" font-size="10.00" fill="#000000">decoder_finish_should</text>
<text text-anchor="middle" x="256" y="-834" font-family="Helvetica,sans-Serif" font-size="10.00" fill="#000000">_note_when_done</text>
</a>
</g>
</g>
<!-- Node218&#45;&gt;Node230 -->
<g id="edge20" class="edge">
<title>Node218&#45;&gt;Node230</title>
<path fill="none" stroke="#191970" d="M67.735,-523.8518C79.8339,-586.1344 119.739,-776.0304 164,-818 173.223,-826.7456 185.221,-832.4014 197.4902,-836.0349"/>
<polygon fill="#191970" stroke="#191970" points="71.1231,-522.935 65.8047,-513.7718 64.248,-524.2517 71.1231,-522.935"/>
</g>
<!-- Node232 -->
<g id="node15" class="node">
<title>Node232</title>
<g id="a_node15"><a xlink:href="test__heatshrink__dynamic_8c.html#afb5cdb53efe5dca1a7a785f344a03655" target="_top" xlink:title="decoder_poll_should\l_expand_short_literal">
<polygon fill="#ffffff" stroke="#000000" points="200,-778 200,-808 312,-808 312,-778 200,-778"/>
<text text-anchor="start" x="208" y="-796" font-family="Helvetica,sans-Serif" font-size="10.00" fill="#000000">decoder_poll_should</text>
<text text-anchor="middle" x="256" y="-785" font-family="Helvetica,sans-Serif" font-size="10.00" fill="#000000">_expand_short_literal</text>
</a>
</g>
</g>
<!-- Node218&#45;&gt;Node232 -->
<g id="edge22" class="edge">
<title>Node218&#45;&gt;Node232</title>
<path fill="none" stroke="#191970" d="M65.5281,-523.8378C70.3966,-572.8898 89.9163,-700.7586 164,-768 173.9273,-777.0104 186.7829,-782.8217 199.7198,-786.5564"/>
<polygon fill="#191970" stroke="#191970" points="68.9926,-523.282 64.6191,-513.632 62.0202,-523.9031 68.9926,-523.282"/>
</g>
<!-- Node233 -->
<g id="node16" class="node">
<title>Node233</title>
<g id="a_node16"><a xlink:href="test__heatshrink__dynamic_8c.html#a5f3328adb18355964bab2a3f026f4707" target="_top" xlink:title="decoder_poll_should\l_expand_short_literal\l_and_backref">
<polygon fill="#ffffff" stroke="#000000" points="200,-717.5 200,-758.5 312,-758.5 312,-717.5 200,-717.5"/>
<text text-anchor="start" x="208" y="-746.5" font-family="Helvetica,sans-Serif" font-size="10.00" fill="#000000">decoder_poll_should</text>
<text text-anchor="start" x="208" y="-735.5" font-family="Helvetica,sans-Serif" font-size="10.00" fill="#000000">_expand_short_literal</text>
<text text-anchor="middle" x="256" y="-724.5" font-family="Helvetica,sans-Serif" font-size="10.00" fill="#000000">_and_backref</text>
</a>
</g>
</g>
<!-- Node218&#45;&gt;Node233 -->
<g id="edge24" class="edge">
<title>Node218&#45;&gt;Node233</title>
<path fill="none" stroke="#191970" d="M68.2081,-523.6871C77.8742,-564.1621 105.4752,-657.1731 164,-708 174.1474,-716.8127 186.937,-723.0471 199.7266,-727.4541"/>
<polygon fill="#191970" stroke="#191970" points="71.5771,-522.7177 65.9465,-513.7429 64.7513,-524.2701 71.5771,-522.7177"/>
</g>
<!-- Node234 -->
<g id="node17" class="node">
<title>Node234</title>
<g id="a_node17"><a xlink:href="test__heatshrink__dynamic_8c.html#aaf61f9d548405f6ea0b9cc6d4dd86589" target="_top" xlink:title="decoder_poll_should\l_expand_short_literal\l_and_backref_when_fed\l_input_byte_by_byte">
<polygon fill="#ffffff" stroke="#000000" points="193,-646 193,-698 319,-698 319,-646 193,-646"/>
<text text-anchor="start" x="201" y="-686" font-family="Helvetica,sans-Serif" font-size="10.00" fill="#000000">decoder_poll_should</text>
<text text-anchor="start" x="201" y="-675" font-family="Helvetica,sans-Serif" font-size="10.00" fill="#000000">_expand_short_literal</text>
<text text-anchor="start" x="201" y="-664" font-family="Helvetica,sans-Serif" font-size="10.00" fill="#000000">_and_backref_when_fed</text>
<text text-anchor="middle" x="256" y="-653" font-family="Helvetica,sans-Serif" font-size="10.00" fill="#000000">_input_byte_by_byte</text>
</a>
</g>
</g>
<!-- Node218&#45;&gt;Node234 -->
<g id="edge26" class="edge">
<title>Node218&#45;&gt;Node234</title>
<path fill="none" stroke="#191970" d="M73.6528,-522.5731C89.1578,-550.746 122.1615,-604.344 164,-636 172.6169,-642.5197 182.5644,-648.0108 192.6657,-652.5846"/>
<polygon fill="#191970" stroke="#191970" points="76.7271,-520.9001 68.9124,-513.746 70.5601,-524.2119 76.7271,-520.9001"/>
</g>
<!-- Node235 -->
<g id="node18" class="node">
<title>Node235</title>
<g id="a_node18"><a xlink:href="test__heatshrink__dynamic_8c.html#a5f04d534aa5ff2bc1fb218feea741774" target="_top" xlink:title="decoder_poll_should\l_expand_short_self_overlapping\l_backref">
<polygon fill="#ffffff" stroke="#000000" points="175.5,-585.5 175.5,-626.5 336.5,-626.5 336.5,-585.5 175.5,-585.5"/>
<text text-anchor="start" x="183.5" y="-614.5" font-family="Helvetica,sans-Serif" font-size="10.00" fill="#000000">decoder_poll_should</text>
<text text-anchor="start" x="183.5" y="-603.5" font-family="Helvetica,sans-Serif" font-size="10.00" fill="#000000">_expand_short_self_overlapping</text>
<text text-anchor="middle" x="256" y="-592.5" font-family="Helvetica,sans-Serif" font-size="10.00" fill="#000000">_backref</text>
</a>
</g>
</g>
<!-- Node218&#45;&gt;Node235 -->
<g id="edge28" class="edge">
<title>Node218&#45;&gt;Node235</title>
<path fill="none" stroke="#191970" d="M82.6621,-520.162C101.9346,-536.1721 133.4232,-560.4827 164,-576 170.7415,-579.4212 177.9557,-582.5667 185.2681,-585.4276"/>
<polygon fill="#191970" stroke="#191970" points="84.851,-517.4295 74.9512,-513.6551 80.3365,-522.7792 84.851,-517.4295"/>
</g>
<!-- Node236 -->
<g id="node19" class="node">
<title>Node236</title>
<g id="a_node19"><a xlink:href="test__heatshrink__dynamic_8c.html#a4c76ed65aa09f4c123ed378507c3ddbb" target="_top" xlink:title="decoder_poll_should\l_suspend_if_out_of_space\l_in_output_buffer_during\l_backref_expansion">
<polygon fill="#ffffff" stroke="#000000" points="188,-514 188,-566 324,-566 324,-514 188,-514"/>
<text text-anchor="start" x="196" y="-554" font-family="Helvetica,sans-Serif" font-size="10.00" fill="#000000">decoder_poll_should</text>
<text text-anchor="start" x="196" y="-543" font-family="Helvetica,sans-Serif" font-size="10.00" fill="#000000">_suspend_if_out_of_space</text>
<text text-anchor="start" x="196" y="-532" font-family="Helvetica,sans-Serif" font-size="10.00" fill="#000000">_in_output_buffer_during</text>
<text text-anchor="middle" x="256" y="-521" font-family="Helvetica,sans-Serif" font-size="10.00" fill="#000000">_backref_expansion</text>
</a>
</g>
</g>
<!-- Node218&#45;&gt;Node236 -->
<g id="edge30" class="edge">
<title>Node218&#45;&gt;Node236</title>
<path fill="none" stroke="#191970" d="M124.6251,-515.3672C144.6573,-519.1232 167.0786,-523.3272 187.6485,-527.1841"/>
<polygon fill="#191970" stroke="#191970" points="125.1707,-511.9086 114.6969,-513.5057 123.8806,-518.7887 125.1707,-511.9086"/>
</g>
<!-- Node237 -->
<g id="node20" class="node">
<title>Node237</title>
<g id="a_node20"><a xlink:href="test__heatshrink__dynamic_8c.html#aed41c11f7d13fb37749ce644efea3b76" target="_top" xlink:title="decoder_poll_should\l_suspend_if_out_of_space\l_in_output_buffer_during\l_literal_expansion">
<polygon fill="#ffffff" stroke="#000000" points="188,-443 188,-495 324,-495 324,-443 188,-443"/>
<text text-anchor="start" x="196" y="-483" font-family="Helvetica,sans-Serif" font-size="10.00" fill="#000000">decoder_poll_should</text>
<text text-anchor="start" x="196" y="-472" font-family="Helvetica,sans-Serif" font-size="10.00" fill="#000000">_suspend_if_out_of_space</text>
<text text-anchor="start" x="196" y="-461" font-family="Helvetica,sans-Serif" font-size="10.00" fill="#000000">_in_output_buffer_during</text>
<text text-anchor="middle" x="256" y="-450" font-family="Helvetica,sans-Serif" font-size="10.00" fill="#000000">_literal_expansion</text>
</a>
</g>
</g>
<!-- Node218&#45;&gt;Node237 -->
<g id="edge32" class="edge">
<title>Node218&#45;&gt;Node237</title>
<path fill="none" stroke="#191970" d="M126.2912,-492.6448C145.9848,-489.0548 167.8464,-485.0697 187.9232,-481.4098"/>
<polygon fill="#191970" stroke="#191970" points="125.4214,-489.2456 116.2112,-494.4823 126.6768,-496.1321 125.4214,-489.2456"/>
</g>
<!-- Node238 -->
<g id="node21" class="node">
<title>Node238</title>
<g id="a_node21"><a xlink:href="test__heatshrink__dynamic_8c.html#aeefae364c6a09c82a0228b02adf67236" target="_top" xlink:title="decoder_should_not\l_get_stuck_with_finish\l_yielding_MORE_but_0_bytes\l_output_from_poll">
<polygon fill="#ffffff" stroke="#000000" points="180,-372 180,-424 332,-424 332,-372 180,-372"/>
<text text-anchor="start" x="188" y="-412" font-family="Helvetica,sans-Serif" font-size="10.00" fill="#000000">decoder_should_not</text>
<text text-anchor="start" x="188" y="-401" font-family="Helvetica,sans-Serif" font-size="10.00" fill="#000000">_get_stuck_with_finish</text>
<text text-anchor="start" x="188" y="-390" font-family="Helvetica,sans-Serif" font-size="10.00" fill="#000000">_yielding_MORE_but_0_bytes</text>
<text text-anchor="middle" x="256" y="-379" font-family="Helvetica,sans-Serif" font-size="10.00" fill="#000000">_output_from_poll</text>
</a>
</g>
</g>
<!-- Node218&#45;&gt;Node238 -->
<g id="edge34" class="edge">
<title>Node218&#45;&gt;Node238</title>
<path fill="none" stroke="#191970" d="M83.5687,-488.1872C103.0985,-472.9279 134.3852,-449.8669 164,-434 170.5009,-430.517 177.4135,-427.1884 184.4162,-424.0605"/>
<polygon fill="#191970" stroke="#191970" points="81.3857,-485.4513 75.7144,-494.4004 85.7286,-490.9413 81.3857,-485.4513"/>
</g>
<!-- Node239 -->
<g id="node22" class="node">
<title>Node239</title>
<g id="a_node22"><a xlink:href="heatshrink_8c.html#a3f2b305cf4f4bf560265d00373a78bdd" target="_top" xlink:title="decoder_sink_read">
<polygon fill="#ffffff" stroke="#000000" points="205,-76.5 205,-95.5 307,-95.5 307,-76.5 205,-76.5"/>
<text text-anchor="middle" x="256" y="-83.5" font-family="Helvetica,sans-Serif" font-size="10.00" fill="#000000">decoder_sink_read</text>
</a>
</g>
</g>
<!-- Node218&#45;&gt;Node239 -->
<g id="edge36" class="edge">
<title>Node218&#45;&gt;Node239</title>
<path fill="none" stroke="#191970" d="M66.2305,-484.1878C74.8249,-411.3883 108.1321,-160.1028 164,-106 174.9199,-95.4251 190.0474,-89.894 204.8842,-87.1378"/>
<polygon fill="#191970" stroke="#191970" points="62.7352,-483.9458 65.0636,-494.2816 69.6889,-484.7497 62.7352,-483.9458"/>
</g>
<!-- Node242 -->
<g id="node25" class="node">
<title>Node242</title>
<g id="a_node25"><a xlink:href="test__heatshrink__dynamic_8c.html#a30e017ea123daab9af1df395b9e0890c" target="_top" xlink:title="decoder_sink_should\l_reject_excessively\l_large_input">
<polygon fill="#ffffff" stroke="#000000" points="200.5,-311.5 200.5,-352.5 311.5,-352.5 311.5,-311.5 200.5,-311.5"/>
<text text-anchor="start" x="208.5" y="-340.5" font-family="Helvetica,sans-Serif" font-size="10.00" fill="#000000">decoder_sink_should</text>
<text text-anchor="start" x="208.5" y="-329.5" font-family="Helvetica,sans-Serif" font-size="10.00" fill="#000000">_reject_excessively</text>
<text text-anchor="middle" x="256" y="-318.5" font-family="Helvetica,sans-Serif" font-size="10.00" fill="#000000">_large_input</text>
</a>
</g>
</g>
<!-- Node218&#45;&gt;Node242 -->
<g id="edge39" class="edge">
<title>Node218&#45;&gt;Node242</title>
<path fill="none" stroke="#191970" d="M72.701,-484.7684C87.32,-454.5505 119.6249,-396.0019 164,-363 174.6843,-355.0541 187.5356,-349.0601 200.1989,-344.5701"/>
<polygon fill="#191970" stroke="#191970" points="69.3606,-483.6477 68.2769,-494.187 75.6964,-486.6238 69.3606,-483.6477"/>
</g>
<!-- Node243 -->
<g id="node26" class="node">
<title>Node243</title>
<g id="a_node26"><a xlink:href="test__heatshrink__dynamic_8c.html#a288158a5d89bee603ec627a849699ffc" target="_top" xlink:title="decoder_sink_should\l_reject_null_count_pointer">
<polygon fill="#ffffff" stroke="#000000" points="189,-262 189,-292 323,-292 323,-262 189,-262"/>
<text text-anchor="start" x="197" y="-280" font-family="Helvetica,sans-Serif" font-size="10.00" fill="#000000">decoder_sink_should</text>
<text text-anchor="middle" x="256" y="-269" font-family="Helvetica,sans-Serif" font-size="10.00" fill="#000000">_reject_null_count_pointer</text>
</a>
</g>
</g>
<!-- Node218&#45;&gt;Node243 -->
<g id="edge41" class="edge">
<title>Node218&#45;&gt;Node243</title>
<path fill="none" stroke="#191970" d="M68.0667,-484.2658C77.4686,-443.7388 104.6024,-350.846 164,-302 171.2868,-296.0076 179.8897,-291.4444 188.8614,-287.9708"/>
<polygon fill="#191970" stroke="#191970" points="64.6055,-483.7091 65.873,-494.2278 71.4418,-485.2145 64.6055,-483.7091"/>
</g>
<!-- Node244 -->
<g id="node27" class="node">
<title>Node244</title>
<g id="a_node27"><a xlink:href="test__heatshrink__dynamic_8c.html#aeb871cb3ecc927bb7a856cc2a82c40b5" target="_top" xlink:title="decoder_sink_should\l_reject_null_hsd_pointer">
<polygon fill="#ffffff" stroke="#000000" points="193.5,-213 193.5,-243 318.5,-243 318.5,-213 193.5,-213"/>
<text text-anchor="start" x="201.5" y="-231" font-family="Helvetica,sans-Serif" font-size="10.00" fill="#000000">decoder_sink_should</text>
<text text-anchor="middle" x="256" y="-220" font-family="Helvetica,sans-Serif" font-size="10.00" fill="#000000">_reject_null_hsd_pointer</text>
</a>
</g>
</g>
<!-- Node218&#45;&gt;Node244 -->
<g id="edge43" class="edge">
<title>Node218&#45;&gt;Node244</title>
<path fill="none" stroke="#191970" d="M65.9662,-484.1775C71.746,-436.8166 93.0245,-316.3255 164,-253 172.2747,-245.6172 182.5198,-240.3864 193.1371,-236.6869"/>
<polygon fill="#191970" stroke="#191970" points="62.4642,-484.0015 64.8335,-494.328 69.421,-484.7779 62.4642,-484.0015"/>
</g>
<!-- Node245 -->
<g id="node28" class="node">
<title>Node245</title>
<g id="a_node28"><a xlink:href="test__heatshrink__dynamic_8c.html#a9fbd2a0b8d8dafd461461172f8bf563e" target="_top" xlink:title="decoder_sink_should\l_reject_null_input_pointer">
<polygon fill="#ffffff" stroke="#000000" points="190.5,-164 190.5,-194 321.5,-194 321.5,-164 190.5,-164"/>
<text text-anchor="start" x="198.5" y="-182" font-family="Helvetica,sans-Serif" font-size="10.00" fill="#000000">decoder_sink_should</text>
<text text-anchor="middle" x="256" y="-171" font-family="Helvetica,sans-Serif" font-size="10.00" fill="#000000">_reject_null_input_pointer</text>
</a>
</g>
</g>
<!-- Node218&#45;&gt;Node245 -->
<g id="edge45" class="edge">
<title>Node218&#45;&gt;Node245</title>
<path fill="none" stroke="#191970" d="M68.0415,-484.2722C80.7604,-424.0141 121.6427,-244.0325 164,-204 171.458,-196.9513 180.6998,-191.8504 190.4239,-188.1674"/>
<polygon fill="#191970" stroke="#191970" points="64.5528,-483.858 65.9405,-494.3616 71.4058,-485.2852 64.5528,-483.858"/>
</g>
<!-- Node246 -->
<g id="node29" class="node">
<title>Node246</title>
<g id="a_node29"><a xlink:href="test__heatshrink__dynamic_8c.html#a805b1155ea0d119009d7dfe43ea1baac" target="_top" xlink:title="decoder_sink_should\l_sink_data_when_preconditions_hold">
<polygon fill="#ffffff" stroke="#000000" points="164,-115 164,-145 348,-145 348,-115 164,-115"/>
<text text-anchor="start" x="172" y="-133" font-family="Helvetica,sans-Serif" font-size="10.00" fill="#000000">decoder_sink_should</text>
<text text-anchor="middle" x="256" y="-122" font-family="Helvetica,sans-Serif" font-size="10.00" fill="#000000">_sink_data_when_preconditions_hold</text>
</a>
</g>
</g>
<!-- Node218&#45;&gt;Node246 -->
<g id="edge47" class="edge">
<title>Node218&#45;&gt;Node246</title>
<path fill="none" stroke="#191970" d="M67.0815,-484.1691C77.8285,-417.4611 115.6427,-202.6981 164,-155 167.8886,-151.1644 172.3034,-147.9022 177.0442,-145.1294"/>
<polygon fill="#191970" stroke="#191970" points="63.6005,-483.7743 65.4913,-494.199 70.5141,-484.8705 63.6005,-483.7743"/>
</g>
<!-- Node247 -->
<g id="node30" class="node">
<title>Node247</title>
<g id="a_node30"><a xlink:href="espfs_8h.html#adb43e859351bc07f175ccc5e29ee6950" target="_top" xlink:title="espFsRead">
<polygon fill="#ffffff" stroke="#000000" points="222,-38.5 222,-57.5 290,-57.5 290,-38.5 222,-38.5"/>
<text text-anchor="middle" x="256" y="-45.5" font-family="Helvetica,sans-Serif" font-size="10.00" fill="#000000">espFsRead</text>
</a>
</g>
</g>
<!-- Node218&#45;&gt;Node247 -->
<g id="edge49" class="edge">
<title>Node218&#45;&gt;Node247</title>
<path fill="none" stroke="#191970" d="M65.7278,-484.2648C72.8878,-407.0786 102.7673,-126.9421 164,-67 179.0344,-52.2825 202.2777,-47.573 221.6394,-46.5223"/>
<polygon fill="#191970" stroke="#191970" points="62.218,-484.2156 64.8035,-494.4901 69.1896,-484.8458 62.218,-484.2156"/>
</g>
<!-- Node220 -->
<g id="node3" class="node">
<title>Node220</title>
<g id="a_node3"><a xlink:href="test__heatshrink__dynamic_8c.html#a9d63746ee6a963338d09b8a19da82529" target="_top" xlink:title="data_without_duplication\l_should_match">
<polygon fill="#ffffff" stroke="#000000" points="412,-1260 412,-1290 539,-1290 539,-1260 412,-1260"/>
<text text-anchor="start" x="420" y="-1278" font-family="Helvetica,sans-Serif" font-size="10.00" fill="#000000">data_without_duplication</text>
<text text-anchor="middle" x="475.5" y="-1267" font-family="Helvetica,sans-Serif" font-size="10.00" fill="#000000">_should_match</text>
</a>
</g>
</g>
<!-- Node219&#45;&gt;Node220 -->
<g id="edge2" class="edge">
<title>Node219&#45;&gt;Node220</title>
<path fill="none" stroke="#191970" d="M267.8566,-1107.0913C287.0972,-1143.6407 328.6165,-1212.775 384,-1250 392.3371,-1255.6036 401.8962,-1259.9562 411.6216,-1263.3358"/>
<polygon fill="#191970" stroke="#191970" points="270.927,-1105.4087 263.2382,-1098.1195 264.7032,-1108.6126 270.927,-1105.4087"/>
</g>
<!-- Node222 -->
<g id="node5" class="node">
<title>Node222</title>
<g id="a_node5"><a xlink:href="test__heatshrink__dynamic_8c.html#ae9d1425d6c89a652b9df2b4ddc7ac2a2" target="_top" xlink:title="data_with_simple_repetition\l_should_compress_and_decompress\l_properly">
<polygon fill="#ffffff" stroke="#000000" points="384,-1199.5 384,-1240.5 567,-1240.5 567,-1199.5 384,-1199.5"/>
<text text-anchor="start" x="392" y="-1228.5" font-family="Helvetica,sans-Serif" font-size="10.00" fill="#000000">data_with_simple_repetition</text>
<text text-anchor="start" x="392" y="-1217.5" font-family="Helvetica,sans-Serif" font-size="10.00" fill="#000000">_should_compress_and_decompress</text>
<text text-anchor="middle" x="475.5" y="-1206.5" font-family="Helvetica,sans-Serif" font-size="10.00" fill="#000000">_properly</text>
</a>
</g>
</g>
<!-- Node219&#45;&gt;Node222 -->
<g id="edge4" class="edge">
<title>Node219&#45;&gt;Node222</title>
<path fill="none" stroke="#191970" d="M277.5194,-1105.4967C301.502,-1129.4197 342.4067,-1166.9225 384,-1190 390.2858,-1193.4876 397.0415,-1196.65 403.9319,-1199.498"/>
<polygon fill="#191970" stroke="#191970" points="279.8674,-1102.8933 270.3481,-1098.2421 274.8892,-1107.8144 279.8674,-1102.8933"/>
</g>
<!-- Node223 -->
<g id="node6" class="node">
<title>Node223</title>
<g id="a_node6"><a xlink:href="test__heatshrink__dynamic_8c.html#a60c0e0c5bbb9715c7932ee82e706752d" target="_top" xlink:title="pseudorandom_data_should\l_match">
<polygon fill="#ffffff" stroke="#000000" points="404,-1150 404,-1180 547,-1180 547,-1150 404,-1150"/>
<text text-anchor="start" x="412" y="-1168" font-family="Helvetica,sans-Serif" font-size="10.00" fill="#000000">pseudorandom_data_should</text>
<text text-anchor="middle" x="475.5" y="-1157" font-family="Helvetica,sans-Serif" font-size="10.00" fill="#000000">_match</text>
</a>
</g>
</g>
<!-- Node219&#45;&gt;Node223 -->
<g id="edge6" class="edge">
<title>Node219&#45;&gt;Node223</title>
<path fill="none" stroke="#191970" d="M295.3954,-1102.4155C320.3891,-1114.2619 353.629,-1129.1598 384,-1140 393.926,-1143.5428 404.6077,-1146.8768 415.047,-1149.8848"/>
<polygon fill="#191970" stroke="#191970" points="296.7748,-1099.1956 286.2433,-1098.0395 293.7552,-1105.5109 296.7748,-1099.1956"/>
</g>
<!-- Node224 -->
<g id="node7" class="node">
<title>Node224</title>
<g id="a_node7"><a xlink:href="test__heatshrink__dynamic_8c.html#a20e1a72bba941f0c602b93b53d32d5db" target="_top" xlink:title="small_input_buffer\l_should_not_impact_decoder\l_correctness">
<polygon fill="#ffffff" stroke="#000000" points="401.5,-1089.5 401.5,-1130.5 549.5,-1130.5 549.5,-1089.5 401.5,-1089.5"/>
<text text-anchor="start" x="409.5" y="-1118.5" font-family="Helvetica,sans-Serif" font-size="10.00" fill="#000000">small_input_buffer</text>
<text text-anchor="start" x="409.5" y="-1107.5" font-family="Helvetica,sans-Serif" font-size="10.00" fill="#000000">_should_not_impact_decoder</text>
<text text-anchor="middle" x="475.5" y="-1096.5" font-family="Helvetica,sans-Serif" font-size="10.00" fill="#000000">_correctness</text>
</a>
</g>
</g>
<!-- Node219&#45;&gt;Node224 -->
<g id="edge8" class="edge">
<title>Node219&#45;&gt;Node224</title>
<path fill="none" stroke="#191970" d="M326.3298,-1091.651C350.2523,-1094.5937 377.0565,-1097.8908 401.274,-1100.8697"/>
<polygon fill="#191970" stroke="#191970" points="326.6222,-1088.1607 316.2697,-1090.4136 325.7675,-1095.1084 326.6222,-1088.1607"/>
</g>
<!-- Node225 -->
<g id="node8" class="node">
<title>Node225</title>
<g id="a_node8"><a xlink:href="test__heatshrink__dynamic_8c.html#a462faeb904a3de1b1e009a04f7d171d8" target="_top" xlink:title="regression_backreference\l_counters_should_not_roll_over">
<polygon fill="#ffffff" stroke="#000000" points="396,-1040 396,-1070 555,-1070 555,-1040 396,-1040"/>
<text text-anchor="start" x="404" y="-1058" font-family="Helvetica,sans-Serif" font-size="10.00" fill="#000000">regression_backreference</text>
<text text-anchor="middle" x="475.5" y="-1047" font-family="Helvetica,sans-Serif" font-size="10.00" fill="#000000">_counters_should_not_roll_over</text>
</a>
</g>
</g>
<!-- Node219&#45;&gt;Node225 -->
<g id="edge10" class="edge">
<title>Node219&#45;&gt;Node225</title>
<path fill="none" stroke="#191970" d="M326.2338,-1074.0408C348.3321,-1071.2219 372.8972,-1068.0883 395.6145,-1065.1904"/>
<polygon fill="#191970" stroke="#191970" points="325.7464,-1070.5745 316.2697,-1075.3118 326.6322,-1077.5182 325.7464,-1070.5745"/>
</g>
<!-- Node226 -->
<g id="node9" class="node">
<title>Node226</title>
<g id="a_node9"><a xlink:href="test__heatshrink__dynamic_8c.html#a2ed8ea21768d114fa96b07eb58475663" target="_top" xlink:title="regression_index_fail">
<polygon fill="#ffffff" stroke="#000000" points="420,-1001.5 420,-1020.5 531,-1020.5 531,-1001.5 420,-1001.5"/>
<text text-anchor="middle" x="475.5" y="-1008.5" font-family="Helvetica,sans-Serif" font-size="10.00" fill="#000000">regression_index_fail</text>
</a>
</g>
</g>
<!-- Node219&#45;&gt;Node226 -->
<g id="edge12" class="edge">
<title>Node219&#45;&gt;Node226</title>
<path fill="none" stroke="#191970" d="M298.001,-1063.8186C322.6702,-1053.0905 354.6723,-1040.0894 384,-1031 396.8913,-1027.0047 411.0416,-1023.4977 424.2795,-1020.5824"/>
<polygon fill="#191970" stroke="#191970" points="296.3343,-1060.728 288.5881,-1067.9563 299.1512,-1067.1362 296.3343,-1060.728"/>
</g>
<!-- Node227 -->
<g id="node10" class="node">
<title>Node227</title>
<g id="a_node10"><a xlink:href="test__heatshrink__dynamic_8c.html#a1bfe72da903d55a8610433a4f2a60d43" target="_top" xlink:title="sixty_four_k">
<polygon fill="#ffffff" stroke="#000000" points="440.5,-963.5 440.5,-982.5 510.5,-982.5 510.5,-963.5 440.5,-963.5"/>
<text text-anchor="middle" x="475.5" y="-970.5" font-family="Helvetica,sans-Serif" font-size="10.00" fill="#000000">sixty_four_k</text>
</a>
</g>
</g>
<!-- Node219&#45;&gt;Node227 -->
<g id="edge14" class="edge">
<title>Node219&#45;&gt;Node227</title>
<path fill="none" stroke="#191970" d="M280.0793,-1061.1821C304.4992,-1040.2503 344.2585,-1009.3384 384,-992 401.6961,-984.2796 422.7116,-979.6312 440.1368,-976.8671"/>
<polygon fill="#191970" stroke="#191970" points="277.6497,-1058.6567 272.408,-1067.864 282.2474,-1063.9351 277.6497,-1058.6567"/>
</g>
<!-- Node221 -->
<g id="node4" class="node">
<title>Node221</title>
<g id="a_node4"><a xlink:href="test__heatshrink__dynamic_8c.html#a2f157eb23cb17a496326c14e12933b3b" target="_top" xlink:title="SUITE">
<polygon fill="#ffffff" stroke="#000000" points="603,-1045.5 603,-1064.5 649,-1064.5 649,-1045.5 603,-1045.5"/>
<text text-anchor="middle" x="626" y="-1052.5" font-family="Helvetica,sans-Serif" font-size="10.00" fill="#000000">SUITE</text>
</a>
</g>
</g>
<!-- Node220&#45;&gt;Node221 -->
<g id="edge3" class="edge">
<title>Node220&#45;&gt;Node221</title>
<path fill="none" stroke="#191970" d="M548.521,-1262.6613C555.3142,-1259.3611 561.6453,-1255.2116 567,-1250 594.628,-1223.1106 617.9864,-1100.6113 624.3122,-1064.8367"/>
<polygon fill="#191970" stroke="#191970" points="546.882,-1259.5536 539.0196,-1266.6552 549.5946,-1266.0067 546.882,-1259.5536"/>
</g>
<!-- Node222&#45;&gt;Node221 -->
<g id="edge5" class="edge">
<title>Node222&#45;&gt;Node221</title>
<path fill="none" stroke="#191970" d="M562.9054,-1193.4535C564.3148,-1192.3488 565.6818,-1191.1983 567,-1190 605.7993,-1154.729 620.2929,-1089.3779 624.5278,-1064.7394"/>
<polygon fill="#191970" stroke="#191970" points="560.6708,-1190.7424 554.4131,-1199.2918 564.6364,-1196.5108 560.6708,-1190.7424"/>
</g>
<!-- Node223&#45;&gt;Node221 -->
<g id="edge7" class="edge">
<title>Node223&#45;&gt;Node221</title>
<path fill="none" stroke="#191970" d="M556.5153,-1146.3824C560.1723,-1144.4601 563.6908,-1142.3394 567,-1140 595.1631,-1120.0903 614.269,-1082.2326 622.0618,-1064.5482"/>
<polygon fill="#191970" stroke="#191970" points="554.7454,-1143.3467 547.18,-1150.764 557.7196,-1149.6835 554.7454,-1143.3467"/>
</g>
<!-- Node224&#45;&gt;Node221 -->
<g id="edge9" class="edge">
<title>Node224&#45;&gt;Node221</title>
<path fill="none" stroke="#191970" d="M550.2881,-1086.0525C555.9628,-1084.0606 561.5851,-1082.0308 567,-1080 579.6036,-1075.2731 593.4737,-1069.4295 604.5974,-1064.5808"/>
<polygon fill="#191970" stroke="#191970" points="549.0227,-1082.7867 540.7157,-1089.3626 551.3104,-1089.4023 549.0227,-1082.7867"/>
</g>
<!-- Node225&#45;&gt;Node221 -->
<g id="edge11" class="edge">
<title>Node225&#45;&gt;Node221</title>
<path fill="none" stroke="#191970" d="M565.3379,-1055C579.1921,-1055 592.3603,-1055 602.8656,-1055"/>
<polygon fill="#191970" stroke="#191970" points="565.157,-1051.5001 555.1569,-1055 565.1569,-1058.5001 565.157,-1051.5001"/>
</g>
<!-- Node226&#45;&gt;Node221 -->
<g id="edge13" class="edge">
<title>Node226&#45;&gt;Node221</title>
<path fill="none" stroke="#191970" d="M536.7872,-1022.8744C546.9559,-1025.2784 557.3322,-1028.0013 567,-1031 579.8853,-1034.9967 593.8889,-1040.6347 605.0185,-1045.442"/>
<polygon fill="#191970" stroke="#191970" points="537.2497,-1019.3901 526.7217,-1020.5784 535.6929,-1026.2148 537.2497,-1019.3901"/>
</g>
<!-- Node227&#45;&gt;Node221 -->
<g id="edge15" class="edge">
<title>Node227&#45;&gt;Node221</title>
<path fill="none" stroke="#191970" d="M520.6072,-976.7816C536.0482,-979.4918 552.9569,-984.118 567,-992 590.5213,-1005.2019 610.1345,-1030.9848 619.7067,-1045.1299"/>
<polygon fill="#191970" stroke="#191970" points="521.1326,-973.3213 510.7171,-975.2624 520.0697,-980.2402 521.1326,-973.3213"/>
</g>
<!-- Node228&#45;&gt;Node221 -->
<g id="edge17" class="edge">
<title>Node228&#45;&gt;Node221</title>
<path fill="none" stroke="#191970" d="M559.9163,-948.8553C562.3746,-950.4653 564.7445,-952.1781 567,-954 598.1205,-979.1385 616.2831,-1025.3973 623.002,-1045.3844"/>
<polygon fill="#191970" stroke="#191970" points="561.6497,-945.8143 551.2544,-943.7677 558.1045,-951.8502 561.6497,-945.8143"/>
</g>
<!-- Node229&#45;&gt;Node221 -->
<g id="edge19" class="edge">
<title>Node229&#45;&gt;Node221</title>
<path fill="none" stroke="#191970" d="M559.9812,-888.0697C562.4515,-889.9033 564.8021,-891.8765 567,-894 611.9595,-937.4372 622.8591,-1017.9492 625.3246,-1045.4807"/>
<polygon fill="#191970" stroke="#191970" points="561.4643,-884.8602 551.1691,-882.3584 557.6571,-890.7343 561.4643,-884.8602"/>
</g>
<!-- Node231 -->
<g id="node14" class="node">
<title>Node231</title>
<g id="a_node14"><a xlink:href="test__heatshrink__dynamic_8c.html#adc66afa12a5eaae0cd12d5cc497f0f67" target="_top" xlink:title="SUITE">
<polygon fill="#ffffff" stroke="#000000" points="452.5,-459.5 452.5,-478.5 498.5,-478.5 498.5,-459.5 452.5,-459.5"/>
<text text-anchor="middle" x="475.5" y="-466.5" font-family="Helvetica,sans-Serif" font-size="10.00" fill="#000000">SUITE</text>
</a>
</g>
</g>
<!-- Node230&#45;&gt;Node231 -->
<g id="edge21" class="edge">
<title>Node230&#45;&gt;Node231</title>
<path fill="none" stroke="#191970" d="M324.2829,-832.2941C332.966,-828.8334 341.1833,-824.1975 348,-818 455.6301,-720.1463 472.5752,-523.8896 475.0851,-478.5143"/>
<polygon fill="#191970" stroke="#191970" points="323.0254,-829.0256 314.7221,-835.6064 325.3169,-835.6399 323.0254,-829.0256"/>
</g>
<!-- Node232&#45;&gt;Node231 -->
<g id="edge23" class="edge">
<title>Node232&#45;&gt;Node231</title>
<path fill="none" stroke="#191970" d="M321.6842,-783.0797C331.2531,-779.4812 340.4176,-774.6038 348,-768 442.8977,-685.3495 469.2134,-519.8092 474.421,-478.5042"/>
<polygon fill="#191970" stroke="#191970" points="320.4231,-779.8102 312.0243,-786.2685 322.6174,-786.4574 320.4231,-779.8102"/>
</g>
<!-- Node233&#45;&gt;Node231 -->
<g id="edge25" class="edge">
<title>Node233&#45;&gt;Node231</title>
<path fill="none" stroke="#191970" d="M321.627,-723.5633C331.1208,-719.5675 340.2773,-714.4781 348,-708 426.5465,-642.113 463.7762,-515.1269 473.0981,-478.8796"/>
<polygon fill="#191970" stroke="#191970" points="320.1613,-720.3762 312.0613,-727.2056 322.6522,-726.918 320.1613,-720.3762"/>
</g>
<!-- Node234&#45;&gt;Node231 -->
<g id="edge27" class="edge">
<title>Node234&#45;&gt;Node231</title>
<path fill="none" stroke="#191970" d="M328.706,-648.0016C335.509,-644.46 342.0675,-640.4712 348,-636 409.1729,-589.8946 455.7804,-507.0545 470.5548,-478.7724"/>
<polygon fill="#191970" stroke="#191970" points="326.7837,-645.0439 319.3136,-652.5571 329.8385,-651.3422 326.7837,-645.0439"/>
</g>
<!-- Node235&#45;&gt;Node231 -->
<g id="edge29" class="edge">
<title>Node235&#45;&gt;Node231</title>
<path fill="none" stroke="#191970" d="M337.832,-581.1915C341.3175,-579.5491 344.7225,-577.8191 348,-576 398.0274,-548.2326 446.9399,-499.4099 466.5354,-478.7124"/>
<polygon fill="#191970" stroke="#191970" points="336.1831,-578.0936 328.4503,-585.3361 339.0118,-584.4966 336.1831,-578.0936"/>
</g>
<!-- Node236&#45;&gt;Node231 -->
<g id="edge31" class="edge">
<title>Node236&#45;&gt;Node231</title>
<path fill="none" stroke="#191970" d="M333.8917,-514.8049C375.7427,-501.2677 424.3606,-485.5417 452.3664,-476.4829"/>
<polygon fill="#191970" stroke="#191970" points="332.6854,-511.5165 324.248,-517.9243 334.8398,-518.1768 332.6854,-511.5165"/>
</g>
<!-- Node237&#45;&gt;Node231 -->
<g id="edge33" class="edge">
<title>Node237&#45;&gt;Node231</title>
<path fill="none" stroke="#191970" d="M334.4207,-469C376.1517,-469 424.4785,-469 452.3664,-469"/>
<polygon fill="#191970" stroke="#191970" points="334.248,-465.5001 324.248,-469 334.2479,-472.5001 334.248,-465.5001"/>
</g>
<!-- Node238&#45;&gt;Node231 -->
<g id="edge35" class="edge">
<title>Node238&#45;&gt;Node231</title>
<path fill="none" stroke="#191970" d="M341.8894,-425.782C381.6578,-438.6456 425.8186,-452.9299 452.0909,-461.428"/>
<polygon fill="#191970" stroke="#191970" points="342.7463,-422.3807 332.1544,-422.6331 340.5919,-429.0409 342.7463,-422.3807"/>
</g>
<!-- Node240 -->
<g id="node23" class="node">
<title>Node240</title>
<g id="a_node23"><a xlink:href="heatshrink_8c.html#a92d9515cb2f33eea4832becaa17c11bb" target="_top" xlink:title="decode">
<polygon fill="#ffffff" stroke="#000000" points="451,-76.5 451,-95.5 500,-95.5 500,-76.5 451,-76.5"/>
<text text-anchor="middle" x="475.5" y="-83.5" font-family="Helvetica,sans-Serif" font-size="10.00" fill="#000000">decode</text>
</a>
</g>
</g>
<!-- Node239&#45;&gt;Node240 -->
<g id="edge37" class="edge">
<title>Node239&#45;&gt;Node240</title>
<path fill="none" stroke="#191970" d="M317.2664,-86C361.5058,-86 418.8994,-86 450.9971,-86"/>
<polygon fill="#191970" stroke="#191970" points="317.186,-82.5001 307.186,-86 317.1859,-89.5001 317.186,-82.5001"/>
</g>
<!-- Node241 -->
<g id="node24" class="node">
<title>Node241</title>
<g id="a_node24"><a xlink:href="heatshrink_8c.html#a3c04138a5bfe5d72780bb7e82a18e627" target="_top" xlink:title="main">
<polygon fill="#ffffff" stroke="#000000" points="607,-76.5 607,-95.5 645,-95.5 645,-76.5 607,-76.5"/>
<text text-anchor="middle" x="626" y="-83.5" font-family="Helvetica,sans-Serif" font-size="10.00" fill="#000000">main</text>
</a>
</g>
</g>
<!-- Node240&#45;&gt;Node241 -->
<g id="edge38" class="edge">
<title>Node240&#45;&gt;Node241</title>
<path fill="none" stroke="#191970" d="M510.0644,-86C540.0704,-86 582.4177,-86 606.7563,-86"/>
<polygon fill="#191970" stroke="#191970" points="510.0154,-82.5001 500.0154,-86 510.0153,-89.5001 510.0154,-82.5001"/>
</g>
<!-- Node242&#45;&gt;Node231 -->
<g id="edge40" class="edge">
<title>Node242&#45;&gt;Node231</title>
<path fill="none" stroke="#191970" d="M321.4319,-350.6952C330.5904,-354.2671 339.6995,-358.3647 348,-363 397.763,-390.7892 446.8201,-439.0018 466.4947,-459.4217"/>
<polygon fill="#191970" stroke="#191970" points="322.4949,-347.3566 311.9018,-347.1628 320.062,-353.9202 322.4949,-347.3566"/>
</g>
<!-- Node243&#45;&gt;Node231 -->
<g id="edge42" class="edge">
<title>Node243&#45;&gt;Node231</title>
<path fill="none" stroke="#191970" d="M332.4549,-293.4489C337.9108,-295.9134 343.1607,-298.7456 348,-302 411.8676,-344.9509 457.0689,-430.5491 470.9865,-459.3151"/>
<polygon fill="#191970" stroke="#191970" points="333.6959,-290.1753 323.1147,-289.6389 331.0519,-296.6567 333.6959,-290.1753"/>
</g>
<!-- Node244&#45;&gt;Node231 -->
<g id="edge44" class="edge">
<title>Node244&#45;&gt;Node231</title>
<path fill="none" stroke="#191970" d="M328.5461,-241.8136C335.4867,-244.8345 342.1183,-248.5153 348,-253 423.1426,-310.2951 462.5064,-425.6577 472.7562,-459.4775"/>
<polygon fill="#191970" stroke="#191970" points="329.5208,-238.4378 318.9317,-238.0898 326.9925,-244.9653 329.5208,-238.4378"/>
</g>
<!-- Node245&#45;&gt;Node231 -->
<g id="edge46" class="edge">
<title>Node245&#45;&gt;Node231</title>
<path fill="none" stroke="#191970" d="M331.3774,-193.455C337.3442,-196.3553 342.9897,-199.8323 348,-204 434.5479,-275.9923 466.594,-420.5664 473.8175,-459.2788"/>
<polygon fill="#191970" stroke="#191970" points="332.3527,-190.0657 321.7817,-189.3558 329.6028,-196.5029 332.3527,-190.0657"/>
</g>
<!-- Node246&#45;&gt;Node231 -->
<g id="edge48" class="edge">
<title>Node246&#45;&gt;Node231</title>
<path fill="none" stroke="#191970" d="M342.4671,-150.6C344.3894,-151.9743 346.2388,-153.439 348,-155 446.4093,-242.2226 470.1686,-416.4806 474.6152,-459.32"/>
<polygon fill="#191970" stroke="#191970" points="343.9659,-147.412 333.6186,-145.1351 340.2876,-153.3677 343.9659,-147.412"/>
</g>
<!-- Node248 -->
<g id="node31" class="node">
<title>Node248</title>
<g id="a_node31"><a xlink:href="httpdespfs_8h.html#aa502116e50052d973b6eef02a6282dd3" target="_top" xlink:title="cgiEspFsHook">
<polygon fill="#ffffff" stroke="#000000" points="435,-38.5 435,-57.5 516,-57.5 516,-38.5 435,-38.5"/>
<text text-anchor="middle" x="475.5" y="-45.5" font-family="Helvetica,sans-Serif" font-size="10.00" fill="#000000">cgiEspFsHook</text>
</a>
</g>
</g>
<!-- Node247&#45;&gt;Node248 -->
<g id="edge50" class="edge">
<title>Node247&#45;&gt;Node248</title>
<path fill="none" stroke="#191970" d="M300.384,-48C339.6789,-48 396.5617,-48 434.7282,-48"/>
<polygon fill="#191970" stroke="#191970" points="300.2969,-44.5001 290.2969,-48 300.2968,-51.5001 300.2969,-44.5001"/>
</g>
<!-- Node249 -->
<g id="node32" class="node">
<title>Node249</title>
<g id="a_node32"><a xlink:href="httpdespfs_8h.html#abc9eb26f247094e9fc41db897f6ec030" target="_top" xlink:title="cgiEspFsTemplate">
<polygon fill="#ffffff" stroke="#000000" points="426,-.5 426,-19.5 525,-19.5 525,-.5 426,-.5"/>
<text text-anchor="middle" x="475.5" y="-7.5" font-family="Helvetica,sans-Serif" font-size="10.00" fill="#000000">cgiEspFsTemplate</text>
</a>
</g>
</g>
<!-- Node247&#45;&gt;Node249 -->
<g id="edge51" class="edge">
<title>Node247&#45;&gt;Node249</title>
<path fill="none" stroke="#191970" d="M300.604,-40.2781C336.9796,-33.9808 388.3188,-25.0929 425.9662,-18.5753"/>
<polygon fill="#191970" stroke="#191970" points="299.5532,-36.9079 290.2969,-42.0625 300.7474,-43.8053 299.5532,-36.9079"/>
</g>
</g>
</svg>
