<?xml version="1.0" encoding="UTF-8" standalone="no"?>
<!DOCTYPE svg PUBLIC "-//W3C//DTD SVG 1.1//EN"
 "http://www.w3.org/Graphics/SVG/1.1/DTD/svg11.dtd">
<!-- Generated by graphviz version 2.39.20160927.1334 (20160927.1334)
 -->
<!-- Title: include/lwipopts.h Pages: 1 -->
<svg width="300pt" height="140pt"
 viewBox="0.00 0.00 300.00 140.00" xmlns="http://www.w3.org/2000/svg" xmlns:xlink="http://www.w3.org/1999/xlink">
<g id="graph0" class="graph" transform="scale(1 1) rotate(0) translate(4 136)">
<title>include/lwipopts.h</title>
<polygon fill="#ffffff" stroke="transparent" points="-4,4 -4,-136 296,-136 296,4 -4,4"/>
<!-- Node1 -->
<g id="node1" class="node">
<title>Node1</title>
<polygon fill="#bfbfbf" stroke="#000000" points="90,-112.5 90,-131.5 185,-131.5 185,-112.5 90,-112.5"/>
<text text-anchor="middle" x="137.5" y="-119.5" font-family="Helvetica,sans-Serif" font-size="10.00" fill="#000000">include/lwipopts.h</text>
</g>
<!-- Node2 -->
<g id="node2" class="node">
<title>Node2</title>
<g id="a_node2"><a xlink:href="espmissingincludes_8h.html" target="_top" xlink:title="espmissingincludes.h">
<polygon fill="#ffffff" stroke="#000000" points="81.5,-56.5 81.5,-75.5 193.5,-75.5 193.5,-56.5 81.5,-56.5"/>
<text text-anchor="middle" x="137.5" y="-63.5" font-family="Helvetica,sans-Serif" font-size="10.00" fill="#000000">espmissingincludes.h</text>
</a>
</g>
</g>
<!-- Node1&#45;&gt;Node2 -->
<g id="edge1" class="edge">
<title>Node1&#45;&gt;Node2</title>
<path fill="none" stroke="#191970" d="M137.5,-112.246C137.5,-104.938 137.5,-94.6944 137.5,-85.7046"/>
<polygon fill="#191970" stroke="#191970" points="141,-85.6426 137.5,-75.6427 134,-85.6427 141,-85.6426"/>
</g>
<!-- Node3 -->
<g id="node3" class="node">
<title>Node3</title>
<polygon fill="#ffffff" stroke="#bfbfbf" points="0,-0.5 0,-19.5 49,-19.5 49,-0.5 0,-0.5"/>
<text text-anchor="middle" x="24.5" y="-7.5" font-family="Helvetica,sans-Serif" font-size="10.00" fill="#000000">stdint.h</text>
</g>
<!-- Node2&#45;&gt;Node3 -->
<g id="edge2" class="edge">
<title>Node2&#45;&gt;Node3</title>
<path fill="none" stroke="#191970" d="M118.075,-56.3733C100.098,-47.4644 73.1559,-34.1127 52.791,-24.0203"/>
<polygon fill="#191970" stroke="#191970" points="54.1861,-20.8055 43.6719,-19.5011 51.0778,-27.0776 54.1861,-20.8055"/>
</g>
<!-- Node4 -->
<g id="node4" class="node">
<title>Node4</title>
<polygon fill="#ffffff" stroke="#bfbfbf" points="67,-0.5 67,-19.5 126,-19.5 126,-0.5 67,-0.5"/>
<text text-anchor="middle" x="96.5" y="-7.5" font-family="Helvetica,sans-Serif" font-size="10.00" fill="#000000">c_types.h</text>
</g>
<!-- Node2&#45;&gt;Node4 -->
<g id="edge3" class="edge">
<title>Node2&#45;&gt;Node4</title>
<path fill="none" stroke="#191970" d="M130.358,-56.2455C124.656,-48.4564 116.51,-37.3308 109.638,-27.9439"/>
<polygon fill="#191970" stroke="#191970" points="112.291,-25.6437 103.56,-19.6427 106.643,-29.7789 112.291,-25.6437"/>
</g>
<!-- Node5 -->
<g id="node5" class="node">
<title>Node5</title>
<polygon fill="#ffffff" stroke="#bfbfbf" points="144.5,-0.5 144.5,-19.5 214.5,-19.5 214.5,-0.5 144.5,-0.5"/>
<text text-anchor="middle" x="179.5" y="-7.5" font-family="Helvetica,sans-Serif" font-size="10.00" fill="#000000">eagle_soc.h</text>
</g>
<!-- Node2&#45;&gt;Node5 -->
<g id="edge4" class="edge">
<title>Node2&#45;&gt;Node5</title>
<path fill="none" stroke="#191970" d="M144.816,-56.2455C150.718,-48.3761 159.174,-37.101 166.259,-27.6542"/>
<polygon fill="#191970" stroke="#191970" points="169.068,-29.7427 172.268,-19.6427 163.468,-25.5427 169.068,-29.7427"/>
</g>
<!-- Node6 -->
<g id="node6" class="node">
<title>Node6</title>
<polygon fill="#ffffff" stroke="#bfbfbf" points="233,-0.5 233,-19.5 292,-19.5 292,-0.5 233,-0.5"/>
<text text-anchor="middle" x="262.5" y="-7.5" font-family="Helvetica,sans-Serif" font-size="10.00" fill="#000000">ets_sys.h</text>
</g>
<!-- Node2&#45;&gt;Node6 -->
<g id="edge5" class="edge">
<title>Node2&#45;&gt;Node6</title>
<path fill="none" stroke="#191970" d="M158.988,-56.3733C179.144,-47.3435 209.488,-33.7494 232.118,-23.6111"/>
<polygon fill="#191970" stroke="#191970" points="233.597,-26.7838 241.292,-19.5011 230.735,-20.3955 233.597,-26.7838"/>
</g>
</g>
</svg>
