<?xml version="1.0" encoding="UTF-8" standalone="no"?>
<!DOCTYPE svg PUBLIC "-//W3C//DTD SVG 1.1//EN"
 "http://www.w3.org/Graphics/SVG/1.1/DTD/svg11.dtd">
<!-- Generated by graphviz version 2.41.20170323.1842 (20170323.1842)
 -->
<!-- Title: sdk/include/mesh.h Pages: 1 -->
<svg width="433pt" height="588pt"
 viewBox="0.00 0.00 432.50 588.00" xmlns="http://www.w3.org/2000/svg" xmlns:xlink="http://www.w3.org/1999/xlink">
<g id="graph0" class="graph" transform="scale(1 1) rotate(0) translate(4 584)">
<title>sdk/include/mesh.h</title>
<polygon fill="#ffffff" stroke="transparent" points="-4,4 -4,-584 428.5,-584 428.5,4 -4,4"/>
<!-- Node0 -->
<g id="node1" class="node">
<title>Node0</title>
<polygon fill="#bfbfbf" stroke="#000000" points="141,-560.5 141,-579.5 243,-579.5 243,-560.5 141,-560.5"/>
<text text-anchor="middle" x="192" y="-567.5" font-family="Helvetica,sans-Serif" font-size="10.00" fill="#000000">sdk/include/mesh.h</text>
</g>
<!-- Node1 -->
<g id="node2" class="node">
<title>Node1</title>
<g id="a_node2"><a xlink:href="sdk_2include_2ip__addr_8h.html" target="_top" xlink:title="ip_addr.h">
<polygon fill="#ffffff" stroke="#000000" points="0,-392.5 0,-411.5 58,-411.5 58,-392.5 0,-392.5"/>
<text text-anchor="middle" x="29" y="-399.5" font-family="Helvetica,sans-Serif" font-size="10.00" fill="#000000">ip_addr.h</text>
</a>
</g>
</g>
<!-- Node0&#45;&gt;Node1 -->
<g id="edge1" class="edge">
<title>Node0&#45;&gt;Node1</title>
<path fill="none" stroke="#191970" d="M150.9608,-560.4817C106.5557,-547.7482 37.9597,-520.4233 7,-468 -1.7829,-453.1281 6.1109,-434.2771 14.791,-420.5329"/>
<polygon fill="#191970" stroke="#191970" points="17.9207,-422.1606 20.7305,-411.9452 12.1635,-418.1787 17.9207,-422.1606"/>
</g>
<!-- Node5 -->
<g id="node6" class="node">
<title>Node5</title>
<g id="a_node6"><a xlink:href="user__interface_8h.html" target="_top" xlink:title="user_interface.h">
<polygon fill="#ffffff" stroke="#000000" points="148,-504.5 148,-523.5 236,-523.5 236,-504.5 148,-504.5"/>
<text text-anchor="middle" x="192" y="-511.5" font-family="Helvetica,sans-Serif" font-size="10.00" fill="#000000">user_interface.h</text>
</a>
</g>
</g>
<!-- Node0&#45;&gt;Node5 -->
<g id="edge5" class="edge">
<title>Node0&#45;&gt;Node5</title>
<path fill="none" stroke="#191970" d="M192,-560.2455C192,-552.9382 192,-542.6944 192,-533.7046"/>
<polygon fill="#191970" stroke="#191970" points="195.5001,-533.6426 192,-523.6427 188.5001,-533.6427 195.5001,-533.6426"/>
</g>
<!-- Node22 -->
<g id="node23" class="node">
<title>Node22</title>
<g id="a_node23"><a xlink:href="sdk_2include_2espconn_8h.html" target="_top" xlink:title="espconn.h">
<polygon fill="#ffffff" stroke="#000000" points="254.5,-504.5 254.5,-523.5 317.5,-523.5 317.5,-504.5 254.5,-504.5"/>
<text text-anchor="middle" x="286" y="-511.5" font-family="Helvetica,sans-Serif" font-size="10.00" fill="#000000">espconn.h</text>
</a>
</g>
</g>
<!-- Node0&#45;&gt;Node22 -->
<g id="edge28" class="edge">
<title>Node0&#45;&gt;Node22</title>
<path fill="none" stroke="#191970" d="M208.3736,-560.2455C222.9308,-551.5731 244.431,-538.7645 261.1152,-528.825"/>
<polygon fill="#191970" stroke="#191970" points="263.0144,-531.7676 269.8141,-523.6427 259.4317,-525.7539 263.0144,-531.7676"/>
</g>
<!-- Node2 -->
<g id="node3" class="node">
<title>Node2</title>
<g id="a_node3"><a xlink:href="c__types_8h.html" target="_top" xlink:title="c_types.h">
<polygon fill="#ffffff" stroke="#000000" points="114.5,-56.5 114.5,-75.5 173.5,-75.5 173.5,-56.5 114.5,-56.5"/>
<text text-anchor="middle" x="144" y="-63.5" font-family="Helvetica,sans-Serif" font-size="10.00" fill="#000000">c_types.h</text>
</a>
</g>
</g>
<!-- Node1&#45;&gt;Node2 -->
<g id="edge2" class="edge">
<title>Node1&#45;&gt;Node2</title>
<path fill="none" stroke="#191970" d="M32.8364,-392.2883C40.0687,-373.0769 55,-328.7253 55,-290 55,-290 55,-290 55,-178 55,-136.0503 93.7437,-100.7004 120.1057,-81.503"/>
<polygon fill="#191970" stroke="#191970" points="122.3144,-84.2292 128.4974,-75.6256 118.2987,-78.4956 122.3144,-84.2292"/>
</g>
<!-- Node3 -->
<g id="node4" class="node">
<title>Node3</title>
<polygon fill="#ffffff" stroke="#bfbfbf" points="84.5,-.5 84.5,-19.5 133.5,-19.5 133.5,-.5 84.5,-.5"/>
<text text-anchor="middle" x="109" y="-7.5" font-family="Helvetica,sans-Serif" font-size="10.00" fill="#000000">stdint.h</text>
</g>
<!-- Node2&#45;&gt;Node3 -->
<g id="edge3" class="edge">
<title>Node2&#45;&gt;Node3</title>
<path fill="none" stroke="#191970" d="M137.9035,-56.2455C133.0855,-48.5367 126.2249,-37.5598 120.3968,-28.2348"/>
<polygon fill="#191970" stroke="#191970" points="123.2947,-26.2677 115.0267,-19.6427 117.3587,-29.9777 123.2947,-26.2677"/>
</g>
<!-- Node4 -->
<g id="node5" class="node">
<title>Node4</title>
<polygon fill="#ffffff" stroke="#bfbfbf" points="151.5,-.5 151.5,-19.5 208.5,-19.5 208.5,-.5 151.5,-.5"/>
<text text-anchor="middle" x="180" y="-7.5" font-family="Helvetica,sans-Serif" font-size="10.00" fill="#000000">stdbool.h</text>
</g>
<!-- Node2&#45;&gt;Node4 -->
<g id="edge4" class="edge">
<title>Node2&#45;&gt;Node4</title>
<path fill="none" stroke="#191970" d="M150.2707,-56.2455C155.2264,-48.5367 162.283,-37.5598 168.2776,-28.2348"/>
<polygon fill="#191970" stroke="#191970" points="171.3376,-29.9471 173.8011,-19.6427 165.4494,-26.1618 171.3376,-29.9471"/>
</g>
<!-- Node6 -->
<g id="node7" class="node">
<title>Node6</title>
<g id="a_node7"><a xlink:href="os__type_8h.html" target="_top" xlink:title="os_type.h">
<polygon fill="#ffffff" stroke="#000000" points="298,-336.5 298,-355.5 358,-355.5 358,-336.5 298,-336.5"/>
<text text-anchor="middle" x="328" y="-343.5" font-family="Helvetica,sans-Serif" font-size="10.00" fill="#000000">os_type.h</text>
</a>
</g>
</g>
<!-- Node5&#45;&gt;Node6 -->
<g id="edge6" class="edge">
<title>Node5&#45;&gt;Node6</title>
<path fill="none" stroke="#191970" d="M232.5205,-504.4259C265.4818,-495.758 308.236,-482.2046 319,-468 341.5595,-438.2296 337.3696,-391.7822 332.5368,-365.6236"/>
<polygon fill="#191970" stroke="#191970" points="335.9509,-364.8493 330.5024,-355.7628 329.0953,-366.2637 335.9509,-364.8493"/>
</g>
<!-- Node9 -->
<g id="node10" class="node">
<title>Node9</title>
<g id="a_node10"><a xlink:href="esp-open-lwip_2include_2lwip_2ip__addr_8h.html" target="_top" xlink:title="lwip/ip_addr.h">
<polygon fill="#ffffff" stroke="#000000" points="232,-448.5 232,-467.5 310,-467.5 310,-448.5 232,-448.5"/>
<text text-anchor="middle" x="271" y="-455.5" font-family="Helvetica,sans-Serif" font-size="10.00" fill="#000000">lwip/ip_addr.h</text>
</a>
</g>
</g>
<!-- Node5&#45;&gt;Node9 -->
<g id="edge10" class="edge">
<title>Node5&#45;&gt;Node9</title>
<path fill="none" stroke="#191970" d="M205.7607,-504.2455C217.6552,-495.814 235.065,-483.4729 248.9085,-473.6598"/>
<polygon fill="#191970" stroke="#191970" points="251.2628,-476.2811 257.3969,-467.6427 247.2146,-470.5704 251.2628,-476.2811"/>
</g>
<!-- Node17 -->
<g id="node18" class="node">
<title>Node17</title>
<polygon fill="#ffffff" stroke="#bfbfbf" points="347.5,-56.5 347.5,-75.5 424.5,-75.5 424.5,-56.5 347.5,-56.5"/>
<text text-anchor="middle" x="386" y="-63.5" font-family="Helvetica,sans-Serif" font-size="10.00" fill="#000000">user_config.h</text>
</g>
<!-- Node5&#45;&gt;Node17 -->
<g id="edge25" class="edge">
<title>Node5&#45;&gt;Node17</title>
<path fill="none" stroke="#191970" d="M231.9621,-504.4172C269.0101,-495.0019 320.9031,-480.2991 338,-468 367.4435,-446.819 386,-438.2706 386,-402 386,-402 386,-402 386,-178 386,-145.7116 386,-108.1872 386,-85.8048"/>
<polygon fill="#191970" stroke="#191970" points="389.5001,-85.5883 386,-75.5884 382.5001,-85.5884 389.5001,-85.5883"/>
</g>
<!-- Node19 -->
<g id="node20" class="node">
<title>Node19</title>
<g id="a_node20"><a xlink:href="esp-open-sdk_2sdk_2include_2queue_8h.html" target="_top" xlink:title="queue.h">
<polygon fill="#ffffff" stroke="#000000" points="16.5,-448.5 16.5,-467.5 69.5,-467.5 69.5,-448.5 16.5,-448.5"/>
<text text-anchor="middle" x="43" y="-455.5" font-family="Helvetica,sans-Serif" font-size="10.00" fill="#000000">queue.h</text>
</a>
</g>
</g>
<!-- Node5&#45;&gt;Node19 -->
<g id="edge24" class="edge">
<title>Node5&#45;&gt;Node19</title>
<path fill="none" stroke="#191970" d="M166.386,-504.3733C141.9313,-495.1822 104.8946,-481.2624 77.7791,-471.0713"/>
<polygon fill="#191970" stroke="#191970" points="78.8719,-467.7431 68.2798,-467.5011 76.4091,-474.2956 78.8719,-467.7431"/>
</g>
<!-- Node20 -->
<g id="node21" class="node">
<title>Node20</title>
<g id="a_node21"><a xlink:href="spi__flash_8h.html" target="_top" xlink:title="spi_flash.h">
<polygon fill="#ffffff" stroke="#000000" points="88,-448.5 88,-467.5 152,-467.5 152,-448.5 88,-448.5"/>
<text text-anchor="middle" x="120" y="-455.5" font-family="Helvetica,sans-Serif" font-size="10.00" fill="#000000">spi_flash.h</text>
</a>
</g>
</g>
<!-- Node5&#45;&gt;Node20 -->
<g id="edge26" class="edge">
<title>Node5&#45;&gt;Node20</title>
<path fill="none" stroke="#191970" d="M179.4586,-504.2455C168.7213,-495.8943 153.0527,-483.7076 140.4953,-473.9408"/>
<polygon fill="#191970" stroke="#191970" points="142.4401,-471.0194 132.3977,-467.6427 138.1425,-476.5449 142.4401,-471.0194"/>
</g>
<!-- Node21 -->
<g id="node22" class="node">
<title>Node21</title>
<g id="a_node22"><a xlink:href="gpio_8h.html" target="_top" xlink:title="gpio.h">
<polygon fill="#ffffff" stroke="#000000" points="170,-448.5 170,-467.5 214,-467.5 214,-448.5 170,-448.5"/>
<text text-anchor="middle" x="192" y="-455.5" font-family="Helvetica,sans-Serif" font-size="10.00" fill="#000000">gpio.h</text>
</a>
</g>
</g>
<!-- Node5&#45;&gt;Node21 -->
<g id="edge27" class="edge">
<title>Node5&#45;&gt;Node21</title>
<path fill="none" stroke="#191970" d="M192,-504.2455C192,-496.9382 192,-486.6944 192,-477.7046"/>
<polygon fill="#191970" stroke="#191970" points="195.5001,-477.6426 192,-467.6427 188.5001,-477.6427 195.5001,-477.6426"/>
</g>
<!-- Node7 -->
<g id="node8" class="node">
<title>Node7</title>
<g id="a_node8"><a xlink:href="ets__sys_8h.html" target="_top" xlink:title="ets_sys.h">
<polygon fill="#ffffff" stroke="#000000" points="197.5,-112.5 197.5,-131.5 256.5,-131.5 256.5,-112.5 197.5,-112.5"/>
<text text-anchor="middle" x="227" y="-119.5" font-family="Helvetica,sans-Serif" font-size="10.00" fill="#000000">ets_sys.h</text>
</a>
</g>
</g>
<!-- Node6&#45;&gt;Node7 -->
<g id="edge7" class="edge">
<title>Node6&#45;&gt;Node7</title>
<path fill="none" stroke="#191970" d="M325.9258,-336.1728C319.7603,-308.3156 299.7767,-227.0304 265,-168 258.927,-157.6917 250.5988,-147.3214 243.2866,-139.0434"/>
<polygon fill="#191970" stroke="#191970" points="245.763,-136.565 236.4342,-131.5427 240.5949,-141.2863 245.763,-136.565"/>
</g>
<!-- Node7&#45;&gt;Node2 -->
<g id="edge8" class="edge">
<title>Node7&#45;&gt;Node2</title>
<path fill="none" stroke="#191970" d="M212.5425,-112.2455C199.9268,-103.7337 181.4056,-91.2375 166.7955,-81.3801"/>
<polygon fill="#191970" stroke="#191970" points="168.5391,-78.3343 158.2918,-75.6427 164.6239,-84.1371 168.5391,-78.3343"/>
</g>
<!-- Node8 -->
<g id="node9" class="node">
<title>Node8</title>
<g id="a_node9"><a xlink:href="eagle__soc_8h.html" target="_top" xlink:title="eagle_soc.h">
<polygon fill="#ffffff" stroke="#000000" points="192,-56.5 192,-75.5 262,-75.5 262,-56.5 192,-56.5"/>
<text text-anchor="middle" x="227" y="-63.5" font-family="Helvetica,sans-Serif" font-size="10.00" fill="#000000">eagle_soc.h</text>
</a>
</g>
</g>
<!-- Node7&#45;&gt;Node8 -->
<g id="edge9" class="edge">
<title>Node7&#45;&gt;Node8</title>
<path fill="none" stroke="#191970" d="M227,-112.2455C227,-104.9382 227,-94.6944 227,-85.7046"/>
<polygon fill="#191970" stroke="#191970" points="230.5001,-85.6426 227,-75.6427 223.5001,-85.6427 230.5001,-85.6426"/>
</g>
<!-- Node10 -->
<g id="node11" class="node">
<title>Node10</title>
<g id="a_node11"><a xlink:href="opt_8h.html" target="_top" xlink:title="lwip/opt.h">
<polygon fill="#ffffff" stroke="#000000" points="202.5,-336.5 202.5,-355.5 261.5,-355.5 261.5,-336.5 202.5,-336.5"/>
<text text-anchor="middle" x="232" y="-343.5" font-family="Helvetica,sans-Serif" font-size="10.00" fill="#000000">lwip/opt.h</text>
</a>
</g>
</g>
<!-- Node9&#45;&gt;Node10 -->
<g id="edge11" class="edge">
<title>Node9&#45;&gt;Node10</title>
<path fill="none" stroke="#191970" d="M268.6738,-448.4778C265.4189,-435.5376 259.1015,-411.7476 252,-392 248.7317,-382.9118 244.5416,-373.0645 240.8417,-364.8216"/>
<polygon fill="#191970" stroke="#191970" points="244.0179,-363.3513 236.6667,-355.7217 237.6556,-366.2703 244.0179,-363.3513"/>
</g>
<!-- Node18 -->
<g id="node19" class="node">
<title>Node18</title>
<g id="a_node19"><a xlink:href="def_8h.html" target="_top" xlink:title="lwip/def.h">
<polygon fill="#ffffff" stroke="#000000" points="183.5,-392.5 183.5,-411.5 242.5,-411.5 242.5,-392.5 183.5,-392.5"/>
<text text-anchor="middle" x="213" y="-399.5" font-family="Helvetica,sans-Serif" font-size="10.00" fill="#000000">lwip/def.h</text>
</a>
</g>
</g>
<!-- Node9&#45;&gt;Node18 -->
<g id="edge21" class="edge">
<title>Node9&#45;&gt;Node18</title>
<path fill="none" stroke="#191970" d="M260.8972,-448.2455C252.4972,-440.1352 240.3506,-428.4075 230.3916,-418.7919"/>
<polygon fill="#191970" stroke="#191970" points="232.6122,-416.0707 222.9871,-411.6427 227.75,-421.1066 232.6122,-416.0707"/>
</g>
<!-- Node11 -->
<g id="node12" class="node">
<title>Node11</title>
<g id="a_node12"><a xlink:href="lwipopts_8h.html" target="_top" xlink:title="lwipopts.h">
<polygon fill="#ffffff" stroke="#000000" points="147.5,-280.5 147.5,-299.5 208.5,-299.5 208.5,-280.5 147.5,-280.5"/>
<text text-anchor="middle" x="178" y="-287.5" font-family="Helvetica,sans-Serif" font-size="10.00" fill="#000000">lwipopts.h</text>
</a>
</g>
</g>
<!-- Node10&#45;&gt;Node11 -->
<g id="edge12" class="edge">
<title>Node10&#45;&gt;Node11</title>
<path fill="none" stroke="#191970" d="M222.5939,-336.2455C214.8507,-328.2155 203.688,-316.6394 194.4682,-307.0781"/>
<polygon fill="#191970" stroke="#191970" points="196.7591,-304.4117 187.2983,-299.6427 191.7202,-309.2706 196.7591,-304.4117"/>
</g>
<!-- Node12 -->
<g id="node13" class="node">
<title>Node12</title>
<g id="a_node13"><a xlink:href="esp-open-sdk_2esp-open-lwip_2include_2lwip_2debug_8h.html" target="_top" xlink:title="lwip/debug.h">
<polygon fill="#ffffff" stroke="#000000" points="226.5,-280.5 226.5,-299.5 299.5,-299.5 299.5,-280.5 226.5,-280.5"/>
<text text-anchor="middle" x="263" y="-287.5" font-family="Helvetica,sans-Serif" font-size="10.00" fill="#000000">lwip/debug.h</text>
</a>
</g>
</g>
<!-- Node10&#45;&gt;Node12 -->
<g id="edge13" class="edge">
<title>Node10&#45;&gt;Node12</title>
<path fill="none" stroke="#191970" d="M237.3998,-336.2455C241.6227,-328.617 247.6173,-317.7881 252.7441,-308.5267"/>
<polygon fill="#191970" stroke="#191970" points="255.881,-310.0867 257.6621,-299.6427 249.7568,-306.6965 255.881,-310.0867"/>
</g>
<!-- Node13 -->
<g id="node14" class="node">
<title>Node13</title>
<g id="a_node14"><a xlink:href="arch_8h.html" target="_top" xlink:title="lwip/arch.h">
<polygon fill="#ffffff" stroke="#000000" points="195,-224.5 195,-243.5 259,-243.5 259,-224.5 195,-224.5"/>
<text text-anchor="middle" x="227" y="-231.5" font-family="Helvetica,sans-Serif" font-size="10.00" fill="#000000">lwip/arch.h</text>
</a>
</g>
</g>
<!-- Node12&#45;&gt;Node13 -->
<g id="edge14" class="edge">
<title>Node12&#45;&gt;Node13</title>
<path fill="none" stroke="#191970" d="M256.7293,-280.2455C251.7736,-272.5367 244.717,-261.5598 238.7224,-252.2348"/>
<polygon fill="#191970" stroke="#191970" points="241.5506,-250.1618 233.1989,-243.6427 235.6624,-253.9471 241.5506,-250.1618"/>
</g>
<!-- Node14 -->
<g id="node15" class="node">
<title>Node14</title>
<g id="a_node15"><a xlink:href="cc_8h.html" target="_top" xlink:title="arch/cc.h">
<polygon fill="#ffffff" stroke="#000000" points="198.5,-168.5 198.5,-187.5 255.5,-187.5 255.5,-168.5 198.5,-168.5"/>
<text text-anchor="middle" x="227" y="-175.5" font-family="Helvetica,sans-Serif" font-size="10.00" fill="#000000">arch/cc.h</text>
</a>
</g>
</g>
<!-- Node13&#45;&gt;Node14 -->
<g id="edge15" class="edge">
<title>Node13&#45;&gt;Node14</title>
<path fill="none" stroke="#191970" d="M227,-224.2455C227,-216.9382 227,-206.6944 227,-197.7046"/>
<polygon fill="#191970" stroke="#191970" points="230.5001,-197.6426 227,-187.6427 223.5001,-197.6427 230.5001,-197.6426"/>
</g>
<!-- Node14&#45;&gt;Node2 -->
<g id="edge16" class="edge">
<title>Node14&#45;&gt;Node2</title>
<path fill="none" stroke="#191970" d="M218.5788,-168.3401C210.695,-159.1742 198.7077,-144.9185 189,-132 177.2008,-116.2982 164.6843,-97.77 155.8553,-84.3482"/>
<polygon fill="#191970" stroke="#191970" points="158.5371,-82.0532 150.1412,-75.591 152.6747,-85.8784 158.5371,-82.0532"/>
</g>
<!-- Node14&#45;&gt;Node7 -->
<g id="edge17" class="edge">
<title>Node14&#45;&gt;Node7</title>
<path fill="none" stroke="#191970" d="M227,-168.2455C227,-160.9382 227,-150.6944 227,-141.7046"/>
<polygon fill="#191970" stroke="#191970" points="230.5001,-141.6426 227,-131.6427 223.5001,-141.6427 230.5001,-141.6426"/>
</g>
<!-- Node15 -->
<g id="node16" class="node">
<title>Node15</title>
<g id="a_node16"><a xlink:href="osapi_8h.html" target="_top" xlink:title="osapi.h">
<polygon fill="#ffffff" stroke="#000000" points="280.5,-112.5 280.5,-131.5 329.5,-131.5 329.5,-112.5 280.5,-112.5"/>
<text text-anchor="middle" x="305" y="-119.5" font-family="Helvetica,sans-Serif" font-size="10.00" fill="#000000">osapi.h</text>
</a>
</g>
</g>
<!-- Node14&#45;&gt;Node15 -->
<g id="edge18" class="edge">
<title>Node14&#45;&gt;Node15</title>
<path fill="none" stroke="#191970" d="M240.5866,-168.2455C252.3305,-159.814 269.5199,-147.4729 283.1882,-137.6598"/>
<polygon fill="#191970" stroke="#191970" points="285.4871,-140.3179 291.5691,-131.6427 281.4046,-134.6316 285.4871,-140.3179"/>
</g>
<!-- Node16 -->
<g id="node17" class="node">
<title>Node16</title>
<polygon fill="#ffffff" stroke="#bfbfbf" points="280.5,-56.5 280.5,-75.5 329.5,-75.5 329.5,-56.5 280.5,-56.5"/>
<text text-anchor="middle" x="305" y="-63.5" font-family="Helvetica,sans-Serif" font-size="10.00" fill="#000000">string.h</text>
</g>
<!-- Node15&#45;&gt;Node16 -->
<g id="edge19" class="edge">
<title>Node15&#45;&gt;Node16</title>
<path fill="none" stroke="#191970" d="M305,-112.2455C305,-104.9382 305,-94.6944 305,-85.7046"/>
<polygon fill="#191970" stroke="#191970" points="308.5001,-85.6426 305,-75.6427 301.5001,-85.6427 308.5001,-85.6426"/>
</g>
<!-- Node15&#45;&gt;Node17 -->
<g id="edge20" class="edge">
<title>Node15&#45;&gt;Node17</title>
<path fill="none" stroke="#191970" d="M319.1091,-112.2455C331.4209,-103.7337 349.4958,-91.2375 363.7538,-81.3801"/>
<polygon fill="#191970" stroke="#191970" points="365.8174,-84.2085 372.0526,-75.6427 361.8366,-78.4506 365.8174,-84.2085"/>
</g>
<!-- Node18&#45;&gt;Node10 -->
<g id="edge23" class="edge">
<title>Node18&#45;&gt;Node10</title>
<path fill="none" stroke="#191970" d="M216.3095,-392.2455C218.8433,-384.7776 222.4177,-374.2427 225.515,-365.1137"/>
<polygon fill="#191970" stroke="#191970" points="228.8298,-366.237 228.7284,-355.6427 222.2009,-363.9879 228.8298,-366.237"/>
</g>
<!-- Node18&#45;&gt;Node13 -->
<g id="edge22" class="edge">
<title>Node18&#45;&gt;Node13</title>
<path fill="none" stroke="#191970" d="M198.8265,-392.213C170.673,-371.5296 112.5294,-321.8361 138,-280 148.379,-262.9522 167.3354,-251.9452 185.0942,-244.9886"/>
<polygon fill="#191970" stroke="#191970" points="186.5368,-248.19 194.775,-241.528 184.1804,-241.5985 186.5368,-248.19"/>
</g>
</g>
</svg>
