<?xml version="1.0" encoding="UTF-8" standalone="no"?>
<!DOCTYPE svg PUBLIC "-//W3C//DTD SVG 1.1//EN"
 "http://www.w3.org/Graphics/SVG/1.1/DTD/svg11.dtd">
<!-- Generated by graphviz version 2.39.20160927.1334 (20160927.1334)
 -->
<!-- Title: mqtt_dns_found Pages: 1 -->
<svg width="843pt" height="66pt"
 viewBox="0.00 0.00 843.00 66.00" xmlns="http://www.w3.org/2000/svg" xmlns:xlink="http://www.w3.org/1999/xlink">
<g id="graph0" class="graph" transform="scale(1 1) rotate(0) translate(4 62)">
<title>mqtt_dns_found</title>
<polygon fill="#ffffff" stroke="transparent" points="-4,4 -4,-62 839,-62 839,4 -4,4"/>
<!-- Node1 -->
<g id="node1" class="node">
<title>Node1</title>
<polygon fill="#bfbfbf" stroke="#000000" points="0,-19.5 0,-38.5 88,-38.5 88,-19.5 0,-19.5"/>
<text text-anchor="middle" x="44" y="-26.5" font-family="Helvetica,sans-Serif" font-size="10.00" fill="#000000">mqtt_dns_found</text>
</g>
<!-- Node2 -->
<g id="node2" class="node">
<title>Node2</title>
<g id="a_node2"><a xlink:href="mqtt_8c.html#ad34b681cb2f7473d8fc786c7ed468db5" target="_top" xlink:title="Begin connect to MQTT broker. ">
<polygon fill="#ffffff" stroke="#000000" points="124,-19.5 124,-38.5 212,-38.5 212,-19.5 124,-19.5"/>
<text text-anchor="middle" x="168" y="-26.5" font-family="Helvetica,sans-Serif" font-size="10.00" fill="#000000">MQTT_Connect</text>
</a>
</g>
</g>
<!-- Node1&#45;&gt;Node2 -->
<g id="edge1" class="edge">
<title>Node1&#45;&gt;Node2</title>
<path fill="none" stroke="#191970" d="M98.2721,-29C106.754,-29 115.432,-29 123.657,-29"/>
<polygon fill="#191970" stroke="#191970" points="98.0669,-25.5001 88.0669,-29 98.0669,-32.5001 98.0669,-25.5001"/>
</g>
<!-- Node3 -->
<g id="node3" class="node">
<title>Node3</title>
<g id="a_node3"><a xlink:href="mqtt_8c.html#a9d88fa6efb9163d4dbf9dc750a8d4ed0" target="_top" xlink:title="MQTT_Task">
<polygon fill="#ffffff" stroke="#000000" points="248,-38.5 248,-57.5 320,-57.5 320,-38.5 248,-38.5"/>
<text text-anchor="middle" x="284" y="-45.5" font-family="Helvetica,sans-Serif" font-size="10.00" fill="#000000">MQTT_Task</text>
</a>
</g>
</g>
<!-- Node2&#45;&gt;Node3 -->
<g id="edge2" class="edge">
<title>Node2&#45;&gt;Node3</title>
<path fill="none" stroke="#191970" d="M222.27,-37.8891C230.945,-39.3099 239.731,-40.749 247.848,-42.0786"/>
<polygon fill="#191970" stroke="#191970" points="222.62,-34.3998 212.186,-36.2373 221.488,-41.3077 222.62,-34.3998"/>
</g>
<!-- Node8 -->
<g id="node8" class="node">
<title>Node8</title>
<g id="a_node8"><a xlink:href="user__main_8h.html#a7a3bf0cc09d98adc72f4e34d26ce3fa1" target="_top" xlink:title="wifi_changed_cb">
<polygon fill="#ffffff" stroke="#000000" points="356,-0.5 356,-19.5 447,-19.5 447,-0.5 356,-0.5"/>
<text text-anchor="middle" x="401.5" y="-7.5" font-family="Helvetica,sans-Serif" font-size="10.00" fill="#000000">wifi_changed_cb</text>
</a>
</g>
</g>
<!-- Node2&#45;&gt;Node8 -->
<g id="edge7" class="edge">
<title>Node2&#45;&gt;Node8</title>
<path fill="none" stroke="#191970" d="M222.177,-24.5916C262.727,-21.292 317.573,-16.8292 355.893,-13.7111"/>
<polygon fill="#191970" stroke="#191970" points="221.877,-21.1043 212.194,-25.4039 222.445,-28.0813 221.877,-21.1043"/>
</g>
<!-- Node4 -->
<g id="node4" class="node">
<title>Node4</title>
<g id="a_node4"><a xlink:href="mqtt_8c.html#a82303094af675136988bb2be5e92fc5b" target="_top" xlink:title="MQTT initialization mqtt client function. ">
<polygon fill="#ffffff" stroke="#000000" points="357,-38.5 357,-57.5 446,-57.5 446,-38.5 357,-38.5"/>
<text text-anchor="middle" x="401.5" y="-45.5" font-family="Helvetica,sans-Serif" font-size="10.00" fill="#000000">MQTT_InitClient</text>
</a>
</g>
</g>
<!-- Node3&#45;&gt;Node4 -->
<g id="edge3" class="edge">
<title>Node3&#45;&gt;Node4</title>
<path fill="none" stroke="#191970" d="M330.276,-48C339.044,-48 348.2,-48 356.913,-48"/>
<polygon fill="#191970" stroke="#191970" points="330.213,-44.5001 320.213,-48 330.213,-51.5001 330.213,-44.5001"/>
</g>
<!-- Node5 -->
<g id="node5" class="node">
<title>Node5</title>
<g id="a_node5"><a xlink:href="user__main_8c.html#a245ec00253f410a8804988bf40e1037e" target="_top" xlink:title="sample_mode_timer_func">
<polygon fill="#ffffff" stroke="#000000" points="483,-19.5 483,-38.5 615,-38.5 615,-19.5 483,-19.5"/>
<text text-anchor="middle" x="549" y="-26.5" font-family="Helvetica,sans-Serif" font-size="10.00" fill="#000000">sample_mode_timer_func</text>
</a>
</g>
</g>
<!-- Node4&#45;&gt;Node5 -->
<g id="edge4" class="edge">
<title>Node4&#45;&gt;Node5</title>
<path fill="none" stroke="#191970" d="M456.196,-40.9544C464.927,-39.8297 474.041,-38.6558 483,-37.5018"/>
<polygon fill="#191970" stroke="#191970" points="455.626,-37.4988 446.155,-42.2478 456.52,-44.4415 455.626,-37.4988"/>
</g>
<!-- Node6 -->
<g id="node6" class="node">
<title>Node6</title>
<g id="a_node6"><a xlink:href="user__main_8h.html#a3671381db669a16e8f6a4bf3dfb9a441" target="_top" xlink:title="system_init_done">
<polygon fill="#ffffff" stroke="#000000" points="651,-19.5 651,-38.5 745,-38.5 745,-19.5 651,-19.5"/>
<text text-anchor="middle" x="698" y="-26.5" font-family="Helvetica,sans-Serif" font-size="10.00" fill="#000000">system_init_done</text>
</a>
</g>
</g>
<!-- Node5&#45;&gt;Node6 -->
<g id="edge5" class="edge">
<title>Node5&#45;&gt;Node6</title>
<path fill="none" stroke="#191970" d="M625.361,-29C634.009,-29 642.624,-29 650.739,-29"/>
<polygon fill="#191970" stroke="#191970" points="625.221,-25.5001 615.221,-29 625.221,-32.5001 625.221,-25.5001"/>
</g>
<!-- Node7 -->
<g id="node7" class="node">
<title>Node7</title>
<g id="a_node7"><a xlink:href="user__main_8h.html#a33113d6dedb440bd7dfa5576e325140c" target="_top" xlink:title="user_init">
<polygon fill="#ffffff" stroke="#000000" points="781,-19.5 781,-38.5 835,-38.5 835,-19.5 781,-19.5"/>
<text text-anchor="middle" x="808" y="-26.5" font-family="Helvetica,sans-Serif" font-size="10.00" fill="#000000">user_init</text>
</a>
</g>
</g>
<!-- Node6&#45;&gt;Node7 -->
<g id="edge6" class="edge">
<title>Node6&#45;&gt;Node7</title>
<path fill="none" stroke="#191970" d="M755.289,-29C764.16,-29 772.952,-29 780.738,-29"/>
<polygon fill="#191970" stroke="#191970" points="755.288,-25.5001 745.288,-29 755.288,-32.5001 755.288,-25.5001"/>
</g>
<!-- Node8&#45;&gt;Node5 -->
<g id="edge8" class="edge">
<title>Node8&#45;&gt;Node5</title>
<path fill="none" stroke="#191970" d="M457.338,-17.1928C465.676,-18.2667 474.338,-19.3825 482.863,-20.4806"/>
<polygon fill="#191970" stroke="#191970" points="457.727,-13.7139 447.361,-15.9076 456.832,-20.6566 457.727,-13.7139"/>
</g>
</g>
</svg>
