<?xml version="1.0" encoding="UTF-8" standalone="no"?>
<!DOCTYPE svg PUBLIC "-//W3C//DTD SVG 1.1//EN"
 "http://www.w3.org/Graphics/SVG/1.1/DTD/svg11.dtd">
<!-- Generated by graphviz version 2.39.20160927.1334 (20160927.1334)
 -->
<!-- Title: append_string Pages: 1 -->
<svg width="1310pt" height="432pt"
 viewBox="0.00 0.00 1310.00 432.00" xmlns="http://www.w3.org/2000/svg" xmlns:xlink="http://www.w3.org/1999/xlink">
<g id="graph0" class="graph" transform="scale(1 1) rotate(0) translate(4 428)">
<title>append_string</title>
<polygon fill="#ffffff" stroke="transparent" points="-4,4 -4,-428 1306,-428 1306,4 -4,4"/>
<!-- Node1 -->
<g id="node1" class="node">
<title>Node1</title>
<polygon fill="#bfbfbf" stroke="#000000" points="0,-291.5 0,-310.5 80,-310.5 80,-291.5 0,-291.5"/>
<text text-anchor="middle" x="40" y="-298.5" font-family="Helvetica,sans-Serif" font-size="10.00" fill="#000000">append_string</text>
</g>
<!-- Node2 -->
<g id="node2" class="node">
<title>Node2</title>
<g id="a_node2"><a xlink:href="mqtt__msg_8c.html#a5e7a532d6f04c0d443701ba44fdf2e2d" target="_top" xlink:title="mqtt_msg_connect">
<polygon fill="#ffffff" stroke="#000000" points="125.5,-365.5 125.5,-384.5 226.5,-384.5 226.5,-365.5 125.5,-365.5"/>
<text text-anchor="middle" x="176" y="-372.5" font-family="Helvetica,sans-Serif" font-size="10.00" fill="#000000">mqtt_msg_connect</text>
</a>
</g>
</g>
<!-- Node1&#45;&gt;Node2 -->
<g id="edge1" class="edge">
<title>Node1&#45;&gt;Node2</title>
<path fill="none" stroke="#191970" d="M63.4109,-316.067C78.2477,-325.39 97.9734,-337.374 116,-347 128.371,-353.606 142.577,-360.274 154.061,-365.446"/>
<polygon fill="#191970" stroke="#191970" points="65.1839,-313.047 54.8635,-310.651 61.4372,-318.96 65.1839,-313.047"/>
</g>
<!-- Node11 -->
<g id="node11" class="node">
<title>Node11</title>
<g id="a_node11"><a xlink:href="mqtt__msg_8c.html#af16842423fc1d5d802a7f329fc3a9ef9" target="_top" xlink:title="mqtt_msg_publish">
<polygon fill="#ffffff" stroke="#000000" points="127,-264.5 127,-283.5 225,-283.5 225,-264.5 127,-264.5"/>
<text text-anchor="middle" x="176" y="-271.5" font-family="Helvetica,sans-Serif" font-size="10.00" fill="#000000">mqtt_msg_publish</text>
</a>
</g>
</g>
<!-- Node1&#45;&gt;Node11 -->
<g id="edge11" class="edge">
<title>Node1&#45;&gt;Node11</title>
<path fill="none" stroke="#191970" d="M90.2188,-291.03C102.585,-288.575 115.796,-285.952 128.051,-283.519"/>
<polygon fill="#191970" stroke="#191970" points="89.1959,-287.665 80.0689,-293.045 90.5591,-294.531 89.1959,-287.665"/>
</g>
<!-- Node25 -->
<g id="node25" class="node">
<title>Node25</title>
<g id="a_node25"><a xlink:href="mqtt__msg_8c.html#adff62ede8c5069101032913d4434baad" target="_top" xlink:title="mqtt_msg_subscribe">
<polygon fill="#ffffff" stroke="#000000" points="121.5,-318.5 121.5,-337.5 230.5,-337.5 230.5,-318.5 121.5,-318.5"/>
<text text-anchor="middle" x="176" y="-325.5" font-family="Helvetica,sans-Serif" font-size="10.00" fill="#000000">mqtt_msg_subscribe</text>
</a>
</g>
</g>
<!-- Node1&#45;&gt;Node25 -->
<g id="edge35" class="edge">
<title>Node1&#45;&gt;Node25</title>
<path fill="none" stroke="#191970" d="M90.2188,-310.97C102.585,-313.425 115.796,-316.048 128.051,-318.481"/>
<polygon fill="#191970" stroke="#191970" points="90.5591,-307.469 80.0689,-308.955 89.1959,-314.335 90.5591,-307.469"/>
</g>
<!-- Node27 -->
<g id="node27" class="node">
<title>Node27</title>
<g id="a_node27"><a xlink:href="mqtt__msg_8c.html#a5b329f56f9757307102a494232b2cf92" target="_top" xlink:title="mqtt_msg_unsubscribe">
<polygon fill="#ffffff" stroke="#000000" points="116,-195.5 116,-214.5 236,-214.5 236,-195.5 116,-195.5"/>
<text text-anchor="middle" x="176" y="-202.5" font-family="Helvetica,sans-Serif" font-size="10.00" fill="#000000">mqtt_msg_unsubscribe</text>
</a>
</g>
</g>
<!-- Node1&#45;&gt;Node27 -->
<g id="edge38" class="edge">
<title>Node1&#45;&gt;Node27</title>
<path fill="none" stroke="#191970" d="M61.9989,-285.471C90.4221,-265.408 139.034,-231.094 162.517,-214.517"/>
<polygon fill="#191970" stroke="#191970" points="59.6887,-282.818 53.5374,-291.444 63.7255,-288.537 59.6887,-282.818"/>
</g>
<!-- Node3 -->
<g id="node3" class="node">
<title>Node3</title>
<g id="a_node3"><a xlink:href="mqtt_8c.html#a36ecd969af1b9c87856f01be064a98cc" target="_top" xlink:title="Tcp client connect success callback function. ">
<polygon fill="#ffffff" stroke="#000000" points="272,-365.5 272,-384.5 407,-384.5 407,-365.5 272,-365.5"/>
<text text-anchor="middle" x="339.5" y="-372.5" font-family="Helvetica,sans-Serif" font-size="10.00" fill="#000000">mqtt_tcpclient_connect_cb</text>
</a>
</g>
</g>
<!-- Node2&#45;&gt;Node3 -->
<g id="edge2" class="edge">
<title>Node2&#45;&gt;Node3</title>
<path fill="none" stroke="#191970" d="M237.07,-375C248.417,-375 260.333,-375 271.862,-375"/>
<polygon fill="#191970" stroke="#191970" points="236.836,-371.5 226.836,-375 236.836,-378.5 236.836,-371.5"/>
</g>
<!-- Node4 -->
<g id="node4" class="node">
<title>Node4</title>
<g id="a_node4"><a xlink:href="mqtt_8c.html#ad34b681cb2f7473d8fc786c7ed468db5" target="_top" xlink:title="Begin connect to MQTT broker. ">
<polygon fill="#ffffff" stroke="#000000" points="460,-366.5 460,-385.5 548,-385.5 548,-366.5 460,-366.5"/>
<text text-anchor="middle" x="504" y="-373.5" font-family="Helvetica,sans-Serif" font-size="10.00" fill="#000000">MQTT_Connect</text>
</a>
</g>
</g>
<!-- Node3&#45;&gt;Node4 -->
<g id="edge3" class="edge">
<title>Node3&#45;&gt;Node4</title>
<path fill="none" stroke="#191970" d="M417.389,-375.473C431.953,-375.562 446.699,-375.652 459.795,-375.731"/>
<polygon fill="#191970" stroke="#191970" points="417.379,-371.973 407.358,-375.413 417.337,-378.973 417.379,-371.973"/>
</g>
<!-- Node5 -->
<g id="node5" class="node">
<title>Node5</title>
<g id="a_node5"><a xlink:href="mqtt_8c.html#a9d88fa6efb9163d4dbf9dc750a8d4ed0" target="_top" xlink:title="MQTT_Task">
<polygon fill="#ffffff" stroke="#000000" points="631,-404.5 631,-423.5 703,-423.5 703,-404.5 631,-404.5"/>
<text text-anchor="middle" x="667" y="-411.5" font-family="Helvetica,sans-Serif" font-size="10.00" fill="#000000">MQTT_Task</text>
</a>
</g>
</g>
<!-- Node4&#45;&gt;Node5 -->
<g id="edge4" class="edge">
<title>Node4&#45;&gt;Node5</title>
<path fill="none" stroke="#191970" d="M555.029,-387.896C579.64,-393.634 608.582,-400.381 630.876,-405.578"/>
<polygon fill="#191970" stroke="#191970" points="555.665,-384.451 545.132,-385.589 554.076,-391.268 555.665,-384.451"/>
</g>
<!-- Node10 -->
<g id="node10" class="node">
<title>Node10</title>
<g id="a_node10"><a xlink:href="user__main_8h.html#a7a3bf0cc09d98adc72f4e34d26ce3fa1" target="_top" xlink:title="wifi_changed_cb">
<polygon fill="#ffffff" stroke="#000000" points="785,-366.5 785,-385.5 876,-385.5 876,-366.5 785,-366.5"/>
<text text-anchor="middle" x="830.5" y="-373.5" font-family="Helvetica,sans-Serif" font-size="10.00" fill="#000000">wifi_changed_cb</text>
</a>
</g>
</g>
<!-- Node4&#45;&gt;Node10 -->
<g id="edge9" class="edge">
<title>Node4&#45;&gt;Node10</title>
<path fill="none" stroke="#191970" d="M558.227,-376C621.601,-376 725.35,-376 784.805,-376"/>
<polygon fill="#191970" stroke="#191970" points="558.033,-372.5 548.033,-376 558.033,-379.5 558.033,-372.5"/>
</g>
<!-- Node6 -->
<g id="node6" class="node">
<title>Node6</title>
<g id="a_node6"><a xlink:href="mqtt_8c.html#a82303094af675136988bb2be5e92fc5b" target="_top" xlink:title="MQTT initialization mqtt client function. ">
<polygon fill="#ffffff" stroke="#000000" points="786,-404.5 786,-423.5 875,-423.5 875,-404.5 786,-404.5"/>
<text text-anchor="middle" x="830.5" y="-411.5" font-family="Helvetica,sans-Serif" font-size="10.00" fill="#000000">MQTT_InitClient</text>
</a>
</g>
</g>
<!-- Node5&#45;&gt;Node6 -->
<g id="edge5" class="edge">
<title>Node5&#45;&gt;Node6</title>
<path fill="none" stroke="#191970" d="M713.379,-414C736.112,-414 763.365,-414 785.86,-414"/>
<polygon fill="#191970" stroke="#191970" points="713.286,-410.5 703.286,-414 713.286,-417.5 713.286,-410.5"/>
</g>
<!-- Node7 -->
<g id="node7" class="node">
<title>Node7</title>
<g id="a_node7"><a xlink:href="user__main_8c.html#a245ec00253f410a8804988bf40e1037e" target="_top" xlink:title="sample_mode_timer_func">
<polygon fill="#ffffff" stroke="#000000" points="939,-328.5 939,-347.5 1071,-347.5 1071,-328.5 939,-328.5"/>
<text text-anchor="middle" x="1005" y="-335.5" font-family="Helvetica,sans-Serif" font-size="10.00" fill="#000000">sample_mode_timer_func</text>
</a>
</g>
</g>
<!-- Node6&#45;&gt;Node7 -->
<g id="edge6" class="edge">
<title>Node6&#45;&gt;Node7</title>
<path fill="none" stroke="#191970" d="M874.765,-401.305C880.615,-399.342 886.489,-397.223 892,-395 927.253,-380.78 966.464,-359.748 988.184,-347.606"/>
<polygon fill="#191970" stroke="#191970" points="873.456,-398.049 865.013,-404.45 875.605,-404.711 873.456,-398.049"/>
</g>
<!-- Node8 -->
<g id="node8" class="node">
<title>Node8</title>
<g id="a_node8"><a xlink:href="user__main_8h.html#a3671381db669a16e8f6a4bf3dfb9a441" target="_top" xlink:title="system_init_done">
<polygon fill="#ffffff" stroke="#000000" points="1118,-164.5 1118,-183.5 1212,-183.5 1212,-164.5 1118,-164.5"/>
<text text-anchor="middle" x="1165" y="-171.5" font-family="Helvetica,sans-Serif" font-size="10.00" fill="#000000">system_init_done</text>
</a>
</g>
</g>
<!-- Node7&#45;&gt;Node8 -->
<g id="edge7" class="edge">
<title>Node7&#45;&gt;Node8</title>
<path fill="none" stroke="#191970" d="M1021.76,-320.822C1055.28,-286.46 1129.62,-210.266 1155.72,-183.511"/>
<polygon fill="#191970" stroke="#191970" points="1019.01,-318.63 1014.53,-328.232 1024.02,-323.518 1019.01,-318.63"/>
</g>
<!-- Node9 -->
<g id="node9" class="node">
<title>Node9</title>
<g id="a_node9"><a xlink:href="user__main_8h.html#a33113d6dedb440bd7dfa5576e325140c" target="_top" xlink:title="user_init">
<polygon fill="#ffffff" stroke="#000000" points="1248,-38.5 1248,-57.5 1302,-57.5 1302,-38.5 1248,-38.5"/>
<text text-anchor="middle" x="1275" y="-45.5" font-family="Helvetica,sans-Serif" font-size="10.00" fill="#000000">user_init</text>
</a>
</g>
</g>
<!-- Node8&#45;&gt;Node9 -->
<g id="edge8" class="edge">
<title>Node8&#45;&gt;Node9</title>
<path fill="none" stroke="#191970" d="M1180.49,-156.259C1203.99,-129.335 1247.89,-79.0528 1266.41,-57.8411"/>
<polygon fill="#191970" stroke="#191970" points="1177.57,-154.278 1173.63,-164.113 1182.84,-158.882 1177.57,-154.278"/>
</g>
<!-- Node10&#45;&gt;Node7 -->
<g id="edge10" class="edge">
<title>Node10&#45;&gt;Node7</title>
<path fill="none" stroke="#191970" d="M884.469,-364.247C909.143,-358.874 937.995,-352.591 961.283,-347.52"/>
<polygon fill="#191970" stroke="#191970" points="883.56,-360.863 874.534,-366.411 885.049,-367.703 883.56,-360.863"/>
</g>
<!-- Node12 -->
<g id="node12" class="node">
<title>Node12</title>
<g id="a_node12"><a xlink:href="mqtt_8c.html#a848a6701c4c7ec3432e38ea57c003aad" target="_top" xlink:title="MQTT publish function. ">
<polygon fill="#ffffff" stroke="#000000" points="298,-170.5 298,-189.5 381,-189.5 381,-170.5 298,-170.5"/>
<text text-anchor="middle" x="339.5" y="-177.5" font-family="Helvetica,sans-Serif" font-size="10.00" fill="#000000">MQTT_Publish</text>
</a>
</g>
</g>
<!-- Node11&#45;&gt;Node12 -->
<g id="edge12" class="edge">
<title>Node11&#45;&gt;Node12</title>
<path fill="none" stroke="#191970" d="M201.413,-259.389C235.264,-239.927 294.204,-206.042 322.879,-189.556"/>
<polygon fill="#191970" stroke="#191970" points="199.502,-256.451 192.577,-264.469 202.991,-262.519 199.502,-256.451"/>
</g>
<!-- Node13 -->
<g id="node13" class="node">
<title>Node13</title>
<g id="a_node13"><a xlink:href="en61107__request_8c.html#aa3b162cf5364986ea19e831ac2b18f76" target="_top" xlink:title="en61107_received_task">
<polygon fill="#ffffff" stroke="#000000" points="769,-38.5 769,-57.5 892,-57.5 892,-38.5 769,-38.5"/>
<text text-anchor="middle" x="830.5" y="-45.5" font-family="Helvetica,sans-Serif" font-size="10.00" fill="#000000">en61107_received_task</text>
</a>
</g>
</g>
<!-- Node12&#45;&gt;Node13 -->
<g id="edge13" class="edge">
<title>Node12&#45;&gt;Node13</title>
<path fill="none" stroke="#191970" d="M390.764,-170.964C396.664,-168.418 402.256,-165.162 407,-161 437.533,-134.213 409.949,-100.61 443,-77 493.709,-40.7755 673.045,-41.7321 768.943,-45.0707"/>
<polygon fill="#191970" stroke="#191970" points="389.512,-167.695 381.315,-174.408 391.909,-174.272 389.512,-167.695"/>
</g>
<!-- Node15 -->
<g id="node15" class="node">
<title>Node15</title>
<g id="a_node15"><a xlink:href="en61107__request_8h.html#a7384d014eb9e833f64ecf4a9f86f87be" target="_top" xlink:title="en61107_request_send">
<polygon fill="#ffffff" stroke="#000000" points="443,-86.5 443,-105.5 565,-105.5 565,-86.5 443,-86.5"/>
<text text-anchor="middle" x="504" y="-93.5" font-family="Helvetica,sans-Serif" font-size="10.00" fill="#000000">en61107_request_send</text>
</a>
</g>
</g>
<!-- Node12&#45;&gt;Node15 -->
<g id="edge16" class="edge">
<title>Node12&#45;&gt;Node15</title>
<path fill="none" stroke="#191970" d="M390.809,-168.677C396.456,-166.528 401.973,-163.991 407,-161 426.717,-149.268 424.256,-137.232 443,-124 453.567,-116.54 466.438,-110.286 477.629,-105.593"/>
<polygon fill="#191970" stroke="#191970" points="389.581,-165.398 381.246,-171.939 391.841,-172.023 389.581,-165.398"/>
</g>
<!-- Node17 -->
<g id="node17" class="node">
<title>Node17</title>
<g id="a_node17"><a xlink:href="user__main_8c.html#af2c051d5ceacd30f90c08d6f584deff2" target="_top" xlink:title="sample_timer_func">
<polygon fill="#ffffff" stroke="#000000" points="616.5,-126.5 616.5,-145.5 717.5,-145.5 717.5,-126.5 616.5,-126.5"/>
<text text-anchor="middle" x="667" y="-133.5" font-family="Helvetica,sans-Serif" font-size="10.00" fill="#000000">sample_timer_func</text>
</a>
</g>
</g>
<!-- Node12&#45;&gt;Node17 -->
<g id="edge34" class="edge">
<title>Node12&#45;&gt;Node17</title>
<path fill="none" stroke="#191970" d="M391.197,-169.771C407.709,-166.702 426.087,-163.493 443,-161 502.229,-152.269 570.672,-145.045 616.16,-140.644"/>
<polygon fill="#191970" stroke="#191970" points="390.367,-166.366 381.187,-171.656 391.662,-173.245 390.367,-166.366"/>
</g>
<!-- Node18 -->
<g id="node18" class="node">
<title>Node18</title>
<g id="a_node18"><a xlink:href="user__main_8h.html#a06f2b383d99fcad9d0f37d1ca2224898" target="_top" xlink:title="mqttConnectedCb">
<polygon fill="#ffffff" stroke="#000000" points="782,-271.5 782,-290.5 879,-290.5 879,-271.5 782,-271.5"/>
<text text-anchor="middle" x="830.5" y="-278.5" font-family="Helvetica,sans-Serif" font-size="10.00" fill="#000000">mqttConnectedCb</text>
</a>
</g>
</g>
<!-- Node12&#45;&gt;Node18 -->
<g id="edge31" class="edge">
<title>Node12&#45;&gt;Node18</title>
<path fill="none" stroke="#191970" d="M386.538,-192.119C438.733,-205.34 525.558,-226.663 601,-242 663.18,-254.641 735.41,-266.445 781.977,-273.685"/>
<polygon fill="#191970" stroke="#191970" points="387.129,-188.658 376.575,-189.587 385.405,-195.442 387.129,-188.658"/>
</g>
<!-- Node19 -->
<g id="node19" class="node">
<title>Node19</title>
<g id="a_node19"><a xlink:href="kmp__request_8c.html#a3f6b790a06b933b78f40ade5e9a16131" target="_top" xlink:title="kmp_received_task">
<polygon fill="#ffffff" stroke="#000000" points="452.5,-0.5 452.5,-19.5 555.5,-19.5 555.5,-0.5 452.5,-0.5"/>
<text text-anchor="middle" x="504" y="-7.5" font-family="Helvetica,sans-Serif" font-size="10.00" fill="#000000">kmp_received_task</text>
</a>
</g>
</g>
<!-- Node12&#45;&gt;Node19 -->
<g id="edge22" class="edge">
<title>Node12&#45;&gt;Node19</title>
<path fill="none" stroke="#191970" d="M390.851,-171.728C396.832,-169.064 402.42,-165.572 407,-161 448.523,-119.553 403.61,-77.4792 443,-34 448.731,-27.6744 456.339,-22.9953 464.233,-19.5409"/>
<polygon fill="#191970" stroke="#191970" points="389.398,-168.533 381.219,-175.269 391.813,-175.104 389.398,-168.533"/>
</g>
<!-- Node21 -->
<g id="node21" class="node">
<title>Node21</title>
<g id="a_node21"><a xlink:href="kmp__request_8h.html#a3b022dcdc832786eb06126b5e6879604" target="_top" xlink:title="kmp_request_send">
<polygon fill="#ffffff" stroke="#000000" points="453,-170.5 453,-189.5 555,-189.5 555,-170.5 453,-170.5"/>
<text text-anchor="middle" x="504" y="-177.5" font-family="Helvetica,sans-Serif" font-size="10.00" fill="#000000">kmp_request_send</text>
</a>
</g>
</g>
<!-- Node12&#45;&gt;Node21 -->
<g id="edge25" class="edge">
<title>Node12&#45;&gt;Node21</title>
<path fill="none" stroke="#191970" d="M391.025,-180C410.709,-180 433.135,-180 452.79,-180"/>
<polygon fill="#191970" stroke="#191970" points="391.01,-176.5 381.01,-180 391.01,-183.5 391.01,-176.5"/>
</g>
<!-- Node24 -->
<g id="node24" class="node">
<title>Node24</title>
<g id="a_node24"><a xlink:href="user__main_8h.html#a53fca5688835df983e3ff1a91d387618" target="_top" xlink:title="mqttDataCb">
<polygon fill="#ffffff" stroke="#000000" points="795.5,-328.5 795.5,-347.5 865.5,-347.5 865.5,-328.5 795.5,-328.5"/>
<text text-anchor="middle" x="830.5" y="-335.5" font-family="Helvetica,sans-Serif" font-size="10.00" fill="#000000">mqttDataCb</text>
</a>
</g>
</g>
<!-- Node12&#45;&gt;Node24 -->
<g id="edge32" class="edge">
<title>Node12&#45;&gt;Node24</title>
<path fill="none" stroke="#191970" d="M363.817,-194.632C384.353,-206.507 414.833,-223.025 443,-234 568.91,-283.06 726.521,-317.489 795.479,-331.287"/>
<polygon fill="#191970" stroke="#191970" points="365.523,-191.575 355.126,-189.539 361.984,-197.614 365.523,-191.575"/>
</g>
<!-- Node14 -->
<g id="node14" class="node">
<title>Node14</title>
<g id="a_node14"><a xlink:href="en61107__request_8h.html#acd43242675a3f25e7c3b530eac9d8b3a" target="_top" xlink:title="en61107_request_init">
<polygon fill="#ffffff" stroke="#000000" points="948.5,-38.5 948.5,-57.5 1061.5,-57.5 1061.5,-38.5 948.5,-38.5"/>
<text text-anchor="middle" x="1005" y="-45.5" font-family="Helvetica,sans-Serif" font-size="10.00" fill="#000000">en61107_request_init</text>
</a>
</g>
</g>
<!-- Node13&#45;&gt;Node14 -->
<g id="edge14" class="edge">
<title>Node13&#45;&gt;Node14</title>
<path fill="none" stroke="#191970" d="M902.054,-48C917.5,-48 933.626,-48 948.406,-48"/>
<polygon fill="#191970" stroke="#191970" points="902.022,-44.5001 892.022,-48 902.022,-51.5001 902.022,-44.5001"/>
</g>
<!-- Node14&#45;&gt;Node9 -->
<g id="edge15" class="edge">
<title>Node14&#45;&gt;Node9</title>
<path fill="none" stroke="#191970" d="M1071.91,-48C1128.55,-48 1206.86,-48 1247.71,-48"/>
<polygon fill="#191970" stroke="#191970" points="1071.6,-44.5001 1061.6,-48 1071.6,-51.5001 1071.6,-44.5001"/>
</g>
<!-- Node16 -->
<g id="node16" class="node">
<title>Node16</title>
<g id="a_node16"><a xlink:href="en61107__request_8h.html#a6379eaf88ea35baaf2a3ab8a0ae66fdb" target="_top" xlink:title="en61107_receive_timeout\l_timer_func">
<polygon fill="#ffffff" stroke="#000000" points="601,-77 601,-107 733,-107 733,-77 601,-77"/>
<text text-anchor="start" x="609" y="-95" font-family="Helvetica,sans-Serif" font-size="10.00" fill="#000000">en61107_receive_timeout</text>
<text text-anchor="middle" x="667" y="-84" font-family="Helvetica,sans-Serif" font-size="10.00" fill="#000000">_timer_func</text>
</a>
</g>
</g>
<!-- Node15&#45;&gt;Node16 -->
<g id="edge17" class="edge">
<title>Node15&#45;&gt;Node16</title>
<path fill="none" stroke="#191970" d="M575.388,-87.5445C583.855,-87.2587 592.469,-87.0677 600.859,-86.9808"/>
<polygon fill="#191970" stroke="#191970" points="575.016,-84.0562 565.159,-87.9396 575.287,-91.051 575.016,-84.0562"/>
</g>
<!-- Node15&#45;&gt;Node17 -->
<g id="edge19" class="edge">
<title>Node15&#45;&gt;Node17</title>
<path fill="none" stroke="#191970" d="M553.058,-108.039C577.146,-113.95 605.753,-120.97 628.276,-126.497"/>
<polygon fill="#191970" stroke="#191970" points="553.589,-104.565 543.043,-105.581 551.92,-111.363 553.589,-104.565"/>
</g>
<!-- Node16&#45;&gt;Node15 -->
<g id="edge18" class="edge">
<title>Node16&#45;&gt;Node15</title>
<path fill="none" stroke="#191970" d="M590.819,-100.607C582.217,-100.859 573.535,-101.013 565.159,-101.059"/>
<polygon fill="#191970" stroke="#191970" points="590.983,-104.103 600.859,-100.265 590.745,-97.1073 590.983,-104.103"/>
</g>
<!-- Node17&#45;&gt;Node18 -->
<g id="edge20" class="edge">
<title>Node17&#45;&gt;Node18</title>
<path fill="none" stroke="#191970" d="M686.212,-152.399C699.431,-163.731 717.359,-179.19 733,-193 764.964,-221.222 802.255,-255.169 820.035,-271.418"/>
<polygon fill="#191970" stroke="#191970" points="688.149,-149.45 678.276,-145.608 683.598,-154.769 688.149,-149.45"/>
</g>
<!-- Node18&#45;&gt;Node7 -->
<g id="edge21" class="edge">
<title>Node18&#45;&gt;Node7</title>
<path fill="none" stroke="#191970" d="M869.244,-293.656C901.411,-304.163 946.471,-318.882 975.697,-328.428"/>
<polygon fill="#191970" stroke="#191970" points="870.3,-290.319 859.707,-290.541 868.126,-296.973 870.3,-290.319"/>
</g>
<!-- Node20 -->
<g id="node20" class="node">
<title>Node20</title>
<g id="a_node20"><a xlink:href="kmp__request_8h.html#a048753ff9d6b448e2dcd8c85db0d6873" target="_top" xlink:title="kmp_request_init">
<polygon fill="#ffffff" stroke="#000000" points="1118.5,-0.5 1118.5,-19.5 1211.5,-19.5 1211.5,-0.5 1118.5,-0.5"/>
<text text-anchor="middle" x="1165" y="-7.5" font-family="Helvetica,sans-Serif" font-size="10.00" fill="#000000">kmp_request_init</text>
</a>
</g>
</g>
<!-- Node19&#45;&gt;Node20 -->
<g id="edge23" class="edge">
<title>Node19&#45;&gt;Node20</title>
<path fill="none" stroke="#191970" d="M565.877,-10C697.238,-10 1001.49,-10 1118.23,-10"/>
<polygon fill="#191970" stroke="#191970" points="565.592,-6.5001 555.592,-10 565.592,-13.5001 565.592,-6.5001"/>
</g>
<!-- Node20&#45;&gt;Node9 -->
<g id="edge24" class="edge">
<title>Node20&#45;&gt;Node9</title>
<path fill="none" stroke="#191970" d="M1202.63,-22.9985C1217.4,-28.1021 1234.04,-33.8495 1247.63,-38.5457"/>
<polygon fill="#191970" stroke="#191970" points="1203.35,-19.5461 1192.76,-19.589 1201.07,-26.1624 1203.35,-19.5461"/>
</g>
<!-- Node21&#45;&gt;Node17 -->
<g id="edge28" class="edge">
<title>Node21&#45;&gt;Node17</title>
<path fill="none" stroke="#191970" d="M549.028,-167.845C575.111,-160.805 607.472,-152.069 631.7,-145.529"/>
<polygon fill="#191970" stroke="#191970" points="548.111,-164.467 539.369,-170.453 549.935,-171.226 548.111,-164.467"/>
</g>
<!-- Node22 -->
<g id="node22" class="node">
<title>Node22</title>
<g id="a_node22"><a xlink:href="kmp__request_8c.html#a0977a4640a97d389ac3b0fef0ba7a9b6" target="_top" xlink:title="kmp_receive_timeout\l_timer_func">
<polygon fill="#ffffff" stroke="#000000" points="611,-203 611,-233 723,-233 723,-203 611,-203"/>
<text text-anchor="start" x="619" y="-221" font-family="Helvetica,sans-Serif" font-size="10.00" fill="#000000">kmp_receive_timeout</text>
<text text-anchor="middle" x="667" y="-210" font-family="Helvetica,sans-Serif" font-size="10.00" fill="#000000">_timer_func</text>
</a>
</g>
</g>
<!-- Node21&#45;&gt;Node22 -->
<g id="edge26" class="edge">
<title>Node21&#45;&gt;Node22</title>
<path fill="none" stroke="#191970" d="M564.934,-187.65C585.935,-192.14 608.884,-197.719 627.694,-202.965"/>
<polygon fill="#191970" stroke="#191970" points="565.631,-184.22 555.127,-185.604 564.201,-191.073 565.631,-184.22"/>
</g>
<!-- Node23 -->
<g id="node23" class="node">
<title>Node23</title>
<g id="a_node23"><a xlink:href="user__main_8c.html#a3648c609e8dd286eb90285b08b150362" target="_top" xlink:title="kmp_request_send_timer_func">
<polygon fill="#ffffff" stroke="#000000" points="928,-164.5 928,-183.5 1082,-183.5 1082,-164.5 928,-164.5"/>
<text text-anchor="middle" x="1005" y="-171.5" font-family="Helvetica,sans-Serif" font-size="10.00" fill="#000000">kmp_request_send_timer_func</text>
</a>
</g>
</g>
<!-- Node21&#45;&gt;Node23 -->
<g id="edge29" class="edge">
<title>Node21&#45;&gt;Node23</title>
<path fill="none" stroke="#191970" d="M565.45,-179.264C656.734,-178.171 828.073,-176.119 927.731,-174.925"/>
<polygon fill="#191970" stroke="#191970" points="565.219,-175.766 555.261,-179.386 565.303,-182.766 565.219,-175.766"/>
</g>
<!-- Node22&#45;&gt;Node21 -->
<g id="edge27" class="edge">
<title>Node22&#45;&gt;Node21</title>
<path fill="none" stroke="#191970" d="M600.86,-209.223C573.708,-203.278 544.197,-195.752 524.976,-189.592"/>
<polygon fill="#191970" stroke="#191970" points="600.221,-212.666 610.733,-211.336 601.687,-205.821 600.221,-212.666"/>
</g>
<!-- Node23&#45;&gt;Node8 -->
<g id="edge30" class="edge">
<title>Node23&#45;&gt;Node8</title>
<path fill="none" stroke="#191970" d="M1092.43,-174C1101.13,-174 1109.72,-174 1117.77,-174"/>
<polygon fill="#191970" stroke="#191970" points="1092.19,-170.5 1082.19,-174 1092.19,-177.5 1092.19,-170.5"/>
</g>
<!-- Node24&#45;&gt;Node7 -->
<g id="edge33" class="edge">
<title>Node24&#45;&gt;Node7</title>
<path fill="none" stroke="#191970" d="M876.041,-338C895.159,-338 917.771,-338 938.679,-338"/>
<polygon fill="#191970" stroke="#191970" points="875.813,-334.5 865.813,-338 875.813,-341.5 875.813,-334.5"/>
</g>
<!-- Node26 -->
<g id="node26" class="node">
<title>Node26</title>
<g id="a_node26"><a xlink:href="mqtt_8c.html#a86f8adfe29d6ec8bb5070fd030540d2f" target="_top" xlink:title="MQTT subscibe function. ">
<polygon fill="#ffffff" stroke="#000000" points="292,-319.5 292,-338.5 387,-338.5 387,-319.5 292,-319.5"/>
<text text-anchor="middle" x="339.5" y="-326.5" font-family="Helvetica,sans-Serif" font-size="10.00" fill="#000000">MQTT_Subscribe</text>
</a>
</g>
</g>
<!-- Node25&#45;&gt;Node26 -->
<g id="edge36" class="edge">
<title>Node25&#45;&gt;Node26</title>
<path fill="none" stroke="#191970" d="M241.268,-328.399C258.171,-328.503 276.054,-328.612 291.863,-328.709"/>
<polygon fill="#191970" stroke="#191970" points="240.919,-324.897 230.898,-328.336 240.876,-331.897 240.919,-324.897"/>
</g>
<!-- Node26&#45;&gt;Node18 -->
<g id="edge37" class="edge">
<title>Node26&#45;&gt;Node18</title>
<path fill="none" stroke="#191970" d="M397.001,-323.379C494.54,-313.843 690.693,-294.667 781.86,-285.755"/>
<polygon fill="#191970" stroke="#191970" points="396.637,-319.898 387.025,-324.354 397.318,-326.864 396.637,-319.898"/>
</g>
<!-- Node28 -->
<g id="node28" class="node">
<title>Node28</title>
<g id="a_node28"><a xlink:href="mqtt_8c.html#a7f28cd912dae4c1386c10026a267b579" target="_top" xlink:title="MQTT un&#45;subscibe function. ">
<polygon fill="#ffffff" stroke="#000000" points="285.5,-132.5 285.5,-151.5 393.5,-151.5 393.5,-132.5 285.5,-132.5"/>
<text text-anchor="middle" x="339.5" y="-139.5" font-family="Helvetica,sans-Serif" font-size="10.00" fill="#000000">MQTT_UnSubscribe</text>
</a>
</g>
</g>
<!-- Node27&#45;&gt;Node28 -->
<g id="edge39" class="edge">
<title>Node27&#45;&gt;Node28</title>
<path fill="none" stroke="#191970" d="M203.974,-190.779C222.87,-181.523 248.552,-169.614 272,-161 281.485,-157.516 291.915,-154.293 301.68,-151.529"/>
<polygon fill="#191970" stroke="#191970" points="202.165,-187.769 194.759,-195.346 205.273,-194.041 202.165,-187.769"/>
</g>
</g>
</svg>
