<?xml version="1.0" encoding="UTF-8" standalone="no"?>
<!DOCTYPE svg PUBLIC "-//W3C//DTD SVG 1.1//EN"
 "http://www.w3.org/Graphics/SVG/1.1/DTD/svg11.dtd">
<!-- Generated by graphviz version 2.39.20160927.1334 (20160927.1334)
 -->
<!-- Title: MQTT_Subscribe Pages: 1 -->
<svg width="533pt" height="284pt"
 viewBox="0.00 0.00 533.00 284.00" xmlns="http://www.w3.org/2000/svg" xmlns:xlink="http://www.w3.org/1999/xlink">
<g id="graph0" class="graph" transform="scale(1 1) rotate(0) translate(4 280)">
<title>MQTT_Subscribe</title>
<polygon fill="#ffffff" stroke="transparent" points="-4,4 -4,-280 529,-280 529,4 -4,4"/>
<!-- Node1 -->
<g id="node1" class="node">
<title>Node1</title>
<polygon fill="#bfbfbf" stroke="#000000" points="0,-66.5 0,-85.5 95,-85.5 95,-66.5 0,-66.5"/>
<text text-anchor="middle" x="47.5" y="-73.5" font-family="Helvetica,sans-Serif" font-size="10.00" fill="#000000">MQTT_Subscribe</text>
</g>
<!-- Node2 -->
<g id="node2" class="node">
<title>Node2</title>
<g id="a_node2"><a xlink:href="mqtt__msg_8h.html#adff62ede8c5069101032913d4434baad" target="_top" xlink:title="mqtt_msg_subscribe">
<polygon fill="#ffffff" stroke="#000000" points="131,-161.5 131,-180.5 240,-180.5 240,-161.5 131,-161.5"/>
<text text-anchor="middle" x="185.5" y="-168.5" font-family="Helvetica,sans-Serif" font-size="10.00" fill="#000000">mqtt_msg_subscribe</text>
</a>
</g>
</g>
<!-- Node1&#45;&gt;Node2 -->
<g id="edge1" class="edge">
<title>Node1&#45;&gt;Node2</title>
<path fill="none" stroke="#191970" d="M61.4916,-85.6319C85.3584,-102.062 134.142,-135.645 162.896,-155.439"/>
<polygon fill="#191970" stroke="#191970" points="161.25,-158.555 171.471,-161.343 165.219,-152.789 161.25,-158.555"/>
</g>
<!-- Node8 -->
<g id="node8" class="node">
<title>Node8</title>
<g id="a_node8"><a xlink:href="queue_8h.html#acf070d5db9067c0b9598dec844313ae5" target="_top" xlink:title="QUEUE_Gets">
<polygon fill="#ffffff" stroke="#000000" points="146,-66.5 146,-85.5 225,-85.5 225,-66.5 146,-66.5"/>
<text text-anchor="middle" x="185.5" y="-73.5" font-family="Helvetica,sans-Serif" font-size="10.00" fill="#000000">QUEUE_Gets</text>
</a>
</g>
</g>
<!-- Node1&#45;&gt;Node8 -->
<g id="edge7" class="edge">
<title>Node1&#45;&gt;Node8</title>
<path fill="none" stroke="#191970" d="M95.3784,-76C108.401,-76 122.534,-76 135.662,-76"/>
<polygon fill="#191970" stroke="#191970" points="135.935,-79.5001 145.935,-76 135.934,-72.5001 135.935,-79.5001"/>
</g>
<!-- Node13 -->
<g id="node13" class="node">
<title>Node13</title>
<g id="a_node13"><a xlink:href="queue_8h.html#a0a04f14d06c5c3ee302764c5f3d7dc0c" target="_top" xlink:title="QUEUE_Puts">
<polygon fill="#ffffff" stroke="#000000" points="146.5,-24.5 146.5,-43.5 224.5,-43.5 224.5,-24.5 146.5,-24.5"/>
<text text-anchor="middle" x="185.5" y="-31.5" font-family="Helvetica,sans-Serif" font-size="10.00" fill="#000000">QUEUE_Puts</text>
</a>
</g>
</g>
<!-- Node1&#45;&gt;Node13 -->
<g id="edge12" class="edge">
<title>Node1&#45;&gt;Node13</title>
<path fill="none" stroke="#191970" d="M78.8143,-66.4695C98.1738,-60.5775 123.243,-52.9478 144.215,-46.565"/>
<polygon fill="#191970" stroke="#191970" points="145.284,-49.8982 153.832,-43.6381 143.246,-43.2014 145.284,-49.8982"/>
</g>
<!-- Node3 -->
<g id="node3" class="node">
<title>Node3</title>
<g id="a_node3"><a xlink:href="mqtt__msg_8c.html#ac59e26babd30c6c0ace9a174e75786f3" target="_top" xlink:title="append_message_id">
<polygon fill="#ffffff" stroke="#000000" points="276,-256.5 276,-275.5 385,-275.5 385,-256.5 276,-256.5"/>
<text text-anchor="middle" x="330.5" y="-263.5" font-family="Helvetica,sans-Serif" font-size="10.00" fill="#000000">append_message_id</text>
</a>
</g>
</g>
<!-- Node2&#45;&gt;Node3 -->
<g id="edge2" class="edge">
<title>Node2&#45;&gt;Node3</title>
<path fill="none" stroke="#191970" d="M194.658,-180.709C210.083,-196.565 242.825,-228.138 276,-247 279.626,-249.062 283.513,-250.955 287.482,-252.681"/>
<polygon fill="#191970" stroke="#191970" points="286.218,-255.945 296.803,-256.402 288.814,-249.444 286.218,-255.945"/>
</g>
<!-- Node4 -->
<g id="node4" class="node">
<title>Node4</title>
<g id="a_node4"><a xlink:href="mqtt__msg_8c.html#a207c99e2058080b97c21a348d693a560" target="_top" xlink:title="append_string">
<polygon fill="#ffffff" stroke="#000000" points="290.5,-218.5 290.5,-237.5 370.5,-237.5 370.5,-218.5 290.5,-218.5"/>
<text text-anchor="middle" x="330.5" y="-225.5" font-family="Helvetica,sans-Serif" font-size="10.00" fill="#000000">append_string</text>
</a>
</g>
</g>
<!-- Node2&#45;&gt;Node4 -->
<g id="edge3" class="edge">
<title>Node2&#45;&gt;Node4</title>
<path fill="none" stroke="#191970" d="M207.291,-180.598C225.527,-188.521 252.296,-199.901 276,-209 281.262,-211.02 286.843,-213.069 292.349,-215.038"/>
<polygon fill="#191970" stroke="#191970" points="291.497,-218.449 302.092,-218.47 293.823,-211.846 291.497,-218.449"/>
</g>
<!-- Node5 -->
<g id="node5" class="node">
<title>Node5</title>
<g id="a_node5"><a xlink:href="mqtt__msg_8c.html#a9a2fb8c67ff4b104dd46e72c9e97b710" target="_top" xlink:title="fail_message">
<polygon fill="#ffffff" stroke="#000000" points="293,-180.5 293,-199.5 368,-199.5 368,-180.5 293,-180.5"/>
<text text-anchor="middle" x="330.5" y="-187.5" font-family="Helvetica,sans-Serif" font-size="10.00" fill="#000000">fail_message</text>
</a>
</g>
</g>
<!-- Node2&#45;&gt;Node5 -->
<g id="edge4" class="edge">
<title>Node2&#45;&gt;Node5</title>
<path fill="none" stroke="#191970" d="M240.318,-178.183C254.25,-180.009 269.11,-181.956 282.664,-183.732"/>
<polygon fill="#191970" stroke="#191970" points="282.367,-187.223 292.737,-185.052 283.277,-180.282 282.367,-187.223"/>
</g>
<!-- Node6 -->
<g id="node6" class="node">
<title>Node6</title>
<g id="a_node6"><a xlink:href="mqtt__msg_8c.html#a356949afe8a334d5e91bddb4b2794921" target="_top" xlink:title="fini_message">
<polygon fill="#ffffff" stroke="#000000" points="293,-142.5 293,-161.5 368,-161.5 368,-142.5 293,-142.5"/>
<text text-anchor="middle" x="330.5" y="-149.5" font-family="Helvetica,sans-Serif" font-size="10.00" fill="#000000">fini_message</text>
</a>
</g>
</g>
<!-- Node2&#45;&gt;Node6 -->
<g id="edge5" class="edge">
<title>Node2&#45;&gt;Node6</title>
<path fill="none" stroke="#191970" d="M240.318,-163.817C254.25,-161.991 269.11,-160.044 282.664,-158.268"/>
<polygon fill="#191970" stroke="#191970" points="283.277,-161.718 292.737,-156.948 282.367,-154.777 283.277,-161.718"/>
</g>
<!-- Node7 -->
<g id="node7" class="node">
<title>Node7</title>
<g id="a_node7"><a xlink:href="mqtt__msg_8c.html#aae7c66cc577ac90e9535edac4abc068c" target="_top" xlink:title="init_message">
<polygon fill="#ffffff" stroke="#000000" points="293,-104.5 293,-123.5 368,-123.5 368,-104.5 293,-104.5"/>
<text text-anchor="middle" x="330.5" y="-111.5" font-family="Helvetica,sans-Serif" font-size="10.00" fill="#000000">init_message</text>
</a>
</g>
</g>
<!-- Node2&#45;&gt;Node7 -->
<g id="edge6" class="edge">
<title>Node2&#45;&gt;Node7</title>
<path fill="none" stroke="#191970" d="M207.291,-161.402C225.527,-153.479 252.296,-142.099 276,-133 281.262,-130.98 286.843,-128.931 292.349,-126.962"/>
<polygon fill="#191970" stroke="#191970" points="293.823,-130.154 302.092,-123.53 291.497,-123.551 293.823,-130.154"/>
</g>
<!-- Node9 -->
<g id="node9" class="node">
<title>Node9</title>
<g id="a_node9"><a xlink:href="proto_8h.html#a4ce0ecd80c57cb13f47a2725036451af" target="_top" xlink:title="PROTO_ParseRb">
<polygon fill="#ffffff" stroke="#000000" points="282,-66.5 282,-85.5 379,-85.5 379,-66.5 282,-66.5"/>
<text text-anchor="middle" x="330.5" y="-73.5" font-family="Helvetica,sans-Serif" font-size="10.00" fill="#000000">PROTO_ParseRb</text>
</a>
</g>
</g>
<!-- Node8&#45;&gt;Node9 -->
<g id="edge8" class="edge">
<title>Node8&#45;&gt;Node9</title>
<path fill="none" stroke="#191970" d="M225.122,-76C239.498,-76 256.062,-76 271.737,-76"/>
<polygon fill="#191970" stroke="#191970" points="271.877,-79.5001 281.877,-76 271.877,-72.5001 271.877,-79.5001"/>
</g>
<!-- Node10 -->
<g id="node10" class="node">
<title>Node10</title>
<g id="a_node10"><a xlink:href="proto_8c.html#aef0525e6fb0717f1ae3816f5a59fbd08" target="_top" xlink:title="PROTO_Init">
<polygon fill="#ffffff" stroke="#000000" points="437.5,-114.5 437.5,-133.5 508.5,-133.5 508.5,-114.5 437.5,-114.5"/>
<text text-anchor="middle" x="473" y="-121.5" font-family="Helvetica,sans-Serif" font-size="10.00" fill="#000000">PROTO_Init</text>
</a>
</g>
</g>
<!-- Node9&#45;&gt;Node10 -->
<g id="edge9" class="edge">
<title>Node9&#45;&gt;Node10</title>
<path fill="none" stroke="#191970" d="M358.995,-85.5982C380.741,-92.9234 410.921,-103.089 434.766,-111.121"/>
<polygon fill="#191970" stroke="#191970" points="433.961,-114.543 444.555,-114.418 436.195,-107.909 433.961,-114.543"/>
</g>
<!-- Node11 -->
<g id="node11" class="node">
<title>Node11</title>
<g id="a_node11"><a xlink:href="proto_8c.html#ada6cc416001736d9b313d8871024e616" target="_top" xlink:title="PROTO_ParseByte">
<polygon fill="#ffffff" stroke="#000000" points="421,-76.5 421,-95.5 525,-95.5 525,-76.5 421,-76.5"/>
<text text-anchor="middle" x="473" y="-83.5" font-family="Helvetica,sans-Serif" font-size="10.00" fill="#000000">PROTO_ParseByte</text>
</a>
</g>
</g>
<!-- Node9&#45;&gt;Node11 -->
<g id="edge10" class="edge">
<title>Node9&#45;&gt;Node11</title>
<path fill="none" stroke="#191970" d="M379.142,-79.4135C389.285,-80.1252 400.109,-80.8848 410.668,-81.6258"/>
<polygon fill="#191970" stroke="#191970" points="410.459,-85.1197 420.68,-82.3284 410.949,-78.1369 410.459,-85.1197"/>
</g>
<!-- Node12 -->
<g id="node12" class="node">
<title>Node12</title>
<g id="a_node12"><a xlink:href="ringbuf_8h.html#a2b4ae6481762403eec1f2072eb30217a" target="_top" xlink:title="get a character from ring buffer ">
<polygon fill="#ffffff" stroke="#000000" points="431.5,-38.5 431.5,-57.5 514.5,-57.5 514.5,-38.5 431.5,-38.5"/>
<text text-anchor="middle" x="473" y="-45.5" font-family="Helvetica,sans-Serif" font-size="10.00" fill="#000000">RINGBUF_Get</text>
</a>
</g>
</g>
<!-- Node9&#45;&gt;Node12 -->
<g id="edge11" class="edge">
<title>Node9&#45;&gt;Node12</title>
<path fill="none" stroke="#191970" d="M379.142,-66.4423C392.767,-63.7652 407.622,-60.8462 421.411,-58.1368"/>
<polygon fill="#191970" stroke="#191970" points="422.093,-61.5698 431.231,-56.2073 420.743,-54.7011 422.093,-61.5698"/>
</g>
<!-- Node14 -->
<g id="node14" class="node">
<title>Node14</title>
<g id="a_node14"><a xlink:href="proto_8h.html#aeeb0162a48bf377e468e5fca672a5df1" target="_top" xlink:title="PROTO_AddRb">
<polygon fill="#ffffff" stroke="#000000" points="286.5,-19.5 286.5,-38.5 374.5,-38.5 374.5,-19.5 286.5,-19.5"/>
<text text-anchor="middle" x="330.5" y="-26.5" font-family="Helvetica,sans-Serif" font-size="10.00" fill="#000000">PROTO_AddRb</text>
</a>
</g>
</g>
<!-- Node13&#45;&gt;Node14 -->
<g id="edge13" class="edge">
<title>Node13&#45;&gt;Node14</title>
<path fill="none" stroke="#191970" d="M224.739,-32.6469C240.506,-32.1033 258.952,-31.4672 275.984,-30.8799"/>
<polygon fill="#191970" stroke="#191970" points="276.497,-34.3644 286.37,-30.5217 276.255,-27.3685 276.497,-34.3644"/>
</g>
<!-- Node15 -->
<g id="node15" class="node">
<title>Node15</title>
<g id="a_node15"><a xlink:href="ringbuf_8h.html#a717173daf1397da584236ed52bbec10a" target="_top" xlink:title="put a character into ring buffer ">
<polygon fill="#ffffff" stroke="#000000" points="432,-0.5 432,-19.5 514,-19.5 514,-0.5 432,-0.5"/>
<text text-anchor="middle" x="473" y="-7.5" font-family="Helvetica,sans-Serif" font-size="10.00" fill="#000000">RINGBUF_Put</text>
</a>
</g>
</g>
<!-- Node14&#45;&gt;Node15 -->
<g id="edge14" class="edge">
<title>Node14&#45;&gt;Node15</title>
<path fill="none" stroke="#191970" d="M374.807,-23.0924C389.544,-21.1275 406.084,-18.9221 421.328,-16.8896"/>
<polygon fill="#191970" stroke="#191970" points="422.187,-20.3061 431.637,-15.5151 421.262,-13.3675 422.187,-20.3061"/>
</g>
</g>
</svg>
