<?xml version="1.0" encoding="UTF-8" standalone="no"?>
<!DOCTYPE svg PUBLIC "-//W3C//DTD SVG 1.1//EN"
 "http://www.w3.org/Graphics/SVG/1.1/DTD/svg11.dtd">
<!-- Generated by graphviz version 2.40.1 (20161225.0304)
 -->
<!-- Title: mqtt/mqtt_utils.c Pages: 1 -->
<svg width="441pt" height="196pt"
 viewBox="0.00 0.00 441.00 196.00" xmlns="http://www.w3.org/2000/svg" xmlns:xlink="http://www.w3.org/1999/xlink">
<g id="graph0" class="graph" transform="scale(1 1) rotate(0) translate(4 192)">
<title>mqtt/mqtt_utils.c</title>
<polygon fill="#ffffff" stroke="transparent" points="-4,4 -4,-192 437,-192 437,4 -4,4"/>
<!-- Node0 -->
<g id="node1" class="node">
<title>Node0</title>
<polygon fill="#bfbfbf" stroke="#000000" points="145,-168.5 145,-187.5 234,-187.5 234,-168.5 145,-168.5"/>
<text text-anchor="middle" x="189.5" y="-175.5" font-family="Helvetica,sans-Serif" font-size="10.00" fill="#000000">mqtt/mqtt_utils.c</text>
</g>
<!-- Node1 -->
<g id="node2" class="node">
<title>Node1</title>
<polygon fill="#ffffff" stroke="#bfbfbf" points="0,-112.5 0,-131.5 49,-131.5 49,-112.5 0,-112.5"/>
<text text-anchor="middle" x="24.5" y="-119.5" font-family="Helvetica,sans-Serif" font-size="10.00" fill="#000000">string.h</text>
</g>
<!-- Node0&#45;&gt;Node1 -->
<g id="edge1" class="edge">
<title>Node0&#45;&gt;Node1</title>
<path fill="none" stroke="#191970" d="M161.1355,-168.3733C132.7411,-158.7364 89.0289,-143.9007 58.7242,-133.6155"/>
<polygon fill="#191970" stroke="#191970" points="59.5968,-130.2156 49.0025,-130.316 57.3471,-136.8443 59.5968,-130.2156"/>
</g>
<!-- Node2 -->
<g id="node3" class="node">
<title>Node2</title>
<polygon fill="#ffffff" stroke="#bfbfbf" points="67.5,-112.5 67.5,-131.5 113.5,-131.5 113.5,-112.5 67.5,-112.5"/>
<text text-anchor="middle" x="90.5" y="-119.5" font-family="Helvetica,sans-Serif" font-size="10.00" fill="#000000">stdio.h</text>
</g>
<!-- Node0&#45;&gt;Node2 -->
<g id="edge2" class="edge">
<title>Node0&#45;&gt;Node2</title>
<path fill="none" stroke="#191970" d="M172.2555,-168.2455C156.9239,-159.5731 134.2801,-146.7645 116.7084,-136.825"/>
<polygon fill="#191970" stroke="#191970" points="117.9741,-133.5198 107.5469,-131.6427 114.5276,-139.6126 117.9741,-133.5198"/>
</g>
<!-- Node3 -->
<g id="node4" class="node">
<title>Node3</title>
<polygon fill="#ffffff" stroke="#bfbfbf" points="132,-112.5 132,-131.5 181,-131.5 181,-112.5 132,-112.5"/>
<text text-anchor="middle" x="156.5" y="-119.5" font-family="Helvetica,sans-Serif" font-size="10.00" fill="#000000">ctype.h</text>
</g>
<!-- Node0&#45;&gt;Node3 -->
<g id="edge3" class="edge">
<title>Node0&#45;&gt;Node3</title>
<path fill="none" stroke="#191970" d="M183.7518,-168.2455C179.2565,-160.617 172.8752,-149.7881 167.4175,-140.5267"/>
<polygon fill="#191970" stroke="#191970" points="170.2747,-138.4811 162.1823,-131.6427 164.2439,-142.035 170.2747,-138.4811"/>
</g>
<!-- Node4 -->
<g id="node5" class="node">
<title>Node4</title>
<polygon fill="#ffffff" stroke="#bfbfbf" points="199,-112.5 199,-131.5 246,-131.5 246,-112.5 199,-112.5"/>
<text text-anchor="middle" x="222.5" y="-119.5" font-family="Helvetica,sans-Serif" font-size="10.00" fill="#000000">math.h</text>
</g>
<!-- Node0&#45;&gt;Node4 -->
<g id="edge4" class="edge">
<title>Node0&#45;&gt;Node4</title>
<path fill="none" stroke="#191970" d="M195.2482,-168.2455C199.7435,-160.617 206.1248,-149.7881 211.5825,-140.5267"/>
<polygon fill="#191970" stroke="#191970" points="214.7561,-142.035 216.8177,-131.6427 208.7253,-138.4811 214.7561,-142.035"/>
</g>
<!-- Node5 -->
<g id="node6" class="node">
<title>Node5</title>
<polygon fill="#ffffff" stroke="#bfbfbf" points="264.5,-112.5 264.5,-131.5 316.5,-131.5 316.5,-112.5 264.5,-112.5"/>
<text text-anchor="middle" x="290.5" y="-119.5" font-family="Helvetica,sans-Serif" font-size="10.00" fill="#000000">stddef.h</text>
</g>
<!-- Node0&#45;&gt;Node5 -->
<g id="edge5" class="edge">
<title>Node0&#45;&gt;Node5</title>
<path fill="none" stroke="#191970" d="M207.0929,-168.2455C222.879,-159.4928 246.2639,-146.527 264.2587,-136.5496"/>
<polygon fill="#191970" stroke="#191970" points="266.0603,-139.5528 273.1087,-131.6427 262.6659,-133.4308 266.0603,-139.5528"/>
</g>
<!-- Node6 -->
<g id="node7" class="node">
<title>Node6</title>
<g id="a_node7"><a xlink:href="mqtt__utils_8h.html" target="_top" xlink:title="mqtt_utils.h">
<polygon fill="#ffffff" stroke="#000000" points="334.5,-112.5 334.5,-131.5 402.5,-131.5 402.5,-112.5 334.5,-112.5"/>
<text text-anchor="middle" x="368.5" y="-119.5" font-family="Helvetica,sans-Serif" font-size="10.00" fill="#000000">mqtt_utils.h</text>
</a>
</g>
</g>
<!-- Node0&#45;&gt;Node6 -->
<g id="edge6" class="edge">
<title>Node0&#45;&gt;Node6</title>
<path fill="none" stroke="#191970" d="M220.2712,-168.3733C250.165,-159.021 295.7093,-144.7725 328.4217,-134.5385"/>
<polygon fill="#191970" stroke="#191970" points="329.6315,-137.8273 338.1303,-131.5011 327.5414,-131.1466 329.6315,-137.8273"/>
</g>
<!-- Node7 -->
<g id="node8" class="node">
<title>Node7</title>
<g id="a_node8"><a xlink:href="c__types_8h.html" target="_top" xlink:title="c_types.h">
<polygon fill="#ffffff" stroke="#000000" points="339,-56.5 339,-75.5 398,-75.5 398,-56.5 339,-56.5"/>
<text text-anchor="middle" x="368.5" y="-63.5" font-family="Helvetica,sans-Serif" font-size="10.00" fill="#000000">c_types.h</text>
</a>
</g>
</g>
<!-- Node6&#45;&gt;Node7 -->
<g id="edge7" class="edge">
<title>Node6&#45;&gt;Node7</title>
<path fill="none" stroke="#191970" d="M368.5,-112.2455C368.5,-104.9382 368.5,-94.6944 368.5,-85.7046"/>
<polygon fill="#191970" stroke="#191970" points="372.0001,-85.6426 368.5,-75.6427 365.0001,-85.6427 372.0001,-85.6426"/>
</g>
<!-- Node8 -->
<g id="node9" class="node">
<title>Node8</title>
<polygon fill="#ffffff" stroke="#bfbfbf" points="309,-.5 309,-19.5 358,-19.5 358,-.5 309,-.5"/>
<text text-anchor="middle" x="333.5" y="-7.5" font-family="Helvetica,sans-Serif" font-size="10.00" fill="#000000">stdint.h</text>
</g>
<!-- Node7&#45;&gt;Node8 -->
<g id="edge8" class="edge">
<title>Node7&#45;&gt;Node8</title>
<path fill="none" stroke="#191970" d="M362.4035,-56.2455C357.5855,-48.5367 350.7249,-37.5598 344.8968,-28.2348"/>
<polygon fill="#191970" stroke="#191970" points="347.7947,-26.2677 339.5267,-19.6427 341.8587,-29.9777 347.7947,-26.2677"/>
</g>
<!-- Node9 -->
<g id="node10" class="node">
<title>Node9</title>
<polygon fill="#ffffff" stroke="#bfbfbf" points="376,-.5 376,-19.5 433,-19.5 433,-.5 376,-.5"/>
<text text-anchor="middle" x="404.5" y="-7.5" font-family="Helvetica,sans-Serif" font-size="10.00" fill="#000000">stdbool.h</text>
</g>
<!-- Node7&#45;&gt;Node9 -->
<g id="edge9" class="edge">
<title>Node7&#45;&gt;Node9</title>
<path fill="none" stroke="#191970" d="M374.7707,-56.2455C379.7264,-48.5367 386.783,-37.5598 392.7776,-28.2348"/>
<polygon fill="#191970" stroke="#191970" points="395.8376,-29.9471 398.3011,-19.6427 389.9494,-26.1618 395.8376,-29.9471"/>
</g>
</g>
</svg>
