<?xml version="1.0" encoding="UTF-8" standalone="no"?>
<!DOCTYPE svg PUBLIC "-//W3C//DTD SVG 1.1//EN"
 "http://www.w3.org/Graphics/SVG/1.1/DTD/svg11.dtd">
<!-- Generated by graphviz version 2.40.1 (20161225.0304)
 -->
<!-- Title: mqtt_msg_init Pages: 1 -->
<svg width="615pt" height="104pt"
 viewBox="0.00 0.00 615.00 104.00" xmlns="http://www.w3.org/2000/svg" xmlns:xlink="http://www.w3.org/1999/xlink">
<g id="graph0" class="graph" transform="scale(1 1) rotate(0) translate(4 100)">
<title>mqtt_msg_init</title>
<polygon fill="#ffffff" stroke="transparent" points="-4,4 -4,-100 611,-100 611,4 -4,4"/>
<!-- Node111 -->
<g id="node1" class="node">
<title>Node111</title>
<polygon fill="#bfbfbf" stroke="#000000" points="0,-38.5 0,-57.5 79,-57.5 79,-38.5 0,-38.5"/>
<text text-anchor="middle" x="39.5" y="-45.5" font-family="Helvetica,sans-Serif" font-size="10.00" fill="#000000">mqtt_msg_init</text>
</g>
<!-- Node112 -->
<g id="node2" class="node">
<title>Node112</title>
<g id="a_node2"><a xlink:href="mqtt__msg_8h.html#affd61b4be51d1e29e51dfbc42489ba36" target="_top" xlink:title="mqtt_get_retain">
<polygon fill="#ffffff" stroke="#000000" points="139.5,-76.5 139.5,-95.5 225.5,-95.5 225.5,-76.5 139.5,-76.5"/>
<text text-anchor="middle" x="182.5" y="-83.5" font-family="Helvetica,sans-Serif" font-size="10.00" fill="#000000">mqtt_get_retain</text>
</a>
</g>
</g>
<!-- Node111&#45;&gt;Node112 -->
<g id="edge1" class="edge">
<title>Node111&#45;&gt;Node112</title>
<path fill="none" stroke="#191970" d="M85.3133,-60.1742C105.0871,-65.4287 127.8838,-71.4866 146.4266,-76.4141"/>
<polygon fill="#191970" stroke="#191970" points="86.1484,-56.7747 75.5849,-57.589 84.3506,-63.5399 86.1484,-56.7747"/>
</g>
<!-- Node113 -->
<g id="node3" class="node">
<title>Node113</title>
<g id="a_node3"><a xlink:href="mqtt_8c.html#a25cb7ac079d1d119250dac075c45acf1" target="_top" xlink:title="MQTT initialization mqtt client function. ">
<polygon fill="#ffffff" stroke="#000000" points="518,-19.5 518,-38.5 607,-38.5 607,-19.5 518,-19.5"/>
<text text-anchor="middle" x="562.5" y="-26.5" font-family="Helvetica,sans-Serif" font-size="10.00" fill="#000000">MQTT_InitClient</text>
</a>
</g>
</g>
<!-- Node111&#45;&gt;Node113 -->
<g id="edge2" class="edge">
<title>Node111&#45;&gt;Node113</title>
<path fill="none" stroke="#191970" d="M89.2355,-46.1932C190.7626,-42.5048 420.461,-34.1601 517.6859,-30.628"/>
<polygon fill="#191970" stroke="#191970" points="89.1056,-42.6955 79.2393,-46.5563 89.3598,-49.6909 89.1056,-42.6955"/>
</g>
<!-- Node114 -->
<g id="node4" class="node">
<title>Node114</title>
<g id="a_node4"><a xlink:href="mqtt_8c.html#a36ecd969af1b9c87856f01be064a98cc" target="_top" xlink:title="Tcp client connect success callback function. ">
<polygon fill="#ffffff" stroke="#000000" points="115,-.5 115,-19.5 250,-19.5 250,-.5 115,-.5"/>
<text text-anchor="middle" x="182.5" y="-7.5" font-family="Helvetica,sans-Serif" font-size="10.00" fill="#000000">mqtt_tcpclient_connect_cb</text>
</a>
</g>
</g>
<!-- Node111&#45;&gt;Node114 -->
<g id="edge3" class="edge">
<title>Node111&#45;&gt;Node114</title>
<path fill="none" stroke="#191970" d="M85.3133,-35.8258C105.0871,-30.5713 127.8838,-24.5134 146.4266,-19.5859"/>
<polygon fill="#191970" stroke="#191970" points="84.3506,-32.4601 75.5849,-38.411 86.1484,-39.2253 84.3506,-32.4601"/>
</g>
<!-- Node115 -->
<g id="node5" class="node">
<title>Node115</title>
<g id="a_node5"><a xlink:href="mqtt_8c.html#ad34b681cb2f7473d8fc786c7ed468db5" target="_top" xlink:title="Begin connect to MQTT broker. ">
<polygon fill="#ffffff" stroke="#000000" points="286,-.5 286,-19.5 374,-19.5 374,-.5 286,-.5"/>
<text text-anchor="middle" x="330" y="-7.5" font-family="Helvetica,sans-Serif" font-size="10.00" fill="#000000">MQTT_Connect</text>
</a>
</g>
</g>
<!-- Node114&#45;&gt;Node115 -->
<g id="edge4" class="edge">
<title>Node114&#45;&gt;Node115</title>
<path fill="none" stroke="#191970" d="M260.4528,-10C269.1756,-10 277.8197,-10 285.895,-10"/>
<polygon fill="#191970" stroke="#191970" points="260.2063,-6.5001 250.2062,-10 260.2062,-13.5001 260.2063,-6.5001"/>
</g>
<!-- Node116 -->
<g id="node6" class="node">
<title>Node116</title>
<g id="a_node6"><a xlink:href="mqtt_8c.html#a9d88fa6efb9163d4dbf9dc750a8d4ed0" target="_top" xlink:title="MQTT_Task">
<polygon fill="#ffffff" stroke="#000000" points="410,-.5 410,-19.5 482,-19.5 482,-.5 410,-.5"/>
<text text-anchor="middle" x="446" y="-7.5" font-family="Helvetica,sans-Serif" font-size="10.00" fill="#000000">MQTT_Task</text>
</a>
</g>
</g>
<!-- Node115&#45;&gt;Node116 -->
<g id="edge5" class="edge">
<title>Node115&#45;&gt;Node116</title>
<path fill="none" stroke="#191970" d="M384.2705,-10C392.9449,-10 401.731,-10 409.8484,-10"/>
<polygon fill="#191970" stroke="#191970" points="384.1856,-6.5001 374.1855,-10 384.1855,-13.5001 384.1856,-6.5001"/>
</g>
<!-- Node116&#45;&gt;Node113 -->
<g id="edge6" class="edge">
<title>Node116&#45;&gt;Node113</title>
<path fill="none" stroke="#191970" d="M492.225,-17.5388C500.6069,-18.9058 509.336,-20.3295 517.6768,-21.6898"/>
<polygon fill="#191970" stroke="#191970" points="492.6557,-14.0629 482.2227,-15.9076 491.5289,-20.9716 492.6557,-14.0629"/>
</g>
</g>
</svg>
