<?xml version="1.0" encoding="UTF-8" standalone="no"?>
<!DOCTYPE svg PUBLIC "-//W3C//DTD SVG 1.1//EN"
 "http://www.w3.org/Graphics/SVG/1.1/DTD/svg11.dtd">
<!-- Generated by graphviz version 2.41.20170323.1842 (20170323.1842)
 -->
<!-- Title: mqtt/include/mqtt_msg.h Pages: 1 -->
<svg width="162pt" height="84pt"
 viewBox="0.00 0.00 162.00 84.00" xmlns="http://www.w3.org/2000/svg" xmlns:xlink="http://www.w3.org/1999/xlink">
<g id="graph0" class="graph" transform="scale(1 1) rotate(0) translate(4 80)">
<title>mqtt/include/mqtt_msg.h</title>
<polygon fill="#ffffff" stroke="transparent" points="-4,4 -4,-80 158,-80 158,4 -4,4"/>
<!-- Node0 -->
<g id="node1" class="node">
<title>Node0</title>
<polygon fill="#bfbfbf" stroke="#000000" points="19,-56.5 19,-75.5 144,-75.5 144,-56.5 19,-56.5"/>
<text text-anchor="middle" x="81.5" y="-63.5" font-family="Helvetica,sans-Serif" font-size="10.00" fill="#000000">mqtt/include/mqtt_msg.h</text>
</g>
<!-- Node1 -->
<g id="node2" class="node">
<title>Node1</title>
<g id="a_node2"><a xlink:href="user__config_8h.html" target="_top" xlink:title="user_config.h">
<polygon fill="#ffffff" stroke="#000000" points="0,-.5 0,-19.5 77,-19.5 77,-.5 0,-.5"/>
<text text-anchor="middle" x="38.5" y="-7.5" font-family="Helvetica,sans-Serif" font-size="10.00" fill="#000000">user_config.h</text>
</a>
</g>
</g>
<!-- Node0&#45;&gt;Node1 -->
<g id="edge1" class="edge">
<title>Node0&#45;&gt;Node1</title>
<path fill="none" stroke="#191970" d="M74.01,-56.2455C67.9674,-48.3761 59.3097,-37.101 52.0559,-27.6542"/>
<polygon fill="#191970" stroke="#191970" points="54.7705,-25.4426 45.9042,-19.6427 49.2185,-29.7058 54.7705,-25.4426"/>
</g>
<!-- Node2 -->
<g id="node3" class="node">
<title>Node2</title>
<polygon fill="#ffffff" stroke="#bfbfbf" points="95,-.5 95,-19.5 154,-19.5 154,-.5 95,-.5"/>
<text text-anchor="middle" x="124.5" y="-7.5" font-family="Helvetica,sans-Serif" font-size="10.00" fill="#000000">c_types.h</text>
</g>
<!-- Node0&#45;&gt;Node2 -->
<g id="edge2" class="edge">
<title>Node0&#45;&gt;Node2</title>
<path fill="none" stroke="#191970" d="M88.99,-56.2455C95.0326,-48.3761 103.6903,-37.101 110.9441,-27.6542"/>
<polygon fill="#191970" stroke="#191970" points="113.7815,-29.7058 117.0958,-19.6427 108.2295,-25.4426 113.7815,-29.7058"/>
</g>
</g>
</svg>
