<?xml version="1.0" encoding="UTF-8" standalone="no"?>
<!DOCTYPE svg PUBLIC "-//W3C//DTD SVG 1.1//EN"
 "http://www.w3.org/Graphics/SVG/1.1/DTD/svg11.dtd">
<!-- Generated by graphviz version 2.39.20160927.1334 (20160927.1334)
 -->
<!-- Title: mqtt_msg_puback Pages: 1 -->
<svg width="251pt" height="142pt"
 viewBox="0.00 0.00 251.00 142.00" xmlns="http://www.w3.org/2000/svg" xmlns:xlink="http://www.w3.org/1999/xlink">
<g id="graph0" class="graph" transform="scale(1 1) rotate(0) translate(4 138)">
<title>mqtt_msg_puback</title>
<polygon fill="#ffffff" stroke="transparent" points="-4,4 -4,-138 247,-138 247,4 -4,4"/>
<!-- Node1 -->
<g id="node1" class="node">
<title>Node1</title>
<polygon fill="#bfbfbf" stroke="#000000" points="0,-57.5 0,-76.5 98,-76.5 98,-57.5 0,-57.5"/>
<text text-anchor="middle" x="49" y="-64.5" font-family="Helvetica,sans-Serif" font-size="10.00" fill="#000000">mqtt_msg_puback</text>
</g>
<!-- Node2 -->
<g id="node2" class="node">
<title>Node2</title>
<g id="a_node2"><a xlink:href="mqtt__msg_8c.html#ac59e26babd30c6c0ace9a174e75786f3" target="_top" xlink:title="append_message_id">
<polygon fill="#ffffff" stroke="#000000" points="134,-114.5 134,-133.5 243,-133.5 243,-114.5 134,-114.5"/>
<text text-anchor="middle" x="188.5" y="-121.5" font-family="Helvetica,sans-Serif" font-size="10.00" fill="#000000">append_message_id</text>
</a>
</g>
</g>
<!-- Node1&#45;&gt;Node2 -->
<g id="edge1" class="edge">
<title>Node1&#45;&gt;Node2</title>
<path fill="none" stroke="#191970" d="M69.0598,-76.548C86.1552,-84.5446 111.464,-96.0531 134,-105 139.18,-107.057 144.683,-109.117 150.122,-111.081"/>
<polygon fill="#191970" stroke="#191970" points="149.168,-114.456 159.763,-114.494 151.504,-107.858 149.168,-114.456"/>
</g>
<!-- Node3 -->
<g id="node3" class="node">
<title>Node3</title>
<g id="a_node3"><a xlink:href="mqtt__msg_8c.html#a9a2fb8c67ff4b104dd46e72c9e97b710" target="_top" xlink:title="fail_message">
<polygon fill="#ffffff" stroke="#000000" points="151,-76.5 151,-95.5 226,-95.5 226,-76.5 151,-76.5"/>
<text text-anchor="middle" x="188.5" y="-83.5" font-family="Helvetica,sans-Serif" font-size="10.00" fill="#000000">fail_message</text>
</a>
</g>
</g>
<!-- Node1&#45;&gt;Node3 -->
<g id="edge2" class="edge">
<title>Node1&#45;&gt;Node3</title>
<path fill="none" stroke="#191970" d="M98.1825,-73.6987C111.935,-75.5717 126.858,-77.6043 140.538,-79.4676"/>
<polygon fill="#191970" stroke="#191970" points="140.337,-82.9724 150.718,-80.854 141.282,-76.0364 140.337,-82.9724"/>
</g>
<!-- Node4 -->
<g id="node4" class="node">
<title>Node4</title>
<g id="a_node4"><a xlink:href="mqtt__msg_8c.html#a356949afe8a334d5e91bddb4b2794921" target="_top" xlink:title="fini_message">
<polygon fill="#ffffff" stroke="#000000" points="151,-38.5 151,-57.5 226,-57.5 226,-38.5 151,-38.5"/>
<text text-anchor="middle" x="188.5" y="-45.5" font-family="Helvetica,sans-Serif" font-size="10.00" fill="#000000">fini_message</text>
</a>
</g>
</g>
<!-- Node1&#45;&gt;Node4 -->
<g id="edge3" class="edge">
<title>Node1&#45;&gt;Node4</title>
<path fill="none" stroke="#191970" d="M98.1825,-60.3013C111.935,-58.4283 126.858,-56.3957 140.538,-54.5324"/>
<polygon fill="#191970" stroke="#191970" points="141.282,-57.9636 150.718,-53.146 140.337,-51.0276 141.282,-57.9636"/>
</g>
<!-- Node5 -->
<g id="node5" class="node">
<title>Node5</title>
<g id="a_node5"><a xlink:href="mqtt__msg_8c.html#aae7c66cc577ac90e9535edac4abc068c" target="_top" xlink:title="init_message">
<polygon fill="#ffffff" stroke="#000000" points="151,-0.5 151,-19.5 226,-19.5 226,-0.5 151,-0.5"/>
<text text-anchor="middle" x="188.5" y="-7.5" font-family="Helvetica,sans-Serif" font-size="10.00" fill="#000000">init_message</text>
</a>
</g>
</g>
<!-- Node1&#45;&gt;Node5 -->
<g id="edge4" class="edge">
<title>Node1&#45;&gt;Node5</title>
<path fill="none" stroke="#191970" d="M69.0598,-57.452C86.1552,-49.4554 111.464,-37.9469 134,-29 139.18,-26.9433 144.683,-24.8833 150.122,-22.9186"/>
<polygon fill="#191970" stroke="#191970" points="151.504,-26.1424 159.763,-19.5063 149.168,-19.5436 151.504,-26.1424"/>
</g>
</g>
</svg>
