<?xml version="1.0" encoding="UTF-8" standalone="no"?>
<!DOCTYPE svg PUBLIC "-//W3C//DTD SVG 1.1//EN"
 "http://www.w3.org/Graphics/SVG/1.1/DTD/svg11.dtd">
<!-- Generated by graphviz version 2.41.20170323.1842 (20170323.1842)
 -->
<!-- Title: mqtt_msg_unsubscribe Pages: 1 -->
<svg width="273pt" height="180pt"
 viewBox="0.00 0.00 273.00 180.00" xmlns="http://www.w3.org/2000/svg" xmlns:xlink="http://www.w3.org/1999/xlink">
<g id="graph0" class="graph" transform="scale(1 1) rotate(0) translate(4 176)">
<title>mqtt_msg_unsubscribe</title>
<polygon fill="#ffffff" stroke="transparent" points="-4,4 -4,-176 269,-176 269,4 -4,4"/>
<!-- Node392 -->
<g id="node1" class="node">
<title>Node392</title>
<polygon fill="#bfbfbf" stroke="#000000" points="0,-76.5 0,-95.5 120,-95.5 120,-76.5 0,-76.5"/>
<text text-anchor="middle" x="60" y="-83.5" font-family="Helvetica,sans-Serif" font-size="10.00" fill="#000000">mqtt_msg_unsubscribe</text>
</g>
<!-- Node393 -->
<g id="node2" class="node">
<title>Node393</title>
<g id="a_node2"><a xlink:href="mqtt__msg_8c.html#ac59e26babd30c6c0ace9a174e75786f3" target="_top" xlink:title="append_message_id">
<polygon fill="#ffffff" stroke="#000000" points="156,-152.5 156,-171.5 265,-171.5 265,-152.5 156,-152.5"/>
<text text-anchor="middle" x="210.5" y="-159.5" font-family="Helvetica,sans-Serif" font-size="10.00" fill="#000000">append_message_id</text>
</a>
</g>
</g>
<!-- Node392&#45;&gt;Node393 -->
<g id="edge1" class="edge">
<title>Node392&#45;&gt;Node393</title>
<path fill="none" stroke="#191970" d="M74.1433,-95.6276C92.4456,-107.7937 125.599,-128.8498 156,-143 160.423,-145.0587 165.1349,-147.0216 169.8659,-148.8506"/>
<polygon fill="#191970" stroke="#191970" points="168.9236,-152.2333 179.517,-152.4048 171.3427,-145.6646 168.9236,-152.2333"/>
</g>
<!-- Node394 -->
<g id="node3" class="node">
<title>Node394</title>
<g id="a_node3"><a xlink:href="mqtt__msg_8c.html#a207c99e2058080b97c21a348d693a560" target="_top" xlink:title="append_string">
<polygon fill="#ffffff" stroke="#000000" points="170.5,-114.5 170.5,-133.5 250.5,-133.5 250.5,-114.5 170.5,-114.5"/>
<text text-anchor="middle" x="210.5" y="-121.5" font-family="Helvetica,sans-Serif" font-size="10.00" fill="#000000">append_string</text>
</a>
</g>
</g>
<!-- Node392&#45;&gt;Node394 -->
<g id="edge2" class="edge">
<title>Node392&#45;&gt;Node394</title>
<path fill="none" stroke="#191970" d="M97.9775,-95.589C117.6587,-100.5583 141.8907,-106.6767 162.8206,-111.9613"/>
<polygon fill="#191970" stroke="#191970" points="162.243,-115.4253 172.7956,-114.4799 163.9567,-108.6383 162.243,-115.4253"/>
</g>
<!-- Node395 -->
<g id="node4" class="node">
<title>Node395</title>
<g id="a_node4"><a xlink:href="mqtt__msg_8c.html#a9a2fb8c67ff4b104dd46e72c9e97b710" target="_top" xlink:title="fail_message">
<polygon fill="#ffffff" stroke="#000000" points="173,-76.5 173,-95.5 248,-95.5 248,-76.5 173,-76.5"/>
<text text-anchor="middle" x="210.5" y="-83.5" font-family="Helvetica,sans-Serif" font-size="10.00" fill="#000000">fail_message</text>
</a>
</g>
</g>
<!-- Node392&#45;&gt;Node395 -->
<g id="edge3" class="edge">
<title>Node392&#45;&gt;Node395</title>
<path fill="none" stroke="#191970" d="M120.3469,-86C134.2849,-86 148.9335,-86 162.2751,-86"/>
<polygon fill="#191970" stroke="#191970" points="162.6561,-89.5001 172.6561,-86 162.656,-82.5001 162.6561,-89.5001"/>
</g>
<!-- Node396 -->
<g id="node5" class="node">
<title>Node396</title>
<g id="a_node5"><a xlink:href="mqtt__msg_8c.html#a356949afe8a334d5e91bddb4b2794921" target="_top" xlink:title="fini_message">
<polygon fill="#ffffff" stroke="#000000" points="173,-38.5 173,-57.5 248,-57.5 248,-38.5 173,-38.5"/>
<text text-anchor="middle" x="210.5" y="-45.5" font-family="Helvetica,sans-Serif" font-size="10.00" fill="#000000">fini_message</text>
</a>
</g>
</g>
<!-- Node392&#45;&gt;Node396 -->
<g id="edge4" class="edge">
<title>Node392&#45;&gt;Node396</title>
<path fill="none" stroke="#191970" d="M97.9775,-76.411C117.6587,-71.4417 141.8907,-65.3233 162.8206,-60.0387"/>
<polygon fill="#191970" stroke="#191970" points="163.9567,-63.3617 172.7956,-57.5201 162.243,-56.5747 163.9567,-63.3617"/>
</g>
<!-- Node397 -->
<g id="node6" class="node">
<title>Node397</title>
<g id="a_node6"><a xlink:href="mqtt__msg_8c.html#aae7c66cc577ac90e9535edac4abc068c" target="_top" xlink:title="init_message">
<polygon fill="#ffffff" stroke="#000000" points="173,-.5 173,-19.5 248,-19.5 248,-.5 173,-.5"/>
<text text-anchor="middle" x="210.5" y="-7.5" font-family="Helvetica,sans-Serif" font-size="10.00" fill="#000000">init_message</text>
</a>
</g>
</g>
<!-- Node392&#45;&gt;Node397 -->
<g id="edge5" class="edge">
<title>Node392&#45;&gt;Node397</title>
<path fill="none" stroke="#191970" d="M74.1433,-76.3724C92.4456,-64.2063 125.599,-43.1502 156,-29 160.423,-26.9413 165.1349,-24.9784 169.8659,-23.1494"/>
<polygon fill="#191970" stroke="#191970" points="171.3427,-26.3354 179.517,-19.5952 168.9236,-19.7667 171.3427,-26.3354"/>
</g>
</g>
</svg>
