<?xml version="1.0" encoding="UTF-8" standalone="no"?>
<!DOCTYPE svg PUBLIC "-//W3C//DTD SVG 1.1//EN"
 "http://www.w3.org/Graphics/SVG/1.1/DTD/svg11.dtd">
<!-- Generated by graphviz version 2.41.20170323.1842 (20170323.1842)
 -->
<!-- Title: mqtt_tcpclient_recv Pages: 1 -->
<svg width="1029pt" height="66pt"
 viewBox="0.00 0.00 1029.00 66.00" xmlns="http://www.w3.org/2000/svg" xmlns:xlink="http://www.w3.org/1999/xlink">
<g id="graph0" class="graph" transform="scale(1 1) rotate(0) translate(4 62)">
<title>mqtt_tcpclient_recv</title>
<polygon fill="#ffffff" stroke="transparent" points="-4,4 -4,-62 1025,-62 1025,4 -4,4"/>
<!-- Node379 -->
<g id="node1" class="node">
<title>Node379</title>
<polygon fill="#bfbfbf" stroke="#000000" points="0,-19.5 0,-38.5 103,-38.5 103,-19.5 0,-19.5"/>
<text text-anchor="middle" x="51.5" y="-26.5" font-family="Helvetica,sans-Serif" font-size="10.00" fill="#000000">mqtt_tcpclient_recv</text>
</g>
<!-- Node380 -->
<g id="node2" class="node">
<title>Node380</title>
<g id="a_node2"><a xlink:href="mqtt_8c.html#a36ecd969af1b9c87856f01be064a98cc" target="_top" xlink:title="Tcp client connect success callback function. ">
<polygon fill="#ffffff" stroke="#000000" points="139,-19.5 139,-38.5 274,-38.5 274,-19.5 139,-19.5"/>
<text text-anchor="middle" x="206.5" y="-26.5" font-family="Helvetica,sans-Serif" font-size="10.00" fill="#000000">mqtt_tcpclient_connect_cb</text>
</a>
</g>
</g>
<!-- Node379&#45;&gt;Node380 -->
<g id="edge1" class="edge">
<title>Node379&#45;&gt;Node380</title>
<path fill="none" stroke="#191970" d="M113.226,-29C121.6456,-29 130.3246,-29 138.8424,-29"/>
<polygon fill="#191970" stroke="#191970" points="113.1128,-25.5001 103.1128,-29 113.1127,-32.5001 113.1128,-25.5001"/>
</g>
<!-- Node381 -->
<g id="node3" class="node">
<title>Node381</title>
<g id="a_node3"><a xlink:href="mqtt_8c.html#ad34b681cb2f7473d8fc786c7ed468db5" target="_top" xlink:title="Begin connect to MQTT broker. ">
<polygon fill="#ffffff" stroke="#000000" points="310,-19.5 310,-38.5 398,-38.5 398,-19.5 310,-19.5"/>
<text text-anchor="middle" x="354" y="-26.5" font-family="Helvetica,sans-Serif" font-size="10.00" fill="#000000">MQTT_Connect</text>
</a>
</g>
</g>
<!-- Node380&#45;&gt;Node381 -->
<g id="edge2" class="edge">
<title>Node380&#45;&gt;Node381</title>
<path fill="none" stroke="#191970" d="M284.4528,-29C293.1756,-29 301.8197,-29 309.895,-29"/>
<polygon fill="#191970" stroke="#191970" points="284.2063,-25.5001 274.2062,-29 284.2062,-32.5001 284.2063,-25.5001"/>
</g>
<!-- Node382 -->
<g id="node4" class="node">
<title>Node382</title>
<g id="a_node4"><a xlink:href="mqtt_8c.html#a9d88fa6efb9163d4dbf9dc750a8d4ed0" target="_top" xlink:title="MQTT_Task">
<polygon fill="#ffffff" stroke="#000000" points="434,-38.5 434,-57.5 506,-57.5 506,-38.5 434,-38.5"/>
<text text-anchor="middle" x="470" y="-45.5" font-family="Helvetica,sans-Serif" font-size="10.00" fill="#000000">MQTT_Task</text>
</a>
</g>
</g>
<!-- Node381&#45;&gt;Node382 -->
<g id="edge3" class="edge">
<title>Node381&#45;&gt;Node382</title>
<path fill="none" stroke="#191970" d="M408.2705,-37.8891C416.9449,-39.3099 425.731,-40.749 433.8484,-42.0786"/>
<polygon fill="#191970" stroke="#191970" points="408.6198,-34.3998 398.1855,-36.2373 407.4883,-41.3077 408.6198,-34.3998"/>
</g>
<!-- Node387 -->
<g id="node9" class="node">
<title>Node387</title>
<g id="a_node9"><a xlink:href="user__main_8h.html#a7a3bf0cc09d98adc72f4e34d26ce3fa1" target="_top" xlink:title="wifi_changed_cb">
<polygon fill="#ffffff" stroke="#000000" points="542,-.5 542,-19.5 633,-19.5 633,-.5 542,-.5"/>
<text text-anchor="middle" x="587.5" y="-7.5" font-family="Helvetica,sans-Serif" font-size="10.00" fill="#000000">wifi_changed_cb</text>
</a>
</g>
</g>
<!-- Node381&#45;&gt;Node387 -->
<g id="edge8" class="edge">
<title>Node381&#45;&gt;Node387</title>
<path fill="none" stroke="#191970" d="M408.1768,-24.5916C448.7275,-21.292 503.5728,-16.8292 541.8925,-13.7111"/>
<polygon fill="#191970" stroke="#191970" points="407.8772,-21.1043 398.1941,-25.4039 408.445,-28.0813 407.8772,-21.1043"/>
</g>
<!-- Node383 -->
<g id="node5" class="node">
<title>Node383</title>
<g id="a_node5"><a xlink:href="mqtt_8c.html#a25cb7ac079d1d119250dac075c45acf1" target="_top" xlink:title="MQTT initialization mqtt client function. ">
<polygon fill="#ffffff" stroke="#000000" points="543,-38.5 543,-57.5 632,-57.5 632,-38.5 543,-38.5"/>
<text text-anchor="middle" x="587.5" y="-45.5" font-family="Helvetica,sans-Serif" font-size="10.00" fill="#000000">MQTT_InitClient</text>
</a>
</g>
</g>
<!-- Node382&#45;&gt;Node383 -->
<g id="edge4" class="edge">
<title>Node382&#45;&gt;Node383</title>
<path fill="none" stroke="#191970" d="M516.2765,-48C525.0438,-48 534.1996,-48 542.9134,-48"/>
<polygon fill="#191970" stroke="#191970" points="516.2127,-44.5001 506.2126,-48 516.2126,-51.5001 516.2127,-44.5001"/>
</g>
<!-- Node384 -->
<g id="node6" class="node">
<title>Node384</title>
<g id="a_node6"><a xlink:href="user__main_8c.html#a245ec00253f410a8804988bf40e1037e" target="_top" xlink:title="sample_mode_timer_func">
<polygon fill="#ffffff" stroke="#000000" points="669,-19.5 669,-38.5 801,-38.5 801,-19.5 669,-19.5"/>
<text text-anchor="middle" x="735" y="-26.5" font-family="Helvetica,sans-Serif" font-size="10.00" fill="#000000">sample_mode_timer_func</text>
</a>
</g>
</g>
<!-- Node383&#45;&gt;Node384 -->
<g id="edge5" class="edge">
<title>Node383&#45;&gt;Node384</title>
<path fill="none" stroke="#191970" d="M642.1965,-40.9544C650.9273,-39.8297 660.0405,-38.6558 668.9995,-37.5018"/>
<polygon fill="#191970" stroke="#191970" points="641.626,-37.4988 632.1551,-42.2478 642.5204,-44.4415 641.626,-37.4988"/>
</g>
<!-- Node385 -->
<g id="node7" class="node">
<title>Node385</title>
<g id="a_node7"><a xlink:href="user__main_8h.html#a3671381db669a16e8f6a4bf3dfb9a441" target="_top" xlink:title="system_init_done">
<polygon fill="#ffffff" stroke="#000000" points="837,-19.5 837,-38.5 931,-38.5 931,-19.5 837,-19.5"/>
<text text-anchor="middle" x="884" y="-26.5" font-family="Helvetica,sans-Serif" font-size="10.00" fill="#000000">system_init_done</text>
</a>
</g>
</g>
<!-- Node384&#45;&gt;Node385 -->
<g id="edge6" class="edge">
<title>Node384&#45;&gt;Node385</title>
<path fill="none" stroke="#191970" d="M811.361,-29C820.0092,-29 828.624,-29 836.7387,-29"/>
<polygon fill="#191970" stroke="#191970" points="811.2213,-25.5001 801.2213,-29 811.2212,-32.5001 811.2213,-25.5001"/>
</g>
<!-- Node386 -->
<g id="node8" class="node">
<title>Node386</title>
<g id="a_node8"><a xlink:href="user__main_8h.html#a33113d6dedb440bd7dfa5576e325140c" target="_top" xlink:title="user_init">
<polygon fill="#ffffff" stroke="#000000" points="967,-19.5 967,-38.5 1021,-38.5 1021,-19.5 967,-19.5"/>
<text text-anchor="middle" x="994" y="-26.5" font-family="Helvetica,sans-Serif" font-size="10.00" fill="#000000">user_init</text>
</a>
</g>
</g>
<!-- Node385&#45;&gt;Node386 -->
<g id="edge7" class="edge">
<title>Node385&#45;&gt;Node386</title>
<path fill="none" stroke="#191970" d="M941.2886,-29C950.1598,-29 958.9515,-29 966.7383,-29"/>
<polygon fill="#191970" stroke="#191970" points="941.2883,-25.5001 931.2883,-29 941.2882,-32.5001 941.2883,-25.5001"/>
</g>
<!-- Node387&#45;&gt;Node384 -->
<g id="edge9" class="edge">
<title>Node387&#45;&gt;Node384</title>
<path fill="none" stroke="#191970" d="M643.3385,-17.1928C651.6756,-18.2667 660.3377,-19.3825 668.8626,-20.4806"/>
<polygon fill="#191970" stroke="#191970" points="643.7266,-13.7139 633.3614,-15.9076 642.8323,-20.6566 643.7266,-13.7139"/>
</g>
</g>
</svg>
