<?xml version="1.0" encoding="UTF-8" standalone="no"?>
<!DOCTYPE svg PUBLIC "-//W3C//DTD SVG 1.1//EN"
 "http://www.w3.org/Graphics/SVG/1.1/DTD/svg11.dtd">
<!-- Generated by graphviz version 2.39.20160927.1334 (20160927.1334)
 -->
<!-- Title: mqtt_msg_subscribe Pages: 1 -->
<svg width="769pt" height="28pt"
 viewBox="0.00 0.00 769.00 28.00" xmlns="http://www.w3.org/2000/svg" xmlns:xlink="http://www.w3.org/1999/xlink">
<g id="graph0" class="graph" transform="scale(1 1) rotate(0) translate(4 24)">
<title>mqtt_msg_subscribe</title>
<polygon fill="#ffffff" stroke="transparent" points="-4,4 -4,-24 765,-24 765,4 -4,4"/>
<!-- Node1 -->
<g id="node1" class="node">
<title>Node1</title>
<polygon fill="#bfbfbf" stroke="#000000" points="0,-0.5 0,-19.5 109,-19.5 109,-0.5 0,-0.5"/>
<text text-anchor="middle" x="54.5" y="-7.5" font-family="Helvetica,sans-Serif" font-size="10.00" fill="#000000">mqtt_msg_subscribe</text>
</g>
<!-- Node2 -->
<g id="node2" class="node">
<title>Node2</title>
<g id="a_node2"><a xlink:href="mqtt_8c.html#a86f8adfe29d6ec8bb5070fd030540d2f" target="_top" xlink:title="MQTT subscibe function. ">
<polygon fill="#ffffff" stroke="#000000" points="145,-0.5 145,-19.5 240,-19.5 240,-0.5 145,-0.5"/>
<text text-anchor="middle" x="192.5" y="-7.5" font-family="Helvetica,sans-Serif" font-size="10.00" fill="#000000">MQTT_Subscribe</text>
</a>
</g>
</g>
<!-- Node1&#45;&gt;Node2 -->
<g id="edge1" class="edge">
<title>Node1&#45;&gt;Node2</title>
<path fill="none" stroke="#191970" d="M119.065,-10C127.666,-10 136.361,-10 144.609,-10"/>
<polygon fill="#191970" stroke="#191970" points="119.041,-6.5001 109.041,-10 119.041,-13.5001 119.041,-6.5001"/>
</g>
<!-- Node3 -->
<g id="node3" class="node">
<title>Node3</title>
<g id="a_node3"><a xlink:href="user__main_8h.html#a06f2b383d99fcad9d0f37d1ca2224898" target="_top" xlink:title="mqttConnectedCb">
<polygon fill="#ffffff" stroke="#000000" points="276,-0.5 276,-19.5 373,-19.5 373,-0.5 276,-0.5"/>
<text text-anchor="middle" x="324.5" y="-7.5" font-family="Helvetica,sans-Serif" font-size="10.00" fill="#000000">mqttConnectedCb</text>
</a>
</g>
</g>
<!-- Node2&#45;&gt;Node3 -->
<g id="edge2" class="edge">
<title>Node2&#45;&gt;Node3</title>
<path fill="none" stroke="#191970" d="M250.31,-10C258.741,-10 267.352,-10 275.583,-10"/>
<polygon fill="#191970" stroke="#191970" points="250.155,-6.5001 240.155,-10 250.155,-13.5001 250.155,-6.5001"/>
</g>
<!-- Node4 -->
<g id="node4" class="node">
<title>Node4</title>
<g id="a_node4"><a xlink:href="user__main_8c.html#a245ec00253f410a8804988bf40e1037e" target="_top" xlink:title="sample_mode_timer_func">
<polygon fill="#ffffff" stroke="#000000" points="409,-0.5 409,-19.5 541,-19.5 541,-0.5 409,-0.5"/>
<text text-anchor="middle" x="475" y="-7.5" font-family="Helvetica,sans-Serif" font-size="10.00" fill="#000000">sample_mode_timer_func</text>
</a>
</g>
</g>
<!-- Node3&#45;&gt;Node4 -->
<g id="edge3" class="edge">
<title>Node3&#45;&gt;Node4</title>
<path fill="none" stroke="#191970" d="M383.387,-10C391.745,-10 400.385,-10 408.869,-10"/>
<polygon fill="#191970" stroke="#191970" points="383.363,-6.5001 373.363,-10 383.363,-13.5001 383.363,-6.5001"/>
</g>
<!-- Node5 -->
<g id="node5" class="node">
<title>Node5</title>
<g id="a_node5"><a xlink:href="user__main_8h.html#a3671381db669a16e8f6a4bf3dfb9a441" target="_top" xlink:title="system_init_done">
<polygon fill="#ffffff" stroke="#000000" points="577,-0.5 577,-19.5 671,-19.5 671,-0.5 577,-0.5"/>
<text text-anchor="middle" x="624" y="-7.5" font-family="Helvetica,sans-Serif" font-size="10.00" fill="#000000">system_init_done</text>
</a>
</g>
</g>
<!-- Node4&#45;&gt;Node5 -->
<g id="edge4" class="edge">
<title>Node4&#45;&gt;Node5</title>
<path fill="none" stroke="#191970" d="M551.361,-10C560.009,-10 568.624,-10 576.739,-10"/>
<polygon fill="#191970" stroke="#191970" points="551.221,-6.5001 541.221,-10 551.221,-13.5001 551.221,-6.5001"/>
</g>
<!-- Node6 -->
<g id="node6" class="node">
<title>Node6</title>
<g id="a_node6"><a xlink:href="user__main_8h.html#a33113d6dedb440bd7dfa5576e325140c" target="_top" xlink:title="user_init">
<polygon fill="#ffffff" stroke="#000000" points="707,-0.5 707,-19.5 761,-19.5 761,-0.5 707,-0.5"/>
<text text-anchor="middle" x="734" y="-7.5" font-family="Helvetica,sans-Serif" font-size="10.00" fill="#000000">user_init</text>
</a>
</g>
</g>
<!-- Node5&#45;&gt;Node6 -->
<g id="edge5" class="edge">
<title>Node5&#45;&gt;Node6</title>
<path fill="none" stroke="#191970" d="M681.289,-10C690.16,-10 698.952,-10 706.738,-10"/>
<polygon fill="#191970" stroke="#191970" points="681.288,-6.5001 671.288,-10 681.288,-13.5001 681.288,-6.5001"/>
</g>
</g>
</svg>
