<?xml version="1.0" encoding="UTF-8" standalone="no"?>
<!DOCTYPE svg PUBLIC "-//W3C//DTD SVG 1.1//EN"
 "http://www.w3.org/Graphics/SVG/1.1/DTD/svg11.dtd">
<!-- Generated by graphviz version 2.39.20160927.1334 (20160927.1334)
 -->
<!-- Title: init_message Pages: 1 -->
<svg width="1408pt" height="569pt"
 viewBox="0.00 0.00 1408.00 569.00" xmlns="http://www.w3.org/2000/svg" xmlns:xlink="http://www.w3.org/1999/xlink">
<g id="graph0" class="graph" transform="scale(1 1) rotate(0) translate(4 565)">
<title>init_message</title>
<polygon fill="#ffffff" stroke="transparent" points="-4,4 -4,-565 1404,-565 1404,4 -4,4"/>
<!-- Node1 -->
<g id="node1" class="node">
<title>Node1</title>
<polygon fill="#bfbfbf" stroke="#000000" points="0,-351.5 0,-370.5 75,-370.5 75,-351.5 0,-351.5"/>
<text text-anchor="middle" x="37.5" y="-358.5" font-family="Helvetica,sans-Serif" font-size="10.00" fill="#000000">init_message</text>
</g>
<!-- Node2 -->
<g id="node2" class="node">
<title>Node2</title>
<g id="a_node2"><a xlink:href="mqtt__msg_8c.html#a5e7a532d6f04c0d443701ba44fdf2e2d" target="_top" xlink:title="mqtt_msg_connect">
<polygon fill="#ffffff" stroke="#000000" points="271,-351.5 271,-370.5 372,-370.5 372,-351.5 271,-351.5"/>
<text text-anchor="middle" x="321.5" y="-358.5" font-family="Helvetica,sans-Serif" font-size="10.00" fill="#000000">mqtt_msg_connect</text>
</a>
</g>
</g>
<!-- Node1&#45;&gt;Node2 -->
<g id="edge1" class="edge">
<title>Node1&#45;&gt;Node2</title>
<path fill="none" stroke="#191970" d="M76.909,-348.859C87.8413,-346.028 99.7885,-343.426 111,-342 163.907,-335.272 177.952,-336.491 231,-342 248.885,-343.857 268.443,-347.726 284.786,-351.491"/>
<polygon fill="#191970" stroke="#191970" points="75.9372,-345.496 67.2048,-351.496 77.7727,-352.251 75.9372,-345.496"/>
</g>
<!-- Node11 -->
<g id="node11" class="node">
<title>Node11</title>
<g id="a_node11"><a xlink:href="mqtt__msg_8c.html#a73d5196990e37518bc236d279c85f226" target="_top" xlink:title="mqtt_msg_disconnect">
<polygon fill="#ffffff" stroke="#000000" points="114,-503.5 114,-522.5 228,-522.5 228,-503.5 114,-503.5"/>
<text text-anchor="middle" x="171" y="-510.5" font-family="Helvetica,sans-Serif" font-size="10.00" fill="#000000">mqtt_msg_disconnect</text>
</a>
</g>
</g>
<!-- Node1&#45;&gt;Node11 -->
<g id="edge11" class="edge">
<title>Node1&#45;&gt;Node11</title>
<path fill="none" stroke="#191970" d="M43.0972,-380.394C52.4296,-409.321 73.9018,-463.611 111,-494 115.733,-497.877 121.267,-500.968 127.024,-503.43"/>
<polygon fill="#191970" stroke="#191970" points="46.3874,-379.185 40.1076,-370.652 39.6955,-381.239 46.3874,-379.185"/>
</g>
<!-- Node12 -->
<g id="node12" class="node">
<title>Node12</title>
<g id="a_node12"><a xlink:href="mqtt__msg_8c.html#ac73ae82d9f6a21f084802c1b0a8def42" target="_top" xlink:title="mqtt_msg_pingreq">
<polygon fill="#ffffff" stroke="#000000" points="430,-237.5 430,-256.5 529,-256.5 529,-237.5 430,-237.5"/>
<text text-anchor="middle" x="479.5" y="-244.5" font-family="Helvetica,sans-Serif" font-size="10.00" fill="#000000">mqtt_msg_pingreq</text>
</a>
</g>
</g>
<!-- Node1&#45;&gt;Node12 -->
<g id="edge12" class="edge">
<title>Node1&#45;&gt;Node12</title>
<path fill="none" stroke="#191970" d="M54.3128,-344.117C68.2863,-331.098 89.3238,-313.725 111,-304 217.464,-256.237 356.693,-247.476 429.766,-246.473"/>
<polygon fill="#191970" stroke="#191970" points="51.7382,-341.737 46.9503,-351.188 56.5871,-346.785 51.7382,-341.737"/>
</g>
<!-- Node17 -->
<g id="node17" class="node">
<title>Node17</title>
<g id="a_node17"><a xlink:href="mqtt__msg_8c.html#a817f94301186a136c08abe582ca82401" target="_top" xlink:title="mqtt_msg_pingresp">
<polygon fill="#ffffff" stroke="#000000" points="119,-427.5 119,-446.5 223,-446.5 223,-427.5 119,-427.5"/>
<text text-anchor="middle" x="171" y="-434.5" font-family="Helvetica,sans-Serif" font-size="10.00" fill="#000000">mqtt_msg_pingresp</text>
</a>
</g>
</g>
<!-- Node1&#45;&gt;Node17 -->
<g id="edge19" class="edge">
<title>Node1&#45;&gt;Node17</title>
<path fill="none" stroke="#191970" d="M55.1448,-377.603C69.3093,-390.175 90.2008,-407.088 111,-418 118.063,-421.706 125.977,-424.843 133.682,-427.434"/>
<polygon fill="#191970" stroke="#191970" points="57.3893,-374.913 47.6339,-370.78 52.6827,-380.095 57.3893,-374.913"/>
</g>
<!-- Node19 -->
<g id="node19" class="node">
<title>Node19</title>
<g id="a_node19"><a xlink:href="mqtt__msg_8c.html#a203f5abf687140e00cbe5ceb271ae2a9" target="_top" xlink:title="mqtt_msg_puback">
<polygon fill="#ffffff" stroke="#000000" points="122,-389.5 122,-408.5 220,-408.5 220,-389.5 122,-389.5"/>
<text text-anchor="middle" x="171" y="-396.5" font-family="Helvetica,sans-Serif" font-size="10.00" fill="#000000">mqtt_msg_puback</text>
</a>
</g>
</g>
<!-- Node1&#45;&gt;Node19 -->
<g id="edge22" class="edge">
<title>Node1&#45;&gt;Node19</title>
<path fill="none" stroke="#191970" d="M81.03,-373.391C99.3122,-378.594 120.249,-384.554 137.323,-389.414"/>
<polygon fill="#191970" stroke="#191970" points="81.7639,-369.96 71.1877,-370.589 79.8474,-376.693 81.7639,-369.96"/>
</g>
<!-- Node20 -->
<g id="node20" class="node">
<title>Node20</title>
<g id="a_node20"><a xlink:href="mqtt__msg_8c.html#a6ddf7abb65c3c9006ffb1c4cf72f4980" target="_top" xlink:title="mqtt_msg_pubcomp">
<polygon fill="#ffffff" stroke="#000000" points="117.5,-351.5 117.5,-370.5 224.5,-370.5 224.5,-351.5 117.5,-351.5"/>
<text text-anchor="middle" x="171" y="-358.5" font-family="Helvetica,sans-Serif" font-size="10.00" fill="#000000">mqtt_msg_pubcomp</text>
</a>
</g>
</g>
<!-- Node1&#45;&gt;Node20 -->
<g id="edge24" class="edge">
<title>Node1&#45;&gt;Node20</title>
<path fill="none" stroke="#191970" d="M85.1845,-361C95.5936,-361 106.678,-361 117.303,-361"/>
<polygon fill="#191970" stroke="#191970" points="85.0425,-357.5 75.0425,-361 85.0424,-364.5 85.0425,-357.5"/>
</g>
<!-- Node21 -->
<g id="node21" class="node">
<title>Node21</title>
<g id="a_node21"><a xlink:href="mqtt__msg_8c.html#af16842423fc1d5d802a7f329fc3a9ef9" target="_top" xlink:title="mqtt_msg_publish">
<polygon fill="#ffffff" stroke="#000000" points="272.5,-199.5 272.5,-218.5 370.5,-218.5 370.5,-199.5 272.5,-199.5"/>
<text text-anchor="middle" x="321.5" y="-206.5" font-family="Helvetica,sans-Serif" font-size="10.00" fill="#000000">mqtt_msg_publish</text>
</a>
</g>
</g>
<!-- Node1&#45;&gt;Node21 -->
<g id="edge26" class="edge">
<title>Node1&#45;&gt;Node21</title>
<path fill="none" stroke="#191970" d="M42.6368,-341.413C51.371,-312.374 72.076,-258.587 111,-233 158.948,-201.481 226.626,-199.464 272.183,-202.697"/>
<polygon fill="#191970" stroke="#191970" points="39.2168,-340.644 39.8624,-351.22 45.9525,-342.55 39.2168,-340.644"/>
</g>
<!-- Node32 -->
<g id="node32" class="node">
<title>Node32</title>
<g id="a_node32"><a xlink:href="mqtt__msg_8c.html#a9a9bb0b46778aeeea9ed48a37de31232" target="_top" xlink:title="mqtt_msg_pubrec">
<polygon fill="#ffffff" stroke="#000000" points="122.5,-541.5 122.5,-560.5 219.5,-560.5 219.5,-541.5 122.5,-541.5"/>
<text text-anchor="middle" x="171" y="-548.5" font-family="Helvetica,sans-Serif" font-size="10.00" fill="#000000">mqtt_msg_pubrec</text>
</a>
</g>
</g>
<!-- Node1&#45;&gt;Node32 -->
<g id="edge46" class="edge">
<title>Node1&#45;&gt;Node32</title>
<path fill="none" stroke="#191970" d="M40.5212,-380.8C46.9684,-416.251 65.3914,-490.708 111,-532 115.293,-535.887 120.38,-538.978 125.749,-541.438"/>
<polygon fill="#191970" stroke="#191970" points="43.9413,-380.032 38.8295,-370.752 37.0384,-381.194 43.9413,-380.032"/>
</g>
<!-- Node33 -->
<g id="node33" class="node">
<title>Node33</title>
<g id="a_node33"><a xlink:href="mqtt__msg_8c.html#a144bc05ddeb251c82e48ed31d2cf16fb" target="_top" xlink:title="mqtt_msg_pubrel">
<polygon fill="#ffffff" stroke="#000000" points="124,-465.5 124,-484.5 218,-484.5 218,-465.5 124,-465.5"/>
<text text-anchor="middle" x="171" y="-472.5" font-family="Helvetica,sans-Serif" font-size="10.00" fill="#000000">mqtt_msg_pubrel</text>
</a>
</g>
</g>
<!-- Node1&#45;&gt;Node33 -->
<g id="edge48" class="edge">
<title>Node1&#45;&gt;Node33</title>
<path fill="none" stroke="#191970" d="M47.1629,-379.43C59.3006,-400.844 82.0867,-435.814 111,-456 116.555,-459.878 122.938,-462.992 129.423,-465.485"/>
<polygon fill="#191970" stroke="#191970" points="50.2254,-377.735 42.3516,-370.646 44.0861,-381.098 50.2254,-377.735"/>
</g>
<!-- Node34 -->
<g id="node34" class="node">
<title>Node34</title>
<g id="a_node34"><a xlink:href="mqtt__msg_8c.html#adff62ede8c5069101032913d4434baad" target="_top" xlink:title="mqtt_msg_subscribe">
<polygon fill="#ffffff" stroke="#000000" points="267,-284.5 267,-303.5 376,-303.5 376,-284.5 267,-284.5"/>
<text text-anchor="middle" x="321.5" y="-291.5" font-family="Helvetica,sans-Serif" font-size="10.00" fill="#000000">mqtt_msg_subscribe</text>
</a>
</g>
</g>
<!-- Node1&#45;&gt;Node34 -->
<g id="edge50" class="edge">
<title>Node1&#45;&gt;Node34</title>
<path fill="none" stroke="#191970" d="M70.2846,-347.647C82.8674,-342.87 97.4569,-337.747 111,-334 163.165,-319.568 224.031,-308.62 266.857,-301.857"/>
<polygon fill="#191970" stroke="#191970" points="68.7398,-344.492 60.6819,-351.371 71.2709,-351.018 68.7398,-344.492"/>
</g>
<!-- Node36 -->
<g id="node36" class="node">
<title>Node36</title>
<g id="a_node36"><a xlink:href="mqtt__msg_8c.html#a5b329f56f9757307102a494232b2cf92" target="_top" xlink:title="mqtt_msg_unsubscribe">
<polygon fill="#ffffff" stroke="#000000" points="111,-161.5 111,-180.5 231,-180.5 231,-161.5 111,-161.5"/>
<text text-anchor="middle" x="171" y="-168.5" font-family="Helvetica,sans-Serif" font-size="10.00" fill="#000000">mqtt_msg_unsubscribe</text>
</a>
</g>
</g>
<!-- Node1&#45;&gt;Node36 -->
<g id="edge53" class="edge">
<title>Node1&#45;&gt;Node36</title>
<path fill="none" stroke="#191970" d="M41.1952,-341.159C48.5615,-306.878 68.1948,-236.278 111,-195 117.461,-188.77 125.743,-184.09 134.077,-180.599"/>
<polygon fill="#191970" stroke="#191970" points="37.6967,-340.803 39.1516,-351.297 44.5587,-342.186 37.6967,-340.803"/>
</g>
<!-- Node3 -->
<g id="node3" class="node">
<title>Node3</title>
<g id="a_node3"><a xlink:href="mqtt_8c.html#a36ecd969af1b9c87856f01be064a98cc" target="_top" xlink:title="Tcp client connect success callback function. ">
<polygon fill="#ffffff" stroke="#000000" points="412,-380.5 412,-399.5 547,-399.5 547,-380.5 412,-380.5"/>
<text text-anchor="middle" x="479.5" y="-387.5" font-family="Helvetica,sans-Serif" font-size="10.00" fill="#000000">mqtt_tcpclient_connect_cb</text>
</a>
</g>
</g>
<!-- Node2&#45;&gt;Node3 -->
<g id="edge2" class="edge">
<title>Node2&#45;&gt;Node3</title>
<path fill="none" stroke="#191970" d="M382.508,-372.198C397.412,-374.933 413.218,-377.834 427.649,-380.483"/>
<polygon fill="#191970" stroke="#191970" points="382.829,-368.698 372.362,-370.335 381.566,-375.583 382.829,-368.698"/>
</g>
<!-- Node4 -->
<g id="node4" class="node">
<title>Node4</title>
<g id="a_node4"><a xlink:href="mqtt_8c.html#ad34b681cb2f7473d8fc786c7ed468db5" target="_top" xlink:title="Begin connect to MQTT broker. ">
<polygon fill="#ffffff" stroke="#000000" points="600,-380.5 600,-399.5 688,-399.5 688,-380.5 600,-380.5"/>
<text text-anchor="middle" x="644" y="-387.5" font-family="Helvetica,sans-Serif" font-size="10.00" fill="#000000">MQTT_Connect</text>
</a>
</g>
</g>
<!-- Node3&#45;&gt;Node4 -->
<g id="edge3" class="edge">
<title>Node3&#45;&gt;Node4</title>
<path fill="none" stroke="#191970" d="M557.389,-390C571.953,-390 586.699,-390 599.795,-390"/>
<polygon fill="#191970" stroke="#191970" points="557.358,-386.5 547.358,-390 557.358,-393.5 557.358,-386.5"/>
</g>
<!-- Node5 -->
<g id="node5" class="node">
<title>Node5</title>
<g id="a_node5"><a xlink:href="mqtt_8c.html#a9d88fa6efb9163d4dbf9dc750a8d4ed0" target="_top" xlink:title="MQTT_Task">
<polygon fill="#ffffff" stroke="#000000" points="761,-361.5 761,-380.5 833,-380.5 833,-361.5 761,-361.5"/>
<text text-anchor="middle" x="797" y="-368.5" font-family="Helvetica,sans-Serif" font-size="10.00" fill="#000000">MQTT_Task</text>
</a>
</g>
</g>
<!-- Node4&#45;&gt;Node5 -->
<g id="edge4" class="edge">
<title>Node4&#45;&gt;Node5</title>
<path fill="none" stroke="#191970" d="M698.186,-383.271C718.868,-380.703 741.935,-377.838 760.577,-375.523"/>
<polygon fill="#191970" stroke="#191970" points="697.746,-379.799 688.254,-384.504 698.609,-386.745 697.746,-379.799"/>
</g>
<!-- Node10 -->
<g id="node10" class="node">
<title>Node10</title>
<g id="a_node10"><a xlink:href="user__main_8h.html#a7a3bf0cc09d98adc72f4e34d26ce3fa1" target="_top" xlink:title="wifi_changed_cb">
<polygon fill="#ffffff" stroke="#000000" points="751.5,-399.5 751.5,-418.5 842.5,-418.5 842.5,-399.5 751.5,-399.5"/>
<text text-anchor="middle" x="797" y="-406.5" font-family="Helvetica,sans-Serif" font-size="10.00" fill="#000000">wifi_changed_cb</text>
</a>
</g>
</g>
<!-- Node4&#45;&gt;Node10 -->
<g id="edge9" class="edge">
<title>Node4&#45;&gt;Node10</title>
<path fill="none" stroke="#191970" d="M698.238,-396.735C715.574,-398.888 734.581,-401.249 751.25,-403.319"/>
<polygon fill="#191970" stroke="#191970" points="698.609,-393.255 688.254,-395.496 697.746,-400.201 698.609,-393.255"/>
</g>
<!-- Node6 -->
<g id="node6" class="node">
<title>Node6</title>
<g id="a_node6"><a xlink:href="mqtt_8c.html#a25cb7ac079d1d119250dac075c45acf1" target="_top" xlink:title="MQTT initialization mqtt client function. ">
<polygon fill="#ffffff" stroke="#000000" points="906,-332.5 906,-351.5 995,-351.5 995,-332.5 906,-332.5"/>
<text text-anchor="middle" x="950.5" y="-339.5" font-family="Helvetica,sans-Serif" font-size="10.00" fill="#000000">MQTT_InitClient</text>
</a>
</g>
</g>
<!-- Node5&#45;&gt;Node6 -->
<g id="edge5" class="edge">
<title>Node5&#45;&gt;Node6</title>
<path fill="none" stroke="#191970" d="M843.413,-362.231C863.233,-358.487 886.269,-354.135 905.887,-350.428"/>
<polygon fill="#191970" stroke="#191970" points="842.554,-358.832 833.377,-364.127 843.853,-365.71 842.554,-358.832"/>
</g>
<!-- Node7 -->
<g id="node7" class="node">
<title>Node7</title>
<g id="a_node7"><a xlink:href="user__main_8c.html#a245ec00253f410a8804988bf40e1037e" target="_top" xlink:title="sample_mode_timer_func">
<polygon fill="#ffffff" stroke="#000000" points="1048,-266.5 1048,-285.5 1180,-285.5 1180,-266.5 1048,-266.5"/>
<text text-anchor="middle" x="1114" y="-273.5" font-family="Helvetica,sans-Serif" font-size="10.00" fill="#000000">sample_mode_timer_func</text>
</a>
</g>
</g>
<!-- Node6&#45;&gt;Node7 -->
<g id="edge6" class="edge">
<title>Node6&#45;&gt;Node7</title>
<path fill="none" stroke="#191970" d="M983.587,-328.644C1015.31,-315.839 1062.4,-296.831 1090.46,-285.501"/>
<polygon fill="#191970" stroke="#191970" points="982.237,-325.414 974.274,-332.403 984.857,-331.905 982.237,-325.414"/>
</g>
<!-- Node8 -->
<g id="node8" class="node">
<title>Node8</title>
<g id="a_node8"><a xlink:href="user__main_8h.html#a3671381db669a16e8f6a4bf3dfb9a441" target="_top" xlink:title="system_init_done">
<polygon fill="#ffffff" stroke="#000000" points="1216,-114.5 1216,-133.5 1310,-133.5 1310,-114.5 1216,-114.5"/>
<text text-anchor="middle" x="1263" y="-121.5" font-family="Helvetica,sans-Serif" font-size="10.00" fill="#000000">system_init_done</text>
</a>
</g>
</g>
<!-- Node7&#45;&gt;Node8 -->
<g id="edge7" class="edge">
<title>Node7&#45;&gt;Node8</title>
<path fill="none" stroke="#191970" d="M1130.46,-259.207C1161.78,-227.257 1229.02,-158.665 1253.68,-133.505"/>
<polygon fill="#191970" stroke="#191970" points="1127.82,-256.9 1123.32,-266.492 1132.82,-261.801 1127.82,-256.9"/>
</g>
<!-- Node9 -->
<g id="node9" class="node">
<title>Node9</title>
<g id="a_node9"><a xlink:href="user__main_8h.html#a33113d6dedb440bd7dfa5576e325140c" target="_top" xlink:title="user_init">
<polygon fill="#ffffff" stroke="#000000" points="1346,-38.5 1346,-57.5 1400,-57.5 1400,-38.5 1346,-38.5"/>
<text text-anchor="middle" x="1373" y="-45.5" font-family="Helvetica,sans-Serif" font-size="10.00" fill="#000000">user_init</text>
</a>
</g>
</g>
<!-- Node8&#45;&gt;Node9 -->
<g id="edge8" class="edge">
<title>Node8&#45;&gt;Node9</title>
<path fill="none" stroke="#191970" d="M1285.38,-108.537C1307.5,-93.2541 1340.64,-70.3551 1359.18,-57.5473"/>
<polygon fill="#191970" stroke="#191970" points="1283.17,-105.811 1276.93,-114.375 1287.15,-111.57 1283.17,-105.811"/>
</g>
<!-- Node10&#45;&gt;Node7 -->
<g id="edge10" class="edge">
<title>Node10&#45;&gt;Node7</title>
<path fill="none" stroke="#191970" d="M852.838,-403.863C897.71,-398.045 961.379,-385.904 1012,-361 1051.71,-341.463 1089.23,-303.419 1105.51,-285.618"/>
<polygon fill="#191970" stroke="#191970" points="852.206,-400.414 842.709,-405.11 853.062,-407.361 852.206,-400.414"/>
</g>
<!-- Node13 -->
<g id="node13" class="node">
<title>Node13</title>
<g id="a_node13"><a xlink:href="mqtt_8c.html#ad8ba75844d580447adc10eee6aba039d" target="_top" xlink:title="mqtt_send_keepalive">
<polygon fill="#ffffff" stroke="#000000" points="588.5,-304.5 588.5,-323.5 699.5,-323.5 699.5,-304.5 588.5,-304.5"/>
<text text-anchor="middle" x="644" y="-311.5" font-family="Helvetica,sans-Serif" font-size="10.00" fill="#000000">mqtt_send_keepalive</text>
</a>
</g>
</g>
<!-- Node12&#45;&gt;Node13 -->
<g id="edge13" class="edge">
<title>Node12&#45;&gt;Node13</title>
<path fill="none" stroke="#191970" d="M511.511,-260.482C531.927,-269.036 558.972,-280.283 583,-290 594.922,-294.821 608.204,-300.062 619.323,-304.413"/>
<polygon fill="#191970" stroke="#191970" points="512.638,-257.16 502.063,-256.518 509.93,-263.615 512.638,-257.16"/>
</g>
<!-- Node14 -->
<g id="node14" class="node">
<title>Node14</title>
<g id="a_node14"><a xlink:href="mqtt_8c.html#a086502e2dd36681a7fb4d9a9018cfc88" target="_top" xlink:title="MQTT ping function. ">
<polygon fill="#ffffff" stroke="#000000" points="609,-190.5 609,-209.5 679,-209.5 679,-190.5 609,-190.5"/>
<text text-anchor="middle" x="644" y="-197.5" font-family="Helvetica,sans-Serif" font-size="10.00" fill="#000000">MQTT_Ping</text>
</a>
</g>
</g>
<!-- Node12&#45;&gt;Node14 -->
<g id="edge15" class="edge">
<title>Node12&#45;&gt;Node14</title>
<path fill="none" stroke="#191970" d="M522.532,-234.705C549.999,-226.857 585.084,-216.833 610.479,-209.578"/>
<polygon fill="#191970" stroke="#191970" points="521.443,-231.376 512.789,-237.489 523.366,-238.107 521.443,-231.376"/>
</g>
<!-- Node13&#45;&gt;Node5 -->
<g id="edge14" class="edge">
<title>Node13&#45;&gt;Node5</title>
<path fill="none" stroke="#191970" d="M679.07,-327.065C707.194,-337.543 746.014,-352.005 771.308,-361.428"/>
<polygon fill="#191970" stroke="#191970" points="680.201,-323.752 669.609,-323.541 677.758,-330.311 680.201,-323.752"/>
</g>
<!-- Node15 -->
<g id="node15" class="node">
<title>Node15</title>
<g id="a_node15"><a xlink:href="user__main_8c.html#af2c051d5ceacd30f90c08d6f584deff2" target="_top" xlink:title="sample_timer_func">
<polygon fill="#ffffff" stroke="#000000" points="746.5,-178.5 746.5,-197.5 847.5,-197.5 847.5,-178.5 746.5,-178.5"/>
<text text-anchor="middle" x="797" y="-185.5" font-family="Helvetica,sans-Serif" font-size="10.00" fill="#000000">sample_timer_func</text>
</a>
</g>
</g>
<!-- Node14&#45;&gt;Node15 -->
<g id="edge16" class="edge">
<title>Node14&#45;&gt;Node15</title>
<path fill="none" stroke="#191970" d="M689.31,-196.446C707.256,-195.039 727.966,-193.414 746.4,-191.969"/>
<polygon fill="#191970" stroke="#191970" points="688.797,-192.976 679.101,-197.247 689.344,-199.954 688.797,-192.976"/>
</g>
<!-- Node16 -->
<g id="node16" class="node">
<title>Node16</title>
<g id="a_node16"><a xlink:href="user__main_8h.html#a06f2b383d99fcad9d0f37d1ca2224898" target="_top" xlink:title="mqttConnectedCb">
<polygon fill="#ffffff" stroke="#000000" points="902,-266.5 902,-285.5 999,-285.5 999,-266.5 902,-266.5"/>
<text text-anchor="middle" x="950.5" y="-273.5" font-family="Helvetica,sans-Serif" font-size="10.00" fill="#000000">mqttConnectedCb</text>
</a>
</g>
</g>
<!-- Node15&#45;&gt;Node16 -->
<g id="edge17" class="edge">
<title>Node15&#45;&gt;Node16</title>
<path fill="none" stroke="#191970" d="M839.639,-201.013C844.228,-202.84 848.764,-204.84 853,-207 886.624,-224.143 921.718,-251.785 939.198,-266.334"/>
<polygon fill="#191970" stroke="#191970" points="840.817,-197.717 830.224,-197.508 838.375,-204.277 840.817,-197.717"/>
</g>
<!-- Node16&#45;&gt;Node7 -->
<g id="edge18" class="edge">
<title>Node16&#45;&gt;Node7</title>
<path fill="none" stroke="#191970" d="M1009.36,-276C1021.8,-276 1035.02,-276 1047.72,-276"/>
<polygon fill="#191970" stroke="#191970" points="1009.11,-272.5 999.113,-276 1009.11,-279.5 1009.11,-272.5"/>
</g>
<!-- Node18 -->
<g id="node18" class="node">
<title>Node18</title>
<g id="a_node18"><a xlink:href="mqtt_8c.html#af470856972320b9c02da9fcb6f419fd0" target="_top" xlink:title="Client received callback function. ">
<polygon fill="#ffffff" stroke="#000000" points="270,-408.5 270,-427.5 373,-427.5 373,-408.5 270,-408.5"/>
<text text-anchor="middle" x="321.5" y="-415.5" font-family="Helvetica,sans-Serif" font-size="10.00" fill="#000000">mqtt_tcpclient_recv</text>
</a>
</g>
</g>
<!-- Node17&#45;&gt;Node18 -->
<g id="edge20" class="edge">
<title>Node17&#45;&gt;Node18</title>
<path fill="none" stroke="#191970" d="M233.3,-429.135C245.471,-427.598 258.108,-426.003 269.886,-424.516"/>
<polygon fill="#191970" stroke="#191970" points="232.698,-425.683 223.215,-430.408 233.575,-432.628 232.698,-425.683"/>
</g>
<!-- Node18&#45;&gt;Node3 -->
<g id="edge21" class="edge">
<title>Node18&#45;&gt;Node3</title>
<path fill="none" stroke="#191970" d="M383.285,-407.051C397.308,-404.566 412.092,-401.946 425.75,-399.525"/>
<polygon fill="#191970" stroke="#191970" points="382.471,-403.64 373.235,-408.832 383.692,-410.533 382.471,-403.64"/>
</g>
<!-- Node19&#45;&gt;Node18 -->
<g id="edge23" class="edge">
<title>Node19&#45;&gt;Node18</title>
<path fill="none" stroke="#191970" d="M230.518,-406.514C243.499,-408.153 257.134,-409.874 269.782,-411.471"/>
<polygon fill="#191970" stroke="#191970" points="230.639,-403.001 220.279,-405.221 229.762,-409.946 230.639,-403.001"/>
</g>
<!-- Node20&#45;&gt;Node18 -->
<g id="edge25" class="edge">
<title>Node20&#45;&gt;Node18</title>
<path fill="none" stroke="#191970" d="M212.561,-373.62C218.773,-375.663 225.077,-377.824 231,-380 254.993,-388.815 281.94,-400.346 300.142,-408.384"/>
<polygon fill="#191970" stroke="#191970" points="213.535,-370.257 202.944,-370.524 211.39,-376.92 213.535,-370.257"/>
</g>
<!-- Node22 -->
<g id="node22" class="node">
<title>Node22</title>
<g id="a_node22"><a xlink:href="mqtt_8c.html#a848a6701c4c7ec3432e38ea57c003aad" target="_top" xlink:title="MQTT publish function. ">
<polygon fill="#ffffff" stroke="#000000" points="438,-133.5 438,-152.5 521,-152.5 521,-133.5 438,-133.5"/>
<text text-anchor="middle" x="479.5" y="-140.5" font-family="Helvetica,sans-Serif" font-size="10.00" fill="#000000">MQTT_Publish</text>
</a>
</g>
</g>
<!-- Node21&#45;&gt;Node22 -->
<g id="edge27" class="edge">
<title>Node21&#45;&gt;Node22</title>
<path fill="none" stroke="#191970" d="M360.072,-196.043C365.45,-194.094 370.884,-192.049 376,-190 405.679,-178.116 439.243,-162.452 459.889,-152.55"/>
<polygon fill="#191970" stroke="#191970" points="358.786,-192.785 350.531,-199.427 361.126,-199.383 358.786,-192.785"/>
</g>
<!-- Node22&#45;&gt;Node15 -->
<g id="edge45" class="edge">
<title>Node22&#45;&gt;Node15</title>
<path fill="none" stroke="#191970" d="M530.915,-150.287C590.264,-158.699 687.262,-172.447 746.304,-180.815"/>
<polygon fill="#191970" stroke="#191970" points="531.4,-146.821 521.008,-148.883 530.417,-153.752 531.4,-146.821"/>
</g>
<!-- Node22&#45;&gt;Node16 -->
<g id="edge42" class="edge">
<title>Node22&#45;&gt;Node16</title>
<path fill="none" stroke="#191970" d="M492.868,-160.769C515.314,-190.045 560.343,-246.26 583,-257 687.78,-306.667 828.712,-295.458 901.866,-284.728"/>
<polygon fill="#191970" stroke="#191970" points="495.516,-158.469 486.676,-152.628 489.944,-162.707 495.516,-158.469"/>
</g>
<!-- Node23 -->
<g id="node23" class="node">
<title>Node23</title>
<g id="a_node23"><a xlink:href="en61107__request_8c.html#aa3b162cf5364986ea19e831ac2b18f76" target="_top" xlink:title="en61107_received_task">
<polygon fill="#ffffff" stroke="#000000" points="889,-38.5 889,-57.5 1012,-57.5 1012,-38.5 889,-38.5"/>
<text text-anchor="middle" x="950.5" y="-45.5" font-family="Helvetica,sans-Serif" font-size="10.00" fill="#000000">en61107_received_task</text>
</a>
</g>
</g>
<!-- Node22&#45;&gt;Node23 -->
<g id="edge28" class="edge">
<title>Node22&#45;&gt;Node23</title>
<path fill="none" stroke="#191970" d="M500.813,-127.585C520.94,-113.897 552.508,-94.6185 583,-85 686.809,-52.2542 814.533,-46.6667 888.814,-46.6187"/>
<polygon fill="#191970" stroke="#191970" points="498.626,-124.842 492.415,-133.425 502.623,-130.589 498.626,-124.842"/>
</g>
<!-- Node25 -->
<g id="node25" class="node">
<title>Node25</title>
<g id="a_node25"><a xlink:href="en61107__request_8h.html#a7384d014eb9e833f64ecf4a9f86f87be" target="_top" xlink:title="en61107_request_send">
<polygon fill="#ffffff" stroke="#000000" points="583,-114.5 583,-133.5 705,-133.5 705,-114.5 583,-114.5"/>
<text text-anchor="middle" x="644" y="-121.5" font-family="Helvetica,sans-Serif" font-size="10.00" fill="#000000">en61107_request_send</text>
</a>
</g>
</g>
<!-- Node22&#45;&gt;Node25 -->
<g id="edge31" class="edge">
<title>Node22&#45;&gt;Node25</title>
<path fill="none" stroke="#191970" d="M530.984,-137.053C547.449,-135.152 565.835,-133.028 582.914,-131.055"/>
<polygon fill="#191970" stroke="#191970" points="530.543,-133.581 521.01,-138.205 531.346,-140.535 530.543,-133.581"/>
</g>
<!-- Node27 -->
<g id="node27" class="node">
<title>Node27</title>
<g id="a_node27"><a xlink:href="kmp__request_8c.html#a3f6b790a06b933b78f40ade5e9a16131" target="_top" xlink:title="kmp_received_task">
<polygon fill="#ffffff" stroke="#000000" points="592.5,-0.5 592.5,-19.5 695.5,-19.5 695.5,-0.5 592.5,-0.5"/>
<text text-anchor="middle" x="644" y="-7.5" font-family="Helvetica,sans-Serif" font-size="10.00" fill="#000000">kmp_received_task</text>
</a>
</g>
</g>
<!-- Node22&#45;&gt;Node27 -->
<g id="edge35" class="edge">
<title>Node22&#45;&gt;Node27</title>
<path fill="none" stroke="#191970" d="M492.479,-125.066C510.446,-101.358 545.008,-59.6066 583,-34 591.776,-28.0847 602.227,-23.2999 611.976,-19.6048"/>
<polygon fill="#191970" stroke="#191970" points="489.591,-123.084 486.433,-133.197 495.208,-127.261 489.591,-123.084"/>
</g>
<!-- Node29 -->
<g id="node29" class="node">
<title>Node29</title>
<g id="a_node29"><a xlink:href="kmp__request_8h.html#a3b022dcdc832786eb06126b5e6879604" target="_top" xlink:title="kmp_request_send">
<polygon fill="#ffffff" stroke="#000000" points="593,-228.5 593,-247.5 695,-247.5 695,-228.5 593,-228.5"/>
<text text-anchor="middle" x="644" y="-235.5" font-family="Helvetica,sans-Serif" font-size="10.00" fill="#000000">kmp_request_send</text>
</a>
</g>
</g>
<!-- Node22&#45;&gt;Node29 -->
<g id="edge38" class="edge">
<title>Node22&#45;&gt;Node29</title>
<path fill="none" stroke="#191970" d="M497.803,-159.395C517.575,-176.368 550.614,-202.644 583,-219 590.327,-222.7 598.515,-225.849 606.454,-228.456"/>
<polygon fill="#191970" stroke="#191970" points="500.018,-156.683 490.181,-152.747 495.416,-161.958 500.018,-156.683"/>
</g>
<!-- Node31 -->
<g id="node31" class="node">
<title>Node31</title>
<g id="a_node31"><a xlink:href="user__main_8h.html#a53fca5688835df983e3ff1a91d387618" target="_top" xlink:title="mqttDataCb">
<polygon fill="#ffffff" stroke="#000000" points="915.5,-76.5 915.5,-95.5 985.5,-95.5 985.5,-76.5 915.5,-76.5"/>
<text text-anchor="middle" x="950.5" y="-83.5" font-family="Helvetica,sans-Serif" font-size="10.00" fill="#000000">mqttDataCb</text>
</a>
</g>
</g>
<!-- Node22&#45;&gt;Node31 -->
<g id="edge43" class="edge">
<title>Node22&#45;&gt;Node31</title>
<path fill="none" stroke="#191970" d="M509.307,-129.339C529.619,-120.713 557.375,-110.241 583,-105 703.019,-80.4506 849.425,-82.0177 915.354,-84.3506"/>
<polygon fill="#191970" stroke="#191970" points="507.751,-126.199 499.975,-133.394 510.541,-132.619 507.751,-126.199"/>
</g>
<!-- Node24 -->
<g id="node24" class="node">
<title>Node24</title>
<g id="a_node24"><a xlink:href="en61107__request_8h.html#acd43242675a3f25e7c3b530eac9d8b3a" target="_top" xlink:title="en61107_request_init">
<polygon fill="#ffffff" stroke="#000000" points="1057.5,-38.5 1057.5,-57.5 1170.5,-57.5 1170.5,-38.5 1057.5,-38.5"/>
<text text-anchor="middle" x="1114" y="-45.5" font-family="Helvetica,sans-Serif" font-size="10.00" fill="#000000">en61107_request_init</text>
</a>
</g>
</g>
<!-- Node23&#45;&gt;Node24 -->
<g id="edge29" class="edge">
<title>Node23&#45;&gt;Node24</title>
<path fill="none" stroke="#191970" d="M1022.51,-48C1034.22,-48 1046.21,-48 1057.48,-48"/>
<polygon fill="#191970" stroke="#191970" points="1022.31,-44.5001 1012.31,-48 1022.31,-51.5001 1022.31,-44.5001"/>
</g>
<!-- Node24&#45;&gt;Node9 -->
<g id="edge30" class="edge">
<title>Node24&#45;&gt;Node9</title>
<path fill="none" stroke="#191970" d="M1180.65,-48C1234.37,-48 1307.12,-48 1345.95,-48"/>
<polygon fill="#191970" stroke="#191970" points="1180.52,-44.5001 1170.52,-48 1180.52,-51.5001 1180.52,-44.5001"/>
</g>
<!-- Node25&#45;&gt;Node15 -->
<g id="edge32" class="edge">
<title>Node25&#45;&gt;Node15</title>
<path fill="none" stroke="#191970" d="M678.483,-137.322C687.163,-140.743 696.443,-144.458 705,-148 729.299,-158.059 756.941,-170.168 775.528,-178.409"/>
<polygon fill="#191970" stroke="#191970" points="679.598,-134 669.01,-133.611 677.044,-140.517 679.598,-134"/>
</g>
<!-- Node26 -->
<g id="node26" class="node">
<title>Node26</title>
<g id="a_node26"><a xlink:href="user__main_8c.html#ad75c70d9e67f9a03a6bc6efed2e08c9a" target="_top" xlink:title="en61107_request_send\l_timer_func">
<polygon fill="#ffffff" stroke="#000000" points="1053,-109 1053,-139 1175,-139 1175,-109 1053,-109"/>
<text text-anchor="start" x="1061" y="-127" font-family="Helvetica,sans-Serif" font-size="10.00" fill="#000000">en61107_request_send</text>
<text text-anchor="middle" x="1114" y="-116" font-family="Helvetica,sans-Serif" font-size="10.00" fill="#000000">_timer_func</text>
</a>
</g>
</g>
<!-- Node25&#45;&gt;Node26 -->
<g id="edge33" class="edge">
<title>Node25&#45;&gt;Node26</title>
<path fill="none" stroke="#191970" d="M715.516,-124C807.631,-124 966.17,-124 1052.91,-124"/>
<polygon fill="#191970" stroke="#191970" points="715.444,-120.5 705.444,-124 715.444,-127.5 715.444,-120.5"/>
</g>
<!-- Node26&#45;&gt;Node8 -->
<g id="edge34" class="edge">
<title>Node26&#45;&gt;Node8</title>
<path fill="none" stroke="#191970" d="M1185.04,-124C1195.54,-124 1206.13,-124 1215.98,-124"/>
<polygon fill="#191970" stroke="#191970" points="1185.03,-120.5 1175.03,-124 1185.03,-127.5 1185.03,-120.5"/>
</g>
<!-- Node28 -->
<g id="node28" class="node">
<title>Node28</title>
<g id="a_node28"><a xlink:href="kmp__request_8h.html#a048753ff9d6b448e2dcd8c85db0d6873" target="_top" xlink:title="kmp_request_init">
<polygon fill="#ffffff" stroke="#000000" points="1216.5,-0.5 1216.5,-19.5 1309.5,-19.5 1309.5,-0.5 1216.5,-0.5"/>
<text text-anchor="middle" x="1263" y="-7.5" font-family="Helvetica,sans-Serif" font-size="10.00" fill="#000000">kmp_request_init</text>
</a>
</g>
</g>
<!-- Node27&#45;&gt;Node28 -->
<g id="edge36" class="edge">
<title>Node27&#45;&gt;Node28</title>
<path fill="none" stroke="#191970" d="M705.787,-10C829.63,-10 1105.79,-10 1216.13,-10"/>
<polygon fill="#191970" stroke="#191970" points="705.711,-6.5001 695.711,-10 705.711,-13.5001 705.711,-6.5001"/>
</g>
<!-- Node28&#45;&gt;Node9 -->
<g id="edge37" class="edge">
<title>Node28&#45;&gt;Node9</title>
<path fill="none" stroke="#191970" d="M1300.63,-22.9985C1315.4,-28.1021 1332.04,-33.8495 1345.63,-38.5457"/>
<polygon fill="#191970" stroke="#191970" points="1301.35,-19.5461 1290.76,-19.589 1299.07,-26.1624 1301.35,-19.5461"/>
</g>
<!-- Node29&#45;&gt;Node15 -->
<g id="edge41" class="edge">
<title>Node29&#45;&gt;Node15</title>
<path fill="none" stroke="#191970" d="M684.79,-225.438C691.549,-223.315 698.478,-221.114 705,-219 717.025,-215.102 746.544,-205.129 768.928,-197.538"/>
<polygon fill="#191970" stroke="#191970" points="683.578,-222.15 675.076,-228.472 685.665,-228.831 683.578,-222.15"/>
</g>
<!-- Node30 -->
<g id="node30" class="node">
<title>Node30</title>
<g id="a_node30"><a xlink:href="kmp__request_8c.html#a0977a4640a97d389ac3b0fef0ba7a9b6" target="_top" xlink:title="kmp_receive_timeout\l_timer_func">
<polygon fill="#ffffff" stroke="#000000" points="741,-217 741,-247 853,-247 853,-217 741,-217"/>
<text text-anchor="start" x="749" y="-235" font-family="Helvetica,sans-Serif" font-size="10.00" fill="#000000">kmp_receive_timeout</text>
<text text-anchor="middle" x="797" y="-224" font-family="Helvetica,sans-Serif" font-size="10.00" fill="#000000">_timer_func</text>
</a>
</g>
</g>
<!-- Node29&#45;&gt;Node30 -->
<g id="edge39" class="edge">
<title>Node29&#45;&gt;Node30</title>
<path fill="none" stroke="#191970" d="M705.468,-228.957C717.13,-228.315 729.278,-227.872 740.768,-227.67"/>
<polygon fill="#191970" stroke="#191970" points="705.142,-225.47 695.372,-229.57 705.566,-232.457 705.142,-225.47"/>
</g>
<!-- Node30&#45;&gt;Node29 -->
<g id="edge40" class="edge">
<title>Node30&#45;&gt;Node29</title>
<path fill="none" stroke="#191970" d="M730.53,-241.305C718.753,-241.889 706.653,-242.269 695.372,-242.401"/>
<polygon fill="#191970" stroke="#191970" points="730.976,-244.786 740.768,-240.74 730.591,-237.796 730.976,-244.786"/>
</g>
<!-- Node31&#45;&gt;Node7 -->
<g id="edge44" class="edge">
<title>Node31&#45;&gt;Node7</title>
<path fill="none" stroke="#191970" d="M965.618,-103.568C999.224,-142.621 1079.23,-235.591 1105.49,-266.108"/>
<polygon fill="#191970" stroke="#191970" points="968.008,-100.98 958.833,-95.6833 962.703,-105.546 968.008,-100.98"/>
</g>
<!-- Node32&#45;&gt;Node18 -->
<g id="edge47" class="edge">
<title>Node32&#45;&gt;Node18</title>
<path fill="none" stroke="#191970" d="M221.818,-537.368C225.03,-535.765 228.123,-533.982 231,-532 272.828,-503.185 304.763,-449.341 316.555,-427.535"/>
<polygon fill="#191970" stroke="#191970" points="220.297,-534.213 212.536,-541.425 223.1,-540.627 220.297,-534.213"/>
</g>
<!-- Node33&#45;&gt;Node18 -->
<g id="edge49" class="edge">
<title>Node33&#45;&gt;Node18</title>
<path fill="none" stroke="#191970" d="M212.561,-462.38C218.773,-460.337 225.077,-458.176 231,-456 254.993,-447.185 281.94,-435.654 300.142,-427.616"/>
<polygon fill="#191970" stroke="#191970" points="211.39,-459.08 202.944,-465.476 213.535,-465.743 211.39,-459.08"/>
</g>
<!-- Node35 -->
<g id="node35" class="node">
<title>Node35</title>
<g id="a_node35"><a xlink:href="mqtt_8c.html#a86f8adfe29d6ec8bb5070fd030540d2f" target="_top" xlink:title="MQTT subscibe function. ">
<polygon fill="#ffffff" stroke="#000000" points="432,-318.5 432,-337.5 527,-337.5 527,-318.5 432,-318.5"/>
<text text-anchor="middle" x="479.5" y="-325.5" font-family="Helvetica,sans-Serif" font-size="10.00" fill="#000000">MQTT_Subscribe</text>
</a>
</g>
</g>
<!-- Node34&#45;&gt;Node35 -->
<g id="edge51" class="edge">
<title>Node34&#45;&gt;Node35</title>
<path fill="none" stroke="#191970" d="M375.822,-305.69C395.17,-309.853 416.714,-314.489 435.128,-318.452"/>
<polygon fill="#191970" stroke="#191970" points="376.445,-302.244 365.932,-303.561 374.972,-309.087 376.445,-302.244"/>
</g>
<!-- Node35&#45;&gt;Node16 -->
<g id="edge52" class="edge">
<title>Node35&#45;&gt;Node16</title>
<path fill="none" stroke="#191970" d="M537.253,-331.284C552.152,-331.996 568.168,-332.642 583,-333 637.206,-334.309 651.13,-339.172 705,-333 783.465,-324.011 873.329,-299.361 919.51,-285.603"/>
<polygon fill="#191970" stroke="#191970" points="537.306,-327.783 527.145,-330.784 536.96,-334.774 537.306,-327.783"/>
</g>
<!-- Node37 -->
<g id="node37" class="node">
<title>Node37</title>
<g id="a_node37"><a xlink:href="mqtt_8c.html#a7f28cd912dae4c1386c10026a267b579" target="_top" xlink:title="MQTT un&#45;subscibe function. ">
<polygon fill="#ffffff" stroke="#000000" points="267.5,-161.5 267.5,-180.5 375.5,-180.5 375.5,-161.5 267.5,-161.5"/>
<text text-anchor="middle" x="321.5" y="-168.5" font-family="Helvetica,sans-Serif" font-size="10.00" fill="#000000">MQTT_UnSubscribe</text>
</a>
</g>
</g>
<!-- Node36&#45;&gt;Node37 -->
<g id="edge54" class="edge">
<title>Node36&#45;&gt;Node37</title>
<path fill="none" stroke="#191970" d="M241.516,-171C250.237,-171 259.042,-171 267.462,-171"/>
<polygon fill="#191970" stroke="#191970" points="241.347,-167.5 231.347,-171 241.347,-174.5 241.347,-167.5"/>
</g>
</g>
</svg>
