<?xml version="1.0" encoding="UTF-8" standalone="no"?>
<!DOCTYPE svg PUBLIC "-//W3C//DTD SVG 1.1//EN"
 "http://www.w3.org/Graphics/SVG/1.1/DTD/svg11.dtd">
<!-- Generated by graphviz version 2.40.1 (20161225.0304)
 -->
<!-- Title: mqtt_tcpclient_recv Pages: 1 -->
<svg width="575pt" height="601pt"
 viewBox="0.00 0.00 575.00 601.26" xmlns="http://www.w3.org/2000/svg" xmlns:xlink="http://www.w3.org/1999/xlink">
<g id="graph0" class="graph" transform="scale(1 1) rotate(0) translate(4 597.264)">
<title>mqtt_tcpclient_recv</title>
<polygon fill="#ffffff" stroke="transparent" points="-4,4 -4,-597.264 571,-597.264 571,4 -4,4"/>
<!-- Node418 -->
<g id="node1" class="node">
<title>Node418</title>
<polygon fill="#bfbfbf" stroke="#000000" points="0,-266.5 0,-285.5 103,-285.5 103,-266.5 0,-266.5"/>
<text text-anchor="middle" x="51.5" y="-273.5" font-family="Helvetica,sans-Serif" font-size="10.00" fill="#000000">mqtt_tcpclient_recv</text>
</g>
<!-- Node419 -->
<g id="node2" class="node">
<title>Node419</title>
<g id="a_node2"><a xlink:href="mqtt_8c.html#aecca483fb1f2313abb9e1a905e54d6ac" target="_top" xlink:title="deliver_publish">
<polygon fill="#ffffff" stroke="#000000" points="175,-494.5 175,-513.5 258,-513.5 258,-494.5 175,-494.5"/>
<text text-anchor="middle" x="216.5" y="-501.5" font-family="Helvetica,sans-Serif" font-size="10.00" fill="#000000">deliver_publish</text>
</a>
</g>
</g>
<!-- Node418&#45;&gt;Node419 -->
<g id="edge1" class="edge">
<title>Node418&#45;&gt;Node419</title>
<path fill="none" stroke="#191970" d="M52.5111,-285.6691C56.5259,-318.9556 74.4189,-429.7861 139,-485 146.4242,-491.3473 155.6377,-495.6396 165.0918,-498.5273"/>
<polygon fill="#191970" stroke="#191970" points="164.4104,-501.9656 174.966,-501.0554 166.1466,-495.1844 164.4104,-501.9656"/>
</g>
<!-- Node421 -->
<g id="node4" class="node">
<title>Node421</title>
<g id="a_node4"><a xlink:href="mqtt__msg_8h.html#a2507d51683ee1cda6b2b584c16b4f695" target="_top" xlink:title="mqtt_get_qos">
<polygon fill="#ffffff" stroke="#000000" points="487.5,-494.5 487.5,-513.5 564.5,-513.5 564.5,-494.5 487.5,-494.5"/>
<text text-anchor="middle" x="526" y="-501.5" font-family="Helvetica,sans-Serif" font-size="10.00" fill="#000000">mqtt_get_qos</text>
</a>
</g>
</g>
<!-- Node418&#45;&gt;Node421 -->
<g id="edge11" class="edge">
<title>Node418&#45;&gt;Node421</title>
<path fill="none" stroke="#191970" d="M53.575,-285.6002C62.7159,-327.0177 100.6436,-489.8066 139,-523 243.9625,-613.834 317.1774,-604.4827 449,-561 472.9889,-553.0871 495.6153,-534.5013 510.0527,-520.6914"/>
<polygon fill="#191970" stroke="#191970" points="512.5564,-523.1376 517.1876,-513.6086 507.6248,-518.1697 512.5564,-523.1376"/>
</g>
<!-- Node423 -->
<g id="node6" class="node">
<title>Node423</title>
<g id="a_node6"><a xlink:href="esp-open-lwip_2include_2lwip_2app_2espconn_8h.html#a9969873c3b8ee86a34496a5166cf8bfc" target="_top" xlink:title="espconn_disconnect">
<polygon fill="#ffffff" stroke="#000000" points="162.5,-380.5 162.5,-399.5 270.5,-399.5 270.5,-380.5 162.5,-380.5"/>
<text text-anchor="middle" x="216.5" y="-387.5" font-family="Helvetica,sans-Serif" font-size="10.00" fill="#000000">espconn_disconnect</text>
</a>
</g>
</g>
<!-- Node418&#45;&gt;Node423 -->
<g id="edge5" class="edge">
<title>Node418&#45;&gt;Node423</title>
<path fill="none" stroke="#191970" d="M57.4302,-285.5265C69.9704,-304.8371 101.1574,-348.6519 139,-371 143.3614,-373.5756 148.0578,-375.8031 152.9046,-377.7293"/>
<polygon fill="#191970" stroke="#191970" points="151.7674,-381.0395 162.3622,-381.0747 154.1017,-374.4402 151.7674,-381.0395"/>
</g>
<!-- Node424 -->
<g id="node7" class="node">
<title>Node424</title>
<g id="a_node7"><a xlink:href="sdk_2include_2espconn_8h.html#aaa239bcd4abe60ed2e6e1688c9b1acfd" target="_top" xlink:title="espconn_secure_disconnect">
<polygon fill="#ffffff" stroke="#000000" points="145,-342.5 145,-361.5 288,-361.5 288,-342.5 145,-342.5"/>
<text text-anchor="middle" x="216.5" y="-349.5" font-family="Helvetica,sans-Serif" font-size="10.00" fill="#000000">espconn_secure_disconnect</text>
</a>
</g>
</g>
<!-- Node418&#45;&gt;Node424 -->
<g id="edge6" class="edge">
<title>Node418&#45;&gt;Node424</title>
<path fill="none" stroke="#191970" d="M63.2166,-285.5034C79.3438,-298.1293 109.722,-320.3132 139,-333 144.7558,-335.4941 150.9001,-337.7004 157.1155,-339.6425"/>
<polygon fill="#191970" stroke="#191970" points="156.316,-343.0549 166.8953,-342.4806 158.2669,-336.3322 156.316,-343.0549"/>
</g>
<!-- Node425 -->
<g id="node8" class="node">
<title>Node425</title>
<g id="a_node8"><a xlink:href="mqtt__msg_8h.html#a7f81b05d14bd1ccef30177c02f83d095" target="_top" xlink:title="mqtt_get_connect_return_code">
<polygon fill="#ffffff" stroke="#000000" points="139,-304.5 139,-323.5 294,-323.5 294,-304.5 139,-304.5"/>
<text text-anchor="middle" x="216.5" y="-311.5" font-family="Helvetica,sans-Serif" font-size="10.00" fill="#000000">mqtt_get_connect_return_code</text>
</a>
</g>
</g>
<!-- Node418&#45;&gt;Node425 -->
<g id="edge7" class="edge">
<title>Node418&#45;&gt;Node425</title>
<path fill="none" stroke="#191970" d="M93.1365,-285.589C115.0081,-290.6261 142.006,-296.8438 165.1636,-302.1771"/>
<polygon fill="#191970" stroke="#191970" points="164.6325,-305.6463 175.1629,-304.4799 166.2036,-298.8249 164.6325,-305.6463"/>
</g>
<!-- Node426 -->
<g id="node9" class="node">
<title>Node426</title>
<g id="a_node9"><a xlink:href="mqtt__msg_8h.html#a978c9ffc0dda04260bdf808da49f7ba0" target="_top" xlink:title="mqtt_get_id">
<polygon fill="#ffffff" stroke="#000000" points="182,-456.5 182,-475.5 251,-475.5 251,-456.5 182,-456.5"/>
<text text-anchor="middle" x="216.5" y="-463.5" font-family="Helvetica,sans-Serif" font-size="10.00" fill="#000000">mqtt_get_id</text>
</a>
</g>
</g>
<!-- Node418&#45;&gt;Node426 -->
<g id="edge8" class="edge">
<title>Node418&#45;&gt;Node426</title>
<path fill="none" stroke="#191970" d="M53.7584,-285.5137C60.9662,-313.7915 86.1166,-398.0856 139,-442 148.397,-449.8033 160.3206,-455.0739 171.9808,-458.6322"/>
<polygon fill="#191970" stroke="#191970" points="171.086,-462.0159 181.6522,-461.2366 172.9062,-455.2567 171.086,-462.0159"/>
</g>
<!-- Node427 -->
<g id="node10" class="node">
<title>Node427</title>
<g id="a_node10"><a xlink:href="mqtt__msg_8h.html#a6e8d943227c43545d9a0e253bfe4febd" target="_top" xlink:title="mqtt_get_type">
<polygon fill="#ffffff" stroke="#000000" points="349.5,-418.5 349.5,-437.5 429.5,-437.5 429.5,-418.5 349.5,-418.5"/>
<text text-anchor="middle" x="389.5" y="-425.5" font-family="Helvetica,sans-Serif" font-size="10.00" fill="#000000">mqtt_get_type</text>
</a>
</g>
</g>
<!-- Node418&#45;&gt;Node427 -->
<g id="edge13" class="edge">
<title>Node418&#45;&gt;Node427</title>
<path fill="none" stroke="#191970" d="M54.4716,-285.5612C62.9188,-310.9259 89.7026,-379.9635 139,-409 200.6069,-445.2869 286.0347,-442.8911 339.5118,-436.4748"/>
<polygon fill="#191970" stroke="#191970" points="339.9687,-439.945 349.4383,-435.1934 339.0725,-433.0026 339.9687,-439.945"/>
</g>
<!-- Node428 -->
<g id="node11" class="node">
<title>Node428</title>
<g id="a_node11"><a xlink:href="mqtt__msg_8h.html#a909ec4dd399485d24351b39d64d7356c" target="_top" xlink:title="mqtt_get_total_length">
<polygon fill="#ffffff" stroke="#000000" points="160,-266.5 160,-285.5 273,-285.5 273,-266.5 160,-266.5"/>
<text text-anchor="middle" x="216.5" y="-273.5" font-family="Helvetica,sans-Serif" font-size="10.00" fill="#000000">mqtt_get_total_length</text>
</a>
</g>
</g>
<!-- Node418&#45;&gt;Node428 -->
<g id="edge12" class="edge">
<title>Node418&#45;&gt;Node428</title>
<path fill="none" stroke="#191970" d="M103.2543,-276C117.9846,-276 134.2408,-276 149.729,-276"/>
<polygon fill="#191970" stroke="#191970" points="149.7723,-279.5001 159.7723,-276 149.7723,-272.5001 149.7723,-279.5001"/>
</g>
<!-- Node429 -->
<g id="node12" class="node">
<title>Node429</title>
<g id="a_node12"><a xlink:href="mqtt__msg_8h.html#a817f94301186a136c08abe582ca82401" target="_top" xlink:title="mqtt_msg_pingresp">
<polygon fill="#ffffff" stroke="#000000" points="164.5,-228.5 164.5,-247.5 268.5,-247.5 268.5,-228.5 164.5,-228.5"/>
<text text-anchor="middle" x="216.5" y="-235.5" font-family="Helvetica,sans-Serif" font-size="10.00" fill="#000000">mqtt_msg_pingresp</text>
</a>
</g>
</g>
<!-- Node418&#45;&gt;Node429 -->
<g id="edge14" class="edge">
<title>Node418&#45;&gt;Node429</title>
<path fill="none" stroke="#191970" d="M93.1365,-266.411C115.0081,-261.3739 142.006,-255.1562 165.1636,-249.8229"/>
<polygon fill="#191970" stroke="#191970" points="166.2036,-253.1751 175.1629,-247.5201 164.6325,-246.3537 166.2036,-253.1751"/>
</g>
<!-- Node432 -->
<g id="node15" class="node">
<title>Node432</title>
<g id="a_node15"><a xlink:href="mqtt__msg_8h.html#a203f5abf687140e00cbe5ceb271ae2a9" target="_top" xlink:title="mqtt_msg_puback">
<polygon fill="#ffffff" stroke="#000000" points="167.5,-152.5 167.5,-171.5 265.5,-171.5 265.5,-152.5 167.5,-152.5"/>
<text text-anchor="middle" x="216.5" y="-159.5" font-family="Helvetica,sans-Serif" font-size="10.00" fill="#000000">mqtt_msg_puback</text>
</a>
</g>
</g>
<!-- Node418&#45;&gt;Node432 -->
<g id="edge17" class="edge">
<title>Node418&#45;&gt;Node432</title>
<path fill="none" stroke="#191970" d="M57.4302,-266.4735C69.9704,-247.1629 101.1574,-203.3481 139,-181 144.7704,-177.5922 151.1274,-174.7939 157.6432,-172.4964"/>
<polygon fill="#191970" stroke="#191970" points="158.7629,-175.8134 167.2533,-169.476 156.664,-169.1354 158.7629,-175.8134"/>
</g>
<!-- Node435 -->
<g id="node18" class="node">
<title>Node435</title>
<g id="a_node18"><a xlink:href="mqtt__msg_8h.html#a6ddf7abb65c3c9006ffb1c4cf72f4980" target="_top" xlink:title="mqtt_msg_pubcomp">
<polygon fill="#ffffff" stroke="#000000" points="163,-114.5 163,-133.5 270,-133.5 270,-114.5 163,-114.5"/>
<text text-anchor="middle" x="216.5" y="-121.5" font-family="Helvetica,sans-Serif" font-size="10.00" fill="#000000">mqtt_msg_pubcomp</text>
</a>
</g>
</g>
<!-- Node418&#45;&gt;Node435 -->
<g id="edge22" class="edge">
<title>Node418&#45;&gt;Node435</title>
<path fill="none" stroke="#191970" d="M55.023,-266.158C64.4469,-241.3052 92.71,-175.6747 139,-143 143.4564,-139.8544 148.3753,-137.2269 153.5091,-135.0326"/>
<polygon fill="#191970" stroke="#191970" points="154.7739,-138.2966 162.9284,-131.5324 152.3355,-131.7349 154.7739,-138.2966"/>
</g>
<!-- Node436 -->
<g id="node19" class="node">
<title>Node436</title>
<g id="a_node19"><a xlink:href="mqtt__msg_8h.html#a9a9bb0b46778aeeea9ed48a37de31232" target="_top" xlink:title="mqtt_msg_pubrec">
<polygon fill="#ffffff" stroke="#000000" points="168,-76.5 168,-95.5 265,-95.5 265,-76.5 168,-76.5"/>
<text text-anchor="middle" x="216.5" y="-83.5" font-family="Helvetica,sans-Serif" font-size="10.00" fill="#000000">mqtt_msg_pubrec</text>
</a>
</g>
</g>
<!-- Node418&#45;&gt;Node436 -->
<g id="edge27" class="edge">
<title>Node418&#45;&gt;Node436</title>
<path fill="none" stroke="#191970" d="M53.4515,-266.4684C59.9312,-237.3452 83.5467,-148.8544 139,-105 144.6775,-100.51 151.2659,-97.0614 158.1568,-94.4161"/>
<polygon fill="#191970" stroke="#191970" points="159.277,-97.7321 167.6839,-91.2843 157.091,-91.0822 159.277,-97.7321"/>
</g>
<!-- Node437 -->
<g id="node20" class="node">
<title>Node437</title>
<g id="a_node20"><a xlink:href="mqtt__msg_8h.html#a144bc05ddeb251c82e48ed31d2cf16fb" target="_top" xlink:title="mqtt_msg_pubrel">
<polygon fill="#ffffff" stroke="#000000" points="169.5,-190.5 169.5,-209.5 263.5,-209.5 263.5,-190.5 169.5,-190.5"/>
<text text-anchor="middle" x="216.5" y="-197.5" font-family="Helvetica,sans-Serif" font-size="10.00" fill="#000000">mqtt_msg_pubrel</text>
</a>
</g>
</g>
<!-- Node418&#45;&gt;Node437 -->
<g id="edge32" class="edge">
<title>Node418&#45;&gt;Node437</title>
<path fill="none" stroke="#191970" d="M63.2166,-266.4966C79.3438,-253.8707 109.722,-231.6868 139,-219 145.5542,-216.1599 152.6123,-213.6931 159.7052,-211.5644"/>
<polygon fill="#191970" stroke="#191970" points="160.666,-214.9301 169.3551,-208.8679 158.7821,-208.1883 160.666,-214.9301"/>
</g>
<!-- Node438 -->
<g id="node21" class="node">
<title>Node438</title>
<g id="a_node21"><a xlink:href="_meter_logger_2mqtt_2include_2queue_8h.html#a0a04f14d06c5c3ee302764c5f3d7dc0c" target="_top" xlink:title="QUEUE_Puts">
<polygon fill="#ffffff" stroke="#000000" points="177.5,-38.5 177.5,-57.5 255.5,-57.5 255.5,-38.5 177.5,-38.5"/>
<text text-anchor="middle" x="216.5" y="-45.5" font-family="Helvetica,sans-Serif" font-size="10.00" fill="#000000">QUEUE_Puts</text>
</a>
</g>
</g>
<!-- Node418&#45;&gt;Node438 -->
<g id="edge37" class="edge">
<title>Node418&#45;&gt;Node438</title>
<path fill="none" stroke="#191970" d="M52.5111,-266.3309C56.5259,-233.0444 74.4189,-122.2139 139,-67 147.0593,-60.1097 157.2271,-55.6411 167.5222,-52.7621"/>
<polygon fill="#191970" stroke="#191970" points="168.4258,-56.1453 177.3671,-50.4617 166.833,-49.329 168.4258,-56.1453"/>
</g>
<!-- Node441 -->
<g id="node24" class="node">
<title>Node441</title>
<g id="a_node24"><a xlink:href="user__interface_8h.html#adab1155f3a463f2b05a9bde65b37514f" target="_top" xlink:title="system_os_post">
<polygon fill="#ffffff" stroke="#000000" points="172,-.5 172,-19.5 261,-19.5 261,-.5 172,-.5"/>
<text text-anchor="middle" x="216.5" y="-7.5" font-family="Helvetica,sans-Serif" font-size="10.00" fill="#000000">system_os_post</text>
</a>
</g>
</g>
<!-- Node418&#45;&gt;Node441 -->
<g id="edge40" class="edge">
<title>Node418&#45;&gt;Node441</title>
<path fill="none" stroke="#191970" d="M51.8129,-266.4539C53.5561,-229.6905 64.9481,-95.9912 139,-29 145.5685,-23.0578 153.6902,-18.8986 162.1796,-16.0025"/>
<polygon fill="#191970" stroke="#191970" points="163.2013,-19.3507 171.8575,-13.2416 161.2809,-12.6193 163.2013,-19.3507"/>
</g>
<!-- Node420 -->
<g id="node3" class="node">
<title>Node420</title>
<g id="a_node3"><a xlink:href="mqtt__msg_8h.html#ad2fc8fef8cd7418255616ef63166c955" target="_top" xlink:title="mqtt_get_publish_data">
<polygon fill="#ffffff" stroke="#000000" points="330.5,-494.5 330.5,-513.5 448.5,-513.5 448.5,-494.5 330.5,-494.5"/>
<text text-anchor="middle" x="389.5" y="-501.5" font-family="Helvetica,sans-Serif" font-size="10.00" fill="#000000">mqtt_get_publish_data</text>
</a>
</g>
</g>
<!-- Node419&#45;&gt;Node420 -->
<g id="edge2" class="edge">
<title>Node419&#45;&gt;Node420</title>
<path fill="none" stroke="#191970" d="M258.3785,-504C276.9409,-504 299.2786,-504 320.2142,-504"/>
<polygon fill="#191970" stroke="#191970" points="320.3565,-507.5001 330.3564,-504 320.3564,-500.5001 320.3565,-507.5001"/>
</g>
<!-- Node422 -->
<g id="node5" class="node">
<title>Node422</title>
<g id="a_node5"><a xlink:href="mqtt__msg_8h.html#a5d19011be955cefc274da041bdbbd0e1" target="_top" xlink:title="mqtt_get_publish_topic">
<polygon fill="#ffffff" stroke="#000000" points="330,-532.5 330,-551.5 449,-551.5 449,-532.5 330,-532.5"/>
<text text-anchor="middle" x="389.5" y="-539.5" font-family="Helvetica,sans-Serif" font-size="10.00" fill="#000000">mqtt_get_publish_topic</text>
</a>
</g>
</g>
<!-- Node419&#45;&gt;Node422 -->
<g id="edge4" class="edge">
<title>Node419&#45;&gt;Node422</title>
<path fill="none" stroke="#191970" d="M258.3785,-513.1987C281.7573,-518.334 311.1247,-524.7846 336.1371,-530.2787"/>
<polygon fill="#191970" stroke="#191970" points="335.6825,-533.7622 346.2005,-532.4891 337.1843,-526.9252 335.6825,-533.7622"/>
</g>
<!-- Node420&#45;&gt;Node421 -->
<g id="edge3" class="edge">
<title>Node420&#45;&gt;Node421</title>
<path fill="none" stroke="#191970" d="M448.577,-504C458.1048,-504 467.8754,-504 477.128,-504"/>
<polygon fill="#191970" stroke="#191970" points="477.3138,-507.5001 487.3138,-504 477.3137,-500.5001 477.3138,-507.5001"/>
</g>
<!-- Node426&#45;&gt;Node421 -->
<g id="edge9" class="edge">
<title>Node426&#45;&gt;Node421</title>
<path fill="none" stroke="#191970" d="M251.3746,-467.1067C297.036,-468.9531 379.4511,-473.6528 449,-485 460.0286,-486.7994 471.8032,-489.3674 482.7423,-492.0358"/>
<polygon fill="#191970" stroke="#191970" points="481.9563,-495.4471 492.5083,-494.4955 483.666,-488.6591 481.9563,-495.4471"/>
</g>
<!-- Node426&#45;&gt;Node427 -->
<g id="edge10" class="edge">
<title>Node426&#45;&gt;Node427</title>
<path fill="none" stroke="#191970" d="M251.0933,-458.4015C276.2977,-452.8652 310.8323,-445.2796 339.0993,-439.0707"/>
<polygon fill="#191970" stroke="#191970" points="340.1847,-442.4158 349.201,-436.8518 338.6829,-435.5788 340.1847,-442.4158"/>
</g>
<!-- Node430 -->
<g id="node13" class="node">
<title>Node430</title>
<g id="a_node13"><a xlink:href="mqtt__msg_8c.html#a356949afe8a334d5e91bddb4b2794921" target="_top" xlink:title="fini_message">
<polygon fill="#ffffff" stroke="#000000" points="352,-190.5 352,-209.5 427,-209.5 427,-190.5 352,-190.5"/>
<text text-anchor="middle" x="389.5" y="-197.5" font-family="Helvetica,sans-Serif" font-size="10.00" fill="#000000">fini_message</text>
</a>
</g>
</g>
<!-- Node429&#45;&gt;Node430 -->
<g id="edge15" class="edge">
<title>Node429&#45;&gt;Node430</title>
<path fill="none" stroke="#191970" d="M260.1552,-228.411C285.0747,-222.9373 316.3412,-216.0696 341.8907,-210.4575"/>
<polygon fill="#191970" stroke="#191970" points="342.7186,-213.8592 351.7348,-208.2952 341.2168,-207.0222 342.7186,-213.8592"/>
</g>
<!-- Node431 -->
<g id="node14" class="node">
<title>Node431</title>
<g id="a_node14"><a xlink:href="mqtt__msg_8c.html#aae7c66cc577ac90e9535edac4abc068c" target="_top" xlink:title="init_message">
<polygon fill="#ffffff" stroke="#000000" points="352,-152.5 352,-171.5 427,-171.5 427,-152.5 352,-152.5"/>
<text text-anchor="middle" x="389.5" y="-159.5" font-family="Helvetica,sans-Serif" font-size="10.00" fill="#000000">init_message</text>
</a>
</g>
</g>
<!-- Node429&#45;&gt;Node431 -->
<g id="edge16" class="edge">
<title>Node429&#45;&gt;Node431</title>
<path fill="none" stroke="#191970" d="M268.5467,-229.6081C277.3862,-226.976 286.2145,-223.5243 294,-219 314.1147,-207.311 310.2984,-193.3726 330,-181 333.8225,-178.5995 337.9749,-176.4773 342.249,-174.6064"/>
<polygon fill="#191970" stroke="#191970" points="343.6817,-177.8043 351.7192,-170.9015 341.1313,-171.2854 343.6817,-177.8043"/>
</g>
<!-- Node432&#45;&gt;Node430 -->
<g id="edge20" class="edge">
<title>Node432&#45;&gt;Node430</title>
<path fill="none" stroke="#191970" d="M260.1552,-171.589C285.0747,-177.0627 316.3412,-183.9304 341.8907,-189.5425"/>
<polygon fill="#191970" stroke="#191970" points="341.2168,-192.9778 351.7348,-191.7048 342.7186,-186.1408 341.2168,-192.9778"/>
</g>
<!-- Node432&#45;&gt;Node431 -->
<g id="edge21" class="edge">
<title>Node432&#45;&gt;Node431</title>
<path fill="none" stroke="#191970" d="M265.6121,-162C289.4551,-162 317.991,-162 341.663,-162"/>
<polygon fill="#191970" stroke="#191970" points="341.8216,-165.5001 351.8216,-162 341.8216,-158.5001 341.8216,-165.5001"/>
</g>
<!-- Node433 -->
<g id="node16" class="node">
<title>Node433</title>
<g id="a_node16"><a xlink:href="mqtt__msg_8c.html#ac59e26babd30c6c0ace9a174e75786f3" target="_top" xlink:title="append_message_id">
<polygon fill="#ffffff" stroke="#000000" points="335,-114.5 335,-133.5 444,-133.5 444,-114.5 335,-114.5"/>
<text text-anchor="middle" x="389.5" y="-121.5" font-family="Helvetica,sans-Serif" font-size="10.00" fill="#000000">append_message_id</text>
</a>
</g>
</g>
<!-- Node432&#45;&gt;Node433 -->
<g id="edge18" class="edge">
<title>Node432&#45;&gt;Node433</title>
<path fill="none" stroke="#191970" d="M260.1552,-152.411C283.2929,-147.3287 311.9024,-141.0446 336.3268,-135.6797"/>
<polygon fill="#191970" stroke="#191970" points="337.1425,-139.084 346.1587,-133.5201 335.6406,-132.247 337.1425,-139.084"/>
</g>
<!-- Node434 -->
<g id="node17" class="node">
<title>Node434</title>
<g id="a_node17"><a xlink:href="mqtt__msg_8c.html#a9a2fb8c67ff4b104dd46e72c9e97b710" target="_top" xlink:title="fail_message">
<polygon fill="#ffffff" stroke="#000000" points="352,-76.5 352,-95.5 427,-95.5 427,-76.5 352,-76.5"/>
<text text-anchor="middle" x="389.5" y="-83.5" font-family="Helvetica,sans-Serif" font-size="10.00" fill="#000000">fail_message</text>
</a>
</g>
</g>
<!-- Node432&#45;&gt;Node434 -->
<g id="edge19" class="edge">
<title>Node432&#45;&gt;Node434</title>
<path fill="none" stroke="#191970" d="M265.6918,-154.4303C275.4727,-151.707 285.376,-148.0115 294,-143 314.1147,-131.311 310.2984,-117.3726 330,-105 333.8225,-102.5995 337.9749,-100.4773 342.249,-98.6064"/>
<polygon fill="#191970" stroke="#191970" points="343.6817,-101.8043 351.7192,-94.9015 341.1313,-95.2854 343.6817,-101.8043"/>
</g>
<!-- Node435&#45;&gt;Node430 -->
<g id="edge25" class="edge">
<title>Node435&#45;&gt;Node430</title>
<path fill="none" stroke="#191970" d="M270.1783,-132.8872C278.4688,-135.4529 286.6936,-138.7541 294,-143 314.1147,-154.689 310.2984,-168.6274 330,-181 333.8225,-183.4005 337.9749,-185.5227 342.249,-187.3936"/>
<polygon fill="#191970" stroke="#191970" points="341.1313,-190.7146 351.7192,-191.0985 343.6817,-184.1957 341.1313,-190.7146"/>
</g>
<!-- Node435&#45;&gt;Node431 -->
<g id="edge26" class="edge">
<title>Node435&#45;&gt;Node431</title>
<path fill="none" stroke="#191970" d="M260.1552,-133.589C285.0747,-139.0627 316.3412,-145.9304 341.8907,-151.5425"/>
<polygon fill="#191970" stroke="#191970" points="341.2168,-154.9778 351.7348,-153.7048 342.7186,-148.1408 341.2168,-154.9778"/>
</g>
<!-- Node435&#45;&gt;Node433 -->
<g id="edge23" class="edge">
<title>Node435&#45;&gt;Node433</title>
<path fill="none" stroke="#191970" d="M270.29,-124C287.5337,-124 306.8112,-124 324.7534,-124"/>
<polygon fill="#191970" stroke="#191970" points="324.849,-127.5001 334.8489,-124 324.8489,-120.5001 324.849,-127.5001"/>
</g>
<!-- Node435&#45;&gt;Node434 -->
<g id="edge24" class="edge">
<title>Node435&#45;&gt;Node434</title>
<path fill="none" stroke="#191970" d="M260.1552,-114.411C285.0747,-108.9373 316.3412,-102.0696 341.8907,-96.4575"/>
<polygon fill="#191970" stroke="#191970" points="342.7186,-99.8592 351.7348,-94.2952 341.2168,-93.0222 342.7186,-99.8592"/>
</g>
<!-- Node436&#45;&gt;Node430 -->
<g id="edge30" class="edge">
<title>Node436&#45;&gt;Node430</title>
<path fill="none" stroke="#191970" d="M265.0617,-90.9858C275.431,-93.8501 285.7353,-98.256 294,-105 322.9581,-128.6298 301.8702,-156.39 330,-181 333.6828,-184.222 337.9159,-186.8984 342.3911,-189.1215"/>
<polygon fill="#191970" stroke="#191970" points="341.2424,-192.4352 351.8178,-193.0777 343.9513,-185.9805 341.2424,-192.4352"/>
</g>
<!-- Node436&#45;&gt;Node431 -->
<g id="edge31" class="edge">
<title>Node436&#45;&gt;Node431</title>
<path fill="none" stroke="#191970" d="M265.2843,-93.4568C275.1973,-96.1906 285.2563,-99.9189 294,-105 314.1147,-116.689 310.2984,-130.6274 330,-143 333.8225,-145.4005 337.9749,-147.5227 342.249,-149.3936"/>
<polygon fill="#191970" stroke="#191970" points="341.1313,-152.7146 351.7192,-153.0985 343.6817,-146.1957 341.1313,-152.7146"/>
</g>
<!-- Node436&#45;&gt;Node433 -->
<g id="edge28" class="edge">
<title>Node436&#45;&gt;Node433</title>
<path fill="none" stroke="#191970" d="M260.1552,-95.589C283.2929,-100.6713 311.9024,-106.9554 336.3268,-112.3203"/>
<polygon fill="#191970" stroke="#191970" points="335.6406,-115.753 346.1587,-114.4799 337.1425,-108.916 335.6406,-115.753"/>
</g>
<!-- Node436&#45;&gt;Node434 -->
<g id="edge29" class="edge">
<title>Node436&#45;&gt;Node434</title>
<path fill="none" stroke="#191970" d="M265.1505,-86C289.0911,-86 317.8501,-86 341.678,-86"/>
<polygon fill="#191970" stroke="#191970" points="341.9008,-89.5001 351.9008,-86 341.9007,-82.5001 341.9008,-89.5001"/>
</g>
<!-- Node437&#45;&gt;Node430 -->
<g id="edge35" class="edge">
<title>Node437&#45;&gt;Node430</title>
<path fill="none" stroke="#191970" d="M263.773,-200C288.021,-200 317.4865,-200 341.7959,-200"/>
<polygon fill="#191970" stroke="#191970" points="341.8683,-203.5001 351.8683,-200 341.8682,-196.5001 341.8683,-203.5001"/>
</g>
<!-- Node437&#45;&gt;Node431 -->
<g id="edge36" class="edge">
<title>Node437&#45;&gt;Node431</title>
<path fill="none" stroke="#191970" d="M260.1552,-190.411C285.0747,-184.9373 316.3412,-178.0696 341.8907,-172.4575"/>
<polygon fill="#191970" stroke="#191970" points="342.7186,-175.8592 351.7348,-170.2952 341.2168,-169.0222 342.7186,-175.8592"/>
</g>
<!-- Node437&#45;&gt;Node433 -->
<g id="edge33" class="edge">
<title>Node437&#45;&gt;Node433</title>
<path fill="none" stroke="#191970" d="M263.6563,-192.9837C274.091,-190.2139 284.7771,-186.3596 294,-181 314.1147,-169.311 310.2984,-155.3726 330,-143 333.3145,-140.9185 336.8772,-139.0462 340.5521,-137.3656"/>
<polygon fill="#191970" stroke="#191970" points="341.9061,-140.5933 349.8409,-133.5727 339.2598,-134.1128 341.9061,-140.5933"/>
</g>
<!-- Node437&#45;&gt;Node434 -->
<g id="edge34" class="edge">
<title>Node437&#45;&gt;Node434</title>
<path fill="none" stroke="#191970" d="M263.8495,-195.342C274.625,-192.4897 285.4133,-188.0067 294,-181 322.9581,-157.3702 301.8702,-129.61 330,-105 333.6828,-101.778 337.9159,-99.1016 342.3911,-96.8785"/>
<polygon fill="#191970" stroke="#191970" points="343.9513,-100.0195 351.8178,-92.9223 341.2424,-93.5648 343.9513,-100.0195"/>
</g>
<!-- Node439 -->
<g id="node22" class="node">
<title>Node439</title>
<g id="a_node22"><a xlink:href="proto_8h.html#aeeb0162a48bf377e468e5fca672a5df1" target="_top" xlink:title="PROTO_AddRb">
<polygon fill="#ffffff" stroke="#000000" points="345.5,-38.5 345.5,-57.5 433.5,-57.5 433.5,-38.5 345.5,-38.5"/>
<text text-anchor="middle" x="389.5" y="-45.5" font-family="Helvetica,sans-Serif" font-size="10.00" fill="#000000">PROTO_AddRb</text>
</a>
</g>
</g>
<!-- Node438&#45;&gt;Node439 -->
<g id="edge38" class="edge">
<title>Node438&#45;&gt;Node439</title>
<path fill="none" stroke="#191970" d="M255.7564,-48C279.1509,-48 309.1961,-48 334.8809,-48"/>
<polygon fill="#191970" stroke="#191970" points="335.2202,-51.5001 345.2202,-48 335.2202,-44.5001 335.2202,-51.5001"/>
</g>
<!-- Node440 -->
<g id="node23" class="node">
<title>Node440</title>
<g id="a_node23"><a xlink:href="ringbuf_8h.html#a717173daf1397da584236ed52bbec10a" target="_top" xlink:title="put a character into ring buffer ">
<polygon fill="#ffffff" stroke="#000000" points="485,-38.5 485,-57.5 567,-57.5 567,-38.5 485,-38.5"/>
<text text-anchor="middle" x="526" y="-45.5" font-family="Helvetica,sans-Serif" font-size="10.00" fill="#000000">RINGBUF_Put</text>
</a>
</g>
</g>
<!-- Node439&#45;&gt;Node440 -->
<g id="edge39" class="edge">
<title>Node439&#45;&gt;Node440</title>
<path fill="none" stroke="#191970" d="M433.8176,-48C446.8447,-48 461.2036,-48 474.6322,-48"/>
<polygon fill="#191970" stroke="#191970" points="474.6823,-51.5001 484.6823,-48 474.6823,-44.5001 474.6823,-51.5001"/>
</g>
</g>
</svg>
