<?xml version="1.0" encoding="UTF-8" standalone="no"?>
<!DOCTYPE svg PUBLIC "-//W3C//DTD SVG 1.1//EN"
 "http://www.w3.org/Graphics/SVG/1.1/DTD/svg11.dtd">
<!-- Generated by graphviz version 2.39.20160927.1334 (20160927.1334)
 -->
<!-- Title: mqtt_msg_publish Pages: 1 -->
<svg width="1111pt" height="300pt"
 viewBox="0.00 0.00 1111.00 299.73" xmlns="http://www.w3.org/2000/svg" xmlns:xlink="http://www.w3.org/1999/xlink">
<g id="graph0" class="graph" transform="scale(1 1) rotate(0) translate(4 295.729)">
<title>mqtt_msg_publish</title>
<polygon fill="#ffffff" stroke="transparent" points="-4,4 -4,-295.729 1107,-295.729 1107,4 -4,4"/>
<!-- Node1 -->
<g id="node1" class="node">
<title>Node1</title>
<polygon fill="#bfbfbf" stroke="#000000" points="0,-146.229 0,-165.229 98,-165.229 98,-146.229 0,-146.229"/>
<text text-anchor="middle" x="49" y="-153.229" font-family="Helvetica,sans-Serif" font-size="10.00" fill="#000000">mqtt_msg_publish</text>
</g>
<!-- Node2 -->
<g id="node2" class="node">
<title>Node2</title>
<g id="a_node2"><a xlink:href="mqtt_8c.html#a848a6701c4c7ec3432e38ea57c003aad" target="_top" xlink:title="MQTT publish function. ">
<polygon fill="#ffffff" stroke="#000000" points="134,-146.229 134,-165.229 217,-165.229 217,-146.229 134,-146.229"/>
<text text-anchor="middle" x="175.5" y="-153.229" font-family="Helvetica,sans-Serif" font-size="10.00" fill="#000000">MQTT_Publish</text>
</a>
</g>
</g>
<!-- Node1&#45;&gt;Node2 -->
<g id="edge1" class="edge">
<title>Node1&#45;&gt;Node2</title>
<path fill="none" stroke="#191970" d="M108.344,-155.729C116.997,-155.729 125.748,-155.729 133.945,-155.729"/>
<polygon fill="#191970" stroke="#191970" points="108.27,-152.229 98.2704,-155.729 108.27,-159.229 108.27,-152.229"/>
</g>
<!-- Node3 -->
<g id="node3" class="node">
<title>Node3</title>
<g id="a_node3"><a xlink:href="en61107__request_8c.html#aa3b162cf5364986ea19e831ac2b18f76" target="_top" xlink:title="en61107_received_task">
<polygon fill="#ffffff" stroke="#000000" points="253,-272.229 253,-291.229 376,-291.229 376,-272.229 253,-272.229"/>
<text text-anchor="middle" x="314.5" y="-279.229" font-family="Helvetica,sans-Serif" font-size="10.00" fill="#000000">en61107_received_task</text>
</a>
</g>
</g>
<!-- Node2&#45;&gt;Node3 -->
<g id="edge2" class="edge">
<title>Node2&#45;&gt;Node3</title>
<path fill="none" stroke="#191970" d="M185.283,-174.179C198.091,-196.736 222.538,-234.736 253,-257.729 261.05,-263.805 270.833,-268.54 280.206,-272.137"/>
<polygon fill="#191970" stroke="#191970" points="188.271,-172.349 180.38,-165.279 182.139,-175.727 188.271,-172.349"/>
</g>
<!-- Node6 -->
<g id="node6" class="node">
<title>Node6</title>
<g id="a_node6"><a xlink:href="en61107__request_8h.html#a7384d014eb9e833f64ecf4a9f86f87be" target="_top" xlink:title="en61107_request_send">
<polygon fill="#ffffff" stroke="#000000" points="253.5,-187.229 253.5,-206.229 375.5,-206.229 375.5,-187.229 253.5,-187.229"/>
<text text-anchor="middle" x="314.5" y="-194.229" font-family="Helvetica,sans-Serif" font-size="10.00" fill="#000000">en61107_request_send</text>
</a>
</g>
</g>
<!-- Node2&#45;&gt;Node6 -->
<g id="edge5" class="edge">
<title>Node2&#45;&gt;Node6</title>
<path fill="none" stroke="#191970" d="M217.535,-168.128C238.205,-174.224 262.738,-181.461 281.955,-187.129"/>
<polygon fill="#191970" stroke="#191970" points="218.32,-164.71 207.739,-165.238 216.34,-171.424 218.32,-164.71"/>
</g>
<!-- Node8 -->
<g id="node8" class="node">
<title>Node8</title>
<g id="a_node8"><a xlink:href="user__main_8c.html#af2c051d5ceacd30f90c08d6f584deff2" target="_top" xlink:title="sample_timer_func">
<polygon fill="#ffffff" stroke="#000000" points="427.5,-146.229 427.5,-165.229 528.5,-165.229 528.5,-146.229 427.5,-146.229"/>
<text text-anchor="middle" x="478" y="-153.229" font-family="Helvetica,sans-Serif" font-size="10.00" fill="#000000">sample_timer_func</text>
</a>
</g>
</g>
<!-- Node2&#45;&gt;Node8 -->
<g id="edge22" class="edge">
<title>Node2&#45;&gt;Node8</title>
<path fill="none" stroke="#191970" d="M227.299,-155.729C283.263,-155.729 371.857,-155.729 427.365,-155.729"/>
<polygon fill="#191970" stroke="#191970" points="227.244,-152.229 217.244,-155.729 227.244,-159.229 227.244,-152.229"/>
</g>
<!-- Node9 -->
<g id="node9" class="node">
<title>Node9</title>
<g id="a_node9"><a xlink:href="user__main_8h.html#a06f2b383d99fcad9d0f37d1ca2224898" target="_top" xlink:title="mqttConnectedCb">
<polygon fill="#ffffff" stroke="#000000" points="588,-119.229 588,-138.229 685,-138.229 685,-119.229 588,-119.229"/>
<text text-anchor="middle" x="636.5" y="-126.229" font-family="Helvetica,sans-Serif" font-size="10.00" fill="#000000">mqttConnectedCb</text>
</a>
</g>
</g>
<!-- Node2&#45;&gt;Node9 -->
<g id="edge23" class="edge">
<title>Node2&#45;&gt;Node9</title>
<path fill="none" stroke="#191970" d="M227.448,-150.886C275.335,-146.581 348.403,-140.415 412,-136.729 472.544,-133.22 542.368,-131.022 587.86,-129.837"/>
<polygon fill="#191970" stroke="#191970" points="226.971,-147.415 217.328,-151.802 227.602,-154.386 226.971,-147.415"/>
</g>
<!-- Node12 -->
<g id="node12" class="node">
<title>Node12</title>
<g id="a_node12"><a xlink:href="kmp__request_8c.html#a3f6b790a06b933b78f40ade5e9a16131" target="_top" xlink:title="kmp_received_task">
<polygon fill="#ffffff" stroke="#000000" points="754.5,-7.2286 754.5,-26.2286 857.5,-26.2286 857.5,-7.2286 754.5,-7.2286"/>
<text text-anchor="middle" x="806" y="-14.2286" font-family="Helvetica,sans-Serif" font-size="10.00" fill="#000000">kmp_received_task</text>
</a>
</g>
</g>
<!-- Node2&#45;&gt;Node12 -->
<g id="edge13" class="edge">
<title>Node2&#45;&gt;Node12</title>
<path fill="none" stroke="#191970" d="M185.928,-137.301C198.956,-115.888 223.204,-80.9207 253,-60.7286 314.323,-19.171 338.78,-21.9699 412,-10.7286 533.544,7.93167 678.651,-2.57069 754.309,-10.4824"/>
<polygon fill="#191970" stroke="#191970" points="182.814,-135.691 180.751,-146.084 188.844,-139.246 182.814,-135.691"/>
</g>
<!-- Node14 -->
<g id="node14" class="node">
<title>Node14</title>
<g id="a_node14"><a xlink:href="kmp__request_8h.html#a3b022dcdc832786eb06126b5e6879604" target="_top" xlink:title="kmp_request_send">
<polygon fill="#ffffff" stroke="#000000" points="263.5,-70.2286 263.5,-89.2286 365.5,-89.2286 365.5,-70.2286 263.5,-70.2286"/>
<text text-anchor="middle" x="314.5" y="-77.2286" font-family="Helvetica,sans-Serif" font-size="10.00" fill="#000000">kmp_request_send</text>
</a>
</g>
</g>
<!-- Node2&#45;&gt;Node14 -->
<g id="edge16" class="edge">
<title>Node2&#45;&gt;Node14</title>
<path fill="none" stroke="#191970" d="M196.021,-140.146C211.215,-129.066 232.712,-114.33 253,-103.729 263.463,-98.2613 275.462,-93.3084 286.067,-89.3409"/>
<polygon fill="#191970" stroke="#191970" points="193.814,-137.424 187.86,-146.188 197.979,-143.05 193.814,-137.424"/>
</g>
<!-- Node17 -->
<g id="node17" class="node">
<title>Node17</title>
<g id="a_node17"><a xlink:href="user__main_8h.html#a53fca5688835df983e3ff1a91d387618" target="_top" xlink:title="mqttDataCb">
<polygon fill="#ffffff" stroke="#000000" points="601.5,-201.229 601.5,-220.229 671.5,-220.229 671.5,-201.229 601.5,-201.229"/>
<text text-anchor="middle" x="636.5" y="-208.229" font-family="Helvetica,sans-Serif" font-size="10.00" fill="#000000">mqttDataCb</text>
</a>
</g>
</g>
<!-- Node2&#45;&gt;Node17 -->
<g id="edge24" class="edge">
<title>Node2&#45;&gt;Node17</title>
<path fill="none" stroke="#191970" d="M191.52,-172.942C206.031,-187.251 228.793,-206.681 253,-215.729 374.157,-261.011 532.253,-234.695 601.473,-219.365"/>
<polygon fill="#191970" stroke="#191970" points="193.846,-170.315 184.35,-165.618 188.844,-175.212 193.846,-170.315"/>
</g>
<!-- Node4 -->
<g id="node4" class="node">
<title>Node4</title>
<g id="a_node4"><a xlink:href="en61107__request_8h.html#acd43242675a3f25e7c3b530eac9d8b3a" target="_top" xlink:title="en61107_request_init">
<polygon fill="#ffffff" stroke="#000000" points="580,-261.229 580,-280.229 693,-280.229 693,-261.229 580,-261.229"/>
<text text-anchor="middle" x="636.5" y="-268.229" font-family="Helvetica,sans-Serif" font-size="10.00" fill="#000000">en61107_request_init</text>
</a>
</g>
</g>
<!-- Node3&#45;&gt;Node4 -->
<g id="edge3" class="edge">
<title>Node3&#45;&gt;Node4</title>
<path fill="none" stroke="#191970" d="M386.464,-279.27C444.852,-277.276 526.031,-274.502 579.86,-272.663"/>
<polygon fill="#191970" stroke="#191970" points="386.078,-275.781 376.204,-279.621 386.318,-282.777 386.078,-275.781"/>
</g>
<!-- Node5 -->
<g id="node5" class="node">
<title>Node5</title>
<g id="a_node5"><a xlink:href="user__main_8h.html#a33113d6dedb440bd7dfa5576e325140c" target="_top" xlink:title="user_init">
<polygon fill="#ffffff" stroke="#000000" points="1049,-89.2286 1049,-108.229 1103,-108.229 1103,-89.2286 1049,-89.2286"/>
<text text-anchor="middle" x="1076" y="-96.2286" font-family="Helvetica,sans-Serif" font-size="10.00" fill="#000000">user_init</text>
</a>
</g>
</g>
<!-- Node4&#45;&gt;Node5 -->
<g id="edge4" class="edge">
<title>Node4&#45;&gt;Node5</title>
<path fill="none" stroke="#191970" d="M670.557,-257.4C755.96,-223.978 977.669,-137.211 1051.6,-108.277"/>
<polygon fill="#191970" stroke="#191970" points="669.108,-254.209 661.071,-261.113 671.659,-260.727 669.108,-254.209"/>
</g>
<!-- Node7 -->
<g id="node7" class="node">
<title>Node7</title>
<g id="a_node7"><a xlink:href="en61107__request_8h.html#a6379eaf88ea35baaf2a3ab8a0ae66fdb" target="_top" xlink:title="en61107_receive_timeout\l_timer_func">
<polygon fill="#ffffff" stroke="#000000" points="412,-184.729 412,-214.729 544,-214.729 544,-184.729 412,-184.729"/>
<text text-anchor="start" x="420" y="-202.729" font-family="Helvetica,sans-Serif" font-size="10.00" fill="#000000">en61107_receive_timeout</text>
<text text-anchor="middle" x="478" y="-191.729" font-family="Helvetica,sans-Serif" font-size="10.00" fill="#000000">_timer_func</text>
</a>
</g>
</g>
<!-- Node6&#45;&gt;Node7 -->
<g id="edge6" class="edge">
<title>Node6&#45;&gt;Node7</title>
<path fill="none" stroke="#191970" d="M385.905,-191.337C394.555,-191.415 403.363,-191.597 411.931,-191.878"/>
<polygon fill="#191970" stroke="#191970" points="385.861,-187.837 375.847,-191.295 385.832,-194.837 385.861,-187.837"/>
</g>
<!-- Node6&#45;&gt;Node8 -->
<g id="edge8" class="edge">
<title>Node6&#45;&gt;Node8</title>
<path fill="none" stroke="#191970" d="M362.331,-184.734C387.073,-178.53 416.855,-171.062 440.002,-165.257"/>
<polygon fill="#191970" stroke="#191970" points="361.269,-181.392 352.421,-187.219 362.972,-188.182 361.269,-181.392"/>
</g>
<!-- Node7&#45;&gt;Node6 -->
<g id="edge7" class="edge">
<title>Node7&#45;&gt;Node6</title>
<path fill="none" stroke="#191970" d="M401.786,-205.066C393.092,-204.95 384.313,-204.73 375.847,-204.414"/>
<polygon fill="#191970" stroke="#191970" points="401.901,-208.567 411.931,-205.155 401.962,-201.568 401.901,-208.567"/>
</g>
<!-- Node8&#45;&gt;Node9 -->
<g id="edge9" class="edge">
<title>Node8&#45;&gt;Node9</title>
<path fill="none" stroke="#191970" d="M538.547,-145.415C554.818,-142.643 572.205,-139.681 587.745,-137.034"/>
<polygon fill="#191970" stroke="#191970" points="537.856,-141.982 528.586,-147.111 539.032,-148.882 537.856,-141.982"/>
</g>
<!-- Node10 -->
<g id="node10" class="node">
<title>Node10</title>
<g id="a_node10"><a xlink:href="user__main_8c.html#a245ec00253f410a8804988bf40e1037e" target="_top" xlink:title="sample_mode_timer_func">
<polygon fill="#ffffff" stroke="#000000" points="740,-119.229 740,-138.229 872,-138.229 872,-119.229 740,-119.229"/>
<text text-anchor="middle" x="806" y="-126.229" font-family="Helvetica,sans-Serif" font-size="10.00" fill="#000000">sample_mode_timer_func</text>
</a>
</g>
</g>
<!-- Node9&#45;&gt;Node10 -->
<g id="edge10" class="edge">
<title>Node9&#45;&gt;Node10</title>
<path fill="none" stroke="#191970" d="M695.293,-128.729C709.633,-128.729 725.071,-128.729 739.733,-128.729"/>
<polygon fill="#191970" stroke="#191970" points="695.072,-125.229 685.072,-128.729 695.072,-132.229 695.072,-125.229"/>
</g>
<!-- Node11 -->
<g id="node11" class="node">
<title>Node11</title>
<g id="a_node11"><a xlink:href="user__main_8h.html#a3671381db669a16e8f6a4bf3dfb9a441" target="_top" xlink:title="system_init_done">
<polygon fill="#ffffff" stroke="#000000" points="919,-89.2286 919,-108.229 1013,-108.229 1013,-89.2286 919,-89.2286"/>
<text text-anchor="middle" x="966" y="-96.2286" font-family="Helvetica,sans-Serif" font-size="10.00" fill="#000000">system_init_done</text>
</a>
</g>
</g>
<!-- Node10&#45;&gt;Node11 -->
<g id="edge11" class="edge">
<title>Node10&#45;&gt;Node11</title>
<path fill="none" stroke="#191970" d="M867.028,-117.286C884.239,-114.059 902.692,-110.599 918.947,-107.551"/>
<polygon fill="#191970" stroke="#191970" points="866.249,-113.871 857.065,-119.154 867.539,-120.751 866.249,-113.871"/>
</g>
<!-- Node11&#45;&gt;Node5 -->
<g id="edge12" class="edge">
<title>Node11&#45;&gt;Node5</title>
<path fill="none" stroke="#191970" d="M1023.29,-98.7286C1032.16,-98.7286 1040.95,-98.7286 1048.74,-98.7286"/>
<polygon fill="#191970" stroke="#191970" points="1023.29,-95.2287 1013.29,-98.7286 1023.29,-102.229 1023.29,-95.2287"/>
</g>
<!-- Node13 -->
<g id="node13" class="node">
<title>Node13</title>
<g id="a_node13"><a xlink:href="kmp__request_8h.html#a048753ff9d6b448e2dcd8c85db0d6873" target="_top" xlink:title="kmp_request_init">
<polygon fill="#ffffff" stroke="#000000" points="919.5,-39.2286 919.5,-58.2286 1012.5,-58.2286 1012.5,-39.2286 919.5,-39.2286"/>
<text text-anchor="middle" x="966" y="-46.2286" font-family="Helvetica,sans-Serif" font-size="10.00" fill="#000000">kmp_request_init</text>
</a>
</g>
</g>
<!-- Node12&#45;&gt;Node13 -->
<g id="edge14" class="edge">
<title>Node12&#45;&gt;Node13</title>
<path fill="none" stroke="#191970" d="M863.562,-28.2409C881.909,-31.9105 901.97,-35.9226 919.438,-39.4161"/>
<polygon fill="#191970" stroke="#191970" points="864.064,-24.7722 853.572,-26.243 862.691,-31.6363 864.064,-24.7722"/>
</g>
<!-- Node13&#45;&gt;Node5 -->
<g id="edge15" class="edge">
<title>Node13&#45;&gt;Node5</title>
<path fill="none" stroke="#191970" d="M996.168,-62.4413C1014.75,-70.8865 1038.11,-81.5068 1054.75,-89.0714"/>
<polygon fill="#191970" stroke="#191970" points="997.501,-59.2027 986.949,-58.2509 994.604,-65.5753 997.501,-59.2027"/>
</g>
<!-- Node14&#45;&gt;Node8 -->
<g id="edge19" class="edge">
<title>Node14&#45;&gt;Node8</title>
<path fill="none" stroke="#191970" d="M344.322,-93.5906C377.114,-108.833 428.928,-132.918 457.461,-146.181"/>
<polygon fill="#191970" stroke="#191970" points="345.751,-90.3954 335.207,-89.3541 342.8,-96.7432 345.751,-90.3954"/>
</g>
<!-- Node15 -->
<g id="node15" class="node">
<title>Node15</title>
<g id="a_node15"><a xlink:href="kmp__request_8c.html#a0977a4640a97d389ac3b0fef0ba7a9b6" target="_top" xlink:title="kmp_receive_timeout\l_timer_func">
<polygon fill="#ffffff" stroke="#000000" points="422,-20.7286 422,-50.7286 534,-50.7286 534,-20.7286 422,-20.7286"/>
<text text-anchor="start" x="430" y="-38.7286" font-family="Helvetica,sans-Serif" font-size="10.00" fill="#000000">kmp_receive_timeout</text>
<text text-anchor="middle" x="478" y="-27.7286" font-family="Helvetica,sans-Serif" font-size="10.00" fill="#000000">_timer_func</text>
</a>
</g>
</g>
<!-- Node14&#45;&gt;Node15 -->
<g id="edge17" class="edge">
<title>Node14&#45;&gt;Node15</title>
<path fill="none" stroke="#191970" d="M342.837,-66.8455C364.523,-59.568 395.128,-50.9343 421.733,-44.4212"/>
<polygon fill="#191970" stroke="#191970" points="341.545,-63.5891 333.256,-70.1873 343.85,-70.1986 341.545,-63.5891"/>
</g>
<!-- Node16 -->
<g id="node16" class="node">
<title>Node16</title>
<g id="a_node16"><a xlink:href="user__main_8c.html#a3648c609e8dd286eb90285b08b150362" target="_top" xlink:title="kmp_request_send_timer_func">
<polygon fill="#ffffff" stroke="#000000" points="729,-70.2286 729,-89.2286 883,-89.2286 883,-70.2286 729,-70.2286"/>
<text text-anchor="middle" x="806" y="-77.2286" font-family="Helvetica,sans-Serif" font-size="10.00" fill="#000000">kmp_request_send_timer_func</text>
</a>
</g>
</g>
<!-- Node14&#45;&gt;Node16 -->
<g id="edge20" class="edge">
<title>Node14&#45;&gt;Node16</title>
<path fill="none" stroke="#191970" d="M375.96,-79.7286C465.375,-79.7286 631.269,-79.7286 728.805,-79.7286"/>
<polygon fill="#191970" stroke="#191970" points="375.708,-76.2287 365.708,-79.7286 375.708,-83.2287 375.708,-76.2287"/>
</g>
<!-- Node15&#45;&gt;Node14 -->
<g id="edge18" class="edge">
<title>Node15&#45;&gt;Node14</title>
<path fill="none" stroke="#191970" d="M433.579,-53.7639C412.636,-60.2055 387.532,-67.0395 365.784,-72.2423"/>
<polygon fill="#191970" stroke="#191970" points="434.698,-57.0812 443.186,-50.741 432.596,-50.4039 434.698,-57.0812"/>
</g>
<!-- Node16&#45;&gt;Node11 -->
<g id="edge21" class="edge">
<title>Node16&#45;&gt;Node11</title>
<path fill="none" stroke="#191970" d="M893.149,-90.0775C901.947,-91.1223 910.63,-92.1534 918.766,-93.1195"/>
<polygon fill="#191970" stroke="#191970" points="893.531,-86.5984 883.188,-88.8947 892.705,-93.5496 893.531,-86.5984"/>
</g>
<!-- Node17&#45;&gt;Node10 -->
<g id="edge25" class="edge">
<title>Node17&#45;&gt;Node10</title>
<path fill="none" stroke="#191970" d="M665.368,-196.763C699.842,-180.085 756.572,-152.641 786.35,-138.235"/>
<polygon fill="#191970" stroke="#191970" points="663.753,-193.656 656.276,-201.162 666.802,-199.957 663.753,-193.656"/>
</g>
</g>
</svg>
