<?xml version="1.0" encoding="UTF-8" standalone="no"?>
<!DOCTYPE svg PUBLIC "-//W3C//DTD SVG 1.1//EN"
 "http://www.w3.org/Graphics/SVG/1.1/DTD/svg11.dtd">
<!-- Generated by graphviz version 2.41.20170323.1842 (20170323.1842)
 -->
<!-- Title: mqtt_msg_pubrel Pages: 1 -->
<svg width="247pt" height="142pt"
 viewBox="0.00 0.00 247.00 142.00" xmlns="http://www.w3.org/2000/svg" xmlns:xlink="http://www.w3.org/1999/xlink">
<g id="graph0" class="graph" transform="scale(1 1) rotate(0) translate(4 138)">
<title>mqtt_msg_pubrel</title>
<polygon fill="#ffffff" stroke="transparent" points="-4,4 -4,-138 243,-138 243,4 -4,4"/>
<!-- Node254 -->
<g id="node1" class="node">
<title>Node254</title>
<polygon fill="#bfbfbf" stroke="#000000" points="0,-57.5 0,-76.5 94,-76.5 94,-57.5 0,-57.5"/>
<text text-anchor="middle" x="47" y="-64.5" font-family="Helvetica,sans-Serif" font-size="10.00" fill="#000000">mqtt_msg_pubrel</text>
</g>
<!-- Node255 -->
<g id="node2" class="node">
<title>Node255</title>
<g id="a_node2"><a xlink:href="mqtt__msg_8c.html#ac59e26babd30c6c0ace9a174e75786f3" target="_top" xlink:title="append_message_id">
<polygon fill="#ffffff" stroke="#000000" points="130,-114.5 130,-133.5 239,-133.5 239,-114.5 130,-114.5"/>
<text text-anchor="middle" x="184.5" y="-121.5" font-family="Helvetica,sans-Serif" font-size="10.00" fill="#000000">append_message_id</text>
</a>
</g>
</g>
<!-- Node254&#45;&gt;Node255 -->
<g id="edge1" class="edge">
<title>Node254&#45;&gt;Node255</title>
<path fill="none" stroke="#191970" d="M66.5622,-76.5873C83.2397,-84.6078 107.9448,-96.1295 130,-105 135.1131,-107.0565 140.5448,-109.1063 145.9221,-111.0574"/>
<polygon fill="#191970" stroke="#191970" points="144.8674,-114.3969 155.4621,-114.4429 147.2085,-107.8 144.8674,-114.3969"/>
</g>
<!-- Node256 -->
<g id="node3" class="node">
<title>Node256</title>
<g id="a_node3"><a xlink:href="mqtt__msg_8c.html#a9a2fb8c67ff4b104dd46e72c9e97b710" target="_top" xlink:title="fail_message">
<polygon fill="#ffffff" stroke="#000000" points="147,-76.5 147,-95.5 222,-95.5 222,-76.5 147,-76.5"/>
<text text-anchor="middle" x="184.5" y="-83.5" font-family="Helvetica,sans-Serif" font-size="10.00" fill="#000000">fail_message</text>
</a>
</g>
</g>
<!-- Node254&#45;&gt;Node256 -->
<g id="edge2" class="edge">
<title>Node254&#45;&gt;Node256</title>
<path fill="none" stroke="#191970" d="M94.3197,-73.5387C107.9386,-75.4206 122.804,-77.4747 136.4656,-79.3625"/>
<polygon fill="#191970" stroke="#191970" points="136.2526,-82.8663 146.6376,-80.7681 137.2108,-75.9321 136.2526,-82.8663"/>
</g>
<!-- Node257 -->
<g id="node4" class="node">
<title>Node257</title>
<g id="a_node4"><a xlink:href="mqtt__msg_8c.html#a356949afe8a334d5e91bddb4b2794921" target="_top" xlink:title="fini_message">
<polygon fill="#ffffff" stroke="#000000" points="147,-38.5 147,-57.5 222,-57.5 222,-38.5 147,-38.5"/>
<text text-anchor="middle" x="184.5" y="-45.5" font-family="Helvetica,sans-Serif" font-size="10.00" fill="#000000">fini_message</text>
</a>
</g>
</g>
<!-- Node254&#45;&gt;Node257 -->
<g id="edge3" class="edge">
<title>Node254&#45;&gt;Node257</title>
<path fill="none" stroke="#191970" d="M94.3197,-60.4613C107.9386,-58.5794 122.804,-56.5253 136.4656,-54.6375"/>
<polygon fill="#191970" stroke="#191970" points="137.2108,-58.0679 146.6376,-53.2319 136.2526,-51.1337 137.2108,-58.0679"/>
</g>
<!-- Node258 -->
<g id="node5" class="node">
<title>Node258</title>
<g id="a_node5"><a xlink:href="mqtt__msg_8c.html#aae7c66cc577ac90e9535edac4abc068c" target="_top" xlink:title="init_message">
<polygon fill="#ffffff" stroke="#000000" points="147,-.5 147,-19.5 222,-19.5 222,-.5 147,-.5"/>
<text text-anchor="middle" x="184.5" y="-7.5" font-family="Helvetica,sans-Serif" font-size="10.00" fill="#000000">init_message</text>
</a>
</g>
</g>
<!-- Node254&#45;&gt;Node258 -->
<g id="edge4" class="edge">
<title>Node254&#45;&gt;Node258</title>
<path fill="none" stroke="#191970" d="M66.5622,-57.4127C83.2397,-49.3922 107.9448,-37.8705 130,-29 135.1131,-26.9435 140.5448,-24.8937 145.9221,-22.9426"/>
<polygon fill="#191970" stroke="#191970" points="147.2085,-26.2 155.4621,-19.5571 144.8674,-19.6031 147.2085,-26.2"/>
</g>
</g>
</svg>
