<?xml version="1.0" encoding="UTF-8" standalone="no"?>
<!DOCTYPE svg PUBLIC "-//W3C//DTD SVG 1.1//EN"
 "http://www.w3.org/Graphics/SVG/1.1/DTD/svg11.dtd">
<!-- Generated by graphviz version 2.39.20160927.1334 (20160927.1334)
 -->
<!-- Title: MQTT_Publish Pages: 1 -->
<svg width="510pt" height="284pt"
 viewBox="0.00 0.00 510.00 284.00" xmlns="http://www.w3.org/2000/svg" xmlns:xlink="http://www.w3.org/1999/xlink">
<g id="graph0" class="graph" transform="scale(1 1) rotate(0) translate(4 280)">
<title>MQTT_Publish</title>
<polygon fill="#ffffff" stroke="transparent" points="-4,4 -4,-280 506,-280 506,4 -4,4"/>
<!-- Node1 -->
<g id="node1" class="node">
<title>Node1</title>
<polygon fill="#bfbfbf" stroke="#000000" points="0,-66.5 0,-85.5 83,-85.5 83,-66.5 0,-66.5"/>
<text text-anchor="middle" x="41.5" y="-73.5" font-family="Helvetica,sans-Serif" font-size="10.00" fill="#000000">MQTT_Publish</text>
</g>
<!-- Node2 -->
<g id="node2" class="node">
<title>Node2</title>
<g id="a_node2"><a xlink:href="mqtt__msg_8h.html#af16842423fc1d5d802a7f329fc3a9ef9" target="_top" xlink:title="mqtt_msg_publish">
<polygon fill="#ffffff" stroke="#000000" points="119,-161.5 119,-180.5 217,-180.5 217,-161.5 119,-161.5"/>
<text text-anchor="middle" x="168" y="-168.5" font-family="Helvetica,sans-Serif" font-size="10.00" fill="#000000">mqtt_msg_publish</text>
</a>
</g>
</g>
<!-- Node1&#45;&gt;Node2 -->
<g id="edge1" class="edge">
<title>Node1&#45;&gt;Node2</title>
<path fill="none" stroke="#191970" d="M54.5613,-85.8089C76.4532,-102.249 120.733,-135.503 147.028,-155.251"/>
<polygon fill="#191970" stroke="#191970" points="145.1,-158.18 155.198,-161.386 149.304,-152.582 145.1,-158.18"/>
</g>
<!-- Node8 -->
<g id="node8" class="node">
<title>Node8</title>
<g id="a_node8"><a xlink:href="queue_8h.html#acf070d5db9067c0b9598dec844313ae5" target="_top" xlink:title="QUEUE_Gets">
<polygon fill="#ffffff" stroke="#000000" points="128.5,-66.5 128.5,-85.5 207.5,-85.5 207.5,-66.5 128.5,-66.5"/>
<text text-anchor="middle" x="168" y="-73.5" font-family="Helvetica,sans-Serif" font-size="10.00" fill="#000000">QUEUE_Gets</text>
</a>
</g>
</g>
<!-- Node1&#45;&gt;Node8 -->
<g id="edge7" class="edge">
<title>Node1&#45;&gt;Node8</title>
<path fill="none" stroke="#191970" d="M83.2714,-76C94.515,-76 106.786,-76 118.411,-76"/>
<polygon fill="#191970" stroke="#191970" points="118.418,-79.5001 128.418,-76 118.418,-72.5001 118.418,-79.5001"/>
</g>
<!-- Node13 -->
<g id="node13" class="node">
<title>Node13</title>
<g id="a_node13"><a xlink:href="queue_8h.html#a0a04f14d06c5c3ee302764c5f3d7dc0c" target="_top" xlink:title="QUEUE_Puts">
<polygon fill="#ffffff" stroke="#000000" points="129,-24.5 129,-43.5 207,-43.5 207,-24.5 129,-24.5"/>
<text text-anchor="middle" x="168" y="-31.5" font-family="Helvetica,sans-Serif" font-size="10.00" fill="#000000">QUEUE_Puts</text>
</a>
</g>
</g>
<!-- Node1&#45;&gt;Node13 -->
<g id="edge12" class="edge">
<title>Node1&#45;&gt;Node13</title>
<path fill="none" stroke="#191970" d="M70.2048,-66.4695C87.7101,-60.6575 110.308,-53.1547 129.37,-46.8256"/>
<polygon fill="#191970" stroke="#191970" points="130.583,-50.1109 138.971,-43.6381 128.377,-43.4675 130.583,-50.1109"/>
</g>
<!-- Node3 -->
<g id="node3" class="node">
<title>Node3</title>
<g id="a_node3"><a xlink:href="mqtt__msg_8c.html#ac59e26babd30c6c0ace9a174e75786f3" target="_top" xlink:title="append_message_id">
<polygon fill="#ffffff" stroke="#000000" points="253,-256.5 253,-275.5 362,-275.5 362,-256.5 253,-256.5"/>
<text text-anchor="middle" x="307.5" y="-263.5" font-family="Helvetica,sans-Serif" font-size="10.00" fill="#000000">append_message_id</text>
</a>
</g>
</g>
<!-- Node2&#45;&gt;Node3 -->
<g id="edge2" class="edge">
<title>Node2&#45;&gt;Node3</title>
<path fill="none" stroke="#191970" d="M176.475,-180.747C190.781,-196.657 221.278,-228.307 253,-247 256.446,-249.031 260.143,-250.89 263.929,-252.583"/>
<polygon fill="#191970" stroke="#191970" points="262.847,-255.921 273.428,-256.447 265.484,-249.437 262.847,-255.921"/>
</g>
<!-- Node4 -->
<g id="node4" class="node">
<title>Node4</title>
<g id="a_node4"><a xlink:href="mqtt__msg_8c.html#a207c99e2058080b97c21a348d693a560" target="_top" xlink:title="append_string">
<polygon fill="#ffffff" stroke="#000000" points="267.5,-218.5 267.5,-237.5 347.5,-237.5 347.5,-218.5 267.5,-218.5"/>
<text text-anchor="middle" x="307.5" y="-225.5" font-family="Helvetica,sans-Serif" font-size="10.00" fill="#000000">append_string</text>
</a>
</g>
</g>
<!-- Node2&#45;&gt;Node4 -->
<g id="edge3" class="edge">
<title>Node2&#45;&gt;Node4</title>
<path fill="none" stroke="#191970" d="M188.06,-180.548C205.155,-188.545 230.464,-200.053 253,-209 258.18,-211.057 263.683,-213.117 269.122,-215.081"/>
<polygon fill="#191970" stroke="#191970" points="268.168,-218.456 278.763,-218.494 270.504,-211.858 268.168,-218.456"/>
</g>
<!-- Node5 -->
<g id="node5" class="node">
<title>Node5</title>
<g id="a_node5"><a xlink:href="mqtt__msg_8c.html#a9a2fb8c67ff4b104dd46e72c9e97b710" target="_top" xlink:title="fail_message">
<polygon fill="#ffffff" stroke="#000000" points="270,-180.5 270,-199.5 345,-199.5 345,-180.5 270,-180.5"/>
<text text-anchor="middle" x="307.5" y="-187.5" font-family="Helvetica,sans-Serif" font-size="10.00" fill="#000000">fail_message</text>
</a>
</g>
</g>
<!-- Node2&#45;&gt;Node5 -->
<g id="edge4" class="edge">
<title>Node2&#45;&gt;Node5</title>
<path fill="none" stroke="#191970" d="M217.182,-177.699C230.935,-179.572 245.858,-181.604 259.538,-183.468"/>
<polygon fill="#191970" stroke="#191970" points="259.337,-186.972 269.718,-184.854 260.282,-180.036 259.337,-186.972"/>
</g>
<!-- Node6 -->
<g id="node6" class="node">
<title>Node6</title>
<g id="a_node6"><a xlink:href="mqtt__msg_8c.html#a356949afe8a334d5e91bddb4b2794921" target="_top" xlink:title="fini_message">
<polygon fill="#ffffff" stroke="#000000" points="270,-142.5 270,-161.5 345,-161.5 345,-142.5 270,-142.5"/>
<text text-anchor="middle" x="307.5" y="-149.5" font-family="Helvetica,sans-Serif" font-size="10.00" fill="#000000">fini_message</text>
</a>
</g>
</g>
<!-- Node2&#45;&gt;Node6 -->
<g id="edge5" class="edge">
<title>Node2&#45;&gt;Node6</title>
<path fill="none" stroke="#191970" d="M217.182,-164.301C230.935,-162.428 245.858,-160.396 259.538,-158.532"/>
<polygon fill="#191970" stroke="#191970" points="260.282,-161.964 269.718,-157.146 259.337,-155.028 260.282,-161.964"/>
</g>
<!-- Node7 -->
<g id="node7" class="node">
<title>Node7</title>
<g id="a_node7"><a xlink:href="mqtt__msg_8c.html#aae7c66cc577ac90e9535edac4abc068c" target="_top" xlink:title="init_message">
<polygon fill="#ffffff" stroke="#000000" points="270,-104.5 270,-123.5 345,-123.5 345,-104.5 270,-104.5"/>
<text text-anchor="middle" x="307.5" y="-111.5" font-family="Helvetica,sans-Serif" font-size="10.00" fill="#000000">init_message</text>
</a>
</g>
</g>
<!-- Node2&#45;&gt;Node7 -->
<g id="edge6" class="edge">
<title>Node2&#45;&gt;Node7</title>
<path fill="none" stroke="#191970" d="M188.06,-161.452C205.155,-153.455 230.464,-141.947 253,-133 258.18,-130.943 263.683,-128.883 269.122,-126.919"/>
<polygon fill="#191970" stroke="#191970" points="270.504,-130.142 278.763,-123.506 268.168,-123.544 270.504,-130.142"/>
</g>
<!-- Node9 -->
<g id="node9" class="node">
<title>Node9</title>
<g id="a_node9"><a xlink:href="proto_8h.html#a4ce0ecd80c57cb13f47a2725036451af" target="_top" xlink:title="PROTO_ParseRb">
<polygon fill="#ffffff" stroke="#000000" points="259,-66.5 259,-85.5 356,-85.5 356,-66.5 259,-66.5"/>
<text text-anchor="middle" x="307.5" y="-73.5" font-family="Helvetica,sans-Serif" font-size="10.00" fill="#000000">PROTO_ParseRb</text>
</a>
</g>
</g>
<!-- Node8&#45;&gt;Node9 -->
<g id="edge8" class="edge">
<title>Node8&#45;&gt;Node9</title>
<path fill="none" stroke="#191970" d="M207.602,-76C220.311,-76 234.675,-76 248.465,-76"/>
<polygon fill="#191970" stroke="#191970" points="248.863,-79.5001 258.863,-76 248.863,-72.5001 248.863,-79.5001"/>
</g>
<!-- Node10 -->
<g id="node10" class="node">
<title>Node10</title>
<g id="a_node10"><a xlink:href="proto_8c.html#aef0525e6fb0717f1ae3816f5a59fbd08" target="_top" xlink:title="PROTO_Init">
<polygon fill="#ffffff" stroke="#000000" points="414.5,-114.5 414.5,-133.5 485.5,-133.5 485.5,-114.5 414.5,-114.5"/>
<text text-anchor="middle" x="450" y="-121.5" font-family="Helvetica,sans-Serif" font-size="10.00" fill="#000000">PROTO_Init</text>
</a>
</g>
</g>
<!-- Node9&#45;&gt;Node10 -->
<g id="edge9" class="edge">
<title>Node9&#45;&gt;Node10</title>
<path fill="none" stroke="#191970" d="M335.995,-85.5982C357.741,-92.9234 387.921,-103.089 411.766,-111.121"/>
<polygon fill="#191970" stroke="#191970" points="410.961,-114.543 421.555,-114.418 413.195,-107.909 410.961,-114.543"/>
</g>
<!-- Node11 -->
<g id="node11" class="node">
<title>Node11</title>
<g id="a_node11"><a xlink:href="proto_8c.html#ada6cc416001736d9b313d8871024e616" target="_top" xlink:title="PROTO_ParseByte">
<polygon fill="#ffffff" stroke="#000000" points="398,-76.5 398,-95.5 502,-95.5 502,-76.5 398,-76.5"/>
<text text-anchor="middle" x="450" y="-83.5" font-family="Helvetica,sans-Serif" font-size="10.00" fill="#000000">PROTO_ParseByte</text>
</a>
</g>
</g>
<!-- Node9&#45;&gt;Node11 -->
<g id="edge10" class="edge">
<title>Node9&#45;&gt;Node11</title>
<path fill="none" stroke="#191970" d="M356.142,-79.4135C366.285,-80.1252 377.109,-80.8848 387.668,-81.6258"/>
<polygon fill="#191970" stroke="#191970" points="387.459,-85.1197 397.68,-82.3284 387.949,-78.1369 387.459,-85.1197"/>
</g>
<!-- Node12 -->
<g id="node12" class="node">
<title>Node12</title>
<g id="a_node12"><a xlink:href="ringbuf_8h.html#a2b4ae6481762403eec1f2072eb30217a" target="_top" xlink:title="get a character from ring buffer ">
<polygon fill="#ffffff" stroke="#000000" points="408.5,-38.5 408.5,-57.5 491.5,-57.5 491.5,-38.5 408.5,-38.5"/>
<text text-anchor="middle" x="450" y="-45.5" font-family="Helvetica,sans-Serif" font-size="10.00" fill="#000000">RINGBUF_Get</text>
</a>
</g>
</g>
<!-- Node9&#45;&gt;Node12 -->
<g id="edge11" class="edge">
<title>Node9&#45;&gt;Node12</title>
<path fill="none" stroke="#191970" d="M356.142,-66.4423C369.767,-63.7652 384.622,-60.8462 398.411,-58.1368"/>
<polygon fill="#191970" stroke="#191970" points="399.093,-61.5698 408.231,-56.2073 397.743,-54.7011 399.093,-61.5698"/>
</g>
<!-- Node14 -->
<g id="node14" class="node">
<title>Node14</title>
<g id="a_node14"><a xlink:href="proto_8h.html#aeeb0162a48bf377e468e5fca672a5df1" target="_top" xlink:title="PROTO_AddRb">
<polygon fill="#ffffff" stroke="#000000" points="263.5,-19.5 263.5,-38.5 351.5,-38.5 351.5,-19.5 263.5,-19.5"/>
<text text-anchor="middle" x="307.5" y="-26.5" font-family="Helvetica,sans-Serif" font-size="10.00" fill="#000000">PROTO_AddRb</text>
</a>
</g>
</g>
<!-- Node13&#45;&gt;Node14 -->
<g id="edge13" class="edge">
<title>Node13&#45;&gt;Node14</title>
<path fill="none" stroke="#191970" d="M207.23,-32.5939C221.373,-32.087 237.601,-31.5053 252.824,-30.9597"/>
<polygon fill="#191970" stroke="#191970" points="253.295,-34.4452 263.164,-30.5891 253.045,-27.4496 253.295,-34.4452"/>
</g>
<!-- Node15 -->
<g id="node15" class="node">
<title>Node15</title>
<g id="a_node15"><a xlink:href="ringbuf_8h.html#a717173daf1397da584236ed52bbec10a" target="_top" xlink:title="put a character into ring buffer ">
<polygon fill="#ffffff" stroke="#000000" points="409,-0.5 409,-19.5 491,-19.5 491,-0.5 409,-0.5"/>
<text text-anchor="middle" x="450" y="-7.5" font-family="Helvetica,sans-Serif" font-size="10.00" fill="#000000">RINGBUF_Put</text>
</a>
</g>
</g>
<!-- Node14&#45;&gt;Node15 -->
<g id="edge14" class="edge">
<title>Node14&#45;&gt;Node15</title>
<path fill="none" stroke="#191970" d="M351.807,-23.0924C366.544,-21.1275 383.084,-18.9221 398.328,-16.8896"/>
<polygon fill="#191970" stroke="#191970" points="399.187,-20.3061 408.637,-15.5151 398.262,-13.3675 399.187,-20.3061"/>
</g>
</g>
</svg>
