<?xml version="1.0" encoding="UTF-8" standalone="no"?>
<!DOCTYPE svg PUBLIC "-//W3C//DTD SVG 1.1//EN"
 "http://www.w3.org/Graphics/SVG/1.1/DTD/svg11.dtd">
<!-- Generated by graphviz version 2.41.20170323.1842 (20170323.1842)
 -->
<!-- Title: mqtt_msg_connect Pages: 1 -->
<svg width="1027pt" height="85pt"
 viewBox="0.00 0.00 1027.00 85.00" xmlns="http://www.w3.org/2000/svg" xmlns:xlink="http://www.w3.org/1999/xlink">
<g id="graph0" class="graph" transform="scale(1 1) rotate(0) translate(4 81)">
<title>mqtt_msg_connect</title>
<polygon fill="#ffffff" stroke="transparent" points="-4,4 -4,-81 1023,-81 1023,4 -4,4"/>
<!-- Node127 -->
<g id="node1" class="node">
<title>Node127</title>
<polygon fill="#bfbfbf" stroke="#000000" points="0,-38.5 0,-57.5 101,-57.5 101,-38.5 0,-38.5"/>
<text text-anchor="middle" x="50.5" y="-45.5" font-family="Helvetica,sans-Serif" font-size="10.00" fill="#000000">mqtt_msg_connect</text>
</g>
<!-- Node128 -->
<g id="node2" class="node">
<title>Node128</title>
<g id="a_node2"><a xlink:href="mqtt__msg_8h.html#affd61b4be51d1e29e51dfbc42489ba36" target="_top" xlink:title="mqtt_get_retain">
<polygon fill="#ffffff" stroke="#000000" points="161.5,-57.5 161.5,-76.5 247.5,-76.5 247.5,-57.5 161.5,-57.5"/>
<text text-anchor="middle" x="204.5" y="-64.5" font-family="Helvetica,sans-Serif" font-size="10.00" fill="#000000">mqtt_get_retain</text>
</a>
</g>
</g>
<!-- Node127&#45;&gt;Node128 -->
<g id="edge1" class="edge">
<title>Node127&#45;&gt;Node128</title>
<path fill="none" stroke="#191970" d="M111.575,-55.5352C128.2577,-57.5935 145.9833,-59.7804 161.4313,-61.6863"/>
<polygon fill="#191970" stroke="#191970" points="111.7055,-52.0249 101.3522,-54.274 110.8483,-58.9722 111.7055,-52.0249"/>
</g>
<!-- Node129 -->
<g id="node3" class="node">
<title>Node129</title>
<g id="a_node3"><a xlink:href="mqtt_8c.html#a36ecd969af1b9c87856f01be064a98cc" target="_top" xlink:title="Tcp client connect success callback function. ">
<polygon fill="#ffffff" stroke="#000000" points="137,-19.5 137,-38.5 272,-38.5 272,-19.5 137,-19.5"/>
<text text-anchor="middle" x="204.5" y="-26.5" font-family="Helvetica,sans-Serif" font-size="10.00" fill="#000000">mqtt_tcpclient_connect_cb</text>
</a>
</g>
</g>
<!-- Node127&#45;&gt;Node129 -->
<g id="edge2" class="edge">
<title>Node127&#45;&gt;Node129</title>
<path fill="none" stroke="#191970" d="M111.4177,-40.4842C119.8011,-39.4499 128.4507,-38.3827 136.9446,-37.3348"/>
<polygon fill="#191970" stroke="#191970" points="110.8483,-37.0278 101.3522,-41.726 111.7055,-43.9751 110.8483,-37.0278"/>
</g>
<!-- Node130 -->
<g id="node4" class="node">
<title>Node130</title>
<g id="a_node4"><a xlink:href="mqtt_8c.html#ad34b681cb2f7473d8fc786c7ed468db5" target="_top" xlink:title="Begin connect to MQTT broker. ">
<polygon fill="#ffffff" stroke="#000000" points="308,-19.5 308,-38.5 396,-38.5 396,-19.5 308,-19.5"/>
<text text-anchor="middle" x="352" y="-26.5" font-family="Helvetica,sans-Serif" font-size="10.00" fill="#000000">MQTT_Connect</text>
</a>
</g>
</g>
<!-- Node129&#45;&gt;Node130 -->
<g id="edge3" class="edge">
<title>Node129&#45;&gt;Node130</title>
<path fill="none" stroke="#191970" d="M282.4528,-29C291.1756,-29 299.8197,-29 307.895,-29"/>
<polygon fill="#191970" stroke="#191970" points="282.2063,-25.5001 272.2062,-29 282.2062,-32.5001 282.2063,-25.5001"/>
</g>
<!-- Node131 -->
<g id="node5" class="node">
<title>Node131</title>
<g id="a_node5"><a xlink:href="mqtt_8c.html#a9d88fa6efb9163d4dbf9dc750a8d4ed0" target="_top" xlink:title="MQTT_Task">
<polygon fill="#ffffff" stroke="#000000" points="432,-38.5 432,-57.5 504,-57.5 504,-38.5 432,-38.5"/>
<text text-anchor="middle" x="468" y="-45.5" font-family="Helvetica,sans-Serif" font-size="10.00" fill="#000000">MQTT_Task</text>
</a>
</g>
</g>
<!-- Node130&#45;&gt;Node131 -->
<g id="edge4" class="edge">
<title>Node130&#45;&gt;Node131</title>
<path fill="none" stroke="#191970" d="M406.2705,-37.8891C414.9449,-39.3099 423.731,-40.749 431.8484,-42.0786"/>
<polygon fill="#191970" stroke="#191970" points="406.6198,-34.3998 396.1855,-36.2373 405.4883,-41.3077 406.6198,-34.3998"/>
</g>
<!-- Node136 -->
<g id="node10" class="node">
<title>Node136</title>
<g id="a_node10"><a xlink:href="user__main_8h.html#a7a3bf0cc09d98adc72f4e34d26ce3fa1" target="_top" xlink:title="wifi_changed_cb">
<polygon fill="#ffffff" stroke="#000000" points="540,-.5 540,-19.5 631,-19.5 631,-.5 540,-.5"/>
<text text-anchor="middle" x="585.5" y="-7.5" font-family="Helvetica,sans-Serif" font-size="10.00" fill="#000000">wifi_changed_cb</text>
</a>
</g>
</g>
<!-- Node130&#45;&gt;Node136 -->
<g id="edge9" class="edge">
<title>Node130&#45;&gt;Node136</title>
<path fill="none" stroke="#191970" d="M406.1768,-24.5916C446.7275,-21.292 501.5728,-16.8292 539.8925,-13.7111"/>
<polygon fill="#191970" stroke="#191970" points="405.8772,-21.1043 396.1941,-25.4039 406.445,-28.0813 405.8772,-21.1043"/>
</g>
<!-- Node132 -->
<g id="node6" class="node">
<title>Node132</title>
<g id="a_node6"><a xlink:href="mqtt_8c.html#a25cb7ac079d1d119250dac075c45acf1" target="_top" xlink:title="MQTT initialization mqtt client function. ">
<polygon fill="#ffffff" stroke="#000000" points="541,-38.5 541,-57.5 630,-57.5 630,-38.5 541,-38.5"/>
<text text-anchor="middle" x="585.5" y="-45.5" font-family="Helvetica,sans-Serif" font-size="10.00" fill="#000000">MQTT_InitClient</text>
</a>
</g>
</g>
<!-- Node131&#45;&gt;Node132 -->
<g id="edge5" class="edge">
<title>Node131&#45;&gt;Node132</title>
<path fill="none" stroke="#191970" d="M514.2765,-48C523.0438,-48 532.1996,-48 540.9134,-48"/>
<polygon fill="#191970" stroke="#191970" points="514.2127,-44.5001 504.2126,-48 514.2126,-51.5001 514.2127,-44.5001"/>
</g>
<!-- Node133 -->
<g id="node7" class="node">
<title>Node133</title>
<g id="a_node7"><a xlink:href="user__main_8c.html#a245ec00253f410a8804988bf40e1037e" target="_top" xlink:title="sample_mode_timer_func">
<polygon fill="#ffffff" stroke="#000000" points="667,-19.5 667,-38.5 799,-38.5 799,-19.5 667,-19.5"/>
<text text-anchor="middle" x="733" y="-26.5" font-family="Helvetica,sans-Serif" font-size="10.00" fill="#000000">sample_mode_timer_func</text>
</a>
</g>
</g>
<!-- Node132&#45;&gt;Node133 -->
<g id="edge6" class="edge">
<title>Node132&#45;&gt;Node133</title>
<path fill="none" stroke="#191970" d="M640.1965,-40.9544C648.9273,-39.8297 658.0405,-38.6558 666.9995,-37.5018"/>
<polygon fill="#191970" stroke="#191970" points="639.626,-37.4988 630.1551,-42.2478 640.5204,-44.4415 639.626,-37.4988"/>
</g>
<!-- Node134 -->
<g id="node8" class="node">
<title>Node134</title>
<g id="a_node8"><a xlink:href="user__main_8h.html#a3671381db669a16e8f6a4bf3dfb9a441" target="_top" xlink:title="system_init_done">
<polygon fill="#ffffff" stroke="#000000" points="835,-19.5 835,-38.5 929,-38.5 929,-19.5 835,-19.5"/>
<text text-anchor="middle" x="882" y="-26.5" font-family="Helvetica,sans-Serif" font-size="10.00" fill="#000000">system_init_done</text>
</a>
</g>
</g>
<!-- Node133&#45;&gt;Node134 -->
<g id="edge7" class="edge">
<title>Node133&#45;&gt;Node134</title>
<path fill="none" stroke="#191970" d="M809.361,-29C818.0092,-29 826.624,-29 834.7387,-29"/>
<polygon fill="#191970" stroke="#191970" points="809.2213,-25.5001 799.2213,-29 809.2212,-32.5001 809.2213,-25.5001"/>
</g>
<!-- Node135 -->
<g id="node9" class="node">
<title>Node135</title>
<g id="a_node9"><a xlink:href="user__main_8h.html#a33113d6dedb440bd7dfa5576e325140c" target="_top" xlink:title="user_init">
<polygon fill="#ffffff" stroke="#000000" points="965,-19.5 965,-38.5 1019,-38.5 1019,-19.5 965,-19.5"/>
<text text-anchor="middle" x="992" y="-26.5" font-family="Helvetica,sans-Serif" font-size="10.00" fill="#000000">user_init</text>
</a>
</g>
</g>
<!-- Node134&#45;&gt;Node135 -->
<g id="edge8" class="edge">
<title>Node134&#45;&gt;Node135</title>
<path fill="none" stroke="#191970" d="M939.2886,-29C948.1598,-29 956.9515,-29 964.7383,-29"/>
<polygon fill="#191970" stroke="#191970" points="939.2883,-25.5001 929.2883,-29 939.2882,-32.5001 939.2883,-25.5001"/>
</g>
<!-- Node136&#45;&gt;Node133 -->
<g id="edge10" class="edge">
<title>Node136&#45;&gt;Node133</title>
<path fill="none" stroke="#191970" d="M641.3385,-17.1928C649.6756,-18.2667 658.3377,-19.3825 666.8626,-20.4806"/>
<polygon fill="#191970" stroke="#191970" points="641.7266,-13.7139 631.3614,-15.9076 640.8323,-20.6566 641.7266,-13.7139"/>
</g>
</g>
</svg>
