<?xml version="1.0" encoding="UTF-8" standalone="no"?>
<!DOCTYPE svg PUBLIC "-//W3C//DTD SVG 1.1//EN"
 "http://www.w3.org/Graphics/SVG/1.1/DTD/svg11.dtd">
<!-- Generated by graphviz version 2.41.20170323.1842 (20170323.1842)
 -->
<!-- Title: mqtt_get_qos Pages: 1 -->
<svg width="1415pt" height="178pt"
 viewBox="0.00 0.00 1415.00 177.80" xmlns="http://www.w3.org/2000/svg" xmlns:xlink="http://www.w3.org/1999/xlink">
<g id="graph0" class="graph" transform="scale(1 1) rotate(0) translate(4 173.7994)">
<title>mqtt_get_qos</title>
<polygon fill="#ffffff" stroke="transparent" points="-4,4 -4,-173.7994 1411,-173.7994 1411,4 -4,4"/>
<!-- Node56 -->
<g id="node1" class="node">
<title>Node56</title>
<polygon fill="#bfbfbf" stroke="#000000" points="0,-33.3157 0,-52.3157 77,-52.3157 77,-33.3157 0,-33.3157"/>
<text text-anchor="middle" x="38.5" y="-40.3157" font-family="Helvetica,sans-Serif" font-size="10.00" fill="#000000">mqtt_get_qos</text>
</g>
<!-- Node57 -->
<g id="node2" class="node">
<title>Node57</title>
<g id="a_node2"><a xlink:href="mqtt__msg_8c.html#a978c9ffc0dda04260bdf808da49f7ba0" target="_top" xlink:title="mqtt_get_id">
<polygon fill="#ffffff" stroke="#000000" points="274,-90.3157 274,-109.3157 343,-109.3157 343,-90.3157 274,-90.3157"/>
<text text-anchor="middle" x="308.5" y="-97.3157" font-family="Helvetica,sans-Serif" font-size="10.00" fill="#000000">mqtt_get_id</text>
</a>
</g>
</g>
<!-- Node56&#45;&gt;Node57 -->
<g id="edge1" class="edge">
<title>Node56&#45;&gt;Node57</title>
<path fill="none" stroke="#191970" d="M83.8116,-54.8162C93.4233,-57.237 103.5272,-59.689 113,-61.8157 169.0025,-74.3886 234.5789,-86.6339 273.7656,-93.6899"/>
<polygon fill="#191970" stroke="#191970" points="84.5752,-51.399 74.0204,-52.3198 82.8457,-58.182 84.5752,-51.399"/>
</g>
<!-- Node65 -->
<g id="node10" class="node">
<title>Node65</title>
<g id="a_node10"><a xlink:href="mqtt_8c.html#af470856972320b9c02da9fcb6f419fd0" target="_top" xlink:title="Client received callback function. ">
<polygon fill="#ffffff" stroke="#000000" points="386,-14.3157 386,-33.3157 489,-33.3157 489,-14.3157 386,-14.3157"/>
<text text-anchor="middle" x="437.5" y="-21.3157" font-family="Helvetica,sans-Serif" font-size="10.00" fill="#000000">mqtt_tcpclient_recv</text>
</a>
</g>
</g>
<!-- Node56&#45;&gt;Node65 -->
<g id="edge21" class="edge">
<title>Node56&#45;&gt;Node65</title>
<path fill="none" stroke="#191970" d="M81.9218,-30.7543C92.0655,-28.212 102.8669,-25.7249 113,-23.8157 216.8441,-4.2497 244.9321,6.4603 350,-4.8157 367.311,-6.6735 386.2229,-10.5425 402.0215,-14.3072"/>
<polygon fill="#191970" stroke="#191970" points="80.8586,-27.4138 72.0465,-33.2957 82.6033,-34.1929 80.8586,-27.4138"/>
</g>
<!-- Node69 -->
<g id="node14" class="node">
<title>Node69</title>
<g id="a_node14"><a xlink:href="mqtt__msg_8c.html#ad2fc8fef8cd7418255616ef63166c955" target="_top" xlink:title="mqtt_get_publish_data">
<polygon fill="#ffffff" stroke="#000000" points="113,-33.3157 113,-52.3157 231,-52.3157 231,-33.3157 113,-33.3157"/>
<text text-anchor="middle" x="172" y="-40.3157" font-family="Helvetica,sans-Serif" font-size="10.00" fill="#000000">mqtt_get_publish_data</text>
</a>
</g>
</g>
<!-- Node56&#45;&gt;Node69 -->
<g id="edge17" class="edge">
<title>Node56&#45;&gt;Node69</title>
<path fill="none" stroke="#191970" d="M87.3559,-42.8157C95.6432,-42.8157 104.3278,-42.8157 112.8453,-42.8157"/>
<polygon fill="#191970" stroke="#191970" points="87.1138,-39.3158 77.1137,-42.8157 87.1137,-46.3158 87.1138,-39.3158"/>
</g>
<!-- Node58 -->
<g id="node3" class="node">
<title>Node58</title>
<g id="a_node3"><a xlink:href="mqtt__msg_8h.html#affd61b4be51d1e29e51dfbc42489ba36" target="_top" xlink:title="mqtt_get_retain">
<polygon fill="#ffffff" stroke="#000000" points="394.5,-52.3157 394.5,-71.3157 480.5,-71.3157 480.5,-52.3157 394.5,-52.3157"/>
<text text-anchor="middle" x="437.5" y="-59.3157" font-family="Helvetica,sans-Serif" font-size="10.00" fill="#000000">mqtt_get_retain</text>
</a>
</g>
</g>
<!-- Node57&#45;&gt;Node58 -->
<g id="edge2" class="edge">
<title>Node57&#45;&gt;Node58</title>
<path fill="none" stroke="#191970" d="M351.054,-87.2804C368.603,-82.1109 388.6127,-76.2166 404.9583,-71.4016"/>
<polygon fill="#191970" stroke="#191970" points="349.6556,-84.0435 341.0521,-90.2267 351.6336,-90.7583 349.6556,-84.0435"/>
</g>
<!-- Node59 -->
<g id="node4" class="node">
<title>Node59</title>
<g id="a_node4"><a xlink:href="mqtt_8c.html#ad8ba75844d580447adc10eee6aba039d" target="_top" xlink:title="mqtt_send_keepalive">
<polygon fill="#ffffff" stroke="#000000" points="537,-128.3157 537,-147.3157 648,-147.3157 648,-128.3157 537,-128.3157"/>
<text text-anchor="middle" x="592.5" y="-135.3157" font-family="Helvetica,sans-Serif" font-size="10.00" fill="#000000">mqtt_send_keepalive</text>
</a>
</g>
</g>
<!-- Node57&#45;&gt;Node59 -->
<g id="edge3" class="edge">
<title>Node57&#45;&gt;Node59</title>
<path fill="none" stroke="#191970" d="M353.1676,-108.3804C363.8994,-110.3008 375.3408,-112.2351 386,-113.8157 436.8748,-121.3596 495.0955,-127.9414 536.7204,-132.2947"/>
<polygon fill="#191970" stroke="#191970" points="353.6098,-104.9035 343.1446,-106.5555 352.3558,-111.7902 353.6098,-104.9035"/>
</g>
<!-- Node60 -->
<g id="node5" class="node">
<title>Node60</title>
<g id="a_node5"><a xlink:href="mqtt_8c.html#a9d88fa6efb9163d4dbf9dc750a8d4ed0" target="_top" xlink:title="MQTT_Task">
<polygon fill="#ffffff" stroke="#000000" points="820,-128.3157 820,-147.3157 892,-147.3157 892,-128.3157 820,-128.3157"/>
<text text-anchor="middle" x="856" y="-135.3157" font-family="Helvetica,sans-Serif" font-size="10.00" fill="#000000">MQTT_Task</text>
</a>
</g>
</g>
<!-- Node57&#45;&gt;Node60 -->
<g id="edge16" class="edge">
<title>Node57&#45;&gt;Node60</title>
<path fill="none" stroke="#191970" d="M336.185,-113.9753C350.6929,-120.8734 368.9488,-128.7514 386,-133.8157 555.7415,-184.2291 608.1239,-172.3404 784,-151.8157 795.7629,-150.4429 808.4814,-148.22 819.9088,-145.9457"/>
<polygon fill="#191970" stroke="#191970" points="337.3235,-110.6367 326.8007,-109.403 334.2574,-116.9295 337.3235,-110.6367"/>
</g>
<!-- Node57&#45;&gt;Node65 -->
<g id="edge9" class="edge">
<title>Node57&#45;&gt;Node65</title>
<path fill="none" stroke="#191970" d="M327.4068,-83.55C342.5063,-71.1611 364.6083,-54.3302 386,-42.8157 392.6294,-39.2473 400.0715,-36.0719 407.1935,-33.3868"/>
<polygon fill="#191970" stroke="#191970" points="324.8111,-81.158 319.384,-90.2573 329.301,-86.5285 324.8111,-81.158"/>
</g>
<!-- Node66 -->
<g id="node11" class="node">
<title>Node66</title>
<g id="a_node11"><a xlink:href="mqtt_8c.html#a36ecd969af1b9c87856f01be064a98cc" target="_top" xlink:title="Tcp client connect success callback function. ">
<polygon fill="#ffffff" stroke="#000000" points="525,-90.3157 525,-109.3157 660,-109.3157 660,-90.3157 525,-90.3157"/>
<text text-anchor="middle" x="592.5" y="-97.3157" font-family="Helvetica,sans-Serif" font-size="10.00" fill="#000000">mqtt_tcpclient_connect_cb</text>
</a>
</g>
</g>
<!-- Node57&#45;&gt;Node66 -->
<g id="edge15" class="edge">
<title>Node57&#45;&gt;Node66</title>
<path fill="none" stroke="#191970" d="M353.3206,-99.8157C399.4554,-99.8157 471.8934,-99.8157 524.9712,-99.8157"/>
<polygon fill="#191970" stroke="#191970" points="353.0401,-96.3158 343.04,-99.8157 353.04,-103.3158 353.0401,-96.3158"/>
</g>
<!-- Node59&#45;&gt;Node60 -->
<g id="edge4" class="edge">
<title>Node59&#45;&gt;Node60</title>
<path fill="none" stroke="#191970" d="M658.3572,-137.8157C709.4806,-137.8157 778.4302,-137.8157 819.9177,-137.8157"/>
<polygon fill="#191970" stroke="#191970" points="658.0596,-134.3158 648.0596,-137.8157 658.0596,-141.3158 658.0596,-134.3158"/>
</g>
<!-- Node61 -->
<g id="node6" class="node">
<title>Node61</title>
<g id="a_node6"><a xlink:href="mqtt_8c.html#a25cb7ac079d1d119250dac075c45acf1" target="_top" xlink:title="MQTT initialization mqtt client function. ">
<polygon fill="#ffffff" stroke="#000000" points="929,-128.3157 929,-147.3157 1018,-147.3157 1018,-128.3157 929,-128.3157"/>
<text text-anchor="middle" x="973.5" y="-135.3157" font-family="Helvetica,sans-Serif" font-size="10.00" fill="#000000">MQTT_InitClient</text>
</a>
</g>
</g>
<!-- Node60&#45;&gt;Node61 -->
<g id="edge5" class="edge">
<title>Node60&#45;&gt;Node61</title>
<path fill="none" stroke="#191970" d="M902.2765,-137.8157C911.0438,-137.8157 920.1996,-137.8157 928.9134,-137.8157"/>
<polygon fill="#191970" stroke="#191970" points="902.2127,-134.3158 892.2126,-137.8157 902.2126,-141.3158 902.2127,-134.3158"/>
</g>
<!-- Node62 -->
<g id="node7" class="node">
<title>Node62</title>
<g id="a_node7"><a xlink:href="user__main_8c.html#a245ec00253f410a8804988bf40e1037e" target="_top" xlink:title="sample_mode_timer_func">
<polygon fill="#ffffff" stroke="#000000" points="1055,-109.3157 1055,-128.3157 1187,-128.3157 1187,-109.3157 1055,-109.3157"/>
<text text-anchor="middle" x="1121" y="-116.3157" font-family="Helvetica,sans-Serif" font-size="10.00" fill="#000000">sample_mode_timer_func</text>
</a>
</g>
</g>
<!-- Node61&#45;&gt;Node62 -->
<g id="edge6" class="edge">
<title>Node61&#45;&gt;Node62</title>
<path fill="none" stroke="#191970" d="M1028.1965,-130.77C1036.9273,-129.6454 1046.0405,-128.4715 1054.9995,-127.3174"/>
<polygon fill="#191970" stroke="#191970" points="1027.626,-127.3145 1018.1551,-132.0635 1028.5204,-134.2571 1027.626,-127.3145"/>
</g>
<!-- Node63 -->
<g id="node8" class="node">
<title>Node63</title>
<g id="a_node8"><a xlink:href="user__main_8h.html#a3671381db669a16e8f6a4bf3dfb9a441" target="_top" xlink:title="system_init_done">
<polygon fill="#ffffff" stroke="#000000" points="1223,-109.3157 1223,-128.3157 1317,-128.3157 1317,-109.3157 1223,-109.3157"/>
<text text-anchor="middle" x="1270" y="-116.3157" font-family="Helvetica,sans-Serif" font-size="10.00" fill="#000000">system_init_done</text>
</a>
</g>
</g>
<!-- Node62&#45;&gt;Node63 -->
<g id="edge7" class="edge">
<title>Node62&#45;&gt;Node63</title>
<path fill="none" stroke="#191970" d="M1197.361,-118.8157C1206.0092,-118.8157 1214.624,-118.8157 1222.7387,-118.8157"/>
<polygon fill="#191970" stroke="#191970" points="1197.2213,-115.3158 1187.2213,-118.8157 1197.2212,-122.3158 1197.2213,-115.3158"/>
</g>
<!-- Node64 -->
<g id="node9" class="node">
<title>Node64</title>
<g id="a_node9"><a xlink:href="user__main_8h.html#a33113d6dedb440bd7dfa5576e325140c" target="_top" xlink:title="user_init">
<polygon fill="#ffffff" stroke="#000000" points="1353,-109.3157 1353,-128.3157 1407,-128.3157 1407,-109.3157 1353,-109.3157"/>
<text text-anchor="middle" x="1380" y="-116.3157" font-family="Helvetica,sans-Serif" font-size="10.00" fill="#000000">user_init</text>
</a>
</g>
</g>
<!-- Node63&#45;&gt;Node64 -->
<g id="edge8" class="edge">
<title>Node63&#45;&gt;Node64</title>
<path fill="none" stroke="#191970" d="M1327.2886,-118.8157C1336.1598,-118.8157 1344.9515,-118.8157 1352.7383,-118.8157"/>
<polygon fill="#191970" stroke="#191970" points="1327.2883,-115.3158 1317.2883,-118.8157 1327.2882,-122.3158 1327.2883,-115.3158"/>
</g>
<!-- Node65&#45;&gt;Node66 -->
<g id="edge10" class="edge">
<title>Node65&#45;&gt;Node66</title>
<path fill="none" stroke="#191970" d="M475.1603,-36.9627C479.8639,-38.823 484.5735,-40.7941 489,-42.8157 521.0944,-57.4735 556.7835,-78.1656 576.749,-90.1666"/>
<polygon fill="#191970" stroke="#191970" points="476.1971,-33.6123 465.6063,-33.3193 473.7028,-40.1529 476.1971,-33.6123"/>
</g>
<!-- Node67 -->
<g id="node12" class="node">
<title>Node67</title>
<g id="a_node12"><a xlink:href="mqtt_8c.html#ad34b681cb2f7473d8fc786c7ed468db5" target="_top" xlink:title="Begin connect to MQTT broker. ">
<polygon fill="#ffffff" stroke="#000000" points="696,-90.3157 696,-109.3157 784,-109.3157 784,-90.3157 696,-90.3157"/>
<text text-anchor="middle" x="740" y="-97.3157" font-family="Helvetica,sans-Serif" font-size="10.00" fill="#000000">MQTT_Connect</text>
</a>
</g>
</g>
<!-- Node66&#45;&gt;Node67 -->
<g id="edge11" class="edge">
<title>Node66&#45;&gt;Node67</title>
<path fill="none" stroke="#191970" d="M670.4528,-99.8157C679.1756,-99.8157 687.8197,-99.8157 695.895,-99.8157"/>
<polygon fill="#191970" stroke="#191970" points="670.2063,-96.3158 660.2062,-99.8157 670.2062,-103.3158 670.2063,-96.3158"/>
</g>
<!-- Node67&#45;&gt;Node60 -->
<g id="edge12" class="edge">
<title>Node67&#45;&gt;Node60</title>
<path fill="none" stroke="#191970" d="M779.1528,-112.6416C794.7176,-117.7404 812.3141,-123.5048 826.7377,-128.2297"/>
<polygon fill="#191970" stroke="#191970" points="779.8644,-109.1917 769.2717,-109.4047 777.6852,-115.8439 779.8644,-109.1917"/>
</g>
<!-- Node68 -->
<g id="node13" class="node">
<title>Node68</title>
<g id="a_node13"><a xlink:href="user__main_8h.html#a7a3bf0cc09d98adc72f4e34d26ce3fa1" target="_top" xlink:title="wifi_changed_cb">
<polygon fill="#ffffff" stroke="#000000" points="928,-90.3157 928,-109.3157 1019,-109.3157 1019,-90.3157 928,-90.3157"/>
<text text-anchor="middle" x="973.5" y="-97.3157" font-family="Helvetica,sans-Serif" font-size="10.00" fill="#000000">wifi_changed_cb</text>
</a>
</g>
</g>
<!-- Node67&#45;&gt;Node68 -->
<g id="edge13" class="edge">
<title>Node67&#45;&gt;Node68</title>
<path fill="none" stroke="#191970" d="M794.4347,-99.8157C834.9598,-99.8157 889.654,-99.8157 927.8925,-99.8157"/>
<polygon fill="#191970" stroke="#191970" points="794.1941,-96.3158 784.1941,-99.8157 794.194,-103.3158 794.1941,-96.3158"/>
</g>
<!-- Node68&#45;&gt;Node62 -->
<g id="edge14" class="edge">
<title>Node68&#45;&gt;Node62</title>
<path fill="none" stroke="#191970" d="M1029.3385,-107.0084C1037.6756,-108.0824 1046.3377,-109.1982 1054.8626,-110.2963"/>
<polygon fill="#191970" stroke="#191970" points="1029.7266,-103.5296 1019.3614,-105.7232 1028.8323,-110.4722 1029.7266,-103.5296"/>
</g>
<!-- Node69&#45;&gt;Node58 -->
<g id="edge18" class="edge">
<title>Node69&#45;&gt;Node58</title>
<path fill="none" stroke="#191970" d="M241.336,-47.7776C289.6933,-51.2382 352.7246,-55.7489 394.1159,-58.711"/>
<polygon fill="#191970" stroke="#191970" points="241.4773,-44.2788 231.2529,-47.056 240.9776,-51.261 241.4773,-44.2788"/>
</g>
<!-- Node70 -->
<g id="node15" class="node">
<title>Node70</title>
<g id="a_node15"><a xlink:href="mqtt_8c.html#aecca483fb1f2313abb9e1a905e54d6ac" target="_top" xlink:title="deliver_publish">
<polygon fill="#ffffff" stroke="#000000" points="267,-14.3157 267,-33.3157 350,-33.3157 350,-14.3157 267,-14.3157"/>
<text text-anchor="middle" x="308.5" y="-21.3157" font-family="Helvetica,sans-Serif" font-size="10.00" fill="#000000">deliver_publish</text>
</a>
</g>
</g>
<!-- Node69&#45;&gt;Node70 -->
<g id="edge19" class="edge">
<title>Node69&#45;&gt;Node70</title>
<path fill="none" stroke="#191970" d="M241.2261,-33.1798C249.892,-31.9736 258.5369,-30.7702 266.6019,-29.6476"/>
<polygon fill="#191970" stroke="#191970" points="240.4989,-29.7472 231.077,-34.5925 241.4641,-36.6803 240.4989,-29.7472"/>
</g>
<!-- Node70&#45;&gt;Node65 -->
<g id="edge20" class="edge">
<title>Node70&#45;&gt;Node65</title>
<path fill="none" stroke="#191970" d="M360.0954,-23.8157C368.5076,-23.8157 377.2251,-23.8157 385.6435,-23.8157"/>
<polygon fill="#191970" stroke="#191970" points="360.0265,-20.3158 350.0265,-23.8157 360.0265,-27.3158 360.0265,-20.3158"/>
</g>
</g>
</svg>
