<?xml version="1.0" encoding="UTF-8" standalone="no"?>
<!DOCTYPE svg PUBLIC "-//W3C//DTD SVG 1.1//EN"
 "http://www.w3.org/Graphics/SVG/1.1/DTD/svg11.dtd">
<!-- Generated by graphviz version 2.40.1 (20161225.0304)
 -->
<!-- Title: mqtt_tcpclient_connect_cb Pages: 1 -->
<svg width="500pt" height="28pt"
 viewBox="0.00 0.00 500.00 28.00" xmlns="http://www.w3.org/2000/svg" xmlns:xlink="http://www.w3.org/1999/xlink">
<g id="graph0" class="graph" transform="scale(1 1) rotate(0) translate(4 24)">
<title>mqtt_tcpclient_connect_cb</title>
<polygon fill="#ffffff" stroke="transparent" points="-4,4 -4,-24 496,-24 496,4 -4,4"/>
<!-- Node381 -->
<g id="node1" class="node">
<title>Node381</title>
<polygon fill="#bfbfbf" stroke="#000000" points="0,-.5 0,-19.5 135,-19.5 135,-.5 0,-.5"/>
<text text-anchor="middle" x="67.5" y="-7.5" font-family="Helvetica,sans-Serif" font-size="10.00" fill="#000000">mqtt_tcpclient_connect_cb</text>
</g>
<!-- Node382 -->
<g id="node2" class="node">
<title>Node382</title>
<g id="a_node2"><a xlink:href="mqtt_8c.html#ad34b681cb2f7473d8fc786c7ed468db5" target="_top" xlink:title="Begin connect to MQTT broker. ">
<polygon fill="#ffffff" stroke="#000000" points="171,-.5 171,-19.5 259,-19.5 259,-.5 171,-.5"/>
<text text-anchor="middle" x="215" y="-7.5" font-family="Helvetica,sans-Serif" font-size="10.00" fill="#000000">MQTT_Connect</text>
</a>
</g>
</g>
<!-- Node381&#45;&gt;Node382 -->
<g id="edge1" class="edge">
<title>Node381&#45;&gt;Node382</title>
<path fill="none" stroke="#191970" d="M145.4528,-10C154.1756,-10 162.8197,-10 170.895,-10"/>
<polygon fill="#191970" stroke="#191970" points="145.2063,-6.5001 135.2062,-10 145.2062,-13.5001 145.2063,-6.5001"/>
</g>
<!-- Node383 -->
<g id="node3" class="node">
<title>Node383</title>
<g id="a_node3"><a xlink:href="mqtt_8c.html#a9d88fa6efb9163d4dbf9dc750a8d4ed0" target="_top" xlink:title="MQTT_Task">
<polygon fill="#ffffff" stroke="#000000" points="295,-.5 295,-19.5 367,-19.5 367,-.5 295,-.5"/>
<text text-anchor="middle" x="331" y="-7.5" font-family="Helvetica,sans-Serif" font-size="10.00" fill="#000000">MQTT_Task</text>
</a>
</g>
</g>
<!-- Node382&#45;&gt;Node383 -->
<g id="edge2" class="edge">
<title>Node382&#45;&gt;Node383</title>
<path fill="none" stroke="#191970" d="M269.2705,-10C277.9449,-10 286.731,-10 294.8484,-10"/>
<polygon fill="#191970" stroke="#191970" points="269.1856,-6.5001 259.1855,-10 269.1855,-13.5001 269.1856,-6.5001"/>
</g>
<!-- Node384 -->
<g id="node4" class="node">
<title>Node384</title>
<g id="a_node4"><a xlink:href="mqtt_8c.html#a25cb7ac079d1d119250dac075c45acf1" target="_top" xlink:title="MQTT initialization mqtt client function. ">
<polygon fill="#ffffff" stroke="#000000" points="403,-.5 403,-19.5 492,-19.5 492,-.5 403,-.5"/>
<text text-anchor="middle" x="447.5" y="-7.5" font-family="Helvetica,sans-Serif" font-size="10.00" fill="#000000">MQTT_InitClient</text>
</a>
</g>
</g>
<!-- Node383&#45;&gt;Node384 -->
<g id="edge3" class="edge">
<title>Node383&#45;&gt;Node384</title>
<path fill="none" stroke="#191970" d="M377.225,-10C385.6069,-10 394.336,-10 402.6768,-10"/>
<polygon fill="#191970" stroke="#191970" points="377.2228,-6.5001 367.2227,-10 377.2227,-13.5001 377.2228,-6.5001"/>
</g>
</g>
</svg>
