<?xml version="1.0" encoding="UTF-8" standalone="no"?>
<!DOCTYPE svg PUBLIC "-//W3C//DTD SVG 1.1//EN"
 "http://www.w3.org/Graphics/SVG/1.1/DTD/svg11.dtd">
<!-- Generated by graphviz version 2.39.20160927.1334 (20160927.1334)
 -->
<!-- Title: mqtt_tcpclient_recv Pages: 1 -->
<svg width="1029pt" height="66pt"
 viewBox="0.00 0.00 1029.00 66.00" xmlns="http://www.w3.org/2000/svg" xmlns:xlink="http://www.w3.org/1999/xlink">
<g id="graph0" class="graph" transform="scale(1 1) rotate(0) translate(4 62)">
<title>mqtt_tcpclient_recv</title>
<polygon fill="#ffffff" stroke="transparent" points="-4,4 -4,-62 1025,-62 1025,4 -4,4"/>
<!-- Node1 -->
<g id="node1" class="node">
<title>Node1</title>
<polygon fill="#bfbfbf" stroke="#000000" points="0,-19.5 0,-38.5 103,-38.5 103,-19.5 0,-19.5"/>
<text text-anchor="middle" x="51.5" y="-26.5" font-family="Helvetica,sans-Serif" font-size="10.00" fill="#000000">mqtt_tcpclient_recv</text>
</g>
<!-- Node2 -->
<g id="node2" class="node">
<title>Node2</title>
<g id="a_node2"><a xlink:href="mqtt_8c.html#a36ecd969af1b9c87856f01be064a98cc" target="_top" xlink:title="Tcp client connect success callback function. ">
<polygon fill="#ffffff" stroke="#000000" points="139,-19.5 139,-38.5 274,-38.5 274,-19.5 139,-19.5"/>
<text text-anchor="middle" x="206.5" y="-26.5" font-family="Helvetica,sans-Serif" font-size="10.00" fill="#000000">mqtt_tcpclient_connect_cb</text>
</a>
</g>
</g>
<!-- Node1&#45;&gt;Node2 -->
<g id="edge1" class="edge">
<title>Node1&#45;&gt;Node2</title>
<path fill="none" stroke="#191970" d="M113.226,-29C121.646,-29 130.325,-29 138.842,-29"/>
<polygon fill="#191970" stroke="#191970" points="113.113,-25.5001 103.113,-29 113.113,-32.5001 113.113,-25.5001"/>
</g>
<!-- Node3 -->
<g id="node3" class="node">
<title>Node3</title>
<g id="a_node3"><a xlink:href="mqtt_8c.html#ad34b681cb2f7473d8fc786c7ed468db5" target="_top" xlink:title="Begin connect to MQTT broker. ">
<polygon fill="#ffffff" stroke="#000000" points="310,-19.5 310,-38.5 398,-38.5 398,-19.5 310,-19.5"/>
<text text-anchor="middle" x="354" y="-26.5" font-family="Helvetica,sans-Serif" font-size="10.00" fill="#000000">MQTT_Connect</text>
</a>
</g>
</g>
<!-- Node2&#45;&gt;Node3 -->
<g id="edge2" class="edge">
<title>Node2&#45;&gt;Node3</title>
<path fill="none" stroke="#191970" d="M284.453,-29C293.176,-29 301.82,-29 309.895,-29"/>
<polygon fill="#191970" stroke="#191970" points="284.206,-25.5001 274.206,-29 284.206,-32.5001 284.206,-25.5001"/>
</g>
<!-- Node4 -->
<g id="node4" class="node">
<title>Node4</title>
<g id="a_node4"><a xlink:href="mqtt_8c.html#a9d88fa6efb9163d4dbf9dc750a8d4ed0" target="_top" xlink:title="MQTT_Task">
<polygon fill="#ffffff" stroke="#000000" points="434,-38.5 434,-57.5 506,-57.5 506,-38.5 434,-38.5"/>
<text text-anchor="middle" x="470" y="-45.5" font-family="Helvetica,sans-Serif" font-size="10.00" fill="#000000">MQTT_Task</text>
</a>
</g>
</g>
<!-- Node3&#45;&gt;Node4 -->
<g id="edge3" class="edge">
<title>Node3&#45;&gt;Node4</title>
<path fill="none" stroke="#191970" d="M408.27,-37.8891C416.945,-39.3099 425.731,-40.749 433.848,-42.0786"/>
<polygon fill="#191970" stroke="#191970" points="408.62,-34.3998 398.186,-36.2373 407.488,-41.3077 408.62,-34.3998"/>
</g>
<!-- Node9 -->
<g id="node9" class="node">
<title>Node9</title>
<g id="a_node9"><a xlink:href="user__main_8h.html#a7a3bf0cc09d98adc72f4e34d26ce3fa1" target="_top" xlink:title="wifi_changed_cb">
<polygon fill="#ffffff" stroke="#000000" points="542,-0.5 542,-19.5 633,-19.5 633,-0.5 542,-0.5"/>
<text text-anchor="middle" x="587.5" y="-7.5" font-family="Helvetica,sans-Serif" font-size="10.00" fill="#000000">wifi_changed_cb</text>
</a>
</g>
</g>
<!-- Node3&#45;&gt;Node9 -->
<g id="edge8" class="edge">
<title>Node3&#45;&gt;Node9</title>
<path fill="none" stroke="#191970" d="M408.177,-24.5916C448.727,-21.292 503.573,-16.8292 541.893,-13.7111"/>
<polygon fill="#191970" stroke="#191970" points="407.877,-21.1043 398.194,-25.4039 408.445,-28.0813 407.877,-21.1043"/>
</g>
<!-- Node5 -->
<g id="node5" class="node">
<title>Node5</title>
<g id="a_node5"><a xlink:href="mqtt_8c.html#a82303094af675136988bb2be5e92fc5b" target="_top" xlink:title="MQTT initialization mqtt client function. ">
<polygon fill="#ffffff" stroke="#000000" points="543,-38.5 543,-57.5 632,-57.5 632,-38.5 543,-38.5"/>
<text text-anchor="middle" x="587.5" y="-45.5" font-family="Helvetica,sans-Serif" font-size="10.00" fill="#000000">MQTT_InitClient</text>
</a>
</g>
</g>
<!-- Node4&#45;&gt;Node5 -->
<g id="edge4" class="edge">
<title>Node4&#45;&gt;Node5</title>
<path fill="none" stroke="#191970" d="M516.276,-48C525.044,-48 534.2,-48 542.913,-48"/>
<polygon fill="#191970" stroke="#191970" points="516.213,-44.5001 506.213,-48 516.213,-51.5001 516.213,-44.5001"/>
</g>
<!-- Node6 -->
<g id="node6" class="node">
<title>Node6</title>
<g id="a_node6"><a xlink:href="user__main_8c.html#a245ec00253f410a8804988bf40e1037e" target="_top" xlink:title="sample_mode_timer_func">
<polygon fill="#ffffff" stroke="#000000" points="669,-19.5 669,-38.5 801,-38.5 801,-19.5 669,-19.5"/>
<text text-anchor="middle" x="735" y="-26.5" font-family="Helvetica,sans-Serif" font-size="10.00" fill="#000000">sample_mode_timer_func</text>
</a>
</g>
</g>
<!-- Node5&#45;&gt;Node6 -->
<g id="edge5" class="edge">
<title>Node5&#45;&gt;Node6</title>
<path fill="none" stroke="#191970" d="M642.196,-40.9544C650.927,-39.8297 660.041,-38.6558 669,-37.5018"/>
<polygon fill="#191970" stroke="#191970" points="641.626,-37.4988 632.155,-42.2478 642.52,-44.4415 641.626,-37.4988"/>
</g>
<!-- Node7 -->
<g id="node7" class="node">
<title>Node7</title>
<g id="a_node7"><a xlink:href="user__main_8h.html#a3671381db669a16e8f6a4bf3dfb9a441" target="_top" xlink:title="system_init_done">
<polygon fill="#ffffff" stroke="#000000" points="837,-19.5 837,-38.5 931,-38.5 931,-19.5 837,-19.5"/>
<text text-anchor="middle" x="884" y="-26.5" font-family="Helvetica,sans-Serif" font-size="10.00" fill="#000000">system_init_done</text>
</a>
</g>
</g>
<!-- Node6&#45;&gt;Node7 -->
<g id="edge6" class="edge">
<title>Node6&#45;&gt;Node7</title>
<path fill="none" stroke="#191970" d="M811.361,-29C820.009,-29 828.624,-29 836.739,-29"/>
<polygon fill="#191970" stroke="#191970" points="811.221,-25.5001 801.221,-29 811.221,-32.5001 811.221,-25.5001"/>
</g>
<!-- Node8 -->
<g id="node8" class="node">
<title>Node8</title>
<g id="a_node8"><a xlink:href="user__main_8h.html#a33113d6dedb440bd7dfa5576e325140c" target="_top" xlink:title="user_init">
<polygon fill="#ffffff" stroke="#000000" points="967,-19.5 967,-38.5 1021,-38.5 1021,-19.5 967,-19.5"/>
<text text-anchor="middle" x="994" y="-26.5" font-family="Helvetica,sans-Serif" font-size="10.00" fill="#000000">user_init</text>
</a>
</g>
</g>
<!-- Node7&#45;&gt;Node8 -->
<g id="edge7" class="edge">
<title>Node7&#45;&gt;Node8</title>
<path fill="none" stroke="#191970" d="M941.289,-29C950.16,-29 958.952,-29 966.738,-29"/>
<polygon fill="#191970" stroke="#191970" points="941.288,-25.5001 931.288,-29 941.288,-32.5001 941.288,-25.5001"/>
</g>
<!-- Node9&#45;&gt;Node6 -->
<g id="edge9" class="edge">
<title>Node9&#45;&gt;Node6</title>
<path fill="none" stroke="#191970" d="M643.338,-17.1928C651.676,-18.2667 660.338,-19.3825 668.863,-20.4806"/>
<polygon fill="#191970" stroke="#191970" points="643.727,-13.7139 633.361,-15.9076 642.832,-20.6566 643.727,-13.7139"/>
</g>
</g>
</svg>
