<?xml version="1.0" encoding="UTF-8" standalone="no"?>
<!DOCTYPE svg PUBLIC "-//W3C//DTD SVG 1.1//EN"
 "http://www.w3.org/Graphics/SVG/1.1/DTD/svg11.dtd">
<!-- Generated by graphviz version 2.40.1 (20161225.0304)
 -->
<!-- Title: mqtt_msg_pubrec Pages: 1 -->
<svg width="772pt" height="66pt"
 viewBox="0.00 0.00 772.00 66.00" xmlns="http://www.w3.org/2000/svg" xmlns:xlink="http://www.w3.org/1999/xlink">
<g id="graph0" class="graph" transform="scale(1 1) rotate(0) translate(4 62)">
<title>mqtt_msg_pubrec</title>
<polygon fill="#ffffff" stroke="transparent" points="-4,4 -4,-62 768,-62 768,4 -4,4"/>
<!-- Node181 -->
<g id="node1" class="node">
<title>Node181</title>
<polygon fill="#bfbfbf" stroke="#000000" points="0,-19.5 0,-38.5 97,-38.5 97,-19.5 0,-19.5"/>
<text text-anchor="middle" x="48.5" y="-26.5" font-family="Helvetica,sans-Serif" font-size="10.00" fill="#000000">mqtt_msg_pubrec</text>
</g>
<!-- Node182 -->
<g id="node2" class="node">
<title>Node182</title>
<g id="a_node2"><a xlink:href="mqtt__msg_8h.html#affd61b4be51d1e29e51dfbc42489ba36" target="_top" xlink:title="mqtt_get_retain">
<polygon fill="#ffffff" stroke="#000000" points="141.5,-38.5 141.5,-57.5 227.5,-57.5 227.5,-38.5 141.5,-38.5"/>
<text text-anchor="middle" x="184.5" y="-45.5" font-family="Helvetica,sans-Serif" font-size="10.00" fill="#000000">mqtt_get_retain</text>
</a>
</g>
</g>
<!-- Node181&#45;&gt;Node182 -->
<g id="edge1" class="edge">
<title>Node181&#45;&gt;Node182</title>
<path fill="none" stroke="#191970" d="M107.4587,-37.2369C118.7566,-38.8153 130.3935,-40.441 141.0919,-41.9356"/>
<polygon fill="#191970" stroke="#191970" points="107.6031,-33.7231 97.215,-35.8058 106.6345,-40.6558 107.6031,-33.7231"/>
</g>
<!-- Node183 -->
<g id="node3" class="node">
<title>Node183</title>
<g id="a_node3"><a xlink:href="mqtt_8c.html#af470856972320b9c02da9fcb6f419fd0" target="_top" xlink:title="Client received callback function. ">
<polygon fill="#ffffff" stroke="#000000" points="133,-.5 133,-19.5 236,-19.5 236,-.5 133,-.5"/>
<text text-anchor="middle" x="184.5" y="-7.5" font-family="Helvetica,sans-Serif" font-size="10.00" fill="#000000">mqtt_tcpclient_recv</text>
</a>
</g>
</g>
<!-- Node181&#45;&gt;Node183 -->
<g id="edge2" class="edge">
<title>Node181&#45;&gt;Node183</title>
<path fill="none" stroke="#191970" d="M107.1497,-20.8063C115.7202,-19.6089 124.4926,-18.3834 132.9085,-17.2076"/>
<polygon fill="#191970" stroke="#191970" points="106.6345,-17.3442 97.215,-22.1942 107.6031,-24.2769 106.6345,-17.3442"/>
</g>
<!-- Node184 -->
<g id="node4" class="node">
<title>Node184</title>
<g id="a_node4"><a xlink:href="mqtt_8c.html#a36ecd969af1b9c87856f01be064a98cc" target="_top" xlink:title="Tcp client connect success callback function. ">
<polygon fill="#ffffff" stroke="#000000" points="272,-.5 272,-19.5 407,-19.5 407,-.5 272,-.5"/>
<text text-anchor="middle" x="339.5" y="-7.5" font-family="Helvetica,sans-Serif" font-size="10.00" fill="#000000">mqtt_tcpclient_connect_cb</text>
</a>
</g>
</g>
<!-- Node183&#45;&gt;Node184 -->
<g id="edge3" class="edge">
<title>Node183&#45;&gt;Node184</title>
<path fill="none" stroke="#191970" d="M246.226,-10C254.6456,-10 263.3246,-10 271.8424,-10"/>
<polygon fill="#191970" stroke="#191970" points="246.1128,-6.5001 236.1128,-10 246.1127,-13.5001 246.1128,-6.5001"/>
</g>
<!-- Node185 -->
<g id="node5" class="node">
<title>Node185</title>
<g id="a_node5"><a xlink:href="mqtt_8c.html#ad34b681cb2f7473d8fc786c7ed468db5" target="_top" xlink:title="Begin connect to MQTT broker. ">
<polygon fill="#ffffff" stroke="#000000" points="443,-.5 443,-19.5 531,-19.5 531,-.5 443,-.5"/>
<text text-anchor="middle" x="487" y="-7.5" font-family="Helvetica,sans-Serif" font-size="10.00" fill="#000000">MQTT_Connect</text>
</a>
</g>
</g>
<!-- Node184&#45;&gt;Node185 -->
<g id="edge4" class="edge">
<title>Node184&#45;&gt;Node185</title>
<path fill="none" stroke="#191970" d="M417.4528,-10C426.1756,-10 434.8197,-10 442.895,-10"/>
<polygon fill="#191970" stroke="#191970" points="417.2063,-6.5001 407.2062,-10 417.2062,-13.5001 417.2063,-6.5001"/>
</g>
<!-- Node186 -->
<g id="node6" class="node">
<title>Node186</title>
<g id="a_node6"><a xlink:href="mqtt_8c.html#a9d88fa6efb9163d4dbf9dc750a8d4ed0" target="_top" xlink:title="MQTT_Task">
<polygon fill="#ffffff" stroke="#000000" points="567,-.5 567,-19.5 639,-19.5 639,-.5 567,-.5"/>
<text text-anchor="middle" x="603" y="-7.5" font-family="Helvetica,sans-Serif" font-size="10.00" fill="#000000">MQTT_Task</text>
</a>
</g>
</g>
<!-- Node185&#45;&gt;Node186 -->
<g id="edge5" class="edge">
<title>Node185&#45;&gt;Node186</title>
<path fill="none" stroke="#191970" d="M541.2705,-10C549.9449,-10 558.731,-10 566.8484,-10"/>
<polygon fill="#191970" stroke="#191970" points="541.1856,-6.5001 531.1855,-10 541.1855,-13.5001 541.1856,-6.5001"/>
</g>
<!-- Node187 -->
<g id="node7" class="node">
<title>Node187</title>
<g id="a_node7"><a xlink:href="mqtt_8c.html#a25cb7ac079d1d119250dac075c45acf1" target="_top" xlink:title="MQTT initialization mqtt client function. ">
<polygon fill="#ffffff" stroke="#000000" points="675,-.5 675,-19.5 764,-19.5 764,-.5 675,-.5"/>
<text text-anchor="middle" x="719.5" y="-7.5" font-family="Helvetica,sans-Serif" font-size="10.00" fill="#000000">MQTT_InitClient</text>
</a>
</g>
</g>
<!-- Node186&#45;&gt;Node187 -->
<g id="edge6" class="edge">
<title>Node186&#45;&gt;Node187</title>
<path fill="none" stroke="#191970" d="M649.225,-10C657.6069,-10 666.336,-10 674.6768,-10"/>
<polygon fill="#191970" stroke="#191970" points="649.2228,-6.5001 639.2227,-10 649.2227,-13.5001 649.2228,-6.5001"/>
</g>
</g>
</svg>
