<?xml version="1.0" encoding="UTF-8" standalone="no"?>
<!DOCTYPE svg PUBLIC "-//W3C//DTD SVG 1.1//EN"
 "http://www.w3.org/Graphics/SVG/1.1/DTD/svg11.dtd">
<!-- Generated by graphviz version 2.40.1 (20161225.0304)
 -->
<!-- Title: mqtt_get_id Pages: 1 -->
<svg width="744pt" height="180pt"
 viewBox="0.00 0.00 744.00 180.00" xmlns="http://www.w3.org/2000/svg" xmlns:xlink="http://www.w3.org/1999/xlink">
<g id="graph0" class="graph" transform="scale(1 1) rotate(0) translate(4 176)">
<title>mqtt_get_id</title>
<polygon fill="#ffffff" stroke="transparent" points="-4,4 -4,-176 740,-176 740,4 -4,4"/>
<!-- Node12 -->
<g id="node1" class="node">
<title>Node12</title>
<polygon fill="#bfbfbf" stroke="#000000" points="0,-76.5 0,-95.5 69,-95.5 69,-76.5 0,-76.5"/>
<text text-anchor="middle" x="34.5" y="-83.5" font-family="Helvetica,sans-Serif" font-size="10.00" fill="#000000">mqtt_get_id</text>
</g>
<!-- Node13 -->
<g id="node2" class="node">
<title>Node13</title>
<g id="a_node2"><a xlink:href="mqtt__msg_8h.html#affd61b4be51d1e29e51dfbc42489ba36" target="_top" xlink:title="mqtt_get_retain">
<polygon fill="#ffffff" stroke="#000000" points="113.5,-152.5 113.5,-171.5 199.5,-171.5 199.5,-152.5 113.5,-152.5"/>
<text text-anchor="middle" x="156.5" y="-159.5" font-family="Helvetica,sans-Serif" font-size="10.00" fill="#000000">mqtt_get_retain</text>
</a>
</g>
</g>
<!-- Node12&#45;&gt;Node13 -->
<g id="edge1" class="edge">
<title>Node12&#45;&gt;Node13</title>
<path fill="none" stroke="#191970" d="M53.7894,-101.8642C67.5655,-112.7784 86.806,-127.1975 105,-138 113.9907,-143.3381 124.3656,-148.3704 133.4368,-152.4348"/>
<polygon fill="#191970" stroke="#191970" points="55.9635,-99.1212 45.9762,-95.5851 51.5785,-104.5776 55.9635,-99.1212"/>
</g>
<!-- Node14 -->
<g id="node3" class="node">
<title>Node14</title>
<g id="a_node3"><a xlink:href="mqtt_8c.html#ad8ba75844d580447adc10eee6aba039d" target="_top" xlink:title="mqtt_send_keepalive">
<polygon fill="#ffffff" stroke="#000000" points="256,-114.5 256,-133.5 367,-133.5 367,-114.5 256,-114.5"/>
<text text-anchor="middle" x="311.5" y="-121.5" font-family="Helvetica,sans-Serif" font-size="10.00" fill="#000000">mqtt_send_keepalive</text>
</a>
</g>
</g>
<!-- Node12&#45;&gt;Node14 -->
<g id="edge2" class="edge">
<title>Node12&#45;&gt;Node14</title>
<path fill="none" stroke="#191970" d="M79.0514,-95.4097C87.6402,-97.0642 96.5828,-98.6773 105,-100 155.8076,-107.984 214.0359,-114.516 255.6808,-118.7385"/>
<polygon fill="#191970" stroke="#191970" points="79.6723,-91.9648 69.184,-93.4634 78.3176,-98.8325 79.6723,-91.9648"/>
</g>
<!-- Node15 -->
<g id="node4" class="node">
<title>Node15</title>
<g id="a_node4"><a xlink:href="mqtt_8c.html#a9d88fa6efb9163d4dbf9dc750a8d4ed0" target="_top" xlink:title="MQTT_Task">
<polygon fill="#ffffff" stroke="#000000" points="539,-76.5 539,-95.5 611,-95.5 611,-76.5 539,-76.5"/>
<text text-anchor="middle" x="575" y="-83.5" font-family="Helvetica,sans-Serif" font-size="10.00" fill="#000000">MQTT_Task</text>
</a>
</g>
</g>
<!-- Node12&#45;&gt;Node15 -->
<g id="edge5" class="edge">
<title>Node12&#45;&gt;Node15</title>
<path fill="none" stroke="#191970" d="M79.3714,-86C184.1723,-86 443.3697,-86 538.8953,-86"/>
<polygon fill="#191970" stroke="#191970" points="79.133,-82.5001 69.1329,-86 79.1329,-89.5001 79.133,-82.5001"/>
</g>
<!-- Node17 -->
<g id="node6" class="node">
<title>Node17</title>
<g id="a_node6"><a xlink:href="mqtt_8c.html#a36ecd969af1b9c87856f01be064a98cc" target="_top" xlink:title="Tcp client connect success callback function. ">
<polygon fill="#ffffff" stroke="#000000" points="244,-38.5 244,-57.5 379,-57.5 379,-38.5 244,-38.5"/>
<text text-anchor="middle" x="311.5" y="-45.5" font-family="Helvetica,sans-Serif" font-size="10.00" fill="#000000">mqtt_tcpclient_connect_cb</text>
</a>
</g>
</g>
<!-- Node12&#45;&gt;Node17 -->
<g id="edge6" class="edge">
<title>Node12&#45;&gt;Node17</title>
<path fill="none" stroke="#191970" d="M79.0514,-76.5903C87.6402,-74.9358 96.5828,-73.3227 105,-72 151.1725,-64.7443 203.4735,-58.6879 243.8874,-54.4741"/>
<polygon fill="#191970" stroke="#191970" points="78.3176,-73.1675 69.184,-78.5366 79.6723,-80.0352 78.3176,-73.1675"/>
</g>
<!-- Node19 -->
<g id="node8" class="node">
<title>Node19</title>
<g id="a_node8"><a xlink:href="mqtt_8c.html#af470856972320b9c02da9fcb6f419fd0" target="_top" xlink:title="Client received callback function. ">
<polygon fill="#ffffff" stroke="#000000" points="105,-.5 105,-19.5 208,-19.5 208,-.5 105,-.5"/>
<text text-anchor="middle" x="156.5" y="-7.5" font-family="Helvetica,sans-Serif" font-size="10.00" fill="#000000">mqtt_tcpclient_recv</text>
</a>
</g>
</g>
<!-- Node12&#45;&gt;Node19 -->
<g id="edge9" class="edge">
<title>Node12&#45;&gt;Node19</title>
<path fill="none" stroke="#191970" d="M53.7894,-70.1358C67.5655,-59.2216 86.806,-44.8025 105,-34 113.9907,-28.6619 124.3656,-23.6296 133.4368,-19.5652"/>
<polygon fill="#191970" stroke="#191970" points="51.5785,-67.4224 45.9762,-76.4149 55.9635,-72.8788 51.5785,-67.4224"/>
</g>
<!-- Node14&#45;&gt;Node15 -->
<g id="edge3" class="edge">
<title>Node14&#45;&gt;Node15</title>
<path fill="none" stroke="#191970" d="M377.5208,-116.8371C414.5042,-112.5461 461.4146,-106.6412 503,-100 514.6945,-98.1324 527.3943,-95.7741 538.8256,-93.5281"/>
<polygon fill="#191970" stroke="#191970" points="376.9007,-113.3852 367.3655,-118.0038 377.6997,-120.3395 376.9007,-113.3852"/>
</g>
<!-- Node16 -->
<g id="node5" class="node">
<title>Node16</title>
<g id="a_node5"><a xlink:href="mqtt_8c.html#a25cb7ac079d1d119250dac075c45acf1" target="_top" xlink:title="MQTT initialization mqtt client function. ">
<polygon fill="#ffffff" stroke="#000000" points="647,-76.5 647,-95.5 736,-95.5 736,-76.5 647,-76.5"/>
<text text-anchor="middle" x="691.5" y="-83.5" font-family="Helvetica,sans-Serif" font-size="10.00" fill="#000000">MQTT_InitClient</text>
</a>
</g>
</g>
<!-- Node15&#45;&gt;Node16 -->
<g id="edge4" class="edge">
<title>Node15&#45;&gt;Node16</title>
<path fill="none" stroke="#191970" d="M621.225,-86C629.6069,-86 638.336,-86 646.6768,-86"/>
<polygon fill="#191970" stroke="#191970" points="621.2228,-82.5001 611.2227,-86 621.2227,-89.5001 621.2228,-82.5001"/>
</g>
<!-- Node18 -->
<g id="node7" class="node">
<title>Node18</title>
<g id="a_node7"><a xlink:href="mqtt_8c.html#ad34b681cb2f7473d8fc786c7ed468db5" target="_top" xlink:title="Begin connect to MQTT broker. ">
<polygon fill="#ffffff" stroke="#000000" points="415,-38.5 415,-57.5 503,-57.5 503,-38.5 415,-38.5"/>
<text text-anchor="middle" x="459" y="-45.5" font-family="Helvetica,sans-Serif" font-size="10.00" fill="#000000">MQTT_Connect</text>
</a>
</g>
</g>
<!-- Node17&#45;&gt;Node18 -->
<g id="edge7" class="edge">
<title>Node17&#45;&gt;Node18</title>
<path fill="none" stroke="#191970" d="M389.4528,-48C398.1756,-48 406.8197,-48 414.895,-48"/>
<polygon fill="#191970" stroke="#191970" points="389.2063,-44.5001 379.2062,-48 389.2062,-51.5001 389.2063,-44.5001"/>
</g>
<!-- Node18&#45;&gt;Node15 -->
<g id="edge8" class="edge">
<title>Node18&#45;&gt;Node15</title>
<path fill="none" stroke="#191970" d="M498.1528,-60.8259C513.7176,-65.9247 531.3141,-71.6891 545.7377,-76.4141"/>
<polygon fill="#191970" stroke="#191970" points="498.8644,-57.3761 488.2717,-57.589 496.6852,-64.0282 498.8644,-57.3761"/>
</g>
<!-- Node19&#45;&gt;Node17 -->
<g id="edge10" class="edge">
<title>Node19&#45;&gt;Node17</title>
<path fill="none" stroke="#191970" d="M205.6105,-22.04C227.2647,-27.3488 252.3502,-33.4988 272.6682,-38.4799"/>
<polygon fill="#191970" stroke="#191970" points="206.1588,-18.5708 195.613,-19.589 204.492,-25.3695 206.1588,-18.5708"/>
</g>
</g>
</svg>
