<?xml version="1.0" encoding="UTF-8" standalone="no"?>
<!DOCTYPE svg PUBLIC "-//W3C//DTD SVG 1.1//EN"
 "http://www.w3.org/Graphics/SVG/1.1/DTD/svg11.dtd">
<!-- Generated by graphviz version 2.39.20160927.1334 (20160927.1334)
 -->
<!-- Title: mqtt_tcpclient_discon_cb Pages: 1 -->
<svg width="1055pt" height="66pt"
 viewBox="0.00 0.00 1055.00 66.00" xmlns="http://www.w3.org/2000/svg" xmlns:xlink="http://www.w3.org/1999/xlink">
<g id="graph0" class="graph" transform="scale(1 1) rotate(0) translate(4 62)">
<title>mqtt_tcpclient_discon_cb</title>
<polygon fill="#ffffff" stroke="transparent" points="-4,4 -4,-62 1051,-62 1051,4 -4,4"/>
<!-- Node1 -->
<g id="node1" class="node">
<title>Node1</title>
<polygon fill="#bfbfbf" stroke="#000000" points="0,-19.5 0,-38.5 129,-38.5 129,-19.5 0,-19.5"/>
<text text-anchor="middle" x="64.5" y="-26.5" font-family="Helvetica,sans-Serif" font-size="10.00" fill="#000000">mqtt_tcpclient_discon_cb</text>
</g>
<!-- Node2 -->
<g id="node2" class="node">
<title>Node2</title>
<g id="a_node2"><a xlink:href="mqtt_8c.html#a36ecd969af1b9c87856f01be064a98cc" target="_top" xlink:title="Tcp client connect success callback function. ">
<polygon fill="#ffffff" stroke="#000000" points="165,-19.5 165,-38.5 300,-38.5 300,-19.5 165,-19.5"/>
<text text-anchor="middle" x="232.5" y="-26.5" font-family="Helvetica,sans-Serif" font-size="10.00" fill="#000000">mqtt_tcpclient_connect_cb</text>
</a>
</g>
</g>
<!-- Node1&#45;&gt;Node2 -->
<g id="edge1" class="edge">
<title>Node1&#45;&gt;Node2</title>
<path fill="none" stroke="#191970" d="M139.648,-29C148.074,-29 156.62,-29 164.941,-29"/>
<polygon fill="#191970" stroke="#191970" points="139.453,-25.5001 129.453,-29 139.453,-32.5001 139.453,-25.5001"/>
</g>
<!-- Node3 -->
<g id="node3" class="node">
<title>Node3</title>
<g id="a_node3"><a xlink:href="mqtt_8c.html#ad34b681cb2f7473d8fc786c7ed468db5" target="_top" xlink:title="Begin connect to MQTT broker. ">
<polygon fill="#ffffff" stroke="#000000" points="336,-19.5 336,-38.5 424,-38.5 424,-19.5 336,-19.5"/>
<text text-anchor="middle" x="380" y="-26.5" font-family="Helvetica,sans-Serif" font-size="10.00" fill="#000000">MQTT_Connect</text>
</a>
</g>
</g>
<!-- Node2&#45;&gt;Node3 -->
<g id="edge2" class="edge">
<title>Node2&#45;&gt;Node3</title>
<path fill="none" stroke="#191970" d="M310.453,-29C319.176,-29 327.82,-29 335.895,-29"/>
<polygon fill="#191970" stroke="#191970" points="310.206,-25.5001 300.206,-29 310.206,-32.5001 310.206,-25.5001"/>
</g>
<!-- Node4 -->
<g id="node4" class="node">
<title>Node4</title>
<g id="a_node4"><a xlink:href="mqtt_8c.html#a9d88fa6efb9163d4dbf9dc750a8d4ed0" target="_top" xlink:title="MQTT_Task">
<polygon fill="#ffffff" stroke="#000000" points="460,-38.5 460,-57.5 532,-57.5 532,-38.5 460,-38.5"/>
<text text-anchor="middle" x="496" y="-45.5" font-family="Helvetica,sans-Serif" font-size="10.00" fill="#000000">MQTT_Task</text>
</a>
</g>
</g>
<!-- Node3&#45;&gt;Node4 -->
<g id="edge3" class="edge">
<title>Node3&#45;&gt;Node4</title>
<path fill="none" stroke="#191970" d="M434.27,-37.8891C442.945,-39.3099 451.731,-40.749 459.848,-42.0786"/>
<polygon fill="#191970" stroke="#191970" points="434.62,-34.3998 424.186,-36.2373 433.488,-41.3077 434.62,-34.3998"/>
</g>
<!-- Node9 -->
<g id="node9" class="node">
<title>Node9</title>
<g id="a_node9"><a xlink:href="user__main_8h.html#a7a3bf0cc09d98adc72f4e34d26ce3fa1" target="_top" xlink:title="wifi_changed_cb">
<polygon fill="#ffffff" stroke="#000000" points="568,-0.5 568,-19.5 659,-19.5 659,-0.5 568,-0.5"/>
<text text-anchor="middle" x="613.5" y="-7.5" font-family="Helvetica,sans-Serif" font-size="10.00" fill="#000000">wifi_changed_cb</text>
</a>
</g>
</g>
<!-- Node3&#45;&gt;Node9 -->
<g id="edge8" class="edge">
<title>Node3&#45;&gt;Node9</title>
<path fill="none" stroke="#191970" d="M434.177,-24.5916C474.727,-21.292 529.573,-16.8292 567.893,-13.7111"/>
<polygon fill="#191970" stroke="#191970" points="433.877,-21.1043 424.194,-25.4039 434.445,-28.0813 433.877,-21.1043"/>
</g>
<!-- Node5 -->
<g id="node5" class="node">
<title>Node5</title>
<g id="a_node5"><a xlink:href="mqtt_8c.html#a82303094af675136988bb2be5e92fc5b" target="_top" xlink:title="MQTT initialization mqtt client function. ">
<polygon fill="#ffffff" stroke="#000000" points="569,-38.5 569,-57.5 658,-57.5 658,-38.5 569,-38.5"/>
<text text-anchor="middle" x="613.5" y="-45.5" font-family="Helvetica,sans-Serif" font-size="10.00" fill="#000000">MQTT_InitClient</text>
</a>
</g>
</g>
<!-- Node4&#45;&gt;Node5 -->
<g id="edge4" class="edge">
<title>Node4&#45;&gt;Node5</title>
<path fill="none" stroke="#191970" d="M542.276,-48C551.044,-48 560.2,-48 568.913,-48"/>
<polygon fill="#191970" stroke="#191970" points="542.213,-44.5001 532.213,-48 542.213,-51.5001 542.213,-44.5001"/>
</g>
<!-- Node6 -->
<g id="node6" class="node">
<title>Node6</title>
<g id="a_node6"><a xlink:href="user__main_8c.html#a245ec00253f410a8804988bf40e1037e" target="_top" xlink:title="sample_mode_timer_func">
<polygon fill="#ffffff" stroke="#000000" points="695,-19.5 695,-38.5 827,-38.5 827,-19.5 695,-19.5"/>
<text text-anchor="middle" x="761" y="-26.5" font-family="Helvetica,sans-Serif" font-size="10.00" fill="#000000">sample_mode_timer_func</text>
</a>
</g>
</g>
<!-- Node5&#45;&gt;Node6 -->
<g id="edge5" class="edge">
<title>Node5&#45;&gt;Node6</title>
<path fill="none" stroke="#191970" d="M668.196,-40.9544C676.927,-39.8297 686.041,-38.6558 695,-37.5018"/>
<polygon fill="#191970" stroke="#191970" points="667.626,-37.4988 658.155,-42.2478 668.52,-44.4415 667.626,-37.4988"/>
</g>
<!-- Node7 -->
<g id="node7" class="node">
<title>Node7</title>
<g id="a_node7"><a xlink:href="user__main_8h.html#a3671381db669a16e8f6a4bf3dfb9a441" target="_top" xlink:title="system_init_done">
<polygon fill="#ffffff" stroke="#000000" points="863,-19.5 863,-38.5 957,-38.5 957,-19.5 863,-19.5"/>
<text text-anchor="middle" x="910" y="-26.5" font-family="Helvetica,sans-Serif" font-size="10.00" fill="#000000">system_init_done</text>
</a>
</g>
</g>
<!-- Node6&#45;&gt;Node7 -->
<g id="edge6" class="edge">
<title>Node6&#45;&gt;Node7</title>
<path fill="none" stroke="#191970" d="M837.361,-29C846.009,-29 854.624,-29 862.739,-29"/>
<polygon fill="#191970" stroke="#191970" points="837.221,-25.5001 827.221,-29 837.221,-32.5001 837.221,-25.5001"/>
</g>
<!-- Node8 -->
<g id="node8" class="node">
<title>Node8</title>
<g id="a_node8"><a xlink:href="user__main_8h.html#a33113d6dedb440bd7dfa5576e325140c" target="_top" xlink:title="user_init">
<polygon fill="#ffffff" stroke="#000000" points="993,-19.5 993,-38.5 1047,-38.5 1047,-19.5 993,-19.5"/>
<text text-anchor="middle" x="1020" y="-26.5" font-family="Helvetica,sans-Serif" font-size="10.00" fill="#000000">user_init</text>
</a>
</g>
</g>
<!-- Node7&#45;&gt;Node8 -->
<g id="edge7" class="edge">
<title>Node7&#45;&gt;Node8</title>
<path fill="none" stroke="#191970" d="M967.289,-29C976.16,-29 984.952,-29 992.738,-29"/>
<polygon fill="#191970" stroke="#191970" points="967.288,-25.5001 957.288,-29 967.288,-32.5001 967.288,-25.5001"/>
</g>
<!-- Node9&#45;&gt;Node6 -->
<g id="edge9" class="edge">
<title>Node9&#45;&gt;Node6</title>
<path fill="none" stroke="#191970" d="M669.338,-17.1928C677.676,-18.2667 686.338,-19.3825 694.863,-20.4806"/>
<polygon fill="#191970" stroke="#191970" points="669.727,-13.7139 659.361,-15.9076 668.832,-20.6566 669.727,-13.7139"/>
</g>
</g>
</svg>
