<?xml version="1.0" encoding="UTF-8" standalone="no"?>
<!DOCTYPE svg PUBLIC "-//W3C//DTD SVG 1.1//EN"
 "http://www.w3.org/Graphics/SVG/1.1/DTD/svg11.dtd">
<!-- Generated by graphviz version 2.41.20170323.1842 (20170323.1842)
 -->
<!-- Title: sdk/include/os_type.h Pages: 1 -->
<svg width="186pt" height="196pt"
 viewBox="0.00 0.00 185.50 196.00" xmlns="http://www.w3.org/2000/svg" xmlns:xlink="http://www.w3.org/1999/xlink">
<g id="graph0" class="graph" transform="scale(1 1) rotate(0) translate(4 192)">
<title>sdk/include/os_type.h</title>
<polygon fill="#ffffff" stroke="transparent" points="-4,4 -4,-192 181.5,-192 181.5,4 -4,4"/>
<!-- Node0 -->
<g id="node1" class="node">
<title>Node0</title>
<polygon fill="#bfbfbf" stroke="#000000" points="44,-168.5 44,-187.5 157,-187.5 157,-168.5 44,-168.5"/>
<text text-anchor="middle" x="100.5" y="-175.5" font-family="Helvetica,sans-Serif" font-size="10.00" fill="#000000">sdk/include/os_type.h</text>
</g>
<!-- Node1 -->
<g id="node2" class="node">
<title>Node1</title>
<g id="a_node2"><a xlink:href="ets__sys_8h.html" target="_top" xlink:title="ets_sys.h">
<polygon fill="#ffffff" stroke="#000000" points="71,-112.5 71,-131.5 130,-131.5 130,-112.5 71,-112.5"/>
<text text-anchor="middle" x="100.5" y="-119.5" font-family="Helvetica,sans-Serif" font-size="10.00" fill="#000000">ets_sys.h</text>
</a>
</g>
</g>
<!-- Node0&#45;&gt;Node1 -->
<g id="edge1" class="edge">
<title>Node0&#45;&gt;Node1</title>
<path fill="none" stroke="#191970" d="M100.5,-168.2455C100.5,-160.9382 100.5,-150.6944 100.5,-141.7046"/>
<polygon fill="#191970" stroke="#191970" points="104.0001,-141.6426 100.5,-131.6427 97.0001,-141.6427 104.0001,-141.6426"/>
</g>
<!-- Node2 -->
<g id="node3" class="node">
<title>Node2</title>
<g id="a_node3"><a xlink:href="c__types_8h.html" target="_top" xlink:title="c_types.h">
<polygon fill="#ffffff" stroke="#000000" points="30,-56.5 30,-75.5 89,-75.5 89,-56.5 30,-56.5"/>
<text text-anchor="middle" x="59.5" y="-63.5" font-family="Helvetica,sans-Serif" font-size="10.00" fill="#000000">c_types.h</text>
</a>
</g>
</g>
<!-- Node1&#45;&gt;Node2 -->
<g id="edge2" class="edge">
<title>Node1&#45;&gt;Node2</title>
<path fill="none" stroke="#191970" d="M93.3583,-112.2455C87.6556,-104.4564 79.51,-93.3308 72.6375,-83.9439"/>
<polygon fill="#191970" stroke="#191970" points="75.2913,-81.6437 66.5598,-75.6427 69.6432,-85.7789 75.2913,-81.6437"/>
</g>
<!-- Node5 -->
<g id="node6" class="node">
<title>Node5</title>
<g id="a_node6"><a xlink:href="eagle__soc_8h.html" target="_top" xlink:title="eagle_soc.h">
<polygon fill="#ffffff" stroke="#000000" points="107.5,-56.5 107.5,-75.5 177.5,-75.5 177.5,-56.5 107.5,-56.5"/>
<text text-anchor="middle" x="142.5" y="-63.5" font-family="Helvetica,sans-Serif" font-size="10.00" fill="#000000">eagle_soc.h</text>
</a>
</g>
</g>
<!-- Node1&#45;&gt;Node5 -->
<g id="edge5" class="edge">
<title>Node1&#45;&gt;Node5</title>
<path fill="none" stroke="#191970" d="M107.8158,-112.2455C113.7179,-104.3761 122.1742,-93.101 129.2594,-83.6542"/>
<polygon fill="#191970" stroke="#191970" points="132.068,-85.7427 135.268,-75.6427 126.4679,-81.5427 132.068,-85.7427"/>
</g>
<!-- Node3 -->
<g id="node4" class="node">
<title>Node3</title>
<polygon fill="#ffffff" stroke="#bfbfbf" points="0,-.5 0,-19.5 49,-19.5 49,-.5 0,-.5"/>
<text text-anchor="middle" x="24.5" y="-7.5" font-family="Helvetica,sans-Serif" font-size="10.00" fill="#000000">stdint.h</text>
</g>
<!-- Node2&#45;&gt;Node3 -->
<g id="edge3" class="edge">
<title>Node2&#45;&gt;Node3</title>
<path fill="none" stroke="#191970" d="M53.4035,-56.2455C48.5855,-48.5367 41.7249,-37.5598 35.8968,-28.2348"/>
<polygon fill="#191970" stroke="#191970" points="38.7947,-26.2677 30.5267,-19.6427 32.8587,-29.9777 38.7947,-26.2677"/>
</g>
<!-- Node4 -->
<g id="node5" class="node">
<title>Node4</title>
<polygon fill="#ffffff" stroke="#bfbfbf" points="67,-.5 67,-19.5 124,-19.5 124,-.5 67,-.5"/>
<text text-anchor="middle" x="95.5" y="-7.5" font-family="Helvetica,sans-Serif" font-size="10.00" fill="#000000">stdbool.h</text>
</g>
<!-- Node2&#45;&gt;Node4 -->
<g id="edge4" class="edge">
<title>Node2&#45;&gt;Node4</title>
<path fill="none" stroke="#191970" d="M65.7707,-56.2455C70.7264,-48.5367 77.783,-37.5598 83.7776,-28.2348"/>
<polygon fill="#191970" stroke="#191970" points="86.8376,-29.9471 89.3011,-19.6427 80.9494,-26.1618 86.8376,-29.9471"/>
</g>
</g>
</svg>
