<?xml version="1.0" encoding="UTF-8" standalone="no"?>
<!DOCTYPE svg PUBLIC "-//W3C//DTD SVG 1.1//EN"
 "http://www.w3.org/Graphics/SVG/1.1/DTD/svg11.dtd">
<!-- Generated by graphviz version 2.41.20170323.1842 (20170323.1842)
 -->
<!-- Title: pbuf_copy Pages: 1 -->
<svg width="611pt" height="180pt"
 viewBox="0.00 0.00 611.00 180.00" xmlns="http://www.w3.org/2000/svg" xmlns:xlink="http://www.w3.org/1999/xlink">
<g id="graph0" class="graph" transform="scale(1 1) rotate(0) translate(4 176)">
<title>pbuf_copy</title>
<polygon fill="#ffffff" stroke="transparent" points="-4,4 -4,-176 607,-176 607,4 -4,4"/>
<!-- Node47 -->
<g id="node1" class="node">
<title>Node47</title>
<polygon fill="#bfbfbf" stroke="#000000" points="0,-57.5 0,-76.5 63,-76.5 63,-57.5 0,-57.5"/>
<text text-anchor="middle" x="31.5" y="-64.5" font-family="Helvetica,sans-Serif" font-size="10.00" fill="#000000">pbuf_copy</text>
</g>
<!-- Node48 -->
<g id="node2" class="node">
<title>Node48</title>
<g id="a_node2"><a xlink:href="espconn__udp_8c.html#a01fa0df74518311e3eb03f2d955f9f26" target="_top" xlink:title="espconn_udp_sendto">
<polygon fill="#ffffff" stroke="#000000" points="99,-114.5 99,-133.5 211,-133.5 211,-114.5 99,-114.5"/>
<text text-anchor="middle" x="155" y="-121.5" font-family="Helvetica,sans-Serif" font-size="10.00" fill="#000000">espconn_udp_sendto</text>
</a>
</g>
</g>
<!-- Node47&#45;&gt;Node48 -->
<g id="edge1" class="edge">
<title>Node47&#45;&gt;Node48</title>
<path fill="none" stroke="#191970" d="M59.7001,-81.1755C71.7428,-87.1277 85.9944,-94.0384 99,-100 109.7693,-104.9365 121.8342,-110.1473 131.9997,-114.4475"/>
<polygon fill="#191970" stroke="#191970" points="61.0945,-77.9601 50.5817,-76.6439 57.9791,-84.2287 61.0945,-77.9601"/>
</g>
<!-- Node50 -->
<g id="node4" class="node">
<title>Node50</title>
<g id="a_node4"><a xlink:href="espconn__udp_8c.html#ac963eff73234530596d6c02e6bb05e09" target="_top" xlink:title="espconn_udp_sent">
<polygon fill="#ffffff" stroke="#000000" points="387,-114.5 387,-133.5 488,-133.5 488,-114.5 387,-114.5"/>
<text text-anchor="middle" x="437.5" y="-121.5" font-family="Helvetica,sans-Serif" font-size="10.00" fill="#000000">espconn_udp_sent</text>
</a>
</g>
</g>
<!-- Node47&#45;&gt;Node50 -->
<g id="edge11" class="edge">
<title>Node47&#45;&gt;Node50</title>
<path fill="none" stroke="#191970" d="M73.4425,-70.6687C134.6882,-76.3242 252.0715,-88.2931 351,-105 366.4639,-107.6115 383.3371,-111.1583 398.0416,-114.4804"/>
<polygon fill="#191970" stroke="#191970" points="73.6681,-67.1748 63.3912,-69.7508 73.0315,-74.1458 73.6681,-67.1748"/>
</g>
<!-- Node55 -->
<g id="node9" class="node">
<title>Node55</title>
<g id="a_node9"><a xlink:href="netif_8c.html#a34e37a1e8e358760dc1c43887922c7db" target="_top" xlink:title="netif_set_link_down">
<polygon fill="#ffffff" stroke="#000000" points="103,-38.5 103,-57.5 207,-57.5 207,-38.5 103,-38.5"/>
<text text-anchor="middle" x="155" y="-45.5" font-family="Helvetica,sans-Serif" font-size="10.00" fill="#000000">netif_set_link_down</text>
</a>
</g>
</g>
<!-- Node47&#45;&gt;Node55 -->
<g id="edge12" class="edge">
<title>Node47&#45;&gt;Node55</title>
<path fill="none" stroke="#191970" d="M73.2454,-60.5776C82.7057,-59.1222 92.8683,-57.5587 102.7032,-56.0457"/>
<polygon fill="#191970" stroke="#191970" points="72.6558,-57.1271 63.3043,-62.107 73.7203,-64.0457 72.6558,-57.1271"/>
</g>
<!-- Node56 -->
<g id="node10" class="node">
<title>Node56</title>
<g id="a_node10"><a xlink:href="pbuf_8c.html#a54ac7b116c6f53c704cbf74f35a8b35c" target="_top" xlink:title="pbuf_coalesce">
<polygon fill="#ffffff" stroke="#000000" points="114.5,-.5 114.5,-19.5 195.5,-19.5 195.5,-.5 114.5,-.5"/>
<text text-anchor="middle" x="155" y="-7.5" font-family="Helvetica,sans-Serif" font-size="10.00" fill="#000000">pbuf_coalesce</text>
</a>
</g>
</g>
<!-- Node47&#45;&gt;Node56 -->
<g id="edge13" class="edge">
<title>Node47&#45;&gt;Node56</title>
<path fill="none" stroke="#191970" d="M55.2099,-52.2208C67.9042,-44.6784 83.9803,-35.7059 99,-29 106.7809,-25.526 115.403,-22.3074 123.5029,-19.5438"/>
<polygon fill="#191970" stroke="#191970" points="53.3759,-49.2396 46.6275,-57.4072 56.9964,-55.2306 53.3759,-49.2396"/>
</g>
<!-- Node49 -->
<g id="node3" class="node">
<title>Node49</title>
<g id="a_node3"><a xlink:href="espconn__udp_8c.html#ad90679652367797548ea650f09d14f7e" target="_top" xlink:title="espconn_data_sent">
<polygon fill="#ffffff" stroke="#000000" points="247,-114.5 247,-133.5 351,-133.5 351,-114.5 247,-114.5"/>
<text text-anchor="middle" x="299" y="-121.5" font-family="Helvetica,sans-Serif" font-size="10.00" fill="#000000">espconn_data_sent</text>
</a>
</g>
</g>
<!-- Node48&#45;&gt;Node49 -->
<g id="edge2" class="edge">
<title>Node48&#45;&gt;Node49</title>
<path fill="none" stroke="#191970" d="M221.3376,-117.2686C229.8106,-117.2129 238.3888,-117.2824 246.599,-117.4774"/>
<polygon fill="#191970" stroke="#191970" points="221.0412,-113.772 211.0865,-117.3987 221.1301,-120.7714 221.0412,-113.772"/>
</g>
<!-- Node52 -->
<g id="node6" class="node">
<title>Node52</title>
<g id="a_node6"><a xlink:href="sdk_2include_2espconn_8h.html#a62219be0ac7e8dd6085915d5c0777476" target="_top" xlink:title="espconn_sendto">
<polygon fill="#ffffff" stroke="#000000" points="254,-152.5 254,-171.5 344,-171.5 344,-152.5 254,-152.5"/>
<text text-anchor="middle" x="299" y="-159.5" font-family="Helvetica,sans-Serif" font-size="10.00" fill="#000000">espconn_sendto</text>
</a>
</g>
</g>
<!-- Node48&#45;&gt;Node52 -->
<g id="edge7" class="edge">
<title>Node48&#45;&gt;Node52</title>
<path fill="none" stroke="#191970" d="M201.1722,-136.1843C221.1642,-141.46 244.2187,-147.5438 262.924,-152.4799"/>
<polygon fill="#191970" stroke="#191970" points="201.8994,-132.7565 191.3373,-133.589 200.1132,-139.5248 201.8994,-132.7565"/>
</g>
<!-- Node49&#45;&gt;Node48 -->
<g id="edge3" class="edge">
<title>Node49&#45;&gt;Node48</title>
<path fill="none" stroke="#191970" d="M236.4337,-130.6982C228.0025,-130.7912 219.3956,-130.7589 211.0865,-130.6013"/>
<polygon fill="#191970" stroke="#191970" points="236.661,-134.1949 246.599,-130.5226 236.54,-127.196 236.661,-134.1949"/>
</g>
<!-- Node49&#45;&gt;Node50 -->
<g id="edge4" class="edge">
<title>Node49&#45;&gt;Node50</title>
<path fill="none" stroke="#191970" d="M361.5937,-117.2778C370.0656,-117.2068 378.6716,-117.2717 386.8982,-117.4724"/>
<polygon fill="#191970" stroke="#191970" points="361.3071,-113.7816 351.3609,-117.4317 361.4124,-120.7808 361.3071,-113.7816"/>
</g>
<!-- Node50&#45;&gt;Node49 -->
<g id="edge5" class="edge">
<title>Node50&#45;&gt;Node49</title>
<path fill="none" stroke="#191970" d="M376.7099,-130.705C368.2596,-130.7953 359.6388,-130.7497 351.3609,-130.5683"/>
<polygon fill="#191970" stroke="#191970" points="376.9606,-134.2013 386.8982,-130.5276 376.8387,-127.2023 376.9606,-134.2013"/>
</g>
<!-- Node51 -->
<g id="node5" class="node">
<title>Node51</title>
<g id="a_node5"><a xlink:href="sdk_2include_2espconn_8h.html#a579e4f1c62f7c33be01398931617e988" target="_top" xlink:title="espconn_sent">
<polygon fill="#ffffff" stroke="#000000" points="524,-114.5 524,-133.5 603,-133.5 603,-114.5 524,-114.5"/>
<text text-anchor="middle" x="563.5" y="-121.5" font-family="Helvetica,sans-Serif" font-size="10.00" fill="#000000">espconn_sent</text>
</a>
</g>
</g>
<!-- Node50&#45;&gt;Node51 -->
<g id="edge6" class="edge">
<title>Node50&#45;&gt;Node51</title>
<path fill="none" stroke="#191970" d="M498.1817,-124C506.8926,-124 515.6627,-124 523.8247,-124"/>
<polygon fill="#191970" stroke="#191970" points="498.023,-120.5001 488.023,-124 498.023,-127.5001 498.023,-120.5001"/>
</g>
<!-- Node53 -->
<g id="node7" class="node">
<title>Node53</title>
<g id="a_node7"><a xlink:href="captdns_8c.html#a59c9a28ea1f015cff27b9d0c252d15f3" target="_top" xlink:title="captdnsRecv">
<polygon fill="#ffffff" stroke="#000000" points="400.5,-152.5 400.5,-171.5 474.5,-171.5 474.5,-152.5 400.5,-152.5"/>
<text text-anchor="middle" x="437.5" y="-159.5" font-family="Helvetica,sans-Serif" font-size="10.00" fill="#000000">captdnsRecv</text>
</a>
</g>
</g>
<!-- Node52&#45;&gt;Node53 -->
<g id="edge8" class="edge">
<title>Node52&#45;&gt;Node53</title>
<path fill="none" stroke="#191970" d="M354.7809,-162C370.1154,-162 386.3664,-162 400.3675,-162"/>
<polygon fill="#191970" stroke="#191970" points="354.3501,-158.5001 344.3501,-162 354.35,-165.5001 354.3501,-158.5001"/>
</g>
<!-- Node54 -->
<g id="node8" class="node">
<title>Node54</title>
<g id="a_node8"><a xlink:href="captdns_8h.html#a88f42288d1b84cab204cca9e7f7aa9a3" target="_top" xlink:title="captdnsInit">
<polygon fill="#ffffff" stroke="#000000" points="531,-152.5 531,-171.5 596,-171.5 596,-152.5 531,-152.5"/>
<text text-anchor="middle" x="563.5" y="-159.5" font-family="Helvetica,sans-Serif" font-size="10.00" fill="#000000">captdnsInit</text>
</a>
</g>
</g>
<!-- Node53&#45;&gt;Node54 -->
<g id="edge9" class="edge">
<title>Node53&#45;&gt;Node54</title>
<path fill="none" stroke="#191970" d="M484.9732,-155.4356C500.2955,-155.0624 516.9245,-155.252 530.9187,-156.0046"/>
<polygon fill="#191970" stroke="#191970" points="484.4993,-151.9495 474.6227,-155.7839 484.7348,-158.9455 484.4993,-151.9495"/>
</g>
<!-- Node54&#45;&gt;Node53 -->
<g id="edge10" class="edge">
<title>Node54&#45;&gt;Node53</title>
<path fill="none" stroke="#191970" d="M520.8579,-168.4265C505.8575,-168.9192 489.1319,-168.8491 474.6227,-168.2161"/>
<polygon fill="#191970" stroke="#191970" points="521.0778,-171.9204 530.9187,-167.9954 520.7781,-164.9268 521.0778,-171.9204"/>
</g>
</g>
</svg>
