<?xml version="1.0" encoding="UTF-8" standalone="no"?>
<!DOCTYPE svg PUBLIC "-//W3C//DTD SVG 1.1//EN"
 "http://www.w3.org/Graphics/SVG/1.1/DTD/svg11.dtd">
<!-- Generated by graphviz version 2.41.20170323.1842 (20170323.1842)
 -->
<!-- Title: pbuf_realloc Pages: 1 -->
<svg width="380pt" height="85pt"
 viewBox="0.00 0.00 380.00 85.00" xmlns="http://www.w3.org/2000/svg" xmlns:xlink="http://www.w3.org/1999/xlink">
<g id="graph0" class="graph" transform="scale(1 1) rotate(0) translate(4 81)">
<title>pbuf_realloc</title>
<polygon fill="#ffffff" stroke="transparent" points="-4,4 -4,-81 376,-81 376,4 -4,4"/>
<!-- Node161 -->
<g id="node1" class="node">
<title>Node161</title>
<polygon fill="#bfbfbf" stroke="#000000" points="0,-38.5 0,-57.5 71,-57.5 71,-38.5 0,-38.5"/>
<text text-anchor="middle" x="35.5" y="-45.5" font-family="Helvetica,sans-Serif" font-size="10.00" fill="#000000">pbuf_realloc</text>
</g>
<!-- Node162 -->
<g id="node2" class="node">
<title>Node162</title>
<g id="a_node2"><a xlink:href="esp-open-lwip_2include_2lwip_2mem_8h.html#aaf260c2e52686f07d59d1d347ee952cc" target="_top" xlink:title="mem_trim">
<polygon fill="#ffffff" stroke="#000000" points="107,-57.5 107,-76.5 168,-76.5 168,-57.5 107,-57.5"/>
<text text-anchor="middle" x="137.5" y="-64.5" font-family="Helvetica,sans-Serif" font-size="10.00" fill="#000000">mem_trim</text>
</a>
</g>
</g>
<!-- Node161&#45;&gt;Node162 -->
<g id="edge1" class="edge">
<title>Node161&#45;&gt;Node162</title>
<path fill="none" stroke="#191970" d="M71.1747,-54.6453C79.4249,-56.1821 88.2649,-57.8288 96.7149,-59.4028"/>
<polygon fill="#191970" stroke="#191970" points="96.2908,-62.8839 106.7626,-61.2744 97.5727,-56.0023 96.2908,-62.8839"/>
</g>
<!-- Node163 -->
<g id="node3" class="node">
<title>Node163</title>
<g id="a_node3"><a xlink:href="pbuf_8c.html#ab0dd696fb4b6bc65e548944584f1738b" target="_top" xlink:title="pbuf_free">
<polygon fill="#ffffff" stroke="#000000" points="108,-19.5 108,-38.5 167,-38.5 167,-19.5 108,-19.5"/>
<text text-anchor="middle" x="137.5" y="-26.5" font-family="Helvetica,sans-Serif" font-size="10.00" fill="#000000">pbuf_free</text>
</a>
</g>
</g>
<!-- Node161&#45;&gt;Node163 -->
<g id="edge2" class="edge">
<title>Node161&#45;&gt;Node163</title>
<path fill="none" stroke="#191970" d="M71.1747,-41.3547C79.7633,-39.7549 88.9911,-38.036 97.7527,-36.4039"/>
<polygon fill="#191970" stroke="#191970" points="98.5676,-39.8124 107.7575,-34.5403 97.2856,-32.9308 98.5676,-39.8124"/>
</g>
<!-- Node164 -->
<g id="node4" class="node">
<title>Node164</title>
<g id="a_node4"><a xlink:href="memp_8h.html#a9d30a969401eb0626105950d6e63f3bf" target="_top" xlink:title="memp_free">
<polygon fill="#ffffff" stroke="#000000" points="204,-38.5 204,-57.5 271,-57.5 271,-38.5 204,-38.5"/>
<text text-anchor="middle" x="237.5" y="-45.5" font-family="Helvetica,sans-Serif" font-size="10.00" fill="#000000">memp_free</text>
</a>
</g>
</g>
<!-- Node163&#45;&gt;Node164 -->
<g id="edge3" class="edge">
<title>Node163&#45;&gt;Node164</title>
<path fill="none" stroke="#191970" d="M167.2325,-34.6492C175.5986,-36.2387 184.8759,-38.0014 193.8733,-39.7109"/>
<polygon fill="#191970" stroke="#191970" points="193.3717,-43.1782 203.8493,-41.6064 194.6784,-36.3012 193.3717,-43.1782"/>
</g>
<!-- Node165 -->
<g id="node5" class="node">
<title>Node165</title>
<g id="a_node5"><a xlink:href="esp-open-lwip_2include_2lwip_2mem_8h.html#ab270bbe39e1996d7095be3a139620ce0" target="_top" xlink:title="mem_free">
<polygon fill="#ffffff" stroke="#000000" points="206.5,-.5 206.5,-19.5 268.5,-19.5 268.5,-.5 206.5,-.5"/>
<text text-anchor="middle" x="237.5" y="-7.5" font-family="Helvetica,sans-Serif" font-size="10.00" fill="#000000">mem_free</text>
</a>
</g>
</g>
<!-- Node163&#45;&gt;Node165 -->
<g id="edge4" class="edge">
<title>Node163&#45;&gt;Node165</title>
<path fill="none" stroke="#191970" d="M167.2325,-23.3508C176.3767,-21.6134 186.6096,-19.6692 196.3757,-17.8136"/>
<polygon fill="#191970" stroke="#191970" points="197.1479,-21.2296 206.3188,-15.9244 195.8412,-14.3526 197.1479,-21.2296"/>
</g>
<!-- Node166 -->
<g id="node6" class="node">
<title>Node166</title>
<g id="a_node6"><a xlink:href="mem_8c.html#a24221009a2c00e9c3fa63eaa9444a076" target="_top" xlink:title="plug_holes">
<polygon fill="#ffffff" stroke="#000000" points="307,-.5 307,-19.5 372,-19.5 372,-.5 307,-.5"/>
<text text-anchor="middle" x="339.5" y="-7.5" font-family="Helvetica,sans-Serif" font-size="10.00" fill="#000000">plug_holes</text>
</a>
</g>
</g>
<!-- Node165&#45;&gt;Node166 -->
<g id="edge5" class="edge">
<title>Node165&#45;&gt;Node166</title>
<path fill="none" stroke="#191970" d="M268.6576,-10C277.5207,-10 287.3309,-10 296.7549,-10"/>
<polygon fill="#191970" stroke="#191970" points="296.7662,-13.5001 306.7662,-10 296.7661,-6.5001 296.7662,-13.5001"/>
</g>
</g>
</svg>
