<?xml version="1.0" encoding="UTF-8" standalone="no"?>
<!DOCTYPE svg PUBLIC "-//W3C//DTD SVG 1.1//EN"
 "http://www.w3.org/Graphics/SVG/1.1/DTD/svg11.dtd">
<!-- Generated by graphviz version 2.41.20170323.1842 (20170323.1842)
 -->
<!-- Title: pbuf_strstr Pages: 1 -->
<svg width="412pt" height="28pt"
 viewBox="0.00 0.00 412.00 28.00" xmlns="http://www.w3.org/2000/svg" xmlns:xlink="http://www.w3.org/1999/xlink">
<g id="graph0" class="graph" transform="scale(1 1) rotate(0) translate(4 24)">
<title>pbuf_strstr</title>
<polygon fill="#ffffff" stroke="transparent" points="-4,4 -4,-24 408,-24 408,4 -4,4"/>
<!-- Node178 -->
<g id="node1" class="node">
<title>Node178</title>
<polygon fill="#bfbfbf" stroke="#000000" points="0,-.5 0,-19.5 64,-19.5 64,-.5 0,-.5"/>
<text text-anchor="middle" x="32" y="-7.5" font-family="Helvetica,sans-Serif" font-size="10.00" fill="#000000">pbuf_strstr</text>
</g>
<!-- Node179 -->
<g id="node2" class="node">
<title>Node179</title>
<g id="a_node2"><a xlink:href="pbuf_8c.html#ab5a23dd5534f69e34de05c624b91aa65" target="_top" xlink:title="pbuf_memfind">
<polygon fill="#ffffff" stroke="#000000" points="100,-.5 100,-19.5 180,-19.5 180,-.5 100,-.5"/>
<text text-anchor="middle" x="140" y="-7.5" font-family="Helvetica,sans-Serif" font-size="10.00" fill="#000000">pbuf_memfind</text>
</a>
</g>
</g>
<!-- Node178&#45;&gt;Node179 -->
<g id="edge1" class="edge">
<title>Node178&#45;&gt;Node179</title>
<path fill="none" stroke="#191970" d="M64.1112,-10C72.1555,-10 80.98,-10 89.6767,-10"/>
<polygon fill="#191970" stroke="#191970" points="89.7728,-13.5001 99.7728,-10 89.7728,-6.5001 89.7728,-13.5001"/>
</g>
<!-- Node180 -->
<g id="node3" class="node">
<title>Node180</title>
<g id="a_node3"><a xlink:href="pbuf_8c.html#a9c958b2d670dc831a982ea836c6bdfdb" target="_top" xlink:title="pbuf_memcmp">
<polygon fill="#ffffff" stroke="#000000" points="216,-.5 216,-19.5 299,-19.5 299,-.5 216,-.5"/>
<text text-anchor="middle" x="257.5" y="-7.5" font-family="Helvetica,sans-Serif" font-size="10.00" fill="#000000">pbuf_memcmp</text>
</a>
</g>
</g>
<!-- Node179&#45;&gt;Node180 -->
<g id="edge2" class="edge">
<title>Node179&#45;&gt;Node180</title>
<path fill="none" stroke="#191970" d="M180.1082,-10C188.4226,-10 197.2928,-10 205.9511,-10"/>
<polygon fill="#191970" stroke="#191970" points="205.9719,-13.5001 215.9719,-10 205.9718,-6.5001 205.9719,-13.5001"/>
</g>
<!-- Node181 -->
<g id="node4" class="node">
<title>Node181</title>
<g id="a_node4"><a xlink:href="pbuf_8c.html#a9e0f4c31d059984a431c96bf27b763e6" target="_top" xlink:title="pbuf_get_at">
<polygon fill="#ffffff" stroke="#000000" points="335,-.5 335,-19.5 404,-19.5 404,-.5 335,-.5"/>
<text text-anchor="middle" x="369.5" y="-7.5" font-family="Helvetica,sans-Serif" font-size="10.00" fill="#000000">pbuf_get_at</text>
</a>
</g>
</g>
<!-- Node180&#45;&gt;Node181 -->
<g id="edge3" class="edge">
<title>Node180&#45;&gt;Node181</title>
<path fill="none" stroke="#191970" d="M299.2047,-10C307.5172,-10 316.2802,-10 324.6919,-10"/>
<polygon fill="#191970" stroke="#191970" points="324.7243,-13.5001 334.7243,-10 324.7243,-6.5001 324.7243,-13.5001"/>
</g>
</g>
</svg>
