<?xml version="1.0" encoding="UTF-8" standalone="no"?>
<!DOCTYPE svg PUBLIC "-//W3C//DTD SVG 1.1//EN"
 "http://www.w3.org/Graphics/SVG/1.1/DTD/svg11.dtd">
<!-- Generated by graphviz version 2.41.20170323.1842 (20170323.1842)
 -->
<!-- Title: pbuf_realloc Pages: 1 -->
<svg width="595pt" height="142pt"
 viewBox="0.00 0.00 595.00 142.00" xmlns="http://www.w3.org/2000/svg" xmlns:xlink="http://www.w3.org/1999/xlink">
<g id="graph0" class="graph" transform="scale(1 1) rotate(0) translate(4 138)">
<title>pbuf_realloc</title>
<polygon fill="#ffffff" stroke="transparent" points="-4,4 -4,-138 591,-138 591,4 -4,4"/>
<!-- Node167 -->
<g id="node1" class="node">
<title>Node167</title>
<polygon fill="#bfbfbf" stroke="#000000" points="0,-57.5 0,-76.5 71,-76.5 71,-57.5 0,-57.5"/>
<text text-anchor="middle" x="35.5" y="-64.5" font-family="Helvetica,sans-Serif" font-size="10.00" fill="#000000">pbuf_realloc</text>
</g>
<!-- Node168 -->
<g id="node2" class="node">
<title>Node168</title>
<g id="a_node2"><a xlink:href="ip_8c.html#a3c420dab0c6760df099a2d688fa42a26" target="_top" xlink:title="ip_input">
<polygon fill="#ffffff" stroke="#000000" points="107,-57.5 107,-76.5 159,-76.5 159,-57.5 107,-57.5"/>
<text text-anchor="middle" x="133" y="-64.5" font-family="Helvetica,sans-Serif" font-size="10.00" fill="#000000">ip_input</text>
</a>
</g>
</g>
<!-- Node167&#45;&gt;Node168 -->
<g id="edge1" class="edge">
<title>Node167&#45;&gt;Node168</title>
<path fill="none" stroke="#191970" d="M81.3474,-67C90.0528,-67 98.882,-67 106.7195,-67"/>
<polygon fill="#191970" stroke="#191970" points="81.2518,-63.5001 71.2518,-67 81.2517,-70.5001 81.2518,-63.5001"/>
</g>
<!-- Node169 -->
<g id="node3" class="node">
<title>Node169</title>
<g id="a_node3"><a xlink:href="tcpip_8c.html#a61474ad2c2c25ba58cc774e2bcc4ef5f" target="_top" xlink:title="tcpip_thread">
<polygon fill="#ffffff" stroke="#000000" points="335,-114.5 335,-133.5 407,-133.5 407,-114.5 335,-114.5"/>
<text text-anchor="middle" x="371" y="-121.5" font-family="Helvetica,sans-Serif" font-size="10.00" fill="#000000">tcpip_thread</text>
</a>
</g>
</g>
<!-- Node168&#45;&gt;Node169 -->
<g id="edge2" class="edge">
<title>Node168&#45;&gt;Node169</title>
<path fill="none" stroke="#191970" d="M153.1051,-82.4908C164.7125,-90.5932 179.9556,-99.8688 195,-105 241.5404,-120.8735 298.6553,-124.327 334.9467,-124.6849"/>
<polygon fill="#191970" stroke="#191970" points="155.1507,-79.6509 145.0011,-76.6118 151.0402,-85.3169 155.1507,-79.6509"/>
</g>
<!-- Node171 -->
<g id="node5" class="node">
<title>Node171</title>
<g id="a_node5"><a xlink:href="tcpip_8c.html#ae510f195171bed8499ae94e264a92717" target="_top" xlink:title="tcpip_input">
<polygon fill="#ffffff" stroke="#000000" points="214.5,-76.5 214.5,-95.5 279.5,-95.5 279.5,-76.5 214.5,-76.5"/>
<text text-anchor="middle" x="247" y="-83.5" font-family="Helvetica,sans-Serif" font-size="10.00" fill="#000000">tcpip_input</text>
</a>
</g>
</g>
<!-- Node168&#45;&gt;Node171 -->
<g id="edge4" class="edge">
<title>Node168&#45;&gt;Node171</title>
<path fill="none" stroke="#191970" d="M169.2786,-73.0464C183.7745,-75.4624 200.3402,-78.2234 214.443,-80.5738"/>
<polygon fill="#191970" stroke="#191970" points="169.5933,-69.5507 159.1539,-71.359 168.4424,-76.4554 169.5933,-69.5507"/>
</g>
<!-- Node172 -->
<g id="node6" class="node">
<title>Node172</title>
<g id="a_node6"><a xlink:href="netif_8c.html#a0f4a53e47c840904f824a2a1c0d4ebf4" target="_top" xlink:title="netif_init">
<polygon fill="#ffffff" stroke="#000000" points="344,-76.5 344,-95.5 398,-95.5 398,-76.5 344,-76.5"/>
<text text-anchor="middle" x="371" y="-83.5" font-family="Helvetica,sans-Serif" font-size="10.00" fill="#000000">netif_init</text>
</a>
</g>
</g>
<!-- Node168&#45;&gt;Node172 -->
<g id="edge8" class="edge">
<title>Node168&#45;&gt;Node172</title>
<path fill="none" stroke="#191970" d="M169.3091,-64.3238C203.056,-62.4687 254.643,-61.2458 299,-67 314.1282,-68.9625 330.6074,-73.1526 343.978,-77.0998"/>
<polygon fill="#191970" stroke="#191970" points="168.784,-60.8489 159.011,-64.9403 169.2023,-67.8364 168.784,-60.8489"/>
</g>
<!-- Node174 -->
<g id="node8" class="node">
<title>Node174</title>
<g id="a_node8"><a xlink:href="netif_8c.html#a34e37a1e8e358760dc1c43887922c7db" target="_top" xlink:title="netif_set_link_down">
<polygon fill="#ffffff" stroke="#000000" points="195,-.5 195,-19.5 299,-19.5 299,-.5 195,-.5"/>
<text text-anchor="middle" x="247" y="-7.5" font-family="Helvetica,sans-Serif" font-size="10.00" fill="#000000">netif_set_link_down</text>
</a>
</g>
</g>
<!-- Node168&#45;&gt;Node174 -->
<g id="edge9" class="edge">
<title>Node168&#45;&gt;Node174</title>
<path fill="none" stroke="#191970" d="M159.2936,-52.5814C170.2594,-46.679 183.1735,-39.8707 195,-34 204.9747,-29.0485 216.1747,-23.8359 225.6186,-19.5383"/>
<polygon fill="#191970" stroke="#191970" points="157.3603,-49.6481 150.2348,-57.4889 160.6946,-55.803 157.3603,-49.6481"/>
</g>
<!-- Node170 -->
<g id="node4" class="node">
<title>Node170</title>
<g id="a_node4"><a xlink:href="tcpip_8c.html#a1f3a88b8df6ba3b9ed1c00e0a305e3db" target="_top" xlink:title="tcpip_init">
<polygon fill="#ffffff" stroke="#000000" points="531,-95.5 531,-114.5 587,-114.5 587,-95.5 531,-95.5"/>
<text text-anchor="middle" x="559" y="-102.5" font-family="Helvetica,sans-Serif" font-size="10.00" fill="#000000">tcpip_init</text>
</a>
</g>
</g>
<!-- Node169&#45;&gt;Node170 -->
<g id="edge3" class="edge">
<title>Node169&#45;&gt;Node170</title>
<path fill="none" stroke="#191970" d="M417.3882,-119.3118C452.9461,-115.7182 500.8543,-110.8764 530.8291,-107.8471"/>
<polygon fill="#191970" stroke="#191970" points="416.8456,-115.8487 407.2483,-120.3366 417.5496,-122.8133 416.8456,-115.8487"/>
</g>
<!-- Node171&#45;&gt;Node172 -->
<g id="edge5" class="edge">
<title>Node171&#45;&gt;Node172</title>
<path fill="none" stroke="#191970" d="M289.7736,-86C307.6383,-86 327.8667,-86 343.6678,-86"/>
<polygon fill="#191970" stroke="#191970" points="289.5796,-82.5001 279.5795,-86 289.5795,-89.5001 289.5796,-82.5001"/>
</g>
<!-- Node173 -->
<g id="node7" class="node">
<title>Node173</title>
<g id="a_node7"><a xlink:href="init_8c.html#a0c1a18439524d2f4a5e51d25c0ca2ce9" target="_top" xlink:title="lwip_init">
<polygon fill="#ffffff" stroke="#000000" points="443,-76.5 443,-95.5 495,-95.5 495,-76.5 443,-76.5"/>
<text text-anchor="middle" x="469" y="-83.5" font-family="Helvetica,sans-Serif" font-size="10.00" fill="#000000">lwip_init</text>
</a>
</g>
</g>
<!-- Node172&#45;&gt;Node173 -->
<g id="edge6" class="edge">
<title>Node172&#45;&gt;Node173</title>
<path fill="none" stroke="#191970" d="M408.2521,-86C419.7392,-86 432.1417,-86 442.7267,-86"/>
<polygon fill="#191970" stroke="#191970" points="408.0384,-82.5001 398.0384,-86 408.0383,-89.5001 408.0384,-82.5001"/>
</g>
<!-- Node173&#45;&gt;Node170 -->
<g id="edge7" class="edge">
<title>Node173&#45;&gt;Node170</title>
<path fill="none" stroke="#191970" d="M504.8692,-93.5724C513.5009,-95.3946 522.6005,-97.3157 530.8243,-99.0518"/>
<polygon fill="#191970" stroke="#191970" points="505.5391,-90.1367 495.0317,-91.4956 504.0931,-96.9858 505.5391,-90.1367"/>
</g>
</g>
</svg>
