<?xml version="1.0" encoding="UTF-8" standalone="no"?>
<!DOCTYPE svg PUBLIC "-//W3C//DTD SVG 1.1//EN"
 "http://www.w3.org/Graphics/SVG/1.1/DTD/svg11.dtd">
<!-- Generated by graphviz version 2.39.20160927.1334 (20160927.1334)
 -->
<!-- Title: PROTO_AddRb Pages: 1 -->
<svg width="1420pt" height="427pt"
 viewBox="0.00 0.00 1420.00 427.00" xmlns="http://www.w3.org/2000/svg" xmlns:xlink="http://www.w3.org/1999/xlink">
<g id="graph0" class="graph" transform="scale(1 1) rotate(0) translate(4 423)">
<title>PROTO_AddRb</title>
<polygon fill="#ffffff" stroke="transparent" points="-4,4 -4,-423 1416,-423 1416,4 -4,4"/>
<!-- Node1 -->
<g id="node1" class="node">
<title>Node1</title>
<polygon fill="#bfbfbf" stroke="#000000" points="0,-135.5 0,-154.5 88,-154.5 88,-135.5 0,-135.5"/>
<text text-anchor="middle" x="44" y="-142.5" font-family="Helvetica,sans-Serif" font-size="10.00" fill="#000000">PROTO_AddRb</text>
</g>
<!-- Node2 -->
<g id="node2" class="node">
<title>Node2</title>
<g id="a_node2"><a xlink:href="queue_8c.html#a0a04f14d06c5c3ee302764c5f3d7dc0c" target="_top" xlink:title="QUEUE_Puts">
<polygon fill="#ffffff" stroke="#000000" points="124,-135.5 124,-154.5 202,-154.5 202,-135.5 124,-135.5"/>
<text text-anchor="middle" x="163" y="-142.5" font-family="Helvetica,sans-Serif" font-size="10.00" fill="#000000">QUEUE_Puts</text>
</a>
</g>
</g>
<!-- Node1&#45;&gt;Node2 -->
<g id="edge1" class="edge">
<title>Node1&#45;&gt;Node2</title>
<path fill="none" stroke="#191970" d="M98.5578,-145C107.052,-145 115.681,-145 123.746,-145"/>
<polygon fill="#191970" stroke="#191970" points="98.3112,-141.5 88.3112,-145 98.3112,-148.5 98.3112,-141.5"/>
</g>
<!-- Node3 -->
<g id="node3" class="node">
<title>Node3</title>
<g id="a_node3"><a xlink:href="mqtt_8c.html#af470856972320b9c02da9fcb6f419fd0" target="_top" xlink:title="Client received callback function. ">
<polygon fill="#ffffff" stroke="#000000" points="240.5,-45.5 240.5,-64.5 343.5,-64.5 343.5,-45.5 240.5,-45.5"/>
<text text-anchor="middle" x="292" y="-52.5" font-family="Helvetica,sans-Serif" font-size="10.00" fill="#000000">mqtt_tcpclient_recv</text>
</a>
</g>
</g>
<!-- Node2&#45;&gt;Node3 -->
<g id="edge2" class="edge">
<title>Node2&#45;&gt;Node3</title>
<path fill="none" stroke="#191970" d="M182.929,-128.976C197.812,-117.228 218.808,-101.108 238,-88 250.158,-79.6966 264.383,-71.0443 275.18,-64.6833"/>
<polygon fill="#191970" stroke="#191970" points="180.583,-126.37 174.932,-135.333 184.938,-131.85 180.583,-126.37"/>
</g>
<!-- Node12 -->
<g id="node12" class="node">
<title>Node12</title>
<g id="a_node12"><a xlink:href="mqtt_8c.html#a848a6701c4c7ec3432e38ea57c003aad" target="_top" xlink:title="MQTT publish function. ">
<polygon fill="#ffffff" stroke="#000000" points="408,-259.5 408,-278.5 491,-278.5 491,-259.5 408,-259.5"/>
<text text-anchor="middle" x="449.5" y="-266.5" font-family="Helvetica,sans-Serif" font-size="10.00" fill="#000000">MQTT_Publish</text>
</a>
</g>
</g>
<!-- Node2&#45;&gt;Node12 -->
<g id="edge12" class="edge">
<title>Node2&#45;&gt;Node12</title>
<path fill="none" stroke="#191970" d="M178.754,-162.062C192.958,-176.495 215.08,-196.733 238,-209 292.851,-238.357 363.597,-254.655 407.76,-262.621"/>
<polygon fill="#191970" stroke="#191970" points="181.17,-159.525 171.723,-154.729 176.117,-164.369 181.17,-159.525"/>
</g>
<!-- Node25 -->
<g id="node25" class="node">
<title>Node25</title>
<g id="a_node25"><a xlink:href="mqtt_8c.html#a86f8adfe29d6ec8bb5070fd030540d2f" target="_top" xlink:title="MQTT subscibe function. ">
<polygon fill="#ffffff" stroke="#000000" points="402,-123.5 402,-142.5 497,-142.5 497,-123.5 402,-123.5"/>
<text text-anchor="middle" x="449.5" y="-130.5" font-family="Helvetica,sans-Serif" font-size="10.00" fill="#000000">MQTT_Subscribe</text>
</a>
</g>
</g>
<!-- Node2&#45;&gt;Node25 -->
<g id="edge35" class="edge">
<title>Node2&#45;&gt;Node25</title>
<path fill="none" stroke="#191970" d="M212.423,-142.93C265.493,-140.707 349.238,-137.199 401.681,-135.003"/>
<polygon fill="#191970" stroke="#191970" points="212.081,-139.441 202.236,-143.357 212.374,-146.435 212.081,-139.441"/>
</g>
<!-- Node26 -->
<g id="node26" class="node">
<title>Node26</title>
<g id="a_node26"><a xlink:href="mqtt_8c.html#a7f28cd912dae4c1386c10026a267b579" target="_top" xlink:title="MQTT un&#45;subscibe function. ">
<polygon fill="#ffffff" stroke="#000000" points="238,-97.5 238,-116.5 346,-116.5 346,-97.5 238,-97.5"/>
<text text-anchor="middle" x="292" y="-104.5" font-family="Helvetica,sans-Serif" font-size="10.00" fill="#000000">MQTT_UnSubscribe</text>
</a>
</g>
</g>
<!-- Node2&#45;&gt;Node26 -->
<g id="edge37" class="edge">
<title>Node2&#45;&gt;Node26</title>
<path fill="none" stroke="#191970" d="M205.554,-132.465C223.103,-127.295 243.113,-121.401 259.458,-116.586"/>
<polygon fill="#191970" stroke="#191970" points="204.156,-129.228 195.552,-135.411 206.134,-135.943 204.156,-129.228"/>
</g>
<!-- Node27 -->
<g id="node27" class="node">
<title>Node27</title>
<g id="a_node27"><a xlink:href="mqtt_8c.html#a086502e2dd36681a7fb4d9a9018cfc88" target="_top" xlink:title="MQTT ping function. ">
<polygon fill="#ffffff" stroke="#000000" points="257,-180.5 257,-199.5 327,-199.5 327,-180.5 257,-180.5"/>
<text text-anchor="middle" x="292" y="-187.5" font-family="Helvetica,sans-Serif" font-size="10.00" fill="#000000">MQTT_Ping</text>
</a>
</g>
</g>
<!-- Node2&#45;&gt;Node27 -->
<g id="edge38" class="edge">
<title>Node2&#45;&gt;Node27</title>
<path fill="none" stroke="#191970" d="M200.059,-157.927C220.67,-165.118 245.878,-173.911 264.682,-180.47"/>
<polygon fill="#191970" stroke="#191970" points="200.952,-154.532 190.358,-154.543 198.647,-161.142 200.952,-154.532"/>
</g>
<!-- Node4 -->
<g id="node4" class="node">
<title>Node4</title>
<g id="a_node4"><a xlink:href="mqtt_8c.html#a36ecd969af1b9c87856f01be064a98cc" target="_top" xlink:title="Tcp client connect success callback function. ">
<polygon fill="#ffffff" stroke="#000000" points="382,-41.5 382,-60.5 517,-60.5 517,-41.5 382,-41.5"/>
<text text-anchor="middle" x="449.5" y="-48.5" font-family="Helvetica,sans-Serif" font-size="10.00" fill="#000000">mqtt_tcpclient_connect_cb</text>
</a>
</g>
</g>
<!-- Node3&#45;&gt;Node4 -->
<g id="edge3" class="edge">
<title>Node3&#45;&gt;Node4</title>
<path fill="none" stroke="#191970" d="M353.774,-53.4311C362.958,-53.1979 372.465,-52.9564 381.763,-52.7203"/>
<polygon fill="#191970" stroke="#191970" points="353.479,-49.9374 343.571,-53.6903 353.657,-56.9351 353.479,-49.9374"/>
</g>
<!-- Node5 -->
<g id="node5" class="node">
<title>Node5</title>
<g id="a_node5"><a xlink:href="mqtt_8c.html#ad34b681cb2f7473d8fc786c7ed468db5" target="_top" xlink:title="Begin connect to MQTT broker. ">
<polygon fill="#ffffff" stroke="#000000" points="570,-38.5 570,-57.5 658,-57.5 658,-38.5 570,-38.5"/>
<text text-anchor="middle" x="614" y="-45.5" font-family="Helvetica,sans-Serif" font-size="10.00" fill="#000000">MQTT_Connect</text>
</a>
</g>
</g>
<!-- Node4&#45;&gt;Node5 -->
<g id="edge4" class="edge">
<title>Node4&#45;&gt;Node5</title>
<path fill="none" stroke="#191970" d="M527.389,-49.5795C541.953,-49.3139 556.699,-49.045 569.795,-48.8062"/>
<polygon fill="#191970" stroke="#191970" points="527.293,-46.0806 517.358,-49.7625 527.42,-53.0794 527.293,-46.0806"/>
</g>
<!-- Node6 -->
<g id="node6" class="node">
<title>Node6</title>
<g id="a_node6"><a xlink:href="mqtt_8c.html#a9d88fa6efb9163d4dbf9dc750a8d4ed0" target="_top" xlink:title="MQTT_Task">
<polygon fill="#ffffff" stroke="#000000" points="741,-0.5 741,-19.5 813,-19.5 813,-0.5 741,-0.5"/>
<text text-anchor="middle" x="777" y="-7.5" font-family="Helvetica,sans-Serif" font-size="10.00" fill="#000000">MQTT_Task</text>
</a>
</g>
</g>
<!-- Node5&#45;&gt;Node6 -->
<g id="edge5" class="edge">
<title>Node5&#45;&gt;Node6</title>
<path fill="none" stroke="#191970" d="M665.029,-36.1037C689.64,-30.3661 718.582,-23.6189 740.876,-18.4216"/>
<polygon fill="#191970" stroke="#191970" points="664.076,-32.7319 655.132,-38.411 665.665,-39.5491 664.076,-32.7319"/>
</g>
<!-- Node11 -->
<g id="node11" class="node">
<title>Node11</title>
<g id="a_node11"><a xlink:href="user__main_8h.html#a7a3bf0cc09d98adc72f4e34d26ce3fa1" target="_top" xlink:title="wifi_changed_cb">
<polygon fill="#ffffff" stroke="#000000" points="895,-57.5 895,-76.5 986,-76.5 986,-57.5 895,-57.5"/>
<text text-anchor="middle" x="940.5" y="-64.5" font-family="Helvetica,sans-Serif" font-size="10.00" fill="#000000">wifi_changed_cb</text>
</a>
</g>
</g>
<!-- Node5&#45;&gt;Node11 -->
<g id="edge10" class="edge">
<title>Node5&#45;&gt;Node11</title>
<path fill="none" stroke="#191970" d="M668.227,-51.1557C731.601,-54.8436 835.35,-60.881 894.805,-64.3409"/>
<polygon fill="#191970" stroke="#191970" points="668.22,-47.6494 658.033,-50.5624 667.813,-54.6376 668.22,-47.6494"/>
</g>
<!-- Node7 -->
<g id="node7" class="node">
<title>Node7</title>
<g id="a_node7"><a xlink:href="mqtt_8c.html#a82303094af675136988bb2be5e92fc5b" target="_top" xlink:title="MQTT initialization mqtt client function. ">
<polygon fill="#ffffff" stroke="#000000" points="896,-10.5 896,-29.5 985,-29.5 985,-10.5 896,-10.5"/>
<text text-anchor="middle" x="940.5" y="-17.5" font-family="Helvetica,sans-Serif" font-size="10.00" fill="#000000">MQTT_InitClient</text>
</a>
</g>
</g>
<!-- Node6&#45;&gt;Node7 -->
<g id="edge6" class="edge">
<title>Node6&#45;&gt;Node7</title>
<path fill="none" stroke="#191970" d="M823.379,-12.8367C846.112,-14.227 873.365,-15.8939 895.86,-17.2697"/>
<polygon fill="#191970" stroke="#191970" points="823.481,-9.33643 813.286,-12.2193 823.054,-16.3234 823.481,-9.33643"/>
</g>
<!-- Node8 -->
<g id="node8" class="node">
<title>Node8</title>
<g id="a_node8"><a xlink:href="user__main_8c.html#a245ec00253f410a8804988bf40e1037e" target="_top" xlink:title="sample_mode_timer_func">
<polygon fill="#ffffff" stroke="#000000" points="1049,-114.5 1049,-133.5 1181,-133.5 1181,-114.5 1049,-114.5"/>
<text text-anchor="middle" x="1115" y="-121.5" font-family="Helvetica,sans-Serif" font-size="10.00" fill="#000000">sample_mode_timer_func</text>
</a>
</g>
</g>
<!-- Node7&#45;&gt;Node8 -->
<g id="edge7" class="edge">
<title>Node7&#45;&gt;Node8</title>
<path fill="none" stroke="#191970" d="M973.45,-33.7951C982.832,-38.0451 992.955,-42.9449 1002,-48 1039.97,-69.2237 1081.74,-99.2 1102.22,-114.383"/>
<polygon fill="#191970" stroke="#191970" points="974.579,-30.4675 964.018,-29.6222 971.746,-36.8689 974.579,-30.4675"/>
</g>
<!-- Node9 -->
<g id="node9" class="node">
<title>Node9</title>
<g id="a_node9"><a xlink:href="user__main_8h.html#a3671381db669a16e8f6a4bf3dfb9a441" target="_top" xlink:title="system_init_done">
<polygon fill="#ffffff" stroke="#000000" points="1228,-152.5 1228,-171.5 1322,-171.5 1322,-152.5 1228,-152.5"/>
<text text-anchor="middle" x="1275" y="-159.5" font-family="Helvetica,sans-Serif" font-size="10.00" fill="#000000">system_init_done</text>
</a>
</g>
</g>
<!-- Node8&#45;&gt;Node9 -->
<g id="edge8" class="edge">
<title>Node8&#45;&gt;Node9</title>
<path fill="none" stroke="#191970" d="M1165.39,-135.968C1187.81,-141.293 1213.85,-147.476 1234.92,-152.48"/>
<polygon fill="#191970" stroke="#191970" points="1165.91,-132.495 1155.37,-133.589 1164.3,-139.305 1165.91,-132.495"/>
</g>
<!-- Node10 -->
<g id="node10" class="node">
<title>Node10</title>
<g id="a_node10"><a xlink:href="user__main_8h.html#a33113d6dedb440bd7dfa5576e325140c" target="_top" xlink:title="user_init">
<polygon fill="#ffffff" stroke="#000000" points="1358,-316.5 1358,-335.5 1412,-335.5 1412,-316.5 1358,-316.5"/>
<text text-anchor="middle" x="1385" y="-323.5" font-family="Helvetica,sans-Serif" font-size="10.00" fill="#000000">user_init</text>
</a>
</g>
</g>
<!-- Node9&#45;&gt;Node10 -->
<g id="edge9" class="edge">
<title>Node9&#45;&gt;Node10</title>
<path fill="none" stroke="#191970" d="M1287.41,-180.503C1310.86,-215.461 1360.9,-290.073 1378.62,-316.489"/>
<polygon fill="#191970" stroke="#191970" points="1290.03,-178.123 1281.55,-171.768 1284.22,-182.022 1290.03,-178.123"/>
</g>
<!-- Node11&#45;&gt;Node8 -->
<g id="edge11" class="edge">
<title>Node11&#45;&gt;Node8</title>
<path fill="none" stroke="#191970" d="M979.244,-79.6558C1011.41,-90.163 1056.47,-104.882 1085.7,-114.428"/>
<polygon fill="#191970" stroke="#191970" points="980.3,-76.3186 969.707,-76.5405 978.126,-82.9726 980.3,-76.3186"/>
</g>
<!-- Node13 -->
<g id="node13" class="node">
<title>Node13</title>
<g id="a_node13"><a xlink:href="en61107__request_8c.html#aa3b162cf5364986ea19e831ac2b18f76" target="_top" xlink:title="en61107_received_task">
<polygon fill="#ffffff" stroke="#000000" points="879,-316.5 879,-335.5 1002,-335.5 1002,-316.5 879,-316.5"/>
<text text-anchor="middle" x="940.5" y="-323.5" font-family="Helvetica,sans-Serif" font-size="10.00" fill="#000000">en61107_received_task</text>
</a>
</g>
</g>
<!-- Node12&#45;&gt;Node13 -->
<g id="edge13" class="edge">
<title>Node12&#45;&gt;Node13</title>
<path fill="none" stroke="#191970" d="M495.09,-281.053C513.027,-285.405 533.872,-289.984 553,-293 667.213,-311.011 802.023,-319.692 878.765,-323.466"/>
<polygon fill="#191970" stroke="#191970" points="495.725,-277.605 485.177,-278.6 494.044,-284.4 495.725,-277.605"/>
</g>
<!-- Node15 -->
<g id="node15" class="node">
<title>Node15</title>
<g id="a_node15"><a xlink:href="en61107__request_8h.html#a7384d014eb9e833f64ecf4a9f86f87be" target="_top" xlink:title="en61107_request_send">
<polygon fill="#ffffff" stroke="#000000" points="553,-357.5 553,-376.5 675,-376.5 675,-357.5 553,-357.5"/>
<text text-anchor="middle" x="614" y="-364.5" font-family="Helvetica,sans-Serif" font-size="10.00" fill="#000000">en61107_request_send</text>
</a>
</g>
</g>
<!-- Node12&#45;&gt;Node15 -->
<g id="edge16" class="edge">
<title>Node12&#45;&gt;Node15</title>
<path fill="none" stroke="#191970" d="M469.964,-284.717C490.336,-299.952 522.833,-323.166 553,-340 564.731,-346.546 578.356,-352.704 589.749,-357.481"/>
<polygon fill="#191970" stroke="#191970" points="471.853,-281.757 461.764,-278.524 467.634,-287.343 471.853,-281.757"/>
</g>
<!-- Node17 -->
<g id="node17" class="node">
<title>Node17</title>
<g id="a_node17"><a xlink:href="user__main_8c.html#af2c051d5ceacd30f90c08d6f584deff2" target="_top" xlink:title="sample_timer_func">
<polygon fill="#ffffff" stroke="#000000" points="726.5,-240.5 726.5,-259.5 827.5,-259.5 827.5,-240.5 726.5,-240.5"/>
<text text-anchor="middle" x="777" y="-247.5" font-family="Helvetica,sans-Serif" font-size="10.00" fill="#000000">sample_timer_func</text>
</a>
</g>
</g>
<!-- Node12&#45;&gt;Node17 -->
<g id="edge34" class="edge">
<title>Node12&#45;&gt;Node17</title>
<path fill="none" stroke="#191970" d="M501.593,-265.978C563.26,-262.4 665.267,-256.482 726.314,-252.941"/>
<polygon fill="#191970" stroke="#191970" points="501.091,-262.501 491.311,-266.574 501.497,-269.489 501.091,-262.501"/>
</g>
<!-- Node18 -->
<g id="node18" class="node">
<title>Node18</title>
<g id="a_node18"><a xlink:href="user__main_8h.html#a06f2b383d99fcad9d0f37d1ca2224898" target="_top" xlink:title="mqttConnectedCb">
<polygon fill="#ffffff" stroke="#000000" points="892,-114.5 892,-133.5 989,-133.5 989,-114.5 892,-114.5"/>
<text text-anchor="middle" x="940.5" y="-121.5" font-family="Helvetica,sans-Serif" font-size="10.00" fill="#000000">mqttConnectedCb</text>
</a>
</g>
</g>
<!-- Node12&#45;&gt;Node18 -->
<g id="edge31" class="edge">
<title>Node12&#45;&gt;Node18</title>
<path fill="none" stroke="#191970" d="M459.818,-250.785C475.893,-224.383 509.624,-176.314 553,-155 664.3,-100.309 815.463,-108.158 891.922,-116.945"/>
<polygon fill="#191970" stroke="#191970" points="456.777,-249.051 454.709,-259.442 462.806,-252.608 456.777,-249.051"/>
</g>
<!-- Node19 -->
<g id="node19" class="node">
<title>Node19</title>
<g id="a_node19"><a xlink:href="kmp__request_8c.html#a3f6b790a06b933b78f40ade5e9a16131" target="_top" xlink:title="kmp_received_task">
<polygon fill="#ffffff" stroke="#000000" points="562.5,-399.5 562.5,-418.5 665.5,-418.5 665.5,-399.5 562.5,-399.5"/>
<text text-anchor="middle" x="614" y="-406.5" font-family="Helvetica,sans-Serif" font-size="10.00" fill="#000000">kmp_received_task</text>
</a>
</g>
</g>
<!-- Node12&#45;&gt;Node19 -->
<g id="edge22" class="edge">
<title>Node12&#45;&gt;Node19</title>
<path fill="none" stroke="#191970" d="M461.334,-287.237C478.653,-312.621 513.204,-358.566 553,-386 561.107,-391.589 570.749,-396.035 579.946,-399.47"/>
<polygon fill="#191970" stroke="#191970" points="464.028,-284.97 455.565,-278.597 458.207,-288.857 464.028,-284.97"/>
</g>
<!-- Node21 -->
<g id="node21" class="node">
<title>Node21</title>
<g id="a_node21"><a xlink:href="kmp__request_8h.html#a3b022dcdc832786eb06126b5e6879604" target="_top" xlink:title="kmp_request_send">
<polygon fill="#ffffff" stroke="#000000" points="563,-164.5 563,-183.5 665,-183.5 665,-164.5 563,-164.5"/>
<text text-anchor="middle" x="614" y="-171.5" font-family="Helvetica,sans-Serif" font-size="10.00" fill="#000000">kmp_request_send</text>
</a>
</g>
</g>
<!-- Node12&#45;&gt;Node21 -->
<g id="edge25" class="edge">
<title>Node12&#45;&gt;Node21</title>
<path fill="none" stroke="#191970" d="M475.069,-254.234C509.127,-234.565 568.427,-200.319 597.277,-183.657"/>
<polygon fill="#191970" stroke="#191970" points="473.088,-251.336 466.178,-259.368 476.588,-257.398 473.088,-251.336"/>
</g>
<!-- Node24 -->
<g id="node24" class="node">
<title>Node24</title>
<g id="a_node24"><a xlink:href="user__main_8h.html#a53fca5688835df983e3ff1a91d387618" target="_top" xlink:title="mqttDataCb">
<polygon fill="#ffffff" stroke="#000000" points="905.5,-234.5 905.5,-253.5 975.5,-253.5 975.5,-234.5 905.5,-234.5"/>
<text text-anchor="middle" x="940.5" y="-241.5" font-family="Helvetica,sans-Serif" font-size="10.00" fill="#000000">mqttDataCb</text>
</a>
</g>
</g>
<!-- Node12&#45;&gt;Node24 -->
<g id="edge32" class="edge">
<title>Node12&#45;&gt;Node24</title>
<path fill="none" stroke="#191970" d="M501.319,-273.591C576.883,-279.25 721.542,-286.163 843,-269 866.013,-265.748 891.43,-259.127 910.542,-253.516"/>
<polygon fill="#191970" stroke="#191970" points="501.364,-270.084 491.124,-272.804 500.825,-277.064 501.364,-270.084"/>
</g>
<!-- Node14 -->
<g id="node14" class="node">
<title>Node14</title>
<g id="a_node14"><a xlink:href="en61107__request_8h.html#acd43242675a3f25e7c3b530eac9d8b3a" target="_top" xlink:title="en61107_request_init">
<polygon fill="#ffffff" stroke="#000000" points="1058.5,-316.5 1058.5,-335.5 1171.5,-335.5 1171.5,-316.5 1058.5,-316.5"/>
<text text-anchor="middle" x="1115" y="-323.5" font-family="Helvetica,sans-Serif" font-size="10.00" fill="#000000">en61107_request_init</text>
</a>
</g>
</g>
<!-- Node13&#45;&gt;Node14 -->
<g id="edge14" class="edge">
<title>Node13&#45;&gt;Node14</title>
<path fill="none" stroke="#191970" d="M1012.05,-326C1027.5,-326 1043.63,-326 1058.41,-326"/>
<polygon fill="#191970" stroke="#191970" points="1012.02,-322.5 1002.02,-326 1012.02,-329.5 1012.02,-322.5"/>
</g>
<!-- Node14&#45;&gt;Node10 -->
<g id="edge15" class="edge">
<title>Node14&#45;&gt;Node10</title>
<path fill="none" stroke="#191970" d="M1181.91,-326C1238.55,-326 1316.86,-326 1357.71,-326"/>
<polygon fill="#191970" stroke="#191970" points="1181.6,-322.5 1171.6,-326 1181.6,-329.5 1181.6,-322.5"/>
</g>
<!-- Node16 -->
<g id="node16" class="node">
<title>Node16</title>
<g id="a_node16"><a xlink:href="en61107__request_8h.html#a6379eaf88ea35baaf2a3ab8a0ae66fdb" target="_top" xlink:title="en61107_receive_timeout\l_timer_func">
<polygon fill="#ffffff" stroke="#000000" points="711,-355 711,-385 843,-385 843,-355 711,-355"/>
<text text-anchor="start" x="719" y="-373" font-family="Helvetica,sans-Serif" font-size="10.00" fill="#000000">en61107_receive_timeout</text>
<text text-anchor="middle" x="777" y="-362" font-family="Helvetica,sans-Serif" font-size="10.00" fill="#000000">_timer_func</text>
</a>
</g>
</g>
<!-- Node15&#45;&gt;Node16 -->
<g id="edge17" class="edge">
<title>Node15&#45;&gt;Node16</title>
<path fill="none" stroke="#191970" d="M685.388,-361.61C693.855,-361.688 702.469,-361.867 710.859,-362.14"/>
<polygon fill="#191970" stroke="#191970" points="685.174,-358.109 675.159,-361.566 685.144,-365.109 685.174,-358.109"/>
</g>
<!-- Node15&#45;&gt;Node17 -->
<g id="edge19" class="edge">
<title>Node15&#45;&gt;Node17</title>
<path fill="none" stroke="#191970" d="M635.706,-351.42C669.885,-326.887 735.256,-279.963 763.477,-259.707"/>
<polygon fill="#191970" stroke="#191970" points="633.422,-348.751 627.339,-357.425 637.504,-354.437 633.422,-348.751"/>
</g>
<!-- Node16&#45;&gt;Node15 -->
<g id="edge18" class="edge">
<title>Node16&#45;&gt;Node15</title>
<path fill="none" stroke="#191970" d="M700.819,-375.335C692.217,-375.218 683.535,-374.999 675.159,-374.685"/>
<polygon fill="#191970" stroke="#191970" points="700.828,-378.835 710.859,-375.425 700.89,-371.836 700.828,-378.835"/>
</g>
<!-- Node17&#45;&gt;Node18 -->
<g id="edge20" class="edge">
<title>Node17&#45;&gt;Node18</title>
<path fill="none" stroke="#191970" d="M829.88,-236.807C834.462,-234.828 838.906,-232.571 843,-230 884.927,-203.673 920.323,-154.661 934.21,-133.804"/>
<polygon fill="#191970" stroke="#191970" points="828.415,-233.62 820.348,-240.488 830.938,-240.15 828.415,-233.62"/>
</g>
<!-- Node18&#45;&gt;Node8 -->
<g id="edge21" class="edge">
<title>Node18&#45;&gt;Node8</title>
<path fill="none" stroke="#191970" d="M999.311,-124C1015.18,-124 1032.47,-124 1048.72,-124"/>
<polygon fill="#191970" stroke="#191970" points="999.108,-120.5 989.108,-124 999.108,-127.5 999.108,-120.5"/>
</g>
<!-- Node20 -->
<g id="node20" class="node">
<title>Node20</title>
<g id="a_node20"><a xlink:href="kmp__request_8h.html#a048753ff9d6b448e2dcd8c85db0d6873" target="_top" xlink:title="kmp_request_init">
<polygon fill="#ffffff" stroke="#000000" points="1228.5,-379.5 1228.5,-398.5 1321.5,-398.5 1321.5,-379.5 1228.5,-379.5"/>
<text text-anchor="middle" x="1275" y="-386.5" font-family="Helvetica,sans-Serif" font-size="10.00" fill="#000000">kmp_request_init</text>
</a>
</g>
</g>
<!-- Node19&#45;&gt;Node20 -->
<g id="edge23" class="edge">
<title>Node19&#45;&gt;Node20</title>
<path fill="none" stroke="#191970" d="M675.877,-407.128C807.238,-403.153 1111.49,-393.947 1228.23,-390.415"/>
<polygon fill="#191970" stroke="#191970" points="675.482,-403.638 665.592,-407.439 675.694,-410.635 675.482,-403.638"/>
</g>
<!-- Node20&#45;&gt;Node10 -->
<g id="edge24" class="edge">
<title>Node20&#45;&gt;Node10</title>
<path fill="none" stroke="#191970" d="M1300.64,-374.318C1321.43,-362.409 1350.14,-345.963 1368.14,-335.658"/>
<polygon fill="#191970" stroke="#191970" points="1298.64,-371.425 1291.71,-379.432 1302.12,-377.499 1298.64,-371.425"/>
</g>
<!-- Node21&#45;&gt;Node17 -->
<g id="edge28" class="edge">
<title>Node21&#45;&gt;Node17</title>
<path fill="none" stroke="#191970" d="M654.128,-187.447C661.296,-190.497 668.533,-194.028 675,-198 693.242,-209.203 692.321,-219.541 711,-230 718.626,-234.27 727.27,-237.731 735.73,-240.497"/>
<polygon fill="#191970" stroke="#191970" points="655.062,-184.051 644.477,-183.589 652.464,-190.551 655.062,-184.051"/>
</g>
<!-- Node22 -->
<g id="node22" class="node">
<title>Node22</title>
<g id="a_node22"><a xlink:href="kmp__request_8c.html#a0977a4640a97d389ac3b0fef0ba7a9b6" target="_top" xlink:title="kmp_receive_timeout\l_timer_func">
<polygon fill="#ffffff" stroke="#000000" points="721,-191 721,-221 833,-221 833,-191 721,-191"/>
<text text-anchor="start" x="729" y="-209" font-family="Helvetica,sans-Serif" font-size="10.00" fill="#000000">kmp_receive_timeout</text>
<text text-anchor="middle" x="777" y="-198" font-family="Helvetica,sans-Serif" font-size="10.00" fill="#000000">_timer_func</text>
</a>
</g>
</g>
<!-- Node21&#45;&gt;Node22 -->
<g id="edge26" class="edge">
<title>Node21&#45;&gt;Node22</title>
<path fill="none" stroke="#191970" d="M675.055,-179.429C693.793,-182.748 714.072,-186.873 731.572,-190.957"/>
<polygon fill="#191970" stroke="#191970" points="675.575,-175.967 665.127,-177.722 674.39,-182.866 675.575,-175.967"/>
</g>
<!-- Node23 -->
<g id="node23" class="node">
<title>Node23</title>
<g id="a_node23"><a xlink:href="user__main_8c.html#a3648c609e8dd286eb90285b08b150362" target="_top" xlink:title="kmp_request_send_timer_func">
<polygon fill="#ffffff" stroke="#000000" points="1038,-152.5 1038,-171.5 1192,-171.5 1192,-152.5 1038,-152.5"/>
<text text-anchor="middle" x="1115" y="-159.5" font-family="Helvetica,sans-Serif" font-size="10.00" fill="#000000">kmp_request_send_timer_func</text>
</a>
</g>
</g>
<!-- Node21&#45;&gt;Node23 -->
<g id="edge29" class="edge">
<title>Node21&#45;&gt;Node23</title>
<path fill="none" stroke="#191970" d="M675.45,-172.528C766.734,-170.342 938.073,-166.238 1037.73,-163.851"/>
<polygon fill="#191970" stroke="#191970" points="675.175,-169.034 665.261,-172.772 675.342,-176.032 675.175,-169.034"/>
</g>
<!-- Node22&#45;&gt;Node21 -->
<g id="edge27" class="edge">
<title>Node22&#45;&gt;Node21</title>
<path fill="none" stroke="#191970" d="M710.702,-199.629C684.847,-194.916 656.877,-188.853 637.702,-183.581"/>
<polygon fill="#191970" stroke="#191970" points="710.403,-203.13 720.86,-201.429 711.624,-196.238 710.403,-203.13"/>
</g>
<!-- Node23&#45;&gt;Node9 -->
<g id="edge30" class="edge">
<title>Node23&#45;&gt;Node9</title>
<path fill="none" stroke="#191970" d="M1202.43,-162C1211.13,-162 1219.72,-162 1227.77,-162"/>
<polygon fill="#191970" stroke="#191970" points="1202.19,-158.5 1192.19,-162 1202.19,-165.5 1202.19,-158.5"/>
</g>
<!-- Node24&#45;&gt;Node8 -->
<g id="edge33" class="edge">
<title>Node24&#45;&gt;Node8</title>
<path fill="none" stroke="#191970" d="M952.815,-226.031C969.446,-203.178 1001.27,-164.152 1038,-143 1044.68,-139.152 1052.13,-136.079 1059.68,-133.625"/>
<polygon fill="#191970" stroke="#191970" points="949.953,-224.016 947.019,-234.197 955.661,-228.068 949.953,-224.016"/>
</g>
<!-- Node25&#45;&gt;Node18 -->
<g id="edge36" class="edge">
<title>Node25&#45;&gt;Node18</title>
<path fill="none" stroke="#191970" d="M493.466,-121.002C511.731,-116.602 533.239,-112.169 553,-110 681.119,-95.9361 714.439,-100.817 843,-110 858.863,-111.133 876.068,-113.291 891.547,-115.579"/>
<polygon fill="#191970" stroke="#191970" points="492.548,-117.623 483.685,-123.428 494.233,-124.417 492.548,-117.623"/>
</g>
<!-- Node27&#45;&gt;Node17 -->
<g id="edge39" class="edge">
<title>Node27&#45;&gt;Node17</title>
<path fill="none" stroke="#191970" d="M337.238,-195.596C427.903,-206.813 631.277,-231.972 726.287,-243.726"/>
<polygon fill="#191970" stroke="#191970" points="337.625,-192.118 327.271,-194.363 336.765,-199.065 337.625,-192.118"/>
</g>
</g>
</svg>
