<?xml version="1.0" encoding="UTF-8" standalone="no"?>
<!DOCTYPE svg PUBLIC "-//W3C//DTD SVG 1.1//EN"
 "http://www.w3.org/Graphics/SVG/1.1/DTD/svg11.dtd">
<!-- Generated by graphviz version 2.40.1 (20161225.0304)
 -->
<!-- Title: mqtt/include/proto.h Pages: 1 -->
<svg width="1654pt" height="756pt"
 viewBox="0.00 0.00 1653.50 756.00" xmlns="http://www.w3.org/2000/svg" xmlns:xlink="http://www.w3.org/1999/xlink">
<g id="graph0" class="graph" transform="scale(1 1) rotate(0) translate(4 752)">
<title>mqtt/include/proto.h</title>
<polygon fill="#ffffff" stroke="transparent" points="-4,4 -4,-752 1649.5,-752 1649.5,4 -4,4"/>
<!-- Node0 -->
<g id="node1" class="node">
<title>Node0</title>
<polygon fill="#bfbfbf" stroke="#000000" points="569,-728.5 569,-747.5 673,-747.5 673,-728.5 569,-728.5"/>
<text text-anchor="middle" x="621" y="-735.5" font-family="Helvetica,sans-Serif" font-size="10.00" fill="#000000">mqtt/include/proto.h</text>
</g>
<!-- Node1 -->
<g id="node2" class="node">
<title>Node1</title>
<polygon fill="#ffffff" stroke="#bfbfbf" points="0,-560.5 0,-579.5 48,-579.5 48,-560.5 0,-560.5"/>
<text text-anchor="middle" x="24" y="-567.5" font-family="Helvetica,sans-Serif" font-size="10.00" fill="#000000">stdlib.h</text>
</g>
<!-- Node0&#45;&gt;Node1 -->
<g id="edge1" class="edge">
<title>Node0&#45;&gt;Node1</title>
<path fill="none" stroke="#191970" d="M585.9461,-728.4565C498.6121,-704.6204 264.1181,-640.2578 57.9295,-580.232"/>
<polygon fill="#191970" stroke="#191970" points="58.713,-576.8148 48.1331,-577.3771 56.7544,-583.5353 58.713,-576.8148"/>
</g>
<!-- Node2 -->
<g id="node3" class="node">
<title>Node2</title>
<g id="a_node3"><a xlink:href="typedef_8h.html" target="_top" xlink:title="typedef.h">
<polygon fill="#ffffff" stroke="#000000" points="665,-616.5 665,-635.5 723,-635.5 723,-616.5 665,-616.5"/>
<text text-anchor="middle" x="694" y="-623.5" font-family="Helvetica,sans-Serif" font-size="10.00" fill="#000000">typedef.h</text>
</a>
</g>
</g>
<!-- Node0&#45;&gt;Node2 -->
<g id="edge2" class="edge">
<title>Node0&#45;&gt;Node2</title>
<path fill="none" stroke="#191970" d="M629.7689,-728.1644C637.6301,-719.1088 649.2402,-705.1294 658,-692 668.1596,-676.7726 677.9924,-658.4206 684.8071,-644.938"/>
<polygon fill="#191970" stroke="#191970" points="688.0766,-646.223 689.3855,-635.7093 681.8059,-643.112 688.0766,-646.223"/>
</g>
<!-- Node3 -->
<g id="node4" class="node">
<title>Node3</title>
<g id="a_node4"><a xlink:href="ringbuf_8h.html" target="_top" xlink:title="ringbuf.h">
<polygon fill="#ffffff" stroke="#000000" points="593.5,-672.5 593.5,-691.5 648.5,-691.5 648.5,-672.5 593.5,-672.5"/>
<text text-anchor="middle" x="621" y="-679.5" font-family="Helvetica,sans-Serif" font-size="10.00" fill="#000000">ringbuf.h</text>
</a>
</g>
</g>
<!-- Node0&#45;&gt;Node3 -->
<g id="edge3" class="edge">
<title>Node0&#45;&gt;Node3</title>
<path fill="none" stroke="#191970" d="M621,-728.2455C621,-720.9382 621,-710.6944 621,-701.7046"/>
<polygon fill="#191970" stroke="#191970" points="624.5001,-701.6426 621,-691.6427 617.5001,-701.6427 624.5001,-701.6426"/>
</g>
<!-- Node3&#45;&gt;Node2 -->
<g id="edge76" class="edge">
<title>Node3&#45;&gt;Node2</title>
<path fill="none" stroke="#191970" d="M633.7156,-672.2455C644.602,-663.8943 660.4883,-651.7076 673.22,-641.9408"/>
<polygon fill="#191970" stroke="#191970" points="675.6261,-644.5063 681.4301,-635.6427 671.3654,-638.9523 675.6261,-644.5063"/>
</g>
<!-- Node4 -->
<g id="node5" class="node">
<title>Node4</title>
<g id="a_node5"><a xlink:href="esp8266_8h.html" target="_top" xlink:title="esp8266.h">
<polygon fill="#ffffff" stroke="#000000" points="583.5,-616.5 583.5,-635.5 646.5,-635.5 646.5,-616.5 583.5,-616.5"/>
<text text-anchor="middle" x="615" y="-623.5" font-family="Helvetica,sans-Serif" font-size="10.00" fill="#000000">esp8266.h</text>
</a>
</g>
</g>
<!-- Node3&#45;&gt;Node4 -->
<g id="edge4" class="edge">
<title>Node3&#45;&gt;Node4</title>
<path fill="none" stroke="#191970" d="M619.9549,-672.2455C619.172,-664.9382 618.0744,-654.6944 617.1112,-645.7046"/>
<polygon fill="#191970" stroke="#191970" points="620.5786,-645.2129 616.0331,-635.6427 613.6185,-645.9587 620.5786,-645.2129"/>
</g>
<!-- Node4&#45;&gt;Node1 -->
<g id="edge7" class="edge">
<title>Node4&#45;&gt;Node1</title>
<path fill="none" stroke="#191970" d="M583.4792,-624.2835C484.0979,-618.737 177.347,-600.5566 57.9554,-579.7429"/>
<polygon fill="#191970" stroke="#191970" points="58.4709,-576.2791 48.0034,-577.9165 57.2073,-583.1641 58.4709,-576.2791"/>
</g>
<!-- Node5 -->
<g id="node6" class="node">
<title>Node5</title>
<polygon fill="#ffffff" stroke="#bfbfbf" points="1596.5,-560.5 1596.5,-579.5 1645.5,-579.5 1645.5,-560.5 1596.5,-560.5"/>
<text text-anchor="middle" x="1621" y="-567.5" font-family="Helvetica,sans-Serif" font-size="10.00" fill="#000000">ctype.h</text>
</g>
<!-- Node4&#45;&gt;Node5 -->
<g id="edge5" class="edge">
<title>Node4&#45;&gt;Node5</title>
<path fill="none" stroke="#191970" d="M646.6625,-617.6125C649.8013,-616.9816 652.9524,-616.4261 656,-616 1063.2301,-559.061 1177.3614,-647.2269 1586.2736,-579.898"/>
<polygon fill="#191970" stroke="#191970" points="1587.0079,-583.324 1596.2959,-578.2265 1585.8563,-576.4193 1587.0079,-583.324"/>
</g>
<!-- Node6 -->
<g id="node7" class="node">
<title>Node6</title>
<polygon fill="#ffffff" stroke="#bfbfbf" points="66,-560.5 66,-579.5 112,-579.5 112,-560.5 66,-560.5"/>
<text text-anchor="middle" x="89" y="-567.5" font-family="Helvetica,sans-Serif" font-size="10.00" fill="#000000">stdio.h</text>
</g>
<!-- Node4&#45;&gt;Node6 -->
<g id="edge6" class="edge">
<title>Node4&#45;&gt;Node6</title>
<path fill="none" stroke="#191970" d="M583.2821,-624.8851C505.0365,-621.7309 296.7569,-610.8748 126,-580 124.7477,-579.7736 123.476,-579.5252 122.1948,-579.2593"/>
<polygon fill="#191970" stroke="#191970" points="122.8857,-575.8265 112.3512,-576.9556 121.2905,-582.6423 122.8857,-575.8265"/>
</g>
<!-- Node7 -->
<g id="node8" class="node">
<title>Node7</title>
<polygon fill="#ffffff" stroke="#bfbfbf" points="141.5,-56.5 141.5,-75.5 190.5,-75.5 190.5,-56.5 141.5,-56.5"/>
<text text-anchor="middle" x="166" y="-63.5" font-family="Helvetica,sans-Serif" font-size="10.00" fill="#000000">string.h</text>
</g>
<!-- Node4&#45;&gt;Node7 -->
<g id="edge8" class="edge">
<title>Node4&#45;&gt;Node7</title>
<path fill="none" stroke="#191970" d="M583.294,-624.2433C489.0298,-618.7993 214.938,-601.2898 181,-580 151.7469,-561.6492 140,-548.5325 140,-514 140,-514 140,-514 140,-178 140,-144.7204 151.0271,-107.2857 158.7187,-85.2224"/>
<polygon fill="#191970" stroke="#191970" points="162.0487,-86.3059 162.1636,-75.7117 155.4671,-83.9219 162.0487,-86.3059"/>
</g>
<!-- Node8 -->
<g id="node9" class="node">
<title>Node8</title>
<g id="a_node9"><a xlink:href="c__types_8h.html" target="_top" xlink:title="c_types.h">
<polygon fill="#ffffff" stroke="#000000" points="990.5,-56.5 990.5,-75.5 1049.5,-75.5 1049.5,-56.5 990.5,-56.5"/>
<text text-anchor="middle" x="1020" y="-63.5" font-family="Helvetica,sans-Serif" font-size="10.00" fill="#000000">c_types.h</text>
</a>
</g>
</g>
<!-- Node4&#45;&gt;Node8 -->
<g id="edge9" class="edge">
<title>Node4&#45;&gt;Node8</title>
<path fill="none" stroke="#191970" d="M583.4592,-623.2912C515.4889,-617.1293 357.3587,-600.9588 308,-580 270.3613,-564.0178 253.0881,-560.6731 235,-524 216.8609,-487.2236 195.5945,-470.7443 262,-392 458.9419,-158.4643 853.7698,-87.7892 980.1304,-70.6985"/>
<polygon fill="#191970" stroke="#191970" points="980.6823,-74.1562 990.1404,-69.3818 979.7693,-67.2159 980.6823,-74.1562"/>
</g>
<!-- Node11 -->
<g id="node12" class="node">
<title>Node11</title>
<g id="a_node12"><a xlink:href="ip_8h.html" target="_top" xlink:title="lwip/ip.h">
<polygon fill="#ffffff" stroke="#000000" points="697.5,-560.5 697.5,-579.5 750.5,-579.5 750.5,-560.5 697.5,-560.5"/>
<text text-anchor="middle" x="724" y="-567.5" font-family="Helvetica,sans-Serif" font-size="10.00" fill="#000000">lwip/ip.h</text>
</a>
</g>
</g>
<!-- Node4&#45;&gt;Node11 -->
<g id="edge12" class="edge">
<title>Node4&#45;&gt;Node11</title>
<path fill="none" stroke="#191970" d="M633.9864,-616.2455C651.1792,-607.4125 676.7238,-594.2887 696.2132,-584.2758"/>
<polygon fill="#191970" stroke="#191970" points="697.9359,-587.3257 705.2312,-579.6427 694.737,-581.0993 697.9359,-587.3257"/>
</g>
<!-- Node12 -->
<g id="node13" class="node">
<title>Node12</title>
<g id="a_node13"><a xlink:href="opt_8h.html" target="_top" xlink:title="lwip/opt.h">
<polygon fill="#ffffff" stroke="#000000" points="585.5,-336.5 585.5,-355.5 644.5,-355.5 644.5,-336.5 585.5,-336.5"/>
<text text-anchor="middle" x="615" y="-343.5" font-family="Helvetica,sans-Serif" font-size="10.00" fill="#000000">lwip/opt.h</text>
</a>
</g>
</g>
<!-- Node4&#45;&gt;Node12 -->
<g id="edge55" class="edge">
<title>Node4&#45;&gt;Node12</title>
<path fill="none" stroke="#191970" d="M592.6941,-616.493C561.6397,-601.8522 506.7464,-570.5183 485,-524 460.1552,-470.8539 451.135,-439.9055 485,-392 495.7542,-376.787 541.4816,-363.0696 575.683,-354.6522"/>
<polygon fill="#191970" stroke="#191970" points="576.5198,-358.0508 585.4297,-352.318 574.8895,-351.2433 576.5198,-358.0508"/>
</g>
<!-- Node17 -->
<g id="node18" class="node">
<title>Node17</title>
<g id="a_node18"><a xlink:href="ets__sys_8h.html" target="_top" xlink:title="ets_sys.h">
<polygon fill="#ffffff" stroke="#000000" points="1002.5,-112.5 1002.5,-131.5 1061.5,-131.5 1061.5,-112.5 1002.5,-112.5"/>
<text text-anchor="middle" x="1032" y="-119.5" font-family="Helvetica,sans-Serif" font-size="10.00" fill="#000000">ets_sys.h</text>
</a>
</g>
</g>
<!-- Node4&#45;&gt;Node17 -->
<g id="edge57" class="edge">
<title>Node4&#45;&gt;Node17</title>
<path fill="none" stroke="#191970" d="M646.5442,-617.8674C734.1468,-595.066 974,-531.0772 974,-514 974,-514 974,-514 974,-234 974,-197.0488 999.202,-160.1465 1016.3808,-139.2847"/>
<polygon fill="#191970" stroke="#191970" points="1019.0985,-141.4919 1022.9375,-131.6171 1013.7784,-136.9426 1019.0985,-141.4919"/>
</g>
<!-- Node19 -->
<g id="node20" class="node">
<title>Node19</title>
<g id="a_node20"><a xlink:href="osapi_8h.html" target="_top" xlink:title="osapi.h">
<polygon fill="#ffffff" stroke="#000000" points="168.5,-112.5 168.5,-131.5 217.5,-131.5 217.5,-112.5 168.5,-112.5"/>
<text text-anchor="middle" x="193" y="-119.5" font-family="Helvetica,sans-Serif" font-size="10.00" fill="#000000">osapi.h</text>
</a>
</g>
</g>
<!-- Node4&#45;&gt;Node19 -->
<g id="edge60" class="edge">
<title>Node4&#45;&gt;Node19</title>
<path fill="none" stroke="#191970" d="M583.3263,-624.3815C491.8457,-619.4449 231.8417,-603.4714 202,-580 177.4668,-560.7038 178,-545.2125 178,-514 178,-514 178,-514 178,-234 178,-201.2739 184.3693,-163.641 188.807,-141.3923"/>
<polygon fill="#191970" stroke="#191970" points="192.2485,-142.0329 190.8509,-131.5307 185.3942,-140.6123 192.2485,-142.0329"/>
</g>
<!-- Node25 -->
<g id="node26" class="node">
<title>Node25</title>
<g id="a_node26"><a xlink:href="netif_8h.html" target="_top" xlink:title="lwip/netif.h">
<polygon fill="#ffffff" stroke="#000000" points="692,-504.5 692,-523.5 756,-523.5 756,-504.5 692,-504.5"/>
<text text-anchor="middle" x="724" y="-511.5" font-family="Helvetica,sans-Serif" font-size="10.00" fill="#000000">lwip/netif.h</text>
</a>
</g>
</g>
<!-- Node4&#45;&gt;Node25 -->
<g id="edge49" class="edge">
<title>Node4&#45;&gt;Node25</title>
<path fill="none" stroke="#191970" d="M624.2933,-616.4509C642.7949,-597.4401 684.4463,-554.6423 707.6344,-530.816"/>
<polygon fill="#191970" stroke="#191970" points="710.264,-533.1324 714.7302,-523.5249 705.2475,-528.2502 710.264,-533.1324"/>
</g>
<!-- Node26 -->
<g id="node27" class="node">
<title>Node26</title>
<g id="a_node27"><a xlink:href="udp_8h.html" target="_top" xlink:title="lwip/udp.h">
<polygon fill="#ffffff" stroke="#000000" points="494,-504.5 494,-523.5 556,-523.5 556,-504.5 494,-504.5"/>
<text text-anchor="middle" x="525" y="-511.5" font-family="Helvetica,sans-Serif" font-size="10.00" fill="#000000">lwip/udp.h</text>
</a>
</g>
</g>
<!-- Node4&#45;&gt;Node26 -->
<g id="edge43" class="edge">
<title>Node4&#45;&gt;Node26</title>
<path fill="none" stroke="#191970" d="M604.4542,-616.2496C594.9735,-607.2515 580.9039,-593.3084 570,-580 557.4314,-564.6598 544.863,-545.8637 536.2164,-532.2591"/>
<polygon fill="#191970" stroke="#191970" points="539.1785,-530.3945 530.9051,-523.7763 533.2455,-534.1094 539.1785,-530.3945"/>
</g>
<!-- Node27 -->
<g id="node28" class="node">
<title>Node27</title>
<g id="a_node28"><a xlink:href="tcp__impl_8h.html" target="_top" xlink:title="lwip/tcp_impl.h">
<polygon fill="#ffffff" stroke="#000000" points="505,-392.5 505,-411.5 587,-411.5 587,-392.5 505,-392.5"/>
<text text-anchor="middle" x="546" y="-399.5" font-family="Helvetica,sans-Serif" font-size="10.00" fill="#000000">lwip/tcp_impl.h</text>
</a>
</g>
</g>
<!-- Node4&#45;&gt;Node27 -->
<g id="edge45" class="edge">
<title>Node4&#45;&gt;Node27</title>
<path fill="none" stroke="#191970" d="M610.8822,-616.282C598.4272,-586.7503 561.546,-498.2409 554,-468 550.1961,-452.7556 548.1756,-435.0621 547.1174,-421.8343"/>
<polygon fill="#191970" stroke="#191970" points="550.5873,-421.2718 546.4146,-411.5332 543.6035,-421.7483 550.5873,-421.2718"/>
</g>
<!-- Node28 -->
<g id="node29" class="node">
<title>Node28</title>
<g id="a_node29"><a xlink:href="etharp_8h.html" target="_top" xlink:title="netif/etharp.h">
<polygon fill="#ffffff" stroke="#000000" points="244.5,-504.5 244.5,-523.5 319.5,-523.5 319.5,-504.5 244.5,-504.5"/>
<text text-anchor="middle" x="282" y="-511.5" font-family="Helvetica,sans-Serif" font-size="10.00" fill="#000000">netif/etharp.h</text>
</a>
</g>
</g>
<!-- Node4&#45;&gt;Node28 -->
<g id="edge47" class="edge">
<title>Node4&#45;&gt;Node28</title>
<path fill="none" stroke="#191970" d="M583.2971,-623.699C519.0052,-618.5715 375.8349,-604.6737 334,-580 315.241,-568.9362 300.6763,-548.3296 291.794,-533.0738"/>
<polygon fill="#191970" stroke="#191970" points="294.6761,-531.0512 286.7906,-523.9752 288.5424,-534.4242 294.6761,-531.0512"/>
</g>
<!-- Node29 -->
<g id="node30" class="node">
<title>Node29</title>
<g id="a_node30"><a xlink:href="lwip__napt_8h.html" target="_top" xlink:title="lwip/lwip_napt.h">
<polygon fill="#ffffff" stroke="#000000" points="285.5,-392.5 285.5,-411.5 372.5,-411.5 372.5,-392.5 285.5,-392.5"/>
<text text-anchor="middle" x="329" y="-399.5" font-family="Helvetica,sans-Serif" font-size="10.00" fill="#000000">lwip/lwip_napt.h</text>
</a>
</g>
</g>
<!-- Node4&#45;&gt;Node29 -->
<g id="edge50" class="edge">
<title>Node4&#45;&gt;Node29</title>
<path fill="none" stroke="#191970" d="M583.3755,-622.9415C544.9584,-618.1845 479.0819,-606.618 429,-580 396.2116,-562.5733 387.0086,-555.2797 367,-524 346.2672,-491.5881 336.1852,-447.0965 331.8386,-421.7699"/>
<polygon fill="#191970" stroke="#191970" points="335.2483,-420.9237 330.2274,-411.5941 328.3344,-422.0184 335.2483,-420.9237"/>
</g>
<!-- Node30 -->
<g id="node31" class="node">
<title>Node30</title>
<g id="a_node31"><a xlink:href="dns_8h.html" target="_top" xlink:title="lwip/dns.h">
<polygon fill="#ffffff" stroke="#000000" points="376.5,-504.5 376.5,-523.5 437.5,-523.5 437.5,-504.5 376.5,-504.5"/>
<text text-anchor="middle" x="407" y="-511.5" font-family="Helvetica,sans-Serif" font-size="10.00" fill="#000000">lwip/dns.h</text>
</a>
</g>
</g>
<!-- Node4&#45;&gt;Node30 -->
<g id="edge52" class="edge">
<title>Node4&#45;&gt;Node30</title>
<path fill="none" stroke="#191970" d="M583.4174,-623.5117C548.3947,-619.3864 491.6201,-608.508 452,-580 435.3536,-568.0224 422.9235,-547.8603 415.393,-532.9656"/>
<polygon fill="#191970" stroke="#191970" points="418.4244,-531.1902 410.9707,-523.6608 412.1021,-534.195 418.4244,-531.1902"/>
</g>
<!-- Node31 -->
<g id="node32" class="node">
<title>Node31</title>
<g id="a_node32"><a xlink:href="dhcpserver_8h.html" target="_top" xlink:title="lwip/app/dhcpserver.h">
<polygon fill="#ffffff" stroke="#000000" points="1158,-560.5 1158,-579.5 1272,-579.5 1272,-560.5 1158,-560.5"/>
<text text-anchor="middle" x="1215" y="-567.5" font-family="Helvetica,sans-Serif" font-size="10.00" fill="#000000">lwip/app/dhcpserver.h</text>
</a>
</g>
</g>
<!-- Node4&#45;&gt;Node31 -->
<g id="edge54" class="edge">
<title>Node4&#45;&gt;Node31</title>
<path fill="none" stroke="#191970" d="M646.6791,-617.7242C649.8145,-617.0707 652.9604,-616.4794 656,-616 870.8226,-582.1175 927.7604,-603.1784 1144,-580 1145.1139,-579.8806 1146.2373,-579.7572 1147.3681,-579.6303"/>
<polygon fill="#191970" stroke="#191970" points="1148.1721,-583.0595 1157.6894,-578.4042 1147.3463,-576.1084 1148.1721,-583.0595"/>
</g>
<!-- Node32 -->
<g id="node33" class="node">
<title>Node32</title>
<g id="a_node33"><a xlink:href="sdk_2include_2espconn_8h.html" target="_top" xlink:title="espconn.h">
<polygon fill="#ffffff" stroke="#000000" points="1290.5,-560.5 1290.5,-579.5 1353.5,-579.5 1353.5,-560.5 1290.5,-560.5"/>
<text text-anchor="middle" x="1322" y="-567.5" font-family="Helvetica,sans-Serif" font-size="10.00" fill="#000000">espconn.h</text>
</a>
</g>
</g>
<!-- Node4&#45;&gt;Node32 -->
<g id="edge56" class="edge">
<title>Node4&#45;&gt;Node32</title>
<path fill="none" stroke="#191970" d="M646.6713,-617.6729C649.8082,-617.0298 652.9566,-616.4549 656,-616 927.9559,-575.3473 1004.0424,-620.0623 1280.4123,-579.7956"/>
<polygon fill="#191970" stroke="#191970" points="1280.9494,-583.2544 1290.3287,-578.3271 1279.9239,-576.3299 1280.9494,-583.2544"/>
</g>
<!-- Node33 -->
<g id="node34" class="node">
<title>Node33</title>
<g id="a_node34"><a xlink:href="gpio_8h.html" target="_top" xlink:title="gpio.h">
<polygon fill="#ffffff" stroke="#000000" points="1232,-448.5 1232,-467.5 1276,-467.5 1276,-448.5 1232,-448.5"/>
<text text-anchor="middle" x="1254" y="-455.5" font-family="Helvetica,sans-Serif" font-size="10.00" fill="#000000">gpio.h</text>
</a>
</g>
</g>
<!-- Node4&#45;&gt;Node33 -->
<g id="edge58" class="edge">
<title>Node4&#45;&gt;Node33</title>
<path fill="none" stroke="#191970" d="M646.6931,-617.8088C649.8256,-617.1382 652.967,-616.5198 656,-616 813.6158,-588.9885 860.5486,-625.0003 1014,-580 1099.2735,-554.9931 1190.2592,-499.841 1231.4405,-473.1115"/>
<polygon fill="#191970" stroke="#191970" points="1233.4629,-475.9707 1239.9055,-467.5598 1229.624,-470.1173 1233.4629,-475.9707"/>
</g>
<!-- Node34 -->
<g id="node35" class="node">
<title>Node34</title>
<g id="a_node35"><a xlink:href="sdk_2include_2mem_8h.html" target="_top" xlink:title="mem.h">
<polygon fill="#ffffff" stroke="#000000" points="1371.5,-560.5 1371.5,-579.5 1418.5,-579.5 1418.5,-560.5 1371.5,-560.5"/>
<text text-anchor="middle" x="1395" y="-567.5" font-family="Helvetica,sans-Serif" font-size="10.00" fill="#000000">mem.h</text>
</a>
</g>
</g>
<!-- Node4&#45;&gt;Node34 -->
<g id="edge59" class="edge">
<title>Node4&#45;&gt;Node34</title>
<path fill="none" stroke="#191970" d="M646.6681,-617.6516C649.8057,-617.0128 652.9551,-616.4448 656,-616 963.9808,-571.0103 1051.407,-633.9816 1361.2278,-579.9068"/>
<polygon fill="#191970" stroke="#191970" points="1362.1644,-583.2954 1371.3999,-578.1035 1360.9425,-576.4029 1362.1644,-583.2954"/>
</g>
<!-- Node35 -->
<g id="node36" class="node">
<title>Node35</title>
<g id="a_node36"><a xlink:href="user__interface_8h.html" target="_top" xlink:title="user_interface.h">
<polygon fill="#ffffff" stroke="#000000" points="1002,-504.5 1002,-523.5 1090,-523.5 1090,-504.5 1002,-504.5"/>
<text text-anchor="middle" x="1046" y="-511.5" font-family="Helvetica,sans-Serif" font-size="10.00" fill="#000000">user_interface.h</text>
</a>
</g>
</g>
<!-- Node4&#45;&gt;Node35 -->
<g id="edge61" class="edge">
<title>Node4&#45;&gt;Node35</title>
<path fill="none" stroke="#191970" d="M646.6974,-617.8336C649.829,-617.1579 652.969,-616.5316 656,-616 802.1891,-590.3603 856.2777,-648.3951 988,-580 1008.6284,-569.289 1025.2484,-547.9462 1035.3235,-532.4226"/>
<polygon fill="#191970" stroke="#191970" points="1038.4595,-534.0052 1040.7282,-523.6562 1032.5009,-530.3316 1038.4595,-534.0052"/>
</g>
<!-- Node39 -->
<g id="node40" class="node">
<title>Node39</title>
<g id="a_node40"><a xlink:href="upgrade_8h.html" target="_top" xlink:title="upgrade.h">
<polygon fill="#ffffff" stroke="#000000" points="1437,-560.5 1437,-579.5 1499,-579.5 1499,-560.5 1437,-560.5"/>
<text text-anchor="middle" x="1468" y="-567.5" font-family="Helvetica,sans-Serif" font-size="10.00" fill="#000000">upgrade.h</text>
</a>
</g>
</g>
<!-- Node4&#45;&gt;Node39 -->
<g id="edge69" class="edge">
<title>Node4&#45;&gt;Node39</title>
<path fill="none" stroke="#191970" d="M646.6661,-617.638C649.8041,-617.0019 652.9542,-616.4383 656,-616 992.662,-567.5557 1086.3359,-628.6825 1426.5373,-579.9301"/>
<polygon fill="#191970" stroke="#191970" points="1427.2828,-583.3586 1436.6748,-578.4555 1426.2751,-576.4315 1427.2828,-583.3586"/>
</g>
<!-- Node40 -->
<g id="node41" class="node">
<title>Node40</title>
<g id="a_node41"><a xlink:href="platform_8h.html" target="_top" xlink:title="platform.h">
<polygon fill="#ffffff" stroke="#000000" points="1517.5,-560.5 1517.5,-579.5 1578.5,-579.5 1578.5,-560.5 1517.5,-560.5"/>
<text text-anchor="middle" x="1548" y="-567.5" font-family="Helvetica,sans-Serif" font-size="10.00" fill="#000000">platform.h</text>
</a>
</g>
</g>
<!-- Node4&#45;&gt;Node40 -->
<g id="edge70" class="edge">
<title>Node4&#45;&gt;Node40</title>
<path fill="none" stroke="#191970" d="M646.6641,-617.624C649.8026,-616.9908 652.9532,-616.4316 656,-616 1027.9595,-563.3058 1131.0889,-632.994 1507.0488,-579.8224"/>
<polygon fill="#191970" stroke="#191970" points="1507.7126,-583.2631 1517.1144,-578.3789 1506.7188,-576.334 1507.7126,-583.2631"/>
</g>
<!-- Node41 -->
<g id="node42" class="node">
<title>Node41</title>
<g id="a_node42"><a xlink:href="espmissingincludes_8h.html" target="_top" xlink:title="espmissingincludes.h">
<polygon fill="#ffffff" stroke="#000000" points="1072,-168.5 1072,-187.5 1184,-187.5 1184,-168.5 1072,-168.5"/>
<text text-anchor="middle" x="1128" y="-175.5" font-family="Helvetica,sans-Serif" font-size="10.00" fill="#000000">espmissingincludes.h</text>
</a>
</g>
</g>
<!-- Node4&#45;&gt;Node41 -->
<g id="edge71" class="edge">
<title>Node4&#45;&gt;Node41</title>
<path fill="none" stroke="#191970" d="M646.6876,-617.7763C649.8212,-617.1122 652.9644,-616.5042 656,-616 831.6469,-586.8233 882.8673,-625.5351 1055,-580 1186.5119,-545.2105 1304,-538.0356 1304,-402 1304,-402 1304,-402 1304,-290 1304,-233.5186 1238.6871,-204.2888 1187.6354,-190.0684"/>
<polygon fill="#191970" stroke="#191970" points="1188.5269,-186.6839 1177.9638,-187.5027 1186.732,-193.4499 1188.5269,-186.6839"/>
</g>
<!-- Node9 -->
<g id="node10" class="node">
<title>Node9</title>
<polygon fill="#ffffff" stroke="#bfbfbf" points="1103.5,-.5 1103.5,-19.5 1152.5,-19.5 1152.5,-.5 1103.5,-.5"/>
<text text-anchor="middle" x="1128" y="-7.5" font-family="Helvetica,sans-Serif" font-size="10.00" fill="#000000">stdint.h</text>
</g>
<!-- Node8&#45;&gt;Node9 -->
<g id="edge10" class="edge">
<title>Node8&#45;&gt;Node9</title>
<path fill="none" stroke="#191970" d="M1038.8122,-56.2455C1055.8473,-47.4125 1081.1575,-34.2887 1100.4681,-24.2758"/>
<polygon fill="#191970" stroke="#191970" points="1102.137,-27.353 1109.4034,-19.6427 1098.9147,-21.1388 1102.137,-27.353"/>
</g>
<!-- Node10 -->
<g id="node11" class="node">
<title>Node10</title>
<polygon fill="#ffffff" stroke="#bfbfbf" points="991.5,-.5 991.5,-19.5 1048.5,-19.5 1048.5,-.5 991.5,-.5"/>
<text text-anchor="middle" x="1020" y="-7.5" font-family="Helvetica,sans-Serif" font-size="10.00" fill="#000000">stdbool.h</text>
</g>
<!-- Node8&#45;&gt;Node10 -->
<g id="edge11" class="edge">
<title>Node8&#45;&gt;Node10</title>
<path fill="none" stroke="#191970" d="M1020,-56.2455C1020,-48.9382 1020,-38.6944 1020,-29.7046"/>
<polygon fill="#191970" stroke="#191970" points="1023.5001,-29.6426 1020,-19.6427 1016.5001,-29.6427 1023.5001,-29.6426"/>
</g>
<!-- Node11&#45;&gt;Node12 -->
<g id="edge13" class="edge">
<title>Node11&#45;&gt;Node12</title>
<path fill="none" stroke="#191970" d="M699.9086,-560.3819C667.329,-545.8924 610.5889,-515.0521 587,-468 583.0163,-460.0538 585.8128,-456.8093 587,-448 588.1042,-439.8062 601.512,-392.6612 609.366,-365.4237"/>
<polygon fill="#191970" stroke="#191970" points="612.7427,-366.3456 612.1583,-355.7669 606.0182,-364.4011 612.7427,-366.3456"/>
</g>
<!-- Node21 -->
<g id="node22" class="node">
<title>Node21</title>
<g id="a_node22"><a xlink:href="def_8h.html" target="_top" xlink:title="lwip/def.h">
<polygon fill="#ffffff" stroke="#000000" points="833.5,-392.5 833.5,-411.5 892.5,-411.5 892.5,-392.5 833.5,-392.5"/>
<text text-anchor="middle" x="863" y="-399.5" font-family="Helvetica,sans-Serif" font-size="10.00" fill="#000000">lwip/def.h</text>
</a>
</g>
</g>
<!-- Node11&#45;&gt;Node21 -->
<g id="edge25" class="edge">
<title>Node11&#45;&gt;Node21</title>
<path fill="none" stroke="#191970" d="M750.7333,-565.6511C795.6346,-556.6863 884.4744,-531.392 917,-468 926.9318,-448.643 907.6673,-429.7611 889.4532,-417.1873"/>
<polygon fill="#191970" stroke="#191970" points="891.0268,-414.0369 880.7286,-411.547 887.2263,-419.9155 891.0268,-414.0369"/>
</g>
<!-- Node22 -->
<g id="node23" class="node">
<title>Node22</title>
<g id="a_node23"><a xlink:href="pbuf_8h.html" target="_top" xlink:title="lwip/pbuf.h">
<polygon fill="#ffffff" stroke="#000000" points="596,-448.5 596,-467.5 660,-467.5 660,-448.5 596,-448.5"/>
<text text-anchor="middle" x="628" y="-455.5" font-family="Helvetica,sans-Serif" font-size="10.00" fill="#000000">lwip/pbuf.h</text>
</a>
</g>
</g>
<!-- Node11&#45;&gt;Node22 -->
<g id="edge28" class="edge">
<title>Node11&#45;&gt;Node22</title>
<path fill="none" stroke="#191970" d="M715.1068,-560.2132C706.737,-550.9575 693.8955,-536.6412 683,-524 669.1008,-507.8739 653.603,-489.2128 642.61,-475.8567"/>
<polygon fill="#191970" stroke="#191970" points="645.1493,-473.4338 636.0987,-467.9259 639.7391,-477.8756 645.1493,-473.4338"/>
</g>
<!-- Node23 -->
<g id="node24" class="node">
<title>Node23</title>
<g id="a_node24"><a xlink:href="err_8h.html" target="_top" xlink:title="lwip/err.h">
<polygon fill="#ffffff" stroke="#000000" points="719.5,-392.5 719.5,-411.5 776.5,-411.5 776.5,-392.5 719.5,-392.5"/>
<text text-anchor="middle" x="748" y="-399.5" font-family="Helvetica,sans-Serif" font-size="10.00" fill="#000000">lwip/err.h</text>
</a>
</g>
</g>
<!-- Node11&#45;&gt;Node23 -->
<g id="edge36" class="edge">
<title>Node11&#45;&gt;Node23</title>
<path fill="none" stroke="#191970" d="M736.7248,-560.2466C746.5407,-551.8582 759.3633,-538.7955 765,-524 778.1976,-489.3581 765.7272,-445.6918 756.299,-421.1066"/>
<polygon fill="#191970" stroke="#191970" points="759.4163,-419.481 752.4064,-411.5367 752.9322,-422.1185 759.4163,-419.481"/>
</g>
<!-- Node24 -->
<g id="node25" class="node">
<title>Node24</title>
<g id="a_node25"><a xlink:href="esp-open-lwip_2include_2lwip_2ip__addr_8h.html" target="_top" xlink:title="lwip/ip_addr.h">
<polygon fill="#ffffff" stroke="#000000" points="830,-448.5 830,-467.5 908,-467.5 908,-448.5 830,-448.5"/>
<text text-anchor="middle" x="869" y="-455.5" font-family="Helvetica,sans-Serif" font-size="10.00" fill="#000000">lwip/ip_addr.h</text>
</a>
</g>
</g>
<!-- Node11&#45;&gt;Node24 -->
<g id="edge33" class="edge">
<title>Node11&#45;&gt;Node24</title>
<path fill="none" stroke="#191970" d="M750.3347,-560.3976C769.749,-552.5098 796.1266,-540.0357 816,-524 832.8871,-510.374 847.9257,-490.5097 857.6303,-476.1365"/>
<polygon fill="#191970" stroke="#191970" points="860.6646,-477.8912 863.2031,-467.6049 854.8041,-474.0631 860.6646,-477.8912"/>
</g>
<!-- Node11&#45;&gt;Node25 -->
<g id="edge37" class="edge">
<title>Node11&#45;&gt;Node25</title>
<path fill="none" stroke="#191970" d="M724,-560.2455C724,-552.9382 724,-542.6944 724,-533.7046"/>
<polygon fill="#191970" stroke="#191970" points="727.5001,-533.6426 724,-523.6427 720.5001,-533.6427 727.5001,-533.6426"/>
</g>
<!-- Node13 -->
<g id="node14" class="node">
<title>Node13</title>
<g id="a_node14"><a xlink:href="lwipopts_8h.html" target="_top" xlink:title="lwipopts.h">
<polygon fill="#ffffff" stroke="#000000" points="584.5,-280.5 584.5,-299.5 645.5,-299.5 645.5,-280.5 584.5,-280.5"/>
<text text-anchor="middle" x="615" y="-287.5" font-family="Helvetica,sans-Serif" font-size="10.00" fill="#000000">lwipopts.h</text>
</a>
</g>
</g>
<!-- Node12&#45;&gt;Node13 -->
<g id="edge14" class="edge">
<title>Node12&#45;&gt;Node13</title>
<path fill="none" stroke="#191970" d="M615,-336.2455C615,-328.9382 615,-318.6944 615,-309.7046"/>
<polygon fill="#191970" stroke="#191970" points="618.5001,-309.6426 615,-299.6427 611.5001,-309.6427 618.5001,-309.6426"/>
</g>
<!-- Node14 -->
<g id="node15" class="node">
<title>Node14</title>
<g id="a_node15"><a xlink:href="esp-open-sdk_2esp-open-lwip_2include_2lwip_2debug_8h.html" target="_top" xlink:title="lwip/debug.h">
<polygon fill="#ffffff" stroke="#000000" points="671.5,-280.5 671.5,-299.5 744.5,-299.5 744.5,-280.5 671.5,-280.5"/>
<text text-anchor="middle" x="708" y="-287.5" font-family="Helvetica,sans-Serif" font-size="10.00" fill="#000000">lwip/debug.h</text>
</a>
</g>
</g>
<!-- Node12&#45;&gt;Node14 -->
<g id="edge15" class="edge">
<title>Node12&#45;&gt;Node14</title>
<path fill="none" stroke="#191970" d="M631.1994,-336.2455C645.6018,-327.5731 666.8732,-314.7645 683.3799,-304.825"/>
<polygon fill="#191970" stroke="#191970" points="685.225,-307.7996 691.9863,-299.6427 681.614,-301.8028 685.225,-307.7996"/>
</g>
<!-- Node15 -->
<g id="node16" class="node">
<title>Node15</title>
<g id="a_node16"><a xlink:href="arch_8h.html" target="_top" xlink:title="lwip/arch.h">
<polygon fill="#ffffff" stroke="#000000" points="782,-224.5 782,-243.5 846,-243.5 846,-224.5 782,-224.5"/>
<text text-anchor="middle" x="814" y="-231.5" font-family="Helvetica,sans-Serif" font-size="10.00" fill="#000000">lwip/arch.h</text>
</a>
</g>
</g>
<!-- Node14&#45;&gt;Node15 -->
<g id="edge16" class="edge">
<title>Node14&#45;&gt;Node15</title>
<path fill="none" stroke="#191970" d="M726.4638,-280.2455C743.1074,-271.4527 767.7993,-258.4079 786.7192,-248.4125"/>
<polygon fill="#191970" stroke="#191970" points="788.5408,-251.4086 795.7478,-243.6427 785.2709,-245.2193 788.5408,-251.4086"/>
</g>
<!-- Node16 -->
<g id="node17" class="node">
<title>Node16</title>
<g id="a_node17"><a xlink:href="cc_8h.html" target="_top" xlink:title="arch/cc.h">
<polygon fill="#ffffff" stroke="#000000" points="816.5,-168.5 816.5,-187.5 873.5,-187.5 873.5,-168.5 816.5,-168.5"/>
<text text-anchor="middle" x="845" y="-175.5" font-family="Helvetica,sans-Serif" font-size="10.00" fill="#000000">arch/cc.h</text>
</a>
</g>
</g>
<!-- Node15&#45;&gt;Node16 -->
<g id="edge17" class="edge">
<title>Node15&#45;&gt;Node16</title>
<path fill="none" stroke="#191970" d="M819.3998,-224.2455C823.6227,-216.617 829.6173,-205.7881 834.7441,-196.5267"/>
<polygon fill="#191970" stroke="#191970" points="837.881,-198.0867 839.6621,-187.6427 831.7568,-194.6965 837.881,-198.0867"/>
</g>
<!-- Node16&#45;&gt;Node8 -->
<g id="edge18" class="edge">
<title>Node16&#45;&gt;Node8</title>
<path fill="none" stroke="#191970" d="M859.9204,-168.4509C890.3998,-148.9441 960.0106,-104.3932 996.5768,-80.9909"/>
<polygon fill="#191970" stroke="#191970" points="998.5813,-83.8634 1005.1174,-75.5249 994.8079,-77.9675 998.5813,-83.8634"/>
</g>
<!-- Node16&#45;&gt;Node17 -->
<g id="edge19" class="edge">
<title>Node16&#45;&gt;Node17</title>
<path fill="none" stroke="#191970" d="M873.8089,-169.3727C905.5128,-159.8785 956.6802,-144.5557 992.2022,-133.9181"/>
<polygon fill="#191970" stroke="#191970" points="993.6548,-137.1367 1002.2304,-130.915 991.6467,-130.4309 993.6548,-137.1367"/>
</g>
<!-- Node16&#45;&gt;Node19 -->
<g id="edge22" class="edge">
<title>Node16&#45;&gt;Node19</title>
<path fill="none" stroke="#191970" d="M816.1431,-175.5215C710.1521,-166.418 342.5464,-134.8445 227.6174,-124.9733"/>
<polygon fill="#191970" stroke="#191970" points="227.8709,-121.4823 217.6081,-124.1136 227.2718,-128.4566 227.8709,-121.4823"/>
</g>
<!-- Node17&#45;&gt;Node8 -->
<g id="edge20" class="edge">
<title>Node17&#45;&gt;Node8</title>
<path fill="none" stroke="#191970" d="M1029.9098,-112.2455C1028.3439,-104.9382 1026.1488,-94.6944 1024.2224,-85.7046"/>
<polygon fill="#191970" stroke="#191970" points="1027.584,-84.6873 1022.0663,-75.6427 1020.7393,-86.1541 1027.584,-84.6873"/>
</g>
<!-- Node18 -->
<g id="node19" class="node">
<title>Node18</title>
<g id="a_node19"><a xlink:href="eagle__soc_8h.html" target="_top" xlink:title="eagle_soc.h">
<polygon fill="#ffffff" stroke="#000000" points="1068,-56.5 1068,-75.5 1138,-75.5 1138,-56.5 1068,-56.5"/>
<text text-anchor="middle" x="1103" y="-63.5" font-family="Helvetica,sans-Serif" font-size="10.00" fill="#000000">eagle_soc.h</text>
</a>
</g>
</g>
<!-- Node17&#45;&gt;Node18 -->
<g id="edge21" class="edge">
<title>Node17&#45;&gt;Node18</title>
<path fill="none" stroke="#191970" d="M1044.3673,-112.2455C1054.9554,-103.8943 1070.4064,-91.7076 1082.7893,-81.9408"/>
<polygon fill="#191970" stroke="#191970" points="1085.0903,-84.5837 1090.7745,-75.6427 1080.7553,-79.0875 1085.0903,-84.5837"/>
</g>
<!-- Node19&#45;&gt;Node7 -->
<g id="edge23" class="edge">
<title>Node19&#45;&gt;Node7</title>
<path fill="none" stroke="#191970" d="M188.297,-112.2455C184.6576,-104.6973 179.5076,-94.0158 175.0738,-84.8197"/>
<polygon fill="#191970" stroke="#191970" points="178.1449,-83.1303 170.6491,-75.6427 171.8395,-86.1704 178.1449,-83.1303"/>
</g>
<!-- Node20 -->
<g id="node21" class="node">
<title>Node20</title>
<polygon fill="#ffffff" stroke="#bfbfbf" points="553.5,-56.5 553.5,-75.5 630.5,-75.5 630.5,-56.5 553.5,-56.5"/>
<text text-anchor="middle" x="592" y="-63.5" font-family="Helvetica,sans-Serif" font-size="10.00" fill="#000000">user_config.h</text>
</g>
<!-- Node19&#45;&gt;Node20 -->
<g id="edge24" class="edge">
<title>Node19&#45;&gt;Node20</title>
<path fill="none" stroke="#191970" d="M217.6536,-115.187C222.3915,-114.0175 227.3316,-112.8932 232,-112 342.3697,-90.8829 473.6795,-76.8633 543.187,-70.3009"/>
<polygon fill="#191970" stroke="#191970" points="543.7599,-73.7628 553.3917,-69.3493 543.1099,-66.793 543.7599,-73.7628"/>
</g>
<!-- Node21&#45;&gt;Node12 -->
<g id="edge27" class="edge">
<title>Node21&#45;&gt;Node12</title>
<path fill="none" stroke="#191970" d="M833.1796,-395.2154C828.4366,-394.1384 823.5842,-393.0378 819,-392 761.8739,-379.0677 695.7322,-364.1667 654.6249,-354.9141"/>
<polygon fill="#191970" stroke="#191970" points="655.2585,-351.4693 644.734,-352.6881 653.7215,-358.2984 655.2585,-351.4693"/>
</g>
<!-- Node21&#45;&gt;Node15 -->
<g id="edge26" class="edge">
<title>Node21&#45;&gt;Node15</title>
<path fill="none" stroke="#191970" d="M860.2252,-392.4862C852.4459,-365.8144 830.3076,-289.9117 819.7444,-253.695"/>
<polygon fill="#191970" stroke="#191970" points="823.0265,-252.4479 816.8665,-243.8279 816.3065,-254.4079 823.0265,-252.4479"/>
</g>
<!-- Node22&#45;&gt;Node12 -->
<g id="edge29" class="edge">
<title>Node22&#45;&gt;Node12</title>
<path fill="none" stroke="#191970" d="M629.1454,-448.0939C630.4181,-435.1252 631.9348,-411.7226 629,-392 627.6673,-383.0439 624.9506,-373.419 622.2619,-365.3"/>
<polygon fill="#191970" stroke="#191970" points="625.4936,-363.9402 618.8624,-355.6772 618.8933,-366.272 625.4936,-363.9402"/>
</g>
<!-- Node22&#45;&gt;Node23 -->
<g id="edge30" class="edge">
<title>Node22&#45;&gt;Node23</title>
<path fill="none" stroke="#191970" d="M648.6287,-448.3733C667.8919,-439.3838 696.8486,-425.8706 718.5419,-415.7471"/>
<polygon fill="#191970" stroke="#191970" points="720.0587,-418.9017 727.6405,-411.5011 717.0985,-412.5584 720.0587,-418.9017"/>
</g>
<!-- Node23&#45;&gt;Node12 -->
<g id="edge31" class="edge">
<title>Node23&#45;&gt;Node12</title>
<path fill="none" stroke="#191970" d="M725.1365,-392.3733C703.595,-383.3032 671.1162,-369.6279 647.0044,-359.4755"/>
<polygon fill="#191970" stroke="#191970" points="648.1397,-356.156 637.5652,-355.5011 645.4233,-362.6075 648.1397,-356.156"/>
</g>
<!-- Node23&#45;&gt;Node15 -->
<g id="edge32" class="edge">
<title>Node23&#45;&gt;Node15</title>
<path fill="none" stroke="#191970" d="M751.7375,-392.4862C762.2609,-365.6994 792.2921,-289.2565 806.4458,-253.2289"/>
<polygon fill="#191970" stroke="#191970" points="809.7401,-254.4152 810.139,-243.8279 803.2248,-251.8556 809.7401,-254.4152"/>
</g>
<!-- Node24&#45;&gt;Node12 -->
<g id="edge34" class="edge">
<title>Node24&#45;&gt;Node12</title>
<path fill="none" stroke="#191970" d="M859.7024,-448.4275C845.2451,-434.0845 815.9143,-407.0936 786,-392 743.782,-370.6984 690.5634,-358.388 654.8048,-351.9544"/>
<polygon fill="#191970" stroke="#191970" points="655.203,-348.4715 644.7532,-350.218 654.0114,-355.3693 655.203,-348.4715"/>
</g>
<!-- Node24&#45;&gt;Node21 -->
<g id="edge35" class="edge">
<title>Node24&#45;&gt;Node21</title>
<path fill="none" stroke="#191970" d="M867.9549,-448.2455C867.172,-440.9382 866.0744,-430.6944 865.1112,-421.7046"/>
<polygon fill="#191970" stroke="#191970" points="868.5786,-421.2129 864.0331,-411.6427 861.6185,-421.9587 868.5786,-421.2129"/>
</g>
<!-- Node25&#45;&gt;Node12 -->
<g id="edge38" class="edge">
<title>Node25&#45;&gt;Node12</title>
<path fill="none" stroke="#191970" d="M717.8274,-504.4862C700.2987,-477.4695 649.9971,-399.9405 626.8798,-364.3102"/>
<polygon fill="#191970" stroke="#191970" points="629.7555,-362.3119 621.3764,-355.8279 623.8832,-366.1219 629.7555,-362.3119"/>
</g>
<!-- Node25&#45;&gt;Node21 -->
<g id="edge41" class="edge">
<title>Node25&#45;&gt;Node21</title>
<path fill="none" stroke="#191970" d="M735.8511,-504.4509C759.7527,-485.1921 813.9506,-441.5218 843.275,-417.8935"/>
<polygon fill="#191970" stroke="#191970" points="845.5881,-420.5245 851.1789,-411.5249 841.1961,-415.0738 845.5881,-420.5245"/>
</g>
<!-- Node25&#45;&gt;Node22 -->
<g id="edge42" class="edge">
<title>Node25&#45;&gt;Node22</title>
<path fill="none" stroke="#191970" d="M707.2781,-504.2455C692.4111,-495.5731 670.4534,-482.7645 653.4142,-472.825"/>
<polygon fill="#191970" stroke="#191970" points="654.9317,-469.6582 644.5303,-467.6427 651.4045,-475.7047 654.9317,-469.6582"/>
</g>
<!-- Node25&#45;&gt;Node23 -->
<g id="edge39" class="edge">
<title>Node25&#45;&gt;Node23</title>
<path fill="none" stroke="#191970" d="M726.0462,-504.4509C729.9783,-486.1013 738.6591,-445.5908 743.8494,-421.3693"/>
<polygon fill="#191970" stroke="#191970" points="747.2859,-422.0363 745.959,-411.5249 740.4413,-420.5695 747.2859,-422.0363"/>
</g>
<!-- Node25&#45;&gt;Node24 -->
<g id="edge40" class="edge">
<title>Node25&#45;&gt;Node24</title>
<path fill="none" stroke="#191970" d="M748.9264,-504.3733C772.6202,-495.2226 808.4511,-481.3844 834.8068,-471.2057"/>
<polygon fill="#191970" stroke="#191970" points="836.3314,-474.3689 844.3989,-467.5011 833.8094,-467.8389 836.3314,-474.3689"/>
</g>
<!-- Node26&#45;&gt;Node12 -->
<g id="edge44" class="edge">
<title>Node26&#45;&gt;Node12</title>
<path fill="none" stroke="#191970" d="M517.9097,-504.1958C502.9289,-482.1746 471.3799,-427.9125 496,-392 505.4082,-378.2765 544.7599,-364.8175 575.6684,-356.0393"/>
<polygon fill="#191970" stroke="#191970" points="576.6532,-359.3984 585.3584,-353.3593 574.7872,-352.6517 576.6532,-359.3984"/>
</g>
<!-- Node27&#45;&gt;Node12 -->
<g id="edge46" class="edge">
<title>Node27&#45;&gt;Node12</title>
<path fill="none" stroke="#191970" d="M558.0189,-392.2455C568.2098,-383.9746 583.0362,-371.9416 595.0107,-362.2232"/>
<polygon fill="#191970" stroke="#191970" points="597.5598,-364.662 603.1188,-355.6427 593.1486,-359.2268 597.5598,-364.662"/>
</g>
<!-- Node28&#45;&gt;Node12 -->
<g id="edge48" class="edge">
<title>Node28&#45;&gt;Node12</title>
<path fill="none" stroke="#191970" d="M277.5501,-504.3115C267.8473,-481.5702 247.82,-424.2621 276,-392 295.4571,-369.7243 489.8759,-354.264 575.2033,-348.4994"/>
<polygon fill="#191970" stroke="#191970" points="575.5444,-351.9846 585.2902,-347.8289 575.08,-345 575.5444,-351.9846"/>
</g>
<!-- Node29&#45;&gt;Node12 -->
<g id="edge51" class="edge">
<title>Node29&#45;&gt;Node12</title>
<path fill="none" stroke="#191970" d="M372.7486,-393.4338C427.9073,-382.6335 521.9422,-364.2211 575.1774,-353.7974"/>
<polygon fill="#191970" stroke="#191970" points="576.1158,-357.1802 585.2568,-351.8238 574.7706,-350.3107 576.1158,-357.1802"/>
</g>
<!-- Node30&#45;&gt;Node12 -->
<g id="edge53" class="edge">
<title>Node30&#45;&gt;Node12</title>
<path fill="none" stroke="#191970" d="M405.1728,-504.2686C401.492,-481.4347 395.8425,-423.9409 425,-392 444.9201,-370.1783 525.635,-356.7611 575.2322,-350.4104"/>
<polygon fill="#191970" stroke="#191970" points="575.8164,-353.8649 585.3103,-349.162 574.9558,-346.918 575.8164,-353.8649"/>
</g>
<!-- Node35&#45;&gt;Node20 -->
<g id="edge66" class="edge">
<title>Node35&#45;&gt;Node20</title>
<path fill="none" stroke="#191970" d="M1033.8078,-504.4793C1005.1679,-480.9419 936,-416.771 936,-346 936,-346 936,-346 936,-178 936,-116.6427 735.6255,-83.7038 640.7307,-71.5447"/>
<polygon fill="#191970" stroke="#191970" points="641.1504,-68.07 630.7925,-70.2979 640.279,-75.0155 641.1504,-68.07"/>
</g>
<!-- Node35&#45;&gt;Node24 -->
<g id="edge64" class="edge">
<title>Node35&#45;&gt;Node24</title>
<path fill="none" stroke="#191970" d="M1015.5726,-504.3733C986.0128,-495.021 940.9774,-480.7725 908.6305,-470.5385"/>
<polygon fill="#191970" stroke="#191970" points="909.6203,-467.1807 899.0303,-467.5011 907.5087,-473.8546 909.6203,-467.1807"/>
</g>
<!-- Node35&#45;&gt;Node33 -->
<g id="edge68" class="edge">
<title>Node35&#45;&gt;Node33</title>
<path fill="none" stroke="#191970" d="M1085.5467,-504.4173C1119.4273,-496.0527 1169.7271,-483.2689 1221.9303,-468.2037"/>
<polygon fill="#191970" stroke="#191970" points="1223.071,-471.5171 1231.6964,-465.3647 1221.1169,-464.7954 1223.071,-471.5171"/>
</g>
<!-- Node36 -->
<g id="node37" class="node">
<title>Node36</title>
<g id="a_node37"><a xlink:href="os__type_8h.html" target="_top" xlink:title="os_type.h">
<polygon fill="#ffffff" stroke="#000000" points="1017,-336.5 1017,-355.5 1077,-355.5 1077,-336.5 1017,-336.5"/>
<text text-anchor="middle" x="1047" y="-343.5" font-family="Helvetica,sans-Serif" font-size="10.00" fill="#000000">os_type.h</text>
</a>
</g>
</g>
<!-- Node35&#45;&gt;Node36 -->
<g id="edge62" class="edge">
<title>Node35&#45;&gt;Node36</title>
<path fill="none" stroke="#191970" d="M1046.0566,-504.4862C1046.2147,-477.9293 1046.6633,-402.5651 1046.88,-366.1655"/>
<polygon fill="#191970" stroke="#191970" points="1050.3818,-365.8486 1046.9415,-355.8279 1043.3819,-365.8068 1050.3818,-365.8486"/>
</g>
<!-- Node37 -->
<g id="node38" class="node">
<title>Node37</title>
<g id="a_node38"><a xlink:href="esp-open-sdk_2sdk_2include_2queue_8h.html" target="_top" xlink:title="queue.h">
<polygon fill="#ffffff" stroke="#000000" points="1078.5,-448.5 1078.5,-467.5 1131.5,-467.5 1131.5,-448.5 1078.5,-448.5"/>
<text text-anchor="middle" x="1105" y="-455.5" font-family="Helvetica,sans-Serif" font-size="10.00" fill="#000000">queue.h</text>
</a>
</g>
</g>
<!-- Node35&#45;&gt;Node37 -->
<g id="edge65" class="edge">
<title>Node35&#45;&gt;Node37</title>
<path fill="none" stroke="#191970" d="M1056.277,-504.2455C1064.8218,-496.1352 1077.1778,-484.4075 1087.3085,-474.7919"/>
<polygon fill="#191970" stroke="#191970" points="1089.9972,-477.0655 1094.8408,-467.6427 1085.1782,-471.9884 1089.9972,-477.0655"/>
</g>
<!-- Node38 -->
<g id="node39" class="node">
<title>Node38</title>
<g id="a_node39"><a xlink:href="spi__flash_8h.html" target="_top" xlink:title="spi_flash.h">
<polygon fill="#ffffff" stroke="#000000" points="1150,-448.5 1150,-467.5 1214,-467.5 1214,-448.5 1150,-448.5"/>
<text text-anchor="middle" x="1182" y="-455.5" font-family="Helvetica,sans-Serif" font-size="10.00" fill="#000000">spi_flash.h</text>
</a>
</g>
</g>
<!-- Node35&#45;&gt;Node38 -->
<g id="edge67" class="edge">
<title>Node35&#45;&gt;Node38</title>
<path fill="none" stroke="#191970" d="M1069.3792,-504.3733C1091.5045,-495.2629 1124.9134,-481.5062 1149.6019,-471.3404"/>
<polygon fill="#191970" stroke="#191970" points="1151.0117,-474.5451 1158.9258,-467.5011 1148.3464,-468.0723 1151.0117,-474.5451"/>
</g>
<!-- Node36&#45;&gt;Node17 -->
<g id="edge63" class="edge">
<title>Node36&#45;&gt;Node17</title>
<path fill="none" stroke="#191970" d="M1046.3555,-336.375C1044.0861,-302.4851 1036.4352,-188.2317 1033.3281,-141.8332"/>
<polygon fill="#191970" stroke="#191970" points="1036.8025,-141.3329 1032.6421,-131.5891 1029.8182,-141.8007 1036.8025,-141.3329"/>
</g>
<!-- Node41&#45;&gt;Node8 -->
<g id="edge73" class="edge">
<title>Node41&#45;&gt;Node8</title>
<path fill="none" stroke="#191970" d="M1120.2401,-168.2716C1109.5901,-155.0976 1089.6379,-131.0437 1071,-112 1060.9659,-101.7474 1049.0988,-90.9715 1039.3378,-82.4287"/>
<polygon fill="#191970" stroke="#191970" points="1041.573,-79.7344 1031.7204,-75.8385 1036.993,-85.0282 1041.573,-79.7344"/>
</g>
<!-- Node41&#45;&gt;Node9 -->
<g id="edge72" class="edge">
<title>Node41&#45;&gt;Node9</title>
<path fill="none" stroke="#191970" d="M1131.7558,-168.4616C1139.3766,-147.8454 1155.2594,-97.6316 1147,-56 1145.1352,-46.6003 1141.3201,-36.7115 1137.5946,-28.5215"/>
<polygon fill="#191970" stroke="#191970" points="1140.7433,-26.993 1133.2318,-19.5212 1134.4443,-30.0464 1140.7433,-26.993"/>
</g>
<!-- Node41&#45;&gt;Node17 -->
<g id="edge75" class="edge">
<title>Node41&#45;&gt;Node17</title>
<path fill="none" stroke="#191970" d="M1111.2781,-168.2455C1096.4111,-159.5731 1074.4534,-146.7645 1057.4142,-136.825"/>
<polygon fill="#191970" stroke="#191970" points="1058.9317,-133.6582 1048.5303,-131.6427 1055.4045,-139.7047 1058.9317,-133.6582"/>
</g>
<!-- Node41&#45;&gt;Node18 -->
<g id="edge74" class="edge">
<title>Node41&#45;&gt;Node18</title>
<path fill="none" stroke="#191970" d="M1125.8685,-168.4509C1121.7726,-150.1013 1112.7301,-109.5908 1107.3235,-85.3693"/>
<polygon fill="#191970" stroke="#191970" points="1110.7206,-84.5222 1105.1261,-75.5249 1103.8888,-86.0472 1110.7206,-84.5222"/>
</g>
</g>
</svg>
