<?xml version="1.0" encoding="UTF-8" standalone="no"?>
<!DOCTYPE svg PUBLIC "-//W3C//DTD SVG 1.1//EN"
 "http://www.w3.org/Graphics/SVG/1.1/DTD/svg11.dtd">
<!-- Generated by graphviz version 2.39.20160927.1334 (20160927.1334)
 -->
<!-- Title: PROTO_ParseByte Pages: 1 -->
<svg width="1390pt" height="442pt"
 viewBox="0.00 0.00 1390.00 441.82" xmlns="http://www.w3.org/2000/svg" xmlns:xlink="http://www.w3.org/1999/xlink">
<g id="graph0" class="graph" transform="scale(1 1) rotate(0) translate(4 437.823)">
<title>PROTO_ParseByte</title>
<polygon fill="#ffffff" stroke="transparent" points="-4,4 -4,-437.823 1386,-437.823 1386,4 -4,4"/>
<!-- Node1 -->
<g id="node1" class="node">
<title>Node1</title>
<polygon fill="#bfbfbf" stroke="#000000" points="0,-299.298 0,-318.298 104,-318.298 104,-299.298 0,-299.298"/>
<text text-anchor="middle" x="52" y="-306.298" font-family="Helvetica,sans-Serif" font-size="10.00" fill="#000000">PROTO_ParseByte</text>
</g>
<!-- Node2 -->
<g id="node2" class="node">
<title>Node2</title>
<g id="a_node2"><a xlink:href="proto_8c.html#a6f2c7acdde3cd5124e00a595ccea8f2d" target="_top" xlink:title="PROTO_Parse">
<polygon fill="#ffffff" stroke="#000000" points="146.5,-318.298 146.5,-337.298 230.5,-337.298 230.5,-318.298 146.5,-318.298"/>
<text text-anchor="middle" x="188.5" y="-325.298" font-family="Helvetica,sans-Serif" font-size="10.00" fill="#000000">PROTO_Parse</text>
</a>
</g>
</g>
<!-- Node1&#45;&gt;Node2 -->
<g id="edge1" class="edge">
<title>Node1&#45;&gt;Node2</title>
<path fill="none" stroke="#191970" d="M114.562,-317.506C125.275,-318.997 136.175,-320.515 146.199,-321.91"/>
<polygon fill="#191970" stroke="#191970" points="114.771,-314.001 104.384,-316.089 113.806,-320.935 114.771,-314.001"/>
</g>
<!-- Node3 -->
<g id="node3" class="node">
<title>Node3</title>
<g id="a_node3"><a xlink:href="proto_8c.html#a4ce0ecd80c57cb13f47a2725036451af" target="_top" xlink:title="PROTO_ParseRb">
<polygon fill="#ffffff" stroke="#000000" points="140,-280.298 140,-299.298 237,-299.298 237,-280.298 140,-280.298"/>
<text text-anchor="middle" x="188.5" y="-287.298" font-family="Helvetica,sans-Serif" font-size="10.00" fill="#000000">PROTO_ParseRb</text>
</a>
</g>
</g>
<!-- Node1&#45;&gt;Node3 -->
<g id="edge2" class="edge">
<title>Node1&#45;&gt;Node3</title>
<path fill="none" stroke="#191970" d="M114.552,-300.091C122.963,-298.92 131.49,-297.733 139.618,-296.602"/>
<polygon fill="#191970" stroke="#191970" points="113.806,-296.661 104.384,-301.506 114.771,-303.594 113.806,-296.661"/>
</g>
<!-- Node4 -->
<g id="node4" class="node">
<title>Node4</title>
<g id="a_node4"><a xlink:href="queue_8c.html#acf070d5db9067c0b9598dec844313ae5" target="_top" xlink:title="QUEUE_Gets">
<polygon fill="#ffffff" stroke="#000000" points="273,-280.298 273,-299.298 352,-299.298 352,-280.298 273,-280.298"/>
<text text-anchor="middle" x="312.5" y="-287.298" font-family="Helvetica,sans-Serif" font-size="10.00" fill="#000000">QUEUE_Gets</text>
</a>
</g>
</g>
<!-- Node3&#45;&gt;Node4 -->
<g id="edge3" class="edge">
<title>Node3&#45;&gt;Node4</title>
<path fill="none" stroke="#191970" d="M247.234,-289.798C255.89,-289.798 264.631,-289.798 272.779,-289.798"/>
<polygon fill="#191970" stroke="#191970" points="247.152,-286.298 237.152,-289.798 247.152,-293.298 247.152,-286.298"/>
</g>
<!-- Node5 -->
<g id="node5" class="node">
<title>Node5</title>
<g id="a_node5"><a xlink:href="mqtt_8c.html#a848a6701c4c7ec3432e38ea57c003aad" target="_top" xlink:title="MQTT publish function. ">
<polygon fill="#ffffff" stroke="#000000" points="400.5,-204.298 400.5,-223.298 483.5,-223.298 483.5,-204.298 400.5,-204.298"/>
<text text-anchor="middle" x="442" y="-211.298" font-family="Helvetica,sans-Serif" font-size="10.00" fill="#000000">MQTT_Publish</text>
</a>
</g>
</g>
<!-- Node4&#45;&gt;Node5 -->
<g id="edge4" class="edge">
<title>Node4&#45;&gt;Node5</title>
<path fill="none" stroke="#191970" d="M337.813,-274.942C363.846,-259.664 403.617,-236.324 425.732,-223.345"/>
<polygon fill="#191970" stroke="#191970" points="335.754,-272.092 328.901,-280.172 339.297,-278.129 335.754,-272.092"/>
</g>
<!-- Node21 -->
<g id="node21" class="node">
<title>Node21</title>
<g id="a_node21"><a xlink:href="mqtt_8c.html#a86f8adfe29d6ec8bb5070fd030540d2f" target="_top" xlink:title="MQTT subscibe function. ">
<polygon fill="#ffffff" stroke="#000000" points="709.5,-368.298 709.5,-387.298 804.5,-387.298 804.5,-368.298 709.5,-368.298"/>
<text text-anchor="middle" x="757" y="-375.298" font-family="Helvetica,sans-Serif" font-size="10.00" fill="#000000">MQTT_Subscribe</text>
</a>
</g>
</g>
<!-- Node4&#45;&gt;Node21 -->
<g id="edge29" class="edge">
<title>Node4&#45;&gt;Node21</title>
<path fill="none" stroke="#191970" d="M354.333,-302.224C398.25,-314.9 469.476,-334.417 532,-346.798 592.728,-358.823 663.595,-367.758 709.324,-372.871"/>
<polygon fill="#191970" stroke="#191970" points="355.163,-298.821 344.584,-299.393 353.211,-305.543 355.163,-298.821"/>
</g>
<!-- Node22 -->
<g id="node22" class="node">
<title>Node22</title>
<g id="a_node22"><a xlink:href="mqtt_8c.html#a7f28cd912dae4c1386c10026a267b579" target="_top" xlink:title="MQTT un&#45;subscibe function. ">
<polygon fill="#ffffff" stroke="#000000" points="388,-166.298 388,-185.298 496,-185.298 496,-166.298 388,-166.298"/>
<text text-anchor="middle" x="442" y="-173.298" font-family="Helvetica,sans-Serif" font-size="10.00" fill="#000000">MQTT_UnSubscribe</text>
</a>
</g>
</g>
<!-- Node4&#45;&gt;Node22 -->
<g id="edge31" class="edge">
<title>Node4&#45;&gt;Node22</title>
<path fill="none" stroke="#191970" d="M322.661,-271.533C335.356,-250.278 358.981,-215.462 388,-194.798 393.343,-190.993 399.52,-187.887 405.747,-185.373"/>
<polygon fill="#191970" stroke="#191970" points="319.599,-269.838 317.617,-280.246 325.657,-273.345 319.599,-269.838"/>
</g>
<!-- Node23 -->
<g id="node23" class="node">
<title>Node23</title>
<g id="a_node23"><a xlink:href="mqtt_8c.html#a086502e2dd36681a7fb4d9a9018cfc88" target="_top" xlink:title="MQTT ping function. ">
<polygon fill="#ffffff" stroke="#000000" points="407,-280.298 407,-299.298 477,-299.298 477,-280.298 407,-280.298"/>
<text text-anchor="middle" x="442" y="-287.298" font-family="Helvetica,sans-Serif" font-size="10.00" fill="#000000">MQTT_Ping</text>
</a>
</g>
</g>
<!-- Node4&#45;&gt;Node23 -->
<g id="edge32" class="edge">
<title>Node4&#45;&gt;Node23</title>
<path fill="none" stroke="#191970" d="M362.111,-289.798C376.95,-289.798 392.914,-289.798 406.64,-289.798"/>
<polygon fill="#191970" stroke="#191970" points="362.058,-286.298 352.058,-289.798 362.058,-293.298 362.058,-286.298"/>
</g>
<!-- Node24 -->
<g id="node24" class="node">
<title>Node24</title>
<g id="a_node24"><a xlink:href="mqtt_8c.html#a9d88fa6efb9163d4dbf9dc750a8d4ed0" target="_top" xlink:title="MQTT_Task">
<polygon fill="#ffffff" stroke="#000000" points="406,-403.298 406,-422.298 478,-422.298 478,-403.298 406,-403.298"/>
<text text-anchor="middle" x="442" y="-410.298" font-family="Helvetica,sans-Serif" font-size="10.00" fill="#000000">MQTT_Task</text>
</a>
</g>
</g>
<!-- Node4&#45;&gt;Node24 -->
<g id="edge34" class="edge">
<title>Node4&#45;&gt;Node24</title>
<path fill="none" stroke="#191970" d="M323.289,-307.963C336.437,-328.883 360.353,-363.257 388,-385.798 396.692,-392.885 407.552,-398.764 417.249,-403.208"/>
<polygon fill="#191970" stroke="#191970" points="326.242,-306.084 318.03,-299.389 320.275,-309.743 326.242,-306.084"/>
</g>
<!-- Node6 -->
<g id="node6" class="node">
<title>Node6</title>
<g id="a_node6"><a xlink:href="en61107__request_8c.html#aa3b162cf5364986ea19e831ac2b18f76" target="_top" xlink:title="en61107_received_task">
<polygon fill="#ffffff" stroke="#000000" points="532,-84.2978 532,-103.298 655,-103.298 655,-84.2978 532,-84.2978"/>
<text text-anchor="middle" x="593.5" y="-91.2978" font-family="Helvetica,sans-Serif" font-size="10.00" fill="#000000">en61107_received_task</text>
</a>
</g>
</g>
<!-- Node5&#45;&gt;Node6 -->
<g id="edge5" class="edge">
<title>Node5&#45;&gt;Node6</title>
<path fill="none" stroke="#191970" d="M490.438,-199.159C492.404,-197.828 494.272,-196.378 496,-194.798 524.474,-168.759 503.594,-141.911 532,-115.798 537.76,-110.502 544.883,-106.463 552.216,-103.388"/>
<polygon fill="#191970" stroke="#191970" points="488.328,-196.329 481.307,-204.263 491.743,-202.439 488.328,-196.329"/>
</g>
<!-- Node9 -->
<g id="node9" class="node">
<title>Node9</title>
<g id="a_node9"><a xlink:href="en61107__request_8h.html#a7384d014eb9e833f64ecf4a9f86f87be" target="_top" xlink:title="en61107_request_send">
<polygon fill="#ffffff" stroke="#000000" points="532.5,-125.298 532.5,-144.298 654.5,-144.298 654.5,-125.298 532.5,-125.298"/>
<text text-anchor="middle" x="593.5" y="-132.298" font-family="Helvetica,sans-Serif" font-size="10.00" fill="#000000">en61107_request_send</text>
</a>
</g>
</g>
<!-- Node5&#45;&gt;Node9 -->
<g id="edge8" class="edge">
<title>Node5&#45;&gt;Node9</title>
<path fill="none" stroke="#191970" d="M485.197,-200.401C488.943,-198.704 492.597,-196.838 496,-194.798 514.615,-183.636 513.819,-173.653 532,-161.798 542.647,-154.856 555.376,-148.93 566.485,-144.414"/>
<polygon fill="#191970" stroke="#191970" points="483.708,-197.229 475.793,-204.271 486.372,-203.702 483.708,-197.229"/>
</g>
<!-- Node11 -->
<g id="node11" class="node">
<title>Node11</title>
<g id="a_node11"><a xlink:href="user__main_8c.html#af2c051d5ceacd30f90c08d6f584deff2" target="_top" xlink:title="sample_timer_func">
<polygon fill="#ffffff" stroke="#000000" points="706.5,-242.298 706.5,-261.298 807.5,-261.298 807.5,-242.298 706.5,-242.298"/>
<text text-anchor="middle" x="757" y="-249.298" font-family="Helvetica,sans-Serif" font-size="10.00" fill="#000000">sample_timer_func</text>
</a>
</g>
</g>
<!-- Node5&#45;&gt;Node11 -->
<g id="edge28" class="edge">
<title>Node5&#45;&gt;Node11</title>
<path fill="none" stroke="#191970" d="M493.859,-222.3C506.333,-224.225 519.628,-226.177 532,-227.798 591.79,-235.632 660.773,-242.7 706.429,-247.104"/>
<polygon fill="#191970" stroke="#191970" points="494.032,-218.785 483.611,-220.698 492.951,-225.701 494.032,-218.785"/>
</g>
<!-- Node12 -->
<g id="node12" class="node">
<title>Node12</title>
<g id="a_node12"><a xlink:href="user__main_8h.html#a06f2b383d99fcad9d0f37d1ca2224898" target="_top" xlink:title="mqttConnectedCb">
<polygon fill="#ffffff" stroke="#000000" points="867,-242.298 867,-261.298 964,-261.298 964,-242.298 867,-242.298"/>
<text text-anchor="middle" x="915.5" y="-249.298" font-family="Helvetica,sans-Serif" font-size="10.00" fill="#000000">mqttConnectedCb</text>
</a>
</g>
</g>
<!-- Node5&#45;&gt;Node12 -->
<g id="edge25" class="edge">
<title>Node5&#45;&gt;Node12</title>
<path fill="none" stroke="#191970" d="M493.991,-213.882C567.543,-214.57 706.054,-217.959 823,-232.798 840.402,-235.006 859.417,-238.687 875.656,-242.225"/>
<polygon fill="#191970" stroke="#191970" points="493.648,-210.379 483.62,-213.799 493.592,-217.379 493.648,-210.379"/>
</g>
<!-- Node15 -->
<g id="node15" class="node">
<title>Node15</title>
<g id="a_node15"><a xlink:href="kmp__request_8c.html#a3f6b790a06b933b78f40ade5e9a16131" target="_top" xlink:title="kmp_received_task">
<polygon fill="#ffffff" stroke="#000000" points="1033.5,-40.2978 1033.5,-59.2978 1136.5,-59.2978 1136.5,-40.2978 1033.5,-40.2978"/>
<text text-anchor="middle" x="1085" y="-47.2978" font-family="Helvetica,sans-Serif" font-size="10.00" fill="#000000">kmp_received_task</text>
</a>
</g>
</g>
<!-- Node5&#45;&gt;Node15 -->
<g id="edge16" class="edge">
<title>Node5&#45;&gt;Node15</title>
<path fill="none" stroke="#191970" d="M491.505,-198.84C493.103,-197.598 494.611,-196.254 496,-194.798 534.439,-154.513 488.089,-109.036 532,-74.7978 691.915,49.8925 963.893,-13.978 1054.57,-40.2852"/>
<polygon fill="#191970" stroke="#191970" points="489.509,-195.96 482.885,-204.23 493.22,-201.896 489.509,-195.96"/>
</g>
<!-- Node17 -->
<g id="node17" class="node">
<title>Node17</title>
<g id="a_node17"><a xlink:href="kmp__request_8h.html#a3b022dcdc832786eb06126b5e6879604" target="_top" xlink:title="kmp_request_send">
<polygon fill="#ffffff" stroke="#000000" points="542.5,-318.298 542.5,-337.298 644.5,-337.298 644.5,-318.298 542.5,-318.298"/>
<text text-anchor="middle" x="593.5" y="-325.298" font-family="Helvetica,sans-Serif" font-size="10.00" fill="#000000">kmp_request_send</text>
</a>
</g>
</g>
<!-- Node5&#45;&gt;Node17 -->
<g id="edge19" class="edge">
<title>Node5&#45;&gt;Node17</title>
<path fill="none" stroke="#191970" d="M462.832,-229.473C494.622,-253.395 554.313,-298.31 580.559,-318.06"/>
<polygon fill="#191970" stroke="#191970" points="464.751,-226.537 454.656,-223.321 460.542,-232.131 464.751,-226.537"/>
</g>
<!-- Node20 -->
<g id="node20" class="node">
<title>Node20</title>
<g id="a_node20"><a xlink:href="user__main_8h.html#a53fca5688835df983e3ff1a91d387618" target="_top" xlink:title="mqttDataCb">
<polygon fill="#ffffff" stroke="#000000" points="880.5,-185.298 880.5,-204.298 950.5,-204.298 950.5,-185.298 880.5,-185.298"/>
<text text-anchor="middle" x="915.5" y="-192.298" font-family="Helvetica,sans-Serif" font-size="10.00" fill="#000000">mqttDataCb</text>
</a>
</g>
</g>
<!-- Node5&#45;&gt;Node20 -->
<g id="edge26" class="edge">
<title>Node5&#45;&gt;Node20</title>
<path fill="none" stroke="#191970" d="M493.769,-204.465C506.247,-202.571 519.566,-200.841 532,-199.798 659.895,-189.071 812.605,-191.663 880.259,-193.598"/>
<polygon fill="#191970" stroke="#191970" points="492.855,-201.066 483.524,-206.084 493.948,-207.98 492.855,-201.066"/>
</g>
<!-- Node7 -->
<g id="node7" class="node">
<title>Node7</title>
<g id="a_node7"><a xlink:href="en61107__request_8h.html#acd43242675a3f25e7c3b530eac9d8b3a" target="_top" xlink:title="en61107_request_init">
<polygon fill="#ffffff" stroke="#000000" points="859,-78.2978 859,-97.2978 972,-97.2978 972,-78.2978 859,-78.2978"/>
<text text-anchor="middle" x="915.5" y="-85.2978" font-family="Helvetica,sans-Serif" font-size="10.00" fill="#000000">en61107_request_init</text>
</a>
</g>
</g>
<!-- Node6&#45;&gt;Node7 -->
<g id="edge6" class="edge">
<title>Node6&#45;&gt;Node7</title>
<path fill="none" stroke="#191970" d="M665.464,-92.4568C723.852,-91.3689 805.031,-89.8562 858.86,-88.8532"/>
<polygon fill="#191970" stroke="#191970" points="665.137,-88.9622 655.204,-92.648 665.267,-95.961 665.137,-88.9622"/>
</g>
<!-- Node8 -->
<g id="node8" class="node">
<title>Node8</title>
<g id="a_node8"><a xlink:href="user__main_8h.html#a33113d6dedb440bd7dfa5576e325140c" target="_top" xlink:title="user_init">
<polygon fill="#ffffff" stroke="#000000" points="1328,-78.2978 1328,-97.2978 1382,-97.2978 1382,-78.2978 1328,-78.2978"/>
<text text-anchor="middle" x="1355" y="-85.2978" font-family="Helvetica,sans-Serif" font-size="10.00" fill="#000000">user_init</text>
</a>
</g>
</g>
<!-- Node7&#45;&gt;Node8 -->
<g id="edge7" class="edge">
<title>Node7&#45;&gt;Node8</title>
<path fill="none" stroke="#191970" d="M982.173,-87.7978C1080.41,-87.7978 1259.74,-87.7978 1327.81,-87.7978"/>
<polygon fill="#191970" stroke="#191970" points="982.057,-84.2979 972.057,-87.7978 982.057,-91.2979 982.057,-84.2979"/>
</g>
<!-- Node10 -->
<g id="node10" class="node">
<title>Node10</title>
<g id="a_node10"><a xlink:href="en61107__request_8h.html#a6379eaf88ea35baaf2a3ab8a0ae66fdb" target="_top" xlink:title="en61107_receive_timeout\l_timer_func">
<polygon fill="#ffffff" stroke="#000000" points="691,-116.798 691,-146.798 823,-146.798 823,-116.798 691,-116.798"/>
<text text-anchor="start" x="699" y="-134.798" font-family="Helvetica,sans-Serif" font-size="10.00" fill="#000000">en61107_receive_timeout</text>
<text text-anchor="middle" x="757" y="-123.798" font-family="Helvetica,sans-Serif" font-size="10.00" fill="#000000">_timer_func</text>
</a>
</g>
</g>
<!-- Node9&#45;&gt;Node10 -->
<g id="edge9" class="edge">
<title>Node9&#45;&gt;Node10</title>
<path fill="none" stroke="#191970" d="M664.905,-126.786C673.555,-126.546 682.363,-126.406 690.931,-126.372"/>
<polygon fill="#191970" stroke="#191970" points="664.728,-123.29 654.847,-127.113 664.955,-130.286 664.728,-123.29"/>
</g>
<!-- Node9&#45;&gt;Node11 -->
<g id="edge11" class="edge">
<title>Node9&#45;&gt;Node11</title>
<path fill="none" stroke="#191970" d="M615.272,-150.378C649.556,-174.911 715.128,-221.834 743.435,-242.091"/>
<polygon fill="#191970" stroke="#191970" points="617.049,-147.346 606.88,-144.372 612.975,-153.038 617.049,-147.346"/>
</g>
<!-- Node10&#45;&gt;Node9 -->
<g id="edge10" class="edge">
<title>Node10&#45;&gt;Node9</title>
<path fill="none" stroke="#191970" d="M680.786,-139.932C672.092,-140.135 663.313,-140.237 654.847,-140.232"/>
<polygon fill="#191970" stroke="#191970" points="681.033,-143.427 690.931,-139.648 680.837,-136.43 681.033,-143.427"/>
</g>
<!-- Node11&#45;&gt;Node12 -->
<g id="edge12" class="edge">
<title>Node11&#45;&gt;Node12</title>
<path fill="none" stroke="#191970" d="M818.007,-251.798C834.146,-251.798 851.351,-251.798 866.745,-251.798"/>
<polygon fill="#191970" stroke="#191970" points="817.586,-248.298 807.586,-251.798 817.586,-255.298 817.586,-248.298"/>
</g>
<!-- Node13 -->
<g id="node13" class="node">
<title>Node13</title>
<g id="a_node13"><a xlink:href="user__main_8c.html#a245ec00253f410a8804988bf40e1037e" target="_top" xlink:title="sample_mode_timer_func">
<polygon fill="#ffffff" stroke="#000000" points="1019,-242.298 1019,-261.298 1151,-261.298 1151,-242.298 1019,-242.298"/>
<text text-anchor="middle" x="1085" y="-249.298" font-family="Helvetica,sans-Serif" font-size="10.00" fill="#000000">sample_mode_timer_func</text>
</a>
</g>
</g>
<!-- Node12&#45;&gt;Node13 -->
<g id="edge13" class="edge">
<title>Node12&#45;&gt;Node13</title>
<path fill="none" stroke="#191970" d="M974.293,-251.798C988.633,-251.798 1004.07,-251.798 1018.73,-251.798"/>
<polygon fill="#191970" stroke="#191970" points="974.072,-248.298 964.072,-251.798 974.072,-255.298 974.072,-248.298"/>
</g>
<!-- Node14 -->
<g id="node14" class="node">
<title>Node14</title>
<g id="a_node14"><a xlink:href="user__main_8h.html#a3671381db669a16e8f6a4bf3dfb9a441" target="_top" xlink:title="system_init_done">
<polygon fill="#ffffff" stroke="#000000" points="1198,-242.298 1198,-261.298 1292,-261.298 1292,-242.298 1198,-242.298"/>
<text text-anchor="middle" x="1245" y="-249.298" font-family="Helvetica,sans-Serif" font-size="10.00" fill="#000000">system_init_done</text>
</a>
</g>
</g>
<!-- Node13&#45;&gt;Node14 -->
<g id="edge14" class="edge">
<title>Node13&#45;&gt;Node14</title>
<path fill="none" stroke="#191970" d="M1161.36,-251.798C1173.76,-251.798 1186.28,-251.798 1197.72,-251.798"/>
<polygon fill="#191970" stroke="#191970" points="1161,-248.298 1151,-251.798 1161,-255.298 1161,-248.298"/>
</g>
<!-- Node14&#45;&gt;Node8 -->
<g id="edge15" class="edge">
<title>Node14&#45;&gt;Node8</title>
<path fill="none" stroke="#191970" d="M1257.41,-233.295C1280.86,-198.337 1330.9,-123.725 1348.62,-97.309"/>
<polygon fill="#191970" stroke="#191970" points="1254.22,-231.775 1251.55,-242.03 1260.03,-235.675 1254.22,-231.775"/>
</g>
<!-- Node16 -->
<g id="node16" class="node">
<title>Node16</title>
<g id="a_node16"><a xlink:href="kmp__request_8h.html#a048753ff9d6b448e2dcd8c85db0d6873" target="_top" xlink:title="kmp_request_init">
<polygon fill="#ffffff" stroke="#000000" points="1198.5,-40.2978 1198.5,-59.2978 1291.5,-59.2978 1291.5,-40.2978 1198.5,-40.2978"/>
<text text-anchor="middle" x="1245" y="-47.2978" font-family="Helvetica,sans-Serif" font-size="10.00" fill="#000000">kmp_request_init</text>
</a>
</g>
</g>
<!-- Node15&#45;&gt;Node16 -->
<g id="edge17" class="edge">
<title>Node15&#45;&gt;Node16</title>
<path fill="none" stroke="#191970" d="M1146.98,-49.7978C1164.1,-49.7978 1182.38,-49.7978 1198.46,-49.7978"/>
<polygon fill="#191970" stroke="#191970" points="1146.51,-46.2979 1136.51,-49.7978 1146.51,-53.2979 1146.51,-46.2979"/>
</g>
<!-- Node16&#45;&gt;Node8 -->
<g id="edge18" class="edge">
<title>Node16&#45;&gt;Node8</title>
<path fill="none" stroke="#191970" d="M1282.63,-62.7963C1297.4,-67.8999 1314.04,-73.6472 1327.63,-78.3435"/>
<polygon fill="#191970" stroke="#191970" points="1283.35,-59.3439 1272.76,-59.3868 1281.07,-65.9602 1283.35,-59.3439"/>
</g>
<!-- Node17&#45;&gt;Node11 -->
<g id="edge22" class="edge">
<title>Node17&#45;&gt;Node11</title>
<path fill="none" stroke="#191970" d="M634.234,-314.369C641.381,-311.329 648.579,-307.797 655,-303.798 673.424,-292.323 672.069,-281.415 691,-270.798 697.864,-266.948 705.575,-263.821 713.241,-261.299"/>
<polygon fill="#191970" stroke="#191970" points="632.591,-311.256 624.596,-318.208 635.181,-317.759 632.591,-311.256"/>
</g>
<!-- Node18 -->
<g id="node18" class="node">
<title>Node18</title>
<g id="a_node18"><a xlink:href="kmp__request_8c.html#a0977a4640a97d389ac3b0fef0ba7a9b6" target="_top" xlink:title="kmp_receive_timeout\l_timer_func">
<polygon fill="#ffffff" stroke="#000000" points="701,-280.798 701,-310.798 813,-310.798 813,-280.798 701,-280.798"/>
<text text-anchor="start" x="709" y="-298.798" font-family="Helvetica,sans-Serif" font-size="10.00" fill="#000000">kmp_receive_timeout</text>
<text text-anchor="middle" x="757" y="-287.798" font-family="Helvetica,sans-Serif" font-size="10.00" fill="#000000">_timer_func</text>
</a>
</g>
</g>
<!-- Node17&#45;&gt;Node18 -->
<g id="edge20" class="edge">
<title>Node17&#45;&gt;Node18</title>
<path fill="none" stroke="#191970" d="M627.093,-315.646C648.282,-310.322 676.179,-304.571 700.688,-300.368"/>
<polygon fill="#191970" stroke="#191970" points="626.062,-312.298 617.274,-318.217 627.835,-319.07 626.062,-312.298"/>
</g>
<!-- Node19 -->
<g id="node19" class="node">
<title>Node19</title>
<g id="a_node19"><a xlink:href="user__main_8c.html#a3648c609e8dd286eb90285b08b150362" target="_top" xlink:title="kmp_request_send_timer_func">
<polygon fill="#ffffff" stroke="#000000" points="1008,-305.298 1008,-324.298 1162,-324.298 1162,-305.298 1008,-305.298"/>
<text text-anchor="middle" x="1085" y="-312.298" font-family="Helvetica,sans-Serif" font-size="10.00" fill="#000000">kmp_request_send_timer_func</text>
</a>
</g>
</g>
<!-- Node17&#45;&gt;Node19 -->
<g id="edge23" class="edge">
<title>Node17&#45;&gt;Node19</title>
<path fill="none" stroke="#191970" d="M654.96,-326.172C744.375,-323.807 910.269,-319.419 1007.8,-316.84"/>
<polygon fill="#191970" stroke="#191970" points="654.612,-322.68 644.708,-326.443 654.797,-329.678 654.612,-322.68"/>
</g>
<!-- Node18&#45;&gt;Node17 -->
<g id="edge21" class="edge">
<title>Node18&#45;&gt;Node17</title>
<path fill="none" stroke="#191970" d="M701.468,-313.098C683.12,-317.15 662.8,-321.088 644.784,-324.075"/>
<polygon fill="#191970" stroke="#191970" points="702.453,-316.464 711.432,-310.84 700.906,-309.637 702.453,-316.464"/>
</g>
<!-- Node19&#45;&gt;Node14 -->
<g id="edge24" class="edge">
<title>Node19&#45;&gt;Node14</title>
<path fill="none" stroke="#191970" d="M1118.7,-301.529C1149.25,-289.501 1193.53,-272.063 1220.73,-261.353"/>
<polygon fill="#191970" stroke="#191970" points="1117.32,-298.309 1109.3,-305.229 1119.89,-304.822 1117.32,-298.309"/>
</g>
<!-- Node20&#45;&gt;Node13 -->
<g id="edge27" class="edge">
<title>Node20&#45;&gt;Node13</title>
<path fill="none" stroke="#191970" d="M953.539,-207.59C984.756,-218.088 1028.27,-232.721 1056.54,-242.226"/>
<polygon fill="#191970" stroke="#191970" points="954.465,-204.208 943.87,-204.338 952.233,-210.843 954.465,-204.208"/>
</g>
<!-- Node21&#45;&gt;Node12 -->
<g id="edge30" class="edge">
<title>Node21&#45;&gt;Node12</title>
<path fill="none" stroke="#191970" d="M777.39,-361.732C790.861,-350.753 808.617,-335.569 823,-320.798 840.627,-302.695 838.898,-292.106 859,-276.798 867.363,-270.429 877.603,-265.273 887.057,-261.334"/>
<polygon fill="#191970" stroke="#191970" points="774.833,-359.298 769.235,-368.293 779.221,-364.752 774.833,-359.298"/>
</g>
<!-- Node23&#45;&gt;Node11 -->
<g id="edge33" class="edge">
<title>Node23&#45;&gt;Node11</title>
<path fill="none" stroke="#191970" d="M487.206,-284.344C545.31,-277.335 645.898,-265.201 706.469,-257.894"/>
<polygon fill="#191970" stroke="#191970" points="486.726,-280.877 477.218,-285.549 487.565,-287.826 486.726,-280.877"/>
</g>
<!-- Node25 -->
<g id="node25" class="node">
<title>Node25</title>
<g id="a_node25"><a xlink:href="mqtt_8c.html#a82303094af675136988bb2be5e92fc5b" target="_top" xlink:title="MQTT initialization mqtt client function. ">
<polygon fill="#ffffff" stroke="#000000" points="871,-286.298 871,-305.298 960,-305.298 960,-286.298 871,-286.298"/>
<text text-anchor="middle" x="915.5" y="-293.298" font-family="Helvetica,sans-Serif" font-size="10.00" fill="#000000">MQTT_InitClient</text>
</a>
</g>
</g>
<!-- Node24&#45;&gt;Node25 -->
<g id="edge35" class="edge">
<title>Node24&#45;&gt;Node25</title>
<path fill="none" stroke="#191970" d="M488.272,-421.753C562.749,-433.852 712.077,-448.428 823,-396.798 866.113,-376.73 898.319,-326.373 910.347,-305.302"/>
<polygon fill="#191970" stroke="#191970" points="488.714,-418.278 478.272,-420.069 487.552,-425.181 488.714,-418.278"/>
</g>
<!-- Node25&#45;&gt;Node13 -->
<g id="edge36" class="edge">
<title>Node25&#45;&gt;Node13</title>
<path fill="none" stroke="#191970" d="M961.965,-283.736C989.15,-276.679 1022.99,-267.895 1048.29,-261.326"/>
<polygon fill="#191970" stroke="#191970" points="961.079,-280.35 952.279,-286.25 962.838,-287.125 961.079,-280.35"/>
</g>
</g>
</svg>
