<?xml version="1.0" encoding="UTF-8" standalone="no"?>
<!DOCTYPE svg PUBLIC "-//W3C//DTD SVG 1.1//EN"
 "http://www.w3.org/Graphics/SVG/1.1/DTD/svg11.dtd">
<!-- Generated by graphviz version 2.40.1 (20161225.0304)
 -->
<!-- Title: PROTO_Init Pages: 1 -->
<svg width="779pt" height="237pt"
 viewBox="0.00 0.00 779.00 237.00" xmlns="http://www.w3.org/2000/svg" xmlns:xlink="http://www.w3.org/1999/xlink">
<g id="graph0" class="graph" transform="scale(1 1) rotate(0) translate(4 233)">
<title>PROTO_Init</title>
<polygon fill="#ffffff" stroke="transparent" points="-4,4 -4,-233 775,-233 775,4 -4,4"/>
<!-- Node23 -->
<g id="node1" class="node">
<title>Node23</title>
<polygon fill="#bfbfbf" stroke="#000000" points="0,-76.5 0,-95.5 71,-95.5 71,-76.5 0,-76.5"/>
<text text-anchor="middle" x="35.5" y="-83.5" font-family="Helvetica,sans-Serif" font-size="10.00" fill="#000000">PROTO_Init</text>
</g>
<!-- Node24 -->
<g id="node2" class="node">
<title>Node24</title>
<g id="a_node2"><a xlink:href="proto_8c.html#a4ce0ecd80c57cb13f47a2725036451af" target="_top" xlink:title="PROTO_ParseRb">
<polygon fill="#ffffff" stroke="#000000" points="107,-76.5 107,-95.5 204,-95.5 204,-76.5 107,-76.5"/>
<text text-anchor="middle" x="155.5" y="-83.5" font-family="Helvetica,sans-Serif" font-size="10.00" fill="#000000">PROTO_ParseRb</text>
</a>
</g>
</g>
<!-- Node23&#45;&gt;Node24 -->
<g id="edge1" class="edge">
<title>Node23&#45;&gt;Node24</title>
<path fill="none" stroke="#191970" d="M81.4546,-86C89.7687,-86 98.4641,-86 106.8522,-86"/>
<polygon fill="#191970" stroke="#191970" points="81.1791,-82.5001 71.1791,-86 81.179,-89.5001 81.1791,-82.5001"/>
</g>
<!-- Node25 -->
<g id="node3" class="node">
<title>Node25</title>
<g id="a_node3"><a xlink:href="queue_8c.html#acf070d5db9067c0b9598dec844313ae5" target="_top" xlink:title="QUEUE_Gets">
<polygon fill="#ffffff" stroke="#000000" points="240,-76.5 240,-95.5 319,-95.5 319,-76.5 240,-76.5"/>
<text text-anchor="middle" x="279.5" y="-83.5" font-family="Helvetica,sans-Serif" font-size="10.00" fill="#000000">QUEUE_Gets</text>
</a>
</g>
</g>
<!-- Node24&#45;&gt;Node25 -->
<g id="edge2" class="edge">
<title>Node24&#45;&gt;Node25</title>
<path fill="none" stroke="#191970" d="M214.2337,-86C222.8896,-86 231.6306,-86 239.7793,-86"/>
<polygon fill="#191970" stroke="#191970" points="214.1522,-82.5001 204.1522,-86 214.1522,-89.5001 214.1522,-82.5001"/>
</g>
<!-- Node26 -->
<g id="node4" class="node">
<title>Node26</title>
<g id="a_node4"><a xlink:href="mqtt_8c.html#a848a6701c4c7ec3432e38ea57c003aad" target="_top" xlink:title="MQTT publish function. ">
<polygon fill="#ffffff" stroke="#000000" points="367.5,-152.5 367.5,-171.5 450.5,-171.5 450.5,-152.5 367.5,-152.5"/>
<text text-anchor="middle" x="409" y="-159.5" font-family="Helvetica,sans-Serif" font-size="10.00" fill="#000000">MQTT_Publish</text>
</a>
</g>
</g>
<!-- Node25&#45;&gt;Node26 -->
<g id="edge3" class="edge">
<title>Node25&#45;&gt;Node26</title>
<path fill="none" stroke="#191970" d="M297.8014,-102.3883C312.4472,-114.8439 333.9503,-131.7047 355,-143 361.7431,-146.6183 369.3151,-149.7789 376.6074,-152.4298"/>
<polygon fill="#191970" stroke="#191970" points="299.872,-99.551 290.0257,-95.6391 295.2834,-104.8373 299.872,-99.551"/>
</g>
<!-- Node34 -->
<g id="node12" class="node">
<title>Node34</title>
<g id="a_node12"><a xlink:href="mqtt_8c.html#a86f8adfe29d6ec8bb5070fd030540d2f" target="_top" xlink:title="MQTT subscibe function. ">
<polygon fill="#ffffff" stroke="#000000" points="361.5,-114.5 361.5,-133.5 456.5,-133.5 456.5,-114.5 361.5,-114.5"/>
<text text-anchor="middle" x="409" y="-121.5" font-family="Helvetica,sans-Serif" font-size="10.00" fill="#000000">MQTT_Subscribe</text>
</a>
</g>
</g>
<!-- Node25&#45;&gt;Node34 -->
<g id="edge12" class="edge">
<title>Node25&#45;&gt;Node34</title>
<path fill="none" stroke="#191970" d="M322.219,-98.5353C339.836,-103.7048 359.9232,-109.5991 376.3321,-114.4141"/>
<polygon fill="#191970" stroke="#191970" points="322.7592,-95.0463 312.1783,-95.589 320.7882,-101.7631 322.7592,-95.0463"/>
</g>
<!-- Node35 -->
<g id="node13" class="node">
<title>Node35</title>
<g id="a_node13"><a xlink:href="mqtt_8c.html#a7f28cd912dae4c1386c10026a267b579" target="_top" xlink:title="MQTT un&#45;subscibe function. ">
<polygon fill="#ffffff" stroke="#000000" points="355,-76.5 355,-95.5 463,-95.5 463,-76.5 355,-76.5"/>
<text text-anchor="middle" x="409" y="-83.5" font-family="Helvetica,sans-Serif" font-size="10.00" fill="#000000">MQTT_UnSubscribe</text>
</a>
</g>
</g>
<!-- Node25&#45;&gt;Node35 -->
<g id="edge13" class="edge">
<title>Node25&#45;&gt;Node35</title>
<path fill="none" stroke="#191970" d="M329.1253,-86C337.5601,-86 346.3577,-86 354.901,-86"/>
<polygon fill="#191970" stroke="#191970" points="329.058,-82.5001 319.0579,-86 329.0579,-89.5001 329.058,-82.5001"/>
</g>
<!-- Node36 -->
<g id="node14" class="node">
<title>Node36</title>
<g id="a_node14"><a xlink:href="mqtt_8c.html#a086502e2dd36681a7fb4d9a9018cfc88" target="_top" xlink:title="MQTT ping function. ">
<polygon fill="#ffffff" stroke="#000000" points="374,-38.5 374,-57.5 444,-57.5 444,-38.5 374,-38.5"/>
<text text-anchor="middle" x="409" y="-45.5" font-family="Helvetica,sans-Serif" font-size="10.00" fill="#000000">MQTT_Ping</text>
</a>
</g>
</g>
<!-- Node25&#45;&gt;Node36 -->
<g id="edge14" class="edge">
<title>Node25&#45;&gt;Node36</title>
<path fill="none" stroke="#191970" d="M322.219,-73.4647C339.836,-68.2952 359.9232,-62.4009 376.3321,-57.5859"/>
<polygon fill="#191970" stroke="#191970" points="320.7882,-70.2369 312.1783,-76.411 322.7592,-76.9537 320.7882,-70.2369"/>
</g>
<!-- Node37 -->
<g id="node15" class="node">
<title>Node37</title>
<g id="a_node15"><a xlink:href="mqtt_8c.html#a9d88fa6efb9163d4dbf9dc750a8d4ed0" target="_top" xlink:title="MQTT_Task">
<polygon fill="#ffffff" stroke="#000000" points="373,-.5 373,-19.5 445,-19.5 445,-.5 373,-.5"/>
<text text-anchor="middle" x="409" y="-7.5" font-family="Helvetica,sans-Serif" font-size="10.00" fill="#000000">MQTT_Task</text>
</a>
</g>
</g>
<!-- Node25&#45;&gt;Node37 -->
<g id="edge15" class="edge">
<title>Node25&#45;&gt;Node37</title>
<path fill="none" stroke="#191970" d="M297.8014,-69.6117C312.4472,-57.1561 333.9503,-40.2953 355,-29 361.7431,-25.3817 369.3151,-22.2211 376.6074,-19.5702"/>
<polygon fill="#191970" stroke="#191970" points="295.2834,-67.1627 290.0257,-76.3609 299.872,-72.449 295.2834,-67.1627"/>
</g>
<!-- Node27 -->
<g id="node5" class="node">
<title>Node27</title>
<g id="a_node5"><a xlink:href="en61107__request_8c.html#aa3b162cf5364986ea19e831ac2b18f76" target="_top" xlink:title="en61107_received_task">
<polygon fill="#ffffff" stroke="#000000" points="499,-209.5 499,-228.5 622,-228.5 622,-209.5 499,-209.5"/>
<text text-anchor="middle" x="560.5" y="-216.5" font-family="Helvetica,sans-Serif" font-size="10.00" fill="#000000">en61107_received_task</text>
</a>
</g>
</g>
<!-- Node26&#45;&gt;Node27 -->
<g id="edge4" class="edge">
<title>Node26&#45;&gt;Node27</title>
<path fill="none" stroke="#191970" d="M439.4287,-175.742C456.7265,-183.3273 478.886,-192.6674 499,-200 508.1342,-203.3299 518.1629,-206.5909 527.4231,-209.4452"/>
<polygon fill="#191970" stroke="#191970" points="440.4191,-172.3529 429.8581,-171.5071 437.5866,-178.7542 440.4191,-172.3529"/>
</g>
<!-- Node29 -->
<g id="node7" class="node">
<title>Node29</title>
<g id="a_node7"><a xlink:href="en61107__request_8h.html#a7384d014eb9e833f64ecf4a9f86f87be" target="_top" xlink:title="en61107_request_send">
<polygon fill="#ffffff" stroke="#000000" points="499.5,-171.5 499.5,-190.5 621.5,-190.5 621.5,-171.5 499.5,-171.5"/>
<text text-anchor="middle" x="560.5" y="-178.5" font-family="Helvetica,sans-Serif" font-size="10.00" fill="#000000">en61107_request_send</text>
</a>
</g>
</g>
<!-- Node26&#45;&gt;Node29 -->
<g id="edge6" class="edge">
<title>Node26&#45;&gt;Node29</title>
<path fill="none" stroke="#191970" d="M460.9151,-168.5108C473.2606,-170.0591 486.5467,-171.7253 499.2655,-173.3204"/>
<polygon fill="#191970" stroke="#191970" points="461.1569,-165.0138 450.7991,-167.2421 460.2858,-171.9594 461.1569,-165.0138"/>
</g>
<!-- Node30 -->
<g id="node8" class="node">
<title>Node30</title>
<g id="a_node8"><a xlink:href="kmp__request_8c.html#a3f6b790a06b933b78f40ade5e9a16131" target="_top" xlink:title="kmp_received_task">
<polygon fill="#ffffff" stroke="#000000" points="509,-133.5 509,-152.5 612,-152.5 612,-133.5 509,-133.5"/>
<text text-anchor="middle" x="560.5" y="-140.5" font-family="Helvetica,sans-Serif" font-size="10.00" fill="#000000">kmp_received_task</text>
</a>
</g>
</g>
<!-- Node26&#45;&gt;Node30 -->
<g id="edge7" class="edge">
<title>Node26&#45;&gt;Node30</title>
<path fill="none" stroke="#191970" d="M460.757,-155.509C476.2871,-153.5614 493.3177,-151.4255 508.8414,-149.4786"/>
<polygon fill="#191970" stroke="#191970" points="460.2858,-152.0406 450.7991,-156.7579 461.1569,-158.9862 460.2858,-152.0406"/>
</g>
<!-- Node32 -->
<g id="node10" class="node">
<title>Node32</title>
<g id="a_node10"><a xlink:href="kmp__request_8h.html#a3b022dcdc832786eb06126b5e6879604" target="_top" xlink:title="kmp_request_send">
<polygon fill="#ffffff" stroke="#000000" points="509.5,-92.5 509.5,-111.5 611.5,-111.5 611.5,-92.5 509.5,-92.5"/>
<text text-anchor="middle" x="560.5" y="-99.5" font-family="Helvetica,sans-Serif" font-size="10.00" fill="#000000">kmp_request_send</text>
</a>
</g>
</g>
<!-- Node26&#45;&gt;Node32 -->
<g id="edge9" class="edge">
<title>Node26&#45;&gt;Node32</title>
<path fill="none" stroke="#191970" d="M448.2585,-148.9533C453.264,-147.0662 458.2829,-145.0613 463,-143 479.578,-135.7558 482.441,-131.2874 499,-124 509.2752,-119.478 520.8006,-115.1633 531.0726,-111.5719"/>
<polygon fill="#191970" stroke="#191970" points="446.932,-145.7114 438.7322,-152.4207 449.3262,-152.2893 446.932,-145.7114"/>
</g>
<!-- Node28 -->
<g id="node6" class="node">
<title>Node28</title>
<g id="a_node6"><a xlink:href="en61107__request_8h.html#acd43242675a3f25e7c3b530eac9d8b3a" target="_top" xlink:title="en61107_request_init">
<polygon fill="#ffffff" stroke="#000000" points="658,-209.5 658,-228.5 771,-228.5 771,-209.5 658,-209.5"/>
<text text-anchor="middle" x="714.5" y="-216.5" font-family="Helvetica,sans-Serif" font-size="10.00" fill="#000000">en61107_request_init</text>
</a>
</g>
</g>
<!-- Node27&#45;&gt;Node28 -->
<g id="edge5" class="edge">
<title>Node27&#45;&gt;Node28</title>
<path fill="none" stroke="#191970" d="M632.5049,-219C640.9673,-219 649.5105,-219 657.7234,-219"/>
<polygon fill="#191970" stroke="#191970" points="632.2504,-215.5001 622.2504,-219 632.2503,-222.5001 632.2504,-215.5001"/>
</g>
<!-- Node31 -->
<g id="node9" class="node">
<title>Node31</title>
<g id="a_node9"><a xlink:href="kmp__request_8h.html#a048753ff9d6b448e2dcd8c85db0d6873" target="_top" xlink:title="kmp_request_init">
<polygon fill="#ffffff" stroke="#000000" points="668,-136.5 668,-155.5 761,-155.5 761,-136.5 668,-136.5"/>
<text text-anchor="middle" x="714.5" y="-143.5" font-family="Helvetica,sans-Serif" font-size="10.00" fill="#000000">kmp_request_init</text>
</a>
</g>
</g>
<!-- Node30&#45;&gt;Node31 -->
<g id="edge8" class="edge">
<title>Node30&#45;&gt;Node31</title>
<path fill="none" stroke="#191970" d="M622.5219,-144.2082C637.6483,-144.5029 653.5768,-144.8132 667.8492,-145.0912"/>
<polygon fill="#191970" stroke="#191970" points="622.2745,-140.7028 612.2082,-144.0073 622.1381,-147.7015 622.2745,-140.7028"/>
</g>
<!-- Node33 -->
<g id="node11" class="node">
<title>Node33</title>
<g id="a_node11"><a xlink:href="kmp__request_8c.html#a0977a4640a97d389ac3b0fef0ba7a9b6" target="_top" xlink:title="kmp_receive_timeout\l_timer_func">
<polygon fill="#ffffff" stroke="#000000" points="658.5,-87 658.5,-117 770.5,-117 770.5,-87 658.5,-87"/>
<text text-anchor="start" x="666.5" y="-105" font-family="Helvetica,sans-Serif" font-size="10.00" fill="#000000">kmp_receive_timeout</text>
<text text-anchor="middle" x="714.5" y="-94" font-family="Helvetica,sans-Serif" font-size="10.00" fill="#000000">_timer_func</text>
</a>
</g>
</g>
<!-- Node32&#45;&gt;Node33 -->
<g id="edge10" class="edge">
<title>Node32&#45;&gt;Node33</title>
<path fill="none" stroke="#191970" d="M621.7811,-95.3766C633.8715,-95.1794 646.5021,-95.2126 658.4106,-95.4763"/>
<polygon fill="#191970" stroke="#191970" points="621.7004,-91.8774 611.7798,-95.5965 621.8543,-98.8757 621.7004,-91.8774"/>
</g>
<!-- Node33&#45;&gt;Node32 -->
<g id="edge11" class="edge">
<title>Node33&#45;&gt;Node32</title>
<path fill="none" stroke="#191970" d="M648.2653,-108.691C636.0514,-108.8256 623.4689,-108.7298 611.7798,-108.4035"/>
<polygon fill="#191970" stroke="#191970" points="648.4697,-112.1882 658.4106,-108.5237 648.3542,-105.1892 648.4697,-112.1882"/>
</g>
<!-- Node38 -->
<g id="node16" class="node">
<title>Node38</title>
<g id="a_node16"><a xlink:href="mqtt_8c.html#a25cb7ac079d1d119250dac075c45acf1" target="_top" xlink:title="MQTT initialization mqtt client function. ">
<polygon fill="#ffffff" stroke="#000000" points="516,-.5 516,-19.5 605,-19.5 605,-.5 516,-.5"/>
<text text-anchor="middle" x="560.5" y="-7.5" font-family="Helvetica,sans-Serif" font-size="10.00" fill="#000000">MQTT_InitClient</text>
</a>
</g>
</g>
<!-- Node37&#45;&gt;Node38 -->
<g id="edge16" class="edge">
<title>Node37&#45;&gt;Node38</title>
<path fill="none" stroke="#191970" d="M455.3319,-10C474.5651,-10 496.794,-10 515.8469,-10"/>
<polygon fill="#191970" stroke="#191970" points="455.2881,-6.5001 445.288,-10 455.288,-13.5001 455.2881,-6.5001"/>
</g>
</g>
</svg>
