<?xml version="1.0" encoding="UTF-8" standalone="no"?>
<!DOCTYPE svg PUBLIC "-//W3C//DTD SVG 1.1//EN"
 "http://www.w3.org/Graphics/SVG/1.1/DTD/svg11.dtd">
<!-- Generated by graphviz version 2.41.20170323.1842 (20170323.1842)
 -->
<!-- Title: mqtt/queue.c Pages: 1 -->
<svg width="1826pt" height="308pt"
 viewBox="0.00 0.00 1825.50 308.00" xmlns="http://www.w3.org/2000/svg" xmlns:xlink="http://www.w3.org/1999/xlink">
<g id="graph0" class="graph" transform="scale(1 1) rotate(0) translate(4 304)">
<title>mqtt/queue.c</title>
<polygon fill="#ffffff" stroke="transparent" points="-4,4 -4,-304 1821.5,-304 1821.5,4 -4,4"/>
<!-- Node0 -->
<g id="node1" class="node">
<title>Node0</title>
<polygon fill="#bfbfbf" stroke="#000000" points="958.5,-280.5 958.5,-299.5 1032.5,-299.5 1032.5,-280.5 958.5,-280.5"/>
<text text-anchor="middle" x="995.5" y="-287.5" font-family="Helvetica,sans-Serif" font-size="10.00" fill="#000000">mqtt/queue.c</text>
</g>
<!-- Node1 -->
<g id="node2" class="node">
<title>Node1</title>
<polygon fill="#ffffff" stroke="#bfbfbf" points="914,-224.5 914,-243.5 967,-243.5 967,-224.5 914,-224.5"/>
<text text-anchor="middle" x="940.5" y="-231.5" font-family="Helvetica,sans-Serif" font-size="10.00" fill="#000000">queue.h</text>
</g>
<!-- Node0&#45;&gt;Node1 -->
<g id="edge1" class="edge">
<title>Node0&#45;&gt;Node1</title>
<path fill="none" stroke="#191970" d="M985.9197,-280.2455C977.9542,-272.1352 966.4359,-260.4075 956.9921,-250.7919"/>
<polygon fill="#191970" stroke="#191970" points="959.4747,-248.3247 949.9705,-243.6427 954.4805,-253.2297 959.4747,-248.3247"/>
</g>
<!-- Node2 -->
<g id="node3" class="node">
<title>Node2</title>
<g id="a_node3"><a xlink:href="proto_8h.html" target="_top" xlink:title="proto.h">
<polygon fill="#ffffff" stroke="#000000" points="1055.5,-224.5 1055.5,-243.5 1103.5,-243.5 1103.5,-224.5 1055.5,-224.5"/>
<text text-anchor="middle" x="1079.5" y="-231.5" font-family="Helvetica,sans-Serif" font-size="10.00" fill="#000000">proto.h</text>
</a>
</g>
</g>
<!-- Node0&#45;&gt;Node2 -->
<g id="edge2" class="edge">
<title>Node0&#45;&gt;Node2</title>
<path fill="none" stroke="#191970" d="M1010.1317,-280.2455C1022.8994,-271.7337 1041.6438,-259.2375 1056.4299,-249.3801"/>
<polygon fill="#191970" stroke="#191970" points="1058.6569,-252.1019 1065.036,-243.6427 1054.774,-246.2775 1058.6569,-252.1019"/>
</g>
<!-- Node6 -->
<g id="node7" class="node">
<title>Node6</title>
<g id="a_node7"><a xlink:href="esp8266_8h.html" target="_top" xlink:title="esp8266.h">
<polygon fill="#ffffff" stroke="#000000" points="964,-112.5 964,-131.5 1027,-131.5 1027,-112.5 964,-112.5"/>
<text text-anchor="middle" x="995.5" y="-119.5" font-family="Helvetica,sans-Serif" font-size="10.00" fill="#000000">esp8266.h</text>
</a>
</g>
</g>
<!-- Node0&#45;&gt;Node6 -->
<g id="edge35" class="edge">
<title>Node0&#45;&gt;Node6</title>
<path fill="none" stroke="#191970" d="M995.5,-280.4862C995.5,-253.9293 995.5,-178.5651 995.5,-142.1655"/>
<polygon fill="#191970" stroke="#191970" points="999.0001,-141.8278 995.5,-131.8279 992.0001,-141.8279 999.0001,-141.8278"/>
</g>
<!-- Node3 -->
<g id="node4" class="node">
<title>Node3</title>
<polygon fill="#ffffff" stroke="#bfbfbf" points="1769.5,-56.5 1769.5,-75.5 1817.5,-75.5 1817.5,-56.5 1769.5,-56.5"/>
<text text-anchor="middle" x="1793.5" y="-63.5" font-family="Helvetica,sans-Serif" font-size="10.00" fill="#000000">stdlib.h</text>
</g>
<!-- Node2&#45;&gt;Node3 -->
<g id="edge3" class="edge">
<title>Node2&#45;&gt;Node3</title>
<path fill="none" stroke="#191970" d="M1103.7701,-228.9781C1191.1413,-210.7721 1497.8546,-145.76 1759.7152,-76.0886"/>
<polygon fill="#191970" stroke="#191970" points="1760.6428,-79.4636 1769.4023,-73.5036 1758.8379,-72.7003 1760.6428,-79.4636"/>
</g>
<!-- Node4 -->
<g id="node5" class="node">
<title>Node4</title>
<g id="a_node5"><a xlink:href="typedef_8h.html" target="_top" xlink:title="typedef.h">
<polygon fill="#ffffff" stroke="#000000" points="1057.5,-112.5 1057.5,-131.5 1115.5,-131.5 1115.5,-112.5 1057.5,-112.5"/>
<text text-anchor="middle" x="1086.5" y="-119.5" font-family="Helvetica,sans-Serif" font-size="10.00" fill="#000000">typedef.h</text>
</a>
</g>
</g>
<!-- Node2&#45;&gt;Node4 -->
<g id="edge4" class="edge">
<title>Node2&#45;&gt;Node4</title>
<path fill="none" stroke="#191970" d="M1081.9865,-224.2105C1084.2014,-214.9529 1087.2755,-200.6354 1088.5,-188 1089.9881,-172.6444 1089.3589,-155.1941 1088.4273,-142.095"/>
<polygon fill="#191970" stroke="#191970" points="1091.8934,-141.5412 1087.5763,-131.8658 1084.9175,-142.1216 1091.8934,-141.5412"/>
</g>
<!-- Node5 -->
<g id="node6" class="node">
<title>Node5</title>
<g id="a_node6"><a xlink:href="ringbuf_8h.html" target="_top" xlink:title="ringbuf.h">
<polygon fill="#ffffff" stroke="#000000" points="1024,-168.5 1024,-187.5 1079,-187.5 1079,-168.5 1024,-168.5"/>
<text text-anchor="middle" x="1051.5" y="-175.5" font-family="Helvetica,sans-Serif" font-size="10.00" fill="#000000">ringbuf.h</text>
</a>
</g>
</g>
<!-- Node2&#45;&gt;Node5 -->
<g id="edge5" class="edge">
<title>Node2&#45;&gt;Node5</title>
<path fill="none" stroke="#191970" d="M1074.6228,-224.2455C1070.8487,-216.6973 1065.5079,-206.0158 1060.9099,-196.8197"/>
<polygon fill="#191970" stroke="#191970" points="1063.924,-195.0217 1056.3213,-187.6427 1057.663,-198.1522 1063.924,-195.0217"/>
</g>
<!-- Node5&#45;&gt;Node4 -->
<g id="edge34" class="edge">
<title>Node5&#45;&gt;Node4</title>
<path fill="none" stroke="#191970" d="M1057.5965,-168.2455C1062.4145,-160.5367 1069.2751,-149.5598 1075.1032,-140.2348"/>
<polygon fill="#191970" stroke="#191970" points="1078.1413,-141.9777 1080.4733,-131.6427 1072.2053,-138.2677 1078.1413,-141.9777"/>
</g>
<!-- Node5&#45;&gt;Node6 -->
<g id="edge6" class="edge">
<title>Node5&#45;&gt;Node6</title>
<path fill="none" stroke="#191970" d="M1041.7455,-168.2455C1033.6352,-160.1352 1021.9075,-148.4075 1012.2919,-138.7919"/>
<polygon fill="#191970" stroke="#191970" points="1014.6887,-136.2389 1005.1427,-131.6427 1009.7389,-141.1887 1014.6887,-136.2389"/>
</g>
<!-- Node6&#45;&gt;Node3 -->
<g id="edge9" class="edge">
<title>Node6&#45;&gt;Node3</title>
<path fill="none" stroke="#191970" d="M1027.0603,-115.3172C1034.0899,-114.0324 1041.5264,-112.8303 1048.5,-112 1359.7468,-74.9427 1446.4897,-129.159 1758.8945,-75.8751"/>
<polygon fill="#191970" stroke="#191970" points="1759.8947,-79.2542 1769.1519,-74.101 1758.7017,-72.3566 1759.8947,-79.2542"/>
</g>
<!-- Node7 -->
<g id="node8" class="node">
<title>Node7</title>
<polygon fill="#ffffff" stroke="#bfbfbf" points="1638,-56.5 1638,-75.5 1687,-75.5 1687,-56.5 1638,-56.5"/>
<text text-anchor="middle" x="1662.5" y="-63.5" font-family="Helvetica,sans-Serif" font-size="10.00" fill="#000000">ctype.h</text>
</g>
<!-- Node6&#45;&gt;Node7 -->
<g id="edge7" class="edge">
<title>Node6&#45;&gt;Node7</title>
<path fill="none" stroke="#191970" d="M1027.0675,-115.3766C1034.0968,-114.0884 1041.5313,-112.8699 1048.5,-112 1301.9658,-80.3605 1373.0745,-120.7727 1627.8642,-75.935"/>
<polygon fill="#191970" stroke="#191970" points="1628.5562,-79.3669 1637.7848,-74.1628 1627.3251,-72.476 1628.5562,-79.3669"/>
</g>
<!-- Node8 -->
<g id="node9" class="node">
<title>Node8</title>
<polygon fill="#ffffff" stroke="#bfbfbf" points="1705.5,-56.5 1705.5,-75.5 1751.5,-75.5 1751.5,-56.5 1705.5,-56.5"/>
<text text-anchor="middle" x="1728.5" y="-63.5" font-family="Helvetica,sans-Serif" font-size="10.00" fill="#000000">stdio.h</text>
</g>
<!-- Node6&#45;&gt;Node8 -->
<g id="edge8" class="edge">
<title>Node6&#45;&gt;Node8</title>
<path fill="none" stroke="#191970" d="M1027.0634,-115.3432C1034.0929,-114.0569 1041.5285,-112.8476 1048.5,-112 1331.4799,-77.5934 1410.8215,-126.2451 1695.0501,-75.8324"/>
<polygon fill="#191970" stroke="#191970" points="1696.0262,-79.213 1705.2481,-73.997 1694.7862,-72.3237 1696.0262,-79.213"/>
</g>
<!-- Node9 -->
<g id="node10" class="node">
<title>Node9</title>
<polygon fill="#ffffff" stroke="#bfbfbf" points="0,-56.5 0,-75.5 49,-75.5 49,-56.5 0,-56.5"/>
<text text-anchor="middle" x="24.5" y="-63.5" font-family="Helvetica,sans-Serif" font-size="10.00" fill="#000000">string.h</text>
</g>
<!-- Node6&#45;&gt;Node9 -->
<g id="edge10" class="edge">
<title>Node6&#45;&gt;Node9</title>
<path fill="none" stroke="#191970" d="M963.8626,-121.2958C821.9128,-118.0045 242.9011,-103.1431 63.5,-76 62.0314,-75.7778 60.5378,-75.5236 59.0336,-75.2442"/>
<polygon fill="#191970" stroke="#191970" points="59.6156,-71.7894 49.1031,-73.1077 58.1432,-78.6328 59.6156,-71.7894"/>
</g>
<!-- Node10 -->
<g id="node11" class="node">
<title>Node10</title>
<polygon fill="#ffffff" stroke="#bfbfbf" points="35,-.5 35,-19.5 94,-19.5 94,-.5 35,-.5"/>
<text text-anchor="middle" x="64.5" y="-7.5" font-family="Helvetica,sans-Serif" font-size="10.00" fill="#000000">c_types.h</text>
</g>
<!-- Node6&#45;&gt;Node10 -->
<g id="edge11" class="edge">
<title>Node6&#45;&gt;Node10</title>
<path fill="none" stroke="#191970" d="M963.6193,-121.7614C815.7224,-120.4616 200.3954,-112.8627 123.5,-76 102.3823,-65.8764 85.5012,-44.4217 75.2949,-28.7114"/>
<polygon fill="#191970" stroke="#191970" points="78.0471,-26.5056 69.8244,-19.8245 72.086,-30.1751 78.0471,-26.5056"/>
</g>
<!-- Node11 -->
<g id="node12" class="node">
<title>Node11</title>
<polygon fill="#ffffff" stroke="#bfbfbf" points="274,-56.5 274,-75.5 327,-75.5 327,-56.5 274,-56.5"/>
<text text-anchor="middle" x="300.5" y="-63.5" font-family="Helvetica,sans-Serif" font-size="10.00" fill="#000000">lwip/ip.h</text>
</g>
<!-- Node6&#45;&gt;Node11 -->
<g id="edge12" class="edge">
<title>Node6&#45;&gt;Node11</title>
<path fill="none" stroke="#191970" d="M963.6089,-120.6261C851.9557,-115.6866 478.285,-98.0317 337.2444,-75.716"/>
<polygon fill="#191970" stroke="#191970" points="337.5388,-72.217 327.1006,-74.032 336.3924,-79.1225 337.5388,-72.217"/>
</g>
<!-- Node12 -->
<g id="node13" class="node">
<title>Node12</title>
<polygon fill="#ffffff" stroke="#bfbfbf" points="345.5,-56.5 345.5,-75.5 407.5,-75.5 407.5,-56.5 345.5,-56.5"/>
<text text-anchor="middle" x="376.5" y="-63.5" font-family="Helvetica,sans-Serif" font-size="10.00" fill="#000000">lwip/udp.h</text>
</g>
<!-- Node6&#45;&gt;Node12 -->
<g id="edge13" class="edge">
<title>Node6&#45;&gt;Node12</title>
<path fill="none" stroke="#191970" d="M963.898,-121.3257C877.7202,-119.0988 631.3531,-110.1427 417.9756,-76.0016"/>
<polygon fill="#191970" stroke="#191970" points="418.2721,-72.504 407.8405,-74.3568 417.1506,-79.4136 418.2721,-72.504"/>
</g>
<!-- Node13 -->
<g id="node14" class="node">
<title>Node13</title>
<polygon fill="#ffffff" stroke="#bfbfbf" points="425.5,-56.5 425.5,-75.5 507.5,-75.5 507.5,-56.5 425.5,-56.5"/>
<text text-anchor="middle" x="466.5" y="-63.5" font-family="Helvetica,sans-Serif" font-size="10.00" fill="#000000">lwip/tcp_impl.h</text>
</g>
<!-- Node6&#45;&gt;Node13 -->
<g id="edge14" class="edge">
<title>Node6&#45;&gt;Node13</title>
<path fill="none" stroke="#191970" d="M963.9816,-120.0862C888.6261,-115.2736 691.9541,-101.3131 517.761,-76.0568"/>
<polygon fill="#191970" stroke="#191970" points="518.0449,-72.5611 507.6429,-74.5731 517.0292,-79.487 518.0449,-72.5611"/>
</g>
<!-- Node14 -->
<g id="node15" class="node">
<title>Node14</title>
<polygon fill="#ffffff" stroke="#bfbfbf" points="526,-56.5 526,-75.5 601,-75.5 601,-56.5 526,-56.5"/>
<text text-anchor="middle" x="563.5" y="-63.5" font-family="Helvetica,sans-Serif" font-size="10.00" fill="#000000">netif/etharp.h</text>
</g>
<!-- Node6&#45;&gt;Node14 -->
<g id="edge15" class="edge">
<title>Node6&#45;&gt;Node14</title>
<path fill="none" stroke="#191970" d="M963.9226,-119.2061C899.602,-113.3054 748.6061,-98.3848 611.4243,-76.0185"/>
<polygon fill="#191970" stroke="#191970" points="611.589,-72.4985 601.1529,-74.3254 610.4505,-79.4053 611.589,-72.4985"/>
</g>
<!-- Node15 -->
<g id="node16" class="node">
<title>Node15</title>
<polygon fill="#ffffff" stroke="#bfbfbf" points="619.5,-56.5 619.5,-75.5 683.5,-75.5 683.5,-56.5 619.5,-56.5"/>
<text text-anchor="middle" x="651.5" y="-63.5" font-family="Helvetica,sans-Serif" font-size="10.00" fill="#000000">lwip/netif.h</text>
</g>
<!-- Node6&#45;&gt;Node15 -->
<g id="edge16" class="edge">
<title>Node6&#45;&gt;Node15</title>
<path fill="none" stroke="#191970" d="M963.9346,-118.1445C910.3954,-111.4033 798.195,-96.405 693.7504,-76.1117"/>
<polygon fill="#191970" stroke="#191970" points="694.1564,-72.6246 683.6692,-74.1314 692.8071,-79.4933 694.1564,-72.6246"/>
</g>
<!-- Node16 -->
<g id="node17" class="node">
<title>Node16</title>
<polygon fill="#ffffff" stroke="#bfbfbf" points="702,-56.5 702,-75.5 789,-75.5 789,-56.5 702,-56.5"/>
<text text-anchor="middle" x="745.5" y="-63.5" font-family="Helvetica,sans-Serif" font-size="10.00" fill="#000000">lwip/lwip_napt.h</text>
</g>
<!-- Node6&#45;&gt;Node16 -->
<g id="edge17" class="edge">
<title>Node6&#45;&gt;Node16</title>
<path fill="none" stroke="#191970" d="M963.8373,-114.9076C922.167,-105.5734 848.345,-89.0373 798.1918,-77.803"/>
<polygon fill="#191970" stroke="#191970" points="798.7046,-74.3312 788.1814,-75.5606 797.1745,-81.1619 798.7046,-74.3312"/>
</g>
<!-- Node17 -->
<g id="node18" class="node">
<title>Node17</title>
<polygon fill="#ffffff" stroke="#bfbfbf" points="807,-56.5 807,-75.5 868,-75.5 868,-56.5 807,-56.5"/>
<text text-anchor="middle" x="837.5" y="-63.5" font-family="Helvetica,sans-Serif" font-size="10.00" fill="#000000">lwip/dns.h</text>
</g>
<!-- Node6&#45;&gt;Node17 -->
<g id="edge18" class="edge">
<title>Node6&#45;&gt;Node17</title>
<path fill="none" stroke="#191970" d="M968.3388,-112.3733C942.2933,-103.1419 902.7884,-89.1402 874.0021,-78.9375"/>
<polygon fill="#191970" stroke="#191970" points="874.9015,-75.5429 864.3067,-75.5011 872.563,-82.1408 874.9015,-75.5429"/>
</g>
<!-- Node18 -->
<g id="node19" class="node">
<title>Node18</title>
<polygon fill="#ffffff" stroke="#bfbfbf" points="886.5,-56.5 886.5,-75.5 1000.5,-75.5 1000.5,-56.5 886.5,-56.5"/>
<text text-anchor="middle" x="943.5" y="-63.5" font-family="Helvetica,sans-Serif" font-size="10.00" fill="#000000">lwip/app/dhcpserver.h</text>
</g>
<!-- Node6&#45;&gt;Node18 -->
<g id="edge19" class="edge">
<title>Node6&#45;&gt;Node18</title>
<path fill="none" stroke="#191970" d="M986.4423,-112.2455C978.9858,-104.2155 968.2366,-92.6394 959.3583,-83.0781"/>
<polygon fill="#191970" stroke="#191970" points="961.8232,-80.589 952.4539,-75.6427 956.6937,-85.3522 961.8232,-80.589"/>
</g>
<!-- Node19 -->
<g id="node20" class="node">
<title>Node19</title>
<polygon fill="#ffffff" stroke="#bfbfbf" points="1019,-56.5 1019,-75.5 1078,-75.5 1078,-56.5 1019,-56.5"/>
<text text-anchor="middle" x="1048.5" y="-63.5" font-family="Helvetica,sans-Serif" font-size="10.00" fill="#000000">lwip/opt.h</text>
</g>
<!-- Node6&#45;&gt;Node19 -->
<g id="edge20" class="edge">
<title>Node6&#45;&gt;Node19</title>
<path fill="none" stroke="#191970" d="M1004.7319,-112.2455C1012.3317,-104.2155 1023.2877,-92.6394 1032.3368,-83.0781"/>
<polygon fill="#191970" stroke="#191970" points="1035.0421,-85.3115 1039.3739,-75.6427 1029.958,-80.4998 1035.0421,-85.3115"/>
</g>
<!-- Node20 -->
<g id="node21" class="node">
<title>Node20</title>
<polygon fill="#ffffff" stroke="#bfbfbf" points="1096,-56.5 1096,-75.5 1159,-75.5 1159,-56.5 1096,-56.5"/>
<text text-anchor="middle" x="1127.5" y="-63.5" font-family="Helvetica,sans-Serif" font-size="10.00" fill="#000000">espconn.h</text>
</g>
<!-- Node6&#45;&gt;Node20 -->
<g id="edge21" class="edge">
<title>Node6&#45;&gt;Node20</title>
<path fill="none" stroke="#191970" d="M1018.1916,-112.3733C1039.5711,-103.3032 1071.8057,-89.6279 1095.7362,-79.4755"/>
<polygon fill="#191970" stroke="#191970" points="1097.2656,-82.6287 1105.1045,-75.5011 1094.5317,-76.1846 1097.2656,-82.6287"/>
</g>
<!-- Node21 -->
<g id="node22" class="node">
<title>Node21</title>
<polygon fill="#ffffff" stroke="#bfbfbf" points="112,-.5 112,-19.5 171,-19.5 171,-.5 112,-.5"/>
<text text-anchor="middle" x="141.5" y="-7.5" font-family="Helvetica,sans-Serif" font-size="10.00" fill="#000000">ets_sys.h</text>
</g>
<!-- Node6&#45;&gt;Node21 -->
<g id="edge22" class="edge">
<title>Node6&#45;&gt;Node21</title>
<path fill="none" stroke="#191970" d="M963.9978,-121.5173C812.346,-119.0433 163.5936,-106.6895 134.5,-76 122.7774,-63.6344 126.9332,-43.5326 132.535,-28.758"/>
<polygon fill="#191970" stroke="#191970" points="135.7623,-30.1125 136.4668,-19.5411 129.3237,-27.3658 135.7623,-30.1125"/>
</g>
<!-- Node22 -->
<g id="node23" class="node">
<title>Node22</title>
<polygon fill="#ffffff" stroke="#bfbfbf" points="1177.5,-56.5 1177.5,-75.5 1221.5,-75.5 1221.5,-56.5 1177.5,-56.5"/>
<text text-anchor="middle" x="1199.5" y="-63.5" font-family="Helvetica,sans-Serif" font-size="10.00" fill="#000000">gpio.h</text>
</g>
<!-- Node6&#45;&gt;Node22 -->
<g id="edge23" class="edge">
<title>Node6&#45;&gt;Node22</title>
<path fill="none" stroke="#191970" d="M1027.2062,-114.0981C1060.0346,-105.8007 1113.0173,-92.0873 1167.3876,-76.2286"/>
<polygon fill="#191970" stroke="#191970" points="1168.5833,-79.5254 1177.192,-73.3496 1166.611,-72.809 1168.5833,-79.5254"/>
</g>
<!-- Node23 -->
<g id="node24" class="node">
<title>Node23</title>
<polygon fill="#ffffff" stroke="#bfbfbf" points="1240,-56.5 1240,-75.5 1287,-75.5 1287,-56.5 1240,-56.5"/>
<text text-anchor="middle" x="1263.5" y="-63.5" font-family="Helvetica,sans-Serif" font-size="10.00" fill="#000000">mem.h</text>
</g>
<!-- Node6&#45;&gt;Node23 -->
<g id="edge24" class="edge">
<title>Node6&#45;&gt;Node23</title>
<path fill="none" stroke="#191970" d="M1027.1921,-115.9813C1081.3623,-105.6689 1189.1759,-85.0294 1229.8275,-75.8582"/>
<polygon fill="#191970" stroke="#191970" points="1230.8629,-79.2099 1239.7865,-73.4985 1229.2489,-72.3985 1230.8629,-79.2099"/>
</g>
<!-- Node24 -->
<g id="node25" class="node">
<title>Node24</title>
<polygon fill="#ffffff" stroke="#bfbfbf" points="1305,-56.5 1305,-75.5 1354,-75.5 1354,-56.5 1305,-56.5"/>
<text text-anchor="middle" x="1329.5" y="-63.5" font-family="Helvetica,sans-Serif" font-size="10.00" fill="#000000">osapi.h</text>
</g>
<!-- Node6&#45;&gt;Node24 -->
<g id="edge25" class="edge">
<title>Node6&#45;&gt;Node24</title>
<path fill="none" stroke="#191970" d="M1027.13,-115.8052C1034.1557,-114.4926 1041.5729,-113.1557 1048.5,-112 1155.1404,-94.2078 1185.9941,-99.856 1294.6818,-76.1653"/>
<polygon fill="#191970" stroke="#191970" points="1295.7326,-79.5175 1304.7397,-73.9386 1294.2195,-72.6829 1295.7326,-79.5175"/>
</g>
<!-- Node25 -->
<g id="node26" class="node">
<title>Node25</title>
<polygon fill="#ffffff" stroke="#bfbfbf" points="1372.5,-56.5 1372.5,-75.5 1460.5,-75.5 1460.5,-56.5 1372.5,-56.5"/>
<text text-anchor="middle" x="1416.5" y="-63.5" font-family="Helvetica,sans-Serif" font-size="10.00" fill="#000000">user_interface.h</text>
</g>
<!-- Node6&#45;&gt;Node25 -->
<g id="edge26" class="edge">
<title>Node6&#45;&gt;Node25</title>
<path fill="none" stroke="#191970" d="M1027.1049,-115.6473C1034.132,-114.3437 1041.5562,-113.0504 1048.5,-112 1184.5606,-91.417 1222.4135,-96.8034 1362.0613,-76.1241"/>
<polygon fill="#191970" stroke="#191970" points="1362.9243,-79.5339 1372.2946,-74.5894 1361.886,-72.6113 1362.9243,-79.5339"/>
</g>
<!-- Node26 -->
<g id="node27" class="node">
<title>Node26</title>
<polygon fill="#ffffff" stroke="#bfbfbf" points="1478.5,-56.5 1478.5,-75.5 1540.5,-75.5 1540.5,-56.5 1478.5,-56.5"/>
<text text-anchor="middle" x="1509.5" y="-63.5" font-family="Helvetica,sans-Serif" font-size="10.00" fill="#000000">upgrade.h</text>
</g>
<!-- Node6&#45;&gt;Node26 -->
<g id="edge27" class="edge">
<title>Node6&#45;&gt;Node26</title>
<path fill="none" stroke="#191970" d="M1027.0835,-115.4988C1034.1118,-114.2037 1041.5419,-112.9514 1048.5,-112 1231.2919,-87.0054 1282.4716,-106.1717 1468.0637,-76.0057"/>
<polygon fill="#191970" stroke="#191970" points="1468.8607,-79.4216 1478.1565,-74.3386 1467.7198,-72.5152 1468.8607,-79.4216"/>
</g>
<!-- Node27 -->
<g id="node28" class="node">
<title>Node27</title>
<g id="a_node28"><a xlink:href="platform_8h.html" target="_top" xlink:title="platform.h">
<polygon fill="#ffffff" stroke="#000000" points="1559,-56.5 1559,-75.5 1620,-75.5 1620,-56.5 1559,-56.5"/>
<text text-anchor="middle" x="1589.5" y="-63.5" font-family="Helvetica,sans-Serif" font-size="10.00" fill="#000000">platform.h</text>
</a>
</g>
</g>
<!-- Node6&#45;&gt;Node27 -->
<g id="edge28" class="edge">
<title>Node6&#45;&gt;Node27</title>
<path fill="none" stroke="#191970" d="M1027.0741,-115.428C1034.1029,-114.1369 1041.5356,-112.9042 1048.5,-112 1266.6398,-83.6784 1327.2841,-110.3973 1548.6215,-75.8679"/>
<polygon fill="#191970" stroke="#191970" points="1549.2713,-79.3087 1558.6004,-74.2869 1548.1759,-72.3949 1549.2713,-79.3087"/>
</g>
<!-- Node28 -->
<g id="node29" class="node">
<title>Node28</title>
<g id="a_node29"><a xlink:href="espmissingincludes_8h.html" target="_top" xlink:title="espmissingincludes.h">
<polygon fill="#ffffff" stroke="#000000" points="143.5,-56.5 143.5,-75.5 255.5,-75.5 255.5,-56.5 143.5,-56.5"/>
<text text-anchor="middle" x="199.5" y="-63.5" font-family="Helvetica,sans-Serif" font-size="10.00" fill="#000000">espmissingincludes.h</text>
</a>
</g>
</g>
<!-- Node6&#45;&gt;Node28 -->
<g id="edge29" class="edge">
<title>Node6&#45;&gt;Node28</title>
<path fill="none" stroke="#191970" d="M963.7077,-121.0197C863.028,-117.6999 542.0643,-105.465 266.0416,-76.08"/>
<polygon fill="#191970" stroke="#191970" points="266.1463,-72.5712 255.8295,-74.9827 265.3984,-79.5311 266.1463,-72.5712"/>
</g>
<!-- Node28&#45;&gt;Node10 -->
<g id="edge31" class="edge">
<title>Node28&#45;&gt;Node10</title>
<path fill="none" stroke="#191970" d="M176.2927,-56.3733C154.3301,-47.2629 121.1668,-33.5062 96.6599,-23.3404"/>
<polygon fill="#191970" stroke="#191970" points="97.9824,-20.0999 87.4045,-19.5011 95.3003,-26.5657 97.9824,-20.0999"/>
</g>
<!-- Node28&#45;&gt;Node21 -->
<g id="edge33" class="edge">
<title>Node28&#45;&gt;Node21</title>
<path fill="none" stroke="#191970" d="M189.3972,-56.2455C180.9972,-48.1352 168.8506,-36.4075 158.8916,-26.7919"/>
<polygon fill="#191970" stroke="#191970" points="161.1122,-24.0707 151.4871,-19.6427 156.25,-29.1066 161.1122,-24.0707"/>
</g>
<!-- Node29 -->
<g id="node30" class="node">
<title>Node29</title>
<polygon fill="#ffffff" stroke="#bfbfbf" points="189,-.5 189,-19.5 238,-19.5 238,-.5 189,-.5"/>
<text text-anchor="middle" x="213.5" y="-7.5" font-family="Helvetica,sans-Serif" font-size="10.00" fill="#000000">stdint.h</text>
</g>
<!-- Node28&#45;&gt;Node29 -->
<g id="edge30" class="edge">
<title>Node28&#45;&gt;Node29</title>
<path fill="none" stroke="#191970" d="M201.9386,-56.2455C203.7855,-48.8579 206.3828,-38.4689 208.6478,-29.4087"/>
<polygon fill="#191970" stroke="#191970" points="212.0594,-30.193 211.0893,-19.6427 205.2684,-28.4952 212.0594,-30.193"/>
</g>
<!-- Node30 -->
<g id="node31" class="node">
<title>Node30</title>
<polygon fill="#ffffff" stroke="#bfbfbf" points="256.5,-.5 256.5,-19.5 326.5,-19.5 326.5,-.5 256.5,-.5"/>
<text text-anchor="middle" x="291.5" y="-7.5" font-family="Helvetica,sans-Serif" font-size="10.00" fill="#000000">eagle_soc.h</text>
</g>
<!-- Node28&#45;&gt;Node30 -->
<g id="edge32" class="edge">
<title>Node28&#45;&gt;Node30</title>
<path fill="none" stroke="#191970" d="M215.5252,-56.2455C229.6408,-47.6534 250.4263,-35.0014 266.6899,-25.1018"/>
<polygon fill="#191970" stroke="#191970" points="268.9363,-27.8319 275.6585,-19.6427 265.2966,-21.8525 268.9363,-27.8319"/>
</g>
</g>
</svg>
