<?xml version="1.0" encoding="UTF-8" standalone="no"?>
<!DOCTYPE svg PUBLIC "-//W3C//DTD SVG 1.1//EN"
 "http://www.w3.org/Graphics/SVG/1.1/DTD/svg11.dtd">
<!-- Generated by graphviz version 2.41.20170323.1842 (20170323.1842)
 -->
<!-- Title: user/rfinit.c Pages: 1 -->
<svg width="241pt" height="84pt"
 viewBox="0.00 0.00 240.50 84.00" xmlns="http://www.w3.org/2000/svg" xmlns:xlink="http://www.w3.org/1999/xlink">
<g id="graph0" class="graph" transform="scale(1 1) rotate(0) translate(4 80)">
<title>user/rfinit.c</title>
<polygon fill="#ffffff" stroke="transparent" points="-4,4 -4,-80 236.5,-80 236.5,4 -4,4"/>
<!-- Node0 -->
<g id="node1" class="node">
<title>Node0</title>
<polygon fill="#bfbfbf" stroke="#000000" points="69,-56.5 69,-75.5 134,-75.5 134,-56.5 69,-56.5"/>
<text text-anchor="middle" x="101.5" y="-63.5" font-family="Helvetica,sans-Serif" font-size="10.00" fill="#000000">user/rfinit.c</text>
</g>
<!-- Node1 -->
<g id="node2" class="node">
<title>Node1</title>
<polygon fill="#ffffff" stroke="#bfbfbf" points="0,-.5 0,-19.5 59,-19.5 59,-.5 0,-.5"/>
<text text-anchor="middle" x="29.5" y="-7.5" font-family="Helvetica,sans-Serif" font-size="10.00" fill="#000000">ets_sys.h</text>
</g>
<!-- Node0&#45;&gt;Node1 -->
<g id="edge1" class="edge">
<title>Node0&#45;&gt;Node1</title>
<path fill="none" stroke="#191970" d="M88.9586,-56.2455C78.2213,-47.8943 62.5527,-35.7076 49.9953,-25.9408"/>
<polygon fill="#191970" stroke="#191970" points="51.9401,-23.0194 41.8977,-19.6427 47.6425,-28.5449 51.9401,-23.0194"/>
</g>
<!-- Node2 -->
<g id="node3" class="node">
<title>Node2</title>
<polygon fill="#ffffff" stroke="#bfbfbf" points="77,-.5 77,-19.5 126,-19.5 126,-.5 77,-.5"/>
<text text-anchor="middle" x="101.5" y="-7.5" font-family="Helvetica,sans-Serif" font-size="10.00" fill="#000000">osapi.h</text>
</g>
<!-- Node0&#45;&gt;Node2 -->
<g id="edge2" class="edge">
<title>Node0&#45;&gt;Node2</title>
<path fill="none" stroke="#191970" d="M101.5,-56.2455C101.5,-48.9382 101.5,-38.6944 101.5,-29.7046"/>
<polygon fill="#191970" stroke="#191970" points="105.0001,-29.6426 101.5,-19.6427 98.0001,-29.6427 105.0001,-29.6426"/>
</g>
<!-- Node3 -->
<g id="node4" class="node">
<title>Node3</title>
<polygon fill="#ffffff" stroke="#bfbfbf" points="144.5,-.5 144.5,-19.5 232.5,-19.5 232.5,-.5 144.5,-.5"/>
<text text-anchor="middle" x="188.5" y="-7.5" font-family="Helvetica,sans-Serif" font-size="10.00" fill="#000000">user_interface.h</text>
</g>
<!-- Node0&#45;&gt;Node3 -->
<g id="edge3" class="edge">
<title>Node0&#45;&gt;Node3</title>
<path fill="none" stroke="#191970" d="M116.6542,-56.2455C130.0027,-47.6534 149.6586,-35.0014 165.0383,-25.1018"/>
<polygon fill="#191970" stroke="#191970" points="167.0051,-27.9982 173.5194,-19.6427 163.2164,-22.1121 167.0051,-27.9982"/>
</g>
</g>
</svg>
