<?xml version="1.0" encoding="UTF-8" standalone="no"?>
<!DOCTYPE svg PUBLIC "-//W3C//DTD SVG 1.1//EN"
 "http://www.w3.org/Graphics/SVG/1.1/DTD/svg11.dtd">
<!-- Generated by graphviz version 2.40.1 (20161225.0304)
 -->
<!-- Title: RINGBUF_Get Pages: 1 -->
<svg width="791pt" height="218pt"
 viewBox="0.00 0.00 791.00 218.00" xmlns="http://www.w3.org/2000/svg" xmlns:xlink="http://www.w3.org/1999/xlink">
<g id="graph0" class="graph" transform="scale(1 1) rotate(0) translate(4 214)">
<title>RINGBUF_Get</title>
<polygon fill="#ffffff" stroke="transparent" points="-4,4 -4,-214 787,-214 787,4 -4,4"/>
<!-- Node1 -->
<g id="node1" class="node">
<title>Node1</title>
<polygon fill="#bfbfbf" stroke="#000000" points="0,-76.5 0,-95.5 83,-95.5 83,-76.5 0,-76.5"/>
<text text-anchor="middle" x="41.5" y="-83.5" font-family="Helvetica,sans-Serif" font-size="10.00" fill="#000000">RINGBUF_Get</text>
</g>
<!-- Node2 -->
<g id="node2" class="node">
<title>Node2</title>
<g id="a_node2"><a xlink:href="proto_8c.html#a4ce0ecd80c57cb13f47a2725036451af" target="_top" xlink:title="PROTO_ParseRb">
<polygon fill="#ffffff" stroke="#000000" points="119,-76.5 119,-95.5 216,-95.5 216,-76.5 119,-76.5"/>
<text text-anchor="middle" x="167.5" y="-83.5" font-family="Helvetica,sans-Serif" font-size="10.00" fill="#000000">PROTO_ParseRb</text>
</a>
</g>
</g>
<!-- Node1&#45;&gt;Node2 -->
<g id="edge1" class="edge">
<title>Node1&#45;&gt;Node2</title>
<path fill="none" stroke="#191970" d="M93.278,-86C101.7665,-86 110.536,-86 118.9428,-86"/>
<polygon fill="#191970" stroke="#191970" points="93.1063,-82.5001 83.1063,-86 93.1063,-89.5001 93.1063,-82.5001"/>
</g>
<!-- Node3 -->
<g id="node3" class="node">
<title>Node3</title>
<g id="a_node3"><a xlink:href="queue_8c.html#acf070d5db9067c0b9598dec844313ae5" target="_top" xlink:title="QUEUE_Gets">
<polygon fill="#ffffff" stroke="#000000" points="252,-76.5 252,-95.5 331,-95.5 331,-76.5 252,-76.5"/>
<text text-anchor="middle" x="291.5" y="-83.5" font-family="Helvetica,sans-Serif" font-size="10.00" fill="#000000">QUEUE_Gets</text>
</a>
</g>
</g>
<!-- Node2&#45;&gt;Node3 -->
<g id="edge2" class="edge">
<title>Node2&#45;&gt;Node3</title>
<path fill="none" stroke="#191970" d="M226.2337,-86C234.8896,-86 243.6306,-86 251.7793,-86"/>
<polygon fill="#191970" stroke="#191970" points="226.1522,-82.5001 216.1522,-86 226.1522,-89.5001 226.1522,-82.5001"/>
</g>
<!-- Node4 -->
<g id="node4" class="node">
<title>Node4</title>
<g id="a_node4"><a xlink:href="mqtt_8c.html#a086502e2dd36681a7fb4d9a9018cfc88" target="_top" xlink:title="MQTT ping function. ">
<polygon fill="#ffffff" stroke="#000000" points="386,-152.5 386,-171.5 456,-171.5 456,-152.5 386,-152.5"/>
<text text-anchor="middle" x="421" y="-159.5" font-family="Helvetica,sans-Serif" font-size="10.00" fill="#000000">MQTT_Ping</text>
</a>
</g>
</g>
<!-- Node3&#45;&gt;Node4 -->
<g id="edge3" class="edge">
<title>Node3&#45;&gt;Node4</title>
<path fill="none" stroke="#191970" d="M309.8014,-102.3883C324.4472,-114.8439 345.9503,-131.7047 367,-143 373.7431,-146.6183 381.3151,-149.7789 388.6074,-152.4298"/>
<polygon fill="#191970" stroke="#191970" points="311.872,-99.551 302.0257,-95.6391 307.2834,-104.8373 311.872,-99.551"/>
</g>
<!-- Node5 -->
<g id="node5" class="node">
<title>Node5</title>
<g id="a_node5"><a xlink:href="mqtt_8c.html#a848a6701c4c7ec3432e38ea57c003aad" target="_top" xlink:title="MQTT publish function. ">
<polygon fill="#ffffff" stroke="#000000" points="379.5,-114.5 379.5,-133.5 462.5,-133.5 462.5,-114.5 379.5,-114.5"/>
<text text-anchor="middle" x="421" y="-121.5" font-family="Helvetica,sans-Serif" font-size="10.00" fill="#000000">MQTT_Publish</text>
</a>
</g>
</g>
<!-- Node3&#45;&gt;Node5 -->
<g id="edge4" class="edge">
<title>Node3&#45;&gt;Node5</title>
<path fill="none" stroke="#191970" d="M334.219,-98.5353C351.836,-103.7048 371.9232,-109.5991 388.3321,-114.4141"/>
<polygon fill="#191970" stroke="#191970" points="334.7592,-95.0463 324.1783,-95.589 332.7882,-101.7631 334.7592,-95.0463"/>
</g>
<!-- Node13 -->
<g id="node13" class="node">
<title>Node13</title>
<g id="a_node13"><a xlink:href="mqtt_8c.html#a86f8adfe29d6ec8bb5070fd030540d2f" target="_top" xlink:title="MQTT subscibe function. ">
<polygon fill="#ffffff" stroke="#000000" points="373.5,-76.5 373.5,-95.5 468.5,-95.5 468.5,-76.5 373.5,-76.5"/>
<text text-anchor="middle" x="421" y="-83.5" font-family="Helvetica,sans-Serif" font-size="10.00" fill="#000000">MQTT_Subscribe</text>
</a>
</g>
</g>
<!-- Node3&#45;&gt;Node13 -->
<g id="edge13" class="edge">
<title>Node3&#45;&gt;Node13</title>
<path fill="none" stroke="#191970" d="M341.3742,-86C351.9205,-86 363.0235,-86 373.4799,-86"/>
<polygon fill="#191970" stroke="#191970" points="341.058,-82.5001 331.0579,-86 341.0579,-89.5001 341.058,-82.5001"/>
</g>
<!-- Node14 -->
<g id="node14" class="node">
<title>Node14</title>
<g id="a_node14"><a xlink:href="mqtt_8c.html#a9d88fa6efb9163d4dbf9dc750a8d4ed0" target="_top" xlink:title="MQTT_Task">
<polygon fill="#ffffff" stroke="#000000" points="385,-38.5 385,-57.5 457,-57.5 457,-38.5 385,-38.5"/>
<text text-anchor="middle" x="421" y="-45.5" font-family="Helvetica,sans-Serif" font-size="10.00" fill="#000000">MQTT_Task</text>
</a>
</g>
</g>
<!-- Node3&#45;&gt;Node14 -->
<g id="edge14" class="edge">
<title>Node3&#45;&gt;Node14</title>
<path fill="none" stroke="#191970" d="M334.219,-73.4647C351.836,-68.2952 371.9232,-62.4009 388.3321,-57.5859"/>
<polygon fill="#191970" stroke="#191970" points="332.7882,-70.2369 324.1783,-76.411 334.7592,-76.9537 332.7882,-70.2369"/>
</g>
<!-- Node16 -->
<g id="node16" class="node">
<title>Node16</title>
<g id="a_node16"><a xlink:href="mqtt_8c.html#a7f28cd912dae4c1386c10026a267b579" target="_top" xlink:title="MQTT un&#45;subscibe function. ">
<polygon fill="#ffffff" stroke="#000000" points="367,-.5 367,-19.5 475,-19.5 475,-.5 367,-.5"/>
<text text-anchor="middle" x="421" y="-7.5" font-family="Helvetica,sans-Serif" font-size="10.00" fill="#000000">MQTT_UnSubscribe</text>
</a>
</g>
</g>
<!-- Node3&#45;&gt;Node16 -->
<g id="edge16" class="edge">
<title>Node3&#45;&gt;Node16</title>
<path fill="none" stroke="#191970" d="M309.8014,-69.6117C324.4472,-57.1561 345.9503,-40.2953 367,-29 373.7431,-25.3817 381.3151,-22.2211 388.6074,-19.5702"/>
<polygon fill="#191970" stroke="#191970" points="307.2834,-67.1627 302.0257,-76.3609 311.872,-72.449 307.2834,-67.1627"/>
</g>
<!-- Node6 -->
<g id="node6" class="node">
<title>Node6</title>
<g id="a_node6"><a xlink:href="en61107__request_8c.html#aa3b162cf5364986ea19e831ac2b18f76" target="_top" xlink:title="en61107_received_task">
<polygon fill="#ffffff" stroke="#000000" points="511,-190.5 511,-209.5 634,-209.5 634,-190.5 511,-190.5"/>
<text text-anchor="middle" x="572.5" y="-197.5" font-family="Helvetica,sans-Serif" font-size="10.00" fill="#000000">en61107_received_task</text>
</a>
</g>
</g>
<!-- Node5&#45;&gt;Node6 -->
<g id="edge5" class="edge">
<title>Node5&#45;&gt;Node6</title>
<path fill="none" stroke="#191970" d="M465.1166,-137.506C468.5598,-139.1612 471.8992,-140.9889 475,-143 494.5186,-155.6593 491.2402,-168.7206 511,-181 517.1695,-184.8339 524.1709,-187.9459 531.1839,-190.4552"/>
<polygon fill="#191970" stroke="#191970" points="466.4212,-134.2571 455.852,-133.52 463.6547,-140.6873 466.4212,-134.2571"/>
</g>
<!-- Node8 -->
<g id="node8" class="node">
<title>Node8</title>
<g id="a_node8"><a xlink:href="en61107__request_8h.html#a7384d014eb9e833f64ecf4a9f86f87be" target="_top" xlink:title="en61107_request_send">
<polygon fill="#ffffff" stroke="#000000" points="511.5,-152.5 511.5,-171.5 633.5,-171.5 633.5,-152.5 511.5,-152.5"/>
<text text-anchor="middle" x="572.5" y="-159.5" font-family="Helvetica,sans-Serif" font-size="10.00" fill="#000000">en61107_request_send</text>
</a>
</g>
</g>
<!-- Node5&#45;&gt;Node8 -->
<g id="edge7" class="edge">
<title>Node5&#45;&gt;Node8</title>
<path fill="none" stroke="#191970" d="M469.0016,-136.04C490.1668,-141.3488 514.6858,-147.4988 534.5451,-152.4799"/>
<polygon fill="#191970" stroke="#191970" points="469.7809,-132.6271 459.2298,-133.589 468.0779,-139.4168 469.7809,-132.6271"/>
</g>
<!-- Node9 -->
<g id="node9" class="node">
<title>Node9</title>
<g id="a_node9"><a xlink:href="kmp__request_8c.html#a3f6b790a06b933b78f40ade5e9a16131" target="_top" xlink:title="kmp_received_task">
<polygon fill="#ffffff" stroke="#000000" points="521,-114.5 521,-133.5 624,-133.5 624,-114.5 521,-114.5"/>
<text text-anchor="middle" x="572.5" y="-121.5" font-family="Helvetica,sans-Serif" font-size="10.00" fill="#000000">kmp_received_task</text>
</a>
</g>
</g>
<!-- Node5&#45;&gt;Node9 -->
<g id="edge8" class="edge">
<title>Node5&#45;&gt;Node9</title>
<path fill="none" stroke="#191970" d="M473.2011,-124C488.6114,-124 505.4655,-124 520.8414,-124"/>
<polygon fill="#191970" stroke="#191970" points="472.7991,-120.5001 462.7991,-124 472.799,-127.5001 472.7991,-120.5001"/>
</g>
<!-- Node11 -->
<g id="node11" class="node">
<title>Node11</title>
<g id="a_node11"><a xlink:href="kmp__request_8h.html#a3b022dcdc832786eb06126b5e6879604" target="_top" xlink:title="kmp_request_send">
<polygon fill="#ffffff" stroke="#000000" points="521.5,-76.5 521.5,-95.5 623.5,-95.5 623.5,-76.5 521.5,-76.5"/>
<text text-anchor="middle" x="572.5" y="-83.5" font-family="Helvetica,sans-Serif" font-size="10.00" fill="#000000">kmp_request_send</text>
</a>
</g>
</g>
<!-- Node5&#45;&gt;Node11 -->
<g id="edge10" class="edge">
<title>Node5&#45;&gt;Node11</title>
<path fill="none" stroke="#191970" d="M469.0016,-111.96C490.1668,-106.6512 514.6858,-100.5012 534.5451,-95.5201"/>
<polygon fill="#191970" stroke="#191970" points="468.0779,-108.5832 459.2298,-114.411 469.7809,-115.3729 468.0779,-108.5832"/>
</g>
<!-- Node7 -->
<g id="node7" class="node">
<title>Node7</title>
<g id="a_node7"><a xlink:href="en61107__request_8h.html#acd43242675a3f25e7c3b530eac9d8b3a" target="_top" xlink:title="en61107_request_init">
<polygon fill="#ffffff" stroke="#000000" points="670,-190.5 670,-209.5 783,-209.5 783,-190.5 670,-190.5"/>
<text text-anchor="middle" x="726.5" y="-197.5" font-family="Helvetica,sans-Serif" font-size="10.00" fill="#000000">en61107_request_init</text>
</a>
</g>
</g>
<!-- Node6&#45;&gt;Node7 -->
<g id="edge6" class="edge">
<title>Node6&#45;&gt;Node7</title>
<path fill="none" stroke="#191970" d="M644.5049,-200C652.9673,-200 661.5105,-200 669.7234,-200"/>
<polygon fill="#191970" stroke="#191970" points="644.2504,-196.5001 634.2504,-200 644.2503,-203.5001 644.2504,-196.5001"/>
</g>
<!-- Node10 -->
<g id="node10" class="node">
<title>Node10</title>
<g id="a_node10"><a xlink:href="kmp__request_8h.html#a048753ff9d6b448e2dcd8c85db0d6873" target="_top" xlink:title="kmp_request_init">
<polygon fill="#ffffff" stroke="#000000" points="680,-120.5 680,-139.5 773,-139.5 773,-120.5 680,-120.5"/>
<text text-anchor="middle" x="726.5" y="-127.5" font-family="Helvetica,sans-Serif" font-size="10.00" fill="#000000">kmp_request_init</text>
</a>
</g>
</g>
<!-- Node9&#45;&gt;Node10 -->
<g id="edge9" class="edge">
<title>Node9&#45;&gt;Node10</title>
<path fill="none" stroke="#191970" d="M634.5219,-126.4164C649.6483,-127.0058 665.5768,-127.6264 679.8492,-128.1824"/>
<polygon fill="#191970" stroke="#191970" points="634.3369,-122.9067 624.2082,-126.0146 634.0643,-129.9014 634.3369,-122.9067"/>
</g>
<!-- Node12 -->
<g id="node12" class="node">
<title>Node12</title>
<g id="a_node12"><a xlink:href="kmp__request_8c.html#a0977a4640a97d389ac3b0fef0ba7a9b6" target="_top" xlink:title="kmp_receive_timeout\l_timer_func">
<polygon fill="#ffffff" stroke="#000000" points="670.5,-71 670.5,-101 782.5,-101 782.5,-71 670.5,-71"/>
<text text-anchor="start" x="678.5" y="-89" font-family="Helvetica,sans-Serif" font-size="10.00" fill="#000000">kmp_receive_timeout</text>
<text text-anchor="middle" x="726.5" y="-78" font-family="Helvetica,sans-Serif" font-size="10.00" fill="#000000">_timer_func</text>
</a>
</g>
</g>
<!-- Node11&#45;&gt;Node12 -->
<g id="edge11" class="edge">
<title>Node11&#45;&gt;Node12</title>
<path fill="none" stroke="#191970" d="M633.7811,-79.3766C645.8715,-79.1794 658.5021,-79.2126 670.4106,-79.4763"/>
<polygon fill="#191970" stroke="#191970" points="633.7004,-75.8774 623.7798,-79.5965 633.8543,-82.8757 633.7004,-75.8774"/>
</g>
<!-- Node12&#45;&gt;Node11 -->
<g id="edge12" class="edge">
<title>Node12&#45;&gt;Node11</title>
<path fill="none" stroke="#191970" d="M660.2653,-92.691C648.0514,-92.8256 635.4689,-92.7298 623.7798,-92.4035"/>
<polygon fill="#191970" stroke="#191970" points="660.4697,-96.1882 670.4106,-92.5237 660.3542,-89.1892 660.4697,-96.1882"/>
</g>
<!-- Node15 -->
<g id="node15" class="node">
<title>Node15</title>
<g id="a_node15"><a xlink:href="mqtt_8c.html#a25cb7ac079d1d119250dac075c45acf1" target="_top" xlink:title="MQTT initialization mqtt client function. ">
<polygon fill="#ffffff" stroke="#000000" points="528,-38.5 528,-57.5 617,-57.5 617,-38.5 528,-38.5"/>
<text text-anchor="middle" x="572.5" y="-45.5" font-family="Helvetica,sans-Serif" font-size="10.00" fill="#000000">MQTT_InitClient</text>
</a>
</g>
</g>
<!-- Node14&#45;&gt;Node15 -->
<g id="edge15" class="edge">
<title>Node14&#45;&gt;Node15</title>
<path fill="none" stroke="#191970" d="M467.3319,-48C486.5651,-48 508.794,-48 527.8469,-48"/>
<polygon fill="#191970" stroke="#191970" points="467.2881,-44.5001 457.288,-48 467.288,-51.5001 467.2881,-44.5001"/>
</g>
</g>
</svg>
