<?xml version="1.0" encoding="UTF-8" standalone="no"?>
<!DOCTYPE svg PUBLIC "-//W3C//DTD SVG 1.1//EN"
 "http://www.w3.org/Graphics/SVG/1.1/DTD/svg11.dtd">
<!-- Generated by graphviz version 2.41.20170323.1842 (20170323.1842)
 -->
<!-- Title: RINGBUF_Put Pages: 1 -->
<svg width="1528pt" height="412pt"
 viewBox="0.00 0.00 1528.00 412.40" xmlns="http://www.w3.org/2000/svg" xmlns:xlink="http://www.w3.org/1999/xlink">
<g id="graph0" class="graph" transform="scale(1 1) rotate(0) translate(4 408.4018)">
<title>RINGBUF_Put</title>
<polygon fill="#ffffff" stroke="transparent" points="-4,4 -4,-408.4018 1524,-408.4018 1524,4 -4,4"/>
<!-- Node33 -->
<g id="node1" class="node">
<title>Node33</title>
<polygon fill="#bfbfbf" stroke="#000000" points="0,-76.5 0,-95.5 82,-95.5 82,-76.5 0,-76.5"/>
<text text-anchor="middle" x="41" y="-83.5" font-family="Helvetica,sans-Serif" font-size="10.00" fill="#000000">RINGBUF_Put</text>
</g>
<!-- Node34 -->
<g id="node2" class="node">
<title>Node34</title>
<g id="a_node2"><a xlink:href="proto_8c.html#aeeb0162a48bf377e468e5fca672a5df1" target="_top" xlink:title="PROTO_AddRb">
<polygon fill="#ffffff" stroke="#000000" points="118,-76.5 118,-95.5 206,-95.5 206,-76.5 118,-76.5"/>
<text text-anchor="middle" x="162" y="-83.5" font-family="Helvetica,sans-Serif" font-size="10.00" fill="#000000">PROTO_AddRb</text>
</a>
</g>
</g>
<!-- Node33&#45;&gt;Node34 -->
<g id="edge1" class="edge">
<title>Node33&#45;&gt;Node34</title>
<path fill="none" stroke="#191970" d="M92.4896,-86C100.9772,-86 109.7068,-86 117.99,-86"/>
<polygon fill="#191970" stroke="#191970" points="92.3029,-82.5001 82.3029,-86 92.3029,-89.5001 92.3029,-82.5001"/>
</g>
<!-- Node35 -->
<g id="node3" class="node">
<title>Node35</title>
<g id="a_node3"><a xlink:href="queue_8c.html#a0a04f14d06c5c3ee302764c5f3d7dc0c" target="_top" xlink:title="QUEUE_Puts">
<polygon fill="#ffffff" stroke="#000000" points="242,-76.5 242,-95.5 320,-95.5 320,-76.5 242,-76.5"/>
<text text-anchor="middle" x="281" y="-83.5" font-family="Helvetica,sans-Serif" font-size="10.00" fill="#000000">QUEUE_Puts</text>
</a>
</g>
</g>
<!-- Node34&#45;&gt;Node35 -->
<g id="edge2" class="edge">
<title>Node34&#45;&gt;Node35</title>
<path fill="none" stroke="#191970" d="M216.5578,-86C225.0517,-86 233.6808,-86 241.7464,-86"/>
<polygon fill="#191970" stroke="#191970" points="216.3112,-82.5001 206.3112,-86 216.3112,-89.5001 216.3112,-82.5001"/>
</g>
<!-- Node36 -->
<g id="node4" class="node">
<title>Node36</title>
<g id="a_node4"><a xlink:href="mqtt_8c.html#af470856972320b9c02da9fcb6f419fd0" target="_top" xlink:title="Client received callback function. ">
<polygon fill="#ffffff" stroke="#000000" points="358.5,-38.5 358.5,-57.5 461.5,-57.5 461.5,-38.5 358.5,-38.5"/>
<text text-anchor="middle" x="410" y="-45.5" font-family="Helvetica,sans-Serif" font-size="10.00" fill="#000000">mqtt_tcpclient_recv</text>
</a>
</g>
</g>
<!-- Node35&#45;&gt;Node36 -->
<g id="edge3" class="edge">
<title>Node35&#45;&gt;Node36</title>
<path fill="none" stroke="#191970" d="M323.554,-73.4647C341.103,-68.2952 361.1127,-62.4009 377.4583,-57.5859"/>
<polygon fill="#191970" stroke="#191970" points="322.1556,-70.2279 313.5521,-76.411 324.1336,-76.9426 322.1556,-70.2279"/>
</g>
<!-- Node45 -->
<g id="node13" class="node">
<title>Node45</title>
<g id="a_node13"><a xlink:href="mqtt_8c.html#a848a6701c4c7ec3432e38ea57c003aad" target="_top" xlink:title="MQTT publish function. ">
<polygon fill="#ffffff" stroke="#000000" points="368.5,-228.5 368.5,-247.5 451.5,-247.5 451.5,-228.5 368.5,-228.5"/>
<text text-anchor="middle" x="410" y="-235.5" font-family="Helvetica,sans-Serif" font-size="10.00" fill="#000000">MQTT_Publish</text>
</a>
</g>
</g>
<!-- Node35&#45;&gt;Node45 -->
<g id="edge13" class="edge">
<title>Node35&#45;&gt;Node45</title>
<path fill="none" stroke="#191970" d="M295.5983,-103.2011C322.8601,-135.3236 380.6708,-203.4415 401.9335,-228.4953"/>
<polygon fill="#191970" stroke="#191970" points="298.2087,-100.8679 289.0695,-95.5083 292.8717,-105.3974 298.2087,-100.8679"/>
</g>
<!-- Node57 -->
<g id="node25" class="node">
<title>Node57</title>
<g id="a_node25"><a xlink:href="mqtt_8c.html#a86f8adfe29d6ec8bb5070fd030540d2f" target="_top" xlink:title="MQTT subscibe function. ">
<polygon fill="#ffffff" stroke="#000000" points="362.5,-124.5 362.5,-143.5 457.5,-143.5 457.5,-124.5 362.5,-124.5"/>
<text text-anchor="middle" x="410" y="-131.5" font-family="Helvetica,sans-Serif" font-size="10.00" fill="#000000">MQTT_Subscribe</text>
</a>
</g>
</g>
<!-- Node35&#45;&gt;Node57 -->
<g id="edge35" class="edge">
<title>Node35&#45;&gt;Node57</title>
<path fill="none" stroke="#191970" d="M316.2404,-99.1127C337.7428,-107.1136 364.7502,-117.1629 384.2497,-124.4185"/>
<polygon fill="#191970" stroke="#191970" points="317.3878,-95.8053 306.795,-95.5982 314.9467,-102.3658 317.3878,-95.8053"/>
</g>
<!-- Node58 -->
<g id="node26" class="node">
<title>Node58</title>
<g id="a_node26"><a xlink:href="mqtt_8c.html#a7f28cd912dae4c1386c10026a267b579" target="_top" xlink:title="MQTT un&#45;subscibe function. ">
<polygon fill="#ffffff" stroke="#000000" points="356,-.5 356,-19.5 464,-19.5 464,-.5 356,-.5"/>
<text text-anchor="middle" x="410" y="-7.5" font-family="Helvetica,sans-Serif" font-size="10.00" fill="#000000">MQTT_UnSubscribe</text>
</a>
</g>
</g>
<!-- Node35&#45;&gt;Node58 -->
<g id="edge37" class="edge">
<title>Node35&#45;&gt;Node58</title>
<path fill="none" stroke="#191970" d="M299.1619,-69.6038C313.7008,-57.144 335.057,-40.2812 356,-29 362.7373,-25.3709 370.307,-22.206 377.5989,-19.5544"/>
<polygon fill="#191970" stroke="#191970" points="296.6658,-67.1371 291.444,-76.3557 301.2749,-72.4056 296.6658,-67.1371"/>
</g>
<!-- Node59 -->
<g id="node27" class="node">
<title>Node59</title>
<g id="a_node27"><a xlink:href="mqtt_8c.html#a086502e2dd36681a7fb4d9a9018cfc88" target="_top" xlink:title="MQTT ping function. ">
<polygon fill="#ffffff" stroke="#000000" points="375,-76.5 375,-95.5 445,-95.5 445,-76.5 375,-76.5"/>
<text text-anchor="middle" x="410" y="-83.5" font-family="Helvetica,sans-Serif" font-size="10.00" fill="#000000">MQTT_Ping</text>
</a>
</g>
</g>
<!-- Node35&#45;&gt;Node59 -->
<g id="edge38" class="edge">
<title>Node35&#45;&gt;Node59</title>
<path fill="none" stroke="#191970" d="M330.0823,-86C344.8929,-86 360.8556,-86 374.5916,-86"/>
<polygon fill="#191970" stroke="#191970" points="330.0544,-82.5001 320.0543,-86 330.0543,-89.5001 330.0544,-82.5001"/>
</g>
<!-- Node37 -->
<g id="node5" class="node">
<title>Node37</title>
<g id="a_node5"><a xlink:href="mqtt_8c.html#a36ecd969af1b9c87856f01be064a98cc" target="_top" xlink:title="Tcp client connect success callback function. ">
<polygon fill="#ffffff" stroke="#000000" points="500,-19.5 500,-38.5 635,-38.5 635,-19.5 500,-19.5"/>
<text text-anchor="middle" x="567.5" y="-26.5" font-family="Helvetica,sans-Serif" font-size="10.00" fill="#000000">mqtt_tcpclient_connect_cb</text>
</a>
</g>
</g>
<!-- Node36&#45;&gt;Node37 -->
<g id="edge4" class="edge">
<title>Node36&#45;&gt;Node37</title>
<path fill="none" stroke="#191970" d="M471.7743,-40.5479C480.958,-39.44 490.4651,-38.2931 499.7632,-37.1714"/>
<polygon fill="#191970" stroke="#191970" points="471.0802,-37.1061 461.5714,-41.7787 471.9186,-44.0557 471.0802,-37.1061"/>
</g>
<!-- Node38 -->
<g id="node6" class="node">
<title>Node38</title>
<g id="a_node6"><a xlink:href="mqtt_8c.html#ad34b681cb2f7473d8fc786c7ed468db5" target="_top" xlink:title="Begin connect to MQTT broker. ">
<polygon fill="#ffffff" stroke="#000000" points="683,-57.5 683,-76.5 771,-76.5 771,-57.5 683,-57.5"/>
<text text-anchor="middle" x="727" y="-64.5" font-family="Helvetica,sans-Serif" font-size="10.00" fill="#000000">MQTT_Connect</text>
</a>
</g>
</g>
<!-- Node37&#45;&gt;Node38 -->
<g id="edge5" class="edge">
<title>Node37&#45;&gt;Node38</title>
<path fill="none" stroke="#191970" d="M617.734,-40.968C640.0855,-46.2931 666.0383,-52.4762 687.0408,-57.4799"/>
<polygon fill="#191970" stroke="#191970" points="618.2875,-37.502 607.7486,-38.589 616.6651,-44.3114 618.2875,-37.502"/>
</g>
<!-- Node39 -->
<g id="node7" class="node">
<title>Node39</title>
<g id="a_node7"><a xlink:href="mqtt_8c.html#a9d88fa6efb9163d4dbf9dc750a8d4ed0" target="_top" xlink:title="MQTT_Task">
<polygon fill="#ffffff" stroke="#000000" points="844.5,-57.5 844.5,-76.5 916.5,-76.5 916.5,-57.5 844.5,-57.5"/>
<text text-anchor="middle" x="880.5" y="-64.5" font-family="Helvetica,sans-Serif" font-size="10.00" fill="#000000">MQTT_Task</text>
</a>
</g>
</g>
<!-- Node38&#45;&gt;Node39 -->
<g id="edge6" class="edge">
<title>Node38&#45;&gt;Node39</title>
<path fill="none" stroke="#191970" d="M781.4411,-67C802.3567,-67 825.6931,-67 844.4596,-67"/>
<polygon fill="#191970" stroke="#191970" points="781.3986,-63.5001 771.3986,-67 781.3985,-70.5001 781.3986,-63.5001"/>
</g>
<!-- Node44 -->
<g id="node12" class="node">
<title>Node44</title>
<g id="a_node12"><a xlink:href="user__main_8h.html#a7a3bf0cc09d98adc72f4e34d26ce3fa1" target="_top" xlink:title="wifi_changed_cb">
<polygon fill="#ffffff" stroke="#000000" points="1009.5,-114.5 1009.5,-133.5 1100.5,-133.5 1100.5,-114.5 1009.5,-114.5"/>
<text text-anchor="middle" x="1055" y="-121.5" font-family="Helvetica,sans-Serif" font-size="10.00" fill="#000000">wifi_changed_cb</text>
</a>
</g>
</g>
<!-- Node38&#45;&gt;Node44 -->
<g id="edge11" class="edge">
<title>Node38&#45;&gt;Node44</title>
<path fill="none" stroke="#191970" d="M781.5144,-78.6713C793.823,-81.1914 806.844,-83.7672 819,-86 884.9197,-98.108 961.5914,-110.0624 1009.2141,-117.2383"/>
<polygon fill="#191970" stroke="#191970" points="781.8788,-75.1727 771.3774,-76.5763 780.462,-82.0278 781.8788,-75.1727"/>
</g>
<!-- Node40 -->
<g id="node8" class="node">
<title>Node40</title>
<g id="a_node8"><a xlink:href="mqtt_8c.html#a25cb7ac079d1d119250dac075c45acf1" target="_top" xlink:title="MQTT initialization mqtt client function. ">
<polygon fill="#ffffff" stroke="#000000" points="1010.5,-67.5 1010.5,-86.5 1099.5,-86.5 1099.5,-67.5 1010.5,-67.5"/>
<text text-anchor="middle" x="1055" y="-74.5" font-family="Helvetica,sans-Serif" font-size="10.00" fill="#000000">MQTT_InitClient</text>
</a>
</g>
</g>
<!-- Node39&#45;&gt;Node40 -->
<g id="edge7" class="edge">
<title>Node39&#45;&gt;Node40</title>
<path fill="none" stroke="#191970" d="M926.9364,-69.6611C952.7331,-71.1394 984.6743,-72.9699 1010.2036,-74.4329"/>
<polygon fill="#191970" stroke="#191970" points="926.8404,-66.15 916.6565,-69.072 926.4399,-73.1385 926.8404,-66.15"/>
</g>
<!-- Node41 -->
<g id="node9" class="node">
<title>Node41</title>
<g id="a_node9"><a xlink:href="user__main_8c.html#a245ec00253f410a8804988bf40e1037e" target="_top" xlink:title="sample_mode_timer_func">
<polygon fill="#ffffff" stroke="#000000" points="1168,-152.5 1168,-171.5 1300,-171.5 1300,-152.5 1168,-152.5"/>
<text text-anchor="middle" x="1234" y="-159.5" font-family="Helvetica,sans-Serif" font-size="10.00" fill="#000000">sample_mode_timer_func</text>
</a>
</g>
</g>
<!-- Node40&#45;&gt;Node41 -->
<g id="edge8" class="edge">
<title>Node40&#45;&gt;Node41</title>
<path fill="none" stroke="#191970" d="M1094.2242,-89.8884C1106.4883,-94.2825 1119.9569,-99.4887 1132,-105 1163.7271,-119.5193 1198.8653,-140.259 1218.5089,-152.3062"/>
<polygon fill="#191970" stroke="#191970" points="1095.292,-86.554 1084.6971,-86.5483 1092.976,-93.1598 1095.292,-86.554"/>
</g>
<!-- Node42 -->
<g id="node10" class="node">
<title>Node42</title>
<g id="a_node10"><a xlink:href="user__main_8h.html#a3671381db669a16e8f6a4bf3dfb9a441" target="_top" xlink:title="system_init_done">
<polygon fill="#ffffff" stroke="#000000" points="1336,-259.5 1336,-278.5 1430,-278.5 1430,-259.5 1336,-259.5"/>
<text text-anchor="middle" x="1383" y="-266.5" font-family="Helvetica,sans-Serif" font-size="10.00" fill="#000000">system_init_done</text>
</a>
</g>
</g>
<!-- Node41&#45;&gt;Node42 -->
<g id="edge9" class="edge">
<title>Node41&#45;&gt;Node42</title>
<path fill="none" stroke="#191970" d="M1255.978,-177.7829C1287.3312,-200.2982 1343.9431,-240.9524 1369.6523,-259.4147"/>
<polygon fill="#191970" stroke="#191970" points="1257.6497,-174.6744 1247.4855,-171.6843 1253.5666,-180.3602 1257.6497,-174.6744"/>
</g>
<!-- Node43 -->
<g id="node11" class="node">
<title>Node43</title>
<g id="a_node11"><a xlink:href="user__main_8h.html#a33113d6dedb440bd7dfa5576e325140c" target="_top" xlink:title="user_init">
<polygon fill="#ffffff" stroke="#000000" points="1466,-335.5 1466,-354.5 1520,-354.5 1520,-335.5 1466,-335.5"/>
<text text-anchor="middle" x="1493" y="-342.5" font-family="Helvetica,sans-Serif" font-size="10.00" fill="#000000">user_init</text>
</a>
</g>
</g>
<!-- Node42&#45;&gt;Node43 -->
<g id="edge10" class="edge">
<title>Node42&#45;&gt;Node43</title>
<path fill="none" stroke="#191970" d="M1405.38,-284.4626C1427.5007,-299.7459 1460.644,-322.6449 1479.1815,-335.4527"/>
<polygon fill="#191970" stroke="#191970" points="1407.1484,-281.4303 1396.9316,-278.6255 1403.1694,-287.1894 1407.1484,-281.4303"/>
</g>
<!-- Node44&#45;&gt;Node41 -->
<g id="edge12" class="edge">
<title>Node44&#45;&gt;Node41</title>
<path fill="none" stroke="#191970" d="M1110.0236,-135.681C1135.4082,-141.0699 1165.1607,-147.3861 1189.1556,-152.4799"/>
<polygon fill="#191970" stroke="#191970" points="1110.6781,-132.242 1100.1693,-133.589 1109.2244,-139.0894 1110.6781,-132.242"/>
</g>
<!-- Node46 -->
<g id="node14" class="node">
<title>Node46</title>
<g id="a_node14"><a xlink:href="en61107__request_8c.html#aa3b162cf5364986ea19e831ac2b18f76" target="_top" xlink:title="en61107_received_task">
<polygon fill="#ffffff" stroke="#000000" points="819,-373.5 819,-392.5 942,-392.5 942,-373.5 819,-373.5"/>
<text text-anchor="middle" x="880.5" y="-380.5" font-family="Helvetica,sans-Serif" font-size="10.00" fill="#000000">en61107_received_task</text>
</a>
</g>
</g>
<!-- Node45&#45;&gt;Node46 -->
<g id="edge14" class="edge">
<title>Node45&#45;&gt;Node46</title>
<path fill="none" stroke="#191970" d="M417.4917,-256.8501C429.8819,-285.189 457.5672,-337.9053 500,-361 607.0839,-419.2821 757.1269,-405.066 832.8213,-392.5189"/>
<polygon fill="#191970" stroke="#191970" points="420.7134,-255.4822 413.6199,-247.6124 414.2575,-258.1881 420.7134,-255.4822"/>
</g>
<!-- Node48 -->
<g id="node16" class="node">
<title>Node48</title>
<g id="a_node16"><a xlink:href="en61107__request_8h.html#a7384d014eb9e833f64ecf4a9f86f87be" target="_top" xlink:title="en61107_request_send">
<polygon fill="#ffffff" stroke="#000000" points="506.5,-171.5 506.5,-190.5 628.5,-190.5 628.5,-171.5 506.5,-171.5"/>
<text text-anchor="middle" x="567.5" y="-178.5" font-family="Helvetica,sans-Serif" font-size="10.00" fill="#000000">en61107_request_send</text>
</a>
</g>
</g>
<!-- Node45&#45;&gt;Node48 -->
<g id="edge17" class="edge">
<title>Node45&#45;&gt;Node48</title>
<path fill="none" stroke="#191970" d="M445.7605,-224.7963C462.2589,-218.7282 482.1116,-211.4595 500,-205 513.3359,-200.1844 528.1799,-194.8984 540.5444,-190.5159"/>
<polygon fill="#191970" stroke="#191970" points="444.1438,-221.6618 435.969,-228.4014 446.5624,-228.2307 444.1438,-221.6618"/>
</g>
<!-- Node49 -->
<g id="node17" class="node">
<title>Node49</title>
<g id="a_node17"><a xlink:href="user__main_8c.html#af2c051d5ceacd30f90c08d6f584deff2" target="_top" xlink:title="sample_timer_func">
<polygon fill="#ffffff" stroke="#000000" points="676.5,-171.5 676.5,-190.5 777.5,-190.5 777.5,-171.5 676.5,-171.5"/>
<text text-anchor="middle" x="727" y="-178.5" font-family="Helvetica,sans-Serif" font-size="10.00" fill="#000000">sample_timer_func</text>
</a>
</g>
</g>
<!-- Node45&#45;&gt;Node49 -->
<g id="edge31" class="edge">
<title>Node45&#45;&gt;Node49</title>
<path fill="none" stroke="#191970" d="M461.5058,-229.8475C507.1717,-222.4892 575.6345,-211.1394 635,-200 650.5486,-197.0824 667.5228,-193.648 682.6098,-190.5073"/>
<polygon fill="#191970" stroke="#191970" points="460.868,-226.405 451.5497,-231.4467 461.9782,-233.3164 460.868,-226.405"/>
</g>
<!-- Node50 -->
<g id="node18" class="node">
<title>Node50</title>
<g id="a_node18"><a xlink:href="user__main_8h.html#ad6eb800c4d7f9c79df52949d88a18d06" target="_top" xlink:title="mqtt_connected_cb">
<polygon fill="#ffffff" stroke="#000000" points="828.5,-133.5 828.5,-152.5 932.5,-152.5 932.5,-133.5 828.5,-133.5"/>
<text text-anchor="middle" x="880.5" y="-140.5" font-family="Helvetica,sans-Serif" font-size="10.00" fill="#000000">mqtt_connected_cb</text>
</a>
</g>
</g>
<!-- Node45&#45;&gt;Node50 -->
<g id="edge32" class="edge">
<title>Node45&#45;&gt;Node50</title>
<path fill="none" stroke="#191970" d="M424.2009,-220.6314C440.3751,-202.2921 468.6529,-174.3599 500,-162 610.4482,-118.4511 753.0798,-126.6315 828.4617,-135.4095"/>
<polygon fill="#191970" stroke="#191970" points="421.49,-218.4163 417.6537,-228.2922 426.8114,-222.9642 421.49,-218.4163"/>
</g>
<!-- Node51 -->
<g id="node19" class="node">
<title>Node51</title>
<g id="a_node19"><a xlink:href="kmp__request_8c.html#a3f6b790a06b933b78f40ade5e9a16131" target="_top" xlink:title="kmp_received_task">
<polygon fill="#ffffff" stroke="#000000" points="516,-332.5 516,-351.5 619,-351.5 619,-332.5 516,-332.5"/>
<text text-anchor="middle" x="567.5" y="-339.5" font-family="Helvetica,sans-Serif" font-size="10.00" fill="#000000">kmp_received_task</text>
</a>
</g>
</g>
<!-- Node45&#45;&gt;Node51 -->
<g id="edge22" class="edge">
<title>Node45&#45;&gt;Node51</title>
<path fill="none" stroke="#191970" d="M427.4726,-254.8096C444.8524,-270.9169 472.7843,-295.1944 500,-312 513.0937,-320.0853 528.7436,-327.1824 541.6762,-332.4412"/>
<polygon fill="#191970" stroke="#191970" points="429.5195,-251.9299 419.8377,-247.6273 424.7232,-257.0285 429.5195,-251.9299"/>
</g>
<!-- Node53 -->
<g id="node21" class="node">
<title>Node53</title>
<g id="a_node21"><a xlink:href="kmp__request_8h.html#a3b022dcdc832786eb06126b5e6879604" target="_top" xlink:title="kmp_request_send">
<polygon fill="#ffffff" stroke="#000000" points="516.5,-247.5 516.5,-266.5 618.5,-266.5 618.5,-247.5 516.5,-247.5"/>
<text text-anchor="middle" x="567.5" y="-254.5" font-family="Helvetica,sans-Serif" font-size="10.00" fill="#000000">kmp_request_send</text>
</a>
</g>
</g>
<!-- Node45&#45;&gt;Node53 -->
<g id="edge25" class="edge">
<title>Node45&#45;&gt;Node53</title>
<path fill="none" stroke="#191970" d="M461.821,-244.2514C479.2988,-246.3599 498.7885,-248.711 516.224,-250.8143"/>
<polygon fill="#191970" stroke="#191970" points="462.1408,-240.7647 451.7936,-243.0418 461.3024,-247.7143 462.1408,-240.7647"/>
</g>
<!-- Node56 -->
<g id="node24" class="node">
<title>Node56</title>
<g id="a_node24"><a xlink:href="user__main_8h.html#a6e5f80dd3fa3d07976a27c859e1aaadf" target="_top" xlink:title="mqtt_data_cb">
<polygon fill="#ffffff" stroke="#000000" points="688.5,-297.5 688.5,-316.5 765.5,-316.5 765.5,-297.5 688.5,-297.5"/>
<text text-anchor="middle" x="727" y="-304.5" font-family="Helvetica,sans-Serif" font-size="10.00" fill="#000000">mqtt_data_cb</text>
</a>
</g>
</g>
<!-- Node45&#45;&gt;Node56 -->
<g id="edge33" class="edge">
<title>Node45&#45;&gt;Node56</title>
<path fill="none" stroke="#191970" d="M437.8432,-252.0128C455.2875,-260.2181 478.4702,-270.0966 500,-276 564.636,-293.723 642.5283,-301.5455 688.2238,-304.8224"/>
<polygon fill="#191970" stroke="#191970" points="439.3186,-248.8386 428.7892,-247.6623 436.2868,-255.1481 439.3186,-248.8386"/>
</g>
<!-- Node47 -->
<g id="node15" class="node">
<title>Node47</title>
<g id="a_node15"><a xlink:href="en61107__request_8h.html#acd43242675a3f25e7c3b530eac9d8b3a" target="_top" xlink:title="en61107_request_init">
<polygon fill="#ffffff" stroke="#000000" points="1177.5,-373.5 1177.5,-392.5 1290.5,-392.5 1290.5,-373.5 1177.5,-373.5"/>
<text text-anchor="middle" x="1234" y="-380.5" font-family="Helvetica,sans-Serif" font-size="10.00" fill="#000000">en61107_request_init</text>
</a>
</g>
</g>
<!-- Node46&#45;&gt;Node47 -->
<g id="edge15" class="edge">
<title>Node46&#45;&gt;Node47</title>
<path fill="none" stroke="#191970" d="M952.4561,-383C1018.8544,-383 1116.1347,-383 1177.2164,-383"/>
<polygon fill="#191970" stroke="#191970" points="952.075,-379.5001 942.075,-383 952.075,-386.5001 952.075,-379.5001"/>
</g>
<!-- Node47&#45;&gt;Node43 -->
<g id="edge16" class="edge">
<title>Node47&#45;&gt;Node43</title>
<path fill="none" stroke="#191970" d="M1301.0624,-379.7648C1339.1407,-377.115 1387.5381,-372.3767 1430,-364 1441.8806,-361.6563 1454.7237,-357.9959 1465.6955,-354.5111"/>
<polygon fill="#191970" stroke="#191970" points="1300.3559,-376.3039 1290.6095,-380.4581 1300.8192,-383.2886 1300.3559,-376.3039"/>
</g>
<!-- Node48&#45;&gt;Node49 -->
<g id="edge18" class="edge">
<title>Node48&#45;&gt;Node49</title>
<path fill="none" stroke="#191970" d="M638.7731,-181C651.4278,-181 664.3705,-181 676.3072,-181"/>
<polygon fill="#191970" stroke="#191970" points="638.7107,-177.5001 628.7107,-181 638.7107,-184.5001 638.7107,-177.5001"/>
</g>
<!-- Node49&#45;&gt;Node50 -->
<g id="edge19" class="edge">
<title>Node49&#45;&gt;Node50</title>
<path fill="none" stroke="#191970" d="M775.6352,-168.96C797.0799,-163.6512 821.9226,-157.5012 842.044,-152.5201"/>
<polygon fill="#191970" stroke="#191970" points="774.6004,-165.6104 765.7345,-171.411 776.2826,-172.4053 774.6004,-165.6104"/>
</g>
<!-- Node50&#45;&gt;Node41 -->
<g id="edge20" class="edge">
<title>Node50&#45;&gt;Node41</title>
<path fill="none" stroke="#191970" d="M942.8752,-146.3526C1006.0078,-149.7458 1103.2624,-154.9731 1167.7492,-158.4391"/>
<polygon fill="#191970" stroke="#191970" points="942.8336,-142.8454 932.6601,-145.8035 942.4578,-149.8353 942.8336,-142.8454"/>
</g>
<!-- Node50&#45;&gt;Node44 -->
<g id="edge21" class="edge">
<title>Node50&#45;&gt;Node44</title>
<path fill="none" stroke="#191970" d="M943.0812,-136.186C965.0141,-133.7979 989.213,-131.1631 1009.4815,-128.9562"/>
<polygon fill="#191970" stroke="#191970" points="942.4181,-132.7374 932.8558,-137.2994 943.1759,-139.6963 942.4181,-132.7374"/>
</g>
<!-- Node52 -->
<g id="node20" class="node">
<title>Node52</title>
<g id="a_node20"><a xlink:href="kmp__request_8h.html#a048753ff9d6b448e2dcd8c85db0d6873" target="_top" xlink:title="kmp_request_init">
<polygon fill="#ffffff" stroke="#000000" points="1336.5,-335.5 1336.5,-354.5 1429.5,-354.5 1429.5,-335.5 1336.5,-335.5"/>
<text text-anchor="middle" x="1383" y="-342.5" font-family="Helvetica,sans-Serif" font-size="10.00" fill="#000000">kmp_request_init</text>
</a>
</g>
</g>
<!-- Node51&#45;&gt;Node52 -->
<g id="edge23" class="edge">
<title>Node51&#45;&gt;Node52</title>
<path fill="none" stroke="#191970" d="M629.1901,-342.94C692.3173,-343.8199 793.2464,-345 880.5,-345 880.5,-345 880.5,-345 1055,-345 1155.2222,-345 1272.6701,-345 1336.2878,-345"/>
<polygon fill="#191970" stroke="#191970" points="629.056,-339.4378 619.0075,-342.7961 628.957,-346.4371 629.056,-339.4378"/>
</g>
<!-- Node52&#45;&gt;Node43 -->
<g id="edge24" class="edge">
<title>Node52&#45;&gt;Node43</title>
<path fill="none" stroke="#191970" d="M1439.8131,-345C1448.8361,-345 1457.7941,-345 1465.7141,-345"/>
<polygon fill="#191970" stroke="#191970" points="1439.6499,-341.5001 1429.6499,-345 1439.6499,-348.5001 1439.6499,-341.5001"/>
</g>
<!-- Node53&#45;&gt;Node49 -->
<g id="edge28" class="edge">
<title>Node53&#45;&gt;Node49</title>
<path fill="none" stroke="#191970" d="M612.1895,-243.9745C620.0456,-240.8914 627.9544,-237.2404 635,-233 653.5967,-221.8075 652.3225,-211.0572 671,-200 677.3608,-196.2343 684.5734,-193.0839 691.6554,-190.5006"/>
<polygon fill="#191970" stroke="#191970" points="610.8789,-240.7271 602.6945,-247.4551 613.2882,-247.2995 610.8789,-240.7271"/>
</g>
<!-- Node54 -->
<g id="node22" class="node">
<title>Node54</title>
<g id="a_node22"><a xlink:href="kmp__request_8c.html#a0977a4640a97d389ac3b0fef0ba7a9b6" target="_top" xlink:title="kmp_receive_timeout\l_timer_func">
<polygon fill="#ffffff" stroke="#000000" points="671,-210 671,-240 783,-240 783,-210 671,-210"/>
<text text-anchor="start" x="679" y="-228" font-family="Helvetica,sans-Serif" font-size="10.00" fill="#000000">kmp_receive_timeout</text>
<text text-anchor="middle" x="727" y="-217" font-family="Helvetica,sans-Serif" font-size="10.00" fill="#000000">_timer_func</text>
</a>
</g>
</g>
<!-- Node53&#45;&gt;Node54 -->
<g id="edge26" class="edge">
<title>Node53&#45;&gt;Node54</title>
<path fill="none" stroke="#191970" d="M600.3837,-244.8192C620.6491,-239.604 647.1724,-233.9827 670.7049,-229.8108"/>
<polygon fill="#191970" stroke="#191970" points="599.4444,-241.4474 590.6927,-247.4188 601.258,-248.2084 599.4444,-241.4474"/>
</g>
<!-- Node55 -->
<g id="node23" class="node">
<title>Node55</title>
<g id="a_node23"><a xlink:href="user__main_8c.html#a3648c609e8dd286eb90285b08b150362" target="_top" xlink:title="kmp_request_send_timer_func">
<polygon fill="#ffffff" stroke="#000000" points="978,-259.5 978,-278.5 1132,-278.5 1132,-259.5 978,-259.5"/>
<text text-anchor="middle" x="1055" y="-266.5" font-family="Helvetica,sans-Serif" font-size="10.00" fill="#000000">kmp_request_send_timer_func</text>
</a>
</g>
</g>
<!-- Node53&#45;&gt;Node55 -->
<g id="edge29" class="edge">
<title>Node53&#45;&gt;Node55</title>
<path fill="none" stroke="#191970" d="M628.91,-258.5116C717.4917,-260.6921 881.0741,-264.7187 977.7426,-267.0983"/>
<polygon fill="#191970" stroke="#191970" points="628.8328,-255.0088 618.7496,-258.2615 628.6605,-262.0066 628.8328,-255.0088"/>
</g>
<!-- Node54&#45;&gt;Node53 -->
<g id="edge27" class="edge">
<title>Node54&#45;&gt;Node53</title>
<path fill="none" stroke="#191970" d="M672.7059,-242.3274C655.2832,-246.2688 636.0495,-250.1007 618.8448,-253.0529"/>
<polygon fill="#191970" stroke="#191970" points="673.7772,-245.6719 682.7259,-240 672.1933,-238.8534 673.7772,-245.6719"/>
</g>
<!-- Node55&#45;&gt;Node42 -->
<g id="edge30" class="edge">
<title>Node55&#45;&gt;Node42</title>
<path fill="none" stroke="#191970" d="M1142.4856,-269C1204.4742,-269 1285.2605,-269 1335.6296,-269"/>
<polygon fill="#191970" stroke="#191970" points="1142.3161,-265.5001 1132.3161,-269 1142.316,-272.5001 1142.3161,-265.5001"/>
</g>
<!-- Node56&#45;&gt;Node41 -->
<g id="edge34" class="edge">
<title>Node56&#45;&gt;Node41</title>
<path fill="none" stroke="#191970" d="M775.8191,-316.9039C855.3158,-330.4686 1015.5483,-346.9452 1132,-288 1183.728,-261.8165 1218.2535,-196.1843 1229.7667,-171.5455"/>
<polygon fill="#191970" stroke="#191970" points="776.0672,-313.3937 765.6109,-315.1015 774.85,-320.287 776.0672,-313.3937"/>
</g>
<!-- Node57&#45;&gt;Node50 -->
<g id="edge36" class="edge">
<title>Node57&#45;&gt;Node50</title>
<path fill="none" stroke="#191970" d="M467.7132,-135.104C560.0748,-136.8707 739.6977,-140.3067 828.3859,-142.0031"/>
<polygon fill="#191970" stroke="#191970" points="467.7684,-131.6045 457.7033,-134.9125 467.6345,-138.6032 467.7684,-131.6045"/>
</g>
<!-- Node59&#45;&gt;Node49 -->
<g id="edge39" class="edge">
<title>Node59&#45;&gt;Node49</title>
<path fill="none" stroke="#191970" d="M451.6343,-98.4772C515.8126,-117.7104 637.5146,-154.1826 695.1746,-171.4624"/>
<polygon fill="#191970" stroke="#191970" points="452.4304,-95.062 441.8466,-95.5439 450.4209,-101.7674 452.4304,-95.062"/>
</g>
</g>
</svg>
