<?xml version="1.0" encoding="UTF-8" standalone="no"?>
<!DOCTYPE svg PUBLIC "-//W3C//DTD SVG 1.1//EN"
 "http://www.w3.org/Graphics/SVG/1.1/DTD/svg11.dtd">
<!-- Generated by graphviz version 2.41.20170323.1842 (20170323.1842)
 -->
<!-- Title: espconn_connect Pages: 1 -->
<svg width="1016pt" height="376pt"
 viewBox="0.00 0.00 1016.00 376.00" xmlns="http://www.w3.org/2000/svg" xmlns:xlink="http://www.w3.org/1999/xlink">
<g id="graph0" class="graph" transform="scale(1 1) rotate(0) translate(4 372)">
<title>espconn_connect</title>
<polygon fill="#ffffff" stroke="transparent" points="-4,4 -4,-372 1012,-372 1012,4 -4,4"/>
<!-- Node46 -->
<g id="node1" class="node">
<title>Node46</title>
<polygon fill="#bfbfbf" stroke="#000000" points="0,-196.5 0,-215.5 95,-215.5 95,-196.5 0,-196.5"/>
<text text-anchor="middle" x="47.5" y="-203.5" font-family="Helvetica,sans-Serif" font-size="10.00" fill="#000000">espconn_connect</text>
</g>
<!-- Node47 -->
<g id="node2" class="node">
<title>Node47</title>
<g id="a_node2"><a xlink:href="espconn_8c.html#ae5000d1d33ba36e92e160967db25538c" target="_top" xlink:title="espconn_get_acticve_num">
<polygon fill="#ffffff" stroke="#000000" points="133,-291.5 133,-310.5 268,-310.5 268,-291.5 133,-291.5"/>
<text text-anchor="middle" x="200.5" y="-298.5" font-family="Helvetica,sans-Serif" font-size="10.00" fill="#000000">espconn_get_acticve_num</text>
</a>
</g>
</g>
<!-- Node46&#45;&gt;Node47 -->
<g id="edge1" class="edge">
<title>Node46&#45;&gt;Node47</title>
<path fill="none" stroke="#191970" d="M55.4274,-215.7388C69.1298,-231.9285 98.8778,-264.3415 131,-282 135.1654,-284.2899 139.6256,-286.3185 144.2012,-288.1132"/>
<polygon fill="#191970" stroke="#191970" points="143.1031,-291.4372 153.6979,-291.4767 145.4402,-284.8389 143.1031,-291.4372"/>
</g>
<!-- Node48 -->
<g id="node3" class="node">
<title>Node48</title>
<g id="a_node3"><a xlink:href="espconn__tcp_8h.html#a6563ea7f5ef67d21dd8a986a78ad639d" target="_top" xlink:title="espconn_tcp_client">
<polygon fill="#ffffff" stroke="#000000" points="149.5,-253.5 149.5,-272.5 251.5,-272.5 251.5,-253.5 149.5,-253.5"/>
<text text-anchor="middle" x="200.5" y="-260.5" font-family="Helvetica,sans-Serif" font-size="10.00" fill="#000000">espconn_tcp_client</text>
</a>
</g>
</g>
<!-- Node46&#45;&gt;Node48 -->
<g id="edge2" class="edge">
<title>Node46&#45;&gt;Node48</title>
<path fill="none" stroke="#191970" d="M66.3733,-215.6429C83.0652,-223.9147 108.2335,-235.7677 131,-244 137.4808,-246.3435 144.3911,-248.5582 151.2458,-250.5912"/>
<polygon fill="#191970" stroke="#191970" points="150.6157,-254.0512 161.1925,-253.4334 152.539,-247.3205 150.6157,-254.0512"/>
</g>
<!-- Node67 -->
<g id="node22" class="node">
<title>Node67</title>
<g id="a_node22"><a xlink:href="espconn_8c.html#ad446c0a8ab0982056af706e716e58860" target="_top" xlink:title="espconn_tcp_get_max_con">
<polygon fill="#ffffff" stroke="#000000" points="131,-215.5 131,-234.5 270,-234.5 270,-215.5 131,-215.5"/>
<text text-anchor="middle" x="200.5" y="-222.5" font-family="Helvetica,sans-Serif" font-size="10.00" fill="#000000">espconn_tcp_get_max_con</text>
</a>
</g>
</g>
<!-- Node46&#45;&gt;Node67 -->
<g id="edge24" class="edge">
<title>Node46&#45;&gt;Node67</title>
<path fill="none" stroke="#191970" d="M95.0715,-211.9076C103.2933,-212.9286 112.038,-214.0145 120.8386,-215.1074"/>
<polygon fill="#191970" stroke="#191970" points="120.4184,-218.582 130.7735,-216.3412 121.2811,-211.6354 120.4184,-218.582"/>
</g>
<!-- Node68 -->
<g id="node23" class="node">
<title>Node68</title>
<g id="a_node23"><a xlink:href="user__interface_8h.html#a70c442301412fe5d3711a8f0b8c7b7b5" target="_top" xlink:title="wifi_get_ip_info">
<polygon fill="#ffffff" stroke="#000000" points="158,-177.5 158,-196.5 243,-196.5 243,-177.5 158,-177.5"/>
<text text-anchor="middle" x="200.5" y="-184.5" font-family="Helvetica,sans-Serif" font-size="10.00" fill="#000000">wifi_get_ip_info</text>
</a>
</g>
</g>
<!-- Node46&#45;&gt;Node68 -->
<g id="edge25" class="edge">
<title>Node46&#45;&gt;Node68</title>
<path fill="none" stroke="#191970" d="M95.0715,-200.0924C111.7071,-198.0266 130.483,-195.6949 147.5316,-193.5778"/>
<polygon fill="#191970" stroke="#191970" points="148.3965,-196.9973 157.8889,-192.2916 147.5338,-190.0507 148.3965,-196.9973"/>
</g>
<!-- Node69 -->
<g id="node24" class="node">
<title>Node69</title>
<g id="a_node24"><a xlink:href="user__interface_8h.html#a48d756265c0c1c35ba1fba102efe4d0a" target="_top" xlink:title="wifi_get_opmode">
<polygon fill="#ffffff" stroke="#000000" points="154.5,-139.5 154.5,-158.5 246.5,-158.5 246.5,-139.5 154.5,-139.5"/>
<text text-anchor="middle" x="200.5" y="-146.5" font-family="Helvetica,sans-Serif" font-size="10.00" fill="#000000">wifi_get_opmode</text>
</a>
</g>
</g>
<!-- Node46&#45;&gt;Node69 -->
<g id="edge26" class="edge">
<title>Node46&#45;&gt;Node69</title>
<path fill="none" stroke="#191970" d="M66.3733,-196.3571C83.0652,-188.0853 108.2335,-176.2323 131,-168 137.4808,-165.6565 144.3911,-163.4418 151.2458,-161.4088"/>
<polygon fill="#191970" stroke="#191970" points="152.539,-164.6795 161.1925,-158.5666 150.6157,-157.9488 152.539,-164.6795"/>
</g>
<!-- Node70 -->
<g id="node25" class="node">
<title>Node70</title>
<g id="a_node25"><a xlink:href="user__interface_8h.html#ad61f32757e670d1a2feb7e445992fd1a" target="_top" xlink:title="wifi_station_get_connect\l_status">
<polygon fill="#ffffff" stroke="#000000" points="137.5,-90 137.5,-120 263.5,-120 263.5,-90 137.5,-90"/>
<text text-anchor="start" x="145.5" y="-108" font-family="Helvetica,sans-Serif" font-size="10.00" fill="#000000">wifi_station_get_connect</text>
<text text-anchor="middle" x="200.5" y="-97" font-family="Helvetica,sans-Serif" font-size="10.00" fill="#000000">_status</text>
</a>
</g>
</g>
<!-- Node46&#45;&gt;Node70 -->
<g id="edge27" class="edge">
<title>Node46&#45;&gt;Node70</title>
<path fill="none" stroke="#191970" d="M55.8086,-196.2781C69.8381,-180.403 99.7628,-148.8034 131,-130 134.4245,-127.9386 138.0456,-126.0085 141.7645,-124.2084"/>
<polygon fill="#191970" stroke="#191970" points="143.4598,-127.2841 151.154,-120.0005 140.5971,-120.8962 143.4598,-127.2841"/>
</g>
<!-- Node49 -->
<g id="node4" class="node">
<title>Node49</title>
<g id="a_node4"><a xlink:href="esp-open-lwip_2include_2lwip_2app_2espconn_8h.html#ae65b40a3ff0ee3fe9b764523fa4a3c48" target="_top" xlink:title="espconn_list_creat">
<polygon fill="#ffffff" stroke="#000000" points="318,-348.5 318,-367.5 418,-367.5 418,-348.5 318,-348.5"/>
<text text-anchor="middle" x="368" y="-355.5" font-family="Helvetica,sans-Serif" font-size="10.00" fill="#000000">espconn_list_creat</text>
</a>
</g>
</g>
<!-- Node48&#45;&gt;Node49 -->
<g id="edge3" class="edge">
<title>Node48&#45;&gt;Node49</title>
<path fill="none" stroke="#191970" d="M251.5275,-272.1763C258.1084,-274.6958 264.4701,-277.907 270,-282 294.0837,-299.8257 282.191,-320.8091 306,-339 308.4699,-340.8871 311.1281,-342.5881 313.9054,-344.1213"/>
<polygon fill="#191970" stroke="#191970" points="312.5596,-347.3564 323.0959,-348.4688 315.553,-341.0287 312.5596,-347.3564"/>
</g>
<!-- Node50 -->
<g id="node5" class="node">
<title>Node50</title>
<g id="a_node5"><a xlink:href="espconn__tcp_8c.html#aab11c9904d6b5631c0d57eb1c35a4583" target="_top" xlink:title="espconn_client_err">
<polygon fill="#ffffff" stroke="#000000" points="317.5,-310.5 317.5,-329.5 418.5,-329.5 418.5,-310.5 317.5,-310.5"/>
<text text-anchor="middle" x="368" y="-317.5" font-family="Helvetica,sans-Serif" font-size="10.00" fill="#000000">espconn_client_err</text>
</a>
</g>
</g>
<!-- Node48&#45;&gt;Node50 -->
<g id="edge4" class="edge">
<title>Node48&#45;&gt;Node50</title>
<path fill="none" stroke="#191970" d="M241.4145,-272.5838C250.929,-275.2509 260.9257,-278.4151 270,-282 286.8262,-288.6474 289.2771,-294.0968 306,-301 311.4665,-303.2566 317.3002,-305.3871 323.1202,-307.3483"/>
<polygon fill="#191970" stroke="#191970" points="322.2431,-310.7429 332.8347,-310.4813 324.3917,-304.0807 322.2431,-310.7429"/>
</g>
<!-- Node51 -->
<g id="node6" class="node">
<title>Node51</title>
<g id="a_node6"><a xlink:href="esp-open-lwip_2include_2lwip_2app_2espconn_8h.html#a21fdb0b0c880a693e29905894bd60afb" target="_top" xlink:title="espconn_list_delete">
<polygon fill="#ffffff" stroke="#000000" points="315.5,-272.5 315.5,-291.5 420.5,-291.5 420.5,-272.5 315.5,-272.5"/>
<text text-anchor="middle" x="368" y="-279.5" font-family="Helvetica,sans-Serif" font-size="10.00" fill="#000000">espconn_list_delete</text>
</a>
</g>
</g>
<!-- Node48&#45;&gt;Node51 -->
<g id="edge5" class="edge">
<title>Node48&#45;&gt;Node51</title>
<path fill="none" stroke="#191970" d="M251.6657,-268.8039C268.5547,-270.7196 287.5383,-272.873 305.1947,-274.8758"/>
<polygon fill="#191970" stroke="#191970" points="305.0805,-278.3852 315.4113,-276.0347 305.8695,-271.4298 305.0805,-278.3852"/>
</g>
<!-- Node52 -->
<g id="node7" class="node">
<title>Node52</title>
<g id="a_node7"><a xlink:href="memp_8h.html#a9d30a969401eb0626105950d6e63f3bf" target="_top" xlink:title="memp_free">
<polygon fill="#ffffff" stroke="#000000" points="784.5,-196.5 784.5,-215.5 851.5,-215.5 851.5,-196.5 784.5,-196.5"/>
<text text-anchor="middle" x="818" y="-203.5" font-family="Helvetica,sans-Serif" font-size="10.00" fill="#000000">memp_free</text>
</a>
</g>
</g>
<!-- Node48&#45;&gt;Node52 -->
<g id="edge6" class="edge">
<title>Node48&#45;&gt;Node52</title>
<path fill="none" stroke="#191970" d="M251.7144,-259.9933C345.8351,-254.2047 552.5722,-240.2664 726,-220 741.7761,-218.1564 759.0034,-215.6641 774.2406,-213.2932"/>
<polygon fill="#191970" stroke="#191970" points="775.0993,-216.701 784.4292,-211.6807 774.005,-209.787 775.0993,-216.701"/>
</g>
<!-- Node53 -->
<g id="node8" class="node">
<title>Node53</title>
<g id="a_node8"><a xlink:href="espconn__tcp_8c.html#a86c46016b2975352fa63c06ef75d11dc" target="_top" xlink:title="espconn_client_connect">
<polygon fill="#ffffff" stroke="#000000" points="306,-130.5 306,-149.5 430,-149.5 430,-130.5 306,-130.5"/>
<text text-anchor="middle" x="368" y="-137.5" font-family="Helvetica,sans-Serif" font-size="10.00" fill="#000000">espconn_client_connect</text>
</a>
</g>
</g>
<!-- Node48&#45;&gt;Node53 -->
<g id="edge7" class="edge">
<title>Node48&#45;&gt;Node53</title>
<path fill="none" stroke="#191970" d="M251.73,-253.4698C258.2075,-251.0048 264.487,-247.903 270,-244 292.9417,-227.758 287.0626,-212.7725 306,-192 318.2272,-178.588 333.9027,-165.4701 346.4324,-155.765"/>
<polygon fill="#191970" stroke="#191970" points="348.6699,-158.4608 354.5232,-149.6296 344.4403,-152.8831 348.6699,-158.4608"/>
</g>
<!-- Node66 -->
<g id="node21" class="node">
<title>Node66</title>
<g id="a_node21"><a xlink:href="espconn__tcp_8c.html#a6a055f2ec5c88dec2ad39c0c2690a4a8" target="_top" xlink:title="espconn_kill_pcb">
<polygon fill="#ffffff" stroke="#000000" points="475.5,-196.5 475.5,-215.5 568.5,-215.5 568.5,-196.5 475.5,-196.5"/>
<text text-anchor="middle" x="522" y="-203.5" font-family="Helvetica,sans-Serif" font-size="10.00" fill="#000000">espconn_kill_pcb</text>
</a>
</g>
</g>
<!-- Node48&#45;&gt;Node66 -->
<g id="edge22" class="edge">
<title>Node48&#45;&gt;Node66</title>
<path fill="none" stroke="#191970" d="M238.2256,-253.4536C248.5896,-250.6233 259.7848,-247.3725 270,-244 286.3019,-238.6181 289.3279,-234.0936 306,-230 359.0892,-216.9646 421.2723,-210.9968 465.2509,-208.272"/>
<polygon fill="#191970" stroke="#191970" points="465.6834,-211.7528 475.463,-207.6772 465.2764,-204.7647 465.6834,-211.7528"/>
</g>
<!-- Node54 -->
<g id="node9" class="node">
<title>Node54</title>
<g id="a_node9"><a xlink:href="espconn__tcp_8c.html#a1203a8c81ffd8641243ae4800bfe0d55" target="_top" xlink:title="espconn_client_sent">
<polygon fill="#ffffff" stroke="#000000" points="468,-57.5 468,-76.5 576,-76.5 576,-57.5 468,-57.5"/>
<text text-anchor="middle" x="522" y="-64.5" font-family="Helvetica,sans-Serif" font-size="10.00" fill="#000000">espconn_client_sent</text>
</a>
</g>
</g>
<!-- Node53&#45;&gt;Node54 -->
<g id="edge8" class="edge">
<title>Node53&#45;&gt;Node54</title>
<path fill="none" stroke="#191970" d="M388.1328,-130.4565C414.7646,-117.8324 461.9023,-95.4879 492.5412,-80.9642"/>
<polygon fill="#191970" stroke="#191970" points="494.3253,-83.9919 501.8622,-76.5458 491.3269,-77.6666 494.3253,-83.9919"/>
</g>
<!-- Node59 -->
<g id="node14" class="node">
<title>Node59</title>
<g id="a_node14"><a xlink:href="espconn__tcp_8c.html#a982e86de0cf75d42f72ecc953949e415" target="_top" xlink:title="espconn_client_recv">
<polygon fill="#ffffff" stroke="#000000" points="468,-108.5 468,-127.5 576,-127.5 576,-108.5 468,-108.5"/>
<text text-anchor="middle" x="522" y="-115.5" font-family="Helvetica,sans-Serif" font-size="10.00" fill="#000000">espconn_client_recv</text>
</a>
</g>
</g>
<!-- Node53&#45;&gt;Node59 -->
<g id="edge13" class="edge">
<title>Node53&#45;&gt;Node59</title>
<path fill="none" stroke="#191970" d="M430.1938,-131.1152C439.2916,-129.8155 448.6759,-128.4749 457.8127,-127.1696"/>
<polygon fill="#191970" stroke="#191970" points="458.5901,-130.5942 467.9946,-125.7151 457.6001,-123.6645 458.5901,-130.5942"/>
</g>
<!-- Node65 -->
<g id="node20" class="node">
<title>Node65</title>
<g id="a_node20"><a xlink:href="esp-open-lwip_2include_2lwip_2app_2espconn_8h.html#aebb1efce8ecc198f9e9a663b69f42113" target="_top" xlink:title="espconn_tcp_set_buf\l_count">
<polygon fill="#ffffff" stroke="#000000" points="466,-147 466,-177 578,-177 578,-147 466,-147"/>
<text text-anchor="start" x="474" y="-165" font-family="Helvetica,sans-Serif" font-size="10.00" fill="#000000">espconn_tcp_set_buf</text>
<text text-anchor="middle" x="522" y="-154" font-family="Helvetica,sans-Serif" font-size="10.00" fill="#000000">_count</text>
</a>
</g>
</g>
<!-- Node53&#45;&gt;Node65 -->
<g id="edge21" class="edge">
<title>Node53&#45;&gt;Node65</title>
<path fill="none" stroke="#191970" d="M430.1938,-148.8848C438.5025,-150.0718 447.0501,-151.2929 455.4299,-152.49"/>
<polygon fill="#191970" stroke="#191970" points="455.1463,-155.9849 465.5408,-153.9344 456.1363,-149.0553 455.1463,-155.9849"/>
</g>
<!-- Node55 -->
<g id="node10" class="node">
<title>Node55</title>
<g id="a_node10"><a xlink:href="espconn__tcp_8c.html#a46f54f8c9e0dbc0c03f7666380fa3bbd" target="_top" xlink:title="espconn_tcp_finish">
<polygon fill="#ffffff" stroke="#000000" points="619,-38.5 619,-57.5 721,-57.5 721,-38.5 619,-38.5"/>
<text text-anchor="middle" x="670" y="-45.5" font-family="Helvetica,sans-Serif" font-size="10.00" fill="#000000">espconn_tcp_finish</text>
</a>
</g>
</g>
<!-- Node54&#45;&gt;Node55 -->
<g id="edge9" class="edge">
<title>Node54&#45;&gt;Node55</title>
<path fill="none" stroke="#191970" d="M576.2693,-60.033C586.7724,-58.6846 597.8476,-57.2628 608.5609,-55.8875"/>
<polygon fill="#191970" stroke="#191970" points="609.2181,-59.3319 618.691,-54.587 608.3267,-52.3889 609.2181,-59.3319"/>
</g>
<!-- Node56 -->
<g id="node11" class="node">
<title>Node56</title>
<g id="a_node11"><a xlink:href="espconn__tcp_8c.html#afedfd58842e55800f23f90ed00b0a967" target="_top" xlink:title="espconn_tcp_write">
<polygon fill="#ffffff" stroke="#000000" points="768,-38.5 768,-57.5 868,-57.5 868,-38.5 768,-38.5"/>
<text text-anchor="middle" x="818" y="-45.5" font-family="Helvetica,sans-Serif" font-size="10.00" fill="#000000">espconn_tcp_write</text>
</a>
</g>
</g>
<!-- Node55&#45;&gt;Node56 -->
<g id="edge10" class="edge">
<title>Node55&#45;&gt;Node56</title>
<path fill="none" stroke="#191970" d="M721.3479,-48C732.971,-48 745.4192,-48 757.3845,-48"/>
<polygon fill="#191970" stroke="#191970" points="757.7423,-51.5001 767.7423,-48 757.7423,-44.5001 757.7423,-51.5001"/>
</g>
<!-- Node58 -->
<g id="node13" class="node">
<title>Node58</title>
<g id="a_node13"><a xlink:href="espconn_8c.html#a5c499e423f91737c0214031fd67fdb1f" target="_top" xlink:title="espconn_pbuf_delete">
<polygon fill="#ffffff" stroke="#000000" points="762,-.5 762,-19.5 874,-19.5 874,-.5 762,-.5"/>
<text text-anchor="middle" x="818" y="-7.5" font-family="Helvetica,sans-Serif" font-size="10.00" fill="#000000">espconn_pbuf_delete</text>
</a>
</g>
</g>
<!-- Node55&#45;&gt;Node58 -->
<g id="edge12" class="edge">
<title>Node55&#45;&gt;Node58</title>
<path fill="none" stroke="#191970" d="M707.3466,-38.411C726.7009,-33.4417 750.5304,-27.3233 771.1126,-22.0387"/>
<polygon fill="#191970" stroke="#191970" points="772.1065,-25.3971 780.9219,-19.5201 770.3656,-18.617 772.1065,-25.3971"/>
</g>
<!-- Node57 -->
<g id="node12" class="node">
<title>Node57</title>
<g id="a_node12"><a xlink:href="espconn__tcp_8c.html#a5a4844397c6068a44e5422de0eadcb86" target="_top" xlink:title="espconn_tcp_sent">
<polygon fill="#ffffff" stroke="#000000" points="910,-38.5 910,-57.5 1008,-57.5 1008,-38.5 910,-38.5"/>
<text text-anchor="middle" x="959" y="-45.5" font-family="Helvetica,sans-Serif" font-size="10.00" fill="#000000">espconn_tcp_sent</text>
</a>
</g>
</g>
<!-- Node56&#45;&gt;Node57 -->
<g id="edge11" class="edge">
<title>Node56&#45;&gt;Node57</title>
<path fill="none" stroke="#191970" d="M868.1083,-48C878.2006,-48 888.9029,-48 899.2855,-48"/>
<polygon fill="#191970" stroke="#191970" points="899.5272,-51.5001 909.5272,-48 899.5272,-44.5001 899.5272,-51.5001"/>
</g>
<!-- Node60 -->
<g id="node15" class="node">
<title>Node60</title>
<g id="a_node15"><a xlink:href="pbuf_8h.html#ab0a418a2392133e6b18c7b19f7c04500" target="_top" xlink:title="pbuf_copy_partial">
<polygon fill="#ffffff" stroke="#000000" points="622.5,-152.5 622.5,-171.5 717.5,-171.5 717.5,-152.5 622.5,-152.5"/>
<text text-anchor="middle" x="670" y="-159.5" font-family="Helvetica,sans-Serif" font-size="10.00" fill="#000000">pbuf_copy_partial</text>
</a>
</g>
</g>
<!-- Node59&#45;&gt;Node60 -->
<g id="edge14" class="edge">
<title>Node59&#45;&gt;Node60</title>
<path fill="none" stroke="#191970" d="M554.1138,-127.5473C575.8353,-134.0051 604.7362,-142.5972 628.242,-149.5854"/>
<polygon fill="#191970" stroke="#191970" points="627.3661,-152.9764 637.9489,-152.4713 629.3609,-146.2666 627.3661,-152.9764"/>
</g>
<!-- Node61 -->
<g id="node16" class="node">
<title>Node61</title>
<g id="a_node16"><a xlink:href="pbuf_8h.html#a0d26e00e2cf975274139d27ddabd7ed3" target="_top" xlink:title="pbuf_free">
<polygon fill="#ffffff" stroke="#000000" points="640.5,-76.5 640.5,-95.5 699.5,-95.5 699.5,-76.5 640.5,-76.5"/>
<text text-anchor="middle" x="670" y="-83.5" font-family="Helvetica,sans-Serif" font-size="10.00" fill="#000000">pbuf_free</text>
</a>
</g>
</g>
<!-- Node59&#45;&gt;Node61 -->
<g id="edge15" class="edge">
<title>Node59&#45;&gt;Node61</title>
<path fill="none" stroke="#191970" d="M566.0042,-108.4856C586.466,-104.0614 610.6111,-98.8408 630.483,-94.5442"/>
<polygon fill="#191970" stroke="#191970" points="631.4087,-97.925 640.4431,-92.3907 629.9293,-91.0831 631.4087,-97.925"/>
</g>
<!-- Node64 -->
<g id="node19" class="node">
<title>Node64</title>
<g id="a_node19"><a xlink:href="espconn__tcp_8c.html#a1bf4d2aa3261188fe87a4f3c631eee15" target="_top" xlink:title="espconn_client_close">
<polygon fill="#ffffff" stroke="#000000" points="614,-114.5 614,-133.5 726,-133.5 726,-114.5 614,-114.5"/>
<text text-anchor="middle" x="670" y="-121.5" font-family="Helvetica,sans-Serif" font-size="10.00" fill="#000000">espconn_client_close</text>
</a>
</g>
</g>
<!-- Node59&#45;&gt;Node64 -->
<g id="edge19" class="edge">
<title>Node59&#45;&gt;Node64</title>
<path fill="none" stroke="#191970" d="M576.2693,-113.6681C585.1405,-113.8274 594.4198,-114.1413 603.5444,-114.5871"/>
<polygon fill="#191970" stroke="#191970" points="603.5745,-118.0939 613.7507,-115.1453 603.9568,-111.1044 603.5745,-118.0939"/>
</g>
<!-- Node61&#45;&gt;Node52 -->
<g id="edge16" class="edge">
<title>Node61&#45;&gt;Node52</title>
<path fill="none" stroke="#191970" d="M699.7709,-93.0336C708.6419,-95.9187 718.0971,-99.8274 726,-105 760.3618,-127.4905 790.3275,-165.7601 806.1251,-188.1764"/>
<polygon fill="#191970" stroke="#191970" points="803.2704,-190.2021 811.8223,-196.4563 809.0371,-186.2341 803.2704,-190.2021"/>
</g>
<!-- Node62 -->
<g id="node17" class="node">
<title>Node62</title>
<g id="a_node17"><a xlink:href="esp-open-lwip_2include_2lwip_2mem_8h.html#ab270bbe39e1996d7095be3a139620ce0" target="_top" xlink:title="mem_free">
<polygon fill="#ffffff" stroke="#000000" points="787,-76.5 787,-95.5 849,-95.5 849,-76.5 787,-76.5"/>
<text text-anchor="middle" x="818" y="-83.5" font-family="Helvetica,sans-Serif" font-size="10.00" fill="#000000">mem_free</text>
</a>
</g>
</g>
<!-- Node61&#45;&gt;Node62 -->
<g id="edge17" class="edge">
<title>Node61&#45;&gt;Node62</title>
<path fill="none" stroke="#191970" d="M699.5943,-86C721.7377,-86 752.2992,-86 776.8264,-86"/>
<polygon fill="#191970" stroke="#191970" points="776.9265,-89.5001 786.9264,-86 776.9264,-82.5001 776.9265,-89.5001"/>
</g>
<!-- Node63 -->
<g id="node18" class="node">
<title>Node63</title>
<g id="a_node18"><a xlink:href="mem_8c.html#a24221009a2c00e9c3fa63eaa9444a076" target="_top" xlink:title="plug_holes">
<polygon fill="#ffffff" stroke="#000000" points="926.5,-76.5 926.5,-95.5 991.5,-95.5 991.5,-76.5 926.5,-76.5"/>
<text text-anchor="middle" x="959" y="-83.5" font-family="Helvetica,sans-Serif" font-size="10.00" fill="#000000">plug_holes</text>
</a>
</g>
</g>
<!-- Node62&#45;&gt;Node63 -->
<g id="edge18" class="edge">
<title>Node62&#45;&gt;Node63</title>
<path fill="none" stroke="#191970" d="M849.2925,-86C868.9544,-86 894.582,-86 916.1228,-86"/>
<polygon fill="#191970" stroke="#191970" points="916.3251,-89.5001 926.3251,-86 916.3251,-82.5001 916.3251,-89.5001"/>
</g>
<!-- Node64&#45;&gt;Node59 -->
<g id="edge20" class="edge">
<title>Node64&#45;&gt;Node59</title>
<path fill="none" stroke="#191970" d="M613.7507,-128.294C604.8222,-128.1119 595.5272,-127.7768 586.4286,-127.3115"/>
<polygon fill="#191970" stroke="#191970" points="586.4524,-123.8073 576.2693,-126.7322 586.0538,-130.7959 586.4524,-123.8073"/>
</g>
<!-- Node66&#45;&gt;Node52 -->
<g id="edge23" class="edge">
<title>Node66&#45;&gt;Node52</title>
<path fill="none" stroke="#191970" d="M568.5756,-206C624.8614,-206 718.8574,-206 773.9744,-206"/>
<polygon fill="#191970" stroke="#191970" points="774.1262,-209.5001 784.1262,-206 774.1262,-202.5001 774.1262,-209.5001"/>
</g>
</g>
</svg>
