<?xml version="1.0" encoding="UTF-8" standalone="no"?>
<!DOCTYPE svg PUBLIC "-//W3C//DTD SVG 1.1//EN"
 "http://www.w3.org/Graphics/SVG/1.1/DTD/svg11.dtd">
<!-- Generated by graphviz version 2.41.20170323.1842 (20170323.1842)
 -->
<!-- Title: sha256_update Pages: 1 -->
<svg width="1620pt" height="304pt"
 viewBox="0.00 0.00 1620.00 304.17" xmlns="http://www.w3.org/2000/svg" xmlns:xlink="http://www.w3.org/1999/xlink">
<g id="graph0" class="graph" transform="scale(1 1) rotate(0) translate(4 300.17)">
<title>sha256_update</title>
<polygon fill="#ffffff" stroke="transparent" points="-4,4 -4,-300.17 1616,-300.17 1616,4 -4,4"/>
<!-- Node121 -->
<g id="node1" class="node">
<title>Node121</title>
<polygon fill="#bfbfbf" stroke="#000000" points="0,-76.5 0,-95.5 85,-95.5 85,-76.5 0,-76.5"/>
<text text-anchor="middle" x="42.5" y="-83.5" font-family="Helvetica,sans-Serif" font-size="10.00" fill="#000000">sha256_update</text>
</g>
<!-- Node122 -->
<g id="node2" class="node">
<title>Node122</title>
<g id="a_node2"><a xlink:href="hmac-sha256_8h.html#a7fad664b062689148a6b1ee5d4bc790d" target="_top" xlink:title="hmac_sha256_final">
<polygon fill="#ffffff" stroke="#000000" points="237,-114.5 237,-133.5 340,-133.5 340,-114.5 237,-114.5"/>
<text text-anchor="middle" x="288.5" y="-121.5" font-family="Helvetica,sans-Serif" font-size="10.00" fill="#000000">hmac_sha256_final</text>
</a>
</g>
</g>
<!-- Node121&#45;&gt;Node122 -->
<g id="edge1" class="edge">
<title>Node121&#45;&gt;Node122</title>
<path fill="none" stroke="#191970" d="M95.2006,-95.6541C103.8142,-97.1585 112.6497,-98.6576 121,-100 159.7209,-106.225 203.6081,-112.4842 236.7432,-117.0491"/>
<polygon fill="#191970" stroke="#191970" points="95.6895,-92.1864 85.2333,-93.8946 94.4726,-99.0798 95.6895,-92.1864"/>
</g>
<!-- Node141 -->
<g id="node21" class="node">
<title>Node141</title>
<g id="a_node21"><a xlink:href="hmac-sha256_8h.html#a553a08d76959d7d64d25927fa418af1f" target="_top" xlink:title="hmac_sha256_init">
<polygon fill="#ffffff" stroke="#000000" points="239.5,-76.5 239.5,-95.5 337.5,-95.5 337.5,-76.5 239.5,-76.5"/>
<text text-anchor="middle" x="288.5" y="-83.5" font-family="Helvetica,sans-Serif" font-size="10.00" fill="#000000">hmac_sha256_init</text>
</a>
</g>
</g>
<!-- Node121&#45;&gt;Node141 -->
<g id="edge30" class="edge">
<title>Node121&#45;&gt;Node141</title>
<path fill="none" stroke="#191970" d="M95.2587,-86C137.9307,-86 197.5685,-86 239.268,-86"/>
<polygon fill="#191970" stroke="#191970" points="95.0691,-82.5001 85.0691,-86 95.0691,-89.5001 95.0691,-82.5001"/>
</g>
<!-- Node142 -->
<g id="node22" class="node">
<title>Node142</title>
<g id="a_node22"><a xlink:href="hmac-sha256_8h.html#a604cda5243425d008a47d89401e7c987" target="_top" xlink:title="hmac_sha256_update">
<polygon fill="#ffffff" stroke="#000000" points="231,-152.5 231,-171.5 346,-171.5 346,-152.5 231,-152.5"/>
<text text-anchor="middle" x="288.5" y="-159.5" font-family="Helvetica,sans-Serif" font-size="10.00" fill="#000000">hmac_sha256_update</text>
</a>
</g>
</g>
<!-- Node121&#45;&gt;Node142 -->
<g id="edge34" class="edge">
<title>Node121&#45;&gt;Node142</title>
<path fill="none" stroke="#191970" d="M72.2979,-99.7424C86.8007,-106.1161 104.6064,-113.4831 121,-119 161.9749,-132.7891 209.851,-144.6709 243.8999,-152.4282"/>
<polygon fill="#191970" stroke="#191970" points="73.4015,-96.4022 62.8431,-95.5234 70.549,-102.7946 73.4015,-96.4022"/>
</g>
<!-- Node143 -->
<g id="node23" class="node">
<title>Node143</title>
<g id="a_node23"><a xlink:href="sha256_8h.html#ac7c8a54223a5ad418d26d8b47de9b2ca" target="_top" xlink:title="sha256_data">
<polygon fill="#ffffff" stroke="#000000" points="121,-.5 121,-19.5 195,-19.5 195,-.5 121,-.5"/>
<text text-anchor="middle" x="158" y="-7.5" font-family="Helvetica,sans-Serif" font-size="10.00" fill="#000000">sha256_data</text>
</a>
</g>
</g>
<!-- Node121&#45;&gt;Node143 -->
<g id="edge38" class="edge">
<title>Node121&#45;&gt;Node143</title>
<path fill="none" stroke="#191970" d="M62.9073,-69.8461C78.4099,-57.9086 100.4906,-41.6088 121,-29 126.4133,-25.672 132.4771,-22.3868 138.1044,-19.5084"/>
<polygon fill="#191970" stroke="#191970" points="60.3437,-67.406 54.6013,-76.3097 64.6427,-72.9304 60.3437,-67.406"/>
</g>
<!-- Node144 -->
<g id="node24" class="node">
<title>Node144</title>
<g id="a_node24"><a xlink:href="sha256_8h.html#a7f22a0894ca55160852ddcdff7a1f2fc" target="_top" xlink:title="sha256_raw">
<polygon fill="#ffffff" stroke="#000000" points="122.5,-38.5 122.5,-57.5 193.5,-57.5 193.5,-38.5 122.5,-38.5"/>
<text text-anchor="middle" x="158" y="-45.5" font-family="Helvetica,sans-Serif" font-size="10.00" fill="#000000">sha256_raw</text>
</a>
</g>
</g>
<!-- Node121&#45;&gt;Node144 -->
<g id="edge39" class="edge">
<title>Node121&#45;&gt;Node144</title>
<path fill="none" stroke="#191970" d="M81.4841,-73.1741C96.9817,-68.0753 114.5024,-62.3109 128.8638,-57.5859"/>
<polygon fill="#191970" stroke="#191970" points="80.0508,-69.961 71.6455,-76.411 82.2385,-76.6104 80.0508,-69.961"/>
</g>
<!-- Node123 -->
<g id="node3" class="node">
<title>Node123</title>
<g id="a_node3"><a xlink:href="crypto_8h.html#a0d1e89f74b522d69161f6b213fc5abc7" target="_top" xlink:title="decrypt_aes_hmac_combined">
<polygon fill="#ffffff" stroke="#000000" points="382,-76.5 382,-95.5 532,-95.5 532,-76.5 382,-76.5"/>
<text text-anchor="middle" x="457" y="-83.5" font-family="Helvetica,sans-Serif" font-size="10.00" fill="#000000">decrypt_aes_hmac_combined</text>
</a>
</g>
</g>
<!-- Node122&#45;&gt;Node123 -->
<g id="edge2" class="edge">
<title>Node122&#45;&gt;Node123</title>
<path fill="none" stroke="#191970" d="M340.9313,-112.1757C364.6868,-106.8184 392.3986,-100.5689 414.7861,-95.5201"/>
<polygon fill="#191970" stroke="#191970" points="340.0047,-108.7967 331.0197,-114.411 341.5447,-115.6252 340.0047,-108.7967"/>
</g>
<!-- Node128 -->
<g id="node8" class="node">
<title>Node128</title>
<g id="a_node8"><a xlink:href="crypto_8h.html#a7991ec94c8faa24921947687f2d587a0" target="_top" xlink:title="encrypt_aes_hmac_combined">
<polygon fill="#ffffff" stroke="#000000" points="382,-114.5 382,-133.5 532,-133.5 532,-114.5 382,-114.5"/>
<text text-anchor="middle" x="457" y="-121.5" font-family="Helvetica,sans-Serif" font-size="10.00" fill="#000000">encrypt_aes_hmac_combined</text>
</a>
</g>
</g>
<!-- Node122&#45;&gt;Node128 -->
<g id="edge7" class="edge">
<title>Node122&#45;&gt;Node128</title>
<path fill="none" stroke="#191970" d="M350.7438,-124C360.8229,-124 371.3539,-124 381.7026,-124"/>
<polygon fill="#191970" stroke="#191970" points="350.4305,-120.5001 340.4305,-124 350.4304,-127.5001 350.4305,-120.5001"/>
</g>
<!-- Node140 -->
<g id="node20" class="node">
<title>Node140</title>
<g id="a_node20"><a xlink:href="hmac-sha256_8h.html#acdadc130fbf78b5f98339c203a057796" target="_top" xlink:title="hmac_sha256">
<polygon fill="#ffffff" stroke="#000000" points="417.5,-152.5 417.5,-171.5 496.5,-171.5 496.5,-152.5 417.5,-152.5"/>
<text text-anchor="middle" x="457" y="-159.5" font-family="Helvetica,sans-Serif" font-size="10.00" fill="#000000">hmac_sha256</text>
</a>
</g>
</g>
<!-- Node122&#45;&gt;Node140 -->
<g id="edge29" class="edge">
<title>Node122&#45;&gt;Node140</title>
<path fill="none" stroke="#191970" d="M340.9507,-135.8286C365.631,-141.3945 394.5782,-147.9227 417.3878,-153.0667"/>
<polygon fill="#191970" stroke="#191970" points="341.5447,-132.3748 331.0197,-133.589 340.0047,-139.2033 341.5447,-132.3748"/>
</g>
<!-- Node124 -->
<g id="node4" class="node">
<title>Node124</title>
<g id="a_node4"><a xlink:href="user__main_8h.html#a6e5f80dd3fa3d07976a27c859e1aaadf" target="_top" xlink:title="mqtt_data_cb">
<polygon fill="#ffffff" stroke="#000000" points="590.5,-32.5 590.5,-51.5 667.5,-51.5 667.5,-32.5 590.5,-32.5"/>
<text text-anchor="middle" x="629" y="-39.5" font-family="Helvetica,sans-Serif" font-size="10.00" fill="#000000">mqtt_data_cb</text>
</a>
</g>
</g>
<!-- Node123&#45;&gt;Node124 -->
<g id="edge3" class="edge">
<title>Node123&#45;&gt;Node124</title>
<path fill="none" stroke="#191970" d="M504.1505,-73.9383C531.7359,-66.8815 566.0731,-58.0976 591.7514,-51.5287"/>
<polygon fill="#191970" stroke="#191970" points="503.142,-70.5834 494.3214,-76.4527 504.8769,-77.3651 503.142,-70.5834"/>
</g>
<!-- Node125 -->
<g id="node5" class="node">
<title>Node125</title>
<g id="a_node5"><a xlink:href="user__main_8c.html#a245ec00253f410a8804988bf40e1037e" target="_top" xlink:title="sample_mode_timer_func">
<polygon fill="#ffffff" stroke="#000000" points="1224,-95.5 1224,-114.5 1356,-114.5 1356,-95.5 1224,-95.5"/>
<text text-anchor="middle" x="1290" y="-102.5" font-family="Helvetica,sans-Serif" font-size="10.00" fill="#000000">sample_mode_timer_func</text>
</a>
</g>
</g>
<!-- Node124&#45;&gt;Node125 -->
<g id="edge4" class="edge">
<title>Node124&#45;&gt;Node125</title>
<path fill="none" stroke="#191970" d="M677.988,-39.1261C775.9923,-34.4829 1002.6932,-29.3098 1188,-67 1217.4439,-72.9887 1249.6602,-86.1971 1269.8469,-95.3468"/>
<polygon fill="#191970" stroke="#191970" points="677.611,-35.6404 667.7958,-39.6295 677.9563,-42.6319 677.611,-35.6404"/>
</g>
<!-- Node126 -->
<g id="node6" class="node">
<title>Node126</title>
<g id="a_node6"><a xlink:href="user__main_8h.html#a3671381db669a16e8f6a4bf3dfb9a441" target="_top" xlink:title="system_init_done">
<polygon fill="#ffffff" stroke="#000000" points="1410,-158.5 1410,-177.5 1504,-177.5 1504,-158.5 1410,-158.5"/>
<text text-anchor="middle" x="1457" y="-165.5" font-family="Helvetica,sans-Serif" font-size="10.00" fill="#000000">system_init_done</text>
</a>
</g>
</g>
<!-- Node125&#45;&gt;Node126 -->
<g id="edge5" class="edge">
<title>Node125&#45;&gt;Node126</title>
<path fill="none" stroke="#191970" d="M1324.7584,-118.1124C1356.6569,-130.146 1403.1581,-147.6884 1431.6717,-158.445"/>
<polygon fill="#191970" stroke="#191970" points="1325.9555,-114.8233 1315.3637,-114.5683 1323.4847,-121.3728 1325.9555,-114.8233"/>
</g>
<!-- Node127 -->
<g id="node7" class="node">
<title>Node127</title>
<g id="a_node7"><a xlink:href="user__main_8h.html#a33113d6dedb440bd7dfa5576e325140c" target="_top" xlink:title="user_init">
<polygon fill="#ffffff" stroke="#000000" points="1558,-186.5 1558,-205.5 1612,-205.5 1612,-186.5 1558,-186.5"/>
<text text-anchor="middle" x="1585" y="-193.5" font-family="Helvetica,sans-Serif" font-size="10.00" fill="#000000">user_init</text>
</a>
</g>
</g>
<!-- Node126&#45;&gt;Node127 -->
<g id="edge6" class="edge">
<title>Node126&#45;&gt;Node127</title>
<path fill="none" stroke="#191970" d="M1510.6727,-179.7409C1526.9545,-183.3025 1544.1522,-187.0645 1557.8997,-190.0718"/>
<polygon fill="#191970" stroke="#191970" points="1511.2093,-176.2756 1500.6923,-177.5577 1509.7134,-183.1139 1511.2093,-176.2756"/>
</g>
<!-- Node128&#45;&gt;Node124 -->
<g id="edge27" class="edge">
<title>Node128&#45;&gt;Node124</title>
<path fill="none" stroke="#191970" d="M520.4837,-110.7838C524.487,-109.0823 528.3639,-107.1636 532,-105 552.2719,-92.9379 548.5325,-79.3215 568,-66 576.7346,-60.023 587.1733,-55.2213 596.9253,-51.5297"/>
<polygon fill="#191970" stroke="#191970" points="519.089,-107.5692 510.9671,-114.3726 521.5589,-114.1189 519.089,-107.5692"/>
</g>
<!-- Node129 -->
<g id="node9" class="node">
<title>Node129</title>
<g id="a_node9"><a xlink:href="en61107__request_8c.html#aa3b162cf5364986ea19e831ac2b18f76" target="_top" xlink:title="en61107_received_task">
<polygon fill="#ffffff" stroke="#000000" points="726,-272.5 726,-291.5 849,-291.5 849,-272.5 726,-272.5"/>
<text text-anchor="middle" x="787.5" y="-279.5" font-family="Helvetica,sans-Serif" font-size="10.00" fill="#000000">en61107_received_task</text>
</a>
</g>
</g>
<!-- Node128&#45;&gt;Node129 -->
<g id="edge8" class="edge">
<title>Node128&#45;&gt;Node129</title>
<path fill="none" stroke="#191970" d="M527.2631,-139.0215C528.9223,-140.2496 530.5067,-141.5734 532,-143 571.9536,-181.1699 525.1718,-227.0861 568,-262 616.4925,-301.5316 692.5778,-298.7258 741.2303,-291.537"/>
<polygon fill="#191970" stroke="#191970" points="528.7818,-135.8488 518.4189,-133.6442 525.1452,-141.83 528.7818,-135.8488"/>
</g>
<!-- Node131 -->
<g id="node11" class="node">
<title>Node131</title>
<g id="a_node11"><a xlink:href="en61107__request_8h.html#a7384d014eb9e833f64ecf4a9f86f87be" target="_top" xlink:title="en61107_request_send">
<polygon fill="#ffffff" stroke="#000000" points="568,-194.5 568,-213.5 690,-213.5 690,-194.5 568,-194.5"/>
<text text-anchor="middle" x="629" y="-201.5" font-family="Helvetica,sans-Serif" font-size="10.00" fill="#000000">en61107_request_send</text>
</a>
</g>
</g>
<!-- Node128&#45;&gt;Node131 -->
<g id="edge11" class="edge">
<title>Node128&#45;&gt;Node131</title>
<path fill="none" stroke="#191970" d="M519.6052,-137.066C523.9074,-138.8065 528.0841,-140.7748 532,-143 551.6729,-154.1794 549.1625,-166.4641 568,-179 577.4329,-185.2774 588.6927,-190.4384 598.9557,-194.4077"/>
<polygon fill="#191970" stroke="#191970" points="520.6337,-133.7162 510.0394,-133.6085 518.2542,-140.2994 520.6337,-133.7162"/>
</g>
<!-- Node132 -->
<g id="node12" class="node">
<title>Node132</title>
<g id="a_node12"><a xlink:href="user__main_8c.html#af2c051d5ceacd30f90c08d6f584deff2" target="_top" xlink:title="sample_timer_func">
<polygon fill="#ffffff" stroke="#000000" points="737,-196.5 737,-215.5 838,-215.5 838,-196.5 737,-196.5"/>
<text text-anchor="middle" x="787.5" y="-203.5" font-family="Helvetica,sans-Serif" font-size="10.00" fill="#000000">sample_timer_func</text>
</a>
</g>
</g>
<!-- Node128&#45;&gt;Node132 -->
<g id="edge28" class="edge">
<title>Node128&#45;&gt;Node132</title>
<path fill="none" stroke="#191970" d="M505.3222,-135.9892C571.4391,-152.3934 688.7657,-181.5031 749.1862,-196.494"/>
<polygon fill="#191970" stroke="#191970" points="506.108,-132.5781 495.5594,-133.5669 504.4223,-139.3721 506.108,-132.5781"/>
</g>
<!-- Node133 -->
<g id="node13" class="node">
<title>Node133</title>
<g id="a_node13"><a xlink:href="user__main_8h.html#ad6eb800c4d7f9c79df52949d88a18d06" target="_top" xlink:title="mqtt_connected_cb">
<polygon fill="#ffffff" stroke="#000000" points="889.5,-95.5 889.5,-114.5 993.5,-114.5 993.5,-95.5 889.5,-95.5"/>
<text text-anchor="middle" x="941.5" y="-102.5" font-family="Helvetica,sans-Serif" font-size="10.00" fill="#000000">mqtt_connected_cb</text>
</a>
</g>
</g>
<!-- Node128&#45;&gt;Node133 -->
<g id="edge26" class="edge">
<title>Node128&#45;&gt;Node133</title>
<path fill="none" stroke="#191970" d="M514.2513,-112.7203C531.4655,-109.7295 550.4439,-106.8279 568,-105 692.2457,-92.064 724.1482,-94.955 849,-99 862.0283,-99.4221 876.0726,-100.1778 889.1856,-101.0137"/>
<polygon fill="#191970" stroke="#191970" points="513.5756,-109.2855 504.3439,-114.484 514.8026,-116.1771 513.5756,-109.2855"/>
</g>
<!-- Node135 -->
<g id="node15" class="node">
<title>Node135</title>
<g id="a_node15"><a xlink:href="kmp__request_8c.html#a3f6b790a06b933b78f40ade5e9a16131" target="_top" xlink:title="kmp_received_task">
<polygon fill="#ffffff" stroke="#000000" points="577.5,-233.5 577.5,-252.5 680.5,-252.5 680.5,-233.5 577.5,-233.5"/>
<text text-anchor="middle" x="629" y="-240.5" font-family="Helvetica,sans-Serif" font-size="10.00" fill="#000000">kmp_received_task</text>
</a>
</g>
</g>
<!-- Node128&#45;&gt;Node135 -->
<g id="edge17" class="edge">
<title>Node128&#45;&gt;Node135</title>
<path fill="none" stroke="#191970" d="M525.5585,-138.3354C527.8161,-139.7498 529.9741,-141.3004 532,-143 561.8705,-168.059 539.0079,-196.9298 568,-223 572.8066,-227.3222 578.5663,-230.7125 584.6007,-233.3713"/>
<polygon fill="#191970" stroke="#191970" points="526.9042,-135.0885 516.4249,-133.5278 523.6437,-141.2828 526.9042,-135.0885"/>
</g>
<!-- Node137 -->
<g id="node17" class="node">
<title>Node137</title>
<g id="a_node17"><a xlink:href="kmp__request_8h.html#a3b022dcdc832786eb06126b5e6879604" target="_top" xlink:title="kmp_request_send">
<polygon fill="#ffffff" stroke="#000000" points="578,-114.5 578,-133.5 680,-133.5 680,-114.5 578,-114.5"/>
<text text-anchor="middle" x="629" y="-121.5" font-family="Helvetica,sans-Serif" font-size="10.00" fill="#000000">kmp_request_send</text>
</a>
</g>
</g>
<!-- Node128&#45;&gt;Node137 -->
<g id="edge20" class="edge">
<title>Node128&#45;&gt;Node137</title>
<path fill="none" stroke="#191970" d="M542.3822,-124C554.544,-124 566.7222,-124 577.944,-124"/>
<polygon fill="#191970" stroke="#191970" points="542.1915,-120.5001 532.1915,-124 542.1915,-127.5001 542.1915,-120.5001"/>
</g>
<!-- Node130 -->
<g id="node10" class="node">
<title>Node130</title>
<g id="a_node10"><a xlink:href="en61107__request_8h.html#acd43242675a3f25e7c3b530eac9d8b3a" target="_top" xlink:title="en61107_request_init">
<polygon fill="#ffffff" stroke="#000000" points="885,-272.5 885,-291.5 998,-291.5 998,-272.5 885,-272.5"/>
<text text-anchor="middle" x="941.5" y="-279.5" font-family="Helvetica,sans-Serif" font-size="10.00" fill="#000000">en61107_request_init</text>
</a>
</g>
</g>
<!-- Node129&#45;&gt;Node130 -->
<g id="edge9" class="edge">
<title>Node129&#45;&gt;Node130</title>
<path fill="none" stroke="#191970" d="M859.5049,-282C867.9673,-282 876.5105,-282 884.7234,-282"/>
<polygon fill="#191970" stroke="#191970" points="859.2504,-278.5001 849.2504,-282 859.2503,-285.5001 859.2504,-278.5001"/>
</g>
<!-- Node130&#45;&gt;Node127 -->
<g id="edge10" class="edge">
<title>Node130&#45;&gt;Node127</title>
<path fill="none" stroke="#191970" d="M1008.3512,-286.7666C1118.8521,-292.3142 1344.9742,-293.7306 1522,-230 1539.307,-223.7693 1557.6592,-213.3791 1570.0636,-205.7213"/>
<polygon fill="#191970" stroke="#191970" points="1008.5163,-283.2705 998.3452,-286.2368 1008.1461,-290.2607 1008.5163,-283.2705"/>
</g>
<!-- Node131&#45;&gt;Node132 -->
<g id="edge12" class="edge">
<title>Node131&#45;&gt;Node132</title>
<path fill="none" stroke="#191970" d="M700.5103,-204.9023C712.7902,-205.0573 725.3203,-205.2154 736.9062,-205.3616"/>
<polygon fill="#191970" stroke="#191970" points="700.3236,-201.3998 690.2802,-204.7733 700.2352,-208.3992 700.3236,-201.3998"/>
</g>
<!-- Node132&#45;&gt;Node133 -->
<g id="edge13" class="edge">
<title>Node132&#45;&gt;Node133</title>
<path fill="none" stroke="#191970" d="M810.7376,-190.7598C842.9352,-169.6432 900.1682,-132.1072 926.9384,-114.5502"/>
<polygon fill="#191970" stroke="#191970" points="808.4305,-188.0872 801.9879,-196.4982 812.2695,-193.9406 808.4305,-188.0872"/>
</g>
<!-- Node133&#45;&gt;Node125 -->
<g id="edge14" class="edge">
<title>Node133&#45;&gt;Node125</title>
<path fill="none" stroke="#191970" d="M1003.7041,-105C1065.6539,-105 1160.4129,-105 1223.7467,-105"/>
<polygon fill="#191970" stroke="#191970" points="1003.674,-101.5001 993.674,-105 1003.6739,-108.5001 1003.674,-101.5001"/>
</g>
<!-- Node134 -->
<g id="node14" class="node">
<title>Node134</title>
<g id="a_node14"><a xlink:href="user__main_8h.html#a7a3bf0cc09d98adc72f4e34d26ce3fa1" target="_top" xlink:title="wifi_changed_cb">
<polygon fill="#ffffff" stroke="#000000" points="1065.5,-76.5 1065.5,-95.5 1156.5,-95.5 1156.5,-76.5 1065.5,-76.5"/>
<text text-anchor="middle" x="1111" y="-83.5" font-family="Helvetica,sans-Serif" font-size="10.00" fill="#000000">wifi_changed_cb</text>
</a>
</g>
</g>
<!-- Node133&#45;&gt;Node134 -->
<g id="edge15" class="edge">
<title>Node133&#45;&gt;Node134</title>
<path fill="none" stroke="#191970" d="M1003.8583,-98.01C1024.1861,-95.7314 1046.3652,-93.2452 1065.2434,-91.1291"/>
<polygon fill="#191970" stroke="#191970" points="1003.2865,-94.5521 993.7387,-99.1443 1004.0663,-101.5085 1003.2865,-94.5521"/>
</g>
<!-- Node134&#45;&gt;Node125 -->
<g id="edge16" class="edge">
<title>Node134&#45;&gt;Node125</title>
<path fill="none" stroke="#191970" d="M1166.7224,-91.9147C1184.8149,-93.8351 1205.0657,-95.9846 1223.8427,-97.9777"/>
<polygon fill="#191970" stroke="#191970" points="1166.946,-88.4188 1156.6324,-90.8437 1166.2071,-95.3797 1166.946,-88.4188"/>
</g>
<!-- Node136 -->
<g id="node16" class="node">
<title>Node136</title>
<g id="a_node16"><a xlink:href="kmp__request_8h.html#a048753ff9d6b448e2dcd8c85db0d6873" target="_top" xlink:title="kmp_request_init">
<polygon fill="#ffffff" stroke="#000000" points="1243.5,-234.5 1243.5,-253.5 1336.5,-253.5 1336.5,-234.5 1243.5,-234.5"/>
<text text-anchor="middle" x="1290" y="-241.5" font-family="Helvetica,sans-Serif" font-size="10.00" fill="#000000">kmp_request_init</text>
</a>
</g>
</g>
<!-- Node135&#45;&gt;Node136 -->
<g id="edge18" class="edge">
<title>Node135&#45;&gt;Node136</title>
<path fill="none" stroke="#191970" d="M690.877,-243.0936C822.238,-243.2923 1126.4854,-243.7526 1243.2294,-243.9292"/>
<polygon fill="#191970" stroke="#191970" points="690.5976,-239.5933 680.5922,-243.0781 690.5869,-246.5933 690.5976,-239.5933"/>
</g>
<!-- Node136&#45;&gt;Node127 -->
<g id="edge19" class="edge">
<title>Node136&#45;&gt;Node127</title>
<path fill="none" stroke="#191970" d="M1346.9824,-234.7283C1410.4067,-224.4084 1510.235,-208.1651 1557.9074,-200.4083"/>
<polygon fill="#191970" stroke="#191970" points="1346.0517,-231.3336 1336.7436,-236.3943 1347.176,-238.2427 1346.0517,-231.3336"/>
</g>
<!-- Node137&#45;&gt;Node132 -->
<g id="edge23" class="edge">
<title>Node137&#45;&gt;Node132</title>
<path fill="none" stroke="#191970" d="M664.5406,-137.6238C673.131,-141.4824 682.1055,-146.0086 690,-151 707.8467,-162.2838 707.906,-171.1173 726,-182 735.6252,-187.7891 746.8937,-192.6631 757.1367,-196.4741"/>
<polygon fill="#191970" stroke="#191970" points="665.6525,-134.2922 655.0829,-133.5617 662.8899,-140.7241 665.6525,-134.2922"/>
</g>
<!-- Node138 -->
<g id="node18" class="node">
<title>Node138</title>
<g id="a_node18"><a xlink:href="kmp__request_8c.html#a0977a4640a97d389ac3b0fef0ba7a9b6" target="_top" xlink:title="kmp_receive_timeout\l_timer_func">
<polygon fill="#ffffff" stroke="#000000" points="731.5,-109 731.5,-139 843.5,-139 843.5,-109 731.5,-109"/>
<text text-anchor="start" x="739.5" y="-127" font-family="Helvetica,sans-Serif" font-size="10.00" fill="#000000">kmp_receive_timeout</text>
<text text-anchor="middle" x="787.5" y="-116" font-family="Helvetica,sans-Serif" font-size="10.00" fill="#000000">_timer_func</text>
</a>
</g>
</g>
<!-- Node137&#45;&gt;Node138 -->
<g id="edge21" class="edge">
<title>Node137&#45;&gt;Node138</title>
<path fill="none" stroke="#191970" d="M690.2054,-117.408C703.7469,-117.1671 718.0309,-117.2017 731.3592,-117.5118"/>
<polygon fill="#191970" stroke="#191970" points="689.9383,-113.9132 680.0229,-117.6459 690.1019,-120.9113 689.9383,-113.9132"/>
</g>
<!-- Node139 -->
<g id="node19" class="node">
<title>Node139</title>
<g id="a_node19"><a xlink:href="user__main_8c.html#a3648c609e8dd286eb90285b08b150362" target="_top" xlink:title="kmp_request_send_timer_func">
<polygon fill="#ffffff" stroke="#000000" points="1034,-158.5 1034,-177.5 1188,-177.5 1188,-158.5 1034,-158.5"/>
<text text-anchor="middle" x="1111" y="-165.5" font-family="Helvetica,sans-Serif" font-size="10.00" fill="#000000">kmp_request_send_timer_func</text>
</a>
</g>
</g>
<!-- Node137&#45;&gt;Node139 -->
<g id="edge24" class="edge">
<title>Node137&#45;&gt;Node139</title>
<path fill="none" stroke="#191970" d="M669.4412,-136.3799C686.7026,-141.1516 707.172,-146.1395 726,-149 831.8598,-165.0832 955.7855,-168.4843 1033.8432,-168.7734"/>
<polygon fill="#191970" stroke="#191970" points="670.2609,-132.9744 659.6854,-133.6131 668.351,-139.7088 670.2609,-132.9744"/>
</g>
<!-- Node138&#45;&gt;Node137 -->
<g id="edge22" class="edge">
<title>Node138&#45;&gt;Node137</title>
<path fill="none" stroke="#191970" d="M721.0088,-130.6716C707.3036,-130.8413 693.0757,-130.7355 680.0229,-130.3541"/>
<polygon fill="#191970" stroke="#191970" points="721.4228,-134.1649 731.3592,-130.4882 721.2987,-127.166 721.4228,-134.1649"/>
</g>
<!-- Node139&#45;&gt;Node126 -->
<g id="edge25" class="edge">
<title>Node139&#45;&gt;Node126</title>
<path fill="none" stroke="#191970" d="M1198.3649,-168C1265.4811,-168 1355.5929,-168 1409.8098,-168"/>
<polygon fill="#191970" stroke="#191970" points="1198.2185,-164.5001 1188.2185,-168 1198.2185,-171.5001 1198.2185,-164.5001"/>
</g>
<!-- Node141&#45;&gt;Node123 -->
<g id="edge31" class="edge">
<title>Node141&#45;&gt;Node123</title>
<path fill="none" stroke="#191970" d="M347.9536,-86C358.882,-86 370.4215,-86 381.742,-86"/>
<polygon fill="#191970" stroke="#191970" points="347.6902,-82.5001 337.6901,-86 347.6901,-89.5001 347.6902,-82.5001"/>
</g>
<!-- Node141&#45;&gt;Node128 -->
<g id="edge32" class="edge">
<title>Node141&#45;&gt;Node128</title>
<path fill="none" stroke="#191970" d="M340.9313,-97.8243C364.6868,-103.1816 392.3986,-109.4311 414.7861,-114.4799"/>
<polygon fill="#191970" stroke="#191970" points="341.5447,-94.3748 331.0197,-95.589 340.0047,-101.2033 341.5447,-94.3748"/>
</g>
<!-- Node141&#45;&gt;Node140 -->
<g id="edge33" class="edge">
<title>Node141&#45;&gt;Node140</title>
<path fill="none" stroke="#191970" d="M335.9495,-99.5392C339.4488,-101.1784 342.841,-102.9939 346,-105 365.6392,-117.4715 361.9304,-131.2337 382,-143 392.6606,-149.25 405.3451,-153.4617 417.2221,-156.2929"/>
<polygon fill="#191970" stroke="#191970" points="337.099,-96.2263 326.5225,-95.6023 334.4013,-102.6857 337.099,-96.2263"/>
</g>
<!-- Node142&#45;&gt;Node123 -->
<g id="edge35" class="edge">
<title>Node142&#45;&gt;Node123</title>
<path fill="none" stroke="#191970" d="M335.9495,-148.4608C339.4488,-146.8216 342.841,-145.0061 346,-143 365.6392,-130.5285 361.9304,-116.7663 382,-105 388.6049,-101.1277 395.9868,-98.0379 403.4721,-95.574"/>
<polygon fill="#191970" stroke="#191970" points="334.4013,-145.3143 326.5225,-152.3977 337.099,-151.7737 334.4013,-145.3143"/>
</g>
<!-- Node142&#45;&gt;Node128 -->
<g id="edge36" class="edge">
<title>Node142&#45;&gt;Node128</title>
<path fill="none" stroke="#191970" d="M340.9313,-150.1757C364.6868,-144.8184 392.3986,-138.5689 414.7861,-133.5201"/>
<polygon fill="#191970" stroke="#191970" points="340.0047,-146.7967 331.0197,-152.411 341.5447,-153.6252 340.0047,-146.7967"/>
</g>
<!-- Node142&#45;&gt;Node140 -->
<g id="edge37" class="edge">
<title>Node142&#45;&gt;Node140</title>
<path fill="none" stroke="#191970" d="M356.0708,-162C376.8288,-162 398.994,-162 417.2496,-162"/>
<polygon fill="#191970" stroke="#191970" points="356.0169,-158.5001 346.0169,-162 356.0168,-165.5001 356.0169,-158.5001"/>
</g>
<!-- Node144&#45;&gt;Node141 -->
<g id="edge42" class="edge">
<title>Node144&#45;&gt;Node141</title>
<path fill="none" stroke="#191970" d="M200.5518,-60.3906C218.4232,-65.5945 238.8897,-71.5541 255.5799,-76.4141"/>
<polygon fill="#191970" stroke="#191970" points="201.5104,-57.0244 190.9307,-57.589 199.5534,-63.7453 201.5104,-57.0244"/>
</g>
<!-- Node145 -->
<g id="node25" class="node">
<title>Node145</title>
<g id="a_node25"><a xlink:href="crypto_8h.html#adcbe39568432d42d61fed9ce126d330b" target="_top" xlink:title="init_aes_hmac_combined">
<polygon fill="#ffffff" stroke="#000000" points="1392,-57.5 1392,-76.5 1522,-76.5 1522,-57.5 1392,-57.5"/>
<text text-anchor="middle" x="1457" y="-64.5" font-family="Helvetica,sans-Serif" font-size="10.00" fill="#000000">init_aes_hmac_combined</text>
</a>
</g>
</g>
<!-- Node144&#45;&gt;Node145 -->
<g id="edge40" class="edge">
<title>Node144&#45;&gt;Node145</title>
<path fill="none" stroke="#191970" d="M203.6551,-37.041C262.035,-24.0092 366.4207,-4 457,-4 457,-4 457,-4 1111,-4 1228.8402,-4 1365.6571,-39.8076 1425.86,-57.4317"/>
<polygon fill="#191970" stroke="#191970" points="202.6298,-33.6845 193.65,-39.307 204.1761,-40.5116 202.6298,-33.6845"/>
</g>
<!-- Node145&#45;&gt;Node127 -->
<g id="edge41" class="edge">
<title>Node145&#45;&gt;Node127</title>
<path fill="none" stroke="#191970" d="M1473.8652,-83.9969C1501.018,-111.3619 1553.5712,-164.3257 1575.2676,-186.1915"/>
<polygon fill="#191970" stroke="#191970" points="1476.1488,-81.3293 1466.6208,-76.696 1471.1798,-86.2598 1476.1488,-81.3293"/>
</g>
</g>
</svg>
