<?xml version="1.0" encoding="UTF-8" standalone="no"?>
<!DOCTYPE svg PUBLIC "-//W3C//DTD SVG 1.1//EN"
 "http://www.w3.org/Graphics/SVG/1.1/DTD/svg11.dtd">
<!-- Generated by graphviz version 2.40.1 (20161225.0304)
 -->
<!-- Title: user/crypto/sha256.h Pages: 1 -->
<svg width="1463pt" height="756pt"
 viewBox="0.00 0.00 1463.00 756.00" xmlns="http://www.w3.org/2000/svg" xmlns:xlink="http://www.w3.org/1999/xlink">
<g id="graph0" class="graph" transform="scale(1 1) rotate(0) translate(4 752)">
<title>user/crypto/sha256.h</title>
<polygon fill="#ffffff" stroke="transparent" points="-4,4 -4,-752 1459,-752 1459,4 -4,4"/>
<!-- Node0 -->
<g id="node1" class="node">
<title>Node0</title>
<polygon fill="#bfbfbf" stroke="#000000" points="1178,-728.5 1178,-747.5 1288,-747.5 1288,-728.5 1178,-728.5"/>
<text text-anchor="middle" x="1233" y="-735.5" font-family="Helvetica,sans-Serif" font-size="10.00" fill="#000000">user/crypto/sha256.h</text>
</g>
<!-- Node1 -->
<g id="node2" class="node">
<title>Node1</title>
<g id="a_node2"><a xlink:href="esp8266_8h.html" target="_top" xlink:title="esp8266.h">
<polygon fill="#ffffff" stroke="#000000" points="672.5,-616.5 672.5,-635.5 735.5,-635.5 735.5,-616.5 672.5,-616.5"/>
<text text-anchor="middle" x="704" y="-623.5" font-family="Helvetica,sans-Serif" font-size="10.00" fill="#000000">esp8266.h</text>
</a>
</g>
</g>
<!-- Node0&#45;&gt;Node1 -->
<g id="edge1" class="edge">
<title>Node0&#45;&gt;Node1</title>
<path fill="none" stroke="#191970" d="M1187.8978,-728.4509C1086.7858,-707.0435 843.2118,-655.474 745.5424,-634.7954"/>
<polygon fill="#191970" stroke="#191970" points="746.2421,-631.366 735.734,-632.7187 744.7922,-638.2142 746.2421,-631.366"/>
</g>
<!-- Node7 -->
<g id="node8" class="node">
<title>Node7</title>
<polygon fill="#ffffff" stroke="#bfbfbf" points="1016.5,-.5 1016.5,-19.5 1065.5,-19.5 1065.5,-.5 1016.5,-.5"/>
<text text-anchor="middle" x="1041" y="-7.5" font-family="Helvetica,sans-Serif" font-size="10.00" fill="#000000">stdint.h</text>
</g>
<!-- Node0&#45;&gt;Node7 -->
<g id="edge73" class="edge">
<title>Node0&#45;&gt;Node7</title>
<path fill="none" stroke="#191970" d="M1288.1616,-733.8298C1353.9098,-725.5028 1455,-700.5741 1455,-626 1455,-626 1455,-626 1455,-122 1455,-43.6933 1175.5222,-18.4565 1075.8183,-11.9448"/>
<polygon fill="#191970" stroke="#191970" points="1075.8577,-8.4405 1065.6578,-11.3059 1075.4184,-15.4267 1075.8577,-8.4405"/>
</g>
<!-- Node40 -->
<g id="node41" class="node">
<title>Node40</title>
<g id="a_node41"><a xlink:href="crypto_8h.html" target="_top" xlink:title="crypto/crypto.h">
<polygon fill="#ffffff" stroke="#000000" points="1192,-672.5 1192,-691.5 1274,-691.5 1274,-672.5 1192,-672.5"/>
<text text-anchor="middle" x="1233" y="-679.5" font-family="Helvetica,sans-Serif" font-size="10.00" fill="#000000">crypto/crypto.h</text>
</a>
</g>
</g>
<!-- Node0&#45;&gt;Node40 -->
<g id="edge74" class="edge">
<title>Node0&#45;&gt;Node40</title>
<path fill="none" stroke="#191970" d="M1233,-728.2455C1233,-720.9382 1233,-710.6944 1233,-701.7046"/>
<polygon fill="#191970" stroke="#191970" points="1236.5001,-701.6426 1233,-691.6427 1229.5001,-701.6427 1236.5001,-701.6426"/>
</g>
<!-- Node2 -->
<g id="node3" class="node">
<title>Node2</title>
<polygon fill="#ffffff" stroke="#bfbfbf" points="1247.5,-560.5 1247.5,-579.5 1296.5,-579.5 1296.5,-560.5 1247.5,-560.5"/>
<text text-anchor="middle" x="1272" y="-567.5" font-family="Helvetica,sans-Serif" font-size="10.00" fill="#000000">ctype.h</text>
</g>
<!-- Node1&#45;&gt;Node2 -->
<g id="edge2" class="edge">
<title>Node1&#45;&gt;Node2</title>
<path fill="none" stroke="#191970" d="M735.5323,-625.0635C817.8889,-622.2285 1046.0236,-611.8784 1233,-580 1234.4642,-579.7504 1235.9541,-579.4733 1237.4552,-579.175"/>
<polygon fill="#191970" stroke="#191970" points="1238.3742,-582.5561 1247.374,-576.9657 1236.8523,-575.7236 1238.3742,-582.5561"/>
</g>
<!-- Node3 -->
<g id="node4" class="node">
<title>Node3</title>
<polygon fill="#ffffff" stroke="#bfbfbf" points="1381,-560.5 1381,-579.5 1427,-579.5 1427,-560.5 1381,-560.5"/>
<text text-anchor="middle" x="1404" y="-567.5" font-family="Helvetica,sans-Serif" font-size="10.00" fill="#000000">stdio.h</text>
</g>
<!-- Node1&#45;&gt;Node3 -->
<g id="edge3" class="edge">
<title>Node1&#45;&gt;Node3</title>
<path fill="none" stroke="#191970" d="M735.5545,-624.8077C847.8155,-620.4169 1228.2628,-604.2274 1370.517,-579.8088"/>
<polygon fill="#191970" stroke="#191970" points="1371.5236,-583.1836 1380.7413,-577.9601 1370.2781,-576.2953 1371.5236,-583.1836"/>
</g>
<!-- Node4 -->
<g id="node5" class="node">
<title>Node4</title>
<polygon fill="#ffffff" stroke="#bfbfbf" points="1315,-560.5 1315,-579.5 1363,-579.5 1363,-560.5 1315,-560.5"/>
<text text-anchor="middle" x="1339" y="-567.5" font-family="Helvetica,sans-Serif" font-size="10.00" fill="#000000">stdlib.h</text>
</g>
<!-- Node1&#45;&gt;Node4 -->
<g id="edge4" class="edge">
<title>Node1&#45;&gt;Node4</title>
<path fill="none" stroke="#191970" d="M735.723,-624.4907C840.6304,-619.3604 1176.5007,-601.788 1305.0231,-579.735"/>
<polygon fill="#191970" stroke="#191970" points="1305.7809,-583.1548 1314.9999,-577.9336 1304.5371,-576.2662 1305.7809,-583.1548"/>
</g>
<!-- Node5 -->
<g id="node6" class="node">
<title>Node5</title>
<polygon fill="#ffffff" stroke="#bfbfbf" points="237.5,-56.5 237.5,-75.5 286.5,-75.5 286.5,-56.5 237.5,-56.5"/>
<text text-anchor="middle" x="262" y="-63.5" font-family="Helvetica,sans-Serif" font-size="10.00" fill="#000000">string.h</text>
</g>
<!-- Node1&#45;&gt;Node5 -->
<g id="edge5" class="edge">
<title>Node1&#45;&gt;Node5</title>
<path fill="none" stroke="#191970" d="M672.3729,-625.5047C547.6962,-623.3239 94.3865,-613.1616 40,-580 10.7145,-562.1435 0,-548.3001 0,-514 0,-514 0,-514 0,-178 0,-129.0828 156.3714,-88.902 227.504,-73.1546"/>
<polygon fill="#191970" stroke="#191970" points="228.3253,-76.5579 237.3517,-71.0104 226.8359,-69.7181 228.3253,-76.5579"/>
</g>
<!-- Node6 -->
<g id="node7" class="node">
<title>Node6</title>
<g id="a_node7"><a xlink:href="c__types_8h.html" target="_top" xlink:title="c_types.h">
<polygon fill="#ffffff" stroke="#000000" points="865.5,-56.5 865.5,-75.5 924.5,-75.5 924.5,-56.5 865.5,-56.5"/>
<text text-anchor="middle" x="895" y="-63.5" font-family="Helvetica,sans-Serif" font-size="10.00" fill="#000000">c_types.h</text>
</a>
</g>
</g>
<!-- Node1&#45;&gt;Node6 -->
<g id="edge6" class="edge">
<title>Node1&#45;&gt;Node6</title>
<path fill="none" stroke="#191970" d="M672.2364,-624.8898C575.1169,-621.2213 283.2604,-608.0882 193,-580 135.9935,-562.2601 76,-573.703 76,-514 76,-514 76,-514 76,-458 76,-427.4754 74.597,-414.704 95,-392 204.5227,-270.1258 709.9041,-118.8001 855.5926,-77.0877"/>
<polygon fill="#191970" stroke="#191970" points="856.7939,-80.3847 865.4501,-74.2757 854.8736,-73.6532 856.7939,-80.3847"/>
</g>
<!-- Node9 -->
<g id="node10" class="node">
<title>Node9</title>
<g id="a_node10"><a xlink:href="ip_8h.html" target="_top" xlink:title="lwip/ip.h">
<polygon fill="#ffffff" stroke="#000000" points="584.5,-560.5 584.5,-579.5 637.5,-579.5 637.5,-560.5 584.5,-560.5"/>
<text text-anchor="middle" x="611" y="-567.5" font-family="Helvetica,sans-Serif" font-size="10.00" fill="#000000">lwip/ip.h</text>
</a>
</g>
</g>
<!-- Node1&#45;&gt;Node9 -->
<g id="edge9" class="edge">
<title>Node1&#45;&gt;Node9</title>
<path fill="none" stroke="#191970" d="M687.8006,-616.2455C673.3982,-607.5731 652.1268,-594.7645 635.6201,-584.825"/>
<polygon fill="#191970" stroke="#191970" points="637.386,-581.8028 627.0137,-579.6427 633.775,-587.7996 637.386,-581.8028"/>
</g>
<!-- Node10 -->
<g id="node11" class="node">
<title>Node10</title>
<g id="a_node11"><a xlink:href="opt_8h.html" target="_top" xlink:title="lwip/opt.h">
<polygon fill="#ffffff" stroke="#000000" points="442.5,-336.5 442.5,-355.5 501.5,-355.5 501.5,-336.5 442.5,-336.5"/>
<text text-anchor="middle" x="472" y="-343.5" font-family="Helvetica,sans-Serif" font-size="10.00" fill="#000000">lwip/opt.h</text>
</a>
</g>
</g>
<!-- Node1&#45;&gt;Node10 -->
<g id="edge52" class="edge">
<title>Node1&#45;&gt;Node10</title>
<path fill="none" stroke="#191970" d="M672.3949,-619.9396C603.473,-605.9709 443.6045,-569.2167 416,-524 383.4589,-470.6971 431.6804,-396.7373 457.4847,-363.4558"/>
<polygon fill="#191970" stroke="#191970" points="460.2903,-365.5513 463.7918,-355.5517 454.8188,-361.1852 460.2903,-365.5513"/>
</g>
<!-- Node15 -->
<g id="node16" class="node">
<title>Node15</title>
<g id="a_node16"><a xlink:href="ets__sys_8h.html" target="_top" xlink:title="ets_sys.h">
<polygon fill="#ffffff" stroke="#000000" points="871.5,-112.5 871.5,-131.5 930.5,-131.5 930.5,-112.5 871.5,-112.5"/>
<text text-anchor="middle" x="901" y="-119.5" font-family="Helvetica,sans-Serif" font-size="10.00" fill="#000000">ets_sys.h</text>
</a>
</g>
</g>
<!-- Node1&#45;&gt;Node15 -->
<g id="edge54" class="edge">
<title>Node1&#45;&gt;Node15</title>
<path fill="none" stroke="#191970" d="M701.3702,-616.1324C698.3077,-602.367 694.9635,-577.163 706,-560 725.566,-529.5728 749.5022,-544.941 779,-524 835.9394,-483.5778 878,-471.8287 878,-402 878,-402 878,-402 878,-234 878,-200.906 887.7548,-163.4151 894.5588,-141.2901"/>
<polygon fill="#191970" stroke="#191970" points="897.8974,-142.3405 897.6063,-131.7497 891.2294,-140.2105 897.8974,-142.3405"/>
</g>
<!-- Node17 -->
<g id="node18" class="node">
<title>Node17</title>
<g id="a_node18"><a xlink:href="osapi_8h.html" target="_top" xlink:title="osapi.h">
<polygon fill="#ffffff" stroke="#000000" points="579.5,-112.5 579.5,-131.5 628.5,-131.5 628.5,-112.5 579.5,-112.5"/>
<text text-anchor="middle" x="604" y="-119.5" font-family="Helvetica,sans-Serif" font-size="10.00" fill="#000000">osapi.h</text>
</a>
</g>
</g>
<!-- Node1&#45;&gt;Node17 -->
<g id="edge57" class="edge">
<title>Node1&#45;&gt;Node17</title>
<path fill="none" stroke="#191970" d="M672.393,-625.7241C549.9276,-624.3887 111.0463,-617.0364 62,-580 37.0915,-561.1908 38,-545.2125 38,-514 38,-514 38,-514 38,-234 38,-179.5547 446.2337,-136.8058 569.2991,-125.1557"/>
<polygon fill="#191970" stroke="#191970" points="569.6861,-128.6349 579.3157,-124.2168 569.0327,-121.6654 569.6861,-128.6349"/>
</g>
<!-- Node23 -->
<g id="node24" class="node">
<title>Node23</title>
<g id="a_node24"><a xlink:href="netif_8h.html" target="_top" xlink:title="lwip/netif.h">
<polygon fill="#ffffff" stroke="#000000" points="598,-504.5 598,-523.5 662,-523.5 662,-504.5 598,-504.5"/>
<text text-anchor="middle" x="630" y="-511.5" font-family="Helvetica,sans-Serif" font-size="10.00" fill="#000000">lwip/netif.h</text>
</a>
</g>
</g>
<!-- Node1&#45;&gt;Node23 -->
<g id="edge46" class="edge">
<title>Node1&#45;&gt;Node23</title>
<path fill="none" stroke="#191970" d="M672.4575,-619.0346C638.3571,-610.7898 587.3422,-596.1285 576,-580 563.2235,-561.8319 583.967,-542.2915 603.331,-529.2267"/>
<polygon fill="#191970" stroke="#191970" points="605.4471,-532.0287 612.0055,-523.7078 601.6895,-526.1227 605.4471,-532.0287"/>
</g>
<!-- Node24 -->
<g id="node25" class="node">
<title>Node24</title>
<g id="a_node25"><a xlink:href="udp_8h.html" target="_top" xlink:title="lwip/udp.h">
<polygon fill="#ffffff" stroke="#000000" points="425,-504.5 425,-523.5 487,-523.5 487,-504.5 425,-504.5"/>
<text text-anchor="middle" x="456" y="-511.5" font-family="Helvetica,sans-Serif" font-size="10.00" fill="#000000">lwip/udp.h</text>
</a>
</g>
</g>
<!-- Node1&#45;&gt;Node24 -->
<g id="edge40" class="edge">
<title>Node1&#45;&gt;Node24</title>
<path fill="none" stroke="#191970" d="M672.2327,-617.2817C644.2072,-609.1176 602.5612,-595.8225 568,-580 535.6792,-565.2032 500.7346,-543.6315 478.6286,-529.222"/>
<polygon fill="#191970" stroke="#191970" points="480.2615,-526.1064 469.9857,-523.5257 476.4093,-531.9512 480.2615,-526.1064"/>
</g>
<!-- Node25 -->
<g id="node26" class="node">
<title>Node25</title>
<g id="a_node26"><a xlink:href="tcp__impl_8h.html" target="_top" xlink:title="lwip/tcp_impl.h">
<polygon fill="#ffffff" stroke="#000000" points="104,-392.5 104,-411.5 186,-411.5 186,-392.5 104,-392.5"/>
<text text-anchor="middle" x="145" y="-399.5" font-family="Helvetica,sans-Serif" font-size="10.00" fill="#000000">lwip/tcp_impl.h</text>
</a>
</g>
</g>
<!-- Node1&#45;&gt;Node25 -->
<g id="edge42" class="edge">
<title>Node1&#45;&gt;Node25</title>
<path fill="none" stroke="#191970" d="M672.2655,-625.1786C580.656,-622.4462 317.2668,-611.9467 238,-580 200.7239,-564.9767 187.6866,-558.4568 167,-524 147.7866,-491.9971 144.5091,-447.3603 144.3935,-421.8975"/>
<polygon fill="#191970" stroke="#191970" points="147.896,-421.7033 144.517,-411.6618 140.8965,-421.6188 147.896,-421.7033"/>
</g>
<!-- Node26 -->
<g id="node27" class="node">
<title>Node26</title>
<g id="a_node27"><a xlink:href="etharp_8h.html" target="_top" xlink:title="netif/etharp.h">
<polygon fill="#ffffff" stroke="#000000" points="175.5,-504.5 175.5,-523.5 250.5,-523.5 250.5,-504.5 175.5,-504.5"/>
<text text-anchor="middle" x="213" y="-511.5" font-family="Helvetica,sans-Serif" font-size="10.00" fill="#000000">netif/etharp.h</text>
</a>
</g>
</g>
<!-- Node1&#45;&gt;Node26 -->
<g id="edge44" class="edge">
<title>Node1&#45;&gt;Node26</title>
<path fill="none" stroke="#191970" d="M672.3696,-624.1079C577.6334,-618.2441 300.5242,-599.5894 265,-580 245.7192,-569.3679 231.0977,-548.3297 222.3437,-532.8523"/>
<polygon fill="#191970" stroke="#191970" points="225.2349,-530.8346 217.4485,-523.6497 219.0548,-534.1221 225.2349,-530.8346"/>
</g>
<!-- Node27 -->
<g id="node28" class="node">
<title>Node27</title>
<g id="a_node28"><a xlink:href="lwip__napt_8h.html" target="_top" xlink:title="lwip/lwip_napt.h">
<polygon fill="#ffffff" stroke="#000000" points="242.5,-392.5 242.5,-411.5 329.5,-411.5 329.5,-392.5 242.5,-392.5"/>
<text text-anchor="middle" x="286" y="-399.5" font-family="Helvetica,sans-Serif" font-size="10.00" fill="#000000">lwip/lwip_napt.h</text>
</a>
</g>
</g>
<!-- Node1&#45;&gt;Node27 -->
<g id="edge47" class="edge">
<title>Node1&#45;&gt;Node27</title>
<path fill="none" stroke="#191970" d="M672.2355,-624.2785C597.6331,-619.8387 413.3604,-606.4522 358,-580 325.3792,-564.4132 315.0119,-556.4142 299,-524 282.7202,-491.0434 282.4815,-447.0805 284.055,-421.926"/>
<polygon fill="#191970" stroke="#191970" points="287.5565,-422.0436 284.8544,-411.7991 280.5782,-421.4927 287.5565,-422.0436"/>
</g>
<!-- Node28 -->
<g id="node29" class="node">
<title>Node28</title>
<g id="a_node29"><a xlink:href="dns_8h.html" target="_top" xlink:title="lwip/dns.h">
<polygon fill="#ffffff" stroke="#000000" points="307.5,-504.5 307.5,-523.5 368.5,-523.5 368.5,-504.5 307.5,-504.5"/>
<text text-anchor="middle" x="338" y="-511.5" font-family="Helvetica,sans-Serif" font-size="10.00" fill="#000000">lwip/dns.h</text>
</a>
</g>
</g>
<!-- Node1&#45;&gt;Node28 -->
<g id="edge49" class="edge">
<title>Node1&#45;&gt;Node28</title>
<path fill="none" stroke="#191970" d="M672.3001,-624.6738C601.0953,-621.189 430.9573,-609.8904 383,-580 365.4048,-569.0334 353.0135,-548.3669 345.7488,-533.0698"/>
<polygon fill="#191970" stroke="#191970" points="348.7756,-531.2594 341.5375,-523.5225 342.371,-534.0845 348.7756,-531.2594"/>
</g>
<!-- Node29 -->
<g id="node30" class="node">
<title>Node29</title>
<g id="a_node30"><a xlink:href="dhcpserver_8h.html" target="_top" xlink:title="lwip/app/dhcpserver.h">
<polygon fill="#ffffff" stroke="#000000" points="732,-560.5 732,-579.5 846,-579.5 846,-560.5 732,-560.5"/>
<text text-anchor="middle" x="789" y="-567.5" font-family="Helvetica,sans-Serif" font-size="10.00" fill="#000000">lwip/app/dhcpserver.h</text>
</a>
</g>
</g>
<!-- Node1&#45;&gt;Node29 -->
<g id="edge51" class="edge">
<title>Node1&#45;&gt;Node29</title>
<path fill="none" stroke="#191970" d="M718.8059,-616.2455C731.7256,-607.7337 750.6931,-595.2375 765.6552,-585.3801"/>
<polygon fill="#191970" stroke="#191970" points="767.9387,-588.067 774.3638,-579.6427 764.0876,-582.2216 767.9387,-588.067"/>
</g>
<!-- Node30 -->
<g id="node31" class="node">
<title>Node30</title>
<g id="a_node31"><a xlink:href="sdk_2include_2espconn_8h.html" target="_top" xlink:title="espconn.h">
<polygon fill="#ffffff" stroke="#000000" points="864.5,-560.5 864.5,-579.5 927.5,-579.5 927.5,-560.5 864.5,-560.5"/>
<text text-anchor="middle" x="896" y="-567.5" font-family="Helvetica,sans-Serif" font-size="10.00" fill="#000000">espconn.h</text>
</a>
</g>
</g>
<!-- Node1&#45;&gt;Node30 -->
<g id="edge53" class="edge">
<title>Node1&#45;&gt;Node30</title>
<path fill="none" stroke="#191970" d="M735.7049,-616.7527C768.2222,-607.2685 818.954,-592.4718 854.6166,-582.0702"/>
<polygon fill="#191970" stroke="#191970" points="855.628,-585.4211 864.248,-579.261 853.668,-578.7011 855.628,-585.4211"/>
</g>
<!-- Node31 -->
<g id="node32" class="node">
<title>Node31</title>
<g id="a_node32"><a xlink:href="gpio_8h.html" target="_top" xlink:title="gpio.h">
<polygon fill="#ffffff" stroke="#000000" points="906,-448.5 906,-467.5 950,-467.5 950,-448.5 906,-448.5"/>
<text text-anchor="middle" x="928" y="-455.5" font-family="Helvetica,sans-Serif" font-size="10.00" fill="#000000">gpio.h</text>
</a>
</g>
</g>
<!-- Node1&#45;&gt;Node31 -->
<g id="edge55" class="edge">
<title>Node1&#45;&gt;Node31</title>
<path fill="none" stroke="#191970" d="M703.8995,-616.389C704.2975,-601.9958 707.2606,-574.9402 723,-560 774.2937,-511.3108 818.6632,-562.4814 878,-524 896.0065,-512.3223 910.0161,-491.8179 918.5666,-476.7538"/>
<polygon fill="#191970" stroke="#191970" points="921.7341,-478.2532 923.3842,-467.7876 915.5679,-474.9399 921.7341,-478.2532"/>
</g>
<!-- Node32 -->
<g id="node33" class="node">
<title>Node32</title>
<g id="a_node33"><a xlink:href="sdk_2include_2mem_8h.html" target="_top" xlink:title="mem.h">
<polygon fill="#ffffff" stroke="#000000" points="945.5,-560.5 945.5,-579.5 992.5,-579.5 992.5,-560.5 945.5,-560.5"/>
<text text-anchor="middle" x="969" y="-567.5" font-family="Helvetica,sans-Serif" font-size="10.00" fill="#000000">mem.h</text>
</a>
</g>
</g>
<!-- Node1&#45;&gt;Node32 -->
<g id="edge56" class="edge">
<title>Node1&#45;&gt;Node32</title>
<path fill="none" stroke="#191970" d="M735.5207,-620.89C778.6852,-613.6513 858.7522,-599.3654 935.4908,-580.1998"/>
<polygon fill="#191970" stroke="#191970" points="936.4797,-583.56 945.3157,-577.7141 934.7627,-576.7739 936.4797,-583.56"/>
</g>
<!-- Node33 -->
<g id="node34" class="node">
<title>Node33</title>
<g id="a_node34"><a xlink:href="user__interface_8h.html" target="_top" xlink:title="user_interface.h">
<polygon fill="#ffffff" stroke="#000000" points="977,-504.5 977,-523.5 1065,-523.5 1065,-504.5 977,-504.5"/>
<text text-anchor="middle" x="1021" y="-511.5" font-family="Helvetica,sans-Serif" font-size="10.00" fill="#000000">user_interface.h</text>
</a>
</g>
</g>
<!-- Node1&#45;&gt;Node33 -->
<g id="edge58" class="edge">
<title>Node1&#45;&gt;Node33</title>
<path fill="none" stroke="#191970" d="M735.6691,-625.3009C804.1212,-623.1442 962.8542,-614.4601 1002,-580 1014.9802,-568.5735 1019.3512,-548.9109 1020.7017,-534.0115"/>
<polygon fill="#191970" stroke="#191970" points="1024.2106,-533.931 1021.2382,-523.7617 1017.2202,-533.565 1024.2106,-533.931"/>
</g>
<!-- Node37 -->
<g id="node38" class="node">
<title>Node37</title>
<g id="a_node38"><a xlink:href="upgrade_8h.html" target="_top" xlink:title="upgrade.h">
<polygon fill="#ffffff" stroke="#000000" points="1049,-560.5 1049,-579.5 1111,-579.5 1111,-560.5 1049,-560.5"/>
<text text-anchor="middle" x="1080" y="-567.5" font-family="Helvetica,sans-Serif" font-size="10.00" fill="#000000">upgrade.h</text>
</a>
</g>
</g>
<!-- Node1&#45;&gt;Node37 -->
<g id="edge66" class="edge">
<title>Node1&#45;&gt;Node37</title>
<path fill="none" stroke="#191970" d="M735.625,-622.4654C794.6835,-615.6742 925.6593,-599.7136 1035,-580 1036.2405,-579.7763 1037.4987,-579.5424 1038.7677,-579.3002"/>
<polygon fill="#191970" stroke="#191970" points="1039.4837,-582.7263 1048.594,-577.3177 1038.0993,-575.8646 1039.4837,-582.7263"/>
</g>
<!-- Node38 -->
<g id="node39" class="node">
<title>Node38</title>
<g id="a_node39"><a xlink:href="platform_8h.html" target="_top" xlink:title="platform.h">
<polygon fill="#ffffff" stroke="#000000" points="1129.5,-560.5 1129.5,-579.5 1190.5,-579.5 1190.5,-560.5 1129.5,-560.5"/>
<text text-anchor="middle" x="1160" y="-567.5" font-family="Helvetica,sans-Serif" font-size="10.00" fill="#000000">platform.h</text>
</a>
</g>
</g>
<!-- Node1&#45;&gt;Node38 -->
<g id="edge67" class="edge">
<title>Node1&#45;&gt;Node38</title>
<path fill="none" stroke="#191970" d="M735.5191,-623.9725C803.6812,-619.277 969.9811,-606.1471 1118.8477,-579.9913"/>
<polygon fill="#191970" stroke="#191970" points="1119.8495,-583.368 1129.0802,-578.1676 1118.6212,-576.4766 1119.8495,-583.368"/>
</g>
<!-- Node39 -->
<g id="node40" class="node">
<title>Node39</title>
<g id="a_node40"><a xlink:href="espmissingincludes_8h.html" target="_top" xlink:title="espmissingincludes.h">
<polygon fill="#ffffff" stroke="#000000" points="982,-168.5 982,-187.5 1094,-187.5 1094,-168.5 982,-168.5"/>
<text text-anchor="middle" x="1038" y="-175.5" font-family="Helvetica,sans-Serif" font-size="10.00" fill="#000000">espmissingincludes.h</text>
</a>
</g>
</g>
<!-- Node1&#45;&gt;Node39 -->
<g id="edge68" class="edge">
<title>Node1&#45;&gt;Node39</title>
<path fill="none" stroke="#191970" d="M735.6982,-625.108C839.4401,-621.9115 1164.2356,-609.6072 1200,-580 1223.5131,-560.535 1219,-544.5246 1219,-514 1219,-514 1219,-514 1219,-290 1219,-233.0663 1153.4404,-204.0949 1101.2335,-190.0502"/>
<polygon fill="#191970" stroke="#191970" points="1101.8824,-186.6036 1091.327,-187.5172 1100.1483,-193.3854 1101.8824,-186.6036"/>
</g>
<!-- Node6&#45;&gt;Node7 -->
<g id="edge7" class="edge">
<title>Node6&#45;&gt;Node7</title>
<path fill="none" stroke="#191970" d="M920.0983,-56.3733C943.9555,-47.2226 980.0335,-33.3844 1006.571,-23.2057"/>
<polygon fill="#191970" stroke="#191970" points="1008.1459,-26.3503 1016.2292,-19.5011 1005.639,-19.8145 1008.1459,-26.3503"/>
</g>
<!-- Node8 -->
<g id="node9" class="node">
<title>Node8</title>
<polygon fill="#ffffff" stroke="#bfbfbf" points="866.5,-.5 866.5,-19.5 923.5,-19.5 923.5,-.5 866.5,-.5"/>
<text text-anchor="middle" x="895" y="-7.5" font-family="Helvetica,sans-Serif" font-size="10.00" fill="#000000">stdbool.h</text>
</g>
<!-- Node6&#45;&gt;Node8 -->
<g id="edge8" class="edge">
<title>Node6&#45;&gt;Node8</title>
<path fill="none" stroke="#191970" d="M895,-56.2455C895,-48.9382 895,-38.6944 895,-29.7046"/>
<polygon fill="#191970" stroke="#191970" points="898.5001,-29.6426 895,-19.6427 891.5001,-29.6427 898.5001,-29.6426"/>
</g>
<!-- Node9&#45;&gt;Node10 -->
<g id="edge10" class="edge">
<title>Node9&#45;&gt;Node10</title>
<path fill="none" stroke="#191970" d="M599.1347,-560.3907C578.8685,-543.4835 537.2359,-506.5397 511,-468 495.6619,-445.4688 494.4303,-437.92 486,-412 481.0186,-396.684 477.3495,-378.7806 475.0201,-365.4877"/>
<polygon fill="#191970" stroke="#191970" points="478.4637,-364.8591 473.379,-355.5641 471.5575,-366.0012 478.4637,-364.8591"/>
</g>
<!-- Node19 -->
<g id="node20" class="node">
<title>Node19</title>
<g id="a_node20"><a xlink:href="def_8h.html" target="_top" xlink:title="lwip/def.h">
<polygon fill="#ffffff" stroke="#000000" points="709.5,-392.5 709.5,-411.5 768.5,-411.5 768.5,-392.5 709.5,-392.5"/>
<text text-anchor="middle" x="739" y="-399.5" font-family="Helvetica,sans-Serif" font-size="10.00" fill="#000000">lwip/def.h</text>
</a>
</g>
</g>
<!-- Node9&#45;&gt;Node19 -->
<g id="edge22" class="edge">
<title>Node9&#45;&gt;Node19</title>
<path fill="none" stroke="#191970" d="M637.6888,-563.2845C665.2409,-555.7825 709.017,-542.2522 744,-524 781.5164,-504.4261 801.7981,-505.7081 821,-468 833.0754,-444.2866 804.8821,-426.1959 778.3241,-415.0038"/>
<polygon fill="#191970" stroke="#191970" points="779.2776,-411.6172 768.6912,-411.1949 776.7036,-418.1268 779.2776,-411.6172"/>
</g>
<!-- Node20 -->
<g id="node21" class="node">
<title>Node20</title>
<g id="a_node21"><a xlink:href="pbuf_8h.html" target="_top" xlink:title="lwip/pbuf.h">
<polygon fill="#ffffff" stroke="#000000" points="538,-448.5 538,-467.5 602,-467.5 602,-448.5 538,-448.5"/>
<text text-anchor="middle" x="570" y="-455.5" font-family="Helvetica,sans-Serif" font-size="10.00" fill="#000000">lwip/pbuf.h</text>
</a>
</g>
</g>
<!-- Node9&#45;&gt;Node20 -->
<g id="edge25" class="edge">
<title>Node9&#45;&gt;Node20</title>
<path fill="none" stroke="#191970" d="M605.7977,-560.3357C601.0024,-551.1667 593.9062,-536.9089 589,-524 583.1753,-508.6745 578.1264,-490.7718 574.7002,-477.4816"/>
<polygon fill="#191970" stroke="#191970" points="578.0413,-476.4145 572.2225,-467.5605 571.2499,-478.1106 578.0413,-476.4145"/>
</g>
<!-- Node21 -->
<g id="node22" class="node">
<title>Node21</title>
<g id="a_node22"><a xlink:href="err_8h.html" target="_top" xlink:title="lwip/err.h">
<polygon fill="#ffffff" stroke="#000000" points="595.5,-392.5 595.5,-411.5 652.5,-411.5 652.5,-392.5 595.5,-392.5"/>
<text text-anchor="middle" x="624" y="-399.5" font-family="Helvetica,sans-Serif" font-size="10.00" fill="#000000">lwip/err.h</text>
</a>
</g>
</g>
<!-- Node9&#45;&gt;Node21 -->
<g id="edge33" class="edge">
<title>Node9&#45;&gt;Node21</title>
<path fill="none" stroke="#191970" d="M631.7852,-560.3756C645.687,-552.6917 662.8691,-540.4793 671,-524 688.7107,-488.1051 659.7199,-443.7725 639.9638,-419.6591"/>
<polygon fill="#191970" stroke="#191970" points="642.3611,-417.0766 633.2067,-411.743 637.037,-421.6213 642.3611,-417.0766"/>
</g>
<!-- Node22 -->
<g id="node23" class="node">
<title>Node22</title>
<g id="a_node23"><a xlink:href="esp-open-lwip_2include_2lwip_2ip__addr_8h.html" target="_top" xlink:title="lwip/ip_addr.h">
<polygon fill="#ffffff" stroke="#000000" points="734,-448.5 734,-467.5 812,-467.5 812,-448.5 734,-448.5"/>
<text text-anchor="middle" x="773" y="-455.5" font-family="Helvetica,sans-Serif" font-size="10.00" fill="#000000">lwip/ip_addr.h</text>
</a>
</g>
</g>
<!-- Node9&#45;&gt;Node22 -->
<g id="edge30" class="edge">
<title>Node9&#45;&gt;Node22</title>
<path fill="none" stroke="#191970" d="M637.5569,-562.8495C660.8854,-555.6698 694.9212,-542.9377 720,-524 737.3164,-510.9239 752.2891,-490.9752 761.861,-476.432"/>
<polygon fill="#191970" stroke="#191970" points="764.9458,-478.1026 767.3415,-467.7822 759.0328,-474.3561 764.9458,-478.1026"/>
</g>
<!-- Node9&#45;&gt;Node23 -->
<g id="edge34" class="edge">
<title>Node9&#45;&gt;Node23</title>
<path fill="none" stroke="#191970" d="M614.3095,-560.2455C616.8433,-552.7776 620.4177,-542.2427 623.515,-533.1137"/>
<polygon fill="#191970" stroke="#191970" points="626.8298,-534.237 626.7284,-523.6427 620.2009,-531.9879 626.8298,-534.237"/>
</g>
<!-- Node11 -->
<g id="node12" class="node">
<title>Node11</title>
<g id="a_node12"><a xlink:href="lwipopts_8h.html" target="_top" xlink:title="lwipopts.h">
<polygon fill="#ffffff" stroke="#000000" points="441.5,-280.5 441.5,-299.5 502.5,-299.5 502.5,-280.5 441.5,-280.5"/>
<text text-anchor="middle" x="472" y="-287.5" font-family="Helvetica,sans-Serif" font-size="10.00" fill="#000000">lwipopts.h</text>
</a>
</g>
</g>
<!-- Node10&#45;&gt;Node11 -->
<g id="edge11" class="edge">
<title>Node10&#45;&gt;Node11</title>
<path fill="none" stroke="#191970" d="M472,-336.2455C472,-328.9382 472,-318.6944 472,-309.7046"/>
<polygon fill="#191970" stroke="#191970" points="475.5001,-309.6426 472,-299.6427 468.5001,-309.6427 475.5001,-309.6426"/>
</g>
<!-- Node12 -->
<g id="node13" class="node">
<title>Node12</title>
<g id="a_node13"><a xlink:href="esp-open-sdk_2esp-open-lwip_2include_2lwip_2debug_8h.html" target="_top" xlink:title="lwip/debug.h">
<polygon fill="#ffffff" stroke="#000000" points="526.5,-280.5 526.5,-299.5 599.5,-299.5 599.5,-280.5 526.5,-280.5"/>
<text text-anchor="middle" x="563" y="-287.5" font-family="Helvetica,sans-Serif" font-size="10.00" fill="#000000">lwip/debug.h</text>
</a>
</g>
</g>
<!-- Node10&#45;&gt;Node12 -->
<g id="edge12" class="edge">
<title>Node10&#45;&gt;Node12</title>
<path fill="none" stroke="#191970" d="M487.851,-336.2455C501.8132,-327.6534 522.3728,-315.0014 538.4596,-305.1018"/>
<polygon fill="#191970" stroke="#191970" points="540.6484,-307.8645 547.3307,-299.6427 536.9797,-301.9029 540.6484,-307.8645"/>
</g>
<!-- Node13 -->
<g id="node14" class="node">
<title>Node13</title>
<g id="a_node14"><a xlink:href="arch_8h.html" target="_top" xlink:title="lwip/arch.h">
<polygon fill="#ffffff" stroke="#000000" points="655,-224.5 655,-243.5 719,-243.5 719,-224.5 655,-224.5"/>
<text text-anchor="middle" x="687" y="-231.5" font-family="Helvetica,sans-Serif" font-size="10.00" fill="#000000">lwip/arch.h</text>
</a>
</g>
</g>
<!-- Node12&#45;&gt;Node13 -->
<g id="edge13" class="edge">
<title>Node12&#45;&gt;Node13</title>
<path fill="none" stroke="#191970" d="M584.3164,-280.3733C604.2216,-271.3838 634.1436,-257.8706 656.56,-247.7471"/>
<polygon fill="#191970" stroke="#191970" points="658.2887,-250.8068 665.9618,-243.5011 655.4075,-244.4272 658.2887,-250.8068"/>
</g>
<!-- Node14 -->
<g id="node15" class="node">
<title>Node14</title>
<g id="a_node15"><a xlink:href="cc_8h.html" target="_top" xlink:title="arch/cc.h">
<polygon fill="#ffffff" stroke="#000000" points="701.5,-168.5 701.5,-187.5 758.5,-187.5 758.5,-168.5 701.5,-168.5"/>
<text text-anchor="middle" x="730" y="-175.5" font-family="Helvetica,sans-Serif" font-size="10.00" fill="#000000">arch/cc.h</text>
</a>
</g>
</g>
<!-- Node13&#45;&gt;Node14 -->
<g id="edge14" class="edge">
<title>Node13&#45;&gt;Node14</title>
<path fill="none" stroke="#191970" d="M694.49,-224.2455C700.5326,-216.3761 709.1903,-205.101 716.4441,-195.6542"/>
<polygon fill="#191970" stroke="#191970" points="719.2815,-197.7058 722.5958,-187.6427 713.7295,-193.4426 719.2815,-197.7058"/>
</g>
<!-- Node14&#45;&gt;Node6 -->
<g id="edge15" class="edge">
<title>Node14&#45;&gt;Node6</title>
<path fill="none" stroke="#191970" d="M744.0678,-168.4509C772.6838,-149.0268 837.883,-104.7703 872.4753,-81.2895"/>
<polygon fill="#191970" stroke="#191970" points="874.6596,-84.037 880.9678,-75.5249 870.7282,-78.2453 874.6596,-84.037"/>
</g>
<!-- Node14&#45;&gt;Node15 -->
<g id="edge16" class="edge">
<title>Node14&#45;&gt;Node15</title>
<path fill="none" stroke="#191970" d="M758.6216,-168.6269C786.933,-159.3553 830.4721,-145.0969 861.9501,-134.7883"/>
<polygon fill="#191970" stroke="#191970" points="863.2978,-138.0299 871.7119,-131.5914 861.1192,-131.3775 863.2978,-138.0299"/>
</g>
<!-- Node14&#45;&gt;Node17 -->
<g id="edge19" class="edge">
<title>Node14&#45;&gt;Node17</title>
<path fill="none" stroke="#191970" d="M708.3398,-168.3733C688.0228,-159.3435 657.436,-145.7494 634.625,-135.6111"/>
<polygon fill="#191970" stroke="#191970" points="635.9372,-132.3642 625.3775,-131.5011 633.0941,-138.7609 635.9372,-132.3642"/>
</g>
<!-- Node15&#45;&gt;Node6 -->
<g id="edge17" class="edge">
<title>Node15&#45;&gt;Node6</title>
<path fill="none" stroke="#191970" d="M899.9549,-112.2455C899.172,-104.9382 898.0744,-94.6944 897.1112,-85.7046"/>
<polygon fill="#191970" stroke="#191970" points="900.5786,-85.2129 896.0331,-75.6427 893.6185,-85.9587 900.5786,-85.2129"/>
</g>
<!-- Node16 -->
<g id="node17" class="node">
<title>Node16</title>
<g id="a_node17"><a xlink:href="eagle__soc_8h.html" target="_top" xlink:title="eagle_soc.h">
<polygon fill="#ffffff" stroke="#000000" points="943,-56.5 943,-75.5 1013,-75.5 1013,-56.5 943,-56.5"/>
<text text-anchor="middle" x="978" y="-63.5" font-family="Helvetica,sans-Serif" font-size="10.00" fill="#000000">eagle_soc.h</text>
</a>
</g>
</g>
<!-- Node15&#45;&gt;Node16 -->
<g id="edge18" class="edge">
<title>Node15&#45;&gt;Node16</title>
<path fill="none" stroke="#191970" d="M914.4124,-112.2455C926.0057,-103.814 942.9748,-91.4729 956.4678,-81.6598"/>
<polygon fill="#191970" stroke="#191970" points="958.7126,-84.355 964.7413,-75.6427 954.5953,-78.6938 958.7126,-84.355"/>
</g>
<!-- Node17&#45;&gt;Node5 -->
<g id="edge20" class="edge">
<title>Node17&#45;&gt;Node5</title>
<path fill="none" stroke="#191970" d="M579.4042,-117.9726C519.5294,-108.1686 366.0443,-83.0365 296.8054,-71.6991"/>
<polygon fill="#191970" stroke="#191970" points="297.2666,-68.2281 286.8325,-70.0661 296.1354,-75.1361 297.2666,-68.2281"/>
</g>
<!-- Node18 -->
<g id="node19" class="node">
<title>Node18</title>
<polygon fill="#ffffff" stroke="#bfbfbf" points="599.5,-56.5 599.5,-75.5 676.5,-75.5 676.5,-56.5 599.5,-56.5"/>
<text text-anchor="middle" x="638" y="-63.5" font-family="Helvetica,sans-Serif" font-size="10.00" fill="#000000">user_config.h</text>
</g>
<!-- Node17&#45;&gt;Node18 -->
<g id="edge21" class="edge">
<title>Node17&#45;&gt;Node18</title>
<path fill="none" stroke="#191970" d="M609.9223,-112.2455C614.6027,-104.5367 621.2673,-93.5598 626.9289,-84.2348"/>
<polygon fill="#191970" stroke="#191970" points="629.9475,-86.007 632.1455,-75.6427 623.9639,-82.3741 629.9475,-86.007"/>
</g>
<!-- Node19&#45;&gt;Node10 -->
<g id="edge24" class="edge">
<title>Node19&#45;&gt;Node10</title>
<path fill="none" stroke="#191970" d="M709.196,-395.1414C704.4509,-394.0739 699.5935,-392.9957 695,-392 630.8439,-378.094 556.0846,-362.8726 511.4753,-353.8941"/>
<polygon fill="#191970" stroke="#191970" points="512.1125,-350.4522 501.6188,-351.9131 510.7331,-357.315 512.1125,-350.4522"/>
</g>
<!-- Node19&#45;&gt;Node13 -->
<g id="edge23" class="edge">
<title>Node19&#45;&gt;Node13</title>
<path fill="none" stroke="#191970" d="M736.0553,-392.4862C727.7997,-365.8144 704.306,-289.9117 693.0961,-253.695"/>
<polygon fill="#191970" stroke="#191970" points="696.3424,-252.3458 690.042,-243.8279 689.6554,-254.4157 696.3424,-252.3458"/>
</g>
<!-- Node20&#45;&gt;Node10 -->
<g id="edge26" class="edge">
<title>Node20&#45;&gt;Node10</title>
<path fill="none" stroke="#191970" d="M564.1208,-448.0703C555.9603,-434.6682 540.349,-410.3565 524,-392 514.4804,-381.3115 502.6035,-370.6412 492.6046,-362.272"/>
<polygon fill="#191970" stroke="#191970" points="494.6949,-359.46 484.7402,-355.8332 490.2605,-364.8763 494.6949,-359.46"/>
</g>
<!-- Node20&#45;&gt;Node21 -->
<g id="edge27" class="edge">
<title>Node20&#45;&gt;Node21</title>
<path fill="none" stroke="#191970" d="M579.4061,-448.2455C587.1493,-440.2155 598.312,-428.6394 607.5318,-419.0781"/>
<polygon fill="#191970" stroke="#191970" points="610.2798,-421.2706 614.7017,-411.6427 605.2409,-416.4117 610.2798,-421.2706"/>
</g>
<!-- Node21&#45;&gt;Node10 -->
<g id="edge28" class="edge">
<title>Node21&#45;&gt;Node10</title>
<path fill="none" stroke="#191970" d="M597.8703,-392.3733C572.9232,-383.1822 535.1408,-369.2624 507.4794,-359.0713"/>
<polygon fill="#191970" stroke="#191970" points="508.3822,-355.674 497.7888,-355.5011 505.9622,-362.2424 508.3822,-355.674"/>
</g>
<!-- Node21&#45;&gt;Node13 -->
<g id="edge29" class="edge">
<title>Node21&#45;&gt;Node13</title>
<path fill="none" stroke="#191970" d="M627.5677,-392.4862C637.6127,-365.6994 666.2788,-289.2565 679.7892,-253.2289"/>
<polygon fill="#191970" stroke="#191970" points="683.0804,-254.4201 683.3145,-243.8279 676.5261,-251.9622 683.0804,-254.4201"/>
</g>
<!-- Node22&#45;&gt;Node10 -->
<g id="edge31" class="edge">
<title>Node22&#45;&gt;Node10</title>
<path fill="none" stroke="#191970" d="M758.2021,-448.4471C732.7715,-432.1593 681.6202,-399.9959 662,-392 612.0875,-371.6589 550.9835,-358.8527 511.781,-352.0608"/>
<polygon fill="#191970" stroke="#191970" points="512.2621,-348.5926 501.8197,-350.3829 511.0994,-355.4954 512.2621,-348.5926"/>
</g>
<!-- Node22&#45;&gt;Node19 -->
<g id="edge32" class="edge">
<title>Node22&#45;&gt;Node19</title>
<path fill="none" stroke="#191970" d="M767.0777,-448.2455C762.3973,-440.5367 755.7327,-429.5598 750.0711,-420.2348"/>
<polygon fill="#191970" stroke="#191970" points="753.0361,-418.3741 744.8545,-411.6427 747.0525,-422.007 753.0361,-418.3741"/>
</g>
<!-- Node23&#45;&gt;Node10 -->
<g id="edge35" class="edge">
<title>Node23&#45;&gt;Node10</title>
<path fill="none" stroke="#191970" d="M597.9182,-505.7669C576.1704,-498.7877 548.0295,-486.8457 529,-468 513.6209,-452.7694 490.6683,-395.7437 479.1442,-365.3531"/>
<polygon fill="#191970" stroke="#191970" points="482.3612,-363.9634 475.5758,-355.8265 475.806,-366.4189 482.3612,-363.9634"/>
</g>
<!-- Node23&#45;&gt;Node19 -->
<g id="edge38" class="edge">
<title>Node23&#45;&gt;Node19</title>
<path fill="none" stroke="#191970" d="M639.2933,-504.4509C657.7949,-485.4401 699.4463,-442.6423 722.6344,-418.816"/>
<polygon fill="#191970" stroke="#191970" points="725.264,-421.1324 729.7302,-411.5249 720.2475,-416.2502 725.264,-421.1324"/>
</g>
<!-- Node23&#45;&gt;Node20 -->
<g id="edge39" class="edge">
<title>Node23&#45;&gt;Node20</title>
<path fill="none" stroke="#191970" d="M619.5488,-504.2455C610.7731,-496.0549 598.0446,-484.1749 587.686,-474.5069"/>
<polygon fill="#191970" stroke="#191970" points="590.0301,-471.9072 580.3314,-467.6427 585.2539,-477.0246 590.0301,-471.9072"/>
</g>
<!-- Node23&#45;&gt;Node21 -->
<g id="edge36" class="edge">
<title>Node23&#45;&gt;Node21</title>
<path fill="none" stroke="#191970" d="M629.4884,-504.4509C628.5099,-486.184 626.3547,-445.9553 625.0552,-421.6976"/>
<polygon fill="#191970" stroke="#191970" points="628.5403,-421.3233 624.5103,-411.5249 621.5503,-421.6978 628.5403,-421.3233"/>
</g>
<!-- Node23&#45;&gt;Node22 -->
<g id="edge37" class="edge">
<title>Node23&#45;&gt;Node22</title>
<path fill="none" stroke="#191970" d="M654.5826,-504.3733C677.9496,-495.2226 713.2862,-481.3844 739.2784,-471.2057"/>
<polygon fill="#191970" stroke="#191970" points="740.703,-474.4066 748.7382,-467.5011 738.1505,-467.8886 740.703,-474.4066"/>
</g>
<!-- Node24&#45;&gt;Node10 -->
<g id="edge41" class="edge">
<title>Node24&#45;&gt;Node10</title>
<path fill="none" stroke="#191970" d="M455.2585,-504.4312C453.8523,-483.756 451.4868,-433.4343 458,-392 459.4061,-383.0551 462.134,-373.432 464.8112,-365.3112"/>
<polygon fill="#191970" stroke="#191970" points="468.1806,-366.2794 468.1859,-355.6846 461.5747,-363.9636 468.1806,-366.2794"/>
</g>
<!-- Node25&#45;&gt;Node10 -->
<g id="edge43" class="edge">
<title>Node25&#45;&gt;Node10</title>
<path fill="none" stroke="#191970" d="M186.1355,-394.4637C190.8103,-393.6242 195.5072,-392.7883 200,-392 282.4775,-377.5284 379.1723,-361.3671 432.1911,-352.5746"/>
<polygon fill="#191970" stroke="#191970" points="432.902,-356.0047 442.1953,-350.9171 431.7577,-349.0988 432.902,-356.0047"/>
</g>
<!-- Node26&#45;&gt;Node10 -->
<g id="edge45" class="edge">
<title>Node26&#45;&gt;Node10</title>
<path fill="none" stroke="#191970" d="M211.4015,-504.485C208.1526,-481.6175 203.467,-423.1643 234,-392 261.0197,-364.4216 371.5694,-352.7454 432.0317,-348.3434"/>
<polygon fill="#191970" stroke="#191970" points="432.6181,-351.8112 442.3518,-347.6273 432.1334,-344.828 432.6181,-351.8112"/>
</g>
<!-- Node27&#45;&gt;Node10 -->
<g id="edge48" class="edge">
<title>Node27&#45;&gt;Node10</title>
<path fill="none" stroke="#191970" d="M317.9745,-392.3733C349.7385,-382.8099 398.5073,-368.1268 432.6353,-357.8517"/>
<polygon fill="#191970" stroke="#191970" points="433.7171,-361.1813 442.2835,-354.9469 431.699,-354.4785 433.7171,-361.1813"/>
</g>
<!-- Node28&#45;&gt;Node10 -->
<g id="edge50" class="edge">
<title>Node28&#45;&gt;Node10</title>
<path fill="none" stroke="#191970" d="M339.0774,-504.2282C342.0203,-481.8008 352.0828,-425.9583 382,-392 395.5066,-376.669 415.3453,-365.7679 432.9619,-358.4386"/>
<polygon fill="#191970" stroke="#191970" points="434.4232,-361.6255 442.4659,-354.7288 431.8777,-355.1046 434.4232,-361.6255"/>
</g>
<!-- Node33&#45;&gt;Node18 -->
<g id="edge63" class="edge">
<title>Node33&#45;&gt;Node18</title>
<path fill="none" stroke="#191970" d="M1012.295,-504.4809C1000.411,-491.5442 978.3701,-467.7582 959,-448 951.7668,-440.6219 698.9205,-196.4678 693,-188 669.9224,-154.9929 652.8798,-110.7475 644.2807,-85.6179"/>
<polygon fill="#191970" stroke="#191970" points="647.4989,-84.2032 641.0256,-75.8159 640.8556,-86.4093 647.4989,-84.2032"/>
</g>
<!-- Node33&#45;&gt;Node22 -->
<g id="edge61" class="edge">
<title>Node33&#45;&gt;Node22</title>
<path fill="none" stroke="#191970" d="M978.6491,-504.4369C935.3055,-494.6496 868.0025,-479.4522 822.2927,-469.1306"/>
<polygon fill="#191970" stroke="#191970" points="822.8372,-465.6655 812.3119,-466.8769 821.2953,-472.4936 822.8372,-465.6655"/>
</g>
<!-- Node33&#45;&gt;Node31 -->
<g id="edge65" class="edge">
<title>Node33&#45;&gt;Node31</title>
<path fill="none" stroke="#191970" d="M1004.8006,-504.2455C990.3982,-495.5731 969.1268,-482.7645 952.6201,-472.825"/>
<polygon fill="#191970" stroke="#191970" points="954.386,-469.8028 944.0137,-467.6427 950.775,-475.7996 954.386,-469.8028"/>
</g>
<!-- Node34 -->
<g id="node35" class="node">
<title>Node34</title>
<g id="a_node35"><a xlink:href="os__type_8h.html" target="_top" xlink:title="os_type.h">
<polygon fill="#ffffff" stroke="#000000" points="1022,-336.5 1022,-355.5 1082,-355.5 1082,-336.5 1022,-336.5"/>
<text text-anchor="middle" x="1052" y="-343.5" font-family="Helvetica,sans-Serif" font-size="10.00" fill="#000000">os_type.h</text>
</a>
</g>
</g>
<!-- Node33&#45;&gt;Node34 -->
<g id="edge59" class="edge">
<title>Node33&#45;&gt;Node34</title>
<path fill="none" stroke="#191970" d="M1063.7394,-504.4972C1097.4987,-496.0233 1140.6007,-482.7109 1151,-468 1179.6434,-427.4809 1117.5866,-382.9425 1079.2706,-360.5579"/>
<polygon fill="#191970" stroke="#191970" points="1080.9955,-357.5125 1070.572,-355.6148 1077.5371,-363.5985 1080.9955,-357.5125"/>
</g>
<!-- Node35 -->
<g id="node36" class="node">
<title>Node35</title>
<g id="a_node36"><a xlink:href="esp-open-sdk_2sdk_2include_2queue_8h.html" target="_top" xlink:title="queue.h">
<polygon fill="#ffffff" stroke="#000000" points="1006.5,-448.5 1006.5,-467.5 1059.5,-467.5 1059.5,-448.5 1006.5,-448.5"/>
<text text-anchor="middle" x="1033" y="-455.5" font-family="Helvetica,sans-Serif" font-size="10.00" fill="#000000">queue.h</text>
</a>
</g>
</g>
<!-- Node33&#45;&gt;Node35 -->
<g id="edge62" class="edge">
<title>Node33&#45;&gt;Node35</title>
<path fill="none" stroke="#191970" d="M1023.0902,-504.2455C1024.6561,-496.9382 1026.8512,-486.6944 1028.7776,-477.7046"/>
<polygon fill="#191970" stroke="#191970" points="1032.2607,-478.1541 1030.9337,-467.6427 1025.416,-476.6873 1032.2607,-478.1541"/>
</g>
<!-- Node36 -->
<g id="node37" class="node">
<title>Node36</title>
<g id="a_node37"><a xlink:href="spi__flash_8h.html" target="_top" xlink:title="spi_flash.h">
<polygon fill="#ffffff" stroke="#000000" points="1078,-448.5 1078,-467.5 1142,-467.5 1142,-448.5 1078,-448.5"/>
<text text-anchor="middle" x="1110" y="-455.5" font-family="Helvetica,sans-Serif" font-size="10.00" fill="#000000">spi_flash.h</text>
</a>
</g>
</g>
<!-- Node33&#45;&gt;Node36 -->
<g id="edge64" class="edge">
<title>Node33&#45;&gt;Node36</title>
<path fill="none" stroke="#191970" d="M1036.5026,-504.2455C1050.158,-495.6534 1070.2657,-483.0014 1085.9989,-473.1018"/>
<polygon fill="#191970" stroke="#191970" points="1088.0751,-475.9307 1094.675,-467.6427 1084.3471,-470.006 1088.0751,-475.9307"/>
</g>
<!-- Node34&#45;&gt;Node15 -->
<g id="edge60" class="edge">
<title>Node34&#45;&gt;Node15</title>
<path fill="none" stroke="#191970" d="M1045.5117,-336.375C1022.3759,-302.0543 943.6804,-185.3139 913.1993,-140.097"/>
<polygon fill="#191970" stroke="#191970" points="915.956,-137.9247 907.4641,-131.5891 910.1516,-141.8375 915.956,-137.9247"/>
</g>
<!-- Node39&#45;&gt;Node6 -->
<g id="edge70" class="edge">
<title>Node39&#45;&gt;Node6</title>
<path fill="none" stroke="#191970" d="M1025.8079,-168.4509C1001.2185,-149.1921 945.4609,-105.5218 915.2926,-81.8935"/>
<polygon fill="#191970" stroke="#191970" points="917.1921,-78.9355 907.1612,-75.5249 912.8759,-84.4464 917.1921,-78.9355"/>
</g>
<!-- Node39&#45;&gt;Node7 -->
<g id="edge69" class="edge">
<title>Node39&#45;&gt;Node7</title>
<path fill="none" stroke="#191970" d="M1038.1699,-168.4862C1038.6441,-141.9293 1039.9899,-66.5651 1040.6399,-30.1655"/>
<polygon fill="#191970" stroke="#191970" points="1044.1453,-29.8888 1040.8245,-19.8279 1037.1464,-29.7638 1044.1453,-29.8888"/>
</g>
<!-- Node39&#45;&gt;Node15 -->
<g id="edge72" class="edge">
<title>Node39&#45;&gt;Node15</title>
<path fill="none" stroke="#191970" d="M1014.4489,-168.3733C992.1609,-159.2629 958.5063,-145.5062 933.6363,-135.3404"/>
<polygon fill="#191970" stroke="#191970" points="934.8247,-132.0451 924.2438,-131.5011 932.1761,-138.5247 934.8247,-132.0451"/>
</g>
<!-- Node39&#45;&gt;Node16 -->
<g id="edge71" class="edge">
<title>Node39&#45;&gt;Node16</title>
<path fill="none" stroke="#191970" d="M1032.8844,-168.4509C1022.9214,-149.8533 1000.7635,-108.4919 987.8552,-84.3964"/>
<polygon fill="#191970" stroke="#191970" points="990.9101,-82.6869 983.1026,-75.5249 984.7397,-85.9925 990.9101,-82.6869"/>
</g>
<!-- Node40&#45;&gt;Node1 -->
<g id="edge75" class="edge">
<title>Node40&#45;&gt;Node1</title>
<path fill="none" stroke="#191970" d="M1191.9304,-677.6524C1093.5575,-667.2386 845.2494,-640.9527 745.9692,-630.4429"/>
<polygon fill="#191970" stroke="#191970" points="746.0377,-626.9306 735.7248,-629.3584 745.3008,-633.8917 746.0377,-626.9306"/>
</g>
<!-- Node40&#45;&gt;Node3 -->
<g id="edge76" class="edge">
<title>Node40&#45;&gt;Node3</title>
<path fill="none" stroke="#191970" d="M1247.5794,-672.4509C1277.2359,-653.0268 1344.806,-608.7703 1380.6562,-585.2895"/>
<polygon fill="#191970" stroke="#191970" points="1383.0098,-587.9319 1389.4575,-579.5249 1379.1744,-582.0761 1383.0098,-587.9319"/>
</g>
</g>
</svg>
