<?xml version="1.0" encoding="UTF-8" standalone="no"?>
<!DOCTYPE svg PUBLIC "-//W3C//DTD SVG 1.1//EN"
 "http://www.w3.org/Graphics/SVG/1.1/DTD/svg11.dtd">
<!-- Generated by graphviz version 2.39.20160927.1334 (20160927.1334)
 -->
<!-- Title: sha256_end Pages: 1 -->
<svg width="322pt" height="28pt"
 viewBox="0.00 0.00 322.00 28.00" xmlns="http://www.w3.org/2000/svg" xmlns:xlink="http://www.w3.org/1999/xlink">
<g id="graph0" class="graph" transform="scale(1 1) rotate(0) translate(4 24)">
<title>sha256_end</title>
<polygon fill="#ffffff" stroke="transparent" points="-4,4 -4,-24 318,-24 318,4 -4,4"/>
<!-- Node1 -->
<g id="node1" class="node">
<title>Node1</title>
<polygon fill="#bfbfbf" stroke="#000000" points="0,-0.5 0,-19.5 72,-19.5 72,-0.5 0,-0.5"/>
<text text-anchor="middle" x="36" y="-7.5" font-family="Helvetica,sans-Serif" font-size="10.00" fill="#000000">sha256_end</text>
</g>
<!-- Node2 -->
<g id="node2" class="node">
<title>Node2</title>
<g id="a_node2"><a xlink:href="sha256_8c.html#a28a4e37e67f8b97b374c49d8b83d8167" target="_top" xlink:title="sha256_final">
<polygon fill="#ffffff" stroke="#000000" points="108,-0.5 108,-19.5 181,-19.5 181,-0.5 108,-0.5"/>
<text text-anchor="middle" x="144.5" y="-7.5" font-family="Helvetica,sans-Serif" font-size="10.00" fill="#000000">sha256_final</text>
</a>
</g>
</g>
<!-- Node1&#45;&gt;Node2 -->
<g id="edge1" class="edge">
<title>Node1&#45;&gt;Node2</title>
<path fill="none" stroke="#191970" d="M72.1289,-10C80.2806,-10 89.0491,-10 97.5719,-10"/>
<polygon fill="#191970" stroke="#191970" points="97.7882,-13.5001 107.788,-10 97.7881,-6.5001 97.7882,-13.5001"/>
</g>
<!-- Node3 -->
<g id="node3" class="node">
<title>Node3</title>
<g id="a_node3"><a xlink:href="sha256_8c.html#a97b828e7b6479297e92fb5ffc5225ee3" target="_top" xlink:title="sha256_transform">
<polygon fill="#ffffff" stroke="#000000" points="217,-0.5 217,-19.5 314,-19.5 314,-0.5 217,-0.5"/>
<text text-anchor="middle" x="265.5" y="-7.5" font-family="Helvetica,sans-Serif" font-size="10.00" fill="#000000">sha256_transform</text>
</a>
</g>
</g>
<!-- Node2&#45;&gt;Node3 -->
<g id="edge2" class="edge">
<title>Node2&#45;&gt;Node3</title>
<path fill="none" stroke="#191970" d="M181.132,-10C189.231,-10 198.01,-10 206.741,-10"/>
<polygon fill="#191970" stroke="#191970" points="206.923,-13.5001 216.923,-10 206.923,-6.5001 206.923,-13.5001"/>
</g>
</g>
</svg>
