<?xml version="1.0" encoding="UTF-8" standalone="no"?>
<!DOCTYPE svg PUBLIC "-//W3C//DTD SVG 1.1//EN"
 "http://www.w3.org/Graphics/SVG/1.1/DTD/svg11.dtd">
<!-- Generated by graphviz version 2.41.20170323.1842 (20170323.1842)
 -->
<!-- Title: user/crypto/sha256.c Pages: 1 -->
<svg width="1892pt" height="308pt"
 viewBox="0.00 0.00 1892.06 308.00" xmlns="http://www.w3.org/2000/svg" xmlns:xlink="http://www.w3.org/1999/xlink">
<g id="graph0" class="graph" transform="scale(1 1) rotate(0) translate(4 304)">
<title>user/crypto/sha256.c</title>
<polygon fill="#ffffff" stroke="transparent" points="-4,4 -4,-304 1888.0624,-304 1888.0624,4 -4,4"/>
<!-- Node0 -->
<g id="node1" class="node">
<title>Node0</title>
<polygon fill="#bfbfbf" stroke="#000000" points="1120.5,-280.5 1120.5,-299.5 1229.5,-299.5 1229.5,-280.5 1120.5,-280.5"/>
<text text-anchor="middle" x="1175" y="-287.5" font-family="Helvetica,sans-Serif" font-size="10.00" fill="#000000">user/crypto/sha256.c</text>
</g>
<!-- Node1 -->
<g id="node2" class="node">
<title>Node1</title>
<g id="a_node2"><a xlink:href="esp8266_8h.html" target="_top" xlink:title="esp8266.h">
<polygon fill="#ffffff" stroke="#000000" points="1002.5,-112.5 1002.5,-131.5 1065.5,-131.5 1065.5,-112.5 1002.5,-112.5"/>
<text text-anchor="middle" x="1034" y="-119.5" font-family="Helvetica,sans-Serif" font-size="10.00" fill="#000000">esp8266.h</text>
</a>
</g>
</g>
<!-- Node0&#45;&gt;Node1 -->
<g id="edge1" class="edge">
<title>Node0&#45;&gt;Node1</title>
<path fill="none" stroke="#191970" d="M1161.0267,-280.2982C1149.4731,-271.7507 1133.2025,-258.4396 1122,-244 1098.8513,-214.162 1106.7145,-198.1699 1084,-168 1075.6594,-156.9218 1064.4348,-146.3175 1054.7339,-138.0881"/>
<polygon fill="#191970" stroke="#191970" points="1056.6653,-135.1458 1046.7119,-131.5154 1052.2289,-140.5605 1056.6653,-135.1458"/>
</g>
<!-- Node5 -->
<g id="node6" class="node">
<title>Node5</title>
<polygon fill="#ffffff" stroke="#bfbfbf" points="1806.5,-56.5 1806.5,-75.5 1855.5,-75.5 1855.5,-56.5 1806.5,-56.5"/>
<text text-anchor="middle" x="1831" y="-63.5" font-family="Helvetica,sans-Serif" font-size="10.00" fill="#000000">string.h</text>
</g>
<!-- Node0&#45;&gt;Node5 -->
<g id="edge29" class="edge">
<title>Node0&#45;&gt;Node5</title>
<path fill="none" stroke="#191970" d="M1211.9561,-280.4442C1297.1218,-258.029 1513.2827,-198.8816 1688,-132 1729.0671,-116.2796 1774.9708,-94.2641 1803.4275,-80.0667"/>
<polygon fill="#191970" stroke="#191970" points="1805.0116,-83.1878 1812.3771,-75.572 1801.8699,-76.9324 1805.0116,-83.1878"/>
</g>
<!-- Node25 -->
<g id="node26" class="node">
<title>Node25</title>
<polygon fill="#ffffff" stroke="#bfbfbf" points="1753.5,-.5 1753.5,-19.5 1802.5,-19.5 1802.5,-.5 1753.5,-.5"/>
<text text-anchor="middle" x="1778" y="-7.5" font-family="Helvetica,sans-Serif" font-size="10.00" fill="#000000">stdint.h</text>
</g>
<!-- Node0&#45;&gt;Node25 -->
<g id="edge30" class="edge">
<title>Node0&#45;&gt;Node25</title>
<path fill="none" stroke="#191970" d="M1229.7501,-287.1153C1396.0525,-277.6305 1884,-244.1636 1884,-178 1884,-178 1884,-178 1884,-122 1884,-91.4754 1884.2497,-79.6897 1865,-56 1851.5452,-39.4418 1830.5158,-28.0923 1812.5029,-20.8097"/>
<polygon fill="#191970" stroke="#191970" points="1813.465,-17.4319 1802.8733,-17.175 1810.9931,-23.9809 1813.465,-17.4319"/>
</g>
<!-- Node27 -->
<g id="node28" class="node">
<title>Node27</title>
<g id="a_node28"><a xlink:href="crypto_8h.html" target="_top" xlink:title="crypto/crypto.h">
<polygon fill="#ffffff" stroke="#000000" points="993,-168.5 993,-187.5 1075,-187.5 1075,-168.5 993,-168.5"/>
<text text-anchor="middle" x="1034" y="-175.5" font-family="Helvetica,sans-Serif" font-size="10.00" fill="#000000">crypto/crypto.h</text>
</a>
</g>
</g>
<!-- Node0&#45;&gt;Node27 -->
<g id="edge31" class="edge">
<title>Node0&#45;&gt;Node27</title>
<path fill="none" stroke="#191970" d="M1151.6265,-280.4679C1133.4429,-272.3798 1108.1661,-259.6137 1089,-244 1071.9252,-230.09 1056.25,-210.2694 1046.0403,-195.9839"/>
<polygon fill="#191970" stroke="#191970" points="1048.7381,-193.7325 1040.1605,-187.5134 1042.9877,-197.7241 1048.7381,-193.7325"/>
</g>
<!-- Node28 -->
<g id="node29" class="node">
<title>Node28</title>
<g id="a_node29"><a xlink:href="sha256_8h.html" target="_top" xlink:title="crypto/sha256.h">
<polygon fill="#ffffff" stroke="#000000" points="1131,-224.5 1131,-243.5 1219,-243.5 1219,-224.5 1131,-224.5"/>
<text text-anchor="middle" x="1175" y="-231.5" font-family="Helvetica,sans-Serif" font-size="10.00" fill="#000000">crypto/sha256.h</text>
</a>
</g>
</g>
<!-- Node0&#45;&gt;Node28 -->
<g id="edge34" class="edge">
<title>Node0&#45;&gt;Node28</title>
<path fill="none" stroke="#191970" d="M1175,-280.2455C1175,-272.9382 1175,-262.6944 1175,-253.7046"/>
<polygon fill="#191970" stroke="#191970" points="1178.5001,-253.6426 1175,-243.6427 1171.5001,-253.6427 1178.5001,-253.6426"/>
</g>
<!-- Node2 -->
<g id="node3" class="node">
<title>Node2</title>
<polygon fill="#ffffff" stroke="#bfbfbf" points="1082.5,-56.5 1082.5,-75.5 1131.5,-75.5 1131.5,-56.5 1082.5,-56.5"/>
<text text-anchor="middle" x="1107" y="-63.5" font-family="Helvetica,sans-Serif" font-size="10.00" fill="#000000">ctype.h</text>
</g>
<!-- Node1&#45;&gt;Node2 -->
<g id="edge2" class="edge">
<title>Node1&#45;&gt;Node2</title>
<path fill="none" stroke="#191970" d="M1046.7156,-112.2455C1057.602,-103.8943 1073.4883,-91.7076 1086.22,-81.9408"/>
<polygon fill="#191970" stroke="#191970" points="1088.6261,-84.5063 1094.4301,-75.6427 1084.3654,-78.9523 1088.6261,-84.5063"/>
</g>
<!-- Node3 -->
<g id="node4" class="node">
<title>Node3</title>
<polygon fill="#ffffff" stroke="#bfbfbf" points="0,-56.5 0,-75.5 46,-75.5 46,-56.5 0,-56.5"/>
<text text-anchor="middle" x="23" y="-63.5" font-family="Helvetica,sans-Serif" font-size="10.00" fill="#000000">stdio.h</text>
</g>
<!-- Node1&#45;&gt;Node3 -->
<g id="edge3" class="edge">
<title>Node1&#45;&gt;Node3</title>
<path fill="none" stroke="#191970" d="M1002.2142,-121.5985C857.9791,-119.6125 263.4919,-109.6156 56.4006,-75.7561"/>
<polygon fill="#191970" stroke="#191970" points="56.6944,-72.2556 46.2476,-74.0208 55.515,-79.1555 56.6944,-72.2556"/>
</g>
<!-- Node4 -->
<g id="node5" class="node">
<title>Node4</title>
<polygon fill="#ffffff" stroke="#bfbfbf" points="1356,-56.5 1356,-75.5 1404,-75.5 1404,-56.5 1356,-56.5"/>
<text text-anchor="middle" x="1380" y="-63.5" font-family="Helvetica,sans-Serif" font-size="10.00" fill="#000000">stdlib.h</text>
</g>
<!-- Node1&#45;&gt;Node4 -->
<g id="edge4" class="edge">
<title>Node1&#45;&gt;Node4</title>
<path fill="none" stroke="#191970" d="M1065.6806,-118.4257C1121.7311,-111.845 1241.9105,-96.58 1342,-76 1343.2779,-75.7372 1344.577,-75.4579 1345.887,-75.166"/>
<polygon fill="#191970" stroke="#191970" points="1347.0632,-78.4832 1355.9706,-72.7466 1345.4299,-71.6764 1347.0632,-78.4832"/>
</g>
<!-- Node1&#45;&gt;Node5 -->
<g id="edge5" class="edge">
<title>Node1&#45;&gt;Node5</title>
<path fill="none" stroke="#191970" d="M1065.8242,-120.8047C1167.1189,-116.8234 1491.0657,-102.7274 1758,-76 1770.5026,-74.7481 1784.1581,-72.9847 1796.2411,-71.2866"/>
<polygon fill="#191970" stroke="#191970" points="1796.9872,-74.7154 1806.3862,-69.8256 1795.9894,-67.7868 1796.9872,-74.7154"/>
</g>
<!-- Node6 -->
<g id="node7" class="node">
<title>Node6</title>
<polygon fill="#ffffff" stroke="#bfbfbf" points="1131.5,-.5 1131.5,-19.5 1190.5,-19.5 1190.5,-.5 1131.5,-.5"/>
<text text-anchor="middle" x="1161" y="-7.5" font-family="Helvetica,sans-Serif" font-size="10.00" fill="#000000">c_types.h</text>
</g>
<!-- Node1&#45;&gt;Node6 -->
<g id="edge6" class="edge">
<title>Node1&#45;&gt;Node6</title>
<path fill="none" stroke="#191970" d="M1065.5053,-115.7289C1089.0834,-109.4752 1120.5001,-97.5843 1140,-76 1151.4488,-63.3274 1156.6579,-44.4008 1159.0269,-30.0607"/>
<polygon fill="#191970" stroke="#191970" points="1162.5489,-30.1215 1160.3828,-19.7505 1155.6087,-29.2087 1162.5489,-30.1215"/>
</g>
<!-- Node7 -->
<g id="node8" class="node">
<title>Node7</title>
<polygon fill="#ffffff" stroke="#bfbfbf" points="1422.5,-56.5 1422.5,-75.5 1475.5,-75.5 1475.5,-56.5 1422.5,-56.5"/>
<text text-anchor="middle" x="1449" y="-63.5" font-family="Helvetica,sans-Serif" font-size="10.00" fill="#000000">lwip/ip.h</text>
</g>
<!-- Node1&#45;&gt;Node7 -->
<g id="edge7" class="edge">
<title>Node1&#45;&gt;Node7</title>
<path fill="none" stroke="#191970" d="M1065.6989,-119.7704C1129.5085,-114.9366 1278.083,-101.9383 1412.3213,-75.8596"/>
<polygon fill="#191970" stroke="#191970" points="1413.2373,-79.2464 1422.3707,-73.8771 1411.8824,-72.3788 1413.2373,-79.2464"/>
</g>
<!-- Node8 -->
<g id="node9" class="node">
<title>Node8</title>
<polygon fill="#ffffff" stroke="#bfbfbf" points="1494,-56.5 1494,-75.5 1556,-75.5 1556,-56.5 1494,-56.5"/>
<text text-anchor="middle" x="1525" y="-63.5" font-family="Helvetica,sans-Serif" font-size="10.00" fill="#000000">lwip/udp.h</text>
</g>
<!-- Node1&#45;&gt;Node8 -->
<g id="edge8" class="edge">
<title>Node1&#45;&gt;Node8</title>
<path fill="none" stroke="#191970" d="M1065.572,-120.2687C1137.7654,-115.9914 1320.5449,-103.357 1483.5425,-75.8378"/>
<polygon fill="#191970" stroke="#191970" points="1484.4875,-79.227 1493.7534,-74.0896 1483.3062,-72.3274 1484.4875,-79.227"/>
</g>
<!-- Node9 -->
<g id="node10" class="node">
<title>Node9</title>
<polygon fill="#ffffff" stroke="#bfbfbf" points="1574,-56.5 1574,-75.5 1656,-75.5 1656,-56.5 1574,-56.5"/>
<text text-anchor="middle" x="1615" y="-63.5" font-family="Helvetica,sans-Serif" font-size="10.00" fill="#000000">lwip/tcp_impl.h</text>
</g>
<!-- Node1&#45;&gt;Node9 -->
<g id="edge9" class="edge">
<title>Node1&#45;&gt;Node9</title>
<path fill="none" stroke="#191970" d="M1065.5603,-120.4911C1146.6006,-116.3562 1368.7595,-103.38 1563.7179,-76.0428"/>
<polygon fill="#191970" stroke="#191970" points="1564.4523,-79.4738 1573.8616,-74.6038 1563.4691,-72.5431 1564.4523,-79.4738"/>
</g>
<!-- Node10 -->
<g id="node11" class="node">
<title>Node10</title>
<polygon fill="#ffffff" stroke="#bfbfbf" points="1674.5,-56.5 1674.5,-75.5 1749.5,-75.5 1749.5,-56.5 1674.5,-56.5"/>
<text text-anchor="middle" x="1712" y="-63.5" font-family="Helvetica,sans-Serif" font-size="10.00" fill="#000000">netif/etharp.h</text>
</g>
<!-- Node1&#45;&gt;Node10 -->
<g id="edge10" class="edge">
<title>Node1&#45;&gt;Node10</title>
<path fill="none" stroke="#191970" d="M1065.6785,-121.2225C1157.011,-118.6571 1428.7886,-108.7489 1664.2479,-75.9093"/>
<polygon fill="#191970" stroke="#191970" points="1664.9585,-79.3438 1674.3709,-74.48 1663.9797,-72.4125 1664.9585,-79.3438"/>
</g>
<!-- Node11 -->
<g id="node12" class="node">
<title>Node11</title>
<polygon fill="#ffffff" stroke="#bfbfbf" points="64,-56.5 64,-75.5 128,-75.5 128,-56.5 64,-56.5"/>
<text text-anchor="middle" x="96" y="-63.5" font-family="Helvetica,sans-Serif" font-size="10.00" fill="#000000">lwip/netif.h</text>
</g>
<!-- Node1&#45;&gt;Node11 -->
<g id="edge11" class="edge">
<title>Node1&#45;&gt;Node11</title>
<path fill="none" stroke="#191970" d="M1002.1713,-121.1709C865.7507,-117.4962 329.1111,-101.7735 138.2932,-75.8777"/>
<polygon fill="#191970" stroke="#191970" points="138.5083,-72.3733 128.1166,-74.438 137.5277,-79.3043 138.5083,-72.3733"/>
</g>
<!-- Node12 -->
<g id="node13" class="node">
<title>Node12</title>
<polygon fill="#ffffff" stroke="#bfbfbf" points="146.5,-56.5 146.5,-75.5 233.5,-75.5 233.5,-56.5 146.5,-56.5"/>
<text text-anchor="middle" x="190" y="-63.5" font-family="Helvetica,sans-Serif" font-size="10.00" fill="#000000">lwip/lwip_napt.h</text>
</g>
<!-- Node1&#45;&gt;Node12 -->
<g id="edge12" class="edge">
<title>Node1&#45;&gt;Node12</title>
<path fill="none" stroke="#191970" d="M1002.1744,-121.6566C895.9574,-120.1939 543.879,-112.7947 243.8296,-76.0849"/>
<polygon fill="#191970" stroke="#191970" points="243.9803,-72.5769 233.6262,-74.8226 243.1209,-79.524 243.9803,-72.5769"/>
</g>
<!-- Node13 -->
<g id="node14" class="node">
<title>Node13</title>
<polygon fill="#ffffff" stroke="#bfbfbf" points="251.5,-56.5 251.5,-75.5 312.5,-75.5 312.5,-56.5 251.5,-56.5"/>
<text text-anchor="middle" x="282" y="-63.5" font-family="Helvetica,sans-Serif" font-size="10.00" fill="#000000">lwip/dns.h</text>
</g>
<!-- Node1&#45;&gt;Node13 -->
<g id="edge13" class="edge">
<title>Node1&#45;&gt;Node13</title>
<path fill="none" stroke="#191970" d="M1002.489,-120.7222C885.461,-115.8617 475.1776,-97.7681 322.9722,-75.8277"/>
<polygon fill="#191970" stroke="#191970" points="323.3059,-72.3386 312.896,-74.3094 322.2628,-79.2605 323.3059,-72.3386"/>
</g>
<!-- Node14 -->
<g id="node15" class="node">
<title>Node14</title>
<polygon fill="#ffffff" stroke="#bfbfbf" points="331,-56.5 331,-75.5 445,-75.5 445,-56.5 331,-56.5"/>
<text text-anchor="middle" x="388" y="-63.5" font-family="Helvetica,sans-Serif" font-size="10.00" fill="#000000">lwip/app/dhcpserver.h</text>
</g>
<!-- Node1&#45;&gt;Node14 -->
<g id="edge14" class="edge">
<title>Node1&#45;&gt;Node14</title>
<path fill="none" stroke="#191970" d="M1002.4881,-120.2923C916.5252,-115.4656 670.5686,-100.5346 455.425,-76.0932"/>
<polygon fill="#191970" stroke="#191970" points="455.5375,-72.5833 445.2041,-74.9222 454.7407,-79.5378 455.5375,-72.5833"/>
</g>
<!-- Node15 -->
<g id="node16" class="node">
<title>Node15</title>
<polygon fill="#ffffff" stroke="#bfbfbf" points="463.5,-56.5 463.5,-75.5 522.5,-75.5 522.5,-56.5 463.5,-56.5"/>
<text text-anchor="middle" x="493" y="-63.5" font-family="Helvetica,sans-Serif" font-size="10.00" fill="#000000">lwip/opt.h</text>
</g>
<!-- Node1&#45;&gt;Node15 -->
<g id="edge15" class="edge">
<title>Node1&#45;&gt;Node15</title>
<path fill="none" stroke="#191970" d="M1002.2711,-120.9277C923.9506,-117.8929 715.1243,-107.441 532.8027,-76.0855"/>
<polygon fill="#191970" stroke="#191970" points="533.2201,-72.6055 522.7671,-74.3334 532.0162,-79.5012 533.2201,-72.6055"/>
</g>
<!-- Node16 -->
<g id="node17" class="node">
<title>Node16</title>
<polygon fill="#ffffff" stroke="#bfbfbf" points="540.5,-56.5 540.5,-75.5 603.5,-75.5 603.5,-56.5 540.5,-56.5"/>
<text text-anchor="middle" x="572" y="-63.5" font-family="Helvetica,sans-Serif" font-size="10.00" fill="#000000">espconn.h</text>
</g>
<!-- Node1&#45;&gt;Node16 -->
<g id="edge16" class="edge">
<title>Node1&#45;&gt;Node16</title>
<path fill="none" stroke="#191970" d="M1002.3778,-119.9604C933.517,-115.2168 764.7455,-101.9535 613.6251,-75.8985"/>
<polygon fill="#191970" stroke="#191970" points="614.1511,-72.4375 603.6978,-74.1638 612.946,-79.333 614.1511,-72.4375"/>
</g>
<!-- Node17 -->
<g id="node18" class="node">
<title>Node17</title>
<polygon fill="#ffffff" stroke="#bfbfbf" points="1298.5,-.5 1298.5,-19.5 1357.5,-19.5 1357.5,-.5 1298.5,-.5"/>
<text text-anchor="middle" x="1328" y="-7.5" font-family="Helvetica,sans-Serif" font-size="10.00" fill="#000000">ets_sys.h</text>
</g>
<!-- Node1&#45;&gt;Node17 -->
<g id="edge17" class="edge">
<title>Node1&#45;&gt;Node17</title>
<path fill="none" stroke="#191970" d="M1065.9079,-120.8294C1130.4748,-117.814 1273.5004,-107.6491 1309,-76 1321.908,-64.4921 1326.2887,-44.8403 1327.661,-29.9656"/>
<polygon fill="#191970" stroke="#191970" points="1331.1691,-29.9109 1328.2155,-19.7361 1324.1793,-29.5319 1331.1691,-29.9109"/>
</g>
<!-- Node18 -->
<g id="node19" class="node">
<title>Node18</title>
<polygon fill="#ffffff" stroke="#bfbfbf" points="622,-56.5 622,-75.5 666,-75.5 666,-56.5 622,-56.5"/>
<text text-anchor="middle" x="644" y="-63.5" font-family="Helvetica,sans-Serif" font-size="10.00" fill="#000000">gpio.h</text>
</g>
<!-- Node1&#45;&gt;Node18 -->
<g id="edge18" class="edge">
<title>Node1&#45;&gt;Node18</title>
<path fill="none" stroke="#191970" d="M1002.4497,-119.9236C941.1368,-115.4691 801.6006,-103.2805 676.0016,-75.8813"/>
<polygon fill="#191970" stroke="#191970" points="676.7361,-72.4592 666.2152,-73.7087 675.219,-79.2928 676.7361,-72.4592"/>
</g>
<!-- Node19 -->
<g id="node20" class="node">
<title>Node19</title>
<polygon fill="#ffffff" stroke="#bfbfbf" points="684.5,-56.5 684.5,-75.5 731.5,-75.5 731.5,-56.5 684.5,-56.5"/>
<text text-anchor="middle" x="708" y="-63.5" font-family="Helvetica,sans-Serif" font-size="10.00" fill="#000000">mem.h</text>
</g>
<!-- Node1&#45;&gt;Node19 -->
<g id="edge19" class="edge">
<title>Node1&#45;&gt;Node19</title>
<path fill="none" stroke="#191970" d="M1002.3786,-118.6061C949.9453,-112.6448 841.6144,-98.9164 741.6177,-76.1276"/>
<polygon fill="#191970" stroke="#191970" points="742.1901,-72.6676 731.6583,-73.8209 740.6106,-79.4871 742.1901,-72.6676"/>
</g>
<!-- Node20 -->
<g id="node21" class="node">
<title>Node20</title>
<polygon fill="#ffffff" stroke="#bfbfbf" points="749.5,-56.5 749.5,-75.5 798.5,-75.5 798.5,-56.5 749.5,-56.5"/>
<text text-anchor="middle" x="774" y="-63.5" font-family="Helvetica,sans-Serif" font-size="10.00" fill="#000000">osapi.h</text>
</g>
<!-- Node1&#45;&gt;Node20 -->
<g id="edge20" class="edge">
<title>Node1&#45;&gt;Node20</title>
<path fill="none" stroke="#191970" d="M1002.3676,-116.4421C960.3747,-108.8726 883.7343,-94.3959 808.8835,-76.0574"/>
<polygon fill="#191970" stroke="#191970" points="809.3639,-72.5707 798.8157,-73.5642 807.6812,-79.3654 809.3639,-72.5707"/>
</g>
<!-- Node21 -->
<g id="node22" class="node">
<title>Node21</title>
<polygon fill="#ffffff" stroke="#bfbfbf" points="817,-56.5 817,-75.5 905,-75.5 905,-56.5 817,-56.5"/>
<text text-anchor="middle" x="861" y="-63.5" font-family="Helvetica,sans-Serif" font-size="10.00" fill="#000000">user_interface.h</text>
</g>
<!-- Node1&#45;&gt;Node21 -->
<g id="edge21" class="edge">
<title>Node1&#45;&gt;Node21</title>
<path fill="none" stroke="#191970" d="M1004.2602,-112.3733C975.493,-103.0613 931.73,-88.8953 900.1444,-78.671"/>
<polygon fill="#191970" stroke="#191970" points="900.9436,-75.251 890.3517,-75.5011 898.7878,-81.9107 900.9436,-75.251"/>
</g>
<!-- Node22 -->
<g id="node23" class="node">
<title>Node22</title>
<polygon fill="#ffffff" stroke="#bfbfbf" points="923,-56.5 923,-75.5 985,-75.5 985,-56.5 923,-56.5"/>
<text text-anchor="middle" x="954" y="-63.5" font-family="Helvetica,sans-Serif" font-size="10.00" fill="#000000">upgrade.h</text>
</g>
<!-- Node1&#45;&gt;Node22 -->
<g id="edge22" class="edge">
<title>Node1&#45;&gt;Node22</title>
<path fill="none" stroke="#191970" d="M1020.0651,-112.2455C1007.9053,-103.7337 990.0536,-91.2375 975.9715,-81.3801"/>
<polygon fill="#191970" stroke="#191970" points="977.9747,-78.51 967.7752,-75.6427 973.9605,-84.2447 977.9747,-78.51"/>
</g>
<!-- Node23 -->
<g id="node24" class="node">
<title>Node23</title>
<g id="a_node24"><a xlink:href="platform_8h.html" target="_top" xlink:title="platform.h">
<polygon fill="#ffffff" stroke="#000000" points="1003.5,-56.5 1003.5,-75.5 1064.5,-75.5 1064.5,-56.5 1003.5,-56.5"/>
<text text-anchor="middle" x="1034" y="-63.5" font-family="Helvetica,sans-Serif" font-size="10.00" fill="#000000">platform.h</text>
</a>
</g>
</g>
<!-- Node1&#45;&gt;Node23 -->
<g id="edge23" class="edge">
<title>Node1&#45;&gt;Node23</title>
<path fill="none" stroke="#191970" d="M1034,-112.2455C1034,-104.9382 1034,-94.6944 1034,-85.7046"/>
<polygon fill="#191970" stroke="#191970" points="1037.5001,-85.6426 1034,-75.6427 1030.5001,-85.6427 1037.5001,-85.6426"/>
</g>
<!-- Node24 -->
<g id="node25" class="node">
<title>Node24</title>
<g id="a_node25"><a xlink:href="espmissingincludes_8h.html" target="_top" xlink:title="espmissingincludes.h">
<polygon fill="#ffffff" stroke="#000000" points="1188,-56.5 1188,-75.5 1300,-75.5 1300,-56.5 1188,-56.5"/>
<text text-anchor="middle" x="1244" y="-63.5" font-family="Helvetica,sans-Serif" font-size="10.00" fill="#000000">espmissingincludes.h</text>
</a>
</g>
</g>
<!-- Node1&#45;&gt;Node24 -->
<g id="edge24" class="edge">
<title>Node1&#45;&gt;Node24</title>
<path fill="none" stroke="#191970" d="M1065.8945,-113.4948C1101.2236,-104.0737 1158.4735,-88.8071 1198.5017,-78.1329"/>
<polygon fill="#191970" stroke="#191970" points="1199.5229,-81.4829 1208.2834,-75.5244 1197.7192,-74.7193 1199.5229,-81.4829"/>
</g>
<!-- Node24&#45;&gt;Node6 -->
<g id="edge26" class="edge">
<title>Node24&#45;&gt;Node6</title>
<path fill="none" stroke="#191970" d="M1229.5425,-56.2455C1216.9268,-47.7337 1198.4056,-35.2375 1183.7955,-25.3801"/>
<polygon fill="#191970" stroke="#191970" points="1185.5391,-22.3343 1175.2918,-19.6427 1181.6239,-28.1371 1185.5391,-22.3343"/>
</g>
<!-- Node24&#45;&gt;Node17 -->
<g id="edge28" class="edge">
<title>Node24&#45;&gt;Node17</title>
<path fill="none" stroke="#191970" d="M1258.6317,-56.2455C1271.3994,-47.7337 1290.1438,-35.2375 1304.9299,-25.3801"/>
<polygon fill="#191970" stroke="#191970" points="1307.1569,-28.1019 1313.536,-19.6427 1303.274,-22.2775 1307.1569,-28.1019"/>
</g>
<!-- Node24&#45;&gt;Node25 -->
<g id="edge25" class="edge">
<title>Node24&#45;&gt;Node25</title>
<path fill="none" stroke="#191970" d="M1300.1381,-60.1129C1410.6397,-48.5247 1653.4374,-23.0627 1743.4934,-13.6187"/>
<polygon fill="#191970" stroke="#191970" points="1743.874,-17.098 1753.4544,-12.5741 1743.1438,-10.1362 1743.874,-17.098"/>
</g>
<!-- Node26 -->
<g id="node27" class="node">
<title>Node26</title>
<polygon fill="#ffffff" stroke="#bfbfbf" points="1209,-.5 1209,-19.5 1279,-19.5 1279,-.5 1209,-.5"/>
<text text-anchor="middle" x="1244" y="-7.5" font-family="Helvetica,sans-Serif" font-size="10.00" fill="#000000">eagle_soc.h</text>
</g>
<!-- Node24&#45;&gt;Node26 -->
<g id="edge27" class="edge">
<title>Node24&#45;&gt;Node26</title>
<path fill="none" stroke="#191970" d="M1244,-56.2455C1244,-48.9382 1244,-38.6944 1244,-29.7046"/>
<polygon fill="#191970" stroke="#191970" points="1247.5001,-29.6426 1244,-19.6427 1240.5001,-29.6427 1247.5001,-29.6426"/>
</g>
<!-- Node27&#45;&gt;Node1 -->
<g id="edge32" class="edge">
<title>Node27&#45;&gt;Node1</title>
<path fill="none" stroke="#191970" d="M1034,-168.2455C1034,-160.9382 1034,-150.6944 1034,-141.7046"/>
<polygon fill="#191970" stroke="#191970" points="1037.5001,-141.6426 1034,-131.6427 1030.5001,-141.6427 1037.5001,-141.6426"/>
</g>
<!-- Node27&#45;&gt;Node3 -->
<g id="edge33" class="edge">
<title>Node27&#45;&gt;Node3</title>
<path fill="none" stroke="#191970" d="M992.9889,-176.6458C858.8966,-171.606 421.5761,-150.3278 56.2501,-75.9112"/>
<polygon fill="#191970" stroke="#191970" points="56.7776,-72.4466 46.2779,-73.8629 55.3691,-79.3034 56.7776,-72.4466"/>
</g>
<!-- Node28&#45;&gt;Node1 -->
<g id="edge35" class="edge">
<title>Node28&#45;&gt;Node1</title>
<path fill="none" stroke="#191970" d="M1168.0177,-224.0953C1157.9276,-210.2859 1138.1478,-185.0298 1117,-168 1101.2322,-155.3026 1081.4778,-144.1961 1065.197,-136.0788"/>
<polygon fill="#191970" stroke="#191970" points="1066.5944,-132.8667 1056.069,-131.6555 1063.5417,-139.166 1066.5944,-132.8667"/>
</g>
<!-- Node28&#45;&gt;Node25 -->
<g id="edge36" class="edge">
<title>Node28&#45;&gt;Node25</title>
<path fill="none" stroke="#191970" d="M1219.2246,-227.6314C1341.359,-209.2026 1679.4679,-152.2428 1758,-76 1770.4587,-63.9044 1775.2201,-44.3308 1777.007,-29.6344"/>
<polygon fill="#191970" stroke="#191970" points="1780.5044,-29.8138 1777.8718,-19.5512 1773.53,-29.2155 1780.5044,-29.8138"/>
</g>
<!-- Node28&#45;&gt;Node27 -->
<g id="edge37" class="edge">
<title>Node28&#45;&gt;Node27</title>
<path fill="none" stroke="#191970" d="M1150.7612,-224.3733C1127.7211,-215.2226 1092.8786,-201.3844 1067.2499,-191.2057"/>
<polygon fill="#191970" stroke="#191970" points="1068.5082,-187.9395 1057.9225,-187.5011 1065.9244,-194.4452 1068.5082,-187.9395"/>
</g>
</g>
</svg>
