<?xml version="1.0" encoding="UTF-8" standalone="no"?>
<!DOCTYPE svg PUBLIC "-//W3C//DTD SVG 1.1//EN"
 "http://www.w3.org/Graphics/SVG/1.1/DTD/svg11.dtd">
<!-- Generated by graphviz version 2.39.20160927.1334 (20160927.1334)
 -->
<!-- Title: sha256_init Pages: 1 -->
<svg width="1382pt" height="306pt"
 viewBox="0.00 0.00 1382.00 306.37" xmlns="http://www.w3.org/2000/svg" xmlns:xlink="http://www.w3.org/1999/xlink">
<g id="graph0" class="graph" transform="scale(1 1) rotate(0) translate(4 302.374)">
<title>sha256_init</title>
<polygon fill="#ffffff" stroke="transparent" points="-4,4 -4,-302.374 1378,-302.374 1378,4 -4,4"/>
<!-- Node1 -->
<g id="node1" class="node">
<title>Node1</title>
<polygon fill="#bfbfbf" stroke="#000000" points="0,-107.874 0,-126.874 68,-126.874 68,-107.874 0,-107.874"/>
<text text-anchor="middle" x="34" y="-114.874" font-family="Helvetica,sans-Serif" font-size="10.00" fill="#000000">sha256_init</text>
</g>
<!-- Node2 -->
<g id="node2" class="node">
<title>Node2</title>
<g id="a_node2"><a xlink:href="hmac-sha256_8h.html#a7fad664b062689148a6b1ee5d4bc790d" target="_top" xlink:title="hmac_sha256_final">
<polygon fill="#ffffff" stroke="#000000" points="214,-164.874 214,-183.874 317,-183.874 317,-164.874 214,-164.874"/>
<text text-anchor="middle" x="265.5" y="-171.874" font-family="Helvetica,sans-Serif" font-size="10.00" fill="#000000">hmac_sha256_final</text>
</a>
</g>
</g>
<!-- Node1&#45;&gt;Node2 -->
<g id="edge1" class="edge">
<title>Node1&#45;&gt;Node2</title>
<path fill="none" stroke="#191970" d="M70.2554,-130.127C81.041,-133.692 92.9337,-137.401 104,-140.374 140.388,-150.151 182.006,-158.854 213.88,-165.008"/>
<polygon fill="#191970" stroke="#191970" points="71.3109,-126.789 60.7168,-126.918 69.079,-133.424 71.3109,-126.789"/>
</g>
<!-- Node20 -->
<g id="node20" class="node">
<title>Node20</title>
<g id="a_node20"><a xlink:href="hmac-sha256_8h.html#a553a08d76959d7d64d25927fa418af1f" target="_top" xlink:title="hmac_sha256_init">
<polygon fill="#ffffff" stroke="#000000" points="216.5,-126.874 216.5,-145.874 314.5,-145.874 314.5,-126.874 216.5,-126.874"/>
<text text-anchor="middle" x="265.5" y="-133.874" font-family="Helvetica,sans-Serif" font-size="10.00" fill="#000000">hmac_sha256_init</text>
</a>
</g>
</g>
<!-- Node1&#45;&gt;Node20 -->
<g id="edge28" class="edge">
<title>Node1&#45;&gt;Node20</title>
<path fill="none" stroke="#191970" d="M78.2703,-121.007C117.707,-124.244 175.335,-128.974 216.223,-132.33"/>
<polygon fill="#191970" stroke="#191970" points="78.4114,-117.507 68.1586,-120.178 77.8388,-124.484 78.4114,-117.507"/>
</g>
<!-- Node21 -->
<g id="node21" class="node">
<title>Node21</title>
<g id="a_node21"><a xlink:href="sha256_8h.html#ababc3bbc43106f089ba5e8d588c70fd1" target="_top" xlink:title="sha256_data">
<polygon fill="#ffffff" stroke="#000000" points="104,-50.874 104,-69.874 178,-69.874 178,-50.874 104,-50.874"/>
<text text-anchor="middle" x="141" y="-57.874" font-family="Helvetica,sans-Serif" font-size="10.00" fill="#000000">sha256_data</text>
</a>
</g>
</g>
<!-- Node1&#45;&gt;Node21 -->
<g id="edge32" class="edge">
<title>Node1&#45;&gt;Node21</title>
<path fill="none" stroke="#191970" d="M60.4189,-102.847C73.4933,-95.7051 89.536,-87.0124 104,-79.374 109.875,-76.2717 116.305,-72.9453 122.134,-69.9566"/>
<polygon fill="#191970" stroke="#191970" points="58.5793,-99.8639 51.4884,-107.736 61.9407,-106.004 58.5793,-99.8639"/>
</g>
<!-- Node22 -->
<g id="node22" class="node">
<title>Node22</title>
<g id="a_node22"><a xlink:href="sha256_8h.html#a6baa2520d6a63710f8883f2a29bb5227" target="_top" xlink:title="sha256_raw">
<polygon fill="#ffffff" stroke="#000000" points="105.5,-88.874 105.5,-107.874 176.5,-107.874 176.5,-88.874 105.5,-88.874"/>
<text text-anchor="middle" x="141" y="-95.874" font-family="Helvetica,sans-Serif" font-size="10.00" fill="#000000">sha256_raw</text>
</a>
</g>
</g>
<!-- Node1&#45;&gt;Node22 -->
<g id="edge33" class="edge">
<title>Node1&#45;&gt;Node22</title>
<path fill="none" stroke="#191970" d="M78.1544,-109.533C87.2054,-107.926 96.6246,-106.254 105.332,-104.708"/>
<polygon fill="#191970" stroke="#191970" points="77.3837,-106.116 68.1497,-111.31 78.6076,-113.008 77.3837,-106.116"/>
</g>
<!-- Node3 -->
<g id="node3" class="node">
<title>Node3</title>
<g id="a_node3"><a xlink:href="crypto_8h.html#a0d1e89f74b522d69161f6b213fc5abc7" target="_top" xlink:title="decrypt_aes_hmac_combined">
<polygon fill="#ffffff" stroke="#000000" points="353,-202.874 353,-221.874 503,-221.874 503,-202.874 353,-202.874"/>
<text text-anchor="middle" x="428" y="-209.874" font-family="Helvetica,sans-Serif" font-size="10.00" fill="#000000">decrypt_aes_hmac_combined</text>
</a>
</g>
</g>
<!-- Node2&#45;&gt;Node3 -->
<g id="edge2" class="edge">
<title>Node2&#45;&gt;Node3</title>
<path fill="none" stroke="#191970" d="M316.371,-186.27C339.212,-191.611 365.795,-197.828 387.289,-202.854"/>
<polygon fill="#191970" stroke="#191970" points="317.04,-182.832 306.506,-183.963 315.446,-189.648 317.04,-182.832"/>
</g>
<!-- Node8 -->
<g id="node8" class="node">
<title>Node8</title>
<g id="a_node8"><a xlink:href="crypto_8h.html#a7991ec94c8faa24921947687f2d587a0" target="_top" xlink:title="encrypt_aes_hmac_combined">
<polygon fill="#ffffff" stroke="#000000" points="353,-164.874 353,-183.874 503,-183.874 503,-164.874 353,-164.874"/>
<text text-anchor="middle" x="428" y="-171.874" font-family="Helvetica,sans-Serif" font-size="10.00" fill="#000000">encrypt_aes_hmac_combined</text>
</a>
</g>
</g>
<!-- Node2&#45;&gt;Node8 -->
<g id="edge7" class="edge">
<title>Node2&#45;&gt;Node8</title>
<path fill="none" stroke="#191970" d="M327.385,-174.374C335.74,-174.374 344.386,-174.374 352.939,-174.374"/>
<polygon fill="#191970" stroke="#191970" points="327.363,-170.874 317.363,-174.374 327.363,-177.874 327.363,-170.874"/>
</g>
<!-- Node19 -->
<g id="node19" class="node">
<title>Node19</title>
<g id="a_node19"><a xlink:href="hmac-sha256_8h.html#acdadc130fbf78b5f98339c203a057796" target="_top" xlink:title="hmac_sha256">
<polygon fill="#ffffff" stroke="#000000" points="388.5,-126.874 388.5,-145.874 467.5,-145.874 467.5,-126.874 388.5,-126.874"/>
<text text-anchor="middle" x="428" y="-133.874" font-family="Helvetica,sans-Serif" font-size="10.00" fill="#000000">hmac_sha256</text>
</a>
</g>
</g>
<!-- Node2&#45;&gt;Node19 -->
<g id="edge27" class="edge">
<title>Node2&#45;&gt;Node19</title>
<path fill="none" stroke="#191970" d="M316.526,-162.442C339.731,-157.015 366.773,-150.692 388.41,-145.632"/>
<polygon fill="#191970" stroke="#191970" points="315.446,-159.1 306.506,-164.785 317.04,-165.916 315.446,-159.1"/>
</g>
<!-- Node4 -->
<g id="node4" class="node">
<title>Node4</title>
<g id="a_node4"><a xlink:href="user__main_8h.html#a53fca5688835df983e3ff1a91d387618" target="_top" xlink:title="mqttDataCb">
<polygon fill="#ffffff" stroke="#000000" points="565,-278.874 565,-297.874 635,-297.874 635,-278.874 565,-278.874"/>
<text text-anchor="middle" x="600" y="-285.874" font-family="Helvetica,sans-Serif" font-size="10.00" fill="#000000">mqttDataCb</text>
</a>
</g>
</g>
<!-- Node3&#45;&gt;Node4 -->
<g id="edge3" class="edge">
<title>Node3&#45;&gt;Node4</title>
<path fill="none" stroke="#191970" d="M456.707,-226.433C478.986,-237.195 510.735,-252.208 539,-264.374 550.603,-269.368 563.612,-274.544 574.627,-278.804"/>
<polygon fill="#191970" stroke="#191970" points="458.005,-223.172 447.48,-221.957 454.95,-229.471 458.005,-223.172"/>
</g>
<!-- Node5 -->
<g id="node5" class="node">
<title>Node5</title>
<g id="a_node5"><a xlink:href="user__main_8c.html#a245ec00253f410a8804988bf40e1037e" target="_top" xlink:title="sample_mode_timer_func">
<polygon fill="#ffffff" stroke="#000000" points="1022,-224.874 1022,-243.874 1154,-243.874 1154,-224.874 1022,-224.874"/>
<text text-anchor="middle" x="1088" y="-231.874" font-family="Helvetica,sans-Serif" font-size="10.00" fill="#000000">sample_mode_timer_func</text>
</a>
</g>
</g>
<!-- Node4&#45;&gt;Node5 -->
<g id="edge4" class="edge">
<title>Node4&#45;&gt;Node5</title>
<path fill="none" stroke="#191970" d="M645.375,-285.643C717.678,-280.981 863.385,-270.315 986,-253.374 1004.38,-250.835 1024.48,-247.263 1041.94,-243.901"/>
<polygon fill="#191970" stroke="#191970" points="645.009,-282.159 635.252,-286.288 645.454,-289.145 645.009,-282.159"/>
</g>
<!-- Node6 -->
<g id="node6" class="node">
<title>Node6</title>
<g id="a_node6"><a xlink:href="user__main_8h.html#a3671381db669a16e8f6a4bf3dfb9a441" target="_top" xlink:title="system_init_done">
<polygon fill="#ffffff" stroke="#000000" points="1190,-164.874 1190,-183.874 1284,-183.874 1284,-164.874 1190,-164.874"/>
<text text-anchor="middle" x="1237" y="-171.874" font-family="Helvetica,sans-Serif" font-size="10.00" fill="#000000">system_init_done</text>
</a>
</g>
</g>
<!-- Node5&#45;&gt;Node6 -->
<g id="edge5" class="edge">
<title>Node5&#45;&gt;Node6</title>
<path fill="none" stroke="#191970" d="M1120.94,-221.108C1148.8,-209.891 1188.05,-194.086 1213.01,-184.035"/>
<polygon fill="#191970" stroke="#191970" points="1119.58,-217.885 1111.61,-224.867 1122.19,-224.378 1119.58,-217.885"/>
</g>
<!-- Node7 -->
<g id="node7" class="node">
<title>Node7</title>
<g id="a_node7"><a xlink:href="user__main_8h.html#a33113d6dedb440bd7dfa5576e325140c" target="_top" xlink:title="user_init">
<polygon fill="#ffffff" stroke="#000000" points="1320,-62.874 1320,-81.874 1374,-81.874 1374,-62.874 1320,-62.874"/>
<text text-anchor="middle" x="1347" y="-69.874" font-family="Helvetica,sans-Serif" font-size="10.00" fill="#000000">user_init</text>
</a>
</g>
</g>
<!-- Node6&#45;&gt;Node7 -->
<g id="edge6" class="edge">
<title>Node6&#45;&gt;Node7</title>
<path fill="none" stroke="#191970" d="M1255.02,-157.661C1278.27,-136.105 1317.93,-99.328 1336.65,-81.9756"/>
<polygon fill="#191970" stroke="#191970" points="1252.5,-155.228 1247.55,-164.594 1257.26,-160.361 1252.5,-155.228"/>
</g>
<!-- Node8&#45;&gt;Node4 -->
<g id="edge25" class="edge">
<title>Node8&#45;&gt;Node4</title>
<path fill="none" stroke="#191970" d="M496.056,-188.589C498.487,-190.035 500.814,-191.625 503,-193.374 530.625,-215.478 512.83,-240.565 539,-264.374 546.324,-271.037 555.715,-275.943 564.922,-279.517"/>
<polygon fill="#191970" stroke="#191970" points="497.372,-185.333 486.866,-183.961 494.223,-191.585 497.372,-185.333"/>
</g>
<!-- Node9 -->
<g id="node9" class="node">
<title>Node9</title>
<g id="a_node9"><a xlink:href="en61107__request_8c.html#aa3b162cf5364986ea19e831ac2b18f76" target="_top" xlink:title="en61107_received_task">
<polygon fill="#ffffff" stroke="#000000" points="697,-126.874 697,-145.874 820,-145.874 820,-126.874 697,-126.874"/>
<text text-anchor="middle" x="758.5" y="-133.874" font-family="Helvetica,sans-Serif" font-size="10.00" fill="#000000">en61107_received_task</text>
</a>
</g>
</g>
<!-- Node8&#45;&gt;Node9 -->
<g id="edge8" class="edge">
<title>Node8&#45;&gt;Node9</title>
<path fill="none" stroke="#191970" d="M488.42,-163.094C504.792,-160.294 522.54,-157.491 539,-155.374 592.113,-148.542 652.78,-143.5 696.854,-140.333"/>
<polygon fill="#191970" stroke="#191970" points="487.68,-159.67 478.427,-164.83 488.879,-166.566 487.68,-159.67"/>
</g>
<!-- Node11 -->
<g id="node11" class="node">
<title>Node11</title>
<g id="a_node11"><a xlink:href="en61107__request_8h.html#a7384d014eb9e833f64ecf4a9f86f87be" target="_top" xlink:title="en61107_request_send">
<polygon fill="#ffffff" stroke="#000000" points="539,-164.874 539,-183.874 661,-183.874 661,-164.874 539,-164.874"/>
<text text-anchor="middle" x="600" y="-171.874" font-family="Helvetica,sans-Serif" font-size="10.00" fill="#000000">en61107_request_send</text>
</a>
</g>
</g>
<!-- Node8&#45;&gt;Node11 -->
<g id="edge11" class="edge">
<title>Node8&#45;&gt;Node11</title>
<path fill="none" stroke="#191970" d="M513.305,-174.374C521.942,-174.374 530.589,-174.374 538.896,-174.374"/>
<polygon fill="#191970" stroke="#191970" points="513.192,-170.874 503.191,-174.374 513.191,-177.874 513.192,-170.874"/>
</g>
<!-- Node12 -->
<g id="node12" class="node">
<title>Node12</title>
<g id="a_node12"><a xlink:href="user__main_8c.html#af2c051d5ceacd30f90c08d6f584deff2" target="_top" xlink:title="sample_timer_func">
<polygon fill="#ffffff" stroke="#000000" points="708,-202.874 708,-221.874 809,-221.874 809,-202.874 708,-202.874"/>
<text text-anchor="middle" x="758.5" y="-209.874" font-family="Helvetica,sans-Serif" font-size="10.00" fill="#000000">sample_timer_func</text>
</a>
</g>
</g>
<!-- Node8&#45;&gt;Node12 -->
<g id="edge26" class="edge">
<title>Node8&#45;&gt;Node12</title>
<path fill="none" stroke="#191970" d="M488.42,-185.654C504.792,-188.454 522.54,-191.257 539,-193.374 596.665,-200.792 663.235,-206.099 707.806,-209.187"/>
<polygon fill="#191970" stroke="#191970" points="488.879,-182.182 478.427,-183.917 487.68,-189.078 488.879,-182.182"/>
</g>
<!-- Node13 -->
<g id="node13" class="node">
<title>Node13</title>
<g id="a_node13"><a xlink:href="user__main_8h.html#a06f2b383d99fcad9d0f37d1ca2224898" target="_top" xlink:title="mqttConnectedCb">
<polygon fill="#ffffff" stroke="#000000" points="872.5,-224.874 872.5,-243.874 969.5,-243.874 969.5,-224.874 872.5,-224.874"/>
<text text-anchor="middle" x="921" y="-231.874" font-family="Helvetica,sans-Serif" font-size="10.00" fill="#000000">mqttConnectedCb</text>
</a>
</g>
</g>
<!-- Node8&#45;&gt;Node13 -->
<g id="edge24" class="edge">
<title>Node8&#45;&gt;Node13</title>
<path fill="none" stroke="#191970" d="M484.297,-186.8C490.69,-188.75 497.044,-190.939 503,-193.374 520.146,-200.384 521.403,-208.589 539,-214.374 653.821,-252.122 798.456,-246.306 872.479,-239.789"/>
<polygon fill="#191970" stroke="#191970" points="484.845,-183.317 474.268,-183.932 482.921,-190.047 484.845,-183.317"/>
</g>
<!-- Node15 -->
<g id="node15" class="node">
<title>Node15</title>
<g id="a_node15"><a xlink:href="kmp__request_8c.html#a3f6b790a06b933b78f40ade5e9a16131" target="_top" xlink:title="kmp_received_task">
<polygon fill="#ffffff" stroke="#000000" points="548.5,-42.874 548.5,-61.874 651.5,-61.874 651.5,-42.874 548.5,-42.874"/>
<text text-anchor="middle" x="600" y="-49.874" font-family="Helvetica,sans-Serif" font-size="10.00" fill="#000000">kmp_received_task</text>
</a>
</g>
</g>
<!-- Node8&#45;&gt;Node15 -->
<g id="edge17" class="edge">
<title>Node8&#45;&gt;Node15</title>
<path fill="none" stroke="#191970" d="M496.548,-160.026C498.809,-158.615 500.97,-157.069 503,-155.374 532.619,-130.645 511.006,-102.929 539,-76.374 545.605,-70.1082 554.039,-65.4148 562.514,-61.9229"/>
<polygon fill="#191970" stroke="#191970" points="494.635,-157.078 487.406,-164.824 497.887,-163.276 494.635,-157.078"/>
</g>
<!-- Node17 -->
<g id="node17" class="node">
<title>Node17</title>
<g id="a_node17"><a xlink:href="kmp__request_8h.html#a3b022dcdc832786eb06126b5e6879604" target="_top" xlink:title="kmp_request_send">
<polygon fill="#ffffff" stroke="#000000" points="549,-85.874 549,-104.874 651,-104.874 651,-85.874 549,-85.874"/>
<text text-anchor="middle" x="600" y="-92.874" font-family="Helvetica,sans-Serif" font-size="10.00" fill="#000000">kmp_request_send</text>
</a>
</g>
</g>
<!-- Node8&#45;&gt;Node17 -->
<g id="edge20" class="edge">
<title>Node8&#45;&gt;Node17</title>
<path fill="none" stroke="#191970" d="M489.455,-161.518C494.148,-159.723 498.719,-157.685 503,-155.374 522.099,-145.063 520.836,-134.257 539,-122.374 549.661,-115.4 562.422,-109.434 573.511,-104.898"/>
<polygon fill="#191970" stroke="#191970" points="488.022,-158.309 479.704,-164.872 490.299,-164.929 488.022,-158.309"/>
</g>
<!-- Node10 -->
<g id="node10" class="node">
<title>Node10</title>
<g id="a_node10"><a xlink:href="en61107__request_8h.html#acd43242675a3f25e7c3b530eac9d8b3a" target="_top" xlink:title="en61107_request_init">
<polygon fill="#ffffff" stroke="#000000" points="864.5,-98.874 864.5,-117.874 977.5,-117.874 977.5,-98.874 864.5,-98.874"/>
<text text-anchor="middle" x="921" y="-105.874" font-family="Helvetica,sans-Serif" font-size="10.00" fill="#000000">en61107_request_init</text>
</a>
</g>
</g>
<!-- Node9&#45;&gt;Node10 -->
<g id="edge9" class="edge">
<title>Node9&#45;&gt;Node10</title>
<path fill="none" stroke="#191970" d="M823.936,-125.099C837.812,-122.708 852.329,-120.207 865.781,-117.889"/>
<polygon fill="#191970" stroke="#191970" points="823.229,-121.669 813.969,-126.816 824.418,-128.567 823.229,-121.669"/>
</g>
<!-- Node10&#45;&gt;Node7 -->
<g id="edge10" class="edge">
<title>Node10&#45;&gt;Node7</title>
<path fill="none" stroke="#191970" d="M987.675,-102.739C1082.96,-94.6875 1253.85,-80.2461 1319.9,-74.6638"/>
<polygon fill="#191970" stroke="#191970" points="987.239,-99.2637 977.57,-103.593 987.829,-106.239 987.239,-99.2637"/>
</g>
<!-- Node11&#45;&gt;Node12 -->
<g id="edge12" class="edge">
<title>Node11&#45;&gt;Node12</title>
<path fill="none" stroke="#191970" d="M649.919,-186.342C672.13,-191.667 697.921,-197.85 718.791,-202.854"/>
<polygon fill="#191970" stroke="#191970" points="650.537,-182.891 639.996,-183.963 648.905,-189.698 650.537,-182.891"/>
</g>
<!-- Node14 -->
<g id="node14" class="node">
<title>Node14</title>
<g id="a_node14"><a xlink:href="user__main_8c.html#ad75c70d9e67f9a03a6bc6efed2e08c9a" target="_top" xlink:title="en61107_request_send\l_timer_func">
<polygon fill="#ffffff" stroke="#000000" points="1027,-159.374 1027,-189.374 1149,-189.374 1149,-159.374 1027,-159.374"/>
<text text-anchor="start" x="1035" y="-177.374" font-family="Helvetica,sans-Serif" font-size="10.00" fill="#000000">en61107_request_send</text>
<text text-anchor="middle" x="1088" y="-166.374" font-family="Helvetica,sans-Serif" font-size="10.00" fill="#000000">_timer_func</text>
</a>
</g>
</g>
<!-- Node11&#45;&gt;Node14 -->
<g id="edge15" class="edge">
<title>Node11&#45;&gt;Node14</title>
<path fill="none" stroke="#191970" d="M671.512,-174.374C767.553,-174.374 936.563,-174.374 1026.94,-174.374"/>
<polygon fill="#191970" stroke="#191970" points="671.311,-170.874 661.311,-174.374 671.311,-177.874 671.311,-170.874"/>
</g>
<!-- Node12&#45;&gt;Node13 -->
<g id="edge13" class="edge">
<title>Node12&#45;&gt;Node13</title>
<path fill="none" stroke="#191970" d="M819.189,-220.59C836.768,-222.97 855.721,-225.536 872.453,-227.801"/>
<polygon fill="#191970" stroke="#191970" points="819.404,-217.088 809.025,-219.214 818.465,-224.024 819.404,-217.088"/>
</g>
<!-- Node13&#45;&gt;Node5 -->
<g id="edge14" class="edge">
<title>Node13&#45;&gt;Node5</title>
<path fill="none" stroke="#191970" d="M979.905,-234.374C993.46,-234.374 1007.96,-234.374 1021.8,-234.374"/>
<polygon fill="#191970" stroke="#191970" points="979.752,-230.874 969.752,-234.374 979.752,-237.874 979.752,-230.874"/>
</g>
<!-- Node14&#45;&gt;Node6 -->
<g id="edge16" class="edge">
<title>Node14&#45;&gt;Node6</title>
<path fill="none" stroke="#191970" d="M1159.04,-174.374C1169.54,-174.374 1180.13,-174.374 1189.98,-174.374"/>
<polygon fill="#191970" stroke="#191970" points="1159.03,-170.874 1149.03,-174.374 1159.03,-177.874 1159.03,-170.874"/>
</g>
<!-- Node16 -->
<g id="node16" class="node">
<title>Node16</title>
<g id="a_node16"><a xlink:href="kmp__request_8h.html#a048753ff9d6b448e2dcd8c85db0d6873" target="_top" xlink:title="kmp_request_init">
<polygon fill="#ffffff" stroke="#000000" points="1190.5,-38.874 1190.5,-57.874 1283.5,-57.874 1283.5,-38.874 1190.5,-38.874"/>
<text text-anchor="middle" x="1237" y="-45.874" font-family="Helvetica,sans-Serif" font-size="10.00" fill="#000000">kmp_request_init</text>
</a>
</g>
</g>
<!-- Node15&#45;&gt;Node16 -->
<g id="edge18" class="edge">
<title>Node15&#45;&gt;Node16</title>
<path fill="none" stroke="#191970" d="M661.922,-51.9852C789.061,-51.1868 1077.07,-49.3782 1190.16,-48.6681"/>
<polygon fill="#191970" stroke="#191970" points="661.567,-48.4872 651.589,-52.05 661.611,-55.4871 661.567,-48.4872"/>
</g>
<!-- Node16&#45;&gt;Node7 -->
<g id="edge19" class="edge">
<title>Node16&#45;&gt;Node7</title>
<path fill="none" stroke="#191970" d="M1290.79,-60.111C1300.87,-62.3085 1310.99,-64.5178 1319.82,-66.4438"/>
<polygon fill="#191970" stroke="#191970" points="1291.31,-56.6406 1280.79,-57.9284 1289.82,-63.4797 1291.31,-56.6406"/>
</g>
<!-- Node17&#45;&gt;Node12 -->
<g id="edge23" class="edge">
<title>Node17&#45;&gt;Node12</title>
<path fill="none" stroke="#191970" d="M621.107,-110.954C654.342,-135.487 717.908,-182.411 745.35,-202.667"/>
<polygon fill="#191970" stroke="#191970" points="623.095,-108.072 612.971,-104.949 618.938,-113.703 623.095,-108.072"/>
</g>
<!-- Node18 -->
<g id="node18" class="node">
<title>Node18</title>
<g id="a_node18"><a xlink:href="kmp__request_8c.html#a0977a4640a97d389ac3b0fef0ba7a9b6" target="_top" xlink:title="kmp_receive_timeout\l_timer_func">
<polygon fill="#ffffff" stroke="#000000" points="702.5,-77.374 702.5,-107.374 814.5,-107.374 814.5,-77.374 702.5,-77.374"/>
<text text-anchor="start" x="710.5" y="-95.374" font-family="Helvetica,sans-Serif" font-size="10.00" fill="#000000">kmp_receive_timeout</text>
<text text-anchor="middle" x="758.5" y="-84.374" font-family="Helvetica,sans-Serif" font-size="10.00" fill="#000000">_timer_func</text>
</a>
</g>
</g>
<!-- Node17&#45;&gt;Node18 -->
<g id="edge21" class="edge">
<title>Node17&#45;&gt;Node18</title>
<path fill="none" stroke="#191970" d="M661.205,-87.6235C674.747,-87.1263 689.031,-86.8905 702.359,-86.9484"/>
<polygon fill="#191970" stroke="#191970" points="660.866,-84.1346 651.023,-88.0542 661.162,-91.1284 660.866,-84.1346"/>
</g>
<!-- Node18&#45;&gt;Node17 -->
<g id="edge22" class="edge">
<title>Node18&#45;&gt;Node17</title>
<path fill="none" stroke="#191970" d="M692.009,-100.304C678.304,-100.733 664.076,-100.897 651.023,-100.762"/>
<polygon fill="#191970" stroke="#191970" points="692.494,-103.789 702.359,-99.9248 692.238,-96.7935 692.494,-103.789"/>
</g>
<!-- Node20&#45;&gt;Node3 -->
<g id="edge29" class="edge">
<title>Node20&#45;&gt;Node3</title>
<path fill="none" stroke="#191970" d="M307.724,-150.088C310.954,-151.694 314.087,-153.453 317,-155.374 336.422,-168.18 332.93,-181.608 353,-193.374 359.605,-197.246 366.987,-200.336 374.472,-202.8"/>
<polygon fill="#191970" stroke="#191970" points="309.022,-146.835 298.463,-145.965 306.175,-153.23 309.022,-146.835"/>
</g>
<!-- Node20&#45;&gt;Node8 -->
<g id="edge30" class="edge">
<title>Node20&#45;&gt;Node8</title>
<path fill="none" stroke="#191970" d="M316.371,-148.27C339.212,-153.611 365.795,-159.828 387.289,-164.854"/>
<polygon fill="#191970" stroke="#191970" points="317.04,-144.832 306.506,-145.963 315.446,-151.648 317.04,-144.832"/>
</g>
<!-- Node20&#45;&gt;Node19 -->
<g id="edge31" class="edge">
<title>Node20&#45;&gt;Node19</title>
<path fill="none" stroke="#191970" d="M324.895,-136.374C346.076,-136.374 369.398,-136.374 388.496,-136.374"/>
<polygon fill="#191970" stroke="#191970" points="324.696,-132.874 314.696,-136.374 324.696,-139.874 324.696,-132.874"/>
</g>
<!-- Node22&#45;&gt;Node20 -->
<g id="edge36" class="edge">
<title>Node22&#45;&gt;Node20</title>
<path fill="none" stroke="#191970" d="M182.07,-110.909C199.006,-116.079 218.318,-121.973 234.093,-126.788"/>
<polygon fill="#191970" stroke="#191970" points="183.003,-107.535 172.417,-107.963 180.959,-114.23 183.003,-107.535"/>
</g>
<!-- Node23 -->
<g id="node23" class="node">
<title>Node23</title>
<g id="a_node23"><a xlink:href="crypto_8h.html#adcbe39568432d42d61fed9ce126d330b" target="_top" xlink:title="init_aes_hmac_combined">
<polygon fill="#ffffff" stroke="#000000" points="856,-0.87399 856,-19.874 986,-19.874 986,-0.87399 856,-0.87399"/>
<text text-anchor="middle" x="921" y="-7.87399" font-family="Helvetica,sans-Serif" font-size="10.00" fill="#000000">init_aes_hmac_combined</text>
</a>
</g>
</g>
<!-- Node22&#45;&gt;Node23 -->
<g id="edge34" class="edge">
<title>Node22&#45;&gt;Node23</title>
<path fill="none" stroke="#191970" d="M175.285,-85.0722C239.887,-60.477 377.665,-10.374 428,-10.374 428,-10.374 428,-10.374 600,-10.374 688.609,-10.374 790.977,-10.374 855.832,-10.374"/>
<polygon fill="#191970" stroke="#191970" points="173.659,-81.9468 165.57,-88.7889 176.16,-88.4847 173.659,-81.9468"/>
</g>
<!-- Node23&#45;&gt;Node7 -->
<g id="edge35" class="edge">
<title>Node23&#45;&gt;Node7</title>
<path fill="none" stroke="#191970" d="M996.54,-2.6901C1071.54,2.27724 1188.78,2.77518 1284,-29.374 1304.83,-36.4057 1325.13,-52.3984 1336.84,-62.7742"/>
<polygon fill="#191970" stroke="#191970" points="995.972,0.778572 986.244,-3.41774 996.465,-6.20401 995.972,0.778572"/>
</g>
</g>
</svg>
