<?xml version="1.0" encoding="UTF-8" standalone="no"?>
<!DOCTYPE svg PUBLIC "-//W3C//DTD SVG 1.1//EN"
 "http://www.w3.org/Graphics/SVG/1.1/DTD/svg11.dtd">
<!-- Generated by graphviz version 2.39.20160927.1334 (20160927.1334)
 -->
<!-- Title: sha256_transform Pages: 1 -->
<svg width="1542pt" height="344pt"
 viewBox="0.00 0.00 1542.00 344.00" xmlns="http://www.w3.org/2000/svg" xmlns:xlink="http://www.w3.org/1999/xlink">
<g id="graph0" class="graph" transform="scale(1 1) rotate(0) translate(4 340)">
<title>sha256_transform</title>
<polygon fill="#ffffff" stroke="transparent" points="-4,4 -4,-340 1538,-340 1538,4 -4,4"/>
<!-- Node1 -->
<g id="node1" class="node">
<title>Node1</title>
<polygon fill="#bfbfbf" stroke="#000000" points="0,-190.5 0,-209.5 97,-209.5 97,-190.5 0,-190.5"/>
<text text-anchor="middle" x="48.5" y="-197.5" font-family="Helvetica,sans-Serif" font-size="10.00" fill="#000000">sha256_transform</text>
</g>
<!-- Node2 -->
<g id="node2" class="node">
<title>Node2</title>
<g id="a_node2"><a xlink:href="sha256_8h.html#a28a4e37e67f8b97b374c49d8b83d8167" target="_top" xlink:title="sha256_final">
<polygon fill="#ffffff" stroke="#000000" points="139,-219.5 139,-238.5 212,-238.5 212,-219.5 139,-219.5"/>
<text text-anchor="middle" x="175.5" y="-226.5" font-family="Helvetica,sans-Serif" font-size="10.00" fill="#000000">sha256_final</text>
</a>
</g>
</g>
<!-- Node1&#45;&gt;Node2 -->
<g id="edge1" class="edge">
<title>Node1&#45;&gt;Node2</title>
<path fill="none" stroke="#191970" d="M100.534,-211.882C113.348,-214.808 126.808,-217.881 138.729,-220.603"/>
<polygon fill="#191970" stroke="#191970" points="100.965,-208.39 90.4365,-209.576 99.4064,-215.214 100.965,-208.39"/>
</g>
<!-- Node26 -->
<g id="node26" class="node">
<title>Node26</title>
<g id="a_node26"><a xlink:href="sha256_8h.html#a5b705787f5fa458c39d5691d7500694c" target="_top" xlink:title="sha256_update">
<polygon fill="#ffffff" stroke="#000000" points="133,-162.5 133,-181.5 218,-181.5 218,-162.5 133,-162.5"/>
<text text-anchor="middle" x="175.5" y="-169.5" font-family="Helvetica,sans-Serif" font-size="10.00" fill="#000000">sha256_update</text>
</a>
</g>
</g>
<!-- Node1&#45;&gt;Node26 -->
<g id="edge38" class="edge">
<title>Node1&#45;&gt;Node26</title>
<path fill="none" stroke="#191970" d="M101.649,-188.282C112.028,-185.994 122.787,-183.622 132.775,-181.42"/>
<polygon fill="#191970" stroke="#191970" points="100.863,-184.871 91.851,-190.442 102.37,-191.707 100.863,-184.871"/>
</g>
<!-- Node3 -->
<g id="node3" class="node">
<title>Node3</title>
<g id="a_node3"><a xlink:href="hmac-sha256_8h.html#a7fad664b062689148a6b1ee5d4bc790d" target="_top" xlink:title="hmac_sha256_final">
<polygon fill="#ffffff" stroke="#000000" points="368,-153.5 368,-172.5 471,-172.5 471,-153.5 368,-153.5"/>
<text text-anchor="middle" x="419.5" y="-160.5" font-family="Helvetica,sans-Serif" font-size="10.00" fill="#000000">hmac_sha256_final</text>
</a>
</g>
</g>
<!-- Node2&#45;&gt;Node3 -->
<g id="edge2" class="edge">
<title>Node2&#45;&gt;Node3</title>
<path fill="none" stroke="#191970" d="M222.537,-231.958C252.757,-232.465 292.484,-230.5 326,-220 358.474,-209.827 391.248,-186.012 408.026,-172.607"/>
<polygon fill="#191970" stroke="#191970" points="222.359,-228.453 212.27,-231.686 222.173,-235.45 222.359,-228.453"/>
</g>
<!-- Node21 -->
<g id="node21" class="node">
<title>Node21</title>
<g id="a_node21"><a xlink:href="sha256_8h.html#a76777d1023592cc7219dfded1ed1537d" target="_top" xlink:title="sha256_end">
<polygon fill="#ffffff" stroke="#000000" points="254,-313.5 254,-332.5 326,-332.5 326,-313.5 254,-313.5"/>
<text text-anchor="middle" x="290" y="-320.5" font-family="Helvetica,sans-Serif" font-size="10.00" fill="#000000">sha256_end</text>
</a>
</g>
</g>
<!-- Node2&#45;&gt;Node21 -->
<g id="edge29" class="edge">
<title>Node2&#45;&gt;Node21</title>
<path fill="none" stroke="#191970" d="M195.079,-245.074C219.044,-264.748 258.844,-297.422 278.413,-313.487"/>
<polygon fill="#191970" stroke="#191970" points="197.272,-242.346 187.322,-238.706 192.83,-247.756 197.272,-242.346"/>
</g>
<!-- Node23 -->
<g id="node23" class="node">
<title>Node23</title>
<g id="a_node23"><a xlink:href="sha256_8h.html#a6baa2520d6a63710f8883f2a29bb5227" target="_top" xlink:title="sha256_raw">
<polygon fill="#ffffff" stroke="#000000" points="254.5,-191.5 254.5,-210.5 325.5,-210.5 325.5,-191.5 254.5,-191.5"/>
<text text-anchor="middle" x="290" y="-198.5" font-family="Helvetica,sans-Serif" font-size="10.00" fill="#000000">sha256_raw</text>
</a>
</g>
</g>
<!-- Node2&#45;&gt;Node23 -->
<g id="edge31" class="edge">
<title>Node2&#45;&gt;Node23</title>
<path fill="none" stroke="#191970" d="M221.768,-217.685C232.574,-215.043 243.923,-212.268 254.195,-209.756"/>
<polygon fill="#191970" stroke="#191970" points="220.926,-214.288 212.043,-220.064 222.589,-221.088 220.926,-214.288"/>
</g>
<!-- Node4 -->
<g id="node4" class="node">
<title>Node4</title>
<g id="a_node4"><a xlink:href="crypto_8h.html#a0d1e89f74b522d69161f6b213fc5abc7" target="_top" xlink:title="decrypt_aes_hmac_combined">
<polygon fill="#ffffff" stroke="#000000" points="513,-76.5 513,-95.5 663,-95.5 663,-76.5 513,-76.5"/>
<text text-anchor="middle" x="588" y="-83.5" font-family="Helvetica,sans-Serif" font-size="10.00" fill="#000000">decrypt_aes_hmac_combined</text>
</a>
</g>
</g>
<!-- Node3&#45;&gt;Node4 -->
<g id="edge3" class="edge">
<title>Node3&#45;&gt;Node4</title>
<path fill="none" stroke="#191970" d="M466.979,-149.506C470.471,-147.857 473.854,-146.026 477,-144 496.831,-131.226 492.728,-117.062 513,-105 519.464,-101.154 526.689,-98.081 534.033,-95.6274"/>
<polygon fill="#191970" stroke="#191970" points="465.427,-146.361 457.563,-153.461 468.138,-152.815 465.427,-146.361"/>
</g>
<!-- Node9 -->
<g id="node9" class="node">
<title>Node9</title>
<g id="a_node9"><a xlink:href="crypto_8h.html#a7991ec94c8faa24921947687f2d587a0" target="_top" xlink:title="encrypt_aes_hmac_combined">
<polygon fill="#ffffff" stroke="#000000" points="513,-152.5 513,-171.5 663,-171.5 663,-152.5 513,-152.5"/>
<text text-anchor="middle" x="588" y="-159.5" font-family="Helvetica,sans-Serif" font-size="10.00" fill="#000000">encrypt_aes_hmac_combined</text>
</a>
</g>
</g>
<!-- Node3&#45;&gt;Node9 -->
<g id="edge8" class="edge">
<title>Node3&#45;&gt;Node9</title>
<path fill="none" stroke="#191970" d="M481.744,-162.631C491.823,-162.571 502.354,-162.508 512.703,-162.447"/>
<polygon fill="#191970" stroke="#191970" points="481.409,-159.132 471.43,-162.692 481.451,-166.132 481.409,-159.132"/>
</g>
<!-- Node20 -->
<g id="node20" class="node">
<title>Node20</title>
<g id="a_node20"><a xlink:href="hmac-sha256_8h.html#acdadc130fbf78b5f98339c203a057796" target="_top" xlink:title="hmac_sha256">
<polygon fill="#ffffff" stroke="#000000" points="548.5,-114.5 548.5,-133.5 627.5,-133.5 627.5,-114.5 548.5,-114.5"/>
<text text-anchor="middle" x="588" y="-121.5" font-family="Helvetica,sans-Serif" font-size="10.00" fill="#000000">hmac_sha256</text>
</a>
</g>
</g>
<!-- Node3&#45;&gt;Node20 -->
<g id="edge28" class="edge">
<title>Node3&#45;&gt;Node20</title>
<path fill="none" stroke="#191970" d="M470.736,-151.141C495.669,-145.37 525.185,-138.539 548.366,-133.173"/>
<polygon fill="#191970" stroke="#191970" points="469.673,-147.795 460.72,-153.46 471.251,-154.614 469.673,-147.795"/>
</g>
<!-- Node5 -->
<g id="node5" class="node">
<title>Node5</title>
<g id="a_node5"><a xlink:href="user__main_8h.html#a53fca5688835df983e3ff1a91d387618" target="_top" xlink:title="mqttDataCb">
<polygon fill="#ffffff" stroke="#000000" points="725,-0.5 725,-19.5 795,-19.5 795,-0.5 725,-0.5"/>
<text text-anchor="middle" x="760" y="-7.5" font-family="Helvetica,sans-Serif" font-size="10.00" fill="#000000">mqttDataCb</text>
</a>
</g>
</g>
<!-- Node4&#45;&gt;Node5 -->
<g id="edge4" class="edge">
<title>Node4&#45;&gt;Node5</title>
<path fill="none" stroke="#191970" d="M616.707,-71.9413C638.986,-61.1793 670.735,-46.1665 699,-34 710.603,-29.0055 723.612,-23.8301 734.627,-19.5696"/>
<polygon fill="#191970" stroke="#191970" points="614.95,-68.9033 607.48,-76.4167 618.005,-75.2015 614.95,-68.9033"/>
</g>
<!-- Node6 -->
<g id="node6" class="node">
<title>Node6</title>
<g id="a_node6"><a xlink:href="user__main_8c.html#a245ec00253f410a8804988bf40e1037e" target="_top" xlink:title="sample_mode_timer_func">
<polygon fill="#ffffff" stroke="#000000" points="1182,-54.5 1182,-73.5 1314,-73.5 1314,-54.5 1182,-54.5"/>
<text text-anchor="middle" x="1248" y="-61.5" font-family="Helvetica,sans-Serif" font-size="10.00" fill="#000000">sample_mode_timer_func</text>
</a>
</g>
</g>
<!-- Node5&#45;&gt;Node6 -->
<g id="edge5" class="edge">
<title>Node5&#45;&gt;Node6</title>
<path fill="none" stroke="#191970" d="M805.375,-12.7307C877.678,-17.3926 1023.38,-28.059 1146,-45 1164.38,-47.5393 1184.48,-51.111 1201.94,-54.4732"/>
<polygon fill="#191970" stroke="#191970" points="805.454,-9.22873 795.252,-12.0864 805.009,-16.2146 805.454,-9.22873"/>
</g>
<!-- Node7 -->
<g id="node7" class="node">
<title>Node7</title>
<g id="a_node7"><a xlink:href="user__main_8h.html#a3671381db669a16e8f6a4bf3dfb9a441" target="_top" xlink:title="system_init_done">
<polygon fill="#ffffff" stroke="#000000" points="1350,-114.5 1350,-133.5 1444,-133.5 1444,-114.5 1350,-114.5"/>
<text text-anchor="middle" x="1397" y="-121.5" font-family="Helvetica,sans-Serif" font-size="10.00" fill="#000000">system_init_done</text>
</a>
</g>
</g>
<!-- Node6&#45;&gt;Node7 -->
<g id="edge6" class="edge">
<title>Node6&#45;&gt;Node7</title>
<path fill="none" stroke="#191970" d="M1280.94,-77.2663C1308.8,-88.483 1348.05,-104.288 1373.01,-114.339"/>
<polygon fill="#191970" stroke="#191970" points="1282.19,-73.9959 1271.61,-73.5072 1279.58,-80.4893 1282.19,-73.9959"/>
</g>
<!-- Node8 -->
<g id="node8" class="node">
<title>Node8</title>
<g id="a_node8"><a xlink:href="user__main_8h.html#a33113d6dedb440bd7dfa5576e325140c" target="_top" xlink:title="user_init">
<polygon fill="#ffffff" stroke="#000000" points="1480,-204.5 1480,-223.5 1534,-223.5 1534,-204.5 1480,-204.5"/>
<text text-anchor="middle" x="1507" y="-211.5" font-family="Helvetica,sans-Serif" font-size="10.00" fill="#000000">user_init</text>
</a>
</g>
</g>
<!-- Node7&#45;&gt;Node8 -->
<g id="edge7" class="edge">
<title>Node7&#45;&gt;Node8</title>
<path fill="none" stroke="#191970" d="M1416.79,-140.191C1439.67,-158.915 1476.59,-189.122 1495.31,-204.438"/>
<polygon fill="#191970" stroke="#191970" points="1418.73,-137.255 1408.77,-133.632 1414.3,-142.673 1418.73,-137.255"/>
</g>
<!-- Node9&#45;&gt;Node5 -->
<g id="edge26" class="edge">
<title>Node9&#45;&gt;Node5</title>
<path fill="none" stroke="#191970" d="M657.662,-147.325C659.536,-146 661.323,-144.562 663,-143 700.331,-108.226 663.946,-71.0685 699,-34 705.959,-26.6408 715.452,-21.4978 724.876,-17.9195"/>
<polygon fill="#191970" stroke="#191970" points="655.811,-144.352 648.952,-152.428 659.35,-150.392 655.811,-144.352"/>
</g>
<!-- Node10 -->
<g id="node10" class="node">
<title>Node10</title>
<g id="a_node10"><a xlink:href="en61107__request_8c.html#aa3b162cf5364986ea19e831ac2b18f76" target="_top" xlink:title="en61107_received_task">
<polygon fill="#ffffff" stroke="#000000" points="857,-152.5 857,-171.5 980,-171.5 980,-152.5 857,-152.5"/>
<text text-anchor="middle" x="918.5" y="-159.5" font-family="Helvetica,sans-Serif" font-size="10.00" fill="#000000">en61107_received_task</text>
</a>
</g>
</g>
<!-- Node9&#45;&gt;Node10 -->
<g id="edge9" class="edge">
<title>Node9&#45;&gt;Node10</title>
<path fill="none" stroke="#191970" d="M673.563,-162C730.999,-162 805.32,-162 856.961,-162"/>
<polygon fill="#191970" stroke="#191970" points="673.409,-158.5 663.409,-162 673.409,-165.5 673.409,-158.5"/>
</g>
<!-- Node12 -->
<g id="node12" class="node">
<title>Node12</title>
<g id="a_node12"><a xlink:href="en61107__request_8h.html#a7384d014eb9e833f64ecf4a9f86f87be" target="_top" xlink:title="en61107_request_send">
<polygon fill="#ffffff" stroke="#000000" points="699,-114.5 699,-133.5 821,-133.5 821,-114.5 699,-114.5"/>
<text text-anchor="middle" x="760" y="-121.5" font-family="Helvetica,sans-Serif" font-size="10.00" fill="#000000">en61107_request_send</text>
</a>
</g>
</g>
<!-- Node9&#45;&gt;Node12 -->
<g id="edge12" class="edge">
<title>Node9&#45;&gt;Node12</title>
<path fill="none" stroke="#191970" d="M641.196,-150.247C665.517,-144.874 693.955,-138.591 716.909,-133.52"/>
<polygon fill="#191970" stroke="#191970" points="640.412,-146.836 631.403,-152.411 641.922,-153.671 640.412,-146.836"/>
</g>
<!-- Node13 -->
<g id="node13" class="node">
<title>Node13</title>
<g id="a_node13"><a xlink:href="user__main_8c.html#af2c051d5ceacd30f90c08d6f584deff2" target="_top" xlink:title="sample_timer_func">
<polygon fill="#ffffff" stroke="#000000" points="868,-76.5 868,-95.5 969,-95.5 969,-76.5 868,-76.5"/>
<text text-anchor="middle" x="918.5" y="-83.5" font-family="Helvetica,sans-Serif" font-size="10.00" fill="#000000">sample_timer_func</text>
</a>
</g>
</g>
<!-- Node9&#45;&gt;Node13 -->
<g id="edge27" class="edge">
<title>Node9&#45;&gt;Node13</title>
<path fill="none" stroke="#191970" d="M651.237,-148.82C655.324,-147.109 659.285,-145.178 663,-143 683.07,-131.234 678.045,-115.106 699,-105 752.401,-79.2449 821.604,-77.7124 867.897,-80.512"/>
<polygon fill="#191970" stroke="#191970" points="649.683,-145.663 641.528,-152.426 652.121,-152.225 649.683,-145.663"/>
</g>
<!-- Node14 -->
<g id="node14" class="node">
<title>Node14</title>
<g id="a_node14"><a xlink:href="user__main_8h.html#a06f2b383d99fcad9d0f37d1ca2224898" target="_top" xlink:title="mqttConnectedCb">
<polygon fill="#ffffff" stroke="#000000" points="1032.5,-54.5 1032.5,-73.5 1129.5,-73.5 1129.5,-54.5 1032.5,-54.5"/>
<text text-anchor="middle" x="1081" y="-61.5" font-family="Helvetica,sans-Serif" font-size="10.00" fill="#000000">mqttConnectedCb</text>
</a>
</g>
</g>
<!-- Node9&#45;&gt;Node14 -->
<g id="edge25" class="edge">
<title>Node9&#45;&gt;Node14</title>
<path fill="none" stroke="#191970" d="M655.584,-147.962C658.181,-146.47 660.668,-144.821 663,-143 689.644,-122.196 670.492,-94.1655 699,-76 752.929,-41.6365 942.206,-52.2167 1032.44,-59.5426"/>
<polygon fill="#191970" stroke="#191970" points="653.841,-144.918 646.395,-152.455 656.916,-151.207 653.841,-144.918"/>
</g>
<!-- Node16 -->
<g id="node16" class="node">
<title>Node16</title>
<g id="a_node16"><a xlink:href="kmp__request_8c.html#a3f6b790a06b933b78f40ade5e9a16131" target="_top" xlink:title="kmp_received_task">
<polygon fill="#ffffff" stroke="#000000" points="708.5,-236.5 708.5,-255.5 811.5,-255.5 811.5,-236.5 708.5,-236.5"/>
<text text-anchor="middle" x="760" y="-243.5" font-family="Helvetica,sans-Serif" font-size="10.00" fill="#000000">kmp_received_task</text>
</a>
</g>
</g>
<!-- Node9&#45;&gt;Node16 -->
<g id="edge18" class="edge">
<title>Node9&#45;&gt;Node16</title>
<path fill="none" stroke="#191970" d="M613.015,-176.648C635.226,-189.381 668.757,-207.939 699,-222 710.145,-227.182 722.743,-232.263 733.585,-236.406"/>
<polygon fill="#191970" stroke="#191970" points="614.642,-173.546 604.231,-171.578 611.142,-179.609 614.642,-173.546"/>
</g>
<!-- Node18 -->
<g id="node18" class="node">
<title>Node18</title>
<g id="a_node18"><a xlink:href="kmp__request_8h.html#a3b022dcdc832786eb06126b5e6879604" target="_top" xlink:title="kmp_request_send">
<polygon fill="#ffffff" stroke="#000000" points="709,-193.5 709,-212.5 811,-212.5 811,-193.5 709,-193.5"/>
<text text-anchor="middle" x="760" y="-200.5" font-family="Helvetica,sans-Serif" font-size="10.00" fill="#000000">kmp_request_send</text>
</a>
</g>
</g>
<!-- Node9&#45;&gt;Node18 -->
<g id="edge21" class="edge">
<title>Node9&#45;&gt;Node18</title>
<path fill="none" stroke="#191970" d="M637.624,-173.829C663.788,-180.066 695.459,-187.615 720.026,-193.471"/>
<polygon fill="#191970" stroke="#191970" points="638.432,-170.423 627.893,-171.509 636.808,-177.233 638.432,-170.423"/>
</g>
<!-- Node11 -->
<g id="node11" class="node">
<title>Node11</title>
<g id="a_node11"><a xlink:href="en61107__request_8h.html#acd43242675a3f25e7c3b530eac9d8b3a" target="_top" xlink:title="en61107_request_init">
<polygon fill="#ffffff" stroke="#000000" points="1024.5,-166.5 1024.5,-185.5 1137.5,-185.5 1137.5,-166.5 1024.5,-166.5"/>
<text text-anchor="middle" x="1081" y="-173.5" font-family="Helvetica,sans-Serif" font-size="10.00" fill="#000000">en61107_request_init</text>
</a>
</g>
</g>
<!-- Node10&#45;&gt;Node11 -->
<g id="edge10" class="edge">
<title>Node10&#45;&gt;Node11</title>
<path fill="none" stroke="#191970" d="M990.669,-168.218C1001.95,-169.19 1013.47,-170.182 1024.34,-171.119"/>
<polygon fill="#191970" stroke="#191970" points="990.661,-164.704 980.398,-167.333 990.06,-171.678 990.661,-164.704"/>
</g>
<!-- Node11&#45;&gt;Node8 -->
<g id="edge11" class="edge">
<title>Node11&#45;&gt;Node8</title>
<path fill="none" stroke="#191970" d="M1147.68,-181.948C1242.96,-190.447 1413.85,-205.691 1479.9,-211.583"/>
<polygon fill="#191970" stroke="#191970" points="1147.84,-178.449 1137.57,-181.046 1147.22,-185.421 1147.84,-178.449"/>
</g>
<!-- Node12&#45;&gt;Node13 -->
<g id="edge13" class="edge">
<title>Node12&#45;&gt;Node13</title>
<path fill="none" stroke="#191970" d="M809.919,-112.032C832.13,-106.707 857.921,-100.524 878.791,-95.5201"/>
<polygon fill="#191970" stroke="#191970" points="808.905,-108.676 799.996,-114.411 810.537,-115.483 808.905,-108.676"/>
</g>
<!-- Node15 -->
<g id="node15" class="node">
<title>Node15</title>
<g id="a_node15"><a xlink:href="user__main_8c.html#ad75c70d9e67f9a03a6bc6efed2e08c9a" target="_top" xlink:title="en61107_request_send\l_timer_func">
<polygon fill="#ffffff" stroke="#000000" points="1187,-109 1187,-139 1309,-139 1309,-109 1187,-109"/>
<text text-anchor="start" x="1195" y="-127" font-family="Helvetica,sans-Serif" font-size="10.00" fill="#000000">en61107_request_send</text>
<text text-anchor="middle" x="1248" y="-116" font-family="Helvetica,sans-Serif" font-size="10.00" fill="#000000">_timer_func</text>
</a>
</g>
</g>
<!-- Node12&#45;&gt;Node15 -->
<g id="edge16" class="edge">
<title>Node12&#45;&gt;Node15</title>
<path fill="none" stroke="#191970" d="M831.512,-124C927.553,-124 1096.56,-124 1186.94,-124"/>
<polygon fill="#191970" stroke="#191970" points="831.311,-120.5 821.311,-124 831.311,-127.5 831.311,-120.5"/>
</g>
<!-- Node13&#45;&gt;Node14 -->
<g id="edge14" class="edge">
<title>Node13&#45;&gt;Node14</title>
<path fill="none" stroke="#191970" d="M979.189,-77.7836C996.768,-75.4037 1015.72,-72.8378 1032.45,-70.5726"/>
<polygon fill="#191970" stroke="#191970" points="978.465,-74.3496 969.025,-79.1597 979.404,-81.2863 978.465,-74.3496"/>
</g>
<!-- Node14&#45;&gt;Node6 -->
<g id="edge15" class="edge">
<title>Node14&#45;&gt;Node6</title>
<path fill="none" stroke="#191970" d="M1139.91,-64C1153.46,-64 1167.96,-64 1181.8,-64"/>
<polygon fill="#191970" stroke="#191970" points="1139.75,-60.5001 1129.75,-64 1139.75,-67.5001 1139.75,-60.5001"/>
</g>
<!-- Node15&#45;&gt;Node7 -->
<g id="edge17" class="edge">
<title>Node15&#45;&gt;Node7</title>
<path fill="none" stroke="#191970" d="M1319.04,-124C1329.54,-124 1340.13,-124 1349.98,-124"/>
<polygon fill="#191970" stroke="#191970" points="1319.03,-120.5 1309.03,-124 1319.03,-127.5 1319.03,-120.5"/>
</g>
<!-- Node17 -->
<g id="node17" class="node">
<title>Node17</title>
<g id="a_node17"><a xlink:href="kmp__request_8h.html#a048753ff9d6b448e2dcd8c85db0d6873" target="_top" xlink:title="kmp_request_init">
<polygon fill="#ffffff" stroke="#000000" points="1350.5,-229.5 1350.5,-248.5 1443.5,-248.5 1443.5,-229.5 1350.5,-229.5"/>
<text text-anchor="middle" x="1397" y="-236.5" font-family="Helvetica,sans-Serif" font-size="10.00" fill="#000000">kmp_request_init</text>
</a>
</g>
</g>
<!-- Node16&#45;&gt;Node17 -->
<g id="edge19" class="edge">
<title>Node16&#45;&gt;Node17</title>
<path fill="none" stroke="#191970" d="M821.922,-245.32C949.061,-243.922 1237.07,-240.757 1350.16,-239.515"/>
<polygon fill="#191970" stroke="#191970" points="821.55,-241.823 811.589,-245.433 821.627,-248.823 821.55,-241.823"/>
</g>
<!-- Node17&#45;&gt;Node8 -->
<g id="edge20" class="edge">
<title>Node17&#45;&gt;Node8</title>
<path fill="none" stroke="#191970" d="M1448.69,-227.252C1459.46,-224.806 1470.39,-222.32 1479.84,-220.174"/>
<polygon fill="#191970" stroke="#191970" points="1447.88,-223.848 1438.9,-229.477 1449.43,-230.674 1447.88,-223.848"/>
</g>
<!-- Node18&#45;&gt;Node13 -->
<g id="edge24" class="edge">
<title>Node18&#45;&gt;Node13</title>
<path fill="none" stroke="#191970" d="M781.107,-187.42C814.342,-162.887 877.908,-115.963 905.35,-95.7069"/>
<polygon fill="#191970" stroke="#191970" points="778.938,-184.671 772.971,-193.425 783.095,-190.302 778.938,-184.671"/>
</g>
<!-- Node19 -->
<g id="node19" class="node">
<title>Node19</title>
<g id="a_node19"><a xlink:href="kmp__request_8c.html#a0977a4640a97d389ac3b0fef0ba7a9b6" target="_top" xlink:title="kmp_receive_timeout\l_timer_func">
<polygon fill="#ffffff" stroke="#000000" points="862.5,-191 862.5,-221 974.5,-221 974.5,-191 862.5,-191"/>
<text text-anchor="start" x="870.5" y="-209" font-family="Helvetica,sans-Serif" font-size="10.00" fill="#000000">kmp_receive_timeout</text>
<text text-anchor="middle" x="918.5" y="-198" font-family="Helvetica,sans-Serif" font-size="10.00" fill="#000000">_timer_func</text>
</a>
</g>
</g>
<!-- Node18&#45;&gt;Node19 -->
<g id="edge22" class="edge">
<title>Node18&#45;&gt;Node19</title>
<path fill="none" stroke="#191970" d="M821.205,-197.566C834.747,-197.582 849.031,-197.887 862.359,-198.449"/>
<polygon fill="#191970" stroke="#191970" points="821.007,-194.067 811.023,-197.612 821.038,-201.067 821.007,-194.067"/>
</g>
<!-- Node19&#45;&gt;Node18 -->
<g id="edge23" class="edge">
<title>Node19&#45;&gt;Node18</title>
<path fill="none" stroke="#191970" d="M852.009,-211.413C838.304,-211.323 824.076,-210.948 811.023,-210.32"/>
<polygon fill="#191970" stroke="#191970" points="852.355,-214.913 862.359,-211.426 852.363,-207.913 852.355,-214.913"/>
</g>
<!-- Node22 -->
<g id="node22" class="node">
<title>Node22</title>
<g id="a_node22"><a xlink:href="sha256_8h.html#ababc3bbc43106f089ba5e8d588c70fd1" target="_top" xlink:title="sha256_data">
<polygon fill="#ffffff" stroke="#000000" points="382.5,-316.5 382.5,-335.5 456.5,-335.5 456.5,-316.5 382.5,-316.5"/>
<text text-anchor="middle" x="419.5" y="-323.5" font-family="Helvetica,sans-Serif" font-size="10.00" fill="#000000">sha256_data</text>
</a>
</g>
</g>
<!-- Node21&#45;&gt;Node22 -->
<g id="edge30" class="edge">
<title>Node21&#45;&gt;Node22</title>
<path fill="none" stroke="#191970" d="M336.248,-324.071C351.35,-324.421 367.917,-324.805 382.269,-325.137"/>
<polygon fill="#191970" stroke="#191970" points="336.151,-320.568 326.073,-323.836 335.989,-327.566 336.151,-320.568"/>
</g>
<!-- Node24 -->
<g id="node24" class="node">
<title>Node24</title>
<g id="a_node24"><a xlink:href="crypto_8h.html#adcbe39568432d42d61fed9ce126d330b" target="_top" xlink:title="init_aes_hmac_combined">
<polygon fill="#ffffff" stroke="#000000" points="1016,-278.5 1016,-297.5 1146,-297.5 1146,-278.5 1016,-278.5"/>
<text text-anchor="middle" x="1081" y="-285.5" font-family="Helvetica,sans-Serif" font-size="10.00" fill="#000000">init_aes_hmac_combined</text>
</a>
</g>
</g>
<!-- Node23&#45;&gt;Node24 -->
<g id="edge32" class="edge">
<title>Node23&#45;&gt;Node24</title>
<path fill="none" stroke="#191970" d="M318.207,-215.091C370.193,-239.718 485.216,-288 588,-288 588,-288 588,-288 760,-288 848.609,-288 950.977,-288 1015.83,-288"/>
<polygon fill="#191970" stroke="#191970" points="319.49,-211.824 308.961,-210.643 316.456,-218.132 319.49,-211.824"/>
</g>
<!-- Node25 -->
<g id="node25" class="node">
<title>Node25</title>
<g id="a_node25"><a xlink:href="hmac-sha256_8h.html#a553a08d76959d7d64d25927fa418af1f" target="_top" xlink:title="hmac_sha256_init">
<polygon fill="#ffffff" stroke="#000000" points="370.5,-115.5 370.5,-134.5 468.5,-134.5 468.5,-115.5 370.5,-115.5"/>
<text text-anchor="middle" x="419.5" y="-122.5" font-family="Helvetica,sans-Serif" font-size="10.00" fill="#000000">hmac_sha256_init</text>
</a>
</g>
</g>
<!-- Node23&#45;&gt;Node25 -->
<g id="edge34" class="edge">
<title>Node23&#45;&gt;Node25</title>
<path fill="none" stroke="#191970" d="M307.263,-184.448C321.127,-171.904 341.587,-155.003 362,-144 368.848,-140.308 376.542,-137.163 384.02,-134.558"/>
<polygon fill="#191970" stroke="#191970" points="304.873,-181.891 299.913,-191.253 309.629,-187.028 304.873,-181.891"/>
</g>
<!-- Node24&#45;&gt;Node8 -->
<g id="edge33" class="edge">
<title>Node24&#45;&gt;Node8</title>
<path fill="none" stroke="#191970" d="M1156.41,-293.009C1231.56,-295.438 1349.12,-292.211 1444,-258 1464.83,-250.488 1485.14,-234.218 1496.84,-223.706"/>
<polygon fill="#191970" stroke="#191970" points="1156.22,-289.5 1146.09,-292.631 1155.96,-296.495 1156.22,-289.5"/>
</g>
<!-- Node25&#45;&gt;Node4 -->
<g id="edge35" class="edge">
<title>Node25&#45;&gt;Node4</title>
<path fill="none" stroke="#191970" d="M470.548,-113.185C495.003,-107.524 523.902,-100.836 546.914,-95.5095"/>
<polygon fill="#191970" stroke="#191970" points="469.673,-109.795 460.72,-115.46 471.251,-116.614 469.673,-109.795"/>
</g>
<!-- Node25&#45;&gt;Node9 -->
<g id="edge36" class="edge">
<title>Node25&#45;&gt;Node9</title>
<path fill="none" stroke="#191970" d="M472.874,-136.72C495.949,-141.787 522.61,-147.641 544.462,-152.44"/>
<polygon fill="#191970" stroke="#191970" points="473.411,-133.255 462.893,-134.528 471.91,-140.092 473.411,-133.255"/>
</g>
<!-- Node25&#45;&gt;Node20 -->
<g id="edge37" class="edge">
<title>Node25&#45;&gt;Node20</title>
<path fill="none" stroke="#191970" d="M478.726,-124.649C501.798,-124.512 527.623,-124.358 548.372,-124.235"/>
<polygon fill="#191970" stroke="#191970" points="478.669,-121.149 468.69,-124.708 478.711,-128.149 478.669,-121.149"/>
</g>
<!-- Node26&#45;&gt;Node3 -->
<g id="edge44" class="edge">
<title>Node26&#45;&gt;Node3</title>
<path fill="none" stroke="#191970" d="M228.143,-170.058C269.457,-168.534 326.661,-166.424 367.745,-164.909"/>
<polygon fill="#191970" stroke="#191970" points="227.866,-166.566 218.002,-170.432 228.124,-173.561 227.866,-166.566"/>
</g>
<!-- Node26&#45;&gt;Node22 -->
<g id="edge46" class="edge">
<title>Node26&#45;&gt;Node22</title>
<path fill="none" stroke="#191970" d="M195.578,-188.161C228.781,-214.376 297.846,-266.78 362,-302 371.862,-307.414 383.2,-312.39 393.189,-316.391"/>
<polygon fill="#191970" stroke="#191970" points="197.571,-185.274 187.565,-181.791 193.215,-190.754 197.571,-185.274"/>
</g>
<!-- Node26&#45;&gt;Node23 -->
<g id="edge45" class="edge">
<title>Node26&#45;&gt;Node23</title>
<path fill="none" stroke="#191970" d="M223.096,-184.055C233.493,-186.688 244.327,-189.432 254.173,-191.926"/>
<polygon fill="#191970" stroke="#191970" points="223.862,-180.638 213.309,-181.576 222.143,-187.424 223.862,-180.638"/>
</g>
<!-- Node26&#45;&gt;Node25 -->
<g id="edge39" class="edge">
<title>Node26&#45;&gt;Node25</title>
<path fill="none" stroke="#191970" d="M228.082,-161.871C270.282,-153.743 329.089,-142.415 370.352,-134.467"/>
<polygon fill="#191970" stroke="#191970" points="227.159,-158.485 218.002,-163.813 228.483,-165.359 227.159,-158.485"/>
</g>
<!-- Node27 -->
<g id="node27" class="node">
<title>Node27</title>
<g id="a_node27"><a xlink:href="hmac-sha256_8h.html#a604cda5243425d008a47d89401e7c987" target="_top" xlink:title="hmac_sha256_update">
<polygon fill="#ffffff" stroke="#000000" points="362,-77.5 362,-96.5 477,-96.5 477,-77.5 362,-77.5"/>
<text text-anchor="middle" x="419.5" y="-84.5" font-family="Helvetica,sans-Serif" font-size="10.00" fill="#000000">hmac_sha256_update</text>
</a>
</g>
</g>
<!-- Node26&#45;&gt;Node27 -->
<g id="edge40" class="edge">
<title>Node26&#45;&gt;Node27</title>
<path fill="none" stroke="#191970" d="M208.394,-158.496C222.38,-152.888 238.913,-146.434 254,-141 300.349,-124.304 354.771,-106.977 388.195,-96.5916"/>
<polygon fill="#191970" stroke="#191970" points="206.679,-155.413 198.717,-162.403 209.3,-161.904 206.679,-155.413"/>
</g>
<!-- Node27&#45;&gt;Node4 -->
<g id="edge41" class="edge">
<title>Node27&#45;&gt;Node4</title>
<path fill="none" stroke="#191970" d="M487.184,-86.5983C495.632,-86.5482 504.312,-86.4967 512.866,-86.4459"/>
<polygon fill="#191970" stroke="#191970" points="486.996,-83.0993 477.017,-86.6587 487.037,-90.0991 486.996,-83.0993"/>
</g>
<!-- Node27&#45;&gt;Node9 -->
<g id="edge42" class="edge">
<title>Node27&#45;&gt;Node9</title>
<path fill="none" stroke="#191970" d="M466.448,-100.368C470.121,-102.054 473.686,-103.926 477,-106 496.45,-118.17 493.13,-131.528 513,-143 519.747,-146.895 527.286,-150.001 534.913,-152.475"/>
<polygon fill="#191970" stroke="#191970" points="467.758,-97.1228 457.179,-96.555 465.095,-103.596 467.758,-97.1228"/>
</g>
<!-- Node27&#45;&gt;Node20 -->
<g id="edge43" class="edge">
<title>Node27&#45;&gt;Node20</title>
<path fill="none" stroke="#191970" d="M472.74,-98.6907C497.185,-104.058 525.678,-110.315 548.218,-115.264"/>
<polygon fill="#191970" stroke="#191970" points="473.411,-95.2547 462.893,-96.5284 471.91,-102.092 473.411,-95.2547"/>
</g>
</g>
</svg>
