<?xml version="1.0" encoding="UTF-8" standalone="no"?>
<!DOCTYPE svg PUBLIC "-//W3C//DTD SVG 1.1//EN"
 "http://www.w3.org/Graphics/SVG/1.1/DTD/svg11.dtd">
<!-- Generated by graphviz version 2.41.20170323.1842 (20170323.1842)
 -->
<!-- Title: sha256_raw Pages: 1 -->
<svg width="333pt" height="104pt"
 viewBox="0.00 0.00 333.00 104.00" xmlns="http://www.w3.org/2000/svg" xmlns:xlink="http://www.w3.org/1999/xlink">
<g id="graph0" class="graph" transform="scale(1 1) rotate(0) translate(4 100)">
<title>sha256_raw</title>
<polygon fill="#ffffff" stroke="transparent" points="-4,4 -4,-100 329,-100 329,4 -4,4"/>
<!-- Node64 -->
<g id="node1" class="node">
<title>Node64</title>
<polygon fill="#bfbfbf" stroke="#000000" points="0,-38.5 0,-57.5 71,-57.5 71,-38.5 0,-38.5"/>
<text text-anchor="middle" x="35.5" y="-45.5" font-family="Helvetica,sans-Serif" font-size="10.00" fill="#000000">sha256_raw</text>
</g>
<!-- Node65 -->
<g id="node2" class="node">
<title>Node65</title>
<g id="a_node2"><a xlink:href="sha256_8c.html#a28a4e37e67f8b97b374c49d8b83d8167" target="_top" xlink:title="sha256_final">
<polygon fill="#ffffff" stroke="#000000" points="113,-76.5 113,-95.5 186,-95.5 186,-76.5 113,-76.5"/>
<text text-anchor="middle" x="149.5" y="-83.5" font-family="Helvetica,sans-Serif" font-size="10.00" fill="#000000">sha256_final</text>
</a>
</g>
</g>
<!-- Node64&#45;&gt;Node65 -->
<g id="edge1" class="edge">
<title>Node64&#45;&gt;Node65</title>
<path fill="none" stroke="#191970" d="M64.267,-57.589C78.4433,-62.3144 95.7366,-68.0789 111.0322,-73.1774"/>
<polygon fill="#191970" stroke="#191970" points="110.1485,-76.5721 120.7422,-76.4141 112.3622,-69.9313 110.1485,-76.5721"/>
</g>
<!-- Node67 -->
<g id="node4" class="node">
<title>Node67</title>
<g id="a_node4"><a xlink:href="sha256_8c.html#ad1c794b2d7e8eba243628e45cb69ef94" target="_top" xlink:title="sha256_init">
<polygon fill="#ffffff" stroke="#000000" points="115.5,-38.5 115.5,-57.5 183.5,-57.5 183.5,-38.5 115.5,-38.5"/>
<text text-anchor="middle" x="149.5" y="-45.5" font-family="Helvetica,sans-Serif" font-size="10.00" fill="#000000">sha256_init</text>
</a>
</g>
</g>
<!-- Node64&#45;&gt;Node67 -->
<g id="edge3" class="edge">
<title>Node64&#45;&gt;Node67</title>
<path fill="none" stroke="#191970" d="M71.2575,-48C82.0562,-48 94.0418,-48 105.321,-48"/>
<polygon fill="#191970" stroke="#191970" points="105.4266,-51.5001 115.4265,-48 105.4265,-44.5001 105.4266,-51.5001"/>
</g>
<!-- Node68 -->
<g id="node5" class="node">
<title>Node68</title>
<g id="a_node5"><a xlink:href="sha256_8c.html#a00647246fd4532c27d1aafd709d5973d" target="_top" xlink:title="sha256_update">
<polygon fill="#ffffff" stroke="#000000" points="107,-.5 107,-19.5 192,-19.5 192,-.5 107,-.5"/>
<text text-anchor="middle" x="149.5" y="-7.5" font-family="Helvetica,sans-Serif" font-size="10.00" fill="#000000">sha256_update</text>
</a>
</g>
</g>
<!-- Node64&#45;&gt;Node68 -->
<g id="edge4" class="edge">
<title>Node64&#45;&gt;Node68</title>
<path fill="none" stroke="#191970" d="M64.267,-38.411C78.4433,-33.6856 95.7366,-27.9211 111.0322,-22.8226"/>
<polygon fill="#191970" stroke="#191970" points="112.3622,-26.0687 120.7422,-19.5859 110.1485,-19.4279 112.3622,-26.0687"/>
</g>
<!-- Node66 -->
<g id="node3" class="node">
<title>Node66</title>
<g id="a_node3"><a xlink:href="sha256_8c.html#a97b828e7b6479297e92fb5ffc5225ee3" target="_top" xlink:title="sha256_transform">
<polygon fill="#ffffff" stroke="#000000" points="228,-38.5 228,-57.5 325,-57.5 325,-38.5 228,-38.5"/>
<text text-anchor="middle" x="276.5" y="-45.5" font-family="Helvetica,sans-Serif" font-size="10.00" fill="#000000">sha256_transform</text>
</a>
</g>
</g>
<!-- Node65&#45;&gt;Node66 -->
<g id="edge2" class="edge">
<title>Node65&#45;&gt;Node66</title>
<path fill="none" stroke="#191970" d="M181.5475,-76.411C197.6411,-71.5956 217.3409,-65.7012 234.6167,-60.532"/>
<polygon fill="#191970" stroke="#191970" points="235.8858,-63.8057 244.4628,-57.5859 233.8791,-57.0994 235.8858,-63.8057"/>
</g>
<!-- Node68&#45;&gt;Node66 -->
<g id="edge5" class="edge">
<title>Node68&#45;&gt;Node66</title>
<path fill="none" stroke="#191970" d="M181.5475,-19.589C197.6411,-24.4044 217.3409,-30.2988 234.6167,-35.468"/>
<polygon fill="#191970" stroke="#191970" points="233.8791,-38.9006 244.4628,-38.4141 235.8858,-32.1943 233.8791,-38.9006"/>
</g>
</g>
</svg>
