<?xml version="1.0" encoding="UTF-8" standalone="no"?>
<!DOCTYPE svg PUBLIC "-//W3C//DTD SVG 1.1//EN"
 "http://www.w3.org/Graphics/SVG/1.1/DTD/svg11.dtd">
<!-- Generated by graphviz version 2.41.20170323.1842 (20170323.1842)
 -->
<!-- Title: user/crypto/sha256.h Pages: 1 -->
<svg width="1879pt" height="252pt"
 viewBox="0.00 0.00 1878.50 252.00" xmlns="http://www.w3.org/2000/svg" xmlns:xlink="http://www.w3.org/1999/xlink">
<g id="graph0" class="graph" transform="scale(1 1) rotate(0) translate(4 248)">
<title>user/crypto/sha256.h</title>
<polygon fill="#ffffff" stroke="transparent" points="-4,4 -4,-248 1874.5,-248 1874.5,4 -4,4"/>
<!-- Node0 -->
<g id="node1" class="node">
<title>Node0</title>
<polygon fill="#bfbfbf" stroke="#000000" points="965,-224.5 965,-243.5 1075,-243.5 1075,-224.5 965,-224.5"/>
<text text-anchor="middle" x="1020" y="-231.5" font-family="Helvetica,sans-Serif" font-size="10.00" fill="#000000">user/crypto/sha256.h</text>
</g>
<!-- Node1 -->
<g id="node2" class="node">
<title>Node1</title>
<g id="a_node2"><a xlink:href="esp8266_8h.html" target="_top" xlink:title="esp8266.h">
<polygon fill="#ffffff" stroke="#000000" points="953.5,-112.5 953.5,-131.5 1016.5,-131.5 1016.5,-112.5 953.5,-112.5"/>
<text text-anchor="middle" x="985" y="-119.5" font-family="Helvetica,sans-Serif" font-size="10.00" fill="#000000">esp8266.h</text>
</a>
</g>
</g>
<!-- Node0&#45;&gt;Node1 -->
<g id="edge1" class="edge">
<title>Node0&#45;&gt;Node1</title>
<path fill="none" stroke="#191970" d="M1017.3336,-224.1097C1013.8007,-211.158 1007.2801,-187.7739 1001,-168 998.1927,-159.1606 994.8537,-149.4511 991.954,-141.2399"/>
<polygon fill="#191970" stroke="#191970" points="995.2488,-140.0588 988.5892,-131.8187 988.6566,-142.4133 995.2488,-140.0588"/>
</g>
<!-- Node25 -->
<g id="node26" class="node">
<title>Node25</title>
<polygon fill="#ffffff" stroke="#bfbfbf" points="1821.5,-.5 1821.5,-19.5 1870.5,-19.5 1870.5,-.5 1821.5,-.5"/>
<text text-anchor="middle" x="1846" y="-7.5" font-family="Helvetica,sans-Serif" font-size="10.00" fill="#000000">stdint.h</text>
</g>
<!-- Node0&#45;&gt;Node25 -->
<g id="edge29" class="edge">
<title>Node0&#45;&gt;Node25</title>
<path fill="none" stroke="#191970" d="M1075.1664,-230.5445C1238.6123,-219.2123 1715.8382,-177.8925 1827,-76 1839.748,-64.315 1844.1499,-44.6868 1845.5708,-29.8658"/>
<polygon fill="#191970" stroke="#191970" points="1849.0766,-29.8673 1846.1652,-19.6804 1842.0885,-29.4595 1849.0766,-29.8673"/>
</g>
<!-- Node27 -->
<g id="node28" class="node">
<title>Node27</title>
<g id="a_node28"><a xlink:href="crypto_8h.html" target="_top" xlink:title="crypto/crypto.h">
<polygon fill="#ffffff" stroke="#000000" points="910,-168.5 910,-187.5 992,-187.5 992,-168.5 910,-168.5"/>
<text text-anchor="middle" x="951" y="-175.5" font-family="Helvetica,sans-Serif" font-size="10.00" fill="#000000">crypto/crypto.h</text>
</a>
</g>
</g>
<!-- Node0&#45;&gt;Node27 -->
<g id="edge30" class="edge">
<title>Node0&#45;&gt;Node27</title>
<path fill="none" stroke="#191970" d="M1007.9811,-224.2455C997.7902,-215.9746 982.9638,-203.9416 970.9893,-194.2232"/>
<polygon fill="#191970" stroke="#191970" points="972.8514,-191.2268 962.8812,-187.6427 968.4402,-196.662 972.8514,-191.2268"/>
</g>
<!-- Node2 -->
<g id="node3" class="node">
<title>Node2</title>
<polygon fill="#ffffff" stroke="#bfbfbf" points="64.5,-56.5 64.5,-75.5 113.5,-75.5 113.5,-56.5 64.5,-56.5"/>
<text text-anchor="middle" x="89" y="-63.5" font-family="Helvetica,sans-Serif" font-size="10.00" fill="#000000">ctype.h</text>
</g>
<!-- Node1&#45;&gt;Node2 -->
<g id="edge2" class="edge">
<title>Node1&#45;&gt;Node2</title>
<path fill="none" stroke="#191970" d="M953.4362,-121.3355C820.646,-118.3866 306.1791,-105.383 123.6998,-75.8776"/>
<polygon fill="#191970" stroke="#191970" points="124.155,-72.4049 113.711,-74.1864 122.9864,-79.3067 124.155,-72.4049"/>
</g>
<!-- Node3 -->
<g id="node4" class="node">
<title>Node3</title>
<polygon fill="#ffffff" stroke="#bfbfbf" points="0,-56.5 0,-75.5 46,-75.5 46,-56.5 0,-56.5"/>
<text text-anchor="middle" x="23" y="-63.5" font-family="Helvetica,sans-Serif" font-size="10.00" fill="#000000">stdio.h</text>
</g>
<!-- Node1&#45;&gt;Node3 -->
<g id="edge3" class="edge">
<title>Node1&#45;&gt;Node3</title>
<path fill="none" stroke="#191970" d="M953.3947,-121.5107C814.0177,-119.1912 252.8926,-108.1164 56.1752,-75.723"/>
<polygon fill="#191970" stroke="#191970" points="56.6978,-72.2615 46.2489,-74.0139 55.5099,-79.16 56.6978,-72.2615"/>
</g>
<!-- Node4 -->
<g id="node5" class="node">
<title>Node4</title>
<polygon fill="#ffffff" stroke="#bfbfbf" points="1496,-56.5 1496,-75.5 1544,-75.5 1544,-56.5 1496,-56.5"/>
<text text-anchor="middle" x="1520" y="-63.5" font-family="Helvetica,sans-Serif" font-size="10.00" fill="#000000">stdlib.h</text>
</g>
<!-- Node1&#45;&gt;Node4 -->
<g id="edge4" class="edge">
<title>Node1&#45;&gt;Node4</title>
<path fill="none" stroke="#191970" d="M1016.6594,-121.2256C1096.2342,-118.8194 1310.7682,-109.4836 1486,-76 1486.102,-75.9805 1486.2041,-75.9608 1486.3063,-75.941"/>
<polygon fill="#191970" stroke="#191970" points="1487.0484,-79.3619 1495.9959,-73.6881 1485.4631,-72.5438 1487.0484,-79.3619"/>
</g>
<!-- Node5 -->
<g id="node6" class="node">
<title>Node5</title>
<polygon fill="#ffffff" stroke="#bfbfbf" points="1562.5,-56.5 1562.5,-75.5 1611.5,-75.5 1611.5,-56.5 1562.5,-56.5"/>
<text text-anchor="middle" x="1587" y="-63.5" font-family="Helvetica,sans-Serif" font-size="10.00" fill="#000000">string.h</text>
</g>
<!-- Node1&#45;&gt;Node5 -->
<g id="edge5" class="edge">
<title>Node1&#45;&gt;Node5</title>
<path fill="none" stroke="#191970" d="M1016.7157,-120.2912C1117.4684,-114.7318 1430.2602,-96.4318 1552.1032,-75.7305"/>
<polygon fill="#191970" stroke="#191970" points="1553.0323,-79.1199 1562.2602,-73.9145 1551.8003,-72.2292 1553.0323,-79.1199"/>
</g>
<!-- Node6 -->
<g id="node7" class="node">
<title>Node6</title>
<polygon fill="#ffffff" stroke="#bfbfbf" points="1578.5,-.5 1578.5,-19.5 1637.5,-19.5 1637.5,-.5 1578.5,-.5"/>
<text text-anchor="middle" x="1608" y="-7.5" font-family="Helvetica,sans-Serif" font-size="10.00" fill="#000000">c_types.h</text>
</g>
<!-- Node1&#45;&gt;Node6 -->
<g id="edge6" class="edge">
<title>Node1&#45;&gt;Node6</title>
<path fill="none" stroke="#191970" d="M1016.6216,-120.894C1142.1128,-116.3543 1599.227,-98.3322 1620,-76 1631.6006,-63.5287 1626.0301,-43.7663 1619.1218,-29.1138"/>
<polygon fill="#191970" stroke="#191970" points="1622.0579,-27.1756 1614.32,-19.9385 1615.8558,-30.4214 1622.0579,-27.1756"/>
</g>
<!-- Node7 -->
<g id="node8" class="node">
<title>Node7</title>
<polygon fill="#ffffff" stroke="#bfbfbf" points="131.5,-56.5 131.5,-75.5 184.5,-75.5 184.5,-56.5 131.5,-56.5"/>
<text text-anchor="middle" x="158" y="-63.5" font-family="Helvetica,sans-Serif" font-size="10.00" fill="#000000">lwip/ip.h</text>
</g>
<!-- Node1&#45;&gt;Node7 -->
<g id="edge7" class="edge">
<title>Node1&#45;&gt;Node7</title>
<path fill="none" stroke="#191970" d="M953.0953,-121.0516C827.0726,-117.1681 363.0493,-101.5379 194.546,-75.6656"/>
<polygon fill="#191970" stroke="#191970" points="195.0232,-72.1975 184.5946,-74.0672 193.913,-79.1089 195.0232,-72.1975"/>
</g>
<!-- Node8 -->
<g id="node9" class="node">
<title>Node8</title>
<polygon fill="#ffffff" stroke="#bfbfbf" points="203,-56.5 203,-75.5 265,-75.5 265,-56.5 203,-56.5"/>
<text text-anchor="middle" x="234" y="-63.5" font-family="Helvetica,sans-Serif" font-size="10.00" fill="#000000">lwip/udp.h</text>
</g>
<!-- Node1&#45;&gt;Node8 -->
<g id="edge8" class="edge">
<title>Node1&#45;&gt;Node8</title>
<path fill="none" stroke="#191970" d="M953.1231,-120.7037C835.711,-115.8128 426.7734,-97.7209 275.3562,-75.9103"/>
<polygon fill="#191970" stroke="#191970" points="275.7431,-72.4291 265.3334,-74.4011 274.7008,-79.3511 275.7431,-72.4291"/>
</g>
<!-- Node9 -->
<g id="node10" class="node">
<title>Node9</title>
<polygon fill="#ffffff" stroke="#bfbfbf" points="283,-56.5 283,-75.5 365,-75.5 365,-56.5 283,-56.5"/>
<text text-anchor="middle" x="324" y="-63.5" font-family="Helvetica,sans-Serif" font-size="10.00" fill="#000000">lwip/tcp_impl.h</text>
</g>
<!-- Node1&#45;&gt;Node9 -->
<g id="edge9" class="edge">
<title>Node1&#45;&gt;Node9</title>
<path fill="none" stroke="#191970" d="M953.3767,-120.9834C864.0904,-117.8246 602.3498,-106.5752 375.2384,-76.0166"/>
<polygon fill="#191970" stroke="#191970" points="375.514,-72.5219 365.1332,-74.6409 374.5697,-79.458 375.514,-72.5219"/>
</g>
<!-- Node10 -->
<g id="node11" class="node">
<title>Node10</title>
<polygon fill="#ffffff" stroke="#bfbfbf" points="383.5,-56.5 383.5,-75.5 458.5,-75.5 458.5,-56.5 383.5,-56.5"/>
<text text-anchor="middle" x="421" y="-63.5" font-family="Helvetica,sans-Serif" font-size="10.00" fill="#000000">netif/etharp.h</text>
</g>
<!-- Node1&#45;&gt;Node10 -->
<g id="edge10" class="edge">
<title>Node1&#45;&gt;Node10</title>
<path fill="none" stroke="#191970" d="M953.3694,-120.5197C873.7366,-116.5094 658.425,-103.9112 468.7906,-75.9425"/>
<polygon fill="#191970" stroke="#191970" points="469.0442,-72.4417 458.637,-74.4264 468.0104,-79.3649 469.0442,-72.4417"/>
</g>
<!-- Node11 -->
<g id="node12" class="node">
<title>Node11</title>
<polygon fill="#ffffff" stroke="#bfbfbf" points="477,-56.5 477,-75.5 541,-75.5 541,-56.5 477,-56.5"/>
<text text-anchor="middle" x="509" y="-63.5" font-family="Helvetica,sans-Serif" font-size="10.00" fill="#000000">lwip/netif.h</text>
</g>
<!-- Node1&#45;&gt;Node11 -->
<g id="edge11" class="edge">
<title>Node1&#45;&gt;Node11</title>
<path fill="none" stroke="#191970" d="M953.4114,-120.1149C882.9683,-115.601 707.5746,-102.6449 551.4011,-76.0428"/>
<polygon fill="#191970" stroke="#191970" points="551.5932,-72.5242 541.1434,-74.2708 550.4016,-79.4221 551.5932,-72.5242"/>
</g>
<!-- Node12 -->
<g id="node13" class="node">
<title>Node12</title>
<polygon fill="#ffffff" stroke="#bfbfbf" points="559.5,-56.5 559.5,-75.5 646.5,-75.5 646.5,-56.5 559.5,-56.5"/>
<text text-anchor="middle" x="603" y="-63.5" font-family="Helvetica,sans-Serif" font-size="10.00" fill="#000000">lwip/lwip_napt.h</text>
</g>
<!-- Node1&#45;&gt;Node12 -->
<g id="edge12" class="edge">
<title>Node1&#45;&gt;Node12</title>
<path fill="none" stroke="#191970" d="M953.0606,-118.1032C895.7184,-110.9873 771.3073,-95.0043 656.6611,-76.2157"/>
<polygon fill="#191970" stroke="#191970" points="657.1,-72.7408 646.6635,-74.5659 655.9602,-79.6474 657.1,-72.7408"/>
</g>
<!-- Node13 -->
<g id="node14" class="node">
<title>Node13</title>
<polygon fill="#ffffff" stroke="#bfbfbf" points="664.5,-56.5 664.5,-75.5 725.5,-75.5 725.5,-56.5 664.5,-56.5"/>
<text text-anchor="middle" x="695" y="-63.5" font-family="Helvetica,sans-Serif" font-size="10.00" fill="#000000">lwip/dns.h</text>
</g>
<!-- Node1&#45;&gt;Node13 -->
<g id="edge13" class="edge">
<title>Node1&#45;&gt;Node13</title>
<path fill="none" stroke="#191970" d="M953.3009,-116.8262C907.5267,-109.212 820.0566,-94.1286 735.5496,-76.0088"/>
<polygon fill="#191970" stroke="#191970" points="736.0422,-72.5345 725.5285,-73.8425 734.5631,-79.3765 736.0422,-72.5345"/>
</g>
<!-- Node14 -->
<g id="node15" class="node">
<title>Node14</title>
<polygon fill="#ffffff" stroke="#bfbfbf" points="744,-56.5 744,-75.5 858,-75.5 858,-56.5 744,-56.5"/>
<text text-anchor="middle" x="801" y="-63.5" font-family="Helvetica,sans-Serif" font-size="10.00" fill="#000000">lwip/app/dhcpserver.h</text>
</g>
<!-- Node1&#45;&gt;Node14 -->
<g id="edge14" class="edge">
<title>Node1&#45;&gt;Node14</title>
<path fill="none" stroke="#191970" d="M953.3693,-112.3733C922.6404,-103.021 875.824,-88.7725 842.1978,-78.5385"/>
<polygon fill="#191970" stroke="#191970" points="842.8038,-75.0644 832.218,-75.5011 840.7656,-81.7612 842.8038,-75.0644"/>
</g>
<!-- Node15 -->
<g id="node16" class="node">
<title>Node15</title>
<polygon fill="#ffffff" stroke="#bfbfbf" points="876.5,-56.5 876.5,-75.5 935.5,-75.5 935.5,-56.5 876.5,-56.5"/>
<text text-anchor="middle" x="906" y="-63.5" font-family="Helvetica,sans-Serif" font-size="10.00" fill="#000000">lwip/opt.h</text>
</g>
<!-- Node1&#45;&gt;Node15 -->
<g id="edge15" class="edge">
<title>Node1&#45;&gt;Node15</title>
<path fill="none" stroke="#191970" d="M971.2393,-112.2455C959.3448,-103.814 941.935,-91.4729 928.0915,-81.6598"/>
<polygon fill="#191970" stroke="#191970" points="929.7854,-78.5704 919.6031,-75.6427 925.7372,-84.2811 929.7854,-78.5704"/>
</g>
<!-- Node16 -->
<g id="node17" class="node">
<title>Node16</title>
<polygon fill="#ffffff" stroke="#bfbfbf" points="953.5,-56.5 953.5,-75.5 1016.5,-75.5 1016.5,-56.5 953.5,-56.5"/>
<text text-anchor="middle" x="985" y="-63.5" font-family="Helvetica,sans-Serif" font-size="10.00" fill="#000000">espconn.h</text>
</g>
<!-- Node1&#45;&gt;Node16 -->
<g id="edge16" class="edge">
<title>Node1&#45;&gt;Node16</title>
<path fill="none" stroke="#191970" d="M985,-112.2455C985,-104.9382 985,-94.6944 985,-85.7046"/>
<polygon fill="#191970" stroke="#191970" points="988.5001,-85.6426 985,-75.6427 981.5001,-85.6427 988.5001,-85.6426"/>
</g>
<!-- Node17 -->
<g id="node18" class="node">
<title>Node17</title>
<polygon fill="#ffffff" stroke="#bfbfbf" points="1655.5,-.5 1655.5,-19.5 1714.5,-19.5 1714.5,-.5 1655.5,-.5"/>
<text text-anchor="middle" x="1685" y="-7.5" font-family="Helvetica,sans-Serif" font-size="10.00" fill="#000000">ets_sys.h</text>
</g>
<!-- Node1&#45;&gt;Node17 -->
<g id="edge17" class="edge">
<title>Node1&#45;&gt;Node17</title>
<path fill="none" stroke="#191970" d="M1016.8738,-121.3409C1140.4099,-118.5721 1583.4827,-106.5774 1638,-76 1656.5182,-65.6136 1669.5382,-44.5314 1677.1061,-28.9765"/>
<polygon fill="#191970" stroke="#191970" points="1680.3604,-30.2744 1681.295,-19.7208 1673.9831,-27.3882 1680.3604,-30.2744"/>
</g>
<!-- Node18 -->
<g id="node19" class="node">
<title>Node18</title>
<polygon fill="#ffffff" stroke="#bfbfbf" points="1035,-56.5 1035,-75.5 1079,-75.5 1079,-56.5 1035,-56.5"/>
<text text-anchor="middle" x="1057" y="-63.5" font-family="Helvetica,sans-Serif" font-size="10.00" fill="#000000">gpio.h</text>
</g>
<!-- Node1&#45;&gt;Node18 -->
<g id="edge18" class="edge">
<title>Node1&#45;&gt;Node18</title>
<path fill="none" stroke="#191970" d="M997.5414,-112.2455C1008.2787,-103.8943 1023.9473,-91.7076 1036.5047,-81.9408"/>
<polygon fill="#191970" stroke="#191970" points="1038.8575,-84.5449 1044.6023,-75.6427 1034.5599,-79.0194 1038.8575,-84.5449"/>
</g>
<!-- Node19 -->
<g id="node20" class="node">
<title>Node19</title>
<polygon fill="#ffffff" stroke="#bfbfbf" points="1097.5,-56.5 1097.5,-75.5 1144.5,-75.5 1144.5,-56.5 1097.5,-56.5"/>
<text text-anchor="middle" x="1121" y="-63.5" font-family="Helvetica,sans-Serif" font-size="10.00" fill="#000000">mem.h</text>
</g>
<!-- Node1&#45;&gt;Node19 -->
<g id="edge19" class="edge">
<title>Node1&#45;&gt;Node19</title>
<path fill="none" stroke="#191970" d="M1008.3792,-112.3733C1030.5045,-103.2629 1063.9134,-89.5062 1088.6019,-79.3404"/>
<polygon fill="#191970" stroke="#191970" points="1090.0117,-82.5451 1097.9258,-75.5011 1087.3464,-76.0723 1090.0117,-82.5451"/>
</g>
<!-- Node20 -->
<g id="node21" class="node">
<title>Node20</title>
<polygon fill="#ffffff" stroke="#bfbfbf" points="1162.5,-56.5 1162.5,-75.5 1211.5,-75.5 1211.5,-56.5 1162.5,-56.5"/>
<text text-anchor="middle" x="1187" y="-63.5" font-family="Helvetica,sans-Serif" font-size="10.00" fill="#000000">osapi.h</text>
</g>
<!-- Node1&#45;&gt;Node20 -->
<g id="edge20" class="edge">
<title>Node1&#45;&gt;Node20</title>
<path fill="none" stroke="#191970" d="M1016.6321,-113.5289C1048.4585,-104.964 1099.1939,-91.1973 1152.2112,-76.1883"/>
<polygon fill="#191970" stroke="#191970" points="1153.4688,-79.4697 1162.1332,-73.3723 1151.5575,-72.7356 1153.4688,-79.4697"/>
</g>
<!-- Node21 -->
<g id="node22" class="node">
<title>Node21</title>
<polygon fill="#ffffff" stroke="#bfbfbf" points="1230,-56.5 1230,-75.5 1318,-75.5 1318,-56.5 1230,-56.5"/>
<text text-anchor="middle" x="1274" y="-63.5" font-family="Helvetica,sans-Serif" font-size="10.00" fill="#000000">user_interface.h</text>
</g>
<!-- Node1&#45;&gt;Node21 -->
<g id="edge21" class="edge">
<title>Node1&#45;&gt;Node21</title>
<path fill="none" stroke="#191970" d="M1016.7548,-115.8468C1065.6844,-106.3657 1160.106,-88.0694 1219.9369,-76.4759"/>
<polygon fill="#191970" stroke="#191970" points="1220.8064,-79.8726 1229.9579,-74.5341 1219.4747,-73.0004 1220.8064,-79.8726"/>
</g>
<!-- Node22 -->
<g id="node23" class="node">
<title>Node22</title>
<polygon fill="#ffffff" stroke="#bfbfbf" points="1336,-56.5 1336,-75.5 1398,-75.5 1398,-56.5 1336,-56.5"/>
<text text-anchor="middle" x="1367" y="-63.5" font-family="Helvetica,sans-Serif" font-size="10.00" fill="#000000">upgrade.h</text>
</g>
<!-- Node1&#45;&gt;Node22 -->
<g id="edge22" class="edge">
<title>Node1&#45;&gt;Node22</title>
<path fill="none" stroke="#191970" d="M1016.7813,-118.9198C1075.7732,-112.9459 1206.3374,-98.5232 1325.6007,-76.1028"/>
<polygon fill="#191970" stroke="#191970" points="1326.4617,-79.5018 1335.6304,-74.1929 1325.1522,-72.6253 1326.4617,-79.5018"/>
</g>
<!-- Node23 -->
<g id="node24" class="node">
<title>Node23</title>
<g id="a_node24"><a xlink:href="platform_8h.html" target="_top" xlink:title="platform.h">
<polygon fill="#ffffff" stroke="#000000" points="1416.5,-56.5 1416.5,-75.5 1477.5,-75.5 1477.5,-56.5 1416.5,-56.5"/>
<text text-anchor="middle" x="1447" y="-63.5" font-family="Helvetica,sans-Serif" font-size="10.00" fill="#000000">platform.h</text>
</a>
</g>
</g>
<!-- Node1&#45;&gt;Node23 -->
<g id="edge23" class="edge">
<title>Node1&#45;&gt;Node23</title>
<path fill="none" stroke="#191970" d="M1016.7082,-120.0277C1085.7542,-115.4163 1254.9667,-102.3992 1406.1502,-75.9351"/>
<polygon fill="#191970" stroke="#191970" points="1406.8467,-79.3663 1416.0811,-74.1725 1405.6233,-72.474 1406.8467,-79.3663"/>
</g>
<!-- Node24 -->
<g id="node25" class="node">
<title>Node24</title>
<g id="a_node25"><a xlink:href="espmissingincludes_8h.html" target="_top" xlink:title="espmissingincludes.h">
<polygon fill="#ffffff" stroke="#000000" points="1706,-56.5 1706,-75.5 1818,-75.5 1818,-56.5 1706,-56.5"/>
<text text-anchor="middle" x="1762" y="-63.5" font-family="Helvetica,sans-Serif" font-size="10.00" fill="#000000">espmissingincludes.h</text>
</a>
</g>
</g>
<!-- Node1&#45;&gt;Node24 -->
<g id="edge24" class="edge">
<title>Node1&#45;&gt;Node24</title>
<path fill="none" stroke="#191970" d="M1016.7833,-120.8045C1116.5022,-116.8669 1432.0165,-102.9876 1692,-76 1693.2707,-75.8681 1694.5537,-75.7304 1695.846,-75.5876"/>
<polygon fill="#191970" stroke="#191970" points="1696.3617,-79.0511 1705.883,-74.4041 1695.5419,-72.0993 1696.3617,-79.0511"/>
</g>
<!-- Node24&#45;&gt;Node6 -->
<g id="edge26" class="edge">
<title>Node24&#45;&gt;Node6</title>
<path fill="none" stroke="#191970" d="M1735.5265,-56.3733C1710.1403,-47.1419 1671.6355,-33.1402 1643.578,-22.9375"/>
<polygon fill="#191970" stroke="#191970" points="1644.7222,-19.6293 1634.1281,-19.5011 1642.3299,-26.2079 1644.7222,-19.6293"/>
</g>
<!-- Node24&#45;&gt;Node17 -->
<g id="edge28" class="edge">
<title>Node24&#45;&gt;Node17</title>
<path fill="none" stroke="#191970" d="M1748.5876,-56.2455C1736.9943,-47.814 1720.0252,-35.4729 1706.5322,-25.6598"/>
<polygon fill="#191970" stroke="#191970" points="1708.4047,-22.6938 1698.2587,-19.6427 1704.2874,-28.355 1708.4047,-22.6938"/>
</g>
<!-- Node24&#45;&gt;Node25 -->
<g id="edge25" class="edge">
<title>Node24&#45;&gt;Node25</title>
<path fill="none" stroke="#191970" d="M1776.6317,-56.2455C1789.3994,-47.7337 1808.1438,-35.2375 1822.9299,-25.3801"/>
<polygon fill="#191970" stroke="#191970" points="1825.1569,-28.1019 1831.536,-19.6427 1821.274,-22.2775 1825.1569,-28.1019"/>
</g>
<!-- Node26 -->
<g id="node27" class="node">
<title>Node26</title>
<polygon fill="#ffffff" stroke="#bfbfbf" points="1733,-.5 1733,-19.5 1803,-19.5 1803,-.5 1733,-.5"/>
<text text-anchor="middle" x="1768" y="-7.5" font-family="Helvetica,sans-Serif" font-size="10.00" fill="#000000">eagle_soc.h</text>
</g>
<!-- Node24&#45;&gt;Node26 -->
<g id="edge27" class="edge">
<title>Node24&#45;&gt;Node26</title>
<path fill="none" stroke="#191970" d="M1763.0451,-56.2455C1763.828,-48.9382 1764.9256,-38.6944 1765.8888,-29.7046"/>
<polygon fill="#191970" stroke="#191970" points="1769.3815,-29.9587 1766.9669,-19.6427 1762.4214,-29.2129 1769.3815,-29.9587"/>
</g>
<!-- Node27&#45;&gt;Node1 -->
<g id="edge31" class="edge">
<title>Node27&#45;&gt;Node1</title>
<path fill="none" stroke="#191970" d="M956.9223,-168.2455C961.6027,-160.5367 968.2673,-149.5598 973.9289,-140.2348"/>
<polygon fill="#191970" stroke="#191970" points="976.9475,-142.007 979.1455,-131.6427 970.9639,-138.3741 976.9475,-142.007"/>
</g>
<!-- Node27&#45;&gt;Node3 -->
<g id="edge32" class="edge">
<title>Node27&#45;&gt;Node3</title>
<path fill="none" stroke="#191970" d="M909.9253,-176.097C783.2956,-169.6469 387.9525,-145.1443 56.0831,-75.8983"/>
<polygon fill="#191970" stroke="#191970" points="56.7897,-72.4704 46.2834,-73.8365 55.3485,-79.3204 56.7897,-72.4704"/>
</g>
</g>
</svg>
