<?xml version="1.0" encoding="UTF-8" standalone="no"?>
<!DOCTYPE svg PUBLIC "-//W3C//DTD SVG 1.1//EN"
 "http://www.w3.org/Graphics/SVG/1.1/DTD/svg11.dtd">
<!-- Generated by graphviz version 2.41.20170323.1842 (20170323.1842)
 -->
<!-- Title: esp&#45;open&#45;lwip/lwip/core/sntp.c Pages: 1 -->
<svg width="767pt" height="599pt"
 viewBox="0.00 0.00 767.46 599.00" xmlns="http://www.w3.org/2000/svg" xmlns:xlink="http://www.w3.org/1999/xlink">
<g id="graph0" class="graph" transform="scale(1 1) rotate(0) translate(4 595)">
<title>esp&#45;open&#45;lwip/lwip/core/sntp.c</title>
<polygon fill="#ffffff" stroke="transparent" points="-4,4 -4,-595 763.4595,-595 763.4595,4 -4,4"/>
<!-- Node0 -->
<g id="node1" class="node">
<title>Node0</title>
<polygon fill="#bfbfbf" stroke="#000000" points="151.4595,-560.5 151.4595,-590.5 250.4595,-590.5 250.4595,-560.5 151.4595,-560.5"/>
<text text-anchor="start" x="159.4595" y="-578.5" font-family="Helvetica,sans-Serif" font-size="10.00" fill="#000000">esp&#45;open&#45;lwip/lwip</text>
<text text-anchor="middle" x="200.9595" y="-567.5" font-family="Helvetica,sans-Serif" font-size="10.00" fill="#000000">/core/sntp.c</text>
</g>
<!-- Node1 -->
<g id="node2" class="node">
<title>Node1</title>
<g id="a_node2"><a xlink:href="esp-open-lwip_2include_2lwip_2sntp_8h.html" target="_top" xlink:title="lwip/sntp.h">
<polygon fill="#ffffff" stroke="#000000" points="168.9595,-504.5 168.9595,-523.5 232.9595,-523.5 232.9595,-504.5 168.9595,-504.5"/>
<text text-anchor="middle" x="200.9595" y="-511.5" font-family="Helvetica,sans-Serif" font-size="10.00" fill="#000000">lwip/sntp.h</text>
</a>
</g>
</g>
<!-- Node0&#45;&gt;Node1 -->
<g id="edge1" class="edge">
<title>Node0&#45;&gt;Node1</title>
<path fill="none" stroke="#191970" d="M200.9595,-560.2977C200.9595,-552.3834 200.9595,-542.6043 200.9595,-534.0759"/>
<polygon fill="#191970" stroke="#191970" points="204.4596,-533.8469 200.9595,-523.8469 197.4596,-533.847 204.4596,-533.8469"/>
</g>
<!-- Node2 -->
<g id="node3" class="node">
<title>Node2</title>
<g id="a_node3"><a xlink:href="opt_8h.html" target="_top" xlink:title="lwip/opt.h">
<polygon fill="#ffffff" stroke="#000000" points="217.4595,-336.5 217.4595,-355.5 276.4595,-355.5 276.4595,-336.5 217.4595,-336.5"/>
<text text-anchor="middle" x="246.9595" y="-343.5" font-family="Helvetica,sans-Serif" font-size="10.00" fill="#000000">lwip/opt.h</text>
</a>
</g>
</g>
<!-- Node0&#45;&gt;Node2 -->
<g id="edge24" class="edge">
<title>Node0&#45;&gt;Node2</title>
<path fill="none" stroke="#191970" d="M184.0787,-560.1071C175.0352,-550.6844 164.7852,-537.8094 159.9595,-524 157.0271,-515.6087 158.2384,-512.7207 159.9595,-504 170.3789,-451.2057 177.4274,-437.6259 205.9595,-392 212.4931,-381.5521 221.4478,-371.1933 229.322,-362.9587"/>
<polygon fill="#191970" stroke="#191970" points="231.8793,-365.3504 236.4263,-355.7809 226.9041,-360.4262 231.8793,-365.3504"/>
</g>
<!-- Node12 -->
<g id="node13" class="node">
<title>Node12</title>
<g id="a_node13"><a xlink:href="osapi_8h.html" target="_top" xlink:title="osapi.h">
<polygon fill="#ffffff" stroke="#000000" points="656.4595,-112.5 656.4595,-131.5 705.4595,-131.5 705.4595,-112.5 656.4595,-112.5"/>
<text text-anchor="middle" x="680.9595" y="-119.5" font-family="Helvetica,sans-Serif" font-size="10.00" fill="#000000">osapi.h</text>
</a>
</g>
</g>
<!-- Node0&#45;&gt;Node12 -->
<g id="edge21" class="edge">
<title>Node0&#45;&gt;Node12</title>
<path fill="none" stroke="#191970" d="M250.5796,-573.6308C371.7638,-567.7204 672.9595,-544.3454 672.9595,-458 672.9595,-458 672.9595,-458 672.9595,-234 672.9595,-201.6293 676.3255,-164.1294 678.6907,-141.7743"/>
<polygon fill="#191970" stroke="#191970" points="682.1985,-141.8948 679.8133,-131.5719 675.2405,-141.1291 682.1985,-141.8948"/>
</g>
<!-- Node15 -->
<g id="node16" class="node">
<title>Node15</title>
<g id="a_node16"><a xlink:href="esp-open-lwip_2include_2lwip_2ip__addr_8h.html" target="_top" xlink:title="lwip/ip_addr.h">
<polygon fill="#ffffff" stroke="#000000" points="206.9595,-448.5 206.9595,-467.5 284.9595,-467.5 284.9595,-448.5 206.9595,-448.5"/>
<text text-anchor="middle" x="245.9595" y="-455.5" font-family="Helvetica,sans-Serif" font-size="10.00" fill="#000000">lwip/ip_addr.h</text>
</a>
</g>
</g>
<!-- Node0&#45;&gt;Node15 -->
<g id="edge39" class="edge">
<title>Node0&#45;&gt;Node15</title>
<path fill="none" stroke="#191970" d="M217.1104,-560.4338C226.1466,-550.9342 236.6362,-537.8705 241.9595,-524 247.615,-509.2639 248.3492,-491.3175 247.8171,-477.8605"/>
<polygon fill="#191970" stroke="#191970" points="251.303,-477.5296 247.1525,-467.7816 244.3181,-477.9902 251.303,-477.5296"/>
</g>
<!-- Node17 -->
<g id="node18" class="node">
<title>Node17</title>
<g id="a_node18"><a xlink:href="os__type_8h.html" target="_top" xlink:title="os_type.h">
<polygon fill="#ffffff" stroke="#000000" points="42.9595,-336.5 42.9595,-355.5 102.9595,-355.5 102.9595,-336.5 42.9595,-336.5"/>
<text text-anchor="middle" x="72.9595" y="-343.5" font-family="Helvetica,sans-Serif" font-size="10.00" fill="#000000">os_type.h</text>
</a>
</g>
</g>
<!-- Node0&#45;&gt;Node17 -->
<g id="edge22" class="edge">
<title>Node0&#45;&gt;Node17</title>
<path fill="none" stroke="#191970" d="M151.2126,-570.8608C114.6126,-565.147 65.5821,-552.4046 31.9595,-524 4.4614,-500.7694 -6.5883,-482.4172 3.9595,-448 14.2186,-414.5244 39.5888,-382.1368 56.5383,-363.1444"/>
<polygon fill="#191970" stroke="#191970" points="59.2496,-365.3665 63.4335,-355.6327 54.0927,-360.6328 59.2496,-365.3665"/>
</g>
<!-- Node18 -->
<g id="node19" class="node">
<title>Node18</title>
<g id="a_node19"><a xlink:href="timers_8h.html" target="_top" xlink:title="lwip/timers.h">
<polygon fill="#ffffff" stroke="#000000" points="368.9595,-504.5 368.9595,-523.5 440.9595,-523.5 440.9595,-504.5 368.9595,-504.5"/>
<text text-anchor="middle" x="404.9595" y="-511.5" font-family="Helvetica,sans-Serif" font-size="10.00" fill="#000000">lwip/timers.h</text>
</a>
</g>
</g>
<!-- Node0&#45;&gt;Node18 -->
<g id="edge25" class="edge">
<title>Node0&#45;&gt;Node18</title>
<path fill="none" stroke="#191970" d="M250.6026,-560.534C285.2323,-550.0942 330.9086,-536.3242 363.5721,-526.4771"/>
<polygon fill="#191970" stroke="#191970" points="364.7005,-529.7926 373.2646,-523.5551 362.68,-523.0905 364.7005,-529.7926"/>
</g>
<!-- Node22 -->
<g id="node23" class="node">
<title>Node22</title>
<g id="a_node23"><a xlink:href="udp_8h.html" target="_top" xlink:title="lwip/udp.h">
<polygon fill="#ffffff" stroke="#000000" points="12.9595,-448.5 12.9595,-467.5 74.9595,-467.5 74.9595,-448.5 12.9595,-448.5"/>
<text text-anchor="middle" x="43.9595" y="-455.5" font-family="Helvetica,sans-Serif" font-size="10.00" fill="#000000">lwip/udp.h</text>
</a>
</g>
</g>
<!-- Node0&#45;&gt;Node22 -->
<g id="edge35" class="edge">
<title>Node0&#45;&gt;Node22</title>
<path fill="none" stroke="#191970" d="M151.2014,-566.005C109.6137,-556.9384 55.0577,-542.0106 41.9595,-524 32.2883,-510.7017 34.0826,-491.5856 37.5302,-477.346"/>
<polygon fill="#191970" stroke="#191970" points="40.9373,-478.1617 40.3264,-467.5845 34.2079,-476.234 40.9373,-478.1617"/>
</g>
<!-- Node23 -->
<g id="node24" class="node">
<title>Node23</title>
<g id="a_node24"><a xlink:href="dns_8h.html" target="_top" xlink:title="lwip/dns.h">
<polygon fill="#ffffff" stroke="#000000" points="51.4595,-504.5 51.4595,-523.5 112.4595,-523.5 112.4595,-504.5 51.4595,-504.5"/>
<text text-anchor="middle" x="81.9595" y="-511.5" font-family="Helvetica,sans-Serif" font-size="10.00" fill="#000000">lwip/dns.h</text>
</a>
</g>
</g>
<!-- Node0&#45;&gt;Node23 -->
<g id="edge37" class="edge">
<title>Node0&#45;&gt;Node23</title>
<path fill="none" stroke="#191970" d="M171.8488,-560.4554C152.7771,-550.599 128.0113,-537.7999 109.3056,-528.1327"/>
<polygon fill="#191970" stroke="#191970" points="110.8909,-525.0122 100.4002,-523.5303 107.6771,-531.2309 110.8909,-525.0122"/>
</g>
<!-- Node24 -->
<g id="node25" class="node">
<title>Node24</title>
<g id="a_node25"><a xlink:href="pbuf_8h.html" target="_top" xlink:title="lwip/pbuf.h">
<polygon fill="#ffffff" stroke="#000000" points="302.9595,-448.5 302.9595,-467.5 366.9595,-467.5 366.9595,-448.5 302.9595,-448.5"/>
<text text-anchor="middle" x="334.9595" y="-455.5" font-family="Helvetica,sans-Serif" font-size="10.00" fill="#000000">lwip/pbuf.h</text>
</a>
</g>
</g>
<!-- Node0&#45;&gt;Node24 -->
<g id="edge40" class="edge">
<title>Node0&#45;&gt;Node24</title>
<path fill="none" stroke="#191970" d="M218.2033,-560.3795C243.4614,-538.2315 290.3328,-497.1316 316.3467,-474.3209"/>
<polygon fill="#191970" stroke="#191970" points="318.7948,-476.8292 324.0061,-467.6046 314.1797,-471.566 318.7948,-476.8292"/>
</g>
<!-- Node1&#45;&gt;Node2 -->
<g id="edge2" class="edge">
<title>Node1&#45;&gt;Node2</title>
<path fill="none" stroke="#191970" d="M198.9504,-504.459C196.5758,-491.4975 193.4768,-467.6835 197.9595,-448 205.0824,-416.7231 223.0528,-383.8494 235.1356,-364.1396"/>
<polygon fill="#191970" stroke="#191970" points="238.1548,-365.9133 240.5209,-355.586 232.231,-362.1837 238.1548,-365.9133"/>
</g>
<!-- Node1&#45;&gt;Node15 -->
<g id="edge16" class="edge">
<title>Node1&#45;&gt;Node15</title>
<path fill="none" stroke="#191970" d="M208.7979,-504.2455C215.1215,-496.3761 224.1819,-485.101 231.7731,-475.6542"/>
<polygon fill="#191970" stroke="#191970" points="234.6752,-477.6302 238.2109,-467.6427 229.2187,-473.2454 234.6752,-477.6302"/>
</g>
<!-- Node3 -->
<g id="node4" class="node">
<title>Node3</title>
<g id="a_node4"><a xlink:href="lwipopts_8h.html" target="_top" xlink:title="lwipopts.h">
<polygon fill="#ffffff" stroke="#000000" points="208.4595,-280.5 208.4595,-299.5 269.4595,-299.5 269.4595,-280.5 208.4595,-280.5"/>
<text text-anchor="middle" x="238.9595" y="-287.5" font-family="Helvetica,sans-Serif" font-size="10.00" fill="#000000">lwipopts.h</text>
</a>
</g>
</g>
<!-- Node2&#45;&gt;Node3 -->
<g id="edge3" class="edge">
<title>Node2&#45;&gt;Node3</title>
<path fill="none" stroke="#191970" d="M245.566,-336.2455C244.5221,-328.9382 243.0587,-318.6944 241.7744,-309.7046"/>
<polygon fill="#191970" stroke="#191970" points="245.2161,-309.0472 240.337,-299.6427 238.2865,-310.0372 245.2161,-309.0472"/>
</g>
<!-- Node4 -->
<g id="node5" class="node">
<title>Node4</title>
<g id="a_node5"><a xlink:href="esp-open-sdk_2esp-open-lwip_2include_2lwip_2debug_8h.html" target="_top" xlink:title="lwip/debug.h">
<polygon fill="#ffffff" stroke="#000000" points="287.4595,-280.5 287.4595,-299.5 360.4595,-299.5 360.4595,-280.5 287.4595,-280.5"/>
<text text-anchor="middle" x="323.9595" y="-287.5" font-family="Helvetica,sans-Serif" font-size="10.00" fill="#000000">lwip/debug.h</text>
</a>
</g>
</g>
<!-- Node2&#45;&gt;Node4 -->
<g id="edge4" class="edge">
<title>Node2&#45;&gt;Node4</title>
<path fill="none" stroke="#191970" d="M260.3718,-336.2455C271.9652,-327.814 288.9342,-315.4729 302.4273,-305.6598"/>
<polygon fill="#191970" stroke="#191970" points="304.672,-308.355 310.7008,-299.6427 300.5548,-302.6938 304.672,-308.355"/>
</g>
<!-- Node5 -->
<g id="node6" class="node">
<title>Node5</title>
<g id="a_node6"><a xlink:href="arch_8h.html" target="_top" xlink:title="lwip/arch.h">
<polygon fill="#ffffff" stroke="#000000" points="363.9595,-224.5 363.9595,-243.5 427.9595,-243.5 427.9595,-224.5 363.9595,-224.5"/>
<text text-anchor="middle" x="395.9595" y="-231.5" font-family="Helvetica,sans-Serif" font-size="10.00" fill="#000000">lwip/arch.h</text>
</a>
</g>
</g>
<!-- Node4&#45;&gt;Node5 -->
<g id="edge5" class="edge">
<title>Node4&#45;&gt;Node5</title>
<path fill="none" stroke="#191970" d="M336.5009,-280.2455C347.2382,-271.8943 362.9068,-259.7076 375.4641,-249.9408"/>
<polygon fill="#191970" stroke="#191970" points="377.817,-252.5449 383.5617,-243.6427 373.5194,-247.0194 377.817,-252.5449"/>
</g>
<!-- Node6 -->
<g id="node7" class="node">
<title>Node6</title>
<g id="a_node7"><a xlink:href="cc_8h.html" target="_top" xlink:title="arch/cc.h">
<polygon fill="#ffffff" stroke="#000000" points="397.4595,-168.5 397.4595,-187.5 454.4595,-187.5 454.4595,-168.5 397.4595,-168.5"/>
<text text-anchor="middle" x="425.9595" y="-175.5" font-family="Helvetica,sans-Serif" font-size="10.00" fill="#000000">arch/cc.h</text>
</a>
</g>
</g>
<!-- Node5&#45;&gt;Node6 -->
<g id="edge6" class="edge">
<title>Node5&#45;&gt;Node6</title>
<path fill="none" stroke="#191970" d="M401.1851,-224.2455C405.2718,-216.617 411.073,-205.7881 416.0344,-196.5267"/>
<polygon fill="#191970" stroke="#191970" points="419.1567,-198.1103 420.7938,-187.6427 412.9863,-194.8047 419.1567,-198.1103"/>
</g>
<!-- Node7 -->
<g id="node8" class="node">
<title>Node7</title>
<g id="a_node8"><a xlink:href="c__types_8h.html" target="_top" xlink:title="c_types.h">
<polygon fill="#ffffff" stroke="#000000" points="382.4595,-56.5 382.4595,-75.5 441.4595,-75.5 441.4595,-56.5 382.4595,-56.5"/>
<text text-anchor="middle" x="411.9595" y="-63.5" font-family="Helvetica,sans-Serif" font-size="10.00" fill="#000000">c_types.h</text>
</a>
</g>
</g>
<!-- Node6&#45;&gt;Node7 -->
<g id="edge7" class="edge">
<title>Node6&#45;&gt;Node7</title>
<path fill="none" stroke="#191970" d="M419.4198,-168.2849C413.8001,-159.3105 406.1186,-145.3824 402.9595,-132 399.3062,-116.5244 402.1737,-98.6328 405.6112,-85.3851"/>
<polygon fill="#191970" stroke="#191970" points="409.0531,-86.0847 408.5021,-75.5042 402.3348,-84.1191 409.0531,-86.0847"/>
</g>
<!-- Node10 -->
<g id="node11" class="node">
<title>Node10</title>
<g id="a_node11"><a xlink:href="ets__sys_8h.html" target="_top" xlink:title="ets_sys.h">
<polygon fill="#ffffff" stroke="#000000" points="411.4595,-112.5 411.4595,-131.5 470.4595,-131.5 470.4595,-112.5 411.4595,-112.5"/>
<text text-anchor="middle" x="440.9595" y="-119.5" font-family="Helvetica,sans-Serif" font-size="10.00" fill="#000000">ets_sys.h</text>
</a>
</g>
</g>
<!-- Node6&#45;&gt;Node10 -->
<g id="edge10" class="edge">
<title>Node6&#45;&gt;Node10</title>
<path fill="none" stroke="#191970" d="M428.5723,-168.2455C430.5511,-160.8579 433.3339,-150.4689 435.7607,-141.4087"/>
<polygon fill="#191970" stroke="#191970" points="439.17,-142.2078 438.3766,-131.6427 432.4084,-140.3966 439.17,-142.2078"/>
</g>
<!-- Node6&#45;&gt;Node12 -->
<g id="edge13" class="edge">
<title>Node6&#45;&gt;Node12</title>
<path fill="none" stroke="#191970" d="M454.7155,-171.6849C501.8741,-161.3286 595.4703,-140.7741 646.2465,-129.6232"/>
<polygon fill="#191970" stroke="#191970" points="647.0855,-133.0225 656.102,-127.4589 645.584,-126.1854 647.0855,-133.0225"/>
</g>
<!-- Node8 -->
<g id="node9" class="node">
<title>Node8</title>
<polygon fill="#ffffff" stroke="#bfbfbf" points="352.4595,-.5 352.4595,-19.5 401.4595,-19.5 401.4595,-.5 352.4595,-.5"/>
<text text-anchor="middle" x="376.9595" y="-7.5" font-family="Helvetica,sans-Serif" font-size="10.00" fill="#000000">stdint.h</text>
</g>
<!-- Node7&#45;&gt;Node8 -->
<g id="edge8" class="edge">
<title>Node7&#45;&gt;Node8</title>
<path fill="none" stroke="#191970" d="M405.8629,-56.2455C401.0449,-48.5367 394.1843,-37.5598 388.3562,-28.2348"/>
<polygon fill="#191970" stroke="#191970" points="391.2542,-26.2677 382.9861,-19.6427 385.3182,-29.9777 391.2542,-26.2677"/>
</g>
<!-- Node9 -->
<g id="node10" class="node">
<title>Node9</title>
<polygon fill="#ffffff" stroke="#bfbfbf" points="419.4595,-.5 419.4595,-19.5 476.4595,-19.5 476.4595,-.5 419.4595,-.5"/>
<text text-anchor="middle" x="447.9595" y="-7.5" font-family="Helvetica,sans-Serif" font-size="10.00" fill="#000000">stdbool.h</text>
</g>
<!-- Node7&#45;&gt;Node9 -->
<g id="edge9" class="edge">
<title>Node7&#45;&gt;Node9</title>
<path fill="none" stroke="#191970" d="M418.2302,-56.2455C423.1859,-48.5367 430.2425,-37.5598 436.2371,-28.2348"/>
<polygon fill="#191970" stroke="#191970" points="439.2971,-29.9471 441.7606,-19.6427 433.4089,-26.1618 439.2971,-29.9471"/>
</g>
<!-- Node10&#45;&gt;Node7 -->
<g id="edge11" class="edge">
<title>Node10&#45;&gt;Node7</title>
<path fill="none" stroke="#191970" d="M435.9081,-112.2455C431.9576,-104.617 426.3498,-93.7881 421.5537,-84.5267"/>
<polygon fill="#191970" stroke="#191970" points="424.6596,-82.9131 416.953,-75.6427 418.4436,-86.1321 424.6596,-82.9131"/>
</g>
<!-- Node11 -->
<g id="node12" class="node">
<title>Node11</title>
<g id="a_node12"><a xlink:href="eagle__soc_8h.html" target="_top" xlink:title="eagle_soc.h">
<polygon fill="#ffffff" stroke="#000000" points="467.9595,-56.5 467.9595,-75.5 537.9595,-75.5 537.9595,-56.5 467.9595,-56.5"/>
<text text-anchor="middle" x="502.9595" y="-63.5" font-family="Helvetica,sans-Serif" font-size="10.00" fill="#000000">eagle_soc.h</text>
</a>
</g>
</g>
<!-- Node10&#45;&gt;Node11 -->
<g id="edge12" class="edge">
<title>Node10&#45;&gt;Node11</title>
<path fill="none" stroke="#191970" d="M451.759,-112.2455C460.8272,-104.0549 473.9801,-92.1749 484.6839,-82.5069"/>
<polygon fill="#191970" stroke="#191970" points="487.2086,-84.9429 492.2837,-75.6427 482.5166,-79.7482 487.2086,-84.9429"/>
</g>
<!-- Node13 -->
<g id="node14" class="node">
<title>Node13</title>
<polygon fill="#ffffff" stroke="#bfbfbf" points="615.4595,-56.5 615.4595,-75.5 664.4595,-75.5 664.4595,-56.5 615.4595,-56.5"/>
<text text-anchor="middle" x="639.9595" y="-63.5" font-family="Helvetica,sans-Serif" font-size="10.00" fill="#000000">string.h</text>
</g>
<!-- Node12&#45;&gt;Node13 -->
<g id="edge14" class="edge">
<title>Node12&#45;&gt;Node13</title>
<path fill="none" stroke="#191970" d="M673.8178,-112.2455C668.1151,-104.4564 659.9695,-93.3308 653.097,-83.9439"/>
<polygon fill="#191970" stroke="#191970" points="655.7507,-81.6437 647.0193,-75.6427 650.1027,-85.7789 655.7507,-81.6437"/>
</g>
<!-- Node14 -->
<g id="node15" class="node">
<title>Node14</title>
<polygon fill="#ffffff" stroke="#bfbfbf" points="682.4595,-56.5 682.4595,-75.5 759.4595,-75.5 759.4595,-56.5 682.4595,-56.5"/>
<text text-anchor="middle" x="720.9595" y="-63.5" font-family="Helvetica,sans-Serif" font-size="10.00" fill="#000000">user_config.h</text>
</g>
<!-- Node12&#45;&gt;Node14 -->
<g id="edge15" class="edge">
<title>Node12&#45;&gt;Node14</title>
<path fill="none" stroke="#191970" d="M687.9269,-112.2455C693.4906,-104.4564 701.4375,-93.3308 708.1424,-83.9439"/>
<polygon fill="#191970" stroke="#191970" points="711.1075,-85.8144 714.0718,-75.6427 705.4113,-81.7457 711.1075,-85.8144"/>
</g>
<!-- Node15&#45;&gt;Node2 -->
<g id="edge17" class="edge">
<title>Node15&#45;&gt;Node2</title>
<path fill="none" stroke="#191970" d="M244.3503,-448.1647C242.4392,-435.2725 239.6637,-411.9526 240.9595,-392 241.5192,-383.3805 242.6631,-373.9095 243.8033,-365.8133"/>
<polygon fill="#191970" stroke="#191970" points="247.278,-366.243 245.3009,-355.8343 240.3555,-365.2041 247.278,-366.243"/>
</g>
<!-- Node16 -->
<g id="node17" class="node">
<title>Node16</title>
<g id="a_node17"><a xlink:href="def_8h.html" target="_top" xlink:title="lwip/def.h">
<polygon fill="#ffffff" stroke="#000000" points="321.4595,-392.5 321.4595,-411.5 380.4595,-411.5 380.4595,-392.5 321.4595,-392.5"/>
<text text-anchor="middle" x="350.9595" y="-399.5" font-family="Helvetica,sans-Serif" font-size="10.00" fill="#000000">lwip/def.h</text>
</a>
</g>
</g>
<!-- Node15&#45;&gt;Node16 -->
<g id="edge18" class="edge">
<title>Node15&#45;&gt;Node16</title>
<path fill="none" stroke="#191970" d="M264.2491,-448.2455C280.7357,-439.4527 305.1946,-426.4079 323.936,-416.4125"/>
<polygon fill="#191970" stroke="#191970" points="325.703,-419.4368 332.8795,-411.6427 322.4088,-413.2604 325.703,-419.4368"/>
</g>
<!-- Node16&#45;&gt;Node2 -->
<g id="edge20" class="edge">
<title>Node16&#45;&gt;Node2</title>
<path fill="none" stroke="#191970" d="M332.8441,-392.2455C316.5144,-383.4527 292.2885,-370.4079 273.7256,-360.4125"/>
<polygon fill="#191970" stroke="#191970" points="275.3314,-357.3021 264.8673,-355.6427 272.0126,-363.4654 275.3314,-357.3021"/>
</g>
<!-- Node16&#45;&gt;Node5 -->
<g id="edge19" class="edge">
<title>Node16&#45;&gt;Node5</title>
<path fill="none" stroke="#191970" d="M353.5078,-392.4862C360.652,-365.8144 380.9831,-289.9117 390.684,-253.695"/>
<polygon fill="#191970" stroke="#191970" points="394.1204,-254.393 393.327,-243.8279 387.3587,-252.5818 394.1204,-254.393"/>
</g>
<!-- Node17&#45;&gt;Node10 -->
<g id="edge23" class="edge">
<title>Node17&#45;&gt;Node10</title>
<path fill="none" stroke="#191970" d="M88.772,-336.375C146.5715,-301.1927 346.6585,-179.4006 416.5973,-136.8292"/>
<polygon fill="#191970" stroke="#191970" points="418.4837,-139.7784 425.2059,-131.5891 414.844,-133.799 418.4837,-139.7784"/>
</g>
<!-- Node18&#45;&gt;Node2 -->
<g id="edge26" class="edge">
<title>Node18&#45;&gt;Node2</title>
<path fill="none" stroke="#191970" d="M402.7941,-504.4305C399.2449,-490.5717 391.0302,-464.7449 375.9595,-448 354.3858,-424.0297 338.588,-431.575 312.9595,-412 293.7976,-397.3643 274.6137,-377.445 261.9069,-363.3286"/>
<polygon fill="#191970" stroke="#191970" points="264.4698,-360.9433 255.223,-355.7715 259.2264,-365.5808 264.4698,-360.9433"/>
</g>
<!-- Node19 -->
<g id="node20" class="node">
<title>Node19</title>
<g id="a_node20"><a xlink:href="err_8h.html" target="_top" xlink:title="lwip/err.h">
<polygon fill="#ffffff" stroke="#000000" points="398.4595,-392.5 398.4595,-411.5 455.4595,-411.5 455.4595,-392.5 398.4595,-392.5"/>
<text text-anchor="middle" x="426.9595" y="-399.5" font-family="Helvetica,sans-Serif" font-size="10.00" fill="#000000">lwip/err.h</text>
</a>
</g>
</g>
<!-- Node18&#45;&gt;Node19 -->
<g id="edge27" class="edge">
<title>Node18&#45;&gt;Node19</title>
<path fill="none" stroke="#191970" d="M406.8352,-504.4509C410.4396,-486.1013 418.397,-445.5908 423.1548,-421.3693"/>
<polygon fill="#191970" stroke="#191970" points="426.5953,-422.012 425.0885,-411.5249 419.7266,-420.6627 426.5953,-422.012"/>
</g>
<!-- Node20 -->
<g id="node21" class="node">
<title>Node20</title>
<g id="a_node21"><a xlink:href="sys_8h.html" target="_top" xlink:title="lwip/sys.h">
<polygon fill="#ffffff" stroke="#000000" points="460.9595,-448.5 460.9595,-467.5 520.9595,-467.5 520.9595,-448.5 460.9595,-448.5"/>
<text text-anchor="middle" x="490.9595" y="-455.5" font-family="Helvetica,sans-Serif" font-size="10.00" fill="#000000">lwip/sys.h</text>
</a>
</g>
</g>
<!-- Node18&#45;&gt;Node20 -->
<g id="edge30" class="edge">
<title>Node18&#45;&gt;Node20</title>
<path fill="none" stroke="#191970" d="M419.9395,-504.2455C433.1346,-495.6534 452.5645,-483.0014 467.7674,-473.1018"/>
<polygon fill="#191970" stroke="#191970" points="469.681,-476.0325 476.1511,-467.6427 465.8612,-470.1665 469.681,-476.0325"/>
</g>
<!-- Node19&#45;&gt;Node2 -->
<g id="edge28" class="edge">
<title>Node19&#45;&gt;Node2</title>
<path fill="none" stroke="#191970" d="M398.4379,-393.1266C368.1224,-383.6951 319.9804,-368.7176 286.1224,-358.184"/>
<polygon fill="#191970" stroke="#191970" points="287.1325,-354.8329 276.5442,-355.2041 285.053,-361.5169 287.1325,-354.8329"/>
</g>
<!-- Node19&#45;&gt;Node5 -->
<g id="edge29" class="edge">
<title>Node19&#45;&gt;Node5</title>
<path fill="none" stroke="#191970" d="M425.204,-392.4862C420.2824,-365.8144 406.2765,-289.9117 399.5937,-253.695"/>
<polygon fill="#191970" stroke="#191970" points="403.0295,-253.0267 397.7729,-243.8279 396.1457,-254.297 403.0295,-253.0267"/>
</g>
<!-- Node20&#45;&gt;Node2 -->
<g id="edge31" class="edge">
<title>Node20&#45;&gt;Node2</title>
<path fill="none" stroke="#191970" d="M489.989,-448.271C487.997,-433.7236 482.0775,-406.4693 464.9595,-392 438.4558,-369.5973 342.0051,-356.0003 286.6828,-349.871"/>
<polygon fill="#191970" stroke="#191970" points="286.8457,-346.3684 276.5286,-348.7786 286.0969,-353.3283 286.8457,-346.3684"/>
</g>
<!-- Node20&#45;&gt;Node11 -->
<g id="edge32" class="edge">
<title>Node20&#45;&gt;Node11</title>
<path fill="none" stroke="#191970" d="M521.1,-453.8746C547.8224,-448.653 586.0609,-437.0935 608.9595,-412 629.5349,-389.4522 627.9595,-376.5246 627.9595,-346 627.9595,-346 627.9595,-346 627.9595,-178 627.9595,-129.5861 575.3041,-96.8374 538.3434,-79.8134"/>
<polygon fill="#191970" stroke="#191970" points="539.4213,-76.4634 528.8595,-75.6263 536.594,-82.8671 539.4213,-76.4634"/>
</g>
<!-- Node20&#45;&gt;Node19 -->
<g id="edge33" class="edge">
<title>Node20&#45;&gt;Node19</title>
<path fill="none" stroke="#191970" d="M479.8115,-448.2455C470.4508,-440.0549 456.8737,-428.1749 445.8245,-418.5069"/>
<polygon fill="#191970" stroke="#191970" points="447.8102,-415.5937 437.9797,-411.6427 443.2007,-420.8618 447.8102,-415.5937"/>
</g>
<!-- Node21 -->
<g id="node22" class="node">
<title>Node21</title>
<g id="a_node22"><a xlink:href="sys__arch_8h.html" target="_top" xlink:title="arch/sys_arch.h">
<polygon fill="#ffffff" stroke="#000000" points="512.4595,-392.5 512.4595,-411.5 599.4595,-411.5 599.4595,-392.5 512.4595,-392.5"/>
<text text-anchor="middle" x="555.9595" y="-399.5" font-family="Helvetica,sans-Serif" font-size="10.00" fill="#000000">arch/sys_arch.h</text>
</a>
</g>
</g>
<!-- Node20&#45;&gt;Node21 -->
<g id="edge34" class="edge">
<title>Node20&#45;&gt;Node21</title>
<path fill="none" stroke="#191970" d="M502.2816,-448.2455C511.8818,-439.9746 525.8487,-427.9416 537.1289,-418.2232"/>
<polygon fill="#191970" stroke="#191970" points="539.4755,-420.8214 544.7671,-411.6427 534.9065,-415.5182 539.4755,-420.8214"/>
</g>
<!-- Node22&#45;&gt;Node2 -->
<g id="edge36" class="edge">
<title>Node22&#45;&gt;Node2</title>
<path fill="none" stroke="#191970" d="M47.9455,-448.3604C54.4058,-433.9299 68.5326,-406.8261 88.9595,-392 124.0567,-366.5259 173.084,-355.0884 207.1815,-349.9979"/>
<polygon fill="#191970" stroke="#191970" points="207.8221,-353.4429 217.2522,-348.6134 206.8687,-346.5081 207.8221,-353.4429"/>
</g>
<!-- Node23&#45;&gt;Node2 -->
<g id="edge38" class="edge">
<title>Node23&#45;&gt;Node2</title>
<path fill="none" stroke="#191970" d="M82.8446,-504.3366C85.4245,-481.6493 94.9189,-424.4497 126.9595,-392 148.4794,-370.2053 181.426,-358.5575 207.3563,-352.4414"/>
<polygon fill="#191970" stroke="#191970" points="208.2398,-355.8312 217.2685,-350.2875 206.7533,-348.9909 208.2398,-355.8312"/>
</g>
<!-- Node24&#45;&gt;Node2 -->
<g id="edge41" class="edge">
<title>Node24&#45;&gt;Node2</title>
<path fill="none" stroke="#191970" d="M320.1144,-448.4962C307.8576,-440.0693 290.6389,-426.8244 278.9595,-412 267.7813,-397.8118 259.1662,-379.0842 253.7056,-365.2034"/>
<polygon fill="#191970" stroke="#191970" points="256.9304,-363.8338 250.1546,-355.6889 250.3722,-366.2815 256.9304,-363.8338"/>
</g>
<!-- Node24&#45;&gt;Node19 -->
<g id="edge42" class="edge">
<title>Node24&#45;&gt;Node19</title>
<path fill="none" stroke="#191970" d="M350.9846,-448.2455C365.1003,-439.6534 385.8858,-427.0014 402.1494,-417.1018"/>
<polygon fill="#191970" stroke="#191970" points="404.3958,-419.8319 411.1179,-411.6427 400.7561,-413.8525 404.3958,-419.8319"/>
</g>
</g>
</svg>
