<?xml version="1.0" encoding="UTF-8" standalone="no"?>
<!DOCTYPE svg PUBLIC "-//W3C//DTD SVG 1.1//EN"
 "http://www.w3.org/Graphics/SVG/1.1/DTD/svg11.dtd">
<!-- Generated by graphviz version 2.41.20170323.1842 (20170323.1842)
 -->
<!-- Title: include/driver/spi.h Pages: 1 -->
<svg width="308pt" height="84pt"
 viewBox="0.00 0.00 307.50 84.00" xmlns="http://www.w3.org/2000/svg" xmlns:xlink="http://www.w3.org/1999/xlink">
<g id="graph0" class="graph" transform="scale(1 1) rotate(0) translate(4 80)">
<title>include/driver/spi.h</title>
<polygon fill="#ffffff" stroke="transparent" points="-4,4 -4,-80 303.5,-80 303.5,4 -4,4"/>
<!-- Node0 -->
<g id="node1" class="node">
<title>Node0</title>
<polygon fill="#bfbfbf" stroke="#000000" points="110.5,-56.5 110.5,-75.5 210.5,-75.5 210.5,-56.5 110.5,-56.5"/>
<text text-anchor="middle" x="160.5" y="-63.5" font-family="Helvetica,sans-Serif" font-size="10.00" fill="#000000">include/driver/spi.h</text>
</g>
<!-- Node1 -->
<g id="node2" class="node">
<title>Node1</title>
<g id="a_node2"><a xlink:href="spi__register_8h.html" target="_top" xlink:title="spi_register.h">
<polygon fill="#ffffff" stroke="#000000" points="0,-.5 0,-19.5 77,-19.5 77,-.5 0,-.5"/>
<text text-anchor="middle" x="38.5" y="-7.5" font-family="Helvetica,sans-Serif" font-size="10.00" fill="#000000">spi_register.h</text>
</a>
</g>
</g>
<!-- Node0&#45;&gt;Node1 -->
<g id="edge1" class="edge">
<title>Node0&#45;&gt;Node1</title>
<path fill="none" stroke="#191970" d="M139.5275,-56.3733C119.9433,-47.3838 90.5039,-33.8706 68.449,-23.7471"/>
<polygon fill="#191970" stroke="#191970" points="69.7473,-20.4919 59.1989,-19.5011 66.8271,-26.8538 69.7473,-20.4919"/>
</g>
<!-- Node2 -->
<g id="node3" class="node">
<title>Node2</title>
<polygon fill="#ffffff" stroke="#bfbfbf" points="95,-.5 95,-19.5 154,-19.5 154,-.5 95,-.5"/>
<text text-anchor="middle" x="124.5" y="-7.5" font-family="Helvetica,sans-Serif" font-size="10.00" fill="#000000">ets_sys.h</text>
</g>
<!-- Node0&#45;&gt;Node2 -->
<g id="edge2" class="edge">
<title>Node0&#45;&gt;Node2</title>
<path fill="none" stroke="#191970" d="M154.2293,-56.2455C149.2736,-48.5367 142.217,-37.5598 136.2224,-28.2348"/>
<polygon fill="#191970" stroke="#191970" points="139.0506,-26.1618 130.6989,-19.6427 133.1624,-29.9471 139.0506,-26.1618"/>
</g>
<!-- Node3 -->
<g id="node4" class="node">
<title>Node3</title>
<polygon fill="#ffffff" stroke="#bfbfbf" points="172,-.5 172,-19.5 221,-19.5 221,-.5 172,-.5"/>
<text text-anchor="middle" x="196.5" y="-7.5" font-family="Helvetica,sans-Serif" font-size="10.00" fill="#000000">osapi.h</text>
</g>
<!-- Node0&#45;&gt;Node3 -->
<g id="edge3" class="edge">
<title>Node0&#45;&gt;Node3</title>
<path fill="none" stroke="#191970" d="M166.7707,-56.2455C171.7264,-48.5367 178.783,-37.5598 184.7776,-28.2348"/>
<polygon fill="#191970" stroke="#191970" points="187.8376,-29.9471 190.3011,-19.6427 181.9494,-26.1618 187.8376,-29.9471"/>
</g>
<!-- Node4 -->
<g id="node5" class="node">
<title>Node4</title>
<polygon fill="#ffffff" stroke="#bfbfbf" points="239.5,-.5 239.5,-19.5 299.5,-19.5 299.5,-.5 239.5,-.5"/>
<text text-anchor="middle" x="269.5" y="-7.5" font-family="Helvetica,sans-Serif" font-size="10.00" fill="#000000">os_type.h</text>
</g>
<!-- Node0&#45;&gt;Node4 -->
<g id="edge4" class="edge">
<title>Node0&#45;&gt;Node4</title>
<path fill="none" stroke="#191970" d="M179.4864,-56.2455C196.6792,-47.4125 222.2238,-34.2887 241.7132,-24.2758"/>
<polygon fill="#191970" stroke="#191970" points="243.4359,-27.3257 250.7312,-19.6427 240.237,-21.0993 243.4359,-27.3257"/>
</g>
</g>
</svg>
