<?xml version="1.0" encoding="UTF-8" standalone="no"?>
<!DOCTYPE svg PUBLIC "-//W3C//DTD SVG 1.1//EN"
 "http://www.w3.org/Graphics/SVG/1.1/DTD/svg11.dtd">
<!-- Generated by graphviz version 2.40.1 (20161225.0304)
 -->
<!-- Title: spi_transaction Pages: 1 -->
<svg width="1075pt" height="199pt"
 viewBox="0.00 0.00 1075.00 199.00" xmlns="http://www.w3.org/2000/svg" xmlns:xlink="http://www.w3.org/1999/xlink">
<g id="graph0" class="graph" transform="scale(1 1) rotate(0) translate(4 195)">
<title>spi_transaction</title>
<polygon fill="#ffffff" stroke="transparent" points="-4,4 -4,-195 1071,-195 1071,4 -4,4"/>
<!-- Node21 -->
<g id="node1" class="node">
<title>Node21</title>
<polygon fill="#bfbfbf" stroke="#000000" points="0,-85.5 0,-104.5 84,-104.5 84,-85.5 0,-85.5"/>
<text text-anchor="middle" x="42" y="-92.5" font-family="Helvetica,sans-Serif" font-size="10.00" fill="#000000">spi_transaction</text>
</g>
<!-- Node22 -->
<g id="node2" class="node">
<title>Node22</title>
<g id="a_node2"><a xlink:href="ext__spi__flash_8h.html#ab4369189179b556a6b8e2155433c5f70" target="_top" xlink:title="ext_spi_flash_erase\l_sector">
<polygon fill="#ffffff" stroke="#000000" points="120,-143 120,-173 225,-173 225,-143 120,-143"/>
<text text-anchor="start" x="128" y="-161" font-family="Helvetica,sans-Serif" font-size="10.00" fill="#000000">ext_spi_flash_erase</text>
<text text-anchor="middle" x="172.5" y="-150" font-family="Helvetica,sans-Serif" font-size="10.00" fill="#000000">_sector</text>
</a>
</g>
</g>
<!-- Node21&#45;&gt;Node22 -->
<g id="edge1" class="edge">
<title>Node21&#45;&gt;Node22</title>
<path fill="none" stroke="#191970" d="M70.6482,-109.0324C85.381,-116.2297 103.6353,-125.1176 120,-133 126.7304,-136.2419 133.9565,-139.6984 140.8294,-142.9747"/>
<polygon fill="#191970" stroke="#191970" points="72.0515,-105.8226 61.5304,-104.5745 68.9768,-112.1113 72.0515,-105.8226"/>
</g>
<!-- Node35 -->
<g id="node15" class="node">
<title>Node35</title>
<g id="a_node15"><a xlink:href="ext__spi__flash_8h.html#a03be11e520e50ac108d9b74a09b25eaf" target="_top" xlink:title="ext_spi_flash_id">
<polygon fill="#ffffff" stroke="#000000" points="128.5,-19.5 128.5,-38.5 216.5,-38.5 216.5,-19.5 128.5,-19.5"/>
<text text-anchor="middle" x="172.5" y="-26.5" font-family="Helvetica,sans-Serif" font-size="10.00" fill="#000000">ext_spi_flash_id</text>
</a>
</g>
</g>
<!-- Node21&#45;&gt;Node35 -->
<g id="edge16" class="edge">
<title>Node21&#45;&gt;Node35</title>
<path fill="none" stroke="#191970" d="M70.0351,-80.8213C95.2322,-68.0779 131.5522,-49.7092 153.5013,-38.6085"/>
<polygon fill="#191970" stroke="#191970" points="68.3199,-77.7666 60.9758,-85.403 71.4791,-84.0131 68.3199,-77.7666"/>
</g>
<!-- Node37 -->
<g id="node17" class="node">
<title>Node37</title>
<g id="a_node17"><a xlink:href="ext__spi__flash_8h.html#a094d4588aff8210b1bb94ae90fb58526" target="_top" xlink:title="ext_spi_flash_read">
<polygon fill="#ffffff" stroke="#000000" points="122.5,-66.5 122.5,-85.5 222.5,-85.5 222.5,-66.5 122.5,-66.5"/>
<text text-anchor="middle" x="172.5" y="-73.5" font-family="Helvetica,sans-Serif" font-size="10.00" fill="#000000">ext_spi_flash_read</text>
</a>
</g>
</g>
<!-- Node21&#45;&gt;Node37 -->
<g id="edge18" class="edge">
<title>Node21&#45;&gt;Node37</title>
<path fill="none" stroke="#191970" d="M93.9732,-87.433C103.3286,-86.0709 113.0642,-84.6535 122.3661,-83.2992"/>
<polygon fill="#191970" stroke="#191970" points="93.4007,-83.9794 84.0094,-88.8837 94.4093,-90.9063 93.4007,-83.9794"/>
</g>
<!-- Node39 -->
<g id="node19" class="node">
<title>Node39</title>
<g id="a_node19"><a xlink:href="ext__spi__flash_8h.html#a17e27ce44dd5aec4dd7a7de609093aae" target="_top" xlink:title="ext_spi_flash_write">
<polygon fill="#ffffff" stroke="#000000" points="121.5,-104.5 121.5,-123.5 223.5,-123.5 223.5,-104.5 121.5,-104.5"/>
<text text-anchor="middle" x="172.5" y="-111.5" font-family="Helvetica,sans-Serif" font-size="10.00" fill="#000000">ext_spi_flash_write</text>
</a>
</g>
</g>
<!-- Node21&#45;&gt;Node39 -->
<g id="edge22" class="edge">
<title>Node21&#45;&gt;Node39</title>
<path fill="none" stroke="#191970" d="M94.0169,-102.5733C103.0481,-103.8882 112.4324,-105.2545 121.4378,-106.5657"/>
<polygon fill="#191970" stroke="#191970" points="94.4093,-99.0937 84.0094,-101.1163 93.4007,-106.0206 94.4093,-99.0937"/>
</g>
<!-- Node23 -->
<g id="node3" class="node">
<title>Node23</title>
<g id="a_node3"><a xlink:href="config_8h.html#acd3c633ba5f49d7bb46d6e4efa31ddb2" target="_top" xlink:title="cfg_save">
<polygon fill="#ffffff" stroke="#000000" points="293.5,-114.5 293.5,-133.5 350.5,-133.5 350.5,-114.5 293.5,-114.5"/>
<text text-anchor="middle" x="322" y="-121.5" font-family="Helvetica,sans-Serif" font-size="10.00" fill="#000000">cfg_save</text>
</a>
</g>
</g>
<!-- Node22&#45;&gt;Node23 -->
<g id="edge2" class="edge">
<title>Node22&#45;&gt;Node23</title>
<path fill="none" stroke="#191970" d="M235.0071,-143.7843C255.2238,-139.1866 276.6687,-134.3095 293.2081,-130.548"/>
<polygon fill="#191970" stroke="#191970" points="234.1829,-140.3823 225.2081,-146.0129 235.7353,-147.208 234.1829,-140.3823"/>
</g>
<!-- Node24 -->
<g id="node4" class="node">
<title>Node24</title>
<g id="a_node4"><a xlink:href="config_8h.html#a92adb6c5103eed30e16185a9cd233e51" target="_top" xlink:title="cfg_load">
<polygon fill="#ffffff" stroke="#000000" points="453,-76.5 453,-95.5 507,-95.5 507,-76.5 453,-76.5"/>
<text text-anchor="middle" x="480" y="-83.5" font-family="Helvetica,sans-Serif" font-size="10.00" fill="#000000">cfg_load</text>
</a>
</g>
</g>
<!-- Node23&#45;&gt;Node24 -->
<g id="edge3" class="edge">
<title>Node23&#45;&gt;Node24</title>
<path fill="none" stroke="#191970" d="M360.6737,-114.6987C389.2792,-107.8189 427.5233,-98.621 452.9195,-92.513"/>
<polygon fill="#191970" stroke="#191970" points="359.5169,-111.3771 350.6126,-117.1185 361.1538,-118.183 359.5169,-111.3771"/>
</g>
<!-- Node26 -->
<g id="node6" class="node">
<title>Node26</title>
<g id="a_node6"><a xlink:href="config_8h.html#a1e0d59e84f6bbc2564bcdf595b6972da" target="_top" xlink:title="config_save_timer_func">
<polygon fill="#ffffff" stroke="#000000" points="419,-114.5 419,-133.5 541,-133.5 541,-114.5 419,-114.5"/>
<text text-anchor="middle" x="480" y="-121.5" font-family="Helvetica,sans-Serif" font-size="10.00" fill="#000000">config_save_timer_func</text>
</a>
</g>
</g>
<!-- Node23&#45;&gt;Node26 -->
<g id="edge5" class="edge">
<title>Node23&#45;&gt;Node26</title>
<path fill="none" stroke="#191970" d="M360.9733,-124C378.4208,-124 399.4082,-124 418.8689,-124"/>
<polygon fill="#191970" stroke="#191970" points="360.6126,-120.5001 350.6126,-124 360.6126,-127.5001 360.6126,-120.5001"/>
</g>
<!-- Node34 -->
<g id="node14" class="node">
<title>Node34</title>
<g id="a_node14"><a xlink:href="cgiwifi_8h.html#a7c655a56f56ecebad923c5c4daeb7f1a" target="_top" xlink:title="cgiSetup">
<polygon fill="#ffffff" stroke="#000000" points="452.5,-170.5 452.5,-189.5 507.5,-189.5 507.5,-170.5 452.5,-170.5"/>
<text text-anchor="middle" x="480" y="-177.5" font-family="Helvetica,sans-Serif" font-size="10.00" fill="#000000">cgiSetup</text>
</a>
</g>
</g>
<!-- Node23&#45;&gt;Node34 -->
<g id="edge15" class="edge">
<title>Node23&#45;&gt;Node34</title>
<path fill="none" stroke="#191970" d="M355.2773,-137.2829C373.9123,-144.5722 397.632,-153.6049 419,-161 429.7966,-164.7365 441.78,-168.542 452.2475,-171.7561"/>
<polygon fill="#191970" stroke="#191970" points="356.3529,-133.945 345.7657,-133.5412 353.7903,-140.4591 356.3529,-133.945"/>
</g>
<!-- Node25 -->
<g id="node5" class="node">
<title>Node25</title>
<g id="a_node5"><a xlink:href="cgiwifi_8h.html#ace460e5ac8fd74afa8616bfc82561b26" target="_top" xlink:title="tplSetup">
<polygon fill="#ffffff" stroke="#000000" points="598.5,-76.5 598.5,-95.5 651.5,-95.5 651.5,-76.5 598.5,-76.5"/>
<text text-anchor="middle" x="625" y="-83.5" font-family="Helvetica,sans-Serif" font-size="10.00" fill="#000000">tplSetup</text>
</a>
</g>
</g>
<!-- Node24&#45;&gt;Node25 -->
<g id="edge4" class="edge">
<title>Node24&#45;&gt;Node25</title>
<path fill="none" stroke="#191970" d="M517.2763,-86C542.6359,-86 575.5911,-86 598.3388,-86"/>
<polygon fill="#191970" stroke="#191970" points="517.2734,-82.5001 507.2734,-86 517.2734,-89.5001 517.2734,-82.5001"/>
</g>
<!-- Node26&#45;&gt;Node26 -->
<g id="edge14" class="edge">
<title>Node26&#45;&gt;Node26</title>
<path fill="none" stroke="#191970" d="M453.1208,-142.6539C454.2444,-147.9368 463.2041,-152 480,-152 505.5938,-152 512.9919,-142.5653 502.1946,-133.7571"/>
<polygon fill="#191970" stroke="#191970" points="456.2433,-144.2361 457.8054,-133.7571 450.0494,-140.9747 456.2433,-144.2361"/>
</g>
<!-- Node27 -->
<g id="node7" class="node">
<title>Node27</title>
<g id="a_node7"><a xlink:href="config_8h.html#ab4af9f95b39f096bb0fa8d73eb5a342e" target="_top" xlink:title="cfg_save_defered">
<polygon fill="#ffffff" stroke="#000000" points="577,-114.5 577,-133.5 673,-133.5 673,-114.5 577,-114.5"/>
<text text-anchor="middle" x="625" y="-121.5" font-family="Helvetica,sans-Serif" font-size="10.00" fill="#000000">cfg_save_defered</text>
</a>
</g>
</g>
<!-- Node26&#45;&gt;Node27 -->
<g id="edge6" class="edge">
<title>Node26&#45;&gt;Node27</title>
<path fill="none" stroke="#191970" d="M551.2003,-124C559.8623,-124 568.5492,-124 576.7659,-124"/>
<polygon fill="#191970" stroke="#191970" points="551.0728,-120.5001 541.0728,-124 551.0728,-127.5001 551.0728,-120.5001"/>
</g>
<!-- Node28 -->
<g id="node8" class="node">
<title>Node28</title>
<g id="a_node8"><a xlink:href="ac__out_8h.html#a1573f96ac038a6a1b29a6f21403a2341" target="_top" xlink:title="ac_thermo_open">
<polygon fill="#ffffff" stroke="#000000" points="729.5,-171.5 729.5,-190.5 821.5,-190.5 821.5,-171.5 729.5,-171.5"/>
<text text-anchor="middle" x="775.5" y="-178.5" font-family="Helvetica,sans-Serif" font-size="10.00" fill="#000000">ac_thermo_open</text>
</a>
</g>
</g>
<!-- Node27&#45;&gt;Node28 -->
<g id="edge7" class="edge">
<title>Node27&#45;&gt;Node28</title>
<path fill="none" stroke="#191970" d="M653.3843,-138.0952C669.4621,-145.7594 690.0846,-155.0618 709,-162 718.4691,-165.4733 728.8839,-168.7129 738.6042,-171.4982"/>
<polygon fill="#191970" stroke="#191970" points="654.5438,-134.7684 644.0168,-133.5707 651.4992,-141.0716 654.5438,-134.7684"/>
</g>
<!-- Node31 -->
<g id="node11" class="node">
<title>Node31</title>
<g id="a_node11"><a xlink:href="ac__out_8h.html#a3bc674b019d5e2e4d15e7abe7c69029f" target="_top" xlink:title="ac_thermo_close">
<polygon fill="#ffffff" stroke="#000000" points="729,-133.5 729,-152.5 822,-152.5 822,-133.5 729,-133.5"/>
<text text-anchor="middle" x="775.5" y="-140.5" font-family="Helvetica,sans-Serif" font-size="10.00" fill="#000000">ac_thermo_close</text>
</a>
</g>
</g>
<!-- Node27&#45;&gt;Node31 -->
<g id="edge10" class="edge">
<title>Node27&#45;&gt;Node31</title>
<path fill="none" stroke="#191970" d="M683.316,-131.3621C698.4377,-133.2712 714.5218,-135.3018 728.9501,-137.1233"/>
<polygon fill="#191970" stroke="#191970" points="683.3926,-127.8441 673.0329,-130.064 682.5158,-134.789 683.3926,-127.8441"/>
</g>
<!-- Node32 -->
<g id="node12" class="node">
<title>Node32</title>
<g id="a_node12"><a xlink:href="cron_8h.html#abede8d12ed6e5d5f3412eda37b325d03" target="_top" xlink:title="add_cron_job_from_query">
<polygon fill="#ffffff" stroke="#000000" points="709,-95.5 709,-114.5 842,-114.5 842,-95.5 709,-95.5"/>
<text text-anchor="middle" x="775.5" y="-102.5" font-family="Helvetica,sans-Serif" font-size="10.00" fill="#000000">add_cron_job_from_query</text>
</a>
</g>
</g>
<!-- Node27&#45;&gt;Node32 -->
<g id="edge12" class="edge">
<title>Node27&#45;&gt;Node32</title>
<path fill="none" stroke="#191970" d="M683.1671,-116.6566C691.6241,-115.589 700.385,-114.483 708.9914,-113.3964"/>
<polygon fill="#191970" stroke="#191970" points="682.5158,-113.211 673.0329,-117.936 683.3926,-120.1559 682.5158,-113.211"/>
</g>
<!-- Node33 -->
<g id="node13" class="node">
<title>Node33</title>
<g id="a_node13"><a xlink:href="cron_8h.html#ad014b7bf4eab144ea9fc5669d896714b" target="_top" xlink:title="clear_cron_jobs">
<polygon fill="#ffffff" stroke="#000000" points="732,-57.5 732,-76.5 819,-76.5 819,-57.5 732,-57.5"/>
<text text-anchor="middle" x="775.5" y="-64.5" font-family="Helvetica,sans-Serif" font-size="10.00" fill="#000000">clear_cron_jobs</text>
</a>
</g>
</g>
<!-- Node27&#45;&gt;Node33 -->
<g id="edge13" class="edge">
<title>Node27&#45;&gt;Node33</title>
<path fill="none" stroke="#191970" d="M660.0882,-110.6241C664.4663,-108.8049 668.8579,-106.906 673,-105 689.4352,-97.4373 692.2121,-92.7435 709,-86 717.9135,-82.4196 727.7502,-79.2214 737.0626,-76.5163"/>
<polygon fill="#191970" stroke="#191970" points="658.5846,-107.4567 650.6269,-114.4514 661.2097,-113.9459 658.5846,-107.4567"/>
</g>
<!-- Node29 -->
<g id="node9" class="node">
<title>Node29</title>
<g id="a_node9"><a xlink:href="cron_8c.html#a2782af03df9b913cfa565a0770e1afe1" target="_top" xlink:title="minute_timer_func">
<polygon fill="#ffffff" stroke="#000000" points="878,-152.5 878,-171.5 977,-171.5 977,-152.5 878,-152.5"/>
<text text-anchor="middle" x="927.5" y="-159.5" font-family="Helvetica,sans-Serif" font-size="10.00" fill="#000000">minute_timer_func</text>
</a>
</g>
</g>
<!-- Node28&#45;&gt;Node29 -->
<g id="edge8" class="edge">
<title>Node28&#45;&gt;Node29</title>
<path fill="none" stroke="#191970" d="M831.7881,-173.964C846.929,-172.0714 863.1911,-170.0386 877.9366,-168.1954"/>
<polygon fill="#191970" stroke="#191970" points="831.0061,-170.5344 821.5175,-175.2478 831.8744,-177.4804 831.0061,-170.5344"/>
</g>
<!-- Node30 -->
<g id="node10" class="node">
<title>Node30</title>
<g id="a_node10"><a xlink:href="cron_8h.html#ae130c5973bad35b56776750c7a34db12" target="_top" xlink:title="cron_init">
<polygon fill="#ffffff" stroke="#000000" points="1013,-152.5 1013,-171.5 1067,-171.5 1067,-152.5 1013,-152.5"/>
<text text-anchor="middle" x="1040" y="-159.5" font-family="Helvetica,sans-Serif" font-size="10.00" fill="#000000">cron_init</text>
</a>
</g>
</g>
<!-- Node29&#45;&gt;Node30 -->
<g id="edge9" class="edge">
<title>Node29&#45;&gt;Node30</title>
<path fill="none" stroke="#191970" d="M987.2611,-162C996.1957,-162 1005.0117,-162 1012.8028,-162"/>
<polygon fill="#191970" stroke="#191970" points="987.1716,-158.5001 977.1716,-162 987.1716,-165.5001 987.1716,-158.5001"/>
</g>
<!-- Node31&#45;&gt;Node29 -->
<g id="edge11" class="edge">
<title>Node31&#45;&gt;Node29</title>
<path fill="none" stroke="#191970" d="M832.4857,-150.1232C847.4191,-151.9899 863.3992,-153.9874 877.9119,-155.8015"/>
<polygon fill="#191970" stroke="#191970" points="832.7022,-146.6231 822.3453,-148.8557 831.8339,-153.5691 832.7022,-146.6231"/>
</g>
<!-- Node36 -->
<g id="node16" class="node">
<title>Node36</title>
<g id="a_node16"><a xlink:href="ext__spi__flash_8h.html#a292607e88dd8cb8213d0bad78679210d" target="_top" xlink:title="ext_spi_init">
<polygon fill="#ffffff" stroke="#000000" points="288.5,-.5 288.5,-19.5 355.5,-19.5 355.5,-.5 288.5,-.5"/>
<text text-anchor="middle" x="322" y="-7.5" font-family="Helvetica,sans-Serif" font-size="10.00" fill="#000000">ext_spi_init</text>
</a>
</g>
</g>
<!-- Node35&#45;&gt;Node36 -->
<g id="edge17" class="edge">
<title>Node35&#45;&gt;Node36</title>
<path fill="none" stroke="#191970" d="M226.7389,-22.1068C247.293,-19.4945 270.0898,-16.5973 288.2279,-14.2921"/>
<polygon fill="#191970" stroke="#191970" points="226.0252,-18.6692 216.5463,-23.4021 226.9078,-25.6134 226.0252,-18.6692"/>
</g>
<!-- Node37&#45;&gt;Node23 -->
<g id="edge20" class="edge">
<title>Node37&#45;&gt;Node23</title>
<path fill="none" stroke="#191970" d="M212.1635,-88.7348C237.7338,-96.9446 270.3891,-107.4293 293.4256,-114.8256"/>
<polygon fill="#191970" stroke="#191970" points="212.9855,-85.3228 202.3942,-85.5982 210.8456,-91.9877 212.9855,-85.3228"/>
</g>
<!-- Node37&#45;&gt;Node24 -->
<g id="edge19" class="edge">
<title>Node37&#45;&gt;Node24</title>
<path fill="none" stroke="#191970" d="M232.9485,-77.9658C299.5933,-80.1331 403.8482,-83.5235 452.84,-85.1167"/>
<polygon fill="#191970" stroke="#191970" points="232.6981,-74.4559 222.5896,-77.6289 232.4705,-81.4522 232.6981,-74.4559"/>
</g>
<!-- Node38 -->
<g id="node18" class="node">
<title>Node38</title>
<g id="a_node18"><a xlink:href="ext__spi__flash_8h.html#a5ca58d3e387ebe3e9e6169caf3845d65" target="_top" xlink:title="ext_spi_flash_hexdump">
<polygon fill="#ffffff" stroke="#000000" points="261,-38.5 261,-57.5 383,-57.5 383,-38.5 261,-38.5"/>
<text text-anchor="middle" x="322" y="-45.5" font-family="Helvetica,sans-Serif" font-size="10.00" fill="#000000">ext_spi_flash_hexdump</text>
</a>
</g>
</g>
<!-- Node37&#45;&gt;Node38 -->
<g id="edge21" class="edge">
<title>Node37&#45;&gt;Node38</title>
<path fill="none" stroke="#191970" d="M232.759,-64.714C245.4983,-62.3281 258.8215,-59.8328 271.171,-57.5198"/>
<polygon fill="#191970" stroke="#191970" points="231.882,-61.3173 222.6972,-66.5985 233.1707,-68.1977 231.882,-61.3173"/>
</g>
<!-- Node39&#45;&gt;Node23 -->
<g id="edge23" class="edge">
<title>Node39&#45;&gt;Node23</title>
<path fill="none" stroke="#191970" d="M233.5556,-118.084C254.2727,-119.4697 276.443,-120.9527 293.4042,-122.0872"/>
<polygon fill="#191970" stroke="#191970" points="233.7426,-114.5888 223.5313,-117.4135 233.2754,-121.5732 233.7426,-114.5888"/>
</g>
</g>
</svg>
