<?xml version="1.0" encoding="UTF-8" standalone="no"?>
<!DOCTYPE svg PUBLIC "-//W3C//DTD SVG 1.1//EN"
 "http://www.w3.org/Graphics/SVG/1.1/DTD/svg11.dtd">
<!-- Generated by graphviz version 2.40.1 (20161225.0304)
 -->
<!-- Title: spi_tx_byte_order Pages: 1 -->
<svg width="207pt" height="66pt"
 viewBox="0.00 0.00 207.00 66.00" xmlns="http://www.w3.org/2000/svg" xmlns:xlink="http://www.w3.org/1999/xlink">
<g id="graph0" class="graph" transform="scale(1 1) rotate(0) translate(4 62)">
<title>spi_tx_byte_order</title>
<polygon fill="#ffffff" stroke="transparent" points="-4,4 -4,-62 203,-62 203,4 -4,4"/>
<!-- Node41 -->
<g id="node1" class="node">
<title>Node41</title>
<polygon fill="#bfbfbf" stroke="#000000" points="0,-19.5 0,-38.5 96,-38.5 96,-19.5 0,-19.5"/>
<text text-anchor="middle" x="48" y="-26.5" font-family="Helvetica,sans-Serif" font-size="10.00" fill="#000000">spi_tx_byte_order</text>
</g>
<!-- Node42 -->
<g id="node2" class="node">
<title>Node42</title>
<g id="a_node2"><a xlink:href="ext__spi__flash_8h.html#a292607e88dd8cb8213d0bad78679210d" target="_top" xlink:title="ext_spi_init">
<polygon fill="#ffffff" stroke="#000000" points="132,-38.5 132,-57.5 199,-57.5 199,-38.5 132,-38.5"/>
<text text-anchor="middle" x="165.5" y="-45.5" font-family="Helvetica,sans-Serif" font-size="10.00" fill="#000000">ext_spi_init</text>
</a>
</g>
</g>
<!-- Node41&#45;&gt;Node42 -->
<g id="edge1" class="edge">
<title>Node41&#45;&gt;Node42</title>
<path fill="none" stroke="#191970" d="M106.1036,-38.3955C114.9824,-39.8312 123.8808,-41.2701 131.9877,-42.581"/>
<polygon fill="#191970" stroke="#191970" points="106.5613,-34.9241 96.1308,-36.7828 105.4438,-41.8343 106.5613,-34.9241"/>
</g>
<!-- Node43 -->
<g id="node3" class="node">
<title>Node43</title>
<g id="a_node3"><a xlink:href="spi_8h.html#ab1b1ee052705fb788f5f312bb5dff9b3" target="_top" xlink:title="spi_init">
<polygon fill="#ffffff" stroke="#000000" points="141.5,-.5 141.5,-19.5 189.5,-19.5 189.5,-.5 141.5,-.5"/>
<text text-anchor="middle" x="165.5" y="-7.5" font-family="Helvetica,sans-Serif" font-size="10.00" fill="#000000">spi_init</text>
</a>
</g>
</g>
<!-- Node41&#45;&gt;Node43 -->
<g id="edge2" class="edge">
<title>Node41&#45;&gt;Node43</title>
<path fill="none" stroke="#191970" d="M106.0915,-19.6065C118.5761,-17.5877 131.1002,-15.5625 141.4086,-13.8956"/>
<polygon fill="#191970" stroke="#191970" points="105.4438,-16.1657 96.1308,-21.2172 106.5613,-23.0759 105.4438,-16.1657"/>
</g>
</g>
</svg>
