<?xml version="1.0" encoding="UTF-8" standalone="no"?>
<!DOCTYPE svg PUBLIC "-//W3C//DTD SVG 1.1//EN"
 "http://www.w3.org/Graphics/SVG/1.1/DTD/svg11.dtd">
<!-- Generated by graphviz version 2.41.20170323.1842 (20170323.1842)
 -->
<!-- Title: esp&#45;open&#45;lwip/include/lwip/stats.h Pages: 1 -->
<svg width="348pt" height="487pt"
 viewBox="0.00 0.00 348.00 487.00" xmlns="http://www.w3.org/2000/svg" xmlns:xlink="http://www.w3.org/1999/xlink">
<g id="graph0" class="graph" transform="scale(1 1) rotate(0) translate(4 483)">
<title>esp&#45;open&#45;lwip/include/lwip/stats.h</title>
<polygon fill="#ffffff" stroke="transparent" points="-4,4 -4,-483 344,-483 344,4 -4,4"/>
<!-- Node0 -->
<g id="node1" class="node">
<title>Node0</title>
<polygon fill="#bfbfbf" stroke="#000000" points="34,-448.5 34,-478.5 147,-478.5 147,-448.5 34,-448.5"/>
<text text-anchor="start" x="42" y="-466.5" font-family="Helvetica,sans-Serif" font-size="10.00" fill="#000000">esp&#45;open&#45;lwip/include</text>
<text text-anchor="middle" x="90.5" y="-455.5" font-family="Helvetica,sans-Serif" font-size="10.00" fill="#000000">/lwip/stats.h</text>
</g>
<!-- Node1 -->
<g id="node2" class="node">
<title>Node1</title>
<g id="a_node2"><a xlink:href="opt_8h.html" target="_top" xlink:title="lwip/opt.h">
<polygon fill="#ffffff" stroke="#000000" points="58,-336.5 58,-355.5 117,-355.5 117,-336.5 58,-336.5"/>
<text text-anchor="middle" x="87.5" y="-343.5" font-family="Helvetica,sans-Serif" font-size="10.00" fill="#000000">lwip/opt.h</text>
</a>
</g>
</g>
<!-- Node0&#45;&gt;Node1 -->
<g id="edge1" class="edge">
<title>Node0&#45;&gt;Node1</title>
<path fill="none" stroke="#191970" d="M72.8116,-448.2622C63.3322,-438.8913 52.5822,-426.0163 47.5,-412 40.9332,-393.8893 54.3607,-375.3028 67.3945,-362.4878"/>
<polygon fill="#191970" stroke="#191970" points="69.8485,-364.9866 74.869,-355.6568 65.1261,-359.8194 69.8485,-364.9866"/>
</g>
<!-- Node14 -->
<g id="node15" class="node">
<title>Node14</title>
<g id="a_node15"><a xlink:href="esp-open-lwip_2include_2lwip_2mem_8h.html" target="_top" xlink:title="lwip/mem.h">
<polygon fill="#ffffff" stroke="#000000" points="57,-392.5 57,-411.5 124,-411.5 124,-392.5 57,-392.5"/>
<text text-anchor="middle" x="90.5" y="-399.5" font-family="Helvetica,sans-Serif" font-size="10.00" fill="#000000">lwip/mem.h</text>
</a>
</g>
</g>
<!-- Node0&#45;&gt;Node14 -->
<g id="edge15" class="edge">
<title>Node0&#45;&gt;Node14</title>
<path fill="none" stroke="#191970" d="M90.5,-448.2977C90.5,-440.3834 90.5,-430.6043 90.5,-422.0759"/>
<polygon fill="#191970" stroke="#191970" points="94.0001,-421.8469 90.5,-411.8469 87.0001,-421.847 94.0001,-421.8469"/>
</g>
<!-- Node15 -->
<g id="node16" class="node">
<title>Node15</title>
<g id="a_node16"><a xlink:href="memp_8h.html" target="_top" xlink:title="lwip/memp.h">
<polygon fill="#ffffff" stroke="#000000" points="142,-392.5 142,-411.5 215,-411.5 215,-392.5 142,-392.5"/>
<text text-anchor="middle" x="178.5" y="-399.5" font-family="Helvetica,sans-Serif" font-size="10.00" fill="#000000">lwip/memp.h</text>
</a>
</g>
</g>
<!-- Node0&#45;&gt;Node15 -->
<g id="edge17" class="edge">
<title>Node0&#45;&gt;Node15</title>
<path fill="none" stroke="#191970" d="M112.2528,-448.2977C125.6968,-438.9022 142.9011,-426.8787 156.4078,-417.4395"/>
<polygon fill="#191970" stroke="#191970" points="158.4811,-420.2605 164.6729,-411.6633 154.4712,-414.5228 158.4811,-420.2605"/>
</g>
<!-- Node2 -->
<g id="node3" class="node">
<title>Node2</title>
<g id="a_node3"><a xlink:href="lwipopts_8h.html" target="_top" xlink:title="lwipopts.h">
<polygon fill="#ffffff" stroke="#000000" points="15,-280.5 15,-299.5 76,-299.5 76,-280.5 15,-280.5"/>
<text text-anchor="middle" x="45.5" y="-287.5" font-family="Helvetica,sans-Serif" font-size="10.00" fill="#000000">lwipopts.h</text>
</a>
</g>
</g>
<!-- Node1&#45;&gt;Node2 -->
<g id="edge2" class="edge">
<title>Node1&#45;&gt;Node2</title>
<path fill="none" stroke="#191970" d="M80.1842,-336.2455C74.2821,-328.3761 65.8258,-317.101 58.7406,-307.6542"/>
<polygon fill="#191970" stroke="#191970" points="61.5321,-305.5427 52.732,-299.6427 55.932,-309.7427 61.5321,-305.5427"/>
</g>
<!-- Node3 -->
<g id="node4" class="node">
<title>Node3</title>
<g id="a_node4"><a xlink:href="esp-open-sdk_2esp-open-lwip_2include_2lwip_2debug_8h.html" target="_top" xlink:title="lwip/debug.h">
<polygon fill="#ffffff" stroke="#000000" points="94,-280.5 94,-299.5 167,-299.5 167,-280.5 94,-280.5"/>
<text text-anchor="middle" x="130.5" y="-287.5" font-family="Helvetica,sans-Serif" font-size="10.00" fill="#000000">lwip/debug.h</text>
</a>
</g>
</g>
<!-- Node1&#45;&gt;Node3 -->
<g id="edge3" class="edge">
<title>Node1&#45;&gt;Node3</title>
<path fill="none" stroke="#191970" d="M94.99,-336.2455C101.0326,-328.3761 109.6903,-317.101 116.9441,-307.6542"/>
<polygon fill="#191970" stroke="#191970" points="119.7815,-309.7058 123.0958,-299.6427 114.2295,-305.4426 119.7815,-309.7058"/>
</g>
<!-- Node4 -->
<g id="node5" class="node">
<title>Node4</title>
<g id="a_node5"><a xlink:href="arch_8h.html" target="_top" xlink:title="lwip/arch.h">
<polygon fill="#ffffff" stroke="#000000" points="98.5,-224.5 98.5,-243.5 162.5,-243.5 162.5,-224.5 98.5,-224.5"/>
<text text-anchor="middle" x="130.5" y="-231.5" font-family="Helvetica,sans-Serif" font-size="10.00" fill="#000000">lwip/arch.h</text>
</a>
</g>
</g>
<!-- Node3&#45;&gt;Node4 -->
<g id="edge4" class="edge">
<title>Node3&#45;&gt;Node4</title>
<path fill="none" stroke="#191970" d="M130.5,-280.2455C130.5,-272.9382 130.5,-262.6944 130.5,-253.7046"/>
<polygon fill="#191970" stroke="#191970" points="134.0001,-253.6426 130.5,-243.6427 127.0001,-253.6427 134.0001,-253.6426"/>
</g>
<!-- Node5 -->
<g id="node6" class="node">
<title>Node5</title>
<g id="a_node6"><a xlink:href="cc_8h.html" target="_top" xlink:title="arch/cc.h">
<polygon fill="#ffffff" stroke="#000000" points="102,-168.5 102,-187.5 159,-187.5 159,-168.5 102,-168.5"/>
<text text-anchor="middle" x="130.5" y="-175.5" font-family="Helvetica,sans-Serif" font-size="10.00" fill="#000000">arch/cc.h</text>
</a>
</g>
</g>
<!-- Node4&#45;&gt;Node5 -->
<g id="edge5" class="edge">
<title>Node4&#45;&gt;Node5</title>
<path fill="none" stroke="#191970" d="M130.5,-224.2455C130.5,-216.9382 130.5,-206.6944 130.5,-197.7046"/>
<polygon fill="#191970" stroke="#191970" points="134.0001,-197.6426 130.5,-187.6427 127.0001,-197.6427 134.0001,-197.6426"/>
</g>
<!-- Node6 -->
<g id="node7" class="node">
<title>Node6</title>
<g id="a_node7"><a xlink:href="c__types_8h.html" target="_top" xlink:title="c_types.h">
<polygon fill="#ffffff" stroke="#000000" points="30,-56.5 30,-75.5 89,-75.5 89,-56.5 30,-56.5"/>
<text text-anchor="middle" x="59.5" y="-63.5" font-family="Helvetica,sans-Serif" font-size="10.00" fill="#000000">c_types.h</text>
</a>
</g>
</g>
<!-- Node5&#45;&gt;Node6 -->
<g id="edge6" class="edge">
<title>Node5&#45;&gt;Node6</title>
<path fill="none" stroke="#191970" d="M121.3542,-168.2786C113.1864,-159.3 101.2028,-145.3693 92.5,-132 82.698,-116.9421 73.7314,-98.5739 67.6269,-85.0419"/>
<polygon fill="#191970" stroke="#191970" points="70.7796,-83.5166 63.5501,-75.7716 64.3719,-86.3346 70.7796,-83.5166"/>
</g>
<!-- Node9 -->
<g id="node10" class="node">
<title>Node9</title>
<g id="a_node10"><a xlink:href="ets__sys_8h.html" target="_top" xlink:title="ets_sys.h">
<polygon fill="#ffffff" stroke="#000000" points="101,-112.5 101,-131.5 160,-131.5 160,-112.5 101,-112.5"/>
<text text-anchor="middle" x="130.5" y="-119.5" font-family="Helvetica,sans-Serif" font-size="10.00" fill="#000000">ets_sys.h</text>
</a>
</g>
</g>
<!-- Node5&#45;&gt;Node9 -->
<g id="edge9" class="edge">
<title>Node5&#45;&gt;Node9</title>
<path fill="none" stroke="#191970" d="M130.5,-168.2455C130.5,-160.9382 130.5,-150.6944 130.5,-141.7046"/>
<polygon fill="#191970" stroke="#191970" points="134.0001,-141.6426 130.5,-131.6427 127.0001,-141.6427 134.0001,-141.6426"/>
</g>
<!-- Node11 -->
<g id="node12" class="node">
<title>Node11</title>
<g id="a_node12"><a xlink:href="osapi_8h.html" target="_top" xlink:title="osapi.h">
<polygon fill="#ffffff" stroke="#000000" points="196,-112.5 196,-131.5 245,-131.5 245,-112.5 196,-112.5"/>
<text text-anchor="middle" x="220.5" y="-119.5" font-family="Helvetica,sans-Serif" font-size="10.00" fill="#000000">osapi.h</text>
</a>
</g>
</g>
<!-- Node5&#45;&gt;Node11 -->
<g id="edge12" class="edge">
<title>Node5&#45;&gt;Node11</title>
<path fill="none" stroke="#191970" d="M146.1768,-168.2455C159.9856,-159.6534 180.3193,-147.0014 196.2292,-137.1018"/>
<polygon fill="#191970" stroke="#191970" points="198.3613,-139.8974 205.0028,-131.6427 194.6632,-133.954 198.3613,-139.8974"/>
</g>
<!-- Node7 -->
<g id="node8" class="node">
<title>Node7</title>
<polygon fill="#ffffff" stroke="#bfbfbf" points="0,-.5 0,-19.5 49,-19.5 49,-.5 0,-.5"/>
<text text-anchor="middle" x="24.5" y="-7.5" font-family="Helvetica,sans-Serif" font-size="10.00" fill="#000000">stdint.h</text>
</g>
<!-- Node6&#45;&gt;Node7 -->
<g id="edge7" class="edge">
<title>Node6&#45;&gt;Node7</title>
<path fill="none" stroke="#191970" d="M53.4035,-56.2455C48.5855,-48.5367 41.7249,-37.5598 35.8968,-28.2348"/>
<polygon fill="#191970" stroke="#191970" points="38.7947,-26.2677 30.5267,-19.6427 32.8587,-29.9777 38.7947,-26.2677"/>
</g>
<!-- Node8 -->
<g id="node9" class="node">
<title>Node8</title>
<polygon fill="#ffffff" stroke="#bfbfbf" points="67,-.5 67,-19.5 124,-19.5 124,-.5 67,-.5"/>
<text text-anchor="middle" x="95.5" y="-7.5" font-family="Helvetica,sans-Serif" font-size="10.00" fill="#000000">stdbool.h</text>
</g>
<!-- Node6&#45;&gt;Node8 -->
<g id="edge8" class="edge">
<title>Node6&#45;&gt;Node8</title>
<path fill="none" stroke="#191970" d="M65.7707,-56.2455C70.7264,-48.5367 77.783,-37.5598 83.7776,-28.2348"/>
<polygon fill="#191970" stroke="#191970" points="86.8376,-29.9471 89.3011,-19.6427 80.9494,-26.1618 86.8376,-29.9471"/>
</g>
<!-- Node9&#45;&gt;Node6 -->
<g id="edge10" class="edge">
<title>Node9&#45;&gt;Node6</title>
<path fill="none" stroke="#191970" d="M118.1327,-112.2455C107.5446,-103.8943 92.0936,-91.7076 79.7107,-81.9408"/>
<polygon fill="#191970" stroke="#191970" points="81.7447,-79.0875 71.7255,-75.6427 77.4097,-84.5837 81.7447,-79.0875"/>
</g>
<!-- Node10 -->
<g id="node11" class="node">
<title>Node10</title>
<g id="a_node11"><a xlink:href="eagle__soc_8h.html" target="_top" xlink:title="eagle_soc.h">
<polygon fill="#ffffff" stroke="#000000" points="107.5,-56.5 107.5,-75.5 177.5,-75.5 177.5,-56.5 107.5,-56.5"/>
<text text-anchor="middle" x="142.5" y="-63.5" font-family="Helvetica,sans-Serif" font-size="10.00" fill="#000000">eagle_soc.h</text>
</a>
</g>
</g>
<!-- Node9&#45;&gt;Node10 -->
<g id="edge11" class="edge">
<title>Node9&#45;&gt;Node10</title>
<path fill="none" stroke="#191970" d="M132.5902,-112.2455C134.1561,-104.9382 136.3512,-94.6944 138.2776,-85.7046"/>
<polygon fill="#191970" stroke="#191970" points="141.7607,-86.1541 140.4337,-75.6427 134.916,-84.6873 141.7607,-86.1541"/>
</g>
<!-- Node12 -->
<g id="node13" class="node">
<title>Node12</title>
<polygon fill="#ffffff" stroke="#bfbfbf" points="196,-56.5 196,-75.5 245,-75.5 245,-56.5 196,-56.5"/>
<text text-anchor="middle" x="220.5" y="-63.5" font-family="Helvetica,sans-Serif" font-size="10.00" fill="#000000">string.h</text>
</g>
<!-- Node11&#45;&gt;Node12 -->
<g id="edge13" class="edge">
<title>Node11&#45;&gt;Node12</title>
<path fill="none" stroke="#191970" d="M220.5,-112.2455C220.5,-104.9382 220.5,-94.6944 220.5,-85.7046"/>
<polygon fill="#191970" stroke="#191970" points="224.0001,-85.6426 220.5,-75.6427 217.0001,-85.6427 224.0001,-85.6426"/>
</g>
<!-- Node13 -->
<g id="node14" class="node">
<title>Node13</title>
<polygon fill="#ffffff" stroke="#bfbfbf" points="263,-56.5 263,-75.5 340,-75.5 340,-56.5 263,-56.5"/>
<text text-anchor="middle" x="301.5" y="-63.5" font-family="Helvetica,sans-Serif" font-size="10.00" fill="#000000">user_config.h</text>
</g>
<!-- Node11&#45;&gt;Node13 -->
<g id="edge14" class="edge">
<title>Node11&#45;&gt;Node13</title>
<path fill="none" stroke="#191970" d="M234.6091,-112.2455C246.9209,-103.7337 264.9958,-91.2375 279.2538,-81.3801"/>
<polygon fill="#191970" stroke="#191970" points="281.3174,-84.2085 287.5526,-75.6427 277.3366,-78.4506 281.3174,-84.2085"/>
</g>
<!-- Node14&#45;&gt;Node1 -->
<g id="edge16" class="edge">
<title>Node14&#45;&gt;Node1</title>
<path fill="none" stroke="#191970" d="M89.9774,-392.2455C89.586,-384.9382 89.0372,-374.6944 88.5556,-365.7046"/>
<polygon fill="#191970" stroke="#191970" points="92.0466,-365.4411 88.0166,-355.6427 85.0566,-365.8156 92.0466,-365.4411"/>
</g>
<!-- Node15&#45;&gt;Node1 -->
<g id="edge18" class="edge">
<title>Node15&#45;&gt;Node1</title>
<path fill="none" stroke="#191970" d="M162.649,-392.2455C148.6868,-383.6534 128.1272,-371.0014 112.0404,-361.1018"/>
<polygon fill="#191970" stroke="#191970" points="113.5203,-357.9029 103.1693,-355.6427 109.8516,-363.8645 113.5203,-357.9029"/>
</g>
<!-- Node16 -->
<g id="node17" class="node">
<title>Node16</title>
<g id="a_node17"><a xlink:href="memp__std_8h.html" target="_top" xlink:title="lwip/memp_std.h">
<polygon fill="#ffffff" stroke="#000000" points="135.5,-336.5 135.5,-355.5 227.5,-355.5 227.5,-336.5 135.5,-336.5"/>
<text text-anchor="middle" x="181.5" y="-343.5" font-family="Helvetica,sans-Serif" font-size="10.00" fill="#000000">lwip/memp_std.h</text>
</a>
</g>
</g>
<!-- Node15&#45;&gt;Node16 -->
<g id="edge19" class="edge">
<title>Node15&#45;&gt;Node16</title>
<path fill="none" stroke="#191970" d="M179.0226,-392.2455C179.414,-384.9382 179.9628,-374.6944 180.4444,-365.7046"/>
<polygon fill="#191970" stroke="#191970" points="183.9434,-365.8156 180.9834,-355.6427 176.9534,-365.4411 183.9434,-365.8156"/>
</g>
</g>
</svg>
