<?xml version="1.0" encoding="UTF-8" standalone="no"?>
<!DOCTYPE svg PUBLIC "-//W3C//DTD SVG 1.1//EN"
 "http://www.w3.org/Graphics/SVG/1.1/DTD/svg11.dtd">
<!-- Generated by graphviz version 2.41.20170323.1842 (20170323.1842)
 -->
<!-- Title: esp&#45;open&#45;lwip/include/lwip/stats.h Pages: 1 -->
<svg width="811pt" height="106pt"
 viewBox="0.00 0.00 811.00 106.00" xmlns="http://www.w3.org/2000/svg" xmlns:xlink="http://www.w3.org/1999/xlink">
<g id="graph0" class="graph" transform="scale(1 1) rotate(0) translate(4 102)">
<title>esp&#45;open&#45;lwip/include/lwip/stats.h</title>
<polygon fill="#ffffff" stroke="transparent" points="-4,4 -4,-102 807,-102 807,4 -4,4"/>
<!-- Node17 -->
<g id="node1" class="node">
<title>Node17</title>
<polygon fill="#bfbfbf" stroke="#000000" points="346,-67.5 346,-97.5 459,-97.5 459,-67.5 346,-67.5"/>
<text text-anchor="start" x="354" y="-85.5" font-family="Helvetica,sans-Serif" font-size="10.00" fill="#000000">esp&#45;open&#45;lwip/include</text>
<text text-anchor="middle" x="402.5" y="-74.5" font-family="Helvetica,sans-Serif" font-size="10.00" fill="#000000">/lwip/stats.h</text>
</g>
<!-- Node18 -->
<g id="node2" class="node">
<title>Node18</title>
<g id="a_node2"><a xlink:href="init_8c.html" target="_top" xlink:title="esp&#45;open&#45;lwip/lwip\l/core/init.c">
<polygon fill="#ffffff" stroke="#000000" points="0,-.5 0,-30.5 99,-30.5 99,-.5 0,-.5"/>
<text text-anchor="start" x="8" y="-18.5" font-family="Helvetica,sans-Serif" font-size="10.00" fill="#000000">esp&#45;open&#45;lwip/lwip</text>
<text text-anchor="middle" x="49.5" y="-7.5" font-family="Helvetica,sans-Serif" font-size="10.00" fill="#000000">/core/init.c</text>
</a>
</g>
</g>
<!-- Node17&#45;&gt;Node18 -->
<g id="edge1" class="edge">
<title>Node17&#45;&gt;Node18</title>
<path fill="none" stroke="#191970" d="M335.8306,-72.5835C275.824,-63.2498 185.3706,-48.1672 107.5,-31 104.7518,-30.3941 101.9382,-29.7437 99.1034,-29.0647"/>
<polygon fill="#191970" stroke="#191970" points="335.5136,-76.076 345.931,-74.145 336.5832,-69.1582 335.5136,-76.076"/>
</g>
<!-- Node19 -->
<g id="node3" class="node">
<title>Node19</title>
<g id="a_node3"><a xlink:href="ip_8c.html" target="_top" xlink:title="esp&#45;open&#45;lwip/lwip\l/core/ipv4/ip.c">
<polygon fill="#ffffff" stroke="#000000" points="117,-.5 117,-30.5 216,-30.5 216,-.5 117,-.5"/>
<text text-anchor="start" x="125" y="-18.5" font-family="Helvetica,sans-Serif" font-size="10.00" fill="#000000">esp&#45;open&#45;lwip/lwip</text>
<text text-anchor="middle" x="166.5" y="-7.5" font-family="Helvetica,sans-Serif" font-size="10.00" fill="#000000">/core/ipv4/ip.c</text>
</a>
</g>
</g>
<!-- Node17&#45;&gt;Node19 -->
<g id="edge2" class="edge">
<title>Node17&#45;&gt;Node19</title>
<path fill="none" stroke="#191970" d="M339.4288,-64.5942C300.757,-53.6153 251.9535,-39.7601 216.061,-29.5703"/>
<polygon fill="#191970" stroke="#191970" points="338.9613,-68.0997 349.537,-67.4639 340.873,-61.3658 338.9613,-68.0997"/>
</g>
<!-- Node20 -->
<g id="node4" class="node">
<title>Node20</title>
<g id="a_node4"><a xlink:href="ip__frag_8c.html" target="_top" xlink:title="esp&#45;open&#45;lwip/lwip\l/core/ipv4/ip_frag.c">
<polygon fill="#ffffff" stroke="#000000" points="234,-.5 234,-30.5 335,-30.5 335,-.5 234,-.5"/>
<text text-anchor="start" x="242" y="-18.5" font-family="Helvetica,sans-Serif" font-size="10.00" fill="#000000">esp&#45;open&#45;lwip/lwip</text>
<text text-anchor="middle" x="284.5" y="-7.5" font-family="Helvetica,sans-Serif" font-size="10.00" fill="#000000">/core/ipv4/ip_frag.c</text>
</a>
</g>
</g>
<!-- Node17&#45;&gt;Node20 -->
<g id="edge3" class="edge">
<title>Node17&#45;&gt;Node20</title>
<path fill="none" stroke="#191970" d="M367.0227,-62.3561C349.135,-52.1995 327.7977,-40.0843 311.3014,-30.7177"/>
<polygon fill="#191970" stroke="#191970" points="365.5943,-65.5699 376.0185,-67.4639 369.0506,-59.4827 365.5943,-65.5699"/>
</g>
<!-- Node21 -->
<g id="node5" class="node">
<title>Node21</title>
<g id="a_node5"><a xlink:href="mem_8c.html" target="_top" xlink:title="esp&#45;open&#45;lwip/lwip\l/core/mem.c">
<polygon fill="#ffffff" stroke="#000000" points="353,-.5 353,-30.5 452,-30.5 452,-.5 353,-.5"/>
<text text-anchor="start" x="361" y="-18.5" font-family="Helvetica,sans-Serif" font-size="10.00" fill="#000000">esp&#45;open&#45;lwip/lwip</text>
<text text-anchor="middle" x="402.5" y="-7.5" font-family="Helvetica,sans-Serif" font-size="10.00" fill="#000000">/core/mem.c</text>
</a>
</g>
</g>
<!-- Node17&#45;&gt;Node21 -->
<g id="edge4" class="edge">
<title>Node17&#45;&gt;Node21</title>
<path fill="none" stroke="#191970" d="M402.5,-57.0249C402.5,-48.128 402.5,-38.4287 402.5,-30.6432"/>
<polygon fill="#191970" stroke="#191970" points="399.0001,-57.2966 402.5,-67.2967 406.0001,-57.2967 399.0001,-57.2966"/>
</g>
<!-- Node22 -->
<g id="node6" class="node">
<title>Node22</title>
<g id="a_node6"><a xlink:href="memp_8c.html" target="_top" xlink:title="esp&#45;open&#45;lwip/lwip\l/core/memp.c">
<polygon fill="#ffffff" stroke="#000000" points="470,-.5 470,-30.5 569,-30.5 569,-.5 470,-.5"/>
<text text-anchor="start" x="478" y="-18.5" font-family="Helvetica,sans-Serif" font-size="10.00" fill="#000000">esp&#45;open&#45;lwip/lwip</text>
<text text-anchor="middle" x="519.5" y="-7.5" font-family="Helvetica,sans-Serif" font-size="10.00" fill="#000000">/core/memp.c</text>
</a>
</g>
</g>
<!-- Node17&#45;&gt;Node22 -->
<g id="edge5" class="edge">
<title>Node17&#45;&gt;Node22</title>
<path fill="none" stroke="#191970" d="M437.6766,-62.3561C455.4128,-52.1995 476.5692,-40.0843 492.9257,-30.7177"/>
<polygon fill="#191970" stroke="#191970" points="435.6957,-59.4572 428.7571,-67.4639 439.1743,-65.5317 435.6957,-59.4572"/>
</g>
<!-- Node23 -->
<g id="node7" class="node">
<title>Node23</title>
<g id="a_node7"><a xlink:href="netif_8c.html" target="_top" xlink:title="esp&#45;open&#45;lwip/lwip\l/core/netif.c">
<polygon fill="#ffffff" stroke="#000000" points="587,-.5 587,-30.5 686,-30.5 686,-.5 587,-.5"/>
<text text-anchor="start" x="595" y="-18.5" font-family="Helvetica,sans-Serif" font-size="10.00" fill="#000000">esp&#45;open&#45;lwip/lwip</text>
<text text-anchor="middle" x="636.5" y="-7.5" font-family="Helvetica,sans-Serif" font-size="10.00" fill="#000000">/core/netif.c</text>
</a>
</g>
</g>
<!-- Node17&#45;&gt;Node23 -->
<g id="edge6" class="edge">
<title>Node17&#45;&gt;Node23</title>
<path fill="none" stroke="#191970" d="M465.0017,-64.6042C503.2093,-53.6644 551.4013,-39.8659 586.9629,-29.6837"/>
<polygon fill="#191970" stroke="#191970" points="463.6644,-61.3464 455.0142,-67.4639 465.5913,-68.076 463.6644,-61.3464"/>
</g>
<!-- Node24 -->
<g id="node8" class="node">
<title>Node24</title>
<g id="a_node8"><a xlink:href="pbuf_8c.html" target="_top" xlink:title="esp&#45;open&#45;lwip/lwip\l/core/pbuf.c">
<polygon fill="#ffffff" stroke="#000000" points="704,-.5 704,-30.5 803,-30.5 803,-.5 704,-.5"/>
<text text-anchor="start" x="712" y="-18.5" font-family="Helvetica,sans-Serif" font-size="10.00" fill="#000000">esp&#45;open&#45;lwip/lwip</text>
<text text-anchor="middle" x="753.5" y="-7.5" font-family="Helvetica,sans-Serif" font-size="10.00" fill="#000000">/core/pbuf.c</text>
</a>
</g>
</g>
<!-- Node17&#45;&gt;Node24 -->
<g id="edge7" class="edge">
<title>Node17&#45;&gt;Node24</title>
<path fill="none" stroke="#191970" d="M469.2664,-72.464C528.8662,-63.1021 618.3899,-48.0463 695.5,-31 698.2478,-30.3926 701.0612,-29.7408 703.8957,-29.0609"/>
<polygon fill="#191970" stroke="#191970" points="468.5716,-69.03 459.2313,-74.0309 469.6516,-75.9462 468.5716,-69.03"/>
</g>
</g>
</svg>
