<?xml version="1.0" encoding="UTF-8" standalone="no"?>
<!DOCTYPE svg PUBLIC "-//W3C//DTD SVG 1.1//EN"
 "http://www.w3.org/Graphics/SVG/1.1/DTD/svg11.dtd">
<!-- Generated by graphviz version 2.41.20170323.1842 (20170323.1842)
 -->
<!-- Title: ping_msg Pages: 1 -->
<svg width="99pt" height="292pt"
 viewBox="0.00 0.00 99.00 292.00" xmlns="http://www.w3.org/2000/svg" xmlns:xlink="http://www.w3.org/1999/xlink">
<g id="graph0" class="graph" transform="scale(1 1) rotate(0) translate(4 288)">
<title>ping_msg</title>
<polygon fill="#ffffff" stroke="transparent" points="-4,4 -4,-288 95,-288 95,4 -4,4"/>
<!-- Node1 -->
<g id="node1" class="node">
<title>Node1</title>
<polygon fill="#bfbfbf" stroke="#000000" points="0,-.5 0,-123.5 88,-123.5 88,-.5 0,-.5"/>
<text text-anchor="middle" x="44" y="-111.5" font-family="Helvetica,sans-Serif" font-size="10.00" fill="#000000">ping_msg</text>
<polyline fill="none" stroke="#000000" points="0,-104.5 88,-104.5 "/>
<text text-anchor="start" x="8" y="-92.5" font-family="Helvetica,sans-Serif" font-size="10.00" fill="#000000">+ ping_pcb</text>
<text text-anchor="start" x="8" y="-81.5" font-family="Helvetica,sans-Serif" font-size="10.00" fill="#000000">+ ping_start</text>
<text text-anchor="start" x="8" y="-70.5" font-family="Helvetica,sans-Serif" font-size="10.00" fill="#000000">+ ping_sent</text>
<text text-anchor="start" x="8" y="-59.5" font-family="Helvetica,sans-Serif" font-size="10.00" fill="#000000">+ timeout_count</text>
<text text-anchor="start" x="8" y="-48.5" font-family="Helvetica,sans-Serif" font-size="10.00" fill="#000000">+ max_count</text>
<text text-anchor="start" x="8" y="-37.5" font-family="Helvetica,sans-Serif" font-size="10.00" fill="#000000">+ sent_count</text>
<text text-anchor="start" x="8" y="-26.5" font-family="Helvetica,sans-Serif" font-size="10.00" fill="#000000">+ coarse_time</text>
<polyline fill="none" stroke="#000000" points="0,-19.5 88,-19.5 "/>
<text text-anchor="middle" x="44" y="-7.5" font-family="Helvetica,sans-Serif" font-size="10.00" fill="#000000"> </text>
</g>
<!-- Node2 -->
<g id="node2" class="node">
<title>Node2</title>
<g id="a_node2"><a xlink:href="structping__option.html" target="_top" xlink:title="{ping_option\n|+ count\l+ ip\l+ coarse_time\l+ recv_function\l+ sent_function\l+ reverse\l|}">
<polygon fill="#ffffff" stroke="#000000" points="1.5,-171.5 1.5,-283.5 86.5,-283.5 86.5,-171.5 1.5,-171.5"/>
<text text-anchor="middle" x="44" y="-271.5" font-family="Helvetica,sans-Serif" font-size="10.00" fill="#000000">ping_option</text>
<polyline fill="none" stroke="#000000" points="1.5,-264.5 86.5,-264.5 "/>
<text text-anchor="start" x="9.5" y="-252.5" font-family="Helvetica,sans-Serif" font-size="10.00" fill="#000000">+ count</text>
<text text-anchor="start" x="9.5" y="-241.5" font-family="Helvetica,sans-Serif" font-size="10.00" fill="#000000">+ ip</text>
<text text-anchor="start" x="9.5" y="-230.5" font-family="Helvetica,sans-Serif" font-size="10.00" fill="#000000">+ coarse_time</text>
<text text-anchor="start" x="9.5" y="-219.5" font-family="Helvetica,sans-Serif" font-size="10.00" fill="#000000">+ recv_function</text>
<text text-anchor="start" x="9.5" y="-208.5" font-family="Helvetica,sans-Serif" font-size="10.00" fill="#000000">+ sent_function</text>
<text text-anchor="start" x="9.5" y="-197.5" font-family="Helvetica,sans-Serif" font-size="10.00" fill="#000000">+ reverse</text>
<polyline fill="none" stroke="#000000" points="1.5,-190.5 86.5,-190.5 "/>
<text text-anchor="middle" x="44" y="-178.5" font-family="Helvetica,sans-Serif" font-size="10.00" fill="#000000"> </text>
</a>
</g>
</g>
<!-- Node2&#45;&gt;Node1 -->
<g id="edge1" class="edge">
<title>Node2&#45;&gt;Node1</title>
<path fill="none" stroke="#404040" d="M44,-171.4692C44,-160.0551 44,-147.8811 44,-135.9537"/>
<polygon fill="none" stroke="#404040" points="44.0001,-135.6555 40,-129.6555 44,-123.6555 48,-129.6555 44.0001,-135.6555"/>
<text text-anchor="middle" x="67.5" y="-145" font-family="Helvetica,sans-Serif" font-size="10.00" fill="#000000"> +ping_opt</text>
</g>
</g>
</svg>
