<?xml version="1.0" encoding="UTF-8" standalone="no"?>
<!DOCTYPE svg PUBLIC "-//W3C//DTD SVG 1.1//EN"
 "http://www.w3.org/Graphics/SVG/1.1/DTD/svg11.dtd">
<!-- Generated by graphviz version 2.41.20170323.1842 (20170323.1842)
 -->
<!-- Title: _ETSTIMER_ Pages: 1 -->
<svg width="163pt" height="99pt"
 viewBox="0.00 0.00 163.00 99.00" xmlns="http://www.w3.org/2000/svg" xmlns:xlink="http://www.w3.org/1999/xlink">
<g id="graph0" class="graph" transform="scale(1 1) rotate(0) translate(4 95)">
<title>_ETSTIMER_</title>
<polygon fill="#ffffff" stroke="transparent" points="-4,4 -4,-95 159,-95 159,4 -4,4"/>
<!-- Node1 -->
<g id="node1" class="node">
<title>Node1</title>
<polygon fill="#bfbfbf" stroke="#000000" points="0,-.5 0,-90.5 81,-90.5 81,-.5 0,-.5"/>
<text text-anchor="middle" x="40.5" y="-78.5" font-family="Helvetica,sans-Serif" font-size="10.00" fill="#000000">_ETSTIMER_</text>
<polyline fill="none" stroke="#000000" points="0,-71.5 81,-71.5 "/>
<text text-anchor="start" x="8" y="-59.5" font-family="Helvetica,sans-Serif" font-size="10.00" fill="#000000">+ timer_expire</text>
<text text-anchor="start" x="8" y="-48.5" font-family="Helvetica,sans-Serif" font-size="10.00" fill="#000000">+ timer_period</text>
<text text-anchor="start" x="8" y="-37.5" font-family="Helvetica,sans-Serif" font-size="10.00" fill="#000000">+ timer_func</text>
<text text-anchor="start" x="8" y="-26.5" font-family="Helvetica,sans-Serif" font-size="10.00" fill="#000000">+ timer_arg</text>
<polyline fill="none" stroke="#000000" points="0,-19.5 81,-19.5 "/>
<text text-anchor="middle" x="40.5" y="-7.5" font-family="Helvetica,sans-Serif" font-size="10.00" fill="#000000"> </text>
</g>
<!-- Node1&#45;&gt;Node1 -->
<g id="edge1" class="edge">
<title>Node1&#45;&gt;Node1</title>
<path fill="none" stroke="#404040" d="M81.235,-62.1433C91.4013,-60.9794 99,-55.4316 99,-45.5 99,-39.9135 96.5957,-35.714 92.6826,-32.9016"/>
<polygon fill="none" stroke="#404040" points="92.5495,-32.8547 85.5596,-34.6272 81.235,-28.8567 88.2249,-27.0842 92.5495,-32.8547"/>
<text text-anchor="middle" x="127" y="-43" font-family="Helvetica,sans-Serif" font-size="10.00" fill="#000000"> +timer_next</text>
</g>
</g>
</svg>
