<?xml version="1.0" encoding="UTF-8" standalone="no"?>
<!DOCTYPE svg PUBLIC "-//W3C//DTD SVG 1.1//EN"
 "http://www.w3.org/Graphics/SVG/1.1/DTD/svg11.dtd">
<!-- Generated by graphviz version 2.39.20160927.1334 (20160927.1334)
 -->
<!-- Title: hmac_sha256_ctx_t Pages: 1 -->
<svg width="114pt" height="193pt"
 viewBox="0.00 0.00 114.00 193.00" xmlns="http://www.w3.org/2000/svg" xmlns:xlink="http://www.w3.org/1999/xlink">
<g id="graph0" class="graph" transform="scale(1 1) rotate(0) translate(4 189)">
<title>hmac_sha256_ctx_t</title>
<polygon fill="#ffffff" stroke="transparent" points="-4,4 -4,-189 110,-189 110,4 -4,4"/>
<!-- Node1 -->
<g id="node1" class="node">
<title>Node1</title>
<polygon fill="#bfbfbf" stroke="#000000" points="0,-0.5 0,-57.5 106,-57.5 106,-0.5 0,-0.5"/>
<text text-anchor="middle" x="53" y="-45.5" font-family="Helvetica,sans-Serif" font-size="10.00" fill="#000000">hmac_sha256_ctx_t</text>
<polyline fill="none" stroke="#000000" points="0,-38.5 106,-38.5 "/>
<text text-anchor="start" x="8" y="-26.5" font-family="Helvetica,sans-Serif" font-size="10.00" fill="#000000">+ o_key_pad</text>
<polyline fill="none" stroke="#000000" points="0,-19.5 106,-19.5 "/>
<text text-anchor="middle" x="53" y="-7.5" font-family="Helvetica,sans-Serif" font-size="10.00" fill="#000000"> </text>
</g>
<!-- Node2 -->
<g id="node2" class="node">
<title>Node2</title>
<g id="a_node2"><a xlink:href="structsha256__ctx__t.html" target="_top" xlink:title="{sha256_ctx_t\n|+ state\l+ bitcount\l+ buffer\l|}">
<polygon fill="#ffffff" stroke="#000000" points="15,-105.5 15,-184.5 91,-184.5 91,-105.5 15,-105.5"/>
<text text-anchor="middle" x="53" y="-172.5" font-family="Helvetica,sans-Serif" font-size="10.00" fill="#000000">sha256_ctx_t</text>
<polyline fill="none" stroke="#000000" points="15,-165.5 91,-165.5 "/>
<text text-anchor="start" x="23" y="-153.5" font-family="Helvetica,sans-Serif" font-size="10.00" fill="#000000">+ state</text>
<text text-anchor="start" x="23" y="-142.5" font-family="Helvetica,sans-Serif" font-size="10.00" fill="#000000">+ bitcount</text>
<text text-anchor="start" x="23" y="-131.5" font-family="Helvetica,sans-Serif" font-size="10.00" fill="#000000">+ buffer</text>
<polyline fill="none" stroke="#000000" points="15,-124.5 91,-124.5 "/>
<text text-anchor="middle" x="53" y="-112.5" font-family="Helvetica,sans-Serif" font-size="10.00" fill="#000000"> </text>
</a>
</g>
</g>
<!-- Node2&#45;&gt;Node1 -->
<g id="edge1" class="edge">
<title>Node2&#45;&gt;Node1</title>
<path fill="none" stroke="#404040" d="M53,-105.404C53,-93.9323 53,-81.3893 53,-69.8431"/>
<polygon fill="none" stroke="#404040" points="53.0001,-69.8034 49,-63.8034 53,-57.8034 57,-63.8034 53.0001,-69.8034"/>
<text text-anchor="middle" x="64" y="-79" font-family="Helvetica,sans-Serif" font-size="10.00" fill="#000000"> +ctx</text>
</g>
</g>
</svg>
