<?xml version="1.0" encoding="UTF-8" standalone="no"?>
<!DOCTYPE svg PUBLIC "-//W3C//DTD SVG 1.1//EN"
 "http://www.w3.org/Graphics/SVG/1.1/DTD/svg11.dtd">
<!-- Generated by graphviz version 2.41.20170323.1842 (20170323.1842)
 -->
<!-- Title: dhcps_pool Pages: 1 -->
<svg width="85pt" height="193pt"
 viewBox="0.00 0.00 85.00 193.00" xmlns="http://www.w3.org/2000/svg" xmlns:xlink="http://www.w3.org/1999/xlink">
<g id="graph0" class="graph" transform="scale(1 1) rotate(0) translate(4 189)">
<title>dhcps_pool</title>
<polygon fill="#ffffff" stroke="transparent" points="-4,4 -4,-189 81,-189 81,4 -4,4"/>
<!-- Node1 -->
<g id="node1" class="node">
<title>Node1</title>
<polygon fill="#bfbfbf" stroke="#000000" points="0,-.5 0,-68.5 77,-68.5 77,-.5 0,-.5"/>
<text text-anchor="middle" x="38.5" y="-56.5" font-family="Helvetica,sans-Serif" font-size="10.00" fill="#000000">dhcps_pool</text>
<polyline fill="none" stroke="#000000" points="0,-49.5 77,-49.5 "/>
<text text-anchor="start" x="8" y="-37.5" font-family="Helvetica,sans-Serif" font-size="10.00" fill="#000000">+ mac</text>
<text text-anchor="start" x="8" y="-26.5" font-family="Helvetica,sans-Serif" font-size="10.00" fill="#000000">+ lease_timer</text>
<polyline fill="none" stroke="#000000" points="0,-19.5 77,-19.5 "/>
<text text-anchor="middle" x="38.5" y="-7.5" font-family="Helvetica,sans-Serif" font-size="10.00" fill="#000000"> </text>
</g>
<!-- Node2 -->
<g id="node2" class="node">
<title>Node2</title>
<g id="a_node2"><a xlink:href="structip__addr.html" target="_top" xlink:title="{ip_addr\n|+ addr\l+ addr\l|}">
<polygon fill="#ffffff" stroke="#000000" points="13.5,-116.5 13.5,-184.5 63.5,-184.5 63.5,-116.5 13.5,-116.5"/>
<text text-anchor="middle" x="38.5" y="-172.5" font-family="Helvetica,sans-Serif" font-size="10.00" fill="#000000">ip_addr</text>
<polyline fill="none" stroke="#000000" points="13.5,-165.5 63.5,-165.5 "/>
<text text-anchor="start" x="21.5" y="-153.5" font-family="Helvetica,sans-Serif" font-size="10.00" fill="#000000">+ addr</text>
<text text-anchor="start" x="21.5" y="-142.5" font-family="Helvetica,sans-Serif" font-size="10.00" fill="#000000">+ addr</text>
<polyline fill="none" stroke="#000000" points="13.5,-135.5 63.5,-135.5 "/>
<text text-anchor="middle" x="38.5" y="-123.5" font-family="Helvetica,sans-Serif" font-size="10.00" fill="#000000"> </text>
</a>
</g>
</g>
<!-- Node2&#45;&gt;Node1 -->
<g id="edge1" class="edge">
<title>Node2&#45;&gt;Node1</title>
<path fill="none" stroke="#404040" d="M38.5,-116.3236C38.5,-105.213 38.5,-92.6908 38.5,-80.8451"/>
<polygon fill="none" stroke="#404040" points="38.5001,-80.833 34.5,-74.833 38.5,-68.833 42.5,-74.833 38.5001,-80.833"/>
<text text-anchor="middle" x="47" y="-90" font-family="Helvetica,sans-Serif" font-size="10.00" fill="#000000"> +ip</text>
</g>
</g>
</svg>
