<?xml version="1.0" encoding="UTF-8" standalone="no"?>
<!DOCTYPE svg PUBLIC "-//W3C//DTD SVG 1.1//EN"
 "http://www.w3.org/Graphics/SVG/1.1/DTD/svg11.dtd">
<!-- Generated by graphviz version 2.41.20170323.1842 (20170323.1842)
 -->
<!-- Title: sys_timeo Pages: 1 -->
<svg width="116pt" height="88pt"
 viewBox="0.00 0.00 116.00 88.00" xmlns="http://www.w3.org/2000/svg" xmlns:xlink="http://www.w3.org/1999/xlink">
<g id="graph0" class="graph" transform="scale(1 1) rotate(0) translate(4 84)">
<title>sys_timeo</title>
<polygon fill="#ffffff" stroke="transparent" points="-4,4 -4,-84 112,-84 112,4 -4,4"/>
<!-- Node1 -->
<g id="node1" class="node">
<title>Node1</title>
<polygon fill="#bfbfbf" stroke="#000000" points="0,-.5 0,-79.5 62,-79.5 62,-.5 0,-.5"/>
<text text-anchor="middle" x="31" y="-67.5" font-family="Helvetica,sans-Serif" font-size="10.00" fill="#000000">sys_timeo</text>
<polyline fill="none" stroke="#000000" points="0,-60.5 62,-60.5 "/>
<text text-anchor="start" x="8" y="-48.5" font-family="Helvetica,sans-Serif" font-size="10.00" fill="#000000">+ time</text>
<text text-anchor="start" x="8" y="-37.5" font-family="Helvetica,sans-Serif" font-size="10.00" fill="#000000">+ h</text>
<text text-anchor="start" x="8" y="-26.5" font-family="Helvetica,sans-Serif" font-size="10.00" fill="#000000">+ arg</text>
<polyline fill="none" stroke="#000000" points="0,-19.5 62,-19.5 "/>
<text text-anchor="middle" x="31" y="-7.5" font-family="Helvetica,sans-Serif" font-size="10.00" fill="#000000"> </text>
</g>
<!-- Node1&#45;&gt;Node1 -->
<g id="edge1" class="edge">
<title>Node1&#45;&gt;Node1</title>
<path fill="none" stroke="#404040" d="M62.102,-54.9963C72.0865,-54.8425 80,-49.8438 80,-40 80,-34.6167 77.6333,-30.6824 73.8555,-28.1971"/>
<polygon fill="none" stroke="#404040" points="73.6822,-28.1501 66.8433,-30.4369 62.102,-25.0037 68.9409,-22.7168 73.6822,-28.1501"/>
<text text-anchor="middle" x="94" y="-37.5" font-family="Helvetica,sans-Serif" font-size="10.00" fill="#000000"> +next</text>
</g>
</g>
</svg>
