<?xml version="1.0" encoding="UTF-8" standalone="no"?>
<!DOCTYPE svg PUBLIC "-//W3C//DTD SVG 1.1//EN"
 "http://www.w3.org/Graphics/SVG/1.1/DTD/svg11.dtd">
<!-- Generated by graphviz version 2.41.20170323.1842 (20170323.1842)
 -->
<!-- Title: sys_mbox_valid Pages: 1 -->
<svg width="554pt" height="107pt"
 viewBox="0.00 0.00 554.00 107.00" xmlns="http://www.w3.org/2000/svg" xmlns:xlink="http://www.w3.org/1999/xlink">
<g id="graph0" class="graph" transform="scale(1 1) rotate(0) translate(4 103)">
<title>sys_mbox_valid</title>
<polygon fill="#ffffff" stroke="transparent" points="-4,4 -4,-103 550,-103 550,4 -4,4"/>
<!-- Node38 -->
<g id="node1" class="node">
<title>Node38</title>
<polygon fill="#bfbfbf" stroke="#000000" points="0,-22.5 0,-41.5 88,-41.5 88,-22.5 0,-22.5"/>
<text text-anchor="middle" x="44" y="-29.5" font-family="Helvetica,sans-Serif" font-size="10.00" fill="#000000">sys_mbox_valid</text>
</g>
<!-- Node39 -->
<g id="node2" class="node">
<title>Node39</title>
<g id="a_node2"><a xlink:href="tcpip_8c.html#ab1d3ef23817d7703fa75ed67bd45ea1d" target="_top" xlink:title="tcpip_callback_with\l_block">
<polygon fill="#ffffff" stroke="#000000" points="124,-39 124,-69 227,-69 227,-39 124,-39"/>
<text text-anchor="start" x="132" y="-57" font-family="Helvetica,sans-Serif" font-size="10.00" fill="#000000">tcpip_callback_with</text>
<text text-anchor="middle" x="175.5" y="-46" font-family="Helvetica,sans-Serif" font-size="10.00" fill="#000000">_block</text>
</a>
</g>
</g>
<!-- Node38&#45;&gt;Node39 -->
<g id="edge1" class="edge">
<title>Node38&#45;&gt;Node39</title>
<path fill="none" stroke="#191970" d="M98.0471,-41.0421C106.6131,-42.4752 115.453,-43.9541 123.9597,-45.3773"/>
<polygon fill="#191970" stroke="#191970" points="98.5939,-37.585 88.1534,-39.3869 97.4388,-44.4891 98.5939,-37.585"/>
</g>
<!-- Node42 -->
<g id="node5" class="node">
<title>Node42</title>
<g id="a_node5"><a xlink:href="tcpip_8c.html#ae510f195171bed8499ae94e264a92717" target="_top" xlink:title="tcpip_input">
<polygon fill="#ffffff" stroke="#000000" points="143,-.5 143,-19.5 208,-19.5 208,-.5 143,-.5"/>
<text text-anchor="middle" x="175.5" y="-7.5" font-family="Helvetica,sans-Serif" font-size="10.00" fill="#000000">tcpip_input</text>
</a>
</g>
</g>
<!-- Node38&#45;&gt;Node42 -->
<g id="edge4" class="edge">
<title>Node38&#45;&gt;Node42</title>
<path fill="none" stroke="#191970" d="M98.439,-22.8923C113.5445,-20.3652 129.4711,-17.7007 142.8994,-15.4541"/>
<polygon fill="#191970" stroke="#191970" points="97.4388,-19.5109 88.1534,-24.6131 98.5939,-26.415 97.4388,-19.5109"/>
</g>
<!-- Node40 -->
<g id="node3" class="node">
<title>Node40</title>
<g id="a_node3"><a xlink:href="tcpip_8c.html#a5cdcb6b784fe0e8736a5b31a5cfbed6c" target="_top" xlink:title="pbuf_free_callback">
<polygon fill="#ffffff" stroke="#000000" points="264.5,-79.5 264.5,-98.5 364.5,-98.5 364.5,-79.5 264.5,-79.5"/>
<text text-anchor="middle" x="314.5" y="-86.5" font-family="Helvetica,sans-Serif" font-size="10.00" fill="#000000">pbuf_free_callback</text>
</a>
</g>
</g>
<!-- Node39&#45;&gt;Node40 -->
<g id="edge2" class="edge">
<title>Node39&#45;&gt;Node40</title>
<path fill="none" stroke="#191970" d="M236.9779,-69.48C250.4656,-72.8762 264.3619,-76.3753 276.598,-79.4563"/>
<polygon fill="#191970" stroke="#191970" points="237.8104,-66.0805 227.2585,-67.0327 236.1011,-72.8686 237.8104,-66.0805"/>
</g>
<!-- Node41 -->
<g id="node4" class="node">
<title>Node41</title>
<g id="a_node4"><a xlink:href="tcpip_8c.html#a55b4de3765c6a37b3f2b26a11603771c" target="_top" xlink:title="mem_free_callback">
<polygon fill="#ffffff" stroke="#000000" points="263,-41.5 263,-60.5 366,-60.5 366,-41.5 263,-41.5"/>
<text text-anchor="middle" x="314.5" y="-48.5" font-family="Helvetica,sans-Serif" font-size="10.00" fill="#000000">mem_free_callback</text>
</a>
</g>
</g>
<!-- Node39&#45;&gt;Node41 -->
<g id="edge3" class="edge">
<title>Node39&#45;&gt;Node41</title>
<path fill="none" stroke="#191970" d="M237.4413,-52.6631C245.8784,-52.481 254.4658,-52.2957 262.6983,-52.118"/>
<polygon fill="#191970" stroke="#191970" points="237.1806,-49.1679 227.2585,-52.8829 237.3317,-56.1662 237.1806,-49.1679"/>
</g>
<!-- Node43 -->
<g id="node6" class="node">
<title>Node43</title>
<g id="a_node6"><a xlink:href="netif_8c.html#a0f4a53e47c840904f824a2a1c0d4ebf4" target="_top" xlink:title="netif_init">
<polygon fill="#ffffff" stroke="#000000" points="287.5,-.5 287.5,-19.5 341.5,-19.5 341.5,-.5 287.5,-.5"/>
<text text-anchor="middle" x="314.5" y="-7.5" font-family="Helvetica,sans-Serif" font-size="10.00" fill="#000000">netif_init</text>
</a>
</g>
</g>
<!-- Node42&#45;&gt;Node43 -->
<g id="edge5" class="edge">
<title>Node42&#45;&gt;Node43</title>
<path fill="none" stroke="#191970" d="M218.3836,-10C240.8391,-10 267.6614,-10 287.2583,-10"/>
<polygon fill="#191970" stroke="#191970" points="218.0894,-6.5001 208.0893,-10 218.0893,-13.5001 218.0894,-6.5001"/>
</g>
<!-- Node44 -->
<g id="node7" class="node">
<title>Node44</title>
<g id="a_node7"><a xlink:href="init_8c.html#a0c1a18439524d2f4a5e51d25c0ca2ce9" target="_top" xlink:title="lwip_init">
<polygon fill="#ffffff" stroke="#000000" points="402,-.5 402,-19.5 454,-19.5 454,-.5 402,-.5"/>
<text text-anchor="middle" x="428" y="-7.5" font-family="Helvetica,sans-Serif" font-size="10.00" fill="#000000">lwip_init</text>
</a>
</g>
</g>
<!-- Node43&#45;&gt;Node44 -->
<g id="edge6" class="edge">
<title>Node43&#45;&gt;Node44</title>
<path fill="none" stroke="#191970" d="M351.9945,-10C368.3105,-10 387.0356,-10 401.8172,-10"/>
<polygon fill="#191970" stroke="#191970" points="351.6861,-6.5001 341.6861,-10 351.686,-13.5001 351.6861,-6.5001"/>
</g>
<!-- Node45 -->
<g id="node8" class="node">
<title>Node45</title>
<g id="a_node8"><a xlink:href="tcpip_8c.html#a1f3a88b8df6ba3b9ed1c00e0a305e3db" target="_top" xlink:title="tcpip_init">
<polygon fill="#ffffff" stroke="#000000" points="490,-.5 490,-19.5 546,-19.5 546,-.5 490,-.5"/>
<text text-anchor="middle" x="518" y="-7.5" font-family="Helvetica,sans-Serif" font-size="10.00" fill="#000000">tcpip_init</text>
</a>
</g>
</g>
<!-- Node44&#45;&gt;Node45 -->
<g id="edge7" class="edge">
<title>Node44&#45;&gt;Node45</title>
<path fill="none" stroke="#191970" d="M464.1508,-10C472.6986,-10 481.6899,-10 489.8243,-10"/>
<polygon fill="#191970" stroke="#191970" points="464.0318,-6.5001 454.0317,-10 464.0317,-13.5001 464.0318,-6.5001"/>
</g>
</g>
</svg>
