<?xml version="1.0" encoding="UTF-8" standalone="no"?>
<!DOCTYPE svg PUBLIC "-//W3C//DTD SVG 1.1//EN"
 "http://www.w3.org/Graphics/SVG/1.1/DTD/svg11.dtd">
<!-- Generated by graphviz version 2.41.20170323.1842 (20170323.1842)
 -->
<!-- Title: sys_msleep Pages: 1 -->
<svg width="217pt" height="104pt"
 viewBox="0.00 0.00 217.00 104.00" xmlns="http://www.w3.org/2000/svg" xmlns:xlink="http://www.w3.org/1999/xlink">
<g id="graph0" class="graph" transform="scale(1 1) rotate(0) translate(4 100)">
<title>sys_msleep</title>
<polygon fill="#ffffff" stroke="transparent" points="-4,4 -4,-100 213,-100 213,4 -4,4"/>
<!-- Node46 -->
<g id="node1" class="node">
<title>Node46</title>
<polygon fill="#bfbfbf" stroke="#000000" points="0,-38.5 0,-57.5 69,-57.5 69,-38.5 0,-38.5"/>
<text text-anchor="middle" x="34.5" y="-45.5" font-family="Helvetica,sans-Serif" font-size="10.00" fill="#000000">sys_msleep</text>
</g>
<!-- Node47 -->
<g id="node2" class="node">
<title>Node47</title>
<g id="a_node2"><a xlink:href="sys_8h.html#a8d364c5037778acb21c3df675db81b4f" target="_top" xlink:title="sys_arch_sem_wait">
<polygon fill="#ffffff" stroke="#000000" points="105,-76.5 105,-95.5 209,-95.5 209,-76.5 105,-76.5"/>
<text text-anchor="middle" x="157" y="-83.5" font-family="Helvetica,sans-Serif" font-size="10.00" fill="#000000">sys_arch_sem_wait</text>
</a>
</g>
</g>
<!-- Node46&#45;&gt;Node47 -->
<g id="edge1" class="edge">
<title>Node46&#45;&gt;Node47</title>
<path fill="none" stroke="#191970" d="M65.4119,-57.589C80.7903,-62.3594 99.5822,-68.1888 116.133,-73.3229"/>
<polygon fill="#191970" stroke="#191970" points="115.5099,-76.7941 126.098,-76.4141 117.5839,-70.1084 115.5099,-76.7941"/>
</g>
<!-- Node48 -->
<g id="node3" class="node">
<title>Node48</title>
<g id="a_node3"><a xlink:href="sys_8h.html#a83b781f96c30e915c752065a757da283" target="_top" xlink:title="sys_sem_free">
<polygon fill="#ffffff" stroke="#000000" points="117.5,-38.5 117.5,-57.5 196.5,-57.5 196.5,-38.5 117.5,-38.5"/>
<text text-anchor="middle" x="157" y="-45.5" font-family="Helvetica,sans-Serif" font-size="10.00" fill="#000000">sys_sem_free</text>
</a>
</g>
</g>
<!-- Node46&#45;&gt;Node48 -->
<g id="edge2" class="edge">
<title>Node46&#45;&gt;Node48</title>
<path fill="none" stroke="#191970" d="M69.2759,-48C81.1086,-48 94.5735,-48 107.3411,-48"/>
<polygon fill="#191970" stroke="#191970" points="107.3864,-51.5001 117.3864,-48 107.3863,-44.5001 107.3864,-51.5001"/>
</g>
<!-- Node49 -->
<g id="node4" class="node">
<title>Node49</title>
<g id="a_node4"><a xlink:href="sys_8h.html#af99da9e34a71855285c535183133dfde" target="_top" xlink:title="sys_sem_new">
<polygon fill="#ffffff" stroke="#000000" points="117,-.5 117,-19.5 197,-19.5 197,-.5 117,-.5"/>
<text text-anchor="middle" x="157" y="-7.5" font-family="Helvetica,sans-Serif" font-size="10.00" fill="#000000">sys_sem_new</text>
</a>
</g>
</g>
<!-- Node46&#45;&gt;Node49 -->
<g id="edge3" class="edge">
<title>Node46&#45;&gt;Node49</title>
<path fill="none" stroke="#191970" d="M65.4119,-38.411C80.7903,-33.6406 99.5822,-27.8112 116.133,-22.6771"/>
<polygon fill="#191970" stroke="#191970" points="117.5839,-25.8916 126.098,-19.5859 115.5099,-19.2059 117.5839,-25.8916"/>
</g>
</g>
</svg>
