<?xml version="1.0" encoding="UTF-8" standalone="no"?>
<!DOCTYPE svg PUBLIC "-//W3C//DTD SVG 1.1//EN"
 "http://www.w3.org/Graphics/SVG/1.1/DTD/svg11.dtd">
<!-- Generated by graphviz version 2.41.20170323.1842 (20170323.1842)
 -->
<!-- Title: sys_mutex_new Pages: 1 -->
<svg width="369pt" height="47pt"
 viewBox="0.00 0.00 369.00 47.00" xmlns="http://www.w3.org/2000/svg" xmlns:xlink="http://www.w3.org/1999/xlink">
<g id="graph0" class="graph" transform="scale(1 1) rotate(0) translate(4 43)">
<title>sys_mutex_new</title>
<polygon fill="#ffffff" stroke="transparent" points="-4,4 -4,-43 365,-43 365,4 -4,4"/>
<!-- Node73 -->
<g id="node1" class="node">
<title>Node73</title>
<polygon fill="#bfbfbf" stroke="#000000" points="0,-.5 0,-19.5 88,-19.5 88,-.5 0,-.5"/>
<text text-anchor="middle" x="44" y="-7.5" font-family="Helvetica,sans-Serif" font-size="10.00" fill="#000000">sys_mutex_new</text>
</g>
<!-- Node74 -->
<g id="node2" class="node">
<title>Node74</title>
<g id="a_node2"><a xlink:href="mem_8c.html#a44a136e3b70c36abb6f8dc060c778113" target="_top" xlink:title="mem_init">
<polygon fill="#ffffff" stroke="#000000" points="124,-19.5 124,-38.5 181,-38.5 181,-19.5 124,-19.5"/>
<text text-anchor="middle" x="152.5" y="-26.5" font-family="Helvetica,sans-Serif" font-size="10.00" fill="#000000">mem_init</text>
</a>
</g>
</g>
<!-- Node73&#45;&gt;Node74 -->
<g id="edge1" class="edge">
<title>Node73&#45;&gt;Node74</title>
<path fill="none" stroke="#191970" d="M98.1497,-19.4824C107.0703,-21.0446 115.9945,-22.6073 123.9574,-24.0018"/>
<polygon fill="#191970" stroke="#191970" points="98.585,-16.0055 88.1311,-17.728 97.3775,-22.9006 98.585,-16.0055"/>
</g>
<!-- Node76 -->
<g id="node4" class="node">
<title>Node76</title>
<g id="a_node4"><a xlink:href="tcpip_8c.html#a1f3a88b8df6ba3b9ed1c00e0a305e3db" target="_top" xlink:title="tcpip_init">
<polygon fill="#ffffff" stroke="#000000" points="305,-.5 305,-19.5 361,-19.5 361,-.5 305,-.5"/>
<text text-anchor="middle" x="333" y="-7.5" font-family="Helvetica,sans-Serif" font-size="10.00" fill="#000000">tcpip_init</text>
</a>
</g>
</g>
<!-- Node73&#45;&gt;Node76 -->
<g id="edge4" class="edge">
<title>Node73&#45;&gt;Node76</title>
<path fill="none" stroke="#191970" d="M98.4863,-10C159.8932,-10 257.3426,-10 304.9564,-10"/>
<polygon fill="#191970" stroke="#191970" points="98.2075,-6.5001 88.2075,-10 98.2074,-13.5001 98.2075,-6.5001"/>
</g>
<!-- Node75 -->
<g id="node3" class="node">
<title>Node75</title>
<g id="a_node3"><a xlink:href="init_8c.html#a0c1a18439524d2f4a5e51d25c0ca2ce9" target="_top" xlink:title="lwip_init">
<polygon fill="#ffffff" stroke="#000000" points="217,-19.5 217,-38.5 269,-38.5 269,-19.5 217,-19.5"/>
<text text-anchor="middle" x="243" y="-26.5" font-family="Helvetica,sans-Serif" font-size="10.00" fill="#000000">lwip_init</text>
</a>
</g>
</g>
<!-- Node74&#45;&gt;Node75 -->
<g id="edge2" class="edge">
<title>Node74&#45;&gt;Node75</title>
<path fill="none" stroke="#191970" d="M191.3386,-29C199.9005,-29 208.7749,-29 216.7021,-29"/>
<polygon fill="#191970" stroke="#191970" points="191.1348,-25.5001 181.1348,-29 191.1347,-32.5001 191.1348,-25.5001"/>
</g>
<!-- Node75&#45;&gt;Node76 -->
<g id="edge3" class="edge">
<title>Node75&#45;&gt;Node76</title>
<path fill="none" stroke="#191970" d="M278.8692,-21.4276C287.5009,-19.6054 296.6005,-17.6843 304.8243,-15.9482"/>
<polygon fill="#191970" stroke="#191970" points="278.0931,-18.0142 269.0317,-23.5044 279.5391,-24.8633 278.0931,-18.0142"/>
</g>
</g>
</svg>
