<?xml version="1.0" encoding="UTF-8" standalone="no"?>
<!DOCTYPE svg PUBLIC "-//W3C//DTD SVG 1.1//EN"
 "http://www.w3.org/Graphics/SVG/1.1/DTD/svg11.dtd">
<!-- Generated by graphviz version 2.41.20170323.1842 (20170323.1842)
 -->
<!-- Title: mem_free_callback Pages: 1 -->
<svg width="390pt" height="332pt"
 viewBox="0.00 0.00 390.00 332.00" xmlns="http://www.w3.org/2000/svg" xmlns:xlink="http://www.w3.org/1999/xlink">
<g id="graph0" class="graph" transform="scale(1 1) rotate(0) translate(4 328)">
<title>mem_free_callback</title>
<polygon fill="#ffffff" stroke="transparent" points="-4,4 -4,-328 386,-328 386,4 -4,4"/>
<!-- Node0 -->
<g id="node1" class="node">
<title>Node0</title>
<polygon fill="#bfbfbf" stroke="#000000" points="0,-174.5 0,-193.5 103,-193.5 103,-174.5 0,-174.5"/>
<text text-anchor="middle" x="51.5" y="-181.5" font-family="Helvetica,sans-Serif" font-size="10.00" fill="#000000">mem_free_callback</text>
</g>
<!-- Node1 -->
<g id="node2" class="node">
<title>Node1</title>
<g id="a_node2"><a xlink:href="esp-open-lwip_2include_2lwip_2mem_8h.html#ab270bbe39e1996d7095be3a139620ce0" target="_top" xlink:title="mem_free">
<polygon fill="#ffffff" stroke="#000000" points="159.5,-250.5 159.5,-269.5 221.5,-269.5 221.5,-250.5 159.5,-250.5"/>
<text text-anchor="middle" x="190.5" y="-257.5" font-family="Helvetica,sans-Serif" font-size="10.00" fill="#000000">mem_free</text>
</a>
</g>
</g>
<!-- Node0&#45;&gt;Node1 -->
<g id="edge1" class="edge">
<title>Node0&#45;&gt;Node1</title>
<path fill="none" stroke="#191970" d="M69.1044,-193.6255C93.1262,-206.7597 136.3651,-230.401 164.2285,-245.6358"/>
<polygon fill="#191970" stroke="#191970" points="162.5853,-248.7262 173.0385,-250.4527 165.9435,-242.5843 162.5853,-248.7262"/>
</g>
<!-- Node3 -->
<g id="node4" class="node">
<title>Node3</title>
<g id="a_node4"><a xlink:href="tcpip_8c.html#ab1d3ef23817d7703fa75ed67bd45ea1d" target="_top" xlink:title="tcpip_callback_with\l_block">
<polygon fill="#ffffff" stroke="#000000" points="139,-147 139,-177 242,-177 242,-147 139,-147"/>
<text text-anchor="start" x="147" y="-165" font-family="Helvetica,sans-Serif" font-size="10.00" fill="#000000">tcpip_callback_with</text>
<text text-anchor="middle" x="190.5" y="-154" font-family="Helvetica,sans-Serif" font-size="10.00" fill="#000000">_block</text>
</a>
</g>
</g>
<!-- Node0&#45;&gt;Node3 -->
<g id="edge3" class="edge">
<title>Node0&#45;&gt;Node3</title>
<path fill="none" stroke="#191970" d="M103.2585,-175.808C111.5802,-174.4909 120.2656,-173.1162 128.7925,-171.7667"/>
<polygon fill="#191970" stroke="#191970" points="129.3684,-175.2192 138.6983,-170.1988 128.2741,-168.3052 129.3684,-175.2192"/>
</g>
<!-- Node2 -->
<g id="node3" class="node">
<title>Node2</title>
<g id="a_node3"><a xlink:href="mem_8c.html#a24221009a2c00e9c3fa63eaa9444a076" target="_top" xlink:title="plug_holes">
<polygon fill="#ffffff" stroke="#000000" points="297.5,-304.5 297.5,-323.5 362.5,-323.5 362.5,-304.5 297.5,-304.5"/>
<text text-anchor="middle" x="330" y="-311.5" font-family="Helvetica,sans-Serif" font-size="10.00" fill="#000000">plug_holes</text>
</a>
</g>
</g>
<!-- Node1&#45;&gt;Node2 -->
<g id="edge2" class="edge">
<title>Node1&#45;&gt;Node2</title>
<path fill="none" stroke="#191970" d="M213.822,-269.5511C231.4066,-276.6985 256.1482,-286.6397 278,-295 283.1617,-296.9748 288.6281,-299.0211 294.0018,-301.007"/>
<polygon fill="#191970" stroke="#191970" points="292.8951,-304.3291 303.4887,-304.4882 295.3065,-297.7575 292.8951,-304.3291"/>
</g>
<!-- Node4 -->
<g id="node5" class="node">
<title>Node4</title>
<g id="a_node5"><a xlink:href="sys_8h.html#a8bcfab4bd791dd33f69a778e7585275d" target="_top" xlink:title="sys_mbox_valid">
<polygon fill="#ffffff" stroke="#000000" points="286,-266.5 286,-285.5 374,-285.5 374,-266.5 286,-266.5"/>
<text text-anchor="middle" x="330" y="-273.5" font-family="Helvetica,sans-Serif" font-size="10.00" fill="#000000">sys_mbox_valid</text>
</a>
</g>
</g>
<!-- Node3&#45;&gt;Node4 -->
<g id="edge4" class="edge">
<title>Node3&#45;&gt;Node4</title>
<path fill="none" stroke="#191970" d="M200.9232,-177.2638C215.7953,-197.9905 244.9857,-234.9719 278,-257 280.8858,-258.9255 283.9915,-260.6857 287.1978,-262.289"/>
<polygon fill="#191970" stroke="#191970" points="285.8428,-265.517 296.4009,-266.3987 288.6971,-259.1253 285.8428,-265.517"/>
</g>
<!-- Node5 -->
<g id="node6" class="node">
<title>Node5</title>
<g id="a_node6"><a xlink:href="memp_8h.html#a5b98c976852aa0eabda9fd588be56eb8" target="_top" xlink:title="memp_malloc">
<polygon fill="#ffffff" stroke="#000000" points="290.5,-228.5 290.5,-247.5 369.5,-247.5 369.5,-228.5 290.5,-228.5"/>
<text text-anchor="middle" x="330" y="-235.5" font-family="Helvetica,sans-Serif" font-size="10.00" fill="#000000">memp_malloc</text>
</a>
</g>
</g>
<!-- Node3&#45;&gt;Node5 -->
<g id="edge5" class="edge">
<title>Node3&#45;&gt;Node5</title>
<path fill="none" stroke="#191970" d="M210.9183,-177.2153C228.1628,-189.5878 253.8408,-206.9144 278,-219 282.075,-221.0385 286.424,-222.9736 290.8057,-224.7736"/>
<polygon fill="#191970" stroke="#191970" points="289.768,-228.1254 300.3567,-228.4863 292.3042,-221.6009 289.768,-228.1254"/>
</g>
<!-- Node6 -->
<g id="node7" class="node">
<title>Node6</title>
<g id="a_node7"><a xlink:href="sys_8h.html#a9d068386a3c53dd01b8af99c3ef77555" target="_top" xlink:title="sys_mbox_post">
<polygon fill="#ffffff" stroke="#000000" points="287,-190.5 287,-209.5 373,-209.5 373,-190.5 287,-190.5"/>
<text text-anchor="middle" x="330" y="-197.5" font-family="Helvetica,sans-Serif" font-size="10.00" fill="#000000">sys_mbox_post</text>
</a>
</g>
</g>
<!-- Node3&#45;&gt;Node6 -->
<g id="edge6" class="edge">
<title>Node3&#45;&gt;Node6</title>
<path fill="none" stroke="#191970" d="M242.0483,-176.0418C256.1631,-179.8867 271.3472,-184.0229 285.0601,-187.7583"/>
<polygon fill="#191970" stroke="#191970" points="284.1806,-191.1462 294.749,-190.3976 286.0204,-184.3923 284.1806,-191.1462"/>
</g>
<!-- Node7 -->
<g id="node8" class="node">
<title>Node7</title>
<g id="a_node8"><a xlink:href="sys_8h.html#aa36345e48a49d67cbb0878cd4cbd2195" target="_top" xlink:title="sys_mbox_trypost">
<polygon fill="#ffffff" stroke="#000000" points="281.5,-152.5 281.5,-171.5 378.5,-171.5 378.5,-152.5 281.5,-152.5"/>
<text text-anchor="middle" x="330" y="-159.5" font-family="Helvetica,sans-Serif" font-size="10.00" fill="#000000">sys_mbox_trypost</text>
</a>
</g>
</g>
<!-- Node3&#45;&gt;Node7 -->
<g id="edge7" class="edge">
<title>Node3&#45;&gt;Node7</title>
<path fill="none" stroke="#191970" d="M242.0483,-162C251.6106,-162 261.6636,-162 271.4175,-162"/>
<polygon fill="#191970" stroke="#191970" points="271.4407,-165.5001 281.4407,-162 271.4406,-158.5001 271.4407,-165.5001"/>
</g>
<!-- Node8 -->
<g id="node9" class="node">
<title>Node8</title>
<g id="a_node9"><a xlink:href="memp_8h.html#a9d30a969401eb0626105950d6e63f3bf" target="_top" xlink:title="memp_free">
<polygon fill="#ffffff" stroke="#000000" points="296.5,-114.5 296.5,-133.5 363.5,-133.5 363.5,-114.5 296.5,-114.5"/>
<text text-anchor="middle" x="330" y="-121.5" font-family="Helvetica,sans-Serif" font-size="10.00" fill="#000000">memp_free</text>
</a>
</g>
</g>
<!-- Node3&#45;&gt;Node8 -->
<g id="edge8" class="edge">
<title>Node3&#45;&gt;Node8</title>
<path fill="none" stroke="#191970" d="M242.0483,-147.9582C256.6628,-143.9772 272.4235,-139.6839 286.5107,-135.8465"/>
<polygon fill="#191970" stroke="#191970" points="287.7038,-139.1492 296.4323,-133.1439 285.864,-132.3952 287.7038,-139.1492"/>
</g>
<!-- Node9 -->
<g id="node10" class="node">
<title>Node9</title>
<g id="a_node10"><a xlink:href="sys_8h.html#a8d364c5037778acb21c3df675db81b4f" target="_top" xlink:title="sys_arch_sem_wait">
<polygon fill="#ffffff" stroke="#000000" points="278,-76.5 278,-95.5 382,-95.5 382,-76.5 278,-76.5"/>
<text text-anchor="middle" x="330" y="-83.5" font-family="Helvetica,sans-Serif" font-size="10.00" fill="#000000">sys_arch_sem_wait</text>
</a>
</g>
</g>
<!-- Node3&#45;&gt;Node9 -->
<g id="edge9" class="edge">
<title>Node3&#45;&gt;Node9</title>
<path fill="none" stroke="#191970" d="M210.9183,-146.7847C228.1628,-134.4122 253.8408,-117.0856 278,-105 282.075,-102.9615 286.424,-101.0264 290.8057,-99.2264"/>
<polygon fill="#191970" stroke="#191970" points="292.3042,-102.3991 300.3567,-95.5137 289.768,-95.8746 292.3042,-102.3991"/>
</g>
<!-- Node10 -->
<g id="node11" class="node">
<title>Node10</title>
<g id="a_node11"><a xlink:href="sys_8h.html#af99da9e34a71855285c535183133dfde" target="_top" xlink:title="sys_sem_new">
<polygon fill="#ffffff" stroke="#000000" points="290,-38.5 290,-57.5 370,-57.5 370,-38.5 290,-38.5"/>
<text text-anchor="middle" x="330" y="-45.5" font-family="Helvetica,sans-Serif" font-size="10.00" fill="#000000">sys_sem_new</text>
</a>
</g>
</g>
<!-- Node3&#45;&gt;Node10 -->
<g id="edge10" class="edge">
<title>Node3&#45;&gt;Node10</title>
<path fill="none" stroke="#191970" d="M200.9232,-146.7362C215.7953,-126.0095 244.9857,-89.0281 278,-67 280.8858,-65.0745 283.9915,-63.3143 287.1978,-61.711"/>
<polygon fill="#191970" stroke="#191970" points="288.6971,-64.8747 296.4009,-57.6013 285.8428,-58.483 288.6971,-64.8747"/>
</g>
<!-- Node11 -->
<g id="node12" class="node">
<title>Node11</title>
<g id="a_node12"><a xlink:href="sys_8h.html#a83b781f96c30e915c752065a757da283" target="_top" xlink:title="sys_sem_free">
<polygon fill="#ffffff" stroke="#000000" points="290.5,-.5 290.5,-19.5 369.5,-19.5 369.5,-.5 290.5,-.5"/>
<text text-anchor="middle" x="330" y="-7.5" font-family="Helvetica,sans-Serif" font-size="10.00" fill="#000000">sys_sem_free</text>
</a>
</g>
</g>
<!-- Node3&#45;&gt;Node11 -->
<g id="edge11" class="edge">
<title>Node3&#45;&gt;Node11</title>
<path fill="none" stroke="#191970" d="M196.553,-146.9684C208.2734,-119.6742 236.6083,-61.766 278,-29 280.2608,-27.2103 282.7059,-25.5792 285.261,-24.094"/>
<polygon fill="#191970" stroke="#191970" points="286.8877,-27.1937 294.264,-19.5884 283.7549,-20.9339 286.8877,-27.1937"/>
</g>
</g>
</svg>
