<?xml version="1.0" encoding="UTF-8" standalone="no"?>
<!DOCTYPE svg PUBLIC "-//W3C//DTD SVG 1.1//EN"
 "http://www.w3.org/Graphics/SVG/1.1/DTD/svg11.dtd">
<!-- Generated by graphviz version 2.41.20170323.1842 (20170323.1842)
 -->
<!-- Title: esp&#45;open&#45;lwip/include/lwip/timers.h Pages: 1 -->
<svg width="318pt" height="543pt"
 viewBox="0.00 0.00 317.50 543.00" xmlns="http://www.w3.org/2000/svg" xmlns:xlink="http://www.w3.org/1999/xlink">
<g id="graph0" class="graph" transform="scale(1 1) rotate(0) translate(4 539)">
<title>esp&#45;open&#45;lwip/include/lwip/timers.h</title>
<polygon fill="#ffffff" stroke="transparent" points="-4,4 -4,-539 313.5,-539 313.5,4 -4,4"/>
<!-- Node0 -->
<g id="node1" class="node">
<title>Node0</title>
<polygon fill="#bfbfbf" stroke="#000000" points="36,-504.5 36,-534.5 149,-534.5 149,-504.5 36,-504.5"/>
<text text-anchor="start" x="44" y="-522.5" font-family="Helvetica,sans-Serif" font-size="10.00" fill="#000000">esp&#45;open&#45;lwip/include</text>
<text text-anchor="middle" x="92.5" y="-511.5" font-family="Helvetica,sans-Serif" font-size="10.00" fill="#000000">/lwip/timers.h</text>
</g>
<!-- Node1 -->
<g id="node2" class="node">
<title>Node1</title>
<g id="a_node2"><a xlink:href="opt_8h.html" target="_top" xlink:title="lwip/opt.h">
<polygon fill="#ffffff" stroke="#000000" points="64,-336.5 64,-355.5 123,-355.5 123,-336.5 64,-336.5"/>
<text text-anchor="middle" x="93.5" y="-343.5" font-family="Helvetica,sans-Serif" font-size="10.00" fill="#000000">lwip/opt.h</text>
</a>
</g>
</g>
<!-- Node0&#45;&gt;Node1 -->
<g id="edge1" class="edge">
<title>Node0&#45;&gt;Node1</title>
<path fill="none" stroke="#191970" d="M92.587,-504.4065C92.7672,-473.1485 93.1811,-401.3214 93.3839,-366.1492"/>
<polygon fill="#191970" stroke="#191970" points="96.8861,-365.758 93.4439,-355.738 89.8862,-365.7176 96.8861,-365.758"/>
</g>
<!-- Node14 -->
<g id="node15" class="node">
<title>Node14</title>
<g id="a_node15"><a xlink:href="err_8h.html" target="_top" xlink:title="lwip/err.h">
<polygon fill="#ffffff" stroke="#000000" points="7,-392.5 7,-411.5 64,-411.5 64,-392.5 7,-392.5"/>
<text text-anchor="middle" x="35.5" y="-399.5" font-family="Helvetica,sans-Serif" font-size="10.00" fill="#000000">lwip/err.h</text>
</a>
</g>
</g>
<!-- Node0&#45;&gt;Node14 -->
<g id="edge15" class="edge">
<title>Node0&#45;&gt;Node14</title>
<path fill="none" stroke="#191970" d="M85.0482,-504.1389C74.6387,-482.6806 55.7647,-443.7738 44.5571,-420.6702"/>
<polygon fill="#191970" stroke="#191970" points="47.6511,-419.0291 40.1374,-411.5595 41.353,-422.0844 47.6511,-419.0291"/>
</g>
<!-- Node15 -->
<g id="node16" class="node">
<title>Node15</title>
<g id="a_node16"><a xlink:href="sys_8h.html" target="_top" xlink:title="lwip/sys.h">
<polygon fill="#ffffff" stroke="#000000" points="120.5,-448.5 120.5,-467.5 180.5,-467.5 180.5,-448.5 120.5,-448.5"/>
<text text-anchor="middle" x="150.5" y="-455.5" font-family="Helvetica,sans-Serif" font-size="10.00" fill="#000000">lwip/sys.h</text>
</a>
</g>
</g>
<!-- Node0&#45;&gt;Node15 -->
<g id="edge18" class="edge">
<title>Node0&#45;&gt;Node15</title>
<path fill="none" stroke="#191970" d="M106.8371,-504.2977C115.1397,-495.4941 125.6182,-484.3833 134.2289,-475.2529"/>
<polygon fill="#191970" stroke="#191970" points="136.8987,-477.5234 141.2135,-467.8469 131.8061,-472.7206 136.8987,-477.5234"/>
</g>
<!-- Node2 -->
<g id="node3" class="node">
<title>Node2</title>
<g id="a_node3"><a xlink:href="lwipopts_8h.html" target="_top" xlink:title="lwipopts.h">
<polygon fill="#ffffff" stroke="#000000" points="63,-280.5 63,-299.5 124,-299.5 124,-280.5 63,-280.5"/>
<text text-anchor="middle" x="93.5" y="-287.5" font-family="Helvetica,sans-Serif" font-size="10.00" fill="#000000">lwipopts.h</text>
</a>
</g>
</g>
<!-- Node1&#45;&gt;Node2 -->
<g id="edge2" class="edge">
<title>Node1&#45;&gt;Node2</title>
<path fill="none" stroke="#191970" d="M93.5,-336.2455C93.5,-328.9382 93.5,-318.6944 93.5,-309.7046"/>
<polygon fill="#191970" stroke="#191970" points="97.0001,-309.6426 93.5,-299.6427 90.0001,-309.6427 97.0001,-309.6426"/>
</g>
<!-- Node3 -->
<g id="node4" class="node">
<title>Node3</title>
<g id="a_node4"><a xlink:href="esp-open-sdk_2esp-open-lwip_2include_2lwip_2debug_8h.html" target="_top" xlink:title="lwip/debug.h">
<polygon fill="#ffffff" stroke="#000000" points="142,-280.5 142,-299.5 215,-299.5 215,-280.5 142,-280.5"/>
<text text-anchor="middle" x="178.5" y="-287.5" font-family="Helvetica,sans-Serif" font-size="10.00" fill="#000000">lwip/debug.h</text>
</a>
</g>
</g>
<!-- Node1&#45;&gt;Node3 -->
<g id="edge3" class="edge">
<title>Node1&#45;&gt;Node3</title>
<path fill="none" stroke="#191970" d="M108.3059,-336.2455C121.2256,-327.7337 140.1931,-315.2375 155.1552,-305.3801"/>
<polygon fill="#191970" stroke="#191970" points="157.4387,-308.067 163.8638,-299.6427 153.5876,-302.2216 157.4387,-308.067"/>
</g>
<!-- Node4 -->
<g id="node5" class="node">
<title>Node4</title>
<g id="a_node5"><a xlink:href="arch_8h.html" target="_top" xlink:title="lwip/arch.h">
<polygon fill="#ffffff" stroke="#000000" points="126.5,-224.5 126.5,-243.5 190.5,-243.5 190.5,-224.5 126.5,-224.5"/>
<text text-anchor="middle" x="158.5" y="-231.5" font-family="Helvetica,sans-Serif" font-size="10.00" fill="#000000">lwip/arch.h</text>
</a>
</g>
</g>
<!-- Node3&#45;&gt;Node4 -->
<g id="edge4" class="edge">
<title>Node3&#45;&gt;Node4</title>
<path fill="none" stroke="#191970" d="M175.0163,-280.2455C172.3492,-272.7776 168.5867,-262.2427 165.3263,-253.1137"/>
<polygon fill="#191970" stroke="#191970" points="168.6033,-251.8829 161.9438,-243.6427 162.0111,-254.2373 168.6033,-251.8829"/>
</g>
<!-- Node5 -->
<g id="node6" class="node">
<title>Node5</title>
<g id="a_node6"><a xlink:href="cc_8h.html" target="_top" xlink:title="arch/cc.h">
<polygon fill="#ffffff" stroke="#000000" points="130,-168.5 130,-187.5 187,-187.5 187,-168.5 130,-168.5"/>
<text text-anchor="middle" x="158.5" y="-175.5" font-family="Helvetica,sans-Serif" font-size="10.00" fill="#000000">arch/cc.h</text>
</a>
</g>
</g>
<!-- Node4&#45;&gt;Node5 -->
<g id="edge5" class="edge">
<title>Node4&#45;&gt;Node5</title>
<path fill="none" stroke="#191970" d="M158.5,-224.2455C158.5,-216.9382 158.5,-206.6944 158.5,-197.7046"/>
<polygon fill="#191970" stroke="#191970" points="162.0001,-197.6426 158.5,-187.6427 155.0001,-197.6427 162.0001,-197.6426"/>
</g>
<!-- Node6 -->
<g id="node7" class="node">
<title>Node6</title>
<g id="a_node7"><a xlink:href="c__types_8h.html" target="_top" xlink:title="c_types.h">
<polygon fill="#ffffff" stroke="#000000" points="162,-56.5 162,-75.5 221,-75.5 221,-56.5 162,-56.5"/>
<text text-anchor="middle" x="191.5" y="-63.5" font-family="Helvetica,sans-Serif" font-size="10.00" fill="#000000">c_types.h</text>
</a>
</g>
</g>
<!-- Node5&#45;&gt;Node6 -->
<g id="edge6" class="edge">
<title>Node5&#45;&gt;Node6</title>
<path fill="none" stroke="#191970" d="M161.3136,-168.4509C166.7202,-150.1013 178.6563,-109.5908 185.793,-85.3693"/>
<polygon fill="#191970" stroke="#191970" points="189.2245,-86.1064 188.6936,-75.5249 182.5099,-84.128 189.2245,-86.1064"/>
</g>
<!-- Node9 -->
<g id="node10" class="node">
<title>Node9</title>
<g id="a_node10"><a xlink:href="ets__sys_8h.html" target="_top" xlink:title="ets_sys.h">
<polygon fill="#ffffff" stroke="#000000" points="187,-112.5 187,-131.5 246,-131.5 246,-112.5 187,-112.5"/>
<text text-anchor="middle" x="216.5" y="-119.5" font-family="Helvetica,sans-Serif" font-size="10.00" fill="#000000">ets_sys.h</text>
</a>
</g>
</g>
<!-- Node5&#45;&gt;Node9 -->
<g id="edge9" class="edge">
<title>Node5&#45;&gt;Node9</title>
<path fill="none" stroke="#191970" d="M168.6028,-168.2455C177.0028,-160.1352 189.1494,-148.4075 199.1084,-138.7919"/>
<polygon fill="#191970" stroke="#191970" points="201.75,-141.1066 206.5129,-131.6427 196.8878,-136.0707 201.75,-141.1066"/>
</g>
<!-- Node11 -->
<g id="node12" class="node">
<title>Node11</title>
<g id="a_node12"><a xlink:href="osapi_8h.html" target="_top" xlink:title="osapi.h">
<polygon fill="#ffffff" stroke="#000000" points="81,-112.5 81,-131.5 130,-131.5 130,-112.5 81,-112.5"/>
<text text-anchor="middle" x="105.5" y="-119.5" font-family="Helvetica,sans-Serif" font-size="10.00" fill="#000000">osapi.h</text>
</a>
</g>
</g>
<!-- Node5&#45;&gt;Node11 -->
<g id="edge12" class="edge">
<title>Node5&#45;&gt;Node11</title>
<path fill="none" stroke="#191970" d="M149.2681,-168.2455C141.6683,-160.2155 130.7123,-148.6394 121.6632,-139.0781"/>
<polygon fill="#191970" stroke="#191970" points="124.042,-136.4998 114.6261,-131.6427 118.9579,-141.3115 124.042,-136.4998"/>
</g>
<!-- Node7 -->
<g id="node8" class="node">
<title>Node7</title>
<polygon fill="#ffffff" stroke="#bfbfbf" points="131,-.5 131,-19.5 180,-19.5 180,-.5 131,-.5"/>
<text text-anchor="middle" x="155.5" y="-7.5" font-family="Helvetica,sans-Serif" font-size="10.00" fill="#000000">stdint.h</text>
</g>
<!-- Node6&#45;&gt;Node7 -->
<g id="edge7" class="edge">
<title>Node6&#45;&gt;Node7</title>
<path fill="none" stroke="#191970" d="M185.2293,-56.2455C180.2736,-48.5367 173.217,-37.5598 167.2224,-28.2348"/>
<polygon fill="#191970" stroke="#191970" points="170.0506,-26.1618 161.6989,-19.6427 164.1624,-29.9471 170.0506,-26.1618"/>
</g>
<!-- Node8 -->
<g id="node9" class="node">
<title>Node8</title>
<polygon fill="#ffffff" stroke="#bfbfbf" points="198,-.5 198,-19.5 255,-19.5 255,-.5 198,-.5"/>
<text text-anchor="middle" x="226.5" y="-7.5" font-family="Helvetica,sans-Serif" font-size="10.00" fill="#000000">stdbool.h</text>
</g>
<!-- Node6&#45;&gt;Node8 -->
<g id="edge8" class="edge">
<title>Node6&#45;&gt;Node8</title>
<path fill="none" stroke="#191970" d="M197.5965,-56.2455C202.4145,-48.5367 209.2751,-37.5598 215.1032,-28.2348"/>
<polygon fill="#191970" stroke="#191970" points="218.1413,-29.9777 220.4733,-19.6427 212.2053,-26.2677 218.1413,-29.9777"/>
</g>
<!-- Node9&#45;&gt;Node6 -->
<g id="edge10" class="edge">
<title>Node9&#45;&gt;Node6</title>
<path fill="none" stroke="#191970" d="M212.1453,-112.2455C208.7756,-104.6973 204.007,-94.0158 199.9017,-84.8197"/>
<polygon fill="#191970" stroke="#191970" points="203.0773,-83.3473 195.8048,-75.6427 196.6853,-86.2009 203.0773,-83.3473"/>
</g>
<!-- Node10 -->
<g id="node11" class="node">
<title>Node10</title>
<g id="a_node11"><a xlink:href="eagle__soc_8h.html" target="_top" xlink:title="eagle_soc.h">
<polygon fill="#ffffff" stroke="#000000" points="239.5,-56.5 239.5,-75.5 309.5,-75.5 309.5,-56.5 239.5,-56.5"/>
<text text-anchor="middle" x="274.5" y="-63.5" font-family="Helvetica,sans-Serif" font-size="10.00" fill="#000000">eagle_soc.h</text>
</a>
</g>
</g>
<!-- Node9&#45;&gt;Node10 -->
<g id="edge11" class="edge">
<title>Node9&#45;&gt;Node10</title>
<path fill="none" stroke="#191970" d="M226.6028,-112.2455C235.0028,-104.1352 247.1494,-92.4075 257.1084,-82.7919"/>
<polygon fill="#191970" stroke="#191970" points="259.75,-85.1066 264.5129,-75.6427 254.8878,-80.0707 259.75,-85.1066"/>
</g>
<!-- Node12 -->
<g id="node13" class="node">
<title>Node12</title>
<polygon fill="#ffffff" stroke="#bfbfbf" points="0,-56.5 0,-75.5 49,-75.5 49,-56.5 0,-56.5"/>
<text text-anchor="middle" x="24.5" y="-63.5" font-family="Helvetica,sans-Serif" font-size="10.00" fill="#000000">string.h</text>
</g>
<!-- Node11&#45;&gt;Node12 -->
<g id="edge13" class="edge">
<title>Node11&#45;&gt;Node12</title>
<path fill="none" stroke="#191970" d="M91.3909,-112.2455C79.0791,-103.7337 61.0042,-91.2375 46.7462,-81.3801"/>
<polygon fill="#191970" stroke="#191970" points="48.6634,-78.4506 38.4474,-75.6427 44.6826,-84.2085 48.6634,-78.4506"/>
</g>
<!-- Node13 -->
<g id="node14" class="node">
<title>Node13</title>
<polygon fill="#ffffff" stroke="#bfbfbf" points="67,-56.5 67,-75.5 144,-75.5 144,-56.5 67,-56.5"/>
<text text-anchor="middle" x="105.5" y="-63.5" font-family="Helvetica,sans-Serif" font-size="10.00" fill="#000000">user_config.h</text>
</g>
<!-- Node11&#45;&gt;Node13 -->
<g id="edge14" class="edge">
<title>Node11&#45;&gt;Node13</title>
<path fill="none" stroke="#191970" d="M105.5,-112.2455C105.5,-104.9382 105.5,-94.6944 105.5,-85.7046"/>
<polygon fill="#191970" stroke="#191970" points="109.0001,-85.6426 105.5,-75.6427 102.0001,-85.6427 109.0001,-85.6426"/>
</g>
<!-- Node14&#45;&gt;Node1 -->
<g id="edge16" class="edge">
<title>Node14&#45;&gt;Node1</title>
<path fill="none" stroke="#191970" d="M45.6028,-392.2455C54.0028,-384.1352 66.1494,-372.4075 76.1084,-362.7919"/>
<polygon fill="#191970" stroke="#191970" points="78.75,-365.1066 83.5129,-355.6427 73.8878,-360.0707 78.75,-365.1066"/>
</g>
<!-- Node14&#45;&gt;Node4 -->
<g id="edge17" class="edge">
<title>Node14&#45;&gt;Node4</title>
<path fill="none" stroke="#191970" d="M34.0188,-392.2619C31.1808,-369.9053 27.3817,-314.2015 53.5,-280 68.6882,-260.1112 94.2883,-248.6625 116.4076,-242.161"/>
<polygon fill="#191970" stroke="#191970" points="117.5266,-245.4846 126.2758,-239.5094 115.7101,-238.7244 117.5266,-245.4846"/>
</g>
<!-- Node15&#45;&gt;Node1 -->
<g id="edge19" class="edge">
<title>Node15&#45;&gt;Node1</title>
<path fill="none" stroke="#191970" d="M145.6402,-448.4509C136.2174,-429.936 115.3122,-388.8591 103.0265,-364.7187"/>
<polygon fill="#191970" stroke="#191970" points="106.0025,-362.8496 98.3475,-355.5249 99.7639,-366.0246 106.0025,-362.8496"/>
</g>
<!-- Node15&#45;&gt;Node10 -->
<g id="edge20" class="edge">
<title>Node15&#45;&gt;Node10</title>
<path fill="none" stroke="#191970" d="M180.9156,-452.0551C204.4684,-445.9121 236.2293,-434.012 255.5,-412 275.6067,-389.0332 274.5,-376.5246 274.5,-346 274.5,-346 274.5,-346 274.5,-178 274.5,-145.7116 274.5,-108.1872 274.5,-85.8048"/>
<polygon fill="#191970" stroke="#191970" points="278.0001,-85.5883 274.5,-75.5884 271.0001,-85.5884 278.0001,-85.5883"/>
</g>
<!-- Node15&#45;&gt;Node14 -->
<g id="edge21" class="edge">
<title>Node15&#45;&gt;Node14</title>
<path fill="none" stroke="#191970" d="M130.7308,-448.3733C112.3531,-439.4241 84.7688,-425.9917 64.0107,-415.8835"/>
<polygon fill="#191970" stroke="#191970" points="65.5343,-412.7325 55.0112,-411.5011 62.4696,-419.026 65.5343,-412.7325"/>
</g>
<!-- Node16 -->
<g id="node17" class="node">
<title>Node16</title>
<g id="a_node17"><a xlink:href="sys__arch_8h.html" target="_top" xlink:title="arch/sys_arch.h">
<polygon fill="#ffffff" stroke="#000000" points="159,-392.5 159,-411.5 246,-411.5 246,-392.5 159,-392.5"/>
<text text-anchor="middle" x="202.5" y="-399.5" font-family="Helvetica,sans-Serif" font-size="10.00" fill="#000000">arch/sys_arch.h</text>
</a>
</g>
</g>
<!-- Node15&#45;&gt;Node16 -->
<g id="edge22" class="edge">
<title>Node15&#45;&gt;Node16</title>
<path fill="none" stroke="#191970" d="M159.5577,-448.2455C167.0142,-440.2155 177.7634,-428.6394 186.6417,-419.0781"/>
<polygon fill="#191970" stroke="#191970" points="189.3063,-421.3522 193.5461,-411.6427 184.1768,-416.589 189.3063,-421.3522"/>
</g>
</g>
</svg>
