<?xml version="1.0" encoding="UTF-8" standalone="no"?>
<!DOCTYPE svg PUBLIC "-//W3C//DTD SVG 1.1//EN"
 "http://www.w3.org/Graphics/SVG/1.1/DTD/svg11.dtd">
<!-- Generated by graphviz version 2.39.20160927.1334 (20160927.1334)
 -->
<!-- Title: li2a Pages: 1 -->
<svg width="1341pt" height="889pt"
 viewBox="0.00 0.00 1341.00 888.57" xmlns="http://www.w3.org/2000/svg" xmlns:xlink="http://www.w3.org/1999/xlink">
<g id="graph0" class="graph" transform="scale(1 1) rotate(0) translate(4 884.566)">
<title>li2a</title>
<polygon fill="#ffffff" stroke="transparent" points="-4,4 -4,-884.566 1337,-884.566 1337,4 -4,4"/>
<!-- Node1 -->
<g id="node1" class="node">
<title>Node1</title>
<polygon fill="#bfbfbf" stroke="#000000" points="0,-500.066 0,-519.066 32,-519.066 32,-500.066 0,-500.066"/>
<text text-anchor="middle" x="16" y="-507.066" font-family="Helvetica,sans-Serif" font-size="10.00" fill="#000000">li2a</text>
</g>
<!-- Node2 -->
<g id="node2" class="node">
<title>Node2</title>
<g id="a_node2"><a xlink:href="tinyprintf_8h.html#a5877e42444463efc71a91b5fe76a6145" target="_top" xlink:title="tfp_format">
<polygon fill="#ffffff" stroke="#000000" points="68,-500.066 68,-519.066 130,-519.066 130,-500.066 68,-500.066"/>
<text text-anchor="middle" x="99" y="-507.066" font-family="Helvetica,sans-Serif" font-size="10.00" fill="#000000">tfp_format</text>
</a>
</g>
</g>
<!-- Node1&#45;&gt;Node2 -->
<g id="edge1" class="edge">
<title>Node1&#45;&gt;Node2</title>
<path fill="none" stroke="#191970" d="M42.1029,-509.566C50.2937,-509.566 59.4169,-509.566 67.9168,-509.566"/>
<polygon fill="#191970" stroke="#191970" points="42.0033,-506.066 32.0032,-509.566 42.0032,-513.066 42.0033,-506.066"/>
</g>
<!-- Node3 -->
<g id="node3" class="node">
<title>Node3</title>
<g id="a_node3"><a xlink:href="tinyprintf_8c.html#aac182690a3ca5e5cc504e13ebde4b031" target="_top" xlink:title="tfp_printf">
<polygon fill="#ffffff" stroke="#000000" points="174,-538.066 174,-557.066 229,-557.066 229,-538.066 174,-538.066"/>
<text text-anchor="middle" x="201.5" y="-545.066" font-family="Helvetica,sans-Serif" font-size="10.00" fill="#000000">tfp_printf</text>
</a>
</g>
</g>
<!-- Node2&#45;&gt;Node3 -->
<g id="edge2" class="edge">
<title>Node2&#45;&gt;Node3</title>
<path fill="none" stroke="#191970" d="M134.384,-522.684C147.941,-527.71 163.141,-533.345 175.643,-537.98"/>
<polygon fill="#191970" stroke="#191970" points="135.458,-519.349 124.865,-519.155 133.025,-525.913 135.458,-519.349"/>
</g>
<!-- Node4 -->
<g id="node4" class="node">
<title>Node4</title>
<g id="a_node4"><a xlink:href="tinyprintf_8h.html#a891fbd02fd3bfa5c0ca950a4191da9fe" target="_top" xlink:title="tfp_vsnprintf">
<polygon fill="#ffffff" stroke="#000000" points="166,-500.066 166,-519.066 237,-519.066 237,-500.066 166,-500.066"/>
<text text-anchor="middle" x="201.5" y="-507.066" font-family="Helvetica,sans-Serif" font-size="10.00" fill="#000000">tfp_vsnprintf</text>
</a>
</g>
</g>
<!-- Node2&#45;&gt;Node4 -->
<g id="edge3" class="edge">
<title>Node2&#45;&gt;Node4</title>
<path fill="none" stroke="#191970" d="M140.168,-509.566C148.69,-509.566 157.599,-509.566 165.902,-509.566"/>
<polygon fill="#191970" stroke="#191970" points="140.032,-506.066 130.032,-509.566 140.032,-513.066 140.032,-506.066"/>
</g>
<!-- Node41 -->
<g id="node41" class="node">
<title>Node41</title>
<g id="a_node41"><a xlink:href="tinyprintf_8h.html#a9e281947b52c96c7c8d1c0928c79f839" target="_top" xlink:title="tfp_vsprintf">
<polygon fill="#ffffff" stroke="#000000" points="169,-462.066 169,-481.066 234,-481.066 234,-462.066 169,-462.066"/>
<text text-anchor="middle" x="201.5" y="-469.066" font-family="Helvetica,sans-Serif" font-size="10.00" fill="#000000">tfp_vsprintf</text>
</a>
</g>
</g>
<!-- Node2&#45;&gt;Node41 -->
<g id="edge64" class="edge">
<title>Node2&#45;&gt;Node41</title>
<path fill="none" stroke="#191970" d="M134.384,-496.448C147.941,-491.422 163.141,-485.787 175.643,-481.152"/>
<polygon fill="#191970" stroke="#191970" points="133.025,-493.219 124.865,-499.977 135.458,-499.782 133.025,-493.219"/>
</g>
<!-- Node5 -->
<g id="node5" class="node">
<title>Node5</title>
<g id="a_node5"><a xlink:href="tinyprintf_8c.html#a9738cbc6c538d210941db282e240c7d6" target="_top" xlink:title="tfp_snprintf">
<polygon fill="#ffffff" stroke="#000000" points="273,-500.066 273,-519.066 339,-519.066 339,-500.066 273,-500.066"/>
<text text-anchor="middle" x="306" y="-507.066" font-family="Helvetica,sans-Serif" font-size="10.00" fill="#000000">tfp_snprintf</text>
</a>
</g>
</g>
<!-- Node4&#45;&gt;Node5 -->
<g id="edge4" class="edge">
<title>Node4&#45;&gt;Node5</title>
<path fill="none" stroke="#191970" d="M247.178,-509.566C255.849,-509.566 264.765,-509.566 272.951,-509.566"/>
<polygon fill="#191970" stroke="#191970" points="247.171,-506.066 237.171,-509.566 247.171,-513.066 247.171,-506.066"/>
</g>
<!-- Node6 -->
<g id="node6" class="node">
<title>Node6</title>
<g id="a_node6"><a xlink:href="config_8h.html#a92adb6c5103eed30e16185a9cd233e51" target="_top" xlink:title="cfg_load">
<polygon fill="#ffffff" stroke="#000000" points="402.5,-785.066 402.5,-804.066 456.5,-804.066 456.5,-785.066 402.5,-785.066"/>
<text text-anchor="middle" x="429.5" y="-792.066" font-family="Helvetica,sans-Serif" font-size="10.00" fill="#000000">cfg_load</text>
</a>
</g>
</g>
<!-- Node5&#45;&gt;Node6 -->
<g id="edge5" class="edge">
<title>Node5&#45;&gt;Node6</title>
<path fill="none" stroke="#191970" d="M308.947,-529.228C317.41,-583.425 343.23,-733.395 375,-770.566 382.053,-778.818 392.489,-784.338 402.346,-787.979"/>
<polygon fill="#191970" stroke="#191970" points="312.383,-528.546 307.408,-519.192 305.464,-529.607 312.383,-528.546"/>
</g>
<!-- Node7 -->
<g id="node7" class="node">
<title>Node7</title>
<g id="a_node7"><a xlink:href="user__main_8c.html#a245ec00253f410a8804988bf40e1037e" target="_top" xlink:title="sample_mode_timer_func">
<polygon fill="#ffffff" stroke="#000000" points="970,-350.066 970,-369.066 1102,-369.066 1102,-350.066 970,-350.066"/>
<text text-anchor="middle" x="1036" y="-357.066" font-family="Helvetica,sans-Serif" font-size="10.00" fill="#000000">sample_mode_timer_func</text>
</a>
</g>
</g>
<!-- Node5&#45;&gt;Node7 -->
<g id="edge53" class="edge">
<title>Node5&#45;&gt;Node7</title>
<path fill="none" stroke="#191970" d="M336.954,-493.252C337.691,-492.396 338.377,-491.501 339,-490.566 409.274,-385.031 282.202,-293.963 375,-207.566 422.239,-163.586 455.482,-201.344 520,-199.566 641.966,-196.204 676.615,-183.282 794,-216.566 855.199,-233.918 868.276,-246.135 923,-278.566 961.623,-301.454 1003.77,-333.842 1023.94,-349.843"/>
<polygon fill="#191970" stroke="#191970" points="334.502,-490.745 329.221,-499.929 339.077,-496.043 334.502,-490.745"/>
</g>
<!-- Node10 -->
<g id="node10" class="node">
<title>Node10</title>
<g id="a_node10"><a xlink:href="cgiwifi_8h.html#ace460e5ac8fd74afa8616bfc82561b26" target="_top" xlink:title="tplSetup">
<polygon fill="#ffffff" stroke="#000000" points="549.5,-747.066 549.5,-766.066 602.5,-766.066 602.5,-747.066 549.5,-747.066"/>
<text text-anchor="middle" x="576" y="-754.066" font-family="Helvetica,sans-Serif" font-size="10.00" fill="#000000">tplSetup</text>
</a>
</g>
</g>
<!-- Node5&#45;&gt;Node10 -->
<g id="edge22" class="edge">
<title>Node5&#45;&gt;Node10</title>
<path fill="none" stroke="#191970" d="M309.104,-529.229C317.459,-579.49 342.04,-710.606 375,-737.566 425.058,-778.51 507.364,-770.306 549.435,-762.529"/>
<polygon fill="#191970" stroke="#191970" points="312.548,-528.602 307.49,-519.292 305.639,-529.724 312.548,-528.602"/>
</g>
<!-- Node11 -->
<g id="node11" class="node">
<title>Node11</title>
<g id="a_node11"><a xlink:href="wifi_8c.html#a0be23fd8148c6a3abf21c739359bed52" target="_top" xlink:title="wifi_default">
<polygon fill="#ffffff" stroke="#000000" points="396,-137.066 396,-156.066 463,-156.066 463,-137.066 396,-137.066"/>
<text text-anchor="middle" x="429.5" y="-144.066" font-family="Helvetica,sans-Serif" font-size="10.00" fill="#000000">wifi_default</text>
</a>
</g>
</g>
<!-- Node5&#45;&gt;Node11 -->
<g id="edge11" class="edge">
<title>Node5&#45;&gt;Node11</title>
<path fill="none" stroke="#191970" d="M336.972,-493.264C337.704,-492.404 338.384,-491.506 339,-490.566 417.458,-370.868 290.219,-285.871 375,-170.566 380.144,-163.569 387.781,-158.58 395.72,-155.034"/>
<polygon fill="#191970" stroke="#191970" points="334.519,-490.758 329.265,-499.958 339.109,-496.043 334.519,-490.758"/>
</g>
<!-- Node14 -->
<g id="node14" class="node">
<title>Node14</title>
<g id="a_node14"><a xlink:href="wifi_8c.html#a9c38abb0900e0c7308be77d85dbf09e0" target="_top" xlink:title="wifi_connect">
<polygon fill="#ffffff" stroke="#000000" points="840.5,-108.066 840.5,-127.066 912.5,-127.066 912.5,-108.066 840.5,-108.066"/>
<text text-anchor="middle" x="876.5" y="-115.066" font-family="Helvetica,sans-Serif" font-size="10.00" fill="#000000">wifi_connect</text>
</a>
</g>
</g>
<!-- Node5&#45;&gt;Node14 -->
<g id="edge19" class="edge">
<title>Node5&#45;&gt;Node14</title>
<path fill="none" stroke="#191970" d="M337,-493.282C337.724,-492.417 338.395,-491.512 339,-490.566 387.203,-415.191 308.968,-149.935 375,-89.5656 394.404,-71.8258 505.283,-61.4976 794,-98.5656 809.89,-100.606 827.205,-104.353 841.851,-107.984"/>
<polygon fill="#191970" stroke="#191970" points="334.545,-490.778 329.333,-500.003 339.16,-496.042 334.545,-490.778"/>
</g>
<!-- Node15 -->
<g id="node15" class="node">
<title>Node15</title>
<g id="a_node15"><a xlink:href="wifi_8c.html#ac4389ba687a71cbb616f05b02427eb2a" target="_top" xlink:title="wifi_fallback">
<polygon fill="#ffffff" stroke="#000000" points="394.5,-99.0656 394.5,-118.066 464.5,-118.066 464.5,-99.0656 394.5,-99.0656"/>
<text text-anchor="middle" x="429.5" y="-106.066" font-family="Helvetica,sans-Serif" font-size="10.00" fill="#000000">wifi_fallback</text>
</a>
</g>
</g>
<!-- Node5&#45;&gt;Node15 -->
<g id="edge17" class="edge">
<title>Node5&#45;&gt;Node15</title>
<path fill="none" stroke="#191970" d="M336.988,-493.274C337.716,-492.412 338.39,-491.51 339,-490.566 426.981,-354.39 274.692,-254.934 375,-127.566 379.898,-121.347 386.963,-117.157 394.391,-114.335"/>
<polygon fill="#191970" stroke="#191970" points="334.534,-490.77 329.305,-499.984 339.139,-496.042 334.534,-490.77"/>
</g>
<!-- Node16 -->
<g id="node16" class="node">
<title>Node16</title>
<g id="a_node16"><a xlink:href="cgi_8h.html#a9b819389900e32ba95be37c2bb8d3854" target="_top" xlink:title="tplCounter">
<polygon fill="#ffffff" stroke="#000000" points="398,-633.066 398,-652.066 461,-652.066 461,-633.066 398,-633.066"/>
<text text-anchor="middle" x="429.5" y="-640.066" font-family="Helvetica,sans-Serif" font-size="10.00" fill="#000000">tplCounter</text>
</a>
</g>
</g>
<!-- Node5&#45;&gt;Node16 -->
<g id="edge20" class="edge">
<title>Node5&#45;&gt;Node16</title>
<path fill="none" stroke="#191970" d="M313.892,-528.756C324.574,-552.646 345.721,-593.368 375,-618.566 382.053,-624.635 390.882,-629.403 399.368,-633.035"/>
<polygon fill="#191970" stroke="#191970" points="317.016,-527.16 309.845,-519.361 310.587,-529.93 317.016,-527.16"/>
</g>
<!-- Node17 -->
<g id="node17" class="node">
<title>Node17</title>
<g id="a_node17"><a xlink:href="cgiwifi_8h.html#aa1b2a25d59b9eecb6f57b7d698686064" target="_top" xlink:title="cgiWiFiScan">
<polygon fill="#ffffff" stroke="#000000" points="540,-545.066 540,-564.066 612,-564.066 612,-545.066 540,-545.066"/>
<text text-anchor="middle" x="576" y="-552.066" font-family="Helvetica,sans-Serif" font-size="10.00" fill="#000000">cgiWiFiScan</text>
</a>
</g>
</g>
<!-- Node5&#45;&gt;Node17 -->
<g id="edge21" class="edge">
<title>Node5&#45;&gt;Node17</title>
<path fill="none" stroke="#191970" d="M349.157,-516.758C401.884,-525.546 490.156,-540.258 539.604,-548.5"/>
<polygon fill="#191970" stroke="#191970" points="349.547,-513.275 339.107,-515.084 348.396,-520.18 349.547,-513.275"/>
</g>
<!-- Node18 -->
<g id="node18" class="node">
<title>Node18</title>
<g id="a_node18"><a xlink:href="httpd_8h.html#ae029382c3db1b881163c89ac8cea96aa" target="_top" xlink:title="httpdStartResponse">
<polygon fill="#ffffff" stroke="#000000" points="377,-481.066 377,-500.066 482,-500.066 482,-481.066 377,-481.066"/>
<text text-anchor="middle" x="429.5" y="-488.066" font-family="Helvetica,sans-Serif" font-size="10.00" fill="#000000">httpdStartResponse</text>
</a>
</g>
</g>
<!-- Node5&#45;&gt;Node18 -->
<g id="edge23" class="edge">
<title>Node5&#45;&gt;Node18</title>
<path fill="none" stroke="#191970" d="M349.221,-502.916C358.111,-501.549 367.565,-500.094 376.747,-498.681"/>
<polygon fill="#191970" stroke="#191970" points="348.447,-499.494 339.096,-504.474 349.512,-506.413 348.447,-499.494"/>
</g>
<!-- Node23 -->
<g id="node23" class="node">
<title>Node23</title>
<g id="a_node23"><a xlink:href="httpd_8h.html#a4e03006e004d17ca91cc75f684cfe74d" target="_top" xlink:title="httpdHeader">
<polygon fill="#ffffff" stroke="#000000" points="393.5,-443.066 393.5,-462.066 465.5,-462.066 465.5,-443.066 393.5,-443.066"/>
<text text-anchor="middle" x="429.5" y="-450.066" font-family="Helvetica,sans-Serif" font-size="10.00" fill="#000000">httpdHeader</text>
</a>
</g>
</g>
<!-- Node5&#45;&gt;Node23 -->
<g id="edge29" class="edge">
<title>Node5&#45;&gt;Node23</title>
<path fill="none" stroke="#191970" d="M331.581,-494.892C347.492,-485.88 366.49,-475.36 375,-471.566 382.688,-468.138 391.198,-464.914 399.163,-462.129"/>
<polygon fill="#191970" stroke="#191970" points="329.632,-491.974 322.672,-499.961 333.094,-498.058 329.632,-491.974"/>
</g>
<!-- Node24 -->
<g id="node24" class="node">
<title>Node24</title>
<g id="a_node24"><a xlink:href="httpd_8h.html#ab27493bff23508040d0c672a95ecd3b6" target="_top" xlink:title="httpdRedirect">
<polygon fill="#ffffff" stroke="#000000" points="391.5,-317.066 391.5,-336.066 467.5,-336.066 467.5,-317.066 391.5,-317.066"/>
<text text-anchor="middle" x="429.5" y="-324.066" font-family="Helvetica,sans-Serif" font-size="10.00" fill="#000000">httpdRedirect</text>
</a>
</g>
</g>
<!-- Node5&#45;&gt;Node24 -->
<g id="edge35" class="edge">
<title>Node5&#45;&gt;Node24</title>
<path fill="none" stroke="#191970" d="M335.112,-494.1C336.483,-492.977 337.79,-491.798 339,-490.566 351.304,-478.036 407.273,-369.896 424.463,-336.408"/>
<polygon fill="#191970" stroke="#191970" points="332.979,-491.32 326.78,-499.912 336.984,-497.061 332.979,-491.32"/>
</g>
<!-- Node29 -->
<g id="node29" class="node">
<title>Node29</title>
<g id="a_node29"><a xlink:href="kmp_8h.html#aa1bdc213acbcb756d20dcf63d5cd387d" target="_top" xlink:title="kmp_value_to_string">
<polygon fill="#ffffff" stroke="#000000" points="375,-861.066 375,-880.066 484,-880.066 484,-861.066 375,-861.066"/>
<text text-anchor="middle" x="429.5" y="-868.066" font-family="Helvetica,sans-Serif" font-size="10.00" fill="#000000">kmp_value_to_string</text>
</a>
</g>
</g>
<!-- Node5&#45;&gt;Node29 -->
<g id="edge40" class="edge">
<title>Node5&#45;&gt;Node29</title>
<path fill="none" stroke="#191970" d="M307.672,-529.23C313.494,-593.594 334.755,-796.694 375,-846.566 380.064,-852.841 387.102,-857.521 394.44,-860.994"/>
<polygon fill="#191970" stroke="#191970" points="311.152,-528.855 306.789,-519.2 304.179,-529.469 311.152,-528.855"/>
</g>
<!-- Node30 -->
<g id="node30" class="node">
<title>Node30</title>
<g id="a_node30"><a xlink:href="kmp__request_8c.html#a3f6b790a06b933b78f40ade5e9a16131" target="_top" xlink:title="kmp_received_task">
<polygon fill="#ffffff" stroke="#000000" points="524.5,-861.066 524.5,-880.066 627.5,-880.066 627.5,-861.066 524.5,-861.066"/>
<text text-anchor="middle" x="576" y="-868.066" font-family="Helvetica,sans-Serif" font-size="10.00" fill="#000000">kmp_received_task</text>
</a>
</g>
</g>
<!-- Node5&#45;&gt;Node30 -->
<g id="edge44" class="edge">
<title>Node5&#45;&gt;Node30</title>
<path fill="none" stroke="#191970" d="M307.888,-529.458C314.048,-590.234 335.468,-771.875 375,-813.566 386.044,-825.212 477.903,-848.002 533.545,-860.959"/>
<polygon fill="#191970" stroke="#191970" points="311.35,-528.892 306.887,-519.283 304.383,-529.578 311.35,-528.892"/>
</g>
<!-- Node32 -->
<g id="node32" class="node">
<title>Node32</title>
<g id="a_node32"><a xlink:href="kmp__request_8h.html#a3b022dcdc832786eb06126b5e6879604" target="_top" xlink:title="kmp_request_send">
<polygon fill="#ffffff" stroke="#000000" points="378.5,-671.066 378.5,-690.066 480.5,-690.066 480.5,-671.066 378.5,-671.066"/>
<text text-anchor="middle" x="429.5" y="-678.066" font-family="Helvetica,sans-Serif" font-size="10.00" fill="#000000">kmp_request_send</text>
</a>
</g>
</g>
<!-- Node5&#45;&gt;Node32 -->
<g id="edge45" class="edge">
<title>Node5&#45;&gt;Node32</title>
<path fill="none" stroke="#191970" d="M309.72,-529.259C316.795,-561.405 335.182,-625.204 375,-661.566 379.218,-665.417 384.259,-668.495 389.548,-670.954"/>
<polygon fill="#191970" stroke="#191970" points="313.116,-528.396 307.673,-519.306 306.26,-529.806 313.116,-528.396"/>
</g>
<!-- Node35 -->
<g id="node35" class="node">
<title>Node35</title>
<g id="a_node35"><a xlink:href="user__main_8c.html#af2c051d5ceacd30f90c08d6f584deff2" target="_top" xlink:title="sample_timer_func">
<polygon fill="#ffffff" stroke="#000000" points="525.5,-621.066 525.5,-640.066 626.5,-640.066 626.5,-621.066 525.5,-621.066"/>
<text text-anchor="middle" x="576" y="-628.066" font-family="Helvetica,sans-Serif" font-size="10.00" fill="#000000">sample_timer_func</text>
</a>
</g>
</g>
<!-- Node5&#45;&gt;Node35 -->
<g id="edge56" class="edge">
<title>Node5&#45;&gt;Node35</title>
<path fill="none" stroke="#191970" d="M318.9,-527.721C331.414,-543.985 351.865,-567.266 375,-580.566 421.762,-607.448 482.733,-619.994 525.207,-625.774"/>
<polygon fill="#191970" stroke="#191970" points="321.573,-525.45 312.797,-519.515 315.956,-529.628 321.573,-525.45"/>
</g>
<!-- Node36 -->
<g id="node36" class="node">
<title>Node36</title>
<g id="a_node36"><a xlink:href="user__main_8h.html#a06f2b383d99fcad9d0f37d1ca2224898" target="_top" xlink:title="mqttConnectedCb">
<polygon fill="#ffffff" stroke="#000000" points="682.5,-583.066 682.5,-602.066 779.5,-602.066 779.5,-583.066 682.5,-583.066"/>
<text text-anchor="middle" x="731" y="-590.066" font-family="Helvetica,sans-Serif" font-size="10.00" fill="#000000">mqttConnectedCb</text>
</a>
</g>
</g>
<!-- Node5&#45;&gt;Node36 -->
<g id="edge57" class="edge">
<title>Node5&#45;&gt;Node36</title>
<path fill="none" stroke="#191970" d="M330.985,-524.32C343.782,-531.333 359.829,-539.311 375,-544.566 480.486,-581.1 612.507,-590.011 682.383,-592.066"/>
<polygon fill="#191970" stroke="#191970" points="332.332,-521.062 321.901,-519.207 328.898,-527.162 332.332,-521.062"/>
</g>
<!-- Node37 -->
<g id="node37" class="node">
<title>Node37</title>
<g id="a_node37"><a xlink:href="user__main_8c.html#aca4c3403260c8a02d8a445795842f53e" target="_top" xlink:title="config_mode_timer_func">
<polygon fill="#ffffff" stroke="#000000" points="668,-23.0656 668,-42.0656 794,-42.0656 794,-23.0656 668,-23.0656"/>
<text text-anchor="middle" x="731" y="-30.0656" font-family="Helvetica,sans-Serif" font-size="10.00" fill="#000000">config_mode_timer_func</text>
</a>
</g>
</g>
<!-- Node5&#45;&gt;Node37 -->
<g id="edge54" class="edge">
<title>Node5&#45;&gt;Node37</title>
<path fill="none" stroke="#191970" d="M337.008,-493.287C337.73,-492.421 338.398,-491.514 339,-490.566 390.862,-408.86 306.043,-124.466 375,-56.5656 463.279,30.3599 630.907,-3.88729 700.02,-23.0299"/>
<polygon fill="#191970" stroke="#191970" points="334.553,-490.784 329.354,-500.016 339.175,-496.042 334.553,-490.784"/>
</g>
<!-- Node38 -->
<g id="node38" class="node">
<title>Node38</title>
<g id="a_node38"><a xlink:href="user__main_8h.html#a53fca5688835df983e3ff1a91d387618" target="_top" xlink:title="mqttDataCb">
<polygon fill="#ffffff" stroke="#000000" points="841.5,-288.066 841.5,-307.066 911.5,-307.066 911.5,-288.066 841.5,-288.066"/>
<text text-anchor="middle" x="876.5" y="-295.066" font-family="Helvetica,sans-Serif" font-size="10.00" fill="#000000">mqttDataCb</text>
</a>
</g>
</g>
<!-- Node5&#45;&gt;Node38 -->
<g id="edge58" class="edge">
<title>Node5&#45;&gt;Node38</title>
<path fill="none" stroke="#191970" d="M336.912,-493.223C337.661,-492.375 338.361,-491.49 339,-490.566 395.596,-408.709 308.045,-343.191 375,-269.566 504.512,-127.151 783.566,-251.166 857.96,-288.019"/>
<polygon fill="#191970" stroke="#191970" points="334.463,-490.711 329.115,-499.858 338.999,-496.042 334.463,-490.711"/>
</g>
<!-- Node39 -->
<g id="node39" class="node">
<title>Node39</title>
<g id="a_node39"><a xlink:href="utils_8h.html#a39c867e4c89519352139d2a416f80046" target="_top" xlink:title="w_to_kw_str">
<polygon fill="#ffffff" stroke="#000000" points="393.5,-709.066 393.5,-728.066 465.5,-728.066 465.5,-709.066 393.5,-709.066"/>
<text text-anchor="middle" x="429.5" y="-716.066" font-family="Helvetica,sans-Serif" font-size="10.00" fill="#000000">w_to_kw_str</text>
</a>
</g>
</g>
<!-- Node5&#45;&gt;Node39 -->
<g id="edge60" class="edge">
<title>Node5&#45;&gt;Node39</title>
<path fill="none" stroke="#191970" d="M307.72,-529.759C312.053,-568.127 326.791,-651.975 375,-699.566 380.134,-704.634 386.692,-708.355 393.465,-711.084"/>
<polygon fill="#191970" stroke="#191970" points="311.162,-529.003 306.684,-519.402 304.197,-529.7 311.162,-529.003"/>
</g>
<!-- Node40 -->
<g id="node40" class="node">
<title>Node40</title>
<g id="a_node40"><a xlink:href="utils_8h.html#a84a001f12bbadea0d207701a1dfd63fa" target="_top" xlink:title="kw_to_w_str">
<polygon fill="#ffffff" stroke="#000000" points="393.5,-279.066 393.5,-298.066 465.5,-298.066 465.5,-279.066 393.5,-279.066"/>
<text text-anchor="middle" x="429.5" y="-286.066" font-family="Helvetica,sans-Serif" font-size="10.00" fill="#000000">kw_to_w_str</text>
</a>
</g>
</g>
<!-- Node5&#45;&gt;Node40 -->
<g id="edge62" class="edge">
<title>Node5&#45;&gt;Node40</title>
<path fill="none" stroke="#191970" d="M336.508,-493.591C337.406,-492.632 338.242,-491.624 339,-490.566 387.252,-423.165 320.667,-370.168 375,-307.566 379.86,-301.966 386.465,-298.015 393.399,-295.229"/>
<polygon fill="#191970" stroke="#191970" points="334.194,-490.962 328.681,-500.01 338.633,-496.374 334.194,-490.962"/>
</g>
<!-- Node6&#45;&gt;Node7 -->
<g id="edge6" class="edge">
<title>Node6&#45;&gt;Node7</title>
<path fill="none" stroke="#191970" d="M466.593,-798.225C508.702,-800.803 578.484,-800.214 632,-775.566 841.403,-679.118 999.446,-422.344 1030.45,-369.253"/>
<polygon fill="#191970" stroke="#191970" points="466.732,-794.726 456.511,-797.513 466.239,-801.708 466.732,-794.726"/>
</g>
<!-- Node9 -->
<g id="node9" class="node">
<title>Node9</title>
<g id="a_node9"><a xlink:href="user__main_8h.html#a33113d6dedb440bd7dfa5576e325140c" target="_top" xlink:title="user_init">
<polygon fill="#ffffff" stroke="#000000" points="1279,-823.066 1279,-842.066 1333,-842.066 1333,-823.066 1279,-823.066"/>
<text text-anchor="middle" x="1306" y="-830.066" font-family="Helvetica,sans-Serif" font-size="10.00" fill="#000000">user_init</text>
</a>
</g>
</g>
<!-- Node6&#45;&gt;Node9 -->
<g id="edge10" class="edge">
<title>Node6&#45;&gt;Node9</title>
<path fill="none" stroke="#191970" d="M466.732,-802.312C523.48,-813.424 635.144,-832.566 731,-832.566 731,-832.566 731,-832.566 1036,-832.566 1124.83,-832.566 1230.09,-832.566 1278.79,-832.566"/>
<polygon fill="#191970" stroke="#191970" points="467.282,-798.853 456.792,-800.337 465.918,-805.719 467.282,-798.853"/>
</g>
<!-- Node6&#45;&gt;Node10 -->
<g id="edge9" class="edge">
<title>Node6&#45;&gt;Node10</title>
<path fill="none" stroke="#191970" d="M466.534,-784.96C492.373,-778.257 526.246,-769.471 549.427,-763.458"/>
<polygon fill="#191970" stroke="#191970" points="465.513,-781.608 456.712,-787.507 467.271,-788.384 465.513,-781.608"/>
</g>
<!-- Node8 -->
<g id="node8" class="node">
<title>Node8</title>
<g id="a_node8"><a xlink:href="user__main_8h.html#a3671381db669a16e8f6a4bf3dfb9a441" target="_top" xlink:title="system_init_done">
<polygon fill="#ffffff" stroke="#000000" points="1149,-496.066 1149,-515.066 1243,-515.066 1243,-496.066 1149,-496.066"/>
<text text-anchor="middle" x="1196" y="-503.066" font-family="Helvetica,sans-Serif" font-size="10.00" fill="#000000">system_init_done</text>
</a>
</g>
</g>
<!-- Node7&#45;&gt;Node8 -->
<g id="edge7" class="edge">
<title>Node7&#45;&gt;Node8</title>
<path fill="none" stroke="#191970" d="M1054.17,-376.149C1087.7,-406.744 1158.32,-471.183 1185.25,-495.759"/>
<polygon fill="#191970" stroke="#191970" points="1056.24,-373.3 1046.5,-369.145 1051.53,-378.471 1056.24,-373.3"/>
</g>
<!-- Node8&#45;&gt;Node9 -->
<g id="edge8" class="edge">
<title>Node8&#45;&gt;Node9</title>
<path fill="none" stroke="#191970" d="M1202.55,-525.043C1223.36,-586.901 1287.47,-777.486 1302.72,-822.817"/>
<polygon fill="#191970" stroke="#191970" points="1205.8,-523.714 1199.29,-515.352 1199.16,-525.946 1205.8,-523.714"/>
</g>
<!-- Node12 -->
<g id="node12" class="node">
<title>Node12</title>
<g id="a_node12"><a xlink:href="wifi_8c.html#a1ef15ecd9e69811f6db10215c7196281" target="_top" xlink:title="wifi_scan_done_cb">
<polygon fill="#ffffff" stroke="#000000" points="525,-108.066 525,-127.066 627,-127.066 627,-108.066 525,-108.066"/>
<text text-anchor="middle" x="576" y="-115.066" font-family="Helvetica,sans-Serif" font-size="10.00" fill="#000000">wifi_scan_done_cb</text>
</a>
</g>
</g>
<!-- Node11&#45;&gt;Node12 -->
<g id="edge12" class="edge">
<title>Node11&#45;&gt;Node12</title>
<path fill="none" stroke="#191970" d="M472.93,-137.969C490.195,-134.551 510.124,-130.606 527.83,-127.101"/>
<polygon fill="#191970" stroke="#191970" points="472.24,-134.537 463.11,-139.912 473.599,-141.404 472.24,-134.537"/>
</g>
<!-- Node13 -->
<g id="node13" class="node">
<title>Node13</title>
<g id="a_node13"><a xlink:href="wifi_8c.html#ae7011f25db54676b86fefe2caa450a4a" target="_top" xlink:title="wifi_scan_timer_func">
<polygon fill="#ffffff" stroke="#000000" points="676,-108.066 676,-127.066 786,-127.066 786,-108.066 676,-108.066"/>
<text text-anchor="middle" x="731" y="-115.066" font-family="Helvetica,sans-Serif" font-size="10.00" fill="#000000">wifi_scan_timer_func</text>
</a>
</g>
</g>
<!-- Node12&#45;&gt;Node13 -->
<g id="edge13" class="edge">
<title>Node12&#45;&gt;Node13</title>
<path fill="none" stroke="#191970" d="M637.247,-110.949C649.996,-110.737 663.359,-110.778 675.871,-111.072"/>
<polygon fill="#191970" stroke="#191970" points="637.102,-107.452 627.182,-111.174 637.258,-114.45 637.102,-107.452"/>
</g>
<!-- Node13&#45;&gt;Node12 -->
<g id="edge16" class="edge">
<title>Node13&#45;&gt;Node12</title>
<path fill="none" stroke="#191970" d="M665.682,-124.241C652.82,-124.4 639.498,-124.305 627.182,-123.957"/>
<polygon fill="#191970" stroke="#191970" points="665.935,-127.737 675.871,-124.059 665.81,-120.738 665.935,-127.737"/>
</g>
<!-- Node13&#45;&gt;Node14 -->
<g id="edge14" class="edge">
<title>Node13&#45;&gt;Node14</title>
<path fill="none" stroke="#191970" d="M796.371,-117.566C811.488,-117.566 827.033,-117.566 840.361,-117.566"/>
<polygon fill="#191970" stroke="#191970" points="796.007,-114.066 786.007,-117.566 796.007,-121.066 796.007,-114.066"/>
</g>
<!-- Node14&#45;&gt;Node7 -->
<g id="edge15" class="edge">
<title>Node14&#45;&gt;Node7</title>
<path fill="none" stroke="#191970" d="M896.787,-133.885C905.464,-141.453 915.337,-150.903 923,-160.566 975.335,-226.561 1018.48,-319.724 1031.77,-349.799"/>
<polygon fill="#191970" stroke="#191970" points="898.844,-131.04 888.946,-127.259 894.325,-136.387 898.844,-131.04"/>
</g>
<!-- Node15&#45;&gt;Node12 -->
<g id="edge18" class="edge">
<title>Node15&#45;&gt;Node12</title>
<path fill="none" stroke="#191970" d="M474.686,-111.342C490.561,-112.317 508.508,-113.419 524.839,-114.423"/>
<polygon fill="#191970" stroke="#191970" points="474.786,-107.841 464.59,-110.721 474.357,-114.828 474.786,-107.841"/>
</g>
<!-- Node18&#45;&gt;Node17 -->
<g id="edge28" class="edge">
<title>Node18&#45;&gt;Node17</title>
<path fill="none" stroke="#191970" d="M462.366,-504.32C469.566,-507.532 477.098,-511.047 484,-514.566 500.503,-522.978 503.144,-527.884 520,-535.566 527.661,-539.057 536.159,-542.261 544.173,-545.003"/>
<polygon fill="#191970" stroke="#191970" points="463.406,-500.955 452.842,-500.155 460.602,-507.368 463.406,-500.955"/>
</g>
<!-- Node19 -->
<g id="node19" class="node">
<title>Node19</title>
<g id="a_node19"><a xlink:href="auth_8h.html#ac81ed03345875f282828a190baba0987" target="_top" xlink:title="authBasic">
<polygon fill="#ffffff" stroke="#000000" points="546,-469.066 546,-488.066 606,-488.066 606,-469.066 546,-469.066"/>
<text text-anchor="middle" x="576" y="-476.066" font-family="Helvetica,sans-Serif" font-size="10.00" fill="#000000">authBasic</text>
</a>
</g>
</g>
<!-- Node18&#45;&gt;Node19 -->
<g id="edge24" class="edge">
<title>Node18&#45;&gt;Node19</title>
<path fill="none" stroke="#191970" d="M492.531,-485.403C511.004,-483.89 530.361,-482.304 545.778,-481.041"/>
<polygon fill="#191970" stroke="#191970" points="492.071,-481.929 482.39,-486.233 492.642,-488.905 492.071,-481.929"/>
</g>
<!-- Node20 -->
<g id="node20" class="node">
<title>Node20</title>
<g id="a_node20"><a xlink:href="httpdespfs_8h.html#aa502116e50052d973b6eef02a6282dd3" target="_top" xlink:title="cgiEspFsHook">
<polygon fill="#ffffff" stroke="#000000" points="535.5,-431.066 535.5,-450.066 616.5,-450.066 616.5,-431.066 535.5,-431.066"/>
<text text-anchor="middle" x="576" y="-438.066" font-family="Helvetica,sans-Serif" font-size="10.00" fill="#000000">cgiEspFsHook</text>
</a>
</g>
</g>
<!-- Node18&#45;&gt;Node20 -->
<g id="edge25" class="edge">
<title>Node18&#45;&gt;Node20</title>
<path fill="none" stroke="#191970" d="M466.932,-477.716C483.23,-472.129 502.556,-465.512 520,-459.566 529.037,-456.485 538.899,-453.135 547.793,-450.118"/>
<polygon fill="#191970" stroke="#191970" points="465.543,-474.493 457.219,-481.047 467.813,-481.114 465.543,-474.493"/>
</g>
<!-- Node21 -->
<g id="node21" class="node">
<title>Node21</title>
<g id="a_node21"><a xlink:href="httpdespfs_8h.html#abc9eb26f247094e9fc41db897f6ec030" target="_top" xlink:title="cgiEspFsTemplate">
<polygon fill="#ffffff" stroke="#000000" points="526.5,-393.066 526.5,-412.066 625.5,-412.066 625.5,-393.066 526.5,-393.066"/>
<text text-anchor="middle" x="576" y="-400.066" font-family="Helvetica,sans-Serif" font-size="10.00" fill="#000000">cgiEspFsTemplate</text>
</a>
</g>
</g>
<!-- Node18&#45;&gt;Node21 -->
<g id="edge26" class="edge">
<title>Node18&#45;&gt;Node21</title>
<path fill="none" stroke="#191970" d="M476.027,-476.639C478.825,-475.11 481.511,-473.423 484,-471.566 505.946,-455.188 497.986,-437.851 520,-421.566 525.2,-417.719 531.232,-414.615 537.371,-412.121"/>
<polygon fill="#191970" stroke="#191970" points="474.349,-473.561 466.811,-481.007 477.347,-479.887 474.349,-473.561"/>
</g>
<!-- Node22 -->
<g id="node22" class="node">
<title>Node22</title>
<g id="a_node22"><a xlink:href="cgi_8h.html#a9e2e6fb536baf86996622cc52b446f66" target="_top" xlink:title="cgiReadFlash">
<polygon fill="#ffffff" stroke="#000000" points="537,-507.066 537,-526.066 615,-526.066 615,-507.066 537,-507.066"/>
<text text-anchor="middle" x="576" y="-514.066" font-family="Helvetica,sans-Serif" font-size="10.00" fill="#000000">cgiReadFlash</text>
</a>
</g>
</g>
<!-- Node18&#45;&gt;Node22 -->
<g id="edge27" class="edge">
<title>Node18&#45;&gt;Node22</title>
<path fill="none" stroke="#191970" d="M492.255,-501.703C507.444,-504.399 523.248,-507.204 536.981,-509.641"/>
<polygon fill="#191970" stroke="#191970" points="492.848,-498.254 482.39,-499.952 491.624,-505.146 492.848,-498.254"/>
</g>
<!-- Node23&#45;&gt;Node17 -->
<g id="edge34" class="edge">
<title>Node23&#45;&gt;Node17</title>
<path fill="none" stroke="#191970" d="M475.055,-465.477C478.24,-467.258 481.266,-469.277 484,-471.566 509.026,-492.513 494.887,-514.723 520,-535.566 525.767,-540.352 532.799,-543.954 539.905,-546.657"/>
<polygon fill="#191970" stroke="#191970" points="476.304,-462.196 465.77,-461.065 473.299,-468.518 476.304,-462.196"/>
</g>
<!-- Node23&#45;&gt;Node19 -->
<g id="edge30" class="edge">
<title>Node23&#45;&gt;Node19</title>
<path fill="none" stroke="#191970" d="M475.865,-460.794C498.66,-464.84 525.49,-469.601 545.637,-473.177"/>
<polygon fill="#191970" stroke="#191970" points="476.171,-457.294 465.713,-458.993 474.948,-464.186 476.171,-457.294"/>
</g>
<!-- Node23&#45;&gt;Node20 -->
<g id="edge31" class="edge">
<title>Node23&#45;&gt;Node20</title>
<path fill="none" stroke="#191970" d="M475.707,-448.781C494.823,-447.215 516.798,-445.415 535.296,-443.9"/>
<polygon fill="#191970" stroke="#191970" points="475.394,-445.295 465.713,-449.599 475.966,-452.271 475.394,-445.295"/>
</g>
<!-- Node23&#45;&gt;Node21 -->
<g id="edge32" class="edge">
<title>Node23&#45;&gt;Node21</title>
<path fill="none" stroke="#191970" d="M466.932,-439.716C483.23,-434.129 502.556,-427.512 520,-421.566 529.037,-418.485 538.899,-415.135 547.793,-412.118"/>
<polygon fill="#191970" stroke="#191970" points="465.543,-436.493 457.219,-443.047 467.813,-443.114 465.543,-436.493"/>
</g>
<!-- Node23&#45;&gt;Node22 -->
<g id="edge33" class="edge">
<title>Node23&#45;&gt;Node22</title>
<path fill="none" stroke="#191970" d="M471.364,-465.752C475.707,-467.535 479.993,-469.477 484,-471.566 501.502,-480.688 502.46,-488.517 520,-497.566 527.025,-501.19 534.891,-504.353 542.455,-507.004"/>
<polygon fill="#191970" stroke="#191970" points="472.443,-462.418 461.852,-462.11 469.939,-468.955 472.443,-462.418"/>
</g>
<!-- Node25 -->
<g id="node25" class="node">
<title>Node25</title>
<g id="a_node25"><a xlink:href="cgi_8h.html#a11febcd4d2ccd5bcab0a9332e78274fd" target="_top" xlink:title="cgiLed">
<polygon fill="#ffffff" stroke="#000000" points="553,-279.066 553,-298.066 599,-298.066 599,-279.066 553,-279.066"/>
<text text-anchor="middle" x="576" y="-286.066" font-family="Helvetica,sans-Serif" font-size="10.00" fill="#000000">cgiLed</text>
</a>
</g>
</g>
<!-- Node24&#45;&gt;Node25 -->
<g id="edge36" class="edge">
<title>Node24&#45;&gt;Node25</title>
<path fill="none" stroke="#191970" d="M476.335,-314.417C501.855,-307.798 532.315,-299.897 552.787,-294.587"/>
<polygon fill="#191970" stroke="#191970" points="475.269,-311.078 466.468,-316.977 477.027,-317.854 475.269,-311.078"/>
</g>
<!-- Node26 -->
<g id="node26" class="node">
<title>Node26</title>
<g id="a_node26"><a xlink:href="httpd_8h.html#ae7e718f51fe24926567ca743bce46246" target="_top" xlink:title="cgiRedirect">
<polygon fill="#ffffff" stroke="#000000" points="542.5,-355.066 542.5,-374.066 609.5,-374.066 609.5,-355.066 542.5,-355.066"/>
<text text-anchor="middle" x="576" y="-362.066" font-family="Helvetica,sans-Serif" font-size="10.00" fill="#000000">cgiRedirect</text>
</a>
</g>
</g>
<!-- Node24&#45;&gt;Node26 -->
<g id="edge37" class="edge">
<title>Node24&#45;&gt;Node26</title>
<path fill="none" stroke="#191970" d="M476.324,-338.711C497.692,-344.254 522.523,-350.694 542.056,-355.761"/>
<polygon fill="#191970" stroke="#191970" points="477.027,-335.278 466.468,-336.155 475.269,-342.053 477.027,-335.278"/>
</g>
<!-- Node27 -->
<g id="node27" class="node">
<title>Node27</title>
<g id="a_node27"><a xlink:href="cgiwifi_8h.html#a7c655a56f56ecebad923c5c4daeb7f1a" target="_top" xlink:title="cgiSetup">
<polygon fill="#ffffff" stroke="#000000" points="548.5,-241.066 548.5,-260.066 603.5,-260.066 603.5,-241.066 548.5,-241.066"/>
<text text-anchor="middle" x="576" y="-248.066" font-family="Helvetica,sans-Serif" font-size="10.00" fill="#000000">cgiSetup</text>
</a>
</g>
</g>
<!-- Node24&#45;&gt;Node27 -->
<g id="edge38" class="edge">
<title>Node24&#45;&gt;Node27</title>
<path fill="none" stroke="#191970" d="M474.174,-313.015C477.597,-311.373 480.915,-309.56 484,-307.566 503.537,-294.934 500.411,-282.115 520,-269.566 528.558,-264.083 538.872,-259.999 548.304,-257.053"/>
<polygon fill="#191970" stroke="#191970" points="472.769,-309.809 464.962,-316.971 475.532,-316.241 472.769,-309.809"/>
</g>
<!-- Node28 -->
<g id="node28" class="node">
<title>Node28</title>
<g id="a_node28"><a xlink:href="cgiwifi_8h.html#a4ba43d83032eea6839857ed163af5fc9" target="_top" xlink:title="cgiWifiSetMode">
<polygon fill="#ffffff" stroke="#000000" points="533,-317.066 533,-336.066 619,-336.066 619,-317.066 533,-317.066"/>
<text text-anchor="middle" x="576" y="-324.066" font-family="Helvetica,sans-Serif" font-size="10.00" fill="#000000">cgiWifiSetMode</text>
</a>
</g>
</g>
<!-- Node24&#45;&gt;Node28 -->
<g id="edge39" class="edge">
<title>Node24&#45;&gt;Node28</title>
<path fill="none" stroke="#191970" d="M477.789,-326.566C495.581,-326.566 515.605,-326.566 532.909,-326.566"/>
<polygon fill="#191970" stroke="#191970" points="477.609,-323.066 467.609,-326.566 477.609,-330.066 477.609,-323.066"/>
</g>
<!-- Node29&#45;&gt;Node30 -->
<g id="edge41" class="edge">
<title>Node29&#45;&gt;Node30</title>
<path fill="none" stroke="#191970" d="M494.069,-870.566C504.19,-870.566 514.535,-870.566 524.317,-870.566"/>
<polygon fill="#191970" stroke="#191970" points="494.051,-867.066 484.051,-870.566 494.051,-874.066 494.051,-867.066"/>
</g>
<!-- Node31 -->
<g id="node31" class="node">
<title>Node31</title>
<g id="a_node31"><a xlink:href="kmp__request_8h.html#a048753ff9d6b448e2dcd8c85db0d6873" target="_top" xlink:title="kmp_request_init">
<polygon fill="#ffffff" stroke="#000000" points="830,-861.066 830,-880.066 923,-880.066 923,-861.066 830,-861.066"/>
<text text-anchor="middle" x="876.5" y="-868.066" font-family="Helvetica,sans-Serif" font-size="10.00" fill="#000000">kmp_request_init</text>
</a>
</g>
</g>
<!-- Node30&#45;&gt;Node31 -->
<g id="edge42" class="edge">
<title>Node30&#45;&gt;Node31</title>
<path fill="none" stroke="#191970" d="M637.991,-870.566C695.044,-870.566 778.399,-870.566 829.952,-870.566"/>
<polygon fill="#191970" stroke="#191970" points="637.658,-867.066 627.658,-870.566 637.658,-874.066 637.658,-867.066"/>
</g>
<!-- Node31&#45;&gt;Node9 -->
<g id="edge43" class="edge">
<title>Node31&#45;&gt;Node9</title>
<path fill="none" stroke="#191970" d="M933.266,-869.541C1005.54,-867.621 1134.1,-862.137 1243,-846.566 1254.87,-844.869 1267.82,-842.144 1278.88,-839.548"/>
<polygon fill="#191970" stroke="#191970" points="932.929,-866.049 923.02,-869.8 933.105,-873.046 932.929,-866.049"/>
</g>
<!-- Node33 -->
<g id="node33" class="node">
<title>Node33</title>
<g id="a_node33"><a xlink:href="kmp__request_8c.html#a0977a4640a97d389ac3b0fef0ba7a9b6" target="_top" xlink:title="kmp_receive_timeout\l_timer_func">
<polygon fill="#ffffff" stroke="#000000" points="520,-659.566 520,-689.566 632,-689.566 632,-659.566 520,-659.566"/>
<text text-anchor="start" x="528" y="-677.566" font-family="Helvetica,sans-Serif" font-size="10.00" fill="#000000">kmp_receive_timeout</text>
<text text-anchor="middle" x="576" y="-666.566" font-family="Helvetica,sans-Serif" font-size="10.00" fill="#000000">_timer_func</text>
</a>
</g>
</g>
<!-- Node32&#45;&gt;Node33 -->
<g id="edge46" class="edge">
<title>Node32&#45;&gt;Node33</title>
<path fill="none" stroke="#191970" d="M490.97,-671.376C500.528,-670.857 510.361,-670.483 519.795,-670.283"/>
<polygon fill="#191970" stroke="#191970" points="490.509,-667.898 480.739,-671.996 490.932,-674.885 490.509,-667.898"/>
</g>
<!-- Node34 -->
<g id="node34" class="node">
<title>Node34</title>
<g id="a_node34"><a xlink:href="user__main_8c.html#a3648c609e8dd286eb90285b08b150362" target="_top" xlink:title="kmp_request_send_timer_func">
<polygon fill="#ffffff" stroke="#000000" points="959,-580.066 959,-599.066 1113,-599.066 1113,-580.066 959,-580.066"/>
<text text-anchor="middle" x="1036" y="-587.066" font-family="Helvetica,sans-Serif" font-size="10.00" fill="#000000">kmp_request_send_timer_func</text>
</a>
</g>
</g>
<!-- Node32&#45;&gt;Node34 -->
<g id="edge48" class="edge">
<title>Node32&#45;&gt;Node34</title>
<path fill="none" stroke="#191970" d="M478.806,-692.194C492.101,-694.829 506.534,-697.239 520,-698.566 569.538,-703.444 582.654,-705.106 632,-698.566 778.195,-679.19 946.569,-622.004 1010.02,-599.156"/>
<polygon fill="#191970" stroke="#191970" points="479.397,-688.742 468.896,-690.149 477.982,-695.597 479.397,-688.742"/>
</g>
<!-- Node32&#45;&gt;Node35 -->
<g id="edge50" class="edge">
<title>Node32&#45;&gt;Node35</title>
<path fill="none" stroke="#191970" d="M466.932,-667.716C483.23,-662.129 502.556,-655.512 520,-649.566 529.037,-646.485 538.899,-643.135 547.793,-640.118"/>
<polygon fill="#191970" stroke="#191970" points="465.543,-664.493 457.219,-671.047 467.813,-671.114 465.543,-664.493"/>
</g>
<!-- Node33&#45;&gt;Node32 -->
<g id="edge47" class="edge">
<title>Node33&#45;&gt;Node32</title>
<path fill="none" stroke="#191970" d="M509.741,-684.002C500.008,-684.477 490.108,-684.799 480.739,-684.939"/>
<polygon fill="#191970" stroke="#191970" points="510.001,-687.493 519.795,-683.452 509.618,-680.503 510.001,-687.493"/>
</g>
<!-- Node34&#45;&gt;Node8 -->
<g id="edge49" class="edge">
<title>Node34&#45;&gt;Node8</title>
<path fill="none" stroke="#191970" d="M1063.38,-575.191C1096.09,-558.017 1149.9,-529.768 1177.86,-515.089"/>
<polygon fill="#191970" stroke="#191970" points="1061.58,-572.182 1054.35,-579.93 1064.83,-578.38 1061.58,-572.182"/>
</g>
<!-- Node35&#45;&gt;Node36 -->
<g id="edge51" class="edge">
<title>Node35&#45;&gt;Node36</title>
<path fill="none" stroke="#191970" d="M625.111,-618.526C646.765,-613.217 671.85,-607.067 692.168,-602.086"/>
<polygon fill="#191970" stroke="#191970" points="623.992,-615.196 615.113,-620.977 625.659,-621.995 623.992,-615.196"/>
</g>
<!-- Node36&#45;&gt;Node7 -->
<g id="edge52" class="edge">
<title>Node36&#45;&gt;Node7</title>
<path fill="none" stroke="#191970" d="M751.887,-576.609C810.61,-531.749 975.954,-405.437 1023.23,-369.322"/>
<polygon fill="#191970" stroke="#191970" points="749.539,-573.999 743.717,-582.851 753.788,-579.561 749.539,-573.999"/>
</g>
<!-- Node37&#45;&gt;Node8 -->
<g id="edge55" class="edge">
<title>Node37&#45;&gt;Node8</title>
<path fill="none" stroke="#191970" d="M793.502,-44.4676C833.256,-54.2448 884.337,-71.0723 923,-98.5656 1081.09,-210.987 1174.13,-445.996 1192.59,-496.059"/>
<polygon fill="#191970" stroke="#191970" points="794.192,-41.0341 783.654,-42.1316 792.576,-47.8451 794.192,-41.0341"/>
</g>
<!-- Node38&#45;&gt;Node7 -->
<g id="edge59" class="edge">
<title>Node38&#45;&gt;Node7</title>
<path fill="none" stroke="#191970" d="M910.399,-310.743C940.689,-322.517 984.342,-339.486 1011.4,-350.003"/>
<polygon fill="#191970" stroke="#191970" points="911.661,-307.478 901.072,-307.117 909.125,-314.003 911.661,-307.478"/>
</g>
<!-- Node39&#45;&gt;Node10 -->
<g id="edge61" class="edge">
<title>Node39&#45;&gt;Node10</title>
<path fill="none" stroke="#191970" d="M475.468,-730.489C499.796,-736.799 528.808,-744.325 549.398,-749.666"/>
<polygon fill="#191970" stroke="#191970" points="476.272,-727.082 465.713,-727.959 474.514,-733.858 476.272,-727.082"/>
</g>
<!-- Node40&#45;&gt;Node27 -->
<g id="edge63" class="edge">
<title>Node40&#45;&gt;Node27</title>
<path fill="none" stroke="#191970" d="M475.657,-276.593C499.584,-270.387 528,-263.016 548.474,-257.705"/>
<polygon fill="#191970" stroke="#191970" points="474.514,-273.274 465.713,-279.172 476.272,-280.049 474.514,-273.274"/>
</g>
<!-- Node42 -->
<g id="node42" class="node">
<title>Node42</title>
<g id="a_node42"><a xlink:href="tinyprintf_8c.html#a8bf8573d91b42212de9e8c3ba2979bc9" target="_top" xlink:title="tfp_sprintf">
<polygon fill="#ffffff" stroke="#000000" points="276,-462.066 276,-481.066 336,-481.066 336,-462.066 276,-462.066"/>
<text text-anchor="middle" x="306" y="-469.066" font-family="Helvetica,sans-Serif" font-size="10.00" fill="#000000">tfp_sprintf</text>
</a>
</g>
</g>
<!-- Node41&#45;&gt;Node42 -->
<g id="edge65" class="edge">
<title>Node41&#45;&gt;Node42</title>
<path fill="none" stroke="#191970" d="M244.546,-471.566C255.05,-471.566 266.067,-471.566 275.826,-471.566"/>
<polygon fill="#191970" stroke="#191970" points="244.278,-468.066 234.278,-471.566 244.278,-475.066 244.278,-468.066"/>
</g>
</g>
</svg>
