<?xml version="1.0" encoding="UTF-8" standalone="no"?>
<!DOCTYPE svg PUBLIC "-//W3C//DTD SVG 1.1//EN"
 "http://www.w3.org/Graphics/SVG/1.1/DTD/svg11.dtd">
<!-- Generated by graphviz version 2.41.20170323.1842 (20170323.1842)
 -->
<!-- Title: user/tinyprintf.c Pages: 1 -->
<svg width="1990pt" height="196pt"
 viewBox="0.00 0.00 1990.00 196.00" xmlns="http://www.w3.org/2000/svg" xmlns:xlink="http://www.w3.org/1999/xlink">
<g id="graph0" class="graph" transform="scale(1 1) rotate(0) translate(4 192)">
<title>user/tinyprintf.c</title>
<polygon fill="#ffffff" stroke="transparent" points="-4,4 -4,-192 1986,-192 1986,4 -4,4"/>
<!-- Node0 -->
<g id="node1" class="node">
<title>Node0</title>
<polygon fill="#bfbfbf" stroke="#000000" points="1832.5,-168.5 1832.5,-187.5 1916.5,-187.5 1916.5,-168.5 1832.5,-168.5"/>
<text text-anchor="middle" x="1874.5" y="-175.5" font-family="Helvetica,sans-Serif" font-size="10.00" fill="#000000">user/tinyprintf.c</text>
</g>
<!-- Node1 -->
<g id="node2" class="node">
<title>Node1</title>
<g id="a_node2"><a xlink:href="esp8266_8h.html" target="_top" xlink:title="esp8266.h">
<polygon fill="#ffffff" stroke="#000000" points="1064,-112.5 1064,-131.5 1127,-131.5 1127,-112.5 1064,-112.5"/>
<text text-anchor="middle" x="1095.5" y="-119.5" font-family="Helvetica,sans-Serif" font-size="10.00" fill="#000000">esp8266.h</text>
</a>
</g>
</g>
<!-- Node0&#45;&gt;Node1 -->
<g id="edge1" class="edge">
<title>Node0&#45;&gt;Node1</title>
<path fill="none" stroke="#191970" d="M1832.3414,-174.9693C1696.794,-165.2252 1273.1322,-134.7695 1137.6281,-125.0285"/>
<polygon fill="#191970" stroke="#191970" points="1137.4899,-121.5096 1127.2647,-124.2835 1136.9879,-128.4916 1137.4899,-121.5096"/>
</g>
<!-- Node27 -->
<g id="node28" class="node">
<title>Node27</title>
<g id="a_node28"><a xlink:href="tinyprintf_8h.html" target="_top" xlink:title="tinyprintf.h">
<polygon fill="#ffffff" stroke="#000000" points="1843,-112.5 1843,-131.5 1906,-131.5 1906,-112.5 1843,-112.5"/>
<text text-anchor="middle" x="1874.5" y="-119.5" font-family="Helvetica,sans-Serif" font-size="10.00" fill="#000000">tinyprintf.h</text>
</a>
</g>
</g>
<!-- Node0&#45;&gt;Node27 -->
<g id="edge29" class="edge">
<title>Node0&#45;&gt;Node27</title>
<path fill="none" stroke="#191970" d="M1874.5,-168.2455C1874.5,-160.9382 1874.5,-150.6944 1874.5,-141.7046"/>
<polygon fill="#191970" stroke="#191970" points="1878.0001,-141.6426 1874.5,-131.6427 1871.0001,-141.6427 1878.0001,-141.6426"/>
</g>
<!-- Node29 -->
<g id="node30" class="node">
<title>Node29</title>
<polygon fill="#ffffff" stroke="#bfbfbf" points="1915,-56.5 1915,-75.5 1982,-75.5 1982,-56.5 1915,-56.5"/>
<text text-anchor="middle" x="1948.5" y="-63.5" font-family="Helvetica,sans-Serif" font-size="10.00" fill="#000000">sys/types.h</text>
</g>
<!-- Node0&#45;&gt;Node29 -->
<g id="edge32" class="edge">
<title>Node0&#45;&gt;Node29</title>
<path fill="none" stroke="#191970" d="M1884.4366,-168.4057C1893.2956,-159.5125 1906.2546,-145.636 1915.5,-132 1925.5829,-117.1288 1934.5226,-98.7427 1940.5454,-85.1564"/>
<polygon fill="#191970" stroke="#191970" points="1943.8165,-86.4095 1944.5532,-75.8403 1937.3862,-83.6432 1943.8165,-86.4095"/>
</g>
<!-- Node2 -->
<g id="node3" class="node">
<title>Node2</title>
<polygon fill="#ffffff" stroke="#bfbfbf" points="1502,-56.5 1502,-75.5 1551,-75.5 1551,-56.5 1502,-56.5"/>
<text text-anchor="middle" x="1526.5" y="-63.5" font-family="Helvetica,sans-Serif" font-size="10.00" fill="#000000">ctype.h</text>
</g>
<!-- Node1&#45;&gt;Node2 -->
<g id="edge2" class="edge">
<title>Node1&#45;&gt;Node2</title>
<path fill="none" stroke="#191970" d="M1127.1818,-120.1713C1193.2526,-115.9653 1350.6101,-103.9026 1491.6177,-75.86"/>
<polygon fill="#191970" stroke="#191970" points="1492.6325,-79.2257 1501.7405,-73.8132 1491.2452,-72.3646 1492.6325,-79.2257"/>
</g>
<!-- Node3 -->
<g id="node4" class="node">
<title>Node3</title>
<polygon fill="#ffffff" stroke="#bfbfbf" points="1569.5,-56.5 1569.5,-75.5 1615.5,-75.5 1615.5,-56.5 1569.5,-56.5"/>
<text text-anchor="middle" x="1592.5" y="-63.5" font-family="Helvetica,sans-Serif" font-size="10.00" fill="#000000">stdio.h</text>
</g>
<!-- Node1&#45;&gt;Node3 -->
<g id="edge3" class="edge">
<title>Node1&#45;&gt;Node3</title>
<path fill="none" stroke="#191970" d="M1127.0393,-120.9959C1200.9887,-118.1917 1391.3009,-108.3631 1559.2014,-75.6558"/>
<polygon fill="#191970" stroke="#191970" points="1560.0781,-79.0502 1569.2075,-73.6738 1558.718,-72.1836 1560.0781,-79.0502"/>
</g>
<!-- Node4 -->
<g id="node5" class="node">
<title>Node4</title>
<polygon fill="#ffffff" stroke="#bfbfbf" points="1633.5,-56.5 1633.5,-75.5 1681.5,-75.5 1681.5,-56.5 1633.5,-56.5"/>
<text text-anchor="middle" x="1657.5" y="-63.5" font-family="Helvetica,sans-Serif" font-size="10.00" fill="#000000">stdlib.h</text>
</g>
<!-- Node1&#45;&gt;Node4 -->
<g id="edge4" class="edge">
<title>Node1&#45;&gt;Node4</title>
<path fill="none" stroke="#191970" d="M1127.117,-121.5298C1208.2657,-119.8415 1430.4862,-112.1805 1623.4561,-75.8261"/>
<polygon fill="#191970" stroke="#191970" points="1624.331,-79.2223 1633.4942,-73.9037 1623.0143,-72.3472 1624.331,-79.2223"/>
</g>
<!-- Node5 -->
<g id="node6" class="node">
<title>Node5</title>
<polygon fill="#ffffff" stroke="#bfbfbf" points="1700,-56.5 1700,-75.5 1749,-75.5 1749,-56.5 1700,-56.5"/>
<text text-anchor="middle" x="1724.5" y="-63.5" font-family="Helvetica,sans-Serif" font-size="10.00" fill="#000000">string.h</text>
</g>
<!-- Node1&#45;&gt;Node5 -->
<g id="edge5" class="edge">
<title>Node1&#45;&gt;Node5</title>
<path fill="none" stroke="#191970" d="M1127.2192,-120.4243C1231.3094,-115.1198 1562.5899,-97.1452 1689.8782,-75.6769"/>
<polygon fill="#191970" stroke="#191970" points="1690.5264,-79.1167 1699.7622,-73.9253 1689.3048,-72.2241 1690.5264,-79.1167"/>
</g>
<!-- Node6 -->
<g id="node7" class="node">
<title>Node6</title>
<polygon fill="#ffffff" stroke="#bfbfbf" points="932,-.5 932,-19.5 991,-19.5 991,-.5 932,-.5"/>
<text text-anchor="middle" x="961.5" y="-7.5" font-family="Helvetica,sans-Serif" font-size="10.00" fill="#000000">c_types.h</text>
</g>
<!-- Node1&#45;&gt;Node6 -->
<g id="edge6" class="edge">
<title>Node1&#45;&gt;Node6</title>
<path fill="none" stroke="#191970" d="M1127.1431,-120.9897C1256.0417,-116.7236 1735.7404,-99.324 1757.5,-76 1763.5636,-69.5004 1763.6014,-62.4642 1757.5,-56 1731.29,-28.2316 1158.7646,-14.1552 1001.2799,-10.7995"/>
<polygon fill="#191970" stroke="#191970" points="1001.1647,-7.2964 991.0933,-10.5852 1001.0174,-14.2949 1001.1647,-7.2964"/>
</g>
<!-- Node7 -->
<g id="node8" class="node">
<title>Node7</title>
<polygon fill="#ffffff" stroke="#bfbfbf" points="138,-56.5 138,-75.5 191,-75.5 191,-56.5 138,-56.5"/>
<text text-anchor="middle" x="164.5" y="-63.5" font-family="Helvetica,sans-Serif" font-size="10.00" fill="#000000">lwip/ip.h</text>
</g>
<!-- Node1&#45;&gt;Node7 -->
<g id="edge7" class="edge">
<title>Node1&#45;&gt;Node7</title>
<path fill="none" stroke="#191970" d="M1063.7216,-121.3023C927.5198,-118.1708 391.7733,-104.3776 201.2521,-75.6865"/>
<polygon fill="#191970" stroke="#191970" points="201.5138,-72.1847 191.0913,-74.0877 200.4257,-79.0996 201.5138,-72.1847"/>
</g>
<!-- Node8 -->
<g id="node9" class="node">
<title>Node8</title>
<polygon fill="#ffffff" stroke="#bfbfbf" points="209.5,-56.5 209.5,-75.5 271.5,-75.5 271.5,-56.5 209.5,-56.5"/>
<text text-anchor="middle" x="240.5" y="-63.5" font-family="Helvetica,sans-Serif" font-size="10.00" fill="#000000">lwip/udp.h</text>
</g>
<!-- Node1&#45;&gt;Node8 -->
<g id="edge8" class="edge">
<title>Node1&#45;&gt;Node8</title>
<path fill="none" stroke="#191970" d="M1063.9812,-121.0168C936.127,-116.908 455.1522,-100.2553 281.8168,-75.8911"/>
<polygon fill="#191970" stroke="#191970" points="282.2317,-72.4146 271.8296,-74.4259 281.2156,-79.3404 282.2317,-72.4146"/>
</g>
<!-- Node9 -->
<g id="node10" class="node">
<title>Node9</title>
<polygon fill="#ffffff" stroke="#bfbfbf" points="289.5,-56.5 289.5,-75.5 371.5,-75.5 371.5,-56.5 289.5,-56.5"/>
<text text-anchor="middle" x="330.5" y="-63.5" font-family="Helvetica,sans-Serif" font-size="10.00" fill="#000000">lwip/tcp_impl.h</text>
</g>
<!-- Node1&#45;&gt;Node9 -->
<g id="edge9" class="edge">
<title>Node1&#45;&gt;Node9</title>
<path fill="none" stroke="#191970" d="M1063.9925,-121.4679C964.9466,-119.4799 650.9765,-110.7781 381.5944,-75.979"/>
<polygon fill="#191970" stroke="#191970" points="381.9976,-72.502 371.6284,-74.6768 381.0906,-79.443 381.9976,-72.502"/>
</g>
<!-- Node10 -->
<g id="node11" class="node">
<title>Node10</title>
<polygon fill="#ffffff" stroke="#bfbfbf" points="390,-56.5 390,-75.5 465,-75.5 465,-56.5 390,-56.5"/>
<text text-anchor="middle" x="427.5" y="-63.5" font-family="Helvetica,sans-Serif" font-size="10.00" fill="#000000">netif/etharp.h</text>
</g>
<!-- Node1&#45;&gt;Node10 -->
<g id="edge10" class="edge">
<title>Node1&#45;&gt;Node10</title>
<path fill="none" stroke="#191970" d="M1063.9972,-121.176C973.7912,-118.4972 706.6902,-108.3374 475.087,-75.8882"/>
<polygon fill="#191970" stroke="#191970" points="475.5221,-72.4149 465.1297,-74.4761 474.5391,-79.3456 475.5221,-72.4149"/>
</g>
<!-- Node11 -->
<g id="node12" class="node">
<title>Node11</title>
<polygon fill="#ffffff" stroke="#bfbfbf" points="483.5,-56.5 483.5,-75.5 547.5,-75.5 547.5,-56.5 483.5,-56.5"/>
<text text-anchor="middle" x="515.5" y="-63.5" font-family="Helvetica,sans-Serif" font-size="10.00" fill="#000000">lwip/netif.h</text>
</g>
<!-- Node1&#45;&gt;Node11 -->
<g id="edge11" class="edge">
<title>Node1&#45;&gt;Node11</title>
<path fill="none" stroke="#191970" d="M1063.6982,-120.9963C981.484,-118.0391 755.1134,-107.5949 557.61,-75.9538"/>
<polygon fill="#191970" stroke="#191970" points="558.0647,-72.4819 547.6328,-74.3332 556.9422,-79.3913 558.0647,-72.4819"/>
</g>
<!-- Node12 -->
<g id="node13" class="node">
<title>Node12</title>
<polygon fill="#ffffff" stroke="#bfbfbf" points="566,-56.5 566,-75.5 653,-75.5 653,-56.5 566,-56.5"/>
<text text-anchor="middle" x="609.5" y="-63.5" font-family="Helvetica,sans-Serif" font-size="10.00" fill="#000000">lwip/lwip_napt.h</text>
</g>
<!-- Node1&#45;&gt;Node12 -->
<g id="edge12" class="edge">
<title>Node1&#45;&gt;Node12</title>
<path fill="none" stroke="#191970" d="M1063.8,-119.5629C993.5112,-113.9619 819.0957,-98.9773 663.3757,-76.1833"/>
<polygon fill="#191970" stroke="#191970" points="663.5515,-72.6713 653.147,-74.6707 662.5274,-79.596 663.5515,-72.6713"/>
</g>
<!-- Node13 -->
<g id="node14" class="node">
<title>Node13</title>
<polygon fill="#ffffff" stroke="#bfbfbf" points="671,-56.5 671,-75.5 732,-75.5 732,-56.5 671,-56.5"/>
<text text-anchor="middle" x="701.5" y="-63.5" font-family="Helvetica,sans-Serif" font-size="10.00" fill="#000000">lwip/dns.h</text>
</g>
<!-- Node1&#45;&gt;Node13 -->
<g id="edge13" class="edge">
<title>Node1&#45;&gt;Node13</title>
<path fill="none" stroke="#191970" d="M1063.5721,-119.1021C1002.9245,-113.3291 866.7592,-99.0843 742.4982,-76.0031"/>
<polygon fill="#191970" stroke="#191970" points="742.9055,-72.5184 732.4307,-74.1085 741.6108,-79.3977 742.9055,-72.5184"/>
</g>
<!-- Node14 -->
<g id="node15" class="node">
<title>Node14</title>
<polygon fill="#ffffff" stroke="#bfbfbf" points="750.5,-56.5 750.5,-75.5 864.5,-75.5 864.5,-56.5 750.5,-56.5"/>
<text text-anchor="middle" x="807.5" y="-63.5" font-family="Helvetica,sans-Serif" font-size="10.00" fill="#000000">lwip/app/dhcpserver.h</text>
</g>
<!-- Node1&#45;&gt;Node14 -->
<g id="edge14" class="edge">
<title>Node1&#45;&gt;Node14</title>
<path fill="none" stroke="#191970" d="M1063.8551,-115.8468C1016.4761,-106.6342 926.2946,-89.099 866.5244,-77.477"/>
<polygon fill="#191970" stroke="#191970" points="866.9548,-73.9952 856.4706,-75.5221 865.6187,-80.8665 866.9548,-73.9952"/>
</g>
<!-- Node15 -->
<g id="node16" class="node">
<title>Node15</title>
<polygon fill="#ffffff" stroke="#bfbfbf" points="883,-56.5 883,-75.5 942,-75.5 942,-56.5 883,-56.5"/>
<text text-anchor="middle" x="912.5" y="-63.5" font-family="Helvetica,sans-Serif" font-size="10.00" fill="#000000">lwip/opt.h</text>
</g>
<!-- Node1&#45;&gt;Node15 -->
<g id="edge15" class="edge">
<title>Node1&#45;&gt;Node15</title>
<path fill="none" stroke="#191970" d="M1064.0412,-112.3733C1033.0163,-102.8793 985.5027,-88.3396 951.9629,-78.0761"/>
<polygon fill="#191970" stroke="#191970" points="952.6228,-74.6179 942.0363,-75.0384 950.5744,-81.3115 952.6228,-74.6179"/>
</g>
<!-- Node16 -->
<g id="node17" class="node">
<title>Node16</title>
<polygon fill="#ffffff" stroke="#bfbfbf" points="960,-56.5 960,-75.5 1023,-75.5 1023,-56.5 960,-56.5"/>
<text text-anchor="middle" x="991.5" y="-63.5" font-family="Helvetica,sans-Serif" font-size="10.00" fill="#000000">espconn.h</text>
</g>
<!-- Node1&#45;&gt;Node16 -->
<g id="edge16" class="edge">
<title>Node1&#45;&gt;Node16</title>
<path fill="none" stroke="#191970" d="M1077.3846,-112.2455C1061.055,-103.4527 1036.829,-90.4079 1018.2661,-80.4125"/>
<polygon fill="#191970" stroke="#191970" points="1019.8719,-77.3021 1009.4078,-75.6427 1016.5532,-83.4654 1019.8719,-77.3021"/>
</g>
<!-- Node17 -->
<g id="node18" class="node">
<title>Node17</title>
<polygon fill="#ffffff" stroke="#bfbfbf" points="1397,-.5 1397,-19.5 1456,-19.5 1456,-.5 1397,-.5"/>
<text text-anchor="middle" x="1426.5" y="-7.5" font-family="Helvetica,sans-Serif" font-size="10.00" fill="#000000">ets_sys.h</text>
</g>
<!-- Node1&#45;&gt;Node17 -->
<g id="edge17" class="edge">
<title>Node1&#45;&gt;Node17</title>
<path fill="none" stroke="#191970" d="M1127.0649,-121.049C1257.9359,-116.9556 1752.1132,-99.9548 1774.5,-76 1780.5693,-69.5057 1780.3591,-62.6846 1774.5,-56 1754.4034,-33.0722 1553.0787,-17.8812 1466.138,-12.3414"/>
<polygon fill="#191970" stroke="#191970" points="1466.3218,-8.8462 1456.1224,-11.7138 1465.8839,-15.8325 1466.3218,-8.8462"/>
</g>
<!-- Node18 -->
<g id="node19" class="node">
<title>Node18</title>
<polygon fill="#ffffff" stroke="#bfbfbf" points="1041.5,-56.5 1041.5,-75.5 1085.5,-75.5 1085.5,-56.5 1041.5,-56.5"/>
<text text-anchor="middle" x="1063.5" y="-63.5" font-family="Helvetica,sans-Serif" font-size="10.00" fill="#000000">gpio.h</text>
</g>
<!-- Node1&#45;&gt;Node18 -->
<g id="edge18" class="edge">
<title>Node1&#45;&gt;Node18</title>
<path fill="none" stroke="#191970" d="M1089.926,-112.2455C1085.5669,-104.617 1079.3789,-93.7881 1074.0867,-84.5267"/>
<polygon fill="#191970" stroke="#191970" points="1077.0104,-82.5886 1069.0101,-75.6427 1070.9327,-86.0616 1077.0104,-82.5886"/>
</g>
<!-- Node19 -->
<g id="node20" class="node">
<title>Node19</title>
<polygon fill="#ffffff" stroke="#bfbfbf" points="1104,-56.5 1104,-75.5 1151,-75.5 1151,-56.5 1104,-56.5"/>
<text text-anchor="middle" x="1127.5" y="-63.5" font-family="Helvetica,sans-Serif" font-size="10.00" fill="#000000">mem.h</text>
</g>
<!-- Node1&#45;&gt;Node19 -->
<g id="edge19" class="edge">
<title>Node1&#45;&gt;Node19</title>
<path fill="none" stroke="#191970" d="M1101.074,-112.2455C1105.4331,-104.617 1111.6211,-93.7881 1116.9133,-84.5267"/>
<polygon fill="#191970" stroke="#191970" points="1120.0673,-86.0616 1121.9899,-75.6427 1113.9896,-82.5886 1120.0673,-86.0616"/>
</g>
<!-- Node20 -->
<g id="node21" class="node">
<title>Node20</title>
<polygon fill="#ffffff" stroke="#bfbfbf" points="1169,-56.5 1169,-75.5 1218,-75.5 1218,-56.5 1169,-56.5"/>
<text text-anchor="middle" x="1193.5" y="-63.5" font-family="Helvetica,sans-Serif" font-size="10.00" fill="#000000">osapi.h</text>
</g>
<!-- Node1&#45;&gt;Node20 -->
<g id="edge20" class="edge">
<title>Node1&#45;&gt;Node20</title>
<path fill="none" stroke="#191970" d="M1112.5703,-112.2455C1127.747,-103.5731 1150.1621,-90.7645 1167.5563,-80.825"/>
<polygon fill="#191970" stroke="#191970" points="1169.6794,-83.643 1176.6253,-75.6427 1166.2064,-77.5653 1169.6794,-83.643"/>
</g>
<!-- Node21 -->
<g id="node22" class="node">
<title>Node21</title>
<polygon fill="#ffffff" stroke="#bfbfbf" points="1236.5,-56.5 1236.5,-75.5 1324.5,-75.5 1324.5,-56.5 1236.5,-56.5"/>
<text text-anchor="middle" x="1280.5" y="-63.5" font-family="Helvetica,sans-Serif" font-size="10.00" fill="#000000">user_interface.h</text>
</g>
<!-- Node1&#45;&gt;Node21 -->
<g id="edge21" class="edge">
<title>Node1&#45;&gt;Node21</title>
<path fill="none" stroke="#191970" d="M1127.3026,-112.3733C1158.3317,-102.9807 1205.6754,-88.6496 1239.5147,-78.4064"/>
<polygon fill="#191970" stroke="#191970" points="1240.5553,-81.7483 1249.1124,-75.5011 1238.5272,-75.0485 1240.5553,-81.7483"/>
</g>
<!-- Node22 -->
<g id="node23" class="node">
<title>Node22</title>
<polygon fill="#ffffff" stroke="#bfbfbf" points="1342.5,-56.5 1342.5,-75.5 1404.5,-75.5 1404.5,-56.5 1342.5,-56.5"/>
<text text-anchor="middle" x="1373.5" y="-63.5" font-family="Helvetica,sans-Serif" font-size="10.00" fill="#000000">upgrade.h</text>
</g>
<!-- Node1&#45;&gt;Node22 -->
<g id="edge22" class="edge">
<title>Node1&#45;&gt;Node22</title>
<path fill="none" stroke="#191970" d="M1127.1808,-116.4396C1171.0211,-108.6227 1252.8798,-93.588 1331.9659,-76.2575"/>
<polygon fill="#191970" stroke="#191970" points="1333.0846,-79.5949 1342.095,-74.0216 1331.5757,-72.7594 1333.0846,-79.5949"/>
</g>
<!-- Node23 -->
<g id="node24" class="node">
<title>Node23</title>
<g id="a_node24"><a xlink:href="platform_8h.html" target="_top" xlink:title="platform.h">
<polygon fill="#ffffff" stroke="#000000" points="1423,-56.5 1423,-75.5 1484,-75.5 1484,-56.5 1423,-56.5"/>
<text text-anchor="middle" x="1453.5" y="-63.5" font-family="Helvetica,sans-Serif" font-size="10.00" fill="#000000">platform.h</text>
</a>
</g>
</g>
<!-- Node1&#45;&gt;Node23 -->
<g id="edge23" class="edge">
<title>Node1&#45;&gt;Node23</title>
<path fill="none" stroke="#191970" d="M1127.2749,-118.485C1183.0281,-112.0847 1302.2527,-97.3622 1412.9949,-75.9235"/>
<polygon fill="#191970" stroke="#191970" points="1413.8561,-79.3214 1422.9967,-73.9641 1412.5103,-72.452 1413.8561,-79.3214"/>
</g>
<!-- Node24 -->
<g id="node25" class="node">
<title>Node24</title>
<g id="a_node25"><a xlink:href="espmissingincludes_8h.html" target="_top" xlink:title="espmissingincludes.h">
<polygon fill="#ffffff" stroke="#000000" points="7.5,-56.5 7.5,-75.5 119.5,-75.5 119.5,-56.5 7.5,-56.5"/>
<text text-anchor="middle" x="63.5" y="-63.5" font-family="Helvetica,sans-Serif" font-size="10.00" fill="#000000">espmissingincludes.h</text>
</a>
</g>
</g>
<!-- Node1&#45;&gt;Node24 -->
<g id="edge24" class="edge">
<title>Node1&#45;&gt;Node24</title>
<path fill="none" stroke="#191970" d="M1063.6904,-121.7C943.1402,-120.3084 502.7896,-112.9153 130.0014,-76.0513"/>
<polygon fill="#191970" stroke="#191970" points="130.1221,-72.546 119.824,-75.0358 129.4271,-79.5115 130.1221,-72.546"/>
</g>
<!-- Node24&#45;&gt;Node6 -->
<g id="edge26" class="edge">
<title>Node24&#45;&gt;Node6</title>
<path fill="none" stroke="#191970" d="M119.8267,-56.9906C122.7566,-56.6297 125.661,-56.2961 128.5,-56 432.645,-24.2828 801.6957,-13.5937 921.7269,-10.821"/>
<polygon fill="#191970" stroke="#191970" points="921.9873,-14.3161 931.9058,-10.5912 921.8293,-7.3179 921.9873,-14.3161"/>
</g>
<!-- Node24&#45;&gt;Node17 -->
<g id="edge28" class="edge">
<title>Node24&#45;&gt;Node17</title>
<path fill="none" stroke="#191970" d="M119.8199,-56.9222C122.7516,-56.5791 125.6582,-56.268 128.5,-56 256.2101,-43.955 1182.4435,-16.9781 1386.7114,-11.1316"/>
<polygon fill="#191970" stroke="#191970" points="1387.0781,-14.6226 1396.974,-10.8382 1386.878,-7.6255 1387.0781,-14.6226"/>
</g>
<!-- Node25 -->
<g id="node26" class="node">
<title>Node25</title>
<polygon fill="#ffffff" stroke="#bfbfbf" points="0,-.5 0,-19.5 49,-19.5 49,-.5 0,-.5"/>
<text text-anchor="middle" x="24.5" y="-7.5" font-family="Helvetica,sans-Serif" font-size="10.00" fill="#000000">stdint.h</text>
</g>
<!-- Node24&#45;&gt;Node25 -->
<g id="edge25" class="edge">
<title>Node24&#45;&gt;Node25</title>
<path fill="none" stroke="#191970" d="M56.7067,-56.2455C51.2822,-48.4564 43.5339,-37.3308 36.9967,-27.9439"/>
<polygon fill="#191970" stroke="#191970" points="39.8025,-25.8485 31.2154,-19.6427 34.0583,-29.849 39.8025,-25.8485"/>
</g>
<!-- Node26 -->
<g id="node27" class="node">
<title>Node26</title>
<polygon fill="#ffffff" stroke="#bfbfbf" points="67.5,-.5 67.5,-19.5 137.5,-19.5 137.5,-.5 67.5,-.5"/>
<text text-anchor="middle" x="102.5" y="-7.5" font-family="Helvetica,sans-Serif" font-size="10.00" fill="#000000">eagle_soc.h</text>
</g>
<!-- Node24&#45;&gt;Node26 -->
<g id="edge27" class="edge">
<title>Node24&#45;&gt;Node26</title>
<path fill="none" stroke="#191970" d="M70.2933,-56.2455C75.7178,-48.4564 83.4661,-37.3308 90.0033,-27.9439"/>
<polygon fill="#191970" stroke="#191970" points="92.9417,-29.849 95.7846,-19.6427 87.1975,-25.8485 92.9417,-29.849"/>
</g>
<!-- Node28 -->
<g id="node29" class="node">
<title>Node28</title>
<polygon fill="#ffffff" stroke="#bfbfbf" points="1844,-56.5 1844,-75.5 1897,-75.5 1897,-56.5 1844,-56.5"/>
<text text-anchor="middle" x="1870.5" y="-63.5" font-family="Helvetica,sans-Serif" font-size="10.00" fill="#000000">stdarg.h</text>
</g>
<!-- Node27&#45;&gt;Node28 -->
<g id="edge30" class="edge">
<title>Node27&#45;&gt;Node28</title>
<path fill="none" stroke="#191970" d="M1873.8033,-112.2455C1873.2813,-104.9382 1872.5496,-94.6944 1871.9075,-85.7046"/>
<polygon fill="#191970" stroke="#191970" points="1875.3924,-85.3679 1871.1888,-75.6427 1868.4102,-85.8667 1875.3924,-85.3679"/>
</g>
<!-- Node27&#45;&gt;Node29 -->
<g id="edge31" class="edge">
<title>Node27&#45;&gt;Node29</title>
<path fill="none" stroke="#191970" d="M1887.3898,-112.2455C1898.4254,-103.8943 1914.5292,-91.7076 1927.4353,-81.9408"/>
<polygon fill="#191970" stroke="#191970" points="1929.8959,-84.4681 1935.7579,-75.6427 1925.6717,-78.8862 1929.8959,-84.4681"/>
</g>
</g>
</svg>
