<?xml version="1.0" encoding="UTF-8" standalone="no"?>
<!DOCTYPE svg PUBLIC "-//W3C//DTD SVG 1.1//EN"
 "http://www.w3.org/Graphics/SVG/1.1/DTD/svg11.dtd">
<!-- Generated by graphviz version 2.39.20160927.1334 (20160927.1334)
 -->
<!-- Title: user/tinyprintf.c Pages: 1 -->
<svg width="1244pt" height="196pt"
 viewBox="0.00 0.00 1244.00 196.00" xmlns="http://www.w3.org/2000/svg" xmlns:xlink="http://www.w3.org/1999/xlink">
<g id="graph0" class="graph" transform="scale(1 1) rotate(0) translate(4 192)">
<title>user/tinyprintf.c</title>
<polygon fill="#ffffff" stroke="transparent" points="-4,4 -4,-192 1240,-192 1240,4 -4,4"/>
<!-- Node1 -->
<g id="node1" class="node">
<title>Node1</title>
<polygon fill="#bfbfbf" stroke="#000000" points="1086.5,-168.5 1086.5,-187.5 1170.5,-187.5 1170.5,-168.5 1086.5,-168.5"/>
<text text-anchor="middle" x="1128.5" y="-175.5" font-family="Helvetica,sans-Serif" font-size="10.00" fill="#000000">user/tinyprintf.c</text>
</g>
<!-- Node2 -->
<g id="node2" class="node">
<title>Node2</title>
<g id="a_node2"><a xlink:href="esp8266_8h.html" target="_top" xlink:title="esp8266.h">
<polygon fill="#ffffff" stroke="#000000" points="636,-112.5 636,-131.5 699,-131.5 699,-112.5 636,-112.5"/>
<text text-anchor="middle" x="667.5" y="-119.5" font-family="Helvetica,sans-Serif" font-size="10.00" fill="#000000">esp8266.h</text>
</a>
</g>
</g>
<!-- Node1&#45;&gt;Node2 -->
<g id="edge1" class="edge">
<title>Node1&#45;&gt;Node2</title>
<path fill="none" stroke="#191970" d="M1086.37,-172.882C998.475,-162.205 796.501,-137.67 709.085,-127.052"/>
<polygon fill="#191970" stroke="#191970" points="709.357,-123.559 699.008,-125.827 708.513,-130.508 709.357,-123.559"/>
</g>
<!-- Node20 -->
<g id="node20" class="node">
<title>Node20</title>
<g id="a_node20"><a xlink:href="tinyprintf_8h.html" target="_top" xlink:title="tinyprintf.h">
<polygon fill="#ffffff" stroke="#000000" points="1097,-112.5 1097,-131.5 1160,-131.5 1160,-112.5 1097,-112.5"/>
<text text-anchor="middle" x="1128.5" y="-119.5" font-family="Helvetica,sans-Serif" font-size="10.00" fill="#000000">tinyprintf.h</text>
</a>
</g>
</g>
<!-- Node1&#45;&gt;Node20 -->
<g id="edge21" class="edge">
<title>Node1&#45;&gt;Node20</title>
<path fill="none" stroke="#191970" d="M1128.5,-168.246C1128.5,-160.938 1128.5,-150.694 1128.5,-141.705"/>
<polygon fill="#191970" stroke="#191970" points="1132,-141.643 1128.5,-131.643 1125,-141.643 1132,-141.643"/>
</g>
<!-- Node22 -->
<g id="node22" class="node">
<title>Node22</title>
<polygon fill="#ffffff" stroke="#bfbfbf" points="1169,-56.5 1169,-75.5 1236,-75.5 1236,-56.5 1169,-56.5"/>
<text text-anchor="middle" x="1202.5" y="-63.5" font-family="Helvetica,sans-Serif" font-size="10.00" fill="#000000">sys/types.h</text>
</g>
<!-- Node1&#45;&gt;Node22 -->
<g id="edge24" class="edge">
<title>Node1&#45;&gt;Node22</title>
<path fill="none" stroke="#191970" d="M1138.13,-168.336C1146.74,-159.397 1159.36,-145.491 1168.5,-132 1178.64,-117.037 1187.88,-98.6593 1194.15,-85.0999"/>
<polygon fill="#191970" stroke="#191970" points="1197.42,-86.3613 1198.34,-75.8064 1191.04,-83.4845 1197.42,-86.3613"/>
</g>
<!-- Node3 -->
<g id="node3" class="node">
<title>Node3</title>
<polygon fill="#ffffff" stroke="#bfbfbf" points="756,-56.5 756,-75.5 805,-75.5 805,-56.5 756,-56.5"/>
<text text-anchor="middle" x="780.5" y="-63.5" font-family="Helvetica,sans-Serif" font-size="10.00" fill="#000000">ctype.h</text>
</g>
<!-- Node2&#45;&gt;Node3 -->
<g id="edge2" class="edge">
<title>Node2&#45;&gt;Node3</title>
<path fill="none" stroke="#191970" d="M686.925,-112.373C704.902,-103.464 731.844,-90.1127 752.209,-80.0203"/>
<polygon fill="#191970" stroke="#191970" points="753.922,-83.0776 761.328,-75.5011 750.814,-76.8055 753.922,-83.0776"/>
</g>
<!-- Node4 -->
<g id="node4" class="node">
<title>Node4</title>
<polygon fill="#ffffff" stroke="#bfbfbf" points="823.5,-56.5 823.5,-75.5 869.5,-75.5 869.5,-56.5 823.5,-56.5"/>
<text text-anchor="middle" x="846.5" y="-63.5" font-family="Helvetica,sans-Serif" font-size="10.00" fill="#000000">stdio.h</text>
</g>
<!-- Node2&#45;&gt;Node4 -->
<g id="edge3" class="edge">
<title>Node2&#45;&gt;Node4</title>
<path fill="none" stroke="#191970" d="M698.271,-112.373C730.43,-102.312 780.7,-86.5856 813.623,-76.2855"/>
<polygon fill="#191970" stroke="#191970" points="814.746,-79.6017 823.244,-73.2755 812.656,-72.921 814.746,-79.6017"/>
</g>
<!-- Node5 -->
<g id="node5" class="node">
<title>Node5</title>
<polygon fill="#ffffff" stroke="#bfbfbf" points="887.5,-56.5 887.5,-75.5 935.5,-75.5 935.5,-56.5 887.5,-56.5"/>
<text text-anchor="middle" x="911.5" y="-63.5" font-family="Helvetica,sans-Serif" font-size="10.00" fill="#000000">stdlib.h</text>
</g>
<!-- Node2&#45;&gt;Node5 -->
<g id="edge4" class="edge">
<title>Node2&#45;&gt;Node5</title>
<path fill="none" stroke="#191970" d="M699.144,-115.919C738.715,-108.136 808.712,-93.785 877.689,-76.0636"/>
<polygon fill="#191970" stroke="#191970" points="878.612,-79.4403 887.412,-73.5411 876.854,-72.6646 878.612,-79.4403"/>
</g>
<!-- Node6 -->
<g id="node6" class="node">
<title>Node6</title>
<polygon fill="#ffffff" stroke="#bfbfbf" points="954,-56.5 954,-75.5 1003,-75.5 1003,-56.5 954,-56.5"/>
<text text-anchor="middle" x="978.5" y="-63.5" font-family="Helvetica,sans-Serif" font-size="10.00" fill="#000000">string.h</text>
</g>
<!-- Node2&#45;&gt;Node6 -->
<g id="edge5" class="edge">
<title>Node2&#45;&gt;Node6</title>
<path fill="none" stroke="#191970" d="M699.317,-117.997C749.312,-111.431 849.444,-97.1672 943.724,-75.9484"/>
<polygon fill="#191970" stroke="#191970" points="944.739,-79.3069 953.709,-73.6695 943.181,-72.4824 944.739,-79.3069"/>
</g>
<!-- Node7 -->
<g id="node7" class="node">
<title>Node7</title>
<polygon fill="#ffffff" stroke="#bfbfbf" points="559,-0.5 559,-19.5 618,-19.5 618,-0.5 559,-0.5"/>
<text text-anchor="middle" x="588.5" y="-7.5" font-family="Helvetica,sans-Serif" font-size="10.00" fill="#000000">c_types.h</text>
</g>
<!-- Node2&#45;&gt;Node7 -->
<g id="edge6" class="edge">
<title>Node2&#45;&gt;Node7</title>
<path fill="none" stroke="#191970" d="M699.107,-120.112C780.259,-114.945 991.039,-99.3792 1011.5,-76 1017.35,-69.311 1017.44,-62.6164 1011.5,-56 986.13,-27.7211 728.377,-15.1866 628.107,-11.3538"/>
<polygon fill="#191970" stroke="#191970" points="628.194,-7.85468 618.07,-10.9792 627.933,-14.8498 628.194,-7.85468"/>
</g>
<!-- Node8 -->
<g id="node8" class="node">
<title>Node8</title>
<polygon fill="#ffffff" stroke="#bfbfbf" points="137.5,-56.5 137.5,-75.5 195.5,-75.5 195.5,-56.5 137.5,-56.5"/>
<text text-anchor="middle" x="166.5" y="-63.5" font-family="Helvetica,sans-Serif" font-size="10.00" fill="#000000">ip_addr.h</text>
</g>
<!-- Node2&#45;&gt;Node8 -->
<g id="edge7" class="edge">
<title>Node2&#45;&gt;Node8</title>
<path fill="none" stroke="#191970" d="M635.824,-120.583C561.992,-116.914 372.676,-105.382 205.801,-75.9939"/>
<polygon fill="#191970" stroke="#191970" points="206.316,-72.5305 195.856,-74.2163 205.084,-79.4213 206.316,-72.5305"/>
</g>
<!-- Node9 -->
<g id="node9" class="node">
<title>Node9</title>
<polygon fill="#ffffff" stroke="#bfbfbf" points="214,-56.5 214,-75.5 277,-75.5 277,-56.5 214,-56.5"/>
<text text-anchor="middle" x="245.5" y="-63.5" font-family="Helvetica,sans-Serif" font-size="10.00" fill="#000000">espconn.h</text>
</g>
<!-- Node2&#45;&gt;Node9 -->
<g id="edge8" class="edge">
<title>Node2&#45;&gt;Node9</title>
<path fill="none" stroke="#191970" d="M635.697,-119.45C571.665,-114.04 422.504,-100.045 287.325,-75.9554"/>
<polygon fill="#191970" stroke="#191970" points="287.667,-72.4606 277.204,-74.1279 286.423,-79.3492 287.667,-72.4606"/>
</g>
<!-- Node10 -->
<g id="node10" class="node">
<title>Node10</title>
<polygon fill="#ffffff" stroke="#bfbfbf" points="838,-0.5 838,-19.5 897,-19.5 897,-0.5 838,-0.5"/>
<text text-anchor="middle" x="867.5" y="-7.5" font-family="Helvetica,sans-Serif" font-size="10.00" fill="#000000">ets_sys.h</text>
</g>
<!-- Node2&#45;&gt;Node10 -->
<g id="edge9" class="edge">
<title>Node2&#45;&gt;Node10</title>
<path fill="none" stroke="#191970" d="M699.13,-120.321C783.12,-115.541 1006.84,-100.596 1028.5,-76 1065.23,-34.296 966.04,-18.4478 907.303,-12.8306"/>
<polygon fill="#191970" stroke="#191970" points="907.471,-9.33175 897.199,-11.9261 906.847,-16.3039 907.471,-9.33175"/>
</g>
<!-- Node11 -->
<g id="node11" class="node">
<title>Node11</title>
<polygon fill="#ffffff" stroke="#bfbfbf" points="295.5,-56.5 295.5,-75.5 339.5,-75.5 339.5,-56.5 295.5,-56.5"/>
<text text-anchor="middle" x="317.5" y="-63.5" font-family="Helvetica,sans-Serif" font-size="10.00" fill="#000000">gpio.h</text>
</g>
<!-- Node2&#45;&gt;Node11 -->
<g id="edge10" class="edge">
<title>Node2&#45;&gt;Node11</title>
<path fill="none" stroke="#191970" d="M635.931,-119.231C579.973,-113.941 459.665,-100.852 349.655,-75.9525"/>
<polygon fill="#191970" stroke="#191970" points="350.255,-72.4991 339.725,-73.6656 348.684,-79.3206 350.255,-72.4991"/>
</g>
<!-- Node12 -->
<g id="node12" class="node">
<title>Node12</title>
<polygon fill="#ffffff" stroke="#bfbfbf" points="358,-56.5 358,-75.5 405,-75.5 405,-56.5 358,-56.5"/>
<text text-anchor="middle" x="381.5" y="-63.5" font-family="Helvetica,sans-Serif" font-size="10.00" fill="#000000">mem.h</text>
</g>
<!-- Node2&#45;&gt;Node12 -->
<g id="edge11" class="edge">
<title>Node2&#45;&gt;Node12</title>
<path fill="none" stroke="#191970" d="M635.954,-117.571C589.462,-110.767 499.689,-96.5736 414.946,-76.1459"/>
<polygon fill="#191970" stroke="#191970" points="415.719,-72.7318 405.174,-73.7564 414.056,-79.5315 415.719,-72.7318"/>
</g>
<!-- Node13 -->
<g id="node13" class="node">
<title>Node13</title>
<polygon fill="#ffffff" stroke="#bfbfbf" points="423,-56.5 423,-75.5 472,-75.5 472,-56.5 423,-56.5"/>
<text text-anchor="middle" x="447.5" y="-63.5" font-family="Helvetica,sans-Serif" font-size="10.00" fill="#000000">osapi.h</text>
</g>
<!-- Node2&#45;&gt;Node13 -->
<g id="edge12" class="edge">
<title>Node2&#45;&gt;Node13</title>
<path fill="none" stroke="#191970" d="M635.798,-114.605C600.647,-106.307 542.042,-92.1864 482.327,-76.1408"/>
<polygon fill="#191970" stroke="#191970" points="482.914,-72.6739 472.347,-73.4437 481.088,-79.4315 482.914,-72.6739"/>
</g>
<!-- Node14 -->
<g id="node14" class="node">
<title>Node14</title>
<polygon fill="#ffffff" stroke="#bfbfbf" points="490.5,-56.5 490.5,-75.5 578.5,-75.5 578.5,-56.5 490.5,-56.5"/>
<text text-anchor="middle" x="534.5" y="-63.5" font-family="Helvetica,sans-Serif" font-size="10.00" fill="#000000">user_interface.h</text>
</g>
<!-- Node2&#45;&gt;Node14 -->
<g id="edge13" class="edge">
<title>Node2&#45;&gt;Node14</title>
<path fill="none" stroke="#191970" d="M644.636,-112.373C623.095,-103.303 590.616,-89.6279 566.504,-79.4755"/>
<polygon fill="#191970" stroke="#191970" points="567.64,-76.156 557.065,-75.5011 564.923,-82.6075 567.64,-76.156"/>
</g>
<!-- Node15 -->
<g id="node15" class="node">
<title>Node15</title>
<polygon fill="#ffffff" stroke="#bfbfbf" points="596.5,-56.5 596.5,-75.5 658.5,-75.5 658.5,-56.5 596.5,-56.5"/>
<text text-anchor="middle" x="627.5" y="-63.5" font-family="Helvetica,sans-Serif" font-size="10.00" fill="#000000">upgrade.h</text>
</g>
<!-- Node2&#45;&gt;Node15 -->
<g id="edge14" class="edge">
<title>Node2&#45;&gt;Node15</title>
<path fill="none" stroke="#191970" d="M660.533,-112.246C654.969,-104.456 647.022,-93.3308 640.317,-83.9439"/>
<polygon fill="#191970" stroke="#191970" points="643.048,-81.7457 634.388,-75.6427 637.352,-85.8144 643.048,-81.7457"/>
</g>
<!-- Node16 -->
<g id="node16" class="node">
<title>Node16</title>
<g id="a_node16"><a xlink:href="platform_8h.html" target="_top" xlink:title="platform.h">
<polygon fill="#ffffff" stroke="#000000" points="677,-56.5 677,-75.5 738,-75.5 738,-56.5 677,-56.5"/>
<text text-anchor="middle" x="707.5" y="-63.5" font-family="Helvetica,sans-Serif" font-size="10.00" fill="#000000">platform.h</text>
</a>
</g>
</g>
<!-- Node2&#45;&gt;Node16 -->
<g id="edge15" class="edge">
<title>Node2&#45;&gt;Node16</title>
<path fill="none" stroke="#191970" d="M674.467,-112.246C680.031,-104.456 687.978,-93.3308 694.683,-83.9439"/>
<polygon fill="#191970" stroke="#191970" points="697.648,-85.8144 700.612,-75.6427 691.952,-81.7457 697.648,-85.8144"/>
</g>
<!-- Node17 -->
<g id="node17" class="node">
<title>Node17</title>
<g id="a_node17"><a xlink:href="espmissingincludes_8h.html" target="_top" xlink:title="espmissingincludes.h">
<polygon fill="#ffffff" stroke="#000000" points="7.5,-56.5 7.5,-75.5 119.5,-75.5 119.5,-56.5 7.5,-56.5"/>
<text text-anchor="middle" x="63.5" y="-63.5" font-family="Helvetica,sans-Serif" font-size="10.00" fill="#000000">espmissingincludes.h</text>
</a>
</g>
</g>
<!-- Node2&#45;&gt;Node17 -->
<g id="edge16" class="edge">
<title>Node2&#45;&gt;Node17</title>
<path fill="none" stroke="#191970" d="M635.832,-120.047C553.937,-114.838 328.263,-99.4697 129.862,-76.0961"/>
<polygon fill="#191970" stroke="#191970" points="130.181,-72.6095 119.838,-74.9055 129.356,-79.5606 130.181,-72.6095"/>
</g>
<!-- Node17&#45;&gt;Node7 -->
<g id="edge18" class="edge">
<title>Node17&#45;&gt;Node7</title>
<path fill="none" stroke="#191970" d="M119.845,-57.1448C122.77,-56.7435 125.668,-56.3592 128.5,-56 283.568,-36.3324 468.926,-19.9665 548.74,-13.2616"/>
<polygon fill="#191970" stroke="#191970" points="549.166,-16.7383 558.84,-12.4175 548.583,-9.76259 549.166,-16.7383"/>
</g>
<!-- Node17&#45;&gt;Node10 -->
<g id="edge20" class="edge">
<title>Node17&#45;&gt;Node10</title>
<path fill="none" stroke="#191970" d="M119.829,-57.0149C122.759,-56.6476 125.662,-56.306 128.5,-56 266.002,-41.1742 694.441,-18.7734 827.599,-12.0055"/>
<polygon fill="#191970" stroke="#191970" points="827.946,-15.4925 837.756,-11.4905 827.592,-8.50147 827.946,-15.4925"/>
</g>
<!-- Node18 -->
<g id="node18" class="node">
<title>Node18</title>
<polygon fill="#ffffff" stroke="#bfbfbf" points="0,-0.5 0,-19.5 49,-19.5 49,-0.5 0,-0.5"/>
<text text-anchor="middle" x="24.5" y="-7.5" font-family="Helvetica,sans-Serif" font-size="10.00" fill="#000000">stdint.h</text>
</g>
<!-- Node17&#45;&gt;Node18 -->
<g id="edge17" class="edge">
<title>Node17&#45;&gt;Node18</title>
<path fill="none" stroke="#191970" d="M56.7067,-56.2455C51.2822,-48.4564 43.5339,-37.3308 36.9967,-27.9439"/>
<polygon fill="#191970" stroke="#191970" points="39.8025,-25.8485 31.2154,-19.6427 34.0583,-29.849 39.8025,-25.8485"/>
</g>
<!-- Node19 -->
<g id="node19" class="node">
<title>Node19</title>
<polygon fill="#ffffff" stroke="#bfbfbf" points="67.5,-0.5 67.5,-19.5 137.5,-19.5 137.5,-0.5 67.5,-0.5"/>
<text text-anchor="middle" x="102.5" y="-7.5" font-family="Helvetica,sans-Serif" font-size="10.00" fill="#000000">eagle_soc.h</text>
</g>
<!-- Node17&#45;&gt;Node19 -->
<g id="edge19" class="edge">
<title>Node17&#45;&gt;Node19</title>
<path fill="none" stroke="#191970" d="M70.2933,-56.2455C75.7178,-48.4564 83.4661,-37.3308 90.0033,-27.9439"/>
<polygon fill="#191970" stroke="#191970" points="92.9417,-29.849 95.7846,-19.6427 87.1975,-25.8485 92.9417,-29.849"/>
</g>
<!-- Node21 -->
<g id="node21" class="node">
<title>Node21</title>
<polygon fill="#ffffff" stroke="#bfbfbf" points="1098,-56.5 1098,-75.5 1151,-75.5 1151,-56.5 1098,-56.5"/>
<text text-anchor="middle" x="1124.5" y="-63.5" font-family="Helvetica,sans-Serif" font-size="10.00" fill="#000000">stdarg.h</text>
</g>
<!-- Node20&#45;&gt;Node21 -->
<g id="edge22" class="edge">
<title>Node20&#45;&gt;Node21</title>
<path fill="none" stroke="#191970" d="M1127.8,-112.246C1127.28,-104.938 1126.55,-94.6944 1125.91,-85.7046"/>
<polygon fill="#191970" stroke="#191970" points="1129.39,-85.3679 1125.19,-75.6427 1122.41,-85.8667 1129.39,-85.3679"/>
</g>
<!-- Node20&#45;&gt;Node22 -->
<g id="edge23" class="edge">
<title>Node20&#45;&gt;Node22</title>
<path fill="none" stroke="#191970" d="M1141.39,-112.246C1152.43,-103.894 1168.53,-91.7076 1181.44,-81.9408"/>
<polygon fill="#191970" stroke="#191970" points="1183.9,-84.4681 1189.76,-75.6427 1179.67,-78.8862 1183.9,-84.4681"/>
</g>
</g>
</svg>
