<?xml version="1.0" encoding="UTF-8" standalone="no"?>
<!DOCTYPE svg PUBLIC "-//W3C//DTD SVG 1.1//EN"
 "http://www.w3.org/Graphics/SVG/1.1/DTD/svg11.dtd">
<!-- Generated by graphviz version 2.41.20170323.1842 (20170323.1842)
 -->
<!-- Title: tfp_vsnprintf Pages: 1 -->
<svg width="1309pt" height="888pt"
 viewBox="0.00 0.00 1309.00 888.00" xmlns="http://www.w3.org/2000/svg" xmlns:xlink="http://www.w3.org/1999/xlink">
<g id="graph0" class="graph" transform="scale(1 1) rotate(0) translate(4 884)">
<title>tfp_vsnprintf</title>
<polygon fill="#ffffff" stroke="transparent" points="-4,4 -4,-884 1305,-884 1305,4 -4,4"/>
<!-- Node81 -->
<g id="node1" class="node">
<title>Node81</title>
<polygon fill="#bfbfbf" stroke="#000000" points="0,-430.5 0,-449.5 71,-449.5 71,-430.5 0,-430.5"/>
<text text-anchor="middle" x="35.5" y="-437.5" font-family="Helvetica,sans-Serif" font-size="10.00" fill="#000000">tfp_vsnprintf</text>
</g>
<!-- Node82 -->
<g id="node2" class="node">
<title>Node82</title>
<g id="a_node2"><a xlink:href="tinyprintf_8c.html#a9738cbc6c538d210941db282e240c7d6" target="_top" xlink:title="tfp_snprintf">
<polygon fill="#ffffff" stroke="#000000" points="107,-430.5 107,-449.5 173,-449.5 173,-430.5 107,-430.5"/>
<text text-anchor="middle" x="140" y="-437.5" font-family="Helvetica,sans-Serif" font-size="10.00" fill="#000000">tfp_snprintf</text>
</a>
</g>
</g>
<!-- Node81&#45;&gt;Node82 -->
<g id="edge1" class="edge">
<title>Node81&#45;&gt;Node82</title>
<path fill="none" stroke="#191970" d="M81.1784,-440C89.8492,-440 98.7654,-440 106.9512,-440"/>
<polygon fill="#191970" stroke="#191970" points="81.1707,-436.5001 71.1707,-440 81.1707,-443.5001 81.1707,-436.5001"/>
</g>
<!-- Node83 -->
<g id="node3" class="node">
<title>Node83</title>
<g id="a_node3"><a xlink:href="config_8h.html#a92adb6c5103eed30e16185a9cd233e51" target="_top" xlink:title="cfg_load">
<polygon fill="#ffffff" stroke="#000000" points="253.5,-784.5 253.5,-803.5 307.5,-803.5 307.5,-784.5 253.5,-784.5"/>
<text text-anchor="middle" x="280.5" y="-791.5" font-family="Helvetica,sans-Serif" font-size="10.00" fill="#000000">cfg_load</text>
</a>
</g>
</g>
<!-- Node82&#45;&gt;Node83 -->
<g id="edge2" class="edge">
<title>Node82&#45;&gt;Node83</title>
<path fill="none" stroke="#191970" d="M141.5898,-459.8003C147.1004,-523.7219 167.3643,-723.1498 209,-770 220.2204,-782.6257 238.2882,-788.6212 253.4533,-791.4625"/>
<polygon fill="#191970" stroke="#191970" points="145.0505,-459.1831 140.7307,-449.5089 138.0748,-459.7655 145.0505,-459.1831"/>
</g>
<!-- Node84 -->
<g id="node4" class="node">
<title>Node84</title>
<g id="a_node4"><a xlink:href="cgiwifi_8h.html#ace460e5ac8fd74afa8616bfc82561b26" target="_top" xlink:title="tplSetup">
<polygon fill="#ffffff" stroke="#000000" points="427.5,-822.5 427.5,-841.5 480.5,-841.5 480.5,-822.5 427.5,-822.5"/>
<text text-anchor="middle" x="454" y="-829.5" font-family="Helvetica,sans-Serif" font-size="10.00" fill="#000000">tplSetup</text>
</a>
</g>
</g>
<!-- Node82&#45;&gt;Node84 -->
<g id="edge51" class="edge">
<title>Node82&#45;&gt;Node84</title>
<path fill="none" stroke="#191970" d="M140.6035,-459.6201C143.1911,-529.5698 155.7833,-765.1222 209,-813 240.478,-841.32 370.442,-837.1453 427.2362,-833.8412"/>
<polygon fill="#191970" stroke="#191970" points="144.0985,-459.413 140.2591,-449.5384 137.1026,-459.6521 144.0985,-459.413"/>
</g>
<!-- Node85 -->
<g id="node5" class="node">
<title>Node85</title>
<g id="a_node5"><a xlink:href="cgiwifi_8h.html#aa1b2a25d59b9eecb6f57b7d698686064" target="_top" xlink:title="cgiWiFiScan">
<polygon fill="#ffffff" stroke="#000000" points="418,-765.5 418,-784.5 490,-784.5 490,-765.5 418,-765.5"/>
<text text-anchor="middle" x="454" y="-772.5" font-family="Helvetica,sans-Serif" font-size="10.00" fill="#000000">cgiWiFiScan</text>
</a>
</g>
</g>
<!-- Node82&#45;&gt;Node85 -->
<g id="edge4" class="edge">
<title>Node82&#45;&gt;Node85</title>
<path fill="none" stroke="#191970" d="M141.7439,-459.6529C147.483,-519.6642 167.8134,-698.769 209,-737 238.6543,-764.5262 356.884,-772.117 417.6012,-774.2074"/>
<polygon fill="#191970" stroke="#191970" points="145.2206,-459.2386 140.8144,-449.6035 138.2504,-459.8834 145.2206,-459.2386"/>
</g>
<!-- Node86 -->
<g id="node6" class="node">
<title>Node86</title>
<g id="a_node6"><a xlink:href="utils_8h.html#aa76bb225374d144009e05cadce84260b" target="_top" xlink:title="cleanup_decimal_str">
<polygon fill="#ffffff" stroke="#000000" points="226.5,-506.5 226.5,-525.5 334.5,-525.5 334.5,-506.5 226.5,-506.5"/>
<text text-anchor="middle" x="280.5" y="-513.5" font-family="Helvetica,sans-Serif" font-size="10.00" fill="#000000">cleanup_decimal_str</text>
</a>
</g>
</g>
<!-- Node82&#45;&gt;Node86 -->
<g id="edge5" class="edge">
<title>Node82&#45;&gt;Node86</title>
<path fill="none" stroke="#191970" d="M158.3743,-456.4578C171.6736,-467.6928 190.4927,-482.251 209,-492 220.1214,-497.8584 232.9565,-502.698 244.656,-506.4591"/>
<polygon fill="#191970" stroke="#191970" points="160.3435,-453.5335 150.4905,-449.6387 155.7642,-458.8279 160.3435,-453.5335"/>
</g>
<!-- Node88 -->
<g id="node8" class="node">
<title>Node88</title>
<g id="a_node8"><a xlink:href="en61107__request_8c.html#aa3b162cf5364986ea19e831ac2b18f76" target="_top" xlink:title="en61107_received_task">
<polygon fill="#ffffff" stroke="#000000" points="573.5,-511.5 573.5,-530.5 696.5,-530.5 696.5,-511.5 573.5,-511.5"/>
<text text-anchor="middle" x="635" y="-518.5" font-family="Helvetica,sans-Serif" font-size="10.00" fill="#000000">en61107_received_task</text>
</a>
</g>
</g>
<!-- Node82&#45;&gt;Node88 -->
<g id="edge17" class="edge">
<title>Node82&#45;&gt;Node88</title>
<path fill="none" stroke="#191970" d="M144.3691,-459.3161C154.5251,-502.3072 180.999,-603.6325 209,-623 324.5726,-702.9384 387.9971,-614.1912 520,-566 551.82,-554.3832 588.1681,-539.9645 611.3339,-530.6275"/>
<polygon fill="#191970" stroke="#191970" points="147.7636,-458.4603 142.0976,-449.5078 140.9441,-460.0396 147.7636,-458.4603"/>
</g>
<!-- Node90 -->
<g id="node10" class="node">
<title>Node90</title>
<g id="a_node10"><a xlink:href="en61107_8h.html#a5a71fa85ca3ccb0abfcb8f122affbbdd" target="_top" xlink:title="parse_mc66cde_standard\l_data_1_frame">
<polygon fill="#ffffff" stroke="#000000" points="388,-480 388,-510 520,-510 520,-480 388,-480"/>
<text text-anchor="start" x="396" y="-498" font-family="Helvetica,sans-Serif" font-size="10.00" fill="#000000">parse_mc66cde_standard</text>
<text text-anchor="middle" x="454" y="-487" font-family="Helvetica,sans-Serif" font-size="10.00" fill="#000000">_data_1_frame</text>
</a>
</g>
</g>
<!-- Node82&#45;&gt;Node90 -->
<g id="edge50" class="edge">
<title>Node82&#45;&gt;Node90</title>
<path fill="none" stroke="#191970" d="M181.0615,-452.1961C190.2067,-454.6632 199.8921,-457.0844 209,-459 269.0564,-471.6311 338.3154,-481.3693 387.8402,-487.5134"/>
<polygon fill="#191970" stroke="#191970" points="181.9742,-448.8172 171.4029,-449.5229 180.107,-455.5636 181.9742,-448.8172"/>
</g>
<!-- Node91 -->
<g id="node11" class="node">
<title>Node91</title>
<g id="a_node11"><a xlink:href="utils_8h.html#a83488e29965def270a8e27370ee5013a" target="_top" xlink:title="divide_str_by_10">
<polygon fill="#ffffff" stroke="#000000" points="234.5,-430.5 234.5,-449.5 326.5,-449.5 326.5,-430.5 234.5,-430.5"/>
<text text-anchor="middle" x="280.5" y="-437.5" font-family="Helvetica,sans-Serif" font-size="10.00" fill="#000000">divide_str_by_10</text>
</a>
</g>
</g>
<!-- Node82&#45;&gt;Node91 -->
<g id="edge11" class="edge">
<title>Node82&#45;&gt;Node91</title>
<path fill="none" stroke="#191970" d="M183.5457,-440C199.6939,-440 218.0539,-440 234.4206,-440"/>
<polygon fill="#191970" stroke="#191970" points="183.2966,-436.5001 173.2965,-440 183.2965,-443.5001 183.2966,-436.5001"/>
</g>
<!-- Node92 -->
<g id="node12" class="node">
<title>Node92</title>
<g id="a_node12"><a xlink:href="utils_8h.html#ae7c507f8b417b23e187f267fd8a2adf2" target="_top" xlink:title="divide_str_by_100">
<polygon fill="#ffffff" stroke="#000000" points="231.5,-392.5 231.5,-411.5 329.5,-411.5 329.5,-392.5 231.5,-392.5"/>
<text text-anchor="middle" x="280.5" y="-399.5" font-family="Helvetica,sans-Serif" font-size="10.00" fill="#000000">divide_str_by_100</text>
</a>
</g>
</g>
<!-- Node82&#45;&gt;Node92 -->
<g id="edge13" class="edge">
<title>Node82&#45;&gt;Node92</title>
<path fill="none" stroke="#191970" d="M183.1518,-428.0536C191.713,-425.7015 200.638,-423.2623 209,-421 220.5304,-417.8805 233.1193,-414.5201 244.476,-411.5054"/>
<polygon fill="#191970" stroke="#191970" points="182.0369,-424.7302 173.3244,-430.7588 183.8947,-431.4792 182.0369,-424.7302"/>
</g>
<!-- Node93 -->
<g id="node13" class="node">
<title>Node93</title>
<g id="a_node13"><a xlink:href="en61107_8h.html#af624e427f5989ad2a68e1ce0bc4a7358" target="_top" xlink:title="parse_mc66cde_inst\l_values_frame">
<polygon fill="#ffffff" stroke="#000000" points="399.5,-431 399.5,-461 508.5,-461 508.5,-431 399.5,-431"/>
<text text-anchor="start" x="407.5" y="-449" font-family="Helvetica,sans-Serif" font-size="10.00" fill="#000000">parse_mc66cde_inst</text>
<text text-anchor="middle" x="454" y="-438" font-family="Helvetica,sans-Serif" font-size="10.00" fill="#000000">_values_frame</text>
</a>
</g>
</g>
<!-- Node82&#45;&gt;Node93 -->
<g id="edge49" class="edge">
<title>Node82&#45;&gt;Node93</title>
<path fill="none" stroke="#191970" d="M154.6522,-422.5741C167.3975,-408.8737 187.2053,-390.8379 209,-383 268.8058,-361.4924 293.6163,-357.8873 352,-383 373.3713,-392.1925 368.6331,-408.1097 388,-421 393.61,-424.7339 399.8559,-428.0174 406.2055,-430.8716"/>
<polygon fill="#191970" stroke="#191970" points="151.7083,-420.6173 147.6745,-430.4143 156.9373,-425.2711 151.7083,-420.6173"/>
</g>
<!-- Node94 -->
<g id="node14" class="node">
<title>Node94</title>
<g id="a_node14"><a xlink:href="en61107_8h.html#aae970a67aa118631b1e9e3b0cc41e7fc" target="_top" xlink:title="en61107_response_set_unit">
<polygon fill="#ffffff" stroke="#000000" points="209,-544.5 209,-563.5 352,-563.5 352,-544.5 209,-544.5"/>
<text text-anchor="middle" x="280.5" y="-551.5" font-family="Helvetica,sans-Serif" font-size="10.00" fill="#000000">en61107_response_set_unit</text>
</a>
</g>
</g>
<!-- Node82&#45;&gt;Node94 -->
<g id="edge18" class="edge">
<title>Node82&#45;&gt;Node94</title>
<path fill="none" stroke="#191970" d="M148.7764,-458.9613C159.7837,-480.629 180.7015,-515.5909 209,-535 214.6138,-538.8503 220.9677,-541.9207 227.5148,-544.3692"/>
<polygon fill="#191970" stroke="#191970" points="151.8298,-457.2374 144.3024,-449.7816 145.5374,-460.3042 151.8298,-457.2374"/>
</g>
<!-- Node95 -->
<g id="node15" class="node">
<title>Node95</title>
<g id="a_node15"><a xlink:href="en61107_8h.html#aa78898864e2b283a56553204fb381ede" target="_top" xlink:title="en61107_response_set\l_value">
<polygon fill="#ffffff" stroke="#000000" points="220,-583 220,-613 341,-613 341,-583 220,-583"/>
<text text-anchor="start" x="228" y="-601" font-family="Helvetica,sans-Serif" font-size="10.00" fill="#000000">en61107_response_set</text>
<text text-anchor="middle" x="280.5" y="-590" font-family="Helvetica,sans-Serif" font-size="10.00" fill="#000000">_value</text>
</a>
</g>
</g>
<!-- Node82&#45;&gt;Node95 -->
<g id="edge20" class="edge">
<title>Node82&#45;&gt;Node95</title>
<path fill="none" stroke="#191970" d="M145.0276,-459.2458C153.4939,-487.9801 173.2734,-542.0242 209,-573 213.471,-576.8765 218.5795,-580.1626 223.9632,-582.9462"/>
<polygon fill="#191970" stroke="#191970" points="148.3873,-458.2636 142.3271,-449.5731 141.6452,-460.146 148.3873,-458.2636"/>
</g>
<!-- Node96 -->
<g id="node16" class="node">
<title>Node96</title>
<g id="a_node16"><a xlink:href="httpd_8h.html#a4e03006e004d17ca91cc75f684cfe74d" target="_top" xlink:title="httpdHeader">
<polygon fill="#ffffff" stroke="#000000" points="244.5,-708.5 244.5,-727.5 316.5,-727.5 316.5,-708.5 244.5,-708.5"/>
<text text-anchor="middle" x="280.5" y="-715.5" font-family="Helvetica,sans-Serif" font-size="10.00" fill="#000000">httpdHeader</text>
</a>
</g>
</g>
<!-- Node82&#45;&gt;Node96 -->
<g id="edge22" class="edge">
<title>Node82&#45;&gt;Node96</title>
<path fill="none" stroke="#191970" d="M142.6833,-459.7755C150.4597,-514.243 174.6605,-664.6821 209,-699 218.3575,-708.3516 231.7596,-713.2538 244.4368,-715.7732"/>
<polygon fill="#191970" stroke="#191970" points="146.1239,-459.1061 141.2754,-449.6858 139.191,-460.0735 146.1239,-459.1061"/>
</g>
<!-- Node100 -->
<g id="node20" class="node">
<title>Node100</title>
<g id="a_node20"><a xlink:href="httpd_8h.html#ab27493bff23508040d0c672a95ecd3b6" target="_top" xlink:title="httpdRedirect">
<polygon fill="#ffffff" stroke="#000000" points="242.5,-316.5 242.5,-335.5 318.5,-335.5 318.5,-316.5 242.5,-316.5"/>
<text text-anchor="middle" x="280.5" y="-323.5" font-family="Helvetica,sans-Serif" font-size="10.00" fill="#000000">httpdRedirect</text>
</a>
</g>
</g>
<!-- Node82&#45;&gt;Node100 -->
<g id="edge27" class="edge">
<title>Node82&#45;&gt;Node100</title>
<path fill="none" stroke="#191970" d="M149.7564,-421.4428C161.3239,-401.1455 182.4278,-368.9814 209,-350 218.8023,-342.9979 230.7934,-337.929 242.1342,-334.308"/>
<polygon fill="#191970" stroke="#191970" points="146.6134,-419.8949 144.8618,-430.3439 152.7472,-423.2678 146.6134,-419.8949"/>
</g>
<!-- Node104 -->
<g id="node24" class="node">
<title>Node104</title>
<g id="a_node24"><a xlink:href="httpd_8h.html#ae029382c3db1b881163c89ac8cea96aa" target="_top" xlink:title="httpdStartResponse">
<polygon fill="#ffffff" stroke="#000000" points="228,-670.5 228,-689.5 333,-689.5 333,-670.5 228,-670.5"/>
<text text-anchor="middle" x="280.5" y="-677.5" font-family="Helvetica,sans-Serif" font-size="10.00" fill="#000000">httpdStartResponse</text>
</a>
</g>
</g>
<!-- Node82&#45;&gt;Node104 -->
<g id="edge31" class="edge">
<title>Node82&#45;&gt;Node104</title>
<path fill="none" stroke="#191970" d="M143.9431,-459.8061C153.8215,-507.6053 180.8607,-627.4455 209,-656 215.2497,-662.3419 223.224,-667.008 231.5658,-670.4411"/>
<polygon fill="#191970" stroke="#191970" points="147.3278,-458.886 141.9065,-449.7833 140.468,-460.28 147.3278,-458.886"/>
</g>
<!-- Node105 -->
<g id="node25" class="node">
<title>Node105</title>
<g id="a_node25"><a xlink:href="kmp__request_8c.html#a3f6b790a06b933b78f40ade5e9a16131" target="_top" xlink:title="kmp_received_task">
<polygon fill="#ffffff" stroke="#000000" points="402.5,-202.5 402.5,-221.5 505.5,-221.5 505.5,-202.5 402.5,-202.5"/>
<text text-anchor="middle" x="454" y="-209.5" font-family="Helvetica,sans-Serif" font-size="10.00" fill="#000000">kmp_received_task</text>
</a>
</g>
</g>
<!-- Node82&#45;&gt;Node105 -->
<g id="edge36" class="edge">
<title>Node82&#45;&gt;Node105</title>
<path fill="none" stroke="#191970" d="M143.6311,-420.381C152.8036,-373.1023 178.3708,-255.0009 209,-231 267.2627,-185.3456 359.0865,-192.8472 412.2189,-202.4236"/>
<polygon fill="#191970" stroke="#191970" points="140.1744,-419.8238 141.747,-430.3013 147.0514,-421.13 140.1744,-419.8238"/>
</g>
<!-- Node107 -->
<g id="node27" class="node">
<title>Node107</title>
<g id="a_node27"><a xlink:href="kmp__request_8h.html#a3b022dcdc832786eb06126b5e6879604" target="_top" xlink:title="kmp_request_send">
<polygon fill="#ffffff" stroke="#000000" points="229.5,-158.5 229.5,-177.5 331.5,-177.5 331.5,-158.5 229.5,-158.5"/>
<text text-anchor="middle" x="280.5" y="-165.5" font-family="Helvetica,sans-Serif" font-size="10.00" fill="#000000">kmp_request_send</text>
</a>
</g>
</g>
<!-- Node82&#45;&gt;Node107 -->
<g id="edge38" class="edge">
<title>Node82&#45;&gt;Node107</title>
<path fill="none" stroke="#191970" d="M143.3412,-420.3828C152.4443,-368.9412 179.0186,-231.7973 209,-198 217.308,-188.6346 229.0158,-182.1146 240.5568,-177.6086"/>
<polygon fill="#191970" stroke="#191970" points="139.8908,-419.7956 141.6251,-430.2475 146.7872,-420.9954 139.8908,-419.7956"/>
</g>
<!-- Node109 -->
<g id="node29" class="node">
<title>Node109</title>
<g id="a_node29"><a xlink:href="kmp_8h.html#aa1bdc213acbcb756d20dcf63d5cd387d" target="_top" xlink:title="kmp_value_to_string">
<polygon fill="#ffffff" stroke="#000000" points="226,-240.5 226,-259.5 335,-259.5 335,-240.5 226,-240.5"/>
<text text-anchor="middle" x="280.5" y="-247.5" font-family="Helvetica,sans-Serif" font-size="10.00" fill="#000000">kmp_value_to_string</text>
</a>
</g>
</g>
<!-- Node82&#45;&gt;Node109 -->
<g id="edge41" class="edge">
<title>Node82&#45;&gt;Node109</title>
<path fill="none" stroke="#191970" d="M142.2715,-420.0149C147.4195,-384.267 163.3173,-309.3506 209,-269 213.9095,-264.6635 219.7006,-261.3008 225.8271,-258.6959"/>
<polygon fill="#191970" stroke="#191970" points="138.7721,-419.7837 140.9536,-430.1515 145.7137,-420.6863 138.7721,-419.7837"/>
</g>
<!-- Node111 -->
<g id="node31" class="node">
<title>Node111</title>
<g id="a_node31"><a xlink:href="utils_8h.html#a84a001f12bbadea0d207701a1dfd63fa" target="_top" xlink:title="kw_to_w_str">
<polygon fill="#ffffff" stroke="#000000" points="244.5,-278.5 244.5,-297.5 316.5,-297.5 316.5,-278.5 244.5,-278.5"/>
<text text-anchor="middle" x="280.5" y="-285.5" font-family="Helvetica,sans-Serif" font-size="10.00" fill="#000000">kw_to_w_str</text>
</a>
</g>
</g>
<!-- Node82&#45;&gt;Node111 -->
<g id="edge44" class="edge">
<title>Node82&#45;&gt;Node111</title>
<path fill="none" stroke="#191970" d="M144.735,-420.4034C152.821,-391.2131 172.113,-336.5845 209,-307 219.0195,-298.964 232.1214,-294.307 244.3685,-291.6153"/>
<polygon fill="#191970" stroke="#191970" points="141.3065,-419.6806 142.1713,-430.2401 148.0803,-421.446 141.3065,-419.6806"/>
</g>
<!-- Node114 -->
<g id="node34" class="node">
<title>Node114</title>
<g id="a_node34"><a xlink:href="utils_8h.html#a39c867e4c89519352139d2a416f80046" target="_top" xlink:title="w_to_kw_str">
<polygon fill="#ffffff" stroke="#000000" points="244.5,-860.5 244.5,-879.5 316.5,-879.5 316.5,-860.5 244.5,-860.5"/>
<text text-anchor="middle" x="280.5" y="-867.5" font-family="Helvetica,sans-Serif" font-size="10.00" fill="#000000">w_to_kw_str</text>
</a>
</g>
</g>
<!-- Node82&#45;&gt;Node114 -->
<g id="edge52" class="edge">
<title>Node82&#45;&gt;Node114</title>
<path fill="none" stroke="#191970" d="M140.7471,-459.9429C143.8823,-533.2615 158.2664,-786.6933 209,-846 217.8521,-856.3479 231.3121,-862.2491 244.1752,-865.6087"/>
<polygon fill="#191970" stroke="#191970" points="144.2374,-459.6301 140.3367,-449.7795 137.2432,-459.9126 144.2374,-459.6301"/>
</g>
<!-- Node115 -->
<g id="node35" class="node">
<title>Node115</title>
<g id="a_node35"><a xlink:href="wifi_8c.html#a9c38abb0900e0c7308be77d85dbf09e0" target="_top" xlink:title="wifi_connect">
<polygon fill="#ffffff" stroke="#000000" points="1223,-76.5 1223,-95.5 1295,-95.5 1295,-76.5 1223,-76.5"/>
<text text-anchor="middle" x="1259" y="-83.5" font-family="Helvetica,sans-Serif" font-size="10.00" fill="#000000">wifi_connect</text>
</a>
</g>
</g>
<!-- Node82&#45;&gt;Node115 -->
<g id="edge54" class="edge">
<title>Node82&#45;&gt;Node115</title>
<path fill="none" stroke="#191970" d="M141.6904,-420.1721C147.2182,-360.4735 166.8757,-184.3586 209,-149 281.6334,-88.0325 540.1705,-124 635,-124 635,-124 635,-124 965.5,-124 1058.755,-124 1167.3077,-104.899 1222.591,-93.7816"/>
<polygon fill="#191970" stroke="#191970" points="138.1988,-419.9235 140.7955,-430.1952 145.171,-420.5461 138.1988,-419.9235"/>
</g>
<!-- Node116 -->
<g id="node36" class="node">
<title>Node116</title>
<g id="a_node36"><a xlink:href="wifi_8c.html#a0be23fd8148c6a3abf21c739359bed52" target="_top" xlink:title="wifi_default">
<polygon fill="#ffffff" stroke="#000000" points="247,-79.5 247,-98.5 314,-98.5 314,-79.5 247,-79.5"/>
<text text-anchor="middle" x="280.5" y="-86.5" font-family="Helvetica,sans-Serif" font-size="10.00" fill="#000000">wifi_default</text>
</a>
</g>
</g>
<!-- Node82&#45;&gt;Node116 -->
<g id="edge55" class="edge">
<title>Node82&#45;&gt;Node116</title>
<path fill="none" stroke="#191970" d="M141.6525,-419.9585C147.295,-356.1647 167.7751,-159.3023 209,-113 218.6648,-102.1449 233.3906,-96.1911 246.9717,-92.9291"/>
<polygon fill="#191970" stroke="#191970" points="138.1368,-419.993 140.7699,-430.2554 145.1112,-420.5909 138.1368,-419.993"/>
</g>
<!-- Node126 -->
<g id="node46" class="node">
<title>Node126</title>
<g id="a_node46"><a xlink:href="wifi_8c.html#ac4389ba687a71cbb616f05b02427eb2a" target="_top" xlink:title="wifi_fallback">
<polygon fill="#ffffff" stroke="#000000" points="245.5,-41.5 245.5,-60.5 315.5,-60.5 315.5,-41.5 245.5,-41.5"/>
<text text-anchor="middle" x="280.5" y="-48.5" font-family="Helvetica,sans-Serif" font-size="10.00" fill="#000000">wifi_fallback</text>
</a>
</g>
</g>
<!-- Node82&#45;&gt;Node126 -->
<g id="edge69" class="edge">
<title>Node82&#45;&gt;Node126</title>
<path fill="none" stroke="#191970" d="M140.9873,-419.9738C144.8113,-350.5849 160.9082,-121.8599 209,-70 218.2575,-60.0172 232.1071,-55.0439 245.1589,-52.6431"/>
<polygon fill="#191970" stroke="#191970" points="137.4716,-420.182 140.443,-430.3516 144.462,-420.5487 137.4716,-420.182"/>
</g>
<!-- Node127 -->
<g id="node47" class="node">
<title>Node127</title>
<g id="a_node47"><a xlink:href="wifi_8c.html#a05bed02754a1afbba24a7441ba96ada0" target="_top" xlink:title="wifi_softap_config">
<polygon fill="#ffffff" stroke="#000000" points="232.5,-3.5 232.5,-22.5 328.5,-22.5 328.5,-3.5 232.5,-3.5"/>
<text text-anchor="middle" x="280.5" y="-10.5" font-family="Helvetica,sans-Serif" font-size="10.00" fill="#000000">wifi_softap_config</text>
</a>
</g>
</g>
<!-- Node82&#45;&gt;Node127 -->
<g id="edge71" class="edge">
<title>Node82&#45;&gt;Node127</title>
<path fill="none" stroke="#191970" d="M140.5933,-420.3319C143.2073,-346.9063 156.0483,-90.0735 209,-32 215.2308,-25.1665 223.6125,-20.6739 232.4425,-17.746"/>
<polygon fill="#191970" stroke="#191970" points="137.0901,-420.3726 140.257,-430.483 144.0863,-420.6044 137.0901,-420.3726"/>
</g>
<!-- Node83&#45;&gt;Node84 -->
<g id="edge3" class="edge">
<title>Node83&#45;&gt;Node84</title>
<path fill="none" stroke="#191970" d="M317.7721,-802.1633C350.7507,-809.3863 398.0609,-819.7482 427.3656,-826.1665"/>
<polygon fill="#191970" stroke="#191970" points="318.1267,-798.6581 307.6094,-799.9375 316.629,-805.496 318.1267,-798.6581"/>
</g>
<!-- Node87 -->
<g id="node7" class="node">
<title>Node87</title>
<g id="a_node7"><a xlink:href="en61107_8h.html#a1cf66dda97eb739b7d65099e019e79b0" target="_top" xlink:title="parse_en61107_frame">
<polygon fill="#ffffff" stroke="#000000" points="395.5,-537.5 395.5,-556.5 512.5,-556.5 512.5,-537.5 395.5,-537.5"/>
<text text-anchor="middle" x="454" y="-544.5" font-family="Helvetica,sans-Serif" font-size="10.00" fill="#000000">parse_en61107_frame</text>
</a>
</g>
</g>
<!-- Node86&#45;&gt;Node87 -->
<g id="edge6" class="edge">
<title>Node86&#45;&gt;Node87</title>
<path fill="none" stroke="#191970" d="M343.8597,-527.3207C362.521,-530.655 382.743,-534.2682 400.7051,-537.4776"/>
<polygon fill="#191970" stroke="#191970" points="344.4312,-523.8675 333.9714,-525.554 343.1999,-530.7584 344.4312,-523.8675"/>
</g>
<!-- Node86&#45;&gt;Node90 -->
<g id="edge9" class="edge">
<title>Node86&#45;&gt;Node90</title>
<path fill="none" stroke="#191970" d="M344.9543,-508.1986C358.9676,-506.5025 373.8136,-504.7056 387.8899,-503.0018"/>
<polygon fill="#191970" stroke="#191970" points="344.4274,-504.7368 334.9205,-509.4131 345.2686,-511.686 344.4274,-504.7368"/>
</g>
<!-- Node87&#45;&gt;Node88 -->
<g id="edge7" class="edge">
<title>Node87&#45;&gt;Node88</title>
<path fill="none" stroke="#191970" d="M522.9478,-537.0959C539.549,-534.7112 557.1775,-532.1789 573.4178,-529.8461"/>
<polygon fill="#191970" stroke="#191970" points="522.1662,-533.6722 512.7655,-538.5585 523.1616,-540.601 522.1662,-533.6722"/>
</g>
<!-- Node89 -->
<g id="node9" class="node">
<title>Node89</title>
<g id="a_node9"><a xlink:href="en61107__request_8h.html#acd43242675a3f25e7c3b530eac9d8b3a" target="_top" xlink:title="en61107_request_init">
<polygon fill="#ffffff" stroke="#000000" points="750,-511.5 750,-530.5 863,-530.5 863,-511.5 750,-511.5"/>
<text text-anchor="middle" x="806.5" y="-518.5" font-family="Helvetica,sans-Serif" font-size="10.00" fill="#000000">en61107_request_init</text>
</a>
</g>
</g>
<!-- Node88&#45;&gt;Node89 -->
<g id="edge8" class="edge">
<title>Node88&#45;&gt;Node89</title>
<path fill="none" stroke="#191970" d="M707.1718,-521C721.4136,-521 736.168,-521 749.8097,-521"/>
<polygon fill="#191970" stroke="#191970" points="706.9155,-517.5001 696.9154,-521 706.9154,-524.5001 706.9155,-517.5001"/>
</g>
<!-- Node90&#45;&gt;Node88 -->
<g id="edge10" class="edge">
<title>Node90&#45;&gt;Node88</title>
<path fill="none" stroke="#191970" d="M530.4181,-505.9772C544.7155,-508.031 559.4936,-510.1538 573.2775,-512.1338"/>
<polygon fill="#191970" stroke="#191970" points="530.5095,-502.4545 520.1135,-504.497 529.5142,-509.3834 530.5095,-502.4545"/>
</g>
<!-- Node91&#45;&gt;Node90 -->
<g id="edge12" class="edge">
<title>Node91&#45;&gt;Node90</title>
<path fill="none" stroke="#191970" d="M320.4822,-452.6745C346.1069,-460.7976 379.497,-471.3823 406.4757,-479.9346"/>
<polygon fill="#191970" stroke="#191970" points="321.3116,-449.2658 310.7214,-449.5803 319.1962,-455.9385 321.3116,-449.2658"/>
</g>
<!-- Node92&#45;&gt;Node90 -->
<g id="edge14" class="edge">
<title>Node92&#45;&gt;Node90</title>
<path fill="none" stroke="#191970" d="M339.2123,-413.9396C343.7168,-415.9395 348.0436,-418.2743 352,-421 374.5497,-436.535 366.164,-454.4768 388,-471 392.4724,-474.3842 397.4685,-477.3272 402.6557,-479.8781"/>
<polygon fill="#191970" stroke="#191970" points="340.3678,-410.6338 329.7786,-410.2867 337.8401,-417.1615 340.3678,-410.6338"/>
</g>
<!-- Node92&#45;&gt;Node93 -->
<g id="edge15" class="edge">
<title>Node92&#45;&gt;Node93</title>
<path fill="none" stroke="#191970" d="M327.9564,-414.035C350.026,-419.6319 376.3975,-426.3198 399.3007,-432.1281"/>
<polygon fill="#191970" stroke="#191970" points="328.7005,-410.613 318.1469,-411.5473 326.9797,-417.3982 328.7005,-410.613"/>
</g>
<!-- Node93&#45;&gt;Node88 -->
<g id="edge16" class="edge">
<title>Node93&#45;&gt;Node88</title>
<path fill="none" stroke="#191970" d="M504.1891,-464.7224C509.5407,-466.8047 514.8921,-468.9236 520,-471 553.0755,-484.4456 590.9691,-501.184 613.9334,-511.4783"/>
<polygon fill="#191970" stroke="#191970" points="505.1984,-461.3605 494.6087,-461.0309 502.6815,-467.8924 505.1984,-461.3605"/>
</g>
<!-- Node94&#45;&gt;Node87 -->
<g id="edge19" class="edge">
<title>Node94&#45;&gt;Node87</title>
<path fill="none" stroke="#191970" d="M362.2517,-550.7017C373.3944,-550.2521 384.6474,-549.7981 395.2722,-549.3694"/>
<polygon fill="#191970" stroke="#191970" points="361.9215,-547.212 352.0708,-551.1124 362.2038,-554.2063 361.9215,-547.212"/>
</g>
<!-- Node95&#45;&gt;Node87 -->
<g id="edge21" class="edge">
<title>Node95&#45;&gt;Node87</title>
<path fill="none" stroke="#191970" d="M341.3719,-580.1068C368.36,-572.1737 399.0263,-563.1594 421.5377,-556.5422"/>
<polygon fill="#191970" stroke="#191970" points="340.2243,-576.796 331.6173,-582.9742 342.1985,-583.5119 340.2243,-576.796"/>
</g>
<!-- Node96&#45;&gt;Node85 -->
<g id="edge26" class="edge">
<title>Node96&#45;&gt;Node85</title>
<path fill="none" stroke="#191970" d="M319.9083,-730.8584C330.3736,-734.3738 341.6437,-738.2505 352,-742 368.1419,-747.8442 371.7347,-750.5086 388,-756 397.8286,-759.3182 408.5994,-762.5755 418.5369,-765.43"/>
<polygon fill="#191970" stroke="#191970" points="320.771,-727.4567 310.1773,-727.6146 318.5572,-734.0974 320.771,-727.4567"/>
</g>
<!-- Node97 -->
<g id="node17" class="node">
<title>Node97</title>
<g id="a_node17"><a xlink:href="auth_8h.html#ac81ed03345875f282828a190baba0987" target="_top" xlink:title="authBasic">
<polygon fill="#ffffff" stroke="#000000" points="424,-689.5 424,-708.5 484,-708.5 484,-689.5 424,-689.5"/>
<text text-anchor="middle" x="454" y="-696.5" font-family="Helvetica,sans-Serif" font-size="10.00" fill="#000000">authBasic</text>
</a>
</g>
</g>
<!-- Node96&#45;&gt;Node97 -->
<g id="edge23" class="edge">
<title>Node96&#45;&gt;Node97</title>
<path fill="none" stroke="#191970" d="M326.9234,-712.9162C357.6357,-709.5529 397.0214,-705.2397 423.7468,-702.313"/>
<polygon fill="#191970" stroke="#191970" points="326.4308,-709.4491 316.8713,-714.017 327.1929,-716.4075 326.4308,-709.4491"/>
</g>
<!-- Node98 -->
<g id="node18" class="node">
<title>Node98</title>
<g id="a_node18"><a xlink:href="httpdespfs_8h.html#aa502116e50052d973b6eef02a6282dd3" target="_top" xlink:title="cgiEspFsHook">
<polygon fill="#ffffff" stroke="#000000" points="413.5,-651.5 413.5,-670.5 494.5,-670.5 494.5,-651.5 413.5,-651.5"/>
<text text-anchor="middle" x="454" y="-658.5" font-family="Helvetica,sans-Serif" font-size="10.00" fill="#000000">cgiEspFsHook</text>
</a>
</g>
</g>
<!-- Node96&#45;&gt;Node98 -->
<g id="edge24" class="edge">
<title>Node96&#45;&gt;Node98</title>
<path fill="none" stroke="#191970" d="M326.5513,-707.4075C335.1218,-704.9749 343.9179,-702.1596 352,-699 368.8498,-692.4126 371.2188,-686.7603 388,-680 396.848,-676.4356 406.6113,-673.2435 415.8538,-670.539"/>
<polygon fill="#191970" stroke="#191970" points="325.3899,-704.0958 316.6504,-710.0851 327.2173,-710.853 325.3899,-704.0958"/>
</g>
<!-- Node99 -->
<g id="node19" class="node">
<title>Node99</title>
<g id="a_node19"><a xlink:href="httpdespfs_8h.html#abc9eb26f247094e9fc41db897f6ec030" target="_top" xlink:title="cgiEspFsTemplate">
<polygon fill="#ffffff" stroke="#000000" points="404.5,-727.5 404.5,-746.5 503.5,-746.5 503.5,-727.5 404.5,-727.5"/>
<text text-anchor="middle" x="454" y="-734.5" font-family="Helvetica,sans-Serif" font-size="10.00" fill="#000000">cgiEspFsTemplate</text>
</a>
</g>
</g>
<!-- Node96&#45;&gt;Node99 -->
<g id="edge25" class="edge">
<title>Node96&#45;&gt;Node99</title>
<path fill="none" stroke="#191970" d="M327.0754,-723.1005C350.9009,-725.7096 379.9154,-728.887 404.1865,-731.5449"/>
<polygon fill="#191970" stroke="#191970" points="327.1929,-719.5925 316.8713,-721.983 326.4308,-726.5509 327.1929,-719.5925"/>
</g>
<!-- Node101 -->
<g id="node21" class="node">
<title>Node101</title>
<g id="a_node21"><a xlink:href="httpd_8h.html#ae7e718f51fe24926567ca743bce46246" target="_top" xlink:title="cgiRedirect">
<polygon fill="#ffffff" stroke="#000000" points="420.5,-392.5 420.5,-411.5 487.5,-411.5 487.5,-392.5 420.5,-392.5"/>
<text text-anchor="middle" x="454" y="-399.5" font-family="Helvetica,sans-Serif" font-size="10.00" fill="#000000">cgiRedirect</text>
</a>
</g>
</g>
<!-- Node100&#45;&gt;Node101 -->
<g id="edge28" class="edge">
<title>Node100&#45;&gt;Node101</title>
<path fill="none" stroke="#191970" d="M328.1166,-338.8657C336.3488,-341.9549 344.6233,-345.6491 352,-350 370.6954,-361.0269 369.0689,-372.3828 388,-383 397.8798,-388.5409 409.5158,-392.586 420.2441,-395.4823"/>
<polygon fill="#191970" stroke="#191970" points="329.1235,-335.51 318.5286,-335.5141 326.8136,-342.1179 329.1235,-335.51"/>
</g>
<!-- Node102 -->
<g id="node22" class="node">
<title>Node102</title>
<g id="a_node22"><a xlink:href="cgiwifi_8h.html#a7c655a56f56ecebad923c5c4daeb7f1a" target="_top" xlink:title="cgiSetup">
<polygon fill="#ffffff" stroke="#000000" points="426.5,-316.5 426.5,-335.5 481.5,-335.5 481.5,-316.5 426.5,-316.5"/>
<text text-anchor="middle" x="454" y="-323.5" font-family="Helvetica,sans-Serif" font-size="10.00" fill="#000000">cgiSetup</text>
</a>
</g>
</g>
<!-- Node100&#45;&gt;Node102 -->
<g id="edge29" class="edge">
<title>Node100&#45;&gt;Node102</title>
<path fill="none" stroke="#191970" d="M328.8691,-326C360.2661,-326 400.0643,-326 426.243,-326"/>
<polygon fill="#191970" stroke="#191970" points="328.5753,-322.5001 318.5753,-326 328.5753,-329.5001 328.5753,-322.5001"/>
</g>
<!-- Node103 -->
<g id="node23" class="node">
<title>Node103</title>
<g id="a_node23"><a xlink:href="cgiwifi_8h.html#a4ba43d83032eea6839857ed163af5fc9" target="_top" xlink:title="cgiWifiSetMode">
<polygon fill="#ffffff" stroke="#000000" points="411,-354.5 411,-373.5 497,-373.5 497,-354.5 411,-354.5"/>
<text text-anchor="middle" x="454" y="-361.5" font-family="Helvetica,sans-Serif" font-size="10.00" fill="#000000">cgiWifiSetMode</text>
</a>
</g>
</g>
<!-- Node100&#45;&gt;Node103 -->
<g id="edge30" class="edge">
<title>Node100&#45;&gt;Node103</title>
<path fill="none" stroke="#191970" d="M328.5102,-336.5152C354.2925,-342.162 385.8201,-349.0672 410.8241,-354.5436"/>
<polygon fill="#191970" stroke="#191970" points="329.0926,-333.0599 318.5753,-334.3393 327.5949,-339.8978 329.0926,-333.0599"/>
</g>
<!-- Node104&#45;&gt;Node85 -->
<g id="edge35" class="edge">
<title>Node104&#45;&gt;Node85</title>
<path fill="none" stroke="#191970" d="M342.7788,-693.3292C346.0169,-695.0011 349.1179,-696.8827 352,-699 376.1471,-716.7397 364.0366,-738.0129 388,-756 396.6779,-762.5137 407.526,-766.7974 417.9049,-769.6134"/>
<polygon fill="#191970" stroke="#191970" points="343.9179,-690.0057 333.3576,-689.1504 341.0796,-696.4044 343.9179,-690.0057"/>
</g>
<!-- Node104&#45;&gt;Node97 -->
<g id="edge32" class="edge">
<title>Node104&#45;&gt;Node97</title>
<path fill="none" stroke="#191970" d="M342.9852,-686.8428C370.5132,-689.8574 401.5863,-693.2602 423.8421,-695.6974"/>
<polygon fill="#191970" stroke="#191970" points="343.3482,-683.3617 333.0266,-685.7522 342.5861,-690.3201 343.3482,-683.3617"/>
</g>
<!-- Node104&#45;&gt;Node98 -->
<g id="edge33" class="edge">
<title>Node104&#45;&gt;Node98</title>
<path fill="none" stroke="#191970" d="M343.232,-673.1302C366.6506,-670.5656 392.6042,-667.7235 413.499,-665.4353"/>
<polygon fill="#191970" stroke="#191970" points="342.5861,-669.6799 333.0266,-674.2478 343.3482,-676.6383 342.5861,-669.6799"/>
</g>
<!-- Node104&#45;&gt;Node99 -->
<g id="edge34" class="edge">
<title>Node104&#45;&gt;Node99</title>
<path fill="none" stroke="#191970" d="M332.5999,-692.3647C339.204,-694.3631 345.8114,-696.5806 352,-699 368.8498,-705.5874 371.2188,-711.2397 388,-718 396.848,-721.5644 406.6113,-724.7565 415.8538,-727.461"/>
<polygon fill="#191970" stroke="#191970" points="333.5535,-688.9971 322.9756,-689.5956 331.618,-695.7242 333.5535,-688.9971"/>
</g>
<!-- Node106 -->
<g id="node26" class="node">
<title>Node106</title>
<g id="a_node26"><a xlink:href="kmp__request_8h.html#a048753ff9d6b448e2dcd8c85db0d6873" target="_top" xlink:title="kmp_request_init">
<polygon fill="#ffffff" stroke="#000000" points="588.5,-202.5 588.5,-221.5 681.5,-221.5 681.5,-202.5 588.5,-202.5"/>
<text text-anchor="middle" x="635" y="-209.5" font-family="Helvetica,sans-Serif" font-size="10.00" fill="#000000">kmp_request_init</text>
</a>
</g>
</g>
<!-- Node105&#45;&gt;Node106 -->
<g id="edge37" class="edge">
<title>Node105&#45;&gt;Node106</title>
<path fill="none" stroke="#191970" d="M516.1636,-212C539.8363,-212 566.3859,-212 588.3761,-212"/>
<polygon fill="#191970" stroke="#191970" points="515.8674,-208.5001 505.8673,-212 515.8673,-215.5001 515.8674,-208.5001"/>
</g>
<!-- Node108 -->
<g id="node28" class="node">
<title>Node108</title>
<g id="a_node28"><a xlink:href="kmp__request_8c.html#a0977a4640a97d389ac3b0fef0ba7a9b6" target="_top" xlink:title="kmp_receive_timeout\l_timer_func">
<polygon fill="#ffffff" stroke="#000000" points="398,-153 398,-183 510,-183 510,-153 398,-153"/>
<text text-anchor="start" x="406" y="-171" font-family="Helvetica,sans-Serif" font-size="10.00" fill="#000000">kmp_receive_timeout</text>
<text text-anchor="middle" x="454" y="-160" font-family="Helvetica,sans-Serif" font-size="10.00" fill="#000000">_timer_func</text>
</a>
</g>
</g>
<!-- Node107&#45;&gt;Node108 -->
<g id="edge39" class="edge">
<title>Node107&#45;&gt;Node108</title>
<path fill="none" stroke="#191970" d="M341.836,-161.5143C360.0547,-161.1251 379.9136,-161.1657 397.7894,-161.6364"/>
<polygon fill="#191970" stroke="#191970" points="341.5215,-158.0213 331.6173,-161.7839 341.7062,-165.0189 341.5215,-158.0213"/>
</g>
<!-- Node108&#45;&gt;Node107 -->
<g id="edge40" class="edge">
<title>Node108&#45;&gt;Node107</title>
<path fill="none" stroke="#191970" d="M387.6296,-174.5816C369.0553,-174.8938 349.1599,-174.7719 331.6173,-174.2161"/>
<polygon fill="#191970" stroke="#191970" points="387.8668,-178.0775 397.7894,-174.3636 387.7165,-171.0791 387.8668,-178.0775"/>
</g>
<!-- Node109&#45;&gt;Node105 -->
<g id="edge43" class="edge">
<title>Node109&#45;&gt;Node105</title>
<path fill="none" stroke="#191970" d="M334.1598,-238.2474C358.6927,-232.8742 387.3787,-226.5914 410.5335,-221.5201"/>
<polygon fill="#191970" stroke="#191970" points="333.301,-234.8525 324.2814,-240.411 334.7987,-241.6904 333.301,-234.8525"/>
</g>
<!-- Node110 -->
<g id="node30" class="node">
<title>Node110</title>
<g id="a_node30"><a xlink:href="kmp__request_8h.html#a38fdfecab4840fcd8b3c3074e715cf60" target="_top" xlink:title="kmp_get_received_energy_kwh">
<polygon fill="#ffffff" stroke="#000000" points="556,-240.5 556,-259.5 714,-259.5 714,-240.5 556,-240.5"/>
<text text-anchor="middle" x="635" y="-247.5" font-family="Helvetica,sans-Serif" font-size="10.00" fill="#000000">kmp_get_received_energy_kwh</text>
</a>
</g>
</g>
<!-- Node109&#45;&gt;Node110 -->
<g id="edge42" class="edge">
<title>Node109&#45;&gt;Node110</title>
<path fill="none" stroke="#191970" d="M345.4776,-250C404.7903,-250 492.6114,-250 555.9672,-250"/>
<polygon fill="#191970" stroke="#191970" points="345.1138,-246.5001 335.1137,-250 345.1137,-253.5001 345.1138,-246.5001"/>
</g>
<!-- Node111&#45;&gt;Node102 -->
<g id="edge45" class="edge">
<title>Node111&#45;&gt;Node102</title>
<path fill="none" stroke="#191970" d="M326.8368,-298.1487C358.6326,-305.1126 399.7561,-314.1195 426.4972,-319.9763"/>
<polygon fill="#191970" stroke="#191970" points="327.3886,-294.6867 316.8713,-295.966 325.8909,-301.5246 327.3886,-294.6867"/>
</g>
<!-- Node112 -->
<g id="node32" class="node">
<title>Node112</title>
<g id="a_node32"><a xlink:href="utils_8h.html#a06225dd8f535bfef3e645bbef8de5df8" target="_top" xlink:title="mw_to_w_str">
<polygon fill="#ffffff" stroke="#000000" points="416.5,-278.5 416.5,-297.5 491.5,-297.5 491.5,-278.5 416.5,-278.5"/>
<text text-anchor="middle" x="454" y="-285.5" font-family="Helvetica,sans-Serif" font-size="10.00" fill="#000000">mw_to_w_str</text>
</a>
</g>
</g>
<!-- Node111&#45;&gt;Node112 -->
<g id="edge46" class="edge">
<title>Node111&#45;&gt;Node112</title>
<path fill="none" stroke="#191970" d="M327.215,-288C355.2008,-288 390.3072,-288 416.4783,-288"/>
<polygon fill="#191970" stroke="#191970" points="326.8713,-284.5001 316.8713,-288 326.8713,-291.5001 326.8713,-284.5001"/>
</g>
<!-- Node112&#45;&gt;Node110 -->
<g id="edge48" class="edge">
<title>Node112&#45;&gt;Node110</title>
<path fill="none" stroke="#191970" d="M501.5678,-278.0134C528.7632,-272.3039 562.6908,-265.1809 589.5287,-259.5465"/>
<polygon fill="#191970" stroke="#191970" points="500.5708,-274.6463 491.5033,-280.1264 502.0091,-281.497 500.5708,-274.6463"/>
</g>
<!-- Node113 -->
<g id="node33" class="node">
<title>Node113</title>
<g id="a_node33"><a xlink:href="en61107__request_8h.html#a1d55ddd328b48520e19f10b6c0b6036c" target="_top" xlink:title="en61107_get_received\l_energy_kwh">
<polygon fill="#ffffff" stroke="#000000" points="576,-279 576,-309 694,-309 694,-279 576,-279"/>
<text text-anchor="start" x="584" y="-297" font-family="Helvetica,sans-Serif" font-size="10.00" fill="#000000">en61107_get_received</text>
<text text-anchor="middle" x="635" y="-286" font-family="Helvetica,sans-Serif" font-size="10.00" fill="#000000">_energy_kwh</text>
</a>
</g>
</g>
<!-- Node112&#45;&gt;Node113 -->
<g id="edge47" class="edge">
<title>Node112&#45;&gt;Node113</title>
<path fill="none" stroke="#191970" d="M501.5874,-289.5775C524.3179,-290.331 551.7481,-291.2403 575.8102,-292.0379"/>
<polygon fill="#191970" stroke="#191970" points="501.6138,-286.0765 491.5033,-289.2432 501.3818,-293.0727 501.6138,-286.0765"/>
</g>
<!-- Node114&#45;&gt;Node84 -->
<g id="edge53" class="edge">
<title>Node114&#45;&gt;Node84</title>
<path fill="none" stroke="#191970" d="M326.9309,-859.8307C359.0352,-852.7992 400.6143,-843.6925 427.3034,-837.8471"/>
<polygon fill="#191970" stroke="#191970" points="325.8909,-856.4754 316.8713,-862.034 327.3886,-863.3133 325.8909,-856.4754"/>
</g>
<!-- Node117 -->
<g id="node37" class="node">
<title>Node117</title>
<g id="a_node37"><a xlink:href="wifi_8c.html#a1ef15ecd9e69811f6db10215c7196281" target="_top" xlink:title="wifi_scan_done_cb">
<polygon fill="#ffffff" stroke="#000000" points="403,-52.5 403,-71.5 505,-71.5 505,-52.5 403,-52.5"/>
<text text-anchor="middle" x="454" y="-59.5" font-family="Helvetica,sans-Serif" font-size="10.00" fill="#000000">wifi_scan_done_cb</text>
</a>
</g>
</g>
<!-- Node116&#45;&gt;Node117 -->
<g id="edge56" class="edge">
<title>Node116&#45;&gt;Node117</title>
<path fill="none" stroke="#191970" d="M324.5335,-82.1475C348.3637,-78.4391 377.9249,-73.8388 402.7812,-69.9707"/>
<polygon fill="#191970" stroke="#191970" points="323.7073,-78.7339 314.3644,-83.73 324.7837,-85.6506 323.7073,-78.7339"/>
</g>
<!-- Node118 -->
<g id="node38" class="node">
<title>Node118</title>
<g id="a_node38"><a xlink:href="wifi_8c.html#ae7011f25db54676b86fefe2caa450a4a" target="_top" xlink:title="wifi_scan_timer_func">
<polygon fill="#ffffff" stroke="#000000" points="580,-22.5 580,-41.5 690,-41.5 690,-22.5 580,-22.5"/>
<text text-anchor="middle" x="635" y="-29.5" font-family="Helvetica,sans-Serif" font-size="10.00" fill="#000000">wifi_scan_timer_func</text>
</a>
</g>
</g>
<!-- Node117&#45;&gt;Node118 -->
<g id="edge57" class="edge">
<title>Node117&#45;&gt;Node118</title>
<path fill="none" stroke="#191970" d="M515.4013,-51.823C536.2306,-48.3706 559.3615,-44.5368 579.6874,-41.1678"/>
<polygon fill="#191970" stroke="#191970" points="514.6763,-48.3953 505.3832,-53.4834 515.8209,-55.3011 514.6763,-48.3953"/>
</g>
<!-- Node119 -->
<g id="node39" class="node">
<title>Node119</title>
<g id="a_node39"><a xlink:href="wifi_8c.html#a0d197abbbedf42c0522e20b43884c920" target="_top" xlink:title="acl_check_packet">
<polygon fill="#ffffff" stroke="#000000" points="758.5,-.5 758.5,-19.5 854.5,-19.5 854.5,-.5 758.5,-.5"/>
<text text-anchor="middle" x="806.5" y="-7.5" font-family="Helvetica,sans-Serif" font-size="10.00" fill="#000000">acl_check_packet</text>
</a>
</g>
</g>
<!-- Node118&#45;&gt;Node119 -->
<g id="edge58" class="edge">
<title>Node118&#45;&gt;Node119</title>
<path fill="none" stroke="#191970" d="M700.1554,-23.6419C719.4798,-21.1629 740.2873,-18.4938 758.3284,-16.1794"/>
<polygon fill="#191970" stroke="#191970" points="699.6811,-20.174 690.2077,-24.918 700.5718,-27.1171 699.6811,-20.174"/>
</g>
<!-- Node122 -->
<g id="node42" class="node">
<title>Node122</title>
<g id="a_node42"><a xlink:href="wifi_8c.html#a5831b420da0012d53c979c375714d382" target="_top" xlink:title="wifi_start_scan">
<polygon fill="#ffffff" stroke="#000000" points="765,-38.5 765,-57.5 848,-57.5 848,-38.5 765,-38.5"/>
<text text-anchor="middle" x="806.5" y="-45.5" font-family="Helvetica,sans-Serif" font-size="10.00" fill="#000000">wifi_start_scan</text>
</a>
</g>
</g>
<!-- Node118&#45;&gt;Node122 -->
<g id="edge62" class="edge">
<title>Node118&#45;&gt;Node122</title>
<path fill="none" stroke="#191970" d="M700.3026,-31.5159C722.6258,-33.213 746.9123,-35.7357 766.6188,-38.4737"/>
<polygon fill="#191970" stroke="#191970" points="700.4312,-28.0163 690.2077,-30.7965 699.9336,-34.9986 700.4312,-28.0163"/>
</g>
<!-- Node120 -->
<g id="node40" class="node">
<title>Node120</title>
<g id="a_node40"><a xlink:href="wifi_8c.html#a3cea38a15b267ddabc1e6d5cf72b5ae8" target="_top" xlink:title="my_input_ap">
<polygon fill="#ffffff" stroke="#000000" points="928.5,-.5 928.5,-19.5 1002.5,-19.5 1002.5,-.5 928.5,-.5"/>
<text text-anchor="middle" x="965.5" y="-7.5" font-family="Helvetica,sans-Serif" font-size="10.00" fill="#000000">my_input_ap</text>
</a>
</g>
</g>
<!-- Node119&#45;&gt;Node120 -->
<g id="edge59" class="edge">
<title>Node119&#45;&gt;Node120</title>
<path fill="none" stroke="#191970" d="M864.8567,-10C886.0898,-10 909.4929,-10 928.3838,-10"/>
<polygon fill="#191970" stroke="#191970" points="864.6368,-6.5001 854.6367,-10 864.6367,-13.5001 864.6368,-6.5001"/>
</g>
<!-- Node121 -->
<g id="node41" class="node">
<title>Node121</title>
<g id="a_node41"><a xlink:href="wifi_8c.html#aa87c06c3cbab2aa762551fcec59dc8f0" target="_top" xlink:title="wifi_handle_event_cb">
<polygon fill="#ffffff" stroke="#000000" points="1068,-.5 1068,-19.5 1181,-19.5 1181,-.5 1068,-.5"/>
<text text-anchor="middle" x="1124.5" y="-7.5" font-family="Helvetica,sans-Serif" font-size="10.00" fill="#000000">wifi_handle_event_cb</text>
</a>
</g>
</g>
<!-- Node120&#45;&gt;Node121 -->
<g id="edge60" class="edge">
<title>Node120&#45;&gt;Node121</title>
<path fill="none" stroke="#191970" d="M1013.1457,-10C1030.3495,-10 1049.9378,-10 1067.8382,-10"/>
<polygon fill="#191970" stroke="#191970" points="1012.7785,-6.5001 1002.7784,-10 1012.7784,-13.5001 1012.7785,-6.5001"/>
</g>
<!-- Node121&#45;&gt;Node115 -->
<g id="edge61" class="edge">
<title>Node121&#45;&gt;Node115</title>
<path fill="none" stroke="#191970" d="M1170.9697,-23.5181C1174.4628,-25.1648 1177.8493,-26.9876 1181,-29 1200.6063,-41.5231 1198.047,-53.5086 1217,-67 1222.0855,-70.6201 1227.9711,-73.798 1233.6971,-76.4672"/>
<polygon fill="#191970" stroke="#191970" points="1172.138,-20.2126 1161.5631,-19.5617 1169.424,-26.6651 1172.138,-20.2126"/>
</g>
<!-- Node122&#45;&gt;Node115 -->
<g id="edge63" class="edge">
<title>Node122&#45;&gt;Node115</title>
<path fill="none" stroke="#191970" d="M856.1474,-59.6233C869.9525,-62.4654 884.9991,-65.2029 899,-67 1016.7924,-82.1194 1157.7485,-85.2639 1222.8155,-85.8789"/>
<polygon fill="#191970" stroke="#191970" points="856.8555,-56.1957 846.3473,-57.5473 855.4048,-63.0437 856.8555,-56.1957"/>
</g>
<!-- Node122&#45;&gt;Node117 -->
<g id="edge67" class="edge">
<title>Node122&#45;&gt;Node117</title>
<path fill="none" stroke="#191970" d="M754.514,-50.0647C687.5483,-52.7243 571.8662,-57.3188 505.2565,-59.9643"/>
<polygon fill="#191970" stroke="#191970" points="754.9751,-53.5492 764.8283,-49.655 754.6972,-46.5547 754.9751,-53.5492"/>
</g>
<!-- Node122&#45;&gt;Node118 -->
<g id="edge68" class="edge">
<title>Node122&#45;&gt;Node118</title>
<path fill="none" stroke="#191970" d="M754.5602,-49.4145C728.9374,-47.8051 698.519,-44.8141 674.7766,-41.5117"/>
<polygon fill="#191970" stroke="#191970" points="754.6656,-52.926 764.8478,-49.9982 755.0622,-45.9373 754.6656,-52.926"/>
</g>
<!-- Node123 -->
<g id="node43" class="node">
<title>Node123</title>
<g id="a_node43"><a xlink:href="watchdog_8c.html#a47b6861ffbed37fef88aa644f10ba917" target="_top" xlink:title="wifi_reconnect_timer_func">
<polygon fill="#ffffff" stroke="#000000" points="899,-38.5 899,-57.5 1032,-57.5 1032,-38.5 899,-38.5"/>
<text text-anchor="middle" x="965.5" y="-45.5" font-family="Helvetica,sans-Serif" font-size="10.00" fill="#000000">wifi_reconnect_timer_func</text>
</a>
</g>
</g>
<!-- Node122&#45;&gt;Node123 -->
<g id="edge64" class="edge">
<title>Node122&#45;&gt;Node123</title>
<path fill="none" stroke="#191970" d="M858.3569,-48C871.263,-48 885.2793,-48 898.7896,-48"/>
<polygon fill="#191970" stroke="#191970" points="858.2754,-44.5001 848.2754,-48 858.2753,-51.5001 858.2754,-44.5001"/>
</g>
<!-- Node124 -->
<g id="node44" class="node">
<title>Node124</title>
<g id="a_node44"><a xlink:href="watchdog_8c.html#aeb03c505b5b589ae4d89b2ae11dd1711" target="_top" xlink:title="watchdog_timer_func">
<polygon fill="#ffffff" stroke="#000000" points="1068.5,-38.5 1068.5,-57.5 1180.5,-57.5 1180.5,-38.5 1068.5,-38.5"/>
<text text-anchor="middle" x="1124.5" y="-45.5" font-family="Helvetica,sans-Serif" font-size="10.00" fill="#000000">watchdog_timer_func</text>
</a>
</g>
</g>
<!-- Node123&#45;&gt;Node124 -->
<g id="edge65" class="edge">
<title>Node123&#45;&gt;Node124</title>
<path fill="none" stroke="#191970" d="M1042.2767,-48C1051.0626,-48 1059.8929,-48 1068.3377,-48"/>
<polygon fill="#191970" stroke="#191970" points="1042.0091,-44.5001 1032.009,-48 1042.009,-51.5001 1042.0091,-44.5001"/>
</g>
<!-- Node125 -->
<g id="node45" class="node">
<title>Node125</title>
<g id="a_node45"><a xlink:href="watchdog_8h.html#ab148f2150b52df5b60e312dded3a2934" target="_top" xlink:title="start_watchdog">
<polygon fill="#ffffff" stroke="#000000" points="1217,-38.5 1217,-57.5 1301,-57.5 1301,-38.5 1217,-38.5"/>
<text text-anchor="middle" x="1259" y="-45.5" font-family="Helvetica,sans-Serif" font-size="10.00" fill="#000000">start_watchdog</text>
</a>
</g>
</g>
<!-- Node124&#45;&gt;Node125 -->
<g id="edge66" class="edge">
<title>Node124&#45;&gt;Node125</title>
<path fill="none" stroke="#191970" d="M1191.0443,-48C1199.8413,-48 1208.6545,-48 1216.8815,-48"/>
<polygon fill="#191970" stroke="#191970" points="1190.7608,-44.5001 1180.7608,-48 1190.7608,-51.5001 1190.7608,-44.5001"/>
</g>
<!-- Node126&#45;&gt;Node117 -->
<g id="edge70" class="edge">
<title>Node126&#45;&gt;Node117</title>
<path fill="none" stroke="#191970" d="M325.7163,-53.8667C349.3495,-55.3651 378.3656,-57.2047 402.8205,-58.7552"/>
<polygon fill="#191970" stroke="#191970" points="325.8118,-50.3659 315.6103,-53.226 325.3688,-57.3518 325.8118,-50.3659"/>
</g>
</g>
</svg>
