<?xml version="1.0" encoding="UTF-8" standalone="no"?>
<!DOCTYPE svg PUBLIC "-//W3C//DTD SVG 1.1//EN"
 "http://www.w3.org/Graphics/SVG/1.1/DTD/svg11.dtd">
<!-- Generated by graphviz version 2.40.1 (20161225.0304)
 -->
<!-- Title: _vsprintf_putcf Pages: 1 -->
<svg width="287pt" height="28pt"
 viewBox="0.00 0.00 287.00 28.00" xmlns="http://www.w3.org/2000/svg" xmlns:xlink="http://www.w3.org/1999/xlink">
<g id="graph0" class="graph" transform="scale(1 1) rotate(0) translate(4 24)">
<title>_vsprintf_putcf</title>
<polygon fill="#ffffff" stroke="transparent" points="-4,4 -4,-24 283,-24 283,4 -4,4"/>
<!-- Node47 -->
<g id="node1" class="node">
<title>Node47</title>
<polygon fill="#bfbfbf" stroke="#000000" points="0,-.5 0,-19.5 82,-19.5 82,-.5 0,-.5"/>
<text text-anchor="middle" x="41" y="-7.5" font-family="Helvetica,sans-Serif" font-size="10.00" fill="#000000">_vsprintf_putcf</text>
</g>
<!-- Node48 -->
<g id="node2" class="node">
<title>Node48</title>
<g id="a_node2"><a xlink:href="tinyprintf_8h.html#a9e281947b52c96c7c8d1c0928c79f839" target="_top" xlink:title="tfp_vsprintf">
<polygon fill="#ffffff" stroke="#000000" points="118,-.5 118,-19.5 183,-19.5 183,-.5 118,-.5"/>
<text text-anchor="middle" x="150.5" y="-7.5" font-family="Helvetica,sans-Serif" font-size="10.00" fill="#000000">tfp_vsprintf</text>
</a>
</g>
</g>
<!-- Node47&#45;&gt;Node48 -->
<g id="edge1" class="edge">
<title>Node47&#45;&gt;Node48</title>
<path fill="none" stroke="#191970" d="M92.1797,-10C100.8708,-10 109.6823,-10 117.7333,-10"/>
<polygon fill="#191970" stroke="#191970" points="92.0853,-6.5001 82.0853,-10 92.0853,-13.5001 92.0853,-6.5001"/>
</g>
<!-- Node49 -->
<g id="node3" class="node">
<title>Node49</title>
<g id="a_node3"><a xlink:href="tinyprintf_8c.html#a8bf8573d91b42212de9e8c3ba2979bc9" target="_top" xlink:title="tfp_sprintf">
<polygon fill="#ffffff" stroke="#000000" points="219,-.5 219,-19.5 279,-19.5 279,-.5 219,-.5"/>
<text text-anchor="middle" x="249" y="-7.5" font-family="Helvetica,sans-Serif" font-size="10.00" fill="#000000">tfp_sprintf</text>
</a>
</g>
</g>
<!-- Node48&#45;&gt;Node49 -->
<g id="edge2" class="edge">
<title>Node48&#45;&gt;Node49</title>
<path fill="none" stroke="#191970" d="M193.0291,-10C201.7185,-10 210.6924,-10 218.8413,-10"/>
<polygon fill="#191970" stroke="#191970" points="193.0256,-6.5001 183.0256,-10 193.0255,-13.5001 193.0256,-6.5001"/>
</g>
</g>
</svg>
