<?xml version="1.0" encoding="UTF-8" standalone="no"?>
<!DOCTYPE svg PUBLIC "-//W3C//DTD SVG 1.1//EN"
 "http://www.w3.org/Graphics/SVG/1.1/DTD/svg11.dtd">
<!-- Generated by graphviz version 2.39.20160927.1334 (20160927.1334)
 -->
<!-- Title: uart_reattach Pages: 1 -->
<svg width="721pt" height="104pt"
 viewBox="0.00 0.00 721.00 104.00" xmlns="http://www.w3.org/2000/svg" xmlns:xlink="http://www.w3.org/1999/xlink">
<g id="graph0" class="graph" transform="scale(1 1) rotate(0) translate(4 100)">
<title>uart_reattach</title>
<polygon fill="#ffffff" stroke="transparent" points="-4,4 -4,-100 717,-100 717,4 -4,4"/>
<!-- Node1 -->
<g id="node1" class="node">
<title>Node1</title>
<polygon fill="#bfbfbf" stroke="#000000" points="0,-57.5 0,-76.5 75,-76.5 75,-57.5 0,-57.5"/>
<text text-anchor="middle" x="37.5" y="-64.5" font-family="Helvetica,sans-Serif" font-size="10.00" fill="#000000">uart_reattach</text>
</g>
<!-- Node2 -->
<g id="node2" class="node">
<title>Node2</title>
<g id="a_node2"><a xlink:href="uart_8c.html#af4416966da7cba189e7998334e2a0bee" target="_top" xlink:title="uart_init">
<polygon fill="#ffffff" stroke="#000000" points="111,-57.5 111,-76.5 163,-76.5 163,-57.5 111,-57.5"/>
<text text-anchor="middle" x="137" y="-64.5" font-family="Helvetica,sans-Serif" font-size="10.00" fill="#000000">uart_init</text>
</a>
</g>
</g>
<!-- Node1&#45;&gt;Node2 -->
<g id="edge1" class="edge">
<title>Node1&#45;&gt;Node2</title>
<path fill="none" stroke="#191970" d="M75.1167,-67C83.4748,-67 92.3194,-67 100.627,-67"/>
<polygon fill="#191970" stroke="#191970" points="100.784,-70.5001 110.784,-67 100.784,-63.5001 100.784,-70.5001"/>
</g>
<!-- Node3 -->
<g id="node3" class="node">
<title>Node3</title>
<g id="a_node3"><a xlink:href="uart_8c.html#a6d11dbbb730e8898c2a8922f4217ab5c" target="_top" xlink:title="uart0_write_char">
<polygon fill="#ffffff" stroke="#000000" points="199,-76.5 199,-95.5 290,-95.5 290,-76.5 199,-76.5"/>
<text text-anchor="middle" x="244.5" y="-83.5" font-family="Helvetica,sans-Serif" font-size="10.00" fill="#000000">uart0_write_char</text>
</a>
</g>
</g>
<!-- Node2&#45;&gt;Node3 -->
<g id="edge2" class="edge">
<title>Node2&#45;&gt;Node3</title>
<path fill="none" stroke="#191970" d="M163.023,-71.5994C170.963,-73.0027 180.015,-74.6026 189.129,-76.2134"/>
<polygon fill="#191970" stroke="#191970" points="188.537,-79.663 198.993,-77.9569 189.755,-72.7698 188.537,-79.663"/>
</g>
<!-- Node5 -->
<g id="node5" class="node">
<title>Node5</title>
<g id="a_node5"><a xlink:href="uart_8c.html#a489b77b74dfee22fd4f0c5323ab44da6" target="_top" xlink:title="uart_config">
<polygon fill="#ffffff" stroke="#000000" points="211.5,-38.5 211.5,-57.5 277.5,-57.5 277.5,-38.5 211.5,-38.5"/>
<text text-anchor="middle" x="244.5" y="-45.5" font-family="Helvetica,sans-Serif" font-size="10.00" fill="#000000">uart_config</text>
</a>
</g>
</g>
<!-- Node2&#45;&gt;Node5 -->
<g id="edge4" class="edge">
<title>Node2&#45;&gt;Node5</title>
<path fill="none" stroke="#191970" d="M163.023,-62.4006C174.496,-60.3728 188.29,-57.9347 201.24,-55.646"/>
<polygon fill="#191970" stroke="#191970" points="202.145,-59.0404 211.383,-53.8532 200.926,-52.1472 202.145,-59.0404"/>
</g>
<!-- Node4 -->
<g id="node4" class="node">
<title>Node4</title>
<g id="a_node4"><a xlink:href="uart_8c.html#a40bca7ca9b269f93bc9f17924a38fbe0" target="_top" xlink:title="uart_tx_one_char">
<polygon fill="#ffffff" stroke="#000000" points="335,-76.5 335,-95.5 429,-95.5 429,-76.5 335,-76.5"/>
<text text-anchor="middle" x="382" y="-83.5" font-family="Helvetica,sans-Serif" font-size="10.00" fill="#000000">uart_tx_one_char</text>
</a>
</g>
</g>
<!-- Node3&#45;&gt;Node4 -->
<g id="edge3" class="edge">
<title>Node3&#45;&gt;Node4</title>
<path fill="none" stroke="#191970" d="M290.286,-86C301.171,-86 312.925,-86 324.268,-86"/>
<polygon fill="#191970" stroke="#191970" points="324.533,-89.5001 334.533,-86 324.533,-82.5001 324.533,-89.5001"/>
</g>
<!-- Node6 -->
<g id="node6" class="node">
<title>Node6</title>
<g id="a_node6"><a xlink:href="uart_8c.html#a899cd55c7d84717f3e869e4ee5bfda84" target="_top" xlink:title="uart0_rx_intr_handler">
<polygon fill="#ffffff" stroke="#000000" points="326,-38.5 326,-57.5 438,-57.5 438,-38.5 326,-38.5"/>
<text text-anchor="middle" x="382" y="-45.5" font-family="Helvetica,sans-Serif" font-size="10.00" fill="#000000">uart0_rx_intr_handler</text>
</a>
</g>
</g>
<!-- Node5&#45;&gt;Node6 -->
<g id="edge5" class="edge">
<title>Node5&#45;&gt;Node6</title>
<path fill="none" stroke="#191970" d="M277.785,-48C289.312,-48 302.671,-48 315.898,-48"/>
<polygon fill="#191970" stroke="#191970" points="315.956,-51.5001 325.956,-48 315.956,-44.5001 315.956,-51.5001"/>
</g>
<!-- Node11 -->
<g id="node11" class="node">
<title>Node11</title>
<g id="a_node11"><a xlink:href="espmissingincludes_8h.html#a1bea1725066e012f8f618d08ed7fee45" target="_top" xlink:title="uart_div_modify">
<polygon fill="#ffffff" stroke="#000000" points="338.5,-0.5 338.5,-19.5 425.5,-19.5 425.5,-0.5 338.5,-0.5"/>
<text text-anchor="middle" x="382" y="-7.5" font-family="Helvetica,sans-Serif" font-size="10.00" fill="#000000">uart_div_modify</text>
</a>
</g>
</g>
<!-- Node5&#45;&gt;Node11 -->
<g id="edge10" class="edge">
<title>Node5&#45;&gt;Node11</title>
<path fill="none" stroke="#191970" d="M277.785,-38.8013C295.788,-33.8258 318.26,-27.6155 337.722,-22.2368"/>
<polygon fill="#191970" stroke="#191970" points="338.879,-25.5483 347.586,-19.5109 337.015,-18.8012 338.879,-25.5483"/>
</g>
<!-- Node7 -->
<g id="node7" class="node">
<title>Node7</title>
<g id="a_node7"><a xlink:href="en61107__request_8c.html#ae20bf12760f56ac48afdd0c7952d168b" target="_top" xlink:title="en61107_fifo_put">
<polygon fill="#ffffff" stroke="#000000" points="474,-57.5 474,-76.5 568,-76.5 568,-57.5 474,-57.5"/>
<text text-anchor="middle" x="521" y="-64.5" font-family="Helvetica,sans-Serif" font-size="10.00" fill="#000000">en61107_fifo_put</text>
</a>
</g>
</g>
<!-- Node6&#45;&gt;Node7 -->
<g id="edge6" class="edge">
<title>Node6&#45;&gt;Node7</title>
<path fill="none" stroke="#191970" d="M438.136,-55.6733C446.492,-56.8155 455.117,-57.9944 463.501,-59.1404"/>
<polygon fill="#191970" stroke="#191970" points="463.192,-62.6307 473.574,-60.5173 464.14,-55.6952 463.192,-62.6307"/>
</g>
<!-- Node9 -->
<g id="node9" class="node">
<title>Node9</title>
<g id="a_node9"><a xlink:href="kmp__request_8c.html#a3a189e5f8a1ffa68dacbe1a0e7080c65" target="_top" xlink:title="kmp_fifo_put">
<polygon fill="#ffffff" stroke="#000000" points="484,-19.5 484,-38.5 558,-38.5 558,-19.5 484,-19.5"/>
<text text-anchor="middle" x="521" y="-26.5" font-family="Helvetica,sans-Serif" font-size="10.00" fill="#000000">kmp_fifo_put</text>
</a>
</g>
</g>
<!-- Node6&#45;&gt;Node9 -->
<g id="edge8" class="edge">
<title>Node6&#45;&gt;Node9</title>
<path fill="none" stroke="#191970" d="M438.136,-40.3267C449.904,-38.7181 462.204,-37.0369 473.615,-35.4771"/>
<polygon fill="#191970" stroke="#191970" points="474.371,-38.9064 483.805,-34.0842 473.423,-31.9709 474.371,-38.9064"/>
</g>
<!-- Node8 -->
<g id="node8" class="node">
<title>Node8</title>
<g id="a_node8"><a xlink:href="en61107__request_8c.html#a9984f86f367d70ca77edce2accd01c64" target="_top" xlink:title="en61107_fifo_in_use">
<polygon fill="#ffffff" stroke="#000000" points="604,-57.5 604,-76.5 713,-76.5 713,-57.5 604,-57.5"/>
<text text-anchor="middle" x="658.5" y="-64.5" font-family="Helvetica,sans-Serif" font-size="10.00" fill="#000000">en61107_fifo_in_use</text>
</a>
</g>
</g>
<!-- Node7&#45;&gt;Node8 -->
<g id="edge7" class="edge">
<title>Node7&#45;&gt;Node8</title>
<path fill="none" stroke="#191970" d="M568.32,-67C576.383,-67 584.883,-67 593.312,-67"/>
<polygon fill="#191970" stroke="#191970" points="593.523,-70.5001 603.523,-67 593.523,-63.5001 593.523,-70.5001"/>
</g>
<!-- Node10 -->
<g id="node10" class="node">
<title>Node10</title>
<g id="a_node10"><a xlink:href="kmp__request_8c.html#a50794131d44d1f5c42484104202be6df" target="_top" xlink:title="kmp_fifo_in_use">
<polygon fill="#ffffff" stroke="#000000" points="614,-19.5 614,-38.5 703,-38.5 703,-19.5 614,-19.5"/>
<text text-anchor="middle" x="658.5" y="-26.5" font-family="Helvetica,sans-Serif" font-size="10.00" fill="#000000">kmp_fifo_in_use</text>
</a>
</g>
</g>
<!-- Node9&#45;&gt;Node10 -->
<g id="edge9" class="edge">
<title>Node9&#45;&gt;Node10</title>
<path fill="none" stroke="#191970" d="M558.209,-29C572.168,-29 588.34,-29 603.569,-29"/>
<polygon fill="#191970" stroke="#191970" points="603.923,-32.5001 613.923,-29 603.923,-25.5001 603.923,-32.5001"/>
</g>
</g>
</svg>
