<?xml version="1.0" encoding="UTF-8" standalone="no"?>
<!DOCTYPE svg PUBLIC "-//W3C//DTD SVG 1.1//EN"
 "http://www.w3.org/Graphics/SVG/1.1/DTD/svg11.dtd">
<!-- Generated by graphviz version 2.39.20160927.1334 (20160927.1334)
 -->
<!-- Title: include/driver/uart.h Pages: 1 -->
<svg width="255pt" height="84pt"
 viewBox="0.00 0.00 255.00 84.00" xmlns="http://www.w3.org/2000/svg" xmlns:xlink="http://www.w3.org/1999/xlink">
<g id="graph0" class="graph" transform="scale(1 1) rotate(0) translate(4 80)">
<title>include/driver/uart.h</title>
<polygon fill="#ffffff" stroke="transparent" points="-4,4 -4,-80 251,-80 251,4 -4,4"/>
<!-- Node1 -->
<g id="node1" class="node">
<title>Node1</title>
<polygon fill="#bfbfbf" stroke="#000000" points="82.5,-56.5 82.5,-75.5 186.5,-75.5 186.5,-56.5 82.5,-56.5"/>
<text text-anchor="middle" x="134.5" y="-63.5" font-family="Helvetica,sans-Serif" font-size="10.00" fill="#000000">include/driver/uart.h</text>
</g>
<!-- Node2 -->
<g id="node2" class="node">
<title>Node2</title>
<g id="a_node2"><a xlink:href="uart__register_8h.html" target="_top" xlink:title="uart_register.h">
<polygon fill="#ffffff" stroke="#000000" points="0,-0.5 0,-19.5 81,-19.5 81,-0.5 0,-0.5"/>
<text text-anchor="middle" x="40.5" y="-7.5" font-family="Helvetica,sans-Serif" font-size="10.00" fill="#000000">uart_register.h</text>
</a>
</g>
</g>
<!-- Node1&#45;&gt;Node2 -->
<g id="edge1" class="edge">
<title>Node1&#45;&gt;Node2</title>
<path fill="none" stroke="#191970" d="M118.126,-56.2455C103.569,-47.5731 82.069,-34.7645 65.3848,-24.825"/>
<polygon fill="#191970" stroke="#191970" points="67.0683,-21.7539 56.6859,-19.6427 63.4856,-27.7676 67.0683,-21.7539"/>
</g>
<!-- Node3 -->
<g id="node3" class="node">
<title>Node3</title>
<polygon fill="#ffffff" stroke="#bfbfbf" points="99.5,-0.5 99.5,-19.5 169.5,-19.5 169.5,-0.5 99.5,-0.5"/>
<text text-anchor="middle" x="134.5" y="-7.5" font-family="Helvetica,sans-Serif" font-size="10.00" fill="#000000">eagle_soc.h</text>
</g>
<!-- Node1&#45;&gt;Node3 -->
<g id="edge2" class="edge">
<title>Node1&#45;&gt;Node3</title>
<path fill="none" stroke="#191970" d="M134.5,-56.2455C134.5,-48.9382 134.5,-38.6944 134.5,-29.7046"/>
<polygon fill="#191970" stroke="#191970" points="138,-29.6426 134.5,-19.6427 131,-29.6427 138,-29.6426"/>
</g>
<!-- Node4 -->
<g id="node4" class="node">
<title>Node4</title>
<polygon fill="#ffffff" stroke="#bfbfbf" points="188,-0.5 188,-19.5 247,-19.5 247,-0.5 188,-0.5"/>
<text text-anchor="middle" x="217.5" y="-7.5" font-family="Helvetica,sans-Serif" font-size="10.00" fill="#000000">c_types.h</text>
</g>
<!-- Node1&#45;&gt;Node4 -->
<g id="edge3" class="edge">
<title>Node1&#45;&gt;Node4</title>
<path fill="none" stroke="#191970" d="M148.957,-56.2455C161.573,-47.7337 180.094,-35.2375 194.705,-25.3801"/>
<polygon fill="#191970" stroke="#191970" points="196.876,-28.1371 203.208,-19.6427 192.961,-22.3343 196.876,-28.1371"/>
</g>
</g>
</svg>
