<?xml version="1.0" encoding="UTF-8" standalone="no"?>
<!DOCTYPE svg PUBLIC "-//W3C//DTD SVG 1.1//EN"
 "http://www.w3.org/Graphics/SVG/1.1/DTD/svg11.dtd">
<!-- Generated by graphviz version 2.39.20160927.1334 (20160927.1334)
 -->
<!-- Title: uart_tx_one_char Pages: 1 -->
<svg width="1498pt" height="728pt"
 viewBox="0.00 0.00 1498.00 727.57" xmlns="http://www.w3.org/2000/svg" xmlns:xlink="http://www.w3.org/1999/xlink">
<g id="graph0" class="graph" transform="scale(1 1) rotate(0) translate(4 723.567)">
<title>uart_tx_one_char</title>
<polygon fill="#ffffff" stroke="transparent" points="-4,4 -4,-723.567 1494,-723.567 1494,4 -4,4"/>
<!-- Node1 -->
<g id="node1" class="node">
<title>Node1</title>
<polygon fill="#bfbfbf" stroke="#000000" points="0,-306.5 0,-325.5 94,-325.5 94,-306.5 0,-306.5"/>
<text text-anchor="middle" x="47" y="-313.5" font-family="Helvetica,sans-Serif" font-size="10.00" fill="#000000">uart_tx_one_char</text>
</g>
<!-- Node2 -->
<g id="node2" class="node">
<title>Node2</title>
<g id="a_node2"><a xlink:href="uart_8h.html#ae7dc0cb27255242e5edb37cc6c78702c" target="_top" xlink:title="uart0_sendStr">
<polygon fill="#ffffff" stroke="#000000" points="136,-363.5 136,-382.5 215,-382.5 215,-363.5 136,-363.5"/>
<text text-anchor="middle" x="175.5" y="-370.5" font-family="Helvetica,sans-Serif" font-size="10.00" fill="#000000">uart0_sendStr</text>
</a>
</g>
</g>
<!-- Node1&#45;&gt;Node2 -->
<g id="edge1" class="edge">
<title>Node1&#45;&gt;Node2</title>
<path fill="none" stroke="#191970" d="M76.6386,-329.864C92.4246,-337.173 112.205,-346.214 130,-354 137.215,-357.157 145.121,-360.499 152.289,-363.485"/>
<polygon fill="#191970" stroke="#191970" points="77.9231,-326.601 67.3793,-325.563 74.9743,-332.95 77.9231,-326.601"/>
</g>
<!-- Node3 -->
<g id="node3" class="node">
<title>Node3</title>
<g id="a_node3"><a xlink:href="uart_8h.html#ad1c8d77bc982d3337fde1ba17c2592b0" target="_top" xlink:title="uart0_tx_buffer">
<polygon fill="#ffffff" stroke="#000000" points="133.5,-325.5 133.5,-344.5 217.5,-344.5 217.5,-325.5 133.5,-325.5"/>
<text text-anchor="middle" x="175.5" y="-332.5" font-family="Helvetica,sans-Serif" font-size="10.00" fill="#000000">uart0_tx_buffer</text>
</a>
</g>
</g>
<!-- Node1&#45;&gt;Node3 -->
<g id="edge2" class="edge">
<title>Node1&#45;&gt;Node3</title>
<path fill="none" stroke="#191970" d="M104.25,-324.465C114.086,-325.919 124.143,-327.406 133.485,-328.788"/>
<polygon fill="#191970" stroke="#191970" points="104.523,-320.967 94.119,-322.967 103.499,-327.892 104.523,-320.967"/>
</g>
<!-- Node32 -->
<g id="node32" class="node">
<title>Node32</title>
<g id="a_node32"><a xlink:href="uart_8c.html#a6d11dbbb730e8898c2a8922f4217ab5c" target="_top" xlink:title="uart0_write_char">
<polygon fill="#ffffff" stroke="#000000" points="286.5,-15.5 286.5,-34.5 377.5,-34.5 377.5,-15.5 286.5,-15.5"/>
<text text-anchor="middle" x="332" y="-22.5" font-family="Helvetica,sans-Serif" font-size="10.00" fill="#000000">uart0_write_char</text>
</a>
</g>
</g>
<!-- Node1&#45;&gt;Node32 -->
<g id="edge73" class="edge">
<title>Node1&#45;&gt;Node32</title>
<path fill="none" stroke="#191970" d="M104.525,-310.347C148.82,-304.775 205.088,-294.636 221,-278 286.152,-209.886 203.359,-146.505 257,-69 268.254,-52.7388 287.63,-41.5982 303.868,-34.5958"/>
<polygon fill="#191970" stroke="#191970" points="103.925,-306.894 94.4166,-311.567 104.764,-313.844 103.925,-306.894"/>
</g>
<!-- Node34 -->
<g id="node34" class="node">
<title>Node34</title>
<g id="a_node34"><a xlink:href="uart_8c.html#afd93ae304469ee1fbe76e47c90af433f" target="_top" xlink:title="uart1_write_char">
<polygon fill="#ffffff" stroke="#000000" points="130,-249.5 130,-268.5 221,-268.5 221,-249.5 130,-249.5"/>
<text text-anchor="middle" x="175.5" y="-256.5" font-family="Helvetica,sans-Serif" font-size="10.00" fill="#000000">uart1_write_char</text>
</a>
</g>
</g>
<!-- Node1&#45;&gt;Node34 -->
<g id="edge76" class="edge">
<title>Node1&#45;&gt;Node34</title>
<path fill="none" stroke="#191970" d="M77.7005,-302.382C101.21,-291.954 133.049,-277.83 153.922,-268.572"/>
<polygon fill="#191970" stroke="#191970" points="76.2299,-299.205 68.508,-306.459 79.0683,-305.604 76.2299,-299.205"/>
</g>
<!-- Node4 -->
<g id="node4" class="node">
<title>Node4</title>
<g id="a_node4"><a xlink:href="en61107__request_8h.html#a10b80328698f459ae2251fe146cdc375" target="_top" xlink:title="en61107_uart_send_standard\l_data_2">
<polygon fill="#ffffff" stroke="#000000" points="257,-409 257,-439 407,-439 407,-409 257,-409"/>
<text text-anchor="start" x="265" y="-427" font-family="Helvetica,sans-Serif" font-size="10.00" fill="#000000">en61107_uart_send_standard</text>
<text text-anchor="middle" x="332" y="-416" font-family="Helvetica,sans-Serif" font-size="10.00" fill="#000000">_data_2</text>
</a>
</g>
</g>
<!-- Node3&#45;&gt;Node4 -->
<g id="edge3" class="edge">
<title>Node3&#45;&gt;Node4</title>
<path fill="none" stroke="#191970" d="M209.815,-348.602C213.632,-350.329 217.427,-352.144 221,-354 253.348,-370.804 288.621,-393.947 310.526,-408.941"/>
<polygon fill="#191970" stroke="#191970" points="210.97,-345.287 200.403,-344.518 208.184,-351.709 210.97,-345.287"/>
</g>
<!-- Node6 -->
<g id="node6" class="node">
<title>Node6</title>
<g id="a_node6"><a xlink:href="en61107__request_8h.html#a27482c6033d348193c8aa7964782999e" target="_top" xlink:title="en61107_uart_send_unknown_1">
<polygon fill="#ffffff" stroke="#000000" points="762,-440.5 762,-459.5 924,-459.5 924,-440.5 762,-440.5"/>
<text text-anchor="middle" x="843" y="-447.5" font-family="Helvetica,sans-Serif" font-size="10.00" fill="#000000">en61107_uart_send_unknown_1</text>
</a>
</g>
</g>
<!-- Node3&#45;&gt;Node6 -->
<g id="edge54" class="edge">
<title>Node3&#45;&gt;Node6</title>
<path fill="none" stroke="#191970" d="M216.505,-350.017C218.104,-351.246 219.614,-352.572 221,-354 252.158,-386.102 221.144,-421.247 257,-448 424.321,-572.845 518.303,-495.083 726,-474 753.128,-471.246 783.257,-464.989 806.147,-459.554"/>
<polygon fill="#191970" stroke="#191970" points="218.25,-346.98 207.918,-344.635 214.533,-352.911 218.25,-346.98"/>
</g>
<!-- Node10 -->
<g id="node10" class="node">
<title>Node10</title>
<g id="a_node10"><a xlink:href="en61107__request_8h.html#ab6a6fa988df58ebc5a3f62ad46b74fc5" target="_top" xlink:title="en61107_uart_send_unknown_2">
<polygon fill="#ffffff" stroke="#000000" points="762,-402.5 762,-421.5 924,-421.5 924,-402.5 762,-402.5"/>
<text text-anchor="middle" x="843" y="-409.5" font-family="Helvetica,sans-Serif" font-size="10.00" fill="#000000">en61107_uart_send_unknown_2</text>
</a>
</g>
</g>
<!-- Node3&#45;&gt;Node10 -->
<g id="edge55" class="edge">
<title>Node3&#45;&gt;Node10</title>
<path fill="none" stroke="#191970" d="M228.133,-339.608C301.941,-346.212 440.353,-359.111 558,-373 633.882,-381.958 720.861,-394.139 778.568,-402.491"/>
<polygon fill="#191970" stroke="#191970" points="227.994,-336.082 217.722,-338.68 227.372,-343.055 227.994,-336.082"/>
</g>
<!-- Node11 -->
<g id="node11" class="node">
<title>Node11</title>
<g id="a_node11"><a xlink:href="en61107__request_8h.html#ab438159131b07c35aace7c19e5b24f22" target="_top" xlink:title="en61107_uart_send_serial\l_byte_1">
<polygon fill="#ffffff" stroke="#000000" points="775.5,-353 775.5,-383 910.5,-383 910.5,-353 775.5,-353"/>
<text text-anchor="start" x="783.5" y="-371" font-family="Helvetica,sans-Serif" font-size="10.00" fill="#000000">en61107_uart_send_serial</text>
<text text-anchor="middle" x="843" y="-360" font-family="Helvetica,sans-Serif" font-size="10.00" fill="#000000">_byte_1</text>
</a>
</g>
</g>
<!-- Node3&#45;&gt;Node11 -->
<g id="edge56" class="edge">
<title>Node3&#45;&gt;Node11</title>
<path fill="none" stroke="#191970" d="M228.098,-331.553C326.361,-325.981 544.31,-317.725 726,-340 747.664,-342.656 771.137,-347.809 791.332,-352.978"/>
<polygon fill="#191970" stroke="#191970" points="227.621,-328.074 217.841,-332.149 228.027,-335.062 227.621,-328.074"/>
</g>
<!-- Node12 -->
<g id="node12" class="node">
<title>Node12</title>
<g id="a_node12"><a xlink:href="en61107__request_8h.html#ae8a295e8d067b9108682852b0616c69c" target="_top" xlink:title="en61107_uart_send_serial\l_byte_2">
<polygon fill="#ffffff" stroke="#000000" points="775.5,-304 775.5,-334 910.5,-334 910.5,-304 775.5,-304"/>
<text text-anchor="start" x="783.5" y="-322" font-family="Helvetica,sans-Serif" font-size="10.00" fill="#000000">en61107_uart_send_serial</text>
<text text-anchor="middle" x="843" y="-311" font-family="Helvetica,sans-Serif" font-size="10.00" fill="#000000">_byte_2</text>
</a>
</g>
</g>
<!-- Node3&#45;&gt;Node12 -->
<g id="edge57" class="edge">
<title>Node3&#45;&gt;Node12</title>
<path fill="none" stroke="#191970" d="M202.341,-321.079C217.859,-313.819 238.015,-305.698 257,-302 461.6,-262.149 518.098,-286.975 726,-302 742.071,-303.161 759.287,-305.209 775.435,-307.49"/>
<polygon fill="#191970" stroke="#191970" points="200.806,-317.933 193.33,-325.441 203.856,-324.234 200.806,-317.933"/>
</g>
<!-- Node13 -->
<g id="node13" class="node">
<title>Node13</title>
<g id="a_node13"><a xlink:href="en61107__request_8h.html#ab4c6ba6f896270287149b97c38dc8824" target="_top" xlink:title="en61107_uart_send_serial\l_byte_3">
<polygon fill="#ffffff" stroke="#000000" points="775.5,-255 775.5,-285 910.5,-285 910.5,-255 775.5,-255"/>
<text text-anchor="start" x="783.5" y="-273" font-family="Helvetica,sans-Serif" font-size="10.00" fill="#000000">en61107_uart_send_serial</text>
<text text-anchor="middle" x="843" y="-262" font-family="Helvetica,sans-Serif" font-size="10.00" fill="#000000">_byte_3</text>
</a>
</g>
</g>
<!-- Node3&#45;&gt;Node13 -->
<g id="edge58" class="edge">
<title>Node3&#45;&gt;Node13</title>
<path fill="none" stroke="#191970" d="M200.93,-320.134C207.57,-316.041 214.645,-311.488 221,-307 237.782,-295.148 237.671,-284.966 257,-278 435.039,-213.84 663.71,-238.689 775.453,-257.076"/>
<polygon fill="#191970" stroke="#191970" points="198.997,-317.212 192.251,-325.382 202.619,-323.202 198.997,-317.212"/>
</g>
<!-- Node14 -->
<g id="node14" class="node">
<title>Node14</title>
<g id="a_node14"><a xlink:href="en61107__request_8h.html#a68e33113f4b610faec2809160402b9ef" target="_top" xlink:title="en61107_uart_send_serial\l_byte_4">
<polygon fill="#ffffff" stroke="#000000" points="775.5,-206 775.5,-236 910.5,-236 910.5,-206 775.5,-206"/>
<text text-anchor="start" x="783.5" y="-224" font-family="Helvetica,sans-Serif" font-size="10.00" fill="#000000">en61107_uart_send_serial</text>
<text text-anchor="middle" x="843" y="-213" font-family="Helvetica,sans-Serif" font-size="10.00" fill="#000000">_byte_4</text>
</a>
</g>
</g>
<!-- Node3&#45;&gt;Node14 -->
<g id="edge59" class="edge">
<title>Node3&#45;&gt;Node14</title>
<path fill="none" stroke="#191970" d="M205.058,-319.935C210.763,-316.201 216.391,-311.857 221,-307 244.001,-282.763 228.641,-258.67 257,-241 341.669,-188.245 640.191,-204.547 775.472,-215.087"/>
<polygon fill="#191970" stroke="#191970" points="202.927,-317.132 196.164,-325.288 206.537,-323.13 202.927,-317.132"/>
</g>
<!-- Node15 -->
<g id="node15" class="node">
<title>Node15</title>
<g id="a_node15"><a xlink:href="en61107__request_8h.html#a192bf33e0cc6e7bcefbcf7485309b700" target="_top" xlink:title="en61107_uart_send_serial\l_byte_5">
<polygon fill="#ffffff" stroke="#000000" points="775.5,-642 775.5,-672 910.5,-672 910.5,-642 775.5,-642"/>
<text text-anchor="start" x="783.5" y="-660" font-family="Helvetica,sans-Serif" font-size="10.00" fill="#000000">en61107_uart_send_serial</text>
<text text-anchor="middle" x="843" y="-649" font-family="Helvetica,sans-Serif" font-size="10.00" fill="#000000">_byte_5</text>
</a>
</g>
</g>
<!-- Node3&#45;&gt;Node15 -->
<g id="edge60" class="edge">
<title>Node3&#45;&gt;Node15</title>
<path fill="none" stroke="#191970" d="M218.342,-350.962C219.291,-351.917 220.181,-352.929 221,-354 296.107,-452.295 169.005,-543.052 257,-630 404.968,-776.207 689.851,-706.298 798.982,-672.06"/>
<polygon fill="#191970" stroke="#191970" points="220.172,-347.957 210.091,-344.696 215.937,-353.532 220.172,-347.957"/>
</g>
<!-- Node16 -->
<g id="node16" class="node">
<title>Node16</title>
<g id="a_node16"><a xlink:href="en61107__request_8h.html#ae3cd1269237f81b40e4f788e4e6df89a" target="_top" xlink:title="en61107_uart_send_serial\l_byte_6">
<polygon fill="#ffffff" stroke="#000000" points="775.5,-593 775.5,-623 910.5,-623 910.5,-593 775.5,-593"/>
<text text-anchor="start" x="783.5" y="-611" font-family="Helvetica,sans-Serif" font-size="10.00" fill="#000000">en61107_uart_send_serial</text>
<text text-anchor="middle" x="843" y="-600" font-family="Helvetica,sans-Serif" font-size="10.00" fill="#000000">_byte_6</text>
</a>
</g>
</g>
<!-- Node3&#45;&gt;Node16 -->
<g id="edge61" class="edge">
<title>Node3&#45;&gt;Node16</title>
<path fill="none" stroke="#191970" d="M218.315,-350.983C219.273,-351.932 220.171,-352.936 221,-354 287.55,-439.439 178.662,-520.221 257,-595 329.459,-664.166 637.046,-634.638 775.26,-617.308"/>
<polygon fill="#191970" stroke="#191970" points="220.122,-347.962 210.027,-344.745 215.913,-353.555 220.122,-347.962"/>
</g>
<!-- Node17 -->
<g id="node17" class="node">
<title>Node17</title>
<g id="a_node17"><a xlink:href="en61107__request_8h.html#abd56d73dc3063d0463f124c87a5d4802" target="_top" xlink:title="en61107_uart_send_unknown_3">
<polygon fill="#ffffff" stroke="#000000" points="762,-554.5 762,-573.5 924,-573.5 924,-554.5 762,-554.5"/>
<text text-anchor="middle" x="843" y="-561.5" font-family="Helvetica,sans-Serif" font-size="10.00" fill="#000000">en61107_uart_send_unknown_3</text>
</a>
</g>
</g>
<!-- Node3&#45;&gt;Node17 -->
<g id="edge62" class="edge">
<title>Node3&#45;&gt;Node17</title>
<path fill="none" stroke="#191970" d="M217.841,-350.587C218.973,-351.651 220.032,-352.787 221,-354 279.259,-426.978 188.518,-497.516 257,-561 331.657,-630.208 647.703,-593.044 782.108,-573.524"/>
<polygon fill="#191970" stroke="#191970" points="219.647,-347.574 209.493,-344.553 215.547,-353.247 219.647,-347.574"/>
</g>
<!-- Node18 -->
<g id="node18" class="node">
<title>Node18</title>
<g id="a_node18"><a xlink:href="en61107__request_8h.html#ae961d250da79b65178151b9dc7f31b61" target="_top" xlink:title="en61107_uart_send_unknown_4">
<polygon fill="#ffffff" stroke="#000000" points="762,-516.5 762,-535.5 924,-535.5 924,-516.5 762,-516.5"/>
<text text-anchor="middle" x="843" y="-523.5" font-family="Helvetica,sans-Serif" font-size="10.00" fill="#000000">en61107_uart_send_unknown_4</text>
</a>
</g>
</g>
<!-- Node3&#45;&gt;Node18 -->
<g id="edge63" class="edge">
<title>Node3&#45;&gt;Node18</title>
<path fill="none" stroke="#191970" d="M217.791,-350.627C218.937,-351.68 220.013,-352.803 221,-354 271.245,-414.925 198.098,-475.398 257,-528 333.451,-596.275 652.603,-555.831 785.026,-535.516"/>
<polygon fill="#191970" stroke="#191970" points="219.559,-347.59 209.383,-344.642 215.5,-353.292 219.559,-347.59"/>
</g>
<!-- Node19 -->
<g id="node19" class="node">
<title>Node19</title>
<g id="a_node19"><a xlink:href="en61107__request_8h.html#a8b6b61143d95d3af3813f8be1aaf3447" target="_top" xlink:title="en61107_uart_send_en61107">
<polygon fill="#ffffff" stroke="#000000" points="768,-478.5 768,-497.5 918,-497.5 918,-478.5 768,-478.5"/>
<text text-anchor="middle" x="843" y="-485.5" font-family="Helvetica,sans-Serif" font-size="10.00" fill="#000000">en61107_uart_send_en61107</text>
</a>
</g>
</g>
<!-- Node3&#45;&gt;Node19 -->
<g id="edge64" class="edge">
<title>Node3&#45;&gt;Node19</title>
<path fill="none" stroke="#191970" d="M217.237,-350.259C218.584,-351.418 219.847,-352.663 221,-354 263.526,-403.301 208.514,-452.548 257,-496 334.192,-565.177 659.714,-519.171 789.378,-497.509"/>
<polygon fill="#191970" stroke="#191970" points="219.014,-347.236 208.774,-344.519 215.085,-353.029 219.014,-347.236"/>
</g>
<!-- Node20 -->
<g id="node20" class="node">
<title>Node20</title>
<g id="a_node20"><a xlink:href="en61107__request_8h.html#a74c2d949e6bb3b65cdf794a0643dd67d" target="_top" xlink:title="en61107_uart_send_inst\l_values">
<polygon fill="#ffffff" stroke="#000000" points="779.5,-157 779.5,-187 906.5,-187 906.5,-157 779.5,-157"/>
<text text-anchor="start" x="787.5" y="-175" font-family="Helvetica,sans-Serif" font-size="10.00" fill="#000000">en61107_uart_send_inst</text>
<text text-anchor="middle" x="843" y="-164" font-family="Helvetica,sans-Serif" font-size="10.00" fill="#000000">_values</text>
</a>
</g>
</g>
<!-- Node3&#45;&gt;Node20 -->
<g id="edge65" class="edge">
<title>Node3&#45;&gt;Node20</title>
<path fill="none" stroke="#191970" d="M206.298,-320.066C211.737,-316.379 216.947,-312.02 221,-307 251.199,-269.595 218.552,-233.859 257,-205 337.782,-144.366 644.881,-157.853 779.324,-167.024"/>
<polygon fill="#191970" stroke="#191970" points="204.416,-317.114 197.696,-325.305 208.058,-323.093 204.416,-317.114"/>
</g>
<!-- Node28 -->
<g id="node28" class="node">
<title>Node28</title>
<g id="a_node28"><a xlink:href="kmp__request_8c.html#a7e59cff48c3c08aed48914a3a843d4b8" target="_top" xlink:title="kmp_get_serial_timer_func">
<polygon fill="#ffffff" stroke="#000000" points="263.5,-116.5 263.5,-135.5 400.5,-135.5 400.5,-116.5 263.5,-116.5"/>
<text text-anchor="middle" x="332" y="-123.5" font-family="Helvetica,sans-Serif" font-size="10.00" fill="#000000">kmp_get_serial_timer_func</text>
</a>
</g>
</g>
<!-- Node3&#45;&gt;Node28 -->
<g id="edge66" class="edge">
<title>Node3&#45;&gt;Node28</title>
<path fill="none" stroke="#191970" d="M211.562,-320.02C215.119,-317.424 218.376,-314.432 221,-311 265.531,-252.749 207.53,-204.12 257,-150 262.811,-143.643 270.304,-138.961 278.299,-135.515"/>
<polygon fill="#191970" stroke="#191970" points="209.549,-317.15 202.874,-325.378 213.223,-323.108 209.549,-317.15"/>
</g>
<!-- Node31 -->
<g id="node31" class="node">
<title>Node31</title>
<g id="a_node31"><a xlink:href="kmp__request_8c.html#aeadc3768548ef2bed49c3f2fcaf57c20" target="_top" xlink:title="kmp_get_register_timer_func">
<polygon fill="#ffffff" stroke="#000000" points="259,-78.5 259,-97.5 405,-97.5 405,-78.5 259,-78.5"/>
<text text-anchor="middle" x="332" y="-85.5" font-family="Helvetica,sans-Serif" font-size="10.00" fill="#000000">kmp_get_register_timer_func</text>
</a>
</g>
</g>
<!-- Node3&#45;&gt;Node31 -->
<g id="edge71" class="edge">
<title>Node3&#45;&gt;Node31</title>
<path fill="none" stroke="#191970" d="M212.248,-319.737C215.568,-317.213 218.583,-314.315 221,-311 275.244,-236.609 194.332,-174.448 257,-107 260.566,-103.162 264.786,-100.053 269.378,-97.5391"/>
<polygon fill="#191970" stroke="#191970" points="210.102,-316.953 203.533,-325.265 213.852,-322.864 210.102,-316.953"/>
</g>
<!-- Node5 -->
<g id="node5" class="node">
<title>Node5</title>
<g id="a_node5"><a xlink:href="en61107__request_8h.html#a22f1fee248eec0eeacf220c69b878a28" target="_top" xlink:title="en61107_receive_timeout\l_timer_func">
<polygon fill="#ffffff" stroke="#000000" points="594,-435 594,-465 726,-465 726,-435 594,-435"/>
<text text-anchor="start" x="602" y="-453" font-family="Helvetica,sans-Serif" font-size="10.00" fill="#000000">en61107_receive_timeout</text>
<text text-anchor="middle" x="660" y="-442" font-family="Helvetica,sans-Serif" font-size="10.00" fill="#000000">_timer_func</text>
</a>
</g>
</g>
<!-- Node4&#45;&gt;Node5 -->
<g id="edge4" class="edge">
<title>Node4&#45;&gt;Node5</title>
<path fill="none" stroke="#191970" d="M417.355,-424.759C472.485,-428.001 543.151,-433.759 593.985,-439.229"/>
<polygon fill="#191970" stroke="#191970" points="417.433,-421.258 407.25,-424.184 417.035,-428.247 417.433,-421.258"/>
</g>
<!-- Node21 -->
<g id="node21" class="node">
<title>Node21</title>
<g id="a_node21"><a xlink:href="en61107__request_8h.html#a2fa4e9967afddae0c1dedbc914dcee36" target="_top" xlink:title="en61107_meter_wake\l_up_timer_func">
<polygon fill="#ffffff" stroke="#000000" points="443,-383 443,-413 558,-413 558,-383 443,-383"/>
<text text-anchor="start" x="451" y="-401" font-family="Helvetica,sans-Serif" font-size="10.00" fill="#000000">en61107_meter_wake</text>
<text text-anchor="middle" x="500.5" y="-390" font-family="Helvetica,sans-Serif" font-size="10.00" fill="#000000">_up_timer_func</text>
</a>
</g>
</g>
<!-- Node4&#45;&gt;Node21 -->
<g id="edge44" class="edge">
<title>Node4&#45;&gt;Node21</title>
<path fill="none" stroke="#191970" d="M417.469,-410.812C426.076,-409.484 434.666,-408.158 442.88,-406.891"/>
<polygon fill="#191970" stroke="#191970" points="416.728,-407.385 407.379,-412.369 417.796,-414.303 416.728,-407.385"/>
</g>
<!-- Node5&#45;&gt;Node4 -->
<g id="edge5" class="edge">
<title>Node5&#45;&gt;Node4</title>
<path fill="none" stroke="#191970" d="M583.94,-449.771C530.812,-446.832 460.199,-441.229 407.25,-435.746"/>
<polygon fill="#191970" stroke="#191970" points="583.813,-453.269 593.985,-450.306 584.185,-446.279 583.813,-453.269"/>
</g>
<!-- Node5&#45;&gt;Node6 -->
<g id="edge6" class="edge">
<title>Node5&#45;&gt;Node6</title>
<path fill="none" stroke="#191970" d="M736.227,-443.334C744.645,-443.241 753.241,-443.225 761.718,-443.288"/>
<polygon fill="#191970" stroke="#191970" points="736.013,-439.837 726.067,-443.487 736.119,-446.836 736.013,-439.837"/>
</g>
<!-- Node5&#45;&gt;Node10 -->
<g id="edge11" class="edge">
<title>Node5&#45;&gt;Node10</title>
<path fill="none" stroke="#191970" d="M714.414,-432.47C730.234,-428.717 747.835,-424.911 764.811,-421.55"/>
<polygon fill="#191970" stroke="#191970" points="713.193,-429.165 704.299,-434.923 714.842,-435.968 713.193,-429.165"/>
</g>
<!-- Node5&#45;&gt;Node11 -->
<g id="edge14" class="edge">
<title>Node5&#45;&gt;Node11</title>
<path fill="none" stroke="#191970" d="M682.268,-428.685C702.48,-414.262 733.409,-396.239 762,-384 766.329,-382.147 770.842,-380.366 775.425,-378.686"/>
<polygon fill="#191970" stroke="#191970" points="679.965,-426.036 674.041,-434.821 684.15,-431.648 679.965,-426.036"/>
</g>
<!-- Node5&#45;&gt;Node12 -->
<g id="edge17" class="edge">
<title>Node5&#45;&gt;Node12</title>
<path fill="none" stroke="#191970" d="M672.301,-426.111C689.617,-399.404 723.412,-357.589 762,-334 766.13,-331.476 770.54,-329.203 775.092,-327.179"/>
<polygon fill="#191970" stroke="#191970" points="669.165,-424.527 666.882,-434.873 675.119,-428.209 669.165,-424.527"/>
</g>
<!-- Node5&#45;&gt;Node13 -->
<g id="edge20" class="edge">
<title>Node5&#45;&gt;Node13</title>
<path fill="none" stroke="#191970" d="M667.373,-425.254C680.965,-388.641 713.124,-321.382 762,-285 766.118,-281.935 770.624,-279.259 775.335,-276.947"/>
<polygon fill="#191970" stroke="#191970" points="664.061,-424.122 664.034,-434.716 670.662,-426.451 664.061,-424.122"/>
</g>
<!-- Node5&#45;&gt;Node14 -->
<g id="edge23" class="edge">
<title>Node5&#45;&gt;Node14</title>
<path fill="none" stroke="#191970" d="M664.31,-424.976C674.166,-379.91 702.255,-286.177 762,-236 766.043,-232.604 770.551,-229.689 775.313,-227.211"/>
<polygon fill="#191970" stroke="#191970" points="660.87,-424.329 662.285,-434.829 667.727,-425.738 660.87,-424.329"/>
</g>
<!-- Node5&#45;&gt;Node15 -->
<g id="edge26" class="edge">
<title>Node5&#45;&gt;Node15</title>
<path fill="none" stroke="#191970" d="M669.248,-474.718C682.968,-512.337 712.558,-583.045 762,-623 773.103,-631.973 787.421,-637.735 800.924,-641.921"/>
<polygon fill="#191970" stroke="#191970" points="672.451,-473.282 665.796,-465.039 665.858,-475.633 672.451,-473.282"/>
</g>
<!-- Node5&#45;&gt;Node16 -->
<g id="edge29" class="edge">
<title>Node5&#45;&gt;Node16</title>
<path fill="none" stroke="#191970" d="M676.177,-474.101C693.524,-502.146 723.803,-547.419 762,-574 774.563,-582.743 790.287,-588.508 804.53,-592.875"/>
<polygon fill="#191970" stroke="#191970" points="678.999,-472.008 670.797,-465.303 673.027,-475.66 678.999,-472.008"/>
</g>
<!-- Node5&#45;&gt;Node17 -->
<g id="edge32" class="edge">
<title>Node5&#45;&gt;Node17</title>
<path fill="none" stroke="#191970" d="M684.577,-472.595C703.563,-492.312 731.654,-519.808 762,-536 780.351,-545.791 803.686,-550.579 820.592,-554.496"/>
<polygon fill="#191970" stroke="#191970" points="686.951,-470.014 677.513,-465.199 681.889,-474.848 686.951,-470.014"/>
</g>
<!-- Node5&#45;&gt;Node18 -->
<g id="edge35" class="edge">
<title>Node5&#45;&gt;Node18</title>
<path fill="none" stroke="#191970" d="M704.428,-469.987C721.852,-479.556 742.351,-490.379 762,-498 783.143,-506.2 808.818,-511.489 825.514,-516.428"/>
<polygon fill="#191970" stroke="#191970" points="706.063,-466.892 695.618,-465.12 702.679,-473.019 706.063,-466.892"/>
</g>
<!-- Node5&#45;&gt;Node19 -->
<g id="edge38" class="edge">
<title>Node5&#45;&gt;Node19</title>
<path fill="none" stroke="#191970" d="M736.112,-459.14C766.043,-465.02 798.237,-472.357 819.381,-478.388"/>
<polygon fill="#191970" stroke="#191970" points="736.549,-455.66 726.067,-457.206 735.225,-462.534 736.549,-455.66"/>
</g>
<!-- Node5&#45;&gt;Node20 -->
<g id="edge41" class="edge">
<title>Node5&#45;&gt;Node20</title>
<path fill="none" stroke="#191970" d="M662.258,-424.641C668.623,-371.995 691.138,-251.508 762,-187 767.098,-182.36 773.054,-178.614 779.381,-175.647"/>
<polygon fill="#191970" stroke="#191970" points="658.755,-424.477 661.133,-434.801 665.712,-425.247 658.755,-424.477"/>
</g>
<!-- Node6&#45;&gt;Node5 -->
<g id="edge7" class="edge">
<title>Node6&#45;&gt;Node5</title>
<path fill="none" stroke="#191970" d="M751.62,-456.75C743.002,-456.751 734.382,-456.672 726.067,-456.513"/>
<polygon fill="#191970" stroke="#191970" points="751.731,-460.25 761.718,-456.712 751.705,-453.25 751.731,-460.25"/>
</g>
<!-- Node7 -->
<g id="node7" class="node">
<title>Node7</title>
<g id="a_node7"><a xlink:href="en61107__request_8c.html#aa3b162cf5364986ea19e831ac2b18f76" target="_top" xlink:title="en61107_received_task">
<polygon fill="#ffffff" stroke="#000000" points="960,-402.5 960,-421.5 1083,-421.5 1083,-402.5 960,-402.5"/>
<text text-anchor="middle" x="1021.5" y="-409.5" font-family="Helvetica,sans-Serif" font-size="10.00" fill="#000000">en61107_received_task</text>
</a>
</g>
</g>
<!-- Node6&#45;&gt;Node7 -->
<g id="edge8" class="edge">
<title>Node6&#45;&gt;Node7</title>
<path fill="none" stroke="#191970" d="M897.87,-438.319C923.184,-432.93 952.853,-426.614 976.781,-421.52"/>
<polygon fill="#191970" stroke="#191970" points="897.095,-434.905 888.043,-440.411 898.553,-441.752 897.095,-434.905"/>
</g>
<!-- Node8 -->
<g id="node8" class="node">
<title>Node8</title>
<g id="a_node8"><a xlink:href="en61107__request_8h.html#acd43242675a3f25e7c3b530eac9d8b3a" target="_top" xlink:title="en61107_request_init">
<polygon fill="#ffffff" stroke="#000000" points="1287,-220.5 1287,-239.5 1400,-239.5 1400,-220.5 1287,-220.5"/>
<text text-anchor="middle" x="1343.5" y="-227.5" font-family="Helvetica,sans-Serif" font-size="10.00" fill="#000000">en61107_request_init</text>
</a>
</g>
</g>
<!-- Node7&#45;&gt;Node8 -->
<g id="edge9" class="edge">
<title>Node7&#45;&gt;Node8</title>
<path fill="none" stroke="#191970" d="M1047.33,-397.401C1110.84,-361.503 1273.31,-269.672 1326.42,-239.654"/>
<polygon fill="#191970" stroke="#191970" points="1045.34,-394.504 1038.36,-402.471 1048.79,-400.597 1045.34,-394.504"/>
</g>
<!-- Node9 -->
<g id="node9" class="node">
<title>Node9</title>
<g id="a_node9"><a xlink:href="user__main_8h.html#a33113d6dedb440bd7dfa5576e325140c" target="_top" xlink:title="user_init">
<polygon fill="#ffffff" stroke="#000000" points="1436,-98.5 1436,-117.5 1490,-117.5 1490,-98.5 1436,-98.5"/>
<text text-anchor="middle" x="1463" y="-105.5" font-family="Helvetica,sans-Serif" font-size="10.00" fill="#000000">user_init</text>
</a>
</g>
</g>
<!-- Node8&#45;&gt;Node9 -->
<g id="edge10" class="edge">
<title>Node8&#45;&gt;Node9</title>
<path fill="none" stroke="#191970" d="M1360,-213.159C1385.45,-187.175 1433.46,-138.156 1453.67,-117.529"/>
<polygon fill="#191970" stroke="#191970" points="1357.37,-210.834 1352.88,-220.427 1362.37,-215.732 1357.37,-210.834"/>
</g>
<!-- Node10&#45;&gt;Node5 -->
<g id="edge12" class="edge">
<title>Node10&#45;&gt;Node5</title>
<path fill="none" stroke="#191970" d="M809.636,-424.281C786.328,-430.436 754.427,-437.447 726.067,-442.794"/>
<polygon fill="#191970" stroke="#191970" points="810.66,-427.629 819.381,-421.612 808.811,-420.878 810.66,-427.629"/>
</g>
<!-- Node10&#45;&gt;Node7 -->
<g id="edge13" class="edge">
<title>Node10&#45;&gt;Node7</title>
<path fill="none" stroke="#191970" d="M934.283,-412C942.918,-412 951.528,-412 959.788,-412"/>
<polygon fill="#191970" stroke="#191970" points="934.154,-408.5 924.154,-412 934.154,-415.5 934.154,-408.5"/>
</g>
<!-- Node11&#45;&gt;Node5 -->
<g id="edge15" class="edge">
<title>Node11&#45;&gt;Node5</title>
<path fill="none" stroke="#191970" d="M805.063,-386.357C791.275,-390.985 775.718,-396.128 762,-402 739.808,-411.5 716.207,-424.485 697.303,-434.757"/>
<polygon fill="#191970" stroke="#191970" points="806.394,-389.602 814.739,-383.074 804.145,-382.973 806.394,-389.602"/>
</g>
<!-- Node11&#45;&gt;Node7 -->
<g id="edge16" class="edge">
<title>Node11&#45;&gt;Node7</title>
<path fill="none" stroke="#191970" d="M913.889,-385.474C937.428,-391.276 962.747,-397.518 982.91,-402.488"/>
<polygon fill="#191970" stroke="#191970" points="914.477,-382.014 903.93,-383.019 912.802,-388.811 914.477,-382.014"/>
</g>
<!-- Node12&#45;&gt;Node5 -->
<g id="edge18" class="edge">
<title>Node12&#45;&gt;Node5</title>
<path fill="none" stroke="#191970" d="M796.173,-337.088C784.498,-340.917 772.363,-345.665 762,-352 725.432,-374.354 693.167,-413.077 675.153,-434.802"/>
<polygon fill="#191970" stroke="#191970" points="797.322,-340.396 805.824,-334.073 795.235,-333.714 797.322,-340.396"/>
</g>
<!-- Node12&#45;&gt;Node7 -->
<g id="edge19" class="edge">
<title>Node12&#45;&gt;Node7</title>
<path fill="none" stroke="#191970" d="M911.643,-337.585C915.882,-339.27 920.034,-341.074 924,-343 958.138,-359.573 993.292,-387.711 1010.56,-402.411"/>
<polygon fill="#191970" stroke="#191970" points="912.854,-334.301 902.261,-334.086 910.408,-340.86 912.854,-334.301"/>
</g>
<!-- Node13&#45;&gt;Node5 -->
<g id="edge21" class="edge">
<title>Node13&#45;&gt;Node5</title>
<path fill="none" stroke="#191970" d="M791.063,-288.287C780.795,-291.941 770.559,-296.629 762,-303 713.72,-338.938 681.752,-405.005 667.879,-434.996"/>
<polygon fill="#191970" stroke="#191970" points="792.449,-291.516 800.865,-285.079 790.272,-284.863 792.449,-291.516"/>
</g>
<!-- Node13&#45;&gt;Node7 -->
<g id="edge22" class="edge">
<title>Node13&#45;&gt;Node7</title>
<path fill="none" stroke="#191970" d="M916.479,-289.525C919.074,-290.918 921.591,-292.408 924,-294 968.779,-323.604 1003.6,-379.958 1016.29,-402.416"/>
<polygon fill="#191970" stroke="#191970" points="917.93,-286.339 907.402,-285.152 914.892,-292.646 917.93,-286.339"/>
</g>
<!-- Node14&#45;&gt;Node5 -->
<g id="edge24" class="edge">
<title>Node14&#45;&gt;Node5</title>
<path fill="none" stroke="#191970" d="M788.255,-239.353C778.796,-242.955 769.581,-247.633 762,-254 702.184,-304.237 674.099,-398.134 664.275,-434.997"/>
<polygon fill="#191970" stroke="#191970" points="789.428,-242.651 797.745,-236.087 787.15,-236.032 789.428,-242.651"/>
</g>
<!-- Node14&#45;&gt;Node7 -->
<g id="edge25" class="edge">
<title>Node14&#45;&gt;Node7</title>
<path fill="none" stroke="#191970" d="M918.433,-241.047C920.357,-242.286 922.219,-243.603 924,-245 979.735,-288.723 1009.83,-373.82 1018.69,-402.387"/>
<polygon fill="#191970" stroke="#191970" points="920.066,-237.949 909.636,-236.087 916.628,-244.047 920.066,-237.949"/>
</g>
<!-- Node15&#45;&gt;Node5 -->
<g id="edge27" class="edge">
<title>Node15&#45;&gt;Node5</title>
<path fill="none" stroke="#191970" d="M766.812,-644.562C765.153,-643.435 763.545,-642.249 762,-641 702.98,-593.305 672.248,-501.786 663.032,-465.179"/>
<polygon fill="#191970" stroke="#191970" points="765.097,-647.614 775.485,-649.697 768.663,-641.59 765.097,-647.614"/>
</g>
<!-- Node15&#45;&gt;Node7 -->
<g id="edge28" class="edge">
<title>Node15&#45;&gt;Node7</title>
<path fill="none" stroke="#191970" d="M917.903,-636.789C920.034,-635.304 922.075,-633.711 924,-632 991.766,-571.781 1014.7,-455.577 1020.12,-421.569"/>
<polygon fill="#191970" stroke="#191970" points="916.038,-633.827 909.287,-641.992 919.657,-639.819 916.038,-633.827"/>
</g>
<!-- Node16&#45;&gt;Node5 -->
<g id="edge30" class="edge">
<title>Node16&#45;&gt;Node5</title>
<path fill="none" stroke="#191970" d="M766.349,-594.835C764.864,-593.927 763.412,-592.982 762,-592 713.753,-558.425 678.138,-495.027 665.26,-465.354"/>
<polygon fill="#191970" stroke="#191970" points="764.716,-597.931 775.173,-599.633 768.059,-591.781 764.716,-597.931"/>
</g>
<!-- Node16&#45;&gt;Node7 -->
<g id="edge31" class="edge">
<title>Node16&#45;&gt;Node7</title>
<path fill="none" stroke="#191970" d="M916.859,-588.055C919.348,-586.495 921.74,-584.813 924,-583 980.251,-537.885 1010.01,-450.973 1018.74,-421.812"/>
<polygon fill="#191970" stroke="#191970" points="915.132,-585.01 908.066,-592.905 918.513,-591.14 915.132,-585.01"/>
</g>
<!-- Node17&#45;&gt;Node5 -->
<g id="edge33" class="edge">
<title>Node17&#45;&gt;Node5</title>
<path fill="none" stroke="#191970" d="M753.948,-549.366C715.453,-525.927 682.264,-487.084 667.762,-465.212"/>
<polygon fill="#191970" stroke="#191970" points="752.349,-552.483 762.767,-554.405 755.821,-546.405 752.349,-552.483"/>
</g>
<!-- Node17&#45;&gt;Node7 -->
<g id="edge34" class="edge">
<title>Node17&#45;&gt;Node7</title>
<path fill="none" stroke="#191970" d="M914.065,-550.571C917.528,-548.923 920.864,-547.074 924,-545 973.193,-512.466 1006.35,-446.171 1017.42,-421.516"/>
<polygon fill="#191970" stroke="#191970" points="912.546,-547.412 904.654,-554.48 915.232,-553.876 912.546,-547.412"/>
</g>
<!-- Node18&#45;&gt;Node5 -->
<g id="edge36" class="edge">
<title>Node18&#45;&gt;Node5</title>
<path fill="none" stroke="#191970" d="M753.849,-512.639C722.202,-499.068 690.872,-479.347 673.582,-465.25"/>
<polygon fill="#191970" stroke="#191970" points="752.636,-515.924 763.217,-516.467 755.284,-509.444 752.636,-515.924"/>
</g>
<!-- Node18&#45;&gt;Node7 -->
<g id="edge37" class="edge">
<title>Node18&#45;&gt;Node7</title>
<path fill="none" stroke="#191970" d="M910.69,-513.122C915.305,-511.338 919.788,-509.308 924,-507 964.62,-484.735 1000.19,-440.876 1014.64,-421.54"/>
<polygon fill="#191970" stroke="#191970" points="909.385,-509.87 901.08,-516.449 911.675,-516.484 909.385,-509.87"/>
</g>
<!-- Node19&#45;&gt;Node5 -->
<g id="edge39" class="edge">
<title>Node19&#45;&gt;Node5</title>
<path fill="none" stroke="#191970" d="M757.771,-477.038C739.277,-473.281 720.439,-469.084 704.299,-465.077"/>
<polygon fill="#191970" stroke="#191970" points="757.201,-480.493 767.692,-479.017 758.57,-473.628 757.201,-480.493"/>
</g>
<!-- Node19&#45;&gt;Node7 -->
<g id="edge40" class="edge">
<title>Node19&#45;&gt;Node7</title>
<path fill="none" stroke="#191970" d="M904.191,-475.722C910.966,-473.752 917.691,-471.518 924,-469 955.869,-456.282 989.729,-434.316 1007.97,-421.688"/>
<polygon fill="#191970" stroke="#191970" points="903.002,-472.418 894.271,-478.42 904.84,-479.172 903.002,-472.418"/>
</g>
<!-- Node20&#45;&gt;Node5 -->
<g id="edge42" class="edge">
<title>Node20&#45;&gt;Node5</title>
<path fill="none" stroke="#191970" d="M786.018,-190.588C777.25,-194.145 768.85,-198.764 762,-205 690.665,-269.938 668.325,-391.604 662.133,-434.71"/>
<polygon fill="#191970" stroke="#191970" points="787.405,-193.809 795.621,-187.12 785.027,-187.225 787.405,-193.809"/>
</g>
<!-- Node20&#45;&gt;Node7 -->
<g id="edge43" class="edge">
<title>Node20&#45;&gt;Node7</title>
<path fill="none" stroke="#191970" d="M915.839,-189.942C918.719,-191.769 921.458,-193.782 924,-196 990.964,-254.427 1014.34,-368.032 1020.01,-402.107"/>
<polygon fill="#191970" stroke="#191970" points="917.282,-186.742 906.831,-184.999 913.915,-192.878 917.282,-186.742"/>
</g>
<!-- Node21&#45;&gt;Node5 -->
<g id="edge45" class="edge">
<title>Node21&#45;&gt;Node5</title>
<path fill="none" stroke="#191970" d="M556.287,-416.188C575.139,-422.334 595.96,-429.122 613.97,-434.993"/>
<polygon fill="#191970" stroke="#191970" points="557.226,-412.813 546.634,-413.041 555.057,-419.468 557.226,-412.813"/>
</g>
<!-- Node22 -->
<g id="node22" class="node">
<title>Node22</title>
<g id="a_node22"><a xlink:href="en61107__request_8h.html#a7384d014eb9e833f64ecf4a9f86f87be" target="_top" xlink:title="en61107_request_send">
<polygon fill="#ffffff" stroke="#000000" points="599,-116.5 599,-135.5 721,-135.5 721,-116.5 599,-116.5"/>
<text text-anchor="middle" x="660" y="-123.5" font-family="Helvetica,sans-Serif" font-size="10.00" fill="#000000">en61107_request_send</text>
</a>
</g>
</g>
<!-- Node21&#45;&gt;Node22 -->
<g id="edge46" class="edge">
<title>Node21&#45;&gt;Node22</title>
<path fill="none" stroke="#191970" d="M514.409,-374.28C547.917,-317.139 631.995,-173.758 654.427,-135.504"/>
<polygon fill="#191970" stroke="#191970" points="511.342,-372.592 509.303,-382.989 517.38,-376.133 511.342,-372.592"/>
</g>
<!-- Node23 -->
<g id="node23" class="node">
<title>Node23</title>
<g id="a_node23"><a xlink:href="user__main_8c.html#af2c051d5ceacd30f90c08d6f584deff2" target="_top" xlink:title="sample_timer_func">
<polygon fill="#ffffff" stroke="#000000" points="792.5,-78.5 792.5,-97.5 893.5,-97.5 893.5,-78.5 792.5,-78.5"/>
<text text-anchor="middle" x="843" y="-85.5" font-family="Helvetica,sans-Serif" font-size="10.00" fill="#000000">sample_timer_func</text>
</a>
</g>
</g>
<!-- Node22&#45;&gt;Node23 -->
<g id="edge47" class="edge">
<title>Node22&#45;&gt;Node23</title>
<path fill="none" stroke="#191970" d="M716.253,-114.319C742.205,-108.93 772.622,-102.614 797.153,-97.5201"/>
<polygon fill="#191970" stroke="#191970" points="715.258,-110.951 706.179,-116.411 716.681,-117.805 715.258,-110.951"/>
</g>
<!-- Node27 -->
<g id="node27" class="node">
<title>Node27</title>
<g id="a_node27"><a xlink:href="user__main_8c.html#ad75c70d9e67f9a03a6bc6efed2e08c9a" target="_top" xlink:title="en61107_request_send\l_timer_func">
<polygon fill="#ffffff" stroke="#000000" points="1124,-115 1124,-145 1246,-145 1246,-115 1124,-115"/>
<text text-anchor="start" x="1132" y="-133" font-family="Helvetica,sans-Serif" font-size="10.00" fill="#000000">en61107_request_send</text>
<text text-anchor="middle" x="1185" y="-122" font-family="Helvetica,sans-Serif" font-size="10.00" fill="#000000">_timer_func</text>
</a>
</g>
</g>
<!-- Node22&#45;&gt;Node27 -->
<g id="edge52" class="edge">
<title>Node22&#45;&gt;Node27</title>
<path fill="none" stroke="#191970" d="M731.322,-126.543C835.093,-127.334 1025.95,-128.788 1123.73,-129.533"/>
<polygon fill="#191970" stroke="#191970" points="731.278,-123.043 721.252,-126.467 731.225,-130.043 731.278,-123.043"/>
</g>
<!-- Node24 -->
<g id="node24" class="node">
<title>Node24</title>
<g id="a_node24"><a xlink:href="user__main_8h.html#a06f2b383d99fcad9d0f37d1ca2224898" target="_top" xlink:title="mqttConnectedCb">
<polygon fill="#ffffff" stroke="#000000" points="973,-77.5 973,-96.5 1070,-96.5 1070,-77.5 973,-77.5"/>
<text text-anchor="middle" x="1021.5" y="-84.5" font-family="Helvetica,sans-Serif" font-size="10.00" fill="#000000">mqttConnectedCb</text>
</a>
</g>
</g>
<!-- Node23&#45;&gt;Node24 -->
<g id="edge48" class="edge">
<title>Node23&#45;&gt;Node24</title>
<path fill="none" stroke="#191970" d="M903.808,-87.6593C926.331,-87.5332 951.553,-87.3919 972.853,-87.2725"/>
<polygon fill="#191970" stroke="#191970" points="903.654,-84.1601 893.673,-87.7161 903.693,-91.1599 903.654,-84.1601"/>
</g>
<!-- Node25 -->
<g id="node25" class="node">
<title>Node25</title>
<g id="a_node25"><a xlink:href="user__main_8c.html#a245ec00253f410a8804988bf40e1037e" target="_top" xlink:title="sample_mode_timer_func">
<polygon fill="#ffffff" stroke="#000000" points="1119,-76.5 1119,-95.5 1251,-95.5 1251,-76.5 1119,-76.5"/>
<text text-anchor="middle" x="1185" y="-83.5" font-family="Helvetica,sans-Serif" font-size="10.00" fill="#000000">sample_mode_timer_func</text>
</a>
</g>
</g>
<!-- Node24&#45;&gt;Node25 -->
<g id="edge49" class="edge">
<title>Node24&#45;&gt;Node25</title>
<path fill="none" stroke="#191970" d="M1080.36,-86.64C1092.8,-86.5639 1106.02,-86.4831 1118.72,-86.4054"/>
<polygon fill="#191970" stroke="#191970" points="1080.09,-83.1415 1070.11,-86.7027 1080.13,-90.1414 1080.09,-83.1415"/>
</g>
<!-- Node26 -->
<g id="node26" class="node">
<title>Node26</title>
<g id="a_node26"><a xlink:href="user__main_8h.html#a3671381db669a16e8f6a4bf3dfb9a441" target="_top" xlink:title="system_init_done">
<polygon fill="#ffffff" stroke="#000000" points="1296.5,-98.5 1296.5,-117.5 1390.5,-117.5 1390.5,-98.5 1296.5,-98.5"/>
<text text-anchor="middle" x="1343.5" y="-105.5" font-family="Helvetica,sans-Serif" font-size="10.00" fill="#000000">system_init_done</text>
</a>
</g>
</g>
<!-- Node25&#45;&gt;Node26 -->
<g id="edge50" class="edge">
<title>Node25&#45;&gt;Node26</title>
<path fill="none" stroke="#191970" d="M1261.28,-96.5875C1273.21,-98.2437 1285.23,-99.9123 1296.26,-101.443"/>
<polygon fill="#191970" stroke="#191970" points="1261.69,-93.1107 1251.3,-95.2025 1260.72,-100.044 1261.69,-93.1107"/>
</g>
<!-- Node26&#45;&gt;Node9 -->
<g id="edge51" class="edge">
<title>Node26&#45;&gt;Node9</title>
<path fill="none" stroke="#191970" d="M1400.87,-108C1413.03,-108 1425.32,-108 1435.72,-108"/>
<polygon fill="#191970" stroke="#191970" points="1400.73,-104.5 1390.73,-108 1400.73,-111.5 1400.73,-104.5"/>
</g>
<!-- Node27&#45;&gt;Node26 -->
<g id="edge53" class="edge">
<title>Node27&#45;&gt;Node26</title>
<path fill="none" stroke="#191970" d="M1256.48,-120.079C1269.92,-118.213 1283.67,-116.305 1296.15,-114.573"/>
<polygon fill="#191970" stroke="#191970" points="1255.7,-116.653 1246.28,-121.494 1256.67,-123.586 1255.7,-116.653"/>
</g>
<!-- Node29 -->
<g id="node29" class="node">
<title>Node29</title>
<g id="a_node29"><a xlink:href="kmp__request_8h.html#a3b022dcdc832786eb06126b5e6879604" target="_top" xlink:title="kmp_request_send">
<polygon fill="#ffffff" stroke="#000000" points="449.5,-78.5 449.5,-97.5 551.5,-97.5 551.5,-78.5 449.5,-78.5"/>
<text text-anchor="middle" x="500.5" y="-85.5" font-family="Helvetica,sans-Serif" font-size="10.00" fill="#000000">kmp_request_send</text>
</a>
</g>
</g>
<!-- Node28&#45;&gt;Node29 -->
<g id="edge67" class="edge">
<title>Node28&#45;&gt;Node29</title>
<path fill="none" stroke="#191970" d="M384.431,-114.176C408.187,-108.818 435.899,-102.569 458.286,-97.5201"/>
<polygon fill="#191970" stroke="#191970" points="383.505,-110.797 374.52,-116.411 385.045,-117.625 383.505,-110.797"/>
</g>
<!-- Node29&#45;&gt;Node23 -->
<g id="edge70" class="edge">
<title>Node29&#45;&gt;Node23</title>
<path fill="none" stroke="#191970" d="M562.015,-88C627.891,-88 731.196,-88 792.492,-88"/>
<polygon fill="#191970" stroke="#191970" points="561.776,-84.5001 551.776,-88 561.776,-91.5001 561.776,-84.5001"/>
</g>
<!-- Node30 -->
<g id="node30" class="node">
<title>Node30</title>
<g id="a_node30"><a xlink:href="kmp__request_8c.html#a0977a4640a97d389ac3b0fef0ba7a9b6" target="_top" xlink:title="kmp_receive_timeout\l_timer_func">
<polygon fill="#ffffff" stroke="#000000" points="604,-29 604,-59 716,-59 716,-29 604,-29"/>
<text text-anchor="start" x="612" y="-47" font-family="Helvetica,sans-Serif" font-size="10.00" fill="#000000">kmp_receive_timeout</text>
<text text-anchor="middle" x="660" y="-36" font-family="Helvetica,sans-Serif" font-size="10.00" fill="#000000">_timer_func</text>
</a>
</g>
</g>
<!-- Node29&#45;&gt;Node30 -->
<g id="edge68" class="edge">
<title>Node29&#45;&gt;Node30</title>
<path fill="none" stroke="#191970" d="M528.269,-75.0737C549.034,-67.937 578.129,-59.5047 603.696,-53.0484"/>
<polygon fill="#191970" stroke="#191970" points="527.036,-71.7976 518.797,-78.4587 529.391,-78.3893 527.036,-71.7976"/>
</g>
<!-- Node30&#45;&gt;Node29 -->
<g id="edge69" class="edge">
<title>Node30&#45;&gt;Node29</title>
<path fill="none" stroke="#191970" d="M616.134,-62.2026C596.234,-68.4622 572.568,-75.075 551.845,-80.19"/>
<polygon fill="#191970" stroke="#191970" points="617.42,-65.4657 625.866,-59.0692 615.274,-58.8026 617.42,-65.4657"/>
</g>
<!-- Node31&#45;&gt;Node29 -->
<g id="edge72" class="edge">
<title>Node31&#45;&gt;Node29</title>
<path fill="none" stroke="#191970" d="M415.47,-88C426.941,-88 438.431,-88 449.09,-88"/>
<polygon fill="#191970" stroke="#191970" points="415.416,-84.5001 405.416,-88 415.416,-91.5001 415.416,-84.5001"/>
</g>
<!-- Node33 -->
<g id="node33" class="node">
<title>Node33</title>
<g id="a_node33"><a xlink:href="uart_8h.html#a1fdfa60721412bedfeb7be0ebc4d1700" target="_top" xlink:title="uart_init">
<polygon fill="#ffffff" stroke="#000000" points="474.5,-2.5 474.5,-21.5 526.5,-21.5 526.5,-2.5 474.5,-2.5"/>
<text text-anchor="middle" x="500.5" y="-9.5" font-family="Helvetica,sans-Serif" font-size="10.00" fill="#000000">uart_init</text>
</a>
</g>
</g>
<!-- Node32&#45;&gt;Node33 -->
<g id="edge74" class="edge">
<title>Node32&#45;&gt;Node33</title>
<path fill="none" stroke="#191970" d="M387.675,-20.7046C416.853,-18.4535 451.216,-15.8023 474.286,-14.0224"/>
<polygon fill="#191970" stroke="#191970" points="387.3,-17.2231 377.599,-21.482 387.838,-24.2023 387.3,-17.2231"/>
</g>
<!-- Node33&#45;&gt;Node9 -->
<g id="edge75" class="edge">
<title>Node33&#45;&gt;Node9</title>
<path fill="none" stroke="#191970" d="M536.837,-9.89022C599.364,-6.44723 731.355,-0 843,-0 843,-0 843,-0 1185,-0 1293.22,-0 1410.03,-71.9841 1449.27,-98.4157"/>
<polygon fill="#191970" stroke="#191970" points="536.489,-6.40407 526.7,-10.4558 536.879,-13.3932 536.489,-6.40407"/>
</g>
</g>
</svg>
