<?xml version="1.0" encoding="UTF-8" standalone="no"?>
<!DOCTYPE svg PUBLIC "-//W3C//DTD SVG 1.1//EN"
 "http://www.w3.org/Graphics/SVG/1.1/DTD/svg11.dtd">
<!-- Generated by graphviz version 2.41.20170323.1842 (20170323.1842)
 -->
<!-- Title: driver/uart.c Pages: 1 -->
<svg width="1056pt" height="868pt"
 viewBox="0.00 0.00 1055.50 868.00" xmlns="http://www.w3.org/2000/svg" xmlns:xlink="http://www.w3.org/1999/xlink">
<g id="graph0" class="graph" transform="scale(1 1) rotate(0) translate(4 864)">
<title>driver/uart.c</title>
<polygon fill="#ffffff" stroke="transparent" points="-4,4 -4,-864 1051.5,-864 1051.5,4 -4,4"/>
<!-- Node0 -->
<g id="node1" class="node">
<title>Node0</title>
<polygon fill="#bfbfbf" stroke="#000000" points="795.5,-840.5 795.5,-859.5 864.5,-859.5 864.5,-840.5 795.5,-840.5"/>
<text text-anchor="middle" x="830" y="-847.5" font-family="Helvetica,sans-Serif" font-size="10.00" fill="#000000">driver/uart.c</text>
</g>
<!-- Node1 -->
<g id="node2" class="node">
<title>Node1</title>
<g id="a_node2"><a xlink:href="ets__sys_8h.html" target="_top" xlink:title="ets_sys.h">
<polygon fill="#ffffff" stroke="#000000" points="723.5,-112.5 723.5,-131.5 782.5,-131.5 782.5,-112.5 723.5,-112.5"/>
<text text-anchor="middle" x="753" y="-119.5" font-family="Helvetica,sans-Serif" font-size="10.00" fill="#000000">ets_sys.h</text>
</a>
</g>
</g>
<!-- Node0&#45;&gt;Node1 -->
<g id="edge1" class="edge">
<title>Node0&#45;&gt;Node1</title>
<path fill="none" stroke="#191970" d="M834.7217,-840.3774C843.623,-821.3222 862,-777.2317 862,-738 862,-738 862,-738 862,-234 862,-188.4375 815.1002,-154.4581 782.8286,-136.4701"/>
<polygon fill="#191970" stroke="#191970" points="784.2268,-133.2486 773.7586,-131.6149 780.9232,-139.4201 784.2268,-133.2486"/>
</g>
<!-- Node6 -->
<g id="node7" class="node">
<title>Node6</title>
<g id="a_node7"><a xlink:href="osapi_8h.html" target="_top" xlink:title="osapi.h">
<polygon fill="#ffffff" stroke="#000000" points="89.5,-112.5 89.5,-131.5 138.5,-131.5 138.5,-112.5 89.5,-112.5"/>
<text text-anchor="middle" x="114" y="-119.5" font-family="Helvetica,sans-Serif" font-size="10.00" fill="#000000">osapi.h</text>
</a>
</g>
</g>
<!-- Node0&#45;&gt;Node6 -->
<g id="edge6" class="edge">
<title>Node0&#45;&gt;Node6</title>
<path fill="none" stroke="#191970" d="M795.3926,-849.0368C638.3088,-844.2163 0,-819.6076 0,-738 0,-738 0,-738 0,-290 0,-224.6402 59.8113,-165.8221 92.7871,-138.3607"/>
<polygon fill="#191970" stroke="#191970" points="95.3573,-140.7829 100.9228,-131.7676 90.95,-135.3445 95.3573,-140.7829"/>
</g>
<!-- Node9 -->
<g id="node10" class="node">
<title>Node9</title>
<g id="a_node10"><a xlink:href="uart_8h.html" target="_top" xlink:title="driver/uart.h">
<polygon fill="#ffffff" stroke="#000000" points="896,-784.5 896,-803.5 966,-803.5 966,-784.5 896,-784.5"/>
<text text-anchor="middle" x="931" y="-791.5" font-family="Helvetica,sans-Serif" font-size="10.00" fill="#000000">driver/uart.h</text>
</a>
</g>
</g>
<!-- Node0&#45;&gt;Node9 -->
<g id="edge9" class="edge">
<title>Node0&#45;&gt;Node9</title>
<path fill="none" stroke="#191970" d="M847.5929,-840.2455C863.379,-831.4928 886.7639,-818.527 904.7587,-808.5496"/>
<polygon fill="#191970" stroke="#191970" points="906.5603,-811.5528 913.6087,-803.6427 903.1659,-805.4308 906.5603,-811.5528"/>
</g>
<!-- Node10 -->
<g id="node11" class="node">
<title>Node10</title>
<g id="a_node11"><a xlink:href="uart__register_8h.html" target="_top" xlink:title="uart_register.h">
<polygon fill="#ffffff" stroke="#000000" points="966.5,-728.5 966.5,-747.5 1047.5,-747.5 1047.5,-728.5 966.5,-728.5"/>
<text text-anchor="middle" x="1007" y="-735.5" font-family="Helvetica,sans-Serif" font-size="10.00" fill="#000000">uart_register.h</text>
</a>
</g>
</g>
<!-- Node0&#45;&gt;Node10 -->
<g id="edge13" class="edge">
<title>Node0&#45;&gt;Node10</title>
<path fill="none" stroke="#191970" d="M864.5211,-846.8109C896.5136,-842.2135 943.7439,-831.0438 975,-804 989.1032,-791.7974 997.543,-771.9562 1002.1835,-757.2099"/>
<polygon fill="#191970" stroke="#191970" points="1005.5604,-758.1301 1004.9177,-747.5548 998.8253,-756.2228 1005.5604,-758.1301"/>
</g>
<!-- Node11 -->
<g id="node12" class="node">
<title>Node11</title>
<g id="a_node12"><a xlink:href="user__interface_8h.html" target="_top" xlink:title="user_interface.h">
<polygon fill="#ffffff" stroke="#000000" points="642,-504.5 642,-523.5 730,-523.5 730,-504.5 642,-504.5"/>
<text text-anchor="middle" x="686" y="-511.5" font-family="Helvetica,sans-Serif" font-size="10.00" fill="#000000">user_interface.h</text>
</a>
</g>
</g>
<!-- Node0&#45;&gt;Node11 -->
<g id="edge14" class="edge">
<title>Node0&#45;&gt;Node11</title>
<path fill="none" stroke="#191970" d="M795.486,-840.4834C775.2474,-833.3509 750.4959,-821.7209 734,-804 712.5187,-780.9234 708,-769.5274 708,-738 708,-738 708,-738 708,-626 708,-593.1132 698.754,-555.7958 692.2501,-533.6138"/>
<polygon fill="#191970" stroke="#191970" points="695.5104,-532.3059 689.2462,-523.7614 688.8147,-534.3474 695.5104,-532.3059"/>
</g>
<!-- Node23 -->
<g id="node24" class="node">
<title>Node23</title>
<g id="a_node24"><a xlink:href="kmp__request_8h.html" target="_top" xlink:title="kmp_request.h">
<polygon fill="#ffffff" stroke="#000000" points="742.5,-784.5 742.5,-803.5 825.5,-803.5 825.5,-784.5 742.5,-784.5"/>
<text text-anchor="middle" x="784" y="-791.5" font-family="Helvetica,sans-Serif" font-size="10.00" fill="#000000">kmp_request.h</text>
</a>
</g>
</g>
<!-- Node0&#45;&gt;Node23 -->
<g id="edge33" class="edge">
<title>Node0&#45;&gt;Node23</title>
<path fill="none" stroke="#191970" d="M821.9874,-840.2455C815.5232,-832.3761 806.2615,-821.101 798.5017,-811.6542"/>
<polygon fill="#191970" stroke="#191970" points="800.9727,-809.1484 791.9208,-803.6427 795.5636,-813.5916 800.9727,-809.1484"/>
</g>
<!-- Node2 -->
<g id="node3" class="node">
<title>Node2</title>
<g id="a_node3"><a xlink:href="c__types_8h.html" target="_top" xlink:title="c_types.h">
<polygon fill="#ffffff" stroke="#000000" points="619.5,-56.5 619.5,-75.5 678.5,-75.5 678.5,-56.5 619.5,-56.5"/>
<text text-anchor="middle" x="649" y="-63.5" font-family="Helvetica,sans-Serif" font-size="10.00" fill="#000000">c_types.h</text>
</a>
</g>
</g>
<!-- Node1&#45;&gt;Node2 -->
<g id="edge2" class="edge">
<title>Node1&#45;&gt;Node2</title>
<path fill="none" stroke="#191970" d="M734.8846,-112.2455C718.555,-103.4527 694.329,-90.4079 675.7661,-80.4125"/>
<polygon fill="#191970" stroke="#191970" points="677.3719,-77.3021 666.9078,-75.6427 674.0532,-83.4654 677.3719,-77.3021"/>
</g>
<!-- Node5 -->
<g id="node6" class="node">
<title>Node5</title>
<g id="a_node6"><a xlink:href="eagle__soc_8h.html" target="_top" xlink:title="eagle_soc.h">
<polygon fill="#ffffff" stroke="#000000" points="722,-56.5 722,-75.5 792,-75.5 792,-56.5 722,-56.5"/>
<text text-anchor="middle" x="757" y="-63.5" font-family="Helvetica,sans-Serif" font-size="10.00" fill="#000000">eagle_soc.h</text>
</a>
</g>
</g>
<!-- Node1&#45;&gt;Node5 -->
<g id="edge5" class="edge">
<title>Node1&#45;&gt;Node5</title>
<path fill="none" stroke="#191970" d="M753.6967,-112.2455C754.2187,-104.9382 754.9504,-94.6944 755.5925,-85.7046"/>
<polygon fill="#191970" stroke="#191970" points="759.0898,-85.8667 756.3112,-75.6427 752.1076,-85.3679 759.0898,-85.8667"/>
</g>
<!-- Node3 -->
<g id="node4" class="node">
<title>Node3</title>
<polygon fill="#ffffff" stroke="#bfbfbf" points="588.5,-.5 588.5,-19.5 637.5,-19.5 637.5,-.5 588.5,-.5"/>
<text text-anchor="middle" x="613" y="-7.5" font-family="Helvetica,sans-Serif" font-size="10.00" fill="#000000">stdint.h</text>
</g>
<!-- Node2&#45;&gt;Node3 -->
<g id="edge3" class="edge">
<title>Node2&#45;&gt;Node3</title>
<path fill="none" stroke="#191970" d="M642.7293,-56.2455C637.7736,-48.5367 630.717,-37.5598 624.7224,-28.2348"/>
<polygon fill="#191970" stroke="#191970" points="627.5506,-26.1618 619.1989,-19.6427 621.6624,-29.9471 627.5506,-26.1618"/>
</g>
<!-- Node4 -->
<g id="node5" class="node">
<title>Node4</title>
<polygon fill="#ffffff" stroke="#bfbfbf" points="655.5,-.5 655.5,-19.5 712.5,-19.5 712.5,-.5 655.5,-.5"/>
<text text-anchor="middle" x="684" y="-7.5" font-family="Helvetica,sans-Serif" font-size="10.00" fill="#000000">stdbool.h</text>
</g>
<!-- Node2&#45;&gt;Node4 -->
<g id="edge4" class="edge">
<title>Node2&#45;&gt;Node4</title>
<path fill="none" stroke="#191970" d="M655.0965,-56.2455C659.9145,-48.5367 666.7751,-37.5598 672.6032,-28.2348"/>
<polygon fill="#191970" stroke="#191970" points="675.6413,-29.9777 677.9733,-19.6427 669.7053,-26.2677 675.6413,-29.9777"/>
</g>
<!-- Node7 -->
<g id="node8" class="node">
<title>Node7</title>
<polygon fill="#ffffff" stroke="#bfbfbf" points="32.5,-56.5 32.5,-75.5 81.5,-75.5 81.5,-56.5 32.5,-56.5"/>
<text text-anchor="middle" x="57" y="-63.5" font-family="Helvetica,sans-Serif" font-size="10.00" fill="#000000">string.h</text>
</g>
<!-- Node6&#45;&gt;Node7 -->
<g id="edge7" class="edge">
<title>Node6&#45;&gt;Node7</title>
<path fill="none" stroke="#191970" d="M104.0714,-112.2455C95.8162,-104.1352 83.8791,-92.4075 74.0918,-82.7919"/>
<polygon fill="#191970" stroke="#191970" points="76.4011,-80.1542 66.8149,-75.6427 71.4954,-85.1476 76.4011,-80.1542"/>
</g>
<!-- Node8 -->
<g id="node9" class="node">
<title>Node8</title>
<polygon fill="#ffffff" stroke="#bfbfbf" points="188.5,-56.5 188.5,-75.5 265.5,-75.5 265.5,-56.5 188.5,-56.5"/>
<text text-anchor="middle" x="227" y="-63.5" font-family="Helvetica,sans-Serif" font-size="10.00" fill="#000000">user_config.h</text>
</g>
<!-- Node6&#45;&gt;Node8 -->
<g id="edge8" class="edge">
<title>Node6&#45;&gt;Node8</title>
<path fill="none" stroke="#191970" d="M133.4254,-112.3733C151.4021,-103.4644 178.3441,-90.1127 198.709,-80.0203"/>
<polygon fill="#191970" stroke="#191970" points="200.4222,-83.0776 207.8281,-75.5011 197.3139,-76.8055 200.4222,-83.0776"/>
</g>
<!-- Node9&#45;&gt;Node2 -->
<g id="edge12" class="edge">
<title>Node9&#45;&gt;Node2</title>
<path fill="none" stroke="#191970" d="M926.4258,-784.3613C917.8027,-765.278 900,-721.1405 900,-682 900,-682 900,-682 900,-178 900,-132.2916 759.4323,-92.2717 688.6851,-75.0244"/>
<polygon fill="#191970" stroke="#191970" points="689.3193,-71.5773 678.7787,-72.647 687.6858,-78.384 689.3193,-71.5773"/>
</g>
<!-- Node9&#45;&gt;Node5 -->
<g id="edge11" class="edge">
<title>Node9&#45;&gt;Node5</title>
<path fill="none" stroke="#191970" d="M932.0029,-784.4242C933.9385,-765.0891 938,-719.9907 938,-682 938,-682 938,-682 938,-178 938,-146.7875 936.7628,-133.356 914,-112 897.7689,-96.772 842.5721,-82.9493 802.2007,-74.5183"/>
<polygon fill="#191970" stroke="#191970" points="802.7872,-71.0659 792.289,-72.4934 801.386,-77.9243 802.7872,-71.0659"/>
</g>
<!-- Node9&#45;&gt;Node10 -->
<g id="edge10" class="edge">
<title>Node9&#45;&gt;Node10</title>
<path fill="none" stroke="#191970" d="M944.2382,-784.2455C955.681,-775.814 972.4296,-763.4729 985.7475,-753.6598"/>
<polygon fill="#191970" stroke="#191970" points="987.9391,-756.3924 993.9135,-747.6427 983.7867,-750.757 987.9391,-756.3924"/>
</g>
<!-- Node11&#45;&gt;Node8 -->
<g id="edge30" class="edge">
<title>Node11&#45;&gt;Node8</title>
<path fill="none" stroke="#191970" d="M641.9738,-505.2505C582.6629,-493.3271 483.6914,-472.8935 477,-468 329.445,-360.0916 380.7364,-258.2006 271,-112 263.178,-101.5788 253.2276,-90.9992 244.7687,-82.6178"/>
<polygon fill="#191970" stroke="#191970" points="247.1434,-80.0453 237.5234,-75.6061 242.2754,-85.0755 247.1434,-80.0453"/>
</g>
<!-- Node12 -->
<g id="node13" class="node">
<title>Node12</title>
<g id="a_node13"><a xlink:href="os__type_8h.html" target="_top" xlink:title="os_type.h">
<polygon fill="#ffffff" stroke="#000000" points="774,-448.5 774,-467.5 834,-467.5 834,-448.5 774,-448.5"/>
<text text-anchor="middle" x="804" y="-455.5" font-family="Helvetica,sans-Serif" font-size="10.00" fill="#000000">os_type.h</text>
</a>
</g>
</g>
<!-- Node11&#45;&gt;Node12 -->
<g id="edge15" class="edge">
<title>Node11&#45;&gt;Node12</title>
<path fill="none" stroke="#191970" d="M706.2849,-504.3733C725.1421,-495.4241 753.446,-481.9917 774.7455,-471.8835"/>
<polygon fill="#191970" stroke="#191970" points="776.4461,-474.9506 783.9798,-467.5011 773.4449,-468.6266 776.4461,-474.9506"/>
</g>
<!-- Node13 -->
<g id="node14" class="node">
<title>Node13</title>
<g id="a_node14"><a xlink:href="esp-open-lwip_2include_2lwip_2ip__addr_8h.html" target="_top" xlink:title="lwip/ip_addr.h">
<polygon fill="#ffffff" stroke="#000000" points="486,-448.5 486,-467.5 564,-467.5 564,-448.5 486,-448.5"/>
<text text-anchor="middle" x="525" y="-455.5" font-family="Helvetica,sans-Serif" font-size="10.00" fill="#000000">lwip/ip_addr.h</text>
</a>
</g>
</g>
<!-- Node11&#45;&gt;Node13 -->
<g id="edge17" class="edge">
<title>Node11&#45;&gt;Node13</title>
<path fill="none" stroke="#191970" d="M658.3231,-504.3733C631.6672,-495.1016 591.1762,-481.0178 561.8116,-470.804"/>
<polygon fill="#191970" stroke="#191970" points="562.9105,-467.4807 552.3157,-467.5011 560.6109,-474.0921 562.9105,-467.4807"/>
</g>
<!-- Node20 -->
<g id="node21" class="node">
<title>Node20</title>
<g id="a_node21"><a xlink:href="esp-open-sdk_2sdk_2include_2queue_8h.html" target="_top" xlink:title="queue.h">
<polygon fill="#ffffff" stroke="#000000" points="582.5,-448.5 582.5,-467.5 635.5,-467.5 635.5,-448.5 582.5,-448.5"/>
<text text-anchor="middle" x="609" y="-455.5" font-family="Helvetica,sans-Serif" font-size="10.00" fill="#000000">queue.h</text>
</a>
</g>
</g>
<!-- Node11&#45;&gt;Node20 -->
<g id="edge29" class="edge">
<title>Node11&#45;&gt;Node20</title>
<path fill="none" stroke="#191970" d="M672.5876,-504.2455C660.9943,-495.814 644.0252,-483.4729 630.5322,-473.6598"/>
<polygon fill="#191970" stroke="#191970" points="632.4047,-470.6938 622.2587,-467.6427 628.2874,-476.355 632.4047,-470.6938"/>
</g>
<!-- Node21 -->
<g id="node22" class="node">
<title>Node21</title>
<g id="a_node22"><a xlink:href="spi__flash_8h.html" target="_top" xlink:title="spi_flash.h">
<polygon fill="#ffffff" stroke="#000000" points="654,-448.5 654,-467.5 718,-467.5 718,-448.5 654,-448.5"/>
<text text-anchor="middle" x="686" y="-455.5" font-family="Helvetica,sans-Serif" font-size="10.00" fill="#000000">spi_flash.h</text>
</a>
</g>
</g>
<!-- Node11&#45;&gt;Node21 -->
<g id="edge31" class="edge">
<title>Node11&#45;&gt;Node21</title>
<path fill="none" stroke="#191970" d="M686,-504.2455C686,-496.9382 686,-486.6944 686,-477.7046"/>
<polygon fill="#191970" stroke="#191970" points="689.5001,-477.6426 686,-467.6427 682.5001,-477.6427 689.5001,-477.6426"/>
</g>
<!-- Node22 -->
<g id="node23" class="node">
<title>Node22</title>
<g id="a_node23"><a xlink:href="gpio_8h.html" target="_top" xlink:title="gpio.h">
<polygon fill="#ffffff" stroke="#000000" points="340,-448.5 340,-467.5 384,-467.5 384,-448.5 340,-448.5"/>
<text text-anchor="middle" x="362" y="-455.5" font-family="Helvetica,sans-Serif" font-size="10.00" fill="#000000">gpio.h</text>
</a>
</g>
</g>
<!-- Node11&#45;&gt;Node22 -->
<g id="edge32" class="edge">
<title>Node11&#45;&gt;Node22</title>
<path fill="none" stroke="#191970" d="M641.7741,-505.5375C638.8068,-505.0061 635.8613,-504.4889 633,-504 528.8469,-486.202 501.3089,-490.1792 398,-468 396.7514,-467.7319 395.4819,-467.446 394.2022,-467.1464"/>
<polygon fill="#191970" stroke="#191970" points="394.9195,-463.7177 384.3663,-464.6564 393.2015,-470.5036 394.9195,-463.7177"/>
</g>
<!-- Node12&#45;&gt;Node1 -->
<g id="edge16" class="edge">
<title>Node12&#45;&gt;Node1</title>
<path fill="none" stroke="#191970" d="M802.5672,-448.4373C799.8022,-429.1257 794,-384.0675 794,-346 794,-346 794,-346 794,-234 794,-199.3444 776.4755,-162.1312 764.3408,-140.5174"/>
<polygon fill="#191970" stroke="#191970" points="767.2886,-138.6243 759.227,-131.7496 761.2419,-142.1511 767.2886,-138.6243"/>
</g>
<!-- Node14 -->
<g id="node15" class="node">
<title>Node14</title>
<g id="a_node15"><a xlink:href="opt_8h.html" target="_top" xlink:title="lwip/opt.h">
<polygon fill="#ffffff" stroke="#000000" points="549.5,-336.5 549.5,-355.5 608.5,-355.5 608.5,-336.5 549.5,-336.5"/>
<text text-anchor="middle" x="579" y="-343.5" font-family="Helvetica,sans-Serif" font-size="10.00" fill="#000000">lwip/opt.h</text>
</a>
</g>
</g>
<!-- Node13&#45;&gt;Node14 -->
<g id="edge18" class="edge">
<title>Node13&#45;&gt;Node14</title>
<path fill="none" stroke="#191970" d="M533.9385,-448.4888C541.8081,-439.6516 553.0652,-425.8105 560,-412 567.3572,-397.3484 572.2924,-379.3957 575.2849,-365.9148"/>
<polygon fill="#191970" stroke="#191970" points="578.7761,-366.312 577.3522,-355.8133 571.9182,-364.9084 578.7761,-366.312"/>
</g>
<!-- Node19 -->
<g id="node20" class="node">
<title>Node19</title>
<g id="a_node20"><a xlink:href="def_8h.html" target="_top" xlink:title="lwip/def.h">
<polygon fill="#ffffff" stroke="#000000" points="491.5,-392.5 491.5,-411.5 550.5,-411.5 550.5,-392.5 491.5,-392.5"/>
<text text-anchor="middle" x="521" y="-399.5" font-family="Helvetica,sans-Serif" font-size="10.00" fill="#000000">lwip/def.h</text>
</a>
</g>
</g>
<!-- Node13&#45;&gt;Node19 -->
<g id="edge26" class="edge">
<title>Node13&#45;&gt;Node19</title>
<path fill="none" stroke="#191970" d="M524.3033,-448.2455C523.7813,-440.9382 523.0496,-430.6944 522.4075,-421.7046"/>
<polygon fill="#191970" stroke="#191970" points="525.8924,-421.3679 521.6888,-411.6427 518.9102,-421.8667 525.8924,-421.3679"/>
</g>
<!-- Node15 -->
<g id="node16" class="node">
<title>Node15</title>
<g id="a_node16"><a xlink:href="lwipopts_8h.html" target="_top" xlink:title="lwipopts.h">
<polygon fill="#ffffff" stroke="#000000" points="548.5,-280.5 548.5,-299.5 609.5,-299.5 609.5,-280.5 548.5,-280.5"/>
<text text-anchor="middle" x="579" y="-287.5" font-family="Helvetica,sans-Serif" font-size="10.00" fill="#000000">lwipopts.h</text>
</a>
</g>
</g>
<!-- Node14&#45;&gt;Node15 -->
<g id="edge19" class="edge">
<title>Node14&#45;&gt;Node15</title>
<path fill="none" stroke="#191970" d="M579,-336.2455C579,-328.9382 579,-318.6944 579,-309.7046"/>
<polygon fill="#191970" stroke="#191970" points="582.5001,-309.6426 579,-299.6427 575.5001,-309.6427 582.5001,-309.6426"/>
</g>
<!-- Node16 -->
<g id="node17" class="node">
<title>Node16</title>
<g id="a_node17"><a xlink:href="esp-open-sdk_2esp-open-lwip_2include_2lwip_2debug_8h.html" target="_top" xlink:title="lwip/debug.h">
<polygon fill="#ffffff" stroke="#000000" points="627.5,-280.5 627.5,-299.5 700.5,-299.5 700.5,-280.5 627.5,-280.5"/>
<text text-anchor="middle" x="664" y="-287.5" font-family="Helvetica,sans-Serif" font-size="10.00" fill="#000000">lwip/debug.h</text>
</a>
</g>
</g>
<!-- Node14&#45;&gt;Node16 -->
<g id="edge20" class="edge">
<title>Node14&#45;&gt;Node16</title>
<path fill="none" stroke="#191970" d="M593.8059,-336.2455C606.7256,-327.7337 625.6931,-315.2375 640.6552,-305.3801"/>
<polygon fill="#191970" stroke="#191970" points="642.9387,-308.067 649.3638,-299.6427 639.0876,-302.2216 642.9387,-308.067"/>
</g>
<!-- Node17 -->
<g id="node18" class="node">
<title>Node17</title>
<g id="a_node18"><a xlink:href="arch_8h.html" target="_top" xlink:title="lwip/arch.h">
<polygon fill="#ffffff" stroke="#000000" points="617,-224.5 617,-243.5 681,-243.5 681,-224.5 617,-224.5"/>
<text text-anchor="middle" x="649" y="-231.5" font-family="Helvetica,sans-Serif" font-size="10.00" fill="#000000">lwip/arch.h</text>
</a>
</g>
</g>
<!-- Node16&#45;&gt;Node17 -->
<g id="edge21" class="edge">
<title>Node16&#45;&gt;Node17</title>
<path fill="none" stroke="#191970" d="M661.3872,-280.2455C659.4084,-272.8579 656.6256,-262.4689 654.1988,-253.4087"/>
<polygon fill="#191970" stroke="#191970" points="657.5511,-252.3966 651.5829,-243.6427 650.7895,-254.2078 657.5511,-252.3966"/>
</g>
<!-- Node18 -->
<g id="node19" class="node">
<title>Node18</title>
<g id="a_node19"><a xlink:href="cc_8h.html" target="_top" xlink:title="arch/cc.h">
<polygon fill="#ffffff" stroke="#000000" points="620.5,-168.5 620.5,-187.5 677.5,-187.5 677.5,-168.5 620.5,-168.5"/>
<text text-anchor="middle" x="649" y="-175.5" font-family="Helvetica,sans-Serif" font-size="10.00" fill="#000000">arch/cc.h</text>
</a>
</g>
</g>
<!-- Node17&#45;&gt;Node18 -->
<g id="edge22" class="edge">
<title>Node17&#45;&gt;Node18</title>
<path fill="none" stroke="#191970" d="M649,-224.2455C649,-216.9382 649,-206.6944 649,-197.7046"/>
<polygon fill="#191970" stroke="#191970" points="652.5001,-197.6426 649,-187.6427 645.5001,-197.6427 652.5001,-197.6426"/>
</g>
<!-- Node18&#45;&gt;Node1 -->
<g id="edge24" class="edge">
<title>Node18&#45;&gt;Node1</title>
<path fill="none" stroke="#191970" d="M667.1154,-168.2455C683.445,-159.4527 707.671,-146.4079 726.2339,-136.4125"/>
<polygon fill="#191970" stroke="#191970" points="727.9468,-139.4654 735.0922,-131.6427 724.6281,-133.3021 727.9468,-139.4654"/>
</g>
<!-- Node18&#45;&gt;Node2 -->
<g id="edge23" class="edge">
<title>Node18&#45;&gt;Node2</title>
<path fill="none" stroke="#191970" d="M649,-168.4509C649,-150.184 649,-109.9553 649,-85.6976"/>
<polygon fill="#191970" stroke="#191970" points="652.5001,-85.5249 649,-75.5249 645.5001,-85.5249 652.5001,-85.5249"/>
</g>
<!-- Node18&#45;&gt;Node6 -->
<g id="edge25" class="edge">
<title>Node18&#45;&gt;Node6</title>
<path fill="none" stroke="#191970" d="M620.3795,-175.6031C547.4792,-169.4036 348.9003,-151.9255 184,-132 172.4295,-130.6019 159.8138,-128.8655 148.5193,-127.2339"/>
<polygon fill="#191970" stroke="#191970" points="148.9882,-123.7653 138.5862,-125.7778 147.9728,-130.6913 148.9882,-123.7653"/>
</g>
<!-- Node19&#45;&gt;Node14 -->
<g id="edge28" class="edge">
<title>Node19&#45;&gt;Node14</title>
<path fill="none" stroke="#191970" d="M531.1028,-392.2455C539.5028,-384.1352 551.6494,-372.4075 561.6084,-362.7919"/>
<polygon fill="#191970" stroke="#191970" points="564.25,-365.1066 569.0129,-355.6427 559.3878,-360.0707 564.25,-365.1066"/>
</g>
<!-- Node19&#45;&gt;Node17 -->
<g id="edge27" class="edge">
<title>Node19&#45;&gt;Node17</title>
<path fill="none" stroke="#191970" d="M519.5821,-392.2283C516.8926,-369.8011 513.482,-313.9589 540,-280 556.2426,-259.1997 583.6383,-247.6912 606.9001,-241.387"/>
<polygon fill="#191970" stroke="#191970" points="608.0363,-244.7117 616.906,-238.917 606.3586,-237.9157 608.0363,-244.7117"/>
</g>
<!-- Node24 -->
<g id="node25" class="node">
<title>Node24</title>
<g id="a_node25"><a xlink:href="mqtt_8h.html" target="_top" xlink:title="mqtt.h">
<polygon fill="#ffffff" stroke="#000000" points="752,-728.5 752,-747.5 796,-747.5 796,-728.5 752,-728.5"/>
<text text-anchor="middle" x="774" y="-735.5" font-family="Helvetica,sans-Serif" font-size="10.00" fill="#000000">mqtt.h</text>
</a>
</g>
</g>
<!-- Node23&#45;&gt;Node24 -->
<g id="edge34" class="edge">
<title>Node23&#45;&gt;Node24</title>
<path fill="none" stroke="#191970" d="M782.2581,-784.2455C780.9533,-776.9382 779.124,-766.6944 777.5187,-757.7046"/>
<polygon fill="#191970" stroke="#191970" points="780.9254,-756.8717 775.7219,-747.6427 774.0344,-758.1022 780.9254,-756.8717"/>
</g>
<!-- Node24&#45;&gt;Node11 -->
<g id="edge38" class="edge">
<title>Node24&#45;&gt;Node11</title>
<path fill="none" stroke="#191970" d="M783.6298,-728.4614C795.1027,-715.8902 811.9056,-692.9168 805,-672 785.3048,-612.3444 732.9883,-557.2638 704.7317,-530.6841"/>
<polygon fill="#191970" stroke="#191970" points="706.8466,-527.8734 697.1217,-523.669 702.1021,-533.0203 706.8466,-527.8734"/>
</g>
<!-- Node25 -->
<g id="node26" class="node">
<title>Node25</title>
<g id="a_node26"><a xlink:href="mqtt__msg_8h.html" target="_top" xlink:title="mqtt_msg.h">
<polygon fill="#ffffff" stroke="#000000" points="192.5,-112.5 192.5,-131.5 261.5,-131.5 261.5,-112.5 192.5,-112.5"/>
<text text-anchor="middle" x="227" y="-119.5" font-family="Helvetica,sans-Serif" font-size="10.00" fill="#000000">mqtt_msg.h</text>
</a>
</g>
</g>
<!-- Node24&#45;&gt;Node25 -->
<g id="edge35" class="edge">
<title>Node24&#45;&gt;Node25</title>
<path fill="none" stroke="#191970" d="M751.973,-737.0319C629.5116,-731.3653 38,-700.1565 38,-626 38,-626 38,-626 38,-570 38,-493.4471 76,-478.5529 76,-402 76,-402 76,-402 76,-234 76,-180.4421 138.0384,-149.5277 182.5849,-134.2331"/>
<polygon fill="#191970" stroke="#191970" points="183.9463,-137.4701 192.3575,-131.0279 181.7648,-130.8187 183.9463,-137.4701"/>
</g>
<!-- Node26 -->
<g id="node27" class="node">
<title>Node26</title>
<g id="a_node27"><a xlink:href="kamstrup-wifi_2mqtt_2include_2queue_8h.html" target="_top" xlink:title="queue.h">
<polygon fill="#ffffff" stroke="#000000" points="742.5,-672.5 742.5,-691.5 795.5,-691.5 795.5,-672.5 742.5,-672.5"/>
<text text-anchor="middle" x="769" y="-679.5" font-family="Helvetica,sans-Serif" font-size="10.00" fill="#000000">queue.h</text>
</a>
</g>
</g>
<!-- Node24&#45;&gt;Node26 -->
<g id="edge39" class="edge">
<title>Node24&#45;&gt;Node26</title>
<path fill="none" stroke="#191970" d="M773.1291,-728.2455C772.4766,-720.9382 771.562,-710.6944 770.7593,-701.7046"/>
<polygon fill="#191970" stroke="#191970" points="774.2365,-701.2918 769.861,-691.6427 767.2642,-701.9143 774.2365,-701.2918"/>
</g>
<!-- Node25&#45;&gt;Node2 -->
<g id="edge37" class="edge">
<title>Node25&#45;&gt;Node2</title>
<path fill="none" stroke="#191970" d="M261.534,-117.4173C339.2144,-107.109 527.3251,-82.1464 609.4926,-71.2427"/>
<polygon fill="#191970" stroke="#191970" points="609.9846,-74.7082 619.4372,-69.923 609.0637,-67.769 609.9846,-74.7082"/>
</g>
<!-- Node25&#45;&gt;Node8 -->
<g id="edge36" class="edge">
<title>Node25&#45;&gt;Node8</title>
<path fill="none" stroke="#191970" d="M227,-112.2455C227,-104.9382 227,-94.6944 227,-85.7046"/>
<polygon fill="#191970" stroke="#191970" points="230.5001,-85.6426 227,-75.6427 223.5001,-85.6427 230.5001,-85.6426"/>
</g>
<!-- Node26&#45;&gt;Node12 -->
<g id="edge40" class="edge">
<title>Node26&#45;&gt;Node12</title>
<path fill="none" stroke="#191970" d="M770.5039,-672.375C775.8104,-638.4133 793.727,-523.7472 800.947,-477.5392"/>
<polygon fill="#191970" stroke="#191970" points="804.4159,-478.0096 802.5017,-467.5891 797.4998,-476.9289 804.4159,-478.0096"/>
</g>
<!-- Node27 -->
<g id="node28" class="node">
<title>Node27</title>
<g id="a_node28"><a xlink:href="ringbuf_8h.html" target="_top" xlink:title="ringbuf.h">
<polygon fill="#ffffff" stroke="#000000" points="531.5,-616.5 531.5,-635.5 586.5,-635.5 586.5,-616.5 531.5,-616.5"/>
<text text-anchor="middle" x="559" y="-623.5" font-family="Helvetica,sans-Serif" font-size="10.00" fill="#000000">ringbuf.h</text>
</a>
</g>
</g>
<!-- Node26&#45;&gt;Node27 -->
<g id="edge41" class="edge">
<title>Node26&#45;&gt;Node27</title>
<path fill="none" stroke="#191970" d="M742.4034,-674.9076C705.4937,-665.065 638.5541,-647.2144 596.5613,-636.0164"/>
<polygon fill="#191970" stroke="#191970" points="597.2779,-632.5852 586.7137,-633.3903 595.4742,-639.3488 597.2779,-632.5852"/>
</g>
<!-- Node28 -->
<g id="node29" class="node">
<title>Node28</title>
<g id="a_node29"><a xlink:href="esp8266_8h.html" target="_top" xlink:title="esp8266.h">
<polygon fill="#ffffff" stroke="#000000" points="371.5,-560.5 371.5,-579.5 434.5,-579.5 434.5,-560.5 371.5,-560.5"/>
<text text-anchor="middle" x="403" y="-567.5" font-family="Helvetica,sans-Serif" font-size="10.00" fill="#000000">esp8266.h</text>
</a>
</g>
</g>
<!-- Node27&#45;&gt;Node28 -->
<g id="edge42" class="edge">
<title>Node27&#45;&gt;Node28</title>
<path fill="none" stroke="#191970" d="M532.1826,-616.3733C506.4668,-607.1419 467.462,-593.1402 439.0401,-582.9375"/>
<polygon fill="#191970" stroke="#191970" points="440.0619,-579.5857 429.4674,-579.5011 437.6968,-586.174 440.0619,-579.5857"/>
</g>
<!-- Node35 -->
<g id="node36" class="node">
<title>Node35</title>
<g id="a_node36"><a xlink:href="typedef_8h.html" target="_top" xlink:title="typedef.h">
<polygon fill="#ffffff" stroke="#000000" points="530,-560.5 530,-579.5 588,-579.5 588,-560.5 530,-560.5"/>
<text text-anchor="middle" x="559" y="-567.5" font-family="Helvetica,sans-Serif" font-size="10.00" fill="#000000">typedef.h</text>
</a>
</g>
</g>
<!-- Node27&#45;&gt;Node35 -->
<g id="edge55" class="edge">
<title>Node27&#45;&gt;Node35</title>
<path fill="none" stroke="#191970" d="M559,-616.2455C559,-608.9382 559,-598.6944 559,-589.7046"/>
<polygon fill="#191970" stroke="#191970" points="562.5001,-589.6426 559,-579.6427 555.5001,-589.6427 562.5001,-589.6426"/>
</g>
<!-- Node28&#45;&gt;Node1 -->
<g id="edge48" class="edge">
<title>Node28&#45;&gt;Node1</title>
<path fill="none" stroke="#191970" d="M434.6719,-566.7574C516.3861,-558.247 728.6849,-535.1611 739,-524 775.8625,-484.1141 746,-456.3114 746,-402 746,-402 746,-402 746,-234 746,-201.6486 748.9452,-164.1429 751.0149,-141.7814"/>
<polygon fill="#191970" stroke="#191970" points="754.5229,-141.8651 751.9971,-131.5758 747.5551,-141.1945 754.5229,-141.8651"/>
</g>
<!-- Node28&#45;&gt;Node2 -->
<g id="edge47" class="edge">
<title>Node28&#45;&gt;Node2</title>
<path fill="none" stroke="#191970" d="M392.2184,-560.3474C374.5889,-543.6551 340.5922,-507.3822 331,-468 317.449,-412.3645 257.1518,-436.1973 348,-280 409.9382,-173.5083 548.4566,-106.3214 613.7133,-79.427"/>
<polygon fill="#191970" stroke="#191970" points="615.2061,-82.5988 623.1636,-75.6039 612.5809,-76.1097 615.2061,-82.5988"/>
</g>
<!-- Node28&#45;&gt;Node6 -->
<g id="edge51" class="edge">
<title>Node28&#45;&gt;Node6</title>
<path fill="none" stroke="#191970" d="M371.182,-568.7229C307.5517,-565.525 167.7364,-555.0627 133,-524 110.2462,-503.6526 114,-488.5246 114,-458 114,-458 114,-458 114,-234 114,-201.7116 114,-164.1872 114,-141.8048"/>
<polygon fill="#191970" stroke="#191970" points="117.5001,-141.5883 114,-131.5884 110.5001,-141.5884 117.5001,-141.5883"/>
</g>
<!-- Node28&#45;&gt;Node7 -->
<g id="edge46" class="edge">
<title>Node28&#45;&gt;Node7</title>
<path fill="none" stroke="#191970" d="M371.3013,-568.2845C305.1211,-564.18 154.9253,-551.9776 113,-524 60.057,-488.6701 38,-465.6487 38,-402 38,-402 38,-402 38,-290 38,-214.338 48.8959,-124.813 54.1853,-85.8112"/>
<polygon fill="#191970" stroke="#191970" points="57.6667,-86.1858 55.5719,-75.8002 50.7329,-85.2254 57.6667,-86.1858"/>
</g>
<!-- Node28&#45;&gt;Node11 -->
<g id="edge52" class="edge">
<title>Node28&#45;&gt;Node11</title>
<path fill="none" stroke="#191970" d="M434.6399,-563.7391C482.2625,-554.3155 572.9953,-536.3613 631.4325,-524.7978"/>
<polygon fill="#191970" stroke="#191970" points="632.4625,-528.1619 641.5929,-522.7873 631.1036,-521.2951 632.4625,-528.1619"/>
</g>
<!-- Node28&#45;&gt;Node22 -->
<g id="edge49" class="edge">
<title>Node28&#45;&gt;Node22</title>
<path fill="none" stroke="#191970" d="M393.7711,-560.2852C386.0397,-551.5272 375.4227,-537.9206 370,-524 364.2393,-509.2119 362.359,-491.2693 361.8525,-477.8271"/>
<polygon fill="#191970" stroke="#191970" points="365.3512,-477.7061 361.6952,-467.7621 358.352,-477.8156 365.3512,-477.7061"/>
</g>
<!-- Node29 -->
<g id="node30" class="node">
<title>Node29</title>
<polygon fill="#ffffff" stroke="#bfbfbf" points="378.5,-504.5 378.5,-523.5 427.5,-523.5 427.5,-504.5 378.5,-504.5"/>
<text text-anchor="middle" x="403" y="-511.5" font-family="Helvetica,sans-Serif" font-size="10.00" fill="#000000">ctype.h</text>
</g>
<!-- Node28&#45;&gt;Node29 -->
<g id="edge43" class="edge">
<title>Node28&#45;&gt;Node29</title>
<path fill="none" stroke="#191970" d="M403,-560.2455C403,-552.9382 403,-542.6944 403,-533.7046"/>
<polygon fill="#191970" stroke="#191970" points="406.5001,-533.6426 403,-523.6427 399.5001,-533.6427 406.5001,-533.6426"/>
</g>
<!-- Node30 -->
<g id="node31" class="node">
<title>Node30</title>
<polygon fill="#ffffff" stroke="#bfbfbf" points="446,-504.5 446,-523.5 492,-523.5 492,-504.5 446,-504.5"/>
<text text-anchor="middle" x="469" y="-511.5" font-family="Helvetica,sans-Serif" font-size="10.00" fill="#000000">stdio.h</text>
</g>
<!-- Node28&#45;&gt;Node30 -->
<g id="edge44" class="edge">
<title>Node28&#45;&gt;Node30</title>
<path fill="none" stroke="#191970" d="M414.4963,-560.2455C424.2442,-551.9746 438.4259,-539.9416 449.8798,-530.2232"/>
<polygon fill="#191970" stroke="#191970" points="452.2747,-532.7813 457.6354,-523.6427 447.7459,-527.4437 452.2747,-532.7813"/>
</g>
<!-- Node31 -->
<g id="node32" class="node">
<title>Node31</title>
<polygon fill="#ffffff" stroke="#bfbfbf" points="510,-504.5 510,-523.5 558,-523.5 558,-504.5 510,-504.5"/>
<text text-anchor="middle" x="534" y="-511.5" font-family="Helvetica,sans-Serif" font-size="10.00" fill="#000000">stdlib.h</text>
</g>
<!-- Node28&#45;&gt;Node31 -->
<g id="edge45" class="edge">
<title>Node28&#45;&gt;Node31</title>
<path fill="none" stroke="#191970" d="M425.5197,-560.3733C446.7372,-551.3032 478.7276,-537.6279 502.4769,-527.4755"/>
<polygon fill="#191970" stroke="#191970" points="503.9548,-530.6502 511.7742,-523.5011 501.2033,-524.2136 503.9548,-530.6502"/>
</g>
<!-- Node32 -->
<g id="node33" class="node">
<title>Node32</title>
<g id="a_node33"><a xlink:href="sdk_2include_2mem_8h.html" target="_top" xlink:title="mem.h">
<polygon fill="#ffffff" stroke="#000000" points="576.5,-504.5 576.5,-523.5 623.5,-523.5 623.5,-504.5 576.5,-504.5"/>
<text text-anchor="middle" x="600" y="-511.5" font-family="Helvetica,sans-Serif" font-size="10.00" fill="#000000">mem.h</text>
</a>
</g>
</g>
<!-- Node28&#45;&gt;Node32 -->
<g id="edge50" class="edge">
<title>Node28&#45;&gt;Node32</title>
<path fill="none" stroke="#191970" d="M434.8019,-561.2905C465.9449,-552.7151 514.9805,-539.0901 566.5664,-524.0858"/>
<polygon fill="#191970" stroke="#191970" points="567.6044,-527.429 576.2245,-521.269 565.6445,-520.7089 567.6044,-527.429"/>
</g>
<!-- Node33 -->
<g id="node34" class="node">
<title>Node33</title>
<g id="a_node34"><a xlink:href="upgrade_8h.html" target="_top" xlink:title="upgrade.h">
<polygon fill="#ffffff" stroke="#000000" points="142,-504.5 142,-523.5 204,-523.5 204,-504.5 142,-504.5"/>
<text text-anchor="middle" x="173" y="-511.5" font-family="Helvetica,sans-Serif" font-size="10.00" fill="#000000">upgrade.h</text>
</a>
</g>
</g>
<!-- Node28&#45;&gt;Node33 -->
<g id="edge53" class="edge">
<title>Node28&#45;&gt;Node33</title>
<path fill="none" stroke="#191970" d="M371.2302,-562.2727C335.5809,-553.6006 275.756,-539.0444 214.2253,-524.054"/>
<polygon fill="#191970" stroke="#191970" points="214.8832,-520.612 204.3388,-521.6453 213.2261,-527.413 214.8832,-520.612"/>
</g>
<!-- Node34 -->
<g id="node35" class="node">
<title>Node34</title>
<g id="a_node35"><a xlink:href="platform_8h.html" target="_top" xlink:title="platform.h">
<polygon fill="#ffffff" stroke="#000000" points="222.5,-504.5 222.5,-523.5 283.5,-523.5 283.5,-504.5 222.5,-504.5"/>
<text text-anchor="middle" x="253" y="-511.5" font-family="Helvetica,sans-Serif" font-size="10.00" fill="#000000">platform.h</text>
</a>
</g>
</g>
<!-- Node28&#45;&gt;Node34 -->
<g id="edge54" class="edge">
<title>Node28&#45;&gt;Node34</title>
<path fill="none" stroke="#191970" d="M377.2141,-560.3733C352.5953,-551.1822 315.31,-537.2624 288.0125,-527.0713"/>
<polygon fill="#191970" stroke="#191970" points="289.042,-523.7198 278.4494,-523.5011 286.5937,-530.2777 289.042,-523.7198"/>
</g>
</g>
</svg>
