<?xml version="1.0" encoding="UTF-8" standalone="no"?>
<!DOCTYPE svg PUBLIC "-//W3C//DTD SVG 1.1//EN"
 "http://www.w3.org/Graphics/SVG/1.1/DTD/svg11.dtd">
<!-- Generated by graphviz version 2.41.20170323.1842 (20170323.1842)
 -->
<!-- Title: include/driver/uart.h Pages: 1 -->
<svg width="492pt" height="95pt"
 viewBox="0.00 0.00 492.00 95.00" xmlns="http://www.w3.org/2000/svg" xmlns:xlink="http://www.w3.org/1999/xlink">
<g id="graph0" class="graph" transform="scale(1 1) rotate(0) translate(4 91)">
<title>include/driver/uart.h</title>
<polygon fill="#ffffff" stroke="transparent" points="-4,4 -4,-91 488,-91 488,4 -4,4"/>
<!-- Node4 -->
<g id="node1" class="node">
<title>Node4</title>
<polygon fill="#bfbfbf" stroke="#000000" points="170.5,-67.5 170.5,-86.5 274.5,-86.5 274.5,-67.5 170.5,-67.5"/>
<text text-anchor="middle" x="222.5" y="-74.5" font-family="Helvetica,sans-Serif" font-size="10.00" fill="#000000">include/driver/uart.h</text>
</g>
<!-- Node5 -->
<g id="node2" class="node">
<title>Node5</title>
<g id="a_node2"><a xlink:href="uart_8c.html" target="_top" xlink:title="driver/uart.c">
<polygon fill="#ffffff" stroke="#000000" points="0,-6 0,-25 69,-25 69,-6 0,-6"/>
<text text-anchor="middle" x="34.5" y="-13" font-family="Helvetica,sans-Serif" font-size="10.00" fill="#000000">driver/uart.c</text>
</a>
</g>
</g>
<!-- Node4&#45;&gt;Node5 -->
<g id="edge1" class="edge">
<title>Node4&#45;&gt;Node5</title>
<path fill="none" stroke="#191970" d="M181.4532,-64.4435C152.3427,-55.425 112.4064,-42.8232 77.5,-31 71.9381,-29.1161 65.9988,-27.0262 60.3649,-25.0068"/>
<polygon fill="#191970" stroke="#191970" points="180.6849,-67.8693 191.2725,-67.4768 182.751,-61.1811 180.6849,-67.8693"/>
</g>
<!-- Node6 -->
<g id="node3" class="node">
<title>Node6</title>
<g id="a_node3"><a xlink:href="en61107__request_8c.html" target="_top" xlink:title="user/en61107/en61107\l_request.c">
<polygon fill="#ffffff" stroke="#000000" points="87,-.5 87,-30.5 206,-30.5 206,-.5 87,-.5"/>
<text text-anchor="start" x="95" y="-18.5" font-family="Helvetica,sans-Serif" font-size="10.00" fill="#000000">user/en61107/en61107</text>
<text text-anchor="middle" x="146.5" y="-7.5" font-family="Helvetica,sans-Serif" font-size="10.00" fill="#000000">_request.c</text>
</a>
</g>
</g>
<!-- Node4&#45;&gt;Node6 -->
<g id="edge2" class="edge">
<title>Node4&#45;&gt;Node6</title>
<path fill="none" stroke="#191970" d="M202.7752,-61.0385C191.1455,-51.6276 176.5183,-39.7911 165.0917,-30.5446"/>
<polygon fill="#191970" stroke="#191970" points="200.6496,-63.8209 210.625,-67.3906 205.053,-58.3793 200.6496,-63.8209"/>
</g>
<!-- Node7 -->
<g id="node4" class="node">
<title>Node7</title>
<g id="a_node4"><a xlink:href="kmp__request_8c.html" target="_top" xlink:title="user/kamstrup/kmp_request.c">
<polygon fill="#ffffff" stroke="#000000" points="224.5,-6 224.5,-25 372.5,-25 372.5,-6 224.5,-6"/>
<text text-anchor="middle" x="298.5" y="-13" font-family="Helvetica,sans-Serif" font-size="10.00" fill="#000000">user/kamstrup/kmp_request.c</text>
</a>
</g>
</g>
<!-- Node4&#45;&gt;Node7 -->
<g id="edge3" class="edge">
<title>Node4&#45;&gt;Node7</title>
<path fill="none" stroke="#191970" d="M242.434,-60.8692C256.4125,-49.5576 274.6419,-34.8062 286.4576,-25.2449"/>
<polygon fill="#191970" stroke="#191970" points="239.947,-58.3793 234.375,-67.3906 244.3504,-63.8209 239.947,-58.3793"/>
</g>
<!-- Node8 -->
<g id="node5" class="node">
<title>Node8</title>
<g id="a_node5"><a xlink:href="user__main_8c.html" target="_top" xlink:title="user/user_main.c">
<polygon fill="#ffffff" stroke="#000000" points="391,-6 391,-25 484,-25 484,-6 391,-6"/>
<text text-anchor="middle" x="437.5" y="-13" font-family="Helvetica,sans-Serif" font-size="10.00" fill="#000000">user/user_main.c</text>
</a>
</g>
</g>
<!-- Node4&#45;&gt;Node8 -->
<g id="edge4" class="edge">
<title>Node4&#45;&gt;Node8</title>
<path fill="none" stroke="#191970" d="M265.7695,-64.6229C306.5914,-52.9459 366.925,-35.6877 404.1421,-25.0419"/>
<polygon fill="#191970" stroke="#191970" points="264.7456,-61.2753 256.0938,-67.3906 266.6707,-68.0054 264.7456,-61.2753"/>
</g>
</g>
</svg>
