<?xml version="1.0" encoding="UTF-8" standalone="no"?>
<!DOCTYPE svg PUBLIC "-//W3C//DTD SVG 1.1//EN"
 "http://www.w3.org/Graphics/SVG/1.1/DTD/svg11.dtd">
<!-- Generated by graphviz version 2.41.20170323.1842 (20170323.1842)
 -->
<!-- Title: uart_set_baudrate Pages: 1 -->
<svg width="1283pt" height="377pt"
 viewBox="0.00 0.00 1283.00 376.52" xmlns="http://www.w3.org/2000/svg" xmlns:xlink="http://www.w3.org/1999/xlink">
<g id="graph0" class="graph" transform="scale(1 1) rotate(0) translate(4 372.523)">
<title>uart_set_baudrate</title>
<polygon fill="#ffffff" stroke="transparent" points="-4,4 -4,-372.523 1279,-372.523 1279,4 -4,4"/>
<!-- Node60 -->
<g id="node1" class="node">
<title>Node60</title>
<polygon fill="#bfbfbf" stroke="#000000" points="0,-148.023 0,-167.023 98,-167.023 98,-148.023 0,-148.023"/>
<text text-anchor="middle" x="49" y="-155.023" font-family="Helvetica,sans-Serif" font-size="10.00" fill="#000000">uart_set_baudrate</text>
</g>
<!-- Node61 -->
<g id="node2" class="node">
<title>Node61</title>
<g id="a_node2"><a xlink:href="en61107__request_8h.html#a8376fb3e6dfde4cc59e5fa0574a6e499" target="_top" xlink:title="en61107_delayed_uart\l_change_setting_timer_func">
<polygon fill="#ffffff" stroke="#000000" points="134,-164.523 134,-194.523 276,-194.523 276,-164.523 134,-164.523"/>
<text text-anchor="start" x="142" y="-182.523" font-family="Helvetica,sans-Serif" font-size="10.00" fill="#000000">en61107_delayed_uart</text>
<text text-anchor="middle" x="205" y="-171.523" font-family="Helvetica,sans-Serif" font-size="10.00" fill="#000000">_change_setting_timer_func</text>
</a>
</g>
</g>
<!-- Node60&#45;&gt;Node61 -->
<g id="edge1" class="edge">
<title>Node60&#45;&gt;Node61</title>
<path fill="none" stroke="#191970" d="M108.3167,-165.8882C116.6246,-167.0598 125.2329,-168.2738 133.7338,-169.4726"/>
<polygon fill="#191970" stroke="#191970" points="108.7502,-162.4148 98.3594,-164.4839 107.7726,-169.3462 108.7502,-162.4148"/>
</g>
<!-- Node62 -->
<g id="node3" class="node">
<title>Node62</title>
<g id="a_node3"><a xlink:href="en61107__request_8h.html#a353102f2f89ad4ed996501752c0ac59c" target="_top" xlink:title="en61107_uart_send_en61107\l_ident">
<polygon fill="#ffffff" stroke="#000000" points="312,-142.523 312,-172.523 462,-172.523 462,-142.523 312,-142.523"/>
<text text-anchor="start" x="320" y="-160.523" font-family="Helvetica,sans-Serif" font-size="10.00" fill="#000000">en61107_uart_send_en61107</text>
<text text-anchor="middle" x="387" y="-149.523" font-family="Helvetica,sans-Serif" font-size="10.00" fill="#000000">_ident</text>
</a>
</g>
</g>
<!-- Node60&#45;&gt;Node62 -->
<g id="edge25" class="edge">
<title>Node60&#45;&gt;Node62</title>
<path fill="none" stroke="#191970" d="M108.6899,-155.1502C117.1845,-154.8901 125.813,-154.6674 134,-154.523 197.1013,-153.4098 212.8946,-153.6704 276,-154.523 287.5657,-154.6793 299.8073,-154.9271 311.7728,-155.2149"/>
<polygon fill="#191970" stroke="#191970" points="108.3145,-151.6605 98.4335,-155.4835 108.5419,-158.6568 108.3145,-151.6605"/>
</g>
<!-- Node64 -->
<g id="node5" class="node">
<title>Node64</title>
<g id="a_node5"><a xlink:href="en61107__request_8h.html#a8b6b61143d95d3af3813f8be1aaf3447" target="_top" xlink:title="en61107_uart_send_en61107">
<polygon fill="#ffffff" stroke="#000000" points="817,-81.023 817,-100.023 967,-100.023 967,-81.023 817,-81.023"/>
<text text-anchor="middle" x="892" y="-88.023" font-family="Helvetica,sans-Serif" font-size="10.00" fill="#000000">en61107_uart_send_en61107</text>
</a>
</g>
</g>
<!-- Node60&#45;&gt;Node64 -->
<g id="edge24" class="edge">
<title>Node60&#45;&gt;Node64</title>
<path fill="none" stroke="#191970" d="M103.3157,-145.9101C156.3172,-134.9817 239.3521,-118.9292 312,-109.523 460.9793,-90.2336 498.8884,-89.3051 649,-83.523 707.6232,-81.2649 722.3624,-81.6759 781,-83.523 792.5797,-83.8878 804.8289,-84.4661 816.7975,-85.1378"/>
<polygon fill="#191970" stroke="#191970" points="102.5336,-142.4978 93.453,-147.9561 103.9555,-149.3519 102.5336,-142.4978"/>
</g>
<!-- Node67 -->
<g id="node8" class="node">
<title>Node67</title>
<g id="a_node8"><a xlink:href="en61107__request_8h.html#afdb1795bdd4212fc7e028a9e5668fab4" target="_top" xlink:title="en61107_uart_send_standard\l_data_1">
<polygon fill="#ffffff" stroke="#000000" points="817,-168.523 817,-198.523 967,-198.523 967,-168.523 817,-168.523"/>
<text text-anchor="start" x="825" y="-186.523" font-family="Helvetica,sans-Serif" font-size="10.00" fill="#000000">en61107_uart_send_standard</text>
<text text-anchor="middle" x="892" y="-175.523" font-family="Helvetica,sans-Serif" font-size="10.00" fill="#000000">_data_1</text>
</a>
</g>
</g>
<!-- Node60&#45;&gt;Node67 -->
<g id="edge27" class="edge">
<title>Node60&#45;&gt;Node67</title>
<path fill="none" stroke="#191970" d="M72.7905,-172.5224C89.4153,-182.4658 112.4158,-195.1714 134,-203.523 210.0013,-232.9302 231.9836,-232.0837 312,-247.523 516.774,-287.0345 600.8825,-367.6478 781,-262.523 806.2321,-247.7964 793.7505,-225.2145 817,-207.523 821.4606,-204.1287 826.4162,-201.2061 831.5938,-198.691"/>
<polygon fill="#191970" stroke="#191970" points="74.1581,-169.2572 63.7977,-167.0409 70.5148,-175.2343 74.1581,-169.2572"/>
</g>
<!-- Node68 -->
<g id="node9" class="node">
<title>Node68</title>
<g id="a_node9"><a xlink:href="en61107__request_8h.html#a10b80328698f459ae2251fe146cdc375" target="_top" xlink:title="en61107_uart_send_standard\l_data_2">
<polygon fill="#ffffff" stroke="#000000" points="817,-119.523 817,-149.523 967,-149.523 967,-119.523 817,-119.523"/>
<text text-anchor="start" x="825" y="-137.523" font-family="Helvetica,sans-Serif" font-size="10.00" fill="#000000">en61107_uart_send_standard</text>
<text text-anchor="middle" x="892" y="-126.523" font-family="Helvetica,sans-Serif" font-size="10.00" fill="#000000">_data_2</text>
</a>
</g>
</g>
<!-- Node60&#45;&gt;Node68 -->
<g id="edge28" class="edge">
<title>Node60&#45;&gt;Node68</title>
<path fill="none" stroke="#191970" d="M54.3757,-138.1046C64.2329,-106.7284 88.49,-45.8447 134,-20.523 257.2661,48.062 696.2023,-75.1271 843.4452,-119.4994"/>
<polygon fill="#191970" stroke="#191970" points="50.9687,-137.2829 51.4784,-147.8655 57.6794,-139.2748 50.9687,-137.2829"/>
</g>
<!-- Node69 -->
<g id="node10" class="node">
<title>Node69</title>
<g id="a_node10"><a xlink:href="en61107__request_8h.html#a74c2d949e6bb3b65cdf794a0643dd67d" target="_top" xlink:title="en61107_uart_send_inst\l_values">
<polygon fill="#ffffff" stroke="#000000" points="828.5,-217.523 828.5,-247.523 955.5,-247.523 955.5,-217.523 828.5,-217.523"/>
<text text-anchor="start" x="836.5" y="-235.523" font-family="Helvetica,sans-Serif" font-size="10.00" fill="#000000">en61107_uart_send_inst</text>
<text text-anchor="middle" x="892" y="-224.523" font-family="Helvetica,sans-Serif" font-size="10.00" fill="#000000">_values</text>
</a>
</g>
</g>
<!-- Node60&#45;&gt;Node69 -->
<g id="edge26" class="edge">
<title>Node60&#45;&gt;Node69</title>
<path fill="none" stroke="#191970" d="M63.2493,-174.9302C106.3196,-225.4482 241.1739,-368.523 387,-368.523 387,-368.523 387,-368.523 555.5,-368.523 683.4125,-368.523 820.0548,-283.0063 871.1506,-247.597"/>
<polygon fill="#191970" stroke="#191970" points="65.8201,-172.5489 56.7114,-167.1375 60.4574,-177.048 65.8201,-172.5489"/>
</g>
<!-- Node61&#45;&gt;Node62 -->
<g id="edge2" class="edge">
<title>Node61&#45;&gt;Node62</title>
<path fill="none" stroke="#191970" d="M286.1659,-169.7117C294.762,-168.6726 303.4765,-167.6192 311.9978,-166.5892"/>
<polygon fill="#191970" stroke="#191970" points="285.6556,-166.2479 276.1479,-170.9227 286.4957,-173.1973 285.6556,-166.2479"/>
</g>
<!-- Node61&#45;&gt;Node64 -->
<g id="edge20" class="edge">
<title>Node61&#45;&gt;Node64</title>
<path fill="none" stroke="#191970" d="M241.3775,-159.8271C261.583,-149.8516 287.5192,-138.594 312,-132.523 488.8719,-88.6609 704.6652,-85.7716 816.5654,-87.8823"/>
<polygon fill="#191970" stroke="#191970" points="239.5849,-156.8114 232.2374,-164.4444 242.7413,-163.0594 239.5849,-156.8114"/>
</g>
<!-- Node61&#45;&gt;Node67 -->
<g id="edge21" class="edge">
<title>Node61&#45;&gt;Node67</title>
<path fill="none" stroke="#191970" d="M254.8122,-197.9843C356.6997,-232.8364 594.9893,-299.3447 781,-235.523 800.1726,-228.9447 799.0714,-216.9796 817,-207.523 823.288,-204.2064 830.1159,-201.2469 837.0051,-198.6363"/>
<polygon fill="#191970" stroke="#191970" points="255.6893,-194.584 245.0945,-194.6139 253.3955,-201.1976 255.6893,-194.584"/>
</g>
<!-- Node61&#45;&gt;Node68 -->
<g id="edge22" class="edge">
<title>Node61&#45;&gt;Node68</title>
<path fill="none" stroke="#191970" d="M240.1047,-159.6851C260.4146,-149.3545 286.8597,-137.8011 312,-132.523 489.8767,-95.1786 705.2578,-111.4899 816.8276,-124.3592"/>
<polygon fill="#191970" stroke="#191970" points="238.4756,-156.5873 231.2315,-164.3186 241.7158,-162.7922 238.4756,-156.5873"/>
</g>
<!-- Node61&#45;&gt;Node69 -->
<g id="edge23" class="edge">
<title>Node61&#45;&gt;Node69</title>
<path fill="none" stroke="#191970" d="M231.3798,-200.8522C252.058,-216.3932 282.225,-236.5697 312,-247.523 507.7274,-319.5251 575.2703,-296.7108 781,-262.523 802.1691,-259.0052 825.1326,-253.1517 844.6506,-247.5445"/>
<polygon fill="#191970" stroke="#191970" points="233.4634,-198.0394 223.399,-194.7289 229.2022,-203.593 233.4634,-198.0394"/>
</g>
<!-- Node63 -->
<g id="node4" class="node">
<title>Node63</title>
<g id="a_node4"><a xlink:href="en61107__request_8h.html#a22f1fee248eec0eeacf220c69b878a28" target="_top" xlink:title="en61107_receive_timeout\l_timer_func">
<polygon fill="#ffffff" stroke="#000000" points="649,-157.523 649,-187.523 781,-187.523 781,-157.523 649,-157.523"/>
<text text-anchor="start" x="657" y="-175.523" font-family="Helvetica,sans-Serif" font-size="10.00" fill="#000000">en61107_receive_timeout</text>
<text text-anchor="middle" x="715" y="-164.523" font-family="Helvetica,sans-Serif" font-size="10.00" fill="#000000">_timer_func</text>
</a>
</g>
</g>
<!-- Node62&#45;&gt;Node63 -->
<g id="edge3" class="edge">
<title>Node62&#45;&gt;Node63</title>
<path fill="none" stroke="#191970" d="M472.3548,-155.4199C527.4852,-156.8127 598.1507,-160.2004 648.985,-163.9656"/>
<polygon fill="#191970" stroke="#191970" points="472.329,-151.9184 462.2498,-155.1834 472.1652,-158.9165 472.329,-151.9184"/>
</g>
<!-- Node70 -->
<g id="node11" class="node">
<title>Node70</title>
<g id="a_node11"><a xlink:href="en61107__request_8h.html#a2fa4e9967afddae0c1dedbc914dcee36" target="_top" xlink:title="en61107_meter_wake\l_up_timer_func">
<polygon fill="#ffffff" stroke="#000000" points="498,-195.523 498,-225.523 613,-225.523 613,-195.523 498,-195.523"/>
<text text-anchor="start" x="506" y="-213.523" font-family="Helvetica,sans-Serif" font-size="10.00" fill="#000000">en61107_meter_wake</text>
<text text-anchor="middle" x="555.5" y="-202.523" font-family="Helvetica,sans-Serif" font-size="10.00" fill="#000000">_up_timer_func</text>
</a>
</g>
</g>
<!-- Node62&#45;&gt;Node70 -->
<g id="edge17" class="edge">
<title>Node62&#45;&gt;Node70</title>
<path fill="none" stroke="#191970" d="M444.3968,-175.5766C464.947,-182.0405 487.8778,-189.2531 507.5458,-195.4395"/>
<polygon fill="#191970" stroke="#191970" points="445.4241,-172.2307 434.8346,-172.5689 443.3237,-178.9082 445.4241,-172.2307"/>
</g>
<!-- Node63&#45;&gt;Node62 -->
<g id="edge4" class="edge">
<title>Node63&#45;&gt;Node62</title>
<path fill="none" stroke="#191970" d="M638.94,-174.8451C585.8116,-173.688 515.1993,-170.4523 462.2498,-166.7452"/>
<polygon fill="#191970" stroke="#191970" points="638.9181,-178.3452 648.985,-175.0425 639.0557,-171.3466 638.9181,-178.3452"/>
</g>
<!-- Node63&#45;&gt;Node64 -->
<g id="edge5" class="edge">
<title>Node63&#45;&gt;Node64</title>
<path fill="none" stroke="#191970" d="M743.7129,-151.4787C763.4732,-137.8463 790.7895,-120.6264 817,-109.523 825.7814,-105.803 835.4608,-102.685 844.8647,-100.1211"/>
<polygon fill="#191970" stroke="#191970" points="741.6422,-148.656 735.4649,-157.2637 745.6617,-154.3869 741.6422,-148.656"/>
</g>
<!-- Node63&#45;&gt;Node67 -->
<g id="edge8" class="edge">
<title>Node63&#45;&gt;Node67</title>
<path fill="none" stroke="#191970" d="M791.4108,-170.578C799.8936,-171.0257 808.5275,-171.5669 816.9927,-172.1817"/>
<polygon fill="#191970" stroke="#191970" points="791.3182,-167.0694 781.16,-170.0795 790.9781,-174.0612 791.3182,-167.0694"/>
</g>
<!-- Node63&#45;&gt;Node68 -->
<g id="edge11" class="edge">
<title>Node63&#45;&gt;Node68</title>
<path fill="none" stroke="#191970" d="M767.6882,-154.9787C783.0832,-151.2042 800.2173,-147.3757 816.7235,-144.0015"/>
<polygon fill="#191970" stroke="#191970" points="766.6954,-151.6192 757.8468,-157.446 768.3977,-158.4091 766.6954,-151.6192"/>
</g>
<!-- Node63&#45;&gt;Node69 -->
<g id="edge14" class="edge">
<title>Node63&#45;&gt;Node69</title>
<path fill="none" stroke="#191970" d="M790.6715,-189.6313C799.5432,-192.6009 808.4692,-195.6377 817,-198.523 834.6822,-204.5036 854.7441,-211.1855 869.6668,-217.485"/>
<polygon fill="#191970" stroke="#191970" points="791.6809,-186.2786 781.0874,-186.4455 789.4729,-192.9212 791.6809,-186.2786"/>
</g>
<!-- Node65 -->
<g id="node6" class="node">
<title>Node65</title>
<g id="a_node6"><a xlink:href="en61107__request_8c.html#aa3b162cf5364986ea19e831ac2b18f76" target="_top" xlink:title="en61107_received_task">
<polygon fill="#ffffff" stroke="#000000" points="1003,-149.023 1003,-168.023 1126,-168.023 1126,-149.023 1003,-149.023"/>
<text text-anchor="middle" x="1064.5" y="-156.023" font-family="Helvetica,sans-Serif" font-size="10.00" fill="#000000">en61107_received_task</text>
</a>
</g>
</g>
<!-- Node64&#45;&gt;Node65 -->
<g id="edge6" class="edge">
<title>Node64&#45;&gt;Node65</title>
<path fill="none" stroke="#191970" d="M946.6129,-102.8716C953.5464,-104.8727 960.4889,-107.0952 967,-109.523 996.6436,-120.5763 1029.1029,-138.0606 1048.0894,-148.8816"/>
<polygon fill="#191970" stroke="#191970" points="947.0818,-99.371 936.5121,-100.1003 945.2296,-106.1215 947.0818,-99.371"/>
</g>
<!-- Node66 -->
<g id="node7" class="node">
<title>Node66</title>
<g id="a_node7"><a xlink:href="en61107__request_8h.html#acd43242675a3f25e7c3b530eac9d8b3a" target="_top" xlink:title="en61107_request_init">
<polygon fill="#ffffff" stroke="#000000" points="1162,-149.023 1162,-168.023 1275,-168.023 1275,-149.023 1162,-149.023"/>
<text text-anchor="middle" x="1218.5" y="-156.023" font-family="Helvetica,sans-Serif" font-size="10.00" fill="#000000">en61107_request_init</text>
</a>
</g>
</g>
<!-- Node65&#45;&gt;Node66 -->
<g id="edge7" class="edge">
<title>Node65&#45;&gt;Node66</title>
<path fill="none" stroke="#191970" d="M1136.5049,-158.523C1144.9673,-158.523 1153.5105,-158.523 1161.7234,-158.523"/>
<polygon fill="#191970" stroke="#191970" points="1136.2504,-155.0231 1126.2504,-158.523 1136.2503,-162.0231 1136.2504,-155.0231"/>
</g>
<!-- Node67&#45;&gt;Node63 -->
<g id="edge9" class="edge">
<title>Node67&#45;&gt;Node63</title>
<path fill="none" stroke="#191970" d="M806.8867,-184.9791C798.2441,-184.4644 789.5585,-183.8611 781.16,-183.1897"/>
<polygon fill="#191970" stroke="#191970" points="806.8137,-188.4803 816.9927,-185.5413 807.2026,-181.4911 806.8137,-188.4803"/>
</g>
<!-- Node67&#45;&gt;Node65 -->
<g id="edge10" class="edge">
<title>Node67&#45;&gt;Node65</title>
<path fill="none" stroke="#191970" d="M977.2418,-171.1691C985.8535,-169.921 994.4785,-168.671 1002.7735,-167.4689"/>
<polygon fill="#191970" stroke="#191970" points="976.5538,-167.7322 967.1592,-172.6304 977.5578,-174.6598 976.5538,-167.7322"/>
</g>
<!-- Node68&#45;&gt;Node63 -->
<g id="edge12" class="edge">
<title>Node68&#45;&gt;Node63</title>
<path fill="none" stroke="#191970" d="M839.3763,-152.0514C821.1064,-156.5321 800.3811,-161.0897 781.16,-164.8743"/>
<polygon fill="#191970" stroke="#191970" points="840.4003,-155.4031 849.2485,-149.5755 838.6974,-148.6134 840.4003,-155.4031"/>
</g>
<!-- Node68&#45;&gt;Node65 -->
<g id="edge13" class="edge">
<title>Node68&#45;&gt;Node65</title>
<path fill="none" stroke="#191970" d="M977.2418,-146.3827C985.8535,-147.5809 994.4785,-148.7809 1002.7735,-149.935"/>
<polygon fill="#191970" stroke="#191970" points="977.5461,-142.8914 967.1592,-144.9799 976.5815,-149.8247 977.5461,-142.8914"/>
</g>
<!-- Node69&#45;&gt;Node63 -->
<g id="edge15" class="edge">
<title>Node69&#45;&gt;Node63</title>
<path fill="none" stroke="#191970" d="M818.3698,-216.9861C817.9117,-216.8313 817.4551,-216.6769 817,-216.523 789.8656,-207.3454 758.7316,-196.6361 738.071,-187.5829"/>
<polygon fill="#191970" stroke="#191970" points="817.5644,-220.4076 828.1583,-220.2731 819.7927,-213.7718 817.5644,-220.4076"/>
</g>
<!-- Node69&#45;&gt;Node65 -->
<g id="edge16" class="edge">
<title>Node69&#45;&gt;Node65</title>
<path fill="none" stroke="#191970" d="M950.3329,-213.9984C956.0061,-211.9221 961.6408,-209.7493 967,-207.523 995.8668,-195.5313 1028.026,-178.6421 1047.2416,-168.1501"/>
<polygon fill="#191970" stroke="#191970" points="949.0388,-210.7439 940.7911,-217.394 951.3857,-217.3387 949.0388,-210.7439"/>
</g>
<!-- Node70&#45;&gt;Node63 -->
<g id="edge18" class="edge">
<title>Node70&#45;&gt;Node63</title>
<path fill="none" stroke="#191970" d="M622.9499,-194.4534C632.5251,-192.1722 642.3427,-189.8332 651.8325,-187.5723"/>
<polygon fill="#191970" stroke="#191970" points="621.9997,-191.0818 613.0832,-196.8041 623.6221,-197.8912 621.9997,-191.0818"/>
</g>
<!-- Node71 -->
<g id="node12" class="node">
<title>Node71</title>
<g id="a_node12"><a xlink:href="en61107__request_8h.html#a7384d014eb9e833f64ecf4a9f86f87be" target="_top" xlink:title="en61107_request_send">
<polygon fill="#ffffff" stroke="#000000" points="654,-207.023 654,-226.023 776,-226.023 776,-207.023 654,-207.023"/>
<text text-anchor="middle" x="715" y="-214.023" font-family="Helvetica,sans-Serif" font-size="10.00" fill="#000000">en61107_request_send</text>
</a>
</g>
</g>
<!-- Node70&#45;&gt;Node71 -->
<g id="edge19" class="edge">
<title>Node70&#45;&gt;Node71</title>
<path fill="none" stroke="#191970" d="M623.1279,-213.067C633.2874,-213.4492 643.7157,-213.8415 653.7323,-214.2183"/>
<polygon fill="#191970" stroke="#191970" points="623.2077,-209.5676 613.0832,-212.6891 622.9445,-216.5627 623.2077,-209.5676"/>
</g>
</g>
</svg>
