<?xml version="1.0" encoding="UTF-8" standalone="no"?>
<!DOCTYPE svg PUBLIC "-//W3C//DTD SVG 1.1//EN"
 "http://www.w3.org/Graphics/SVG/1.1/DTD/svg11.dtd">
<!-- Generated by graphviz version 2.40.1 (20161225.0304)
 -->
<!-- Title: uart0_tx_buffer Pages: 1 -->
<svg width="1091pt" height="312pt"
 viewBox="0.00 0.00 1091.00 311.86" xmlns="http://www.w3.org/2000/svg" xmlns:xlink="http://www.w3.org/1999/xlink">
<g id="graph0" class="graph" transform="scale(1 1) rotate(0) translate(4 307.8582)">
<title>uart0_tx_buffer</title>
<polygon fill="#ffffff" stroke="transparent" points="-4,4 -4,-307.8582 1087,-307.8582 1087,4 -4,4"/>
<!-- Node15 -->
<g id="node1" class="node">
<title>Node15</title>
<polygon fill="#bfbfbf" stroke="#000000" points="0,-114.5 0,-133.5 84,-133.5 84,-114.5 0,-114.5"/>
<text text-anchor="middle" x="42" y="-121.5" font-family="Helvetica,sans-Serif" font-size="10.00" fill="#000000">uart0_tx_buffer</text>
</g>
<!-- Node16 -->
<g id="node2" class="node">
<title>Node16</title>
<g id="a_node2"><a xlink:href="en61107__request_8h.html#a8b6b61143d95d3af3813f8be1aaf3447" target="_top" xlink:title="en61107_uart_send_en61107">
<polygon fill="#ffffff" stroke="#000000" points="625,-254.5 625,-273.5 775,-273.5 775,-254.5 625,-254.5"/>
<text text-anchor="middle" x="700" y="-261.5" font-family="Helvetica,sans-Serif" font-size="10.00" fill="#000000">en61107_uart_send_en61107</text>
</a>
</g>
</g>
<!-- Node15&#45;&gt;Node16 -->
<g id="edge1" class="edge">
<title>Node15&#45;&gt;Node16</title>
<path fill="none" stroke="#191970" d="M50.0018,-142.9472C61.5768,-167.878 85.4584,-211.0912 120,-233 295.6298,-344.3972 564.7372,-296.4189 662.6988,-273.564"/>
<polygon fill="#191970" stroke="#191970" points="53.188,-141.4984 45.9225,-133.7871 46.7934,-144.3461 53.188,-141.4984"/>
</g>
<!-- Node19 -->
<g id="node5" class="node">
<title>Node19</title>
<g id="a_node5"><a xlink:href="en61107__request_8h.html#a353102f2f89ad4ed996501752c0ac59c" target="_top" xlink:title="en61107_uart_send_en61107\l_ident">
<polygon fill="#ffffff" stroke="#000000" points="120,-156 120,-186 270,-186 270,-156 120,-156"/>
<text text-anchor="start" x="128" y="-174" font-family="Helvetica,sans-Serif" font-size="10.00" fill="#000000">en61107_uart_send_en61107</text>
<text text-anchor="middle" x="195" y="-163" font-family="Helvetica,sans-Serif" font-size="10.00" fill="#000000">_ident</text>
</a>
</g>
</g>
<!-- Node15&#45;&gt;Node19 -->
<g id="edge4" class="edge">
<title>Node15&#45;&gt;Node19</title>
<path fill="none" stroke="#191970" d="M82.7308,-136.5121C102.1762,-142.4855 125.6008,-149.6813 146.0112,-155.9512"/>
<polygon fill="#191970" stroke="#191970" points="83.5488,-133.102 72.9618,-133.5112 81.4932,-139.7934 83.5488,-133.102"/>
</g>
<!-- Node21 -->
<g id="node7" class="node">
<title>Node21</title>
<g id="a_node7"><a xlink:href="en61107__request_8h.html#afdb1795bdd4212fc7e028a9e5668fab4" target="_top" xlink:title="en61107_uart_send_standard\l_data_1">
<polygon fill="#ffffff" stroke="#000000" points="625,-205 625,-235 775,-235 775,-205 625,-205"/>
<text text-anchor="start" x="633" y="-223" font-family="Helvetica,sans-Serif" font-size="10.00" fill="#000000">en61107_uart_send_standard</text>
<text text-anchor="middle" x="700" y="-212" font-family="Helvetica,sans-Serif" font-size="10.00" fill="#000000">_data_1</text>
</a>
</g>
</g>
<!-- Node15&#45;&gt;Node21 -->
<g id="edge21" class="edge">
<title>Node15&#45;&gt;Node21</title>
<path fill="none" stroke="#191970" d="M56.7399,-141.7185C71.2431,-158.0609 94.82,-181.8656 120,-196 194.9555,-238.0752 220.8694,-237.1079 306,-249 430.5962,-266.4052 464.0988,-258.0615 589,-243 604.5332,-241.1269 621.1236,-238.1991 636.6166,-235.0522"/>
<polygon fill="#191970" stroke="#191970" points="59.2085,-139.2222 50.0223,-133.9435 53.9116,-143.7986 59.2085,-139.2222"/>
</g>
<!-- Node22 -->
<g id="node8" class="node">
<title>Node22</title>
<g id="a_node8"><a xlink:href="en61107__request_8h.html#a10b80328698f459ae2251fe146cdc375" target="_top" xlink:title="en61107_uart_send_standard\l_data_2">
<polygon fill="#ffffff" stroke="#000000" points="625,-156 625,-186 775,-186 775,-156 625,-156"/>
<text text-anchor="start" x="633" y="-174" font-family="Helvetica,sans-Serif" font-size="10.00" fill="#000000">en61107_uart_send_standard</text>
<text text-anchor="middle" x="700" y="-163" font-family="Helvetica,sans-Serif" font-size="10.00" fill="#000000">_data_2</text>
</a>
</g>
</g>
<!-- Node15&#45;&gt;Node22 -->
<g id="edge22" class="edge">
<title>Node15&#45;&gt;Node22</title>
<path fill="none" stroke="#191970" d="M94.2759,-122.9634C191.9348,-121.7215 408.5304,-122.2474 589,-146 606.5283,-148.307 625.3676,-152.0566 642.4589,-155.958"/>
<polygon fill="#191970" stroke="#191970" points="94.0322,-119.4664 84.0819,-123.1052 94.1296,-126.4657 94.0322,-119.4664"/>
</g>
<!-- Node23 -->
<g id="node9" class="node">
<title>Node23</title>
<g id="a_node9"><a xlink:href="en61107__request_8h.html#a74c2d949e6bb3b65cdf794a0643dd67d" target="_top" xlink:title="en61107_uart_send_inst\l_values">
<polygon fill="#ffffff" stroke="#000000" points="636.5,-107 636.5,-137 763.5,-137 763.5,-107 636.5,-107"/>
<text text-anchor="start" x="644.5" y="-125" font-family="Helvetica,sans-Serif" font-size="10.00" fill="#000000">en61107_uart_send_inst</text>
<text text-anchor="middle" x="700" y="-114" font-family="Helvetica,sans-Serif" font-size="10.00" fill="#000000">_values</text>
</a>
</g>
</g>
<!-- Node15&#45;&gt;Node23 -->
<g id="edge20" class="edge">
<title>Node15&#45;&gt;Node23</title>
<path fill="none" stroke="#191970" d="M94.2343,-113.3077C102.8093,-111.9324 111.6278,-110.7454 120,-110 327.6232,-91.5148 380.8577,-98.7817 589,-110 604.3872,-110.8293 620.9223,-112.3008 636.4084,-113.9357"/>
<polygon fill="#191970" stroke="#191970" points="93.5929,-109.8664 84.3213,-114.9935 94.7666,-116.7673 93.5929,-109.8664"/>
</g>
<!-- Node26 -->
<g id="node12" class="node">
<title>Node26</title>
<g id="a_node12"><a xlink:href="kmp__request_8c.html#aeadc3768548ef2bed49c3f2fcaf57c20" target="_top" xlink:title="kmp_get_register_timer_func">
<polygon fill="#ffffff" stroke="#000000" points="122,-.5 122,-19.5 268,-19.5 268,-.5 122,-.5"/>
<text text-anchor="middle" x="195" y="-7.5" font-family="Helvetica,sans-Serif" font-size="10.00" fill="#000000">kmp_get_register_timer_func</text>
</a>
</g>
</g>
<!-- Node15&#45;&gt;Node26 -->
<g id="edge23" class="edge">
<title>Node15&#45;&gt;Node26</title>
<path fill="none" stroke="#191970" d="M52.132,-105.6117C65.0359,-83.9454 89.3798,-48.4427 120,-29 126.1233,-25.112 133.0004,-22.0188 140.0409,-19.5581"/>
<polygon fill="#191970" stroke="#191970" points="48.9798,-104.0722 47.0267,-114.4854 55.0473,-107.563 48.9798,-104.0722"/>
</g>
<!-- Node29 -->
<g id="node15" class="node">
<title>Node29</title>
<g id="a_node15"><a xlink:href="kmp__request_8c.html#a7e59cff48c3c08aed48914a3a843d4b8" target="_top" xlink:title="kmp_get_serial_timer_func">
<polygon fill="#ffffff" stroke="#000000" points="126.5,-38.5 126.5,-57.5 263.5,-57.5 263.5,-38.5 126.5,-38.5"/>
<text text-anchor="middle" x="195" y="-45.5" font-family="Helvetica,sans-Serif" font-size="10.00" fill="#000000">kmp_get_serial_timer_func</text>
</a>
</g>
</g>
<!-- Node15&#45;&gt;Node29 -->
<g id="edge27" class="edge">
<title>Node15&#45;&gt;Node29</title>
<path fill="none" stroke="#191970" d="M62.2051,-108.2407C77.4236,-96.9538 99.1626,-82.0362 120,-72 131.9475,-66.2456 145.6088,-61.4062 157.9699,-57.6147"/>
<polygon fill="#191970" stroke="#191970" points="59.9208,-105.5799 54.0542,-114.4023 64.1421,-111.164 59.9208,-105.5799"/>
</g>
<!-- Node17 -->
<g id="node3" class="node">
<title>Node17</title>
<g id="a_node3"><a xlink:href="en61107__request_8c.html#aa3b162cf5364986ea19e831ac2b18f76" target="_top" xlink:title="en61107_received_task">
<polygon fill="#ffffff" stroke="#000000" points="811,-185.5 811,-204.5 934,-204.5 934,-185.5 811,-185.5"/>
<text text-anchor="middle" x="872.5" y="-192.5" font-family="Helvetica,sans-Serif" font-size="10.00" fill="#000000">en61107_received_task</text>
</a>
</g>
</g>
<!-- Node16&#45;&gt;Node17 -->
<g id="edge2" class="edge">
<title>Node16&#45;&gt;Node17</title>
<path fill="none" stroke="#191970" d="M754.6319,-251.702C761.5623,-249.6927 768.4988,-247.4544 775,-245 804.8991,-233.7124 837.5454,-215.7065 856.4567,-204.6613"/>
<polygon fill="#191970" stroke="#191970" points="753.2469,-248.453 744.5339,-254.4806 755.1041,-255.2021 753.2469,-248.453"/>
</g>
<!-- Node18 -->
<g id="node4" class="node">
<title>Node18</title>
<g id="a_node4"><a xlink:href="en61107__request_8h.html#acd43242675a3f25e7c3b530eac9d8b3a" target="_top" xlink:title="en61107_request_init">
<polygon fill="#ffffff" stroke="#000000" points="970,-185.5 970,-204.5 1083,-204.5 1083,-185.5 970,-185.5"/>
<text text-anchor="middle" x="1026.5" y="-192.5" font-family="Helvetica,sans-Serif" font-size="10.00" fill="#000000">en61107_request_init</text>
</a>
</g>
</g>
<!-- Node17&#45;&gt;Node18 -->
<g id="edge3" class="edge">
<title>Node17&#45;&gt;Node18</title>
<path fill="none" stroke="#191970" d="M944.5049,-195C952.9673,-195 961.5105,-195 969.7234,-195"/>
<polygon fill="#191970" stroke="#191970" points="944.2504,-191.5001 934.2504,-195 944.2503,-198.5001 944.2504,-191.5001"/>
</g>
<!-- Node20 -->
<g id="node6" class="node">
<title>Node20</title>
<g id="a_node6"><a xlink:href="en61107__request_8h.html#a22f1fee248eec0eeacf220c69b878a28" target="_top" xlink:title="en61107_receive_timeout\l_timer_func">
<polygon fill="#ffffff" stroke="#000000" points="457,-156 457,-186 589,-186 589,-156 457,-156"/>
<text text-anchor="start" x="465" y="-174" font-family="Helvetica,sans-Serif" font-size="10.00" fill="#000000">en61107_receive_timeout</text>
<text text-anchor="middle" x="523" y="-163" font-family="Helvetica,sans-Serif" font-size="10.00" fill="#000000">_timer_func</text>
</a>
</g>
</g>
<!-- Node19&#45;&gt;Node20 -->
<g id="edge5" class="edge">
<title>Node19&#45;&gt;Node20</title>
<path fill="none" stroke="#191970" d="M280.3548,-164.9935C335.4852,-163.8651 406.1507,-164.0211 456.985,-165.4615"/>
<polygon fill="#191970" stroke="#191970" points="280.1692,-161.4967 270.2498,-165.2191 280.3255,-168.4949 280.1692,-161.4967"/>
</g>
<!-- Node24 -->
<g id="node10" class="node">
<title>Node24</title>
<g id="a_node10"><a xlink:href="en61107__request_8h.html#a2fa4e9967afddae0c1dedbc914dcee36" target="_top" xlink:title="en61107_meter_wake\l_up_timer_func">
<polygon fill="#ffffff" stroke="#000000" points="306,-209 306,-239 421,-239 421,-209 306,-209"/>
<text text-anchor="start" x="314" y="-227" font-family="Helvetica,sans-Serif" font-size="10.00" fill="#000000">en61107_meter_wake</text>
<text text-anchor="middle" x="363.5" y="-216" font-family="Helvetica,sans-Serif" font-size="10.00" fill="#000000">_up_timer_func</text>
</a>
</g>
</g>
<!-- Node19&#45;&gt;Node24 -->
<g id="edge17" class="edge">
<title>Node19&#45;&gt;Node24</title>
<path fill="none" stroke="#191970" d="M252.3968,-189.0536C272.947,-195.5175 295.8778,-202.7301 315.5458,-208.9165"/>
<polygon fill="#191970" stroke="#191970" points="253.4241,-185.7077 242.8346,-186.0459 251.3237,-192.3852 253.4241,-185.7077"/>
</g>
<!-- Node20&#45;&gt;Node16 -->
<g id="edge7" class="edge">
<title>Node20&#45;&gt;Node16</title>
<path fill="none" stroke="#191970" d="M566.9251,-190.7775C574.5841,-195.0114 582.2503,-199.7957 589,-205 607.941,-219.6044 604.5233,-232.6407 625,-245 631.4399,-248.887 638.6512,-251.9826 645.9882,-254.447"/>
<polygon fill="#191970" stroke="#191970" points="568.4709,-187.6359 557.9928,-186.0679 565.2061,-193.8279 568.4709,-187.6359"/>
</g>
<!-- Node20&#45;&gt;Node19 -->
<g id="edge6" class="edge">
<title>Node20&#45;&gt;Node19</title>
<path fill="none" stroke="#191970" d="M446.94,-176.8004C393.8116,-178.073 323.1993,-178.0665 270.2498,-176.7809"/>
<polygon fill="#191970" stroke="#191970" points="447.0797,-180.2981 456.985,-176.5385 446.8971,-173.3005 447.0797,-180.2981"/>
</g>
<!-- Node20&#45;&gt;Node21 -->
<g id="edge8" class="edge">
<title>Node20&#45;&gt;Node21</title>
<path fill="none" stroke="#191970" d="M598.9903,-185.3472C622.1383,-191.5309 646.4517,-198.6641 665.4228,-204.9452"/>
<polygon fill="#191970" stroke="#191970" points="599.7215,-181.9205 589.16,-182.7604 597.94,-188.69 599.7215,-181.9205"/>
</g>
<!-- Node20&#45;&gt;Node22 -->
<g id="edge11" class="edge">
<title>Node20&#45;&gt;Node22</title>
<path fill="none" stroke="#191970" d="M599.4108,-164.3063C607.8936,-164.2269 616.5275,-164.2315 624.9927,-164.3202"/>
<polygon fill="#191970" stroke="#191970" points="599.1117,-160.8099 589.16,-164.4449 599.2064,-167.8093 599.1117,-160.8099"/>
</g>
<!-- Node20&#45;&gt;Node23 -->
<g id="edge14" class="edge">
<title>Node20&#45;&gt;Node23</title>
<path fill="none" stroke="#191970" d="M567.0968,-152.8627C587.9562,-146.2463 613.2576,-139.048 636.1634,-133.1609"/>
<polygon fill="#191970" stroke="#191970" points="565.9829,-149.5444 557.5476,-155.955 568.1395,-156.204 565.9829,-149.5444"/>
</g>
<!-- Node21&#45;&gt;Node17 -->
<g id="edge10" class="edge">
<title>Node21&#45;&gt;Node17</title>
<path fill="none" stroke="#191970" d="M785.2418,-207.6461C793.8535,-206.398 802.4785,-205.148 810.7735,-203.9459"/>
<polygon fill="#191970" stroke="#191970" points="784.5538,-204.2092 775.1592,-209.1074 785.5578,-211.1368 784.5538,-204.2092"/>
</g>
<!-- Node21&#45;&gt;Node20 -->
<g id="edge9" class="edge">
<title>Node21&#45;&gt;Node20</title>
<path fill="none" stroke="#191970" d="M615.2276,-203.2766C594.8143,-197.6838 574.1361,-191.5381 557.5476,-186.045"/>
<polygon fill="#191970" stroke="#191970" points="614.3221,-206.6574 624.889,-205.8874 616.1483,-199.8998 614.3221,-206.6574"/>
</g>
<!-- Node22&#45;&gt;Node17 -->
<g id="edge13" class="edge">
<title>Node22&#45;&gt;Node17</title>
<path fill="none" stroke="#191970" d="M785.2418,-182.8597C793.8535,-184.0579 802.4785,-185.2579 810.7735,-186.412"/>
<polygon fill="#191970" stroke="#191970" points="785.5461,-179.3684 775.1592,-181.4569 784.5815,-186.3017 785.5461,-179.3684"/>
</g>
<!-- Node22&#45;&gt;Node20 -->
<g id="edge12" class="edge">
<title>Node22&#45;&gt;Node20</title>
<path fill="none" stroke="#191970" d="M614.8867,-177.7456C606.2441,-177.768 597.5585,-177.7045 589.16,-177.5551"/>
<polygon fill="#191970" stroke="#191970" points="615.0157,-181.2449 624.9927,-177.6798 614.9701,-174.2451 615.0157,-181.2449"/>
</g>
<!-- Node23&#45;&gt;Node17 -->
<g id="edge16" class="edge">
<title>Node23&#45;&gt;Node17</title>
<path fill="none" stroke="#191970" d="M760.4025,-140.4175C765.3756,-142.2094 770.2953,-144.0788 775,-146 804.1139,-157.8892 836.4666,-174.9627 855.6163,-185.498"/>
<polygon fill="#191970" stroke="#191970" points="761.4105,-137.0623 750.8156,-137.0734 759.105,-143.6718 761.4105,-137.0623"/>
</g>
<!-- Node23&#45;&gt;Node20 -->
<g id="edge15" class="edge">
<title>Node23&#45;&gt;Node20</title>
<path fill="none" stroke="#191970" d="M655.8891,-140.1417C635.7353,-146.534 611.4373,-153.4689 589.16,-159.2396"/>
<polygon fill="#191970" stroke="#191970" points="656.9873,-143.4651 665.4228,-137.0548 654.8309,-136.8055 656.9873,-143.4651"/>
</g>
<!-- Node24&#45;&gt;Node20 -->
<g id="edge18" class="edge">
<title>Node24&#45;&gt;Node20</title>
<path fill="none" stroke="#191970" d="M418.3598,-205.7707C437.6763,-199.3521 459.1581,-192.2139 477.6071,-186.0835"/>
<polygon fill="#191970" stroke="#191970" points="417.1658,-202.4792 408.7797,-208.9541 419.3732,-209.1221 417.1658,-202.4792"/>
</g>
<!-- Node25 -->
<g id="node11" class="node">
<title>Node25</title>
<g id="a_node11"><a xlink:href="en61107__request_8h.html#a7384d014eb9e833f64ecf4a9f86f87be" target="_top" xlink:title="en61107_request_send">
<polygon fill="#ffffff" stroke="#000000" points="462,-214.5 462,-233.5 584,-233.5 584,-214.5 462,-214.5"/>
<text text-anchor="middle" x="523" y="-221.5" font-family="Helvetica,sans-Serif" font-size="10.00" fill="#000000">en61107_request_send</text>
</a>
</g>
</g>
<!-- Node24&#45;&gt;Node25 -->
<g id="edge19" class="edge">
<title>Node24&#45;&gt;Node25</title>
<path fill="none" stroke="#191970" d="M431.1279,-224C441.2874,-224 451.7157,-224 461.7323,-224"/>
<polygon fill="#191970" stroke="#191970" points="431.0832,-220.5001 421.0832,-224 431.0831,-227.5001 431.0832,-220.5001"/>
</g>
<!-- Node27 -->
<g id="node13" class="node">
<title>Node27</title>
<g id="a_node13"><a xlink:href="kmp__request_8h.html#a3b022dcdc832786eb06126b5e6879604" target="_top" xlink:title="kmp_request_send">
<polygon fill="#ffffff" stroke="#000000" points="312.5,-16.5 312.5,-35.5 414.5,-35.5 414.5,-16.5 312.5,-16.5"/>
<text text-anchor="middle" x="363.5" y="-23.5" font-family="Helvetica,sans-Serif" font-size="10.00" fill="#000000">kmp_request_send</text>
</a>
</g>
</g>
<!-- Node26&#45;&gt;Node27 -->
<g id="edge24" class="edge">
<title>Node26&#45;&gt;Node27</title>
<path fill="none" stroke="#191970" d="M278.4704,-17.926C289.9411,-19.0152 301.4311,-20.1062 312.0898,-21.1183"/>
<polygon fill="#191970" stroke="#191970" points="278.7025,-14.4324 268.4164,-16.9713 278.0407,-21.401 278.7025,-14.4324"/>
</g>
<!-- Node28 -->
<g id="node14" class="node">
<title>Node28</title>
<g id="a_node14"><a xlink:href="kmp__request_8c.html#a0977a4640a97d389ac3b0fef0ba7a9b6" target="_top" xlink:title="kmp_receive_timeout\l_timer_func">
<polygon fill="#ffffff" stroke="#000000" points="467,-11 467,-41 579,-41 579,-11 467,-11"/>
<text text-anchor="start" x="475" y="-29" font-family="Helvetica,sans-Serif" font-size="10.00" fill="#000000">kmp_receive_timeout</text>
<text text-anchor="middle" x="523" y="-18" font-family="Helvetica,sans-Serif" font-size="10.00" fill="#000000">_timer_func</text>
</a>
</g>
</g>
<!-- Node27&#45;&gt;Node28 -->
<g id="edge25" class="edge">
<title>Node27&#45;&gt;Node28</title>
<path fill="none" stroke="#191970" d="M425.1491,-19.407C438.8535,-19.1655 453.3108,-19.2026 466.7838,-19.5183"/>
<polygon fill="#191970" stroke="#191970" points="424.7609,-15.9149 414.8448,-19.6459 424.9232,-22.9131 424.7609,-15.9149"/>
</g>
<!-- Node28&#45;&gt;Node27 -->
<g id="edge26" class="edge">
<title>Node28&#45;&gt;Node27</title>
<path fill="none" stroke="#191970" d="M456.7254,-32.6636C442.7384,-32.8445 428.182,-32.7413 414.8448,-32.3541"/>
<polygon fill="#191970" stroke="#191970" points="456.8488,-36.1621 466.7838,-32.4817 456.7221,-29.1632 456.8488,-36.1621"/>
</g>
<!-- Node29&#45;&gt;Node27 -->
<g id="edge28" class="edge">
<title>Node29&#45;&gt;Node27</title>
<path fill="none" stroke="#191970" d="M273.5532,-37.7438C286.7292,-36.0235 300.0918,-34.2788 312.3441,-32.6791"/>
<polygon fill="#191970" stroke="#191970" points="272.9981,-34.2865 263.5354,-39.0518 273.9044,-41.2276 272.9981,-34.2865"/>
</g>
</g>
</svg>
