<?xml version="1.0" encoding="UTF-8" standalone="no"?>
<!DOCTYPE svg PUBLIC "-//W3C//DTD SVG 1.1//EN"
 "http://www.w3.org/Graphics/SVG/1.1/DTD/svg11.dtd">
<!-- Generated by graphviz version 2.41.20170323.1842 (20170323.1842)
 -->
<!-- Title: driver/uart.c Pages: 1 -->
<svg width="2069pt" height="420pt"
 viewBox="0.00 0.00 2069.27 420.00" xmlns="http://www.w3.org/2000/svg" xmlns:xlink="http://www.w3.org/1999/xlink">
<g id="graph0" class="graph" transform="scale(1 1) rotate(0) translate(4 416)">
<title>driver/uart.c</title>
<polygon fill="#ffffff" stroke="transparent" points="-4,4 -4,-416 2065.2696,-416 2065.2696,4 -4,4"/>
<!-- Node0 -->
<g id="node1" class="node">
<title>Node0</title>
<polygon fill="#bfbfbf" stroke="#000000" points="617.2696,-392.5 617.2696,-411.5 686.2696,-411.5 686.2696,-392.5 617.2696,-392.5"/>
<text text-anchor="middle" x="651.7696" y="-399.5" font-family="Helvetica,sans-Serif" font-size="10.00" fill="#000000">driver/uart.c</text>
</g>
<!-- Node1 -->
<g id="node2" class="node">
<title>Node1</title>
<polygon fill="#ffffff" stroke="#bfbfbf" points="183.2696,-.5 183.2696,-19.5 242.2696,-19.5 242.2696,-.5 183.2696,-.5"/>
<text text-anchor="middle" x="212.7696" y="-7.5" font-family="Helvetica,sans-Serif" font-size="10.00" fill="#000000">ets_sys.h</text>
</g>
<!-- Node0&#45;&gt;Node1 -->
<g id="edge1" class="edge">
<title>Node0&#45;&gt;Node1</title>
<path fill="none" stroke="#191970" d="M617.2286,-399.7519C482.6429,-390.5395 .7696,-353.1464 .7696,-290 .7696,-290 .7696,-290 .7696,-122 .7696,-91.4754 -2.3087,-77.0785 19.7696,-56 41.4593,-35.2924 122.9243,-21.4739 172.8204,-14.7524"/>
<polygon fill="#191970" stroke="#191970" points="173.4945,-18.1941 182.9557,-13.4259 172.586,-11.2533 173.4945,-18.1941"/>
</g>
<!-- Node2 -->
<g id="node3" class="node">
<title>Node2</title>
<polygon fill="#ffffff" stroke="#bfbfbf" points="29.2696,-56.5 29.2696,-75.5 78.2696,-75.5 78.2696,-56.5 29.2696,-56.5"/>
<text text-anchor="middle" x="53.7696" y="-63.5" font-family="Helvetica,sans-Serif" font-size="10.00" fill="#000000">osapi.h</text>
</g>
<!-- Node0&#45;&gt;Node2 -->
<g id="edge2" class="edge">
<title>Node0&#45;&gt;Node2</title>
<path fill="none" stroke="#191970" d="M616.8942,-401.0518C508.9856,-397.1833 187.7696,-378.2556 187.7696,-290 187.7696,-290 187.7696,-290 187.7696,-178 187.7696,-125.9007 127.3979,-93.2816 87.6998,-77.4643"/>
<polygon fill="#191970" stroke="#191970" points="88.9379,-74.1906 78.3472,-73.8929 86.4407,-80.73 88.9379,-74.1906"/>
</g>
<!-- Node3 -->
<g id="node4" class="node">
<title>Node3</title>
<g id="a_node4"><a xlink:href="uart_8h.html" target="_top" xlink:title="driver/uart.h">
<polygon fill="#ffffff" stroke="#000000" points="1889.7696,-336.5 1889.7696,-355.5 1959.7696,-355.5 1959.7696,-336.5 1889.7696,-336.5"/>
<text text-anchor="middle" x="1924.7696" y="-343.5" font-family="Helvetica,sans-Serif" font-size="10.00" fill="#000000">driver/uart.h</text>
</a>
</g>
</g>
<!-- Node0&#45;&gt;Node3 -->
<g id="edge3" class="edge">
<title>Node0&#45;&gt;Node3</title>
<path fill="none" stroke="#191970" d="M686.4795,-400.4731C864.7993,-392.6287 1677.3344,-356.8848 1879.2463,-348.0026"/>
<polygon fill="#191970" stroke="#191970" points="1879.6544,-351.4881 1889.4909,-347.5519 1879.3467,-344.4949 1879.6544,-351.4881"/>
</g>
<!-- Node4 -->
<g id="node5" class="node">
<title>Node4</title>
<g id="a_node5"><a xlink:href="uart__register_8h.html" target="_top" xlink:title="uart_register.h">
<polygon fill="#ffffff" stroke="#000000" points="1980.2696,-280.5 1980.2696,-299.5 2061.2696,-299.5 2061.2696,-280.5 1980.2696,-280.5"/>
<text text-anchor="middle" x="2020.7696" y="-287.5" font-family="Helvetica,sans-Serif" font-size="10.00" fill="#000000">uart_register.h</text>
</a>
</g>
</g>
<!-- Node0&#45;&gt;Node4 -->
<g id="edge7" class="edge">
<title>Node0&#45;&gt;Node4</title>
<path fill="none" stroke="#191970" d="M686.289,-401.6128C888.2531,-399.245 1909.9428,-385.823 1968.7696,-356 1988.5951,-345.9492 2003.2423,-324.4807 2011.8518,-308.7472"/>
<polygon fill="#191970" stroke="#191970" points="2014.9685,-310.3397 2016.4246,-299.8453 2008.742,-307.1412 2014.9685,-310.3397"/>
</g>
<!-- Node7 -->
<g id="node8" class="node">
<title>Node7</title>
<polygon fill="#ffffff" stroke="#bfbfbf" points="96.7696,-56.5 96.7696,-75.5 184.7696,-75.5 184.7696,-56.5 96.7696,-56.5"/>
<text text-anchor="middle" x="140.7696" y="-63.5" font-family="Helvetica,sans-Serif" font-size="10.00" fill="#000000">user_interface.h</text>
</g>
<!-- Node0&#45;&gt;Node7 -->
<g id="edge8" class="edge">
<title>Node0&#45;&gt;Node7</title>
<path fill="none" stroke="#191970" d="M644.3275,-392.4319C630.6199,-373.819 602.7696,-330.9622 602.7696,-290 602.7696,-290 602.7696,-290 602.7696,-178 602.7696,-136.4995 317.5699,-91.0731 195.33,-73.5088"/>
<polygon fill="#191970" stroke="#191970" points="195.4622,-69.9923 185.0681,-72.0448 194.4735,-76.9221 195.4622,-69.9923"/>
</g>
<!-- Node8 -->
<g id="node9" class="node">
<title>Node8</title>
<g id="a_node9"><a xlink:href="kmp__request_8h.html" target="_top" xlink:title="kmp_request.h">
<polygon fill="#ffffff" stroke="#000000" points="779.2696,-336.5 779.2696,-355.5 862.2696,-355.5 862.2696,-336.5 779.2696,-336.5"/>
<text text-anchor="middle" x="820.7696" y="-343.5" font-family="Helvetica,sans-Serif" font-size="10.00" fill="#000000">kmp_request.h</text>
</a>
</g>
</g>
<!-- Node0&#45;&gt;Node8 -->
<g id="edge9" class="edge">
<title>Node0&#45;&gt;Node8</title>
<path fill="none" stroke="#191970" d="M680.8217,-392.3733C708.9238,-383.0613 751.6749,-368.8953 782.5302,-358.671"/>
<polygon fill="#191970" stroke="#191970" points="783.705,-361.969 792.0965,-355.5011 781.5032,-355.3243 783.705,-361.969"/>
</g>
<!-- Node3&#45;&gt;Node4 -->
<g id="edge4" class="edge">
<title>Node3&#45;&gt;Node4</title>
<path fill="none" stroke="#191970" d="M1941.4915,-336.2455C1956.3585,-327.5731 1978.3161,-314.7645 1995.3553,-304.825"/>
<polygon fill="#191970" stroke="#191970" points="1997.365,-307.7047 2004.2393,-299.6427 1993.8379,-301.6582 1997.365,-307.7047"/>
</g>
<!-- Node5 -->
<g id="node6" class="node">
<title>Node5</title>
<polygon fill="#ffffff" stroke="#bfbfbf" points="1824.7696,-.5 1824.7696,-19.5 1894.7696,-19.5 1894.7696,-.5 1824.7696,-.5"/>
<text text-anchor="middle" x="1859.7696" y="-7.5" font-family="Helvetica,sans-Serif" font-size="10.00" fill="#000000">eagle_soc.h</text>
</g>
<!-- Node3&#45;&gt;Node5 -->
<g id="edge5" class="edge">
<title>Node3&#45;&gt;Node5</title>
<path fill="none" stroke="#191970" d="M1928.7535,-336.3019C1936.264,-317.1145 1951.7696,-272.8029 1951.7696,-234 1951.7696,-234 1951.7696,-234 1951.7696,-122 1951.7696,-90.7875 1946.9657,-80.6116 1927.7696,-56 1917.5848,-42.942 1902.6378,-32.2615 1889.3492,-24.4903"/>
<polygon fill="#191970" stroke="#191970" points="1890.9364,-21.3684 1880.4933,-19.5815 1887.5428,-27.4907 1890.9364,-21.3684"/>
</g>
<!-- Node6 -->
<g id="node7" class="node">
<title>Node6</title>
<polygon fill="#ffffff" stroke="#bfbfbf" points="1563.2696,-.5 1563.2696,-19.5 1622.2696,-19.5 1622.2696,-.5 1563.2696,-.5"/>
<text text-anchor="middle" x="1592.7696" y="-7.5" font-family="Helvetica,sans-Serif" font-size="10.00" fill="#000000">c_types.h</text>
</g>
<!-- Node3&#45;&gt;Node6 -->
<g id="edge6" class="edge">
<title>Node3&#45;&gt;Node6</title>
<path fill="none" stroke="#191970" d="M1923.1935,-336.4427C1920.1519,-317.1407 1913.7696,-272.0991 1913.7696,-234 1913.7696,-234 1913.7696,-234 1913.7696,-122 1913.7696,-87.4675 1901.4856,-75.1803 1872.7696,-56 1834.1763,-30.2223 1700.7123,-17.4711 1632.9369,-12.5353"/>
<polygon fill="#191970" stroke="#191970" points="1632.8695,-9.0219 1622.648,-11.8094 1632.3768,-16.0046 1632.8695,-9.0219"/>
</g>
<!-- Node9 -->
<g id="node10" class="node">
<title>Node9</title>
<g id="a_node10"><a xlink:href="mqtt_8h.html" target="_top" xlink:title="mqtt.h">
<polygon fill="#ffffff" stroke="#000000" points="946.7696,-280.5 946.7696,-299.5 990.7696,-299.5 990.7696,-280.5 946.7696,-280.5"/>
<text text-anchor="middle" x="968.7696" y="-287.5" font-family="Helvetica,sans-Serif" font-size="10.00" fill="#000000">mqtt.h</text>
</a>
</g>
</g>
<!-- Node8&#45;&gt;Node9 -->
<g id="edge10" class="edge">
<title>Node8&#45;&gt;Node9</title>
<path fill="none" stroke="#191970" d="M846.2117,-336.3733C871.3855,-326.848 909.9824,-312.2438 937.1219,-301.9748"/>
<polygon fill="#191970" stroke="#191970" points="938.442,-305.2176 946.5562,-298.4051 935.9647,-298.6705 938.442,-305.2176"/>
</g>
<!-- Node9&#45;&gt;Node7 -->
<g id="edge14" class="edge">
<title>Node9&#45;&gt;Node7</title>
<path fill="none" stroke="#191970" d="M954.8315,-280.4547C908.9741,-249.6159 757.6607,-152.323 616.7696,-112 444.3119,-62.6427 393.031,-96.0163 214.7696,-76 208.4287,-75.288 201.7907,-74.4802 195.2042,-73.6396"/>
<polygon fill="#191970" stroke="#191970" points="195.3153,-70.1245 184.9464,-72.3009 194.4094,-77.0657 195.3153,-70.1245"/>
</g>
<!-- Node10 -->
<g id="node11" class="node">
<title>Node10</title>
<g id="a_node11"><a xlink:href="mqtt__msg_8h.html" target="_top" xlink:title="mqtt_msg.h">
<polygon fill="#ffffff" stroke="#000000" points="1423.2696,-224.5 1423.2696,-243.5 1492.2696,-243.5 1492.2696,-224.5 1423.2696,-224.5"/>
<text text-anchor="middle" x="1457.7696" y="-231.5" font-family="Helvetica,sans-Serif" font-size="10.00" fill="#000000">mqtt_msg.h</text>
</a>
</g>
</g>
<!-- Node9&#45;&gt;Node10 -->
<g id="edge11" class="edge">
<title>Node9&#45;&gt;Node10</title>
<path fill="none" stroke="#191970" d="M991.0516,-287.4483C1066.2111,-278.8411 1311.3652,-250.7661 1412.9993,-239.1271"/>
<polygon fill="#191970" stroke="#191970" points="1413.6996,-242.5698 1423.2364,-237.9547 1412.9031,-235.6153 1413.6996,-242.5698"/>
</g>
<!-- Node12 -->
<g id="node13" class="node">
<title>Node12</title>
<g id="a_node13"><a xlink:href="queue_8h.html" target="_top" xlink:title="queue.h">
<polygon fill="#ffffff" stroke="#000000" points="956.2696,-224.5 956.2696,-243.5 1009.2696,-243.5 1009.2696,-224.5 956.2696,-224.5"/>
<text text-anchor="middle" x="982.7696" y="-231.5" font-family="Helvetica,sans-Serif" font-size="10.00" fill="#000000">queue.h</text>
</a>
</g>
</g>
<!-- Node9&#45;&gt;Node12 -->
<g id="edge15" class="edge">
<title>Node9&#45;&gt;Node12</title>
<path fill="none" stroke="#191970" d="M971.2082,-280.2455C973.0551,-272.8579 975.6523,-262.4689 977.9174,-253.4087"/>
<polygon fill="#191970" stroke="#191970" points="981.329,-254.193 980.3589,-243.6427 974.538,-252.4952 981.329,-254.193"/>
</g>
<!-- Node10&#45;&gt;Node6 -->
<g id="edge13" class="edge">
<title>Node10&#45;&gt;Node6</title>
<path fill="none" stroke="#191970" d="M1492.5477,-232.4701C1573.1519,-226.822 1772.2848,-200.3227 1856.7696,-76 1861.7657,-68.648 1862.4901,-62.8035 1856.7696,-56 1828.6332,-22.5372 1699.516,-13.4149 1632.8557,-10.9296"/>
<polygon fill="#191970" stroke="#191970" points="1632.8316,-7.4269 1622.7184,-10.585 1632.5937,-14.4228 1632.8316,-7.4269"/>
</g>
<!-- Node11 -->
<g id="node12" class="node">
<title>Node11</title>
<g id="a_node12"><a xlink:href="user__config_8h.html" target="_top" xlink:title="user_config.h">
<polygon fill="#ffffff" stroke="#000000" points="1419.2696,-168.5 1419.2696,-187.5 1496.2696,-187.5 1496.2696,-168.5 1419.2696,-168.5"/>
<text text-anchor="middle" x="1457.7696" y="-175.5" font-family="Helvetica,sans-Serif" font-size="10.00" fill="#000000">user_config.h</text>
</a>
</g>
</g>
<!-- Node10&#45;&gt;Node11 -->
<g id="edge12" class="edge">
<title>Node10&#45;&gt;Node11</title>
<path fill="none" stroke="#191970" d="M1457.7696,-224.2455C1457.7696,-216.9382 1457.7696,-206.6944 1457.7696,-197.7046"/>
<polygon fill="#191970" stroke="#191970" points="1461.2697,-197.6426 1457.7696,-187.6427 1454.2697,-197.6427 1461.2697,-197.6426"/>
</g>
<!-- Node13 -->
<g id="node14" class="node">
<title>Node13</title>
<polygon fill="#ffffff" stroke="#bfbfbf" points="1028.7696,-168.5 1028.7696,-187.5 1088.7696,-187.5 1088.7696,-168.5 1028.7696,-168.5"/>
<text text-anchor="middle" x="1058.7696" y="-175.5" font-family="Helvetica,sans-Serif" font-size="10.00" fill="#000000">os_type.h</text>
</g>
<!-- Node12&#45;&gt;Node13 -->
<g id="edge16" class="edge">
<title>Node12&#45;&gt;Node13</title>
<path fill="none" stroke="#191970" d="M996.0078,-224.2455C1007.4505,-215.814 1024.1992,-203.4729 1037.517,-193.6598"/>
<polygon fill="#191970" stroke="#191970" points="1039.7087,-196.3924 1045.6831,-187.6427 1035.5563,-190.757 1039.7087,-196.3924"/>
</g>
<!-- Node14 -->
<g id="node15" class="node">
<title>Node14</title>
<g id="a_node15"><a xlink:href="ringbuf_8h.html" target="_top" xlink:title="ringbuf.h">
<polygon fill="#ffffff" stroke="#000000" points="955.2696,-168.5 955.2696,-187.5 1010.2696,-187.5 1010.2696,-168.5 955.2696,-168.5"/>
<text text-anchor="middle" x="982.7696" y="-175.5" font-family="Helvetica,sans-Serif" font-size="10.00" fill="#000000">ringbuf.h</text>
</a>
</g>
</g>
<!-- Node12&#45;&gt;Node14 -->
<g id="edge17" class="edge">
<title>Node12&#45;&gt;Node14</title>
<path fill="none" stroke="#191970" d="M982.7696,-224.2455C982.7696,-216.9382 982.7696,-206.6944 982.7696,-197.7046"/>
<polygon fill="#191970" stroke="#191970" points="986.2697,-197.6426 982.7696,-187.6427 979.2697,-197.6427 986.2697,-197.6426"/>
</g>
<!-- Node15 -->
<g id="node16" class="node">
<title>Node15</title>
<g id="a_node16"><a xlink:href="esp8266_8h.html" target="_top" xlink:title="esp8266.h">
<polygon fill="#ffffff" stroke="#000000" points="951.2696,-112.5 951.2696,-131.5 1014.2696,-131.5 1014.2696,-112.5 951.2696,-112.5"/>
<text text-anchor="middle" x="982.7696" y="-119.5" font-family="Helvetica,sans-Serif" font-size="10.00" fill="#000000">esp8266.h</text>
</a>
</g>
</g>
<!-- Node14&#45;&gt;Node15 -->
<g id="edge18" class="edge">
<title>Node14&#45;&gt;Node15</title>
<path fill="none" stroke="#191970" d="M982.7696,-168.2455C982.7696,-160.9382 982.7696,-150.6944 982.7696,-141.7046"/>
<polygon fill="#191970" stroke="#191970" points="986.2697,-141.6426 982.7696,-131.6427 979.2697,-141.6427 986.2697,-141.6426"/>
</g>
<!-- Node36 -->
<g id="node37" class="node">
<title>Node36</title>
<g id="a_node37"><a xlink:href="typedef_8h.html" target="_top" xlink:title="typedef.h">
<polygon fill="#ffffff" stroke="#000000" points="1032.7696,-112.5 1032.7696,-131.5 1090.7696,-131.5 1090.7696,-112.5 1032.7696,-112.5"/>
<text text-anchor="middle" x="1061.7696" y="-119.5" font-family="Helvetica,sans-Serif" font-size="10.00" fill="#000000">typedef.h</text>
</a>
</g>
</g>
<!-- Node14&#45;&gt;Node36 -->
<g id="edge46" class="edge">
<title>Node14&#45;&gt;Node36</title>
<path fill="none" stroke="#191970" d="M996.5303,-168.2455C1008.4248,-159.814 1025.8346,-147.4729 1039.6781,-137.6598"/>
<polygon fill="#191970" stroke="#191970" points="1042.0324,-140.2811 1048.1665,-131.6427 1037.9842,-134.5704 1042.0324,-140.2811"/>
</g>
<!-- Node15&#45;&gt;Node1 -->
<g id="edge34" class="edge">
<title>Node15&#45;&gt;Node1</title>
<path fill="none" stroke="#191970" d="M951.0841,-119.6237C922.7136,-117.523 879.9729,-114.4246 842.7696,-112 774.9069,-107.5773 284.8767,-118.4799 231.7696,-76 218.2652,-65.198 213.9639,-45.4523 212.7724,-30.3636"/>
<polygon fill="#191970" stroke="#191970" points="216.2537,-29.8141 212.3665,-19.9581 209.259,-30.087 216.2537,-29.8141"/>
</g>
<!-- Node15&#45;&gt;Node2 -->
<g id="edge37" class="edge">
<title>Node15&#45;&gt;Node2</title>
<path fill="none" stroke="#191970" d="M950.9806,-121.3658C814.7351,-118.497 278.8333,-105.6369 88.6364,-75.6725"/>
<polygon fill="#191970" stroke="#191970" points="88.93,-72.1738 78.4939,-74.0012 87.7918,-79.0806 88.93,-72.1738"/>
</g>
<!-- Node15&#45;&gt;Node6 -->
<g id="edge23" class="edge">
<title>Node15&#45;&gt;Node6</title>
<path fill="none" stroke="#191970" d="M1014.4511,-113.7395C1017.586,-113.0829 1020.7311,-112.4867 1023.7696,-112 1225.3827,-79.7044 1287.1599,-137.7896 1481.7696,-76 1491.065,-73.0487 1539.0037,-43.6189 1568.7607,-25.0683"/>
<polygon fill="#191970" stroke="#191970" points="1570.7232,-27.9692 1577.349,-19.7019 1567.0138,-22.0328 1570.7232,-27.9692"/>
</g>
<!-- Node15&#45;&gt;Node7 -->
<g id="edge38" class="edge">
<title>Node15&#45;&gt;Node7</title>
<path fill="none" stroke="#191970" d="M951.0858,-119.5965C922.7165,-117.4779 879.9765,-114.3686 842.7696,-112 556.6796,-93.7873 483.601,-108.407 198.7696,-76 197.5132,-75.8571 196.2428,-75.7046 194.9625,-75.5438"/>
<polygon fill="#191970" stroke="#191970" points="195.4132,-72.0729 185.0279,-74.1697 194.454,-79.0069 195.4132,-72.0729"/>
</g>
<!-- Node16 -->
<g id="node17" class="node">
<title>Node16</title>
<polygon fill="#ffffff" stroke="#bfbfbf" points="1529.2696,-56.5 1529.2696,-75.5 1578.2696,-75.5 1578.2696,-56.5 1529.2696,-56.5"/>
<text text-anchor="middle" x="1553.7696" y="-63.5" font-family="Helvetica,sans-Serif" font-size="10.00" fill="#000000">ctype.h</text>
</g>
<!-- Node15&#45;&gt;Node16 -->
<g id="edge19" class="edge">
<title>Node15&#45;&gt;Node16</title>
<path fill="none" stroke="#191970" d="M1014.4485,-113.7228C1017.5839,-113.0696 1020.7298,-112.4787 1023.7696,-112 1239.9133,-77.9588 1298.8299,-111.3127 1514.7696,-76 1516.2354,-75.7603 1517.7267,-75.4915 1519.229,-75.2"/>
<polygon fill="#191970" stroke="#191970" points="1520.1377,-78.5839 1529.1522,-73.017 1518.6337,-71.7473 1520.1377,-78.5839"/>
</g>
<!-- Node17 -->
<g id="node18" class="node">
<title>Node17</title>
<polygon fill="#ffffff" stroke="#bfbfbf" points="1596.7696,-56.5 1596.7696,-75.5 1642.7696,-75.5 1642.7696,-56.5 1596.7696,-56.5"/>
<text text-anchor="middle" x="1619.7696" y="-63.5" font-family="Helvetica,sans-Serif" font-size="10.00" fill="#000000">stdio.h</text>
</g>
<!-- Node15&#45;&gt;Node17 -->
<g id="edge20" class="edge">
<title>Node15&#45;&gt;Node17</title>
<path fill="none" stroke="#191970" d="M1014.4438,-113.6927C1017.5802,-113.0455 1020.7276,-112.4644 1023.7696,-112 1268.7963,-74.595 1338.9578,-120.5442 1586.4965,-75.8157"/>
<polygon fill="#191970" stroke="#191970" points="1587.3112,-79.2247 1596.5135,-73.9741 1586.0454,-72.3401 1587.3112,-79.2247"/>
</g>
<!-- Node18 -->
<g id="node19" class="node">
<title>Node18</title>
<polygon fill="#ffffff" stroke="#bfbfbf" points="1660.7696,-56.5 1660.7696,-75.5 1708.7696,-75.5 1708.7696,-56.5 1660.7696,-56.5"/>
<text text-anchor="middle" x="1684.7696" y="-63.5" font-family="Helvetica,sans-Serif" font-size="10.00" fill="#000000">stdlib.h</text>
</g>
<!-- Node15&#45;&gt;Node18 -->
<g id="edge21" class="edge">
<title>Node15&#45;&gt;Node18</title>
<path fill="none" stroke="#191970" d="M1014.4407,-113.672C1017.5777,-113.0291 1020.7261,-112.4545 1023.7696,-112 1297.0322,-71.1903 1374.6925,-123.6247 1650.5218,-75.8251"/>
<polygon fill="#191970" stroke="#191970" points="1651.1769,-79.2637 1660.4182,-74.0821 1649.9626,-72.3698 1651.1769,-79.2637"/>
</g>
<!-- Node19 -->
<g id="node20" class="node">
<title>Node19</title>
<polygon fill="#ffffff" stroke="#bfbfbf" points="1727.2696,-56.5 1727.2696,-75.5 1776.2696,-75.5 1776.2696,-56.5 1727.2696,-56.5"/>
<text text-anchor="middle" x="1751.7696" y="-63.5" font-family="Helvetica,sans-Serif" font-size="10.00" fill="#000000">string.h</text>
</g>
<!-- Node15&#45;&gt;Node19 -->
<g id="edge22" class="edge">
<title>Node15&#45;&gt;Node19</title>
<path fill="none" stroke="#191970" d="M1014.4381,-113.6547C1017.5756,-113.0152 1020.7249,-112.4462 1023.7696,-112 1326.0811,-67.6916 1411.4784,-126.6382 1717.0133,-75.6984"/>
<polygon fill="#191970" stroke="#191970" points="1717.7696,-79.1202 1727.0449,-73.9998 1716.6009,-72.2185 1717.7696,-79.1202"/>
</g>
<!-- Node20 -->
<g id="node21" class="node">
<title>Node20</title>
<polygon fill="#ffffff" stroke="#bfbfbf" points="1794.2696,-56.5 1794.2696,-75.5 1847.2696,-75.5 1847.2696,-56.5 1794.2696,-56.5"/>
<text text-anchor="middle" x="1820.7696" y="-63.5" font-family="Helvetica,sans-Serif" font-size="10.00" fill="#000000">lwip/ip.h</text>
</g>
<!-- Node15&#45;&gt;Node20 -->
<g id="edge24" class="edge">
<title>Node15&#45;&gt;Node20</title>
<path fill="none" stroke="#191970" d="M1014.436,-113.6399C1017.5739,-113.0035 1020.7238,-112.4392 1023.7696,-112 1356.0656,-64.0804 1449.3883,-129.6337 1784.1849,-75.9127"/>
<polygon fill="#191970" stroke="#191970" points="1784.8536,-79.3501 1794.1611,-74.2883 1783.7285,-72.441 1784.8536,-79.3501"/>
</g>
<!-- Node21 -->
<g id="node22" class="node">
<title>Node21</title>
<polygon fill="#ffffff" stroke="#bfbfbf" points="240.7696,-56.5 240.7696,-75.5 302.7696,-75.5 302.7696,-56.5 240.7696,-56.5"/>
<text text-anchor="middle" x="271.7696" y="-63.5" font-family="Helvetica,sans-Serif" font-size="10.00" fill="#000000">lwip/udp.h</text>
</g>
<!-- Node15&#45;&gt;Node21 -->
<g id="edge25" class="edge">
<title>Node15&#45;&gt;Node21</title>
<path fill="none" stroke="#191970" d="M951.0787,-119.7036C922.7047,-117.6553 879.9618,-114.589 842.7696,-112 610.1402,-95.8061 547.1996,-112.3476 313.2906,-75.9913"/>
<polygon fill="#191970" stroke="#191970" points="313.5264,-72.4856 303.1044,-74.3917 312.4404,-79.4008 313.5264,-72.4856"/>
</g>
<!-- Node22 -->
<g id="node23" class="node">
<title>Node22</title>
<polygon fill="#ffffff" stroke="#bfbfbf" points="320.7696,-56.5 320.7696,-75.5 402.7696,-75.5 402.7696,-56.5 320.7696,-56.5"/>
<text text-anchor="middle" x="361.7696" y="-63.5" font-family="Helvetica,sans-Serif" font-size="10.00" fill="#000000">lwip/tcp_impl.h</text>
</g>
<!-- Node15&#45;&gt;Node22 -->
<g id="edge26" class="edge">
<title>Node15&#45;&gt;Node22</title>
<path fill="none" stroke="#191970" d="M951.1589,-119.6712C844.1066,-111.7559 497.6232,-85.8936 412.8828,-75.8981"/>
<polygon fill="#191970" stroke="#191970" points="413.2681,-72.419 402.9052,-74.6237 412.3811,-79.3626 413.2681,-72.419"/>
</g>
<!-- Node23 -->
<g id="node24" class="node">
<title>Node23</title>
<polygon fill="#ffffff" stroke="#bfbfbf" points="421.2696,-56.5 421.2696,-75.5 496.2696,-75.5 496.2696,-56.5 421.2696,-56.5"/>
<text text-anchor="middle" x="458.7696" y="-63.5" font-family="Helvetica,sans-Serif" font-size="10.00" fill="#000000">netif/etharp.h</text>
</g>
<!-- Node15&#45;&gt;Node23 -->
<g id="edge27" class="edge">
<title>Node15&#45;&gt;Node23</title>
<path fill="none" stroke="#191970" d="M951.1228,-119.421C862.0999,-112.0936 609.8326,-90.8137 506.5154,-75.9134"/>
<polygon fill="#191970" stroke="#191970" points="506.8181,-72.4198 496.4103,-74.4016 505.7823,-79.3428 506.8181,-72.4198"/>
</g>
<!-- Node24 -->
<g id="node25" class="node">
<title>Node24</title>
<polygon fill="#ffffff" stroke="#bfbfbf" points="514.7696,-56.5 514.7696,-75.5 578.7696,-75.5 578.7696,-56.5 514.7696,-56.5"/>
<text text-anchor="middle" x="546.7696" y="-63.5" font-family="Helvetica,sans-Serif" font-size="10.00" fill="#000000">lwip/netif.h</text>
</g>
<!-- Node15&#45;&gt;Node24 -->
<g id="edge28" class="edge">
<title>Node15&#45;&gt;Node24</title>
<path fill="none" stroke="#191970" d="M951.0862,-119.6449C885.3732,-114.475 729.3501,-100.7216 588.9957,-76.0346"/>
<polygon fill="#191970" stroke="#191970" points="589.3778,-72.5476 578.9187,-74.2382 588.1492,-79.4389 589.3778,-72.5476"/>
</g>
<!-- Node25 -->
<g id="node26" class="node">
<title>Node25</title>
<polygon fill="#ffffff" stroke="#bfbfbf" points="597.2696,-56.5 597.2696,-75.5 684.2696,-75.5 684.2696,-56.5 597.2696,-56.5"/>
<text text-anchor="middle" x="640.7696" y="-63.5" font-family="Helvetica,sans-Serif" font-size="10.00" fill="#000000">lwip/lwip_napt.h</text>
</g>
<!-- Node15&#45;&gt;Node25 -->
<g id="edge29" class="edge">
<title>Node15&#45;&gt;Node25</title>
<path fill="none" stroke="#191970" d="M950.958,-117.3018C899.2491,-109.5896 793.5131,-93.5066 694.3278,-76.2352"/>
<polygon fill="#191970" stroke="#191970" points="694.8968,-72.7816 684.4433,-74.5061 693.6906,-79.6769 694.8968,-72.7816"/>
</g>
<!-- Node26 -->
<g id="node27" class="node">
<title>Node26</title>
<polygon fill="#ffffff" stroke="#bfbfbf" points="702.2696,-56.5 702.2696,-75.5 763.2696,-75.5 763.2696,-56.5 702.2696,-56.5"/>
<text text-anchor="middle" x="732.7696" y="-63.5" font-family="Helvetica,sans-Serif" font-size="10.00" fill="#000000">lwip/dns.h</text>
</g>
<!-- Node15&#45;&gt;Node26 -->
<g id="edge30" class="edge">
<title>Node15&#45;&gt;Node26</title>
<path fill="none" stroke="#191970" d="M951.0405,-115.3528C911.712,-107.0472 842.4011,-92.194 773.0979,-76.0257"/>
<polygon fill="#191970" stroke="#191970" points="773.8567,-72.6088 763.322,-73.7361 772.2604,-79.4243 773.8567,-72.6088"/>
</g>
<!-- Node27 -->
<g id="node28" class="node">
<title>Node27</title>
<polygon fill="#ffffff" stroke="#bfbfbf" points="781.7696,-56.5 781.7696,-75.5 895.7696,-75.5 895.7696,-56.5 781.7696,-56.5"/>
<text text-anchor="middle" x="838.7696" y="-63.5" font-family="Helvetica,sans-Serif" font-size="10.00" fill="#000000">lwip/app/dhcpserver.h</text>
</g>
<!-- Node15&#45;&gt;Node27 -->
<g id="edge31" class="edge">
<title>Node15&#45;&gt;Node27</title>
<path fill="none" stroke="#191970" d="M958.0151,-112.3733C934.4847,-103.2226 898.9009,-89.3844 872.727,-79.2057"/>
<polygon fill="#191970" stroke="#191970" points="873.7897,-75.8636 863.201,-75.5011 871.2525,-82.3877 873.7897,-75.8636"/>
</g>
<!-- Node28 -->
<g id="node29" class="node">
<title>Node28</title>
<polygon fill="#ffffff" stroke="#bfbfbf" points="914.2696,-56.5 914.2696,-75.5 973.2696,-75.5 973.2696,-56.5 914.2696,-56.5"/>
<text text-anchor="middle" x="943.7696" y="-63.5" font-family="Helvetica,sans-Serif" font-size="10.00" fill="#000000">lwip/opt.h</text>
</g>
<!-- Node15&#45;&gt;Node28 -->
<g id="edge32" class="edge">
<title>Node15&#45;&gt;Node28</title>
<path fill="none" stroke="#191970" d="M975.9763,-112.2455C970.5517,-104.4564 962.8035,-93.3308 956.2662,-83.9439"/>
<polygon fill="#191970" stroke="#191970" points="959.0721,-81.8485 950.485,-75.6427 953.3279,-85.849 959.0721,-81.8485"/>
</g>
<!-- Node29 -->
<g id="node30" class="node">
<title>Node29</title>
<polygon fill="#ffffff" stroke="#bfbfbf" points="991.2696,-56.5 991.2696,-75.5 1054.2696,-75.5 1054.2696,-56.5 991.2696,-56.5"/>
<text text-anchor="middle" x="1022.7696" y="-63.5" font-family="Helvetica,sans-Serif" font-size="10.00" fill="#000000">espconn.h</text>
</g>
<!-- Node15&#45;&gt;Node29 -->
<g id="edge33" class="edge">
<title>Node15&#45;&gt;Node29</title>
<path fill="none" stroke="#191970" d="M989.737,-112.2455C995.3007,-104.4564 1003.2476,-93.3308 1009.9525,-83.9439"/>
<polygon fill="#191970" stroke="#191970" points="1012.9176,-85.8144 1015.8819,-75.6427 1007.2214,-81.7457 1012.9176,-85.8144"/>
</g>
<!-- Node30 -->
<g id="node31" class="node">
<title>Node30</title>
<polygon fill="#ffffff" stroke="#bfbfbf" points="1072.7696,-56.5 1072.7696,-75.5 1116.7696,-75.5 1116.7696,-56.5 1072.7696,-56.5"/>
<text text-anchor="middle" x="1094.7696" y="-63.5" font-family="Helvetica,sans-Serif" font-size="10.00" fill="#000000">gpio.h</text>
</g>
<!-- Node15&#45;&gt;Node30 -->
<g id="edge35" class="edge">
<title>Node15&#45;&gt;Node30</title>
<path fill="none" stroke="#191970" d="M1002.0231,-112.3733C1019.8407,-103.4644 1046.5442,-90.1127 1066.729,-80.0203"/>
<polygon fill="#191970" stroke="#191970" points="1068.3883,-83.1038 1075.7673,-75.5011 1065.2578,-76.8428 1068.3883,-83.1038"/>
</g>
<!-- Node31 -->
<g id="node32" class="node">
<title>Node31</title>
<polygon fill="#ffffff" stroke="#bfbfbf" points="1135.2696,-56.5 1135.2696,-75.5 1182.2696,-75.5 1182.2696,-56.5 1135.2696,-56.5"/>
<text text-anchor="middle" x="1158.7696" y="-63.5" font-family="Helvetica,sans-Serif" font-size="10.00" fill="#000000">mem.h</text>
</g>
<!-- Node15&#45;&gt;Node31 -->
<g id="edge36" class="edge">
<title>Node15&#45;&gt;Node31</title>
<path fill="none" stroke="#191970" d="M1013.025,-112.3733C1044.2422,-102.4405 1092.8171,-86.9849 1125.1996,-76.6813"/>
<polygon fill="#191970" stroke="#191970" points="1126.6339,-79.8979 1135.102,-73.5306 1124.5115,-73.2275 1126.6339,-79.8979"/>
</g>
<!-- Node32 -->
<g id="node33" class="node">
<title>Node32</title>
<polygon fill="#ffffff" stroke="#bfbfbf" points="1200.7696,-56.5 1200.7696,-75.5 1262.7696,-75.5 1262.7696,-56.5 1200.7696,-56.5"/>
<text text-anchor="middle" x="1231.7696" y="-63.5" font-family="Helvetica,sans-Serif" font-size="10.00" fill="#000000">upgrade.h</text>
</g>
<!-- Node15&#45;&gt;Node32 -->
<g id="edge39" class="edge">
<title>Node15&#45;&gt;Node32</title>
<path fill="none" stroke="#191970" d="M1014.5328,-114.1595C1017.6511,-113.4178 1020.77,-112.687 1023.7696,-112 1095.1508,-95.6504 1115.7183,-93.427 1190.4559,-76.2498"/>
<polygon fill="#191970" stroke="#191970" points="1191.3967,-79.6247 1200.351,-73.9614 1189.8195,-72.8047 1191.3967,-79.6247"/>
</g>
<!-- Node33 -->
<g id="node34" class="node">
<title>Node33</title>
<g id="a_node34"><a xlink:href="platform_8h.html" target="_top" xlink:title="platform.h">
<polygon fill="#ffffff" stroke="#000000" points="1281.2696,-56.5 1281.2696,-75.5 1342.2696,-75.5 1342.2696,-56.5 1281.2696,-56.5"/>
<text text-anchor="middle" x="1311.7696" y="-63.5" font-family="Helvetica,sans-Serif" font-size="10.00" fill="#000000">platform.h</text>
</a>
</g>
</g>
<!-- Node15&#45;&gt;Node33 -->
<g id="edge40" class="edge">
<title>Node15&#45;&gt;Node33</title>
<path fill="none" stroke="#191970" d="M1014.4881,-113.9482C1017.6155,-113.2493 1020.7487,-112.5863 1023.7696,-112 1130.0105,-91.3812 1160.765,-97.1738 1271.3861,-75.8935"/>
<polygon fill="#191970" stroke="#191970" points="1272.123,-79.3158 1281.2659,-73.9625 1270.7802,-72.4458 1272.123,-79.3158"/>
</g>
<!-- Node34 -->
<g id="node35" class="node">
<title>Node34</title>
<g id="a_node35"><a xlink:href="espmissingincludes_8h.html" target="_top" xlink:title="espmissingincludes.h">
<polygon fill="#ffffff" stroke="#000000" points="1360.7696,-56.5 1360.7696,-75.5 1472.7696,-75.5 1472.7696,-56.5 1360.7696,-56.5"/>
<text text-anchor="middle" x="1416.7696" y="-63.5" font-family="Helvetica,sans-Serif" font-size="10.00" fill="#000000">espmissingincludes.h</text>
</a>
</g>
</g>
<!-- Node15&#45;&gt;Node34 -->
<g id="edge41" class="edge">
<title>Node15&#45;&gt;Node34</title>
<path fill="none" stroke="#191970" d="M1014.4677,-113.8377C1017.5992,-113.1612 1020.739,-112.5336 1023.7696,-112 1164.9573,-87.1423 1204.6043,-94.7859 1350.2134,-76.1489"/>
<polygon fill="#191970" stroke="#191970" points="1350.9554,-79.582 1360.4207,-74.8219 1350.0529,-72.6404 1350.9554,-79.582"/>
</g>
<!-- Node34&#45;&gt;Node1 -->
<g id="edge45" class="edge">
<title>Node34&#45;&gt;Node1</title>
<path fill="none" stroke="#191970" d="M1360.448,-56.9393C1357.5167,-56.5917 1354.6107,-56.275 1351.7696,-56 1131.5835,-34.6843 427.3536,-15.5176 252.4007,-11.002"/>
<polygon fill="#191970" stroke="#191970" points="252.4366,-7.5019 242.3499,-10.7437 252.2567,-14.4996 252.4366,-7.5019"/>
</g>
<!-- Node34&#45;&gt;Node5 -->
<g id="edge44" class="edge">
<title>Node34&#45;&gt;Node5</title>
<path fill="none" stroke="#191970" d="M1472.8758,-58.9076C1561.7385,-47.6744 1733.1152,-26.0105 1814.602,-15.7097"/>
<polygon fill="#191970" stroke="#191970" points="1815.0687,-19.1786 1824.5508,-14.452 1814.1908,-12.2339 1815.0687,-19.1786"/>
</g>
<!-- Node34&#45;&gt;Node6 -->
<g id="edge43" class="edge">
<title>Node34&#45;&gt;Node6</title>
<path fill="none" stroke="#191970" d="M1447.025,-56.3733C1476.5069,-46.9927 1521.4703,-32.6861 1553.655,-22.4455"/>
<polygon fill="#191970" stroke="#191970" points="1554.7338,-25.7753 1563.2018,-19.4079 1552.6113,-19.1048 1554.7338,-25.7753"/>
</g>
<!-- Node35 -->
<g id="node36" class="node">
<title>Node35</title>
<polygon fill="#ffffff" stroke="#bfbfbf" points="1392.2696,-.5 1392.2696,-19.5 1441.2696,-19.5 1441.2696,-.5 1392.2696,-.5"/>
<text text-anchor="middle" x="1416.7696" y="-7.5" font-family="Helvetica,sans-Serif" font-size="10.00" fill="#000000">stdint.h</text>
</g>
<!-- Node34&#45;&gt;Node35 -->
<g id="edge42" class="edge">
<title>Node34&#45;&gt;Node35</title>
<path fill="none" stroke="#191970" d="M1416.7696,-56.2455C1416.7696,-48.9382 1416.7696,-38.6944 1416.7696,-29.7046"/>
<polygon fill="#191970" stroke="#191970" points="1420.2697,-29.6426 1416.7696,-19.6427 1413.2697,-29.6427 1420.2697,-29.6426"/>
</g>
</g>
</svg>
