<?xml version="1.0" encoding="UTF-8" standalone="no"?>
<!DOCTYPE svg PUBLIC "-//W3C//DTD SVG 1.1//EN"
 "http://www.w3.org/Graphics/SVG/1.1/DTD/svg11.dtd">
<!-- Generated by graphviz version 2.39.20160927.1334 (20160927.1334)
 -->
<!-- Title: uart0_write_char Pages: 1 -->
<svg width="1222pt" height="106pt"
 viewBox="0.00 0.00 1222.00 105.90" xmlns="http://www.w3.org/2000/svg" xmlns:xlink="http://www.w3.org/1999/xlink">
<g id="graph0" class="graph" transform="scale(1 1) rotate(0) translate(4 101.902)">
<title>uart0_write_char</title>
<polygon fill="#ffffff" stroke="transparent" points="-4,4 -4,-101.902 1218,-101.902 1218,4 -4,4"/>
<!-- Node1 -->
<g id="node1" class="node">
<title>Node1</title>
<polygon fill="#bfbfbf" stroke="#000000" points="0,-28.902 0,-47.902 91,-47.902 91,-28.902 0,-28.902"/>
<text text-anchor="middle" x="45.5" y="-35.902" font-family="Helvetica,sans-Serif" font-size="10.00" fill="#000000">uart0_write_char</text>
</g>
<!-- Node2 -->
<g id="node2" class="node">
<title>Node2</title>
<g id="a_node2"><a xlink:href="uart_8h.html#a1fdfa60721412bedfeb7be0ebc4d1700" target="_top" xlink:title="uart_init">
<polygon fill="#ffffff" stroke="#000000" points="127,-28.902 127,-47.902 179,-47.902 179,-28.902 127,-28.902"/>
<text text-anchor="middle" x="153" y="-35.902" font-family="Helvetica,sans-Serif" font-size="10.00" fill="#000000">uart_init</text>
</a>
</g>
</g>
<!-- Node1&#45;&gt;Node2 -->
<g id="edge1" class="edge">
<title>Node1&#45;&gt;Node2</title>
<path fill="none" stroke="#191970" d="M101.211,-38.402C110.196,-38.402 119.108,-38.402 126.941,-38.402"/>
<polygon fill="#191970" stroke="#191970" points="101.09,-34.9021 91.0897,-38.402 101.09,-41.9021 101.09,-34.9021"/>
</g>
<!-- Node3 -->
<g id="node3" class="node">
<title>Node3</title>
<g id="a_node3"><a xlink:href="uart_8c.html#a15a9e8dca40ebbeea858ce8f081c06cf" target="_top" xlink:title="uart_reattach">
<polygon fill="#ffffff" stroke="#000000" points="253.5,-66.902 253.5,-85.902 328.5,-85.902 328.5,-66.902 253.5,-66.902"/>
<text text-anchor="middle" x="291" y="-73.902" font-family="Helvetica,sans-Serif" font-size="10.00" fill="#000000">uart_reattach</text>
</a>
</g>
</g>
<!-- Node2&#45;&gt;Node3 -->
<g id="edge2" class="edge">
<title>Node2&#45;&gt;Node3</title>
<path fill="none" stroke="#191970" d="M188.857,-49.7395C197.399,-52.3436 206.502,-55.0395 215,-57.402 227.448,-60.8629 241.124,-64.3717 253.401,-67.4162"/>
<polygon fill="#191970" stroke="#191970" points="189.744,-46.3505 179.157,-46.7503 187.683,-53.0401 189.744,-46.3505"/>
</g>
<!-- Node4 -->
<g id="node4" class="node">
<title>Node4</title>
<g id="a_node4"><a xlink:href="en61107__request_8h.html#a8b0d746dce87f92833ba6f5b83febe63" target="_top" xlink:title="en61107_get_data_timer_func">
<polygon fill="#ffffff" stroke="#000000" points="215,-28.902 215,-47.902 367,-47.902 367,-28.902 215,-28.902"/>
<text text-anchor="middle" x="291" y="-35.902" font-family="Helvetica,sans-Serif" font-size="10.00" fill="#000000">en61107_get_data_timer_func</text>
</a>
</g>
</g>
<!-- Node2&#45;&gt;Node4 -->
<g id="edge3" class="edge">
<title>Node2&#45;&gt;Node4</title>
<path fill="none" stroke="#191970" d="M189.521,-38.402C197.403,-38.402 206.017,-38.402 214.788,-38.402"/>
<polygon fill="#191970" stroke="#191970" points="189.282,-34.9021 179.282,-38.402 189.282,-41.9021 189.282,-34.9021"/>
</g>
<!-- Node11 -->
<g id="node11" class="node">
<title>Node11</title>
<g id="a_node11"><a xlink:href="user__main_8h.html#a33113d6dedb440bd7dfa5576e325140c" target="_top" xlink:title="user_init">
<polygon fill="#ffffff" stroke="#000000" points="1160,-9.90201 1160,-28.902 1214,-28.902 1214,-9.90201 1160,-9.90201"/>
<text text-anchor="middle" x="1187" y="-16.902" font-family="Helvetica,sans-Serif" font-size="10.00" fill="#000000">user_init</text>
</a>
</g>
</g>
<!-- Node2&#45;&gt;Node11 -->
<g id="edge12" class="edge">
<title>Node2&#45;&gt;Node11</title>
<path fill="none" stroke="#191970" d="M188.848,-25.9468C197.333,-23.4102 206.413,-21.0247 215,-19.402 324.058,1.20604 353.012,-0.402013 464,-0.402013 464,-0.402013 464,-0.402013 928,-0.402013 1012.76,-0.402013 1112.71,-10.6488 1159.83,-16.0925"/>
<polygon fill="#191970" stroke="#191970" points="187.726,-22.6307 179.227,-28.9572 189.816,-29.3113 187.726,-22.6307"/>
</g>
<!-- Node5 -->
<g id="node5" class="node">
<title>Node5</title>
<g id="a_node5"><a xlink:href="en61107__request_8h.html#a7384d014eb9e833f64ecf4a9f86f87be" target="_top" xlink:title="en61107_request_send">
<polygon fill="#ffffff" stroke="#000000" points="403,-50.902 403,-69.902 525,-69.902 525,-50.902 403,-50.902"/>
<text text-anchor="middle" x="464" y="-57.902" font-family="Helvetica,sans-Serif" font-size="10.00" fill="#000000">en61107_request_send</text>
</a>
</g>
</g>
<!-- Node4&#45;&gt;Node5 -->
<g id="edge4" class="edge">
<title>Node4&#45;&gt;Node5</title>
<path fill="none" stroke="#191970" d="M376.038,-49.2161C385.067,-50.3643 394.117,-51.5151 402.795,-52.6187"/>
<polygon fill="#191970" stroke="#191970" points="376.236,-45.7131 365.874,-47.9236 375.353,-52.6572 376.236,-45.7131"/>
</g>
<!-- Node6 -->
<g id="node6" class="node">
<title>Node6</title>
<g id="a_node6"><a xlink:href="en61107__request_8h.html#a6379eaf88ea35baaf2a3ab8a0ae66fdb" target="_top" xlink:title="en61107_receive_timeout\l_timer_func">
<polygon fill="#ffffff" stroke="#000000" points="561,-67.402 561,-97.402 693,-97.402 693,-67.402 561,-67.402"/>
<text text-anchor="start" x="569" y="-85.402" font-family="Helvetica,sans-Serif" font-size="10.00" fill="#000000">en61107_receive_timeout</text>
<text text-anchor="middle" x="627" y="-74.402" font-family="Helvetica,sans-Serif" font-size="10.00" fill="#000000">_timer_func</text>
</a>
</g>
</g>
<!-- Node5&#45;&gt;Node6 -->
<g id="edge5" class="edge">
<title>Node5&#45;&gt;Node6</title>
<path fill="none" stroke="#191970" d="M535.2,-63.31C544.927,-64.5314 554.853,-65.9098 564.412,-67.3687"/>
<polygon fill="#191970" stroke="#191970" points="535.507,-59.8216 525.159,-62.097 534.667,-66.7711 535.507,-59.8216"/>
</g>
<!-- Node7 -->
<g id="node7" class="node">
<title>Node7</title>
<g id="a_node7"><a xlink:href="user__main_8c.html#af2c051d5ceacd30f90c08d6f584deff2" target="_top" xlink:title="sample_timer_func">
<polygon fill="#ffffff" stroke="#000000" points="576.5,-28.902 576.5,-47.902 677.5,-47.902 677.5,-28.902 576.5,-28.902"/>
<text text-anchor="middle" x="627" y="-35.902" font-family="Helvetica,sans-Serif" font-size="10.00" fill="#000000">sample_timer_func</text>
</a>
</g>
</g>
<!-- Node5&#45;&gt;Node7 -->
<g id="edge7" class="edge">
<title>Node5&#45;&gt;Node7</title>
<path fill="none" stroke="#191970" d="M535.176,-50.7954C549.064,-48.921 563.358,-46.9917 576.411,-45.23"/>
<polygon fill="#191970" stroke="#191970" points="534.601,-47.3412 525.159,-52.1474 535.537,-54.2783 534.601,-47.3412"/>
</g>
<!-- Node6&#45;&gt;Node5 -->
<g id="edge6" class="edge">
<title>Node6&#45;&gt;Node5</title>
<path fill="none" stroke="#191970" d="M550.692,-78.8405C530.85,-76.2557 510.595,-73.0799 494.659,-69.9515"/>
<polygon fill="#191970" stroke="#191970" points="550.332,-82.3228 560.691,-80.097 551.205,-75.3774 550.332,-82.3228"/>
</g>
<!-- Node8 -->
<g id="node8" class="node">
<title>Node8</title>
<g id="a_node8"><a xlink:href="user__main_8h.html#a06f2b383d99fcad9d0f37d1ca2224898" target="_top" xlink:title="mqttConnectedCb">
<polygon fill="#ffffff" stroke="#000000" points="729,-28.902 729,-47.902 826,-47.902 826,-28.902 729,-28.902"/>
<text text-anchor="middle" x="777.5" y="-35.902" font-family="Helvetica,sans-Serif" font-size="10.00" fill="#000000">mqttConnectedCb</text>
</a>
</g>
</g>
<!-- Node7&#45;&gt;Node8 -->
<g id="edge8" class="edge">
<title>Node7&#45;&gt;Node8</title>
<path fill="none" stroke="#191970" d="M687.819,-38.402C701.48,-38.402 715.8,-38.402 728.885,-38.402"/>
<polygon fill="#191970" stroke="#191970" points="687.533,-34.9021 677.533,-38.402 687.533,-41.9021 687.533,-34.9021"/>
</g>
<!-- Node9 -->
<g id="node9" class="node">
<title>Node9</title>
<g id="a_node9"><a xlink:href="user__main_8c.html#a245ec00253f410a8804988bf40e1037e" target="_top" xlink:title="sample_mode_timer_func">
<polygon fill="#ffffff" stroke="#000000" points="862,-28.902 862,-47.902 994,-47.902 994,-28.902 862,-28.902"/>
<text text-anchor="middle" x="928" y="-35.902" font-family="Helvetica,sans-Serif" font-size="10.00" fill="#000000">sample_mode_timer_func</text>
</a>
</g>
</g>
<!-- Node8&#45;&gt;Node9 -->
<g id="edge9" class="edge">
<title>Node8&#45;&gt;Node9</title>
<path fill="none" stroke="#191970" d="M836.387,-38.402C844.745,-38.402 853.385,-38.402 861.869,-38.402"/>
<polygon fill="#191970" stroke="#191970" points="836.363,-34.9021 826.363,-38.402 836.363,-41.9021 836.363,-34.9021"/>
</g>
<!-- Node10 -->
<g id="node10" class="node">
<title>Node10</title>
<g id="a_node10"><a xlink:href="user__main_8h.html#a3671381db669a16e8f6a4bf3dfb9a441" target="_top" xlink:title="system_init_done">
<polygon fill="#ffffff" stroke="#000000" points="1030,-28.902 1030,-47.902 1124,-47.902 1124,-28.902 1030,-28.902"/>
<text text-anchor="middle" x="1077" y="-35.902" font-family="Helvetica,sans-Serif" font-size="10.00" fill="#000000">system_init_done</text>
</a>
</g>
</g>
<!-- Node9&#45;&gt;Node10 -->
<g id="edge10" class="edge">
<title>Node9&#45;&gt;Node10</title>
<path fill="none" stroke="#191970" d="M1004.36,-38.402C1013.01,-38.402 1021.62,-38.402 1029.74,-38.402"/>
<polygon fill="#191970" stroke="#191970" points="1004.22,-34.9021 994.221,-38.402 1004.22,-41.9021 1004.22,-34.9021"/>
</g>
<!-- Node10&#45;&gt;Node11 -->
<g id="edge11" class="edge">
<title>Node10&#45;&gt;Node11</title>
<path fill="none" stroke="#191970" d="M1134.29,-28.5067C1143.16,-26.9744 1151.95,-25.4558 1159.74,-24.1108"/>
<polygon fill="#191970" stroke="#191970" points="1133.55,-25.083 1124.29,-30.234 1134.74,-31.9808 1133.55,-25.083"/>
</g>
</g>
</svg>
