<?xml version="1.0" encoding="UTF-8" standalone="no"?>
<!DOCTYPE svg PUBLIC "-//W3C//DTD SVG 1.1//EN"
 "http://www.w3.org/Graphics/SVG/1.1/DTD/svg11.dtd">
<!-- Generated by graphviz version 2.41.20170323.1842 (20170323.1842)
 -->
<!-- Title: user/unix_time.c Pages: 1 -->
<svg width="1826pt" height="196pt"
 viewBox="0.00 0.00 1826.00 196.00" xmlns="http://www.w3.org/2000/svg" xmlns:xlink="http://www.w3.org/1999/xlink">
<g id="graph0" class="graph" transform="scale(1 1) rotate(0) translate(4 192)">
<title>user/unix_time.c</title>
<polygon fill="#ffffff" stroke="transparent" points="-4,4 -4,-192 1822,-192 1822,4 -4,4"/>
<!-- Node0 -->
<g id="node1" class="node">
<title>Node0</title>
<polygon fill="#bfbfbf" stroke="#000000" points="920,-168.5 920,-187.5 1009,-187.5 1009,-168.5 920,-168.5"/>
<text text-anchor="middle" x="964.5" y="-175.5" font-family="Helvetica,sans-Serif" font-size="10.00" fill="#000000">user/unix_time.c</text>
</g>
<!-- Node1 -->
<g id="node2" class="node">
<title>Node1</title>
<g id="a_node2"><a xlink:href="esp8266_8h.html" target="_top" xlink:title="esp8266.h">
<polygon fill="#ffffff" stroke="#000000" points="818,-112.5 818,-131.5 881,-131.5 881,-112.5 818,-112.5"/>
<text text-anchor="middle" x="849.5" y="-119.5" font-family="Helvetica,sans-Serif" font-size="10.00" fill="#000000">esp8266.h</text>
</a>
</g>
</g>
<!-- Node0&#45;&gt;Node1 -->
<g id="edge1" class="edge">
<title>Node0&#45;&gt;Node1</title>
<path fill="none" stroke="#191970" d="M944.7308,-168.3733C926.3531,-159.4241 898.7688,-145.9917 878.0107,-135.8835"/>
<polygon fill="#191970" stroke="#191970" points="879.5343,-132.7325 869.0112,-131.5011 876.4696,-139.026 879.5343,-132.7325"/>
</g>
<!-- Node27 -->
<g id="node28" class="node">
<title>Node27</title>
<g id="a_node28"><a xlink:href="debug_8h.html" target="_top" xlink:title="debug.h">
<polygon fill="#ffffff" stroke="#000000" points="899,-112.5 899,-131.5 952,-131.5 952,-112.5 899,-112.5"/>
<text text-anchor="middle" x="925.5" y="-119.5" font-family="Helvetica,sans-Serif" font-size="10.00" fill="#000000">debug.h</text>
</a>
</g>
</g>
<!-- Node0&#45;&gt;Node27 -->
<g id="edge29" class="edge">
<title>Node0&#45;&gt;Node27</title>
<path fill="none" stroke="#191970" d="M957.7067,-168.2455C952.2822,-160.4564 944.5339,-149.3308 937.9967,-139.9439"/>
<polygon fill="#191970" stroke="#191970" points="940.8025,-137.8485 932.2154,-131.6427 935.0583,-141.849 940.8025,-137.8485"/>
</g>
<!-- Node28 -->
<g id="node29" class="node">
<title>Node28</title>
<g id="a_node29"><a xlink:href="unix__time_8h.html" target="_top" xlink:title="unix_time.h">
<polygon fill="#ffffff" stroke="#000000" points="970.5,-112.5 970.5,-131.5 1038.5,-131.5 1038.5,-112.5 970.5,-112.5"/>
<text text-anchor="middle" x="1004.5" y="-119.5" font-family="Helvetica,sans-Serif" font-size="10.00" fill="#000000">unix_time.h</text>
</a>
</g>
</g>
<!-- Node0&#45;&gt;Node28 -->
<g id="edge30" class="edge">
<title>Node0&#45;&gt;Node28</title>
<path fill="none" stroke="#191970" d="M971.4675,-168.2455C977.0311,-160.4564 984.978,-149.3308 991.6829,-139.9439"/>
<polygon fill="#191970" stroke="#191970" points="994.648,-141.8144 997.6124,-131.6427 988.9519,-137.7457 994.648,-141.8144"/>
</g>
<!-- Node29 -->
<g id="node30" class="node">
<title>Node29</title>
<polygon fill="#ffffff" stroke="#bfbfbf" points="1056.5,-112.5 1056.5,-131.5 1100.5,-131.5 1100.5,-112.5 1056.5,-112.5"/>
<text text-anchor="middle" x="1078.5" y="-119.5" font-family="Helvetica,sans-Serif" font-size="10.00" fill="#000000">sntp.h</text>
</g>
<!-- Node0&#45;&gt;Node29 -->
<g id="edge31" class="edge">
<title>Node0&#45;&gt;Node29</title>
<path fill="none" stroke="#191970" d="M984.0973,-168.3733C1002.2331,-159.4644 1029.4135,-146.1127 1049.9587,-136.0203"/>
<polygon fill="#191970" stroke="#191970" points="1051.7261,-139.0517 1059.1584,-131.5011 1048.6397,-132.7688 1051.7261,-139.0517"/>
</g>
<!-- Node2 -->
<g id="node3" class="node">
<title>Node2</title>
<polygon fill="#ffffff" stroke="#bfbfbf" points="0,-56.5 0,-75.5 49,-75.5 49,-56.5 0,-56.5"/>
<text text-anchor="middle" x="24.5" y="-63.5" font-family="Helvetica,sans-Serif" font-size="10.00" fill="#000000">ctype.h</text>
</g>
<!-- Node1&#45;&gt;Node2 -->
<g id="edge2" class="edge">
<title>Node1&#45;&gt;Node2</title>
<path fill="none" stroke="#191970" d="M817.5845,-121.1151C691.5209,-117.4726 227.3625,-102.6369 59.1602,-75.6505"/>
<polygon fill="#191970" stroke="#191970" points="59.6696,-72.1871 49.2278,-73.9814 58.5095,-79.0903 59.6696,-72.1871"/>
</g>
<!-- Node3 -->
<g id="node4" class="node">
<title>Node3</title>
<polygon fill="#ffffff" stroke="#bfbfbf" points="67.5,-56.5 67.5,-75.5 113.5,-75.5 113.5,-56.5 67.5,-56.5"/>
<text text-anchor="middle" x="90.5" y="-63.5" font-family="Helvetica,sans-Serif" font-size="10.00" fill="#000000">stdio.h</text>
</g>
<!-- Node1&#45;&gt;Node3 -->
<g id="edge3" class="edge">
<title>Node1&#45;&gt;Node3</title>
<path fill="none" stroke="#191970" d="M817.7011,-121.002C698.6243,-117.1114 278.4475,-101.9656 123.976,-75.7969"/>
<polygon fill="#191970" stroke="#191970" points="124.2148,-72.2844 113.7558,-73.9756 122.9866,-79.1758 124.2148,-72.2844"/>
</g>
<!-- Node4 -->
<g id="node5" class="node">
<title>Node4</title>
<polygon fill="#ffffff" stroke="#bfbfbf" points="131.5,-56.5 131.5,-75.5 179.5,-75.5 179.5,-56.5 131.5,-56.5"/>
<text text-anchor="middle" x="155.5" y="-63.5" font-family="Helvetica,sans-Serif" font-size="10.00" fill="#000000">stdlib.h</text>
</g>
<!-- Node1&#45;&gt;Node4 -->
<g id="edge4" class="edge">
<title>Node1&#45;&gt;Node4</title>
<path fill="none" stroke="#191970" d="M817.8898,-120.7431C706.3321,-116.1642 330.6469,-99.4931 189.9696,-75.837"/>
<polygon fill="#191970" stroke="#191970" points="190.3144,-72.3437 179.8576,-74.0479 189.0949,-79.2366 190.3144,-72.3437"/>
</g>
<!-- Node5 -->
<g id="node6" class="node">
<title>Node5</title>
<polygon fill="#ffffff" stroke="#bfbfbf" points="198,-56.5 198,-75.5 247,-75.5 247,-56.5 198,-56.5"/>
<text text-anchor="middle" x="222.5" y="-63.5" font-family="Helvetica,sans-Serif" font-size="10.00" fill="#000000">string.h</text>
</g>
<!-- Node1&#45;&gt;Node5 -->
<g id="edge5" class="edge">
<title>Node1&#45;&gt;Node5</title>
<path fill="none" stroke="#191970" d="M817.7159,-121.4414C729.079,-119.4698 471.8581,-110.9276 261.5,-76 260.0347,-75.7567 258.544,-75.4849 257.0421,-75.191"/>
<polygon fill="#191970" stroke="#191970" points="257.6401,-71.7388 247.1204,-72.9985 256.1296,-78.5739 257.6401,-71.7388"/>
</g>
<!-- Node6 -->
<g id="node7" class="node">
<title>Node6</title>
<polygon fill="#ffffff" stroke="#bfbfbf" points="232,-.5 232,-19.5 291,-19.5 291,-.5 232,-.5"/>
<text text-anchor="middle" x="261.5" y="-7.5" font-family="Helvetica,sans-Serif" font-size="10.00" fill="#000000">c_types.h</text>
</g>
<!-- Node1&#45;&gt;Node6 -->
<g id="edge6" class="edge">
<title>Node1&#45;&gt;Node6</title>
<path fill="none" stroke="#191970" d="M817.7456,-120.58C710.5055,-115.5999 365.9724,-98.0305 321.5,-76 300.3561,-65.5258 283.1257,-44.1379 272.6409,-28.5391"/>
<polygon fill="#191970" stroke="#191970" points="275.3427,-26.267 267.0097,-19.724 269.4437,-30.0355 275.3427,-26.267"/>
</g>
<!-- Node7 -->
<g id="node8" class="node">
<title>Node7</title>
<polygon fill="#ffffff" stroke="#bfbfbf" points="472,-56.5 472,-75.5 525,-75.5 525,-56.5 472,-56.5"/>
<text text-anchor="middle" x="498.5" y="-63.5" font-family="Helvetica,sans-Serif" font-size="10.00" fill="#000000">lwip/ip.h</text>
</g>
<!-- Node1&#45;&gt;Node7 -->
<g id="edge7" class="edge">
<title>Node1&#45;&gt;Node7</title>
<path fill="none" stroke="#191970" d="M817.9718,-118.7275C762.6627,-112.7005 644.439,-98.5441 535.0249,-75.8793"/>
<polygon fill="#191970" stroke="#191970" points="535.6502,-72.4344 525.1442,-73.8039 534.2112,-79.2849 535.6502,-72.4344"/>
</g>
<!-- Node8 -->
<g id="node9" class="node">
<title>Node8</title>
<polygon fill="#ffffff" stroke="#bfbfbf" points="543.5,-56.5 543.5,-75.5 605.5,-75.5 605.5,-56.5 543.5,-56.5"/>
<text text-anchor="middle" x="574.5" y="-63.5" font-family="Helvetica,sans-Serif" font-size="10.00" fill="#000000">lwip/udp.h</text>
</g>
<!-- Node1&#45;&gt;Node8 -->
<g id="edge8" class="edge">
<title>Node1&#45;&gt;Node8</title>
<path fill="none" stroke="#191970" d="M817.8433,-116.3405C774.4634,-108.4684 693.8929,-93.4313 615.8969,-76.2327"/>
<polygon fill="#191970" stroke="#191970" points="616.4275,-72.7653 605.9065,-74.0145 614.9101,-79.5989 616.4275,-72.7653"/>
</g>
<!-- Node9 -->
<g id="node10" class="node">
<title>Node9</title>
<polygon fill="#ffffff" stroke="#bfbfbf" points="623.5,-56.5 623.5,-75.5 705.5,-75.5 705.5,-56.5 623.5,-56.5"/>
<text text-anchor="middle" x="664.5" y="-63.5" font-family="Helvetica,sans-Serif" font-size="10.00" fill="#000000">lwip/tcp_impl.h</text>
</g>
<!-- Node1&#45;&gt;Node9 -->
<g id="edge9" class="edge">
<title>Node1&#45;&gt;Node9</title>
<path fill="none" stroke="#191970" d="M817.6974,-112.3733C786.6683,-102.9807 739.3246,-88.6496 705.4853,-78.4064"/>
<polygon fill="#191970" stroke="#191970" points="706.4728,-75.0485 695.8876,-75.5011 704.4447,-81.7483 706.4728,-75.0485"/>
</g>
<!-- Node10 -->
<g id="node11" class="node">
<title>Node10</title>
<polygon fill="#ffffff" stroke="#bfbfbf" points="724,-56.5 724,-75.5 799,-75.5 799,-56.5 724,-56.5"/>
<text text-anchor="middle" x="761.5" y="-63.5" font-family="Helvetica,sans-Serif" font-size="10.00" fill="#000000">netif/etharp.h</text>
</g>
<!-- Node1&#45;&gt;Node10 -->
<g id="edge10" class="edge">
<title>Node1&#45;&gt;Node10</title>
<path fill="none" stroke="#191970" d="M834.1716,-112.2455C820.6697,-103.6534 800.7878,-91.0014 785.2314,-81.1018"/>
<polygon fill="#191970" stroke="#191970" points="786.9685,-78.0587 776.6528,-75.6427 783.2103,-83.9643 786.9685,-78.0587"/>
</g>
<!-- Node11 -->
<g id="node12" class="node">
<title>Node11</title>
<polygon fill="#ffffff" stroke="#bfbfbf" points="817.5,-56.5 817.5,-75.5 881.5,-75.5 881.5,-56.5 817.5,-56.5"/>
<text text-anchor="middle" x="849.5" y="-63.5" font-family="Helvetica,sans-Serif" font-size="10.00" fill="#000000">lwip/netif.h</text>
</g>
<!-- Node1&#45;&gt;Node11 -->
<g id="edge11" class="edge">
<title>Node1&#45;&gt;Node11</title>
<path fill="none" stroke="#191970" d="M849.5,-112.2455C849.5,-104.9382 849.5,-94.6944 849.5,-85.7046"/>
<polygon fill="#191970" stroke="#191970" points="853.0001,-85.6426 849.5,-75.6427 846.0001,-85.6427 853.0001,-85.6426"/>
</g>
<!-- Node12 -->
<g id="node13" class="node">
<title>Node12</title>
<polygon fill="#ffffff" stroke="#bfbfbf" points="900,-56.5 900,-75.5 987,-75.5 987,-56.5 900,-56.5"/>
<text text-anchor="middle" x="943.5" y="-63.5" font-family="Helvetica,sans-Serif" font-size="10.00" fill="#000000">lwip/lwip_napt.h</text>
</g>
<!-- Node1&#45;&gt;Node12 -->
<g id="edge12" class="edge">
<title>Node1&#45;&gt;Node12</title>
<path fill="none" stroke="#191970" d="M865.8736,-112.2455C880.4308,-103.5731 901.931,-90.7645 918.6152,-80.825"/>
<polygon fill="#191970" stroke="#191970" points="920.5144,-83.7676 927.3141,-75.6427 916.9317,-77.7539 920.5144,-83.7676"/>
</g>
<!-- Node13 -->
<g id="node14" class="node">
<title>Node13</title>
<polygon fill="#ffffff" stroke="#bfbfbf" points="1005,-56.5 1005,-75.5 1066,-75.5 1066,-56.5 1005,-56.5"/>
<text text-anchor="middle" x="1035.5" y="-63.5" font-family="Helvetica,sans-Serif" font-size="10.00" fill="#000000">lwip/dns.h</text>
</g>
<!-- Node1&#45;&gt;Node13 -->
<g id="edge13" class="edge">
<title>Node1&#45;&gt;Node13</title>
<path fill="none" stroke="#191970" d="M881.0524,-112.5004C912.4655,-103.0426 960.8087,-88.4877 995.0306,-78.1843"/>
<polygon fill="#191970" stroke="#191970" points="996.1559,-81.5008 1004.7223,-75.2664 994.1378,-74.798 996.1559,-81.5008"/>
</g>
<!-- Node14 -->
<g id="node15" class="node">
<title>Node14</title>
<polygon fill="#ffffff" stroke="#bfbfbf" points="1084.5,-56.5 1084.5,-75.5 1198.5,-75.5 1198.5,-56.5 1084.5,-56.5"/>
<text text-anchor="middle" x="1141.5" y="-63.5" font-family="Helvetica,sans-Serif" font-size="10.00" fill="#000000">lwip/app/dhcpserver.h</text>
</g>
<!-- Node1&#45;&gt;Node14 -->
<g id="edge14" class="edge">
<title>Node1&#45;&gt;Node14</title>
<path fill="none" stroke="#191970" d="M881.2424,-114.0655C884.365,-113.3429 887.4905,-112.6422 890.5,-112 952.5171,-98.7657 1023.6531,-85.9499 1074.3219,-77.222"/>
<polygon fill="#191970" stroke="#191970" points="1075.2287,-80.6176 1084.4931,-75.4775 1074.0453,-73.7184 1075.2287,-80.6176"/>
</g>
<!-- Node15 -->
<g id="node16" class="node">
<title>Node15</title>
<polygon fill="#ffffff" stroke="#bfbfbf" points="1217,-56.5 1217,-75.5 1276,-75.5 1276,-56.5 1217,-56.5"/>
<text text-anchor="middle" x="1246.5" y="-63.5" font-family="Helvetica,sans-Serif" font-size="10.00" fill="#000000">lwip/opt.h</text>
</g>
<!-- Node1&#45;&gt;Node15 -->
<g id="edge15" class="edge">
<title>Node1&#45;&gt;Node15</title>
<path fill="none" stroke="#191970" d="M881.2002,-113.8497C884.3313,-113.1708 887.4704,-112.5393 890.5,-112 1026.9646,-87.7092 1066.2925,-101.0378 1206.9263,-75.8668"/>
<polygon fill="#191970" stroke="#191970" points="1207.5731,-79.3066 1216.7832,-74.0698 1206.3176,-72.4201 1207.5731,-79.3066"/>
</g>
<!-- Node16 -->
<g id="node17" class="node">
<title>Node16</title>
<polygon fill="#ffffff" stroke="#bfbfbf" points="1294,-56.5 1294,-75.5 1357,-75.5 1357,-56.5 1294,-56.5"/>
<text text-anchor="middle" x="1325.5" y="-63.5" font-family="Helvetica,sans-Serif" font-size="10.00" fill="#000000">espconn.h</text>
</g>
<!-- Node1&#45;&gt;Node16 -->
<g id="edge16" class="edge">
<title>Node1&#45;&gt;Node16</title>
<path fill="none" stroke="#191970" d="M881.1881,-113.7791C884.3216,-113.1145 887.4646,-112.5056 890.5,-112 1061.1608,-83.5721 1109.8975,-104.6502 1283.7222,-76.0891"/>
<polygon fill="#191970" stroke="#191970" points="1284.4321,-79.519 1293.7167,-74.4153 1283.2759,-72.6152 1284.4321,-79.519"/>
</g>
<!-- Node17 -->
<g id="node18" class="node">
<title>Node17</title>
<polygon fill="#ffffff" stroke="#bfbfbf" points="309,-.5 309,-19.5 368,-19.5 368,-.5 309,-.5"/>
<text text-anchor="middle" x="338.5" y="-7.5" font-family="Helvetica,sans-Serif" font-size="10.00" fill="#000000">ets_sys.h</text>
</g>
<!-- Node1&#45;&gt;Node17 -->
<g id="edge17" class="edge">
<title>Node1&#45;&gt;Node17</title>
<path fill="none" stroke="#191970" d="M817.984,-121.6112C710.8245,-119.9669 365.3479,-111.9003 332.5,-76 321.2503,-63.7049 324.6514,-44.1946 329.7259,-29.5697"/>
<polygon fill="#191970" stroke="#191970" points="333.1047,-30.5432 333.5311,-19.957 326.5961,-27.9667 333.1047,-30.5432"/>
</g>
<!-- Node18 -->
<g id="node19" class="node">
<title>Node18</title>
<polygon fill="#ffffff" stroke="#bfbfbf" points="1375.5,-56.5 1375.5,-75.5 1419.5,-75.5 1419.5,-56.5 1375.5,-56.5"/>
<text text-anchor="middle" x="1397.5" y="-63.5" font-family="Helvetica,sans-Serif" font-size="10.00" fill="#000000">gpio.h</text>
</g>
<!-- Node1&#45;&gt;Node18 -->
<g id="edge18" class="edge">
<title>Node1&#45;&gt;Node18</title>
<path fill="none" stroke="#191970" d="M881.1801,-113.7301C884.3153,-113.0754 887.4608,-112.4822 890.5,-112 1096.7644,-79.2718 1156.4526,-115.679 1365.2577,-75.808"/>
<polygon fill="#191970" stroke="#191970" points="1366.1673,-79.1967 1375.3147,-73.8511 1364.8303,-72.3256 1366.1673,-79.1967"/>
</g>
<!-- Node19 -->
<g id="node20" class="node">
<title>Node19</title>
<polygon fill="#ffffff" stroke="#bfbfbf" points="1438,-56.5 1438,-75.5 1485,-75.5 1485,-56.5 1438,-56.5"/>
<text text-anchor="middle" x="1461.5" y="-63.5" font-family="Helvetica,sans-Serif" font-size="10.00" fill="#000000">mem.h</text>
</g>
<!-- Node1&#45;&gt;Node19 -->
<g id="edge19" class="edge">
<title>Node1&#45;&gt;Node19</title>
<path fill="none" stroke="#191970" d="M881.1758,-113.7025C884.3118,-113.0534 887.4587,-112.4691 890.5,-112 1124.1074,-75.971 1190.9281,-117.8514 1427.9117,-75.6681"/>
<polygon fill="#191970" stroke="#191970" points="1428.6495,-79.0915 1437.8655,-73.8651 1427.4017,-72.2036 1428.6495,-79.0915"/>
</g>
<!-- Node20 -->
<g id="node21" class="node">
<title>Node20</title>
<polygon fill="#ffffff" stroke="#bfbfbf" points="1503,-56.5 1503,-75.5 1552,-75.5 1552,-56.5 1503,-56.5"/>
<text text-anchor="middle" x="1527.5" y="-63.5" font-family="Helvetica,sans-Serif" font-size="10.00" fill="#000000">osapi.h</text>
</g>
<!-- Node1&#45;&gt;Node20 -->
<g id="edge20" class="edge">
<title>Node1&#45;&gt;Node20</title>
<path fill="none" stroke="#191970" d="M881.1722,-113.6793C884.309,-113.0348 887.457,-112.458 890.5,-112 1153.1798,-72.4659 1227.9557,-122.0801 1492.8765,-75.9246"/>
<polygon fill="#191970" stroke="#191970" points="1493.5498,-79.3599 1502.7859,-74.1692 1492.3287,-72.4672 1493.5498,-79.3599"/>
</g>
<!-- Node21 -->
<g id="node22" class="node">
<title>Node21</title>
<polygon fill="#ffffff" stroke="#bfbfbf" points="1570.5,-56.5 1570.5,-75.5 1658.5,-75.5 1658.5,-56.5 1570.5,-56.5"/>
<text text-anchor="middle" x="1614.5" y="-63.5" font-family="Helvetica,sans-Serif" font-size="10.00" fill="#000000">user_interface.h</text>
</g>
<!-- Node1&#45;&gt;Node21 -->
<g id="edge21" class="edge">
<title>Node1&#45;&gt;Node21</title>
<path fill="none" stroke="#191970" d="M881.1694,-113.6603C884.3067,-113.0197 887.4557,-112.4489 890.5,-112 1182.6376,-68.9182 1263.1955,-110.8026 1560.12,-76.0056"/>
<polygon fill="#191970" stroke="#191970" points="1560.8062,-79.4487 1570.3218,-74.79 1559.9779,-72.4979 1560.8062,-79.4487"/>
</g>
<!-- Node22 -->
<g id="node23" class="node">
<title>Node22</title>
<polygon fill="#ffffff" stroke="#bfbfbf" points="1676.5,-56.5 1676.5,-75.5 1738.5,-75.5 1738.5,-56.5 1676.5,-56.5"/>
<text text-anchor="middle" x="1707.5" y="-63.5" font-family="Helvetica,sans-Serif" font-size="10.00" fill="#000000">upgrade.h</text>
</g>
<!-- Node1&#45;&gt;Node22 -->
<g id="edge22" class="edge">
<title>Node1&#45;&gt;Node22</title>
<path fill="none" stroke="#191970" d="M881.166,-113.637C884.304,-113.0012 887.4541,-112.4378 890.5,-112 1229.4286,-63.2813 1323.6668,-124.9738 1666.2266,-75.9025"/>
<polygon fill="#191970" stroke="#191970" points="1666.7825,-79.3586 1676.175,-74.4564 1665.7755,-72.4314 1666.7825,-79.3586"/>
</g>
<!-- Node23 -->
<g id="node24" class="node">
<title>Node23</title>
<g id="a_node24"><a xlink:href="platform_8h.html" target="_top" xlink:title="platform.h">
<polygon fill="#ffffff" stroke="#000000" points="1757,-56.5 1757,-75.5 1818,-75.5 1818,-56.5 1757,-56.5"/>
<text text-anchor="middle" x="1787.5" y="-63.5" font-family="Helvetica,sans-Serif" font-size="10.00" fill="#000000">platform.h</text>
</a>
</g>
</g>
<!-- Node1&#45;&gt;Node23 -->
<g id="edge23" class="edge">
<title>Node1&#45;&gt;Node23</title>
<path fill="none" stroke="#191970" d="M881.164,-113.6232C884.3025,-112.9902 887.4531,-112.4313 890.5,-112 1264.645,-59.0432 1368.3743,-129.256 1746.4912,-75.8301"/>
<polygon fill="#191970" stroke="#191970" points="1747.2121,-79.2627 1756.6145,-74.3796 1746.2192,-72.3334 1747.2121,-79.2627"/>
</g>
<!-- Node24 -->
<g id="node25" class="node">
<title>Node24</title>
<g id="a_node25"><a xlink:href="espmissingincludes_8h.html" target="_top" xlink:title="espmissingincludes.h">
<polygon fill="#ffffff" stroke="#000000" points="341.5,-56.5 341.5,-75.5 453.5,-75.5 453.5,-56.5 341.5,-56.5"/>
<text text-anchor="middle" x="397.5" y="-63.5" font-family="Helvetica,sans-Serif" font-size="10.00" fill="#000000">espmissingincludes.h</text>
</a>
</g>
</g>
<!-- Node1&#45;&gt;Node24 -->
<g id="edge24" class="edge">
<title>Node1&#45;&gt;Node24</title>
<path fill="none" stroke="#191970" d="M817.935,-118.5821C753.5553,-111.5369 602.2302,-94.6004 463.6094,-75.9757"/>
<polygon fill="#191970" stroke="#191970" points="464.0303,-72.5008 453.652,-74.6319 463.094,-79.4379 464.0303,-72.5008"/>
</g>
<!-- Node24&#45;&gt;Node6 -->
<g id="edge26" class="edge">
<title>Node24&#45;&gt;Node6</title>
<path fill="none" stroke="#191970" d="M374.1208,-56.3733C351.9955,-47.2629 318.5866,-33.5062 293.8981,-23.3404"/>
<polygon fill="#191970" stroke="#191970" points="295.1536,-20.0723 284.5742,-19.5011 292.4883,-26.5451 295.1536,-20.0723"/>
</g>
<!-- Node24&#45;&gt;Node17 -->
<g id="edge28" class="edge">
<title>Node24&#45;&gt;Node17</title>
<path fill="none" stroke="#191970" d="M387.223,-56.2455C378.6782,-48.1352 366.3222,-36.4075 356.1915,-26.7919"/>
<polygon fill="#191970" stroke="#191970" points="358.3218,-23.9884 348.6592,-19.6427 353.5028,-29.0655 358.3218,-23.9884"/>
</g>
<!-- Node25 -->
<g id="node26" class="node">
<title>Node25</title>
<polygon fill="#ffffff" stroke="#bfbfbf" points="386,-.5 386,-19.5 435,-19.5 435,-.5 386,-.5"/>
<text text-anchor="middle" x="410.5" y="-7.5" font-family="Helvetica,sans-Serif" font-size="10.00" fill="#000000">stdint.h</text>
</g>
<!-- Node24&#45;&gt;Node25 -->
<g id="edge25" class="edge">
<title>Node24&#45;&gt;Node25</title>
<path fill="none" stroke="#191970" d="M399.7644,-56.2455C401.4794,-48.8579 403.8912,-38.4689 405.9944,-29.4087"/>
<polygon fill="#191970" stroke="#191970" points="409.4095,-30.1751 408.2615,-19.6427 402.5908,-28.5922 409.4095,-30.1751"/>
</g>
<!-- Node26 -->
<g id="node27" class="node">
<title>Node26</title>
<polygon fill="#ffffff" stroke="#bfbfbf" points="453.5,-.5 453.5,-19.5 523.5,-19.5 523.5,-.5 453.5,-.5"/>
<text text-anchor="middle" x="488.5" y="-7.5" font-family="Helvetica,sans-Serif" font-size="10.00" fill="#000000">eagle_soc.h</text>
</g>
<!-- Node24&#45;&gt;Node26 -->
<g id="edge27" class="edge">
<title>Node24&#45;&gt;Node26</title>
<path fill="none" stroke="#191970" d="M413.351,-56.2455C427.3132,-47.6534 447.8728,-35.0014 463.9596,-25.1018"/>
<polygon fill="#191970" stroke="#191970" points="466.1484,-27.8645 472.8307,-19.6427 462.4797,-21.9029 466.1484,-27.8645"/>
</g>
</g>
</svg>
