<?xml version="1.0" encoding="UTF-8" standalone="no"?>
<!DOCTYPE svg PUBLIC "-//W3C//DTD SVG 1.1//EN"
 "http://www.w3.org/Graphics/SVG/1.1/DTD/svg11.dtd">
<!-- Generated by graphviz version 2.41.20170323.1842 (20170323.1842)
 -->
<!-- Title: get_uptime Pages: 1 -->
<svg width="342pt" height="104pt"
 viewBox="0.00 0.00 342.00 104.00" xmlns="http://www.w3.org/2000/svg" xmlns:xlink="http://www.w3.org/1999/xlink">
<g id="graph0" class="graph" transform="scale(1 1) rotate(0) translate(4 100)">
<title>get_uptime</title>
<polygon fill="#ffffff" stroke="transparent" points="-4,4 -4,-100 338,-100 338,4 -4,4"/>
<!-- Node14 -->
<g id="node1" class="node">
<title>Node14</title>
<polygon fill="#bfbfbf" stroke="#000000" points="0,-38.5 0,-57.5 66,-57.5 66,-38.5 0,-38.5"/>
<text text-anchor="middle" x="33" y="-45.5" font-family="Helvetica,sans-Serif" font-size="10.00" fill="#000000">get_uptime</text>
</g>
<!-- Node15 -->
<g id="node2" class="node">
<title>Node15</title>
<g id="a_node2"><a xlink:href="watchdog_8h.html#ac6f711e66812f004c4ed3d0eef8c252a" target="_top" xlink:title="add_watchdog">
<polygon fill="#ffffff" stroke="#000000" points="117,-76.5 117,-95.5 199,-95.5 199,-76.5 117,-76.5"/>
<text text-anchor="middle" x="158" y="-83.5" font-family="Helvetica,sans-Serif" font-size="10.00" fill="#000000">add_watchdog</text>
</a>
</g>
</g>
<!-- Node14&#45;&gt;Node15 -->
<g id="edge1" class="edge">
<title>Node14&#45;&gt;Node15</title>
<path fill="none" stroke="#191970" d="M74.2345,-60.5353C91.2393,-65.7048 110.6286,-71.5991 126.4673,-76.4141"/>
<polygon fill="#191970" stroke="#191970" points="75.1285,-57.149 64.5428,-57.589 73.0924,-63.8463 75.1285,-57.149"/>
</g>
<!-- Node16 -->
<g id="node3" class="node">
<title>Node16</title>
<g id="a_node3"><a xlink:href="watchdog_8h.html#a51be9a4121b1f7722209d0356b4521cf" target="_top" xlink:title="reset_watchdog">
<polygon fill="#ffffff" stroke="#000000" points="114.5,-38.5 114.5,-57.5 201.5,-57.5 201.5,-38.5 114.5,-38.5"/>
<text text-anchor="middle" x="158" y="-45.5" font-family="Helvetica,sans-Serif" font-size="10.00" fill="#000000">reset_watchdog</text>
</a>
</g>
</g>
<!-- Node14&#45;&gt;Node16 -->
<g id="edge2" class="edge">
<title>Node14&#45;&gt;Node16</title>
<path fill="none" stroke="#191970" d="M76.2093,-48C88.529,-48 101.9574,-48 114.3058,-48"/>
<polygon fill="#191970" stroke="#191970" points="76.1696,-44.5001 66.1695,-48 76.1695,-51.5001 76.1696,-44.5001"/>
</g>
<!-- Node17 -->
<g id="node4" class="node">
<title>Node17</title>
<g id="a_node4"><a xlink:href="watchdog_8c.html#aeb03c505b5b589ae4d89b2ae11dd1711" target="_top" xlink:title="watchdog_timer_func">
<polygon fill="#ffffff" stroke="#000000" points="102,-.5 102,-19.5 214,-19.5 214,-.5 102,-.5"/>
<text text-anchor="middle" x="158" y="-7.5" font-family="Helvetica,sans-Serif" font-size="10.00" fill="#000000">watchdog_timer_func</text>
</a>
</g>
</g>
<!-- Node14&#45;&gt;Node17 -->
<g id="edge3" class="edge">
<title>Node14&#45;&gt;Node17</title>
<path fill="none" stroke="#191970" d="M74.2345,-35.4647C91.2393,-30.2952 110.6286,-24.4009 126.4673,-19.5859"/>
<polygon fill="#191970" stroke="#191970" points="73.0924,-32.1537 64.5428,-38.411 75.1285,-38.851 73.0924,-32.1537"/>
</g>
<!-- Node18 -->
<g id="node5" class="node">
<title>Node18</title>
<g id="a_node5"><a xlink:href="watchdog_8h.html#ab148f2150b52df5b60e312dded3a2934" target="_top" xlink:title="start_watchdog">
<polygon fill="#ffffff" stroke="#000000" points="250,-.5 250,-19.5 334,-19.5 334,-.5 250,-.5"/>
<text text-anchor="middle" x="292" y="-7.5" font-family="Helvetica,sans-Serif" font-size="10.00" fill="#000000">start_watchdog</text>
</a>
</g>
</g>
<!-- Node17&#45;&gt;Node18 -->
<g id="edge4" class="edge">
<title>Node17&#45;&gt;Node18</title>
<path fill="none" stroke="#191970" d="M224.1744,-10C232.8343,-10 241.5125,-10 249.6303,-10"/>
<polygon fill="#191970" stroke="#191970" points="224.0517,-6.5001 214.0516,-10 224.0516,-13.5001 224.0517,-6.5001"/>
</g>
</g>
</svg>
