<?xml version="1.0" encoding="UTF-8" standalone="no"?>
<!DOCTYPE svg PUBLIC "-//W3C//DTD SVG 1.1//EN"
 "http://www.w3.org/Graphics/SVG/1.1/DTD/svg11.dtd">
<!-- Generated by graphviz version 2.40.1 (20161225.0304)
 -->
<!-- Title: init_unix_time Pages: 1 -->
<svg width="420pt" height="192pt"
 viewBox="0.00 0.00 420.00 191.50" xmlns="http://www.w3.org/2000/svg" xmlns:xlink="http://www.w3.org/1999/xlink">
<g id="graph0" class="graph" transform="scale(1 1) rotate(0) translate(4 187.5)">
<title>init_unix_time</title>
<polygon fill="#ffffff" stroke="transparent" points="-4,4 -4,-187.5 416,-187.5 416,4 -4,4"/>
<!-- Node16 -->
<g id="node1" class="node">
<title>Node16</title>
<polygon fill="#bfbfbf" stroke="#000000" points="0,-76.5 0,-95.5 78,-95.5 78,-76.5 0,-76.5"/>
<text text-anchor="middle" x="39" y="-83.5" font-family="Helvetica,sans-Serif" font-size="10.00" fill="#000000">init_unix_time</text>
</g>
<!-- Node17 -->
<g id="node2" class="node">
<title>Node17</title>
<g id="a_node2"><a xlink:href="unix__time_8c.html#a802f78ed855d6c422974b9c116443c2c" target="_top" xlink:title="ntp_offline_second\l_counter_timer_func">
<polygon fill="#ffffff" stroke="#000000" points="119.5,-153 119.5,-183 227.5,-183 227.5,-153 119.5,-153"/>
<text text-anchor="start" x="127.5" y="-171" font-family="Helvetica,sans-Serif" font-size="10.00" fill="#000000">ntp_offline_second</text>
<text text-anchor="middle" x="173.5" y="-160" font-family="Helvetica,sans-Serif" font-size="10.00" fill="#000000">_counter_timer_func</text>
</a>
</g>
</g>
<!-- Node16&#45;&gt;Node17 -->
<g id="edge1" class="edge">
<title>Node16&#45;&gt;Node17</title>
<path fill="none" stroke="#191970" d="M50.0581,-95.8388C64.1589,-108.0357 89.6421,-128.9297 114,-143 117.3958,-144.9616 120.9752,-146.8541 124.6246,-148.6597"/>
<polygon fill="#191970" stroke="#191970" points="123.2361,-151.8744 133.7753,-152.9591 126.2129,-145.5388 123.2361,-151.8744"/>
</g>
<!-- Node18 -->
<g id="node3" class="node">
<title>Node18</title>
<g id="a_node3"><a xlink:href="unix__time_8c.html#a0fc8c49b1d5626fd003a49270cd23bc9" target="_top" xlink:title="sntp_check_timer_func">
<polygon fill="#ffffff" stroke="#000000" points="114,-114.5 114,-133.5 233,-133.5 233,-114.5 114,-114.5"/>
<text text-anchor="middle" x="173.5" y="-121.5" font-family="Helvetica,sans-Serif" font-size="10.00" fill="#000000">sntp_check_timer_func</text>
</a>
</g>
</g>
<!-- Node16&#45;&gt;Node18 -->
<g id="edge2" class="edge">
<title>Node16&#45;&gt;Node18</title>
<path fill="none" stroke="#191970" d="M72.94,-95.589C90.2231,-100.4719 111.4329,-106.4643 129.9112,-111.685"/>
<polygon fill="#191970" stroke="#191970" points="128.9959,-115.0633 139.5708,-114.4141 130.8992,-108.327 128.9959,-115.0633"/>
</g>
<!-- Node20 -->
<g id="node5" class="node">
<title>Node20</title>
<g id="a_node5"><a xlink:href="esp-open-lwip_2include_2lwip_2sntp_8h.html#a9b300c6616de60524c85ea40bf70e2ba" target="_top" xlink:title="sntp_init">
<polygon fill="#ffffff" stroke="#000000" points="146.5,-76.5 146.5,-95.5 200.5,-95.5 200.5,-76.5 146.5,-76.5"/>
<text text-anchor="middle" x="173.5" y="-83.5" font-family="Helvetica,sans-Serif" font-size="10.00" fill="#000000">sntp_init</text>
</a>
</g>
</g>
<!-- Node16&#45;&gt;Node20 -->
<g id="edge4" class="edge">
<title>Node16&#45;&gt;Node20</title>
<path fill="none" stroke="#191970" d="M78.2645,-86C96.5429,-86 118.1784,-86 136.2049,-86"/>
<polygon fill="#191970" stroke="#191970" points="136.349,-89.5001 146.349,-86 136.3489,-82.5001 136.349,-89.5001"/>
</g>
<!-- Node21 -->
<g id="node6" class="node">
<title>Node21</title>
<g id="a_node6"><a xlink:href="esp-open-lwip_2include_2lwip_2sntp_8h.html#abdbe5ed580b63547553ded66ce2e6302" target="_top" xlink:title="sntp_set_timezone">
<polygon fill="#ffffff" stroke="#000000" points="123.5,-38.5 123.5,-57.5 223.5,-57.5 223.5,-38.5 123.5,-38.5"/>
<text text-anchor="middle" x="173.5" y="-45.5" font-family="Helvetica,sans-Serif" font-size="10.00" fill="#000000">sntp_set_timezone</text>
</a>
</g>
</g>
<!-- Node16&#45;&gt;Node21 -->
<g id="edge5" class="edge">
<title>Node16&#45;&gt;Node21</title>
<path fill="none" stroke="#191970" d="M72.94,-76.411C90.2231,-71.5281 111.4329,-65.5357 129.9112,-60.315"/>
<polygon fill="#191970" stroke="#191970" points="130.8992,-63.673 139.5708,-57.5859 128.9959,-56.9367 130.8992,-63.673"/>
</g>
<!-- Node22 -->
<g id="node7" class="node">
<title>Node22</title>
<g id="a_node7"><a xlink:href="esp-open-lwip_2include_2lwip_2sntp_8h.html#a2da77545ece23ff7077d740072559425" target="_top" xlink:title="sntp_setservername">
<polygon fill="#ffffff" stroke="#000000" points="120,-.5 120,-19.5 227,-19.5 227,-.5 120,-.5"/>
<text text-anchor="middle" x="173.5" y="-7.5" font-family="Helvetica,sans-Serif" font-size="10.00" fill="#000000">sntp_setservername</text>
</a>
</g>
</g>
<!-- Node16&#45;&gt;Node22 -->
<g id="edge6" class="edge">
<title>Node16&#45;&gt;Node22</title>
<path fill="none" stroke="#191970" d="M49.3841,-76.2426C63.1775,-63.7425 88.7521,-42.1277 114,-29 118.2272,-26.8021 122.7561,-24.7989 127.3585,-22.9884"/>
<polygon fill="#191970" stroke="#191970" points="128.6342,-26.2488 136.836,-19.542 126.2419,-19.6703 128.6342,-26.2488"/>
</g>
<!-- Node19 -->
<g id="node4" class="node">
<title>Node19</title>
<g id="a_node4"><a xlink:href="esp-open-lwip_2include_2lwip_2sntp_8h.html#a557f2d3fcbc53da30e4f1b51ea5842e7" target="_top" xlink:title="sntp_get_current_timestamp">
<polygon fill="#ffffff" stroke="#000000" points="269,-114.5 269,-133.5 412,-133.5 412,-114.5 269,-114.5"/>
<text text-anchor="middle" x="340.5" y="-121.5" font-family="Helvetica,sans-Serif" font-size="10.00" fill="#000000">sntp_get_current_timestamp</text>
</a>
</g>
</g>
<!-- Node18&#45;&gt;Node19 -->
<g id="edge3" class="edge">
<title>Node18&#45;&gt;Node19</title>
<path fill="none" stroke="#191970" d="M233.3191,-124C241.5932,-124 250.2055,-124 258.7925,-124"/>
<polygon fill="#191970" stroke="#191970" points="258.8395,-127.5001 268.8394,-124 258.8394,-120.5001 258.8395,-127.5001"/>
</g>
</g>
</svg>
