<?xml version="1.0" encoding="UTF-8" standalone="no"?>
<!DOCTYPE svg PUBLIC "-//W3C//DTD SVG 1.1//EN"
 "http://www.w3.org/Graphics/SVG/1.1/DTD/svg11.dtd">
<!-- Generated by graphviz version 2.39.20160927.1334 (20160927.1334)
 -->
<!-- Title: user/user_main.c Pages: 1 -->
<svg width="1880pt" height="420pt"
 viewBox="0.00 0.00 1880.00 420.00" xmlns="http://www.w3.org/2000/svg" xmlns:xlink="http://www.w3.org/1999/xlink">
<g id="graph0" class="graph" transform="scale(1 1) rotate(0) translate(4 416)">
<title>user/user_main.c</title>
<polygon fill="#ffffff" stroke="transparent" points="-4,4 -4,-416 1876,-416 1876,4 -4,4"/>
<!-- Node1 -->
<g id="node1" class="node">
<title>Node1</title>
<polygon fill="#bfbfbf" stroke="#000000" points="744,-392.5 744,-411.5 837,-411.5 837,-392.5 744,-392.5"/>
<text text-anchor="middle" x="790.5" y="-399.5" font-family="Helvetica,sans-Serif" font-size="10.00" fill="#000000">user/user_main.c</text>
</g>
<!-- Node2 -->
<g id="node2" class="node">
<title>Node2</title>
<g id="a_node2"><a xlink:href="esp8266_8h.html" target="_top" xlink:title="esp8266.h">
<polygon fill="#ffffff" stroke="#000000" points="594,-112.5 594,-131.5 657,-131.5 657,-112.5 594,-112.5"/>
<text text-anchor="middle" x="625.5" y="-119.5" font-family="Helvetica,sans-Serif" font-size="10.00" fill="#000000">esp8266.h</text>
</a>
</g>
</g>
<!-- Node1&#45;&gt;Node2 -->
<g id="edge1" class="edge">
<title>Node1&#45;&gt;Node2</title>
<path fill="none" stroke="#191970" d="M743.743,-398.985C673.865,-393.72 546.343,-380.949 508.5,-356 479.472,-336.862 466.5,-324.769 466.5,-290 466.5,-290 466.5,-290 466.5,-234 466.5,-176.471 536.93,-145.908 584.041,-131.899"/>
<polygon fill="#191970" stroke="#191970" points="585.041,-135.253 593.706,-129.157 583.131,-128.519 585.041,-135.253"/>
</g>
<!-- Node20 -->
<g id="node20" class="node">
<title>Node20</title>
<g id="a_node20"><a xlink:href="uart_8h.html" target="_top" xlink:title="driver/uart.h">
<polygon fill="#ffffff" stroke="#000000" points="5.5,-56.5 5.5,-75.5 75.5,-75.5 75.5,-56.5 5.5,-56.5"/>
<text text-anchor="middle" x="40.5" y="-63.5" font-family="Helvetica,sans-Serif" font-size="10.00" fill="#000000">driver/uart.h</text>
</a>
</g>
</g>
<!-- Node1&#45;&gt;Node20 -->
<g id="edge21" class="edge">
<title>Node1&#45;&gt;Node20</title>
<path fill="none" stroke="#191970" d="M743.805,-399.986C579.731,-392.299 39.5,-361.556 39.5,-290 39.5,-290 39.5,-290 39.5,-178 39.5,-145.71 39.9207,-108.186 40.2164,-85.8043"/>
<polygon fill="#191970" stroke="#191970" points="43.719,-85.6353 40.3567,-75.5881 36.7196,-85.5391 43.719,-85.6353"/>
</g>
<!-- Node22 -->
<g id="node22" class="node">
<title>Node22</title>
<g id="a_node22"><a xlink:href="mqtt_8h.html" target="_top" xlink:title="mqtt.h">
<polygon fill="#ffffff" stroke="#000000" points="1371.5,-280.5 1371.5,-299.5 1415.5,-299.5 1415.5,-280.5 1371.5,-280.5"/>
<text text-anchor="middle" x="1393.5" y="-287.5" font-family="Helvetica,sans-Serif" font-size="10.00" fill="#000000">mqtt.h</text>
</a>
</g>
</g>
<!-- Node1&#45;&gt;Node22 -->
<g id="edge25" class="edge">
<title>Node1&#45;&gt;Node22</title>
<path fill="none" stroke="#191970" d="M794.223,-392.312C800.565,-377.295 815.003,-348.799 837.5,-336 860.386,-322.979 1245.67,-298.882 1361.08,-291.926"/>
<polygon fill="#191970" stroke="#191970" points="1361.62,-295.401 1371.39,-291.307 1361.2,-288.413 1361.62,-295.401"/>
</g>
<!-- Node24 -->
<g id="node24" class="node">
<title>Node24</title>
<g id="a_node24"><a xlink:href="user__config_8h.html" target="_top" xlink:title="user_config.h">
<polygon fill="#ffffff" stroke="#000000" points="520,-168.5 520,-187.5 597,-187.5 597,-168.5 520,-168.5"/>
<text text-anchor="middle" x="558.5" y="-175.5" font-family="Helvetica,sans-Serif" font-size="10.00" fill="#000000">user_config.h</text>
</a>
</g>
</g>
<!-- Node1&#45;&gt;Node24 -->
<g id="edge59" class="edge">
<title>Node1&#45;&gt;Node24</title>
<path fill="none" stroke="#191970" d="M743.809,-397.219C671.071,-389.296 537.535,-372.66 523.5,-356 484.364,-309.545 524.063,-232.056 546.024,-196.661"/>
<polygon fill="#191970" stroke="#191970" points="549.218,-198.163 551.667,-187.855 543.324,-194.386 549.218,-198.163"/>
</g>
<!-- Node28 -->
<g id="node28" class="node">
<title>Node28</title>
<g id="a_node28"><a xlink:href="crypto_8h.html" target="_top" xlink:title="crypto/crypto.h">
<polygon fill="#ffffff" stroke="#000000" points="195.5,-168.5 195.5,-187.5 277.5,-187.5 277.5,-168.5 195.5,-168.5"/>
<text text-anchor="middle" x="236.5" y="-175.5" font-family="Helvetica,sans-Serif" font-size="10.00" fill="#000000">crypto/crypto.h</text>
</a>
</g>
</g>
<!-- Node1&#45;&gt;Node28 -->
<g id="edge34" class="edge">
<title>Node1&#45;&gt;Node28</title>
<path fill="none" stroke="#191970" d="M743.718,-398.901C651.415,-392.431 449.038,-376.38 382.5,-356 331.179,-340.281 310.038,-341.087 275.5,-300 250.447,-270.197 241.421,-224.092 238.217,-197.926"/>
<polygon fill="#191970" stroke="#191970" points="241.672,-197.315 237.144,-187.736 234.711,-198.048 241.672,-197.315"/>
</g>
<!-- Node29 -->
<g id="node29" class="node">
<title>Node29</title>
<g id="a_node29"><a xlink:href="aes_8h.html" target="_top" xlink:title="crypto/aes.h">
<polygon fill="#ffffff" stroke="#000000" points="68,-168.5 68,-187.5 139,-187.5 139,-168.5 68,-168.5"/>
<text text-anchor="middle" x="103.5" y="-175.5" font-family="Helvetica,sans-Serif" font-size="10.00" fill="#000000">crypto/aes.h</text>
</a>
</g>
</g>
<!-- Node1&#45;&gt;Node29 -->
<g id="edge37" class="edge">
<title>Node1&#45;&gt;Node29</title>
<path fill="none" stroke="#191970" d="M743.918,-400.437C640.407,-396.489 394.28,-384.338 316.5,-356 233.913,-325.911 217.075,-304.698 153.5,-244 138.463,-229.643 124.458,-210.444 115.118,-196.455"/>
<polygon fill="#191970" stroke="#191970" points="117.828,-194.202 109.442,-187.726 111.96,-198.018 117.828,-194.202"/>
</g>
<!-- Node30 -->
<g id="node30" class="node">
<title>Node30</title>
<g id="a_node30"><a xlink:href="sha256_8h.html" target="_top" xlink:title="crypto/sha256.h">
<polygon fill="#ffffff" stroke="#000000" points="302.5,-224.5 302.5,-243.5 390.5,-243.5 390.5,-224.5 302.5,-224.5"/>
<text text-anchor="middle" x="346.5" y="-231.5" font-family="Helvetica,sans-Serif" font-size="10.00" fill="#000000">crypto/sha256.h</text>
</a>
</g>
</g>
<!-- Node1&#45;&gt;Node30 -->
<g id="edge40" class="edge">
<title>Node1&#45;&gt;Node30</title>
<path fill="none" stroke="#191970" d="M743.683,-400.639C662.349,-397.467 499.168,-387.289 452.5,-356 420.082,-334.265 434.488,-309.12 408.5,-280 397.904,-268.127 383.799,-257.372 371.721,-249.252"/>
<polygon fill="#191970" stroke="#191970" points="373.266,-246.083 362.97,-243.582 369.459,-251.957 373.266,-246.083"/>
</g>
<!-- Node31 -->
<g id="node31" class="node">
<title>Node31</title>
<g id="a_node31"><a xlink:href="hmac-sha256_8h.html" target="_top" xlink:title="crypto/hmac&#45;sha256.h">
<polygon fill="#ffffff" stroke="#000000" points="285,-280.5 285,-299.5 400,-299.5 400,-280.5 285,-280.5"/>
<text text-anchor="middle" x="342.5" y="-287.5" font-family="Helvetica,sans-Serif" font-size="10.00" fill="#000000">crypto/hmac&#45;sha256.h</text>
</a>
</g>
</g>
<!-- Node1&#45;&gt;Node31 -->
<g id="edge44" class="edge">
<title>Node1&#45;&gt;Node31</title>
<path fill="none" stroke="#191970" d="M743.865,-399.84C656.577,-395.219 472.137,-382.562 414.5,-356 390.591,-344.981 369.201,-323.054 356.068,-307.501"/>
<polygon fill="#191970" stroke="#191970" points="358.685,-305.172 349.658,-299.626 353.257,-309.591 358.685,-305.172"/>
</g>
<!-- Node32 -->
<g id="node32" class="node">
<title>Node32</title>
<g id="a_node32"><a xlink:href="wifi_8h.html" target="_top" xlink:title="wifi.h">
<polygon fill="#ffffff" stroke="#000000" points="603,-336.5 603,-355.5 642,-355.5 642,-336.5 603,-336.5"/>
<text text-anchor="middle" x="622.5" y="-343.5" font-family="Helvetica,sans-Serif" font-size="10.00" fill="#000000">wifi.h</text>
</a>
</g>
</g>
<!-- Node1&#45;&gt;Node32 -->
<g id="edge49" class="edge">
<title>Node1&#45;&gt;Node32</title>
<path fill="none" stroke="#191970" d="M761.62,-392.373C730.939,-382.146 682.694,-366.065 651.839,-355.78"/>
<polygon fill="#191970" stroke="#191970" points="652.686,-352.373 642.093,-352.531 650.473,-359.014 652.686,-352.373"/>
</g>
<!-- Node33 -->
<g id="node33" class="node">
<title>Node33</title>
<g id="a_node33"><a xlink:href="config_8h.html" target="_top" xlink:title="config.h">
<polygon fill="#ffffff" stroke="#000000" points="532.5,-336.5 532.5,-355.5 584.5,-355.5 584.5,-336.5 532.5,-336.5"/>
<text text-anchor="middle" x="558.5" y="-343.5" font-family="Helvetica,sans-Serif" font-size="10.00" fill="#000000">config.h</text>
</a>
</g>
</g>
<!-- Node1&#45;&gt;Node33 -->
<g id="edge50" class="edge">
<title>Node1&#45;&gt;Node33</title>
<path fill="none" stroke="#191970" d="M746.922,-392.467C709.092,-384.047 652.62,-371.136 594.868,-356.272"/>
<polygon fill="#191970" stroke="#191970" points="595.394,-352.793 584.836,-353.674 593.638,-359.569 595.394,-352.793"/>
</g>
<!-- Node34 -->
<g id="node34" class="node">
<title>Node34</title>
<g id="a_node34"><a xlink:href="cron_8h.html" target="_top" xlink:title="cron/cron.h">
<polygon fill="#ffffff" stroke="#000000" points="600,-280.5 600,-299.5 667,-299.5 667,-280.5 600,-280.5"/>
<text text-anchor="middle" x="633.5" y="-287.5" font-family="Helvetica,sans-Serif" font-size="10.00" fill="#000000">cron/cron.h</text>
</a>
</g>
</g>
<!-- Node1&#45;&gt;Node34 -->
<g id="edge61" class="edge">
<title>Node1&#45;&gt;Node34</title>
<path fill="none" stroke="#191970" d="M763.749,-392.365C743.611,-384.383 715.913,-371.803 694.5,-356 675.787,-342.189 658.184,-322.085 646.744,-307.698"/>
<polygon fill="#191970" stroke="#191970" points="649.352,-305.35 640.462,-299.587 643.818,-309.637 649.352,-305.35"/>
</g>
<!-- Node35 -->
<g id="node35" class="node">
<title>Node35</title>
<g id="a_node35"><a xlink:href="debug_8h.html" target="_top" xlink:title="debug.h">
<polygon fill="#ffffff" stroke="#000000" points="737,-336.5 737,-355.5 790,-355.5 790,-336.5 737,-336.5"/>
<text text-anchor="middle" x="763.5" y="-343.5" font-family="Helvetica,sans-Serif" font-size="10.00" fill="#000000">debug.h</text>
</a>
</g>
</g>
<!-- Node1&#45;&gt;Node35 -->
<g id="edge53" class="edge">
<title>Node1&#45;&gt;Node35</title>
<path fill="none" stroke="#191970" d="M785.797,-392.246C782.158,-384.697 777.008,-374.016 772.574,-364.82"/>
<polygon fill="#191970" stroke="#191970" points="775.645,-363.13 768.149,-355.643 769.34,-366.17 775.645,-363.13"/>
</g>
<!-- Node36 -->
<g id="node36" class="node">
<title>Node36</title>
<g id="a_node36"><a xlink:href="httpd_8h.html" target="_top" xlink:title="httpd.h">
<polygon fill="#ffffff" stroke="#000000" points="1079,-112.5 1079,-131.5 1126,-131.5 1126,-112.5 1079,-112.5"/>
<text text-anchor="middle" x="1102.5" y="-119.5" font-family="Helvetica,sans-Serif" font-size="10.00" fill="#000000">httpd.h</text>
</a>
</g>
</g>
<!-- Node1&#45;&gt;Node36 -->
<g id="edge54" class="edge">
<title>Node1&#45;&gt;Node36</title>
<path fill="none" stroke="#191970" d="M771.292,-392.467C757.212,-384.539 738.675,-371.982 727.5,-356 710.008,-330.984 708.5,-320.525 708.5,-290 708.5,-290 708.5,-290 708.5,-234 708.5,-159.374 973.33,-131.831 1068.75,-124.329"/>
<polygon fill="#191970" stroke="#191970" points="1069.04,-127.817 1078.74,-123.569 1068.5,-120.838 1069.04,-127.817"/>
</g>
<!-- Node37 -->
<g id="node37" class="node">
<title>Node37</title>
<g id="a_node37"><a xlink:href="httpd__user__init_8h.html" target="_top" xlink:title="httpd_user_init.h">
<polygon fill="#ffffff" stroke="#000000" points="846.5,-336.5 846.5,-355.5 936.5,-355.5 936.5,-336.5 846.5,-336.5"/>
<text text-anchor="middle" x="891.5" y="-343.5" font-family="Helvetica,sans-Serif" font-size="10.00" fill="#000000">httpd_user_init.h</text>
</a>
</g>
</g>
<!-- Node1&#45;&gt;Node37 -->
<g id="edge58" class="edge">
<title>Node1&#45;&gt;Node37</title>
<path fill="none" stroke="#191970" d="M808.093,-392.246C823.879,-383.493 847.264,-370.527 865.259,-360.55"/>
<polygon fill="#191970" stroke="#191970" points="867.06,-363.553 874.109,-355.643 863.666,-357.431 867.06,-363.553"/>
</g>
<!-- Node38 -->
<g id="node38" class="node">
<title>Node38</title>
<g id="a_node38"><a xlink:href="unix__time_8h.html" target="_top" xlink:title="unix_time.h">
<polygon fill="#ffffff" stroke="#000000" points="954.5,-336.5 954.5,-355.5 1022.5,-355.5 1022.5,-336.5 954.5,-336.5"/>
<text text-anchor="middle" x="988.5" y="-343.5" font-family="Helvetica,sans-Serif" font-size="10.00" fill="#000000">unix_time.h</text>
</a>
</g>
</g>
<!-- Node1&#45;&gt;Node38 -->
<g id="edge60" class="edge">
<title>Node1&#45;&gt;Node38</title>
<path fill="none" stroke="#191970" d="M824.537,-392.373C857.889,-382.94 908.853,-368.526 945.1,-358.275"/>
<polygon fill="#191970" stroke="#191970" points="946.237,-361.591 954.907,-355.501 944.332,-354.855 946.237,-361.591"/>
</g>
<!-- Node39 -->
<g id="node39" class="node">
<title>Node39</title>
<g id="a_node39"><a xlink:href="led_8h.html" target="_top" xlink:title="led.h">
<polygon fill="#ffffff" stroke="#000000" points="1040.5,-336.5 1040.5,-355.5 1078.5,-355.5 1078.5,-336.5 1040.5,-336.5"/>
<text text-anchor="middle" x="1059.5" y="-343.5" font-family="Helvetica,sans-Serif" font-size="10.00" fill="#000000">led.h</text>
</a>
</g>
</g>
<!-- Node1&#45;&gt;Node39 -->
<g id="edge62" class="edge">
<title>Node1&#45;&gt;Node39</title>
<path fill="none" stroke="#191970" d="M837.187,-395.281C883.994,-388.057 958.2,-375.285 1030.61,-355.928"/>
<polygon fill="#191970" stroke="#191970" points="1031.61,-359.282 1040.34,-353.281 1029.78,-352.527 1031.61,-359.282"/>
</g>
<!-- Node40 -->
<g id="node40" class="node">
<title>Node40</title>
<g id="a_node40"><a xlink:href="ac__out_8h.html" target="_top" xlink:title="ac/ac_out.h">
<polygon fill="#ffffff" stroke="#000000" points="1096.5,-336.5 1096.5,-355.5 1164.5,-355.5 1164.5,-336.5 1096.5,-336.5"/>
<text text-anchor="middle" x="1130.5" y="-343.5" font-family="Helvetica,sans-Serif" font-size="10.00" fill="#000000">ac/ac_out.h</text>
</a>
</g>
</g>
<!-- Node1&#45;&gt;Node40 -->
<g id="edge63" class="edge">
<title>Node1&#45;&gt;Node40</title>
<path fill="none" stroke="#191970" d="M837.242,-395.863C893.903,-388.179 992.486,-374.029 1086.34,-356.117"/>
<polygon fill="#191970" stroke="#191970" points="1087.12,-359.53 1096.28,-354.201 1085.8,-352.656 1087.12,-359.53"/>
</g>
<!-- Node41 -->
<g id="node41" class="node">
<title>Node41</title>
<g id="a_node41"><a xlink:href="utils_8h.html" target="_top" xlink:title="utils.h">
<polygon fill="#ffffff" stroke="#000000" points="1183,-336.5 1183,-355.5 1226,-355.5 1226,-336.5 1183,-336.5"/>
<text text-anchor="middle" x="1204.5" y="-343.5" font-family="Helvetica,sans-Serif" font-size="10.00" fill="#000000">utils.h</text>
</a>
</g>
</g>
<!-- Node1&#45;&gt;Node41 -->
<g id="edge64" class="edge">
<title>Node1&#45;&gt;Node41</title>
<path fill="none" stroke="#191970" d="M837.263,-399.293C908.061,-394.562 1046.68,-382.822 1173.11,-355.685"/>
<polygon fill="#191970" stroke="#191970" points="1173.94,-359.086 1182.97,-353.532 1172.45,-352.247 1173.94,-359.086"/>
</g>
<!-- Node42 -->
<g id="node42" class="node">
<title>Node42</title>
<g id="a_node42"><a xlink:href="user__main_8h.html" target="_top" xlink:title="user_main.h">
<polygon fill="#ffffff" stroke="#000000" points="1244.5,-336.5 1244.5,-355.5 1316.5,-355.5 1316.5,-336.5 1244.5,-336.5"/>
<text text-anchor="middle" x="1280.5" y="-343.5" font-family="Helvetica,sans-Serif" font-size="10.00" fill="#000000">user_main.h</text>
</a>
</g>
</g>
<!-- Node1&#45;&gt;Node42 -->
<g id="edge65" class="edge">
<title>Node1&#45;&gt;Node42</title>
<path fill="none" stroke="#191970" d="M837.064,-398.883C918.163,-393.073 1090.45,-379.048 1234.5,-356 1234.6,-355.984 1234.7,-355.968 1234.8,-355.951"/>
<polygon fill="#191970" stroke="#191970" points="1235.18,-359.439 1244.41,-354.241 1233.95,-352.548 1235.18,-359.439"/>
</g>
<!-- Node43 -->
<g id="node43" class="node">
<title>Node43</title>
<g id="a_node43"><a xlink:href="captdns_8h.html" target="_top" xlink:title="captdns.h">
<polygon fill="#ffffff" stroke="#000000" points="1334.5,-336.5 1334.5,-355.5 1394.5,-355.5 1394.5,-336.5 1334.5,-336.5"/>
<text text-anchor="middle" x="1364.5" y="-343.5" font-family="Helvetica,sans-Serif" font-size="10.00" fill="#000000">captdns.h</text>
</a>
</g>
</g>
<!-- Node1&#45;&gt;Node43 -->
<g id="edge66" class="edge">
<title>Node1&#45;&gt;Node43</title>
<path fill="none" stroke="#191970" d="M837.344,-400.573C929.145,-397.214 1139.19,-386.764 1324.45,-355.924"/>
<polygon fill="#191970" stroke="#191970" points="1325.09,-359.366 1334.37,-354.249 1323.93,-352.463 1325.09,-359.366"/>
</g>
<!-- Node44 -->
<g id="node44" class="node">
<title>Node44</title>
<g id="a_node44"><a xlink:href="tinyprintf_8h.html" target="_top" xlink:title="tinyprintf.h">
<polygon fill="#ffffff" stroke="#000000" points="1768,-336.5 1768,-355.5 1831,-355.5 1831,-336.5 1768,-336.5"/>
<text text-anchor="middle" x="1799.5" y="-343.5" font-family="Helvetica,sans-Serif" font-size="10.00" fill="#000000">tinyprintf.h</text>
</a>
</g>
</g>
<!-- Node1&#45;&gt;Node44 -->
<g id="edge67" class="edge">
<title>Node1&#45;&gt;Node44</title>
<path fill="none" stroke="#191970" d="M837.019,-400.972C1001.77,-397.15 1557.85,-382.662 1757.73,-355.773"/>
<polygon fill="#191970" stroke="#191970" points="1758.42,-359.212 1767.83,-354.359 1757.44,-352.279 1758.42,-359.212"/>
</g>
<!-- Node47 -->
<g id="node47" class="node">
<title>Node47</title>
<g id="a_node47"><a xlink:href="ext__spi__flash_8h.html" target="_top" xlink:title="driver/ext_spi_flash.h">
<polygon fill="#ffffff" stroke="#000000" points="1534,-336.5 1534,-355.5 1645,-355.5 1645,-336.5 1534,-336.5"/>
<text text-anchor="middle" x="1589.5" y="-343.5" font-family="Helvetica,sans-Serif" font-size="10.00" fill="#000000">driver/ext_spi_flash.h</text>
</a>
</g>
</g>
<!-- Node1&#45;&gt;Node47 -->
<g id="edge70" class="edge">
<title>Node1&#45;&gt;Node47</title>
<path fill="none" stroke="#191970" d="M837.425,-400.526C952.486,-396.596 1257.97,-384.262 1523.65,-355.993"/>
<polygon fill="#191970" stroke="#191970" points="1524.3,-359.443 1533.87,-354.895 1523.56,-352.483 1524.3,-359.443"/>
</g>
<!-- Node48 -->
<g id="node48" class="node">
<title>Node48</title>
<g id="a_node48"><a xlink:href="watchdog_8h.html" target="_top" xlink:title="watchdog.h">
<polygon fill="#ffffff" stroke="#000000" points="1681.5,-336.5 1681.5,-355.5 1749.5,-355.5 1749.5,-336.5 1681.5,-336.5"/>
<text text-anchor="middle" x="1715.5" y="-343.5" font-family="Helvetica,sans-Serif" font-size="10.00" fill="#000000">watchdog.h</text>
</a>
</g>
</g>
<!-- Node1&#45;&gt;Node48 -->
<g id="edge72" class="edge">
<title>Node1&#45;&gt;Node48</title>
<path fill="none" stroke="#191970" d="M837.124,-400.621C994.888,-395.79 1507.94,-378.686 1671.5,-356 1671.6,-355.986 1671.7,-355.972 1671.81,-355.957"/>
<polygon fill="#191970" stroke="#191970" points="1672.21,-359.438 1681.5,-354.333 1671.06,-352.534 1672.21,-359.438"/>
</g>
<!-- Node49 -->
<g id="node49" class="node">
<title>Node49</title>
<g id="a_node49"><a xlink:href="en61107__request_8h.html" target="_top" xlink:title="en61107_request.h">
<polygon fill="#ffffff" stroke="#000000" points="1413,-336.5 1413,-355.5 1516,-355.5 1516,-336.5 1413,-336.5"/>
<text text-anchor="middle" x="1464.5" y="-343.5" font-family="Helvetica,sans-Serif" font-size="10.00" fill="#000000">en61107_request.h</text>
</a>
</g>
</g>
<!-- Node1&#45;&gt;Node49 -->
<g id="edge73" class="edge">
<title>Node1&#45;&gt;Node49</title>
<path fill="none" stroke="#191970" d="M837.159,-399.896C938.26,-395.035 1185.25,-381.534 1402.94,-355.962"/>
<polygon fill="#191970" stroke="#191970" points="1403.44,-359.428 1412.96,-354.775 1402.62,-352.477 1403.44,-359.428"/>
</g>
<!-- Node3 -->
<g id="node3" class="node">
<title>Node3</title>
<polygon fill="#ffffff" stroke="#bfbfbf" points="402,-56.5 402,-75.5 451,-75.5 451,-56.5 402,-56.5"/>
<text text-anchor="middle" x="426.5" y="-63.5" font-family="Helvetica,sans-Serif" font-size="10.00" fill="#000000">ctype.h</text>
</g>
<!-- Node2&#45;&gt;Node3 -->
<g id="edge2" class="edge">
<title>Node2&#45;&gt;Node3</title>
<path fill="none" stroke="#191970" d="M593.831,-113.314C562.534,-104.699 513.044,-90.9919 460.788,-76.0541"/>
<polygon fill="#191970" stroke="#191970" points="461.579,-72.64 451.002,-73.2515 459.652,-79.3695 461.579,-72.64"/>
</g>
<!-- Node4 -->
<g id="node4" class="node">
<title>Node4</title>
<polygon fill="#ffffff" stroke="#bfbfbf" points="169.5,-56.5 169.5,-75.5 215.5,-75.5 215.5,-56.5 169.5,-56.5"/>
<text text-anchor="middle" x="192.5" y="-63.5" font-family="Helvetica,sans-Serif" font-size="10.00" fill="#000000">stdio.h</text>
</g>
<!-- Node2&#45;&gt;Node4 -->
<g id="edge3" class="edge">
<title>Node2&#45;&gt;Node4</title>
<path fill="none" stroke="#191970" d="M593.917,-118.169C530.872,-110.483 384.949,-92.5037 262.5,-76 250.484,-74.3805 237.321,-72.5221 225.684,-70.8503"/>
<polygon fill="#191970" stroke="#191970" points="225.9,-67.3454 215.502,-69.3796 224.899,-74.2734 225.9,-67.3454"/>
</g>
<!-- Node5 -->
<g id="node5" class="node">
<title>Node5</title>
<polygon fill="#ffffff" stroke="#bfbfbf" points="469.5,-56.5 469.5,-75.5 517.5,-75.5 517.5,-56.5 469.5,-56.5"/>
<text text-anchor="middle" x="493.5" y="-63.5" font-family="Helvetica,sans-Serif" font-size="10.00" fill="#000000">stdlib.h</text>
</g>
<!-- Node2&#45;&gt;Node5 -->
<g id="edge4" class="edge">
<title>Node2&#45;&gt;Node5</title>
<path fill="none" stroke="#191970" d="M602.808,-112.373C581.429,-103.303 549.194,-89.6279 525.264,-79.4755"/>
<polygon fill="#191970" stroke="#191970" points="526.468,-76.1846 515.896,-75.5011 523.734,-82.6287 526.468,-76.1846"/>
</g>
<!-- Node6 -->
<g id="node6" class="node">
<title>Node6</title>
<polygon fill="#ffffff" stroke="#bfbfbf" points="536,-56.5 536,-75.5 585,-75.5 585,-56.5 536,-56.5"/>
<text text-anchor="middle" x="560.5" y="-63.5" font-family="Helvetica,sans-Serif" font-size="10.00" fill="#000000">string.h</text>
</g>
<!-- Node2&#45;&gt;Node6 -->
<g id="edge5" class="edge">
<title>Node2&#45;&gt;Node6</title>
<path fill="none" stroke="#191970" d="M614.178,-112.246C604.578,-103.975 590.611,-91.9416 579.331,-82.2232"/>
<polygon fill="#191970" stroke="#191970" points="581.553,-79.5182 571.692,-75.6427 576.984,-84.8214 581.553,-79.5182"/>
</g>
<!-- Node7 -->
<g id="node7" class="node">
<title>Node7</title>
<polygon fill="#ffffff" stroke="#bfbfbf" points="977,-0.5 977,-19.5 1036,-19.5 1036,-0.5 977,-0.5"/>
<text text-anchor="middle" x="1006.5" y="-7.5" font-family="Helvetica,sans-Serif" font-size="10.00" fill="#000000">c_types.h</text>
</g>
<!-- Node2&#45;&gt;Node7 -->
<g id="edge6" class="edge">
<title>Node2&#45;&gt;Node7</title>
<path fill="none" stroke="#191970" d="M657.209,-121.108C731.602,-118.485 914.878,-108.784 965.5,-76 982.427,-65.0378 993.566,-44.3706 999.905,-29.0721"/>
<polygon fill="#191970" stroke="#191970" points="1003.25,-30.1148 1003.54,-19.5238 996.711,-27.6251 1003.25,-30.1148"/>
</g>
<!-- Node8 -->
<g id="node8" class="node">
<title>Node8</title>
<polygon fill="#ffffff" stroke="#bfbfbf" points="1034.5,-56.5 1034.5,-75.5 1092.5,-75.5 1092.5,-56.5 1034.5,-56.5"/>
<text text-anchor="middle" x="1063.5" y="-63.5" font-family="Helvetica,sans-Serif" font-size="10.00" fill="#000000">ip_addr.h</text>
</g>
<!-- Node2&#45;&gt;Node8 -->
<g id="edge7" class="edge">
<title>Node2&#45;&gt;Node8</title>
<path fill="none" stroke="#191970" d="M657.163,-119.531C724.415,-114.021 886.333,-99.3367 1020.5,-76 1021.77,-75.7784 1023.07,-75.5425 1024.37,-75.2952"/>
<polygon fill="#191970" stroke="#191970" points="1025.36,-78.666 1034.45,-73.2237 1023.95,-71.8095 1025.36,-78.666"/>
</g>
<!-- Node9 -->
<g id="node9" class="node">
<title>Node9</title>
<polygon fill="#ffffff" stroke="#bfbfbf" points="1111,-56.5 1111,-75.5 1174,-75.5 1174,-56.5 1111,-56.5"/>
<text text-anchor="middle" x="1142.5" y="-63.5" font-family="Helvetica,sans-Serif" font-size="10.00" fill="#000000">espconn.h</text>
</g>
<!-- Node2&#45;&gt;Node9 -->
<g id="edge8" class="edge">
<title>Node2&#45;&gt;Node9</title>
<path fill="none" stroke="#191970" d="M657.175,-120.506C732.423,-116.624 927.898,-104.582 1100.77,-75.8932"/>
<polygon fill="#191970" stroke="#191970" points="1101.53,-79.3145 1110.81,-74.2035 1100.37,-72.4115 1101.53,-79.3145"/>
</g>
<!-- Node10 -->
<g id="node10" class="node">
<title>Node10</title>
<polygon fill="#ffffff" stroke="#bfbfbf" points="599,-0.5 599,-19.5 658,-19.5 658,-0.5 599,-0.5"/>
<text text-anchor="middle" x="628.5" y="-7.5" font-family="Helvetica,sans-Serif" font-size="10.00" fill="#000000">ets_sys.h</text>
</g>
<!-- Node2&#45;&gt;Node10 -->
<g id="edge9" class="edge">
<title>Node2&#45;&gt;Node10</title>
<path fill="none" stroke="#191970" d="M657.152,-119.82C734.749,-114.154 929.522,-97.8726 948.5,-76 954.325,-69.2861 954.321,-62.7177 948.5,-56 930.384,-35.0938 750.388,-19.1065 668.587,-12.8608"/>
<polygon fill="#191970" stroke="#191970" points="668.421,-9.3385 658.186,-12.0789 667.896,-16.3188 668.421,-9.3385"/>
</g>
<!-- Node11 -->
<g id="node11" class="node">
<title>Node11</title>
<polygon fill="#ffffff" stroke="#bfbfbf" points="603.5,-56.5 603.5,-75.5 647.5,-75.5 647.5,-56.5 603.5,-56.5"/>
<text text-anchor="middle" x="625.5" y="-63.5" font-family="Helvetica,sans-Serif" font-size="10.00" fill="#000000">gpio.h</text>
</g>
<!-- Node2&#45;&gt;Node11 -->
<g id="edge10" class="edge">
<title>Node2&#45;&gt;Node11</title>
<path fill="none" stroke="#191970" d="M625.5,-112.246C625.5,-104.938 625.5,-94.6944 625.5,-85.7046"/>
<polygon fill="#191970" stroke="#191970" points="629,-85.6426 625.5,-75.6427 622,-85.6427 629,-85.6426"/>
</g>
<!-- Node12 -->
<g id="node12" class="node">
<title>Node12</title>
<polygon fill="#ffffff" stroke="#bfbfbf" points="666,-56.5 666,-75.5 713,-75.5 713,-56.5 666,-56.5"/>
<text text-anchor="middle" x="689.5" y="-63.5" font-family="Helvetica,sans-Serif" font-size="10.00" fill="#000000">mem.h</text>
</g>
<!-- Node2&#45;&gt;Node12 -->
<g id="edge11" class="edge">
<title>Node2&#45;&gt;Node12</title>
<path fill="none" stroke="#191970" d="M636.648,-112.246C646.009,-104.055 659.586,-92.1749 670.635,-82.5069"/>
<polygon fill="#191970" stroke="#191970" points="673.259,-84.8618 678.48,-75.6427 668.649,-79.5937 673.259,-84.8618"/>
</g>
<!-- Node13 -->
<g id="node13" class="node">
<title>Node13</title>
<polygon fill="#ffffff" stroke="#bfbfbf" points="731,-56.5 731,-75.5 780,-75.5 780,-56.5 731,-56.5"/>
<text text-anchor="middle" x="755.5" y="-63.5" font-family="Helvetica,sans-Serif" font-size="10.00" fill="#000000">osapi.h</text>
</g>
<!-- Node2&#45;&gt;Node13 -->
<g id="edge12" class="edge">
<title>Node2&#45;&gt;Node13</title>
<path fill="none" stroke="#191970" d="M647.848,-112.373C668.903,-103.303 700.65,-89.6279 724.217,-79.4755"/>
<polygon fill="#191970" stroke="#191970" points="725.644,-82.6719 733.444,-75.5011 722.875,-76.243 725.644,-82.6719"/>
</g>
<!-- Node14 -->
<g id="node14" class="node">
<title>Node14</title>
<polygon fill="#ffffff" stroke="#bfbfbf" points="1192.5,-56.5 1192.5,-75.5 1280.5,-75.5 1280.5,-56.5 1192.5,-56.5"/>
<text text-anchor="middle" x="1236.5" y="-63.5" font-family="Helvetica,sans-Serif" font-size="10.00" fill="#000000">user_interface.h</text>
</g>
<!-- Node2&#45;&gt;Node14 -->
<g id="edge13" class="edge">
<title>Node2&#45;&gt;Node14</title>
<path fill="none" stroke="#191970" d="M657.026,-120.511C740.737,-116.322 975.678,-103.024 1182.23,-75.8937"/>
<polygon fill="#191970" stroke="#191970" points="1182.9,-79.3353 1192.35,-74.5496 1181.98,-72.3962 1182.9,-79.3353"/>
</g>
<!-- Node15 -->
<g id="node15" class="node">
<title>Node15</title>
<polygon fill="#ffffff" stroke="#bfbfbf" points="798.5,-56.5 798.5,-75.5 860.5,-75.5 860.5,-56.5 798.5,-56.5"/>
<text text-anchor="middle" x="829.5" y="-63.5" font-family="Helvetica,sans-Serif" font-size="10.00" fill="#000000">upgrade.h</text>
</g>
<!-- Node2&#45;&gt;Node15 -->
<g id="edge14" class="edge">
<title>Node2&#45;&gt;Node15</title>
<path fill="none" stroke="#191970" d="M657.375,-113.25C692.659,-103.564 749.641,-87.9221 788.29,-77.3126"/>
<polygon fill="#191970" stroke="#191970" points="789.467,-80.6191 798.183,-74.5967 787.614,-73.8688 789.467,-80.6191"/>
</g>
<!-- Node16 -->
<g id="node16" class="node">
<title>Node16</title>
<g id="a_node16"><a xlink:href="platform_8h.html" target="_top" xlink:title="platform.h">
<polygon fill="#ffffff" stroke="#000000" points="879,-56.5 879,-75.5 940,-75.5 940,-56.5 879,-56.5"/>
<text text-anchor="middle" x="909.5" y="-63.5" font-family="Helvetica,sans-Serif" font-size="10.00" fill="#000000">platform.h</text>
</a>
</g>
</g>
<!-- Node2&#45;&gt;Node16 -->
<g id="edge15" class="edge">
<title>Node2&#45;&gt;Node16</title>
<path fill="none" stroke="#191970" d="M657.205,-116.635C702.044,-108.914 786.751,-93.8418 868.959,-76.0159"/>
<polygon fill="#191970" stroke="#191970" points="869.946,-79.3828 878.969,-73.8287 868.452,-72.5441 869.946,-79.3828"/>
</g>
<!-- Node17 -->
<g id="node17" class="node">
<title>Node17</title>
<g id="a_node17"><a xlink:href="espmissingincludes_8h.html" target="_top" xlink:title="espmissingincludes.h">
<polygon fill="#ffffff" stroke="#000000" points="271.5,-56.5 271.5,-75.5 383.5,-75.5 383.5,-56.5 271.5,-56.5"/>
<text text-anchor="middle" x="327.5" y="-63.5" font-family="Helvetica,sans-Serif" font-size="10.00" fill="#000000">espmissingincludes.h</text>
</a>
</g>
</g>
<!-- Node2&#45;&gt;Node17 -->
<g id="edge16" class="edge">
<title>Node2&#45;&gt;Node17</title>
<path fill="none" stroke="#191970" d="M593.891,-116.06C545.08,-106.887 450.495,-89.1132 388.173,-77.4016"/>
<polygon fill="#191970" stroke="#191970" points="388.552,-73.9117 378.078,-75.5046 387.26,-80.7913 388.552,-73.9117"/>
</g>
<!-- Node17&#45;&gt;Node7 -->
<g id="edge18" class="edge">
<title>Node17&#45;&gt;Node7</title>
<path fill="none" stroke="#191970" d="M383.834,-57.0586C386.762,-56.6799 389.664,-56.3239 392.5,-56 608.459,-31.336 868.726,-16.8312 966.662,-11.9076"/>
<polygon fill="#191970" stroke="#191970" points="966.897,-15.4003 976.711,-11.4075 966.549,-8.40896 966.897,-15.4003"/>
</g>
<!-- Node17&#45;&gt;Node10 -->
<g id="edge20" class="edge">
<title>Node17&#45;&gt;Node10</title>
<path fill="none" stroke="#191970" d="M378.902,-56.4369C438.371,-45.3729 535.001,-27.3952 588.923,-17.3632"/>
<polygon fill="#191970" stroke="#191970" points="589.604,-20.7966 598.795,-15.5265 588.324,-13.9147 589.604,-20.7966"/>
</g>
<!-- Node18 -->
<g id="node18" class="node">
<title>Node18</title>
<polygon fill="#ffffff" stroke="#bfbfbf" points="204,-0.5 204,-19.5 253,-19.5 253,-0.5 204,-0.5"/>
<text text-anchor="middle" x="228.5" y="-7.5" font-family="Helvetica,sans-Serif" font-size="10.00" fill="#000000">stdint.h</text>
</g>
<!-- Node17&#45;&gt;Node18 -->
<g id="edge17" class="edge">
<title>Node17&#45;&gt;Node18</title>
<path fill="none" stroke="#191970" d="M310.256,-56.2455C294.924,-47.5731 272.28,-34.7645 254.708,-24.825"/>
<polygon fill="#191970" stroke="#191970" points="255.974,-21.5198 245.547,-19.6427 252.528,-27.6126 255.974,-21.5198"/>
</g>
<!-- Node19 -->
<g id="node19" class="node">
<title>Node19</title>
<polygon fill="#ffffff" stroke="#bfbfbf" points="107.5,-0.5 107.5,-19.5 177.5,-19.5 177.5,-0.5 107.5,-0.5"/>
<text text-anchor="middle" x="142.5" y="-7.5" font-family="Helvetica,sans-Serif" font-size="10.00" fill="#000000">eagle_soc.h</text>
</g>
<!-- Node17&#45;&gt;Node19 -->
<g id="edge19" class="edge">
<title>Node17&#45;&gt;Node19</title>
<path fill="none" stroke="#191970" d="M295.697,-56.3733C264.668,-46.9807 217.325,-32.6496 183.485,-22.4064"/>
<polygon fill="#191970" stroke="#191970" points="184.473,-19.0485 173.888,-19.5011 182.445,-25.7483 184.473,-19.0485"/>
</g>
<!-- Node20&#45;&gt;Node7 -->
<g id="edge24" class="edge">
<title>Node20&#45;&gt;Node7</title>
<path fill="none" stroke="#191970" d="M75.6602,-62.8015C99.569,-60.6926 131.927,-57.9669 160.5,-56 470.675,-34.6478 845.387,-17.1959 966.61,-11.7599"/>
<polygon fill="#191970" stroke="#191970" points="967.051,-15.2437 976.885,-11.3007 966.738,-8.25073 967.051,-15.2437"/>
</g>
<!-- Node20&#45;&gt;Node19 -->
<g id="edge23" class="edge">
<title>Node20&#45;&gt;Node19</title>
<path fill="none" stroke="#191970" d="M58.267,-56.2455C74.2095,-47.4928 97.8259,-34.527 115.999,-24.5496"/>
<polygon fill="#191970" stroke="#191970" points="117.855,-27.5233 124.937,-19.6427 114.486,-21.3873 117.855,-27.5233"/>
</g>
<!-- Node21 -->
<g id="node21" class="node">
<title>Node21</title>
<g id="a_node21"><a xlink:href="uart__register_8h.html" target="_top" xlink:title="uart_register.h">
<polygon fill="#ffffff" stroke="#000000" points="0,-0.5 0,-19.5 81,-19.5 81,-0.5 0,-0.5"/>
<text text-anchor="middle" x="40.5" y="-7.5" font-family="Helvetica,sans-Serif" font-size="10.00" fill="#000000">uart_register.h</text>
</a>
</g>
</g>
<!-- Node20&#45;&gt;Node21 -->
<g id="edge22" class="edge">
<title>Node20&#45;&gt;Node21</title>
<path fill="none" stroke="#191970" d="M40.5,-56.2455C40.5,-48.9382 40.5,-38.6944 40.5,-29.7046"/>
<polygon fill="#191970" stroke="#191970" points="44.0001,-29.6426 40.5,-19.6427 37.0001,-29.6427 44.0001,-29.6426"/>
</g>
<!-- Node22&#45;&gt;Node14 -->
<g id="edge29" class="edge">
<title>Node22&#45;&gt;Node14</title>
<path fill="none" stroke="#191970" d="M1406.18,-280.169C1416.02,-271.735 1429.05,-258.65 1435.5,-244 1449.13,-213.016 1458.3,-196.795 1440.5,-168 1407.98,-115.375 1339.17,-88.9922 1290.48,-76.4218"/>
<polygon fill="#191970" stroke="#191970" points="1291.27,-73.0115 1280.72,-74.0164 1289.59,-79.8081 1291.27,-73.0115"/>
</g>
<!-- Node23 -->
<g id="node23" class="node">
<title>Node23</title>
<g id="a_node23"><a xlink:href="mqtt__msg_8h.html" target="_top" xlink:title="mqtt_msg.h">
<polygon fill="#ffffff" stroke="#000000" points="1287,-224.5 1287,-243.5 1356,-243.5 1356,-224.5 1287,-224.5"/>
<text text-anchor="middle" x="1321.5" y="-231.5" font-family="Helvetica,sans-Serif" font-size="10.00" fill="#000000">mqtt_msg.h</text>
</a>
</g>
</g>
<!-- Node22&#45;&gt;Node23 -->
<g id="edge26" class="edge">
<title>Node22&#45;&gt;Node23</title>
<path fill="none" stroke="#191970" d="M1380.96,-280.246C1370.22,-271.894 1354.55,-259.708 1342,-249.941"/>
<polygon fill="#191970" stroke="#191970" points="1343.94,-247.019 1333.9,-243.643 1339.64,-252.545 1343.94,-247.019"/>
</g>
<!-- Node25 -->
<g id="node25" class="node">
<title>Node25</title>
<g id="a_node25"><a xlink:href="queue_8h.html" target="_top" xlink:title="queue.h">
<polygon fill="#ffffff" stroke="#000000" points="1374,-224.5 1374,-243.5 1427,-243.5 1427,-224.5 1374,-224.5"/>
<text text-anchor="middle" x="1400.5" y="-231.5" font-family="Helvetica,sans-Serif" font-size="10.00" fill="#000000">queue.h</text>
</a>
</g>
</g>
<!-- Node22&#45;&gt;Node25 -->
<g id="edge30" class="edge">
<title>Node22&#45;&gt;Node25</title>
<path fill="none" stroke="#191970" d="M1394.72,-280.246C1395.63,-272.938 1396.91,-262.694 1398.04,-253.705"/>
<polygon fill="#191970" stroke="#191970" points="1401.53,-254 1399.29,-243.643 1394.58,-253.131 1401.53,-254"/>
</g>
<!-- Node23&#45;&gt;Node7 -->
<g id="edge28" class="edge">
<title>Node23&#45;&gt;Node7</title>
<path fill="none" stroke="#191970" d="M1324.3,-224.291C1332.21,-194.586 1351.38,-104.045 1306.5,-56 1288.96,-37.2215 1123.95,-20.3514 1046.41,-13.3853"/>
<polygon fill="#191970" stroke="#191970" points="1046.34,-9.86569 1036.07,-12.4689 1045.72,-16.8383 1046.34,-9.86569"/>
</g>
<!-- Node23&#45;&gt;Node24 -->
<g id="edge27" class="edge">
<title>Node23&#45;&gt;Node24</title>
<path fill="none" stroke="#191970" d="M1286.95,-233.299C1183.78,-230.875 869.079,-221.096 610.5,-188 609.406,-187.86 608.3,-187.711 607.186,-187.554"/>
<polygon fill="#191970" stroke="#191970" points="607.453,-184.054 597.033,-185.968 606.372,-190.97 607.453,-184.054"/>
</g>
<!-- Node26 -->
<g id="node26" class="node">
<title>Node26</title>
<polygon fill="#ffffff" stroke="#bfbfbf" points="1371.5,-168.5 1371.5,-187.5 1431.5,-187.5 1431.5,-168.5 1371.5,-168.5"/>
<text text-anchor="middle" x="1401.5" y="-175.5" font-family="Helvetica,sans-Serif" font-size="10.00" fill="#000000">os_type.h</text>
</g>
<!-- Node25&#45;&gt;Node26 -->
<g id="edge31" class="edge">
<title>Node25&#45;&gt;Node26</title>
<path fill="none" stroke="#191970" d="M1400.67,-224.246C1400.8,-216.938 1400.99,-206.694 1401.15,-197.705"/>
<polygon fill="#191970" stroke="#191970" points="1404.65,-197.704 1401.33,-187.643 1397.65,-197.579 1404.65,-197.704"/>
</g>
<!-- Node27 -->
<g id="node27" class="node">
<title>Node27</title>
<g id="a_node27"><a xlink:href="ringbuf_8h.html" target="_top" xlink:title="ringbuf.h">
<polygon fill="#ffffff" stroke="#ff0000" points="620,-168.5 620,-187.5 675,-187.5 675,-168.5 620,-168.5"/>
<text text-anchor="middle" x="647.5" y="-175.5" font-family="Helvetica,sans-Serif" font-size="10.00" fill="#000000">ringbuf.h</text>
</a>
</g>
</g>
<!-- Node25&#45;&gt;Node27 -->
<g id="edge32" class="edge">
<title>Node25&#45;&gt;Node27</title>
<path fill="none" stroke="#191970" d="M1373.9,-225.951C1370.75,-225.195 1367.57,-224.519 1364.5,-224 1231.86,-201.572 813.765,-184.283 685.374,-179.394"/>
<polygon fill="#191970" stroke="#191970" points="685.37,-175.892 675.245,-179.012 685.106,-182.887 685.37,-175.892"/>
</g>
<!-- Node27&#45;&gt;Node2 -->
<g id="edge33" class="edge">
<title>Node27&#45;&gt;Node2</title>
<path fill="none" stroke="#191970" d="M643.668,-168.246C640.734,-160.778 636.595,-150.243 633.009,-141.114"/>
<polygon fill="#191970" stroke="#191970" points="636.202,-139.67 629.288,-131.643 629.687,-142.23 636.202,-139.67"/>
</g>
<!-- Node28&#45;&gt;Node2 -->
<g id="edge35" class="edge">
<title>Node28&#45;&gt;Node2</title>
<path fill="none" stroke="#191970" d="M277.762,-172.06C352.369,-161.32 508.897,-138.786 583.814,-128.001"/>
<polygon fill="#191970" stroke="#191970" points="584.427,-131.449 593.826,-126.56 583.429,-124.52 584.427,-131.449"/>
</g>
<!-- Node28&#45;&gt;Node4 -->
<g id="edge36" class="edge">
<title>Node28&#45;&gt;Node4</title>
<path fill="none" stroke="#191970" d="M232.749,-168.451C225.507,-150.019 209.481,-109.225 199.981,-85.043"/>
<polygon fill="#191970" stroke="#191970" points="203.156,-83.5526 196.242,-75.5249 196.641,-86.1122 203.156,-83.5526"/>
</g>
<!-- Node29&#45;&gt;Node2 -->
<g id="edge38" class="edge">
<title>Node29&#45;&gt;Node2</title>
<path fill="none" stroke="#191970" d="M139.029,-173.597C153.717,-171.808 170.923,-169.754 186.5,-168 332.142,-151.597 505.193,-134.028 583.41,-126.191"/>
<polygon fill="#191970" stroke="#191970" points="584.203,-129.629 593.805,-125.151 583.506,-122.664 584.203,-129.629"/>
</g>
<!-- Node29&#45;&gt;Node18 -->
<g id="edge39" class="edge">
<title>Node29&#45;&gt;Node18</title>
<path fill="none" stroke="#191970" d="M102.622,-168.24C101.144,-145.836 100.596,-90.0406 127.5,-56 136.346,-44.8077 168.753,-31.1721 194.503,-21.6648"/>
<polygon fill="#191970" stroke="#191970" points="195.769,-24.9288 203.983,-18.2368 193.389,-18.3459 195.769,-24.9288"/>
</g>
<!-- Node30&#45;&gt;Node2 -->
<g id="edge41" class="edge">
<title>Node30&#45;&gt;Node2</title>
<path fill="none" stroke="#191970" d="M353.223,-224.177C363.816,-209.506 385.847,-182.094 411.5,-168 440.617,-152.003 529.785,-136.4 583.394,-128.115"/>
<polygon fill="#191970" stroke="#191970" points="584.255,-131.524 593.613,-126.557 583.2,-124.604 584.255,-131.524"/>
</g>
<!-- Node30&#45;&gt;Node18 -->
<g id="edge42" class="edge">
<title>Node30&#45;&gt;Node18</title>
<path fill="none" stroke="#191970" d="M341.343,-224.405C328.131,-199.799 292.031,-132.425 262.5,-76 254.213,-60.1656 244.928,-42.1222 238.158,-28.9078"/>
<polygon fill="#191970" stroke="#191970" points="241.2,-27.1688 233.529,-19.8606 234.968,-30.3572 241.2,-27.1688"/>
</g>
<!-- Node30&#45;&gt;Node28 -->
<g id="edge43" class="edge">
<title>Node30&#45;&gt;Node28</title>
<path fill="none" stroke="#191970" d="M327.339,-224.246C309.989,-215.413 284.21,-202.289 264.542,-192.276"/>
<polygon fill="#191970" stroke="#191970" points="265.941,-189.06 255.441,-187.643 262.765,-195.299 265.941,-189.06"/>
</g>
<!-- Node31&#45;&gt;Node2 -->
<g id="edge45" class="edge">
<title>Node31&#45;&gt;Node2</title>
<path fill="none" stroke="#191970" d="M356.552,-280.393C368.696,-271.704 386.319,-258.138 399.5,-244 427.581,-213.879 418.767,-191.62 452.5,-168 491.71,-140.545 546.36,-129.475 583.679,-125.013"/>
<polygon fill="#191970" stroke="#191970" points="584.155,-128.482 593.718,-123.921 583.398,-121.523 584.155,-128.482"/>
</g>
<!-- Node31&#45;&gt;Node18 -->
<g id="edge46" class="edge">
<title>Node31&#45;&gt;Node18</title>
<path fill="none" stroke="#191970" d="M316.771,-280.39C281.673,-265.91 219.4,-235.081 186.5,-188 152.25,-138.987 132.464,-108.814 160.5,-56 167.885,-42.0889 181.564,-31.6166 194.727,-24.2062"/>
<polygon fill="#191970" stroke="#191970" points="196.412,-27.275 203.674,-19.5605 193.187,-21.0625 196.412,-27.275"/>
</g>
<!-- Node31&#45;&gt;Node28 -->
<g id="edge47" class="edge">
<title>Node31&#45;&gt;Node28</title>
<path fill="none" stroke="#191970" d="M331.679,-280.439C321.54,-271.343 306.101,-257.135 293.5,-244 278.368,-228.227 262.174,-209.253 250.93,-195.705"/>
<polygon fill="#191970" stroke="#191970" points="253.375,-193.169 244.316,-187.674 247.971,-197.619 253.375,-193.169"/>
</g>
<!-- Node31&#45;&gt;Node30 -->
<g id="edge48" class="edge">
<title>Node31&#45;&gt;Node30</title>
<path fill="none" stroke="#191970" d="M343.197,-280.246C343.719,-272.938 344.45,-262.694 345.093,-253.705"/>
<polygon fill="#191970" stroke="#191970" points="348.59,-253.867 345.811,-243.643 341.608,-253.368 348.59,-253.867"/>
</g>
<!-- Node33&#45;&gt;Node24 -->
<g id="edge51" class="edge">
<title>Node33&#45;&gt;Node24</title>
<path fill="none" stroke="#191970" d="M558.5,-336.486C558.5,-309.929 558.5,-234.565 558.5,-198.166"/>
<polygon fill="#191970" stroke="#191970" points="562,-197.828 558.5,-187.828 555,-197.828 562,-197.828"/>
</g>
<!-- Node33&#45;&gt;Node34 -->
<g id="edge52" class="edge">
<title>Node33&#45;&gt;Node34</title>
<path fill="none" stroke="#191970" d="M571.564,-336.246C582.856,-327.814 599.384,-315.473 612.527,-305.66"/>
<polygon fill="#191970" stroke="#191970" points="614.667,-308.43 620.586,-299.643 610.479,-302.821 614.667,-308.43"/>
</g>
<!-- Node36&#45;&gt;Node7 -->
<g id="edge55" class="edge">
<title>Node36&#45;&gt;Node7</title>
<path fill="none" stroke="#191970" d="M1126.22,-119.742C1171.92,-114.848 1269.44,-101.59 1289.5,-76 1294.98,-69.0041 1295.26,-62.7709 1289.5,-56 1273.92,-37.6822 1120.6,-20.8075 1046.37,-13.6351"/>
<polygon fill="#191970" stroke="#191970" points="1046.31,-10.1131 1036.02,-12.6483 1045.64,-17.0815 1046.31,-10.1131"/>
</g>
<!-- Node36&#45;&gt;Node8 -->
<g id="edge56" class="edge">
<title>Node36&#45;&gt;Node8</title>
<path fill="none" stroke="#191970" d="M1095.71,-112.246C1090.28,-104.456 1082.53,-93.3308 1076,-83.9439"/>
<polygon fill="#191970" stroke="#191970" points="1078.8,-81.8485 1070.22,-75.6427 1073.06,-85.849 1078.8,-81.8485"/>
</g>
<!-- Node36&#45;&gt;Node9 -->
<g id="edge57" class="edge">
<title>Node36&#45;&gt;Node9</title>
<path fill="none" stroke="#191970" d="M1109.47,-112.246C1115.03,-104.456 1122.98,-93.3308 1129.68,-83.9439"/>
<polygon fill="#191970" stroke="#191970" points="1132.65,-85.8144 1135.61,-75.6427 1126.95,-81.7457 1132.65,-85.8144"/>
</g>
<!-- Node45 -->
<g id="node45" class="node">
<title>Node45</title>
<polygon fill="#ffffff" stroke="#bfbfbf" points="1734,-280.5 1734,-299.5 1787,-299.5 1787,-280.5 1734,-280.5"/>
<text text-anchor="middle" x="1760.5" y="-287.5" font-family="Helvetica,sans-Serif" font-size="10.00" fill="#000000">stdarg.h</text>
</g>
<!-- Node44&#45;&gt;Node45 -->
<g id="edge68" class="edge">
<title>Node44&#45;&gt;Node45</title>
<path fill="none" stroke="#191970" d="M1792.71,-336.246C1787.28,-328.456 1779.53,-317.331 1773,-307.944"/>
<polygon fill="#191970" stroke="#191970" points="1775.8,-305.849 1767.22,-299.643 1770.06,-309.849 1775.8,-305.849"/>
</g>
<!-- Node46 -->
<g id="node46" class="node">
<title>Node46</title>
<polygon fill="#ffffff" stroke="#bfbfbf" points="1805,-280.5 1805,-299.5 1872,-299.5 1872,-280.5 1805,-280.5"/>
<text text-anchor="middle" x="1838.5" y="-287.5" font-family="Helvetica,sans-Serif" font-size="10.00" fill="#000000">sys/types.h</text>
</g>
<!-- Node44&#45;&gt;Node46 -->
<g id="edge69" class="edge">
<title>Node44&#45;&gt;Node46</title>
<path fill="none" stroke="#191970" d="M1806.29,-336.246C1811.72,-328.456 1819.47,-317.331 1826,-307.944"/>
<polygon fill="#191970" stroke="#191970" points="1828.94,-309.849 1831.78,-299.643 1823.2,-305.849 1828.94,-309.849"/>
</g>
<!-- Node47&#45;&gt;Node47 -->
<g id="edge71" class="edge">
<title>Node47&#45;&gt;Node47</title>
<path fill="none" stroke="#191970" d="M1620.85,-355.525C1642.15,-358.308 1663,-355.133 1663,-346 1663,-338.366 1648.43,-334.894 1631.21,-335.586"/>
<polygon fill="#191970" stroke="#191970" points="1630.51,-332.133 1620.85,-336.475 1631.11,-339.107 1630.51,-332.133"/>
</g>
<!-- Node49&#45;&gt;Node22 -->
<g id="edge74" class="edge">
<title>Node49&#45;&gt;Node22</title>
<path fill="none" stroke="#191970" d="M1452.13,-336.246C1441.54,-327.894 1426.09,-315.708 1413.71,-305.941"/>
<polygon fill="#191970" stroke="#191970" points="1415.74,-303.087 1405.73,-299.643 1411.41,-308.584 1415.74,-303.087"/>
</g>
<!-- Node50 -->
<g id="node50" class="node">
<title>Node50</title>
<g id="a_node50"><a xlink:href="en61107_8h.html" target="_top" xlink:title="en61107.h">
<polygon fill="#ffffff" stroke="#000000" points="1433.5,-280.5 1433.5,-299.5 1497.5,-299.5 1497.5,-280.5 1433.5,-280.5"/>
<text text-anchor="middle" x="1465.5" y="-287.5" font-family="Helvetica,sans-Serif" font-size="10.00" fill="#000000">en61107.h</text>
</a>
</g>
</g>
<!-- Node49&#45;&gt;Node50 -->
<g id="edge75" class="edge">
<title>Node49&#45;&gt;Node50</title>
<path fill="none" stroke="#191970" d="M1464.67,-336.246C1464.8,-328.938 1464.99,-318.694 1465.15,-309.705"/>
<polygon fill="#191970" stroke="#191970" points="1468.65,-309.704 1465.33,-299.643 1461.65,-309.579 1468.65,-309.704"/>
</g>
</g>
</svg>
