<?xml version="1.0" encoding="UTF-8" standalone="no"?>
<!DOCTYPE svg PUBLIC "-//W3C//DTD SVG 1.1//EN"
 "http://www.w3.org/Graphics/SVG/1.1/DTD/svg11.dtd">
<!-- Generated by graphviz version 2.41.20170323.1842 (20170323.1842)
 -->
<!-- Title: system_get_free_heap_size Pages: 1 -->
<svg width="1145pt" height="249pt"
 viewBox="0.00 0.00 1145.00 249.00" xmlns="http://www.w3.org/2000/svg" xmlns:xlink="http://www.w3.org/1999/xlink">
<g id="graph0" class="graph" transform="scale(1 1) rotate(0) translate(4 245)">
<title>system_get_free_heap_size</title>
<polygon fill="#ffffff" stroke="transparent" points="-4,4 -4,-245 1141,-245 1141,4 -4,4"/>
<!-- Node14 -->
<g id="node1" class="node">
<title>Node14</title>
<polygon fill="#bfbfbf" stroke="#000000" points="0,-128.5 0,-147.5 142,-147.5 142,-128.5 0,-128.5"/>
<text text-anchor="middle" x="71" y="-135.5" font-family="Helvetica,sans-Serif" font-size="10.00" fill="#000000">system_get_free_heap_size</text>
</g>
<!-- Node15 -->
<g id="node2" class="node">
<title>Node15</title>
<g id="a_node2"><a xlink:href="en61107__request_8c.html#aa3b162cf5364986ea19e831ac2b18f76" target="_top" xlink:title="en61107_received_task">
<polygon fill="#ffffff" stroke="#000000" points="178,-221.5 178,-240.5 301,-240.5 301,-221.5 178,-221.5"/>
<text text-anchor="middle" x="239.5" y="-228.5" font-family="Helvetica,sans-Serif" font-size="10.00" fill="#000000">en61107_received_task</text>
</a>
</g>
</g>
<!-- Node14&#45;&gt;Node15 -->
<g id="edge1" class="edge">
<title>Node14&#45;&gt;Node15</title>
<path fill="none" stroke="#191970" d="M92.2137,-153.5004C113.2724,-168.4423 146.8271,-191.0706 178,-207 188.6142,-212.4239 200.7543,-217.4018 211.4287,-221.4009"/>
<polygon fill="#191970" stroke="#191970" points="94.1634,-150.5916 83.997,-147.6092 90.0846,-156.2805 94.1634,-150.5916"/>
</g>
<!-- Node18 -->
<g id="node5" class="node">
<title>Node18</title>
<g id="a_node5"><a xlink:href="kmp__request_8c.html#a3f6b790a06b933b78f40ade5e9a16131" target="_top" xlink:title="kmp_received_task">
<polygon fill="#ffffff" stroke="#000000" points="490,-183.5 490,-202.5 593,-202.5 593,-183.5 490,-183.5"/>
<text text-anchor="middle" x="541.5" y="-190.5" font-family="Helvetica,sans-Serif" font-size="10.00" fill="#000000">kmp_received_task</text>
</a>
</g>
</g>
<!-- Node14&#45;&gt;Node18 -->
<g id="edge4" class="edge">
<title>Node14&#45;&gt;Node18</title>
<path fill="none" stroke="#191970" d="M130.3927,-149.3004C145.8576,-152.0357 162.5238,-154.8013 178,-157 288.6602,-172.7215 419.2455,-183.8593 489.867,-189.2728"/>
<polygon fill="#191970" stroke="#191970" points="130.8888,-145.8336 120.428,-147.5135 129.6533,-152.7237 130.8888,-145.8336"/>
</g>
<!-- Node20 -->
<g id="node7" class="node">
<title>Node20</title>
<g id="a_node7"><a xlink:href="kmp__request_8h.html#a3b022dcdc832786eb06126b5e6879604" target="_top" xlink:title="kmp_request_send">
<polygon fill="#ffffff" stroke="#000000" points="188.5,-128.5 188.5,-147.5 290.5,-147.5 290.5,-128.5 188.5,-128.5"/>
<text text-anchor="middle" x="239.5" y="-135.5" font-family="Helvetica,sans-Serif" font-size="10.00" fill="#000000">kmp_request_send</text>
</a>
</g>
</g>
<!-- Node14&#45;&gt;Node20 -->
<g id="edge7" class="edge">
<title>Node14&#45;&gt;Node20</title>
<path fill="none" stroke="#191970" d="M152.6454,-138C164.8189,-138 177.0649,-138 188.3655,-138"/>
<polygon fill="#191970" stroke="#191970" points="152.4592,-134.5001 142.4592,-138 152.4591,-141.5001 152.4592,-134.5001"/>
</g>
<!-- Node22 -->
<g id="node9" class="node">
<title>Node22</title>
<g id="a_node9"><a xlink:href="user__main_8c.html#af2c051d5ceacd30f90c08d6f584deff2" target="_top" xlink:title="sample_timer_func">
<polygon fill="#ffffff" stroke="#000000" points="342.5,-57.5 342.5,-76.5 443.5,-76.5 443.5,-57.5 342.5,-57.5"/>
<text text-anchor="middle" x="393" y="-64.5" font-family="Helvetica,sans-Serif" font-size="10.00" fill="#000000">sample_timer_func</text>
</a>
</g>
</g>
<!-- Node14&#45;&gt;Node22 -->
<g id="edge21" class="edge">
<title>Node14&#45;&gt;Node22</title>
<path fill="none" stroke="#191970" d="M123.8589,-126.3448C187.0043,-112.4214 291.4259,-89.3968 349.9061,-76.5021"/>
<polygon fill="#191970" stroke="#191970" points="123.104,-122.9271 114.0922,-128.4983 124.6113,-129.7629 123.104,-122.9271"/>
</g>
<!-- Node28 -->
<g id="node15" class="node">
<title>Node28</title>
<g id="a_node15"><a xlink:href="user__main_8h.html#a6e5f80dd3fa3d07976a27c859e1aaadf" target="_top" xlink:title="mqtt_data_cb">
<polygon fill="#ffffff" stroke="#000000" points="354.5,-.5 354.5,-19.5 431.5,-19.5 431.5,-.5 354.5,-.5"/>
<text text-anchor="middle" x="393" y="-7.5" font-family="Helvetica,sans-Serif" font-size="10.00" fill="#000000">mqtt_data_cb</text>
</a>
</g>
</g>
<!-- Node14&#45;&gt;Node28 -->
<g id="edge19" class="edge">
<title>Node14&#45;&gt;Node28</title>
<path fill="none" stroke="#191970" d="M96.4544,-123.5642C117.8197,-111.7785 149.3565,-95.1461 178,-83 240.9653,-56.2999 317.3378,-32.2603 360.0229,-19.539"/>
<polygon fill="#191970" stroke="#191970" points="94.7156,-120.5263 87.6799,-128.4477 98.1199,-126.6428 94.7156,-120.5263"/>
</g>
<!-- Node16 -->
<g id="node3" class="node">
<title>Node16</title>
<g id="a_node3"><a xlink:href="en61107__request_8h.html#acd43242675a3f25e7c3b530eac9d8b3a" target="_top" xlink:title="en61107_request_init">
<polygon fill="#ffffff" stroke="#000000" points="485,-221.5 485,-240.5 598,-240.5 598,-221.5 485,-221.5"/>
<text text-anchor="middle" x="541.5" y="-228.5" font-family="Helvetica,sans-Serif" font-size="10.00" fill="#000000">en61107_request_init</text>
</a>
</g>
</g>
<!-- Node15&#45;&gt;Node16 -->
<g id="edge2" class="edge">
<title>Node15&#45;&gt;Node16</title>
<path fill="none" stroke="#191970" d="M311.3709,-231C364.4644,-231 435.7493,-231 484.8401,-231"/>
<polygon fill="#191970" stroke="#191970" points="311.343,-227.5001 301.343,-231 311.3429,-234.5001 311.343,-227.5001"/>
</g>
<!-- Node17 -->
<g id="node4" class="node">
<title>Node17</title>
<g id="a_node4"><a xlink:href="user__main_8h.html#a33113d6dedb440bd7dfa5576e325140c" target="_top" xlink:title="user_init">
<polygon fill="#ffffff" stroke="#000000" points="1083,-183.5 1083,-202.5 1137,-202.5 1137,-183.5 1083,-183.5"/>
<text text-anchor="middle" x="1110" y="-190.5" font-family="Helvetica,sans-Serif" font-size="10.00" fill="#000000">user_init</text>
</a>
</g>
</g>
<!-- Node16&#45;&gt;Node17 -->
<g id="edge3" class="edge">
<title>Node16&#45;&gt;Node17</title>
<path fill="none" stroke="#191970" d="M608.5218,-231.4555C705.6329,-231.293 890.9306,-227.8893 1047,-207 1058.8826,-205.4096 1071.8381,-202.7028 1082.8937,-200.0909"/>
<polygon fill="#191970" stroke="#191970" points="608.2615,-227.9556 598.2634,-231.4611 608.2653,-234.9556 608.2615,-227.9556"/>
</g>
<!-- Node19 -->
<g id="node6" class="node">
<title>Node19</title>
<g id="a_node6"><a xlink:href="kmp__request_8h.html#a048753ff9d6b448e2dcd8c85db0d6873" target="_top" xlink:title="kmp_request_init">
<polygon fill="#ffffff" stroke="#000000" points="634,-183.5 634,-202.5 727,-202.5 727,-183.5 634,-183.5"/>
<text text-anchor="middle" x="680.5" y="-190.5" font-family="Helvetica,sans-Serif" font-size="10.00" fill="#000000">kmp_request_init</text>
</a>
</g>
</g>
<!-- Node18&#45;&gt;Node19 -->
<g id="edge5" class="edge">
<title>Node18&#45;&gt;Node19</title>
<path fill="none" stroke="#191970" d="M603.356,-193C613.5608,-193 623.9882,-193 633.7436,-193"/>
<polygon fill="#191970" stroke="#191970" points="603.2585,-189.5001 593.2585,-193 603.2584,-196.5001 603.2585,-189.5001"/>
</g>
<!-- Node19&#45;&gt;Node17 -->
<g id="edge6" class="edge">
<title>Node19&#45;&gt;Node17</title>
<path fill="none" stroke="#191970" d="M737.4251,-193C831.0651,-193 1014.0803,-193 1082.9377,-193"/>
<polygon fill="#191970" stroke="#191970" points="737.2817,-189.5001 727.2816,-193 737.2816,-196.5001 737.2817,-189.5001"/>
</g>
<!-- Node21 -->
<g id="node8" class="node">
<title>Node21</title>
<g id="a_node8"><a xlink:href="kmp__request_8c.html#a0977a4640a97d389ac3b0fef0ba7a9b6" target="_top" xlink:title="kmp_receive_timeout\l_timer_func">
<polygon fill="#ffffff" stroke="#000000" points="337,-134 337,-164 449,-164 449,-134 337,-134"/>
<text text-anchor="start" x="345" y="-152" font-family="Helvetica,sans-Serif" font-size="10.00" fill="#000000">kmp_receive_timeout</text>
<text text-anchor="middle" x="393" y="-141" font-family="Helvetica,sans-Serif" font-size="10.00" fill="#000000">_timer_func</text>
</a>
</g>
</g>
<!-- Node20&#45;&gt;Node21 -->
<g id="edge8" class="edge">
<title>Node20&#45;&gt;Node21</title>
<path fill="none" stroke="#191970" d="M300.8824,-135.7705C312.7521,-136.4307 325.1331,-137.3508 336.8261,-138.4449"/>
<polygon fill="#191970" stroke="#191970" points="300.7749,-132.2609 290.6133,-135.2593 300.4269,-139.2522 300.7749,-132.2609"/>
</g>
<!-- Node20&#45;&gt;Node22 -->
<g id="edge10" class="edge">
<title>Node20&#45;&gt;Node22</title>
<path fill="none" stroke="#191970" d="M267.9804,-123.8603C287.3403,-114.3501 313.5894,-101.6528 337,-91 347.7829,-86.0933 359.8495,-80.8863 370.0127,-76.5808"/>
<polygon fill="#191970" stroke="#191970" points="266.2273,-120.8222 258.8047,-128.3823 269.3217,-127.1011 266.2273,-120.8222"/>
</g>
<!-- Node27 -->
<g id="node14" class="node">
<title>Node27</title>
<g id="a_node14"><a xlink:href="user__main_8c.html#a3648c609e8dd286eb90285b08b150362" target="_top" xlink:title="kmp_request_send_timer_func">
<polygon fill="#ffffff" stroke="#000000" points="763,-95.5 763,-114.5 917,-114.5 917,-95.5 763,-95.5"/>
<text text-anchor="middle" x="840" y="-102.5" font-family="Helvetica,sans-Serif" font-size="10.00" fill="#000000">kmp_request_send_timer_func</text>
</a>
</g>
</g>
<!-- Node20&#45;&gt;Node27 -->
<g id="edge17" class="edge">
<title>Node20&#45;&gt;Node27</title>
<path fill="none" stroke="#191970" d="M300.5003,-128.9822C312.574,-127.4473 325.1703,-126.0216 337,-125 487.4157,-112.0101 663.8757,-107.4443 762.7369,-105.8484"/>
<polygon fill="#191970" stroke="#191970" points="299.9704,-125.5216 290.5096,-130.2907 300.8795,-132.4623 299.9704,-125.5216"/>
</g>
<!-- Node21&#45;&gt;Node20 -->
<g id="edge9" class="edge">
<title>Node21&#45;&gt;Node20</title>
<path fill="none" stroke="#191970" d="M326.8167,-150.95C312.7615,-150.0958 298.2244,-148.9001 285.1395,-147.5014"/>
<polygon fill="#191970" stroke="#191970" points="326.7602,-154.4522 336.9382,-151.5097 327.1467,-147.4628 326.7602,-154.4522"/>
</g>
<!-- Node23 -->
<g id="node10" class="node">
<title>Node23</title>
<g id="a_node10"><a xlink:href="user__main_8h.html#ad6eb800c4d7f9c79df52949d88a18d06" target="_top" xlink:title="mqtt_connected_cb">
<polygon fill="#ffffff" stroke="#000000" points="489.5,-57.5 489.5,-76.5 593.5,-76.5 593.5,-57.5 489.5,-57.5"/>
<text text-anchor="middle" x="541.5" y="-64.5" font-family="Helvetica,sans-Serif" font-size="10.00" fill="#000000">mqtt_connected_cb</text>
</a>
</g>
</g>
<!-- Node22&#45;&gt;Node23 -->
<g id="edge11" class="edge">
<title>Node22&#45;&gt;Node23</title>
<path fill="none" stroke="#191970" d="M453.8648,-67C465.6138,-67 477.8252,-67 489.2693,-67"/>
<polygon fill="#191970" stroke="#191970" points="453.69,-63.5001 443.6899,-67 453.6899,-70.5001 453.69,-63.5001"/>
</g>
<!-- Node24 -->
<g id="node11" class="node">
<title>Node24</title>
<g id="a_node11"><a xlink:href="user__main_8c.html#a245ec00253f410a8804988bf40e1037e" target="_top" xlink:title="sample_mode_timer_func">
<polygon fill="#ffffff" stroke="#000000" points="774,-38.5 774,-57.5 906,-57.5 906,-38.5 774,-38.5"/>
<text text-anchor="middle" x="840" y="-45.5" font-family="Helvetica,sans-Serif" font-size="10.00" fill="#000000">sample_mode_timer_func</text>
</a>
</g>
</g>
<!-- Node23&#45;&gt;Node24 -->
<g id="edge12" class="edge">
<title>Node23&#45;&gt;Node24</title>
<path fill="none" stroke="#191970" d="M589.1644,-55.2883C603.4863,-52.2911 619.3004,-49.4941 634,-48 680.6105,-43.2624 733.4605,-43.3735 773.9589,-44.6114"/>
<polygon fill="#191970" stroke="#191970" points="588.0648,-51.9456 579.0369,-57.4905 589.5522,-58.7857 588.0648,-51.9456"/>
</g>
<!-- Node26 -->
<g id="node13" class="node">
<title>Node26</title>
<g id="a_node13"><a xlink:href="user__main_8h.html#a7a3bf0cc09d98adc72f4e34d26ce3fa1" target="_top" xlink:title="wifi_changed_cb">
<polygon fill="#ffffff" stroke="#000000" points="635,-57.5 635,-76.5 726,-76.5 726,-57.5 635,-57.5"/>
<text text-anchor="middle" x="680.5" y="-64.5" font-family="Helvetica,sans-Serif" font-size="10.00" fill="#000000">wifi_changed_cb</text>
</a>
</g>
</g>
<!-- Node23&#45;&gt;Node26 -->
<g id="edge15" class="edge">
<title>Node23&#45;&gt;Node26</title>
<path fill="none" stroke="#191970" d="M603.9638,-67C614.3798,-67 625.0088,-67 634.902,-67"/>
<polygon fill="#191970" stroke="#191970" points="603.654,-63.5001 593.6539,-67 603.6539,-70.5001 603.654,-63.5001"/>
</g>
<!-- Node25 -->
<g id="node12" class="node">
<title>Node25</title>
<g id="a_node12"><a xlink:href="user__main_8h.html#a3671381db669a16e8f6a4bf3dfb9a441" target="_top" xlink:title="system_init_done">
<polygon fill="#ffffff" stroke="#000000" points="953,-95.5 953,-114.5 1047,-114.5 1047,-95.5 953,-95.5"/>
<text text-anchor="middle" x="1000" y="-102.5" font-family="Helvetica,sans-Serif" font-size="10.00" fill="#000000">system_init_done</text>
</a>
</g>
</g>
<!-- Node24&#45;&gt;Node25 -->
<g id="edge13" class="edge">
<title>Node24&#45;&gt;Node25</title>
<path fill="none" stroke="#191970" d="M876.2904,-60.9285C905.7302,-71.4164 946.5655,-85.9639 973.1322,-95.4284"/>
<polygon fill="#191970" stroke="#191970" points="877.3751,-57.5995 866.7804,-57.5405 875.0259,-64.1935 877.3751,-57.5995"/>
</g>
<!-- Node25&#45;&gt;Node17 -->
<g id="edge14" class="edge">
<title>Node25&#45;&gt;Node17</title>
<path fill="none" stroke="#191970" d="M1020.2102,-121.1682C1043.0331,-139.4265 1079.4146,-168.5317 1098.0875,-183.47"/>
<polygon fill="#191970" stroke="#191970" points="1022.1874,-118.2677 1012.1922,-114.7538 1017.8145,-123.7338 1022.1874,-118.2677"/>
</g>
<!-- Node26&#45;&gt;Node24 -->
<g id="edge16" class="edge">
<title>Node26&#45;&gt;Node24</title>
<path fill="none" stroke="#191970" d="M736.1816,-60.3671C748.3202,-58.9211 761.2797,-57.3773 773.782,-55.888"/>
<polygon fill="#191970" stroke="#191970" points="735.7221,-56.897 726.2063,-61.5554 736.5501,-63.8478 735.7221,-56.897"/>
</g>
<!-- Node27&#45;&gt;Node25 -->
<g id="edge18" class="edge">
<title>Node27&#45;&gt;Node25</title>
<path fill="none" stroke="#191970" d="M927.4323,-105C936.1339,-105 944.7172,-105 952.7657,-105"/>
<polygon fill="#191970" stroke="#191970" points="927.188,-101.5001 917.188,-105 927.188,-108.5001 927.188,-101.5001"/>
</g>
<!-- Node28&#45;&gt;Node24 -->
<g id="edge20" class="edge">
<title>Node28&#45;&gt;Node24</title>
<path fill="none" stroke="#191970" d="M442.2518,-14.187C522.882,-21.0414 683.119,-34.6634 773.6677,-42.361"/>
<polygon fill="#191970" stroke="#191970" points="442.1469,-10.6655 431.8864,-13.3058 441.5539,-17.6403 442.1469,-10.6655"/>
</g>
</g>
</svg>
