<?xml version="1.0" encoding="UTF-8" standalone="no"?>
<!DOCTYPE svg PUBLIC "-//W3C//DTD SVG 1.1//EN"
 "http://www.w3.org/Graphics/SVG/1.1/DTD/svg11.dtd">
<!-- Generated by graphviz version 2.41.20170323.1842 (20170323.1842)
 -->
<!-- Title: system_param_save_with_protect Pages: 1 -->
<svg width="917pt" height="142pt"
 viewBox="0.00 0.00 917.00 142.00" xmlns="http://www.w3.org/2000/svg" xmlns:xlink="http://www.w3.org/1999/xlink">
<g id="graph0" class="graph" transform="scale(1 1) rotate(0) translate(4 138)">
<title>system_param_save_with_protect</title>
<polygon fill="#ffffff" stroke="transparent" points="-4,4 -4,-138 913,-138 913,4 -4,4"/>
<!-- Node103 -->
<g id="node1" class="node">
<title>Node103</title>
<polygon fill="#bfbfbf" stroke="#000000" points="0,-52 0,-82 132,-82 132,-52 0,-52"/>
<text text-anchor="start" x="8" y="-70" font-family="Helvetica,sans-Serif" font-size="10.00" fill="#000000">system_param_save_with</text>
<text text-anchor="middle" x="66" y="-59" font-family="Helvetica,sans-Serif" font-size="10.00" fill="#000000">_protect</text>
</g>
<!-- Node104 -->
<g id="node2" class="node">
<title>Node104</title>
<g id="a_node2"><a xlink:href="config_8h.html#acd3c633ba5f49d7bb46d6e4efa31ddb2" target="_top" xlink:title="cfg_save">
<polygon fill="#ffffff" stroke="#000000" points="168,-57.5 168,-76.5 225,-76.5 225,-57.5 168,-57.5"/>
<text text-anchor="middle" x="196.5" y="-64.5" font-family="Helvetica,sans-Serif" font-size="10.00" fill="#000000">cfg_save</text>
</a>
</g>
</g>
<!-- Node103&#45;&gt;Node104 -->
<g id="edge1" class="edge">
<title>Node103&#45;&gt;Node104</title>
<path fill="none" stroke="#191970" d="M142.0465,-67C151.2184,-67 160.0976,-67 167.9318,-67"/>
<polygon fill="#191970" stroke="#191970" points="142.0147,-63.5001 132.0146,-67 142.0146,-70.5001 142.0147,-63.5001"/>
</g>
<!-- Node105 -->
<g id="node3" class="node">
<title>Node105</title>
<g id="a_node3"><a xlink:href="config_8h.html#a92adb6c5103eed30e16185a9cd233e51" target="_top" xlink:title="cfg_load">
<polygon fill="#ffffff" stroke="#000000" points="295,-113.5 295,-132.5 349,-132.5 349,-113.5 295,-113.5"/>
<text text-anchor="middle" x="322" y="-120.5" font-family="Helvetica,sans-Serif" font-size="10.00" fill="#000000">cfg_load</text>
</a>
</g>
</g>
<!-- Node104&#45;&gt;Node105 -->
<g id="edge2" class="edge">
<title>Node104&#45;&gt;Node105</title>
<path fill="none" stroke="#191970" d="M219.6492,-81.9273C231.6589,-89.2417 246.7622,-97.7884 261,-104 271.7767,-108.7016 284.0872,-112.7672 294.8138,-115.9174"/>
<polygon fill="#191970" stroke="#191970" points="221.4745,-78.9409 211.134,-76.6333 217.7785,-84.8857 221.4745,-78.9409"/>
</g>
<!-- Node107 -->
<g id="node5" class="node">
<title>Node107</title>
<g id="a_node5"><a xlink:href="config_8h.html#a1e0d59e84f6bbc2564bcdf595b6972da" target="_top" xlink:title="config_save_timer_func">
<polygon fill="#ffffff" stroke="#000000" points="261,-57.5 261,-76.5 383,-76.5 383,-57.5 261,-57.5"/>
<text text-anchor="middle" x="322" y="-64.5" font-family="Helvetica,sans-Serif" font-size="10.00" fill="#000000">config_save_timer_func</text>
</a>
</g>
</g>
<!-- Node104&#45;&gt;Node107 -->
<g id="edge4" class="edge">
<title>Node104&#45;&gt;Node107</title>
<path fill="none" stroke="#191970" d="M235.4798,-67C243.5404,-67 252.2149,-67 260.8491,-67"/>
<polygon fill="#191970" stroke="#191970" points="235.2923,-63.5001 225.2922,-67 235.2922,-70.5001 235.2923,-63.5001"/>
</g>
<!-- Node115 -->
<g id="node13" class="node">
<title>Node115</title>
<g id="a_node13"><a xlink:href="cgiwifi_8h.html#a7c655a56f56ecebad923c5c4daeb7f1a" target="_top" xlink:title="cgiSetup">
<polygon fill="#ffffff" stroke="#000000" points="294.5,-19.5 294.5,-38.5 349.5,-38.5 349.5,-19.5 294.5,-19.5"/>
<text text-anchor="middle" x="322" y="-26.5" font-family="Helvetica,sans-Serif" font-size="10.00" fill="#000000">cgiSetup</text>
</a>
</g>
</g>
<!-- Node104&#45;&gt;Node115 -->
<g id="edge14" class="edge">
<title>Node104&#45;&gt;Node115</title>
<path fill="none" stroke="#191970" d="M234.9282,-55.3644C254.067,-49.5694 276.777,-42.693 294.2047,-37.4161"/>
<polygon fill="#191970" stroke="#191970" points="233.8488,-52.0342 225.2922,-58.282 235.8774,-58.7338 233.8488,-52.0342"/>
</g>
<!-- Node106 -->
<g id="node4" class="node">
<title>Node106</title>
<g id="a_node4"><a xlink:href="cgiwifi_8h.html#ace460e5ac8fd74afa8616bfc82561b26" target="_top" xlink:title="tplSetup">
<polygon fill="#ffffff" stroke="#000000" points="440.5,-113.5 440.5,-132.5 493.5,-132.5 493.5,-113.5 440.5,-113.5"/>
<text text-anchor="middle" x="467" y="-120.5" font-family="Helvetica,sans-Serif" font-size="10.00" fill="#000000">tplSetup</text>
</a>
</g>
</g>
<!-- Node105&#45;&gt;Node106 -->
<g id="edge3" class="edge">
<title>Node105&#45;&gt;Node106</title>
<path fill="none" stroke="#191970" d="M359.2763,-123C384.6359,-123 417.5911,-123 440.3388,-123"/>
<polygon fill="#191970" stroke="#191970" points="359.2734,-119.5001 349.2734,-123 359.2734,-126.5001 359.2734,-119.5001"/>
</g>
<!-- Node107&#45;&gt;Node107 -->
<g id="edge13" class="edge">
<title>Node107&#45;&gt;Node107</title>
<path fill="none" stroke="#191970" d="M298.9346,-86.0292C300.1928,-91.128 307.8812,-95 322,-95 344.0391,-95 350.4097,-85.5653 341.112,-76.7571"/>
<polygon fill="#191970" stroke="#191970" points="302.1854,-87.3286 302.888,-76.7571 295.7463,-84.5831 302.1854,-87.3286"/>
</g>
<!-- Node108 -->
<g id="node6" class="node">
<title>Node108</title>
<g id="a_node6"><a xlink:href="config_8h.html#ab4af9f95b39f096bb0fa8d73eb5a342e" target="_top" xlink:title="cfg_save_defered">
<polygon fill="#ffffff" stroke="#000000" points="419,-57.5 419,-76.5 515,-76.5 515,-57.5 419,-57.5"/>
<text text-anchor="middle" x="467" y="-64.5" font-family="Helvetica,sans-Serif" font-size="10.00" fill="#000000">cfg_save_defered</text>
</a>
</g>
</g>
<!-- Node107&#45;&gt;Node108 -->
<g id="edge5" class="edge">
<title>Node107&#45;&gt;Node108</title>
<path fill="none" stroke="#191970" d="M393.2003,-67C401.8623,-67 410.5492,-67 418.7659,-67"/>
<polygon fill="#191970" stroke="#191970" points="393.0728,-63.5001 383.0728,-67 393.0728,-70.5001 393.0728,-63.5001"/>
</g>
<!-- Node109 -->
<g id="node7" class="node">
<title>Node109</title>
<g id="a_node7"><a xlink:href="ac__out_8h.html#a1573f96ac038a6a1b29a6f21403a2341" target="_top" xlink:title="ac_thermo_open">
<polygon fill="#ffffff" stroke="#000000" points="571.5,-114.5 571.5,-133.5 663.5,-133.5 663.5,-114.5 571.5,-114.5"/>
<text text-anchor="middle" x="617.5" y="-121.5" font-family="Helvetica,sans-Serif" font-size="10.00" fill="#000000">ac_thermo_open</text>
</a>
</g>
</g>
<!-- Node108&#45;&gt;Node109 -->
<g id="edge6" class="edge">
<title>Node108&#45;&gt;Node109</title>
<path fill="none" stroke="#191970" d="M495.3843,-81.0952C511.4621,-88.7594 532.0846,-98.0618 551,-105 560.4691,-108.4733 570.8839,-111.7129 580.6042,-114.4982"/>
<polygon fill="#191970" stroke="#191970" points="496.5438,-77.7684 486.0168,-76.5707 493.4992,-84.0716 496.5438,-77.7684"/>
</g>
<!-- Node112 -->
<g id="node10" class="node">
<title>Node112</title>
<g id="a_node10"><a xlink:href="ac__out_8h.html#a3bc674b019d5e2e4d15e7abe7c69029f" target="_top" xlink:title="ac_thermo_close">
<polygon fill="#ffffff" stroke="#000000" points="571,-76.5 571,-95.5 664,-95.5 664,-76.5 571,-76.5"/>
<text text-anchor="middle" x="617.5" y="-83.5" font-family="Helvetica,sans-Serif" font-size="10.00" fill="#000000">ac_thermo_close</text>
</a>
</g>
</g>
<!-- Node108&#45;&gt;Node112 -->
<g id="edge9" class="edge">
<title>Node108&#45;&gt;Node112</title>
<path fill="none" stroke="#191970" d="M525.316,-74.3621C540.4377,-76.2712 556.5218,-78.3018 570.9501,-80.1233"/>
<polygon fill="#191970" stroke="#191970" points="525.3926,-70.8441 515.0329,-73.064 524.5158,-77.789 525.3926,-70.8441"/>
</g>
<!-- Node113 -->
<g id="node11" class="node">
<title>Node113</title>
<g id="a_node11"><a xlink:href="cron_8h.html#abede8d12ed6e5d5f3412eda37b325d03" target="_top" xlink:title="add_cron_job_from_query">
<polygon fill="#ffffff" stroke="#000000" points="551,-38.5 551,-57.5 684,-57.5 684,-38.5 551,-38.5"/>
<text text-anchor="middle" x="617.5" y="-45.5" font-family="Helvetica,sans-Serif" font-size="10.00" fill="#000000">add_cron_job_from_query</text>
</a>
</g>
</g>
<!-- Node108&#45;&gt;Node113 -->
<g id="edge11" class="edge">
<title>Node108&#45;&gt;Node113</title>
<path fill="none" stroke="#191970" d="M525.1671,-59.6566C533.6241,-58.589 542.385,-57.483 550.9914,-56.3964"/>
<polygon fill="#191970" stroke="#191970" points="524.5158,-56.211 515.0329,-60.936 525.3926,-63.1559 524.5158,-56.211"/>
</g>
<!-- Node114 -->
<g id="node12" class="node">
<title>Node114</title>
<g id="a_node12"><a xlink:href="cron_8h.html#ad014b7bf4eab144ea9fc5669d896714b" target="_top" xlink:title="clear_cron_jobs">
<polygon fill="#ffffff" stroke="#000000" points="574,-.5 574,-19.5 661,-19.5 661,-.5 574,-.5"/>
<text text-anchor="middle" x="617.5" y="-7.5" font-family="Helvetica,sans-Serif" font-size="10.00" fill="#000000">clear_cron_jobs</text>
</a>
</g>
</g>
<!-- Node108&#45;&gt;Node114 -->
<g id="edge12" class="edge">
<title>Node108&#45;&gt;Node114</title>
<path fill="none" stroke="#191970" d="M495.3843,-52.9048C511.4621,-45.2406 532.0846,-35.9382 551,-29 560.4691,-25.5267 570.8839,-22.2871 580.6042,-19.5018"/>
<polygon fill="#191970" stroke="#191970" points="493.4992,-49.9284 486.0168,-57.4293 496.5438,-56.2316 493.4992,-49.9284"/>
</g>
<!-- Node110 -->
<g id="node8" class="node">
<title>Node110</title>
<g id="a_node8"><a xlink:href="cron_8c.html#a2782af03df9b913cfa565a0770e1afe1" target="_top" xlink:title="minute_timer_func">
<polygon fill="#ffffff" stroke="#000000" points="720,-95.5 720,-114.5 819,-114.5 819,-95.5 720,-95.5"/>
<text text-anchor="middle" x="769.5" y="-102.5" font-family="Helvetica,sans-Serif" font-size="10.00" fill="#000000">minute_timer_func</text>
</a>
</g>
</g>
<!-- Node109&#45;&gt;Node110 -->
<g id="edge7" class="edge">
<title>Node109&#45;&gt;Node110</title>
<path fill="none" stroke="#191970" d="M673.7881,-116.964C688.929,-115.0714 705.1911,-113.0386 719.9366,-111.1954"/>
<polygon fill="#191970" stroke="#191970" points="673.0061,-113.5344 663.5175,-118.2478 673.8744,-120.4804 673.0061,-113.5344"/>
</g>
<!-- Node111 -->
<g id="node9" class="node">
<title>Node111</title>
<g id="a_node9"><a xlink:href="cron_8h.html#ae130c5973bad35b56776750c7a34db12" target="_top" xlink:title="cron_init">
<polygon fill="#ffffff" stroke="#000000" points="855,-95.5 855,-114.5 909,-114.5 909,-95.5 855,-95.5"/>
<text text-anchor="middle" x="882" y="-102.5" font-family="Helvetica,sans-Serif" font-size="10.00" fill="#000000">cron_init</text>
</a>
</g>
</g>
<!-- Node110&#45;&gt;Node111 -->
<g id="edge8" class="edge">
<title>Node110&#45;&gt;Node111</title>
<path fill="none" stroke="#191970" d="M829.2611,-105C838.1957,-105 847.0117,-105 854.8028,-105"/>
<polygon fill="#191970" stroke="#191970" points="829.1716,-101.5001 819.1716,-105 829.1716,-108.5001 829.1716,-101.5001"/>
</g>
<!-- Node112&#45;&gt;Node110 -->
<g id="edge10" class="edge">
<title>Node112&#45;&gt;Node110</title>
<path fill="none" stroke="#191970" d="M674.4857,-93.1232C689.4191,-94.9899 705.3992,-96.9874 719.9119,-98.8015"/>
<polygon fill="#191970" stroke="#191970" points="674.7022,-89.6231 664.3453,-91.8557 673.8339,-96.5691 674.7022,-89.6231"/>
</g>
</g>
</svg>
