<?xml version="1.0" encoding="UTF-8" standalone="no"?>
<!DOCTYPE svg PUBLIC "-//W3C//DTD SVG 1.1//EN"
 "http://www.w3.org/Graphics/SVG/1.1/DTD/svg11.dtd">
<!-- Generated by graphviz version 2.41.20170323.1842 (20170323.1842)
 -->
<!-- Title: wifi_station_connect Pages: 1 -->
<svg width="1181pt" height="122pt"
 viewBox="0.00 0.00 1181.00 122.00" xmlns="http://www.w3.org/2000/svg" xmlns:xlink="http://www.w3.org/1999/xlink">
<g id="graph0" class="graph" transform="scale(1 1) rotate(0) translate(4 118)">
<title>wifi_station_connect</title>
<polygon fill="#ffffff" stroke="transparent" points="-4,4 -4,-118 1177,-118 1177,4 -4,4"/>
<!-- Node223 -->
<g id="node1" class="node">
<title>Node223</title>
<polygon fill="#bfbfbf" stroke="#000000" points="0,-47.5 0,-66.5 107,-66.5 107,-47.5 0,-47.5"/>
<text text-anchor="middle" x="53.5" y="-54.5" font-family="Helvetica,sans-Serif" font-size="10.00" fill="#000000">wifi_station_connect</text>
</g>
<!-- Node224 -->
<g id="node2" class="node">
<title>Node224</title>
<g id="a_node2"><a xlink:href="wifi_8c.html#a9c38abb0900e0c7308be77d85dbf09e0" target="_top" xlink:title="wifi_connect">
<polygon fill="#ffffff" stroke="#000000" points="682.5,-66.5 682.5,-85.5 754.5,-85.5 754.5,-66.5 682.5,-66.5"/>
<text text-anchor="middle" x="718.5" y="-73.5" font-family="Helvetica,sans-Serif" font-size="10.00" fill="#000000">wifi_connect</text>
</a>
</g>
</g>
<!-- Node223&#45;&gt;Node224 -->
<g id="edge1" class="edge">
<title>Node223&#45;&gt;Node224</title>
<path fill="none" stroke="#191970" d="M80.8157,-70.9749C98.1852,-79.2567 121.3955,-89.2302 143,-95 210.9069,-113.1356 229.7131,-114 300,-114 300,-114 300,-114 442,-114 528.9762,-114 629.9209,-95.3176 682.4843,-84.152"/>
<polygon fill="#191970" stroke="#191970" points="82.3366,-67.8226 71.8143,-66.5854 79.2684,-74.1144 82.3366,-67.8226"/>
</g>
<!-- Node228 -->
<g id="node6" class="node">
<title>Node228</title>
<g id="a_node6"><a xlink:href="wifi_8c.html#a0be23fd8148c6a3abf21c739359bed52" target="_top" xlink:title="wifi_default">
<polygon fill="#ffffff" stroke="#000000" points="144.5,-66.5 144.5,-85.5 211.5,-85.5 211.5,-66.5 144.5,-66.5"/>
<text text-anchor="middle" x="178" y="-73.5" font-family="Helvetica,sans-Serif" font-size="10.00" fill="#000000">wifi_default</text>
</a>
</g>
</g>
<!-- Node223&#45;&gt;Node228 -->
<g id="edge5" class="edge">
<title>Node223&#45;&gt;Node228</title>
<path fill="none" stroke="#191970" d="M117.169,-66.7166C126.5419,-68.147 135.872,-69.5708 144.3085,-70.8583"/>
<polygon fill="#191970" stroke="#191970" points="117.4353,-63.2168 107.0217,-65.168 116.3792,-70.1366 117.4353,-63.2168"/>
</g>
<!-- Node232 -->
<g id="node10" class="node">
<title>Node232</title>
<g id="a_node10"><a xlink:href="watchdog_8c.html#a47b6861ffbed37fef88aa644f10ba917" target="_top" xlink:title="wifi_reconnect_timer_func">
<polygon fill="#ffffff" stroke="#000000" points="652,-28.5 652,-47.5 785,-47.5 785,-28.5 652,-28.5"/>
<text text-anchor="middle" x="718.5" y="-35.5" font-family="Helvetica,sans-Serif" font-size="10.00" fill="#000000">wifi_reconnect_timer_func</text>
</a>
</g>
</g>
<!-- Node223&#45;&gt;Node232 -->
<g id="edge17" class="edge">
<title>Node223&#45;&gt;Node232</title>
<path fill="none" stroke="#191970" d="M80.8157,-43.0251C98.1852,-34.7433 121.3955,-24.7698 143,-19 210.9069,-.8644 229.7131,0 300,0 300,0 300,0 442,0 525.3421,0 621.5098,-17.1538 675.6467,-28.411"/>
<polygon fill="#191970" stroke="#191970" points="79.2684,-39.8856 71.8143,-47.4146 82.3366,-46.1774 79.2684,-39.8856"/>
</g>
<!-- Node235 -->
<g id="node13" class="node">
<title>Node235</title>
<g id="a_node13"><a xlink:href="wifi_8c.html#ac4389ba687a71cbb616f05b02427eb2a" target="_top" xlink:title="wifi_fallback">
<polygon fill="#ffffff" stroke="#000000" points="143,-28.5 143,-47.5 213,-47.5 213,-28.5 143,-28.5"/>
<text text-anchor="middle" x="178" y="-35.5" font-family="Helvetica,sans-Serif" font-size="10.00" fill="#000000">wifi_fallback</text>
</a>
</g>
</g>
<!-- Node223&#45;&gt;Node235 -->
<g id="edge15" class="edge">
<title>Node223&#45;&gt;Node235</title>
<path fill="none" stroke="#191970" d="M117.0319,-47.3044C125.9191,-45.9481 134.7715,-44.5971 142.864,-43.3621"/>
<polygon fill="#191970" stroke="#191970" points="116.3792,-43.8634 107.0217,-48.832 117.4353,-50.7832 116.3792,-43.8634"/>
</g>
<!-- Node225 -->
<g id="node3" class="node">
<title>Node225</title>
<g id="a_node3"><a xlink:href="user__main_8c.html#a245ec00253f410a8804988bf40e1037e" target="_top" xlink:title="sample_mode_timer_func">
<polygon fill="#ffffff" stroke="#000000" points="821,-66.5 821,-85.5 953,-85.5 953,-66.5 821,-66.5"/>
<text text-anchor="middle" x="887" y="-73.5" font-family="Helvetica,sans-Serif" font-size="10.00" fill="#000000">sample_mode_timer_func</text>
</a>
</g>
</g>
<!-- Node224&#45;&gt;Node225 -->
<g id="edge2" class="edge">
<title>Node224&#45;&gt;Node225</title>
<path fill="none" stroke="#191970" d="M764.9815,-76C782.184,-76 802.0355,-76 820.6623,-76"/>
<polygon fill="#191970" stroke="#191970" points="764.6475,-72.5001 754.6475,-76 764.6474,-79.5001 764.6475,-72.5001"/>
</g>
<!-- Node226 -->
<g id="node4" class="node">
<title>Node226</title>
<g id="a_node4"><a xlink:href="user__main_8h.html#a3671381db669a16e8f6a4bf3dfb9a441" target="_top" xlink:title="system_init_done">
<polygon fill="#ffffff" stroke="#000000" points="989,-66.5 989,-85.5 1083,-85.5 1083,-66.5 989,-66.5"/>
<text text-anchor="middle" x="1036" y="-73.5" font-family="Helvetica,sans-Serif" font-size="10.00" fill="#000000">system_init_done</text>
</a>
</g>
</g>
<!-- Node225&#45;&gt;Node226 -->
<g id="edge3" class="edge">
<title>Node225&#45;&gt;Node226</title>
<path fill="none" stroke="#191970" d="M963.361,-76C972.0092,-76 980.624,-76 988.7387,-76"/>
<polygon fill="#191970" stroke="#191970" points="963.2213,-72.5001 953.2213,-76 963.2212,-79.5001 963.2213,-72.5001"/>
</g>
<!-- Node227 -->
<g id="node5" class="node">
<title>Node227</title>
<g id="a_node5"><a xlink:href="user__main_8h.html#a33113d6dedb440bd7dfa5576e325140c" target="_top" xlink:title="user_init">
<polygon fill="#ffffff" stroke="#000000" points="1119,-47.5 1119,-66.5 1173,-66.5 1173,-47.5 1119,-47.5"/>
<text text-anchor="middle" x="1146" y="-54.5" font-family="Helvetica,sans-Serif" font-size="10.00" fill="#000000">user_init</text>
</a>
</g>
</g>
<!-- Node226&#45;&gt;Node227 -->
<g id="edge4" class="edge">
<title>Node226&#45;&gt;Node227</title>
<path fill="none" stroke="#191970" d="M1093.2886,-66.1047C1102.1598,-64.5724 1110.9515,-63.0538 1118.7383,-61.7088"/>
<polygon fill="#191970" stroke="#191970" points="1092.5466,-62.6809 1083.2883,-67.832 1093.7381,-69.5788 1092.5466,-62.6809"/>
</g>
<!-- Node229 -->
<g id="node7" class="node">
<title>Node229</title>
<g id="a_node7"><a xlink:href="wifi_8c.html#a1ef15ecd9e69811f6db10215c7196281" target="_top" xlink:title="wifi_scan_done_cb">
<polygon fill="#ffffff" stroke="#000000" points="249,-47.5 249,-66.5 351,-66.5 351,-47.5 249,-47.5"/>
<text text-anchor="middle" x="300" y="-54.5" font-family="Helvetica,sans-Serif" font-size="10.00" fill="#000000">wifi_scan_done_cb</text>
</a>
</g>
</g>
<!-- Node228&#45;&gt;Node229 -->
<g id="edge6" class="edge">
<title>Node228&#45;&gt;Node229</title>
<path fill="none" stroke="#191970" d="M221.6353,-69.2043C230.3769,-67.8429 239.6375,-66.4007 248.6132,-65.0029"/>
<polygon fill="#191970" stroke="#191970" points="221.0023,-65.7606 211.66,-70.7579 222.0795,-72.6773 221.0023,-65.7606"/>
</g>
<!-- Node230 -->
<g id="node8" class="node">
<title>Node230</title>
<g id="a_node8"><a xlink:href="wifi_8c.html#ae7011f25db54676b86fefe2caa450a4a" target="_top" xlink:title="wifi_scan_timer_func">
<polygon fill="#ffffff" stroke="#000000" points="387,-66.5 387,-85.5 497,-85.5 497,-66.5 387,-66.5"/>
<text text-anchor="middle" x="442" y="-73.5" font-family="Helvetica,sans-Serif" font-size="10.00" fill="#000000">wifi_scan_timer_func</text>
</a>
</g>
</g>
<!-- Node229&#45;&gt;Node230 -->
<g id="edge7" class="edge">
<title>Node229&#45;&gt;Node230</title>
<path fill="none" stroke="#191970" d="M361.2019,-65.189C369.7686,-66.3352 378.5292,-67.5074 386.9721,-68.6371"/>
<polygon fill="#191970" stroke="#191970" points="361.6411,-61.7166 351.2653,-63.8594 360.7127,-68.6548 361.6411,-61.7166"/>
</g>
<!-- Node231 -->
<g id="node9" class="node">
<title>Node231</title>
<g id="a_node9"><a xlink:href="wifi_8c.html#a5831b420da0012d53c979c375714d382" target="_top" xlink:title="wifi_start_scan">
<polygon fill="#ffffff" stroke="#000000" points="533,-47.5 533,-66.5 616,-66.5 616,-47.5 533,-47.5"/>
<text text-anchor="middle" x="574.5" y="-54.5" font-family="Helvetica,sans-Serif" font-size="10.00" fill="#000000">wifi_start_scan</text>
</a>
</g>
</g>
<!-- Node230&#45;&gt;Node231 -->
<g id="edge8" class="edge">
<title>Node230&#45;&gt;Node231</title>
<path fill="none" stroke="#191970" d="M507.2024,-66.6502C515.8986,-65.4032 524.6189,-64.1528 532.7637,-62.9848"/>
<polygon fill="#191970" stroke="#191970" points="506.4427,-63.2233 497.0408,-68.1074 507.4364,-70.1524 506.4427,-63.2233"/>
</g>
<!-- Node231&#45;&gt;Node224 -->
<g id="edge10" class="edge">
<title>Node231&#45;&gt;Node224</title>
<path fill="none" stroke="#191970" d="M626.2344,-63.8261C644.811,-66.2771 665.3469,-68.9867 682.3196,-71.2262"/>
<polygon fill="#191970" stroke="#191970" points="626.5227,-60.3339 616.1508,-62.4956 625.607,-67.2737 626.5227,-60.3339"/>
</g>
<!-- Node231&#45;&gt;Node229 -->
<g id="edge9" class="edge">
<title>Node231&#45;&gt;Node229</title>
<path fill="none" stroke="#191970" d="M522.7692,-57C473.663,-57 400.2759,-57 351.3093,-57"/>
<polygon fill="#191970" stroke="#191970" points="522.8618,-60.5001 532.8618,-57 522.8618,-53.5001 522.8618,-60.5001"/>
</g>
<!-- Node231&#45;&gt;Node232 -->
<g id="edge11" class="edge">
<title>Node231&#45;&gt;Node232</title>
<path fill="none" stroke="#191970" d="M626.1423,-50.1861C634.5246,-49.0801 643.308,-47.9212 651.9846,-46.7763"/>
<polygon fill="#191970" stroke="#191970" points="625.607,-46.7263 616.1508,-51.5044 626.5227,-53.6661 625.607,-46.7263"/>
</g>
<!-- Node233 -->
<g id="node11" class="node">
<title>Node233</title>
<g id="a_node11"><a xlink:href="watchdog_8c.html#aeb03c505b5b589ae4d89b2ae11dd1711" target="_top" xlink:title="watchdog_timer_func">
<polygon fill="#ffffff" stroke="#000000" points="831,-28.5 831,-47.5 943,-47.5 943,-28.5 831,-28.5"/>
<text text-anchor="middle" x="887" y="-35.5" font-family="Helvetica,sans-Serif" font-size="10.00" fill="#000000">watchdog_timer_func</text>
</a>
</g>
</g>
<!-- Node232&#45;&gt;Node233 -->
<g id="edge12" class="edge">
<title>Node232&#45;&gt;Node233</title>
<path fill="none" stroke="#191970" d="M795.1494,-38C807.2028,-38 819.4654,-38 830.9395,-38"/>
<polygon fill="#191970" stroke="#191970" points="795.0957,-34.5001 785.0957,-38 795.0956,-41.5001 795.0957,-34.5001"/>
</g>
<!-- Node234 -->
<g id="node12" class="node">
<title>Node234</title>
<g id="a_node12"><a xlink:href="watchdog_8h.html#ab148f2150b52df5b60e312dded3a2934" target="_top" xlink:title="start_watchdog">
<polygon fill="#ffffff" stroke="#000000" points="994,-28.5 994,-47.5 1078,-47.5 1078,-28.5 994,-28.5"/>
<text text-anchor="middle" x="1036" y="-35.5" font-family="Helvetica,sans-Serif" font-size="10.00" fill="#000000">start_watchdog</text>
</a>
</g>
</g>
<!-- Node233&#45;&gt;Node234 -->
<g id="edge13" class="edge">
<title>Node233&#45;&gt;Node234</title>
<path fill="none" stroke="#191970" d="M953.7067,-38C967.407,-38 981.4627,-38 993.9932,-38"/>
<polygon fill="#191970" stroke="#191970" points="953.3305,-34.5001 943.3305,-38 953.3305,-41.5001 953.3305,-34.5001"/>
</g>
<!-- Node234&#45;&gt;Node227 -->
<g id="edge14" class="edge">
<title>Node234&#45;&gt;Node227</title>
<path fill="none" stroke="#191970" d="M1088.3079,-47.035C1098.9327,-48.8702 1109.6918,-50.7286 1118.9941,-52.3354"/>
<polygon fill="#191970" stroke="#191970" points="1088.6641,-43.5448 1078.2143,-45.2916 1087.4726,-50.4426 1088.6641,-43.5448"/>
</g>
<!-- Node235&#45;&gt;Node229 -->
<g id="edge16" class="edge">
<title>Node235&#45;&gt;Node229</title>
<path fill="none" stroke="#191970" d="M223.2331,-45.0445C231.5974,-46.3471 240.3863,-47.7159 248.91,-49.0434"/>
<polygon fill="#191970" stroke="#191970" points="223.707,-41.5762 213.2875,-43.4956 222.6297,-48.4928 223.707,-41.5762"/>
</g>
</g>
</svg>
