<?xml version="1.0" encoding="UTF-8" standalone="no"?>
<!DOCTYPE svg PUBLIC "-//W3C//DTD SVG 1.1//EN"
 "http://www.w3.org/Graphics/SVG/1.1/DTD/svg11.dtd">
<!-- Generated by graphviz version 2.41.20170323.1842 (20170323.1842)
 -->
<!-- Title: config_mode_timer_func Pages: 1 -->
<svg width="893pt" height="598pt"
 viewBox="0.00 0.00 893.00 598.00" xmlns="http://www.w3.org/2000/svg" xmlns:xlink="http://www.w3.org/1999/xlink">
<g id="graph0" class="graph" transform="scale(1 1) rotate(0) translate(4 594)">
<title>config_mode_timer_func</title>
<polygon fill="#ffffff" stroke="transparent" points="-4,4 -4,-594 889,-594 889,4 -4,4"/>
<!-- Node0 -->
<g id="node1" class="node">
<title>Node0</title>
<polygon fill="#bfbfbf" stroke="#000000" points="0,-361.5 0,-380.5 126,-380.5 126,-361.5 0,-361.5"/>
<text text-anchor="middle" x="63" y="-368.5" font-family="Helvetica,sans-Serif" font-size="10.00" fill="#000000">config_mode_timer_func</text>
</g>
<!-- Node1 -->
<g id="node2" class="node">
<title>Node1</title>
<g id="a_node2"><a xlink:href="captdns_8c.html#a88f42288d1b84cab204cca9e7f7aa9a3" target="_top" xlink:title="captdnsInit">
<polygon fill="#ffffff" stroke="#000000" points="193.5,-481.5 193.5,-500.5 258.5,-500.5 258.5,-481.5 193.5,-481.5"/>
<text text-anchor="middle" x="226" y="-488.5" font-family="Helvetica,sans-Serif" font-size="10.00" fill="#000000">captdnsInit</text>
</a>
</g>
</g>
<!-- Node0&#45;&gt;Node1 -->
<g id="edge1" class="edge">
<title>Node0&#45;&gt;Node1</title>
<path fill="none" stroke="#191970" d="M72.1334,-380.647C88.8111,-397.8955 125.8196,-434.5047 162,-459 171.9235,-465.7185 183.4561,-471.9176 193.976,-477.0347"/>
<polygon fill="#191970" stroke="#191970" points="192.7389,-480.3207 203.2772,-481.4137 195.7206,-473.9875 192.7389,-480.3207"/>
</g>
<!-- Node8 -->
<g id="node9" class="node">
<title>Node8</title>
<g id="a_node9"><a xlink:href="en61107__request_8c.html#a2e53aff8d679705828aa9c3583340eaa" target="_top" xlink:title="en61107_get_received\l_serial">
<polygon fill="#ffffff" stroke="#000000" points="167,-419 167,-449 285,-449 285,-419 167,-419"/>
<text text-anchor="start" x="175" y="-437" font-family="Helvetica,sans-Serif" font-size="10.00" fill="#000000">en61107_get_received</text>
<text text-anchor="middle" x="226" y="-426" font-family="Helvetica,sans-Serif" font-size="10.00" fill="#000000">_serial</text>
</a>
</g>
</g>
<!-- Node0&#45;&gt;Node8 -->
<g id="edge10" class="edge">
<title>Node0&#45;&gt;Node8</title>
<path fill="none" stroke="#191970" d="M87.7562,-380.5683C111.4406,-389.7224 147.8174,-403.7822 177.3119,-415.1819"/>
<polygon fill="#191970" stroke="#191970" points="176.4328,-418.5944 187.0222,-418.935 178.9565,-412.0651 176.4328,-418.5944"/>
</g>
<!-- Node9 -->
<g id="node10" class="node">
<title>Node9</title>
<g id="a_node10"><a xlink:href="httpd__user__init_8c.html#a6abf56883c8e03334f42bfb79aa8b095" target="_top" xlink:title="httpd_user_init">
<polygon fill="#ffffff" stroke="#000000" points="185,-380.5 185,-399.5 267,-399.5 267,-380.5 185,-380.5"/>
<text text-anchor="middle" x="226" y="-387.5" font-family="Helvetica,sans-Serif" font-size="10.00" fill="#000000">httpd_user_init</text>
</a>
</g>
</g>
<!-- Node0&#45;&gt;Node9 -->
<g id="edge11" class="edge">
<title>Node0&#45;&gt;Node9</title>
<path fill="none" stroke="#191970" d="M126.0201,-378.3459C142.0336,-380.2125 159.0519,-382.1962 174.4216,-383.9878"/>
<polygon fill="#191970" stroke="#191970" points="174.4282,-387.5122 184.7662,-385.1936 175.2387,-380.5593 174.4282,-387.5122"/>
</g>
<!-- Node23 -->
<g id="node24" class="node">
<title>Node23</title>
<g id="a_node24"><a xlink:href="kmp__request_8c.html#ae812917b104be167131436ca730cdbe6" target="_top" xlink:title="kmp_get_received_serial">
<polygon fill="#ffffff" stroke="#000000" points="162,-342.5 162,-361.5 290,-361.5 290,-342.5 162,-342.5"/>
<text text-anchor="middle" x="226" y="-349.5" font-family="Helvetica,sans-Serif" font-size="10.00" fill="#000000">kmp_get_received_serial</text>
</a>
</g>
</g>
<!-- Node0&#45;&gt;Node23 -->
<g id="edge30" class="edge">
<title>Node0&#45;&gt;Node23</title>
<path fill="none" stroke="#191970" d="M126.0201,-363.6541C134.4552,-362.6709 143.1691,-361.6551 151.7739,-360.6521"/>
<polygon fill="#191970" stroke="#191970" points="152.2745,-364.1176 161.802,-359.4832 151.464,-357.1646 152.2745,-364.1176"/>
</g>
<!-- Node24 -->
<g id="node25" class="node">
<title>Node24</title>
<g id="a_node25"><a xlink:href="tinyprintf_8c.html#a9738cbc6c538d210941db282e240c7d6" target="_top" xlink:title="tfp_snprintf">
<polygon fill="#ffffff" stroke="#000000" points="330,-266.5 330,-285.5 396,-285.5 396,-266.5 330,-266.5"/>
<text text-anchor="middle" x="363" y="-273.5" font-family="Helvetica,sans-Serif" font-size="10.00" fill="#000000">tfp_snprintf</text>
</a>
</g>
</g>
<!-- Node0&#45;&gt;Node24 -->
<g id="edge31" class="edge">
<title>Node0&#45;&gt;Node24</title>
<path fill="none" stroke="#191970" d="M85.9904,-361.4981C105.92,-353.4248 135.6243,-341.782 162,-333 215.9338,-315.0424 279.1612,-297.7097 320.0908,-286.9667"/>
<polygon fill="#191970" stroke="#191970" points="321.2051,-290.2932 329.997,-284.3811 319.4372,-283.5201 321.2051,-290.2932"/>
</g>
<!-- Node37 -->
<g id="node38" class="node">
<title>Node37</title>
<g id="a_node38"><a xlink:href="wifi_8h.html#a05bed02754a1afbba24a7441ba96ada0" target="_top" xlink:title="wifi_softap_config">
<polygon fill="#ffffff" stroke="#000000" points="178,-266.5 178,-285.5 274,-285.5 274,-266.5 178,-266.5"/>
<text text-anchor="middle" x="226" y="-273.5" font-family="Helvetica,sans-Serif" font-size="10.00" fill="#000000">wifi_softap_config</text>
</a>
</g>
</g>
<!-- Node0&#45;&gt;Node37 -->
<g id="edge47" class="edge">
<title>Node0&#45;&gt;Node37</title>
<path fill="none" stroke="#191970" d="M74.2303,-361.4202C91.9388,-346.6789 127.8572,-318.2318 162,-300 169.5989,-295.9423 178.0346,-292.256 186.2213,-289.0567"/>
<polygon fill="#191970" stroke="#191970" points="187.5108,-292.3113 195.6525,-285.5317 185.06,-285.7544 187.5108,-292.3113"/>
</g>
<!-- Node2 -->
<g id="node3" class="node">
<title>Node2</title>
<g id="a_node3"><a xlink:href="captdns_8c.html#a59c9a28ea1f015cff27b9d0c252d15f3" target="_top" xlink:title="captdnsRecv">
<polygon fill="#ffffff" stroke="#000000" points="326,-481.5 326,-500.5 400,-500.5 400,-481.5 326,-481.5"/>
<text text-anchor="middle" x="363" y="-488.5" font-family="Helvetica,sans-Serif" font-size="10.00" fill="#000000">captdnsRecv</text>
</a>
</g>
</g>
<!-- Node1&#45;&gt;Node2 -->
<g id="edge2" class="edge">
<title>Node1&#45;&gt;Node2</title>
<path fill="none" stroke="#191970" d="M258.8149,-485.1408C275.78,-484.208 296.7968,-484.0078 315.5008,-484.5402"/>
<polygon fill="#191970" stroke="#191970" points="315.492,-488.0422 325.6137,-484.9114 315.7488,-481.0469 315.492,-488.0422"/>
</g>
<!-- Node2&#45;&gt;Node1 -->
<g id="edge3" class="edge">
<title>Node2&#45;&gt;Node1</title>
<path fill="none" stroke="#191970" d="M325.6137,-497.0886C308.066,-497.8887 287.0593,-497.9629 268.87,-497.3112"/>
<polygon fill="#191970" stroke="#191970" points="268.962,-493.8119 258.8149,-496.8592 268.6476,-500.8048 268.962,-493.8119"/>
</g>
<!-- Node3 -->
<g id="node4" class="node">
<title>Node3</title>
<g id="a_node4"><a xlink:href="captdns_8c.html#a1cda566d8dc5035086e911607e45820b" target="_top" xlink:title="labelToStr">
<polygon fill="#ffffff" stroke="#000000" points="449.5,-532.5 449.5,-551.5 511.5,-551.5 511.5,-532.5 449.5,-532.5"/>
<text text-anchor="middle" x="480.5" y="-539.5" font-family="Helvetica,sans-Serif" font-size="10.00" fill="#000000">labelToStr</text>
</a>
</g>
</g>
<!-- Node2&#45;&gt;Node3 -->
<g id="edge4" class="edge">
<title>Node2&#45;&gt;Node3</title>
<path fill="none" stroke="#191970" d="M385.1009,-500.5927C403.1539,-508.4285 428.894,-519.6008 449.0882,-528.366"/>
<polygon fill="#191970" stroke="#191970" points="447.9315,-531.6793 458.4982,-532.4503 450.7186,-525.2581 447.9315,-531.6793"/>
</g>
<!-- Node4 -->
<g id="node5" class="node">
<title>Node4</title>
<g id="a_node5"><a xlink:href="captdns_8c.html#a2b9dc30f1b5c34d34788f966f8baf579" target="_top" xlink:title="my_ntohs">
<polygon fill="#ffffff" stroke="#000000" points="574.5,-513.5 574.5,-532.5 634.5,-532.5 634.5,-513.5 574.5,-513.5"/>
<text text-anchor="middle" x="604.5" y="-520.5" font-family="Helvetica,sans-Serif" font-size="10.00" fill="#000000">my_ntohs</text>
</a>
</g>
</g>
<!-- Node2&#45;&gt;Node4 -->
<g id="edge6" class="edge">
<title>Node2&#45;&gt;Node4</title>
<path fill="none" stroke="#191970" d="M400.2051,-495.9299C444.5173,-501.8015 518.2717,-511.5743 563.9902,-517.6322"/>
<polygon fill="#191970" stroke="#191970" points="563.7633,-521.1327 574.1365,-518.9767 564.6829,-514.1933 563.7633,-521.1327"/>
</g>
<!-- Node5 -->
<g id="node6" class="node">
<title>Node5</title>
<g id="a_node6"><a xlink:href="captdns_8c.html#a3b65a462da5bbfc4c310605b66952949" target="_top" xlink:title="setn16">
<polygon fill="#ffffff" stroke="#000000" points="457,-456.5 457,-475.5 504,-475.5 504,-456.5 457,-456.5"/>
<text text-anchor="middle" x="480.5" y="-463.5" font-family="Helvetica,sans-Serif" font-size="10.00" fill="#000000">setn16</text>
</a>
</g>
</g>
<!-- Node2&#45;&gt;Node5 -->
<g id="edge7" class="edge">
<title>Node2&#45;&gt;Node5</title>
<path fill="none" stroke="#191970" d="M400.1777,-483.0898C415.11,-479.9128 432.2013,-476.2763 446.769,-473.1768"/>
<polygon fill="#191970" stroke="#191970" points="447.8108,-476.5336 456.8635,-471.029 446.354,-469.6868 447.8108,-476.5336"/>
</g>
<!-- Node6 -->
<g id="node7" class="node">
<title>Node6</title>
<g id="a_node7"><a xlink:href="captdns_8c.html#aad0e85473ca50e7bc9726c0e0314310f" target="_top" xlink:title="setn32">
<polygon fill="#ffffff" stroke="#000000" points="457,-418.5 457,-437.5 504,-437.5 504,-418.5 457,-418.5"/>
<text text-anchor="middle" x="480.5" y="-425.5" font-family="Helvetica,sans-Serif" font-size="10.00" fill="#000000">setn32</text>
</a>
</g>
</g>
<!-- Node2&#45;&gt;Node6 -->
<g id="edge8" class="edge">
<title>Node2&#45;&gt;Node6</title>
<path fill="none" stroke="#191970" d="M377.4781,-481.4524C391.9671,-472.0957 415.0547,-457.7182 436,-447 439.5989,-445.1584 443.4173,-443.3377 447.2455,-441.5952"/>
<polygon fill="#191970" stroke="#191970" points="448.9151,-444.6846 456.6622,-437.4573 446.099,-438.276 448.9151,-444.6846"/>
</g>
<!-- Node7 -->
<g id="node8" class="node">
<title>Node7</title>
<g id="a_node8"><a xlink:href="captdns_8c.html#ab65a5932a7432c62e039b6366cedb733" target="_top" xlink:title="strToLabel">
<polygon fill="#ffffff" stroke="#000000" points="448.5,-570.5 448.5,-589.5 512.5,-589.5 512.5,-570.5 448.5,-570.5"/>
<text text-anchor="middle" x="480.5" y="-577.5" font-family="Helvetica,sans-Serif" font-size="10.00" fill="#000000">strToLabel</text>
</a>
</g>
</g>
<!-- Node2&#45;&gt;Node7 -->
<g id="edge9" class="edge">
<title>Node2&#45;&gt;Node7</title>
<path fill="none" stroke="#191970" d="M371.0895,-500.7489C383.6901,-515.4335 409.3391,-543.3806 436,-561 438.7332,-562.8063 441.6665,-564.5032 444.6753,-566.0821"/>
<polygon fill="#191970" stroke="#191970" points="443.2738,-569.2916 453.8044,-570.4564 446.2986,-562.9788 443.2738,-569.2916"/>
</g>
<!-- Node3&#45;&gt;Node4 -->
<g id="edge5" class="edge">
<title>Node3&#45;&gt;Node4</title>
<path fill="none" stroke="#191970" d="M511.7904,-537.2055C527.5947,-534.7839 546.9607,-531.8165 563.8983,-529.2212"/>
<polygon fill="#191970" stroke="#191970" points="564.7224,-532.6359 574.0769,-527.6616 563.6621,-525.7166 564.7224,-532.6359"/>
</g>
<!-- Node10 -->
<g id="node11" class="node">
<title>Node10</title>
<g id="a_node11"><a xlink:href="httpd_8c.html#a74eb356c950228c2f024f081f7beb830" target="_top" xlink:title="httpdInit">
<polygon fill="#ffffff" stroke="#000000" points="337,-380.5 337,-399.5 389,-399.5 389,-380.5 337,-380.5"/>
<text text-anchor="middle" x="363" y="-387.5" font-family="Helvetica,sans-Serif" font-size="10.00" fill="#000000">httpdInit</text>
</a>
</g>
</g>
<!-- Node9&#45;&gt;Node10 -->
<g id="edge12" class="edge">
<title>Node9&#45;&gt;Node10</title>
<path fill="none" stroke="#191970" d="M267.1045,-390C285.9479,-390 308.1027,-390 326.3677,-390"/>
<polygon fill="#191970" stroke="#191970" points="326.618,-393.5001 336.618,-390 326.6179,-386.5001 326.618,-393.5001"/>
</g>
<!-- Node11 -->
<g id="node12" class="node">
<title>Node11</title>
<g id="a_node12"><a xlink:href="httpd_8c.html#a394ef39b684f0f7c1cf013dcb2b8300b" target="_top" xlink:title="httpdConnectCb">
<polygon fill="#ffffff" stroke="#000000" points="436,-380.5 436,-399.5 525,-399.5 525,-380.5 436,-380.5"/>
<text text-anchor="middle" x="480.5" y="-387.5" font-family="Helvetica,sans-Serif" font-size="10.00" fill="#000000">httpdConnectCb</text>
</a>
</g>
</g>
<!-- Node10&#45;&gt;Node11 -->
<g id="edge13" class="edge">
<title>Node10&#45;&gt;Node11</title>
<path fill="none" stroke="#191970" d="M389.0771,-390C399.8535,-390 412.7805,-390 425.4746,-390"/>
<polygon fill="#191970" stroke="#191970" points="425.5596,-393.5001 435.5596,-390 425.5596,-386.5001 425.5596,-393.5001"/>
</g>
<!-- Node12 -->
<g id="node13" class="node">
<title>Node12</title>
<g id="a_node13"><a xlink:href="httpd_8c.html#a3a1968ecb0fa46d0cbeb07e9983494f4" target="_top" xlink:title="httpdDisconCb">
<polygon fill="#ffffff" stroke="#000000" points="563.5,-456.5 563.5,-475.5 645.5,-475.5 645.5,-456.5 563.5,-456.5"/>
<text text-anchor="middle" x="604.5" y="-463.5" font-family="Helvetica,sans-Serif" font-size="10.00" fill="#000000">httpdDisconCb</text>
</a>
</g>
</g>
<!-- Node11&#45;&gt;Node12 -->
<g id="edge14" class="edge">
<title>Node11&#45;&gt;Node12</title>
<path fill="none" stroke="#191970" d="M507.7905,-399.5619C513.7088,-402.1972 519.7597,-405.3532 525,-409 544.0956,-422.2888 541.9595,-433.6323 561,-447 563.4028,-448.6869 565.9793,-450.2723 568.6345,-451.7517"/>
<polygon fill="#191970" stroke="#191970" points="567.3205,-455.0083 577.8279,-456.367 570.4612,-448.7524 567.3205,-455.0083"/>
</g>
<!-- Node15 -->
<g id="node16" class="node">
<title>Node15</title>
<g id="a_node16"><a xlink:href="httpd_8c.html#aa93c97e6f6126a95a462afad3d3651ce" target="_top" xlink:title="httpdReconCb">
<polygon fill="#ffffff" stroke="#000000" points="564.5,-380.5 564.5,-399.5 644.5,-399.5 644.5,-380.5 564.5,-380.5"/>
<text text-anchor="middle" x="604.5" y="-387.5" font-family="Helvetica,sans-Serif" font-size="10.00" fill="#000000">httpdReconCb</text>
</a>
</g>
</g>
<!-- Node11&#45;&gt;Node15 -->
<g id="edge17" class="edge">
<title>Node11&#45;&gt;Node15</title>
<path fill="none" stroke="#191970" d="M525.2668,-390C534.6407,-390 544.5854,-390 554.1469,-390"/>
<polygon fill="#191970" stroke="#191970" points="554.3264,-393.5001 564.3264,-390 554.3264,-386.5001 554.3264,-393.5001"/>
</g>
<!-- Node16 -->
<g id="node17" class="node">
<title>Node16</title>
<g id="a_node17"><a xlink:href="httpd_8c.html#ad4f8c0a86c445f2f52156e8a328613e4" target="_top" xlink:title="httpdRecvCb">
<polygon fill="#ffffff" stroke="#000000" points="567.5,-342.5 567.5,-361.5 641.5,-361.5 641.5,-342.5 567.5,-342.5"/>
<text text-anchor="middle" x="604.5" y="-349.5" font-family="Helvetica,sans-Serif" font-size="10.00" fill="#000000">httpdRecvCb</text>
</a>
</g>
</g>
<!-- Node11&#45;&gt;Node16 -->
<g id="edge19" class="edge">
<title>Node11&#45;&gt;Node16</title>
<path fill="none" stroke="#191970" d="M511.7904,-380.411C527.5039,-375.5956 546.7383,-369.7012 563.6061,-364.532"/>
<polygon fill="#191970" stroke="#191970" points="564.684,-367.8624 573.2196,-361.5859 562.6329,-361.1696 564.684,-367.8624"/>
</g>
<!-- Node22 -->
<g id="node23" class="node">
<title>Node22</title>
<g id="a_node23"><a xlink:href="httpd_8c.html#a51c1039375e19643be3aaac1e8a1c937" target="_top" xlink:title="httpdSentCb">
<polygon fill="#ffffff" stroke="#000000" points="568.5,-418.5 568.5,-437.5 640.5,-437.5 640.5,-418.5 568.5,-418.5"/>
<text text-anchor="middle" x="604.5" y="-425.5" font-family="Helvetica,sans-Serif" font-size="10.00" fill="#000000">httpdSentCb</text>
</a>
</g>
</g>
<!-- Node11&#45;&gt;Node22 -->
<g id="edge26" class="edge">
<title>Node11&#45;&gt;Node22</title>
<path fill="none" stroke="#191970" d="M511.7904,-399.589C527.5039,-404.4044 546.7383,-410.2988 563.6061,-415.468"/>
<polygon fill="#191970" stroke="#191970" points="562.6329,-418.8304 573.2196,-418.4141 564.684,-412.1376 562.6329,-418.8304"/>
</g>
<!-- Node13 -->
<g id="node14" class="node">
<title>Node13</title>
<g id="a_node14"><a xlink:href="httpd_8c.html#afd1e497b9cd5f6934acaf57679bc21f8" target="_top" xlink:title="httpdFindConnData">
<polygon fill="#ffffff" stroke="#000000" points="684,-418.5 684,-437.5 787,-437.5 787,-418.5 684,-418.5"/>
<text text-anchor="middle" x="735.5" y="-425.5" font-family="Helvetica,sans-Serif" font-size="10.00" fill="#000000">httpdFindConnData</text>
</a>
</g>
</g>
<!-- Node12&#45;&gt;Node13 -->
<g id="edge15" class="edge">
<title>Node12&#45;&gt;Node13</title>
<path fill="none" stroke="#191970" d="M637.5568,-456.411C654.3125,-451.5506 674.8577,-445.5909 692.7965,-440.3873"/>
<polygon fill="#191970" stroke="#191970" points="693.8247,-443.7334 702.4537,-437.5859 691.8745,-437.0105 693.8247,-443.7334"/>
</g>
<!-- Node14 -->
<g id="node15" class="node">
<title>Node14</title>
<g id="a_node15"><a xlink:href="httpd_8c.html#ab7a09edc1f3de2b70bf21ed275c22c61" target="_top" xlink:title="httpdRetireConn">
<polygon fill="#ffffff" stroke="#000000" points="691,-456.5 691,-475.5 780,-475.5 780,-456.5 691,-456.5"/>
<text text-anchor="middle" x="735.5" y="-463.5" font-family="Helvetica,sans-Serif" font-size="10.00" fill="#000000">httpdRetireConn</text>
</a>
</g>
</g>
<!-- Node12&#45;&gt;Node14 -->
<g id="edge16" class="edge">
<title>Node12&#45;&gt;Node14</title>
<path fill="none" stroke="#191970" d="M645.5898,-466C656.7325,-466 668.9751,-466 680.7421,-466"/>
<polygon fill="#191970" stroke="#191970" points="680.9209,-469.5001 690.9209,-466 680.9208,-462.5001 680.9209,-469.5001"/>
</g>
<!-- Node15&#45;&gt;Node13 -->
<g id="edge18" class="edge">
<title>Node15&#45;&gt;Node13</title>
<path fill="none" stroke="#191970" d="M637.5568,-399.589C654.3125,-404.4494 674.8577,-410.4091 692.7965,-415.6127"/>
<polygon fill="#191970" stroke="#191970" points="691.8745,-418.9895 702.4537,-418.4141 693.8247,-412.2666 691.8745,-418.9895"/>
</g>
<!-- Node16&#45;&gt;Node13 -->
<g id="edge20" class="edge">
<title>Node16&#45;&gt;Node13</title>
<path fill="none" stroke="#191970" d="M631.1721,-361.633C636.9577,-364.2646 642.874,-367.4012 648,-371 667.0405,-384.3677 664.5776,-396.1936 684,-409 686.9127,-410.9205 690.0456,-412.6803 693.276,-414.2861"/>
<polygon fill="#191970" stroke="#191970" points="691.9778,-417.5393 702.5369,-418.4092 694.8249,-411.1444 691.9778,-417.5393"/>
</g>
<!-- Node17 -->
<g id="node18" class="node">
<title>Node17</title>
<g id="a_node18"><a xlink:href="httpd_8c.html#afbbd7e804f055b233604a4a6e6fe5cee" target="_top" xlink:title="httpdParseHeader">
<polygon fill="#ffffff" stroke="#000000" points="686.5,-304.5 686.5,-323.5 784.5,-323.5 784.5,-304.5 686.5,-304.5"/>
<text text-anchor="middle" x="735.5" y="-311.5" font-family="Helvetica,sans-Serif" font-size="10.00" fill="#000000">httpdParseHeader</text>
</a>
</g>
</g>
<!-- Node16&#45;&gt;Node17 -->
<g id="edge21" class="edge">
<title>Node16&#45;&gt;Node17</title>
<path fill="none" stroke="#191970" d="M637.5568,-342.411C654.3125,-337.5506 674.8577,-331.5909 692.7965,-326.3873"/>
<polygon fill="#191970" stroke="#191970" points="693.8247,-329.7334 702.4537,-323.5859 691.8745,-323.0105 693.8247,-329.7334"/>
</g>
<!-- Node19 -->
<g id="node20" class="node">
<title>Node19</title>
<g id="a_node20"><a xlink:href="httpd_8c.html#a5aa7652c21a5a543311463ab0566ccc9" target="_top" xlink:title="httpdSendResp">
<polygon fill="#ffffff" stroke="#000000" points="693,-342.5 693,-361.5 778,-361.5 778,-342.5 693,-342.5"/>
<text text-anchor="middle" x="735.5" y="-349.5" font-family="Helvetica,sans-Serif" font-size="10.00" fill="#000000">httpdSendResp</text>
</a>
</g>
</g>
<!-- Node16&#45;&gt;Node19 -->
<g id="edge23" class="edge">
<title>Node16&#45;&gt;Node19</title>
<path fill="none" stroke="#191970" d="M641.6889,-352C654.3474,-352 668.7527,-352 682.4107,-352"/>
<polygon fill="#191970" stroke="#191970" points="682.6681,-355.5001 692.668,-352 682.668,-348.5001 682.6681,-355.5001"/>
</g>
<!-- Node21 -->
<g id="node22" class="node">
<title>Node21</title>
<g id="a_node22"><a xlink:href="httpd_8c.html#a4638d3f885add9276ca7eaeca3ec67a9" target="_top" xlink:title="xmitSendBuff">
<polygon fill="#ffffff" stroke="#000000" points="697.5,-380.5 697.5,-399.5 773.5,-399.5 773.5,-380.5 697.5,-380.5"/>
<text text-anchor="middle" x="735.5" y="-387.5" font-family="Helvetica,sans-Serif" font-size="10.00" fill="#000000">xmitSendBuff</text>
</a>
</g>
</g>
<!-- Node16&#45;&gt;Node21 -->
<g id="edge25" class="edge">
<title>Node16&#45;&gt;Node21</title>
<path fill="none" stroke="#191970" d="M637.5568,-361.589C654.3125,-366.4494 674.8577,-372.4091 692.7965,-377.6127"/>
<polygon fill="#191970" stroke="#191970" points="691.8745,-380.9895 702.4537,-380.4141 693.8247,-374.2666 691.8745,-380.9895"/>
</g>
<!-- Node18 -->
<g id="node19" class="node">
<title>Node18</title>
<g id="a_node19"><a xlink:href="espmissingincludes_8h.html#ad228deceea1bac4d9f171f647c265059" target="_top" xlink:title="atoi">
<polygon fill="#ffffff" stroke="#000000" points="837.5,-304.5 837.5,-323.5 870.5,-323.5 870.5,-304.5 837.5,-304.5"/>
<text text-anchor="middle" x="854" y="-311.5" font-family="Helvetica,sans-Serif" font-size="10.00" fill="#000000">atoi</text>
</a>
</g>
</g>
<!-- Node17&#45;&gt;Node18 -->
<g id="edge22" class="edge">
<title>Node17&#45;&gt;Node18</title>
<path fill="none" stroke="#191970" d="M784.7252,-314C799.2832,-314 814.6728,-314 827.2396,-314"/>
<polygon fill="#191970" stroke="#191970" points="827.4647,-317.5001 837.4646,-314 827.4646,-310.5001 827.4647,-317.5001"/>
</g>
<!-- Node20 -->
<g id="node21" class="node">
<title>Node20</title>
<g id="a_node21"><a xlink:href="httpd_8c.html#a1a143f6c427d66e2561895cf193fc535" target="_top" xlink:title="httpdSend">
<polygon fill="#ffffff" stroke="#000000" points="823,-342.5 823,-361.5 885,-361.5 885,-342.5 823,-342.5"/>
<text text-anchor="middle" x="854" y="-349.5" font-family="Helvetica,sans-Serif" font-size="10.00" fill="#000000">httpdSend</text>
</a>
</g>
</g>
<!-- Node19&#45;&gt;Node20 -->
<g id="edge24" class="edge">
<title>Node19&#45;&gt;Node20</title>
<path fill="none" stroke="#191970" d="M778.2812,-352C789.4343,-352 801.433,-352 812.5176,-352"/>
<polygon fill="#191970" stroke="#191970" points="812.8075,-355.5001 822.8074,-352 812.8074,-348.5001 812.8075,-355.5001"/>
</g>
<!-- Node22&#45;&gt;Node13 -->
<g id="edge27" class="edge">
<title>Node22&#45;&gt;Node13</title>
<path fill="none" stroke="#191970" d="M640.6431,-428C650.8481,-428 662.2518,-428 673.5165,-428"/>
<polygon fill="#191970" stroke="#191970" points="673.7841,-431.5001 683.7841,-428 673.7841,-424.5001 673.7841,-431.5001"/>
</g>
<!-- Node22&#45;&gt;Node14 -->
<g id="edge28" class="edge">
<title>Node22&#45;&gt;Node14</title>
<path fill="none" stroke="#191970" d="M637.5568,-437.589C654.3125,-442.4494 674.8577,-448.4091 692.7965,-453.6127"/>
<polygon fill="#191970" stroke="#191970" points="691.8745,-456.9895 702.4537,-456.4141 693.8247,-450.2666 691.8745,-456.9895"/>
</g>
<!-- Node22&#45;&gt;Node21 -->
<g id="edge29" class="edge">
<title>Node22&#45;&gt;Node21</title>
<path fill="none" stroke="#191970" d="M637.5568,-418.411C654.3125,-413.5506 674.8577,-407.5909 692.7965,-402.3873"/>
<polygon fill="#191970" stroke="#191970" points="693.8247,-405.7334 702.4537,-399.5859 691.8745,-399.0105 693.8247,-405.7334"/>
</g>
<!-- Node25 -->
<g id="node26" class="node">
<title>Node25</title>
<g id="a_node26"><a xlink:href="tinyprintf_8c.html#ac8c8a66133cf0d7009c0d73b55311a44" target="_top" xlink:title="tfp_vsnprintf">
<polygon fill="#ffffff" stroke="#000000" points="445,-152.5 445,-171.5 516,-171.5 516,-152.5 445,-152.5"/>
<text text-anchor="middle" x="480.5" y="-159.5" font-family="Helvetica,sans-Serif" font-size="10.00" fill="#000000">tfp_vsnprintf</text>
</a>
</g>
</g>
<!-- Node24&#45;&gt;Node25 -->
<g id="edge32" class="edge">
<title>Node24&#45;&gt;Node25</title>
<path fill="none" stroke="#191970" d="M373.018,-266.2804C393.0492,-246.8459 438.2527,-202.9888 463.1831,-178.8011"/>
<polygon fill="#191970" stroke="#191970" points="465.7674,-181.1704 470.5074,-171.695 460.893,-176.1464 465.7674,-181.1704"/>
</g>
<!-- Node26 -->
<g id="node27" class="node">
<title>Node26</title>
<g id="a_node27"><a xlink:href="tinyprintf_8c.html#a919051024b2d729e34a54648b3f2462d" target="_top" xlink:title="_vsnprintf_putcf">
<polygon fill="#ffffff" stroke="#000000" points="561,-114.5 561,-133.5 648,-133.5 648,-114.5 561,-114.5"/>
<text text-anchor="middle" x="604.5" y="-121.5" font-family="Helvetica,sans-Serif" font-size="10.00" fill="#000000">_vsnprintf_putcf</text>
</a>
</g>
</g>
<!-- Node25&#45;&gt;Node26 -->
<g id="edge33" class="edge">
<title>Node25&#45;&gt;Node26</title>
<path fill="none" stroke="#191970" d="M511.7904,-152.411C527.5039,-147.5956 546.7383,-141.7012 563.6061,-136.532"/>
<polygon fill="#191970" stroke="#191970" points="564.684,-139.8624 573.2196,-133.5859 562.6329,-133.1696 564.684,-139.8624"/>
</g>
<!-- Node27 -->
<g id="node28" class="node">
<title>Node27</title>
<g id="a_node28"><a xlink:href="tinyprintf_8c.html#a5877e42444463efc71a91b5fe76a6145" target="_top" xlink:title="tfp_format">
<polygon fill="#ffffff" stroke="#000000" points="573.5,-152.5 573.5,-171.5 635.5,-171.5 635.5,-152.5 573.5,-152.5"/>
<text text-anchor="middle" x="604.5" y="-159.5" font-family="Helvetica,sans-Serif" font-size="10.00" fill="#000000">tfp_format</text>
</a>
</g>
</g>
<!-- Node25&#45;&gt;Node27 -->
<g id="edge34" class="edge">
<title>Node25&#45;&gt;Node27</title>
<path fill="none" stroke="#191970" d="M516.0334,-162C530.6866,-162 547.7678,-162 562.9917,-162"/>
<polygon fill="#191970" stroke="#191970" points="563.1821,-165.5001 573.182,-162 563.182,-158.5001 563.1821,-165.5001"/>
</g>
<!-- Node28 -->
<g id="node29" class="node">
<title>Node28</title>
<g id="a_node29"><a xlink:href="tinyprintf_8c.html#aa97593a5e53af85b608ad0910db92d77" target="_top" xlink:title="a2u">
<polygon fill="#ffffff" stroke="#000000" points="719,-.5 719,-19.5 752,-19.5 752,-.5 719,-.5"/>
<text text-anchor="middle" x="735.5" y="-7.5" font-family="Helvetica,sans-Serif" font-size="10.00" fill="#000000">a2u</text>
</a>
</g>
</g>
<!-- Node27&#45;&gt;Node28 -->
<g id="edge35" class="edge">
<title>Node27&#45;&gt;Node28</title>
<path fill="none" stroke="#191970" d="M635.6952,-152.3488C640.2702,-149.8725 644.5834,-146.7991 648,-143 683.529,-103.493 647.3333,-67.4534 684,-29 690.5941,-22.0846 699.9229,-17.6716 708.8328,-14.8616"/>
<polygon fill="#191970" stroke="#191970" points="709.7566,-18.2378 718.5462,-12.3223 707.9861,-11.4654 709.7566,-18.2378"/>
</g>
<!-- Node30 -->
<g id="node31" class="node">
<title>Node30</title>
<g id="a_node31"><a xlink:href="tinyprintf_8c.html#a90f9fd8f2133cda7f50be8d67823405c" target="_top" xlink:title="i2a">
<polygon fill="#ffffff" stroke="#000000" points="720.5,-76.5 720.5,-95.5 750.5,-95.5 750.5,-76.5 720.5,-76.5"/>
<text text-anchor="middle" x="735.5" y="-83.5" font-family="Helvetica,sans-Serif" font-size="10.00" fill="#000000">i2a</text>
</a>
</g>
</g>
<!-- Node27&#45;&gt;Node30 -->
<g id="edge37" class="edge">
<title>Node27&#45;&gt;Node30</title>
<path fill="none" stroke="#191970" d="M630.5316,-152.3016C636.4693,-149.6392 642.6122,-146.5059 648,-143 666.1926,-131.1618 665.9525,-122.0582 684,-110 692.3429,-104.4258 702.1866,-99.4922 711.0213,-95.5702"/>
<polygon fill="#191970" stroke="#191970" points="712.5852,-98.709 720.4334,-91.5917 709.8598,-92.2614 712.5852,-98.709"/>
</g>
<!-- Node31 -->
<g id="node32" class="node">
<title>Node31</title>
<g id="a_node32"><a xlink:href="tinyprintf_8c.html#ac87ff66a592723f55692eaf8e3f19df8" target="_top" xlink:title="ui2a">
<polygon fill="#ffffff" stroke="#000000" points="836.5,-95.5 836.5,-114.5 871.5,-114.5 871.5,-95.5 836.5,-95.5"/>
<text text-anchor="middle" x="854" y="-102.5" font-family="Helvetica,sans-Serif" font-size="10.00" fill="#000000">ui2a</text>
</a>
</g>
</g>
<!-- Node27&#45;&gt;Node31 -->
<g id="edge44" class="edge">
<title>Node27&#45;&gt;Node31</title>
<path fill="none" stroke="#191970" d="M635.5949,-154.8962C684.7804,-143.6594 779.7396,-121.9653 826.5488,-111.2714"/>
<polygon fill="#191970" stroke="#191970" points="827.3333,-114.6825 836.3026,-109.0431 825.7742,-107.8583 827.3333,-114.6825"/>
</g>
<!-- Node32 -->
<g id="node33" class="node">
<title>Node32</title>
<g id="a_node33"><a xlink:href="tinyprintf_8c.html#afebb7696337c3f599b5e8db35c560684" target="_top" xlink:title="li2a">
<polygon fill="#ffffff" stroke="#000000" points="719.5,-190.5 719.5,-209.5 751.5,-209.5 751.5,-190.5 719.5,-190.5"/>
<text text-anchor="middle" x="735.5" y="-197.5" font-family="Helvetica,sans-Serif" font-size="10.00" fill="#000000">li2a</text>
</a>
</g>
</g>
<!-- Node27&#45;&gt;Node32 -->
<g id="edge39" class="edge">
<title>Node27&#45;&gt;Node32</title>
<path fill="none" stroke="#191970" d="M635.5452,-171.0055C658.1726,-177.5691 688.469,-186.3574 709.7553,-192.5321"/>
<polygon fill="#191970" stroke="#191970" points="708.8289,-195.9076 719.4081,-195.3321 710.7791,-189.1847 708.8289,-195.9076"/>
</g>
<!-- Node33 -->
<g id="node34" class="node">
<title>Node33</title>
<g id="a_node34"><a xlink:href="tinyprintf_8c.html#a1d61347854a8c290d59b4a21efcefd75" target="_top" xlink:title="uli2a">
<polygon fill="#ffffff" stroke="#000000" points="835,-171.5 835,-190.5 873,-190.5 873,-171.5 835,-171.5"/>
<text text-anchor="middle" x="854" y="-178.5" font-family="Helvetica,sans-Serif" font-size="10.00" fill="#000000">uli2a</text>
</a>
</g>
</g>
<!-- Node27&#45;&gt;Node33 -->
<g id="edge45" class="edge">
<title>Node27&#45;&gt;Node33</title>
<path fill="none" stroke="#191970" d="M635.5949,-164.3679C684.0711,-168.0595 777.0104,-175.1371 824.494,-178.7531"/>
<polygon fill="#191970" stroke="#191970" points="824.4834,-182.2623 834.7203,-179.5318 825.015,-175.2825 824.4834,-182.2623"/>
</g>
<!-- Node34 -->
<g id="node35" class="node">
<title>Node34</title>
<g id="a_node35"><a xlink:href="tinyprintf_8c.html#a49c6d2b3d4088012f2c1fe344eef69f3" target="_top" xlink:title="lli2a">
<polygon fill="#ffffff" stroke="#000000" points="718.5,-266.5 718.5,-285.5 752.5,-285.5 752.5,-266.5 718.5,-266.5"/>
<text text-anchor="middle" x="735.5" y="-273.5" font-family="Helvetica,sans-Serif" font-size="10.00" fill="#000000">lli2a</text>
</a>
</g>
</g>
<!-- Node27&#45;&gt;Node34 -->
<g id="edge41" class="edge">
<title>Node27&#45;&gt;Node34</title>
<path fill="none" stroke="#191970" d="M610.9095,-171.5703C623.2482,-189.3957 651.9338,-228.0415 684,-252 691.4971,-257.6015 700.5107,-262.3475 708.8871,-266.1027"/>
<polygon fill="#191970" stroke="#191970" points="707.7228,-269.4097 718.2984,-270.0478 710.429,-262.9539 707.7228,-269.4097"/>
</g>
<!-- Node35 -->
<g id="node36" class="node">
<title>Node35</title>
<g id="a_node36"><a xlink:href="tinyprintf_8c.html#abcf035dd576671b0cc897de9dd8c75b0" target="_top" xlink:title="ulli2a">
<polygon fill="#ffffff" stroke="#000000" points="834,-247.5 834,-266.5 874,-266.5 874,-247.5 834,-247.5"/>
<text text-anchor="middle" x="854" y="-254.5" font-family="Helvetica,sans-Serif" font-size="10.00" fill="#000000">ulli2a</text>
</a>
</g>
</g>
<!-- Node27&#45;&gt;Node35 -->
<g id="edge46" class="edge">
<title>Node27&#45;&gt;Node35</title>
<path fill="none" stroke="#191970" d="M614.9464,-171.6417C629.3735,-184.4245 656.7194,-206.7854 684,-219 730.2762,-239.7197 788.8528,-249.5988 823.7705,-253.9497"/>
<polygon fill="#191970" stroke="#191970" points="823.4676,-257.4381 833.8076,-255.1284 824.2841,-250.4859 823.4676,-257.4381"/>
</g>
<!-- Node36 -->
<g id="node37" class="node">
<title>Node36</title>
<g id="a_node37"><a xlink:href="tinyprintf_8c.html#a6252dbfebb2c8783c4e3107d551082dd" target="_top" xlink:title="putchw">
<polygon fill="#ffffff" stroke="#000000" points="711.5,-38.5 711.5,-57.5 759.5,-57.5 759.5,-38.5 711.5,-38.5"/>
<text text-anchor="middle" x="735.5" y="-45.5" font-family="Helvetica,sans-Serif" font-size="10.00" fill="#000000">putchw</text>
</a>
</g>
</g>
<!-- Node27&#45;&gt;Node36 -->
<g id="edge43" class="edge">
<title>Node27&#45;&gt;Node36</title>
<path fill="none" stroke="#191970" d="M634.3648,-152.3952C639.3132,-149.8839 644.0957,-146.7868 648,-143 674.8294,-116.9784 656.4227,-92.2276 684,-67 689.1023,-62.3324 695.4498,-58.7843 701.9267,-56.0961"/>
<polygon fill="#191970" stroke="#191970" points="703.1245,-59.385 711.3785,-52.7426 700.7838,-52.7879 703.1245,-59.385"/>
</g>
<!-- Node29 -->
<g id="node30" class="node">
<title>Node29</title>
<g id="a_node30"><a xlink:href="tinyprintf_8c.html#aa853a0c5ba64fa2546d488b86192e7e3" target="_top" xlink:title="a2d">
<polygon fill="#ffffff" stroke="#000000" points="837.5,-.5 837.5,-19.5 870.5,-19.5 870.5,-.5 837.5,-.5"/>
<text text-anchor="middle" x="854" y="-7.5" font-family="Helvetica,sans-Serif" font-size="10.00" fill="#000000">a2d</text>
</a>
</g>
</g>
<!-- Node28&#45;&gt;Node29 -->
<g id="edge36" class="edge">
<title>Node28&#45;&gt;Node29</title>
<path fill="none" stroke="#191970" d="M752.2268,-10C771.7236,-10 804.204,-10 827.2228,-10"/>
<polygon fill="#191970" stroke="#191970" points="827.3583,-13.5001 837.3583,-10 827.3582,-6.5001 827.3583,-13.5001"/>
</g>
<!-- Node30&#45;&gt;Node31 -->
<g id="edge38" class="edge">
<title>Node30&#45;&gt;Node31</title>
<path fill="none" stroke="#191970" d="M750.5081,-88.4064C769.5187,-91.4545 802.647,-96.7662 826.302,-100.559"/>
<polygon fill="#191970" stroke="#191970" points="825.9912,-104.0538 836.4192,-102.1811 827.0995,-97.142 825.9912,-104.0538"/>
</g>
<!-- Node32&#45;&gt;Node33 -->
<g id="edge40" class="edge">
<title>Node32&#45;&gt;Node33</title>
<path fill="none" stroke="#191970" d="M751.9769,-197.3581C770.8378,-194.334 802.0805,-189.3246 825.0321,-185.6446"/>
<polygon fill="#191970" stroke="#191970" points="825.6001,-189.0984 834.9198,-184.0593 824.4918,-182.1867 825.6001,-189.0984"/>
</g>
<!-- Node34&#45;&gt;Node35 -->
<g id="edge42" class="edge">
<title>Node34&#45;&gt;Node35</title>
<path fill="none" stroke="#191970" d="M752.7309,-273.2372C771.3503,-270.2519 801.3756,-265.4377 823.9073,-261.825"/>
<polygon fill="#191970" stroke="#191970" points="824.6538,-265.2501 833.9735,-260.211 823.5455,-258.3384 824.6538,-265.2501"/>
</g>
<!-- Node37&#45;&gt;Node24 -->
<g id="edge48" class="edge">
<title>Node37&#45;&gt;Node24</title>
<path fill="none" stroke="#191970" d="M274.3011,-276C289.0549,-276 305.1817,-276 319.5901,-276"/>
<polygon fill="#191970" stroke="#191970" points="319.7337,-279.5001 329.7337,-276 319.7336,-272.5001 319.7337,-279.5001"/>
</g>
</g>
</svg>
