<?xml version="1.0" encoding="UTF-8" standalone="no"?>
<!DOCTYPE svg PUBLIC "-//W3C//DTD SVG 1.1//EN"
 "http://www.w3.org/Graphics/SVG/1.1/DTD/svg11.dtd">
<!-- Generated by graphviz version 2.41.20170323.1842 (20170323.1842)
 -->
<!-- Title: wifi_station_get_rssi Pages: 1 -->
<svg width="1218pt" height="104pt"
 viewBox="0.00 0.00 1218.00 104.00" xmlns="http://www.w3.org/2000/svg" xmlns:xlink="http://www.w3.org/1999/xlink">
<g id="graph0" class="graph" transform="scale(1 1) rotate(0) translate(4 100)">
<title>wifi_station_get_rssi</title>
<polygon fill="#ffffff" stroke="transparent" points="-4,4 -4,-100 1214,-100 1214,4 -4,4"/>
<!-- Node424 -->
<g id="node1" class="node">
<title>Node424</title>
<polygon fill="#bfbfbf" stroke="#000000" points="0,-19.5 0,-38.5 107,-38.5 107,-19.5 0,-19.5"/>
<text text-anchor="middle" x="53.5" y="-26.5" font-family="Helvetica,sans-Serif" font-size="10.00" fill="#000000">wifi_station_get_rssi</text>
</g>
<!-- Node425 -->
<g id="node2" class="node">
<title>Node425</title>
<g id="a_node2"><a xlink:href="wifi_8c.html#a2091cde351b02dbc8bd9d52273488bba" target="_top" xlink:title="wifi_get_rssi_timer_func">
<polygon fill="#ffffff" stroke="#000000" points="143,-19.5 143,-38.5 267,-38.5 267,-19.5 143,-19.5"/>
<text text-anchor="middle" x="205" y="-26.5" font-family="Helvetica,sans-Serif" font-size="10.00" fill="#000000">wifi_get_rssi_timer_func</text>
</a>
</g>
</g>
<!-- Node424&#45;&gt;Node425 -->
<g id="edge1" class="edge">
<title>Node424&#45;&gt;Node425</title>
<path fill="none" stroke="#191970" d="M117.4522,-29C125.8465,-29 134.439,-29 142.8036,-29"/>
<polygon fill="#191970" stroke="#191970" points="117.3398,-25.5001 107.3398,-29 117.3398,-32.5001 117.3398,-25.5001"/>
</g>
<!-- Node426 -->
<g id="node3" class="node">
<title>Node426</title>
<g id="a_node3"><a xlink:href="wifi_8c.html#a0be23fd8148c6a3abf21c739359bed52" target="_top" xlink:title="wifi_default">
<polygon fill="#ffffff" stroke="#000000" points="303,-38.5 303,-57.5 370,-57.5 370,-38.5 303,-38.5"/>
<text text-anchor="middle" x="336.5" y="-45.5" font-family="Helvetica,sans-Serif" font-size="10.00" fill="#000000">wifi_default</text>
</a>
</g>
</g>
<!-- Node425&#45;&gt;Node426 -->
<g id="edge2" class="edge">
<title>Node425&#45;&gt;Node426</title>
<path fill="none" stroke="#191970" d="M277.3053,-39.4472C286.1516,-40.7253 294.8381,-41.9804 302.7156,-43.1186"/>
<polygon fill="#191970" stroke="#191970" points="277.6819,-35.9653 267.2841,-37.9992 276.6808,-42.8934 277.6819,-35.9653"/>
</g>
<!-- Node430 -->
<g id="node7" class="node">
<title>Node430</title>
<g id="a_node7"><a xlink:href="wifi_8c.html#a9c38abb0900e0c7308be77d85dbf09e0" target="_top" xlink:title="wifi_connect">
<polygon fill="#ffffff" stroke="#000000" points="839.5,-.5 839.5,-19.5 911.5,-19.5 911.5,-.5 839.5,-.5"/>
<text text-anchor="middle" x="875.5" y="-7.5" font-family="Helvetica,sans-Serif" font-size="10.00" fill="#000000">wifi_connect</text>
</a>
</g>
</g>
<!-- Node425&#45;&gt;Node430 -->
<g id="edge11" class="edge">
<title>Node425&#45;&gt;Node430</title>
<path fill="none" stroke="#191970" d="M277.1695,-20.662C327.4979,-15.5581 396.2514,-10 457,-10 457,-10 457,-10 599,-10 685.1662,-10 786.4368,-10 839.2673,-10"/>
<polygon fill="#191970" stroke="#191970" points="276.6261,-17.1994 267.0386,-21.7084 277.3453,-24.1624 276.6261,-17.1994"/>
</g>
<!-- Node427 -->
<g id="node4" class="node">
<title>Node427</title>
<g id="a_node4"><a xlink:href="wifi_8c.html#a1ef15ecd9e69811f6db10215c7196281" target="_top" xlink:title="wifi_scan_done_cb">
<polygon fill="#ffffff" stroke="#000000" points="406,-38.5 406,-57.5 508,-57.5 508,-38.5 406,-38.5"/>
<text text-anchor="middle" x="457" y="-45.5" font-family="Helvetica,sans-Serif" font-size="10.00" fill="#000000">wifi_scan_done_cb</text>
</a>
</g>
</g>
<!-- Node426&#45;&gt;Node427 -->
<g id="edge3" class="edge">
<title>Node426&#45;&gt;Node427</title>
<path fill="none" stroke="#191970" d="M380.2074,-48C388.4431,-48 397.1259,-48 405.5722,-48"/>
<polygon fill="#191970" stroke="#191970" points="380.066,-44.5001 370.066,-48 380.0659,-51.5001 380.066,-44.5001"/>
</g>
<!-- Node428 -->
<g id="node5" class="node">
<title>Node428</title>
<g id="a_node5"><a xlink:href="wifi_8c.html#ae7011f25db54676b86fefe2caa450a4a" target="_top" xlink:title="wifi_scan_timer_func">
<polygon fill="#ffffff" stroke="#000000" points="544,-76.5 544,-95.5 654,-95.5 654,-76.5 544,-76.5"/>
<text text-anchor="middle" x="599" y="-83.5" font-family="Helvetica,sans-Serif" font-size="10.00" fill="#000000">wifi_scan_timer_func</text>
</a>
</g>
</g>
<!-- Node427&#45;&gt;Node428 -->
<g id="edge4" class="edge">
<title>Node427&#45;&gt;Node428</title>
<path fill="none" stroke="#191970" d="M502.4929,-60.1742C522.1284,-65.4287 544.7657,-71.4866 563.1789,-76.4141"/>
<polygon fill="#191970" stroke="#191970" points="503.3975,-56.7931 492.8326,-57.589 501.5879,-63.5552 503.3975,-56.7931"/>
</g>
<!-- Node429 -->
<g id="node6" class="node">
<title>Node429</title>
<g id="a_node6"><a xlink:href="wifi_8c.html#a5831b420da0012d53c979c375714d382" target="_top" xlink:title="wifi_start_scan">
<polygon fill="#ffffff" stroke="#000000" points="690,-38.5 690,-57.5 773,-57.5 773,-38.5 690,-38.5"/>
<text text-anchor="middle" x="731.5" y="-45.5" font-family="Helvetica,sans-Serif" font-size="10.00" fill="#000000">wifi_start_scan</text>
</a>
</g>
</g>
<!-- Node428&#45;&gt;Node429 -->
<g id="edge5" class="edge">
<title>Node428&#45;&gt;Node429</title>
<path fill="none" stroke="#191970" d="M642.2039,-73.6094C660.3492,-68.4055 681.1294,-62.4459 698.0754,-57.5859"/>
<polygon fill="#191970" stroke="#191970" points="641.0829,-70.2898 632.4353,-76.411 643.0127,-77.0185 641.0829,-70.2898"/>
</g>
<!-- Node429&#45;&gt;Node427 -->
<g id="edge6" class="edge">
<title>Node429&#45;&gt;Node427</title>
<path fill="none" stroke="#191970" d="M679.7692,-48C630.663,-48 557.2759,-48 508.3093,-48"/>
<polygon fill="#191970" stroke="#191970" points="679.8618,-51.5001 689.8618,-48 679.8618,-44.5001 679.8618,-51.5001"/>
</g>
<!-- Node429&#45;&gt;Node430 -->
<g id="edge7" class="edge">
<title>Node429&#45;&gt;Node430</title>
<path fill="none" stroke="#191970" d="M777.6722,-35.8157C797.6642,-30.54 820.7187,-24.4562 839.424,-19.5201"/>
<polygon fill="#191970" stroke="#191970" points="776.6132,-32.4752 767.8373,-38.411 778.3994,-39.2435 776.6132,-32.4752"/>
</g>
<!-- Node431 -->
<g id="node8" class="node">
<title>Node431</title>
<g id="a_node8"><a xlink:href="watchdog_8c.html#a47b6861ffbed37fef88aa644f10ba917" target="_top" xlink:title="wifi_reconnect_timer_func">
<polygon fill="#ffffff" stroke="#000000" points="809,-38.5 809,-57.5 942,-57.5 942,-38.5 809,-38.5"/>
<text text-anchor="middle" x="875.5" y="-45.5" font-family="Helvetica,sans-Serif" font-size="10.00" fill="#000000">wifi_reconnect_timer_func</text>
</a>
</g>
</g>
<!-- Node429&#45;&gt;Node431 -->
<g id="edge8" class="edge">
<title>Node429&#45;&gt;Node431</title>
<path fill="none" stroke="#191970" d="M783.4188,-48C791.7176,-48 800.4034,-48 808.9846,-48"/>
<polygon fill="#191970" stroke="#191970" points="783.1508,-44.5001 773.1508,-48 783.1507,-51.5001 783.1508,-44.5001"/>
</g>
<!-- Node432 -->
<g id="node9" class="node">
<title>Node432</title>
<g id="a_node9"><a xlink:href="watchdog_8c.html#aeb03c505b5b589ae4d89b2ae11dd1711" target="_top" xlink:title="watchdog_timer_func">
<polygon fill="#ffffff" stroke="#000000" points="978,-38.5 978,-57.5 1090,-57.5 1090,-38.5 978,-38.5"/>
<text text-anchor="middle" x="1034" y="-45.5" font-family="Helvetica,sans-Serif" font-size="10.00" fill="#000000">watchdog_timer_func</text>
</a>
</g>
</g>
<!-- Node431&#45;&gt;Node432 -->
<g id="edge9" class="edge">
<title>Node431&#45;&gt;Node432</title>
<path fill="none" stroke="#191970" d="M952.3189,-48C960.9243,-48 969.5679,-48 977.8435,-48"/>
<polygon fill="#191970" stroke="#191970" points="952.2589,-44.5001 942.2589,-48 952.2589,-51.5001 952.2589,-44.5001"/>
</g>
<!-- Node433 -->
<g id="node10" class="node">
<title>Node433</title>
<g id="a_node10"><a xlink:href="watchdog_8h.html#ab148f2150b52df5b60e312dded3a2934" target="_top" xlink:title="start_watchdog">
<polygon fill="#ffffff" stroke="#000000" points="1126,-38.5 1126,-57.5 1210,-57.5 1210,-38.5 1126,-38.5"/>
<text text-anchor="middle" x="1168" y="-45.5" font-family="Helvetica,sans-Serif" font-size="10.00" fill="#000000">start_watchdog</text>
</a>
</g>
</g>
<!-- Node432&#45;&gt;Node433 -->
<g id="edge10" class="edge">
<title>Node432&#45;&gt;Node433</title>
<path fill="none" stroke="#191970" d="M1100.1744,-48C1108.8343,-48 1117.5125,-48 1125.6303,-48"/>
<polygon fill="#191970" stroke="#191970" points="1100.0517,-44.5001 1090.0516,-48 1100.0516,-51.5001 1100.0517,-44.5001"/>
</g>
</g>
</svg>
