<?xml version="1.0" encoding="UTF-8" standalone="no"?>
<!DOCTYPE svg PUBLIC "-//W3C//DTD SVG 1.1//EN"
 "http://www.w3.org/Graphics/SVG/1.1/DTD/svg11.dtd">
<!-- Generated by graphviz version 2.40.1 (20161225.0304)
 -->
<!-- Title: divide_str_by_100 Pages: 1 -->
<svg width="582pt" height="88pt"
 viewBox="0.00 0.00 582.00 88.00" xmlns="http://www.w3.org/2000/svg" xmlns:xlink="http://www.w3.org/1999/xlink">
<g id="graph0" class="graph" transform="scale(1 1) rotate(0) translate(4 84)">
<title>divide_str_by_100</title>
<polygon fill="#ffffff" stroke="transparent" points="-4,4 -4,-84 578,-84 578,4 -4,4"/>
<!-- Node90 -->
<g id="node1" class="node">
<title>Node90</title>
<polygon fill="#bfbfbf" stroke="#000000" points="0,-30 0,-49 98,-49 98,-30 0,-30"/>
<text text-anchor="middle" x="49" y="-37" font-family="Helvetica,sans-Serif" font-size="10.00" fill="#000000">divide_str_by_100</text>
</g>
<!-- Node91 -->
<g id="node2" class="node">
<title>Node91</title>
<g id="a_node2"><a xlink:href="en61107_8h.html#af624e427f5989ad2a68e1ce0bc4a7358" target="_top" xlink:title="parse_mc66cde_inst\l_values_frame">
<polygon fill="#ffffff" stroke="#000000" points="145.5,-49.5 145.5,-79.5 254.5,-79.5 254.5,-49.5 145.5,-49.5"/>
<text text-anchor="start" x="153.5" y="-67.5" font-family="Helvetica,sans-Serif" font-size="10.00" fill="#000000">parse_mc66cde_inst</text>
<text text-anchor="middle" x="200" y="-56.5" font-family="Helvetica,sans-Serif" font-size="10.00" fill="#000000">_values_frame</text>
</a>
</g>
</g>
<!-- Node90&#45;&gt;Node91 -->
<g id="edge1" class="edge">
<title>Node90&#45;&gt;Node91</title>
<path fill="none" stroke="#191970" d="M108.1752,-49.2972C120.4642,-51.3318 133.3593,-53.4668 145.4722,-55.4722"/>
<polygon fill="#191970" stroke="#191970" points="108.4628,-45.7973 98.0254,-47.6168 107.3194,-52.7033 108.4628,-45.7973"/>
</g>
<!-- Node94 -->
<g id="node5" class="node">
<title>Node94</title>
<g id="a_node5"><a xlink:href="en61107_8h.html#a5a71fa85ca3ccb0abfcb8f122affbbdd" target="_top" xlink:title="parse_mc66cde_standard\l_data_1_frame">
<polygon fill="#ffffff" stroke="#000000" points="134,-.5 134,-30.5 266,-30.5 266,-.5 134,-.5"/>
<text text-anchor="start" x="142" y="-18.5" font-family="Helvetica,sans-Serif" font-size="10.00" fill="#000000">parse_mc66cde_standard</text>
<text text-anchor="middle" x="200" y="-7.5" font-family="Helvetica,sans-Serif" font-size="10.00" fill="#000000">_data_1_frame</text>
</a>
</g>
</g>
<!-- Node90&#45;&gt;Node94 -->
<g id="edge4" class="edge">
<title>Node90&#45;&gt;Node94</title>
<path fill="none" stroke="#191970" d="M108.1605,-30.097C116.611,-28.7539 125.3484,-27.3652 133.9211,-26.0026"/>
<polygon fill="#191970" stroke="#191970" points="107.352,-26.6815 98.0254,-31.7079 108.4508,-33.5947 107.352,-26.6815"/>
</g>
<!-- Node92 -->
<g id="node3" class="node">
<title>Node92</title>
<g id="a_node3"><a xlink:href="en61107__request_8c.html#aa3b162cf5364986ea19e831ac2b18f76" target="_top" xlink:title="en61107_received_task">
<polygon fill="#ffffff" stroke="#000000" points="302,-30 302,-49 425,-49 425,-30 302,-30"/>
<text text-anchor="middle" x="363.5" y="-37" font-family="Helvetica,sans-Serif" font-size="10.00" fill="#000000">en61107_received_task</text>
</a>
</g>
</g>
<!-- Node91&#45;&gt;Node92 -->
<g id="edge2" class="edge">
<title>Node91&#45;&gt;Node92</title>
<path fill="none" stroke="#191970" d="M264.9942,-54.562C277.1892,-52.6974 289.9039,-50.7532 301.9889,-48.9054"/>
<polygon fill="#191970" stroke="#191970" points="264.254,-51.1345 254.898,-56.1058 265.3121,-58.054 264.254,-51.1345"/>
</g>
<!-- Node93 -->
<g id="node4" class="node">
<title>Node93</title>
<g id="a_node4"><a xlink:href="en61107__request_8h.html#acd43242675a3f25e7c3b530eac9d8b3a" target="_top" xlink:title="en61107_request_init">
<polygon fill="#ffffff" stroke="#000000" points="461,-30 461,-49 574,-49 574,-30 461,-30"/>
<text text-anchor="middle" x="517.5" y="-37" font-family="Helvetica,sans-Serif" font-size="10.00" fill="#000000">en61107_request_init</text>
</a>
</g>
</g>
<!-- Node92&#45;&gt;Node93 -->
<g id="edge3" class="edge">
<title>Node92&#45;&gt;Node93</title>
<path fill="none" stroke="#191970" d="M435.5049,-39.5C443.9673,-39.5 452.5105,-39.5 460.7234,-39.5"/>
<polygon fill="#191970" stroke="#191970" points="435.2504,-36.0001 425.2504,-39.5 435.2503,-43.0001 435.2504,-36.0001"/>
</g>
<!-- Node94&#45;&gt;Node92 -->
<g id="edge5" class="edge">
<title>Node94&#45;&gt;Node92</title>
<path fill="none" stroke="#191970" d="M276.1366,-26.676C284.7985,-27.9475 293.5449,-29.2314 301.9843,-30.4702"/>
<polygon fill="#191970" stroke="#191970" points="276.4327,-23.1821 266.0304,-25.1925 275.4161,-30.1078 276.4327,-23.1821"/>
</g>
</g>
</svg>
