<?xml version="1.0" encoding="UTF-8" standalone="no"?>
<!DOCTYPE svg PUBLIC "-//W3C//DTD SVG 1.1//EN"
 "http://www.w3.org/Graphics/SVG/1.1/DTD/svg11.dtd">
<!-- Generated by graphviz version 2.39.20160927.1334 (20160927.1334)
 -->
<!-- Title: user/utils.h Pages: 1 -->
<svg width="513pt" height="84pt"
 viewBox="0.00 0.00 513.00 84.00" xmlns="http://www.w3.org/2000/svg" xmlns:xlink="http://www.w3.org/1999/xlink">
<g id="graph0" class="graph" transform="scale(1 1) rotate(0) translate(4 80)">
<title>user/utils.h</title>
<polygon fill="#ffffff" stroke="transparent" points="-4,4 -4,-80 509,-80 509,4 -4,4"/>
<!-- Node1 -->
<g id="node1" class="node">
<title>Node1</title>
<polygon fill="#bfbfbf" stroke="#000000" points="224.5,-56.5 224.5,-75.5 289.5,-75.5 289.5,-56.5 224.5,-56.5"/>
<text text-anchor="middle" x="257" y="-63.5" font-family="Helvetica,sans-Serif" font-size="10.00" fill="#000000">user/utils.h</text>
</g>
<!-- Node2 -->
<g id="node2" class="node">
<title>Node2</title>
<g id="a_node2"><a xlink:href="config_8c.html" target="_top" xlink:title="modules/config.c">
<polygon fill="#ffffff" stroke="#000000" points="0,-0.5 0,-19.5 92,-19.5 92,-0.5 0,-0.5"/>
<text text-anchor="middle" x="46" y="-7.5" font-family="Helvetica,sans-Serif" font-size="10.00" fill="#000000">modules/config.c</text>
</a>
</g>
</g>
<!-- Node1&#45;&gt;Node2 -->
<g id="edge1" class="edge">
<title>Node1&#45;&gt;Node2</title>
<path fill="none" stroke="#191970" d="M214.534,-54.7295C175.672,-44.4153 118.792,-29.3193 82.0802,-19.5758"/>
<polygon fill="#191970" stroke="#191970" points="213.93,-58.1903 224.494,-57.3727 215.726,-51.4245 213.93,-58.1903"/>
</g>
<!-- Node3 -->
<g id="node3" class="node">
<title>Node3</title>
<g id="a_node3"><a xlink:href="cgiwifi_8c.html" target="_top" xlink:title="user/cgiwifi.c">
<polygon fill="#ffffff" stroke="#000000" points="110,-0.5 110,-19.5 184,-19.5 184,-0.5 110,-0.5"/>
<text text-anchor="middle" x="147" y="-7.5" font-family="Helvetica,sans-Serif" font-size="10.00" fill="#000000">user/cgiwifi.c</text>
</a>
</g>
</g>
<!-- Node1&#45;&gt;Node3 -->
<g id="edge2" class="edge">
<title>Node1&#45;&gt;Node3</title>
<path fill="none" stroke="#191970" d="M228.709,-51.5971C208.989,-41.558 183.22,-28.4393 165.941,-19.6427"/>
<polygon fill="#191970" stroke="#191970" points="227.34,-54.8277 237.839,-56.2455 230.516,-48.5896 227.34,-54.8277"/>
</g>
<!-- Node4 -->
<g id="node4" class="node">
<title>Node4</title>
<g id="a_node4"><a xlink:href="kmp_8c.html" target="_top" xlink:title="user/kamstrup/kmp.c">
<polygon fill="#ffffff" stroke="#000000" points="202.5,-0.5 202.5,-19.5 311.5,-19.5 311.5,-0.5 202.5,-0.5"/>
<text text-anchor="middle" x="257" y="-7.5" font-family="Helvetica,sans-Serif" font-size="10.00" fill="#000000">user/kamstrup/kmp.c</text>
</a>
</g>
</g>
<!-- Node1&#45;&gt;Node4 -->
<g id="edge3" class="edge">
<title>Node1&#45;&gt;Node4</title>
<path fill="none" stroke="#191970" d="M257,-46.1575C257,-37.155 257,-26.9199 257,-19.6427"/>
<polygon fill="#191970" stroke="#191970" points="253.5,-46.2455 257,-56.2455 260.5,-46.2456 253.5,-46.2455"/>
</g>
<!-- Node5 -->
<g id="node5" class="node">
<title>Node5</title>
<g id="a_node5"><a xlink:href="user__main_8c.html" target="_top" xlink:title="user/user_main.c">
<polygon fill="#ffffff" stroke="#000000" points="329.5,-0.5 329.5,-19.5 422.5,-19.5 422.5,-0.5 329.5,-0.5"/>
<text text-anchor="middle" x="376" y="-7.5" font-family="Helvetica,sans-Serif" font-size="10.00" fill="#000000">user/user_main.c</text>
</a>
</g>
</g>
<!-- Node1&#45;&gt;Node5 -->
<g id="edge4" class="edge">
<title>Node1&#45;&gt;Node5</title>
<path fill="none" stroke="#191970" d="M286.514,-52.1109C308.094,-41.9559 336.798,-28.4482 355.81,-19.5011"/>
<polygon fill="#191970" stroke="#191970" points="285.015,-48.9484 277.457,-56.3733 287.995,-55.2821 285.015,-48.9484"/>
</g>
<!-- Node6 -->
<g id="node6" class="node">
<title>Node6</title>
<g id="a_node6"><a xlink:href="utils_8c.html" target="_top" xlink:title="user/utils.c">
<polygon fill="#ffffff" stroke="#000000" points="441,-0.5 441,-19.5 505,-19.5 505,-0.5 441,-0.5"/>
<text text-anchor="middle" x="473" y="-7.5" font-family="Helvetica,sans-Serif" font-size="10.00" fill="#000000">user/utils.c</text>
</a>
</g>
</g>
<!-- Node1&#45;&gt;Node6 -->
<g id="edge5" class="edge">
<title>Node1&#45;&gt;Node6</title>
<path fill="none" stroke="#191970" d="M299.637,-54.946C341.191,-44.1727 403.439,-28.0344 440.945,-18.3106"/>
<polygon fill="#191970" stroke="#191970" points="298.607,-51.5971 289.806,-57.4948 300.364,-58.3731 298.607,-51.5971"/>
</g>
</g>
</svg>
