<?xml version="1.0" encoding="UTF-8" standalone="no"?>
<!DOCTYPE svg PUBLIC "-//W3C//DTD SVG 1.1//EN"
 "http://www.w3.org/Graphics/SVG/1.1/DTD/svg11.dtd">
<!-- Generated by graphviz version 2.39.20160927.1334 (20160927.1334)
 -->
<!-- Title: divide_str_by_10 Pages: 1 -->
<svg width="592pt" height="294pt"
 viewBox="0.00 0.00 592.00 294.00" xmlns="http://www.w3.org/2000/svg" xmlns:xlink="http://www.w3.org/1999/xlink">
<g id="graph0" class="graph" transform="scale(1 1) rotate(0) translate(4 290)">
<title>divide_str_by_10</title>
<polygon fill="#ffffff" stroke="transparent" points="-4,4 -4,-290 588,-290 588,4 -4,4"/>
<!-- Node1 -->
<g id="node1" class="node">
<title>Node1</title>
<polygon fill="#bfbfbf" stroke="#000000" points="0,-171.5 0,-190.5 92,-190.5 92,-171.5 0,-171.5"/>
<text text-anchor="middle" x="46" y="-178.5" font-family="Helvetica,sans-Serif" font-size="10.00" fill="#000000">divide_str_by_10</text>
</g>
<!-- Node2 -->
<g id="node2" class="node">
<title>Node2</title>
<g id="a_node2"><a xlink:href="espmissingincludes_8h.html#ad228deceea1bac4d9f171f647c265059" target="_top" xlink:title="atoi">
<polygon fill="#ffffff" stroke="#000000" points="144.5,-190.5 144.5,-209.5 177.5,-209.5 177.5,-190.5 144.5,-190.5"/>
<text text-anchor="middle" x="161" y="-197.5" font-family="Helvetica,sans-Serif" font-size="10.00" fill="#000000">atoi</text>
</a>
</g>
</g>
<!-- Node1&#45;&gt;Node2 -->
<g id="edge1" class="edge">
<title>Node1&#45;&gt;Node2</title>
<path fill="none" stroke="#191970" d="M92.1123,-188.619C106.418,-190.982 121.704,-193.508 134.233,-195.578"/>
<polygon fill="#191970" stroke="#191970" points="134.002,-199.087 144.439,-197.264 135.143,-192.181 134.002,-199.087"/>
</g>
<!-- Node3 -->
<g id="node3" class="node">
<title>Node3</title>
<g id="a_node3"><a xlink:href="tinyprintf_8c.html#a9738cbc6c538d210941db282e240c7d6" target="_top" xlink:title="tfp_snprintf">
<polygon fill="#ffffff" stroke="#000000" points="128,-152.5 128,-171.5 194,-171.5 194,-152.5 128,-152.5"/>
<text text-anchor="middle" x="161" y="-159.5" font-family="Helvetica,sans-Serif" font-size="10.00" fill="#000000">tfp_snprintf</text>
</a>
</g>
</g>
<!-- Node1&#45;&gt;Node3 -->
<g id="edge2" class="edge">
<title>Node1&#45;&gt;Node3</title>
<path fill="none" stroke="#191970" d="M92.1123,-173.381C100.642,-171.972 109.52,-170.505 117.954,-169.112"/>
<polygon fill="#191970" stroke="#191970" points="118.673,-172.541 127.969,-167.457 117.532,-165.634 118.673,-172.541"/>
</g>
<!-- Node4 -->
<g id="node4" class="node">
<title>Node4</title>
<g id="a_node4"><a xlink:href="tinyprintf_8c.html#ac8c8a66133cf0d7009c0d73b55311a44" target="_top" xlink:title="tfp_vsnprintf">
<polygon fill="#ffffff" stroke="#000000" points="230,-152.5 230,-171.5 301,-171.5 301,-152.5 230,-152.5"/>
<text text-anchor="middle" x="265.5" y="-159.5" font-family="Helvetica,sans-Serif" font-size="10.00" fill="#000000">tfp_vsnprintf</text>
</a>
</g>
</g>
<!-- Node3&#45;&gt;Node4 -->
<g id="edge3" class="edge">
<title>Node3&#45;&gt;Node4</title>
<path fill="none" stroke="#191970" d="M194.064,-162C202.142,-162 210.929,-162 219.49,-162"/>
<polygon fill="#191970" stroke="#191970" points="219.756,-165.5 229.756,-162 219.756,-158.5 219.756,-165.5"/>
</g>
<!-- Node5 -->
<g id="node5" class="node">
<title>Node5</title>
<g id="a_node5"><a xlink:href="tinyprintf_8c.html#a919051024b2d729e34a54648b3f2462d" target="_top" xlink:title="_vsnprintf_putcf">
<polygon fill="#ffffff" stroke="#000000" points="337,-171.5 337,-190.5 424,-190.5 424,-171.5 337,-171.5"/>
<text text-anchor="middle" x="380.5" y="-178.5" font-family="Helvetica,sans-Serif" font-size="10.00" fill="#000000">_vsnprintf_putcf</text>
</a>
</g>
</g>
<!-- Node4&#45;&gt;Node5 -->
<g id="edge4" class="edge">
<title>Node4&#45;&gt;Node5</title>
<path fill="none" stroke="#191970" d="M301.256,-167.908C309.313,-169.239 318.037,-170.68 326.651,-172.103"/>
<polygon fill="#191970" stroke="#191970" points="326.23,-175.581 336.667,-173.758 327.371,-168.675 326.23,-175.581"/>
</g>
<!-- Node6 -->
<g id="node6" class="node">
<title>Node6</title>
<g id="a_node6"><a xlink:href="tinyprintf_8c.html#a5877e42444463efc71a91b5fe76a6145" target="_top" xlink:title="tfp_format">
<polygon fill="#ffffff" stroke="#000000" points="349.5,-133.5 349.5,-152.5 411.5,-152.5 411.5,-133.5 349.5,-133.5"/>
<text text-anchor="middle" x="380.5" y="-140.5" font-family="Helvetica,sans-Serif" font-size="10.00" fill="#000000">tfp_format</text>
</a>
</g>
</g>
<!-- Node4&#45;&gt;Node6 -->
<g id="edge5" class="edge">
<title>Node4&#45;&gt;Node6</title>
<path fill="none" stroke="#191970" d="M301.256,-156.092C313.31,-154.101 326.859,-151.862 339.298,-149.807"/>
<polygon fill="#191970" stroke="#191970" points="340.133,-153.217 349.429,-148.133 338.992,-146.31 340.133,-153.217"/>
</g>
<!-- Node7 -->
<g id="node7" class="node">
<title>Node7</title>
<g id="a_node7"><a xlink:href="tinyprintf_8c.html#aa97593a5e53af85b608ad0910db92d77" target="_top" xlink:title="a2u">
<polygon fill="#ffffff" stroke="#000000" points="467.5,-266.5 467.5,-285.5 500.5,-285.5 500.5,-266.5 467.5,-266.5"/>
<text text-anchor="middle" x="484" y="-273.5" font-family="Helvetica,sans-Serif" font-size="10.00" fill="#000000">a2u</text>
</a>
</g>
</g>
<!-- Node6&#45;&gt;Node7 -->
<g id="edge6" class="edge">
<title>Node6&#45;&gt;Node7</title>
<path fill="none" stroke="#191970" d="M411.068,-152.584C415.827,-155.081 420.364,-158.179 424,-162 455.126,-194.709 433.337,-220.561 460,-257 460.549,-257.751 461.135,-258.487 461.751,-259.209"/>
<polygon fill="#191970" stroke="#191970" points="459.483,-261.883 469.126,-266.272 464.325,-256.827 459.483,-261.883"/>
</g>
<!-- Node9 -->
<g id="node9" class="node">
<title>Node9</title>
<g id="a_node9"><a xlink:href="tinyprintf_8c.html#a90f9fd8f2133cda7f50be8d67823405c" target="_top" xlink:title="i2a">
<polygon fill="#ffffff" stroke="#000000" points="469,-228.5 469,-247.5 499,-247.5 499,-228.5 469,-228.5"/>
<text text-anchor="middle" x="484" y="-235.5" font-family="Helvetica,sans-Serif" font-size="10.00" fill="#000000">i2a</text>
</a>
</g>
</g>
<!-- Node6&#45;&gt;Node9 -->
<g id="edge8" class="edge">
<title>Node6&#45;&gt;Node9</title>
<path fill="none" stroke="#191970" d="M408.967,-152.71C414.275,-155.253 419.545,-158.335 424,-162 445.705,-179.861 441.989,-192.419 460,-214 461.911,-216.29 464.005,-218.613 466.135,-220.867"/>
<polygon fill="#191970" stroke="#191970" points="463.778,-223.461 473.299,-228.109 468.755,-218.538 463.778,-223.461"/>
</g>
<!-- Node10 -->
<g id="node10" class="node">
<title>Node10</title>
<g id="a_node10"><a xlink:href="tinyprintf_8c.html#ac87ff66a592723f55692eaf8e3f19df8" target="_top" xlink:title="ui2a">
<polygon fill="#ffffff" stroke="#000000" points="546.5,-209.5 546.5,-228.5 581.5,-228.5 581.5,-209.5 546.5,-209.5"/>
<text text-anchor="middle" x="564" y="-216.5" font-family="Helvetica,sans-Serif" font-size="10.00" fill="#000000">ui2a</text>
</a>
</g>
</g>
<!-- Node6&#45;&gt;Node10 -->
<g id="edge15" class="edge">
<title>Node6&#45;&gt;Node10</title>
<path fill="none" stroke="#191970" d="M403.221,-152.548C409.957,-155.479 417.317,-158.782 424,-162 440.301,-169.848 443.466,-173.657 460,-181 485.515,-192.332 515.553,-203.037 536.769,-210.179"/>
<polygon fill="#191970" stroke="#191970" points="535.824,-213.553 546.417,-213.386 538.032,-206.91 535.824,-213.553"/>
</g>
<!-- Node11 -->
<g id="node11" class="node">
<title>Node11</title>
<g id="a_node11"><a xlink:href="tinyprintf_8c.html#afebb7696337c3f599b5e8db35c560684" target="_top" xlink:title="li2a">
<polygon fill="#ffffff" stroke="#000000" points="468,-152.5 468,-171.5 500,-171.5 500,-152.5 468,-152.5"/>
<text text-anchor="middle" x="484" y="-159.5" font-family="Helvetica,sans-Serif" font-size="10.00" fill="#000000">li2a</text>
</a>
</g>
</g>
<!-- Node6&#45;&gt;Node11 -->
<g id="edge10" class="edge">
<title>Node6&#45;&gt;Node11</title>
<path fill="none" stroke="#191970" d="M411.553,-148.701C426.358,-151.418 443.867,-154.633 457.964,-157.22"/>
<polygon fill="#191970" stroke="#191970" points="457.509,-160.695 467.977,-159.059 458.773,-153.81 457.509,-160.695"/>
</g>
<!-- Node12 -->
<g id="node12" class="node">
<title>Node12</title>
<g id="a_node12"><a xlink:href="tinyprintf_8c.html#a1d61347854a8c290d59b4a21efcefd75" target="_top" xlink:title="uli2a">
<polygon fill="#ffffff" stroke="#000000" points="545,-123.5 545,-142.5 583,-142.5 583,-123.5 545,-123.5"/>
<text text-anchor="middle" x="564" y="-130.5" font-family="Helvetica,sans-Serif" font-size="10.00" fill="#000000">uli2a</text>
</a>
</g>
</g>
<!-- Node6&#45;&gt;Node12 -->
<g id="edge16" class="edge">
<title>Node6&#45;&gt;Node12</title>
<path fill="none" stroke="#191970" d="M411.628,-141.304C446.044,-139.428 501.057,-136.43 534.715,-134.596"/>
<polygon fill="#191970" stroke="#191970" points="535.045,-138.083 544.84,-134.044 534.664,-131.094 535.045,-138.083"/>
</g>
<!-- Node13 -->
<g id="node13" class="node">
<title>Node13</title>
<g id="a_node13"><a xlink:href="tinyprintf_8c.html#a49c6d2b3d4088012f2c1fe344eef69f3" target="_top" xlink:title="lli2a">
<polygon fill="#ffffff" stroke="#000000" points="467,-76.5 467,-95.5 501,-95.5 501,-76.5 467,-76.5"/>
<text text-anchor="middle" x="484" y="-83.5" font-family="Helvetica,sans-Serif" font-size="10.00" fill="#000000">lli2a</text>
</a>
</g>
</g>
<!-- Node6&#45;&gt;Node13 -->
<g id="edge12" class="edge">
<title>Node6&#45;&gt;Node13</title>
<path fill="none" stroke="#191970" d="M398.057,-133.331C414.438,-124.31 439.091,-110.733 457.798,-100.43"/>
<polygon fill="#191970" stroke="#191970" points="459.631,-103.416 466.702,-95.5265 456.254,-97.2848 459.631,-103.416"/>
</g>
<!-- Node14 -->
<g id="node14" class="node">
<title>Node14</title>
<g id="a_node14"><a xlink:href="tinyprintf_8c.html#abcf035dd576671b0cc897de9dd8c75b0" target="_top" xlink:title="ulli2a">
<polygon fill="#ffffff" stroke="#000000" points="544,-66.5 544,-85.5 584,-85.5 584,-66.5 544,-66.5"/>
<text text-anchor="middle" x="564" y="-73.5" font-family="Helvetica,sans-Serif" font-size="10.00" fill="#000000">ulli2a</text>
</a>
</g>
</g>
<!-- Node6&#45;&gt;Node14 -->
<g id="edge17" class="edge">
<title>Node6&#45;&gt;Node14</title>
<path fill="none" stroke="#191970" d="M386.727,-133.415C398.557,-116.2 426.151,-80.5765 460,-67 483.562,-57.5496 512.477,-61.136 533.832,-66.3217"/>
<polygon fill="#191970" stroke="#191970" points="533.087,-69.7454 543.652,-68.9458 534.894,-62.9827 533.087,-69.7454"/>
</g>
<!-- Node15 -->
<g id="node15" class="node">
<title>Node15</title>
<g id="a_node15"><a xlink:href="tinyprintf_8c.html#a6252dbfebb2c8783c4e3107d551082dd" target="_top" xlink:title="putchw">
<polygon fill="#ffffff" stroke="#000000" points="460,-0.5 460,-19.5 508,-19.5 508,-0.5 460,-0.5"/>
<text text-anchor="middle" x="484" y="-7.5" font-family="Helvetica,sans-Serif" font-size="10.00" fill="#000000">putchw</text>
</a>
</g>
</g>
<!-- Node6&#45;&gt;Node15 -->
<g id="edge14" class="edge">
<title>Node6&#45;&gt;Node15</title>
<path fill="none" stroke="#191970" d="M386.832,-133.294C399.722,-113.782 430.306,-68.703 460,-34 461.939,-31.7334 464.05,-29.4247 466.189,-27.1792"/>
<polygon fill="#191970" stroke="#191970" points="468.808,-29.5088 473.359,-19.9412 463.835,-24.5825 468.808,-29.5088"/>
</g>
<!-- Node8 -->
<g id="node8" class="node">
<title>Node8</title>
<g id="a_node8"><a xlink:href="tinyprintf_8c.html#aa853a0c5ba64fa2546d488b86192e7e3" target="_top" xlink:title="a2d">
<polygon fill="#ffffff" stroke="#000000" points="547.5,-266.5 547.5,-285.5 580.5,-285.5 580.5,-266.5 547.5,-266.5"/>
<text text-anchor="middle" x="564" y="-273.5" font-family="Helvetica,sans-Serif" font-size="10.00" fill="#000000">a2d</text>
</a>
</g>
</g>
<!-- Node7&#45;&gt;Node8 -->
<g id="edge7" class="edge">
<title>Node7&#45;&gt;Node8</title>
<path fill="none" stroke="#191970" d="M500.576,-276C511.195,-276 525.215,-276 537.373,-276"/>
<polygon fill="#191970" stroke="#191970" points="537.445,-279.5 547.445,-276 537.445,-272.5 537.445,-279.5"/>
</g>
<!-- Node9&#45;&gt;Node10 -->
<g id="edge9" class="edge">
<title>Node9&#45;&gt;Node10</title>
<path fill="none" stroke="#191970" d="M499.047,-234.426C509.514,-231.94 523.776,-228.553 536.27,-225.586"/>
<polygon fill="#191970" stroke="#191970" points="537.306,-228.937 546.227,-223.221 535.689,-222.127 537.306,-228.937"/>
</g>
<!-- Node11&#45;&gt;Node12 -->
<g id="edge11" class="edge">
<title>Node11&#45;&gt;Node12</title>
<path fill="none" stroke="#191970" d="M500.189,-156.131C510.248,-152.485 523.465,-147.694 535.26,-143.418"/>
<polygon fill="#191970" stroke="#191970" points="536.524,-146.683 544.733,-139.984 534.139,-140.102 536.524,-146.683"/>
</g>
<!-- Node13&#45;&gt;Node14 -->
<g id="edge13" class="edge">
<title>Node13&#45;&gt;Node14</title>
<path fill="none" stroke="#191970" d="M501.359,-83.8301C510.831,-82.6461 522.829,-81.1463 533.784,-79.777"/>
<polygon fill="#191970" stroke="#191970" points="534.363,-83.232 543.851,-78.5186 533.494,-76.286 534.363,-83.232"/>
</g>
</g>
</svg>
