<?xml version="1.0" encoding="UTF-8" standalone="no"?>
<!DOCTYPE svg PUBLIC "-//W3C//DTD SVG 1.1//EN"
 "http://www.w3.org/Graphics/SVG/1.1/DTD/svg11.dtd">
<!-- Generated by graphviz version 2.41.20170323.1842 (20170323.1842)
 -->
<!-- Title: int_pow Pages: 1 -->
<svg width="542pt" height="148pt"
 viewBox="0.00 0.00 542.00 147.50" xmlns="http://www.w3.org/2000/svg" xmlns:xlink="http://www.w3.org/1999/xlink">
<g id="graph0" class="graph" transform="scale(1 1) rotate(0) translate(4 143.5)">
<title>int_pow</title>
<polygon fill="#ffffff" stroke="transparent" points="-4,4 -4,-143.5 538,-143.5 538,4 -4,4"/>
<!-- Node94 -->
<g id="node1" class="node">
<title>Node94</title>
<polygon fill="#bfbfbf" stroke="#000000" points="0,-82 0,-101 51,-101 51,-82 0,-82"/>
<text text-anchor="middle" x="25.5" y="-89" font-family="Helvetica,sans-Serif" font-size="10.00" fill="#000000">int_pow</text>
</g>
<!-- Node95 -->
<g id="node2" class="node">
<title>Node95</title>
<g id="a_node2"><a xlink:href="kmp_8h.html#a83db0c848aad4c3a39851c39ab91cbff" target="_top" xlink:title="kmp_value_to_double">
<polygon fill="#ffffff" stroke="#000000" points="87,-120 87,-139 201,-139 201,-120 87,-120"/>
<text text-anchor="middle" x="144" y="-127" font-family="Helvetica,sans-Serif" font-size="10.00" fill="#000000">kmp_value_to_double</text>
</a>
</g>
</g>
<!-- Node94&#45;&gt;Node95 -->
<g id="edge1" class="edge">
<title>Node94&#45;&gt;Node95</title>
<path fill="none" stroke="#191970" d="M60.798,-102.8192C77.7891,-108.2678 97.94,-114.7297 114.1548,-119.9294"/>
<polygon fill="#191970" stroke="#191970" points="61.8039,-99.4663 51.2127,-99.7454 59.6663,-106.1319 61.8039,-99.4663"/>
</g>
<!-- Node96 -->
<g id="node3" class="node">
<title>Node96</title>
<g id="a_node3"><a xlink:href="kmp_8h.html#aa1bdc213acbcb756d20dcf63d5cd387d" target="_top" xlink:title="kmp_value_to_string">
<polygon fill="#ffffff" stroke="#000000" points="89.5,-82 89.5,-101 198.5,-101 198.5,-82 89.5,-82"/>
<text text-anchor="middle" x="144" y="-89" font-family="Helvetica,sans-Serif" font-size="10.00" fill="#000000">kmp_value_to_string</text>
</a>
</g>
</g>
<!-- Node94&#45;&gt;Node96 -->
<g id="edge2" class="edge">
<title>Node94&#45;&gt;Node96</title>
<path fill="none" stroke="#191970" d="M61.4229,-91.5C70.1747,-91.5 79.7346,-91.5 89.1457,-91.5"/>
<polygon fill="#191970" stroke="#191970" points="61.2128,-88.0001 51.2127,-91.5 61.2127,-95.0001 61.2128,-88.0001"/>
</g>
<!-- Node100 -->
<g id="node7" class="node">
<title>Node100</title>
<g id="a_node7"><a xlink:href="utils_8h.html#a84a001f12bbadea0d207701a1dfd63fa" target="_top" xlink:title="kw_to_w_str">
<polygon fill="#ffffff" stroke="#000000" points="108,-44 108,-63 180,-63 180,-44 108,-44"/>
<text text-anchor="middle" x="144" y="-51" font-family="Helvetica,sans-Serif" font-size="10.00" fill="#000000">kw_to_w_str</text>
</a>
</g>
</g>
<!-- Node94&#45;&gt;Node100 -->
<g id="edge6" class="edge">
<title>Node94&#45;&gt;Node100</title>
<path fill="none" stroke="#191970" d="M60.798,-80.1808C77.7891,-74.7322 97.94,-68.2703 114.1548,-63.0706"/>
<polygon fill="#191970" stroke="#191970" points="59.6663,-76.8681 51.2127,-83.2546 61.8039,-83.5337 59.6663,-76.8681"/>
</g>
<!-- Node97 -->
<g id="node4" class="node">
<title>Node97</title>
<g id="a_node4"><a xlink:href="kmp__request_8h.html#a38fdfecab4840fcd8b3c3074e715cf60" target="_top" xlink:title="kmp_get_received_energy_kwh">
<polygon fill="#ffffff" stroke="#000000" points="376,-66 376,-85 534,-85 534,-66 376,-66"/>
<text text-anchor="middle" x="455" y="-73" font-family="Helvetica,sans-Serif" font-size="10.00" fill="#000000">kmp_get_received_energy_kwh</text>
</a>
</g>
</g>
<!-- Node96&#45;&gt;Node97 -->
<g id="edge3" class="edge">
<title>Node96&#45;&gt;Node97</title>
<path fill="none" stroke="#191970" d="M208.6162,-88.1757C257.2483,-85.6737 324.1539,-82.2316 375.9733,-79.5657"/>
<polygon fill="#191970" stroke="#191970" points="208.3349,-84.6854 198.5279,-88.6947 208.6946,-91.6762 208.3349,-84.6854"/>
</g>
<!-- Node98 -->
<g id="node5" class="node">
<title>Node98</title>
<g id="a_node5"><a xlink:href="kmp__request_8c.html#a3f6b790a06b933b78f40ade5e9a16131" target="_top" xlink:title="kmp_received_task">
<polygon fill="#ffffff" stroke="#000000" points="237,-120 237,-139 340,-139 340,-120 237,-120"/>
<text text-anchor="middle" x="288.5" y="-127" font-family="Helvetica,sans-Serif" font-size="10.00" fill="#000000">kmp_received_task</text>
</a>
</g>
</g>
<!-- Node96&#45;&gt;Node98 -->
<g id="edge4" class="edge">
<title>Node96&#45;&gt;Node98</title>
<path fill="none" stroke="#191970" d="M190.3325,-103.6843C210.3939,-108.96 233.5285,-115.0438 252.2988,-119.9799"/>
<polygon fill="#191970" stroke="#191970" points="191.0248,-100.2474 180.4635,-101.089 189.2445,-107.0173 191.0248,-100.2474"/>
</g>
<!-- Node99 -->
<g id="node6" class="node">
<title>Node99</title>
<g id="a_node6"><a xlink:href="kmp__request_8h.html#a048753ff9d6b448e2dcd8c85db0d6873" target="_top" xlink:title="kmp_request_init">
<polygon fill="#ffffff" stroke="#000000" points="408.5,-120 408.5,-139 501.5,-139 501.5,-120 408.5,-120"/>
<text text-anchor="middle" x="455" y="-127" font-family="Helvetica,sans-Serif" font-size="10.00" fill="#000000">kmp_request_init</text>
</a>
</g>
</g>
<!-- Node98&#45;&gt;Node99 -->
<g id="edge5" class="edge">
<title>Node98&#45;&gt;Node99</title>
<path fill="none" stroke="#191970" d="M350.4249,-129.5C369.6001,-129.5 390.3937,-129.5 408.3506,-129.5"/>
<polygon fill="#191970" stroke="#191970" points="350.269,-126.0001 340.269,-129.5 350.2689,-133.0001 350.269,-126.0001"/>
</g>
<!-- Node101 -->
<g id="node8" class="node">
<title>Node101</title>
<g id="a_node8"><a xlink:href="cgiwifi_8h.html#a7c655a56f56ecebad923c5c4daeb7f1a" target="_top" xlink:title="cgiSetup">
<polygon fill="#ffffff" stroke="#000000" points="261,-44 261,-63 316,-63 316,-44 261,-44"/>
<text text-anchor="middle" x="288.5" y="-51" font-family="Helvetica,sans-Serif" font-size="10.00" fill="#000000">cgiSetup</text>
</a>
</g>
</g>
<!-- Node100&#45;&gt;Node101 -->
<g id="edge7" class="edge">
<title>Node100&#45;&gt;Node101</title>
<path fill="none" stroke="#191970" d="M190.3842,-53.5C213.4998,-53.5 240.685,-53.5 260.5707,-53.5"/>
<polygon fill="#191970" stroke="#191970" points="190.0907,-50.0001 180.0907,-53.5 190.0907,-57.0001 190.0907,-50.0001"/>
</g>
<!-- Node102 -->
<g id="node9" class="node">
<title>Node102</title>
<g id="a_node9"><a xlink:href="utils_8h.html#a06225dd8f535bfef3e645bbef8de5df8" target="_top" xlink:title="mw_to_w_str">
<polygon fill="#ffffff" stroke="#000000" points="251,-6 251,-25 326,-25 326,-6 251,-6"/>
<text text-anchor="middle" x="288.5" y="-13" font-family="Helvetica,sans-Serif" font-size="10.00" fill="#000000">mw_to_w_str</text>
</a>
</g>
</g>
<!-- Node100&#45;&gt;Node102 -->
<g id="edge8" class="edge">
<title>Node100&#45;&gt;Node102</title>
<path fill="none" stroke="#191970" d="M190.003,-41.4023C210.1651,-36.1002 233.4831,-29.9681 252.3686,-25.0017"/>
<polygon fill="#191970" stroke="#191970" points="188.8717,-38.0807 180.0907,-44.009 190.6521,-44.8506 188.8717,-38.0807"/>
</g>
<!-- Node102&#45;&gt;Node97 -->
<g id="edge10" class="edge">
<title>Node102&#45;&gt;Node97</title>
<path fill="none" stroke="#191970" d="M324.5314,-28.4843C355.8037,-39.7536 400.3572,-55.8089 428.4659,-65.9382"/>
<polygon fill="#191970" stroke="#191970" points="325.4768,-25.1047 314.8824,-25.0072 323.1036,-31.6902 325.4768,-25.1047"/>
</g>
<!-- Node103 -->
<g id="node10" class="node">
<title>Node103</title>
<g id="a_node10"><a xlink:href="en61107__request_8h.html#a1d55ddd328b48520e19f10b6c0b6036c" target="_top" xlink:title="en61107_get_received\l_energy_kwh">
<polygon fill="#ffffff" stroke="#000000" points="396,-.5 396,-30.5 514,-30.5 514,-.5 396,-.5"/>
<text text-anchor="start" x="404" y="-18.5" font-family="Helvetica,sans-Serif" font-size="10.00" fill="#000000">en61107_get_received</text>
<text text-anchor="middle" x="455" y="-7.5" font-family="Helvetica,sans-Serif" font-size="10.00" fill="#000000">_energy_kwh</text>
</a>
</g>
</g>
<!-- Node102&#45;&gt;Node103 -->
<g id="edge9" class="edge">
<title>Node102&#45;&gt;Node103</title>
<path fill="none" stroke="#191970" d="M336.5232,-15.5C355.0262,-15.5 376.3757,-15.5 395.8112,-15.5"/>
<polygon fill="#191970" stroke="#191970" points="336.2815,-12.0001 326.2814,-15.5 336.2814,-19.0001 336.2815,-12.0001"/>
</g>
</g>
</svg>
