<?xml version="1.0" encoding="UTF-8" standalone="no"?>
<!DOCTYPE svg PUBLIC "-//W3C//DTD SVG 1.1//EN"
 "http://www.w3.org/Graphics/SVG/1.1/DTD/svg11.dtd">
<!-- Generated by graphviz version 2.41.20170323.1842 (20170323.1842)
 -->
<!-- Title: watchdog_timer_func Pages: 1 -->
<svg width="1387pt" height="370pt"
 viewBox="0.00 0.00 1387.00 370.00" xmlns="http://www.w3.org/2000/svg" xmlns:xlink="http://www.w3.org/1999/xlink">
<g id="graph0" class="graph" transform="scale(1 1) rotate(0) translate(4 366)">
<title>watchdog_timer_func</title>
<polygon fill="#ffffff" stroke="transparent" points="-4,4 -4,-366 1383,-366 1383,4 -4,4"/>
<!-- Node72 -->
<g id="node1" class="node">
<title>Node72</title>
<polygon fill="#bfbfbf" stroke="#000000" points="0,-285.5 0,-304.5 112,-304.5 112,-285.5 0,-285.5"/>
<text text-anchor="middle" x="56" y="-292.5" font-family="Helvetica,sans-Serif" font-size="10.00" fill="#000000">watchdog_timer_func</text>
</g>
<!-- Node73 -->
<g id="node2" class="node">
<title>Node73</title>
<g id="a_node2"><a xlink:href="unix__time_8c.html#a36607dbd5be7bee11f8c20932b3df407" target="_top" xlink:title="get_unix_time">
<polygon fill="#ffffff" stroke="#000000" points="175,-342.5 175,-361.5 254,-361.5 254,-342.5 175,-342.5"/>
<text text-anchor="middle" x="214.5" y="-349.5" font-family="Helvetica,sans-Serif" font-size="10.00" fill="#000000">get_unix_time</text>
</a>
</g>
</g>
<!-- Node72&#45;&gt;Node73 -->
<g id="edge1" class="edge">
<title>Node72&#45;&gt;Node73</title>
<path fill="none" stroke="#191970" d="M77.2976,-304.6043C95.7761,-312.7417 123.3562,-324.421 148,-333 154.5522,-335.281 161.5344,-337.5002 168.4187,-339.5694"/>
<polygon fill="#191970" stroke="#191970" points="167.7929,-343.033 178.3735,-342.4833 169.7595,-336.3149 167.7929,-343.033"/>
</g>
<!-- Node74 -->
<g id="node3" class="node">
<title>Node74</title>
<g id="a_node3"><a xlink:href="espmissingincludes_8h.html#a0bbba7104c948de849f8051d9ac956e3" target="_top" xlink:title="os_printf">
<polygon fill="#ffffff" stroke="#000000" points="899.5,-209.5 899.5,-228.5 954.5,-228.5 954.5,-209.5 899.5,-209.5"/>
<text text-anchor="middle" x="927" y="-216.5" font-family="Helvetica,sans-Serif" font-size="10.00" fill="#000000">os_printf</text>
</a>
</g>
</g>
<!-- Node72&#45;&gt;Node74 -->
<g id="edge2" class="edge">
<title>Node72&#45;&gt;Node74</title>
<path fill="none" stroke="#191970" d="M112.0755,-289.5808C175.1117,-283.9649 280.5471,-276 371.5,-276 371.5,-276 371.5,-276 659,-276 743.5084,-276 839.7914,-248.5491 890.8079,-231.7476"/>
<polygon fill="#191970" stroke="#191970" points="892.0185,-235.0333 900.3907,-228.5405 889.7969,-228.3952 892.0185,-235.0333"/>
</g>
<!-- Node75 -->
<g id="node4" class="node">
<title>Node75</title>
<g id="a_node4"><a xlink:href="watchdog_8c.html#a47b6861ffbed37fef88aa644f10ba917" target="_top" xlink:title="wifi_reconnect_timer_func">
<polygon fill="#ffffff" stroke="#000000" points="148,-304.5 148,-323.5 281,-323.5 281,-304.5 148,-304.5"/>
<text text-anchor="middle" x="214.5" y="-311.5" font-family="Helvetica,sans-Serif" font-size="10.00" fill="#000000">wifi_reconnect_timer_func</text>
</a>
</g>
</g>
<!-- Node72&#45;&gt;Node75 -->
<g id="edge3" class="edge">
<title>Node72&#45;&gt;Node75</title>
<path fill="none" stroke="#191970" d="M112.3275,-301.7522C120.5775,-302.7412 129.1902,-303.7736 137.7636,-304.8013"/>
<polygon fill="#191970" stroke="#191970" points="137.4404,-308.2875 147.786,-306.0027 138.2736,-301.3373 137.4404,-308.2875"/>
</g>
<!-- Node103 -->
<g id="node32" class="node">
<title>Node103</title>
<g id="a_node32"><a xlink:href="wifi_8h.html#a623e279143c8d4f8ff19766d7450a489" target="_top" xlink:title="wifi_stop_scan">
<polygon fill="#ffffff" stroke="#000000" points="173.5,-228.5 173.5,-247.5 255.5,-247.5 255.5,-228.5 173.5,-228.5"/>
<text text-anchor="middle" x="214.5" y="-235.5" font-family="Helvetica,sans-Serif" font-size="10.00" fill="#000000">wifi_stop_scan</text>
</a>
</g>
</g>
<!-- Node72&#45;&gt;Node103 -->
<g id="edge42" class="edge">
<title>Node72&#45;&gt;Node103</title>
<path fill="none" stroke="#191970" d="M82.5293,-285.4595C108.816,-276.0062 149.2653,-261.4598 178.4538,-250.963"/>
<polygon fill="#191970" stroke="#191970" points="179.6585,-254.2493 187.8841,-247.5716 177.2897,-247.6622 179.6585,-254.2493"/>
</g>
<!-- Node75&#45;&gt;Node74 -->
<g id="edge5" class="edge">
<title>Node75&#45;&gt;Node74</title>
<path fill="none" stroke="#191970" d="M261.1697,-323.54C320.3958,-334.7963 425.8279,-352 517,-352 517,-352 517,-352 659,-352 762.992,-352 868.2413,-270.6551 909.1782,-235.1983"/>
<polygon fill="#191970" stroke="#191970" points="911.5155,-237.8037 916.7019,-228.565 906.8862,-232.5529 911.5155,-237.8037"/>
</g>
<!-- Node76 -->
<g id="node5" class="node">
<title>Node76</title>
<g id="a_node5"><a xlink:href="wifi_8h.html#aa472c6b7c4b18d171792da3df1be502e" target="_top" xlink:title="wifi_scan_is_running">
<polygon fill="#ffffff" stroke="#000000" points="317,-304.5 317,-323.5 426,-323.5 426,-304.5 317,-304.5"/>
<text text-anchor="middle" x="371.5" y="-311.5" font-family="Helvetica,sans-Serif" font-size="10.00" fill="#000000">wifi_scan_is_running</text>
</a>
</g>
</g>
<!-- Node75&#45;&gt;Node76 -->
<g id="edge4" class="edge">
<title>Node75&#45;&gt;Node76</title>
<path fill="none" stroke="#191970" d="M281.0821,-314C289.5193,-314 298.1445,-314 306.5556,-314"/>
<polygon fill="#191970" stroke="#191970" points="306.6821,-317.5001 316.682,-314 306.682,-310.5001 306.6821,-317.5001"/>
</g>
<!-- Node77 -->
<g id="node6" class="node">
<title>Node77</title>
<g id="a_node6"><a xlink:href="wifi_8h.html#a5831b420da0012d53c979c375714d382" target="_top" xlink:title="wifi_start_scan">
<polygon fill="#ffffff" stroke="#000000" points="330,-190.5 330,-209.5 413,-209.5 413,-190.5 330,-190.5"/>
<text text-anchor="middle" x="371.5" y="-197.5" font-family="Helvetica,sans-Serif" font-size="10.00" fill="#000000">wifi_start_scan</text>
</a>
</g>
</g>
<!-- Node75&#45;&gt;Node77 -->
<g id="edge6" class="edge">
<title>Node75&#45;&gt;Node77</title>
<path fill="none" stroke="#191970" d="M227.6157,-304.4765C254.6767,-284.8271 316.9264,-239.6267 349.9746,-215.6299"/>
<polygon fill="#191970" stroke="#191970" points="352.0535,-218.4458 358.0888,-209.738 347.9405,-212.7815 352.0535,-218.4458"/>
</g>
<!-- Node78 -->
<g id="node7" class="node">
<title>Node78</title>
<g id="a_node7"><a xlink:href="wifi_8c.html#ae7011f25db54676b86fefe2caa450a4a" target="_top" xlink:title="wifi_scan_timer_func">
<polygon fill="#ffffff" stroke="#000000" points="462,-171.5 462,-190.5 572,-190.5 572,-171.5 462,-171.5"/>
<text text-anchor="middle" x="517" y="-178.5" font-family="Helvetica,sans-Serif" font-size="10.00" fill="#000000">wifi_scan_timer_func</text>
</a>
</g>
</g>
<!-- Node77&#45;&gt;Node78 -->
<g id="edge7" class="edge">
<title>Node77&#45;&gt;Node78</title>
<path fill="none" stroke="#191970" d="M413.1945,-194.5554C425.3065,-192.9737 438.8323,-191.2075 452.0142,-189.4861"/>
<polygon fill="#191970" stroke="#191970" points="452.5358,-192.9478 461.9984,-188.1823 451.6293,-186.0067 452.5358,-192.9478"/>
</g>
<!-- Node78&#45;&gt;Node74 -->
<g id="edge8" class="edge">
<title>Node78&#45;&gt;Node74</title>
<path fill="none" stroke="#191970" d="M556.6494,-190.5944C572.5264,-194.0907 591.0427,-197.7371 608,-200 708.9023,-213.465 829.0366,-217.3888 889.0005,-218.5313"/>
<polygon fill="#191970" stroke="#191970" points="889.0739,-222.0331 899.1336,-218.7085 889.1963,-215.0341 889.0739,-222.0331"/>
</g>
<!-- Node79 -->
<g id="node8" class="node">
<title>Node79</title>
<g id="a_node8"><a xlink:href="wifi_8c.html#a79205b29f65bdd821ad9452bdbf0b747" target="_top" xlink:title="wifi_get_rssi">
<polygon fill="#ffffff" stroke="#000000" points="623,-171.5 623,-190.5 695,-190.5 695,-171.5 623,-171.5"/>
<text text-anchor="middle" x="659" y="-178.5" font-family="Helvetica,sans-Serif" font-size="10.00" fill="#000000">wifi_get_rssi</text>
</a>
</g>
</g>
<!-- Node78&#45;&gt;Node79 -->
<g id="edge9" class="edge">
<title>Node78&#45;&gt;Node79</title>
<path fill="none" stroke="#191970" d="M572.3075,-181C585.703,-181 599.8829,-181 612.8082,-181"/>
<polygon fill="#191970" stroke="#191970" points="612.8661,-184.5001 622.8661,-181 612.8661,-177.5001 612.8661,-184.5001"/>
</g>
<!-- Node80 -->
<g id="node9" class="node">
<title>Node80</title>
<g id="a_node9"><a xlink:href="wifi_8c.html#a1ef15ecd9e69811f6db10215c7196281" target="_top" xlink:title="wifi_scan_done_cb">
<polygon fill="#ffffff" stroke="#000000" points="608,-114.5 608,-133.5 710,-133.5 710,-114.5 608,-114.5"/>
<text text-anchor="middle" x="659" y="-121.5" font-family="Helvetica,sans-Serif" font-size="10.00" fill="#000000">wifi_scan_done_cb</text>
</a>
</g>
</g>
<!-- Node78&#45;&gt;Node80 -->
<g id="edge10" class="edge">
<title>Node78&#45;&gt;Node80</title>
<path fill="none" stroke="#191970" d="M540.7676,-171.4595C564.0106,-162.1295 599.6131,-147.8384 625.6779,-137.3758"/>
<polygon fill="#191970" stroke="#191970" points="627.1784,-140.545 635.1549,-133.5716 624.5708,-134.0488 627.1784,-140.545"/>
</g>
<!-- Node80&#45;&gt;Node74 -->
<g id="edge17" class="edge">
<title>Node80&#45;&gt;Node74</title>
<path fill="none" stroke="#191970" d="M670.579,-133.6505C686.5338,-146.4432 716.6478,-168.8154 746,-181 793.301,-200.6355 851.9244,-210.5546 889.3986,-215.2425"/>
<polygon fill="#191970" stroke="#191970" points="889.037,-218.724 899.3804,-216.4297 889.8638,-211.773 889.037,-218.724"/>
</g>
<!-- Node81 -->
<g id="node10" class="node">
<title>Node81</title>
<g id="a_node10"><a xlink:href="led_8c.html#aa00afefe8ba48ccd7df635fbc7d4c9fc" target="_top" xlink:title="led_pattern_a">
<polygon fill="#ffffff" stroke="#000000" points="748.5,-76.5 748.5,-95.5 826.5,-95.5 826.5,-76.5 748.5,-76.5"/>
<text text-anchor="middle" x="787.5" y="-83.5" font-family="Helvetica,sans-Serif" font-size="10.00" fill="#000000">led_pattern_a</text>
</a>
</g>
</g>
<!-- Node80&#45;&gt;Node81 -->
<g id="edge11" class="edge">
<title>Node80&#45;&gt;Node81</title>
<path fill="none" stroke="#191970" d="M691.426,-114.411C707.7097,-109.5956 727.6421,-103.7012 745.122,-98.532"/>
<polygon fill="#191970" stroke="#191970" points="746.4875,-101.7781 755.0844,-95.5859 744.5024,-95.0655 746.4875,-101.7781"/>
</g>
<!-- Node85 -->
<g id="node14" class="node">
<title>Node85</title>
<g id="a_node14"><a xlink:href="led_8c.html#a7cd1d03b4baad9cb20bf1a43046f61a2" target="_top" xlink:title="led_stop_pattern">
<polygon fill="#ffffff" stroke="#000000" points="881.5,-38.5 881.5,-57.5 972.5,-57.5 972.5,-38.5 881.5,-38.5"/>
<text text-anchor="middle" x="927" y="-45.5" font-family="Helvetica,sans-Serif" font-size="10.00" fill="#000000">led_stop_pattern</text>
</a>
</g>
</g>
<!-- Node80&#45;&gt;Node85 -->
<g id="edge15" class="edge">
<title>Node80&#45;&gt;Node85</title>
<path fill="none" stroke="#191970" d="M669.8758,-114.3545C685.4889,-101.1314 715.7228,-77.7884 746,-67 786.2275,-52.666 834.4304,-48.1715 870.9742,-47.1222"/>
<polygon fill="#191970" stroke="#191970" points="871.5109,-50.612 881.4364,-46.9061 871.3662,-43.6135 871.5109,-50.612"/>
</g>
<!-- Node86 -->
<g id="node15" class="node">
<title>Node86</title>
<g id="a_node15"><a xlink:href="wifi_8c.html#a0be23fd8148c6a3abf21c739359bed52" target="_top" xlink:title="wifi_default">
<polygon fill="#ffffff" stroke="#000000" points="754,-114.5 754,-133.5 821,-133.5 821,-114.5 754,-114.5"/>
<text text-anchor="middle" x="787.5" y="-121.5" font-family="Helvetica,sans-Serif" font-size="10.00" fill="#000000">wifi_default</text>
</a>
</g>
</g>
<!-- Node80&#45;&gt;Node86 -->
<g id="edge18" class="edge">
<title>Node80&#45;&gt;Node86</title>
<path fill="none" stroke="#191970" d="M710.1558,-124C721.294,-124 732.9804,-124 743.7982,-124"/>
<polygon fill="#191970" stroke="#191970" points="743.8575,-127.5001 753.8575,-124 743.8575,-120.5001 743.8575,-127.5001"/>
</g>
<!-- Node101 -->
<g id="node30" class="node">
<title>Node101</title>
<g id="a_node30"><a xlink:href="wifi_8c.html#ac4389ba687a71cbb616f05b02427eb2a" target="_top" xlink:title="wifi_fallback">
<polygon fill="#ffffff" stroke="#000000" points="752.5,-152.5 752.5,-171.5 822.5,-171.5 822.5,-152.5 752.5,-152.5"/>
<text text-anchor="middle" x="787.5" y="-159.5" font-family="Helvetica,sans-Serif" font-size="10.00" fill="#000000">wifi_fallback</text>
</a>
</g>
</g>
<!-- Node80&#45;&gt;Node101 -->
<g id="edge37" class="edge">
<title>Node80&#45;&gt;Node101</title>
<path fill="none" stroke="#191970" d="M691.426,-133.589C707.7097,-138.4044 727.6421,-144.2988 745.122,-149.468"/>
<polygon fill="#191970" stroke="#191970" points="744.5024,-152.9345 755.0844,-152.4141 746.4875,-146.2219 744.5024,-152.9345"/>
</g>
<!-- Node102 -->
<g id="node31" class="node">
<title>Node102</title>
<g id="a_node31"><a xlink:href="wifi_8c.html#a5831b420da0012d53c979c375714d382" target="_top" xlink:title="wifi_start_scan">
<polygon fill="#ffffff" stroke="#000000" points="746,-.5 746,-19.5 829,-19.5 829,-.5 746,-.5"/>
<text text-anchor="middle" x="787.5" y="-7.5" font-family="Helvetica,sans-Serif" font-size="10.00" fill="#000000">wifi_start_scan</text>
</a>
</g>
</g>
<!-- Node80&#45;&gt;Node102 -->
<g id="edge40" class="edge">
<title>Node80&#45;&gt;Node102</title>
<path fill="none" stroke="#191970" d="M666.6526,-114.4831C680.9624,-97.0779 713.294,-59.5584 746,-34 750.1561,-30.7521 754.7978,-27.6415 759.43,-24.7992"/>
<polygon fill="#191970" stroke="#191970" points="761.3128,-27.7531 768.1957,-19.6986 757.7922,-21.7028 761.3128,-27.7531"/>
</g>
<!-- Node82 -->
<g id="node11" class="node">
<title>Node82</title>
<g id="a_node11"><a xlink:href="led_8c.html#af6a79b211d188e643a4f1cf7552ac7ee" target="_top" xlink:title="led_blinker_timer_func">
<polygon fill="#ffffff" stroke="#000000" points="868.5,-76.5 868.5,-95.5 985.5,-95.5 985.5,-76.5 868.5,-76.5"/>
<text text-anchor="middle" x="927" y="-83.5" font-family="Helvetica,sans-Serif" font-size="10.00" fill="#000000">led_blinker_timer_func</text>
</a>
</g>
</g>
<!-- Node81&#45;&gt;Node82 -->
<g id="edge12" class="edge">
<title>Node81&#45;&gt;Node82</title>
<path fill="none" stroke="#191970" d="M826.7298,-86C836.501,-86 847.2675,-86 858.0101,-86"/>
<polygon fill="#191970" stroke="#191970" points="858.269,-89.5001 868.269,-86 858.269,-82.5001 858.269,-89.5001"/>
</g>
<!-- Node83 -->
<g id="node12" class="node">
<title>Node83</title>
<g id="a_node12"><a xlink:href="led_8c.html#a7ef0b27e501c77cd25b8bb7a2de6d8bd" target="_top" xlink:title="led_off">
<polygon fill="#ffffff" stroke="#000000" points="1037,-38.5 1037,-57.5 1084,-57.5 1084,-38.5 1037,-38.5"/>
<text text-anchor="middle" x="1060.5" y="-45.5" font-family="Helvetica,sans-Serif" font-size="10.00" fill="#000000">led_off</text>
</a>
</g>
</g>
<!-- Node82&#45;&gt;Node83 -->
<g id="edge13" class="edge">
<title>Node82&#45;&gt;Node83</title>
<path fill="none" stroke="#191970" d="M960.6877,-76.411C981.0399,-70.6178 1006.8784,-63.2631 1027.1665,-57.4882"/>
<polygon fill="#191970" stroke="#191970" points="1028.2613,-60.8157 1036.921,-54.7116 1026.3448,-54.0831 1028.2613,-60.8157"/>
</g>
<!-- Node84 -->
<g id="node13" class="node">
<title>Node84</title>
<g id="a_node13"><a xlink:href="led_8c.html#a0a23edee5e1db0cd2928c18a42ffe96f" target="_top" xlink:title="led_on">
<polygon fill="#ffffff" stroke="#000000" points="1037,-76.5 1037,-95.5 1084,-95.5 1084,-76.5 1037,-76.5"/>
<text text-anchor="middle" x="1060.5" y="-83.5" font-family="Helvetica,sans-Serif" font-size="10.00" fill="#000000">led_on</text>
</a>
</g>
</g>
<!-- Node82&#45;&gt;Node84 -->
<g id="edge14" class="edge">
<title>Node82&#45;&gt;Node84</title>
<path fill="none" stroke="#191970" d="M985.555,-86C999.5349,-86 1014.0017,-86 1026.4524,-86"/>
<polygon fill="#191970" stroke="#191970" points="1026.8119,-89.5001 1036.8119,-86 1026.8119,-82.5001 1026.8119,-89.5001"/>
</g>
<!-- Node85&#45;&gt;Node83 -->
<g id="edge16" class="edge">
<title>Node85&#45;&gt;Node83</title>
<path fill="none" stroke="#191970" d="M972.5697,-48C990.291,-48 1010.2341,-48 1026.6421,-48"/>
<polygon fill="#191970" stroke="#191970" points="1026.8551,-51.5001 1036.8551,-48 1026.8551,-44.5001 1026.8551,-51.5001"/>
</g>
<!-- Node86&#45;&gt;Node74 -->
<g id="edge19" class="edge">
<title>Node86&#45;&gt;Node74</title>
<path fill="none" stroke="#191970" d="M812.4984,-133.5682C818.1564,-136.2359 823.9728,-139.4043 829,-143 847.9225,-156.5342 846.9268,-166.3509 865,-181 875.6505,-189.6327 888.4216,-197.7792 899.5977,-204.2987"/>
<polygon fill="#191970" stroke="#191970" points="898.1043,-207.4756 908.5289,-209.3674 901.5594,-201.3876 898.1043,-207.4756"/>
</g>
<!-- Node87 -->
<g id="node16" class="node">
<title>Node87</title>
<g id="a_node16"><a xlink:href="tinyprintf_8c.html#a9738cbc6c538d210941db282e240c7d6" target="_top" xlink:title="tfp_snprintf">
<polygon fill="#ffffff" stroke="#000000" points="894,-152.5 894,-171.5 960,-171.5 960,-152.5 894,-152.5"/>
<text text-anchor="middle" x="927" y="-159.5" font-family="Helvetica,sans-Serif" font-size="10.00" fill="#000000">tfp_snprintf</text>
</a>
</g>
</g>
<!-- Node86&#45;&gt;Node87 -->
<g id="edge20" class="edge">
<title>Node86&#45;&gt;Node87</title>
<path fill="none" stroke="#191970" d="M821.2691,-133.1987C840.0319,-138.3098 863.5784,-144.7239 883.6851,-150.2009"/>
<polygon fill="#191970" stroke="#191970" points="882.9736,-153.6346 893.5419,-152.886 884.8134,-146.8807 882.9736,-153.6346"/>
</g>
<!-- Node100 -->
<g id="node29" class="node">
<title>Node100</title>
<g id="a_node29"><a xlink:href="wifi_8c.html#a2091cde351b02dbc8bd9d52273488bba" target="_top" xlink:title="wifi_get_rssi_timer_func">
<polygon fill="#ffffff" stroke="#000000" points="865,-114.5 865,-133.5 989,-133.5 989,-114.5 865,-114.5"/>
<text text-anchor="middle" x="927" y="-121.5" font-family="Helvetica,sans-Serif" font-size="10.00" fill="#000000">wifi_get_rssi_timer_func</text>
</a>
</g>
</g>
<!-- Node86&#45;&gt;Node100 -->
<g id="edge36" class="edge">
<title>Node86&#45;&gt;Node100</title>
<path fill="none" stroke="#191970" d="M821.2691,-124C831.4348,-124 843.0048,-124 854.671,-124"/>
<polygon fill="#191970" stroke="#191970" points="854.9152,-127.5001 864.9151,-124 854.9151,-120.5001 854.9152,-127.5001"/>
</g>
<!-- Node88 -->
<g id="node17" class="node">
<title>Node88</title>
<g id="a_node17"><a xlink:href="tinyprintf_8c.html#ac8c8a66133cf0d7009c0d73b55311a44" target="_top" xlink:title="tfp_vsnprintf">
<polygon fill="#ffffff" stroke="#000000" points="1025,-152.5 1025,-171.5 1096,-171.5 1096,-152.5 1025,-152.5"/>
<text text-anchor="middle" x="1060.5" y="-159.5" font-family="Helvetica,sans-Serif" font-size="10.00" fill="#000000">tfp_vsnprintf</text>
</a>
</g>
</g>
<!-- Node87&#45;&gt;Node88 -->
<g id="edge21" class="edge">
<title>Node87&#45;&gt;Node88</title>
<path fill="none" stroke="#191970" d="M960,-162C976.3945,-162 996.4752,-162 1014.3652,-162"/>
<polygon fill="#191970" stroke="#191970" points="1014.601,-165.5001 1024.601,-162 1014.601,-158.5001 1014.601,-165.5001"/>
</g>
<!-- Node89 -->
<g id="node18" class="node">
<title>Node89</title>
<g id="a_node18"><a xlink:href="tinyprintf_8c.html#a919051024b2d729e34a54648b3f2462d" target="_top" xlink:title="_vsnprintf_putcf">
<polygon fill="#ffffff" stroke="#000000" points="1132,-171.5 1132,-190.5 1219,-190.5 1219,-171.5 1132,-171.5"/>
<text text-anchor="middle" x="1175.5" y="-178.5" font-family="Helvetica,sans-Serif" font-size="10.00" fill="#000000">_vsnprintf_putcf</text>
</a>
</g>
</g>
<!-- Node88&#45;&gt;Node89 -->
<g id="edge22" class="edge">
<title>Node88&#45;&gt;Node89</title>
<path fill="none" stroke="#191970" d="M1096.2563,-167.9076C1104.3127,-169.2386 1113.037,-170.68 1121.6515,-172.1033"/>
<polygon fill="#191970" stroke="#191970" points="1121.2304,-175.5811 1131.6672,-173.7581 1122.3715,-168.6747 1121.2304,-175.5811"/>
</g>
<!-- Node90 -->
<g id="node19" class="node">
<title>Node90</title>
<g id="a_node19"><a xlink:href="tinyprintf_8c.html#a5877e42444463efc71a91b5fe76a6145" target="_top" xlink:title="tfp_format">
<polygon fill="#ffffff" stroke="#000000" points="1144.5,-133.5 1144.5,-152.5 1206.5,-152.5 1206.5,-133.5 1144.5,-133.5"/>
<text text-anchor="middle" x="1175.5" y="-140.5" font-family="Helvetica,sans-Serif" font-size="10.00" fill="#000000">tfp_format</text>
</a>
</g>
</g>
<!-- Node88&#45;&gt;Node90 -->
<g id="edge23" class="edge">
<title>Node88&#45;&gt;Node90</title>
<path fill="none" stroke="#191970" d="M1096.2563,-156.0924C1108.31,-154.101 1121.8587,-151.8625 1134.2981,-149.8073"/>
<polygon fill="#191970" stroke="#191970" points="1135.1334,-153.2168 1144.4291,-148.1335 1133.9923,-146.3104 1135.1334,-153.2168"/>
</g>
<!-- Node91 -->
<g id="node20" class="node">
<title>Node91</title>
<g id="a_node20"><a xlink:href="tinyprintf_8c.html#aa97593a5e53af85b608ad0910db92d77" target="_top" xlink:title="a2u">
<polygon fill="#ffffff" stroke="#000000" points="1262.5,-266.5 1262.5,-285.5 1295.5,-285.5 1295.5,-266.5 1262.5,-266.5"/>
<text text-anchor="middle" x="1279" y="-273.5" font-family="Helvetica,sans-Serif" font-size="10.00" fill="#000000">a2u</text>
</a>
</g>
</g>
<!-- Node90&#45;&gt;Node91 -->
<g id="edge24" class="edge">
<title>Node90&#45;&gt;Node91</title>
<path fill="none" stroke="#191970" d="M1206.0676,-152.5837C1210.8274,-155.0813 1215.3641,-158.1792 1219,-162 1250.1262,-194.709 1228.3372,-220.5609 1255,-257 1255.5492,-257.7505 1256.1354,-258.4873 1256.7511,-259.2085"/>
<polygon fill="#191970" stroke="#191970" points="1254.4833,-261.8828 1264.1263,-266.2719 1259.325,-256.8273 1254.4833,-261.8828"/>
</g>
<!-- Node93 -->
<g id="node22" class="node">
<title>Node93</title>
<g id="a_node22"><a xlink:href="tinyprintf_8c.html#a90f9fd8f2133cda7f50be8d67823405c" target="_top" xlink:title="i2a">
<polygon fill="#ffffff" stroke="#000000" points="1264,-228.5 1264,-247.5 1294,-247.5 1294,-228.5 1264,-228.5"/>
<text text-anchor="middle" x="1279" y="-235.5" font-family="Helvetica,sans-Serif" font-size="10.00" fill="#000000">i2a</text>
</a>
</g>
</g>
<!-- Node90&#45;&gt;Node93 -->
<g id="edge26" class="edge">
<title>Node90&#45;&gt;Node93</title>
<path fill="none" stroke="#191970" d="M1203.9669,-152.7102C1209.2746,-155.253 1214.5455,-158.3345 1219,-162 1240.7053,-179.8606 1236.9891,-192.4192 1255,-214 1256.9114,-216.2903 1259.0054,-218.6133 1261.135,-220.8665"/>
<polygon fill="#191970" stroke="#191970" points="1258.7784,-223.461 1268.299,-228.1095 1263.7552,-218.5384 1258.7784,-223.461"/>
</g>
<!-- Node94 -->
<g id="node23" class="node">
<title>Node94</title>
<g id="a_node23"><a xlink:href="tinyprintf_8c.html#ac87ff66a592723f55692eaf8e3f19df8" target="_top" xlink:title="ui2a">
<polygon fill="#ffffff" stroke="#000000" points="1341.5,-209.5 1341.5,-228.5 1376.5,-228.5 1376.5,-209.5 1341.5,-209.5"/>
<text text-anchor="middle" x="1359" y="-216.5" font-family="Helvetica,sans-Serif" font-size="10.00" fill="#000000">ui2a</text>
</a>
</g>
</g>
<!-- Node90&#45;&gt;Node94 -->
<g id="edge33" class="edge">
<title>Node90&#45;&gt;Node94</title>
<path fill="none" stroke="#191970" d="M1198.2214,-152.5476C1204.9569,-155.4789 1212.3173,-158.7825 1219,-162 1235.3007,-169.8483 1238.4657,-173.6565 1255,-181 1280.5152,-192.3322 1310.5525,-203.0369 1331.7688,-210.1787"/>
<polygon fill="#191970" stroke="#191970" points="1330.8235,-213.5527 1341.4171,-213.3856 1333.0315,-206.91 1330.8235,-213.5527"/>
</g>
<!-- Node95 -->
<g id="node24" class="node">
<title>Node95</title>
<g id="a_node24"><a xlink:href="tinyprintf_8c.html#afebb7696337c3f599b5e8db35c560684" target="_top" xlink:title="li2a">
<polygon fill="#ffffff" stroke="#000000" points="1263,-152.5 1263,-171.5 1295,-171.5 1295,-152.5 1263,-152.5"/>
<text text-anchor="middle" x="1279" y="-159.5" font-family="Helvetica,sans-Serif" font-size="10.00" fill="#000000">li2a</text>
</a>
</g>
</g>
<!-- Node90&#45;&gt;Node95 -->
<g id="edge28" class="edge">
<title>Node90&#45;&gt;Node95</title>
<path fill="none" stroke="#191970" d="M1206.5534,-148.7006C1221.3576,-151.4183 1238.8672,-154.6326 1252.9639,-157.2204"/>
<polygon fill="#191970" stroke="#191970" points="1252.5095,-160.6954 1262.9771,-159.0586 1253.7734,-153.8105 1252.5095,-160.6954"/>
</g>
<!-- Node96 -->
<g id="node25" class="node">
<title>Node96</title>
<g id="a_node25"><a xlink:href="tinyprintf_8c.html#a1d61347854a8c290d59b4a21efcefd75" target="_top" xlink:title="uli2a">
<polygon fill="#ffffff" stroke="#000000" points="1340,-133.5 1340,-152.5 1378,-152.5 1378,-133.5 1340,-133.5"/>
<text text-anchor="middle" x="1359" y="-140.5" font-family="Helvetica,sans-Serif" font-size="10.00" fill="#000000">uli2a</text>
</a>
</g>
</g>
<!-- Node90&#45;&gt;Node96 -->
<g id="edge34" class="edge">
<title>Node90&#45;&gt;Node96</title>
<path fill="none" stroke="#191970" d="M1206.6283,-143C1241.0439,-143 1296.0573,-143 1329.7155,-143"/>
<polygon fill="#191970" stroke="#191970" points="1329.8399,-146.5001 1339.8399,-143 1329.8398,-139.5001 1329.8399,-146.5001"/>
</g>
<!-- Node97 -->
<g id="node26" class="node">
<title>Node97</title>
<g id="a_node26"><a xlink:href="tinyprintf_8c.html#a49c6d2b3d4088012f2c1fe344eef69f3" target="_top" xlink:title="lli2a">
<polygon fill="#ffffff" stroke="#000000" points="1262,-76.5 1262,-95.5 1296,-95.5 1296,-76.5 1262,-76.5"/>
<text text-anchor="middle" x="1279" y="-83.5" font-family="Helvetica,sans-Serif" font-size="10.00" fill="#000000">lli2a</text>
</a>
</g>
</g>
<!-- Node90&#45;&gt;Node97 -->
<g id="edge30" class="edge">
<title>Node90&#45;&gt;Node97</title>
<path fill="none" stroke="#191970" d="M1193.0574,-133.3307C1209.4376,-124.3097 1234.0906,-110.7327 1252.7979,-100.4302"/>
<polygon fill="#191970" stroke="#191970" points="1254.6309,-103.4164 1261.7019,-95.5265 1251.254,-97.2848 1254.6309,-103.4164"/>
</g>
<!-- Node98 -->
<g id="node27" class="node">
<title>Node98</title>
<g id="a_node27"><a xlink:href="tinyprintf_8c.html#abcf035dd576671b0cc897de9dd8c75b0" target="_top" xlink:title="ulli2a">
<polygon fill="#ffffff" stroke="#000000" points="1339,-57.5 1339,-76.5 1379,-76.5 1379,-57.5 1339,-57.5"/>
<text text-anchor="middle" x="1359" y="-64.5" font-family="Helvetica,sans-Serif" font-size="10.00" fill="#000000">ulli2a</text>
</a>
</g>
</g>
<!-- Node90&#45;&gt;Node98 -->
<g id="edge35" class="edge">
<title>Node90&#45;&gt;Node98</title>
<path fill="none" stroke="#191970" d="M1181.7265,-133.415C1193.557,-116.2002 1221.1512,-80.5765 1255,-67 1278.3674,-57.6275 1307.1345,-58.4653 1328.486,-61.1711"/>
<polygon fill="#191970" stroke="#191970" points="1328.208,-64.6679 1338.6112,-62.6623 1329.2279,-57.7426 1328.208,-64.6679"/>
</g>
<!-- Node99 -->
<g id="node28" class="node">
<title>Node99</title>
<g id="a_node28"><a xlink:href="tinyprintf_8c.html#a6252dbfebb2c8783c4e3107d551082dd" target="_top" xlink:title="putchw">
<polygon fill="#ffffff" stroke="#000000" points="1255,-.5 1255,-19.5 1303,-19.5 1303,-.5 1255,-.5"/>
<text text-anchor="middle" x="1279" y="-7.5" font-family="Helvetica,sans-Serif" font-size="10.00" fill="#000000">putchw</text>
</a>
</g>
</g>
<!-- Node90&#45;&gt;Node99 -->
<g id="edge32" class="edge">
<title>Node90&#45;&gt;Node99</title>
<path fill="none" stroke="#191970" d="M1181.8324,-133.294C1194.7216,-113.7816 1225.3056,-68.703 1255,-34 1256.9395,-31.7334 1259.0504,-29.4247 1261.1892,-27.1792"/>
<polygon fill="#191970" stroke="#191970" points="1263.808,-29.5088 1268.359,-19.9412 1258.8349,-24.5825 1263.808,-29.5088"/>
</g>
<!-- Node92 -->
<g id="node21" class="node">
<title>Node92</title>
<g id="a_node21"><a xlink:href="tinyprintf_8c.html#aa853a0c5ba64fa2546d488b86192e7e3" target="_top" xlink:title="a2d">
<polygon fill="#ffffff" stroke="#000000" points="1342.5,-266.5 1342.5,-285.5 1375.5,-285.5 1375.5,-266.5 1342.5,-266.5"/>
<text text-anchor="middle" x="1359" y="-273.5" font-family="Helvetica,sans-Serif" font-size="10.00" fill="#000000">a2d</text>
</a>
</g>
</g>
<!-- Node91&#45;&gt;Node92 -->
<g id="edge25" class="edge">
<title>Node91&#45;&gt;Node92</title>
<path fill="none" stroke="#191970" d="M1295.5761,-276C1306.1953,-276 1320.2154,-276 1332.373,-276"/>
<polygon fill="#191970" stroke="#191970" points="1332.4452,-279.5001 1342.4452,-276 1332.4451,-272.5001 1332.4452,-279.5001"/>
</g>
<!-- Node93&#45;&gt;Node94 -->
<g id="edge27" class="edge">
<title>Node93&#45;&gt;Node94</title>
<path fill="none" stroke="#191970" d="M1294.0474,-234.4262C1304.5142,-231.9404 1318.7762,-228.5531 1331.27,-225.5859"/>
<polygon fill="#191970" stroke="#191970" points="1332.3062,-228.9372 1341.2268,-223.2211 1330.6886,-222.1267 1332.3062,-228.9372"/>
</g>
<!-- Node95&#45;&gt;Node96 -->
<g id="edge29" class="edge">
<title>Node95&#45;&gt;Node96</title>
<path fill="none" stroke="#191970" d="M1295.1892,-158.1551C1305.1474,-155.79 1318.2011,-152.6897 1329.9059,-149.9098"/>
<polygon fill="#191970" stroke="#191970" points="1330.8124,-153.292 1339.733,-147.5759 1329.1949,-146.4814 1330.8124,-153.292"/>
</g>
<!-- Node97&#45;&gt;Node98 -->
<g id="edge31" class="edge">
<title>Node97&#45;&gt;Node98</title>
<path fill="none" stroke="#191970" d="M1296.3588,-81.8773C1305.8312,-79.6276 1317.8293,-76.778 1328.7843,-74.1762"/>
<polygon fill="#191970" stroke="#191970" points="1329.9308,-77.5014 1338.8514,-71.7853 1328.3132,-70.6908 1329.9308,-77.5014"/>
</g>
<!-- Node101&#45;&gt;Node74 -->
<g id="edge38" class="edge">
<title>Node101&#45;&gt;Node74</title>
<path fill="none" stroke="#191970" d="M810.8492,-171.5405C833.683,-180.8705 868.6587,-195.1616 894.2646,-205.6242"/>
<polygon fill="#191970" stroke="#191970" points="892.9937,-208.8858 903.5747,-209.4284 895.6415,-202.4059 892.9937,-208.8858"/>
</g>
<!-- Node101&#45;&gt;Node87 -->
<g id="edge39" class="edge">
<title>Node101&#45;&gt;Node87</title>
<path fill="none" stroke="#191970" d="M822.7017,-162C841.1746,-162 863.9728,-162 883.5383,-162"/>
<polygon fill="#191970" stroke="#191970" points="883.7303,-165.5001 893.7303,-162 883.7303,-158.5001 883.7303,-165.5001"/>
</g>
<!-- Node102&#45;&gt;Node78 -->
<g id="edge41" class="edge">
<title>Node102&#45;&gt;Node78</title>
<path fill="none" stroke="#191970" d="M765.9538,-19.6063C731.4029,-35.3998 662.0075,-68.7376 608,-105 580.978,-123.1434 552.619,-147.8691 534.8843,-164.1235"/>
<polygon fill="#191970" stroke="#191970" points="532.0369,-161.9906 527.084,-171.3565 536.7965,-167.1236 532.0369,-161.9906"/>
</g>
</g>
</svg>
