<?xml version="1.0" encoding="UTF-8" standalone="no"?>
<!DOCTYPE svg PUBLIC "-//W3C//DTD SVG 1.1//EN"
 "http://www.w3.org/Graphics/SVG/1.1/DTD/svg11.dtd">
<!-- Generated by graphviz version 2.41.20170323.1842 (20170323.1842)
 -->
<!-- Title: wifi_reconnect_timer_func Pages: 1 -->
<svg width="499pt" height="28pt"
 viewBox="0.00 0.00 499.00 28.00" xmlns="http://www.w3.org/2000/svg" xmlns:xlink="http://www.w3.org/1999/xlink">
<g id="graph0" class="graph" transform="scale(1 1) rotate(0) translate(4 24)">
<title>wifi_reconnect_timer_func</title>
<polygon fill="#ffffff" stroke="transparent" points="-4,4 -4,-24 495,-24 495,4 -4,4"/>
<!-- Node136 -->
<g id="node1" class="node">
<title>Node136</title>
<polygon fill="#bfbfbf" stroke="#000000" points="0,-.5 0,-19.5 133,-19.5 133,-.5 0,-.5"/>
<text text-anchor="middle" x="66.5" y="-7.5" font-family="Helvetica,sans-Serif" font-size="10.00" fill="#000000">wifi_reconnect_timer_func</text>
</g>
<!-- Node137 -->
<g id="node2" class="node">
<title>Node137</title>
<g id="a_node2"><a xlink:href="watchdog_8c.html#aeb03c505b5b589ae4d89b2ae11dd1711" target="_top" xlink:title="watchdog_timer_func">
<polygon fill="#ffffff" stroke="#000000" points="169,-.5 169,-19.5 281,-19.5 281,-.5 169,-.5"/>
<text text-anchor="middle" x="225" y="-7.5" font-family="Helvetica,sans-Serif" font-size="10.00" fill="#000000">watchdog_timer_func</text>
</a>
</g>
</g>
<!-- Node136&#45;&gt;Node137 -->
<g id="edge1" class="edge">
<title>Node136&#45;&gt;Node137</title>
<path fill="none" stroke="#191970" d="M143.3189,-10C151.9243,-10 160.5679,-10 168.8435,-10"/>
<polygon fill="#191970" stroke="#191970" points="143.2589,-6.5001 133.2589,-10 143.2589,-13.5001 143.2589,-6.5001"/>
</g>
<!-- Node138 -->
<g id="node3" class="node">
<title>Node138</title>
<g id="a_node3"><a xlink:href="watchdog_8h.html#ab148f2150b52df5b60e312dded3a2934" target="_top" xlink:title="start_watchdog">
<polygon fill="#ffffff" stroke="#000000" points="317,-.5 317,-19.5 401,-19.5 401,-.5 317,-.5"/>
<text text-anchor="middle" x="359" y="-7.5" font-family="Helvetica,sans-Serif" font-size="10.00" fill="#000000">start_watchdog</text>
</a>
</g>
</g>
<!-- Node137&#45;&gt;Node138 -->
<g id="edge2" class="edge">
<title>Node137&#45;&gt;Node138</title>
<path fill="none" stroke="#191970" d="M291.1744,-10C299.8343,-10 308.5125,-10 316.6303,-10"/>
<polygon fill="#191970" stroke="#191970" points="291.0517,-6.5001 281.0516,-10 291.0516,-13.5001 291.0517,-6.5001"/>
</g>
<!-- Node139 -->
<g id="node4" class="node">
<title>Node139</title>
<g id="a_node4"><a xlink:href="user__main_8h.html#a33113d6dedb440bd7dfa5576e325140c" target="_top" xlink:title="user_init">
<polygon fill="#ffffff" stroke="#000000" points="437,-.5 437,-19.5 491,-19.5 491,-.5 437,-.5"/>
<text text-anchor="middle" x="464" y="-7.5" font-family="Helvetica,sans-Serif" font-size="10.00" fill="#000000">user_init</text>
</a>
</g>
</g>
<!-- Node138&#45;&gt;Node139 -->
<g id="edge3" class="edge">
<title>Node138&#45;&gt;Node139</title>
<path fill="none" stroke="#191970" d="M411.1413,-10C420.087,-10 429.0467,-10 436.9812,-10"/>
<polygon fill="#191970" stroke="#191970" points="411.1025,-6.5001 401.1025,-10 411.1025,-13.5001 411.1025,-6.5001"/>
</g>
</g>
</svg>
