<?xml version="1.0" encoding="UTF-8" standalone="no"?>
<!DOCTYPE svg PUBLIC "-//W3C//DTD SVG 1.1//EN"
 "http://www.w3.org/Graphics/SVG/1.1/DTD/svg11.dtd">
<!-- Generated by graphviz version 2.39.20160927.1334 (20160927.1334)
 -->
<!-- Title: wifi_reconnect_timer_func Pages: 1 -->
<svg width="1239pt" height="332pt"
 viewBox="0.00 0.00 1239.00 332.00" xmlns="http://www.w3.org/2000/svg" xmlns:xlink="http://www.w3.org/1999/xlink">
<g id="graph0" class="graph" transform="scale(1 1) rotate(0) translate(4 328)">
<title>wifi_reconnect_timer_func</title>
<polygon fill="#ffffff" stroke="transparent" points="-4,4 -4,-328 1235,-328 1235,4 -4,4"/>
<!-- Node1 -->
<g id="node1" class="node">
<title>Node1</title>
<polygon fill="#bfbfbf" stroke="#000000" points="0,-38.5 0,-57.5 133,-57.5 133,-38.5 0,-38.5"/>
<text text-anchor="middle" x="66.5" y="-45.5" font-family="Helvetica,sans-Serif" font-size="10.00" fill="#000000">wifi_reconnect_timer_func</text>
</g>
<!-- Node2 -->
<g id="node2" class="node">
<title>Node2</title>
<g id="a_node2"><a xlink:href="espmissingincludes_8h.html#a0bbba7104c948de849f8051d9ac956e3" target="_top" xlink:title="os_printf">
<polygon fill="#ffffff" stroke="#000000" points="751.5,-152.5 751.5,-171.5 806.5,-171.5 806.5,-152.5 751.5,-152.5"/>
<text text-anchor="middle" x="779" y="-159.5" font-family="Helvetica,sans-Serif" font-size="10.00" fill="#000000">os_printf</text>
</a>
</g>
</g>
<!-- Node1&#45;&gt;Node2 -->
<g id="edge1" class="edge">
<title>Node1&#45;&gt;Node2</title>
<path fill="none" stroke="#191970" d="M133.186,-48C194.479,-48 287.861,-48 369,-48 369,-48 369,-48 511,-48 588.827,-48 610.517,-56.9968 681,-90 711.674,-104.363 742.39,-129 761.048,-145.394"/>
<polygon fill="#191970" stroke="#191970" points="758.947,-148.21 768.729,-152.279 763.619,-142.998 758.947,-148.21"/>
</g>
<!-- Node3 -->
<g id="node3" class="node">
<title>Node3</title>
<g id="a_node3"><a xlink:href="wifi_8h.html#aa472c6b7c4b18d171792da3df1be502e" target="_top" xlink:title="wifi_scan_is_running">
<polygon fill="#ffffff" stroke="#000000" points="169,-0.5 169,-19.5 278,-19.5 278,-0.5 169,-0.5"/>
<text text-anchor="middle" x="223.5" y="-7.5" font-family="Helvetica,sans-Serif" font-size="10.00" fill="#000000">wifi_scan_is_running</text>
</a>
</g>
</g>
<!-- Node1&#45;&gt;Node3 -->
<g id="edge2" class="edge">
<title>Node1&#45;&gt;Node3</title>
<path fill="none" stroke="#191970" d="M106.118,-38.411C126.836,-33.3965 152.388,-27.2119 174.356,-21.8947"/>
<polygon fill="#191970" stroke="#191970" points="175.271,-25.2744 184.167,-19.5201 173.624,-18.4708 175.271,-25.2744"/>
</g>
<!-- Node4 -->
<g id="node4" class="node">
<title>Node4</title>
<g id="a_node4"><a xlink:href="wifi_8h.html#a5831b420da0012d53c979c375714d382" target="_top" xlink:title="wifi_start_scan">
<polygon fill="#ffffff" stroke="#000000" points="182,-95.5 182,-114.5 265,-114.5 265,-95.5 182,-95.5"/>
<text text-anchor="middle" x="223.5" y="-102.5" font-family="Helvetica,sans-Serif" font-size="10.00" fill="#000000">wifi_start_scan</text>
</a>
</g>
</g>
<!-- Node1&#45;&gt;Node4 -->
<g id="edge3" class="edge">
<title>Node1&#45;&gt;Node4</title>
<path fill="none" stroke="#191970" d="M92.7783,-57.5405C118.703,-66.9527 158.535,-81.4138 187.417,-91.8999"/>
<polygon fill="#191970" stroke="#191970" points="186.542,-95.3056 197.136,-95.4284 188.931,-88.7258 186.542,-95.3056"/>
</g>
<!-- Node5 -->
<g id="node5" class="node">
<title>Node5</title>
<g id="a_node5"><a xlink:href="wifi_8c.html#ae7011f25db54676b86fefe2caa450a4a" target="_top" xlink:title="wifi_scan_timer_func">
<polygon fill="#ffffff" stroke="#000000" points="314,-114.5 314,-133.5 424,-133.5 424,-114.5 314,-114.5"/>
<text text-anchor="middle" x="369" y="-121.5" font-family="Helvetica,sans-Serif" font-size="10.00" fill="#000000">wifi_scan_timer_func</text>
</a>
</g>
</g>
<!-- Node4&#45;&gt;Node5 -->
<g id="edge4" class="edge">
<title>Node4&#45;&gt;Node5</title>
<path fill="none" stroke="#191970" d="M265.194,-110.445C277.306,-112.026 290.832,-113.793 304.014,-115.514"/>
<polygon fill="#191970" stroke="#191970" points="303.629,-118.993 313.998,-116.818 304.536,-112.052 303.629,-118.993"/>
</g>
<!-- Node5&#45;&gt;Node2 -->
<g id="edge5" class="edge">
<title>Node5&#45;&gt;Node2</title>
<path fill="none" stroke="#191970" d="M405.317,-114.394C464.297,-100.423 584.069,-78.8607 681,-105 710.53,-112.963 740.318,-132.26 759.171,-146.198"/>
<polygon fill="#191970" stroke="#191970" points="757.183,-149.083 767.261,-152.351 761.42,-143.511 757.183,-149.083"/>
</g>
<!-- Node6 -->
<g id="node6" class="node">
<title>Node6</title>
<g id="a_node6"><a xlink:href="wifi_8c.html#a79205b29f65bdd821ad9452bdbf0b747" target="_top" xlink:title="wifi_get_rssi">
<polygon fill="#ffffff" stroke="#000000" points="475,-114.5 475,-133.5 547,-133.5 547,-114.5 475,-114.5"/>
<text text-anchor="middle" x="511" y="-121.5" font-family="Helvetica,sans-Serif" font-size="10.00" fill="#000000">wifi_get_rssi</text>
</a>
</g>
</g>
<!-- Node5&#45;&gt;Node6 -->
<g id="edge6" class="edge">
<title>Node5&#45;&gt;Node6</title>
<path fill="none" stroke="#191970" d="M424.308,-124C437.703,-124 451.883,-124 464.808,-124"/>
<polygon fill="#191970" stroke="#191970" points="464.866,-127.5 474.866,-124 464.866,-120.5 464.866,-127.5"/>
</g>
<!-- Node7 -->
<g id="node7" class="node">
<title>Node7</title>
<g id="a_node7"><a xlink:href="wifi_8c.html#a1ef15ecd9e69811f6db10215c7196281" target="_top" xlink:title="wifi_scan_done_cb">
<polygon fill="#ffffff" stroke="#000000" points="460,-190.5 460,-209.5 562,-209.5 562,-190.5 460,-190.5"/>
<text text-anchor="middle" x="511" y="-197.5" font-family="Helvetica,sans-Serif" font-size="10.00" fill="#000000">wifi_scan_done_cb</text>
</a>
</g>
</g>
<!-- Node5&#45;&gt;Node7 -->
<g id="edge7" class="edge">
<title>Node5&#45;&gt;Node7</title>
<path fill="none" stroke="#191970" d="M384.897,-133.595C402.894,-144.338 433.201,-162.065 460,-176 466.475,-179.367 473.506,-182.809 480.219,-185.996"/>
<polygon fill="#191970" stroke="#191970" points="479.184,-189.377 489.725,-190.446 482.152,-183.037 479.184,-189.377"/>
</g>
<!-- Node7&#45;&gt;Node2 -->
<g id="edge14" class="edge">
<title>Node7&#45;&gt;Node2</title>
<path fill="none" stroke="#191970" d="M550.236,-190.467C565.125,-187.104 582.279,-183.534 598,-181 647.117,-173.084 704.287,-167.718 741.022,-164.759"/>
<polygon fill="#191970" stroke="#191970" points="741.581,-168.226 751.276,-163.954 741.033,-161.248 741.581,-168.226"/>
</g>
<!-- Node8 -->
<g id="node8" class="node">
<title>Node8</title>
<g id="a_node8"><a xlink:href="led_8c.html#aa00afefe8ba48ccd7df635fbc7d4c9fc" target="_top" xlink:title="led_pattern_a">
<polygon fill="#ffffff" stroke="#000000" points="600.5,-266.5 600.5,-285.5 678.5,-285.5 678.5,-266.5 600.5,-266.5"/>
<text text-anchor="middle" x="639.5" y="-273.5" font-family="Helvetica,sans-Serif" font-size="10.00" fill="#000000">led_pattern_a</text>
</a>
</g>
</g>
<!-- Node7&#45;&gt;Node8 -->
<g id="edge8" class="edge">
<title>Node7&#45;&gt;Node8</title>
<path fill="none" stroke="#191970" d="M524.173,-209.533C540.886,-221.414 570.814,-241.983 598,-257 601.076,-258.699 604.331,-260.38 607.612,-261.997"/>
<polygon fill="#191970" stroke="#191970" points="606.26,-265.229 616.795,-266.351 609.259,-258.904 606.26,-265.229"/>
</g>
<!-- Node12 -->
<g id="node12" class="node">
<title>Node12</title>
<g id="a_node12"><a xlink:href="led_8c.html#a7cd1d03b4baad9cb20bf1a43046f61a2" target="_top" xlink:title="led_stop_pattern">
<polygon fill="#ffffff" stroke="#000000" points="733.5,-304.5 733.5,-323.5 824.5,-323.5 824.5,-304.5 733.5,-304.5"/>
<text text-anchor="middle" x="779" y="-311.5" font-family="Helvetica,sans-Serif" font-size="10.00" fill="#000000">led_stop_pattern</text>
</a>
</g>
</g>
<!-- Node7&#45;&gt;Node12 -->
<g id="edge12" class="edge">
<title>Node7&#45;&gt;Node12</title>
<path fill="none" stroke="#191970" d="M516.464,-209.652C528.347,-229.601 558.659,-275.167 598,-295 636.684,-314.502 685.85,-318.564 723.175,-318.131"/>
<polygon fill="#191970" stroke="#191970" points="723.452,-321.626 733.37,-317.899 723.292,-314.628 723.452,-321.626"/>
</g>
<!-- Node13 -->
<g id="node13" class="node">
<title>Node13</title>
<g id="a_node13"><a xlink:href="wifi_8c.html#a0be23fd8148c6a3abf21c739359bed52" target="_top" xlink:title="wifi_default">
<polygon fill="#ffffff" stroke="#000000" points="606,-228.5 606,-247.5 673,-247.5 673,-228.5 606,-228.5"/>
<text text-anchor="middle" x="639.5" y="-235.5" font-family="Helvetica,sans-Serif" font-size="10.00" fill="#000000">wifi_default</text>
</a>
</g>
</g>
<!-- Node7&#45;&gt;Node13 -->
<g id="edge15" class="edge">
<title>Node7&#45;&gt;Node13</title>
<path fill="none" stroke="#191970" d="M543.426,-209.589C559.71,-214.404 579.642,-220.299 597.122,-225.468"/>
<polygon fill="#191970" stroke="#191970" points="596.502,-228.935 607.084,-228.414 598.487,-222.222 596.502,-228.935"/>
</g>
<!-- Node28 -->
<g id="node28" class="node">
<title>Node28</title>
<g id="a_node28"><a xlink:href="wifi_8c.html#ac4389ba687a71cbb616f05b02427eb2a" target="_top" xlink:title="wifi_fallback">
<polygon fill="#ffffff" stroke="#000000" points="604.5,-190.5 604.5,-209.5 674.5,-209.5 674.5,-190.5 604.5,-190.5"/>
<text text-anchor="middle" x="639.5" y="-197.5" font-family="Helvetica,sans-Serif" font-size="10.00" fill="#000000">wifi_fallback</text>
</a>
</g>
</g>
<!-- Node7&#45;&gt;Node28 -->
<g id="edge34" class="edge">
<title>Node7&#45;&gt;Node28</title>
<path fill="none" stroke="#191970" d="M562.156,-200C572.759,-200 583.859,-200 594.234,-200"/>
<polygon fill="#191970" stroke="#191970" points="594.322,-203.5 604.322,-200 594.322,-196.5 594.322,-203.5"/>
</g>
<!-- Node29 -->
<g id="node29" class="node">
<title>Node29</title>
<g id="a_node29"><a xlink:href="wifi_8c.html#a5831b420da0012d53c979c375714d382" target="_top" xlink:title="wifi_start_scan">
<polygon fill="#ffffff" stroke="#000000" points="598,-114.5 598,-133.5 681,-133.5 681,-114.5 598,-114.5"/>
<text text-anchor="middle" x="639.5" y="-121.5" font-family="Helvetica,sans-Serif" font-size="10.00" fill="#000000">wifi_start_scan</text>
</a>
</g>
</g>
<!-- Node7&#45;&gt;Node29 -->
<g id="edge37" class="edge">
<title>Node7&#45;&gt;Node29</title>
<path fill="none" stroke="#191970" d="M534.159,-190.41C543.09,-186.378 553.243,-181.374 562,-176 579.276,-165.398 581.187,-159.322 598,-148 602.746,-144.804 607.936,-141.593 612.989,-138.607"/>
<polygon fill="#191970" stroke="#191970" points="614.894,-141.549 621.812,-133.524 611.399,-135.483 614.894,-141.549"/>
</g>
<!-- Node9 -->
<g id="node9" class="node">
<title>Node9</title>
<g id="a_node9"><a xlink:href="led_8c.html#af6a79b211d188e643a4f1cf7552ac7ee" target="_top" xlink:title="led_blinker_timer_func">
<polygon fill="#ffffff" stroke="#000000" points="720.5,-266.5 720.5,-285.5 837.5,-285.5 837.5,-266.5 720.5,-266.5"/>
<text text-anchor="middle" x="779" y="-273.5" font-family="Helvetica,sans-Serif" font-size="10.00" fill="#000000">led_blinker_timer_func</text>
</a>
</g>
</g>
<!-- Node8&#45;&gt;Node9 -->
<g id="edge9" class="edge">
<title>Node8&#45;&gt;Node9</title>
<path fill="none" stroke="#191970" d="M678.73,-276C688.501,-276 699.268,-276 710.01,-276"/>
<polygon fill="#191970" stroke="#191970" points="710.269,-279.5 720.269,-276 710.269,-272.5 710.269,-279.5"/>
</g>
<!-- Node10 -->
<g id="node10" class="node">
<title>Node10</title>
<g id="a_node10"><a xlink:href="led_8c.html#a7ef0b27e501c77cd25b8bb7a2de6d8bd" target="_top" xlink:title="led_off">
<polygon fill="#ffffff" stroke="#000000" points="889,-304.5 889,-323.5 936,-323.5 936,-304.5 889,-304.5"/>
<text text-anchor="middle" x="912.5" y="-311.5" font-family="Helvetica,sans-Serif" font-size="10.00" fill="#000000">led_off</text>
</a>
</g>
</g>
<!-- Node9&#45;&gt;Node10 -->
<g id="edge10" class="edge">
<title>Node9&#45;&gt;Node10</title>
<path fill="none" stroke="#191970" d="M812.688,-285.589C833.04,-291.382 858.878,-298.737 879.167,-304.512"/>
<polygon fill="#191970" stroke="#191970" points="878.345,-307.917 888.921,-307.288 880.261,-301.184 878.345,-307.917"/>
</g>
<!-- Node11 -->
<g id="node11" class="node">
<title>Node11</title>
<g id="a_node11"><a xlink:href="led_8c.html#a0a23edee5e1db0cd2928c18a42ffe96f" target="_top" xlink:title="led_on">
<polygon fill="#ffffff" stroke="#000000" points="889,-266.5 889,-285.5 936,-285.5 936,-266.5 889,-266.5"/>
<text text-anchor="middle" x="912.5" y="-273.5" font-family="Helvetica,sans-Serif" font-size="10.00" fill="#000000">led_on</text>
</a>
</g>
</g>
<!-- Node9&#45;&gt;Node11 -->
<g id="edge11" class="edge">
<title>Node9&#45;&gt;Node11</title>
<path fill="none" stroke="#191970" d="M837.555,-276C851.535,-276 866.002,-276 878.452,-276"/>
<polygon fill="#191970" stroke="#191970" points="878.812,-279.5 888.812,-276 878.812,-272.5 878.812,-279.5"/>
</g>
<!-- Node12&#45;&gt;Node10 -->
<g id="edge13" class="edge">
<title>Node12&#45;&gt;Node10</title>
<path fill="none" stroke="#191970" d="M824.57,-314C842.291,-314 862.234,-314 878.642,-314"/>
<polygon fill="#191970" stroke="#191970" points="878.855,-317.5 888.855,-314 878.855,-310.5 878.855,-317.5"/>
</g>
<!-- Node13&#45;&gt;Node2 -->
<g id="edge16" class="edge">
<title>Node13&#45;&gt;Node2</title>
<path fill="none" stroke="#191970" d="M664.498,-228.432C670.156,-225.764 675.973,-222.596 681,-219 699.922,-205.466 697.226,-193.257 717,-181 724.497,-176.353 733.211,-172.771 741.697,-170.037"/>
<polygon fill="#191970" stroke="#191970" points="742.836,-173.351 751.466,-167.205 740.886,-166.628 742.836,-173.351"/>
</g>
<!-- Node14 -->
<g id="node14" class="node">
<title>Node14</title>
<g id="a_node14"><a xlink:href="tinyprintf_8c.html#a9738cbc6c538d210941db282e240c7d6" target="_top" xlink:title="tfp_snprintf">
<polygon fill="#ffffff" stroke="#000000" points="746,-190.5 746,-209.5 812,-209.5 812,-190.5 746,-190.5"/>
<text text-anchor="middle" x="779" y="-197.5" font-family="Helvetica,sans-Serif" font-size="10.00" fill="#000000">tfp_snprintf</text>
</a>
</g>
</g>
<!-- Node13&#45;&gt;Node14 -->
<g id="edge17" class="edge">
<title>Node13&#45;&gt;Node14</title>
<path fill="none" stroke="#191970" d="M673.269,-228.801C692.032,-223.69 715.578,-217.276 735.685,-211.799"/>
<polygon fill="#191970" stroke="#191970" points="736.813,-215.119 745.542,-209.114 734.974,-208.365 736.813,-215.119"/>
</g>
<!-- Node27 -->
<g id="node27" class="node">
<title>Node27</title>
<g id="a_node27"><a xlink:href="wifi_8c.html#a2091cde351b02dbc8bd9d52273488bba" target="_top" xlink:title="wifi_get_rssi_timer_func">
<polygon fill="#ffffff" stroke="#000000" points="717,-228.5 717,-247.5 841,-247.5 841,-228.5 717,-228.5"/>
<text text-anchor="middle" x="779" y="-235.5" font-family="Helvetica,sans-Serif" font-size="10.00" fill="#000000">wifi_get_rssi_timer_func</text>
</a>
</g>
</g>
<!-- Node13&#45;&gt;Node27 -->
<g id="edge33" class="edge">
<title>Node13&#45;&gt;Node27</title>
<path fill="none" stroke="#191970" d="M673.269,-238C683.435,-238 695.005,-238 706.671,-238"/>
<polygon fill="#191970" stroke="#191970" points="706.915,-241.5 716.915,-238 706.915,-234.5 706.915,-241.5"/>
</g>
<!-- Node15 -->
<g id="node15" class="node">
<title>Node15</title>
<g id="a_node15"><a xlink:href="tinyprintf_8c.html#ac8c8a66133cf0d7009c0d73b55311a44" target="_top" xlink:title="tfp_vsnprintf">
<polygon fill="#ffffff" stroke="#000000" points="877,-190.5 877,-209.5 948,-209.5 948,-190.5 877,-190.5"/>
<text text-anchor="middle" x="912.5" y="-197.5" font-family="Helvetica,sans-Serif" font-size="10.00" fill="#000000">tfp_vsnprintf</text>
</a>
</g>
</g>
<!-- Node14&#45;&gt;Node15 -->
<g id="edge18" class="edge">
<title>Node14&#45;&gt;Node15</title>
<path fill="none" stroke="#191970" d="M812,-200C828.395,-200 848.475,-200 866.365,-200"/>
<polygon fill="#191970" stroke="#191970" points="866.601,-203.5 876.601,-200 866.601,-196.5 866.601,-203.5"/>
</g>
<!-- Node16 -->
<g id="node16" class="node">
<title>Node16</title>
<g id="a_node16"><a xlink:href="tinyprintf_8c.html#a919051024b2d729e34a54648b3f2462d" target="_top" xlink:title="_vsnprintf_putcf">
<polygon fill="#ffffff" stroke="#000000" points="984,-209.5 984,-228.5 1071,-228.5 1071,-209.5 984,-209.5"/>
<text text-anchor="middle" x="1027.5" y="-216.5" font-family="Helvetica,sans-Serif" font-size="10.00" fill="#000000">_vsnprintf_putcf</text>
</a>
</g>
</g>
<!-- Node15&#45;&gt;Node16 -->
<g id="edge19" class="edge">
<title>Node15&#45;&gt;Node16</title>
<path fill="none" stroke="#191970" d="M948.256,-205.908C956.313,-207.239 965.037,-208.68 973.651,-210.103"/>
<polygon fill="#191970" stroke="#191970" points="973.23,-213.581 983.667,-211.758 974.371,-206.675 973.23,-213.581"/>
</g>
<!-- Node17 -->
<g id="node17" class="node">
<title>Node17</title>
<g id="a_node17"><a xlink:href="tinyprintf_8c.html#a5877e42444463efc71a91b5fe76a6145" target="_top" xlink:title="tfp_format">
<polygon fill="#ffffff" stroke="#000000" points="996.5,-171.5 996.5,-190.5 1058.5,-190.5 1058.5,-171.5 996.5,-171.5"/>
<text text-anchor="middle" x="1027.5" y="-178.5" font-family="Helvetica,sans-Serif" font-size="10.00" fill="#000000">tfp_format</text>
</a>
</g>
</g>
<!-- Node15&#45;&gt;Node17 -->
<g id="edge20" class="edge">
<title>Node15&#45;&gt;Node17</title>
<path fill="none" stroke="#191970" d="M948.256,-194.092C960.31,-192.101 973.859,-189.862 986.298,-187.807"/>
<polygon fill="#191970" stroke="#191970" points="987.133,-191.217 996.429,-186.133 985.992,-184.31 987.133,-191.217"/>
</g>
<!-- Node18 -->
<g id="node18" class="node">
<title>Node18</title>
<g id="a_node18"><a xlink:href="tinyprintf_8c.html#aa97593a5e53af85b608ad0910db92d77" target="_top" xlink:title="a2u">
<polygon fill="#ffffff" stroke="#000000" points="1114.5,-304.5 1114.5,-323.5 1147.5,-323.5 1147.5,-304.5 1114.5,-304.5"/>
<text text-anchor="middle" x="1131" y="-311.5" font-family="Helvetica,sans-Serif" font-size="10.00" fill="#000000">a2u</text>
</a>
</g>
</g>
<!-- Node17&#45;&gt;Node18 -->
<g id="edge21" class="edge">
<title>Node17&#45;&gt;Node18</title>
<path fill="none" stroke="#191970" d="M1058.01,-190.64C1062.78,-193.131 1067.33,-196.213 1071,-200 1100.98,-230.936 1083.28,-254.034 1107,-290 1108.48,-292.238 1110.19,-294.439 1112,-296.545"/>
<polygon fill="#191970" stroke="#191970" points="1109.78,-299.288 1119.23,-304.075 1114.83,-294.439 1109.78,-299.288"/>
</g>
<!-- Node20 -->
<g id="node20" class="node">
<title>Node20</title>
<g id="a_node20"><a xlink:href="tinyprintf_8c.html#a90f9fd8f2133cda7f50be8d67823405c" target="_top" xlink:title="i2a">
<polygon fill="#ffffff" stroke="#000000" points="1116,-228.5 1116,-247.5 1146,-247.5 1146,-228.5 1116,-228.5"/>
<text text-anchor="middle" x="1131" y="-235.5" font-family="Helvetica,sans-Serif" font-size="10.00" fill="#000000">i2a</text>
</a>
</g>
</g>
<!-- Node17&#45;&gt;Node20 -->
<g id="edge23" class="edge">
<title>Node17&#45;&gt;Node20</title>
<path fill="none" stroke="#191970" d="M1051.29,-190.61C1057.78,-193.441 1064.74,-196.676 1071,-200 1083.76,-206.777 1097.41,-215.312 1108.46,-222.576"/>
<polygon fill="#191970" stroke="#191970" points="1106.8,-225.673 1117.06,-228.312 1110.68,-219.85 1106.8,-225.673"/>
</g>
<!-- Node21 -->
<g id="node21" class="node">
<title>Node21</title>
<g id="a_node21"><a xlink:href="tinyprintf_8c.html#ac87ff66a592723f55692eaf8e3f19df8" target="_top" xlink:title="ui2a">
<polygon fill="#ffffff" stroke="#000000" points="1193.5,-247.5 1193.5,-266.5 1228.5,-266.5 1228.5,-247.5 1193.5,-247.5"/>
<text text-anchor="middle" x="1211" y="-254.5" font-family="Helvetica,sans-Serif" font-size="10.00" fill="#000000">ui2a</text>
</a>
</g>
</g>
<!-- Node17&#45;&gt;Node21 -->
<g id="edge30" class="edge">
<title>Node17&#45;&gt;Node21</title>
<path fill="none" stroke="#191970" d="M1056.09,-190.563C1061.39,-193.118 1066.62,-196.241 1071,-200 1093.73,-219.523 1080.76,-242.537 1107,-257 1130.24,-269.808 1161.07,-267.911 1183.11,-263.972"/>
<polygon fill="#191970" stroke="#191970" points="1184.06,-267.351 1193.16,-261.929 1182.66,-260.492 1184.06,-267.351"/>
</g>
<!-- Node22 -->
<g id="node22" class="node">
<title>Node22</title>
<g id="a_node22"><a xlink:href="tinyprintf_8c.html#afebb7696337c3f599b5e8db35c560684" target="_top" xlink:title="li2a">
<polygon fill="#ffffff" stroke="#000000" points="1115,-152.5 1115,-171.5 1147,-171.5 1147,-152.5 1115,-152.5"/>
<text text-anchor="middle" x="1131" y="-159.5" font-family="Helvetica,sans-Serif" font-size="10.00" fill="#000000">li2a</text>
</a>
</g>
</g>
<!-- Node17&#45;&gt;Node22 -->
<g id="edge25" class="edge">
<title>Node17&#45;&gt;Node22</title>
<path fill="none" stroke="#191970" d="M1058.55,-175.299C1073.36,-172.582 1090.87,-169.367 1104.96,-166.78"/>
<polygon fill="#191970" stroke="#191970" points="1105.77,-170.19 1114.98,-164.941 1104.51,-163.305 1105.77,-170.19"/>
</g>
<!-- Node23 -->
<g id="node23" class="node">
<title>Node23</title>
<g id="a_node23"><a xlink:href="tinyprintf_8c.html#a1d61347854a8c290d59b4a21efcefd75" target="_top" xlink:title="uli2a">
<polygon fill="#ffffff" stroke="#000000" points="1192,-161.5 1192,-180.5 1230,-180.5 1230,-161.5 1192,-161.5"/>
<text text-anchor="middle" x="1211" y="-168.5" font-family="Helvetica,sans-Serif" font-size="10.00" fill="#000000">uli2a</text>
</a>
</g>
</g>
<!-- Node17&#45;&gt;Node23 -->
<g id="edge31" class="edge">
<title>Node17&#45;&gt;Node23</title>
<path fill="none" stroke="#191970" d="M1058.74,-182.534C1084.6,-183.436 1122.26,-183.901 1155,-181 1163.81,-180.219 1173.31,-178.761 1181.94,-177.194"/>
<polygon fill="#191970" stroke="#191970" points="1182.78,-180.598 1191.93,-175.268 1181.45,-173.725 1182.78,-180.598"/>
</g>
<!-- Node24 -->
<g id="node24" class="node">
<title>Node24</title>
<g id="a_node24"><a xlink:href="tinyprintf_8c.html#a49c6d2b3d4088012f2c1fe344eef69f3" target="_top" xlink:title="lli2a">
<polygon fill="#ffffff" stroke="#000000" points="1114,-76.5 1114,-95.5 1148,-95.5 1148,-76.5 1114,-76.5"/>
<text text-anchor="middle" x="1131" y="-83.5" font-family="Helvetica,sans-Serif" font-size="10.00" fill="#000000">lli2a</text>
</a>
</g>
</g>
<!-- Node17&#45;&gt;Node24 -->
<g id="edge27" class="edge">
<title>Node17&#45;&gt;Node24</title>
<path fill="none" stroke="#191970" d="M1038.19,-171.191C1055.86,-154.965 1091.38,-122.362 1112.99,-102.529"/>
<polygon fill="#191970" stroke="#191970" points="1115.53,-104.955 1120.53,-95.614 1110.79,-99.7976 1115.53,-104.955"/>
</g>
<!-- Node25 -->
<g id="node25" class="node">
<title>Node25</title>
<g id="a_node25"><a xlink:href="tinyprintf_8c.html#abcf035dd576671b0cc897de9dd8c75b0" target="_top" xlink:title="ulli2a">
<polygon fill="#ffffff" stroke="#000000" points="1191,-104.5 1191,-123.5 1231,-123.5 1231,-104.5 1191,-104.5"/>
<text text-anchor="middle" x="1211" y="-111.5" font-family="Helvetica,sans-Serif" font-size="10.00" fill="#000000">ulli2a</text>
</a>
</g>
</g>
<!-- Node17&#45;&gt;Node25 -->
<g id="edge32" class="edge">
<title>Node17&#45;&gt;Node25</title>
<path fill="none" stroke="#191970" d="M1045.11,-171.488C1060.97,-163.189 1085.09,-151.221 1107,-143 1131.32,-133.875 1159.79,-126.131 1180.79,-120.947"/>
<polygon fill="#191970" stroke="#191970" points="1181.83,-124.295 1190.73,-118.544 1180.19,-117.49 1181.83,-124.295"/>
</g>
<!-- Node26 -->
<g id="node26" class="node">
<title>Node26</title>
<g id="a_node26"><a xlink:href="tinyprintf_8c.html#a6252dbfebb2c8783c4e3107d551082dd" target="_top" xlink:title="putchw">
<polygon fill="#ffffff" stroke="#000000" points="1107,-38.5 1107,-57.5 1155,-57.5 1155,-38.5 1107,-38.5"/>
<text text-anchor="middle" x="1131" y="-45.5" font-family="Helvetica,sans-Serif" font-size="10.00" fill="#000000">putchw</text>
</a>
</g>
</g>
<!-- Node17&#45;&gt;Node26 -->
<g id="edge29" class="edge">
<title>Node17&#45;&gt;Node26</title>
<path fill="none" stroke="#191970" d="M1032.85,-171.454C1044.61,-150.96 1074.26,-101.792 1107,-67 1107.76,-66.1873 1108.57,-65.3801 1109.39,-64.5829"/>
<polygon fill="#191970" stroke="#191970" points="1111.94,-67.0023 1117.2,-57.803 1107.35,-61.7169 1111.94,-67.0023"/>
</g>
<!-- Node19 -->
<g id="node19" class="node">
<title>Node19</title>
<g id="a_node19"><a xlink:href="tinyprintf_8c.html#aa853a0c5ba64fa2546d488b86192e7e3" target="_top" xlink:title="a2d">
<polygon fill="#ffffff" stroke="#000000" points="1194.5,-304.5 1194.5,-323.5 1227.5,-323.5 1227.5,-304.5 1194.5,-304.5"/>
<text text-anchor="middle" x="1211" y="-311.5" font-family="Helvetica,sans-Serif" font-size="10.00" fill="#000000">a2d</text>
</a>
</g>
</g>
<!-- Node18&#45;&gt;Node19 -->
<g id="edge22" class="edge">
<title>Node18&#45;&gt;Node19</title>
<path fill="none" stroke="#191970" d="M1147.58,-314C1158.2,-314 1172.22,-314 1184.37,-314"/>
<polygon fill="#191970" stroke="#191970" points="1184.45,-317.5 1194.45,-314 1184.45,-310.5 1184.45,-317.5"/>
</g>
<!-- Node20&#45;&gt;Node21 -->
<g id="edge24" class="edge">
<title>Node20&#45;&gt;Node21</title>
<path fill="none" stroke="#191970" d="M1146.05,-241.574C1156.51,-244.06 1170.78,-247.447 1183.27,-250.414"/>
<polygon fill="#191970" stroke="#191970" points="1182.69,-253.873 1193.23,-252.779 1184.31,-247.063 1182.69,-253.873"/>
</g>
<!-- Node22&#45;&gt;Node23 -->
<g id="edge26" class="edge">
<title>Node22&#45;&gt;Node23</title>
<path fill="none" stroke="#191970" d="M1147.19,-163.821C1157.05,-164.93 1169.94,-166.38 1181.55,-167.687"/>
<polygon fill="#191970" stroke="#191970" points="1181.4,-171.192 1191.73,-168.832 1182.19,-164.236 1181.4,-171.192"/>
</g>
<!-- Node24&#45;&gt;Node25 -->
<g id="edge28" class="edge">
<title>Node24&#45;&gt;Node25</title>
<path fill="none" stroke="#191970" d="M1148.36,-92.0756C1157.93,-95.4251 1170.08,-99.6769 1181.12,-103.543"/>
<polygon fill="#191970" stroke="#191970" points="1180.26,-106.948 1190.85,-106.948 1182.57,-100.341 1180.26,-106.948"/>
</g>
<!-- Node28&#45;&gt;Node2 -->
<g id="edge35" class="edge">
<title>Node28&#45;&gt;Node2</title>
<path fill="none" stroke="#191970" d="M674.702,-190.411C695.095,-184.856 720.759,-177.865 741.526,-172.208"/>
<polygon fill="#191970" stroke="#191970" points="742.554,-175.555 751.283,-169.55 740.715,-168.802 742.554,-175.555"/>
</g>
<!-- Node28&#45;&gt;Node14 -->
<g id="edge36" class="edge">
<title>Node28&#45;&gt;Node14</title>
<path fill="none" stroke="#191970" d="M674.702,-200C693.175,-200 715.973,-200 735.538,-200"/>
<polygon fill="#191970" stroke="#191970" points="735.73,-203.5 745.73,-200 735.73,-196.5 735.73,-203.5"/>
</g>
<!-- Node29&#45;&gt;Node5 -->
<g id="edge38" class="edge">
<title>Node29&#45;&gt;Node5</title>
<path fill="none" stroke="#191970" d="M608.144,-133.506C594.163,-137.27 577.404,-141.139 562,-143 516.994,-148.436 505.093,-147.657 460,-143 445.531,-141.506 429.972,-138.709 415.882,-135.711"/>
<polygon fill="#191970" stroke="#191970" points="416.439,-132.25 405.92,-133.509 414.928,-139.085 416.439,-132.25"/>
</g>
</g>
</svg>
