<?xml version="1.0" encoding="UTF-8" standalone="no"?>
<!DOCTYPE svg PUBLIC "-//W3C//DTD SVG 1.1//EN"
 "http://www.w3.org/Graphics/SVG/1.1/DTD/svg11.dtd">
<!-- Generated by graphviz version 2.39.20160927.1334 (20160927.1334)
 -->
<!-- Title: watchdog_timer_func Pages: 1 -->
<svg width="1387pt" height="370pt"
 viewBox="0.00 0.00 1387.00 370.00" xmlns="http://www.w3.org/2000/svg" xmlns:xlink="http://www.w3.org/1999/xlink">
<g id="graph0" class="graph" transform="scale(1 1) rotate(0) translate(4 366)">
<title>watchdog_timer_func</title>
<polygon fill="#ffffff" stroke="transparent" points="-4,4 -4,-366 1383,-366 1383,4 -4,4"/>
<!-- Node1 -->
<g id="node1" class="node">
<title>Node1</title>
<polygon fill="#bfbfbf" stroke="#000000" points="0,-285.5 0,-304.5 112,-304.5 112,-285.5 0,-285.5"/>
<text text-anchor="middle" x="56" y="-292.5" font-family="Helvetica,sans-Serif" font-size="10.00" fill="#000000">watchdog_timer_func</text>
</g>
<!-- Node2 -->
<g id="node2" class="node">
<title>Node2</title>
<g id="a_node2"><a xlink:href="unix__time_8c.html#a36607dbd5be7bee11f8c20932b3df407" target="_top" xlink:title="get_unix_time">
<polygon fill="#ffffff" stroke="#000000" points="175,-342.5 175,-361.5 254,-361.5 254,-342.5 175,-342.5"/>
<text text-anchor="middle" x="214.5" y="-349.5" font-family="Helvetica,sans-Serif" font-size="10.00" fill="#000000">get_unix_time</text>
</a>
</g>
</g>
<!-- Node1&#45;&gt;Node2 -->
<g id="edge1" class="edge">
<title>Node1&#45;&gt;Node2</title>
<path fill="none" stroke="#191970" d="M77.2976,-304.604C95.7761,-312.742 123.356,-324.421 148,-333 154.552,-335.281 161.534,-337.5 168.419,-339.569"/>
<polygon fill="#191970" stroke="#191970" points="167.793,-343.033 178.374,-342.483 169.759,-336.315 167.793,-343.033"/>
</g>
<!-- Node3 -->
<g id="node3" class="node">
<title>Node3</title>
<g id="a_node3"><a xlink:href="espmissingincludes_8h.html#a0bbba7104c948de849f8051d9ac956e3" target="_top" xlink:title="os_printf">
<polygon fill="#ffffff" stroke="#000000" points="899.5,-209.5 899.5,-228.5 954.5,-228.5 954.5,-209.5 899.5,-209.5"/>
<text text-anchor="middle" x="927" y="-216.5" font-family="Helvetica,sans-Serif" font-size="10.00" fill="#000000">os_printf</text>
</a>
</g>
</g>
<!-- Node1&#45;&gt;Node3 -->
<g id="edge2" class="edge">
<title>Node1&#45;&gt;Node3</title>
<path fill="none" stroke="#191970" d="M112.076,-289.581C175.112,-283.965 280.547,-276 371.5,-276 371.5,-276 371.5,-276 659,-276 743.508,-276 839.791,-248.549 890.808,-231.748"/>
<polygon fill="#191970" stroke="#191970" points="892.018,-235.033 900.391,-228.541 889.797,-228.395 892.018,-235.033"/>
</g>
<!-- Node4 -->
<g id="node4" class="node">
<title>Node4</title>
<g id="a_node4"><a xlink:href="watchdog_8c.html#a47b6861ffbed37fef88aa644f10ba917" target="_top" xlink:title="wifi_reconnect_timer_func">
<polygon fill="#ffffff" stroke="#000000" points="148,-304.5 148,-323.5 281,-323.5 281,-304.5 148,-304.5"/>
<text text-anchor="middle" x="214.5" y="-311.5" font-family="Helvetica,sans-Serif" font-size="10.00" fill="#000000">wifi_reconnect_timer_func</text>
</a>
</g>
</g>
<!-- Node1&#45;&gt;Node4 -->
<g id="edge3" class="edge">
<title>Node1&#45;&gt;Node4</title>
<path fill="none" stroke="#191970" d="M112.327,-301.752C120.578,-302.741 129.19,-303.774 137.764,-304.801"/>
<polygon fill="#191970" stroke="#191970" points="137.44,-308.288 147.786,-306.003 138.274,-301.337 137.44,-308.288"/>
</g>
<!-- Node32 -->
<g id="node32" class="node">
<title>Node32</title>
<g id="a_node32"><a xlink:href="wifi_8h.html#a623e279143c8d4f8ff19766d7450a489" target="_top" xlink:title="wifi_stop_scan">
<polygon fill="#ffffff" stroke="#000000" points="173.5,-228.5 173.5,-247.5 255.5,-247.5 255.5,-228.5 173.5,-228.5"/>
<text text-anchor="middle" x="214.5" y="-235.5" font-family="Helvetica,sans-Serif" font-size="10.00" fill="#000000">wifi_stop_scan</text>
</a>
</g>
</g>
<!-- Node1&#45;&gt;Node32 -->
<g id="edge42" class="edge">
<title>Node1&#45;&gt;Node32</title>
<path fill="none" stroke="#191970" d="M82.5293,-285.459C108.816,-276.006 149.265,-261.46 178.454,-250.963"/>
<polygon fill="#191970" stroke="#191970" points="179.659,-254.249 187.884,-247.572 177.29,-247.662 179.659,-254.249"/>
</g>
<!-- Node4&#45;&gt;Node3 -->
<g id="edge5" class="edge">
<title>Node4&#45;&gt;Node3</title>
<path fill="none" stroke="#191970" d="M261.17,-323.54C320.396,-334.796 425.828,-352 517,-352 517,-352 517,-352 659,-352 762.992,-352 868.241,-270.655 909.178,-235.198"/>
<polygon fill="#191970" stroke="#191970" points="911.516,-237.804 916.702,-228.565 906.886,-232.553 911.516,-237.804"/>
</g>
<!-- Node5 -->
<g id="node5" class="node">
<title>Node5</title>
<g id="a_node5"><a xlink:href="wifi_8h.html#aa472c6b7c4b18d171792da3df1be502e" target="_top" xlink:title="wifi_scan_is_running">
<polygon fill="#ffffff" stroke="#000000" points="317,-304.5 317,-323.5 426,-323.5 426,-304.5 317,-304.5"/>
<text text-anchor="middle" x="371.5" y="-311.5" font-family="Helvetica,sans-Serif" font-size="10.00" fill="#000000">wifi_scan_is_running</text>
</a>
</g>
</g>
<!-- Node4&#45;&gt;Node5 -->
<g id="edge4" class="edge">
<title>Node4&#45;&gt;Node5</title>
<path fill="none" stroke="#191970" d="M281.082,-314C289.519,-314 298.144,-314 306.556,-314"/>
<polygon fill="#191970" stroke="#191970" points="306.682,-317.5 316.682,-314 306.682,-310.5 306.682,-317.5"/>
</g>
<!-- Node6 -->
<g id="node6" class="node">
<title>Node6</title>
<g id="a_node6"><a xlink:href="wifi_8h.html#a5831b420da0012d53c979c375714d382" target="_top" xlink:title="wifi_start_scan">
<polygon fill="#ffffff" stroke="#000000" points="330,-199.5 330,-218.5 413,-218.5 413,-199.5 330,-199.5"/>
<text text-anchor="middle" x="371.5" y="-206.5" font-family="Helvetica,sans-Serif" font-size="10.00" fill="#000000">wifi_start_scan</text>
</a>
</g>
</g>
<!-- Node4&#45;&gt;Node6 -->
<g id="edge6" class="edge">
<title>Node4&#45;&gt;Node6</title>
<path fill="none" stroke="#191970" d="M228.71,-304.497C255.894,-286.316 315.484,-246.463 348.441,-224.421"/>
<polygon fill="#191970" stroke="#191970" points="350.615,-227.178 356.982,-218.71 346.724,-221.36 350.615,-227.178"/>
</g>
<!-- Node7 -->
<g id="node7" class="node">
<title>Node7</title>
<g id="a_node7"><a xlink:href="wifi_8c.html#ae7011f25db54676b86fefe2caa450a4a" target="_top" xlink:title="wifi_scan_timer_func">
<polygon fill="#ffffff" stroke="#000000" points="462,-171.5 462,-190.5 572,-190.5 572,-171.5 462,-171.5"/>
<text text-anchor="middle" x="517" y="-178.5" font-family="Helvetica,sans-Serif" font-size="10.00" fill="#000000">wifi_scan_timer_func</text>
</a>
</g>
</g>
<!-- Node6&#45;&gt;Node7 -->
<g id="edge7" class="edge">
<title>Node6&#45;&gt;Node7</title>
<path fill="none" stroke="#191970" d="M413.194,-200.976C426.977,-198.324 442.59,-195.319 457.444,-192.461"/>
<polygon fill="#191970" stroke="#191970" points="458.415,-195.838 467.574,-190.512 457.093,-188.964 458.415,-195.838"/>
</g>
<!-- Node7&#45;&gt;Node3 -->
<g id="edge8" class="edge">
<title>Node7&#45;&gt;Node3</title>
<path fill="none" stroke="#191970" d="M556.649,-190.594C572.526,-194.091 591.043,-197.737 608,-200 708.902,-213.465 829.037,-217.389 889.001,-218.531"/>
<polygon fill="#191970" stroke="#191970" points="889.074,-222.033 899.134,-218.709 889.196,-215.034 889.074,-222.033"/>
</g>
<!-- Node8 -->
<g id="node8" class="node">
<title>Node8</title>
<g id="a_node8"><a xlink:href="wifi_8c.html#a79205b29f65bdd821ad9452bdbf0b747" target="_top" xlink:title="wifi_get_rssi">
<polygon fill="#ffffff" stroke="#000000" points="623,-171.5 623,-190.5 695,-190.5 695,-171.5 623,-171.5"/>
<text text-anchor="middle" x="659" y="-178.5" font-family="Helvetica,sans-Serif" font-size="10.00" fill="#000000">wifi_get_rssi</text>
</a>
</g>
</g>
<!-- Node7&#45;&gt;Node8 -->
<g id="edge9" class="edge">
<title>Node7&#45;&gt;Node8</title>
<path fill="none" stroke="#191970" d="M572.308,-181C585.703,-181 599.883,-181 612.808,-181"/>
<polygon fill="#191970" stroke="#191970" points="612.866,-184.5 622.866,-181 612.866,-177.5 612.866,-184.5"/>
</g>
<!-- Node9 -->
<g id="node9" class="node">
<title>Node9</title>
<g id="a_node9"><a xlink:href="wifi_8c.html#a1ef15ecd9e69811f6db10215c7196281" target="_top" xlink:title="wifi_scan_done_cb">
<polygon fill="#ffffff" stroke="#000000" points="608,-114.5 608,-133.5 710,-133.5 710,-114.5 608,-114.5"/>
<text text-anchor="middle" x="659" y="-121.5" font-family="Helvetica,sans-Serif" font-size="10.00" fill="#000000">wifi_scan_done_cb</text>
</a>
</g>
</g>
<!-- Node7&#45;&gt;Node9 -->
<g id="edge10" class="edge">
<title>Node7&#45;&gt;Node9</title>
<path fill="none" stroke="#191970" d="M540.768,-171.459C564.011,-162.13 599.613,-147.838 625.678,-137.376"/>
<polygon fill="#191970" stroke="#191970" points="627.178,-140.545 635.155,-133.572 624.571,-134.049 627.178,-140.545"/>
</g>
<!-- Node9&#45;&gt;Node3 -->
<g id="edge17" class="edge">
<title>Node9&#45;&gt;Node3</title>
<path fill="none" stroke="#191970" d="M670.579,-133.651C686.534,-146.443 716.648,-168.815 746,-181 793.301,-200.635 851.924,-210.555 889.399,-215.242"/>
<polygon fill="#191970" stroke="#191970" points="889.037,-218.724 899.38,-216.43 889.864,-211.773 889.037,-218.724"/>
</g>
<!-- Node10 -->
<g id="node10" class="node">
<title>Node10</title>
<g id="a_node10"><a xlink:href="led_8c.html#aa00afefe8ba48ccd7df635fbc7d4c9fc" target="_top" xlink:title="led_pattern_a">
<polygon fill="#ffffff" stroke="#000000" points="748.5,-76.5 748.5,-95.5 826.5,-95.5 826.5,-76.5 748.5,-76.5"/>
<text text-anchor="middle" x="787.5" y="-83.5" font-family="Helvetica,sans-Serif" font-size="10.00" fill="#000000">led_pattern_a</text>
</a>
</g>
</g>
<!-- Node9&#45;&gt;Node10 -->
<g id="edge11" class="edge">
<title>Node9&#45;&gt;Node10</title>
<path fill="none" stroke="#191970" d="M691.426,-114.411C707.71,-109.596 727.642,-103.701 745.122,-98.532"/>
<polygon fill="#191970" stroke="#191970" points="746.487,-101.778 755.084,-95.5859 744.502,-95.0655 746.487,-101.778"/>
</g>
<!-- Node14 -->
<g id="node14" class="node">
<title>Node14</title>
<g id="a_node14"><a xlink:href="led_8c.html#a7cd1d03b4baad9cb20bf1a43046f61a2" target="_top" xlink:title="led_stop_pattern">
<polygon fill="#ffffff" stroke="#000000" points="881.5,-38.5 881.5,-57.5 972.5,-57.5 972.5,-38.5 881.5,-38.5"/>
<text text-anchor="middle" x="927" y="-45.5" font-family="Helvetica,sans-Serif" font-size="10.00" fill="#000000">led_stop_pattern</text>
</a>
</g>
</g>
<!-- Node9&#45;&gt;Node14 -->
<g id="edge15" class="edge">
<title>Node9&#45;&gt;Node14</title>
<path fill="none" stroke="#191970" d="M669.876,-114.354C685.489,-101.131 715.723,-77.7884 746,-67 786.227,-52.666 834.43,-48.1715 870.974,-47.1222"/>
<polygon fill="#191970" stroke="#191970" points="871.511,-50.612 881.436,-46.9061 871.366,-43.6135 871.511,-50.612"/>
</g>
<!-- Node15 -->
<g id="node15" class="node">
<title>Node15</title>
<g id="a_node15"><a xlink:href="wifi_8c.html#a0be23fd8148c6a3abf21c739359bed52" target="_top" xlink:title="wifi_default">
<polygon fill="#ffffff" stroke="#000000" points="754,-114.5 754,-133.5 821,-133.5 821,-114.5 754,-114.5"/>
<text text-anchor="middle" x="787.5" y="-121.5" font-family="Helvetica,sans-Serif" font-size="10.00" fill="#000000">wifi_default</text>
</a>
</g>
</g>
<!-- Node9&#45;&gt;Node15 -->
<g id="edge18" class="edge">
<title>Node9&#45;&gt;Node15</title>
<path fill="none" stroke="#191970" d="M710.156,-124C721.294,-124 732.98,-124 743.798,-124"/>
<polygon fill="#191970" stroke="#191970" points="743.858,-127.5 753.857,-124 743.857,-120.5 743.858,-127.5"/>
</g>
<!-- Node30 -->
<g id="node30" class="node">
<title>Node30</title>
<g id="a_node30"><a xlink:href="wifi_8c.html#ac4389ba687a71cbb616f05b02427eb2a" target="_top" xlink:title="wifi_fallback">
<polygon fill="#ffffff" stroke="#000000" points="752.5,-152.5 752.5,-171.5 822.5,-171.5 822.5,-152.5 752.5,-152.5"/>
<text text-anchor="middle" x="787.5" y="-159.5" font-family="Helvetica,sans-Serif" font-size="10.00" fill="#000000">wifi_fallback</text>
</a>
</g>
</g>
<!-- Node9&#45;&gt;Node30 -->
<g id="edge37" class="edge">
<title>Node9&#45;&gt;Node30</title>
<path fill="none" stroke="#191970" d="M691.426,-133.589C707.71,-138.404 727.642,-144.299 745.122,-149.468"/>
<polygon fill="#191970" stroke="#191970" points="744.502,-152.935 755.084,-152.414 746.487,-146.222 744.502,-152.935"/>
</g>
<!-- Node31 -->
<g id="node31" class="node">
<title>Node31</title>
<g id="a_node31"><a xlink:href="wifi_8c.html#a5831b420da0012d53c979c375714d382" target="_top" xlink:title="wifi_start_scan">
<polygon fill="#ffffff" stroke="#000000" points="746,-0.5 746,-19.5 829,-19.5 829,-0.5 746,-0.5"/>
<text text-anchor="middle" x="787.5" y="-7.5" font-family="Helvetica,sans-Serif" font-size="10.00" fill="#000000">wifi_start_scan</text>
</a>
</g>
</g>
<!-- Node9&#45;&gt;Node31 -->
<g id="edge40" class="edge">
<title>Node9&#45;&gt;Node31</title>
<path fill="none" stroke="#191970" d="M666.653,-114.483C680.962,-97.0779 713.294,-59.5584 746,-34 750.156,-30.7521 754.798,-27.6415 759.43,-24.7992"/>
<polygon fill="#191970" stroke="#191970" points="761.313,-27.7531 768.196,-19.6986 757.792,-21.7028 761.313,-27.7531"/>
</g>
<!-- Node11 -->
<g id="node11" class="node">
<title>Node11</title>
<g id="a_node11"><a xlink:href="led_8c.html#af6a79b211d188e643a4f1cf7552ac7ee" target="_top" xlink:title="led_blinker_timer_func">
<polygon fill="#ffffff" stroke="#000000" points="868.5,-76.5 868.5,-95.5 985.5,-95.5 985.5,-76.5 868.5,-76.5"/>
<text text-anchor="middle" x="927" y="-83.5" font-family="Helvetica,sans-Serif" font-size="10.00" fill="#000000">led_blinker_timer_func</text>
</a>
</g>
</g>
<!-- Node10&#45;&gt;Node11 -->
<g id="edge12" class="edge">
<title>Node10&#45;&gt;Node11</title>
<path fill="none" stroke="#191970" d="M826.73,-86C836.501,-86 847.268,-86 858.01,-86"/>
<polygon fill="#191970" stroke="#191970" points="858.269,-89.5001 868.269,-86 858.269,-82.5001 858.269,-89.5001"/>
</g>
<!-- Node12 -->
<g id="node12" class="node">
<title>Node12</title>
<g id="a_node12"><a xlink:href="led_8c.html#a7ef0b27e501c77cd25b8bb7a2de6d8bd" target="_top" xlink:title="led_off">
<polygon fill="#ffffff" stroke="#000000" points="1037,-38.5 1037,-57.5 1084,-57.5 1084,-38.5 1037,-38.5"/>
<text text-anchor="middle" x="1060.5" y="-45.5" font-family="Helvetica,sans-Serif" font-size="10.00" fill="#000000">led_off</text>
</a>
</g>
</g>
<!-- Node11&#45;&gt;Node12 -->
<g id="edge13" class="edge">
<title>Node11&#45;&gt;Node12</title>
<path fill="none" stroke="#191970" d="M960.688,-76.411C981.04,-70.6178 1006.88,-63.2631 1027.17,-57.4882"/>
<polygon fill="#191970" stroke="#191970" points="1028.26,-60.8157 1036.92,-54.7116 1026.34,-54.0831 1028.26,-60.8157"/>
</g>
<!-- Node13 -->
<g id="node13" class="node">
<title>Node13</title>
<g id="a_node13"><a xlink:href="led_8c.html#a0a23edee5e1db0cd2928c18a42ffe96f" target="_top" xlink:title="led_on">
<polygon fill="#ffffff" stroke="#000000" points="1037,-76.5 1037,-95.5 1084,-95.5 1084,-76.5 1037,-76.5"/>
<text text-anchor="middle" x="1060.5" y="-83.5" font-family="Helvetica,sans-Serif" font-size="10.00" fill="#000000">led_on</text>
</a>
</g>
</g>
<!-- Node11&#45;&gt;Node13 -->
<g id="edge14" class="edge">
<title>Node11&#45;&gt;Node13</title>
<path fill="none" stroke="#191970" d="M985.555,-86C999.535,-86 1014,-86 1026.45,-86"/>
<polygon fill="#191970" stroke="#191970" points="1026.81,-89.5001 1036.81,-86 1026.81,-82.5001 1026.81,-89.5001"/>
</g>
<!-- Node14&#45;&gt;Node12 -->
<g id="edge16" class="edge">
<title>Node14&#45;&gt;Node12</title>
<path fill="none" stroke="#191970" d="M972.57,-48C990.291,-48 1010.23,-48 1026.64,-48"/>
<polygon fill="#191970" stroke="#191970" points="1026.86,-51.5001 1036.86,-48 1026.86,-44.5001 1026.86,-51.5001"/>
</g>
<!-- Node15&#45;&gt;Node3 -->
<g id="edge19" class="edge">
<title>Node15&#45;&gt;Node3</title>
<path fill="none" stroke="#191970" d="M812.498,-133.568C818.156,-136.236 823.973,-139.404 829,-143 847.922,-156.534 846.927,-166.351 865,-181 875.65,-189.633 888.422,-197.779 899.598,-204.299"/>
<polygon fill="#191970" stroke="#191970" points="898.104,-207.476 908.529,-209.367 901.559,-201.388 898.104,-207.476"/>
</g>
<!-- Node16 -->
<g id="node16" class="node">
<title>Node16</title>
<g id="a_node16"><a xlink:href="tinyprintf_8c.html#a9738cbc6c538d210941db282e240c7d6" target="_top" xlink:title="tfp_snprintf">
<polygon fill="#ffffff" stroke="#000000" points="894,-152.5 894,-171.5 960,-171.5 960,-152.5 894,-152.5"/>
<text text-anchor="middle" x="927" y="-159.5" font-family="Helvetica,sans-Serif" font-size="10.00" fill="#000000">tfp_snprintf</text>
</a>
</g>
</g>
<!-- Node15&#45;&gt;Node16 -->
<g id="edge20" class="edge">
<title>Node15&#45;&gt;Node16</title>
<path fill="none" stroke="#191970" d="M821.269,-133.199C840.032,-138.31 863.578,-144.724 883.685,-150.201"/>
<polygon fill="#191970" stroke="#191970" points="882.974,-153.635 893.542,-152.886 884.813,-146.881 882.974,-153.635"/>
</g>
<!-- Node29 -->
<g id="node29" class="node">
<title>Node29</title>
<g id="a_node29"><a xlink:href="wifi_8c.html#a2091cde351b02dbc8bd9d52273488bba" target="_top" xlink:title="wifi_get_rssi_timer_func">
<polygon fill="#ffffff" stroke="#000000" points="865,-114.5 865,-133.5 989,-133.5 989,-114.5 865,-114.5"/>
<text text-anchor="middle" x="927" y="-121.5" font-family="Helvetica,sans-Serif" font-size="10.00" fill="#000000">wifi_get_rssi_timer_func</text>
</a>
</g>
</g>
<!-- Node15&#45;&gt;Node29 -->
<g id="edge36" class="edge">
<title>Node15&#45;&gt;Node29</title>
<path fill="none" stroke="#191970" d="M821.269,-124C831.435,-124 843.005,-124 854.671,-124"/>
<polygon fill="#191970" stroke="#191970" points="854.915,-127.5 864.915,-124 854.915,-120.5 854.915,-127.5"/>
</g>
<!-- Node17 -->
<g id="node17" class="node">
<title>Node17</title>
<g id="a_node17"><a xlink:href="tinyprintf_8c.html#ac8c8a66133cf0d7009c0d73b55311a44" target="_top" xlink:title="tfp_vsnprintf">
<polygon fill="#ffffff" stroke="#000000" points="1025,-152.5 1025,-171.5 1096,-171.5 1096,-152.5 1025,-152.5"/>
<text text-anchor="middle" x="1060.5" y="-159.5" font-family="Helvetica,sans-Serif" font-size="10.00" fill="#000000">tfp_vsnprintf</text>
</a>
</g>
</g>
<!-- Node16&#45;&gt;Node17 -->
<g id="edge21" class="edge">
<title>Node16&#45;&gt;Node17</title>
<path fill="none" stroke="#191970" d="M960,-162C976.395,-162 996.475,-162 1014.37,-162"/>
<polygon fill="#191970" stroke="#191970" points="1014.6,-165.5 1024.6,-162 1014.6,-158.5 1014.6,-165.5"/>
</g>
<!-- Node18 -->
<g id="node18" class="node">
<title>Node18</title>
<g id="a_node18"><a xlink:href="tinyprintf_8c.html#a919051024b2d729e34a54648b3f2462d" target="_top" xlink:title="_vsnprintf_putcf">
<polygon fill="#ffffff" stroke="#000000" points="1132,-171.5 1132,-190.5 1219,-190.5 1219,-171.5 1132,-171.5"/>
<text text-anchor="middle" x="1175.5" y="-178.5" font-family="Helvetica,sans-Serif" font-size="10.00" fill="#000000">_vsnprintf_putcf</text>
</a>
</g>
</g>
<!-- Node17&#45;&gt;Node18 -->
<g id="edge22" class="edge">
<title>Node17&#45;&gt;Node18</title>
<path fill="none" stroke="#191970" d="M1096.26,-167.908C1104.31,-169.239 1113.04,-170.68 1121.65,-172.103"/>
<polygon fill="#191970" stroke="#191970" points="1121.23,-175.581 1131.67,-173.758 1122.37,-168.675 1121.23,-175.581"/>
</g>
<!-- Node19 -->
<g id="node19" class="node">
<title>Node19</title>
<g id="a_node19"><a xlink:href="tinyprintf_8c.html#a5877e42444463efc71a91b5fe76a6145" target="_top" xlink:title="tfp_format">
<polygon fill="#ffffff" stroke="#000000" points="1144.5,-133.5 1144.5,-152.5 1206.5,-152.5 1206.5,-133.5 1144.5,-133.5"/>
<text text-anchor="middle" x="1175.5" y="-140.5" font-family="Helvetica,sans-Serif" font-size="10.00" fill="#000000">tfp_format</text>
</a>
</g>
</g>
<!-- Node17&#45;&gt;Node19 -->
<g id="edge23" class="edge">
<title>Node17&#45;&gt;Node19</title>
<path fill="none" stroke="#191970" d="M1096.26,-156.092C1108.31,-154.101 1121.86,-151.862 1134.3,-149.807"/>
<polygon fill="#191970" stroke="#191970" points="1135.13,-153.217 1144.43,-148.133 1133.99,-146.31 1135.13,-153.217"/>
</g>
<!-- Node20 -->
<g id="node20" class="node">
<title>Node20</title>
<g id="a_node20"><a xlink:href="tinyprintf_8c.html#aa97593a5e53af85b608ad0910db92d77" target="_top" xlink:title="a2u">
<polygon fill="#ffffff" stroke="#000000" points="1262.5,-266.5 1262.5,-285.5 1295.5,-285.5 1295.5,-266.5 1262.5,-266.5"/>
<text text-anchor="middle" x="1279" y="-273.5" font-family="Helvetica,sans-Serif" font-size="10.00" fill="#000000">a2u</text>
</a>
</g>
</g>
<!-- Node19&#45;&gt;Node20 -->
<g id="edge24" class="edge">
<title>Node19&#45;&gt;Node20</title>
<path fill="none" stroke="#191970" d="M1206.07,-152.584C1210.83,-155.081 1215.36,-158.179 1219,-162 1250.13,-194.709 1228.34,-220.561 1255,-257 1255.55,-257.751 1256.14,-258.487 1256.75,-259.209"/>
<polygon fill="#191970" stroke="#191970" points="1254.48,-261.883 1264.13,-266.272 1259.33,-256.827 1254.48,-261.883"/>
</g>
<!-- Node22 -->
<g id="node22" class="node">
<title>Node22</title>
<g id="a_node22"><a xlink:href="tinyprintf_8c.html#a90f9fd8f2133cda7f50be8d67823405c" target="_top" xlink:title="i2a">
<polygon fill="#ffffff" stroke="#000000" points="1264,-228.5 1264,-247.5 1294,-247.5 1294,-228.5 1264,-228.5"/>
<text text-anchor="middle" x="1279" y="-235.5" font-family="Helvetica,sans-Serif" font-size="10.00" fill="#000000">i2a</text>
</a>
</g>
</g>
<!-- Node19&#45;&gt;Node22 -->
<g id="edge26" class="edge">
<title>Node19&#45;&gt;Node22</title>
<path fill="none" stroke="#191970" d="M1203.97,-152.71C1209.27,-155.253 1214.55,-158.335 1219,-162 1240.71,-179.861 1236.99,-192.419 1255,-214 1256.91,-216.29 1259.01,-218.613 1261.14,-220.867"/>
<polygon fill="#191970" stroke="#191970" points="1258.78,-223.461 1268.3,-228.109 1263.76,-218.538 1258.78,-223.461"/>
</g>
<!-- Node23 -->
<g id="node23" class="node">
<title>Node23</title>
<g id="a_node23"><a xlink:href="tinyprintf_8c.html#ac87ff66a592723f55692eaf8e3f19df8" target="_top" xlink:title="ui2a">
<polygon fill="#ffffff" stroke="#000000" points="1341.5,-209.5 1341.5,-228.5 1376.5,-228.5 1376.5,-209.5 1341.5,-209.5"/>
<text text-anchor="middle" x="1359" y="-216.5" font-family="Helvetica,sans-Serif" font-size="10.00" fill="#000000">ui2a</text>
</a>
</g>
</g>
<!-- Node19&#45;&gt;Node23 -->
<g id="edge33" class="edge">
<title>Node19&#45;&gt;Node23</title>
<path fill="none" stroke="#191970" d="M1198.22,-152.548C1204.96,-155.479 1212.32,-158.782 1219,-162 1235.3,-169.848 1238.47,-173.657 1255,-181 1280.52,-192.332 1310.55,-203.037 1331.77,-210.179"/>
<polygon fill="#191970" stroke="#191970" points="1330.82,-213.553 1341.42,-213.386 1333.03,-206.91 1330.82,-213.553"/>
</g>
<!-- Node24 -->
<g id="node24" class="node">
<title>Node24</title>
<g id="a_node24"><a xlink:href="tinyprintf_8c.html#afebb7696337c3f599b5e8db35c560684" target="_top" xlink:title="li2a">
<polygon fill="#ffffff" stroke="#000000" points="1263,-152.5 1263,-171.5 1295,-171.5 1295,-152.5 1263,-152.5"/>
<text text-anchor="middle" x="1279" y="-159.5" font-family="Helvetica,sans-Serif" font-size="10.00" fill="#000000">li2a</text>
</a>
</g>
</g>
<!-- Node19&#45;&gt;Node24 -->
<g id="edge28" class="edge">
<title>Node19&#45;&gt;Node24</title>
<path fill="none" stroke="#191970" d="M1206.55,-148.701C1221.36,-151.418 1238.87,-154.633 1252.96,-157.22"/>
<polygon fill="#191970" stroke="#191970" points="1252.51,-160.695 1262.98,-159.059 1253.77,-153.81 1252.51,-160.695"/>
</g>
<!-- Node25 -->
<g id="node25" class="node">
<title>Node25</title>
<g id="a_node25"><a xlink:href="tinyprintf_8c.html#a1d61347854a8c290d59b4a21efcefd75" target="_top" xlink:title="uli2a">
<polygon fill="#ffffff" stroke="#000000" points="1340,-123.5 1340,-142.5 1378,-142.5 1378,-123.5 1340,-123.5"/>
<text text-anchor="middle" x="1359" y="-130.5" font-family="Helvetica,sans-Serif" font-size="10.00" fill="#000000">uli2a</text>
</a>
</g>
</g>
<!-- Node19&#45;&gt;Node25 -->
<g id="edge34" class="edge">
<title>Node19&#45;&gt;Node25</title>
<path fill="none" stroke="#191970" d="M1206.63,-141.304C1241.04,-139.428 1296.06,-136.43 1329.72,-134.596"/>
<polygon fill="#191970" stroke="#191970" points="1330.05,-138.083 1339.84,-134.044 1329.66,-131.094 1330.05,-138.083"/>
</g>
<!-- Node26 -->
<g id="node26" class="node">
<title>Node26</title>
<g id="a_node26"><a xlink:href="tinyprintf_8c.html#a49c6d2b3d4088012f2c1fe344eef69f3" target="_top" xlink:title="lli2a">
<polygon fill="#ffffff" stroke="#000000" points="1262,-76.5 1262,-95.5 1296,-95.5 1296,-76.5 1262,-76.5"/>
<text text-anchor="middle" x="1279" y="-83.5" font-family="Helvetica,sans-Serif" font-size="10.00" fill="#000000">lli2a</text>
</a>
</g>
</g>
<!-- Node19&#45;&gt;Node26 -->
<g id="edge30" class="edge">
<title>Node19&#45;&gt;Node26</title>
<path fill="none" stroke="#191970" d="M1193.06,-133.331C1209.44,-124.31 1234.09,-110.733 1252.8,-100.43"/>
<polygon fill="#191970" stroke="#191970" points="1254.63,-103.416 1261.7,-95.5265 1251.25,-97.2848 1254.63,-103.416"/>
</g>
<!-- Node27 -->
<g id="node27" class="node">
<title>Node27</title>
<g id="a_node27"><a xlink:href="tinyprintf_8c.html#abcf035dd576671b0cc897de9dd8c75b0" target="_top" xlink:title="ulli2a">
<polygon fill="#ffffff" stroke="#000000" points="1339,-66.5 1339,-85.5 1379,-85.5 1379,-66.5 1339,-66.5"/>
<text text-anchor="middle" x="1359" y="-73.5" font-family="Helvetica,sans-Serif" font-size="10.00" fill="#000000">ulli2a</text>
</a>
</g>
</g>
<!-- Node19&#45;&gt;Node27 -->
<g id="edge35" class="edge">
<title>Node19&#45;&gt;Node27</title>
<path fill="none" stroke="#191970" d="M1181.73,-133.415C1193.56,-116.2 1221.15,-80.5765 1255,-67 1278.56,-57.5496 1307.48,-61.136 1328.83,-66.3217"/>
<polygon fill="#191970" stroke="#191970" points="1328.09,-69.7454 1338.65,-68.9458 1329.89,-62.9827 1328.09,-69.7454"/>
</g>
<!-- Node28 -->
<g id="node28" class="node">
<title>Node28</title>
<g id="a_node28"><a xlink:href="tinyprintf_8c.html#a6252dbfebb2c8783c4e3107d551082dd" target="_top" xlink:title="putchw">
<polygon fill="#ffffff" stroke="#000000" points="1255,-0.5 1255,-19.5 1303,-19.5 1303,-0.5 1255,-0.5"/>
<text text-anchor="middle" x="1279" y="-7.5" font-family="Helvetica,sans-Serif" font-size="10.00" fill="#000000">putchw</text>
</a>
</g>
</g>
<!-- Node19&#45;&gt;Node28 -->
<g id="edge32" class="edge">
<title>Node19&#45;&gt;Node28</title>
<path fill="none" stroke="#191970" d="M1181.83,-133.294C1194.72,-113.782 1225.31,-68.703 1255,-34 1256.94,-31.7334 1259.05,-29.4247 1261.19,-27.1792"/>
<polygon fill="#191970" stroke="#191970" points="1263.81,-29.5088 1268.36,-19.9412 1258.83,-24.5825 1263.81,-29.5088"/>
</g>
<!-- Node21 -->
<g id="node21" class="node">
<title>Node21</title>
<g id="a_node21"><a xlink:href="tinyprintf_8c.html#aa853a0c5ba64fa2546d488b86192e7e3" target="_top" xlink:title="a2d">
<polygon fill="#ffffff" stroke="#000000" points="1342.5,-266.5 1342.5,-285.5 1375.5,-285.5 1375.5,-266.5 1342.5,-266.5"/>
<text text-anchor="middle" x="1359" y="-273.5" font-family="Helvetica,sans-Serif" font-size="10.00" fill="#000000">a2d</text>
</a>
</g>
</g>
<!-- Node20&#45;&gt;Node21 -->
<g id="edge25" class="edge">
<title>Node20&#45;&gt;Node21</title>
<path fill="none" stroke="#191970" d="M1295.58,-276C1306.2,-276 1320.22,-276 1332.37,-276"/>
<polygon fill="#191970" stroke="#191970" points="1332.45,-279.5 1342.45,-276 1332.45,-272.5 1332.45,-279.5"/>
</g>
<!-- Node22&#45;&gt;Node23 -->
<g id="edge27" class="edge">
<title>Node22&#45;&gt;Node23</title>
<path fill="none" stroke="#191970" d="M1294.05,-234.426C1304.51,-231.94 1318.78,-228.553 1331.27,-225.586"/>
<polygon fill="#191970" stroke="#191970" points="1332.31,-228.937 1341.23,-223.221 1330.69,-222.127 1332.31,-228.937"/>
</g>
<!-- Node24&#45;&gt;Node25 -->
<g id="edge29" class="edge">
<title>Node24&#45;&gt;Node25</title>
<path fill="none" stroke="#191970" d="M1295.19,-156.131C1305.25,-152.485 1318.47,-147.694 1330.26,-143.418"/>
<polygon fill="#191970" stroke="#191970" points="1331.52,-146.683 1339.73,-139.984 1329.14,-140.102 1331.52,-146.683"/>
</g>
<!-- Node26&#45;&gt;Node27 -->
<g id="edge31" class="edge">
<title>Node26&#45;&gt;Node27</title>
<path fill="none" stroke="#191970" d="M1296.36,-83.8301C1305.83,-82.6461 1317.83,-81.1463 1328.78,-79.777"/>
<polygon fill="#191970" stroke="#191970" points="1329.36,-83.232 1338.85,-78.5186 1328.49,-76.286 1329.36,-83.232"/>
</g>
<!-- Node30&#45;&gt;Node3 -->
<g id="edge38" class="edge">
<title>Node30&#45;&gt;Node3</title>
<path fill="none" stroke="#191970" d="M810.849,-171.541C833.683,-180.87 868.659,-195.162 894.265,-205.624"/>
<polygon fill="#191970" stroke="#191970" points="892.994,-208.886 903.575,-209.428 895.641,-202.406 892.994,-208.886"/>
</g>
<!-- Node30&#45;&gt;Node16 -->
<g id="edge39" class="edge">
<title>Node30&#45;&gt;Node16</title>
<path fill="none" stroke="#191970" d="M822.702,-162C841.175,-162 863.973,-162 883.538,-162"/>
<polygon fill="#191970" stroke="#191970" points="883.73,-165.5 893.73,-162 883.73,-158.5 883.73,-165.5"/>
</g>
<!-- Node31&#45;&gt;Node7 -->
<g id="edge41" class="edge">
<title>Node31&#45;&gt;Node7</title>
<path fill="none" stroke="#191970" d="M765.954,-19.6063C731.403,-35.3998 662.007,-68.7376 608,-105 580.978,-123.143 552.619,-147.869 534.884,-164.124"/>
<polygon fill="#191970" stroke="#191970" points="532.037,-161.991 527.084,-171.356 536.796,-167.124 532.037,-161.991"/>
</g>
</g>
</svg>
