<?xml version="1.0" encoding="UTF-8" standalone="no"?>
<!DOCTYPE svg PUBLIC "-//W3C//DTD SVG 1.1//EN"
 "http://www.w3.org/Graphics/SVG/1.1/DTD/svg11.dtd">
<!-- Generated by graphviz version 2.41.20170323.1842 (20170323.1842)
 -->
<!-- Title: wifi_scan_done_cb Pages: 1 -->
<svg width="826pt" height="142pt"
 viewBox="0.00 0.00 826.00 142.00" xmlns="http://www.w3.org/2000/svg" xmlns:xlink="http://www.w3.org/1999/xlink">
<g id="graph0" class="graph" transform="scale(1 1) rotate(0) translate(4 138)">
<title>wifi_scan_done_cb</title>
<polygon fill="#ffffff" stroke="transparent" points="-4,4 -4,-138 822,-138 822,4 -4,4"/>
<!-- Node281 -->
<g id="node1" class="node">
<title>Node281</title>
<polygon fill="#bfbfbf" stroke="#000000" points="0,-38.5 0,-57.5 102,-57.5 102,-38.5 0,-38.5"/>
<text text-anchor="middle" x="51" y="-45.5" font-family="Helvetica,sans-Serif" font-size="10.00" fill="#000000">wifi_scan_done_cb</text>
</g>
<!-- Node282 -->
<g id="node2" class="node">
<title>Node282</title>
<g id="a_node2"><a xlink:href="wifi_8c.html#ae7011f25db54676b86fefe2caa450a4a" target="_top" xlink:title="wifi_scan_timer_func">
<polygon fill="#ffffff" stroke="#000000" points="138,-38.5 138,-57.5 248,-57.5 248,-38.5 138,-38.5"/>
<text text-anchor="middle" x="193" y="-45.5" font-family="Helvetica,sans-Serif" font-size="10.00" fill="#000000">wifi_scan_timer_func</text>
</a>
</g>
</g>
<!-- Node281&#45;&gt;Node282 -->
<g id="edge1" class="edge">
<title>Node281&#45;&gt;Node282</title>
<path fill="none" stroke="#191970" d="M112.4814,-48C120.959,-48 129.621,-48 137.9721,-48"/>
<polygon fill="#191970" stroke="#191970" points="112.2653,-44.5001 102.2653,-48 112.2652,-51.5001 112.2653,-44.5001"/>
</g>
<!-- Node283 -->
<g id="node3" class="node">
<title>Node283</title>
<g id="a_node3"><a xlink:href="wifi_8c.html#a0d197abbbedf42c0522e20b43884c920" target="_top" xlink:title="acl_check_packet">
<polygon fill="#ffffff" stroke="#000000" points="284,-95.5 284,-114.5 380,-114.5 380,-95.5 284,-95.5"/>
<text text-anchor="middle" x="332" y="-102.5" font-family="Helvetica,sans-Serif" font-size="10.00" fill="#000000">acl_check_packet</text>
</a>
</g>
</g>
<!-- Node282&#45;&gt;Node283 -->
<g id="edge2" class="edge">
<title>Node282&#45;&gt;Node283</title>
<path fill="none" stroke="#191970" d="M225.5331,-61.3409C251.0264,-71.795 285.8798,-86.0874 308.6586,-95.4284"/>
<polygon fill="#191970" stroke="#191970" points="226.8457,-58.0964 216.2655,-57.5405 224.1898,-64.573 226.8457,-58.0964"/>
</g>
<!-- Node287 -->
<g id="node7" class="node">
<title>Node287</title>
<g id="a_node7"><a xlink:href="wifi_8c.html#a5831b420da0012d53c979c375714d382" target="_top" xlink:title="wifi_start_scan">
<polygon fill="#ffffff" stroke="#000000" points="290.5,-38.5 290.5,-57.5 373.5,-57.5 373.5,-38.5 290.5,-38.5"/>
<text text-anchor="middle" x="332" y="-45.5" font-family="Helvetica,sans-Serif" font-size="10.00" fill="#000000">wifi_start_scan</text>
</a>
</g>
</g>
<!-- Node282&#45;&gt;Node287 -->
<g id="edge6" class="edge">
<title>Node282&#45;&gt;Node287</title>
<path fill="none" stroke="#191970" d="M258.563,-41.2596C269.3053,-41.207 280.1734,-41.37 290.1364,-41.7486"/>
<polygon fill="#191970" stroke="#191970" points="258.2953,-37.7624 248.3359,-41.3762 258.3751,-44.7619 258.2953,-37.7624"/>
</g>
<!-- Node284 -->
<g id="node4" class="node">
<title>Node284</title>
<g id="a_node4"><a xlink:href="wifi_8c.html#a3cea38a15b267ddabc1e6d5cf72b5ae8" target="_top" xlink:title="my_input_ap">
<polygon fill="#ffffff" stroke="#000000" points="445.5,-114.5 445.5,-133.5 519.5,-133.5 519.5,-114.5 445.5,-114.5"/>
<text text-anchor="middle" x="482.5" y="-121.5" font-family="Helvetica,sans-Serif" font-size="10.00" fill="#000000">my_input_ap</text>
</a>
</g>
</g>
<!-- Node283&#45;&gt;Node284 -->
<g id="edge3" class="edge">
<title>Node283&#45;&gt;Node284</title>
<path fill="none" stroke="#191970" d="M390.165,-112.3431C408.7294,-114.6868 428.7584,-117.2153 445.4019,-119.3165"/>
<polygon fill="#191970" stroke="#191970" points="390.3926,-108.8441 380.0329,-111.064 389.5158,-115.789 390.3926,-108.8441"/>
</g>
<!-- Node285 -->
<g id="node5" class="node">
<title>Node285</title>
<g id="a_node5"><a xlink:href="wifi_8c.html#aa87c06c3cbab2aa762551fcec59dc8f0" target="_top" xlink:title="wifi_handle_event_cb">
<polygon fill="#ffffff" stroke="#000000" points="585,-114.5 585,-133.5 698,-133.5 698,-114.5 585,-114.5"/>
<text text-anchor="middle" x="641.5" y="-121.5" font-family="Helvetica,sans-Serif" font-size="10.00" fill="#000000">wifi_handle_event_cb</text>
</a>
</g>
</g>
<!-- Node284&#45;&gt;Node285 -->
<g id="edge4" class="edge">
<title>Node284&#45;&gt;Node285</title>
<path fill="none" stroke="#191970" d="M530.1457,-124C547.3495,-124 566.9378,-124 584.8382,-124"/>
<polygon fill="#191970" stroke="#191970" points="529.7785,-120.5001 519.7784,-124 529.7784,-127.5001 529.7785,-120.5001"/>
</g>
<!-- Node286 -->
<g id="node6" class="node">
<title>Node286</title>
<g id="a_node6"><a xlink:href="wifi_8c.html#a9c38abb0900e0c7308be77d85dbf09e0" target="_top" xlink:title="wifi_connect">
<polygon fill="#ffffff" stroke="#000000" points="740,-95.5 740,-114.5 812,-114.5 812,-95.5 740,-95.5"/>
<text text-anchor="middle" x="776" y="-102.5" font-family="Helvetica,sans-Serif" font-size="10.00" fill="#000000">wifi_connect</text>
</a>
</g>
</g>
<!-- Node285&#45;&gt;Node286 -->
<g id="edge5" class="edge">
<title>Node285&#45;&gt;Node286</title>
<path fill="none" stroke="#191970" d="M708.1161,-114.5895C719.0102,-113.0506 729.9266,-111.5085 739.7214,-110.1249"/>
<polygon fill="#191970" stroke="#191970" points="707.5624,-111.1329 698.1503,-115.9974 708.5416,-118.0641 707.5624,-111.1329"/>
</g>
<!-- Node287&#45;&gt;Node282 -->
<g id="edge7" class="edge">
<title>Node287&#45;&gt;Node282</title>
<path fill="none" stroke="#191970" d="M280.0176,-54.5557C269.6773,-54.7896 258.7836,-54.8123 248.3359,-54.6238"/>
<polygon fill="#191970" stroke="#191970" points="280.2462,-58.0505 290.1364,-54.2514 280.0357,-51.0537 280.2462,-58.0505"/>
</g>
<!-- Node287&#45;&gt;Node286 -->
<g id="edge10" class="edge">
<title>Node287&#45;&gt;Node286</title>
<path fill="none" stroke="#191970" d="M379.9323,-59.8606C391.6762,-62.4842 404.2483,-65.0576 416,-67 533.6562,-86.4471 674.678,-97.9424 739.7881,-102.5896"/>
<polygon fill="#191970" stroke="#191970" points="380.3954,-56.3761 369.8665,-57.5566 378.8335,-63.1997 380.3954,-56.3761"/>
</g>
<!-- Node288 -->
<g id="node8" class="node">
<title>Node288</title>
<g id="a_node8"><a xlink:href="wifi_8c.html#a1ef15ecd9e69811f6db10215c7196281" target="_top" xlink:title="wifi_scan_done_cb">
<polygon fill="#ffffff" stroke="#000000" points="431.5,-.5 431.5,-19.5 533.5,-19.5 533.5,-.5 431.5,-.5"/>
<text text-anchor="middle" x="482.5" y="-7.5" font-family="Helvetica,sans-Serif" font-size="10.00" fill="#000000">wifi_scan_done_cb</text>
</a>
</g>
</g>
<!-- Node287&#45;&gt;Node288 -->
<g id="edge8" class="edge">
<title>Node287&#45;&gt;Node288</title>
<path fill="none" stroke="#191970" d="M379.6847,-35.96C400.7103,-30.6512 425.0674,-24.5012 444.7956,-19.5201"/>
<polygon fill="#191970" stroke="#191970" points="378.8164,-32.5693 369.9775,-38.411 380.5301,-39.3563 378.8164,-32.5693"/>
</g>
<!-- Node289 -->
<g id="node9" class="node">
<title>Node289</title>
<g id="a_node9"><a xlink:href="watchdog_8c.html#a47b6861ffbed37fef88aa644f10ba917" target="_top" xlink:title="wifi_reconnect_timer_func">
<polygon fill="#ffffff" stroke="#000000" points="416,-38.5 416,-57.5 549,-57.5 549,-38.5 416,-38.5"/>
<text text-anchor="middle" x="482.5" y="-45.5" font-family="Helvetica,sans-Serif" font-size="10.00" fill="#000000">wifi_reconnect_timer_func</text>
</a>
</g>
</g>
<!-- Node287&#45;&gt;Node289 -->
<g id="edge11" class="edge">
<title>Node287&#45;&gt;Node289</title>
<path fill="none" stroke="#191970" d="M383.6671,-48C394.0677,-48 405.1368,-48 415.9623,-48"/>
<polygon fill="#191970" stroke="#191970" points="383.5232,-44.5001 373.5232,-48 383.5231,-51.5001 383.5232,-44.5001"/>
</g>
<!-- Node288&#45;&gt;Node282 -->
<g id="edge9" class="edge">
<title>Node288&#45;&gt;Node282</title>
<path fill="none" stroke="#191970" d="M421.3391,-14.0999C381.9831,-17.1702 329.8128,-22.0465 284,-29 267.5648,-31.4945 249.6236,-35.0575 234.0489,-38.4253"/>
<polygon fill="#191970" stroke="#191970" points="421.6081,-17.5897 431.3128,-13.339 421.0755,-10.6099 421.6081,-17.5897"/>
</g>
<!-- Node290 -->
<g id="node10" class="node">
<title>Node290</title>
<g id="a_node10"><a xlink:href="watchdog_8c.html#aeb03c505b5b589ae4d89b2ae11dd1711" target="_top" xlink:title="watchdog_timer_func">
<polygon fill="#ffffff" stroke="#000000" points="585.5,-38.5 585.5,-57.5 697.5,-57.5 697.5,-38.5 585.5,-38.5"/>
<text text-anchor="middle" x="641.5" y="-45.5" font-family="Helvetica,sans-Serif" font-size="10.00" fill="#000000">watchdog_timer_func</text>
</a>
</g>
</g>
<!-- Node289&#45;&gt;Node290 -->
<g id="edge12" class="edge">
<title>Node289&#45;&gt;Node290</title>
<path fill="none" stroke="#191970" d="M559.2767,-48C568.0626,-48 576.8929,-48 585.3377,-48"/>
<polygon fill="#191970" stroke="#191970" points="559.0091,-44.5001 549.009,-48 559.009,-51.5001 559.0091,-44.5001"/>
</g>
<!-- Node291 -->
<g id="node11" class="node">
<title>Node291</title>
<g id="a_node11"><a xlink:href="watchdog_8h.html#ab148f2150b52df5b60e312dded3a2934" target="_top" xlink:title="start_watchdog">
<polygon fill="#ffffff" stroke="#000000" points="734,-38.5 734,-57.5 818,-57.5 818,-38.5 734,-38.5"/>
<text text-anchor="middle" x="776" y="-45.5" font-family="Helvetica,sans-Serif" font-size="10.00" fill="#000000">start_watchdog</text>
</a>
</g>
</g>
<!-- Node290&#45;&gt;Node291 -->
<g id="edge13" class="edge">
<title>Node290&#45;&gt;Node291</title>
<path fill="none" stroke="#191970" d="M708.0443,-48C716.8413,-48 725.6545,-48 733.8815,-48"/>
<polygon fill="#191970" stroke="#191970" points="707.7608,-44.5001 697.7608,-48 707.7608,-51.5001 707.7608,-44.5001"/>
</g>
</g>
</svg>
