<?xml version="1.0" encoding="UTF-8" standalone="no"?>
<!DOCTYPE svg PUBLIC "-//W3C//DTD SVG 1.1//EN"
 "http://www.w3.org/Graphics/SVG/1.1/DTD/svg11.dtd">
<!-- Generated by graphviz version 2.41.20170323.1842 (20170323.1842)
 -->
<!-- Title: set_my_auto_connect Pages: 1 -->
<svg width="559pt" height="47pt"
 viewBox="0.00 0.00 559.00 47.00" xmlns="http://www.w3.org/2000/svg" xmlns:xlink="http://www.w3.org/1999/xlink">
<g id="graph0" class="graph" transform="scale(1 1) rotate(0) translate(4 43)">
<title>set_my_auto_connect</title>
<polygon fill="#ffffff" stroke="transparent" points="-4,4 -4,-43 555,-43 555,4 -4,4"/>
<!-- Node7 -->
<g id="node1" class="node">
<title>Node7</title>
<polygon fill="#bfbfbf" stroke="#000000" points="0,-19.5 0,-38.5 114,-38.5 114,-19.5 0,-19.5"/>
<text text-anchor="middle" x="57" y="-26.5" font-family="Helvetica,sans-Serif" font-size="10.00" fill="#000000">set_my_auto_connect</text>
</g>
<!-- Node8 -->
<g id="node2" class="node">
<title>Node8</title>
<g id="a_node2"><a xlink:href="watchdog_8c.html#aeb03c505b5b589ae4d89b2ae11dd1711" target="_top" xlink:title="watchdog_timer_func">
<polygon fill="#ffffff" stroke="#000000" points="319,-19.5 319,-38.5 431,-38.5 431,-19.5 319,-19.5"/>
<text text-anchor="middle" x="375" y="-26.5" font-family="Helvetica,sans-Serif" font-size="10.00" fill="#000000">watchdog_timer_func</text>
</a>
</g>
</g>
<!-- Node7&#45;&gt;Node8 -->
<g id="edge1" class="edge">
<title>Node7&#45;&gt;Node8</title>
<path fill="none" stroke="#191970" d="M124.352,-29C182.1416,-29 264.4578,-29 318.7744,-29"/>
<polygon fill="#191970" stroke="#191970" points="124.2193,-25.5001 114.2193,-29 124.2193,-32.5001 124.2193,-25.5001"/>
</g>
<!-- Node10 -->
<g id="node4" class="node">
<title>Node10</title>
<g id="a_node4"><a xlink:href="watchdog_8c.html#a47b6861ffbed37fef88aa644f10ba917" target="_top" xlink:title="wifi_reconnect_timer_func">
<polygon fill="#ffffff" stroke="#000000" points="150,-.5 150,-19.5 283,-19.5 283,-.5 150,-.5"/>
<text text-anchor="middle" x="216.5" y="-7.5" font-family="Helvetica,sans-Serif" font-size="10.00" fill="#000000">wifi_reconnect_timer_func</text>
</a>
</g>
</g>
<!-- Node7&#45;&gt;Node10 -->
<g id="edge3" class="edge">
<title>Node7&#45;&gt;Node10</title>
<path fill="none" stroke="#191970" d="M124.0786,-21.0094C132.6505,-19.9883 141.4227,-18.9434 149.9856,-17.9233"/>
<polygon fill="#191970" stroke="#191970" points="123.6484,-17.5359 114.1326,-22.1942 124.4765,-24.4867 123.6484,-17.5359"/>
</g>
<!-- Node9 -->
<g id="node3" class="node">
<title>Node9</title>
<g id="a_node3"><a xlink:href="watchdog_8h.html#ab148f2150b52df5b60e312dded3a2934" target="_top" xlink:title="start_watchdog">
<polygon fill="#ffffff" stroke="#000000" points="467,-19.5 467,-38.5 551,-38.5 551,-19.5 467,-19.5"/>
<text text-anchor="middle" x="509" y="-26.5" font-family="Helvetica,sans-Serif" font-size="10.00" fill="#000000">start_watchdog</text>
</a>
</g>
</g>
<!-- Node8&#45;&gt;Node9 -->
<g id="edge2" class="edge">
<title>Node8&#45;&gt;Node9</title>
<path fill="none" stroke="#191970" d="M441.1744,-29C449.8343,-29 458.5125,-29 466.6303,-29"/>
<polygon fill="#191970" stroke="#191970" points="441.0517,-25.5001 431.0516,-29 441.0516,-32.5001 441.0517,-25.5001"/>
</g>
<!-- Node10&#45;&gt;Node8 -->
<g id="edge4" class="edge">
<title>Node10&#45;&gt;Node8</title>
<path fill="none" stroke="#191970" d="M293.3189,-19.2086C301.9243,-20.2401 310.5679,-21.2763 318.8435,-22.2683"/>
<polygon fill="#191970" stroke="#191970" points="293.6044,-15.7178 283.2589,-18.0026 292.7712,-22.6681 293.6044,-15.7178"/>
</g>
</g>
</svg>
