<?xml version="1.0" encoding="UTF-8" standalone="no"?>
<!DOCTYPE svg PUBLIC "-//W3C//DTD SVG 1.1//EN"
 "http://www.w3.org/Graphics/SVG/1.1/DTD/svg11.dtd">
<!-- Generated by graphviz version 2.41.20170323.1842 (20170323.1842)
 -->
<!-- Title: wifi_scan_timer_func Pages: 1 -->
<svg width="794pt" height="104pt"
 viewBox="0.00 0.00 794.00 104.00" xmlns="http://www.w3.org/2000/svg" xmlns:xlink="http://www.w3.org/1999/xlink">
<g id="graph0" class="graph" transform="scale(1 1) rotate(0) translate(4 100)">
<title>wifi_scan_timer_func</title>
<polygon fill="#ffffff" stroke="transparent" points="-4,4 -4,-100 790,-100 790,4 -4,4"/>
<!-- Node244 -->
<g id="node1" class="node">
<title>Node244</title>
<polygon fill="#bfbfbf" stroke="#000000" points="0,-57.5 0,-76.5 110,-76.5 110,-57.5 0,-57.5"/>
<text text-anchor="middle" x="55" y="-64.5" font-family="Helvetica,sans-Serif" font-size="10.00" fill="#000000">wifi_scan_timer_func</text>
</g>
<!-- Node245 -->
<g id="node2" class="node">
<title>Node245</title>
<g id="a_node2"><a xlink:href="wifi_8c.html#a5831b420da0012d53c979c375714d382" target="_top" xlink:title="wifi_start_scan">
<polygon fill="#ffffff" stroke="#000000" points="146,-38.5 146,-57.5 229,-57.5 229,-38.5 146,-38.5"/>
<text text-anchor="middle" x="187.5" y="-45.5" font-family="Helvetica,sans-Serif" font-size="10.00" fill="#000000">wifi_start_scan</text>
</a>
</g>
</g>
<!-- Node244&#45;&gt;Node245 -->
<g id="edge1" class="edge">
<title>Node244&#45;&gt;Node245</title>
<path fill="none" stroke="#191970" d="M120.2024,-57.6502C128.8986,-56.4032 137.6189,-55.1528 145.7637,-53.9848"/>
<polygon fill="#191970" stroke="#191970" points="119.4427,-54.2233 110.0408,-59.1074 120.4364,-61.1524 119.4427,-54.2233"/>
</g>
<!-- Node246 -->
<g id="node3" class="node">
<title>Node246</title>
<g id="a_node3"><a xlink:href="wifi_8c.html#a1ef15ecd9e69811f6db10215c7196281" target="_top" xlink:title="wifi_scan_done_cb">
<polygon fill="#ffffff" stroke="#000000" points="280.5,-76.5 280.5,-95.5 382.5,-95.5 382.5,-76.5 280.5,-76.5"/>
<text text-anchor="middle" x="331.5" y="-83.5" font-family="Helvetica,sans-Serif" font-size="10.00" fill="#000000">wifi_scan_done_cb</text>
</a>
</g>
</g>
<!-- Node245&#45;&gt;Node246 -->
<g id="edge2" class="edge">
<title>Node245&#45;&gt;Node246</title>
<path fill="none" stroke="#191970" d="M233.6722,-60.1843C253.6642,-65.46 276.7187,-71.5438 295.424,-76.4799"/>
<polygon fill="#191970" stroke="#191970" points="234.3994,-56.7565 223.8373,-57.589 232.6132,-63.5248 234.3994,-56.7565"/>
</g>
<!-- Node247 -->
<g id="node4" class="node">
<title>Node247</title>
<g id="a_node4"><a xlink:href="wifi_8c.html#a9c38abb0900e0c7308be77d85dbf09e0" target="_top" xlink:title="wifi_connect">
<polygon fill="#ffffff" stroke="#000000" points="295.5,-38.5 295.5,-57.5 367.5,-57.5 367.5,-38.5 295.5,-38.5"/>
<text text-anchor="middle" x="331.5" y="-45.5" font-family="Helvetica,sans-Serif" font-size="10.00" fill="#000000">wifi_connect</text>
</a>
</g>
</g>
<!-- Node245&#45;&gt;Node247 -->
<g id="edge4" class="edge">
<title>Node245&#45;&gt;Node247</title>
<path fill="none" stroke="#191970" d="M239.2344,-48C257.811,-48 278.3469,-48 295.3196,-48"/>
<polygon fill="#191970" stroke="#191970" points="239.1508,-44.5001 229.1508,-48 239.1507,-51.5001 239.1508,-44.5001"/>
</g>
<!-- Node251 -->
<g id="node8" class="node">
<title>Node251</title>
<g id="a_node8"><a xlink:href="watchdog_8c.html#a47b6861ffbed37fef88aa644f10ba917" target="_top" xlink:title="wifi_reconnect_timer_func">
<polygon fill="#ffffff" stroke="#000000" points="265,-.5 265,-19.5 398,-19.5 398,-.5 265,-.5"/>
<text text-anchor="middle" x="331.5" y="-7.5" font-family="Helvetica,sans-Serif" font-size="10.00" fill="#000000">wifi_reconnect_timer_func</text>
</a>
</g>
</g>
<!-- Node245&#45;&gt;Node251 -->
<g id="edge8" class="edge">
<title>Node245&#45;&gt;Node251</title>
<path fill="none" stroke="#191970" d="M233.6722,-35.8157C253.6642,-30.54 276.7187,-24.4562 295.424,-19.5201"/>
<polygon fill="#191970" stroke="#191970" points="232.6132,-32.4752 223.8373,-38.411 234.3994,-39.2435 232.6132,-32.4752"/>
</g>
<!-- Node246&#45;&gt;Node244 -->
<g id="edge3" class="edge">
<title>Node246&#45;&gt;Node244</title>
<path fill="none" stroke="#191970" d="M269.8235,-81.7618C222.0266,-78.4774 156.3921,-73.9673 110.2894,-70.7993"/>
<polygon fill="#191970" stroke="#191970" points="269.8255,-85.2701 280.0419,-82.464 270.3054,-78.2866 269.8255,-85.2701"/>
</g>
<!-- Node248 -->
<g id="node5" class="node">
<title>Node248</title>
<g id="a_node5"><a xlink:href="user__main_8c.html#a245ec00253f410a8804988bf40e1037e" target="_top" xlink:title="sample_mode_timer_func">
<polygon fill="#ffffff" stroke="#000000" points="434,-38.5 434,-57.5 566,-57.5 566,-38.5 434,-38.5"/>
<text text-anchor="middle" x="500" y="-45.5" font-family="Helvetica,sans-Serif" font-size="10.00" fill="#000000">sample_mode_timer_func</text>
</a>
</g>
</g>
<!-- Node247&#45;&gt;Node248 -->
<g id="edge5" class="edge">
<title>Node247&#45;&gt;Node248</title>
<path fill="none" stroke="#191970" d="M377.9815,-48C395.184,-48 415.0355,-48 433.6623,-48"/>
<polygon fill="#191970" stroke="#191970" points="377.6475,-44.5001 367.6475,-48 377.6474,-51.5001 377.6475,-44.5001"/>
</g>
<!-- Node249 -->
<g id="node6" class="node">
<title>Node249</title>
<g id="a_node6"><a xlink:href="user__main_8h.html#a3671381db669a16e8f6a4bf3dfb9a441" target="_top" xlink:title="system_init_done">
<polygon fill="#ffffff" stroke="#000000" points="602,-38.5 602,-57.5 696,-57.5 696,-38.5 602,-38.5"/>
<text text-anchor="middle" x="649" y="-45.5" font-family="Helvetica,sans-Serif" font-size="10.00" fill="#000000">system_init_done</text>
</a>
</g>
</g>
<!-- Node248&#45;&gt;Node249 -->
<g id="edge6" class="edge">
<title>Node248&#45;&gt;Node249</title>
<path fill="none" stroke="#191970" d="M576.361,-48C585.0092,-48 593.624,-48 601.7387,-48"/>
<polygon fill="#191970" stroke="#191970" points="576.2213,-44.5001 566.2213,-48 576.2212,-51.5001 576.2213,-44.5001"/>
</g>
<!-- Node250 -->
<g id="node7" class="node">
<title>Node250</title>
<g id="a_node7"><a xlink:href="user__main_8h.html#a33113d6dedb440bd7dfa5576e325140c" target="_top" xlink:title="user_init">
<polygon fill="#ffffff" stroke="#000000" points="732,-19.5 732,-38.5 786,-38.5 786,-19.5 732,-19.5"/>
<text text-anchor="middle" x="759" y="-26.5" font-family="Helvetica,sans-Serif" font-size="10.00" fill="#000000">user_init</text>
</a>
</g>
</g>
<!-- Node249&#45;&gt;Node250 -->
<g id="edge7" class="edge">
<title>Node249&#45;&gt;Node250</title>
<path fill="none" stroke="#191970" d="M706.2886,-38.1047C715.1598,-36.5724 723.9515,-35.0538 731.7383,-33.7088"/>
<polygon fill="#191970" stroke="#191970" points="705.5466,-34.6809 696.2883,-39.832 706.7381,-41.5788 705.5466,-34.6809"/>
</g>
<!-- Node252 -->
<g id="node9" class="node">
<title>Node252</title>
<g id="a_node9"><a xlink:href="watchdog_8c.html#aeb03c505b5b589ae4d89b2ae11dd1711" target="_top" xlink:title="watchdog_timer_func">
<polygon fill="#ffffff" stroke="#000000" points="444,-.5 444,-19.5 556,-19.5 556,-.5 444,-.5"/>
<text text-anchor="middle" x="500" y="-7.5" font-family="Helvetica,sans-Serif" font-size="10.00" fill="#000000">watchdog_timer_func</text>
</a>
</g>
</g>
<!-- Node251&#45;&gt;Node252 -->
<g id="edge9" class="edge">
<title>Node251&#45;&gt;Node252</title>
<path fill="none" stroke="#191970" d="M408.1494,-10C420.2028,-10 432.4654,-10 443.9395,-10"/>
<polygon fill="#191970" stroke="#191970" points="408.0957,-6.5001 398.0957,-10 408.0956,-13.5001 408.0957,-6.5001"/>
</g>
<!-- Node253 -->
<g id="node10" class="node">
<title>Node253</title>
<g id="a_node10"><a xlink:href="watchdog_8h.html#ab148f2150b52df5b60e312dded3a2934" target="_top" xlink:title="start_watchdog">
<polygon fill="#ffffff" stroke="#000000" points="607,-.5 607,-19.5 691,-19.5 691,-.5 607,-.5"/>
<text text-anchor="middle" x="649" y="-7.5" font-family="Helvetica,sans-Serif" font-size="10.00" fill="#000000">start_watchdog</text>
</a>
</g>
</g>
<!-- Node252&#45;&gt;Node253 -->
<g id="edge10" class="edge">
<title>Node252&#45;&gt;Node253</title>
<path fill="none" stroke="#191970" d="M566.7067,-10C580.407,-10 594.4627,-10 606.9932,-10"/>
<polygon fill="#191970" stroke="#191970" points="566.3305,-6.5001 556.3305,-10 566.3305,-13.5001 566.3305,-6.5001"/>
</g>
<!-- Node253&#45;&gt;Node250 -->
<g id="edge11" class="edge">
<title>Node253&#45;&gt;Node250</title>
<path fill="none" stroke="#191970" d="M701.3079,-19.035C711.9327,-20.8702 722.6918,-22.7286 731.9941,-24.3354"/>
<polygon fill="#191970" stroke="#191970" points="701.6641,-15.5448 691.2143,-17.2916 700.4726,-22.4426 701.6641,-15.5448"/>
</g>
</g>
</svg>
