<?xml version="1.0" encoding="UTF-8" standalone="no"?>
<!DOCTYPE svg PUBLIC "-//W3C//DTD SVG 1.1//EN"
 "http://www.w3.org/Graphics/SVG/1.1/DTD/svg11.dtd">
<!-- Generated by graphviz version 2.39.20160927.1334 (20160927.1334)
 -->
<!-- Title: modules/wifi.c Pages: 1 -->
<svg width="1497pt" height="196pt"
 viewBox="0.00 0.00 1496.50 196.00" xmlns="http://www.w3.org/2000/svg" xmlns:xlink="http://www.w3.org/1999/xlink">
<g id="graph0" class="graph" transform="scale(1 1) rotate(0) translate(4 192)">
<title>modules/wifi.c</title>
<polygon fill="#ffffff" stroke="transparent" points="-4,4 -4,-192 1492.5,-192 1492.5,4 -4,4"/>
<!-- Node1 -->
<g id="node1" class="node">
<title>Node1</title>
<polygon fill="#bfbfbf" stroke="#000000" points="1132.5,-168.5 1132.5,-187.5 1211.5,-187.5 1211.5,-168.5 1132.5,-168.5"/>
<text text-anchor="middle" x="1172" y="-175.5" font-family="Helvetica,sans-Serif" font-size="10.00" fill="#000000">modules/wifi.c</text>
</g>
<!-- Node2 -->
<g id="node2" class="node">
<title>Node2</title>
<g id="a_node2"><a xlink:href="esp8266_8h.html" target="_top" xlink:title="esp8266.h">
<polygon fill="#ffffff" stroke="#000000" points="536.5,-112.5 536.5,-131.5 599.5,-131.5 599.5,-112.5 536.5,-112.5"/>
<text text-anchor="middle" x="568" y="-119.5" font-family="Helvetica,sans-Serif" font-size="10.00" fill="#000000">esp8266.h</text>
</a>
</g>
</g>
<!-- Node1&#45;&gt;Node2 -->
<g id="edge1" class="edge">
<title>Node1&#45;&gt;Node2</title>
<path fill="none" stroke="#191970" d="M1132.37,-174.326C1023.55,-164.237 720.865,-136.173 609.668,-125.863"/>
<polygon fill="#191970" stroke="#191970" points="609.798,-122.36 599.518,-124.922 609.152,-129.331 609.798,-122.36"/>
</g>
<!-- Node20 -->
<g id="node20" class="node">
<title>Node20</title>
<g id="a_node20"><a xlink:href="wifi_8h.html" target="_top" xlink:title="wifi.h">
<polygon fill="#ffffff" stroke="#000000" points="974.5,-112.5 974.5,-131.5 1013.5,-131.5 1013.5,-112.5 974.5,-112.5"/>
<text text-anchor="middle" x="994" y="-119.5" font-family="Helvetica,sans-Serif" font-size="10.00" fill="#000000">wifi.h</text>
</a>
</g>
</g>
<!-- Node1&#45;&gt;Node20 -->
<g id="edge21" class="edge">
<title>Node1&#45;&gt;Node20</title>
<path fill="none" stroke="#191970" d="M1139.39,-168.464C1110.93,-160.042 1068.33,-147.187 1023.21,-132.311"/>
<polygon fill="#191970" stroke="#191970" points="1024.14,-128.932 1013.54,-129.107 1021.93,-135.577 1024.14,-128.932"/>
</g>
<!-- Node21 -->
<g id="node21" class="node">
<title>Node21</title>
<g id="a_node21"><a xlink:href="mqtt__msg_8h.html" target="_top" xlink:title="mqtt_msg.h">
<polygon fill="#ffffff" stroke="#000000" points="1031.5,-112.5 1031.5,-131.5 1100.5,-131.5 1100.5,-112.5 1031.5,-112.5"/>
<text text-anchor="middle" x="1066" y="-119.5" font-family="Helvetica,sans-Serif" font-size="10.00" fill="#000000">mqtt_msg.h</text>
</a>
</g>
</g>
<!-- Node1&#45;&gt;Node21 -->
<g id="edge22" class="edge">
<title>Node1&#45;&gt;Node21</title>
<path fill="none" stroke="#191970" d="M1153.54,-168.246C1136.89,-159.453 1112.2,-146.408 1093.28,-136.413"/>
<polygon fill="#191970" stroke="#191970" points="1094.73,-133.219 1084.25,-131.643 1091.46,-139.409 1094.73,-133.219"/>
</g>
<!-- Node22 -->
<g id="node22" class="node">
<title>Node22</title>
<g id="a_node22"><a xlink:href="debug_8h.html" target="_top" xlink:title="debug.h">
<polygon fill="#ffffff" stroke="#000000" points="1118.5,-112.5 1118.5,-131.5 1171.5,-131.5 1171.5,-112.5 1118.5,-112.5"/>
<text text-anchor="middle" x="1145" y="-119.5" font-family="Helvetica,sans-Serif" font-size="10.00" fill="#000000">debug.h</text>
</a>
</g>
</g>
<!-- Node1&#45;&gt;Node22 -->
<g id="edge24" class="edge">
<title>Node1&#45;&gt;Node22</title>
<path fill="none" stroke="#191970" d="M1167.3,-168.246C1163.66,-160.697 1158.51,-150.016 1154.07,-140.82"/>
<polygon fill="#191970" stroke="#191970" points="1157.14,-139.13 1149.65,-131.643 1150.84,-142.17 1157.14,-139.13"/>
</g>
<!-- Node23 -->
<g id="node23" class="node">
<title>Node23</title>
<g id="a_node23"><a xlink:href="user__config_8h.html" target="_top" xlink:title="user_config.h">
<polygon fill="#ffffff" stroke="#000000" points="1161.5,-56.5 1161.5,-75.5 1238.5,-75.5 1238.5,-56.5 1161.5,-56.5"/>
<text text-anchor="middle" x="1200" y="-63.5" font-family="Helvetica,sans-Serif" font-size="10.00" fill="#000000">user_config.h</text>
</a>
</g>
</g>
<!-- Node1&#45;&gt;Node23 -->
<g id="edge25" class="edge">
<title>Node1&#45;&gt;Node23</title>
<path fill="none" stroke="#191970" d="M1174.39,-168.451C1178.97,-150.101 1189.1,-109.591 1195.16,-85.3693"/>
<polygon fill="#191970" stroke="#191970" points="1198.59,-86.0752 1197.62,-75.5249 1191.8,-84.3774 1198.59,-86.0752"/>
</g>
<!-- Node24 -->
<g id="node24" class="node">
<title>Node24</title>
<g id="a_node24"><a xlink:href="config_8h.html" target="_top" xlink:title="config.h">
<polygon fill="#ffffff" stroke="#000000" points="1228,-112.5 1228,-131.5 1280,-131.5 1280,-112.5 1228,-112.5"/>
<text text-anchor="middle" x="1254" y="-119.5" font-family="Helvetica,sans-Serif" font-size="10.00" fill="#000000">config.h</text>
</a>
</g>
</g>
<!-- Node1&#45;&gt;Node24 -->
<g id="edge26" class="edge">
<title>Node1&#45;&gt;Node24</title>
<path fill="none" stroke="#191970" d="M1186.28,-168.246C1198.75,-159.734 1217.05,-147.237 1231.48,-137.38"/>
<polygon fill="#191970" stroke="#191970" points="1233.6,-140.173 1239.88,-131.643 1229.65,-134.392 1233.6,-140.173"/>
</g>
<!-- Node26 -->
<g id="node26" class="node">
<title>Node26</title>
<g id="a_node26"><a xlink:href="led_8h.html" target="_top" xlink:title="led.h">
<polygon fill="#ffffff" stroke="#000000" points="1298,-112.5 1298,-131.5 1336,-131.5 1336,-112.5 1298,-112.5"/>
<text text-anchor="middle" x="1317" y="-119.5" font-family="Helvetica,sans-Serif" font-size="10.00" fill="#000000">led.h</text>
</a>
</g>
</g>
<!-- Node1&#45;&gt;Node26 -->
<g id="edge29" class="edge">
<title>Node1&#45;&gt;Node26</title>
<path fill="none" stroke="#191970" d="M1196.93,-168.373C1222.34,-158.557 1261.73,-143.347 1288.4,-133.046"/>
<polygon fill="#191970" stroke="#191970" points="1289.87,-136.228 1297.94,-129.36 1287.35,-129.698 1289.87,-136.228"/>
</g>
<!-- Node27 -->
<g id="node27" class="node">
<title>Node27</title>
<g id="a_node27"><a xlink:href="tinyprintf_8h.html" target="_top" xlink:title="tinyprintf.h">
<polygon fill="#ffffff" stroke="#000000" points="1354.5,-112.5 1354.5,-131.5 1417.5,-131.5 1417.5,-112.5 1354.5,-112.5"/>
<text text-anchor="middle" x="1386" y="-119.5" font-family="Helvetica,sans-Serif" font-size="10.00" fill="#000000">tinyprintf.h</text>
</a>
</g>
</g>
<!-- Node1&#45;&gt;Node27 -->
<g id="edge30" class="edge">
<title>Node1&#45;&gt;Node27</title>
<path fill="none" stroke="#191970" d="M1208.79,-168.373C1246.5,-158.506 1305.03,-143.188 1344.4,-132.886"/>
<polygon fill="#191970" stroke="#191970" points="1345.43,-136.234 1354.22,-130.316 1343.66,-129.462 1345.43,-136.234"/>
</g>
<!-- Node3 -->
<g id="node3" class="node">
<title>Node3</title>
<polygon fill="#ffffff" stroke="#bfbfbf" points="656.5,-56.5 656.5,-75.5 705.5,-75.5 705.5,-56.5 656.5,-56.5"/>
<text text-anchor="middle" x="681" y="-63.5" font-family="Helvetica,sans-Serif" font-size="10.00" fill="#000000">ctype.h</text>
</g>
<!-- Node2&#45;&gt;Node3 -->
<g id="edge2" class="edge">
<title>Node2&#45;&gt;Node3</title>
<path fill="none" stroke="#191970" d="M587.425,-112.373C605.402,-103.464 632.344,-90.1127 652.709,-80.0203"/>
<polygon fill="#191970" stroke="#191970" points="654.422,-83.0776 661.828,-75.5011 651.314,-76.8055 654.422,-83.0776"/>
</g>
<!-- Node4 -->
<g id="node4" class="node">
<title>Node4</title>
<polygon fill="#ffffff" stroke="#bfbfbf" points="854,-56.5 854,-75.5 900,-75.5 900,-56.5 854,-56.5"/>
<text text-anchor="middle" x="877" y="-63.5" font-family="Helvetica,sans-Serif" font-size="10.00" fill="#000000">stdio.h</text>
</g>
<!-- Node2&#45;&gt;Node4 -->
<g id="edge3" class="edge">
<title>Node2&#45;&gt;Node4</title>
<path fill="none" stroke="#191970" d="M599.856,-118.168C649.906,-111.833 750.111,-97.8839 843.769,-76.0437"/>
<polygon fill="#191970" stroke="#191970" points="844.761,-79.4056 853.685,-73.6953 843.147,-72.594 844.761,-79.4056"/>
</g>
<!-- Node5 -->
<g id="node5" class="node">
<title>Node5</title>
<polygon fill="#ffffff" stroke="#bfbfbf" points="918,-56.5 918,-75.5 966,-75.5 966,-56.5 918,-56.5"/>
<text text-anchor="middle" x="942" y="-63.5" font-family="Helvetica,sans-Serif" font-size="10.00" fill="#000000">stdlib.h</text>
</g>
<!-- Node2&#45;&gt;Node5 -->
<g id="edge4" class="edge">
<title>Node2&#45;&gt;Node5</title>
<path fill="none" stroke="#191970" d="M599.793,-119.424C658.784,-114.279 789.241,-101.182 907.982,-75.9277"/>
<polygon fill="#191970" stroke="#191970" points="908.932,-79.3032 917.967,-73.7689 907.453,-72.4613 908.932,-79.3032"/>
</g>
<!-- Node6 -->
<g id="node6" class="node">
<title>Node6</title>
<polygon fill="#ffffff" stroke="#bfbfbf" points="984.5,-56.5 984.5,-75.5 1033.5,-75.5 1033.5,-56.5 984.5,-56.5"/>
<text text-anchor="middle" x="1009" y="-63.5" font-family="Helvetica,sans-Serif" font-size="10.00" fill="#000000">string.h</text>
</g>
<!-- Node2&#45;&gt;Node6 -->
<g id="edge5" class="edge">
<title>Node2&#45;&gt;Node6</title>
<path fill="none" stroke="#191970" d="M599.695,-120.294C667.023,-116.272 829.308,-104.457 974.278,-75.8221"/>
<polygon fill="#191970" stroke="#191970" points="975.127,-79.2216 984.242,-73.8214 973.749,-72.3585 975.127,-79.2216"/>
</g>
<!-- Node7 -->
<g id="node7" class="node">
<title>Node7</title>
<polygon fill="#ffffff" stroke="#bfbfbf" points="1032.5,-0.5 1032.5,-19.5 1091.5,-19.5 1091.5,-0.5 1032.5,-0.5"/>
<text text-anchor="middle" x="1062" y="-7.5" font-family="Helvetica,sans-Serif" font-size="10.00" fill="#000000">c_types.h</text>
</g>
<!-- Node2&#45;&gt;Node7 -->
<g id="edge6" class="edge">
<title>Node2&#45;&gt;Node7</title>
<path fill="none" stroke="#191970" d="M599.679,-120.943C700.268,-117.314 1007.83,-104.009 1042,-76 1055.43,-64.9918 1060.06,-45.2735 1061.55,-30.2473"/>
<polygon fill="#191970" stroke="#191970" points="1065.07,-30.0855 1062.18,-19.8933 1058.08,-29.6649 1065.07,-30.0855"/>
</g>
<!-- Node8 -->
<g id="node8" class="node">
<title>Node8</title>
<polygon fill="#ffffff" stroke="#bfbfbf" points="0,-56.5 0,-75.5 58,-75.5 58,-56.5 0,-56.5"/>
<text text-anchor="middle" x="29" y="-63.5" font-family="Helvetica,sans-Serif" font-size="10.00" fill="#000000">ip_addr.h</text>
</g>
<!-- Node2&#45;&gt;Node8 -->
<g id="edge7" class="edge">
<title>Node2&#45;&gt;Node8</title>
<path fill="none" stroke="#191970" d="M536.397,-120.917C458.388,-117.857 250.392,-107.352 68.3714,-75.9907"/>
<polygon fill="#191970" stroke="#191970" points="68.8053,-72.5135 58.3518,-74.2384 67.5993,-79.4088 68.8053,-72.5135"/>
</g>
<!-- Node9 -->
<g id="node9" class="node">
<title>Node9</title>
<polygon fill="#ffffff" stroke="#bfbfbf" points="76.5,-56.5 76.5,-75.5 139.5,-75.5 139.5,-56.5 76.5,-56.5"/>
<text text-anchor="middle" x="108" y="-63.5" font-family="Helvetica,sans-Serif" font-size="10.00" fill="#000000">espconn.h</text>
</g>
<!-- Node2&#45;&gt;Node9 -->
<g id="edge8" class="edge">
<title>Node2&#45;&gt;Node9</title>
<path fill="none" stroke="#191970" d="M536.427,-119.613C466.977,-114.118 295.84,-99.2336 154,-76 152.538,-75.7606 151.053,-75.5049 149.554,-75.2365"/>
<polygon fill="#191970" stroke="#191970" points="150.073,-71.7721 139.591,-73.3176 148.749,-78.6458 150.073,-71.7721"/>
</g>
<!-- Node10 -->
<g id="node10" class="node">
<title>Node10</title>
<polygon fill="#ffffff" stroke="#bfbfbf" points="403.5,-0.5 403.5,-19.5 462.5,-19.5 462.5,-0.5 403.5,-0.5"/>
<text text-anchor="middle" x="433" y="-7.5" font-family="Helvetica,sans-Serif" font-size="10.00" fill="#000000">ets_sys.h</text>
</g>
<!-- Node2&#45;&gt;Node10 -->
<g id="edge9" class="edge">
<title>Node2&#45;&gt;Node10</title>
<path fill="none" stroke="#191970" d="M536.211,-120.536C448.851,-116.191 210.066,-102.018 187,-76 181.103,-69.3486 181.322,-62.8387 187,-56 212.713,-25.0328 330.066,-14.7951 392.941,-11.5021"/>
<polygon fill="#191970" stroke="#191970" points="393.46,-14.981 403.277,-10.9976 393.119,-7.98933 393.46,-14.981"/>
</g>
<!-- Node11 -->
<g id="node11" class="node">
<title>Node11</title>
<polygon fill="#ffffff" stroke="#bfbfbf" points="196,-56.5 196,-75.5 240,-75.5 240,-56.5 196,-56.5"/>
<text text-anchor="middle" x="218" y="-63.5" font-family="Helvetica,sans-Serif" font-size="10.00" fill="#000000">gpio.h</text>
</g>
<!-- Node2&#45;&gt;Node11 -->
<g id="edge10" class="edge">
<title>Node2&#45;&gt;Node11</title>
<path fill="none" stroke="#191970" d="M536.431,-119.231C480.473,-113.941 360.165,-100.852 250.155,-75.9525"/>
<polygon fill="#191970" stroke="#191970" points="250.755,-72.4991 240.225,-73.6656 249.184,-79.3206 250.755,-72.4991"/>
</g>
<!-- Node12 -->
<g id="node12" class="node">
<title>Node12</title>
<polygon fill="#ffffff" stroke="#bfbfbf" points="258.5,-56.5 258.5,-75.5 305.5,-75.5 305.5,-56.5 258.5,-56.5"/>
<text text-anchor="middle" x="282" y="-63.5" font-family="Helvetica,sans-Serif" font-size="10.00" fill="#000000">mem.h</text>
</g>
<!-- Node2&#45;&gt;Node12 -->
<g id="edge11" class="edge">
<title>Node2&#45;&gt;Node12</title>
<path fill="none" stroke="#191970" d="M536.454,-117.571C489.962,-110.767 400.189,-96.5736 315.446,-76.1459"/>
<polygon fill="#191970" stroke="#191970" points="316.219,-72.7318 305.674,-73.7564 314.556,-79.5315 316.219,-72.7318"/>
</g>
<!-- Node13 -->
<g id="node13" class="node">
<title>Node13</title>
<polygon fill="#ffffff" stroke="#bfbfbf" points="323.5,-56.5 323.5,-75.5 372.5,-75.5 372.5,-56.5 323.5,-56.5"/>
<text text-anchor="middle" x="348" y="-63.5" font-family="Helvetica,sans-Serif" font-size="10.00" fill="#000000">osapi.h</text>
</g>
<!-- Node2&#45;&gt;Node13 -->
<g id="edge12" class="edge">
<title>Node2&#45;&gt;Node13</title>
<path fill="none" stroke="#191970" d="M536.298,-114.605C501.147,-106.307 442.542,-92.1864 382.827,-76.1408"/>
<polygon fill="#191970" stroke="#191970" points="383.414,-72.6739 372.847,-73.4437 381.588,-79.4315 383.414,-72.6739"/>
</g>
<!-- Node14 -->
<g id="node14" class="node">
<title>Node14</title>
<polygon fill="#ffffff" stroke="#bfbfbf" points="391,-56.5 391,-75.5 479,-75.5 479,-56.5 391,-56.5"/>
<text text-anchor="middle" x="435" y="-63.5" font-family="Helvetica,sans-Serif" font-size="10.00" fill="#000000">user_interface.h</text>
</g>
<!-- Node2&#45;&gt;Node14 -->
<g id="edge13" class="edge">
<title>Node2&#45;&gt;Node14</title>
<path fill="none" stroke="#191970" d="M545.136,-112.373C523.595,-103.303 491.116,-89.6279 467.004,-79.4755"/>
<polygon fill="#191970" stroke="#191970" points="468.14,-76.156 457.565,-75.5011 465.423,-82.6075 468.14,-76.156"/>
</g>
<!-- Node15 -->
<g id="node15" class="node">
<title>Node15</title>
<polygon fill="#ffffff" stroke="#bfbfbf" points="497,-56.5 497,-75.5 559,-75.5 559,-56.5 497,-56.5"/>
<text text-anchor="middle" x="528" y="-63.5" font-family="Helvetica,sans-Serif" font-size="10.00" fill="#000000">upgrade.h</text>
</g>
<!-- Node2&#45;&gt;Node15 -->
<g id="edge14" class="edge">
<title>Node2&#45;&gt;Node15</title>
<path fill="none" stroke="#191970" d="M561.033,-112.246C555.469,-104.456 547.522,-93.3308 540.817,-83.9439"/>
<polygon fill="#191970" stroke="#191970" points="543.548,-81.7457 534.888,-75.6427 537.852,-85.8144 543.548,-81.7457"/>
</g>
<!-- Node16 -->
<g id="node16" class="node">
<title>Node16</title>
<g id="a_node16"><a xlink:href="platform_8h.html" target="_top" xlink:title="platform.h">
<polygon fill="#ffffff" stroke="#000000" points="577.5,-56.5 577.5,-75.5 638.5,-75.5 638.5,-56.5 577.5,-56.5"/>
<text text-anchor="middle" x="608" y="-63.5" font-family="Helvetica,sans-Serif" font-size="10.00" fill="#000000">platform.h</text>
</a>
</g>
</g>
<!-- Node2&#45;&gt;Node16 -->
<g id="edge15" class="edge">
<title>Node2&#45;&gt;Node16</title>
<path fill="none" stroke="#191970" d="M574.967,-112.246C580.531,-104.456 588.478,-93.3308 595.183,-83.9439"/>
<polygon fill="#191970" stroke="#191970" points="598.148,-85.8144 601.112,-75.6427 592.452,-81.7457 598.148,-85.8144"/>
</g>
<!-- Node17 -->
<g id="node17" class="node">
<title>Node17</title>
<g id="a_node17"><a xlink:href="espmissingincludes_8h.html" target="_top" xlink:title="espmissingincludes.h">
<polygon fill="#ffffff" stroke="#000000" points="724,-56.5 724,-75.5 836,-75.5 836,-56.5 724,-56.5"/>
<text text-anchor="middle" x="780" y="-63.5" font-family="Helvetica,sans-Serif" font-size="10.00" fill="#000000">espmissingincludes.h</text>
</a>
</g>
</g>
<!-- Node2&#45;&gt;Node17 -->
<g id="edge16" class="edge">
<title>Node2&#45;&gt;Node17</title>
<path fill="none" stroke="#191970" d="M599.739,-113.616C635.305,-104.221 693.286,-88.9055 733.86,-78.1879"/>
<polygon fill="#191970" stroke="#191970" points="735.002,-81.5065 743.776,-75.5686 733.214,-74.7386 735.002,-81.5065"/>
</g>
<!-- Node17&#45;&gt;Node7 -->
<g id="edge18" class="edge">
<title>Node17&#45;&gt;Node7</title>
<path fill="none" stroke="#191970" d="M828.157,-56.4369C882.905,-45.5651 971.269,-28.0175 1022.25,-17.8929"/>
<polygon fill="#191970" stroke="#191970" points="1023.11,-21.2915 1032.24,-15.9106 1021.75,-14.4255 1023.11,-21.2915"/>
</g>
<!-- Node17&#45;&gt;Node10 -->
<g id="edge20" class="edge">
<title>Node17&#45;&gt;Node10</title>
<path fill="none" stroke="#191970" d="M723.863,-56.9404C653.509,-45.5865 534.687,-26.4106 472.944,-16.4463"/>
<polygon fill="#191970" stroke="#191970" points="473.252,-12.9508 462.822,-14.8128 472.137,-19.8614 473.252,-12.9508"/>
</g>
<!-- Node18 -->
<g id="node18" class="node">
<title>Node18</title>
<polygon fill="#ffffff" stroke="#bfbfbf" points="794.5,-0.5 794.5,-19.5 843.5,-19.5 843.5,-0.5 794.5,-0.5"/>
<text text-anchor="middle" x="819" y="-7.5" font-family="Helvetica,sans-Serif" font-size="10.00" fill="#000000">stdint.h</text>
</g>
<!-- Node17&#45;&gt;Node18 -->
<g id="edge17" class="edge">
<title>Node17&#45;&gt;Node18</title>
<path fill="none" stroke="#191970" d="M786.793,-56.2455C792.218,-48.4564 799.966,-37.3308 806.503,-27.9439"/>
<polygon fill="#191970" stroke="#191970" points="809.442,-29.849 812.285,-19.6427 803.697,-25.8485 809.442,-29.849"/>
</g>
<!-- Node19 -->
<g id="node19" class="node">
<title>Node19</title>
<polygon fill="#ffffff" stroke="#bfbfbf" points="706,-0.5 706,-19.5 776,-19.5 776,-0.5 706,-0.5"/>
<text text-anchor="middle" x="741" y="-7.5" font-family="Helvetica,sans-Serif" font-size="10.00" fill="#000000">eagle_soc.h</text>
</g>
<!-- Node17&#45;&gt;Node19 -->
<g id="edge19" class="edge">
<title>Node17&#45;&gt;Node19</title>
<path fill="none" stroke="#191970" d="M773.207,-56.2455C767.782,-48.4564 760.034,-37.3308 753.497,-27.9439"/>
<polygon fill="#191970" stroke="#191970" points="756.303,-25.8485 747.715,-19.6427 750.558,-29.849 756.303,-25.8485"/>
</g>
<!-- Node21&#45;&gt;Node7 -->
<g id="edge23" class="edge">
<title>Node21&#45;&gt;Node7</title>
<path fill="none" stroke="#191970" d="M1069.33,-112.162C1073.28,-99.2679 1078.97,-75.9454 1076,-56 1074.67,-47.0439 1071.95,-37.419 1069.26,-29.3"/>
<polygon fill="#191970" stroke="#191970" points="1072.49,-27.9402 1065.86,-19.6772 1065.89,-30.272 1072.49,-27.9402"/>
</g>
<!-- Node24&#45;&gt;Node23 -->
<g id="edge27" class="edge">
<title>Node24&#45;&gt;Node23</title>
<path fill="none" stroke="#191970" d="M1244.59,-112.246C1236.85,-104.216 1225.69,-92.6394 1216.47,-83.0781"/>
<polygon fill="#191970" stroke="#191970" points="1218.76,-80.4117 1209.3,-75.6427 1213.72,-85.2706 1218.76,-80.4117"/>
</g>
<!-- Node25 -->
<g id="node25" class="node">
<title>Node25</title>
<g id="a_node25"><a xlink:href="cron_8h.html" target="_top" xlink:title="cron/cron.h">
<polygon fill="#ffffff" stroke="#000000" points="1256.5,-56.5 1256.5,-75.5 1323.5,-75.5 1323.5,-56.5 1256.5,-56.5"/>
<text text-anchor="middle" x="1290" y="-63.5" font-family="Helvetica,sans-Serif" font-size="10.00" fill="#000000">cron/cron.h</text>
</a>
</g>
</g>
<!-- Node24&#45;&gt;Node25 -->
<g id="edge28" class="edge">
<title>Node24&#45;&gt;Node25</title>
<path fill="none" stroke="#191970" d="M1260.27,-112.246C1265.23,-104.537 1272.28,-93.5598 1278.28,-84.2348"/>
<polygon fill="#191970" stroke="#191970" points="1281.34,-85.9471 1283.8,-75.6427 1275.45,-82.1618 1281.34,-85.9471"/>
</g>
<!-- Node28 -->
<g id="node28" class="node">
<title>Node28</title>
<polygon fill="#ffffff" stroke="#bfbfbf" points="1350.5,-56.5 1350.5,-75.5 1403.5,-75.5 1403.5,-56.5 1350.5,-56.5"/>
<text text-anchor="middle" x="1377" y="-63.5" font-family="Helvetica,sans-Serif" font-size="10.00" fill="#000000">stdarg.h</text>
</g>
<!-- Node27&#45;&gt;Node28 -->
<g id="edge31" class="edge">
<title>Node27&#45;&gt;Node28</title>
<path fill="none" stroke="#191970" d="M1384.43,-112.246C1383.26,-104.938 1381.61,-94.6944 1380.17,-85.7046"/>
<polygon fill="#191970" stroke="#191970" points="1383.59,-84.9606 1378.55,-75.6427 1376.68,-86.0714 1383.59,-84.9606"/>
</g>
<!-- Node29 -->
<g id="node29" class="node">
<title>Node29</title>
<polygon fill="#ffffff" stroke="#bfbfbf" points="1421.5,-56.5 1421.5,-75.5 1488.5,-75.5 1488.5,-56.5 1421.5,-56.5"/>
<text text-anchor="middle" x="1455" y="-63.5" font-family="Helvetica,sans-Serif" font-size="10.00" fill="#000000">sys/types.h</text>
</g>
<!-- Node27&#45;&gt;Node29 -->
<g id="edge32" class="edge">
<title>Node27&#45;&gt;Node29</title>
<path fill="none" stroke="#191970" d="M1398.02,-112.246C1408.21,-103.975 1423.04,-91.9416 1435.01,-82.2232"/>
<polygon fill="#191970" stroke="#191970" points="1437.56,-84.662 1443.12,-75.6427 1433.15,-79.2268 1437.56,-84.662"/>
</g>
</g>
</svg>
