<?xml version="1.0" encoding="UTF-8" standalone="no"?>
<!DOCTYPE svg PUBLIC "-//W3C//DTD SVG 1.1//EN"
 "http://www.w3.org/Graphics/SVG/1.1/DTD/svg11.dtd">
<!-- Generated by graphviz version 2.41.20170323.1842 (20170323.1842)
 -->
<!-- Title: wifi_start_scan Pages: 1 -->
<svg width="648pt" height="124pt"
 viewBox="0.00 0.00 648.00 124.06" xmlns="http://www.w3.org/2000/svg" xmlns:xlink="http://www.w3.org/1999/xlink">
<g id="graph0" class="graph" transform="scale(1 1) rotate(0) translate(4 120.0557)">
<title>wifi_start_scan</title>
<polygon fill="#ffffff" stroke="transparent" points="-4,4 -4,-120.0557 644,-120.0557 644,4 -4,4"/>
<!-- Node308 -->
<g id="node1" class="node">
<title>Node308</title>
<polygon fill="#bfbfbf" stroke="#000000" points="0,-39.5557 0,-58.5557 83,-58.5557 83,-39.5557 0,-39.5557"/>
<text text-anchor="middle" x="41.5" y="-46.5557" font-family="Helvetica,sans-Serif" font-size="10.00" fill="#000000">wifi_start_scan</text>
</g>
<!-- Node309 -->
<g id="node2" class="node">
<title>Node309</title>
<g id="a_node2"><a xlink:href="wifi_8c.html#a9c38abb0900e0c7308be77d85dbf09e0" target="_top" xlink:title="wifi_connect">
<polygon fill="#ffffff" stroke="#000000" points="149.5,-96.5557 149.5,-115.5557 221.5,-115.5557 221.5,-96.5557 149.5,-96.5557"/>
<text text-anchor="middle" x="185.5" y="-103.5557" font-family="Helvetica,sans-Serif" font-size="10.00" fill="#000000">wifi_connect</text>
</a>
</g>
</g>
<!-- Node308&#45;&gt;Node309 -->
<g id="edge1" class="edge">
<title>Node308&#45;&gt;Node309</title>
<path fill="none" stroke="#191970" d="M67.6979,-63.3489C82.4757,-71.0405 101.4454,-80.3056 119,-87.0557 128.6382,-90.7617 139.3055,-94.122 149.2228,-96.9505"/>
<polygon fill="#191970" stroke="#191970" points="69.1254,-60.1446 58.6491,-58.5639 65.8531,-66.3327 69.1254,-60.1446"/>
</g>
<!-- Node313 -->
<g id="node6" class="node">
<title>Node313</title>
<g id="a_node6"><a xlink:href="watchdog_8c.html#a47b6861ffbed37fef88aa644f10ba917" target="_top" xlink:title="wifi_reconnect_timer_func">
<polygon fill="#ffffff" stroke="#000000" points="119,-58.5557 119,-77.5557 252,-77.5557 252,-58.5557 119,-58.5557"/>
<text text-anchor="middle" x="185.5" y="-65.5557" font-family="Helvetica,sans-Serif" font-size="10.00" fill="#000000">wifi_reconnect_timer_func</text>
</a>
</g>
</g>
<!-- Node308&#45;&gt;Node313 -->
<g id="edge5" class="edge">
<title>Node308&#45;&gt;Node313</title>
<path fill="none" stroke="#191970" d="M93.1423,-55.8696C101.5246,-56.9756 110.308,-58.1345 118.9846,-59.2793"/>
<polygon fill="#191970" stroke="#191970" points="93.5227,-52.3895 83.1508,-54.5512 92.607,-59.3294 93.5227,-52.3895"/>
</g>
<!-- Node316 -->
<g id="node9" class="node">
<title>Node316</title>
<g id="a_node9"><a xlink:href="wifi_8c.html#a1ef15ecd9e69811f6db10215c7196281" target="_top" xlink:title="wifi_scan_done_cb">
<polygon fill="#ffffff" stroke="#000000" points="134.5,-20.5557 134.5,-39.5557 236.5,-39.5557 236.5,-20.5557 134.5,-20.5557"/>
<text text-anchor="middle" x="185.5" y="-27.5557" font-family="Helvetica,sans-Serif" font-size="10.00" fill="#000000">wifi_scan_done_cb</text>
</a>
</g>
</g>
<!-- Node308&#45;&gt;Node316 -->
<g id="edge9" class="edge">
<title>Node308&#45;&gt;Node316</title>
<path fill="none" stroke="#191970" d="M93.1894,-42.2355C106.624,-40.4629 121.086,-38.5547 134.4856,-36.7867"/>
<polygon fill="#191970" stroke="#191970" points="92.607,-38.782 83.1508,-43.5601 93.5227,-45.7218 92.607,-38.782"/>
</g>
<!-- Node310 -->
<g id="node3" class="node">
<title>Node310</title>
<g id="a_node3"><a xlink:href="user__main_8c.html#a245ec00253f410a8804988bf40e1037e" target="_top" xlink:title="sample_mode_timer_func">
<polygon fill="#ffffff" stroke="#000000" points="288,-96.5557 288,-115.5557 420,-115.5557 420,-96.5557 288,-96.5557"/>
<text text-anchor="middle" x="354" y="-103.5557" font-family="Helvetica,sans-Serif" font-size="10.00" fill="#000000">sample_mode_timer_func</text>
</a>
</g>
</g>
<!-- Node309&#45;&gt;Node310 -->
<g id="edge2" class="edge">
<title>Node309&#45;&gt;Node310</title>
<path fill="none" stroke="#191970" d="M231.9815,-106.0557C249.184,-106.0557 269.0355,-106.0557 287.6623,-106.0557"/>
<polygon fill="#191970" stroke="#191970" points="231.6475,-102.5558 221.6475,-106.0557 231.6474,-109.5558 231.6475,-102.5558"/>
</g>
<!-- Node311 -->
<g id="node4" class="node">
<title>Node311</title>
<g id="a_node4"><a xlink:href="user__main_8h.html#a3671381db669a16e8f6a4bf3dfb9a441" target="_top" xlink:title="system_init_done">
<polygon fill="#ffffff" stroke="#000000" points="456,-96.5557 456,-115.5557 550,-115.5557 550,-96.5557 456,-96.5557"/>
<text text-anchor="middle" x="503" y="-103.5557" font-family="Helvetica,sans-Serif" font-size="10.00" fill="#000000">system_init_done</text>
</a>
</g>
</g>
<!-- Node310&#45;&gt;Node311 -->
<g id="edge3" class="edge">
<title>Node310&#45;&gt;Node311</title>
<path fill="none" stroke="#191970" d="M430.361,-106.0557C439.0092,-106.0557 447.624,-106.0557 455.7387,-106.0557"/>
<polygon fill="#191970" stroke="#191970" points="430.2213,-102.5558 420.2213,-106.0557 430.2212,-109.5558 430.2213,-102.5558"/>
</g>
<!-- Node312 -->
<g id="node5" class="node">
<title>Node312</title>
<g id="a_node5"><a xlink:href="user__main_8h.html#a33113d6dedb440bd7dfa5576e325140c" target="_top" xlink:title="user_init">
<polygon fill="#ffffff" stroke="#000000" points="586,-77.5557 586,-96.5557 640,-96.5557 640,-77.5557 586,-77.5557"/>
<text text-anchor="middle" x="613" y="-84.5557" font-family="Helvetica,sans-Serif" font-size="10.00" fill="#000000">user_init</text>
</a>
</g>
</g>
<!-- Node311&#45;&gt;Node312 -->
<g id="edge4" class="edge">
<title>Node311&#45;&gt;Node312</title>
<path fill="none" stroke="#191970" d="M560.2886,-96.1604C569.1598,-94.6281 577.9515,-93.1095 585.7383,-91.7645"/>
<polygon fill="#191970" stroke="#191970" points="559.5466,-92.7366 550.2883,-97.8877 560.7381,-99.6345 559.5466,-92.7366"/>
</g>
<!-- Node314 -->
<g id="node7" class="node">
<title>Node314</title>
<g id="a_node7"><a xlink:href="watchdog_8c.html#aeb03c505b5b589ae4d89b2ae11dd1711" target="_top" xlink:title="watchdog_timer_func">
<polygon fill="#ffffff" stroke="#000000" points="298,-58.5557 298,-77.5557 410,-77.5557 410,-58.5557 298,-58.5557"/>
<text text-anchor="middle" x="354" y="-65.5557" font-family="Helvetica,sans-Serif" font-size="10.00" fill="#000000">watchdog_timer_func</text>
</a>
</g>
</g>
<!-- Node313&#45;&gt;Node314 -->
<g id="edge6" class="edge">
<title>Node313&#45;&gt;Node314</title>
<path fill="none" stroke="#191970" d="M262.1494,-68.0557C274.2028,-68.0557 286.4654,-68.0557 297.9395,-68.0557"/>
<polygon fill="#191970" stroke="#191970" points="262.0957,-64.5558 252.0957,-68.0557 262.0956,-71.5558 262.0957,-64.5558"/>
</g>
<!-- Node315 -->
<g id="node8" class="node">
<title>Node315</title>
<g id="a_node8"><a xlink:href="watchdog_8h.html#ab148f2150b52df5b60e312dded3a2934" target="_top" xlink:title="start_watchdog">
<polygon fill="#ffffff" stroke="#000000" points="461,-58.5557 461,-77.5557 545,-77.5557 545,-58.5557 461,-58.5557"/>
<text text-anchor="middle" x="503" y="-65.5557" font-family="Helvetica,sans-Serif" font-size="10.00" fill="#000000">start_watchdog</text>
</a>
</g>
</g>
<!-- Node314&#45;&gt;Node315 -->
<g id="edge7" class="edge">
<title>Node314&#45;&gt;Node315</title>
<path fill="none" stroke="#191970" d="M420.7067,-68.0557C434.407,-68.0557 448.4627,-68.0557 460.9932,-68.0557"/>
<polygon fill="#191970" stroke="#191970" points="420.3305,-64.5558 410.3305,-68.0557 420.3305,-71.5558 420.3305,-64.5558"/>
</g>
<!-- Node315&#45;&gt;Node312 -->
<g id="edge8" class="edge">
<title>Node315&#45;&gt;Node312</title>
<path fill="none" stroke="#191970" d="M555.3079,-77.0907C565.9327,-78.9259 576.6918,-80.7842 585.9941,-82.391"/>
<polygon fill="#191970" stroke="#191970" points="555.6641,-73.6004 545.2143,-75.3472 554.4726,-80.4983 555.6641,-73.6004"/>
</g>
<!-- Node317 -->
<g id="node10" class="node">
<title>Node317</title>
<g id="a_node10"><a xlink:href="wifi_8c.html#ae7011f25db54676b86fefe2caa450a4a" target="_top" xlink:title="wifi_scan_timer_func">
<polygon fill="#ffffff" stroke="#000000" points="299,-1.5557 299,-20.5557 409,-20.5557 409,-1.5557 299,-1.5557"/>
<text text-anchor="middle" x="354" y="-8.5557" font-family="Helvetica,sans-Serif" font-size="10.00" fill="#000000">wifi_scan_timer_func</text>
</a>
</g>
</g>
<!-- Node316&#45;&gt;Node317 -->
<g id="edge10" class="edge">
<title>Node316&#45;&gt;Node317</title>
<path fill="none" stroke="#191970" d="M246.8793,-23.1346C263.8504,-21.2209 282.161,-19.1562 298.7603,-17.2845"/>
<polygon fill="#191970" stroke="#191970" points="246.0576,-19.7049 236.5128,-24.3035 246.8421,-26.6609 246.0576,-19.7049"/>
</g>
<!-- Node317&#45;&gt;Node308 -->
<g id="edge11" class="edge">
<title>Node317&#45;&gt;Node308</title>
<path fill="none" stroke="#191970" d="M288.4093,-3.1977C240.7699,.6205 175.0952,1.9567 119,-11.0557 95.4978,-16.5074 70.904,-30.1318 55.8872,-39.4928"/>
<polygon fill="#191970" stroke="#191970" points="288.3306,-6.7038 298.5937,-4.0736 288.9305,.2705 288.3306,-6.7038"/>
</g>
</g>
</svg>
