<?xml version="1.0" encoding="UTF-8" standalone="no"?>
<!DOCTYPE svg PUBLIC "-//W3C//DTD SVG 1.1//EN"
 "http://www.w3.org/Graphics/SVG/1.1/DTD/svg11.dtd">
<!-- Generated by graphviz version 2.41.20170323.1842 (20170323.1842)
 -->
<!-- Title: wifi_scan_done_cb Pages: 1 -->
<svg width="932pt" height="104pt"
 viewBox="0.00 0.00 932.00 104.00" xmlns="http://www.w3.org/2000/svg" xmlns:xlink="http://www.w3.org/1999/xlink">
<g id="graph0" class="graph" transform="scale(1 1) rotate(0) translate(4 100)">
<title>wifi_scan_done_cb</title>
<polygon fill="#ffffff" stroke="transparent" points="-4,4 -4,-100 928,-100 928,4 -4,4"/>
<!-- Node168 -->
<g id="node1" class="node">
<title>Node168</title>
<polygon fill="#bfbfbf" stroke="#000000" points="0,-57.5 0,-76.5 102,-76.5 102,-57.5 0,-57.5"/>
<text text-anchor="middle" x="51" y="-64.5" font-family="Helvetica,sans-Serif" font-size="10.00" fill="#000000">wifi_scan_done_cb</text>
</g>
<!-- Node169 -->
<g id="node2" class="node">
<title>Node169</title>
<g id="a_node2"><a xlink:href="wifi_8c.html#ae7011f25db54676b86fefe2caa450a4a" target="_top" xlink:title="wifi_scan_timer_func">
<polygon fill="#ffffff" stroke="#000000" points="138,-57.5 138,-76.5 248,-76.5 248,-57.5 138,-57.5"/>
<text text-anchor="middle" x="193" y="-64.5" font-family="Helvetica,sans-Serif" font-size="10.00" fill="#000000">wifi_scan_timer_func</text>
</a>
</g>
</g>
<!-- Node168&#45;&gt;Node169 -->
<g id="edge1" class="edge">
<title>Node168&#45;&gt;Node169</title>
<path fill="none" stroke="#191970" d="M112.4814,-67C120.959,-67 129.621,-67 137.9721,-67"/>
<polygon fill="#191970" stroke="#191970" points="112.2653,-63.5001 102.2653,-67 112.2652,-70.5001 112.2653,-63.5001"/>
</g>
<!-- Node170 -->
<g id="node3" class="node">
<title>Node170</title>
<g id="a_node3"><a xlink:href="wifi_8c.html#a5831b420da0012d53c979c375714d382" target="_top" xlink:title="wifi_start_scan">
<polygon fill="#ffffff" stroke="#000000" points="284,-38.5 284,-57.5 367,-57.5 367,-38.5 284,-38.5"/>
<text text-anchor="middle" x="325.5" y="-45.5" font-family="Helvetica,sans-Serif" font-size="10.00" fill="#000000">wifi_start_scan</text>
</a>
</g>
</g>
<!-- Node169&#45;&gt;Node170 -->
<g id="edge2" class="edge">
<title>Node169&#45;&gt;Node170</title>
<path fill="none" stroke="#191970" d="M258.2024,-57.6502C266.8986,-56.4032 275.6189,-55.1528 283.7637,-53.9848"/>
<polygon fill="#191970" stroke="#191970" points="257.4427,-54.2233 248.0408,-59.1074 258.4364,-61.1524 257.4427,-54.2233"/>
</g>
<!-- Node171 -->
<g id="node4" class="node">
<title>Node171</title>
<g id="a_node4"><a xlink:href="wifi_8c.html#a1ef15ecd9e69811f6db10215c7196281" target="_top" xlink:title="wifi_scan_done_cb">
<polygon fill="#ffffff" stroke="#000000" points="418.5,-76.5 418.5,-95.5 520.5,-95.5 520.5,-76.5 418.5,-76.5"/>
<text text-anchor="middle" x="469.5" y="-83.5" font-family="Helvetica,sans-Serif" font-size="10.00" fill="#000000">wifi_scan_done_cb</text>
</a>
</g>
</g>
<!-- Node170&#45;&gt;Node171 -->
<g id="edge3" class="edge">
<title>Node170&#45;&gt;Node171</title>
<path fill="none" stroke="#191970" d="M371.6722,-60.1843C391.6642,-65.46 414.7187,-71.5438 433.424,-76.4799"/>
<polygon fill="#191970" stroke="#191970" points="372.3994,-56.7565 361.8373,-57.589 370.6132,-63.5248 372.3994,-56.7565"/>
</g>
<!-- Node172 -->
<g id="node5" class="node">
<title>Node172</title>
<g id="a_node5"><a xlink:href="wifi_8c.html#a9c38abb0900e0c7308be77d85dbf09e0" target="_top" xlink:title="wifi_connect">
<polygon fill="#ffffff" stroke="#000000" points="433.5,-38.5 433.5,-57.5 505.5,-57.5 505.5,-38.5 433.5,-38.5"/>
<text text-anchor="middle" x="469.5" y="-45.5" font-family="Helvetica,sans-Serif" font-size="10.00" fill="#000000">wifi_connect</text>
</a>
</g>
</g>
<!-- Node170&#45;&gt;Node172 -->
<g id="edge5" class="edge">
<title>Node170&#45;&gt;Node172</title>
<path fill="none" stroke="#191970" d="M377.2344,-48C395.811,-48 416.3469,-48 433.3196,-48"/>
<polygon fill="#191970" stroke="#191970" points="377.1508,-44.5001 367.1508,-48 377.1507,-51.5001 377.1508,-44.5001"/>
</g>
<!-- Node176 -->
<g id="node9" class="node">
<title>Node176</title>
<g id="a_node9"><a xlink:href="watchdog_8c.html#a47b6861ffbed37fef88aa644f10ba917" target="_top" xlink:title="wifi_reconnect_timer_func">
<polygon fill="#ffffff" stroke="#000000" points="403,-.5 403,-19.5 536,-19.5 536,-.5 403,-.5"/>
<text text-anchor="middle" x="469.5" y="-7.5" font-family="Helvetica,sans-Serif" font-size="10.00" fill="#000000">wifi_reconnect_timer_func</text>
</a>
</g>
</g>
<!-- Node170&#45;&gt;Node176 -->
<g id="edge9" class="edge">
<title>Node170&#45;&gt;Node176</title>
<path fill="none" stroke="#191970" d="M371.6722,-35.8157C391.6642,-30.54 414.7187,-24.4562 433.424,-19.5201"/>
<polygon fill="#191970" stroke="#191970" points="370.6132,-32.4752 361.8373,-38.411 372.3994,-39.2435 370.6132,-32.4752"/>
</g>
<!-- Node171&#45;&gt;Node169 -->
<g id="edge4" class="edge">
<title>Node171&#45;&gt;Node169</title>
<path fill="none" stroke="#191970" d="M407.8235,-81.7618C360.0266,-78.4774 294.3921,-73.9673 248.2894,-70.7993"/>
<polygon fill="#191970" stroke="#191970" points="407.8255,-85.2701 418.0419,-82.464 408.3054,-78.2866 407.8255,-85.2701"/>
</g>
<!-- Node173 -->
<g id="node6" class="node">
<title>Node173</title>
<g id="a_node6"><a xlink:href="user__main_8c.html#a245ec00253f410a8804988bf40e1037e" target="_top" xlink:title="sample_mode_timer_func">
<polygon fill="#ffffff" stroke="#000000" points="572,-38.5 572,-57.5 704,-57.5 704,-38.5 572,-38.5"/>
<text text-anchor="middle" x="638" y="-45.5" font-family="Helvetica,sans-Serif" font-size="10.00" fill="#000000">sample_mode_timer_func</text>
</a>
</g>
</g>
<!-- Node172&#45;&gt;Node173 -->
<g id="edge6" class="edge">
<title>Node172&#45;&gt;Node173</title>
<path fill="none" stroke="#191970" d="M515.9815,-48C533.184,-48 553.0355,-48 571.6623,-48"/>
<polygon fill="#191970" stroke="#191970" points="515.6475,-44.5001 505.6475,-48 515.6474,-51.5001 515.6475,-44.5001"/>
</g>
<!-- Node174 -->
<g id="node7" class="node">
<title>Node174</title>
<g id="a_node7"><a xlink:href="user__main_8h.html#a3671381db669a16e8f6a4bf3dfb9a441" target="_top" xlink:title="system_init_done">
<polygon fill="#ffffff" stroke="#000000" points="740,-38.5 740,-57.5 834,-57.5 834,-38.5 740,-38.5"/>
<text text-anchor="middle" x="787" y="-45.5" font-family="Helvetica,sans-Serif" font-size="10.00" fill="#000000">system_init_done</text>
</a>
</g>
</g>
<!-- Node173&#45;&gt;Node174 -->
<g id="edge7" class="edge">
<title>Node173&#45;&gt;Node174</title>
<path fill="none" stroke="#191970" d="M714.361,-48C723.0092,-48 731.624,-48 739.7387,-48"/>
<polygon fill="#191970" stroke="#191970" points="714.2213,-44.5001 704.2213,-48 714.2212,-51.5001 714.2213,-44.5001"/>
</g>
<!-- Node175 -->
<g id="node8" class="node">
<title>Node175</title>
<g id="a_node8"><a xlink:href="user__main_8h.html#a33113d6dedb440bd7dfa5576e325140c" target="_top" xlink:title="user_init">
<polygon fill="#ffffff" stroke="#000000" points="870,-19.5 870,-38.5 924,-38.5 924,-19.5 870,-19.5"/>
<text text-anchor="middle" x="897" y="-26.5" font-family="Helvetica,sans-Serif" font-size="10.00" fill="#000000">user_init</text>
</a>
</g>
</g>
<!-- Node174&#45;&gt;Node175 -->
<g id="edge8" class="edge">
<title>Node174&#45;&gt;Node175</title>
<path fill="none" stroke="#191970" d="M844.2886,-38.1047C853.1598,-36.5724 861.9515,-35.0538 869.7383,-33.7088"/>
<polygon fill="#191970" stroke="#191970" points="843.5466,-34.6809 834.2883,-39.832 844.7381,-41.5788 843.5466,-34.6809"/>
</g>
<!-- Node177 -->
<g id="node10" class="node">
<title>Node177</title>
<g id="a_node10"><a xlink:href="watchdog_8c.html#aeb03c505b5b589ae4d89b2ae11dd1711" target="_top" xlink:title="watchdog_timer_func">
<polygon fill="#ffffff" stroke="#000000" points="582,-.5 582,-19.5 694,-19.5 694,-.5 582,-.5"/>
<text text-anchor="middle" x="638" y="-7.5" font-family="Helvetica,sans-Serif" font-size="10.00" fill="#000000">watchdog_timer_func</text>
</a>
</g>
</g>
<!-- Node176&#45;&gt;Node177 -->
<g id="edge10" class="edge">
<title>Node176&#45;&gt;Node177</title>
<path fill="none" stroke="#191970" d="M546.1494,-10C558.2028,-10 570.4654,-10 581.9395,-10"/>
<polygon fill="#191970" stroke="#191970" points="546.0957,-6.5001 536.0957,-10 546.0956,-13.5001 546.0957,-6.5001"/>
</g>
<!-- Node178 -->
<g id="node11" class="node">
<title>Node178</title>
<g id="a_node11"><a xlink:href="watchdog_8h.html#ab148f2150b52df5b60e312dded3a2934" target="_top" xlink:title="start_watchdog">
<polygon fill="#ffffff" stroke="#000000" points="745,-.5 745,-19.5 829,-19.5 829,-.5 745,-.5"/>
<text text-anchor="middle" x="787" y="-7.5" font-family="Helvetica,sans-Serif" font-size="10.00" fill="#000000">start_watchdog</text>
</a>
</g>
</g>
<!-- Node177&#45;&gt;Node178 -->
<g id="edge11" class="edge">
<title>Node177&#45;&gt;Node178</title>
<path fill="none" stroke="#191970" d="M704.7067,-10C718.407,-10 732.4627,-10 744.9932,-10"/>
<polygon fill="#191970" stroke="#191970" points="704.3305,-6.5001 694.3305,-10 704.3305,-13.5001 704.3305,-6.5001"/>
</g>
<!-- Node178&#45;&gt;Node175 -->
<g id="edge12" class="edge">
<title>Node178&#45;&gt;Node175</title>
<path fill="none" stroke="#191970" d="M839.3079,-19.035C849.9327,-20.8702 860.6918,-22.7286 869.9941,-24.3354"/>
<polygon fill="#191970" stroke="#191970" points="839.6641,-15.5448 829.2143,-17.2916 838.4726,-22.4426 839.6641,-15.5448"/>
</g>
</g>
</svg>
