<?xml version="1.0" encoding="UTF-8" standalone="no"?>
<!DOCTYPE svg PUBLIC "-//W3C//DTD SVG 1.1//EN"
 "http://www.w3.org/Graphics/SVG/1.1/DTD/svg11.dtd">
<!-- Generated by graphviz version 2.41.20170323.1842 (20170323.1842)
 -->
<!-- Title: wifi_start_scan Pages: 1 -->
<svg width="1051pt" height="78pt"
 viewBox="0.00 0.00 1051.00 78.21" xmlns="http://www.w3.org/2000/svg" xmlns:xlink="http://www.w3.org/1999/xlink">
<g id="graph0" class="graph" transform="scale(1 1) rotate(0) translate(4 74.2056)">
<title>wifi_start_scan</title>
<polygon fill="#ffffff" stroke="transparent" points="-4,4 -4,-74.2056 1047,-74.2056 1047,4 -4,4"/>
<!-- Node242 -->
<g id="node1" class="node">
<title>Node242</title>
<polygon fill="#bfbfbf" stroke="#000000" points="0,-20.7051 0,-39.7051 83,-39.7051 83,-20.7051 0,-20.7051"/>
<text text-anchor="middle" x="41.5" y="-27.7051" font-family="Helvetica,sans-Serif" font-size="10.00" fill="#000000">wifi_start_scan</text>
</g>
<!-- Node243 -->
<g id="node2" class="node">
<title>Node243</title>
<g id="a_node2"><a xlink:href="wifi_8c.html#a9c38abb0900e0c7308be77d85dbf09e0" target="_top" xlink:title="wifi_connect">
<polygon fill="#ffffff" stroke="#000000" points="552.5,-39.7051 552.5,-58.7051 624.5,-58.7051 624.5,-39.7051 552.5,-39.7051"/>
<text text-anchor="middle" x="588.5" y="-46.7051" font-family="Helvetica,sans-Serif" font-size="10.00" fill="#000000">wifi_connect</text>
</a>
</g>
</g>
<!-- Node242&#45;&gt;Node243 -->
<g id="edge1" class="edge">
<title>Node242&#45;&gt;Node243</title>
<path fill="none" stroke="#191970" d="M87.0046,-42.1944C97.4699,-44.7192 108.5849,-47.2169 119,-49.2051 227.5846,-69.9327 256.5559,-72.9333 367,-68.2051 432.5533,-65.3987 508.7205,-57.9409 552.4973,-53.247"/>
<polygon fill="#191970" stroke="#191970" points="87.761,-38.7761 77.2139,-39.7811 86.0856,-45.5727 87.761,-38.7761"/>
</g>
<!-- Node247 -->
<g id="node6" class="node">
<title>Node247</title>
<g id="a_node6"><a xlink:href="watchdog_8c.html#a47b6861ffbed37fef88aa644f10ba917" target="_top" xlink:title="wifi_reconnect_timer_func">
<polygon fill="#ffffff" stroke="#000000" points="522,-1.7051 522,-20.7051 655,-20.7051 655,-1.7051 522,-1.7051"/>
<text text-anchor="middle" x="588.5" y="-8.7051" font-family="Helvetica,sans-Serif" font-size="10.00" fill="#000000">wifi_reconnect_timer_func</text>
</a>
</g>
</g>
<!-- Node242&#45;&gt;Node247 -->
<g id="edge5" class="edge">
<title>Node242&#45;&gt;Node247</title>
<path fill="none" stroke="#191970" d="M82.7385,-18.1492C94.3614,-15.2849 107.0862,-12.6442 119,-11.2051 261.6254,6.0229 430.4053,-.4712 521.7217,-6.1893"/>
<polygon fill="#191970" stroke="#191970" points="81.6645,-14.8116 72.8563,-20.6993 83.4136,-21.5895 81.6645,-14.8116"/>
</g>
<!-- Node250 -->
<g id="node9" class="node">
<title>Node250</title>
<g id="a_node9"><a xlink:href="wifi_8c.html#a1ef15ecd9e69811f6db10215c7196281" target="_top" xlink:title="wifi_scan_done_cb">
<polygon fill="#ffffff" stroke="#000000" points="119,-20.7051 119,-39.7051 221,-39.7051 221,-20.7051 119,-20.7051"/>
<text text-anchor="middle" x="170" y="-27.7051" font-family="Helvetica,sans-Serif" font-size="10.00" fill="#000000">wifi_scan_done_cb</text>
</a>
</g>
</g>
<!-- Node242&#45;&gt;Node250 -->
<g id="edge9" class="edge">
<title>Node242&#45;&gt;Node250</title>
<path fill="none" stroke="#191970" d="M93.2331,-30.2051C101.5944,-30.2051 110.2498,-30.2051 118.6031,-30.2051"/>
<polygon fill="#191970" stroke="#191970" points="93.2203,-26.7052 83.2203,-30.2051 93.2202,-33.7052 93.2203,-26.7052"/>
</g>
<!-- Node244 -->
<g id="node3" class="node">
<title>Node244</title>
<g id="a_node3"><a xlink:href="user__main_8c.html#a245ec00253f410a8804988bf40e1037e" target="_top" xlink:title="sample_mode_timer_func">
<polygon fill="#ffffff" stroke="#000000" points="691,-39.7051 691,-58.7051 823,-58.7051 823,-39.7051 691,-39.7051"/>
<text text-anchor="middle" x="757" y="-46.7051" font-family="Helvetica,sans-Serif" font-size="10.00" fill="#000000">sample_mode_timer_func</text>
</a>
</g>
</g>
<!-- Node243&#45;&gt;Node244 -->
<g id="edge2" class="edge">
<title>Node243&#45;&gt;Node244</title>
<path fill="none" stroke="#191970" d="M634.9815,-49.2051C652.184,-49.2051 672.0355,-49.2051 690.6623,-49.2051"/>
<polygon fill="#191970" stroke="#191970" points="634.6475,-45.7052 624.6475,-49.2051 634.6474,-52.7052 634.6475,-45.7052"/>
</g>
<!-- Node245 -->
<g id="node4" class="node">
<title>Node245</title>
<g id="a_node4"><a xlink:href="user__main_8h.html#a3671381db669a16e8f6a4bf3dfb9a441" target="_top" xlink:title="system_init_done">
<polygon fill="#ffffff" stroke="#000000" points="859,-39.7051 859,-58.7051 953,-58.7051 953,-39.7051 859,-39.7051"/>
<text text-anchor="middle" x="906" y="-46.7051" font-family="Helvetica,sans-Serif" font-size="10.00" fill="#000000">system_init_done</text>
</a>
</g>
</g>
<!-- Node244&#45;&gt;Node245 -->
<g id="edge3" class="edge">
<title>Node244&#45;&gt;Node245</title>
<path fill="none" stroke="#191970" d="M833.361,-49.2051C842.0092,-49.2051 850.624,-49.2051 858.7387,-49.2051"/>
<polygon fill="#191970" stroke="#191970" points="833.2213,-45.7052 823.2213,-49.2051 833.2212,-52.7052 833.2213,-45.7052"/>
</g>
<!-- Node246 -->
<g id="node5" class="node">
<title>Node246</title>
<g id="a_node5"><a xlink:href="user__main_8h.html#a33113d6dedb440bd7dfa5576e325140c" target="_top" xlink:title="user_init">
<polygon fill="#ffffff" stroke="#000000" points="989,-20.7051 989,-39.7051 1043,-39.7051 1043,-20.7051 989,-20.7051"/>
<text text-anchor="middle" x="1016" y="-27.7051" font-family="Helvetica,sans-Serif" font-size="10.00" fill="#000000">user_init</text>
</a>
</g>
</g>
<!-- Node245&#45;&gt;Node246 -->
<g id="edge4" class="edge">
<title>Node245&#45;&gt;Node246</title>
<path fill="none" stroke="#191970" d="M963.2886,-39.3098C972.1598,-37.7775 980.9515,-36.2589 988.7383,-34.9139"/>
<polygon fill="#191970" stroke="#191970" points="962.5466,-35.886 953.2883,-41.0371 963.7381,-42.7839 962.5466,-35.886"/>
</g>
<!-- Node248 -->
<g id="node7" class="node">
<title>Node248</title>
<g id="a_node7"><a xlink:href="watchdog_8c.html#aeb03c505b5b589ae4d89b2ae11dd1711" target="_top" xlink:title="watchdog_timer_func">
<polygon fill="#ffffff" stroke="#000000" points="701,-1.7051 701,-20.7051 813,-20.7051 813,-1.7051 701,-1.7051"/>
<text text-anchor="middle" x="757" y="-8.7051" font-family="Helvetica,sans-Serif" font-size="10.00" fill="#000000">watchdog_timer_func</text>
</a>
</g>
</g>
<!-- Node247&#45;&gt;Node248 -->
<g id="edge6" class="edge">
<title>Node247&#45;&gt;Node248</title>
<path fill="none" stroke="#191970" d="M665.1494,-11.2051C677.2028,-11.2051 689.4654,-11.2051 700.9395,-11.2051"/>
<polygon fill="#191970" stroke="#191970" points="665.0957,-7.7052 655.0957,-11.2051 665.0956,-14.7052 665.0957,-7.7052"/>
</g>
<!-- Node249 -->
<g id="node8" class="node">
<title>Node249</title>
<g id="a_node8"><a xlink:href="watchdog_8h.html#ab148f2150b52df5b60e312dded3a2934" target="_top" xlink:title="start_watchdog">
<polygon fill="#ffffff" stroke="#000000" points="864,-1.7051 864,-20.7051 948,-20.7051 948,-1.7051 864,-1.7051"/>
<text text-anchor="middle" x="906" y="-8.7051" font-family="Helvetica,sans-Serif" font-size="10.00" fill="#000000">start_watchdog</text>
</a>
</g>
</g>
<!-- Node248&#45;&gt;Node249 -->
<g id="edge7" class="edge">
<title>Node248&#45;&gt;Node249</title>
<path fill="none" stroke="#191970" d="M823.7067,-11.2051C837.407,-11.2051 851.4627,-11.2051 863.9932,-11.2051"/>
<polygon fill="#191970" stroke="#191970" points="823.3305,-7.7052 813.3305,-11.2051 823.3305,-14.7052 823.3305,-7.7052"/>
</g>
<!-- Node249&#45;&gt;Node246 -->
<g id="edge8" class="edge">
<title>Node249&#45;&gt;Node246</title>
<path fill="none" stroke="#191970" d="M958.3079,-20.2401C968.9327,-22.0753 979.6918,-23.9337 988.9941,-25.5404"/>
<polygon fill="#191970" stroke="#191970" points="958.6641,-16.7499 948.2143,-18.4966 957.4726,-23.6477 958.6641,-16.7499"/>
</g>
<!-- Node251 -->
<g id="node10" class="node">
<title>Node251</title>
<g id="a_node10"><a xlink:href="wifi_8c.html#ae7011f25db54676b86fefe2caa450a4a" target="_top" xlink:title="wifi_scan_timer_func">
<polygon fill="#ffffff" stroke="#000000" points="257,-39.7051 257,-58.7051 367,-58.7051 367,-39.7051 257,-39.7051"/>
<text text-anchor="middle" x="312" y="-46.7051" font-family="Helvetica,sans-Serif" font-size="10.00" fill="#000000">wifi_scan_timer_func</text>
</a>
</g>
</g>
<!-- Node250&#45;&gt;Node251 -->
<g id="edge10" class="edge">
<title>Node250&#45;&gt;Node251</title>
<path fill="none" stroke="#191970" d="M231.2019,-38.3941C239.7686,-39.5403 248.5292,-40.7125 256.9721,-41.8422"/>
<polygon fill="#191970" stroke="#191970" points="231.6411,-34.9217 221.2653,-37.0645 230.7127,-41.8599 231.6411,-34.9217"/>
</g>
<!-- Node252 -->
<g id="node11" class="node">
<title>Node252</title>
<g id="a_node11"><a xlink:href="wifi_8c.html#a5831b420da0012d53c979c375714d382" target="_top" xlink:title="wifi_start_scan">
<polygon fill="#ffffff" stroke="#000000" points="403,-20.7051 403,-39.7051 486,-39.7051 486,-20.7051 403,-20.7051"/>
<text text-anchor="middle" x="444.5" y="-27.7051" font-family="Helvetica,sans-Serif" font-size="10.00" fill="#000000">wifi_start_scan</text>
</a>
</g>
</g>
<!-- Node251&#45;&gt;Node252 -->
<g id="edge11" class="edge">
<title>Node251&#45;&gt;Node252</title>
<path fill="none" stroke="#191970" d="M377.2024,-39.8553C385.8986,-38.6083 394.6189,-37.3578 402.7637,-36.1899"/>
<polygon fill="#191970" stroke="#191970" points="376.4427,-36.4283 367.0408,-41.3124 377.4364,-43.3575 376.4427,-36.4283"/>
</g>
<!-- Node252&#45;&gt;Node243 -->
<g id="edge13" class="edge">
<title>Node252&#45;&gt;Node243</title>
<path fill="none" stroke="#191970" d="M496.2344,-37.0311C514.811,-39.4822 535.3469,-42.1918 552.3196,-44.4313"/>
<polygon fill="#191970" stroke="#191970" points="496.5227,-33.5389 486.1508,-35.7007 495.607,-40.4788 496.5227,-33.5389"/>
</g>
<!-- Node252&#45;&gt;Node247 -->
<g id="edge14" class="edge">
<title>Node252&#45;&gt;Node247</title>
<path fill="none" stroke="#191970" d="M496.1423,-23.3912C504.5246,-22.2852 513.308,-21.1262 521.9846,-19.9814"/>
<polygon fill="#191970" stroke="#191970" points="495.607,-19.9314 486.1508,-24.7095 496.5227,-26.8712 495.607,-19.9314"/>
</g>
<!-- Node252&#45;&gt;Node250 -->
<g id="edge12" class="edge">
<title>Node252&#45;&gt;Node250</title>
<path fill="none" stroke="#191970" d="M392.7692,-30.2051C343.663,-30.2051 270.2759,-30.2051 221.3093,-30.2051"/>
<polygon fill="#191970" stroke="#191970" points="392.8618,-33.7052 402.8618,-30.2051 392.8618,-26.7052 392.8618,-33.7052"/>
</g>
</g>
</svg>
