<?xml version="1.0" encoding="UTF-8" standalone="no"?>
<!DOCTYPE svg PUBLIC "-//W3C//DTD SVG 1.1//EN"
 "http://www.w3.org/Graphics/SVG/1.1/DTD/svg11.dtd">
<!-- Generated by graphviz version 2.41.20170323.1842 (20170323.1842)
 -->
<!-- Title: wifi_default Pages: 1 -->
<svg width="1035pt" height="66pt"
 viewBox="0.00 0.00 1035.00 66.00" xmlns="http://www.w3.org/2000/svg" xmlns:xlink="http://www.w3.org/1999/xlink">
<g id="graph0" class="graph" transform="scale(1 1) rotate(0) translate(4 62)">
<title>wifi_default</title>
<polygon fill="#ffffff" stroke="transparent" points="-4,4 -4,-62 1031,-62 1031,4 -4,4"/>
<!-- Node87 -->
<g id="node1" class="node">
<title>Node87</title>
<polygon fill="#bfbfbf" stroke="#000000" points="0,-19.5 0,-38.5 67,-38.5 67,-19.5 0,-19.5"/>
<text text-anchor="middle" x="33.5" y="-26.5" font-family="Helvetica,sans-Serif" font-size="10.00" fill="#000000">wifi_default</text>
</g>
<!-- Node88 -->
<g id="node2" class="node">
<title>Node88</title>
<g id="a_node2"><a xlink:href="wifi_8c.html#a1ef15ecd9e69811f6db10215c7196281" target="_top" xlink:title="wifi_scan_done_cb">
<polygon fill="#ffffff" stroke="#000000" points="103,-19.5 103,-38.5 205,-38.5 205,-19.5 103,-19.5"/>
<text text-anchor="middle" x="154" y="-26.5" font-family="Helvetica,sans-Serif" font-size="10.00" fill="#000000">wifi_scan_done_cb</text>
</a>
</g>
</g>
<!-- Node87&#45;&gt;Node88 -->
<g id="edge1" class="edge">
<title>Node87&#45;&gt;Node88</title>
<path fill="none" stroke="#191970" d="M77.2074,-29C85.4431,-29 94.1259,-29 102.5722,-29"/>
<polygon fill="#191970" stroke="#191970" points="77.066,-25.5001 67.066,-29 77.0659,-32.5001 77.066,-25.5001"/>
</g>
<!-- Node89 -->
<g id="node3" class="node">
<title>Node89</title>
<g id="a_node3"><a xlink:href="wifi_8c.html#ae7011f25db54676b86fefe2caa450a4a" target="_top" xlink:title="wifi_scan_timer_func">
<polygon fill="#ffffff" stroke="#000000" points="241,-38.5 241,-57.5 351,-57.5 351,-38.5 241,-38.5"/>
<text text-anchor="middle" x="296" y="-45.5" font-family="Helvetica,sans-Serif" font-size="10.00" fill="#000000">wifi_scan_timer_func</text>
</a>
</g>
</g>
<!-- Node88&#45;&gt;Node89 -->
<g id="edge2" class="edge">
<title>Node88&#45;&gt;Node89</title>
<path fill="none" stroke="#191970" d="M215.2019,-37.189C223.7686,-38.3352 232.5292,-39.5074 240.9721,-40.6371"/>
<polygon fill="#191970" stroke="#191970" points="215.6411,-33.7166 205.2653,-35.8594 214.7127,-40.6548 215.6411,-33.7166"/>
</g>
<!-- Node90 -->
<g id="node4" class="node">
<title>Node90</title>
<g id="a_node4"><a xlink:href="wifi_8c.html#a5831b420da0012d53c979c375714d382" target="_top" xlink:title="wifi_start_scan">
<polygon fill="#ffffff" stroke="#000000" points="387,-19.5 387,-38.5 470,-38.5 470,-19.5 387,-19.5"/>
<text text-anchor="middle" x="428.5" y="-26.5" font-family="Helvetica,sans-Serif" font-size="10.00" fill="#000000">wifi_start_scan</text>
</a>
</g>
</g>
<!-- Node89&#45;&gt;Node90 -->
<g id="edge3" class="edge">
<title>Node89&#45;&gt;Node90</title>
<path fill="none" stroke="#191970" d="M361.2024,-38.6502C369.8986,-37.4032 378.6189,-36.1528 386.7637,-34.9848"/>
<polygon fill="#191970" stroke="#191970" points="360.4427,-35.2233 351.0408,-40.1074 361.4364,-42.1524 360.4427,-35.2233"/>
</g>
<!-- Node90&#45;&gt;Node88 -->
<g id="edge4" class="edge">
<title>Node90&#45;&gt;Node88</title>
<path fill="none" stroke="#191970" d="M376.7692,-29C327.663,-29 254.2759,-29 205.3093,-29"/>
<polygon fill="#191970" stroke="#191970" points="376.8618,-32.5001 386.8618,-29 376.8618,-25.5001 376.8618,-32.5001"/>
</g>
<!-- Node91 -->
<g id="node5" class="node">
<title>Node91</title>
<g id="a_node5"><a xlink:href="wifi_8c.html#a9c38abb0900e0c7308be77d85dbf09e0" target="_top" xlink:title="wifi_connect">
<polygon fill="#ffffff" stroke="#000000" points="536.5,-38.5 536.5,-57.5 608.5,-57.5 608.5,-38.5 536.5,-38.5"/>
<text text-anchor="middle" x="572.5" y="-45.5" font-family="Helvetica,sans-Serif" font-size="10.00" fill="#000000">wifi_connect</text>
</a>
</g>
</g>
<!-- Node90&#45;&gt;Node91 -->
<g id="edge5" class="edge">
<title>Node90&#45;&gt;Node91</title>
<path fill="none" stroke="#191970" d="M480.2344,-35.8261C498.811,-38.2771 519.3469,-40.9867 536.3196,-43.2262"/>
<polygon fill="#191970" stroke="#191970" points="480.5227,-32.3339 470.1508,-34.4956 479.607,-39.2737 480.5227,-32.3339"/>
</g>
<!-- Node95 -->
<g id="node9" class="node">
<title>Node95</title>
<g id="a_node9"><a xlink:href="watchdog_8c.html#a47b6861ffbed37fef88aa644f10ba917" target="_top" xlink:title="wifi_reconnect_timer_func">
<polygon fill="#ffffff" stroke="#000000" points="506,-.5 506,-19.5 639,-19.5 639,-.5 506,-.5"/>
<text text-anchor="middle" x="572.5" y="-7.5" font-family="Helvetica,sans-Serif" font-size="10.00" fill="#000000">wifi_reconnect_timer_func</text>
</a>
</g>
</g>
<!-- Node90&#45;&gt;Node95 -->
<g id="edge9" class="edge">
<title>Node90&#45;&gt;Node95</title>
<path fill="none" stroke="#191970" d="M480.1423,-22.1861C488.5246,-21.0801 497.308,-19.9212 505.9846,-18.7763"/>
<polygon fill="#191970" stroke="#191970" points="479.607,-18.7263 470.1508,-23.5044 480.5227,-25.6661 479.607,-18.7263"/>
</g>
<!-- Node92 -->
<g id="node6" class="node">
<title>Node92</title>
<g id="a_node6"><a xlink:href="user__main_8c.html#a245ec00253f410a8804988bf40e1037e" target="_top" xlink:title="sample_mode_timer_func">
<polygon fill="#ffffff" stroke="#000000" points="675,-38.5 675,-57.5 807,-57.5 807,-38.5 675,-38.5"/>
<text text-anchor="middle" x="741" y="-45.5" font-family="Helvetica,sans-Serif" font-size="10.00" fill="#000000">sample_mode_timer_func</text>
</a>
</g>
</g>
<!-- Node91&#45;&gt;Node92 -->
<g id="edge6" class="edge">
<title>Node91&#45;&gt;Node92</title>
<path fill="none" stroke="#191970" d="M618.9815,-48C636.184,-48 656.0355,-48 674.6623,-48"/>
<polygon fill="#191970" stroke="#191970" points="618.6475,-44.5001 608.6475,-48 618.6474,-51.5001 618.6475,-44.5001"/>
</g>
<!-- Node93 -->
<g id="node7" class="node">
<title>Node93</title>
<g id="a_node7"><a xlink:href="user__main_8h.html#a3671381db669a16e8f6a4bf3dfb9a441" target="_top" xlink:title="system_init_done">
<polygon fill="#ffffff" stroke="#000000" points="843,-38.5 843,-57.5 937,-57.5 937,-38.5 843,-38.5"/>
<text text-anchor="middle" x="890" y="-45.5" font-family="Helvetica,sans-Serif" font-size="10.00" fill="#000000">system_init_done</text>
</a>
</g>
</g>
<!-- Node92&#45;&gt;Node93 -->
<g id="edge7" class="edge">
<title>Node92&#45;&gt;Node93</title>
<path fill="none" stroke="#191970" d="M817.361,-48C826.0092,-48 834.624,-48 842.7387,-48"/>
<polygon fill="#191970" stroke="#191970" points="817.2213,-44.5001 807.2213,-48 817.2212,-51.5001 817.2213,-44.5001"/>
</g>
<!-- Node94 -->
<g id="node8" class="node">
<title>Node94</title>
<g id="a_node8"><a xlink:href="user__main_8h.html#a33113d6dedb440bd7dfa5576e325140c" target="_top" xlink:title="user_init">
<polygon fill="#ffffff" stroke="#000000" points="973,-19.5 973,-38.5 1027,-38.5 1027,-19.5 973,-19.5"/>
<text text-anchor="middle" x="1000" y="-26.5" font-family="Helvetica,sans-Serif" font-size="10.00" fill="#000000">user_init</text>
</a>
</g>
</g>
<!-- Node93&#45;&gt;Node94 -->
<g id="edge8" class="edge">
<title>Node93&#45;&gt;Node94</title>
<path fill="none" stroke="#191970" d="M947.2886,-38.1047C956.1598,-36.5724 964.9515,-35.0538 972.7383,-33.7088"/>
<polygon fill="#191970" stroke="#191970" points="946.5466,-34.6809 937.2883,-39.832 947.7381,-41.5788 946.5466,-34.6809"/>
</g>
<!-- Node96 -->
<g id="node10" class="node">
<title>Node96</title>
<g id="a_node10"><a xlink:href="watchdog_8c.html#aeb03c505b5b589ae4d89b2ae11dd1711" target="_top" xlink:title="watchdog_timer_func">
<polygon fill="#ffffff" stroke="#000000" points="685,-.5 685,-19.5 797,-19.5 797,-.5 685,-.5"/>
<text text-anchor="middle" x="741" y="-7.5" font-family="Helvetica,sans-Serif" font-size="10.00" fill="#000000">watchdog_timer_func</text>
</a>
</g>
</g>
<!-- Node95&#45;&gt;Node96 -->
<g id="edge10" class="edge">
<title>Node95&#45;&gt;Node96</title>
<path fill="none" stroke="#191970" d="M649.1494,-10C661.2028,-10 673.4654,-10 684.9395,-10"/>
<polygon fill="#191970" stroke="#191970" points="649.0957,-6.5001 639.0957,-10 649.0956,-13.5001 649.0957,-6.5001"/>
</g>
<!-- Node97 -->
<g id="node11" class="node">
<title>Node97</title>
<g id="a_node11"><a xlink:href="watchdog_8h.html#ab148f2150b52df5b60e312dded3a2934" target="_top" xlink:title="start_watchdog">
<polygon fill="#ffffff" stroke="#000000" points="848,-.5 848,-19.5 932,-19.5 932,-.5 848,-.5"/>
<text text-anchor="middle" x="890" y="-7.5" font-family="Helvetica,sans-Serif" font-size="10.00" fill="#000000">start_watchdog</text>
</a>
</g>
</g>
<!-- Node96&#45;&gt;Node97 -->
<g id="edge11" class="edge">
<title>Node96&#45;&gt;Node97</title>
<path fill="none" stroke="#191970" d="M807.7067,-10C821.407,-10 835.4627,-10 847.9932,-10"/>
<polygon fill="#191970" stroke="#191970" points="807.3305,-6.5001 797.3305,-10 807.3305,-13.5001 807.3305,-6.5001"/>
</g>
<!-- Node97&#45;&gt;Node94 -->
<g id="edge12" class="edge">
<title>Node97&#45;&gt;Node94</title>
<path fill="none" stroke="#191970" d="M942.3079,-19.035C952.9327,-20.8702 963.6918,-22.7286 972.9941,-24.3354"/>
<polygon fill="#191970" stroke="#191970" points="942.6641,-15.5448 932.2143,-17.2916 941.4726,-22.4426 942.6641,-15.5448"/>
</g>
</g>
</svg>
