<?xml version="1.0" encoding="UTF-8" standalone="no"?>
<!DOCTYPE svg PUBLIC "-//W3C//DTD SVG 1.1//EN"
 "http://www.w3.org/Graphics/SVG/1.1/DTD/svg11.dtd">
<!-- Generated by graphviz version 2.39.20160927.1334 (20160927.1334)
 -->
<!-- Title: wifi_start_scan Pages: 1 -->
<svg width="1044pt" height="332pt"
 viewBox="0.00 0.00 1044.00 332.00" xmlns="http://www.w3.org/2000/svg" xmlns:xlink="http://www.w3.org/1999/xlink">
<g id="graph0" class="graph" transform="scale(1 1) rotate(0) translate(4 328)">
<title>wifi_start_scan</title>
<polygon fill="#ffffff" stroke="transparent" points="-4,4 -4,-328 1040,-328 1040,4 -4,4"/>
<!-- Node1 -->
<g id="node1" class="node">
<title>Node1</title>
<polygon fill="#bfbfbf" stroke="#000000" points="0,-76.5 0,-95.5 83,-95.5 83,-76.5 0,-76.5"/>
<text text-anchor="middle" x="41.5" y="-83.5" font-family="Helvetica,sans-Serif" font-size="10.00" fill="#000000">wifi_start_scan</text>
</g>
<!-- Node2 -->
<g id="node2" class="node">
<title>Node2</title>
<g id="a_node2"><a xlink:href="wifi_8c.html#ae7011f25db54676b86fefe2caa450a4a" target="_top" xlink:title="wifi_scan_timer_func">
<polygon fill="#ffffff" stroke="#000000" points="119,-76.5 119,-95.5 229,-95.5 229,-76.5 119,-76.5"/>
<text text-anchor="middle" x="174" y="-83.5" font-family="Helvetica,sans-Serif" font-size="10.00" fill="#000000">wifi_scan_timer_func</text>
</a>
</g>
</g>
<!-- Node1&#45;&gt;Node2 -->
<g id="edge1" class="edge">
<title>Node1&#45;&gt;Node2</title>
<path fill="none" stroke="#191970" d="M83.0603,-86C91.2426,-86 100.011,-86 108.757,-86"/>
<polygon fill="#191970" stroke="#191970" points="108.976,-89.5001 118.976,-86 108.976,-82.5001 108.976,-89.5001"/>
</g>
<!-- Node3 -->
<g id="node3" class="node">
<title>Node3</title>
<g id="a_node3"><a xlink:href="espmissingincludes_8h.html#a0bbba7104c948de849f8051d9ac956e3" target="_top" xlink:title="os_printf">
<polygon fill="#ffffff" stroke="#000000" points="556.5,-190.5 556.5,-209.5 611.5,-209.5 611.5,-190.5 556.5,-190.5"/>
<text text-anchor="middle" x="584" y="-197.5" font-family="Helvetica,sans-Serif" font-size="10.00" fill="#000000">os_printf</text>
</a>
</g>
</g>
<!-- Node2&#45;&gt;Node3 -->
<g id="edge2" class="edge">
<title>Node2&#45;&gt;Node3</title>
<path fill="none" stroke="#191970" d="M187.035,-95.611C220.652,-119.723 313.897,-182.393 403,-204 451.236,-215.697 508.834,-211.441 545.89,-206.463"/>
<polygon fill="#191970" stroke="#191970" points="546.831,-209.864 556.235,-204.983 545.839,-202.935 546.831,-209.864"/>
</g>
<!-- Node4 -->
<g id="node4" class="node">
<title>Node4</title>
<g id="a_node4"><a xlink:href="wifi_8c.html#a79205b29f65bdd821ad9452bdbf0b747" target="_top" xlink:title="wifi_get_rssi">
<polygon fill="#ffffff" stroke="#000000" points="280,-19.5 280,-38.5 352,-38.5 352,-19.5 280,-19.5"/>
<text text-anchor="middle" x="316" y="-26.5" font-family="Helvetica,sans-Serif" font-size="10.00" fill="#000000">wifi_get_rssi</text>
</a>
</g>
</g>
<!-- Node2&#45;&gt;Node4 -->
<g id="edge3" class="edge">
<title>Node2&#45;&gt;Node4</title>
<path fill="none" stroke="#191970" d="M197.768,-76.4595C221.011,-67.1295 256.613,-52.8384 282.678,-42.3758"/>
<polygon fill="#191970" stroke="#191970" points="284.178,-45.545 292.155,-38.5716 281.571,-39.0488 284.178,-45.545"/>
</g>
<!-- Node5 -->
<g id="node5" class="node">
<title>Node5</title>
<g id="a_node5"><a xlink:href="wifi_8c.html#a1ef15ecd9e69811f6db10215c7196281" target="_top" xlink:title="wifi_scan_done_cb">
<polygon fill="#ffffff" stroke="#000000" points="265,-95.5 265,-114.5 367,-114.5 367,-95.5 265,-95.5"/>
<text text-anchor="middle" x="316" y="-102.5" font-family="Helvetica,sans-Serif" font-size="10.00" fill="#000000">wifi_scan_done_cb</text>
</a>
</g>
</g>
<!-- Node2&#45;&gt;Node5 -->
<g id="edge4" class="edge">
<title>Node2&#45;&gt;Node5</title>
<path fill="none" stroke="#191970" d="M229.308,-93.4003C237.612,-94.5115 246.218,-95.663 254.64,-96.7898"/>
<polygon fill="#191970" stroke="#191970" points="254.412,-100.29 264.788,-98.1477 255.341,-93.3523 254.412,-100.29"/>
</g>
<!-- Node5&#45;&gt;Node3 -->
<g id="edge33" class="edge">
<title>Node5&#45;&gt;Node3</title>
<path fill="none" stroke="#191970" d="M323.402,-114.512C337.067,-131.281 368.072,-165.765 403,-181 449.327,-201.207 508.428,-203.579 546.252,-202.516"/>
<polygon fill="#191970" stroke="#191970" points="546.466,-206.01 556.327,-202.137 546.203,-199.015 546.466,-206.01"/>
</g>
<!-- Node6 -->
<g id="node6" class="node">
<title>Node6</title>
<g id="a_node6"><a xlink:href="wifi_8c.html#ac4389ba687a71cbb616f05b02427eb2a" target="_top" xlink:title="wifi_fallback">
<polygon fill="#ffffff" stroke="#000000" points="409.5,-152.5 409.5,-171.5 479.5,-171.5 479.5,-152.5 409.5,-152.5"/>
<text text-anchor="middle" x="444.5" y="-159.5" font-family="Helvetica,sans-Serif" font-size="10.00" fill="#000000">wifi_fallback</text>
</a>
</g>
</g>
<!-- Node5&#45;&gt;Node6 -->
<g id="edge5" class="edge">
<title>Node5&#45;&gt;Node6</title>
<path fill="none" stroke="#191970" d="M337.508,-114.541C358.356,-123.788 390.192,-137.91 413.72,-148.347"/>
<polygon fill="#191970" stroke="#191970" points="412.362,-151.573 422.922,-152.428 415.2,-145.174 412.362,-151.573"/>
</g>
<!-- Node20 -->
<g id="node20" class="node">
<title>Node20</title>
<g id="a_node20"><a xlink:href="led_8c.html#aa00afefe8ba48ccd7df635fbc7d4c9fc" target="_top" xlink:title="led_pattern_a">
<polygon fill="#ffffff" stroke="#000000" points="405.5,-76.5 405.5,-95.5 483.5,-95.5 483.5,-76.5 405.5,-76.5"/>
<text text-anchor="middle" x="444.5" y="-83.5" font-family="Helvetica,sans-Serif" font-size="10.00" fill="#000000">led_pattern_a</text>
</a>
</g>
</g>
<!-- Node5&#45;&gt;Node20 -->
<g id="edge23" class="edge">
<title>Node5&#45;&gt;Node20</title>
<path fill="none" stroke="#191970" d="M367.156,-97.4361C376.411,-96.0677 386.044,-94.6432 395.244,-93.2831"/>
<polygon fill="#191970" stroke="#191970" points="396.021,-96.7062 405.402,-91.781 394.997,-89.7815 396.021,-96.7062"/>
</g>
<!-- Node24 -->
<g id="node24" class="node">
<title>Node24</title>
<g id="a_node24"><a xlink:href="wifi_8c.html#a0be23fd8148c6a3abf21c739359bed52" target="_top" xlink:title="wifi_default">
<polygon fill="#ffffff" stroke="#000000" points="411,-114.5 411,-133.5 478,-133.5 478,-114.5 411,-114.5"/>
<text text-anchor="middle" x="444.5" y="-121.5" font-family="Helvetica,sans-Serif" font-size="10.00" fill="#000000">wifi_default</text>
</a>
</g>
</g>
<!-- Node5&#45;&gt;Node24 -->
<g id="edge27" class="edge">
<title>Node5&#45;&gt;Node24</title>
<path fill="none" stroke="#191970" d="M367.156,-112.564C378.294,-114.211 389.98,-115.939 400.798,-117.538"/>
<polygon fill="#191970" stroke="#191970" points="400.453,-121.025 410.857,-119.026 401.477,-114.1 400.453,-121.025"/>
</g>
<!-- Node26 -->
<g id="node26" class="node">
<title>Node26</title>
<g id="a_node26"><a xlink:href="led_8c.html#a7cd1d03b4baad9cb20bf1a43046f61a2" target="_top" xlink:title="led_stop_pattern">
<polygon fill="#ffffff" stroke="#000000" points="538.5,-38.5 538.5,-57.5 629.5,-57.5 629.5,-38.5 538.5,-38.5"/>
<text text-anchor="middle" x="584" y="-45.5" font-family="Helvetica,sans-Serif" font-size="10.00" fill="#000000">led_stop_pattern</text>
</a>
</g>
</g>
<!-- Node5&#45;&gt;Node26 -->
<g id="edge31" class="edge">
<title>Node5&#45;&gt;Node26</title>
<path fill="none" stroke="#191970" d="M336.18,-95.325C357.512,-85.2544 389.853,-70.472 403,-67 444.011,-56.1692 491.785,-51.4728 527.95,-49.4555"/>
<polygon fill="#191970" stroke="#191970" points="528.492,-52.9327 538.303,-48.9331 528.139,-45.9416 528.492,-52.9327"/>
</g>
<!-- Node27 -->
<g id="node27" class="node">
<title>Node27</title>
<g id="a_node27"><a xlink:href="wifi_8c.html#a5831b420da0012d53c979c375714d382" target="_top" xlink:title="wifi_start_scan">
<polygon fill="#ffffff" stroke="#000000" points="403,-0.5 403,-19.5 486,-19.5 486,-0.5 403,-0.5"/>
<text text-anchor="middle" x="444.5" y="-7.5" font-family="Helvetica,sans-Serif" font-size="10.00" fill="#000000">wifi_start_scan</text>
</a>
</g>
</g>
<!-- Node5&#45;&gt;Node27 -->
<g id="edge34" class="edge">
<title>Node5&#45;&gt;Node27</title>
<path fill="none" stroke="#191970" d="M342.555,-95.3854C350.874,-91.6439 359.763,-86.8346 367,-81 387.485,-64.4856 383.231,-51.3647 403,-34 406.787,-30.6735 411.105,-27.5777 415.49,-24.7897"/>
<polygon fill="#191970" stroke="#191970" points="417.596,-27.6119 424.439,-19.5237 414.046,-21.579 417.596,-27.6119"/>
</g>
<!-- Node6&#45;&gt;Node3 -->
<g id="edge6" class="edge">
<title>Node6&#45;&gt;Node3</title>
<path fill="none" stroke="#191970" d="M479.702,-171.589C500.095,-177.144 525.759,-184.135 546.526,-189.792"/>
<polygon fill="#191970" stroke="#191970" points="545.715,-193.198 556.283,-192.45 547.554,-186.445 545.715,-193.198"/>
</g>
<!-- Node7 -->
<g id="node7" class="node">
<title>Node7</title>
<g id="a_node7"><a xlink:href="tinyprintf_8c.html#a9738cbc6c538d210941db282e240c7d6" target="_top" xlink:title="tfp_snprintf">
<polygon fill="#ffffff" stroke="#000000" points="551,-152.5 551,-171.5 617,-171.5 617,-152.5 551,-152.5"/>
<text text-anchor="middle" x="584" y="-159.5" font-family="Helvetica,sans-Serif" font-size="10.00" fill="#000000">tfp_snprintf</text>
</a>
</g>
</g>
<!-- Node6&#45;&gt;Node7 -->
<g id="edge7" class="edge">
<title>Node6&#45;&gt;Node7</title>
<path fill="none" stroke="#191970" d="M479.702,-162C498.175,-162 520.973,-162 540.538,-162"/>
<polygon fill="#191970" stroke="#191970" points="540.73,-165.5 550.73,-162 540.73,-158.5 540.73,-165.5"/>
</g>
<!-- Node8 -->
<g id="node8" class="node">
<title>Node8</title>
<g id="a_node8"><a xlink:href="tinyprintf_8c.html#ac8c8a66133cf0d7009c0d73b55311a44" target="_top" xlink:title="tfp_vsnprintf">
<polygon fill="#ffffff" stroke="#000000" points="682,-152.5 682,-171.5 753,-171.5 753,-152.5 682,-152.5"/>
<text text-anchor="middle" x="717.5" y="-159.5" font-family="Helvetica,sans-Serif" font-size="10.00" fill="#000000">tfp_vsnprintf</text>
</a>
</g>
</g>
<!-- Node7&#45;&gt;Node8 -->
<g id="edge8" class="edge">
<title>Node7&#45;&gt;Node8</title>
<path fill="none" stroke="#191970" d="M617,-162C633.395,-162 653.475,-162 671.365,-162"/>
<polygon fill="#191970" stroke="#191970" points="671.601,-165.5 681.601,-162 671.601,-158.5 671.601,-165.5"/>
</g>
<!-- Node9 -->
<g id="node9" class="node">
<title>Node9</title>
<g id="a_node9"><a xlink:href="tinyprintf_8c.html#a5877e42444463efc71a91b5fe76a6145" target="_top" xlink:title="tfp_format">
<polygon fill="#ffffff" stroke="#000000" points="801.5,-171.5 801.5,-190.5 863.5,-190.5 863.5,-171.5 801.5,-171.5"/>
<text text-anchor="middle" x="832.5" y="-178.5" font-family="Helvetica,sans-Serif" font-size="10.00" fill="#000000">tfp_format</text>
</a>
</g>
</g>
<!-- Node8&#45;&gt;Node9 -->
<g id="edge9" class="edge">
<title>Node8&#45;&gt;Node9</title>
<path fill="none" stroke="#191970" d="M753.256,-167.908C765.31,-169.899 778.859,-172.138 791.298,-174.193"/>
<polygon fill="#191970" stroke="#191970" points="790.992,-177.69 801.429,-175.867 792.133,-170.783 790.992,-177.69"/>
</g>
<!-- Node19 -->
<g id="node19" class="node">
<title>Node19</title>
<g id="a_node19"><a xlink:href="tinyprintf_8c.html#a919051024b2d729e34a54648b3f2462d" target="_top" xlink:title="_vsnprintf_putcf">
<polygon fill="#ffffff" stroke="#000000" points="789,-133.5 789,-152.5 876,-152.5 876,-133.5 789,-133.5"/>
<text text-anchor="middle" x="832.5" y="-140.5" font-family="Helvetica,sans-Serif" font-size="10.00" fill="#000000">_vsnprintf_putcf</text>
</a>
</g>
</g>
<!-- Node8&#45;&gt;Node19 -->
<g id="edge22" class="edge">
<title>Node8&#45;&gt;Node19</title>
<path fill="none" stroke="#191970" d="M753.256,-156.092C761.313,-154.761 770.037,-153.32 778.651,-151.897"/>
<polygon fill="#191970" stroke="#191970" points="779.371,-155.325 788.667,-150.242 778.23,-148.419 779.371,-155.325"/>
</g>
<!-- Node10 -->
<g id="node10" class="node">
<title>Node10</title>
<g id="a_node10"><a xlink:href="tinyprintf_8c.html#aa97593a5e53af85b608ad0910db92d77" target="_top" xlink:title="a2u">
<polygon fill="#ffffff" stroke="#000000" points="919.5,-304.5 919.5,-323.5 952.5,-323.5 952.5,-304.5 919.5,-304.5"/>
<text text-anchor="middle" x="936" y="-311.5" font-family="Helvetica,sans-Serif" font-size="10.00" fill="#000000">a2u</text>
</a>
</g>
</g>
<!-- Node9&#45;&gt;Node10 -->
<g id="edge10" class="edge">
<title>Node9&#45;&gt;Node10</title>
<path fill="none" stroke="#191970" d="M838.832,-190.706C851.722,-210.218 882.306,-255.297 912,-290 913.939,-292.267 916.05,-294.575 918.189,-296.821"/>
<polygon fill="#191970" stroke="#191970" points="915.835,-299.417 925.359,-304.059 920.808,-294.491 915.835,-299.417"/>
</g>
<!-- Node12 -->
<g id="node12" class="node">
<title>Node12</title>
<g id="a_node12"><a xlink:href="tinyprintf_8c.html#abcf035dd576671b0cc897de9dd8c75b0" target="_top" xlink:title="ulli2a">
<polygon fill="#ffffff" stroke="#000000" points="996,-247.5 996,-266.5 1036,-266.5 1036,-247.5 996,-247.5"/>
<text text-anchor="middle" x="1016" y="-254.5" font-family="Helvetica,sans-Serif" font-size="10.00" fill="#000000">ulli2a</text>
</a>
</g>
</g>
<!-- Node9&#45;&gt;Node12 -->
<g id="edge12" class="edge">
<title>Node9&#45;&gt;Node12</title>
<path fill="none" stroke="#191970" d="M838.727,-190.585C850.557,-207.8 878.151,-243.424 912,-257 935.367,-266.372 964.134,-265.535 985.486,-262.829"/>
<polygon fill="#191970" stroke="#191970" points="986.228,-266.257 995.611,-261.338 985.208,-259.332 986.228,-266.257"/>
</g>
<!-- Node13 -->
<g id="node13" class="node">
<title>Node13</title>
<g id="a_node13"><a xlink:href="tinyprintf_8c.html#a1d61347854a8c290d59b4a21efcefd75" target="_top" xlink:title="uli2a">
<polygon fill="#ffffff" stroke="#000000" points="997,-161.5 997,-180.5 1035,-180.5 1035,-161.5 997,-161.5"/>
<text text-anchor="middle" x="1016" y="-168.5" font-family="Helvetica,sans-Serif" font-size="10.00" fill="#000000">uli2a</text>
</a>
</g>
</g>
<!-- Node9&#45;&gt;Node13 -->
<g id="edge13" class="edge">
<title>Node9&#45;&gt;Node13</title>
<path fill="none" stroke="#191970" d="M863.745,-182.534C889.599,-183.436 927.257,-183.901 960,-181 968.812,-180.219 978.314,-178.761 986.944,-177.194"/>
<polygon fill="#191970" stroke="#191970" points="987.777,-180.598 996.933,-175.268 986.451,-173.725 987.777,-180.598"/>
</g>
<!-- Node14 -->
<g id="node14" class="node">
<title>Node14</title>
<g id="a_node14"><a xlink:href="tinyprintf_8c.html#ac87ff66a592723f55692eaf8e3f19df8" target="_top" xlink:title="ui2a">
<polygon fill="#ffffff" stroke="#000000" points="998.5,-104.5 998.5,-123.5 1033.5,-123.5 1033.5,-104.5 998.5,-104.5"/>
<text text-anchor="middle" x="1016" y="-111.5" font-family="Helvetica,sans-Serif" font-size="10.00" fill="#000000">ui2a</text>
</a>
</g>
</g>
<!-- Node9&#45;&gt;Node14 -->
<g id="edge14" class="edge">
<title>Node9&#45;&gt;Node14</title>
<path fill="none" stroke="#191970" d="M855.221,-171.452C861.957,-168.521 869.317,-165.218 876,-162 892.301,-154.152 895.191,-149.69 912,-143 937.179,-132.979 967.088,-125.027 988.354,-120.004"/>
<polygon fill="#191970" stroke="#191970" points="989.365,-123.363 998.328,-117.713 987.798,-116.541 989.365,-123.363"/>
</g>
<!-- Node15 -->
<g id="node15" class="node">
<title>Node15</title>
<g id="a_node15"><a xlink:href="tinyprintf_8c.html#a6252dbfebb2c8783c4e3107d551082dd" target="_top" xlink:title="putchw">
<polygon fill="#ffffff" stroke="#000000" points="912,-38.5 912,-57.5 960,-57.5 960,-38.5 912,-38.5"/>
<text text-anchor="middle" x="936" y="-45.5" font-family="Helvetica,sans-Serif" font-size="10.00" fill="#000000">putchw</text>
</a>
</g>
</g>
<!-- Node9&#45;&gt;Node15 -->
<g id="edge15" class="edge">
<title>Node9&#45;&gt;Node15</title>
<path fill="none" stroke="#191970" d="M863.068,-171.416C867.827,-168.919 872.364,-165.821 876,-162 907.126,-129.291 885.337,-103.439 912,-67 912.549,-66.2495 913.135,-65.5127 913.751,-64.7915"/>
<polygon fill="#191970" stroke="#191970" points="916.325,-67.1727 921.126,-57.7281 911.483,-62.1172 916.325,-67.1727"/>
</g>
<!-- Node16 -->
<g id="node16" class="node">
<title>Node16</title>
<g id="a_node16"><a xlink:href="tinyprintf_8c.html#a49c6d2b3d4088012f2c1fe344eef69f3" target="_top" xlink:title="lli2a">
<polygon fill="#ffffff" stroke="#000000" points="919,-228.5 919,-247.5 953,-247.5 953,-228.5 919,-228.5"/>
<text text-anchor="middle" x="936" y="-235.5" font-family="Helvetica,sans-Serif" font-size="10.00" fill="#000000">lli2a</text>
</a>
</g>
</g>
<!-- Node9&#45;&gt;Node16 -->
<g id="edge16" class="edge">
<title>Node9&#45;&gt;Node16</title>
<path fill="none" stroke="#191970" d="M850.057,-190.669C866.438,-199.69 891.091,-213.267 909.798,-223.57"/>
<polygon fill="#191970" stroke="#191970" points="908.254,-226.715 918.702,-228.474 911.631,-220.584 908.254,-226.715"/>
</g>
<!-- Node17 -->
<g id="node17" class="node">
<title>Node17</title>
<g id="a_node17"><a xlink:href="tinyprintf_8c.html#afebb7696337c3f599b5e8db35c560684" target="_top" xlink:title="li2a">
<polygon fill="#ffffff" stroke="#000000" points="920,-152.5 920,-171.5 952,-171.5 952,-152.5 920,-152.5"/>
<text text-anchor="middle" x="936" y="-159.5" font-family="Helvetica,sans-Serif" font-size="10.00" fill="#000000">li2a</text>
</a>
</g>
</g>
<!-- Node9&#45;&gt;Node17 -->
<g id="edge18" class="edge">
<title>Node9&#45;&gt;Node17</title>
<path fill="none" stroke="#191970" d="M863.553,-175.299C878.358,-172.582 895.867,-169.367 909.964,-166.78"/>
<polygon fill="#191970" stroke="#191970" points="910.773,-170.19 919.977,-164.941 909.509,-163.305 910.773,-170.19"/>
</g>
<!-- Node18 -->
<g id="node18" class="node">
<title>Node18</title>
<g id="a_node18"><a xlink:href="tinyprintf_8c.html#a90f9fd8f2133cda7f50be8d67823405c" target="_top" xlink:title="i2a">
<polygon fill="#ffffff" stroke="#000000" points="921,-76.5 921,-95.5 951,-95.5 951,-76.5 921,-76.5"/>
<text text-anchor="middle" x="936" y="-83.5" font-family="Helvetica,sans-Serif" font-size="10.00" fill="#000000">i2a</text>
</a>
</g>
</g>
<!-- Node9&#45;&gt;Node18 -->
<g id="edge20" class="edge">
<title>Node9&#45;&gt;Node18</title>
<path fill="none" stroke="#191970" d="M860.967,-171.29C866.275,-168.747 871.545,-165.665 876,-162 897.705,-144.139 893.989,-131.581 912,-110 913.911,-107.71 916.005,-105.387 918.135,-103.133"/>
<polygon fill="#191970" stroke="#191970" points="920.755,-105.462 925.299,-95.8905 915.778,-100.539 920.755,-105.462"/>
</g>
<!-- Node11 -->
<g id="node11" class="node">
<title>Node11</title>
<g id="a_node11"><a xlink:href="tinyprintf_8c.html#aa853a0c5ba64fa2546d488b86192e7e3" target="_top" xlink:title="a2d">
<polygon fill="#ffffff" stroke="#000000" points="999.5,-304.5 999.5,-323.5 1032.5,-323.5 1032.5,-304.5 999.5,-304.5"/>
<text text-anchor="middle" x="1016" y="-311.5" font-family="Helvetica,sans-Serif" font-size="10.00" fill="#000000">a2d</text>
</a>
</g>
</g>
<!-- Node10&#45;&gt;Node11 -->
<g id="edge11" class="edge">
<title>Node10&#45;&gt;Node11</title>
<path fill="none" stroke="#191970" d="M952.576,-314C963.195,-314 977.215,-314 989.373,-314"/>
<polygon fill="#191970" stroke="#191970" points="989.445,-317.5 999.445,-314 989.445,-310.5 989.445,-317.5"/>
</g>
<!-- Node16&#45;&gt;Node12 -->
<g id="edge17" class="edge">
<title>Node16&#45;&gt;Node12</title>
<path fill="none" stroke="#191970" d="M953.359,-242.123C962.831,-244.372 974.829,-247.222 985.784,-249.824"/>
<polygon fill="#191970" stroke="#191970" points="985.313,-253.309 995.851,-252.215 986.931,-246.499 985.313,-253.309"/>
</g>
<!-- Node17&#45;&gt;Node13 -->
<g id="edge19" class="edge">
<title>Node17&#45;&gt;Node13</title>
<path fill="none" stroke="#191970" d="M952.189,-163.821C962.047,-164.93 974.938,-166.38 986.551,-167.687"/>
<polygon fill="#191970" stroke="#191970" points="986.404,-171.192 996.733,-168.832 987.187,-164.236 986.404,-171.192"/>
</g>
<!-- Node18&#45;&gt;Node14 -->
<g id="edge21" class="edge">
<title>Node18&#45;&gt;Node14</title>
<path fill="none" stroke="#191970" d="M951.047,-91.2666C961.619,-94.9666 976.062,-100.022 988.644,-104.426"/>
<polygon fill="#191970" stroke="#191970" points="987.632,-107.779 998.227,-107.779 989.944,-101.172 987.632,-107.779"/>
</g>
<!-- Node21 -->
<g id="node21" class="node">
<title>Node21</title>
<g id="a_node21"><a xlink:href="led_8c.html#af6a79b211d188e643a4f1cf7552ac7ee" target="_top" xlink:title="led_blinker_timer_func">
<polygon fill="#ffffff" stroke="#000000" points="525.5,-76.5 525.5,-95.5 642.5,-95.5 642.5,-76.5 525.5,-76.5"/>
<text text-anchor="middle" x="584" y="-83.5" font-family="Helvetica,sans-Serif" font-size="10.00" fill="#000000">led_blinker_timer_func</text>
</a>
</g>
</g>
<!-- Node20&#45;&gt;Node21 -->
<g id="edge24" class="edge">
<title>Node20&#45;&gt;Node21</title>
<path fill="none" stroke="#191970" d="M483.73,-86C493.501,-86 504.268,-86 515.01,-86"/>
<polygon fill="#191970" stroke="#191970" points="515.269,-89.5001 525.269,-86 515.269,-82.5001 515.269,-89.5001"/>
</g>
<!-- Node22 -->
<g id="node22" class="node">
<title>Node22</title>
<g id="a_node22"><a xlink:href="led_8c.html#a0a23edee5e1db0cd2928c18a42ffe96f" target="_top" xlink:title="led_on">
<polygon fill="#ffffff" stroke="#000000" points="694,-76.5 694,-95.5 741,-95.5 741,-76.5 694,-76.5"/>
<text text-anchor="middle" x="717.5" y="-83.5" font-family="Helvetica,sans-Serif" font-size="10.00" fill="#000000">led_on</text>
</a>
</g>
</g>
<!-- Node21&#45;&gt;Node22 -->
<g id="edge25" class="edge">
<title>Node21&#45;&gt;Node22</title>
<path fill="none" stroke="#191970" d="M642.555,-86C656.535,-86 671.002,-86 683.452,-86"/>
<polygon fill="#191970" stroke="#191970" points="683.812,-89.5001 693.812,-86 683.812,-82.5001 683.812,-89.5001"/>
</g>
<!-- Node23 -->
<g id="node23" class="node">
<title>Node23</title>
<g id="a_node23"><a xlink:href="led_8c.html#a7ef0b27e501c77cd25b8bb7a2de6d8bd" target="_top" xlink:title="led_off">
<polygon fill="#ffffff" stroke="#000000" points="694,-38.5 694,-57.5 741,-57.5 741,-38.5 694,-38.5"/>
<text text-anchor="middle" x="717.5" y="-45.5" font-family="Helvetica,sans-Serif" font-size="10.00" fill="#000000">led_off</text>
</a>
</g>
</g>
<!-- Node21&#45;&gt;Node23 -->
<g id="edge26" class="edge">
<title>Node21&#45;&gt;Node23</title>
<path fill="none" stroke="#191970" d="M617.688,-76.411C638.04,-70.6178 663.878,-63.2631 684.167,-57.4882"/>
<polygon fill="#191970" stroke="#191970" points="685.261,-60.8157 693.921,-54.7116 683.345,-54.0831 685.261,-60.8157"/>
</g>
<!-- Node24&#45;&gt;Node3 -->
<g id="edge28" class="edge">
<title>Node24&#45;&gt;Node3</title>
<path fill="none" stroke="#191970" d="M469.498,-133.568C475.156,-136.236 480.973,-139.404 486,-143 504.922,-156.534 502.226,-168.743 522,-181 529.497,-185.647 538.211,-189.229 546.697,-191.963"/>
<polygon fill="#191970" stroke="#191970" points="545.886,-195.372 556.466,-194.795 547.836,-188.649 545.886,-195.372"/>
</g>
<!-- Node24&#45;&gt;Node7 -->
<g id="edge29" class="edge">
<title>Node24&#45;&gt;Node7</title>
<path fill="none" stroke="#191970" d="M478.269,-133.199C497.032,-138.31 520.578,-144.724 540.685,-150.201"/>
<polygon fill="#191970" stroke="#191970" points="539.974,-153.635 550.542,-152.886 541.813,-146.881 539.974,-153.635"/>
</g>
<!-- Node25 -->
<g id="node25" class="node">
<title>Node25</title>
<g id="a_node25"><a xlink:href="wifi_8c.html#a2091cde351b02dbc8bd9d52273488bba" target="_top" xlink:title="wifi_get_rssi_timer_func">
<polygon fill="#ffffff" stroke="#000000" points="522,-114.5 522,-133.5 646,-133.5 646,-114.5 522,-114.5"/>
<text text-anchor="middle" x="584" y="-121.5" font-family="Helvetica,sans-Serif" font-size="10.00" fill="#000000">wifi_get_rssi_timer_func</text>
</a>
</g>
</g>
<!-- Node24&#45;&gt;Node25 -->
<g id="edge30" class="edge">
<title>Node24&#45;&gt;Node25</title>
<path fill="none" stroke="#191970" d="M478.269,-124C488.435,-124 500.005,-124 511.671,-124"/>
<polygon fill="#191970" stroke="#191970" points="511.915,-127.5 521.915,-124 511.915,-120.5 511.915,-127.5"/>
</g>
<!-- Node26&#45;&gt;Node23 -->
<g id="edge32" class="edge">
<title>Node26&#45;&gt;Node23</title>
<path fill="none" stroke="#191970" d="M629.57,-48C647.291,-48 667.234,-48 683.642,-48"/>
<polygon fill="#191970" stroke="#191970" points="683.855,-51.5001 693.855,-48 683.855,-44.5001 683.855,-51.5001"/>
</g>
<!-- Node27&#45;&gt;Node2 -->
<g id="edge35" class="edge">
<title>Node27&#45;&gt;Node2</title>
<path fill="none" stroke="#191970" d="M428.107,-19.6127C412.778,-28.2149 389.01,-40.5803 367,-48 325.411,-62.0198 276.939,-71.54 238.976,-77.5451"/>
<polygon fill="#191970" stroke="#191970" points="238.414,-74.0903 229.063,-79.0715 239.479,-81.0088 238.414,-74.0903"/>
</g>
</g>
</svg>
