<?xml version="1.0" encoding="UTF-8" standalone="no"?>
<!DOCTYPE svg PUBLIC "-//W3C//DTD SVG 1.1//EN"
 "http://www.w3.org/Graphics/SVG/1.1/DTD/svg11.dtd">
<!-- Generated by graphviz version 2.41.20170323.1842 (20170323.1842)
 -->
<!-- Title: wifi_scan_timer_func Pages: 1 -->
<svg width="688pt" height="142pt"
 viewBox="0.00 0.00 688.00 142.00" xmlns="http://www.w3.org/2000/svg" xmlns:xlink="http://www.w3.org/1999/xlink">
<g id="graph0" class="graph" transform="scale(1 1) rotate(0) translate(4 138)">
<title>wifi_scan_timer_func</title>
<polygon fill="#ffffff" stroke="transparent" points="-4,4 -4,-138 684,-138 684,4 -4,4"/>
<!-- Node412 -->
<g id="node1" class="node">
<title>Node412</title>
<polygon fill="#bfbfbf" stroke="#000000" points="0,-38.5 0,-57.5 110,-57.5 110,-38.5 0,-38.5"/>
<text text-anchor="middle" x="55" y="-45.5" font-family="Helvetica,sans-Serif" font-size="10.00" fill="#000000">wifi_scan_timer_func</text>
</g>
<!-- Node413 -->
<g id="node2" class="node">
<title>Node413</title>
<g id="a_node2"><a xlink:href="wifi_8c.html#a0d197abbbedf42c0522e20b43884c920" target="_top" xlink:title="acl_check_packet">
<polygon fill="#ffffff" stroke="#000000" points="146,-95.5 146,-114.5 242,-114.5 242,-95.5 146,-95.5"/>
<text text-anchor="middle" x="194" y="-102.5" font-family="Helvetica,sans-Serif" font-size="10.00" fill="#000000">acl_check_packet</text>
</a>
</g>
</g>
<!-- Node412&#45;&gt;Node413 -->
<g id="edge1" class="edge">
<title>Node412&#45;&gt;Node413</title>
<path fill="none" stroke="#191970" d="M87.5331,-61.3409C113.0264,-71.795 147.8798,-86.0874 170.6586,-95.4284"/>
<polygon fill="#191970" stroke="#191970" points="88.8457,-58.0964 78.2655,-57.5405 86.1898,-64.573 88.8457,-58.0964"/>
</g>
<!-- Node417 -->
<g id="node6" class="node">
<title>Node417</title>
<g id="a_node6"><a xlink:href="wifi_8c.html#a5831b420da0012d53c979c375714d382" target="_top" xlink:title="wifi_start_scan">
<polygon fill="#ffffff" stroke="#000000" points="152.5,-38.5 152.5,-57.5 235.5,-57.5 235.5,-38.5 152.5,-38.5"/>
<text text-anchor="middle" x="194" y="-45.5" font-family="Helvetica,sans-Serif" font-size="10.00" fill="#000000">wifi_start_scan</text>
</a>
</g>
</g>
<!-- Node412&#45;&gt;Node417 -->
<g id="edge5" class="edge">
<title>Node412&#45;&gt;Node417</title>
<path fill="none" stroke="#191970" d="M120.563,-41.2596C131.3053,-41.207 142.1734,-41.37 152.1364,-41.7486"/>
<polygon fill="#191970" stroke="#191970" points="120.2953,-37.7624 110.3359,-41.3762 120.3751,-44.7619 120.2953,-37.7624"/>
</g>
<!-- Node414 -->
<g id="node3" class="node">
<title>Node414</title>
<g id="a_node3"><a xlink:href="wifi_8c.html#a3cea38a15b267ddabc1e6d5cf72b5ae8" target="_top" xlink:title="my_input_ap">
<polygon fill="#ffffff" stroke="#000000" points="307.5,-114.5 307.5,-133.5 381.5,-133.5 381.5,-114.5 307.5,-114.5"/>
<text text-anchor="middle" x="344.5" y="-121.5" font-family="Helvetica,sans-Serif" font-size="10.00" fill="#000000">my_input_ap</text>
</a>
</g>
</g>
<!-- Node413&#45;&gt;Node414 -->
<g id="edge2" class="edge">
<title>Node413&#45;&gt;Node414</title>
<path fill="none" stroke="#191970" d="M252.165,-112.3431C270.7294,-114.6868 290.7584,-117.2153 307.4019,-119.3165"/>
<polygon fill="#191970" stroke="#191970" points="252.3926,-108.8441 242.0329,-111.064 251.5158,-115.789 252.3926,-108.8441"/>
</g>
<!-- Node415 -->
<g id="node4" class="node">
<title>Node415</title>
<g id="a_node4"><a xlink:href="wifi_8c.html#aa87c06c3cbab2aa762551fcec59dc8f0" target="_top" xlink:title="wifi_handle_event_cb">
<polygon fill="#ffffff" stroke="#000000" points="447,-114.5 447,-133.5 560,-133.5 560,-114.5 447,-114.5"/>
<text text-anchor="middle" x="503.5" y="-121.5" font-family="Helvetica,sans-Serif" font-size="10.00" fill="#000000">wifi_handle_event_cb</text>
</a>
</g>
</g>
<!-- Node414&#45;&gt;Node415 -->
<g id="edge3" class="edge">
<title>Node414&#45;&gt;Node415</title>
<path fill="none" stroke="#191970" d="M392.1457,-124C409.3495,-124 428.9378,-124 446.8382,-124"/>
<polygon fill="#191970" stroke="#191970" points="391.7785,-120.5001 381.7784,-124 391.7784,-127.5001 391.7785,-120.5001"/>
</g>
<!-- Node416 -->
<g id="node5" class="node">
<title>Node416</title>
<g id="a_node5"><a xlink:href="wifi_8c.html#a9c38abb0900e0c7308be77d85dbf09e0" target="_top" xlink:title="wifi_connect">
<polygon fill="#ffffff" stroke="#000000" points="602,-95.5 602,-114.5 674,-114.5 674,-95.5 602,-95.5"/>
<text text-anchor="middle" x="638" y="-102.5" font-family="Helvetica,sans-Serif" font-size="10.00" fill="#000000">wifi_connect</text>
</a>
</g>
</g>
<!-- Node415&#45;&gt;Node416 -->
<g id="edge4" class="edge">
<title>Node415&#45;&gt;Node416</title>
<path fill="none" stroke="#191970" d="M570.1161,-114.5895C581.0102,-113.0506 591.9266,-111.5085 601.7214,-110.1249"/>
<polygon fill="#191970" stroke="#191970" points="569.5624,-111.1329 560.1503,-115.9974 570.5416,-118.0641 569.5624,-111.1329"/>
</g>
<!-- Node417&#45;&gt;Node412 -->
<g id="edge6" class="edge">
<title>Node417&#45;&gt;Node412</title>
<path fill="none" stroke="#191970" d="M142.0176,-54.5557C131.6773,-54.7896 120.7836,-54.8123 110.3359,-54.6238"/>
<polygon fill="#191970" stroke="#191970" points="142.2462,-58.0505 152.1364,-54.2514 142.0357,-51.0537 142.2462,-58.0505"/>
</g>
<!-- Node417&#45;&gt;Node416 -->
<g id="edge9" class="edge">
<title>Node417&#45;&gt;Node416</title>
<path fill="none" stroke="#191970" d="M241.9323,-59.8606C253.6762,-62.4842 266.2483,-65.0576 278,-67 395.6562,-86.4471 536.678,-97.9424 601.7881,-102.5896"/>
<polygon fill="#191970" stroke="#191970" points="242.3954,-56.3761 231.8665,-57.5566 240.8335,-63.1997 242.3954,-56.3761"/>
</g>
<!-- Node418 -->
<g id="node7" class="node">
<title>Node418</title>
<g id="a_node7"><a xlink:href="wifi_8c.html#a1ef15ecd9e69811f6db10215c7196281" target="_top" xlink:title="wifi_scan_done_cb">
<polygon fill="#ffffff" stroke="#000000" points="293.5,-.5 293.5,-19.5 395.5,-19.5 395.5,-.5 293.5,-.5"/>
<text text-anchor="middle" x="344.5" y="-7.5" font-family="Helvetica,sans-Serif" font-size="10.00" fill="#000000">wifi_scan_done_cb</text>
</a>
</g>
</g>
<!-- Node417&#45;&gt;Node418 -->
<g id="edge7" class="edge">
<title>Node417&#45;&gt;Node418</title>
<path fill="none" stroke="#191970" d="M241.6847,-35.96C262.7103,-30.6512 287.0674,-24.5012 306.7956,-19.5201"/>
<polygon fill="#191970" stroke="#191970" points="240.8164,-32.5693 231.9775,-38.411 242.5301,-39.3563 240.8164,-32.5693"/>
</g>
<!-- Node419 -->
<g id="node8" class="node">
<title>Node419</title>
<g id="a_node8"><a xlink:href="watchdog_8c.html#a47b6861ffbed37fef88aa644f10ba917" target="_top" xlink:title="wifi_reconnect_timer_func">
<polygon fill="#ffffff" stroke="#000000" points="278,-38.5 278,-57.5 411,-57.5 411,-38.5 278,-38.5"/>
<text text-anchor="middle" x="344.5" y="-45.5" font-family="Helvetica,sans-Serif" font-size="10.00" fill="#000000">wifi_reconnect_timer_func</text>
</a>
</g>
</g>
<!-- Node417&#45;&gt;Node419 -->
<g id="edge10" class="edge">
<title>Node417&#45;&gt;Node419</title>
<path fill="none" stroke="#191970" d="M245.6671,-48C256.0677,-48 267.1368,-48 277.9623,-48"/>
<polygon fill="#191970" stroke="#191970" points="245.5232,-44.5001 235.5232,-48 245.5231,-51.5001 245.5232,-44.5001"/>
</g>
<!-- Node418&#45;&gt;Node412 -->
<g id="edge8" class="edge">
<title>Node418&#45;&gt;Node412</title>
<path fill="none" stroke="#191970" d="M283.3391,-14.0999C243.9831,-17.1702 191.8128,-22.0465 146,-29 129.5648,-31.4945 111.6236,-35.0575 96.0489,-38.4253"/>
<polygon fill="#191970" stroke="#191970" points="283.6081,-17.5897 293.3128,-13.339 283.0755,-10.6099 283.6081,-17.5897"/>
</g>
<!-- Node420 -->
<g id="node9" class="node">
<title>Node420</title>
<g id="a_node9"><a xlink:href="watchdog_8c.html#aeb03c505b5b589ae4d89b2ae11dd1711" target="_top" xlink:title="watchdog_timer_func">
<polygon fill="#ffffff" stroke="#000000" points="447.5,-38.5 447.5,-57.5 559.5,-57.5 559.5,-38.5 447.5,-38.5"/>
<text text-anchor="middle" x="503.5" y="-45.5" font-family="Helvetica,sans-Serif" font-size="10.00" fill="#000000">watchdog_timer_func</text>
</a>
</g>
</g>
<!-- Node419&#45;&gt;Node420 -->
<g id="edge11" class="edge">
<title>Node419&#45;&gt;Node420</title>
<path fill="none" stroke="#191970" d="M421.2767,-48C430.0626,-48 438.8929,-48 447.3377,-48"/>
<polygon fill="#191970" stroke="#191970" points="421.0091,-44.5001 411.009,-48 421.009,-51.5001 421.0091,-44.5001"/>
</g>
<!-- Node421 -->
<g id="node10" class="node">
<title>Node421</title>
<g id="a_node10"><a xlink:href="watchdog_8h.html#ab148f2150b52df5b60e312dded3a2934" target="_top" xlink:title="start_watchdog">
<polygon fill="#ffffff" stroke="#000000" points="596,-38.5 596,-57.5 680,-57.5 680,-38.5 596,-38.5"/>
<text text-anchor="middle" x="638" y="-45.5" font-family="Helvetica,sans-Serif" font-size="10.00" fill="#000000">start_watchdog</text>
</a>
</g>
</g>
<!-- Node420&#45;&gt;Node421 -->
<g id="edge12" class="edge">
<title>Node420&#45;&gt;Node421</title>
<path fill="none" stroke="#191970" d="M570.0443,-48C578.8413,-48 587.6545,-48 595.8815,-48"/>
<polygon fill="#191970" stroke="#191970" points="569.7608,-44.5001 559.7608,-48 569.7608,-51.5001 569.7608,-44.5001"/>
</g>
</g>
</svg>
